<?xml version="1.0" encoding="utf-8"?>
<!-- Generator: Adobe Illustrator 24.2.0, SVG Export Plug-In . SVG Version: 6.00 Build 0)  -->
<svg version="1.1" id="Layer_1" xmlns="http://www.w3.org/2000/svg" xmlns:xlink="http://www.w3.org/1999/xlink" x="0px" y="0px"
	 viewBox="0 0 515 524.6" style="enable-background:new 0 0 515 524.6;" xml:space="preserve">
<style type="text/css">
	.st0{fill:#FEFEFE;}
	.st1{fill:#2C2C2C;}
	.st2{fill:none;stroke:#2C2C2C;stroke-width:7;stroke-miterlimit:10;}
</style>
<g>
	<g>
		<g>
			
				<image style="overflow:visible;opacity:0.5;enable-background:new    ;" width="515" height="519" xlink:href="9929D99F44AD1F72.png"  transform="matrix(6.123234e-17 -1 1 6.123234e-17 0.8148 519.8212)">
			</image>
			<g>
				<path class="st0" d="M389.1,107.9c-1.6-0.9-3.5-1.2-5.3-0.8c-0.6,0.3-1.2,0.5-1.8,0.8H389.1z"/>
				<path class="st0" d="M7.4,348.1C47.9,285,95.3,226.5,148.6,173.7c51.3-50.9,107.9-96.2,168.7-135.2l70.4,63.5
					c-62.8,39.6-120.9,86.1-173.5,138.5c-53,52.9-99.9,111.5-139.9,174.8L7.4,348.1z"/>
				<path class="st1" d="M387.2,104.5c-0.6-0.9-1.3-1.8-2.1-2.6c-0.8-0.9-1.5-1.8-2.3-2.7s-1.5-1.8-2.2-2.7s-1.5-1.8-2.3-2.6
					c-1.7-1.8-3.2-3.7-4.8-5.5c-0.7-0.9-1.5-1.8-2.3-2.6c-0.7-0.8-1.4-1.6-2.2-2.4c-2.1-2.1-4.1-4.4-6.2-6.5
					c-0.9-0.9-1.9-1.8-2.8-2.8c-0.9-1-1.9-1.9-2.8-2.9l0,0c-0.8-0.8-1.7-1.6-2.5-2.5c-0.9-0.9-1.9-1.8-2.8-2.6
					c-0.7-0.7-1.5-1.5-2.2-2.3c-0.8-0.9-1.7-1.7-2.6-2.5c-0.8-0.8-1.6-1.6-2.3-2.4c-0.9-1.1-1.8-2.2-2.7-3.2
					c-1.7-1.8-3.7-3.4-5.5-5.1l0.3,0.3c-1.3-1.2-2.6-2.3-3.9-3.5c-1.3-1.1-2.5-2.2-3.9-3.2c-0.7-0.5-1.5-0.9-2.1-1.5
					c-0.6-0.5-1.2-0.9-1.8-1.3c-0.6-0.4-1.2-0.9-1.9-1.3c-0.8-0.5-1.6-1-2.5-1.5c-0.5-0.4-1.2-0.5-1.8-0.4c-1.3,0.2-2.2,1.4-2,2.7
					c0,0,0,0,0,0c0.1,0.6,0.4,1.2,0.9,1.5c0.6,0.3,1.2,0.7,1.8,1l0,0c0.2,0.1,0.4,0.2,0.6,0.4c0.6,0.4,1.2,0.8,1.7,1.2l0.1,0
					c1.3,1,2.5,1.8,3.7,2.6c1.3,0.9,2.6,1.9,3.8,3c0.5,0.4,1,0.8,1.5,1.2L331,52c0.7,0.6,1.4,1.2,2.1,1.8c0.7,0.7,1.5,1.4,2.2,2
					l0.1,0.1l0.3,0.3c0.6,0.5,1.1,1,1.6,1.5c0.9,0.9,1.7,1.8,2.5,2.8c0.4,0.5,0.8,0.9,1.1,1.4c1.2,1.3,2.5,2.6,3.8,3.8
					c0.6,0.5,1.1,1.1,1.6,1.7l0.2,0.2c0.3,0.3,0.7,0.7,1,1c0.8,0.8,1.7,1.6,2.5,2.4l0.9,0.8l0.3,0.3l0.3,0.3l2,1.9
					c0.1,0.1,0.3,0.2,0.4,0.4l-0.1-0.1c0.8,0.7,1.5,1.5,2.2,2.3s1.5,1.5,2.2,2.3c0.8,0.7,1.5,1.5,2.3,2.2c0.6,0.6,1.2,1.3,1.8,1.8
					c0.3,0.3,0.5,0.6,0.8,0.9c0.4,0.4,0.7,0.8,1.1,1.2l0.2,0.2c0.4,0.4,0.8,0.8,1.2,1.2c0.5,0.5,1,1.1,1.5,1.6l0.1,0.1l0.6,0.7
					c1.6,1.8,3.1,3.7,4.6,5.4c0.7,0.9,1.5,1.7,2.3,2.6l0.7,0.8c0.4,0.5,0.9,1,1.3,1.5c0.2,0.2,0.3,0.4,0.5,0.6l0.2,0.2
					c0.2,0.3,0.4,0.5,0.6,0.8c0.5,0.6,1.1,1.3,1.6,1.9c0.4,0.5,0.8,0.9,1.2,1.4l0.1,0.1v0v0l0,0c0.9,1,1.7,2,2.5,3.1
					c0.4,0.5,1,0.8,1.6,0.9c1.3,0.1,2.5-0.8,2.6-2.1c0,0,0,0,0,0c0-0.1,0-0.1,0-0.2C387.7,105.5,387.5,105,387.2,104.5L387.2,104.5z
					"/>
				<path class="st1" d="M315.1,165.5L315.1,165.5L315.1,165.5L315.1,165.5z"/>
				<path class="st1" d="M315.2,165.5L315.2,165.5L315.2,165.5L315.2,165.5z"/>
				<path class="st1" d="M80.7,403.8L80.7,403.8L80.7,403.8L80.7,403.8z"/>
				<path class="st1" d="M5.2,347.2c-1,0.9-1.1,2.3-0.3,3.4c1.5,1.9,2.8,3.9,4.5,5.6c0.7,0.8,1.6,1.5,2.3,2.2
					c0.9,0.8,1.7,1.7,2.4,2.7c0.8,1,1.5,2,2.3,2.9c0.8,0.9,1.5,1.7,2.3,2.6c1.6,1.8,3.2,3.7,4.8,5.5c1.2,1.3,2.4,2.6,3.7,3.8
					c1.2,1.2,2.4,2.3,3.6,3.5c0,0-0.1-0.1-0.1-0.1c0.7,0.6,1.4,1.3,2.1,1.9c2.1,1.9,4.2,3.7,6.3,5.6c0.4,0.4,0.8,0.7,1.2,1.1
					c0.8,0.7,1.6,1.4,2.4,2.1s1.6,1.4,2.4,2.1c1.6,1.5,3.1,3,4.6,4.6c0.8,0.9,1.7,1.9,2.6,2.7c0.8,0.8,1.7,1.6,2.5,2.4
					c1.4,1.3,2.7,2.7,4.1,4.1l0,0c0.3,0.3,0.6,0.6,0.9,0.8c1,1,2,1.8,3,2.6c0.3,0.2,0.6,0.5,0.8,0.7l0.2,0.1c0.5,0.4,1,0.8,1.5,1.3
					l0.1,0.1c0.5,0.5,1.1,1,1.6,1.6l0.7,0.7c0.8,0.8,1.5,1.5,2.2,2.3c0.3,0.3,0.5,0.6,0.8,0.9l0.2,0.2c0.4,0.4,0.7,0.8,1,1.1
					c0.2,0.2,0.4,0.5,0.6,0.7c0.2,0.2,0.3,0.4,0.5,0.6c0.1,0.2,0.3,0.3,0.4,0.4l0.1,0.1c0.2,0.2,0.4,0.5,0.6,0.7
					c0.1,0.2,0.3,0.3,0.5,0.4l0,0c0.9,0.6,2,0.5,2.9-0.2c0.3-0.2,0.5-0.6,0.7-0.9v-1.8c-0.1-0.2-0.2-0.4-0.4-0.6
					c-0.5-0.6-1-1.1-1.5-1.8c-0.5-0.7-1.1-1.3-1.7-1.9c-1-1.1-2-2.2-3-3.3c-1.3-1.4-2.7-2.7-4.1-3.9c-0.6-0.5-1.2-0.9-1.7-1.4
					c-0.6-0.5-1.2-1-1.8-1.6c-1.6-1.5-3-3-4.6-4.5c-1.6-1.6-3.3-3.1-4.8-4.7c-1.5-1.6-3.1-3.3-4.7-4.8c-1.7-1.7-3.6-3.2-5.4-4.8
					c-0.6-0.6-1.2-1.1-1.8-1.6l0.2,0.2c-0.1-0.1-0.1-0.1-0.2-0.2l-0.1-0.1c-1-0.9-1.9-1.8-2.9-2.6c-1-0.9-2.1-1.8-3.1-2.7l-0.3-0.3
					c-0.8-0.7-1.5-1.4-2.3-2.1c-1.7-1.6-3.4-3.4-5-5.1c-1.7-1.7-3.3-3.6-4.9-5.5c-0.8-0.9-1.6-1.8-2.3-2.7c-0.8-0.9-1.6-1.7-2.3-2.7
					c-0.8-1-1.5-2-2.3-2.9c-0.8-0.9-1.6-1.7-2.5-2.5c-1-0.9-2-1.9-2.8-3c-1-1.3-2-2.6-3-3.9C7.7,346.5,6.2,346.3,5.2,347.2z"/>
				<path class="st1" d="M39,386.7c-0.1-0.1-0.2-0.2-0.3-0.3C38.8,386.6,38.9,386.6,39,386.7z"/>
				<path class="st1" d="M74.3,413.9c-0.6,0.2-1.1,0.7-1.3,1.3c-0.2,0.6-0.2,1.2,0,1.8c0.1,0.5,0.3,1.1,0.4,1.6
					c0.1,0.5,0.3,0.9,0.5,1.4c0.2,0.5,0.3,0.9,0.5,1.3l0,0c0.3,0.6,0.6,1.2,1,1.8c0.6,0.7,1.3,1.3,2.1,1.7c0.2,0.1,0.3,0.1,0.5,0.2
					v-7.8c-0.2-0.6-0.4-1.3-0.5-1.9c-0.2-0.6-0.7-1.1-1.3-1.3C75.6,413.7,74.9,413.7,74.3,413.9z"/>
				<path class="st1" d="M57.3,401.3c-0.6,0.1-1.2,0.4-1.6,0.9c-0.1,0.1-0.1,0.2-0.2,0.3c-0.2,0.2-0.4,0.4-0.7,0.6
					c-0.2,0.2-0.4,0.5-0.6,0.7c-0.3,0.3-0.7,0.5-1,0.8c-0.7,0.6-1.4,1.2-2.1,1.9c-0.7,0.8-1.3,1.6-1.8,2.4c-0.7,0.9-1.4,1.7-2.1,2.6
					c-0.6,0.8-1.2,1.6-1.9,2.4c-0.7,0.8-1.4,1.6-2.2,2.4c-0.8,0.9-1.5,1.7-2.3,2.6c-0.7,0.7-1.3,1.4-2,2.1c-0.5,0.5-1,0.9-1.5,1.4
					l0.2-0.2c-0.2,0.2-0.4,0.3-0.5,0.5c0,0,0.1-0.1,0.1-0.1l-0.2,0.2c-1.8,1.7-3.4,3.7-5,5.6c-1.5,1.8-3.1,3.4-4.6,5.2
					c-1.6,1.8-3.2,3.5-4.8,5.3c-1.6,1.7-3.3,3.4-4.8,5.1c-1.6,1.8-3.3,3.5-5,5.2c-0.8,0.8-1.6,1.7-2.4,2.6c-0.7,0.8-1.5,1.6-2.2,2.4
					c-0.8,0.8-1.6,1.6-2.3,2.4c-0.8,0.9-1.7,1.8-2.5,2.6c-1.5,1.6-2.9,3.4-4.1,5.2c-0.5,0.7-0.9,1.5-1.3,2.2c-0.2,0.5-0.3,1-0.3,1.5
					c0.1,0.5,0.2,0.9,0.5,1.3c0.4,0.5,1,0.9,1.6,1c0.3,0,0.6,0.1,0.9,0c0.8-0.1,1.5-0.2,2.3-0.5c0.7-0.2,1.4-0.4,2.1-0.5
					c0.6-0.1,1.2-0.3,1.9-0.4c0.7-0.1,1.5-0.3,2.2-0.5c2.5-0.6,5-0.8,7.5-1.4c2-0.5,3.9-1.3,5.9-1.8c1.5-0.3,2.9-0.6,4.4-1
					c0.6-0.2,1.1-0.4,1.7-0.6c0.7-0.2,1.4-0.4,2.1-0.6c1.4-0.4,2.9-0.8,4.3-1.2c1.3-0.4,2.6-0.7,3.9-1c1.6-0.4,3.2-0.6,4.7-1.1
					c1.4-0.4,2.7-1,4-1.6c1.1-0.5,2.2-0.9,3.3-1.4l0,0.1c-0.3,1-0.7,2-1.1,2.9c-0.4,0.9-0.7,1.8-1.1,2.7c-0.4,1-0.7,2-1.1,2.9
					c-0.3,0.9-0.7,1.8-1.1,2.7c-0.7,1.9-1.7,3.7-2.5,5.6c-0.5,1.1-1,2.1-1.4,3.2c-0.4,1-0.8,2.1-1.3,3.1c-0.5,1.1-1.1,2.1-1.6,3.1
					c-0.5,1.2-0.9,2.4-1.4,3.6c-0.4,1.1-0.9,2.1-1.4,3.1c-0.5,1-0.9,2-1.5,2.9c-1.2,2.1-2.4,4.3-3.5,6.5c-0.5,1-1,2-1.5,3
					c-0.4,0.9-0.9,1.8-1.3,2.7c-0.1,0.2-0.2,0.4-0.3,0.5c0,0,0,0-0.1,0.1c-0.8,1-0.6,2.5,0.4,3.3c0.3,0.3,0.7,0.4,1.1,0.5
					c0.7,0.1,1.3-0.1,1.8-0.5c0.2-0.2,0.4-0.3,0.5-0.5c0.2-0.2,0.5-0.4,0.7-0.7c0.4-0.4,0.7-0.8,1.1-1.2c0.8-0.7,1.6-1.4,2.3-2.1
					c0.8-0.8,1.7-1.5,2.6-2.3c1.7-1.6,3.5-3.2,5.3-4.8c1.9-1.6,3.9-3.2,5.9-4.9c1-0.8,1.9-1.6,2.9-2.4c1-0.8,2-1.6,2.9-2.5
					c0.8-0.8,1.7-1.6,2.5-2.4c0.6-0.6,1.2-1.1,1.8-1.7c2.7-2.5,5.3-5,8-7.5c1.4-1.4,2.9-2.7,4.3-4.1c1.2-1.2,2.4-2.4,3.6-3.6
					c0.5-0.5,1.1-1,1.6-1.5v-6.5c-0.5,0.4-1,0.9-1.4,1.3l-0.5,0.4c-0.8,0.7-1.5,1.4-2.3,2.1c-1.2,1.2-2.5,2.4-3.6,3.6l-0.1,0.1
					c-0.8,0.8-1.5,1.5-2.3,2.3c-0.8,0.8-1.7,1.6-2.5,2.4l-0.4,0.4c-0.9,0.9-1.9,1.7-2.8,2.6c-0.9,0.9-1.8,1.7-2.7,2.6
					c-0.9,0.8-1.7,1.6-2.6,2.4c-0.2,0.2-0.4,0.4-0.6,0.6l0.1-0.1l-0.1,0.1l-0.1,0.1l-0.2,0.2c-0.6,0.6-1.2,1.2-1.8,1.8
					c-1.3,1.2-2.6,2.3-4,3.4c-0.5,0.4-1,0.9-1.6,1.3c-0.9,0.8-1.8,1.5-2.7,2.3l-0.2,0.2c-1,0.8-2,1.6-3,2.5
					c-0.8,0.6-1.6,1.4-2.7,2.3c-0.2,0.2-0.5,0.4-0.7,0.6c0,0,0,0,0,0l0,0c0.3-0.5,0.6-1,0.8-1.6c0.5-0.9,0.9-1.9,1.4-2.9
					c0.5-1.1,1-2.2,1.4-3.3c0.4-1.2,0.8-2.4,1.4-3.5c0.2-0.4,0.4-0.8,0.6-1.2c0.3-0.6,0.7-1.2,0.9-1.9l0.3-0.9
					c0.3-0.8,0.6-1.6,1-2.3c0.7-1.7,1.8-3.9,2.8-6c0.4-0.7,0.6-1.5,0.9-2.2l0.2-0.5c0.2-0.4,0.3-0.8,0.5-1.3c0.2-0.5,0.4-1,0.6-1.5
					c0.7-2.1,1.6-4.2,2.1-5.6c0.3-0.6,0.5-1.3,0.8-2.1c0.2-0.6,0.4-1.2,0.5-1.9l0-0.1l0.1-0.4c0-0.1,0.1-0.2,0.1-0.3
					c0.1-0.4,0.2-0.8,0.3-1.2l0.1-0.2l0-0.1c0.1-0.3,0.2-0.6,0.2-0.9c0-0.2,0-0.3,0-0.5c0-0.4-0.1-0.7-0.2-1.1
					c-0.1-0.5-0.4-1-0.9-1.4c-0.4-0.3-0.8-0.5-1.2-0.5c-0.5-0.1-1,0-1.4,0.2c-0.5,0.2-1,0.4-1.5,0.6c-0.5,0.3-1,0.5-1.6,0.7
					l-0.3,0.1l-0.4,0.2c-1.3,0.5-2.5,1-3.8,1.6c-1.4,0.6-2.8,1.1-4.2,1.5l-0.9,0.2l-0.4,0.1l-0.1,0c-0.9,0.2-1.9,0.4-2.8,0.7
					c-0.8,0.2-1.5,0.4-2.3,0.6l-0.3,0.1c-0.7,0.2-1.3,0.4-2,0.5c-1.6,0.4-3.1,0.8-4.6,1.3l-1.1,0.4l-0.1,0c-0.8,0.3-1.7,0.5-2.5,0.8
					c-0.4,0.1-0.7,0.1-1.1,0.2l-0.3,0.1c-0.2,0-0.5,0.1-0.7,0.1c-0.9,0.2-1.8,0.4-2.7,0.7c-0.3,0.1-0.6,0.2-0.9,0.3l-0.3,0.1l-0.1,0
					c-0.9,0.3-1.9,0.6-2.8,0.9c-0.8,0.2-1.6,0.3-2.4,0.4l-0.2,0l-0.9,0.1c-1,0.2-2.1,0.4-3.5,0.7l-0.1,0c-0.5,0.1-1.1,0.2-1.7,0.3
					l-0.5,0.1L5,464.6c-0.1,0-0.2,0.1-0.4,0.1l0,0l0,0l0.2-0.2c0.1-0.1,0.2-0.3,0.3-0.4c0.2-0.3,0.5-0.6,0.7-0.9
					c1.2-1.3,2.5-2.7,3.7-3.9l1.3-1.3c1.5-1.6,3-3.2,4.5-4.8c0.7-0.7,1.4-1.5,2.1-2.2l0.1-0.1c0.9-0.9,1.9-1.9,2.8-2.9
					c0.4-0.4,0.7-0.8,1.1-1.2l0.2-0.2l1-1.1c0.5-0.5,1-1.1,1.5-1.6l0.1-0.1c0.3-0.3,0.6-0.6,0.9-0.9c0.6-0.6,1.1-1.2,1.6-1.8
					l0.4-0.4l0.4-0.4c0.4-0.4,0.8-0.9,1.2-1.3c0.4-0.4,0.8-0.8,1.2-1.3l1.2-1.3l0.4-0.5c1-1.1,2.1-2.3,3.1-3.4
					c0.4-0.5,0.9-1,1.3-1.5l0.2-0.2c0.3-0.4,0.7-0.8,1-1.2c0-0.1,0.1-0.1,0.1-0.2c0.8-1,1.5-1.7,2.2-2.4c0.1-0.2,0.3-0.3,0.4-0.4
					c0,0,0,0,0,0l0,0l0,0l-0.1,0l0.2-0.2c0.1-0.1,0.1-0.1,0.2-0.2l0,0c1.9-1.7,3.3-3.1,4.5-4.5c0.3-0.3,0.6-0.7,0.9-1l0.1-0.1
					c0.3-0.3,0.6-0.6,0.9-1l0.2-0.2c0.6-0.6,1.2-1.3,1.8-2c0.5-0.6,1.1-1.3,1.6-2c0.7-0.9,1.3-1.6,1.8-2.2c0.6-0.7,1.1-1.4,1.6-2.1
					c0.4-0.6,0.9-1.3,1.5-1.8c0.5-0.4,1-0.8,1.6-1.3c0.5-0.3,0.9-0.7,1.3-1.2c0.1-0.2,0.3-0.3,0.4-0.5c0.1-0.1,0.1-0.1,0.2-0.2
					l0.1-0.1l0.1-0.1c0.2-0.1,0.4-0.3,0.5-0.5c0.2-0.2,0.3-0.4,0.4-0.7c0.2-0.4,0.2-0.9,0.2-1.3c-0.1-0.6-0.4-1.2-0.9-1.6
					C58.5,401.5,57.9,401.3,57.3,401.3z"/>
				<path class="st1" d="M39.9,426.4L39.9,426.4L39.9,426.4z"/>
				<path class="st1" d="M38.6,421.2c-0.1,0.1-0.2,0.2-0.4,0.4C38.4,421.4,38.5,421.3,38.6,421.2z"/>
				<path class="st1" d="M29,505.6C28.9,505.6,28.9,505.6,29,505.6C28.9,505.6,28.9,505.6,29,505.6z"/>
				<path class="st1" d="M471.4,74.6c0,0.2,0.1,0.3,0.1,0.5l0.3-0.3C471.6,74.7,471.5,74.6,471.4,74.6L471.4,74.6z"/>
				<path class="st1" d="M363.9,74.6c-0.2-0.1-0.4-0.2-0.6-0.4c-0.2-0.2-0.4-0.4-0.7-0.6c-0.4-0.3-0.8-0.7-1.1-1.1
					c-0.1-0.1-0.1-0.2-0.2-0.3l-0.1-0.1c0,0,0,0,0,0c0,0-0.1,0-0.1,0c-0.5,0.4-1,0.8-1.4,1.3c-0.4,0.5-0.7,1-1,1.5
					c-0.5,1.2,0,2.6,1.2,3.2s2.6,0,3.2-1.2c0.1-0.2,0.3-0.4,0.4-0.6c0.4-0.4,0.8-0.7,1.2-1.1l0,0C364.5,75.1,364.2,74.9,363.9,74.6
					L363.9,74.6z"/>
				<polygon class="st1" points="364.2,74.8 364.2,74.8 364.2,74.8 364.2,74.8 364.2,74.8 				"/>
				<polygon class="st1" points="396.2,121.6 396.2,121.6 396.2,121.6 396.2,121.6 396.2,121.6 				"/>
				<path class="st1" d="M389.3,102.6c-0.6-0.8-1.2-1.7-1.8-2.5c0.1,0.1,0.2,0.2,0.2,0.3c-0.1-0.1-0.2-0.3-0.3-0.4c0,0,0,0,0,0
					c-0.6-0.7-1.2-1.4-1.8-2.1c-0.7-0.7-1.4-1.4-2-2.2c-0.3-0.4-0.6-0.7-0.9-1.1l0,0c-0.7-0.9-1.5-1.7-2.2-2.5
					c-0.7-0.7-1.3-1.4-2-2.2s-1.3-1.5-2-2.2c-0.7-0.8-1.4-1.6-2.1-2.4c-0.4-0.4-0.7-0.8-1.1-1.3c-0.4-0.4-0.9-0.8-1.3-1.2
					c-0.8-0.7-1.5-1.4-2.2-2.2c-0.8-0.8-1.5-1.6-2.3-2.4c-0.8-0.9-1.6-1.7-2.3-2.6l-0.4-0.5c-0.2-0.1-0.5-0.3-0.7-0.5
					c-0.2-0.1-0.4-0.2-0.6-0.4c-0.2-0.2-0.5-0.4-0.7-0.6c-0.4-0.3-0.8-0.7-1.1-1.1c-0.1-0.1-0.1-0.2-0.2-0.3c0,0-0.1-0.1-0.1-0.1
					c0,0,0,0,0,0c-0.9-0.4-1.7-1.1-2.1-2.1c-0.1-0.2-0.2-0.5-0.3-0.8c-0.2-0.1-0.3-0.3-0.5-0.4c-0.8-0.7-1.5-1.5-2.2-2.2
					c-0.8-0.8-1.7-1.6-2.6-2.4c-0.8-0.8-1.6-1.7-2.4-2.5s-1.6-1.7-2.4-2.5c-0.7-0.8-1.4-1.5-2.1-2.2c-1.6-1.5-3.5-2.8-5.2-4.3
					c-0.8-0.8-1.6-1.5-2.5-2.3c-0.8-0.7-1.6-1.4-2.4-2.1c-0.7-0.7-1.4-1.3-2.2-1.9c-0.9-0.7-1.7-1.4-2.5-2.2c-1.8-1.6-3.8-3-5.9-4.1
					c-0.5-0.3-1.1-0.5-1.6-0.8c-0.5-0.2-1-0.5-1.6-0.7c-0.6-0.2-1.1-0.4-1.7-0.6c-0.7-0.1-1.4-0.2-2.1-0.2c-0.6,0-1.2,0.3-1.7,0.7
					c-0.9,0.9-0.9,2.4,0,3.4c0,0,0,0,0,0c0.5,0.4,1.1,0.7,1.7,0.7c0.2,0,0.4,0,0.6,0c0.3,0.1,0.7,0.1,1,0.3c0.5,0.2,1,0.5,1.5,0.7
					c0.7,0.3,1.3,0.6,2,0.9c1.1,0.6,2.1,1.2,3.1,2c0.8,0.6,1.6,1.4,2.4,2.1s1.6,1.3,2.4,2s1.5,1.4,2.3,2.1c0.8,0.7,1.6,1.4,2.4,2.1
					c0.8,0.8,1.7,1.6,2.5,2.3c0.8,0.7,1.6,1.3,2.4,2c0.9,0.7,1.8,1.5,2.6,2.3c0.3,0.3,0.6,0.7,1,1.1c0.4,0.4,0.8,0.9,1.2,1.3
					c1.6,1.7,3.1,3.4,4.9,5c1.6,1.4,3,3,4.6,4.4c0.8,0.7,1.7,1.5,2.5,2.2c0.7,0.7,1.4,1.4,2,2.2c0.7,0.9,1.4,1.8,2.2,2.6
					s1.6,1.7,2.4,2.5c1.1,1.2,2.3,2.4,3.5,3.6c0.7,0.6,1.3,1.3,1.9,1.9c0.6,0.7,1.2,1.4,1.8,2.1c0.6,0.6,1.2,1.2,1.8,1.9
					c0.5,0.6,1,1.1,1.5,1.7c1.1,1.3,2.4,2.4,3.4,3.8c0.2,0.3,0.4,0.5,0.6,0.8c0.6,0.8,1.3,1.6,2.1,2.4c0.7,0.7,1.4,1.5,2.1,2.3l0,0
					l0,0c0.6,0.8,1.2,1.7,1.8,2.6c0.6,0.9,1.3,1.8,2,2.7l0.1,0.1h0l0.1,0c0.1,0,0.2,0,0.3,0c0.2-0.2,0.4-0.3,0.5-0.5
					c-0.1,0.1-0.1,0.1-0.2,0.2l0.3-0.3c0.1-0.3,0.2-0.6,0.3-0.9c0-0.1,0.1-0.2,0.1-0.3c0.1-0.6,0.3-1.3,0.4-1.9v0l0,0l0,0
					c0-0.4,0.1-0.9,0.1-1.3C389.5,103,389.4,102.8,389.3,102.6L389.3,102.6z M389.5,104.5c0,0.1,0,0.2-0.1,0.2
					C389.5,104.7,389.5,104.6,389.5,104.5z M379.4,98.2c-0.1-0.1-0.1-0.2-0.2-0.3L379.4,98.2z"/>
				<path class="st1" d="M382.6,94.5L382.6,94.5L382.6,94.5z"/>
				<path class="st1" d="M387.3,99.9L387.3,99.9L387.3,99.9C387.3,100,387.3,100,387.3,99.9L387.3,99.9z"/>
				<path class="st1" d="M364.2,74.8L364.2,74.8C364.2,74.8,364.2,74.8,364.2,74.8L364.2,74.8L364.2,74.8z"/>
				<path class="st1" d="M11.3,354c-0.5,0.3-0.9,0.8-1.1,1.5c-0.2,0.6-0.1,1.3,0.3,1.8c0.2,0.3,0.4,0.6,0.6,0.8
					c0.4,0.4,0.7,0.9,1.1,1.3l-0.4-0.5c0.3,0.5,0.7,0.9,1.1,1.3c0.3,0.4,0.7,0.7,1.1,1c0.9,0.9,1.8,1.8,2.6,2.7
					c1.5,1.6,3.1,3.2,4.5,4.8c0.3,0.4,0.7,0.7,1,1.1c0.4,0.4,0.8,0.8,1.3,1.2c0.8,0.7,1.6,1.5,2.4,2.3c1.4,1.5,2.7,3.2,4.3,4.6
					c0.8,0.7,1.6,1.4,2.5,2.2c0.8,0.7,1.5,1.4,2.2,2.1c0.7,0.7,1.5,1.4,2.3,2.1c0.9,0.8,1.7,1.6,2.5,2.5c1.6,1.6,3.2,3,4.7,4.6
					c1.3,1.5,2.7,2.8,4.1,4.2c1.5,1.5,3.2,2.9,4.7,4.3c1.6,1.5,3.2,3,4.8,4.5c1.3,1.3,2.5,2.7,3.8,4c0.7,0.7,1.4,1.4,2.1,2.1
					c0.7,0.7,1.5,1.5,2.1,2.3c0.7,0.9,1.3,1.8,2,2.6c0.7,0.8,1.4,1.5,2.1,2.2c0.4,0.4,0.8,0.8,1.2,1.2c0.4,0.4,0.7,0.8,1,1.1
					c0.8,0.8,1.6,1.6,2.5,2.4c0.8,0.7,2,0.8,2.9,0.3v-4.1c-1.1-1-2.2-2-3.2-3.1l-0.2-0.2v0c-0.4-0.4-0.9-0.8-1.3-1.2l-0.3-0.2
					c-0.6-0.5-1.1-1-1.5-1.6l-0.4-0.6l-0.3-0.4l-0.1-0.1c-0.4-0.6-0.9-1.1-1.4-1.7c-0.8-0.9-1.5-1.7-2.4-2.6
					c-1.5-1.4-2.8-2.9-4.1-4.3c-1.3-1.4-2.8-2.7-4.2-4.1l-0.7-0.6c-0.4-0.3-0.7-0.7-1.1-1l-0.1-0.1c-0.5-0.4-0.9-0.9-1.4-1.3
					c-0.2-0.2-0.5-0.4-0.7-0.7l-0.2-0.2l-0.1-0.1c-0.5-0.4-1-0.9-1.5-1.4c-0.5-0.5-1.1-1-1.6-1.6l-0.1-0.1l-0.2-0.2
					c-0.2-0.2-0.3-0.4-0.5-0.5c-0.7-0.7-1.3-1.3-1.9-2c-0.3-0.3-0.6-0.6-0.8-0.9c-0.4-0.5-0.9-0.9-1.3-1.4c-0.6-0.6-1.3-1.3-1.9-1.8
					l-0.5-0.5c-0.5-0.5-1-1-1.5-1.4c-0.3-0.3-0.7-0.7-1-1c-0.6-0.6-1.2-1.1-1.8-1.6l-0.6-0.6c-0.5-0.4-0.9-0.9-1.4-1.3l-0.2-0.2
					c-0.2-0.2-0.4-0.4-0.6-0.5c-0.9-0.8-1.7-1.6-2.4-2.2l-0.2-0.2c-0.7-0.6-1.4-1.2-2.1-2c-0.5-0.5-1-1-1.4-1.6
					c-0.2-0.2-0.4-0.4-0.6-0.7c-0.9-1-1.6-1.8-2.3-2.5c-0.3-0.3-0.7-0.6-1-1c-0.5-0.4-1-0.9-1.4-1.3c-0.3-0.4-0.7-0.7-1-1.1
					c-0.4-0.5-0.8-0.9-1.3-1.4l-0.8-0.9c-0.5-0.5-1-1-1.5-1.5c-0.8-0.8-1.6-1.6-2.4-2.5l-0.1-0.1c-0.4-0.4-0.8-0.8-1.2-1.2l-0.3-0.3
					c-0.2-0.2-0.5-0.4-0.7-0.7c-0.1-0.1-0.1-0.1-0.2-0.2l-0.1-0.1l-0.5-0.7l-0.2-0.3v0c-0.2-0.3-0.5-0.6-0.7-0.9l0.4,0.5
					c-0.1-0.1-0.2-0.2-0.3-0.3c-0.3-0.5-0.9-0.9-1.5-1.1C12.5,353.6,11.8,353.7,11.3,354z"/>
				<path class="st1" d="M57.1,398.7c-0.5,0.3-0.9,0.8-1.1,1.4c-0.1,0.2-0.2,0.4-0.4,0.6c-0.5,0.5-1,1-1.5,1.6
					c-0.8,0.8-1.5,1.7-2.1,2.7c-0.6,0.7-1.3,1.3-1.9,2c-0.8,0.8-1.5,1.6-2.2,2.3c-0.7,0.7-1.4,1.4-2,2.1c-0.7,0.8-1.4,1.6-2.1,2.4
					l0,0c-0.4,0.5-0.9,1.1-1.3,1.6c-0.3,0.4-0.7,0.8-1.1,1.2c-0.4,0.4-0.8,0.9-1.2,1.4c-1.2,1.4-2.4,2.8-3.5,4.3
					c-0.6,0.8-1.2,1.6-1.8,2.4c-0.6,0.7-1.1,1.5-1.6,2.2c-0.7,0.8-1.4,1.5-2.1,2.3c-0.3,0.4-0.7,0.7-1,1.1c-0.4,0.4-0.8,0.8-1.3,1.2
					c-0.8,0.7-1.6,1.6-2.3,2.4c-0.6,0.8-1.4,1.5-2.1,2.2c-0.8,0.8-1.5,1.6-2.2,2.3c-0.8,0.8-1.6,1.5-2.4,2.2
					c-0.8,0.7-1.6,1.4-2.4,2.1c-0.8,0.8-1.6,1.7-2.2,2.7c-0.2,0.4-0.5,0.7-0.8,1.1c-0.6,0.6-1.2,1.2-1.8,1.8
					c-0.6,0.7-1.3,1.5-1.8,2.3c-0.8,0.9-1.7,1.6-2.5,2.5c-1,1-2,2-2.9,3.1c-0.8,1-1.7,1.9-2.7,2.9c-0.6,0.6-1.1,1.2-1.6,1.8
					c-0.4,0.5-0.7,1-1.1,1.5c-1.3,1.5-2.9,2.8-3.9,4.5c-0.2,0.3-0.4,0.7-0.6,1c-0.5,0.7-0.7,1.6-0.5,2.5c0.3,1.4,1.5,2.4,2.9,2.5
					c1,0,2-0.2,3-0.5c1-0.2,2-0.5,2.9-0.7c1.9-0.5,3.9-0.9,5.9-1.2c1.3-0.1,2.5-0.2,3.8-0.4c1-0.2,2-0.5,3-0.7
					c1-0.3,2.1-0.6,3.1-0.9c1.2-0.4,2.5-0.9,3.7-1.3c1.2-0.4,2.4-0.7,3.7-1c1-0.3,2-0.6,3-0.9c1.1-0.3,2.1-0.7,3.2-1
					c1.3-0.4,2.6-0.8,3.8-1.3c0.5-0.2,0.9-0.4,1.4-0.5c1-0.4,2-0.7,3.1-1c1.2-0.4,2.4-0.7,3.6-1.1c0.6-0.2,1.2-0.4,1.7-0.7l-0.2,0.5
					c-0.4,0.8-0.8,1.7-1.2,2.5c-0.3,0.8-0.6,1.6-0.9,2.4c-0.3,0.8-0.6,1.5-0.9,2.2s-0.6,1.5-0.9,2.2c-0.4,0.8-0.9,1.6-1.3,2.5
					c-0.5,1-0.9,1.9-1.3,2.9c-0.9,1.7-1.8,3.5-2.5,5.4c-0.3,0.9-0.5,1.8-0.9,2.6c-0.3,0.8-0.6,1.6-1,2.4c-0.3,0.7-0.6,1.3-0.9,2
					c-0.3,0.6-0.5,1.3-0.7,1.9c-0.4,1.3-0.9,2.5-1.5,3.8c-0.5,1.2-1,2.4-1.4,3.7c-0.4,1.2-0.8,2.4-1.3,3.5c-0.4,0.8-0.7,1.5-1,2.3
					c-0.3,0.9-0.6,1.8-0.9,2.6c-0.2,0.7-0.6,1.5-0.8,2.2c-0.2,0.7-0.3,1.4-0.1,2.1c0.3,1.1,1.3,1.9,2.4,2c1-0.1,2-0.5,2.6-1.3
					c0.6-0.5,1.3-1.1,1.9-1.7s1.2-1.2,1.8-1.7c0.6-0.5,1.3-1,1.9-1.5c0.6-0.4,1.1-0.8,1.7-1.2c0.5-0.4,0.9-0.8,1.4-1.2
					c1-1,2.2-1.7,3.3-2.6c0.6-0.5,1.2-1.1,1.8-1.7c0.5-0.5,1-1,1.5-1.4c0.6-0.5,1.2-1.1,1.7-1.6c0.6-0.6,1.1-1.3,1.6-1.9
					c0.7-0.8,1.5-1.5,2.3-2.2c0.8-0.7,1.7-1.5,2.5-2.2c0.8-0.7,1.7-1.5,2.5-2.2c0.9-0.8,1.9-1.5,2.8-2.3c0.8-0.7,1.5-1.4,2.2-2.2
					c0.8-0.8,1.6-1.5,2.4-2.3c0.7-0.7,1.5-1.3,2.2-2c0.7-0.8,1.5-1.5,2.2-2.3c1.6-1.7,3.2-3.3,4.9-4.8c0.8-0.8,1.7-1.5,2.6-2.3
					c0.2-0.1,0.3-0.3,0.5-0.5v-6.6l-0.1,0.1c-1.7,1.6-3.3,3.2-5.1,4.7c-0.9,0.7-1.7,1.5-2.5,2.3c-0.8,0.8-1.6,1.6-2.4,2.4
					c-1.5,1.5-2.9,3.1-4.5,4.5c-0.8,0.7-1.6,1.4-2.4,2.1c-0.8,0.7-1.5,1.5-2.3,2.3c-1.6,1.6-3.4,3-5.2,4.5c-0.9,0.8-1.7,1.5-2.6,2.3
					c-0.9,0.8-1.8,1.5-2.6,2.3c-0.7,0.7-1.3,1.4-1.9,2.2c-0.8,0.9-1.7,1.7-2.6,2.5c-1,0.9-1.9,1.9-2.9,2.8c-0.9,0.8-1.9,1.5-2.9,2.2
					c-0.4,0.3-0.8,0.7-1.2,1.1c-0.4,0.4-0.8,0.7-1.2,1c-0.4,0.3-0.8,0.6-1.2,0.8c0.3-0.7,0.6-1.4,0.9-2.2c0.5-1.3,0.9-2.7,1.4-4
					c0.6-1.3,1.1-2.6,1.6-3.9c0.5-1.3,0.9-2.6,1.5-3.8c0.6-1.3,1.2-2.6,1.6-3.9c0.4-1.1,0.7-2.3,1.2-3.4c0.4-0.8,0.8-1.5,1.2-2.3
					c0.5-0.9,0.9-1.8,1.3-2.7c0.4-0.9,0.9-1.7,1.3-2.6c0.6-1.2,1.1-2.3,1.6-3.5c0.4-1,0.8-2,1.2-3c0.3-0.9,0.7-1.9,1.1-2.8
					c0.4-0.8,0.8-1.6,1.1-2.4c0.4-0.7,0.8-1.3,1.2-2c0.3-0.6,0.6-1.3,0.8-1.9c0.3-0.5,0.6-1.1,0.8-1.6c0.4-1.3-0.4-2.7-1.7-3.1
					c-0.4-0.1-0.8-0.1-1.2-0.1c-0.6,0.2-1.2,0.4-1.7,0.7c-0.4,0.2-0.9,0.5-1.3,0.7s-0.9,0.4-1.4,0.6c-0.9,0.4-1.7,0.7-2.6,1.1
					c-1.5,0.5-3.1,1-4.7,1.5c-1.6,0.5-3.2,1.2-4.8,1.8c-1,0.4-2,0.7-3,0.9c-0.9,0.3-1.9,0.6-2.8,0.9c-1,0.3-1.9,0.6-2.9,0.8
					c-1.1,0.3-2.2,0.5-3.3,0.9c-1.1,0.3-2.3,0.8-3.4,1.2c-1,0.4-2.1,0.7-3.1,1c-0.9,0.2-1.8,0.5-2.7,0.7c-0.4,0.1-0.8,0.2-1.2,0.3
					c-0.5,0.1-0.9,0.2-1.4,0.2c-1.1,0.1-2.2,0.2-3.3,0.3c-1.1,0.2-2.3,0.4-3.4,0.7c-0.7,0.1-1.3,0.3-2,0.4c0.2-0.2,0.4-0.4,0.6-0.6
					c0.5-0.5,0.9-1.1,1.4-1.6c0.4-0.5,0.7-1,1.1-1.4c0.7-0.8,1.4-1.5,2.1-2.2c0.5-0.5,1-1.1,1.4-1.6c0.5-0.6,1-1.1,1.5-1.7
					c0.9-1,1.8-1.9,2.8-2.8c0.4-0.4,0.9-0.8,1.3-1.3c0.4-0.5,0.9-1.1,1.3-1.6c0.7-0.8,1.6-1.5,2.3-2.4c0.5-0.5,0.9-1.1,1.3-1.7
					c0.2-0.4,0.5-0.7,0.8-1.1c0.6-0.6,1.2-1.2,1.8-1.8c0.9-0.7,1.7-1.5,2.6-2.3c0.8-0.7,1.5-1.4,2.2-2.2c0.7-0.8,1.5-1.5,2.2-2.3
					c0.7-0.7,1.3-1.6,2-2.3c0.8-0.8,1.7-1.5,2.4-2.4c0.7-0.8,1.4-1.6,2.2-2.3c0.1-0.1,0.2-0.2,0.3-0.3l0.2-0.2
					c0.2-0.3,0.5-0.6,0.8-0.9c0.2-0.2,0.4-0.4,0.5-0.7c0,0,0.1-0.1,0.1-0.1c0.2-0.3,0.5-0.6,0.7-1c0.6-0.9,1.4-1.7,2-2.6
					c0.6-0.8,1.1-1.6,1.7-2.3c0.8-1,1.6-1.9,2.4-2.8c0.4-0.5,0.9-0.9,1.3-1.4c0.6-0.7,1.2-1.4,1.7-2.1c0.1-0.2,0.3-0.4,0.4-0.5
					c1.4-1.7,3-3.2,4.6-4.8c0.8-0.8,1.6-1.6,2.4-2.4c0.9-1,1.7-2,2.5-3c0.6-0.6,1.2-1.2,1.7-1.8c0.3-0.4,0.7-0.8,1-1.2
					c0.3-0.5,0.5-0.9,0.7-1.4c0.2-0.6,0.1-1.3-0.2-1.8C59.7,398.5,58.3,398.1,57.1,398.7L57.1,398.7z"/>
				<path class="st1" d="M389.1,105.4L389.1,105.4l0.1,0L389.1,105.4L389.1,105.4z"/>
				<path class="st1" d="M395.2,107.9c-0.1-0.1-0.2-0.2-0.4-0.3c-1-0.7-2-1.2-3.1-1.5c-0.5-0.2-0.9-0.4-1.4-0.5
					c-0.4-0.1-0.8-0.2-1.2-0.3c-0.1,0.4-0.3,0.7-0.5,1.1c-0.1,0.2-0.1,0.3-0.2,0.5c-0.2,0.3-0.3,0.7-0.5,1l0,0.1L395.2,107.9z"/>
				<path class="st1" d="M438.4,29.8c-0.8,0.4-1.5,0.8-2.2,1.3c-1.9,1.2-3.6,2.6-5.2,4.1c-0.9,0.8-1.8,1.7-2.6,2.5
					c-0.8,0.8-1.6,1.6-2.4,2.3c-0.8,0.7-1.6,1.5-2.4,2.2c-0.8,0.8-1.7,1.6-2.6,2.4c-1.7,1.7-3.4,3.4-5.2,5c-1.8,1.5-3.4,3.2-5.1,4.8
					c-1.7,1.6-3.5,3.2-5.3,4.8c-1.7,1.5-3.4,3.1-5.2,4.6c-1.9,1.6-3.8,3.2-5.6,5c-0.1,0.1-0.1,0.1-0.2,0.2c0,0,0,0,0,0
					c-0.1,0.1-0.3,0.3-0.4,0.4l0.2-0.2c-0.5,0.5-0.9,1-1.4,1.5c-0.7,0.7-1.4,1.4-2.1,2c-0.8,0.8-1.7,1.5-2.6,2.3
					c-0.8,0.7-1.6,1.5-2.4,2.2c-0.8,0.7-1.6,1.3-2.4,1.9c-0.9,0.7-1.7,1.5-2.6,2.1c-0.8,0.6-1.6,1.2-2.4,1.8
					c-0.7,0.6-1.3,1.3-1.9,2.1c-0.2,0.3-0.4,0.5-0.6,0.8c0.2,0.2,0.4,0.4,0.6,0.6c0.1,0.1,0.2,0.1,0.3,0.2c0.5,0.3,1,0.7,1.5,1.2
					c0.3,0.3,0.5,0.5,0.7,0.8c0.2,0.1,0.4,0.2,0.7,0.3c0.1-0.1,0.1-0.2,0.2-0.3l0.3-0.4l0,0c0.4-0.5,0.7-0.9,1-1.2
					c0.6-0.5,1.2-1,1.8-1.5c0.7-0.5,1.4-1,2.1-1.6c0.7-0.6,1.4-1.1,2.2-1.8c0.7-0.5,1.3-1.1,2-1.6c0.7-0.6,1.4-1.2,2-1.8l0.2-0.2
					c0.3-0.3,0.6-0.6,1-0.9l0.1-0.1c0.4-0.3,0.7-0.6,1-0.9c1.3-1.2,2.6-2.5,4.2-4.2l0.1-0.1l0,0l0,0c0,0,0,0,0,0l-0.1,0.1l0.2-0.2
					l0.2-0.2l0.1-0.1l0.1,0c0.2-0.2,0.3-0.3,0.5-0.5c0.7-0.7,1.5-1.3,2.4-2.2c0.1,0,0.1-0.1,0.2-0.1l1.2-1l0.2-0.2
					c0.5-0.4,1-0.9,1.5-1.3c1.1-1,2.2-2,3.3-3l0.1-0.1c0.6-0.6,1.2-1.1,1.8-1.7c0.4-0.4,0.9-0.8,1.3-1.2s0.8-0.8,1.3-1.2l0.4-0.4
					l0.4-0.4c0.6-0.5,1.2-1.1,1.8-1.6c0.3-0.3,0.6-0.6,0.9-0.9l0.1-0.1c0.5-0.5,1-1,1.6-1.5c0.4-0.3,0.7-0.6,1.1-1l0.2-0.2
					c0.4-0.4,0.8-0.7,1.2-1.1c1-0.9,2.1-2,2.9-2.8l0.1-0.1c0.7-0.7,1.4-1.4,2.2-2.1c1.6-1.5,3.2-3,4.8-4.5l1.3-1.3
					c1.2-1.1,2.5-2.4,3.9-3.7c0.3-0.3,0.6-0.5,0.9-0.7c0.1-0.1,0.3-0.2,0.4-0.3l0.1-0.1l0.1-0.1l0,0l0,0c-0.1,0.5-0.2,1-0.3,1.5
					l0,0.2c-0.1,0.3-0.1,0.6-0.2,0.9l0,0.1l0-0.1c-0.4,1.6-0.6,2.9-0.8,4.1l-0.1,0.8l0,0.1c-0.1,0.8-0.3,1.7-0.4,2.5
					c-0.3,1-0.6,2-0.9,3c-0.1,0.4-0.2,0.7-0.4,1.1c-0.3,0.9-0.5,1.8-0.7,2.7c-0.1,0.3-0.1,0.7-0.2,1s-0.1,0.7-0.2,1
					c-0.2,0.8-0.5,1.7-0.8,2.5c-0.1,0.4-0.3,0.8-0.4,1.2c-0.4,1.4-0.9,2.9-1.3,4.6c-0.2,0.8-0.4,1.5-0.6,2.3l-0.1,0.3
					c-0.2,0.6-0.4,1.3-0.5,1.9c-0.2,1-0.5,1.9-0.7,2.9l0,0.2c-0.1,0.4-0.2,0.8-0.3,1.3c-0.4,1.4-0.9,2.9-1.5,4.2
					c-0.5,1.2-1,2.4-1.5,3.6l-0.1,0.2l-0.2,0.4l-0.1,0.3c-0.2,0.5-0.4,1-0.7,1.5c-0.3,0.5-0.5,1-0.6,1.5c-0.1,0.3-0.2,0.7-0.2,1
					c0,0.1,0,0.3,0,0.4c0.1,0.4,0.3,0.9,0.5,1.2c0.3,0.4,0.8,0.8,1.4,0.9c0.5,0.1,1,0.2,1.6,0.1c0.3-0.1,0.6-0.1,0.8-0.2l0.1,0
					l0.3-0.1c0.4-0.1,0.8-0.2,1.1-0.3l0.2,0l0.2,0l0.4-0.1c0.7-0.1,1.3-0.3,2-0.5c0.8-0.3,1.5-0.5,2.1-0.8c1.4-0.6,3.4-1.4,5.6-2.1
					c0.5-0.2,1-0.4,1.5-0.6c0.4-0.2,0.8-0.3,1.3-0.5l0.5-0.2c0.7-0.3,1.5-0.5,2.2-0.9c2-1,4.1-1.9,6-2.7l0.1,0
					c0.8-0.3,1.6-0.7,2.3-1l0.9-0.3c0.7-0.3,1.3-0.6,1.9-1c0.4-0.2,0.7-0.4,1.1-0.6c1.1-0.5,2.3-1,3.5-1.4c1.1-0.4,2.2-0.9,3.3-1.4
					c1-0.5,2-0.9,2.9-1.4c0.5-0.3,1-0.6,1.6-0.8l0,0l0,0c-1.1,1.2-2.1,2.3-3,3.4c-0.8,1-1.6,2-2.5,3l-0.2,0.2
					c-0.7,0.9-1.5,1.8-2.3,2.7c-0.3,0.4-0.7,0.8-1,1.2l-0.3,0.3c-1,1.2-2.2,2.6-3.4,4l-0.5,0.6l-1.1,1.1l0,0l0,0l-0.1,0.1l-0.2,0.1
					l-0.1,0.1l0.1-0.1c-1,1.1-2.1,2.2-3.1,3.3c-0.9,0.9-1.7,1.8-2.6,2.7c-1,1-2,2.1-3,3.2c-0.8,0.8-1.6,1.7-2.3,2.5
					c-0.8,0.8-1.5,1.5-2.3,2.3l-0.1,0.1c-1.2,1.2-2.4,2.4-3.6,3.6c-0.6,0.7-1.2,1.3-1.8,2h6.5c1-1,2-2,3-3c1.4-1.4,2.8-2.8,4.1-4.3
					c2.5-2.7,5-5.3,7.5-8c0.6-0.6,1.1-1.2,1.7-1.8c0.8-0.8,1.6-1.7,2.4-2.5c0.9-0.9,1.7-1.9,2.5-2.9c0.8-1,1.6-1.9,2.4-2.9
					c1.6-2,3.2-4,4.9-5.9c1.5-1.8,3.2-3.5,4.8-5.3c0.8-0.8,1.5-1.7,2.3-2.6c0.7-0.8,1.4-1.5,2.1-2.3c0.4-0.4,0.8-0.7,1.2-1.1
					c0.2-0.2,0.5-0.4,0.7-0.7c0.2-0.1,0.4-0.3,0.5-0.5c0.3-0.4,0.5-0.9,0.5-1.5c0-0.1,0-0.3,0-0.4c-0.1-0.8-0.7-1.6-1.5-1.9
					c-0.8-0.3-1.7-0.2-2.3,0.4c0,0-0.1,0-0.1,0.1c-0.2,0.1-0.4,0.2-0.5,0.3c-0.9,0.5-1.8,0.9-2.7,1.3c-1,0.5-2,1-3,1.5
					c-2.2,1.1-4.3,2.3-6.5,3.5c-1,0.5-1.9,1-2.9,1.5c-1,0.5-2.1,1-3.1,1.4c-1.2,0.4-2.4,0.8-3.6,1.4c-1.1,0.5-2,1.1-3.1,1.6
					c-1,0.4-2.1,0.8-3.1,1.3c-1.1,0.5-2.1,1-3.2,1.4c-1.9,0.8-3.7,1.8-5.6,2.5c-0.9,0.3-1.8,0.7-2.7,1.1c-1,0.4-2,0.7-3,1.1
					c-0.9,0.3-1.8,0.7-2.7,1.1c-1,0.4-1.9,0.8-2.9,1.1l-0.1,0c0.5-1.1,0.9-2.2,1.4-3.3c0.6-1.3,1.1-2.6,1.6-4
					c0.4-1.6,0.7-3.1,1.1-4.7c0.3-1.3,0.7-2.6,1-3.9c0.4-1.4,0.8-2.9,1.2-4.3c0.2-0.7,0.4-1.4,0.6-2.1c0.2-0.6,0.4-1.1,0.6-1.7
					c0.4-1.4,0.7-2.9,1-4.4c0.5-2,1.3-3.9,1.8-5.9c0.6-2.5,0.8-5,1.4-7.5c0.2-0.7,0.3-1.4,0.5-2.2c0.1-0.6,0.2-1.2,0.4-1.9
					c0.2-0.7,0.3-1.4,0.5-2.1c0.3-0.7,0.4-1.5,0.5-2.3c0-0.3,0-0.6,0-0.9c-0.1-0.7-0.5-1.2-1-1.6c-0.4-0.3-0.9-0.4-1.3-0.5
					C439.4,29.5,438.9,29.6,438.4,29.8z"/>
				<path class="st1" d="M393.3,70.5c-0.1,0.1-0.2,0.2-0.4,0.4C393,70.7,393.1,70.6,393.3,70.5z"/>
				<path class="st1" d="M394.5,69.2L394.5,69.2L394.5,69.2z"/>
				<path class="st1" d="M394.5,69.1l0.1-0.1c0.1-0.1,0.2-0.2,0.2-0.3C394.8,68.8,394.7,69,394.5,69.1z"/>
				<path class="st1" d="M394.5,69.1L394.5,69.1C394.5,69.1,394.5,69.1,394.5,69.1z"/>
				<path class="st1" d="M32.8,490.1c0.2,0,0.3,0.1,0.5,0.1c-0.1,0.1-0.2,0.2-0.3,0.3C32.9,490.3,32.9,490.2,32.8,490.1L32.8,490.1z
					"/>
				<polygon class="st1" points="33,382.9 33,382.9 33,382.9 33,382.9 33,382.9 				"/>
				<path class="st1" d="M33,382.9L33,382.9C33,382.9,33,382.9,33,382.9L33,382.9L33,382.9z"/>
				<path class="st1" d="M364.5,85.2L364.5,85.2l0.3,0.2C364.7,85.3,364.6,85.3,364.5,85.2L364.5,85.2z"/>
				<path class="st1" d="M439.3,28c-0.3,0.2-0.7,0.4-1,0.6c-1.7,1-3,2.6-4.5,3.9c-0.5,0.4-1,0.7-1.5,1.1c-0.6,0.5-1.2,1-1.8,1.6
					c-0.9,0.9-1.9,1.8-2.9,2.7c-1.1,0.9-2.1,1.9-3.1,2.9c-0.8,0.8-1.6,1.7-2.5,2.5c-0.8,0.6-1.5,1.2-2.3,1.8
					c-0.6,0.6-1.2,1.2-1.8,1.8c-0.4,0.3-0.7,0.5-1.1,0.8c-1,0.6-1.9,1.4-2.7,2.2c-0.7,0.8-1.4,1.6-2.1,2.4s-1.4,1.6-2.2,2.4
					s-1.6,1.5-2.3,2.2c-0.7,0.7-1.4,1.4-2.2,2.1c-0.9,0.7-1.7,1.5-2.4,2.3c-0.4,0.4-0.8,0.9-1.2,1.3c-0.4,0.3-0.7,0.7-1.1,1
					c-0.7,0.7-1.5,1.5-2.3,2.1c-0.7,0.6-1.5,1.1-2.2,1.6c-0.8,0.6-1.6,1.2-2.4,1.8c-1.5,1.1-2.9,2.3-4.3,3.5
					c-0.5,0.4-0.9,0.7-1.4,1.1c-0.4,0.4-0.8,0.7-1.2,1.1c-0.4,0.3-0.8,0.6-1.2,0.9c-0.2,0.1-0.3,0.3-0.5,0.4l0,0
					c-0.8,0.7-1.6,1.4-2.4,2.1c-0.7,0.6-1.4,1.3-2.1,2c-0.8,0.8-1.6,1.5-2.3,2.2c-0.7,0.6-1.3,1.3-2,1.9c-0.5,0.4-1.1,0.8-1.6,1.2
					c0.5,0.4,0.9,0.9,1.4,1.3c0.1,0.1,0.2,0.1,0.3,0.2c0.5,0.3,1,0.7,1.5,1.2c0.2,0.2,0.4,0.4,0.5,0.6c0.8-0.6,1.5-1.2,2.2-1.8
					c0.8-0.8,1.6-1.6,2.5-2.4c1.6-1.5,3.1-3.1,4.8-4.6c0.2-0.1,0.4-0.3,0.5-0.4c0.7-0.6,1.5-1.1,2.1-1.7c0.5-0.4,0.9-0.9,1.4-1.3
					c1-0.8,1.9-1.6,2.8-2.4c0.8-0.6,1.6-1.1,2.3-1.7c0.9-0.6,1.7-1.4,2.6-2c0.3-0.2,0.7-0.5,1-0.7c0,0,0.1-0.1,0.1-0.1
					c0.2-0.2,0.4-0.3,0.7-0.5c0.3-0.3,0.6-0.6,0.9-0.8c0.1,0,0.1-0.1,0.2-0.1c0.1-0.1,0.2-0.2,0.3-0.3c0.8-0.7,1.5-1.5,2.3-2.2
					c0.8-0.8,1.5-1.7,2.4-2.4c0.8-0.7,1.6-1.3,2.3-2c0.8-0.7,1.5-1.5,2.3-2.2c0.8-0.7,1.5-1.5,2.2-2.2c0.8-0.9,1.6-1.7,2.3-2.6
					c0.5-0.7,1.1-1.3,1.8-1.8c0.4-0.3,0.7-0.5,1.1-0.8c0.6-0.4,1.2-0.8,1.7-1.3c0.8-0.7,1.5-1.5,2.4-2.3c0.5-0.4,1.1-0.8,1.6-1.3
					c0.5-0.4,0.9-0.8,1.3-1.3c0.9-1,1.8-1.9,2.8-2.8c0.6-0.5,1.1-1,1.7-1.5c0.5-0.5,1.1-0.9,1.6-1.4c0.7-0.7,1.4-1.4,2.2-2.1
					c0.5-0.4,1-0.7,1.4-1.1c0.6-0.5,1.1-0.9,1.6-1.4c0.2-0.2,0.4-0.4,0.6-0.6c-0.2,0.7-0.3,1.3-0.5,2c-0.2,1.1-0.5,2.2-0.7,3.4
					c-0.2,1.1-0.3,2.2-0.3,3.3c0,0.5-0.1,0.9-0.2,1.4c-0.1,0.4-0.2,0.8-0.3,1.2c-0.2,0.9-0.4,1.8-0.7,2.7c-0.3,1-0.6,2.1-1,3.1
					c-0.4,1.1-0.8,2.2-1.2,3.4c-0.3,1.1-0.6,2.2-0.9,3.3c-0.3,1-0.5,1.9-0.8,2.9c-0.3,0.9-0.6,1.9-0.9,2.8c-0.3,1-0.6,2-0.9,3
					c-0.6,1.6-1.3,3.1-1.8,4.8c-0.5,1.6-0.9,3.1-1.5,4.7c-0.3,0.9-0.7,1.7-1.1,2.6c-0.2,0.5-0.4,0.9-0.6,1.4s-0.5,0.9-0.7,1.3
					c-0.3,0.5-0.6,1.1-0.7,1.7c-0.3,1.3,0.6,2.7,1.9,3c0.4,0.1,0.8,0.1,1.3,0c0.6-0.2,1.1-0.5,1.6-0.8c0.7-0.2,1.3-0.5,1.9-0.8
					c0.7-0.4,1.3-0.8,2-1.2c0.8-0.4,1.6-0.7,2.4-1.1c0.9-0.4,1.8-0.8,2.8-1.1c1-0.4,2-0.8,3-1.2c1.2-0.5,2.4-1,3.5-1.6
					c0.9-0.4,1.7-0.9,2.6-1.3c0.9-0.4,1.8-0.8,2.7-1.3c0.8-0.4,1.5-0.8,2.3-1.2c1.1-0.5,2.2-0.8,3.4-1.2c1.3-0.5,2.6-1,3.9-1.6
					c1.2-0.5,2.5-1,3.8-1.5c1.3-0.5,2.6-1.1,3.9-1.6s2.7-0.9,4-1.4c0.7-0.3,1.4-0.6,2.2-0.9c-0.3,0.4-0.6,0.8-0.8,1.2
					c-0.3,0.4-0.6,0.8-1,1.2c-0.4,0.4-0.8,0.8-1.1,1.2c-0.8,0.9-1.4,1.9-2.2,2.9c-0.9,1-1.9,1.9-2.8,2.9c-0.8,0.9-1.6,1.8-2.5,2.6
					c-0.8,0.6-1.5,1.2-2.2,1.9c-0.8,0.8-1.5,1.7-2.3,2.6s-1.5,1.7-2.3,2.6c-1.5,1.7-2.9,3.5-4.5,5.2c-0.8,0.8-1.5,1.5-2.3,2.3
					s-1.4,1.6-2.1,2.4c-1.4,1.6-3,3-4.5,4.5c-0.8,0.8-1.6,1.6-2.4,2.4c-0.8,0.8-1.5,1.7-2.3,2.5c-0.9,1-1.8,2-2.7,3h6.4
					c0.2-0.3,0.5-0.6,0.7-0.8c1.5-1.7,3.2-3.3,4.8-4.9c0.8-0.7,1.5-1.5,2.3-2.2c0.7-0.7,1.3-1.4,2-2.2c0.7-0.8,1.5-1.6,2.3-2.4
					c0.7-0.7,1.5-1.4,2.2-2.2c0.8-0.9,1.5-1.9,2.3-2.8c0.7-0.9,1.5-1.7,2.2-2.6s1.5-1.7,2.2-2.5c0.7-0.8,1.4-1.6,2.2-2.3
					c0.7-0.5,1.3-1,1.9-1.6c0.6-0.5,1.1-1.1,1.6-1.7c0.5-0.5,0.9-1,1.4-1.5c0.6-0.6,1.2-1.2,1.7-1.8c0.9-1.1,1.7-2.3,2.6-3.3
					c0.4-0.5,0.8-0.9,1.2-1.4c0.4-0.5,0.8-1.1,1.2-1.7c0.5-0.7,1-1.3,1.5-1.9c0.5-0.6,1.2-1.2,1.7-1.8s1.1-1.2,1.7-1.9
					c0.7-0.6,1.2-1.5,1.3-2.5c0-0.1,0-0.1,0-0.2c-0.1-1.1-0.9-2.1-2-2.4c-0.7-0.1-1.4-0.1-2.1,0.1c-0.7,0.2-1.5,0.6-2.2,0.8
					c-0.9,0.3-1.8,0.5-2.6,0.9c-0.8,0.3-1.5,0.7-2.3,1c-1.2,0.5-2.3,0.9-3.5,1.3c-1.3,0.4-2.5,0.9-3.7,1.4c-1.2,0.5-2.5,1-3.8,1.5
					c-0.6,0.2-1.3,0.4-1.9,0.7c-0.7,0.3-1.3,0.6-2,0.9c-0.8,0.4-1.6,0.7-2.4,1c-0.9,0.3-1.8,0.6-2.6,0.9c-1.8,0.8-3.6,1.6-5.4,2.5
					c-1,0.4-1.9,0.9-2.9,1.3c-0.8,0.4-1.7,0.9-2.5,1.3c-0.7,0.3-1.5,0.6-2.2,0.9s-1.5,0.6-2.2,0.9c-0.8,0.3-1.6,0.6-2.4,0.9
					c-0.9,0.4-1.7,0.8-2.5,1.2c-0.2,0.1-0.4,0.2-0.5,0.2c0.2-0.6,0.5-1.2,0.7-1.7c0.4-1.2,0.7-2.4,1.1-3.6c0.3-1,0.7-2,1-3.1
					c0.2-0.5,0.4-0.9,0.5-1.4c0.5-1.2,0.9-2.5,1.3-3.8c0.3-1.1,0.6-2.1,1-3.2c0.3-1,0.6-2,0.9-3.1c0.3-1.2,0.6-2.5,1-3.7
					c0.4-1.3,0.9-2.5,1.3-3.7c0.3-1,0.6-2.1,0.9-3.1c0.3-1,0.5-2,0.7-3c0.2-1.3,0.4-2.5,0.4-3.8c0.3-2,0.7-3.9,1.2-5.9
					c0.2-1,0.4-2,0.7-2.9c0.3-1,0.5-2,0.5-3c-0.1-1.4-1.1-2.6-2.5-2.9C440.9,27.3,440,27.5,439.3,28z"/>
				<path class="st1" d="M472.2,68.2c0,0.1-0.1,0.1-0.1,0.2C472.1,68.3,472.1,68.3,472.2,68.2z"/>
				<polygon class="st1" points="385.8,75.6 385.8,75.6 385.8,75.6 385.8,75.6 				"/>
				<path class="st1" d="M318.9,35.4C318.9,35.4,318.9,35.3,318.9,35.4c-0.6,0.1-1.2,0.3-1.8,0.6c-0.9,0.4-1.8,0.9-2.7,1.4
					c-1.5,0.7-2.9,1.4-4.4,2.1c-1,0.5-2,0.9-3,1.4c-0.4,0.2-0.8,0.4-1.1,0.6c-0.4,0.3-0.8,0.6-1.2,0.9c-0.4,0.3-0.8,0.7-1.2,1
					s-0.9,0.6-1.3,0.9c-1.1,0.7-2.2,1.3-3.2,1.9c-1.1,0.7-1.4,2.2-0.6,3.3c0.4,0.5,0.9,0.9,1.6,1c0.6,0.1,1.2,0,1.8-0.4
					c0.9-0.5,1.7-1,2.6-1.5c0.7-0.4,1.4-0.9,2.1-1.4c0.6-0.5,1.2-1,1.9-1.5c0.5-0.3,1-0.6,1.5-0.9c0.5-0.2,1-0.4,1.5-0.6
					c0.7-0.3,1.4-0.7,2.1-1c0.9-0.4,1.8-0.8,2.8-1.3s1.8-1,2.7-1.4c0.5-0.2,1.1-0.4,1.7-0.6h0c0.2,0,0.4,0.1,0.6,0.1
					c0.9,0.4,1.8,0.8,2.6,1.4c1.6,1.1,3.1,2.3,4.5,3.7c1.7,1.6,3.2,3.4,5,5c1.5,1.3,3.2,2.6,4.7,3.9c1.4,1.2,2.7,2.4,4.1,3.6
					c1.4,1.3,2.8,2.5,4.3,3.7s2.8,2.5,4.2,3.7c0.7,0.6,1.4,1.2,2.1,1.8c0.8,0.6,1.6,1.2,2.3,1.9c0.6,0.5,1.1,1.1,1.6,1.7
					c0.6,0.6,1.2,1.3,1.8,1.9c0.7,0.8,1.3,1.5,2,2.3c0.1,0.1,0.2,0.2,0.2,0.3l0,0c1,1.1,1.9,2.3,2.9,3.4c1,1.1,2,2.1,3,3.1
					c0.9,1,1.9,2,2.9,3c1,1.1,2.1,2.1,3.2,3.1c1,1,2,1.9,3,3c0.6,0.8,1.2,1.6,1.8,2.3c0.9,1.1,1.8,2.1,2.8,3.1
					c0.1,0.1,0.2,0.3,0.4,0.4c0.5,0.6,1,1.2,1.5,1.8c0.6,0.7,1.3,1.4,1.9,2.2c0.5,0.6,1,1.2,1.5,1.8c0.4,0.5,0.8,0.9,1.3,1.3
					c0.9,1,1.8,2.1,2.5,3.3c0.3,0.5,0.7,1,1,1.5l0,0.1h0.4c0.7-0.3,1.5-0.3,2.2,0h2.9c-0.1-0.2-0.1-0.3-0.2-0.5
					c-0.3-0.7-0.7-1.4-1.3-2c-0.2-0.3-0.5-0.6-0.7-1c-0.6-0.9-1.2-1.8-1.9-2.7c-1-1.2-2-2.4-3-3.4c-0.2-0.2-0.3-0.4-0.5-0.6
					c-0.2-0.2-0.4-0.5-0.6-0.7c-0.5-0.6-1-1.2-1.6-1.8l-0.1-0.1l-0.2-0.2l-0.9-1c-0.3-0.4-0.6-0.7-0.9-1.1l0,0.1l-0.1-0.1l-0.2-0.2
					l-0.1-0.1c-0.4-0.5-0.8-0.9-1.3-1.4l-0.7-0.8c-0.4-0.5-0.8-1-1.2-1.5l-0.5-0.6l0,0c-0.5-0.6-1-1.2-1.6-1.8
					c-1.3-1.3-2.6-2.6-3.9-3.8c-1.3-1.2-2.5-2.5-3.7-3.7c-0.6-0.6-1.2-1.3-1.8-1.9s-1.3-1.3-1.9-1.9l-0.1-0.2c-1-1.2-1.9-2.3-3-3.5
					c-0.1-0.1-0.1-0.2-0.2-0.2c0,0,0.1,0.1,0.1,0.1c-0.9-1-1.8-2.1-2.7-3.1c-0.7-0.8-1.5-1.5-2.2-2.3c-0.7-0.8-1.5-1.5-2.3-2.1
					c-0.4-0.4-0.9-0.7-1.4-1.1s-0.9-0.8-1.3-1.2c-0.8-0.8-1.7-1.5-2.5-2.2c-0.8-0.7-1.6-1.5-2.4-2.2c-1.6-1.4-3.3-2.8-4.9-4.2
					c-1.4-1.2-2.8-2.4-4.1-3.6c-1.6-1.4-3.3-2.6-4.9-4.1c-1.6-1.6-3.1-3.3-4.8-4.8c-1.6-1.5-3.4-2.8-5.3-4c-1-0.6-2.1-1.1-3.3-1.4
					c-0.3-0.1-0.5-0.1-0.8-0.1C320.2,35.1,319.6,35.1,318.9,35.4z"/>
				<path class="st1" d="M320.3,39.9L320.3,39.9c-0.1,0-0.2,0-0.2,0.1L320.3,39.9L320.3,39.9z"/>
				<path class="st1" d="M363.9,71.7L363.9,71.7l0.3,0.3C364.1,71.9,364,71.8,363.9,71.7L363.9,71.7z"/>
				<path class="st1" d="M363.8,71.5l0.1,0.1L363.8,71.5z"/>
				<path class="st0" d="M436.1,37c-0.1,0.1-0.3,0.2-0.4,0.3c-0.3,0.2-0.6,0.5-0.9,0.7c-1.3,1.2-2.7,2.5-3.9,3.7l-1.3,1.3
					c-1.6,1.5-3.2,3-4.8,4.5c-0.7,0.7-1.5,1.4-2.2,2.1l-0.1,0.1c-0.9,0.9-1.9,1.9-2.9,2.8c-0.4,0.4-0.8,0.7-1.2,1.1l-0.2,0.2
					c-0.4,0.3-0.7,0.6-1.1,1c-0.5,0.5-1.1,1-1.6,1.5l-0.1,0.1c-0.3,0.3-0.6,0.6-0.9,0.9c-0.6,0.6-1.2,1.1-1.8,1.6l-0.4,0.4l-0.4,0.4
					c-0.4,0.4-0.9,0.8-1.3,1.2c-0.4,0.4-0.8,0.8-1.3,1.2c-0.6,0.5-1.2,1.1-1.8,1.7l-0.1,0.1c-1.1,1-2.2,2-3.3,3
					c-0.5,0.4-1,0.9-1.5,1.3c-0.3,0.2-0.6,0.5-0.9,0.8c-0.2,0.2-0.4,0.4-0.7,0.5c-1,0.8-1.7,1.5-2.4,2.2c-0.2,0.2-0.3,0.3-0.5,0.5
					l-0.1,0l-0.1,0.1l-0.2,0.2l-0.2,0.2l0.1-0.1c-1.7,1.8-3,3.1-4.3,4.3c-0.3,0.3-0.7,0.6-1,0.9l-0.1,0.1c-0.3,0.3-0.6,0.6-1,0.9
					l-0.2,0.2c-0.6,0.6-1.3,1.2-2,1.8c-0.6,0.5-1.3,1.1-2,1.6c-0.9,0.7-1.6,1.3-2.2,1.8c-0.7,0.6-1.4,1.1-2.1,1.6
					c-0.6,0.4-1.3,0.9-1.8,1.5c-0.3,0.3-0.6,0.7-1,1.2l0.5,0.6c0.4,0.5,0.8,1,1.2,1.5l0.7,0.8c0.4,0.5,0.9,0.9,1.3,1.4l0.1,0.1
					l0.2,0.2l0.1,0.1l0-0.1c0.3,0.4,0.6,0.7,0.9,1.1l0.9,1l0.2,0.2l0.1,0.1c0.5,0.6,1.1,1.2,1.6,1.8c0.2,0.2,0.4,0.5,0.6,0.7
					c0.2,0.2,0.3,0.4,0.5,0.6c1,1,2,2.2,3,3.4c0.7,0.9,1.3,1.8,1.9,2.7c0.2,0.3,0.5,0.7,0.7,1c0.5,0.6,0.9,1.3,1.3,2l0.1,0.2h38.8
					c0.6-0.7,1.2-1.3,1.8-2c1.2-1.2,2.4-2.5,3.6-3.6l0.1-0.1c0.8-0.8,1.5-1.5,2.3-2.3c0.8-0.8,1.6-1.7,2.3-2.5c1-1.1,2-2.1,3-3.2
					c0.9-0.9,1.7-1.8,2.6-2.7c1-1.1,2.1-2.2,3.1-3.3l-0.2,0.1l0.2-0.1l0.2-0.1l0.1-0.1l0,0l0,0l0,0l1.1-1.1l0.5-0.6
					c1.2-1.3,2.5-2.8,3.4-4l0.3-0.3c0.3-0.4,0.7-0.8,1-1.2c0.8-0.9,1.5-1.8,2.3-2.7l0.2-0.2c0.8-1,1.6-2,2.5-3c0.9-1,1.8-2.1,3-3.4
					v0v0c-0.5,0.3-1.1,0.6-1.6,0.8c-0.9,0.5-1.9,0.9-2.9,1.4c-1.1,0.5-2.2,1-3.3,1.4c-1.2,0.4-2.4,0.8-3.5,1.4
					c-0.4,0.2-0.8,0.4-1.1,0.6c-0.6,0.4-1.3,0.7-1.9,1l-0.9,0.3c-0.8,0.3-1.6,0.6-2.3,1l-0.1,0c-1.8,0.8-3.9,1.8-6,2.7
					c-0.7,0.4-1.5,0.6-2.2,0.9l-0.5,0.2c-0.4,0.2-0.8,0.3-1.3,0.5c-0.5,0.2-1,0.4-1.5,0.6c-2.1,0.7-4.2,1.6-5.6,2.1
					c-0.6,0.3-1.3,0.5-2.1,0.8c-0.6,0.2-1.3,0.4-2,0.5l-0.4,0.1l-0.2,0l-0.2,0c-0.4,0.1-0.8,0.2-1.1,0.3l-0.3,0.1l-0.1,0
					c-0.3,0.1-0.6,0.2-0.8,0.2c-0.5,0.1-1.1,0-1.6-0.1c-0.5-0.1-1-0.4-1.4-0.9c-0.3-0.4-0.5-0.8-0.5-1.2c0-0.1,0-0.3,0-0.4
					c0-0.4,0.1-0.7,0.2-1c0.2-0.5,0.4-1,0.6-1.5c0.3-0.5,0.5-1,0.7-1.5l0.1-0.3l0.2-0.4l0.1-0.2c0.5-1.2,1-2.4,1.5-3.6
					c0.6-1.4,1.1-2.8,1.5-4.2c0.1-0.4,0.2-0.8,0.3-1.3l0-0.2c0.2-1,0.4-1.9,0.7-2.9c0.2-0.6,0.3-1.3,0.5-1.9l0.1-0.3
					c0.2-0.8,0.4-1.5,0.6-2.3c0.4-1.7,0.9-3.2,1.3-4.6c0.1-0.4,0.2-0.8,0.4-1.2c0.3-0.9,0.5-1.7,0.8-2.5c0.1-0.3,0.1-0.7,0.2-1
					s0.1-0.7,0.2-1c0.2-0.9,0.4-1.8,0.7-2.7c0.1-0.4,0.2-0.7,0.4-1.1c0.3-1,0.7-2,0.9-3c0.2-0.8,0.3-1.7,0.4-2.5l0-0.1l0.1-0.8
					c0.2-1.2,0.5-2.5,0.8-4.1l0,0.1c0.1-0.3,0.2-0.6,0.2-1l0-0.2c0.1-0.5,0.2-1,0.3-1.5L436.1,37z"/>
				<path class="st0" d="M58.7,406L58.7,406c-0.2,0.1-0.2,0.2-0.3,0.3c-0.1,0.2-0.3,0.3-0.4,0.5c-0.4,0.5-0.8,0.9-1.3,1.2
					c-0.7,0.5-1.2,0.9-1.6,1.3c-0.5,0.6-1,1.2-1.5,1.8c-0.5,0.7-1,1.4-1.6,2.1c-0.6,0.7-1.1,1.4-1.8,2.2c-0.5,0.7-1.1,1.3-1.6,2
					c-0.6,0.7-1.2,1.3-1.8,2l-0.2,0.2c-0.3,0.3-0.6,0.6-0.9,1l-0.1,0.1c-0.3,0.4-0.6,0.7-0.9,1c-1.2,1.3-2.6,2.7-4.5,4.5l0.1,0
					l-0.5,0.4l0.1-0.1c-0.2,0.1-0.3,0.3-0.5,0.5c-0.7,0.7-1.3,1.5-2.2,2.4c-0.2,0.2-0.3,0.4-0.5,0.7c-0.3,0.3-0.6,0.6-0.8,0.9
					c-0.4,0.5-0.9,1-1.3,1.5c-1,1.2-2.1,2.3-3.1,3.4l-0.4,0.5c-0.4,0.4-0.8,0.9-1.2,1.3c-0.4,0.4-0.8,0.9-1.2,1.3s-0.8,0.9-1.2,1.3
					l-0.8,0.8c-0.5,0.6-1.1,1.2-1.6,1.8c-0.3,0.3-0.6,0.6-0.9,0.9l-0.1,0.1c-0.5,0.5-1,1-1.5,1.6l-1,1.1l-0.2,0.2
					c-0.4,0.4-0.7,0.8-1.1,1.2c-0.9,1-1.9,2-2.8,2.9l-0.1,0.1c-0.7,0.7-1.4,1.5-2.1,2.2c-1.5,1.6-3,3.2-4.5,4.8l-1.3,1.3
					c-1.1,1.2-2.4,2.5-3.7,3.9c-0.3,0.3-0.5,0.6-0.7,0.9c-0.1,0.1-0.2,0.3-0.3,0.4l-0.2,0.2l1-0.2l0.5-0.1c0.6-0.1,1.1-0.2,1.7-0.3
					l0.1,0c1.4-0.3,2.5-0.5,3.5-0.7l0.9-0.1l0.2,0c0.8-0.1,1.6-0.2,2.4-0.4c1-0.3,1.9-0.6,2.8-0.9l0.1,0l0.3-0.1
					c0.3-0.1,0.6-0.2,0.9-0.3c0.9-0.3,1.8-0.5,2.7-0.7c0.2,0,0.5-0.1,0.7-0.1l0.3-0.1c0.4-0.1,0.7-0.1,1.1-0.2
					c0.8-0.2,1.7-0.5,2.5-0.8l0.1,0l1.1-0.4c1.5-0.5,3-0.9,4.6-1.3c0.7-0.2,1.3-0.3,2-0.5l0.3-0.1c0.8-0.2,1.5-0.4,2.3-0.6
					c0.9-0.2,1.9-0.5,2.8-0.7l0.1,0l0.4-0.1l0.9-0.2c1.4-0.4,2.9-0.9,4.2-1.5c1.3-0.5,2.5-1.1,3.8-1.6l0.4-0.2l0.3-0.1
					c0.5-0.2,1.1-0.4,1.6-0.7c0.5-0.3,1-0.5,1.5-0.6c0.5-0.2,0.9-0.2,1.4-0.2c0.4,0.1,0.8,0.3,1.2,0.5c0.4,0.3,0.8,0.8,0.9,1.4
					c0.1,0.4,0.2,0.7,0.2,1.1c0,0.2,0,0.3,0,0.5c-0.1,0.3-0.1,0.6-0.2,0.9l0,0.1l-0.1,0.2c-0.1,0.4-0.2,0.8-0.3,1.2
					c0,0.1-0.1,0.2-0.1,0.3l-0.1,0.4l0,0.1c-0.1,0.6-0.3,1.3-0.5,1.9c-0.3,0.8-0.5,1.5-0.8,2.1c-0.6,1.4-1.4,3.4-2.1,5.6
					c-0.2,0.5-0.4,1-0.6,1.5c-0.2,0.5-0.4,0.9-0.5,1.3l-0.2,0.5c-0.2,0.7-0.5,1.5-0.9,2.2c-1,2.1-2,4.4-2.8,6
					c-0.3,0.8-0.7,1.6-1,2.3l-0.3,0.9c-0.3,0.6-0.6,1.3-0.9,1.9c-0.2,0.4-0.4,0.8-0.6,1.2c-0.5,1.1-1,2.3-1.4,3.5
					c-0.4,1.1-0.9,2.2-1.4,3.3c-0.5,1-0.9,2-1.4,2.9c-0.3,0.5-0.6,1-0.8,1.6c1.5-1.3,2.5-2.2,3.4-2.9c1-0.8,2-1.6,3-2.5l0.2-0.2
					c0.9-0.7,1.8-1.5,2.7-2.3c0.5-0.4,1-0.9,1.6-1.3c1.3-1.1,2.7-2.2,4-3.4c0.6-0.6,1.2-1.2,1.8-1.8l0.2-0.2l0.1-0.1l0.1-0.1
					l-0.2,0.1c1.1-1,2.2-2.1,3.3-3.1c0.9-0.9,1.8-1.7,2.7-2.6c0.9-0.9,1.8-1.8,2.8-2.6l0.4-0.4c0.8-0.8,1.7-1.6,2.5-2.4
					c0.8-0.8,1.5-1.5,2.3-2.3l0.1-0.1c1.2-1.2,2.4-2.4,3.6-3.6c0.8-0.7,1.5-1.4,2.3-2.1l0.5-0.4c0.5-0.4,1-0.9,1.5-1.3V425
					c-0.2-0.1-0.3-0.1-0.5-0.2c-0.8-0.4-1.5-1-2.1-1.7c-0.4-0.5-0.7-1.1-1-1.8c-0.2-0.1-0.3-0.3-0.5-0.4c-0.2-0.2-0.4-0.5-0.6-0.7
					l-0.1-0.1c-0.1-0.1-0.3-0.3-0.4-0.4c-0.2-0.2-0.3-0.4-0.5-0.6c-0.2-0.2-0.4-0.5-0.6-0.7c-0.3-0.4-0.7-0.8-1-1.1l-0.2-0.2
					c-0.3-0.3-0.5-0.6-0.8-0.9c-0.7-0.8-1.4-1.6-2.2-2.3l-0.7-0.7c-0.5-0.5-1-1.1-1.6-1.6l-0.1-0.1c-0.5-0.4-1.1-0.9-1.5-1.3
					l-0.2-0.1c-0.3-0.2-0.6-0.5-0.8-0.7c-1-0.8-1.9-1.7-3-2.6C59.4,406.5,59.1,406.2,58.7,406L58.7,406z"/>
				<path class="st1" d="M469.1,70.1c-0.5-0.6-1.3-0.7-1.9-0.2c-0.2,0.2-0.5,0.4-0.7,0.5c-1.2,0.8-2.3,1.6-3.3,2.5
					c-0.5,0.4-1,0.8-1.5,1.3c-0.5,0.5-1,0.9-1.5,1.4c-1,0.9-2.1,1.7-3.1,2.5c-1,0.9-2.1,1.7-3.2,2.6c-2.2,1.9-4.5,3.5-6.7,5.3
					c-1,0.8-2,1.8-3,2.6c-0.5,0.4-1.1,0.8-1.7,1.3s-1.1,0.8-1.6,1.3c-0.9,0.7-1.7,1.4-2.6,2.1c-0.8,0.6-1.6,1.3-2.3,1.9
					c-0.6,0.5-0.7,1.3-0.2,1.9s1.3,0.7,1.9,0.2c0.4-0.4,0.9-0.7,1.3-1.1c0.5-0.4,1.1-0.9,1.6-1.3c1.1-0.9,2.1-1.7,3.2-2.6
					c1.1-0.8,2.2-1.6,3.2-2.5c0.5-0.4,1-0.9,1.5-1.3c0.6-0.5,1.1-0.9,1.7-1.4c1.1-0.9,2.3-1.7,3.4-2.6s2.2-1.8,3.3-2.7
					c1.1-0.8,2.1-1.7,3.1-2.6c0.5-0.4,1.1-0.8,1.6-1.3c0.5-0.5,1.1-0.9,1.6-1.4c0.4-0.3,0.7-0.7,1.1-1c0.4-0.4,0.9-0.7,1.3-1
					c0.8-0.6,1.5-1.2,2.3-1.8c0.4-0.2,0.8-0.5,1.2-0.8c0.3-0.2,0.5-0.6,0.5-1C469.4,70.6,469.3,70.3,469.1,70.1L469.1,70.1z"/>
				<path class="st1" d="M455.7,74.9c-0.1-0.3-0.4-0.6-0.7-0.7c-0.3-0.1-0.7-0.1-1.1,0c-0.6,0.4-1.2,0.8-1.8,1.2
					c-0.5,0.4-1.1,0.9-1.7,1.3c-1.1,0.8-2.2,1.6-3.3,2.5c-1,0.9-2.1,1.7-3.2,2.7c-1,0.9-2.1,1.8-3.2,2.6c-0.3,0.2-0.6,0.4-0.9,0.6
					c-0.3,0.3-0.7,0.5-1,0.8c-0.6,0.5-1.3,0.9-1.9,1.4c-0.6,0.5-0.7,1.3-0.2,1.9s1.3,0.7,1.9,0.2c0,0,0,0,0,0c0.4-0.4,0.9-0.6,1.3-1
					c0.5-0.4,1.1-0.8,1.6-1.2c0.5-0.4,1-0.7,1.5-1.1c0.6-0.4,1.1-0.9,1.7-1.3c0.5-0.4,1-0.9,1.5-1.3s1.1-0.9,1.6-1.3s1-0.9,1.5-1.3
					s1.1-0.8,1.6-1.2c0.6-0.5,1.3-0.9,1.9-1.4c0.6-0.5,1.1-0.9,1.7-1.3c0.1-0.1,0.2-0.1,0.3-0.2c0.3-0.2,0.6-0.4,0.7-0.7
					c0.1-0.2,0.1-0.3,0.1-0.5C455.8,75.3,455.8,75.1,455.7,74.9L455.7,74.9z"/>
				<path class="st1" d="M440.1,35.4c-0.1-0.7-0.8-1.3-1.6-1.1c0,0,0,0,0,0c-0.4,0.1-0.7,0.3-0.9,0.5c-0.3,0.4-0.7,0.8-1,1.2
					c-0.3,0.4-0.5,0.8-0.8,1.1c-0.7,0.8-1.4,1.5-2,2.3c-0.6,0.8-1.3,1.5-2,2.3s-1.3,1.5-2,2.2c-0.3,0.3-0.6,0.7-0.9,1
					c-0.8,0.8-1.6,1.6-2.3,2.3c-0.9,0.9-1.7,1.8-2.5,2.7c-1,1.1-2.1,2.1-3.1,3.2c-1.9,2-4,3.9-6,5.8s-4,3.9-6.1,5.8
					c-0.6,0.5-1.2,1.1-1.7,1.7c-0.5,0.6-0.4,1.4,0.2,1.9c0.6,0.5,1.4,0.4,1.9-0.2c0,0,0-0.1,0.1-0.1c0,0,0.1-0.1,0.1-0.1
					c0.4-0.4,0.8-0.7,1.2-1.1c0.5-0.5,1-1,1.5-1.4c0.5-0.5,1-0.9,1.5-1.4c0.5-0.5,1-1,1.5-1.4c1-1,2.1-2,3.2-3s2.1-2,3.1-3
					c0.7-0.6,1.3-1.3,1.9-2c0.8-0.8,1.6-1.6,2.4-2.4s1.6-1.7,2.3-2.5c0.6-0.6,1.1-1.1,1.7-1.7c0.7-0.7,1.3-1.3,1.9-2l0,0
					c0.8-0.8,1.5-1.6,2.2-2.4c0.7-0.8,1.4-1.5,2.1-2.4c0.3-0.4,0.6-0.8,1-1.2c0.4-0.4,0.7-0.8,1.1-1.2c0.3-0.4,0.6-0.7,0.9-1.1
					c0.3-0.5,0.7-0.9,1.1-1.3c0.2-0.2,0.3-0.5,0.3-0.8C440.1,35.6,440.1,35.5,440.1,35.4L440.1,35.4z M420.8,53.3L420.8,53.3
					L420.8,53.3z"/>
				<path class="st1" d="M438.7,46c-0.5-0.6-1.3-0.7-1.9-0.2c-0.5,0.5-1,1-1.5,1.5c-0.7,0.7-1.4,1.4-2,2.1c-0.9,1-1.9,1.9-2.8,2.9
					c-1,1-2,1.8-3.1,2.8c-0.5,0.5-1,0.9-1.5,1.4c-0.5,0.5-1,1-1.5,1.6c-0.9,0.9-1.9,1.8-2.8,2.7c-0.3,0.3-0.7,0.6-1,0.9
					c-0.3,0.2-0.5,0.5-0.5,0.9c-0.1,0.7,0.5,1.4,1.2,1.5c0.4,0,0.7-0.1,1-0.3c0.3-0.2,0.5-0.4,0.7-0.6c0.2-0.2,0.5-0.5,0.7-0.7
					c0.5-0.5,1-0.9,1.5-1.4c1-1,2-2,3-3c0.4-0.5,0.9-0.9,1.4-1.3c0.5-0.5,1-0.9,1.6-1.4c1.1-1,2.1-2.1,3.1-3.1
					c0.7-0.7,1.4-1.5,2.1-2.3c-0.1,0.1-0.2,0.2-0.2,0.3c0.5-0.6,1.1-1.1,1.6-1.7c0.2-0.2,0.5-0.5,0.8-0.7c0.3-0.3,0.5-0.7,0.5-1.1
					C439,46.5,438.9,46.2,438.7,46L438.7,46z"/>
				<path class="st1" d="M65.8,468.7c0-0.8-0.7-1.3-1.4-1.3c-0.3,0-0.6,0.2-0.8,0.4l0.1-0.1c-0.5,0.4-1.1,0.9-1.5,1.4
					c-0.5,0.5-0.9,1-1.4,1.6c-0.5,0.5-0.9,1-1.4,1.5c-0.5,0.5-1,0.9-1.4,1.4c-0.9,1-1.9,1.9-2.9,2.9c-1,1-1.9,2-2.9,2.9
					c-1.2,1.2-2.2,2.5-3.5,3.6c-0.6,0.5-1.1,1.1-1.7,1.6c-0.5,0.5-1,1.1-1.6,1.6c-0.5,0.4-1,0.9-1.5,1.3c-0.5,0.5-0.9,1-1.3,1.5
					c-0.4,0.5-0.8,0.9-1.2,1.3c-0.4,0.5-0.8,1-1.1,1.5c-0.3,0.5-0.7,0.9-1.1,1.3c-0.2,0.2-0.4,0.5-0.6,0.8c-0.2,0.2-0.4,0.4-0.6,0.6
					c-0.2,0.2-0.4,0.3-0.6,0.5c-0.2,0.2-0.4,0.5-0.6,0.7c-0.5,0.6-0.4,1.4,0.1,1.9c0.6,0.5,1.4,0.4,1.9-0.1c0.2-0.3,0.5-0.6,0.8-0.9
					c0.3-0.3,0.6-0.5,0.9-0.8c0.3-0.3,0.6-0.7,0.9-1s0.6-0.6,0.8-1c0.3-0.4,0.6-0.8,0.8-1.2c0.2-0.3,0.5-0.6,0.8-0.9
					c0.4-0.4,0.7-0.8,1.1-1.2c0.7-0.8,1.4-1.5,2.2-2.2l-0.1,0.1c0.5-0.4,0.9-0.8,1.4-1.3s0.9-0.9,1.3-1.4c0.5-0.5,1-0.9,1.5-1.4
					c0.5-0.5,1-1,1.5-1.5c0.9-1,1.9-2,2.9-3s2-2,3-2.9c0.6-0.6,1.1-1.1,1.6-1.7c0.6-0.6,1.2-1.2,1.8-1.8c1.1-1.1,2-2.4,3.1-3.4
					c0.2-0.2,0.4-0.3,0.5-0.5C65.7,469.4,65.8,469.1,65.8,468.7C65.8,468.7,65.8,468.7,65.8,468.7L65.8,468.7z"/>
				<path class="st1" d="M54.7,473.3c-0.3-0.2-0.6-0.4-1-0.3c-0.4,0-0.7,0.2-0.9,0.5c-0.7,0.7-1.4,1.5-2.1,2.2
					c-0.8,0.9-1.7,1.6-2.5,2.5c-0.9,0.9-1.7,1.7-2.6,2.6c-0.8,0.8-1.6,1.6-2.5,2.4c-0.5,0.4-0.9,0.7-1.4,1.1
					c-0.4,0.4-0.9,0.8-1.3,1.2c-0.1,0.1-0.3,0.2-0.4,0.3c-0.3,0.2-0.5,0.5-0.6,0.8c-0.2,0.7,0.3,1.5,1,1.6c0.4,0.1,0.7,0,1-0.2
					c0.5-0.4,0.9-0.8,1.4-1.2c1.1-0.9,2.2-1.8,3.2-2.7c0.9-0.9,1.8-1.9,2.8-2.8c1-1,1.9-1.9,2.9-2.8c0.9-0.9,1.7-1.8,2.6-2.7
					c0.2-0.2,0.3-0.3,0.5-0.5c0.2-0.2,0.4-0.5,0.3-0.9C55.1,473.9,55,473.6,54.7,473.3L54.7,473.3z"/>
				<path class="st1" d="M58.7,462.4c-0.2-0.7-1-1.1-1.7-0.9c0,0,0,0,0,0c-0.3,0.1-0.5,0.3-0.7,0.5l0.1-0.1
					c-0.2,0.3-0.5,0.6-0.8,0.9c-0.4,0.4-0.8,0.9-1.2,1.3c-0.5,0.5-0.9,0.9-1.4,1.4c-0.5,0.4-0.9,0.9-1.4,1.3s-0.9,0.9-1.4,1.3
					c-0.5,0.4-1,0.9-1.4,1.3c-0.5,0.4-0.9,0.9-1.4,1.3c-0.5,0.4-0.9,0.9-1.3,1.3c-0.2,0.2-0.3,0.5-0.5,0.7c-0.2,0.3-0.4,0.5-0.7,0.8
					c-0.5,0.6-0.5,1.4,0.1,1.9s1.4,0.5,1.9-0.1c0.2-0.3,0.5-0.6,0.7-0.9c0.2-0.2,0.3-0.5,0.5-0.7c0.4-0.4,0.8-0.8,1.2-1.2
					c0.5-0.5,0.9-0.9,1.4-1.4c0.5-0.4,0.9-0.8,1.4-1.3s0.9-0.9,1.3-1.3c0.5-0.4,0.9-0.9,1.4-1.3s1-0.9,1.4-1.4
					c0.4-0.4,0.8-0.9,1.2-1.3c0.3-0.3,0.6-0.6,0.8-0.9c0.1-0.1,0.2-0.2,0.3-0.4c0.1-0.2,0.2-0.4,0.2-0.6
					C58.7,462.7,58.7,462.6,58.7,462.4L58.7,462.4z M56.2,462.3L56.2,462.3L56.2,462.3z"/>
				<path class="st1" d="M43.3,451.7c-0.2-0.3-0.5-0.5-0.8-0.6c-0.4-0.1-0.7,0-1,0.2c-0.3,0.3-0.6,0.5-0.8,0.8
					c-0.3,0.3-0.5,0.6-0.8,0.9c-0.5,0.6-1,1.1-1.6,1.6c-0.6,0.5-1.3,1.1-1.9,1.7c-0.3,0.2-0.5,0.5-0.8,0.7c-0.3,0.2-0.7,0.4-1.1,0.7
					c-0.6,0.4-0.8,1.3-0.4,1.9c0.4,0.6,1.3,0.8,1.9,0.4c0.3-0.2,0.6-0.4,0.9-0.6c0.3-0.2,0.6-0.4,0.9-0.7c0.6-0.5,1.2-1,1.7-1.5
					c0.8-0.6,1.5-1.2,2.1-2c0.5-0.6,1-1.3,1.6-1.8l-0.1,0.1c0.2-0.2,0.4-0.5,0.5-0.7C43.6,452.4,43.5,452,43.3,451.7L43.3,451.7z"/>
				<path class="st1" d="M37.6,448.6c-0.6-0.5-1.4-0.4-1.9,0.1c-0.3,0.3-0.6,0.6-0.8,0.8c-0.3,0.3-0.6,0.7-0.9,1
					c-0.6,0.7-1.3,1.4-2,2.2c-0.7,0.7-1.4,1.4-2,2.1c-0.7,0.7-1.3,1.4-2,2c-0.6,0.5-1.2,1-1.8,1.6c-0.5,0.4-0.9,0.9-1.4,1.4
					c-0.3,0.2-0.5,0.4-0.8,0.6c-0.3,0.2-0.5,0.5-0.6,0.9c-0.2,0.7,0.3,1.5,1,1.6c0.4,0.1,0.7,0,1-0.2c0.6-0.5,1.2-0.9,1.7-1.5
					c0.5-0.4,0.9-0.9,1.4-1.3c0.9-0.7,1.8-1.5,2.6-2.3c0.8-0.8,1.5-1.6,2.3-2.4c0.8-0.8,1.6-1.6,2.3-2.4c0.3-0.4,0.7-0.8,1-1.2
					c0.3-0.3,0.7-0.7,1-1c0.2-0.3,0.3-0.6,0.3-0.9C38.1,449.3,37.9,448.9,37.6,448.6L37.6,448.6z"/>
				<path class="st1" d="M39.7,438c-0.6-0.3-1.4-0.1-1.8,0.5c-0.3,0.2-0.5,0.4-0.8,0.7c-0.5,0.4-0.9,0.8-1.3,1.3
					c-0.8,0.9-1.7,1.7-2.6,2.5c-0.9,0.8-1.8,1.5-2.6,2.3c-0.8,0.8-1.6,1.5-2.4,2.3c-0.8,0.8-1.6,1.5-2.4,2.2
					c-0.8,0.7-1.6,1.5-2.4,2.2c-0.7,0.6-1.5,1.2-2.2,1.8c-0.7,0.6-1.4,1.3-2,1.9c-0.9,0.8-1.9,1.5-2.8,2.3c-0.8,0.8-1.6,1.6-2.4,2.3
					c-0.7,0.6-1.5,1.1-2.3,1.7c-0.4,0.3-0.7,0.6-1.1,0.9s-0.7,0.6-1.1,0.9c-0.1,0.1-0.3,0.2-0.5,0.3c-0.1,0.1-0.2,0.1-0.4,0.2
					c-0.3,0.1-0.6,0.4-0.8,0.7c-0.3,0.7-0.1,1.5,0.6,1.8c0.3,0.2,0.7,0.2,1.1,0.1c0.4-0.1,0.8-0.3,1.1-0.5c0.3-0.2,0.6-0.5,0.9-0.8
					l-0.2,0.1c0.6-0.5,1.1-1,1.7-1.4c0.6-0.5,1.3-1,1.9-1.5c1.3-1.1,2.5-2.2,3.7-3.4c0.8-0.7,1.6-1.3,2.4-2s1.5-1.4,2.3-2.1
					c0.4-0.3,0.8-0.6,1.1-0.9c0.5-0.4,1-0.9,1.5-1.3c0.9-0.8,1.8-1.6,2.7-2.4c1.7-1.5,3.2-3.1,4.9-4.6c1-0.9,2.1-1.7,3-2.7
					c0.4-0.4,0.8-0.8,1.3-1.3c0.4-0.4,0.7-0.8,1.1-1.1c0.5-0.3,1-0.8,1.3-1.3c0.1-0.2,0.2-0.4,0.2-0.6
					C40.4,438.7,40.1,438.3,39.7,438L39.7,438z"/>
				<path class="st1" d="M82.2,383.4c-0.5-0.5-1.4-0.5-1.9,0c-0.4,0.4-0.8,0.8-1.1,1.2c-0.4,0.5-0.7,1-1.1,1.5
					c-0.4,0.5-0.8,1-1.1,1.5c-0.3,0.5-0.7,1-1,1.5c-0.7,1-1.4,1.9-2,3c-0.3,0.6-0.6,1.1-0.9,1.7c-0.3,0.6-0.6,1.1-0.9,1.7
					c-0.5,1-0.8,2-1.2,3l0-0.1l-0.1,0.2l-0.1,0.1l0-0.1l-0.1,0.2l0.1-0.3l0,0c-0.4,0.9-0.7,1.9-1.1,2.9c-0.3,0.7-0.6,1.4-0.9,2.2
					c-0.2,0.8-0.5,1.5-0.7,2.3c-0.1,0.3-0.1,0.6-0.2,0.9c-0.1,0.4-0.2,0.8-0.2,1.1c-0.1,0.4-0.2,0.9-0.4,1.3c0,0.1-0.1,0.1-0.1,0.2
					l0,0c-0.2,0.7,0.2,1.5,0.9,1.7c0.6,0.2,1.3-0.1,1.6-0.6c0.2-0.4,0.4-0.9,0.5-1.4c0.1-0.6,0.3-1.1,0.4-1.7
					c0.1-0.5,0.2-1.1,0.4-1.6c0.2-0.6,0.4-1.2,0.6-1.8c0.3-0.6,0.6-1.3,0.8-1.9c0.2-0.6,0.4-1.1,0.6-1.7c0.1-0.3,0.2-0.6,0.4-0.9
					c0,0.1-0.1,0.2-0.1,0.3c0.3-0.7,0.5-1.4,0.8-2.1c0.3-0.8,0.7-1.5,1.1-2.2c0.5-0.9,0.9-1.8,1.5-2.7c0.5-0.7,1-1.4,1.5-2.1
					c0.3-0.4,0.5-0.8,0.8-1.1c0.3-0.4,0.5-0.7,0.7-1.1c0.2-0.2,0.3-0.4,0.5-0.6c0.3-0.4,0.5-0.8,0.8-1.1c0.4-0.5,0.8-1,1.3-1.4
					c0.2-0.3,0.4-0.6,0.4-1C82.7,384,82.5,383.6,82.2,383.4L82.2,383.4z M79.6,388.6l-0.1,0.1L79.6,388.6z M70.9,398.6L70.9,398.6
					L70.9,398.6L70.9,398.6C70.9,398.6,70.9,398.6,70.9,398.6z M70.9,398.6L70.9,398.6L70.9,398.6L70.9,398.6L70.9,398.6z
					 M70.9,398.6L70.9,398.6l0-0.1L70.9,398.6z"/>
				<path class="st1" d="M72.3,388.1c-0.7-0.4-1.5-0.1-1.9,0.5c-0.6,1.1-1.4,2.2-2,3.4c-0.3,0.6-0.7,1.2-1,1.8
					c-0.3,0.5-0.6,1-0.9,1.5c-0.7,1.2-1.3,2.5-1.8,3.8c-0.4,1.1-0.6,2.2-0.9,3.3c-0.1,0.4-0.2,0.7-0.3,1.1c-0.1,0.4-0.3,0.9-0.4,1.3
					c-0.2,0.7,0.2,1.5,1,1.7c0.7,0.2,1.5-0.2,1.7-1l0,0c0.3-1.1,0.7-2.2,1-3.3c0.1-0.5,0.2-0.9,0.4-1.4c0.1-0.5,0.3-1,0.5-1.5
					c0.7-1.5,1.5-3,2.3-4.5c0.2-0.4,0.5-0.8,0.7-1.2c0.2-0.4,0.5-0.9,0.7-1.3c0.5-0.8,0.9-1.5,1.4-2.3
					C73.1,389.3,72.9,388.5,72.3,388.1L72.3,388.1z M67.6,399.3L67.6,399.3L67.6,399.3z"/>
				<path class="st1" d="M65,391.9c-0.7-0.4-1.5-0.1-1.9,0.5c-0.4,0.6-0.8,1.3-1.1,2c-0.3,0.6-0.6,1.3-0.8,1.9
					c-0.6,1.3-1.2,2.6-1.8,3.9c-0.2,0.3-0.2,0.7-0.1,1c0.2,0.7,0.9,1.2,1.7,1c0.4-0.1,0.6-0.3,0.8-0.6c0.6-1.3,1.2-2.5,1.8-3.8
					c0.3-0.6,0.6-1.3,0.9-1.9c0.3-0.7,0.7-1.4,1.1-2c0.1-0.2,0.2-0.4,0.2-0.6C65.7,392.6,65.4,392.1,65,391.9L65,391.9z"/>
				<path class="st1" d="M30.4,360.1c-0.7-0.4-1.5-0.1-1.9,0.5c-0.2,0.4-0.5,0.8-0.7,1.1c-0.6,0.8-1.3,1.5-1.9,2.3
					c-0.7,1-1.3,2-1.9,3.1c-0.4,0.7-0.1,1.5,0.6,1.8c0.6,0.3,1.4,0.1,1.8-0.5c0.4-0.9,1-1.8,1.5-2.7c0.5-0.6,1.1-1.3,1.6-1.9
					c0.5-0.6,1-1.3,1.4-2c0.1-0.2,0.2-0.4,0.2-0.7C31.1,360.8,30.9,360.3,30.4,360.1L30.4,360.1z"/>
				<path class="st1" d="M37,345.6c-0.3-0.2-0.7-0.2-1-0.1c-0.3,0.1-0.5,0.2-0.7,0.4l0,0c-0.7,0.9-1.4,1.7-2.1,2.6l0.2-0.3
					c-0.5,0.6-0.9,1.2-1.3,1.8c-0.4,0.5-0.8,1-1.2,1.4c-0.6,0.6-1.1,1.3-1.6,1.9c-0.4,0.5-0.9,1.1-1.3,1.6c-0.5,0.5-0.9,1.2-1.3,1.8
					c-0.4,0.5-0.7,1-1.1,1.5l0.2-0.3l-0.3,0.4l0.1-0.2l-0.1,0.1c-0.4,0.6-0.9,1.1-1.3,1.7c-0.4,0.7-0.9,1.4-1.3,2
					c-0.9,1.3-1.6,2.8-2.2,4.2c-0.2,0.3-0.2,0.7-0.1,1c0.2,0.7,1,1.1,1.7,0.9c0.4-0.1,0.6-0.3,0.8-0.6c0.5-1.2,1.1-2.3,1.8-3.4
					c0.3-0.5,0.7-1.1,1-1.6c0.3-0.5,0.6-1,1-1.4c0.3-0.4,0.7-0.9,1-1.3l0,0l0.1-0.1l0,0l-0.1,0.1l0.1-0.2l0,0l0,0l0,0l0-0.1l0,0.1
					c0.4-0.6,0.9-1.2,1.3-1.8c0.2-0.3,0.4-0.5,0.6-0.8c0.2-0.3,0.5-0.5,0.7-0.8c0.5-0.6,1-1.3,1.5-1.9c0.5-0.6,1-1.1,1.5-1.7
					c0.5-0.6,1-1.3,1.5-2c0.2-0.2,0.4-0.5,0.5-0.7l0,0c0.4-0.5,0.7-0.9,1.1-1.4c0.3-0.4,0.7-0.7,0.9-1.2c0.1-0.2,0.2-0.4,0.2-0.6
					C37.7,346.3,37.4,345.8,37,345.6L37,345.6z M35.7,349.7L35.7,349.7L35.7,349.7z M25.4,358.3c-0.1,0.1-0.1,0.1-0.2,0.2
					L25.4,358.3z M27.6,359.9L27.6,359.9L27.6,359.9L27.6,359.9L27.6,359.9z M27.6,359.9l-0.2,0.3l0.3-0.4L27.6,359.9z M27.7,359.7
					L27.7,359.7L27.7,359.7L27.7,359.7z M27.8,359.7L27.8,359.7L27.8,359.7L27.8,359.7L27.8,359.7z M27.8,359.6L27.8,359.6
					L27.8,359.6L27.8,359.6L27.8,359.6L27.8,359.6z M27.9,359.6L27.9,359.6L27.9,359.6L27.9,359.6L27.9,359.6z"/>
				<path class="st1" d="M24,355c-0.5-0.5-1.4-0.5-1.9,0c-0.8,0.8-1.6,1.6-2.3,2.4c-0.3,0.4-0.7,0.7-1,1.1c-0.5,0.6-0.9,1.1-1.3,1.7
					c-0.2,0.3-0.2,0.7-0.1,1c0.2,0.7,1,1.1,1.7,0.9c0.3-0.1,0.6-0.3,0.8-0.6l0.2-0.3c0.6-0.8,1.2-1.5,1.9-2.2
					c0.7-0.8,1.4-1.5,2.2-2.3c0.3-0.2,0.4-0.6,0.4-0.9C24.4,355.7,24.3,355.3,24,355L24,355z"/>
				<path class="st1" d="M72.9,344.8c-0.5-0.5-1.4-0.5-1.9,0c-0.5,0.5-1,1-1.5,1.5s-1,1-1.5,1.5c-0.9,1-1.9,2-2.8,3
					c-1.9,2-3.8,4.1-5.6,6.2c-0.8,0.9-1.5,1.8-2.2,2.7c-0.8,0.9-1.6,1.9-2.3,2.8c-1.5,1.8-2.8,3.8-4.2,5.7c-0.9,1.1-1.8,2.2-2.6,3.4
					c-0.8,1.2-1.7,2.3-2.5,3.5c-0.8,1.2-1.5,2.4-2.2,3.6c-0.3,0.6-0.7,1.2-1,1.8c-0.3,0.5-0.5,1.1-0.8,1.7c-0.2,0.3-0.3,0.5-0.5,0.8
					l0,0.1c-0.2,0.3-0.4,0.6-0.4,1c0,0.8,0.6,1.4,1.4,1.4c0,0,0,0,0,0c0.4,0,0.7-0.1,1-0.4c0.4-0.5,0.8-1,1.1-1.6
					c0.2-0.5,0.5-1,0.7-1.5c0.6-1.1,1.2-2.2,1.9-3.3c1.3-2.1,2.7-4.1,4.2-6.1c0.9-1.1,1.8-2.3,2.6-3.4c0.8-1.1,1.6-2.2,2.4-3.3
					c0.8-1.1,1.7-2.2,2.5-3.2c0.9-1.1,1.7-2.1,2.6-3.2c0.9-1.1,1.9-2.1,2.8-3.2c0.9-1.1,1.9-2.1,2.9-3.1c1-1.1,2-2.1,3-3.2
					c0.5-0.5,1-1,1.5-1.5c0.5-0.5,1.1-1.1,1.6-1.6c0.2-0.3,0.4-0.6,0.4-0.9C73.3,345.4,73.2,345.1,72.9,344.8L72.9,344.8z"/>
				<path class="st1" d="M59.6,367.4c-0.3-0.2-0.6-0.4-1-0.4c-0.4,0-0.7,0.2-1,0.4c-0.5,0.5-1.1,0.9-1.6,1.5c-0.5,0.5-0.9,1-1.3,1.5
					c-0.9,1-1.8,2-2.6,3.1c-0.9,1.1-1.8,2.2-2.7,3.3c-0.9,1.1-1.8,2.3-2.7,3.4c-0.8,1-1.5,2.1-2.2,3.2c-0.4,0.6-0.8,1.1-1.1,1.7
					c-0.1,0.3-0.3,0.5-0.4,0.8c-0.1,0.2-0.2,0.4-0.3,0.6c-0.5,0.6-0.4,1.4,0.1,1.9c0.5,0.5,1.4,0.4,1.9-0.1c0.4-0.5,0.8-1.1,1-1.8
					c0.4-0.6,0.7-1.3,1.1-1.9c0.7-1.1,1.4-2.1,2.2-3.2c0.8-1,1.6-2,2.4-3c0.9-1.1,1.7-2.2,2.6-3.3c0.8-1,1.7-2,2.5-3
					c0.4-0.5,0.9-1,1.3-1.5c0.5-0.5,1-1,1.6-1.5c0.3-0.2,0.4-0.6,0.4-0.9C60,368,59.8,367.6,59.6,367.4L59.6,367.4z"/>
				<path class="st1" d="M57.9,376.5c-0.3-0.2-0.6-0.4-1-0.4c-0.4,0-0.7,0.2-1,0.4c-0.5,0.5-1.1,0.9-1.6,1.4c-0.5,0.6-1,1.2-1.5,1.9
					c-0.4,0.6-0.8,1.2-1.3,1.8c-0.4,0.6-0.8,1.1-1.2,1.6c-0.5,0.7-1,1.4-1.5,2.1c-0.4,0.6-0.8,1.3-1.3,1.9c-0.2,0.2-0.3,0.4-0.5,0.6
					c-0.2,0.2-0.4,0.5-0.6,0.7c-0.5,0.5-0.5,1.4,0,1.9s1.4,0.5,1.9,0c0,0,0,0,0,0c0.3-0.3,0.6-0.7,0.9-1.1c0.4-0.5,0.7-1,1.1-1.5
					c0.6-0.9,1.1-1.8,1.8-2.6c0.5-0.7,1-1.4,1.5-2.1c0.5-0.8,1-1.5,1.6-2.3c0.3-0.4,0.6-0.8,1-1.2c0.5-0.5,1-0.9,1.5-1.3
					c0.3-0.3,0.4-0.6,0.4-1C58.3,377.1,58.1,376.8,57.9,376.5L57.9,376.5z"/>
				<path class="st1" d="M47.2,366.8c-0.7-0.4-1.5-0.1-1.9,0.5c-0.3,0.5-0.6,1-0.9,1.5c-0.3,0.5-0.6,0.9-1,1.4
					c-0.6,0.8-1.2,1.6-1.8,2.4c-0.6,0.8-1.1,1.7-1.6,2.5s-1.1,1.7-1.5,2.6s-0.9,1.8-1.3,2.7c-0.2,0.3-0.2,0.7-0.1,1
					c0.2,0.7,1,1.1,1.7,0.9c0.4-0.1,0.6-0.3,0.8-0.6c0.4-0.8,0.8-1.7,1.2-2.5c0.4-0.8,0.9-1.6,1.4-2.4c0.5-0.8,1-1.7,1.5-2.5
					c0.5-0.7,1-1.5,1.6-2.2l0,0c0.4-0.6,0.8-1.1,1.2-1.7c0.4-0.6,0.8-1.3,1.2-1.9c0.1-0.2,0.2-0.4,0.2-0.7
					C47.9,367.5,47.6,367,47.2,366.8L47.2,366.8z"/>
				<path class="st1" d="M40.2,369.5c-0.5-0.5-1.4-0.5-1.9,0c-0.9,1-1.8,1.9-2.6,3c-0.8,1.1-1.5,2.2-2.1,3.5
					c-0.4,0.6-0.2,1.5,0.5,1.9c0.6,0.4,1.5,0.2,1.9-0.5c0,0,0,0,0-0.1c0.5-1,1.1-2,1.8-3c0.8-1,1.6-1.9,2.5-2.9
					c0.2-0.3,0.4-0.6,0.4-1C40.6,370.1,40.4,369.7,40.2,369.5L40.2,369.5z"/>
				<path class="st1" d="M349.9,68.5c-0.3-0.3-0.6-0.4-1-0.4c-0.4,0-0.7,0.2-1,0.4c-0.4,0.3-0.7,0.6-1.1,0.9c-1,0.8-2.1,1.5-3.2,2.3
					c-1.2,0.8-2.3,1.6-3.5,2.4c-1.3,0.8-2.5,1.7-3.7,2.6c-1.1,0.9-2.1,1.9-3.2,2.8c-1.1,1-2.3,2-3.4,3.1c-1.1,0.9-2.2,1.8-3.3,2.7
					c-1.1,0.9-2.2,1.9-3.3,2.9c-0.5,0.5-1,0.9-1.5,1.4c-0.5,0.5-1,1-1.5,1.6c-0.8,0.9-1.7,1.7-2.5,2.6s-1.7,1.7-2.6,2.5
					c-0.4,0.4-0.9,0.8-1.3,1.2s-0.9,0.8-1.3,1.2s-0.9,0.8-1.3,1.2s-0.9,0.8-1.3,1.3c0,0,0,0-0.1,0l0,0l0,0c-0.3,0.1-0.5,0.3-0.6,0.5
					c-0.4,0.7-0.2,1.5,0.5,1.9c0.3,0.2,0.7,0.2,1,0.1c0.2-0.1,0.4-0.2,0.6-0.3c0.2-0.1,0.4-0.3,0.6-0.5c0.1-0.1,0.2-0.2,0.3-0.3
					c0.2-0.2,0.5-0.5,0.7-0.7c0.5-0.5,1-0.9,1.5-1.4s1-0.9,1.6-1.4s1-1,1.5-1.4c1.1-1,2-2,3-3.1s2-2.1,3-3.1c0.5-0.5,1-0.9,1.5-1.4
					s1-0.9,1.5-1.4c1.1-0.9,2.2-1.9,3.3-2.8c2.3-1.9,4.4-3.8,6.6-5.8c0.7-0.7,1.5-1.3,2.2-1.9c0.9-0.7,1.8-1.3,2.8-1.9
					c0.9-0.6,1.8-1.2,2.7-1.8c0.9-0.6,1.8-1.3,2.7-1.9c1-0.7,1.9-1.4,2.8-2.2c0.3-0.2,0.4-0.6,0.4-0.9
					C350.3,69.2,350.2,68.8,349.9,68.5L349.9,68.5z M310.2,101c0,0-0.1,0.1-0.1,0.1L310.2,101z M310,101.1L310,101.1L310,101.1
					L310,101.1z"/>
				<path class="st1" d="M345.8,62.8c-0.2-0.3-0.5-0.5-0.8-0.6c-0.4-0.1-0.7,0-1,0.1c-1.1,0.5-2.2,1.1-3.3,1.8
					c-1.1,0.7-2.2,1.5-3.2,2.4c-2,1.7-4,3.4-6.1,5c-0.7,0.6-1.5,1.1-2.2,1.7c-0.4,0.3-0.7,0.6-1.1,0.9c-0.4,0.3-0.7,0.7-1.1,1.1
					c-0.5,0.5-0.5,1.4,0,1.9s1.4,0.5,1.9,0l0,0c0.3-0.4,0.7-0.7,1-1.1c0.3-0.3,0.6-0.5,0.9-0.8c0.8-0.6,1.6-1.2,2.4-1.8
					c0.8-0.6,1.6-1.3,2.4-1.9c1.4-1.2,2.8-2.4,4.3-3.5c0.8-0.6,1.7-1.2,2.5-1.8c0.9-0.6,1.9-1.1,2.9-1.5c0.4-0.2,0.7-0.7,0.7-1.2
					C346,63.3,345.9,63,345.8,62.8L345.8,62.8z"/>
				<path class="st1" d="M360.6,73.1c-0.4-0.6-1.2-0.9-1.9-0.5c-3.4,2.3-6.8,4.7-10.1,7.2c0.1-0.1,0.2-0.1,0.3-0.2
					c-1.2,0.9-2.4,1.7-3.6,2.5s-2.5,1.5-3.7,2.3c-1.2,0.8-2.4,1.8-3.6,2.7c-0.6,0.4-1.1,0.9-1.7,1.4c-0.5,0.4-1,0.8-1.5,1.3
					c-0.9,0.8-1.8,1.7-2.7,2.5c-0.4,0.4-0.9,0.8-1.4,1.2s-0.9,0.7-1.4,1.1c-0.5,0.5-0.5,1.4,0,1.9c0.3,0.3,0.6,0.4,1,0.4
					c0.4,0,0.7-0.1,1-0.4c0.8-0.7,1.7-1.4,2.5-2.1c0.9-0.8,1.8-1.6,2.6-2.4c0.4-0.3,0.8-0.7,1.2-1c0.5-0.4,0.9-0.8,1.4-1.1
					c0.8-0.7,1.7-1.3,2.5-2c0.8-0.6,1.6-1.1,2.4-1.7c0.8-0.5,1.6-1,2.4-1.5c1.7-1,3.2-2.2,4.8-3.4l0,0l0,0l0.2-0.2l-0.2,0.1
					c0.7-0.5,1.3-1,2-1.5c0.7-0.5,1.5-1,2.2-1.5c1.6-1.1,3.1-2.2,4.7-3.3c0.3-0.2,0.5-0.5,0.6-0.8c0-0.1,0-0.2,0-0.4
					C360.7,73.6,360.7,73.3,360.6,73.1L360.6,73.1z M341.7,87.7c-0.1,0.1-0.1,0.1-0.2,0.2L341.7,87.7z M351.1,81.3L351.1,81.3
					L351.1,81.3L351.1,81.3z"/>
				<path class="st1" d="M329.2,48.5c-0.4-0.6-1.2-0.9-1.9-0.5c-0.4,0.2-0.7,0.4-1.1,0.6s-0.7,0.5-1,0.7c-0.6,0.4-1.2,0.9-1.8,1.4
					c-1.4,1.1-2.9,2.2-4.3,3.3l0,0c-1,0.8-2,1.6-3,2.5c-1,0.8-2,1.6-3,2.4c-0.7,0.5-1.4,1-2,1.6c-0.3,0.3-0.4,0.6-0.4,1
					c0,0.8,0.6,1.4,1.4,1.4c0,0,0,0,0,0c0.4,0,0.7-0.2,1-0.4c0.2-0.2,0.5-0.4,0.7-0.5c1.3-1,2.5-1.9,3.7-2.9c1.2-1,2.4-1.9,3.6-2.9
					l0.6-0.4c1.1-0.8,2.2-1.7,3.3-2.5c0.6-0.5,1.2-0.9,1.8-1.3c0.3-0.2,0.6-0.5,1-0.6c0.4-0.2,0.7-0.4,1.1-0.6
					C329.3,50,329.5,49.2,329.2,48.5L329.2,48.5z M321.6,55.4c0,0-0.1,0.1-0.1,0.1L321.6,55.4z M319,54l0.2-0.2L319,54z"/>
				<path class="st1" d="M324.7,45c-0.4-0.6-1.2-0.9-1.9-0.5c-1,0.5-2,1.1-3,1.7c-0.9,0.6-1.8,1.3-2.7,1.9c-1.8,1.4-3.6,2.8-5.4,4.2
					c-1.1,0.9-2.2,1.7-3.4,2.5c-1.2,0.9-2.4,1.9-3.7,2.8c-2.3,1.8-4.4,3.7-6.5,5.7c-1,0.9-1.9,1.8-2.9,2.7c-1,0.9-2,1.7-2.9,2.5
					s-1.9,1.7-2.9,2.6c-0.5,0.4-1,0.9-1.4,1.3s-0.9,1-1.4,1.4c-0.5,0.5-0.5,1.4,0,1.9c0.5,0.5,1.4,0.5,1.9,0c0.5-0.5,0.9-1,1.4-1.5
					c0.5-0.5,1-0.9,1.5-1.4c1-0.9,2.1-1.9,3.1-2.8c1.1-1,2.2-1.9,3.3-2.9c1.1-1,2.1-2,3.2-3c1.2-1.2,2.5-2.3,3.8-3.4
					c1.2-1.1,2.6-2,3.8-3c1.3-0.9,2.5-1.9,3.8-2.8c1.4-1,2.7-2.1,4.1-3.2c1.2-0.9,2.4-1.8,3.6-2.7c1.3-0.9,2.6-1.6,3.9-2.3
					C324.8,46.4,325.1,45.6,324.7,45L324.7,45z M316.6,51.9L316.6,51.9L316.6,51.9z M311.7,52.3l-0.2,0.1L311.7,52.3z"/>
				<path class="st1" d="M380.2,99.4c-0.2-0.3-0.5-0.5-0.8-0.6c-0.4-0.1-0.7,0-1.1,0.1c-2.5,1.2-5.1,2.3-7.6,3.7
					c-1.2,0.7-2.4,1.5-3.6,2.2s-2.3,1.6-3.5,2.4c-2.4,1.6-4.8,3-7.2,4.6c-1.2,0.8-2.4,1.7-3.6,2.6c-1,0.8-2,1.7-3,2.6
					c-0.2,0.1-0.3,0.3-0.5,0.4c0.1-0.1,0.2-0.1,0.3-0.2c-0.3,0.3-0.7,0.5-1.1,0.8c-0.3,0.1-0.5,0.3-0.6,0.6
					c-0.2,0.3-0.2,0.7-0.1,1.1c0.1,0.3,0.3,0.6,0.6,0.8c0.3,0.2,0.7,0.2,1,0.1c0.4-0.1,0.7-0.3,1-0.6c0.3-0.2,0.5-0.4,0.8-0.6
					c0.4-0.4,0.9-0.7,1.3-1.1c0.8-0.7,1.5-1.3,2.3-2c1.1-0.8,2.1-1.6,3.2-2.4c1.2-0.8,2.4-1.6,3.6-2.4c1.2-0.8,2.4-1.5,3.5-2.3
					s2.3-1.6,3.4-2.4c0.9-0.6,1.7-1.1,2.6-1.6s1.8-1,2.7-1.5c1.8-0.9,3.7-1.7,5.5-2.6c0.4-0.2,0.7-0.7,0.7-1.2
					C380.4,99.9,380.3,99.6,380.2,99.4L380.2,99.4z"/>
				<path class="st1" d="M377,94.4c-0.4-0.6-1.2-0.9-1.9-0.5c-1.2,0.8-2.5,1.5-3.9,2.1c-1.3,0.6-2.6,1.1-3.9,1.7
					c-1.3,0.6-2.5,1.3-3.7,2.1c-1.2,0.8-2.5,1.6-3.8,2.3c-1.1,0.7-2.3,1.3-3.4,2.1c-1.2,0.8-2.3,1.6-3.5,2.5
					c-2.2,1.7-4.3,3.7-6.4,5.5c0.1-0.1,0.2-0.1,0.3-0.2c-0.6,0.4-1.1,0.9-1.7,1.3c-0.6,0.4-1.2,0.8-1.8,1.2
					c-1.2,0.8-2.4,1.6-3.6,2.5c-1.3,0.9-2.5,1.8-3.7,2.9c-1.1,1-2.1,2-3.2,3c-0.8,0.7-1.6,1.5-2.5,2.2l-0.1,0.1
					c-0.3,0.2-0.5,0.5-0.6,0.8c-0.2,0.7,0.2,1.5,1,1.7c0.4,0.1,0.7,0.1,1-0.1c1.4-1,2.7-2.2,3.9-3.4c0.6-0.5,1.2-1.1,1.8-1.7
					c0.6-0.6,1.3-1.1,1.9-1.7c2.2-1.7,4.5-3.3,6.8-4.8c1.3-0.9,2.5-1.8,3.7-2.9c1.1-1,2.2-2,3.3-2.9c0.5-0.4,1-0.8,1.5-1.2
					c1.1-0.8,2.2-1.7,3.3-2.4c1.2-0.8,2.5-1.5,3.7-2.3c2.4-1.5,4.7-3.1,7.2-4.3c1.2-0.6,2.5-1.1,3.7-1.7c1.3-0.6,2.6-1.3,3.8-2
					c0.4-0.2,0.7-0.7,0.7-1.2C377.2,94.8,377.2,94.6,377,94.4L377,94.4z"/>
				<path class="st1" d="M370.4,90.3c-0.4-0.6-1.2-0.9-1.9-0.5c-0.5,0.3-1.1,0.6-1.6,0.9c-0.4,0.3-0.9,0.6-1.3,0.9
					c-0.9,0.7-1.8,1.4-2.8,2.2c-0.7,0.5-1.4,1-2.1,1.5c-0.8,0.5-1.7,1-2.6,1.5c-1.8,0.9-3.4,1.9-5,3c-0.3,0.2-0.5,0.5-0.6,0.8
					c-0.2,0.7,0.2,1.5,1,1.7c0.4,0.1,0.7,0.1,1.1-0.1c0.9-0.7,1.9-1.3,2.9-1.9c1.1-0.6,2.1-1.1,3.2-1.7c1-0.6,2-1.2,2.9-1.9
					c1-0.7,1.9-1.5,2.9-2.2c0.5-0.4,1-0.7,1.5-1.1c0.6-0.4,1.3-0.7,2-1.1c0.4-0.2,0.7-0.7,0.7-1.2C370.5,90.8,370.5,90.5,370.4,90.3
					L370.4,90.3z"/>
				<path class="st2" d="M385.9,104.7c-62.2,38.6-119.8,84.2-171.7,135.8c-53.1,52.8-99.8,111.6-139.3,175.2"/>
				<path class="st2" d="M318.3,37.2c-62.2,38.6-119.8,84.2-171.7,135.8C93.6,225.7,46.8,284.5,7.4,348.1"/>
			</g>
		</g>
		<g>
			<path d="M92,328.3l-27.8-8.5c-0.4-0.1-0.5-0.4-0.3-0.8l2.8-3.9c0.2-0.3,0.5-0.4,0.8-0.3l20.8,6.8l-12.8-17.7
				c-0.2-0.2-0.2-0.6,0-0.9l2.8-3.9c0.3-0.4,0.6-0.4,0.9,0l16.5,23.9c0.2,0.3,0.1,0.7-0.1,0.9l-2.9,4
				C92.7,328.3,92.3,328.4,92,328.3z"/>
			<path d="M103.5,312.7l-15-11.4c-0.3-0.2-0.3-0.5-0.2-0.8c0,0,0,0,0-0.1l2.7-3.5c0.2-0.3,0.5-0.3,0.8-0.2c0,0,0,0,0.1,0l15,11.4
				c0.3,0.2,0.3,0.5,0.2,0.8c0,0,0,0,0,0.1l-2.7,3.5C104.1,312.8,103.8,312.9,103.5,312.7C103.5,312.7,103.5,312.7,103.5,312.7z
				 M82.5,297.1c-1.4-1-1.6-3-0.6-4.3c0,0,0,0,0-0.1c1.1-1.4,3-1.6,4.4-0.5c1.3,1,1.6,2.9,0.6,4.3C85.9,297.8,84,298.1,82.5,297.1
				C82.5,297.1,82.5,297.1,82.5,297.1z"/>
			<path d="M101.7,299.2c-4.6-3.6-5.6-9.7-1.8-14.6c3-4.1,8.8-5.1,12.9-2.1c0.2,0.1,0.4,0.3,0.6,0.4c1.5,1.2,2.1,2.3,1,3.6l-7.6,9.6
				c2.4,1.1,4.8,0.3,6.8-2.2c1-1.3,1.7-2.8,1.9-4.4c0-0.3,0.2-0.5,0.6-0.4l2.6,0.1c0.4,0,0.6,0.2,0.6,0.7c0.2,2.6-0.7,5.2-2.4,7.2
				C112.8,302.3,106.5,303,101.7,299.2z M109.6,286.5c-1.9-1.4-4.6-0.9-5.9,1c0,0,0,0,0,0c-1.6,1.8-1.6,4.6,0.1,6.3L109.6,286.5z"/>
			<path d="M126.2,283.9l-18.5-7.3c-0.5-0.2-0.5-0.5-0.2-0.8l2.8-3.3c0.2-0.3,0.5-0.4,0.8-0.2l12.5,5.3l-7.2-11.7
				c-0.2-0.3-0.1-0.6,0.1-0.9l2.8-3.3c0.2-0.3,0.5-0.4,0.8-0.2l12.8,5l-7.4-11.4c-0.2-0.3-0.1-0.7,0.1-0.9l2.7-3.3
				c0.3-0.3,0.6-0.3,0.8,0.1l10.4,16.9c0.2,0.3,0.1,0.6-0.1,0.9l-2.9,3.5c-0.2,0.3-0.5,0.4-0.8,0.2l-12.9-4.9l7.1,11.8
				c0.2,0.3,0.1,0.6-0.1,0.9l-2.9,3.5C126.9,283.9,126.5,284,126.2,283.9z"/>
			<path d="M140.8,245.6c-6-5.4-6.6-14.6-1.2-20.6c0.1-0.1,0.1-0.2,0.2-0.2c2.5-2.8,6-4.5,9.8-4.6c0.4,0,0.6,0.2,0.6,0.6l0.3,4.2
				c0.1,0.3-0.1,0.6-0.5,0.7c0,0-0.1,0-0.1,0c-2.3,0.3-4.4,1.3-6,3.1c-3.3,3.8-2.9,9.4,0.9,12.7c3.6,3.2,9.1,2.9,12.5-0.6
				c1.6-1.7,2.4-3.9,2.5-6.3c0-0.3,0.2-0.6,0.5-0.6c0,0,0.1,0,0.1,0l4.2-0.1c0.3,0,0.5,0.1,0.6,0.4c0,0,0,0.1,0,0.1
				c0.2,3.8-1.1,7.5-3.7,10.2c-5.3,6-14.5,6.6-20.6,1.2C141,245.8,140.9,245.7,140.8,245.6z"/>
			<path d="M162.1,228.5c-4.3-4.1-4.9-10.1-1-14.1c1.7-2,4.3-2.9,6.9-2.4l-1.5-1.6c-0.2-0.2-0.3-0.6-0.1-0.8c0,0,0,0,0,0l2.8-2.9
				c0.2-0.2,0.6-0.3,0.8-0.1c0,0,0,0,0.1,0.1l13.6,13c0.2,0.2,0.3,0.6,0,0.9c0,0,0,0,0,0l-2.7,2.9c-0.2,0.2-0.6,0.3-0.8,0.1
				c0,0,0,0,0,0l-1.6-1.5c0.6,2.6-0.3,5.2-2.1,7C172.4,232.9,166.5,232.6,162.1,228.5z M173.1,217.1c-2.3-2.2-5.3-2.2-7.4-0.1
				c-2,2.2-1.8,5.6,0.4,7.6c2.1,1.9,5.3,1.8,7.3-0.1C175.5,222.3,175.4,219.3,173.1,217.1z"/>
			<path d="M185.1,215.1c-0.4,0-0.7-0.4-0.8-0.9l-0.4-2.4c-0.1-0.3,0-0.7,0.4-0.8c0.1,0,0.2,0,0.2,0c1.7-0.1,3.4-0.7,4.7-1.9
				c1-1,1.2-2,0.4-2.8c-0.7-0.7-1.5-0.6-2.9,0l-2.5,1.1c-2.5,1.1-5,1.2-7-0.8c-2.7-2.7-2-6.6,0.7-9.2c1.8-1.9,4.3-2.8,6.9-2.6
				c0.3,0,0.6,0.3,0.6,0.6l0.3,2.8c0,0.4-0.2,0.6-0.7,0.7c-1.4,0-2.7,0.5-3.8,1.4c-0.7,0.5-0.9,1.6-0.4,2.3c0,0.1,0.1,0.1,0.1,0.2
				c0.7,0.7,1.7,0.5,2.7,0l2.8-1.2c2.5-1.1,5.1-1.3,7.3,0.9c2.8,2.9,1.9,6.8-1,9.7C190.7,214.2,187.9,215.3,185.1,215.1z"/>
			<path d="M192.6,197.3c-4.1-4.3-4.2-10.4,0.2-14.7c3.5-3.7,9.4-3.8,13.1-0.2c0.2,0.2,0.3,0.3,0.5,0.5c1.4,1.4,1.8,2.5,0.5,3.7
				l-8.8,8.4c2.2,1.4,4.7,1,7-1.3c1.2-1.1,2.1-2.5,2.5-4.1c0-0.2,0.3-0.4,0.5-0.4c0,0,0.1,0,0.1,0l2.5,0.5c0.3,0.1,0.5,0.3,0.5,0.8
				c-0.2,2.6-1.4,5-3.4,6.7C203.1,201.9,196.8,201.7,192.6,197.3z M202.1,185.8c-1.7-1.6-4.4-1.5-6,0.2c0,0,0,0,0,0
				c-1.9,1.6-2.2,4.3-0.8,6.3L202.1,185.8z"/>
			<path d="M219.5,180.4c-0.3-0.1-0.6-0.4-0.5-0.7l-0.1-3.6c0-0.3,0.2-0.6,0.5-0.7c0,0,0.1,0,0.1,0c2.6,0.2,4.4-0.2,6.2-1.7
				c1.8-1.6,2.3-3.4,0.9-5c-1.3-1.4-2.8-1-4.9-0.3l-3.7,1.1c-3.2,1-6.6,1.2-9.5-2c-3.5-3.9-2.4-8.6,1.2-11.9
				c2.4-2.2,5.6-3.2,8.8-2.8c0.4,0,0.7,0.3,0.7,0.7c0,0,0,0,0,0l0.1,3.7c0.1,0.3-0.1,0.6-0.4,0.7c0,0-0.1,0-0.1,0
				c-2.3,0-3.9,0.4-5.3,1.6c-1.6,1.4-1.8,3-0.7,4.3c1.1,1.2,2.4,1,4.7,0.3l3.1-1c3.3-1,7-1.7,10.2,1.9c3.8,4.3,2.1,9.4-1.5,12.7
				C226.7,180,223.1,181.1,219.5,180.4z"/>
			<path d="M236.6,163.3l-6.7-7.8l-1.9,1.7c-0.2,0.2-0.6,0.2-0.8,0c0,0,0,0,0-0.1l-2.1-2.4c-0.2-0.2-0.2-0.6,0-0.8c0,0,0,0,0.1,0
				l1.9-1.7l-3.1-3.6c-0.2-0.2-0.2-0.6,0-0.8c0,0,0,0,0.1,0l3.4-2.9c0.2-0.2,0.6-0.2,0.8,0c0,0,0,0,0,0.1l3.1,3.6l2.4-2.1
				c0.2-0.2,0.6-0.2,0.8,0c0,0,0,0,0,0.1l2.1,2.4c0.2,0.2,0.2,0.6,0,0.8c0,0,0,0-0.1,0l-2.4,2.1l6.3,7.3c0.5,0.7,1.5,0.9,2.2,0.4
				c0.1-0.1,0.2-0.1,0.3-0.2c0.3-0.2,0.6-0.5,0.9-0.9c0.3-0.3,0.7-0.4,0.9,0l2,2.3c0.6,0.7-0.8,2.2-1.8,3.1
				C242.6,165.8,239.5,166.6,236.6,163.3z"/>
			<path d="M244.9,152.9l-7.4-9c-0.2-0.2-0.2-0.6,0-0.8c0,0,0,0,0.1,0l3.4-2.8c0.2-0.2,0.6-0.2,0.8,0c0,0,0,0,0,0.1l6.6,8
				c1.8,2.2,3.8,2.5,5.6,1c1.8-1.5,2.1-3.7,0.3-5.8l-6.6-8c-0.2-0.2-0.2-0.6,0-0.8c0,0,0,0,0.1,0l3.4-2.8c0.2-0.2,0.6-0.2,0.9,0
				c0,0,0,0,0,0l12,14.5c0.2,0.3,0.2,0.6-0.1,0.9c0,0,0,0,0,0l-3.2,2.7c-0.2,0.2-0.6,0.2-0.8,0c0,0-0.1-0.1-0.1-0.1l-1.6-1.7
				c0.5,2.5-0.4,5-2.4,6.6C252.5,157.3,248.3,156.9,244.9,152.9z"/>
			<path d="M261.1,136.6c-3.7-4.7-3.5-10.7,1-14.2c1.8-1.6,4.3-2.2,6.6-1.6l-6.8-8.6c-0.2-0.2-0.2-0.6,0-0.8c0,0,0,0,0.1,0l3.5-2.8
				c0.2-0.2,0.6-0.2,0.8,0c0,0,0,0,0,0.1l17.3,22c0.2,0.3,0.2,0.6-0.1,0.9c0,0,0,0,0,0l-3.1,2.5c-0.2,0.2-0.6,0.2-0.8,0
				c0,0,0,0,0-0.1l-1.4-1.7c0.2,2.6-1,5.1-3.1,6.7C270.6,142.5,264.8,141.3,261.1,136.6z M273.5,126.9c-2-2.5-5-2.9-7.3-1.1
				c-2.3,1.9-2.6,5.3-0.7,7.6c1.8,2.2,5,2.5,7.3,0.9C275.2,132.4,275.5,129.4,273.5,126.9L273.5,126.9z"/>
			<path d="M295,131.9l-1.9-7.4l-17.8-10.9c-0.4-0.3-0.4-0.6,0-0.9l3.6-2.7c0.3-0.2,0.6-0.2,0.9,0l11.6,7.5l-4-13.3
				c-0.1-0.3,0-0.6,0.3-0.8l3.6-2.7c0.4-0.3,0.7-0.2,0.8,0.3l7.5,27.7c0.1,0.3,0,0.7-0.3,0.8l-3.5,2.6
				C295.4,132.4,295.1,132.4,295,131.9z"/>
		</g>
	</g>
</g>
</svg>
