<svg xmlns="http://www.w3.org/2000/svg" width="729.957" height="294.098" viewBox="0 0 729.957 294.098">
  <defs>
    <style>
      .a {
        fill: #fff;
      }

      .b {
        font-size: 54px;
        font-family: GreycliffCF-Medium, Greycliff CF;
        font-weight: 500;
      }

      .c, .d {
        fill: #2c2c2c;
      }

      .d {
        font-size: 12px;
        font-family: ArialMT, Arial;
      }

      .e {
        fill: none;
        stroke: #2c2c2c;
        stroke-linecap: round;
        stroke-miterlimit: 10;
        stroke-width: 14px;
      }
    </style>
  </defs>
  <g>
    <g>
      <path class="a" d="M184.8,168.2c-1.23,1.512-4.871,1.369-6.559,1.348-4.731-.059-9.346.619-14.056.673-1.887.022-3.782-.168-5.66.031-1.455.155-2.846.586-4.317.645a30.958,30.958,0,0,0-5.023.111,16.462,16.462,0,0,1-3.955.533c-5.636-.073-11.278-.045-16.914-.009-3.548.022-6.973-.744-10.507-.672-3.657.075-7.281-.525-10.938-.63-6.774-.2-13.966-2.226-20.519-3.861-2.385-.595-4.806-1.2-7.138-1.982-3.237-1.079-6.119-2.981-9.343-4.183-6.433-2.4-12.563-5.425-18.935-7.964-2.847-1.134-5.848-1.974-8.612-3.278-1.632-.77-2.97-1.969-4.563-2.778-.672-.342-2.232-.349-2.266-1.243a6.111,6.111,0,0,1,2.458-1.5,32.635,32.635,0,0,1,3.374-1.738c1.061-.326,2.071-.357,3.143-.761a29.768,29.768,0,0,0,4.537-2.027c4.075-2.373,8.522-4.2,12.746-6.3,5.511-2.744,10.629-5.787,15.836-8.975a59.643,59.643,0,0,0,11.389-8.6c3.89-3.907,7.77-7.83,11.7-11.695a16.3,16.3,0,0,0,3.164-4.269c.517-1.08.606-2.321,1.127-3.407.474-.989,1.535-1.856,1.425-3.016-.171-1.8-3.011-2.475-4.364-3.011-2.661-1.054-5.414-2-7.971-3.288a40.84,40.84,0,0,0-8.324-3.108c-6.317-1.65-11.953-6.111-17.475-9.491-5.191-3.177-10.25-6.242-15.17-9.83-3.084-2.25-6.38-4.309-9.264-6.82-.976-.85-1.786-1.849-2.816-2.635-1.169-.891-2.749-1.445-3.724-2.562a14.426,14.426,0,0,1,3.959-.1,62.226,62.226,0,0,1,7.762.515c5.245.624,10.805.148,16.081.148A410.123,410.123,0,0,0,112.4,50.228c4.247-.493,8.657-.493,12.835-1.469,2.976-.7,5.75-1.439,8.778-1.945,4.964-.83,9.732-2.476,14.788-2.986,1.5-.152,2.5-.9,3.93-1.2,1.126-.239,2.154-.276,3.278-.616,3.952-1.193,7.588-3.2,11.636-3.988,2.471-.48,4.726-1.547,7.184-2.047,2.608-.531,5.294-.935,7.931-1.3,6.062-.829,12.154-2.168,18.225-2.751,5.373-.516,10.9-1.954,16.273-2.086,2.374-.058,4.654-.428,7.021-.648,2.865-.266,5.7-.535,8.58-.811,8.015-.768,16.161-1.163,24.213-1.18,6.934-.014,13.781.893,20.7,1.232a36.091,36.091,0,0,1,10.649,2.383c1.933.664,3.962.956,5.869,1.67s3.162,2.061,4.941,2.918c1.405.677,3.107.822,4.441,1.689,2.086,1.356,3.772,4.14,5.353,6.048a38.374,38.374,0,0,1,3.813,6.086c2.56,4.636,3.355,10.065,3.687,15.328.357,5.658-.014,11.523-.049,17.192-.03,4.808.418,9.57.663,14.357.068,1.319.349,4.479,1.469,5.389,4.025-3.2,8.777-5.181,13.184-7.788,8.1-4.8,17.178-6.44,25.865-9.794,6.5-2.51,12.07-6.365,18.861-8.1,14.731-3.759,29.633-7.852,43.887-13.185a29.111,29.111,0,0,0,4.3-2.18c2.286-1.308,4.8-2.091,7.131-3.323a75.374,75.374,0,0,1,17.663-6.318c8.437-2.1,16.293-5.261,24.522-7.979,3.908-1.291,7.964-.926,12-1.482,2.612-.36,6.266-.387,8.509-1.547a14.012,14.012,0,0,1-4.038-.064c-.186-2.4,10.434-3.121,12.213-3.392,6.06-.924,12.43-.961,18.549-1.163,5.534-.183,11.055-.517,16.59-.668,17-.461,34.185-1.508,51.188-.549,12.406.7,25.161,1,37.061,4.873,6.435,2.094,13.449,3.8,19.467,6.938,7.507,3.916,14.452,8.866,22.2,12.373,8.659,3.919,18.049,6.087,26.57,10.282,3.131,1.542,6.06,3.642,9.409,4.669A110.271,110.271,0,0,0,715.65,76c-.2.4-5.936-.28-7.018-.359-.374,1.643,4.46,3.008,5.224,4.77.542,1.251.282,2.5.326,3.807a35.9,35.9,0,0,0,.688,4.615c1.142,6.858.915,13.876,1.678,20.784,1.062,9.607,1,19.466,1.613,29.12,1.755,27.855,4.035,55.848,4.021,83.77q0,4.536,0,9.072c0,1.735.468,4.145-.053,5.782-1.118-.109-2.492-1.561-3.279-2.161-1.155-.879-2.329-1.771-3.533-2.584-3.347-2.262-6.678-4.726-10.453-6.227-4.4-1.752-8.864-3.248-13.21-5.195-4.274-1.914-8.737-2.615-13.17-4.228-2.957-1.076-5.725-2.625-8.715-3.606a68.755,68.755,0,0,0-8.025-1.944c-5.529-1.1-11.034-1.484-16.62-2.055-4.127-.422-8.145-1.539-12.256-2.1-3.186-.437-6.5-.71-9.634-1.295a50.668,50.668,0,0,0-7.742-1.208c-4.049-.146-7.874-1.57-11.856-2.19-4.07-.634-8.2-.7-12.306-.938-16.809-.98-33.743-1.439-50.558-.335-13.426.881-26.666,1.765-39.84,4.724-22.022,4.945-44.414,8.013-65.745,15.585,1.221,1.735,8.094.28,9.833,0,4.161-.66,8.03-1.638,12.26-2.026,5.79-.531,12.85-.463,17.414-4.647-2.858,2.646-8.758,4-12.2,5.167-5.277,1.781-10.3,2.971-15,5.977-3.619,2.314-7.436,3.294-11.521,4.478a43.259,43.259,0,0,0-10.652,4.741c-4.312,2.59-8.582,5.749-13.159,7.846a72.35,72.35,0,0,1-11.625,3.981c-10.18,2.643-20.5,4.827-30.686,7.491-4.133,1.081-8.222,2.29-12.344,3.4a16.2,16.2,0,0,0-6.442,3.475,10.557,10.557,0,0,1-6.051,2.561c-6.155.891-12.1,3.471-18.187,4.805a108.562,108.562,0,0,1-17.477,2.613c-8.83.5-17.467,1.155-26.242,2.315-7.532,1-15.11,2.008-22.677,2.688-5.589.5-11.3.4-16.826,1.133-8.442,1.125-16.962-.3-25.395-.867-3.672-.248-7.265-.19-10.93-.616q-3.184-.333-6.368-.687-1.8-.179-3.567-.516c-1.561-1.075,1.772-6.207,2.163-7.5a14.827,14.827,0,0,0-.055-8.619,52.166,52.166,0,0,1-1.89-7.3c-.273-2.15-.025-4.3-.2-6.466-.5-6.263-.024-12.5.075-18.825.058-3.656-.78-7.086-1.195-10.708a106.37,106.37,0,0,1-.815-13.987c.106-5.819-1.926-11.653-3.358-17.275-.672-2.641-.938-5.308-1.478-7.973-.27-1.334-.121-3.732-1.148-4.74"/>
      <path class="a" d="M180.555,163.955c1.31-1.03-.219-.431-1.329-.4-1.211.038-2.425-.011-3.636.029-3.22.106-6.425.479-9.645.585-6.125.2-12.28.27-18.357,1.049-12.662,1.623-26.2-.074-38.893-.905A105.123,105.123,0,0,1,89.6,161c-6.444-1.625-12.013-4.108-18.132-6.581-6.06-2.449-12-5.178-18.069-7.612-3.043-1.22-6.378-2.024-9.222-3.67a37.07,37.07,0,0,0-6.632-3.337l3.586,2.757-.454-.643-.938,7.271c2.593-2.034,6.342-2.351,9.31-3.656,3.716-1.634,7.242-3.7,10.92-5.438A197.684,197.684,0,0,0,82.142,127.87c7.163-4.577,12.878-10.433,18.862-16.4,4.8-4.788,8.851-9.615,10.961-16.143,2.314-7.163-4.645-10.054-9.945-12.093-3.806-1.463-7.41-3.405-11.264-4.74-3.871-1.341-7.462-2.386-11.028-4.524-13.2-7.916-26.458-16.378-38.2-26.3L38.881,57.7c4.348-.636,9.3.7,13.663.9,6.129.277,12.336-.1,18.471-.144,12.171-.095,24.35-.512,36.467-1.7a262.046,262.046,0,0,0,33.648-5.327c4.958-1.141,9.92-2.049,14.83-3.28,5.443-1.365,10.775-3.491,16.163-5.118,10.361-3.128,21.545-4.064,32.249-5.513s21.414-2.581,32.19-3.456a224.984,224.984,0,0,1,35.556.006,64.389,64.389,0,0,1,14.7,2.543c2.136.656,4.395.991,6.353,2.084,2.166,1.209,5.281,2.127,7.261,3.436,3.715,2.456,7.109,9.018,8.475,13.061,1.931,5.715,1.829,12.011,1.731,17.964-.108,6.491-.116,12.887.282,19.37.3,4.837.316,9.271,3.437,13.219,1.48,1.872,5.34,2.384,7.271.938a86.513,86.513,0,0,1,20.4-11.2c7.242-2.73,14.767-4.512,21.833-7.729,3.1-1.412,6.077-3.106,9.215-4.435,3.963-1.679,8.259-2.524,12.406-3.619,8.015-2.116,16-4.358,23.894-6.9,14.306-4.611,27.157-12.384,41.71-16.193,7.745-2.028,15.161-4.923,22.764-7.391,7.169-2.326,15.264-.808,22.271-3.618,5.759-2.309,5.751-12.206-1.595-11.785q-1.223.063-2.443.15l4.191,7.381c-.009.048-1.979,2.492-2,2.471a3.36,3.36,0,0,1,.79-.248c.737.13,2.133-.486,2.9-.614,1.572-.265,3.161-.405,4.743-.6,7.7-.929,15.413-1.01,23.158-1.344,16.768-.721,33.6-1.537,50.388-1.418,15.967.113,32.887.309,48.247,5.04,7.3,2.248,14.528,4.307,21.221,8.068,6.594,3.706,12.89,7.928,19.827,11,7.881,3.486,16.325,5.561,24.146,9.161,3.939,1.813,7.532,4.264,11.629,5.74a85.934,85.934,0,0,0,12.738,3.192V70.211c1.576-.584-1.334-.195-2.116-.26-1.1-.092-2.2-.215-3.307-.313-4.318-.385-6.277,4.122-5.786,7.595.335,2.362,2.184,4.052,4.045,5.352.308.216,2.4,1.915,1.578.747-.673-.959-.119,2.591-.035,3.224.9,6.758,1.314,13.429,1.855,20.226,1.156,14.526,1.668,29.077,2.63,43.62.945,14.282,1.926,28.564,2.56,42.864.317,7.145.551,14.293.649,21.444.053,3.808.053,7.615.054,11.423,0,3,.662,6.678.163,9.63l7.381-4.19c-1.4-.568-2.923-2.4-4.184-3.305-1.805-1.3-3.654-2.563-5.525-3.764a65.456,65.456,0,0,0-12.526-5.8c-8.786-3.321-17.85-6.025-26.477-9.694-8.535-3.63-17.956-4.483-27.1-5.374-9.241-.9-18.5-2.863-27.669-4.339-9.03-1.453-17.988-3.1-27.149-3.575-10.308-.536-20.607-1.054-30.933-1.07-20.538-.033-41.755,1.067-61.881,5.375-22.314,4.776-45.077,8.254-66.686,15.789-3.918,1.366-6.327,6.884-2.648,10.028,5.788,4.948,15.094,1.653,21.776.435,9.332-1.7,18.435-.766,26.216-7.1,6.007-4.891-2.528-13.261-8.485-8.485-2.428,1.947-6.111,2.52-9,3.446a118.944,118.944,0,0,0-12.665,4.48c-3.389,1.527-6.363,3.658-9.918,4.826-4.38,1.44-8.729,2.593-12.884,4.65-8.143,4.031-14.837,9.656-23.689,12.311-9.924,2.975-20.164,4.927-30.209,7.447-8.68,2.178-17.128,4-24.641,8.9-3.066,2-7.153,2.034-10.669,3.021-4.442,1.247-8.776,2.726-13.3,3.682-9.628,2.034-19.367,2.206-29.135,3.095s-19.437,2.43-29.179,3.463c-10.85,1.149-22.385,2.473-33.279,1.862-10.874-.61-22.192-.935-32.942-2.735l3.586,2.758c.944,1.25-.774,3.332.579,1.891a5.37,5.37,0,0,0,.649-1.347,28.712,28.712,0,0,0,1.746-4.291c1.191-4.691.228-9.112-1.067-13.649-2.845-9.969-.306-20.805-1.108-30.992-.372-4.723-1.32-9.375-1.655-14.11-.348-4.915-.061-9.833-.861-14.711-.759-4.628-2.347-9.049-3.31-13.628-.866-4.114-.707-8.873-2.871-12.558-3.908-6.655-14.285-.623-10.362,6.057,1.156,1.968.948,5.841,1.366,8.1.629,3.393,1.651,6.669,2.487,10.013,1.734,6.94,1.183,14.018,1.937,21.1a147.839,147.839,0,0,1,1.172,20c-.181,6.883-.578,14.432.884,21.181.647,2.987,2.154,5.907,2,9.02-.1,1.984-1.349,3.368-2.2,5.693-1.958,5.351-.4,10.12,5.618,11.346,6.126,1.248,12.64,1.314,18.853,1.634,7.767.4,15.527,1.732,23.324,1.319,14.519-.767,28.982-2.323,43.4-4.171,13.9-1.782,28.049-1.688,41.815-4.408,6.241-1.233,12.159-3.508,18.348-4.9,2.908-.656,5.865-.853,8.543-2.289,2.906-1.559,4.921-3.681,8.17-4.625,14.481-4.207,29.308-7.012,43.81-11.1a74.9,74.9,0,0,0,20.244-9.266,71.9,71.9,0,0,1,8.734-5.107c3.451-1.57,7.179-2.281,10.731-3.564,6.294-2.271,11.8-5.8,18.229-7.872,6.038-1.947,12.168-3.443,17.2-7.478l-8.485-8.485c-4.563,3.717-12.829,2.683-18.319,3.56-3.11.5-6.193,1.151-9.3,1.672-.783.131-1.563.294-2.353.381-2.244.247-3.072-.673-1.05,1.056l-2.647,10.028c18.677-6.512,38.16-9.8,57.472-13.806a325.928,325.928,0,0,1,60.12-6.86c10.381-.207,20.765.071,31.133.59,4.578.229,9.18.386,13.749.764,4.661.386,9.084,1.882,13.716,2.439,8.741,1.052,17.494,2.4,26.168,3.969,9.13,1.656,18.482,1.586,27.457,4.185,4.673,1.353,8.949,3.752,13.619,5.157,5.06,1.522,9.853,3.27,14.771,5.193,4.779,1.869,9.382,3.493,13.7,6.335,3.925,2.584,7.5,6.03,11.849,7.8,2.8,1.137,6.886-1.259,7.381-4.19,1.1-6.523.3-13.727.252-20.346-.053-7.8-.277-15.6-.606-23.392-.644-15.277-1.7-30.531-2.708-45.787-1-15.156-1.846-30.33-2.758-45.486-.424-7.043-1.38-14.016-1.9-21.018-.19-2.569-.445-4.739-2.09-6.8a12.206,12.206,0,0,0-2.863-2.456c-2.3-1.541-1.068-1.33-.827.37l-5.786,7.595c2.644.235,6.043,1.1,8.613.144,5.023-1.862,6.346-10.337,0-11.571a81.145,81.145,0,0,1-11.917-2.895c-3.908-1.405-7.4-3.885-11.209-5.549-7.627-3.33-15.753-5.383-23.336-8.8-7.748-3.488-14.645-8.525-22.2-12.373-6.89-3.509-14.427-5.587-21.8-7.821-16.621-5.036-35.268-5.178-52.511-5.2-17.992-.021-35.972,1.065-53.949,1.635-7.37.234-14.638.706-21.951,1.644-4.738.609-12.578,1.383-13.675,7.288-.531,2.863.77,6.9,4.191,7.381a27.656,27.656,0,0,0,5.633.278l-1.6-11.786c-6.953,2.789-15.077,1.283-22.271,3.618-7.605,2.468-15.019,5.357-22.764,7.39a132.812,132.812,0,0,0-21.234,7.932,199.988,199.988,0,0,1-22.3,8.842c-7.9,2.5-15.9,4.708-23.917,6.805-8.121,2.124-15.01,5.417-22.642,8.779-6.913,3.046-14.379,4.616-21.375,7.459a95.963,95.963,0,0,0-20.856,11.474l7.271.938c1.593,2.016.3.8.343-.352.031-.787-.115-1.928-.155-2.588-.18-2.987-.412-5.973-.507-8.965-.2-6.3.334-12.6.087-18.9-.429-10.887-3.368-19.791-10.04-28.45-6.179-8.019-16.169-11.194-25.622-13.968-4.863-1.427-9.812-1.591-14.832-1.971-6.587-.5-13.093-.937-19.706-.8-23.649.474-47,4.076-70.342,7.5-10.745,1.578-20.526,5.38-30.939,8.078-11.33,2.935-23.368,6.04-35.065,7.05-14.048,1.213-27.974,2.356-42.088,2.53-6.827.084-13.715.388-20.539.2-5.957-.166-11.8-1.366-17.748-.5-4.368.639-5.873,7.3-2.647,10.029,10.7,9.045,22.468,16.53,34.266,24.1,6.072,3.895,11.683,7.071,18.574,9.271,3.631,1.159,6.994,2.932,10.528,4.347,1.213.486,3.528,1.969,4.8,1.844,1.379-.135.383-5.77-1.428-3.072-1.439,2.144-1.523,4.432-3.353,6.462-2.649,2.94-5.67,5.632-8.461,8.437a87.4,87.4,0,0,1-18.09,13.745c-6.754,4-13.828,7.174-20.791,10.762-5.937,3.06-12.533,4.485-17.843,8.649-1.922,1.508-2.328,5.3-.938,7.271,2.956,4.191,9.972,6.762,14.691,8.479,7.3,2.656,14.347,5.909,21.523,8.873,6.69,2.762,12.82,5.47,19.88,7.25a113.8,113.8,0,0,0,21.376,3.7c14.434.837,28.655,1.661,43.07.569,6.765-.512,13.555-.551,20.351-1,6.214-.412,12.673.666,17.837-3.4,6.064-4.773-2.48-13.213-8.485-8.486Z"/>
    </g>
    <text class="b" transform="translate(275.333 219.361) rotate(-13.117)">V</text>
    <text class="b" transform="translate(312.704 209.952) rotate(-18.166)">i</text>
    <text class="b" transform="translate(325.302 205.893) rotate(-20.114)">e</text>
    <text class="b" transform="translate(352.311 196.059) rotate(-21.441)">w</text>
    <text class="b" transform="translate(396.077 178.769) rotate(-22.077)"> </text>
    <text class="b" transform="translate(405.947 174.747) rotate(-22.38)">C</text>
    <text class="b" transform="matrix(0.959, -0.284, 0.284, 0.959, 439.432, 160.495)">a</text>
    <text class="b" transform="translate(471.13 151.322) rotate(-12.215)">s</text>
    <text class="b" transform="translate(493.721 146.277) rotate(-8.345)">e</text>
    <text class="b" transform="translate(523.852 142.14) rotate(-5.745)"> </text>
    <text class="b" transform="translate(534.151 140.824) rotate(-3.291)">S</text>
    <text class="b" transform="matrix(1, 0.014, -0.014, 1, 561.746, 139.327)">t</text>
    <text class="b" transform="matrix(0.995, 0.1, -0.1, 0.995, 579.661, 139.28)">u</text>
    <text class="b" transform="matrix(0.978, 0.211, -0.211, 0.978, 609.246, 142.123)">d</text>
    <text class="b" transform="translate(641.215 149.076) rotate(18.385)">y</text>
    <g>
      <path class="c" d="M548.5,21.8c-2.4.1-4.8.3-7.3.5q-6.3.45-12.6,1.2c-2,.2-4,.4-5.9.5-2.2.2-4.3.4-6.5.7-4.2.5-8.5,1-12.7,1.6-3.8.5-7.5,1.1-11.3,1.6-7.5.8-15,1.7-22.4,2.7-4.8.6-9.6,1.3-14.4,2.2-2.5.5-4.9,1-7.3,1.6-2.3.5-4.6,1.2-6.8,1.9-2.5.7-4.9,1.4-7.4,2.1-2.2.6-4.3,1.4-6.5,2.1-4.9,1.6-9.7,3.3-14.6,4.8-2.4.7-4.7,1.5-7.1,2.3s-4.8,1.4-7.2,2.1c-4.6,1.4-9.2,2.6-13.8,4-2.3.7-4.6,1.5-6.9,2.2-2.5.8-5,1.8-7.5,2.8-4.8,1.9-9.6,3.9-14.3,6-10.9,4.8-21.5,10.2-32.4,14.8q-7.05,2.7-14.1,5.1c-4.7,1.6-9.4,3.2-14.1,4.6-2.4.7-4.8,1.3-7.3,1.8s-5,1-7.4,1.5c-5.2,1.1-10.3,2.3-15.5,3.4-3,.7-6.1,1.4-9.1,2S250,99,247,99.4a116.8,116.8,0,0,1-18.7.3c-3.4-.2-6.7-.6-10.1-.9-3.2-.3-6.4-.5-9.5-.9h.2c-1.5-.2-3-.4-4.6-.6-2.5-.3-5.1-.7-7.7-.9-2.2-.2-4.5-.4-6.7-.6a16.279,16.279,0,0,0-3.1-.3,17.852,17.852,0,0,0-2.3.2,6.279,6.279,0,0,0-1.9.3,4.147,4.147,0,0,0-2.4,1.9,4.04,4.04,0,0,0,1.4,5.5h0a3.938,3.938,0,0,0,3,.4c.1,0,.1-.1.2-.1a1.268,1.268,0,0,0,.6-.1,8.1,8.1,0,0,1,2.2,0c2.2.3,4.5.5,6.7.7,2.3.2,4.5.5,6.8.7,1.9.3,3.7.5,5.6.7l-.4-.1c5,.6,10,1,15,1.4,2.5.2,5.1.5,7.6.6,2.4.2,4.9.2,7.4.2a93.8,93.8,0,0,0,15-1.1q7.5-1.2,15-3c4.7-1.1,9.5-2.2,14.3-3.2l7.5-1.5c2.4-.5,4.9-1,7.3-1.7,5-1.4,9.9-3.1,14.8-4.7s9.7-3.4,14.5-5.2c3.9-1.5,7.8-3.2,11.6-5,3.6-1.6,7.2-3.3,10.8-5,7.4-3.5,14.8-6.9,22.4-10,2-.8,3.9-1.6,5.9-2.4,2.4-.9,4.9-1.7,7.4-2.6,4.6-1.5,9.2-2.8,13.8-4.1,2.4-.7,4.7-1.4,7-2.1s4.7-1.4,7-2.1,4.6-1.4,6.9-2.2c2.4-.8,4.7-1.6,7.1-2.4l11.1-3.6c3.3-1,6.7-2,10.1-2.9,3.7-1,7.3-1.9,11.1-2.6,3.6-.7,7.1-1.3,10.7-1.8,3-.4,5.9-.8,8.9-1.2,2.7-.3,5.3-.6,8-.9,3.1-.4,6.3-.7,9.4-1.1L510.7,33c5-.6,10-1.1,15-1.6,2.3-.2,4.5-.5,6.8-.7,2.7-.3,5.3-.5,8-.7a139.4,139.4,0,0,1,14.5-.7c2.5,0,5,.1,7.5.2,2.4.1,4.8.5,7.2.7,2.9.2,5.8.5,8.6.8,3,.3,6,.7,9.1.9,5.5.4,11,.9,16.5,1.6,4.4.6,8.7,1.4,13.1,2.2,4.3.8,8.6,1.6,13,2.4,4.2.8,8.5,1.6,12.7,2.5l13.8,3a3.991,3.991,0,1,0,2.1-7.7c-5.1-1.1-10.1-2.2-15.2-3.3-4.4-1-8.9-1.7-13.3-2.5-4.9-.9-9.8-1.8-14.8-2.8s-10.1-1.7-15.1-2.2c-4.8-.5-9.7-.8-14.6-1.3s-9.8-1-14.8-1.4c-2.6-.2-5.1-.5-7.7-.8-2.3-.2-4.7-.3-7-.3H554a53.5,53.5,0,0,1-5.5.5Zm55.2,12.1.6.1ZM185.2,103.6H185C185.1,103.7,185.1,103.6,185.2,103.6Z"/>
      <path class="c" d="M180,100a3.8,3.8,0,0,0-2.4,1.9,3.938,3.938,0,0,0-.4,3c.4,2.2.8,4.3,1.2,6.5.4,2.1.9,4.1,1.3,6.1.3,1.8.6,3.6.9,5.3a22.912,22.912,0,0,0,.7,2.8c.3,1,.7,2,1.1,3.1.6,1.8,1.1,3.7,1.7,5.5.5,1.8,1.1,3.6,1.7,5.4.6,1.9,1.1,3.8,1.7,5.7a43.713,43.713,0,0,1,1.2,5.2c.2,1.9.3,3.8.4,5.7.1,2.1.1,4.2.2,6.3.2,4.1.3,8.2.4,12.3.1,4,.2,8.1.2,12.1,0,2.1.1,4.3,0,6.4-.1,1.9-.2,3.7-.3,5.6-.2,4.2-.5,8.5-.5,12.7,0,2.1.2,4.2.4,6.2.1,2,.3,4,.4,6,.1,4.1.1,8.1-.2,12.2-.1,2.1-.2,4.2-.1,6.4s.2,4.2.3,6.4c.1,3.3.1,6.7,0,10-.1,1.5-.3,3-.4,4.5-.2,1.6-.3,3.2-.5,4.9V268c-.2,1.6-.3,3.2-.4,4.8-.1,1.5.2,3,.1,4.5,0,.3-.1.6-.1.8a4.2,4.2,0,0,0,.7,2.4,4.014,4.014,0,0,0,7.4-2.9,1.268,1.268,0,0,1,.1-.6,6.15,6.15,0,0,0-.1-1.4c0-.7-.1-1.4-.1-2.1a34.013,34.013,0,0,1,.3-4.5c.2-1.9.4-3.8.6-5.8.1-.9.2-1.9.3-2.8a26.352,26.352,0,0,0,.2-2.8c.1-4.3.1-8.5-.2-12.8-.2-4.1,0-8.3.2-12.4.1-2.1.1-4.2.1-6.3,0-2-.2-4-.3-6.1-.1-2-.3-3.9-.4-5.9-.1-2.1-.1-4.2-.1-6.3.1-4.1.4-8.2.6-12.3.3-4.2.1-8.3.1-12.5,0-3.9-.1-7.9-.2-11.8-.1-4.2-.4-8.3-.5-12.5a63.005,63.005,0,0,0-1.3-13c-.9-3.8-2.1-7.5-3.3-11.2-.6-1.8-1.1-3.6-1.7-5.4-.3-1-.6-1.9-.9-2.9s-.7-1.9-1-2.9c-.9-3.2-1.2-6.5-1.8-9.8-.3-1.6-.7-3.3-1-4.9-.4-1.9-.7-3.8-1.1-5.8a4.052,4.052,0,0,0-3.9-3,8.317,8.317,0,0,1-1.3.2Z"/>
      <path class="c" d="M581.1,200.5c-2.2.1-4.4.2-6.6.4-5,.4-9.9.8-14.9,1.4-4.5.5-8.9.8-13.4,1.3-5,.6-10.1,1.2-15.1,1.7-4.6.5-9.3.8-13.9,1.4-5.1.6-10.2,1.5-15.2,2.6a133.389,133.389,0,0,0-14.1,3.9c-4.6,1.5-9.3,2.8-14,4.3-2.9.9-5.9,1.9-8.8,2.8-2.8.9-5.6,2-8.3,3-2.8,1.1-5.7,2.2-8.5,3.2-2.9,1.1-5.7,2.2-8.5,3.4-6.6,2.6-13.2,5-19.8,7.6-3.4,1.4-6.8,2.9-10.1,4.6-1.6.8-3.1,1.6-4.7,2.4-1.3.6-2.7,1.2-4,1.8-2.7,1.1-5.4,2.1-8.1,3.1-3.2,1.2-6.4,2.5-9.6,3.8-2,.8-4.1,1.6-6.1,2.5-2.2.9-4.4,1.6-6.6,2.4-4.6,1.6-9.2,3.1-13.9,4.5s-9.3,3-13.9,4.4c-4.4,1.3-8.9,2.6-13.3,3.8-2,.6-3.9,1.1-5.9,1.5-2.3.5-4.6.9-6.8,1.2-4,.7-7.9,1.8-11.9,2.5-3.9.7-7.8,1.2-11.7,1.8-2.1.3-4.1.7-6.2,1l-6.6.9c-1.2.1-2.3.3-3.5.5-3.2.4-6.3.7-9.5.8h-5.5c-1.5,0-3-.1-4.4,0-3.3,0-6.6.2-9.8.1a86.918,86.918,0,0,1-8.8-.7c-3.5-.5-7.1-1.1-10.6-1.5-1.7-.2-3.3-.3-5-.4s-3.3-.3-5-.5c-1.9-.2-3.7-.3-5.6-.4-1.5-.1-3.1-.1-4.6-.1-1.8,0-3.6.2-5.4.2-2,.1-3.9.2-5.9.2a4,4,0,0,0,0,8c2.9-.1,5.9-.2,8.8-.4a69.417,69.417,0,0,1,7.9.1c1.3.1,2.6.1,3.9.3,1.5.2,2.9.3,4.4.5,1.3.1,2.6.2,3.9.2l3.3.3c4.2.6,8.3,1.3,12.5,1.8a86.993,86.993,0,0,0,12.5.3,58.054,58.054,0,0,1,5.9,0c2.1,0,4.3.1,6.4.1a112.264,112.264,0,0,0,12.9-1.1c4.9-.6,9.7-1.3,14.5-2.1,4.3-.8,8.7-1.3,13.1-2.1,2.2-.4,4.3-.9,6.5-1.4s4.5-.9,6.8-1.3c2.4-.4,4.8-.9,7.2-1.4,2.2-.5,4.5-1.2,6.7-1.8,4.5-1.3,8.9-2.5,13.4-3.9,4.6-1.5,9.2-3,13.9-4.4s9.4-3,14-4.7c4.6-1.6,9.2-3.5,13.7-5.4l1.1-.5c2.5-1,5.1-2,7.6-3,3-1.1,6-2.2,8.9-3.5,2.8-1.2,5.4-2.6,8.1-4,2.4-1.2,4.9-2.3,7.4-3.4,3.8-1.5,7.7-2.9,11.6-4.4,4.3-1.6,8.5-3.3,12.8-5.1,4.3-1.7,8.6-3.2,12.8-4.9,2.4-.9,4.9-1.9,7.3-2.7,2.2-.8,4.5-1.4,6.7-2.2,4.7-1.5,9.4-2.9,14.1-4.4,2.3-.7,4.6-1.5,7-2.2,2.3-.7,4.5-1.2,6.8-1.8a140.118,140.118,0,0,1,15.7-3c4.5-.6,9.1-.9,13.7-1.3,4.8-.5,9.6-1.1,14.3-1.6,9.5-1.1,18.9-1.9,28.4-2.7,3.8-.3,7.7-.6,11.5-.8,4.1-.2,8.2,0,12.3.1,4.2.1,8.4.4,12.5.8,3.9.3,7.7.7,11.5,1.1,4.2.6,8.3,1.2,12.4,2.1,2,.4,4,.9,6,1.2,2.3.4,4.7.7,7,1,1.2.2,2.5.4,3.7.7a23.151,23.151,0,0,1,3.7,1.3c1.2.5,2.5.8,3.7,1.2,1.5.5,3,1.1,4.5,1.6a3.991,3.991,0,0,0,4.5-5.8h0a4.358,4.358,0,0,0-2.5-1.9c-1.6-.6-3.3-1.2-4.9-1.8-1.5-.5-3.1-1-4.6-1.5a42.1,42.1,0,0,0-10-1.9c-2.2-.4-4.4-.7-6.6-1.2-2.3-.5-4.6-1-7-1.4-4.8-.8-9.5-1.6-14.3-2s-9.6-.8-14.3-1.2c-4.9-.3-9.9-.4-14.8-.4h-.3c-2.3.2-4.4.4-6.4.5ZM439.5,230.1l-.7.3Z"/>
      <path class="c" d="M312.6,37.1a13.029,13.029,0,0,0-1.5,1c-1.1.8-2.3,1.5-3.4,2.4a17.394,17.394,0,0,1-1.8,1.1c-.8.5-1.6,1.1-2.4,1.6s-1.6.9-2.3,1.4a23.982,23.982,0,0,0-2.6,1.8,51.851,51.851,0,0,1-5,3.1c-1.9,1-3.8,2-5.7,2.9-1.7.8-3.5,1.6-5.2,2.3-1.8.8-3.6,1.5-5.4,2.3-3.6,1.5-7.2,3.2-10.9,4.7-4.4,1.9-8.7,3.8-13.1,5.7l-6,2.1c-1.8.6-3.7,1.1-5.5,1.6-3.9,1.1-7.7,2.3-11.5,3.7A92.063,92.063,0,0,1,219,78.3c-2,.5-4,.9-6,1.4-1.8.4-3.5.9-5.3,1.4-4.1,1.1-8.2,2-12.2,3.1a32.269,32.269,0,0,0-7.2,3c-2.3,1.1-4.5,2.3-6.8,3.4A3.954,3.954,0,0,0,180,96a4.064,4.064,0,0,0,2.5,1.9,3.938,3.938,0,0,0,3-.4c3.3-1.6,6.5-3.4,9.8-4.9,3.7-1.3,7.5-2.1,11.3-3.1,3.6-.9,7.1-1.9,10.7-2.7,2-.5,4-.9,6-1.4s4-1.2,6-1.9c3.8-1.3,7.5-2.6,11.3-3.8,1.8-.6,3.6-1.1,5.5-1.6a56.176,56.176,0,0,0,5.8-1.9c2.3-.8,4.5-1.6,6.7-2.6,1.9-.8,3.8-1.6,5.7-2.5,3.6-1.6,7.2-3.1,10.8-4.7,3.5-1.6,7-3,10.5-4.5,2.4-1,4.9-2.1,7.2-3.2,2.4-1.2,4.8-2.4,7.1-3.8,2.2-1.4,4.3-3,6.6-4.3a9.908,9.908,0,0,0,1.7-1.1,9.908,9.908,0,0,1,1.7-1.1c1-.6,2-1.3,3-2,.3-.2.5-.4.8-.6.2,1,.5,1.9.6,2.9.1,1.2.1,2.5.1,3.7,0,1.5.1,3,.1,4.4,0,1.3-.1,2.7-.1,4-.1,1.1-.1,2.2-.2,3.3a43.378,43.378,0,0,0-.8,5.2c-.1,1.8,0,3.7-.1,5.5a41.7,41.7,0,0,0,0,5c0,.7.2,1.3.2,2v1.4a12.31,12.31,0,0,0,.2,2v.6a4.3,4.3,0,0,0,1.1,2.8,4.075,4.075,0,0,0,5.7.1,4,4,0,0,0,1.2-2.9,18.1,18.1,0,0,0-.3-2.3V81.7a6.6,6.6,0,0,0-.1-1.4,19.042,19.042,0,0,1-.1-3.4c0-1.3.1-2.6.1-3.9,0-1.2,0-2.4.1-3.6.2-1.1.4-2.1.5-3.2a38.865,38.865,0,0,0,.4-4.9c.1-1.3.1-2.6.2-3.8a36.879,36.879,0,0,0-.1-4.7c-.1-1.5,0-3-.2-4.6a26.956,26.956,0,0,0-.4-2.8c-.1-.6-.3-1.2-.4-1.8a22.382,22.382,0,0,0-1-3.7,6.21,6.21,0,0,0-1.4-2.5,4.859,4.859,0,0,0-3.4-1.5h-.1a28.52,28.52,0,0,0-2.9,1.2Z"/>
      <path class="c" d="M249.5,16.6c-2.1,0-4.2,0-6.2.2-2.3.1-4.7.5-7,.8-4,.6-8,1.6-12,2.5-2,.4-4,.9-6.1,1.3-1.9.4-3.9.7-5.9,1.1-4.2.8-8.3,1.6-12.5,2.3-2.1.4-4.2.6-6.4,1-2,.3-4,.7-6,.9-4.2.6-8.3,1.2-12.5,2-4,.7-8,1.2-11.9,1.8-4.3.6-8.6,1.5-12.9,2.5l-6,1.5c-2,.5-4,1-6.1,1.5l-6,1.5c-2,.5-4.1.8-6.2,1.2-4.6.8-9.2,1.7-13.9,2.4-8.2,1-16.4,1.9-24.6,2.2-4.1.2-8.3-.1-12.4-.3-2-.1-4-.3-5.9-.3-2.2-.1-4.3-.1-6.5-.2-3.5-.1-7-.5-10.4-.7-3.2-.2-6.3-.5-9.5-.8A35.05,35.05,0,0,1,37,39.7c-1.8-.5-3.6-1.2-5.4-1.9-2-.9-3.9-1.8-5.9-2.7-1.1-.5-2.1-1.1-3.2-1.6-.6-.3-1.1-.6-1.7-.9a8.741,8.741,0,0,0-4.1-1.4,7.719,7.719,0,0,0-1.5.2,4,4,0,0,0-1.8,1,8.744,8.744,0,0,0-.8,1,4,4,0,0,0-.4,3.2,6.113,6.113,0,0,0,1.3,2.2,2.7,2.7,0,0,0,.8.7c.5.4.9.7,1.4,1.1.5.3.9.6,1.4.9,1.9,1.2,3.8,2.3,5.6,3.6,1.6,1.4,3.1,2.9,4.6,4.3,1.8,1.6,3.5,3.4,5.2,5.1.8.8,1.7,1.6,2.5,2.5l2.7,2.7a60.225,60.225,0,0,0,6.7,5.6,2.7,2.7,0,0,1-.8-.7c1.7,1.4,3.4,2.7,5.1,4.1,1.8,1.4,3.6,2.7,5.4,4.1,3.3,2.6,6.5,5.1,9.9,7.5a94.476,94.476,0,0,0,10.9,6.8c2,1,4.1,1.8,6.2,2.6,1,.4,2,.6,2.9.9s2,.6,2.9.8c2,.5,4,.9,6,1.4,1.4.4,2.7.8,4,1.3-.6.5-1.2,1.1-1.8,1.6-1.4,1.2-2.8,2.4-4.2,3.7-3,2.7-5.9,5.6-8.8,8.5-3,2.9-6.1,5.6-9.3,8.3-2.8,2.3-5.5,4.6-8.4,6.8-3.2,2.2-6.3,4.5-9.5,6.6a65.92,65.92,0,0,1-9.6,5.5c-2.4.9-4.8,1.6-7.3,2.4-1.4.4-2.7.9-4.1,1.3a23.393,23.393,0,0,1-3.8.9,67.587,67.587,0,0,1-9,.1c-1.5,0-3,0-4.6.1h-.7c-.6-.1-1.3-.3-1.9-.4a24.77,24.77,0,0,0-2.7-.3A4.909,4.909,0,0,0,7,141.6a4.4,4.4,0,0,0,.6,5,6.1,6.1,0,0,0,4.1,1.5,13.834,13.834,0,0,0,2.9-.1h.5c1,.2,1.9.5,2.9.8,1.8.5,3.6,1.2,5.4,1.9a.1.1,0,0,1,.1.1h.1l.6.3.3.1A103.2,103.2,0,0,1,35,156.5c3.8,2.1,7.6,4.2,11.3,6.4a108.98,108.98,0,0,0,10.6,5.8,113.649,113.649,0,0,0,12.7,4.7c4.9,1.4,9.8,2.8,14.8,4.2,2.3.7,4.7,1.3,7.1,1.8,2.8.6,5.5.9,8.3,1.3,2,.3,3.9.5,5.9.8-.3,0-.7-.1-1-.1,2.1.3,4.1.5,6.2.8,1.9.2,3.7.5,5.6.7,2.1.3,4.2.5,6.2.7a60.779,60.779,0,0,0,6.1.3c2.1,0,4.1-.2,6.2-.3s4.1-.3,6.2-.6c4.2-.5,8.4-.9,12.6-1,3.8-.1,7.7-.5,11.5-.9l4.5-.6c1.4-.2,2.7-.5,4.1-.7a14.159,14.159,0,0,0,2-.4,12.09,12.09,0,0,0,1.8-.5c1.5-.4,2.9-1,4.4-1.3a4.026,4.026,0,1,0-2-7.8H180c-2.5.6-4.8,1.6-7.3,2-1.2.2-2.5.5-3.7.7-1,.2-2,.3-3,.4-3.6.4-7.1.8-10.7.9-4.1.2-8.1.4-12.2.9-4.3.5-8.6.9-12.9,1.1a91.844,91.844,0,0,1-11.7-.7c-1.2-.2-2.5-.3-3.7-.5-2.5-.3-4.9-.6-7.4-.9-1.2-.2-2.4-.3-3.6-.5-2-.3-4.1-.5-6.1-.8q-4.35-.75-8.7-1.8c-3.1-.8-6.1-1.7-9.1-2.6a181.786,181.786,0,0,1-17.7-5.6c-1.7-.8-3.4-1.6-5-2.5-1.8-1-3.7-2.1-5.5-3.2-3.8-2.2-7.6-4.4-11.4-6.5l-6-3.3a49.937,49.937,0,0,0,5.1-1.6c2.1-.7,4.2-1.3,6.2-2a26.711,26.711,0,0,0,3.6-1.4c1-.4,1.9-.9,2.9-1.4a87.647,87.647,0,0,0,10.4-6.7c1.6-1.1,3.2-2.3,4.9-3.4,1.8-1.3,3.5-2.6,5.3-4,3.4-2.6,6.6-5.4,9.8-8.3s6.2-5.9,9.2-8.9c2.8-2.8,5.7-5.4,8.7-7.9.7-.6,1.5-1.3,2.2-1.9a16.951,16.951,0,0,0,2.4-2.2,7.151,7.151,0,0,0,1.8-3.3c0-.3.1-.7.1-1a5.853,5.853,0,0,0-.2-1.3,4.451,4.451,0,0,0-1.2-2.1,5.826,5.826,0,0,0-1.5-1.1l-.6-.3c-.5-.2-.9-.4-1.4-.6a46.181,46.181,0,0,0-6.2-2.3A54.5,54.5,0,0,0,90,83.8c-1.7-.4-3.4-.8-5-1.3-1.5-.5-3-1-4.5-1.6-6.7-3-12.8-7.5-18.6-12-2.8-2.2-5.6-4.3-8.4-6.4-2.2-1.7-4.4-3.5-6.6-5.3a2.7,2.7,0,0,1,.8.7c-1.2-1-2.5-2-3.6-3-1.2-1.1-2.3-2.3-3.4-3.4s-2.3-2.2-3.4-3.4l-.1-.1c.5.1.9.2,1.4.3q3.45.6,6.9.9c2.1.2,4.1.3,6.2.5,4,.3,8,.7,12,.8,8.4.2,16.7,1,25.1.7,4.3-.2,8.6-.5,13-1,4.3-.4,8.7-.9,13-1.6,4.2-.7,8.4-1.4,12.5-2.2,2.1-.4,4.2-.8,6.4-1.2,1.9-.4,3.9-.9,5.8-1.4a237.08,237.08,0,0,1,25-5.5c4-.6,8.1-1.2,12.1-1.8,2.1-.3,4.1-.7,6.2-1.1,2-.3,4.1-.6,6.1-.9s3.9-.6,5.9-.9c2.1-.3,4.2-.6,6.3-1,4.2-.7,8.3-1.5,12.5-2.3,2.2-.4,4.3-.7,6.5-1.2,2.3-.5,4.6-1,6.8-1.5s4.3-1,6.5-1.4,4.3-.8,6.5-1.1a115.359,115.359,0,0,1,13.1-.4c4.1.1,8.2.6,12.2,1.1,3.6.5,7.1,1,10.7,1.4,3.3.4,6.7.5,10,.8a73.884,73.884,0,0,1,12.5,3.2,24.371,24.371,0,0,1,2.8,1.4,36.173,36.173,0,0,1,3.2,2.2c2.5,1.8,4.8,3.7,7.3,5.5a3.542,3.542,0,0,0,3,.4,3.971,3.971,0,0,0,2.8-4.9h0c-.1-.3-.3-.6-.4-.9a4.306,4.306,0,0,0-1.5-1.5c-3.1-2.4-6.2-4.9-9.5-7.1a35.344,35.344,0,0,0-10.8-4.5,40.5,40.5,0,0,0-5-1.2c-2.1-.4-4.3-.7-6.5-.9-3.7-.3-7.4-.6-11.1-1-4-.5-8-1.1-12-1.6-3.7-.4-7.5-.6-11.2-.7.5.1.2.1,0,.2ZM15.8,38.8h0Zm97.1,2h0Z"/>
      <path class="c" d="M96.3,92.3c-.9.8-1.8,1.5-2.7,2.4.3-.2.5-.5.8-.7-.7.7-1.5,1.2-2.2,1.9L89.8,98c-1,.8-2,1.7-3,2.5-1.3,1.1-2.5,2.3-3.7,3.4-2.1,1.9-4.4,3.6-6.5,5.5.3-.2.5-.5.8-.7l-.6.6c-3.9,3.5-8.7,6-12.8,9.3-2.3,1.8-4.6,3.6-6.9,5.3-1,.7-2.1,1.4-3.1,2.1-1.2.7-2.3,1.5-3.5,2.2-.9.4-1.8.9-2.8,1.3-1.2.5-2.3,1.1-3.5,1.6a39.649,39.649,0,0,1-6.9,2.2c-1.4.3-2.8.5-4.3.8q-3,.45-6,.6l-5.4.3c-1.8.1-3.6.1-5.3.1a54.588,54.588,0,0,0-5.7.4,45.063,45.063,0,0,0-5.3.8,5.782,5.782,0,0,0-1.4.5,6.356,6.356,0,0,0-2.7,1.9,4.3,4.3,0,0,0-1,2.3,2.854,2.854,0,0,0,0,1.3,3.865,3.865,0,0,0,.8,2.1l.6.9a15.764,15.764,0,0,0,4.3,3.4l-.5-.3a43.086,43.086,0,0,0,4.7,2.6c1.6.7,3.3,1.5,4.9,2.3,3.2,1.8,6.6,3.3,9.9,4.8,3.5,1.6,7,3.2,10.5,4.7,1.8.8,3.6,1.6,5.5,2.3a27.729,27.729,0,0,0,2.6,1c1,.4,2,.8,2.9,1.2,1,.4,2.1.8,3.1,1.3.9.4,1.9.8,2.8,1.3,2.2,1,4.4,1.8,6.7,2.6l3.3,1.2c1.1.4,2.1.9,3.2,1.3,2.6,1,5.2,1.8,7.8,2.6l-.6-.2c1.9.6,3.8,1.1,5.8,1.6l4.8.9c1.8.3,3.6.5,5.4.8a47.677,47.677,0,0,1,5.1,1.3c1.7.5,3.4,1,5.1,1.4a31.172,31.172,0,0,0,5.2.8c1.7.2,3.4.3,5.2.4,2.3.2,4.5.2,6.8.3a7.569,7.569,0,0,1,1.5.1c2.1.2,4.1.4,6.2.4,1.7,0,3.3-.1,5-.1,1.6,0,3.2,0,4.8.1s3.2.1,4.7.1c3.8,0,7.6-.2,11.4-.2,1.1,0,2.1,0,3.2.1a45.584,45.584,0,0,0,6.4-.1c2.3-.2,4.7-.5,7-.9,2.9-.5,5.7-1.1,8.6-1.7l-.4.1a57.9,57.9,0,0,0,9.3-2.5c1.6-.6,3.3-1.2,4.9-1.8a46.306,46.306,0,0,0,5.8-3.1,4.024,4.024,0,0,0,1-5.6,3.8,3.8,0,0,0-2.5-1.6,3.942,3.942,0,0,0-3,.6c-.9.5-1.7,1-2.6,1.5-2.3,1-4.6,1.9-7,2.7-1.1.4-2.2.6-3.3,1a19.808,19.808,0,0,1-3.3.8c-.7.1-1.4.3-2.1.4-1.6.3-3.1.6-4.7.9s-3.3.6-4.9.8c-1.5.2-3.1.3-4.6.4-1.6.1-3.2,0-4.8,0-1.7,0-3.3-.1-5-.1-1.8,0-3.5.1-5.3.2-3.5.1-7,.1-10.5-.1-1.7,0-3.3-.1-5-.1s-3.5.1-5.2,0c-1.8-.1-3.5-.3-5.3-.4-1.7-.1-3.3-.1-5-.2-3-.2-5.9-.5-8.9-.9-1.5-.3-2.9-.6-4.3-1-1.5-.4-3-.9-4.6-1.4a36.315,36.315,0,0,0-4.5-1c-1.5-.3-3-.4-4.6-.7a65.381,65.381,0,0,1-9-2h.1c-.4-.1-.8-.3-1.2-.4-1.7-.6-3.4-1.1-5-1.7-1.8-.7-3.5-1.4-5.3-2.1-1.7-.6-3.5-1.2-5.2-1.9a49.965,49.965,0,0,1-4.8-2.1c-3.4-1.5-6.9-2.8-10.3-4.3-3.5-1.5-7-3.1-10.5-4.6-2-.9-4.1-1.8-6.1-2.8-2.1-.9-4.2-1.9-6.2-3-1.9-1-3.8-2.1-5.7-3-.8-.4-1.7-.7-2.5-1.1h0a53.345,53.345,0,0,1,5.6-.2c1.8-.1,3.6-.1,5.4-.2s3.7-.2,5.5-.3a55.416,55.416,0,0,0,5.7-.7c1.9-.3,3.8-.7,5.7-1.1a31.269,31.269,0,0,0,5.2-1.6c1.6-.6,3.2-1.4,4.8-2.1s3.1-1.4,4.6-2.2,2.9-1.8,4.3-2.7a85.021,85.021,0,0,0,7.7-5.7l3.6-2.7c1.3-1,2.7-1.8,4-2.7,1.2-.8,2.4-1.7,3.7-2.5a37.9,37.9,0,0,0,3.7-3.1l-.4.4.6-.6c1.3-1.2,2.8-2.2,4.1-3.4,1.6-1.3,3-2.7,4.5-4.1,3-2.6,6.2-5,9.1-7.7-.3.2-.5.5-.8.7,1-.9,2.2-1.7,3.1-2.6a3.967,3.967,0,0,0-.5-5.6,3.84,3.84,0,0,0-2.5-.9A5.209,5.209,0,0,0,96.3,92.3ZM76.5,109.2l-.6.6Zm6.4,5-.4.4Z"/>
      <path class="c" d="M19.9,144.1a3.967,3.967,0,0,0,.5,5.6,15.762,15.762,0,0,0,2.4,1.5,17.377,17.377,0,0,0,1.9,1c1.4.7,2.7,1.3,4.1,1.9,2.8,1.2,5.5,2.6,8.3,3.8s5.6,2.6,8.4,3.7c1.5.6,2.9,1.2,4.3,1.7,1.6.6,3.2,1.2,4.9,1.7,1.4.5,2.8,1,4.1,1.6,1.7.7,3.4,1.3,5.2,2,3.8,1.4,7.6,2.6,11.4,3.8,1.6.5,3.3.9,4.9,1.3,1.7.5,3.4.9,5.2,1.3q3,.75,6,1.2c1.7.3,3.3.6,5,.9,4.3.9,8.5,2,12.9,2.7,4.2.6,8.4,1.1,12.6,1.3h-.6c3.9.2,7.8.6,11.7.5,3.3,0,6.6-.1,10,0s6.9.2,10.4,0c1.7-.1,3.4-.3,5.1-.4,1.9-.2,3.8-.3,5.7-.6,2-.3,4.1-.6,6.1-1,2.4-.5,4.9-.9,7.3-1.4,1.9-.4,3.9-1,5.8-1.5a21.3,21.3,0,0,0,4.9-2.1,15.872,15.872,0,0,1,2-.7c1.1-.4,2.3-.8,3.4-1.2a3.986,3.986,0,0,0-2.7-7.5c-1.3.5-2.6.9-3.9,1.4-.4.2-.9.3-1.3.5a10.93,10.93,0,0,0-1.5.8,20.236,20.236,0,0,1-4.5,1.6c-1.9.5-3.7,1-5.6,1.4-3.2.7-6.5,1.3-9.8,1.7-3.6.5-7.2.8-10.8,1.1-1.7.1-3.4.1-5.2.1s-3.4,0-5.2-.1c-3.3-.1-6.7-.1-10,0-2,0-4,0-6-.1-1.9-.1-3.9-.3-5.8-.4l1,.1c-1.5-.1-3-.3-4.5-.4-1.7-.2-3.4-.3-5.1-.6-3.5-.5-7-1.2-10.5-2-1.6-.4-3.2-.7-4.7-1-1.7-.4-3.4-.6-5.1-.9-3.7-.7-7.4-1.6-11-2.6-1.3-.4-2.7-.7-4-1.1-1.1-.3-2.3-.7-3.4-1.1-3.1-1-6.1-2.1-9.1-3.2-1.6-.6-3.1-1.3-4.6-1.9s-3.2-1.1-4.7-1.6a36.46,36.46,0,0,1-3.5-1.4c-1.3-.5-2.6-1-3.9-1.6-2.7-1.1-5.3-2.4-7.9-3.6-2.6-1.1-5.1-2.5-7.7-3.6a61.6,61.6,0,0,1-6.8-3.4,3.916,3.916,0,0,0-2.6-.9,5.528,5.528,0,0,0-3.5,1.7Z"/>
      <path class="c" d="M259.9,10.3c-1.8,0-3.6.2-5.4.3-2.1.1-4.1.1-6.2.3-2.7.2-5.4.4-8.1.7-2.5.3-5,.6-7.6,1l-7.5.9c-2.9.4-5.8,1-8.7,1.6-6.3,1.3-12.7,2.1-19,3.4l1.1-.2c-1.2.2-2.4.5-3.6.7l-1.2.3a.367.367,0,0,0-.3.1,4.331,4.331,0,0,0-.5.1c-.1,0-.2.1-.3.1-.6.1-1.2.3-1.8.4-2.1.5-4.2.9-6.3,1.5-2,.5-4.1,1.1-6.1,1.5-.9.2-1.9.4-2.8.6-1.7.3-3.3.7-5,1l.5-.1c-2.2.5-4.4,1-6.7,1.5l-4.2.9,1-.2c-.9.2-1.8.4-2.6.6-2,.4-3.9.8-5.9,1.3-1.8.5-3.6.9-5.4,1.3-3.5.7-6.9,1.3-10.4,1.8-1.8.3-3.6.6-5.5.9s-3.6.7-5.4,1c-3.4.6-6.8,1-10.2,1.5-3.1.4-6.2.7-9.3,1-3.1.2-6.3.4-9.4.7-1.8.1-3.6.2-5.3.3a28.1,28.1,0,0,0-2.9.1c-1.1,0-2.2.2-3.3.2H79.8c-1.7,0-3.5.1-5.2.2-3.8.2-7.6.2-11.4.5-1.9.1-3.9.2-5.8.2-2.8-.2-5.7-.6-8.5-1-1.4-.2-2.8-.5-4.1-.8a27.436,27.436,0,0,1-3.9-.9l-4.2-1.5c-1.1-.3-2.1-.7-3.2-1-2.5-.9-4.8-2.1-7.3-3a28.257,28.257,0,0,0-5-1.3l-1.8-.3a15.062,15.062,0,0,0-3-.1c-2.3.3-4.7,1.6-5.6,3.8a7.058,7.058,0,0,0-.6,2.8,4.282,4.282,0,0,0,.6,2.2,18.989,18.989,0,0,0,2,3.7c.9,1.2,1.9,2.4,2.8,3.6a29.152,29.152,0,0,0,2.8,3.2c1,1,2,1.9,3,2.8,2.2,2.1,4.4,4,6.5,6.2,1.1,1.1,2.2,2.2,3.4,3.2l3.3,2.7c1.1.9,2.2,1.9,3.4,2.8,1.3.9,2.6,1.8,3.9,2.6,1.4.9,2.6,1.9,3.9,2.9,1.3,1.2,2.6,2.3,4,3.4a31.94,31.94,0,0,0,3.8,2.6c1.5,1,3,1.9,4.5,2.8,4,2.5,8.2,4.6,12.2,7,2.2,1.4,4.3,2.9,6.5,4.2a29.24,29.24,0,0,0,3.6,1.7c1.1.4,2.1.9,3.2,1.4,2.3.9,4.6,2,7,2.8a18.606,18.606,0,0,0,4.1.8,17.223,17.223,0,0,0,3.9-.4,4.209,4.209,0,0,0,2.8-1.4,3.967,3.967,0,0,0-.5-5.6h0a3.763,3.763,0,0,0-2.9-.9,18.588,18.588,0,0,1-3.3.4,15.985,15.985,0,0,1-2.1-.5c-2.3-.8-4.5-1.8-6.7-2.8-1.3-.6-2.6-1.1-3.9-1.6a27.061,27.061,0,0,1-3.7-2.1c-1.2-.8-2.5-1.7-3.7-2.5-1.5-.9-2.9-1.8-4.5-2.6-1.3-.7-2.6-1.5-4-2.2-1.4-.8-2.9-1.5-4.2-2.4-.8-.5-1.7-1.1-2.6-1.6a63.826,63.826,0,0,1-6.7-4.9c-1.2-1-2.2-2.1-3.4-3-1.3-1-2.6-1.8-3.9-2.7-.9-.6-1.8-1.3-2.7-2-1-.8-2-1.7-3-2.5-1.9-1.6-3.8-3.1-5.6-4.9s-3.7-3.6-5.5-5.3c-.9-.9-1.8-1.7-2.8-2.6-.7-.7-1.5-1.3-2.2-2-.4-.5-.8-.9-1.2-1.4a17.684,17.684,0,0,1-1.6-2.2c-.4-.5-.9-1.1-1.3-1.6.2,0,.5.1.7.1.8.2,1.7.4,2.5.6a15.385,15.385,0,0,1,1.9.8c.9.4,1.7.8,2.6,1.2l3,1.2L34,41.4l.4.1c2,.7,3.9,1.4,5.9,2A57.238,57.238,0,0,0,46,44.6c2.1.4,4.1.7,6.2.9,2.3.2,4.6.5,6.8.5,2,.1,4.1-.2,6.2-.3,1.9-.1,3.8-.2,5.7-.2,3.7-.1,7.3-.4,11-.3a54.212,54.212,0,0,0,5.7-.1c2-.1,4-.2,6-.2,3.3-.1,6.6-.5,9.8-.7,3.1-.2,6.3-.5,9.4-.8,3.2-.3,6.4-.8,9.7-1.3,2.8-.4,5.6-.9,8.3-1.4,3-.5,5.9-.9,8.9-1.4,2.9-.5,5.7-1,8.6-1.5,1.8-.4,3.6-.8,5.3-1.3,1.5-.4,2.9-.7,4.4-1,1.1-.2,2.2-.5,3.4-.7.7-.1,1.4-.3,2.1-.4,2.9-.6,5.7-1.3,8.6-1.9,1-.2,2-.4,2.9-.6,1.3-.3,2.6-.6,4-.8h.2l.5-.1h-.2c1.9-.4,3.8-.9,5.7-1.4,2-.5,4-.9,6-1.4.9-.2,1.8-.4,2.8-.6l.8-.2a3.553,3.553,0,0,0,1-.2h0l.6-.1,1.2-.3c.8-.2,1.5-.3,2.3-.5h-.1c6.3-1.2,12.6-2.1,18.9-3.4,3.3-.7,6.6-1.3,10-1.7,3.2-.4,6.5-.8,9.7-1.2,3.3-.4,6.7-.7,10.1-1,2.1-.1,4.1-.2,6.2-.3,1.8-.1,3.7-.2,5.5-.3H265c1.5,0,2.9,0,4.3.1,1.5.1,3,.3,4.5.5,1.7.2,3.3.6,5,.8a34.348,34.348,0,0,1,4.4.9c1.5.4,2.9.6,4.4,1,.9.3,1.8.7,2.7.9,1,.3,2,.6,3.1.9,1.9.5,3.7.9,5.6,1.5a23.505,23.505,0,0,1,3.9,1.9,41.919,41.919,0,0,1,3.3,2.6,32.165,32.165,0,0,0,3.6,2.4,1.38,1.38,0,0,0,.4.3c.6.7,1,1.6,1.6,2.3a25.336,25.336,0,0,1,1.8,2.7c.8,1.7,1.4,3.4,2.1,5.1a37.127,37.127,0,0,1,1.6,4.7,11.019,11.019,0,0,1,.2,1.8,27.411,27.411,0,0,0,.5,2.8c.4,1.9.6,3.8,1,5.6-.1-.3-.1-.7-.2-1.1a24.731,24.731,0,0,1,.5,3.8,15.038,15.038,0,0,1,0,3c-.1,1.4-.4,2.8-.6,4.1a30.954,30.954,0,0,0-.2,4.3c0,1.1.1,2.2.1,3.3a20.9,20.9,0,0,1-.1,2.5v.2h0a4.178,4.178,0,0,0-.2,3.1,2.384,2.384,0,0,0,.6,1.1c.2.3.5.5.7.8a4.11,4.11,0,0,0,4,.7,5.675,5.675,0,0,0,1.8-1.2c1-1,1-2.5,1-3.9.1-1.5.1-3,.1-4.5s-.1-3.1-.1-4.6c.2-2.2.7-4.4.7-6.7,0-1.2,0-2.4-.1-3.5a22.542,22.542,0,0,0-.6-3.6h0c-.4-1.8-.6-3.7-1-5.5l.1.6c-.2-1.1-.3-2.2-.4-3.3a20.692,20.692,0,0,0-1-4.3c-.8-2.2-1.6-4.4-2.4-6.5a41.113,41.113,0,0,0-2.1-4.2c-.6-1-1.4-2-2.1-3-.3-.4-.6-.9-.9-1.3a7.28,7.28,0,0,0-1.7-1.8,16.655,16.655,0,0,0-2.8-1.8c-1.4-1-2.7-2.2-4.1-3.1a27.666,27.666,0,0,0-5.6-3.1c-1.9-.7-3.8-1.2-5.7-1.7-1.6-.4-3.1-.8-4.7-1.3a41.071,41.071,0,0,0-4.6-1.5c-.8-.2-1.7-.3-2.5-.5s-1.7-.4-2.5-.6c-1.6-.3-3.3-.6-5-.9-1.8-.3-3.5-.5-5.3-.7-2.1-.1-4.3-.2-6.5-.2h-5.7ZM37.2,34l-.4-.1Zm-.6-.2.2.1-.6-.2.4.1Z"/>
      <path class="c" d="M310.5,32.5a4.29,4.29,0,0,0-2.3,2.1,2.092,2.092,0,0,1-.4.6,21.965,21.965,0,0,1-1.4,1.8c-1.1.9-2.3,1.7-3.5,2.5a56.363,56.363,0,0,1-5.3,3.1,9.292,9.292,0,0,1,1-.5c-2.5,1.3-5,2.7-7.5,4.1-2.4,1.4-4.8,2.6-7.2,4-2.3,1.3-4.5,2.7-6.8,4.1s-4.7,2.7-7.1,3.9a100.433,100.433,0,0,1-10.1,4.5c-3.5,1.4-6.9,3.1-10.5,4.5-3.6,1.5-7.3,2.8-10.9,4.1s-7.3,2.6-11,3.9c-3.5,1.2-6.9,2.4-10.3,3.7-1.7.6-3.3,1.2-5,1.7-1.9.6-3.8,1.1-5.7,1.7-3.5,1.1-6.9,2.3-10.3,3.5-.8.3-1.7.6-2.5.9-1,.3-2,.5-2.9.8a36.921,36.921,0,0,0-5.6,1.9,18.56,18.56,0,0,0-4.3,2.5c-.6.5-1.2,1-1.8,1.6-.3.3-.5.6-.8.9a17.394,17.394,0,0,0-1.1,1.8,3.552,3.552,0,0,0-.4.9,5.924,5.924,0,0,0-.6,3.2,10.548,10.548,0,0,0,.5,1.9,3.988,3.988,0,0,0,7.6-2.4c.1-.1.1-.2.2-.3a5.241,5.241,0,0,1,1-1.1,15.258,15.258,0,0,1,1.6-1.1c1.7-.7,3.4-1.3,5.1-1.9,1.9-.6,3.8-1,5.7-1.7,3.3-1.2,6.7-2.4,10.1-3.5,1.8-.6,3.7-1.1,5.5-1.7a55.177,55.177,0,0,0,5.3-1.8c3.5-1.2,6.9-2.5,10.4-3.7,7.2-2.6,14.5-5.1,21.7-7.9,1.8-.7,3.6-1.5,5.4-2.3,1.7-.8,3.5-1.5,5.3-2.3,1.9-.8,3.8-1.5,5.6-2.3,1.7-.7,3.3-1.6,4.9-2.4,1.5-.7,3-1.6,4.5-2.3,1.4-.7,2.8-1.4,4.1-2.2,2.4-1.4,4.6-2.9,7-4.2,2.4-1.4,4.9-2.7,7.3-4.1,2.3-1.3,4.6-2.6,7-3.9l-.6.3a79.786,79.786,0,0,0,8-4.7,21.584,21.584,0,0,0,3.3-2.7,20.183,20.183,0,0,0,3-4.2,4.178,4.178,0,0,0,.2-3.1,4.663,4.663,0,0,0-5.4-2.2Z"/>
      <path class="c" d="M180.6,91.7a3.582,3.582,0,0,0-1.1.4,6.809,6.809,0,0,0-2.1,1,12.7,12.7,0,0,0-1.2,1c-.4.4-.7.9-1.1,1.3a10.542,10.542,0,0,0-1.3,2.6,14.351,14.351,0,0,0-.8,4.6v1.5c0,.6-.1,1.1-.1,1.7-.1,1.3-.1,2.7-.1,4a56.9,56.9,0,0,0,.7,8.3c.1,1,.2,2,.4,3s.4,2.1.5,3.1v1c.2,1.7.4,3.3.7,5,.3,1.5.7,2.9.9,4.4.3,1.4.4,2.9.7,4.3.2,1.4.5,2.8.7,4.3.1,1.2.3,2.4.5,3.6.2,1.7.3,3.4.6,5,.3,1.7.7,3.4,1.1,5,.8,3.3,1.5,6.6,2,10,.2,1.3.3,2.6.5,3.9l-.1-1.1c.2,1.9.5,3.8.7,5.7,0,.3.1.6.1.9a1.268,1.268,0,0,0,.1.6v.4a.9.9,0,0,0,.1.5c0,.2.1.4.1.6a4.1,4.1,0,0,1,.1,1.1c.2,1.7.4,3.3.6,5a42.1,42.1,0,0,1,.4,5c.1,2,.2,4,.4,5.9.4,4,.5,7.9.8,11.9.3,3.9.3,7.8.4,11.6s.4,7.5.5,11.3c.1,3.5.1,7.1,0,10.6-.1,3.4-.5,6.8-.8,10.1-.2,1.7-.3,3.4-.5,5.2s-.4,3.4-.6,5.1c-.2,1.5-.2,2.9-.4,4.4s-.3,3-.5,4.4c0,.2-.1.4-.1.7a25.923,25.923,0,0,0-.4,4.8v2.4a16.682,16.682,0,0,0,.5,3.1,8.543,8.543,0,0,0,2.3,4.4,8.369,8.369,0,0,0,2.4,1.4c.3.1.5.1.8.2a20.024,20.024,0,0,0,2.4.4,26.956,26.956,0,0,0,2.8.4h.3c.2,0,.4.1.6.1a3.4,3.4,0,0,0,1,.1,4.08,4.08,0,0,0,4.1-3.9,5.374,5.374,0,0,0-.5-2.1,4.147,4.147,0,0,0-2.4-1.9l-2.1-.3c-1.2-.2-2.3-.4-3.5-.5-.2,0-.3-.1-.5-.1l-.3-1.2v-1.3a20.833,20.833,0,0,1,0-2.5,16.352,16.352,0,0,1,.2-2.2.9.9,0,0,1,.1-.5,3.083,3.083,0,0,0,.1-1c.1-.5.1-1.1.2-1.6.2-1.7.4-3.5.6-5.2.4-3.7.9-7.3,1.2-11l.6-5.7c.2-1.9.3-3.9.4-5.8.3-7.6-.2-15.2-.5-22.8-.2-3.9-.1-7.9-.4-11.8-.3-4-.4-7.9-.8-11.9-.2-2.1-.3-4.3-.4-6.4-.1-2.3-.4-4.6-.7-6.8-.2-1.6-.3-3.2-.6-4.8a2.2,2.2,0,0,0-.1-.8,1.7,1.7,0,0,0-.1-.7,3.583,3.583,0,0,0,.9-2.4c-.2-2.2-.3-4.4-.4-6.6a58.079,58.079,0,0,1,.1-5.9c.1-1.9.4-3.9.4-5.8,0-2.1,0-4.1-.1-6.2,0-1-.2-2-.3-3s-.2-2.1-.3-3.1c-.2-2-.3-3.9-.5-5.9q-.3-3.3-.9-6.6c-.4-1.9-.9-3.9-1.2-5.8-.2-1.2-.4-2.3-.5-3.5-.2-1.8-.3-3.7-.5-5.5-.2-1.9-.4-3.9-.5-5.8-.1-2-.2-3.9-.2-5.9a50.479,50.479,0,0,0,.1-5.5,15.17,15.17,0,0,0-.3-2.1,6.191,6.191,0,0,0-.7-1.9,4.5,4.5,0,0,0-2.6-2.1,2.953,2.953,0,0,0-1.3-.2,9.288,9.288,0,0,1-1.3.4Zm2.9,177.8v.3h0v-.3Zm10.8,18.2Z"/>
      <path class="c" d="M589.3,206.4c-1.4.1-2.7.1-4.1.1q-6.6-.15-13.2,0c-4.5.1-9,.3-13.5.5-2.3.1-4.7.2-7,.3-2.1.1-4.2.4-6.3.7-2.3.3-4.6.6-6.8.9-2.4.4-4.7.8-7,1.3-2.2.5-4.4,1-6.6,1.4s-4.4.7-6.6,1.1c-2.3.4-4.6.7-6.9,1.1s-4.5,1-6.8,1.5c-8.7,1.9-17.7,3.2-26,6.5-2,.8-4,1.7-6,2.5-2.1.9-4.1,1.7-6.2,2.6-3.8,1.6-7.6,2.9-11.3,4.7-1.8.8-3.6,1.6-5.5,2.3-.9.3-1.8.6-2.6.9-.9.3-1.8.7-2.8,1q-5.85,2.1-11.4,4.5a58.925,58.925,0,0,1-5.8,2.4c-1.8.7-3.7,1.4-5.5,2.2-4.1,1.8-8.3,3.3-12.5,4.9-2.1.8-4.3,1.5-6.5,2.4-2.3.9-4.6,1.7-6.9,2.5-2.2.7-4.3,1.5-6.4,2.3l-6,2.1c-4,1.5-8,3.2-12,4.7-2,.7-4,1.6-6,2.3-2.1.8-4.4,1.3-6.5,1.9-3.7,1-7.3,2.2-11,3.3-3.8,1-7.6,2.1-11.4,3.1-1.6.4-3.3.7-4.9,1.1s-3.1.9-4.6,1.4-3.1,1-4.6,1.5-3,.9-4.5,1.3c-2.5.6-5,1.1-7.5,1.7-2.8.6-5.7,1.2-8.5,1.6-2.7.4-5.4.9-8.2,1.2-1.4.1-2.8.2-4.1.2-1.7,0-3.3.1-5,.1h-3.4l-3.9.3c-2.5.3-5,.1-7.6.3-2.7.2-5.4.5-8.1.7s-5.5.3-8.2.3h-3.8c-1.2,0-2.5,0-3.7.1a19.419,19.419,0,0,1-2.4-.2c-1.1-.1-2.3-.3-3.4-.4-2.4-.3-4.8-.5-7.1-.9-3.8-.7-7.7-.7-11.6-1.2-1-.1-2-.3-3-.4-1.1-.1-2.2-.1-3.3-.1a41.126,41.126,0,0,1-6-.8c-1.1-.2-2.2-.5-3.3-.6-1-.2-2.1-.3-3.1-.4-1.1-.2-2.1-.4-3.2-.6-1.2-.2-2.5-.3-3.8-.4a4.17,4.17,0,0,0-3,.8,4.046,4.046,0,0,0,1.8,7.2c1.2.1,2.4.2,3.6.4a34.306,34.306,0,0,1,3.4.6c1,.2,2.1.3,3.1.4,1.2.2,2.4.4,3.6.7a30.688,30.688,0,0,0,6,.7c1.1,0,2.2.1,3.2.1,1.1.1,2.2.3,3.3.4,2,.2,4,.3,6,.4a37.227,37.227,0,0,1,5.7.8c2.4.4,4.9.6,7.3.9,1.1.1,2.3.3,3.4.4,1.3.1,2.7.1,4,.1,1.6,0,3.1-.1,4.7-.1h0c1.3,0,2.6,0,3.9.1,1.5,0,2.9-.1,4.4-.2,2.8-.1,5.5-.4,8.3-.6a66.084,66.084,0,0,1,7.7-.3c1.3,0,2.7-.2,4-.3s2.6-.2,3.9-.2a71.879,71.879,0,0,0,13.1-.6c4.2-.6,8.5-1.2,12.7-2.1,2.1-.5,4.2-.9,6.4-1.4s4.5-1,6.7-1.6c3.9-1.2,7.6-2.6,11.5-3.6,2.2-.5,4.4-1,6.6-1.6,2.1-.5,4.1-1.1,6.1-1.7,4.1-1.1,8.2-2.4,12.3-3.6,2.3-.7,4.6-1.2,6.8-1.9a58.869,58.869,0,0,0,7-2.6c2.1-.8,4.3-1.7,6.4-2.5,2.2-.9,4.4-1.8,6.6-2.6,2.1-.7,4.1-1.4,6.2-2.2s4.2-1.6,6.4-2.3c2.3-.7,4.5-1.6,6.8-2.4,2.2-.8,4.4-1.6,6.7-2.4,4.2-1.6,8.4-3,12.4-4.8,3.8-1.7,7.7-2.9,11.4-4.7a57.183,57.183,0,0,1,5.7-2.4c1.9-.7,3.8-1.5,5.8-2.2,1.8-.6,3.6-1.3,5.4-1.9.9-.3,1.7-.7,2.6-1l2.7-1.2c1.7-.8,3.5-1.6,5.2-2.3,2-.9,4.1-1.6,6.2-2.4,2-.9,4-1.6,6-2.5,2.1-.9,4.1-1.8,6.2-2.6a89.961,89.961,0,0,1,8.8-2.8c4.3-1,8.6-1.8,12.9-2.7,4.5-1,8.9-2.1,13.4-2.8s9-1.3,13.4-2.3a104.688,104.688,0,0,1,13.8-2.4c3.2-.4,6.4-.9,9.7-1.1,1.7-.1,3.3-.2,5-.2s3.4-.1,5-.2c3.4-.2,6.9-.3,10.3-.4,3-.1,6.1-.1,9.2-.1,2.1.1,4.3.1,6.4.1,1.7,0,3.3-.2,5-.2,1.6.1,3.3.3,4.9.4a56.2,56.2,0,0,0,5.8.2c4.2.1,8.5.4,12.7.7,4.3.3,8.6.9,12.8,1.5,2.1.3,4.1.5,6.2.9,2.2.4,4.4.9,6.6,1.3,1.8.4,3.7.7,5.5,1.1,2,.4,4,.9,6,1.3a45.426,45.426,0,0,0,5.1.9,12.5,12.5,0,0,1,1.9.3,8.331,8.331,0,0,1,1.5.4,21.981,21.981,0,0,1,3.9,1.7,3.9,3.9,0,0,0,3,0,3.987,3.987,0,0,0,2.3-5.2h0a3.962,3.962,0,0,0-2.2-2.2c-.5-.3-1.1-.5-1.6-.8a29.682,29.682,0,0,0-4.5-1.5c-.9-.2-1.7-.4-2.5-.5-4.2-.6-8.4-1.4-12.5-2.4-1.8-.4-3.7-.7-5.5-1.1-2.2-.4-4.4-.9-6.7-1.4-2-.4-4-.5-6.1-.8-2.2-.3-4.3-.6-6.5-.9-3.7-.5-7.5-.6-11.2-.8-1.9-.1-3.8-.2-5.8-.3-1.7-.1-3.3-.1-5-.1-2.9-.2-5.7-.6-8.6-.6h-.2a22.332,22.332,0,0,0-4.5,0ZM253.5,286.1h0Zm-3.3,7.9h0Z"/>
      <path class="c" d="M533,23.9c-2.4,0-4.7.2-7.1.4-2.3.1-4.5.4-6.7.7-2.4.3-4.9.7-7.3,1q-7.35.75-14.7,2.1c-1.8.3-3.5.7-5.2,1.1l.3-.1-.4.1h0l-6.6,1.5c-2.5.5-5,1.1-7.5,1.6s-5,.8-7.6,1.2c-2.4.4-4.8,1-7.1,1.6a74.038,74.038,0,0,0-8.1,2.1l-7.2,2.1c-2.4.7-4.8,1.3-7.2,2.1l-3.3,1.2c-1.1.4-2.3.8-3.4,1.1-2.4.8-4.8,1.5-7.1,2.4-2.1.8-4.2,1.5-6.4,2.3s-4.3,1.5-6.5,2.3c-2.2.9-4.4,1.8-6.7,2.6-4.9,1.7-9.7,3.6-14.6,5.2a57.2,57.2,0,0,0-6.8,2.8c-1.1.5-2.2.9-3.3,1.4l-3.3,1.5c-1,.4-2.1.9-3.1,1.4-1.3.5-2.6.9-3.9,1.4-2.4.8-4.6,1.8-6.9,2.8-1.1.5-2.2.8-3.3,1.2-1.2.4-2.4.9-3.6,1.3-2.4.8-4.8,1.8-7.1,2.8-2.2,1-4.3,2.1-6.6,2.9-2.2.8-4.4,1.6-6.7,2.4-1.1.4-2.3.8-3.4,1.3s-2.3,1-3.4,1.5c-2.2.9-4.5,1.8-6.7,2.7-4.9,2-9.8,4.1-14.8,5.8-2.9,1-5.8,1.8-8.6,2.8s-5.7,1.9-8.6,2.7L284.7,99c-3.2.8-6.4,1.7-9.6,2.5-3,.7-6.1,1.2-9.2,1.8-3,.5-6.1,1.2-9.1,1.6s-6.1.9-9.2,1.1c-2.8.2-5.6.2-8.3.2-1.4,0-2.8-.1-4.3-.1-3.3-.1-6.5-.3-9.8-.4-3.2-.1-6.3-.6-9.4-.8a34.077,34.077,0,0,1-4.6-.5,36.315,36.315,0,0,1-4.5-1c-2.8-.7-5.7-.7-8.5-1.4l-4.5-1.5c-1.3-.4-2.6-.8-3.9-1.1a30.054,30.054,0,0,1-3.2-.7c-1.8-.5-3.6-1.1-5.4-1.6-.3-.1-.7-.2-1-.3a3.966,3.966,0,0,0-4.5,3.4,4.421,4.421,0,0,0,.2,2,3.962,3.962,0,0,0,2.2,2.2c1.9.6,3.8,1.2,5.7,1.7,2.2.6,4.4,1,6.5,1.5,1.6.5,3.1,1.1,4.7,1.5a22.509,22.509,0,0,0,3.5.9,26.956,26.956,0,0,0,2.8.4,40.136,40.136,0,0,1,5,.9,34.53,34.53,0,0,0,5.6,1c1.7.2,3.4.3,5.1.4,2,.2,3.9.4,5.9.5,4.1.2,8.2.4,12.4.5,2,0,4.1.1,6.1.1,1.9,0,3.9,0,5.8-.1,4.1-.3,8.2-.8,12.2-1.5,2-.3,4.1-.8,6.1-1.1l6.6-1.2c4.7-.8,9.2-2.2,13.8-3.3s9.3-2.1,13.8-3.5c2.4-.8,4.9-1.7,7.3-2.4,2.5-.8,4.9-1.6,7.4-2.4,4.1-1.5,8.1-3.1,12.1-4.8,2.1-.9,4.3-1.8,6.4-2.6,2.3-.9,4.6-2,6.9-2.9,2.3-.8,4.6-1.6,6.8-2.4q3.15-1.2,6.3-2.7a60.654,60.654,0,0,1,7-2.9c2.4-.8,4.8-1.7,7.1-2.5s4.5-1.9,6.8-2.8c1.2-.4,2.4-.8,3.5-1.2s2.3-.9,3.5-1.4c2.2-1,4.4-2,6.6-2.9,2.3-1,4.4-2,6.7-2.8,2.4-.9,4.8-1.6,7.2-2.5s4.8-1.8,7.2-2.6,4.7-1.7,7.1-2.7c2.1-.8,4.2-1.6,6.4-2.3,4.5-1.6,8.9-3.3,13.3-4.7,2.3-.7,4.6-1.5,6.9-2.3,2.4-.8,4.8-1.5,7.2-2.2,2-.5,3.9-1.1,5.9-1.6,1.9-.6,3.8-1.1,5.8-1.6,2.5-.6,5-1.2,7.4-1.7,2.9-.6,5.9-1,8.8-1.5s5.8-1.2,8.7-1.9c2.7-.6,5.3-1.2,8-1.8,1.8-.4,3.6-.7,5.4-1,1.9-.3,3.8-.7,5.7-1s3.7-.5,5.6-.7,3.7-.4,5.6-.6c3.5-.5,7-1,10.5-1.2l5.4-.3a45.1,45.1,0,0,1,5.2,0c3,.1,6,.4,8.9.5q4.95.3,9.9.3c3.1,0,6.2-.1,9.2-.3s6-.4,9-.4c2.3.2,4.6.5,6.8.9,2.3.4,4.6.7,6.9,1,4.7.6,9.5,1.3,14.2,1.9,2.4.3,4.8.6,7.2.8,2.2.2,4.4.3,6.6.6a143.2,143.2,0,0,1,14.4,2.2c.9.2,1.8.5,2.8.7-.3-.1-.7-.2-1-.3.9.2,1.8.5,2.7.7,2.7.8,5.4,1.6,8.1,2.2,2.4.6,4.8,1,7.3,1.5,2.6.5,5.2,1.1,7.9,1.6,2.1.4,4.2.8,6.3,1.3.1,0,.1,0,.2.1h0a3.448,3.448,0,0,0,2.9.8,3.891,3.891,0,0,0,3.5-4.4h0l-.2-1a3.708,3.708,0,0,0-1.3-1.7,6,6,0,0,0-2.5-1.3,26.808,26.808,0,0,0-2.7-.7c-1-.2-1.9-.4-2.9-.6-2.5-.4-4.9-.9-7.4-1.4-2.4-.5-4.7-.9-7.1-1.4s-4.7-1.1-7-1.7c-1.3-.4-2.7-.8-4-1.2-2.3-.6-4.6-1.3-6.9-1.7-2.4-.5-4.9-.8-7.3-1.2-4.6-.7-9.3-.8-14-1.4-4.6-.5-9.2-1.2-13.8-1.8-4.8-.6-9.7-1.3-14.5-2a40.062,40.062,0,0,0-6.9-.5,58.279,58.279,0,0,0-5.9.3c-4.2.3-8.4.5-12.6.4-2.1-.1-4.2-.1-6.3-.3-1-.1-2.1-.1-3.2-.2-1.3-.1-2.5-.2-3.8-.3-2.1-.1-4.3-.2-6.4-.2a6.622,6.622,0,0,0-1.5-.1Z"/>
      <path class="c" d="M535.7,15c-1.9.1-3.7.1-5.6.2-2,.1-3.9.3-5.9.5-1.8.2-3.6.4-5.4.5-1.7.1-3.4.4-5.1.6-3.6.5-7.3,1.1-10.9,1.8-2,.4-4.1.7-6.1,1.1-2.1.4-4.2.8-6.4,1.2s-4.4.8-6.6,1.3c-2.3.5-4.5,1.1-6.8,1.7-3.6.8-7.3,1.4-11,2.2-4.1.9-8.2,2-12.2,3.3-3.7,1.2-7.5,2.4-11.3,3.5s-7.6,2.2-11.4,3.6c-3.9,1.4-7.7,2.9-11.6,4.3-3.6,1.3-7.3,2.6-10.8,4.1s-7.1,2.9-10.6,4.3c-3.7,1.4-7.5,2.8-11.2,4.2-1.7.7-3.5,1.3-5.2,2-1.9.8-3.8,1.6-5.7,2.5-3.7,1.8-7.4,3.6-11.2,5.3-3.4,1.5-6.9,2.7-10.3,4.2-3.6,1.7-7.2,3.5-10.8,5.3-2.9,1.5-5.9,2.8-8.7,4.4l-.9.5a4.013,4.013,0,0,0-1.3,1.6,3.929,3.929,0,0,0,2.1,5.2h0a3.9,3.9,0,0,0,3,0c3.7-2,7.5-3.8,11.2-5.7,3.6-1.8,7.2-3.6,10.9-5.2,3.5-1.4,6.9-2.7,10.3-4.3,1.8-.8,3.6-1.7,5.4-2.6s3.7-1.8,5.6-2.6c3.6-1.5,7.3-2.9,11-4.3,3.8-1.5,7.6-2.8,11.4-4.3,3.5-1.4,6.9-2.8,10.3-4.2,3.6-1.4,7.3-2.7,11-4,3.3-1.2,6.7-2.5,10-3.7,3.2-1.2,6.5-2.1,9.8-3s6.6-1.9,9.8-3c1.6-.5,3.2-1.1,4.9-1.5,1.6-.5,3.2-.9,4.8-1.3,2.8-.6,5.5-1.2,8.3-1.7,3.5-.6,6.8-1.4,10.2-2.3l-1,.2c1.9-.5,3.8-.9,5.7-1.3,2-.4,4-.7,6-1,1.9-.3,3.9-.8,5.8-1.1,1.8-.3,3.5-.6,5.3-.9,3.6-.7,7.3-1.2,10.9-1.7l5.1-.6c1.8-.1,3.7-.4,5.5-.6q4.8-.45,9.6-.6c3.3,0,6.5-.2,9.8-.2,1.2,0,2.4.1,3.5.1,2.1,0,4.2.1,6.3.1h-1c4,.1,8,.4,12.1.7,1.9.1,3.8.2,5.7.4s3.9.4,5.8.7c2,.2,4.1.4,6.1.7,1.8.2,3.6.5,5.5.8,3.9.6,7.7,1.3,11.5,2,2.3.5,4.7.9,7,1.4,2.1.5,4.3.9,6.4,1.4,2,.4,4.1.7,6.1,1.1,2.3.4,4.5,1,6.8,1.6,1.7.5,3.4,1,5.2,1.4,1.5.4,2.9.7,4.4,1,2.5.8,5,1.5,7.4,2.2v.6a4.1,4.1,0,0,0,1.5,2.7,4.283,4.283,0,0,0,2.9.8h2.5c1.1,0,2.3.1,3.4.2,1.3.2,2.7.6,4,.9s2.6.4,3.9.7c1,.2,2.1.5,3.1.8,1.2.3,2.3.7,3.5,1.1a10.092,10.092,0,0,1,1.5.7,4.424,4.424,0,0,0,1.5.5,3.881,3.881,0,0,0,3.1-.8,4.243,4.243,0,0,0,.8-5.8l-.1-.1a8.789,8.789,0,0,0-3.6-2.4c-1.4-.5-2.8-.9-4.2-1.3-2.5-.7-4.9-1.6-7.4-2.4-3.1-1-6.4-1.7-9.6-2.6-3.1-.9-6.2-1.7-9.2-2.7-3.8-1.2-7.7-2-11.5-3-4-1.1-8.1-2-12.2-2.7-3.7-.6-7.3-1.6-11-2.3-2-.4-4.1-.8-6.1-1.1-1.8-.3-3.6-.7-5.5-1-3.8-.6-7.7-1.3-11.5-1.7-5.2-.6-10.4-1.3-15.6-1.5-2.6-.1-5.1-.4-7.7-.5-2.7-.2-5.5-.2-8.2-.3-1.6,0-3.2-.1-4.7-.1h-4.3a50.482,50.482,0,0,0-7.8-.2Zm12.7,7.8h0Zm0-7.9h0Z"/>
      <path class="c" d="M503.1,22.2q-3.9.9-7.8,2.1a60.011,60.011,0,0,0-6.8,3.2,4.02,4.02,0,0,0-.1,7.4h0a3.9,3.9,0,0,0,3,0c1.8-.9,3.6-1.8,5.4-2.6a42.726,42.726,0,0,1,5.4-1.8c2-.5,4-1,6-1.4,2.5-.4,5-.8,7.6-1.2a118.51,118.51,0,0,1,13.3-.7c3.9.2,7.9.5,11.8.7,3.9.3,7.8.4,11.7.9a4.039,4.039,0,0,0,4.5-3.5,3.924,3.924,0,0,0-3.3-4.4c-4.2-.5-8.5-.6-12.7-.9-4.5-.3-8.9-.7-13.4-.7h-1a103.023,103.023,0,0,0-23.6,2.9Z"/>
      <path class="c" d="M723.6,61.3a12.81,12.81,0,0,0-2-1.1,22.56,22.56,0,0,1-2.2-1.1,12.735,12.735,0,0,1-1.9-1.3,38.447,38.447,0,0,0-5.3-2.8c-1.7-.8-3.4-1.7-5.1-2.6-1.5-.8-3-1.7-4.6-2.5-1.5-.7-3-1.5-4.5-2.3s-2.9-1.5-4.4-2.3-3-1.6-4.5-2.3a102.357,102.357,0,0,0-10.8-4.5c-3.2-1.1-6.3-2.5-9.5-3.5-1.5-.4-3.1-.7-4.6-1.1a35.326,35.326,0,0,1-4.6-1.5,25.424,25.424,0,0,0-4.5-1.3c-2.1-.4-4.2-.9-6.2-1.4a3.4,3.4,0,0,0-1-.1,3.96,3.96,0,0,0-1.1,7.8l5.1,1.2c1.4.3,2.8.6,4.1,1,1.2.4,2.3.9,3.4,1.3a26.192,26.192,0,0,0,4,1.1c1.3.3,2.6.6,3.8,1s2.5.9,3.7,1.4c1.3.5,2.7,1.1,4.1,1.6,1.5.6,3.1,1,4.6,1.6,2.9,1.2,5.8,2.6,8.6,4.1,3,1.6,5.9,3.1,8.9,4.6,3.1,1.6,6.2,3.3,9.3,4.9.9.5,1.9.9,2.8,1.3l3,1.5a32.575,32.575,0,0,0,4,2.4c1.1.5,2.1,1,3.2,1.6a4.349,4.349,0,0,0,.7.6,3.6,3.6,0,0,0,1.2.8,4.069,4.069,0,0,0,2.4.8Z"/>
      <path class="c" d="M723.6,62.3a18.723,18.723,0,0,0-2-2.9,22.68,22.68,0,0,0-4.4-3.8A55.69,55.69,0,0,0,707,50.1c-3.7-1.7-7.5-3.4-11.1-5.3-1.9-1-3.7-2-5.6-3.1-1.6-.9-3.1-1.8-4.7-2.7a48.717,48.717,0,0,0-5.7-2.4c-1.5-.5-3-.9-4.6-1.4l-4.8-1.5c-1.6-.4-3.2-.7-4.8-1.1a91.529,91.529,0,0,1-10.5-3.3c-3.3-1.1-6.6-1.9-9.9-2.8A18.815,18.815,0,0,0,642,26l-3-.3a50.666,50.666,0,0,1-5.6-.5c-3.6-.4-7.2-.7-10.8-1.1-3.6-.5-7.3-.9-10.9-1.3-3.9-.4-7.7-.6-11.6-.7-1.8-.1-3.7-.2-5.5-.2-.9,0-1.7-.1-2.6-.1h-1.8a4.4,4.4,0,0,0-1.6.2,4.053,4.053,0,0,0-3,3.8,4.552,4.552,0,0,0,.5,2,4.147,4.147,0,0,0,2.4,1.9c.3.1.6.1.9.2a8.752,8.752,0,0,0,1.6.2c.5,0,.9.1,1.4.1a30.992,30.992,0,0,1,5.1,1.1l6,1.8c3.9,1.2,7.8,2.3,11.7,3.4s7.8,2,11.7,3.1c1.9.5,3.8,1.1,5.7,1.7s3.9,1.4,5.8,2.1c6.3,2.3,12.9,3.6,19.4,5.5,3.1.9,6.2,2.2,9.2,3.4,3.1,1.3,6.3,2.4,9.4,3.7l-.2-.1c1.3.5,2.5,1,3.8,1.5,1.8.8,3.5,1.6,5.3,2.4,2,.9,4,1.6,5.9,2.4a88.8,88.8,0,0,1,10.6,5.5c1.6.9,3.1,1.9,4.7,2.9s3.3,1.9,5,2.8,3.5,1.7,5.2,2.7,3.4,1.9,5,3c.6.4,1.1.7,1.7,1.1ZM651.2,39c-1.8-.5-3.5-.9-5.2-1.5-2-.6-4-1.3-6-2-1.9-.7-3.7-1.4-5.6-2a1.854,1.854,0,0,0-.7-.2c2.7.3,5.5.4,8.2.7a31.451,31.451,0,0,1,4.4,1.1c1.6.4,3.2.8,4.8,1.3l.9.3a2.855,2.855,0,0,0-.8,2.3Z"/>
      <path class="c" d="M713.7,249l3.259,2.241a47.521,47.521,0,0,0,6.416-.846L723.6,235c-.3-.2-.6-.3-.9-.5-3.4-1.9-6.6-4-10.1-5.8s-6.9-3.4-10.4-5.1c-3.7-1.8-7.5-3.4-11.4-4.9-3.8-1.5-7.7-2.7-11.5-3.9-1.8-.5-3.6-1-5.4-1.6-1.7-.6-3.5-1.2-5.3-1.8a49.177,49.177,0,0,0-5.5-1.4c-1.7-.4-3.3-.7-5-1-2.2-.5-4.5-1-6.8-1.3-.3,0-.7-.1-1-.1-1.2-.3-2.4-.7-3.6-1-2-.5-4-1.1-6-1.5-1.2-.3-2.4-.4-3.6-.6a20.921,20.921,0,0,0-2.6-.2h-.3a10.626,10.626,0,0,0-2.5.3,4.453,4.453,0,0,0-3.1,3,3.75,3.75,0,0,0,0,2.1,5.648,5.648,0,0,0,1.1,2,5.24,5.24,0,0,0,2.5,1.4,8.331,8.331,0,0,1,1.5.4c.7.2,1.4.5,2.1.7,3.5,1.1,6.9,2.5,10.3,3.9l-.9-.4c1.8.7,3.6,1.5,5.4,2.1a95.936,95.936,0,0,0,10.5,4.2c1.9.6,3.7,1.2,5.6,1.7,1.6.4,3.2.9,4.7,1.4.2.1.5.2.7.3,3.4,1.6,6.7,3.2,10,5.1,3.5,1.9,6.9,3.9,10.5,5.6s7.4,3.3,11,5.1c1.8.9,3.5,1.8,5.2,2.7A50.423,50.423,0,0,1,713.7,249Z"/>
      <path class="c" d="M672.7,227.4l.4.2Z"/>
      <path class="c" d="M193,247.2a1.244,1.244,0,0,0,1.1,1.4c1.4.1,2.8.1,4.1.3l1.8.3c.6.1,1.3.3,1.9.4,2.6.5,5.1,1.2,7.7,1.6.6.1,1.2.1,1.8.2.7.1,1.4.1,2.1.2a1.259,1.259,0,1,0,.3-2.5c-.7-.1-1.4-.1-2.1-.2-.6-.1-1.3-.1-1.9-.2-1.3-.2-2.5-.5-3.8-.7-1.3-.3-2.6-.6-3.8-.9-.6-.1-1.3-.3-1.9-.4l-1.8-.3c-1.3-.2-2.7-.2-4-.3h-.1a1.266,1.266,0,0,0-1.4,1.1Z"/>
      <path class="c" d="M192.6,251.9a1.217,1.217,0,0,0,.7,1.6,31.208,31.208,0,0,0,3.9,1.5,25.749,25.749,0,0,0,4,.8c1.3.2,2.5.3,3.8.5s2.7.3,4,.4c2.4.3,4.9.6,7.3.9a28.154,28.154,0,0,0,4.1.2c1.3,0,2.6-.1,3.9-.1H226c1.7,0,3.3-.1,5-.1a6.15,6.15,0,0,1,1.4.1,1.189,1.189,0,0,0,1.5-.7,1.7,1.7,0,0,0,0-1,1.575,1.575,0,0,0-.7-.7c-.3-.1-.6-.1-.9-.2h-3.1c-1,0-2,.1-3,.1h-3.8c-1.2,0-2.3.1-3.5.1a12.751,12.751,0,0,1-1.9-.1c-.7-.1-1.2-.1-1.8-.2-1.3-.2-2.6-.3-3.8-.5-2.5-.3-5.1-.6-7.6-.9a25.351,25.351,0,0,1-2.9-.4,27.411,27.411,0,0,1-2.8-.5,29.038,29.038,0,0,1-4.1-1.6.749.749,0,0,0-.5-.1,2.581,2.581,0,0,0-.9.9Z"/>
      <path class="c" d="M193.7,260.3a1.319,1.319,0,0,0,.6,2.3h2.1a14.919,14.919,0,0,1,2.1.2c1.3.1,2.7.3,4,.4,1.2.1,2.5.2,3.7.3.6,0,1.2.1,1.8.1a11.019,11.019,0,0,1,1.8.2c2.6.3,5.3.4,7.9.6,1.3.1,2.5.1,3.8.2,1.4,0,2.8,0,4.2-.1,1.5-.1,3.1,0,4.6-.1,1.4,0,2.8-.1,4.2-.1,1.7,0,3.5-.1,5.2-.1h.5a1.259,1.259,0,0,0,.3-2.5,26.152,26.152,0,0,0-2.8,0c-.9,0-1.8.1-2.6.1-2.2,0-4.5.1-6.7.1s-4.4.1-6.6.1c-2.5,0-5.1-.2-7.6-.4s-5-.5-7.5-.7c-1.9-.1-3.8-.3-5.7-.5l-3.3-.3c-1-.1-2-.1-3-.1h0c-.4.1-.7.2-1,.3Z"/>
      <path class="c" d="M193.4,266.6a1.244,1.244,0,0,0,1.1,1.4c1.4.2,2.8.4,4.1.5.7.1,1.3.2,2,.3a11.135,11.135,0,0,0,1.7.2l3.9.6c1.3.2,2.5.3,3.8.5,1.5.2,2.9.3,4.4.4.8.1,1.6.1,2.4.2H219c1.5,0,3,.1,4.6,0,1.4,0,2.9-.1,4.3-.1h3.8c1.3,0,2.6-.1,3.9-.2s2.5-.1,3.8-.2c1.2-.1,2.5-.1,3.8-.3a3.553,3.553,0,0,0,1-.2l1.2-.3a1.135,1.135,0,0,0,.8-.3,1.319,1.319,0,0,0-.6-2.3,2.769,2.769,0,0,0-.9.1c-.1,0-.2.1-.4.1-.3.1-.6.1-.9.2-.6.1-1.1.1-1.7.2-.6,0-1.3.1-1.9.1-.7,0-1.3.1-2,.1-.6,0-1.2.1-1.8.1s-1.3.1-1.9.1c-1.2.1-2.4.1-3.6.2h-3.9c-1.3,0-2.6.1-3.8.1h-4.2a66.351,66.351,0,0,1-7.7-.5c-1.3-.1-2.6-.3-3.9-.5s-2.5-.4-3.8-.6c-.6-.1-1.3-.2-1.9-.3l-2.1-.3c-1.5-.2-3-.4-4.6-.6h-.2a1.946,1.946,0,0,0-1,1.3Z"/>
      <path class="c" d="M184.7,118.7a1.305,1.305,0,0,0,.7,1.6,18.945,18.945,0,0,0,2.1.9c.6.3,1.3.5,1.9.8.6.2,1.2.4,1.9.6.6.2,1.2.4,1.7.6a13.894,13.894,0,0,0,1.9.6c.7.2,1.3.3,2,.5a12.252,12.252,0,0,0,1.9.2,13.552,13.552,0,0,1,2,.2l1.8.3c.6.1,1.2.2,1.9.3a25.313,25.313,0,0,0,3.8.3c1.2.1,2.4.3,3.5.4,1.2.1,2.5.3,3.8.4a1.259,1.259,0,1,0,.3-2.5h0c-1.3-.1-2.6-.3-3.9-.4-1.2-.1-2.4-.3-3.7-.4s-2.6-.2-3.8-.4a14.159,14.159,0,0,1-2-.4c-.6-.1-1.3-.2-1.9-.3-.9-.1-1.8-.1-2.7-.2a18.457,18.457,0,0,1-2.3-.4,20.944,20.944,0,0,1-2.3-.8c-.8-.3-1.5-.5-2.2-.7a22.5,22.5,0,0,1-2.4-.8c-.9-.3-1.7-.8-2.6-1.2a.749.749,0,0,0-.5-.1,1.912,1.912,0,0,0-.9.9Z"/>
      <path class="c" d="M184.8,127.2a1.244,1.244,0,0,0,1.1,1.4c1.4.2,2.8.4,4.2.7.7.1,1.3.2,2,.3.6.1,1.2.1,1.7.2,1.2.2,2.5.5,3.7.6a26.729,26.729,0,0,0,4,.1h.5a3.4,3.4,0,0,1,1,.1c.3,0,.7,0,.9-.3a1.248,1.248,0,0,0,.2-1.7h0a2.177,2.177,0,0,0-.8-.5,8.083,8.083,0,0,0-1.6-.1h-1.5c-1.1,0-2.3-.1-3.4-.2-1.1-.2-2.2-.4-3.3-.5-.6-.1-1.2-.1-1.8-.2s-1.2-.2-1.9-.3c-1.3-.2-2.5-.4-3.8-.6h-.2c-.4-.1-.9.4-1,1Z"/>
      <path class="c" d="M188.5,132a1.363,1.363,0,0,0-.2,1.8,2.177,2.177,0,0,0,.8.5c1,.2,2,.5,3,.7a21.3,21.3,0,0,0,2.5.3,21.052,21.052,0,0,0,2.5.2,15.062,15.062,0,0,0,3,.1,1.217,1.217,0,1,0-.4-2.4h0a19.419,19.419,0,0,1-2.4-.2c-.8-.1-1.7-.1-2.5-.2l-2.4-.3c-1-.2-2-.4-3-.7h-.2a1.445,1.445,0,0,0-.7.2Z"/>
      <path class="c" d="M196.1,179.8a1.02,1.02,0,0,0-.8.5,1.165,1.165,0,0,0,.3,1.7h0a1.02,1.02,0,0,0,.9.2h1.4c2.5,0,5,.1,7.5.2l3.9.3c.6.1,1.3.1,1.9.2a13.4,13.4,0,0,0,2,.1,12.1,12.1,0,0,1,1.9.1c.3,0,.7,0,.9-.3a1.374,1.374,0,0,0,.5-.8,1.4,1.4,0,0,0-.3-.9,2.177,2.177,0,0,0-.8-.5,4.1,4.1,0,0,0-1.1-.1,3.4,3.4,0,0,1-1-.1c-.6,0-1.3-.1-1.9-.1-1.2-.1-2.5-.3-3.7-.4-1.3-.1-2.6-.1-3.9-.2s-2.6-.1-3.9-.1h-1.6a9.38,9.38,0,0,1-2.2.2Z"/>
      <path class="c" d="M199.9,186.7a19.269,19.269,0,0,0-2.4.1,24.519,24.519,0,0,0-2.7.2,1.259,1.259,0,1,0,.3,2.5c1.3-.1,2.6-.2,3.9-.2h3.3c5.3.1,10.6.5,15.9.7.9,0,1.7.1,2.6.1h3c1.7,0,3.4-.1,5.1-.1a9.7,9.7,0,0,1,1.7.1,1.259,1.259,0,1,0,.3-2.5,7.084,7.084,0,0,0-1.4-.1h-3.8c-1.5,0-3.1.1-4.6.1-2.7,0-5.3-.2-8-.4s-5.3-.3-7.9-.4c-1.2,0-2.3-.1-3.5-.1Z"/>
      <path class="c" d="M193.9,194.1a1.363,1.363,0,0,0-.2,1.8,2.177,2.177,0,0,0,.8.5c1.4.3,2.7.6,4.1.8a12.252,12.252,0,0,0,1.9.2c.6.1,1.2.2,1.9.3a43.844,43.844,0,0,0,8.1.1c.5,0,1-.1,1.5-.1a1.217,1.217,0,1,0-.4-2.4c-1,0-2.1.1-3.1.2-.9,0-1.7.1-2.6.1a24.519,24.519,0,0,1-2.7-.2,5.853,5.853,0,0,1-1.3-.2c-.5-.1-1-.1-1.5-.2a20.236,20.236,0,0,1-2.6-.4c-1-.2-2-.4-2.9-.6h-.2a.605.605,0,0,0-.8.1Z"/>
      <path class="c" d="M313.2,54c-1.3.7-2.6,1.5-3.8,2.2-.7.4-1.3.7-2,1.1h.1c-.5.3-1,.6-1.6.9h0c-1.1.6-2.1,1.3-3.2,1.9-.5.3-1.1.6-1.6.9l-1.8.9a37.273,37.273,0,0,1-3.5,1.6l-7.2,3c-2.4,1-4.9,2.1-7.4,3.1-2.4,1-4.8,2-7.3,2.9-.6.2-1.2.4-1.9.6-.6.2-1.3.5-1.9.7l-3.6,1.5c-2.5,1-5.1,1.9-7.7,2.8-1.2.5-2.4.9-3.6,1.4-1.3.5-2.6,1-3.9,1.4-1.2.4-2.5.8-3.7,1.2s-2.5.8-3.8,1.1c-2.5.8-5,1.7-7.4,2.6-2.5.9-4.8,1.9-7.3,2.8-1.3.5-2.6.9-3.9,1.3-1.2.4-2.5.8-3.7,1.2-1.2.3-2.3.6-3.5.9-1.3.3-2.5.4-3.8.7s-2.6.6-3.9,1c-1.3.3-2.6.7-3.9.9-.7.1-1.3.2-2,.3a10.622,10.622,0,0,0-1.9.4c-1.5.4-3,.8-4.4,1.3a1.208,1.208,0,0,0-.7.7,1.146,1.146,0,0,0,.7,1.6,1.7,1.7,0,0,0,1,0,27.586,27.586,0,0,1,2.7-.8c.5-.1,1.1-.3,1.6-.4l1.8-.3c.6-.1,1.3-.2,1.9-.3s1.2-.3,1.9-.4c2.6-.6,5.1-1.4,7.7-1.8a12.86,12.86,0,0,0,1.9-.4c.6-.1,1.2-.3,1.8-.4,1.3-.3,2.7-.7,4-1.1s2.6-.8,4-1.2c1.3-.4,2.5-.9,3.8-1.4,1.2-.5,2.4-1,3.7-1.5,1.2-.5,2.4-.8,3.6-1.3s2.5-.9,3.7-1.4c.6-.2,1.2-.4,1.9-.6s1.3-.4,2-.6l3.6-1.2c1.3-.4,2.6-.8,3.9-1.3,1.2-.4,2.5-.9,3.7-1.4,1.3-.5,2.6-1,4-1.5,2.4-.9,4.9-1.8,7.3-2.8,1.2-.5,2.5-1.1,3.7-1.5s2.4-.8,3.6-1.3c2.5-.9,4.9-1.9,7.3-3,2.5-1,5-2.1,7.5-3.1,2.4-1,4.7-2,7.1-3,1.2-.5,2.3-1.1,3.5-1.7l3.6-2.1.1-.1h-.1c.9-.5,1.8-1,2.7-1.6h0l.1-.1h0l.1-.1-.1.1h0a25.293,25.293,0,0,0,2.2-1.3,17.394,17.394,0,0,1,1.8-1.1l1.5-.9a1.575,1.575,0,0,0,.7-.7,1.146,1.146,0,0,0-.7-1.6.9.9,0,0,0-.5-.1.887.887,0,0,1-.5.4Zm-4.6,5.6-.2.1.2-.1Z"/>
      <path class="c" d="M314.6,62.2a14.722,14.722,0,0,0-2.2,1c-.6.3-1.1.6-1.7.9a38.365,38.365,0,0,1-3.5,1.8c-1.2.6-2.5,1.2-3.7,1.7-1.2.6-2.3,1.1-3.5,1.6s-2.4.9-3.6,1.3c-1.3.4-2.5.9-3.7,1.4s-2.5,1-3.7,1.4-2.4.8-3.6,1.3-2.4.9-3.6,1.4-2.4.9-3.6,1.3c-1.3.4-2.5,1-3.7,1.5s-2.4,1-3.6,1.4-2.5.7-3.7,1.1c-.6.2-1.2.4-1.9.6-.6.2-1.2.4-1.7.6-1.2.5-2.5.9-3.7,1.3-.6.2-1.2.4-1.9.6-.6.2-1.2.5-1.8.7-1,.4-2,.7-3,1s-2,.8-2.9,1.1a58.835,58.835,0,0,1-5.9,2.1,14.62,14.62,0,0,1-2,.5l-1.8.6c-1.3.4-2.5,1-3.8,1.5-1.2.5-2.3.9-3.5,1.3s-2.5.8-3.8,1.2c-1.2.4-2.3.8-3.5,1.1-1.2.4-2.5.8-3.7,1.1-2.6.7-5.1,1.6-7.6,2.4a1.351,1.351,0,0,0-.7,1.6,1.581,1.581,0,0,0,.7.7,1.7,1.7,0,0,0,1,0c1.3-.4,2.7-.9,4-1.3l3.9-1.2,2.1-.6a12.09,12.09,0,0,1,1.8-.5c1.3-.4,2.5-.8,3.8-1.3,1.1-.3,2.1-.6,3.2-1s2.1-.8,3.1-1.2c1.1-.4,2.2-.9,3.2-1.3s2-.7,3-1c1.2-.3,2.5-.7,3.7-1.1s2.4-.9,3.6-1.4,2.4-1,3.6-1.4,2.4-.8,3.6-1.3,2.5-.9,3.8-1.3c1.2-.4,2.4-.9,3.6-1.3s2.4-.8,3.6-1.1c1.3-.4,2.5-.8,3.8-1.2,1.3-.5,2.5-1,3.7-1.5.6-.3,1.2-.5,1.9-.8l1.8-.6c1.2-.4,2.4-.8,3.6-1.3,1.2-.4,2.3-.9,3.5-1.3,1.3-.4,2.6-.9,3.8-1.3,1.2-.5,2.4-1,3.6-1.4,2.4-1,4.9-1.6,7.2-2.7l3.3-1.5c1.1-.5,2.2-1,3.3-1.6,1-.5,2.1-1.1,3.1-1.6.5-.3,1.1-.6,1.6-.9a7.218,7.218,0,0,1,2-.9,1.208,1.208,0,0,0,.7-.7,1.146,1.146,0,0,0-.7-1.6.6.6,0,0,0-.4-.1.759.759,0,0,1-.5.2Z"/>
      <path class="c" d="M316,67.4l-3.6,1.8a37.273,37.273,0,0,1-3.5,1.6c-2.5,1.1-5,2.1-7.4,3.2s-4.9,2.1-7.3,3.3c-1.2.6-2.3,1.2-3.5,1.8s-2.4,1.1-3.6,1.7-2.3,1.2-3.5,1.7c-1.1.5-2.3,1-3.5,1.5-2.4,1-4.9,2-7.4,2.8-1.3.4-2.5.8-3.8,1.3l-3.6,1.2c-1.2.4-2.4.9-3.6,1.3-1.3.4-2.6.9-3.8,1.4-1.8.7-3.6,1.3-5.5,1.9-.9.2-1.8.5-2.7.7-1.1.3-2.3.6-3.4.9h0l-.3-.2h.1l-.8.2h0c-.1,0-.1,0-.2.1l-.3.1c-.3.1-.7.2-1,.3l-1.2.3c.1,0,.2-.1.3-.1-.8.2-1.7.5-2.5.7-.7.2-1.4.5-2.1.7a18.66,18.66,0,0,0-2.2.7c-.8.3-1.5.6-2.3.9a1.351,1.351,0,0,0-.7,1.6,1.305,1.305,0,0,0,1.6.7c.7-.3,1.4-.5,2.2-.8.6-.2,1.3-.4,2-.6s1.3-.4,1.9-.6,1.3-.4,1.9-.6a21.718,21.718,0,0,0,2.4-.7h.1a1.421,1.421,0,0,0,.6-.2c.3-.1.6-.1.8-.2-.1,0-.2.1-.3.1.5-.1.9-.3,1.4-.4,1.3-.3,2.6-.6,3.8-1,1.2-.3,2.4-.6,3.6-1,1.3-.4,2.6-.9,3.9-1.4,1.2-.5,2.4-.9,3.6-1.3,1.3-.5,2.5-.9,3.8-1.3l3.6-1.2c1.3-.5,2.6-.9,3.8-1.3,2.4-.8,4.8-1.8,7.2-2.7,1.2-.5,2.5-1,3.7-1.5s2.3-1.1,3.5-1.7,2.4-1.1,3.5-1.6c1.2-.6,2.4-1.3,3.7-1.9,2.4-1.1,4.8-2.2,7.2-3.2s4.9-2.1,7.4-3.1a35.394,35.394,0,0,0,3.4-1.6c1.2-.6,2.3-1.2,3.5-1.7a1.351,1.351,0,0,0,.7-1.6,1.3,1.3,0,0,0-1.2-.8c-.1-.4-.3-.3-.4-.2Zm-66.4,27h0Zm-3.5,3.5h0Z"/>
      <path class="c" d="M313,74.8c-.6.3-1.2.7-1.8,1s-1.2.5-1.7.8c-1.2.6-2.3,1.1-3.5,1.7s-2.3,1.2-3.5,1.8-2.3,1.2-3.5,1.7-2.3,1-3.5,1.5l-3.3,1.5-3.6,1.8c-1.2.6-2.4,1.1-3.7,1.6-2.4,1-4.9,2-7.4,3l-3.6,1.2a8.651,8.651,0,0,0-1.7.7c-.6.2-1.3.5-1.9.7-.1,0-.2.1-.4.1a1.32,1.32,0,0,0-.6,1.7,1.179,1.179,0,0,0,1.5.6l3.9-1.5,3.6-1.2c2.4-.9,4.8-1.9,7.2-2.9,1.2-.5,2.5-1,3.7-1.6s2.5-1.2,3.7-1.8a37.273,37.273,0,0,1,3.5-1.6c1.1-.5,2.3-1,3.4-1.5,1.2-.6,2.3-1.2,3.5-1.7l3.6-1.8c1.1-.6,2.3-1.2,3.4-1.7.6-.3,1.1-.5,1.7-.8s1.1-.6,1.7-.9c.1-.1.2-.1.3-.2a1.575,1.575,0,0,0,.7-.7,1.146,1.146,0,0,0-.7-1.6.9.9,0,0,0-.5-.1.764.764,0,0,0-.5.2Z"/>
      <path class="c" d="M34.9,44.8a1.251,1.251,0,0,0,.3,1.7c1.6,1.1,3.3,2.1,5.1,3.1.9.5,1.9.9,2.8,1.3.8.4,1.7.8,2.5,1.2-.1,0-.2-.1-.3-.1.1.1.3.1.4.2h0l.8.4h-.1l.2.1h.1c.9.5,1.8.9,2.7,1.3.4.2.7.4,1.1.6h0l.1.1h0l.4.2h-.1c.6.3,1.1.5,1.7.8a10.662,10.662,0,0,0,1.9.7c1.2.4,2.4.8,3.7,1.2s2.6.7,3.9,1.1l3.6.9c1.7.4,3.5.8,5.2,1.2,1.8.4,3.6.8,5.5,1.1a20.481,20.481,0,0,0,2.4.5,27.411,27.411,0,0,0,2.8.5c1.7.3,3.5.6,5.2,1,2.7.6,5.3,1.1,8,1.6.7.1,1.3.2,2,.3s1.3.1,2,.2c1.4.1,2.8.2,4.1.2,1.4.1,2.8.1,4.3.2a14.919,14.919,0,0,1,2.1.2c.7.1,1.5.1,2.2.2h0a1.183,1.183,0,0,0,1-.1,1.32,1.32,0,0,0,.6-1.7,1.057,1.057,0,0,0-.7-.6,10.9,10.9,0,0,0-2.6-.3c-.7-.1-1.4-.1-2-.2-1.3-.1-2.6-.2-3.9-.2-1.3-.1-2.7-.1-4-.2-1.4-.1-2.7-.2-4-.4-2.4-.4-4.7-.9-7.1-1.3-1.6-.3-3.2-.7-4.7-1s-3-.5-4.5-.8c-2-.4-4-.8-6.1-1.3-1.2-.3-2.5-.6-3.7-.8a24.906,24.906,0,0,1-3.7-.9c-1.2-.4-2.5-.6-3.7-.9-1.3-.3-2.6-.7-3.9-1.1-1-.3-2-.6-3-1-.5-.2-1.1-.4-1.6-.6a6.109,6.109,0,0,1-1.4-.7l.1.1-.6-.3.1.1-.6-.3.2.1c-1-.5-2-1-2.9-1.5l.3.1c-.7-.3-1.3-.7-2-1h0l-.3-.2h0c-1.8-.9-3.5-1.7-5.3-2.5a55.484,55.484,0,0,1-4.8-2.9,1.952,1.952,0,0,0-.7-.1,1.433,1.433,0,0,0-1.1.5Zm6.6,2.6a.349.349,0,0,1,.2.1A.31.31,0,0,1,41.5,47.4Zm5.2,5.3h0l-.2-.1Zm4.8-.4-.1-.1Zm-5.5,0-.3-.1C45.8,52.2,45.9,52.3,46,52.3ZM47,50a.1.1,0,0,1-.1-.1Zm-.2-.1a.349.349,0,0,1-.2-.1A.349.349,0,0,0,46.8,49.9Z"/>
      <path class="c" d="M37.1,50.1a1.251,1.251,0,0,0,.3,1.7c1.1.8,2.2,1.6,3.3,2.3l1.5.9c.6.3,1.1.6,1.7.9h0l.2.1H44c1.2.6,2.4,1.1,3.6,1.6s2.4,1,3.7,1.4l3.6,1.2c1.2.4,2.4.9,3.6,1.3,2.5.9,5,1.6,7.5,2.3,1.3.4,2.5.7,3.8,1.1,1.2.4,2.4.7,3.6,1.1,1.3.4,2.6.8,3.8,1.2s2.4.8,3.6,1.1c1.2.4,2.4.8,3.7,1.1s2.5.5,3.7.9h.1a1.183,1.183,0,0,0,1-.1,1.32,1.32,0,0,0,.6-1.7,1.057,1.057,0,0,0-.7-.6c-1.2-.3-2.5-.5-3.8-.9s-2.5-.7-3.7-1.1l-3.6-1.2c-1.3-.4-2.5-.9-3.8-1.2-1.2-.4-2.4-.7-3.6-1.1-1.3-.4-2.5-.7-3.8-1.1-2.5-.7-5-1.4-7.5-2.3-1.1-.4-2.3-.9-3.4-1.3-1.2-.4-2.4-.8-3.5-1.2-1.2-.4-2.4-.9-3.6-1.4-1.1-.5-2.3-.9-3.4-1.5l-.2-.1h0c-1-.6-2.1-1.1-3.1-1.8-1.1-.7-2.2-1.5-3.3-2.3a1.445,1.445,0,0,0-.7-.2c-.5.3-.9.5-1.1.9Zm7.8,3.5.1.1Zm.5.3.2.1Z"/>
      <path class="c" d="M38.1,47.5a1.24,1.24,0,0,0,1.2,1.3c1.2.2,2.4.3,3.6.6,2.1.5,4.1,1.2,6.2,1.7s4.2,1,6.4,1.4a.367.367,0,0,1-.3-.1c1.4.3,2.8.6,4.1.8s2.6.4,3.9.5c2.6.3,5.2.4,7.8.9l1.3.2.5.1h-.1l.6.1h0c1.4.3,2.8.6,4.2.8,1.3.2,2.6.3,3.9.4a73.557,73.557,0,0,0,8.1.6H90a12.75,12.75,0,0,1,2,.1,1.24,1.24,0,0,0,1.3-1.2,1.4,1.4,0,0,0-.3-.9,1.234,1.234,0,0,0-.8-.4,14.769,14.769,0,0,0-2.1-.1h-2L84.2,54c-2.7-.3-5.3-.5-8-1-.8-.1-1.6-.3-2.3-.4H74l-.3-.1h-.1l-.3-.1h.1c-1.4-.3-2.7-.5-4.1-.7-1.3-.2-2.6-.3-3.9-.4s-2.6-.2-3.9-.4-2.6-.4-3.9-.7a4.331,4.331,0,0,1-.5-.1h.2l-2.7-.6h0c-2.3-.5-4.6-1-6.9-1.7-1.2-.3-2.4-.7-3.7-1a32.086,32.086,0,0,0-4.3-.7h-.1c-1,.3-1.5.8-1.5,1.4Zm33.7,7.3.3.1A.367.367,0,0,1,71.8,54.8Zm1.6.4-.3-.1C73.2,55.1,73.3,55.2,73.4,55.2Zm-.6-.1h0Zm.5-2.5Z"/>
      <path class="c" d="M48.3,61a1.183,1.183,0,0,0,.1,1,1.344,1.344,0,0,0,.7.6c1.8.8,3.6,1.5,5.4,2.3a10.93,10.93,0,0,0,1.5.8c.6.3,1.2.7,1.8,1a13.018,13.018,0,0,0,1.7.8,13.355,13.355,0,0,0,1.8.7c1.2.5,2.4.9,3.6,1.3s2.4.9,3.6,1.4,2.4.9,3.6,1.4c1.1.5,2.3.9,3.4,1.3,1.2.4,2.4.7,3.6,1.1,2.5.7,5,1.5,7.5,2,1.7.4,3.5.7,5.2,1a15.719,15.719,0,0,1,2.3.4,18.1,18.1,0,0,0,2.3.3c.2.1.5.1.7.2a1.265,1.265,0,0,0,.8-2.4c-.5-.1-1.1-.3-1.6-.4-.4-.1-.8-.1-1.2-.2a23.356,23.356,0,0,1-2.6-.4c-1.6-.2-3.2-.6-4.8-.9a62.1,62.1,0,0,1-7.4-2c-1.2-.4-2.4-.7-3.6-1.1s-2.3-.9-3.5-1.3c-2.2-.9-4.5-1.8-6.8-2.6a48.969,48.969,0,0,1-6.7-2.6,11.938,11.938,0,0,0-1.6-.8l.3.1c-.6-.3-1.2-.7-1.9-1a22.56,22.56,0,0,0-2.2-1.1c-.7-.3-1.3-.5-2-.8A27.181,27.181,0,0,1,49.8,60a.6.6,0,0,0-.4-.1A2.345,2.345,0,0,0,48.3,61Zm11.3,3.8.1.1Zm-2,1.8.2.1Z"/>
      <path class="c" d="M87.5,125a9.852,9.852,0,0,0-1.7.2c-1.1.1-2.1.2-3.2.3s-2.2.2-3.3.4c-1.1.1-2.1.2-3.2.3h-.6c-1.1.1-2.2.1-3.2.2l-3.3.3c-1,.1-2.1.2-3.1.4-1.1.2-2.2.4-3.4.6a1.275,1.275,0,0,0,.5,2.5h0c1-.2,2.1-.4,3.1-.6s2-.3,3-.4,1.9-.2,2.9-.3a26.352,26.352,0,0,1,2.8-.2,2.769,2.769,0,0,0,.9-.1h.5c1-.1,2-.2,3.1-.3a28.855,28.855,0,0,0,2.9-.4l3.2-.3c.9-.1,1.9-.2,2.8-.3a6.6,6.6,0,0,1,1.4.1,1.4,1.4,0,0,0,.9-.3,1.234,1.234,0,0,0,.4-.8,1.4,1.4,0,0,0-.3-.9,1.234,1.234,0,0,0-.8-.4,3.4,3.4,0,0,0-1-.1,5.7,5.7,0,0,0-1.3.1Zm-12.7,3.7h0Zm.5-2.5h0Zm.5,0h0Z"/>
      <path class="c" d="M93.1,129.5c-1,.2-2,.3-3,.5-1.9.3-3.8.5-5.8.7-1.3.1-2.6.1-3.9.2-1.4.1-2.8.2-4.1.3-2.6.2-5.2.6-7.8,1-2.3.4-4.7.7-7,1-2.5.3-5,.7-7.5,1a1.272,1.272,0,0,0-1,1.5,2.177,2.177,0,0,0,.5.8,1.486,1.486,0,0,0,.9.2c1.4-.2,2.9-.3,4.3-.6,1.3-.2,2.6-.3,3.9-.5,1.4-.2,2.7-.4,4.1-.6l3.9-.6c1.7-.2,3.4-.5,5.1-.6,1.8-.2,3.5-.3,5.3-.4,1.3-.1,2.6-.1,3.9-.2,1.2-.1,2.4-.2,3.7-.4,1.2-.2,2.5-.3,3.7-.5s2.4-.4,3.6-.5h.5a1.259,1.259,0,1,0,.3-2.5h-.2a12.716,12.716,0,0,0-3.4.2Zm-12,3.8h0Z"/>
      <path class="c" d="M98,135.1c-.5,0-1.1.1-1.6.1h-.2c-1.3.1-2.5.1-3.8.3s-2.7.3-4,.6c-2.6.5-5.3.9-7.9,1.3-2.6.3-5.2.6-7.8.8l-3.9.3-3.6.3h-.1c-2.4.1-4.9.3-7.3.5-2.5.2-5.1.5-7.6.7h.3c-.7,0-1.5.1-2.2.1-1.7.1-3.3.1-5,.1-1.9,0-3.7.1-5.6.2a1.4,1.4,0,0,0-.9.3,1.267,1.267,0,0,0-.1,1.8h0a1.234,1.234,0,0,0,.8.4c1,0,2.1-.1,3.1-.2h2.9c2,0,4.1-.1,6.1-.2h0c1.1-.1,2.3-.1,3.4-.2s2.2-.2,3.4-.3c2.2-.2,4.5-.4,6.7-.5,2.7-.1,5.3-.3,8-.5,1.4-.1,2.8-.3,4.2-.4s2.8-.3,4.2-.4c2.7-.3,5.3-.7,7.9-1.2l3.9-.6c1.4-.2,2.7-.3,4.1-.4h.7c.5,0,1-.1,1.5-.1h.3a1.4,1.4,0,0,0,.9-.3,1.267,1.267,0,0,0,.1-1.8h0c-.3-.5-.6-.7-.9-.7Zm-2,2.6h0Zm.2-2.5Z"/>
      <path class="c" d="M99.2,141.6l-1,.1c-.6.1-1.3.1-1.9.2-1.3.1-2.6.3-3.9.4-1.3.2-2.7.4-4,.5-1.3.2-2.6.3-4,.4s-2.7.4-4.1.5a25.693,25.693,0,0,0-4,.7q-4.05.75-8.1,1.2c-1,.1-2.1.2-3.1.3-1.3.1-2.7.1-4,.2-1.4.1-2.7.1-4.1.1H53c-1.3,0-2.7.1-4,.1l-7.8.3c-1.3.1-2.7.1-4,.1-1.4-.1-2.8-.2-4.2-.4a1.251,1.251,0,0,0-.1,2.5c1.4.1,2.9.3,4.3.4,1.3,0,2.6,0,3.9-.1,2.7-.1,5.5-.3,8.2-.3,1.3,0,2.6-.1,4-.1s2.7,0,4-.1c2.7,0,5.5-.1,8.2-.3a74.628,74.628,0,0,0,8.1-1c2.7-.4,5.4-1,8.1-1.3,1.3-.2,2.7-.4,4-.5s2.7-.3,4-.4c1.2-.2,2.5-.4,3.8-.5,1.3-.2,2.7-.3,4-.4.9-.1,1.9-.2,2.8-.3h.1a1.259,1.259,0,1,0,.3-2.5h-.3a5.019,5.019,0,0,1-1.2.2Zm1,2.4h0Z"/>
      <path class="c" d="M84.8,151.3c-2,.3-4,.7-6,.9l-6,.6q-4.05.15-8.1.6c-1.3.2-2.6.3-4,.5s-2.7.2-4,.4c-1,.1-1.9.2-2.9.3h-.1c-.8.1-1.7.1-2.5.2-1.1.1-2.1.2-3.2.2a1.374,1.374,0,0,0-.8.5,1.232,1.232,0,0,0,.3,1.7,1.486,1.486,0,0,0,.9.2c.9-.1,1.8-.1,2.6-.2s1.6-.1,2.4-.2l3.9-.3c1.4-.2,2.7-.3,4.1-.4,1.3-.1,2.5-.3,3.8-.5,1.4-.2,2.9-.3,4.3-.4.7-.1,1.5-.1,2.2-.2h.1c2.2-.1,4.3-.3,6.5-.6,2.3-.3,4.5-.6,6.8-1a1.272,1.272,0,0,0,1-1.5c0-.5-.6-.9-1.3-.8Zm-31.2,5.8h0Z"/>
      <path class="c" d="M84.8,159.4c-1.3.1-2.7.2-4,.4-1.2.1-2.4.3-3.6.4-.6.1-1.3.1-1.9.2a9.852,9.852,0,0,1-1.7.2c-1.5.2-2.9.4-4.4.5a1.272,1.272,0,0,0-1,1.5,2.177,2.177,0,0,0,.5.8,1.486,1.486,0,0,0,.9.2c1.4-.2,2.9-.3,4.3-.5,1.2-.2,2.4-.3,3.7-.4,1.2-.1,2.3-.3,3.5-.4,1.4-.1,2.7-.3,4.1-.4a1.374,1.374,0,0,0,.8-.5,1.486,1.486,0,0,0,.2-.9,2.177,2.177,0,0,0-.5-.8,1.854,1.854,0,0,0-.7-.2c0-.1-.1-.1-.2-.1Z"/>
      <text class="d" transform="translate(0 10.298)"> </text>
      <path class="c" d="M723.74,231.9l.015.3h0l-.015-.3Z"/>
      <path class="e" d="M722.957,69.55c-2.607,58,.393,117-2.285,175.03"/>
    </g>
  </g>
</svg>
