<?xml version="1.0" encoding="utf-8"?>
<!-- Generator: Adobe Illustrator 24.2.0, SVG Export Plug-In . SVG Version: 6.00 Build 0)  -->
<svg version="1.1" id="Layer_1" xmlns="http://www.w3.org/2000/svg" xmlns:xlink="http://www.w3.org/1999/xlink" x="0px" y="0px"
	 viewBox="0 0 515 524.3" style="enable-background:new 0 0 515 524.3;" xml:space="preserve">
<style type="text/css">
	.st0{fill:#FEFEFE;}
	.st1{fill:#2C2C2C;}
	.st2{fill:none;stroke:#2C2C2C;stroke-width:7;stroke-miterlimit:10;}
</style>
<g>
	<g>
		<g>
			
				<image style="overflow:visible;opacity:0.5;enable-background:new    ;" width="515" height="519" xlink:href="10E9BA86FFBFB6C1.png"  transform="matrix(6.123234e-17 -1 1 6.123234e-17 0.6699 519.6761)">
			</image>
			<g>
				<path class="st0" d="M389.3,107.6c-1.6-0.9-3.5-1.2-5.3-0.8c-0.6,0.3-1.2,0.5-1.8,0.8H389.3z"/>
				<path class="st0" d="M7.5,347.8c40.6-63.1,87.9-121.6,141.2-174.4C200,122.5,256.6,77.2,317.4,38.2l70.4,63.5
					c-62.8,39.6-120.9,86.1-173.5,138.5c-53,52.9-99.9,111.5-139.9,174.8L7.5,347.8z"/>
				<path class="st1" d="M387.3,104.2c-0.6-0.9-1.3-1.8-2.1-2.6c-0.8-0.9-1.5-1.8-2.3-2.7s-1.5-1.8-2.2-2.7s-1.5-1.8-2.3-2.6
					c-1.7-1.8-3.2-3.7-4.8-5.5c-0.7-0.9-1.5-1.8-2.3-2.6c-0.7-0.8-1.4-1.6-2.2-2.4c-2.1-2.1-4.1-4.4-6.2-6.5
					c-0.9-0.9-1.9-1.8-2.8-2.8c-0.9-1-1.9-1.9-2.8-2.9l0,0c-0.8-0.8-1.7-1.6-2.5-2.5c-0.9-0.9-1.9-1.8-2.8-2.6
					c-0.7-0.7-1.5-1.5-2.2-2.3c-0.8-0.9-1.7-1.7-2.6-2.5c-0.8-0.8-1.6-1.6-2.3-2.4c-0.9-1.1-1.8-2.2-2.7-3.2
					c-1.7-1.8-3.7-3.4-5.5-5.1l0.3,0.3c-1.3-1.2-2.6-2.3-3.9-3.5c-1.3-1.1-2.5-2.2-3.9-3.2c-0.7-0.5-1.5-0.9-2.1-1.5
					c-0.6-0.5-1.2-0.9-1.8-1.3c-0.6-0.4-1.2-0.9-1.9-1.3c-0.8-0.5-1.6-1-2.5-1.5c-0.5-0.4-1.2-0.5-1.8-0.4c-1.3,0.2-2.2,1.4-2,2.7
					c0,0,0,0,0,0c0.1,0.6,0.4,1.2,0.9,1.5c0.6,0.3,1.2,0.7,1.8,1l0,0c0.2,0.1,0.4,0.2,0.6,0.4c0.6,0.4,1.2,0.8,1.7,1.2l0.1,0
					c1.3,1,2.5,1.8,3.7,2.6c1.3,0.9,2.6,1.9,3.8,3c0.5,0.4,1,0.8,1.5,1.2l0.1,0.1c0.7,0.6,1.4,1.2,2.1,1.8c0.7,0.7,1.5,1.4,2.2,2
					l0.1,0.1l0.3,0.3c0.6,0.5,1.1,1,1.6,1.5c0.9,0.9,1.7,1.8,2.5,2.8c0.4,0.5,0.8,0.9,1.1,1.4c1.2,1.3,2.5,2.6,3.8,3.8
					c0.6,0.5,1.1,1.1,1.6,1.7l0.2,0.2c0.3,0.3,0.7,0.7,1,1c0.8,0.8,1.7,1.6,2.5,2.4l0.9,0.8l0.3,0.3l0.3,0.3l2,1.9l0.4,0.4l-0.1-0.1
					c0.8,0.7,1.5,1.5,2.2,2.3s1.5,1.5,2.2,2.3c0.8,0.7,1.5,1.5,2.3,2.2c0.6,0.6,1.2,1.3,1.8,1.8c0.3,0.3,0.5,0.6,0.8,0.9
					c0.4,0.4,0.7,0.8,1.1,1.2l0.2,0.2c0.4,0.4,0.8,0.8,1.2,1.2c0.5,0.5,1,1.1,1.5,1.6l0.1,0.1l0.6,0.7c1.6,1.8,3.1,3.7,4.6,5.4
					c0.7,0.9,1.5,1.7,2.3,2.6l0.7,0.8c0.4,0.5,0.9,1,1.3,1.5c0.2,0.2,0.3,0.4,0.5,0.6l0.2,0.2c0.2,0.3,0.4,0.5,0.6,0.8
					c0.5,0.6,1.1,1.3,1.6,1.9c0.4,0.5,0.8,0.9,1.2,1.4l0.1,0.1v0v0l0,0c0.9,1,1.7,2,2.5,3.1c0.4,0.5,1,0.8,1.6,0.9
					c1.3,0.1,2.5-0.8,2.6-2.2c0,0,0,0,0,0c0-0.1,0-0.1,0-0.2C387.8,105.2,387.6,104.7,387.3,104.2L387.3,104.2z"/>
				<path class="st1" d="M315.2,165.2L315.2,165.2C315.2,165.3,315.2,165.2,315.2,165.2L315.2,165.2z"/>
				<path class="st1" d="M315.3,165.2L315.3,165.2L315.3,165.2L315.3,165.2z"/>
				<path class="st1" d="M80.9,403.5L80.9,403.5L80.9,403.5C80.9,403.5,80.9,403.5,80.9,403.5z"/>
				<path class="st1" d="M5.4,346.9c-1,0.9-1.1,2.3-0.3,3.4c1.5,1.9,2.8,3.8,4.5,5.6c0.7,0.8,1.6,1.5,2.3,2.2
					c0.9,0.8,1.7,1.7,2.4,2.7c0.8,1,1.5,2,2.3,2.9c0.8,0.9,1.5,1.7,2.3,2.6c1.6,1.8,3.2,3.7,4.8,5.5c1.2,1.3,2.4,2.6,3.7,3.8
					c1.2,1.2,2.4,2.3,3.6,3.5c0,0-0.1-0.1-0.1-0.1c0.7,0.6,1.4,1.3,2.1,1.9c2.1,1.9,4.2,3.7,6.3,5.6c0.4,0.4,0.8,0.7,1.2,1.1
					c0.8,0.7,1.6,1.4,2.4,2.1c0.8,0.7,1.6,1.4,2.4,2.1c1.6,1.5,3.1,3,4.6,4.6c0.8,0.9,1.7,1.9,2.6,2.7c0.8,0.8,1.7,1.6,2.5,2.4
					c1.4,1.3,2.7,2.7,4.1,4.1l0,0c0.3,0.3,0.6,0.6,0.9,0.8c1,1,2,1.8,3,2.6c0.3,0.2,0.6,0.5,0.8,0.7l0.2,0.1c0.5,0.4,1,0.8,1.5,1.3
					l0.1,0.1c0.5,0.5,1.1,1,1.6,1.6l0.7,0.7c0.8,0.8,1.5,1.5,2.2,2.3c0.3,0.3,0.5,0.6,0.8,0.9l0.2,0.2c0.4,0.4,0.7,0.8,1,1.1
					c0.2,0.2,0.4,0.5,0.6,0.7c0.2,0.2,0.3,0.4,0.5,0.6c0.1,0.2,0.3,0.3,0.4,0.4l0.1,0.1c0.2,0.2,0.4,0.5,0.6,0.7
					c0.1,0.2,0.3,0.3,0.5,0.4l0,0c0.9,0.6,2,0.5,2.9-0.2c0.3-0.2,0.5-0.5,0.7-0.9v-1.8c-0.1-0.2-0.2-0.4-0.4-0.6
					c-0.5-0.6-1-1.1-1.5-1.8c-0.5-0.6-1.1-1.3-1.7-1.9c-1-1.1-2-2.2-3-3.3c-1.3-1.4-2.7-2.7-4.1-3.9c-0.6-0.5-1.2-0.9-1.7-1.4
					c-0.6-0.5-1.2-1-1.8-1.6c-1.6-1.5-3-3-4.6-4.5c-1.6-1.6-3.3-3.1-4.8-4.7c-1.5-1.6-3.1-3.3-4.7-4.8c-1.7-1.7-3.6-3.2-5.4-4.8
					c-0.6-0.6-1.2-1.1-1.8-1.6l0.2,0.2c-0.1-0.1-0.1-0.1-0.2-0.2l-0.1-0.1c-1-0.9-1.9-1.8-2.9-2.6c-1-0.9-2.1-1.8-3.1-2.7
					c-0.1-0.1-0.2-0.2-0.3-0.3c-0.8-0.7-1.5-1.4-2.3-2.1c-1.7-1.6-3.4-3.4-5-5.1c-1.7-1.7-3.3-3.6-4.9-5.5c-0.8-0.9-1.6-1.8-2.3-2.7
					s-1.6-1.7-2.3-2.7c-0.8-1-1.5-2-2.3-2.9c-0.8-0.9-1.6-1.7-2.5-2.5c-1-0.9-2-1.9-2.8-3c-1-1.3-2-2.6-3-3.9
					C7.9,346.1,6.4,346,5.4,346.9z"/>
				<path class="st1" d="M39.1,386.4l-0.3-0.3C38.9,386.2,39,386.3,39.1,386.4z"/>
				<path class="st1" d="M74.5,413.6c-0.6,0.2-1.1,0.7-1.3,1.3c-0.2,0.6-0.2,1.2,0,1.8c0.1,0.5,0.3,1.1,0.4,1.6
					c0.1,0.5,0.3,0.9,0.5,1.4c0.2,0.5,0.3,0.9,0.5,1.3l0,0c0.3,0.6,0.6,1.2,1,1.8c0.6,0.7,1.3,1.3,2.1,1.7c0.2,0.1,0.3,0.1,0.5,0.2
					v-7.8c-0.2-0.6-0.4-1.3-0.5-1.9c-0.2-0.6-0.7-1.1-1.3-1.3C75.7,413.4,75.1,413.4,74.5,413.6z"/>
				<path class="st1" d="M57.4,401c-0.6,0.1-1.2,0.4-1.6,0.9c-0.1,0.1-0.1,0.2-0.2,0.3c-0.2,0.2-0.4,0.4-0.7,0.6
					c-0.2,0.2-0.4,0.5-0.6,0.7c-0.3,0.3-0.7,0.5-1,0.8c-0.7,0.6-1.4,1.2-2.1,1.9c-0.7,0.8-1.3,1.6-1.8,2.4c-0.7,0.9-1.4,1.7-2.1,2.6
					c-0.6,0.8-1.2,1.6-1.9,2.4c-0.7,0.8-1.4,1.6-2.2,2.4c-0.8,0.9-1.5,1.7-2.3,2.6c-0.7,0.7-1.3,1.4-2,2.1c-0.5,0.5-1,0.9-1.5,1.4
					l0.2-0.2c-0.2,0.2-0.4,0.3-0.5,0.5c0,0,0.1-0.1,0.1-0.1l-0.2,0.2c-1.8,1.7-3.4,3.7-5,5.5c-1.5,1.8-3.1,3.4-4.6,5.2
					c-1.6,1.8-3.2,3.5-4.8,5.3c-1.6,1.7-3.3,3.4-4.8,5.1c-1.6,1.8-3.3,3.5-5,5.2c-0.8,0.8-1.6,1.7-2.4,2.6c-0.7,0.8-1.5,1.6-2.2,2.4
					c-0.8,0.8-1.6,1.6-2.3,2.4c-0.8,0.9-1.7,1.8-2.5,2.6c-1.5,1.6-2.9,3.4-4.1,5.2c-0.5,0.7-0.9,1.5-1.3,2.2c-0.2,0.5-0.3,1-0.3,1.5
					c0.1,0.5,0.2,0.9,0.5,1.3c0.4,0.5,1,0.9,1.6,1c0.3,0,0.6,0.1,0.9,0c0.8-0.1,1.5-0.2,2.3-0.5c0.7-0.2,1.4-0.4,2.1-0.5
					c0.6-0.1,1.2-0.3,1.9-0.4c0.7-0.1,1.5-0.3,2.2-0.5c2.5-0.6,5-0.8,7.5-1.4c2-0.5,3.9-1.3,5.9-1.8c1.5-0.3,2.9-0.6,4.4-1
					c0.6-0.2,1.1-0.4,1.7-0.6c0.7-0.2,1.4-0.4,2.1-0.6c1.4-0.4,2.9-0.8,4.3-1.2c1.3-0.4,2.6-0.7,3.9-1c1.6-0.4,3.2-0.6,4.7-1.1
					c1.4-0.4,2.7-1,4-1.6c1.1-0.5,2.2-0.9,3.3-1.4l0,0.1c-0.3,1-0.7,2-1.1,2.9c-0.4,0.9-0.7,1.8-1.1,2.7c-0.4,1-0.7,2-1.1,3
					c-0.3,0.9-0.7,1.8-1.1,2.7c-0.7,1.9-1.7,3.7-2.5,5.6c-0.5,1.1-1,2.1-1.4,3.2c-0.4,1-0.8,2.1-1.3,3.1c-0.5,1.1-1.1,2.1-1.6,3.1
					c-0.5,1.2-0.9,2.4-1.4,3.6c-0.4,1.1-0.9,2.1-1.4,3.1c-0.5,1-0.9,2-1.5,2.9c-1.2,2.1-2.4,4.3-3.5,6.5c-0.5,1-1,2-1.5,3
					c-0.4,0.9-0.9,1.8-1.3,2.7c-0.1,0.2-0.2,0.4-0.3,0.5c0,0,0,0-0.1,0.1c-0.5,0.7-0.7,1.5-0.4,2.3c0.3,0.8,1,1.4,1.9,1.5
					c0.7,0.1,1.3-0.1,1.8-0.5c0.2-0.2,0.4-0.3,0.5-0.5c0.2-0.2,0.5-0.4,0.7-0.7c0.4-0.4,0.7-0.8,1.1-1.2c0.8-0.7,1.6-1.4,2.3-2.1
					c0.8-0.8,1.7-1.5,2.6-2.3c1.7-1.6,3.5-3.2,5.3-4.8c1.9-1.6,3.9-3.2,5.9-4.9c1-0.8,1.9-1.6,2.9-2.4c1-0.8,2-1.6,2.9-2.5
					c0.8-0.8,1.7-1.6,2.5-2.4c0.6-0.6,1.2-1.1,1.8-1.7c2.7-2.5,5.3-5,8-7.5c1.4-1.4,2.9-2.7,4.3-4.1c1.2-1.2,2.4-2.4,3.6-3.6
					c0.5-0.5,1.1-1,1.6-1.5v-6.5c-0.5,0.4-1,0.9-1.4,1.3l-0.5,0.4c-0.8,0.7-1.5,1.4-2.3,2.1c-1.2,1.2-2.5,2.4-3.6,3.6l-0.1,0.1
					c-0.8,0.8-1.5,1.5-2.3,2.3c-0.8,0.8-1.7,1.6-2.5,2.3l-0.4,0.4c-0.9,0.9-1.9,1.7-2.8,2.6c-0.9,0.9-1.8,1.7-2.7,2.6
					c-0.9,0.8-1.7,1.6-2.6,2.4c-0.2,0.2-0.4,0.4-0.6,0.6l0.1-0.1l-0.1,0.1l-0.1,0.1l-0.2,0.2c-0.6,0.6-1.2,1.2-1.8,1.8
					c-1.3,1.2-2.6,2.3-4,3.4c-0.5,0.4-1,0.9-1.6,1.3c-0.9,0.8-1.8,1.5-2.7,2.3l-0.2,0.2c-1,0.8-2,1.6-3,2.5
					c-0.8,0.6-1.6,1.4-2.7,2.3c-0.2,0.2-0.5,0.4-0.7,0.6c0,0,0,0,0,0l0,0c0.3-0.5,0.6-1,0.8-1.6c0.5-0.9,0.9-1.9,1.4-2.9
					c0.5-1.1,1-2.2,1.4-3.3c0.4-1.2,0.8-2.4,1.4-3.5c0.2-0.4,0.4-0.8,0.6-1.2c0.3-0.6,0.7-1.2,0.9-1.9l0.3-0.9
					c0.3-0.8,0.6-1.6,1-2.3c0.7-1.7,1.8-3.9,2.8-6c0.4-0.7,0.6-1.5,0.9-2.2l0.2-0.5c0.2-0.4,0.3-0.8,0.5-1.3c0.2-0.5,0.4-1,0.6-1.5
					c0.7-2.1,1.6-4.2,2.1-5.6c0.3-0.6,0.5-1.3,0.8-2.1c0.2-0.6,0.4-1.2,0.5-1.9l0-0.1l0.1-0.4c0-0.1,0.1-0.2,0.1-0.3
					c0.1-0.4,0.2-0.8,0.3-1.2l0.1-0.2l0-0.1c0.1-0.3,0.2-0.6,0.2-0.9c0-0.2,0-0.3,0-0.5c0-0.4-0.1-0.7-0.2-1.1
					c-0.1-0.5-0.4-1-0.9-1.4c-0.4-0.3-0.8-0.5-1.2-0.5c-0.5-0.1-1,0-1.4,0.2c-0.5,0.2-1,0.4-1.5,0.6c-0.5,0.3-1,0.5-1.6,0.7
					l-0.3,0.1l-0.4,0.2c-1.3,0.5-2.5,1-3.8,1.6c-1.4,0.6-2.8,1.1-4.2,1.5l-0.9,0.2l-0.4,0.1l-0.1,0c-0.9,0.2-1.9,0.4-2.8,0.7
					c-0.8,0.2-1.5,0.4-2.3,0.6l-0.3,0.1c-0.7,0.2-1.3,0.4-2,0.5c-1.6,0.4-3.1,0.8-4.6,1.3l-1.1,0.4l-0.1,0c-0.8,0.3-1.7,0.5-2.5,0.8
					c-0.4,0.1-0.7,0.1-1.1,0.2l-0.3,0c-0.2,0-0.5,0.1-0.7,0.1c-0.9,0.2-1.8,0.4-2.7,0.7c-0.3,0.1-0.6,0.2-0.9,0.3l-0.3,0.1l-0.1,0
					c-0.9,0.3-1.9,0.6-2.8,0.9c-0.8,0.2-1.6,0.3-2.4,0.4l-0.2,0l-0.9,0.1c-1,0.2-2.1,0.4-3.5,0.7l-0.1,0c-0.5,0.1-1.1,0.2-1.7,0.3
					l-0.5,0.1l-0.6,0.1c-0.1,0-0.2,0.1-0.4,0.1l0,0l0,0l0.2-0.2c0.1-0.1,0.2-0.3,0.3-0.4c0.2-0.3,0.5-0.6,0.7-0.9
					c1.2-1.3,2.5-2.7,3.7-3.9l1.3-1.3c1.5-1.6,3-3.2,4.5-4.8c0.7-0.7,1.4-1.5,2.1-2.2l0.1-0.1c0.9-0.9,1.9-1.9,2.8-2.9
					c0.4-0.4,0.7-0.8,1.1-1.2l0.2-0.2l1-1.1c0.5-0.5,1-1.1,1.5-1.6l0.1-0.1c0.3-0.3,0.6-0.6,0.9-0.9c0.6-0.6,1.1-1.2,1.6-1.8
					l0.4-0.4l0.4-0.4c0.4-0.4,0.8-0.9,1.2-1.3c0.4-0.4,0.8-0.8,1.2-1.3c0.4-0.4,0.8-0.9,1.2-1.3l0.4-0.5c1-1.1,2.1-2.3,3.1-3.4
					c0.4-0.5,0.9-1,1.3-1.5l0.2-0.2c0.3-0.4,0.7-0.8,1-1.2c0-0.1,0.1-0.1,0.1-0.2c0.8-1,1.5-1.7,2.2-2.4c0.1-0.2,0.3-0.3,0.4-0.4
					c0,0,0,0,0,0l0,0l0,0l-0.1,0l0.2-0.2c0.1-0.1,0.1-0.1,0.2-0.2l0,0c1.9-1.7,3.3-3.1,4.5-4.5c0.3-0.3,0.6-0.7,0.9-1l0.1-0.1
					c0.3-0.3,0.6-0.6,0.9-1L47,419c0.6-0.6,1.2-1.3,1.8-2c0.5-0.6,1.1-1.3,1.6-2c0.7-0.9,1.3-1.6,1.8-2.2c0.6-0.7,1.1-1.4,1.6-2.1
					c0.4-0.6,0.9-1.3,1.5-1.8c0.5-0.4,1-0.8,1.6-1.3c0.5-0.3,0.9-0.7,1.3-1.2c0.1-0.2,0.3-0.3,0.4-0.5c0.1-0.1,0.1-0.1,0.2-0.2
					l0.1-0.1l0.1-0.1c0.2-0.1,0.4-0.3,0.5-0.5c0.2-0.2,0.3-0.4,0.4-0.7c0.2-0.4,0.2-0.9,0.2-1.3c-0.1-0.6-0.4-1.2-0.9-1.6
					C58.7,401.1,58.1,401,57.4,401z"/>
				<path class="st1" d="M40.1,426.1L40.1,426.1L40.1,426.1z"/>
				<path class="st1" d="M38.8,420.9c-0.1,0.1-0.2,0.2-0.4,0.4C38.5,421.1,38.6,421,38.8,420.9z"/>
				<path class="st1" d="M29.1,505.2C29.1,505.3,29.1,505.3,29.1,505.2C29.1,505.3,29.1,505.3,29.1,505.2z"/>
				<path class="st1" d="M471.6,74.3c0,0.2,0.1,0.3,0.1,0.5l0.3-0.3C471.8,74.4,471.7,74.3,471.6,74.3L471.6,74.3z"/>
				<path class="st1" d="M364.1,74.3c-0.2-0.1-0.4-0.2-0.6-0.4c-0.2-0.2-0.4-0.4-0.7-0.6c-0.4-0.3-0.8-0.7-1.1-1.1
					c-0.1-0.1-0.1-0.2-0.2-0.3c0,0-0.1-0.1-0.1-0.1c0,0,0,0,0,0c0,0-0.1,0-0.1,0c-0.5,0.4-1,0.8-1.4,1.3c-0.4,0.5-0.7,1-1,1.5
					c-0.5,1.2,0,2.6,1.2,3.2s2.6,0,3.2-1.2c0.1-0.2,0.3-0.4,0.4-0.6c0.4-0.4,0.8-0.7,1.2-1.1l0,0C364.6,74.7,364.3,74.6,364.1,74.3
					L364.1,74.3z"/>
				<polygon class="st1" points="364.4,74.5 364.4,74.5 364.4,74.5 364.4,74.5 364.4,74.5 				"/>
				<polygon class="st1" points="396.3,121.3 396.3,121.3 396.3,121.3 396.3,121.3 396.3,121.3 				"/>
				<path class="st1" d="M389.4,102.3c-0.6-0.8-1.2-1.7-1.8-2.5l0.2,0.3c-0.1-0.1-0.2-0.3-0.3-0.4c0,0,0,0,0,0
					c-0.6-0.7-1.2-1.4-1.8-2.1c-0.7-0.7-1.4-1.4-2-2.2c-0.3-0.4-0.6-0.7-0.9-1.1l0,0c-0.7-0.9-1.5-1.7-2.2-2.5
					c-0.7-0.7-1.3-1.4-2-2.2s-1.3-1.5-2-2.2c-0.7-0.8-1.4-1.6-2.1-2.4c-0.4-0.4-0.7-0.8-1.1-1.3c-0.4-0.4-0.9-0.8-1.3-1.2
					c-0.8-0.7-1.5-1.4-2.2-2.2c-0.8-0.8-1.5-1.6-2.3-2.4c-0.8-0.9-1.6-1.7-2.3-2.6l-0.4-0.5c-0.2-0.1-0.5-0.3-0.7-0.5
					c-0.2-0.1-0.4-0.2-0.6-0.4c-0.2-0.2-0.5-0.4-0.7-0.6c-0.4-0.3-0.8-0.7-1.1-1.1c-0.1-0.1-0.1-0.2-0.2-0.3c0,0-0.1-0.1-0.1-0.1
					c0,0,0,0,0,0c-0.9-0.4-1.7-1.1-2.1-2.1c-0.1-0.2-0.2-0.5-0.3-0.8c-0.2-0.1-0.3-0.3-0.5-0.4c-0.8-0.7-1.5-1.5-2.2-2.2
					c-0.8-0.8-1.7-1.6-2.6-2.4c-0.8-0.8-1.6-1.7-2.4-2.5s-1.6-1.7-2.4-2.5c-0.7-0.8-1.4-1.5-2.1-2.2c-1.6-1.5-3.5-2.8-5.2-4.3
					c-0.8-0.8-1.6-1.5-2.5-2.3c-0.8-0.7-1.6-1.4-2.4-2.1c-0.7-0.7-1.4-1.3-2.2-1.9c-0.9-0.7-1.7-1.4-2.5-2.2c-1.8-1.6-3.8-3-5.9-4.1
					c-0.5-0.3-1.1-0.5-1.6-0.8c-0.5-0.2-1-0.5-1.6-0.7c-0.6-0.2-1.1-0.4-1.7-0.6c-0.7-0.1-1.4-0.2-2.1-0.2c-0.6,0-1.2,0.3-1.7,0.7
					c-0.9,0.9-0.9,2.4,0,3.4c0,0,0,0,0,0c0.5,0.4,1.1,0.7,1.7,0.7c0.2,0,0.4,0,0.6,0c0.3,0.1,0.7,0.1,1,0.3c0.5,0.2,1,0.5,1.5,0.7
					c0.7,0.3,1.3,0.6,2,0.9c1.1,0.6,2.1,1.2,3.1,2c0.8,0.6,1.6,1.4,2.4,2.1s1.6,1.3,2.4,2s1.5,1.4,2.3,2.1c0.8,0.7,1.6,1.4,2.4,2.1
					c0.8,0.8,1.7,1.6,2.5,2.3c0.8,0.7,1.6,1.3,2.4,2c0.9,0.7,1.8,1.5,2.6,2.3c0.3,0.3,0.6,0.7,1,1.1c0.4,0.4,0.8,0.9,1.2,1.3
					c1.6,1.7,3.1,3.4,4.9,5c1.6,1.4,3,3,4.6,4.4c0.8,0.7,1.7,1.5,2.5,2.2c0.7,0.7,1.4,1.4,2,2.2c0.7,0.9,1.4,1.8,2.2,2.6
					s1.6,1.7,2.4,2.5c1.1,1.2,2.3,2.4,3.5,3.6c0.7,0.6,1.3,1.3,1.9,1.9c0.6,0.7,1.2,1.4,1.8,2.1c0.6,0.6,1.2,1.2,1.8,1.9
					c0.5,0.6,1,1.1,1.5,1.7c1.1,1.3,2.4,2.4,3.4,3.8c0.2,0.3,0.4,0.5,0.6,0.8c0.6,0.8,1.3,1.6,2.1,2.4c0.7,0.7,1.4,1.5,2.1,2.3l0,0
					l0,0c0.6,0.8,1.2,1.7,1.8,2.6c0.6,0.9,1.3,1.8,2,2.7l0.1,0.1h0l0.1,0c0.1,0,0.2,0,0.3,0c0.2-0.2,0.4-0.3,0.5-0.5
					c-0.1,0.1-0.1,0.1-0.2,0.2l0.3-0.3c0.1-0.3,0.2-0.6,0.3-0.9c0-0.1,0.1-0.2,0.1-0.3c0.1-0.6,0.3-1.3,0.4-1.9v0l0,0l0-0.1
					c0-0.4,0.1-0.9,0.1-1.3C389.7,102.7,389.5,102.5,389.4,102.3L389.4,102.3z M389.6,104.2c0,0.1,0,0.2-0.1,0.2
					C389.6,104.4,389.6,104.3,389.6,104.2z M379.6,97.9c-0.1-0.1-0.1-0.2-0.2-0.3L379.6,97.9z"/>
				<path class="st1" d="M382.7,94.2L382.7,94.2L382.7,94.2z"/>
				<path class="st1" d="M387.4,99.6L387.4,99.6L387.4,99.6C387.5,99.7,387.5,99.6,387.4,99.6L387.4,99.6z"/>
				<path class="st1" d="M364.4,74.5L364.4,74.5C364.4,74.5,364.4,74.5,364.4,74.5L364.4,74.5L364.4,74.5z"/>
				<path class="st1" d="M11.4,353.7c-0.5,0.3-0.9,0.8-1.1,1.5c-0.2,0.6-0.1,1.3,0.3,1.8c0.2,0.3,0.4,0.6,0.6,0.8
					c0.4,0.4,0.7,0.9,1.1,1.3l-0.4-0.5c0.3,0.5,0.7,0.9,1.1,1.3c0.3,0.4,0.7,0.7,1.1,1c0.9,0.9,1.8,1.8,2.6,2.7
					c1.5,1.6,3.1,3.2,4.5,4.8c0.3,0.4,0.7,0.7,1,1.1c0.4,0.4,0.8,0.8,1.3,1.2c0.8,0.7,1.6,1.5,2.4,2.3c1.4,1.5,2.7,3.2,4.3,4.6
					c0.8,0.7,1.6,1.4,2.5,2.2c0.8,0.7,1.5,1.4,2.2,2.1s1.5,1.4,2.3,2.1c0.9,0.8,1.7,1.6,2.5,2.5c1.6,1.6,3.2,3,4.7,4.6
					c1.3,1.5,2.7,2.8,4.1,4.2c1.5,1.5,3.2,2.9,4.7,4.3c1.6,1.5,3.2,3,4.8,4.5c1.3,1.3,2.5,2.7,3.8,4c0.7,0.7,1.4,1.4,2.1,2.1
					c0.7,0.7,1.5,1.5,2.1,2.3c0.7,0.9,1.3,1.8,2,2.6c0.7,0.8,1.4,1.5,2.1,2.2c0.4,0.4,0.8,0.8,1.2,1.2c0.4,0.4,0.7,0.8,1,1.1
					c0.8,0.8,1.6,1.6,2.5,2.4c0.8,0.7,2,0.8,2.9,0.3v-4.1c-1.1-1-2.2-2-3.2-3.1c-0.1-0.1-0.1-0.1-0.2-0.2v0
					c-0.4-0.4-0.9-0.8-1.3-1.2l-0.3-0.2c-0.6-0.5-1.1-1-1.5-1.6l-0.4-0.6l-0.3-0.4l-0.1-0.1c-0.4-0.6-0.9-1.1-1.4-1.7
					c-0.8-0.9-1.5-1.7-2.4-2.6c-1.5-1.4-2.8-2.9-4.1-4.3c-1.3-1.4-2.8-2.7-4.2-4.1l-0.7-0.6c-0.4-0.3-0.7-0.7-1.1-1l-0.1-0.1
					c-0.5-0.4-0.9-0.9-1.4-1.3c-0.2-0.2-0.5-0.4-0.7-0.7l-0.2-0.2l-0.1-0.1c-0.5-0.4-1-0.9-1.5-1.4c-0.5-0.5-1.1-1-1.6-1.6l-0.1-0.1
					l-0.2-0.2c-0.2-0.2-0.3-0.4-0.5-0.5c-0.7-0.7-1.3-1.3-1.9-2c-0.3-0.3-0.6-0.6-0.8-0.9c-0.4-0.5-0.9-0.9-1.3-1.4
					c-0.6-0.6-1.3-1.3-1.9-1.8l-0.5-0.5c-0.5-0.5-1-1-1.5-1.4c-0.3-0.3-0.7-0.7-1-1c-0.6-0.6-1.2-1.1-1.8-1.6l-0.6-0.6
					c-0.5-0.4-0.9-0.9-1.4-1.3l-0.2-0.2c-0.2-0.2-0.4-0.4-0.6-0.5c-0.9-0.8-1.7-1.6-2.4-2.2l-0.2-0.2c-0.7-0.6-1.4-1.2-2.1-2
					c-0.5-0.5-1-1-1.4-1.6c-0.2-0.2-0.4-0.4-0.6-0.7c-0.9-1-1.6-1.8-2.3-2.5c-0.3-0.3-0.7-0.6-1-1c-0.5-0.4-1-0.9-1.4-1.3
					c-0.3-0.4-0.7-0.7-1-1.1c-0.4-0.5-0.8-0.9-1.3-1.4l-0.8-0.9c-0.5-0.5-1-1-1.5-1.5c-0.8-0.8-1.6-1.6-2.4-2.5l-0.1-0.1
					c-0.4-0.4-0.8-0.8-1.2-1.2l-0.3-0.3c-0.2-0.2-0.5-0.4-0.7-0.7c-0.1-0.1-0.1-0.1-0.2-0.2l-0.1-0.1l-0.5-0.7l-0.2-0.3v0
					c-0.2-0.3-0.5-0.6-0.7-0.9l0.4,0.5c-0.1-0.1-0.2-0.2-0.3-0.3c-0.3-0.5-0.9-0.9-1.5-1.1C12.6,353.3,12,353.4,11.4,353.7z"/>
				<path class="st1" d="M57.2,398.4c-0.5,0.3-0.9,0.8-1.1,1.4c-0.1,0.2-0.2,0.4-0.4,0.6c-0.5,0.5-1,1-1.5,1.5
					c-0.8,0.8-1.5,1.7-2.1,2.7c-0.6,0.7-1.3,1.3-1.9,2c-0.8,0.8-1.5,1.6-2.2,2.3c-0.7,0.7-1.4,1.4-2,2.1c-0.7,0.8-1.4,1.6-2.1,2.4
					l0,0c-0.4,0.5-0.9,1.1-1.3,1.6c-0.3,0.4-0.7,0.8-1.1,1.2c-0.4,0.4-0.8,0.9-1.2,1.4c-1.2,1.4-2.4,2.8-3.5,4.3
					c-0.6,0.8-1.2,1.6-1.8,2.4c-0.6,0.7-1.1,1.5-1.6,2.2c-0.7,0.8-1.4,1.5-2.1,2.3c-0.3,0.4-0.7,0.7-1,1.1c-0.4,0.4-0.8,0.8-1.3,1.2
					c-0.8,0.7-1.6,1.6-2.3,2.4c-0.6,0.8-1.4,1.5-2.1,2.2c-0.8,0.8-1.5,1.6-2.2,2.3s-1.6,1.5-2.4,2.2c-0.8,0.7-1.6,1.4-2.4,2.1
					c-0.8,0.8-1.6,1.7-2.2,2.7c-0.2,0.4-0.5,0.7-0.8,1.1c-0.6,0.6-1.2,1.2-1.8,1.8c-0.6,0.7-1.3,1.5-1.8,2.3
					c-0.8,0.9-1.7,1.6-2.5,2.5c-1,1-2,2-2.9,3.1c-0.8,1-1.7,1.9-2.7,2.9c-0.6,0.6-1.1,1.2-1.6,1.8c-0.4,0.5-0.7,1-1.1,1.5
					c-1.3,1.5-2.9,2.8-3.9,4.5c-0.2,0.3-0.4,0.7-0.6,1c-0.5,0.7-0.7,1.6-0.5,2.5c0.3,1.4,1.5,2.4,2.9,2.5c1,0,2-0.2,3-0.5
					c1-0.2,2-0.5,2.9-0.7c1.9-0.5,3.9-0.9,5.9-1.2c1.3-0.1,2.5-0.2,3.8-0.4c1-0.2,2-0.5,3-0.7c1-0.3,2.1-0.6,3.1-0.9
					c1.2-0.4,2.5-0.9,3.7-1.3c1.2-0.4,2.4-0.7,3.7-1c1-0.3,2-0.6,3-0.9c1.1-0.3,2.1-0.7,3.2-1c1.3-0.4,2.6-0.8,3.8-1.3
					c0.5-0.2,0.9-0.4,1.4-0.5c1-0.4,2-0.7,3.1-1c1.2-0.4,2.4-0.7,3.6-1.1c0.6-0.2,1.2-0.4,1.7-0.7l-0.2,0.5
					c-0.4,0.8-0.8,1.7-1.2,2.5c-0.3,0.8-0.6,1.6-0.9,2.4c-0.3,0.8-0.6,1.5-0.9,2.2c-0.3,0.7-0.6,1.5-0.9,2.2
					c-0.4,0.8-0.9,1.6-1.3,2.5c-0.5,0.9-0.9,1.9-1.3,2.9c-0.9,1.7-1.8,3.5-2.5,5.4c-0.3,0.9-0.5,1.8-0.9,2.6c-0.3,0.8-0.6,1.6-1,2.4
					c-0.3,0.7-0.6,1.3-0.9,2c-0.3,0.6-0.5,1.3-0.7,1.9c-0.4,1.3-0.9,2.5-1.5,3.8c-0.5,1.2-1,2.4-1.4,3.7c-0.4,1.2-0.8,2.4-1.3,3.5
					c-0.4,0.8-0.7,1.5-1,2.3c-0.3,0.9-0.6,1.8-0.9,2.6c-0.2,0.7-0.6,1.5-0.8,2.2c-0.2,0.7-0.3,1.4-0.1,2.1c0.3,1.1,1.3,1.9,2.4,2
					c1-0.1,2-0.5,2.6-1.3c0.6-0.5,1.3-1.1,1.9-1.6c0.6-0.6,1.2-1.2,1.8-1.7c0.6-0.5,1.3-1,1.9-1.5c0.6-0.4,1.1-0.8,1.7-1.2
					c0.5-0.4,0.9-0.8,1.4-1.2c1-1,2.2-1.7,3.3-2.6c0.6-0.5,1.2-1.1,1.8-1.7c0.5-0.5,1-1,1.5-1.4c0.6-0.5,1.2-1.1,1.7-1.6
					c0.6-0.6,1.1-1.3,1.6-1.9c0.7-0.8,1.5-1.5,2.3-2.2c0.8-0.7,1.7-1.5,2.5-2.2c0.8-0.7,1.7-1.5,2.5-2.2c0.9-0.8,1.9-1.5,2.8-2.3
					c0.8-0.7,1.5-1.4,2.2-2.2c0.8-0.8,1.6-1.5,2.4-2.3c0.7-0.7,1.5-1.3,2.2-2c0.7-0.8,1.5-1.5,2.2-2.3c1.6-1.6,3.2-3.3,4.9-4.8
					c0.8-0.8,1.7-1.5,2.6-2.3c0.2-0.1,0.3-0.3,0.5-0.5V461l-0.1,0.1c-1.7,1.6-3.3,3.2-5.1,4.7c-0.9,0.7-1.7,1.5-2.5,2.3
					c-0.8,0.8-1.6,1.6-2.4,2.4c-1.5,1.5-2.9,3.1-4.5,4.5c-0.8,0.7-1.6,1.4-2.4,2.1c-0.8,0.7-1.5,1.5-2.3,2.3c-1.6,1.6-3.4,3-5.2,4.5
					c-0.9,0.8-1.7,1.5-2.6,2.3s-1.8,1.5-2.6,2.3c-0.7,0.7-1.3,1.4-1.9,2.2c-0.8,0.9-1.7,1.7-2.6,2.5c-1,0.9-1.9,1.9-2.9,2.8
					c-0.9,0.8-1.9,1.5-2.9,2.2c-0.4,0.3-0.8,0.7-1.2,1.1c-0.4,0.4-0.8,0.7-1.2,1c-0.4,0.3-0.8,0.6-1.2,0.8c0.3-0.7,0.6-1.4,0.9-2.2
					c0.5-1.3,0.9-2.7,1.4-4s1.1-2.6,1.6-3.9c0.5-1.3,0.9-2.6,1.5-3.8c0.6-1.3,1.2-2.6,1.6-3.9c0.4-1.1,0.7-2.3,1.2-3.4
					c0.4-0.8,0.8-1.5,1.2-2.3c0.5-0.9,0.9-1.8,1.3-2.7c0.4-0.9,0.9-1.7,1.3-2.6c0.6-1.2,1.1-2.3,1.6-3.5c0.4-1,0.8-2,1.2-3
					c0.3-0.9,0.7-1.9,1.1-2.8c0.4-0.8,0.8-1.6,1.1-2.4c0.4-0.7,0.8-1.3,1.2-2c0.3-0.6,0.6-1.3,0.8-1.9c0.3-0.5,0.6-1.1,0.8-1.6
					c0.4-1.3-0.3-2.7-1.7-3.1c-0.4-0.1-0.8-0.1-1.2-0.1c-0.6,0.2-1.2,0.4-1.7,0.7c-0.4,0.2-0.9,0.5-1.3,0.7s-0.9,0.4-1.4,0.6
					c-0.9,0.4-1.7,0.7-2.6,1.1c-1.5,0.5-3.1,1-4.7,1.5c-1.6,0.5-3.2,1.2-4.8,1.8c-1,0.4-2,0.7-3,0.9c-0.9,0.3-1.9,0.6-2.8,0.9
					c-1,0.3-1.9,0.6-2.9,0.8c-1.1,0.3-2.2,0.5-3.3,0.9c-1.1,0.3-2.3,0.8-3.4,1.2c-1,0.4-2.1,0.7-3.1,1c-0.9,0.2-1.8,0.5-2.7,0.7
					c-0.4,0.1-0.8,0.2-1.2,0.3c-0.5,0.1-0.9,0.2-1.4,0.2c-1.1,0.1-2.2,0.2-3.3,0.3c-1.1,0.2-2.3,0.4-3.4,0.7c-0.7,0.1-1.3,0.3-2,0.5
					c0.2-0.2,0.4-0.4,0.6-0.6c0.5-0.5,0.9-1.1,1.4-1.6c0.4-0.5,0.7-1,1.1-1.4c0.7-0.8,1.4-1.5,2.1-2.2c0.5-0.5,1-1.1,1.4-1.6
					c0.5-0.6,1-1.1,1.5-1.7c0.9-1,1.8-1.9,2.8-2.8c0.4-0.4,0.9-0.8,1.3-1.3c0.4-0.5,0.9-1.1,1.3-1.6c0.7-0.8,1.6-1.5,2.3-2.4
					c0.5-0.5,0.9-1.1,1.3-1.7c0.2-0.4,0.5-0.7,0.8-1.1c0.6-0.6,1.2-1.2,1.8-1.8c0.9-0.7,1.7-1.5,2.6-2.3c0.8-0.7,1.5-1.4,2.2-2.2
					c0.7-0.8,1.5-1.5,2.2-2.3c0.7-0.7,1.3-1.6,2-2.3c0.8-0.8,1.7-1.5,2.4-2.4c0.7-0.8,1.4-1.6,2.2-2.3c0.1-0.1,0.2-0.2,0.3-0.3
					l0.2-0.2c0.2-0.3,0.5-0.6,0.8-0.9c0.2-0.2,0.4-0.4,0.5-0.7c0,0,0.1-0.1,0.1-0.1c0.2-0.3,0.5-0.6,0.7-1c0.6-0.9,1.4-1.7,2-2.6
					c0.6-0.8,1.1-1.6,1.7-2.3c0.8-1,1.6-1.9,2.4-2.8c0.4-0.5,0.9-0.9,1.3-1.4c0.6-0.7,1.2-1.4,1.7-2.1c0.1-0.2,0.3-0.4,0.4-0.5
					c1.4-1.7,3-3.2,4.6-4.8c0.8-0.8,1.6-1.6,2.4-2.4c0.9-1,1.7-2,2.5-3c0.6-0.6,1.2-1.2,1.7-1.8c0.3-0.4,0.7-0.8,1-1.2
					c0.3-0.5,0.5-0.9,0.7-1.4c0.2-0.6,0.1-1.3-0.2-1.8C59.8,398.2,58.4,397.8,57.2,398.4L57.2,398.4z"/>
				<path class="st1" d="M389.2,105.1L389.2,105.1l0.1,0C389.3,105.1,389.3,105.1,389.2,105.1L389.2,105.1z"/>
				<path class="st1" d="M395.4,107.6c-0.1-0.1-0.2-0.2-0.4-0.3c-1-0.7-2-1.2-3.1-1.5c-0.5-0.2-0.9-0.4-1.4-0.5
					c-0.4-0.1-0.8-0.2-1.2-0.3c-0.1,0.4-0.3,0.7-0.5,1.1c-0.1,0.2-0.1,0.3-0.2,0.5c-0.2,0.3-0.3,0.7-0.5,1l0,0.1L395.4,107.6z"/>
				<path class="st1" d="M438.6,29.5c-0.8,0.4-1.5,0.8-2.2,1.3c-1.9,1.2-3.6,2.6-5.2,4.1c-0.9,0.8-1.8,1.7-2.6,2.5
					c-0.8,0.8-1.6,1.6-2.4,2.3c-0.8,0.7-1.6,1.5-2.4,2.2c-0.8,0.8-1.7,1.6-2.6,2.4c-1.7,1.7-3.4,3.4-5.2,5c-1.8,1.5-3.4,3.2-5.1,4.8
					c-1.7,1.6-3.5,3.2-5.3,4.8c-1.7,1.5-3.4,3.1-5.2,4.6c-1.9,1.6-3.8,3.2-5.6,5c-0.1,0.1-0.1,0.1-0.2,0.2l0,0
					c-0.1,0.1-0.3,0.3-0.4,0.4l0.2-0.2c-0.5,0.5-0.9,1-1.4,1.5c-0.7,0.7-1.4,1.4-2.1,2c-0.8,0.8-1.7,1.5-2.6,2.3
					c-0.8,0.7-1.6,1.5-2.4,2.2c-0.8,0.7-1.6,1.3-2.4,1.9c-0.9,0.7-1.7,1.5-2.6,2.1c-0.8,0.6-1.6,1.2-2.4,1.8
					c-0.7,0.6-1.3,1.3-1.9,2.1c-0.2,0.3-0.4,0.5-0.6,0.8c0.2,0.2,0.4,0.4,0.6,0.6c0.1,0.1,0.2,0.1,0.3,0.2c0.5,0.3,1,0.7,1.5,1.2
					c0.3,0.3,0.5,0.5,0.7,0.8c0.2,0.1,0.4,0.2,0.7,0.3c0.1-0.1,0.1-0.2,0.2-0.3l0.3-0.4l0,0c0.4-0.5,0.7-0.9,1-1.2
					c0.6-0.5,1.2-1,1.8-1.5c0.7-0.5,1.4-1,2.1-1.6c0.7-0.6,1.4-1.1,2.2-1.8c0.7-0.5,1.3-1.1,2-1.6c0.7-0.6,1.4-1.2,2-1.8l0.2-0.2
					c0.3-0.3,0.6-0.6,1-0.9l0.1-0.1c0.4-0.3,0.7-0.6,1-0.9c1.3-1.2,2.6-2.5,4.2-4.2l0.1-0.1l0,0l0,0l0,0l-0.1,0.1l0.2-0.2l0.2-0.2
					l0.1-0.1l0.1,0c0.2-0.2,0.3-0.3,0.5-0.5c0.7-0.7,1.5-1.3,2.4-2.2c0.1,0,0.1-0.1,0.2-0.1l1.2-1l0.2-0.2c0.5-0.4,1-0.9,1.5-1.3
					c1.1-1,2.2-2,3.3-3l0.1-0.1c0.6-0.6,1.2-1.1,1.8-1.7c0.4-0.4,0.9-0.8,1.3-1.2s0.8-0.8,1.3-1.2l0.4-0.4l0.4-0.4
					c0.6-0.5,1.2-1.1,1.8-1.6c0.3-0.3,0.6-0.6,0.9-0.9l0.1-0.1c0.5-0.5,1-1,1.6-1.5c0.4-0.3,0.7-0.6,1.1-1l0.2-0.2
					c0.4-0.4,0.8-0.7,1.2-1.1c1-0.9,2.1-2,2.9-2.8l0.1-0.1c0.7-0.7,1.4-1.4,2.2-2.1c1.6-1.5,3.2-3,4.8-4.5l1.3-1.3
					c1.2-1.1,2.5-2.4,3.9-3.7c0.3-0.3,0.6-0.5,0.9-0.7c0.1-0.1,0.3-0.2,0.4-0.3l0.1-0.1c0,0,0.1-0.1,0.1-0.1l0,0l0,0
					c-0.1,0.5-0.2,1-0.3,1.5l0,0.2c-0.1,0.3-0.1,0.6-0.2,0.9c0,0,0,0,0,0.1l0-0.1c-0.4,1.6-0.6,2.9-0.8,4.1l-0.1,0.8l0,0.1
					c-0.1,0.8-0.3,1.7-0.4,2.5c-0.3,1-0.6,2-0.9,3l-0.4,1.1c-0.3,0.9-0.5,1.8-0.7,2.7c-0.1,0.3-0.1,0.7-0.2,1s-0.1,0.7-0.2,1
					c-0.2,0.8-0.5,1.7-0.8,2.5c-0.1,0.4-0.3,0.8-0.4,1.2c-0.4,1.4-0.9,2.9-1.3,4.6c-0.2,0.8-0.4,1.5-0.6,2.3l-0.1,0.3
					c-0.2,0.6-0.4,1.3-0.5,1.9c-0.2,1-0.5,1.9-0.7,2.9l0,0.2c-0.1,0.4-0.2,0.8-0.3,1.3c-0.4,1.4-0.9,2.9-1.5,4.2
					c-0.5,1.2-1,2.4-1.5,3.6l-0.1,0.2l-0.2,0.4l-0.1,0.3c-0.2,0.5-0.4,1-0.7,1.5c-0.3,0.5-0.5,1-0.6,1.5c-0.1,0.3-0.2,0.7-0.2,1
					c0,0.1,0,0.3,0,0.4c0.1,0.4,0.3,0.9,0.5,1.2c0.3,0.4,0.8,0.8,1.4,0.9c0.5,0.1,1,0.2,1.6,0.1c0.3-0.1,0.6-0.1,0.8-0.2l0.1,0
					l0.3-0.1c0.4-0.1,0.8-0.2,1.1-0.3l0.2,0l0.2,0l0.4-0.1c0.7-0.1,1.3-0.3,2-0.5c0.8-0.3,1.5-0.5,2.1-0.8c1.4-0.6,3.4-1.4,5.6-2.1
					c0.5-0.2,1-0.4,1.5-0.6c0.4-0.2,0.8-0.3,1.3-0.5l0.5-0.2c0.7-0.3,1.5-0.5,2.2-0.9c2-1,4.1-1.9,6-2.7l0.1,0
					c0.8-0.3,1.6-0.7,2.3-1l0.9-0.3c0.7-0.3,1.3-0.6,1.9-1c0.4-0.2,0.7-0.4,1.1-0.6c1.1-0.5,2.3-1,3.5-1.4c1.1-0.4,2.2-0.9,3.3-1.4
					c1-0.5,2-0.9,2.9-1.4c0.5-0.3,1-0.6,1.6-0.8l0,0l0,0c-1.1,1.2-2.1,2.3-3,3.4c-0.8,1-1.6,2-2.5,3l-0.2,0.2
					c-0.7,0.9-1.5,1.8-2.3,2.7c-0.3,0.4-0.7,0.8-1,1.2l-0.3,0.3c-1,1.2-2.2,2.6-3.4,4l-0.5,0.6l-1.1,1.1l0,0l0,0l-0.1,0.1l-0.2,0.1
					l-0.1,0.1l0.1-0.1c-1,1.1-2.1,2.2-3.1,3.3c-0.9,0.9-1.7,1.8-2.6,2.7c-1,1-2,2.1-3,3.2c-0.8,0.8-1.6,1.7-2.3,2.5
					c-0.8,0.8-1.5,1.5-2.3,2.3L440,102c-1.2,1.2-2.4,2.4-3.6,3.6c-0.6,0.7-1.2,1.3-1.8,2h6.5c1-1,2-2,3-3c1.4-1.4,2.8-2.8,4.1-4.3
					c2.5-2.7,5-5.3,7.5-8c0.6-0.6,1.1-1.2,1.7-1.8c0.8-0.8,1.6-1.7,2.4-2.5c0.9-0.9,1.7-1.9,2.5-2.9c0.8-1,1.6-1.9,2.4-2.9
					c1.6-2,3.2-4,4.9-5.9c1.5-1.8,3.2-3.5,4.8-5.3c0.8-0.8,1.5-1.7,2.3-2.6c0.7-0.8,1.4-1.5,2.1-2.3c0.4-0.4,0.8-0.7,1.2-1.1
					c0.2-0.2,0.5-0.4,0.7-0.7c0.2-0.1,0.4-0.3,0.5-0.5c0.3-0.4,0.5-0.9,0.5-1.5c0-0.1,0-0.3,0-0.4c-0.1-0.8-0.7-1.6-1.5-1.9
					c-0.8-0.3-1.7-0.2-2.3,0.4c0,0-0.1,0-0.1,0.1c-0.2,0.1-0.4,0.2-0.5,0.3c-0.9,0.5-1.8,0.9-2.7,1.3c-1,0.5-2,1-3,1.5
					c-2.2,1.1-4.3,2.3-6.5,3.5c-1,0.5-1.9,1-2.9,1.5c-1,0.5-2.1,1-3.1,1.4c-1.2,0.4-2.4,0.8-3.6,1.4c-1.1,0.5-2,1.1-3.1,1.6
					c-1,0.4-2.1,0.8-3.1,1.3c-1.1,0.5-2.1,1-3.2,1.4c-1.9,0.8-3.7,1.8-5.6,2.5c-0.9,0.3-1.8,0.7-2.7,1.1c-1,0.4-2,0.7-3,1.1
					c-0.9,0.3-1.8,0.7-2.7,1.1c-1,0.4-1.9,0.8-2.9,1.1l-0.1,0c0.5-1.1,0.9-2.2,1.4-3.3c0.6-1.3,1.1-2.6,1.6-4
					c0.4-1.6,0.7-3.1,1.1-4.7c0.3-1.3,0.7-2.6,1-3.9c0.4-1.4,0.8-2.9,1.2-4.3c0.2-0.7,0.4-1.4,0.6-2.1c0.2-0.6,0.4-1.1,0.6-1.7
					c0.4-1.4,0.7-2.9,1-4.4c0.5-2,1.3-3.9,1.8-5.9c0.6-2.5,0.8-5,1.4-7.5c0.2-0.7,0.3-1.4,0.5-2.2c0.1-0.6,0.2-1.2,0.4-1.9
					c0.2-0.7,0.3-1.4,0.5-2.1c0.3-0.7,0.4-1.5,0.5-2.3c0-0.3,0-0.6,0-0.9c-0.1-0.7-0.5-1.2-1-1.6c-0.4-0.3-0.9-0.4-1.3-0.5
					C439.5,29.2,439,29.3,438.6,29.5z"/>
				<path class="st1" d="M393.4,70.1c-0.1,0.1-0.2,0.2-0.4,0.4C393.2,70.4,393.3,70.3,393.4,70.1z"/>
				<path class="st1" d="M394.6,68.8L394.6,68.8L394.6,68.8z"/>
				<path class="st1" d="M394.7,68.8l0.1-0.1l0.2-0.3C394.9,68.5,394.8,68.6,394.7,68.8z"/>
				<path class="st1" d="M394.6,68.8L394.6,68.8C394.7,68.8,394.6,68.8,394.6,68.8z"/>
				<path class="st1" d="M32.9,489.8c0.2,0,0.3,0.1,0.5,0.1c-0.1,0.1-0.2,0.2-0.3,0.3C33.1,490,33,489.9,32.9,489.8L32.9,489.8z"/>
				<polygon class="st1" points="33.2,382.6 33.2,382.6 33.2,382.6 33.2,382.6 33.2,382.6 				"/>
				<path class="st1" d="M33.2,382.6L33.2,382.6C33.2,382.6,33.2,382.6,33.2,382.6L33.2,382.6L33.2,382.6z"/>
				<path class="st1" d="M364.7,84.9L364.7,84.9c0.1,0.1,0.2,0.1,0.3,0.2C364.9,85,364.8,84.9,364.7,84.9L364.7,84.9z"/>
				<path class="st1" d="M439.4,27.6c-0.3,0.2-0.7,0.4-1,0.6c-1.7,1-3,2.6-4.5,3.9c-0.5,0.4-1,0.7-1.5,1.1c-0.6,0.5-1.2,1-1.8,1.6
					c-0.9,0.9-1.9,1.8-2.9,2.7c-1.1,0.9-2.1,1.9-3.1,2.9c-0.8,0.8-1.6,1.7-2.5,2.5c-0.8,0.6-1.5,1.2-2.3,1.8
					c-0.6,0.6-1.2,1.2-1.8,1.8c-0.4,0.3-0.7,0.5-1.1,0.8c-1,0.6-1.9,1.4-2.7,2.2c-0.7,0.8-1.4,1.6-2.1,2.4s-1.4,1.6-2.2,2.4
					s-1.6,1.5-2.3,2.2c-0.7,0.7-1.4,1.4-2.2,2.1c-0.9,0.7-1.7,1.5-2.4,2.3c-0.4,0.4-0.8,0.9-1.2,1.3c-0.4,0.3-0.7,0.7-1.1,1
					c-0.7,0.7-1.5,1.5-2.3,2.1c-0.7,0.6-1.5,1.1-2.2,1.6c-0.8,0.6-1.6,1.2-2.4,1.8c-1.5,1.1-2.9,2.3-4.3,3.5
					c-0.5,0.4-0.9,0.7-1.4,1.2c-0.4,0.4-0.8,0.7-1.2,1.1c-0.4,0.3-0.8,0.6-1.2,0.9c-0.2,0.1-0.3,0.3-0.5,0.4l0,0
					c-0.8,0.7-1.6,1.4-2.4,2.1c-0.7,0.6-1.4,1.3-2.1,2c-0.8,0.8-1.6,1.5-2.3,2.2c-0.7,0.6-1.3,1.3-2,1.9c-0.5,0.4-1.1,0.8-1.6,1.2
					c0.5,0.4,0.9,0.9,1.4,1.3c0.1,0.1,0.2,0.1,0.3,0.2c0.5,0.3,1,0.7,1.5,1.2c0.2,0.2,0.4,0.4,0.5,0.6c0.8-0.6,1.5-1.2,2.2-1.8
					c0.8-0.8,1.6-1.6,2.5-2.4c1.6-1.5,3.1-3.1,4.8-4.6c0.2-0.1,0.4-0.3,0.5-0.4c0.7-0.6,1.5-1.1,2.1-1.7c0.5-0.4,0.9-0.9,1.4-1.3
					c1-0.8,1.9-1.6,2.8-2.4c0.8-0.6,1.6-1.1,2.3-1.7c0.9-0.6,1.7-1.4,2.6-2c0.3-0.2,0.7-0.5,1-0.7l0.1-0.1c0.2-0.2,0.4-0.3,0.7-0.5
					c0.3-0.3,0.6-0.6,0.9-0.8c0.1,0,0.1-0.1,0.2-0.1c0.1-0.1,0.2-0.2,0.3-0.3c0.8-0.7,1.5-1.5,2.3-2.2c0.8-0.8,1.5-1.7,2.4-2.4
					c0.8-0.7,1.6-1.3,2.3-2c0.8-0.7,1.5-1.5,2.3-2.2c0.8-0.7,1.5-1.5,2.2-2.2c0.8-0.9,1.6-1.7,2.3-2.6c0.5-0.7,1.1-1.3,1.8-1.8
					c0.4-0.3,0.7-0.5,1.1-0.8c0.6-0.4,1.2-0.8,1.7-1.3c0.8-0.7,1.5-1.5,2.4-2.3c0.5-0.4,1.1-0.8,1.6-1.3c0.5-0.4,0.9-0.8,1.3-1.3
					c0.9-1,1.8-1.9,2.8-2.8c0.6-0.5,1.1-1,1.7-1.5c0.5-0.5,1.1-0.9,1.6-1.4c0.7-0.7,1.4-1.4,2.2-2.1c0.5-0.4,1-0.7,1.4-1.1
					c0.6-0.5,1.1-0.9,1.6-1.4c0.2-0.2,0.4-0.4,0.6-0.6c-0.2,0.7-0.3,1.3-0.5,2c-0.2,1.1-0.5,2.2-0.7,3.4c-0.2,1.1-0.3,2.2-0.3,3.3
					c0,0.5-0.1,0.9-0.2,1.4c-0.1,0.4-0.2,0.8-0.3,1.2c-0.2,0.9-0.4,1.8-0.7,2.7c-0.3,1-0.6,2.1-1,3.1c-0.4,1.1-0.8,2.2-1.2,3.4
					c-0.3,1.1-0.6,2.2-0.9,3.3c-0.3,1-0.5,1.9-0.8,2.9c-0.3,0.9-0.6,1.9-0.9,2.8c-0.3,1-0.6,2-0.9,3c-0.6,1.6-1.3,3.1-1.8,4.8
					c-0.5,1.6-0.9,3.1-1.5,4.7c-0.3,0.9-0.7,1.7-1.1,2.6c-0.2,0.5-0.4,0.9-0.6,1.4s-0.5,0.9-0.7,1.3c-0.3,0.5-0.6,1.1-0.7,1.7
					c-0.3,1.3,0.6,2.7,1.9,3c0.4,0.1,0.8,0.1,1.3,0c0.6-0.2,1.1-0.5,1.6-0.8c0.7-0.2,1.3-0.5,1.9-0.8c0.7-0.4,1.3-0.8,2-1.2
					c0.8-0.4,1.6-0.7,2.4-1.1c0.9-0.4,1.8-0.8,2.8-1.1c1-0.4,2-0.8,3-1.2c1.2-0.5,2.4-1,3.5-1.6c0.9-0.4,1.7-0.9,2.6-1.3
					c0.9-0.4,1.8-0.8,2.7-1.3c0.8-0.4,1.5-0.8,2.3-1.2c1.1-0.5,2.2-0.8,3.4-1.2c1.3-0.5,2.6-1,3.9-1.6c1.2-0.5,2.5-1,3.8-1.5
					c1.3-0.5,2.6-1.1,3.9-1.6s2.7-0.9,4-1.4c0.7-0.3,1.4-0.6,2.2-0.9c-0.3,0.4-0.6,0.8-0.8,1.2c-0.3,0.4-0.6,0.8-1,1.2
					c-0.4,0.4-0.8,0.8-1.1,1.2c-0.8,0.9-1.4,1.9-2.2,2.9c-0.9,1-1.9,1.9-2.8,2.9c-0.8,0.9-1.6,1.8-2.5,2.6c-0.8,0.6-1.5,1.2-2.2,1.9
					c-0.8,0.8-1.5,1.7-2.3,2.6s-1.5,1.7-2.3,2.6c-1.5,1.7-2.9,3.5-4.5,5.2c-0.8,0.8-1.5,1.5-2.3,2.3s-1.4,1.6-2.1,2.4
					c-1.4,1.6-3,3-4.5,4.5c-0.8,0.8-1.6,1.6-2.4,2.4c-0.8,0.8-1.5,1.7-2.3,2.5c-0.9,1-1.8,2-2.7,3h6.4c0.2-0.3,0.5-0.6,0.7-0.8
					c1.5-1.7,3.2-3.3,4.8-4.9c0.8-0.7,1.5-1.5,2.3-2.2c0.7-0.7,1.3-1.4,2-2.2c0.7-0.8,1.5-1.6,2.3-2.4c0.7-0.7,1.5-1.4,2.2-2.2
					c0.8-0.9,1.5-1.9,2.3-2.8c0.7-0.9,1.5-1.7,2.2-2.5s1.5-1.7,2.2-2.5c0.7-0.8,1.4-1.6,2.2-2.3c0.7-0.5,1.3-1,1.9-1.6
					c0.6-0.5,1.1-1.1,1.6-1.7c0.5-0.5,0.9-1,1.4-1.5c0.6-0.6,1.2-1.2,1.7-1.8c0.9-1.1,1.7-2.3,2.6-3.3c0.4-0.5,0.8-0.9,1.2-1.4
					c0.4-0.5,0.8-1.1,1.2-1.7c0.5-0.7,1-1.3,1.5-1.9c0.5-0.6,1.2-1.2,1.7-1.8s1.1-1.2,1.7-1.9c0.7-0.6,1.2-1.5,1.3-2.5
					c0-0.1,0-0.1,0-0.2c-0.1-1.1-0.9-2.1-2-2.4c-0.7-0.1-1.4-0.1-2.1,0.1c-0.7,0.2-1.5,0.6-2.2,0.8c-0.9,0.3-1.8,0.5-2.6,0.9
					c-0.8,0.3-1.5,0.7-2.3,1c-1.2,0.5-2.3,0.9-3.5,1.3c-1.3,0.4-2.5,0.9-3.7,1.4c-1.2,0.5-2.5,1-3.8,1.5c-0.6,0.2-1.3,0.4-1.9,0.7
					c-0.7,0.3-1.3,0.6-2,0.9c-0.8,0.4-1.6,0.7-2.4,1c-0.9,0.3-1.8,0.6-2.6,0.9c-1.8,0.8-3.6,1.6-5.4,2.5c-1,0.4-1.9,0.9-2.9,1.3
					c-0.8,0.4-1.7,0.9-2.5,1.3c-0.7,0.3-1.5,0.6-2.2,0.9s-1.5,0.6-2.2,0.9c-0.8,0.3-1.6,0.6-2.4,0.9c-0.9,0.4-1.7,0.8-2.5,1.2
					c-0.2,0.1-0.4,0.2-0.5,0.2c0.2-0.6,0.5-1.2,0.7-1.7c0.4-1.2,0.7-2.4,1.1-3.6c0.3-1,0.7-2,1-3.1c0.2-0.5,0.4-0.9,0.5-1.4
					c0.5-1.2,0.9-2.5,1.3-3.8c0.3-1.1,0.6-2.1,1-3.2c0.3-1,0.6-2,0.9-3.1c0.3-1.2,0.6-2.5,1-3.7c0.4-1.3,0.9-2.5,1.3-3.7
					c0.3-1,0.6-2.1,0.9-3.1c0.3-1,0.5-2,0.7-3c0.2-1.3,0.4-2.5,0.4-3.8c0.3-2,0.7-3.9,1.2-5.9c0.2-1,0.4-2,0.7-2.9
					c0.3-1,0.5-2,0.5-3c-0.1-1.4-1.1-2.6-2.5-2.9C441.1,27,440.2,27.2,439.4,27.6z"/>
				<path class="st1" d="M472.3,67.9c0,0.1-0.1,0.1-0.1,0.2C472.2,68,472.3,68,472.3,67.9z"/>
				<polygon class="st1" points="386,75.3 386,75.2 386,75.3 386,75.3 				"/>
				<path class="st1" d="M319,35C319.1,35,319.1,35,319,35c-0.6,0.1-1.2,0.3-1.8,0.6c-0.9,0.4-1.8,0.9-2.7,1.4
					c-1.5,0.7-2.9,1.4-4.4,2.1c-1,0.5-2,0.9-3,1.4c-0.4,0.2-0.8,0.4-1.1,0.6c-0.4,0.3-0.8,0.6-1.2,0.9c-0.4,0.3-0.8,0.7-1.2,1
					s-0.9,0.6-1.3,0.9c-1.1,0.7-2.2,1.3-3.2,1.9c-1.1,0.7-1.4,2.2-0.6,3.3c0.4,0.5,0.9,0.9,1.6,1c0.6,0.1,1.2,0,1.8-0.4
					c0.9-0.5,1.7-1,2.6-1.5c0.7-0.4,1.4-0.9,2.1-1.3c0.6-0.5,1.2-1,1.9-1.5c0.5-0.3,1-0.6,1.5-0.9c0.5-0.2,1-0.4,1.5-0.6
					c0.7-0.3,1.4-0.7,2.1-1c0.9-0.4,1.8-0.8,2.8-1.3s1.8-1,2.7-1.4c0.5-0.2,1.1-0.4,1.7-0.6h0c0.2,0,0.4,0.1,0.6,0.1
					c0.9,0.4,1.8,0.8,2.6,1.3c1.6,1.1,3.1,2.3,4.5,3.7c1.7,1.6,3.2,3.4,5,5c1.5,1.3,3.2,2.6,4.7,3.9c1.4,1.2,2.7,2.4,4.1,3.6
					c1.4,1.3,2.8,2.5,4.3,3.7s2.8,2.5,4.2,3.7c0.7,0.6,1.4,1.2,2.1,1.8c0.8,0.6,1.6,1.2,2.3,1.9c0.6,0.5,1.1,1.1,1.6,1.7
					c0.6,0.6,1.2,1.3,1.8,1.9c0.7,0.8,1.3,1.5,2,2.3c0.1,0.1,0.2,0.2,0.2,0.3l0,0c1,1.1,1.9,2.3,2.9,3.4c1,1.1,2,2.1,3,3.1
					c0.9,1,1.9,2,2.9,3c1,1.1,2.1,2.1,3.2,3.1c1,1,2,1.9,3,3c0.6,0.8,1.2,1.6,1.8,2.3c0.9,1.1,1.8,2.1,2.8,3.1
					c0.1,0.1,0.2,0.3,0.4,0.4c0.5,0.6,1,1.2,1.5,1.8c0.6,0.7,1.3,1.4,1.9,2.2c0.5,0.6,1,1.2,1.5,1.8c0.4,0.5,0.8,0.9,1.3,1.3
					c0.9,1,1.8,2.1,2.5,3.3c0.3,0.5,0.7,1,1,1.5l0,0.1h0.4c0.7-0.3,1.5-0.3,2.2,0h2.9c-0.1-0.2-0.1-0.3-0.2-0.5
					c-0.3-0.7-0.7-1.4-1.3-2c-0.2-0.3-0.5-0.6-0.7-1c-0.6-0.9-1.2-1.8-1.9-2.7c-1-1.2-2-2.4-3-3.4c-0.2-0.2-0.3-0.4-0.5-0.6
					c-0.2-0.2-0.4-0.5-0.6-0.7c-0.5-0.6-1-1.2-1.6-1.8l-0.1-0.1l-0.2-0.2l-0.9-1c-0.3-0.4-0.6-0.7-0.9-1.1l0,0.1l-0.1-0.1l-0.2-0.2
					l-0.1-0.1c-0.4-0.5-0.8-0.9-1.3-1.4l-0.7-0.8c-0.4-0.5-0.8-1-1.2-1.5l-0.5-0.6l0,0c-0.5-0.6-1-1.2-1.6-1.8
					c-1.3-1.3-2.6-2.6-3.9-3.8c-1.3-1.2-2.5-2.5-3.7-3.7c-0.6-0.6-1.2-1.3-1.8-1.9s-1.3-1.3-1.9-1.9c0-0.1-0.1-0.1-0.1-0.2
					c-1-1.2-1.9-2.3-3-3.5c-0.1-0.1-0.1-0.2-0.2-0.2l0.1,0.1c-0.9-1-1.8-2.1-2.7-3.1c-0.7-0.8-1.5-1.5-2.2-2.3
					c-0.7-0.8-1.5-1.5-2.3-2.1c-0.4-0.4-0.9-0.7-1.4-1.1s-0.9-0.8-1.3-1.2c-0.8-0.8-1.7-1.5-2.5-2.2c-0.8-0.7-1.6-1.5-2.4-2.2
					c-1.6-1.4-3.3-2.8-4.9-4.2c-1.4-1.2-2.8-2.4-4.1-3.6c-1.6-1.4-3.3-2.6-4.9-4.1c-1.6-1.6-3.1-3.3-4.8-4.8c-1.6-1.5-3.4-2.8-5.3-4
					c-1-0.6-2.1-1.1-3.3-1.4c-0.3-0.1-0.5-0.1-0.8-0.1C320.4,34.8,319.7,34.8,319,35z"/>
				<path class="st1" d="M320.5,39.6L320.5,39.6c-0.1,0-0.2,0-0.2,0.1L320.5,39.6L320.5,39.6z"/>
				<path class="st1" d="M364.1,71.4L364.1,71.4l0.3,0.3L364.1,71.4z"/>
				<path class="st1" d="M363.9,71.2l0.1,0.1L363.9,71.2z"/>
				<path class="st0" d="M436.3,36.7c-0.1,0.1-0.3,0.2-0.4,0.3c-0.3,0.2-0.6,0.5-0.9,0.7c-1.3,1.2-2.7,2.5-3.9,3.7l-1.3,1.3
					c-1.6,1.5-3.2,3-4.8,4.5c-0.7,0.7-1.5,1.4-2.2,2.1l-0.1,0.1c-0.9,0.9-1.9,1.9-2.9,2.8c-0.4,0.4-0.8,0.7-1.2,1.1l-0.2,0.2
					c-0.4,0.3-0.7,0.6-1.1,1c-0.5,0.5-1.1,1-1.6,1.5l-0.1,0.1c-0.3,0.3-0.6,0.6-0.9,0.9c-0.6,0.6-1.2,1.1-1.8,1.6l-0.4,0.4l-0.4,0.4
					c-0.4,0.4-0.9,0.8-1.3,1.2c-0.4,0.4-0.8,0.8-1.3,1.2c-0.6,0.5-1.2,1.1-1.8,1.7l-0.1,0.1c-1.1,1-2.2,2-3.3,3
					c-0.5,0.4-1,0.9-1.5,1.3c-0.3,0.2-0.6,0.5-0.9,0.8c-0.2,0.2-0.4,0.4-0.7,0.5c-1,0.8-1.7,1.5-2.4,2.2c-0.2,0.2-0.3,0.3-0.5,0.5
					l-0.1,0l-0.1,0.1l-0.2,0.2l-0.2,0.2l0.1-0.1c-1.7,1.8-3,3.1-4.3,4.3c-0.3,0.3-0.7,0.6-1,0.9l-0.1,0.1c-0.3,0.3-0.6,0.6-1,0.9
					l-0.2,0.2c-0.6,0.6-1.3,1.2-2,1.8c-0.6,0.5-1.3,1.1-2,1.6c-0.9,0.7-1.6,1.3-2.2,1.8c-0.7,0.6-1.4,1.1-2.1,1.6
					c-0.6,0.4-1.3,0.9-1.8,1.5c-0.3,0.3-0.6,0.7-1,1.2l0.5,0.6c0.4,0.5,0.8,1,1.2,1.5l0.7,0.8c0.4,0.5,0.9,0.9,1.3,1.4l0.1,0.1
					l0.2,0.2l0.1,0.1l0-0.1c0.3,0.4,0.6,0.7,0.9,1.1l0.9,1l0.2,0.2l0.1,0.1c0.5,0.6,1.1,1.2,1.6,1.8c0.2,0.2,0.4,0.5,0.6,0.7
					c0.2,0.2,0.3,0.4,0.5,0.6c1,1,2,2.2,3,3.4c0.7,0.9,1.3,1.8,1.9,2.7c0.2,0.3,0.5,0.7,0.7,1c0.5,0.6,0.9,1.3,1.3,2l0.1,0.2h38.8
					c0.6-0.7,1.2-1.3,1.8-2c1.2-1.2,2.4-2.5,3.6-3.6l0.1-0.1c0.8-0.8,1.5-1.5,2.3-2.3c0.8-0.8,1.6-1.7,2.3-2.5c1-1.1,2-2.1,3-3.2
					c0.9-0.9,1.7-1.8,2.6-2.7c1-1.1,2.1-2.2,3.1-3.3l-0.2,0.1l0.2-0.1l0.2-0.1l0.1-0.1l0,0l0,0l0,0l1.1-1.1l0.5-0.6
					c1.2-1.3,2.5-2.8,3.4-4l0.3-0.3c0.3-0.4,0.7-0.8,1-1.2c0.8-0.9,1.5-1.8,2.3-2.7l0.2-0.2c0.8-1,1.6-2,2.5-3c0.9-1,1.8-2.1,3-3.4
					v0v0c-0.5,0.3-1.1,0.6-1.6,0.8c-0.9,0.5-1.9,0.9-2.9,1.4c-1.1,0.5-2.2,1-3.3,1.4c-1.2,0.4-2.4,0.8-3.5,1.4
					c-0.4,0.2-0.8,0.4-1.1,0.6c-0.6,0.4-1.3,0.7-1.9,1l-0.9,0.3c-0.8,0.3-1.6,0.6-2.3,1l-0.1,0c-1.8,0.8-3.9,1.8-6,2.7
					c-0.7,0.4-1.5,0.6-2.2,0.9l-0.5,0.2c-0.4,0.2-0.8,0.3-1.3,0.5c-0.5,0.2-1,0.4-1.5,0.6c-2.1,0.7-4.2,1.6-5.6,2.1
					c-0.6,0.3-1.3,0.5-2.1,0.8c-0.6,0.2-1.3,0.4-2,0.5l-0.4,0.1l-0.2,0l-0.2,0c-0.4,0.1-0.8,0.2-1.1,0.3L427,88l-0.1,0
					c-0.3,0.1-0.6,0.2-0.8,0.2c-0.5,0.1-1.1,0-1.6-0.1c-0.5-0.1-1-0.4-1.4-0.9c-0.3-0.4-0.5-0.8-0.5-1.2c0-0.1,0-0.3,0-0.4
					c0-0.4,0.1-0.7,0.2-1c0.2-0.5,0.4-1,0.6-1.5c0.3-0.5,0.5-1,0.7-1.5l0.1-0.3l0.2-0.4l0.1-0.2c0.5-1.2,1-2.4,1.5-3.6
					c0.6-1.4,1.1-2.8,1.5-4.2c0.1-0.4,0.2-0.8,0.3-1.3l0-0.2c0.2-1,0.4-1.9,0.7-2.9c0.2-0.6,0.3-1.3,0.5-1.9l0.1-0.3
					c0.2-0.8,0.4-1.5,0.6-2.3c0.4-1.7,0.9-3.2,1.3-4.6c0.1-0.4,0.2-0.8,0.4-1.2c0.3-0.9,0.5-1.7,0.8-2.5c0.1-0.3,0.1-0.7,0.2-1
					s0.1-0.7,0.2-1c0.2-0.9,0.4-1.8,0.7-2.7c0.1-0.4,0.2-0.7,0.4-1.1c0.3-1,0.7-2,0.9-3c0.2-0.8,0.3-1.7,0.4-2.5l0-0.1l0.1-0.8
					c0.2-1.2,0.5-2.5,0.8-4.1l0,0.1c0.1-0.3,0.2-0.7,0.2-1l0-0.2c0.1-0.5,0.2-1,0.3-1.5L436.3,36.7z"/>
				<path class="st0" d="M58.9,405.7L58.9,405.7c-0.2,0.1-0.2,0.2-0.3,0.3c-0.1,0.2-0.3,0.3-0.4,0.5c-0.4,0.5-0.8,0.9-1.3,1.2
					c-0.7,0.5-1.2,0.9-1.6,1.3c-0.5,0.6-1,1.2-1.5,1.8c-0.5,0.7-1,1.4-1.6,2.1c-0.6,0.7-1.1,1.4-1.8,2.2c-0.5,0.7-1.1,1.3-1.6,2
					c-0.6,0.7-1.2,1.3-1.8,2l-0.2,0.2c-0.3,0.3-0.6,0.6-0.9,1l-0.1,0.1c-0.3,0.4-0.6,0.7-0.9,1c-1.2,1.3-2.6,2.7-4.5,4.5l0.1,0
					l-0.5,0.4l0.1-0.1c-0.2,0.1-0.3,0.3-0.5,0.5c-0.7,0.7-1.3,1.5-2.2,2.4c-0.2,0.2-0.3,0.4-0.5,0.7c-0.3,0.3-0.6,0.6-0.8,0.9
					c-0.4,0.5-0.9,1-1.3,1.5c-1,1.2-2.1,2.3-3.1,3.4l-0.4,0.5c-0.4,0.4-0.8,0.9-1.2,1.3c-0.4,0.4-0.8,0.9-1.2,1.3s-0.8,0.8-1.2,1.3
					l-0.8,0.9c-0.5,0.6-1.1,1.2-1.6,1.8c-0.3,0.3-0.6,0.6-0.9,0.9l-0.1,0.1c-0.5,0.5-1,1-1.5,1.6l-1,1.1l-0.2,0.2
					c-0.4,0.4-0.7,0.8-1.1,1.2c-0.9,1-2,2.1-2.8,2.9l-0.1,0.1c-0.7,0.7-1.4,1.5-2.1,2.2c-1.5,1.6-3,3.2-4.5,4.8l-1.3,1.3
					c-1.1,1.2-2.4,2.5-3.7,3.9c-0.3,0.3-0.5,0.6-0.7,0.9c-0.1,0.1-0.2,0.3-0.3,0.4l-0.2,0.2l1-0.2l0.5-0.1c0.6-0.1,1.1-0.2,1.7-0.3
					l0.1,0c1.4-0.3,2.5-0.5,3.5-0.7l0.9-0.1l0.2,0c0.8-0.1,1.6-0.2,2.4-0.4c1-0.3,1.9-0.6,2.8-0.9l0.1,0l0.3-0.1
					c0.3-0.1,0.6-0.2,0.9-0.3c0.9-0.3,1.8-0.5,2.7-0.7c0.2,0,0.5-0.1,0.7-0.1l0.3-0.1c0.4-0.1,0.7-0.1,1.1-0.2
					c0.8-0.2,1.7-0.5,2.5-0.8l0.1,0l1.1-0.4c1.5-0.5,3-0.9,4.6-1.3c0.7-0.2,1.3-0.3,2-0.5l0.3-0.1c0.8-0.2,1.5-0.4,2.3-0.6
					c0.9-0.2,1.9-0.5,2.8-0.7l0.1,0l0.4-0.1l0.9-0.2c1.4-0.4,2.9-0.9,4.2-1.5c1.3-0.5,2.5-1.1,3.8-1.6l0.4-0.2l0.3-0.1
					c0.5-0.2,1.1-0.4,1.6-0.7c0.5-0.3,1-0.5,1.5-0.6c0.5-0.2,0.9-0.2,1.4-0.2c0.4,0.1,0.8,0.3,1.2,0.5c0.4,0.3,0.8,0.8,0.9,1.4
					c0.1,0.4,0.2,0.7,0.2,1.1c0,0.2,0,0.3,0,0.5c-0.1,0.3-0.1,0.6-0.2,0.9l0,0.1l-0.1,0.2c-0.1,0.4-0.2,0.8-0.3,1.2
					c0,0.1-0.1,0.2-0.1,0.3l-0.1,0.4l0,0.1c-0.1,0.6-0.3,1.3-0.5,1.9c-0.3,0.8-0.5,1.5-0.8,2.1c-0.6,1.4-1.4,3.4-2.1,5.6
					c-0.2,0.5-0.4,1-0.6,1.5c-0.2,0.5-0.4,0.9-0.5,1.3l-0.2,0.5c-0.2,0.7-0.5,1.5-0.9,2.2c-1,2.1-2,4.4-2.8,6
					c-0.3,0.8-0.7,1.6-1,2.3l-0.3,0.9c-0.3,0.6-0.6,1.3-0.9,1.9c-0.2,0.4-0.4,0.8-0.6,1.2c-0.5,1.1-1,2.3-1.4,3.5
					c-0.4,1.1-0.9,2.2-1.4,3.3c-0.5,1-0.9,2-1.4,2.9c-0.3,0.5-0.6,1-0.8,1.6c1.5-1.3,2.5-2.2,3.4-2.9c1-0.8,2-1.7,3-2.5l0.2-0.2
					c0.9-0.7,1.8-1.5,2.7-2.3c0.5-0.4,1-0.9,1.6-1.3c1.3-1.1,2.7-2.2,4-3.4c0.6-0.6,1.2-1.2,1.8-1.8l0.2-0.2l0.1-0.1l0.1-0.1
					l-0.2,0.1c1.1-1,2.2-2.1,3.3-3.1c0.9-0.9,1.8-1.7,2.7-2.6c0.9-0.9,1.8-1.7,2.8-2.6l0.4-0.4c0.8-0.8,1.7-1.6,2.5-2.4
					c0.8-0.8,1.5-1.5,2.3-2.3l0.1-0.1c1.2-1.2,2.4-2.4,3.6-3.6c0.8-0.7,1.5-1.4,2.3-2.1l0.5-0.4c0.5-0.4,1-0.9,1.5-1.3v-35.6
					c-0.2-0.1-0.3-0.1-0.5-0.2c-0.8-0.4-1.5-1-2.1-1.7c-0.4-0.5-0.7-1.1-1-1.8c-0.2-0.1-0.3-0.3-0.5-0.4c-0.2-0.2-0.4-0.5-0.6-0.7
					l-0.1-0.1c-0.1-0.1-0.3-0.3-0.4-0.4c-0.2-0.2-0.3-0.4-0.5-0.6c-0.2-0.2-0.4-0.5-0.6-0.7c-0.3-0.4-0.7-0.8-1-1.1l-0.2-0.2
					c-0.3-0.3-0.5-0.6-0.8-0.9c-0.7-0.8-1.4-1.6-2.2-2.3l-0.7-0.7c-0.5-0.5-1-1.1-1.6-1.6l-0.1-0.1c-0.5-0.4-1.1-0.9-1.5-1.3
					l-0.2-0.1c-0.3-0.2-0.6-0.5-0.8-0.7c-1-0.8-1.9-1.7-3-2.6C59.5,406.2,59.2,405.9,58.9,405.7L58.9,405.7z"/>
				<path class="st1" d="M469.3,69.8c-0.5-0.6-1.3-0.7-1.9-0.2c-0.2,0.2-0.5,0.4-0.7,0.5c-1.2,0.8-2.3,1.6-3.3,2.5
					c-0.5,0.4-1,0.8-1.5,1.3c-0.5,0.5-1,0.9-1.5,1.4c-1,0.9-2.1,1.7-3.1,2.5c-1,0.9-2.1,1.7-3.2,2.6c-2.2,1.9-4.5,3.5-6.7,5.3
					c-1,0.8-2,1.8-3,2.6c-0.5,0.4-1.1,0.8-1.7,1.3s-1.1,0.8-1.6,1.3c-0.9,0.7-1.7,1.4-2.6,2.1c-0.8,0.6-1.6,1.3-2.3,1.9
					c-0.6,0.5-0.7,1.3-0.2,1.9c0.5,0.6,1.3,0.7,1.9,0.2c0.4-0.4,0.9-0.7,1.3-1.1c0.5-0.4,1.1-0.9,1.6-1.3c1.1-0.9,2.1-1.7,3.2-2.6
					c1.1-0.8,2.2-1.6,3.2-2.5c0.5-0.4,1-0.9,1.5-1.3c0.6-0.5,1.1-0.9,1.7-1.3c1.1-0.9,2.3-1.7,3.4-2.6s2.2-1.8,3.3-2.7
					c1.1-0.8,2.1-1.7,3.1-2.6c0.5-0.4,1.1-0.8,1.6-1.3c0.5-0.5,1.1-0.9,1.6-1.4c0.4-0.3,0.7-0.7,1.1-1c0.4-0.4,0.9-0.7,1.3-1
					c0.8-0.6,1.5-1.2,2.3-1.8c0.4-0.2,0.8-0.5,1.2-0.8c0.3-0.2,0.5-0.6,0.5-1C469.6,70.3,469.5,70,469.3,69.8L469.3,69.8z"/>
				<path class="st1" d="M455.8,74.6c-0.1-0.3-0.4-0.6-0.7-0.7c-0.3-0.1-0.7-0.1-1.1,0c-0.6,0.4-1.2,0.8-1.8,1.2
					c-0.5,0.4-1.1,0.9-1.7,1.3c-1.1,0.8-2.2,1.6-3.3,2.5c-1,0.9-2.1,1.7-3.2,2.7c-1,0.9-2.1,1.8-3.2,2.6c-0.3,0.2-0.6,0.4-0.9,0.6
					c-0.3,0.3-0.7,0.5-1,0.8c-0.6,0.5-1.3,0.9-1.9,1.4c-0.6,0.5-0.6,1.3-0.2,1.9c0.5,0.6,1.3,0.6,1.9,0.2c0.4-0.4,0.9-0.6,1.3-1
					c0.5-0.4,1.1-0.8,1.6-1.2c0.5-0.4,1-0.7,1.5-1.1c0.6-0.4,1.1-0.9,1.7-1.3c0.5-0.4,1-0.9,1.5-1.3s1.1-0.9,1.6-1.3s1-0.9,1.5-1.3
					s1.1-0.8,1.6-1.2c0.6-0.5,1.3-0.9,1.9-1.4c0.6-0.5,1.1-0.9,1.7-1.3l0.3-0.2c0.3-0.2,0.6-0.4,0.7-0.7C456,75.3,456,75,455.8,74.6
					L455.8,74.6z"/>
				<path class="st1" d="M440.3,35.1c-0.1-0.7-0.8-1.3-1.6-1.1c0,0,0,0,0,0c-0.4,0.1-0.7,0.3-0.9,0.5c-0.3,0.4-0.7,0.8-1,1.2
					c-0.3,0.4-0.5,0.8-0.8,1.1c-0.7,0.8-1.4,1.5-2,2.3c-0.6,0.8-1.3,1.5-2,2.3s-1.3,1.5-2,2.2c-0.3,0.3-0.6,0.7-0.9,1
					c-0.8,0.8-1.6,1.6-2.3,2.3c-0.9,0.9-1.7,1.8-2.5,2.7c-1,1.1-2.1,2.1-3.1,3.2c-1.9,2-4,3.9-6,5.8s-4,3.9-6.1,5.8
					c-0.6,0.5-1.2,1.1-1.7,1.7c-0.5,0.6-0.4,1.4,0.2,1.9c0.6,0.5,1.4,0.4,1.9-0.2c0,0,0-0.1,0.1-0.1c0,0,0.1-0.1,0.1-0.1
					c0.4-0.4,0.8-0.7,1.2-1.1c0.5-0.5,1-1,1.5-1.4c0.5-0.5,1-0.9,1.5-1.4c0.5-0.5,1-1,1.5-1.4c1-1,2.1-2,3.2-3s2.1-2,3.1-3
					c0.7-0.6,1.3-1.3,1.9-2c0.8-0.8,1.6-1.6,2.4-2.4s1.6-1.7,2.3-2.5c0.6-0.6,1.1-1.1,1.7-1.7c0.7-0.7,1.3-1.3,1.9-2l0,0
					c0.8-0.8,1.5-1.6,2.2-2.4c0.7-0.8,1.4-1.5,2.1-2.4c0.3-0.4,0.6-0.8,1-1.2c0.4-0.4,0.7-0.8,1.1-1.2c0.3-0.4,0.6-0.7,0.9-1.1
					c0.3-0.5,0.7-0.9,1.1-1.3c0.2-0.2,0.3-0.5,0.3-0.8C440.3,35.3,440.3,35.2,440.3,35.1L440.3,35.1z M420.9,53L420.9,53L420.9,53z"
					/>
				<path class="st1" d="M438.8,45.7c-0.5-0.6-1.3-0.7-1.9-0.2c-0.5,0.5-1,1-1.5,1.5c-0.7,0.7-1.4,1.4-2,2.1c-0.9,1-1.9,1.9-2.8,2.9
					c-1,1-2,1.8-3.1,2.8c-0.5,0.5-1,0.9-1.5,1.4c-0.5,0.5-1,1-1.5,1.6c-0.9,0.9-1.9,1.8-2.8,2.7c-0.3,0.3-0.7,0.6-1,0.9
					c-0.3,0.2-0.5,0.5-0.5,0.9c-0.1,0.7,0.5,1.4,1.2,1.5c0.4,0,0.7-0.1,1-0.3c0.3-0.2,0.5-0.4,0.7-0.6c0.2-0.2,0.5-0.5,0.7-0.7
					c0.5-0.5,1-0.9,1.5-1.4c1-1,2-2,3-3c0.4-0.5,0.9-0.9,1.4-1.3c0.5-0.5,1-0.9,1.6-1.4c1.1-1,2.1-2.1,3.1-3.1
					c0.7-0.7,1.4-1.5,2.1-2.3c-0.1,0.1-0.2,0.2-0.2,0.3c0.5-0.6,1.1-1.1,1.6-1.7c0.2-0.2,0.5-0.5,0.8-0.7c0.3-0.3,0.5-0.7,0.5-1.1
					C439.1,46.2,439,45.9,438.8,45.7L438.8,45.7z"/>
				<path class="st1" d="M65.9,468.4c0-0.7-0.7-1.3-1.4-1.3c-0.3,0-0.6,0.2-0.9,0.4c0,0,0.1-0.1,0.1-0.1c-0.5,0.4-1.1,0.9-1.5,1.4
					c-0.5,0.5-0.9,1-1.4,1.6c-0.5,0.5-0.9,1-1.4,1.5c-0.5,0.5-1,0.9-1.4,1.4c-0.9,1-1.9,1.9-2.9,2.9c-1,1-1.9,2-2.9,2.9
					c-1.2,1.2-2.2,2.5-3.5,3.6c-0.6,0.5-1.1,1.1-1.7,1.7c-0.5,0.5-1,1.1-1.6,1.6c-0.5,0.4-1,0.9-1.5,1.3c-0.5,0.5-0.9,1-1.3,1.5
					c-0.4,0.4-0.8,0.9-1.2,1.3c-0.4,0.5-0.8,1-1.1,1.5c-0.3,0.5-0.7,0.9-1.1,1.3c-0.2,0.2-0.4,0.5-0.6,0.8c-0.2,0.2-0.4,0.4-0.6,0.6
					c-0.2,0.2-0.4,0.3-0.6,0.5c-0.2,0.2-0.4,0.5-0.6,0.7c-0.5,0.6-0.4,1.4,0.1,1.9c0.6,0.5,1.4,0.4,1.9-0.1c0.2-0.3,0.5-0.6,0.8-0.9
					c0.3-0.3,0.6-0.5,0.9-0.8c0.3-0.3,0.6-0.7,0.9-1c0.3-0.3,0.6-0.6,0.8-1c0.3-0.4,0.6-0.8,0.8-1.2c0.2-0.3,0.5-0.6,0.8-0.9
					c0.4-0.4,0.7-0.8,1.1-1.2c0.7-0.8,1.4-1.5,2.2-2.2l-0.1,0.1c0.5-0.4,0.9-0.8,1.4-1.3c0.4-0.4,0.9-0.9,1.3-1.4
					c0.5-0.5,1-0.9,1.5-1.4c0.5-0.5,1-1,1.5-1.5c0.9-1,1.9-2,2.9-3s2-2,3-2.9c0.6-0.6,1.1-1.1,1.6-1.7c0.6-0.6,1.2-1.2,1.8-1.8
					c1.1-1.1,2-2.4,3.1-3.4c0.2-0.2,0.4-0.3,0.5-0.5C65.8,469.1,65.9,468.8,65.9,468.4C65.9,468.4,65.9,468.4,65.9,468.4L65.9,468.4
					z"/>
				<path class="st1" d="M54.8,473c-0.3-0.2-0.6-0.4-1-0.3c-0.4,0-0.7,0.2-0.9,0.5c-0.7,0.7-1.4,1.5-2.1,2.2
					c-0.8,0.9-1.7,1.6-2.5,2.5c-0.9,0.9-1.7,1.7-2.6,2.6c-0.8,0.8-1.6,1.6-2.5,2.4c-0.5,0.4-0.9,0.7-1.4,1.1s-0.9,0.8-1.3,1.2
					c-0.1,0.1-0.3,0.2-0.4,0.3c-0.3,0.2-0.5,0.5-0.6,0.8c-0.2,0.7,0.3,1.5,1,1.6c0.4,0.1,0.7,0,1-0.2c0.5-0.4,0.9-0.8,1.4-1.2
					c1.1-0.9,2.2-1.8,3.2-2.7c0.9-0.9,1.8-1.9,2.8-2.8c1-1,1.9-1.9,2.9-2.8c0.9-0.9,1.7-1.8,2.6-2.7c0.2-0.2,0.3-0.3,0.5-0.5
					c0.2-0.2,0.4-0.5,0.3-0.9C55.3,473.6,55.1,473.2,54.8,473L54.8,473z"/>
				<path class="st1" d="M58.8,462.1c-0.2-0.7-1-1.1-1.7-0.9c0,0,0,0,0,0c-0.3,0.1-0.5,0.3-0.7,0.5c0,0,0-0.1,0.1-0.1
					c-0.2,0.3-0.5,0.6-0.8,0.9c-0.4,0.4-0.8,0.9-1.2,1.3c-0.5,0.5-0.9,0.9-1.4,1.4c-0.5,0.4-0.9,0.9-1.4,1.3s-0.9,0.9-1.4,1.3
					c-0.5,0.4-1,0.9-1.4,1.3c-0.5,0.4-0.9,0.9-1.4,1.3c-0.5,0.4-0.9,0.9-1.3,1.3c-0.2,0.2-0.3,0.5-0.5,0.7c-0.2,0.3-0.4,0.5-0.7,0.8
					c-0.5,0.6-0.5,1.4,0.1,1.9s1.4,0.5,1.9-0.1c0.2-0.3,0.5-0.6,0.7-0.9c0.2-0.2,0.3-0.5,0.5-0.7c0.4-0.4,0.8-0.8,1.2-1.2
					c0.5-0.5,0.9-0.9,1.4-1.4c0.5-0.4,0.9-0.8,1.4-1.3c0.5-0.5,0.9-0.9,1.3-1.3s0.9-0.9,1.4-1.3c0.5-0.5,1-0.9,1.4-1.4
					c0.4-0.4,0.8-0.9,1.2-1.3c0.3-0.3,0.6-0.6,0.8-0.9c0.1-0.1,0.2-0.2,0.3-0.4c0.1-0.2,0.2-0.4,0.2-0.6
					C58.9,462.4,58.9,462.3,58.8,462.1L58.8,462.1z M56.3,462L56.3,462L56.3,462z"/>
				<path class="st1" d="M43.5,451.4c-0.2-0.3-0.5-0.5-0.8-0.6c-0.4-0.1-0.7,0-1,0.2c-0.3,0.3-0.6,0.5-0.8,0.8
					c-0.3,0.3-0.5,0.6-0.8,0.9c-0.5,0.6-1,1.1-1.6,1.6c-0.6,0.5-1.3,1.1-1.9,1.7c-0.3,0.2-0.5,0.5-0.8,0.7c-0.3,0.2-0.7,0.4-1.1,0.7
					c-0.6,0.4-0.8,1.2-0.4,1.9s1.2,0.8,1.9,0.4c0,0,0,0,0,0c0.3-0.2,0.6-0.4,0.9-0.6c0.3-0.2,0.6-0.4,0.9-0.7c0.6-0.5,1.2-1,1.7-1.5
					c0.8-0.6,1.5-1.2,2.1-2c0.5-0.6,1-1.3,1.6-1.8l-0.1,0.1c0.2-0.2,0.4-0.5,0.5-0.7C43.7,452.1,43.7,451.7,43.5,451.4L43.5,451.4z"
					/>
				<path class="st1" d="M37.8,448.3c-0.6-0.5-1.4-0.4-1.9,0.1c-0.3,0.3-0.6,0.6-0.8,0.8c-0.3,0.3-0.6,0.7-0.9,1
					c-0.6,0.7-1.3,1.4-2,2.2c-0.7,0.7-1.4,1.4-2,2.1c-0.7,0.7-1.3,1.4-2,2c-0.6,0.5-1.2,1-1.8,1.6c-0.5,0.4-0.9,0.9-1.4,1.3
					c-0.3,0.2-0.5,0.4-0.8,0.6c-0.3,0.2-0.5,0.5-0.6,0.8c-0.2,0.7,0.3,1.5,1.1,1.6c0.4,0.1,0.7,0,1-0.2c0.6-0.5,1.2-0.9,1.7-1.5
					c0.5-0.4,0.9-0.9,1.4-1.3c0.9-0.7,1.8-1.5,2.6-2.3c0.8-0.8,1.5-1.6,2.3-2.4c0.8-0.8,1.6-1.6,2.3-2.4c0.3-0.4,0.7-0.8,1-1.2
					c0.3-0.3,0.7-0.7,1-1c0.2-0.3,0.3-0.6,0.3-0.9C38.2,448.9,38.1,448.6,37.8,448.3L37.8,448.3z"/>
				<path class="st1" d="M39.8,437.7c-0.6-0.3-1.4-0.1-1.8,0.5c-0.3,0.2-0.5,0.4-0.8,0.7c-0.5,0.4-0.9,0.8-1.3,1.3
					c-0.8,0.9-1.7,1.7-2.6,2.5c-0.9,0.8-1.8,1.5-2.6,2.3c-0.8,0.8-1.6,1.5-2.4,2.3c-0.8,0.8-1.6,1.5-2.4,2.2s-1.6,1.5-2.4,2.2
					c-0.7,0.6-1.5,1.2-2.2,1.8c-0.7,0.6-1.4,1.3-2,1.9c-0.9,0.8-1.9,1.5-2.8,2.3c-0.8,0.8-1.6,1.6-2.4,2.3c-0.7,0.6-1.5,1.1-2.3,1.7
					c-0.4,0.3-0.7,0.6-1.1,0.9c-0.4,0.3-0.7,0.6-1.1,0.9c-0.1,0.1-0.3,0.2-0.5,0.3c-0.1,0.1-0.2,0.1-0.4,0.2
					c-0.3,0.1-0.6,0.4-0.8,0.7c-0.3,0.7-0.1,1.5,0.6,1.8c0.3,0.2,0.7,0.2,1.1,0.1c0.4-0.1,0.8-0.3,1.1-0.5c0.3-0.2,0.6-0.5,0.9-0.8
					c-0.1,0-0.1,0.1-0.2,0.1c0.6-0.5,1.1-1,1.7-1.5c0.6-0.5,1.3-1,1.9-1.5c1.3-1.1,2.5-2.2,3.7-3.4c0.8-0.7,1.6-1.3,2.4-2
					s1.5-1.4,2.3-2.1c0.4-0.3,0.8-0.6,1.1-0.9c0.5-0.4,1-0.9,1.5-1.3c0.9-0.8,1.8-1.6,2.7-2.4c1.7-1.5,3.2-3.1,4.9-4.6
					c1-0.9,2.1-1.7,3-2.7c0.4-0.4,0.8-0.8,1.3-1.3c0.4-0.4,0.7-0.8,1.1-1.1c0.5-0.3,1-0.8,1.3-1.3c0.1-0.2,0.2-0.4,0.2-0.6
					C40.5,438.4,40.3,438,39.8,437.7L39.8,437.7z"/>
				<path class="st1" d="M82.4,383.1c-0.5-0.5-1.4-0.5-1.9,0c-0.4,0.4-0.8,0.8-1.1,1.2c-0.4,0.5-0.7,1-1.1,1.5
					c-0.4,0.5-0.8,1-1.1,1.5c-0.3,0.5-0.7,1-1,1.5c-0.7,1-1.4,1.9-2,3c-0.3,0.6-0.6,1.1-0.9,1.7c-0.3,0.6-0.6,1.1-0.9,1.7
					c-0.5,1-0.8,2-1.2,3l0-0.1l-0.1,0.2l-0.1,0.1l0-0.1l-0.1,0.2c0-0.1,0.1-0.2,0.1-0.3l0,0c-0.4,1-0.7,1.9-1.1,2.9
					c-0.3,0.7-0.6,1.4-0.9,2.2c-0.2,0.8-0.5,1.5-0.7,2.3c-0.1,0.3-0.1,0.6-0.2,0.9c-0.1,0.4-0.2,0.8-0.2,1.1
					c-0.1,0.4-0.2,0.9-0.4,1.3c0,0.1-0.1,0.1-0.1,0.2l0,0c-0.2,0.7,0.2,1.5,0.9,1.7c0.6,0.2,1.3-0.1,1.6-0.6
					c0.2-0.4,0.4-0.9,0.5-1.4c0.1-0.6,0.3-1.1,0.4-1.7c0.1-0.5,0.2-1.1,0.4-1.6c0.2-0.6,0.4-1.2,0.6-1.8c0.3-0.6,0.6-1.2,0.8-1.9
					c0.2-0.6,0.4-1.1,0.6-1.7c0.1-0.3,0.2-0.6,0.4-0.9c0,0.1-0.1,0.2-0.1,0.3c0.3-0.7,0.5-1.4,0.8-2.1c0.3-0.8,0.7-1.5,1.1-2.2
					c0.5-0.9,0.9-1.8,1.5-2.7c0.5-0.7,1-1.4,1.5-2.1c0.3-0.4,0.5-0.8,0.8-1.1c0.3-0.4,0.5-0.7,0.7-1.1c0.2-0.2,0.3-0.4,0.5-0.6
					c0.3-0.4,0.5-0.8,0.8-1.1c0.4-0.5,0.8-1,1.3-1.4c0.2-0.3,0.4-0.6,0.4-1C82.8,383.7,82.7,383.3,82.4,383.1L82.4,383.1z
					 M79.8,388.3l-0.1,0.1L79.8,388.3z M71.1,398.3L71.1,398.3L71.1,398.3L71.1,398.3C71.1,398.3,71.1,398.3,71.1,398.3z
					 M71.1,398.3L71.1,398.3L71.1,398.3L71.1,398.3L71.1,398.3z M71.1,398.3L71.1,398.3l0-0.1L71.1,398.3z"/>
				<path class="st1" d="M72.4,387.8c-0.7-0.4-1.5-0.1-1.9,0.5c-0.6,1.1-1.4,2.2-2,3.4c-0.3,0.6-0.7,1.2-1,1.8
					c-0.3,0.5-0.6,1-0.9,1.5c-0.7,1.2-1.3,2.5-1.8,3.8c-0.4,1.1-0.6,2.2-0.9,3.3c-0.1,0.4-0.2,0.7-0.3,1.1c-0.1,0.4-0.3,0.9-0.4,1.3
					c-0.2,0.7,0.2,1.5,1,1.7s1.5-0.2,1.7-1c0.3-1.1,0.7-2.2,1-3.3c0.1-0.5,0.2-0.9,0.4-1.4c0.1-0.5,0.3-1,0.5-1.5
					c0.7-1.5,1.5-3,2.3-4.5c0.2-0.4,0.5-0.8,0.7-1.2c0.2-0.4,0.5-0.9,0.7-1.3c0.5-0.8,0.9-1.5,1.4-2.3
					C73.3,389,73.1,388.2,72.4,387.8L72.4,387.8z M67.7,399L67.7,399L67.7,399z"/>
				<path class="st1" d="M65.1,391.6c-0.7-0.4-1.5-0.1-1.9,0.5c-0.4,0.6-0.8,1.3-1.1,2c-0.3,0.6-0.6,1.3-0.8,1.9
					c-0.6,1.3-1.2,2.6-1.8,3.9c-0.2,0.3-0.2,0.7-0.1,1c0.2,0.7,0.9,1.2,1.7,1c0.4-0.1,0.6-0.3,0.8-0.6c0.6-1.3,1.2-2.5,1.8-3.8
					c0.3-0.6,0.6-1.3,0.9-1.9c0.3-0.7,0.7-1.4,1.1-2c0.1-0.2,0.2-0.4,0.2-0.6C65.8,392.3,65.5,391.8,65.1,391.6L65.1,391.6z"/>
				<path class="st1" d="M30.6,359.7c-0.7-0.4-1.5-0.1-1.9,0.5c-0.2,0.4-0.5,0.8-0.7,1.1c-0.6,0.8-1.3,1.5-1.9,2.3
					c-0.7,1-1.3,2-1.9,3.1c-0.4,0.7-0.1,1.5,0.6,1.8c0.6,0.3,1.4,0.1,1.8-0.5c0.4-0.9,1-1.8,1.5-2.7c0.5-0.6,1.1-1.3,1.6-1.9
					c0.5-0.6,1-1.3,1.4-2c0.1-0.2,0.2-0.4,0.2-0.7C31.3,360.5,31,360,30.6,359.7z"/>
				<path class="st1" d="M37.2,345.3c-0.3-0.2-0.7-0.2-1-0.1c-0.3,0.1-0.5,0.2-0.7,0.4l0,0c-0.7,0.9-1.4,1.7-2.1,2.6l0.2-0.3
					c-0.5,0.6-0.9,1.2-1.3,1.8c-0.4,0.5-0.8,1-1.2,1.4c-0.6,0.6-1.1,1.3-1.6,1.9c-0.4,0.5-0.9,1.1-1.3,1.6c-0.5,0.5-0.9,1.2-1.3,1.8
					c-0.4,0.5-0.7,1-1.1,1.5l0.2-0.3l-0.3,0.4l0.1-0.2l-0.1,0.1c-0.4,0.6-0.9,1.1-1.3,1.7c-0.4,0.7-0.9,1.4-1.3,2
					c-0.9,1.3-1.6,2.8-2.2,4.2c-0.2,0.3-0.2,0.7-0.1,1c0.2,0.7,1,1.1,1.7,0.9c0.4-0.1,0.6-0.3,0.8-0.6c0.5-1.2,1.1-2.3,1.8-3.4
					c0.3-0.5,0.7-1.1,1-1.6c0.3-0.5,0.6-1,1-1.4c0.3-0.4,0.7-0.9,1-1.3l0,0l0.1-0.1l0,0l-0.1,0.1l0.1-0.2l0,0l0,0l0,0l0-0.1l0,0.1
					c0.4-0.6,0.9-1.2,1.3-1.8c0.2-0.3,0.4-0.5,0.6-0.8c0.2-0.3,0.5-0.5,0.7-0.8c0.5-0.6,1-1.3,1.5-1.9c0.5-0.6,1-1.1,1.5-1.7
					c0.5-0.6,1-1.3,1.5-2c0.2-0.2,0.4-0.5,0.5-0.7l0,0c0.4-0.5,0.7-0.9,1.1-1.4c0.3-0.4,0.7-0.7,0.9-1.2c0.1-0.2,0.2-0.4,0.2-0.6
					C37.9,346,37.6,345.5,37.2,345.3L37.2,345.3z M35.8,349.4L35.8,349.4L35.8,349.4z M25.6,358l-0.2,0.2
					C25.5,358.1,25.5,358.1,25.6,358z M27.8,359.6L27.8,359.6L27.8,359.6L27.8,359.6L27.8,359.6z M27.8,359.5l-0.2,0.3l0.3-0.4
					L27.8,359.5z M27.9,359.4L27.9,359.4L27.9,359.4L27.9,359.4z M27.9,359.4L27.9,359.4L27.9,359.4
					C27.9,359.3,27.9,359.4,27.9,359.4z M28,359.3L28,359.3L28,359.3L28,359.3L28,359.3L28,359.3z M28,359.2L28,359.2L28,359.2
					L28,359.2L28,359.2z"/>
				<path class="st1" d="M24.2,354.7c-0.5-0.5-1.4-0.5-1.9,0c-0.8,0.8-1.6,1.6-2.3,2.4c-0.3,0.4-0.7,0.7-1,1.1
					c-0.5,0.6-0.9,1.1-1.3,1.7c-0.2,0.3-0.2,0.7-0.1,1c0.2,0.7,1,1.1,1.7,0.9c0.3-0.1,0.6-0.3,0.8-0.6c0.1-0.1,0.1-0.2,0.2-0.3
					c0.6-0.8,1.2-1.5,1.9-2.2c0.7-0.8,1.4-1.5,2.2-2.3c0.2-0.2,0.4-0.6,0.4-0.9C24.6,355.3,24.4,355,24.2,354.7L24.2,354.7z"/>
				<path class="st1" d="M73.1,344.5c-0.5-0.5-1.4-0.5-1.9,0c-0.5,0.5-1,1-1.5,1.5s-1,1-1.5,1.5c-0.9,1-1.9,2-2.8,3
					c-1.9,2-3.8,4.1-5.6,6.2c-0.8,0.9-1.5,1.8-2.2,2.7c-0.8,0.9-1.6,1.9-2.3,2.8c-1.5,1.8-2.8,3.8-4.2,5.7c-0.9,1.1-1.8,2.2-2.6,3.4
					c-0.8,1.2-1.7,2.3-2.5,3.5c-0.8,1.2-1.5,2.4-2.2,3.6c-0.3,0.6-0.7,1.2-1,1.8c-0.3,0.5-0.5,1.1-0.8,1.7c-0.2,0.3-0.3,0.5-0.5,0.8
					l0,0.1c-0.2,0.3-0.4,0.6-0.4,1c0,0.8,0.6,1.4,1.4,1.4c0,0,0,0,0,0c0.4,0,0.7-0.1,1-0.4c0.4-0.5,0.8-1,1.1-1.6
					c0.2-0.5,0.5-1,0.7-1.5c0.6-1.1,1.2-2.2,1.9-3.3c1.3-2.1,2.7-4.1,4.2-6.1c0.9-1.1,1.8-2.3,2.6-3.4c0.8-1.1,1.6-2.2,2.4-3.3
					c0.8-1.1,1.7-2.2,2.5-3.2c0.9-1.1,1.7-2.1,2.6-3.2c0.9-1.1,1.9-2.1,2.8-3.2c0.9-1.1,1.9-2.1,2.9-3.1c1-1.1,2-2.1,3-3.2
					c0.5-0.5,1-1,1.5-1.5c0.5-0.5,1.1-1.1,1.6-1.6c0.2-0.3,0.4-0.6,0.4-0.9C73.5,345.1,73.3,344.8,73.1,344.5L73.1,344.5z"/>
				<path class="st1" d="M59.7,367c-0.3-0.2-0.6-0.4-1-0.4c-0.4,0-0.7,0.2-1,0.4c-0.5,0.5-1.1,0.9-1.6,1.5c-0.5,0.5-0.9,1-1.3,1.5
					c-0.9,1-1.8,2-2.6,3.1c-0.9,1.1-1.8,2.2-2.7,3.3c-0.9,1.1-1.8,2.3-2.7,3.4c-0.8,1-1.5,2.1-2.2,3.2c-0.4,0.6-0.8,1.1-1.1,1.7
					c-0.1,0.3-0.3,0.5-0.4,0.8c-0.1,0.2-0.2,0.4-0.3,0.6c-0.5,0.6-0.4,1.4,0.1,1.9c0.5,0.5,1.4,0.4,1.9-0.1c0.4-0.5,0.8-1.1,1-1.8
					c0.4-0.6,0.7-1.3,1.1-1.9c0.7-1.1,1.4-2.1,2.2-3.2c0.8-1,1.6-2,2.4-3c0.9-1.1,1.7-2.2,2.6-3.3c0.8-1,1.7-2,2.5-3
					c0.4-0.5,0.9-1,1.3-1.5c0.5-0.5,1-1,1.6-1.5c0.3-0.2,0.4-0.6,0.4-0.9C60.1,367.7,60,367.3,59.7,367L59.7,367z"/>
				<path class="st1" d="M58,376.2c-0.3-0.2-0.6-0.4-1-0.4c-0.4,0-0.7,0.2-1,0.4c-0.5,0.5-1.1,0.9-1.6,1.4c-0.5,0.6-1,1.2-1.5,1.9
					c-0.4,0.6-0.8,1.2-1.3,1.8c-0.4,0.6-0.8,1.1-1.2,1.6c-0.5,0.7-1,1.4-1.5,2.1c-0.4,0.6-0.8,1.3-1.3,1.9c-0.2,0.2-0.3,0.4-0.5,0.6
					c-0.2,0.2-0.4,0.5-0.6,0.7c-0.5,0.5-0.5,1.4,0,1.9s1.4,0.5,1.9,0c0,0,0,0,0,0c0.3-0.3,0.6-0.7,0.9-1.1c0.4-0.5,0.7-1,1.1-1.5
					c0.6-0.9,1.1-1.8,1.8-2.6c0.5-0.7,1-1.4,1.5-2.1c0.5-0.8,1-1.5,1.6-2.3c0.3-0.4,0.6-0.8,1-1.2c0.5-0.5,1-0.9,1.5-1.3
					c0.3-0.3,0.4-0.6,0.4-1C58.4,376.8,58.3,376.5,58,376.2L58,376.2z"/>
				<path class="st1" d="M47.3,366.4c-0.7-0.4-1.5-0.1-1.9,0.5c-0.3,0.5-0.6,1-0.9,1.5c-0.3,0.5-0.6,0.9-1,1.4
					c-0.6,0.8-1.2,1.6-1.8,2.4c-0.6,0.8-1.1,1.7-1.6,2.5s-1.1,1.7-1.5,2.6c-0.5,0.9-0.9,1.8-1.3,2.7c-0.2,0.3-0.2,0.7-0.1,1
					c0.2,0.7,1,1.1,1.7,0.9c0.4-0.1,0.6-0.3,0.8-0.6c0.4-0.8,0.8-1.7,1.2-2.5c0.4-0.8,0.9-1.6,1.4-2.4c0.5-0.8,1-1.7,1.5-2.5
					c0.5-0.7,1-1.5,1.6-2.2l0,0c0.4-0.6,0.8-1.1,1.2-1.7c0.4-0.6,0.8-1.3,1.2-1.9c0.1-0.2,0.2-0.4,0.2-0.7
					C48,367.2,47.7,366.7,47.3,366.4L47.3,366.4z"/>
				<path class="st1" d="M40.3,369.2c-0.5-0.5-1.4-0.5-1.9,0c-0.9,1-1.8,1.9-2.6,3c-0.8,1.1-1.5,2.2-2.1,3.5
					c-0.4,0.7-0.1,1.5,0.6,1.8c0.6,0.3,1.4,0.1,1.8-0.5c0.5-1,1.1-2,1.8-3c0.8-1,1.6-1.9,2.5-2.9c0.2-0.3,0.4-0.6,0.4-1
					C40.7,369.8,40.6,369.4,40.3,369.2L40.3,369.2z"/>
				<path class="st1" d="M350.1,68.2c-0.3-0.3-0.6-0.4-1-0.4c-0.4,0-0.7,0.2-1,0.4c-0.4,0.3-0.7,0.6-1.1,0.9c-1,0.8-2.1,1.5-3.2,2.3
					c-1.2,0.8-2.3,1.6-3.5,2.4c-1.3,0.8-2.5,1.7-3.7,2.6c-1.1,0.9-2.1,1.9-3.2,2.8c-1.1,1-2.3,2-3.4,3.1c-1.1,0.9-2.2,1.8-3.3,2.7
					c-1.1,0.9-2.2,1.9-3.3,2.9c-0.5,0.5-1,0.9-1.5,1.4c-0.5,0.5-1,1-1.5,1.6c-0.8,0.9-1.7,1.7-2.5,2.6s-1.7,1.7-2.6,2.5
					c-0.4,0.4-0.9,0.8-1.3,1.2s-0.9,0.8-1.3,1.2s-0.9,0.8-1.3,1.2s-0.9,0.8-1.3,1.3c0,0,0,0-0.1,0l0,0l0,0c-0.3,0.1-0.5,0.3-0.6,0.5
					c-0.4,0.7-0.2,1.5,0.5,1.9c0.3,0.2,0.7,0.2,1,0.1c0.2-0.1,0.4-0.2,0.6-0.3c0.2-0.1,0.4-0.3,0.6-0.5c0.1-0.1,0.2-0.2,0.3-0.3
					c0.2-0.2,0.5-0.5,0.7-0.7c0.5-0.5,1-0.9,1.5-1.4s1-0.9,1.6-1.4s1-1,1.5-1.4c1.1-1,2-2,3-3.1s2-2.1,3-3.1c0.5-0.5,1-0.9,1.5-1.4
					s1-0.9,1.5-1.4c1.1-0.9,2.2-1.9,3.3-2.8c2.3-1.9,4.4-3.8,6.6-5.8c0.7-0.7,1.5-1.3,2.2-1.9c0.9-0.7,1.8-1.3,2.8-1.9
					c0.9-0.6,1.8-1.2,2.7-1.8c0.9-0.6,1.8-1.3,2.7-1.9c1-0.7,1.9-1.4,2.8-2.2c0.3-0.2,0.4-0.6,0.4-0.9
					C350.5,68.9,350.3,68.5,350.1,68.2L350.1,68.2z M310.3,100.7c0,0-0.1,0.1-0.1,0.1L310.3,100.7z M310.1,100.8L310.1,100.8
					L310.1,100.8L310.1,100.8z"/>
				<path class="st1" d="M346,62.5c-0.2-0.3-0.5-0.5-0.8-0.6c-0.4-0.1-0.7,0-1,0.1c-1.1,0.5-2.2,1.1-3.3,1.8
					c-1.1,0.7-2.2,1.5-3.2,2.4c-2,1.7-4,3.4-6.1,5c-0.7,0.6-1.5,1.1-2.2,1.7c-0.4,0.3-0.7,0.6-1.1,0.9c-0.4,0.3-0.7,0.7-1.1,1.1
					c-0.5,0.5-0.5,1.4,0,1.9c0.5,0.5,1.4,0.5,1.9,0c0.3-0.4,0.7-0.7,1-1.1c0.3-0.3,0.6-0.5,0.9-0.8c0.8-0.6,1.6-1.2,2.4-1.8
					c0.8-0.6,1.6-1.3,2.4-1.9c1.4-1.2,2.8-2.4,4.3-3.5c0.8-0.6,1.7-1.2,2.5-1.8c0.9-0.6,1.9-1.1,2.9-1.5c0.4-0.2,0.7-0.7,0.7-1.2
					C346.1,63,346.1,62.7,346,62.5L346,62.5z"/>
				<path class="st1" d="M360.7,72.8c-0.4-0.6-1.2-0.9-1.9-0.5c-3.4,2.3-6.8,4.7-10.1,7.2c0.1-0.1,0.2-0.1,0.3-0.2
					c-1.2,0.9-2.4,1.7-3.6,2.5s-2.5,1.5-3.7,2.3c-1.2,0.8-2.4,1.8-3.6,2.7c-0.6,0.4-1.1,0.9-1.7,1.4c-0.5,0.4-1,0.8-1.5,1.3
					c-0.9,0.8-1.8,1.7-2.7,2.5c-0.4,0.4-0.9,0.8-1.4,1.2s-0.9,0.7-1.4,1.1c-0.5,0.5-0.5,1.4,0,1.9c0.3,0.3,0.6,0.4,1,0.4
					c0.4,0,0.7-0.1,1-0.4c0.8-0.7,1.7-1.4,2.5-2.1c0.9-0.8,1.8-1.6,2.6-2.4c0.4-0.3,0.8-0.7,1.2-1c0.5-0.4,0.9-0.8,1.4-1.1
					c0.8-0.7,1.7-1.3,2.5-2c0.8-0.6,1.6-1.1,2.4-1.7c0.8-0.5,1.6-1,2.4-1.5c1.7-1,3.2-2.2,4.8-3.4l0,0l0,0l0.2-0.2l-0.2,0.1
					c0.7-0.5,1.3-1,2-1.5c0.7-0.5,1.5-1,2.2-1.5c1.6-1.1,3.1-2.2,4.7-3.3c0.3-0.2,0.5-0.5,0.6-0.8c0-0.1,0-0.2,0-0.4
					C360.9,73.3,360.8,73,360.7,72.8L360.7,72.8z M341.8,87.4c-0.1,0.1-0.1,0.1-0.2,0.2L341.8,87.4z M351.3,81L351.3,81L351.3,81
					L351.3,81z"/>
				<path class="st1" d="M329.3,48.2c-0.4-0.6-1.2-0.9-1.9-0.5c-0.4,0.2-0.7,0.4-1.1,0.6s-0.7,0.5-1,0.7c-0.6,0.4-1.2,0.9-1.8,1.4
					c-1.4,1.1-2.9,2.2-4.3,3.3l0,0c-1,0.8-2,1.6-3,2.5c-1,0.8-2,1.6-3,2.4c-0.7,0.5-1.4,1-2,1.6c-0.3,0.3-0.4,0.6-0.4,1
					c0,0.8,0.6,1.4,1.4,1.4c0,0,0,0,0,0c0.4,0,0.7-0.2,1-0.4c0.2-0.2,0.5-0.4,0.7-0.5c1.3-1,2.5-1.9,3.7-2.9c1.2-1,2.4-1.9,3.6-2.9
					l0.6-0.4c1.1-0.8,2.2-1.7,3.3-2.5c0.6-0.5,1.2-0.9,1.8-1.3c0.3-0.2,0.6-0.5,1-0.6c0.4-0.2,0.7-0.4,1.1-0.6
					C329.4,49.7,329.7,48.9,329.3,48.2L329.3,48.2z M321.8,55.1l-0.1,0.1L321.8,55.1z M319.2,53.7l0.2-0.2
					C319.4,53.6,319.3,53.6,319.2,53.7z"/>
				<path class="st1" d="M324.8,44.6c-0.4-0.6-1.2-0.9-1.9-0.5c-1,0.5-2,1.1-3,1.7c-0.9,0.6-1.8,1.3-2.7,1.9
					c-1.8,1.4-3.6,2.8-5.4,4.2c-1.1,0.9-2.2,1.7-3.4,2.5c-1.2,0.9-2.4,1.9-3.7,2.8c-2.3,1.8-4.4,3.7-6.5,5.7c-1,0.9-1.9,1.8-2.9,2.7
					c-1,0.9-2,1.7-2.9,2.5s-1.9,1.7-2.9,2.6c-0.5,0.4-1,0.9-1.4,1.3s-0.9,1-1.4,1.4c-0.5,0.5-0.5,1.4,0,1.9c0.5,0.5,1.4,0.5,1.9,0
					c0.5-0.5,0.9-1,1.4-1.5c0.5-0.5,1-0.9,1.5-1.4c1-0.9,2.1-1.9,3.1-2.8c1.1-1,2.2-1.9,3.3-2.9c1.1-1,2.1-2,3.2-3
					c1.2-1.2,2.5-2.3,3.8-3.4c1.2-1.1,2.6-2,3.8-3c1.3-0.9,2.5-1.9,3.8-2.8c1.4-1,2.7-2.1,4.1-3.2c1.2-0.9,2.4-1.8,3.6-2.7
					c1.3-0.9,2.6-1.6,3.9-2.3C325,46.1,325.2,45.3,324.8,44.6L324.8,44.6z M316.8,51.5L316.8,51.5L316.8,51.5z M311.9,51.9l-0.2,0.1
					L311.9,51.9z"/>
				<path class="st1" d="M380.3,99.1c-0.2-0.3-0.5-0.5-0.8-0.6c-0.4-0.1-0.7,0-1.1,0.1c-2.5,1.2-5.1,2.3-7.6,3.7
					c-1.2,0.7-2.4,1.5-3.6,2.2s-2.3,1.6-3.5,2.4c-2.4,1.6-4.8,3-7.2,4.6c-1.2,0.8-2.4,1.7-3.6,2.6c-1,0.8-2,1.7-3,2.6
					c-0.2,0.1-0.3,0.3-0.5,0.4c0.1-0.1,0.2-0.1,0.3-0.2c-0.3,0.3-0.7,0.5-1.1,0.8c-0.3,0.1-0.5,0.3-0.6,0.6
					c-0.2,0.3-0.2,0.7-0.1,1.1c0.1,0.3,0.3,0.6,0.6,0.8c0.3,0.2,0.7,0.2,1,0.1c0.4-0.1,0.7-0.3,1-0.6c0.3-0.2,0.5-0.4,0.8-0.6
					c0.4-0.4,0.9-0.7,1.3-1.1c0.8-0.7,1.5-1.3,2.3-2c1.1-0.8,2.1-1.6,3.2-2.4c1.2-0.8,2.4-1.6,3.6-2.4c1.2-0.8,2.4-1.5,3.5-2.3
					s2.3-1.6,3.4-2.4c0.9-0.6,1.7-1.1,2.6-1.6s1.8-1,2.7-1.5c1.8-0.9,3.7-1.7,5.5-2.6c0.4-0.2,0.7-0.7,0.7-1.2
					C380.5,99.6,380.5,99.3,380.3,99.1L380.3,99.1z"/>
				<path class="st1" d="M377.2,94.1c-0.4-0.6-1.2-0.9-1.9-0.5c-1.2,0.8-2.5,1.5-3.9,2.1c-1.3,0.6-2.6,1.1-3.9,1.7
					c-1.3,0.6-2.5,1.3-3.7,2.1c-1.2,0.8-2.5,1.6-3.8,2.3c-1.1,0.7-2.3,1.3-3.4,2.1c-1.2,0.8-2.3,1.6-3.5,2.5
					c-2.2,1.7-4.3,3.7-6.4,5.5c0.1-0.1,0.2-0.1,0.3-0.2c-0.6,0.4-1.1,0.9-1.7,1.3c-0.6,0.4-1.2,0.8-1.8,1.2
					c-1.2,0.8-2.4,1.6-3.6,2.5c-1.3,0.9-2.5,1.8-3.7,2.9c-1.1,1-2.1,2-3.2,3c-0.8,0.7-1.6,1.5-2.5,2.2l-0.1,0.1
					c-0.3,0.2-0.5,0.5-0.6,0.8c-0.2,0.7,0.2,1.5,1,1.7c0.4,0.1,0.7,0.1,1-0.1c1.4-1,2.7-2.2,3.9-3.4c0.6-0.5,1.2-1.1,1.8-1.7
					c0.6-0.6,1.3-1.1,1.9-1.7c2.2-1.7,4.5-3.3,6.8-4.8c1.3-0.9,2.5-1.8,3.7-2.9c1.1-1,2.2-2,3.3-2.9c0.5-0.4,1-0.8,1.5-1.2
					c1.1-0.8,2.2-1.7,3.3-2.4c1.2-0.8,2.5-1.5,3.7-2.3c2.4-1.5,4.7-3.1,7.2-4.3c1.2-0.6,2.5-1.1,3.7-1.7c1.3-0.6,2.6-1.3,3.8-2
					c0.4-0.2,0.7-0.7,0.7-1.2C377.4,94.5,377.3,94.3,377.2,94.1L377.2,94.1z"/>
				<path class="st1" d="M370.5,90c-0.4-0.6-1.2-0.9-1.9-0.5c-0.5,0.3-1.1,0.6-1.6,0.9c-0.4,0.3-0.9,0.6-1.3,0.9
					c-0.9,0.7-1.8,1.4-2.8,2.2c-0.7,0.5-1.4,1-2.1,1.5c-0.8,0.5-1.7,1-2.6,1.5c-1.8,0.9-3.4,1.9-5,3c-0.3,0.2-0.5,0.5-0.6,0.8
					c-0.1,0.4,0,0.7,0.1,1c0.2,0.3,0.5,0.5,0.8,0.6c0.4,0.1,0.7,0.1,1.1-0.1c0.9-0.7,1.9-1.3,2.9-1.9c1.1-0.6,2.1-1.1,3.2-1.7
					c1-0.6,2-1.2,2.9-1.9c1-0.7,1.9-1.5,2.9-2.2c0.5-0.4,1-0.7,1.5-1.1c0.6-0.4,1.3-0.7,2-1.1c0.4-0.2,0.7-0.7,0.7-1.2
					C370.7,90.5,370.6,90.2,370.5,90L370.5,90z"/>
				<path class="st2" d="M386,104.4c-62.2,38.6-119.8,84.2-171.7,135.8C161.3,293,114.6,351.8,75.1,415.3"/>
				<path class="st2" d="M318.5,36.8C256.3,75.4,198.7,121,146.8,172.6C93.7,225.4,47,284.2,7.5,347.8"/>
			</g>
		</g>
		<g>
			<path d="M95.5,321.4l-29-9.8c-0.4-0.1-0.6-0.5-0.3-0.9l3.1-4c0.2-0.3,0.5-0.4,0.9-0.3l21.6,7.8L79,295.3c-0.2-0.3-0.2-0.7,0-0.9
				l3.1-4c0.3-0.4,0.7-0.4,0.9,0L99.7,316c0.2,0.3,0.1,0.7-0.1,1l-3.2,4.1C96.2,321.4,95.9,321.5,95.5,321.4z"/>
			<path d="M108.1,305.3l-15.4-12.5c-0.3-0.2-0.3-0.6-0.1-0.9c0,0,0,0,0-0.1l3-3.6c0.2-0.3,0.6-0.3,0.9-0.1c0,0,0,0,0.1,0l15.4,12.5
				c0.3,0.2,0.3,0.6,0.1,0.8c0,0,0,0,0,0.1l-3,3.6C108.8,305.5,108.4,305.5,108.1,305.3C108.1,305.3,108.1,305.3,108.1,305.3z
				 M86.5,288.2c-1.4-1.1-1.6-3.2-0.5-4.6c0,0,0,0,0.1-0.1c1.2-1.4,3.2-1.6,4.6-0.4c1.4,1.1,1.6,3.2,0.5,4.6
				C90.1,289.2,88,289.4,86.5,288.2C86.6,288.3,86.6,288.3,86.5,288.2z"/>
			<path d="M106.7,291.1c-4.8-4-5.6-10.4-1.4-15.4c3.3-4.3,9.4-5,13.6-1.8c0.2,0.2,0.4,0.3,0.6,0.5c1.6,1.3,2.2,2.4,1,3.9l-8.2,9.8
				c2.5,1.2,5,0.5,7.2-2.1c1.1-1.3,1.9-2.9,2.2-4.6c0-0.3,0.2-0.5,0.5-0.5c0,0,0.1,0,0.1,0l2.7,0.2c0.4,0,0.6,0.3,0.6,0.8
				c0.1,2.8-0.9,5.4-2.8,7.5C118.2,294.7,111.6,295.2,106.7,291.1z M115.3,277.9c-2-1.5-4.8-1.1-6.3,0.9c0,0,0,0,0,0
				c-1.8,1.9-1.8,4.8-0.1,6.7L115.3,277.9z"/>
			<path d="M132.9,275.7l-19.2-8.2c-0.5-0.2-0.5-0.5-0.2-0.9l3-3.4c0.2-0.3,0.6-0.4,0.9-0.2l13,5.9l-7.2-12.5
				c-0.2-0.3-0.1-0.7,0.1-0.9l3-3.4c0.2-0.3,0.6-0.4,0.9-0.2l13.3,5.7l-7.4-12.2c-0.2-0.3-0.1-0.7,0.2-1l3-3.3
				c0.3-0.4,0.6-0.3,0.9,0.1l10.5,18.1c0.2,0.3,0.1,0.7-0.1,0.9l-3.2,3.6c-0.2,0.3-0.6,0.4-0.9,0.2l-13.4-5.5l7.1,12.6
				c0.2,0.3,0.1,0.7-0.1,0.9l-3.2,3.6C133.6,275.8,133.2,275.9,132.9,275.7z"/>
			<path d="M165.3,240.1l-26.6-14.1c-0.4-0.2-0.5-0.5-0.2-0.9l3.5-3.6c0.2-0.3,0.6-0.4,0.9-0.2l19.3,10.6l-10.7-19.5
				c-0.2-0.3-0.1-0.7,0.1-0.9l3.3-3.3c0.2-0.3,0.6-0.3,0.9-0.2l19.7,10.3l-11-19.1c-0.2-0.3-0.1-0.7,0.1-0.9l3.5-3.6
				c0.3-0.3,0.7-0.2,0.9,0.1l14.6,26.4c0.2,0.3,0.1,0.7-0.2,0.9L180,226c-0.2,0.3-0.6,0.4-0.9,0.2l-20.1-10.8l11.1,19.9
				c0.2,0.3,0.1,0.7-0.2,0.9l-3.6,3.7C166.1,240.2,165.7,240.3,165.3,240.1z"/>
			<path d="M182.1,208.8c-4.3-4.5-4.5-10.9,0.2-15.4c3.7-3.9,9.9-4,13.7-0.3c0.2,0.2,0.4,0.4,0.5,0.5c1.4,1.5,1.9,2.7,0.6,3.9
				l-9.3,8.9c2.3,1.5,4.9,1,7.4-1.3c1.3-1.2,2.2-2.7,2.6-4.3c0-0.3,0.3-0.4,0.5-0.4c0,0,0.1,0,0.1,0l2.7,0.5
				c0.4,0.1,0.5,0.3,0.5,0.8c-0.2,2.7-1.5,5.3-3.6,7.1C193.2,213.6,186.5,213.4,182.1,208.8z M192.1,196.6c-1.8-1.7-4.6-1.6-6.3,0.2
				c0,0,0,0,0,0c-2,1.7-2.3,4.5-0.8,6.6L192.1,196.6z"/>
			<path d="M209.5,193.4l1.5,1.8c0.2,0.2,0.2,0.6,0,0.9c0,0,0,0-0.1,0l-3.1,2.8c-0.2,0.3-0.7,0.3-0.9,0c0,0,0,0,0,0L187,177.1
				c-0.2-0.2-0.2-0.6,0-0.9c0,0,0,0,0.1-0.1l3.5-3.2c0.2-0.2,0.6-0.2,0.9,0c0,0,0,0,0.1,0.1l7.7,8.5c-0.2-2.5,0.9-5,2.8-6.6
				c4.4-4,10.6-3.2,14.8,1.4c4.2,4.6,4.4,10.9,0.1,14.9C215,193.2,212.2,194,209.5,193.4z M212.6,180.3c-1.9-2.3-5.2-2.6-7.5-0.8
				c-0.1,0.1-0.2,0.2-0.3,0.3c-2.4,2.1-2.5,5.3-0.2,7.8s5.4,2.7,7.8,0.5c2.2-1.9,2.4-5.3,0.5-7.5
				C212.8,180.5,212.7,180.4,212.6,180.3L212.6,180.3z"/>
			<path d="M224.1,180.1c-0.4-0.1-0.7-0.4-0.8-1l-0.3-2.6c-0.1-0.6,0.3-0.8,0.7-0.8c2.2-0.2,3.8-0.6,5-1.6c1.1-0.9,1.4-2,0.6-2.9
				c-0.7-0.8-1.5-0.7-3.1-0.2l-2.7,0.9c-2.8,1-5.3,0.9-7.3-1.3c-2.7-3-1.6-7.1,1.4-9.6c2-1.8,4.8-2.6,7.4-2.2
				c0.3,0.1,0.6,0.4,0.6,0.7l0.1,3c0,0.5-0.3,0.6-0.7,0.6c-1.4-0.1-2.9,0.3-4,1.2c-0.8,0.5-1.1,1.6-0.6,2.4c0,0.1,0.1,0.1,0.1,0.2
				c0.7,0.8,1.7,0.7,2.9,0.2l3-1.1c2.7-0.9,5.5-1,7.6,1.5c2.8,3.2,1.5,7.3-1.7,10.1C230.1,179.6,227.1,180.6,224.1,180.1z"/>
			<path d="M240.7,168.8l-12.8-15.1c-0.2-0.2-0.2-0.6,0-0.9c0,0,0,0,0.1,0l3.6-3c0.2-0.2,0.6-0.2,0.9,0c0,0,0,0,0,0.1l12.8,15.1
				c0.2,0.2,0.2,0.6,0,0.9c0,0,0,0-0.1,0l-3.6,3C241.4,169.1,241,169.1,240.7,168.8C240.8,168.8,240.7,168.8,240.7,168.8z
				 M222.7,148c-1.2-1.4-1-3.4,0.4-4.6c0,0,0,0,0.1-0.1c1.4-1.2,3.5-1,4.6,0.4c1.2,1.4,1,3.5-0.4,4.6C226,149.6,224,149.5,222.7,148
				C222.8,148.1,222.7,148.1,222.7,148z"/>
			<path d="M247.2,156.8l-6.9-8.4l-2.1,1.7c-0.2,0.2-0.6,0.2-0.9,0c0,0,0,0,0-0.1l-2.1-2.6c-0.2-0.2-0.2-0.6,0-0.9c0,0,0,0,0.1,0
				l2.1-1.7l-3.2-3.8c-0.2-0.2-0.2-0.6,0-0.9c0,0,0,0,0.1,0l3.6-3c0.2-0.2,0.6-0.2,0.9,0c0,0,0,0,0,0.1l3.2,3.8l2.6-2.1
				c0.2-0.2,0.6-0.2,0.9,0c0,0,0,0,0,0.1l2.1,2.6c0.2,0.2,0.2,0.6,0,0.9c0,0,0,0-0.1,0l-2.6,2.1l6.5,7.9c0.5,0.8,1.6,1,2.3,0.5
				c0.1-0.1,0.2-0.1,0.3-0.2c0.3-0.2,0.6-0.5,1-0.9c0.3-0.3,0.7-0.4,1,0l2,2.4c0.6,0.8-0.9,2.3-2,3.2
				C253.5,159.6,250.2,160.4,247.2,156.8z"/>
			<path d="M253.7,145c-3.9-4.9-3.4-11.3,1.7-15.3c4.1-3.5,10.2-3.1,13.7,1c0.2,0.2,0.3,0.4,0.5,0.6c1.3,1.6,1.6,2.8,0.2,4l-10,8
				c2.2,1.7,4.8,1.5,7.5-0.6c1.4-1,2.4-2.5,3-4.1c0.1-0.3,0.3-0.4,0.6-0.4c0,0,0.1,0,0.1,0l2.6,0.7c0.4,0.1,0.5,0.4,0.4,0.9
				c-0.5,2.7-2,5.1-4.2,6.7C264.3,150.8,257.6,150,253.7,145z M264.8,133.8c-1.6-1.8-4.5-2-6.3-0.4c0,0,0,0,0,0
				c-2.1,1.5-2.7,4.3-1.4,6.5L264.8,133.8z"/>
		</g>
	</g>
</g>
</svg>
