<svg xmlns="http://www.w3.org/2000/svg" width="182.578" height="182.75" viewBox="0 0 182.578 182.75">
  <defs>
    <style>
      .cls-1 {
        fill: #c9cde0;
      }

      .cls-2 {
        fill: #707ca5;
      }

      .cls-3 {
        fill: #374071;
      }
    </style>
  </defs>
  <title>Asset 1</title>
  <g id="Layer_2" data-name="Layer 2">
    <g id="Draw_Layer" data-name="Draw Layer">
      <g>
        <path class="cls-1" d="M12.507,16.1a4.428,4.428,0,0,0-2.835,1.589c-.059.063-.114.121-.168.18-.379.344-.762.684-1.122,1.051a10.165,10.165,0,0,0-.73.9c-.434.543-.863,1.09-1.293,1.637-.449.578-.9,1.152-1.32,1.754A29.817,29.817,0,0,0,3.453,25.9a11.974,11.974,0,0,0-.781,1.407c-.192.414-.356.839-.543,1.257a17.209,17.209,0,0,0-1.09,3.758A22.292,22.292,0,0,0,.609,35.1C.55,36,.375,36.867.347,37.758c-.062,1.965-.363,3.9-.285,5.875.074,1.812.145,3.621.168,5.437,0,.535.027,1.075.039,1.61-.023.972-.055,1.949,0,2.925.055,1.036.2,2.063.258,3.1.1,1.848.23,3.7.254,5.543-.043.984-.129,1.965-.192,2.945C.5,66.7.574,68.234.593,69.746c.028,2.285.176,4.57.2,6.852-.055,1.636-.223,3.261-.364,4.89-.187,2.18-.008,4.4.02,6.586,0-.125,0-.254,0-.379,0,.469-.008.942-.008,1.41-.012.676-.012,1.348-.012,2.02C.375,93.793.148,96.449.125,99.117l.011-1.09C.1,99.988.1,101.938.242,103.891c.086,1.2.113,2.414.113,3.621-.039,1.683-.191,3.351-.183,5.035.011,1.707.074,3.445.183,5.148.106,1.723.223,3.457.227,5.184,0,1.531.129,3.058.16,4.586-.051,1.347-.125,2.691-.086,4.047a30.509,30.509,0,0,0,.262,3.164c.113.914.32,1.812.418,2.73.1.949.121,1.9.25,2.848a65.782,65.782,0,0,1,.277,6.633,19.421,19.421,0,0,0,.379,3.422c.289,1.382.7,2.734,1.043,4.1.051.192.1.387.148.578a32.09,32.09,0,0,0,1.1,3.789c.391,1.051.883,2.082,1.375,3.086a27.541,27.541,0,0,0,4.586,6.93,21.7,21.7,0,0,0,3.058,2.691,20.032,20.032,0,0,0,3.106,1.84c.383.184.742.4,1.137.563.343.136.7.222,1.05.347a16.764,16.764,0,0,1,2.383,1.133c.024.016.051.031.078.047.328.191.657.387.985.578a4.211,4.211,0,0,0,2.148.305,4.258,4.258,0,0,0,3.723-4.719,4.4,4.4,0,0,0-.189-.845l-.022-.006a5.418,5.418,0,0,0-.25-.629,5.993,5.993,0,0,1-1.2-.426,3.552,3.552,0,0,1-.43-.223c-.1-.058-.2-.113-.293-.164a15.859,15.859,0,0,1-2.23-1.164c-.379-.234-.778-.441-1.176-.644-.371-.192-.742-.383-1.1-.6-.242-.145-.48-.3-.723-.465a15.829,15.829,0,0,1-2.14-1.7l-.184-.176c-.252-.239-.5-.479-.739-.731q-.261-.224-.511-.452a24.7,24.7,0,0,1-2.883-4.051q-.28-.537-.547-1.084l-.039-.041a27.656,27.656,0,0,1-1.621-4.09l-.129-.352-.054-.144c-.133-.356-.262-.711-.4-1.063l-.222-.508c-.321-.73-.625-1.445-.864-2.16a22.326,22.326,0,0,1-.668-2.57c-.168-.82-.418-1.613-.656-2.379l-.062-.2c-.118-.379-.235-.762-.34-1.145a25.622,25.622,0,0,1-.77-3.527l-.023-.215a10.558,10.558,0,0,1-.137-1.894c.027-.536.082-1.082.172-1.727a9.89,9.89,0,0,0,.023-1.488c-.007-.188-.011-.375-.015-.567-.008-.464-.016-.925-.039-1.39-.008-.141-.02-.285-.031-.43a5.908,5.908,0,0,1-.04-.871c.008-.121.02-.238.032-.359l.015-.18c.028-.266.051-.531.055-.8a12.218,12.218,0,0,0-.047-1.4l-.058-.914c-.032-.559-.067-1.125-.125-1.684l-.04-.32-.023-.278-.035-.179-.07-.52c-.055-.387-.11-.777-.145-1.086l-.023-.3v.012l-.028-.14a21.537,21.537,0,0,1-.121-4.051c.024-.254.051-.512.094-.864a10.951,10.951,0,0,0,.09-1.183l.008-.5c.007-.5.015-1.008.035-1.512l.008-.133c.027-.648.058-1.281.125-1.921.066-.59.085-1.188.1-1.762l0-.149.008-.4c.012-.273.008-.551,0-.824l0-.164c-.008-.418-.012-.84.008-1.258.039-.7.047-1.453.027-2.438a36.828,36.828,0,0,1,.191-3.761l.059-.739.062-.753c.055-.586.118-1.309.125-2.008A22.386,22.386,0,0,1,8.2,96.324c.074-.625.117-1.254.148-1.883.032-.578.1-1.132.172-1.648a28.876,28.876,0,0,0,.238-4.031c-.007-.711.024-1.45.09-2.192l-.023-1.316c-.012-.645-.024-1.289-.031-1.934.035-.785.109-1.57.187-2.355.059-.61.117-1.219.156-1.828a40.61,40.61,0,0,0,.012-5.078c-.039-.668-.043-1.34-.047-2.012s0-1.34-.047-2.012c-.066-1.113-.074-2.211-.074-3.328.02-.484.055-.973.086-1.457l.02-.289c.039-.484.074-.969.093-1.457.059-1.219.016-2.449-.031-3.731l-.043-1.164c-.027-1.136-.09-2.3-.2-3.57-.016-.223-.035-.445-.055-.664l-.027-.3c-.078-.871-.172-1.859-.168-2.843.008-1.2,0-2.4-.02-3.594l-.011-.891c0-.711-.036-1.422-.071-2.137l-.011-.265q-.042-.891-.071-1.781c.024-.418.063-.836.1-1.25l.019-.25.047-.536c.032-.328.047-.652.067-.98l.011-.231c.016-.363.036-.73.063-1.093.039-.457.09-.91.144-1.367l.028-.254c.043-.368.086-.735.121-1.1s.094-.734.164-1.113l.035-.1c.068-.367.147-.735.234-1.095a18.026,18.026,0,0,1,.829-2.238c.022-.139.047-.284.082-.422.046-.211.1-.422.156-.633s.113-.41.172-.613a5.729,5.729,0,0,1,.5-1.121l.058-.109.153-.43a6.848,6.848,0,0,1,.422-1.055c.07-.136.148-.265.234-.4l.1-.149c.086-.125.171-.253.25-.382l.109-.309a5.987,5.987,0,0,1,.66-1.426c.4-.57.793-1.09,1.238-1.633a1.915,1.915,0,0,1,.219-.242l-.094.082.086-.105c.332-.406.676-.813,1.047-1.254l.152-.148.074-.087-.062.047c.387-.461.785-.9,1.2-1.332l.008-.009a4.356,4.356,0,0,0-1.454-2.241A4.3,4.3,0,0,0,13,16.074a4.106,4.106,0,0,0-.5.028Z"/>
        <path class="cls-1" d="M171.347,148.582c-.121.422-.242.852-.379,1.273-.168.376-.347.747-.532,1.118l-.011.066-.336.656c-.117.231-.246.453-.375.676l-.183.316a10.808,10.808,0,0,0-.656,1.563c-.09.187-.188.367-.289.551l-.133.242c-.121.23-.235.465-.348.7-.152.316-.3.633-.484.941-.125.219-.242.442-.36.665l-.1.187-.067.129c-.2.379-.4.762-.636,1.129a14.353,14.353,0,0,1-1.157,1.367,14.526,14.526,0,0,0-1.738,2.281l-.14.215a13.74,13.74,0,0,1-1.583,1.527c-.489.375-.979.75-1.48,1.114l-.426.332.36-.284c-.124.09-.249.18-.375.268l.44-.319.02-.016c-.563.395-1.164.743-1.706,1.058l-.125.074a19.517,19.517,0,0,0-2.083,1.359,25.473,25.473,0,0,1-2.449,1.618c-.84.511-1.426.836-2.011,1.121-1,.394-1.985.8-2.977,1.2l-.159.058-.618.262.608-.258a22.832,22.832,0,0,1-3.456.867l-.527.1-.278.051c-1.308.254-2.625.5-3.945.722-1.621.188-3.266.3-4.891.333l-1.3.023c-1.3.019-2.6.043-3.9.1-.445.02-.887.028-1.336.036-.406.007-.812.015-1.219.035-.386.011-.777.039-1.164.066-.441.031-.882.059-1.328.074-.582.016-1.164.02-1.746.02h-.953l-1.07,0c-.438,0-.879,0-1.317.012-.988.019-1.976.035-2.965.035a67.672,67.672,0,0,1-6.849-.3q-.581-.054-1.16-.119l.006,0,.095.011-.092-.01.067.028a48.044,48.044,0,0,0-5.18-.23c-.574,0-1.144.011-1.73.023l-.352.012-.332.008c-.551.011-1.094.027-1.644.027-.442,0-.883-.008-1.325-.027-.863-.043-1.738-.137-2.586-.227l-.183-.019c-.871-.1-1.719-.192-2.567-.235q-.508-.029-1.031-.047c-.562-.019-1.133-.039-1.695-.089-.586-.055-1.176-.086-1.774-.118l-.89-.047c-.688-.046-1.426-.066-2.328-.066-1,0-2,.027-3.078.059-.961.027-1.926.054-2.891.054a27.305,27.305,0,0,1-3.062-.144l-.109-.01.1.022.273.035-.259-.032.259.055c-1.445-.191-2.906-.238-4.371-.285-.508-.016-1.012-.031-1.52-.051-.261-.012-.519-.015-.781-.015s-.543,0-.812.007l-.176,0c-.3,0-.594.008-.891.008-.175,0-.347,0-.519,0-.278-.008-.551-.012-.828-.012-.8,0-1.536.028-2.25.094l-.3.02c-.922.078-1.871.16-2.883.168-.519,0-1.035-.043-1.566-.086-.4-.031-.8-.063-1.2-.074-.546-.02-1.093-.028-1.644-.032-.5,0-1-.011-1.5-.023s-1.031-.067-1.559-.117c-.5-.047-.988-.09-1.48-.106-2.281-.078-4.617-.1-7.008-.129l-1.164-.011-.605,0c-.481,0-.965,0-1.461.011h-.114l-1.242,0c-.863,0-1.992-.015-3.1-.109l-.633-.109-.125-.024c-.2-.034-.388-.069-.546-.112l-.088-.014.048.025c-.063-.012-.125-.02-.266-.055l-.047.008h-.058c-.75-.09-1.4-.149-2.039-.18l-.223-.012a2.225,2.225,0,0,1-.3-.031l.1.03.12.015-.119-.015.119.036c-.461-.058-.922-.105-1.316-.144a5.841,5.841,0,0,1-.652-.088l-.041,0,.019.008.076.01-.072-.008.072.031c-.461-.051-.914-.09-1.375-.125-.453-.07-.9-.156-1.352-.254-.492-.113-1.007-.23-1.519-.386l0-.013c-.12-.034-.238-.071-.356-.109-.332-.148-.671-.289-1.015-.429a.477.477,0,0,0-.067-.028,22.919,22.919,0,0,1-2.9-1.636c-.555-.36-1.109-.711-1.652-1.086-.336-.235-.688-.442-1.035-.657-.107-.1-.21-.208-.311-.317l-.061-.042a15.829,15.829,0,0,1-2.14-1.7l-.184-.176c-.308-.293-.617-.586-.894-.9a8.535,8.535,0,0,1-.766-.992,4.212,4.212,0,0,1-.254-.469l-.109-.141-.233-.32-.138-.172.129.2c-.258-.324-.52-.648-.782-.968l-.23-.282c-.137-.191-.274-.386-.4-.582a4.344,4.344,0,0,0-1.04-1.726l-.021-.045-.033-.033a4.25,4.25,0,0,0-6.008.1,4.068,4.068,0,0,0-1.191,2.973,5.9,5.9,0,0,0,.683,2.511,4.641,4.641,0,0,0,.274.457c.132.211.269.415.41.618.4.558.843,1.066,1.281,1.586.344.453.7.9,1.066,1.336a16.258,16.258,0,0,0,1.278,1.55c.461.461.941.887,1.433,1.313.446.387.871.8,1.285,1.219s.774.906,1.223,1.285a27.409,27.409,0,0,0,2.426,1.656c.59.4,1.176.8,1.777,1.176a23.189,23.189,0,0,0,4.2,2.187c.347.153.691.3,1.046.446-.21-.082-.418-.164-.628-.25.246.105.5.2.75.3.085.036.171.067.257.1-.074-.031-.148-.059-.222-.09a18.11,18.11,0,0,0,3.179.871c.457.082.926.164,1.387.231.8.109,1.594.132,2.391.226-.114-.015-.231-.027-.348-.043.332.035.668.071,1,.1-.359-.043-.719-.086-1.078-.133.641.082,1.281.149,1.922.227-.36-.047-.719-.09-1.078-.137.722.094,1.422.176,2.144.219.414.023.828.027,1.239.066.906.137,1.8.316,2.73.4.727.062,1.461.1,2.187.109.875.012,1.75.008,2.625,0,.825-.008,1.649-.012,2.473,0,1.785.02,3.574.062,5.36.094.941.015,1.878.015,2.816.09,1.035.082,2.059.187,3.1.191.828,0,1.66.008,2.488.043.8.035,1.594.141,2.39.156a24.875,24.875,0,0,0,2.645-.14c.82-.071,1.641-.145,2.469-.145,1.679,0,3.371-.023,5.051.035,1.355.043,2.718.031,4.07.156-.36-.043-.719-.085-1.078-.132a39.58,39.58,0,0,0,6.144.336c1.973-.055,3.957-.125,5.93-.079.93.02,1.867.071,2.8.137.879.059,1.762.18,2.644.192,1.817.027,3.61.269,5.414.41a52.933,52.933,0,0,0,5.731.078c.941-.031,1.887-.02,2.832.019.824.032,1.648.028,2.469.106.929.121,1.867.223,2.8.269.84.036,1.68.18,2.52.18,1.727,0,3.457.074,5.184.035,1.7-.039,3.4-.051,5.1-.058,1.672-.008,3.34-.141,5.012-.192,1.742-.051,3.477-.148,5.219-.152a49.673,49.673,0,0,0,5.586-.281c2.414-.278,4.8-.719,7.175-1.192.829-.16,1.661-.285,2.481-.5a19.672,19.672,0,0,0,3.07-1.195,38.828,38.828,0,0,0,3.871-1.6,28.859,28.859,0,0,0,3.43-2.129c.461-.328.891-.695,1.383-.984.527-.317,1.058-.629,1.586-.953a28.4,28.4,0,0,0,2.695-1.891,27.827,27.827,0,0,0,3.008-2.453,13.6,13.6,0,0,0,1.629-2.008c.172-.25.328-.508.488-.762.387-.449.8-.875,1.176-1.335a21.98,21.98,0,0,0,1.91-2.582c.25-.418.461-.868.68-1.3.265-.532.59-1.02.828-1.563.16-.367.355-.711.543-1.062a12.733,12.733,0,0,0,.683-1.629c.3-.633.688-1.235,1-1.863a25.152,25.152,0,0,0,1.7-4.364,4.244,4.244,0,0,0-4.106-5.3,4.34,4.34,0,0,0-4.125,3.191ZM14.761,161.2a.342.342,0,0,1,.008.067c0-.024,0-.047-.008-.067Z"/>
        <path class="cls-1" d="M26.574,170.174l.728.291c-.258-.1-.52-.207-.782-.312l.054.021Z"/>
        <path class="cls-1" d="M145.718,1.484a4.253,4.253,0,0,0-2.543,5.446,4.047,4.047,0,0,0,2.2,2.4c.472.156.944.329,1.418.5h.058c.453.156.989.336,1.528.473a9.446,9.446,0,0,0,.937.16c.219.027.438.059.66.1.707.27,1.414.606,2.039.9l.614.289c.5.23.984.5,1.476.785l.567.32.445.235.223.117c.265.137.527.273.886.484.543.375,1.078.746,1.645,1.094.265.16.535.313.808.465l.122.066c.179.1.359.207.539.317.914.6,1.9,1.269,3.011,2.148a27.749,27.749,0,0,1,2.43,2.078c.656.8,1.242,1.664,1.812,2.5l.075.114.144.218c.258.379.528.75.8,1.125l.07.1c.45.625.914,1.277,1.309,1.961.527,1.125.973,2.316,1.363,3.367l.035.1a20.554,20.554,0,0,1,.776,2.447c.033.124.065.248.1.373l-.009-.059c-.026-.119-.053-.238-.081-.355.025.108.051.215.077.322l-.027-.2c.165.684.356,1.355.547,2.027l.067.231c.179.613.359,1.226.523,1.855.223,1.153.34,2.348.457,3.5l.016.121.043.43c.18,1.789.367,3.324.57,4.687.047.344.1.688.16,1.032l.043.258a21.283,21.283,0,0,1,.387,3.5c0,.183,0,.371-.008.558l0,.278c-.008.554-.015,1.113.012,1.671.008.266.027.532.051.829l.008.152c.027.41.058.82.062,1.234l-.055.938c-.109,2.121-.226,4.316-.191,6.484.008.606.008,1.211.008,1.817,0,.468,0,.941.008,1.41,0,.386.015.777.027,1.164l.012.289c.027.668.05,1.332.047,2a50.949,50.949,0,0,0,0,5.812c.062,1.039.1,2.082.1,3.188-.054,1-.121,2-.191,3L173.8,82c-.074,1.16-.066,2.309-.047,3.586,0,.576.011,1.155-.013,1.731v.1l.022-.18.012-.29c0,.094-.007.187-.011.28l.034-.28c-.043,1.02-.066,2.039-.089,3.071q-.018,1.013-.047,2.027c-.047,1.062-.059,2.074-.028,3.094l.012.441.008.246c.016.5.035,1.012.035,1.516-.039.445-.086.879-.141,1.41l-.066.613a24.715,24.715,0,0,0-.066,3.348c.046,1.418.05,2.844.015,4.23-.039.86-.1,1.715-.168,2.571l-.019.3-.063.867c-.074.953-.058,1.918-.043,2.851l0,.1c.007.478.014.959-.009,1.44v.107l.018-.146.012-.28-.011.272.034-.272-.019.5-.016.426c-.031.687-.043,1.367-.055,2.05l-.015,1.024c-.016.281-.039.562-.078.84-.04.246-.082.492-.125.734l-.036.2c-.039.235-.082.469-.109.707-.121.836-.2,1.688-.27,2.512l-.011.144-.059.7c-.142,1.48-.312,3.251-.448,5.067q-.039.593-.068,1.185l.024-.123-.027.449c-.024.418-.047.836-.063,1.254-.031.914-.019,1.824-.008,2.738l0,.226c.016.915.028,1.833.008,2.747-.047,1.191-.062,2.5-.043,4.246,0,.472-.008.949-.019,1.425l-.012.852c0,.316,0,.637.008.953l.007.574a1.079,1.079,0,0,1-.078.29v0l.02-.035.036-.121v.02l-.021.073.037-.066-.149.532-.152.535-.043.129-.043.129c-.113.339-.231.679-.324,1.031-.043.187-.082.375-.125.57l-.086.375-.059.141a5.546,5.546,0,0,0-.344,1.242l-.027.053a4.094,4.094,0,0,0,.211,1.947,4.25,4.25,0,0,0,7.844.348,20.958,20.958,0,0,0,.695-2.094c.133-.461.191-.941.324-1.406-.031.1-.062.207-.1.308.113-.359.222-.722.324-1.082a6.6,6.6,0,0,0,.453-1.84c.039-.7.039-1.371.035-2.066-.008-.891,0-1.781.024-2.672.029-1.507-.022-3.012.023-4.516,0,.057,0,.113-.008.168.051-1.808-.054-3.609-.015-5.418.03-.544.063-1.088.086-1.634-.01.278-.02.556-.032.834.094-2.3.387-4.586.574-6.879.1-1.242.243-2.485.461-3.715a30.647,30.647,0,0,0,.243-4.934c.015-.386.031-.769.035-1.156-.008.3-.02.606-.031.906v-.011c.046-1.485,0-2.961.011-4.446.082-1.476.211-2.949.274-4.429,0,.062,0,.121,0,.179,0-.16.011-.32.015-.48,0,.1-.007.2-.011.3.054-2.125-.012-4.246,0-6.371.035-.414.082-.825.125-1.239.1-.98.148-1.957.175-2.941.039-1.414-.1-2.82-.074-4.234.047-1.516.059-3.028.11-4.543-.016.367-.028.734-.043,1.1.082-1.93.011-3.851.043-5.781.148-2.3.382-4.6.367-6.9-.012-2.062-.219-4.125-.2-6.187.059-1.094.133-2.191.106-3.285-.023-1.039-.094-2.082-.086-3.121.02-1.7-.07-3.407-.039-5.106a50.714,50.714,0,0,0,.195-6.8c-.164-2.153.074-4.293-.359-6.43-.848-4.149-.774-8.434-1.879-12.527-.281-1.036-.629-2.051-.9-3.086.035.148.066.293.1.441a36.428,36.428,0,0,0-2.539-7.355,22.333,22.333,0,0,0-2.027-3.524c-.539-.75-1.09-1.488-1.6-2.262a22.015,22.015,0,0,0-4.172-4.773,55.9,55.9,0,0,0-4.711-3.473c-.886-.59-1.8-1.1-2.707-1.644a31.459,31.459,0,0,0-2.921-1.8c-.95-.488-1.848-1.051-2.817-1.5-.777-.363-1.555-.727-2.348-1.051a15.388,15.388,0,0,0-2.136-.7c-.5-.129-1.028-.153-1.535-.25-.332-.113-.661-.227-.993-.336l-1.089-.34a4.518,4.518,0,0,0-.719-.059,4.187,4.187,0,0,0-1.442.254ZM182.2,82.457c0,.074,0,.152-.008.227,0-.075.008-.153.008-.227Zm-10.441,63.812c.023-.07.043-.136.066-.207-.023.075-.047.149-.066.219v-.012Z"/>
        <path class="cls-1" d="M117.726.609c-2.332.047-4.66.1-7,.106-2.5.008-5.019,0-7.519.156-2.235.141-4.465.149-6.7.219-1.414.043-2.824.152-4.238.129-1.262-.024-2.519-.067-3.781-.055-2.809.027-5.617.223-8.422.383a39.717,39.717,0,0,1-4.078.207c-1.375-.063-2.731-.2-4.106-.2-1.511,0-2.988-.137-4.492-.262-1.383-.117-2.781-.121-4.172-.16-2.1-.067-4.211-.09-6.312-.207a38.494,38.494,0,0,0-7.285.7c-.868.074-1.739.1-2.614.1A32.3,32.3,0,0,0,43,2.016c-1.746.218-3.5.488-5.227.839a41.068,41.068,0,0,0-7.3,2.075c-1.625.66-3.226,1.379-4.855,2.043-.187.074-.375.144-.562.218a24.02,24.02,0,0,0-3.43,1.559,33.077,33.077,0,0,0-2.828,1.855c.093-.066.187-.136.281-.207-.367.266-.738.532-1.106.8-.832.578-1.667,1.149-2.476,1.762-.395.3-.754.648-1.133.965a25.369,25.369,0,0,0-2.25,1.605c-.508.426-.969.9-1.433,1.371-.985,1.02-1.911,2.106-2.809,3.207.047-.058.094-.117.137-.175-.047.062-.094.121-.145.179q-.275.34-.551.676c.172-.207.34-.414.512-.625-.7.863-1.371,1.734-2.051,2.613a4.111,4.111,0,0,0-.515,3.262,4.245,4.245,0,0,0,5.144,3.109,3.651,3.651,0,0,0,.443-.134,7.112,7.112,0,0,1,.409-.85l.058-.109.153-.43a6.848,6.848,0,0,1,.422-1.055c.07-.136.148-.265.234-.4l.1-.149c.086-.125.171-.253.25-.382l.109-.309a5.987,5.987,0,0,1,.66-1.426c.4-.57.793-1.09,1.238-1.633a1.959,1.959,0,0,1,.207-.231l0,0-.084.073.086-.105c.332-.406.676-.813,1.047-1.254l.134-.13.082-.1-.052.04c.387-.461.785-.9,1.2-1.332.191-.2.39-.4.589-.6.563-.551,1.145-1.078,1.727-1.606a16.462,16.462,0,0,1,2.414-1.761l.3-.2.1-.066c.223-.141.442-.278.668-.4a9.374,9.374,0,0,1,.867-.41l.11-.043.172-.07c.383-.168.761-.352,1.136-.535l.122-.063c.242-.117.488-.234.73-.343.613-.286,1.266-.547,2.047-.829l.172-.066.238-.086.652-.242a24.613,24.613,0,0,1,3.137-1c.367-.086.723-.207,1.078-.328.266-.09.535-.18.809-.254a8.522,8.522,0,0,1,1.133-.223l.117-.019c.2-.028.39-.055.586-.09a15.561,15.561,0,0,1,2.258-.148c.445,0,.894-.012,1.339-.043.414-.071.817-.172,1.223-.27.387-.1.77-.2,1.168-.269a12.52,12.52,0,0,1,2.293-.208h.309l.25,0c.214,0,.433,0,.648-.011l.18,0,.215,0c.222-.008.449-.016.671-.016l.227,0c.086,0,.172,0,.289-.008l.2-.007q.188-.012.375-.012l.106,0h.1c.219.015.434.039.649.074s.449.074.668.117a11.538,11.538,0,0,0,1.16.059c.4,0,.8-.02,1.258-.051.242-.027.484-.047.824-.07.25-.016.5-.024.762-.024.21,0,.421-.015.632-.031.227-.02.453-.035.77-.043.336,0,.676-.016,1.015-.027L56.062,9c.254,0,.508-.008.762-.008q.339,0,.68.012c.246.016.492.019.738.019.269,0,.539,0,.808-.015.192,0,.387-.02.579-.035l.128-.012a8.826,8.826,0,0,1,.915-.055l.132,0c.371,0,.739-.019,1.106-.039l.531-.027c.082,0,.164,0,.336-.02a4.519,4.519,0,0,1,.469-.023c.125.008.246.019.367.031l.117.012.246.027c.485.051.965.07,1.446.09l.628.023c.207.012.411.016.614.016.226,0,.449,0,.687-.008l.223,0c.156,0,.308-.008.465-.008.738,0,1.476.036,2.242.079l.465.023c.531.031,1.062.063,1.6.082.719.027,1.442.047,2.164.047,1.161,0,2.207-.043,3.2-.141s1.922-.129,2.883-.164c.2,0,.4-.011.6-.019l.309-.016c.574-.027,1.152-.051,1.73-.051h.285q2.111.036,4.215.09l1.672.035,1.207.035c1.156.028,2.309.059,3.465.059l.156.012.168-.008c.324,0,.649-.008.988-.016.282,0,.559-.007.84-.007.551,0,1.1.011,1.649.023l.414,0c.3.008.6.012.953.015.336,0,.676.008,1.016.008s.71,0,1.07-.015c.176,0,.348-.008.547-.02l.152-.008c.211-.007.426-.023.641-.035l.312-.023c.414-.031.828-.059,1.242-.078l.848-.032c.6-.019,1.2-.039,1.8-.089l.246-.028c1.262-.152,2.566-.312,3.867-.367.629-.023,1.262-.031,1.9-.039s1.261-.016,1.894-.043c.344-.012.691-.016,1.039-.02.516,0,1.035-.011,1.555-.046l.722-.047c.555-.039,1.11-.075,1.665-.1,1.39-.058,2.781-.078,4.168-.094l1.16-.019c.4,0,.8-.008,1.2-.008l.469,0h.586c.636,0,1.273-.035,1.906-.07l.5-.028c.332-.015.668-.023,1-.023.195,0,.391,0,.586.008l.293,0,.586,0a16.6,16.6,0,0,1,2.734.3l.281.047.258.035c.524.067,1.043.106,1.571.133l.289.02.238.011a15.267,15.267,0,0,1,2.652.414c.676.16,1.348.348,2.008.532l.395.015.39.016.4.015c.8.043,1.613.153,2.234.243a4.091,4.091,0,0,0,1.2.183l.048.017a4.342,4.342,0,0,0,4.027-3.056A4.3,4.3,0,0,0,148.05,1.5a12.109,12.109,0,0,0-2.242-.344c-.508-.062-1.011-.144-1.519-.2-.969-.094-1.95-.125-2.922-.129s-1.942-.1-2.914-.082c-.817.02-1.625.012-2.442,0-.859-.012-1.726-.035-2.586-.09C132.394.6,131.367.629,130.339.6c-2.046-.059-4.085.074-6.128.1-1.192.012-2.375-.09-3.563-.129-.238-.008-.476-.012-.719-.012-.734,0-1.468.036-2.2.047ZM145.371,9.59a.732.732,0,0,1,.086.015.576.576,0,0,1-.086-.015Z"/>
        <path class="cls-1" d="M82.839.012c-.492,0-.984.011-1.472,0C80.172,0,78.98.055,77.789.109c-1.1.051-2.2.1-3.293.094a42.782,42.782,0,0,0-5.852.57C65.9.953,63.156.719,60.41.656,58.007.6,55.636.5,53.234.66c-2.668.184-5.344-.031-8,.317-.988.128-1.98.312-2.965.48s-1.976.254-2.961.406c-.254.039-.507.075-.765.106-.383.019-.77.008-1.153,0A10.8,10.8,0,0,0,36,1.973a16.68,16.68,0,0,0-3.29.527,40.847,40.847,0,0,1-4.968,1.371,11.449,11.449,0,0,0-3.149.543c-.746.27-1.48.555-2.218.84-.989.367-1.973.738-2.934,1.176-.625.285-1.211.636-1.813.968a30.9,30.9,0,0,0-4.714,3.188A20.662,20.662,0,0,0,11.035,12.5c-.586.633-1.188,1.25-1.766,1.891a26.244,26.244,0,0,0-1.918,2.472A11.254,11.254,0,0,0,6.23,18.609c-.4.879-.793,1.762-1.18,2.641l0,0c-.129.292-.258.592-.387.888A12.457,12.457,0,0,0,4,23.789q-.159.538-.325,1.07c-.164.536-.332,1.067-.539,1.59-.265.567-.539,1.133-.777,1.719-.246.6-.293,1.254-.5,1.863a10.417,10.417,0,0,0-.578,1.407c-.1.312-.2.628-.324.937A6.743,6.743,0,0,0,.406,34.02C.242,34.957.117,35.9.015,36.836a4.1,4.1,0,0,0,1.153,2.988,4.248,4.248,0,0,0,6.007.188,4.517,4.517,0,0,0,1.34-3.02c.032-.3.063-.594.1-.887a3.342,3.342,0,0,1,.137-.484c.167-.37.325-.743.464-1.126l.02-.108.043-.121.082-.258c.051-.16.105-.324.164-.488l.062-.145c.141-.3.278-.609.411-.922a2.768,2.768,0,0,0,.144-.617l.024-.121.027-.188c.039-.172.082-.336.133-.519.023-.156.051-.32.09-.477.046-.211.1-.422.156-.633s.113-.41.172-.613a5.729,5.729,0,0,1,.5-1.121l.058-.109.153-.43a6.848,6.848,0,0,1,.422-1.055c.07-.136.148-.265.234-.4l.039-.06c.061-.179.127-.354.2-.526l0-.008c.008-.019.016-.035.023-.055l0,0c.125-.293.25-.582.375-.875.14-.312.277-.629.414-.945a19.315,19.315,0,0,1,1.961-3.16c.585-.656,1.2-1.281,1.8-1.926a19.829,19.829,0,0,1,2.145-2.105,29.3,29.3,0,0,1,5.2-2.961q.832-.317,1.656-.633a11.736,11.736,0,0,1,1.875-.57l.212-.018.058-.022.172-.066.238-.086.652-.242a24.613,24.613,0,0,1,3.137-1c.367-.086.723-.207,1.078-.328.266-.09.535-.18.809-.254a8.522,8.522,0,0,1,1.133-.223l.117-.019c.2-.028.39-.055.586-.09a15.561,15.561,0,0,1,2.258-.148c.445,0,.894-.012,1.339-.043.414-.071.817-.172,1.223-.27.387-.1.77-.2,1.168-.269a12.52,12.52,0,0,1,2.293-.208h.309l.25,0c.214,0,.433,0,.648-.011l.18,0,.215,0c.222-.008.449-.016.671-.016l.227,0c.086,0,.172,0,.289-.008l.2-.007q.188-.012.375-.012l.106,0h.1c.219.015.434.039.649.074s.449.074.668.117c.1.01.2.019.3.026h.421c.442,0,.886.007,1.328,0,.119-.007.241-.014.368-.023.242-.027.484-.047.824-.07.25-.016.5-.024.762-.024.21,0,.421-.015.632-.031.227-.02.453-.035.77-.043.336,0,.676-.016,1.015-.027L56.062,9c.254,0,.508-.008.762-.008q.339,0,.68.012c.246.016.492.019.738.019.269,0,.539,0,.808-.015.192,0,.387-.02.579-.035l.128-.012a8.826,8.826,0,0,1,.915-.055l.132,0c.371,0,.739-.019,1.106-.039l.531-.027c.082,0,.164,0,.336-.02a4.519,4.519,0,0,1,.469-.023c.125.008.246.019.367.031l.117.012.246.027c.485.051.965.07,1.446.09l.628.023c.207.012.411.016.614.016.226,0,.449,0,.687-.008l.223,0c.156,0,.308-.008.465-.008.738,0,1.476.036,2.242.079l.11.005c.8-.1,1.6-.219,2.409-.326.735-.047,1.477-.043,2.219-.043.485,0,.969,0,1.453-.011,1.071-.028,2.137-.129,3.207-.164a68.374,68.374,0,0,1,7.957.2c1.34.113,2.68.246,4.028.273q.862.015,1.725.039.341,0,.681,0l.156.012.168-.008c.324,0,.649-.008.988-.016.282,0,.559-.007.84-.007.551,0,1.1.011,1.649.023l.414,0c.3.008.6.012.953.015l.435.005.12-.005c.644-.026,1.28-.03,1.917-.018l.161-.009.152-.008c.211-.007.426-.023.641-.035l.312-.023c.414-.031.828-.059,1.242-.078l.848-.032c.6-.019,1.2-.039,1.8-.089l.246-.028c1.262-.152,2.566-.312,3.867-.367.629-.023,1.262-.031,1.9-.039s1.261-.016,1.894-.043c.344-.012.691-.016,1.039-.02.516,0,1.035-.011,1.555-.046l.722-.047c.555-.039,1.11-.075,1.665-.1,1.39-.058,2.781-.078,4.168-.094l1.16-.019c.4,0,.8-.008,1.2-.008l.469,0h.586c.636,0,1.273-.035,1.906-.07l.5-.028c.332-.015.668-.023,1-.023.195,0,.391,0,.586.008l.293,0,.586,0a16.6,16.6,0,0,1,2.734.3l.281.047.258.035c.524.067,1.043.106,1.571.133h.021a4.253,4.253,0,0,0,.068-5.9c-.285-.23-.566-.464-.851-.7a4.285,4.285,0,0,0-2.168-.636c-.1-.016-.2-.032-.3-.043.375.054.75.113,1.125.171a45.432,45.432,0,0,0-4.582-.546C129.3.668,128.222.691,127.164.668c-2.328-.047-4.649,0-6.973-.176a63.916,63.916,0,0,0-7.125-.238c-2.352.082-4.7.453-7.047.449-1.5,0-3-.18-4.5-.191C100.2.5,98.882.625,97.562.625c-1.289,0-2.574-.074-3.863-.1C92.32.488,90.949.492,89.578.371,88.183.25,86.793.125,85.4.039,84.914.008,84.429,0,83.945,0c-.367,0-.738,0-1.106.012Z"/>
        <path class="cls-1" d="M5.066,21.219l.019-.043-.019.043Z"/>
        <path class="cls-1" d="M38.3,51.609a7.123,7.123,0,0,0-.843.192,2.9,2.9,0,0,0-.723.359,10.8,10.8,0,0,0-1.543,1,4.529,4.529,0,0,0-1,1.031l-.086.141a6.089,6.089,0,0,0-.379.648,4.8,4.8,0,0,0-.258.747l-.062.2c-.52,1.726.105,3.465.66,5,.1.273.207.543.328.808.02.062.042.124.064.186a11.864,11.864,0,0,0,.729,1.322c.438.7.891,1.383,1.332,2.074s.879,1.4,1.379,2.059c.551.726,1.16,1.406,1.7,2.137,1.117,1.507,2.27,2.98,3.3,4.55,1.062,1.622,2.187,3.192,3.344,4.746,1.172,1.575,2.183,3.262,3.277,4.895.531.793,1.09,1.57,1.606,2.375.55.859,1.074,1.738,1.605,2.609.98,1.61,1.871,3.286,2.922,4.852s2.144,3.1,3.125,4.707c.457.746.988,1.445,1.473,2.172.515.773,1.062,1.523,1.593,2.285,1.082,1.551,2.063,3.168,3.039,4.789.5.824,1.008,1.649,1.567,2.438s1.164,1.586,1.761,2.371,1.165,1.574,1.7,2.406,1.066,1.629,1.637,2.418c.074.1.149.207.225.31l.075.092.16.192c.512.691,1.043,1.375,1.575,2.058.55.711,1.1,1.422,1.632,2.141l.184.254.434.6c.367.508.734,1.016,1.121,1.512l1.129,1.445.234.3.488.617c1.3,1.653,2.262,2.918,3.106,4.1.894,1.242,1.887,2.527,3.125,4.035.3.367.6.723.91,1.078l.316.375.371.438c.489.59.95,1.207,1.411,1.824l.074.1.265.355c.9,1.207,1.84,2.453,2.864,3.6a2.05,2.05,0,0,0,1.285.8,1.9,1.9,0,0,0,.324.027,2,2,0,0,0,1.156-.367,2.064,2.064,0,0,0,.36-.332l.041-.024a2,2,0,0,0,.353-.672.063.063,0,0,0,.024-.015,1.91,1.91,0,0,0,.8-1.3,2.164,2.164,0,0,0-.113-1.074,1.537,1.537,0,0,0-.172-.344,9.108,9.108,0,0,1-.34-.906,9.976,9.976,0,0,0-.734-1.645c.043.074.082.149.125.223-.051-.09-.1-.184-.152-.274l-.094-.175c.023.047.047.09.07.136-.174-.315-.355-.628-.535-.941l-.012.02-.144-.25-.391-.7a20.952,20.952,0,0,0-1.156-2l-.281-.4c-.36-.516-.731-1.047-1.047-1.6-.453-.859-.875-1.609-1.289-2.293-.153-.246-.317-.492-.477-.738l-.129-.2-.129-.2c-.23-.352-.453-.7-.664-1.063-.418-.773-.84-1.484-1.289-2.172-.511-.762-.933-1.441-1.324-2.14-.684-1.293-1.309-2.454-2.012-3.571l-.539-.84c-.554-.859-1.183-1.832-1.715-2.832l.047.094-.041-.075.026.083c-.93-1.7-1.743-3.059-2.559-4.285l-.328-.481-.074-.109c-.789-1.172-1.606-2.383-2.3-3.645-.172-.32-.34-.644-.508-.968s-.336-.645-.508-.969c-.5-.918-1.031-1.824-1.582-2.75-.933-1.551-1.691-2.859-2.379-4.109l-.48-.879-.293-.535-.312-.583-.106-.2c-.82-1.59-1.785-3.187-2.637-4.6l-.089-.145c-.512-.859-1.028-1.719-1.524-2.59l-.434-.836c-.339-.664-.679-1.324-1.054-1.972l-.645-1.1c-.308-.522-.616-1.044-.9-1.579-.057-.1-.113-.2-.169-.3l0,.011.064.121-.061-.112.043.123c-1.145-2.106-2.41-4.2-3.606-6.176-1.093-1.785-2.23-3.758-3.574-6.207-.281-.551-.555-1.11-.828-1.668-.594-1.211-1.207-2.465-1.91-3.652l-.512-.852c-.777-1.3-1.582-2.656-2.426-3.953l-.566-.84c-.336-.492-.668-.984-.981-1.492l-.16-.254a13.559,13.559,0,0,0-1.441-2.047l-.137-.156a8.927,8.927,0,0,0-1.016-1.024,7.2,7.2,0,0,0-1.238-.789l-.531-.3a10.414,10.414,0,0,0-1.231-.632,7.458,7.458,0,0,0-2.32-.657L39.64,51.6c-.238-.016-.484-.028-.73-.028a4.592,4.592,0,0,0-.61.035ZM41.824,61.3c-.031-.059-.063-.121-.094-.184.543.821,1.027,1.684,1.5,2.543-.484-.777-.961-1.558-1.406-2.359Zm.082.164c.023.039.043.082.066.121-.023-.039-.043-.078-.066-.121Z"/>
        <path class="cls-1" d="M35.953,54.957a2.035,2.035,0,0,0-.977.844c.039-.059.074-.117.11-.176-.079.1-.172.191-.258.285a3.276,3.276,0,0,0-.406.613c-.1.157-.2.313-.278.477a4.182,4.182,0,0,0-.2.609c-.051.161-.1.325-.137.485a4.656,4.656,0,0,0,.059,1.578,13.178,13.178,0,0,0,.426,1.773c.012.049.026.1.04.147s.043.1.065.146c.125.383.3.77.473,1.176.125.277.234.563.344.848l.043.1c.105.274.21.543.328.8A29.411,29.411,0,0,0,37.91,68.82c.183.274.379.543.574.809.254.355.508.707.738,1.074l.543.867q.434.71.879,1.407c.535.828,1.067,1.664,1.594,2.5l.5.781.813,1.277.273.426.059.09c.394.621.785,1.238,1.2,1.855.242.356.468.727.7,1.094l.133.211c.2.34.41.68.625,1.016.258.4.527.8.8,1.195l.207.308c.14.211.281.418.414.629.406.621.863,1.219,1.316,1.809l.336.437c.465.618.965,1.336,1.531,2.2.2.3.391.625.578.941l.071.125c.207.359.418.719.644,1.067.348.523.715,1.035,1.082,1.55l.348.489c.238.336.469.683.7,1.031l.1.148c.23.344.457.688.7,1.02.207.285.426.558.649.836l.074.093a13.292,13.292,0,0,1,.828,1.129c.109.168.215.34.352.575.085.148.168.293.261.437a10.382,10.382,0,0,0,.86,1.106c.543.628,1.035,1.312,1.468,1.918.36.5.719.988,1.1,1.46a12.142,12.142,0,0,1,.816,1.192c.11.176.223.351.336.523l.262.387c.422.625.84,1.246,1.227,1.9a24.358,24.358,0,0,0,1.453,2.074l.117.156c.2.273.4.551.594.832l.062.082c.238.344.485.688.742,1.016.473.609.965,1.176,1.516,1.8l.1.109c.14.164.285.324.433.484a13.391,13.391,0,0,1,1.262,1.551l.223.336.066.1c.3.449.609.918.949,1.343.246.313.5.618.746.922l.16.192q.147.2.3.395c.077.095.153.189.228.284.348.438.726.844,1.09,1.266.461.531.914,1.055,1.39,1.57-.117-.125-.23-.25-.347-.375.183.2.363.395.547.59l-.02-.019a12.871,12.871,0,0,1,1.34,1.613c.379.57.734,1.156,1.133,1.715a18.263,18.263,0,0,0,1.406,1.695c.449.5.871,1.008,1.309,1.512.953,1.093,1.929,2.183,2.781,3.359a33.157,33.157,0,0,0,2.642,3.195c-.007-.006-.013-.013-.021-.019a13.505,13.505,0,0,1,1.539,1.89c.109.176.211.356.309.532A2.163,2.163,0,0,0,89.679,138a2.012,2.012,0,0,0,.953-.367,2.131,2.131,0,0,0,.809-1.3,2.562,2.562,0,0,0-.2-1.391,6.005,6.005,0,0,0-.328-.785,7.284,7.284,0,0,0-.727-1.207,8.814,8.814,0,0,0-.727-.8,4.558,4.558,0,0,1-.339-.484c-.071-.145-.141-.293-.215-.438a2.127,2.127,0,0,0-1.031-1.1,2.03,2.03,0,0,0-.739-.18c-.41-.535-.808-1.078-1.23-1.6-.871-1.09-1.793-2.125-2.688-3.192A39.2,39.2,0,0,1,80.6,121.98c-.355-.531-.668-1.105-1.066-1.609-.508-.644-1.071-1.246-1.633-1.848l.352.375-.575-.617c.024.024.047.051.071.074-.594-.632-1.157-1.312-1.715-1.976-.5-.594-.977-1.2-1.473-1.8a15.229,15.229,0,0,1-1.285-1.785,13.683,13.683,0,0,0-1.559-1.961c-.57-.633-1.117-1.277-1.664-1.93-.523-.625-.972-1.293-1.445-1.957-.512-.726-1.062-1.418-1.551-2.16-.508-.773-.961-1.566-1.492-2.324-.414-.582-.781-1.2-1.2-1.789-.387-.551-.809-1.078-1.2-1.625-.414-.578-.868-1.133-1.3-1.7-.254-.332-.539-.637-.8-.973a11.857,11.857,0,0,1-.738-1.156,22.1,22.1,0,0,0-1.5-2.031c-.535-.708-.993-1.461-1.5-2.188-.485-.7-.981-1.395-1.473-2.09-.473-.668-.879-1.387-1.289-2.094a25.589,25.589,0,0,0-1.485-2.2c-.535-.742-1.14-1.433-1.648-2.195-.5-.742-.977-1.488-1.477-2.231s-.945-1.554-1.453-2.312Q47,75.609,45.547,73.293c-.958-1.52-1.934-3.035-2.879-4.563-.809-1.316-1.789-2.531-2.563-3.871a30.145,30.145,0,0,1-2.234-5.433c-.043-.231-.082-.465-.1-.7.008-.024.012-.043.02-.063.015-.035.031-.066.047-.1a1.4,1.4,0,0,1,.156-.191,4.01,4.01,0,0,0,.5-.715,1.9,1.9,0,0,0,.051-1.551,2,2,0,0,0-1.867-1.285,2.05,2.05,0,0,0-.719.133Zm-1.1,1.035c-.016.028-.031.047-.047.07l.047-.07Zm2.82,2.973a.158.158,0,0,1-.015.043.158.158,0,0,0,.015-.043ZM85.8,134.524l.018.019-.018-.019Z"/>
        <path class="cls-1" d="M140.773,51.531a4.682,4.682,0,0,0-.469.817l-.062.129c-.035.07-.074.144-.113.214l-.586,1.082c-.114.215-.231.426-.352.637l-.352.633-.187.352-.1.183c-.129.258-.261.512-.425.777l-.18.3c-.192.321-.375.641-.563.961l-.156.266-.336.582c-.113.18-.23.355-.387.586a12.88,12.88,0,0,0-.921,1.543c-.079.168-.149.34-.219.512s-.141.347-.223.515c-.1.219-.211.434-.328.645l-.008,0,.02.019-.063.082a1.283,1.283,0,0,1-.082.121l.055-.058c-.422.7-.824,1.4-1.215,2.117-.18.332-.348.668-.516,1.008-.2.394-.4.793-.621,1.183l-.48.836-.481.836c-.16.286-.316.578-.468.868s-.305.578-.469.863c-.16.254-.328.5-.5.746-.195.277-.387.559-.567.844-.277.437-.531.89-.781,1.339l-.078.145c-.1.184-.207.367-.312.547l-.075.125c-.437.7-.929,1.5-1.332,2.316-.414.844-.855,1.672-1.3,2.5-.383.719-.75,1.442-1.114,2.168l-.2.383c-.32.633-.676,1.242-1.031,1.852l-.223.375c-.777,1.273-1.789,2.953-2.684,4.652-.226.43-.449.855-.671,1.289l-.172.336c-.559,1.082-1.137,2.2-1.762,3.27l-.371.593-.106.172c-.187.3-.379.6-.562.9-.988,1.621-1.945,3.289-2.875,4.91l-.637,1.105c-.289.508-.558,1.024-.828,1.539-.215.41-.43.821-.656,1.227-.453.812-.926,1.617-1.4,2.418-.3.492-.625.972-.941,1.449l-.137.2a38.426,38.426,0,0,0-2.2,3.606c-.242.476-.5.945-.762,1.414-.191.339-.382.679-.566,1.023l-.109.2c-.418.77-.84,1.543-1.293,2.305l-.539.82-.309.473-.3.465c-.41.652-.789,1.339-1.144,1.988l-.266.48c-.41.743-.781,1.508-1.191,2.364-.254.523-.508,1.043-.774,1.562-.121.238-.234.477-.351.719l-.094.187c-.144.305-.289.61-.445.907l-.453.879L97.824,128c-.246.48-.5.957-.762,1.434l-.246.449c-.137.258-.269.515-.4.777l-.082.16c-.133.266-.27.535-.418.793l-.27.434-.1.122-.047.075.04-.037-.055.094-.129.207-.086.148-.148.246a14.813,14.813,0,0,0-.926,1.715l-.223.516-.061.1c-.149.346-.3.69-.458,1.032q-.909,1.94-1.844,3.863a2.013,2.013,0,0,0,1.012,2.64,1.961,1.961,0,0,0,1.715-.055l.035-.038a2.1,2.1,0,0,0,.875-.926c.258-.531.508-1.063.758-1.594.316-.672.632-1.344.964-2.012.164-.343.321-.695.473-1.042l.082-.192a17.991,17.991,0,0,1,.82-1.734l.3-.5.188-.317.07-.113c.316-.512.676-1.086.984-1.691.3-.586.606-1.168.926-1.739.652-1.175,1.266-2.359,1.817-3.511.324-.684.664-1.36,1-2.036.235-.464.469-.933.7-1.4.527-1.086,1.152-2.348,1.867-3.558.211-.332.422-.657.687-1.063.321-.488.645-.98.95-1.48.441-.735.89-1.536,1.336-2.383.308-.594.628-1.176.953-1.754l.207-.375.261-.488c.25-.469.5-.934.766-1.391a70.793,70.793,0,0,0,4.328-7.059c.512-1,1.078-2,1.629-2.957l.078-.136.246-.422.4-.7c.57-1,1.144-2,1.742-2.993l.2-.335.2-.332c.688-1.094,1.234-2,1.719-2.852.285-.512.547-1.027.808-1.547l.082-.164.168-.332q.193-.387.4-.773c.91-1.743,1.914-3.461,2.781-4.934l.063-.106c.433-.7.863-1.4,1.261-2.125.282-.515.543-1.039.8-1.562l.141-.285.293-.57c.183-.368.375-.727.566-1.086l.191-.364c.184-.34.368-.676.547-1.019l.348-.68c.254-.5.508-1.008.793-1.492l.219-.359c.195-.313.386-.626.574-.942.121-.211.234-.422.348-.633.093-.172.191-.347.289-.519.156-.25.316-.489.48-.735l.1-.144c.375-.559.738-1.106,1.07-1.676.148-.266.293-.531.438-.8l.164-.3c.211-.395.421-.786.644-1.172l.113-.2c.375-.656.766-1.339,1.11-2.031.4-.828.832-1.633,1.316-2.453l.059-.1c.3-.507.535-.937.758-1.4.046-.1.089-.2.132-.3l.079-.179.046-.11c.106-.242.211-.484.34-.719l.289-.437c.211-.32.422-.641.621-.969.129-.222.254-.445.379-.672l.1-.183c.09-.164.18-.328.277-.485l.27-.437.269-.438c.344-.582.668-1.179.989-1.781l.445-.816.211-.4.129-.242c.09-.164.175-.328.269-.484.051-.1.1-.2.188-.379l.082-.168a1.993,1.993,0,0,0-.4-2.656,1.972,1.972,0,0,0-1.242-.426,1.921,1.921,0,0,0-1.539.734Z"/>
        <path class="cls-2" d="M84.285,49.875a1.364,1.364,0,0,0-.91.477,1.5,1.5,0,0,0-1.141,1.5l0,.106a7,7,0,0,1,0,.766c-.016.175-.035.347-.059.523-.035.238-.078.43-.14.719l-.074.328-.079.348-.062.277a5.136,5.136,0,0,0-.1.746c-.027.2-.066.4-.109.613l-.031.141c-.059.281-.118.551-.2.82l-.231.52c-.141.316-.281.633-.406.957s-.242.636-.356.961l-.043.117c-.086.246-.175.492-.265.738-.4,1-.891,1.988-1.367,2.942A26.118,26.118,0,0,1,76.832,66.8c-.176.234-.352.472-.52.722l-.586.778c-.344.453-.687.906-1.012,1.363l.04-.039-.082.1-.266.379-.156.21a19.142,19.142,0,0,1-1.305,1.579,11.09,11.09,0,0,1-.848.8l-.1.094c-.137.117-.266.231-.4.352-.273.25-.546.5-.816.757-.426.4-.852.8-1.3,1.18l-.445.348a6.17,6.17,0,0,1-.7.422L68.07,76a1.4,1.4,0,0,0-.645.879,1.561,1.561,0,0,0,.18,1.18,2.108,2.108,0,0,0,.375.7l.129.277a11.555,11.555,0,0,0,.551,1.078c.109.184.226.364.418.649.168.246.332.5.484.758l.047.089.051.094.07.133.051.094.055.1c.433.809.882,1.649,1.378,2.446.2.328.411.644.625.965l.09.136L72,85.68a17.509,17.509,0,0,1,.937,1.5c.223.41.453.816.688,1.222l.125.219c.172.313.363.617.582.965l.3.477c.16.265.335.523.511.781l.086.125.258.387c.273.421.527.847.77,1.285.644,1.211,1.3,2.406,1.957,3.6l.23.418.191.352c.364.68.711,1.371,1.059,2.062.309.633.648,1.25.988,1.868l.086.156.446.883q.333.667.671,1.32c.235.445.481.883.723,1.312l.055.1.1.172.36.625c.113.211.219.426.324.644l.09.184c.176.363.355.727.551,1.078.281.52.574,1.031.871,1.543l.418.723c.226.429.453.859.687,1.285l.141.262c.461.859.918,1.711,1.39,2.562l.086.16.09.16.192.352a6.317,6.317,0,0,1,.494,1.052c.031.082.06.164.086.247l0-.045-.012-.074.013.051,0-.059a1.534,1.534,0,0,0,.925,1.219,1.992,1.992,0,0,0,.657.113,2.587,2.587,0,0,0,.578-.078l.121-.012c.223.008.441.012.664.012h.336a1.432,1.432,0,0,0,.984-.535c.035-.043.067-.083.1-.133a1.2,1.2,0,0,0,.32-.34,1.862,1.862,0,0,0,.266-1.18.807.807,0,0,0-.035-.168v-.265c0-.168,0-.336-.008-.5l-.016-.121c-.008-.075-.015-.153-.019-.227-.012-.4-.036-.805-.059-1.2,0-.211.012-.426.027-.637l.008-.152c.012-.195.02-.387.02-.582,0-.258-.008-.512-.02-.766l-.008-.187-.011-.242-.008-.247c-.008-.648-.02-1.3-.047-1.949,0-.281,0-.562.008-.844v-.285l.008-.285c0-.625-.028-1.25-.059-1.871l-.012-.5-.008-.375-.011-.379c-.008-.2-.032-.4-.055-.6l-.031-.329c0-.195.012-.39.023-.582.012-.148.02-.293.028-.441.007-.352-.016-.7-.039-1.055l-.016-.238c-.016-.688,0-1.289.031-2,.012-.324.02-.641.027-.965,0-.14.016-.281.024-.422l.008-.133L93.254,96c.023-.277.046-.555.046-.832l0-.461c0-.361,0-.724.013-1.086,0-.055,0-.11,0-.165l-.01.069-.006.194v-.164l-.025.164,0-.469-.015-.465,0-.113a16.6,16.6,0,0,1,.07-1.809A2.981,2.981,0,0,0,93.3,89.8a1.684,1.684,0,0,0-.359-.778,1.717,1.717,0,0,0-.684-.48,1.555,1.555,0,0,0-.445-.094,4.046,4.046,0,0,1-.707-.25,5.207,5.207,0,0,1-.672-.449,8.048,8.048,0,0,1-.929-1.156,5.964,5.964,0,0,1-.434-1.035,6.745,6.745,0,0,1-.246-1.262,4.264,4.264,0,0,1,.066-.695,2.6,2.6,0,0,1,.137-.36,6.392,6.392,0,0,1,.59-.844,8.255,8.255,0,0,1,1.254-1.082,9.866,9.866,0,0,1,1.664-.738,6.889,6.889,0,0,1,1.336-.258,5.773,5.773,0,0,1,1.1.153,7.911,7.911,0,0,1,1.239.48c.117.07.23.145.347.231a5.984,5.984,0,0,1,.559.675,6.143,6.143,0,0,1,.476,1.114,8.257,8.257,0,0,1,.274,1.55,9.135,9.135,0,0,1-.231,1.821,5.532,5.532,0,0,1-.277.855,8.135,8.135,0,0,1-.906,1.137,3.806,3.806,0,0,1-.5.387,2.04,2.04,0,0,0-.535-.082,1.412,1.412,0,0,0-.594.129,1.476,1.476,0,0,0-.777.851,2.721,2.721,0,0,0-.086.6,3.446,3.446,0,0,0,.007.484l.008.113c.024.614.051,1.227.09,1.844l0,.164c.008.1.008.188.008.274.008.293.008.586.008.879l0,.7c0,.664.027,1.324.054,1.988.008.531,0,1.066-.023,1.594a17.7,17.7,0,0,0,.031,1.8,8.474,8.474,0,0,1-.047,1.05,5.678,5.678,0,0,0,0,1.18l.012.215c.008.246.008.5.008.742l0,.6,0,.113c.016,1.105-.058,2.184-.125,3.25l-.043.605c-.027.383-.054.77-.066,1.153l-.012.285c-.011.148-.019.3-.019.445,0,.266.027.528.051.785l.019.254c.008.328.02.606.035.879,0,.16-.015.321-.035.492s-.027.329-.031.5a10.289,10.289,0,0,0,.047,1.633,1.34,1.34,0,0,0,.265.641,1.534,1.534,0,0,0,.407,1.113,1.339,1.339,0,0,0,.937.457h.125a6.446,6.446,0,0,0,.66-.039l.137-.012h.137a2.962,2.962,0,0,0,.312-.015,1.885,1.885,0,0,0,.9-.387,1.91,1.91,0,0,0,.578-.8c.183-.328.363-.652.539-.98.152-.281.328-.543.508-.809l.078-.117c.1-.148.2-.3.3-.453a13.717,13.717,0,0,0,.707-1.336l.207-.43c.136-.265.265-.535.394-.8l.195-.4.2-.406c.133-.25.261-.5.39-.746.176-.316.364-.617.551-.918l.063-.105c.113-.18.222-.356.328-.539.222-.368.433-.747.64-1.129.153-.278.305-.551.461-.825.18-.312.371-.621.567-.929l.144-.242c.129-.207.258-.415.379-.625.27-.469.524-.954.777-1.434l.094-.18.149-.285c.175-.332.34-.6.5-.851l.074-.122.078-.125.2-.343.078-.129.1-.168.051-.094.062-.109c.074-.133.153-.266.235-.4A16.55,16.55,0,0,0,108.3,97.7c.1-.191.2-.383.289-.574l.074-.145.176-.359.171-.324c.5-.949,1.028-1.926,1.582-2.86.532-.886,1.1-1.929,1.75-3.187.567-1.066,1.133-2.137,1.688-3.211.5-.965.98-1.93,1.453-2.91l.391-.817.078-.168c.246-.523.5-1.046.754-1.562.273-.535.519-1.074.754-1.652l.23-.571c.145-.367.293-.734.445-1.1a1.484,1.484,0,0,0,.071-.813,1,1,0,0,0,.109-.426,1.5,1.5,0,0,0-.3-1.168,1.911,1.911,0,0,0-.632-.5,1.354,1.354,0,0,0-.3-.093c-.1-.036-.195-.079-.336-.141l-.168-.07c-.055-.024-.113-.051-.172-.075a4.646,4.646,0,0,1-.825-.419l-.153-.086.01.012.046.032-.041-.025.033.041c-.191-.121-.386-.234-.586-.348l-.363-.207A14.745,14.745,0,0,1,112.9,72.73c-.762-.66-1.383-1.234-1.891-1.753a15.985,15.985,0,0,1-2.129-2.618l-.121-.2c-.5-.812-.992-1.625-1.457-2.453-.172-.332-.332-.668-.492-1.008l-.055-.117-.2-.426-.222-.457c-.223-.457-.446-.914-.645-1.383a37.274,37.274,0,0,1-1.476-4.156c-.036-.215-.071-.441-.114-.742l-.07-.508c-.1-.613-.258-1.254-.4-1.8-.161-.746-.274-1.55-.368-2.2l-.1-.7a1.523,1.523,0,0,0-.817-1.16,1.462,1.462,0,0,0-1.039-.613,6.463,6.463,0,0,0-.656.031l-.113.008c-.481-.012-.957-.055-1.508-.1-.317-.027-.637-.055-.953-.074-.77-.051-1.535-.086-2.309-.117-.164-.008-.328-.02-.492-.032l-.164-.011c-.156-.016-.313-.028-.469-.039s-.336-.012-.508-.012c-.152,0-.308,0-.464,0l-.231.008c-.59,0-1.176-.016-1.762-.032l-.293-.011c-.461-.012-.918-.047-1.4-.082l-.172-.012c-.293-.024-.59-.047-.887-.067-1.125-.07-1.961-.1-2.715-.1-.695,0-1.343.023-1.929.078Z"/>
        <path class="cls-3" d="M130.738,7.842c-.332,0-.668.007-1,.023l-.5.027c-.632.035-1.269.071-1.905.071l-.587,0-.468,0c-.4,0-.8,0-1.2.008l-1.161.019c-1.386.016-2.777.035-4.168.094-.555.027-1.109.062-1.664.1l-.723.047c-.519.035-1.038.043-1.554.047-.348,0-.695.008-1.039.02-.633.027-1.262.035-1.895.043s-1.265.015-1.894.039c-1.3.053-2.606.212-3.869.366l-.245.028c-.6.051-1.2.071-1.8.09l-.848.031c-.414.02-.828.047-1.243.078l-.31.02c-.214.014-.429.029-.642.039l-.154.007c-.2.009-.371.017-.545.02-.36.012-.715.016-1.07.016s-.68,0-1.016-.008c-.352,0-.652-.008-.953-.015l-.414-.008c-.55-.01-1.1-.02-1.649-.02-.281,0-.559,0-.84.008-.34.008-.664.012-.988.016l-.168.007-.156-.011c-1.156,0-2.309-.031-3.465-.062L89.4,8.947l-1.672-.035q-2.1-.053-4.215-.09h-.285c-.578,0-1.156.023-1.731.051l-.308.013c-.2.008-.4.017-.6.022-.96.035-1.9.074-2.883.164s-2.034.141-3.195.141c-.722,0-1.445-.02-2.163-.047-.535-.02-1.067-.051-1.6-.082l-.465-.024c-.765-.043-1.5-.078-2.242-.078-.155,0-.31,0-.464.007l-.224,0C67.113,9,66.89,9,66.664,9c-.2,0-.406,0-.613-.016l-.629-.023c-.48-.02-.961-.039-1.445-.09l-.246-.027-.117-.012c-.121-.013-.243-.026-.368-.032-.212,0-.34.012-.47.023-.172.014-.253.02-.335.02l-.532.028c-.367.019-.734.039-1.1.039l-.132,0a8.577,8.577,0,0,0-.916.055l-.126.01c-.2.017-.387.033-.58.037-.269.011-.539.015-.808.015-.246,0-.492,0-.738-.019-.227-.008-.453-.012-.68-.012-.254,0-.508,0-.762.008l-.473.015c-.34.012-.679.024-1.015.028-.317.007-.544.023-.771.043-.21.015-.421.027-.632.031-.261,0-.512.008-.762.023-.34.024-.582.043-.825.071-.456.031-.854.05-1.256.05a11.517,11.517,0,0,1-1.159-.058q-.327-.064-.668-.117c-.215-.035-.43-.059-.649-.075l-.1,0h-.1c-.125,0-.25,0-.375.011l-.2.008c-.117,0-.2.008-.29.008l-.226,0c-.225,0-.449.007-.671.013l-.217.006-.179,0c-.215.008-.434.012-.648.012l-.25,0h-.309a12.559,12.559,0,0,0-2.3.207c-.395.075-.778.168-1.164.266-.406.1-.813.2-1.226.273-.444.032-.893.039-1.339.043A15.2,15.2,0,0,0,35.994,10c-.2.035-.39.062-.586.09l-.115.017a9.045,9.045,0,0,0-1.132.221c-.274.074-.543.164-.809.254-.356.121-.711.242-1.077.328a24.714,24.714,0,0,0-3.139,1.006l-.651.241-.239.085-.172.067c-.782.282-1.432.545-2.047.828-.244.11-.488.229-.729.347l-.123.06c-.375.183-.754.367-1.136.535l-.172.07-.108.046a9.522,9.522,0,0,0-.87.407c-.226.125-.446.265-.665.4l-.105.067-.3.2A16.159,16.159,0,0,0,19.4,17.032c-.583.528-1.164,1.055-1.727,1.605-.2.2-.4.4-.59.6-.41.434-.809.872-1.2,1.333l.14-.112-.3.3c-.372.441-.714.846-1.048,1.255l-.086.1.094-.082a2.016,2.016,0,0,0-.219.239c-.444.543-.839,1.064-1.238,1.632a5.9,5.9,0,0,0-.66,1.428l-.111.309c-.077.127-.163.256-.249.381l-.1.148c-.086.133-.164.263-.235.4a7.164,7.164,0,0,0-.422,1.053l-.152.432-.058.108a5.941,5.941,0,0,0-.5,1.123c-.059.2-.117.411-.172.614s-.109.422-.156.633c-.036.156-.063.317-.086.473-.055.187-.1.351-.133.523l-.031.186-.02.119a2.866,2.866,0,0,1-.148.619c-.132.311-.269.616-.408.923l-.064.143c-.059.165-.114.329-.165.49l-.082.257-.043.121q-.1.566-.16,1.112c-.035.363-.078.73-.121,1.1l-.03.256c-.053.457-.106.911-.142,1.366-.028.363-.047.731-.063,1.094l-.013.231c-.018.328-.036.654-.065.98l-.047.535-.022.249c-.036.417-.072.834-.1,1.251q.028.892.07,1.782l.012.267c.032.712.063,1.424.07,2.135l.012.891c.016,1.2.027,2.394.02,3.594-.005.983.087,1.972.167,2.844l.027.3c.02.221.04.443.056.666.1,1.265.167,2.432.195,3.57l.043,1.164c.045,1.279.088,2.513.031,3.729-.019.489-.055.973-.094,1.457l-.019.29c-.033.486-.067.971-.086,1.457,0,1.119.006,2.216.074,3.329.043.671.047,1.339.047,2.011s.008,1.344.047,2.012a40.98,40.98,0,0,1-.012,5.077c-.039.609-.1,1.219-.156,1.828-.078.785-.153,1.57-.188,2.356.008.645.02,1.29.031,1.935l.024,1.315a21.825,21.825,0,0,0-.09,2.192,29.162,29.162,0,0,1-.238,4.03c-.072.515-.142,1.071-.172,1.649-.031.629-.074,1.257-.148,1.882a21.748,21.748,0,0,0-.235,2.563c-.008.7-.073,1.424-.125,2.008l-.062.754-.059.738a36.331,36.331,0,0,0-.191,3.763c.019.983.011,1.735-.028,2.436-.019.419-.015.841-.007,1.259l0,.163c0,.274.007.551,0,.825l-.008.4,0,.148c-.018.576-.036,1.172-.1,1.762-.066.64-.1,1.273-.125,1.922l-.008.133c-.019.5-.027,1.008-.035,1.512l-.008.5a11.663,11.663,0,0,1-.09,1.182c-.042.352-.07.61-.093.864a21.143,21.143,0,0,0,.121,4.053l.026.139v-.01l.025.3c.035.308.09.7.144,1.086l.071.519.035.177.023.28.039.32c.059.559.094,1.125.125,1.683l.059.914a13.207,13.207,0,0,1,.047,1.4c0,.269-.028.535-.055.8l-.016.18c-.012.12-.023.24-.031.359a6.075,6.075,0,0,0,.039.873c.012.144.024.289.031.429.024.465.032.926.04,1.391,0,.191.007.379.015.566a10.427,10.427,0,0,1-.023,1.487c-.09.644-.145,1.193-.172,1.727a10.569,10.569,0,0,0,.135,1.9l.025.216a25.285,25.285,0,0,0,.766,3.525c.107.383.224.766.341,1.146l.061.2a24.035,24.035,0,0,1,.66,2.378,21.729,21.729,0,0,0,.665,2.572c.24.716.545,1.43.863,2.161l.223.507c.137.351.269.707.4,1.062l.054.145.129.351a28,28,0,0,0,1.621,4.091,4.286,4.286,0,0,1,1.039,1.725c.13.2.267.394.4.581l.23.282c.262.32.524.645.782.969l-.246-.376.488.672.109.141a3.99,3.99,0,0,0,.253.472,8.939,8.939,0,0,0,.767.99c.278.316.586.609.895.9l.184.175a15.8,15.8,0,0,0,2.138,1.7c.242.168.481.32.723.465.355.218.726.41,1.1.6.4.2.8.411,1.176.645a16.1,16.1,0,0,0,2.232,1.164c.1.051.194.1.292.164a4.353,4.353,0,0,0,.431.223,6.259,6.259,0,0,0,1.2.427,5.989,5.989,0,0,1,.246.626c.515.159,1.031.276,1.523.385.446.1.895.184,1.348.254.462.036.915.075,1.376.125l-.118-.05a5.484,5.484,0,0,0,.716.1c.394.039.855.086,1.316.145l-.218-.064a2.283,2.283,0,0,0,.3.029l.223.011c.641.033,1.289.09,2.038.18l.044,0,.016,0,.046-.005c.14.032.2.04.265.052l-.112-.059a4,4,0,0,0,.7.162l.125.022.633.109c1.106.1,2.237.11,3.1.11l1.242,0h.114c.5-.008.98-.012,1.461-.012l.605,0,1.164.012c2.391.024,4.726.052,7.008.129.494.015.985.061,1.479.107.528.049,1.044.1,1.56.115s1,.02,1.5.024c.551,0,1.1.011,1.644.031.4.012.8.043,1.2.074.532.044,1.047.086,1.567.086,1.012-.008,1.963-.087,2.883-.164l.3-.023c.714-.064,1.45-.094,2.25-.094.277,0,.55,0,.828.011.172,0,.343,0,.519,0,.3,0,.594,0,.891-.007l.176,0c.269,0,.543-.008.812-.008s.519,0,.781.015c.508.02,1.012.036,1.52.051,1.463.048,2.926.1,4.37.285l-.4-.082a26.806,26.806,0,0,0,3.2.157c.964,0,1.928-.028,2.892-.055,1.077-.031,2.077-.059,3.077-.059.9,0,1.64.021,2.327.067l.891.047c.6.031,1.188.063,1.773.117.565.05,1.133.07,1.7.09.345.011.689.027,1.029.047.846.046,1.7.137,2.566.234l.183.02c.847.091,1.723.186,2.587.226.442.02.883.027,1.325.027.548,0,1.095-.013,1.643-.027l.333-.008.352-.012c.586-.011,1.156-.023,1.73-.023a49.648,49.648,0,0,1,5.179.231l-.129-.055a62.45,62.45,0,0,0,8.063.445c.989,0,1.977-.015,2.966-.035.437-.012.878-.012,1.316-.012l1.07,0h.953c.582,0,1.164,0,1.747-.019.445-.016.887-.043,1.328-.075.387-.027.777-.054,1.164-.066.406-.02.812-.027,1.218-.035.448-.008.892-.016,1.337-.035,1.3-.063,2.605-.086,3.9-.106l1.3-.023c1.623-.031,3.269-.143,4.891-.332,1.321-.216,2.635-.468,3.945-.72l.279-.054.527-.1a21.746,21.746,0,0,0,3.623-.927c.992-.406,1.98-.808,2.976-1.2.588-.285,1.171-.61,2.014-1.122a24.9,24.9,0,0,0,2.446-1.618,19.141,19.141,0,0,1,2.085-1.359l.125-.073c.556-.325,1.177-.686,1.757-1.095l-.511.371c.657-.46,1.289-.945,1.922-1.429a14.13,14.13,0,0,0,1.58-1.529l.142-.212a14.281,14.281,0,0,1,1.737-2.284,14.359,14.359,0,0,0,1.157-1.368c.236-.366.437-.748.637-1.128l.067-.127.1-.188c.118-.223.236-.444.361-.663.179-.309.332-.626.484-.942.114-.239.227-.473.348-.7l.133-.242c.1-.184.2-.364.289-.552a10.729,10.729,0,0,1,.656-1.562l.183-.316c.13-.223.259-.446.376-.676l.336-.656a5.275,5.275,0,0,1,.344-1.243l.058-.141.087-.377c.039-.191.078-.382.125-.57.093-.35.208-.691.323-1.031l.044-.128.043-.129.152-.535.148-.532-.078.141a1.023,1.023,0,0,0,.083-.3l-.008-.576c-.008-.316-.012-.637-.008-.953l.012-.851c.012-.477.023-.954.019-1.426-.016-1.746,0-3.056.043-4.246.02-.914.008-1.832-.007-2.747l0-.227c-.011-.912-.022-1.825.006-2.737.016-.418.039-.836.063-1.254l.027-.449-.043.237c.144-2.258.361-4.535.535-6.365l.059-.7.013-.143c.074-.826.15-1.678.268-2.512.031-.238.071-.474.111-.71l.034-.2c.043-.242.086-.489.125-.735.039-.278.062-.559.078-.841l.016-1.023c.011-.684.023-1.364.054-2.051l.016-.426.019-.5-.059.5c.032-.542.024-1.085.016-1.624v-.1c-.015-.933-.031-1.9.041-2.849l.062-.868.022-.3c.063-.855.127-1.712.166-2.569.037-1.388.032-2.812-.016-4.231a25.7,25.7,0,0,1,.066-3.347l.067-.613c.057-.532.1-.968.14-1.41,0-.506-.017-1.013-.034-1.518l-.009-.245-.011-.442c-.028-1.019-.019-2.031.027-3.093q.029-1.014.051-2.027c.019-1.031.043-2.051.086-3.07l-.059.517c.03-.626.023-1.255.016-1.881-.017-1.276-.025-2.426.047-3.585l.1-1.653c.07-1,.137-2,.191-3,0-1.106-.031-2.149-.1-3.188a50.949,50.949,0,0,1,0-5.812c0-.668-.02-1.332-.047-2l-.01-.289c-.013-.388-.026-.776-.029-1.163-.008-.469-.008-.942-.008-1.41,0-.606,0-1.211-.008-1.817-.035-2.169.082-4.363.195-6.485l.051-.936c0-.415-.031-.825-.06-1.236l-.01-.152c-.021-.3-.039-.561-.051-.828-.027-.558-.019-1.117-.011-1.671l0-.277c0-.187.007-.374.007-.559a21.1,21.1,0,0,0-.387-3.5l-.042-.257c-.057-.344-.114-.688-.161-1.032-.2-1.363-.387-2.9-.57-4.687l-.043-.43-.012-.121c-.117-1.155-.238-2.349-.461-3.505-.16-.625-.34-1.239-.519-1.852l-.067-.233c-.193-.672-.386-1.342-.547-2.024l.059.433a19.247,19.247,0,0,0-.891-2.966l-.035-.1c-.393-1.052-.839-2.243-1.364-3.368-.394-.685-.859-1.334-1.309-1.962l-.071-.1c-.27-.372-.539-.742-.8-1.124l-.145-.219-.075-.111c-.569-.838-1.157-1.706-1.812-2.5a28.006,28.006,0,0,0-2.428-2.081c-1.11-.878-2.1-1.547-3.012-2.148-.179-.109-.361-.212-.541-.315l-.119-.068c-.274-.152-.543-.3-.809-.465-.569-.345-1.1-.716-1.647-1.091-.357-.214-.619-.35-.885-.487l-.222-.116-.446-.236-.566-.32c-.492-.282-.976-.554-1.477-.785l-.613-.289c-.626-.3-1.334-.632-2.04-.9-.221-.044-.44-.075-.659-.1a8.472,8.472,0,0,1-.94-.164c-.537-.135-1.073-.315-1.526-.472a4,4,0,0,1-1.2-.184c-.621-.09-1.434-.2-2.233-.239l-.4-.016-.39-.015-.395-.016c-.661-.187-1.333-.374-2.009-.535a15.277,15.277,0,0,0-2.651-.41l-.238-.012-.289-.019c-.527-.028-1.046-.067-1.57-.133l-.257-.035-.281-.047a16.225,16.225,0,0,0-2.736-.305l-.586,0-.293,0c-.2,0-.391-.007-.586-.007ZM74.715,69.666h0c.324-.461.667-.913,1.011-1.366l.586-.778c.168-.247.344-.489.52-.723a25.97,25.97,0,0,0,1.88-3.322c.474-.953.965-1.938,1.367-2.942.09-.246.18-.493.266-.739l.043-.117c.113-.324.226-.644.355-.96s.266-.64.406-.956l.231-.521a7.445,7.445,0,0,0,.2-.818l.031-.145c.043-.207.082-.406.109-.61a4.738,4.738,0,0,1,.1-.749l.062-.277.079-.348.074-.328c.062-.288.1-.477.137-.716.023-.176.043-.348.058-.524a7,7,0,0,0,0-.766l0-.106a1.5,1.5,0,0,1,1.141-1.5,1.39,1.39,0,0,1,.913-.48c.585-.052,1.234-.078,1.928-.078.754,0,1.591.031,2.715.1.3.019.593.043.886.066l.172.012c.481.036.94.07,1.4.082l.293.012c.588.015,1.173.031,1.762.031l.231-.008c.156,0,.312,0,.464,0,.172,0,.34,0,.508.012s.312.023.468.039l.164.012c.164.011.329.023.493.031.773.031,1.539.066,2.308.117.316.02.637.047.953.074.552.047,1.028.087,1.508.1l.115-.008c.211-.019.4-.031.655-.031a1.469,1.469,0,0,1,1.039.613,1.547,1.547,0,0,1,.819,1.163l.1.7c.092.646.206,1.45.367,2.2.141.55.3,1.189.4,1.8l.07.507c.043.3.078.528.113.743a36.568,36.568,0,0,0,1.474,4.154c.2.469.422.927.644,1.384l.223.457.2.425.055.118c.16.34.32.676.492,1.008.465.828.962,1.641,1.458,2.454l.121.2a15.852,15.852,0,0,0,2.13,2.615c.509.52,1.127,1.094,1.891,1.754a15.044,15.044,0,0,0,1.615,1.255l.363.207c.2.113.395.227.586.348l-.082-.1a4.732,4.732,0,0,0,1.013.548c.059.021.116.047.173.073l.166.072c.142.061.241.1.337.14a1.312,1.312,0,0,1,.3.093,1.869,1.869,0,0,1,.632.5,1.5,1.5,0,0,1,.308,1.167,1.077,1.077,0,0,1-.112.426,1.446,1.446,0,0,1-.071.813c-.152.363-.3.73-.445,1.1l-.231.57c-.233.578-.479,1.118-.753,1.651-.258.516-.508,1.04-.754,1.563l-.078.168-.391.816c-.473.981-.953,1.946-1.453,2.91-.555,1.074-1.121,2.145-1.687,3.211-.647,1.258-1.22,2.3-1.75,3.187-.554.935-1.076,1.914-1.582,2.86l-.172.324-.176.36-.075.144c-.093.192-.191.383-.289.574a16.524,16.524,0,0,1-.835,1.457c-.08.129-.158.264-.235.4l-.062.107-.051.094-.1.168-.077.131-.2.341-.078.125-.075.122c-.157.255-.321.521-.5.851l-.149.286-.094.179c-.253.483-.506.964-.777,1.433-.121.211-.25.418-.379.625l-.144.243c-.195.308-.387.617-.567.929-.156.273-.308.55-.46.827-.208.38-.418.759-.641,1.126-.105.184-.215.36-.328.539l-.063.106c-.187.3-.375.6-.551.918-.129.25-.257.5-.39.746l-.2.407-.195.4c-.129.27-.258.539-.394.805l-.208.43a12.959,12.959,0,0,1-.706,1.335c-.1.152-.2.3-.3.452l-.078.118c-.18.266-.356.528-.508.809-.176.328-.356.652-.539.98a1.851,1.851,0,0,1-1.477,1.2,2.943,2.943,0,0,1-.311.015h-.137l-.138.012c-.238.023-.444.039-.659.039h-.125a1.346,1.346,0,0,1-.938-.458,1.53,1.53,0,0,1-.407-1.113,1.377,1.377,0,0,1-.266-.643,11.035,11.035,0,0,1-.047-1.631c0-.168.016-.328.031-.5s.032-.332.036-.493c-.016-.274-.028-.551-.036-.879l-.019-.254c-.024-.258-.047-.52-.051-.785,0-.148.008-.3.02-.444l.011-.286c.012-.383.039-.769.067-1.152l.043-.6c.07-1.069.14-2.147.125-3.251l0-.114,0-.6c0-.246,0-.5-.008-.743l-.012-.215a5.939,5.939,0,0,1,0-1.177,8.323,8.323,0,0,0,.047-1.053c-.03-.629-.059-1.223-.031-1.8.024-.527.031-1.063.024-1.594-.028-.664-.051-1.324-.055-1.988l0-.7c0-.294,0-.587-.008-.88,0-.086,0-.172-.008-.274l0-.163c-.039-.618-.066-1.231-.089-1.844l-.008-.114a3.292,3.292,0,0,1-.008-.483,2.707,2.707,0,0,1,.089-.6,1.465,1.465,0,0,1,.776-.849,1.381,1.381,0,0,1,.594-.132,1.964,1.964,0,0,1,.536.085,4.081,4.081,0,0,0,.5-.388A8.061,8.061,0,0,0,97.36,87.2a5.512,5.512,0,0,0,.278-.859,9.243,9.243,0,0,0,.227-1.819,7.945,7.945,0,0,0-.27-1.549,6.472,6.472,0,0,0-.477-1.116,5.539,5.539,0,0,0-.561-.674,3.856,3.856,0,0,0-.345-.232,8.509,8.509,0,0,0-1.241-.481,5.848,5.848,0,0,0-1.1-.149,6.9,6.9,0,0,0-1.335.254,10.136,10.136,0,0,0-1.666.739A8.315,8.315,0,0,0,89.617,82.4a6.216,6.216,0,0,0-.591.842,2.878,2.878,0,0,0-.138.362,4.576,4.576,0,0,0-.062.694,6.849,6.849,0,0,0,.242,1.26A6.209,6.209,0,0,0,89.5,86.6a8.041,8.041,0,0,0,.931,1.154,5.1,5.1,0,0,0,.67.451,4.081,4.081,0,0,0,.71.251,1.56,1.56,0,0,1,.444.093,1.743,1.743,0,0,1,.683.478,1.725,1.725,0,0,1,.361.779,3.071,3.071,0,0,1,.02,1.065,16.118,16.118,0,0,0-.071,1.81l0,.113.016.465,0,.469.055-.386c-.024.456-.024.917-.024,1.374l0,.461c0,.277-.023.554-.047.831l-.008.145-.009.135c-.009.139-.019.278-.022.42-.008.324-.015.64-.027.965-.029.712-.05,1.312-.031,2l.015.239c.024.351.047.7.039,1.054-.008.148-.015.292-.027.441-.012.191-.023.387-.023.582l.031.329c.023.2.047.4.054.6l.012.378.008.375.012.5c.031.621.062,1.246.058,1.871l-.008.285v.285c0,.282-.007.563-.007.844.027.649.039,1.3.047,1.95l.007.246.012.242.007.188c.01.254.02.508.02.765,0,.195-.007.386-.019.581l-.008.153c-.016.211-.027.426-.027.637.023.4.047.8.058,1.2,0,.075.012.153.02.228l.016.121c.011.167.011.335.007.5v.266a.881.881,0,0,1,.036.17,1.851,1.851,0,0,1-.269,1.177,1.1,1.1,0,0,1-.321.34c-.034.05-.065.092-.1.135a1.43,1.43,0,0,1-.984.535h-.336c-.223,0-.441,0-.664-.011l-.122.011a2.509,2.509,0,0,1-.577.078,1.956,1.956,0,0,1-.657-.116,1.521,1.521,0,0,1-.923-1.216l-.008.195a5.134,5.134,0,0,0-.579-1.369l-.192-.352-.09-.16-.086-.16c-.472-.851-.929-1.7-1.39-2.562l-.141-.262c-.234-.426-.461-.855-.687-1.285l-.418-.723c-.3-.512-.59-1.023-.871-1.543-.2-.351-.375-.714-.551-1.078l-.09-.183c-.1-.219-.211-.434-.324-.645l-.36-.625-.1-.172-.056-.1c-.244-.432-.489-.869-.721-1.315s-.45-.875-.672-1.32l-.446-.883-.086-.156c-.34-.617-.679-1.234-.988-1.867-.348-.692-.695-1.383-1.059-2.063l-.191-.352-.23-.418c-.661-1.195-1.313-2.39-1.957-3.6-.243-.438-.5-.864-.77-1.286l-.258-.387-.086-.125c-.176-.258-.352-.515-.512-.781l-.3-.476c-.218-.348-.41-.652-.581-.965l-.126-.219c-.234-.406-.464-.812-.687-1.222-.292-.541-.65-1.071-.938-1.5l-.07-.105-.09-.137c-.215-.32-.426-.637-.625-.965-.5-.8-.945-1.634-1.38-2.444l-.053-.1-.051-.094-.07-.133-.051-.093-.047-.09c-.152-.263-.317-.513-.485-.759-.19-.285-.309-.463-.417-.648a10.645,10.645,0,0,1-.551-1.077l-.129-.277a2.112,2.112,0,0,1-.374-.7,1.551,1.551,0,0,1-.18-1.182A1.386,1.386,0,0,1,68.071,76l.262-.148a5.81,5.81,0,0,0,.7-.423l.446-.348c.445-.383.871-.782,1.3-1.18.27-.254.543-.508.816-.758.133-.121.262-.234.4-.351l.106-.094a11.1,11.1,0,0,0,.848-.8,18.088,18.088,0,0,0,1.306-1.579l.156-.211.266-.376.082-.1-.039.043Zm60.1-7.4c.117-.211.227-.427.328-.646.083-.168.153-.34.223-.516s.141-.343.219-.511a12.271,12.271,0,0,1,.922-1.544c.155-.228.272-.4.386-.584l.336-.582.156-.269c.185-.32.37-.64.563-.957l.179-.3c.164-.266.3-.52.426-.778l.1-.184.187-.351.352-.633c.121-.211.238-.422.352-.637l.586-1.082c.039-.071.075-.143.111-.215l.064-.129a4.617,4.617,0,0,1,.468-.818,1.926,1.926,0,0,1,1.539-.735,1.967,1.967,0,0,1,1.64,3.082l-.082.169c-.087.181-.135.28-.188.379-.091.159-.179.321-.267.484l-.131.242-.211.4-.445.816c-.321.6-.645,1.2-.989,1.781l-.269.438-.27.437c-.1.159-.186.322-.276.484l-.1.184c-.125.227-.25.449-.378.672-.2.328-.41.648-.621.968l-.289.438c-.13.234-.235.477-.34.718l-.048.111-.077.18c-.043.1-.087.2-.134.3-.222.461-.455.892-.757,1.4l-.059.1c-.483.822-.914,1.625-1.316,2.454-.342.692-.732,1.373-1.109,2.033l-.114.2c-.223.387-.433.778-.644,1.173l-.164.3c-.144.268-.288.535-.438.8-.329.57-.694,1.117-1.07,1.675l-.1.148c-.163.243-.324.484-.48.731-.1.173-.2.348-.289.52-.114.211-.227.422-.348.633q-.281.474-.574.941l-.219.36c-.285.484-.539.988-.793,1.492l-.348.68c-.179.343-.362.682-.545,1.021l-.192.362c-.192.36-.383.719-.568,1.086l-.29.571-.143.284c-.262.525-.524,1.048-.805,1.563-.4.722-.828,1.421-1.261,2.124l-.063.106c-.867,1.473-1.87,3.191-2.781,4.934-.137.257-.268.515-.4.774l-.169.331-.082.165c-.261.519-.522,1.037-.808,1.546-.483.854-1.029,1.76-1.719,2.851l-.2.332-.2.336c-.6.989-1.172,1.989-1.742,2.993l-.4.7-.246.422-.078.137c-.55.96-1.118,1.954-1.629,2.957a70.344,70.344,0,0,1-4.327,7.057c-.266.458-.517.923-.767,1.392l-.261.488-.207.375c-.325.578-.645,1.16-.954,1.754-.443.848-.892,1.649-1.335,2.382-.3.5-.628.994-.948,1.482-.265.405-.479.731-.689,1.061-.716,1.213-1.339,2.473-1.868,3.56-.23.468-.464.937-.7,1.4-.34.676-.679,1.352-1,2.035-.551,1.154-1.162,2.335-1.816,3.511-.32.571-.629,1.153-.926,1.739-.308.6-.667,1.182-.984,1.691l-.07.113-.188.317-.3.5a17.994,17.994,0,0,0-.82,1.735l-.083.191c-.153.351-.306.7-.473,1.044-.332.668-.648,1.339-.964,2.011-.251.532-.5,1.063-.758,1.595a2.082,2.082,0,0,1-.875.925,1.972,1.972,0,0,1-1.515.7,1.866,1.866,0,0,1-.322-.027,2.059,2.059,0,0,1-1.288-.8c-1.022-1.15-1.958-2.4-2.864-3.6l-.264-.353-.074-.1c-.462-.618-.923-1.235-1.411-1.825l-.37-.437-.317-.375c-.309-.356-.613-.711-.91-1.078-1.237-1.511-2.23-2.794-3.125-4.039-.845-1.179-1.8-2.441-3.106-4.094l-.488-.617-.233-.3-1.13-1.445c-.387-.5-.754-1-1.121-1.516l-.434-.6-.183-.252c-.536-.719-1.082-1.43-1.633-2.141-.531-.684-1.063-1.367-1.574-2.058l-.161-.192c-.25-.305-.5-.61-.746-.922-.341-.428-.649-.9-.948-1.347l-.067-.1-.223-.336a13.544,13.544,0,0,0-1.262-1.548c-.149-.16-.293-.32-.434-.484l-.1-.109c-.55-.624-1.043-1.19-1.516-1.8-.259-.328-.5-.672-.744-1.015l-.06-.086c-.2-.278-.391-.555-.594-.828l-.117-.156a25.072,25.072,0,0,1-1.453-2.078c-.386-.648-.8-1.269-1.226-1.895l-.262-.386c-.113-.172-.227-.348-.336-.524a12.4,12.4,0,0,0-.817-1.188c-.383-.472-.742-.968-1.1-1.464-.434-.6-.926-1.287-1.47-1.915a10.273,10.273,0,0,1-.858-1.109c-.093-.143-.176-.287-.261-.434-.137-.237-.243-.409-.352-.577a13.767,13.767,0,0,0-.829-1.126L56,96.013c-.223-.277-.442-.55-.649-.835-.242-.335-.469-.678-.7-1.023l-.1-.149c-.227-.348-.457-.695-.7-1.031l-.347-.489c-.368-.512-.735-1.023-1.082-1.55-.227-.348-.437-.707-.644-1.066l-.072-.123c-.187-.318-.373-.636-.577-.944-.567-.862-1.068-1.58-1.532-2.2l-.336-.437c-.454-.594-.91-1.19-1.316-1.812-.135-.211-.274-.418-.413-.626l-.208-.312c-.269-.4-.539-.8-.8-1.2-.214-.335-.42-.674-.627-1.013L45.777,81c-.226-.368-.452-.737-.7-1.094-.417-.615-.81-1.234-1.2-1.856l-.056-.09-.274-.425-.811-1.276-.5-.783c-.528-.836-1.059-1.672-1.594-2.5q-.446-.7-.879-1.406l-.543-.867c-.231-.368-.485-.719-.739-1.071-.2-.27-.39-.539-.574-.812a29.349,29.349,0,0,1-2.327-4.147c-.118-.263-.223-.532-.33-.8l-.041-.1c-.109-.285-.219-.571-.344-.848a12.162,12.162,0,0,1-.472-1.175c-.121-.266-.231-.536-.328-.809-.555-1.534-1.183-3.273-.66-5l.062-.2a4.636,4.636,0,0,1,.257-.745,5.978,5.978,0,0,1,.379-.647l.086-.141a4.578,4.578,0,0,1,1-1.033,10.884,10.884,0,0,1,1.546-1,2.808,2.808,0,0,1,.72-.358,7.005,7.005,0,0,1,.847-.2,4.392,4.392,0,0,1,.608-.036c.246,0,.492.012.73.028l.129.008a7.547,7.547,0,0,1,2.321.659,11.309,11.309,0,0,1,1.231.63l.529.3a7.238,7.238,0,0,1,1.241.788,9.158,9.158,0,0,1,1.014,1.024l.137.155a13.431,13.431,0,0,1,1.44,2.046l.161.257c.312.508.644,1,.98,1.493l.567.84c.844,1.3,1.649,2.647,2.428,3.953l.509.851c.7,1.187,1.318,2.44,1.91,3.651.273.559.547,1.118.828,1.668,1.345,2.449,2.481,4.422,3.575,6.208,1.2,1.97,2.461,4.07,3.6,6.176l-.08-.236c.334.673.717,1.322,1.1,1.97l.645,1.1c.375.648.715,1.308,1.054,1.972l.434.836c.5.869,1.012,1.731,1.526,2.59l.088.145c.852,1.411,1.817,3.011,2.636,4.6l.108.2.31.581.293.536.481.878c.689,1.251,1.445,2.556,2.379,4.11.55.926,1.085,1.832,1.581,2.75.172.324.34.644.508.968s.336.649.508.969c.7,1.262,1.516,2.473,2.305,3.645l.074.11.329.481c.816,1.224,1.629,2.585,2.558,4.284l-.029-.1c.529,1,1.158,1.974,1.713,2.834l.539.84c.7,1.117,1.327,2.278,2.011,3.569.392.7.813,1.379,1.325,2.142.448.686.87,1.4,1.288,2.171.21.361.437.711.664,1.061l.13.2.131.2c.16.246.321.492.474.741.416.682.837,1.432,1.289,2.292.319.555.69,1.087,1.048,1.6l.281.4a20.1,20.1,0,0,1,1.155,2l.392.693.144.253.337-.551.223-.517a14.163,14.163,0,0,1,.925-1.713l.149-.246.086-.149.129-.207.055-.094-.1.086.2-.245.269-.434c.147-.261.283-.528.419-.8l.082-.159c.133-.262.265-.52.4-.777l.246-.449c.258-.477.516-.954.762-1.434l.551-1.067.453-.879c.156-.3.3-.6.445-.906l.092-.189c.117-.24.233-.479.353-.717.266-.519.519-1.042.773-1.564.409-.854.781-1.619,1.192-2.362l.266-.48c.353-.649.732-1.337,1.144-1.988l.306-.467.307-.47.539-.821c.454-.762.876-1.535,1.294-2.3l.109-.2c.184-.344.375-.684.566-1.023.262-.469.52-.938.762-1.415a37.646,37.646,0,0,1,2.2-3.6l.135-.2c.319-.479.639-.96.943-1.449.477-.8.95-1.606,1.4-2.418.226-.407.441-.817.656-1.227.27-.516.539-1.031.828-1.539l.637-1.1c.928-1.621,1.884-3.291,2.875-4.91.184-.3.373-.6.562-.9l.106-.169.371-.594c.624-1.07,1.2-2.188,1.759-3.27l.175-.339c.223-.43.445-.858.672-1.286.895-1.7,1.9-3.38,2.683-4.652l.223-.375c.355-.61.711-1.219,1.031-1.852l.195-.383c.364-.727.731-1.449,1.113-2.168.446-.828.887-1.656,1.3-2.5a26,26,0,0,1,1.331-2.316l.074-.125c.105-.179.208-.363.31-.546l.081-.146c.25-.449.5-.9.781-1.339.18-.285.371-.566.566-.843.168-.247.336-.493.5-.747.164-.285.316-.574.468-.863s.309-.583.469-.868l.481-.836.48-.835c.223-.391.422-.789.621-1.187.169-.338.337-.674.516-1,.391-.719.793-1.422,1.215-2.117l-.057.056a.793.793,0,0,0,.084-.118l.062-.086-.02-.017.009,0Z"/>
      </g>
    </g>
  </g>
</svg>
