<?xml version="1.0" encoding="utf-8"?>
<!-- Generator: Adobe Illustrator 24.3.0, SVG Export Plug-In . SVG Version: 6.00 Build 0)  -->
<svg version="1.1" id="Layer_1" xmlns="http://www.w3.org/2000/svg" xmlns:xlink="http://www.w3.org/1999/xlink" x="0px" y="0px"
	 viewBox="0 0 557 908.8" style="enable-background:new 0 0 557 908.8;" xml:space="preserve">
<style type="text/css">
	.st0{fill:#040404;}
	.st1{fill:#050505;}
	.st2{fill:#FFFFFF;}
	.st3{fill:#040404;stroke:#040404;stroke-width:0.5;stroke-miterlimit:10;}
	.st4{fill:#FFFFFF;stroke:#040404;stroke-width:0.5;stroke-miterlimit:10;}
	.st5{fill:#3B447C;stroke:#040404;stroke-width:0.5;stroke-miterlimit:10;}
	.st6{fill:#212121;stroke:#040404;stroke-width:0.5;stroke-miterlimit:10;}
	.st7{fill:#050505;stroke:#040404;stroke-width:0.5;stroke-miterlimit:10;}
</style>
<g>
	<g>
		<path class="st0" d="M3.2,369.7c19.8-59.2,108.7-48.2,150.4-86.3c39.7-36.7-6.6-88.2-5.7-131.3c9.1-66.8,84.6-108.1,147.3-109
			c80.8-7.2,208.1,47.1,164.8,145.7c-39.5,86.4-2.1,64,35.3,133.8c0,0,0,0.1,0,0.1c0,0,0,0,0,0c0,0.1,0.1,0.2,0.1,0.3l-0.1-0.1
			c41.3,130.8-55.5,129.9-152,141.7c-25.2,0.6-66.4,9.5-69.1,39.7c4.2,13.7,43.2-0.7,49.2,20.1c10.1,35.5-36.7,29.4-53.8,45.5l0,0
			c-8.2,11.7-5.7,20.9-5.4,35c-9.4,28.6-4.5,62.8,21.9,70.7c-0.4,1.5-15.5-2.9-33.2-2.6c-20.2,0.3-35.5,6.6-36,5.1
			c27.1-10.1,41.8-45.1,31.9-68.2l0,0c-15.9-25.4-40.7-16.6-11.5-57.8c-36.8,10.8-113,41.1-123.4-16.1c-4.4-21,16.9-51.1-9.1-63.3
			c-14.9,4.6-31.8,7.7-47.1,3.7c0.3-0.1,0.7-0.2,1-0.3C13.1,468.4-8.6,411.7,3.2,369.7z"/>
		<path class="st0" d="M151.7,728.6c-0.1-5.3,0.2-11.2,1.3-18c1.1-6.4,1.9-11.3,5.1-16.7c1.2-2,3.5-5.8,7.7-9
			c5-3.8,9.6-4.5,20.6-6.4c18.6-3.3,14.5-3,20.6-3.9c6.9-0.9,30.4-3.8,88.7,0c9.4,0.6,20.8,1.5,33.4,7.7c5.2,2.6,11.8,5.9,16.7,12.9
			c4.7,6.6,5.7,13.3,6.4,28.3c1,19.4,1.5,31.3,0,50.2c-0.2,2.5-1.9,13.7-5.1,36c-1.3,8.9-2.6,16.8-7.7,25.7
			c-1.5,2.5-3.7,6.4-7.7,10.3c-2.3,2.2-9.6,8.7-34.7,12.9c-8.3,1.4-15.5,1.7-29.6,2.6c-17.5,1-26.5,1.5-38.6,1.3
			c-15.4-0.3-23.7-0.6-34.7-3.9c-8.9-2.7-17.2-5.2-23.1-12.9c-3.8-4.8-5.1-9.6-7.7-19.3c-1.8-6.8-2.5-11.9-3.9-21.9
			c-0.8-5.8-1-8.3-2.6-24.4c-1.6-16-2.4-24.1-2.6-25.7C152.6,739.7,151.8,736.9,151.7,728.6z"/>
		<path class="st0" d="M526,197.4c2,0.3,3.9,0.6,5.8,1.3c1.5,0.5,3,1.2,4.4,2c0,0,0,0,0.1,0c1.3,0.1,2.5,0.4,3.5,1.1
			c1.7,0.8,3.3,1.6,5,2.4c2,1,3.8,2.5,5.2,4.2c2.2,2.6,3.7,5.5,4.9,8.6c0.5,1.3,0.9,2.7,1.2,4.1c0.4,2.1,0.6,4.3,0.7,6.4
			c0.2,3,0.2,6.1-0.3,9.1c-0.3,1.7-0.7,3.1-1.4,4.7c-0.5,1.1-1,2.3-1.6,3.4c-0.9,1.7-2,3.3-3.2,4.8c-1.6,1.9-3.2,3.6-5.2,5.1
			c-1.7,1.2-3.3,2.4-5.2,3.2c-1.1,0.5-2.4,1-3.6,1.3c-1.3,0.4-2.7,0.6-4,0.7c-2.1,0.2-4.2,0.4-6.2,0.4c-2.6,0-5.1-0.4-7.6-1
			c-1.7-0.4-3.4-0.7-5-1.3c-1.9-0.7-3.7-1.4-5.5-2.2c-1.9-0.9-3.4-2-5-3.4c-2.4-2-4.2-4.7-6-7.2c-1.3-1.9-2.4-3.9-3-6.1
			c-0.4-1.6-0.8-3.3-1-5c-0.3-1.9-0.5-3.9-0.3-5.8c0.2-2.1,0.6-4.1,1-6.1c0.6-3,1.5-5.8,2.8-8.5c1.5-3.3,3.3-6.7,6.5-8.9
			c2.6-1.8,5.4-3.7,8.3-5c1.7-0.8,3.8-1.4,5.6-1.7c2-0.3,4.1-0.6,6.2-0.6C524,197.2,525,197.2,526,197.4L526,197.4L526,197.4z"/>
		<path class="st0" d="M469.1,234.5L469.1,234.5c-0.3,0-0.6,0-0.9,0c-0.2,0-0.5,0-0.7,0c-3,0.3-5.9,1.6-7.8,3.9
			c-0.9,1.1-1.7,2.4-2.1,3.7c-0.3,0.8-0.5,1.6-0.7,2.4c-0.1,0.7-0.2,1.4-0.1,2.1c0,0.8,0.2,1.5,0.5,2.2c0.9,2.7,2.6,5.1,5.1,6.8
			c0.9,0.6,1.8,1.2,2.9,1.5c1.1,0.3,2.1,0.6,3.2,0.6c0.9,0,1.9,0.1,2.8-0.1c1.1-0.2,2.1-0.5,3.1-0.9c1.1-0.5,2.1-1.3,3-2.1
			c0.6-0.6,1-1.2,1.4-1.8c0.4-0.8,0.8-1.6,1-2.4c0.1-0.3,0.1-0.6,0.1-0.9c0.1-0.4,0.3-0.8,0.3-1.2c0.1-0.5,0.1-1,0.2-1.6
			c0-1.4-0.1-2.7-0.6-4c-0.5-1.3-1.3-2.5-2.2-3.5c-1.1-1.1-2.2-2.1-3.6-2.9c-0.7-0.4-1.5-0.9-2.3-1.1
			C470.7,234.8,469.9,234.5,469.1,234.5L469.1,234.5z M473.7,248.3L473.7,248.3c0,0.1,0,0.1,0,0.2c-0.1,0.1-0.2,0.2-0.2,0.3
			C473.6,248.6,473.6,248.5,473.7,248.3L473.7,248.3z"/>
		<path class="st0" d="M72.4,513.4c0.7,0.1,1.4,0.3,2.1,0.5c0.6,0.2,1.1,0.5,1.6,0.8c0,0,0,0,0,0c0.5,0,0.9,0.2,1.3,0.4
			c0.6,0.3,1.2,0.6,1.8,1c0.7,0.4,1.4,1,1.9,1.7c0.8,1,1.3,2.2,1.8,3.5c0.2,0.5,0.3,1.1,0.4,1.6c0.2,0.9,0.2,1.7,0.3,2.6
			c0.1,1.2,0.1,2.5-0.1,3.7c-0.1,0.7-0.3,1.3-0.5,1.9c-0.2,0.5-0.4,0.9-0.6,1.4c-0.3,0.7-0.7,1.3-1.2,1.9c-0.6,0.8-1.2,1.5-1.9,2.1
			c-0.6,0.5-1.2,1-1.9,1.3c-0.4,0.2-0.9,0.4-1.3,0.5c-0.5,0.1-1,0.2-1.5,0.3c-0.7,0.1-1.5,0.2-2.2,0.2c-0.9,0-1.8-0.2-2.7-0.4
			c-0.6-0.1-1.2-0.3-1.8-0.5c-0.7-0.3-1.3-0.6-2-0.9c-0.7-0.4-1.2-0.8-1.8-1.4c-0.9-0.8-1.5-1.9-2.2-2.9c-0.5-0.8-0.8-1.6-1.1-2.5
			c-0.2-0.7-0.3-1.3-0.4-2c-0.1-0.8-0.2-1.6-0.1-2.3c0.1-0.8,0.2-1.7,0.4-2.5c0.2-1.2,0.6-2.3,1-3.5c0.5-1.3,1.2-2.7,2.3-3.6
			c0.9-0.7,1.9-1.5,3-2c0.6-0.3,1.4-0.6,2-0.7c0.7-0.1,1.5-0.3,2.2-0.3C71.7,513.3,72.1,513.3,72.4,513.4L72.4,513.4L72.4,513.4z"/>
		<path class="st0" d="M96.8,502.4c0.8,0,1.5,0.3,2.2,0.7c0.3,0.2,0.8,0.6,1,0.9c0.5,0.6,0.9,1.2,1.1,2c0.4,0.7,0.7,1.3,0.8,2.1
			c0.1,0.9,0,1.7-0.2,2.5c-0.1,0.5-0.4,1.1-0.7,1.5c-0.1,0.1-0.1,0.3-0.2,0.4c-0.5,0.9-1.3,1.6-2.2,2c-1,0.4-2.1,0.6-3.1,0.7
			c-0.5,0-1,0-1.6-0.1c-0.3-0.1-0.5-0.2-0.8-0.3c-0.5-0.3-1.1-0.6-1.5-1.1c-1.1-1.3-1.6-3.3-1.4-5.1c0.1-0.6,0.2-1.3,0.4-1.9
			c0.2-0.5,0.4-0.9,0.7-1.3c0.4-0.8,1-1.5,1.7-1.9c0.7-0.4,1.5-0.7,2.2-0.9c0.4-0.1,0.8-0.1,1.2-0.1
			C96.7,502.4,96.7,502.4,96.8,502.4L96.8,502.4L96.8,502.4z"/>
		<path class="st1" d="M79.4,500c0.6,0,1.3,0.5,1.7,1c0.4,0.6,0.6,1.3,0.6,2c-0.1,0.7-0.4,1.4-0.9,1.8c-0.2,0.1-0.4,0.2-0.6,0.4
			c-0.4,0.2-0.9,0.3-1.3,0.2c-0.6,0-1.3-0.5-1.7-1c-0.4-0.6-0.6-1.3-0.6-2c0.1-0.7,0.4-1.4,0.9-1.8c0.2-0.1,0.4-0.2,0.6-0.4
			c0.3-0.2,0.7-0.2,1.1-0.2C79.2,500,79.3,500,79.4,500L79.4,500L79.4,500z"/>
		<path class="st0" d="M257.2,607c-4.3,0.1-8.5,0.1-12.8,0.5c0.2,0,0.4,0,0.6-0.1c-7.9,0.7-17.4,0.7-24,5.2
			c-4,8.2,0.6,15.8,9.5,16.9c6.3,20.9-12.8,27.2-29.5,29.9c-15.9,4.1-32.5,6.8-47.4,13.9c-5.8,2.6-11.6,6.3-13.9,12.5
			c-1.1,3.3-7,16.6,0.5,14c1.8-27.3,31.6-29.4,52.8-35.4c-0.1,0-0.2,0-0.2,0.1c19.9-4.2,52.5-9.1,41.2-37.1
			c-6.6-1.6-11.4-3.8-9.5-11.7c0,0.1,0,0.2-0.1,0.3c0.2-0.8,0.6-1.5,0.8-2.2c6.8-2.3,13.9-3.1,21-3.5c-0.2,0-0.4,0-0.6,0.1
			c13-0.3,27-1.4,39.5,1.5c2.9,8,3.4,17.2-7.7,17c-3.7-0.1-3.5,3.7,0.1,3.1c0,0,0,0,0,0c14.2-0.4,16.5-10.1,11.4-21.7
			C279.7,605.4,267.5,607.9,257.2,607L257.2,607L257.2,607z M212.1,657c-0.1,0-0.2,0.1-0.4,0.1C211.8,657,212,657,212.1,657
			L212.1,657z M192.5,664.7c0.1,0,0.2-0.1,0.3-0.1C192.7,664.6,192.6,664.7,192.5,664.7L192.5,664.7L192.5,664.7z"/>
		<path class="st1" d="M274.5,630.8c-0.1,3.9,0,7.8,0.8,11.6c0,0,0-0.1,0-0.1c3.9,15,24,16.5,36.7,20c-0.1,0-0.2-0.1-0.4-0.1
			c0.2,0.1,0.4,0.1,0.5,0.2c0,0,0,0,0,0c17.5,6.2,46.7,4.4,50.8,27.5c1.1,2.8-1.2,8.6,2.8,9c3.5-0.1,1.9-3.7,2-5.8
			c0.3-13.7-12.3-22.9-24.4-26.5c0.2,0.1,0.4,0.1,0.5,0.2c-10-2.6-20.4-3.9-30.3-7.1c0,0,0,0,0,0c-11.5-3.4-30.5-4.1-34.1-18
			c0,0.1,0.1,0.3,0.1,0.4c-0.7-3.7-0.8-7.4-0.7-11.2C278.9,628.9,274.4,628.9,274.5,630.8L274.5,630.8L274.5,630.8z M279.9,643.4
			c0,0,0,0.1,0,0.1C279.9,643.4,279.9,643.4,279.9,643.4L279.9,643.4L279.9,643.4z M313.1,659.4c0.2,0,0.3,0.1,0.5,0.1
			C313.4,659.4,313.2,659.4,313.1,659.4L313.1,659.4L313.1,659.4z M360.1,681.7c0,0,0,0.1,0.1,0.1
			C360.1,681.8,360.1,681.8,360.1,681.7L360.1,681.7L360.1,681.7z"/>
		<path class="st0" d="M137.2,698.1c-6.5,44.1,3.6,87.6,11.7,130.7c0-0.1-0.1-0.3-0.1-0.4c0.1,0.4,0.2,0.9,0.3,1.3
			c0-0.1-0.1-0.3-0.1-0.4c0.7,3.3,1.1,6.7,2,9.9c0,0,0-0.1,0-0.1c2,14,11.4,26.3,25.2,30.4c3.6,0.6,9.5,4,12.4,1.2
			c0.3-0.8-0.4-1.6-1.6-1.8c-16.7-1.5-29.9-14.3-31.8-30.9c0,0.1,0,0.1,0,0.2c-5.8-35-15.7-69.9-15.6-105.5
			c0.3-9.4,0.2-18.8,1.5-28.1c-0.6-2.5,2-6.6-1.2-7.6C138.9,696.8,137.5,697.3,137.2,698.1L137.2,698.1L137.2,698.1z M141.4,699.5
			C141.4,699.5,141.4,699.5,141.4,699.5C141.4,699.5,141.4,699.5,141.4,699.5L141.4,699.5L141.4,699.5z M155.2,838
			C155.2,838,155.2,838,155.2,838C155.2,838,155.2,837.9,155.2,838C155.2,837.9,155.2,837.9,155.2,838L155.2,838L155.2,838z
			 M153.4,828.9c0,0.1,0.1,0.2,0.1,0.4C153.5,829.1,153.4,829,153.4,828.9C153.4,828.9,153.4,828.9,153.4,828.9L153.4,828.9
			L153.4,828.9z"/>
		<path class="st0" d="M363.7,695.1c-5,45.5-9.5,91.5-13.2,137.1c-1.6,6.6-2.3,13.5-4.7,20c-0.8,1.4-0.5,2.9,1.6,3
			c4.6,0.6,8.6-28.2,8.8-32.8c0.5-19.5,2.5-38.9,4.6-58.3c2.5-20.1,4.9-40.2,6-60.5c-0.5-3.1,4-9.1-0.8-10
			C364.9,693.6,363.7,694.2,363.7,695.1L363.7,695.1L363.7,695.1z"/>
		<path class="st1" d="M346.4,851.8c-1.1,0.2-1.3,1.2-2.1,1.9c0,0,0.1-0.1,0.1-0.1c-6.9,10-19.9,12.1-31.2,13.6
			c0.2,0,0.4-0.1,0.5-0.1c-22.8,2.8-45.8,3-68.7,3.2c0,0,0.1,0,0.1,0c-15.8-0.4-31.7-0.3-47.5-1.3c-4.1,0.1-10.7-1.9-13.7,0.9
			c-0.1,2.1,3.4,1.8,4.9,1.8c14,0.3,28.1,1.2,42.1,1.2c0,0-0.1,0-0.1,0c5,0,10,0.2,15,0.3c0,0,0,0,0,0c0.2,0,0.4,0,0.6,0
			c-0.1,0-0.2,0-0.3,0c27.5-2.1,84.7,4.6,102.2-18.5c-0.1,0.1-0.2,0.2-0.3,0.3C350.5,853.6,349,851.1,346.4,851.8L346.4,851.8
			L346.4,851.8z M244.7,870.3c0.1,0,0.3,0,0.4,0C245,870.3,244.9,870.3,244.7,870.3L244.7,870.3L244.7,870.3z M209.6,872.5
			c0.1,0,0.2,0,0.3,0C209.8,872.5,209.7,872.5,209.6,872.5L209.6,872.5L209.6,872.5z M230.5,873c0.1,0,0.1,0,0.2,0
			C230.7,873,230.6,873,230.5,873L230.5,873L230.5,873z"/>
		<path class="st0" d="M265.7,634.3c-4,2.8-1.8,10-0.6,14c11.2,21.1,41.5,14.1,60,25c12.2,4.7,23,14.2,26.2,27.2
			c0.6,1.7,1,5.3,3.7,3.7c1.3-2.1,0-5.1-0.5-7.3c0,0,0,0.1,0,0.1c-2.3-8.9-8.5-15.8-15.9-21.1c0.1,0.1,0.2,0.1,0.2,0.2
			c-17.1-17.7-68.4-7.8-70.2-35C267.9,638.8,269.5,634,265.7,634.3L265.7,634.3L265.7,634.3z M265.1,648.3
			C265.1,648.3,265.1,648.3,265.1,648.3C265.1,648.3,265.1,648.3,265.1,648.3L265.1,648.3L265.1,648.3z M291,660.5
			c0.1,0,0.2,0,0.2,0C291.2,660.5,291.1,660.5,291,660.5L291,660.5L291,660.5z M354.1,695.9C354.1,695.9,354.1,696,354.1,695.9
			C354.1,696,354.1,695.9,354.1,695.9L354.1,695.9L354.1,695.9z M354.2,696.3c0,0,0,0.1,0,0.1C354.3,696.4,354.2,696.4,354.2,696.3
			L354.2,696.3L354.2,696.3z"/>
		<path class="st0" d="M171.9,671.2c-10.6,4-25.3,9-27.6,21.6c-0.5,1.7,0,4,2.6,3.6c1.5-0.5,1.7-2,2-3.2c0.7-3.3,2.1-6.5,4.3-9.1
			C154.5,680,188.3,670.7,171.9,671.2L171.9,671.2L171.9,671.2z M169.4,672.7c0,0-0.1,0-0.1,0C169.3,672.8,169.3,672.7,169.4,672.7
			L169.4,672.7z M170.6,674.3c-0.1,0-0.1,0-0.2,0.1C170.5,674.4,170.6,674.4,170.6,674.3L170.6,674.3z M170.9,675.2
			c-0.1,0-0.1,0.1-0.2,0.1C170.7,675.2,170.8,675.2,170.9,675.2L170.9,675.2z"/>
		<path class="st0" d="M145.4,699c-1.7,2.1,4.1,1.8,1.9-0.1C146.8,698.6,145.9,698.6,145.4,699L145.4,699L145.4,699z"/>
		<path class="st0" d="M172,855.5c-11.8,6.1,44.2,13.8,48.8,13.3c-0.1,0-0.2,0-0.4,0c20.2,1.1,40.4-0.9,60.6-1.9
			c14.7-1.4,32.1-1,45-6.9c5.7-2.3,1.9-5.3-2.3-3.2c-27.6,8.9-57,9.2-85.8,9.4c0,0,0.1,0,0.1,0C215.4,866.8,192.8,864.9,172,855.5
			L172,855.5L172,855.5z M172.4,857C172.4,857,172.4,857,172.4,857C172.4,857,172.4,857,172.4,857C172.4,857,172.4,857,172.4,857
			C172.4,857,172.4,857,172.4,857L172.4,857L172.4,857z M171.8,857.3C171.8,857.3,171.8,857.3,171.8,857.3
			C171.8,857.3,171.8,857.3,171.8,857.3L171.8,857.3L171.8,857.3z M327,857.9C327,858,327,858,327,857.9C327,858,327,858,327,857.9
			L327,857.9L327,857.9z M193.3,863.3c0.1,0,0.2,0,0.2,0.1C193.5,863.3,193.4,863.3,193.3,863.3L193.3,863.3L193.3,863.3z
			 M217.9,866c0.1,0,0.1,0,0.2,0C218,866,217.9,866,217.9,866L217.9,866L217.9,866z M239.4,866.2c0.1,0,0.2,0,0.3,0
			C239.5,866.2,239.5,866.2,239.4,866.2L239.4,866.2L239.4,866.2z"/>
		<path class="st0" d="M165.2,849.2c-1.3,0-3.1,0.8-3,2.2c0.2,2.1,3.7,2.3,5.3,1.7C170.1,851.4,167.7,848.7,165.2,849.2L165.2,849.2
			L165.2,849.2z M166,851.1C166,851.1,166,851.1,166,851.1C166,851.1,166,851.1,166,851.1C166,851.1,166,851.1,166,851.1
			C166,851.1,166,851.1,166,851.1L166,851.1L166,851.1z M165.4,851.2C165.5,851.2,165.5,851.3,165.4,851.2
			C165.5,851.3,165.5,851.2,165.4,851.2L165.4,851.2L165.4,851.2z"/>
		<path class="st0" d="M245.6,604.6c-8.7,2-18.6,1-26.7,5c-5.3,6.7-1.6,18.9,7.4,20.1c-0.2-0.1-0.5-0.2-0.7-0.2
			c5.4,1,2.8,8.2,2.8,12.1c-3.1,14.9-23.8,13.1-35.4,16.5c-64.9,14-56.4,25-57.6,74.6c0.3,2.1,0.6,4.2,0.7,6.3
			c0.2,3.6,0.1,7.3,0,10.9c0.9,0.9,2.1,1.2,3.8,0.7c3.3-1.2,0.2-4.2,1.2-6.6c3.7-58.5-12.5-67.6,54.6-82.1c-0.3,0.1-0.5,0.1-0.8,0.2
			c19.3-2.9,49.3-7.3,37.8-34c-4.9-2.9-10-2.8-10.1-10.1c-1.8-10,15.5-6.5,22-8.7C250.4,609.2,252.7,603.8,245.6,604.6z"/>
		<path class="st1" d="M246.1,604.5c-0.1,0-0.2,0-0.3,0.1C245.9,604.6,246,604.5,246.1,604.5L246.1,604.5z"/>
		<path class="st1" d="M187,659.5c-0.1,0-0.3,0.1-0.4,0.1C186.7,659.5,186.9,659.5,187,659.5L187,659.5z"/>
		<path class="st1" d="M141.1,747.3C141.1,747.3,141.1,747.3,141.1,747.3C141.1,747.3,141.1,747.3,141.1,747.3L141.1,747.3
			L141.1,747.3z"/>
		<path class="st0" d="M191.9,868.2c-12.5-0.8-27.1-4.4-32.7-17.2c0.1,0.1,0.1,0.2,0.2,0.4c-0.1-0.2-0.2-0.3-0.3-0.5
			c0,0,0,0.1,0,0.1c-0.1-0.2-0.2-0.4-0.3-0.7c0.1,0.1,0.1,0.2,0.2,0.4c-7.8-17.5-10.5-36.7-12.7-55.6c0,0.1,0,0.1,0,0.2
			c-0.6-5.5-1.3-11-1.8-16.5c-1.1-6.1-2.1-12.2-2.4-18.4c-0.3-6.7-0.3-13.4-1.1-20.1c0-0.1,0-0.1,0-0.2c-1.4-0.7-3.6-0.5-4.4,0.5
			c-1.2,5,0.2,11.7,0.3,17.2c0,0.1,0,0.3,0,0.4c0-0.1,0-0.1,0-0.2c0,0.3,0.1,0.5,0.1,0.8l-0.1-0.5c0.1,1.5,0.3,2.9,0.5,4.4
			c2.1,30.2,4,61.8,16.1,89.9c5.5,11.4,19.1,18.7,31.6,19.1C187.4,871.7,194.9,872.2,191.9,868.2z"/>
		<path class="st1" d="M137,759.1c0,0.1,0,0.2,0,0.3C137,759.3,137,759.2,137,759.1L137,759.1L137,759.1z"/>
		<path class="st1" d="M138.1,774.8c0,0.1,0,0.1,0,0.2C138.1,775,138.1,774.9,138.1,774.8L138.1,774.8L138.1,774.8z"/>
		<path class="st1" d="M140.2,794.4c0,0.1,0,0.3,0,0.4C140.2,794.7,140.2,794.6,140.2,794.4L140.2,794.4L140.2,794.4z"/>
		<path class="st1" d="M159.2,851C159.2,851,159.2,851,159.2,851C159.2,851,159.2,851,159.2,851C159.2,851,159.2,851,159.2,851
			L159.2,851L159.2,851z"/>
		<path class="st1" d="M136.9,758.5c0-0.1,0-0.2,0-0.4C136.9,758.3,136.9,758.4,136.9,758.5L136.9,758.5L136.9,758.5z"/>
		<path class="st0" d="M345.2,851.3c-15.2,20.4-43.2,17-65.8,18.4c-31,0.9-62.1,1.6-93-1.4c-3-0.3-6.1-1.8-9.1-1.3
			c-5,2.4,1.5,4.7,4.2,4.7c29.7,4.1,60,3,90,2.4c25.4-2,58,3.7,76.3-18C352.7,852.8,350.2,848.6,345.2,851.3L345.2,851.3
			L345.2,851.3z"/>
		<path class="st0" d="M260.3,607.7c1,4.8,21.5,1.6,26.7,3.5c2,4,0.6,8.6,1.4,12.8c0.3,3.9-4.3,4.1-7.1,5c-7.1,1.4-4,8.2-2.9,13
			c8,23,38.8,18.3,57.3,26.9c0,0-0.1,0-0.1,0c14,3.5,26.3,12.7,28.1,27.8c0-0.2,0-0.3,0-0.5c1.2,20.3-3.6,40.3-5.2,60.4
			c-1.6,25.2-3.4,50.4-8.4,75.1c-0.7,4.3-2.3,8.4-2.5,12.8c-0.7,2.9-2.9,5.7-3,8.6c0.5,2.4,6.5,2.2,6.1-0.6
			c11.2-32.9,11.5-68.7,14.5-103.3c4.2-32.2,16.1-74.6-26.7-84.1c0.1,0,0.2,0.1,0.3,0.1c-17.1-8.7-44.7-3.4-54.1-23.1
			c-4.5-13.4,0.7-7.2,8.4-13.6c2.6-3.5,2.5-20.6-3.4-21.2C284.6,607.1,262.2,603.7,260.3,607.7L260.3,607.7L260.3,607.7z"/>
		<path class="st0" d="M247.4,830.2c-22.9-0.2-46.1,1.9-67.8,9.7c-2.5,1.2-12.3,3.5-10.4,6.7c47.1-19.9,103.3-17.8,151.6-1
			c0,0.1,0,0.2,0.1,0.2c1.1,0,2.2-0.2,3.3-0.3c-2.8-4.2-18-6.7-23.5-8.6C283.2,833.3,265.3,830.1,247.4,830.2L247.4,830.2
			L247.4,830.2z M320.8,845.2c0,0.1,0,0.1,0.1,0.2C320.8,845.3,320.8,845.2,320.8,845.2L320.8,845.2L320.8,845.2z"/>
		<path class="st1" d="M327,845.9c-5,3,8.8,4.6,2.7,7.2c0.1-0.1,0.2-0.1,0.4-0.2c-7.6,4.7,11.9,2.8,3.7-4.4c0.1,0.1,0.2,0.2,0.2,0.2
			C332.2,847.2,329.6,845.3,327,845.9L327,845.9L327,845.9z M331,852.5C330.9,852.5,330.9,852.5,331,852.5
			C330.9,852.5,330.9,852.5,331,852.5L331,852.5L331,852.5z M331.5,855.1C331.5,855.1,331.5,855.1,331.5,855.1
			C331.5,855.1,331.5,855.1,331.5,855.1C331.5,855.1,331.5,855.1,331.5,855.1L331.5,855.1L331.5,855.1z"/>
		<path class="st0" d="M239.6,629.5c-1.7,0.7-0.8,2.9-1.1,4.3c3.1,18.1-11.4,24.3-26.1,28c0,0,0,0,0,0c-3.2,1-6.6,1.2-9.7,2.5
			c-1.1-0.2-2.1,0.3-3.1,0.5c0.1,0,0.1,0,0.2,0c-1.8,0-4.9,2.4-2.2,3.6c0.3,0.4,1,0.6,1.5,0.2c8.7-0.9,16.8-4.8,25.2-7
			c12.6-2.2,17.6-14.4,17.4-26c0,0.1,0,0.2,0,0.2C241.4,633.9,242.3,629.4,239.6,629.5L239.6,629.5L239.6,629.5z M239.5,630.9
			C239.5,630.9,239.5,630.9,239.5,630.9C239.5,630.9,239.5,630.9,239.5,630.9L239.5,630.9L239.5,630.9z M240.3,630.9
			C240.3,630.9,240.3,630.9,240.3,630.9C240.3,630.9,240.3,630.9,240.3,630.9L240.3,630.9L240.3,630.9z M201.9,668.1
			c0,0-0.1,0-0.1,0C201.8,668.1,201.9,668.1,201.9,668.1L201.9,668.1z"/>
		<path class="st1" d="M225.7,614.5c-1.9,5.3,8.4,3.2,11.4,4c1.4-0.1,12.2,1.2,8.5-1.5c-4.3-0.7-16.1,1-18.5-1.7
			C227.2,614.5,226.2,614.1,225.7,614.5L225.7,614.5L225.7,614.5z M241,617C241,617,241,617,241,617C241,617,241,617,241,617
			L241,617z"/>
		<path class="st1" d="M283.2,612.2c-0.4,0.2-0.5,0.6-0.5,1c0,0,0-0.1,0-0.1c-1.6,4.7-17.5,2.7-19.9,4.8c1.5,2.4,6.1,0.4,8.6,0.5
			c-0.1,0-0.1,0-0.2,0c4.2-0.9,12.5-0.1,13.2-5.6C284.3,612.3,283.7,612,283.2,612.2L283.2,612.2L283.2,612.2z M282.7,613
			C282.7,613,282.7,613,282.7,613C282.7,613,282.7,613,282.7,613L282.7,613L282.7,613z M282.7,613.2c0,0,0,0.1,0,0.1
			C282.7,613.3,282.7,613.3,282.7,613.2C282.7,613.3,282.7,613.3,282.7,613.2C282.7,613.3,282.7,613.2,282.7,613.2L282.7,613.2
			L282.7,613.2z M282.6,613.4C282.6,613.5,282.6,613.5,282.6,613.4C282.6,613.5,282.6,613.5,282.6,613.4L282.6,613.4L282.6,613.4z
			 M284.3,613.7C284.3,613.7,284.3,613.8,284.3,613.7C284.3,613.8,284.3,613.7,284.3,613.7C284.3,613.7,284.3,613.7,284.3,613.7
			L284.3,613.7L284.3,613.7z M284.3,613.7c0,0,0-0.1,0-0.1C284.3,613.6,284.3,613.7,284.3,613.7L284.3,613.7L284.3,613.7z"/>
		<path class="st1" d="M231.4,610c-3,1-9.8,5.1-4.4,7.7c4.3,0.9,8.9,0.5,13.3,0.9c1.8-0.5,3.8,0.4,5.5-0.2c1.1-1.3-0.8-1.7-1.8-1.5
			c-3.9-0.5-25.9,1.4-13-4.7C232.5,612,233.5,609.7,231.4,610L231.4,610L231.4,610z M226.7,615.1
			C226.7,615.1,226.7,615.2,226.7,615.1C226.7,615.2,226.7,615.1,226.7,615.1L226.7,615.1L226.7,615.1z M226.7,615.2
			C226.7,615.2,226.7,615.2,226.7,615.2C226.7,615.2,226.7,615.2,226.7,615.2C226.7,615.2,226.7,615.2,226.7,615.2L226.7,615.2
			L226.7,615.2z"/>
		<path class="st0" d="M228.5,622.4c-2.7,3.4,5,2.8,6.8,3.8c1.3,0.5,1.4,2.3,2.6,2.7c0,0,0,0-0.1,0c2.9,0.4,0.9-3.1-0.6-3.6
			C234.6,623.8,231.5,622.6,228.5,622.4L228.5,622.4L228.5,622.4z"/>
		<path class="st0" d="M225.9,619.3c-1,0.4-0.9,1.7-0.2,2.3C228.2,622.9,228.5,618.5,225.9,619.3L225.9,619.3L225.9,619.3z"/>
		<path class="st0" d="M265.8,629.5c-2.1,0.5-1.1,3.7,0.9,3.1C268.7,632.1,267.9,628.5,265.8,629.5L265.8,629.5L265.8,629.5z
			 M266.2,631.2C266.2,631.2,266.2,631.2,266.2,631.2C266.2,631.2,266.2,631.2,266.2,631.2L266.2,631.2L266.2,631.2z"/>
		<path class="st0" d="M283.7,617.9c-0.5,0.1-0.8,0.6-1,1.1c-0.5,5.3-6.2,4.6-10.2,5.1c0,0,0,0,0,0c-2.1,0-8.5,1.7-5.8,4.5
			c0.5,0.1,0.9-0.1,1.2-0.5c1.8-2.3,5-1.3,7.5-1.8c0,0,0,0,0,0c3.8-0.4,8.8-1.4,9.4-5.9C285,619.5,285.2,617.6,283.7,617.9
			L283.7,617.9L283.7,617.9z M282,621.4c0,0,0,0.1,0,0.1C282,621.5,282,621.4,282,621.4L282,621.4L282,621.4z M277.6,623.6
			C277.6,623.6,277.5,623.6,277.6,623.6C277.5,623.6,277.6,623.6,277.6,623.6L277.6,623.6z"/>
		<path class="st0" d="M237.9,609.4c-14.7,1.7-16.9,8.8-0.1,7.8c-0.5,2.4,3.8,0.9,5.2,1.4c1.5,0.5,4.7,0.9,3.7-1.7
			c-5.2-3.2-13-0.3-18.9-2.2c2.6-3.9,9.8-3,13.9-4.2C242.9,608.4,239.1,609.2,237.9,609.4L237.9,609.4L237.9,609.4z"/>
		<path class="st0" d="M284.4,610.6c-1.4,0.1-1.7,1.8-2.8,2.5c-3.5,1.3-7.4,1.6-11.1,2.1c0.1,0,0.2,0,0.2,0
			c-1.1,0.1-2.2,0.2-3.3,0.3c0,0,0,0,0,0c-1.8-0.1-5.3,0.7-3,2.8c3.5,0.9,7.3-0.4,10.8-0.8c0,0-0.1,0-0.1,0c2-0.2,4-0.9,6-1.1
			c0,0,0,0,0,0C284.1,616.9,288.5,612,284.4,610.6L284.4,610.6L284.4,610.6z M282.5,612.3C282.5,612.3,282.5,612.4,282.5,612.3
			C282.5,612.4,282.5,612.3,282.5,612.3L282.5,612.3L282.5,612.3z M283.8,613.4c0.2-0.2,0.3-0.4,0.4-0.6c0,0.7-0.6,1.1-1.1,1.3
			C283.3,613.9,283.6,613.7,283.8,613.4L283.8,613.4L283.8,613.4z M281.2,613.4C281.2,613.4,281.2,613.4,281.2,613.4
			C281.2,613.4,281.2,613.4,281.2,613.4L281.2,613.4z M271.1,616.9C271.1,616.9,271.1,616.9,271.1,616.9
			C271.1,616.9,271.1,616.9,271.1,616.9L271.1,616.9z M271.1,616.9C271.1,616.9,271.1,616.9,271.1,616.9
			C271.1,616.9,271.1,616.9,271.1,616.9L271.1,616.9z M271.1,618.2c-0.1,0-0.1,0-0.2,0C271,618.2,271.1,618.2,271.1,618.2
			L271.1,618.2z"/>
		<g id="elixir_9_">
			<path class="st2" d="M175,704.2c-4.3,27.6-5.1,55.5-6.8,83.3c0.6,7.7-3.2,37.2,2,40.4c3.2,0.2,2-3.2,1.8-5.1
				c-1.1-26.5,1.3-53,2.8-79.4c1.2-11.7,1.7-23.6,3.7-35.2c0.2-1.9,1.5-5.1-1.3-5.6C176.2,702.3,175.2,703.1,175,704.2L175,704.2
				L175,704.2z M167.7,812.7c0,0.1,0,0.2,0,0.3C167.7,812.9,167.7,812.8,167.7,812.7L167.7,812.7L167.7,812.7z M167.8,814.3
				c0,0.1,0,0.1,0,0.2C167.8,814.4,167.8,814.4,167.8,814.3L167.8,814.3L167.8,814.3z M171.8,815.1c0,0.1,0,0.2,0,0.2
				C171.8,815.2,171.8,815.1,171.8,815.1L171.8,815.1L171.8,815.1z"/>
			<g>
				<path class="st2" d="M191.5,701c-3.8,1.1-16.4-2-16.4,3.4c0.2,0.9,1.2,1.6,2.1,1.6c-2.8,5,5.1,3,7.8,3.3c3.4-0.1,9.2,0.8,9-4.1
					c0,0.1,0,0.1,0,0.2C194.7,703.3,194.1,700.8,191.5,701L191.5,701L191.5,701z"/>
				<g>
					<path class="st2" d="M182.4,821.5c-3.1,0.2-6.2,0.6-9.2,0.2c0,0,0,0,0,0c-1.4-0.2-2.7,1.4-2.1,2.8c-2.4-0.4-3.2,3.4-0.9,4
						c4.8,0.8,9.9,1.4,14.6,0.9C187.6,827.5,186.4,820.7,182.4,821.5L182.4,821.5L182.4,821.5z M173.6,821.8
						C173.7,821.8,173.7,821.8,173.6,821.8C173.7,821.8,173.7,821.8,173.6,821.8L173.6,821.8L173.6,821.8z"/>
					<path class="st2" d="M179.4,707.5c-5-3.5-14.4,137.1-4.2,115.4c-0.8-28.6,0.6-57.3,3.3-85.8
						C177.8,731.6,184.4,708.4,179.4,707.5L179.4,707.5L179.4,707.5z M179.1,730.5c0,0.1,0,0.1,0,0.2
						C179,730.6,179,730.5,179.1,730.5L179.1,730.5L179.1,730.5z"/>
					<path class="st2" d="M181.4,752.7c-1.7,0.4-3.5,0.4-5.2,0.4c-2.4-0.1-2.9,3.6-0.5,4.1c-3.8,4.9,5,6.1,7.4,3.5
						C183.6,758.4,184.7,753.2,181.4,752.7L181.4,752.7L181.4,752.7z"/>
					<path class="st2" d="M202.3,708.5c-3.1-0.1-3.7,2.4-3.5,5.1c-0.4,8.2-1,16.5-2,24.7c-2.4,30-6.7,59.9-4.9,90c0-0.2,0-0.4,0-0.5
						c-1.4,7,12.4,6.9,16.6,5.8c2.5-2.5,1.6-6.5-2.2-6.7c0.2,0,0.3,0.1,0.5,0.1c-2.8-1-5.7-1.1-8.7-1.2
						c-1.9-37.3,3.5-74.5,7.8-111.4C206.9,711.3,206.4,707.6,202.3,708.5L202.3,708.5L202.3,708.5z M191.8,826.6c0,0.1,0,0.2,0,0.3
						C191.8,826.8,191.8,826.7,191.8,826.6L191.8,826.6L191.8,826.6z M203.2,829.8c-0.1,0-0.2,0-0.2,0
						C203,829.8,203.1,829.8,203.2,829.8L203.2,829.8z M203.4,833.9c-0.1,0-0.1,0-0.2,0C203.3,833.9,203.4,833.9,203.4,833.9
						L203.4,833.9z M203.2,833.9c-0.1,0-0.2,0-0.3,0c0,0,0,0,0,0c-0.1,0-0.1,0-0.2,0C202.9,833.9,203.1,833.9,203.2,833.9
						L203.2,833.9z"/>
					<path class="st2" d="M224.1,708.8c-3.5,0.5-2.6,5.7-2.7,8.3c-3.3,36.7-4.1,73.7-6.7,110.5c-0.7,4.5-1.7,10.2,5,9
						c3.8-1.5,0.8-7.2,1.8-10.3c0,0,0,0.1,0,0.1c0-0.2,0-0.4,0-0.5c0,0,0,0.1,0,0.1c0,0,0,0,0,0c0,0,0,0.1,0,0.1c0-0.2,0-0.4,0-0.5
						c0,0.1,0,0.2,0,0.3c1-32.6,2.1-65.2,5.6-97.6C226.4,722.8,233.1,708.1,224.1,708.8L224.1,708.8L224.1,708.8z M224.4,711.9
						C224.4,712,224.4,712,224.4,711.9C224.4,712,224.4,712,224.4,711.9L224.4,711.9L224.4,711.9z M215.8,836c0,0,0.1,0,0.1,0
						C215.9,836,215.9,836,215.8,836C215.9,836,215.9,836,215.8,836L215.8,836L215.8,836z M216,836.1C216,836.1,216,836.1,216,836.1
						C216,836.1,216,836.1,216,836.1L216,836.1L216,836.1z M221.5,826.1C221.5,826.1,221.5,826.1,221.5,826.1c0,0,0-0.1,0-0.2
						C221.5,825.9,221.5,826,221.5,826.1L221.5,826.1L221.5,826.1z"/>
					<path class="st2" d="M225.7,696.7c-5.2,0.2-5.1,9.3,0.4,8.5C231.1,704.8,230.8,696.3,225.7,696.7L225.7,696.7L225.7,696.7z"/>
					<path class="st2" d="M236.4,709.8c-0.2,0.1-0.5,0.3-0.6,0.5c-6.8,0.9-0.3,12.3,0.3,16.5c2.8,8.2,4.2,16.8,6.4,25.2
						c1.5,6,22.4,104.1,31.2,80.4c-12.2-29.3-19.1-60.7-26.7-91.5C245.1,735.8,242,708.2,236.4,709.8L236.4,709.8L236.4,709.8z
						 M269.6,833C269.6,833,269.6,833,269.6,833C269.6,833,269.6,833,269.6,833L269.6,833L269.6,833z"/>
					<path class="st2" d="M269,709.8c-8.5,19.3-12.8,40.9-19.2,61.1c-3,1.3-2.3,5.8-3.3,8.4c-2,10.3-4.1,20.5-6.2,30.7
						c-1,7-7.9,21.7-3,27.1c2.4,0.8,6.3-0.6,6.3-3.5c1.1-12.8,3.3-25.7,5.7-38.5c0,0,0,0,0,0.1c5.8-21.5,13-42.6,19.6-63.9
						C269.1,726,281.7,706.5,269,709.8L269,709.8L269,709.8z"/>
					<path class="st2" d="M288.6,710.8c-1.1,0.4-2.3,1.4-2.2,2.7c-1.3,12.8-2.5,25.6-3.1,38.4c-1.9,25.5-3.6,51.3-1.6,76.8
						c-0.4,3.9,1.5,8.3,6.1,7.3c3.3-1.5,0.3-5.6,0.4-8.3c-0.8-6.6-0.6-13.4-0.8-20c-0.1-29.8,1.5-59.8,5-89.4
						C293.5,715,293.8,709.3,288.6,710.8L288.6,710.8L288.6,710.8z M288.5,829.8c0,0.1,0.1,0.2,0.1,0.3
						C288.6,830,288.6,829.9,288.5,829.8L288.5,829.8L288.5,829.8z"/>
					<path class="st2" d="M290,697.9c-5,1-4.4,7.9,0.6,8.4C296.8,706.6,296.3,696.4,290,697.9L290,697.9L290,697.9z"/>
					<path class="st2" d="M306,703.4c-0.1,0.1-0.2,0.2-0.2,0.3c-10.6,39.3-9.9,83.1-7.9,124.2c-0.6,4.4,5.8,12.2,9.1,6.5
						c-2.7-11.6-4.4-23.5-3.6-35.6c0,0,0,0.1,0,0.1c0.4-9.6,0.3-19.1,0.6-28.7c26.6,7.3,27.4-21.9,28.9-40.3c0,0.2,0,0.4,0,0.5
						c1.5-15.6-6.7-26.8-22.7-27.6c0.1,0,0.1,0,0.2,0C308.9,702.9,307.1,702.2,306,703.4L306,703.4L306,703.4z M306.1,737
						c1.5-8.8,2.6-17.6,4.4-26.3c0.3,0.1,0.7,0.1,1.1,0c22.2,3.2,14.4,34.6,9.9,49.6c-1.9,8.1-11.8,4.6-17.4,6.7
						C304.7,757,304.8,746.9,306.1,737L306.1,737L306.1,737z M305,825.4c0,0.1,0,0.2,0,0.2C305,825.6,305,825.5,305,825.4L305,825.4
						L305,825.4z"/>
					<path class="st2" d="M311.7,766.3c-3.8,1.1-8,1.2-11.7,2.7c-1.3,0.8-1.2,2.8,0,3.6c1.7,1.4,4-0.4,5.9-0.6
						c24.8-7.9,16.9,26.6,18.5,41c0.5,5.7,0.5,14.2,6.7,16.8c2.2,0.7,4.4-1.2,4.4-3.5C322,810.7,342.8,761.7,311.7,766.3
						L311.7,766.3L311.7,766.3z M306.1,767.5c-0.1,0-0.2,0-0.4,0.1C305.8,767.6,305.9,767.5,306.1,767.5L306.1,767.5z M315.4,771
						c0.1,0,0.1,0,0.2,0C315.5,771,315.4,771,315.4,771L315.4,771L315.4,771z M305.6,772c-0.1,0-0.1,0-0.2,0
						C305.5,772,305.6,772,305.6,772L305.6,772z M331.6,820c0,0.1,0,0.1,0.1,0.2C331.7,820.1,331.7,820,331.6,820L331.6,820
						L331.6,820z"/>
				</g>
			</g>
		</g>
		<g>
			<g>
				<path class="st3" d="M424.8,287.4c-10.4,6-28.1,16.2-38.6,22.3c-1.9,0.7-3.5,3.1-4.1,5.3c0.6,67-1.2,159.2,0.6,225.9l0-0.1
					c0.2,1.6,1.4,3,2.3,4.2c5.1,2.8,14.3,8.5,19.6,11.1l-0.1-0.1c1.4,1,3.1,0.4,4.4-0.4c16.7-11.3,10.3-4.3,16.6,11.1
					c5.7,7.1,16.5,10,24.1,15.5c11.1-3,29.5-16.5,40.2-22.2l-0.1,0c1.7-1.4,3.2-3.4,4-5.5c0-67.8,0-161.3,0-229.2
					c-6-6.1-17.9-10.8-25.1-15.7c-6.9-0.1-11.6,8.9-17.3,12.5c-1.7-7.8-1.5-17-5.3-23.9C442.3,297.1,428.4,286.5,424.8,287.4
					L424.8,287.4L424.8,287.4z M432.3,521.2c-8.5,3.2-2.5-80.2-4.2-82.2c0-35.6,0-110.9,0-146c3.7,3.1,14.2,6.4,16,10.6
					c1.3,10,2.9,20.2,4.6,30.2c0,0,0-0.1,0-0.1c0,0,0,0,0,0l0,0c4.9,25.4,9.5,51.2,17.4,75.8c9.3-0.2,0.9-78.7,3.6-87.5
					c0,0,0-6.6,0-6.6c0.5,0.4,19.1,11.1,19.6,11.3c0,67.3,0,157.9,0,224.9c-5.2-4.5-19-7.1-18.6-15.2
					c-6.4-34.1-12.5-68.3-19.8-102.1c-0.4-1.6-0.6-3.2-1.1-4.9c0,0,0,0,0,0.1c0,0,0,0,0,0l0,0c-10.5-21.3-2.7,92.4-5,92.7
					c0,0,0,6.3,0,6.3L432.3,521.2L432.3,521.2L432.3,521.2z M389.7,542.8c9.5-5.6,23.3-13.1,32.6-19c1.2-0.9,3.1-1.9,4.4-0.7
					c4.2,2.5,10.8,6.2,15,8.6c-11.8,6.6-23.5,13.8-35.3,20.2c0,0,0.1,0,0.1,0l0,0l0,0C404.2,551.8,391.7,543.6,389.7,542.8
					L389.7,542.8L389.7,542.8z M447.1,575.8c-4.3-2.5-12.4-7.2-16.6-9.6c8.9-5.1,28.9-16.7,37.8-21.8c5.6,3.2,14.8,8.5,20.3,11.7
					C481.7,558.2,452,581.8,447.1,575.8L447.1,575.8L447.1,575.8z"/>
				<path class="st4" d="M428.1,293.1c0,66.3,0,159.3,0,225.8c2.8,2,13.8,7.7,16.8,9.7c2.4-2.4-5.7-119.6,5-99l0-0.1
					c0.5,1.7,0.7,3.3,1.1,4.9c7.3,33.3,13.1,66.9,19.6,100.4c-1,9.7,12.6,12,18.8,17c0-66.2,0-158.6,0-224.9
					c-28.5-17.8-17.6-9.9-19.7,15.1c-2.2,0.8,4.9,77.2-4,67.3c-7.3-24.7-12.3-50-17-75.3l0,0.1c-1.6-10-3.3-20.2-4.6-30.2
					C442.3,299.4,431.8,296.1,428.1,293.1L428.1,293.1L428.1,293.1z"/>
				<path class="st5" d="M468.2,544.4c-8.8,5.1-28.8,16.7-37.8,21.8c4.1,2.3,16.4,9.6,20.3,11.7c0,0,8.6-5,8.6-5
					C486.2,554.2,500.5,561.6,468.2,544.4L468.2,544.4L468.2,544.4z"/>
				<path class="st5" d="M425,522.6c-10.7,5.6-24.6,14.3-35.3,20.2c1.9,0.9,14.5,9,16.8,9.2l-0.1,0c11.9-6.4,23.5-13.6,35.3-20.2
					C437.1,529.5,429.8,524,425,522.6L425,522.6L425,522.6z"/>
			</g>
			<g>
				<path class="st6" d="M363.8,363.2c-0.1,0-0.1-0.1-0.2-0.1C363.7,363.1,363.8,363.2,363.8,363.2L363.8,363.2z"/>
				<polygon class="st6" points="363.8,363.2 363.8,363.2 363.8,363.2 				"/>
				<path class="st6" d="M363.8,363.2C363.8,363.2,363.8,363.2,363.8,363.2C363.8,363.2,363.8,363.2,363.8,363.2L363.8,363.2z"/>
				<path class="st4" d="M345.5,235.1c-1.7,0.1-3.8,0.7-5.1,1.9c-11.1,11.5-10.1,28.4-11.1,43.1c-0.9,14-2.2,28.1-2.4,42.1
					c0,0,0-0.1,0-0.1c0,0,0,0,0,0.1l0,0v0l0,0c0,0.9,0,1.9,0,2.8c0,0,0,0,0,0v0c0,0,0,0,0,0c0,0,0,0,0,0l0,0
					c0,6.7,0.4,13.4,0.4,20.1l0,0c0,0,0,0,0,0l0,0c0,3.7,0.2,7.5,0.3,11.2l0,0c0,0,0,0,0,0l0,0c-0.2,10.2,0.1,20.5,0,30.7
					c0,0,0,0,0,0c0,2.5,0,5.1,0.1,7.6c0,0,0-0.1,0-0.1c0,0,0,0,0,0.1l0,0v0l0,0c-0.3,30.6,9,76.6,47.7,75.8l0,0c0,0,0,0,0,0l0,0
					c4.8,0.6,12.6-11.4,11.4-0.2c0,0,0-0.1,0-0.1l0,0.1l0,0l0,0l0,0c-0.1,15.4-3.7,12,8.8,19c1.3,0.5,5.1,3.7,4.8,1.5
					c0.6-27.4,0-54.7,0.1-82.1c-0.9-4.5,1.3-19.3-2.5-20.4c-10.5-7.5-22-13.8-33.3-19.8c-0.8,8.2-0.8,16.2-1.6,24.3
					c15.4,10.8,26.1,5.9,19.5,28.4c0,0,0.1-0.1,0.1-0.1l0,0l0,0l0,0l0,0c-1.3,6-4.4,12.8-10.2,15.6c0,0,0.1,0,0.1,0c0,0,0,0,0,0h0
					l0,0l0,0c-0.8,0.4-1.8,0.4-2.7,0.5c0,0,0.1,0,0.1,0l0,0c0,0,0,0,0,0c0,0,0,0,0,0l0.1,0c-2.7,0.4-5.5-0.8-7.6-2.6
					c0,0,0,0.1,0,0.1c0,0,0,0,0,0l0,0c0,0,0,0-0.1-0.1c-16.4-12.5-11.4-82.4-11-104c1.8-14.5-0.8-55.2,7.8-64.4c-0.1,0-0.2,0-0.3,0
					c0,0,0,0,0,0c0,0,0,0,0,0c6.2-4,13.2,2.4,16.4,7.7c11.2,16.8,5.2,37.8,7.8,56.6c2.1,7.1,9.2,11,15.6,13.7c4.7,0,3-15.8,3.7-20
					l0,0.1c0,0,0,0,0,0c-0.8-26.5-0.3-59.7-25.3-75.8C367.9,241,357.5,234.7,345.5,235.1z"/>
				<path class="st7" d="M347.1,230.6c-6.8-0.4-11.8,4.9-17.6,7.8c-10.6,5.6-21.6,10.7-31.6,17.3c-19.2,22.7-12.7,89.2-14,120.3
					l0-0.2c0.1,6.6,0.4,13.2,0.5,19.8l0.1-0.1c1,22.1,2.1,44.9,7.9,66.3c0-0.1,0-0.1,0-0.2c2.8,11.2,11.3,20.1,20.3,27l-0.4-0.4
					c8.2,5.8,20.9,9.3,29.8,3.2c-1.4,7.4-4.2,12.1,4.9,15c5.9,3.1,11.7,6.5,17.8,9.3c8.3,2.8,16.5-6.8,24.2-9.5
					c11.1-6,17.9-7.2,15.8-21.8c-0.1-32,1.2-64.4-1-96.3c-3.4-6.8-14.7-10.3-21-14.9c-6.5-3.6-12.9-7.5-19.6-10.3
					c0,0,0.2,0.1,0.2,0.2c-1.9,0.4-2.9,2.4-4.7,3.2l0.1,0l-0.2,0.1l0.1,0c-1.3,1-2.5,1.4-3.8,2.1c0-13.6-0.8-27.1,0.1-40.7l-0.1,0.1
					c0.3-1.7,0.1-3.4,0.3-5l-0.1,0.1c0.7-7.8,0.7-15.7,1.2-23.6l-0.1,0.1c0.2-3.4,0.2-6.7,0.5-10.1c3.2,9.9,0.1,21.1,0.7,31.4
					l0.1-0.2c-0.2,0.7-0.1,1.4-0.2,2l0.1-0.2c-0.4,8.5-1.1,16.9-0.4,25.4l0-0.1c0.2,2.1,1.5,4,2.9,5.6l-0.1-0.2
					c2.8,3.1,6.4,5.4,9.8,7.9l0-0.1c3.7,4.5,8.1,0.4,12-1.6c7.2-3.9,13.8-8.8,21.3-12.1l-0.2,0c9.4-16.3,3.4-69.1-6.5-85.9l0,0.1
					c-7.1-11.5-19.1-19.9-30.7-26C359.7,233,353.5,230.8,347.1,230.6L347.1,230.6L347.1,230.6z M340.4,237
					c13.1-6.3,27.6,4.5,38.1,12c24,16.3,23.1,49.1,24,74.8c-0.8,3.9,1.3,23.7-5.2,19.4c-6.1-2.6-12.5-6.7-14.3-13.5
					c-2.3-19,3.5-40.4-8.4-57.1c-2.8-4.9-11.1-10.6-15.4-6.6c-8.6,8.9-6,50.2-7.8,64.4c-0.4,21.5-5.4,91.7,11,104
					c1.9,1.7,5.1,3.1,7.5,2.6c0.9-0.1,1.8-0.1,2.7-0.5l-0.1,0c5.8-2.7,8.9-9.6,10.3-15.5l-0.1,0.1c6.6-22.5-4.1-17.7-19.5-28.4
					c0.8-8.2,0.8-16.1,1.6-24.3c11.3,6,22.8,12.3,33.3,19.8c3.8,1,1.5,16.2,2.5,20.6c-0.2,27.4,0.5,54.8-0.1,82.1
					c0.3,2-3.9-1.6-5.1-1.9c-12.1-6.6-8.6-3.7-8.5-18.8l0,0.1c1.2-11.1-6.6,0.8-11.4,0.2l0,0c-38.7,0.8-48-45.2-47.7-75.8
					c0,0-0.1,0.1-0.1,0.1c-0.1-2.5-0.1-5.3-0.1-7.7c0.2-20.7-0.2-41.3-0.6-61.9c-0.1-0.7,0-1.9,0-2.8l0,0.1
					c0.2-14.1,1.5-28.1,2.4-42.2C330.3,265.4,329.3,248.5,340.4,237C340.4,237,340.4,237,340.4,237L340.4,237z M368.5,432.4
					c-10.1-2.2-10.3-16.2-11.7-24.5c0.1-2.8-2.1-6.9,0.7-8.7c1.1-0.9,2.5-2,3.4-3c5.3,4.1,11.9,6.6,17.6,10.2
					c3.7,2.3,0.1,9.5-0.2,13.5c0,0,0.1-0.1,0.1-0.2c0,0,0,0,0,0l0,0c-0.5,2.1-1.1,4.2-2.1,6c0.1-0.1,0.2-0.2,0.2-0.3l0,0.1l0-0.1
					C375,428.5,372.4,432.6,368.5,432.4L368.5,432.4L368.5,432.4z M367,512.9c-6.5-3-12.5-7.1-18.8-10.5c0,0,0,0,0,0c0,0,0,0,0,0
					c12.1-4.8,23.7-10.5,35.8-15.4c4.9,3.3,10.1,6,15.3,8.7l0,0l0,0C388.5,501.5,378,508.1,367,512.9L367,512.9L367,512.9z"/>
				<path class="st5" d="M383.9,487c-12.1,4.8-23.7,10.6-35.8,15.4c6.1,3.5,12.1,7,18.2,10.4c11.3-3.6,22-11.5,32.8-17
					C394,492.9,388.8,490.2,383.9,487L383.9,487L383.9,487z"/>
				<path class="st5" d="M361,396.2c-1.2,1.8-4.6,2.9-4.9,5c-0.2,11.1,6.7,45.9,20.5,24.2l-0.2,0.3c1-1.9,1.6-4,2.1-6.1l-0.1,0.2
					C385,402.1,371.7,405.1,361,396.2L361,396.2L361,396.2z"/>
			</g>
			<g>
				<path class="st4" d="M297.3,200.2c1.7,1,3.4,2,5.1,3c-0.3-0.5-3.9-2.2-5.3-3.1C297.2,200.1,297.2,200.2,297.3,200.2L297.3,200.2
					z"/>
				<path class="st4" d="M300,427.3c-1.7-1-3.5-1.9-5.2-2.9L300,427.3L300,427.3z"/>
				<path class="st5" d="M298.7,431.4c1.4,0.9,0.7,0.3-0.3-0.2C298.5,431.3,298.6,431.4,298.7,431.4L298.7,431.4z"/>
				<path class="st7" d="M307.5,203.1c-2.8,296.3,7.7,299.7,3.7,1.5c0,0,0.1,0.1,0.1,0.1c0,0,0,0,0,0c0,0,0.1,0.1,0.1,0.1
					C310.5,203.7,307.7,200,307.5,203.1L307.5,203.1z"/>
				<path class="st7" d="M311.4,204.8c0,0-0.1-0.1-0.1-0.1C311.3,204.7,311.4,204.8,311.4,204.8L311.4,204.8z"/>
				<path class="st7" d="M307.3,201.2C307.3,201.2,307.3,201.1,307.3,201.2C307.3,201.1,307.3,201.2,307.3,201.2L307.3,201.2z"/>
				<g>
					<path class="st3" d="M280.9,187.6c-9.3,4.9-27.7,15.9-37.1,21c-3.4,2.6-0.1,81.4-1.2,85.3c1,35.7-1.9,110.8,1,145.2
						c7.4,4.5,14.9,8.8,22.3,13.3c3.4-1,5.2-1.9,0.7-3.9c-4.4-2.6-11.1-6.3-15.6-8.9c7.7-4.4,23.4-13.3,31.2-17.7
						c4.6,2.6,11.4,6.5,15.9,9c2.7,2.2,6.7-2.5,2.1-3.7c-4.8-3-10.9-5.7-15.3-9c0-67.4,0-157.8,0-225c4.7,0.3,19.7,15.8,17.7,4.9
						C295.8,195.6,288.1,187.6,280.9,187.6L280.9,187.6L280.9,187.6z"/>
					<path class="st4" d="M284.9,193.2c1.1,1.2,3.4,1.9,5,2.8C288.2,195,286.6,194.1,284.9,193.2L284.9,193.2z"/>
					<path class="st4" d="M284.9,418.7c1.8,1,4.8,2.7,6.6,3.7C289.5,421.3,286.5,419,284.9,418.7L284.9,418.7z"/>
					<path class="st5" d="M290.7,426.9c0.3,0.2,0.7,0.4,1.1,0.6l-1.9-1C290.2,426.6,290.4,426.7,290.7,426.9L290.7,426.9z"/>
					<path class="st5" d="M251,439.7l12.2,6.9C259.1,444.4,255.2,441.5,251,439.7L251,439.7L251,439.7z"/>
					<path class="st7" d="M281.1,189.1c-1.9,3.8,21.7,12.7,25.5,16.7l-0.1-0.1c1.5,1.5,4.8,1.6,4.6-1.1c0,0,0,0,0,0
						c-0.9-1.4-2.4-2.4-3.8-3.4c0.1,0,0.1,0.1,0.2,0.1C299.4,198.1,289.4,187,281.1,189.1L281.1,189.1z"/>
					<path class="st7" d="M283.9,418.3c-8,4.1,16.2,12.3,19,15.8c0,0,0,0-0.1,0c0,0,0,0,0,0l0,0c1.6,1,3.2,1.9,4.8,2.8
						c-0.2-0.1-0.3-0.2-0.5-0.3c2.7,2.9,6.2-1.9,2.5-3.4c0.1,0,0.1,0.1,0.2,0.1C301.2,428.4,292.8,422.4,283.9,418.3L283.9,418.3
						L283.9,418.3z"/>
					<path class="st7" d="M244.5,436.4c-5.2,4.4,7.4,7.2,10,9.9c-0.2-0.1-0.3-0.2-0.5-0.3c7.8,2.7,16.6,14.6,24.1,11.2c0,0,0,0,0,0
						c1-0.5,1.6-0.7,0.4-1.3c0.1,0,0.1,0.1,0.2,0.1c-2.1-1.4-4.5-2.5-6.6-4c0,0,0.1,0.1,0.2,0.1c0,0-0.1,0-0.1-0.1l0.1,0.1
						c-2.5-1.8-5.3-3.1-7.8-4.9c0,0,0.1,0.1,0.1,0.1C257.9,444.1,251.5,438.4,244.5,436.4L244.5,436.4L244.5,436.4z"/>
					<polygon class="st7" points="269.4,455.4 269.4,455.4 269.4,455.4 269.4,455.4 					"/>
					<path class="st7" d="M307.6,435.7c-0.1,0.9-47.7,24-29.5,21.5c0,0,0,0,0,0c10.5-6.5,22.9-11.1,32-19.2c0,0.1-0.1,0.2-0.1,0.2
						C311.6,436.5,309.3,434.7,307.6,435.7L307.6,435.7L307.6,435.7z"/>
					<path class="st4" d="M284.9,193.4c0,66.6,0,158.4,0,225c3.7,2.3,7.5,4.6,11.4,6.7c3.7,1.5,8.2,5.8,11.2,6.4
						c-1-66.5,1.8-160.4-1-225.8l0.2,0.1C299.9,201.5,292.1,197.1,284.9,193.4L284.9,193.4L284.9,193.4z"/>
					<path class="st5" d="M282.2,422c-35.9,23-39.5,11.2-10,30.2l-0.2-0.2c1.4,0.7,2.9,2.7,4.4,1.4c-0.6-1.9,40.3-17.6,26.4-19.4
						l0.1,0.1C296.7,430,288.7,425.8,282.2,422L282.2,422L282.2,422z"/>
				</g>
			</g>
			<g>
				<polygon class="st7" points="237.1,195.5 237.1,195.5 237.1,195.5 				"/>
				<path class="st7" d="M221.6,149.7c-17.6,2.8-33.2,13.8-50.1,19.6c-13.6,6.6-16.3,23.2-19.1,36.6c0.1-0.1,0.1-0.2,0.1-0.2
					c-2.7,19.9-3.8,42.4,6.7,60.3c0-0.1-0.1-0.2-0.1-0.3c7.7,15.9,24,24.6,34.2,38.4c0.3,0.6,1.2,1.3,0,1.5c-2.9,1.4-5.8,2.4-8.6,4
					l0.3-0.1c-2.8,1.7-5.4,3.3-8.3,4.7l0.1,0c-27.9,14.2-25.5,13.1-21.4,44.3l0-0.1c1.8,8.3,4.6,16.4,8.4,23.9l0-0.1
					c0,0.2,0.1,0.4,0.2,0.5l0-0.1c5.7,13,16,22.7,30.3,24.8l-0.1-0.1c11.8,3.7,25.5,1.4,36.4-4.2l-0.1,0
					c13.8-8.1,29.6-15.8,37.8-30.2l-0.1,0.1c9-20.5,6.3-44.6,4-66.3c-0.8-20.7-8-38.4-26-49.8c-6.5-3.9-2.3-5.3,2.5-8.1
					c5.6-3.3,10.8-6.6,16.4-9.8c3.5-3.9,2.7-10.9,3.3-16c0,0.1,0,0.2,0,0.2c0.9-10.6,0.3-21.3-1.4-31.8c0,0.1,0,0.2,0.1,0.2
					c-0.1-0.2-0.1-0.5-0.2-0.7c0,0.1,0,0.2,0.1,0.2C263.6,169.1,243.6,152.2,221.6,149.7L221.6,149.7L221.6,149.7z M198.4,249.3
					C198.4,249.3,198.4,249.3,198.4,249.3c-9.8-21.4-10.6-78.5,11.8-91.7c14.6-8.8,32.8,2,43.2,13c14.2,16.8,13.5,43,9.6,63.5
					c0,0,0.1,0,0.1,0c0,0,0,0,0,0l0,0c-1.3,1.4-3.4,0.7-5.1,0.3l0,0.1c-23.4-2.2-9.3-31.6-19.5-45.5c-11.2-15.8-23.2-3.1-22.7,12.3
					c-0.9,19.6,1.6,42.4,20.8,52.5c27.6,21.3,29.7,30,32.8,64.1c0.8,19.1,3.6,41.9-7.9,58.3c0,0,0.1,0,0.1-0.1l0,0l0,0
					c-10.2,13.7-32.1,15.2-45.5,5.2c0,0,0,0,0,0.1c0,0,0,0,0,0l0,0c-0.7-0.7-1.6-1.2-2.4-1.9c0,0,0,0,0,0.1l0,0l0,0
					c-2-1.7-3.8-3.5-5.4-5.6c0,0,0,0.1,0,0.1c0,0,0,0,0,0l0,0c-10.2-13.9-14.7-31.4-15.7-48.5c0-11.2,1-22.5,14.9-14.2l0,0
					c10.6,8.1,12.1,21.5,13.9,33.8c1.4,8,13.1,16.1,19.1,8c5.5-11.2,2.9-24.5,3.1-36.5c2-30.9-31.3-43.3-44.8-66.5c0,0,0,0.1,0,0.1
					c0,0,0,0,0,0l0,0C198.7,249.9,198.5,249.6,198.4,249.3L198.4,249.3z M182.6,316.1c13-9.1,3.3,0.9,6,14.5
					c2.4,21.6,10.1,46,30.3,57c0,0,0,0,0,0c0,0,0,0,0,0l0,0c7.2,4.4,15.9,5.1,24.1,3.8l0,0l0,0c-18,12-36.2,18.3-57.2,9.3
					c0,0,0,0,0,0l0,0l0,0c-16.1-7.5-21.6-27-26.1-42.8c0,0,0,0.1,0,0.1c0,0,0,0,0,0l0,0c-1.9-8.9-2.1-18-1.9-27
					c2.4-5,9.1-5.8,13.5-8.7c0,0-0.1,0-0.1,0c0,0,0,0,0,0l0,0c0.6-0.3,1.2-0.6,1.8-0.9c0,0,0,0-0.1,0l0,0l0,0
					C176.2,319.6,179.4,317.7,182.6,316.1C182.7,316.1,182.6,316.1,182.6,316.1C182.6,316.1,182.6,316.1,182.6,316.1L182.6,316.1
					L182.6,316.1L182.6,316.1z"/>
				<path class="st7" d="M230.9,186.9c-1.6,0.9-1.2,3.6,0.7,3.9c13.5,11.3,3.7,36.2,20.3,46.5c-0.1-0.1-0.2-0.1-0.3-0.2
					c5.9,5.2,10.6-1.2,2.4-3.5c0.1,0,0.1,0.1,0.2,0.1c-4.5-3.7-7.9-9.1-8.8-14.9c0,0,0,0,0,0c0,0,0,0,0,0l0,0
					c-0.2-1.3-0.5-2.6-0.6-3.9l0,0.1c0-0.2-0.1-0.4-0.1-0.5c0,0,0,0,0,0c-0.2-1.6-0.3-3.2-0.6-4.8l0,0.1
					C242.9,202.2,240.7,186.7,230.9,186.9L230.9,186.9L230.9,186.9z"/>
				<path class="st7" d="M243.7,225.6c-1.9,4,5.1,7.1,7.3,9.9c0,0,0,0,0,0c0.1,0.1,0.2,0.1,0.3,0.2c-0.1-0.1-0.1-0.1-0.2-0.2
					c1.1,0.8,2.4,1.5,3.7,2c-0.1,0-0.1,0-0.2-0.1c7.6,4.2,10.1-2.8,1.3-4.1c0.1,0,0.2,0.1,0.2,0.1c-0.1,0-0.1-0.1-0.2-0.1
					c0,0,0.3,0.1,0.3,0.1C251.2,232.7,248.5,223.3,243.7,225.6L243.7,225.6L243.7,225.6z"/>
				<path class="st7" d="M197.5,304.4c-3.2,0-2.7,4.8,0.4,4.3c-0.1,0-0.2,0-0.4-0.1c5.1,0.4,9.7,3.3,12.5,7.6
					c-0.1-0.1-0.1-0.2-0.2-0.3c0,0,0.1,0.1,0.1,0.1l-0.1-0.1c1,1.4,2.1,3,3,4.4c0-0.1-0.1-0.1-0.1-0.2l0.1,0.2l-0.1-0.1
					c7.1,8.6,4.3,21.9,12.5,29.5c0,0-0.1-0.1-0.1-0.1c8.7,9,7.9-13.4,2.2-3.7c-5.9-8.4-4.5-20.3-11.4-28.5c0,0,0,0.1,0.1,0.1
					c-0.6-0.9-1.2-1.7-1.8-2.6c0.1,0.1,0.1,0.2,0.2,0.3c-0.3-0.4-0.6-0.8-0.9-1.2c0.1,0.1,0.1,0.1,0.1,0.2
					c-3.4-5.4-9.1-9.2-15.5-9.7c0.1,0,0.1,0,0.2,0C198.1,304.4,197.8,304.4,197.5,304.4L197.5,304.4L197.5,304.4z"/>
				<path class="st7" d="M199.3,260.5c1.8,11.3,21.5,17.3,29.1,26.8c-0.1-0.1-0.2-0.2-0.2-0.2c17.3,14.1,19.9,47.5,7.8,64.5
					c-4.4,0.1-1.7,6.2,1.8,4c12.5-8.4,8.9-32.2,8.3-45.6C242.4,286.9,216.6,271.1,199.3,260.5L199.3,260.5L199.3,260.5z
					 M235.5,355.8C235.5,355.8,235.5,355.8,235.5,355.8C235.5,355.8,235.5,355.8,235.5,355.8L235.5,355.8L235.5,355.8z"/>
				<path class="st4" d="M222.4,154c-36.1,0.2-34.9,73-23.6,96.1l0-0.1c10,17.2,28.3,27.3,40.3,42.8c11.4,10.1,13.8,78.1-12.6,60.3
					c-8.9-8.7-6.2-23.2-13.7-32.9l0.1,0.1c-0.9-1.5-2-3-3-4.4c0.1,0.1,0.2,0.4,0.3,0.5c-19.5-22.6-19.1,9.8-15.7,23.4
					c2.4,12.2,6.4,24.1,13.9,34.1l0-0.1c1.6,2.1,3.5,3.9,5.4,5.6l0-0.1c0.8,0.7,1.6,1.2,2.4,1.9l0-0.1c13.3,10,35.3,8.5,45.5-5.2
					l-0.1,0.1c14.3-16.9,9.1-78.9-0.5-98.3c-12.6-21.1-44.3-28.7-44.5-57.1c-0.7-11.8-3-25.7,4.2-36c15.4-11.8,22.9,13.3,23.4,25.1
					l0-0.2c0.3,1.9,0.4,3.6,0.7,5.5l0-0.1c0.2,1.3,0.4,2.7,0.6,3.9l0-0.1c0.9,6.3,5.1,12.1,10.9,14.8l-0.4-0.2
					c2.2,0.8,5.2,2.5,7.1,0.7l-0.1,0C270.3,200,262.8,159.9,222.4,154L222.4,154L222.4,154z"/>
				<path class="st5" d="M189.7,311.8c-2.4,1.3-4.7,3-7.1,4.2l0.1,0c-3.3,1.6-6.5,3.5-9.7,5.2l0.1,0c-0.6,0.3-1.2,0.7-1.8,0.9l0.1,0
					c-4.4,2.9-11,3.7-13.5,8.7c-0.3,9,0,18.1,1.9,27l0-0.1c4.5,15.9,10.1,35.4,26.1,42.8l0-0.1c20.9,9,39.2,2.7,57.2-9.3
					c-8.2,1.3-16.9,0.6-24.1-3.8l0,0.1C194.1,373,185.3,338.8,189.7,311.8L189.7,311.8L189.7,311.8z"/>
			</g>
			<g>
				<polygon class="st6" points="154.8,336.4 154.8,336.4 154.8,336.4 				"/>
				<path class="st3" d="M126.2,88.9c-3.1,1.4-5.9,3.2-8.8,5l0.1,0c-1.6,0.9-3.1,1.9-4.7,2.8l0.1,0c-1.4,0.8-2.9,1.7-4.3,2.5
					l0.3-0.1c-3.5,2-6.8,3.8-10.3,6l0.1-0.1c-3.4,2.9-10.1,4.6-11.1,9.3c0,0,0,62,0,62c0,44.2,0,123.1,0,167.1
					c0.2,2.5,3.6,2.8,5.2,4.1c5.4,3.1,10.9,6.3,16.3,9.5l-0.1-0.1c1.4,0.9,2.8,1.8,4.3,2.6l-0.1-0.1c2.1,1.3,4.3,2.3,6.4,3.5
					l-0.1-0.1c0.9,0.6,1.9,1.1,2.8,1.6l-0.1-0.1c0.2,0.2,0.5,0.3,0.8,0.5l0-0.1c6.4,3.5,17.5,10.1,23.8,13.7c4,2.2,9.6-4.3,13.5-5.6
					c29-17.1,26.7-9.1,26.6-43.8l0,0.1c0-0.2-0.1-0.5-0.1-0.7l0,0.1c-1.5-5.8-22.6-14.1-28.3-18.6c0.5-0.3-1.7-45,0.8-44
					c5-2.9,14.2-8,19-11.1l-0.1,0c2.2-1.4,4.5-2.6,6.7-4.1l-0.1,0c0.5-0.3,1-0.7,1.2-1.1l0,0c0.4-0.6,0.6-1.3,0.8-2l0,0.1
					c1.3-26.6,0.9-18.2-19.8-31.5c-0.4-0.2-8.3-5-8.7-4.9c0.1-6-0.1-35.5,0-40.8c8.9-5.1,17.8-10.3,26.5-15.7l-0.1,0
					c4.1-0.2,1.5-21.3,2.2-23.4c-0.3-2.5,1-7.9-2.1-9.1C164.9,112.3,146.4,97.1,126.2,88.9L126.2,88.9L126.2,88.9z M182.5,352.2
					c-17.7-9.4-34.4-20.5-52.5-29.3c0-67.2,0-158.1,0-225.4c-0.5-4.2,1.2-1.6,3.7-0.5c12,6.8,23.4,14.3,35.3,21.3
					c19.4,8.2,12.6,12.2,13.7,30.2c-8.5-4.6-17.1-10.5-25.9-14.6c0,0,0.1,0.1,0.1,0.1l-0.1,0l0,0c-2.7-2-2.4,1.5-2.8,3.4
					c1.5,19.5-3,58.8,1.9,77c-0.4,0.8,25.7,15.2,26.8,15.9c-0.1,2.5,0.1,12.8,0,15.2c-6.5-1.6-24.5-19.6-28.2-11.3c0,0,0,0,0,0l0,0
					l0,0c0.2,18.5-2.9,61.1,1.2,79C179.6,329.3,185.4,320.1,182.5,352.2L182.5,352.2L182.5,352.2z M158.4,139.4c0,0,22.5,13,22.5,13
					c0.1,0.5-8.2,4.7-8.3,5c-3.4,1.9-10.8,6.2-14.1,8.1C158.4,165.6,158.4,139.4,158.4,139.4L158.4,139.4z M158.4,259.9
					c-0.6-29-2.3-24.7,21.7-11C177,249.9,157.8,263.8,158.4,259.9L158.4,259.9z M131.9,365.8c-11.7-6.8-26.3-15.3-38.1-22.1l0,0l0,0
					c11.1-4.9,22.5-14.9,33.7-17.3c17.9,8.9,34.6,19.6,52,29.2l0,0l0,0c0,0-0.1,0-0.1,0c0.4,0.1,0.8,0.3,1.2,0.4c0,0,0,0,0,0
					c0,0,0,0,0,0c-10.5,6-21.6,12.6-32.1,18.4c-4.2-1-7.8-4-11.7-5.9c0,0,0,0,0,0.1l0,0l0,0c-1.4-1.1-3.1-1.8-4.6-2.8
					c0,0,0.1,0.1,0.1,0.1c0,0,0,0-0.1,0l0,0.1C132.2,365.9,132,365.8,131.9,365.8L131.9,365.8L131.9,365.8z"/>
				<path class="st4" d="M130,94.9c0,68.3,0,159.7,0,228c16.2,8.2,31.7,17.4,47.2,26.7c1.8,0.5,5.9,4.3,5.5,1.4c0,0,0-22.1,0-22.1
					c-6.3-3.7-19.8-11.4-26-15c-1.3-0.7-2.2-1.6-2.7-3.1c0.4-18.2-0.8-58.9,0.5-76.6l-0.1,0.1c4.5-8.1,21.2,9.4,28.2,11.3
					c0,0,0-15.2,0-15.2c-1.2-0.8-27.1-15.2-26.8-16c-4.8-18.1-0.4-57.6-1.8-76.9c0.4-1.8,0.1-5.4,2.8-3.4l-0.1-0.1
					c21.9,9.1,28.3,26.7,26-8.1c-1.1-0.5-2.2-1.2-3.3-1.8C162.5,115,146.8,104.3,130,94.9L130,94.9L130,94.9z"/>
				<path class="st5" d="M126.5,325.8c-11.1,5.7-21.8,12-32.6,17.9c11.9,6.9,26.7,15.5,38.5,22.4l-0.1-0.1c1.5,1,3.2,1.7,4.6,2.8
					l0-0.1c3.9,1.8,7.6,5,11.8,5.9c8.6-5.9,26.7-13.1,30.8-18.9l0.1,0C161.8,345.7,144.5,335.1,126.5,325.8L126.5,325.8L126.5,325.8
					z"/>
				<path class="st5" d="M158.4,236.4c2.3,21.7-8.4,31.7,15,16.4c0,0,6.7-3.9,6.7-3.9C173,244.8,165.5,240.5,158.4,236.4
					L158.4,236.4L158.4,236.4z"/>
				<path class="st5" d="M158.4,139.4c0,0,0,26.2,0,26.2l14.1-8.1c0.1-0.3,8.5-4.5,8.3-5C180.9,152.4,158.4,139.4,158.4,139.4
					L158.4,139.4L158.4,139.4z"/>
			</g>
			<g>
				<path class="st7" d="M46,34.3C35.5,40.5,18.9,49.6,8.6,56.1l0.1,0C2.2,123.7,8,222.9,6.6,292.3c2.9,2.8,6.4,4.7,9.6,7l-0.1-0.1
					c12.4,6.3,23.6,18,38.3,17c2.9,0,6-0.6,8.5-2c20.2-12.5,51.1-22.6,48.8-51.6l0,0.2c-0.5-47.6,0.8-115.9-0.5-163.3
					C110,84.4,103,70.2,91.6,60l0.3,0.3c-6.8-6.3-22.6-13.3-30.4-18.4C58.8,41,48.8,33,46,34.3L46,34.3L46,34.3z M50.4,40.6
					c20.4,12.9,47.7,21.1,54.1,47.3c7.5,49.7-0.2,121.3,3.3,171.5c1.4,15.8-8,35.4-26.6,27.9c-8.3-5-22.7-13.1-30.8-17.8
					C50.4,201.4,50.4,108.6,50.4,40.6L50.4,40.6z M53.4,312.1c-14.4-0.4-26-11.2-37.8-18.3c-4.6,0,32.6-20.8,33.8-19.7
					c0,0-0.1,0-0.1,0c0,0,0,0,0,0l0,0c4.5,2.3,12.6,7.2,16.9,9.8c0,0-0.1-0.1-0.2-0.1c0,0,0,0,0,0l0,0c3.3,1.9,6.3,4.2,9.9,5.6
					c0,0-0.1-0.1-0.2-0.1c0,0,0.1,0,0.1,0l0,0c2.6,1.2,5.2,2.6,8,3.2c1.3,0.7,7.5-0.7,5,1.9C78.6,298.4,64.6,311.1,53.4,312.1
					L53.4,312.1L53.4,312.1z"/>
				<path class="st5" d="M48.6,274.1c-8,2.7-26.3,15.1-34.1,19c4.5,3.4,9.5,6.3,14.3,9.3c24.6,17.9,32.6,7.3,55.1-5.4
					c5.4-2.9,9.3-4,0.1-4.4c-2.9-0.6-5.6-2-8.2-3.3l0.1,0.1c-3.6-1.5-6.6-3.7-9.9-5.6l0.2,0.2c-4.3-2.5-12.4-7.5-16.9-9.8l0.1,0.1
					C49.2,274.1,48.9,274.1,48.6,274.1L48.6,274.1L48.6,274.1z"/>
				<path class="st7" d="M73.6,93c2.2,45.8-4.1,121.9,2.2,165.2c6.2-40.8,0.3-117.6,2.1-160.8c0-1.7-0.2-3.4-0.3-5.1
					C77.5,89.8,73.4,90.6,73.6,93L73.6,93z"/>
				<path class="st7" d="M85.9,105.9c-0.1,44.5,0.2,107.4,0,151.9c3-3.2,4.1-7.8,4.3-12.1c0.2-37.2,0-100.1,0.1-137.4
					c-0.1-1-0.2-2.1-0.3-3.1C89.9,102.8,85.7,103.5,85.9,105.9L85.9,105.9z"/>
				<path class="st7" d="M75.7,85.5c-6.9,3.3,1.9,17.9,1.8,5.6c0,0,0,0.1,0,0.1c0-0.1,0-0.3,0-0.4c0,0,0,0,0,0.1
					c0-0.1,0.1-0.6,0.1-0.3c6.3,3.6,8.4,12,8.3,19c7.1,6.9,3.2-10.3,2-13.1l0,0.1C85.8,91.8,81.5,85.1,75.7,85.5L75.7,85.5
					L75.7,85.5z M77.6,91C77.6,91.1,77.6,91.1,77.6,91C77.6,91.1,77.6,91.1,77.6,91L77.6,91z"/>
				<path class="st7" d="M88.5,244.9c-4.3,1.9-1.3,12.2-9.9,10.7c0.1,0,0.2,0,0.4,0c-0.1,0-0.1,0-0.2,0l0.2,0
					c-13.3-4,0.5,10.9,7.6,1.4C88.4,254.7,92.8,245.9,88.5,244.9L88.5,244.9L88.5,244.9z"/>
				<path class="st4" d="M50.4,40.6c-0.1,67.9,0,160.9,0,229c8.1,4.7,22.6,13,30.8,17.8c18.7,7.4,28.1-12,26.6-27.9
					c-3.5-50.2,4.2-121.9-3.3-171.5C98.1,61.7,70.8,53.5,50.4,40.6L50.4,40.6L50.4,40.6z M80.1,260.1c-13.7,7.5-3.6-92.7-6.5-101.3
					c3.3-7-10.5-106,14.4-62.3l0-0.1c5.1,17,1.3,73.6,2.4,92C87.5,198.7,98.5,260.4,80.1,260.1L80.1,260.1L80.1,260.1z"/>
				<path class="st5" d="M77.7,90.4c1.7,45.2-1.8,121.6,1.3,165.3l-0.4-0.1c11.6,0.4,6.7-15.4,7.3-22.7c0-32.4,0-91.7,0-123.8
					c0-6.9-2.2-15-8.3-18.6C77.7,90.5,77.7,90.4,77.7,90.4L77.7,90.4L77.7,90.4z"/>
			</g>
		</g>
	</g>
</g>
</svg>
