<svg xmlns="http://www.w3.org/2000/svg" width="44.032" height="44.032" viewBox="0 0 44.032 44.032">
  <defs>
    <style>
      .a {
        fill: #2d3064;
        stroke: #bcbfdb;
        stroke-miterlimit: 10;
      }

      .b {
        fill: #fff;
      }
    </style>
  </defs>
  <g>
    <rect class="a" x="0.5" y="0.5" width="43.032" height="43.032" rx="6.851"/>
    <g>
      <path class="b" d="M38.373,19.811a1.059,1.059,0,0,0-.146.111.82.82,0,0,0-.1.105.886.886,0,0,0-.1.088,1.1,1.1,0,0,0-.075.1.634.634,0,0,0-.085.2,1.433,1.433,0,0,0-.04.326c0,.049,0,.1,0,.146a.728.728,0,0,0,.007.093.685.685,0,0,0,.085.256.557.557,0,0,0,.169.166.548.548,0,0,0,.118.066.841.841,0,0,0,.179.054,1.318,1.318,0,0,0,.3.044.985.985,0,0,0,.242-.024.79.79,0,0,0,.26-.111c.024-.016.046-.033.068-.051a1.023,1.023,0,0,0,.1-.089.828.828,0,0,0,.156-.236.987.987,0,0,0,.06-.227,1.611,1.611,0,0,0,.02-.23.732.732,0,0,0,0-.081l0-.013a.458.458,0,0,0,0-.064.925.925,0,0,0-.039-.2,1.076,1.076,0,0,0-.078-.169.946.946,0,0,0-.126-.163,1.008,1.008,0,0,0-.1-.092,1.353,1.353,0,0,0-.115-.084.473.473,0,0,0-.1-.045.647.647,0,0,0-.151-.027h-.038a.92.92,0,0,0-.456.154Z"/>
      <path class="b" d="M40.451,22.943c-.045.008-.09.014-.134.024a.94.94,0,0,0-.184.073.727.727,0,0,0-.137.088l-.01.007a.827.827,0,0,0-.151.062.837.837,0,0,0-.315.321,1.7,1.7,0,0,0-.156.361,2.17,2.17,0,0,0-.078.318l0,.022a2.793,2.793,0,0,0-.042.352,1.041,1.041,0,0,0,.033.294.963.963,0,0,0,.028.118,1.059,1.059,0,0,0,.154.328,2.633,2.633,0,0,0,.206.242,1.7,1.7,0,0,0,.283.252,1.324,1.324,0,0,0,.356.159,1.361,1.361,0,0,0,.152.04,2.086,2.086,0,0,0,.223.026,1.978,1.978,0,0,0,.308-.009,1.554,1.554,0,0,0,.193-.032,1.029,1.029,0,0,0,.25-.1.842.842,0,0,0,.163-.115,1.021,1.021,0,0,0,.12-.117,1.426,1.426,0,0,0,.118-.151,1.125,1.125,0,0,0,.084-.157,2.13,2.13,0,0,0,.127-.373c.024-.105.049-.212.063-.319a1.27,1.27,0,0,0,0-.359,1.505,1.505,0,0,0-.092-.374,1.194,1.194,0,0,0-.157-.287,2.14,2.14,0,0,0-.231-.245c-.038-.036-.076-.071-.115-.105a1.615,1.615,0,0,0-.176-.132A1.234,1.234,0,0,0,41,23.013a1.921,1.921,0,0,0-.3-.065,1.173,1.173,0,0,0-.157-.012.6.6,0,0,0-.094.007Z"/>
      <path class="b" d="M36.848,24.064a1.164,1.164,0,0,0-.419.257.741.741,0,0,0-.134.185.832.832,0,0,0-.047.1.578.578,0,0,0-.132.147.927.927,0,0,0-.081.175,1.115,1.115,0,0,0-.043.127.952.952,0,0,0-.016.105c0,.032-.005.063-.007.1l-.005.019a1.212,1.212,0,0,0-.042.238c0,.026,0,.051,0,.077s0,.057,0,.085a.742.742,0,0,0,.02.148,1.027,1.027,0,0,0,.038.119c.015.04.034.079.052.118a.454.454,0,0,0,.112.131.544.544,0,0,0,.182.1l.034.021a.819.819,0,0,0,.309.155.516.516,0,0,0,.11.018,1.242,1.242,0,0,0,.136.009A.526.526,0,0,0,37,26.488a1.5,1.5,0,0,0,.2.011,1.53,1.53,0,0,0,.261-.035,1.566,1.566,0,0,0,.244-.065.834.834,0,0,0,.215-.113.6.6,0,0,0,.164-.187.706.706,0,0,0,.05-.12.8.8,0,0,0,.031-.106,1.114,1.114,0,0,0,.019-.294,1.581,1.581,0,0,0-.042-.273,1.15,1.15,0,0,0-.031-.111c0-.02,0-.041-.006-.062a1.253,1.253,0,0,0-.071-.277,1.679,1.679,0,0,0-.236-.416.967.967,0,0,0-.173-.177.978.978,0,0,0-.253-.14.908.908,0,0,0-.382-.075h0a.51.51,0,0,0-.14.016Z"/>
      <path class="b" d="M9.47,10.527a.57.57,0,0,0-.317.278.806.806,0,0,0-.05.126.886.886,0,0,0-.053.352.928.928,0,0,0,.035.215.681.681,0,0,0,.047.107.437.437,0,0,0,.074.1.4.4,0,0,0,.077.065,1.064,1.064,0,0,0,.1.066l.03.012a.485.485,0,0,0,.088.031.82.82,0,0,0,.131.014.652.652,0,0,0,.176-.015.431.431,0,0,0,.177-.083.4.4,0,0,0,.085-.084.623.623,0,0,0,.062-.1A.993.993,0,0,0,10.2,11.4a.629.629,0,0,0,.012-.137.58.58,0,0,0-.013-.11.663.663,0,0,0-.027-.125.894.894,0,0,0-.05-.114A.632.632,0,0,0,10,10.745l-.027-.025a.766.766,0,0,0-.083-.078.587.587,0,0,0-.193-.106.463.463,0,0,0-.1-.018l-.044,0a.316.316,0,0,0-.081.011Z"/>
      <path class="b" d="M11.136,8.231a1.055,1.055,0,0,0-.409.123.987.987,0,0,0-.146.1,1.147,1.147,0,0,0-.116.1.794.794,0,0,0-.1.139,1.4,1.4,0,0,0-.16.495,1.848,1.848,0,0,0,.022.629,1.868,1.868,0,0,0,.1.31,2.362,2.362,0,0,0,.167.3,1.644,1.644,0,0,0,.11.153.874.874,0,0,0,.4.3,1.892,1.892,0,0,0,.575.121,1.073,1.073,0,0,0,.753-.278.859.859,0,0,0,.172-.184,1,1,0,0,0,.109-.222,1.657,1.657,0,0,0,.087-.368c0-.027.007-.054.01-.081a.2.2,0,0,0,.006-.049l.01-.094c0-.028.005-.056.007-.085,0-.048.007-.1.007-.144a1.409,1.409,0,0,0-.029-.274,1.625,1.625,0,0,0-.044-.183.969.969,0,0,0-.2-.349,1.218,1.218,0,0,0-.3-.251,1.285,1.285,0,0,0-.206-.087,1.337,1.337,0,0,0-.165-.044c-.068-.014-.136-.026-.205-.034s-.115-.024-.173-.034a1.064,1.064,0,0,0-.186-.017.844.844,0,0,0-.087,0Z"/>
      <g>
        <path class="b" d="M34.879,22.038c-.02-.152-.048-.308-.074-.446l0-.018c-.019-.1-.038-.212-.055-.32-.008-.066-.015-.131-.021-.2-.009-.105-.024-.214-.037-.31v-.009l-.008-.056,0,.01,0-.009v-.008c-.019-.132-.039-.265-.063-.4-.006-.035-.011-.071-.017-.107v-.009c-.014-.084-.029-.179-.048-.271l-.011-.053c-.021-.1-.048-.23-.065-.354s-.041-.254-.073-.4c-.036-.165-.085-.329-.133-.488l0-.006,0-.005c-.021-.07-.042-.14-.062-.21a8.235,8.235,0,0,0-.272-.778l-.06-.15,0,0-.006-.016,0-.006c-.052-.13-.106-.264-.16-.4-.211-.517-.44-1.066-.715-1.585-.124-.235-.257-.457-.383-.661l-.033-.055L32.56,14.7c-.047-.077-.1-.163-.153-.244s-.092-.138-.144-.214l-.01-.015-.067-.1c-.146-.214-.315-.416-.478-.612l-.007-.008-.049-.058c-.088-.106-.176-.206-.251-.29-.043-.048-.085-.1-.127-.146s-.077-.091-.116-.135a5.879,5.879,0,0,0-.522-.513,8.449,8.449,0,0,0-.686-.552c-.18-.128-.367-.267-.558-.414s-.371-.265-.514-.358a5.454,5.454,0,0,0-.576-.329c-.279-.135-.5-.233-.7-.319-.1-.044-.2-.092-.3-.134l-.022-.01-.013-.006c-.116-.054-.229-.106-.341-.154l-.01,0-.027-.012-.028-.011.024.014c-.118-.054-.254-.11-.439-.182l-.038-.017c-.1-.045-.214-.092-.324-.135a3.2,3.2,0,0,0-.329-.1l-.04-.011L25.66,9.62c-.044-.012-.087-.024-.13-.034s-.1-.022-.144-.031l-.07-.014c-.15-.03-.278-.058-.391-.086-.1-.023-.191-.053-.284-.082l-.01,0-.007,0-.058-.019a2.753,2.753,0,0,0-.3-.068l-.017,0-.067-.012-.391-.077c-.058-.012-.116-.022-.174-.031s-.126-.022-.19-.036-.147-.034-.218-.052l-.011,0-.017,0h-.006l-.034-.009c-.037-.009-.073-.02-.109-.03h-.005c-.055-.016-.119-.034-.18-.047a3.111,3.111,0,0,0-.385-.046l-.044,0H22.4l-.026,0c-.064,0-.138-.006-.208-.014-.129-.018-.269-.035-.413-.046-.125-.009-.248-.011-.4-.013-.12,0-.24,0-.36,0h0a2.03,2.03,0,0,0-.321.032h-.005l-.049.008c-.076.008-.157.013-.248.016a1.979,1.979,0,0,0-.277.035l-.036.006-.034.005-.1.009A2.247,2.247,0,0,0,19.666,9c-.05.01-.1.023-.144.034l-.016,0c-.072.019-.131.034-.193.045s-.112.015-.169.027l-.035.008c-.037.008-.074.017-.112.023l-.011,0c-.05.006-.1.012-.151.02l-.072.014-.014,0-.067.014c-.025.005-.05.008-.075.012l-.082.013-.07.015-.012,0-.015,0-.015,0-.053.012a.805.805,0,0,0-.1.027c-.019.006-.035.012-.052.016-.048.014-.1.023-.149.033-.093.017-.183.043-.264.066l-.06.017c-.094.026-.2.058-.3.094l-.112.038c-.069.021-.142.045-.212.074l-.025.01a3.237,3.237,0,0,0-.349.161l-.046.027c-.075.043-.159.091-.245.13l-.031.014-.03.013-.051.019c-.091.034-.2.077-.312.128l-.053.026-.039.013-.014,0-.008,0c-.084.027-.159.052-.235.079a6.221,6.221,0,0,0-.756.311c-.1.05-.192.1-.264.142s-.123.064-.184.094l-.014.007-.084.04a4.2,4.2,0,0,0-.513.322l-.034.023c-.09.063-.18.127-.269.192s-.152.11-.228.163l-.058.04c-.122.085-.274.191-.418.3l0,0,0,0-.018.013-.034.027.024-.014c-.106.078-.209.161-.313.252-.067.058-.133.121-.189.176l-.076.073c-.221.211-.4.387-.559.553-.2.212-.4.4-.6.58-.1.086-.189.184-.272.27l-.009.01,0,0-.082.086c-.062.064-.124.128-.185.194a6.794,6.794,0,0,0-.446.554l-.006.009-.005,0-.076.1c-.148.2-.287.4-.409.589l-.008.011c-.147.222-.269.42-.372.605-.043.076-.089.152-.134.226l-.007.011,0,0a4.575,4.575,0,0,0-.228.4c-.076.162-.132.29-.181.414l-.054.142c-.03.076-.06.151-.089.226l-.072.178a6,6,0,0,0-.217.583c-.031.1-.06.206-.089.31l-.011.037,0,.009-.005.019c-.04.14-.079.278-.12.411l-.015.048-.015.049c-.03.093-.063.2-.087.3-.021.089-.035.187-.044.252l-.005.032-.015.1a6.326,6.326,0,0,0-.087.89c-.009.274-.011.553-.012.823v.017q0,.629,0,1.256v.723c0,.119.007.249.021.407l.006.085c0,.044.007.087.011.131l.018.144v.009l.01.075c.026.211.049.384.072.543v.01c.033.248.071.528.124.8.031.157.057.3.08.423l.019.115.009.052c.016.092.031.183.048.274s.032.164.048.236l0,.015.036.173c.017.083.038.167.057.241l.005.019c.011.046.023.091.034.137.061.267.131.517.213.765.035.107.067.2.1.282.042.114.092.23.132.323l.005.012c.065.156.135.313.207.468L9,29.239l.012.025.015.032c.035.075.085.178.129.28.1.23.189.436.283.631.05.1.105.207.161.306s.116.184.17.263.094.136.141.2l.007.01c.064.091.142.2.212.311s.117.178.173.254.092.118.148.187l0,0c.028.033.055.066.082.1.057.076.113.154.168.232l.008.01.013.018.015.022c.064.088.13.179.2.267l.033.043c.043.056.088.114.134.166s.1.1.144.156c.088.094.176.186.268.279l.088.089c.057.059.122.125.185.186s.121.112.194.176l.109.1c.045.041.091.081.137.121l.011.01.019.018q.075.064.147.132c.1.1.207.186.3.262.118.1.25.2.391.3.059.042.119.082.179.121l.005,0,.021.014c.049.032.1.065.146.1l.027.018.005,0c.2.142.413.289.633.417.108.064.227.126.373.2.18.086.319.153.475.213.253.1.517.189.764.272s.519.155.782.222c.229.058.482.116.795.181l.058.012.019,0h.009l.01,0c.095.019.192.039.287.062l.118.029.04.01.038.009.035.009.028.007.116.028.063.015.01,0c.094.022.21.051.323.069.151.025.312.046.522.068.174.018.346.039.519.059l.013,0,.03,0,.264.031c.094.01.187.022.281.034h.009c.169.021.357.045.54.059.52.042,1.044.043,1.552.044h.2a5.192,5.192,0,0,0,.9-.087c.172-.03.352-.065.511-.1H23.8l.027-.006.072-.014.011,0,.184-.035c.125-.024.251-.051.4-.084.076-.018.158-.034.224-.046l.013,0,.029-.005.129-.025a7.015,7.015,0,0,0,.74-.184l.113-.035c.181-.056.407-.127.622-.2.108-.036.222-.082.3-.114l.069-.028c.132-.052.306-.121.474-.2.131-.057.249-.11.367-.169s.231-.122.324-.174l.046-.025a6.246,6.246,0,0,0,.7-.454c.106-.079.213-.159.319-.241l-.01,0c.248-.184.466-.346.707-.522.129-.094.28-.207.428-.328l.12-.1c.077-.065.136-.115.2-.162.251-.2.453-.366.637-.537.062-.059.123-.121.181-.182l.007-.007c.032-.033.062-.065.094-.1.072-.074.145-.152.2-.21l.082-.088a7.056,7.056,0,0,0,.568-.666c.146-.2.3-.412.481-.671.143-.205.285-.426.447-.7.151-.249.285-.511.415-.765l.038-.073.021-.041.006-.011c.04-.078.091-.175.137-.273.065-.141.131-.292.207-.477.1-.24.184-.5.25-.706l0-.008c.118-.37.251-.8.344-1.231.106-.494.183-.94.238-1.363v-.007c.04-.288.081-.585.1-.888.007-.132.02-.265.032-.393s.025-.254.032-.384c.016-.266.018-.525.02-.754A6.368,6.368,0,0,0,34.879,22.038Zm-7.433,3.577a1.722,1.722,0,0,1-.018.227c-.007.043-.015.086-.023.129s-.017.074-.025.11l0,.019a.67.67,0,0,0-.008.077v.082a1.085,1.085,0,0,1-.013.15l-.008.053c-.006.037-.012.074-.016.112s-.009.094-.01.156v.048q0,.044,0,.087a.9.9,0,0,1-.016.127l0,.033c-.005.028-.01.058-.013.087s0,.053-.007.08l0,.051c-.005.05-.011.1-.018.149,0,.03-.009.061-.012.092l-.01.081c-.007.055-.015.112-.02.168-.007.085-.015.169-.021.253s-.013.16-.026.243-.025.158-.032.248l0,.053c0,.025,0,.05,0,.075s-.009.066-.014.1l0,.02c-.011.074-.024.161-.033.249,0,.043,0,.086-.006.128s0,.067,0,.1-.008.077-.014.114l-.009.045c0,.024-.01.049-.014.073a1.115,1.115,0,0,0-.01.115v.018a.432.432,0,0,1,0,.062.1.1,0,0,1-.015.041l-.015.017a.087.087,0,0,1-.056.02h-.006a.066.066,0,0,1-.031-.009l-.011.013a.075.075,0,0,1-.047.021h-.027l-.043,0h-.018l-.026,0a.3.3,0,0,1-.042,0h-.133l-.026,0h-.006l-.022,0h-.03l-.034,0H26.38l-.024,0-.027,0h-.121l-.034,0-.031,0H26.1a.864.864,0,0,0-.088,0l-.061,0h-.135c-.019,0-.039,0-.064,0h-.007c-.021,0-.043,0-.064,0h-.059a.6.6,0,0,1-.074-.006c-.021,0-.044,0-.066,0h-.065c-.024,0-.049,0-.072,0h-.008a.647.647,0,0,0-.076,0h-.074c-.025,0-.052,0-.077,0s-.046,0-.069,0h-.007l-.06,0h0c-.022,0-.042,0-.062,0H24.9l-.077,0a.684.684,0,0,0-.079-.005h-.063l-.1,0-.06,0-.088,0h-.009l-.077.006-.025,0-.047,0h-.018a.87.87,0,0,1-.134-.014l-.012,0c-.033,0-.067,0-.1,0h-.023l-.082,0-.055,0-.1,0-.047,0h-.027l-.063,0-.043,0-.017,0a.686.686,0,0,1-.09.009h-.014l-.093-.008-.036,0c-.032,0-.065,0-.1,0h-.043l-.085-.005-.037,0c-.034,0-.072,0-.109,0h-.028l-.048,0-.079,0c-.08,0-.179,0-.274.01l-.041,0c-.044,0-.09.008-.136.01h-.16l-.109,0h-.4c-.043,0-.093,0-.145,0l-.047,0-.123,0H21.2l-.088-.006-.079,0-.032,0c-.034,0-.069,0-.1,0H20.86l-.062,0-.109.005h-.048l-.121,0c-.044,0-.093,0-.153,0h-.184c-.047,0-.1,0-.142,0l-.023,0-.094-.006H19.9a.49.49,0,0,0-.054,0h-.025c-.039,0-.08,0-.118,0h-.02c-.056,0-.108,0-.159,0h-.014c-.03,0-.059,0-.088,0s-.046,0-.07,0h-.048c-.047,0-.09,0-.131.005l-.03,0c-.018,0-.037,0-.057,0H18.67l-.116,0-.043,0c-.079,0-.158.006-.238.008l-.091,0-.09,0H18.07a.579.579,0,0,1-.061,0c-.053,0-.109,0-.169-.007l-.025,0c-.049,0-.1-.008-.148-.009h-.036a1.15,1.15,0,0,0-.131.007c-.113.012-.229.02-.352.022l-.108,0c-.061,0-.123,0-.185,0h-.073c-.046,0-.084,0-.12,0l-.091,0-.077,0h-.02c-.038,0-.075,0-.112.006l-.028,0-.023,0-.057,0H16.18c-.028,0-.055,0-.082,0h-.143a.7.7,0,0,0-.07,0l-.049.008-.044.007c-.042.005-.083.01-.123.013s-.071,0-.11,0h-.007a.67.67,0,0,0-.089,0l-.03,0-.016,0a.072.072,0,0,1-.021.012.087.087,0,0,1-.032.006.083.083,0,0,1-.034-.007.112.112,0,0,1-.052-.134l0-.017,0-.017,0-.028c0-.014-.007-.028-.01-.042-.007-.039-.011-.078-.014-.111s-.007-.069-.013-.107-.006-.052-.008-.077l0-.019v-.014a1.57,1.57,0,0,1-.008-.206c0-.032,0-.065.008-.1l.005-.038v-.039a.172.172,0,0,1,.008-.038.083.083,0,0,1,.047-.045.081.081,0,0,1,.031-.006h.012a.087.087,0,0,1,.053.029h0l.043,0,.084.005a.283.283,0,0,0,.041,0l.03-.005.021,0c.036-.007.072-.011.106-.015s.077-.009.109-.015h0l.048,0h.05a.6.6,0,0,0,.073,0l.044-.008.037-.012.047-.014.059-.012.03,0,.054-.02.014,0,.041-.014.028-.01.017-.006a.527.527,0,0,1,.056-.019c.024-.007.048-.012.073-.018h.005a.711.711,0,0,0,.1-.034h0l.029-.015.018-.012.024-.014a.2.2,0,0,1,.032-.017l.013-.006.02-.014.015-.011a.213.213,0,0,0,.034-.025l.019-.02.022-.024c.013-.014.027-.027.041-.04l.01-.01a.378.378,0,0,0,.039-.041.474.474,0,0,0,.03-.042.307.307,0,0,0,.02-.045l0-.02A.554.554,0,0,1,17,28.118l.007-.015a.365.365,0,0,0,.014-.035c.006-.015.011-.031.016-.047v-.005l.006-.023a.876.876,0,0,0,.024-.126c0-.044.009-.092.016-.14a2.568,2.568,0,0,0,.023-.276v-.058c0-.064,0-.131,0-.2l.005-.068c0-.031,0-.062.006-.093l0-.054,0-.068c0-.039,0-.079,0-.119s0-.073.009-.109v-.009l.009-.081c.006-.056.013-.114.016-.172l0-.057v-.057q0-.065,0-.126v.008c0-.11,0-.224,0-.336l0-.069,0-.1-.008-.159-.009-.132c-.005-.064-.01-.129-.012-.194s0-.115,0-.164v-.085q0-.035,0-.069v0c0-.058,0-.116.005-.176l0-.108c0-.061,0-.125,0-.188,0-.048.007-.09.011-.131s.007-.089.009-.127v-.062q0-.053,0-.105l0-.072c0-.026,0-.052,0-.077v-.033c0-.061,0-.119,0-.173,0-.073,0-.138,0-.2v.008c0-.077.005-.156.009-.231,0-.059.006-.118.007-.177,0-.121,0-.252-.013-.411a1.887,1.887,0,0,1,0-.2c0-.054,0-.111.007-.18v-.058c0-.056,0-.114,0-.171,0-.032,0-.065,0-.1s.005-.072.006-.108c0-.054,0-.11-.009-.163s-.008-.1-.009-.152,0-.1,0-.153l0-.053,0-.079v0c0-.048,0-.095,0-.143l0-.1v-.025l0-.141,0-.077V20.6c0-.062,0-.126,0-.189,0-.035,0-.073-.007-.11l0-.013a1.111,1.111,0,0,1-.011-.116c0-.037,0-.075,0-.113s0-.093,0-.139c-.005-.074,0-.149,0-.222v-.017c0-.038,0-.076,0-.113s0-.051,0-.076l0-.047c0-.046,0-.093-.007-.138a1.825,1.825,0,0,1-.012-.187c0-.017,0-.034,0-.051q0-.063,0-.126c0-.04,0-.08-.007-.119l0-.048v-.02c0-.021,0-.043-.005-.065l0-.044,0-.045c0-.021,0-.042,0-.063a.745.745,0,0,0-.008-.093l-.007-.04-.007-.047c0-.017,0-.034-.006-.052v-.017l-.007-.075-.007-.075,0-.032,0-.036,0-.039,0-.042c0-.027-.006-.053-.01-.081s0-.028,0-.042l0-.03a1.111,1.111,0,0,0-.022-.115l0-.01-.011-.032-.012-.039-.015-.055-.007-.024A.408.408,0,0,0,16.9,17.5l0-.009-.009-.021-.017-.039L16.85,17.4l-.01-.013a.339.339,0,0,0-.033-.042c-.026-.025-.054-.048-.082-.071l-.009-.007-.059-.047-.01-.008a.408.408,0,0,0-.033-.025l-.03-.014-.022-.008-.024-.009-.114-.048c-.042-.019-.084-.037-.127-.054l-.04-.017q-.034-.015-.069-.027a.536.536,0,0,0-.089-.016c-.021,0-.043,0-.065,0l-.029,0-.052,0-.046,0h-.019l-.057,0-.035-.006-.038-.006-.025,0a.222.222,0,0,1-.037,0,.794.794,0,0,1-.109-.029h0a.33.33,0,0,0-.063-.009l-.026,0-.03,0a.179.179,0,0,1-.075-.017.6.6,0,0,1-.053-.034.23.23,0,0,1-.067-.032l-.016-.012-.011-.009,0,0a.086.086,0,0,1-.014-.119.082.082,0,0,1,.049-.03.371.371,0,0,1-.035-.17v-.034c0-.014,0-.029,0-.043V16.39l0-.051v-.018a.866.866,0,0,1,0-.144.263.263,0,0,1,.03-.1l-.005-.012a.1.1,0,0,1,.037-.112.1.1,0,0,1,.063-.018.453.453,0,0,1,.053.005l.024,0h.016a.194.194,0,0,0,.034,0l.037-.005.027,0,.012,0a.329.329,0,0,1,.054,0h.07a1,1,0,0,0,.155-.014c.057-.011.109-.019.156-.025l.156-.015.024,0c.044,0,.09-.007.134-.007h.009a1.57,1.57,0,0,1,.181.011c.044.006.089.011.137.014s.107,0,.161,0h.022l.161,0h.046c.038,0,.077,0,.116,0s.055,0,.08,0l.1.009.088.008c.054,0,.1.005.147.005h.148l.145,0,.152,0c.06,0,.121-.006.179-.01L18.3,15.9l.06,0c.033,0,.066-.006.1-.006h.005c.043,0,.088,0,.136.005l.116,0h.022l.111,0h.171c.046,0,.091,0,.125,0h0l.061,0c.055,0,.109,0,.164.005l.128,0c.062,0,.124.007.185.012l.1.008h.006l.118.007.053,0,.054,0c.046,0,.1,0,.153,0l.122,0c.055,0,.11,0,.163-.006l.11,0c.066,0,.132,0,.181,0h.229c.078,0,.148,0,.218,0l.117.005.035,0,.067,0h.224c.051,0,.1,0,.153.007h-.006l.131.009.1,0h.015l.093,0h.046l.109,0H22.3l.075,0h.583l.07,0,.088,0H23.2l.076,0,.123,0c.055,0,.112,0,.168.006a.09.09,0,0,1,.075-.06c.038,0,.076-.006.112-.007l.039,0,.071-.005.072,0,.082,0c.061,0,.125-.008.188-.009h.04c.086,0,.176,0,.263-.008l.086-.005.091,0h.026l.142-.007c.025,0,.051,0,.081,0l.093,0h.048c.041,0,.083,0,.129,0s.1,0,.163,0,.092,0,.138-.005h.028l.135,0h.189l.062,0,.085,0h.172l.21,0h.192a.333.333,0,0,1,.07.007.316.316,0,0,1,.052.017l.022,0,.018,0a.083.083,0,0,1,.067.076l0,.006a.308.308,0,0,1,.009.121v.021c0,.037-.008.075-.013.111l0,.027c0,.027-.006.054-.009.081l0,.029v.018c0,.06-.009.123-.018.2,0,.031-.007.063-.013.094l0,.027c0,.028-.01.056-.014.085s-.009.083-.013.124l-.008.073c-.007.059-.013.118-.018.178s-.005.093-.006.138l0,.085v.008c0,.042,0,.086-.008.128l-.006.067,0,.044-.006.066c-.006.083-.013.164-.022.254,0,.052,0,.105,0,.157,0,.032,0,.065,0,.1s0,.081,0,.122,0,.084,0,.126c0,.078,0,.156,0,.236s.006.163.006.245c0,.044,0,.089,0,.133s0,.07,0,.105v.016c0,.069,0,.141-.006.211v0l-.006.071,0,.03v.036l0,.061,0,.054c0,.029-.005.057-.006.086s0,.061,0,.091a.086.086,0,0,1-.08.089h0a.088.088,0,0,1-.068-.033h-.1a.2.2,0,0,0-.042,0l-.036.006h-.054l-.038-.006-.02,0a.218.218,0,0,0-.044,0l-.085.015a.231.231,0,0,1-.037,0,.259.259,0,0,1-.048,0,.575.575,0,0,1-.1-.033l-.009,0h0l0,0a.117.117,0,0,1-.024-.009l-.026-.018-.006,0a.142.142,0,0,1-.039-.029.446.446,0,0,1-.033-.043.537.537,0,0,1-.052-.108,1.723,1.723,0,0,1-.062-.188c-.009-.035-.018-.07-.028-.105a.523.523,0,0,1-.012-.054l-.01-.043c-.009-.033-.02-.069-.034-.114s-.023-.081-.032-.115-.018-.08-.027-.121-.017-.082-.027-.122l-.016-.067-.013-.059c-.01-.041-.023-.081-.037-.125-.022-.071-.045-.141-.069-.212l0-.016-.02-.06-.013-.04,0-.008c-.011-.036-.025-.072-.04-.108l-.072-.15,0,0c-.014-.029-.029-.059-.045-.088a.95.95,0,0,0-.063-.093c-.019-.025-.037-.051-.055-.076s-.051-.071-.079-.105l-.033-.034-.013-.014-.025-.025-.03-.031a.4.4,0,0,0-.03-.028l-.017-.015c-.014-.012-.029-.026-.044-.037l-.013-.009-.035-.022-.023-.017-.005,0-.019-.012c-.012-.007-.024-.014-.035-.022l-.02-.014-.007-.005-.017-.009-.012-.005-.019-.011-.016-.008-.057-.026-.008,0-.021,0a.169.169,0,0,1-.044-.012l0,0H24.25l-.02,0-.021,0H24.2l-.053,0h-.016l-.052-.006-.041-.005h-.011c-.057-.005-.115-.011-.173-.012l-.106-.008c-.024,0-.047-.005-.071-.006-.051,0-.1-.005-.158-.005h-.042c-.053,0-.106,0-.157-.006l-.058,0-.043,0c-.056,0-.112-.006-.168-.007h-.1c-.029,0-.059,0-.088,0l-.024,0-.064,0h-.044l-.06,0-.06,0-.115,0-.135,0c-.057,0-.115-.008-.171-.014l-.068-.007c-.068-.006-.141-.011-.215-.012h-.048l-.127,0h-.093c-.026,0-.053,0-.08,0h.008l-.116,0c-.049,0-.1,0-.145,0h-.019c-.029,0-.058,0-.087,0h-.105l-.052,0-.1,0c-.041,0-.082,0-.122.008l-.037,0-.038,0c-.045,0-.092.008-.138.008h-.147l-.092,0-.079,0-.037,0-.078,0H20.1c-.022,0-.044,0-.065.009L20,17.1l-.075.009-.047,0-.033,0a.551.551,0,0,1-.071.008c-.031,0-.062,0-.093,0h-.022l-.05,0-.034,0-.068.008v.04l0,.019c0,.01,0,.021,0,.031s0,.046-.006.068,0,.037,0,.054,0,.034,0,.052l0,.038c0,.025,0,.049,0,.073s0,.055,0,.082v.083c0,.024,0,.047,0,.071l0,.044c0,.026,0,.053,0,.079s0,.081,0,.121c-.005.084-.01.166-.01.247v.065c0,.054,0,.107,0,.16v.038c0,.027,0,.055,0,.082s0,.056,0,.085l0,.03c0,.064,0,.129,0,.192v.035c0,.022,0,.044,0,.066v.081c0,.033,0,.065,0,.1l0,.076,0,.051c0,.03,0,.06,0,.09v.058c0,.03,0,.061,0,.092l-.009.1,0,.03c0,.03,0,.055,0,.081v.138c0,.037,0,.074,0,.11v.038c0,.039,0,.08,0,.12s0,.108-.008.161v-.009l0,.035,0,.025c0,.045,0,.084,0,.121s0,.054,0,.081v.035l0,.057c0,.02,0,.04,0,.06,0,.036,0,.073,0,.109s0,.07,0,.118v.026c0,.034,0,.069,0,.1s0,.079.009.123c0,.025,0,.05.007.075l0,.05.007.069c.006.05.011.1.014.152l0,.071c0,.055.007.111.007.167a1.073,1.073,0,0,0,.007.114,1.036,1.036,0,0,1,.007.125v.053c0,.021,0,.042,0,.063V22.2h.3l.073,0,.04,0,.071,0h.024c.028,0,.057,0,.086-.005l.022,0c.032,0,.065,0,.1,0h.148c.031,0,.058,0,.082,0s.054,0,.082,0h.029l.059,0,.06,0H20.8c.076,0,.153.006.23.011l.07,0h.5l.125,0h.034l.085,0,.04,0c.025,0,.05,0,.075,0,.088,0,.161-.007.23-.015l.054-.008.054-.008.04,0,.065-.007.033-.008.028-.006.023,0,.049-.01.035-.01.037-.01a.515.515,0,0,0,.076-.024A.436.436,0,0,0,22.773,22l.036-.028.044-.033c.029-.027.057-.055.084-.085l0,0,.016-.017c.019-.021.039-.042.057-.064a.483.483,0,0,0,.036-.067l.005-.015a.8.8,0,0,1,.027-.078c.01-.022.018-.045.027-.068l0-.01a.632.632,0,0,0,.022-.115.736.736,0,0,1,.012-.08l.01-.041c.006-.022.011-.044.015-.067a.208.208,0,0,1,.011-.054l.019-.053,0-.01a.873.873,0,0,0,.028-.1.667.667,0,0,0,.013-.088v-.041l0-.04a.436.436,0,0,1,.017-.1c.01-.033.018-.066.025-.1s.009-.041.014-.061c.009-.036.015-.064.019-.089l.008-.042.007-.041a.458.458,0,0,1,.027-.1l.011-.031.009-.024a.079.079,0,0,1,.014-.023l0,0,.016-.02a.191.191,0,0,1,.093-.063.307.307,0,0,1,.09-.01c.035,0,.069,0,.1.006h.008l.035,0,.019,0,.041,0,.04,0h.044a.68.68,0,0,0,.09-.006l.017,0a.29.29,0,0,1,.059-.009h.007a.49.49,0,0,1,.054,0l.01,0h.075a.1.1,0,0,1,.044.01.082.082,0,0,1,.043.05.085.085,0,0,1,.039.077,1.122,1.122,0,0,0,0,.116v0a.661.661,0,0,1,0,.089l0,.026c0,.02,0,.04,0,.061,0,.057,0,.12,0,.2l0,.051c0,.048.006.1.005.145v.021c0,.05,0,.1,0,.153s0,.087,0,.123,0,.065,0,.1V21.4c0,.037,0,.086,0,.134l0,.021c0,.017,0,.035,0,.052s0,.031,0,.047v.022l0,.039c0,.04.006.08.006.121s0,.056-.007.084l0,.045a2.043,2.043,0,0,0,0,.271v.013c0,.032,0,.069,0,.106s0,.07,0,.1c0,.071,0,.143,0,.215v.113l0,.056,0,.056c0,.066,0,.135,0,.2,0,.038,0,.076,0,.113v.056c0,.027,0,.055,0,.082v.033l0,.087.006.13c0,.047,0,.094,0,.139s0,.075,0,.113V23.9c0,.024,0,.049,0,.073V24c0,.032,0,.064,0,.1,0,.053,0,.1.006.139a.542.542,0,0,1,0,.057c0,.025,0,.051,0,.076a.75.75,0,0,1,0,.106l0,.065,0,.034,0,.016a1.369,1.369,0,0,0-.006.181c0,.018,0,.035,0,.052v.018l0,.031v.01c0,.026,0,.052,0,.077a.615.615,0,0,0-.006.074l0,.023v.011c0,.035,0,.079-.036.1l-.009,0,0,.015a.09.09,0,0,1-.026.064.072.072,0,0,1-.055.024H24.2a.5.5,0,0,0-.054.006c-.032.006-.063.012-.093.016a.736.736,0,0,1-.081.006h-.02l-.026,0-.049,0a.3.3,0,0,1-.043,0l-.03-.006a.54.54,0,0,0-.058-.01l-.077-.006-.024,0-.052-.006a.273.273,0,0,1-.069-.014l-.009,0a.3.3,0,0,1-.046-.019.277.277,0,0,1-.045-.031.364.364,0,0,1-.064-.06l0,0a.2.2,0,0,1-.029-.04c-.006-.012-.012-.024-.017-.037l-.024-.045-.016-.027-.015-.028-.006-.01a.326.326,0,0,1-.031-.062.382.382,0,0,1-.011-.057v0c0-.019-.007-.038-.009-.056v-.014l0-.018,0-.018q-.008-.03-.012-.06l0-.026,0-.025-.007-.033-.008-.04a.386.386,0,0,0-.02-.074c-.008-.017-.016-.035-.023-.053s-.008-.025-.012-.037l0-.013-.009-.028c-.009-.029-.019-.06-.027-.09a.6.6,0,0,0-.026-.071c-.007-.017-.015-.034-.021-.052l-.009-.025L23,24.067a.365.365,0,0,1-.013-.055h0v0h0V24l0-.016-.006-.023-.015-.027-.018-.032-.006-.014-.027-.052-.013-.026-.022-.043a.288.288,0,0,0-.034-.056.316.316,0,0,0-.042-.04c-.041-.027-.083-.051-.119-.071a.908.908,0,0,0-.115-.05l-.034-.01-.034-.01-.023-.007-.05-.016-.022,0a1.329,1.329,0,0,0-.142-.032l-.092-.013c-.026,0-.052-.007-.077-.012h-.011l-.024,0c-.045-.007-.091-.015-.136-.019l-.113-.006-.1,0c-.05,0-.1-.009-.15-.014l-.077-.008c-.026,0-.055,0-.086,0s-.083,0-.122,0l-.065,0h-.042l-.092-.008-.02,0-.071-.005-.062,0c-.044,0-.091-.006-.138-.006h-.134c-.044,0-.091,0-.148-.011s-.1,0-.153,0-.117,0-.172,0l-.106,0c-.085,0-.168,0-.246-.01h-.04c-.042,0-.083,0-.124.006l-.027,0-.039,0-.039,0H19.54l-.009.047a.631.631,0,0,0-.01.076.883.883,0,0,0,0,.09c0,.022,0,.044,0,.065v.029c0,.02,0,.04,0,.059s0,.03,0,.045c0,.038,0,.077,0,.118s0,.084,0,.122v.294c0,.024,0,.047,0,.07,0,.04,0,.081,0,.121,0,.077,0,.167,0,.258v.032c0,.032,0,.063,0,.095v.027c0,.032,0,.064,0,.1l0,.041c0,.03,0,.059,0,.089v.045c0,.025,0,.05,0,.075s0,.065,0,.1c0,.05.005.1,0,.152v.12q0,.064-.009.129c-.008.078-.008.158-.009.235v.141l0,.07v.057c0,.08,0,.164,0,.249v.011c0,.038,0,.074,0,.112s0,.074,0,.111l0,.046.006.074.006.082,0,.04,0,.042c.005.052.009.107.01.16v.059c0,.041,0,.083,0,.125s0,.053.007.083a.608.608,0,0,0,.011.087l.007.031c0,.02.009.041.012.061s0,.054.006.08v.021a1.135,1.135,0,0,0,.016.117c0,.025.008.05.011.075a.843.843,0,0,0,.02.1l0,.019c0,.021.01.042.016.062a.5.5,0,0,0,.046.093l.026.042.029.046a.716.716,0,0,0,.09.108.42.42,0,0,0,.2.09l.04.008.028.008.011,0,.033.01h.017l.072.011h.039a.6.6,0,0,1,.105.016h.006l.022,0c.038,0,.082,0,.125,0,.024,0,.046,0,.067,0h.018c.024,0,.049,0,.073,0h.012l.079,0,.072-.008.043,0c.039,0,.081-.007.131-.009h.013l.237-.014.126,0,.049,0c.023,0,.047,0,.071,0h.247l.066,0h.325l.092,0c.048,0,.091,0,.131,0h.045l.083,0,.083,0,.164,0h.023c.038,0,.077,0,.114,0h.016l.03,0,.066,0,.088,0,.078,0,.109-.007c.039,0,.079,0,.119,0l.091,0,.028,0,.092,0,.09,0h.252c.053,0,.109-.01.176-.02s.115-.013.189-.017c.056,0,.113-.013.168-.021l.044-.007.059-.01.06-.009c.03-.005.061-.011.091-.019s.043-.018.063-.027l.028-.013.022-.009a.51.51,0,0,0,.078-.038c.025-.016.052-.032.079-.047l.025-.013c.015-.008.03-.015.045-.024a1.119,1.119,0,0,0,.148-.126.933.933,0,0,1,.081-.074.6.6,0,0,0,.064-.059l.049-.055a1.877,1.877,0,0,0,.127-.17c.02-.029.04-.057.059-.086a.873.873,0,0,0,.055-.093l0-.01.018-.037c.013-.028.023-.053.032-.076s.012-.034.019-.051l.018-.047c.007-.019.013-.039.02-.059l.01-.032c.014-.04.026-.08.036-.121a.565.565,0,0,1,.024-.08l.015-.042a1.545,1.545,0,0,1,.055-.148l.01-.026.009-.023.008-.022.007-.015.009-.025a.492.492,0,0,1,.041-.087l.009-.019.012-.024,0,0,.007-.019.01-.024.023-.045,0-.009.008-.019.019-.038a.26.26,0,0,0,.013-.036l.012-.03.008-.02.011-.03a.7.7,0,0,0,.024-.069.154.154,0,0,1,.009-.037.3.3,0,0,1,.018-.041l.011-.023.017-.039a.466.466,0,0,0,.026-.071v-.007A.276.276,0,0,1,26.258,26a.444.444,0,0,1,.024-.049l.008-.017.021-.043.013-.022.01-.018c.012-.025.023-.05.037-.073l.017-.027.015-.025,0-.005.008-.021a.183.183,0,0,1,.023-.038l.006-.006.006-.007.011-.013a.289.289,0,0,1,.029-.032.264.264,0,0,1,.047-.033l.038-.02.011,0,.033-.019.013-.008a.443.443,0,0,1,.1-.039l.018,0a.408.408,0,0,1,.078-.021l.056-.007.025,0a.857.857,0,0,1,.1-.007h.09l.041,0h.035a.482.482,0,0,1,.065,0h.013l.027,0h.027a.41.41,0,0,1,.07.012.079.079,0,0,1,.049.044.075.075,0,0,1,.008.044.091.091,0,0,1,.014.051Z"/>
        <polygon class="b" points="22.985 24.016 22.984 24.013 22.984 24.016 22.985 24.016"/>
        <polygon class="b" points="24.336 22.242 24.336 22.231 24.335 22.223 24.336 22.242"/>
      </g>
    </g>
  </g>
</svg>
