<?xml version="1.0" encoding="utf-8"?>
<!-- Generator: Adobe Illustrator 24.2.0, SVG Export Plug-In . SVG Version: 6.00 Build 0)  -->
<svg version="1.1" id="Layer_1" xmlns:v="https://vecta.io/nano"
	 xmlns="http://www.w3.org/2000/svg" xmlns:xlink="http://www.w3.org/1999/xlink" x="0px" y="0px" viewBox="0 0 335 307.6"
	 style="enable-background:new 0 0 335 307.6;" xml:space="preserve">
<style type="text/css">
	.st0{fill:#48578F;}
	.st1{fill:#C7CCDD;}
	.st2{opacity:0.63;fill:#48578E;enable-background:new    ;}
	.st3{fill:#2F335C;}
</style>
<g>
	<path class="st0" d="M146.8,2.2h-17.6l-8.4,0.1L114,2.5h-2.3l-2.5,0.1l-5.1,0.3c-1.7,0-3.4,0-5.1-0.1c-1.5,0-2.9-0.1-4.4-0.1h-1.4
		c-0.5,0-1,0-1.6-0.1h-1.3l-2.4,0l-2.7,0.2h-5l-4.7-0.2l-2-0.1h-0.8L65.6,3c-2.4,0.1-4.5-0.1-6.8-0.1l-8,0.1h-1.7l-2.1,0l-4.5,0.4
		L29,3.7H16.6l-3.4,0.1c-1.7,0.6-3.4,1.4-4.9,2.4C7.4,6.9,6.7,7.8,6.1,8.9L5.6,9.6l-1.1,1.8L4.3,12c-0.1,0.1-0.2,0.2-0.2,0.2
		c-0.5,0.6-0.8,1.3-1,2.1C3,14.5,3,14.8,3,15c0,0.4-0.1,0.8-0.1,1.2l-0.1,0.3l-0.1,0.6c-0.3,1.1-0.4,2.3-0.3,3.5
		c0,0.6,0.1,1.2,0.2,1.9l0,0.2v1.5l-0.1,3.1c0,0.4,0,0.7-0.1,1l-0.2,2.4c-0.1,0.8-0.2,1.4-0.3,2.1l-0.3,3.1l-0.3,3l-0.2,1.7L1,46.4
		l0.1,3.2l0.1,1.7c0,1.5,0,2.9-0.2,4.4c0,0.9-0.1,1.8-0.3,2.7L0.4,62l-0.1,2.9l-0.1,2.4c-0.1,1.8,0,3.7,0.1,5.5
		c0.1,1.9,0.1,3.8,0,5.7L0,86.9l0.2,3.7c0,0.6,0.1,1.2,0.2,1.8l0.2,2.4l0.3,10.6l0.1,3.5v0.4l0.1,4l0.1,3.7v8.8L2,141.9l0.1,4.3
		l0.1,2.9c0,0.4,0.1,0.9,0.1,1.3l0.2,5.3c0,0.8,0,1.6,0.1,2.4v7.8c0,2.5,0.2,5.1,0.5,8.3c0.2,2,0.2,4,0.2,6v2.2l0.3,8.5
		c0.2,3,0.2,6.1,0.2,9.1l0.1,7.5l0.1,2.2c0.2,2,0.2,3.9,0.2,5.9l-0.2,4.9l-0.1,3.5v8.9l-0.1,8.1l0,1.3l-0.2,6.6v8.2l-0.1,3.3
		L3.3,265v7.6l-0.1,3.6c-0.1,1.2-0.1,2.4-0.1,3.5c0,0.8,0.1,1.7,0.1,2.5l0.1,1.2v1.2c0,0.8,0,1.6,0.2,2.4c0.2,1.1,0.6,2.3,1,3.4
		c0.3,0.9,0.8,1.8,1.2,2.7c0.2,0.3,0.4,0.6,0.6,0.9l0.5,0.8c0.2,0.4,0.4,0.7,0.7,1c0.4,0.5,0.8,0.9,1.3,1.2l0,0l0.8,0.5
		c0.1,0.1,0.2,0.1,0.3,0.2c0.3,0.5,0.7,0.8,1.2,1.1c0.9,0.5,1.8,0.9,2.8,1.1c0.3,0.1,0.6,0.1,1,0.2h0.2l0.9,0.2l0.8,0.2l0.9,0.1
		l0.9,0.1l0.3,0h4.5l3.4,0.1L28,301l2.3-0.1h1.5c1-0.1,2.1-0.1,3.1,0c1.2,0.1,2.5,0,3.7,0h5.1c0.5,0,0.9,0.1,1.4,0.1l3.3,0.3
		c0.6,0.1,1.2,0.1,1.9,0.1h2.2c0.8,0,1.6,0,2.4,0.1l2.4,0.1l5.2,0.1c1.5,0.1,2.9,0.1,4.4,0.1h0.4l5.1-0.5l5.1-0.1l2.6,0l2.5,0.2
		c1.5,0.1,3.1,0.1,4.6,0l1.5-0.1c3.6-0.2,7.2-0.1,10.8-0.1c1,0,2,0,3,0s1.8,0.1,2.6,0.1c1.7,0.1,3.4,0.2,5.1,0.2h5.3l5.6,0.2
		c3.3,0.2,6.7,0.3,10,0.4c1.5,0,2.9,0,4.4,0.1s2.9,0,4.3,0l1.8-0.1h-0.2c1.9-0.1,3.7-0.1,5.6-0.1s3.4,0.1,5.2,0s3.6,0,5.3,0h5.8
		l10,0.2c1.6,0,3.3,0,4.9-0.1c1.6-0.1,3.1-0.1,4.7,0l5.1,0.2h3.4c-0.5-1.2-0.8-2.4-1.1-3.7c-0.1-0.9-0.3-1.8-0.3-2.7v-0.3
		c0-0.3,0-0.6-0.1-0.9c-0.1-0.8-0.3-1.6-0.5-2.3c-0.3-0.8-0.5-1.6-0.5-2.5c0-0.4,0-0.8-0.1-1.2s0-0.8-0.1-1.2c0-0.7-0.1-1.4-0.2-2
		v-0.2l-0.1-0.5c-0.1-1-0.2-2.1-0.3-3.2l-0.2-2.1c-0.1-0.7-0.1-1.4-0.2-2.1V277c-0.1-0.7-0.1-1.5-0.2-2.2l-0.1-0.6v-0.2
		c-0.2-1-0.3-2.1-0.4-3.1c-0.1-0.5-0.1-1.1-0.1-1.6V269c0-0.5-0.1-1-0.1-1.6c-0.2-1.9-0.4-3.8-0.6-5.6l-0.1-1.5v-0.1
		c-0.1-1.3-0.3-2.7-0.3-4.1c0-0.5,0-1-0.1-1.5s0-0.9-0.1-1.3c0-1.1-0.1-2-0.2-2.9l-0.2-2l-0.1-0.5l-0.3-3.7
		c-0.1-1.1-0.2-2.1-0.3-3.2c-0.1-0.8-0.1-1.7-0.2-2.5l-0.1-1.2c0-0.6-0.1-1.2-0.1-1.9c0-0.4-0.1-0.9-0.1-1.3l-0.1-1.2
		c0-0.7-0.1-1.3-0.1-2c-0.1-0.9-0.2-1.8-0.3-2.7l-0.1-0.6c-0.1-0.9-0.2-1.7-0.2-2.6l-0.1-0.9c0-0.5-0.1-1-0.1-1.5v-0.7l-0.1-1.1
		c0-0.7-0.1-1.4-0.1-2.1v-1.2l-0.4-6.8l-0.4-3.7l-0.1-0.5l-0.3-2.5c-0.2-2.3-0.4-4.6-0.5-6.8c-0.1-1.7-0.3-3.4-0.4-5l-0.1-1.4
		c-0.3-3.1-0.5-6.3-0.7-9.4v-0.2l-0.2-4.1l-0.1-1.5l-0.1-1.1c-1,0.2-1.9,0.3-2.9,0.4c-1,0-2,0-3,0.1h-0.6c-0.8,0.1-1.5,0.1-2.3,0.2
		H170c-0.3,0-0.6-0.1-0.9-0.1c-1.2,0-2.6-0.1-4.2-0.3c-0.7-0.1-1.4-0.1-2.1-0.1s-1.2,0-1.8-0.1c-0.9-0.1-1.8-0.2-2.5-0.3h-0.2
		l-0.8-0.1c-1-0.1-2.1-0.2-3-0.2h-1c-0.6,0-1.1-0.1-1.6-0.1h-2.7c-0.4,0-0.8,0-1.4-0.1h-1.3c-0.4,0-0.9,0-1.3,0.1
		c-1.3,0.1-2.8,0.3-4.4,0.3c-1.3,0-2.4-1.1-2.4-2.4c0-0.7,0.3-1.4,0.9-1.9c-0.1-3.2-0.2-5.7-0.5-8l-0.2-1.6v-0.4
		c-0.2-1.5-0.4-3.1-0.6-4.7c-0.1-0.8-0.1-1.5-0.1-2.3v-1.5c0-1.2-0.1-2.4-0.1-3.7c0-0.9,0-1.8-0.1-2.7v-2.7c0-0.8-0.1-1.6-0.1-2.4
		v-8l0.3-7.9c0.1-2.4,0.3-5,0.5-7v-0.4l0.1-1.6l0.1-1.6v-0.1c0.3-4,0.6-8.2,1.1-12.4v-0.5c0.2-1.4,0.4-2.8,0.6-4.2l0.1-0.4l0.2-1.4
		c0.3-2.1,0.7-4.2,1-6.2l0.4-2.1v-0.2c0.6-3.3,1.2-7,2.1-10.5l0.3-1.2c0.2-0.9,0.5-1.8,0.6-2.7l0.8-4c0.4-1.8,0.8-3.7,1.2-5.7
		l0.5-2.2l1.7-7.6l0.4-1.7l0.1-0.3l1.2-5.5c0.5-2.4,1.1-4.9,1.9-7.2c0.5-1.7,1-3.5,1.5-5.4l0.4-1.6c0.6-1.9,1.2-3.8,2-5.6l0.5-1.2
		c0.9-2.4,2.1-4.8,3.1-7l0.3-0.6l0.1-0.4c0.2-0.5,0.3-0.9,0.5-1.4c0.3-0.7,0.5-1.5,0.7-2.2c0.2-0.9,0.5-1.8,0.8-2.6
		c0.1-0.2,0.1-0.4,0.2-0.6l0.1-0.2V8.1c0.1-0.3,0.2-0.7,0.3-1c0.1-0.4,0.3-0.7,0.4-1.1l0.2-0.4c0.1-0.3,0.2-0.6,0.4-0.8
		c0.2-0.4,0.5-0.7,0.7-1l0.1-0.2c0.1-0.1,0.1-0.2,0.2-0.3c0.2-0.2,0.3-0.4,0.5-0.6c0.2-0.2,0.5-0.4,0.7-0.6h-1.1c-1.4,0-2.7,0-4,0.1
		c-0.1,0-0.2,0-0.3,0c-0.1,0-0.3,0-0.4,0c-0.4,0-0.8,0.1-1.2,0.1c-0.2,0-0.5,0-0.7-0.1h-2.1c-0.8,0.1-1.6,0.1-2.4-0.1
		c-0.8,0-1.7,0-2.5-0.1C150.3,2,148.6,2.2,146.8,2.2L146.8,2.2z"/>
	<path class="st0" d="M87,301.5L87,301.5z M322,299.4l-0.1,0.1l-0.3,0.2l-0.6,0.5l-0.5,0.4c-0.7,0.6-1.4,1.2-2.2,1.7l-0.8,0.4
		l0.3-0.1c1.1-0.3,2.1-0.9,3-1.6c0.4-0.4,0.7-0.8,1-1.3L322,299.4L322,299.4z"/>
</g>
<g>
	<path class="st1" d="M264,0.2c-1.2,0.1-2.4,0.1-3.6,0c-1,0-2,0.2-3,0.3l-3.6,0.3L250,1.1h-3.9l-5.2,0.1h0.3c-2.2,0-4.3-0.1-6.5-0.1
		h-3.8l-2.3-0.2l-4.1-0.2c-1.5,0-3.1,0.2-4.6,0.3L217.3,1h-2.4l-5.4,0.3c-1.8,0.1-3.7,0.2-5.5,0.1c-1.5,0-3,0.1-4.5,0.2l-5,0.3h-3.1
		c-0.8,0-1.5-0.1-2.3-0.1c-1.5,0-2.9-0.1-4.4-0.1c-1.1,0-2.1,0.1-3.1,0.2c-1.2,0.1-2.4,0.1-3.5,0.1h0.6h-3.6l-5.1,0.2l-3.1-0.1
		c-0.3,0.2-0.5,0.4-0.7,0.6c-0.2,0.2-0.4,0.4-0.5,0.6c-0.1,0.1-0.1,0.2-0.2,0.3l-0.1,0.2c-0.3,0.3-0.5,0.6-0.7,1
		c-0.1,0.3-0.3,0.5-0.4,0.8L164,6l-0.4,1.1l-0.3,1v0.2l-0.1,0.2L163,9.2l-0.8,2.6c-0.2,0.8-0.4,1.5-0.7,2.2l-0.5,1.4l-0.1,0.4
		l-0.3,0.6l-3.1,7l-0.5,1.3c-0.8,1.8-1.4,3.7-2,5.6l-0.4,1.6l-1.5,5.4c-0.7,2.4-1.3,4.8-1.8,7.2L150,50l-0.1,0.3l-0.4,1.8l-2.2,9.8
		l-1.2,5.7l-0.8,4l-0.6,2.7l-0.3,1.2c-0.9,3.5-1.5,7.2-2.1,10.5v0.2l-0.4,2.1c-0.4,2.1-0.7,4.2-1,6.2l-0.2,1.4l-0.1,0.4l-0.6,4.2
		v0.5c-0.5,4.1-0.9,8.3-1.1,12.4v0.1l-0.1,1.6l-0.1,1.6v0.4l-0.5,7l-0.3,7.9c-0.1,1.9,0,3.8,0,5.6v2.5c0,0.8,0,1.6,0.1,2.4
		c0,0.6,0,1.2,0.1,1.7v1c0,0.9,0,1.8,0.1,2.7c0,1.2,0.1,2.4,0.1,3.7v1.5c0,0.8,0,1.6,0.1,2.3c0.1,1.6,0.4,3.2,0.6,4.7v0.4l0.2,1.6
		c0.2,2.3,0.4,4.9,0.5,8c-0.5,0.5-0.9,1.2-0.9,1.9c0,1.3,1.1,2.4,2.4,2.4c1.6,0,3.1-0.1,4.4-0.3c0.4,0,0.8-0.1,1.3-0.1h1.3
		c0.5,0,0.9,0.1,1.4,0.1h2.7c0.5,0,1.1,0,1.6,0.1h1c0.9,0,2,0.1,3,0.2l0.8,0.1h0.2c0.8,0.1,1.7,0.3,2.5,0.3c0.6,0.1,1.2,0.1,1.8,0.1
		c0.6,0,1.4,0,2.1,0.1c1.6,0.2,3,0.3,4.2,0.3c0.3,0,0.6,0,0.9,0.1h1.2c0.8,0,1.5-0.1,2.3-0.2h-0.1h0.6c1-0.1,1.9-0.1,3-0.1
		c0.9,0,1.7-0.1,2.6-0.2v1.1l0.1,1.5l0.2,4.1v0.2l0.7,9.4l0.1,1.4l0.4,5l0.5,6.8l0.2,2.5l0.1,0.5l0.4,3.7c0.2,2.1,0.3,4.3,0.4,6.8
		v1.3c0,0.7,0.1,1.4,0.1,2.1l0.1,1.1l0.1,0.7c0,0.5,0.1,1,0.1,1.5l0.1,0.9l0.2,2.6l0.1,0.6l0.3,2.7l0.1,2l0.1,1.2
		c0,0.4,0.1,0.9,0.1,1.3c0,0.6,0.1,1.2,0.1,1.9l0.1,1.2c0,0.8,0.1,1.7,0.2,2.5c0.1,1.1,0.2,2.1,0.3,3.2l0.3,3.7l0.1,0.5l0.2,2
		c0.1,0.8,0.1,1.7,0.2,2.9c0,0.4,0.1,0.9,0.1,1.3s0.1,1,0.1,1.5c0.1,1.4,0.2,2.8,0.3,4.1v0.1l0.1,1.5l0.6,5.6
		c0.1,0.5,0.1,1.1,0.1,1.6v0.2c0,0.5,0.1,1.1,0.1,1.6c0.1,1,0.2,2.1,0.4,3.1v0.2l0.1,0.6l0.2,2.2v0.3l0.2,2.1l0.2,2.1l0.3,3.2
		c0,0.2,0,0.3,0.1,0.5v0.2c0.1,0.7,0.1,1.4,0.2,2l0.1,1.2c0,0.4,0,0.9,0.1,1.2c0.1,0.9,0.2,1.7,0.5,2.5c0.2,0.8,0.4,1.5,0.5,2.3
		c0,0.3,0.1,0.6,0.1,0.9v0.3c0.1,2.2,0.6,4.3,1.4,6.3h1.6l4.5-0.1l4.4-0.1c1.4,0,3.2-0.1,4.8,0s3.1,0,4.7,0h9.7
		c1.6,0,3.1-0.1,4.6-0.1c1.8,0,3.5,0.1,5.2,0.1c3.1,0.1,6.3,0,9.4,0h4.7c1.4,0,2.8,0.1,4.2,0.1c3.4,0,6.9,0.2,10.4,0.1
		c1.5-0.1,3.1-0.1,4.6,0l4.9,0.2l5.1,0.1c1.7,0,3.4,0.1,5,0.1s3.3,0,5,0c1.4,0,2.8-0.1,4.2-0.1c1.5,0,3.1,0.1,4.6,0.2l4.8,0.2
		c1.8,0.1,3.5,0.2,5.3,0.4l4.7,0.3c1.6,0.1,3.1,0.3,4.7,0.2h1.4l0.3-0.1c1.4-0.4,2.7-1,3.9-1.7c0.8-0.5,1.5-1,2.2-1.7
		c0.2-0.1,0.3-0.3,0.5-0.4c0.2-0.2,0.4-0.3,0.6-0.5c0.1-0.1,0.2-0.2,0.3-0.3l0.1-0.1c0.2-0.1,0.4-0.3,0.6-0.5
		c0.2-0.2,0.4-0.4,0.5-0.6l0.5-0.5c0.8-0.7,1.4-1.6,1.9-2.5l0.2-0.5c0.2-0.4,0.4-0.8,0.6-1.1c0.5-0.9,1-1.9,1.3-2.9
		c0.1-0.3,0.2-0.7,0.3-1l0.3-1c0.1-0.3,0.2-0.5,0.3-0.8c0.2-0.5,0.4-1.1,0.5-1.6s0.3-1.3,0.5-2l0.1-0.4c0-0.9,0-1.8,0.1-2.7
		c0-1.1,0.3-2.2,0.4-3.4v-0.7c0-0.2-0.1-0.6-0.1-0.9s0-0.8-0.1-1.1v-0.7c0-0.3,0-0.6-0.1-1s-0.1-0.9-0.1-1.4c0-0.5,0-1,0.1-1.5v-3
		c0-1.3-0.1-2.6-0.2-3.8v-0.1c-0.2-1.8-0.2-3.6-0.1-5.5l0,0c0-0.7-0.1-1.5-0.1-2.2v0.6c0-0.8,0-1.7,0-2.5s0.1-1.4,0.1-2.1v-2.2
		c0-0.7,0.1-1.5,0.1-2.2v0.6c0-1.1,0-2.2,0.1-3.4c0.1-0.9,0.2-1.7,0.3-2.6c0.2-1.8,0.2-3.7,0.2-5.5v-2.4l0-3.6
		c0-0.9,0.1-1.8,0.1-2.6c0-1.5,0-3,0.1-4.4v0.4V218c0-1.4-0.1-2.8-0.1-4.2l0.1-4.2c0-1.4,0.1-2.9,0.3-4.3c0.2-1.3,0.4-2.5,0.5-3.8
		l0.3-3.7c0.1-1.2,0.1-2.8,0.1-4.2l0.2-8.7c0-1.5-0.1-3.1,0-4.6l0.3-3.7c0.3-3.1,0.3-6.2,0.6-9.3l0.4-4.6c0.1-1.7,0.1-3.4,0.2-5.1
		s0.2-3.2,0.3-4.9l0.4-4.7c0.2-3.2,0.3-6.4,0.4-9.6c0.1-1.6,0.2-3.1,0.3-4.7l0.2-4.7c0-1.3-0.1-2.7-0.2-4c-0.1-1.6-0.2-3.1-0.2-4.7
		v-7.1c0.1-2,0.4-3.9,0.4-5.9c0-1.3-0.2-2.6-0.3-3.8c-0.1-1.5-0.1-3-0.1-4.4v-0.3c0-0.6,0-1.2,0-1.8l0-5.6v-1.2c0-1.3-0.1-2.6-0.1-4
		s-0.2-2.5-0.4-3.8s-0.3-2.4-0.4-3.7s-0.1-2.6-0.1-3.8s0.1-2.4,0.1-3.7s0.1-2.5,0.2-3.8c0.2-2.4,0.4-4.9,0.4-7.3c0-1.7,0-3.4,0-5.1
		c0-1.4,0.1-2.8,0.1-4.2c0-0.9-0.1-1.7-0.2-2.6l0,0l-0.1-0.2c-0.1-0.3-0.2-0.6-0.2-1c0-0.3,0-0.6,0-0.9c0-0.2,0-0.3,0.1-0.4
		c-0.1-0.7-0.1-1.4-0.1-2.1c0-1.5,0-3-0.1-4.5c-0.1-1.2-0.2-2.3-0.3-3.5c-0.1-1.4-0.1-2.7-0.1-4.1c0-0.6-0.1-1.3-0.1-1.9
		c-0.1-0.4-0.2-0.8-0.3-1.3c-0.1-0.3-0.2-0.5-0.3-0.8s0-0.5,0-0.8v-2.4c0-0.9-0.1-1.7-0.3-2.5c-0.2-0.8-0.4-1.6-0.6-2.6
		c-0.2-0.9-0.5-1.8-0.9-2.6c-0.1-0.4-0.3-0.8-0.5-1.2v0.1l-0.1-0.2c-0.1-0.3-0.2-0.6-0.4-0.9s-0.2-0.5-0.4-0.7l-0.2-0.3l-0.2-0.3
		c-0.1-0.2-0.2-0.3-0.3-0.5c-0.2-0.3-0.4-0.6-0.7-1l-0.4-0.6l-0.1-0.2c-0.2-0.4-0.5-0.7-0.7-1.1l-0.1-0.1l-0.1-0.1
		c-0.2-0.3-0.4-0.6-0.5-0.9c-0.4-0.7-0.9-1.3-1.4-1.9l-0.3-0.4c-0.6-0.7-1.2-1.3-2-1.9c-0.3-0.3-0.6-0.5-1-0.8
		c-0.5-0.1-0.9-0.1-1.3-0.2s-1-0.3-1.5-0.5c-0.8-0.2-1.6-0.4-2.5-0.6c-0.6-0.1-1.2-0.2-1.8-0.2c-0.4,0-0.8,0-1.2-0.1l-1-0.1
		l-2.4-0.3c-0.9-0.1-1.8-0.3-2.7-0.5l0.2,0.1c-0.8-0.2-1.6-0.3-2.3-0.4c-0.2,0.1-0.8-0.1-1.4-0.1h-0.7l-1.4,0.2
		c-1.1,0.1-2.2,0.1-3.2,0.1h-0.6c-0.8,0-1.7,0-2.5,0.1s-1.7,0.2-2.5,0.2h-2.9c-1,0-1.8,0-2.6-0.1l-2.7-0.2c-0.9-0.1-1.8-0.1-2.6-0.1
		c-1.1,0-2.2-0.1-3.3-0.2L277,0.3h-1.6c-1.5,0.1-3,0.3-4.5,0.2c-1.2,0-2.4-0.3-3.6-0.4s-2.3,0.1-3.5,0.2L264,0.2z M334.5,119.8
		L334.5,119.8z M334.5,119.9L334.5,119.9z M329.6,252.7v-0.5V252.7z"/>
	<path class="st1" d="M233.5,1L233.5,1z M223.9,307.1l-2.2,0h0.1l2.1,0.3c0.7,0.1,1.3,0.1,2,0.1h0.4c0.8,0,1.5-0.1,2.3-0.2
		c0.2,0,0.4-0.1,0.7-0.2h0.1H225L223.9,307.1z M169.9,2.2l-4.2-0.1c-1.4,0-2.7,0-4,0.1c-0.4,0.6-0.6,1.3-0.7,2.1
		c-0.1,0.4-0.2,0.7-0.2,1.1c-0.1,0.4-0.1,0.8-0.1,1.2c-0.2,1-0.5,1.9-0.7,2.8c-0.3,1.2-0.8,2.3-1.2,3.5l0.2-0.6l-1.1,2.9
		c-0.4,1.1-0.8,2.3-1.1,3.4l-1.9,6.2c-0.5,2.1-1.2,4-1.8,5.9l-0.8,2.7l-0.8,3.2l-2.1,7.7l0.2-0.5l-1.1,3.2c-0.4,1.1-0.5,2.1-0.8,3.2
		l-0.7,2.9l-0.6,3l-1.5,5.8l-0.8,2.9l-0.8,3.4c-1.1,4.1-1.8,8.3-2.8,12.5c-0.2,1-0.4,2-0.6,3.1s-0.3,2.1-0.5,3.1c-0.4,2-0.7,4-1.2,6
		c-0.4,1.6-0.7,3.3-0.9,4.9c-0.3,1.9-0.6,3.7-0.8,5.6c0-0.2,0-0.4,0.1-0.6c0,0.5-0.1,0.9-0.1,1.4v-0.2c0-0.1,0,0.1,0,0.2l-0.3,3.4
		l-0.2,2.8c-0.1,0.9-0.2,1.9-0.4,2.9c-0.2,1.2-0.2,2.4-0.3,3.7c-0.1,2-0.3,4-0.3,6v6.3c-0.1,2.1-0.4,4.3-0.4,6.5v3.1
		c0,1.1,0,2.2,0.1,3.3l0.5,6.1c0.1,2,0.2,3.8,0.2,5.7c0,1,0.1,2.1,0.1,3.1s0,2.1,0.1,3.1s0,1.8,0.1,2.7c0,0.7,0.1,1.4,0.2,2.2
		s0.1,1.3,0.2,2c0,0.4,0,0.8,0.1,1.1l0.2,1.5c0,0.2,0.1,0.4,0.1,0.6c0.1,0.4,0.3,0.8,0.4,1.2c0.2,0.3,0.4,0.6,0.6,0.8
		c0.1,0.2,0.2,0.5,0.4,0.7c0.3,0.4,0.7,0.8,1.1,1.1c0.4,0.2,0.8,0.3,1.2,0.3c0.2,0,0.4,0.1,0.6,0.1c0.3,0,0.5-0.1,0.8-0.1
		c0.4-0.1,0.7-0.3,1-0.6h0.1l0.3-0.1c0.4-0.1,0.8-0.3,1.1-0.5c0.7-0.4,1.4-0.8,2.1-1.2c0.7-0.5,0.9-1.4,0.5-2.1
		c-0.5-0.7-1.4-0.9-2.1-0.5l-1.9,1h-0.2c-0.2,0-0.4,0-0.6,0h-0.2l-0.1-0.1c0-0.1-0.1-0.1-0.2-0.2c-0.1-0.2-0.3-0.4-0.4-0.6v-0.1
		c0-0.2-0.1-0.5-0.1-0.7l0,0v-0.2c-0.1-0.6-0.1-1.1-0.2-1.7s-0.1-1.2-0.1-1.9V157c0-1-0.1-2.1-0.1-3.1c-0.1-1.9-0.2-3.8-0.3-5.7
		c-0.1-1.2-0.2-2.4-0.4-3.6s-0.2-2.5-0.3-3.8s0-2.7,0-4.1c0-1.1,0-2.3,0.1-3.4v-0.4c0.2-1.7,0.3-3.4,0.4-5.1c0.1-1.5,0.2-3,0.2-4.6
		v-4.2c0-1.4,0.2-2.9,0.3-4.3c0.2-1.6,0.4-3.2,0.5-4.9l0.3-4.5c0,0.2,0,0.4-0.1,0.6c0.1-1.2,0.2-2.4,0.3-3.6v-0.4
		c0.2-2.2,0.6-4.3,0.9-6.4s0.7-4.1,1-6.1s0.6-4,1-6c0.2-1,0.5-2,0.6-3.1s0.4-2.2,0.6-3.3l0.6-3.1l0.7-3l0.8-3.2l0.7-3.1l1.6-6
		c0.2-1,0.4-1.9,0.6-2.9s0.5-2,0.8-2.9c0.5-1.8,0.9-3.6,1.5-5.3s1.2-3.5,1.7-5.2s1.1-3.7,1.7-5.5L157,34c0.3-0.9,0.6-1.7,0.9-2.6
		c-0.1,0.2-0.1,0.4-0.2,0.6c0.4-1.2,0.9-2.5,1.2-3.7c0.4-1.1,0.6-2.2,1-3.3c0.7-2.3,1.3-4.7,2.1-7V18l1.3-3.7l-0.2,0.6
		c0.6-1.5,1.1-2.9,1.6-4.4c0.2-0.6,0.4-1.1,0.6-1.7s0.2-1,0.4-1.4l0.3-0.9c0.1-0.2,0.1-0.4,0.2-0.5c0.1-0.2,0.1-0.3,0.2-0.4
		c0.2-0.1,0.4-0.3,0.6-0.4h0.4l0.5-0.1c0.3,0,0.6-0.1,1-0.2c0.4-0.1,0.7-0.2,1-0.4l0.6-0.1c0.5-0.1,1.1-0.2,1.6-0.3
		c0.4-0.2,0.9-0.3,1.4-0.4c0.2,0,0.4,0,0.5,0c0.4,0,0.8,0,1.2-0.1h0.2l1-0.2l0.9-0.2c0.4-0.1,0.7-0.3,1-0.6c0.1-0.1,0.2-0.2,0.2-0.3
		l0,0c-1.2,0-2.4,0-3.6,0c-1.7,0-3.4,0.3-5.1,0.2L169.9,2.2z"/>
</g>
<g>
	<path class="st2" d="M162.3,1.5L162.3,1.5z M162.4,1.5L162.4,1.5z M163.4,2h-1.2c-0.3,0.1-0.6,0.1-0.8,0.1c-0.2,0-0.3,0-0.5,0
		c-0.4,0-0.8,0.1-1.2,0.1c-0.4,0-0.7-0.1-1.1-0.1l-0.1,0.3c-0.3,0.8-0.6,1.6-0.8,2.4l-0.5,2.3c-0.6,1.5-1.1,3.1-1.4,4.7
		c-0.3,1.1-0.6,2.2-0.9,3.3c-0.2,0.5-0.3,1-0.4,1.5l-0.5,1.9l-0.7,3l-0.8,3.5c-0.2,1.2-0.6,2.4-0.9,3.6l-0.9,3.1l-1.5,3.6l-1.6,4.5
		l-2.6,7.9l-1.5,4.2l-1.2,3.9l-0.9,4l-0.3,1.7c-0.1,0.7-0.3,1.5-0.6,2.2c-0.4,1.2-0.8,2.5-1.1,3.7c-0.2,0.7-0.2,1.3-0.3,2l-0.4,2
		l-1.4,8.4l-1.6,7.8l-0.5,3.6l-0.6,4.2l-0.5,3.8l-0.4,4l0.1-0.6l-0.9,7.8c-0.2,2.6-0.9,5.2-1.3,7.8l-0.5,3.7
		c-0.2,1.6-0.2,3.2-0.2,4.9l-0.1,4.2v2.1l0.2,2.3c0.1,1.4,0.1,2.8,0.1,4.2v2.3l0.1,2.3c0.1,1.1,0.1,2.2,0,3.2v3.6l-0.2,3.4
		c0,1.1,0.1,2.6,0.2,3.9c0.1,1.3,0.3,2.7,0.6,4l0.7,3.1l0.8,3.8l0.8,3.1l0.2,1.4c0.1,0.6,0.4,1.2,0.6,1.7l0.6,1.1
		c0.2,0.4,0.5,0.8,0.8,1.1l0.6,0.7c0.2,0.2,0.5,0.4,0.8,0.5c0.2,0.1,0.5,0.2,0.7,0.2h0.4c0.4,0.1,0.8,0.2,1.2,0.2
		c0.2,0,0.5,0,0.7-0.1l1,0.2l1.1,0.2c0.6,0.1,1.1,0.2,1.7,0.1l1.2-0.2h-0.2h0.5c0.3,0,0.6,0.1,0.9,0.1c0.3,0,0.7,0,1-0.1l0.6-0.1
		l0.4-0.2c0.4,0,0.8,0,1.3,0l0.9-0.1h0.3l0.6,0.1c0.4,0.1,0.8,0.2,1.2,0.3s0.7,0.1,1,0.2c0.7,0.1,1.5,0.1,2.2-0.1
		c0.5-0.1,1-0.1,1.5-0.1c0.2,0,0.5,0,0.7,0c0.2,0,0.4,0,0.6-0.1c0.1,0,0.3,0.1,0.4,0.1c0.5,0.1,1,0.2,1.4,0.2c0.4,0,0.7,0,1.1,0h2.8
		c0.8-0.1,1.6-0.3,2.4-0.5c0.5,0,1,0,1.5-0.1c0.5,0,0.9-0.1,1.4-0.3l0.5-0.2h0.7l0.9-0.1l0.9,0.2c0.5,0.1,0.9,0.1,1.4,0.1
		c0.3,0,0.5,0,0.8-0.1h1.4c0,0.5,0.1,1,0.2,1.4l-0.1-0.5c0.1,0.9,0.2,1.7,0.2,2.6c0.1,1.3,0.1,2.5,0,3.8c-0.1,1.3,0,2.6,0,3.9
		l-0.1,4.5c-0.1,1.4,0,2.8,0.1,4.1l0.3,4.1l0.2,4l0.1,4.2l0.1,3.7c0,0.7,0.1,1.3,0.1,2l0.1,2.1l0.4,4.7l0.4,4.6l0.3,4.1l0.5,4.1
		l0.4,3.9c0.1,1.1,0.2,2.3,0.3,3.4v1.5c0,0.7,0.1,1.3,0.3,2l0.6,3c0.2,1.3,0.3,2.6,0.3,3.9c0,1.2,0.1,2.4,0.3,3.6
		c0.1,0.6,0.2,1.2,0.2,1.8c0.1,0.8,0.1,1.7,0,2.5c-0.1,1.4,0,2.8,0.2,4.1c0.1,0.7,0.2,1.5,0.2,2.2v2.3l0.4,4.5l1.2,8.4l0.7,4.9
		c0,0,0,0,0-0.1c0,0.1,0.1,0.3,0.1,0.4l0,0l0.4,2.1c0.2,1.8,0.5,3.6,1,5.4l0.8,2.2c0.3,0.7,0.8,1.6,1.1,2.4l0.7,1.7
		c0.2,0.6,0.8,1,1.4,0.9c0.6-0.2,1-0.8,0.9-1.4c0-0.1,0-0.1,0-0.2l-0.8-2c-0.2-0.5-0.4-1-0.5-1.5l-0.4-4.8l-0.2-2.7l-0.4-3l-0.3-2.9
		l-0.4-2.9l-1-6.6l0.1,0.5l-0.6-5.4c-0.1-0.9-0.1-1.8-0.1-2.7c-0.1-1-0.2-2-0.4-3c-0.2-1.3-0.2-2.7-0.2-4c0-0.8,0-1.5-0.1-2.2
		l-0.2-1.8c-0.3-2.6,0-5.2-0.4-7.7l-0.5-4.1l-0.1-3.6l-0.3-3.5l-0.2-4.5l-0.2-3.5l-0.3-4.7l-0.4-4.6l-0.2-2.3l-0.1-2.1l-0.2-4
		l-0.1-3.9l-0.2-4.1c0-0.6-0.1-1.2-0.1-1.8l-0.2-2.2l-0.2-4.2l-0.1-4.3l-0.1-4.2l-0.2-3.8c0-0.6-0.1-1.1-0.2-1.7l-0.1-1.4l-0.1-2.4
		c-0.1-1-0.4-2-0.9-2.9c-0.4-0.6-1-1.2-1.6-1.5c-0.7-0.3-1.4-0.4-2.1-0.4h-1.1c-0.4,0-0.8,0.1-1.3,0.1l-0.8-0.1
		c-0.6-0.1-1.2-0.1-1.8-0.1c-0.3,0-0.7,0-1,0c-0.4,0-0.7,0-1.1,0.1c-0.8,0.1-1.6,0.1-2.4,0.2c-0.8,0.1-1.6,0.3-2.4,0.5l-2.1,0.1
		l-1.8,0.1c-0.6-0.1-1.2-0.2-1.8-0.2l-0.5,0.1c-0.2,0-0.5,0-0.7,0c-0.8,0-1.6,0.1-2.4,0.3l0,0l-0.4-0.1c-0.2-0.1-0.5-0.1-0.7-0.1
		c-0.2,0-0.4-0.1-0.6-0.1c-0.4-0.1-0.7-0.1-1.1-0.1c-0.4,0-0.7-0.1-1.1-0.1c-0.4,0-0.9,0.1-1.3,0.2h-0.4c-0.5-0.1-1-0.1-1.5-0.1
		c-0.4,0.1-0.8,0.1-1.2,0.3h-0.2c-0.5-0.1-1-0.1-1.5-0.1c-0.3,0-0.6,0-0.9,0h-0.2c-0.3-0.1-0.6-0.2-0.9-0.2H143
		c-0.4-0.1-0.8-0.1-1.1-0.2c-0.7-0.2-1.4-0.2-2.1,0l-0.1-0.1c-0.2-0.3-0.4-0.7-0.6-1c-0.1-0.3-0.2-0.6-0.2-0.9
		c0-0.3-0.1-0.6-0.1-0.9c0,0.1,0,0.2,0,0.2c0-0.1,0-0.2-0.1-0.3s0,0.1,0,0.1s0-0.1,0-0.1l0,0V171l-1.3-5.9c0-0.2-0.1-0.4-0.1-0.6
		l0,0l-0.4-2.1l-0.5-2.5l-0.5-3.9c-0.1-1.3-0.2-2.6-0.1-3.9v-1.7l-0.1-1.9v-3.3l-0.1-4.2l0.1-4.4v-4.2l0.1-4.4l0.2-4l0.3-3.7
		c0-0.4,0.1-0.8,0.1-1.2l0.9-5.8l0.2-1.9l1.1-7.3l0.6-4.1l0.8-4.3l1.2-7.7l1.5-7.8l1.4-8.5l0.3-1.8c0.1-0.8,0.3-1.6,0.4-2.3l0.9-3.6
		l0.7-4l1-4l1-3.8l1.4-4.4l1-4c0.3-1.3,0.8-2.6,1.2-4l1.3-4.1l1.4-4l1.2-4.4l1.1-4.4l0.9-3.8l0.6-2.2l0.6-2.1l0.9-3.1l0.7-2.1
		c0.1-0.3,0.3-0.6,0.4-0.9c0.2-0.5,0.4-1,0.6-1.5l0.5-1.6c0.2-0.6,0.4-0.8,0.6-1.2c0.3-0.6,0.6-1.3,0.8-2l0.4-0.9l-0.6,0.1L163.4,2z
		 M138.7,171.1L138.7,171.1z M147,174.7L147,174.7z M146.6,174.7h-0.2H146.6z M176.9,178.9L176.9,178.9L176.9,178.9z M140.9,179.3
		L140.9,179.3z M145.9,179.7L145.9,179.7z"/>
	<path class="st2" d="M137.3,164.6L137.3,164.6z M132.5,165.5L132.5,165.5z M138.6,171v-0.1V171z M185,288.4L185,288.4
		C185,288.4,185,288.4,185,288.4z M185.1,288.8L185.1,288.8z"/>
	<path class="st2" d="M185.1,288.8L185.1,288.8L185.1,288.8z"/>
	<path class="st2" d="M185.1,288.8L185.1,288.8z"/>
</g>
<g>
	<path class="st3" d="M94.2,74.5c-0.7,0-1.4,0.1-2.1,0.2c-0.5,0.2-1,0.4-1.5,0.6c-0.3,0.1-0.6,0.2-0.9,0.3c-0.4,0.2-0.8,0.4-1.1,0.7
		c-0.6,0.5-1.2,1.1-1.5,1.8l-0.2,0.5c-0.5,0.4-0.8,0.9-0.8,1.6v1c-0.1,0.6-0.2,1.2-0.3,1.8v0.1c-0.2,0.5-0.3,0.9-0.3,1.4L85,87.2
		c-0.1,0.6,0,1.2,0,1.9c-0.1,0.5-0.1,1-0.1,1.5c0,0.8,0.1,1.5,0.1,2.3c0-0.3,0-0.5-0.1-0.8c0,0.7,0.1,1.4,0.2,2.1v-0.5
		c0,0.4,0.1,0.8,0.1,1.1v0.7c0,0.4,0,0.9,0.1,1.3c0,0.3,0,0.6,0,0.9c0,0.5,0,1.1,0.1,1.6v1.1c0,0.5,0.1,1.1,0.1,1.6l0.1,2.7
		c0-0.1,0-0.2,0-0.3v0.5c0,0.4,0.1,0.9,0.2,1.3l0.4,1.5l0.6,1.9c0.1,0.4,0.3,0.7,0.6,1.1l-0.1-0.1c0.2,0.3,0.3,0.6,0.5,0.9
		c0.3,0.4,0.5,0.8,0.8,1.1c0.6,0.6,1.2,1.1,2,1.4l-0.2-0.1c0.5,0.3,1.1,0.5,1.6,0.7c0.5,0.1,1.1,0.2,1.6,0.2c0.5,0,1,0,1.5-0.2
		c0.2,0,0.4-0.1,0.7-0.1c0.2,0,0.4,0,0.6-0.1c0.3-0.1,0.7-0.2,1-0.3c0.5-0.2,0.9-0.4,1.3-0.7c0.9-0.5,1.6-1.2,2.2-2.1
		c0.8-1.5,1.3-3.1,1.5-4.8c0.1-0.6,0.1-1.2,0.2-1.8l0.1-1.8l0.1-1.9c0-0.4,0.1-0.7,0.1-1.1s0-0.8,0-1.2l0.2-3.2l0.1-1.9
		c0-0.7,0-1.4-0.1-2.2c0,0.2,0,0.5,0.1,0.7c-0.1-0.7-0.1-1.4,0-2.1c0-0.7-0.1-1.3-0.1-2v-1.7c0-0.8-0.1-1.6-0.1-2.3v-0.5
		c-0.1-1.4-0.3-2.8-0.7-4.1c-0.1-0.5-0.3-1-0.6-1.4l-1-1.3l-0.5-0.6c-0.5-0.5-1-0.8-1.7-1.1L98.3,75c-0.3-0.2-0.7-0.3-1-0.4
		c-0.4-0.1-0.9-0.2-1.3-0.2h-0.2l-1.4,0.1L94.2,74.5z M85.4,84.8v0.1V84.8z M233.9,73.9c-0.6,0.3-1.2,0.6-1.7,1
		c-0.5,0.3-1,0.6-1.4,1c-0.4,0.4-0.8,0.8-1.2,1.3c-0.5,0.7-0.9,1.6-1.2,2.4c-0.2,0.6-0.3,1.2-0.5,1.8c-0.1,0.8-0.2,1.7-0.3,2.5
		c0,0.8,0,1.5,0.1,2.3c0.1,1.8,0.4,3.6,0.6,5.4l0.3,3.6l0.2,1.5c0.1,0.5,0.1,1,0.1,1.5l0.1,2.8c0,1,0,2,0.1,2.9l0.2,2.6
		c0.1,0.9,0.4,1.7,0.8,2.6c0.4,0.8,0.9,1.6,1.5,2.2c0.6,0.7,1.3,1.2,2.2,1.6l0,0c0.7,0.4,1.4,0.6,2.2,0.8l1.3,0.2c0.4,0,0.9,0,1.3,0
		c0.7-0.1,1.4-0.3,2-0.6c1.5-0.7,2.8-1.8,3.6-3.2c0.4-0.8,0.8-1.6,1.1-2.4c0.4-1.6,0.7-3.2,0.7-4.8c0-0.5,0.1-1,0.2-1.5
		c0,0.2-0.1,0.5-0.1,0.7l0.4-2.3v0.3c0-0.1,0-0.2,0-0.2v-0.5l0.4-2.1c0.1-0.7,0.1-1.5,0.2-2.3c0.1-1.5,0.1-3-0.1-4.5l0,0l-0.3-3.4
		c-0.1-1.1-0.4-2-0.6-3l-0.6-3l-0.7-2.8c-0.3-1.2-0.8-2.2-1.6-3.1c-0.8-0.9-1.8-1.5-3-1.7c-0.9-0.2-1.9-0.3-2.8-0.4
		c-0.2,0-0.3,0-0.5,0C235.9,73.2,234.9,73.4,233.9,73.9L233.9,73.9z M246.6,99.7v0.3c0-0.2,0-0.3,0.1-0.5L246.6,99.7L246.6,99.7z"/>
	<path class="st3" d="M83.6,75.2c-0.2,0.1-0.4,0.3-0.5,0.6c-0.1,0.2,0,0.5,0.1,0.7c0.2,0.3,0.4,0.6,0.7,0.9l0.6,0.6
		c0.4,0.4,0.7,0.9,1,1.3l0.6,0.7l0.5,0.6c0.4,0.5,0.9,0.9,1.4,1.3c0.3,0.3,0.7,0.3,1.1,0.1c0.3-0.3,0.3-0.7,0-1.1l-1.2-1.2
		c-0.4-0.4-0.7-0.9-1-1.3S86.3,77.5,86,77l-0.6-0.9c-0.2-0.3-0.4-0.5-0.6-0.8c-0.2-0.2-0.4-0.3-0.7-0.3
		C83.9,75.1,83.8,75.1,83.6,75.2L83.6,75.2z M88.7,71.1c-0.2,0.1-0.4,0.3-0.5,0.6c-0.1,0.2,0,0.5,0.1,0.7l1.4,3.2l0.8,1.5
		c0.3,0.5,0.7,1.1,1,1.6c0.1,0.2,0.3,0.3,0.5,0.4c0.2,0.1,0.4,0.1,0.6,0c0.4-0.2,0.5-0.7,0.3-1.1c0,0,0,0,0,0L92,76.6
		c-0.2-0.4-0.4-0.9-0.6-1.3l-1-2.7L90,71.5c-0.1-0.3-0.5-0.5-0.8-0.5C89,71,88.8,71.1,88.7,71.1L88.7,71.1z M96.2,69.1
		c-0.3,0.2-0.4,0.4-0.5,0.7c0,0.6-0.2,1.1-0.2,1.7l-0.2,1.9l-0.2,1.8c-0.1,0.6-0.2,1.3-0.3,1.9c0,0.2,0.1,0.4,0.2,0.5
		c0.1,0.1,0.3,0.2,0.5,0.2c0.2,0,0.4-0.1,0.5-0.2c0.1-0.1,0.2-0.3,0.2-0.5l0.3-2.2l0.3-2.1l0.3-1.4l0.4-1.4c0.1-0.2,0-0.4-0.1-0.7
		c-0.1-0.2-0.3-0.4-0.5-0.4c-0.1,0-0.2,0-0.3,0C96.4,69,96.3,69.1,96.2,69.1L96.2,69.1z M102.8,72.7c-0.2,0.1-0.3,0.2-0.4,0.3
		c-0.1,0.1-0.2,0.3-0.3,0.4l-0.2,0.3c-0.1,0.2-0.2,0.3-0.3,0.5l-1.5,1.7c-0.6,0.7-1.1,1.4-1.6,2.1c-0.3,0.5-0.1,1.1,0.3,1.4
		c0.5,0.3,1.1,0.1,1.3-0.3l1.1-1.5c0.4-0.5,0.8-0.9,1.3-1.4c0.3-0.3,0.6-0.6,0.8-0.9c0.2-0.3,0.4-0.6,0.6-0.9l0,0
		c0.4-0.4,0.5-1,0.1-1.4c-0.2-0.2-0.5-0.4-0.8-0.3C103,72.6,102.9,72.7,102.8,72.7L102.8,72.7z M105.4,77.8c-0.5,0.2-1,0.4-1.4,0.7
		c-0.4,0.3-0.8,0.5-1.2,0.7l-1.8,0.5c-0.4,0.1-0.7,0.5-0.7,1c0.1,0.5,0.5,0.7,1,0.7c0.9-0.2,1.7-0.4,2.6-0.7
		c0.4-0.1,0.7-0.3,1.1-0.5l1.1-0.6c0.4-0.2,0.6-0.6,0.5-1c-0.1-0.4-0.5-0.7-0.9-0.7C105.5,77.7,105.5,77.7,105.4,77.8L105.4,77.8z
		 M227.4,72.7c-0.3,0.1-0.5,0.4-0.6,0.7c-0.1,0.3-0.1,0.6,0.1,0.9c0.1,0.3,0.3,0.6,0.5,0.8l0.5,0.6c0.3,0.4,0.6,0.7,0.9,1l2.3,2.1
		c0.2,0.2,0.5,0.3,0.8,0.3c0.6,0,1.1-0.4,1.1-1c0-0.3-0.1-0.6-0.3-0.8c-1.2-1-2.2-2-3.1-3.2l-0.8-1.1c-0.2-0.3-0.5-0.4-0.8-0.4
		C227.8,72.6,227.6,72.6,227.4,72.7L227.4,72.7z M232.4,68.1c-0.5,0.1-0.8,0.5-0.8,1c0,0.6,0.2,1.3,0.4,1.8l0.5,1.7l0.6,1.9
		c0.2,0.6,0.5,1.2,0.8,1.8c0.3,0.5,0.9,0.7,1.5,0.4c0.5-0.3,0.7-0.9,0.4-1.4c-0.2-0.4-0.4-0.8-0.6-1.2l-0.4-1l-0.6-2.1l-0.3-1
		c-0.1-0.5-0.2-0.9-0.4-1.3c-0.2-0.4-0.5-0.6-0.9-0.6L232.4,68.1L232.4,68.1z M238.3,67.7c-0.2,0.6-0.3,1.2-0.3,1.8
		c0,0.5-0.1,1-0.1,1.6l-0.2,3.3c0,0.6,0.4,1.1,1,1.1c0.6,0,1.1-0.4,1.1-1c0,0,0,0,0,0l0.2-3.2l0.1-1.6c0-0.2,0-0.5,0.1-0.7
		c0-0.3,0-0.6,0-0.9c0-0.5-0.4-1-1-1C238.8,67,238.4,67.3,238.3,67.7L238.3,67.7z M244.8,72.2c-0.2,0.3-0.4,0.7-0.5,1
		c-0.1,0.3-0.3,0.5-0.5,0.7c-0.2,0.3-0.5,0.5-0.8,0.8c-0.3,0.3-0.7,0.5-1,0.8l0.2-0.1L241,76c-0.2,0.1-0.3,0.3-0.4,0.4
		c-0.1,0.2,0,0.4,0.1,0.6c0.2,0.4,0.6,0.5,1,0.3c0.9-0.6,1.8-1.2,2.6-1.9c0.8-0.7,1.4-1.5,2-2.3c0.3-0.4,0.2-1-0.2-1.2
		c-0.2-0.1-0.3-0.2-0.5-0.2C245.2,71.7,244.9,71.9,244.8,72.2L244.8,72.2z M248.1,76c-0.3,0.1-0.6,0.3-0.9,0.4l-1,0.5
		c-0.7,0.4-1.3,0.8-1.9,1.2c-0.3,0.1-0.5,0.4-0.6,0.7c-0.1,0.3-0.1,0.6,0.1,0.8c0.1,0.3,0.4,0.5,0.7,0.6c0.3,0.1,0.6,0.1,0.8-0.1
		l1.9-1.2c0.3-0.2,0.7-0.3,1-0.5c0.4-0.2,0.8-0.4,1.1-0.7c0.3-0.3,0.4-0.8,0.2-1.3c-0.2-0.4-0.5-0.6-0.9-0.6
		C248.4,75.9,248.3,75.9,248.1,76L248.1,76z M71.9,187.4c-0.4,0-0.7,0.1-1.1,0.1c-1.1,0.1-2.2,0.5-3.1,1.1l-0.7,0.6
		c-0.5,0.4-0.9,0.8-1.3,1.3c-0.3,0.5-0.6,0.9-0.9,1.4c-0.3,0.6-0.5,1.2-0.7,1.9c-0.1,0.5-0.2,1.1-0.2,1.7c-0.1,0.7-0.1,1.3,0,2
		c0.1,0.8,0.3,1.6,0.6,2.4l0.5,1.4c0.4,1,0.9,1.9,1.4,2.8l2.1,3.3c0.7,1,1.4,2,2.1,3c1.8,2,3.8,3.9,6,5.6l3,2.6c1,1,2.1,1.8,3.2,2.7
		c1.4,1,2.9,1.8,4.4,2.6l3.6,2l3.7,1.9l3.4,1.9l3.8,1.5l3.9,1.6l8,2.9c0.9,0.3,1.9,0.6,2.8,0.8l1.9,0.3l3.9,0.8l3.8,0.7
		c1.1,0.2,2.2,0.5,3.3,0.8c1,0.3,2,0.6,3.1,0.8c1,0.2,2.1,0.3,3.1,0.4l2.6,0.3c1.4,0.2,2.9,0.2,4.4,0.3l-1.1-0.1l1.4,0.1l8.4,1
		c3.2,0.4,6.4,0.6,9.6,0.5l4.9-0.3l4.3-0.2l4.7-0.5c1.4-0.1,2.9-0.1,4.3-0.1h1.6l4.2-0.1c2.5-0.3,5-0.7,7.4-1.3l5.8-1.5l5.5-1.2
		l8.2-1.8l7.1-1.9l6.6-2.5l3.7-1.5l3.5-1.8l3.5-1.6l2.7-1.4l1.9-1.2l3.8-2.2l4.1-2.8c1.1-0.7,2.1-1.5,3.2-2.3l3.8-3
		c2.6-2,5-4.2,7.3-6.6c0.5-0.7,1-1.3,1.5-2.1c0.9-1.1,1.6-2.3,2.3-3.6c0.5-1.1,0.9-2.3,1-3.6c0-0.4,0.1-0.8,0.1-1.2
		c0.3-2.4-0.5-4.9-2.3-6.6c-1.3-1.1-3.1-1.7-4.8-1.5H260c-0.7,0-1.5,0.2-2.1,0.5c-2,0.7-3.8,1.7-5.6,2.8c-1.2,1-2.4,2-3.4,3.1
		l-1.2,1.3c-0.5,0.7-1,1.4-1.5,2.1l-0.9,1.5l-0.9,0.7c-0.6,0.4-1.1,0.9-1.6,1.4l-3.7,3l-4.5,3.4l-7.1,4.9c-0.8,0.5-1.7,1-2.6,1.5
		l0.4-0.2l-3,1.6c-1.6,0.8-3.2,1.4-4.8,2l-5.6,2.1c-1.7,0.6-3.5,1.1-5.2,1.6l-3.1,0.8l-3.2,0.9l-3.8,0.7l-4.6,0.5l-9.3,1.3l-9.2,1.1
		c-1.5,0.1-3.1,0.1-4.6,0.1l-4.3,0.1c-1.2,0-2.5-0.1-3.7-0.1h-3.8l-7.5-0.6c-2.5-0.3-5.1-0.9-7.7-1.3c-1.3-0.2-2.6-0.5-3.8-0.9
		l-11.6-2.8l-4.8-1.9l-2.8-1l-2.9-1.2l-5.3-2.6l-2.6-1.6c-0.9-0.6-1.5-0.9-2.2-1.3l-3.4-2.3l0.9,0.6l-1.7-1.1
		c-1.4-0.9-2.8-1.9-4.1-2.9l-1.8-1.5l-1.6-1.5l-1.4-1.4c-0.4-0.5-1.2-1.1-1.9-1.6c-0.5-0.4-1-0.9-1.5-1.4l-1.4-1.3l-1.1-1.2
		l-0.9-0.9c-0.3-0.4-0.6-0.7-1-1.1l-1.1-0.9l-2.2-2c-1-0.8-2.1-1.6-3.2-2.3c-1-0.5-2-0.9-3.1-1.2c-1-0.3-2-0.4-3-0.4L71.9,187.4z
		 M101,208.6l0.3,0.2L101,208.6z"/>
</g>
</svg>
