<svg xmlns="http://www.w3.org/2000/svg" viewBox="0 0 334.95 307.62" xmlns:v="https://vecta.io/nano"><g fill="#707da7"><path d="M146.83 2.2h-17.6l-8.4.12-6.84.15h-2.3l-2.47.12-5.1.27c-1.7.05-3.36 0-5.05-.1-1.47 0-2.95-.07-4.42-.1h-1.38c-.52 0-1 0-1.56-.07h-1.34L88 2.63l-2.7.23h-5l-4.67-.15-2-.1h-.85l-7.16.35c-2.4.06-4.52-.07-6.78-.1l-8.05.08h-1.72L47 2.9l-4.52.36-13.45.4H16.6l-3.43.1a20.37 20.37 0 0 0-4.87 2.43 9.18 9.18 0 0 0-2.2 2.68l-.5.77-1.08 1.8-.24.55a1.84 1.84 0 0 0-.23.25 5.18 5.18 0 0 0-1 2.08A6.16 6.16 0 0 0 3 15c0 .42-.07.84-.08 1.25l-.06.3-.14.6a11.68 11.68 0 0 0-.34 3.47 10.91 10.91 0 0 0 .24 1.85l.05.22v1.5l-.12 3.1c0 .4 0 .7-.08 1l-.2 2.43c-.06.8-.2 1.4-.28 2.1l-.27 3.1-.32 3-.2 1.72L1 46.4l.1 3.23.07 1.66A39.12 39.12 0 0 1 1 55.66c0 .9-.15 1.83-.26 2.74L.38 62 .3 64.86.24 67.3c-.1 1.82 0 3.67.07 5.46a57 57 0 0 1 0 5.7l-.34 8.46.16 3.66c0 .6.1 1.18.17 1.78l.2 2.4.3 10.62.1 3.5v.4l.08 4 .12 3.7v8.85l.85 16.12.08 4.28.12 2.9c0 .43.06.86.08 1.3l.18 5.3q0 1.2.06 2.4v7.8c0 2.52.17 5.15.5 8.3a55.23 55.23 0 0 1 .17 6v2.23l.35 8.54c.2 3 .2 6.1.16 9.1l.07 7.53.12 2.25a54.84 54.84 0 0 1 .18 5.89l-.16 4.87-.1 3.53v8.87l-.1 8.1-.05 1.33-.17 6.6v8.2l-.07 3.27-.07 4.5v7.6l-.1 3.6c-.1 1.18-.1 2.35-.1 3.52 0 .84.07 1.68.14 2.5l.1 1.25v1.24a16.13 16.13 0 0 0 .16 2.4 17 17 0 0 0 1 3.35 23 23 0 0 0 1.22 2.73 10.09 10.09 0 0 0 .61.94l.53.8a6.35 6.35 0 0 0 .68 1 6 6 0 0 0 1.26 1.2h0l.8.55a2.14 2.14 0 0 0 .3.17 3.37 3.37 0 0 0 1.18 1.1 11.77 11.77 0 0 0 2.78 1.11c.32.08.65.13 1 .2h.24l.85.18.8.18.92.13.86.13.27.05h4.52l3.36.1L28 301l2.34-.15h1.5a29.52 29.52 0 0 1 3.12 0c1.24.07 2.48.05 3.72 0h5.14c.46 0 .9.1 1.37.15l3.34.34a14.39 14.39 0 0 0 1.86.06h2.16c.8 0 1.62.05 2.42.12l2.43.12 5.2.1a43.26 43.26 0 0 0 4.41.06h.45l5.12-.46 5.12-.13 2.63.05 2.53.2a42.07 42.07 0 0 0 4.63 0l1.52-.1c3.6-.24 7.2-.14 10.82-.13 1 0 2-.05 3-.05s1.75.06 2.62.1c1.7.1 3.4.23 5.12.24h5.3l5.58.24c3.33.2 6.66.3 10 .4 1.47.05 2.94.05 4.4.08s2.86.05 4.3 0l1.76-.1h-.2c1.86-.1 3.7-.15 5.57-.15s3.45.08 5.17 0 3.55 0 5.3 0h5.8l10 .24c1.65 0 3.3 0 4.93-.08a61.3 61.3 0 0 1 4.68-.05l5.07.2h3.43a27.5 27.5 0 0 1-1.1-3.69 25.88 25.88 0 0 1-.31-2.66v-.3c0-.3 0-.6-.1-.88a14.85 14.85 0 0 0-.51-2.33 10.23 10.23 0 0 1-.52-2.5c0-.4 0-.82-.07-1.25s0-.84-.07-1.25c0-.7-.1-1.37-.2-2.05v-.24l-.06-.5c-.14-1.05-.23-2.1-.33-3.17l-.2-2.12c-.08-.7-.13-1.4-.2-2.08v-.3c-.06-.74-.13-1.48-.22-2.22l-.1-.65v-.22c-.16-1-.32-2.07-.4-3.1-.05-.54-.08-1.08-.1-1.62v-.2c0-.52-.06-1.05-.12-1.57a179.94 179.94 0 0 1-.59-5.64l-.14-1.45v-.14c-.13-1.34-.27-2.73-.32-4.1 0-.48 0-1-.08-1.46s0-.86-.07-1.3c0-1.14-.1-2-.18-2.87l-.18-2-.05-.5-.32-3.66a114.29 114.29 0 0 0-.27-3.19c-.07-.83-.1-1.66-.16-2.5l-.06-1.18q-.06-.9-.15-1.86c0-.43-.07-.86-.1-1.3l-.08-1.2c0-.66-.1-1.32-.15-2-.07-.9-.16-1.78-.26-2.67l-.07-.6c-.1-.86-.16-1.73-.23-2.6l-.08-.86c0-.5-.07-1-.1-1.5v-.74l-.08-1.13c0-.7-.08-1.38-.1-2.1v-1.25l-.44-6.8-.35-3.73-.06-.5-.26-2.5c-.22-2.3-.38-4.6-.52-6.77-.1-1.7-.3-3.43-.44-5l-.14-1.43c-.3-3.13-.48-6.32-.66-9.4v-.2l-.25-4.12-.1-1.5-.06-1.1a19.39 19.39 0 0 1-2.91.41c-1 0-2 0-3 .1h-.6a20.54 20.54 0 0 1-2.29.16H170c-.3 0-.62-.05-.93-.05-1.24 0-2.62-.15-4.2-.33-.7-.08-1.4-.1-2.1-.12s-1.2 0-1.8-.1c-.86-.08-1.75-.22-2.53-.34h-.2l-.75-.12c-1-.1-2.08-.17-3-.2h-1c-.55 0-1.1-.05-1.63-.05h-2.7c-.42 0-.84 0-1.36-.06h-1.26a11.39 11.39 0 0 0-1.34.06c-1.27.12-2.75.26-4.35.27a2.46 2.46 0 0 1-2.4-2.44 2.53 2.53 0 0 1 .86-1.87c-.1-3.17-.25-5.7-.5-8l-.24-1.65v-.37c-.22-1.54-.45-3.12-.58-4.7-.06-.77-.1-1.54-.1-2.32v-1.53c0-1.2-.1-2.43-.14-3.66q0-1.35-.06-2.7v-2.7c0-.78-.05-1.57-.05-2.36v-7.98l.33-7.95c.12-2.42.32-5 .47-7v-.4l.1-1.58.12-1.6v-.13c.3-4 .6-8.23 1.15-12.36v-.46c.2-1.42.42-2.83.64-4.24l.06-.38.22-1.37q.48-3.12 1-6.24l.36-2.07v-.23c.58-3.28 1.23-7 2.1-10.5l.3-1.23c.23-.9.46-1.82.65-2.74l.82-4c.37-1.84.77-3.66 1.23-5.67l.48-2.16L149.4 52l.4-1.72.06-.3 1.25-5.54a68.93 68.93 0 0 1 1.87-7.25c.53-1.72 1-3.46 1.5-5.4l.42-1.57a53.46 53.46 0 0 1 2-5.61l.5-1.25c.94-2.4 2.08-4.84 3.1-7l.27-.58.15-.4q.25-.7.54-1.38a17.14 17.14 0 0 0 .74-2.23c.23-.9.52-1.8.78-2.58.07-.2.13-.42.2-.64l.07-.24v-.24q.15-.5.33-1A13.77 13.77 0 0 1 164 6l.16-.42a4.33 4.33 0 0 1 .36-.82 8 8 0 0 1 .74-1l.12-.15c.07-.1.14-.2.22-.28a4.54 4.54 0 0 1 .53-.63c.22-.2.47-.4.72-.6h-1.15c-1.35 0-2.7 0-4 .06a1.55 1.55 0 0 1-.31 0 3.38 3.38 0 0 1-.45 0c-.4 0-.8.08-1.2.07a5.38 5.38 0 0 1-.69-.07h-2.15a6.53 6.53 0 0 1-2.38-.07c-.83 0-1.67 0-2.5-.06-1.72 0-3.43.16-5.15.2z"/><path d="M87 301.5h0zm235-2.1l-.1.1-.3.25-.56.46-.5.4a13.41 13.41 0 0 1-2.2 1.68l-.8.44.3-.1a8.36 8.36 0 0 0 3-1.63 8.48 8.48 0 0 0 1-1.32l.2-.3z"/></g><g fill="#c7ccdd"><path d="M264 .23c-1.2.1-2.4.08-3.6.05-1 0-2 .16-3 .28l-3.56.3-3.83.24h-3.9l-5.24.06h.28c-2.17 0-4.34-.1-6.5-.15h-3.8L228.5.8l-4.1-.18c-1.54 0-3.06.2-4.6.3l-2.48.12h-2.37l-5.36.26c-1.78.14-3.7.16-5.54.15a43.41 43.41 0 0 0-4.54.23l-5 .32h-3.15c-.76 0-1.52-.07-2.28-.08-1.47 0-2.95-.1-4.42-.14-1.05 0-2.1.1-3.13.18-1.18.1-2.35.12-3.53.1h.65-3.6l-5.1.18-3.07-.1a7.23 7.23 0 0 0-.72.61 5.39 5.39 0 0 0-.53.62 3.42 3.42 0 0 1-.22.28l-.12.15a8.77 8.77 0 0 0-.74 1 4.43 4.43 0 0 0-.36.83L164 6l-.4 1.07-.32 1v.23l-.07.25-.2.63-.78 2.58a16.33 16.33 0 0 1-.74 2.24l-.54 1.37-.15.4-.27.58-3.1 7-.5 1.26a52.66 52.66 0 0 0-2 5.61l-.42 1.57-1.5 5.4a71 71 0 0 0-1.78 7.24l-1.25 5.54-.06.28-.45 1.76-2.2 9.8-1.22 5.67-.83 4-.65 2.74-.3 1.24c-.87 3.5-1.52 7.2-2.1 10.48v.23l-.36 2.07a192.62 192.62 0 0 0-1 6.24l-.22 1.37-.06.38-.64 4.24v.46c-.54 4.13-.85 8.32-1.15 12.37v.13l-.1 1.6-.12 1.6v.4l-.48 7-.33 7.95c-.07 1.88 0 3.75 0 5.56v2.5c0 .78 0 1.57.05 2.35 0 .6 0 1.16.05 1.7v1c0 .9 0 1.8.06 2.7q.06 1.83.15 3.66v1.52c0 .8 0 1.56.1 2.32.13 1.57.36 3.16.6 4.7v.38l.23 1.65c.24 2.3.4 4.85.5 8a2.5 2.5 0 0 0-.86 1.87 2.45 2.45 0 0 0 2.41 2.43c1.6 0 3.08-.14 4.35-.27.4 0 .84-.06 1.33-.06h1.26c.52 0 .94.06 1.36.06h2.7c.54 0 1.08 0 1.63.05h1c.94 0 2 .1 3 .2l.75.12h.2c.78.12 1.66.26 2.52.34a21.45 21.45 0 0 0 1.79.09c.6.01 1.4 0 2.1.12 1.6.2 3 .3 4.2.33.3 0 .62 0 .93.05h1.17a18.39 18.39 0 0 0 2.29-.16h-.1.65c1-.06 1.92-.07 3-.1a18.08 18.08 0 0 0 2.55-.25v1.1l.1 1.5.25 4.13v.2l.67 9.42.14 1.43.43 5 .53 6.77.25 2.5.06.5.35 3.72c.2 2.15.3 4.27.45 6.8v1.26c0 .7.06 1.4.1 2.1l.08 1.12.06.74c0 .5.07 1 .1 1.5l.07.86.23 2.6.07.6.27 2.66.15 2 .08 1.2c0 .43.07.86.1 1.28 0 .63.1 1.25.14 1.87l.07 1.17c0 .84.08 1.67.16 2.5q.15 1.6.27 3.18l.3 3.66.05.5.18 2c.08.84.14 1.73.18 2.87 0 .43.05.85.07 1.28s.07 1 .08 1.46c.05 1.38.2 2.77.32 4.1v.14l.14 1.45.6 5.64a20.99 20.99 0 0 1 .12 1.58v.2c0 .53.06 1.07.1 1.6.1 1 .25 2.1.4 3.1v.23l.1.64.2 2.22v.3l.2 2.08.2 2.13.33 3.17c0 .17 0 .34.07.5v.23a47.37 47.37 0 0 1 .2 2.05l.06 1.25c0 .44 0 .85.07 1.25a10.32 10.32 0 0 0 .52 2.51 13.67 13.67 0 0 1 .51 2.32c0 .3.06.6.1.9v.3a18.84 18.84 0 0 0 1.41 6.34h1.6l4.53-.06 4.43-.15c1.43-.01 3.17-.06 4.75 0s3.12 0 4.68 0h9.74c1.55 0 3.1-.07 4.65-.08 1.75 0 3.5.07 5.24.1 3.14.06 6.27 0 9.4 0h4.66c1.4 0 2.77.08 4.16.1 3.45 0 6.92.2 10.37.06 1.54-.06 3.08-.1 4.63 0l4.87.25 5.1.1c1.7.02 3.36.1 5 .15s3.3 0 5 0c1.4 0 2.8-.08 4.2-.06 1.55 0 3.1.1 4.65.2l4.83.2c1.76.08 3.5.24 5.26.35l4.74.34c1.58.1 3.12.27 4.7.25h1.35l.28-.1a19.51 19.51 0 0 0 3.93-1.7 14.87 14.87 0 0 0 2.2-1.67 6.12 6.12 0 0 1 .48-.41c.24-.18.4-.3.57-.45a3.73 3.73 0 0 1 .3-.26l.1-.1a6.22 6.22 0 0 0 .56-.46 6.91 6.91 0 0 0 .51-.57l.5-.54a9.78 9.78 0 0 0 1.92-2.53l.25-.5c.2-.38.37-.76.58-1.13a22.37 22.37 0 0 0 1.34-2.93 8.29 8.29 0 0 0 .31-1l.28-1c.1-.3.18-.54.28-.8.18-.53.37-1.06.52-1.6s.33-1.34.5-2l.1-.4c0-.9 0-1.8.07-2.72 0-1.13.3-2.25.36-3.38v-.7c0-.24-.08-.6-.12-.9s-.05-.76-.07-1.14v-.7c0-.32-.05-.64-.1-.95s-.08-.9-.1-1.35a11.62 11.62 0 0 1 .07-1.5v-2.95c0-1.32-.1-2.65-.18-3.83v-.1a36.72 36.72 0 0 1-.13-5.46h0c0-.73-.1-1.46-.1-2.2v.64c0-.84 0-1.66.05-2.5s.1-1.38.1-2.07v-2.17c0-.72.08-1.47.1-2.2v.64c0-1.13 0-2.23.1-3.35.07-.87.2-1.73.3-2.6a48.6 48.6 0 0 0 .21-5.53v-2.4l-.05-3.56c0-.88.07-1.75.07-2.6 0-1.48 0-3 .07-4.43v.37V218c0-1.4-.1-2.77-.1-4.16l.07-4.23a32.34 32.34 0 0 1 .32-4.29c.18-1.26.38-2.53.5-3.8l.32-3.74c.07-1.25.1-2.8.14-4.2l.2-8.72c0-1.54-.1-3.1 0-4.64l.27-3.7c.26-3.08.32-6.18.58-9.27l.43-4.58c.13-1.7.12-3.4.2-5.1s.2-3.25.32-4.88l.4-4.7c.2-3.2.28-6.38.4-9.57.07-1.58.22-3.15.3-4.72l.18-4.72c0-1.34-.14-2.67-.23-4a82.02 82.02 0 0 1-.21-4.71v-7.05c.08-2 .35-3.92.4-5.9 0-1.3-.17-2.57-.27-3.84-.13-1.47-.13-3-.13-4.4v-.34a12.92 12.92 0 0 1 0-1.76l.05-5.6v-1.2c0-1.32-.06-2.64-.12-4s-.24-2.53-.4-3.8-.34-2.43-.42-3.66-.12-2.56-.1-3.84.07-2.43.12-3.65.08-2.54.18-3.8c.2-2.45.37-4.9.38-7.34 0-1.7-.05-3.37 0-5.06 0-1.4.08-2.77.08-4.16 0-.87-.08-1.73-.17-2.6h0l-.06-.2c-.08-.32-.16-.64-.22-1a7.25 7.25 0 0 1 0-.93c0-.15 0-.3.08-.44q-.1-1.06-.12-2.13c-.05-1.5-.05-3-.14-4.52-.07-1.17-.23-2.34-.3-3.5-.07-1.37-.1-2.74-.15-4.12 0-.65-.06-1.3-.1-1.94a8.63 8.63 0 0 0-.33-1.26c-.1-.27-.2-.54-.28-.82s0-.52 0-.78v-2.38a16.92 16.92 0 0 0-.32-2.55c-.16-.82-.35-1.62-.58-2.58a19.66 19.66 0 0 0-.9-2.6 20.05 20.05 0 0 0-.47-1.16v.08l-.07-.16c-.1-.3-.24-.6-.37-.87s-.25-.46-.4-.7l-.2-.33-.17-.34a3.46 3.46 0 0 0-.27-.5c-.2-.33-.43-.65-.66-1l-.38-.6-.14-.23c-.23-.36-.46-.7-.7-1.06l-.08-.1-.06-.1c-.18-.3-.38-.62-.55-.95a10.36 10.36 0 0 0-1.4-1.94l-.33-.4a15.44 15.44 0 0 0-1.95-1.92c-.3-.27-.64-.52-1-.78-.45-.08-.9-.14-1.33-.25s-1-.32-1.55-.48c-.83-.18-1.65-.38-2.46-.62a10 10 0 0 0-1.79-.23 11.5 11.5 0 0 1-1.16-.08l-1-.15-2.37-.3a16.19 16.19 0 0 1-2.69-.52l.18.05a18.64 18.64 0 0 0-2.34-.36c-.2.05-.75-.05-1.35-.1h-.68l-1.4.18a25.06 25.06 0 0 1-3.24.11h-.57c-.84 0-1.68 0-2.52.14s-1.68.23-2.5.23h-2.86c-.95 0-1.75 0-2.6-.06l-2.7-.2c-.9-.1-1.77-.1-2.65-.12a29.74 29.74 0 0 1-3.27-.2L277 .33h-1.57c-1.5.08-3 .27-4.45.2-1.2 0-2.37-.34-3.57-.4s-2.33.14-3.5.23zm70.5 119.57h0zm0 .08h0zm-4.9 132.82v-.5.5z"/><path d="M233.47 1h0zm-9.57 306.13l-2.17.05h.06l2.08.28a18.75 18.75 0 0 0 2 .15h.38a14.81 14.81 0 0 0 2.3-.2 3.39 3.39 0 0 0 .66-.21h.1-4.3zM169.92 2.22l-4.22-.14c-1.4-.02-2.66 0-4 .06a5.75 5.75 0 0 0-.7 2.06c-.06.37-.16.73-.24 1.1a7.35 7.35 0 0 0-.13 1.24c-.17 1-.48 1.9-.72 2.83-.3 1.17-.75 2.33-1.16 3.46l.2-.6-1.1 2.85a34 34 0 0 0-1.1 3.42l-1.86 6.23c-.54 2.1-1.18 4-1.84 5.9l-.83 2.7-.82 3.16-2.13 7.7.2-.54-1.1 3.2c-.35 1.08-.54 2.1-.8 3.16l-.7 2.88-.6 3-1.5 5.85-.78 2.92-.77 3.37c-1.05 4.14-1.84 8.33-2.78 12.5-.24 1-.43 2-.63 3.07s-.3 2.08-.5 3.1c-.38 2-.7 4-1.16 6-.38 1.64-.7 3.28-.93 4.94-.26 1.87-.62 3.73-.8 5.62 0-.2 0-.42.05-.63 0 .46-.1.92-.13 1.37v-.15c0-.05 0 .1 0 .16l-.3 3.37-.18 2.78c-.07.93-.25 1.9-.38 2.87-.16 1.2-.23 2.43-.32 3.65-.15 2-.3 4-.3 6v6.25c-.06 2.08-.37 4.32-.36 6.5v3.08a28 28 0 0 0 .13 3.3l.52 6.12c.15 2.04.16 3.8.2 5.7 0 1 .07 2.06.08 3.08s0 2.1.08 3.14 0 1.82.08 2.74c0 .73.1 1.45.16 2.18s.14 1.33.2 2c0 .38 0 .76.06 1.15l.23 1.5c0 .2.07.4.1.62a4.81 4.81 0 0 0 .45 1.16 8.87 8.87 0 0 0 .55.81c.15.24.25.5.4.73a3.13 3.13 0 0 0 1.13 1.07 2.72 2.72 0 0 0 1.16.29 3.79 3.79 0 0 0 .6.07 5.66 5.66 0 0 0 .81-.12 2.27 2.27 0 0 0 1-.57h.08l.28-.08a3.57 3.57 0 0 0 1.11-.54 19.38 19.38 0 0 1 2.09-1.18 1.53 1.53 0 0 0 .47-2.1 1.55 1.55 0 0 0-2.1-.47l-1.88 1h-.17a5.87 5.87 0 0 0-.59 0h-.25l-.1-.07a1.37 1.37 0 0 0-.16-.18 6.31 6.31 0 0 1-.4-.65v-.06c0-.25-.06-.5-.1-.74h0v-.24c-.08-.56-.15-1.14-.2-1.7s-.14-1.23-.14-1.85v-7.67c0-1-.07-2.06-.1-3.1-.05-1.9-.17-3.8-.3-5.72-.08-1.2-.24-2.42-.37-3.63s-.23-2.52-.3-3.78 0-2.72 0-4.08c0-1.13 0-2.26.08-3.38v-.45c.18-1.7.33-3.4.44-5.1.1-1.52.2-3 .2-4.57v-4.23c0-1.4.18-2.86.3-4.3.2-1.62.42-3.25.52-4.88l.3-4.52c0 .2 0 .42-.07.63.13-1.2.18-2.4.27-3.6v-.38c.2-2.15.55-4.3.94-6.42s.7-4.1 1-6.14.6-4 1-6c.2-1 .46-2 .65-3.07s.42-2.2.65-3.28l.65-3.1.7-3 .76-3.24.72-3.13 1.62-6c.23-1 .4-1.93.6-2.9s.5-2 .77-2.93c.47-1.8.9-3.58 1.5-5.33s1.2-3.47 1.7-5.24 1.1-3.65 1.66-5.47l.77-2.62c.27-.87.57-1.73.88-2.6-.08.2-.15.4-.22.58.45-1.23.85-2.5 1.25-3.74.36-1.1.64-2.23 1-3.33.73-2.33 1.33-4.7 2.13-7v.13l1.3-3.66-.22.6c.55-1.46 1.05-2.94 1.57-4.4.2-.56.4-1.1.56-1.67s.25-1 .4-1.44l.33-.87c.06-.18.1-.36.16-.53a4.78 4.78 0 0 1 .23-.45 8.26 8.26 0 0 1 .61-.42h.43l.48-.07c.32 0 .64-.08 1-.15a4.18 4.18 0 0 0 1-.43l.56-.14a7.73 7.73 0 0 0 1.59-.32 10.1 10.1 0 0 1 1.36-.38 4.87 4.87 0 0 1 .54 0 5.22 5.22 0 0 0 1.19-.07h.24l1-.17.93-.15a2.15 2.15 0 0 0 1-.61 2.43 2.43 0 0 0 .24-.32h0c-1.2 0-2.4 0-3.6-.05-1.7 0-3.38.26-5.08.2z"/></g><g fill="#48578e"><path d="M162.3 1.45h0zm.07.01h0zm1.06.54h-1.23a4.92 4.92 0 0 1-.83.13 3.49 3.49 0 0 1-.46 0c-.4 0-.8.08-1.2.07a6.4 6.4 0 0 1-1.07-.14l-.1.34a18.85 18.85 0 0 0-.81 2.44l-.5 2.3a25.38 25.38 0 0 0-1.42 4.69 29.58 29.58 0 0 1-.95 3.34c-.17.5-.27 1-.43 1.55l-.5 1.85-.68 3-.78 3.5c-.24 1.17-.6 2.4-.93 3.6l-.94 3.1-1.46 3.64-1.55 4.48-2.56 7.92-1.48 4.24-1.2 3.92-.9 4-.28 1.74a12.09 12.09 0 0 1-.58 2.2 36.89 36.89 0 0 0-1.13 3.71c-.16.65-.2 1.33-.3 2l-.36 2-1.4 8.42-1.63 7.8-.5 3.62-.58 4.17-.54 3.78-.43 4 .06-.64-.87 7.77c-.24 2.6-.88 5.23-1.33 7.84l-.46 3.67c-.16 1.62-.17 3.25-.23 4.87l-.1 4.18v2.1l.23 2.27a29.29 29.29 0 0 1 .05 4.19v2.28l.13 2.3a32 32 0 0 1 0 3.25v3.56l-.22 3.4c-.01 1.15.1 2.6.24 3.9a31.47 31.47 0 0 0 .61 4l.73 3.06.8 3.84.8 3.14.24 1.38a6.49 6.49 0 0 0 .65 1.7l.57 1.1a8.18 8.18 0 0 0 .84 1.12l.55.72a2 2 0 0 0 .77.52 2.37 2.37 0 0 0 .72.25h.36a3.58 3.58 0 0 0 1.17.22 2.34 2.34 0 0 0 .7-.12l1 .25 1.15.16a5.46 5.46 0 0 0 1.71.11l1.22-.17h-.2.47c.3 0 .6.06.92.08a4.52 4.52 0 0 0 1-.12l.56-.12.45-.16a5.42 5.42 0 0 0 1.27 0l.87-.15h.28l.55.1c.42.07.8.24 1.22.3s.7.15 1 .23a5.21 5.21 0 0 0 2.19-.1 10.69 10.69 0 0 1 1.49-.07 4.33 4.33 0 0 0 .72 0c.2 0 .4 0 .6-.05a3 3 0 0 1 .43.1 7 7 0 0 0 1.44.18 8.08 8.08 0 0 0 1.1 0h2.8a16.13 16.13 0 0 0 2.39-.51c.5 0 1 0 1.47-.08a7.47 7.47 0 0 0 1.41-.27l.54-.2h.67l.9-.05.87.18a7.83 7.83 0 0 0 1.37.11 4.41 4.41 0 0 0 .79-.11h1.44q.07.72.2 1.44l-.1-.54c.13.87.17 1.74.24 2.6a24.84 24.84 0 0 1 0 3.76c-.08 1.3 0 2.6 0 3.9l-.12 4.5a35.89 35.89 0 0 0 .07 4.15l.32 4.15.22 4 .15 4.18.08 3.68c0 .67.1 1.34.15 2l.1 2.1.43 4.7.42 4.55.34 4.1.5 4.1.4 3.9a33.17 33.17 0 0 1 .27 3.45v1.53a15 15 0 0 0 .28 2l.6 3a32.49 32.49 0 0 1 .27 3.95 25.17 25.17 0 0 0 .29 3.58 17.7 17.7 0 0 1 .24 1.78 18 18 0 0 1 0 2.54 19 19 0 0 0 .16 4.13 17 17 0 0 1 .21 2.24v2.34l.4 4.55 1.23 8.38.7 4.86a.64.64 0 0 1 0-.07c0 .14.05.27.07.4h0l.38 2.12a39.55 39.55 0 0 0 1 5.41l.78 2.16c.27.7.77 1.6 1.14 2.4l.72 1.72a1.2 1.2 0 1 0 2.29-.7l-.8-2a8.93 8.93 0 0 1-.51-1.48l-.42-4.78-.2-2.7-.43-3-.34-2.9-.4-2.94-1-6.57.1.5-.6-5.37c-.1-.9-.07-1.8-.1-2.7a24.85 24.85 0 0 0-.42-3 21.3 21.3 0 0 1-.17-4 18.73 18.73 0 0 0-.07-2.25l-.23-1.8c-.3-2.56 0-5.17-.4-7.72l-.5-4.05-.07-3.6-.3-3.47-.2-4.5-.25-3.48-.3-4.67-.38-4.56-.23-2.3-.1-2.1-.23-4-.08-3.9-.22-4.13c0-.6-.06-1.22-.1-1.83l-.18-2.22-.2-4.16-.07-4.33-.1-4.2-.2-3.78c0-.57-.13-1.14-.18-1.7l-.07-1.37-.1-2.4a6.67 6.67 0 0 0-.87-2.85 4.33 4.33 0 0 0-1.62-1.53 4.67 4.67 0 0 0-2.12-.37h-1.07c-.35 0-.84.1-1.27.1l-.84-.15a7.35 7.35 0 0 0-1.75-.06 8.51 8.51 0 0 1-1 0 5.8 5.8 0 0 0-1.1.06c-.8.14-1.6.1-2.4.2a20.52 20.52 0 0 0-2.45.52l-2.1.12-1.84.14a6.75 6.75 0 0 0-1.79-.16l-.54.08a6.09 6.09 0 0 1-.74 0 13 13 0 0 0-2.4.27h0l-.35-.1a4 4 0 0 0-.69-.12q-.32-.06-.63-.15a4.56 4.56 0 0 0-1.11-.14c-.36 0-.72-.08-1.1-.1a6.43 6.43 0 0 0-1.31.16h-.38a5.51 5.51 0 0 0-1.46-.08 10.26 10.26 0 0 0-1.25.26h-.2a5.7 5.7 0 0 0-1.54-.09 8.12 8.12 0 0 1-.86 0h-.2a3.38 3.38 0 0 0-.95-.16H143a9 9 0 0 1-1.15-.23 3.79 3.79 0 0 0-2.06 0l-.06-.07a8.32 8.32 0 0 1-.61-1 5.93 5.93 0 0 1-.24-.92c0-.3-.1-.62-.15-.93a2 2 0 0 1 0 .24c0-.1 0-.22-.05-.33s0 .06 0 .1 0-.06 0-.1h0v-.1l-1.27-5.87c0-.2-.07-.38-.1-.58h0l-.44-2.13-.54-2.46-.53-3.87a26 26 0 0 1-.11-3.85v-1.67l-.07-1.9v-3.27l-.06-4.18.1-4.35v-4.24l.15-4.38.2-4 .28-3.74c0-.4.07-.8.1-1.2l.9-5.8.2-1.94 1.08-7.3.64-4.07.8-4.3 1.2-7.65 1.5-7.75 1.36-8.47.28-1.83c.1-.8.27-1.55.45-2.32l.93-3.57.72-4 1-4.05 1-3.77 1.36-4.42 1-4c.28-1.33.8-2.63 1.2-4l1.28-4.1 1.4-4 1.2-4.37 1.1-4.4.9-3.82.55-2.17.57-2.12.88-3.1.66-2.07a9.9 9.9 0 0 1 .44-.93 12.16 12.16 0 0 0 .6-1.51l.53-1.56c.18-.56.38-.84.6-1.25a12.13 12.13 0 0 0 .8-2l.4-.9-.55.08zm-24.77 169.1h0zm8.38 3.56h0zm-.4.08h-.2.2zm30.26 4.2h0a.06.06 0 0 1 0 0zm-36 .32h0zm5 .4h0z" opacity=".63"/><path d="M137.28 164.6h0zm-4.78.86h0zm6.15 5.54v-.15.15zM185 288.4v-.07a.2.2 0 0 1 0 .07zm.05.43h0z" opacity=".63"/><path d="M185.05 288.84v-.01.01z" opacity=".63"/><path d="M185.05 288.84h0z" opacity=".63"/></g><g fill="#2f345b"><path d="M94.23 74.53a13 13 0 0 0-2.06.25 8.86 8.86 0 0 0-1.5.6 6.59 6.59 0 0 0-.88.32 6.72 6.72 0 0 0-1.1.72 5.07 5.07 0 0 0-1.54 1.75l-.24.5a2.09 2.09 0 0 0-.82 1.55v1c-.13.6-.2 1.23-.28 1.85v.1a6 6 0 0 0-.29 1.43L85 87.22c-.1.62 0 1.25 0 1.87a8.17 8.17 0 0 0-.1 1.49c0 .78.06 1.54.14 2.33 0-.26 0-.52-.07-.78 0 .7.14 1.4.23 2.1v-.48c0 .38.1.75.13 1.13v.66a9.45 9.45 0 0 0 .08 1.3 6.5 6.5 0 0 1 0 .88 8 8 0 0 0 .11 1.62v1.06c0 .53.06 1.06.1 1.6l.1 2.65a2.46 2.46 0 0 0 0-.26v.52a7.28 7.28 0 0 0 .23 1.29l.42 1.48.6 1.92a4.32 4.32 0 0 0 .57 1.06l-.1-.12c.2.3.3.64.5.94a12 12 0 0 0 .84 1.14 5.57 5.57 0 0 0 2 1.43l-.24-.1a10.84 10.84 0 0 0 1.62.67 5.72 5.72 0 0 0 1.64.17 6.82 6.82 0 0 0 1.5-.15c.22 0 .43-.08.65-.1a3.83 3.83 0 0 0 .58-.07 5.13 5.13 0 0 0 1-.34 5.65 5.65 0 0 0 1.33-.65 6.91 6.91 0 0 0 2.22-2.08 13.63 13.63 0 0 0 1.48-4.75c.1-.6.13-1.23.2-1.84l.13-1.76.13-1.9c0-.36.1-.7.13-1.07s0-.8 0-1.18l.15-3.23.06-1.9a15.63 15.63 0 0 0-.06-2.16q0 .35.06.66c-.05-.68-.05-1.37 0-2.06a15.7 15.7 0 0 0-.14-2v-1.7c0-.78-.06-1.55-.13-2.33v-.47a21.22 21.22 0 0 0-.68-4.12 4.81 4.81 0 0 0-.62-1.43l-1-1.33-.54-.6a4.59 4.59 0 0 0-1.67-1.07l-.3-.13a6.16 6.16 0 0 0-1-.41 4.66 4.66 0 0 0-1.34-.18h-.2l-1.36.06zm-8.8 10.25v.13-.13zm148.5-10.86a20 20 0 0 0-1.71 1 8.28 8.28 0 0 0-1.43 1 10.42 10.42 0 0 0-1.18 1.31 8.14 8.14 0 0 0-1.17 2.45 14.71 14.71 0 0 0-.46 1.85 21.3 21.3 0 0 0-.3 2.5 21.43 21.43 0 0 0 .09 2.27c.1 1.82.44 3.6.63 5.4l.32 3.64.23 1.5c.1.5.06 1 .1 1.48l.08 2.8a26.14 26.14 0 0 0 .15 2.93l.2 2.63a8.4 8.4 0 0 0 .79 2.55 9.35 9.35 0 0 0 1.46 2.25 6.16 6.16 0 0 0 2.17 1.57h0a9.55 9.55 0 0 0 2.2.82l1.28.2a6.12 6.12 0 0 0 1.28 0 8.52 8.52 0 0 0 2-.59 8.28 8.28 0 0 0 3.62-3.17 15.33 15.33 0 0 0 1.13-2.39 21.1 21.1 0 0 0 .71-4.81c0-.5.1-1 .18-1.5 0 .24-.1.47-.12.7l.35-2.3v.26a1.85 1.85 0 0 1 0-.23v-.54l.4-2.14c.1-.72.13-1.52.2-2.28a26.83 26.83 0 0 0-.06-4.48h0l-.3-3.4c-.15-1.13-.36-2-.56-3l-.57-3-.73-2.8a7.56 7.56 0 0 0-1.63-3.14 5.85 5.85 0 0 0-3-1.74c-.92-.18-1.85-.3-2.78-.4a3.87 3.87 0 0 0-.48 0 8 8 0 0 0-3.12.8zm12.64 25.8v.3c0-.16 0-.32.08-.48v.16z"/><path d="M83.64 75.2a.9.9 0 0 0-.47.56 1 1 0 0 0 .06.7 2.73 2.73 0 0 0 .71.88l.56.6c.37.4.68.87 1 1.3l.6.72.53.63a16.32 16.32 0 0 0 1.37 1.3.743.743 0 1 0 1.1-1l-1.24-1.22c-.4-.43-.68-.86-1-1.3s-.56-.88-.84-1.32l-.6-.9a5.87 5.87 0 0 0-.63-.77 1 1 0 0 0-.71-.31.87.87 0 0 0-.41.11zm5.06-4.12a1 1 0 0 0-.46.55.92.92 0 0 0 .06.69l1.37 3.16.75 1.5c.27.5.67 1.06 1 1.6a.83.83 0 0 0 .47.39.74.74 0 0 0 .6 0 .79.79 0 0 0 .34-1.07L92 76.58a12 12 0 0 1-.63-1.3l-1-2.65-.4-1.08a.88.88 0 0 0-.85-.53 1 1 0 0 0-.41.09zm7.47-1.98a.93.93 0 0 0-.47.73c0 .56-.15 1.1-.22 1.67l-.2 1.9-.17 1.8c-.05.6-.18 1.27-.28 1.9a.6.6 0 0 0 .18.48.67.67 0 0 0 .46.22.66.66 0 0 0 .48-.18.69.69 0 0 0 .22-.46l.32-2.2.28-2.07.27-1.4.36-1.38a1 1 0 0 0-.06-.65.88.88 0 0 0-.51-.42.78.78 0 0 0-.26 0 .89.89 0 0 0-.39.09zm6.63 3.62a1.9 1.9 0 0 0-.45.34 3 3 0 0 0-.31.4l-.2.3c-.1.16-.22.3-.33.46L100 75.9a18.75 18.75 0 0 0-1.55 2.1 1 1 0 0 0 .31 1.36 1 1 0 0 0 1.35-.32l1.08-1.52c.38-.52.84-.93 1.3-1.37a10 10 0 0 0 .81-.9c.22-.28.4-.58.6-.87h0a1 1 0 0 0-.7-1.75.82.82 0 0 0-.44.11zm2.64 5.08a5.13 5.13 0 0 0-1.4.71 6.92 6.92 0 0 1-1.23.66l-1.84.46a.89.89 0 0 0-.67 1 .88.88 0 0 0 1 .67 17.42 17.42 0 0 0 2.57-.7 6 6 0 0 0 1.07-.54l1.07-.6a.93.93 0 0 0 .48-1 1 1 0 0 0-.88-.73.76.76 0 0 0-.21 0zm121.94-5.06a1.19 1.19 0 0 0-.59.69 1.27 1.27 0 0 0 .08.88 3.47 3.47 0 0 0 .54.81l.48.57a11.2 11.2 0 0 0 .94 1l2.3 2.13a1.15 1.15 0 0 0 .76.35 1.09 1.09 0 0 0 .85-1.83 21.87 21.87 0 0 1-3.15-3.23l-.8-1.14a1 1 0 0 0-.84-.38 1.12 1.12 0 0 0-.55.13zm4.98-4.64a1.05 1.05 0 0 0-.82 1 6.57 6.57 0 0 0 .39 1.85l.53 1.7.63 1.9a16.38 16.38 0 0 0 .8 1.76 1.065 1.065 0 0 0 1.88-1 12.29 12.29 0 0 1-.57-1.15l-.4-1-.65-2.14-.28-1a6.72 6.72 0 0 0-.37-1.33 1.05 1.05 0 0 0-.94-.57h-.2zm5.9-.44a7.93 7.93 0 0 0-.28 1.82c0 .52-.06 1-.1 1.55l-.17 3.33a1.036 1.036 0 1 0 2.07.09l.2-3.23.15-1.62c0-.22 0-.46.06-.7a7.26 7.26 0 0 0 0-.93 1 1 0 0 0-.96-1 1 1 0 0 0-.94.69zm6.5 4.5c-.2.3-.35.65-.53 1a6.27 6.27 0 0 1-.5.73 8 8 0 0 1-.78.76 14.62 14.62 0 0 1-1 .76l.16-.12-1.13.7a.77.77 0 0 0-.38.45.78.78 0 0 0 .05.58.77.77 0 0 0 1 .33 21.91 21.91 0 0 0 2.63-1.86 12.77 12.77 0 0 0 2-2.35.9.9 0 0 0-.77-1.4.92.92 0 0 0-.79.43zM248.1 76c-.3.13-.57.3-.86.45l-1 .53c-.67.36-1.3.77-1.95 1.2a1.18 1.18 0 0 0-.55.65 1.16 1.16 0 0 0 .07.82 1.09 1.09 0 0 0 .66.55 1 1 0 0 0 .83-.07l1.94-1.2c.32-.2.67-.35 1-.52a4 4 0 0 0 1.07-.68 1.08 1.08 0 0 0 .22-1.27 1 1 0 0 0-.94-.57 1.24 1.24 0 0 0-.49.11zM71.92 187.4a9.85 9.85 0 0 0-1.09.15 6.84 6.84 0 0 0-3.08 1.12l-.7.58a7.16 7.16 0 0 0-1.3 1.28 11.6 11.6 0 0 0-.87 1.43 8.65 8.65 0 0 0-.69 1.9 8.35 8.35 0 0 0-.17 1.66 9.74 9.74 0 0 0 0 2 12.19 12.19 0 0 0 .55 2.39l.5 1.36a27.18 27.18 0 0 0 1.45 2.78l2.13 3.33a31.43 31.43 0 0 0 2.14 3 48.64 48.64 0 0 0 6 5.63l3 2.6a41.47 41.47 0 0 0 3.23 2.69 41.58 41.58 0 0 0 4.43 2.58l3.56 2 3.68 1.93 3.38 1.87 3.77 1.52 3.9 1.63 8 2.88a23.38 23.38 0 0 0 2.82.84l1.94.34 3.92.8 3.85.7a28.88 28.88 0 0 1 3.3.81 22.93 22.93 0 0 0 3.06.8c1 .2 2.07.28 3.1.4l2.57.3c1.45.16 2.93.18 4.4.26l-1.1-.07 1.43.14 8.4 1a58.15 58.15 0 0 0 9.59.53l4.92-.32 4.27-.2 4.73-.46c1.43-.14 2.86-.1 4.3-.13h1.63l4.2-.1a50.69 50.69 0 0 0 7.43-1.31l5.8-1.52 5.5-1.25 8.18-1.84 7.14-1.86 6.55-2.48 3.68-1.5 3.54-1.77 3.5-1.64 2.66-1.44 1.94-1.24 3.78-2.23 4.14-2.77a37.46 37.46 0 0 0 3.16-2.3l3.77-3a70.78 70.78 0 0 0 7.26-6.58 15.28 15.28 0 0 0 1.47-2.08 25.1 25.1 0 0 0 2.31-3.58 11.66 11.66 0 0 0 1-3.56c0-.4.1-.77.15-1.17a7.59 7.59 0 0 0-2.34-6.59 6.38 6.38 0 0 0-4.79-1.52h-.9a6 6 0 0 0-2.15.53 24.34 24.34 0 0 0-5.57 2.83 37.67 37.67 0 0 0-3.44 3.12l-1.2 1.3a17.3 17.3 0 0 0-1.46 2.15l-.92 1.54-.86.7c-.55.44-1.06.92-1.58 1.4l-3.68 3-4.5 3.4-7.05 4.85a26.2 26.2 0 0 1-2.57 1.47l.44-.23-3 1.6a42 42 0 0 1-4.81 2l-5.55 2.1c-1.7.64-3.47 1.13-5.2 1.65l-3.15.83-3.23.93-3.84.68-4.6.54-9.32 1.28-9.18 1.1c-1.54.15-3.08.1-4.62.12l-4.28.08c-1.23 0-2.46-.1-3.7-.14h-3.77l-7.5-.65c-2.5-.26-5.15-.93-7.74-1.27a25.06 25.06 0 0 1-3.84-.85l-11.62-2.82-4.83-1.9-2.76-1-2.88-1.17-5.28-2.55-2.64-1.58c-.87-.58-1.46-.85-2.18-1.28l-3.4-2.26.87.56-1.65-1.07a49.63 49.63 0 0 1-4.09-2.92l-1.8-1.46-1.64-1.5-1.45-1.37c-.45-.46-1.22-1.12-1.86-1.64a19.72 19.72 0 0 1-1.48-1.41L88 197.47l-1.07-1.18-.94-.94a12.65 12.65 0 0 0-1-1.06l-1.12-.94-2.2-2a26 26 0 0 0-3.2-2.31 13.71 13.71 0 0 0-3.09-1.22 11.09 11.09 0 0 0-3-.44zM101 208.64l.26.17-.26-.17z"/></g></svg>