<svg xmlns="http://www.w3.org/2000/svg" viewBox="0 0 1406 976" xmlns:v="https://vecta.io/nano"><style><![CDATA[.E{stroke-miterlimit:10}.F{opacity:.1}.G{fill:none}.H{stroke:#384173}.I{stroke-width:.5}]]></style><g class="F G H E" opacity=".5"><path d="M15.9 0v967.6M-2.1 0v967.6M34 0v967.6M52.1 0v967.6M70.1 0v967.6M88.2 0v967.6" class="I"/><path d="M106.3 0v967.6"/><path d="M124.3 0v967.6M106.3 0v967.6M142.4 0v967.6M160.4 0v967.6M178.5 0v967.6M196.6 0v967.6" class="I"/><path d="M214.6 0v967.6"/><path d="M232.7 0v967.6M214.6 0v967.6M250.8 0v967.6M268.8 0v967.6M286.9 0v967.6M305 0v967.6" class="I"/><path d="M323 0v967.6"/><path d="M341.1 0v967.6M323 0v967.6M359.2 0v967.6M377.2 0v967.6M395.3 0v967.6M413.4 0v967.6" class="I"/><path d="M431.4 0v967.6"/><path d="M449.5 0v967.6M431.4 0v967.6M467.5 0v967.6M485.6 0v967.6M503.7 0v967.6M521.7 0v967.6" class="I"/><path d="M539.8 0v967.6"/><path d="M557.9 0v967.6M539.8 0v967.6M575.9 0v967.6M594 0v967.6M612.1 0v967.6M630.1 0v967.6" class="I"/><path d="M648.2 0v967.6"/><path d="M665.4 0v967.6M647.3 0v967.6M683.4 0v967.6M701.5 0v967.6M719.6 0v967.6M737.6 0v967.6" class="I"/><path d="M755.7 0v967.6"/><path d="M773.7 0v967.6M755.7 0v967.6M791.8 0v967.6M809.9 0v967.6M827.9 0v967.6M846 0v967.6" class="I"/><path d="M864.1 0v967.6"/><path d="M882.1 0v967.6M864.1 0v967.6M900.2 0v967.6M918.3 0v967.6M936.3 0v967.6M954.4 0v967.6" class="I"/><path d="M972.5 0v967.6"/><path d="M990.5 0v967.6M972.5 0v967.6M1008.6 0v967.6m18-967.6v967.6M1044.7 0v967.6M1062.8 0v967.6" class="I"/><path d="M1080.8 0v967.6"/><path d="M1098.9 0v967.6M1080.8 0v967.6M1117 0v967.6M1135 0v967.6M1153.1 0v967.6M1171.2 0v967.6" class="I"/><path d="M1189.2 0v967.6"/><path d="M1207.3 0v967.6M1189.2 0v967.6M1225.4 0v967.6m18-967.6v967.6M1261.5 0v967.6m18-967.6v967.6" class="I"/><path d="M1297.6 0v967.6"/><path d="M1315.7 0v967.6M1297.6 0v967.6M1333.7 0v967.6M1351.8 0v967.6M1369.9 0v967.6m18-967.6v967.6" class="I"/><path d="M1406 0v967.6"/><path d="M1406 16.2H-2.1M1406 0H-2.1M1406 32.4H-2.1M1406 48.6H-2.1M1406 64.8H-2.1M1406 80.9H-2.1" class="I"/><path d="M1406 97.1H-2.1"/><path d="M1406 113.3H-2.1M1406 97.1H-2.1M1406 129.5H-2.1M1406 145.7H-2.1M1406 161.9H-2.1M1406 178.1H-2.1" class="I"/><path d="M1406 194.3H-2.1"/><path d="M1406 210.5H-2.1M1406 194.3H-2.1M1406 226.6H-2.1M1406 242.8H-2.1M1406 259H-2.1M1406 275.2H-2.1" class="I"/><path d="M1406 291.4H-2.1"/><path d="M1405.6 306.7H-2.6m1408.2-16.2H-2.6m1408.2 32.4H-2.6m1408.2 16.2H-2.6m1408.2 16.1H-2.6m1408.2 16.2H-2.6" class="I"/><path d="M1405.6 387.6H-2.6"/><path d="M1406 404.9H-2.1M1406 388.7H-2.1M1406 421.1H-2.1M1406 437.3H-2.1M1406 453.5H-2.1M1406 469.7H-2.1" class="I"/><path d="M1406 485.9H-2.1"/><path d="M1405.6 503.2H-2.6M1405.6 487H-2.6m1408.2 32.4H-2.6m1408.2 16.2H-2.6m1408.2 16.2H-2.6m1408.2 16.1H-2.6" class="I"/><path d="M1405.6 584.1H-2.6"/><path d="M1406 599.4H-2.1M1406 583.2H-2.1M1406 615.6H-2.1M1406 631.8H-2.1M1406 647.9H-2.1M1406 664.1H-2.1" class="I"/><path d="M1406 680.3H-2.1"/><path d="M1405.6 695.6H-2.6m1408.2-16.2H-2.6m1408.2 32.4H-2.6M1405.6 728H-2.6m1408.2 16.1H-2.6m1408.2 16.2H-2.6" class="I"/><path d="M1405.6 776.5H-2.6"/><path d="M1405.8 793.8H-2.3m1408.1-16.2H-2.3M1405.8 810H-2.3m1408.1 16.2H-2.3m1408.1 16.2H-2.3m1408.1 16.2H-2.3" class="I"/><path d="M1405.8 874.8H-2.3"/><path d="M1406 889.5H-2.1M1406 873.3H-2.1M1406 905.7H-2.1M1406 921.9H-2.1M1406 938.1H-2.1M1406 954.3H-2.1" class="I"/></g></svg>