<?xml version="1.0" encoding="utf-8"?>
<!-- Generator: Adobe Illustrator 24.1.2, SVG Export Plug-In . SVG Version: 6.00 Build 0)  -->
<svg version="1.1" id="Layer_1" xmlns="http://www.w3.org/2000/svg" xmlns:xlink="http://www.w3.org/1999/xlink" x="0px" y="0px"
	 viewBox="0 0 1406 976" style="enable-background:new 0 0 1406 976;" xml:space="preserve">
<style type="text/css">
	.st0{opacity:0.5;}
	.st1{opacity:0.1;}
	.st2{fill:none;stroke:#384173;stroke-width:0.5;stroke-miterlimit:10;}
	.st3{fill:none;stroke:#384173;stroke-miterlimit:10;}
</style>
<g id="Layer_2_1_" class="st0">
	<g id="Draw_Layer">
		<g>
			<g>
				<g class="st1">
					<line class="st2" x1="15.9" y1="0" x2="15.9" y2="967.6"/>
					<line class="st2" x1="-2.1" y1="0" x2="-2.1" y2="967.6"/>
					<line class="st2" x1="34" y1="0" x2="34" y2="967.6"/>
					<line class="st2" x1="52.1" y1="0" x2="52.1" y2="967.6"/>
					<line class="st2" x1="70.1" y1="0" x2="70.1" y2="967.6"/>
					<line class="st2" x1="88.2" y1="0" x2="88.2" y2="967.6"/>
					<line class="st3" x1="106.3" y1="0" x2="106.3" y2="967.6"/>
				</g>
				<g class="st1">
					<line class="st2" x1="124.3" y1="0" x2="124.3" y2="967.6"/>
					<line class="st2" x1="106.3" y1="0" x2="106.3" y2="967.6"/>
					<line class="st2" x1="142.4" y1="0" x2="142.4" y2="967.6"/>
					<line class="st2" x1="160.4" y1="0" x2="160.4" y2="967.6"/>
					<line class="st2" x1="178.5" y1="0" x2="178.5" y2="967.6"/>
					<line class="st2" x1="196.6" y1="0" x2="196.6" y2="967.6"/>
					<line class="st3" x1="214.6" y1="0" x2="214.6" y2="967.6"/>
				</g>
				<g class="st1">
					<line class="st2" x1="232.7" y1="0" x2="232.7" y2="967.6"/>
					<line class="st2" x1="214.6" y1="0" x2="214.6" y2="967.6"/>
					<line class="st2" x1="250.8" y1="0" x2="250.8" y2="967.6"/>
					<line class="st2" x1="268.8" y1="0" x2="268.8" y2="967.6"/>
					<line class="st2" x1="286.9" y1="0" x2="286.9" y2="967.6"/>
					<line class="st2" x1="305" y1="0" x2="305" y2="967.6"/>
					<line class="st3" x1="323" y1="0" x2="323" y2="967.6"/>
				</g>
				<g class="st1">
					<line class="st2" x1="341.1" y1="0" x2="341.1" y2="967.6"/>
					<line class="st2" x1="323" y1="0" x2="323" y2="967.6"/>
					<line class="st2" x1="359.2" y1="0" x2="359.2" y2="967.6"/>
					<line class="st2" x1="377.2" y1="0" x2="377.2" y2="967.6"/>
					<line class="st2" x1="395.3" y1="0" x2="395.3" y2="967.6"/>
					<line class="st2" x1="413.4" y1="0" x2="413.4" y2="967.6"/>
					<line class="st3" x1="431.4" y1="0" x2="431.4" y2="967.6"/>
				</g>
				<g class="st1">
					<line class="st2" x1="449.5" y1="0" x2="449.5" y2="967.6"/>
					<line class="st2" x1="431.4" y1="0" x2="431.4" y2="967.6"/>
					<line class="st2" x1="467.5" y1="0" x2="467.5" y2="967.6"/>
					<line class="st2" x1="485.6" y1="0" x2="485.6" y2="967.6"/>
					<line class="st2" x1="503.7" y1="0" x2="503.7" y2="967.6"/>
					<line class="st2" x1="521.7" y1="0" x2="521.7" y2="967.6"/>
					<line class="st3" x1="539.8" y1="0" x2="539.8" y2="967.6"/>
				</g>
				<g class="st1">
					<line class="st2" x1="557.9" y1="0" x2="557.9" y2="967.6"/>
					<line class="st2" x1="539.8" y1="0" x2="539.8" y2="967.6"/>
					<line class="st2" x1="575.9" y1="0" x2="575.9" y2="967.6"/>
					<line class="st2" x1="594" y1="0" x2="594" y2="967.6"/>
					<line class="st2" x1="612.1" y1="0" x2="612.1" y2="967.6"/>
					<line class="st2" x1="630.1" y1="0" x2="630.1" y2="967.6"/>
					<line class="st3" x1="648.2" y1="0" x2="648.2" y2="967.6"/>
				</g>
				<g class="st1">
					<line class="st2" x1="665.4" y1="0" x2="665.4" y2="967.6"/>
					<line class="st2" x1="647.3" y1="0" x2="647.3" y2="967.6"/>
					<line class="st2" x1="683.4" y1="0" x2="683.4" y2="967.6"/>
					<line class="st2" x1="701.5" y1="0" x2="701.5" y2="967.6"/>
					<line class="st2" x1="719.6" y1="0" x2="719.6" y2="967.6"/>
					<line class="st2" x1="737.6" y1="0" x2="737.6" y2="967.6"/>
					<line class="st3" x1="755.7" y1="0" x2="755.7" y2="967.6"/>
				</g>
				<g class="st1">
					<line class="st2" x1="773.7" y1="0" x2="773.7" y2="967.6"/>
					<line class="st2" x1="755.7" y1="0" x2="755.7" y2="967.6"/>
					<line class="st2" x1="791.8" y1="0" x2="791.8" y2="967.6"/>
					<line class="st2" x1="809.9" y1="0" x2="809.9" y2="967.6"/>
					<line class="st2" x1="827.9" y1="0" x2="827.9" y2="967.6"/>
					<line class="st2" x1="846" y1="0" x2="846" y2="967.6"/>
					<line class="st3" x1="864.1" y1="0" x2="864.1" y2="967.6"/>
				</g>
				<g class="st1">
					<line class="st2" x1="882.1" y1="0" x2="882.1" y2="967.6"/>
					<line class="st2" x1="864.1" y1="0" x2="864.1" y2="967.6"/>
					<line class="st2" x1="900.2" y1="0" x2="900.2" y2="967.6"/>
					<line class="st2" x1="918.3" y1="0" x2="918.3" y2="967.6"/>
					<line class="st2" x1="936.3" y1="0" x2="936.3" y2="967.6"/>
					<line class="st2" x1="954.4" y1="0" x2="954.4" y2="967.6"/>
					<line class="st3" x1="972.5" y1="0" x2="972.5" y2="967.6"/>
				</g>
				<g class="st1">
					<line class="st2" x1="990.5" y1="0" x2="990.5" y2="967.6"/>
					<line class="st2" x1="972.5" y1="0" x2="972.5" y2="967.6"/>
					<line class="st2" x1="1008.6" y1="0" x2="1008.6" y2="967.6"/>
					<line class="st2" x1="1026.6" y1="0" x2="1026.6" y2="967.6"/>
					<line class="st2" x1="1044.7" y1="0" x2="1044.7" y2="967.6"/>
					<line class="st2" x1="1062.8" y1="0" x2="1062.8" y2="967.6"/>
					<line class="st3" x1="1080.8" y1="0" x2="1080.8" y2="967.6"/>
				</g>
				<g class="st1">
					<line class="st2" x1="1098.9" y1="0" x2="1098.9" y2="967.6"/>
					<line class="st2" x1="1080.8" y1="0" x2="1080.8" y2="967.6"/>
					<line class="st2" x1="1117" y1="0" x2="1117" y2="967.6"/>
					<line class="st2" x1="1135" y1="0" x2="1135" y2="967.6"/>
					<line class="st2" x1="1153.1" y1="0" x2="1153.1" y2="967.6"/>
					<line class="st2" x1="1171.2" y1="0" x2="1171.2" y2="967.6"/>
					<line class="st3" x1="1189.2" y1="0" x2="1189.2" y2="967.6"/>
				</g>
				<g class="st1">
					<line class="st2" x1="1207.3" y1="0" x2="1207.3" y2="967.6"/>
					<line class="st2" x1="1189.2" y1="0" x2="1189.2" y2="967.6"/>
					<line class="st2" x1="1225.4" y1="0" x2="1225.4" y2="967.6"/>
					<line class="st2" x1="1243.4" y1="0" x2="1243.4" y2="967.6"/>
					<line class="st2" x1="1261.5" y1="0" x2="1261.5" y2="967.6"/>
					<line class="st2" x1="1279.5" y1="0" x2="1279.5" y2="967.6"/>
					<line class="st3" x1="1297.6" y1="0" x2="1297.6" y2="967.6"/>
				</g>
				<g class="st1">
					<line class="st2" x1="1315.7" y1="0" x2="1315.7" y2="967.6"/>
					<line class="st2" x1="1297.6" y1="0" x2="1297.6" y2="967.6"/>
					<line class="st2" x1="1333.7" y1="0" x2="1333.7" y2="967.6"/>
					<line class="st2" x1="1351.8" y1="0" x2="1351.8" y2="967.6"/>
					<line class="st2" x1="1369.9" y1="0" x2="1369.9" y2="967.6"/>
					<line class="st2" x1="1387.9" y1="0" x2="1387.9" y2="967.6"/>
					<line class="st3" x1="1406" y1="0" x2="1406" y2="967.6"/>
				</g>
				<g class="st1">
					<line class="st2" x1="1406" y1="16.2" x2="-2.1" y2="16.2"/>
					<line class="st2" x1="1406" y1="0" x2="-2.1" y2="0"/>
					<line class="st2" x1="1406" y1="32.4" x2="-2.1" y2="32.4"/>
					<line class="st2" x1="1406" y1="48.6" x2="-2.1" y2="48.6"/>
					<line class="st2" x1="1406" y1="64.8" x2="-2.1" y2="64.8"/>
					<line class="st2" x1="1406" y1="80.9" x2="-2.1" y2="80.9"/>
					<line class="st3" x1="1406" y1="97.1" x2="-2.1" y2="97.1"/>
				</g>
				<g class="st1">
					<line class="st2" x1="1406" y1="113.3" x2="-2.1" y2="113.3"/>
					<line class="st2" x1="1406" y1="97.1" x2="-2.1" y2="97.1"/>
					<line class="st2" x1="1406" y1="129.5" x2="-2.1" y2="129.5"/>
					<line class="st2" x1="1406" y1="145.7" x2="-2.1" y2="145.7"/>
					<line class="st2" x1="1406" y1="161.9" x2="-2.1" y2="161.9"/>
					<line class="st2" x1="1406" y1="178.1" x2="-2.1" y2="178.1"/>
					<line class="st3" x1="1406" y1="194.3" x2="-2.1" y2="194.3"/>
				</g>
				<g class="st1">
					<line class="st2" x1="1406" y1="210.5" x2="-2.1" y2="210.5"/>
					<line class="st2" x1="1406" y1="194.3" x2="-2.1" y2="194.3"/>
					<line class="st2" x1="1406" y1="226.6" x2="-2.1" y2="226.6"/>
					<line class="st2" x1="1406" y1="242.8" x2="-2.1" y2="242.8"/>
					<line class="st2" x1="1406" y1="259" x2="-2.1" y2="259"/>
					<line class="st2" x1="1406" y1="275.2" x2="-2.1" y2="275.2"/>
					<line class="st3" x1="1406" y1="291.4" x2="-2.1" y2="291.4"/>
				</g>
				<g class="st1">
					<line class="st2" x1="1405.6" y1="306.7" x2="-2.6" y2="306.7"/>
					<line class="st2" x1="1405.6" y1="290.5" x2="-2.6" y2="290.5"/>
					<line class="st2" x1="1405.6" y1="322.9" x2="-2.6" y2="322.9"/>
					<line class="st2" x1="1405.6" y1="339.1" x2="-2.6" y2="339.1"/>
					<line class="st2" x1="1405.6" y1="355.2" x2="-2.6" y2="355.2"/>
					<line class="st2" x1="1405.6" y1="371.4" x2="-2.6" y2="371.4"/>
					<line class="st3" x1="1405.6" y1="387.6" x2="-2.6" y2="387.6"/>
				</g>
				<g class="st1">
					<line class="st2" x1="1406" y1="404.9" x2="-2.1" y2="404.9"/>
					<line class="st2" x1="1406" y1="388.7" x2="-2.1" y2="388.7"/>
					<line class="st2" x1="1406" y1="421.1" x2="-2.1" y2="421.1"/>
					<line class="st2" x1="1406" y1="437.3" x2="-2.1" y2="437.3"/>
					<line class="st2" x1="1406" y1="453.5" x2="-2.1" y2="453.5"/>
					<line class="st2" x1="1406" y1="469.7" x2="-2.1" y2="469.7"/>
					<line class="st3" x1="1406" y1="485.9" x2="-2.1" y2="485.9"/>
				</g>
				<g class="st1">
					<line class="st2" x1="1405.6" y1="503.2" x2="-2.6" y2="503.2"/>
					<line class="st2" x1="1405.6" y1="487" x2="-2.6" y2="487"/>
					<line class="st2" x1="1405.6" y1="519.4" x2="-2.6" y2="519.4"/>
					<line class="st2" x1="1405.6" y1="535.6" x2="-2.6" y2="535.6"/>
					<line class="st2" x1="1405.6" y1="551.8" x2="-2.6" y2="551.8"/>
					<line class="st2" x1="1405.6" y1="567.9" x2="-2.6" y2="567.9"/>
					<line class="st3" x1="1405.6" y1="584.1" x2="-2.6" y2="584.1"/>
				</g>
				<g class="st1">
					<line class="st2" x1="1406" y1="599.4" x2="-2.1" y2="599.4"/>
					<line class="st2" x1="1406" y1="583.2" x2="-2.1" y2="583.2"/>
					<line class="st2" x1="1406" y1="615.6" x2="-2.1" y2="615.6"/>
					<line class="st2" x1="1406" y1="631.8" x2="-2.1" y2="631.8"/>
					<line class="st2" x1="1406" y1="647.9" x2="-2.1" y2="647.9"/>
					<line class="st2" x1="1406" y1="664.1" x2="-2.1" y2="664.1"/>
					<line class="st3" x1="1406" y1="680.3" x2="-2.1" y2="680.3"/>
				</g>
				<g class="st1">
					<line class="st2" x1="1405.6" y1="695.6" x2="-2.6" y2="695.6"/>
					<line class="st2" x1="1405.6" y1="679.4" x2="-2.6" y2="679.4"/>
					<line class="st2" x1="1405.6" y1="711.8" x2="-2.6" y2="711.8"/>
					<line class="st2" x1="1405.6" y1="728" x2="-2.6" y2="728"/>
					<line class="st2" x1="1405.6" y1="744.1" x2="-2.6" y2="744.1"/>
					<line class="st2" x1="1405.6" y1="760.3" x2="-2.6" y2="760.3"/>
					<line class="st3" x1="1405.6" y1="776.5" x2="-2.6" y2="776.5"/>
				</g>
				<g class="st1">
					<line class="st2" x1="1405.8" y1="793.8" x2="-2.3" y2="793.8"/>
					<line class="st2" x1="1405.8" y1="777.6" x2="-2.3" y2="777.6"/>
					<line class="st2" x1="1405.8" y1="810" x2="-2.3" y2="810"/>
					<line class="st2" x1="1405.8" y1="826.2" x2="-2.3" y2="826.2"/>
					<line class="st2" x1="1405.8" y1="842.4" x2="-2.3" y2="842.4"/>
					<line class="st2" x1="1405.8" y1="858.6" x2="-2.3" y2="858.6"/>
					<line class="st3" x1="1405.8" y1="874.8" x2="-2.3" y2="874.8"/>
				</g>
				<g class="st1">
					<line class="st2" x1="1406" y1="889.5" x2="-2.1" y2="889.5"/>
					<line class="st2" x1="1406" y1="873.3" x2="-2.1" y2="873.3"/>
					<line class="st2" x1="1406" y1="905.7" x2="-2.1" y2="905.7"/>
					<line class="st2" x1="1406" y1="921.9" x2="-2.1" y2="921.9"/>
					<line class="st2" x1="1406" y1="938.1" x2="-2.1" y2="938.1"/>
					<line class="st2" x1="1406" y1="954.3" x2="-2.1" y2="954.3"/>
				</g>
			</g>
		</g>
	</g>
</g>
</svg>
