<svg xmlns="http://www.w3.org/2000/svg" viewBox="0 0 327.67 317.66"><defs><style>.cls-1{fill:#ececec;}.cls-2{fill:#48578e;}</style></defs><title>indesign</title><g id="Layer_2" data-name="Layer 2"><g id="Draw_Layer" data-name="Draw Layer"><path class="cls-1" d="M3.66,1.66A3,3,0,0,0,1.74,2.73,3.22,3.22,0,0,0,1.12,4.9a2.66,2.66,0,0,0,.16.83c0,.18,0,.37,0,.55C1.27,7,1.17,7.8,1.07,8.56l0,.15C1,9.48.87,10.22.83,11l0,.8a22.16,22.16,0,0,0,0,3.45l.06.6c.1,1.05.19,2,.21,2.93L1,20.1c0,.67,0,1.34,0,2,0,1,0,2,0,3v1.21c0,1.22-.11,2.42-.21,3.76l0,.35v.15a50.9,50.9,0,0,0-.21,5.66c0,.8.1,1.61.18,2.41S.75,39.9.78,40.5C.87,42,1,43.68,1,45.4v.37c0,.32,0,.65,0,1V48.4c0,.79,0,1.58-.07,2.38,0,1.18-.08,2.37-.08,3.55s0,2.11.12,3S1,59,1,59.84V61.4H1V62c0,1.2,0,2.43,0,3.66s.09,2.37.11,3.56c0,.45,0,.89-.06,1.34,0,.67-.06,1.34-.06,2,0,1.43,0,2.85,0,4.27q0,3.5.05,7l0,1.32c0,.86,0,1.73,0,2.59,0,.64,0,1.28,0,1.91v1.16l0,1.69,0,2.59,0,1.7v4.77c0,1,0,2,0,3v1.51c0,1.09-.06,2.19-.11,3.28-.09,2.52-.17,5.13,0,7.64.07,1.45.11,2.92.14,4.38l0,.78c0,.78.06,1.57.1,2.35s.09,1.72.1,2.58-.06,1.79-.1,2.67L1,131.27c-.07,1.6-.06,3.33,0,5.62.07,2.59.12,5.49.14,9.13,0,1.18,0,2.36-.09,3.54L.9,151.7l-.09,1.6c-.05.91-.12,1.82-.19,2.72l0,.37c-.14,1.76-.27,3.55-.28,5.3v.24c0,1.22,0,2.35,0,3.49,0,.53,0,1.06,0,1.59s0,1.05,0,1.59c0,.84,0,1.69,0,2.54,0,1.1,0,2.19.07,3.27s.07,2,.08,3.06v.62c0,.85-.06,1.72,0,2.57l0,.75c0,.5,0,1,0,1.5q0,2.28.09,4.56c0,1.24.11,2.47.18,3.71v.16c.08,1.13.17,2.55.19,3.9v1.59c0,.7-.1,1.4-.17,2.1L.6,200c-.1,1.2-.17,2.48-.22,4.16,0,1.27,0,2.65.09,4.36.07,1,.07,2,.06,3v1.61c0,.54,0,1,0,1.55s0,1.15,0,1.72v1.23c0,.44,0,.88,0,1.32l0,.72,0,1.06c0,1,0,2,0,3v.24l.06,1.47,0,.4c0,.95.08,1.85.08,2.76v1l0,.83a37.12,37.12,0,0,0,0,4.35c.14,1.51.22,2.94.25,4.36,0,1.19-.15,2.37-.25,3.56-.08,1-.16,1.93-.21,2.86a32.58,32.58,0,0,0,0,4.09c0,.8.07,1.6.07,2.4v1.37l0,1.33c-.05,1.19-.1,2.38-.12,3.58S.25,261,.18,262.41l0,.27c-.1,2-.21,4.34-.14,6.57,0,.94.09,1.88.16,2.83S.31,274,.34,275s.08,1.79.13,2.69l0,.34c.05.85.1,1.71.11,2.57,0,.64-.06,1.28-.11,1.92-.08,1.08-.13,2-.13,2.84s0,2,.07,3l.06,1.91c0,1.48,0,3,0,4.44,0,.63,0,1.25.06,1.89s.05,1,.06,1.46c0,.9-.06,1.81-.05,2.71,0,.44,0,.89,0,1.36v.74c0,.64,0,1.24,0,1.83l0,.94v.2l0,1.22v.64s0-.05,0-.05l0-.09c0,.19,0,.45,0,.71,0,1,.09,2.08.18,3.08l.06.75c0,.47.07.94.1,1.41a2.35,2.35,0,0,0,.27,1A2.94,2.94,0,0,0,4,316.86l.28.19a4,4,0,0,0,2.23.61l.54,0a5,5,0,0,0,.66-.09l.25-.05a2.66,2.66,0,0,0,.44,0c.26,0,.53,0,.8,0h.23l.8,0h2.88l.89,0h.33c.52,0,1,0,1.54-.09a8.13,8.13,0,0,0,1.11-.17l.17,0,.58-.1.34,0h.58l.69-.05h1.09l1.18,0c.62,0,1.3,0,2,0s1.39,0,2.09,0l1.68,0H30.1c1,0,1.73-.07,2.45-.16.23,0,.46-.08.69-.13s.48-.1.7-.13c.48,0,1,0,1.43,0l1.33,0a18,18,0,0,0,2.21-.18l.13,0,1.12-.13.77,0,.43,0,.47,0c.61,0,1.22-.06,1.83-.11a10.69,10.69,0,0,0,1.38-.21c.31-.06.61-.12.92-.16.68,0,1.36.05,2,.1l.71.06c1,.06,2,.08,3,.1.59,0,1.18,0,1.77.07l.55,0,.53,0c1,0,2,.06,2.94.07h.16c.62,0,1.24,0,1.87,0l1,0h3A28.63,28.63,0,0,0,67,315.8l.3,0c.6-.07,1.2-.15,1.79-.2s1.09,0,1.64.05h.51c.5,0,1,0,1.5,0,1.66,0,3,0,4.31-.11.41,0,.82,0,1.24,0,1,0,1.91,0,3.06.13l1,.07c1.09.08,2.32.18,3.48.18h.24c1.54,0,3.07,0,4.6-.08s3.33-.09,5-.23c2-.11,4.31-.17,7.16-.17,1.63,0,3.26,0,4.89,0h1l3.41,0c1.21,0,2.4.05,3.59.11,1.34.05,2.67.1,4,.1h.88l1.22,0c.79,0,1.59,0,2.38,0h.63l1.89.05,1.65,0h1c1.6,0,3.19-.07,5.05-.14h.15c.41,0,.83,0,1.24,0,1.27,0,2.56.07,3.76.15l1.11.06c1.31.07,2.63.09,4,.11L147,316c.47,0,.94,0,1.41,0,1.24,0,2.68-.05,4.49-.16.31,0,.61,0,.91,0,1,0,1.95.05,2.92.11l1.37.06c.43,0,.85,0,1.28,0s.92,0,1.38,0h2.36l2.12.09c1.1.06,2.2.11,3.29.11h.37c2.66,0,4.61-.09,6.32-.21l.54,0,.52,0,.37,0c.95,0,1.85-.09,2.74-.11l.72,0,1.41,0h.75c1.06.05,2.12.07,3.19.09l2.18,0h.92c1,0,1.91,0,2.86-.07l1.64-.05c2.27-.06,3.86-.14,5.33-.25.41,0,.83,0,1.25,0l1.74,0,1.56,0c1.2,0,2.35-.08,3.46-.16l.27,0,1.25-.09c1.22-.07,2.43-.13,3.65-.14h.25c.75,0,1.5,0,2.24.05s1.5,0,2.24,0,1.2,0,1.79,0l1.94,0c.83,0,1.51,0,2.18,0s1.49,0,2.22,0h.35c1.38,0,2.8.05,4.35.16l1.72.13c.88.07,1.76.15,2.65.18,1.54.07,3.09.11,4.64.14.5,0,1,0,1.48,0,1,0,1.95.06,2.89.06h.31c1.94,0,3.88-.05,5.82-.12l.83,0,1.62,0h.2l1,0h3.47c1.59,0,3.17.08,4.49.14l1,0,1.34.05,1.23,0c1.57,0,3.15-.09,4.68-.19l.3,0,.8,0c.71,0,1.42,0,2.14.07.45,0,.9,0,1.34.05l.34,0c.4,0,.79,0,1.19,0l2.56.1c.7,0,1.4.1,2.09.17l.68.08c2,.21,3.48.34,5.05.39l1.57,0c1.14,0,2.29,0,3.43-.1s2.18-.06,3.28-.06l2.26,0c1.71-.05,3.43-.13,5.14-.24.42,0,.84,0,1.26,0,.73,0,1.45,0,2.18,0l1.93,0h.3l1.47,0H309l1.34,0h.5a16.42,16.42,0,0,1,2.59.31l.32.06c1,.16,1.94.27,2.92.38a20,20,0,0,0,2.22.12c1.35,0,2.72-.13,3.76-.23a2.44,2.44,0,0,0,.77.16h.19a3,3,0,0,0,2.9-2.72,16.19,16.19,0,0,0,0-3.55c-.05-.28-.11-.54-.16-.82a8.56,8.56,0,0,1-.18-.94v-.22l.1-1.73c0-.34.06-.66.1-1l0-.16c0-.23.07-.45.1-.68a13.59,13.59,0,0,0,0-2.3l0-.46c-.06-1-.16-2-.26-3-.07-.69-.13-1.38-.18-2.06,0-1,0-1.92,0-2.87v-.48c0-1.64,0-3.32-.1-5,0-.4,0-.8-.07-1.2l0,.15c0-.42,0-.82-.05-1.21,0-1.13-.06-2.24-.13-3.36,0-.28-.05-.62-.07-.95l0-.61c0-.54,0-1.07,0-1.6l0-.45,0-.43a29.15,29.15,0,0,0-.12-3.24l0-.28c0-.6,0-1.2.06-1.79v-.2l0-.45a28.41,28.41,0,0,0-.06-3.36l-.06-1,0,.15v-.61l0-.72c0-1.5.05-3,.13-4.33l0-.6,0-.6c.05-.74.09-1.47.09-2.21s-.06-1.51-.11-2.26l0-.39,0-1.18c-.07-1.69-.14-3.61-.05-5.45l.06-1.33c0-.69.07-1.37.1-2.06.06-1.65,0-3.28-.1-4.51l0,.23v.14l0-.61c-.05-1.13-.15-2.26-.25-3.39l-.06-.73c-.05-.51-.09-1-.12-1.54-.06-1.56,0-3.18,0-4.6v-.44c0-.89.05-1.79.05-2.67,0-1.55,0-3.08,0-4.61v-1.3c0-.84,0-1.7,0-2.54s0-1.87.11-2.79c0-.49.06-1,.08-1.46.07-1.43.07-2.88.07-4.22s0-2.73,0-4.1l0-1.23,0-.48c0-.66.05-1.31.06-2,0-2.17.05-5,0-8l0-1.2v-.22c0-1.12-.07-2.27,0-3.41l0-1.13c0-.89.06-1.77.07-2.66s0-1.49,0-2.23,0-1.25.05-1.88c0-1.36,0-2.73,0-4.09-.05-2.75-.09-5.49-.08-8.23,0-1.24.09-2.49.18-3.6l0-.42c0-.66.09-1.32.12-2,.06-1.68,0-3.39-.11-5l0-.76a38.81,38.81,0,0,1,.06-5.66,28.11,28.11,0,0,0,.06-3.89l-.1-1.43-.1-1.42c0-1.45,0-2.85.06-4.28,0-.52.07-1,.11-1.55l0-.38c.05-.66.1-1.32.13-2,0-.87,0-1.73,0-2.6,0-.53,0-1.07,0-1.61v-.78c0-1.19,0-2.4.1-3.59s.14-2.2.21-3.31v-.2h0c.09-1.36.19-2.71.27-4s.07-2.75.07-4.09v-.74c0-.9,0-1.79,0-2.69,0-1.42.07-2.71,0-4-.07-1.45-.16-2.91-.26-4.36a68.18,68.18,0,0,1,.38-7.47c.14-1.66.21-3.15.26-4.27,0-1,0-2,0-3.42l0-.56v-.4c0-1.1,0-2.39.11-3.67s.2-2.69.26-4c.05-1.13,0-2.29-.05-3.31l0-.82c-.06-1.34-.06-2.75,0-4.31q.07-3,.1-6.09l0-2.29c0-.75,0-1.5.05-2.25l0-.74c0-1.93.09-3.84.07-5.75v-.57c0-1.89,0-3.82,0-5.74s.05-3.86-.08-6.32l0,.15v-.06c0-.59,0-1.18-.08-1.77l0-.54c0-.64,0-1.29,0-1.93v-.66a24.83,24.83,0,0,0-.22-3.71c-.1-.71-.17-1.42-.23-2.13l-.07-.78-.09-.74c-.06-.57-.12-1.15-.16-1.71l0-.38c0-1.22,0-2.42,0-3.63,0-2.83.05-6-.19-9.15,0-.54,0-1.08,0-1.62l0-.44c0-.21.05-.39.06-.58s0-.3,0-.44a3.23,3.23,0,0,1,0-.44c0-1.08,0-1.94,0-2.77,0-.35-.06-.7-.1-1l0-.28V9.11a13.48,13.48,0,0,0-.12-1.57,4.42,4.42,0,0,0-.1-.5l-.09-.41,0-.52c0-.22,0-.44,0-.66V5.27a13.35,13.35,0,0,0,0-1.79,3.25,3.25,0,0,0-.82-1.71c-1.93-.07-3.85,0-5.77,0a7.55,7.55,0,0,0-1.59,1,5.77,5.77,0,0,0-.67.64l-.29.3c-.39.38-.76.75-1.13,1.16l-2.39,2.75-.11.13-.12.13a5.68,5.68,0,0,1-.51.47,5.61,5.61,0,0,0-1.09.67,5.26,5.26,0,0,0-.75.83l-.14.1-.16.11a6.31,6.31,0,0,0-1.48,1.28,6.5,6.5,0,0,0-.58,1l-.08.18a4.4,4.4,0,0,0-.18,2.1l0,.62v.35l.13,0c0,.37,0,.74.05,1.11,0,1.19.05,2.38,0,3.57,0,.87-.1,1.72-.18,2.55l0,.3,0,.29,0,.21-.09.75-.05.6a29.24,29.24,0,0,0-.2,3.56c0,1.57-.08,3.18-.16,4.6,0,.74,0,1.47,0,2.3s0,1.4,0,2.11-.11,1.57-.19,2.37l0,.26,0,.21c-.05.54-.1,1-.13,1.51-.13,1.6-.14,3.25-.15,4.86,0,1.07,0,2.11-.05,3.16s-.05,2.21-.06,3.31v2.3c0,.3,0,.61,0,.91s0,.83-.06,1.26,0,.77-.06,1.17a41.34,41.34,0,0,0,.45,5.62l0,.41c.12.91.23,1.82.31,2.74l0,.69c.05,1.29.05,2.47,0,3.59,0,.56-.05,1.12-.09,1.72V74c-.05.77-.1,1.52-.12,2.27a37.3,37.3,0,0,0,.14,4.62c0,.44.09.88.14,1.32l.05.44,0,.46c0,.29.07.58.09.88,0,.86,0,1.75-.06,2.54v.36l0,.5a32.61,32.61,0,0,0,.05,4.31v.24c0,.69.05,1.37.09,2.06.06,2.72,0,5.41-.07,7.72s.08,5.15.17,6.6v.36c.08,1.63.15,3.51.09,5.43,0,.68-.05,1.36-.09,2.06l0,.46,0,.27,0,.41,0,.39,0,.37c0,.52-.05,1-.07,1.56a52.75,52.75,0,0,0,.06,6c.06.92.13,1.82.2,2.73l.06.74c0,.51.07,1,.11,1.54,0,1.16,0,2.73,0,4.52v.73l0,.65c0,.89,0,1.77,0,2.64,0,2.4,0,6,.22,9.32a2.44,2.44,0,0,0,0,.54c0,.16,0,.32,0,.49v1.17c0,.75,0,1.49,0,2.26,0,1.72-.06,3.38-.15,5.14-.06,1.22-.11,2.4-.14,3.57,0,.72,0,1.44,0,2.16s0,1.53,0,2.3l-.05,1.76c0,.93-.05,1.87-.06,2.81,0,2.93.11,5.91.25,8.7q.23,3.93.48,7.85c0,1.21,0,2.41.1,3.62v1.13l0,1.14,0,.8c0,1.78-.06,3.56-.11,5.34L309,201a62.23,62.23,0,0,0,.32,7.13l0,.22c.1,1.18.19,2.22.25,3.27.06,1.85,0,3.58,0,5.35v.4c0,.9-.05,1.79-.07,2.69,0,1.33,0,2.68,0,4V227c0,.42,0,.84,0,1.28,0,2.94.06,5.88.14,8.82V238c0,.8.05,2.3,0,3.61a38.35,38.35,0,0,0,.06,4.76l0,.39v.39l0,.77V248c.06,1.18.08,2.19,0,3.09,0,.3,0,.6-.06.91s0,.67-.07,1a19.57,19.57,0,0,0,.05,2.15l0,.69,0,.68v.51a35.34,35.34,0,0,0,.16,3.54c.08.82.12,1.67.17,2.54v.25l0,.47a27,27,0,0,1-.06,4.21,33.06,33.06,0,0,0-.17,3.85v.62c0,.7,0,1.39-.08,2.09a21.7,21.7,0,0,0,0,3c.06,1,.13,2,.21,3l.12,1.67c0,.66,0,1.31,0,2s-.1,1.13-.16,1.7l0,.23,0,.19-.07.57-.07.57c-.07.56-.13,1.1-.15,1.66,0,.74,0,1.48,0,2.23V292c.05,1.55.08,3.24,0,5.13a13,13,0,0,1-.4,2.52h-.32c-1.49,0-2.68,0-3.75.12H303.9l-2.17,0-1,0h-2.45a17.71,17.71,0,0,1-2-.14l-.31,0a40.9,40.9,0,0,0-4.31-.23H291c-1.14,0-2.3.11-3.43.19l-1.09.08c-.82,0-1.64,0-2.47,0s-1.93,0-3,0h-.74l-.63,0h-.23l-.43,0-.77,0c-1.14,0-2.27,0-3.39,0-1.41,0-2.87,0-4.29-.07-1-.07-2.2-.17-3.65-.32a35.42,35.42,0,0,0-3.56-.17h-.58c-.67,0-1.33,0-2,0l-1.72,0h-.31c-1.07,0-2.15,0-3.22-.07l-.71,0c-.57,0-1.15-.05-1.72-.05h-.52c-.89,0-1.78.09-2.67.17l-.91.07c-1,.05-1.9.08-2.84.08h-.71c-1.24,0-2.48,0-3.73,0h-.75c-.62,0-1.24,0-1.86,0h-.73l-.76,0h-.27l-1.74,0h-.38l-1.14,0h-.25c-.75,0-1.52,0-2.29,0l-1.44,0h-4l-1.64,0-1.64,0h-.38L220,299l-2.44,0-2.52-.06-.48,0h-1l-1.92,0c-.32,0-.63,0-1,0h-2.48l-1.23,0h-.19c-1.11,0-2.21,0-3.32.1l-.25,0-.2.11h-.32c-.32,0-.64,0-1,0l-.56,0-.67.05-1.55.1c-.62,0-1.25,0-1.89.05s-1.25,0-1.87.06-1,.06-1.57.11l-.2,0-.24,0-.34,0-.27,0-.19,0-1.3.12q-1.12.06-2.25.06l-1.3,0c-.88,0-1.76-.1-2.64-.17l-1.76-.12c-1.19-.08-2.41-.08-3.66-.08h-6.56c-.6,0-1.2,0-1.8,0-.88,0-1.76-.12-2.65-.2l-1.12-.11a39.24,39.24,0,0,0-4-.12h-2.1c-.81,0-1.62,0-2.43,0s-1.62-.09-2.59-.17l-1.69-.1-2.57-.22h-.22l-.24,0-.26,0-.82-.08c-.7-.06-1.41-.14-2.09-.21l-.72-.07-1.29-.13c-1.14-.11-2.38-.13-3.59-.15l-.83,0c-1.86,0-3.69-.15-6.45-.34l-1.32-.1c-.84-.07-1.79-.09-3.09-.09-1,0-1.93,0-2.89,0-.72,0-1.41,0-2.09,0h-.42l-1.17,0H124l-.47,0h-.78l-2-.05h-.5c-1.34,0-3,.07-4.77.22l-.29,0H115c-.81,0-1.61.05-2.42.05h-2.29l-1,0h-.18c-.61,0-1.22,0-1.85.09l-.45,0c-1.21.05-2.42.07-3.63.07-1.78,0-3,0-4.09.11h-.37c-.7,0-1.4-.07-2.26-.15l-.19,0h-.23c-1.09-.12-2.2-.25-3.29-.39a38.07,38.07,0,0,0-4.64-.26H87c-1.9.05-3.8.08-5.7.1h-.55l-1,0H78.38c-.82,0-1.64-.05-2.47-.05-.5,0-1,0-1.49,0l-.83.06-.84.07h-.68c-.94,0-1.87-.05-2.82-.11l-.47,0-.25,0-.27,0-.31,0-.68-.06c-.34,0-.67,0-1,0l-1,0-.69,0c-.56,0-1.13,0-1.69,0h-.52c-.79,0-1.58,0-2.36.06h-.3a20.64,20.64,0,0,0-2.64.22l-.32.05-.37.06-.3.05-.16,0c-.4.06-.79.13-1.18.16s-1.06,0-1.6,0H51.9c-.71,0-1.34.05-2,.11l-.17,0-.14,0-.9.09h-.52c-1.22,0-2.37-.09-3.35-.18-.36,0-.73,0-1.09,0-.9,0-1.88.07-2.54.13l-.79.07h-.74l-1.17,0H37.13l-1,0H34.41c-.56,0-1.13-.1-1.89-.19l-.21,0-.22,0-1-.13a8.11,8.11,0,0,0-1.1-.06,17.06,17.06,0,0,0-2.12.12h-.3c-.69,0-1.37,0-2-.08l-.78-.06h-.51c-.66,0-1.32.06-2,.12l-.43,0c-.53,0-1,0-1.4-.05l-.89,0H18.24l-.31-.09h-.1a4.31,4.31,0,0,0-1,.24l-.17.06c0-.26,0-.47,0-.68v-.37c0-1.39-.1-3.3-.31-5.08a73.8,73.8,0,0,1-.62-8.07c0-1.72,0-3.43,0-5.15v-4.47c0-.53,0-1.05,0-1.57,0-1.25.07-2.62.12-4v-.74c0-1.29.09-2.57.09-3.85,0-.87-.07-1.77-.14-2.55l0-.34c0-.33-.06-.63-.07-.93-.08-1.16-.13-2.33-.17-3.5l0-.55c0-1.4-.14-2.81-.25-4.23l0-.5c-.06-.85-.12-1.7-.16-2.56-.12-2.17-.29-4.59-.51-7.2-.11-1.19-.16-2.53-.17-4.1,0-.81,0-1.62,0-2.44l-.06.15,0-.61c0-.78,0-1.53,0-2.28l-.08-1.08c0-.44-.05-.88-.08-1.32-.11-2.14-.16-3.77-.15-5.3,0-1.86,0-3.73-.09-5.6V218c0-1.56-.07-3.12-.07-4.69v-2.78l-.07.19c0-.36,0-.79,0-1.21,0-1.51,0-3-.14-4.65-.15-1.89-.17-3.93-.17-5.67v-.52c0-1,.08-2.08.14-3.12l.08-1.56c0-1.16,0-2.37,0-3.43v-.26l0-1.27,0-1v-1.48c0-.14,0-.28,0-.41,0-.86,0-1.67,0-2.49s0-1.49,0-2.2v-1.8c0-.74.06-1.48.07-2.23,0-1.11,0-2.21,0-3.3l0-1.88c0-.44,0-.87,0-1.31l.05-1.53c0-.6,0-1.21,0-1.81v-.81c0-.53,0-1.06,0-1.59v-.31c.05-1.69.11-3.33.11-5,0-1,0-2.08-.06-3.12,0-.75,0-1.5-.05-2.25l.05-1.93c0-1,0-2,.07-2.94s0-2.26,0-3.39V143.4c0-1,0-2.05.05-3.07v-1.9c0-.6,0-1.29,0-2v-.68c0-1.11,0-2.21.07-3.32.06-1.83.11-3.62.11-5.42,0-1.28.06-2.42.1-3.56v-.25c.05-1.55.11-3.35.1-5.11v-1c0-2.42,0-4.85,0-7.27,0-2.08-.05-4.22-.11-6.11v-.26c-.06-1.91-.12-3.83-.12-5.75l0-1.47c0-1,0-2,.05-2.94v-.73q0-1,.09-2l0-.28,0-.5c.07-1.2.1-2.4.11-3.6,0-1,0-2,0-3.06,0-1.3.06-2.6.06-3.92s.1-2.51.18-3.81l.06-.76c.11-1.78.12-3.54.11-5.17v-.74c0-.56,0-1,0-1.56V66.05c0-.79,0-1.58,0-2.36l0-.78c0-1.47.07-2.95.08-4.43v-.67c0-2,.07-4,.05-6.08,0-.91-.08-1.94-.19-3.31a28.92,28.92,0,0,1-.11-3l0-1.77c0-.85,0-1.53,0-2.22l0-.41c0-.66,0-1.31,0-2v-.32c0-1.37.1-2.74.16-4.12l.05-1c.08-2,.1-3.92.12-5.69,0-.74.06-1.49.1-2.23l.06-1c.06-1.2.11-2.38.11-3.57l0-.37v-.4l0-.41c0-.78.05-1.56.05-2.34,0-.95,0-1.92,0-2.88l0-.68,0-.93c0-.65,0-1.3,0-2l0-.47,0-.49c0-.3,0-.57,0-.83V9.05c0-.21,0-.39,0-.55,0-.45-.05-.8-.09-1.19a4.57,4.57,0,0,1,0-.52,7.61,7.61,0,0,0-.1-.86l-.05-.23a4.27,4.27,0,0,0-.27-.9,4.39,4.39,0,0,0-1.21-1.55,6.29,6.29,0,0,0-1.1-.66,3.62,3.62,0,0,0-1.71-.36l-.18,0a10.63,10.63,0,0,0-1.25-.08,5,5,0,0,0-1.34.25l-.18.05-.4,0-.19,0H7.22a3.49,3.49,0,0,0-1.14.19.83.83,0,0,0-.24-.26A3,3,0,0,0,4,1.64l-.35,0Z"/><path class="cls-1" d="M9.55.23a14.32,14.32,0,0,0-1.73.2,10.24,10.24,0,0,0-1.92.69,14.24,14.24,0,0,0-2.63,1.8A2.88,2.88,0,0,0,3.05,7a2.93,2.93,0,0,0,2,1,3,3,0,0,0,2-.74c.27-.21.54-.42.82-.62s.59-.32.89-.46A6,6,0,0,1,9.53,6a27.94,27.94,0,0,1,3.66.16c1.46.14,2.92.22,4.38.3,2.73.16,5.46-.07,8.18-.1,1.46,0,2.9.07,4.35.18s2.94.19,4.4.32a76.56,76.56,0,0,0,8.83.12c3.05-.1,6.09-.13,9.14-.08s6.16-.22,9.24-.32A36.47,36.47,0,0,1,66,6.61c1.51.13,3,.23,4.53.24,3,0,5.9,0,8.84-.1a85,85,0,0,1,9.31.06c1.48.1,3,.14,4.44.19s3.06.19,4.59.3c3,.21,5.91.44,8.87.56,1.54.06,3.07.06,4.6,0s3.17-.12,4.76-.1c1.33,0,2.66.16,4,.21s2.78,0,4.16,0c2.87,0,5.74.16,8.6.18,1.54,0,3.08,0,4.62,0s3.13.1,4.7.1c1.42,0,2.83-.08,4.24-.09s3,0,4.53,0,2.87,0,4.31,0c2.21,0,4.42-.09,6.63,0,.93,0,1.87.09,2.81.12a25,25,0,0,0,3.23-.15c1.57-.14,3.12-.4,4.68-.57,1.31-.1,2.63-.14,3.95-.14s2.89.07,4.34.12,2.84,0,4.25,0,2.64,0,4,0c3.1,0,6.2-.06,9.3-.12s6.19-.13,9.28-.16,6.13,0,9.19,0c1.45,0,2.9,0,4.34,0,1.16,0,2.32,0,3.48,0h1.27c1.46,0,2.93-.07,4.39-.12a44.47,44.47,0,0,1,4.62.14,75,75,0,0,0,9,.46c1.4-.07,2.79-.28,4.17-.44a53.62,53.62,0,0,1,5.38.17,39.12,39.12,0,0,0,5.93-.24c1.91-.13,3.84-.1,5.75-.13s3.6,0,5.4,0,3.76.21,5.65.09,3.94-.46,5.92-.7c2.46-.16,4.89.14,7.35.15,1.25,0,2.51,0,3.76-.11s2.57-.23,3.86-.36a20.63,20.63,0,0,1,3.24.07,18.9,18.9,0,0,0,3,0h-.07a34.53,34.53,0,0,1,4.31.19,28.59,28.59,0,0,0,4.14-.05l-.73.07a17.52,17.52,0,0,0,1.9-.21c.5-.09,1-.27,1.47-.39a10.43,10.43,0,0,1,1.5-.25,3.26,3.26,0,0,0,.68.32,2.87,2.87,0,0,0,2.15-.19A3.11,3.11,0,0,0,320,4a2.82,2.82,0,0,0-.12-2.27l-1.39,0c-2.86.08-5.74-.13-8.59-.32-.91-.07-1.82-.17-2.72-.28l-3.26,0a27.47,27.47,0,0,1-4.06-.09c-.84.06-1.69.09-2.53.07A25.25,25.25,0,0,1,293.67.8a69.23,69.23,0,0,1-7.89,0,29.46,29.46,0,0,0-5.06.15c-1.29.16-2.56.38-3.85.52a35.72,35.72,0,0,1-4.51,0c-1.43-.07-2.85-.09-4.27-.1a92,92,0,0,0-10.37.32,52.9,52.9,0,0,1-6.66-.09,24.39,24.39,0,0,0-3.82.06c-1,.09-1.93.23-2.89.33a61,61,0,0,1-8.86-.41c-1.5-.12-3-.14-4.51-.16s-2.91.09-4.36.11c-.73,0-1.46,0-2.19,0h-2.59c-1.45,0-2.9.07-4.34.06-3.07,0-6.12-.09-9.18-.05l-4.82.06c-1.5,0-3,.09-4.5.11-3.09,0-6.19.13-9.28.13-2.75,0-5.49.07-8.24,0-1.44,0-2.89-.15-4.34-.13s-2.72,0-4.09.11c-2.11.11-4.19.48-6.3.71a44.28,44.28,0,0,1-4.75,0c-1.3-.06-2.6-.12-3.9-.09l-4.53.12c-1.48,0-2.95,0-4.42,0-2.92,0-5.84.16-8.75.1-1.57,0-3.14-.08-4.7-.09s-2.91,0-4.36-.06c-2.92-.1-5.83-.15-8.75-.15s-5.52-.32-8.28-.23c-3,.1-6.07.15-9.11,0s-6-.37-9-.61c-1.51-.13-3-.16-4.51-.21S88.63,1,87.12,1,83.9.94,82.3,1s-3.11.11-4.67.13-2.95,0-4.43,0-2.79,0-4.18,0S66,.81,64.55.79s-2.94,0-4.42.07-3.05.2-4.58.25-3.07,0-4.59,0c-3.13-.06-6.26.1-9.39.16-1.45,0-2.9.06-4.35,0S34.28,1,32.81.94L28.75.65a42.25,42.25,0,0,0-4.64,0A77.54,77.54,0,0,1,14.47.47C13.17.36,11.85.2,10.53.2c-.33,0-.66,0-1,0Z"/><path class="cls-1" d="M181,9.55c-1.4.11-2.81.08-4.22.07s-2.73,0-4.09,0c-2.74.06-5.49.26-8.23.29-1.31,0-2.61-.06-3.92-.07s-2.65,0-4,.1a71,71,0,0,1-7.72-.17c-1.42-.09-2.82-.1-4.23-.06s-2.7.14-4.05.12-2.76-.11-4.14-.18-2.92,0-4.38,0c-1.29,0-2.57,0-3.85,0s-2.78,0-4.16,0c-2.6,0-5.19,0-7.79-.11-1.29,0-2.59,0-3.88,0s-2.85-.08-4.28-.08c-2.8,0-5.58.34-8.37.38-1.36,0-2.72,0-4.07,0-1.51,0-3,.08-4.51.17-.78.05-1.56.14-2.34.17s-1.52,0-2.28,0c-1.29-.08-2.59-.14-3.88-.17-1.46,0-2.92,0-4.37.14-1.25.09-2.51.07-3.77.08-2.79,0-5.58,0-8.37.08-1.47,0-2.94.21-4.41.24-1.19,0-2.38-.07-3.57-.13s-2.64-.07-4,0c-1.49.06-3,.08-4.46.13-.8,0-1.59,0-2.39,0H46.07c-1.4,0-2.81,0-4.22.09-1.62.07-3.23.14-4.85.16l-3.65,0c-2.63,0-5.26.29-7.9.3-1.4,0-2.81,0-4.22.07-1.22.06-2.42.13-3.63.13-1,0-1.91,0-2.85-.06-1.16,0-2.31,0-3.46.08a3.05,3.05,0,0,0-2,.74,2.87,2.87,0,0,0,1.82,5c1.48-.06,3-.11,4.46-.06,1.24,0,2.48.06,3.73,0l.67,0v-.05a1,1,0,0,1,.15-.1c.95,0,1.91-.09,2.87-.12h2c.91,0,1.81,0,3-.06h.62c1.74-.09,4.11-.21,6.35-.22,1.77,0,3.43,0,5.73-.14l3.28-.12c1.28,0,2.56,0,3.84,0s2.67,0,4,0l1.52-.05h1l.41,0h.92l.57,0,1,0h1l.24,0,.41,0h.21c.2,0,.41,0,.62,0,.38,0,.75,0,1.13,0,.92,0,1.86,0,2.87-.1,1.37-.09,2.77-.13,4.19-.16h.33c1.32,0,2.65,0,4,0h4c.81,0,1.6,0,2.44-.09l.37,0,.65,0,.62,0,1.63,0c.87,0,1.73,0,2.58.07l1,0c.85.06,1.69.11,2.54.11.2,0,.4,0,.6,0,.59,0,1.19,0,1.85-.09l.28,0,.23,0c.82-.06,1.64-.13,2.46-.16s1.51,0,2.27,0h2.93c1,0,2.1,0,3.15-.08l1.08-.06.32,0,.4,0,2.16-.14c.71,0,1.43,0,2.15,0l1.5,0h.88c1.23,0,2.46,0,3.7.06s2.66,0,4,.06,2.85.07,4.27.07h4.13c.82,0,1.65,0,2.48,0h1.76l1.55,0h.41l.45,0h1.18c1,0,1.93.06,2.9.11,1.24.05,2.47.1,3.71.1.53,0,1.05,0,1.58,0h.4c1,0,2.09-.09,3.14-.09h.86l1.79.09h.39l.37,0,.36,0,.81,0c1,.06,2,.1,3.08.1,1.44,0,2.88-.05,4.37-.11l.59,0,1.61,0,1.17,0h2.93c.67,0,1.34,0,2,0,3-.12,5.64-.23,8.39-.27h4c.8,0,1.59,0,2.47-.1l.26,0,.78,0,.74-.05c1-.05,2-.08,2.95-.08h.92c.86,0,1.71.08,2.57.15l.34,0,1.37.08c.75,0,1.48.05,2.23.05s1.64,0,2.46,0h4.89c.95,0,1.9,0,2.85-.06l1.53,0c.78,0,1.56,0,2.33,0l.85,0c1.26,0,2.53,0,3.8,0,1.51,0,3,0,4.54.05l.35,0c1.23,0,2.46.09,3.69.09h.15c.92,0,1.83,0,2.84-.07l.92,0,1.49,0,.86,0c.51,0,1,0,1.54-.08s.79,0,1.19,0l.6,0h1.1l1,0h2.5l1.61,0c.62,0,1.26,0,1.89-.06h.27c.56,0,1.13,0,1.7,0h.33c2,0,3.93.07,5.9.07.82,0,1.63,0,2.45,0h.64c1,0,1.95,0,2.91.09.37,0,.73,0,1.1,0,.56,0,1.13,0,1.69,0l1.48,0h.61c1.4,0,2.81,0,4.22.07l.6,0c1.19,0,2.36.06,3.53.06h4.13l.68,0c.82,0,1.66.06,2.54.1l.8,0,1.76.06.58,0,1.38,0c1.14,0,2.26.09,3.39.09.37,0,.74,0,1.12,0,.95,0,1.89-.06,2.89-.12l1.45-.09c.44,0,.88,0,1.33,0,.78,0,1.57,0,2.35,0l.48,0h.64c.83,0,1.67,0,2.5-.09l.23,0,1.09-.06c.59,0,1.18,0,1.76,0s1.43,0,2.15.07c2.91.18,5.52.26,8,.26h1l.48.13h0l.37,0,1.56.16a2.86,2.86,0,0,0,2.43-5.13,6.27,6.27,0,0,0-2.7-.64,15.13,15.13,0,0,0-1.51-.14c-1.2,0-2.39,0-3.59,0s-2.55-.05-3.83-.1-2.54-.17-3.82-.21c-1.46-.05-2.94.11-4.4.19s-3,0-4.5,0c-1.34,0-2.66.08-4,.16s-3,.13-4.47.11-2.73-.14-4.09-.17-2.63-.06-3.94-.12-2.68-.12-4-.1-2.71,0-4.06,0c-3-.09-6-.14-9,0-1.33,0-2.66-.07-4-.12s-2.71,0-4.06,0c-1.09,0-2.18,0-3.27,0-1.62,0-3.24-.07-4.85,0-2.69.09-5.36.09-8,.06s-5.28.08-7.91.21-5.54-.09-8.31-.1-5.72-.06-8.58-.12c-.74,0-1.47,0-2.21,0s-1.68,0-2.52.05-1.67,0-2.5,0h-1.86c-1.25,0-2.51.05-3.76,0-1.44,0-2.88-.1-4.31-.21-.94-.07-1.88-.09-2.82-.09-1.64,0-3.27.09-4.9.21Z"/><path class="cls-1" d="M14.82,4.37c-1.13,0-2.26.11-3.39.1a37,37,0,0,0-4.7.2,7,7,0,0,0-.91.17c-.22,0-.45.13-.67.2a4.6,4.6,0,0,0-1.56.79,2.88,2.88,0,0,0-1,2.9A3.21,3.21,0,0,0,4.74,11a8.58,8.58,0,0,0,2.09.31c.74,0,1.49.06,2.23.09,1.2.05,2.39.06,3.59.11,3,.1,5.94.22,8.92.25,6.33.08,12.67.21,19,.48S53,13.07,59.29,13c3.06,0,6.1.1,9.15.26,1.45.07,2.89.1,4.34.18,1.61.08,3.22.08,4.84,0,3,0,6-.44,9-.37s5.93.19,8.9.14,5.74-.33,8.61-.45c1.92-.08,3.86-.07,5.79-.06,1.08,0,2.16,0,3.24,0,6.22-.06,12.44,0,18.66,0,3.12,0,6.24-.12,9.36-.18s6.27-.13,9.41-.27,6-.31,9.08-.42,5.84-.19,8.76-.28c3.3-.1,6.6-.15,9.9,0,3,.1,5.92.32,8.87.34,1.54,0,3.08-.06,4.62-.06h5.14c3,0,6-.24,9-.19,1.45,0,2.89.15,4.34.23s3.11.19,4.67.25c3.1.13,6.18-.11,9.28-.25s6.11-.38,9.17-.47,6.09-.13,9.13-.16c1.44,0,2.89,0,4.34,0,1.69,0,3.38,0,5.06,0h2.2c.82,0,1.63-.08,2.45-.11,1.34-.06,2.67-.17,4-.14,2.92.05,5.83.26,8.74.4,1.38.07,2.77,0,4.15,0,1.19,0,2.36-.05,3.54,0,1.65,0,3.28.11,4.91.11a53.07,53.07,0,0,0,5.35-.42c1.07-.08,2.13-.13,3.21-.11s2.4.09,3.6.11,2.23.05,3.35,0,2.46-.08,3.7-.1a28.84,28.84,0,0,1,4.16.2c1.14.14,2.28.32,3.43.38a18.67,18.67,0,0,0,4.54-.21,18.92,18.92,0,0,0,4.21-1.63,2.87,2.87,0,0,0-2.62-5.1c-.65.31-1.31.62-2,.9a9.81,9.81,0,0,1-1.61.34,44.89,44.89,0,0,1-6.12-.45,47.11,47.11,0,0,0-7-.08c-2,.07-4,0-6-.09-1.17,0-2.34-.08-3.51,0s-2.56.22-3.85.34-2.53.17-3.81.17-2.78-.09-4.17-.13c-1.2,0-2.4,0-3.59,0-1.37,0-2.73.06-4.1,0-2.95-.13-5.89-.38-8.84-.39-1.36,0-2.72.1-4.07.18-1.51.08-3,0-4.51.09-1.73,0-3.45,0-5.17,0-1.4,0-2.81,0-4.22,0-3.08,0-6.17.07-9.26.17s-6.12.35-9.18.48-6,.34-9.07.21S208.64,6,205.57,6s-6.13.17-9.19.2h-4.71c-1.63,0-3.26.07-4.89.05-3,0-6-.26-9.05-.37-3.24-.11-6.49,0-9.74.09-2.93.09-5.87.17-8.8.28s-6,.28-9,.42c-1.55.08-3.11.16-4.66.19s-3.1,0-4.65.07C138,7,135.13,7,132.27,7a2.54,2.54,0,0,0-1.68-.62c-3,.25-6,.35-9.07.36s-6.12-.06-9.18-.34c-1.58-.14-3.16-.25-4.74-.35s-3.28-.28-4.92-.39-3.19-.1-4.8-.09h-2c-.94,0-1.88,0-2.82,0-3.27.09-6.53.22-9.79.07-2.94-.13-5.88-.26-8.82-.24s-6-.09-9.06-.32c-1.38-.1-2.73-.26-4.11-.24-1.54,0-3.08.08-4.62.19a78.69,78.69,0,0,1-9.59.08c-1.48-.08-2.94-.24-4.42-.29s-3.06,0-4.58.07-3.15.21-4.72.31a41,41,0,0,1-4.57-.08c-1.5-.09-3-.31-4.46-.46s-2.94-.27-4.42-.39c-.64,0-1.28-.06-1.93-.06-1.06,0-2.13.05-3.19.1Zm272.41,6.79-.68.06.68-.06Z"/><path class="cls-1" d="M19.4,0c-.87,0-1.74.08-2.62.16-2,.16-4,.2-5.94.23A32.61,32.61,0,0,1,6.42.33C6.27.29,6.13.26,6,.21A3.39,3.39,0,0,0,4.26.11,3.21,3.21,0,0,0,2.79.85a2.82,2.82,0,0,0-1,1.42,3.69,3.69,0,0,0-.06,1.62,1.72,1.72,0,0,0,.11.5,6.08,6.08,0,0,0,0,1c0,.07.05.16.07.24A3.18,3.18,0,0,0,2.68,7a2.61,2.61,0,0,0,.24.23A4.86,4.86,0,0,0,3,7.79,4.6,4.6,0,0,0,3.22,10l-.08-.21A8.09,8.09,0,0,1,3.42,11a6.15,6.15,0,0,0,.13.86A13.15,13.15,0,0,0,4,13.07a7.38,7.38,0,0,0,.89,1.42l.3.43.56.86a3,3,0,0,0,1.7,1.43A2.85,2.85,0,0,0,11,15.32a2.8,2.8,0,0,0-.19-2.16c-.44-.69-.9-1.37-1.37-2a5.54,5.54,0,0,1-.3-.53,4.35,4.35,0,0,1-.1-.52l0,.2a10.09,10.09,0,0,0-.37-1.8,2.52,2.52,0,0,0,.07-.56A3.75,3.75,0,0,0,8.6,6.68V6.54c0-.13,0-.26,0-.39l1.23,0c2.49,0,5-.07,7.48-.29,1.7-.13,3.41-.09,5.1,0,1.11,0,2.21,0,3.32,0,1.36,0,2.72,0,4.08.08S32.7,6,34.15,6A31,31,0,0,1,38,6c1.23.11,2.47.19,3.7.25,1.46.08,2.91.1,4.36.28a25.77,25.77,0,0,0,4.21.13c2.72-.09,5.42-.24,8.13-.34A85.69,85.69,0,0,1,67,6.23c1.33.09,2.67.07,4,.11s2.75,0,4.12,0c2.74,0,5.46-.11,8.18-.27S88.57,6,91.18,6s5.34-.12,8-.11c1.39,0,2.76.13,4.14.19s3,0,4.49-.08,2.81,0,4.22,0H114c1,0,1.94,0,2.91,0,1.2,0,2.4.11,3.6.12,1.35,0,2.71,0,4.07,0s2.75-.06,4.14,0,2.61,0,3.91.08c1.51.06,3,.13,4.51.1l3.75,0c1.38,0,2.76,0,4.15,0s2.68,0,4,0,2.55,0,3.83.06,2.39,0,3.58-.06c2.42-.06,4.84.11,7.26.13,2.74,0,5.49,0,8.23,0,1.13,0,2.26,0,3.4.07,1.47,0,2.95.11,4.42,0,1.28,0,2.56-.17,3.83-.3,2.55-.19,5.1-.12,7.66-.16,1.36,0,2.72-.11,4.09-.17s2.67-.06,4-.07c2.7,0,5.38.19,8.07.31,1.34.07,2.69.06,4,.09s2.79.07,4.18.11,2.83.07,4.25.07c.61,0,1.23,0,1.86,0,.85,0,1.7,0,2.56,0,1.4.06,2.8.17,4.2.22,1.13.05,2.26,0,3.39.08,1.45.11,2.92.13,4.37.12s2.62-.17,3.93-.18c2.44,0,4.88,0,7.33-.06,1.58-.05,3.17-.1,4.75-.08s3.11,0,4.66-.08,3.37-.09,5.05-.06c.93,0,1.85,0,2.78,0,1.37,0,2.73.08,4.1.08s2.65-.07,4,0,2.64.17,4,.23a30.17,30.17,0,0,0,4.36-.19h.07l-.68.06c1.87-.15,3.71.14,5.57.15,1,0,2-.09,2.93,0,1.13.06,2.25.14,3.37.24,2,.17,4.05.37,6.08.45l3.1.1a19.63,19.63,0,0,1,2.64.33h0l.21,0a4.51,4.51,0,0,0,.53.09l-.43-.07c.93.15,1.86.25,2.79.39a7.63,7.63,0,0,0,1.43.24,2.87,2.87,0,0,0,.22-5.73l-.24,0c-.89-.16-1.78-.27-2.69-.39-1.15-.2-2.31-.4-3.47-.53s-2.26-.09-3.38-.14c-2.25-.11-4.5-.31-6.75-.5C291.27,1,290.14.84,289,.82c-.53,0-1.07,0-1.6,0s-1.06,0-1.58,0c-1.11,0-2.21-.17-3.32-.19-.85,0-1.68,0-2.52.12a29,29,0,0,1-3.84,0c-1.3-.08-2.6-.21-3.9-.19s-2.7,0-4.06,0-2.9-.08-4.36-.06-2.66-.08-4-.1-2.56.12-3.84.18c-.93,0-1.86,0-2.79,0-.62,0-1.24,0-1.86,0-1.51,0-3,.08-4.53.1-1.12,0-2.23,0-3.34,0-1.32,0-2.63,0-3.95,0s-2.72.17-4.1.16-2.76-.11-4.14-.18c-1.23-.05-2.48,0-3.72-.07-1.4-.06-2.8-.21-4.2-.18s-2.8.1-4.2.08-2.85-.05-4.27-.1c-2.73-.1-5.46-.1-8.18-.21-1.4-.06-2.79-.18-4.19-.22s-2.6,0-3.9,0c-2.72,0-5.44.2-8.16.23-1.35,0-2.71,0-4.07,0-1.55,0-3.07.16-4.61.31-1.3.08-2.58.13-3.87.1L173.65.63c-1.19,0-2.39,0-3.58,0-.77,0-1.54,0-2.31,0h-1.69c-2.59,0-5.19-.09-7.78-.14-1.24,0-2.48,0-3.71,0s-2.35,0-3.52,0c-.64,0-1.27,0-1.9,0s-1.34,0-2,0c-1.45,0-2.9-.06-4.36-.06-.71,0-1.42,0-2.13,0s-1.18,0-1.77,0c-1.37,0-2.75.1-4.12,0-3-.19-6-.16-9-.13-2.37,0-4.74,0-7.11,0-1.48,0-3,0-4.44,0s-2.88,0-4.32-.05-3,.06-4.52.11-2.69-.08-4-.14c-2.62-.13-5.25-.07-7.87,0-1.4.05-2.79,0-4.18,0s-2.62,0-3.94,0C82.69.33,80,.57,77.3.6s-5.37,0-8,0c-1.52,0-3-.12-4.56-.12s-3,.08-4.51.13c-2.68.1-5.36.2-8,.33-1.33.06-2.68.14-4,.11S45.3.68,43.88.63s-2.68-.07-4-.19S37.26.2,36,.21,33.18.3,31.8.21,29,.13,27.52.09c-.56,0-1.12,0-1.67,0s-1.31,0-2,0C22.67,0,21.44,0,20.22,0ZM306.24,2.25l.38.07-.38-.07ZM8.54,6.5l0,0h0l0,0Z"/><path class="cls-1" d="M14.67,13.07c-.12.93-.2,1.85-.34,2.78-.2,1.28-.39,2.55-.52,3.84-.25,2.58-.15,5.18-.28,7.77-.07.78-.14,1.56-.18,2.34s-.07,1.83-.13,2.74c0-.24,0-.48.06-.72-.12,1.62-.19,3.25-.26,4.86s-.32,3.13-.45,4.68c-.13,1.78-.17,3.57-.22,5.36s-.06,3.65-.12,5.47c-.05,1.65,0,3.29-.06,4.93-.12,1.21-.29,2.41-.42,3.62a40.54,40.54,0,0,0-.22,4.55c0,1.23.1,2.47.1,3.7s-.05,2.69-.05,4c0,2.8,0,5.59,0,8.37s0,5.25,0,7.88c0,1.48.08,2.94.19,4.41s.21,2.7.24,4-.08,2.88,0,4.33c0,.8.08,1.6.07,2.39,0,.51,0,1-.06,1.54-.21,2.5-.46,5-.59,7.51-.1,2.18,0,4.35,0,6.53.09,3.91.19,7.84,0,11.75-.09,1.2-.17,2.41-.16,3.64s.07,2.54.12,3.8c.1,2.37.11,4.74,0,7.12-.06,1.44-.12,2.88-.15,4.33,0,1.29-.09,2.59-.09,3.89,0,2.49.21,5,.29,7.45s0,4.92-.12,7.38-.16,5.19-.23,7.79-.14,5.23,0,7.84c.05,1.3.07,2.6.09,3.91s-.11,2.55-.09,3.83c0,.72,0,1.44,0,2.17s0,1.18.05,1.78c0,1.29,0,2.59.08,3.88s0,2.49-.11,3.73-.13,2.69-.17,4-.1,2.84-.09,4.26c0,1.2.15,2.39.18,3.58.08,2.64,0,5.26.06,7.89,0,1.86.07,3.73,0,5.59-.21,2.63-.25,5.28-.21,7.93,0,1.13,0,2.26,0,3.39s.13,2.35.16,3.53c.05,2.54.12,5.09.19,7.64,0,1.37.05,2.75.11,4.12s.15,2.46.19,3.69.16,2.48.22,3.73.09,2.64.15,4c.14,2.61.43,5.2.63,7.8.18,2.35.36,4.69.43,7.05.1,2.74-.09,5.48-.22,8.23-.09,1.82-.17,3.64-.28,5.45s0,3.48,0,5.21c-.06.66-.12,1.32-.19,2a3.12,3.12,0,0,0,.4,2.13,2.92,2.92,0,0,0,1.84,1.26,3,3,0,0,0,2.13-.4,2.72,2.72,0,0,0,1.25-1.84c.16-1.64.34-3.28.34-4.92,0-.8,0-1.6,0-2.39l-.15-.05c0-.53,0-1.06,0-1.6.22-3.29.36-6,.41-8.39l.05-1.1v-.24c0-.82.06-1.63.05-2.43,0-1.26-.07-2.51-.14-3.76-.05-1.5-.18-3-.34-4.72l0-.35,0-.38-.15-1.73c-.22-2.83-.39-5.32-.5-7.86-.05-1.3-.12-2.6-.21-3.89,0-.56-.05-1.12-.07-1.69l0-.37v-.31c0-.39,0-.79-.07-1.19-.1-1.56-.14-3.16-.19-4.82V252c0-1-.05-2-.09-3s-.05-2.14-.06-3.2v-.54c0-.83,0-1.67-.09-2.5l-.06-1.15c0-1,0-1.91,0-2.87v-.33c0-.63,0-1.26,0-1.89,0-1.73,0-3.65.09-5.69.13-1.52.2-2.83.2-4s0-2.56-.06-4c0-.95,0-1.9,0-2.95,0-1.55,0-3.15-.07-4.81l0-.28v-.15c-.06-1-.13-2.19-.12-3.35q0-1.25.06-2.49c0-.59,0-1.19.05-1.79,0-1.26.11-2.54.19-3.81.07-1,.08-2.18,0-3.78v-.85l0-.85c0-.74,0-1.47,0-2.2,0-1.48,0-2.9,0-4.2.14-2.55,0-5.13-.07-7.55,0-1.07,0-2.21,0-3.41v-.51c0-.59,0-1.18,0-1.76v-.59l0-1.56c0-2.6.14-5.2.24-7.8.14-2.95.15-5.22.05-7.35,0-.7-.06-1.39-.1-2.09-.08-1.64-.18-3.49-.15-5.3s.1-3.64.17-5.45l.05-1.06c0-.62,0-1.22.05-1.83.08-2.17.05-4.43-.08-7.3-.05-1.29-.11-3.06,0-4.69s.22-3.52.23-5.48l0-1.35v-.39c0-1.13,0-2.29,0-3.5-.11-3-.22-6.91,0-10.89l.12-1.24.09-.82a45.62,45.62,0,0,0,.33-6.3v-.34c0-1.2-.05-2.34,0-3.53a34.55,34.55,0,0,0-.08-3.86l-.12-1.69L17.32,93l0-.48-.07-.93c0-.88-.06-1.75-.07-2.63v-.53c0-.28,0-.56,0-.86,0-.78,0-1.58,0-2.37V79.55c0-.41,0-.81,0-1.22V75.85c0-1.82,0-3.63,0-5.45,0-1.19,0-2.37,0-3.66v-.27c0-1.67,0-3.08,0-4.21,0-.4.08-.81.13-1.2l0-.39,0-.4.05-.38c.11-1,.23-2,.29-3,0-.6,0-1.19,0-1.78v-.79c0-.64,0-1.28,0-1.92v-.54c0-.89.05-1.77.07-2.66l0-.88c0-2.15.09-4.25.2-6.42.07-.79.15-1.58.24-2.47l.16-1.65c.08-.92.12-1.85.16-2.79v-.28a10.17,10.17,0,0,1,.2-1.87l0-.09v0h0V32.7h0l0,.15v-.07l0,.07a.15.15,0,0,1,0-.06l0,.06V32.8l0,.06v0l0,0c.05-.68.08-1.37.11-2.07l0-1,0-.26c.14-1.55.21-2.65.23-3.67l0-1.13c0-1.1,0-2.22.07-3.33.16-1.45.31-2.68.51-3.9l.11-.28.08-.34,0,0c.12-.87.21-1.73.32-2.59a3,3,0,0,0-.39-2.13,2.88,2.88,0,0,0-1.85-1.26,3,3,0,0,0-.52-.05,2.87,2.87,0,0,0-2.86,2.29ZM12,106.31c0,.08,0,.17,0,.26,0-.09,0-.18,0-.26Z"/><path class="cls-1" d="M120.46,73.37l-.38,0-.8,0h-.19c-.66,0-1.31,0-2,.11s-1.42.1-2.2.1q-.7,0-1.41,0c-.54,0-1.07,0-1.6,0h-1.33c-1.14-.08-2.4-.12-3.76-.12h-.25c-1.36,0-2.66.1-4,.2l-.3,0a2.74,2.74,0,0,0-1.93,1,2.86,2.86,0,0,0-.69,2.09,3.69,3.69,0,0,0,.1.64c-.06.15-.11.31-.16.48a5,5,0,0,0-.06.57v.18c0,.34-.07.67-.08,1q0,.11,0,.24v.18l-.09.81c0,.35-.09.7-.11,1a12.93,12.93,0,0,0,0,1.65c0,.43,0,.87,0,1.3v.45l0,.46c0,.52,0,1,0,1.46v.31c0,.31,0,.62,0,.92L99,89.59c-.06.81-.12,1.62-.15,2.43l0,.45a4,4,0,0,1-.07.69v.07l0,0s0-.09,0-.14v.11l0-.11c-.06.88-.09,1.76-.11,2.65,0,.71,0,1.42-.07,2.13,0,.45-.07.89-.11,1.35l0,.42,0,.4c0,.39-.08.79-.1,1.18a42.13,42.13,0,0,0-.13,4.48l.06,1.86c.06,1.92.13,4.09,0,6.16l0,.39c0,1-.12,2.25-.09,3.46,0,.41,0,.8,0,1.23l0,.62c0,.69,0,1.39.06,2.08,0,1,0,2,0,3,0,1.59,0,3.24,0,4.88,0,1.27.08,2.52.09,3.79,0,.81,0,1.62-.06,2.44l0,.36c0,.41,0,.81,0,1.21-.06,1.74-.06,3.47-.06,5.2v.6c0,1,0,2,0,3s-.06,1.87-.09,2.84v.16c-.07,1.54-.16,3.44-.08,5.28l0,.54v.2c0,1.09.08,2.33,0,3.51l0,1.39,0,.67c0,.45,0,.9,0,1.35-.08,1.79-.09,3.26,0,4.6,0,.83.09,1.67.11,2.5l0,.81c0,.56,0,1.13,0,1.64,0,.95-.07,1.91-.1,2.89l0,.89c0,.5,0,1,0,1.49-.17,2.79-.22,5.64-.24,8.1q0,1.88,0,3.75c0,.51,0,1,0,1.51l0,.38v.34q0,.84,0,1.68v1.86c0,1.83,0,3.66,0,5.5,0,.65,0,1.29,0,2l0,.49v.41c0,1.07.08,2.17.06,3.24a39,39,0,0,0,.39,5.13l.13,1.08a15.39,15.39,0,0,1,0,2.25v.34c0,.3,0,.6,0,.89s0,.66,0,1a4.93,4.93,0,0,0,.1,1.86,2.66,2.66,0,0,0,.45.91l1.42,0h5a12,12,0,0,0,1.59-.25l.59-.11a12.42,12.42,0,0,1,2.09-.13h1.74c1.39,0,2.73.1,4.16.21l.69.07.33,0c.45,0,.91.1,1.38.12l.9.08a11.13,11.13,0,0,0,1.19.08l1.17,0h.92l.79,0h.48l1,0h.33v-.18c0-.13,0-.26,0-.39,0-.42,0-.84,0-1.26s0-.63,0-.94v-.89c0-.37,0-.74,0-1.11v-.92l0-.4a8.32,8.32,0,0,1,.12-1.37c0-.42,0-.85,0-1.27s0-.62,0-.92c0-1,0-2,0-3,0-.81-.07-1.61-.08-2.42,0-.36,0-.71-.05-1.09s-.06-.68-.06-1,0-.45,0-.67,0-.69,0-1c-.06-.59-.11-1.18-.12-1.77,0-.35,0-.68,0-1l0-.83c0-.37,0-.74,0-1.11s0-.61,0-.92,0-.6,0-.9,0-.79,0-1.19,0-.82,0-1.23a8.09,8.09,0,0,1,.1-1.2l0,.09,0-.26c0-.19,0-.37.07-.55a44.85,44.85,0,0,0,.28-6.14c0-.56,0-1.13,0-1.69s0-1.11,0-1.68l0-.88c0-.64,0-1.29,0-1.94s0-1.53-.06-2.29v-.21c0-.61,0-1.23,0-1.85v-.39a40.76,40.76,0,0,0-.26-4.92c-.12-1.32-.16-2.68-.21-4.05l0-1.1c-.06-2.08-.09-4.09-.08-6.15,0-1-.09-2.15-.17-3l0-.55c-.09-1.1-.15-2.2-.21-3.31,0-.83-.08-1.67-.11-2.51,0-1.3-.1-2.64-.22-4-.06-.85-.1-1.7-.13-2.56l0-.32v-.28c0-.45,0-.91,0-1.37v-.17c0-.45,0-.9,0-1.34s0-.79,0-1.18l0-.39c0-.53,0-1,0-1.57s0-.9,0-1.34V132c0-.53,0-1,0-1.58s0-1,0-1.48v-.24c0-.47,0-.94,0-1.42s0-1.1-.07-1.69-.06-1-.07-1.47,0-1.26,0-1.9c0-.31,0-.63,0-1,0-.62,0-1.24,0-1.87v-.18l0-.93v-.48c0-1.05-.08-2.1-.06-3.14l0-1.14c0-.68,0-1.34,0-2,0-1.31.08-2.63.16-4l0-.54c0-.51.07-1,.08-1.53,0-1.09.11-2.17.18-3.26.12-2.08.23-4,.25-5.84,0-.36,0-.71,0-1.06v-.54c0-.82,0-1.65,0-2.47s.06-1.61.1-2.4.07-1.61.09-2.41l0-1.46c.05-1.17.09-2.33.09-3.5,0-1,0-2,0-3.07a4.59,4.59,0,0,1-.07-.91,3.91,3.91,0,0,0,0-.43c0-.1,0-.2,0-.29a16.52,16.52,0,0,0-.06-2.13v-.22c0-.37,0-.74,0-1.09a2.41,2.41,0,0,0-1.56-.84c-.52,0-1-.08-1.69-.1a4.41,4.41,0,0,0-.52,0Z"/><path class="cls-1" d="M313.64,134.29a2.85,2.85,0,0,0,1,2,3,3,0,0,0,2.1.68,2.87,2.87,0,0,0,1.64-5.05,3,3,0,0,0-2.09-.68,2.88,2.88,0,0,0-2.64,3.09Z"/><path class="cls-1" d="M211.93,74.35l0,.5,0,.49,0,.39,0,.23v.17l0,.37,0,.38v.45a1,1,0,0,0,0,.18c0,.17,0,.33,0,.5s0,.33,0,.51c0,.43,0,.86-.06,1.29v.37a8.91,8.91,0,0,1-.07,1.45l0,.16v.36c0,.5,0,1,0,1.49,0,1,0,1.92,0,2.87,0,.52,0,1,0,1.55,0,1.14,0,2.3.09,3.42v.17l0,.27v.17c.06,1.15.11,2.34.1,3.5,0,.69-.06,1.37-.1,2.06l0,.25L211.56,99c-.07,1.31-.14,2.61-.22,3.91l-.09,1.44-.05.94c0,.65-.08,1.29-.15,2l-.3,0-.81.06c-1.28.08-2.56.14-3.84.2l-.74,0a23.34,23.34,0,0,0-4,.36c-.79.16-1.59.31-2.38.43l-.75.11c-.44,0-.89.12-1.33.21-.7.15-1.4.34-2.1.53l-.22.06-.2.06c-.61.18-1.2.41-1.86.65l-.14,0-.4.16c-.36.12-.72.22-1.08.32l-.26.07-.26.07c-.33.08-.65.17-1,.27a22,22,0,0,0-2.3.86l-1.13.47-.3.09-.21.07c-.69.23-1.41.46-2.09.74l-.86.34-.15.07-.2.08c-.29.12-.57.24-.87.35l-1.7.58h.06l.23-.07-.19.06.21,0c-.49.15-.94.33-1.43.53l-.24.09-.45.18-.62.25-.93.34-.19.08-.3.12-.89.34-.38.15-.34.15-.29.12c-.34.27-.7.54-1.08.79l-.56.34a8.54,8.54,0,0,0-.86.57,15,15,0,0,1-1.44,1.11l-.42.27-.81.53-.21.17-.51.41-.46.38-.46.37-.32.25c-.21.2-.41.39-.61.6a15.56,15.56,0,0,1-1.44,1.29l-.26.26-.14.15-.09.11-.27.31c-.23.27-.43.54-.64.82l-.17.22-.24.31-.24.32-.83.77-.62.76c-.25.32-.49.65-.73,1l-.15.21c-.13.16-.27.31-.48.53l-.36.4c-.27.33-.53.68-.79,1l-.22.26-.11.16.1-.1c-.46.66-1,1.36-1.63,2.13l-.11.13-.13.15c-.27.34-.55.67-.8,1s-.5.86-.72,1.3l-.39.73-.25.45-.12.28a14.53,14.53,0,0,1-.7,1.67,29.11,29.11,0,0,0-1.48,3.46l-.57,1.6q-.3.79-.57,1.59c-.2.58-.44,1.14-.68,1.69s-.45,1-.63,1.57l-.08.22c-.35,1-.68,2-.94,3a20.79,20.79,0,0,0-.53,3c-.07.51-.14,1-.23,1.54l-.08.43,0,.27,0,.15a8.33,8.33,0,0,0-.16,1l0,.38c-.06.58-.13,1.15-.2,1.73l-.08.54a11.3,11.3,0,0,0-.17,1.41c0,.68,0,1.35,0,2,0,1,.12,2,.22,3l0,.18.1,1,.07,1.22v.38l0,.33c0,.64.06,1.29.12,1.93a16.27,16.27,0,0,0,.28,1.75l0,.14c.1.46.19.91.26,1.36s.13.95.19,1.42c.13.91.25,1.81.41,2.72s.31,1.59.52,2.5c.11.47.22.93.31,1.4.22,1.09.5,2.45.89,3.74.21.72.46,1.44.71,2.15l.18.51.05.16c.15.41.28.81.41,1.22a25.71,25.71,0,0,0,1.81,4.33l.41.8a23.57,23.57,0,0,0,1.34,2.34c.83,1.23,1.69,2.5,2.65,3.67.23.29.47.57.71.85l.35.42.28.32.22.27c.32.37.64.74.95,1.12a25.7,25.7,0,0,0,2.86,3c1.07,1,2.23,2,3.44,3a36.62,36.62,0,0,0,3.28,2.34,25.67,25.67,0,0,0,4.14,2c.5.2,1,.43,1.5.65l.15.07.34.15c.51.23,1,.42,1.55.61l.46.17c.32.12.64.26,1,.4s.56.25.85.36a10.2,10.2,0,0,0,2.2.52l.17,0,1,.18.21,0,.41.07,1.44.27c.52.11,1,.24,1.55.37l.44.12a30.79,30.79,0,0,0,3.78.76c.58.06,1.16.08,1.75.11l.75,0,2.88.16,1.19.07c1.4.08,2.79.16,4.19.22h.33l1.37,0h.71c.57,0,1.11-.09,1.65-.16l.42,0c.79,0,1.55-.11,2.32-.2l.27,0,.58-.07a10.62,10.62,0,0,0,1.49-.17c.31-.05.6-.13.94-.22l.44-.13a21.41,21.41,0,0,1,2.67-.56c.63,0,1.27-.07,1.89-.15a7.53,7.53,0,0,0,1.78-.47,12.06,12.06,0,0,1,2-.4,8.86,8.86,0,0,0,2.12-.6c.49-.15,1-.28,1.48-.42l.23-.07c.43-.11.85-.23,1.27-.36a8.65,8.65,0,0,1,1.44-.31c.28,0,.55-.08.83-.12l.23,0,.6-.09c.48-.05,1-.14,1.44-.23l.23,0,.36-.06a5.52,5.52,0,0,0,.9-.18,28.73,28.73,0,0,0,3.59-1.54l.72-.35a2.93,2.93,0,0,0,1.51-3.16,2.71,2.71,0,0,0,.13-.86,2.86,2.86,0,0,0,0-.42c0-.11,0-.23,0-.34l.12-.65a12.65,12.65,0,0,0,.26-2c0-1,0-1.89-.1-2.67-.09-1-.1-2-.1-2.86v-.39c0-.48,0-.94,0-1.42a16.48,16.48,0,0,0-.17-1.86l0-.21a49.43,49.43,0,0,1-.18-5.14v-1.1c0-.69,0-1.39.06-2.07v-.2c0-.45.05-.9.07-1.34,0-1.19,0-2.42,0-3.5v-.41c0-1.32-.06-2.64,0-4,0-.88,0-1.76-.06-2.63l0-1.1c0-.89,0-1.8.07-2.61v-.15l0-.42c0-.29,0-.57,0-.86.05-1.35.09-2.69.09-4,0-1.06,0-2.1,0-3.18V165c0-1.43-.06-3,0-4.58s0-2.83,0-4.23v-.6c0-.88-.05-1.77-.05-2.65,0-1.23,0-2.45.08-3.67s.1-2.61.08-4c0-.53,0-1.06,0-1.58v-.36c0-.7,0-1.4,0-2.1,0-1.4,0-2.79,0-4.18,0-.39,0-.77,0-1.17v-.32c0-.55,0-1.09,0-1.65l0-1.13c0-.86,0-1.73-.06-2.6,0-.7,0-1.41.05-2.11l0-1c0-1.11,0-2.21-.11-3.44,0-.51-.06-1-.09-1.51l0-.75,0-.75-.05-.91c0-.81-.1-1.65-.09-2.47l0-1.85c0-1.52.1-3.25.07-4.93,0-.48,0-1,0-1.43v-1.58c0-.61,0-1.22-.07-1.85l0-.38,0-.81c0-1,0-2,0-3.08,0-.56,0-1.11,0-1.67,0-.39,0-.77-.05-1.16,0-1.58,0-3.11,0-4.68a11.58,11.58,0,0,0,0-1.32v-.17c0-.29,0-.57,0-.86s0-.59,0-.89,0-.77,0-1.15l0-1.21c0-1,0-2,0-3s.14-2,.26-3.1c0-.39.08-.78.11-1.17,0-.59.09-1.19.13-1.79l0-.37c0-.6.08-1.2.14-1.81a4.62,4.62,0,0,0-.35-2.6h-1.08l-.65,0-.29,0-.7,0c-.69,0-1.37,0-2,.07l-.28,0c-.54,0-1.06.07-1.59.08h-.84a19.13,19.13,0,0,1-2.75-.18l-.6-.1-.32,0c-.5-.09-1-.17-1.51-.22h-.23c-.62,0-1.23,0-1.85,0h-.34l-1.17,0H220c-1.23,0-2.48,0-3.74-.1l-.29,0h-.3c-1,0-2.06-.07-3.09-.13a3.8,3.8,0,0,0-.6.49Zm-6.81,57.15.66,0c.45,0,.88.09,1.33.1H208c.73,0,1.47.07,2.21.07s1.17,0,1.75-.07c.24,0,.47,0,.72,0h.24a14.39,14.39,0,0,1,0,2c0,.13,0,.26,0,.39l0,0,0-.14v.09l0-.09c-.07.79-.1,1.68-.1,2.64,0,.45,0,.89,0,1.34v.66c0,.34,0,.67,0,1,0,1.72.06,3.44.14,5.15,0,.42,0,.83,0,1.25v1.74l0,.82V149c0,.66,0,1.32,0,2,0,.94,0,1.92.09,3,0,1,.09,2,.05,3v.25l-.06,1.18,0,.68,0,.24v.24c0,.64-.08,1.29-.08,1.93s0,1.22.06,1.85l0,.67c.09,1.84.1,3.64,0,5.36,0,.55-.11,1.09-.18,1.63s-.16,1.19-.2,1.79a24.76,24.76,0,0,0,0,2.86c0,.64.06,1.29.05,1.94-.06.84-.14,1.68-.23,2.52l-.06.63c-.1,1-.21,2.07-.27,3.11l0,.49c-.07.83-.13,1.65-.14,2.48,0,.3,0,.61,0,.91v.3c0,.45,0,.89,0,1.33l-.05.64c0,.57-.09,1.13-.1,1.71,0,.32,0,.65,0,1v.17c0,.39.05.77,0,1.15l0,.48c0,.5-.07,1-.1,1.5l0,.54v.53l0,.53a12.38,12.38,0,0,1-.38,2h-.15a3.91,3.91,0,0,0-.49,0,10.89,10.89,0,0,0-1.61.34l-.23.05a10.32,10.32,0,0,1-1.54.14l-.49,0h-.34l-.41,0h-.27q-.45,0-.9,0h-.35l-.54-.06-.67-.08c-.63-.05-1.27-.08-1.9-.09h-.21a18.86,18.86,0,0,1-3.76-.62l-.69-.24-.31-.1-.63-.22c-.54-.21-1.07-.41-1.6-.63l-.68-.27a16,16,0,0,1-1.48-.63c-.85-.42-1.67-.92-2.47-1.39l-.17-.11-.76-.42-.19-.1-.84-.46q-.39-.27-.78-.57l-.21-.16c-.39-.3-.76-.59-1.17-.86a16.11,16.11,0,0,1-2.3-2l-.27-.36-.16-.22-.12-.15-.17-.25-.26-.34-.16-.22c-.25-.33-.5-.67-.72-1s-.32-.54-.51-.9-.26-.5-.4-.73l-.11-.19c-.21-.33-.4-.66-.59-1s-.2-.47-.3-.72a13.25,13.25,0,0,0-.73-1.46c-.16-.37-.27-.7-.38-1l-.09-.26-.06-.17a7.5,7.5,0,0,0-.33-.7,5.11,5.11,0,0,1-.51-1.31,10.74,10.74,0,0,1-.23-1.34l-.06-.21-.07-.2c-.09-.29-.18-.58-.26-.88q-.23-.87-.42-1.74l-.08-.28c-.07-.4-.12-.8-.17-1.31l-.17-.63c-.14-.52-.27-1-.38-1.58a17.43,17.43,0,0,1-.17-3.67c0-.68,0-1.36,0-2a18.09,18.09,0,0,1,.21-2.94c.06-.43.11-.85.15-1.27s.09-.71.14-1.07l0-.25.11-.77,0-.44,0-.26c.08-.67.15-1.32.26-2l.18-1.1c.06-.38.13-.77.2-1.15l.08-.43.06-.37a15.36,15.36,0,0,1,.86-3.23c.27-.66.58-1.3.9-1.93l.11-.23.37-.75.17-.43c.09-.24.18-.48.29-.72.18-.42.39-.83.6-1.23l.07-.14.36-.69a11.65,11.65,0,0,1,.79-1.44,16.81,16.81,0,0,1,1.45-1.88l.15-.18a14.31,14.31,0,0,1,1.3-1.53c.12-.11.23-.23.44-.41s.22-.19.32-.3a11,11,0,0,1,2.85-2.64l.28-.19c.3-.2.59-.4.87-.62s.6-.42.91-.63l.37-.25a8,8,0,0,1,.86-.57c.23-.1.46-.19.7-.27s.59-.25.88-.39a5.23,5.23,0,0,1,1.14-.38l.87-.23.79-.21a5.61,5.61,0,0,1,.59-.06c.39,0,.75-.08,1.23-.15a8.44,8.44,0,0,0,.87-.2l.21-.08H199l.26,0a4.58,4.58,0,0,0,1-.21l.32-.1,1-.18.26,0a8.74,8.74,0,0,1,1.37-.13h.18l.47,0h.63c.22,0,.43,0,.65,0Z"/><path class="cls-2" d="M185.81,14.93h0c-1,0-2,0-2.95.07l-.74.05-.78,0h-.26c-.88.06-1.67.1-2.47.1h-4c-2.75,0-5.37.14-8.4.27-.68,0-1.35,0-2,0h-4.1c-.53,0-1.07,0-1.61,0l-.59,0c-1.49.06-2.93.11-4.37.11-1.05,0-2.05,0-3.08-.1l-.81,0-.36,0-.37,0h-.39c-.61,0-1.2-.08-1.79-.1h-.86c-1.05,0-2.1,0-3.14.09l-.4,0c-.53,0-1.05,0-1.58,0-1.24,0-2.47,0-3.71-.1-1,0-1.94-.08-2.9-.1H133l-.45,0h-.41c-.51,0-1,0-1.55,0H130l-1.17,0c-.82,0-1.66,0-2.48,0h-4.13c-1.42,0-2.84,0-4.27-.07s-2.65-.06-4-.06-2.47,0-3.7-.06h-.88l-1.5,0c-.72,0-1.44,0-2.15.05l-2.16.14-.4,0-.32,0-1.08.06c-1,.07-2.1.08-3.15.08H95.66l-2.27,0c-.82,0-1.64.1-2.46.17l-.23,0-.29,0c-.65.05-1.25.1-1.84.1H88c-.85,0-1.69-.05-2.54-.1l-1-.06c-.85-.05-1.71-.07-2.58-.07-.54,0-1.09,0-1.63,0l-.62,0-.65,0-.37,0c-.84.05-1.63.09-2.44.1h-4c-1.33,0-2.66,0-4,0H67.9c-1.42,0-2.82.08-4.19.17-1,.06-2,.1-2.87.1-.38,0-.75,0-1.13,0h-.83l-.41,0H58l-.25,0h-.5c-.33,0-.67,0-1,0l-.57,0H54l-.65,0L51.78,16c-1.33,0-2.66,0-4,0s-2.56,0-3.84,0l-3.28.11c-2.3.1-4,.14-5.73.14-2.24,0-4.62.13-6.35.22h-.22l-.4,0c-1.18.06-2.08.06-3,.06H23c-1,0-1.92.08-2.87.12a1,1,0,0,0-.15.1l-.07.34-.12.28c-.2,1.22-.35,2.45-.5,3.89-.06,1.12-.07,2.23-.08,3.34l0,1.13c0,1-.08,2.12-.22,3.67l0,.26,0,1c0,.7-.06,1.39-.11,2.07l.19-.19-.07.18a11.12,11.12,0,0,0-.2,1.87V35c0,.94-.08,1.87-.16,2.79l-.16,1.65c-.09.89-.17,1.68-.24,2.47-.11,2.16-.16,4.27-.2,6.42l0,.88c0,.89,0,1.77-.07,2.66v.54c0,.64,0,1.28,0,1.92l0,.61v.18c0,.6,0,1.18,0,1.78-.06,1-.18,2-.3,3l-.05.38,0,.4,0,.38c0,.4-.09.81-.12,1.21-.05,1.13-.06,2.54,0,4.21v.27c0,1.29,0,2.47,0,3.66,0,1.82,0,3.63,0,5.45v2.48c0,.41,0,.81,0,1.22,0,.8,0,1.6,0,2.41v3.2c0,.79,0,1.59,0,2.37,0,.29,0,.58,0,.86v.53c0,.88,0,1.75.07,2.63l.07.93,0,.48.05.71.11,1.69a34.55,34.55,0,0,1,.08,3.86c0,1.19,0,2.33,0,3.53v.34a47.14,47.14,0,0,1-.34,6.3l-.09.82-.11,1.24c-.22,4-.11,7.91,0,10.89.06,1.22,0,2.37,0,3.49v.4l0,1.35c0,2-.09,3.81-.23,5.48s0,3.4,0,4.69c.13,2.87.16,5.13.09,7.3,0,.61,0,1.21-.06,1.83l0,1.06c-.08,1.81-.15,3.63-.18,5.45s.07,3.66.15,5.3c0,.7.08,1.39.1,2.09.1,2.13.09,4.4-.05,7.35-.1,2.59-.2,5.2-.24,7.8v2.15l0,1.76,0,.51c0,1.2-.06,2.34,0,3.41.1,2.42.2,5,.06,7.54,0,1.31-.05,2.73,0,4.21,0,.73,0,1.46,0,2.2l0,.85v.85a37.29,37.29,0,0,1,0,3.78c-.08,1.27-.16,2.54-.18,3.81,0,.6,0,1.2-.06,1.79q0,1.25-.06,2.49c0,1.15.06,2.32.12,3.35v.44c.1,1.65.09,3.25.08,4.8,0,1,0,2,0,2.95,0,1.45.06,2.73.06,4s-.06,2.49-.19,4c-.09,2-.12,4-.09,5.69q0,.94,0,1.89v.33c0,1,0,1.91,0,2.87l.05,1.15c.05.83.09,1.67.09,2.5v.54c0,1.06,0,2.14.07,3.2s.06,2,.09,3v.31c0,1.66.09,3.26.18,4.82,0,.4.05.8.07,1.19v.31l0,.37c0,.57,0,1.13.08,1.69.08,1.29.15,2.59.2,3.89.11,2.54.28,5,.5,7.86l.16,1.73,0,.38,0,.35c.16,1.7.29,3.22.35,4.72.06,1.25.12,2.5.14,3.76,0,.8,0,1.61,0,2.43v.24l0,1.1c-.07,2.36-.2,5.1-.41,8.39,0,.53,0,1.07,0,1.6l.32.11h1.28c.3,0,.59,0,.89,0s.87.05,1.4.05l.44,0c.65-.06,1.31-.12,2-.12h.51l.78.06c.68,0,1.36.08,2,.08h.3a17.1,17.1,0,0,1,2.12-.13,10.14,10.14,0,0,1,1.1.06l1,.14.22,0,.21,0c.75.09,1.33.16,1.89.19h.45c.33,0,.66,0,1,0h.32l1,0h3.29l.78-.06c.66-.06,1.64-.13,2.54-.13.36,0,.73,0,1.09,0,1,.09,2.13.18,3.35.18h.52l.9-.09.15,0,.16,0c.65-.06,1.28-.12,2-.12h.27l1,0c.54,0,1.06,0,1.6,0s.79-.1,1.18-.17l.17,0,.29-.05.37-.07.33-.05a20.56,20.56,0,0,1,2.63-.21l.3,0c.78,0,1.57-.05,2.36-.05h.52c.56,0,1.13,0,1.69,0,.23,0,.45,0,.69,0s.64,0,1,0,.66,0,1,0l.68.06.31,0,.27,0,.25,0,.47,0c.94.05,1.88.1,2.82.1h.68l.84-.06.83-.06c.5,0,1,0,1.49,0,.83,0,1.65,0,2.47.05h1.39l1,0h.55c1.9,0,3.8-.05,5.7-.1h1.09a36.16,36.16,0,0,1,4.64.26c1.09.13,2.19.27,3.29.39h.22l.2,0c.86.08,1.56.14,2.26.14h.37c1.09-.08,2.31-.11,4.09-.12,1.21,0,2.42,0,3.63-.06l.45,0c.63-.05,1.24-.09,1.85-.09h1.18l1,0h1.3c.81,0,1.62,0,2.42-.05l.22,0h.3c1.81-.15,3.41-.22,4.76-.22h.5c.66,0,1.31,0,2,.06h1.68l1.17,0H126c.68,0,1.37,0,2.09,0,1,0,1.93,0,2.89,0,1.29,0,2.25,0,3.09.1l1.32.09c2.75.19,4.6.31,6.45.35h.83c1.21,0,2.45.05,3.59.15l1.29.13.72.08,2.09.21.82.08.25,0,.25,0,.22,0c.86.08,1.7.15,2.57.21l1.69.11c1,.07,1.77.13,2.59.17s1.62,0,2.43,0h2.1a38.89,38.89,0,0,1,4,.13l1.12.1c.89.09,1.77.17,2.65.21.6,0,1.2,0,1.8,0h6.56c1.25,0,2.48,0,3.66.09l1.76.12c.88.07,1.76.13,2.64.16.43,0,.87,0,1.3,0,.75,0,1.5,0,2.25-.06l1.3-.12.19,0,.27,0,.35,0,.23,0,.2,0,1.57-.12c.62,0,1.25,0,1.87-.05s1.27,0,1.89-.05l1.55-.1.67-.05.56,0c.32,0,.64,0,1,0H203l.2-.09.25,0c1.11-.06,2.21-.1,3.32-.1h.19l1.23,0h3.48q1,0,1.92,0H215l2.52.07,2.44,0,2.45,0h.38l1.65,0,1.63,0h4c.48,0,1,0,1.44,0,.77,0,1.54,0,2.29,0h.25l1.14,0h.38l1.74,0h.27l.76,0h.73c.62,0,1.24.06,1.86.06h.75c1.25,0,2.49,0,3.73,0h.71c.94,0,1.87,0,2.84-.08l.91-.07c.89-.08,1.78-.15,2.67-.18h.52c.57,0,1.15,0,1.72,0l.71,0c1.07,0,2.15.06,3.22.06H259c.58,0,1.16,0,1.72,0l2,0h.58c1.33,0,2.43,0,3.56.16,1.45.16,2.61.26,3.65.32,1.42.08,2.88.08,4.29.08,1.12,0,2.25,0,3.39,0l.77,0,.43,0h.23l.63,0H281c1.05,0,2,0,3,0s1.65,0,2.47,0l1.09-.08c1.13-.08,2.3-.17,3.44-.19h.66a38.38,38.38,0,0,1,4.31.23l.31,0a15.46,15.46,0,0,0,2,.15h3.45c.72,0,1.44,0,2.17,0,.5,0,1,0,1.49,0,1.07-.07,2.26-.11,3.75-.11h.32a12.34,12.34,0,0,0,.39-2.52c.09-1.89.07-3.58,0-5.13v-.48c0-.75,0-1.49,0-2.23,0-.56.09-1.1.16-1.66l.07-.57.07-.56,0-.2,0-.23c.06-.57.12-1.14.15-1.7s0-1.32,0-2l-.11-1.67c-.08-1-.15-2-.21-3a21.7,21.7,0,0,1,0-3c0-.7.07-1.39.08-2.09V272a35.41,35.41,0,0,1,.16-3.85,25.85,25.85,0,0,0,.07-4.21l0-.47v-.25c-.05-.87-.09-1.72-.17-2.54a35.34,35.34,0,0,1-.16-3.54v-.51l0-.68,0-.69c0-.74-.08-1.46-.05-2.15,0-.34,0-.69.06-1s.05-.61.06-.91c0-.9,0-1.91-.05-3.09v-.16l0-.77,0-.39,0-.39a40.52,40.52,0,0,1-.07-4.76c.05-1.31,0-2.81,0-3.61v-.48l0-.43c-.07-2.94-.11-5.88-.14-8.82,0-.44,0-.86,0-1.28v-2.89c0-1.33-.06-2.68,0-4,0-.9,0-1.79.06-2.69V217c0-1.76.09-3.5,0-5.35-.06-1.05-.15-2.1-.26-3.27v-.22A62.16,62.16,0,0,1,309,201l0-1.78c.06-1.77.12-3.56.12-5.34l0-.8,0-1.14v-.57l0-.56c-.06-1.21-.09-2.41-.09-3.62-.18-2.61-.33-5.23-.48-7.85-.14-2.79-.29-5.77-.26-8.7,0-.94,0-1.87.07-2.81l.05-1.76c0-.76,0-1.54,0-2.3s0-1.44,0-2.16c0-1.17.08-2.35.14-3.57.08-1.76.16-3.42.15-5.14,0-.77,0-1.51,0-2.26v-1.17c0-.17,0-.33,0-.49a2.45,2.45,0,0,1,0-.54c-.18-3.34-.21-6.92-.22-9.32q0-1.31,0-2.64V135.1c0-1.79,0-3.35,0-4.52,0-.52-.08-1-.11-1.54l-.06-.74c-.07-.91-.14-1.81-.2-2.73a52.75,52.75,0,0,1-.06-6c0-.52,0-1,.07-1.56l0-.37,0-.38,0-.42,0-.27,0-.46c0-.7.08-1.38.09-2.06.06-1.92,0-3.81-.09-5.43v-.36c-.09-1.45-.25-4.15-.17-6.6s.13-5,.07-7.72c0-.69-.07-1.37-.09-2.06v-.24a32.59,32.59,0,0,1-.05-4.31l0-.5v-.36c0-.79.08-1.68.06-2.54,0-.3-.05-.59-.09-.88l0-.46-.05-.44c-.05-.44-.1-.88-.14-1.32a37.23,37.23,0,0,1-.14-4.62c0-.75.06-1.5.11-2.27l0-.25c0-.61.07-1.17.09-1.73,0-1.12,0-2.3,0-3.59l0-.69c-.08-.92-.19-1.83-.31-2.74l0-.41a39.67,39.67,0,0,1-.45-5.62c0-.4,0-.78.06-1.17s.06-.84.06-1.26v-.91l0-.44V53.29c0-1.1,0-2.2.06-3.31s0-2.09.05-3.16c0-1.61,0-3.26.15-4.86,0-.48.07-1,.13-1.51l0-.21,0-.26c.07-.8.15-1.58.19-2.37s0-1.4,0-2.1,0-1.57,0-2.31c.08-1.42.18-3,.15-4.6a31.15,31.15,0,0,1,.21-3.56l.05-.6.09-.75v-.21l0-.29,0-.3c.08-.83.16-1.68.17-2.55,0-1.19,0-2.38,0-3.57,0-.37,0-.74,0-1.11l-.48-.14h-1c-2.47,0-5.08-.08-8-.26-.72,0-1.43-.07-2.15-.07s-1.17,0-1.76,0l-1.09.07h-.23c-.83,0-1.67.09-2.5.09h-1.12c-.78,0-1.57-.06-2.35-.06-.45,0-.89,0-1.33,0l-1.45.09c-1,.06-1.94.12-2.89.13H281c-1.13,0-2.25,0-3.38-.09l-1.39,0-.57,0c-.6,0-1.19,0-1.77,0l-.8,0-2.54-.1-.68,0h-4.13c-1.17,0-2.34,0-3.53-.07l-.6,0c-1.41,0-2.82-.07-4.22-.07h-.61l-1.48,0c-.56,0-1.13,0-1.69,0-.37,0-.73,0-1.1,0-1,0-1.94-.09-2.91-.09h-.64c-.82,0-1.63,0-2.45,0-2,0-3.93,0-5.9-.08h-.33c-.57,0-1.14,0-1.7,0h-.27c-.63,0-1.27.07-1.89.07h-4.1l-1.05,0h-.31l-.44,0h-.95c-.4,0-.79,0-1.19,0l-1.54.07-.86,0-1.49.05-.92,0c-1,0-1.92.07-2.84.07h-.15c-1.23,0-2.46,0-3.69-.09h-.35c-1.51-.06-3-.06-4.54-.06-1.27,0-2.54,0-3.8,0l-.85,0c-.77,0-1.55,0-2.33,0l-1.53,0c-.95.05-1.9.06-2.85.06h-4.25l-.64,0q-1.23,0-2.46,0c-.75,0-1.48,0-2.23-.05l-1.37-.08-.34,0c-.86-.07-1.71-.13-2.57-.15Zm-70.89,58.7a22,22,0,0,0,2.2-.1c.66-.06,1.31-.09,2-.1h.19l.8,0,.38,0a4.41,4.41,0,0,1,.52,0c.65,0,1.17,0,1.69.09a2.48,2.48,0,0,1,1.56.85c0,.35,0,.72,0,1.09v.22a20.85,20.85,0,0,1,.07,2.12c0,.1,0,.2,0,.3a3.91,3.91,0,0,1,0,.43,4,4,0,0,0,.08.91c0,1,0,2.05,0,3.07,0,1.17,0,2.33-.09,3.5l0,1.46c0,.8,0,1.6-.09,2.41s-.07,1.6-.1,2.4,0,1.65,0,2.47v.54c0,.35,0,.7,0,1.06,0,1.88-.13,3.76-.25,5.84l-.18,3.26c0,.51,0,1-.08,1.53l0,.54c-.08,1.42-.16,2.74-.16,4,0,.67,0,1.34,0,2l0,1.14c0,1,0,2.09.06,3.14v.48l0,.93v.18c0,.63.06,1.25.05,1.87l0,1c0,.64,0,1.27,0,1.9s0,1,.07,1.47.06,1.14.07,1.69,0,1,0,1.42v.23c0,.5,0,1,0,1.49s0,1,0,1.58v.34c0,.44,0,.89,0,1.34s0,1,0,1.57l0,.39,0,1.18c0,.44,0,.89,0,1.34v.17c0,.46,0,.92,0,1.37l0,.28v.33c0,.85.07,1.7.14,2.56.12,1.31.17,2.65.22,4,0,.84.06,1.68.1,2.51.06,1.11.13,2.21.21,3.31l0,.55c.07.88.16,2,.16,3,0,2.06,0,4.07.08,6.15l0,1.1c0,1.37.08,2.73.2,4.05a40.76,40.76,0,0,1,.26,4.92v.39c0,.63,0,1.23,0,1.86v.2c0,.76.08,1.53.06,2.29s0,1.3,0,1.94l0,.88c0,.57,0,1.13,0,1.68s0,1.13,0,1.69a46.42,46.42,0,0,1-.29,6.14c0,.18,0,.37-.07.55l0,.26,0-.09a8.08,8.08,0,0,0-.09,1.2c0,.41,0,.82,0,1.23s0,.8,0,1.19,0,.6,0,.9,0,.62,0,.92,0,.74,0,1.11l0,.83c0,.36,0,.69,0,1,0,.59.06,1.18.12,1.77,0,.35,0,.69,0,1s0,.44,0,.67,0,.69.06,1,.05.73.06,1.09c0,.81,0,1.61.07,2.42,0,1,0,2,0,3,0,.3,0,.61,0,.92s0,.85,0,1.27a7.43,7.43,0,0,0-.12,1.37V214l0,.53q0,.56,0,1.11v.22l0,.67c0,.31,0,.62,0,.94s0,.84,0,1.26c0,.13,0,.26,0,.39v.18h-.33l-1,0h-.48l-.79,0h-.92l-1.17,0a11.2,11.2,0,0,1-1.19-.07c-.3,0-.6-.07-.9-.08-.47,0-.93-.08-1.38-.13l-.33,0-.69-.07c-1.43-.11-2.77-.21-4.16-.21h-1.74a12.44,12.44,0,0,0-2.09.14l-.59.11a14.18,14.18,0,0,1-1.59.24h-.87l-1.49,0h-2.68l-1.42,0a2.63,2.63,0,0,1-.44-.91,4.73,4.73,0,0,1-.11-1.86c0-.33,0-.66,0-1s0-.59,0-.89v-.34a15.57,15.57,0,0,0,0-2.26L98.39,211a39,39,0,0,1-.39-5.13c0-1.07,0-2.17-.06-3.23v-.42l0-.49c0-.66,0-1.31,0-2,0-1.82,0-3.66,0-5.49v-1.86q0-.84,0-1.68v-.72c0-.5,0-1,0-1.51,0-1.25,0-2.5,0-3.75,0-2.46.07-5.31.24-8.1,0-.49,0-1,0-1.49l0-.89c0-1,.06-1.94.1-2.89,0-.51,0-1.08,0-1.64l0-.81c0-.83-.06-1.67-.11-2.5a44.42,44.42,0,0,1,0-4.6c0-.45,0-.9,0-1.35l0-.67,0-1.38c0-1.19,0-2.43,0-3.51v-.21l0-.54c-.07-1.84,0-3.75.09-5.28v-.16c0-1,.08-1.9.09-2.84s0-2,0-3v-.6c0-1.73,0-3.46.06-5.2,0-.4,0-.8,0-1.22v-.35c0-.82.08-1.63.07-2.44,0-1.27,0-2.52-.09-3.79-.07-1.64-.06-3.29,0-4.88,0-1,0-2,0-3,0-.69,0-1.39-.06-2.08l0-.62c0-.43,0-.83,0-1.23,0-1.2,0-2.45.09-3.46l0-.39c.09-2.07,0-4.24,0-6.16l-.06-1.86a44.69,44.69,0,0,1,.12-4.48c0-.39.07-.79.11-1.18l0-.4,0-.42c0-.47.08-.9.11-1.35,0-.71,0-1.42.07-2.13,0-.89,0-1.77.11-2.65l-.11.29a4.13,4.13,0,0,0,.11-.86l0-.45c0-.81.09-1.62.16-2.43l.07-1.13c0-.3,0-.61,0-.92v-.31c0-.47,0-.94,0-1.46l0-.45,0-.46c0-.43,0-.87,0-1.3,0-.64,0-1.14,0-1.65q0-.52.12-1l.09-.81v-.18c0-.09,0-.16,0-.24,0-.34,0-.67.08-1l0-.18a3.42,3.42,0,0,1,.07-.57,3.37,3.37,0,0,1,.15-.48,5,5,0,0,1-.11-.64,2.89,2.89,0,0,1,.7-2.09,2.74,2.74,0,0,1,1.93-1l.3,0c1.38-.1,2.68-.19,4-.2h.25c1.36,0,2.62,0,3.76.11h1.33c.53,0,1.06,0,1.6,0l1.41,0Zm64.68,40.94,1.7-.57.87-.36.19-.08.16-.06.86-.35c.68-.28,1.39-.51,2.09-.74l.21-.06.3-.1,1.13-.47a20,20,0,0,1,2.3-.86c.32-.1.65-.19,1-.27l.26-.07.26-.07c.36-.1.72-.2,1.07-.32l.41-.15.14-.05c.66-.25,1.25-.48,1.86-.65l.2-.07.22,0c.7-.2,1.39-.39,2.1-.54a12.25,12.25,0,0,1,1.33-.21c.25,0,.5-.07.75-.12.79-.12,1.59-.27,2.37-.42a23.53,23.53,0,0,1,4-.36l.74,0c1.28,0,2.56-.11,3.84-.19l.81-.06.3,0c.06-.68.1-1.33.14-2l.06-.94.08-1.44c.08-1.3.16-2.6.23-3.91l.08-1.09v-.25c0-.68.09-1.37.1-2.06,0-1.16,0-2.35-.09-3.5v-.61c0-1.12-.11-2.28-.09-3.42,0-.51,0-1,0-1.55,0-1,0-1.91,0-2.87,0-.49,0-1,0-1.49v-.36l0-.16a7.91,7.91,0,0,0,.07-1.45v-.37c0-.43,0-.86.07-1.29,0-.18,0-.34,0-.51s0-.33,0-.5V77.1l0-.22,0-.38,0-.37V76l0-.23,0-.38,0-.5,0-.5a3.8,3.8,0,0,1,.6-.49c1,.06,2.06.1,3.09.13h.29l.3,0c1.25.06,2.51.1,3.74.1h1.4l1.16,0h.35c.62,0,1.23,0,1.84,0h.24c.51,0,1,.13,1.51.21l.32.06.6.1a19.13,19.13,0,0,0,2.75.18H231l1.58-.08.29,0c.68,0,1.36-.07,2-.07l.7,0,.29,0,.65,0h1.08a4.67,4.67,0,0,1,.35,2.61c0,.61-.1,1.21-.14,1.81l0,.37c0,.6-.08,1.2-.13,1.79,0,.39-.07.78-.11,1.17-.12,1.07-.23,2.1-.26,3.1s0,2,0,3l0,1.21c0,.38,0,.77,0,1.15s0,.59,0,.89,0,.57,0,.86v.17a11.58,11.58,0,0,1,0,1.32c-.08,1.56-.06,3.11,0,4.68,0,.39,0,.77.05,1.16,0,.56,0,1.11,0,1.67,0,1,0,2,0,3.08l0,.81,0,.38c0,.63.07,1.24.07,1.85v1.58c0,.48,0,.95,0,1.43,0,1.68,0,3.4-.07,4.93l0,1.85c0,.82,0,1.66.08,2.47l.06.91,0,.75,0,.75.09,1.51c.07,1.23.13,2.33.11,3.43l0,1c0,.7-.05,1.41-.05,2.11,0,.87,0,1.74.06,2.6l0,1.13c0,.56,0,1.1,0,1.66v.31c0,.4,0,.78,0,1.17,0,1.39,0,2.78,0,4.18,0,.7,0,1.4,0,2.1v.36c0,.52,0,1,0,1.58,0,1.38,0,2.77-.08,4s-.09,2.44-.08,3.67c0,.88,0,1.77.05,2.65v.6c0,1.39,0,2.83,0,4.23s0,3.16,0,4.58v.26c0,1.08,0,2.12,0,3.18,0,1.35,0,2.69-.09,4,0,.29,0,.57,0,.86l0,.42V174c-.05.81-.09,1.72-.07,2.61l0,1.1c0,.87.05,1.75.05,2.63,0,1.32,0,2.64,0,4v.41c0,1.08.08,2.32,0,3.5,0,.44,0,.89-.07,1.34v.2c0,.68-.08,1.38-.07,2.07v1.1a49.43,49.43,0,0,0,.18,5.14l0,.21c.08.61.16,1.24.18,1.87,0,.47,0,.93,0,1.41v.39c0,.86,0,1.86.1,2.86.07.78.1,1.66.1,2.67a12.65,12.65,0,0,1-.26,2L238,210c0,.11,0,.23,0,.34a2.86,2.86,0,0,1,0,.42,2.67,2.67,0,0,1-.14.86,2.89,2.89,0,0,1-1.5,3.15l-.73.36a29.45,29.45,0,0,1-3.58,1.54,5.74,5.74,0,0,1-.9.18l-.36.06-.23,0c-.48.09-1,.18-1.44.23l-.6.08-.23,0c-.28,0-.55.09-.83.12a7.75,7.75,0,0,0-1.44.31c-.42.13-.84.24-1.27.36l-.23.07-1.48.41a8.76,8.76,0,0,1-2.13.62,11.52,11.52,0,0,0-2,.38,8.07,8.07,0,0,1-1.78.49c-.63.07-1.26.11-1.9.14a19.78,19.78,0,0,0-2.66.55l-.44.13a7.53,7.53,0,0,1-.94.23,12.87,12.87,0,0,1-1.49.18l-.58.06-.27,0c-.77.08-1.54.16-2.32.19l-.42,0a14.64,14.64,0,0,1-1.65.16h-.71l-1.37,0h-.33c-1.4-.06-2.79-.14-4.19-.22l-1.19-.06-2.88-.17-.75,0c-.59,0-1.17-.05-1.75-.11a29.16,29.16,0,0,1-3.79-.77l-.44-.11-1.55-.38-1.43-.25-.4-.08-.23,0-1-.19-.17,0a10.68,10.68,0,0,1-2.2-.52c-.29-.11-.57-.23-.85-.36s-.63-.28-1-.4l-.46-.17c-.52-.19-1-.38-1.55-.61l-.34-.15-.15-.07c-.5-.23-1-.45-1.5-.65a25.67,25.67,0,0,1-4.14-2,33.46,33.46,0,0,1-3.28-2.34c-1.21-1-2.37-2-3.45-3a27.53,27.53,0,0,1-2.85-3c-.31-.38-.63-.75-.95-1.12l-.22-.26-.28-.33-.35-.42-.71-.84c-1-1.18-1.82-2.45-2.65-3.68a23.57,23.57,0,0,1-1.34-2.34l-.41-.81a24.49,24.49,0,0,1-1.81-4.32c-.13-.41-.27-.82-.41-1.22l-.05-.16-.17-.51c-.26-.71-.5-1.43-.72-2.15-.39-1.29-.67-2.65-.89-3.74-.09-.47-.2-.93-.31-1.4-.21-.91-.38-1.7-.53-2.51s-.28-1.8-.4-2.71c-.06-.47-.13-.94-.2-1.42s-.15-.9-.25-1.35l0-.14a16.85,16.85,0,0,1-.28-1.76c-.06-.64-.09-1.29-.12-1.93l0-.33,0-.38-.06-1.22-.1-1,0-.17c-.1-1.05-.2-2-.22-3,0-.67,0-1.34,0-2,0-.47.1-.94.17-1.41l.08-.54c.08-.57.15-1.15.21-1.73l0-.38a8.33,8.33,0,0,1,.16-1l0-.14.05-.27.08-.44c.09-.51.17-1,.23-1.54a22.53,22.53,0,0,1,.54-3c.26-1,.59-2,.94-3l.08-.22c.18-.54.41-1.05.63-1.57s.48-1.11.68-1.69.37-1.06.57-1.59l.57-1.6a29.11,29.11,0,0,1,1.48-3.46,14.53,14.53,0,0,0,.7-1.67l.13-.28.24-.45.39-.73c.22-.43.45-.87.72-1.29s.53-.68.8-1l.12-.15.12-.13c.64-.77,1.17-1.47,1.63-2.13l-.24.24.47-.56c.26-.35.52-.7.79-1a4.49,4.49,0,0,1,.36-.39,6.22,6.22,0,0,0,.47-.53l.16-.21c.24-.33.48-.65.73-1s.41-.51.62-.77.56-.5.82-.76l.25-.32.24-.31.17-.22c.2-.28.41-.55.64-.82l.26-.31.1-.11.14-.15.26-.26a15.56,15.56,0,0,0,1.44-1.29c.2-.21.4-.4.61-.6l.31-.25.47-.37.46-.38.51-.41.2-.17.82-.53.42-.27a16.34,16.34,0,0,0,1.44-1.11,7,7,0,0,1,.86-.56l.56-.35c.38-.25.73-.52,1.08-.79l.29-.13.34-.14.37-.15.9-.35.3-.11.19-.07.93-.35.62-.24.45-.18.24-.1c.49-.2.94-.38,1.42-.53l-.3.06Z"/><path class="cls-2" d="M205.78,131.47h0a4.87,4.87,0,0,0-.66,0l-.65,0-.63,0-.47,0h-.18a8.86,8.86,0,0,0-1.37.13l-.26,0-1,.18-.32.1a5.29,5.29,0,0,1-1,.22h-.52l-.21.08a8.44,8.44,0,0,1-.87.2c-.48.07-.84.13-1.23.16a5.63,5.63,0,0,0-.59,0l-.79.21-.87.23a5.41,5.41,0,0,0-1.14.38c-.29.14-.58.27-.88.39s-.47.17-.7.27a9.9,9.9,0,0,0-.87.56l-.37.26c-.31.21-.61.41-.9.63s-.57.42-.87.62l-.28.19a11,11,0,0,0-2.85,2.64c-.1.11-.21.21-.32.31s-.32.29-.44.4a14.5,14.5,0,0,0-1.3,1.54l-.15.17a16.18,16.18,0,0,0-1.45,1.88,11.65,11.65,0,0,0-.79,1.44l-.36.69-.07.14c-.21.4-.42.8-.6,1.23-.11.24-.2.48-.29.72l-.17.44-.37.74-.12.23c-.31.63-.62,1.27-.89,1.93a15.36,15.36,0,0,0-.86,3.23l-.06.37-.07.42c-.08.39-.14.77-.21,1.16l-.18,1.1c-.11.7-.18,1.35-.26,2l0,.26-.06.44-.11.77,0,.26c0,.35-.1.7-.14,1.06s-.09.84-.15,1.26a18.3,18.3,0,0,0-.21,3c0,.68,0,1.36,0,2a17.46,17.46,0,0,0,.17,3.67c.11.54.24,1.06.38,1.58l.16.63c.07.51.12.91.18,1.31l.08.28q.19.87.42,1.74c.08.3.17.59.26.88l.06.2.07.2a10.58,10.58,0,0,0,.23,1.35,5.11,5.11,0,0,0,.51,1.31,7.5,7.5,0,0,1,.33.7l.05.17.09.26c.12.32.23.65.39,1a13.25,13.25,0,0,1,.73,1.46q.15.38.3.72c.19.34.38.66.59,1l.11.19c.14.23.27.48.4.73s.34.64.51.9.47.68.72,1l.16.22.26.34.17.24.11.16.17.23.27.35a16.11,16.11,0,0,0,2.3,2c.4.27.78.56,1.17.86l.21.16c.26.19.52.39.78.57l.84.46.18.1c.26.14.52.28.77.43l.17.1c.8.48,1.62,1,2.47,1.4.48.23,1,.43,1.48.63l.68.27,1.6.62.63.22.31.1.69.24a18.22,18.22,0,0,0,3.76.61l.21,0c.63,0,1.27,0,1.89.09l.68.08.54.06h.35l.9,0h.27l.4,0h.35a4,4,0,0,0,.49,0,10.32,10.32,0,0,0,1.54-.14l.23-.05a12.32,12.32,0,0,1,1.61-.35c.16,0,.32,0,.49,0h.15a12.07,12.07,0,0,0,.38-1.95v-.53l0-.53,0-.54c0-.5.06-1,.1-1.5l0-.47c0-.39,0-.78,0-1.16v-.17c0-.33,0-.66,0-1,0-.58.06-1.14.1-1.71l.05-.64c0-.44,0-.88,0-1.33v-.3c0-.3,0-.61,0-.91,0-.83.07-1.65.14-2.48l0-.48c.06-1,.16-2.1.27-3.12l.06-.63c.09-.84.17-1.68.23-2.52,0-.65,0-1.3-.05-1.94a27.19,27.19,0,0,1,0-2.86c0-.6.13-1.2.21-1.79s.13-1.08.18-1.63c.05-1.71,0-3.52,0-5.36l0-.67c0-.63-.05-1.24-.05-1.85s0-1.29.08-1.94v-.22l0-.25,0-.68.05-1.18V157c0-1,0-2-.05-3-.06-1.12-.11-2.09-.1-3,0-.67,0-1.33,0-2v-.73l0-.82v-1.74c0-.42,0-.83,0-1.25-.08-1.71-.12-3.43-.14-5.15,0-.33,0-.67,0-1v-.67c0-.44,0-.88,0-1.33,0-1,0-1.85.1-2.63l-.11.23a15.12,15.12,0,0,0,.05-2.42h-.24a5.69,5.69,0,0,0-.72,0c-.58,0-1.17.06-1.75.06-.74,0-1.48,0-2.21-.07h-.91c-.45,0-.88-.06-1.33-.1Z"/></g></g></svg>