<?xml version="1.0" encoding="utf-8"?>
<!-- Generator: Adobe Illustrator 24.3.0, SVG Export Plug-In . SVG Version: 6.00 Build 0)  -->
<svg version="1.1" id="Capa_1" xmlns="http://www.w3.org/2000/svg" xmlns:xlink="http://www.w3.org/1999/xlink" x="0px" y="0px"
	 viewBox="0 0 486.7 486.7" style="enable-background:new 0 0 486.7 486.7;" xml:space="preserve">
<style type="text/css">
	.st0{fill:#FFFFFF;}
</style>
<g>
	<path class="st0" d="M403.9,196.6h-9.5v-44.4C394.4,70.1,329.2,1.5,247.8,0c-2.2,0-6.7,0-8.9,0c-81.4,1.5-146.6,70-146.6,152.1
		v44.4h-9.5c-14.6,0-26.5,15.1-26.5,33.7v222.6c0,18.6,11.9,33.8,26.5,33.8h321c14.6,0,26.5-15.2,26.5-33.8V230.3
		C430.4,211.6,418.5,196.6,403.9,196.6z M273.4,341.4v67.3c0,7.7-6.4,14.2-14.2,14.2h-31.8c-7.7,0-14.2-6.5-14.2-14.2v-67.3
		c-7.5-7.4-11.8-17.5-11.8-28.8c0-21.3,16.5-39.7,37.5-40.5c2.2-0.1,6.7-0.1,8.9,0c21,0.8,37.5,19.2,37.5,40.5
		C285.3,323.8,280.9,334,273.4,341.4z M331.9,196.6h-84.1h-8.9h-84.1v-44.4c0-48.9,39.7-89.3,88.5-89.3s88.5,40.4,88.5,89.3
		L331.9,196.6L331.9,196.6z"/>
</g>
</svg>
