<svg xmlns="http://www.w3.org/2000/svg" width="259.04" height="243.605" viewBox="0 0 259.04 243.605">
  <defs>
    <style>
      .a, .b {
        fill: #384173;
      }

      .b {
        opacity: 0.65;
      }

      .c {
        fill: #48578c;
      }

      .d {
        fill: #a9b5d6;
      }

      .e {
        fill: #fff;
      }
    </style>
  </defs>
  <g>
    <g>
      <path class="a" d="M14.626,32.358c-.469.06-.948.13-1.427.2-.529.059-1.048.129-1.567.2a6.544,6.544,0,0,0-1.427.419c-.3.12-.589.25-.888.37a9.284,9.284,0,0,0-1.428.588,11.874,11.874,0,0,0-1.3.939A6.715,6.715,0,0,0,5.184,36.21a12.066,12.066,0,0,0-1.407,1.977A19.065,19.065,0,0,0,2.19,42.3c-.359,1.188-.708,2.375-1.028,3.573a12.464,12.464,0,0,0-.349,2.505c0,.11-.01.22-.01.329.03.16.05.32.08.48.02.449.08.9.139,1.347.05.589.05,1.178.05,1.777V52.7a17.588,17.588,0,0,0,.26,2.844c.03.44.05.889.07,1.328l.04.8c.01.33.03.669.05,1l.04.479c.039.5.069.989.1,1.488l.05,1.157c.02.589.05,1.178.09,1.777.06,1.068.11,2.126.07,3.184a16.614,16.614,0,0,0,.06,2.665c.08.888.11,1.756.11,2.645-.01.539.01,1.078.04,1.647.029.5.059.988.059,1.487a21.048,21.048,0,0,0,.16,2.794,11.481,11.481,0,0,1-.02,1.757l-.03.719-.03.558-.03.559a5.591,5.591,0,0,0,0,.579l.01.38a5.468,5.468,0,0,0,.04.808H2.18l.06.319a7.689,7.689,0,0,1,.06.949,14.965,14.965,0,0,1-.05,1.9c-.16,1.118-.269,2.256-.359,3.383l-.05.509c-.04.38-.08.769-.09,1.148l-.02.29c-.01.279-.03.559-.05.838-.149,1-.269,1.986-.329,2.994l-.04.569-.02.31c-.01.209-.01.419-.01.628a11.153,11.153,0,0,0,.1,1.3,23.829,23.829,0,0,1,.11,2.755c0,.169,0,.329.01.5a4.34,4.34,0,0,1,.01.728c-.02.33-.04.659-.04.978l-.01.48a14.593,14.593,0,0,0,.04,1.746c.03.389.049.789.059,1.178,0,.5.01,1.008.03,1.507l.02.529.03.679.01.519c.07,2,.12,3.942.02,5.868l-.07.969c-.05.658-.1,1.317-.109,1.976l-.03,1.377c-.02.709-.04,1.407-.04,2.116l-.03.619c-.02.269-.03.529-.03.788s.01.529.02.789l.01.259c.01.17.02.35.02.519,0,.749-.02,1.5-.04,2.236l-.01.679-.03.858-.01.26a20.115,20.115,0,0,0,.02,2.195,18.8,18.8,0,0,1-.01,1.987l-.01.329c-.01.319-.02.639-.01.958,0,.429-.02.858-.04,1.288l-.01.419c-.03.619-.06,1.237-.05,1.866l.04,1.607.05,1.637c0,.329-.02.659-.05.988l-.03.6c-.02.639-.01,1.288.03,1.926l.08,1.338c.05.678.09,1.357.12,2.026v1.327c-.01.529-.02,1.068.01,1.6.01.449.05.889.1,1.487.05.539.1,1.078.13,1.617.03.7.03,1.408.03,2.116l.01,1.248c.01,1.028.07,2.056.13,3.084.06,1.158.08,2.315.08,3.483,0,.649,0,1.288-.01,1.936v1.268c0,.579-.02,1.148-.04,1.727l-.02.439c-.01.289-.01.579-.01.858-.02.649,0,1.288.02,1.927l.03.808.01.629c.01.319.02.639,0,1.008-.02.249-.04.509-.04.758l-.01.41c-.06.928-.07,1.866-.04,2.794.02.669.07,1.348.13,2.016l.07.829c.029.539.039,1.078.059,1.657,0,.359.01.728.03,1.1s0,.709-.02,1.118c0,.34-.01.659,0,1.018a17.852,17.852,0,0,1-.02,1.967c-.059.449-.109.9-.129,1.357l-.06.549q-.03.359-.03.719a20.4,20.4,0,0,0,.11,2.225l.04.579.049.539v.459a4.846,4.846,0,0,0,.03.659,7.767,7.767,0,0,1,.03.968,8.991,8.991,0,0,0,.02,1.038,2.256,2.256,0,0,0,.639,1.6,2.394,2.394,0,0,0,.579.439c.03.03.06.07.09.1a2.276,2.276,0,0,0,.958.22A2.347,2.347,0,0,0,6.761,197.9c-.018-.347-.028-.695-.029-1.042l-.08-.086a8.929,8.929,0,0,0-.04-1.038c-.01-.2-.02-.4-.02-.6s0-.419-.02-.628l-.04-.5-.1-1.128a25.752,25.752,0,0,1,.09-3.434,11.52,11.52,0,0,0,.14-1.2,5.22,5.22,0,0,0-.01-.679c-.01-.19-.01-.389-.01-.569l.01-.419c.02-.619.04-1.318,0-1.986-.01-.24-.01-.489,0-.859,0-.2,0-.409-.02-.858-.03-.469-.06-.958-.1-1.427l-.03-.42-.03-.469a22.215,22.215,0,0,1-.11-2.345l.03-1.078.06-1.9c.04-.6.02-1.208,0-1.837l-.01-.3-.02-.34-.04-.878c-.02-.629.01-1.278.04-1.846l.02-.3.01-.3c.01-.3.02-.6.01-.9v-.878c0-.758,0-1.507.02-2.256.05-1.866-.04-3.792-.14-5.459l-.06-1.278c-.03-.648-.03-1.3-.03-1.946,0-.409,0-.808-.01-1.208-.01-1.187-.1-2.345-.189-3.313a25.875,25.875,0,0,1-.06-2.945,30.759,30.759,0,0,0-.14-3.193,24.264,24.264,0,0,1-.04-3.584,17.416,17.416,0,0,0-.02-2.265l-.01-.469-.02-.469c0-1.388.02-2.536.06-3.6.04-1.118.07-2.256.09-3.374,0-.23,0-.459-.02-.788-.01-.2-.02-.39-.02-.589l.02-1.478v-.3c.02-.479.03-.958.03-1.447l.01-.479.01-.479.01-.479c.01-.45,0-.909-.02-1.368a16.94,16.94,0,0,1,0-1.746c.04-.609.05-1.208.05-2.007,0-.469.01-.928.03-1.4l.03-.6.02-.589c.02-.608.04-1.217.08-1.826l.03-.349c.059-.879.119-1.777.109-2.675l-.01-.29c-.03-1.836-.059-3.493-.139-5.15-.02-.509-.03-1.008-.04-1.517l-.02-.379-.02-.779L6,104.479c-.01-.269,0-.549.01-.828l.01-.389c0-.18.01-.36.02-.539.02-.2.03-.4.03-.6,0-.16-.01-.329-.03-.639l-.01-.409a19.089,19.089,0,0,0-.1-2.465,13.129,13.129,0,0,1-.08-2.376l.05-.469.02-.459.04-.459L6,94.389l.04-.479a14.42,14.42,0,0,0,.209-1.557,6.775,6.775,0,0,0,.04-.779l.02-.389.02-.389q.135-1.647.36-3.5a9.911,9.911,0,0,0,.149-1.337c.01-.369.01-.739,0-1.258,0-.229-.01-.459-.04-.8l-.04-.459c-.029-.3-.049-.589-.049-.878v-.45l-.01-.5a6.3,6.3,0,0,1,.049-.9c0-.12.01-.239.02-.349.01-.25.03-.5.05-.739.02-.219.03-.439.04-.659a7.63,7.63,0,0,0-.119-1.447c-.07-.778-.08-1.587-.08-2.375l-.01-.38q0-.479-.03-.958l-.02-.339c-.03-.569-.06-1.138-.05-1.7a24.11,24.11,0,0,0-.12-2.435l-.03-.319a18.706,18.706,0,0,1-.02-1.977c.01-.319.01-.628.01-.948.01-.908-.04-1.846-.1-2.9l-.03-.36c-.02-.329-.03-.668-.059-1.377-.01-.559-.03-1.118-.08-1.677-.08-.918-.13-1.836-.18-2.754-.02-.4-.04-.809-.05-1.218a9.343,9.343,0,0,0-.18-1.527l-.059-.32a17.075,17.075,0,0,1-.04-1.726v-.3c.01-.229.01-.459,0-.688a10.248,10.248,0,0,0-.1-1.148,3.731,3.731,0,0,0-.03-.649,4.514,4.514,0,0,0-.06-.5,8.94,8.94,0,0,1,.04-1.168A22.145,22.145,0,0,1,6.1,45.343l.2-.649.15-.549c.27-.948.549-1.916.908-2.844a11.345,11.345,0,0,1,1.118-1.9l.28-.269.459-.329.459-.32a7.143,7.143,0,0,1,.649-.429c.389-.14.778-.29,1.157-.449l.25-.1a2.121,2.121,0,0,1,.439-.12c.019.01.039.018.059.027.32-.074.641-.14.979-.186h-.06c.888-.11,1.767-.22,2.655-.34a2.239,2.239,0,0,0,1.417-1.058,2.343,2.343,0,0,0-.8-3.214,2.156,2.156,0,0,0-1.158-.309,4.718,4.718,0,0,0-.639.05Zm-4.621.908c-.06.02-.12.05-.179.07.059-.02.119-.05.179-.07Z"/>
      <path class="a" d="M230.9,29.753c-.958.03-1.916.04-2.884.05a15.756,15.756,0,0,0-3.484.319c-.429.09-.848.19-1.277.26a34.361,34.361,0,0,1-3.633.08c-.888-.02-1.777-.03-2.655,0-1.118.049-2.226.109-3.344.079s-2.2-.1-3.313-.139c-2.226-.08-4.462-.08-6.677-.02-1.977.06-3.923.339-5.909.309-1.058-.02-2.116-.05-3.174-.02-1.1.03-2.186.03-3.284-.01-2.176-.06-4.371-.08-6.537-.239-1.018-.07-2.036-.15-3.064-.19-1.178-.04-2.356-.02-3.524,0-2.225.04-4.431.249-6.657.19-2.275-.05-4.541-.15-6.807-.22-2.285-.06-4.581-.05-6.857-.1-1.437-.03-2.864-.02-4.291,0-.889.01-1.777.02-2.675.01-2.226,0-4.462-.08-6.687-.1-2.146-.01-4.282.06-6.428.14-1.028.04-2.046.1-3.074.12-1.208.02-2.425,0-3.633-.02-2.126-.02-4.242.11-6.368.15-2.146.04-4.292.01-6.447-.01-1.168-.01-2.346.05-3.524.05-1.158.01-2.325.039-3.483.049s-2.316.05-3.473.05c-.649.01-1.288,0-1.927-.01-.589-.01-1.177-.01-1.766-.01-4.661.01-9.322.18-13.973.46-2.286.129-4.572.079-6.857.159l-3.005.12c-1.018.04-2.036.05-3.044.14-4.222.349-8.453.728-12.685,1.008-2.136.13-4.292.159-6.448.169-1.088.01-2.176.01-3.264-.019-1.2-.03-2.395-.14-3.583-.19-2.116-.09-4.232-.22-6.358-.22-1.038,0-2.076.04-3.114.03-1.078-.01-2.136-.05-3.2-.09-1.807-.059-3.6,0-5.41.03-.958.01-1.926,0-2.885-.02-.928-.01-1.866-.03-2.8-.02a46.509,46.509,0,0,1-5.13-.159c-.43-.04-.859-.1-1.288-.13a12.408,12.408,0,0,0-1.5.06c-.858.06-1.707.15-2.545.259-.709.08-1.427.15-2.136.28a12.879,12.879,0,0,0-2.166.718,2.536,2.536,0,0,0-1.407,1.058,2.365,2.365,0,0,0-.27,1.8,2.4,2.4,0,0,0,1.058,1.417.55.55,0,0,0,.048.028c.029-.007.06-.012.092-.018a2.638,2.638,0,0,0,1.108.26,1.575,1.575,0,0,0,.529-.07,15.188,15.188,0,0,1,2.8-.839l.549-.059.558-.07.34-.04a24.605,24.605,0,0,1,2.655-.18,4.074,4.074,0,0,1,.848.09h.27l.429.04c.359.04.718.06,1.088.08l.409.03c1.038.06,2.106.06,2.914.06H27.9l1.347-.01.988.01L31,36.7c.5.01,1.008.02,1.517.02L33.7,36.7c.748-.02,1.487-.04,2.225-.04l.539.01H37l1.458.04.419.019c1.227.02,2.445.05,3.663.05H43.4l.659-.01c.519-.01,1.048-.02,1.577-.02.329,0,.669,0,1,.01,1.008.03,2.016.07,3.024.13l1.906.1.33.02c1.527.09,3.1.17,4.721.17,2.3-.01,4.381-.02,6.477-.1,1.977-.07,3.993-.21,6.348-.449.779-.07,1.567-.13,2.4-.19l.578-.05.31-.02c.259-.01.529-.03.8-.05l.4-.04.6-.06.629-.059.639-.06c1.467-.11,3.024-.18,4.282-.23.609-.02,1.227-.05,1.846-.08,1.417-.07,2.855-.09,4.392-.119l.6-.01.549-.01,1.187-.02c.8-.01,1.6-.05,2.386-.1l.978-.05,1.128-.05.728-.03.479-.02c.34-.02.679-.04,1.028-.07,2.7-.15,5.43-.169,7.965-.169h2.286c1.317,0,2.635,0,3.942-.03l2.406-.03.678-.01c1.378-.01,2.745-.03,4.122-.07h.649l.659-.01c.688,0,1.377.01,2.086.02h.3c.6.01,1.178.02,1.767.02.339,0,.688,0,1.028-.01.8-.01,1.6-.04,2.385-.07l.4-.01c1.178-.05,2.346-.09,3.514-.1.718,0,1.437.01,2.215.02.639.01,1.288.01,1.937.01,1.018,0,1.836-.01,2.565-.06,2.355-.12,4.841-.179,7.6-.179,1.8,0,3.583.029,5.53.059.519.01,1.048.02,1.577.02.678,0,1.357,0,2.155-.02.749-.01,1.5-.01,2.246-.01h.878c1.637.02,3.264.04,4.921.07l2.116.03c1.457.02,2.914.07,4.382.13l2.465.09c.778.02,1.577.04,2.355.04.28,0,.559,0,.839-.01q1.047-.03,2.1-.09l.628-.03.629-.04c1.048-.04,2.086-.06,3.064-.06,1.228,0,2.436.03,3.593.11l.879.06.459.03c.619.05,1.238.09,1.856.1l2.156.069.31.01.818.02c1.1.04,2.2.07,3.483.08h.619l.32-.01.279-.01h.339c.36-.01.709-.01,1.278-.01l.5.01.539.01.6.01h.589q.539,0,1.078-.03c.469-.01.938-.05,1.407-.09l.6-.059.718-.06c.869-.08,1.727-.09,2.525-.09h3.234l.609.01.409.01.41.01c.539.01,1.087.01,1.626.04l.729.04c.739.04,1.477.08,2.326.08s1.666-.03,2.5-.07l.389-.01c.539-.03,1.078-.04,1.617-.04l.579.01h.579l.389.01c.389.01.788.02,1.188.02.628,0,1.157-.02,1.676-.07a16.585,16.585,0,0,0,2.046-.28l.28-.06.289-.059.559-.12c.939-.09,1.9-.1,2.955-.1.539,0,1.088-.01,1.656-.03.38-.01.759-.02,1.138-.02.41,0,.829.02,1.258.05.309.02.629.05.948.08l.519.06c.469.05.938.1,1.4.11.16.009.33.019.489.019.21,0,.41,0,.619-.01l.449-.029c.27-.01.549-.01.829-.01l.3.01c.3,0,.609.01.948.039.45.02.889.03,1.338.03l.459-.01h.719l.7-.01a7.274,7.274,0,0,1,.928.04l.28-.02.4-.01.31-.01h.469l.319.02.27.04.359.05c.229.06.469.12.718.19a2.5,2.5,0,0,0,.639.06h.18l.171.041a2.33,2.33,0,0,0,1.875-1.658,2.364,2.364,0,0,0-1.627-2.885,14.353,14.353,0,0,0-2.445-.459c-.35-.03-.709-.01-1.058-.01-.33.01-.659.01-.988.01h-.579c-.978.01-1.956.04-2.945-.01a28.364,28.364,0,0,0-3.044-.04,21.64,21.64,0,0,1-3.214-.169c-.519-.06-1.038-.09-1.557-.12-.1-.01-.209-.01-.309-.01-.369,0-.739.03-1.108.04Z"/>
      <path class="a" d="M243.747,32.238a2.346,2.346,0,0,0,1.527,2.427l.289.018.27.04.359.05c.211.055.432.111.66.174.135.021.27.044.405.067.08,0,.174.009.292.009h.18l.329.08a5.336,5.336,0,0,1,.579.2,3.791,3.791,0,0,1,.439.3l.509.459a2.294,2.294,0,0,1,.364.388l.042.038-.046-.117.409.359a7.111,7.111,0,0,1,.9,1.048,3.089,3.089,0,0,0,.439.569l.32.4a3.523,3.523,0,0,1,.139.349c.16.569.27,1.138.41,1.846l.059.36a15.674,15.674,0,0,1,.3,2.255l.09.33c.06.888.149,1.776.259,2.655l-.02.289-.015.118c.008.067.017.134.025.2s.016.134.025.2c.043.125.088.262.145.439l.05.32c.09.6.17,1.147.209,1.706,0,.519.01,1.038.05,1.7l.08.779c.03.239.05.489.07.8.02.639.04,1.288.08,1.926l.01.31v.3l.02.749.03.758.01.519c.03.988.06,2.016.159,3.044.04.4.08.789.13,1.188.07.629.14,1.258.18,1.9.01.708,0,1.417-.02,2.125l-.01.34-.01.489v.509c-.01,1.357-.05,2.645-.12,3.843l-.08,1.137a28.7,28.7,0,0,0-.06,3.2c.04.779.1,1.557.16,2.336l.02.379.04.559c.03.4.06.8.08,1.188a28.157,28.157,0,0,1-.04,2.884c-.07,1.128-.13,2.256-.19,3.384-.06,1.177-.1,2.365-.139,3.573-.03.9-.06,1.8-.1,2.685l-.03.728-.02.719-.02.718-.03.659c-.04,1.248-.09,2.675-.18,4.042l-.07.879-.059.788-.06.759-.06.788-.04.479c-.07.789-.15,1.767-.15,2.7,0,1.148,0,2.286.02,3.663.01,1.6.02,3.194.01,4.791,0,1.447-.1,2.864-.229,4.551a34.4,34.4,0,0,0,.029,4.512c.05,2.265.02,4.311-.079,6.258-.04.578-.05,1.167-.06,1.856l-.01.439c0,.359,0,.729-.01,1.088-.02,1.088-.05,2.176-.1,3.264-.11,2.8-.13,4.791-.07,6.647.06,2.016.08,4.132.06,6.458-.01.718.01,1.427.04,2.145l.02,1.058.01.7c.01.719.03,1.417.06,2.136.05,2.206.07,4.232.05,6.188l-.02,1.058c-.01.689-.02,1.387-.01,2.076l.01,1.148c.01.758.02,1.517.01,2.276-.01,1.048.01,2.086.03,3.124s.04,2.076.03,3.114l-.01.419c-.01.938-.02,1.906.049,2.854l.06.869c.05.519.09,1.038.12,1.547v1.507c.01.389.01.778.04,1.168l.08,1.2.03.419.03.42a19.211,19.211,0,0,1-.18,3.223l-.12.559c-.04.22-.089.459-.119.7-.06.509-.09,1.008-.12,1.517l-.06.679-.04.569-.06.628c-.05.39-.09.779-.11,1.168l-.03.27-.03.269-.109.569-.038.027c0,.031,0,.062,0,.093a11.325,11.325,0,0,0,.01,1.427,2.347,2.347,0,0,0,.119,1.707,2.346,2.346,0,0,0,3.115,1.128,2.3,2.3,0,0,0,.449-.28c0-.02.01-.05.01-.08a2.97,2.97,0,0,0,.7-.958,4,4,0,0,0,.19-2.026,22.092,22.092,0,0,1,.229-2.545l.04-.369c.06-.509.09-1.018.12-1.537.03-.589.07-1.188.14-1.787.03-.21.07-.419.15-.778.05-.25.1-.489.129-.749.07-.659.13-1.307.15-1.976.02-.888-.04-1.767-.1-2.655-.03-.429-.06-.868-.08-1.308l-.02-1.257c-.01-.629-.019-1.258-.049-1.887,0-.389-.04-.778-.07-1.157l-.03-.27-.08-1c0-.539.01-1.078.02-1.617v-.569c.01-.958-.01-1.926-.04-3.124-.01-.988-.02-1.966-.02-2.944l-.02-2.346c-.01-.9,0-1.806.02-2.7l.01-.459c.01-.819.02-1.637-.01-2.466l-.02-1.846c-.01-1.208-.03-2.426-.06-3.573l-.02-1.328c-.02-.948-.04-1.916-.07-2.774v-3.234c-.02-1.068-.03-2.136-.04-3.224l-.02-1.627c-.02-1.707-.039-3.413.02-5.13.1-2.186.15-4.362.18-6.557.01-.559.04-1.118.07-1.677.04-.509.07-1.018.07-1.527q.03-1.677,0-3.354l-.03-1.018-.03-1.028c-.03-1.048-.06-2.106.01-3.144l.09-1.367c.05-.759.1-1.527.129-2.286s.02-1.507.01-2.256l-.01-1.127c0-1.118,0-2.236-.02-3.354-.019-1.088-.009-2.166.01-3.254.02-.758.08-1.517.15-2.275l.07-.889.05-.529c.15-1.966.309-3.992.349-5.988.09-3.394.23-6.787.38-10.181l.1-1.617c.07-1.167.13-2.335.09-3.493-.02-.858-.07-1.717-.12-2.565l-.039-.7c-.02-.489-.05-.968-.09-1.447l-.08-1.078c0-.878.06-1.766.12-2.645l.069-1.127c.06-1.168.08-2.336.1-3.494v-.619l.03-1.157a32.711,32.711,0,0,0-.07-3.564c-.03-.359-.079-.728-.129-1.087l-.11-.879q-.105-.943-.15-1.886v-.6l.04-.259c0-.06-.01-.12-.01-.18l-.02-.439-.03-.429a5.227,5.227,0,0,1-.02-1.118l-.06-.28-.04-1.367a1.259,1.259,0,0,1,.04-.27l-.06-.329c-.01-.419-.03-.848-.059-1.278l-.04-.628c.01-.05.01-.11.02-.16-.02-.22-.05-.429-.06-.649a16.378,16.378,0,0,0-.12-2.1c-.09-.649-.19-1.3-.27-1.946-.089-.769-.179-1.527-.249-2.3-.07-.728-.1-1.447-.23-2.165a34.3,34.3,0,0,0-.728-3.743,6.683,6.683,0,0,0-1.018-2.276c-.2-.279-.469-.519-.679-.808.05.079.11.159.15.239a10.593,10.593,0,0,0-2.176-2.405c.14.14.289.269.439.409-.21-.19-.409-.369-.619-.549-.222-.212-.444-.406-.666-.6a9.62,9.62,0,0,0-.811-.668,5.891,5.891,0,0,0-1.547-.719,18.334,18.334,0,0,0-3.433-.649c-.08,0-.17-.01-.26-.01a2.354,2.354,0,0,0-2.295,2.106Zm8.36-.047c.075.067.144.128.213.2-.071-.067-.142-.133-.213-.2Z"/>
      <path class="a" d="M253.4,194.357a2.4,2.4,0,0,0-.852.327l-.016.082a2.407,2.407,0,0,0-.968,2.286,10.413,10.413,0,0,1,.1,1.1l-.1.359a8.067,8.067,0,0,1-.639.828l-.23.28a2.331,2.331,0,0,1-.309.219l-.3.2a3.211,3.211,0,0,1-.389.17c-.349.089-.7.179-1.078.269a13.471,13.471,0,0,1-1.876.19c-.669.04-1.338.11-2.046.2-.5.07-1.058.11-1.7.15l-.589-.01h-.878c-.489,0-.978,0-1.477.03-.26,0-.519.02-.979.05l-.329.06c-.409.05-.808.09-1.218.12a33.324,33.324,0,0,0-3.353.249c-.569.07-1.158.11-1.906.15-.46.02-.919.05-1.378.1-.948.1-1.976.249-3.234.449l-.509.08a9.072,9.072,0,0,1-1.048.139l-.888.04-.589.03-.708-.01h-.739c-.259,0-.509,0-.769.01-.339.02-.688.05-1.028.09l-.548.06c-.569-.02-1.148-.07-1.787-.14-.289-.03-.579-.06-.868-.07-.23-.02-.469-.03-.7-.03-.429,0-.868.02-1.387.06l-.41.03c-.3.03-.588.05-.888.07h-.3a16.051,16.051,0,0,1-1.7-.07l-.479.02c-.549,0-1.088.03-1.667.08l-.559.04h-.579l-1.168.01c-.528,0-1.067-.01-1.606-.04-.36-.02-.719-.04-1.078-.04-.449,0-.9.01-1.388.04-.339.01-.688.01-1.038.01-.908,0-1.647-.02-2.345-.08-1.028-.09-2.046-.13-3.034-.13-.31,0-.609,0-.869.01h-.5l-.489.01c-.768.01-1.557.03-2.335.08l-.669.01h-.679c-.3.01-.589.01-.888.04h-.479c-.459,0-.918-.01-1.417-.02l-.719-.01-.459-.01-.918-.01h-.909l-.688.01c-.479,0-.958-.03-1.438-.06l-.519-.02-.539-.03-.528-.03-.829-.049c-.239-.02-.479-.04-.719-.05-.159-.01-.309-.01-.469-.01-.429,0-.858.02-1.277.04l-.579.01-.309.01-1.218.02c-1.178,0-2.376-.09-3.623-.19q-.853-.06-1.707-.09l-.269-.02c-.8-.04-1.527-.08-2.256-.16s-1.437-.169-2.156-.279c-.669-.09-1.337-.17-2.006-.25a24.2,24.2,0,0,0-2.5-.129q-.659,0-1.288.03h-.579c-.718,0-1.447.01-2.166.05h-.638c-1.068,0-1.967-.03-2.765-.09-.479-.03-.958-.04-1.607-.04h-.289a15.9,15.9,0,0,1-2.166-.25c-1.1-.189-2.226-.329-3.364-.419-.768-.07-1.487-.1-2.215-.1-.48,0-.959.01-1.448.04-.419.01-.848.01-1.277.01h-1.1c-.709,0-1.407,0-2.106.03h-.609c-1.377,0-2.785-.07-4.192-.2-.389-.039-.778-.049-1.158-.049-.668,0-1.347.04-2.116.089l-.339.03-.359.02-.36.02c-.319.01-.648.01-.978.01s-.648,0-.978-.01h-.319c-.559,0-1.118.02-1.7.05l-.549.03c-.449.02-.9.04-1.347.05l-.879.04c-.588.02-1.177.02-1.766.02-1.208,0-2.465.01-3.693.12-.878.07-1.747.189-2.475.3-.819.11-1.657.15-2.575.19-.909.02-1.8.05-2.755.1l-.579.03-.639.019-.888.02c-.858,0-1.8-.03-3.084-.129l-.31-.02c-.439-.03-.878-.05-1.367-.05-.339,0-.679.01-1.018.03l-.479.03-.529.04c-.7.01-1.4.04-2.116.079l-.539.02-.529.01H97.6l-1.317-.01c-.719,0-1.448.05-2.226.11l-.789.05-.529.01c-.339.01-.688.03-1.038.05s-.728.01-1.087.01l-.579-.01H88.864c-.579-.01-1.168-.02-1.757-.02-.788,0-1.587.01-2.375.05l-.649.01c-.9.01-1.816.02-2.745.11-.379.04-.768.09-1.147.149l-.34.05c-.369.05-.748.1-1.118.13-.678.01-1.577.04-2.485.14-.679.06-1.357.1-2.066.14l-.379.029H71.946c-.409-.009-.818-.009-1.227-.009-.469,0-.929,0-1.388.019h-.289c-.429,0-.868-.01-1.527-.029q-.838-.03-1.677-.03c-.339,0-.669,0-1.038.02a10.393,10.393,0,0,0-1.208.119c-.3.04-.6.08-.888.11-.729.05-1.447.09-2.186.13-.639.01-1.277.02-1.916.05h-.759c-.409,0-.818,0-1.227.01-.37,0-.719.03-1.388.08l-.389.03-.4.029h-.529c-.868,0-1.587-.029-2.276-.079q-1.392-.12-2.784-.21c-.9-.06-1.807-.11-2.715-.15l-.459-.03-.679-.05c-.15-.01-.3-.019-.449-.019-.21-.02-.419-.02-.629-.02-.279,0-.549,0-.858.02l-.429-.01c-.729,0-1.248-.02-1.757-.06-.419-.04-.848-.06-1.268-.06-.189,0-.389.01-.588.02-.649-.02-1.368-.06-2.2-.14-.22-.02-.439-.03-.649-.03-.469,0-.928.04-1.467.09l-.659.06h-.4c-.349,0-.709-.01-1.048-.04-.29-.03-.569-.04-1.028-.05l-.409-.03-.39-.02c-.329-.03-.668-.05-1-.05a16.728,16.728,0,0,0-2.275.17l-.27-.03a6.919,6.919,0,0,0-.718-.03c-.519.02-1.088.06-1.767.15l-.29-.03a4.448,4.448,0,0,0-.648-.04c-.33,0-.659.02-1,.05l-.33-.08-.259.01c-.35-.03-.709-.07-1.058-.13l-.359-.05a5.453,5.453,0,0,0-.8-.1c-.19-.01-.389-.01-.579-.01a3.918,3.918,0,0,1-.489-.02c-.748-.05-1.487-.169-2.086-.259l-.279-.05a8.66,8.66,0,0,0-1.7-.13l-.479-.05a4.727,4.727,0,0,0-.649-.05c-.359,0-.719.01-1.168.03-.109-.03-.229-.05-.519-.109a3.81,3.81,0,0,0-.549-.04,3.612,3.612,0,0,1-.479-.1l-.269-.05a7.482,7.482,0,0,1-.958-.379l-.23-.12-.4-.27a9.289,9.289,0,0,0-.6-.748l-.23-.28a6.065,6.065,0,0,0-.429-.658,3.646,3.646,0,0,0-.439-.789,7.509,7.509,0,0,0-.519-.758l-.309-.33v-.07l-.12-.119v-.01c.04.04.08.079.12.116v-.008c-.051-.053-.1-.108-.16-.158a2.007,2.007,0,0,0-.619-.689,2.4,2.4,0,0,0-1.746-.4,2.358,2.358,0,0,0-1.518.948,2.284,2.284,0,0,0-.4,1.747,3.3,3.3,0,0,0,.729,1.427c.07.08.15.16.229.239a1.178,1.178,0,0,0,.19.11.869.869,0,0,1,.19.28l.169.249a2.753,2.753,0,0,0,.24.529,5.536,5.536,0,0,0,.549.789,4.914,4.914,0,0,0,.569.758,3.775,3.775,0,0,1,.469.579,3.414,3.414,0,0,0,.848.908c.01,0,.379.23.379.23l.4.249a3.684,3.684,0,0,0,.589.33l.389.16a6.8,6.8,0,0,0,1.1.429,11.942,11.942,0,0,0,1.237.309l.449.07c.16.02.32.02.49.03l.3.05.319.09a1.755,1.755,0,0,0,.35.03,4.084,4.084,0,0,0,.628-.06l.33-.03a2.919,2.919,0,0,1,.509.04,7.669,7.669,0,0,0,.868.05,10.779,10.779,0,0,1,1.7.209l.329.06a14.943,14.943,0,0,0,2.426.19,13.842,13.842,0,0,1,1.676.189l1.1.15a4.7,4.7,0,0,0,.709.06,7.04,7.04,0,0,0,.758-.05l.35-.01.359.02a5.322,5.322,0,0,0,.689.05,2.952,2.952,0,0,0,.419-.03l.459-.05c.22-.03.439-.06.659-.08.11,0,.219.01.519.03.209.02.429.03.639.03a2.9,2.9,0,0,0,.509-.03l.4-.04c.3-.04.609-.08.908-.11.4.01.789.03,1.178.07a7,7,0,0,0,.908.05c.27.01.539.02.809.04a8.01,8.01,0,0,0,.848.04l.848-.02c.439,0,.879-.04,1.308-.08l.479-.05c.239.01.479.03.709.05.269.02.539.04.808.04s.559.02.828.04a5.419,5.419,0,0,0,.569.02l.549-.01c.519,0,1.048.04,1.577.09.21.02.419.02.639.02H41.8l.9.01h.709c.8,0,1.607.05,2.405.11l.569.04c1.018.069,2.046.129,3.074.179.43.03.849.07,1.368.11a18.727,18.727,0,0,0,1.976.13l.379.01c.619,0,1.238-.02,1.847-.06.289-.01.579-.03.858-.06l.7-.06,1.048-.01c.479,0,.958-.01,1.417-.02l.689-.01,1.457-.05c.289-.01.569-.03.908-.05.28-.02.549-.04.819-.05.469-.019.928-.069,1.387-.129l.369-.04c.27-.03.539-.06.809-.08.3,0,.6.01,1.158.04l.758.01c.379,0,.759.01,1.377.03.38,0,.759-.02,1.138-.05.589,0,1.178,0,1.857.02.409.01.818.01,1.227.01.509,0,1.028-.01,1.537-.04l.649-.03a12.051,12.051,0,0,0,1.467-.1c.559-.07,1.118-.11,1.777-.14l1.088-.039c.3-.01.609-.06.918-.1l.289-.06c.8-.12,1.607-.2,2.416-.24l2.465-.06h.619l.619-.01,1.677.01.469.01,1.387.01c.719,0,1.437-.01,2.156-.05.539-.01,1.078-.02,1.607-.049l.7-.05.679-.06c.329,0,.669,0,1,.01l.419.01h.42l.409-.01c1.048-.02,2.086-.07,3.124-.12l.958-.03,1.607-.06c.559,0,1.118.04,1.667.07l.319.02.938.05c.529.04,1.058.05,1.6.05.409,0,.829-.01,1.188-.02l.259.02.37-.04,1.167-.06,1.178-.06c.839-.01,1.687-.03,2.525-.09l.629-.03a17.106,17.106,0,0,0,1.717-.149c1.138-.16,2.285-.29,3.433-.35h1.148c.4.01.8.01,1.2.01.708-.01,1.417-.03,2.166-.07l.8-.04c.609-.029,1.228-.059,1.837-.079.259-.01.528-.01.788-.01h.779c.7,0,1.387,0,2.076-.03.409-.01.818-.04,1.227-.07l.749-.06c.688,0,1.377.06,2.066.11l.259.02,1.068.07c.689.039,1.388.059,2.076.059.579,0,1.168-.01,1.747-.039h1.158l.738.019c.18,0,.37-.01.549-.019.809-.01,1.607-.03,2.645-.06a38.4,38.4,0,0,1,5.52.559l.918.139a8.571,8.571,0,0,0,1.337.08l.619-.01c.259,0,.519.02,1.018.05.289.02.589.04.888.04l.809.03c.389.01.768.01,1.158.01.738-.01,1.467-.02,2.195-.05l1.108-.01.809-.01h.469a37.877,37.877,0,0,1,4.811.429c.838.11,1.686.22,2.525.3.758.079,1.507.109,2.335.149.629.03,1.268.06,1.9.1a28.021,28.021,0,0,0,2.894.13l.838-.01.969-.01,1.636-.04c.789,0,1.567.06,2.336.12l.469.03c.888.05,1.757.07,2.645.08l.5.01c.968.03,1.926.039,2.894.039s1.967-.009,2.835-.039c1-.02,1.976-.05,2.964-.09l1.118-.01,1.078-.02h.3c.919,0,1.827.06,2.735.13l.869.049c.568.04,1.147.06,1.726.06.629,0,1.258-.02,1.986-.04l.46-.02c.339,0,.688.02,1.038.04l.319.01.289.01.749.02,1.018-.02h1.278c.359,0,.718-.03,1.077-.06l.939-.049c.369,0,.748.01,1.118.02l.808.049.459-.02a13.436,13.436,0,0,0,1.4-.059c.36-.03.719-.06,1.158-.1.819,0,1.637.08,2.455.159l.619.05q.3.03.6.03a13.857,13.857,0,0,0,1.557-.1l.839-.079c.329,0,.648.01,1.087.05l.27-.02c.419,0,.838-.02,1.258-.05l.319-.02.629-.04a20.042,20.042,0,0,0,2.555-.31l.659-.1.469-.08c1.018-.14,2.046-.26,3.084-.32l.339-.02c.619-.04,1.238-.079,1.857-.159a17.5,17.5,0,0,1,1.766-.15h.26c.549-.02,1.107-.04,1.666-.11s1.148-.13,1.717-.16c.429-.009.858-.009,1.278-.009.748,0,1.5,0,2.245-.04.4-.02.809-.07,1.208-.13l.529-.07,1.138-.09.589-.05a13.171,13.171,0,0,0,2.715-.419l.289-.09a7.04,7.04,0,0,0,1.188-.429,11.591,11.591,0,0,0,1.028-.659,4.89,4.89,0,0,0,.589-.429,4.7,4.7,0,0,0,.618-.689l.459-.548.51-.619a5,5,0,0,0,.978-2.446c.02-.01.03-.03.05-.04v-.019a7.65,7.65,0,0,0-.05-1.647c-.03-.27-.07-.539-.1-.809a2.343,2.343,0,0,0-2.336-1.946,2.183,2.183,0,0,0-.359.03ZM6.622,196.772a.209.209,0,0,1,.04.06c.03.07.05.14.07.2-.03-.09-.07-.17-.11-.26Z"/>
      <path class="a" d="M40.267,0a19.53,19.53,0,0,0-1.986.18l-.719.089c-.569.03-1.137.04-1.706.04H34.239l-1.158.01-1.906.01L29.987.319c-1.158,0-2.306.08-3.444.17-.558.03-1.117.1-1.686.17l-.439.05q-.778.105-1.557.179l-.889.08-.878.08c-.529.04-1.048.07-1.577.07H18.489l-.689-.01-.678.01c-.789.04-1.577.08-2.356.17a5.937,5.937,0,0,0-1.677.558,8.431,8.431,0,0,1-1.317.32,5.943,5.943,0,0,0-1.3.179,6.092,6.092,0,0,0-1.886.869,6.493,6.493,0,0,1-.838.4,8.465,8.465,0,0,0-.8.369A9.032,9.032,0,0,0,4.875,5.489c-.17.17-.339.34-.609.569a4.759,4.759,0,0,0-.668.6,7.032,7.032,0,0,0-.629.779c-.14.209-.28.409-.459.629a2.774,2.774,0,0,0-.34.419,5.043,5.043,0,0,0-.6,1.068,11.018,11.018,0,0,0-.878,3.134c-.08.429-.12.858-.16,1.287l-.02.27c-.039.549-.089,1.108-.179,1.646-.09.52-.16,1.039-.22,1.558a13.082,13.082,0,0,0-.04,1.916v1.2c0,.668,0,1.337.02,2,.04,1.207.05,2.415,0,3.613-.02.609-.05,1.217-.08,1.826a19.6,19.6,0,0,0,.03,2.026c.01.549.01,1.088,0,1.637-.01.679-.01,1.368.03,2.046.03.509.06,1.028.06,1.537,0,.589.04,1.178.09,1.767s.04,1.158.03,1.747l-.01.309-.02.579A10.337,10.337,0,0,0,.3,40.762l.01.8c.01.31.01.609.05.918a16.393,16.393,0,0,0,.189,1.687l.12.928c.01.36,0,.719-.01,1.078a11.742,11.742,0,0,0,.01,1.188,14,14,0,0,0,.21,1.827c.02.449.08.9.139,1.347,0,.04.01.09.01.13A2.433,2.433,0,0,0,1.991,51.9a2.4,2.4,0,0,0,1.786.33,2.348,2.348,0,0,0,1.457-1,2.119,2.119,0,0,0,.319-.8c-.011-.1-.024-.214-.039-.342a3.731,3.731,0,0,0-.03-.649,4.514,4.514,0,0,0-.06-.5c0-.188-.005-.369,0-.548-.055-.339-.113-.676-.15-1.019-.01-.629.04-1.268.02-1.9-.03-1.008-.229-1.986-.329-2.975-.02-.329-.02-.658-.03-1-.01-.489-.05-.988-.1-1.477-.01-.549.04-1.1.04-1.657,0-.7-.06-1.4-.11-2.1-.05-.718-.04-1.447-.07-2.165h-.02l-.019-.29c-.03-.539-.02-1.1-.01-1.637v-.349c.01-.31.01-.619,0-.918l-.02-.789v-.11c-.01-.708-.03-1.447,0-2.175.049-.889.1-2.007.1-3.055,0-.668-.02-1.337-.04-2.016l-.029-.838c-.01-.6-.01-1.188,0-1.787V18.744a16.442,16.442,0,0,1,.269-2.605l.08-.5c.07-.459.11-.918.15-1.377.029-.44.069-.869.139-1.308a10.286,10.286,0,0,1,.519-1.637,6.351,6.351,0,0,1,.569-.758,2.918,2.918,0,0,0,.29-.4l.06-.079.119-.19c.12-.1.24-.2.419-.339.13-.12.27-.23.4-.36.11-.1.209-.2.309-.3l.09-.08A5.57,5.57,0,0,1,8.5,8.4a10.254,10.254,0,0,1,1.018-.559c.14-.06.28-.12.429-.18l.12-.05.25-.1a6.889,6.889,0,0,0,1.018-.6l.109-.05a4.163,4.163,0,0,1,.7-.15,7.534,7.534,0,0,0,1.627-.269l.17-.05c.179-.06.369-.12.559-.18s.359-.15.539-.22l.129-.049.21-.1c.11-.02.239-.05.349-.06l.409-.03c.29-.02.579-.04.869-.05.189-.01.379-.01.569-.01h.519l.269.01h.21l.459.01h.16c1.147-.01,2.3-.12,3.433-.23l.419-.019a.97.97,0,0,0,.17-.01h.01l-.06-.02c.778-.07,1.547-.16,2.326-.25l1.257-.14c.918-.06,1.827-.1,2.745-.129h2.595c.349,0,.689,0,1.038-.01.569-.01,1.148-.01,1.727-.01l.568.01c.38,0,.769-.01,1.148-.02a25.7,25.7,0,0,0,2.645-.21l.1-.02.419-.05c.21,0,.419-.01.629-.01.559,0,1.138.03,1.846.09.42.04.889.06,1.418.06.509,0,1.008-.01,1.507-.03.229-.01.449-.01.669-.01.4,0,.788.01,1.177.02.32,0,.639.01.958.01l.12.01c.2,0,.4-.01.6-.02h.21l.2-.01c.36-.01.709-.02,1.068-.02.17,0,.35,0,.519.01l.8.04.848.04c1.337.07,2.735.15,4.092.15.26,0,.519-.01.779-.02.239,0,.469-.01.7-.02h.17c.27-.01.549-.02.888-.02.449,0,.9.03,1.358.06l.609.029c1.217.06,2.425.12,3.643.14h.219c.339,0,.669-.01,1.018-.02l.18-.01h.12l.219-.01c.31-.01.619-.02.918-.02.22,0,.44.01.659.02.958.06,1.926.11,2.954.16l.15.01,1.238.06.16.01a45.371,45.371,0,0,1,4.651.409,7.568,7.568,0,0,1,1.317.369,1.429,1.429,0,0,1,.2.14l.678.639c.3.289.639.549.969.818l.119.09.09.1c.08.15.17.3.25.449l.06.11.079.15c.14.239.27.489.41.728.5.809,1.048,1.617,1.557,2.366A31.7,31.7,0,0,0,85.351,15c.409.459.818.928,1.227,1.4.489.558.978,1.117,1.477,1.656.26.28.509.559.749.849l.14.149c.169.19.329.38.5.569a17.567,17.567,0,0,0,1.7,1.527l.21.18a.01.01,0,0,0,.01.01c.11.1.23.19.349.279a2.216,2.216,0,0,0,1.787.33,2.313,2.313,0,0,0,1.447-.988,2.379,2.379,0,0,0,.34-1.8,2.228,2.228,0,0,0-.49-.968c-.029-.01-.069-.02-.1-.03a3.657,3.657,0,0,0-.449-.409l-.859-.689a16.046,16.046,0,0,1-1.417-1.547l-.349-.4-.6-.679c-.449-.489-.889-.978-1.318-1.487q-.418-.508-.868-.988c-.3-.319-.589-.639-.868-.978-.529-.659-1.038-1.338-1.627-2.166C85.79,8,85.251,7.166,84.782,6.288a7.221,7.221,0,0,0-1.068-1.6,6.551,6.551,0,0,0-.928-.8l-.24-.18-.3-.28c-.4-.379-.8-.748-1.228-1.088a6.1,6.1,0,0,0-2.535-.988A31.835,31.835,0,0,0,72.835.729L71.817.679c-.979-.05-1.957-.11-2.935-.19h-.4c-.349-.02-.709-.04-1.068-.04l-.439.02c-.579.03-1.168.05-1.986.05-.859,0-1.737-.04-2.595-.09l-.41-.01c-1.058-.06-2.106-.11-3.163-.11-.33,0-.649,0-.979.02-.359.01-.728.01-1.088.01-1.267,0-2.545-.06-3.822-.129L52.384.19l-.32-.02C51.446.14,50.827.11,50.2.11l-.4.01L49.22.13c-.439.01-.868.02-1.3.02h-.439l-.6-.01L45.876.12c-.219,0-.449,0-.768.02-.419.01-.829.02-1.248.02-.379,0-.768-.01-1.148-.03L42.074.07C41.565.03,41.066,0,40.557,0Z"/>
      <path class="a" d="M91.07,19.562a2.392,2.392,0,0,0,.249,1.737l.03.03a2.46,2.46,0,0,0,1.437,1.058l.719.24a17.2,17.2,0,0,0,2.555.688c.9.15,2.126.35,3.314.609a34.213,34.213,0,0,0,5.908.619l.809.04c.549.03,1.088.03,1.627.03.509,0,1.018,0,1.527.02.429.02.848.05,1.277.09l.16.01c.5.039,1,.069,1.5.079.28.01.549.01.819.01.389,0,.768,0,1.157-.01.37,0,.749-.01,1.208-.01.649,0,1.288-.02,1.926-.059.429-.02.859-.04,1.3-.05,1.148-.03,2.3-.09,3.443-.16,1.118-.06,2.226-.12,3.344-.15l.708-.02c.949-.03,1.907-.06,2.855-.1.8-.04,1.587-.1,2.375-.169l1.1-.08c2.056-.15,4.182-.23,6.059-.29l1.4-.049.459-.01h.16c2.1-.08,4.252-.15,6.387-.18h.539c1.058,0,2.106.04,3.164.08.9.03,1.787.06,2.685.07l.639.01.888-.01h1.667l.459.01h.489c.819.02,1.627.03,2.436.03h.968c.828,0,1.8,0,2.735-.06.369-.01.728-.03,1.087-.05l.38-.03c.718-.05,1.427-.09,2.156-.12.748-.01,1.5-.02,2.245-.02h.459c.3,0,.609,0,.919-.01.7-.01,1.4-.04,2.106-.08l.389-.02,1.2-.06.968-.03.239-.01c.629-.019,1.248-.039,1.877-.039h.179c1.1.01,2.206.039,3.314.069,2.236.08,4.461.09,7.106.09,1.2,0,2.406-.04,3.583-.08l.16-.01c1.158-.049,2.316-.089,3.483-.1,2.146-.01,4.222-.1,6.518-.21.529-.03,1.068-.04,1.6-.04.918,0,1.846.03,2.774.06.689.02,1.388.05,2.076.05l.33.01c.669,0,1.347-.03,2.026-.06.419-.02.838-.04,1.258-.05s.808-.01,1.207-.01h1.238l.978.01h.868c.819,0,1.627,0,2.446.02,1.187.04,2.365.07,3.543.08l1.816.01c1.617.01,3.284.02,4.931.09.888.04,1.776.109,2.695.209.219.02.439.05.658.07l-.01-.01h-.02l-.169-.04c.549.06,1.108.11,1.667.16l.249.03.26.03a2.157,2.157,0,0,0,.618.08.127.127,0,0,0,.06-.01l.27.04.269.03.659.079c.739.08,1.477.17,2.216.23l.469.04c.589.04,1.188.1,1.776.15a26.4,26.4,0,0,0,3.2.259l.18-.01h.279c.739,0,1.537.05,2.446.14a18.6,18.6,0,0,1,3.733.8,12.233,12.233,0,0,1,1.7.919c.12.109.23.209.35.339v.02l.119.12a13.849,13.849,0,0,1,1.008,1.607c.01.03.02.059.03.1.01.27.01.529.03.8.01.06.01.12.02.179.01.04.02.07.03.11l.01.19c.03.22.05.449.06.669.02.379-.01.758-.03,1.2l-.01.11c-.02.12-.02.24-.04.359a5.941,5.941,0,0,0-.01.729,25.577,25.577,0,0,1-.119,2.615c-.05.769-.01,1.527-.06,2.286-.23,1.527-.659,3-.779,4.541.015.142.025.286.033.431.033.275.059.567.077.886l.09.33q.018.265.039.531a11.139,11.139,0,0,1,.134,1.4c.028.243.056.486.086.728l-.02.289-.04.31c.07.189.13.369.22.648l.05.32c.09.6.17,1.147.209,1.706,0,.112,0,.223,0,.335a2.381,2.381,0,0,0,2.613.134,2.2,2.2,0,0,0,1.058-1.447,12.869,12.869,0,0,0,.17-2.235c-.03-.529-.1-1.058-.14-1.6a11.421,11.421,0,0,1,.04-1.547c.03-.42.02-.839.04-1.258.18-1.1.489-2.166.649-3.274a18.053,18.053,0,0,0,.19-2.2c.02-.619-.01-1.238.04-1.867a17.568,17.568,0,0,0,.109-1.767,16.373,16.373,0,0,1,.01-1.716,8.627,8.627,0,0,0,.01-1.607c-.01-.17-.02-.349-.03-.519-.03-.11-.05-.23-.08-.349-.01-.23-.019-.47-.049-.7a5.943,5.943,0,0,0-1-2.765L257.1,25.1c-.19-.31-.389-.619-.6-.918a8.969,8.969,0,0,0-3.623-2.8,19.216,19.216,0,0,0-6.8-1.467c-.709-.06-1.4-.08-2.136-.1-.718-.02-1.427-.04-2.136-.1-.848-.1-1.7-.179-2.545-.249l-1.677-.15c-.768-.1-1.527-.19-2.545-.29-.748-.1-1.487-.169-2.265-.239a59.247,59.247,0,0,0-6.238-.4l-1.358-.01-1.457-.01c-1.347-.01-2.7-.01-4.052-.03-1.867-.05-3.743-.08-5.619-.08l-1.248.01c-.619,0-1.238.03-1.857.06l-.519.02c-.369.01-.738.03-1.107.04h-.629c-.709,0-1.427-.02-2.216-.04l-.469-.01-.918-.02c-.659-.02-1.308-.04-1.966-.04l-.34.01c-.8,0-1.6.04-2.4.08l-.4.03-.48.03c-1.117.05-2.235.069-3.4.079-1.148.01-2.316.02-3.463.09-1.767.09-3.534.12-5.3.12-2.306,0-4.611-.05-6.907-.11l-1.737-.04-.968-.02c-1.148,0-2.3.05-3.453.1l-.509.03-1.028.04-1.038.05c-.819.02-1.617.02-2.426.02l-1.257.01c-.609,0-1.218.03-1.827.06l-.389.03c-.439.03-.888.06-1.337.08-1.517.079-3.044.1-4.562.1-.858,0-1.706,0-2.565-.01l-1.776-.02c-1.617,0-3.224-.01-4.831-.069-1.1-.05-2.186-.07-3.274-.07s-2.185.02-3.283.05q-3.549.075-7.1.239l-1.527.06c-.738.03-1.477.06-2.226.11-.918.05-1.846.12-2.754.189l-.879.07c-1.317.09-2.634.13-3.982.16-1.028.03-2.066.06-3.094.12-2.964.169-6.168.329-9.462.329h-1.1c-.738-.01-1.477-.08-2.375-.15-.489-.049-.968-.049-1.457-.059h-1.168c-.779-.01-1.547-.05-2.326-.1l-1.1-.08-1.227-.06a16.577,16.577,0,0,1-1.837-.3l-1.8-.37-.32-.06-.918-.149a9.629,9.629,0,0,1-1.4-.29c-.479-.129-.958-.279-1.447-.439l-.07-.07-.719-.239a1.936,1.936,0,0,0-.579-.09,2.45,2.45,0,0,0-2.255,1.8Zm141.079,3.763c.05.01.11.01.159.02a.876.876,0,0,1-.159-.02Z"/>
      <path class="a" d="M253.748,24.265a2.292,2.292,0,0,0-1.118,1.358,2.5,2.5,0,0,0-.1.958c0,.01.01.02.02.03a1.663,1.663,0,0,0,.269.808,8.261,8.261,0,0,1,.729,1.3c.09.279.16.549.24.828l.01.12c.01.05.02.09.029.14.08.289.16.588.21.878.01.4-.01.8-.02,1.2a13.967,13.967,0,0,0,.025,1.763,6.227,6.227,0,0,1,0,1.031,8.947,8.947,0,0,0-.18,1.557,15.979,15.979,0,0,0,.1,1.827c.07.878.05,1.746.04,2.635a24.724,24.724,0,0,0,.14,2.724v-.01a.06.06,0,0,0,.01.04v.06c.008.1.016.193.025.285l0-.014c.186,2.292.206,4.594.206,6.895-.01,1.268.15,2.526.06,3.793a24.787,24.787,0,0,0,.35,5.08,2.256,2.256,0,0,0,1.038,1.458,2.329,2.329,0,0,0,1.766.3,2.411,2.411,0,0,0,1.128-.619,20.49,20.49,0,0,1-.2-2.046,2.956,2.956,0,0,1,.03-.571V57.8l.04-.28-.03-.6-.03-.429a5.358,5.358,0,0,1-.02-1.118l-.059-.279-.04-1.367a1.259,1.259,0,0,1,.04-.27l-.06-.329c0-.163-.01-.327-.017-.492a6.588,6.588,0,0,1-.054-.962l-.029-.453c.05-.439.1-.868.14-1.207.03-.19.05-.38.07-.6a7.2,7.2,0,0,1-.07-1.867l.06-.479a5.5,5.5,0,0,1,.379-1.726c-.06-.929-.13-1.857-.22-2.775a19.206,19.206,0,0,1-.02-2.146,21.913,21.913,0,0,0-.09-2.565,12.331,12.331,0,0,1,.01-2.335,4.733,4.733,0,0,0,.13-1.009,11.224,11.224,0,0,0-.07-1.157,14.861,14.861,0,0,1,.03-1.637l.01-.34a8.6,8.6,0,0,0-.289-2.485c0-.094-.009-.191-.014-.287a10.648,10.648,0,0,0-1.433-3.406,2.536,2.536,0,0,0-1.368-1.118,2.325,2.325,0,0,0-.689-.1,2.3,2.3,0,0,0-1.117.279Zm.289,9.282,0,.071c0-.022,0-.046,0-.071Z"/>
      <path class="a" d="M254.17,43.664c0-.051-.008-.1-.013-.152l-.005-.056c.005.07.011.139.018.208Z"/>
      <path class="b" d="M181.054,27.309c-.544.026-1.089.033-1.633.033H178.9c-.388,0-.775,0-1.163,0-1.191.011-2.382.11-3.7.227l-.234.018c-.928.077-1.889.158-2.832.194-2.347.08-4.682.1-6.86.113-1.462,0-2.942.11-4.375.212l-.131.011-.344.022c-.808.059-1.619.117-2.434.157l-.994.048-.3.011c-1.06.051-2.156.106-3.234.11l-1.265-.033c-.815-.022-1.63-.044-2.449-.044l-.244,0c-.629,0-1.258.03-1.883.059l-.19.011c-.573.029-1.147.058-1.721.069-.859-.025-1.784-.087-2.906-.193-.544-.055-1.089-.1-1.637-.143s-1.1-.088-1.641-.142c-1.177-.125-2.233-.191-3.227-.2-.274-.008-.545-.008-.819-.008-.512,0-1.027.008-1.546.015l-.486,0c-.314,0-.625.007-.939.007-.475-.011-.95-.026-1.455-.04l-.964-.029-.639-.032-.274,0,.094.021c-.442-.011-.881-.014-1.323-.014-.8,0-1.59.01-2.387.025l-1.429.022-.844-.033c-.548-.018-1.093-.033-1.637-.033q-.456,0-.91.022c-.907.04-1.857.062-2.986.069a14.629,14.629,0,0,0-1.78.147c-.479.055-.969.113-1.455.131-1.092.03-2.192.114-3.318.2l-.252.018c-.629.044-1.257.073-1.908.1-.486.022-.976.044-1.462.077-1.2.073-2.4.153-3.633.238-1.078.065-2.174.087-3.286.113-1,.022-2.006.044-3.011.1-.4.018-.793.029-1.191.044l-.4.015c-.372.007-.745.018-1.118.036-.3.007-.592.037-.9.073l-.329.037c-.377.036-.76.051-1.144.066l-.384.014c-1.988.081-3.969.2-5.953.318-.987.059-1.978.095-2.968.128-.416.011-.829.033-1.246.059l-.2.007c-.6.029-1.2.062-1.8.066-.907,0-1.828.036-2.72.076L76,29.915c-.782.036-1.59.073-2.42.073-.094,0-.189,0-.284-.008h-.121l.087,0h-.078l.078.022L72.9,30c-.607,0-1.21.008-1.817.026l-.3,0-.3,0-.3,0h-.31l-.249,0h-.245l-.416,0-.417,0-.563,0-.892,0-.362,0-.409-.007-.124-.021H66.1l.049.022c-.519-.011-1.038-.033-1.568-.059-.684-.029-1.363-.055-2.047-.055-.186,0-.369,0-.555.008-.417.011-.837.025-1.254.04-.782.029-1.564.055-2.35.062-.8-.015-1.6-.04-2.419-.066-1.075-.036-2.149-.069-3.224-.069l-.493,0c-.943,0-1.9.054-2.825.105l-.22.011c-.957.055-1.948.11-2.923.117l-.834-.025c-.65-.022-1.3-.044-1.948-.044-.175,0-.347,0-.526.007-.954.015-2.2.04-3.439.114-2.218.124-4.4.153-6.246.164l-2-.037-1.623-.032-1.015-.035-.522-.005.123.021-.285-.011-.3-.014h-.006c-.6-.026-1.195-.07-1.831-.117-.388-.03-.768-.059-1.151-.077-.508-.033-1.013-.044-1.521-.044-.453,0-.9.007-1.363.015-.336.007-.673.014-1.009.018L19.994,30l-.219-.011c-.446-.015-.892-.029-1.342-.029-.355,0-.709.011-1.067.036-.632.04-1.279.128-1.948.223l-.347.044-.658.088a17.687,17.687,0,0,0-2.843.581c-.439.128-.87.274-1.3.424l-.157.051-.482.161-.165.058c-.672.223-1.345.45-2,.709a9.785,9.785,0,0,0-1.561.738,5.724,5.724,0,0,0-1.089.947.436.436,0,0,1-.105.086,7.856,7.856,0,0,0-1.021,1.679c-.164.326-.336.647-.5.972-.212.428-.366.881-.534,1.327a2.375,2.375,0,0,0,1.21,3.081,2.356,2.356,0,0,0,3.081-1.206,21.7,21.7,0,0,1,1.2-2.653c.066-.088.131-.172.2-.253.041-.036.084-.065.128-.1a23.626,23.626,0,0,1,2.73-1.005c.764-.249,1.524-.523,2.3-.746.856-.186,1.744-.267,2.606-.373a25.644,25.644,0,0,1,2.632-.245c.851.03,1.7.066,2.554.066.633,0,1.269-.025,1.905-.036.869.033,1.732.12,2.6.175,1.166.07,2.324.077,3.49.077,1.053.018,2.105.062,3.158.088,1.29.029,2.573-.008,3.859-.019,2.58-.025,5.157-.252,7.734-.252,1.666.033,3.325.1,5,0,1.407-.088,2.814-.161,4.221-.169,1.553.03,3.1.114,4.656.132.9.011,1.813-.018,2.715-.048.775-.025,1.554-.051,2.332-.054,1.153.035,2.305.086,3.461.106h-.194l.327,0h.1c.069,0,.135,0,.2,0-.069,0-.135,0-.2,0h1.86c.248,0,.5,0,.745,0,.179,0,.362,0,.541,0a2.409,2.409,0,0,0,.563,0,.03.03,0,0,1,.018,0h.8c.673-.007,1.342-.033,2.014-.037,1.213,0,2.423-.029,3.64-.084.537-.025,1.071-.076,1.612-.084.643-.007,1.29,0,1.933-.018,2.46-.084,4.927-.2,7.383-.373,1.235-.087,2.467-.135,3.706-.179,1.1-.04,2.189-.164,3.285-.212,2.161-.1,4.32-.153,6.48-.2,1.663-.036,3.315-.2,4.978-.281.775-.037,1.553-.124,2.328-.146.9-.022,1.806-.081,2.7-.15.855-.066,1.706-.117,2.561-.143.83-.029,1.642-.146,2.464-.23.757-.077,1.524-.059,2.288-.066.72-.007,1.436-.058,2.16-.077,1.111.026,2.218.077,3.333.055,1.1-.022,2.2-.04,3.3-.04.256,0,.508.007.76.007.961.019,1.922.073,2.887.088,1.188.011,2.376-.022,3.564-.026,1.085.03,2.164.1,3.245.216,1.257.128,2.522.208,3.783.333a31.213,31.213,0,0,0,4.214.128c1.177-.041,2.353-.11,3.534-.125,1.224.022,2.445.077,3.673.077,1.06,0,2.116-.047,3.172-.1,1.228-.062,2.456-.117,3.684-.219s2.445-.212,3.673-.237c2.266-.048,4.529-.066,6.791-.1,1.1-.015,2.2-.088,3.3-.172,1.137-.088,2.277-.215,3.417-.259q1.361-.056,2.727-.048c.5,0,1-.011,1.5-.025.4-.015.808-.026,1.214-.03,1.136.033,2.273.095,3.413.1.8.022,1.6.084,2.405.11.731.025,1.462.014,2.193,0,.362-.008.723-.011,1.085-.015.406,0,.812.007,1.221.007,1.484.018,2.971.011,4.455-.007.746.018,1.488.058,2.233.08s1.48.011,2.222,0c.348-.007.7-.011,1.046-.014,1.641.04,3.281.15,4.926.175.979.015,1.963.062,2.946.088,1.169.029,2.339.025,3.509.022l1.067.011c1.662.044,3.318.19,4.985.241,1.129.033,2.255.066,3.388.044.847-.018,1.7-.07,2.554-.088.782.022,1.561.084,2.343.106.647.018,1.3,0,1.948-.011.42-.015.84-.022,1.265-.025.442,0,.88,0,1.322,0,.684.022,1.364.08,2.047.149.87.081,1.747.092,2.62.095.8.011,1.6.011,2.4.011.347,0,.694,0,1.041,0,1.1.036,2.2.172,3.293.314s2.208.256,3.286.493c.46.14.913.289,1.372.425l-.02,0c.124.036.248.077.369.12a9.449,9.449,0,0,0,.874.962c.2.182.391.369.584.555a2.4,2.4,0,0,1,.172.219.747.747,0,0,0,0,.095,2.26,2.26,0,0,0,.862,1.535,2.336,2.336,0,0,0,3.29-.372A2.253,2.253,0,0,0,255.7,36v.128a3.592,3.592,0,0,0-.2-1.689,5.686,5.686,0,0,0-.476-.846l0,.006c-.073-.125-.146-.249-.226-.366a5.681,5.681,0,0,0-.772-.84c-.087-.086-.174-.17-.262-.254l0,.023-.362-.343-.165-.2-.088-.1c-.08-.095-.157-.186-.237-.274a4.123,4.123,0,0,0-1.637-1.2,11.2,11.2,0,0,0-1.079-.322l-.562-.171a14.655,14.655,0,0,0-1.853-.49c-.676-.128-1.367-.216-2.076-.3l-.753-.095c-.9-.12-1.955-.252-3-.292-.333-.015-.662-.018-.994-.018-.384,0-.768,0-1.155.01-.344.008-.687.011-1.035.015l-.387-.007-1.009-.015c-.683-.018-1.359-.077-2.035-.135l-.56-.044c-.727-.066-1.432-.069-2.035-.069h-.585l-.212,0-.431,0c-.494,0-.991.007-1.506.014-.373.008-.749.015-1.126.018-.369-.014-.734-.029-1.1-.047-.654-.029-1.312-.058-1.97-.058l-.376,0c-.435,0-.873.019-1.312.033l-.271.011c-.6.022-1.2.04-1.8.048-1.155-.03-2.3-.084-3.453-.143l-.213-.011c-.973-.047-1.966-.1-2.957-.141-.21,0-.42-.01-.631-.013l.1.019q-.669-.01-1.337-.011l-.771,0c-.337,0-.677,0-1.013,0-1.538-.026-3.2-.077-5.4-.165-.943-.04-1.882-.076-2.851-.113-.288-.011-.577-.014-.866-.014-.438,0-.877.007-1.315.018l-.33,0c-.218,0-.438.008-.661.008-.351-.011-.7-.026-1.089-.04-.665-.03-1.331-.055-2-.055l-.359,0-1.071.015c-.617.011-1.228.022-1.845.022l-.538-.015c-.327-.005-.657-.011-.986-.029l-.279,0,.063.021c-.047,0-.095,0-.142,0h-.165l-.325,0c-.424,0-.844.011-1.279.018l-.38,0c-.245,0-.486.007-.727.007-.585-.014-1.166-.036-1.751-.073-.771-.047-1.546-.051-2.336-.051l-1-.04c-.7-.029-1.4-.055-2.108-.055-.322,0-.647,0-.973.022Zm-60.723,5.058h0ZM66.557,34.651h0Z"/>
      <path class="c" d="M40.362,4.607c-.212,0-.421,0-.633.011l-.421.051-.1.012c-.864.1-1.759.2-2.642.215-.384.011-.768.015-1.151.015l-.574,0c-.577,0-1.151,0-1.725.011-.344.011-.687.011-1.031.011l-.833,0-.884,0c-.3,0-.587,0-.882.008-.921.022-1.831.062-2.748.124L25.482,5.2c-.775.091-1.546.179-2.324.252l.1.019-.629.028c-1.13.107-2.291.216-3.439.223l-.157,0-.461-.007-.211,0-.265,0c-.174,0-.347-.007-.521-.007-.191,0-.381,0-.571.011-.285.015-.574.033-.863.051l-.413.026c-.114.018-.235.04-.345.066l-.217.095L15.037,6c-.178.074-.357.15-.543.218s-.373.12-.559.175l-.168.051a7.3,7.3,0,0,1-1.628.27,5.432,5.432,0,0,0-.693.15l-.116.056a6.6,6.6,0,0,1-1.014.6l-.249.1-.124.051c-.142.054-.289.113-.428.179A8.658,8.658,0,0,0,8.5,8.41c-.153.125-.293.263-.432.4l-.085.082c-.1.1-.2.205-.31.3-.13.127-.268.242-.4.355-.173.142-.294.241-.411.347l-.122.185-.056.082a4.67,4.67,0,0,1-.295.4,6.669,6.669,0,0,0-.57.758,10.534,10.534,0,0,0-.521,1.633c-.065.435-.1.87-.139,1.306-.036.464-.076.924-.149,1.384l-.077.49a17.135,17.135,0,0,0-.271,2.611c0,.384,0,.767,0,1.147l0,.258c0,.6-.007,1.2.009,1.789l.025.837c.023.678.044,1.344.044,2.014,0,1.056-.056,2.166-.1,3.058-.034.727-.016,1.461,0,2.171l0,.111.018.793c.006.3,0,.609,0,.913l0,.227,0,.126c-.007.538-.015,1.094.016,1.639l.015.293a.41.41,0,0,0,.138-.1A5.781,5.781,0,0,1,5.9,33.073a9.591,9.591,0,0,1,1.559-.737c.658-.26,1.33-.486,2-.709l.164-.059.483-.16.159-.055c.43-.147.86-.294,1.3-.421a18.04,18.04,0,0,1,2.846-.584c.219-.026.437-.056.655-.085l.35-.047c.67-.091,1.313-.18,1.948-.222.357-.026.712-.037,1.066-.037.449,0,.894.016,1.34.032l.221.008.778.029c.336,0,.673-.01,1.009-.018.46-.007.911-.014,1.363-.014.508,0,1.012.011,1.52.043.385.022.766.05,1.151.078.636.047,1.236.09,1.831.116l.3.015.285.011-.207-.034,1.621.052,1.623.033,2,.036c1.844-.011,4.028-.038,6.247-.164,1.233-.072,2.485-.1,3.438-.113.179,0,.353-.008.526-.008.65,0,1.3.022,1.949.044l.833.026c.974-.007,1.965-.062,2.923-.116L49.41,30c.925-.048,1.882-.1,2.826-.106l.493,0c1.075,0,2.149.033,3.223.07.825.026,1.621.051,2.42.065.786-.007,1.568-.032,2.35-.062.417-.014.837-.029,1.254-.04.186-.007.369-.007.555-.007.683,0,1.363.029,2.046.058.531.022,1.05.044,1.569.055l-.1-.04.264.04.41.007.362,0,.892,0,.563,0,.417,0,.416,0h.245l.249,0h.31l.3,0,.3,0,.3,0C71.69,30.008,72.293,30,72.9,30l.365,0L73.1,29.96a3.42,3.42,0,0,0,.485.026c.83,0,1.638-.036,2.42-.073l.138-.006c.892-.038,1.813-.078,2.72-.078.6,0,1.2-.033,1.8-.063l.2-.01c.417-.026.83-.048,1.246-.058.991-.033,1.981-.07,2.968-.129,1.985-.12,3.965-.237,5.954-.317l.383-.015c.384-.015.766-.029,1.145-.066l.329-.036c.307-.034.6-.066.9-.073.373-.019.746-.03,1.118-.037l.4-.013c.4-.013.794-.026,1.192-.045,1-.059,2.006-.081,3.011-.1,1.11-.022,2.209-.045,3.286-.113,1.231-.084,2.43-.165,3.632-.238.487-.032.977-.054,1.463-.075.65-.031,1.278-.06,1.907-.1l.253-.018c1.123-.083,2.226-.165,3.318-.2.486-.018.977-.076,1.454-.132a14.813,14.813,0,0,1,1.78-.146c1.129-.007,2.08-.029,2.986-.07q.456-.021.91-.021c.544,0,1.089.018,1.637.036l.844.029,1.43-.022c.8-.014,1.589-.025,2.386-.025.442,0,.88,0,1.323.014l-.146-.029.964.046.965.027c.506.016.978.03,1.455.041.315,0,.625,0,.94-.008l.485,0c.52-.008,1.033-.015,1.546-.015.274,0,.545,0,.819.007,1,.015,2.051.082,3.226.205.545.055,1.093.1,1.641.142s1.093.088,1.637.143c1.125.107,2.048.168,2.907.194.574-.011,1.148-.041,1.722-.07l.187-.009c.628-.03,1.257-.06,1.885-.06l.245,0c.818,0,1.633.022,2.448.044l1.264.033c1.08,0,2.175-.056,3.233-.107l.3-.014,1-.047c.813-.039,1.624-.1,2.434-.155l.344-.024.132-.01c1.432-.1,2.913-.21,4.373-.213,2.177-.011,4.515-.032,6.86-.114.944-.033,1.9-.114,2.832-.192l.235-.02c1.32-.115,2.509-.212,3.7-.226.388,0,.775,0,1.163,0h.519c.544,0,1.089-.007,1.634-.033.325-.018.65-.022.972-.022.705,0,1.406.026,2.108.055l1,.04c.791,0,1.565,0,2.335.052.585.036,1.166.058,1.751.073.242,0,.483,0,.728-.007l.38,0c.434-.008.855-.015,1.279-.019l.325,0h.165c.047,0,.094,0,.141,0l-.125-.041c.441.037.885.046,1.329.055l.537.011c.616,0,1.228-.01,1.844-.022l1.072-.014.359,0c.664,0,1.329.026,1.994.055.388.015.739.029,1.09.04.223,0,.443,0,.662-.007l.329,0c.438-.011.877-.018,1.315-.018.289,0,.577,0,.866.015.968.037,1.909.073,2.851.113,2.2.088,3.86.139,5.4.164.336,0,.676,0,1.013,0l.771,0q.669,0,1.337.011L214.7,27.8c1.228.05,2.467.11,3.675.169l.212.01c1.151.059,2.3.114,3.454.143.6-.007,1.2-.026,1.8-.048l.272-.009c.438-.016.874-.031,1.31-.034l.376,0c.658,0,1.316.029,1.97.058.365.019.731.033,1.1.048.377,0,.753-.011,1.126-.018.516-.008,1.011-.015,1.506-.015l.431,0,.212,0h.585c.6,0,1.307.005,2.035.069l.559.044c.676.059,1.352.117,2.036.136l1.009.014.387.008c.348,0,.691-.008,1.035-.015.387-.007.771-.011,1.155-.011.332,0,.661,0,.993.018,1.049.041,2.1.172,3,.293l.753.094c.709.087,1.4.175,2.075.3a15.228,15.228,0,0,1,1.856.49l.563.175a10.138,10.138,0,0,1,1.077.321,4.116,4.116,0,0,1,1.637,1.2c.08.089.159.181.238.274l.087.1.165.2.362.344a2.808,2.808,0,0,0,.058-.448l.009-.114a10.837,10.837,0,0,0,.037-1.2c-.015-.219-.037-.442-.059-.662l-.018-.193c-.07-.276-.146-.55-.234-.825a7.534,7.534,0,0,0-.732-1.3,1.709,1.709,0,0,1-.269-.815c-.116-.122-.23-.229-.347-.331a12.5,12.5,0,0,0-1.694-.926,18.991,18.991,0,0,0-3.735-.794c-.91-.091-1.71-.135-2.446-.135h-.281l-.176,0a26.306,26.306,0,0,1-3.2-.255c-.592-.055-1.188-.107-1.78-.154l-.471-.04c-.741-.061-1.475-.147-2.212-.233l-.661-.078-.267-.029L235,23.6h-.056a2.236,2.236,0,0,1-.626-.073l-.253-.029-.253-.03c-.559-.051-1.114-.1-1.67-.16l.389.084c-1.22-.167-2.378-.264-3.536-.315-1.646-.069-3.316-.076-4.931-.084l-1.816-.014c-1.181-.011-2.361-.041-3.541-.077-.819-.026-1.634-.026-2.446-.026l-.292,0h-.293l-.288,0-.98,0c-.427,0-.829-.008-1.231-.008s-.808,0-1.214.011-.841.033-1.257.051c-.676.03-1.352.059-2.028.059l-.326,0c-.692-.007-1.385-.029-2.078-.051-.926-.029-1.851-.058-2.771-.058-.534,0-1.068.007-1.6.033-2.3.111-4.37.2-6.512.215-1.165.008-2.326.051-3.488.095l-.159.006c-1.174.042-2.389.086-3.582.086-2.647,0-4.869-.015-7.108-.088-1.1-.037-2.211-.066-3.316-.077h-.179c-.624,0-1.246.023-1.869.046l-.243.009-.965.033c-.4.014-.8.034-1.2.054l-.39.019c-.7.04-1.4.077-2.105.084-.307,0-.613.007-.919.008l-.458,0c-.749,0-1.5,0-2.248.022-.718.022-1.433.069-2.151.116l-.38.023c-.361.023-.723.046-1.084.062-.94.048-1.913.055-2.74.055l-.344,0h-.344l-.274,0c-.813,0-1.627-.013-2.441-.026l-.486-.007-.461-.008-.709,0-.961,0-.881.008-.643-.008c-.894-.007-1.788-.04-2.682-.072-1.057-.041-2.109-.081-3.162-.081l-.541,0c-2.135.028-4.3.1-6.393.173l-.16.006-.453.014-1.4.048c-1.878.062-4.007.132-6.056.285l-1.1.088c-.789.062-1.582.124-2.375.16-.954.048-1.908.077-2.861.107l-.706.018c-1.118.033-2.229.091-3.344.153-1.15.062-2.3.125-3.443.154-.435.014-.866.033-1.3.055-.639.032-1.279.062-1.918.062-.461,0-.841,0-1.217.007s-.768.007-1.152.007c-.273,0-.544,0-.818-.007-.5-.01-1-.046-1.495-.083l-.164-.012c-.424-.033-.851-.066-1.279-.088-.509-.022-1.013-.022-1.521-.022-.541,0-1.085,0-1.626-.029l-.811-.036a34.944,34.944,0,0,1-5.908-.622c-1.185-.261-2.419-.463-3.319-.61a16.461,16.461,0,0,1-2.553-.692l-.721-.236a2.451,2.451,0,0,1-1.431-1.056l-.216-.179a16.661,16.661,0,0,1-1.693-1.533c-.17-.184-.335-.373-.5-.563l-.134-.153c-.244-.285-.493-.57-.749-.848-.5-.541-.994-1.1-1.48-1.659-.406-.468-.815-.932-1.232-1.393a31.889,31.889,0,0,1-2.6-3.328c-.518-.749-1.065-1.553-1.561-2.368-.143-.238-.276-.481-.41-.725L80.7,8.439l-.063-.115c-.082-.149-.164-.3-.248-.445l-.089-.1-.122-.1c-.332-.263-.664-.526-.971-.818l-.673-.636c-.063-.049-.13-.095-.2-.141a7.111,7.111,0,0,0-1.321-.362,43.864,43.864,0,0,0-4.646-.412L72.2,5.305,70.967,5.24l-.15-.008c-1.025-.053-1.991-.1-2.957-.16-.219-.012-.439-.015-.658-.015-.3,0-.605.009-.91.019l-.227.006-.113,0-.179.007c-.351.012-.687.022-1.02.022l-.222,0c-1.214-.019-2.427-.077-3.64-.136l-.614-.033c-.454-.029-.907-.054-1.36-.062-.338,0-.614.01-.882.02l-.168.006c-.234.011-.467.018-.7.022-.26.007-.519.011-.779.011-1.364,0-2.751-.075-4.091-.147l-.853-.043-.793-.04C50.478,4.7,50.3,4.7,50.127,4.7c-.355,0-.709.011-1.067.022l-.2.008-.2,0c-.2.007-.405.013-.607.013l-.117,0c-.319,0-.64-.007-.958-.014-.391-.011-.782-.022-1.173-.022-.223,0-.446,0-.669.011-.505.021-1.005.036-1.509.036-.531,0-1-.019-1.421-.058-.7-.063-1.285-.092-1.839-.092Z"/>
      <path class="d" d="M231.889,34.338c-.378,0-.756.01-1.134.02-.573.02-1.122.03-1.66.03-1.059,0-2.018.01-2.957.1l-.552.121-.289.059-.282.059a16.683,16.683,0,0,1-2.05.28c-.519.05-1.048.07-1.675.07-.4,0-.795-.01-1.193-.02l-.384-.01h-.579l-.579-.01c-.54,0-1.079.01-1.619.04l-.388.01c-.839.04-1.666.07-2.5.07s-1.586-.04-2.325-.08l-.728-.04c-.544-.032-1.087-.038-1.631-.045l-.406,0-.409-.01-.609-.01H204.7c-.8,0-1.658.01-2.527.09l-.718.06-.6.06c-.468.04-.937.08-1.405.09q-.54.03-1.077.03l-.594,0-.594-.005-.538-.01-.5-.01c-.57,0-.92,0-1.279.01h-.339l-.28.01-.319.01h-.619c-1.287-.01-2.384-.04-3.482-.08l-.819-.02-.309-.01-2.156-.07c-.619-.01-1.237-.05-1.855-.1l-.46-.03-.878-.06c-1.158-.08-2.366-.109-3.6-.109-.978,0-2.016.019-3.065.059l-.629.04-.629.03q-1.047.06-2.095.09c-.279.01-.559.01-.838.01-.778,0-1.576-.02-2.355-.04l-2.465-.09c-1.467-.06-2.924-.109-4.382-.129l-2.116-.03c-1.656-.03-3.283-.05-4.92-.07h-.879c-.748,0-1.5,0-2.246.01-.8.02-1.477.02-2.155.02-.529,0-1.058-.01-1.577-.02-1.943-.031-3.731-.06-5.53-.06-2.761,0-5.249.059-7.606.18-.729.049-1.547.059-2.564.059-.649,0-1.3,0-1.936-.01-.782-.01-1.494-.02-2.216-.02-1.169.01-2.337.05-3.515.1l-.4.01c-.789.03-1.587.06-2.385.07-.34.01-.689.01-1.028.01-.591,0-1.173-.01-1.764-.019h-.3c-.7-.01-1.4-.02-2.086-.02l-.659.01h-.649c-1.378.04-2.745.06-4.122.07l-.679.01-2.405.03c-1.308.03-2.625.03-3.942.03h-2.286c-2.539,0-5.261.02-7.966.17-.346.027-.683.045-1.023.063l-.484.026-.728.03-1.128.05-.979.05c-.788.05-1.586.09-2.384.1l-1.188.02-.549.01-.6.01c-1.53.025-2.968.049-4.39.12-.619.03-1.237.06-1.846.08-1.258.049-2.815.119-4.283.229l-.639.06-.629.06-.6.06-.4.032c-.266.022-.532.044-.8.058l-.31.02-.582.044c-.822.062-1.608.122-2.393.2-2.349.235-4.365.378-6.347.449-2.095.08-4.171.09-6.476.1-1.617,0-3.193-.08-4.72-.17l-.329-.02-1.907-.1c-1.008-.06-2.016-.1-3.024-.13-.33-.01-.669-.01-1-.01-.527,0-1.055.01-1.582.02l-.654.01h-.858c-1.216,0-2.432-.03-3.659-.059l-.418-.013L37,36.674h-.54l-.538-.01c-.74,0-1.479.019-2.227.039l-1.187.021c-.509,0-1.018-.01-1.516-.02l-.759-.01-.988-.01-1.348.01H26.663c-.808,0-1.875,0-2.913-.06l-.408-.03c-.37-.02-.728-.04-1.087-.08l-.43-.04h-.272a4.058,4.058,0,0,0-.848-.089,24.687,24.687,0,0,0-2.658.179l-.34.04-.559.07-.548.06a14.831,14.831,0,0,0-2.791.83,1.45,1.45,0,0,1-.53.078,2.631,2.631,0,0,1-1.107-.267,2.071,2.071,0,0,0-.439.119l-.25.1c-.379.159-.767.309-1.155.458a5.623,5.623,0,0,0-.657.423l-.459.319-.449.33-.283.272A11.364,11.364,0,0,0,7.357,41.3c-.36.93-.64,1.9-.91,2.848L6.3,44.7l-.2.648a20.79,20.79,0,0,0-.629,2.429,8.841,8.841,0,0,0-.041,1.173,4.381,4.381,0,0,1,.06.5,3.7,3.7,0,0,1,.03.646,10.5,10.5,0,0,1,.1,1.149c.01.23.01.458,0,.687v.3a17.12,17.12,0,0,0,.04,1.728l.06.322A10.865,10.865,0,0,1,5.9,55.8c.01.41.03.819.05,1.219.05.918.1,1.837.18,2.755.05.559.07,1.117.08,1.676.022.709.033,1.052.06,1.378l.03.36c.058,1.056.109,1.992.1,2.9,0,.319,0,.628-.01.948a18.725,18.725,0,0,0,.02,1.978l.029.32a24.059,24.059,0,0,1,.12,2.433c-.01.559.02,1.129.05,1.7l.02.34q.03.478.03.956l.01.38c0,.789.01,1.6.08,2.378a7.521,7.521,0,0,1,.12,1.443c-.01.221-.02.439-.04.658-.02.24-.04.49-.05.74-.01.109-.02.23-.02.35a6.176,6.176,0,0,0-.05.9l.01.5v.449c0,.29.02.58.05.88l.04.459c.023.339.04.572.04.8.01.519.01.888,0,1.257a9.706,9.706,0,0,1-.15,1.334q-.223,1.859-.359,3.506l-.02.39-.02.389a6.729,6.729,0,0,1-.04.777,14.58,14.58,0,0,1-.209,1.555l-.042.487-.039.454-.04.459-.02.46-.049.468a12.5,12.5,0,0,0,.08,2.381,19.217,19.217,0,0,1,.1,2.462l.01.41c.02.309.03.479.03.638a5.947,5.947,0,0,1-.03.6c-.01.183-.02.362-.02.542l-.01.388c-.01.28-.02.56-.01.83l.05,1.118.02.778.02.38c.01.509.02,1.008.04,1.517.08,1.657.11,3.314.14,5.15l.01.29c.01.9-.05,1.794-.11,2.672l-.03.349c-.04.609-.06,1.218-.08,1.827l-.02.589-.03.6c-.02.469-.03.929-.03,1.4,0,.8-.01,1.4-.05,2a17,17,0,0,0,0,1.749c.02.459.03.917.02,1.366l-.01.478-.01.48-.01.479c0,.49-.01.968-.03,1.447l0,.3-.015,1.477c0,.2.009.392.018.592.021.327.021.556.021.785-.02,1.117-.049,2.255-.089,3.373-.04,1.068-.06,2.216-.06,3.6l.02.47.01.468a19.4,19.4,0,0,1,.02,2.264,22.984,22.984,0,0,0,.04,3.586A31.032,31.032,0,0,1,6,149.263a25.911,25.911,0,0,0,.06,2.947c.09.968.18,2.125.19,3.312.01.4.01.8.01,1.207,0,.649,0,1.3.03,1.948l.06,1.277c.093,1.662.189,3.591.139,5.458-.02.749-.02,1.5-.02,2.256v.878c.008.3,0,.6-.011.9l-.009.3-.02.3c-.029.57-.059,1.219-.039,1.849l.039.878.02.34.009.3c.018.631.036,1.241,0,1.835l-.059,1.9-.03,1.078a22.138,22.138,0,0,0,.108,2.345l.031.472.03.42c.036.469.065.954.092,1.426.028.449.028.658.028.857-.01.37-.01.62,0,.86.04.668.02,1.366,0,1.984l-.01.419c0,.181,0,.381.01.571.011.263.019.461.01.677a11.74,11.74,0,0,1-.139,1.194,24.279,24.279,0,0,0-.091,3.439l.1,1.131.04.5c.02.209.02.418.02.626s.01.4.02.6a8.9,8.9,0,0,1,.04,1.036l.307.327a7.548,7.548,0,0,1,.515.764,3.679,3.679,0,0,1,.437.784,6.474,6.474,0,0,1,.431.662l.233.274a7.322,7.322,0,0,1,.6.757l.4.267.231.12a7.377,7.377,0,0,0,.962.381l.264.041h0a4.123,4.123,0,0,0,.488.11,2.961,2.961,0,0,1,.54.03c.289.06.41.085.526.119.443-.021.8-.039,1.165-.039a4.67,4.67,0,0,1,.645.05l.48.05a8.038,8.038,0,0,1,1.7.139l.276.044a20.87,20.87,0,0,0,2.084.256,3.918,3.918,0,0,0,.49.02c.189,0,.388,0,.578.01a5.535,5.535,0,0,1,.8.1l.36.05c.349.06.71.1,1.06.13l.262-.01.325.08c.345-.03.673-.05,1-.05a4.409,4.409,0,0,1,.645.04l.29.03c.684-.09,1.252-.129,1.77-.15.308,0,.517.01.716.03l.269.03a16.877,16.877,0,0,1,2.278-.169c.329,0,.667.02,1,.05l.39.02.409.029c.459.01.739.02,1.027.05.341.03.7.04,1.051.04h.4l.661-.06c.538-.049,1-.089,1.465-.089.209,0,.428.01.647.029.828.08,1.548.12,2.2.14.2-.01.4-.02.589-.02.419,0,.847.02,1.265.06.511.04,1.03.06,1.76.06l.428.01c.311-.02.58-.02.859-.02h0c.208,0,.416,0,.624.02.152,0,.3.01.451.02l.678.05.459.03c.909.04,1.817.09,2.715.15q1.392.088,2.784.209c.69.05,1.409.08,2.278.08h.529l.4-.03.389-.03c.664-.046,1.021-.071,1.386-.08.409-.01.819-.01,1.227-.01H58.6c.638-.03,1.276-.04,1.913-.05.743-.039,1.462-.079,2.191-.129.29-.03.59-.07.89-.11a10.354,10.354,0,0,1,1.205-.12c.369-.02.7-.02,1.037-.02q.839,0,1.676.03c.659.02,1.1.03,1.528.03h.289c.46-.02.919-.02,1.388-.02.409,0,.818,0,1.227.01H73.8l.381-.03c.709-.04,1.387-.08,2.066-.14.908-.1,1.806-.129,2.484-.139.371-.03.751-.08,1.121-.13l.339-.05c.379-.06.768-.11,1.147-.15.923-.089,1.846-.1,2.74-.109l.651-.01c.789-.04,1.587-.05,2.375-.05.589,0,1.178.01,1.757.02h1.168l.578.01c.36,0,.73,0,1.089-.01s.7-.04,1.038-.05l.529-.01.789-.05c.779-.06,1.507-.11,2.225-.11l1.317.01h1.068l.53-.01.539-.02c.719-.04,1.417-.07,2.115-.08l.531-.04.479-.03q.507-.03,1.016-.03c.488,0,.927.02,1.366.05l.309.02c1.288.1,2.227.13,3.086.13l.889-.02.639-.02.579-.03c.958-.05,1.846-.08,2.754-.1.92-.04,1.759-.08,2.578-.19.728-.109,1.6-.229,2.474-.3,1.227-.109,2.484-.119,3.691-.119.589,0,1.178,0,1.767-.02l.879-.04c.448-.01.9-.03,1.347-.05l.549-.03c.579-.03,1.137-.05,1.7-.05h.319c.329.01.659.01.978.01s.66,0,.979-.01l.36-.02.36-.02.34-.03c.767-.05,1.445-.09,2.113-.09a11.3,11.3,0,0,1,1.156.05c1.407.133,2.818.2,4.194.2h.609c.7-.03,1.4-.03,2.106-.03h1.1c.429,0,.858,0,1.278-.01.489-.03.968-.04,1.447-.04.728,0,1.445.03,2.213.1,1.137.089,2.264.229,3.361.419a15.962,15.962,0,0,0,2.17.249h.29c.648,0,1.127.01,1.605.04.8.06,1.7.09,2.767.09h.638c.72-.04,1.448-.05,2.166-.05h.579q.63-.03,1.288-.03a23.835,23.835,0,0,1,2.5.13c.674.08,1.339.16,2.006.249.718.11,1.437.2,2.156.28s1.458.12,2.257.16l.269.02c.57.02,1.138.05,1.707.089,1.248.1,2.447.19,3.625.19l1.218-.02.31-.01.578-.01c.42-.02.849-.04,1.277-.04.159,0,.309,0,.468.01.239.01.479.03.718.05l.83.05.528.03.539.03.52.02c.479.03.958.06,1.438.06l.689-.01.912,0,.914,0,.458.01.719.01c.5.01.96.02,1.418.02h.479c.3-.023.593-.028.884-.034l.294-.006h.389l.669-.01c.779-.05,1.567-.07,2.336-.08l.489-.01h.5c.26-.01.56-.01.869-.01.987,0,2,.04,3.032.13.7.06,1.438.08,2.347.08.35,0,.7,0,1.039-.01.489-.03.938-.04,1.387-.04.358,0,.717.02,1.076.04.54.03,1.079.04,1.608.04l1.168-.01h.579l.561-.04c.579-.05,1.117-.08,1.665-.08l.48-.02a16,16,0,0,0,1.7.07h.3c.3-.02.591-.04.891-.07l.408-.03c.517-.032.956-.06,1.386-.06.229,0,.468.01.7.03.291.01.58.04.868.07.64.07,1.219.12,1.789.14l.552-.06c.339-.04.688-.07,1.027-.09.259-.01.508-.01.767-.01h.739l.708.01.59-.03.889-.04a9.184,9.184,0,0,0,1.051-.14l.508-.08c1.257-.2,2.285-.349,3.233-.449.459-.05.917-.08,1.376-.1.749-.041,1.338-.08,1.908-.15a33.279,33.279,0,0,1,3.351-.25c.411-.03.811-.07,1.22-.12l.331-.06c.452-.024.71-.049.974-.049.5-.03.988-.03,1.477-.03h.878l.589.01c.641-.04,1.2-.08,1.7-.15.708-.09,1.376-.16,2.044-.2a13.517,13.517,0,0,0,1.88-.19c.37-.08.72-.17,1.069-.259a3.348,3.348,0,0,0,.4-.173l.3-.2a2.356,2.356,0,0,0,.3-.222l.232-.282a8.868,8.868,0,0,0,.641-.821l.1-.367c-.019-.368-.059-.728-.109-1.1a2.407,2.407,0,0,1,.977-2.281l.1-.566.03-.27.03-.27c.02-.39.06-.779.109-1.167l.061-.63.046-.568.053-.68c.03-.509.06-1.007.12-1.516.03-.239.08-.477.129-.706l.11-.55a18.919,18.919,0,0,0,.18-3.229l-.03-.42-.029-.42-.08-1.2c-.023-.39-.028-.775-.034-1.162l-.006-.384v-1.127c-.03-.511-.07-1.031-.12-1.55l-.06-.867c-.07-.948-.06-1.916-.05-2.853l.01-.419c.01-1.038-.01-2.077-.03-3.115s-.04-2.075-.03-3.123c.01-.759,0-1.518-.01-2.276l-.01-1.148c-.01-.689,0-1.387.01-2.076l.02-1.057c.02-1.957,0-3.984-.05-6.19-.03-.718-.05-1.417-.06-2.135l-.009-.7-.02-1.058c-.03-.719-.05-1.427-.04-2.145.02-2.326,0-4.442-.06-6.459-.057-1.851-.036-3.839.07-6.645.05-1.088.079-2.176.1-3.265.01-.359.01-.728.01-1.088l.01-.436c.015-.691.027-1.278.06-1.858.106-1.947.132-3.994.08-6.26a35.816,35.816,0,0,1-.03-4.509c.13-1.692.23-3.1.23-4.553.01-1.6,0-3.194-.01-4.791-.011-1.373-.02-2.514-.02-3.663,0-.927.08-1.905.15-2.692l.039-.48.06-.788.06-.759.06-.788.07-.879c.09-1.368.14-2.8.18-4.043l.03-.658.02-.719.019-.719.03-.728c.04-.889.07-1.787.1-2.685.04-1.208.08-2.4.14-3.573.06-1.128.12-2.255.19-3.383a28.8,28.8,0,0,0,.04-2.887c-.02-.389-.05-.787-.08-1.185l-.04-.563-.02-.379c-.06-.781-.12-1.558-.16-2.335a30.137,30.137,0,0,1,.06-3.2l.08-1.138c.07-1.2.11-2.486.12-3.844v-.509l.01-.489.01-.339c.02-.709.029-1.418.02-2.127-.04-.64-.11-1.269-.18-1.9-.05-.4-.09-.788-.13-1.187-.1-1.021-.129-2.051-.158-3.044l-.012-.517-.03-.759-.019-.749v-.3l-.01-.31c-.04-.64-.06-1.289-.079-1.927-.021-.311-.041-.561-.071-.8l-.072-.78c-.048-.656-.058-1.174-.058-1.693-.04-.561-.12-1.111-.21-1.71l-.05-.32c-.081-.273-.14-.453-.211-.643l.032-.309.02-.29c-.11-.882-.2-1.77-.26-2.658l-.08-.324a17.111,17.111,0,0,0-.309-2.264l-.06-.359c-.13-.7-.24-1.269-.4-1.839a3.605,3.605,0,0,0-.141-.353l-.323-.395a3.371,3.371,0,0,1-.437-.576,7.632,7.632,0,0,0-.9-1.043l-.41-.36.1.252a1.589,1.589,0,0,0-.461-.561l-.509-.459a4.232,4.232,0,0,0-.433-.3,5.519,5.519,0,0,0-.584-.2l-.331-.08-.179,0a2.241,2.241,0,0,1-.639-.062q-.375-.105-.72-.18l-.351-.05-.275-.042-.316-.018h-.47l-.309.01-.4.01-.281.02a7.243,7.243,0,0,0-.927-.04l-.7.01h-.718l-.46.01c-.448,0-.887-.01-1.335-.03-.34-.03-.65-.04-.95-.04l-.3-.01c-.281,0-.561,0-.831.01l-.449.03c-.209.01-.408.01-.618.01-.159,0-.328-.01-.487-.02-.459-.01-.928-.06-1.4-.11l-.519-.06c-.32-.03-.64-.06-.95-.08-.429-.03-.849-.05-1.259-.05Z"/>
    </g>
    <g>
      <path class="e" d="M80,222.441v15.246H78V225.521l-4.863,12.166H71.357l-4.885-12.123v12.123h-2V222.441h2.4l5.412,12.8,5.324-12.8Z"/>
      <path class="e" d="M83.236,221.175a1.611,1.611,0,0,1,1.98,0,1.25,1.25,0,0,1,0,1.783,1.611,1.611,0,0,1-1.98,0,1.25,1.25,0,0,1,0-1.783Zm1.98,4.434v12.078h-2V225.609Z"/>
      <path class="e" d="M96.359,226.335a4.579,4.579,0,0,1,1.7,2.354v-3.08h2v12.078h-2v-3.08a4.58,4.58,0,0,1-1.7,2.353,4.966,4.966,0,0,1-2.98.881,5.481,5.481,0,0,1-2.861-.748,5.185,5.185,0,0,1-1.969-2.147,7.953,7.953,0,0,1,0-6.587,5.152,5.152,0,0,1,1.969-2.157,5.481,5.481,0,0,1,2.861-.748A4.952,4.952,0,0,1,96.359,226.335Zm-5.368,2.078a5.3,5.3,0,0,0,0,6.49,3.872,3.872,0,0,0,2.959,1.176,4.094,4.094,0,0,0,2.123-.549,3.826,3.826,0,0,0,1.463-1.55,4.91,4.91,0,0,0,.528-2.323,4.976,4.976,0,0,0-.528-2.332,3.747,3.747,0,0,0-1.463-1.55,4.166,4.166,0,0,0-2.123-.539A3.877,3.877,0,0,0,90.991,228.413Z"/>
      <path class="e" d="M117.468,222.177V223.8h-6.776v5.369h5.742v1.561h-5.742v6.953h-2v-15.51Z"/>
      <path class="e" d="M128.435,226.2a5.349,5.349,0,0,1,2.156,2.157,7.335,7.335,0,0,1,0,6.587,5.386,5.386,0,0,1-2.156,2.147,6.85,6.85,0,0,1-6.225,0,5.444,5.444,0,0,1-2.167-2.147,7.244,7.244,0,0,1,0-6.587,5.406,5.406,0,0,1,2.167-2.157,6.85,6.85,0,0,1,6.225,0Zm-5.1,1.5a3.647,3.647,0,0,0-1.474,1.485,5.7,5.7,0,0,0,0,4.928,3.637,3.637,0,0,0,1.474,1.486,4.353,4.353,0,0,0,3.982,0,3.637,3.637,0,0,0,1.474-1.486,5.692,5.692,0,0,0,0-4.928,3.647,3.647,0,0,0-1.474-1.485,4.337,4.337,0,0,0-3.982,0Z"/>
      <path class="e" d="M142.581,226.2a5.343,5.343,0,0,1,2.156,2.157,7.335,7.335,0,0,1,0,6.587,5.38,5.38,0,0,1-2.156,2.147,6.852,6.852,0,0,1-6.226,0,5.45,5.45,0,0,1-2.167-2.147,7.244,7.244,0,0,1,0-6.587,5.412,5.412,0,0,1,2.167-2.157,6.852,6.852,0,0,1,6.226,0Zm-5.1,1.5A3.651,3.651,0,0,0,136,229.183a5.682,5.682,0,0,0,0,4.928,3.641,3.641,0,0,0,1.473,1.486,4.355,4.355,0,0,0,3.983,0,3.641,3.641,0,0,0,1.473-1.486,5.692,5.692,0,0,0,0-4.928,3.651,3.651,0,0,0-1.473-1.485,4.339,4.339,0,0,0-3.983,0Z"/>
      <path class="e" d="M153.9,235.927v1.76h-1.5a3.838,3.838,0,0,1-2.761-.881,3.975,3.975,0,0,1-.913-2.947v-6.512h-1.8v-1.738h1.8V222.6h2.025v3.014h3.124v1.738h-3.124V233.9a2.258,2.258,0,0,0,.428,1.6,2.072,2.072,0,0,0,1.486.43Z"/>
      <path class="e" d="M164.273,226.335a4.584,4.584,0,0,1,1.705,2.354v-3.08h2v12.078h-2v-3.08a4.586,4.586,0,0,1-1.705,2.353,4.969,4.969,0,0,1-2.981.881,5.486,5.486,0,0,1-2.861-.748,5.176,5.176,0,0,1-1.968-2.147,7.943,7.943,0,0,1,0-6.587,5.144,5.144,0,0,1,1.968-2.157,5.486,5.486,0,0,1,2.861-.748A4.955,4.955,0,0,1,164.273,226.335Zm-5.368,2.078a5.294,5.294,0,0,0,0,6.49,3.871,3.871,0,0,0,2.959,1.176,4.1,4.1,0,0,0,2.123-.549,3.833,3.833,0,0,0,1.463-1.55,4.922,4.922,0,0,0,.528-2.323,4.988,4.988,0,0,0-.528-2.332,3.753,3.753,0,0,0-1.463-1.55,4.168,4.168,0,0,0-2.123-.539A3.875,3.875,0,0,0,158.905,228.413Z"/>
      <path class="e" d="M179.1,226.335a4.584,4.584,0,0,1,1.705,2.354v-3.08h2v12.275a6.138,6.138,0,0,1-.7,2.971,5.065,5.065,0,0,1-1.98,2.023,5.9,5.9,0,0,1-2.97.727,6.373,6.373,0,0,1-3.982-1.178,5.189,5.189,0,0,1-1.958-3.18h1.98a3.431,3.431,0,0,0,1.331,1.9,4.273,4.273,0,0,0,2.519.693,3.7,3.7,0,0,0,2.695-1.045,3.9,3.9,0,0,0,1.067-2.916v-3.277a4.586,4.586,0,0,1-1.705,2.353,4.969,4.969,0,0,1-2.981.881,5.486,5.486,0,0,1-2.861-.748,5.176,5.176,0,0,1-1.968-2.147,7.943,7.943,0,0,1,0-6.587,5.144,5.144,0,0,1,1.968-2.157,5.486,5.486,0,0,1,2.861-.748A4.955,4.955,0,0,1,179.1,226.335Zm-5.368,2.078a5.294,5.294,0,0,0,0,6.49,3.871,3.871,0,0,0,2.959,1.176,4.1,4.1,0,0,0,2.123-.549,3.833,3.833,0,0,0,1.463-1.55,4.91,4.91,0,0,0,.528-2.323,4.976,4.976,0,0,0-.528-2.332,3.753,3.753,0,0,0-1.463-1.55,4.168,4.168,0,0,0-2.123-.539A3.875,3.875,0,0,0,173.733,228.413Z"/>
      <path class="e" d="M197.02,232.075h-9.658a4.237,4.237,0,0,0,1.177,3.1,3.84,3.84,0,0,0,2.717,1.033,3.935,3.935,0,0,0,2.431-.736,3.052,3.052,0,0,0,1.2-1.969h2.134a5.039,5.039,0,0,1-2.948,3.783,6.517,6.517,0,0,1-2.728.551,6.226,6.226,0,0,1-3.08-.748,5.293,5.293,0,0,1-2.1-2.147,7.525,7.525,0,0,1,0-6.587,5.258,5.258,0,0,1,2.1-2.157,6.226,6.226,0,0,1,3.08-.748,6.086,6.086,0,0,1,3.069.748,5.144,5.144,0,0,1,2,2,5.635,5.635,0,0,1,.693,2.772A5.9,5.9,0,0,1,197.02,232.075Zm-2.376-3.211a3.221,3.221,0,0,0-1.386-1.341,4.223,4.223,0,0,0-1.914-.44,3.961,3.961,0,0,0-2.772,1.022,4.123,4.123,0,0,0-1.21,3h7.722A4.116,4.116,0,0,0,194.644,228.864Z"/>
    </g>
  </g>
</svg>
