<?xml version="1.0" encoding="utf-8"?>
<!-- Generator: Adobe Illustrator 24.2.1, SVG Export Plug-In . SVG Version: 6.00 Build 0)  -->
<svg version="1.1" id="Layer_1" xmlns="http://www.w3.org/2000/svg" xmlns:xlink="http://www.w3.org/1999/xlink" x="0px" y="0px"
	 viewBox="0 0 259 243.6" style="enable-background:new 0 0 259 243.6;" xml:space="preserve">
<style type="text/css">
	.st0{fill:#384173;}
	.st1{opacity:0.65;fill:#384173;enable-background:new    ;}
	.st2{fill:#48578C;}
	.st3{fill:#A9B5D6;}
	.st4{fill:#FFFFFF;}
</style>
<g>
	<path class="st0" d="M14.6,32.4c-0.5,0.1-0.9,0.1-1.4,0.2c-0.5,0.1-1,0.1-1.6,0.2c-0.5,0.1-1,0.2-1.4,0.4c-0.3,0.1-0.6,0.2-0.9,0.4
		c-0.5,0.2-1,0.4-1.4,0.6c-0.5,0.3-0.9,0.6-1.3,0.9c-0.5,0.3-1,0.7-1.4,1.1c-0.5,0.6-1,1.3-1.4,2c-0.7,1.3-1.2,2.7-1.6,4.1
		c-0.4,1.2-0.7,2.4-1,3.6c-0.2,0.8-0.3,1.7-0.3,2.5c0,0.1,0,0.2,0,0.3c0,0.2,0.1,0.3,0.1,0.5c0,0.4,0.1,0.9,0.1,1.3
		c0,0.6,0,1.2,0,1.8v0.4c0,1,0.1,1.9,0.3,2.8c0,0.4,0,0.9,0.1,1.3l0,0.8c0,0.3,0,0.7,0,1l0,0.5c0,0.5,0.1,1,0.1,1.5l0,1.2
		c0,0.6,0,1.2,0.1,1.8c0.1,1.1,0.1,2.1,0.1,3.2c-0.1,0.9,0,1.8,0.1,2.7C2,70.3,2,71.2,2,72.1c0,0.5,0,1.1,0,1.6c0,0.5,0.1,1,0.1,1.5
		c0,0.9,0,1.9,0.2,2.8c0,0.6,0,1.2,0,1.8l0,0.7l0,0.6l0,0.6c0,0.2,0,0.4,0,0.6l0,0.4c0,0.3,0,0.5,0,0.8h0l0.1,0.3
		c0,0.3,0.1,0.6,0.1,0.9c0,0.6,0,1.3,0,1.9c-0.2,1.1-0.3,2.3-0.4,3.4l0,0.5c0,0.4-0.1,0.8-0.1,1.1l0,0.3c0,0.3,0,0.6,0,0.8
		c-0.1,1-0.3,2-0.3,3l0,0.6l0,0.3c0,0.2,0,0.4,0,0.6c0,0.4,0,0.9,0.1,1.3c0.1,0.9,0.1,1.8,0.1,2.8c0,0.2,0,0.3,0,0.5
		c0,0.2,0,0.5,0,0.7c0,0.3,0,0.7,0,1l0,0.5c0,0.6,0,1.2,0,1.7c0,0.4,0,0.8,0.1,1.2c0,0.5,0,1,0,1.5l0,0.5l0,0.7l0,0.5
		c0.1,2,0.1,3.9,0,5.9l-0.1,1c0,0.7-0.1,1.3-0.1,2l0,1.4c0,0.7,0,1.4,0,2.1l0,0.6c0,0.3,0,0.5,0,0.8s0,0.5,0,0.8l0,0.3
		c0,0.2,0,0.3,0,0.5c0,0.7,0,1.5,0,2.2l0,0.7l0,0.9l0,0.3c0,0.7,0,1.5,0,2.2c0,0.7,0,1.3,0,2l0,0.3c0,0.3,0,0.6,0,1
		c0,0.4,0,0.9,0,1.3l0,0.4c0,0.6-0.1,1.2,0,1.9l0,1.6l0,1.6c0,0.3,0,0.7,0,1l0,0.6c0,0.6,0,1.3,0,1.9l0.1,1.3c0,0.7,0.1,1.4,0.1,2
		v1.3c0,0.5,0,1.1,0,1.6c0,0.4,0,0.9,0.1,1.5c0,0.5,0.1,1.1,0.1,1.6c0,0.7,0,1.4,0,2.1l0,1.2c0,1,0.1,2.1,0.1,3.1
		c0.1,1.2,0.1,2.3,0.1,3.5c0,0.6,0,1.3,0,1.9v1.3c0,0.6,0,1.1,0,1.7l0,0.4c0,0.3,0,0.6,0,0.9c0,0.6,0,1.3,0,1.9l0,0.8l0,0.6
		c0,0.3,0,0.6,0,1c0,0.2,0,0.5,0,0.8l0,0.4c-0.1,0.9-0.1,1.9,0,2.8c0,0.7,0.1,1.3,0.1,2l0.1,0.8c0,0.5,0,1.1,0.1,1.7
		c0,0.4,0,0.7,0,1.1s0,0.7,0,1.1c0,0.3,0,0.7,0,1c0,0.7,0,1.3,0,2C2,189.2,2,189.7,2,190.2l-0.1,0.5c0,0.2,0,0.5,0,0.7
		c0,0.7,0,1.5,0.1,2.2l0,0.6l0,0.5v0.5c0,0.2,0,0.4,0,0.7c0,0.3,0,0.6,0,1c0,0.3,0,0.7,0,1c0,0.6,0.2,1.2,0.6,1.6
		c0.2,0.2,0.4,0.3,0.6,0.4c0,0,0.1,0.1,0.1,0.1c0.3,0.1,0.6,0.2,1,0.2c1.3,0,2.4-1,2.4-2.3c0,0,0,0,0,0c0-0.3,0-0.7,0-1l-0.1-0.1
		c0-0.3,0-0.7,0-1c0-0.2,0-0.4,0-0.6s0-0.4,0-0.6l0-0.5l-0.1-1.1c0-1.1,0-2.3,0.1-3.4c0.1-0.4,0.1-0.8,0.1-1.2c0-0.2,0-0.5,0-0.7
		c0-0.2,0-0.4,0-0.6l0-0.4c0-0.6,0-1.3,0-2c0-0.2,0-0.5,0-0.9c0-0.2,0-0.4,0-0.9c0-0.5-0.1-1-0.1-1.4l0-0.4l0-0.5
		c-0.1-0.8-0.1-1.6-0.1-2.3l0-1.1l0.1-1.9c0-0.6,0-1.2,0-1.8l0-0.3l0-0.3l0-0.9c0-0.6,0-1.3,0-1.8l0-0.3l0-0.3c0-0.3,0-0.6,0-0.9
		v-0.9c0-0.8,0-1.5,0-2.3c0.1-1.9,0-3.8-0.1-5.5l-0.1-1.3c0-0.6,0-1.3,0-1.9c0-0.4,0-0.8,0-1.2c0-1.2-0.1-2.3-0.2-3.3
		c-0.1-1-0.1-2-0.1-2.9c0-1.1,0-2.1-0.1-3.2c-0.1-1.2-0.1-2.4,0-3.6c0-0.8,0-1.5,0-2.3l0-0.5l0-0.5c0-1.4,0-2.5,0.1-3.6
		c0-1.1,0.1-2.3,0.1-3.4c0-0.2,0-0.5,0-0.8c0-0.2,0-0.4,0-0.6l0-1.5v-0.3c0-0.5,0-1,0-1.4l0-0.5l0-0.5l0-0.5c0-0.4,0-0.9,0-1.4
		c0-0.6,0-1.2,0-1.7c0-0.6,0.1-1.2,0.1-2c0-0.5,0-0.9,0-1.4l0-0.6l0-0.6c0-0.6,0-1.2,0.1-1.8l0-0.3c0.1-0.9,0.1-1.8,0.1-2.7l0-0.3
		c0-1.8-0.1-3.5-0.1-5.2c0-0.5,0-1,0-1.5l0-0.4l0-0.8L6,104.5c0-0.3,0-0.5,0-0.8l0-0.4c0-0.2,0-0.4,0-0.5c0-0.2,0-0.4,0-0.6
		c0-0.2,0-0.3,0-0.6l0-0.4c0-0.8,0-1.6-0.1-2.5c-0.1-0.8-0.1-1.6-0.1-2.4l0.1-0.5l0-0.5l0-0.5l0-0.5l0-0.5c0.1-0.5,0.2-1,0.2-1.6
		c0-0.3,0-0.5,0-0.8l0-0.4l0-0.4c0.1-1.1,0.2-2.3,0.4-3.5c0.1-0.4,0.1-0.9,0.1-1.3c0-0.4,0-0.7,0-1.3c0-0.2,0-0.5,0-0.8l0-0.5
		c0-0.3,0-0.6,0-0.9v-0.4l0-0.5c0-0.3,0-0.6,0-0.9c0-0.1,0-0.2,0-0.3c0-0.2,0-0.5,0.1-0.7c0-0.2,0-0.4,0-0.7c0-0.5,0-1-0.1-1.4
		c-0.1-0.8-0.1-1.6-0.1-2.4l0-0.4c0-0.3,0-0.6,0-1l0-0.3c0-0.6-0.1-1.1-0.1-1.7c0-0.8,0-1.6-0.1-2.4l0-0.3c0-0.7,0-1.3,0-2
		c0-0.3,0-0.6,0-0.9c0-0.9,0-1.8-0.1-2.9l0-0.4c0-0.3,0-0.7-0.1-1.4c0-0.6,0-1.1-0.1-1.7C6,58.9,6,57.9,5.9,57c0-0.4,0-0.8-0.1-1.2
		c0-0.5-0.1-1-0.2-1.5L5.7,54c0-0.6-0.1-1.2,0-1.7v-0.3c0-0.2,0-0.5,0-0.7c0-0.4,0-0.8-0.1-1.1c0-0.2,0-0.4,0-0.6
		c0-0.2,0-0.3-0.1-0.5c0-0.4,0-0.8,0-1.2c0.2-0.8,0.4-1.6,0.6-2.4l0.2-0.6l0.2-0.5c0.3-0.9,0.5-1.9,0.9-2.8C7.7,40.6,8,40,8.5,39.4
		l0.3-0.3l0.5-0.3l0.5-0.3c0.2-0.2,0.4-0.3,0.6-0.4c0.4-0.1,0.8-0.3,1.2-0.4l0.2-0.1c0.1-0.1,0.3-0.1,0.4-0.1c0,0,0,0,0.1,0
		c0.3-0.1,0.6-0.1,1-0.2h-0.1c0.9-0.1,1.8-0.2,2.7-0.3c0.6-0.1,1.1-0.5,1.4-1.1c0.7-1.1,0.3-2.5-0.8-3.2c-0.3-0.2-0.8-0.3-1.2-0.3
		C15,32.3,14.8,32.3,14.6,32.4L14.6,32.4z M10,33.3c-0.1,0-0.1,0-0.2,0.1C9.9,33.3,9.9,33.3,10,33.3z"/>
	<path class="st0" d="M230.9,29.8c-1,0-1.9,0-2.9,0c-1.2,0-2.3,0.1-3.5,0.3c-0.4,0.1-0.8,0.2-1.3,0.3c-1.2,0.1-2.4,0.1-3.6,0.1
		c-0.9,0-1.8,0-2.7,0c-1.1,0-2.2,0.1-3.3,0.1s-2.2-0.1-3.3-0.1c-2.2-0.1-4.5-0.1-6.7,0c-2,0.1-3.9,0.3-5.9,0.3c-1.1,0-2.1,0-3.2,0
		c-1.1,0-2.2,0-3.3,0c-2.2-0.1-4.4-0.1-6.5-0.2c-1-0.1-2-0.1-3.1-0.2c-1.2,0-2.4,0-3.5,0c-2.2,0-4.4,0.2-6.7,0.2
		c-2.3,0-4.5-0.1-6.8-0.2c-2.3-0.1-4.6,0-6.9-0.1c-1.4,0-2.9,0-4.3,0c-0.9,0-1.8,0-2.7,0c-2.2,0-4.5-0.1-6.7-0.1
		c-2.1,0-4.3,0.1-6.4,0.1c-1,0-2,0.1-3.1,0.1c-1.2,0-2.4,0-3.6,0c-2.1,0-4.2,0.1-6.4,0.1c-2.1,0-4.3,0-6.4,0c-1.2,0-2.3,0-3.5,0
		c-1.2,0-2.3,0-3.5,0s-2.3,0-3.5,0c-0.6,0-1.3,0-1.9,0c-0.6,0-1.2,0-1.8,0c-4.7,0-9.3,0.2-14,0.5c-2.3,0.1-4.6,0.1-6.9,0.2l-3,0.1
		c-1,0-2,0-3,0.1c-4.2,0.3-8.5,0.7-12.7,1c-2.1,0.1-4.3,0.2-6.4,0.2c-1.1,0-2.2,0-3.3,0c-1.2,0-2.4-0.1-3.6-0.2
		c-2.1-0.1-4.2-0.2-6.4-0.2c-1,0-2.1,0-3.1,0c-1.1,0-2.1,0-3.2-0.1c-1.8-0.1-3.6,0-5.4,0c-1,0-1.9,0-2.9,0c-0.9,0-1.9,0-2.8,0
		c-1.7,0-3.4,0-5.1-0.2c-0.4,0-0.9-0.1-1.3-0.1c-0.5,0-1,0-1.5,0.1c-0.9,0.1-1.7,0.1-2.5,0.3c-0.7,0.1-1.4,0.2-2.1,0.3
		c-0.7,0.2-1.5,0.4-2.2,0.7c-0.6,0.2-1.1,0.5-1.4,1.1c-0.3,0.5-0.4,1.2-0.3,1.8c0.2,0.6,0.5,1.1,1.1,1.4c0,0,0,0,0,0
		c0,0,0.1,0,0.1,0c0.3,0.2,0.7,0.3,1.1,0.3c0.2,0,0.4,0,0.5-0.1c0.9-0.4,1.8-0.7,2.8-0.8l0.5-0.1l0.6-0.1l0.3,0
		c0.9-0.1,1.8-0.2,2.7-0.2c0.3,0,0.6,0,0.8,0.1h0.3l0.4,0c0.4,0,0.7,0.1,1.1,0.1l0.4,0c1,0.1,2.1,0.1,2.9,0.1h1.2l1.3,0l1,0l0.8,0
		c0.5,0,1,0,1.5,0l1.2,0c0.7,0,1.5,0,2.2,0l0.5,0H37l1.5,0l0.4,0c1.2,0,2.4,0,3.7,0h0.9l0.7,0c0.5,0,1,0,1.6,0c0.3,0,0.7,0,1,0
		c1,0,2,0.1,3,0.1l1.9,0.1l0.3,0c1.5,0.1,3.1,0.2,4.7,0.2c2.3,0,4.4,0,6.5-0.1c2-0.1,4-0.2,6.3-0.4c0.8-0.1,1.6-0.1,2.4-0.2l0.6,0
		l0.3,0c0.3,0,0.5,0,0.8,0l0.4,0l0.6-0.1l0.6-0.1l0.6-0.1c1.5-0.1,3-0.2,4.3-0.2c0.6,0,1.2,0,1.8-0.1c1.4-0.1,2.9-0.1,4.4-0.1l0.6,0
		l0.5,0l1.2,0c0.8,0,1.6,0,2.4-0.1l1,0l1.1,0l0.7,0l0.5,0c0.3,0,0.7,0,1-0.1c2.7-0.2,5.4-0.2,8-0.2h2.3c1.3,0,2.6,0,3.9,0l2.4,0
		l0.7,0c1.4,0,2.7,0,4.1-0.1h0.6l0.7,0c0.7,0,1.4,0,2.1,0h0.3c0.6,0,1.2,0,1.8,0c0.3,0,0.7,0,1,0c0.8,0,1.6,0,2.4-0.1l0.4,0
		c1.2,0,2.3-0.1,3.5-0.1c0.7,0,1.4,0,2.2,0c0.6,0,1.3,0,1.9,0c1,0,1.8,0,2.6-0.1c2.4-0.1,4.8-0.2,7.6-0.2c1.8,0,3.6,0,5.5,0.1
		c0.5,0,1,0,1.6,0c0.7,0,1.4,0,2.2,0c0.7,0,1.5,0,2.2,0h0.9c1.6,0,3.3,0,4.9,0.1l2.1,0c1.5,0,2.9,0.1,4.4,0.1l2.5,0.1
		c0.8,0,1.6,0,2.4,0c0.3,0,0.6,0,0.8,0c0.7,0,1.4,0,2.1-0.1l0.6,0l0.6,0c1,0,2.1-0.1,3.1-0.1c1.2,0,2.4,0,3.6,0.1l0.9,0.1l0.5,0
		c0.6,0,1.2,0.1,1.9,0.1l2.2,0.1l0.3,0l0.8,0c1.1,0,2.2,0.1,3.5,0.1h0.6l0.3,0l0.3,0h0.3c0.4,0,0.7,0,1.3,0l0.5,0l0.5,0l0.6,0h0.6
		c0.4,0,0.7,0,1.1,0c0.5,0,0.9,0,1.4-0.1l0.6-0.1l0.7-0.1c0.9-0.1,1.7-0.1,2.5-0.1h3.2l0.6,0l0.4,0l0.4,0c0.5,0,1.1,0,1.6,0l0.7,0
		c0.7,0,1.5,0.1,2.3,0.1s1.7,0,2.5-0.1l0.4,0c0.5,0,1.1,0,1.6,0l0.6,0h0.6l0.4,0c0.4,0,0.8,0,1.2,0c0.6,0,1.2,0,1.7-0.1
		c0.7-0.1,1.4-0.1,2-0.3l0.3-0.1l0.3-0.1l0.6-0.1c0.9-0.1,1.9-0.1,3-0.1c0.5,0,1.1,0,1.7,0c0.4,0,0.8,0,1.1,0c0.4,0,0.8,0,1.3,0
		c0.3,0,0.6,0,0.9,0.1l0.5,0.1c0.5,0,0.9,0.1,1.4,0.1c0.2,0,0.3,0,0.5,0c0.2,0,0.4,0,0.6,0l0.4,0c0.3,0,0.5,0,0.8,0l0.3,0
		c0.3,0,0.6,0,0.9,0c0.4,0,0.9,0,1.3,0l0.5,0h0.7l0.7,0c0.3,0,0.6,0,0.9,0l0.3,0l0.4,0l0.3,0h0.5l0.3,0l0.3,0l0.4,0
		c0.2,0.1,0.5,0.1,0.7,0.2c0.2,0,0.4,0.1,0.6,0.1h0.2l0.2,0c0.9-0.1,1.6-0.8,1.9-1.7c0.3-1.2-0.4-2.5-1.6-2.9
		c-0.8-0.2-1.6-0.4-2.4-0.5c-0.4,0-0.7,0-1.1,0c-0.3,0-0.7,0-1,0h-0.6c-1,0-2,0-2.9,0c-1-0.1-2-0.1-3,0c-1.1,0-2.1,0-3.2-0.2
		c-0.5-0.1-1-0.1-1.6-0.1c-0.1,0-0.2,0-0.3,0C231.7,29.7,231.3,29.7,230.9,29.8L230.9,29.8z"/>
	<path class="st0" d="M243.7,32.2c-0.1,1.1,0.5,2.1,1.5,2.4l0.3,0l0.3,0l0.4,0c0.2,0.1,0.4,0.1,0.7,0.2c0.1,0,0.3,0,0.4,0.1
		c0.1,0,0.2,0,0.3,0h0.2l0.3,0.1c0.2,0.1,0.4,0.1,0.6,0.2c0.2,0.1,0.3,0.2,0.4,0.3l0.5,0.5c0.1,0.1,0.3,0.2,0.4,0.4l0,0l0-0.1
		l0.4,0.4c0.3,0.3,0.6,0.7,0.9,1c0.1,0.2,0.3,0.4,0.4,0.6l0.3,0.4c0.1,0.1,0.1,0.2,0.1,0.3c0.2,0.6,0.3,1.1,0.4,1.8l0.1,0.4
		c0.2,0.7,0.3,1.5,0.3,2.3l0.1,0.3c0.1,0.9,0.1,1.8,0.3,2.7l0,0.3l0,0.1c0,0.1,0,0.1,0,0.2s0,0.1,0,0.2c0,0.1,0.1,0.3,0.1,0.4
		l0.1,0.3c0.1,0.6,0.2,1.1,0.2,1.7c0,0.5,0,1,0.1,1.7l0.1,0.8c0,0.2,0.1,0.5,0.1,0.8c0,0.6,0,1.3,0.1,1.9l0,0.3v0.3l0,0.7l0,0.8
		l0,0.5c0,1,0.1,2,0.2,3c0,0.4,0.1,0.8,0.1,1.2c0.1,0.6,0.1,1.3,0.2,1.9c0,0.7,0,1.4,0,2.1l0,0.3l0,0.5v0.5c0,1.4-0.1,2.6-0.1,3.8
		l-0.1,1.1c-0.1,1.1-0.1,2.1-0.1,3.2c0,0.8,0.1,1.6,0.2,2.3l0,0.4l0,0.6c0,0.4,0.1,0.8,0.1,1.2c0,1,0,1.9,0,2.9
		c-0.1,1.1-0.1,2.3-0.2,3.4c-0.1,1.2-0.1,2.4-0.1,3.6c0,0.9-0.1,1.8-0.1,2.7l0,0.7l0,0.7l0,0.7l0,0.7c0,1.2-0.1,2.7-0.2,4l-0.1,0.9
		l-0.1,0.8l-0.1,0.8l-0.1,0.8l0,0.5c-0.1,0.8-0.1,1.8-0.1,2.7c0,1.1,0,2.3,0,3.7c0,1.6,0,3.2,0,4.8c0,1.4-0.1,2.9-0.2,4.6
		c-0.1,1.5-0.1,3,0,4.5c0.1,2.3,0,4.3-0.1,6.3c0,0.6-0.1,1.2-0.1,1.9l0,0.4c0,0.4,0,0.7,0,1.1c0,1.1-0.1,2.2-0.1,3.3
		c-0.1,2.8-0.1,4.8-0.1,6.6c0.1,2,0.1,4.1,0.1,6.5c0,0.7,0,1.4,0,2.1l0,1.1l0,0.7c0,0.7,0,1.4,0.1,2.1c0.1,2.2,0.1,4.2,0.1,6.2
		l0,1.1c0,0.7,0,1.4,0,2.1l0,1.1c0,0.8,0,1.5,0,2.3c0,1,0,2.1,0,3.1s0,2.1,0,3.1l0,0.4c0,0.9,0,1.9,0,2.9l0.1,0.9
		c0.1,0.5,0.1,1,0.1,1.5v1.5c0,0.4,0,0.8,0,1.2l0.1,1.2l0,0.4l0,0.4c0,1.1,0,2.2-0.2,3.2l-0.1,0.6c0,0.2-0.1,0.5-0.1,0.7
		c-0.1,0.5-0.1,1-0.1,1.5l-0.1,0.7l0,0.6l-0.1,0.6c-0.1,0.4-0.1,0.8-0.1,1.2l0,0.3l0,0.3l-0.1,0.6l0,0c0,0,0,0.1,0,0.1
		c0,0.5,0,1,0,1.4c-0.2,0.6-0.1,1.2,0.1,1.7c0.6,1.2,1.9,1.7,3.1,1.1c0.2-0.1,0.3-0.2,0.4-0.3c0,0,0-0.1,0-0.1
		c0.3-0.3,0.5-0.6,0.7-1c0.2-0.6,0.3-1.3,0.2-2c0-0.9,0.1-1.7,0.2-2.5l0-0.4c0.1-0.5,0.1-1,0.1-1.5c0-0.6,0.1-1.2,0.1-1.8
		c0-0.2,0.1-0.4,0.1-0.8c0-0.2,0.1-0.5,0.1-0.7c0.1-0.7,0.1-1.3,0.1-2c0-0.9,0-1.8-0.1-2.7c0-0.4-0.1-0.9-0.1-1.3l0-1.3
		c0-0.6,0-1.3,0-1.9c0-0.4,0-0.8-0.1-1.2l0-0.3l-0.1-1c0-0.5,0-1.1,0-1.6v-0.6c0-1,0-1.9,0-3.1c0-1,0-2,0-2.9l0-2.3
		c0-0.9,0-1.8,0-2.7l0-0.5c0-0.8,0-1.6,0-2.5l0-1.8c0-1.2,0-2.4-0.1-3.6l0-1.3c0-0.9,0-1.9-0.1-2.8v-3.2c0-1.1,0-2.1,0-3.2l0-1.6
		c0-1.7,0-3.4,0-5.1c0.1-2.2,0.1-4.4,0.2-6.6c0-0.6,0-1.1,0.1-1.7c0-0.5,0.1-1,0.1-1.5c0-1.1,0-2.2,0-3.4l0-1l0-1c0-1-0.1-2.1,0-3.1
		l0.1-1.4c0-0.8,0.1-1.5,0.1-2.3s0-1.5,0-2.3l0-1.1c0-1.1,0-2.2,0-3.4c0-1.1,0-2.2,0-3.3c0-0.8,0.1-1.5,0.1-2.3l0.1-0.9l0-0.5
		c0.1-2,0.3-4,0.3-6c0.1-3.4,0.2-6.8,0.4-10.2l0.1-1.6c0.1-1.2,0.1-2.3,0.1-3.5c0-0.9-0.1-1.7-0.1-2.6l0-0.7c0-0.5,0-1-0.1-1.4
		l-0.1-1.1c0-0.9,0.1-1.8,0.1-2.6l0.1-1.1c0.1-1.2,0.1-2.3,0.1-3.5V67l0-1.2c0-1.2,0-2.4-0.1-3.6c0-0.4-0.1-0.7-0.1-1.1l-0.1-0.9
		c-0.1-0.6-0.1-1.3-0.1-1.9v-0.6l0-0.3c0-0.1,0-0.1,0-0.2l0-0.4l0-0.4c0-0.4-0.1-0.7,0-1.1l-0.1-0.3l0-1.4c0-0.1,0-0.2,0-0.3
		l-0.1-0.3c0-0.4,0-0.8-0.1-1.3l0-0.6c0,0,0-0.1,0-0.2c0-0.2,0-0.4-0.1-0.6c0-0.7,0-1.4-0.1-2.1c-0.1-0.6-0.2-1.3-0.3-1.9
		c-0.1-0.8-0.2-1.5-0.2-2.3c-0.1-0.7-0.1-1.4-0.2-2.2c-0.2-1.3-0.4-2.5-0.7-3.7c-0.2-0.8-0.5-1.6-1-2.3c-0.2-0.3-0.5-0.5-0.7-0.8
		c0.1,0.1,0.1,0.2,0.1,0.2c-0.6-0.9-1.3-1.7-2.2-2.4c0.1,0.1,0.3,0.3,0.4,0.4c-0.2-0.2-0.4-0.4-0.6-0.5c-0.2-0.2-0.4-0.4-0.7-0.6
		c-0.3-0.2-0.5-0.5-0.8-0.7c-0.5-0.3-1-0.6-1.5-0.7c-1.1-0.3-2.3-0.5-3.4-0.6c-0.1,0-0.2,0-0.3,0C244.9,30.2,243.9,31.1,243.7,32.2
		L243.7,32.2z M252.1,32.2c0.1,0.1,0.1,0.1,0.2,0.2C252.2,32.3,252.2,32.3,252.1,32.2z"/>
	<path class="st0" d="M253.4,194.4c-0.3,0.1-0.6,0.2-0.9,0.3l0,0.1c-0.7,0.5-1.1,1.4-1,2.3c0.1,0.4,0.1,0.7,0.1,1.1l-0.1,0.4
		c-0.2,0.3-0.4,0.6-0.6,0.8l-0.2,0.3c-0.1,0.1-0.2,0.2-0.3,0.2l-0.3,0.2c-0.1,0.1-0.3,0.1-0.4,0.2c-0.3,0.1-0.7,0.2-1.1,0.3
		c-0.6,0.1-1.2,0.2-1.9,0.2c-0.7,0-1.3,0.1-2,0.2c-0.5,0.1-1.1,0.1-1.7,0.1l-0.6,0h-0.9c-0.5,0-1,0-1.5,0c-0.3,0-0.5,0-1,0.1
		l-0.3,0.1c-0.4,0.1-0.8,0.1-1.2,0.1c-1.1,0-2.2,0.1-3.4,0.2c-0.6,0.1-1.2,0.1-1.9,0.1c-0.5,0-0.9,0.1-1.4,0.1
		c-0.9,0.1-2,0.2-3.2,0.4l-0.5,0.1c-0.3,0.1-0.7,0.1-1,0.1l-0.9,0l-0.6,0l-0.7,0h-0.7c-0.3,0-0.5,0-0.8,0c-0.3,0-0.7,0.1-1,0.1
		l-0.5,0.1c-0.6,0-1.1-0.1-1.8-0.1c-0.3,0-0.6-0.1-0.9-0.1c-0.2,0-0.5,0-0.7,0c-0.4,0-0.9,0-1.4,0.1l-0.4,0c-0.3,0-0.6,0.1-0.9,0.1
		h-0.3c-0.6,0-1.1,0-1.7-0.1l-0.5,0c-0.5,0-1.1,0-1.7,0.1l-0.6,0h-0.6l-1.2,0c-0.5,0-1.1,0-1.6,0c-0.4,0-0.7,0-1.1,0
		c-0.4,0-0.9,0-1.4,0c-0.3,0-0.7,0-1,0c-0.9,0-1.6,0-2.3-0.1c-1-0.1-2-0.1-3-0.1c-0.3,0-0.6,0-0.9,0h-0.5l-0.5,0
		c-0.8,0-1.6,0-2.3,0.1l-0.7,0h-0.7c-0.3,0-0.6,0-0.9,0h-0.5c-0.5,0-0.9,0-1.4,0l-0.7,0l-0.5,0l-0.9,0h-0.9l-0.7,0
		c-0.5,0-1,0-1.4-0.1l-0.5,0l-0.5,0l-0.5,0l-0.8,0c-0.2,0-0.5,0-0.7-0.1c-0.2,0-0.3,0-0.5,0c-0.4,0-0.9,0-1.3,0l-0.6,0l-0.3,0
		l-1.2,0c-1.2,0-2.4-0.1-3.6-0.2c-0.6,0-1.1-0.1-1.7-0.1l-0.3,0c-0.8,0-1.5-0.1-2.3-0.2s-1.4-0.2-2.2-0.3c-0.7-0.1-1.3-0.2-2-0.2
		c-0.8-0.1-1.7-0.1-2.5-0.1c-0.4,0-0.9,0-1.3,0H161c-0.7,0-1.4,0-2.2,0.1h-0.6c-1.1,0-2,0-2.8-0.1c-0.5,0-1,0-1.6,0h-0.3
		c-0.7,0-1.5-0.1-2.2-0.2c-1.1-0.2-2.2-0.3-3.4-0.4c-0.8-0.1-1.5-0.1-2.2-0.1c-0.5,0-1,0-1.4,0c-0.4,0-0.8,0-1.3,0H142
		c-0.7,0-1.4,0-2.1,0h-0.6c-1.4,0-2.8-0.1-4.2-0.2c-0.4,0-0.8,0-1.2,0c-0.7,0-1.3,0-2.1,0.1l-0.3,0l-0.4,0l-0.4,0c-0.3,0-0.6,0-1,0
		s-0.6,0-1,0h-0.3c-0.6,0-1.1,0-1.7,0.1l-0.5,0c-0.4,0-0.9,0-1.3,0.1l-0.9,0c-0.6,0-1.2,0-1.8,0c-1.2,0-2.5,0-3.7,0.1
		c-0.9,0.1-1.7,0.2-2.5,0.3c-0.8,0.1-1.7,0.1-2.6,0.2c-0.9,0-1.8,0.1-2.8,0.1l-0.6,0l-0.6,0l-0.9,0c-0.9,0-1.8,0-3.1-0.1l-0.3,0
		c-0.4,0-0.9-0.1-1.4-0.1c-0.3,0-0.7,0-1,0l-0.5,0l-0.5,0c-0.7,0-1.4,0-2.1,0.1l-0.5,0l-0.5,0h-1.1l-1.3,0c-0.7,0-1.4,0.1-2.2,0.1
		l-0.8,0.1l-0.5,0c-0.3,0-0.7,0-1,0.1s-0.7,0-1.1,0l-0.6,0h-1.2c-0.6,0-1.2,0-1.8,0c-0.8,0-1.6,0-2.4,0.1l-0.6,0
		c-0.9,0-1.8,0-2.7,0.1c-0.4,0-0.8,0.1-1.1,0.1l-0.3,0.1c-0.4,0.1-0.7,0.1-1.1,0.1c-0.7,0-1.6,0-2.5,0.1c-0.7,0.1-1.4,0.1-2.1,0.1
		l-0.4,0h-1.9c-0.4,0-0.8,0-1.2,0c-0.5,0-0.9,0-1.4,0H69c-0.4,0-0.9,0-1.5,0c-0.6,0-1.1,0-1.7,0c-0.3,0-0.7,0-1,0
		c-0.4,0-0.8,0.1-1.2,0.1c-0.3,0-0.6,0.1-0.9,0.1c-0.7,0.1-1.4,0.1-2.2,0.1c-0.6,0-1.3,0-1.9,0.1h-0.8c-0.4,0-0.8,0-1.2,0
		c-0.4,0-0.7,0-1.4,0.1l-0.4,0l-0.4,0h-0.5c-0.9,0-1.6,0-2.3-0.1c-0.9-0.1-1.9-0.1-2.8-0.2c-0.9-0.1-1.8-0.1-2.7-0.1l-0.5,0
		l-0.7-0.1c-0.2,0-0.3,0-0.4,0c-0.2,0-0.4,0-0.6,0c-0.3,0-0.5,0-0.9,0l-0.4,0c-0.7,0-1.2,0-1.8-0.1c-0.4,0-0.8-0.1-1.3-0.1
		c-0.2,0-0.4,0-0.6,0c-0.6,0-1.4-0.1-2.2-0.1c-0.2,0-0.4,0-0.6,0c-0.5,0-0.9,0-1.5,0.1l-0.7,0.1h-0.4c-0.3,0-0.7,0-1,0
		c-0.3,0-0.6,0-1-0.1l-0.4,0l-0.4,0c-0.3,0-0.7-0.1-1-0.1c-0.8,0-1.5,0.1-2.3,0.2l-0.3,0c-0.2,0-0.5,0-0.7,0c-0.5,0-1.1,0.1-1.8,0.1
		l-0.3,0c-0.2,0-0.4,0-0.6,0c-0.3,0-0.7,0-1,0.1l-0.3-0.1l-0.3,0c-0.4,0-0.7-0.1-1.1-0.1l-0.4-0.1c-0.3-0.1-0.5-0.1-0.8-0.1
		c-0.2,0-0.4,0-0.6,0c-0.2,0-0.3,0-0.5,0c-0.7-0.1-1.5-0.2-2.1-0.3l-0.3-0.1c-0.6-0.1-1.1-0.1-1.7-0.1l-0.5-0.1
		c-0.2,0-0.4,0-0.6-0.1c-0.4,0-0.7,0-1.2,0c-0.1,0-0.2-0.1-0.5-0.1c-0.2,0-0.4,0-0.5,0c-0.2,0-0.3-0.1-0.5-0.1l-0.3-0.1
		c-0.3-0.1-0.6-0.2-1-0.4l-0.2-0.1l-0.4-0.3c-0.2-0.3-0.4-0.5-0.6-0.7l-0.2-0.3c-0.1-0.2-0.3-0.4-0.4-0.7c-0.1-0.3-0.3-0.5-0.4-0.8
		c-0.2-0.3-0.3-0.5-0.5-0.8l-0.3-0.3v-0.1l-0.1-0.1v0c0,0,0.1,0.1,0.1,0.1v0c-0.1-0.1-0.1-0.1-0.2-0.2c-0.1-0.3-0.4-0.5-0.6-0.7
		c-0.5-0.4-1.1-0.5-1.7-0.4c-0.6,0.1-1.2,0.4-1.5,0.9c-0.4,0.5-0.5,1.1-0.4,1.7c0.1,0.5,0.4,1,0.7,1.4c0.1,0.1,0.2,0.2,0.2,0.2
		c0.1,0,0.1,0.1,0.2,0.1c0.1,0.1,0.1,0.2,0.2,0.3l0.2,0.2c0.1,0.2,0.1,0.4,0.2,0.5c0.2,0.3,0.3,0.5,0.5,0.8c0.2,0.3,0.4,0.5,0.6,0.8
		c0.2,0.2,0.3,0.4,0.5,0.6c0.2,0.4,0.5,0.7,0.8,0.9c0,0,0.4,0.2,0.4,0.2l0.4,0.2c0.2,0.1,0.4,0.2,0.6,0.3l0.4,0.2
		c0.4,0.2,0.7,0.3,1.1,0.4c0.4,0.1,0.8,0.2,1.2,0.3l0.4,0.1c0.2,0,0.3,0,0.5,0l0.3,0.1l0.3,0.1c0.1,0,0.2,0,0.4,0
		c0.2,0,0.4,0,0.6-0.1l0.3,0c0.2,0,0.3,0,0.5,0c0.3,0,0.6,0,0.9,0.1c0.6,0,1.1,0.1,1.7,0.2l0.3,0.1c0.8,0.1,1.6,0.2,2.4,0.2
		c0.6,0,1.1,0.1,1.7,0.2l1.1,0.1c0.2,0,0.5,0.1,0.7,0.1c0.3,0,0.5,0,0.8-0.1l0.4,0l0.4,0c0.2,0,0.5,0,0.7,0.1c0.1,0,0.3,0,0.4,0
		l0.5-0.1c0.2,0,0.4-0.1,0.7-0.1c0.1,0,0.2,0,0.5,0c0.2,0,0.4,0,0.6,0c0.2,0,0.3,0,0.5,0l0.4,0c0.3,0,0.6-0.1,0.9-0.1
		c0.4,0,0.8,0,1.2,0.1c0.3,0,0.6,0.1,0.9,0.1c0.3,0,0.5,0,0.8,0c0.3,0,0.6,0,0.8,0l0.8,0c0.4,0,0.9,0,1.3-0.1l0.5-0.1
		c0.2,0,0.5,0,0.7,0.1c0.3,0,0.5,0,0.8,0s0.6,0,0.8,0c0.2,0,0.4,0,0.6,0l0.5,0c0.5,0,1,0,1.6,0.1c0.2,0,0.4,0,0.6,0h0.4l0.9,0h0.7
		c0.8,0,1.6,0.1,2.4,0.1l0.6,0c1,0.1,2,0.1,3.1,0.2c0.4,0,0.8,0.1,1.4,0.1c0.7,0.1,1.3,0.1,2,0.1l0.4,0c0.6,0,1.2,0,1.8-0.1
		c0.3,0,0.6,0,0.9-0.1l0.7-0.1l1,0c0.5,0,1,0,1.4,0l0.7,0l1.5-0.1c0.3,0,0.6,0,0.9-0.1c0.3,0,0.5,0,0.8-0.1c0.5,0,0.9-0.1,1.4-0.1
		l0.4,0c0.3,0,0.5-0.1,0.8-0.1c0.3,0,0.6,0,1.2,0l0.8,0c0.4,0,0.8,0,1.4,0c0.4,0,0.8,0,1.1-0.1c0.6,0,1.2,0,1.9,0c0.4,0,0.8,0,1.2,0
		c0.5,0,1,0,1.5,0l0.6,0c0.5,0,1,0,1.5-0.1c0.6-0.1,1.1-0.1,1.8-0.1l1.1,0c0.3,0,0.6-0.1,0.9-0.1l0.3-0.1c0.8-0.1,1.6-0.2,2.4-0.2
		l2.5-0.1h0.6l0.6,0l1.7,0l0.5,0l1.4,0c0.7,0,1.4,0,2.2-0.1c0.5,0,1.1,0,1.6,0l0.7-0.1l0.7-0.1c0.3,0,0.7,0,1,0l0.4,0h0.4l0.4,0
		c1,0,2.1-0.1,3.1-0.1l1,0l1.6-0.1c0.6,0,1.1,0,1.7,0.1l0.3,0l0.9,0.1c0.5,0,1.1,0.1,1.6,0.1c0.4,0,0.8,0,1.2,0l0.3,0l0.4,0l1.2-0.1
		l1.2-0.1c0.8,0,1.7,0,2.5-0.1l0.6,0c0.6,0,1.1-0.1,1.7-0.1c1.1-0.2,2.3-0.3,3.4-0.4h1.1c0.4,0,0.8,0,1.2,0c0.7,0,1.4,0,2.2-0.1
		l0.8,0c0.6,0,1.2-0.1,1.8-0.1c0.3,0,0.5,0,0.8,0h0.8c0.7,0,1.4,0,2.1,0c0.4,0,0.8,0,1.2-0.1l0.7-0.1c0.7,0,1.4,0.1,2.1,0.1l0.3,0
		l1.1,0.1c0.7,0,1.4,0.1,2.1,0.1c0.6,0,1.2,0,1.7,0h1.2l0.7,0c0.2,0,0.4,0,0.5,0c0.8,0,1.6,0,2.6-0.1c1.9,0.1,3.7,0.2,5.5,0.6
		l0.9,0.1c0.4,0.1,0.9,0.1,1.3,0.1l0.6,0c0.3,0,0.5,0,1,0.1c0.3,0,0.6,0,0.9,0l0.8,0c0.4,0,0.8,0,1.2,0c0.7,0,1.5,0,2.2-0.1l1.1,0
		l0.8,0h0.5c1.6,0,3.2,0.2,4.8,0.4c0.8,0.1,1.7,0.2,2.5,0.3c0.8,0.1,1.5,0.1,2.3,0.1c0.6,0,1.3,0.1,1.9,0.1c1,0.1,1.9,0.1,2.9,0.1
		l0.8,0l1,0l1.6,0c0.8,0,1.6,0.1,2.3,0.1l0.5,0c0.9,0.1,1.8,0.1,2.6,0.1l0.5,0c1,0,1.9,0,2.9,0s2,0,2.8,0c1,0,2-0.1,3-0.1l1.1,0
		l1.1,0h0.3c0.9,0,1.8,0.1,2.7,0.1l0.9,0c0.6,0,1.1,0.1,1.7,0.1c0.6,0,1.3,0,2,0l0.5,0c0.3,0,0.7,0,1,0l0.3,0l0.3,0l0.7,0l1,0h1.3
		c0.4,0,0.7,0,1.1-0.1l0.9,0c0.4,0,0.7,0,1.1,0l0.8,0l0.5,0c0.5,0,0.9,0,1.4-0.1c0.4,0,0.7-0.1,1.2-0.1c0.8,0,1.6,0.1,2.5,0.2
		l0.6,0.1c0.2,0,0.4,0,0.6,0c0.5,0,1,0,1.6-0.1l0.8-0.1c0.3,0,0.6,0,1.1,0.1l0.3,0c0.4,0,0.8,0,1.3-0.1l0.3,0l0.6,0
		c0.9,0,1.7-0.2,2.6-0.3l0.7-0.1l0.5-0.1c1-0.1,2-0.3,3.1-0.3l0.3,0c0.6,0,1.2-0.1,1.9-0.2c0.6-0.1,1.2-0.1,1.8-0.1h0.3
		c0.5,0,1.1,0,1.7-0.1s1.1-0.1,1.7-0.2c0.4,0,0.9,0,1.3,0c0.7,0,1.5,0,2.2,0c0.4,0,0.8-0.1,1.2-0.1l0.5-0.1l1.1-0.1l0.6-0.1
		c0.9,0,1.8-0.2,2.7-0.4l0.3-0.1c0.4-0.1,0.8-0.3,1.2-0.4c0.4-0.2,0.7-0.4,1-0.7c0.2-0.1,0.4-0.3,0.6-0.4c0.2-0.2,0.4-0.4,0.6-0.7
		l0.5-0.5l0.5-0.6c0.5-0.7,0.9-1.6,1-2.4c0,0,0,0,0,0v0c0-0.5,0-1.1,0-1.6c0-0.3-0.1-0.5-0.1-0.8c-0.2-1.1-1.2-2-2.3-1.9
		C253.7,194.3,253.5,194.3,253.4,194.4L253.4,194.4z M6.6,196.8C6.6,196.8,6.7,196.8,6.6,196.8c0.1,0.1,0.1,0.2,0.1,0.3
		C6.7,196.9,6.7,196.9,6.6,196.8z"/>
	<path class="st0" d="M40.3,0c-0.7,0-1.3,0.1-2,0.2l-0.7,0.1c-0.6,0-1.1,0-1.7,0h-1.6l-1.2,0l-1.9,0l-1.2,0c-1.2,0-2.3,0.1-3.4,0.2
		c-0.6,0-1.1,0.1-1.7,0.2l-0.4,0.1c-0.5,0.1-1,0.1-1.6,0.2L22,1L21.1,1c-0.5,0-1,0.1-1.6,0.1h-1l-0.7,0l-0.7,0
		c-0.8,0-1.6,0.1-2.4,0.2c-0.6,0.1-1.1,0.3-1.7,0.6c-0.4,0.1-0.9,0.2-1.3,0.3c-0.4,0-0.9,0.1-1.3,0.2C9.8,2.5,9.2,2.8,8.6,3.2
		C8.3,3.4,8,3.5,7.7,3.6C7.5,3.7,7.2,3.8,6.9,4C6.2,4.4,5.5,4.9,4.9,5.5C4.7,5.7,4.5,5.8,4.3,6.1C4,6.2,3.8,6.4,3.6,6.7
		C3.4,6.9,3.2,7.2,3,7.4C2.8,7.6,2.7,7.8,2.5,8.1C2.4,8.2,2.3,8.3,2.2,8.5C1.9,8.8,1.7,9.2,1.6,9.6c-0.4,1-0.7,2.1-0.9,3.1
		c-0.1,0.4-0.1,0.9-0.2,1.3l0,0.3c0,0.5-0.1,1.1-0.2,1.6c-0.1,0.5-0.2,1-0.2,1.6c-0.1,0.6-0.1,1.3,0,1.9v1.2c0,0.7,0,1.3,0,2
		c0,1.2,0,2.4,0,3.6C0.1,26.8,0,27.4,0,28c0,0.7,0,1.4,0,2c0,0.5,0,1.1,0,1.6c0,0.7,0,1.4,0,2c0,0.5,0.1,1,0.1,1.5
		c0,0.6,0,1.2,0.1,1.8s0,1.2,0,1.7l0,0.3l0,0.6c0,0.4,0,0.7,0.1,1.1l0,0.8c0,0.3,0,0.6,0.1,0.9c0,0.6,0.1,1.1,0.2,1.7l0.1,0.9
		c0,0.4,0,0.7,0,1.1c0,0.4,0,0.8,0,1.2c0,0.6,0.1,1.2,0.2,1.8c0,0.4,0.1,0.9,0.1,1.3c0,0,0,0.1,0,0.1c0.2,0.5,0.5,0.9,1,1.2
		c0.5,0.3,1.2,0.5,1.8,0.3c0.6-0.1,1.1-0.5,1.5-1c0.2-0.2,0.3-0.5,0.3-0.8c0-0.1,0-0.2,0-0.3c0-0.2,0-0.4,0-0.6c0-0.2,0-0.3-0.1-0.5
		c0-0.2,0-0.4,0-0.5c-0.1-0.3-0.1-0.7-0.2-1c0-0.6,0-1.3,0-1.9c0-1-0.2-2-0.3-3c0-0.3,0-0.7,0-1c0-0.5-0.1-1-0.1-1.5
		c0-0.5,0-1.1,0-1.7c0-0.7-0.1-1.4-0.1-2.1c-0.1-0.7,0-1.4-0.1-2.2h0l0-0.3c0-0.5,0-1.1,0-1.6v-0.3c0-0.3,0-0.6,0-0.9l0-0.8V30
		c0-0.7,0-1.4,0-2.2c0-0.9,0.1-2,0.1-3.1c0-0.7,0-1.3,0-2l0-0.8c0-0.6,0-1.2,0-1.8v-1.4c0-0.9,0.1-1.7,0.3-2.6L5,15.6
		c0.1-0.5,0.1-0.9,0.2-1.4c0-0.4,0.1-0.9,0.1-1.3c0.1-0.6,0.3-1.1,0.5-1.6c0.2-0.3,0.4-0.5,0.6-0.8c0.1-0.1,0.2-0.3,0.3-0.4l0.1-0.1
		l0.1-0.2C7,9.8,7.1,9.7,7.3,9.6c0.1-0.1,0.3-0.2,0.4-0.4C7.8,9.1,7.9,9,8,8.9l0.1-0.1c0.1-0.1,0.3-0.3,0.4-0.4
		c0.3-0.2,0.7-0.4,1-0.6c0.1-0.1,0.3-0.1,0.4-0.2l0.1-0.1l0.2-0.1c0.4-0.2,0.7-0.4,1-0.6l0.1-0.1c0.2-0.1,0.5-0.1,0.7-0.2
		c0.6,0,1.1-0.1,1.6-0.3l0.2-0.1c0.2-0.1,0.4-0.1,0.6-0.2S14.9,6.1,15,6l0.1,0l0.2-0.1c0.1,0,0.2-0.1,0.3-0.1l0.4,0
		c0.3,0,0.6,0,0.9-0.1c0.2,0,0.4,0,0.6,0h0.5l0.3,0h0.2l0.5,0h0.2c1.1,0,2.3-0.1,3.4-0.2l0.4,0c0.1,0,0.1,0,0.2,0h0l-0.1,0
		c0.8-0.1,1.5-0.2,2.3-0.2L26.7,5c0.9-0.1,1.8-0.1,2.7-0.1h2.6c0.3,0,0.7,0,1,0c0.6,0,1.1,0,1.7,0l0.6,0c0.4,0,0.8,0,1.1,0
		c0.9,0,1.8-0.1,2.6-0.2l0.1,0l0.4-0.1c0.2,0,0.4,0,0.6,0c0.6,0,1.1,0,1.8,0.1c0.4,0,0.9,0.1,1.4,0.1c0.5,0,1,0,1.5,0
		c0.2,0,0.4,0,0.7,0c0.4,0,0.8,0,1.2,0c0.3,0,0.6,0,1,0l0.1,0c0.2,0,0.4,0,0.6,0h0.2l0.2,0c0.4,0,0.7,0,1.1,0c0.2,0,0.3,0,0.5,0
		l0.8,0l0.8,0c1.3,0.1,2.7,0.2,4.1,0.2c0.3,0,0.5,0,0.8,0c0.2,0,0.5,0,0.7,0H58c0.3,0,0.5,0,0.9,0c0.4,0,0.9,0,1.4,0.1l0.6,0
		c1.2,0.1,2.4,0.1,3.6,0.1h0.2c0.3,0,0.7,0,1,0l0.2,0h0.1l0.2,0c0.3,0,0.6,0,0.9,0c0.2,0,0.4,0,0.7,0c1,0.1,1.9,0.1,3,0.2l0.2,0
		l1.2,0.1l0.2,0c1.6,0.1,3.1,0.2,4.7,0.4c0.4,0.1,0.9,0.2,1.3,0.4c0.1,0,0.1,0.1,0.2,0.1l0.7,0.6c0.3,0.3,0.6,0.5,1,0.8l0.1,0.1
		l0.1,0.1c0.1,0.2,0.2,0.3,0.2,0.4l0.1,0.1l0.1,0.1c0.1,0.2,0.3,0.5,0.4,0.7c0.5,0.8,1,1.6,1.6,2.4c0.8,1.2,1.7,2.3,2.6,3.3
		c0.4,0.5,0.8,0.9,1.2,1.4c0.5,0.6,1,1.1,1.5,1.7c0.3,0.3,0.5,0.6,0.7,0.8l0.1,0.1c0.2,0.2,0.3,0.4,0.5,0.6c0.5,0.5,1.1,1.1,1.7,1.5
		l0.2,0.2c0,0,0,0,0,0l0,0c0.1,0.1,0.2,0.2,0.3,0.3c0.5,0.4,1.2,0.5,1.8,0.3c0.6-0.1,1.1-0.5,1.4-1c0.3-0.5,0.5-1.2,0.3-1.8
		c-0.1-0.4-0.2-0.7-0.5-1c0,0-0.1,0-0.1,0c-0.1-0.1-0.3-0.3-0.4-0.4l-0.9-0.7c-0.5-0.5-1-1-1.4-1.5l-0.3-0.4L91,14.4
		c-0.4-0.5-0.9-1-1.3-1.5c-0.3-0.3-0.6-0.7-0.9-1c-0.3-0.3-0.6-0.6-0.9-1c-0.5-0.7-1-1.3-1.6-2.2c-0.6-0.8-1.1-1.7-1.6-2.5
		c-0.3-0.6-0.6-1.1-1.1-1.6c-0.3-0.3-0.6-0.6-0.9-0.8l-0.2-0.2l-0.3-0.3C81.8,3,81.4,2.7,81,2.3c-0.8-0.5-1.6-0.9-2.5-1
		c-1.9-0.4-3.8-0.6-5.6-0.6l-1,0c-1-0.1-2-0.1-2.9-0.2h-0.4c-0.3,0-0.7,0-1.1,0l-0.4,0c-0.6,0-1.2,0.1-2,0.1c-0.9,0-1.7,0-2.6-0.1
		l-0.4,0c-1.1-0.1-2.1-0.1-3.2-0.1c-0.3,0-0.6,0-1,0c-0.4,0-0.7,0-1.1,0c-1.3,0-2.5-0.1-3.8-0.1l-0.5,0l-0.3,0
		c-0.6,0-1.2-0.1-1.9-0.1l-0.4,0l-0.6,0c-0.4,0-0.9,0-1.3,0h-0.4l-0.6,0l-1,0c-0.2,0-0.4,0-0.8,0c-0.4,0-0.8,0-1.2,0
		c-0.4,0-0.8,0-1.1,0l-0.6-0.1c-0.5,0-1-0.1-1.5-0.1H40.3z"/>
	<path class="st0" d="M91.1,19.6c-0.1,0.6-0.1,1.2,0.2,1.7l0,0c0.3,0.5,0.8,0.9,1.4,1.1l0.7,0.2c0.8,0.3,1.7,0.5,2.6,0.7
		c0.9,0.1,2.1,0.4,3.3,0.6c1.9,0.4,3.9,0.6,5.9,0.6l0.8,0c0.5,0,1.1,0,1.6,0c0.5,0,1,0,1.5,0c0.4,0,0.8,0,1.3,0.1l0.2,0
		c0.5,0,1,0.1,1.5,0.1c0.3,0,0.5,0,0.8,0c0.4,0,0.8,0,1.2,0c0.4,0,0.7,0,1.2,0c0.6,0,1.3,0,1.9-0.1c0.4,0,0.9,0,1.3,0
		c1.1,0,2.3-0.1,3.4-0.2c1.1-0.1,2.2-0.1,3.3-0.1l0.7,0c0.9,0,1.9-0.1,2.9-0.1c0.8,0,1.6-0.1,2.4-0.2l1.1-0.1
		c2.1-0.1,4.2-0.2,6.1-0.3l1.4,0l0.5,0h0.2c2.1-0.1,4.3-0.1,6.4-0.2h0.5c1.1,0,2.1,0,3.2,0.1c0.9,0,1.8,0.1,2.7,0.1l0.6,0l0.9,0h1.7
		l0.5,0h0.5c0.8,0,1.6,0,2.4,0h1c0.8,0,1.8,0,2.7-0.1c0.4,0,0.7,0,1.1,0l0.4,0c0.7,0,1.4-0.1,2.2-0.1c0.7,0,1.5,0,2.2,0h0.5
		c0.3,0,0.6,0,0.9,0c0.7,0,1.4,0,2.1-0.1l0.4,0l1.2-0.1l1,0l0.2,0c0.6,0,1.2,0,1.9,0h0.2c1.1,0,2.2,0,3.3,0.1
		c2.2,0.1,4.5,0.1,7.1,0.1c1.2,0,2.4,0,3.6-0.1l0.2,0c1.2,0,2.3-0.1,3.5-0.1c2.1,0,4.2-0.1,6.5-0.2c0.5,0,1.1,0,1.6,0
		c0.9,0,1.8,0,2.8,0.1c0.7,0,1.4,0,2.1,0l0.3,0c0.7,0,1.3,0,2-0.1c0.4,0,0.8,0,1.3,0s0.8,0,1.2,0h1.2l1,0h0.9c0.8,0,1.6,0,2.4,0
		c1.2,0,2.4,0.1,3.5,0.1l1.8,0c1.6,0,3.3,0,4.9,0.1c0.9,0,1.8,0.1,2.7,0.2c0.2,0,0.4,0,0.7,0.1l0,0h0l-0.2,0
		c0.5,0.1,1.1,0.1,1.7,0.2l0.2,0l0.3,0c0.2,0.1,0.4,0.1,0.6,0.1c0,0,0,0,0.1,0l0.3,0l0.3,0l0.7,0.1c0.7,0.1,1.5,0.2,2.2,0.2l0.5,0
		c0.6,0,1.2,0.1,1.8,0.1c1.1,0.2,2.1,0.2,3.2,0.3l0.2,0h0.3c0.7,0,1.5,0,2.4,0.1c1.3,0.1,2.5,0.4,3.7,0.8c0.6,0.3,1.2,0.6,1.7,0.9
		c0.1,0.1,0.2,0.2,0.4,0.3v0l0.1,0.1c0.4,0.5,0.7,1,1,1.6c0,0,0,0.1,0,0.1c0,0.3,0,0.5,0,0.8c0,0.1,0,0.1,0,0.2c0,0,0,0.1,0,0.1
		l0,0.2c0,0.2,0.1,0.4,0.1,0.7c0,0.4,0,0.8,0,1.2l0,0.1c0,0.1,0,0.2,0,0.4c0,0.2,0,0.5,0,0.7c0,0.9,0,1.7-0.1,2.6
		c-0.1,0.8,0,1.5-0.1,2.3c-0.2,1.5-0.7,3-0.8,4.5c0,0.1,0,0.3,0,0.4c0,0.3,0.1,0.6,0.1,0.9l0.1,0.3c0,0.2,0,0.4,0,0.5
		c0.1,0.5,0.1,0.9,0.1,1.4c0,0.2,0.1,0.5,0.1,0.7l0,0.3l0,0.3c0.1,0.2,0.1,0.4,0.2,0.6l0.1,0.3c0.1,0.6,0.2,1.1,0.2,1.7
		c0,0.1,0,0.2,0,0.3c0.8,0.6,1.8,0.6,2.6,0.1c0.5-0.3,0.9-0.8,1.1-1.4c0.1-0.7,0.2-1.5,0.2-2.2c0-0.5-0.1-1.1-0.1-1.6
		c0-0.5,0-1,0-1.5c0-0.4,0-0.8,0-1.3c0.2-1.1,0.5-2.2,0.6-3.3c0.1-0.7,0.2-1.5,0.2-2.2c0-0.6,0-1.2,0-1.9c0.1-0.6,0.1-1.2,0.1-1.8
		c0-0.6,0-1.1,0-1.7c0.1-0.5,0.1-1.1,0-1.6c0-0.2,0-0.3,0-0.5c0-0.1,0-0.2-0.1-0.3c0-0.2,0-0.5,0-0.7c-0.1-1-0.4-1.9-1-2.8l-0.2-0.3
		c-0.2-0.3-0.4-0.6-0.6-0.9c-0.9-1.2-2.2-2.2-3.6-2.8c-2.2-0.9-4.5-1.4-6.8-1.5c-0.7-0.1-1.4-0.1-2.1-0.1c-0.7,0-1.4,0-2.1-0.1
		c-0.8-0.1-1.7-0.2-2.5-0.2l-1.7-0.1c-0.8-0.1-1.5-0.2-2.5-0.3c-0.7-0.1-1.5-0.2-2.3-0.2c-2.1-0.2-4.2-0.4-6.2-0.4l-1.4,0l-1.5,0
		c-1.3,0-2.7,0-4.1,0c-1.9,0-3.7-0.1-5.6-0.1l-1.2,0c-0.6,0-1.2,0-1.9,0.1l-0.5,0c-0.4,0-0.7,0-1.1,0h-0.6c-0.7,0-1.4,0-2.2,0
		l-0.5,0l-0.9,0c-0.7,0-1.3,0-2,0l-0.3,0c-0.8,0-1.6,0-2.4,0.1l-0.4,0l-0.5,0c-1.1,0-2.2,0.1-3.4,0.1c-1.1,0-2.3,0-3.5,0.1
		c-1.8,0.1-3.5,0.1-5.3,0.1c-2.3,0-4.6,0-6.9-0.1l-1.7,0l-1,0c-1.1,0-2.3,0-3.5,0.1l-0.5,0l-1,0l-1,0c-0.8,0-1.6,0-2.4,0l-1.3,0
		c-0.6,0-1.2,0-1.8,0.1l-0.4,0c-0.4,0-0.9,0.1-1.3,0.1c-1.5,0.1-3,0.1-4.6,0.1c-0.9,0-1.7,0-2.6,0l-1.8,0c-1.6,0-3.2,0-4.8-0.1
		c-1.1,0-2.2-0.1-3.3-0.1s-2.2,0-3.3,0c-2.4,0.1-4.7,0.1-7.1,0.2l-1.5,0.1c-0.7,0-1.5,0.1-2.2,0.1c-0.9,0-1.8,0.1-2.8,0.2l-0.9,0.1
		c-1.3,0.1-2.6,0.1-4,0.2c-1,0-2.1,0.1-3.1,0.1c-3,0.2-6.2,0.3-9.5,0.3H112c-0.7,0-1.5-0.1-2.4-0.1c-0.5,0-1,0-1.5-0.1H107
		c-0.8,0-1.5,0-2.3-0.1l-1.1-0.1l-1.2-0.1c-0.6-0.1-1.2-0.2-1.8-0.3l-1.8-0.4L98.4,19l-0.9-0.1c-0.5-0.1-0.9-0.2-1.4-0.3
		c-0.5-0.1-1-0.3-1.4-0.4l-0.1-0.1l-0.7-0.2c-0.2-0.1-0.4-0.1-0.6-0.1C92.2,17.8,91.3,18.5,91.1,19.6L91.1,19.6z M232.1,23.3
		c0.1,0,0.1,0,0.2,0C232.3,23.3,232.2,23.3,232.1,23.3z"/>
	<path class="st0" d="M253.7,24.3c-0.5,0.3-0.9,0.8-1.1,1.4c-0.1,0.3-0.1,0.6-0.1,1c0,0,0,0,0,0c0,0.3,0.1,0.6,0.3,0.8
		c0.3,0.4,0.5,0.8,0.7,1.3c0.1,0.3,0.2,0.5,0.2,0.8l0,0.1c0,0,0,0.1,0,0.1c0.1,0.3,0.2,0.6,0.2,0.9c0,0.4,0,0.8,0,1.2
		c0,0.6,0,1.2,0,1.8c0,0.3,0,0.7,0,1c-0.1,0.5-0.2,1-0.2,1.6c0,0.6,0,1.2,0.1,1.8c0.1,0.9,0.1,1.7,0,2.6c0,0.9,0,1.8,0.1,2.7v0
		c0,0,0,0,0,0v0.1c0,0.1,0,0.2,0,0.3v0c0.2,2.3,0.2,4.6,0.2,6.9c0,1.3,0.1,2.5,0.1,3.8c-0.1,1.7,0.1,3.4,0.4,5.1
		c0.1,0.6,0.5,1.1,1,1.5c0.5,0.3,1.2,0.4,1.8,0.3c0.4-0.1,0.8-0.3,1.1-0.6c-0.1-0.7-0.2-1.4-0.2-2c0-0.2,0-0.4,0-0.6v-0.3l0-0.3
		l0-0.6l0-0.4c0-0.4-0.1-0.7,0-1.1l-0.1-0.3l0-1.4c0-0.1,0-0.2,0-0.3l-0.1-0.3c0-0.2,0-0.3,0-0.5c0-0.3-0.1-0.6-0.1-1l0-0.5
		c0-0.4,0.1-0.9,0.1-1.2c0-0.2,0-0.4,0.1-0.6c-0.1-0.6-0.1-1.2-0.1-1.9l0.1-0.5c0-0.6,0.2-1.2,0.4-1.7c-0.1-0.9-0.1-1.9-0.2-2.8
		c0-0.7-0.1-1.4,0-2.1c0-0.9,0-1.7-0.1-2.6c-0.1-0.8-0.1-1.6,0-2.3c0.1-0.3,0.1-0.7,0.1-1c0-0.4,0-0.8-0.1-1.2c0-0.5,0-1.1,0-1.6
		l0-0.3c0-0.8-0.1-1.7-0.3-2.5c0-0.1,0-0.2,0-0.3c-0.3-1.2-0.8-2.4-1.4-3.4c-0.3-0.5-0.8-0.9-1.4-1.1c-0.2-0.1-0.5-0.1-0.7-0.1
		C254.5,24,254.1,24.1,253.7,24.3L253.7,24.3z M254,33.5L254,33.5C254,33.6,254,33.6,254,33.5z"/>
	<path class="st0" d="M254.2,43.7c0-0.1,0-0.1,0-0.2l0-0.1C254.2,43.5,254.2,43.6,254.2,43.7z"/>
	<path class="st1" d="M181.1,27.3c-0.5,0-1.1,0-1.6,0h-0.5c-0.4,0-0.8,0-1.2,0c-1.2,0-2.4,0.1-3.7,0.2l-0.2,0
		c-0.9,0.1-1.9,0.2-2.8,0.2c-2.3,0.1-4.7,0.1-6.9,0.1c-1.5,0-2.9,0.1-4.4,0.2l-0.1,0l-0.3,0c-0.8,0.1-1.6,0.1-2.4,0.2l-1,0l-0.3,0
		c-1.1,0.1-2.2,0.1-3.2,0.1l-1.3,0c-0.8,0-1.6,0-2.4,0h-0.2c-0.6,0-1.3,0-1.9,0.1l-0.2,0c-0.6,0-1.1,0.1-1.7,0.1
		c-0.9,0-1.8-0.1-2.9-0.2c-0.5-0.1-1.1-0.1-1.6-0.1s-1.1-0.1-1.6-0.1c-1.2-0.1-2.2-0.2-3.2-0.2c-0.3,0-0.5,0-0.8,0c-0.5,0-1,0-1.5,0
		h-0.5c-0.3,0-0.6,0-0.9,0c-0.5,0-0.9,0-1.5,0l-1,0l-0.6,0H128l0.1,0c-0.4,0-0.9,0-1.3,0c-0.8,0-1.6,0-2.4,0l-1.4,0l-0.8,0
		c-0.5,0-1.1,0-1.6,0c-0.3,0-0.6,0-0.9,0c-0.9,0-1.9,0.1-3,0.1c-0.6,0-1.2,0.1-1.8,0.1c-0.5,0.1-1,0.1-1.5,0.1
		c-1.1,0-2.2,0.1-3.3,0.2l-0.3,0c-0.6,0-1.3,0.1-1.9,0.1c-0.5,0-1,0-1.5,0.1c-1.2,0.1-2.4,0.2-3.6,0.2c-1.1,0.1-2.2,0.1-3.3,0.1
		c-1,0-2,0-3,0.1c-0.4,0-0.8,0-1.2,0l-0.4,0c-0.4,0-0.7,0-1.1,0c-0.3,0-0.6,0-0.9,0.1l-0.3,0c-0.4,0-0.8,0.1-1.1,0.1l-0.4,0
		c-2,0.1-4,0.2-6,0.3c-1,0.1-2,0.1-3,0.1c-0.4,0-0.8,0-1.2,0.1l-0.2,0c-0.6,0-1.2,0.1-1.8,0.1c-0.9,0-1.8,0-2.7,0.1l-0.1,0
		c-0.8,0-1.6,0.1-2.4,0.1c-0.1,0-0.2,0-0.3,0h-0.1h0.1h-0.1l0.1,0l-0.4,0c-0.6,0-1.2,0-1.8,0h-0.3h-0.3h-0.3h-0.3h-0.2h-0.2H69h-0.4
		H68h-0.9h-0.4l-0.4,0l-0.1,0h-0.1l0,0c-0.5,0-1,0-1.6-0.1c-0.7,0-1.4-0.1-2-0.1c-0.2,0-0.4,0-0.6,0c-0.4,0-0.8,0-1.3,0
		c-0.8,0-1.6,0.1-2.3,0.1c-0.8,0-1.6,0-2.4-0.1c-1.1,0-2.1-0.1-3.2-0.1h-0.5c-0.9,0-1.9,0.1-2.8,0.1l-0.2,0c-1,0.1-1.9,0.1-2.9,0.1
		l-0.8,0c-0.7,0-1.3,0-1.9,0c-0.2,0-0.3,0-0.5,0c-1,0-2.2,0-3.4,0.1c-2.2,0.1-4.4,0.2-6.2,0.2l-2,0l-1.6,0l-1,0l-0.5,0l0.1,0l-0.3,0
		l-0.3,0h0c-0.6,0-1.2-0.1-1.8-0.1c-0.4,0-0.8-0.1-1.2-0.1c-0.5,0-1,0-1.5,0c-0.5,0-0.9,0-1.4,0c-0.3,0-0.7,0-1,0L20,30l-0.2,0
		c-0.4,0-0.9,0-1.3,0c-0.4,0-0.7,0-1.1,0c-0.6,0-1.3,0.1-1.9,0.2l-0.3,0l-0.7,0.1c-1,0.1-1.9,0.3-2.8,0.6c-0.4,0.1-0.9,0.3-1.3,0.4
		l-0.2,0.1l-0.5,0.2l-0.2,0.1c-0.7,0.2-1.3,0.5-2,0.7c-0.5,0.2-1.1,0.4-1.6,0.7c-0.4,0.3-0.8,0.6-1.1,0.9c0,0-0.1,0.1-0.1,0.1
		c-0.4,0.5-0.8,1.1-1,1.7c-0.2,0.3-0.3,0.6-0.5,1c-0.2,0.4-0.4,0.9-0.5,1.3c-0.5,1.2,0,2.6,1.2,3.1c1.2,0.5,2.6,0,3.1-1.2
		c0.3-0.9,0.7-1.8,1.2-2.7c0.1-0.1,0.1-0.2,0.2-0.3c0,0,0.1-0.1,0.1-0.1c0.9-0.4,1.8-0.7,2.7-1c0.8-0.2,1.5-0.5,2.3-0.7
		c0.9-0.2,1.7-0.3,2.6-0.4c0.9-0.1,1.8-0.2,2.6-0.2c0.9,0,1.7,0.1,2.6,0.1c0.6,0,1.3,0,1.9,0c0.9,0,1.7,0.1,2.6,0.2
		c1.2,0.1,2.3,0.1,3.5,0.1c1.1,0,2.1,0.1,3.2,0.1c1.3,0,2.6,0,3.9,0c2.6,0,5.2-0.3,7.7-0.3c1.7,0,3.3,0.1,5,0
		c1.4-0.1,2.8-0.2,4.2-0.2c1.6,0,3.1,0.1,4.7,0.1c0.9,0,1.8,0,2.7,0c0.8,0,1.6-0.1,2.3-0.1c1.2,0,2.3,0.1,3.5,0.1h-0.2h0.3h0.1
		c0.1,0,0.1,0,0.2,0c-0.1,0-0.1,0-0.2,0h1.9c0.2,0,0.5,0,0.7,0c0.2,0,0.4,0,0.5,0c0.2,0,0.4,0,0.6,0c0,0,0,0,0,0h0.8
		c0.7,0,1.3,0,2,0c1.2,0,2.4,0,3.6-0.1c0.5,0,1.1-0.1,1.6-0.1c0.6,0,1.3,0,1.9,0c2.5-0.1,4.9-0.2,7.4-0.4c1.2-0.1,2.5-0.1,3.7-0.2
		c1.1,0,2.2-0.2,3.3-0.2c2.2-0.1,4.3-0.2,6.5-0.2c1.7,0,3.3-0.2,5-0.3c0.8,0,1.6-0.1,2.3-0.1c0.9,0,1.8-0.1,2.7-0.2
		c0.9-0.1,1.7-0.1,2.6-0.1c0.8,0,1.6-0.1,2.5-0.2c0.8-0.1,1.5-0.1,2.3-0.1c0.7,0,1.4-0.1,2.2-0.1c1.1,0,2.2,0.1,3.3,0.1
		c1.1,0,2.2,0,3.3,0c0.3,0,0.5,0,0.8,0c1,0,1.9,0.1,2.9,0.1c1.2,0,2.4,0,3.6,0c1.1,0,2.2,0.1,3.2,0.2c1.3,0.1,2.5,0.2,3.8,0.3
		c1.4,0.1,2.8,0.2,4.2,0.1c1.2,0,2.4-0.1,3.5-0.1c1.2,0,2.4,0.1,3.7,0.1c1.1,0,2.1,0,3.2-0.1c1.2-0.1,2.5-0.1,3.7-0.2
		s2.4-0.2,3.7-0.2c2.3,0,4.5-0.1,6.8-0.1c1.1,0,2.2-0.1,3.3-0.2c1.1-0.1,2.3-0.2,3.4-0.3c0.9,0,1.8-0.1,2.7,0c0.5,0,1,0,1.5,0
		c0.4,0,0.8,0,1.2,0c1.1,0,2.3,0.1,3.4,0.1c0.8,0,1.6,0.1,2.4,0.1c0.7,0,1.5,0,2.2,0c0.4,0,0.7,0,1.1,0c0.4,0,0.8,0,1.2,0
		c1.5,0,3,0,4.5,0c0.7,0,1.5,0.1,2.2,0.1s1.5,0,2.2,0c0.3,0,0.7,0,1,0c1.6,0,3.3,0.2,4.9,0.2c1,0,2,0.1,2.9,0.1c1.2,0,2.3,0,3.5,0
		l1.1,0c1.7,0,3.3,0.2,5,0.2c1.1,0,2.3,0.1,3.4,0c0.8,0,1.7-0.1,2.6-0.1c0.8,0,1.6,0.1,2.3,0.1c0.6,0,1.3,0,1.9,0c0.4,0,0.8,0,1.3,0
		c0.4,0,0.9,0,1.3,0c0.7,0,1.4,0.1,2,0.1c0.9,0.1,1.7,0.1,2.6,0.1c0.8,0,1.6,0,2.4,0c0.3,0,0.7,0,1,0c1.1,0,2.2,0.2,3.3,0.3
		s2.2,0.3,3.3,0.5c0.5,0.1,0.9,0.3,1.4,0.4h0c0.1,0,0.2,0.1,0.4,0.1c0.3,0.3,0.6,0.7,0.9,1c0.2,0.2,0.4,0.4,0.6,0.6
		c0.1,0.1,0.1,0.1,0.2,0.2c0,0,0,0.1,0,0.1c0.1,0.6,0.4,1.2,0.9,1.5c1,0.8,2.5,0.6,3.3-0.4c0,0,0,0,0,0c0.3-0.4,0.5-0.8,0.5-1.3v0.1
		c0.1-0.6,0-1.2-0.2-1.7c-0.1-0.3-0.3-0.6-0.5-0.8v0c-0.1-0.1-0.1-0.2-0.2-0.4c-0.2-0.3-0.5-0.6-0.8-0.8c-0.1-0.1-0.2-0.2-0.3-0.3v0
		l-0.4-0.3l-0.2-0.2l-0.1-0.1c-0.1-0.1-0.2-0.2-0.2-0.3c-0.4-0.5-1-0.9-1.6-1.2c-0.4-0.1-0.7-0.2-1.1-0.3l-0.6-0.2
		c-0.6-0.2-1.2-0.4-1.9-0.5c-0.7-0.1-1.4-0.2-2.1-0.3l-0.8-0.1c-0.9-0.1-2-0.3-3-0.3c-0.3,0-0.7,0-1,0c-0.4,0-0.8,0-1.2,0
		c-0.3,0-0.7,0-1,0l-0.4,0l-1,0c-0.7,0-1.4-0.1-2-0.1l-0.6,0c-0.7-0.1-1.4-0.1-2-0.1h-0.6h-0.2h-0.4c-0.5,0-1,0-1.5,0
		c-0.4,0-0.7,0-1.1,0c-0.4,0-0.7,0-1.1,0c-0.7,0-1.3-0.1-2-0.1h-0.4c-0.4,0-0.9,0-1.3,0l-0.3,0c-0.6,0-1.2,0-1.8,0
		c-1.2,0-2.3-0.1-3.5-0.1l-0.2,0c-1,0-2-0.1-3-0.1c-0.2,0-0.4,0-0.6,0l0.1,0c-0.4,0-0.9,0-1.3,0h-0.8c-0.3,0-0.7,0-1,0
		c-1.5,0-3.2-0.1-5.4-0.2c-0.9,0-1.9-0.1-2.9-0.1c-0.3,0-0.6,0-0.9,0c-0.4,0-0.9,0-1.3,0H201c-0.2,0-0.4,0-0.7,0c-0.4,0-0.7,0-1.1,0
		c-0.7,0-1.3-0.1-2-0.1h-0.4l-1.1,0c-0.6,0-1.2,0-1.8,0l-0.5,0c-0.3,0-0.7,0-1,0h-0.3l0.1,0c0,0-0.1,0-0.1,0h-0.2h-0.3
		c-0.4,0-0.8,0-1.3,0H190c-0.2,0-0.5,0-0.7,0c-0.6,0-1.2,0-1.8-0.1c-0.8,0-1.5-0.1-2.3-0.1l-1,0c-0.7,0-1.4-0.1-2.1-0.1
		C181.7,27.3,181.4,27.3,181.1,27.3L181.1,27.3z M120.3,32.4L120.3,32.4z M66.6,34.7L66.6,34.7z"/>
	<path class="st2" d="M40.4,4.6c-0.2,0-0.4,0-0.6,0l-0.4,0.1l-0.1,0c-0.9,0.1-1.8,0.2-2.6,0.2c-0.4,0-0.8,0-1.2,0h-0.6
		c-0.6,0-1.2,0-1.7,0c-0.3,0-0.7,0-1,0h-0.8h-0.9c-0.3,0-0.6,0-0.9,0c-0.9,0-1.8,0.1-2.7,0.1l-1.3,0.1c-0.8,0.1-1.5,0.2-2.3,0.3
		l0.1,0l-0.6,0c-1.1,0.1-2.3,0.2-3.4,0.2H19l-0.5,0h-0.2h-0.3c-0.2,0-0.3,0-0.5,0c-0.2,0-0.4,0-0.6,0c-0.3,0-0.6,0-0.9,0.1l-0.4,0
		c-0.1,0-0.2,0-0.3,0.1L15.2,6L15,6c-0.2,0.1-0.4,0.2-0.5,0.2s-0.4,0.1-0.6,0.2l-0.2,0.1c-0.5,0.2-1.1,0.2-1.6,0.3
		c-0.2,0-0.5,0.1-0.7,0.2l-0.1,0.1c-0.3,0.2-0.7,0.4-1,0.6l-0.2,0.1L9.9,7.7C9.8,7.7,9.7,7.8,9.5,7.9C9.2,8,8.8,8.2,8.5,8.4
		C8.3,8.5,8.2,8.7,8.1,8.8L8,8.9C7.9,9,7.8,9.1,7.7,9.2C7.5,9.3,7.4,9.4,7.3,9.5C7.1,9.7,7,9.8,6.9,9.9l-0.1,0.2l-0.1,0.1
		c-0.1,0.1-0.2,0.3-0.3,0.4c-0.2,0.2-0.4,0.5-0.6,0.8c-0.2,0.5-0.4,1.1-0.5,1.6c-0.1,0.4-0.1,0.9-0.1,1.3c0,0.5-0.1,0.9-0.1,1.4
		l-0.1,0.5c-0.2,0.9-0.2,1.7-0.3,2.6c0,0.4,0,0.8,0,1.1v0.3c0,0.6,0,1.2,0,1.8l0,0.8c0,0.7,0,1.3,0,2c0,1.1-0.1,2.2-0.1,3.1
		c0,0.7,0,1.5,0,2.2v0.1l0,0.8c0,0.3,0,0.6,0,0.9v0.2v0.1c0,0.5,0,1.1,0,1.6l0,0.3c0.1,0,0.1-0.1,0.1-0.1c0.3-0.4,0.7-0.7,1.1-0.9
		c0.5-0.3,1-0.5,1.6-0.7c0.7-0.3,1.3-0.5,2-0.7l0.2-0.1l0.5-0.2l0.2-0.1c0.4-0.1,0.9-0.3,1.3-0.4c0.9-0.3,1.9-0.5,2.8-0.6
		c0.2,0,0.4-0.1,0.7-0.1l0.4,0c0.7-0.1,1.3-0.2,1.9-0.2c0.4,0,0.7,0,1.1,0c0.4,0,0.9,0,1.3,0l0.2,0l0.8,0c0.3,0,0.7,0,1,0
		c0.5,0,0.9,0,1.4,0c0.5,0,1,0,1.5,0c0.4,0,0.8,0,1.2,0.1c0.6,0,1.2,0.1,1.8,0.1l0.3,0l0.3,0l-0.2,0l1.6,0.1l1.6,0l2,0
		c1.8,0,4,0,6.2-0.2c1.2-0.1,2.5-0.1,3.4-0.1c0.2,0,0.4,0,0.5,0c0.7,0,1.3,0,1.9,0l0.8,0c1,0,2-0.1,2.9-0.1l0.2,0
		c0.9,0,1.9-0.1,2.8-0.1h0.5c1.1,0,2.1,0,3.2,0.1c0.8,0,1.6,0.1,2.4,0.1c0.8,0,1.6,0,2.3-0.1c0.4,0,0.8,0,1.3,0c0.2,0,0.4,0,0.6,0
		c0.7,0,1.4,0,2,0.1c0.5,0,1.1,0,1.6,0.1L66,30l0.3,0l0.4,0h0.4H68h0.6H69h0.4h0.2h0.2h0.3h0.3h0.3h0.3c0.6,0,1.2,0,1.8,0h0.4
		l-0.2,0c0.2,0,0.3,0,0.5,0c0.8,0,1.6,0,2.4-0.1l0.1,0c0.9,0,1.8-0.1,2.7-0.1c0.6,0,1.2,0,1.8-0.1l0.2,0c0.4,0,0.8,0,1.2-0.1
		c1,0,2-0.1,3-0.1c2-0.1,4-0.2,6-0.3l0.4,0c0.4,0,0.8,0,1.1-0.1l0.3,0c0.3,0,0.6-0.1,0.9-0.1c0.4,0,0.7,0,1.1,0l0.4,0
		c0.4,0,0.8,0,1.2,0c1-0.1,2-0.1,3-0.1c1.1,0,2.2,0,3.3-0.1c1.2-0.1,2.4-0.2,3.6-0.2c0.5,0,1-0.1,1.5-0.1c0.7,0,1.3-0.1,1.9-0.1
		l0.3,0c1.1-0.1,2.2-0.2,3.3-0.2c0.5,0,1-0.1,1.5-0.1c0.6-0.1,1.2-0.1,1.8-0.1c1.1,0,2.1,0,3-0.1c0.3,0,0.6,0,0.9,0
		c0.5,0,1.1,0,1.6,0l0.8,0l1.4,0c0.8,0,1.6,0,2.4,0c0.4,0,0.9,0,1.3,0l-0.1,0l1,0l1,0c0.5,0,1,0,1.5,0c0.3,0,0.6,0,0.9,0h0.5
		c0.5,0,1,0,1.5,0c0.3,0,0.5,0,0.8,0c1,0,2.1,0.1,3.2,0.2c0.5,0.1,1.1,0.1,1.6,0.1s1.1,0.1,1.6,0.1c1.1,0.1,2,0.2,2.9,0.2
		c0.6,0,1.1,0,1.7-0.1l0.2,0c0.6,0,1.3-0.1,1.9-0.1h0.2c0.8,0,1.6,0,2.4,0l1.3,0c1.1,0,2.2-0.1,3.2-0.1l0.3,0l1,0
		c0.8,0,1.6-0.1,2.4-0.2l0.3,0l0.1,0c1.4-0.1,2.9-0.2,4.4-0.2c2.2,0,4.5,0,6.9-0.1c0.9,0,1.9-0.1,2.8-0.2l0.2,0
		c1.3-0.1,2.5-0.2,3.7-0.2c0.4,0,0.8,0,1.2,0h0.5c0.5,0,1.1,0,1.6,0c0.3,0,0.6,0,1,0c0.7,0,1.4,0,2.1,0.1l1,0c0.8,0,1.6,0,2.3,0.1
		c0.6,0,1.2,0.1,1.8,0.1c0.2,0,0.5,0,0.7,0h0.4c0.4,0,0.9,0,1.3,0h0.3h0.2c0,0,0.1,0,0.1,0l-0.1,0c0.4,0,0.9,0,1.3,0.1l0.5,0
		c0.6,0,1.2,0,1.8,0l1.1,0h0.4c0.7,0,1.3,0,2,0.1c0.4,0,0.7,0,1.1,0c0.2,0,0.4,0,0.7,0h0.3c0.4,0,0.9,0,1.3,0c0.3,0,0.6,0,0.9,0
		c1,0,1.9,0.1,2.9,0.1c2.2,0.1,3.9,0.1,5.4,0.2c0.3,0,0.7,0,1,0h0.8c0.4,0,0.9,0,1.3,0l-0.2-0.1c1.2,0,2.5,0.1,3.7,0.2l0.2,0
		c1.2,0.1,2.3,0.1,3.5,0.1c0.6,0,1.2,0,1.8,0l0.3,0c0.4,0,0.9,0,1.3,0h0.4c0.7,0,1.3,0,2,0.1c0.4,0,0.7,0,1.1,0c0.4,0,0.8,0,1.1,0
		c0.5,0,1,0,1.5,0h0.4h0.2h0.6c0.6,0,1.3,0,2,0.1l0.6,0c0.7,0.1,1.4,0.1,2,0.1l1,0l0.4,0c0.3,0,0.7,0,1,0c0.4,0,0.8,0,1.2,0
		c0.3,0,0.7,0,1,0c1,0,2.1,0.2,3,0.3l0.8,0.1c0.7,0.1,1.4,0.2,2.1,0.3c0.6,0.1,1.2,0.3,1.9,0.5l0.6,0.2c0.4,0.1,0.7,0.2,1.1,0.3
		c0.6,0.3,1.2,0.7,1.6,1.2c0.1,0.1,0.2,0.2,0.2,0.3l0.1,0.1l0.2,0.2l0.4,0.3c0-0.1,0.1-0.3,0.1-0.4l0-0.1c0-0.4,0-0.8,0-1.2
		c0-0.2,0-0.4-0.1-0.7l0-0.2c-0.1-0.3-0.1-0.5-0.2-0.8c-0.2-0.5-0.4-0.9-0.7-1.3c-0.2-0.2-0.3-0.5-0.3-0.8c-0.1-0.1-0.2-0.2-0.3-0.3
		c-0.5-0.4-1.1-0.7-1.7-0.9c-1.2-0.4-2.5-0.7-3.7-0.8c-0.9-0.1-1.7-0.1-2.4-0.1H244h-0.2c-1.1,0-2.1-0.1-3.2-0.3
		c-0.6-0.1-1.2-0.1-1.8-0.2l-0.5,0c-0.7-0.1-1.5-0.1-2.2-0.2l-0.7-0.1l-0.3,0l-0.3,0h-0.1c-0.2,0-0.4,0-0.6-0.1l-0.3,0l-0.3,0
		c-0.6-0.1-1.1-0.1-1.7-0.2l0.4,0.1c-1.2-0.2-2.4-0.3-3.5-0.3c-1.6-0.1-3.3-0.1-4.9-0.1l-1.8,0c-1.2,0-2.4,0-3.5-0.1
		c-0.8,0-1.6,0-2.4,0H216h-0.3h-0.3h-1c-0.4,0-0.8,0-1.2,0s-0.8,0-1.2,0s-0.8,0-1.3,0.1c-0.7,0-1.4,0.1-2,0.1h-0.3
		c-0.7,0-1.4,0-2.1-0.1c-0.9,0-1.9-0.1-2.8-0.1c-0.5,0-1.1,0-1.6,0c-2.3,0.1-4.4,0.2-6.5,0.2c-1.2,0-2.3,0.1-3.5,0.1l-0.2,0
		c-1.2,0-2.4,0.1-3.6,0.1c-2.6,0-4.9,0-7.1-0.1c-1.1,0-2.2-0.1-3.3-0.1h-0.2c-0.6,0-1.2,0-1.9,0l-0.2,0l-1,0c-0.4,0-0.8,0-1.2,0.1
		l-0.4,0c-0.7,0-1.4,0.1-2.1,0.1c-0.3,0-0.6,0-0.9,0h-0.5c-0.7,0-1.5,0-2.2,0c-0.7,0-1.4,0.1-2.2,0.1l-0.4,0c-0.4,0-0.7,0-1.1,0.1
		c-0.9,0-1.9,0.1-2.7,0.1h-0.3h-0.3h-0.3c-0.8,0-1.6,0-2.4,0l-0.5,0l-0.5,0h-0.7h-1l-0.9,0l-0.6,0c-0.9,0-1.8,0-2.7-0.1
		c-1.1,0-2.1-0.1-3.2-0.1h-0.5c-2.1,0-4.3,0.1-6.4,0.2l-0.2,0l-0.5,0l-1.4,0c-1.9,0.1-4,0.1-6.1,0.3l-1.1,0.1
		c-0.8,0.1-1.6,0.1-2.4,0.2c-1,0-1.9,0.1-2.9,0.1l-0.7,0c-1.1,0-2.2,0.1-3.3,0.2c-1.2,0.1-2.3,0.1-3.4,0.2c-0.4,0-0.9,0-1.3,0.1
		c-0.6,0-1.3,0.1-1.9,0.1c-0.5,0-0.8,0-1.2,0s-0.8,0-1.2,0c-0.3,0-0.5,0-0.8,0c-0.5,0-1,0-1.5-0.1l-0.2,0c-0.4,0-0.9-0.1-1.3-0.1
		c-0.5,0-1,0-1.5,0c-0.5,0-1.1,0-1.6,0l-0.8,0c-2,0-4-0.2-5.9-0.6c-1.2-0.3-2.4-0.5-3.3-0.6c-0.9-0.2-1.7-0.4-2.6-0.7l-0.7-0.2
		c-0.6-0.2-1.1-0.5-1.4-1.1l-0.2-0.2c-0.6-0.5-1.2-1-1.7-1.5c-0.2-0.2-0.3-0.4-0.5-0.6l-0.1-0.2c-0.2-0.3-0.5-0.6-0.7-0.8
		c-0.5-0.5-1-1.1-1.5-1.7c-0.4-0.5-0.8-0.9-1.2-1.4c-0.9-1.1-1.8-2.2-2.6-3.3c-0.5-0.7-1.1-1.6-1.6-2.4c-0.1-0.2-0.3-0.5-0.4-0.7
		l-0.1-0.1l-0.1-0.1c-0.1-0.1-0.2-0.3-0.2-0.4l-0.1-0.1l-0.1-0.1c-0.3-0.3-0.7-0.5-1-0.8l-0.7-0.6c-0.1,0-0.1-0.1-0.2-0.1
		c-0.4-0.2-0.9-0.3-1.3-0.4c-1.5-0.2-3.1-0.4-4.6-0.4l-0.2,0L71,5.2l-0.2,0c-1-0.1-2-0.1-3-0.2c-0.2,0-0.4,0-0.7,0
		c-0.3,0-0.6,0-0.9,0l-0.2,0H66l-0.2,0c-0.4,0-0.7,0-1,0h-0.2c-1.2,0-2.4-0.1-3.6-0.1l-0.6,0c-0.5,0-0.9-0.1-1.4-0.1
		c-0.3,0-0.6,0-0.9,0l-0.2,0c-0.2,0-0.5,0-0.7,0c-0.3,0-0.5,0-0.8,0c-1.4,0-2.8-0.1-4.1-0.1l-0.9,0l-0.8,0c-0.2,0-0.4,0-0.5,0
		c-0.4,0-0.7,0-1.1,0l-0.2,0h-0.2c-0.2,0-0.4,0-0.6,0h-0.1c-0.3,0-0.6,0-1,0c-0.4,0-0.8,0-1.2,0c-0.2,0-0.4,0-0.7,0
		c-0.5,0-1,0-1.5,0c-0.5,0-1,0-1.4-0.1C41.5,4.6,40.9,4.6,40.4,4.6L40.4,4.6z"/>
	<path class="st3" d="M231.9,34.3c-0.4,0-0.8,0-1.1,0c-0.6,0-1.1,0-1.7,0c-1.1,0-2,0-3,0.1l-0.6,0.1l-0.3,0.1l-0.3,0.1
		c-0.7,0.1-1.4,0.2-2.1,0.3c-0.5,0-1,0.1-1.7,0.1c-0.4,0-0.8,0-1.2,0l-0.4,0h-0.6l-0.6,0c-0.5,0-1.1,0-1.6,0l-0.4,0
		c-0.8,0-1.7,0.1-2.5,0.1s-1.6,0-2.3-0.1l-0.7,0c-0.5,0-1.1,0-1.6,0H209l-0.4,0l-0.6,0h-3.2c-0.8,0-1.7,0-2.5,0.1l-0.7,0.1l-0.6,0.1
		c-0.5,0-0.9,0.1-1.4,0.1c-0.4,0-0.7,0-1.1,0h-0.6l-0.6,0l-0.5,0l-0.5,0c-0.6,0-0.9,0-1.3,0h-0.3l-0.3,0l-0.3,0h-0.6
		c-1.3,0-2.4,0-3.5-0.1l-0.8,0l-0.3,0l-2.2-0.1c-0.6,0-1.2,0-1.9-0.1l-0.5,0l-0.9-0.1c-1.2-0.1-2.4-0.1-3.6-0.1c-1,0-2,0-3.1,0.1
		l-0.6,0l-0.6,0c-0.7,0-1.4,0.1-2.1,0.1c-0.3,0-0.6,0-0.8,0c-0.8,0-1.6,0-2.4,0l-2.5-0.1c-1.5-0.1-2.9-0.1-4.4-0.1l-2.1,0
		c-1.7,0-3.3,0-4.9-0.1h-0.9c-0.7,0-1.5,0-2.2,0c-0.8,0-1.5,0-2.2,0c-0.5,0-1.1,0-1.6,0c-1.9,0-3.7-0.1-5.5-0.1
		c-2.8,0-5.2,0.1-7.6,0.2c-0.7,0-1.5,0.1-2.6,0.1c-0.6,0-1.3,0-1.9,0c-0.8,0-1.5,0-2.2,0c-1.2,0-2.3,0-3.5,0.1l-0.4,0
		c-0.8,0-1.6,0.1-2.4,0.1c-0.3,0-0.7,0-1,0c-0.6,0-1.2,0-1.8,0h-0.3c-0.7,0-1.4,0-2.1,0l-0.7,0h-0.6c-1.4,0-2.7,0.1-4.1,0.1l-0.7,0
		l-2.4,0c-1.3,0-2.6,0-3.9,0h-2.3c-2.5,0-5.3,0-8,0.2c-0.3,0-0.7,0-1,0.1l-0.5,0l-0.7,0l-1.1,0l-1,0c-0.8,0-1.6,0.1-2.4,0.1l-1.2,0
		l-0.5,0l-0.6,0c-1.5,0-3,0-4.4,0.1c-0.6,0-1.2,0.1-1.8,0.1c-1.3,0-2.8,0.1-4.3,0.2l-0.6,0.1l-0.6,0.1l-0.6,0.1l-0.4,0
		c-0.3,0-0.5,0-0.8,0.1l-0.3,0l-0.6,0c-0.8,0.1-1.6,0.1-2.4,0.2c-2.3,0.2-4.4,0.4-6.3,0.4c-2.1,0.1-4.2,0.1-6.5,0.1
		c-1.6,0-3.2-0.1-4.7-0.2l-0.3,0l-1.9-0.1c-1-0.1-2-0.1-3-0.1c-0.3,0-0.7,0-1,0c-0.5,0-1.1,0-1.6,0l-0.7,0h-0.9
		c-1.2,0-2.4,0-3.7-0.1l-0.4,0L37,36.7h-0.5l-0.5,0c-0.7,0-1.5,0-2.2,0l-1.2,0c-0.5,0-1,0-1.5,0l-0.8,0l-1,0l-1.3,0h-1.2
		c-0.8,0-1.9,0-2.9-0.1l-0.4,0c-0.4,0-0.7,0-1.1-0.1l-0.4,0h-0.3c-0.3-0.1-0.6-0.1-0.8-0.1c-0.9,0-1.8,0.1-2.7,0.2l-0.3,0l-0.6,0.1
		l-0.5,0.1c-1,0.2-1.9,0.5-2.8,0.8c-0.2,0.1-0.4,0.1-0.5,0.1c-0.4,0-0.8-0.1-1.1-0.3c-0.2,0-0.3,0.1-0.4,0.1l-0.2,0.1
		c-0.4,0.2-0.8,0.3-1.2,0.5c-0.2,0.1-0.4,0.3-0.7,0.4l-0.5,0.3l-0.4,0.3l-0.3,0.3C8,40,7.7,40.6,7.4,41.3c-0.4,0.9-0.6,1.9-0.9,2.8
		l-0.1,0.6l-0.2,0.6c-0.3,0.8-0.5,1.6-0.6,2.4c0,0.4-0.1,0.8,0,1.2c0,0.2,0,0.3,0.1,0.5c0,0.2,0,0.4,0,0.6c0.1,0.4,0.1,0.8,0.1,1.1
		c0,0.2,0,0.5,0,0.7v0.3c0,0.6,0,1.2,0,1.7l0.1,0.3c0.1,0.5,0.2,1,0.2,1.5c0,0.4,0,0.8,0.1,1.2c0.1,0.9,0.1,1.8,0.2,2.8
		c0.1,0.6,0.1,1.1,0.1,1.7c0,0.7,0,1.1,0.1,1.4l0,0.4c0.1,1.1,0.1,2,0.1,2.9c0,0.3,0,0.6,0,0.9c0,0.7,0,1.3,0,2l0,0.3
		c0.1,0.8,0.1,1.6,0.1,2.4c0,0.6,0,1.1,0.1,1.7l0,0.3c0,0.3,0,0.6,0,1l0,0.4c0,0.8,0,1.6,0.1,2.4c0.1,0.5,0.1,1,0.1,1.4
		c0,0.2,0,0.4,0,0.7c0,0.2,0,0.5-0.1,0.7c0,0.1,0,0.2,0,0.3c0,0.3-0.1,0.6-0.1,0.9l0,0.5v0.4c0,0.3,0,0.6,0.1,0.9l0,0.5
		c0,0.3,0,0.6,0,0.8c0,0.5,0,0.9,0,1.3c0,0.4-0.1,0.9-0.2,1.3c-0.1,1.2-0.3,2.4-0.4,3.5l0,0.4l0,0.4c0,0.3,0,0.5,0,0.8
		c0,0.5-0.1,1-0.2,1.6l0,0.5l0,0.5l0,0.5l0,0.5l0,0.5c0,0.8,0,1.6,0.1,2.4c0.1,0.8,0.1,1.6,0.1,2.5l0,0.4c0,0.3,0,0.5,0,0.6
		c0,0.2,0,0.4,0,0.6c0,0.2,0,0.4,0,0.5l0,0.4c0,0.3,0,0.6,0,0.8l0.1,1.1l0,0.8l0,0.4c0,0.5,0,1,0,1.5c0.1,1.7,0.1,3.3,0.1,5.2l0,0.3
		c0,0.9-0.1,1.8-0.1,2.7l0,0.3c0,0.6-0.1,1.2-0.1,1.8l0,0.6l0,0.6c0,0.5,0,0.9,0,1.4c0,0.8,0,1.4-0.1,2c0,0.6,0,1.2,0,1.7
		c0,0.5,0,0.9,0,1.4l0,0.5l0,0.5l0,0.5c0,0.5,0,1,0,1.4v0.3l0,1.5c0,0.2,0,0.4,0,0.6c0,0.3,0,0.6,0,0.8c0,1.1,0,2.3-0.1,3.4
		c0,1.1-0.1,2.2-0.1,3.6l0,0.5l0,0.5c0.1,0.8,0.1,1.5,0,2.3c-0.1,1.2-0.1,2.4,0,3.6c0.1,1.1,0.1,2.1,0.1,3.2c0,1,0,2,0.1,2.9
		c0.1,1,0.2,2.1,0.2,3.3c0,0.4,0,0.8,0,1.2c0,0.6,0,1.3,0,1.9l0.1,1.3c0.1,1.7,0.2,3.6,0.1,5.5c0,0.7,0,1.5,0,2.3v0.9
		c0,0.3,0,0.6,0,0.9l0,0.3l0,0.3c0,0.6-0.1,1.2,0,1.8l0,0.9l0,0.3l0,0.3c0,0.6,0,1.2,0,1.8l-0.1,1.9l0,1.1c0,0.8,0,1.6,0.1,2.3
		l0,0.5l0,0.4c0,0.5,0.1,1,0.1,1.4c0,0.4,0,0.7,0,0.9c0,0.4,0,0.6,0,0.9c0,0.7,0,1.4,0,2l0,0.4c0,0.2,0,0.4,0,0.6c0,0.3,0,0.5,0,0.7
		c0,0.4-0.1,0.8-0.1,1.2c-0.1,1.1-0.1,2.3-0.1,3.4l0.1,1.1l0,0.5c0,0.2,0,0.4,0,0.6s0,0.4,0,0.6c0,0.3,0,0.7,0,1l0.3,0.3
		c0.2,0.2,0.4,0.5,0.5,0.8c0.2,0.2,0.3,0.5,0.4,0.8c0.2,0.2,0.3,0.4,0.4,0.7l0.2,0.3c0.2,0.2,0.4,0.5,0.6,0.8l0.4,0.3l0.2,0.1
		c0.3,0.1,0.6,0.3,1,0.4l0.3,0l0,0c0.2,0,0.3,0.1,0.5,0.1c0.2,0,0.4,0,0.5,0c0.3,0.1,0.4,0.1,0.5,0.1c0.4,0,0.8,0,1.2,0
		c0.2,0,0.4,0,0.6,0.1l0.5,0.1c0.6,0,1.1,0,1.7,0.1l0.3,0c0.7,0.1,1.4,0.2,2.1,0.3c0.2,0,0.3,0,0.5,0c0.2,0,0.4,0,0.6,0
		c0.3,0,0.5,0,0.8,0.1l0.4,0.1c0.3,0.1,0.7,0.1,1.1,0.1l0.3,0l0.3,0.1c0.3,0,0.7-0.1,1-0.1c0.2,0,0.4,0,0.6,0l0.3,0
		c0.7-0.1,1.3-0.1,1.8-0.1c0.3,0,0.5,0,0.7,0l0.3,0c0.8-0.1,1.5-0.2,2.3-0.2c0.3,0,0.7,0,1,0.1l0.4,0l0.4,0c0.5,0,0.7,0,1,0.1
		c0.3,0,0.7,0,1.1,0h0.4l0.7-0.1c0.5,0,1-0.1,1.5-0.1c0.2,0,0.4,0,0.6,0c0.8,0.1,1.5,0.1,2.2,0.1c0.2,0,0.4,0,0.6,0
		c0.4,0,0.8,0,1.3,0.1c0.5,0,1,0.1,1.8,0.1l0.4,0c0.3,0,0.6,0,0.9,0l0,0c0.2,0,0.4,0,0.6,0c0.2,0,0.3,0,0.5,0l0.7,0.1l0.5,0
		c0.9,0,1.8,0.1,2.7,0.1c0.9,0.1,1.9,0.1,2.8,0.2c0.7,0.1,1.4,0.1,2.3,0.1h0.5l0.4,0l0.4,0c0.7,0,1-0.1,1.4-0.1c0.4,0,0.8,0,1.2,0
		h0.7c0.6,0,1.3,0,1.9-0.1c0.7,0,1.5-0.1,2.2-0.1c0.3,0,0.6-0.1,0.9-0.1c0.4-0.1,0.8-0.1,1.2-0.1c0.4,0,0.7,0,1,0c0.6,0,1.1,0,1.7,0
		c0.7,0,1.1,0,1.5,0h0.3c0.5,0,0.9,0,1.4,0c0.4,0,0.8,0,1.2,0h1.9l0.4,0c0.7,0,1.4-0.1,2.1-0.1c0.9-0.1,1.8-0.1,2.5-0.1
		c0.4,0,0.8-0.1,1.1-0.1l0.3-0.1c0.4-0.1,0.8-0.1,1.1-0.1c0.9-0.1,1.8-0.1,2.7-0.1l0.7,0c0.8,0,1.6-0.1,2.4-0.1c0.6,0,1.2,0,1.8,0
		H90l0.6,0c0.4,0,0.7,0,1.1,0s0.7,0,1-0.1l0.5,0l0.8-0.1c0.8-0.1,1.5-0.1,2.2-0.1l1.3,0h1.1l0.5,0l0.5,0c0.7,0,1.4-0.1,2.1-0.1
		l0.5,0l0.5,0c0.3,0,0.7,0,1,0c0.5,0,0.9,0,1.4,0.1l0.3,0c1.3,0.1,2.2,0.1,3.1,0.1l0.9,0l0.6,0l0.6,0c1-0.1,1.8-0.1,2.8-0.1
		c0.9,0,1.8-0.1,2.6-0.2c0.7-0.1,1.6-0.2,2.5-0.3c1.2-0.1,2.5-0.1,3.7-0.1c0.6,0,1.2,0,1.8,0l0.9,0c0.4,0,0.9,0,1.3-0.1l0.5,0
		c0.6,0,1.1-0.1,1.7-0.1h0.3c0.3,0,0.7,0,1,0s0.7,0,1,0l0.4,0l0.4,0l0.3,0c0.8-0.1,1.4-0.1,2.1-0.1c0.4,0,0.8,0,1.2,0.1
		c1.4,0.1,2.8,0.2,4.2,0.2h0.6c0.7,0,1.4,0,2.1,0h1.1c0.4,0,0.9,0,1.3,0c0.5,0,1,0,1.4,0c0.7,0,1.4,0,2.2,0.1
		c1.1,0.1,2.3,0.2,3.4,0.4c0.7,0.1,1.4,0.2,2.2,0.2h0.3c0.6,0,1.1,0,1.6,0c0.8,0.1,1.7,0.1,2.8,0.1h0.6c0.7,0,1.4-0.1,2.2-0.1h0.6
		c0.4,0,0.8,0,1.3,0c0.8,0,1.7,0,2.5,0.1c0.7,0.1,1.3,0.2,2,0.2c0.7,0.1,1.4,0.2,2.2,0.3s1.5,0.1,2.3,0.2l0.3,0
		c0.6,0,1.1,0.1,1.7,0.1c1.2,0.1,2.4,0.2,3.6,0.2l1.2,0l0.3,0l0.6,0c0.4,0,0.8,0,1.3,0c0.2,0,0.3,0,0.5,0c0.2,0,0.5,0,0.7,0.1
		l0.8,0.1l0.5,0l0.5,0l0.5,0c0.5,0,1,0.1,1.4,0.1l0.7,0h0.9h0.9l0.5,0l0.7,0c0.5,0,1,0,1.4,0h0.5c0.3,0,0.6,0,0.9,0l0.3,0h0.4l0.7,0
		c0.8-0.1,1.6-0.1,2.3-0.1l0.5,0h0.5c0.3,0,0.6,0,0.9,0c1,0,2,0,3,0.1c0.7,0.1,1.4,0.1,2.3,0.1c0.4,0,0.7,0,1,0c0.5,0,0.9,0,1.4,0
		c0.4,0,0.7,0,1.1,0c0.5,0,1.1,0,1.6,0l1.2,0h0.6l0.6,0c0.6-0.1,1.1-0.1,1.7-0.1l0.5,0c0.6,0.1,1.1,0.1,1.7,0.1h0.3
		c0.3,0,0.6,0,0.9-0.1l0.4,0c0.5,0,1-0.1,1.4-0.1c0.2,0,0.5,0,0.7,0c0.3,0,0.6,0,0.9,0.1c0.6,0.1,1.2,0.1,1.8,0.1l0.6-0.1
		c0.3,0,0.7-0.1,1-0.1c0.3,0,0.5,0,0.8,0h0.7l0.7,0l0.6,0l0.9,0c0.4,0,0.7-0.1,1.1-0.1l0.5-0.1c1.3-0.2,2.3-0.3,3.2-0.4
		c0.5-0.1,0.9-0.1,1.4-0.1c0.7,0,1.3-0.1,1.9-0.1c1.1-0.1,2.2-0.2,3.4-0.2c0.4,0,0.8-0.1,1.2-0.1l0.3-0.1c0.5,0,0.7,0,1,0
		c0.5,0,1,0,1.5,0h0.9l0.6,0c0.6,0,1.2-0.1,1.7-0.1c0.7-0.1,1.4-0.2,2-0.2c0.6,0,1.3-0.1,1.9-0.2c0.4-0.1,0.7-0.2,1.1-0.3
		c0.1,0,0.3-0.1,0.4-0.2l0.3-0.2c0.1-0.1,0.2-0.1,0.3-0.2l0.2-0.3c0.2-0.3,0.4-0.5,0.6-0.8l0.1-0.4c0-0.4-0.1-0.7-0.1-1.1
		c-0.1-0.9,0.3-1.8,1-2.3l0.1-0.6l0-0.3l0-0.3c0-0.4,0.1-0.8,0.1-1.2l0.1-0.6l0-0.6l0.1-0.7c0-0.5,0.1-1,0.1-1.5
		c0-0.2,0.1-0.5,0.1-0.7l0.1-0.6c0.2-1.1,0.2-2.1,0.2-3.2l0-0.4l0-0.4l-0.1-1.2c0-0.4,0-0.8,0-1.2l0-0.4v-1.1c0-0.5-0.1-1-0.1-1.6
		l-0.1-0.9c-0.1-0.9-0.1-1.9-0.1-2.9l0-0.4c0-1,0-2.1,0-3.1s0-2.1,0-3.1c0-0.8,0-1.5,0-2.3l0-1.1c0-0.7,0-1.4,0-2.1l0-1.1
		c0-2,0-4-0.1-6.2c0-0.7-0.1-1.4-0.1-2.1l0-0.7l0-1.1c0-0.7-0.1-1.4,0-2.1c0-2.3,0-4.4-0.1-6.5c-0.1-1.9,0-3.8,0.1-6.6
		c0.1-1.1,0.1-2.2,0.1-3.3c0-0.4,0-0.7,0-1.1l0-0.4c0-0.7,0-1.3,0.1-1.9c0.1-1.9,0.1-4,0.1-6.3c-0.1-1.5-0.1-3,0-4.5
		c0.1-1.7,0.2-3.1,0.2-4.6c0-1.6,0-3.2,0-4.8c0-1.4,0-2.5,0-3.7c0-0.9,0.1-1.9,0.1-2.7l0-0.5l0.1-0.8l0.1-0.8l0.1-0.8l0.1-0.9
		c0.1-1.4,0.1-2.8,0.2-4l0-0.7l0-0.7l0-0.7l0-0.7c0-0.9,0.1-1.8,0.1-2.7c0-1.2,0.1-2.4,0.1-3.6c0.1-1.1,0.1-2.3,0.2-3.4
		c0.1-1,0.1-1.9,0-2.9c0-0.4-0.1-0.8-0.1-1.2l0-0.6l0-0.4c-0.1-0.8-0.1-1.6-0.2-2.3c0-1.1,0-2.1,0.1-3.2l0.1-1.1
		c0.1-1.2,0.1-2.5,0.1-3.8v-0.5l0-0.5l0-0.3c0-0.7,0-1.4,0-2.1c0-0.6-0.1-1.3-0.2-1.9c-0.1-0.4-0.1-0.8-0.1-1.2
		c-0.1-1-0.1-2.1-0.2-3l0-0.5l0-0.8l0-0.7v-0.3l0-0.3c0-0.6-0.1-1.3-0.1-1.9c0-0.3,0-0.6-0.1-0.8l-0.1-0.8c0-0.7-0.1-1.2-0.1-1.7
		c0-0.6-0.1-1.1-0.2-1.7l-0.1-0.3c-0.1-0.3-0.1-0.5-0.2-0.6l0-0.3l0-0.3c-0.1-0.9-0.2-1.8-0.3-2.7l-0.1-0.3
		c-0.1-0.8-0.2-1.5-0.3-2.3l-0.1-0.4c-0.1-0.7-0.2-1.3-0.4-1.8c0-0.1-0.1-0.2-0.1-0.4l-0.3-0.4c-0.2-0.2-0.3-0.4-0.4-0.6
		c-0.3-0.4-0.6-0.7-0.9-1l-0.4-0.4l0.1,0.3c-0.1-0.2-0.3-0.4-0.5-0.6l-0.5-0.5c-0.1-0.1-0.3-0.2-0.4-0.3c-0.2-0.1-0.4-0.1-0.6-0.2
		l-0.3-0.1h-0.2c-0.2,0-0.4,0-0.6-0.1c-0.2-0.1-0.5-0.1-0.7-0.2l-0.4,0l-0.3,0l-0.3,0h-0.5l-0.3,0l-0.4,0l-0.3,0c-0.3,0-0.6,0-0.9,0
		l-0.7,0h-0.7l-0.5,0c-0.4,0-0.9,0-1.3,0c-0.3,0-0.6,0-0.9,0l-0.3,0c-0.3,0-0.6,0-0.8,0l-0.4,0c-0.2,0-0.4,0-0.6,0
		c-0.2,0-0.3,0-0.5,0c-0.5,0-0.9-0.1-1.4-0.1l-0.5-0.1c-0.3,0-0.6-0.1-0.9-0.1C232.7,34.4,232.3,34.3,231.9,34.3L231.9,34.3z"/>
</g>
<g>
	<path class="st4" d="M65,213.2v21.9h-2.9v-17.5l-7,17.5h-2.6l-7-17.4v17.4h-2.9v-21.9h3.4l7.8,18.4l7.6-18.4H65z"/>
	<path class="st4" d="M69.7,211.4c0.8-0.7,2-0.7,2.8,0c0.7,0.7,0.7,1.8,0,2.5c0,0,0,0,0,0c-0.8,0.7-2,0.7-2.8,0
		C68.9,213.2,68.9,212.1,69.7,211.4C69.6,211.4,69.6,211.4,69.7,211.4z M72.5,217.7v17.4h-2.9v-17.4L72.5,217.7z"/>
	<path class="st4" d="M88.5,218.8c1.2,0.8,2,2,2.4,3.4v-4.4h2.9v17.4H91v-4.4c-0.4,1.4-1.3,2.5-2.4,3.4c-1.3,0.9-2.8,1.3-4.3,1.3
		c-1.4,0-2.9-0.3-4.1-1.1c-1.2-0.7-2.2-1.8-2.8-3.1c-1.4-3-1.4-6.5,0-9.5c0.6-1.3,1.6-2.4,2.8-3.1c1.2-0.7,2.7-1.1,4.1-1.1
		C85.8,217.5,87.3,217.9,88.5,218.8z M80.8,221.8c-2.1,2.7-2.1,6.6,0,9.3c1.1,1.1,2.7,1.8,4.3,1.7c1.1,0,2.1-0.3,3-0.8
		c0.9-0.5,1.6-1.3,2.1-2.2c0.5-1,0.8-2.2,0.8-3.3c0-1.2-0.2-2.3-0.8-3.4c-0.5-0.9-1.2-1.7-2.1-2.2c-0.9-0.5-2-0.8-3-0.8
		C83.5,220,81.9,220.6,80.8,221.8L80.8,221.8z"/>
	<path class="st4" d="M118.8,212.8v2.3h-9.7v7.7h8.2v2.2h-8.2v10h-2.9v-22.3L118.8,212.8z"/>
	<path class="st4" d="M134.6,218.6c1.3,0.7,2.4,1.8,3.1,3.1c1.5,3,1.5,6.5,0,9.5c-0.7,1.3-1.8,2.4-3.1,3.1c-2.8,1.4-6.1,1.4-8.9,0
		c-1.3-0.7-2.4-1.8-3.1-3.1c-1.5-3-1.5-6.5,0-9.5c0.7-1.3,1.8-2.4,3.1-3.1C128.5,217.2,131.8,217.2,134.6,218.6z M127.3,220.8
		c-0.9,0.5-1.6,1.2-2.1,2.1c-1.1,2.2-1.1,4.8,0,7.1c0.5,0.9,1.2,1.6,2.1,2.1c1.8,0.9,3.9,0.9,5.7,0c0.9-0.5,1.6-1.2,2.1-2.1
		c1.1-2.2,1.1-4.8,0-7.1c-0.5-0.9-1.2-1.6-2.1-2.1C131.2,219.8,129.1,219.8,127.3,220.8z"/>
	<path class="st4" d="M154.9,218.6c1.3,0.7,2.4,1.8,3.1,3.1c1.5,3,1.5,6.5,0,9.5c-0.7,1.3-1.8,2.4-3.1,3.1c-2.8,1.4-6.1,1.4-8.9,0
		c-1.3-0.7-2.4-1.8-3.1-3.1c-1.5-3-1.5-6.5,0-9.5c0.7-1.3,1.8-2.4,3.1-3.1C148.8,217.2,152.1,217.2,154.9,218.6z M147.6,220.8
		c-0.9,0.5-1.6,1.2-2.1,2.1c-1.1,2.2-1.1,4.8,0,7.1c0.5,0.9,1.2,1.6,2.1,2.1c1.8,0.9,3.9,0.9,5.7,0c0.9-0.5,1.6-1.2,2.1-2.1
		c1.1-2.2,1.1-4.8,0-7.1c-0.5-0.9-1.2-1.6-2.1-2.1C151.5,219.8,149.4,219.8,147.6,220.8L147.6,220.8z"/>
	<path class="st4" d="M171.2,232.6v2.5H169c-1.4,0.1-2.9-0.3-4-1.3c-1-1.2-1.5-2.7-1.3-4.2v-9.4h-2.6v-2.5h2.6v-4.3h2.9v4.3h4.5v2.5
		h-4.5v9.4c-0.1,0.8,0.1,1.6,0.6,2.3c0.6,0.5,1.4,0.7,2.1,0.6L171.2,232.6z"/>
	<path class="st4" d="M186.1,218.8c1.2,0.8,2,2,2.4,3.4v-4.4h2.9v17.4h-2.9v-4.4c-0.4,1.4-1.3,2.5-2.4,3.4c-1.3,0.9-2.8,1.3-4.3,1.3
		c-1.4,0-2.9-0.3-4.1-1.1c-1.2-0.7-2.2-1.8-2.8-3.1c-1.4-3-1.4-6.5,0-9.5c0.6-1.3,1.6-2.4,2.8-3.1c1.2-0.7,2.7-1.1,4.1-1.1
		C183.3,217.5,184.8,217.9,186.1,218.8z M178.4,221.8c-2.1,2.7-2.1,6.6,0,9.3c1.1,1.1,2.7,1.8,4.3,1.7c1.1,0,2.1-0.3,3-0.8
		c0.9-0.5,1.6-1.3,2.1-2.2c0.5-1,0.8-2.2,0.8-3.3c0-1.2-0.2-2.3-0.8-3.4c-0.5-0.9-1.2-1.7-2.1-2.2c-0.9-0.5-2-0.8-3-0.8
		C181,220,179.5,220.6,178.4,221.8L178.4,221.8z"/>
	<path class="st4" d="M207.4,218.8c1.2,0.8,2,2,2.4,3.4v-4.4h2.9v17.6c0,1.5-0.3,3-1,4.3c-0.7,1.2-1.6,2.2-2.8,2.9
		c-1.3,0.7-2.8,1.1-4.3,1c-2,0.1-4.1-0.5-5.7-1.7c-1.5-1.1-2.5-2.7-2.8-4.6h2.8c0.3,1.1,1,2.1,1.9,2.7c1.1,0.7,2.3,1,3.6,1
		c1.4,0,2.8-0.5,3.9-1.5c1.1-1.1,1.6-2.6,1.5-4.2v-4.7c-0.4,1.4-1.3,2.5-2.4,3.4c-1.3,0.9-2.8,1.3-4.3,1.3c-1.4,0-2.9-0.3-4.1-1.1
		c-1.2-0.7-2.2-1.8-2.8-3.1c-1.4-3-1.4-6.5,0-9.5c0.6-1.3,1.6-2.4,2.8-3.1c1.2-0.7,2.7-1.1,4.1-1.1
		C204.6,217.5,206.1,217.9,207.4,218.8z M199.7,221.8c-2.1,2.7-2.1,6.6,0,9.3c1.1,1.1,2.7,1.8,4.3,1.7c1.1,0,2.1-0.3,3-0.8
		c0.9-0.5,1.6-1.3,2.1-2.2c0.5-1,0.8-2.2,0.8-3.3c0-1.2-0.2-2.3-0.8-3.4c-0.5-0.9-1.2-1.7-2.1-2.2c-0.9-0.5-2-0.8-3-0.8
		C202.3,220,200.8,220.6,199.7,221.8L199.7,221.8z"/>
	<path class="st4" d="M233.1,227h-13.9c-0.1,1.7,0.5,3.3,1.7,4.5c1.1,1,2.5,1.5,3.9,1.5c1.2,0,2.5-0.3,3.5-1.1
		c0.9-0.7,1.5-1.7,1.7-2.8h3.1c-0.4,2.4-2,4.5-4.2,5.4c-1.2,0.5-2.6,0.8-3.9,0.8c-1.5,0-3.1-0.3-4.4-1.1c-1.3-0.7-2.3-1.8-3-3.1
		c-1.5-3-1.5-6.5,0-9.5c0.7-1.3,1.7-2.4,3-3.1c1.4-0.7,2.9-1.1,4.4-1.1c1.5,0,3.1,0.3,4.4,1.1c1.2,0.7,2.2,1.7,2.9,2.9
		c0.7,1.2,1,2.6,1,4C233.3,226,233.2,226.5,233.1,227z M229.7,222.4c-0.5-0.8-1.1-1.5-2-1.9c-0.9-0.4-1.8-0.6-2.7-0.6
		c-1.5,0-2.9,0.5-4,1.5c-1.1,1.1-1.8,2.7-1.7,4.3h11.1C230.4,224.5,230.2,223.4,229.7,222.4z"/>
</g>
</svg>
