<svg xmlns="http://www.w3.org/2000/svg" width="159.898" height="159.898" viewBox="0 0 159.898 159.898">
  <defs>
    <style>
      .a {
        fill: #48578c;
        stroke: #bbbedb;
        stroke-width: 3px;
      }

      .a, .b {
        stroke-miterlimit: 10;
      }

      .b {
        fill: #2d3064;
        stroke: #bcbfdb;
      }

      .c {
        fill: #fff;
      }
    </style>
  </defs>
  <g>
    <rect class="a" x="1.5" y="1.5" width="156.898" height="156.898" rx="24.992"/>
    <rect class="b" x="11.489" y="60.65" width="43.032" height="43.032" rx="6.851"/>
    <g>
      <rect class="b" x="10.475" y="13.448" width="43.032" height="43.032" rx="6.851"/>
      <path class="c" d="M46.608,34.26l-.069-.446V33.8l-.051-.326c0-.069-.017-.138-.017-.189-.017-.1-.017-.206-.035-.309h0v-.086l-.068-.4c0-.034-.017-.068-.017-.1h0l-.052-.274-.017-.052-.069-.343-.068-.395-.138-.481c-.017-.068-.051-.137-.068-.206a7.254,7.254,0,0,0-.275-.789l-.051-.155v-.017l-.155-.394-.7-1.562c-.12-.241-.257-.447-.377-.653l-.035-.051L44.325,27c-.051-.069-.1-.155-.154-.241l-.137-.206-.018-.017-.549-.686-.051-.052-.241-.292c-.051-.051-.085-.1-.12-.137a.817.817,0,0,0-.12-.137c-.154-.172-.343-.343-.515-.515l-.686-.549-.55-.412a5.556,5.556,0,0,0-.515-.361l-.566-.326a5.667,5.667,0,0,0-.7-.309l-.291-.137h-.035l-.343-.155h-.017l-.069-.034.017.017-.429-.171-.034-.017c-.1-.052-.206-.086-.326-.138l-.326-.1h-.035l-.051-.017-.138-.034a1.344,1.344,0,0,1-.137-.035l-.068-.017-.395-.086-.275-.085H36.43l-.052-.018a1.8,1.8,0,0,0-.291-.068H36.07L36,21.645l-.395-.069-.172-.034-.188-.035-.241-.12h-.068l-.1-.034-.172-.052-.395-.051h-.085a.84.84,0,0,1-.206-.017l-.412-.052c-.138-.017-.241,0-.4-.017h-.361a2.363,2.363,0,0,0-.326.034h-.051c-.069,0-.155.018-.24.018a1.52,1.52,0,0,0-.275.034h-.172a1.332,1.332,0,0,0-.257.034l-.138.035h-.017l-.188.051-.172.034h.034l-.1.018h-.017l-.154.017-.069.017h-.017l-.138.034-.085.017-.069.017H30.3l-.051.018a.762.762,0,0,0-.086.017l-.051.017-.155.034c-.086.017-.189.052-.257.069l-.069.017c-.086.034-.189.052-.292.086l-.1.034c-.068.017-.137.052-.206.069l-.017.034-.343.155-.069.086c-.068.051-.154.085-.24.137l-.069.034H28.26l-.309.12-.051.017-.035.018h-.017a1.351,1.351,0,0,0-.24.085,5.8,5.8,0,0,0-.755.309l-.258.138a.989.989,0,0,1-.189.086h-.017l-.086.034a4.4,4.4,0,0,0-.515.326l-.034.017-.275.189-.223.154-.051.035-.412.292-.017.017-.035.017.018-.017c-.1.086-.206.154-.309.257a1.8,1.8,0,0,0-.189.172l-.618.618c-.189.206-.395.394-.584.566l-.549.549a6.994,6.994,0,0,0-.446.55h0l-.069.1c-.154.188-.274.394-.412.583v.017a3.992,3.992,0,0,0-.36.6c-.052.069-.086.155-.137.223v.017a2.97,2.97,0,0,0-.224.395l-.171.412-.052.137-.086.223-.068.172c-.086.189-.155.395-.223.584a1.981,1.981,0,0,0-.086.309l-.017.034v.017l-.12.412v.086l-.018.051a1.466,1.466,0,0,0-.085.292l-.052.258v.034c0,.034-.017.069-.017.1a4.989,4.989,0,0,0-.086.875l-.017.824V35.6l.017.4v.223l.017.137v.069l.069.532v.017l.12.789.086.412c0,.035.017.069.017.121v.051l.051.275.052.24v.017l.034.172.052.24v.017a.411.411,0,0,0,.034.138l.206.755.1.274a1.876,1.876,0,0,0,.137.326v.018l.206.463.018.052.017.017.154.309.275.618.154.309a1.733,1.733,0,0,0,.172.257,1.819,1.819,0,0,0,.137.189v.017a2.331,2.331,0,0,1,.206.309c.069.12.12.172.172.257a1.5,1.5,0,0,0,.154.189h0l.086.1.172.223v.017l.034.035.189.257.034.052c.052.051.086.12.138.171l.137.155.257.274.275.275.189.172.1.1c.051.034.086.085.137.12h0l.017.017.155.137c.1.086.188.189.291.258s.241.189.395.309l.172.12.017.017.137.1.035.017.618.412a2.581,2.581,0,0,0,.377.189l.464.206.755.274.789.224.79.171h.086l.291.069.121.034h.068l.035.017h.034l.12.035.069.017.326.069.515.068.515.052h.051l.258.034.274.034.532.069,1.545.051h.189a5.271,5.271,0,0,0,.892-.085l.5-.1h.034l.069-.017h.017l.189-.035c.12-.017.24-.051.4-.086l.223-.051h.051l.121-.017.738-.189.1-.034.618-.189.308-.12.069-.035.464-.188a2.345,2.345,0,0,0,.36-.172l.326-.172.052-.017a5.915,5.915,0,0,0,.686-.446l.309-.24h-.017l.7-.515.429-.327.12-.1a1.257,1.257,0,0,1,.189-.154l.635-.532a1.626,1.626,0,0,0,.171-.172h0l.086-.1.189-.206.086-.085a6.63,6.63,0,0,0,.566-.653l.481-.669c.137-.189.274-.429.446-.687a7.907,7.907,0,0,0,.412-.755l.052-.1v-.017c.034-.086.085-.172.137-.275l.206-.463a4.817,4.817,0,0,0,.24-.7h0l.343-1.218.241-1.356.1-.876a3.081,3.081,0,0,1,.034-.394l.034-.4.017-.755-.034-.79ZM30.732,29.729l.034-.395a.437.437,0,0,1,.36-.395c0-.017.018-.017.018-.034h1.1a3.366,3.366,0,0,1,.412.034l.481.017c.12,0,.223.035.343.035a2.934,2.934,0,0,0,.395.017,3.081,3.081,0,0,1,.394.034,4.237,4.237,0,0,0,.481.017h.1a.62.62,0,0,1,.172.018,1.219,1.219,0,0,0,.24.017,1.684,1.684,0,0,1,.292.017h.1a.325.325,0,0,1,.034.137c0,.035.017.086.017.12,0,.12.017.241.017.344v.326c0,.171.017.343,0,.515a4.2,4.2,0,0,0,0,.463v.017a8.469,8.469,0,0,1-.051.927c0,.086-.017.172-.017.258a.9.9,0,0,1-.052.308.521.521,0,0,1-.532.327l-.154-.018c-.1,0-.189-.017-.309-.017h-.344c-.188,0-.412-.034-.6-.051l-.635-.035c-.189-.017-.395-.017-.584-.017h-.515c-.12,0-.24-.017-.378-.017h-.343a.436.436,0,0,1-.309-.172.581.581,0,0,1-.12-.377v-.155a1.047,1.047,0,0,0-.034-.206,4.363,4.363,0,0,1-.017-.48l.017-.738c0-.069-.017-.12-.017-.189v-.275c0-.085-.018-.154-.018-.24a.208.208,0,0,0,.018-.137Zm8.479,5.389v1.888a1.317,1.317,0,0,0,.017.258v1.064a.855.855,0,0,0,.017.189c0,.051.017.1.017.154v.034a2.108,2.108,0,0,1,.017.327v.034c0,.051-.017.1-.017.154v.515a2.339,2.339,0,0,1-.017.344c0,.017-.017.051-.017.068v.241a.432.432,0,0,1-.275.532l-.069.017a.606.606,0,0,1-.24.051H37.8a2.1,2.1,0,0,1-.326-.017h-.12a2.1,2.1,0,0,0-.326.017l-.447.035c-.085,0-.188.017-.274.017l-.12.017a2.106,2.106,0,0,1-.344.017H35.64l-.411.017c-.1,0-.189.017-.292.017H33.684c-.138,0-.275-.017-.412-.017L33,41.074h-.068c-.138,0-.292-.017-.43-.017l-.223-.017a4.968,4.968,0,0,1-.515-.035l-.394-.034h-.035l-.188-.017-.241-.017H29.461l-.514-.035-.515-.051h-.1l-.1.017h-.12a.483.483,0,0,1-.155-.017h-.086a.5.5,0,0,1-.309-.086.451.451,0,0,1-.394-.48V38.654a2.149,2.149,0,0,1,0-.481v-.446l.017-.36v-.618a2.8,2.8,0,0,1,0-.378,1.672,1.672,0,0,0,0-.292V34.62a1.027,1.027,0,0,1,.017-.394.4.4,0,0,1,.274-.275.745.745,0,0,1,.189-.034l1.03-.035h.532a3.648,3.648,0,0,1,.429.035l-.068-.052c.1.017.223.017.326.035h.051l.206.017.137.017a3.079,3.079,0,0,0,.395.017h.275a.484.484,0,0,1,.429.258.892.892,0,0,1,.069.188v.086a1.909,1.909,0,0,1,.034.309V35c0,.034.017.069.017.1a.882.882,0,0,1,.052.292.554.554,0,0,1-.018.171v.052a1.167,1.167,0,0,1-.034.24l-.034.412a.537.537,0,0,1,.017.172v.223h.206c.189.017.378.017.549.017s.343.017.515.034c.086.018.189.018.275.035.188.017.343.017.48.017h1.013l.36.017.018-.137v-.429l.068-.447.017-.051a1.919,1.919,0,0,1-.034-.326v-.275c0-.068-.017-.137-.017-.223v-.051a.218.218,0,0,0-.017-.1c-.017-.035,0-.035,0-.069v-.034a.3.3,0,0,1-.017-.121.277.277,0,0,1,.017-.205l.017-.035a.316.316,0,0,1,.12-.171l.017-.018a.374.374,0,0,1,.1-.068.849.849,0,0,1,.361-.086,2.8,2.8,0,0,1,.377-.017H36.5l.394-.017a3.713,3.713,0,0,1,.447-.018H37.6l.137.018a1.151,1.151,0,0,0,.241.017h.051a1.884,1.884,0,0,1,.309-.017H38.4a.475.475,0,0,1,.223.034h.12a.5.5,0,0,1,.172.069l.034.017a.5.5,0,0,1,.172.309V34.4l.034.206v.017c.017.052.017.1.034.155v.275l.018.068ZM18.065,38.311c.017-.052.017-.1.034-.172.017-.051.017-.12.034-.189v-.171l-.051-.206c-.034-.069-.052-.138-.086-.206a2.3,2.3,0,0,0-.172-.275l-.051-.069-.1-.1a.3.3,0,0,1-.086-.068l-.1-.052-.137-.051a1.568,1.568,0,0,0-.395-.069c-.086,0-.172-.017-.257-.017h-.086a1,1,0,0,0-.378.086,1.108,1.108,0,0,0-.549.5.341.341,0,0,0-.069.137.974.974,0,0,0-.068.206l-.052.154a2.779,2.779,0,0,0-.051.4,2.1,2.1,0,0,0,.017.326,1.258,1.258,0,0,0,.068.429,1.279,1.279,0,0,0,.224.361l.257.189a1.207,1.207,0,0,0,.343.137,1.507,1.507,0,0,0,.395.017,1.746,1.746,0,0,0,.326-.086l.309-.154a1.136,1.136,0,0,0,.309-.326,2.968,2.968,0,0,0,.292-.567.353.353,0,0,0,.086-.154ZM19.438,41.8a1.415,1.415,0,0,0-.206-.137,1.248,1.248,0,0,0-.361-.12.452.452,0,0,0-.154-.018.871.871,0,0,0-.206.035h0a.583.583,0,0,0-.292.188,1.078,1.078,0,0,0-.24.309,1,1,0,0,0-.069.241c0,.017-.017.051-.017.068a.835.835,0,0,0,.034.412,1.1,1.1,0,0,0,.086.206,1.4,1.4,0,0,0,.137.189.9.9,0,0,0,.155.12c.017.017.051.035.069.052l.188.086.069.017c.052.017.1.017.155.034a1.068,1.068,0,0,0,.24-.017.642.642,0,0,0,.189-.086.166.166,0,0,0,.085-.069.6.6,0,0,0,.172-.188c.017-.035.034-.052.052-.086a.9.9,0,0,0,.051-.12.811.811,0,0,0,.017-.086.74.74,0,0,0,.035-.189,1.115,1.115,0,0,0-.018-.532.618.618,0,0,0-.171-.309Zm-3.279-.378a.451.451,0,0,0-.1-.085.273.273,0,0,0-.121-.069c-.034-.017-.085-.034-.12-.052a.294.294,0,0,0-.12-.017h-.1a.342.342,0,0,0-.189.052c-.034.017-.051.034-.086.051a.285.285,0,0,0-.12.069,1.14,1.14,0,0,0-.206.292l-.051.154v.223a.81.81,0,0,0,.051.292.566.566,0,0,0,.086.172.541.541,0,0,0,.189.154,1.007,1.007,0,0,0,.4.086.752.752,0,0,0,.189-.052.447.447,0,0,0,.171-.1.99.99,0,0,0,.189-.188.968.968,0,0,0,.12-.275.325.325,0,0,0,.034-.137V41.8a.717.717,0,0,0-.068-.257.312.312,0,0,1-.138-.121Z"/>
    </g>
    <g>
      <rect class="b" x="58.663" y="14.297" width="43.032" height="43.032" rx="6.851"/>
      <path class="c" d="M79.107,22.769a.588.588,0,0,0-.172.017l-.275.034-.068.018-.653.12-.326.051-.377.069c-.172.034-.361.086-.532.137l-.138.052-.463.171-.223.086-.275.086-.034.017-.292.086-.275.1-.257.1-.069.034a.942.942,0,0,0-.206.069l-.154.034-.155.052h-.034a5.414,5.414,0,0,0-.738.291l-.172.086a.98.98,0,0,1-.206.086l-.085.034-.292.121a2.054,2.054,0,0,0-.361.206l-.051.034a.431.431,0,0,1-.12.068l-.206.1-.035.035-.291.154a1.119,1.119,0,0,0-.172.12l-.206.1a2.21,2.21,0,0,0-.326.224l-.034.017-.086.068-.24.172-.292.223a2.522,2.522,0,0,0-.309.275.516.516,0,0,1-.1.086l-.189.171-.257.275-.035.034-.257.309-.481.584c-.068.085-.171.24-.24.343l-.206.309-.017.017L67.916,29l-.155.275c-.017.034-.051.086-.068.12l-.223.412c-.086.155-.155.309-.224.463l-.154.327c-.034.051-.052.1-.086.154l-.24.481c-.035.1-.086.206-.137.326-.018.068-.052.12-.069.189l-.069.154c0,.017-.017.034-.017.052s-.034.085-.051.137a.908.908,0,0,0-.069.206,1.521,1.521,0,0,1-.086.257l-.034.1a2.857,2.857,0,0,0-.086.378c0,.034-.017.051-.017.086a.1.1,0,0,1-.017.068c-.018.017-.018.069-.018.086a.762.762,0,0,0-.017.086l-.1.584c-.051.223-.086.446-.12.669a4.561,4.561,0,0,0-.051.652v.258l-.018.429v1.39l.018.412V37.8a2.824,2.824,0,0,0,.034.378l.051.343a1.541,1.541,0,0,0,.069.258l.034.154a1.905,1.905,0,0,1,.069.309l.017.069c.017.12.052.24.086.377a3.329,3.329,0,0,0,.1.4c.052.137.086.258.12.378l.069.189.051.137a2.769,2.769,0,0,0,.172.4c.017.034.051.085.069.12l.034.051.051.1.052.086.189.361.137.291.172.344a4.329,4.329,0,0,0,.412.669l.24.275.24.257.1.155a.826.826,0,0,1,.069.12l.051.085a3.7,3.7,0,0,0,.275.43,1.551,1.551,0,0,0,.154.171,2.611,2.611,0,0,0,.224.189l.394.309a1.608,1.608,0,0,1,.241.24c.068.086.206.189.291.275s.224.189.327.292h.017c.051.034.086.086.137.12l.172.137.223.155.12.085.326.241a.435.435,0,0,1,.1.086l.189.154.326.206.326.189.172.12a1.488,1.488,0,0,0,.171.12l.584.343.017.018.052.034.171.086.052.017a.8.8,0,0,0,.12.051,1.951,1.951,0,0,0,.343.12l.137.035c.086.017.155.051.241.068l.137.052h.034l.138.034.051.017.481.121.257.051.361.086c.068.017.154.017.223.034l.137.017.309.052c.1.017.206.051.309.069a3.6,3.6,0,0,1,.36.085,2.315,2.315,0,0,0,.447.069c.137,0,.274.034.394.034l.721.052h.172l.309.017h.961a.592.592,0,0,0,.172-.017h.1l.257-.017h.086c.069,0,.137-.018.206-.018l.275-.051a.87.87,0,0,1,.223-.034c.12,0,.206-.017.291-.017a1.93,1.93,0,0,0,.292-.069h0l.1-.017a.619.619,0,0,1,.172-.035c.034,0,.069-.017.12-.017h.017a.155.155,0,0,0,.086-.017h.069a.222.222,0,0,0,.1-.017c.034-.017.1,0,.137-.017.086-.017.172-.017.24-.035a.845.845,0,0,0,.223-.068l.035-.017.36-.1.446-.155.6-.24.034-.017.447-.172c.12-.051.223-.12.343-.172l.1-.051.4-.206.154-.086.069-.034.223-.138.034-.034h-.017l-.017.017a5.042,5.042,0,0,0,.6-.463l.618-.481.6-.463.069-.069.5-.429.24-.24.052-.035L89.422,45a1.105,1.105,0,0,1,.137-.137l.55-.6.36-.463.086-.1a3.185,3.185,0,0,0,.257-.361c.035-.034.052-.086.086-.12a.946.946,0,0,0,.137-.223l.292-.515.12-.223.344-.7.274-.652.155-.361c.034-.085.051-.171.086-.257l.017-.086c.068-.189.12-.377.171-.566l.018-.086a.617.617,0,0,0,.034-.172,1.384,1.384,0,0,1,.051-.223l.018-.1v.017l.051-.291.017-.1.017-.069.052-.309.086-.687.017-.12c.034-.206.051-.446.086-.755a3.345,3.345,0,0,0,.017-.395V34.835a3.181,3.181,0,0,0-.035-.412l-.1-.841-.052-.326-.017-.069c0-.034-.017-.068-.017-.1s-.017-.051-.017-.085v-.018c-.018-.051-.018-.12-.035-.171a1.771,1.771,0,0,0-.12-.326l-.1-.206-.017-.052c-.034-.086-.086-.172-.12-.24l-.138-.292a1.1,1.1,0,0,0-.12-.189L92,31.385l-.1-.189-.069-.137c-.017-.052-.051-.086-.069-.137a.869.869,0,0,0-.1-.172l-.154-.24-.034-.052a3.041,3.041,0,0,1-.189-.326l-.155-.274-.017-.035L90.9,29.48l-.069-.1a1.017,1.017,0,0,1-.137-.223l-.12-.189c-.034-.034-.051-.086-.086-.12l-.086-.137a1.315,1.315,0,0,0-.137-.206l-.275-.378a.906.906,0,0,0-.171-.189l-.12-.12a.3.3,0,0,1-.086-.12c-.017-.052-.086-.1-.1-.155l-.069-.085-.034-.052c-.034-.034-.069-.086-.1-.12l-.017-.017-.258-.309a1.213,1.213,0,0,1-.137-.172l-.36-.412-.241-.24-.137-.155L88,25.944l-.274-.257-.1-.086-.034-.034-.155-.1-.086-.069c-.051-.052-.12-.086-.171-.137L87,25.086h-.017a1.893,1.893,0,0,0-.292-.223l-.189-.12-.12-.069-.566-.326-.052-.034a2.232,2.232,0,0,0-.412-.206l-.24-.121c-.034-.017-.086-.034-.12-.051l-.052-.017c-.1-.052-.206-.086-.326-.137s-.257-.086-.395-.138l-.034-.017-.275-.069-.154-.051-.12-.034-.1-.035-.258-.051-.068-.017L83,23.3l-.24-.052-.086-.017h-.052l-.12-.034a3.957,3.957,0,0,0-.481-.1l-.343-.052c-.051-.017-.1-.017-.154-.034l-.138-.017-.36-.069-.326-.034-.549-.034-.121-.017-.7-.052-.223-.017Zm-4.652,8.616a2.578,2.578,0,0,1-.36-.034c-.052-.017-.12-.035-.189-.052l-.052-.017a.8.8,0,0,1-.257-.1l-.069-.034a.172.172,0,0,1-.085-.069.791.791,0,0,1-.155-.189,1.273,1.273,0,0,1-.154-.309.579.579,0,0,1-.035-.171,3.43,3.43,0,0,1,.035-.429l.051-.172c.017-.051.052-.1.069-.154a.791.791,0,0,1,.12-.189l.051-.069a1.2,1.2,0,0,1,.172-.24,1.523,1.523,0,0,1,.172-.138l.1-.051c.034-.017.051-.017.085-.034l.052-.017a.652.652,0,0,0,.154-.069l.121-.052.257-.051c0,.017,0,.017.017.034a.18.18,0,0,0,.12.1H74.7a.231.231,0,0,1,.1.035l.052.034c.034.017.086.051.12.068l.069.018c.034.017.068.017.1.034l.171.086.121.12c.017.017.017.034.034.051s.017.052.034.069c.035.034.052.086.086.12v.035a2.192,2.192,0,0,1,.1.206,1.119,1.119,0,0,1,.069.326.452.452,0,0,1-.018.154.816.816,0,0,1-.1.258c-.035.051-.052.12-.086.171s-.069.086-.086.12a.65.65,0,0,1-.155.224,2.84,2.84,0,0,1-.24.205c-.051.035-.12.052-.172.086l-.411.1-.035-.017Zm6.969,2.18.12-.069.051-.034.035-.017a1,1,0,0,1,.24-.12l.069-.035c.051-.017.1-.051.154-.068a.585.585,0,0,1,.172-.035c.068-.017.12-.017.189-.034a2.477,2.477,0,0,1,.377-.069h.086a2.207,2.207,0,0,1,.326.017l.429.052a.508.508,0,0,0,.155.034.311.311,0,0,1,.154.069l.275.137a.379.379,0,0,1,.1.069.462.462,0,0,0,.12.069.987.987,0,0,0,.189.085l.017.018.086.034c.034.017.068.051.1.069l.051.034.137.086h.018l.291.206a2.671,2.671,0,0,1,.206.24l.086.137a1.332,1.332,0,0,1,.137.275l.1.24a.741.741,0,0,1,.052.189v.017l.034.1c.017.034.017.086.035.12l.051.258v.017l.034.24.035.275a1.064,1.064,0,0,1,.017.223l.051.481c0,.085.018.188.018.274V37.7l-.018.275a1.141,1.141,0,0,1-.017.24l-.034.858-.017.258-.052,1.047a1.589,1.589,0,0,1-.017.275v.034a.987.987,0,0,1-.017.223v.052c-.017.068-.017.154-.034.24a.614.614,0,0,0-.018.171v.1l-.017.275-.017.12v.017c-.017.086-.017.155-.034.241h-.275l-.137-.018h-.258a.937.937,0,0,0-.223.018h-.034a.982.982,0,0,0-.223.017l-.069.017c-.051,0-.086.017-.137.017h-.137l-.1-.017-.086-.017a.483.483,0,0,1-.155-.017h-.12v-.086l-.017-.1a.762.762,0,0,0-.017-.086c0-.017-.017-.1-.017-.154v-.138a.732.732,0,0,1-.018-.189v-.137L83.9,40.86V40.4l.017-.377.018-.1a2.22,2.22,0,0,0,.017-.344l-.017-.463v-.326a2.857,2.857,0,0,0-.035-.412c-.034-.223-.051-.464-.068-.721v-.515a1.781,1.781,0,0,0-.018-.309c0-.051-.017-.1-.017-.172,0-.034-.017-.051-.017-.068v-.035c-.017-.068-.017-.137-.034-.206l-.052-.171c-.017-.035-.017-.052-.034-.086l-.017-.034-.052-.12a.865.865,0,0,1-.051-.121,1.023,1.023,0,0,0-.155-.257l-.051-.052-.017-.034-.086-.086L83,35.178l-.275-.154a1.023,1.023,0,0,0-.309-.086c-.051,0-.1-.017-.154-.017h-.1a1.742,1.742,0,0,0-.6.12.861.861,0,0,0-.223.1,1.824,1.824,0,0,0-.464.343c-.068.069-.12.155-.188.223a1.906,1.906,0,0,0-.138.258l-.1.24a.541.541,0,0,0-.034.137c0,.035-.017.069-.017.1-.052.189-.086.378-.12.567l-.035.429v.12l-.051.532a1.157,1.157,0,0,1-.034.24l-.035.275-.034.532v.549l.017.532v.567l-.017.4V41.7c0,.085.017.171.017.24h0a1,1,0,0,0-.206.017.477.477,0,0,0-.154.017l-.155.017h-.171l-.172.086h-.172a2.319,2.319,0,0,1-.343-.017l-.24-.017h-.172a3.62,3.62,0,0,1-.429-.017v-.292a1.884,1.884,0,0,0-.017-.309v-.463c0-.069-.017-.155-.017-.224v-.1a.554.554,0,0,0-.018-.171,1.233,1.233,0,0,1-.017-.241v-.5L77.8,39.3v-.155l-.017-.515a1.589,1.589,0,0,1,.017-.292c.017-.085,0-.171.017-.257a1.3,1.3,0,0,0,0-.257v-.241l.017-.532-.017-.532V35.436l-.017-.515V33.548c0-.086.017-.155.017-.241H78.9c.034,0,.137-.017.188-.017l.138-.017h.824a.382.382,0,0,0,.137-.017.294.294,0,0,0,.017.12.294.294,0,0,1,.017.12c0,.035.017.1.017.172s.018.137.018.189v.5a.236.236,0,0,0,.034.189.209.209,0,0,0,.137.069h.035a.148.148,0,0,0,.1-.052l.085-.085c.035-.035.052-.069.086-.1l.052-.1a.768.768,0,0,0,.068-.121l.017-.017c.035-.034.052-.086.1-.12s.052-.051.086-.086l.017-.017a.316.316,0,0,1,.086-.068l.017-.018.258-.188h.017l-.034-.069Zm-6.78-.12h.069a2.685,2.685,0,0,0,.394-.035l.086-.017c.069-.017.155-.017.241-.034h.051a.38.38,0,0,0,.017.137.155.155,0,0,0,.017.086c.018.034,0,.034,0,.052v.429l-.017.5a4.72,4.72,0,0,0-.017.5c0,.172.017.361.034.532v.481l.018.446v.858a1.98,1.98,0,0,1-.018.326c0,.069-.017.138-.017.189v.069l-.017.257-.017.12c0,.052-.017.1-.017.155s-.017.137-.017.206v.069l-.018.1-.068.995-.052.446a.508.508,0,0,1-.034.155l-.017.068c-.017.052-.017.1-.035.155v.069l-.051.429.017.463v.1h-.034l-.1.017H74.9a.34.34,0,0,0-.12.017l-.171.035-.069.017a.38.38,0,0,1-.137.017,1.919,1.919,0,0,0-.326.034l-.172.035a.537.537,0,0,1-.172.017h-.223c-.1,0-.189.017-.292.017h-.051a.377.377,0,0,1-.137-.017h0v-.017c0-.017-.018-.035-.018-.052,0-.1-.017-.206-.017-.326v-.223a1.3,1.3,0,0,1,.017-.257l.035-.515c.017-.172.017-.344.017-.515v-.5l.017-.395v-.1l.034-.515.052-1.1v-.4l.017-.395a1.809,1.809,0,0,0,0-.429,3.337,3.337,0,0,1-.017-.395V35.3c0-.171.017-.343,0-.514a1.684,1.684,0,0,0-.017-.292v-.086c0-.034-.017-.1-.017-.155s-.018-.1-.018-.137l-.017-.086c-.017-.068-.017-.154-.034-.24l-.034-.36v-.086l.017.017a.173.173,0,0,0,.12.069,2.856,2.856,0,0,0,.378-.035l.085-.017a2.677,2.677,0,0,1,.412-.034h.635Zm-7.277-8.771a.411.411,0,0,0-.155.1.911.911,0,0,0-.172.189.949.949,0,0,0-.12.223,1.624,1.624,0,0,0-.068.275v.1a.382.382,0,0,0,.017.137l.051.154a.6.6,0,0,0,.189.223l.137.086a.942.942,0,0,0,.206.069c.052.017.1.017.155.034a.494.494,0,0,0,.223,0,.546.546,0,0,0,.154-.051.765.765,0,0,0,.121-.069c.017-.017.034-.017.051-.034l.1-.1c.017-.017.034-.052.052-.069a1.24,1.24,0,0,0,.24-.412l.034-.12c0-.034.017-.051.017-.086v-.154a.519.519,0,0,0-.1-.223.892.892,0,0,0-.394-.258l-.258-.051c-.069-.017-.137-.017-.206-.035h-.034a.828.828,0,0,0-.24.069ZM70.49,22.46a1,1,0,0,0-.326.086,1.017,1.017,0,0,0-.24.12.9.9,0,0,0-.137.1.452.452,0,0,0-.12.137l-.069.1a.62.62,0,0,0-.069.155,1.5,1.5,0,0,0-.1.549.955.955,0,0,0,.052.309.662.662,0,0,0,.086.154.9.9,0,0,0,.1.138l.1.1c.035.017.069.051.086.051l.206.1a.379.379,0,0,0,.1.069,1.5,1.5,0,0,0,.292.12,1.008,1.008,0,0,0,.326.051.712.712,0,0,0,.189-.017l.189-.051.12-.052c.051-.034.1-.051.154-.086a.581.581,0,0,0,.206-.206c.018-.034.052-.051.069-.085a.707.707,0,0,0,.086-.155.25.25,0,0,0,.034-.12.893.893,0,0,0,.034-.189,1.261,1.261,0,0,0,.035-.257v-.172c0-.051-.017-.086-.017-.137a1.363,1.363,0,0,0-.086-.275,1.423,1.423,0,0,0-.12-.206.469.469,0,0,0-.138-.12.7.7,0,0,0-.154-.086,1.627,1.627,0,0,0-.258-.086l-.309-.051c-.051,0-.12-.017-.171-.017s-.1.017-.155.017ZM93.7,41.289a.384.384,0,0,0-.206.1.664.664,0,0,0-.155.154,1.844,1.844,0,0,0-.154.189.63.63,0,0,0-.086.189.585.585,0,0,0-.017.171.4.4,0,0,0,.137.361,1.053,1.053,0,0,0,.138.1.088.088,0,0,0,.068.034l.1.052a.3.3,0,0,0,.12.017.588.588,0,0,0,.172-.017c.034,0,.051-.018.086-.018l.171-.051a.612.612,0,0,0,.206-.137.9.9,0,0,0,.206-.241c.018-.034.052-.086.069-.12a.218.218,0,0,0,.017-.1v-.1a.352.352,0,0,0-.051-.189.486.486,0,0,0-.172-.24.356.356,0,0,0-.172-.1.68.68,0,0,0-.309-.069.362.362,0,0,0-.137.018Zm.206.669.017.017a.017.017,0,0,1-.017-.017Z"/>
    </g>
    <g>
      <path class="c" d="M33.306,70.383h-.5a.317.317,0,0,0-.137.018h-.395a1.342,1.342,0,0,0-.258.034c-.034,0-.085.017-.12.017l-.068.017a.589.589,0,0,0-.189.035l-.395.068-.755.138-.446.12-.292.051a2.667,2.667,0,0,0-.395.086l-.395.086-.395.1-.343.12-.034.017-.172.069c-.068.017-.137.051-.206.068s-.137.052-.223.069l-.172.052-.411.154-.172.069a1.027,1.027,0,0,1-.137.068l-.292.138L26.354,72l-.309.12a1.81,1.81,0,0,0-.36.189,6.082,6.082,0,0,0-.669.429l-.052.034-.584.412-.308.24-.018.018-.309.257-.617.549-.258.258a3.267,3.267,0,0,0-.343.343l-.206.223-.069.086L22,75.447l-.275.292a2.556,2.556,0,0,0-.257.326l-.018.034-.051.086-.189.24a1.869,1.869,0,0,0-.206.326l-.189.344-.171.343-.1.189a.826.826,0,0,0-.069.12l-.189.343a3.45,3.45,0,0,0-.171.36c-.017.052-.052.1-.069.155a.58.58,0,0,1-.069.154l-.154.344a3.3,3.3,0,0,0-.172.412c-.017.068-.051.12-.068.188s-.052.138-.069.189l-.137.361-.121.36a1.806,1.806,0,0,0-.068.24l-.034.138-.1.394-.052.378v.189l-.017.069-.052.394c-.017.12-.017.241-.034.378l-.051.378-.035.411a5.869,5.869,0,0,0,.017.773c.018.24.052.48.086.7l.035.274.1.635.051.241.1.532a.618.618,0,0,0,.034.188l.1.584.1.395a2.167,2.167,0,0,1,.1.395l.035.188.051.241.017.085a1.628,1.628,0,0,0,.069.275,4.733,4.733,0,0,0,.292.772l.154.275-.017.1.189.343a1.046,1.046,0,0,0,.068.138l.1.188v.018c.035.051.052.1.086.154a1.119,1.119,0,0,0,.12.172c.035.051.086.1.121.154l.017.017a.954.954,0,0,1,.12.155l.24.292.1.137.378.446.412.429.12.12.257.275.258.257a2.478,2.478,0,0,0,.343.241l.275.189.223.188.257.224.344.274.1.069.086.068.223.172a2.01,2.01,0,0,0,.327.206l.36.206h.017l.309.172.343.223.018.017c.034.034.085.051.12.086l.171.1.344.171a1.346,1.346,0,0,1,.206.121.45.45,0,0,0,.12.068,1.324,1.324,0,0,0,.274.137,2.017,2.017,0,0,0,.344.121l.1.017.188.051c.1.035.189.052.309.1.206.069.412.12.618.172l.429.051.258.018.171.034.6.086.137.017.241.017c.1.017.206.017.309.034l.086.018.394.034a3.079,3.079,0,0,0,.395.017h1.1a3.975,3.975,0,0,0,.429-.034l.36-.069.343-.051.172-.018a.778.778,0,0,0,.189-.017l.463-.068.773-.172h.017l.154-.034.635-.172a7.322,7.322,0,0,0,.773-.309l.412-.189.154-.068L38.3,95.8l.223-.086.5-.206c.12-.051.241-.12.343-.171l.344-.189c.24-.137.463-.309.669-.446.1-.086.223-.172.343-.258h.018c.051-.034.1-.086.154-.12l.12-.1.052-.034.291-.309c.1-.1.172-.189.258-.292l.292-.36.068-.1.172-.241.91-1.39.24-.36.446-.7c.206-.378.4-.79.567-1.184l.326-.773.017-.034.137-.343c.017-.069.052-.155.069-.224l.034-.154.086-.275.155-.5c.051-.172.085-.395.12-.567l.034-.189.017-.034.069-.378a2.834,2.834,0,0,0,.034-.394l.034-.4a2.535,2.535,0,0,0,.018-.378,5.646,5.646,0,0,0-.052-.755V83.84a.294.294,0,0,0-.017-.12c-.017-.086-.017-.172-.034-.258,0-.085-.018-.24-.035-.377l-.068-.464-.017-.068-.052-.344c-.034-.223-.1-.429-.154-.635l-.018-.086L44.96,81.2c0-.035-.017-.086-.017-.12-.017-.121-.052-.241-.086-.395l-.189-.773c-.051-.188-.137-.394-.189-.566a1.232,1.232,0,0,0-.068-.172A.766.766,0,0,0,44.342,79l-.069-.189a3,3,0,0,0-.154-.4c-.034-.086-.086-.171-.12-.257l-.035-.086a1.972,1.972,0,0,0-.171-.326c-.069-.1-.086-.172-.138-.258L43.6,77.4l-.034-.068-.155-.275-.171-.257c-.035-.035-.052-.086-.086-.12l-.086-.1a2.487,2.487,0,0,0-.189-.258l-.1-.12-.069-.086a2.814,2.814,0,0,1-.188-.292,2.074,2.074,0,0,0-.292-.36,1.57,1.57,0,0,0-.155-.172l-.085-.085a3.487,3.487,0,0,1-.241-.275,1.8,1.8,0,0,0-.24-.275l-.257-.257-.138-.12-.137-.138c-.1-.1-.206-.188-.309-.274h0l-.172-.12-.326-.275-.395-.309-.051-.034c-.017-.017-.052-.035-.069-.052h0l-.566-.412-.017-.017-.326-.223a1.024,1.024,0,0,0-.241-.12l-.1-.052c-.068-.034-.137-.085-.206-.12l-.068-.034-.172-.1-.12-.086-.017-.017-.309-.189-.343-.189a4.084,4.084,0,0,0-.395-.189l-.309-.137a.9.9,0,0,0-.12-.051l-.378-.155-.24-.086-.1-.034-.361-.1c-.1-.017-.188-.051-.291-.069l-.052-.017-.069-.017-.1-.017-.12-.034-.051-.018c-.1-.017-.189-.051-.292-.068H34.25a3.055,3.055,0,0,0-.4-.069,1.068,1.068,0,0,0-.24-.017H33.34l-.034-.052ZM27.951,77.8l.257-.051.24-.052a3.661,3.661,0,0,1,.532-.051h.292a1.589,1.589,0,0,0,.292-.017l.566-.035h.138l.394-.017h1.717a1.989,1.989,0,0,1,.326.017.844.844,0,0,1,.206.017h.549a1.329,1.329,0,0,1,.275.018,1.589,1.589,0,0,0,.292.017h.566c.172,0,.36.017.549.034h0a1.366,1.366,0,0,0,.24.034l.241.052a2.7,2.7,0,0,1,.515.1.32.32,0,0,1,.12.034l.1.035.189.051h.034l.257.052a1.28,1.28,0,0,1,.241.068.607.607,0,0,1,.137.086l.086.086a.748.748,0,0,0,.12.086l.034.034c.035.034.069.051.1.086a.666.666,0,0,0,.1.1,1.688,1.688,0,0,1,.206.4c.017.017.017.051.035.085a.537.537,0,0,1,.034.138c.017.051.034.137.051.206l.018.034.051.24v.035a.411.411,0,0,0,.034.137l.018.1v.223a.22.22,0,0,0,.017.1.38.38,0,0,1,.017.137v.1a.537.537,0,0,0,.017.155.477.477,0,0,1,.017.154c0,.052.017.069.017.1l.018.1c0,.052.017.12.017.172s.017.154.017.223v.738l.017.446v.584a.294.294,0,0,0,.017.12.428.428,0,0,1,.017.154v.515a1.684,1.684,0,0,1,.017.292v.378a.673.673,0,0,0,.018.171v.275a.334.334,0,0,0,.017.137c.017.052,0,.086.017.121v.549c0,.1.017.206.017.309v.583a1.684,1.684,0,0,1-.017.292v.052c0,.051-.017.1-.017.154v.172a1.884,1.884,0,0,1-.017.309.617.617,0,0,1-.035.188l-.051.224-.137.446-.069.137c-.017.052-.052.1-.069.155a.594.594,0,0,1-.086.137l-.017.017c-.017.034-.051.069-.086.12l-.137.155-.154.154-.1.086c-.069.051-.121.12-.189.172a1.238,1.238,0,0,1-.189.12l-.051.034a1.069,1.069,0,0,1-.241.137l-.257.086c-.086.035-.189.052-.292.086a1.167,1.167,0,0,1-.24.034l-.1.018-.12.017-.189.034a2.646,2.646,0,0,1-.515.052l-.292.017-.309.017h-.051a.982.982,0,0,0-.223.017h-.086l-.241.017H33.58a2.324,2.324,0,0,1-.326-.017,5.04,5.04,0,0,0-.532-.017c-.172,0-.36,0-.532-.017h-.051c-.086,0-.155-.017-.241-.017h-.292c-.12,0-.24-.018-.36-.018l-.172-.017H30.92c-.12,0-.258-.017-.4-.017l-.154-.017c-.069-.017-.155-.017-.223-.034l-.395-.035h-.378l-.772-.068h-.052l-.463-.069a3.226,3.226,0,0,1-.584-.172l-.137-.051a.341.341,0,0,1-.137-.069l-.155-.1a.907.907,0,0,0-.189-.086h0a.364.364,0,0,1-.137-.086l-.137-.12-.017-.017-.172-.154c-.1-.1-.189-.206-.275-.309l-.1-.189-.051-.1a.347.347,0,0,0-.052-.086,1.059,1.059,0,0,1-.051-.172c-.017-.068-.017-.051-.017-.085l-.052-.155-.034-.137-.086-.292a.7.7,0,0,1-.051-.257c0-.069-.018-.155-.018-.223V87.17a.648.648,0,0,0-.017-.189v-.034c0-.069-.017-.155-.017-.224v-.291c-.017-.086-.017-.172-.034-.275v-.275a1.146,1.146,0,0,1,.017-.24v-.034c0-.086.017-.189.017-.292s.017-.189.017-.275v-.978a2.7,2.7,0,0,1,.035-.378v-.017c0-.051.017-.1.017-.137v-.155a1.583,1.583,0,0,1,.017-.274v-.7a.848.848,0,0,1,.017-.206.7.7,0,0,0,0-.189v-.1a2.319,2.319,0,0,1,.017-.343v-.189a2.362,2.362,0,0,1,.017-.309v-.051a1.349,1.349,0,0,1,.035-.275v.017c0-.051.017-.1.017-.154l.051-.36v-.052a2.367,2.367,0,0,1,.069-.326c.017-.052.017-.1.034-.155s.018-.1.035-.154l.017-.1a1.2,1.2,0,0,1,.069-.24l.017-.069.051-.172a1.016,1.016,0,0,1,.086-.24l.051-.1c.018-.034.052-.069.069-.1l.069-.069.137-.1h-.051a.91.91,0,0,1,.137-.085.838.838,0,0,1,.12-.052l.017-.017c.1-.034.189-.086.275-.12l.069-.034a.509.509,0,0,1,.171-.086,1.868,1.868,0,0,1,.446-.12l.121-.018h.017Zm4.273,3.914H31.83a1.529,1.529,0,0,0-.292.034c-.052.017-.1.017-.138.034l-.12.035-.085.017c-.052.017-.1.017-.155.034a.835.835,0,0,0-.275.137.947.947,0,0,0-.24.206l-.172.189a1.157,1.157,0,0,1-.188.223l-.12.189-.018.017a1.4,1.4,0,0,0-.188.464c-.018.1-.052.188-.069.291a.87.87,0,0,0-.017.292,2.559,2.559,0,0,0,.051.326l.052.258.051.171.017.035.018.051a1.541,1.541,0,0,0,.1.258.766.766,0,0,0,.1.154c.034.035.051.069.085.1a2.209,2.209,0,0,0,.241.189l.1.069.12.085.223.155a1.379,1.379,0,0,0,.429.189l.1.034h.017c.069.017.137.052.189.069l.292.051h.086a1.473,1.473,0,0,0,.48-.086,3.161,3.161,0,0,0,.515-.206.927.927,0,0,0,.223-.137l.155-.12.017-.017c.034-.017.051-.052.086-.069a1.207,1.207,0,0,0,.137-.171c.017-.018.034-.052.051-.069l.035-.034a1.1,1.1,0,0,0,.12-.172c.051-.086.086-.172.12-.24a2.186,2.186,0,0,0,.12-.309l.052-.258.034-.292v-.24c0-.069-.017-.154-.017-.223a.535.535,0,0,0-.052-.24c0-.035-.017-.052-.017-.086a.246.246,0,0,0-.034-.1,1.177,1.177,0,0,0-.086-.223h0a1.735,1.735,0,0,0-.137-.241L33.7,82.4c-.051-.051-.1-.12-.154-.171l-.017-.018-.069-.085L33.34,82a.374.374,0,0,0-.137-.085l-.052-.035-.034-.017c-.017-.017-.034-.017-.069-.034L33,81.815h-.1c-.017,0-.035.017-.052.017a1.868,1.868,0,0,0-.446-.12Z"/>
      <path class="c" d="M36.944,82.57h-.1a1.068,1.068,0,0,0-.24.017h-.343a.712.712,0,0,0-.189.017,3.34,3.34,0,0,1-.412.017h-.1c-.137,0-.343,0-.4.172a.336.336,0,0,0,.018.189c0,.017.017.034.017.051v.035a.153.153,0,0,0,.017.085.325.325,0,0,0,.034.121,1.3,1.3,0,0,1,.052.137c0,.034.017.051.017.1v.051c0,.069.017.12.017.189v.189c0,.051-.017.1-.017.137v.052a.585.585,0,0,0-.017.171v.052c0,.051-.018.1-.018.171v.1c-.017.1-.051.189-.068.275v.017c-.034.138-.086.241-.12.344h0v.017l-.035.1a1.251,1.251,0,0,1-.188.326l-.206.24a2.249,2.249,0,0,1-.172.189.884.884,0,0,1-.1.12.957.957,0,0,0-.1.137l-.223.206-.12.1-.086.069c-.052.051-.12.086-.172.137l-.086.069a1.415,1.415,0,0,1-.343.206l-.137.051-.275.086-.412.086-.412.034h-.171l-.241-.051-.154-.052-.12-.034-.137-.034c-.052-.017-.086-.017-.138-.035-.086-.034-.189-.051-.274-.085s-.206-.1-.327-.155a2.137,2.137,0,0,1-.343-.189.7.7,0,0,1-.12-.1l-.257-.257a1.39,1.39,0,0,1-.224-.223,1.5,1.5,0,0,1-.137-.206L29.358,86l-.034-.069-.052-.069c-.017-.017-.034-.051-.051-.068s-.035-.035-.035-.052a2.745,2.745,0,0,1-.274-.5,1.455,1.455,0,0,1-.1-.394l-.052-.309a2.1,2.1,0,0,1-.017-.326l.017-.4.069-.395v-.034c.017-.052.017-.12.034-.172v-.017a.307.307,0,0,1,.035-.137.411.411,0,0,0,.034-.138.25.25,0,0,0-.034-.1.138.138,0,0,0-.069-.068h0a.311.311,0,0,0-.137-.035h-.275c-.086,0-.189-.017-.275-.017h-.188a.385.385,0,0,0-.138.017H27.8a2.346,2.346,0,0,1-.343.035h-.12l-.086-.018-.069-.017-.206-.034h-.017a.181.181,0,0,0-.154.154c-.018.035-.035.052-.052.086a.3.3,0,0,0-.017.12V83.1c0,.051-.017.086-.017.12v.1a.336.336,0,0,1-.017.137c-.018.052,0,.069,0,.1v1.116a.477.477,0,0,0,.017.154v1.271c0,.051.017.1.017.137v.206c0,.051.017.12.017.171h0v.172a1.157,1.157,0,0,0,.034.24v.241c0,.086.018.171.018.24v.034c0,.052.017.12.017.172,0,.017.017.051.017.069s.017.034.017.068a.064.064,0,0,0,.017.052c.017.017,0,.034.017.051a.906.906,0,0,0,.052.12l.034.086a.62.62,0,0,0,.069.155.71.71,0,0,0,.12.188l.154.155a2.033,2.033,0,0,0,.172.189.979.979,0,0,0,.567.189l.188.017.138.017h.085c.052,0,.1.017.172.017h1.785a5.416,5.416,0,0,1,.584.034,1.986,1.986,0,0,0,.309.018h.274a1.059,1.059,0,0,1,.223.017c.1,0,.224.017.327.017h.343a1.307,1.307,0,0,1,.257.017h.1l.172.017h1.424l.361.017h.257A1.03,1.03,0,0,0,35.3,89.2l.274-.034a2.494,2.494,0,0,0,.344-.069l.068-.017a1.708,1.708,0,0,0,.275-.086c.068-.034.137-.051.206-.086l.1-.051.12-.052c.051-.017.1-.051.154-.068a.385.385,0,0,0,.086-.069h0c.035-.034.052-.069.086-.1l.017-.017.052-.1.017-.017c.017-.052.051-.086.069-.138a1.88,1.88,0,0,0,.085-.291l.052-.292c.017-.069.017-.172.034-.258v-.1c0-.034.017-.1.017-.137V84.063a.782.782,0,0,1,.017-.189c.018-.068.018-.171.035-.257v-.241a2.216,2.216,0,0,0-.035-.343.811.811,0,0,0-.017-.086.755.755,0,0,0-.034-.171.277.277,0,0,0-.086-.155.39.39,0,0,0-.137-.086c-.034,0-.052-.017-.086-.017l-.069.052Zm-1.356-3.811H35.4a.674.674,0,0,0-.189.018h-.206a.592.592,0,0,0-.172.017.2.2,0,0,0-.137.051.192.192,0,0,0-.017.275l.017.017a.2.2,0,0,0,.137.052V79.5a.648.648,0,0,1-.017.172l-.017.12a.218.218,0,0,1-.017.1.385.385,0,0,0-.017.138v.051a.56.56,0,0,1-.018.172.255.255,0,0,0-.017.1c0,.034-.017.085-.017.12s-.017.1-.017.154v.138c0,.034-.017.051-.017.085v.018a.293.293,0,0,0,0,.171.36.36,0,0,0,.051.086l.052.052a.246.246,0,0,0,.12.034h.051l.069.017.292.052.154.017h.172a3.063,3.063,0,0,0,.395.017h.48a.292.292,0,0,0,.12-.017h.018a.226.226,0,0,0,.137-.052c.017-.017.051-.034.069-.051a.374.374,0,0,0,.068-.1c.017-.035.017-.086.035-.12h0v-.069c0-.017.017-.069.017-.1A1.5,1.5,0,0,0,37,80.527v-.206a.644.644,0,0,1,.017-.188V80.1c0-.051.017-.12.017-.171v-.584c0-.017.017-.051.017-.069v-.051a.179.179,0,0,1,.018-.086v-.069a.253.253,0,0,0-.035-.1h0c-.017-.017-.034-.051-.051-.051-.017-.017-.035-.017-.069-.017h-.12l-.1-.017-.412-.052c-.086,0-.154-.017-.24-.017h-.017c-.086-.017-.189-.017-.275-.034l-.155-.018ZM41.87,95.1h-.137a.69.69,0,0,0-.257.052l-.138.051a.622.622,0,0,0-.171.121c-.035.034-.086.068-.12.1a1.054,1.054,0,0,0-.1.154.959.959,0,0,0-.086.24.681.681,0,0,0-.017.326l.051.172.052.1a.765.765,0,0,0,.223.189.926.926,0,0,0,.274.171l.138.052.188.051a1.245,1.245,0,0,0,.258.018.76.76,0,0,0,.326-.121c.051-.034.086-.068.137-.1l.189-.206a1.1,1.1,0,0,0,.12-.188.707.707,0,0,0,.069-.378c0-.034-.017-.069-.017-.12a.412.412,0,0,0-.035-.12.881.881,0,0,0-.12-.223,1.32,1.32,0,0,0-.154-.155.624.624,0,0,0-.172-.12.522.522,0,0,0-.274-.086h-.086l-.138.017Zm3.553-1-.36.069a1.133,1.133,0,0,0-.412.188.892.892,0,0,0-.24.326l-.052.138-.068.206a1.042,1.042,0,0,0-.069.223,1.121,1.121,0,0,0-.034.343,1.228,1.228,0,0,0,.068.343,1.631,1.631,0,0,0,.155.361.992.992,0,0,0,.48.36,2.806,2.806,0,0,0,.652.155,1.823,1.823,0,0,0,.43-.017,2.452,2.452,0,0,0,.326-.086,1.621,1.621,0,0,0,.583-.378.668.668,0,0,0,.1-.12.842.842,0,0,0,.1-.172.794.794,0,0,0,.069-.188c0-.018.017-.035.017-.069a.531.531,0,0,1,.034-.137,1.735,1.735,0,0,0-.085-.721,1.2,1.2,0,0,0-.172-.326.529.529,0,0,0-.137-.138.6.6,0,0,0-.172-.1.529.529,0,0,0-.137-.068,4.109,4.109,0,0,0-.618-.155,1.909,1.909,0,0,0-.309-.034.24.24,0,0,0-.155,0Zm-1.665-2.077a.611.611,0,0,0-.24.172.361.361,0,0,0-.069.137.592.592,0,0,0-.017.172v.1a.477.477,0,0,0,.017.154.313.313,0,0,0,.086.12.357.357,0,0,0,.1.069.483.483,0,0,0,.155.017c.051,0,.1-.017.137-.017l.137-.052a.879.879,0,0,0,.172-.188.135.135,0,0,0,.034-.086.741.741,0,0,0,.052-.189.322.322,0,0,0-.086-.223.551.551,0,0,0-.36-.172.342.342,0,0,0-.121-.017ZM27.436,69.268h-.069a.246.246,0,0,0-.1.034c-.034.017-.086.034-.12.052l-.1.051a.442.442,0,0,0-.155.155.829.829,0,0,0-.1.257v.137a.683.683,0,0,0,.018.086c0,.017.017.052.017.069a.469.469,0,0,0,.189.223l.017.017a.522.522,0,0,0,.549.1l.086-.051a.657.657,0,0,0,.206-.223c.017-.052.051-.086.068-.138a.3.3,0,0,0,.035-.12v-.172c0-.017-.017-.051-.017-.068a.475.475,0,0,0-.086-.155.807.807,0,0,0-.1-.12c-.035-.017-.052-.034-.086-.051a.391.391,0,0,0-.137-.035h-.052Zm2.609-2.18-.189.052c-.052.017-.1.051-.155.068a.4.4,0,0,0-.086.052,1.274,1.274,0,0,0-.257.274l-.034.052a.644.644,0,0,0-.155.257.661.661,0,0,0-.051.172,1.258,1.258,0,0,0-.035.36.876.876,0,0,0,.1.292.975.975,0,0,0,.1.137.627.627,0,0,0,.172.121.769.769,0,0,0,.257.085.873.873,0,0,0,.224.018,1.345,1.345,0,0,0,.257-.035.617.617,0,0,0,.189-.086,3,3,0,0,0,.309-.188c.034-.035.086-.069.12-.1l.1-.155a.652.652,0,0,0,.069-.154,1.119,1.119,0,0,0,.068-.344.921.921,0,0,0-.086-.48.417.417,0,0,0-.068-.12c-.035-.035-.052-.069-.086-.1a.364.364,0,0,0-.137-.086l-.138-.052a1.046,1.046,0,0,0-.12-.034.712.712,0,0,0-.189-.017h-.017C30.148,67.071,30.1,67.088,30.045,67.088Zm-4.343.7-.1.051c-.034.017-.051.035-.086.052a.452.452,0,0,0-.137.12.279.279,0,0,0-.069.12.738.738,0,0,0-.034.189c0,.034.017.051.017.086l.017.034c.017.017.017.051.035.069a.434.434,0,0,0,.1.085.23.23,0,0,0,.1.035.222.222,0,0,0,.1-.017.184.184,0,0,0,.1-.241.254.254,0,0,0-.052-.068l.034-.035.1-.051a.235.235,0,0,0,.121-.1.208.208,0,0,0-.1-.275h0a.158.158,0,0,0-.086-.017c-.017-.034-.035-.034-.069-.034Zm-.017.429v0Zm0,.051h0c0,.017.017.017,0,0Z"/>
      <path class="c" d="M25.96,67.706a.508.508,0,0,0-.155.034.337.337,0,0,0-.12.017.844.844,0,0,0-.258.1.477.477,0,0,0-.085.1.156.156,0,0,0-.052.121c0,.017-.017.034-.017.068v.1a.294.294,0,0,0,.017.12v.1a.5.5,0,0,0,.069.172c.034.034.051.069.1.086a.61.61,0,0,0,.154.068.623.623,0,0,0,.258,0,.729.729,0,0,0,.36-.188l.052-.052a.416.416,0,0,0,.12-.12.436.436,0,0,0-.035-.566.356.356,0,0,0-.137-.086l-.034-.017a.209.209,0,0,0-.1-.018h-.069Z"/>
    </g>
    <g>
      <rect class="b" x="106.541" y="13.448" width="43.032" height="43.032" rx="6.851"/>
      <g>
        <path class="c" d="M128.875,21.473h-.858c-.1,0-.189.017-.292.017h-.275a1.021,1.021,0,0,0-.223.034h-.034a1.98,1.98,0,0,1-.326.018,2.144,2.144,0,0,0-.344.034,1.219,1.219,0,0,1-.24.017l-.189.017-.274.052-.12.017-.086.017-.292.052-.1.017-.051.017-.121.034h-.068l-.258.052h-.051l-.155.034-.206.052c-.1.034-.223.051-.377.085a.9.9,0,0,0-.189.035l-.172.051h-.017l-.172.052a1.3,1.3,0,0,0-.188.068,3.11,3.11,0,0,0-.412.189l-.275.155a1.741,1.741,0,0,1-.309.12,1.791,1.791,0,0,1-.171.068,2.83,2.83,0,0,1-.5.172h-.035l-.24.069a1.441,1.441,0,0,0-.292.12l-.24.12-.257.12-.1.035a1.934,1.934,0,0,0-.189.085,1.807,1.807,0,0,0-.309.172l-.1.069a1,1,0,0,0-.172.12c-.068.034-.137.086-.206.12l-.137.069a3.207,3.207,0,0,0-.326.188l-.309.292-.532.429-.069.069-.12.1a1.566,1.566,0,0,0-.172.154,1.805,1.805,0,0,1-.274.241,2.577,2.577,0,0,0-.326.291l-.395.395a.484.484,0,0,0-.086.1l-.017.017-.1.138-.155.188a3.256,3.256,0,0,0-.274.378l-.1.172-.069.1-.051.1-.1.171V27.6l-.069.1-.051.086-.035.069-.154.257-.017.035a.662.662,0,0,0-.086.154.848.848,0,0,0-.086.223l-.017.035v-.018c-.017.035-.034.086-.052.121a1.3,1.3,0,0,0-.068.188.273.273,0,0,1-.052.1,1.046,1.046,0,0,0-.068.138l-.069.189a.736.736,0,0,0-.017.085l-.035.1c-.017.035-.017.069-.034.1l-.1.241-.017.017-.069.154-.051.172-.017.034a1.716,1.716,0,0,1-.069.223c-.017.035-.017.086-.034.12l-.1.292-.018.086-.1.275-.069.189-.052.171-.1.378-.051.257c0,.052-.017.1-.017.138a.53.53,0,0,0-.017.171,1.609,1.609,0,0,1-.035.24,2.8,2.8,0,0,0-.051.4c-.035.275-.035.549-.052.807v.1c0,.1-.017.189-.017.292v.738l.017.4v.36a2.207,2.207,0,0,0,.017.326c.018.189.052.395.086.584l.017.1v.051l.069.378a1.507,1.507,0,0,0,.069.274c.017.052.017.086.034.138l.086.446c.017.12.051.24.069.343l.171.773.24.755.206.48.018.035.171.377.1.189.086.155.1.223.051.12a.4.4,0,0,0,.069.1l.034.068.086.155.017.017c.052.1.121.189.189.326l.1.172c.035.069.069.1.1.171l.206.344a3.871,3.871,0,0,0,.223.343,2.8,2.8,0,0,0,.361.412l.154.172a1.982,1.982,0,0,1,.189.223l.069.068c.086.1.188.189.274.275l.292.275.017.017.292.274.309.275.137.1.172.137c.051.052.1.086.154.138l.155.137.309.24.154.1.155.12.086.069.257.189c.086.069.223.137.343.223l.344.172c.017.017.034.017.068.034l.086.051a1.083,1.083,0,0,1,.137.069l.052.017a2.019,2.019,0,0,1,.275.138l.034.017.463.223a.65.65,0,0,0,.189.069l.1.051.412.154c.051.018.12.052.172.069.068.017.154.052.223.069l.12.034.069.017a1.507,1.507,0,0,0,.274.069,2.717,2.717,0,0,1,.309.086l.034.017.275.12.189.086c.017,0,.034.017.051.017h.018v.017a.147.147,0,0,0,.137.138h0a.14.14,0,0,0,.137-.155l-.017-.532v-.927l.017-.5v-.326c0-.034.017-.086.017-.12s.017-.069.017-.1v-.137c0-.035.018-.069.018-.1a.208.208,0,0,0-.121-.172.292.292,0,0,0-.12-.017h-.034a.869.869,0,0,0-.206.034h-.034a2.006,2.006,0,0,1-.326.035h0a.483.483,0,0,0-.155.017l-.086.017-.034.017a.322.322,0,0,1-.12.035h-.824c-.086-.018-.189-.018-.292-.035a1.981,1.981,0,0,1-.309-.086.9.9,0,0,1-.223-.12,2.367,2.367,0,0,1-.395-.326l-.257-.4a.83.83,0,0,1-.086-.171c0-.017-.017-.017-.017-.035l-.1-.223-.017-.034-.206-.464-.069-.137c-.017-.051-.051-.1-.069-.154a.35.35,0,0,0-.068-.138,1.029,1.029,0,0,0-.1-.188.62.62,0,0,1-.069-.155.847.847,0,0,0-.051-.12l-.172-.378-.12-.171-.034-.052-.189-.24a1.641,1.641,0,0,0-.172-.172h0l-.171-.171a1.935,1.935,0,0,0-.206-.172l-.258-.172.034.018-.034-.018a.316.316,0,0,1-.086-.068.707.707,0,0,1,.086-.155h.017l.035-.017h.068c.035,0,.069.017.1.017l.189.1a.961.961,0,0,1,.154.12.627.627,0,0,0,.172.121l.052.034.085.069.1.051.361.309a.465.465,0,0,1,.12.137l.154.155.1.12.052.051a3.033,3.033,0,0,0,.326.344l.206.206.257.188.189.1c.069.035.155.069.241.1a4.088,4.088,0,0,0,.5.172l.206.052.138.017.12.017.257.051c.069,0,.138.018.206.018h.052a.877.877,0,0,1,.223.034h.034a2.14,2.14,0,0,0,.309.034l.155.017h.12c.034,0,.086-.017.12-.017a.364.364,0,0,0,.137-.086l.052-.051a.7.7,0,0,0,.085-.155l.086-.188.052-.1a1.9,1.9,0,0,1,.137-.258,3.436,3.436,0,0,1,.189-.343,1.819,1.819,0,0,0,.137-.189,2.33,2.33,0,0,1,.189-.24,1,1,0,0,1,.189-.189.962.962,0,0,1,.137-.086h.017c.035-.017.086-.051.12-.069l.052-.034.275-.154h.034l.017-.017c.017-.018.052-.018.069-.035a.1.1,0,0,0,.068-.017.2.2,0,0,0,.138-.24v-.017c0-.018-.017-.035-.017-.052l-.052-.051a.154.154,0,0,0-.1-.172l-.051-.017-.224-.052-.154-.051-.086-.035a1.813,1.813,0,0,0-.292-.068c-.068-.017-.137-.017-.188-.034l-.052-.018a.738.738,0,0,0-.189-.034l-.086-.017c-.068-.017-.12-.017-.188-.034a1.952,1.952,0,0,1-.241-.069l-.257-.086L124.1,40.3l-.068-.017a1.716,1.716,0,0,1-.223-.069,4.313,4.313,0,0,1-.481-.24,5.168,5.168,0,0,1-.5-.344l-.051-.034-.326-.24-.412-.344-.052-.034c-.051-.034-.086-.086-.137-.12l-.069-.052a.925.925,0,0,1-.137-.12c-.12-.1-.223-.223-.326-.326l-.1-.12a.537.537,0,0,1-.086-.12c-.051-.069-.12-.137-.172-.206l-.068-.069a1.217,1.217,0,0,1-.138-.171l-.154-.258-.223-.463a5.134,5.134,0,0,1-.292-.858l-.189-.824a.782.782,0,0,1-.017-.189.778.778,0,0,0-.017-.189v-.034a1.811,1.811,0,0,1,0-.429,2.787,2.787,0,0,1,.1-.55v-.017a5.181,5.181,0,0,1,.137-.549,1.38,1.38,0,0,0,.1-.326l.017-.069a1.616,1.616,0,0,1,.086-.257c.017-.052.052-.12.069-.172a.507.507,0,0,1,.086-.12c.068-.1.154-.189.206-.257l.051-.052a1.744,1.744,0,0,0,.155-.189,1.593,1.593,0,0,1,.206-.257l.017-.017c.051-.052.086-.1.137-.155l.069-.051.017-.017.034-.018a.279.279,0,0,0,.1-.1.323.323,0,0,0,.034-.223c-.017-.017-.017-.051-.034-.068l-.051-.1c-.018-.035-.018-.069-.035-.1v-.035c-.017-.086-.017-.154-.034-.24a.915.915,0,0,1-.017-.206l-.052-.429v-.927l.069-.446.034-.137a1.466,1.466,0,0,1,.086-.292l.034-.12c.018-.035.018-.069.035-.1s.017-.069.034-.086.017-.052.034-.069l.1-.189.069-.068.034-.017h.309l.172.017a.5.5,0,0,1,.154.034l.241.12a.721.721,0,0,0,.171.069h.035l.068.017c.035.017.052.017.086.034l.1.052h.017l.189.1a.989.989,0,0,0,.189.086l.189.1.051.034a1.053,1.053,0,0,0,.172.12l.051.034.035.018a.406.406,0,0,1,.086.051h0c.034.017.068.052.1.069l.085.068.052.052.086.051c.034.018.068.052.1.069l.068.051a1.913,1.913,0,0,1,.189.172l.069.069a.147.147,0,0,0,.1.051h.12a.133.133,0,0,0,.086-.034h0a.059.059,0,0,1,.034-.017c.017-.017.052-.017.069-.035l.051-.034c.034-.017.069-.017.1-.034a1.068,1.068,0,0,1,.223-.017h.55a1.742,1.742,0,0,0,.274-.035,1.229,1.229,0,0,1,.24-.017h.412c.1.017.224.017.326.034l.344.018h-.017a1.318,1.318,0,0,1,.24.017.675.675,0,0,0,.189,0h.429a.774.774,0,0,0,.189.017h.549l.1.017.068.017.052.017a.8.8,0,0,0,.206.018h.034a.15.15,0,0,1,.086.017h.034a.782.782,0,0,0,.189.017c.052,0,.086.017.138.017l.068.034a.1.1,0,0,0,.069.018c.034,0,.068.017.12.017h.051c.035,0,.069.017.1.017l.086.017a.782.782,0,0,0,.189.017h.1a.411.411,0,0,0,.12.069h.138c.017,0,.051-.017.068-.017h.017l.069-.035h.017a.906.906,0,0,0,.189-.171l.034-.035c.017-.017.035-.051.052-.068l.051-.052a1.967,1.967,0,0,1,.4-.257l.326-.12a2.671,2.671,0,0,0,.326-.138l.069-.034.257-.1.1-.051a.942.942,0,0,1,.206-.069l.189-.069h.017l.206-.068.138-.069.051-.017a1.336,1.336,0,0,1,.378-.1l.188-.017h.206l.1.017h.224l.034.017a.228.228,0,0,0,.069.051c0,.018.017.035.017.069a.762.762,0,0,0,.017.086l.017.034c0,.017,0,.035.017.035.017.017.017.068.035.1v.034l.034.395a.644.644,0,0,0,.017.188,1.3,1.3,0,0,1,0,.258l.017.446a3.488,3.488,0,0,1,.017.429v.086c0,.052-.017.12-.017.172l-.017.068-.017.1c0,.052-.017.1-.017.155a1.884,1.884,0,0,0-.017.309v.292l-.018.051v.069a.211.211,0,0,0,.018.1.267.267,0,0,0,.1.137l.138.137.154.223a.351.351,0,0,0,.069.1l.1.189.206.412.069.155.12.291c.034.086.068.206.1.327l.017.051a4.954,4.954,0,0,1,.154.687c0,.034.017.051.017.085.018.069.018.155.035.224v.085c0,.069.017.138.017.206l.017.138a.382.382,0,0,0,.017.137.592.592,0,0,1,.017.189,1.1,1.1,0,0,1,0,.343l-.051.412c-.017.069-.017.12-.034.189v.086c-.018.068-.018.12-.035.188s-.051.138-.068.206l-.069.241a.509.509,0,0,0-.034.171c-.017.052-.035.138-.052.189-.017.034-.034.086-.051.12l-.035.052-.034.068c0,.018-.017.035-.017.052-.017.034-.034.051-.052.086l-.12.171-.051.069c-.035.034-.052.086-.086.12l-.052.086c-.034.034-.051.069-.085.1s-.052.086-.086.12l-.017.017-.224.292c-.051.052-.085.1-.137.155a.434.434,0,0,1-.1.085l-.034.035-.137.1-.138.085-.068.035c-.069.034-.121.086-.189.12l-.052.034-.206.155-.085.068a.3.3,0,0,1-.121.086.862.862,0,0,1-.188.12l-.018.018-.5.257a1.386,1.386,0,0,0-.223.12,1.009,1.009,0,0,1-.189.1l-.052.017-.24.1h-.017l-.12.052-.035.017-.154.051h-.137c-.052,0-.1.018-.155.018h-.017a.625.625,0,0,0-.189.034.335.335,0,0,0-.137.069l-.035.017-.171.051c-.052,0-.086.017-.138.017h.018l-.1.018-.052.017-.086.017-.068.017-.155.017-.086.017h-.034l-.069.018c-.017,0-.017,0-.034.017h-.1a.405.405,0,0,0-.137.034c-.017,0-.035.017-.052.017h-.017a.1.1,0,0,0-.086.052.25.25,0,0,0-.1.034.2.2,0,0,0-.1.189.206.206,0,0,0,.121.171c.017,0,.034.018.051.018l.034.017.1.1a.452.452,0,0,1,.12.137l.035.052c.034.034.051.068.086.1l.137.137a1.545,1.545,0,0,1,.223.24l.034.034c.035.035.052.069.086.086l.086.086a1.166,1.166,0,0,1,.12.189l.017.034.138.241c.017.051.051.085.068.137l.052.086.1.206c.017.068.051.12.068.188s.052.155.069.224a.84.84,0,0,1,.069.188l.017.069c.017.052.017.1.034.137.017.052.035.138.069.223.017.069.034.1.051.155l.018.034a2.7,2.7,0,0,1,.085.4c.018.086.018.172.035.275l.017.137v.223a1.684,1.684,0,0,0,.017.292v.669a2.22,2.22,0,0,0,.017.344V47.1a1.021,1.021,0,0,1-.034.223l-.017.086a.477.477,0,0,0-.017.154v.069a.32.32,0,0,0,.034.12.2.2,0,0,0,.086.086.241.241,0,0,0,.1.034h.017a.277.277,0,0,0,.154-.051c.035-.018.052-.035.086-.052l.017-.017.1-.052.086-.034.155-.051c.068-.035.137-.052.2-.086l.086-.035c.052-.017.12-.051.172-.068.051-.035.069-.035.12-.069.034-.017.069-.051.1-.069a.873.873,0,0,1,.172-.068l.171-.086.121-.052c.085-.034.154-.068.223-.1l.1-.051c.034-.017.051-.034.085-.052l.172-.085a3.22,3.22,0,0,0,.326-.189l.275-.172.086-.051.068-.035.172-.1a1.443,1.443,0,0,1,.206-.137l.137-.1.155-.1a.881.881,0,0,0,.137-.086c.1-.068.206-.154.292-.223l.034-.034.4-.343c.137-.121.257-.258.395-.395.12-.12.223-.258.343-.4.051-.069.12-.137.172-.206l.171-.24c.086-.138.189-.258.275-.378l.223-.326.051-.069c.035-.051.086-.1.121-.154l.1-.137a.434.434,0,0,1,.085-.1l.172-.241.4-.652.257-.515.086-.154a.4.4,0,0,1,.069-.12c.034-.086.086-.155.12-.241l.12-.291.034-.086.138-.4.085-.326.121-.446c.017-.086.051-.172.068-.241l.069-.274.017-.086.034-.155.052-.188.069-.327c0-.051.017-.1.017-.154l.017-.154a2.3,2.3,0,0,1,.069-.344l.051-.257c.017-.086.017-.189.034-.275v-.069l.035-.308v-.086c.017-.1.017-.223.034-.326v-.035l.017-.12a.294.294,0,0,1,.017-.12c0-.069.018-.154.018-.223s.017-.155.017-.24v-.138a1.478,1.478,0,0,1,.017-.274v-.258c0-.1.017-.189.017-.309a5.448,5.448,0,0,0-.051-.755c0-.069-.018-.137-.018-.223l-.017-.189c0-.051-.017-.1-.017-.154s-.017-.138-.017-.206v-.172c0-.052-.017-.154-.017-.223s-.017-.12-.017-.189c0-.051-.018-.1-.018-.154V32.08l-.068-.395c-.017-.034-.017-.085-.035-.12l-.017-.051V31.5a.515.515,0,0,1-.034-.172v-.034a2.9,2.9,0,0,0-.086-.309l-.1-.326-.1-.309-.017-.069a3.016,3.016,0,0,0-.155-.395l-.206-.412-.205-.377-.1-.155-.1-.171a2.788,2.788,0,0,1-.206-.378l-.138-.051a2.6,2.6,0,0,0-.171-.292c-.069-.086-.1-.155-.155-.223a.811.811,0,0,1-.086-.121,1.389,1.389,0,0,1-.137-.206l-.069-.1a2.286,2.286,0,0,0-.257-.327L138.761,27l-.171-.189-.241-.275L137.817,26a2.757,2.757,0,0,1-.223-.223l-.034-.034-.326-.275-.241-.223-.909-.824a1.309,1.309,0,0,0-.189-.154c-.052-.052-.155-.1-.223-.172h-.017l-.378-.309a3.269,3.269,0,0,0-.463-.343.44.44,0,0,0-.121-.069l-.085-.051a1.4,1.4,0,0,1-.206-.138L133.99,23a1.761,1.761,0,0,1-.258-.121l-.24-.137-.034-.017-.567-.292c-.051-.017-.12-.051-.171-.068l-.1-.052c-.086-.034-.172-.086-.258-.12h-.017a1.771,1.771,0,0,0-.326-.12l-.1-.035-.172-.051a1.036,1.036,0,0,0-.206-.086l-.086-.034a.539.539,0,0,0-.154-.052l-.034-.017-.12-.034-.035-.017a1.4,1.4,0,0,0-.292-.086l-.583-.1-.086-.017a.841.841,0,0,0-.189-.035c-.068,0-.12-.017-.171-.017h-.7a.427.427,0,0,1-.206-.017Z"/>
        <path class="c" d="M114.457,22.571a1.944,1.944,0,0,0-.669.172,1.384,1.384,0,0,0-.275.137.516.516,0,0,0-.1.086,1.13,1.13,0,0,1-.154.12,1.572,1.572,0,0,0-.223.258,1.54,1.54,0,0,0-.138.292,1.444,1.444,0,0,0-.068.291,2.374,2.374,0,0,0-.035.344,1.1,1.1,0,0,0,.052.326l.051.171a.991.991,0,0,0,.138.224l.154.188a.884.884,0,0,0,.189.172c.034.017.069.052.1.069a.532.532,0,0,0,.172.085,1.171,1.171,0,0,0,.429.069h.137a.981.981,0,0,0,.309-.051,1.929,1.929,0,0,0,.326-.12.831.831,0,0,0,.343-.241,1.506,1.506,0,0,0,.138-.171.95.95,0,0,0,.085-.189,1.173,1.173,0,0,0,.1-.326,1.068,1.068,0,0,0,.052-.326.942.942,0,0,0,0-.309,2.3,2.3,0,0,0-.069-.344c0-.034-.017-.051-.034-.085l-.052-.138a2.317,2.317,0,0,0-.137-.309l-.1-.171a.579.579,0,0,0-.189-.172.716.716,0,0,0-.36-.1c-.086.034-.137.034-.172.051Zm2.97.241-.189.051a1.514,1.514,0,0,1-.275.189,1.3,1.3,0,0,0-.086.446.457.457,0,0,0,.018.155.278.278,0,0,0,.068.12c.017.017.035.051.052.069a.243.243,0,0,0,.068.051.62.62,0,0,0,.155.069h.1a.222.222,0,0,0,.1-.017.661.661,0,0,0,.189-.069.622.622,0,0,0,.274-.24.575.575,0,0,0,.086-.292v-.069a.481.481,0,0,0-.051-.309.469.469,0,0,0-.138-.12.392.392,0,0,0-.189-.051h-.068a.334.334,0,0,0-.12.017Zm24.2,18.245a.2.2,0,0,0-.138.051.409.409,0,0,0-.154.138.489.489,0,0,0-.069.206v.223a.239.239,0,0,0,.035.1.2.2,0,0,0,.1.1l.1.051a.279.279,0,0,0,.172.017.632.632,0,0,0,.309-.137c.017-.017.052-.034.069-.069a.346.346,0,0,0,.068-.1.382.382,0,0,0,.052-.188v-.1c0-.017-.017-.035-.017-.069a.379.379,0,0,0-.189-.24.514.514,0,0,0-.172-.035l-.171.052Zm.034,1.905a.475.475,0,0,0-.257.1,1.258,1.258,0,0,0-.155.155.734.734,0,0,0-.086.274.3.3,0,0,0-.017.12v.172a.154.154,0,0,0,.052.12.279.279,0,0,0,.1.1l.051.017a.3.3,0,0,0,.086.035.841.841,0,0,0,.292,0l.137-.052a.439.439,0,0,0,.24-.189.49.49,0,0,0,.069-.137.81.81,0,0,0,.051-.292.468.468,0,0,0-.137-.326c-.034-.034-.069-.051-.1-.086a.347.347,0,0,0-.189-.051h0a.186.186,0,0,1-.137.034Zm1.253-.789a.365.365,0,0,0-.275.326v.017a.19.19,0,0,0,0,.137c0,.017.017.034.017.069.018.017.035.051.052.068l.051.035c.018.017.052.017.069.034a.357.357,0,0,0,.189,0,.524.524,0,0,0,.172-.086.443.443,0,0,0,.12-.189.239.239,0,0,0,0-.154c0-.034-.017-.051-.035-.086a.213.213,0,0,0-.051-.068c-.017-.018-.034-.018-.052-.035l-.051-.017a.157.157,0,0,0-.086-.017h-.051c-.018-.052-.052-.052-.069-.034Z"/>
      </g>
    </g>
    <rect class="b" x="58.663" y="61.002" width="43.032" height="43.032" rx="6.851"/>
    <g>
      <path class="c" d="M96.536,80.313a1.05,1.05,0,0,0-.145.111,1.88,1.88,0,0,1-.2.193.953.953,0,0,0-.076.1.634.634,0,0,0-.085.2,1.491,1.491,0,0,0-.04.326c0,.049,0,.1,0,.146,0,.031,0,.062.007.093a.705.705,0,0,0,.086.256.536.536,0,0,0,.169.166.563.563,0,0,0,.117.067.875.875,0,0,0,.179.053,1.326,1.326,0,0,0,.3.044,1.03,1.03,0,0,0,.242-.023.814.814,0,0,0,.26-.112.483.483,0,0,0,.068-.051,1.023,1.023,0,0,0,.1-.089.837.837,0,0,0,.156-.235,1.009,1.009,0,0,0,.06-.228,1.609,1.609,0,0,0,.02-.229.732.732,0,0,0,0-.081v-.013c0-.022,0-.044,0-.065a.907.907,0,0,0-.04-.2,1.046,1.046,0,0,0-.078-.17.939.939,0,0,0-.126-.162,1.125,1.125,0,0,0-.1-.093,1.369,1.369,0,0,0-.116-.084.473.473,0,0,0-.1-.045.59.59,0,0,0-.151-.026l-.038,0a.92.92,0,0,0-.456.154Z"/>
      <path class="c" d="M98.614,83.445c-.045.008-.09.015-.134.025a.879.879,0,0,0-.184.072.732.732,0,0,0-.137.089l-.009.006A.914.914,0,0,0,98,83.7a.837.837,0,0,0-.315.321,1.7,1.7,0,0,0-.156.361,2.17,2.17,0,0,0-.078.318l0,.023a2.754,2.754,0,0,0-.041.351,1,1,0,0,0,.032.294.921.921,0,0,0,.028.118,1.107,1.107,0,0,0,.154.328,2.656,2.656,0,0,0,.206.242,1.736,1.736,0,0,0,.283.252,1.735,1.735,0,0,0,.509.2,2.037,2.037,0,0,0,.222.025,2,2,0,0,0,.309-.009,1.8,1.8,0,0,0,.193-.031,1.049,1.049,0,0,0,.249-.1.813.813,0,0,0,.163-.115,1.028,1.028,0,0,0,.121-.117,1.56,1.56,0,0,0,.117-.151,1.172,1.172,0,0,0,.084-.156,2.087,2.087,0,0,0,.127-.374c.024-.1.049-.212.064-.319a1.3,1.3,0,0,0,0-.358,1.46,1.46,0,0,0-.092-.375,1.185,1.185,0,0,0-.156-.286,2.158,2.158,0,0,0-.232-.246c-.038-.036-.076-.071-.115-.105a1.524,1.524,0,0,0-.176-.132,1.22,1.22,0,0,0-.328-.145,2.03,2.03,0,0,0-.3-.065,1.383,1.383,0,0,0-.157-.012.6.6,0,0,0-.095.007Z"/>
      <path class="c" d="M95.012,84.567a1.144,1.144,0,0,0-.42.256.731.731,0,0,0-.133.185.918.918,0,0,0-.048.1.6.6,0,0,0-.132.147.927.927,0,0,0-.081.175.913.913,0,0,0-.042.128.608.608,0,0,0-.016.1c0,.032-.006.064-.008.1l-.005.019a1.141,1.141,0,0,0-.041.238.66.66,0,0,0,0,.077c0,.028,0,.057,0,.085a.676.676,0,0,0,.02.148.86.86,0,0,0,.037.119c.015.04.034.079.053.118a.45.45,0,0,0,.111.131.559.559,0,0,0,.183.1l.033.021a.844.844,0,0,0,.309.156.682.682,0,0,0,.11.018c.046,0,.09.008.136.008a.547.547,0,0,0,.09-.008,1.481,1.481,0,0,0,.2.011,1.53,1.53,0,0,0,.261-.035,1.683,1.683,0,0,0,.244-.064.818.818,0,0,0,.215-.113.592.592,0,0,0,.164-.188.731.731,0,0,0,.05-.119.815.815,0,0,0,.031-.107,1.11,1.11,0,0,0,.02-.293,1.681,1.681,0,0,0-.043-.274.857.857,0,0,0-.031-.11q0-.031-.006-.063a1.253,1.253,0,0,0-.071-.277,1.679,1.679,0,0,0-.236-.416.935.935,0,0,0-.173-.177.975.975,0,0,0-.253-.139.892.892,0,0,0-.381-.076h0a.539.539,0,0,0-.139.016Z"/>
      <path class="c" d="M67.633,71.03a.572.572,0,0,0-.317.277.847.847,0,0,0-.05.126,1.045,1.045,0,0,0-.032.109.86.86,0,0,0-.021.243.92.92,0,0,0,.035.215.681.681,0,0,0,.047.107.437.437,0,0,0,.074.1.4.4,0,0,0,.077.065c.032.024.065.046.1.067l.031.012a.448.448,0,0,0,.087.03.72.72,0,0,0,.131.015.649.649,0,0,0,.176-.016.442.442,0,0,0,.177-.082.4.4,0,0,0,.085-.084.566.566,0,0,0,.062-.1.95.95,0,0,0,.073-.212.644.644,0,0,0,.012-.138.673.673,0,0,0-.012-.11.9.9,0,0,0-.027-.125.967.967,0,0,0-.051-.114.649.649,0,0,0-.124-.166l-.027-.025a.766.766,0,0,0-.083-.078.593.593,0,0,0-.192-.106.462.462,0,0,0-.105-.018l-.044,0a.279.279,0,0,0-.081.012Z"/>
      <path class="c" d="M69.3,68.733a1.072,1.072,0,0,0-.409.123.987.987,0,0,0-.146.095,1.047,1.047,0,0,0-.116.105.772.772,0,0,0-.1.139,1.39,1.39,0,0,0-.16.5,1.619,1.619,0,0,0-.017.27,1.534,1.534,0,0,0,.039.358,1.871,1.871,0,0,0,.1.31,2.291,2.291,0,0,0,.166.3,1.852,1.852,0,0,0,.11.153.864.864,0,0,0,.4.3,1.918,1.918,0,0,0,.574.122,1.082,1.082,0,0,0,.754-.279.849.849,0,0,0,.171-.183,1.093,1.093,0,0,0,.11-.222,1.735,1.735,0,0,0,.086-.369c0-.027.008-.053.011-.08a.272.272,0,0,0,0-.049l.01-.095a.766.766,0,0,0,.008-.085c0-.048.006-.1.007-.144a1.471,1.471,0,0,0-.029-.273c-.012-.062-.027-.124-.045-.184a.969.969,0,0,0-.2-.349,1.24,1.24,0,0,0-.3-.251,1.285,1.285,0,0,0-.206-.087,1.337,1.337,0,0,0-.165-.044c-.068-.014-.136-.026-.2-.034s-.115-.024-.173-.034a.967.967,0,0,0-.186-.016q-.043,0-.087,0Z"/>
      <g>
        <path class="c" d="M93.042,82.54c-.019-.151-.048-.308-.073-.446l0-.018c-.019-.1-.039-.212-.056-.32-.008-.065-.015-.131-.021-.2-.009-.105-.024-.214-.037-.31v-.009l-.008-.056,0,.011v-.018c-.019-.132-.039-.265-.062-.4l-.018-.107v-.009c-.014-.084-.029-.179-.048-.271l-.01-.052c-.022-.1-.048-.23-.066-.355s-.04-.253-.072-.4c-.036-.165-.086-.329-.134-.488l0-.005v-.006q-.033-.1-.063-.21a8.055,8.055,0,0,0-.272-.778l-.06-.15v-.005l-.007-.016,0-.006c-.052-.13-.1-.264-.16-.4-.211-.517-.439-1.065-.714-1.585-.125-.235-.258-.456-.383-.661l-.034-.054-.009-.016c-.047-.077-.1-.163-.153-.244s-.092-.137-.144-.214l-.01-.015-.066-.1c-.146-.215-.315-.417-.479-.613l-.006-.007-.05-.059c-.088-.1-.176-.206-.251-.29-.043-.048-.085-.1-.127-.146s-.077-.09-.116-.135a5.868,5.868,0,0,0-.522-.512,8.251,8.251,0,0,0-.686-.553c-.179-.128-.367-.267-.558-.414s-.371-.265-.514-.358a5.542,5.542,0,0,0-.575-.329c-.28-.135-.5-.233-.7-.319-.1-.044-.2-.092-.3-.134l-.021-.01-.014-.006c-.116-.054-.229-.106-.34-.154l-.011,0-.027-.012-.027-.011.023.014c-.118-.053-.254-.109-.439-.182l-.038-.017c-.1-.045-.214-.092-.323-.135a3.147,3.147,0,0,0-.33-.1l-.04-.01-.056-.016c-.043-.012-.086-.024-.13-.034s-.1-.021-.143-.03l-.071-.015c-.15-.03-.277-.058-.391-.086-.095-.023-.191-.053-.283-.082l-.01,0-.008,0-.058-.018a2.352,2.352,0,0,0-.3-.068l-.017,0-.066-.013c-.131-.025-.261-.05-.392-.077l-.173-.031c-.063-.011-.127-.022-.191-.036s-.147-.033-.218-.051l-.011,0-.017,0,0,0-.035-.009c-.036-.009-.073-.019-.109-.03h0c-.055-.016-.119-.034-.18-.046a2.916,2.916,0,0,0-.384-.046l-.045,0h-.046c-.064,0-.137-.007-.208-.015-.129-.017-.268-.035-.412-.045-.126-.009-.249-.012-.4-.014l-.361,0h-.005a2.042,2.042,0,0,0-.321.032h0l-.049.008c-.075.008-.156.013-.248.016a1.979,1.979,0,0,0-.277.035l-.036.006-.034.006-.1.008a2.247,2.247,0,0,0-.259.039c-.05.01-.1.023-.143.034l-.017,0c-.071.018-.131.033-.192.044s-.113.015-.17.028l-.035.007c-.037.009-.074.017-.112.024h-.01c-.051.006-.1.012-.151.02l-.073.014-.014,0-.067.013q-.038.008-.075.012c-.029,0-.056.008-.082.014l-.07.014-.011,0-.016,0-.015,0-.053.012q-.048.012-.1.027l-.052.017c-.048.013-.1.023-.149.032-.092.017-.183.043-.263.066l-.061.018c-.094.026-.2.057-.3.094l-.112.037c-.068.022-.141.045-.212.074l-.025.011a3.055,3.055,0,0,0-.349.161l-.046.026c-.074.043-.159.091-.245.131l-.031.013-.03.013L74.5,70.5c-.09.035-.2.077-.311.129l-.053.025-.04.013-.013,0-.009,0c-.084.027-.159.052-.235.079a6.288,6.288,0,0,0-.756.311c-.1.05-.192.1-.263.142s-.124.064-.185.094l-.014.007-.083.041a4.016,4.016,0,0,0-.514.321l-.033.023c-.091.063-.181.128-.27.192s-.152.11-.228.163l-.057.04c-.123.086-.274.192-.419.3l-.005,0,0,0-.017.013-.035.027.025-.014c-.107.079-.209.161-.314.252-.066.058-.132.121-.189.177l-.076.073c-.221.211-.4.386-.559.552-.2.212-.4.4-.6.58-.095.087-.189.184-.272.271l-.009.009,0,0-.083.085c-.062.064-.124.128-.184.194a6.614,6.614,0,0,0-.447.555l-.006.008-.005,0-.076.1c-.148.2-.287.406-.409.589l-.007.012c-.148.222-.27.419-.373.6-.042.077-.089.153-.134.226l-.006.011,0,0a4.215,4.215,0,0,0-.227.4c-.077.161-.133.289-.182.414l-.054.141c-.03.076-.059.151-.089.226l-.072.178c-.073.179-.156.381-.217.584-.031.1-.06.206-.089.309l-.011.037,0,.009-.006.019c-.04.141-.079.278-.119.411l-.016.048-.015.05c-.029.092-.062.195-.087.3-.021.09-.034.188-.043.252l0,.032c-.006.034-.011.068-.016.1a6.654,6.654,0,0,0-.087.89c-.009.274-.01.553-.012.823v.018q0,.627,0,1.256v.722c0,.12.006.249.02.407l.006.085c0,.044.007.088.011.131l.018.145v.008l.009.075c.026.211.049.384.072.544l0,.01c.032.247.07.527.124.8.031.157.057.3.079.423l.02.115.009.053c.015.091.03.182.047.273s.033.164.048.236l0,.015c.012.058.025.115.036.173.017.083.038.167.057.241l0,.02c.012.045.023.091.034.136.062.267.131.518.213.766.035.106.067.2.1.281.041.114.091.23.131.323l0,.012c.065.156.135.313.207.468l.024.051.012.026.015.031c.036.075.085.178.129.28.1.23.189.437.283.631q.076.157.162.306c.054.094.115.184.169.263l.141.2.007.009c.064.091.143.2.212.311s.117.178.173.254.092.118.149.187l0,.005.081.1c.057.077.113.154.169.232l.007.01.013.018.015.022c.064.088.13.18.2.267l.033.043c.043.056.087.114.134.167s.095.1.143.155c.089.094.176.186.268.279l.088.089c.057.059.122.125.186.186s.121.112.193.177l.11.1c.045.041.09.082.136.122l.011.009.02.018c.049.044.1.087.146.132.1.1.208.186.3.262.119.1.25.2.391.3.059.042.119.082.179.122l.006,0,.02.014.147.1.026.018.006,0c.2.142.412.289.632.418.109.063.227.126.373.2.18.087.319.153.475.213.253.1.517.19.764.272s.519.155.782.222c.229.059.482.116.8.181l.057.012.019,0,.009,0,.011,0c.094.019.192.04.287.062l.117.029.04.01.038.009.036.009.027.007.116.028.063.015.01,0c.094.023.211.051.323.069.151.025.312.046.522.068l.519.059.014,0,.029,0,.264.031c.094.01.187.022.281.034h.01c.168.021.356.045.54.06.519.041,1.044.042,1.551.043h.2a5.192,5.192,0,0,0,.9-.087c.172-.03.352-.065.511-.1h.006l.027-.005.073-.014.011,0,.183-.035c.125-.024.251-.051.4-.084.077-.017.158-.033.224-.046l.013,0,.029-.006.129-.025a7.2,7.2,0,0,0,.74-.183l.113-.036c.181-.056.407-.127.623-.2.107-.037.221-.082.3-.115l.069-.028c.132-.052.306-.121.474-.194.131-.058.249-.11.368-.17s.23-.122.323-.174l.046-.025a6.246,6.246,0,0,0,.7-.454c.107-.079.214-.159.319-.24l-.01,0,.707-.522c.129-.094.281-.207.428-.328.041-.033.081-.067.121-.1.076-.065.135-.114.2-.162.251-.195.453-.366.637-.537.063-.059.123-.121.181-.181l.007-.007.094-.1c.073-.074.145-.151.2-.21l.083-.088a7.207,7.207,0,0,0,.568-.666c.146-.2.3-.412.48-.671.143-.2.286-.425.447-.7.151-.249.285-.511.415-.764l.038-.073.021-.041.006-.012c.041-.078.092-.175.137-.273.065-.141.131-.292.208-.476.1-.241.183-.5.249-.706l0-.009c.118-.369.252-.8.344-1.231.106-.494.184-.94.238-1.362v-.008c.04-.287.081-.585.1-.888.007-.132.02-.264.033-.392s.024-.255.032-.385c.015-.266.017-.525.019-.754A6.221,6.221,0,0,0,93.042,82.54Zm-7.433,3.577a1.722,1.722,0,0,1-.018.227c-.007.043-.014.086-.023.129s-.016.074-.025.11l0,.019a.516.516,0,0,0-.008.077c0,.015,0,.03,0,.045v.037a1.265,1.265,0,0,1-.013.15l-.009.053c-.006.037-.011.075-.016.112s-.008.094-.01.156v.048c0,.029,0,.058,0,.087s-.009.086-.016.128l-.006.032c0,.028-.01.058-.013.087s0,.053-.007.08l0,.051c0,.05-.011.1-.018.149l-.012.092-.01.081c-.007.056-.014.113-.019.169-.008.084-.015.168-.022.252s-.013.161-.026.243-.024.158-.031.248l0,.053c0,.025,0,.05-.005.075s-.008.066-.014.1l0,.02c-.011.074-.024.161-.033.249,0,.043,0,.086-.006.128s0,.067,0,.1a1.094,1.094,0,0,1-.014.115l-.009.044c-.005.024-.009.049-.013.073a1.118,1.118,0,0,0-.011.115v.018a.42.42,0,0,1-.006.062.076.076,0,0,1-.015.041l-.015.017a.086.086,0,0,1-.055.021h-.007a.071.071,0,0,1-.031-.01l-.011.013a.083.083,0,0,1-.046.022h-.027l-.044,0h-.018l-.026,0-.042,0h-.132l-.027,0h-.005l-.023,0h-.064l-.035,0h-.01l-.024,0-.027,0h-.056l-.05,0h-.015l-.034,0-.031,0h-.042c-.029,0-.059,0-.088,0s-.04,0-.06,0H83.98c-.019,0-.039,0-.064,0h-.007c-.021,0-.043,0-.064,0h-.059c-.024,0-.049,0-.073,0a.489.489,0,0,0-.066,0h-.066c-.024,0-.048,0-.072,0H83.5a.647.647,0,0,0-.076,0h-.073c-.026,0-.052,0-.078,0s-.046,0-.069,0H83.2a.608.608,0,0,0-.061,0h0c-.022,0-.041,0-.062,0H83.06l-.077,0c-.026,0-.052-.005-.078-.005h-.064c-.034,0-.068,0-.1,0H82.68c-.027,0-.056,0-.089,0h-.008c-.026,0-.052,0-.078.006l-.025,0-.047,0h-.017a.881.881,0,0,1-.135-.013l-.012,0c-.033,0-.066-.005-.1-.006h-.023l-.082,0-.055,0-.095,0h-.046l-.028,0-.063,0-.043,0-.017,0a.684.684,0,0,1-.09.008h-.014l-.092-.008-.037,0c-.032,0-.064,0-.1,0h-.042c-.029,0-.057,0-.085,0l-.038,0c-.034,0-.071,0-.108,0h-.029l-.048,0c-.026,0-.052,0-.078,0-.08,0-.18,0-.275.011l-.04,0c-.045,0-.091.008-.137.01H80.14l-.113,0h-.189c-.043,0-.093,0-.145,0l-.046,0c-.041,0-.082-.005-.123-.005h-.165l-.088-.006-.078,0-.033,0c-.034,0-.069,0-.1,0h-.034l-.062,0-.108.005H78.8l-.121,0c-.044,0-.093,0-.153,0h-.184c-.047,0-.095,0-.142,0h-.022l-.095-.007h-.022l-.054,0h-.025c-.039,0-.079,0-.118,0h-.02l-.159,0h-.014l-.088,0c-.023,0-.046,0-.07,0H77.47c-.048,0-.091,0-.132,0l-.029,0a.546.546,0,0,1-.057,0h-.115l-.125,0h-.178c-.039,0-.079,0-.117,0l-.043,0-.237.008-.092,0-.09,0h-.021a.608.608,0,0,1-.061,0c-.054,0-.109,0-.17-.007l-.025,0c-.048,0-.1-.008-.148-.009h-.036c-.044,0-.087,0-.13.007-.114.013-.23.02-.353.022l-.108,0c-.061,0-.123,0-.185,0h-.073c-.046,0-.084,0-.12,0l-.091,0h-.1c-.037,0-.075,0-.111.007l-.029,0-.023,0-.056,0h-.035l-.04,0h-.224c-.029,0-.05,0-.071,0L74,90.247l-.044.007c-.042.006-.083.01-.122.013s-.072,0-.111,0h-.007a.864.864,0,0,0-.088,0l-.031,0-.016,0-.02.011a.1.1,0,0,1-.033.006.075.075,0,0,1-.033-.007.112.112,0,0,1-.053-.134l0-.017,0-.017,0-.028c0-.014-.007-.028-.01-.042-.007-.039-.011-.078-.014-.111s-.006-.069-.013-.107-.006-.052-.008-.077l0-.018v-.015a1.765,1.765,0,0,1-.008-.206.8.8,0,0,1,.009-.1l.005-.037a.254.254,0,0,1,0-.039.159.159,0,0,1,.007-.038.081.081,0,0,1,.048-.046.077.077,0,0,1,.03-.006H73.5a.089.089,0,0,1,.054.03h0l.042,0,.084,0a.275.275,0,0,0,.041,0l.031-.006.021,0c.035-.006.071-.011.1-.015s.077-.009.109-.015h0a.393.393,0,0,1,.048-.006h.05a.585.585,0,0,0,.073,0l.044-.008.037-.011.047-.015.059-.012.031,0,.053-.019.014-.006.041-.014.028-.01.017-.006c.019-.007.037-.014.056-.019s.049-.012.073-.018h0a.668.668,0,0,0,.1-.034h0l.029-.015.018-.012.024-.014.032-.017L74.883,89l.02-.014.016-.01c.012-.008.023-.017.034-.026l.018-.02.022-.024.041-.04.011-.01a.376.376,0,0,0,.038-.041.331.331,0,0,0,.03-.042.228.228,0,0,0,.02-.045l0-.019a.524.524,0,0,1,.026-.088l.007-.016c0-.011.011-.023.015-.034l.015-.048v0l.007-.022a.928.928,0,0,0,.023-.126c0-.045.009-.093.017-.141a2.525,2.525,0,0,0,.022-.276V87.9c0-.065,0-.132.005-.2l0-.067c0-.031,0-.063.006-.094l0-.054,0-.067c0-.039,0-.08,0-.12s.006-.073.009-.109v-.009l.009-.081c.006-.056.013-.114.016-.172v-.057l0-.057c0-.043,0-.085,0-.126v.009c0-.111,0-.225,0-.337l0-.069c0-.034,0-.068,0-.1l-.008-.159c0-.044-.006-.088-.009-.132,0-.063-.01-.129-.012-.194s0-.115,0-.164c0-.028,0-.056,0-.084s0-.046,0-.069v0c0-.058,0-.116,0-.175q0-.054,0-.108c0-.062,0-.126,0-.189,0-.048.006-.09.01-.13a1.219,1.219,0,0,0,.009-.128v-.062c0-.035,0-.07,0-.1l0-.073c0-.026,0-.052,0-.077v-.033c0-.061,0-.119,0-.173,0-.072,0-.138,0-.2v.008c0-.077,0-.155.008-.231,0-.059.006-.118.008-.177,0-.121,0-.251-.014-.411a1.887,1.887,0,0,1,0-.2c0-.053,0-.111.006-.18v-.057c0-.057,0-.115,0-.172,0-.032,0-.065,0-.1s0-.072.005-.107c0-.055-.005-.111-.009-.164s-.007-.1-.009-.152,0-.1,0-.153v-.053l0-.079v0c0-.048,0-.1,0-.144l0-.1v-.024l0-.141,0-.078v-.119c0-.062,0-.126,0-.189,0-.035,0-.073-.008-.11l0-.013c0-.038-.009-.077-.011-.116s0-.075,0-.112,0-.094,0-.14c0-.074,0-.149,0-.222v-.016c0-.038,0-.077-.005-.114s0-.05,0-.076l0-.047c0-.045,0-.092-.007-.138a1.809,1.809,0,0,1-.011-.187v-.05c0-.043,0-.085,0-.127s-.006-.08-.008-.118l0-.049v-.019c0-.022,0-.044-.005-.065l0-.045,0-.045c0-.021,0-.042,0-.062s0-.063-.009-.094l-.006-.039-.008-.048c0-.017,0-.034-.005-.052l0-.017-.007-.075-.007-.075,0-.032,0-.035,0-.04,0-.042a.76.76,0,0,0-.01-.08c0-.015,0-.029,0-.043l0-.03a.851.851,0,0,0-.022-.114l0-.011-.01-.032a.291.291,0,0,1-.012-.039l-.016-.055-.006-.024A.448.448,0,0,0,75.064,78l0-.008-.009-.022c-.005-.013-.011-.026-.017-.039l-.022-.033L75,77.885a.339.339,0,0,0-.033-.042c-.026-.025-.054-.048-.082-.07l-.008-.007-.06-.048-.01-.008-.032-.025-.031-.014-.022-.008-.024-.009c-.038-.016-.076-.031-.114-.048s-.083-.037-.126-.054l-.041-.017-.069-.027a.543.543,0,0,0-.088-.016l-.065,0h-.03l-.051,0-.047-.005h-.019l-.056,0-.035-.006-.039,0-.025,0-.037,0a.834.834,0,0,1-.109-.029h0a.34.34,0,0,0-.064-.009l-.026,0-.029,0a.182.182,0,0,1-.076-.016.606.606,0,0,1-.053-.035.189.189,0,0,1-.067-.032l-.016-.012-.011-.008,0,0a.086.086,0,0,1-.014-.119.085.085,0,0,1,.049-.03.355.355,0,0,1-.034-.17v-.034c0-.014,0-.029,0-.043v-.018l0-.051v-.018a.974.974,0,0,1,0-.143.257.257,0,0,1,.031-.1l0-.012a.1.1,0,0,1,.036-.112.111.111,0,0,1,.064-.018.457.457,0,0,1,.052,0l.024,0h.016l.035,0,.037-.006.026,0,.012,0,.054-.005h.07a.893.893,0,0,0,.155-.014c.058-.011.109-.019.157-.024s.1-.012.155-.016l.025,0c.044,0,.089-.007.133-.007h.009a1.376,1.376,0,0,1,.181.012c.045,0,.09.01.137.013s.107.006.161.006h.023l.161-.006h.045c.038,0,.077,0,.116,0s.056,0,.08,0l.1.009.088.008c.054,0,.1.005.147.005h.148l.145,0,.152,0c.06,0,.121,0,.179-.009.038,0,.076-.006.114-.007l.061,0c.032,0,.065,0,.1,0h.006c.043,0,.087,0,.136,0l.115,0H76.9l.111,0h.032l.131,0h.009c.046,0,.09,0,.124,0h0l.061,0,.164.006.129,0c.061,0,.124.007.184.012l.1.008h.007l.117.008.053,0,.054,0c.046,0,.095,0,.153,0h.123c.054,0,.109,0,.162-.007l.11,0c.066,0,.132,0,.182,0h.229c.077,0,.147,0,.217,0l.117.006H79.5l.067,0h.225c.051,0,.1,0,.153.008l-.007,0,.131.009c.031,0,.067,0,.1,0h.014l.093,0h.046l.109,0h.031l.076,0h.582l.071,0,.087,0h.083l.076,0,.123,0c.055,0,.112,0,.168.006a.09.09,0,0,1,.076-.06c.037,0,.075-.006.111-.007l.039,0,.072,0,.071,0,.082,0c.062,0,.125-.008.188-.009h.04c.086,0,.176,0,.264-.008l.085-.005.091,0h.027l.141-.007c.025,0,.051,0,.082,0l.092,0h.049c.04,0,.082,0,.128-.005s.105,0,.163,0,.093,0,.138,0l.029,0,.134,0h.1l.09,0,.062,0c.029,0,.057,0,.085,0h.172c.075,0,.144,0,.211,0h.191a.405.405,0,0,1,.07.007.316.316,0,0,1,.052.017l.022,0,.018,0a.086.086,0,0,1,.068.077v0a.275.275,0,0,1,.009.121v.021c0,.038-.007.075-.012.111l0,.027c0,.027-.006.054-.008.081l0,.029v.019c0,.059-.009.123-.018.2,0,.031-.007.063-.012.095l0,.026c-.005.029-.01.057-.013.085s-.01.083-.014.124l-.008.073c-.006.059-.013.119-.018.178s0,.093-.006.138c0,.029,0,.057,0,.086v.007c0,.042,0,.086-.008.129l-.006.066,0,.044,0,.066c-.006.083-.014.164-.022.254,0,.052,0,.106-.005.157,0,.033,0,.065,0,.1s0,.081,0,.122,0,.084,0,.126c0,.078,0,.156,0,.236s.006.163.006.245c0,.044,0,.089,0,.134s0,.069,0,.1v.016c0,.07,0,.141-.006.212v0l-.006.071,0,.03v.036l-.006.061,0,.054-.006.086c0,.03,0,.062,0,.091a.086.086,0,0,1-.081.089h0a.083.083,0,0,1-.067-.033h-.1a.3.3,0,0,0-.042,0l-.036.006-.02,0-.033,0c-.013,0-.026,0-.038-.006l-.021,0a.342.342,0,0,0-.044,0c-.028.005-.056.011-.085.015a.219.219,0,0,1-.036,0,.263.263,0,0,1-.049,0,.471.471,0,0,1-.1-.033l-.009,0H84l0,0a.085.085,0,0,1-.024-.009l-.027-.018-.006,0a.137.137,0,0,1-.039-.029.35.35,0,0,1-.033-.043.6.6,0,0,1-.052-.108,1.723,1.723,0,0,1-.062-.188c-.008-.035-.018-.07-.028-.1-.005-.018-.008-.036-.012-.053l-.01-.044c-.009-.033-.019-.069-.033-.113s-.024-.081-.033-.116-.018-.08-.027-.12-.017-.082-.027-.123l-.015-.067-.014-.059c-.01-.041-.023-.081-.036-.125-.022-.071-.046-.141-.069-.211l-.006-.017-.02-.059-.013-.041,0-.007a1,1,0,0,0-.041-.108L83.3,78.4l0-.005c-.015-.029-.03-.059-.046-.088a.831.831,0,0,0-.063-.092l-.055-.077c-.025-.035-.051-.071-.078-.105L83.019,78l-.013-.013-.025-.026-.029-.031a.4.4,0,0,0-.031-.027l-.017-.016a.57.57,0,0,0-.044-.037l-.013-.008-.035-.023-.023-.016,0,0-.019-.011-.035-.022-.02-.015-.007,0-.017-.009-.011-.005-.02-.011-.016-.008c-.022-.01-.04-.019-.057-.025l-.008,0-.021,0a.218.218,0,0,1-.044-.011l0,0h-.09l-.021,0-.02,0H82.36a.471.471,0,0,1-.053,0h-.016l-.052-.006-.041,0h-.011c-.057,0-.115-.01-.173-.012-.035,0-.071,0-.106-.008l-.071-.006c-.051,0-.1,0-.158,0h-.042c-.052,0-.105,0-.157-.006l-.057,0-.044,0c-.055,0-.112-.006-.168-.007h-.1c-.029,0-.058,0-.088,0L81,77.6h-.108l-.059,0-.061,0-.115,0-.134,0c-.058,0-.116-.008-.172-.014l-.068-.006c-.068-.006-.141-.012-.215-.013h-.048l-.126,0h-.051l-.042,0-.081,0h.008l-.115,0c-.05,0-.1,0-.146,0l-.019,0c-.028,0-.058,0-.087,0h-.105l-.051,0-.1,0c-.042,0-.083.005-.123.008l-.037,0-.038,0c-.045,0-.092.008-.138.008h-.147l-.091,0-.08,0-.037,0c-.026,0-.052,0-.078,0H78.26c-.022,0-.043,0-.064.008l-.029,0c-.025,0-.051.006-.076.009l-.047,0-.032,0-.072.008h-.115l-.05.005-.034,0-.068.008v.04l0,.019c0,.011,0,.021,0,.032s0,.046,0,.067,0,.037,0,.054,0,.035,0,.052l0,.038c0,.025,0,.049,0,.074s0,.054,0,.081v.083c0,.024,0,.047,0,.071l0,.044c0,.026,0,.053,0,.079,0,.041,0,.082,0,.121,0,.084-.009.166-.01.247v.066c0,.053,0,.106,0,.159v.038c0,.028,0,.055,0,.082s0,.057,0,.085l0,.03c0,.064,0,.129,0,.192v.035c0,.022,0,.044,0,.066l0,.052v.029c0,.033,0,.065,0,.1l0,.076,0,.052c0,.029,0,.059,0,.089v.058c0,.03,0,.061,0,.092s-.005.066-.008.1l0,.03c0,.03,0,.055,0,.081V80.4c0,.037,0,.074,0,.111v.037c0,.039,0,.08,0,.12,0,.055,0,.108-.008.162l0-.01,0,.035v.026c0,.044,0,.083,0,.12s0,.054,0,.081l0,.036a.512.512,0,0,0,0,.056l0,.06,0,.109c0,.034,0,.071,0,.118v.026c0,.034,0,.069,0,.1a1.1,1.1,0,0,0,.008.124c0,.025,0,.05.008.075l0,.05.007.068c.006.05.012.1.014.152l0,.071c0,.055.007.111.007.167,0,.038,0,.077.007.114a1.048,1.048,0,0,1,.007.125v.054c0,.021,0,.041,0,.062V82.7h.3c.025,0,.049,0,.073,0l.041,0c.023,0,.046,0,.07,0h.024l.086,0,.023,0c.031,0,.064-.006.1-.006h.148l.083,0q.04,0,.081,0h.029c.02,0,.04,0,.06,0l.059,0h.115c.076,0,.153.006.231.011.023,0,.046,0,.069,0h.506l.124,0,.034,0,.085,0,.04,0,.076,0a2.145,2.145,0,0,0,.229-.015l.054-.007.054-.008.04,0,.065-.007.033-.008.029-.006.022,0,.05-.011.034-.01.037-.009c.026-.007.051-.015.076-.024a.507.507,0,0,0,.082-.046l.036-.028.044-.033a.962.962,0,0,0,.084-.085l.005,0,.016-.017c.019-.02.039-.042.057-.064a.432.432,0,0,0,.036-.067l0-.015c.008-.026.017-.052.027-.077s.019-.046.027-.068l0-.011a.729.729,0,0,0,.021-.115.736.736,0,0,1,.012-.08l.01-.041a.5.5,0,0,0,.015-.067.312.312,0,0,1,.011-.053l.02-.054,0-.009a.889.889,0,0,0,.028-.1.534.534,0,0,0,.013-.088l0-.04v-.04a.436.436,0,0,1,.018-.1c.01-.033.017-.066.024-.1s.009-.041.014-.062c.009-.036.015-.063.019-.089l.008-.041.007-.042a.6.6,0,0,1,.027-.1l.011-.031.009-.024a.109.109,0,0,1,.014-.023l0,0,.017-.02a.183.183,0,0,1,.093-.063.333.333,0,0,1,.089-.01.862.862,0,0,1,.1.007h.008l.036,0,.018,0,.041,0,.041,0,.043,0a.682.682,0,0,0,.09-.007l.017,0a.289.289,0,0,1,.06-.009h.006a.319.319,0,0,1,.054.005h.085a.114.114,0,0,1,.045.01.09.09,0,0,1,.042.05.088.088,0,0,1,.04.077,1.122,1.122,0,0,0,0,.116v0a.881.881,0,0,1,0,.089l0,.026c0,.02,0,.041,0,.061,0,.057,0,.12,0,.2l0,.052c0,.047.006.1.005.144v.021c0,.05,0,.1,0,.153s0,.087,0,.124,0,.064,0,.1V81.9a1.279,1.279,0,0,1,0,.135l0,.02c0,.018,0,.035,0,.052s0,.032,0,.047v.022l0,.039c0,.04.006.081.006.121s0,.057-.006.084l-.005.045a2.228,2.228,0,0,0,0,.271v.014c0,.031,0,.068,0,.105s0,.07,0,.1c0,.071,0,.142,0,.215v.112l0,.056,0,.056c0,.066,0,.136,0,.2,0,.037,0,.075,0,.112v.056c0,.027,0,.055,0,.082v.033q0,.044,0,.087l0,.131c0,.046,0,.093,0,.138s0,.075,0,.113V84.4c0,.024,0,.049,0,.073V84.5c0,.032,0,.064,0,.1,0,.053.006.1.006.139a.542.542,0,0,1,0,.057c0,.025,0,.051,0,.076a.75.75,0,0,1,0,.106l0,.065,0,.034v.016a1.231,1.231,0,0,0-.007.182c0,.017,0,.034,0,.052v.017l0,.031v.011a.644.644,0,0,1,0,.076c0,.025-.005.05-.006.074l0,.023v.011a.126.126,0,0,1-.036.1l-.01.006,0,.014a.089.089,0,0,1-.025.064.077.077,0,0,1-.056.025h-.007a.329.329,0,0,0-.054,0c-.032.007-.063.012-.093.016a.736.736,0,0,1-.08.006h-.021l-.026,0-.049,0a.208.208,0,0,1-.043,0l-.03-.006a.54.54,0,0,0-.058-.01l-.076-.005-.024,0-.052-.006a.281.281,0,0,1-.07-.014l-.008,0a.234.234,0,0,1-.046-.019.453.453,0,0,1-.046-.03.41.41,0,0,1-.064-.061l0,0a.2.2,0,0,1-.029-.04.317.317,0,0,1-.017-.037.375.375,0,0,0-.024-.044l-.015-.028-.016-.028-.006-.01a.277.277,0,0,1-.031-.062.382.382,0,0,1-.011-.057v0c0-.019-.007-.037-.009-.056v-.014l0-.017,0-.018c0-.02-.009-.041-.012-.061l0-.026,0-.025-.006-.033-.008-.04a.327.327,0,0,0-.021-.074c-.008-.017-.016-.035-.023-.053s-.008-.025-.012-.037l0-.013-.009-.028c-.009-.029-.019-.059-.027-.09a.419.419,0,0,0-.026-.07c-.007-.017-.015-.035-.021-.053l-.009-.025-.011-.031a.337.337,0,0,1-.012-.055v0h0v0l0-.01,0-.016-.007-.022-.015-.028-.017-.032L81.1,84.4l-.026-.053-.014-.026-.022-.043A.288.288,0,0,0,81,84.217a.265.265,0,0,0-.042-.04c-.041-.027-.083-.051-.118-.07a.8.8,0,0,0-.116-.051l-.034-.01-.034-.01-.022-.007a.474.474,0,0,0-.05-.015l-.023-.006c-.046-.012-.094-.024-.142-.032l-.091-.013c-.026,0-.052-.007-.078-.011l-.011,0-.024,0c-.044-.008-.091-.016-.136-.02s-.075,0-.112-.006-.069,0-.1,0c-.05,0-.1-.009-.149-.014l-.077-.008q-.041,0-.087,0c-.041,0-.082,0-.121,0l-.065,0h-.043l-.092-.008-.019,0-.072,0-.062,0c-.044,0-.091-.006-.137-.006h-.135c-.043,0-.091,0-.148-.01s-.1-.005-.153-.005-.117,0-.172,0c-.035,0-.07,0-.106,0-.085,0-.168,0-.246-.01h-.04c-.041,0-.083,0-.124.006l-.027,0-.039,0-.039,0H77.7l-.009.047c0,.025-.008.05-.01.076a.883.883,0,0,0,0,.09c0,.022,0,.044,0,.066v.029a.586.586,0,0,0,0,.059c0,.014,0,.029,0,.044,0,.038,0,.078,0,.118s0,.084,0,.122v.3c0,.023,0,.046,0,.069,0,.04,0,.081,0,.122,0,.076,0,.167,0,.258v.031c0,.032,0,.063,0,.095v.028c0,.031,0,.063,0,.095l0,.041c0,.03,0,.06,0,.089v.045c0,.025,0,.05,0,.075s0,.065,0,.1c0,.05,0,.1,0,.151v.053c0,.022,0,.045,0,.067,0,.043-.005.086-.009.129-.007.078-.008.158-.009.235v.212l0,.056c0,.08,0,.164,0,.25v.01c0,.038,0,.074,0,.112a1.028,1.028,0,0,0,0,.111l0,.046c0,.025,0,.049.006.074l.006.082,0,.04,0,.042c0,.053.008.107.009.16v.059c0,.041,0,.083,0,.125,0,.027,0,.054.007.084a.862.862,0,0,0,.011.087l.007.031q.007.03.012.06t.006.081v.02a1.1,1.1,0,0,0,.016.117c0,.025.008.05.011.076a.868.868,0,0,0,.02.1l0,.019a.629.629,0,0,0,.017.062.444.444,0,0,0,.045.093l.026.042.029.047a.836.836,0,0,0,.09.107.432.432,0,0,0,.2.091l.04.007.028.008.011,0,.034.011h.016l.072.011h.04a.635.635,0,0,1,.105.016l0,0,.022.005c.038,0,.082-.005.125-.005.024,0,.046,0,.067,0h.018c.024,0,.049,0,.073,0h.012l.08,0,.071-.007.043,0c.04,0,.081-.008.131-.01h.013l.237-.014.126,0,.049,0c.024,0,.047,0,.071,0h.247l.066,0h.05l.1,0h.023l.052,0h.1l.092,0c.048,0,.091,0,.131,0H80.6l.083,0,.084,0,.164,0h.022c.038,0,.077,0,.114,0h.016l.03,0c.022,0,.044,0,.067,0l.088-.005.077,0,.109-.007c.04,0,.08,0,.12,0l.09,0,.028,0,.092-.005.09,0h.252c.053,0,.109-.01.177-.02a1.791,1.791,0,0,1,.188-.016c.056,0,.113-.013.168-.022L82.7,88.9l.059-.009.06-.01a.7.7,0,0,0,.091-.019c.022-.008.043-.017.064-.027l.028-.013.021-.009a.468.468,0,0,0,.078-.038c.026-.015.052-.032.08-.046l.025-.014a.375.375,0,0,0,.044-.024,1.116,1.116,0,0,0,.149-.126.818.818,0,0,1,.081-.074.7.7,0,0,0,.063-.059l.049-.055a1.936,1.936,0,0,0,.128-.17c.019-.029.039-.057.059-.086s.038-.061.055-.093l0-.01.019-.037c.012-.028.023-.053.031-.076s.012-.034.019-.05l.018-.048c.007-.019.014-.039.02-.059l.01-.032A.842.842,0,0,0,84,87.592a.719.719,0,0,1,.024-.079l.015-.043c.016-.05.035-.1.055-.148l.01-.026.009-.023.009-.022.006-.015.01-.025a.487.487,0,0,1,.04-.087l.01-.019.011-.024,0,0,.007-.019.01-.024L84.233,87l0-.009.009-.019.019-.038a.382.382,0,0,0,.013-.036l.011-.03.008-.02.011-.03a.423.423,0,0,0,.024-.068.234.234,0,0,1,.009-.038.217.217,0,0,1,.019-.041l.01-.023.018-.039a.461.461,0,0,0,.025-.071l0-.006a.128.128,0,0,1,.007-.028.358.358,0,0,1,.024-.048l.008-.017.021-.044.013-.022.01-.017c.012-.026.023-.05.037-.074l.017-.027.016-.025,0-.005.009-.021a.163.163,0,0,1,.022-.038l.006-.006.006-.007.011-.013a.287.287,0,0,1,.029-.031.269.269,0,0,1,.047-.034l.038-.02.011-.005.033-.019.013-.008a.433.433,0,0,1,.1-.039l.017,0a.528.528,0,0,1,.078-.021l.056-.007.026,0a.826.826,0,0,1,.1-.007h.069l.021,0,.042,0h.034c.022,0,.043,0,.065,0l.014,0,.026,0h.027a.537.537,0,0,1,.07.011.084.084,0,0,1,.05.044.1.1,0,0,1,.008.044.09.09,0,0,1,.013.051Z"/>
        <polygon class="c" points="81.148 84.518 81.148 84.516 81.148 84.518 81.148 84.518"/>
        <polygon class="c" points="82.499 82.744 82.499 82.733 82.498 82.725 82.499 82.744"/>
      </g>
    </g>
  </g>
</svg>
