<?xml version="1.0" encoding="utf-8"?>
<!-- Generator: Adobe Illustrator 24.3.0, SVG Export Plug-In . SVG Version: 6.00 Build 0)  -->
<svg version="1.1" id="Layer_1" xmlns:v="https://vecta.io/nano"
	 xmlns="http://www.w3.org/2000/svg" xmlns:xlink="http://www.w3.org/1999/xlink" x="0px" y="0px" viewBox="0 0 848.1 165.6"
	 style="enable-background:new 0 0 848.1 165.6;" xml:space="preserve">
<style type="text/css">
	.st0{fill:#8792B4;}
	.st1{fill:none;stroke:#384173;stroke-width:5;stroke-miterlimit:10;}
	.st2{fill:#384173;}
	.st3{opacity:0.88;fill:#E8E8E8;enable-background:new    ;}
	.st4{fill:#FFFFFF;}
</style>
<path class="st0" d="M110,19.5h717.3c10.1,0,18.4,8.2,18.4,18.4v106.9c0,10.1-8.2,18.4-18.4,18.4H110c-10.1,0-18.4-8.2-18.4-18.4
	v-107C91.6,27.7,99.9,19.5,110,19.5z"/>
<path class="st1" d="M109.9,19.5h717.3c10.1,0,18.4,8.2,18.4,18.4v106.9c0,10.1-8.2,18.4-18.4,18.4H109.9
	c-10.1,0-18.4-8.2-18.4-18.4v-107C91.5,27.7,99.8,19.5,109.9,19.5z"/>
<circle class="st2" cx="99.8" cy="24.6" r="20.5"/>
<path class="st3" d="M99.8,25.6l-7,8.7H91l7.9-9.9l-7.6-9.5h1.8l6.7,8.4l6.7-8.3h1.8l-7.6,9.5l7.8,9.9h-1.8
	C106.7,34.4,99.8,25.6,99.8,25.6z"/>
<g>
	<path class="st4" d="M232.5,79.9V65.2c0-0.2,0.1-0.3,0.3-0.3h2.5c0.2,0,0.3,0.1,0.3,0.3v14.7c0,0.2-0.1,0.3-0.3,0.3h-2.5
		C232.6,80.2,232.5,80.1,232.5,79.9z"/>
	<path class="st4" d="M237.8,69.9c1.6,0,2.5-1.9,1.8-1.9c-1,0-1.8-0.8-1.8-1.8c0-1,0.8-1.8,1.8-1.8c1,0,2,0.8,2,2.5
		c0,2.5-2.2,3.8-3.9,3.7V69.9z"/>
	<path class="st4" d="M243.7,79.9V69.8c0-0.2,0.1-0.3,0.3-0.3h2.3c0.2,0,0.3,0.1,0.3,0.4l0.1,1.1c0.6-1,1.6-1.8,3-1.8
		c1.4,0,2.5,0.7,3.1,1.9c0.6-1.1,1.6-1.9,3.3-1.9c2.3,0,3.7,1.6,3.7,4.4v6.3c0,0.2-0.1,0.3-0.3,0.3h-2.4c-0.2,0-0.3-0.1-0.3-0.3
		v-5.7c0-1.5-0.5-2.3-1.7-2.3c-1.1,0-1.8,0.8-1.8,2.3v5.7c0,0.2-0.1,0.3-0.3,0.3h-2.4c-0.2,0-0.4-0.1-0.4-0.3v-5.7
		c0-1.5-0.5-2.3-1.7-2.3c-1.1,0-1.8,0.8-1.8,2.3v5.7c0,0.2-0.1,0.3-0.3,0.3H244C243.8,80.2,243.7,80.1,243.7,79.9z"/>
	<path class="st4" d="M266.2,74.9c0-3.2,2.1-5.7,5.1-5.7c1.6,0,2.8,0.7,3.5,1.8l0-1.2c0-0.2,0.1-0.3,0.3-0.3h2.2
		c0.2,0,0.3,0.1,0.3,0.3v10.1c0,0.2-0.2,0.3-0.4,0.3h-2.1c-0.2,0-0.3-0.1-0.3-0.3l0-1.2c-0.7,1.1-1.9,1.8-3.5,1.8
		C268.3,80.5,266.2,78.1,266.2,74.9z M274.7,74.9c0-1.7-1.1-2.9-2.7-2.9c-1.6,0-2.8,1.2-2.8,2.9c0,1.7,1.2,2.9,2.8,2.9
		C273.6,77.7,274.7,76.6,274.7,74.9z"/>
	<path class="st4" d="M280.3,79.9V64.8c0-0.2,0.1-0.3,0.3-0.3h2.4c0.2,0,0.3,0.1,0.3,0.3v15.1c0,0.2-0.1,0.3-0.3,0.3h-2.4
		C280.4,80.2,280.3,80.1,280.3,79.9z"/>
	<path class="st4" d="M288.7,80l-3.4-10.1c-0.1-0.2,0-0.4,0.3-0.4h2.3c0.2,0,0.3,0.1,0.4,0.3l2.2,7l2.4-7c0.1-0.2,0.2-0.3,0.4-0.3
		h2.3c0.2,0,0.3,0.1,0.4,0.3l2.3,7l2.2-7c0.1-0.2,0.2-0.3,0.4-0.3h2.3c0.2,0,0.4,0.1,0.3,0.4L300,80c-0.1,0.2-0.2,0.3-0.4,0.3h-2.4
		c-0.2,0-0.3-0.1-0.4-0.3l-2.4-7l-2.4,7c-0.1,0.2-0.2,0.3-0.4,0.3h-2.4C289,80.2,288.8,80.2,288.7,80z"/>
	<path class="st4" d="M304,74.9c0-3.2,2.1-5.7,5.1-5.7c1.6,0,2.8,0.7,3.5,1.8l0-1.2c0-0.2,0.1-0.3,0.3-0.3h2.2
		c0.2,0,0.3,0.1,0.3,0.3v10.1c0,0.2-0.2,0.3-0.4,0.3h-2.1c-0.2,0-0.3-0.1-0.3-0.3l0-1.2c-0.7,1.1-1.9,1.8-3.5,1.8
		C306.1,80.5,304,78.1,304,74.9z M312.5,74.9c0-1.7-1.1-2.9-2.7-2.9c-1.6,0-2.8,1.2-2.8,2.9c0,1.7,1.2,2.9,2.8,2.9
		C311.4,77.7,312.5,76.6,312.5,74.9z"/>
	<path class="st4" d="M320.1,84l1.6-3.8l-4.2-10.4c-0.1-0.2,0-0.4,0.3-0.4h2.4c0.2,0,0.3,0.1,0.4,0.3l2.6,7l2.6-7
		c0.1-0.2,0.2-0.3,0.4-0.3h2.4c0.2,0,0.4,0.1,0.3,0.4l-5.7,14.3c-0.1,0.2-0.2,0.3-0.4,0.3h-2.3C320.2,84.4,320,84.3,320.1,84z"/>
	<path class="st4" d="M329.8,78.7c-0.1-0.2-0.1-0.4,0-0.6l0.8-1.1c0.2-0.3,0.4-0.2,0.6-0.1c0.9,0.7,1.6,1.1,2.5,1.1
		c0.7,0,1.2-0.3,1.2-0.9c0-0.5-0.3-0.8-1.1-1.1l-1.4-0.6c-1.4-0.5-2.4-1.5-2.4-2.9c0-2.1,1.8-3.3,3.8-3.3c1.4,0,2.7,0.6,3.6,1.6
		c0.1,0.2,0.1,0.3,0,0.5l-1,1.2c-0.2,0.2-0.3,0.2-0.5,0c-0.7-0.6-1.3-0.9-2-0.9c-0.7,0-1,0.4-1,0.9c0,0.5,0.4,0.8,1,1.1l1.5,0.6
		c1.4,0.5,2.4,1.5,2.4,3.1c0,2.2-1.9,3.3-4,3.3C332,80.5,330.6,79.7,329.8,78.7z"/>
	<path class="st4" d="M344.3,79.9V64.8c0-0.2,0.1-0.3,0.3-0.3h2.4c0.2,0,0.3,0.1,0.3,0.3v15.1c0,0.2-0.1,0.3-0.3,0.3h-2.4
		C344.4,80.2,344.3,80.1,344.3,79.9z"/>
	<path class="st4" d="M349.4,74.9c0-3.2,2.4-5.7,5.7-5.7c3.2,0,5.6,2.5,5.6,5.7s-2.4,5.7-5.6,5.7C351.8,80.5,349.4,78,349.4,74.9z
		 M357.8,74.9c0-1.8-1.2-2.9-2.7-2.9c-1.5,0-2.7,1.1-2.7,2.9s1.2,2.9,2.7,2.9C356.6,77.7,357.8,76.6,357.8,74.9z"/>
	<path class="st4" d="M362.2,74.9c0-3.2,2.4-5.7,5.7-5.7c3.2,0,5.6,2.5,5.6,5.7s-2.4,5.7-5.6,5.7C364.6,80.5,362.2,78,362.2,74.9z
		 M370.6,74.9c0-1.8-1.2-2.9-2.7-2.9c-1.5,0-2.7,1.1-2.7,2.9s1.2,2.9,2.7,2.9C369.4,77.7,370.6,76.6,370.6,74.9z"/>
	<path class="st4" d="M375.5,79.9V64.8c0-0.2,0.1-0.3,0.3-0.3h2.4c0.2,0,0.3,0.1,0.3,0.3v9l3.5-4.2c0.1-0.1,0.2-0.2,0.4-0.2h2.7
		c0.3,0,0.4,0.2,0.2,0.4l-3.7,4.2l4.2,5.8c0.2,0.2,0.1,0.4-0.2,0.4h-2.6c-0.2,0-0.3,0-0.4-0.2l-2.9-3.9l-1.3,1.5v2.3
		c0,0.2-0.1,0.3-0.3,0.3h-2.4C375.7,80.2,375.5,80.1,375.5,79.9z"/>
	<path class="st4" d="M387.8,65.9c0-0.9,0.7-1.7,1.7-1.7s1.7,0.7,1.7,1.7c0,0.9-0.7,1.7-1.7,1.7S387.8,66.8,387.8,65.9z M387.9,79.9
		V69.8c0-0.2,0.1-0.3,0.3-0.3h2.4c0.2,0,0.3,0.1,0.3,0.3v10.1c0,0.2-0.1,0.3-0.3,0.3h-2.4C388,80.2,387.9,80.1,387.9,79.9z"/>
	<path class="st4" d="M393.6,79.9V69.8c0-0.2,0.1-0.3,0.3-0.3h2.3c0.2,0,0.3,0.1,0.3,0.4l0.1,1.3c0.6-1.1,1.7-1.9,3.3-1.9
		c2.2,0,3.9,1.6,3.9,4.4v6.3c0,0.2-0.2,0.3-0.4,0.3h-2.4c-0.2,0-0.3-0.1-0.3-0.3v-5.6c0-1.5-0.7-2.3-2-2.3c-1.3,0-2.1,0.8-2.1,2.3
		v5.6c0,0.2-0.1,0.3-0.3,0.3h-2.4C393.7,80.2,393.6,80.1,393.6,79.9z"/>
	<path class="st4" d="M407.3,83.5c-0.2-0.2-0.2-0.4-0.1-0.6l0.6-1.2c0.1-0.2,0.3-0.3,0.5-0.2c0.9,0.5,1.9,0.8,2.9,0.8
		c1.5,0,3.1-0.7,3.1-2.7v-1.2c-0.7,1-1.8,1.6-3.3,1.6c-3,0-5.1-2.2-5.1-5.4c0-3.2,2-5.4,5.1-5.4c1.6,0,2.7,0.6,3.4,1.6l0-1
		c0-0.2,0.2-0.3,0.4-0.3h2.2c0.2,0,0.3,0.1,0.3,0.3v9.9c0,3.9-3,5.1-5.7,5.1C409.9,84.8,408.3,84.3,407.3,83.5z M414.2,74.6
		c0-1.7-1.1-2.7-2.6-2.7c-1.6,0-2.7,1.1-2.7,2.7c0,1.7,1.1,2.7,2.7,2.7C413.1,77.3,414.2,76.3,414.2,74.6z"/>
	<path class="st4" d="M425,79.9v-8.1h-1.3c-0.2,0-0.3-0.1-0.3-0.3v-1.7c0-0.2,0.1-0.3,0.3-0.3h1.3v-1.7c0-2.5,1.4-3.6,3.7-3.6
		c0.6,0,1.1,0,1.7,0.3c0.1,0.1,0.2,0.2,0.2,0.3v2c0,0.2-0.1,0.2-0.3,0.2c-0.4-0.1-0.6-0.1-0.9-0.1c-1.1,0-1.3,0.6-1.3,1.3v1.3h2.2
		c0.2,0,0.3,0.1,0.3,0.3v1.7c0,0.2-0.1,0.3-0.3,0.3h-2.2v8.1c0,0.2-0.1,0.3-0.3,0.3h-2.4C425.1,80.2,425,80.1,425,79.9z"/>
	<path class="st4" d="M431.3,74.9c0-3.2,2.4-5.7,5.7-5.7c3.2,0,5.6,2.5,5.6,5.7s-2.4,5.7-5.6,5.7C433.7,80.5,431.3,78,431.3,74.9z
		 M439.7,74.9c0-1.8-1.2-2.9-2.7-2.9c-1.5,0-2.7,1.1-2.7,2.9s1.2,2.9,2.7,2.9C438.5,77.7,439.7,76.6,439.7,74.9z"/>
	<path class="st4" d="M444.6,79.9V69.8c0-0.2,0.1-0.3,0.3-0.3h2.3c0.2,0,0.3,0.1,0.3,0.4l0.1,1.4c0.4-1.1,1.1-2,2.3-2
		c0.5,0,0.8,0.1,1,0.3c0.2,0.1,0.2,0.2,0.2,0.4v1.9c0,0.3-0.2,0.3-0.4,0.3c-0.2-0.1-0.5-0.1-0.8-0.1c-1.5,0-2.3,1-2.3,2.6v5.4
		c0,0.2-0.1,0.3-0.3,0.3H445C444.8,80.2,444.6,80.1,444.6,79.9z"/>
	<path class="st4" d="M458.1,83.5c-0.2-0.2-0.2-0.4-0.1-0.6l0.6-1.2c0.1-0.2,0.3-0.3,0.5-0.2c0.9,0.5,1.9,0.8,2.9,0.8
		c1.5,0,3.1-0.7,3.1-2.7v-1.2c-0.7,1-1.8,1.6-3.3,1.6c-3,0-5.1-2.2-5.1-5.4c0-3.2,2-5.4,5.1-5.4c1.6,0,2.7,0.6,3.4,1.6l0-1
		c0-0.2,0.2-0.3,0.4-0.3h2.2c0.2,0,0.3,0.1,0.3,0.3v9.9c0,3.9-3,5.1-5.7,5.1C460.7,84.8,459.1,84.3,458.1,83.5z M465,74.6
		c0-1.7-1.1-2.7-2.6-2.7c-1.6,0-2.7,1.1-2.7,2.7c0,1.7,1.1,2.7,2.7,2.7C463.9,77.3,465,76.3,465,74.6z"/>
	<path class="st4" d="M470.6,79.9V69.8c0-0.2,0.1-0.3,0.3-0.3h2.3c0.2,0,0.3,0.1,0.3,0.4l0.1,1.4c0.4-1.1,1.1-2,2.3-2
		c0.5,0,0.8,0.1,1,0.3c0.2,0.1,0.2,0.2,0.2,0.4v1.9c0,0.3-0.2,0.3-0.4,0.3c-0.2-0.1-0.5-0.1-0.8-0.1c-1.5,0-2.3,1-2.3,2.6v5.4
		c0,0.2-0.1,0.3-0.3,0.3h-2.4C470.7,80.2,470.6,80.1,470.6,79.9z"/>
	<path class="st4" d="M478.2,74.8c0-3.2,2.2-5.6,5.5-5.6c3.3,0,5.2,2.4,5.2,5.1c0,1.1-0.2,1.7-1.2,1.7h-6.6c0.3,1.4,1.5,2.1,3.2,2.1
		c0.8,0,1.6-0.2,2.5-0.7c0.2-0.1,0.3-0.1,0.4,0.1l0.8,1.1c0.1,0.2,0.1,0.3-0.1,0.5c-0.9,0.9-2.3,1.4-3.8,1.4
		C480.6,80.5,478.2,78.1,478.2,74.8z M486.3,73.9c-0.2-1.4-1.1-2.2-2.4-2.2c-1.3,0-2.4,0.7-2.6,2.2H486.3z"/>
	<path class="st4" d="M490.5,74.9c0-3.2,2.1-5.7,5.1-5.7c1.6,0,2.8,0.7,3.5,1.8l0-1.2c0-0.2,0.1-0.3,0.3-0.3h2.2
		c0.2,0,0.3,0.1,0.3,0.3v10.1c0,0.2-0.2,0.3-0.4,0.3h-2.1c-0.2,0-0.3-0.1-0.3-0.3l0-1.2c-0.7,1.1-1.9,1.8-3.5,1.8
		C492.5,80.5,490.5,78.1,490.5,74.9z M498.9,74.9c0-1.7-1.1-2.9-2.7-2.9s-2.8,1.2-2.8,2.9c0,1.7,1.2,2.9,2.8,2.9
		S498.9,76.6,498.9,74.9z"/>
	<path class="st4" d="M505.6,77.4v-5.5h-1.4c-0.2,0-0.3-0.1-0.3-0.3v-1.7c0-0.2,0.1-0.3,0.3-0.3h1.4v-2.5c0-0.2,0.1-0.3,0.3-0.3h2.4
		c0.2,0,0.3,0.1,0.3,0.3v2.5h1.7c0.2,0,0.3,0.1,0.3,0.3v1.7c0,0.2-0.1,0.3-0.3,0.3h-1.7V77c0,0.6,0.4,0.9,0.9,0.9c0.2,0,0.4,0,0.7,0
		c0.2,0,0.4,0.1,0.4,0.3v1.6c0,0.5-1.1,0.6-1.8,0.6C507.2,80.5,505.6,79.7,505.6,77.4z"/>
	<path class="st4" d="M519.8,78.7l0,1.2c0,0.2-0.1,0.3-0.3,0.3h-2.2c-0.2,0-0.4-0.1-0.4-0.3V64.8c0-0.2,0.1-0.3,0.3-0.3h2.4
		c0.2,0,0.3,0.1,0.3,0.3v5.9c0.7-1,1.8-1.5,3.3-1.5c3,0,5.1,2.5,5.1,5.7c0,3.2-2.1,5.7-5.1,5.7C521.7,80.5,520.5,79.8,519.8,78.7z
		 M525.5,74.9c0-1.7-1.2-2.9-2.8-2.9c-1.6,0-2.8,1.1-2.8,2.9s1.1,2.9,2.8,2.9C524.3,77.7,525.5,76.6,525.5,74.9z"/>
	<path class="st4" d="M530.4,76.1v-6.3c0-0.2,0.1-0.3,0.3-0.3h2.4c0.2,0,0.3,0.1,0.3,0.3v5.6c0,1.5,0.7,2.3,2,2.3
		c1.3,0,2.1-0.8,2.1-2.3v-5.6c0-0.2,0.1-0.3,0.3-0.3h2.4c0.2,0,0.4,0.1,0.4,0.3v10.1c0,0.2-0.2,0.3-0.4,0.3H538
		c-0.2,0-0.3-0.1-0.3-0.4l-0.1-1.3c-0.6,1.1-1.7,1.9-3.3,1.9C532,80.5,530.4,78.9,530.4,76.1z"/>
	<path class="st4" d="M542.8,78.7c-0.1-0.2-0.1-0.4,0-0.6l0.8-1.1c0.2-0.3,0.4-0.2,0.6-0.1c0.9,0.7,1.7,1.1,2.5,1.1
		c0.7,0,1.2-0.3,1.2-0.9c0-0.5-0.3-0.8-1.1-1.1l-1.4-0.6c-1.4-0.5-2.4-1.5-2.4-2.9c0-2.1,1.8-3.3,3.8-3.3c1.4,0,2.7,0.6,3.6,1.6
		c0.1,0.2,0.1,0.3,0,0.5l-1,1.2c-0.2,0.2-0.3,0.2-0.5,0c-0.7-0.6-1.3-0.9-2-0.9c-0.7,0-1,0.4-1,0.9c0,0.5,0.4,0.8,1,1.1l1.5,0.6
		c1.4,0.5,2.4,1.5,2.4,3.1c0,2.2-1.9,3.3-4,3.3C545,80.5,543.7,79.7,542.8,78.7z"/>
	<path class="st4" d="M552.9,65.9c0-0.9,0.7-1.7,1.7-1.7s1.7,0.7,1.7,1.7c0,0.9-0.7,1.7-1.7,1.7S552.9,66.8,552.9,65.9z M553.1,79.9
		V69.8c0-0.2,0.1-0.3,0.3-0.3h2.4c0.2,0,0.3,0.1,0.3,0.3v10.1c0,0.2-0.1,0.3-0.3,0.3h-2.4C553.2,80.2,553.1,80.1,553.1,79.9z"/>
	<path class="st4" d="M558.8,79.9V69.8c0-0.2,0.1-0.3,0.3-0.3h2.3c0.2,0,0.3,0.1,0.3,0.4l0.1,1.3c0.6-1.1,1.6-1.9,3.3-1.9
		c2.2,0,3.9,1.6,3.9,4.4v6.3c0,0.2-0.2,0.3-0.4,0.3h-2.4c-0.2,0-0.3-0.1-0.3-0.3v-5.6c0-1.5-0.7-2.3-2-2.3c-1.3,0-2.1,0.8-2.1,2.3
		v5.6c0,0.2-0.1,0.3-0.3,0.3h-2.4C558.9,80.2,558.8,80.1,558.8,79.9z"/>
	<path class="st4" d="M571,74.8c0-3.2,2.2-5.6,5.5-5.6c3.3,0,5.2,2.4,5.2,5.1c0,1.1-0.2,1.7-1.2,1.7H574c0.3,1.4,1.5,2.1,3.2,2.1
		c0.8,0,1.6-0.2,2.5-0.7c0.2-0.1,0.3-0.1,0.4,0.1l0.8,1.1c0.1,0.2,0.1,0.3-0.1,0.5c-0.9,0.9-2.3,1.4-3.8,1.4
		C573.4,80.5,571,78.1,571,74.8z M579,73.9c-0.2-1.4-1.1-2.2-2.4-2.2c-1.3,0-2.4,0.7-2.6,2.2H579z"/>
	<path class="st4" d="M583.2,78.7c-0.1-0.2-0.1-0.4,0-0.6L584,77c0.2-0.3,0.4-0.2,0.5-0.1c0.9,0.7,1.7,1.1,2.5,1.1
		c0.7,0,1.2-0.3,1.2-0.9c0-0.5-0.3-0.8-1.1-1.1l-1.4-0.6c-1.4-0.5-2.4-1.5-2.4-2.9c0-2.1,1.8-3.3,3.8-3.3c1.4,0,2.7,0.6,3.6,1.6
		c0.1,0.2,0.1,0.3,0,0.5l-1,1.2c-0.2,0.2-0.3,0.2-0.5,0c-0.7-0.6-1.3-0.9-2-0.9c-0.7,0-1,0.4-1,0.9c0,0.5,0.4,0.8,1,1.1l1.5,0.6
		c1.4,0.5,2.4,1.5,2.4,3.1c0,2.2-1.9,3.3-4,3.3C585.4,80.5,584,79.7,583.2,78.7z"/>
	<path class="st4" d="M593.1,78.7c-0.1-0.2-0.1-0.4,0-0.6l0.8-1.1c0.2-0.3,0.4-0.2,0.6-0.1c0.9,0.7,1.7,1.1,2.5,1.1
		c0.7,0,1.2-0.3,1.2-0.9c0-0.5-0.3-0.8-1.1-1.1l-1.4-0.6c-1.4-0.5-2.4-1.5-2.4-2.9c0-2.1,1.8-3.3,3.8-3.3c1.4,0,2.7,0.6,3.6,1.6
		c0.1,0.2,0.1,0.3,0,0.5l-1,1.2c-0.2,0.2-0.3,0.2-0.5,0c-0.7-0.6-1.3-0.9-2-0.9c-0.7,0-1,0.4-1,0.9c0,0.5,0.4,0.8,1,1.1l1.5,0.6
		c1.4,0.5,2.4,1.5,2.4,3.1c0,2.2-1.9,3.3-4,3.3C595.3,80.5,593.9,79.7,593.1,78.7z"/>
	<path class="st4" d="M602.6,74.8c0-3.2,2.2-5.6,5.5-5.6c3.3,0,5.2,2.4,5.2,5.1c0,1.1-0.2,1.7-1.2,1.7h-6.6c0.3,1.4,1.5,2.1,3.2,2.1
		c0.8,0,1.6-0.2,2.5-0.7c0.2-0.1,0.3-0.1,0.4,0.1l0.8,1.1c0.1,0.2,0.1,0.3-0.1,0.5c-0.9,0.9-2.3,1.4-3.8,1.4
		C605,80.5,602.6,78.1,602.6,74.8z M610.6,73.9c-0.2-1.4-1.1-2.2-2.4-2.2c-1.3,0-2.4,0.7-2.6,2.2H610.6z"/>
	<path class="st4" d="M614.8,78.7c-0.1-0.2-0.1-0.4,0-0.6l0.8-1.1c0.2-0.3,0.4-0.2,0.5-0.1c0.9,0.7,1.7,1.1,2.5,1.1
		c0.7,0,1.2-0.3,1.2-0.9c0-0.5-0.3-0.8-1.1-1.1l-1.4-0.6c-1.4-0.5-2.4-1.5-2.4-2.9c0-2.1,1.8-3.3,3.8-3.3c1.4,0,2.7,0.6,3.6,1.6
		c0.1,0.2,0.1,0.3,0,0.5l-1,1.2c-0.2,0.2-0.3,0.2-0.5,0c-0.7-0.6-1.3-0.9-2-0.9c-0.7,0-1,0.4-1,0.9c0,0.5,0.4,0.8,1,1.1l1.5,0.6
		c1.4,0.5,2.4,1.5,2.4,3.1c0,2.2-1.9,3.3-4,3.3C617,80.5,615.7,79.7,614.8,78.7z"/>
	<path class="st4" d="M630.4,77.4v-5.5H629c-0.2,0-0.3-0.1-0.3-0.3v-1.7c0-0.2,0.1-0.3,0.3-0.3h1.4v-2.5c0-0.2,0.1-0.3,0.3-0.3h2.4
		c0.2,0,0.3,0.1,0.3,0.3v2.5h1.7c0.2,0,0.3,0.1,0.3,0.3v1.7c0,0.2-0.1,0.3-0.3,0.3h-1.7V77c0,0.6,0.4,0.9,0.9,0.9c0.2,0,0.4,0,0.7,0
		c0.2,0,0.4,0.1,0.4,0.3v1.6c0,0.5-1.1,0.6-1.8,0.6C631.9,80.5,630.4,79.7,630.4,77.4z"/>
	<path class="st4" d="M636.7,74.9c0-3.2,2.4-5.7,5.7-5.7c3.2,0,5.6,2.5,5.6,5.7s-2.4,5.7-5.6,5.7C639.1,80.5,636.7,78,636.7,74.9z
		 M645.1,74.9c0-1.8-1.2-2.9-2.7-2.9c-1.5,0-2.7,1.1-2.7,2.9s1.2,2.9,2.7,2.9C643.9,77.7,645.1,76.6,645.1,74.9z"/>
	<path class="st4" d="M654.4,84.1V69.8c0-0.2,0.1-0.3,0.3-0.3h2.2c0.2,0,0.3,0.1,0.3,0.3l0,1.2c0.7-1.1,1.9-1.8,3.5-1.8
		c3,0,5.1,2.5,5.1,5.7c0,3.2-2.1,5.7-5.1,5.7c-1.5,0-2.6-0.6-3.3-1.5v5.1c0,0.2-0.1,0.3-0.3,0.3h-2.4
		C654.5,84.4,654.4,84.3,654.4,84.1z M662.9,74.9c0-1.7-1.2-2.9-2.8-2.9c-1.6,0-2.8,1.1-2.8,2.9s1.1,2.9,2.8,2.9
		C661.7,77.7,662.9,76.6,662.9,74.9z"/>
	<path class="st4" d="M667.4,74.9c0-3.2,2.1-5.7,5.1-5.7c1.6,0,2.8,0.7,3.5,1.8l0-1.2c0-0.2,0.1-0.3,0.3-0.3h2.2
		c0.2,0,0.3,0.1,0.3,0.3v10.1c0,0.2-0.2,0.3-0.4,0.3h-2.1c-0.2,0-0.3-0.1-0.3-0.3l0-1.2c-0.7,1.1-1.9,1.8-3.5,1.8
		C669.5,80.5,667.4,78.1,667.4,74.9z M675.9,74.9c0-1.7-1.1-2.9-2.7-2.9s-2.8,1.2-2.8,2.9c0,1.7,1.2,2.9,2.8,2.9
		S675.9,76.6,675.9,74.9z"/>
	<path class="st4" d="M681.5,79.9V69.8c0-0.2,0.1-0.3,0.3-0.3h2.3c0.2,0,0.3,0.1,0.3,0.4l0.1,1.4c0.4-1.1,1.1-2,2.3-2
		c0.5,0,0.8,0.1,1,0.3c0.2,0.1,0.2,0.2,0.2,0.4v1.9c0,0.3-0.2,0.3-0.4,0.3c-0.2-0.1-0.5-0.1-0.8-0.1c-1.5,0-2.3,1-2.3,2.6v5.4
		c0,0.2-0.1,0.3-0.3,0.3h-2.4C681.6,80.2,681.5,80.1,681.5,79.9z"/>
	<path class="st4" d="M691.3,77.4v-5.5h-1.4c-0.2,0-0.3-0.1-0.3-0.3v-1.7c0-0.2,0.1-0.3,0.3-0.3h1.4v-2.5c0-0.2,0.1-0.3,0.3-0.3h2.4
		c0.2,0,0.3,0.1,0.3,0.3v2.5h1.7c0.2,0,0.3,0.1,0.3,0.3v1.7c0,0.2-0.1,0.3-0.3,0.3h-1.7V77c0,0.6,0.4,0.9,0.9,0.9c0.2,0,0.4,0,0.7,0
		c0.2,0,0.4,0.1,0.4,0.3v1.6c0,0.5-1.1,0.6-1.8,0.6C692.8,80.5,691.3,79.7,691.3,77.4z"/>
	<path class="st4" d="M698.3,79.9V69.8c0-0.2,0.1-0.3,0.3-0.3h2.3c0.2,0,0.3,0.1,0.3,0.4l0.1,1.3c0.6-1.1,1.7-1.9,3.3-1.9
		c2.2,0,3.9,1.6,3.9,4.4v6.3c0,0.2-0.2,0.3-0.4,0.3h-2.4c-0.2,0-0.3-0.1-0.3-0.3v-5.6c0-1.5-0.7-2.3-2-2.3c-1.3,0-2.1,0.8-2.1,2.3
		v5.6c0,0.2-0.1,0.3-0.3,0.3h-2.4C698.4,80.2,698.3,80.1,698.3,79.9z"/>
	<path class="st4" d="M710.5,74.8c0-3.2,2.2-5.6,5.5-5.6c3.3,0,5.2,2.4,5.2,5.1c0,1.1-0.2,1.7-1.2,1.7h-6.6c0.3,1.4,1.5,2.1,3.2,2.1
		c0.8,0,1.6-0.2,2.5-0.7c0.2-0.1,0.3-0.1,0.4,0.1l0.8,1.1c0.1,0.2,0.1,0.3-0.1,0.5c-0.9,0.9-2.3,1.4-3.8,1.4
		C712.9,80.5,710.5,78.1,710.5,74.8z M718.5,73.9c-0.2-1.4-1.1-2.2-2.4-2.2c-1.3,0-2.4,0.7-2.6,2.2H718.5z"/>
	<path class="st4" d="M723.3,79.9V69.8c0-0.2,0.1-0.3,0.3-0.3h2.3c0.2,0,0.3,0.1,0.3,0.4l0.1,1.4c0.4-1.1,1.1-2,2.3-2
		c0.5,0,0.8,0.1,1,0.3c0.2,0.1,0.2,0.2,0.2,0.4v1.9c0,0.3-0.2,0.3-0.4,0.3c-0.2-0.1-0.5-0.1-0.8-0.1c-1.5,0-2.3,1-2.3,2.6v5.4
		c0,0.2-0.1,0.3-0.3,0.3h-2.4C723.4,80.2,723.3,80.1,723.3,79.9z"/>
	<path class="st4" d="M738.6,80l-3.4-10.1c-0.1-0.2,0-0.4,0.3-0.4h2.3c0.2,0,0.3,0.1,0.4,0.3l2.2,7l2.4-7c0.1-0.2,0.2-0.3,0.4-0.3
		h2.3c0.2,0,0.3,0.1,0.4,0.3l2.3,7l2.2-7c0.1-0.2,0.2-0.3,0.4-0.3h2.3c0.2,0,0.4,0.1,0.3,0.4L749.9,80c-0.1,0.2-0.2,0.3-0.4,0.3
		h-2.4c-0.2,0-0.3-0.1-0.4-0.3l-2.4-7l-2.4,7c-0.1,0.2-0.2,0.3-0.4,0.3H739C738.8,80.2,738.7,80.2,738.6,80z"/>
	<path class="st4" d="M755.1,65.9c0-0.9,0.7-1.7,1.7-1.7s1.7,0.7,1.7,1.7c0,0.9-0.7,1.7-1.7,1.7S755.1,66.8,755.1,65.9z M755.3,79.9
		V69.8c0-0.2,0.1-0.3,0.3-0.3h2.4c0.2,0,0.3,0.1,0.3,0.3v10.1c0,0.2-0.1,0.3-0.3,0.3h-2.4C755.4,80.2,755.3,80.1,755.3,79.9z"/>
	<path class="st4" d="M761.8,77.4v-5.5h-1.4c-0.2,0-0.3-0.1-0.3-0.3v-1.7c0-0.2,0.1-0.3,0.3-0.3h1.4v-2.5c0-0.2,0.1-0.3,0.3-0.3h2.4
		c0.2,0,0.3,0.1,0.3,0.3v2.5h1.7c0.2,0,0.3,0.1,0.3,0.3v1.7c0,0.2-0.1,0.3-0.3,0.3h-1.7V77c0,0.6,0.4,0.9,0.9,0.9c0.2,0,0.4,0,0.7,0
		c0.2,0,0.4,0.1,0.4,0.3v1.6c0,0.5-1.1,0.6-1.8,0.6C763.3,80.5,761.8,79.7,761.8,77.4z"/>
	<path class="st4" d="M779,73.6v6.3c0,0.2-0.2,0.3-0.4,0.3h-2.4c-0.2,0-0.3-0.1-0.3-0.3v-5.6c0-1.5-0.7-2.3-2-2.3
		c-1.3,0-2.1,0.8-2.1,2.3v5.6c0,0.2-0.1,0.3-0.3,0.3h-2.4c-0.2,0-0.3-0.1-0.3-0.3V64.8c0-0.2,0.1-0.3,0.3-0.3h2.4
		c0.2,0,0.3,0.1,0.3,0.3v6.2c0.6-1.1,1.7-1.9,3.3-1.9C777.3,69.2,779,70.8,779,73.6z"/>
	<path class="st4" d="M781.5,78.7c0-1,0.8-1.8,1.8-1.8c1,0,1.8,0.8,1.8,1.8c0,1-0.8,1.8-1.8,1.8C782.3,80.5,781.5,79.7,781.5,78.7z
		 M782.1,75.2l-0.3-10c0-0.2,0.1-0.3,0.3-0.3h2.4c0.2,0,0.3,0.1,0.3,0.3l-0.4,10c0,0.2-0.1,0.3-0.3,0.3h-1.8
		C782.2,75.5,782.1,75.4,782.1,75.2z"/>
	<path class="st4" d="M250,113.9v-13.6h-3.3c-0.2,0-0.3-0.1-0.3-0.3v-0.9c0-0.2,0.1-0.3,0.3-0.3h8.2c0.2,0,0.3,0.1,0.3,0.3v0.9
		c0,0.2-0.1,0.3-0.3,0.3h-3.3v13.6c0,0.2-0.1,0.3-0.3,0.3h-1C250.1,114.2,250,114.1,250,113.9z"/>
	<path class="st4" d="M255.7,108.9c0-3.2,2.2-5.7,5.3-5.7c1.9,0,3.3,0.9,4.1,2.4l0-1.8c0-0.2,0.1-0.3,0.3-0.3h0.9
		c0.2,0,0.3,0.1,0.3,0.3v10.2c0,0.2-0.1,0.3-0.3,0.3h-0.9c-0.2,0-0.3-0.1-0.3-0.3l0-1.8c-0.8,1.5-2.2,2.3-4.1,2.3
		C257.8,114.5,255.7,112.1,255.7,108.9z M265.1,108.9c0-2.5-1.6-4.2-3.9-4.2c-2.3,0-4,1.7-4,4.2c0,2.5,1.7,4.2,4,4.2
		C263.5,113,265.1,111.4,265.1,108.9z"/>
	<path class="st4" d="M270,118.1v-14.3c0-0.2,0.1-0.3,0.3-0.3h0.9c0.2,0,0.3,0.1,0.3,0.3l0,1.8c0.8-1.4,2.2-2.4,4.1-2.4
		c3.2,0,5.3,2.4,5.3,5.7c0,3.2-2.2,5.7-5.3,5.7c-1.9,0-3.3-0.9-4.1-2.3v5.9c0,0.2-0.1,0.3-0.3,0.3h-1
		C270.1,118.4,270,118.3,270,118.1z M279.5,108.9c0-2.5-1.7-4.2-4-4.2c-2.3,0-3.9,1.7-3.9,4.2c0,2.5,1.6,4.1,3.9,4.1
		C277.8,113,279.5,111.4,279.5,108.9z"/>
	<path class="st4" d="M297.3,107.6v6.3c0,0.2-0.1,0.3-0.3,0.3h-1c-0.2,0-0.3-0.1-0.3-0.3v-6.2c0-1.9-1-3.1-2.8-3.1s-3.1,1.2-3.1,3.1
		v6.2c0,0.2-0.1,0.3-0.3,0.3h-1c-0.2,0-0.3-0.1-0.3-0.3V98.8c0-0.2,0.1-0.3,0.3-0.3h1c0.2,0,0.3,0.1,0.3,0.3v6.4
		c0.6-1.1,1.8-2,3.6-2C295.7,103.2,297.3,104.7,297.3,107.6z"/>
	<path class="st4" d="M300,108.8c0-3.2,2.2-5.6,5.4-5.6c3.2,0,5,2.5,5,5.1c0,0.8-0.2,1.1-0.8,1.1h-8.1c0.2,2.1,1.7,3.7,4.3,3.7
		c1.3,0,2.3-0.4,3.1-1c0.1-0.1,0.2-0.1,0.3,0l0.4,0.5c0.2,0.2,0.1,0.3-0.1,0.5c-1,0.9-2.4,1.4-3.9,1.4
		C302.2,114.5,300,112,300,108.8z M309.1,108.2c-0.1-2.1-1.5-3.6-3.7-3.6c-2.1,0-3.6,1.4-3.9,3.6H309.1z"/>
	<path class="st4" d="M313.3,113.9v-10.2c0-0.2,0.1-0.3,0.3-0.3h0.9c0.2,0,0.3,0.1,0.3,0.3l0,1.2c0.4-1,1.1-1.8,2.5-1.8
		c0.4,0,0.8,0.1,1,0.2c0.1,0.1,0.2,0.2,0.2,0.4v0.7c0,0.2-0.2,0.3-0.4,0.2c-0.3-0.1-0.5-0.1-0.8-0.1c-1.9,0-2.5,1.7-2.5,2.9v6.3
		c0,0.2-0.1,0.3-0.3,0.3h-1C313.4,114.2,313.3,114.1,313.3,113.9z"/>
	<path class="st4" d="M320,108.8c0-3.2,2.2-5.6,5.4-5.6c3.2,0,5,2.5,5,5.1c0,0.8-0.2,1.1-0.8,1.1h-8.1c0.2,2.1,1.7,3.7,4.3,3.7
		c1.3,0,2.3-0.4,3.1-1c0.1-0.1,0.2-0.1,0.3,0l0.4,0.5c0.2,0.2,0.1,0.3-0.1,0.5c-1,0.9-2.4,1.4-3.9,1.4
		C322.1,114.5,320,112,320,108.8z M329,108.2c-0.1-2.1-1.5-3.6-3.7-3.6c-2.1,0-3.6,1.4-3.9,3.6H329z"/>
	<path class="st4" d="M338.7,112.2v-7.4h-1.4c-0.2,0-0.3-0.1-0.3-0.3v-0.7c0-0.2,0.1-0.3,0.3-0.3h1.4v-2.6c0-0.2,0.1-0.3,0.3-0.3h1
		c0.2,0,0.3,0.1,0.3,0.3v2.6h1.8c0.2,0,0.3,0.1,0.3,0.3v0.7c0,0.2-0.1,0.3-0.3,0.3h-1.8v7.2c0,0.8,0.3,1.1,1,1.1c0.2,0,0.5,0,0.7,0
		c0.3,0,0.4,0.1,0.4,0.3v0.7c0,0.4-0.8,0.5-1.4,0.5C339.4,114.5,338.7,113.8,338.7,112.2z"/>
	<path class="st4" d="M344.4,108.9c0-3.2,2.4-5.7,5.5-5.7c3.1,0,5.5,2.4,5.5,5.7c0,3.2-2.4,5.7-5.5,5.7
		C346.8,114.5,344.4,112.1,344.4,108.9z M353.9,108.9c0-2.4-1.7-4.2-4-4.2c-2.3,0-4,1.7-4,4.2s1.7,4.2,4,4.2
		C352.2,113,353.9,111.3,353.9,108.9z"/>
	<path class="st4" d="M362.1,108.9c0-3.2,2.4-5.7,5.6-5.7c1.7,0,3.1,0.7,4,1.8c0.1,0.2,0.2,0.3,0,0.4l-0.6,0.5
		c-0.2,0.2-0.4,0.1-0.5,0c-0.7-0.7-1.5-1.3-2.9-1.3c-2.4,0-4.1,1.7-4.1,4.2c0,2.5,1.8,4.2,4.2,4.2c1.4,0,2.2-0.6,2.9-1.3
		c0.2-0.2,0.3-0.2,0.5,0l0.6,0.5c0.1,0.1,0.1,0.3,0,0.4c-0.9,1.1-2.3,1.8-4,1.8C364.5,114.5,362.1,112.1,362.1,108.9z"/>
	<path class="st4" d="M373.6,108.9c0-3.2,2.4-5.7,5.5-5.7c3.1,0,5.5,2.4,5.5,5.7c0,3.2-2.4,5.7-5.5,5.7
		C376,114.5,373.6,112.1,373.6,108.9z M383.1,108.9c0-2.4-1.7-4.2-4-4.2c-2.3,0-4,1.7-4,4.2s1.7,4.2,4,4.2
		C381.4,113,383.1,111.3,383.1,108.9z"/>
	<path class="st4" d="M387.5,113.9v-10.2c0-0.2,0.1-0.3,0.3-0.3h0.9c0.2,0,0.3,0.1,0.3,0.3l0.1,1.4c0.6-1.1,1.8-2,3.6-2
		c2.4,0,3.9,1.5,3.9,4.4v6.3c0,0.2-0.1,0.3-0.3,0.3h-1c-0.2,0-0.3-0.1-0.3-0.3v-6.2c0-1.9-1-3.1-2.8-3.1s-3.1,1.2-3.1,3.1v6.2
		c0,0.2-0.1,0.3-0.3,0.3h-1C387.5,114.2,387.5,114.1,387.5,113.9z"/>
	<path class="st4" d="M400.5,112.2v-7.4h-1.4c-0.2,0-0.3-0.1-0.3-0.3v-0.7c0-0.2,0.1-0.3,0.3-0.3h1.4v-2.6c0-0.2,0.1-0.3,0.3-0.3h1
		c0.2,0,0.3,0.1,0.3,0.3v2.6h1.8c0.2,0,0.3,0.1,0.3,0.3v0.7c0,0.2-0.1,0.3-0.3,0.3h-1.8v7.2c0,0.8,0.3,1.1,1,1.1c0.2,0,0.5,0,0.7,0
		c0.3,0,0.4,0.1,0.4,0.3v0.7c0,0.4-0.8,0.5-1.4,0.5C401.3,114.5,400.5,113.8,400.5,112.2z"/>
	<path class="st4" d="M406.2,108.9c0-3.2,2.2-5.7,5.3-5.7c1.9,0,3.3,0.9,4.1,2.4l0-1.8c0-0.2,0.1-0.3,0.3-0.3h0.9
		c0.2,0,0.3,0.1,0.3,0.3v10.2c0,0.2-0.1,0.3-0.3,0.3H416c-0.2,0-0.3-0.1-0.3-0.3l0-1.8c-0.8,1.5-2.2,2.3-4.1,2.3
		C408.4,114.5,406.2,112.1,406.2,108.9z M415.7,108.9c0-2.5-1.6-4.2-3.9-4.2c-2.3,0-4,1.7-4,4.2c0,2.5,1.7,4.2,4,4.2
		C414,113,415.7,111.4,415.7,108.9z"/>
	<path class="st4" d="M420,108.9c0-3.2,2.4-5.7,5.6-5.7c1.7,0,3.1,0.7,4,1.8c0.1,0.2,0.2,0.3,0,0.4l-0.6,0.5c-0.2,0.2-0.4,0.1-0.5,0
		c-0.7-0.7-1.5-1.3-2.9-1.3c-2.4,0-4.1,1.7-4.1,4.2c0,2.5,1.8,4.2,4.2,4.2c1.4,0,2.2-0.6,2.9-1.3c0.2-0.2,0.3-0.2,0.5,0l0.6,0.5
		c0.1,0.1,0.1,0.3,0,0.4c-0.9,1.1-2.3,1.8-4,1.8C422.4,114.5,420,112.1,420,108.9z"/>
	<path class="st4" d="M433.5,112.2v-7.4h-1.4c-0.2,0-0.3-0.1-0.3-0.3v-0.7c0-0.2,0.1-0.3,0.3-0.3h1.4v-2.6c0-0.2,0.1-0.3,0.3-0.3h1
		c0.2,0,0.3,0.1,0.3,0.3v2.6h1.8c0.2,0,0.3,0.1,0.3,0.3v0.7c0,0.2-0.1,0.3-0.3,0.3h-1.8v7.2c0,0.8,0.3,1.1,1,1.1c0.2,0,0.5,0,0.7,0
		c0.3,0,0.4,0.1,0.4,0.3v0.7c0,0.4-0.8,0.5-1.4,0.5C434.3,114.5,433.5,113.8,433.5,112.2z"/>
	<path class="st4" d="M444.3,113.9v-10.2c0-0.2,0.1-0.3,0.3-0.3h0.9c0.2,0,0.3,0.1,0.3,0.3l0,1.2c0.5-1,1.5-1.8,3.1-1.8
		c1.5,0,2.6,0.7,3.2,2.1c0.6-1.2,1.6-2.1,3.4-2.1c2.2,0,3.6,1.5,3.6,4.3v6.4c0,0.2-0.1,0.3-0.3,0.3h-1c-0.2,0-0.3-0.1-0.3-0.3v-6.3
		c0-1.9-0.8-3-2.3-3c-1.6,0-2.7,1.1-2.7,3v6.3c0,0.2-0.1,0.3-0.3,0.3h-1c-0.2,0-0.3-0.1-0.3-0.3v-6.3c0-1.9-0.9-3-2.4-3
		c-1.6,0-2.6,1.1-2.6,3v6.3c0,0.2-0.1,0.3-0.3,0.3h-1C444.4,114.2,444.3,114.1,444.3,113.9z"/>
	<path class="st4" d="M461.8,108.8c0-3.2,2.2-5.6,5.4-5.6c3.2,0,5,2.5,5,5.1c0,0.8-0.2,1.1-0.8,1.1h-8.1c0.2,2.1,1.7,3.7,4.3,3.7
		c1.3,0,2.3-0.4,3.1-1c0.1-0.1,0.2-0.1,0.3,0l0.4,0.5c0.2,0.2,0.1,0.3-0.1,0.5c-1,0.9-2.4,1.4-3.9,1.4
		C464,114.5,461.8,112,461.8,108.8z M470.9,108.2c-0.1-2.1-1.5-3.6-3.7-3.6c-2.1,0-3.6,1.4-3.9,3.6H470.9z"/>
	<path class="st4" d="M478.9,108.9c0-3.2,2.2-5.7,5.3-5.7c1.9,0,3.3,0.9,4.1,2.4l0-1.8c0-0.2,0.1-0.3,0.3-0.3h0.9
		c0.2,0,0.3,0.1,0.3,0.3v10.2c0,0.2-0.1,0.3-0.3,0.3h-0.9c-0.2,0-0.3-0.1-0.3-0.3l0-1.8c-0.8,1.5-2.2,2.3-4.1,2.3
		C481.1,114.5,478.9,112.1,478.9,108.9z M488.4,108.9c0-2.5-1.6-4.2-3.9-4.2c-2.3,0-4,1.7-4,4.2c0,2.5,1.7,4.2,4,4.2
		C486.8,113,488.4,111.4,488.4,108.9z"/>
	<path class="st4" d="M494.3,112.2v-7.4h-1.4c-0.2,0-0.3-0.1-0.3-0.3v-0.7c0-0.2,0.1-0.3,0.3-0.3h1.4v-2.6c0-0.2,0.1-0.3,0.3-0.3h1
		c0.2,0,0.3,0.1,0.3,0.3v2.6h1.8c0.2,0,0.3,0.1,0.3,0.3v0.7c0,0.2-0.1,0.3-0.3,0.3h-1.8v7.2c0,0.8,0.3,1.1,1,1.1c0.2,0,0.5,0,0.7,0
		c0.3,0,0.4,0.1,0.4,0.3v0.7c0,0.4-0.8,0.5-1.4,0.5C495.1,114.5,494.3,113.8,494.3,112.2z"/>
	<path class="st4" d="M504.9,113.9v-10.1c0-0.2,0.1-0.3,0.3-0.3h1.7c0.2,0,0.3,0.1,0.3,0.4l0.1,1.2c0.6-1,1.5-1.8,3-1.8
		c1.4,0,2.5,0.7,3.1,2c0.6-1.1,1.6-2,3.4-2c2.3,0,3.7,1.5,3.7,4.4v6.4c0,0.2-0.1,0.3-0.3,0.3h-1.8c-0.2,0-0.3-0.1-0.3-0.3V108
		c0-1.7-0.6-2.6-2-2.6c-1.3,0-2.2,0.9-2.2,2.6v5.9c0,0.2-0.1,0.3-0.3,0.3h-1.7c-0.2,0-0.3-0.1-0.3-0.3V108c0-1.7-0.7-2.6-2-2.6
		c-1.3,0-2.1,0.9-2.1,2.6v5.9c0,0.2-0.1,0.3-0.3,0.3h-1.8C505,114.2,504.9,114.1,504.9,113.9z"/>
	<path class="st4" d="M522.8,108.8c0-3.2,2.2-5.6,5.5-5.6c3.2,0,5.1,2.4,5.1,5.1c0,0.9-0.2,1.4-1,1.4h-7.3c0.3,1.7,1.6,2.9,3.7,2.9
		c1.1,0,1.9-0.3,2.8-0.8c0.1-0.1,0.3-0.1,0.4,0.1l0.6,0.8c0.1,0.2,0.1,0.3-0.1,0.5c-0.9,0.9-2.3,1.4-3.9,1.4
		C525.1,114.5,522.8,112,522.8,108.8z M531.3,108c-0.1-1.8-1.3-2.8-3-2.8s-2.9,1-3.2,2.8H531.3z"/>
	<path class="st4" d="M536.7,117.6c-0.2-0.1-0.2-0.4-0.2-0.5l0.5-0.9c0.1-0.2,0.3-0.2,0.5-0.1c0.9,0.5,2,0.8,3,0.8
		c1.8,0,3.5-0.8,3.5-3.1v-1.5c-0.7,1.1-2,1.8-3.7,1.8c-3.1,0-5.1-2.2-5.1-5.4c0-3.2,2.1-5.4,5.1-5.4c1.8,0,3,0.7,3.7,1.9l0-1.3
		c0-0.2,0.1-0.3,0.3-0.3h1.6c0.2,0,0.3,0.1,0.3,0.3v9.9c0,3.7-2.9,5-5.6,5C539.1,118.8,537.7,118.3,536.7,117.6z M544,108.7
		c0-2-1.3-3.3-3.2-3.3c-1.8,0-3.3,1.3-3.3,3.3c0,2,1.4,3.3,3.3,3.3C542.7,111.9,544,110.7,544,108.7z"/>
	<path class="st4" d="M548.7,108.9c0-3.2,2.1-5.7,5.2-5.7c1.8,0,3.1,0.8,3.8,2l0-1.5c0-0.2,0.1-0.3,0.3-0.3h1.6
		c0.2,0,0.3,0.1,0.3,0.3v10.1c0,0.2-0.1,0.3-0.3,0.3h-1.6c-0.2,0-0.3-0.1-0.3-0.3l0-1.4c-0.8,1.3-2,2-3.8,2
		C550.8,114.5,548.7,112.1,548.7,108.9z M557.6,108.9c0-2.1-1.3-3.5-3.3-3.5c-1.9,0-3.3,1.4-3.3,3.5c0,2.1,1.4,3.5,3.3,3.5
		C556.3,112.3,557.6,110.9,557.6,108.9z"/>
	<path class="st4" d="M562.9,113.9v-10.1c0-0.2,0.1-0.3,0.3-0.3h1.7c0.2,0,0.3,0.1,0.3,0.4l0.1,1.3c0.6-1.1,1.7-1.9,3.4-1.9
		c2.3,0,3.9,1.6,3.9,4.4v6.3c0,0.2-0.1,0.3-0.3,0.3h-1.7c-0.2,0-0.3-0.1-0.3-0.3v-5.9c0-1.7-0.8-2.7-2.4-2.7s-2.6,1-2.6,2.7v5.9
		c0,0.2-0.1,0.3-0.3,0.3h-1.8C563.1,114.2,562.9,114.1,562.9,113.9z"/>
	<path class="st4" d="M575.3,106.6c0-4.9,3.9-7.9,8.1-7.9c4.2,0,7.7,2.9,7.7,7.6c0,3.1-1.7,4.4-3.4,4.4c-0.9,0-1.7-0.4-2-1.2
		c-0.7,0.7-1.6,1.2-2.8,1.2c-2.3,0-3.8-1.8-3.8-4c0-2.2,1.6-4,3.9-4c1.2,0,2.1,0.5,2.7,1.2l0.3-0.8h1.1l-0.4,4.4
		c-0.1,1.1,0.4,1.4,1,1.4c1,0,1.4-1,1.4-2.5c0-3.8-2.7-5.9-5.8-5.9c-3.1,0-6.1,2.2-6.1,6s3,6.1,6.1,6.1c1.2,0,2.2-0.3,3.1-0.9
		l1.1,1.3c-0.8,0.8-2.4,1.4-4.3,1.4C579.2,114.5,575.3,111.4,575.3,106.6z M585.4,106.7c0-1.3-0.9-2.3-2.2-2.3c-1.3,0-2.2,1-2.2,2.3
		s0.9,2.3,2.2,2.3C584.5,108.9,585.4,108,585.4,106.7z"/>
	<path class="st4" d="M593.3,108.9c0-3.2,2.1-5.7,5.2-5.7c1.7,0,2.9,0.7,3.7,1.9v-6.2c0-0.2,0.1-0.3,0.3-0.3h1.8
		c0.2,0,0.3,0.1,0.3,0.3v15.1c0,0.2-0.1,0.3-0.3,0.3h-1.6c-0.2,0-0.3-0.1-0.3-0.3l0-1.4c-0.8,1.3-2,2-3.8,2
		C595.4,114.5,593.3,112.1,593.3,108.9z M602.2,108.9c0-2.1-1.3-3.5-3.3-3.5c-1.9,0-3.3,1.4-3.3,3.5c0,2.1,1.4,3.5,3.3,3.5
		C600.9,112.3,602.2,110.9,602.2,108.9z"/>
	<path class="st4" d="M607,108.8c0-3.2,2.2-5.6,5.5-5.6c3.2,0,5.1,2.4,5.1,5.1c0,0.9-0.2,1.4-1,1.4h-7.3c0.3,1.7,1.6,2.9,3.7,2.9
		c1.1,0,1.9-0.3,2.8-0.8c0.1-0.1,0.3-0.1,0.4,0.1l0.6,0.8c0.1,0.2,0.1,0.3-0.1,0.5c-0.9,0.9-2.3,1.4-3.9,1.4
		C609.3,114.5,607,112,607,108.8z M615.4,108c-0.1-1.8-1.3-2.8-3-2.8c-1.7,0-2.9,1-3.2,2.8H615.4z"/>
	<path class="st4" d="M619.4,112.8c-0.1-0.2-0.1-0.4,0-0.6l0.6-0.8c0.2-0.2,0.4-0.2,0.5,0c0.8,0.7,1.6,1.1,2.6,1.1
		c1,0,1.7-0.4,1.7-1.3c0-0.7-0.5-1.1-1.4-1.5l-1.3-0.5c-1.4-0.5-2.4-1.4-2.4-2.9c0-1.9,1.7-3.1,3.6-3.1c1.3,0,2.6,0.6,3.4,1.6
		c0.1,0.2,0.1,0.3,0,0.5l-0.7,0.8c-0.2,0.2-0.3,0.2-0.5,0c-0.7-0.6-1.3-0.9-2-0.9c-0.8,0-1.4,0.4-1.4,1.1c0,0.7,0.6,1.1,1.4,1.4
		l1.3,0.5c1.4,0.6,2.5,1.4,2.5,3.1c0,2.1-1.8,3.2-3.9,3.2C621.4,114.5,620.1,113.7,619.4,112.8z"/>
	<path class="st4" d="M629.4,99.8c0-0.7,0.6-1.4,1.4-1.4c0.8,0,1.4,0.6,1.4,1.4c0,0.8-0.6,1.4-1.4,1.4
		C630,101.1,629.4,100.5,629.4,99.8z M629.5,113.9v-10.1c0-0.2,0.1-0.3,0.3-0.3h1.8c0.2,0,0.3,0.1,0.3,0.3v10.1
		c0,0.2-0.1,0.3-0.3,0.3h-1.8C629.6,114.2,629.5,114.1,629.5,113.9z"/>
	<path class="st4" d="M635.8,117.6c-0.2-0.1-0.2-0.4-0.2-0.5l0.5-0.9c0.1-0.2,0.3-0.2,0.5-0.1c0.9,0.5,2,0.8,3,0.8
		c1.8,0,3.5-0.8,3.5-3.1v-1.5c-0.7,1.1-2,1.8-3.7,1.8c-3.1,0-5.1-2.2-5.1-5.4c0-3.2,2.1-5.4,5.1-5.4c1.8,0,3,0.7,3.7,1.9l0-1.3
		c0-0.2,0.1-0.3,0.3-0.3h1.6c0.2,0,0.3,0.1,0.3,0.3v9.9c0,3.7-2.9,5-5.6,5C638.2,118.8,636.8,118.3,635.8,117.6z M643.1,108.7
		c0-2-1.3-3.3-3.2-3.3c-1.8,0-3.3,1.3-3.3,3.3c0,2,1.4,3.3,3.3,3.3C641.8,111.9,643.1,110.7,643.1,108.7z"/>
	<path class="st4" d="M648.4,113.9v-10.1c0-0.2,0.1-0.3,0.3-0.3h1.7c0.2,0,0.3,0.1,0.3,0.4l0.1,1.3c0.6-1.1,1.7-1.9,3.4-1.9
		c2.3,0,3.9,1.6,3.9,4.4v6.3c0,0.2-0.1,0.3-0.3,0.3H656c-0.2,0-0.3-0.1-0.3-0.3v-5.9c0-1.7-0.8-2.7-2.4-2.7s-2.6,1-2.6,2.7v5.9
		c0,0.2-0.1,0.3-0.3,0.3h-1.8C648.5,114.2,648.4,114.1,648.4,113.9z"/>
	<path class="st4" d="M660.4,108.8c0-3.2,2.2-5.6,5.5-5.6c3.2,0,5.1,2.4,5.1,5.1c0,0.9-0.2,1.4-1,1.4h-7.3c0.3,1.7,1.6,2.9,3.7,2.9
		c1.1,0,1.9-0.3,2.8-0.8c0.1-0.1,0.3-0.1,0.4,0.1l0.6,0.8c0.1,0.2,0.1,0.3-0.1,0.5c-0.9,0.9-2.3,1.4-3.9,1.4
		C662.7,114.5,660.4,112,660.4,108.8z M668.9,108c-0.1-1.8-1.3-2.8-3-2.8c-1.7,0-2.9,1-3.2,2.8H668.9z"/>
	<path class="st4" d="M673.4,113.9V98.8c0-0.2,0.1-0.3,0.3-0.3h1.8c0.2,0,0.3,0.1,0.3,0.3v15.1c0,0.2-0.1,0.3-0.3,0.3h-1.8
		C673.5,114.2,673.4,114.1,673.4,113.9z"/>
	<path class="st4" d="M678.6,99.8c0-0.7,0.6-1.4,1.4-1.4c0.8,0,1.4,0.6,1.4,1.4c0,0.8-0.6,1.4-1.4,1.4
		C679.2,101.1,678.6,100.5,678.6,99.8z M678.7,113.9v-10.1c0-0.2,0.1-0.3,0.3-0.3h1.8c0.2,0,0.3,0.1,0.3,0.3v10.1
		c0,0.2-0.1,0.3-0.3,0.3h-1.8C678.9,114.2,678.7,114.1,678.7,113.9z"/>
	<path class="st4" d="M683.5,113.8l3.3-5.1l-3.2-4.9c-0.1-0.2,0-0.4,0.2-0.4h1.9c0.2,0,0.3,0.1,0.4,0.2l2.1,3.4l2.1-3.4
		c0.1-0.2,0.2-0.2,0.4-0.2h1.9c0.3,0,0.4,0.2,0.2,0.4l-3.1,4.9l3.3,5.1c0.2,0.2,0,0.4-0.2,0.4h-1.9c-0.2,0-0.3-0.1-0.4-0.2l-2.2-3.6
		L686,114c-0.1,0.2-0.2,0.2-0.4,0.2h-1.9C683.4,114.2,683.3,114.1,683.5,113.8z"/>
	<path class="st4" d="M695.1,99.8c0-0.7,0.6-1.4,1.4-1.4c0.8,0,1.4,0.6,1.4,1.4c0,0.8-0.6,1.4-1.4,1.4
		C695.7,101.1,695.1,100.5,695.1,99.8z M695.3,113.9v-10.1c0-0.2,0.1-0.3,0.3-0.3h1.8c0.2,0,0.3,0.1,0.3,0.3v10.1
		c0,0.2-0.1,0.3-0.3,0.3h-1.8C695.4,114.2,695.3,114.1,695.3,113.9z"/>
	<path class="st4" d="M700.7,113.9v-10.1c0-0.2,0.1-0.3,0.3-0.3h1.7c0.2,0,0.3,0.1,0.3,0.4l0.1,1.3c0.4-1.1,1.1-1.9,2.4-1.9
		c0.5,0,0.8,0.1,1,0.2c0.2,0.1,0.2,0.2,0.2,0.4v1.4c0,0.3-0.2,0.3-0.4,0.2s-0.5-0.1-0.8-0.1c-1.7,0-2.4,1.4-2.4,2.8v5.8
		c0,0.2-0.1,0.3-0.3,0.3H701C700.8,114.2,700.7,114.1,700.7,113.9z"/>
	<path class="st4" d="M706.5,113c0-0.8,0.7-1.5,1.5-1.5c0.8,0,1.5,0.7,1.5,1.5s-0.7,1.5-1.5,1.5C707.2,114.5,706.5,113.9,706.5,113z
		"/>
	<path class="st4" d="M711.6,112.8c-0.1-0.2-0.1-0.4,0-0.6l0.6-0.8c0.2-0.2,0.4-0.2,0.5,0c0.8,0.7,1.6,1.1,2.6,1.1
		c1,0,1.7-0.4,1.7-1.3c0-0.7-0.5-1.1-1.4-1.5l-1.3-0.5c-1.4-0.5-2.4-1.4-2.4-2.9c0-1.9,1.7-3.1,3.6-3.1c1.3,0,2.6,0.6,3.4,1.6
		c0.1,0.2,0.1,0.3,0,0.5l-0.7,0.8c-0.2,0.2-0.3,0.2-0.5,0c-0.7-0.6-1.3-0.9-2-0.9c-0.8,0-1.4,0.4-1.4,1.1c0,0.7,0.6,1.1,1.4,1.4
		l1.3,0.5c1.4,0.6,2.5,1.4,2.5,3.1c0,2.1-1.8,3.2-3.9,3.2C713.6,114.5,712.3,113.7,711.6,112.8z"/>
	<path class="st4" d="M722.4,111.7v-6.4H721c-0.2,0-0.3-0.1-0.3-0.3v-1.2c0-0.2,0.1-0.3,0.3-0.3h1.4v-2.5c0-0.2,0.1-0.3,0.3-0.3h1.8
		c0.2,0,0.3,0.1,0.3,0.3v2.5h1.7c0.2,0,0.3,0.1,0.3,0.3v1.2c0,0.2-0.1,0.3-0.3,0.3h-1.7v6.1c0,0.7,0.4,1,1,1c0.2,0,0.4,0,0.7,0
		c0.3,0,0.4,0.1,0.4,0.3v1.2c0,0.4-1,0.6-1.6,0.6C723.6,114.5,722.4,113.7,722.4,111.7z"/>
	<path class="st4" d="M729.1,110.1v-6.3c0-0.2,0.1-0.3,0.3-0.3h1.8c0.2,0,0.3,0.1,0.3,0.3v5.9c0,1.7,0.8,2.7,2.4,2.7
		c1.5,0,2.6-1,2.6-2.7v-5.9c0-0.2,0.1-0.3,0.3-0.3h1.7c0.2,0,0.3,0.1,0.3,0.3v10.1c0,0.2-0.1,0.3-0.3,0.3h-1.6
		c-0.2,0-0.3-0.1-0.3-0.4l-0.1-1.3c-0.6,1.1-1.7,1.9-3.4,1.9C730.7,114.5,729.1,112.9,729.1,110.1z"/>
	<path class="st4" d="M741.2,108.9c0-3.2,2.1-5.7,5.2-5.7c1.7,0,2.9,0.7,3.7,1.9v-6.2c0-0.2,0.1-0.3,0.3-0.3h1.8
		c0.2,0,0.3,0.1,0.3,0.3v15.1c0,0.2-0.1,0.3-0.3,0.3h-1.6c-0.2,0-0.3-0.1-0.3-0.3l0-1.4c-0.8,1.3-2,2-3.8,2
		C743.3,114.5,741.2,112.1,741.2,108.9z M750.1,108.9c0-2.1-1.3-3.5-3.3-3.5c-1.9,0-3.3,1.4-3.3,3.5c0,2.1,1.4,3.5,3.3,3.5
		C748.7,112.3,750.1,110.9,750.1,108.9z"/>
	<path class="st4" d="M755.2,99.8c0-0.7,0.6-1.4,1.4-1.4c0.8,0,1.4,0.6,1.4,1.4c0,0.8-0.6,1.4-1.4,1.4
		C755.8,101.1,755.2,100.5,755.2,99.8z M755.4,113.9v-10.1c0-0.2,0.1-0.3,0.3-0.3h1.8c0.2,0,0.3,0.1,0.3,0.3v10.1
		c0,0.2-0.1,0.3-0.3,0.3h-1.8C755.5,114.2,755.4,114.1,755.4,113.9z"/>
	<path class="st4" d="M760.2,108.9c0-3.2,2.4-5.7,5.6-5.7c3.2,0,5.6,2.5,5.6,5.7s-2.4,5.7-5.6,5.7
		C762.5,114.5,760.2,112,760.2,108.9z M769,108.9c0-2.1-1.4-3.5-3.3-3.5c-1.9,0-3.3,1.4-3.3,3.5s1.4,3.5,3.3,3.5
		C767.6,112.3,769,110.9,769,108.9z"/>
</g>
<image style="overflow:visible;" width="419" height="446" xlink:href="../../../Asset 1@300x.png"  transform="matrix(0.24 0 0 0.24 121.583 37.83)">
</image>
</svg>
