<svg xmlns="http://www.w3.org/2000/svg" xmlns:xlink="http://www.w3.org/1999/xlink" viewBox="0 0 848.1 165.6" xmlns:v="https://vecta.io/nano"><style><![CDATA[.L{enable-background:new}]]></style><path d="M109.7 19.5H827c10.1 0 18.4 8.2 18.4 18.4v106.9c0 10.1-8.2 18.4-18.4 18.4H109.7c-10.1 0-18.4-8.2-18.4-18.4v-107c0-10.1 8.3-18.3 18.4-18.3z" fill="#8792b4"/><path d="M109.9 19.5h717.3c10.1 0 18.4 8.2 18.4 18.4v106.9c0 10.1-8.2 18.4-18.4 18.4H109.9c-10.1 0-18.4-8.2-18.4-18.4v-107c0-10.1 8.3-18.3 18.4-18.3z" fill="none" stroke="#384173" stroke-width="5" stroke-miterlimit="10"/><path d="M168.6 41.2h-12.4c-.6 0-1.1.1-1.7.1h-5.3c-.3 0-.6.1-.9.1h-1.7c-.6 0-1-.1-1.5-.1h-1l-2.4.1h-6.2c-.5 0-1 .1-1.5.1-1 .1-2 0-3 .1h-6.6c-.6.2-1.1.5-1.6.8-.3.2-.5.6-.7.9l-.2.3c-.1.2-.3.4-.4.6 0 .1-.1.1-.1.2l-.1.1c-.2.2-.3.4-.3.7v.9c-.1.4-.1.8-.1 1.1 0 .2 0 .4.1.6v2c0 .3 0 .5-.1.8s0 .5-.1.7-.1.7-.1 1-.1.7-.1 1c0 .2 0 .4-.1.6-.1.6-.1 1.3-.1 1.9v3.1c0 .3-.1.6-.1.9s-.1.8-.1 1.2v5.4c-.1 1.1-.1 2-.1 2.8 0 .4 0 .8.1 1.2 0 .2 0 .4.1.6s.1.5.1.8l.1 2.3V82l.1 2.6c.1 1 .1 1.9.1 2.7v2.8c0 .6 0 1.2.1 1.8v3.4c0 .8.1 1.7.2 2.7.1.7.1 1.3.1 2v.7l.1 2.8c.1 1.1.1 2 .1 3v3.2c.1.6.1 1.3.1 1.9 0 .5 0 1.1-.1 1.6v7.2l-.1 2.2v11.8c0 .3 0 .5.1.8l.3 1.1c.1.3.3.6.4.9.1.1.1.2.2.3s.1.2.2.3.1.2.2.3l.4.4.3.2s.1 0 .1.1c.1.1.2.3.4.4.3.2.6.3.9.4l.3.1h.1l.6.2h3.7c.3 0 .5 0 .8-.1h4.4a.9.9 0 0 1 .5.1l1.1.1h6.2l1.7-.2h2.6l.8.1h2c1.2-.1 2.4 0 3.6 0h1.9c.6 0 1.1.1 1.7.1h1.8l1.8.1c1.1.1 2.2.1 3.3.1h10.6l3.3.1h3.1c.5 0 1.1.1 1.7.1h1.1c-.1-.4-.3-.8-.4-1.2-.1-.3-.1-.6-.1-.9v-.4c0-.3-.1-.5-.2-.8s-.1-.5-.2-.8v-.8c0-.1 0-.4-.1-.7v-.3l-.1-1c0-.2 0-.5-.1-.7s0-.5-.1-.7v-.1c0-.2 0-.5-.1-.7v-.3c-.1-.3-.1-.7-.1-1v-1.1c-.1-.6-.1-1.2-.2-1.9v-.6c0-.4-.1-.9-.1-1.4v-.9c0-.4 0-.7-.1-.9l-.1-.7v-.2c0-.4-.1-.8-.1-1.2 0-.3-.1-.7-.1-1.1s0-.5-.1-.8v-2.5c0-.3-.1-.6-.1-.9v-.2c0-.3-.1-.6-.1-.9v-2.5c0-.8-.1-1.5-.2-2.3 0-.4-.1-.8-.1-1.2v-.2c0-.3-.1-.5-.1-.8l-.2-2.2c0-.6-.1-1.1-.1-1.6v-.5l-.2-3.1v.2l-.1-1.4v-.9c-.3 0-.6.1-.8.1h-1.2c-.2 0-.5 0-.8.1H176c-.4 0-.9-.1-1.4-.1h-1.3c-.2 0-.6-.1-.8-.1h-.3c-.3 0-.7-.1-1-.1h-3.1c-.4 0-.9.1-1.4.1-.4 0-.8-.4-.8-.8 0-.2.1-.5.3-.6 0-1-.1-1.9-.2-2.7l-.1-.5v-.1c-.1-.5-.2-1-.2-1.5v-7.8l.1-2.6c0-.8.1-1.6.2-2.3v-1.1l.4-4.1v-.2c.1-.5.1-.9.2-1.4v-.1l.1-.5.4-2.8V69l.7-3.5.1-.4c.1-.3.2-.6.2-.9l.3-1.3.4-1.9.1-.9.6-2.5.1-.6c.1-.6.3-1.2.4-1.8l.7-2.4c.2-.6.3-1.1.5-1.8l.1-.5.7-1.9.2-.4c.3-.8.7-1.6 1-2.3l.1-.2.1-.1c.1-.2.1-.3.2-.5s.2-.5.2-.7l.3-.8c0-.1 0-.1.1-.2v-.2l.1-.3c0-.1.1-.2.1-.4l.1-.1c0-.1.1-.2.1-.3l.6-.6c.1-.1.2-.1.2-.2h-3.3a1.1 1.1 0 0 1-.8 0h-.8c-.7-.1-1.3-.1-1.9-.1h0zM148.9 140h0zm77.5-.7h0c-.2.1-.2.2-.3.2l-.2.1c-.2.2-.5.4-.7.6l-.3.1h.1c.4-.1.7-.3 1-.5.1-.1.2-.3.3-.4l.1-.1z" fill="#707da7"/><g fill="#c7ccdd"><path d="M207.3 40.6h-1.2c-.4 0-.7.1-1 .1l-1.2.1c-.4 0-.8.1-1.3.1h-6.2l-.8-.1c-.5 0-.9 0-1.4-.1-.5 0-1 .1-1.5.1h-1.6c-.6 0-1.2 0-1.8.1-.6 0-1.2.1-1.8.1-.5 0-1 0-1.5.1s-1.1.1-1.7.1H181c-.3 0-.7 0-1 .1s-.8 0-1.2 0h.2-1.2c-.6 0-1.1.1-1.7.1h-1c-.1.1-.2.1-.2.2l-.6.6c0 .1-.1.2-.1.3l-.1.1-.1.3c0 .1-.1.2-.1.3v.2c0 .1 0 .1-.1.2l-.3.8c-.1.2-.1.5-.2.7s-.1.3-.2.5l-.1.1-.1.2-1 2.3-.2.4c-.3.6-.5 1.2-.7 1.9l-.1.5c-.2.6-.3 1.2-.5 1.8l-.6 2.4c-.1.6-.3 1.2-.4 1.8v.1l-.1.6-.6 2.5-.2.7c-.1.7-.3 1.3-.4 1.9l-.3 1.3c-.1.3-.1.6-.2.9l-.1.4-.7 3.5v.1l-.4 2.8-.1.4v.1c-.1.5-.1.9-.2 1.4v.2l-.4 4.1v1c-.1.7-.1 1.5-.2 2.3l-.1 2.6v7.7c0 .5.1 1 .2 1.5h0v.1l.1.5c.1.8.1 1.6.2 2.7-.2.2-.3.4-.3.6 0 .4.4.8.8.8.5 0 1 0 1.4-.1h2.9c.3 0 .7 0 1 .1h.2c.3 0 .5.1.8.1h1.3c.5.1 1 .1 1.4.1h.7c.3 0 .5 0 .8-.1h1.2c.3 0 .6 0 .8-.1v.9l.1 1.4v.1l.2 3.1v.5c.1.5.1 1.1.1 1.6 0 .7.1 1.5.2 2.2 0 .3.1.6.1.8v.2c0 .4.1.8.1 1.2.1.7.1 1.4.1 2.2v2.6c0 .3 0 .6.1.9v.2c0 .3.1.6.1.9l.1.7v1.8c0 .3 0 .6.1.8s.1.7.1 1.1.1.8.1 1.2v.2l.1.6c0 .3 0 .6.1.9v.9c0 .5.1.9.1 1.4h0v.5l.2 1.9v1.1c0 .3.1.7.1 1v.3c0 .2 0 .5.1.7v.1c0 .2 0 .5.1.7s0 .5.1.7.1.7.1 1v.3c0 .2 0 .4.1.7s0 .3 0 .4v.4c0 .3.1.6.2.8s.1.5.2.8v.4c0 .7.2 1.4.5 2.1h24.7c.5 0 1.1.1 1.6.1h1.7c.6 0 1.1 0 1.7.1s1.1 0 1.6 0h1.4c.5 0 1 0 1.5.1l1.6.1c.6 0 1.2.1 1.7.1s1 .1 1.6.1c.5 0 1 .1 1.6.1h.5c.5-.1.9-.3 1.3-.6.3-.2.5-.3.7-.5 0 0 .1-.1.2-.1l.9-.9c.3-.2.5-.5.6-.8l.1-.1c.1-.1.1-.3.2-.4.2-.3.3-.6.4-1 0-.1.1-.2.1-.3s.1-.2.1-.3.1-.2.1-.3.1-.3.2-.5l.2-.7v-1c0-.3.1-.7.1-1.1v-3.4c0-.4 0-.9-.1-1.3h0v-6.1c0-.4.1-.6.1-.9.1-.6.1-1.2.1-1.8v-9.1c0-.5 0-.9.1-1.4.1-.4.1-.8.2-1.3 0-.4.1-.8.1-1.2v-1.4l.1-2.9v-1.5c0-.5.1-.8.1-1.2l.2-3.1c0-.5.1-1 .1-1.5s0-1.1.1-1.7c0-.6.1-1.1.1-1.6s.1-1 .1-1.5c.1-1.1.1-2.1.1-3.2 0-.5.1-1 .1-1.6 0-.5.1-1 .1-1.6s0-.9-.1-1.3-.1-1-.1-1.6v-2.3c0-.6.1-1.3.1-1.9 0-.4-.1-.9-.1-1.3v-5.6c0-.4-.1-.8-.1-1.3s-.1-.8-.1-1.2v-2.5c0-.4 0-.8.1-1.3.1-.8.1-1.6.1-2.4v-3.1c0-.3 0-.6-.1-.9h0v-.1l-.1-.3v-2.7c0-.5-.1-.8-.1-1.2v-2c0-.1-.1-.3-.1-.4s-.1-.2-.1-.3v-1.1c0-.3 0-.6-.1-.8 0-.3-.1-.5-.2-.9l-.3-.9c-.1-.1-.1-.3-.2-.4h0c0-.1-.1-.2-.1-.3s-.1-.2-.1-.2v.1l-.1-.1c0-.1-.1-.1-.1-.2-.1-.1-.1-.2-.2-.3l-.1-.2v-.1c-.1-.1-.2-.2-.2-.3h0l-.2-.3c-.1-.2-.3-.4-.5-.6l-1-1-.4-.1-.5-.2c-.3-.1-.5-.1-.8-.2-.2 0-.4-.1-.6-.1h-.7l-.8-.1c-.3 0-.6-.1-.9-.2h.1c-.3-.1-.5-.1-.8-.1-.2 0-.4-.1-.6-.1h-.2l-.5.1h-1.3c-.3 0-.6 0-.8.1-.3.1-.6.1-.8.1h-1.8c-.3 0-.6 0-.9-.1s-.6 0-.9 0-.7 0-1.1-.1l-.4-.1h-.5c-.5 0-1 .1-1.5.1s-.8-.1-1.2-.1l-1.1.1zm21.6 83.3h0z"/><path d="M194 141.9h-.7.7c.2.1.4.1.6.1h.2c.3 0 .5 0 .8-.1.1 0 .1 0 .2-.1l-1.8.1zM176.2 41.3h-2.7c-.1.2-.2.4-.2.7 0 .1-.1.2-.1.4v.4c-.1.3-.2.6-.2.9l-.4 1.1c0-.1 0-.1.1-.2-.1.3-.2.6-.4.9-.1.4-.3.7-.4 1.1l-.6 2.1-.6 1.9-.3.9-.3 1c-.3.8-.4 1.7-.7 2.5l.1-.2c-.1.3-.3.7-.4 1.1l-.3 1c-.1.3-.2.6-.2.9-.1.3-.1.7-.2 1-.1.7-.3 1.3-.5 1.9l-.3 1c-.1.3-.2.7-.3 1.1l-.9 4.1c-.1.3-.1.7-.2 1s-.1.7-.2 1c-.1.7-.2 1.3-.4 2s-.2 1.1-.3 1.6l-.3 1.9v-.2.5c0 .4-.1.7-.1 1.1l-.1.9c0 .3-.1.6-.1.9s-.1.8-.1 1.2c-.1.7-.1 1.3-.1 2v2.1l-.1 2.1v2.1l.2 2c0 .7.1 1.3.1 1.9v2.9l.1.7c0 .2 0 .4.1.7v.4c0 .1 0 .3.1.5v.2a.76.76 0 0 0 .2.4c.1.1.1.2.2.3 0 .1.1.2.1.2a.78.78 0 0 0 .4.4c.1.1.3.1.4.1h.5c.1 0 .2-.1.3-.2h.1a.76.76 0 0 0 .4-.2c.2-.1.5-.3.7-.4s.3-.5.2-.7-.5-.3-.7-.2h0l-.6.3h-.3v-.1c-.1-.1-.1-.1-.1-.2h0v-.3c0-.2 0-.4-.1-.6s0-.4 0-.6V91c0-.6-.1-1.3-.1-1.9 0-.4-.1-.8-.1-1.2s-.1-.8-.1-1.3v-2.5c.1-.6.1-1.1.1-1.7s.1-1 .1-1.5v-1.4c0-.5.1-.9.1-1.4s.1-1.1.2-1.6c0-.5.1-1 .1-1.5v.2c0-.4.1-.8.1-1.2v-.1l.3-2.1.6-4c.1-.3.1-.7.2-1s.1-.7.2-1.1l.4-2 .3-1.1c.1-.4.1-.7.2-1 .2-.7.4-1.3.5-2 .1-.3.1-.6.2-.9l.3-1c.2-.6.3-1.2.5-1.8l.6-1.7c.2-.6.4-1.2.5-1.8l.6-1.8c0 .1-.1.1-.1.2.2-.4.3-.8.4-1.2l.3-1.1c.2-.8.4-1.5.7-2.3h0l.4-1.2c0 .1 0 .1-.1.2.2-.5.3-1 .5-1.4.1-.2.1-.4.2-.6s.1-.3.1-.5l.1-.3.1-.2c0-.1 0-.1.1-.1l.2-.1h.6c.1 0 .2-.1.3-.1h.2c.2 0 .4-.1.5-.1.1-.1.3-.1.4-.1h.7l.6-.2c.2 0 .3-.2.4-.3h0-1.1c-.6 0-1.2.1-1.8.1h0z"/></g><g fill="#48578e" class="L"><path d="M173.7 41h0zm.4.2h-1.3c-.1 0-.2 0-.3-.1v.2l-.3.8c-.1.3-.1.5-.2.8-.2.5-.4 1-.5 1.5l-.3 1.1c-.1.2-.1.3-.1.5-.1.2-.1.4-.2.6s-.1.7-.2 1-.2.8-.3 1.2l-.3 1.2-.3 1c-.1.3-.3.8-.5 1.2s-.3 1-.5 1.5l-.8 2.6-.5 1.4c-.2.5-.3.9-.4 1.3l-.3 1.3c0 .2-.1.4-.1.6 0 .3-.1.5-.2.7l-.3 1.2c-.1.2-.1.4-.1.7 0 .2-.1.4-.1.7l-.5 2.8-.5 2.6c-.1.4-.1.8-.2 1.2s-.1.9-.2 1.4l-.2 1.3c-.1.4-.1.9-.2 1.3v-.2l-.3 2.6-.4 2.6c-.1.4-.1.8-.2 1.2-.1.5-.1 1.1-.1 1.6v2.1c0 .3.1.5.1.8v5.3c0 .4-.1.8-.1 1.1 0 .4 0 .9.1 1.3 0 .5.1.9.2 1.3.1.3.2.7.2 1h0l.3 1.3.3 1a.9.9 0 0 0 .1.5c0 .2.1.4.2.6l.2.4c.1.1.2.3.3.4l.2.2c.1.1.2.1.3.2.1 0 .2.1.2.1h.1c.1 0 .3.1.4.1h.2c.1 0 .2.1.3.1s.3 0 .4.1h.6l.4-.1h.9l.2-.1h1c.1 0 .3.1.4.1l.3.1c.2.1.5.1.7 0h1c.2 0 .3.1.5.1h1.4c.3 0 .5-.1.8-.2h.5c.2 0 .3 0 .5-.1l.2-.1h.5l.3.1h1.2a.9.9 0 0 0 .1.5v-.8c0 .3.1.6.1.9v5.4c0 .5.1.9.1 1.4s0 .9.1 1.3.1.9 0 1.4 0 .8 0 1.2l.1.7v.7c0 .5.1 1 .1 1.5s.1 1 .1 1.5.1.9.1 1.4c.1.5.1.9.2 1.4s.1.9.1 1.3.1.8.1 1.1v.5c0 .2 0 .4.1.7s.1.7.2 1c.1.4.1.9.1 1.3s0 .8.1 1.2c0 .2.1.4.1.6v2.2c0 .2.1.5.1.7v.8c0 .5.1 1 .1 1.5l.4 2.8c.1.5.1 1.1.2 1.6h0v.1c0 .2.1.5.1.7l.3 1.8c.1.2.2.5.3.7s.3.5.4.8.2.4.2.6a.55.55 0 0 0 .5.3.55.55 0 0 0 .3-.5h0l-.3-.7c-.1-.2-.1-.3-.2-.5-.1-.5-.1-1.1-.1-1.6 0-.3 0-.6-.1-.9s-.1-.7-.1-1-.1-.6-.1-1c0-.3-.1-.6-.1-1l-.3-2.2v.2c-.1-.6-.1-1.2-.2-1.8v-.9c0-.3-.1-.7-.1-1-.1-.4-.1-.9-.1-1.3v-.7c0-.2-.1-.4-.1-.6-.1-.8 0-1.7-.1-2.5-.1-.4-.1-.9-.2-1.3v-1.2c0-.4-.1-.8-.1-1.1 0-.4 0-1-.1-1.5s0-.8-.1-1.2-.1-1-.1-1.5-.1-1-.1-1.5l-.1-.8v-.7c0-.4-.1-.9-.1-1.3v-1.3l-.1-1.4v-.6c0-.2-.1-.5-.1-.7 0-.5-.1-.9-.1-1.4v-2.8c0-.5 0-.8-.1-1.3 0-.2 0-.4-.1-.6s0-.3 0-.4v-.8c0-.3-.1-.6-.3-.9-.1-.2-.3-.4-.5-.5s-.5-.1-.7-.1h-.7l-.3-.1h-1.3c-.3 0-.5 0-.8.1-.3 0-.5.1-.8.2h-1.3c-.2 0-.4-.1-.6-.1h-.4c-.3 0-.5 0-.8.1h0-1.3c-.1 0-.3 0-.4.1h-.6c-.1 0-.3.1-.4.1h-1c-.1 0-.2 0-.3-.1h-.1c-.1 0-.3 0-.4-.1-.2-.1-.5-.1-.7 0h0c-.1-.1-.1-.2-.2-.3 0-.1-.1-.2-.1-.3v-.3c-.1-.7-.3-1.3-.4-1.9v-.2c0-.2-.1-.5-.2-.7s-.1-.5-.2-.8c-.1-.4-.1-.8-.2-1.3V83c0-.4 0-.9.1-1.3s.1-.8.1-1.2v-.4c.1-.4.1-.9.2-1.3 0-.2.1-.4.1-.6s0-.4.1-.6l.4-2.4c.1-.4.1-.9.2-1.3l.3-1.4.4-2.5c.2-.8.4-1.7.5-2.6.1-.5.2-.9.2-1.4.1-.5.1-.9.2-1.4 0-.2.1-.4.1-.6 0-.3.1-.5.2-.8l.3-1.2c.1-.4.1-.9.2-1.3l.3-1.3.3-1.2.4-1.5.3-1.3c.1-.4.3-.9.4-1.3l.4-1.4.5-1.3.4-1.4c.1-.4.2-1 .4-1.4l.3-1.3c.1-.2.1-.5.2-.7 0-.2.1-.5.2-.7l.3-1c.1-.3.1-.5.2-.7 0-.1.1-.2.2-.3.1-.2.1-.3.2-.5l.2-.5c.1-.1.1-.3.2-.4.1-.2.2-.4.3-.7l.1-.3h-.2l-.1-.3zm-5.6 57h0z" opacity=".63"/><path d="M165.5 94.8h0zm-1.6.3h0zm2 1.9h0zm15.3 38.7h0zm0 .1h0z" opacity=".63"/></g><g fill="#2f345b"><path d="M151.3 65.1c-.2 0-.5 0-.7.1-.2 0-.3.1-.5.2-.1 0-.2.1-.3.1-.1.1-.3.1-.4.2-.2.2-.4.4-.5.6l-.1.2a.55.55 0 0 0-.3.5v.3c0 .1-.1.4-.1.6h0c0 .2-.1.3-.1.5-.1.3-.1.6-.2.9s0 .4 0 .6v1c0 .2 0 .5.1.7v-.2 3.7c0 .1 0 .3.1.4 0 .2.1.3.1.5s.1.4.2.6c0 .1.1.2.2.3h0c.1.1.1.2.2.3s.2.3.3.4c.2.2.4.4.6.5h-.1c.2.1.4.2.5.2.2 0 .4.1.5.1.2 0 .3 0 .5-.1h.4c.1 0 .2-.1.3-.1.2-.1.3-.1.4-.2.3-.2.5-.4.7-.7.3-.5.4-1 .5-1.6 0-.2 0-.4.1-.6s0-.4 0-.6v-6.4c0-.5-.1-.9-.2-1.4 0-.2-.1-.3-.2-.5a1.38 1.38 0 0 0-.3-.4l-.2-.2c-.2-.2-.3-.3-.6-.3h-.1l-.3-.1c-.1 0-.3-.1-.5-.1h0-.3.3zm-3 3.4h0zm49.1-3.6l-.6.3c-.2.1-.3.2-.5.3l-.4.4c-.2.2-.3.5-.4.8-.1.2-.1.4-.2.6-.1.5-.1 1-.1 1.6s.1 1.2.2 1.8c0 .4.1.8.1 1.2a.9.9 0 0 0 .1.5c.1.2 0 .3 0 .5v1.9c0 .4 0 .6.1.9 0 .3.1.6.3.8.1.3.3.5.5.7s.4.4.7.5h0c.2.1.5.2.7.3l.4.1h.4c.2 0 .5-.1.7-.2s.4-.2.6-.4.4-.4.6-.7c.1-.3.3-.5.4-.8.1-.5.2-1.1.2-1.6l.1-.5v.2c0-.3.1-.5.1-.8h0v-.2c0-.2.1-.5.1-.7s0-.5.1-.8v-1.5c0-.4-.1-.8-.1-1.1s-.1-.7-.2-1-.1-.7-.2-1-.1-.6-.2-.9c-.1-.4-.3-.7-.5-1-.3-.3-.6-.5-1-.6-.3-.1-.6-.1-.9-.1h-.1c-.3.3-.7.4-1 .5h0zm4.1 8.5h0z"/><path d="M147.8 65.3c-.1 0-.1.1-.2.2v.2c.1.1.1.2.2.3l.2.2c.1.1.2.3.3.4l.4.4c.1.2.3.3.4.4s.2.2.3.1.2-.2.1-.3l-.5-.5c-.1-.1-.2-.3-.3-.4s-.2-.3-.3-.4l-.2-.3c-.1-.1-.1-.2-.2-.3s-.1-.1-.2-.1v.1zm1.6-1.3c-.1 0-.1.1-.1.2v.2c.1.3.3.7.4 1 .1.2.2.3.3.5s.2.3.3.5c.1.1.2.2.4.1.1 0 .1-.1.1-.1v-.2c-.1-.1-.2-.3-.3-.4-.1-.2-.1-.3-.2-.4s-.2-.6-.3-.9h0l-.1-.4c-.1-.1-.2-.2-.3-.2-.1.1-.1.1-.2.1h0zm2.5-.7c-.1 0-.2.1-.2.2 0 .2-.1.4-.1.5 0 .2 0 .4-.1.6s0 .4-.1.6-.1.4-.1.6c0 .1 0 .1.1.2 0 0 .1.1.2.1s.1 0 .2-.1c0 0 .1-.1.1-.2 0-.2.1-.5.1-.7s.1-.5.1-.7.1-.3.1-.5.1-.3.1-.5v-.2c0-.1-.1-.1-.2-.1h-.1c0 .2 0 .2-.1.2h0zm2.2 1.2c-.1 0-.1.1-.1.1l-.2.2c0 .1-.1.1-.1.2-.2.2-.3.4-.5.6a3.04 3.04 0 0 0-.5.7c-.1.1-.1.3.1.4h0c.1.1.3.1.4-.1h0c.1-.2.2-.3.4-.5.1-.2.3-.3.4-.4l.3-.3c.1-.1.1-.2.2-.3h0c.1-.1.1-.3.1-.4-.1-.1-.2-.2-.3-.2h-.2zm.9 1.7c-.2.1-.3.1-.5.2a.76.76 0 0 1-.4.2c-.2.1-.4.1-.6.2-.2 0-.2.2-.2.4h0c0 .1.2.2.3.2.3-.1.6-.1.8-.2.1-.1.2-.1.4-.2.1-.1.2-.1.4-.2.1-.1.2-.2.2-.3-.1-.2-.2-.3-.4-.3h0zm40.2-1.7c-.1.1-.2.1-.2.2v.3c0 .1.1.2.2.3l.5.5.8.7c.1.1.2.1.3.1.2 0 .4-.1.4-.3h0c0-.1 0-.2-.1-.3-.4-.3-.7-.7-1-1.1-.1-.1-.2-.3-.3-.4s-.2-.1-.3-.1c-.2.1-.3.1-.3.1h0zm1.6-1.5c-.2 0-.3.2-.3.3 0 .2.1.4.1.6.1.2.1.4.2.6s.1.4.2.6l.3.6c.1.2.3.2.5.1s.2-.3.1-.4-.1-.3-.2-.4c0-.1-.1-.2-.1-.3s-.2-.5-.2-.7c0-.1-.1-.2-.1-.3 0-.2-.1-.3-.1-.4 0-.2-.2-.3-.4-.3h0zm2-.2c-.1.2-.1.4-.1.6v.5c0 .4 0 .7-.1 1.1 0 .2.1.3.3.4.2 0 .3-.1.4-.3h0c0-.4 0-.7.1-1.1l.1-.5V63c0-.1-.1-.3-.2-.3h-.1c-.2-.1-.3 0-.4.1h0zm2.1 1.5l-.2.3c0 .1-.1.2-.2.2l-.6.6h.1l-.4.2c-.1 0-.1.1-.1.2v.2c.1.1.2.2.3.1h0l.9-.6c.3-.2.5-.5.7-.8.1-.1 0-.3-.1-.4s-.3-.1-.4 0h0zm1.1 1.3l-1.2.8c-.1 0-.2.1-.2.2v.3c0 .1.1.2.2.2h.3c.2-.1.4-.3.6-.4l.3-.2c.1-.1.3-.1.4-.2s.1-.3.1-.4c-.1-.1-.2-.2-.3-.2-.1-.1-.2-.1-.2-.1h0zm-58.1 36.8c-.1 0-.2 0-.4.1-.4 0-.7.2-1 .4l-.2.2c-.2.1-.3.3-.4.4s-.2.3-.3.5-.2.4-.2.6-.1.4-.1.6v.7c0 .3.1.5.2.8.1.2.1.3.2.4.1.3.3.6.5.9.2.4.5.7.7 1.1s.4.7.7 1c.6.7 1.3 1.3 2 1.9l1 .9 1.1.9 1.5.9c.4.2.8.5 1.2.7l1.2.6 1.1.6c.4.2.8.3 1.2.5l1.3.5 2.6.9.9.3.6.1 1.3.3c.4.1.9.2 1.3.2l1.1.3 1 .3c.3.1.7.1 1 .1l.8.1c.5.1 1 .1 1.5.1h-.4.5l2.8.3 3.2.2c.5 0 1.1-.1 1.6-.1s.9 0 1.4-.1 1-.1 1.6-.2.9 0 1.4 0h1.9l2.5-.4c.6-.2 1.3-.4 1.9-.5s1.2-.3 1.8-.4l2.7-.6 2.4-.6 2.2-.8c.4-.2.8-.3 1.2-.5l1.2-.6c.4-.2.8-.4 1.2-.5l.9-.5.6-.4c.4-.2.8-.5 1.2-.7.4-.3.9-.6 1.4-.9.4-.2.7-.5 1-.8l1.3-1 2.4-2.2c.2-.2.3-.4.5-.7.3-.4.5-.8.8-1.2.2-.4.3-.8.3-1.2l.1-.4c.1-.8-.2-1.6-.8-2.2-.4-.4-1-.6-1.6-.5h-.3c-.2 0-.5.1-.7.2-.6.2-1.2.5-1.8.9-.4.3-.8.7-1.1 1l-.4.4c-.2.2-.3.5-.5.7-.1.2-.2.3-.3.5l-.3.2c-.2.1-.3.3-.5.5-.4.3-.8.7-1.2 1l-1.5 1.1c-.5.4-1 .7-1.5 1-.3.2-.5.4-.8.6s-.6.3-.9.5l.1-.1-1 .5c-.5.2-1 .5-1.6.7l-1.8.7c-.6.2-1.1.4-1.7.5l-1 .3c-.3.1-.7.2-1.1.3l-1.3.2c-.5.1-1 .1-1.5.2l-3.1.4-3 .4c-.5.1-1 0-1.5 0H172l-2.5-.2-2.5-.4-1.3-.3-1.4-.3-2.5-.6-1.6-.6-.9-.3-.9-.4-1.7-.8c-.3-.2-.6-.3-.9-.5l-.7-.4-1.1-.7.3.2-.5-.4c-.5-.3-.9-.6-1.4-1-.2-.2-.4-.3-.6-.5l-1-1c-.2-.2-.4-.4-.6-.5l-.5-.5-.5-.4c-.1-.1-.2-.3-.4-.4l-.6-.6-.4-.3c-.3-.2-.5-.5-.7-.7-.3-.3-.7-.5-1.1-.8-.3-.2-.7-.3-1-.4s-.7-.1-1-.1l-.1-.2zm9.6 6.9h0z"/></g><g fill="#fff" class="L"><path d="M266 62.1c-1.6 0-2.5 1.9-1.8 1.9a1.8 1.8 0 1 1 0 3.6c-1 0-2-.8-2-2.5 0-2.5 2.2-3.8 3.9-3.7v.7zm4.6 0c-1.6 0-2.5 1.9-1.8 1.9a1.8 1.8 0 1 1 0 3.6c-1 0-2-.8-2-2.5 0-2.5 2.2-3.8 3.9-3.7v.7zm2.3 14.7V62.1c0-.2.1-.3.3-.3h4.5c5.1 0 7.9 3.4 7.9 7.7s-2.7 7.7-7.9 7.7h-4.5c-.2-.1-.3-.2-.3-.4zm4.8-2.5c3.1 0 4.7-1.7 4.7-4.9s-1.6-4.9-4.7-4.9H276v9.8h1.7z"/><use xlink:href="#B"/><path d="M299.5 75.6c-.1-.2-.1-.4 0-.6l.8-1.1c.2-.3.4-.2.6-.1.9.7 1.6 1.1 2.5 1.1.7 0 1.2-.3 1.2-.9 0-.5-.3-.8-1.1-1.1l-1.4-.5c-1.4-.5-2.4-1.5-2.4-2.9 0-2.1 1.8-3.3 3.8-3.3a4.6 4.6 0 0 1 3.6 1.7.45.45 0 0 1 0 .5l-1 1.2c-.2.2-.3.2-.5 0-.7-.6-1.3-.9-2-.9s-1 .4-1 .9.4.8 1 1.1l1.5.6c1.4.6 2.4 1.5 2.4 3.1 0 2.2-1.9 3.3-4 3.3-1.8-.3-3.2-1.1-4-2.1zm10.1-12.9c0-.9.7-1.7 1.7-1.7s1.7.7 1.7 1.7c0 .9-.7 1.7-1.7 1.7s-1.7-.7-1.7-1.7zm.1 14.1V66.7c0-.2.1-.3.3-.3h2.4c.2 0 .3.1.3.3v10.1c0 .2-.1.3-.3.3H310c-.1 0-.3-.1-.3-.3zm6.6 3.6a.47.47 0 0 1-.1-.6l.6-1.2c.1-.2.3-.3.5-.2.9.5 1.9.8 2.9.8 1.5 0 3.1-.7 3.1-2.7v-1.2c-.7 1-1.8 1.6-3.3 1.6-3 0-5.1-2.2-5.1-5.4s2-5.4 5.1-5.4c1.6 0 2.7.6 3.4 1.6v-1c0-.2.2-.3.4-.3h2.2c.2 0 .3.1.3.3v9.9c0 3.9-3 5.1-5.7 5.1-1.7-.1-3.2-.5-4.3-1.3zm6.9-8.9c0-1.7-1.1-2.7-2.6-2.7-1.6 0-2.7 1.1-2.7 2.7 0 1.7 1.1 2.7 2.7 2.7 1.5 0 2.6-1.1 2.6-2.7zm5.6 5.3V66.7c0-.2.1-.3.3-.3h2.3c.2 0 .3.1.3.4l.1 1.3c.6-1.1 1.7-1.9 3.3-1.9 2.2 0 3.9 1.6 3.9 4.4v6.3c0 .2-.2.3-.4.3h-2.4c-.2 0-.3-.1-.3-.3v-5.6c0-1.5-.7-2.3-2-2.3s-2.1.8-2.1 2.3v5.6c0 .2-.1.3-.3.3h-2.4c-.2-.1-.3-.2-.3-.4zm17.3 0V62.1c0-.2.1-.3.3-.3h7.8c.2 0 .3.1.3.3v2.1c0 .2-.1.3-.3.3h-5v3.4h4.7c.2 0 .3.1.3.3v2.1c0 .2-.1.3-.3.3h-4.7v3.6h5c.2 0 .3.1.3.3v2.1c0 .2-.1.3-.3.3h-7.8c-.2.2-.3.1-.3-.1z"/><use xlink:href="#C"/><use xlink:href="#D"/><path d="M368 76.7l3.3-5.1-3.1-4.9c-.1-.2 0-.4.2-.4h2.6c.2 0 .3.1.4.2l1.7 2.9 1.7-2.9c.1-.2.2-.2.4-.2h2.6c.3 0 .4.2.2.4l-3.1 4.9 3.2 5.1c.2.2 0 .4-.2.4h-2.6c-.2 0-.3-.1-.4-.2l-1.8-3.1-1.9 3.1c-.1.2-.2.2-.4.2h-2.6c-.2 0-.3-.1-.2-.4z"/><use xlink:href="#D" x="17.3"/><use xlink:href="#E"/><path d="M398.3 69.5c0-4.5 3.5-7.9 7.9-7.9a7.85 7.85 0 0 1 7.9 7.9 7.9 7.9 0 1 1-15.8 0zm12.6 0c0-2.8-2-4.9-4.7-4.9s-4.7 2.1-4.7 4.9 2 4.8 4.7 4.8 4.7-2.1 4.7-4.8zm5.6 7.3V66.7c0-.2.1-.3.3-.3h2.3c.2 0 .3.1.3.4l.1 1.3c.6-1.1 1.7-1.9 3.3-1.9 2.2 0 3.9 1.6 3.9 4.4v6.3c0 .2-.2.3-.4.3H424c-.2 0-.3-.1-.3-.3v-5.6c0-1.5-.7-2.3-2-2.3s-2.1.8-2.1 2.3v5.6c0 .2-.1.3-.3.3h-2.4c-.3-.1-.4-.2-.4-.4z"/><use xlink:href="#C" x="72.1"/><path d="M434.8 62.7c0-.9.7-1.7 1.7-1.7s1.7.7 1.7 1.7c0 .9-.7 1.7-1.7 1.7-.9 0-1.7-.7-1.7-1.7zm.2 14.1V66.7c0-.2.1-.3.3-.3h2.4c.2 0 .3.1.3.3v10.1c0 .2-.1.3-.3.3h-2.4c-.2 0-.3-.1-.3-.3zm5.7 0V66.7c0-.2.1-.3.3-.3h2.3c.2 0 .3.1.3.4l.1 1.3c.6-1.1 1.7-1.9 3.3-1.9 2.2 0 3.9 1.6 3.9 4.4v6.3c0 .2-.2.3-.4.3h-2.4c-.2 0-.3-.1-.3-.3v-5.6c0-1.5-.7-2.3-2-2.3s-2.1.8-2.1 2.3v5.6c0 .2-.1.3-.3.3H441c-.2-.1-.3-.2-.3-.4z"/><use xlink:href="#B" x="165.6"/><path d="M469.7 75a.45.45 0 0 1 0-.5L471 73c.2-.2.3-.2.5 0 1 1 1.8 1.5 3.1 1.5s2.2-.5 2.2-1.7c0-1-.8-1.4-1.8-1.9l-1.9-.9c-1.6-.7-3.1-1.9-3.1-4.2 0-2.8 2.1-4.3 4.8-4.3 1.8 0 3.3.7 4.5 2 .2.2.2.3 0 .5l-1.3 1.5c-.1.2-.3.2-.5.1-.9-.8-1.7-1.3-2.7-1.3-1.1 0-1.8.6-1.8 1.5s.6 1.3 1.8 1.8l1.6.7c1.7.8 3.4 1.8 3.4 4.4 0 3.1-2.5 4.5-5.1 4.5a5.57 5.57 0 0 1-5-2.2zm13.1-.8v-5.5h-1.4c-.2 0-.3-.1-.3-.3v-1.7c0-.2.1-.3.3-.3h1.4v-2.5c0-.2.1-.3.3-.3h2.4c.2 0 .3.1.3.3v2.5h1.7c.2 0 .3.1.3.3v1.7c0 .2-.1.3-.3.3h-1.7v5.2c0 .6.4.9.9.9h.7c.2 0 .4.1.4.3v1.6c0 .5-1.1.6-1.8.6-1.7.1-3.2-.7-3.2-3.1zm6.3-2.5c0-3.2 2.4-5.7 5.7-5.7 3.2 0 5.6 2.5 5.6 5.7s-2.4 5.7-5.6 5.7c-3.3 0-5.7-2.5-5.7-5.7zm8.4 0c0-1.8-1.2-2.9-2.7-2.9s-2.7 1.1-2.7 2.9 1.2 2.9 2.7 2.9 2.7-1.1 2.7-2.9z"/><use xlink:href="#E" x="116.6"/><path d="M510.1 71.7c0-3.2 2.2-5.6 5.5-5.6s5.2 2.4 5.2 5.1c0 1.1-.2 1.6-1.2 1.6H513c.3 1.4 1.5 2.1 3.2 2.1.8 0 1.6-.2 2.5-.7.2-.1.3-.1.4.1l.8 1.1c.1.2.1.3-.1.5-.9.9-2.3 1.4-3.8 1.4-3.5.1-5.9-2.3-5.9-5.6zm8-1c-.2-1.4-1.1-2.2-2.4-2.2s-2.4.7-2.6 2.2h5zm2.9-3.9c1.6 0 2.5-1.9 1.8-1.9a1.8 1.8 0 1 1 0-3.6c1 0 2 .8 2 2.5 0 2.5-2.2 3.8-3.9 3.7v-.7zm4.6 0c1.6 0 2.5-1.9 1.8-1.9a1.79 1.79 0 0 1-1.8-1.8c0-1 .8-1.8 1.9-1.8 1 0 2 .8 2 2.5 0 2.5-2.2 3.8-3.9 3.7v-.7z"/><use xlink:href="#F"/><path d="M541.1 75.6c-.1-.2-.1-.4 0-.6l.8-1.1c.2-.3.4-.2.5-.1.9.7 1.7 1.1 2.5 1.1.7 0 1.2-.3 1.2-.9 0-.5-.3-.8-1.1-1.1l-1.4-.5c-1.4-.5-2.4-1.5-2.4-2.9 0-2.1 1.8-3.3 3.8-3.3a4.6 4.6 0 0 1 3.6 1.7.45.45 0 0 1 0 .5l-1 1.2c-.2.2-.3.2-.5 0-.7-.6-1.3-.9-2-.9s-1 .4-1 .9.4.8 1 1.1l1.5.6c1.4.6 2.4 1.5 2.4 3.1 0 2.2-1.9 3.3-4 3.3-1.7-.3-3-1.1-3.9-2.1zm14.5 1.2V66.7c0-.2.1-.3.3-.3h2.3c.2 0 .3.1.3.4l.1 1.3c.6-1.1 1.7-1.9 3.3-1.9 2.2 0 3.9 1.6 3.9 4.4v6.3c0 .2-.2.3-.4.3H563c-.2 0-.3-.1-.3-.3v-5.6c0-1.5-.7-2.3-2-2.3s-2.1.8-2.1 2.3v5.6c0 .2-.1.3-.3.3H556c-.2-.1-.4-.2-.4-.4zm12.3-5.1c0-3.2 2.4-5.7 5.7-5.7 3.2 0 5.6 2.5 5.6 5.7s-2.4 5.7-5.6 5.7c-3.3 0-5.7-2.5-5.7-5.7zm8.3 0c0-1.8-1.2-2.9-2.7-2.9s-2.7 1.1-2.7 2.9 1.2 2.9 2.7 2.9 2.7-1.1 2.7-2.9zm5.8 2.5v-5.5h-1.4c-.2 0-.3-.1-.3-.3v-1.7c0-.2.1-.3.3-.3h1.4v-2.5c0-.2.1-.3.3-.3h2.4c.2 0 .3.1.3.3v2.5h1.7c.2 0 .3.1.3.3v1.7c0 .2-.1.3-.3.3H585v5.2c0 .6.4.9.9.9h.7c.2 0 .4.1.4.3v1.6c0 .5-1.1.6-1.8.6-1.7.1-3.2-.7-3.2-3.1zm10.8-2.5c0-3.2 2.1-5.7 5.1-5.7 1.6 0 2.8.7 3.5 1.8v-1.2c0-.2.1-.3.3-.3h2.2c.2 0 .3.1.3.3v10.1c0 .2-.2.3-.4.3h-2.1c-.2 0-.3-.1-.3-.3v-1.2c-.7 1.1-1.9 1.8-3.5 1.8-3 .1-5.1-2.3-5.1-5.6zm8.5 0c0-1.7-1.1-2.9-2.7-2.9s-2.8 1.2-2.8 2.9 1.2 2.9 2.8 2.9c1.5 0 2.7-1.1 2.7-2.9zm9 5.2l-4-10.1c-.1-.2 0-.4.3-.4h2.4c.2 0 .3.1.4.3l2.6 7 2.5-7c.1-.2.2-.3.4-.3h2.4c.2 0 .4.1.3.4l-4 10.1c-.1.2-.2.3-.4.3h-2.4c-.3-.1-.5-.2-.5-.3zm7.8-5.2c0-3.2 2.1-5.7 5.1-5.7 1.6 0 2.8.7 3.5 1.8v-1.2c0-.2.1-.3.3-.3h2.2c.2 0 .3.1.3.3v10.1c0 .2-.2.3-.4.3H627c-.2 0-.3-.1-.3-.3v-1.2c-.7 1.1-1.9 1.8-3.5 1.8-3 .1-5.1-2.3-5.1-5.6zm8.5 0c0-1.7-1.1-2.9-2.7-2.9s-2.8 1.2-2.8 2.9 1.2 2.9 2.8 2.9 2.7-1.1 2.7-2.9z"/><use xlink:href="#F" x="96.5"/><use xlink:href="#C" x="280.8"/><path d="M643.1 71.7c0-3.2 2.1-5.7 5.1-5.7 1.6 0 2.8.7 3.5 1.8v-1.2c0-.2.1-.3.3-.3h2.2c.2 0 .3.1.3.3v10.1c0 .2-.2.3-.4.3H652c-.2 0-.3-.1-.3-.3v-1.2c-.7 1.1-1.9 1.8-3.5 1.8-3 .1-5.1-2.3-5.1-5.6zm8.5 0c0-1.7-1.1-2.9-2.7-2.9s-2.8 1.2-2.8 2.9 1.2 2.9 2.8 2.9 2.7-1.1 2.7-2.9zm8.5 3.9v1.2c0 .2-.1.3-.3.3h-2.2c-.2 0-.4-.1-.4-.3V61.7c0-.2.1-.3.3-.3h2.4c.2 0 .3.1.3.3v5.9c.7-1 1.8-1.5 3.3-1.5 3 0 5.1 2.5 5.1 5.7s-2.1 5.7-5.1 5.7c-1.5-.1-2.6-.8-3.4-1.9zm5.7-3.9c0-1.7-1.2-2.9-2.8-2.9s-2.8 1.1-2.8 2.9 1.1 2.9 2.8 2.9c1.6 0 2.8-1.1 2.8-2.9z"/><use xlink:href="#C" x="313.6"/><use xlink:href="#B" x="388.6"/><path d="M694.9 80.9l1.6-3.8-4.2-10.4c-.1-.2 0-.4.3-.4h2.4c.2 0 .3.1.4.3l2.6 7 2.6-7c.1-.2.2-.3.4-.3h2.4c.2 0 .4.1.3.4L697.9 81c-.1.2-.2.3-.4.3h-2.3c-.2 0-.4-.1-.3-.4zm9.4-9.2c0-3.2 2.2-5.6 5.5-5.6s5.2 2.4 5.2 5.1c0 1.1-.2 1.6-1.2 1.6h-6.6c.3 1.4 1.5 2.1 3.2 2.1.8 0 1.6-.2 2.5-.7.2-.1.3-.1.4.1l.8 1.1c.1.2.1.3-.1.5-.9.9-2.3 1.4-3.8 1.4-3.6.1-5.9-2.3-5.9-5.6zm8-1c-.2-1.4-1.1-2.2-2.4-2.2s-2.4.7-2.6 2.2h5zm5.5 3.5v-5.5h-1.4c-.2 0-.3-.1-.3-.3v-1.7c0-.2.1-.3.3-.3h1.4v-2.5c0-.2.1-.3.3-.3h2.4c.2 0 .3.1.3.3v2.5h1.7c.2 0 .3.1.3.3v1.7c0 .2-.1.3-.3.3h-1.7v5.2c0 .6.4.9.9.9h.7c.2 0 .4.1.4.3v1.6c0 .5-1.1.6-1.8.6-1.6.1-3.2-.7-3.2-3.1zm6.6 1.4a1.8 1.8 0 1 1 3.6 0 1.8 1.8 0 1 1-3.6 0z"/></g><g fill="#fff" class="L"><path d="M262.8 105.8c0-4 3-7.2 7.1-7.2 1.9 0 3.5.7 4.7 1.8.1.1.2.3.1.5l-.6.6c-.1.1-.3.1-.4 0-1-.9-2.2-1.4-3.7-1.4-3.2 0-5.6 2.4-5.6 5.8s2.4 5.7 5.6 5.7c1.5 0 2.7-.5 3.7-1.4.2-.2.3-.1.4 0l.6.6c.2.2.1.3-.1.5-1.2 1.1-2.8 1.8-4.7 1.8-4.2-.1-7.1-3.3-7.1-7.3zm23 .9v5.8c0 .2-.1.3-.3.3h-.9c-.2 0-.2-.1-.2-.3v-5.6c0-1.7-.9-2.8-2.5-2.8s-2.8 1.1-2.8 2.8v5.6c0 .2-.1.3-.3.3h-.9c-.2 0-.3-.1-.3-.3V98.7c0-.2.1-.3.3-.3h.9c.2 0 .3.1.3.3v5.8c.6-1 1.6-1.8 3.2-1.8 2 0 3.5 1.4 3.5 4z"/><use xlink:href="#G"/><use xlink:href="#H"/><path d="M311.2 112.4V98.7c0-.2.1-.3.3-.3h.9c.2 0 .3.1.3.3v9.4l4.6-5c.1-.1.2-.2.3-.2h1.2c.2 0 .2.2.1.3l-3.6 3.9 4.2 5.3c.1.2.1.3-.2.3h-1c-.2 0-.3 0-.4-.2l-3.5-4.5-1.7 1.8v2.5c0 .2-.1.3-.3.3h-.9c-.2.1-.3 0-.3-.2zm16-1.6v1.6c0 .2-.1.3-.3.3h-.8c-.2 0-.3-.1-.3-.3V98.7c0-.2.1-.3.3-.3h.9c.2 0 .3.1.3.3v6.1c.7-1.3 2-2.1 3.7-2.1 2.9 0 4.8 2.2 4.8 5.1s-2 5.1-4.8 5.1c-1.8 0-3.1-.8-3.8-2.1zm7.2-3c0-2.3-1.5-3.8-3.6-3.8s-3.5 1.6-3.5 3.8c0 2.3 1.5 3.8 3.5 3.8 2.1 0 3.6-1.5 3.6-3.8z"/><use xlink:href="#I"/><use xlink:href="#H" x="50.5"/><path d="M361.8 112.4V98.7c0-.2.1-.3.3-.3h.9c.2 0 .3.1.3.3v9.4l4.6-5c.1-.1.2-.2.3-.2h1.2c.2 0 .2.2.1.3l-3.6 3.9 4.2 5.3c.1.2.1.3-.2.3h-1c-.2 0-.3 0-.4-.2L365 108l-1.7 1.8v2.5c0 .2-.1.3-.3.3h-1c-.2.1-.2 0-.2-.2zm15.4 0v-8.3H376c-.2 0-.3-.1-.3-.3v-.6c0-.2.1-.3.3-.3h1.2v-2.2c0-1.7.9-2.6 2.6-2.6.4 0 .7 0 1 .2.1.1.2.1.2.3v.8c0 .1-.1.2-.2.1-.3 0-.5-.1-.7-.1-1.1 0-1.3.7-1.3 1.6v1.9h2c.2 0 .3.1.3.3v.6c0 .2-.1.3-.3.3h-2v8.3c0 .2-.1.3-.3.3h-.9c-.3 0-.4-.1-.4-.3zm5-4.6c0-2.9 2.2-5.1 5-5.1s5 2.2 5 5.1-2.2 5.1-5 5.1-5-2.2-5-5.1zm8.7 0c0-2.2-1.5-3.8-3.6-3.8s-3.6 1.6-3.6 3.8 1.5 3.8 3.6 3.8c2 0 3.6-1.6 3.6-3.8zm3.9 4.6v-9.2c0-.2.1-.3.3-.3h.8c.2 0 .3.1.3.3v1.1c.4-.9 1-1.7 2.3-1.7.4 0 .7.1.9.2.1.1.2.2.2.3v.7c0 .2-.1.3-.4.2s-.5-.1-.7-.1c-1.8 0-2.2 1.6-2.2 2.7v5.8c0 .2-.1.3-.3.3h-1c-.1 0-.2-.1-.2-.3zm19.1-5.7v5.8c0 .2-.1.3-.3.3h-.9c-.2 0-.2-.1-.2-.3v-5.6c0-1.7-.9-2.8-2.5-2.8s-2.8 1.1-2.8 2.8v5.6c0 .2-.1.3-.3.3h-.9c-.2 0-.3-.1-.3-.3V98.7c0-.2.1-.3.3-.3h.9c.2 0 .3.1.3.3v5.8c.6-1 1.6-1.8 3.2-1.8 2.1 0 3.5 1.4 3.5 4z"/><use xlink:href="#I" x="78.6"/><path d="M429.5 112.4v-9.2c0-.2.1-.3.3-.3h.8c.2 0 .3.1.3.3l.1 1.3c.6-1 1.6-1.8 3.2-1.8 2.1 0 3.6 1.4 3.6 4v5.8c0 .2-.1.3-.3.3h-.9c-.2 0-.2-.1-.2-.3v-5.6c0-1.7-.9-2.8-2.5-2.8s-2.8 1.1-2.8 2.8v5.6c0 .2-.1.3-.3.3h-.9c-.4-.1-.4-.2-.4-.4zm10.7-4.6c0-2.9 2-5.1 4.8-5.1 1.7 0 3 .8 3.7 2.1v-6.1c0-.2.1-.3.3-.3h.9c.2 0 .3.1.3.3v13.7c0 .2-.1.3-.3.3h-.9c-.2 0-.3-.1-.3-.3v-1.6c-.7 1.3-2 2.1-3.8 2.1-2.7 0-4.7-2.2-4.7-5.1zm8.6 0c0-2.3-1.5-3.8-3.6-3.8s-3.6 1.5-3.6 3.8 1.5 3.8 3.6 3.8c2.2 0 3.6-1.5 3.6-3.8zm4-.4v-.7c0-.2.1-.3.3-.3h6c.2 0 .3.1.3.3v.7c0 .2-.1.3-.3.3h-6c-.2 0-.3-.1-.3-.3z"/><use xlink:href="#H" x="161.7"/><use xlink:href="#J"/><path d="M479 107.8c0-2.9 2-5.1 4.8-5.1 1.8 0 3 .9 3.8 2.2v-1.6c0-.2.1-.3.3-.3h.9c.2 0 .3.1.3.3v9.2c0 .2-.1.3-.3.3h-.9c-.2 0-.3-.1-.3-.3v-1.6c-.7 1.3-2 2.1-3.8 2.1-2.9-.1-4.8-2.3-4.8-5.2zm8.5 0c0-2.3-1.5-3.8-3.6-3.8s-3.6 1.5-3.6 3.8 1.5 3.8 3.6 3.8c2.2 0 3.6-1.5 3.6-3.8z"/><use xlink:href="#K"/><use xlink:href="#L"/><path d="M504.8 107.8c0-2.9 2-5.1 4.9-5.1s4.6 2.2 4.6 4.6c0 .7-.1 1-.7 1h-7.4c.2 1.9 1.5 3.4 3.9 3.4a4.67 4.67 0 0 0 2.8-.9c.1-.1.2-.1.3 0l.3.5c.1.2.1.3-.1.4-.9.8-2.1 1.3-3.5 1.3-3.1-.1-5.1-2.4-5.1-5.2zm8.3-.6c-.1-1.9-1.3-3.3-3.3-3.3-1.9 0-3.3 1.3-3.5 3.3h6.8zm3.3.6c0-2.9 2-5.1 4.8-5.1 1.7 0 3 .8 3.7 2.1v-6.1c0-.2.1-.3.3-.3h.9c.2 0 .3.1.3.3v13.7c0 .2-.1.3-.3.3h-.9c-.2 0-.3-.1-.3-.3v-1.6c-.7 1.3-2 2.1-3.8 2.1-2.8 0-4.7-2.2-4.7-5.1zm8.6 0c0-2.3-1.5-3.8-3.6-3.8s-3.6 1.5-3.6 3.8 1.5 3.8 3.6 3.8 3.6-1.5 3.6-3.8zm7.9 0c0-2.9 2-5.1 4.8-5.1 1.7 0 3 .8 3.7 2.1v-6.1c0-.2.1-.3.3-.3h.9c.2 0 .3.1.3.3v13.7c0 .2-.1.3-.3.3h-.9c-.2 0-.3-.1-.3-.3v-1.6c-.7 1.3-2 2.1-3.8 2.1-2.7 0-4.7-2.2-4.7-5.1zm8.6 0c0-2.3-1.5-3.8-3.6-3.8s-3.6 1.5-3.6 3.8 1.5 3.8 3.6 3.8 3.6-1.5 3.6-3.8z"/><use xlink:href="#M"/><path d="M551.3 115.9c-.2-.1-.2-.2-.1-.4l.3-.6c.1-.1.2-.2.4-.1.8.5 1.8.8 2.8.8 1.9 0 3.7-.8 3.7-3.3v-1.6c-.7 1.2-2 2-3.7 2-2.8 0-4.8-2-4.8-5 0-2.9 2-5 4.7-5 1.8 0 3 .8 3.8 2v-1.5c0-.2.1-.3.2-.3h.9c.2 0 .3.1.3.3v9.1c0 3.2-2.5 4.5-5 4.5-1.5 0-2.7-.4-3.5-.9zm7-8.2c0-2.2-1.4-3.7-3.5-3.7-2 0-3.6 1.4-3.6 3.6s1.5 3.6 3.6 3.6c2.1.1 3.5-1.3 3.5-3.5z"/><use xlink:href="#M" x="16.9"/><use xlink:href="#L" x="68.4"/><use xlink:href="#N"/><path d="M586.3 112.4V98.7c0-.2.1-.3.3-.3h.9c.2 0 .3.1.3.3v13.7c0 .2-.1.3-.3.3h-.9c-.3 0-.3-.1-.3-.3z"/><use xlink:href="#N" x="21"/><use xlink:href="#O"/><use xlink:href="#P"/><path d="M624.4 107.8c0-2.9 2-5.1 4.9-5.1s4.6 2.2 4.6 4.6c0 .7-.1 1-.7 1h-7.4c.2 1.9 1.5 3.4 3.9 3.4a4.67 4.67 0 0 0 2.8-.9c.1-.1.2-.1.3 0l.3.5c.1.2.1.3-.1.4-.9.8-2.1 1.3-3.5 1.3-3.2-.1-5.1-2.4-5.1-5.2zm8.2-.6c-.1-1.9-1.3-3.3-3.3-3.3-1.9 0-3.3 1.3-3.5 3.3h6.8z"/><use xlink:href="#L" x="137.6"/><path d="M643.9 110.8v-6.7h-1.3c-.2 0-.3-.1-.3-.3v-.6c0-.2.1-.3.3-.3h1.3v-2.3c0-.2.1-.3.3-.3h.9c.2 0 .3.1.3.3v2.3h1.7c.2 0 .3.1.3.3v.6c0 .2-.1.3-.3.3h-1.7v6.5c0 .8.3 1 .9 1h.6c.3 0 .4.1.4.3v.6c0 .3-.7.4-1.3.4-1.3 0-2.1-.6-2.1-2.1z"/><use xlink:href="#O" x="42.3"/><path d="M657.4 114.7c1.3 0 1.8-1.7 1.1-1.7s-1.1-.4-1.1-1a1.11 1.11 0 0 1 1.1-1.1c.7 0 1.3.7 1.3 1.7 0 1.3-1 2.6-2.5 2.6v-.5z"/><use xlink:href="#K" x="174.1"/><path d="M672 107.8c0-2.9 2.2-5.1 5-5.1s5 2.2 5 5.1-2.2 5.1-5 5.1c-2.9 0-5-2.2-5-5.1zm8.6 0c0-2.2-1.5-3.8-3.6-3.8s-3.6 1.6-3.6 3.8 1.5 3.8 3.6 3.8c2 0 3.6-1.6 3.6-3.8zm3.9 4.6v-9.2c0-.2.1-.3.3-.3h.8c.2 0 .3.1.3.3l.1 1.3c.6-1 1.6-1.8 3.2-1.8 2.1 0 3.6 1.4 3.6 4v5.8c0 .2-.1.3-.3.3h-.9c-.2 0-.2-.1-.2-.3v-5.6c0-1.7-.9-2.8-2.5-2.8s-2.8 1.1-2.8 2.8v5.6c0 .2-.1.3-.3.3h-.9c-.3-.1-.4-.2-.4-.4z"/><use xlink:href="#L" x="196.8"/><use xlink:href="#P" x="85.9"/><path d="M714.3 109.1c0-2.1 1.3-3.2 3.2-4.5-1-1-1.7-2-1.7-3.2 0-1.5 1.2-2.8 3-2.8s3 1.3 3 2.8-1 2.5-2.5 3.5l3.3 3.7 1.4-2.2c.1-.1.1-.2.3-.2h1c.1 0 .2.1.1.3l-1.9 3.1 2.1 2.3c.1.1.1.3 0 .4l-.5.5c-.1.1-.3.1-.4 0l-1.9-2.2c-1.2 1.5-2.6 2.4-4.5 2.4-2.2 0-4-1.4-4-3.9zm7.7.6l-3.6-4.1c-1.6 1-2.6 1.8-2.6 3.4 0 1.8 1.3 2.7 2.8 2.7 1.4-.1 2.5-.8 3.4-2zm-1.5-8.2c0-1-.7-1.6-1.7-1.6s-1.7.6-1.7 1.6.7 1.8 1.4 2.5c1.3-.8 2-1.5 2-2.5zm11.7 10.9v-9.2c0-.2.1-.3.3-.3h.8c.2 0 .3.1.3.3v1.1c.5-.9 1.3-1.7 2.8-1.7 1.4 0 2.4.6 2.9 1.9.5-1.1 1.4-1.9 3.1-1.9 2 0 3.2 1.3 3.2 3.9v5.9c0 .2-.1.3-.3.3h-.9c-.2 0-.3-.1-.3-.3v-5.7c0-1.7-.7-2.7-2.1-2.7s-2.4 1-2.4 2.7v5.7c0 .2-.1.3-.3.3h-.9c-.2 0-.3-.1-.3-.3v-5.7c0-1.7-.8-2.7-2.2-2.7-1.5 0-2.3 1-2.3 2.7v5.7c0 .2-.1.3-.3.3h-.9c-.1 0-.2-.1-.2-.3zm16-4.6c0-2.9 2.2-5.1 5-5.1s5 2.2 5 5.1-2.2 5.1-5 5.1c-2.9 0-5-2.2-5-5.1zm8.6 0c0-2.2-1.5-3.8-3.6-3.8s-3.6 1.6-3.6 3.8 1.5 3.8 3.6 3.8 3.6-1.6 3.6-3.8z"/><use xlink:href="#J" x="287.8"/><use xlink:href="#G" x="478.5"/><path d="M778.5 111.9c0-.6.5-1 1-1a1.08 1.08 0 0 1 1 1c0 .6-.5 1-1 1s-1-.4-1-1zm.5-3.2l-.2-9.7c0-.2.1-.3.3-.3h1c.2 0 .2.1.2.3l-.2 9.7c0 .2-.1.3-.3.3h-.7c0-.1-.1-.2-.1-.3z"/></g><circle cx="99.8" cy="24.6" r="20.5" fill="#384173"/><path d="M99.8 25.6l-7 8.7H91l7.9-9.9-7.6-9.5h1.8l6.7 8.4 6.7-8.3h1.8l-7.6 9.5 7.8 9.9h-1.8l-6.9-8.8z" opacity=".88" fill="#e8e8e8" class="L"/><defs ><path id="B" d="M287.3 71.7c0-3.2 2.2-5.6 5.5-5.6s5.2 2.4 5.2 5.1c0 1.1-.2 1.6-1.2 1.6h-6.6c.3 1.4 1.5 2.1 3.2 2.1.8 0 1.6-.2 2.5-.7.2-.1.3-.1.4.1l.8 1.1c.1.2.1.3-.1.5-.9.9-2.3 1.4-3.8 1.4-3.5.1-5.9-2.3-5.9-5.6zm8-1c-.2-1.4-1.1-2.2-2.4-2.2s-2.4.7-2.6 2.2h5z"/><path id="C" d="M357.2 76.8V61.7c0-.2.1-.3.3-.3h2.4c.2 0 .3.1.3.3v15.1c0 .2-.1.3-.3.3h-2.4c-.2 0-.3-.1-.3-.3z"/><path id="D" d="M362.8 62.7c0-.9.7-1.7 1.7-1.7s1.7.7 1.7 1.7c0 .9-.7 1.7-1.7 1.7s-1.7-.7-1.7-1.7zm.1 14.1V66.7c0-.2.1-.3.3-.3h2.4c.2 0 .3.1.3.3v10.1c0 .2-.1.3-.3.3h-2.4c-.2 0-.3-.1-.3-.3z"/><path id="E" d="M385.9 76.8V66.7c0-.2.1-.3.3-.3h2.3c.2 0 .3.1.3.4l.1 1.4c.4-1.1 1.1-2 2.3-2 .5 0 .8.1 1 .3.2.1.2.2.2.4v1.9c0 .3-.2.3-.4.3-.2-.1-.5-.1-.8-.1-1.5 0-2.3 1-2.3 2.6V77c0 .2-.1.3-.3.3h-2.4c-.2-.2-.3-.3-.3-.5z"/><path id="F" d="M535.6 62.7c0-.9.7-1.7 1.7-1.7s1.7.7 1.7 1.7c0 .9-.7 1.7-1.7 1.7s-1.7-.7-1.7-1.7zm.2 14.1V66.7c0-.2.1-.3.3-.3h2.4c.2 0 .3.1.3.3v10.1c0 .2-.1.3-.3.3h-2.4c-.2 0-.3-.1-.3-.3z"/><path id="G" d="M288.3 107.8c0-2.9 2-5.1 4.9-5.1s4.6 2.2 4.6 4.6c0 .7-.1 1-.7 1h-7.4c.2 1.9 1.5 3.4 3.9 3.4a4.67 4.67 0 0 0 2.8-.9c.1-.1.2-.1.3 0l.3.5c.1.2.1.3-.1.4-.9.8-2.1 1.3-3.5 1.3-3.1-.1-5.1-2.4-5.1-5.2zm8.2-.6c-.1-1.9-1.3-3.3-3.3-3.3-1.9 0-3.3 1.3-3.5 3.3h6.8z"/><path id="H" d="M299.8 107.8c0-2.9 2.2-5.1 5.1-5.1 1.6 0 2.8.6 3.7 1.6.1.2.2.3 0 .4l-.5.5c-.2.2-.3.1-.5 0-.6-.7-1.4-1.2-2.7-1.2-2.2 0-3.8 1.6-3.8 3.8s1.6 3.8 3.8 3.8c1.3 0 2-.5 2.6-1.1.1-.1.3-.2.5 0l.5.5c.1.1.1.2 0 .4-.8 1-2.1 1.6-3.7 1.6a5.12 5.12 0 0 1-5-5.2z"/><path id="I" d="M337.8 107.8c0-2.9 2-5.1 4.8-5.1 1.8 0 3 .9 3.8 2.2v-1.6c0-.2.1-.3.3-.3h.9c.2 0 .3.1.3.3v9.2c0 .2-.1.3-.3.3h-.9c-.2 0-.3-.1-.3-.3v-1.6c-.7 1.3-2 2.1-3.8 2.1-2.8-.1-4.8-2.3-4.8-5.2zm8.6 0c0-2.3-1.5-3.8-3.6-3.8s-3.6 1.5-3.6 3.8 1.5 3.8 3.6 3.8c2.2 0 3.6-1.5 3.6-3.8z"/><path id="J" d="M472.9 112.4v-9.2c0-.2.1-.3.3-.3h.8c.2 0 .3.1.3.3v1.1c.4-.9 1-1.7 2.3-1.7.4 0 .7.1.9.2.1.1.2.2.2.3v.7c0 .2-.1.3-.4.2s-.5-.1-.7-.1c-1.8 0-2.2 1.6-2.2 2.7v5.8c0 .2-.1.3-.3.3h-.9c-.2 0-.3-.1-.3-.3z"/><path id="K" d="M492.8 112.4v-8.3h-1.2c-.2 0-.3-.1-.3-.3v-.6c0-.2.1-.3.3-.3h1.2v-2.2c0-1.7.9-2.6 2.6-2.6.4 0 .7 0 1 .2.1.1.2.1.2.3v.8c0 .1-.1.2-.2.1-.3 0-.5-.1-.7-.1-1.1 0-1.3.7-1.3 1.6v1.9h2c.2 0 .3.1.3.3v.6c0 .2-.1.3-.3.3h-2v8.3c0 .2-.1.3-.3.3h-.9c-.3 0-.4-.1-.4-.3z"/><path id="L" d="M499.6 110.8v-6.7h-1.3c-.2 0-.3-.1-.3-.3v-.6c0-.2.1-.3.3-.3h1.3v-2.3c0-.2.1-.3.3-.3h.9c.2 0 .3.1.3.3v2.3h1.7c.2 0 .3.1.3.3v.6c0 .2-.1.3-.3.3h-1.7v6.5c0 .8.3 1 .9 1h.6c.3 0 .4.1.4.3v.6c0 .3-.7.4-1.3.4-1.4 0-2.1-.6-2.1-2.1z"/><path id="M" d="M545.7 99.5c0-.5.4-.9.9-.9s.9.4.9.9-.4.9-.9.9-.9-.4-.9-.9zm.2 12.9v-9.2c0-.2.1-.3.3-.3h.9c.2 0 .3.1.3.3v9.2c0 .2-.1.3-.3.3h-.9c-.2 0-.3-.1-.3-.3z"/><path id="N" d="M573.2 107.8c0-2.9 2-5.1 4.8-5.1 1.8 0 3 .9 3.8 2.2v-1.6c0-.2.1-.3.3-.3h.9c.2 0 .3.1.3.3v9.2c0 .2-.1.3-.3.3h-.9c-.2 0-.3-.1-.3-.3v-1.6c-.7 1.3-2 2.1-3.8 2.1-2.8-.1-4.8-2.3-4.8-5.2zm8.6 0c0-2.3-1.5-3.8-3.6-3.8s-3.6 1.5-3.6 3.8 1.5 3.8 3.6 3.8 3.6-1.5 3.6-3.8z"/><path id="O" d="M606.9 111.5a.45.45 0 0 1 0-.5l.3-.4c.1-.2.3-.2.5 0 .6.6 1.3 1.1 2.4 1.1s2-.5 2-1.5c0-.9-.6-1.4-1.5-1.8l-1.2-.5c-1.2-.5-2.2-1.2-2.2-2.6 0-1.6 1.4-2.6 3-2.6 1.1 0 2.2.5 2.9 1.4.1.1.1.3 0 .4l-.3.4c-.2.2-.3.2-.5 0-.6-.6-1.3-.9-2-.9-.9 0-1.7.4-1.7 1.4 0 .9.7 1.3 1.7 1.7l1 .4c1.3.5 2.3 1.2 2.3 2.8 0 1.8-1.6 2.8-3.3 2.8-1.8-.2-2.8-.9-3.4-1.6z"/><path id="P" d="M615.8 111.5a.45.45 0 0 1 0-.5l.3-.4c.1-.2.3-.2.5 0 .6.6 1.3 1.1 2.4 1.1s2-.5 2-1.5c0-.9-.6-1.4-1.5-1.8l-1.2-.5c-1.2-.5-2.2-1.2-2.2-2.6 0-1.6 1.4-2.6 3-2.6 1.1 0 2.2.5 2.9 1.4.1.1.1.3 0 .4l-.3.4c-.2.2-.3.2-.5 0-.6-.6-1.3-.9-2-.9-.9 0-1.7.4-1.7 1.4 0 .9.7 1.3 1.7 1.7l1 .4c1.3.5 2.3 1.2 2.3 2.8 0 1.8-1.6 2.8-3.3 2.8-1.8-.2-2.9-.9-3.4-1.6z"/></defs></svg>