<?xml version="1.0" encoding="utf-8"?>
<!-- Generator: Adobe Illustrator 24.3.0, SVG Export Plug-In . SVG Version: 6.00 Build 0)  -->
<svg version="1.1" id="Layer_1" xmlns:v="https://vecta.io/nano"
	 xmlns="http://www.w3.org/2000/svg" xmlns:xlink="http://www.w3.org/1999/xlink" x="0px" y="0px" viewBox="0 0 848.1 165.6"
	 style="enable-background:new 0 0 848.1 165.6;" xml:space="preserve">
<style type="text/css">
	.st0{fill:#8792B4;}
	.st1{fill:none;stroke:#384173;stroke-width:5;stroke-miterlimit:10;}
	.st2{fill:#FFFFFF;}
</style>
<path class="st0" d="M20.7,2.1H825c11.3,0,20.6,9.2,20.6,20.6v119.9c0,11.3-9.2,20.6-20.6,20.6H20.7c-11.3,0-20.6-9.2-20.6-20.6
	v-120C0.1,11.3,9.4,2.1,20.7,2.1z"/>
<path class="st1" d="M20.6,2.1H825c11.3,0,20.6,9.2,20.6,20.6v119.9c0,11.3-9.2,20.6-20.6,20.6H20.6C9.3,163.2,0,154,0,142.6v-120
	C0,11.3,9.3,2.1,20.6,2.1z"/>
<g>
	<path class="st2" d="M129.8,67.3V49.5c0-0.2,0.2-0.4,0.4-0.4h3c0.2,0,0.4,0.2,0.4,0.4v17.9c0,0.2-0.2,0.4-0.4,0.4h-3
		C130,67.7,129.8,67.6,129.8,67.3z"/>
	<path class="st2" d="M136.3,55.3c1.9,0,3-2.3,2.1-2.3c-1.2,0-2.2-1-2.2-2.2c0-1.2,1-2.2,2.2-2.2c1.2,0,2.5,0.9,2.5,3
		c0,3-2.7,4.6-4.7,4.5V55.3z"/>
	<path class="st2" d="M143.5,67.3V55.1c0-0.2,0.2-0.4,0.4-0.4h2.8c0.2,0,0.4,0.1,0.4,0.4l0.1,1.4c0.7-1.2,1.9-2.1,3.7-2.1
		c1.7,0,3,0.8,3.7,2.3c0.7-1.3,2-2.3,4-2.3c2.8,0,4.5,1.9,4.5,5.3v7.7c0,0.2-0.2,0.4-0.4,0.4h-2.9c-0.2,0-0.4-0.2-0.4-0.4v-6.9
		c0-1.8-0.6-2.7-2.1-2.7c-1.4,0-2.2,1-2.2,2.7v6.9c0,0.2-0.2,0.4-0.4,0.4h-2.9c-0.3,0-0.4-0.2-0.4-0.4v-6.9c0-1.8-0.7-2.7-2.1-2.7
		c-1.4,0-2.2,1-2.2,2.7v6.9c0,0.2-0.2,0.4-0.4,0.4h-2.9C143.6,67.7,143.5,67.6,143.5,67.3z"/>
	<path class="st2" d="M170.7,61.2c0-3.9,2.5-6.9,6.2-6.9c2,0,3.4,0.8,4.3,2.2l0.1-1.4c0-0.2,0.2-0.4,0.4-0.4h2.6
		c0.2,0,0.4,0.2,0.4,0.4v12.3c0,0.2-0.2,0.4-0.4,0.4h-2.6c-0.2,0-0.4-0.2-0.4-0.4l-0.1-1.4c-0.9,1.3-2.3,2.2-4.3,2.2
		C173.2,68.1,170.7,65.1,170.7,61.2z M181,61.2c0-2.1-1.4-3.5-3.3-3.5c-1.9,0-3.4,1.4-3.4,3.5c0,2.1,1.4,3.5,3.4,3.5
		C179.6,64.7,181,63.3,181,61.2z"/>
	<path class="st2" d="M187.8,67.3V49.1c0-0.2,0.2-0.4,0.4-0.4h2.9c0.2,0,0.4,0.2,0.4,0.4v18.3c0,0.2-0.2,0.4-0.4,0.4h-2.9
		C188,67.7,187.8,67.6,187.8,67.3z"/>
	<path class="st2" d="M198,67.4l-4.1-12.3c-0.1-0.3,0-0.5,0.3-0.5h2.8c0.2,0,0.4,0.1,0.5,0.3l2.6,8.5L203,55
		c0.1-0.2,0.3-0.3,0.5-0.3h2.8c0.2,0,0.4,0.1,0.5,0.3l2.8,8.5l2.6-8.5c0.1-0.2,0.3-0.3,0.5-0.3h2.8c0.3,0,0.4,0.2,0.3,0.5l-4.1,12.3
		c-0.1,0.2-0.3,0.3-0.5,0.3h-3c-0.2,0-0.4-0.1-0.5-0.3l-2.9-8.5l-2.9,8.5c-0.1,0.2-0.3,0.3-0.5,0.3h-3
		C198.3,67.7,198.1,67.6,198,67.4z"/>
	<path class="st2" d="M216.6,61.2c0-3.9,2.5-6.9,6.2-6.9c2,0,3.4,0.8,4.3,2.2l0.1-1.4c0-0.2,0.2-0.4,0.4-0.4h2.6
		c0.2,0,0.4,0.2,0.4,0.4v12.3c0,0.2-0.2,0.4-0.4,0.4h-2.6c-0.2,0-0.4-0.2-0.4-0.4l-0.1-1.4c-0.9,1.3-2.3,2.2-4.3,2.2
		C219.1,68.1,216.6,65.1,216.6,61.2z M226.9,61.2c0-2.1-1.4-3.5-3.3-3.5c-1.9,0-3.4,1.4-3.4,3.5c0,2.1,1.4,3.5,3.4,3.5
		C225.5,64.7,226.9,63.3,226.9,61.2z"/>
	<path class="st2" d="M236.1,72.4l1.9-4.6l-5-12.6c-0.1-0.3,0-0.5,0.3-0.5h2.9c0.2,0,0.4,0.1,0.5,0.3l3.1,8.5l3.1-8.5
		c0.1-0.2,0.3-0.3,0.5-0.3h2.9c0.3,0,0.4,0.2,0.3,0.5l-6.9,17.4c-0.1,0.2-0.3,0.3-0.5,0.3h-2.8C236.1,72.8,235.9,72.6,236.1,72.4z"
		/>
	<path class="st2" d="M247.8,65.9c-0.2-0.2-0.1-0.5,0.1-0.8l0.9-1.3c0.2-0.3,0.5-0.3,0.7-0.1c1.1,0.8,2,1.3,3,1.3
		c0.9,0,1.5-0.3,1.5-1.1c0-0.6-0.4-1-1.4-1.4l-1.7-0.7c-1.7-0.7-2.9-1.8-2.9-3.6c0-2.5,2.1-3.9,4.6-3.9c1.7,0,3.3,0.7,4.4,2
		c0.2,0.2,0.1,0.4,0,0.6l-1.2,1.4c-0.2,0.2-0.4,0.2-0.6,0c-0.9-0.7-1.6-1.1-2.4-1.1c-0.9,0-1.3,0.5-1.3,1c0,0.6,0.5,1,1.3,1.3
		l1.8,0.7c1.7,0.7,3,1.8,2.9,3.8c0,2.6-2.3,4-4.9,4C250.4,68.1,248.8,67.1,247.8,65.9z"/>
	<path class="st2" d="M265.4,67.3V49.1c0-0.2,0.2-0.4,0.4-0.4h2.9c0.2,0,0.4,0.2,0.4,0.4v18.3c0,0.2-0.2,0.4-0.4,0.4h-2.9
		C265.5,67.7,265.4,67.6,265.4,67.3z"/>
	<path class="st2" d="M271.6,61.2c0-3.9,2.9-6.9,6.9-6.9c3.9,0,6.8,3,6.8,6.9s-2.9,6.9-6.8,6.9C274.5,68.1,271.6,65.1,271.6,61.2z
		 M281.7,61.2c0-2.1-1.4-3.5-3.3-3.5c-1.9,0-3.3,1.3-3.3,3.5c0,2.1,1.4,3.5,3.3,3.5C280.3,64.7,281.7,63.3,281.7,61.2z"/>
	<path class="st2" d="M287.1,61.2c0-3.9,2.9-6.9,6.9-6.9c3.9,0,6.8,3,6.8,6.9s-2.9,6.9-6.8,6.9C290,68.1,287.1,65.1,287.1,61.2z
		 M297.2,61.2c0-2.1-1.4-3.5-3.3-3.5c-1.9,0-3.3,1.3-3.3,3.5c0,2.1,1.4,3.5,3.3,3.5C295.7,64.7,297.2,63.3,297.2,61.2z"/>
	<path class="st2" d="M303.2,67.3V49.1c0-0.2,0.2-0.4,0.4-0.4h2.9c0.2,0,0.4,0.2,0.4,0.4V60l4.3-5.1c0.1-0.2,0.3-0.2,0.5-0.2h3.3
		c0.3,0,0.4,0.2,0.2,0.5l-4.4,5l5.1,7.1c0.2,0.3,0.1,0.5-0.2,0.5h-3.1c-0.2,0-0.3-0.1-0.5-0.2l-3.5-4.8l-1.6,1.8v2.8
		c0,0.2-0.2,0.4-0.4,0.4h-2.9C303.4,67.7,303.2,67.6,303.2,67.3z"/>
	<path class="st2" d="M318,50.3c0-1.1,0.9-2,2.1-2s2,0.9,2,2c0,1.1-0.9,2.1-2,2.1S318,51.4,318,50.3z M318.2,67.3V55.1
		c0-0.2,0.2-0.4,0.4-0.4h2.9c0.2,0,0.4,0.2,0.4,0.4v12.3c0,0.2-0.2,0.4-0.4,0.4h-2.9C318.4,67.7,318.2,67.6,318.2,67.3z"/>
	<path class="st2" d="M325.1,67.3V55.1c0-0.2,0.2-0.4,0.4-0.4h2.8c0.2,0,0.4,0.1,0.4,0.4l0.1,1.5c0.7-1.3,2-2.3,3.9-2.3
		c2.7,0,4.7,2,4.7,5.4v7.6c0,0.2-0.2,0.4-0.4,0.4h-2.9c-0.2,0-0.4-0.2-0.4-0.4v-6.8c0-1.8-0.9-2.8-2.4-2.8c-1.5,0-2.6,1-2.6,2.8v6.8
		c0,0.2-0.2,0.4-0.4,0.4h-2.9C325.3,67.7,325.1,67.6,325.1,67.3z"/>
	<path class="st2" d="M341.7,71.7c-0.3-0.2-0.3-0.5-0.2-0.8l0.8-1.5c0.1-0.3,0.4-0.4,0.7-0.2c1.1,0.6,2.3,1,3.5,1
		c1.8,0,3.7-0.8,3.7-3.2v-1.4c-0.8,1.2-2.2,1.9-4.1,1.9c-3.7,0-6.2-2.7-6.2-6.6c0-3.8,2.5-6.6,6.2-6.6c1.9,0,3.3,0.7,4.1,1.9
		l0.1-1.2c0-0.2,0.2-0.4,0.4-0.4h2.6c0.2,0,0.4,0.2,0.4,0.4V67c0,4.7-3.7,6.2-6.9,6.2C344.8,73.2,343,72.7,341.7,71.7z M350,60.9
		c0-2-1.3-3.3-3.2-3.3c-1.9,0-3.3,1.3-3.3,3.3c0,2,1.4,3.3,3.3,3.3C348.7,64.2,350,62.9,350,60.9z"/>
	<path class="st2" d="M363.2,67.3v-9.8h-1.5c-0.2,0-0.4-0.2-0.4-0.4v-2.1c0-0.2,0.2-0.4,0.4-0.4h1.5v-2c0-3,1.7-4.4,4.5-4.4
		c0.7,0,1.3,0.1,2,0.4c0.2,0.1,0.2,0.2,0.2,0.4v2.4c0,0.2-0.2,0.2-0.3,0.2c-0.4-0.1-0.8-0.1-1.1-0.1c-1.3,0-1.6,0.7-1.6,1.6v1.5h2.6
		c0.2,0,0.4,0.2,0.4,0.4v2.1c0,0.2-0.2,0.4-0.4,0.4h-2.6v9.8c0,0.2-0.2,0.4-0.4,0.4h-2.9C363.3,67.7,363.2,67.6,363.2,67.3z"/>
	<path class="st2" d="M370.8,61.2c0-3.9,2.9-6.9,6.9-6.9c3.9,0,6.8,3,6.8,6.9s-2.9,6.9-6.8,6.9C373.7,68.1,370.8,65.1,370.8,61.2z
		 M380.9,61.2c0-2.1-1.4-3.5-3.3-3.5c-1.9,0-3.3,1.3-3.3,3.5c0,2.1,1.4,3.5,3.3,3.5C379.5,64.7,380.9,63.3,380.9,61.2z"/>
	<path class="st2" d="M386.9,67.3V55.1c0-0.2,0.2-0.4,0.4-0.4h2.8c0.2,0,0.4,0.1,0.4,0.4l0.1,1.7c0.5-1.4,1.3-2.4,2.8-2.4
		c0.6,0,1,0.2,1.2,0.3c0.2,0.1,0.2,0.3,0.2,0.5v2.3c0,0.3-0.2,0.4-0.5,0.3c-0.3-0.1-0.6-0.1-1-0.1c-1.8,0-2.8,1.3-2.8,3.1v6.5
		c0,0.2-0.2,0.4-0.4,0.4h-2.9C387.1,67.7,386.9,67.6,386.9,67.3z"/>
	<path class="st2" d="M403.3,71.7c-0.3-0.2-0.3-0.5-0.2-0.8l0.8-1.5c0.1-0.3,0.4-0.4,0.7-0.2c1.1,0.6,2.3,1,3.5,1
		c1.8,0,3.7-0.8,3.7-3.2v-1.4c-0.8,1.2-2.2,1.9-4.1,1.9c-3.7,0-6.2-2.7-6.2-6.6c0-3.8,2.5-6.6,6.2-6.6c1.9,0,3.3,0.7,4.1,1.9
		l0.1-1.2c0-0.2,0.2-0.4,0.4-0.4h2.6c0.2,0,0.4,0.2,0.4,0.4V67c0,4.7-3.7,6.2-6.9,6.2C406.4,73.2,404.5,72.7,403.3,71.7z
		 M411.6,60.9c0-2-1.3-3.3-3.2-3.3c-1.9,0-3.3,1.3-3.3,3.3c0,2,1.4,3.3,3.3,3.3C410.3,64.2,411.6,62.9,411.6,60.9z"/>
	<path class="st2" d="M418.4,67.3V55.1c0-0.2,0.2-0.4,0.4-0.4h2.8c0.2,0,0.4,0.1,0.4,0.4l0.1,1.7c0.5-1.4,1.3-2.4,2.8-2.4
		c0.6,0,1,0.2,1.2,0.3c0.2,0.1,0.2,0.3,0.2,0.5v2.3c0,0.3-0.2,0.4-0.5,0.3c-0.3-0.1-0.6-0.1-1-0.1c-1.8,0-2.8,1.3-2.8,3.1v6.5
		c0,0.2-0.2,0.4-0.4,0.4h-2.9C418.6,67.7,418.4,67.6,418.4,67.3z"/>
	<path class="st2" d="M427.7,61.2c0-3.8,2.7-6.8,6.7-6.8c4,0,6.3,2.9,6.3,6.2c0,1.3-0.3,2-1.4,2h-7.9c0.4,1.7,1.8,2.6,3.9,2.6
		c1,0,2-0.2,3-0.8c0.2-0.1,0.3-0.1,0.5,0.1l1,1.4c0.1,0.2,0.1,0.4-0.1,0.6c-1.1,1.1-2.8,1.7-4.6,1.7
		C430.6,68.1,427.7,65.1,427.7,61.2z M437.4,60c-0.2-1.7-1.4-2.6-3-2.6c-1.6,0-2.9,0.9-3.2,2.6H437.4z"/>
	<path class="st2" d="M442.5,61.2c0-3.9,2.5-6.9,6.2-6.9c2,0,3.4,0.8,4.3,2.2l0.1-1.4c0-0.2,0.2-0.4,0.4-0.4h2.6
		c0.2,0,0.4,0.2,0.4,0.4v12.3c0,0.2-0.2,0.4-0.4,0.4h-2.6c-0.2,0-0.4-0.2-0.4-0.4l-0.1-1.4c-0.9,1.3-2.3,2.2-4.3,2.2
		C445,68.1,442.5,65.1,442.5,61.2z M452.8,61.2c0-2.1-1.4-3.5-3.3-3.5c-1.9,0-3.4,1.4-3.4,3.5c0,2.1,1.4,3.5,3.4,3.5
		C451.4,64.7,452.8,63.3,452.8,61.2z"/>
	<path class="st2" d="M460.8,64.2v-6.7h-1.7c-0.2,0-0.4-0.2-0.4-0.4v-2.1c0-0.2,0.2-0.4,0.4-0.4h1.7v-3.1c0-0.2,0.2-0.4,0.4-0.4h2.9
		c0.2,0,0.4,0.2,0.4,0.4v3.1h2.1c0.2,0,0.4,0.2,0.4,0.4v2.1c0,0.2-0.2,0.4-0.4,0.4h-2.1v6.3c0,0.8,0.5,1.1,1.1,1.1
		c0.2,0,0.5,0,0.8,0c0.3,0,0.5,0.1,0.5,0.4v1.9c0,0.6-1.3,0.8-2.2,0.8C462.7,68.1,460.8,67.1,460.8,64.2z"/>
	<path class="st2" d="M478,65.9l-0.1,1.4c0,0.2-0.2,0.4-0.4,0.4H475c-0.2,0-0.4-0.2-0.4-0.4V49.1c0-0.2,0.2-0.4,0.4-0.4h2.9
		c0.2,0,0.4,0.2,0.4,0.4v7.1c0.9-1.2,2.2-1.8,4.1-1.8c3.7,0,6.2,3,6.2,6.9c0,3.9-2.5,6.9-6.2,6.9C480.3,68.1,478.9,67.2,478,65.9z
		 M484.9,61.2c0-2.1-1.4-3.5-3.4-3.5c-2,0-3.3,1.4-3.3,3.5c0,2.1,1.4,3.5,3.3,3.5C483.4,64.7,484.9,63.3,484.9,61.2z"/>
	<path class="st2" d="M490.9,62.7v-7.6c0-0.2,0.2-0.4,0.4-0.4h2.9c0.2,0,0.4,0.2,0.4,0.4v6.8c0,1.8,0.9,2.8,2.4,2.8
		c1.5,0,2.6-1,2.6-2.8v-6.8c0-0.2,0.2-0.4,0.4-0.4h2.9c0.2,0,0.4,0.2,0.4,0.4v12.3c0,0.2-0.2,0.4-0.4,0.4H500
		c-0.2,0-0.4-0.1-0.4-0.4l-0.1-1.5c-0.7,1.3-2,2.3-3.9,2.3C492.8,68.1,490.9,66.1,490.9,62.7z"/>
	<path class="st2" d="M505.9,65.9c-0.2-0.2-0.1-0.5,0.1-0.8l0.9-1.3c0.2-0.3,0.5-0.3,0.7-0.1c1.1,0.8,2,1.3,3,1.3
		c0.9,0,1.5-0.3,1.5-1.1c0-0.6-0.4-1-1.4-1.4l-1.7-0.7c-1.7-0.7-2.9-1.8-2.9-3.6c0-2.5,2.1-3.9,4.6-3.9c1.7,0,3.3,0.7,4.4,2
		c0.2,0.2,0.1,0.4,0,0.6l-1.2,1.4c-0.2,0.2-0.4,0.2-0.6,0c-0.9-0.7-1.6-1.1-2.4-1.1c-0.9,0-1.3,0.5-1.3,1c0,0.6,0.5,1,1.3,1.3
		l1.8,0.7c1.7,0.7,3,1.8,2.9,3.8c0,2.6-2.3,4-4.9,4C508.6,68.1,507,67.1,505.9,65.9z"/>
	<path class="st2" d="M518.2,50.3c0-1.1,0.9-2,2.1-2s2,0.9,2,2c0,1.1-0.9,2.1-2,2.1S518.2,51.4,518.2,50.3z M518.3,67.3V55.1
		c0-0.2,0.2-0.4,0.4-0.4h2.9c0.2,0,0.4,0.2,0.4,0.4v12.3c0,0.2-0.2,0.4-0.4,0.4h-2.9C518.5,67.7,518.3,67.6,518.3,67.3z"/>
	<path class="st2" d="M525.2,67.3V55.1c0-0.2,0.2-0.4,0.4-0.4h2.8c0.2,0,0.4,0.1,0.4,0.4l0.1,1.5c0.7-1.3,2-2.3,3.9-2.3
		c2.7,0,4.7,2,4.7,5.4v7.6c0,0.2-0.2,0.4-0.4,0.4h-2.9c-0.2,0-0.4-0.2-0.4-0.4v-6.8c0-1.8-0.9-2.8-2.4-2.8c-1.5,0-2.6,1-2.6,2.8v6.8
		c0,0.2-0.2,0.4-0.4,0.4h-2.9C525.4,67.7,525.2,67.6,525.2,67.3z"/>
	<path class="st2" d="M540.1,61.2c0-3.8,2.7-6.8,6.7-6.8c4,0,6.3,2.9,6.3,6.2c0,1.3-0.3,2-1.4,2h-7.9c0.4,1.7,1.8,2.6,3.9,2.6
		c1,0,2-0.2,3-0.8c0.2-0.1,0.3-0.1,0.5,0.1l1,1.4c0.1,0.2,0.1,0.4-0.1,0.6c-1.1,1.1-2.8,1.7-4.6,1.7
		C542.9,68.1,540.1,65.1,540.1,61.2z M549.8,60c-0.2-1.7-1.4-2.6-3-2.6c-1.6,0-2.9,0.9-3.2,2.6H549.8z"/>
	<path class="st2" d="M554.8,65.9c-0.2-0.2-0.1-0.5,0.1-0.8l0.9-1.3c0.2-0.3,0.5-0.3,0.7-0.1c1.1,0.8,2,1.3,3,1.3
		c0.9,0,1.5-0.3,1.5-1.1c0-0.6-0.4-1-1.4-1.4l-1.7-0.7c-1.7-0.7-2.9-1.8-2.9-3.6c0-2.5,2.1-3.9,4.6-3.9c1.7,0,3.3,0.7,4.4,2
		c0.2,0.2,0.1,0.4,0,0.6l-1.2,1.4c-0.2,0.2-0.4,0.2-0.6,0c-0.9-0.7-1.6-1.1-2.4-1.1c-0.9,0-1.3,0.5-1.3,1c0,0.6,0.5,1,1.3,1.3
		l1.8,0.7c1.7,0.7,3,1.8,2.9,3.8c0,2.6-2.3,4-4.9,4C557.5,68.1,555.9,67.1,554.8,65.9z"/>
	<path class="st2" d="M566.8,65.9c-0.2-0.2-0.1-0.5,0.1-0.8l0.9-1.3c0.2-0.3,0.5-0.3,0.7-0.1c1.1,0.8,2,1.3,3,1.3
		c0.9,0,1.5-0.3,1.5-1.1c0-0.6-0.4-1-1.4-1.4l-1.7-0.7c-1.7-0.7-2.9-1.8-2.9-3.6c0-2.5,2.1-3.9,4.6-3.9c1.7,0,3.3,0.7,4.4,2
		c0.2,0.2,0.1,0.4,0,0.6l-1.2,1.4c-0.2,0.2-0.4,0.2-0.6,0c-0.9-0.7-1.6-1.1-2.4-1.1c-0.9,0-1.3,0.5-1.3,1c0,0.6,0.5,1,1.3,1.3
		l1.8,0.7c1.7,0.7,3,1.8,2.9,3.8c0,2.6-2.3,4-4.9,4C569.5,68.1,567.9,67.1,566.8,65.9z"/>
	<path class="st2" d="M578.4,61.2c0-3.8,2.7-6.8,6.7-6.8c4,0,6.3,2.9,6.3,6.2c0,1.3-0.3,2-1.4,2H582c0.4,1.7,1.8,2.6,3.9,2.6
		c1,0,2-0.2,3-0.8c0.2-0.1,0.3-0.1,0.5,0.1l1,1.4c0.1,0.2,0.1,0.4-0.1,0.6c-1.1,1.1-2.8,1.7-4.6,1.7
		C581.3,68.1,578.4,65.1,578.4,61.2z M588.1,60c-0.2-1.7-1.4-2.6-3-2.6c-1.6,0-2.9,0.9-3.2,2.6H588.1z"/>
	<path class="st2" d="M593.2,65.9c-0.2-0.2-0.1-0.5,0.1-0.8l0.9-1.3c0.2-0.3,0.5-0.3,0.7-0.1c1.1,0.8,2,1.3,3,1.3
		c0.9,0,1.5-0.3,1.5-1.1c0-0.6-0.4-1-1.4-1.4l-1.7-0.7c-1.7-0.7-2.9-1.8-2.9-3.6c0-2.5,2.1-3.9,4.6-3.9c1.7,0,3.3,0.7,4.4,2
		c0.2,0.2,0.1,0.4,0,0.6l-1.2,1.4c-0.2,0.2-0.4,0.2-0.6,0c-0.9-0.7-1.6-1.1-2.4-1.1c-0.9,0-1.3,0.5-1.3,1c0,0.6,0.5,1,1.3,1.3
		l1.8,0.7c1.7,0.7,3,1.8,2.9,3.8c0,2.6-2.3,4-4.9,4C595.9,68.1,594.2,67.1,593.2,65.9z"/>
	<path class="st2" d="M612,64.2v-6.7h-1.7c-0.2,0-0.4-0.2-0.4-0.4v-2.1c0-0.2,0.2-0.4,0.4-0.4h1.7v-3.1c0-0.2,0.2-0.4,0.4-0.4h2.9
		c0.2,0,0.4,0.2,0.4,0.4v3.1h2.1c0.2,0,0.4,0.2,0.4,0.4v2.1c0,0.2-0.2,0.4-0.4,0.4h-2.1v6.3c0,0.8,0.5,1.1,1.1,1.1
		c0.2,0,0.5,0,0.8,0c0.3,0,0.5,0.1,0.5,0.4v1.9c0,0.6-1.3,0.8-2.2,0.8C613.9,68.1,612,67.1,612,64.2z"/>
	<path class="st2" d="M619.7,61.2c0-3.9,2.9-6.9,6.9-6.9c3.9,0,6.8,3,6.8,6.9s-2.9,6.9-6.8,6.9C622.6,68.1,619.7,65.1,619.7,61.2z
		 M629.9,61.2c0-2.1-1.4-3.5-3.3-3.5c-1.9,0-3.3,1.3-3.3,3.5c0,2.1,1.4,3.5,3.3,3.5C628.4,64.7,629.9,63.3,629.9,61.2z"/>
	<path class="st2" d="M641.1,72.4V55.1c0-0.2,0.2-0.4,0.4-0.4h2.6c0.2,0,0.4,0.2,0.4,0.4l0.1,1.4c0.9-1.4,2.3-2.2,4.3-2.2
		c3.7,0,6.2,3,6.2,6.9c0,3.9-2.5,6.9-6.2,6.9c-1.8,0-3.1-0.7-4.1-1.9v6.2c0,0.2-0.2,0.4-0.4,0.4h-2.9
		C641.2,72.8,641.1,72.6,641.1,72.4z M651.4,61.2c0-2.1-1.4-3.5-3.4-3.5c-2,0-3.3,1.4-3.3,3.5c0,2.1,1.4,3.5,3.3,3.5
		C650,64.7,651.4,63.3,651.4,61.2z"/>
	<path class="st2" d="M656.9,61.2c0-3.9,2.5-6.9,6.2-6.9c2,0,3.4,0.8,4.3,2.2l0.1-1.4c0-0.2,0.2-0.4,0.4-0.4h2.6
		c0.2,0,0.4,0.2,0.4,0.4v12.3c0,0.2-0.2,0.4-0.4,0.4h-2.6c-0.2,0-0.4-0.2-0.4-0.4l-0.1-1.4c-0.9,1.3-2.3,2.2-4.3,2.2
		C659.4,68.1,656.9,65.1,656.9,61.2z M667.2,61.2c0-2.1-1.4-3.5-3.3-3.5s-3.4,1.4-3.4,3.5c0,2.1,1.4,3.5,3.4,3.5
		S667.2,63.3,667.2,61.2z"/>
	<path class="st2" d="M674,67.3V55.1c0-0.2,0.2-0.4,0.4-0.4h2.8c0.2,0,0.4,0.1,0.4,0.4l0.1,1.7c0.5-1.4,1.3-2.4,2.8-2.4
		c0.6,0,1,0.2,1.2,0.3c0.2,0.1,0.2,0.3,0.2,0.5v2.3c0,0.3-0.2,0.4-0.5,0.3c-0.3-0.1-0.6-0.1-1-0.1c-1.8,0-2.8,1.3-2.8,3.1v6.5
		c0,0.2-0.2,0.4-0.4,0.4h-2.9C674.1,67.7,674,67.6,674,67.3z"/>
	<path class="st2" d="M685.8,64.2v-6.7h-1.7c-0.2,0-0.4-0.2-0.4-0.4v-2.1c0-0.2,0.2-0.4,0.4-0.4h1.7v-3.1c0-0.2,0.2-0.4,0.4-0.4h2.9
		c0.2,0,0.4,0.2,0.4,0.4v3.1h2.1c0.2,0,0.4,0.2,0.4,0.4v2.1c0,0.2-0.2,0.4-0.4,0.4h-2.1v6.3c0,0.8,0.5,1.1,1.1,1.1
		c0.2,0,0.5,0,0.8,0c0.3,0,0.5,0.1,0.5,0.4v1.9c0,0.6-1.3,0.8-2.2,0.8C687.7,68.1,685.8,67.1,685.8,64.2z"/>
	<path class="st2" d="M694.3,67.3V55.1c0-0.2,0.2-0.4,0.4-0.4h2.8c0.2,0,0.4,0.1,0.4,0.4l0.1,1.5c0.7-1.3,2-2.3,3.9-2.3
		c2.7,0,4.7,2,4.7,5.4v7.6c0,0.2-0.2,0.4-0.4,0.4h-2.9c-0.2,0-0.4-0.2-0.4-0.4v-6.8c0-1.8-0.9-2.8-2.4-2.8c-1.5,0-2.6,1-2.6,2.8v6.8
		c0,0.2-0.2,0.4-0.4,0.4h-2.9C694.5,67.7,694.3,67.6,694.3,67.3z"/>
	<path class="st2" d="M709.1,61.2c0-3.8,2.7-6.8,6.7-6.8c4,0,6.3,2.9,6.3,6.2c0,1.3-0.3,2-1.4,2h-7.9c0.4,1.7,1.8,2.6,3.9,2.6
		c1,0,2-0.2,3-0.8c0.2-0.1,0.3-0.1,0.5,0.1l1,1.4c0.1,0.2,0.1,0.4-0.1,0.6c-1.1,1.1-2.8,1.7-4.6,1.7C712,68.1,709.1,65.1,709.1,61.2
		z M718.8,60c-0.2-1.7-1.4-2.6-3-2.6c-1.6,0-2.9,0.9-3.2,2.6H718.8z"/>
	<path class="st2" d="M724.6,67.3V55.1c0-0.2,0.2-0.4,0.4-0.4h2.8c0.2,0,0.4,0.1,0.4,0.4l0.1,1.7c0.5-1.4,1.3-2.4,2.8-2.4
		c0.6,0,1,0.2,1.2,0.3c0.2,0.1,0.2,0.3,0.2,0.5v2.3c0,0.3-0.2,0.4-0.5,0.3c-0.3-0.1-0.6-0.1-1-0.1c-1.8,0-2.8,1.3-2.8,3.1v6.5
		c0,0.2-0.2,0.4-0.4,0.4H725C724.8,67.7,724.6,67.6,724.6,67.3z"/>
	<path class="st2" d="M743.2,67.4l-4.1-12.3c-0.1-0.3,0-0.5,0.3-0.5h2.8c0.2,0,0.4,0.1,0.5,0.3l2.6,8.5l2.9-8.5
		c0.1-0.2,0.3-0.3,0.5-0.3h2.8c0.2,0,0.4,0.1,0.5,0.3l2.8,8.5l2.6-8.5c0.1-0.2,0.3-0.3,0.5-0.3h2.8c0.3,0,0.4,0.2,0.3,0.5l-4.1,12.3
		c-0.1,0.2-0.3,0.3-0.5,0.3h-3c-0.2,0-0.4-0.1-0.5-0.3l-2.9-8.5l-2.9,8.5c-0.1,0.2-0.3,0.3-0.5,0.3h-3
		C743.5,67.7,743.3,67.6,743.2,67.4z"/>
	<path class="st2" d="M763.2,50.3c0-1.1,0.9-2,2.1-2s2,0.9,2,2c0,1.1-0.9,2.1-2,2.1S763.2,51.4,763.2,50.3z M763.4,67.3V55.1
		c0-0.2,0.2-0.4,0.4-0.4h2.9c0.2,0,0.4,0.2,0.4,0.4v12.3c0,0.2-0.2,0.4-0.4,0.4h-2.9C763.5,67.7,763.4,67.6,763.4,67.3z"/>
	<path class="st2" d="M771.3,64.2v-6.7h-1.7c-0.2,0-0.4-0.2-0.4-0.4v-2.1c0-0.2,0.2-0.4,0.4-0.4h1.7v-3.1c0-0.2,0.2-0.4,0.4-0.4h2.9
		c0.2,0,0.4,0.2,0.4,0.4v3.1h2.1c0.2,0,0.4,0.2,0.4,0.4v2.1c0,0.2-0.2,0.4-0.4,0.4H775v6.3c0,0.8,0.5,1.1,1.1,1.1c0.2,0,0.5,0,0.8,0
		c0.3,0,0.5,0.1,0.5,0.4v1.9c0,0.6-1.3,0.8-2.2,0.8C773.1,68.1,771.3,67.1,771.3,64.2z"/>
	<path class="st2" d="M792.1,59.7v7.6c0,0.2-0.2,0.4-0.4,0.4h-2.9c-0.2,0-0.4-0.2-0.4-0.4v-6.8c0-1.8-0.9-2.8-2.4-2.8
		c-1.5,0-2.6,1-2.6,2.8v6.8c0,0.2-0.2,0.4-0.4,0.4h-2.9c-0.2,0-0.4-0.2-0.4-0.4V49.1c0-0.2,0.2-0.4,0.4-0.4h2.9
		c0.2,0,0.4,0.2,0.4,0.4v7.6c0.7-1.3,2-2.3,3.9-2.3C790.1,54.4,792.1,56.3,792.1,59.7z"/>
	<path class="st2" d="M795.1,65.9c0-1.2,1-2.2,2.2-2.2c1.2,0,2.2,1,2.2,2.2c0,1.2-1,2.2-2.2,2.2C796.1,68.1,795.1,67.1,795.1,65.9z
		 M795.9,61.6l-0.4-12.1c0-0.2,0.2-0.4,0.4-0.4h3c0.2,0,0.4,0.2,0.4,0.4l-0.4,12.1c0,0.2-0.1,0.4-0.4,0.4h-2.1
		C796,62,795.9,61.8,795.9,61.6z"/>
	<path class="st2" d="M151.1,108.6V92.1h-4c-0.2,0-0.4-0.1-0.4-0.4v-1c0-0.2,0.1-0.4,0.4-0.4h10c0.2,0,0.4,0.1,0.4,0.4v1
		c0,0.2-0.1,0.4-0.4,0.4h-4v16.5c0,0.2-0.1,0.4-0.4,0.4h-1.3C151.3,108.9,151.1,108.8,151.1,108.6z"/>
	<path class="st2" d="M158,102.4c0-3.9,2.6-6.9,6.4-6.9c2.3,0,4.1,1.1,5,2.9l0.1-2.2c0-0.2,0.1-0.4,0.3-0.4h1.1
		c0.2,0,0.3,0.1,0.3,0.4v12.3c0,0.2-0.1,0.4-0.3,0.4h-1.1c-0.2,0-0.3-0.1-0.3-0.4l-0.1-2.1c-1,1.8-2.7,2.8-5,2.8
		C160.6,109.3,158,106.3,158,102.4z M169.4,102.5c0-3-1.9-5.1-4.7-5.1c-2.8,0-4.8,2.1-4.8,5.1c0,3,2,5.1,4.8,5.1
		C167.5,107.5,169.4,105.5,169.4,102.5z"/>
	<path class="st2" d="M175.3,113.6V96.2c0-0.2,0.1-0.4,0.3-0.4h1.1c0.2,0,0.3,0.1,0.3,0.4l0.1,2.2c1-1.7,2.7-2.9,5-2.9
		c3.8,0,6.5,3,6.5,6.9c0,3.9-2.6,6.9-6.5,6.9c-2.3,0-4-1.1-5-2.7v7.1c0,0.2-0.1,0.4-0.3,0.4h-1.2C175.4,114,175.3,113.9,175.3,113.6
		z M186.8,102.4c0-3-2-5.1-4.9-5.1c-2.8,0-4.7,2.1-4.7,5.1c0,3,1.9,5,4.7,5C184.8,107.5,186.8,105.4,186.8,102.4z"/>
	<path class="st2" d="M208.4,100.9v7.7c0,0.2-0.1,0.4-0.3,0.4h-1.3c-0.2,0-0.3-0.1-0.3-0.4v-7.5c0-2.3-1.2-3.7-3.4-3.7
		c-2.2,0-3.8,1.4-3.8,3.7v7.5c0,0.2-0.1,0.4-0.3,0.4h-1.2c-0.2,0-0.3-0.1-0.3-0.4V90.2c0-0.2,0.1-0.4,0.3-0.4h1.2
		c0.2,0,0.3,0.1,0.3,0.4V98c0.7-1.3,2.2-2.4,4.3-2.4C206.4,95.6,208.4,97.4,208.4,100.9z"/>
	<path class="st2" d="M211.7,102.4c0-3.8,2.7-6.8,6.6-6.8c3.9,0,6.1,3,6.1,6.2c0,1-0.2,1.4-1,1.4h-9.8c0.3,2.6,2,4.5,5.2,4.5
		c1.6,0,2.7-0.5,3.8-1.3c0.1-0.1,0.3-0.1,0.4,0l0.5,0.6c0.2,0.2,0.1,0.4-0.1,0.6c-1.2,1.1-2.9,1.7-4.7,1.7
		C214.4,109.3,211.7,106.2,211.7,102.4z M222.7,101.6c-0.1-2.6-1.8-4.3-4.4-4.3c-2.6,0-4.4,1.7-4.7,4.3H222.7z"/>
	<path class="st2" d="M227.8,108.6V96.2c0-0.2,0.1-0.4,0.3-0.4h1.1c0.3,0,0.4,0.1,0.4,0.4l0.1,1.5c0.5-1.2,1.4-2.2,3-2.2
		c0.5,0,1,0.1,1.2,0.3c0.2,0.1,0.2,0.2,0.2,0.5v0.9c0,0.3-0.2,0.3-0.5,0.3c-0.3-0.1-0.7-0.1-0.9-0.1c-2.3,0-3,2.1-3,3.6v7.7
		c0,0.2-0.1,0.4-0.3,0.4h-1.2C227.9,108.9,227.8,108.8,227.8,108.6z"/>
	<path class="st2" d="M235.9,102.4c0-3.8,2.7-6.8,6.6-6.8c3.9,0,6.1,3,6.1,6.2c0,1-0.2,1.4-1,1.4h-9.8c0.3,2.6,2,4.5,5.2,4.5
		c1.6,0,2.7-0.5,3.8-1.3c0.1-0.1,0.3-0.1,0.4,0l0.5,0.6c0.2,0.2,0.1,0.4-0.1,0.6c-1.2,1.1-2.9,1.7-4.7,1.7
		C238.5,109.3,235.9,106.2,235.9,102.4z M246.8,101.6c-0.1-2.6-1.8-4.3-4.4-4.3c-2.6,0-4.4,1.7-4.7,4.3H246.8z"/>
	<path class="st2" d="M258.5,106.4v-9h-1.7c-0.2,0-0.4-0.1-0.4-0.4v-0.9c0-0.2,0.1-0.4,0.4-0.4h1.7v-3.1c0-0.2,0.1-0.4,0.3-0.4h1.2
		c0.2,0,0.3,0.1,0.3,0.4v3.1h2.2c0.2,0,0.4,0.1,0.4,0.4v0.9c0,0.2-0.1,0.4-0.4,0.4h-2.2v8.7c0,1,0.4,1.4,1.2,1.4
		c0.2,0,0.6,0,0.8-0.1c0.4-0.1,0.5,0.1,0.5,0.3v0.8c0,0.5-1,0.6-1.7,0.6C259.5,109.3,258.5,108.4,258.5,106.4z"/>
	<path class="st2" d="M265.5,102.4c0-3.9,2.9-6.9,6.7-6.9c3.8,0,6.7,3,6.7,6.9c0,3.9-2.9,6.9-6.7,6.9
		C268.4,109.3,265.5,106.3,265.5,102.4z M277,102.4c0-3-2.1-5.1-4.8-5.1c-2.8,0-4.8,2.1-4.8,5.1s2.1,5.1,4.8,5.1
		C274.9,107.5,277,105.4,277,102.4z"/>
	<path class="st2" d="M286.9,102.4c0-3.9,2.9-6.9,6.8-6.9c2.1,0,3.8,0.8,4.9,2.2c0.2,0.2,0.2,0.4,0.1,0.5l-0.7,0.6
		c-0.2,0.2-0.5,0.1-0.6,0c-0.8-0.9-1.8-1.5-3.5-1.5c-2.9,0-5,2.1-5,5.1c0,3,2.1,5.1,5,5.1c1.7,0,2.7-0.7,3.5-1.5
		c0.2-0.2,0.4-0.3,0.6-0.1l0.7,0.6c0.2,0.2,0.1,0.3-0.1,0.5c-1.1,1.4-2.8,2.2-4.9,2.2C289.8,109.3,286.9,106.3,286.9,102.4z"/>
	<path class="st2" d="M300.9,102.4c0-3.9,2.9-6.9,6.7-6.9c3.8,0,6.7,3,6.7,6.9c0,3.9-2.9,6.9-6.7,6.9
		C303.8,109.3,300.9,106.3,300.9,102.4z M312.4,102.4c0-3-2.1-5.1-4.8-5.1c-2.8,0-4.8,2.1-4.8,5.1s2.1,5.1,4.8,5.1
		C310.4,107.5,312.4,105.4,312.4,102.4z"/>
	<path class="st2" d="M317.7,108.6V96.2c0-0.2,0.1-0.4,0.3-0.4h1.1c0.3,0,0.4,0.1,0.4,0.4l0.1,1.7c0.7-1.3,2.2-2.4,4.3-2.4
		c2.9,0,4.8,1.9,4.8,5.3v7.7c0,0.2-0.1,0.4-0.3,0.4h-1.3c-0.2,0-0.3-0.1-0.3-0.4v-7.5c0-2.3-1.2-3.7-3.4-3.7s-3.8,1.4-3.8,3.7v7.5
		c0,0.2-0.1,0.4-0.3,0.4H318C317.8,108.9,317.7,108.8,317.7,108.6z"/>
	<path class="st2" d="M333.4,106.4v-9h-1.7c-0.2,0-0.4-0.1-0.4-0.4v-0.9c0-0.2,0.1-0.4,0.4-0.4h1.7v-3.1c0-0.2,0.1-0.4,0.3-0.4h1.2
		c0.2,0,0.3,0.1,0.3,0.4v3.1h2.2c0.2,0,0.4,0.1,0.4,0.4v0.9c0,0.2-0.1,0.4-0.4,0.4h-2.2v8.7c0,1,0.4,1.4,1.2,1.4
		c0.2,0,0.6,0,0.8-0.1c0.4-0.1,0.5,0.1,0.5,0.3v0.8c0,0.5-1,0.6-1.7,0.6C334.4,109.3,333.4,108.4,333.4,106.4z"/>
	<path class="st2" d="M340.4,102.4c0-3.9,2.6-6.9,6.4-6.9c2.3,0,4.1,1.1,5,2.9l0.1-2.2c0-0.2,0.1-0.4,0.3-0.4h1.1
		c0.2,0,0.3,0.1,0.3,0.4v12.3c0,0.2-0.1,0.4-0.3,0.4h-1.1c-0.2,0-0.3-0.1-0.3-0.4l-0.1-2.1c-1,1.8-2.7,2.8-5,2.8
		C343,109.3,340.4,106.3,340.4,102.4z M351.8,102.5c0-3-1.9-5.1-4.7-5.1c-2.8,0-4.8,2.1-4.8,5.1c0,3,2,5.1,4.8,5.1
		C349.9,107.5,351.8,105.5,351.8,102.5z"/>
	<path class="st2" d="M357.1,102.4c0-3.9,2.9-6.9,6.8-6.9c2.1,0,3.8,0.8,4.9,2.2c0.2,0.2,0.2,0.4,0.1,0.5l-0.7,0.6
		c-0.2,0.2-0.5,0.1-0.6,0c-0.8-0.9-1.8-1.5-3.5-1.5c-2.9,0-5,2.1-5,5.1c0,3,2.1,5.1,5,5.1c1.7,0,2.7-0.7,3.5-1.5
		c0.2-0.2,0.4-0.3,0.6-0.1l0.7,0.6c0.2,0.2,0.1,0.3-0.1,0.5c-1.1,1.4-2.8,2.2-4.9,2.2C360,109.3,357.1,106.3,357.1,102.4z"/>
	<path class="st2" d="M373.5,106.4v-9h-1.7c-0.2,0-0.4-0.1-0.4-0.4v-0.9c0-0.2,0.1-0.4,0.4-0.4h1.7v-3.1c0-0.2,0.1-0.4,0.3-0.4h1.2
		c0.2,0,0.3,0.1,0.3,0.4v3.1h2.2c0.2,0,0.4,0.1,0.4,0.4v0.9c0,0.2-0.1,0.4-0.4,0.4h-2.2v8.7c0,1,0.4,1.4,1.2,1.4
		c0.2,0,0.6,0,0.8-0.1c0.4-0.1,0.5,0.1,0.5,0.3v0.8c0,0.5-1,0.6-1.7,0.6C374.4,109.3,373.5,108.4,373.5,106.4z"/>
	<path class="st2" d="M386.5,108.6V96.2c0-0.2,0.1-0.4,0.3-0.4h1.1c0.3,0,0.4,0.1,0.4,0.4l0.1,1.5c0.6-1.2,1.8-2.2,3.7-2.2
		c1.8,0,3.2,0.9,3.8,2.6c0.7-1.4,1.9-2.6,4.1-2.6c2.7,0,4.3,1.8,4.3,5.2v7.8c0,0.2-0.1,0.4-0.3,0.4h-1.2c-0.2,0-0.3-0.1-0.3-0.4V101
		c0-2.3-0.9-3.6-2.8-3.6c-1.9,0-3.2,1.4-3.2,3.6v7.6c0,0.2-0.1,0.4-0.3,0.4h-1.2c-0.2,0-0.3-0.1-0.3-0.4V101c0-2.3-1.1-3.6-3-3.6
		c-1.9,0-3.1,1.4-3.1,3.6v7.6c0,0.2-0.1,0.4-0.3,0.4h-1.2C386.6,108.9,386.5,108.8,386.5,108.6z"/>
	<path class="st2" d="M407.8,102.4c0-3.8,2.7-6.8,6.6-6.8c3.9,0,6.1,3,6.1,6.2c0,1-0.2,1.4-1,1.4h-9.8c0.3,2.6,2,4.5,5.2,4.5
		c1.6,0,2.7-0.5,3.8-1.3c0.1-0.1,0.3-0.1,0.4,0l0.5,0.6c0.2,0.2,0.1,0.4-0.1,0.6c-1.2,1.1-2.9,1.7-4.7,1.7
		C410.4,109.3,407.8,106.2,407.8,102.4z M418.7,101.6c-0.1-2.6-1.8-4.3-4.4-4.3c-2.6,0-4.4,1.7-4.7,4.3H418.7z"/>
	<path class="st2" d="M428.5,102.4c0-3.9,2.6-6.9,6.4-6.9c2.3,0,4.1,1.1,5,2.9l0.1-2.2c0-0.2,0.1-0.4,0.3-0.4h1.1
		c0.2,0,0.3,0.1,0.3,0.4v12.3c0,0.2-0.1,0.4-0.3,0.4h-1.1c-0.2,0-0.3-0.1-0.3-0.4l-0.1-2.1c-1,1.8-2.7,2.8-5,2.8
		C431.1,109.3,428.5,106.3,428.5,102.4z M439.9,102.5c0-3-1.9-5.1-4.7-5.1c-2.8,0-4.8,2.1-4.8,5.1c0,3,2,5.1,4.8,5.1
		C438,107.5,439.9,105.5,439.9,102.5z"/>
	<path class="st2" d="M447.1,106.4v-9h-1.7c-0.2,0-0.4-0.1-0.4-0.4v-0.9c0-0.2,0.1-0.4,0.4-0.4h1.7v-3.1c0-0.2,0.1-0.4,0.3-0.4h1.2
		c0.2,0,0.3,0.1,0.3,0.4v3.1h2.2c0.2,0,0.4,0.1,0.4,0.4v0.9c0,0.2-0.1,0.4-0.4,0.4h-2.2v8.7c0,1,0.4,1.4,1.2,1.4
		c0.2,0,0.6,0,0.8-0.1c0.4-0.1,0.5,0.1,0.5,0.3v0.8c0,0.5-1,0.6-1.7,0.6C448.1,109.3,447.1,108.4,447.1,106.4z"/>
	<path class="st2" d="M460,108.5V96.3c0-0.2,0.1-0.4,0.4-0.4h2c0.2,0,0.4,0.1,0.4,0.4l0.1,1.4c0.7-1.2,1.8-2.2,3.7-2.2
		c1.7,0,3.1,0.8,3.8,2.4c0.7-1.4,2-2.4,4.1-2.4c2.7,0,4.4,1.8,4.4,5.3v7.7c0,0.2-0.1,0.4-0.4,0.4h-2.1c-0.2,0-0.4-0.2-0.4-0.4v-7.2
		c0-2-0.8-3.1-2.4-3.1c-1.6,0-2.7,1.1-2.7,3.1v7.2c0,0.2-0.1,0.4-0.4,0.4h-2.1c-0.3,0-0.4-0.2-0.4-0.4v-7.2c0-2-0.9-3.1-2.5-3.1
		c-1.6,0-2.6,1.1-2.6,3.1v7.2c0,0.2-0.1,0.4-0.4,0.4h-2.1C460.1,108.9,460,108.8,460,108.5z"/>
	<path class="st2" d="M481.7,102.4c0-3.8,2.7-6.8,6.6-6.8c3.9,0,6.2,3,6.2,6.2c0,1.1-0.2,1.7-1.2,1.7h-8.8c0.3,2.1,1.9,3.5,4.5,3.5
		c1.3,0,2.3-0.3,3.4-1c0.2-0.1,0.3-0.1,0.4,0.1l0.7,1c0.2,0.2,0.1,0.4-0.1,0.6c-1.1,1.1-2.8,1.7-4.7,1.7
		C484.4,109.3,481.7,106.2,481.7,102.4z M491.9,101.4c-0.2-2.1-1.6-3.4-3.6-3.4c-2.1,0-3.6,1.3-3.9,3.4H491.9z"/>
	<path class="st2" d="M498.5,113c-0.2-0.2-0.3-0.4-0.2-0.7l0.6-1.1c0.1-0.2,0.3-0.3,0.6-0.2c1.1,0.7,2.4,1,3.6,1
		c2.2,0,4.3-1,4.3-3.8v-1.8c-0.9,1.4-2.4,2.2-4.5,2.2c-3.7,0-6.2-2.7-6.2-6.6c0-3.9,2.5-6.6,6.2-6.6c2.1,0,3.6,0.9,4.5,2.3l0.1-1.6
		c0-0.2,0.1-0.4,0.4-0.4h1.9c0.2,0,0.4,0.2,0.4,0.4v12.1c0,4.5-3.5,6.1-6.8,6.1C501.5,114.4,499.7,113.9,498.5,113z M507.3,102.2
		c0-2.5-1.6-4-3.9-4c-2.2,0-3.9,1.5-3.9,4c0,2.5,1.7,4,3.9,4C505.7,106.1,507.3,104.6,507.3,102.2z"/>
	<path class="st2" d="M513.1,102.4c0-3.9,2.6-6.9,6.3-6.9c2.2,0,3.7,1,4.6,2.5l0.1-1.8c0-0.2,0.1-0.4,0.4-0.4h1.9
		c0.2,0,0.4,0.2,0.4,0.4v12.3c0,0.2-0.1,0.4-0.4,0.4h-1.9c-0.2,0-0.4-0.2-0.4-0.4l-0.1-1.7c-0.9,1.5-2.5,2.5-4.6,2.5
		C515.7,109.3,513.1,106.3,513.1,102.4z M523.9,102.4c0-2.5-1.6-4.2-3.9-4.2c-2.3,0-4.1,1.7-4.1,4.2c0,2.5,1.7,4.2,4.1,4.2
		C522.3,106.6,523.9,104.9,523.9,102.4z"/>
	<path class="st2" d="M530.3,108.5V96.3c0-0.2,0.1-0.4,0.4-0.4h2c0.2,0,0.4,0.1,0.4,0.4l0.1,1.6c0.7-1.3,2.1-2.3,4.1-2.3
		c2.8,0,4.7,1.9,4.7,5.4v7.6c0,0.2-0.2,0.4-0.4,0.4h-2.1c-0.2,0-0.4-0.2-0.4-0.4v-7.1c0-2.1-1-3.2-2.9-3.2s-3.1,1.2-3.1,3.2v7.1
		c0,0.2-0.1,0.4-0.4,0.4h-2.1C530.4,108.9,530.3,108.8,530.3,108.5z"/>
	<path class="st2" d="M545.3,99.6c0-6,4.8-9.6,9.8-9.6c5,0,9.4,3.6,9.4,9.2c0,3.8-2,5.3-4.1,5.3c-1.1,0-2-0.5-2.4-1.4
		c-0.8,0.9-1.9,1.4-3.4,1.4c-2.8,0-4.6-2.1-4.6-4.8c0-2.7,1.9-4.8,4.7-4.8c1.4,0,2.5,0.6,3.3,1.5l0.4-0.9h1.3l-0.5,5.4
		c-0.1,1.3,0.5,1.7,1.2,1.7c1.2,0,1.7-1.2,1.7-3c0-4.6-3.3-7.2-7-7.2c-3.8,0-7.4,2.6-7.4,7.3s3.6,7.4,7.4,7.4c1.4,0,2.7-0.4,3.8-1.1
		l1.4,1.6c-1,1-2.9,1.7-5.2,1.7C550,109.3,545.3,105.6,545.3,99.6z M557.5,99.7c0-1.6-1.1-2.8-2.7-2.8c-1.6,0-2.7,1.2-2.7,2.8
		s1.1,2.8,2.7,2.8C556.4,102.5,557.5,101.3,557.5,99.7z"/>
	<path class="st2" d="M567.1,102.4c0-3.9,2.6-6.9,6.3-6.9c2.1,0,3.5,0.9,4.5,2.3v-7.5c0-0.2,0.1-0.4,0.4-0.4h2.1
		c0.2,0,0.4,0.2,0.4,0.4v18.3c0,0.2-0.1,0.4-0.4,0.4h-1.9c-0.2,0-0.4-0.2-0.4-0.4l-0.1-1.7c-0.9,1.5-2.5,2.5-4.6,2.5
		C569.7,109.3,567.1,106.3,567.1,102.4z M577.9,102.4c0-2.5-1.6-4.2-3.9-4.2c-2.3,0-4.1,1.7-4.1,4.2c0,2.5,1.7,4.2,4.1,4.2
		C576.3,106.6,577.9,104.9,577.9,102.4z"/>
	<path class="st2" d="M583.7,102.4c0-3.8,2.7-6.8,6.6-6.8c3.9,0,6.2,3,6.2,6.2c0,1.1-0.2,1.7-1.2,1.7h-8.8c0.3,2.1,1.9,3.5,4.5,3.5
		c1.3,0,2.3-0.3,3.4-1c0.2-0.1,0.3-0.1,0.4,0.1l0.7,1c0.2,0.2,0.1,0.4-0.1,0.6c-1.1,1.1-2.8,1.7-4.7,1.7
		C586.4,109.3,583.7,106.2,583.7,102.4z M593.9,101.4c-0.2-2.1-1.6-3.4-3.6-3.4c-2.1,0-3.6,1.3-3.9,3.4H593.9z"/>
	<path class="st2" d="M598.7,107.2c-0.2-0.2-0.2-0.5,0-0.7l0.7-1c0.2-0.3,0.4-0.2,0.6-0.1c1,0.8,1.9,1.4,3.1,1.4c1.2,0,2-0.5,2-1.5
		c0-0.9-0.6-1.4-1.7-1.8l-1.6-0.6c-1.7-0.7-2.9-1.7-2.9-3.5c0-2.3,2-3.7,4.3-3.7c1.6,0,3.1,0.7,4.1,1.9c0.2,0.2,0.1,0.4,0,0.6
		l-0.8,1c-0.2,0.2-0.4,0.2-0.6,0c-0.8-0.8-1.6-1.1-2.5-1.1c-1,0-1.7,0.5-1.7,1.4c0,0.9,0.7,1.3,1.7,1.7l1.6,0.6c1.7,0.7,3,1.7,3,3.7
		c0,2.6-2.2,3.9-4.7,3.9C601.1,109.3,599.6,108.3,598.7,107.2z"/>
	<path class="st2" d="M610.8,91.4c0-0.9,0.7-1.7,1.7-1.7c0.9,0,1.7,0.7,1.7,1.7c0,0.9-0.7,1.7-1.7,1.7
		C611.5,93.1,610.8,92.3,610.8,91.4z M611,108.5V96.3c0-0.2,0.1-0.4,0.4-0.4h2.2c0.2,0,0.4,0.2,0.4,0.4v12.3c0,0.2-0.1,0.4-0.4,0.4
		h-2.2C611.1,108.9,611,108.8,611,108.5z"/>
	<path class="st2" d="M618.6,113c-0.2-0.2-0.3-0.4-0.2-0.7l0.6-1.1c0.1-0.2,0.3-0.3,0.6-0.2c1.1,0.7,2.4,1,3.6,1
		c2.2,0,4.3-1,4.3-3.8v-1.8c-0.9,1.4-2.4,2.2-4.5,2.2c-3.7,0-6.2-2.7-6.2-6.6c0-3.9,2.5-6.6,6.2-6.6c2.1,0,3.6,0.9,4.5,2.3l0.1-1.6
		c0-0.2,0.1-0.4,0.4-0.4h1.9c0.2,0,0.4,0.2,0.4,0.4v12.1c0,4.5-3.5,6.1-6.8,6.1C621.6,114.4,619.8,113.9,618.6,113z M627.4,102.2
		c0-2.5-1.6-4-3.9-4c-2.2,0-3.9,1.5-3.9,4c0,2.5,1.7,4,3.9,4C625.8,106.1,627.4,104.6,627.4,102.2z"/>
	<path class="st2" d="M633.9,108.5V96.3c0-0.2,0.1-0.4,0.4-0.4h2c0.2,0,0.4,0.1,0.4,0.4l0.1,1.6c0.7-1.3,2.1-2.3,4.1-2.3
		c2.8,0,4.7,1.9,4.7,5.4v7.6c0,0.2-0.2,0.4-0.4,0.4h-2.1c-0.2,0-0.4-0.2-0.4-0.4v-7.1c0-2.1-1-3.2-2.9-3.2s-3.1,1.2-3.1,3.2v7.1
		c0,0.2-0.1,0.4-0.4,0.4h-2.1C634,108.9,633.9,108.8,633.9,108.5z"/>
	<path class="st2" d="M648.5,102.4c0-3.8,2.7-6.8,6.6-6.8c3.9,0,6.2,3,6.2,6.2c0,1.1-0.2,1.7-1.2,1.7h-8.8c0.3,2.1,1.9,3.5,4.5,3.5
		c1.3,0,2.3-0.3,3.4-1c0.2-0.1,0.3-0.1,0.4,0.1l0.7,1c0.2,0.2,0.1,0.4-0.1,0.6c-1.1,1.1-2.8,1.7-4.7,1.7
		C651.2,109.3,648.5,106.2,648.5,102.4z M658.7,101.4c-0.2-2.1-1.6-3.4-3.6-3.4c-2.1,0-3.6,1.3-3.9,3.4H658.7z"/>
	<path class="st2" d="M664.2,108.5V90.3c0-0.2,0.1-0.4,0.4-0.4h2.1c0.2,0,0.4,0.2,0.4,0.4v18.3c0,0.2-0.1,0.4-0.4,0.4h-2.1
		C664.3,108.9,664.2,108.8,664.2,108.5z"/>
	<path class="st2" d="M670.4,91.4c0-0.9,0.7-1.7,1.7-1.7c0.9,0,1.7,0.7,1.7,1.7c0,0.9-0.7,1.7-1.7,1.7
		C671.2,93.1,670.4,92.3,670.4,91.4z M670.6,108.5V96.3c0-0.2,0.1-0.4,0.4-0.4h2.2c0.2,0,0.4,0.2,0.4,0.4v12.3
		c0,0.2-0.1,0.4-0.4,0.4H671C670.8,108.9,670.6,108.8,670.6,108.5z"/>
	<path class="st2" d="M676.4,108.5l4-6.2l-3.8-5.9c-0.2-0.3-0.1-0.5,0.2-0.5h2.3c0.2,0,0.3,0.1,0.5,0.3l2.5,4.1l2.5-4.1
		c0.1-0.2,0.3-0.3,0.5-0.3h2.3c0.3,0,0.4,0.2,0.2,0.5l-3.8,5.9l4,6.2c0.2,0.3,0.1,0.5-0.2,0.5h-2.3c-0.2,0-0.3-0.1-0.5-0.3l-2.7-4.4
		l-2.7,4.4c-0.1,0.2-0.3,0.3-0.5,0.3h-2.3C676.3,108.9,676.2,108.7,676.4,108.5z"/>
	<path class="st2" d="M690.5,91.4c0-0.9,0.7-1.7,1.7-1.7c0.9,0,1.7,0.7,1.7,1.7c0,0.9-0.7,1.7-1.7,1.7
		C691.2,93.1,690.5,92.3,690.5,91.4z M690.7,108.5V96.3c0-0.2,0.1-0.4,0.4-0.4h2.2c0.2,0,0.4,0.2,0.4,0.4v12.3
		c0,0.2-0.1,0.4-0.4,0.4h-2.2C690.9,108.9,690.7,108.8,690.7,108.5z"/>
	<path class="st2" d="M697.2,108.5V96.3c0-0.2,0.1-0.4,0.4-0.4h2c0.2,0,0.4,0.1,0.4,0.4l0.1,1.6c0.5-1.3,1.3-2.3,2.9-2.3
		c0.6,0,1,0.1,1.2,0.3c0.2,0.1,0.2,0.3,0.2,0.5V98c0,0.3-0.2,0.4-0.5,0.3s-0.6-0.1-1-0.1c-2.1,0-2.9,1.7-2.9,3.3v7
		c0,0.2-0.1,0.4-0.4,0.4h-2.1C697.3,108.9,697.2,108.8,697.2,108.5z"/>
	<path class="st2" d="M704.3,107.5c0-1,0.8-1.8,1.8-1.8c1,0,1.8,0.8,1.8,1.8s-0.8,1.8-1.8,1.8C705.1,109.3,704.3,108.5,704.3,107.5z
		"/>
	<path class="st2" d="M710.4,107.2c-0.2-0.2-0.2-0.5,0-0.7l0.7-1c0.2-0.3,0.4-0.2,0.6-0.1c1,0.8,1.9,1.4,3.1,1.4c1.2,0,2-0.5,2-1.5
		c0-0.9-0.6-1.4-1.7-1.8l-1.6-0.6c-1.7-0.7-2.9-1.7-2.9-3.5c0-2.3,2-3.7,4.3-3.7c1.6,0,3.1,0.7,4.1,1.9c0.2,0.2,0.1,0.4,0,0.6
		l-0.8,1c-0.2,0.2-0.4,0.2-0.6,0c-0.8-0.8-1.6-1.1-2.5-1.1c-1,0-1.7,0.5-1.7,1.4c0,0.9,0.7,1.3,1.7,1.7l1.6,0.6c1.7,0.7,3,1.7,3,3.7
		c0,2.6-2.2,3.9-4.7,3.9C712.9,109.3,711.4,108.3,710.4,107.2z"/>
	<path class="st2" d="M723.5,105.9v-7.7h-1.7c-0.2,0-0.4-0.2-0.4-0.4v-1.5c0-0.2,0.1-0.4,0.4-0.4h1.7v-3.1c0-0.2,0.1-0.4,0.4-0.4
		h2.2c0.2,0,0.4,0.2,0.4,0.4v3.1h2.1c0.2,0,0.4,0.2,0.4,0.4v1.5c0,0.2-0.2,0.4-0.4,0.4h-2.1v7.4c0,0.9,0.4,1.3,1.2,1.3
		c0.2,0,0.5,0,0.8-0.1c0.3,0,0.5,0.1,0.5,0.4v1.4c0,0.5-1.2,0.7-2,0.7C724.9,109.3,723.5,108.3,723.5,105.9z"/>
	<path class="st2" d="M731.7,103.9v-7.6c0-0.2,0.1-0.4,0.4-0.4h2.1c0.2,0,0.4,0.2,0.4,0.4v7.1c0,2.1,1,3.2,2.9,3.2
		c1.8,0,3.1-1.2,3.1-3.2v-7.1c0-0.2,0.1-0.4,0.4-0.4h2.1c0.2,0,0.4,0.2,0.4,0.4v12.3c0,0.2-0.2,0.4-0.4,0.4h-2
		c-0.3,0-0.4-0.1-0.4-0.4l-0.1-1.6c-0.7,1.3-2.1,2.3-4.1,2.3C733.6,109.3,731.7,107.3,731.7,103.9z"/>
	<path class="st2" d="M746.3,102.4c0-3.9,2.6-6.9,6.3-6.9c2.1,0,3.5,0.9,4.5,2.3v-7.5c0-0.2,0.1-0.4,0.4-0.4h2.1
		c0.2,0,0.4,0.2,0.4,0.4v18.3c0,0.2-0.1,0.4-0.4,0.4h-1.9c-0.2,0-0.4-0.2-0.4-0.4l-0.1-1.7c-0.9,1.5-2.5,2.5-4.6,2.5
		C748.8,109.3,746.3,106.3,746.3,102.4z M757.1,102.4c0-2.5-1.6-4.2-3.9-4.2c-2.3,0-4.1,1.7-4.1,4.2c0,2.5,1.7,4.2,4.1,4.2
		C755.4,106.6,757.1,104.9,757.1,102.4z"/>
	<path class="st2" d="M763.3,91.4c0-0.9,0.7-1.7,1.7-1.7c0.9,0,1.7,0.7,1.7,1.7c0,0.9-0.7,1.7-1.7,1.7
		C764,93.1,763.3,92.3,763.3,91.4z M763.5,108.5V96.3c0-0.2,0.1-0.4,0.4-0.4h2.2c0.2,0,0.4,0.2,0.4,0.4v12.3c0,0.2-0.1,0.4-0.4,0.4
		h-2.2C763.6,108.9,763.5,108.8,763.5,108.5z"/>
	<path class="st2" d="M769.3,102.4c0-3.9,2.9-6.9,6.8-6.9c3.9,0,6.7,3,6.7,6.9s-2.9,6.9-6.7,6.9
		C772.2,109.3,769.3,106.3,769.3,102.4z M780.1,102.4c0-2.5-1.7-4.2-4-4.2c-2.3,0-4,1.7-4,4.2s1.7,4.2,4,4.2
		C778.3,106.6,780.1,104.9,780.1,102.4z"/>
</g>
<image style="overflow:visible;" width="419" height="446" xlink:href="../../../Asset 1@300x.png"  transform="matrix(0.2313 0 0 0.2313 20.3984 28.1002)">
</image>
</svg>
