<?xml version="1.0" encoding="utf-8"?>
<!-- Generator: Adobe Illustrator 24.1.3, SVG Export Plug-In . SVG Version: 6.00 Build 0)  -->
<svg version="1.1" id="Layer_1" xmlns="http://www.w3.org/2000/svg" xmlns:xlink="http://www.w3.org/1999/xlink" x="0px" y="0px"
	 viewBox="0 0 848.1 165.6" style="enable-background:new 0 0 848.1 165.6;" xml:space="preserve">
<style type="text/css">
	.st0{fill:#8792B4;}
	.st1{fill:none;stroke:#384173;stroke-width:5;stroke-miterlimit:10;}
	.st2{fill:#707DA7;}
	.st3{fill:#C7CCDD;}
	.st4{opacity:0.63;fill:#48578E;enable-background:new    ;}
	.st5{fill:#2F345B;}
	.st6{fill:#FFFFFF;stroke:#FFFFFF;stroke-width:0.5;stroke-miterlimit:10;}
	.st7{fill:#FFFFFF;}
	.st8{fill:#384173;}
	.st9{opacity:0.88;fill:#E8E8E8;enable-background:new    ;}
</style>
<g id="Draw_Layer">
	<path class="st0" d="M109.7,19.5H827c10.1,0,18.4,8.2,18.4,18.4v106.9c0,10.1-8.2,18.4-18.4,18.4H109.7c-10.1,0-18.4-8.2-18.4-18.4
		V37.8C91.3,27.7,99.6,19.5,109.7,19.5z"/>
	<path class="st1" d="M109.9,19.5h717.3c10.1,0,18.4,8.2,18.4,18.4v106.9c0,10.1-8.2,18.4-18.4,18.4H109.9
		c-10.1,0-18.4-8.2-18.4-18.4V37.8C91.5,27.7,99.8,19.5,109.9,19.5z"/>
	<path class="st2" d="M168.6,41.2c-0.5,0-1.1,0-1.6,0h-5.5H160c-0.8,0-1.5,0-2.3,0H157h-0.8c-0.6,0-1.1,0.1-1.7,0.1
		c-0.6,0-1.1,0-1.7,0h-1.5H151h-0.5H150l-0.8,0c-0.3,0-0.6,0.1-0.9,0.1c-0.6,0-1.1,0-1.7,0c-0.6,0-1-0.1-1.5-0.1h-0.7h-0.3
		c-0.8,0-1.6,0.1-2.4,0.1s-1.5,0-2.2,0c-0.9,0-1.8,0-2.7,0h-0.6h-0.7c-0.5,0-1,0.1-1.5,0.1c-1,0.1-2,0-3,0.1c-0.5,0-0.9,0-1.4,0
		h-4.1h-1.1c-0.6,0.2-1.1,0.5-1.6,0.8c-0.3,0.2-0.5,0.6-0.7,0.9l-0.2,0.3c-0.1,0.2-0.3,0.4-0.4,0.6c0,0.1-0.1,0.1-0.1,0.2l-0.1,0.1
		c-0.2,0.2-0.3,0.4-0.3,0.7c0,0.1,0,0.2,0,0.2c0,0.1,0,0.3,0,0.4v0.1c0,0.1,0,0.1,0,0.2c-0.1,0.4-0.1,0.8-0.1,1.1
		c0,0.2,0,0.4,0.1,0.6V48c0,0.2,0,0.3,0,0.5c0,0.3,0,0.6,0,1c0,0.1,0,0.2,0,0.3c0,0.3,0,0.5-0.1,0.8c-0.1,0.3,0,0.5-0.1,0.7
		c-0.1,0.2-0.1,0.7-0.1,1s-0.1,0.7-0.1,1c0,0.2,0,0.4-0.1,0.6c-0.1,0.6-0.1,1.3-0.1,1.9c0,0.4,0,0.7,0,1.1c0,0.2,0,0.4,0,0.6
		c0,0.5,0,1,0,1.4c0,0.3-0.1,0.6-0.1,0.9s-0.1,0.8-0.1,1.2c0,0.4,0,0.6,0,0.9c0,0.3,0,0.5,0,0.8c0,0.6,0,1.2,0,1.8
		c0,0.6,0,1.3,0,1.9c-0.1,1.1-0.1,2-0.1,2.8c0,0.4,0,0.8,0.1,1.2c0,0.2,0,0.4,0.1,0.6s0.1,0.5,0.1,0.8c0,0.9,0.1,1.6,0.1,2.3
		c0,0.4,0,0.8,0,1.2c0,0.4,0,0.8,0,1.2v0.1c0,0.4,0,0.9,0,1.3s0,0.8,0,1.2v0.1c0,0.4,0,0.9,0,1.3c0,0.4,0,1,0,1.5
		c0,0.8,0.1,1.6,0.1,2.6c0.1,1,0.1,1.9,0.1,2.7c0,0.5,0,0.9,0,1.4c0,0.3,0,0.6,0,1v0.4c0,0.6,0,1.2,0.1,1.8v0.8c0,0.6,0,1.1,0,1.7
		v0.9c0,0.8,0.1,1.7,0.2,2.7c0.1,0.7,0.1,1.3,0.1,2v0.7c0,0.8,0,1.7,0.1,2.8c0.1,1.1,0.1,2,0.1,3c0,0.8,0,1.7,0,2.5
		c0,0.3,0,0.5,0,0.7c0.1,0.6,0.1,1.3,0.1,1.9c0,0.5,0,1.1-0.1,1.6c0,0.4,0,0.8,0,1.2c0,0.7,0,1.4,0,2c0,0.3,0,0.6,0,0.9
		c0,1,0,1.8,0,2.7v0.4c0,0.7-0.1,1.4-0.1,2.2c0,0.4,0,0.7,0,1.1c0,0.5,0,1.1,0,1.6v1.1c0,0.5,0,1,0,1.5s0,1,0,1.5c0,0.3,0,0.7,0,1
		s0,0.8,0,1.2s0,0.8,0,1.2s0,0.6,0,0.8s0,0.3,0,0.4s0,0.3,0,0.4c0,0.3,0,0.5,0.1,0.8c0.1,0.4,0.2,0.8,0.3,1.1
		c0.1,0.3,0.3,0.6,0.4,0.9c0.1,0.1,0.1,0.2,0.2,0.3c0.1,0.1,0.1,0.2,0.2,0.3c0.1,0.1,0.1,0.2,0.2,0.3c0.1,0.1,0.3,0.3,0.4,0.4l0,0
		l0.3,0.2c0,0,0.1,0,0.1,0.1c0.1,0.1,0.2,0.3,0.4,0.4c0.3,0.2,0.6,0.3,0.9,0.4l0.3,0.1h0.1l0.3,0.1l0.3,0.1h0.3l0.3,0h0.4
		c0.4,0,0.8,0,1.2,0c0.4,0,0.7,0,1.1,0h0.4c0.3,0,0.5,0,0.8-0.1h0.5c0.3,0,0.7,0,1,0s0.8,0,1.2,0s0.7,0,1.1,0h0.6
		c0.2,0,0.3,0,0.5,0.1l1.1,0.1c0.2,0,0.4,0,0.6,0h0.7c0.3,0,0.5,0,0.8,0h0.8c0.6,0,1.1,0,1.7,0s1,0,1.5,0h0.1
		c0.6-0.1,1.1-0.1,1.7-0.2h1.7c0.3,0,0.6,0,0.9,0l0.8,0.1c0.5,0,1,0,1.5,0h0.5c1.2-0.1,2.4,0,3.6,0h1c0.3,0,0.6,0,0.9,0
		c0.6,0,1.1,0.1,1.7,0.1h1.8l1.8,0.1c1.1,0.1,2.2,0.1,3.3,0.1c0.5,0,1,0,1.5,0c0.5,0,0.9,0,1.4,0h0.6h-0.1c0.6,0,1.2,0,1.8,0
		c0.6,0,1.1,0,1.7,0c0.6,0,1.2,0,1.8,0h1.9c1.1,0,2.2,0.1,3.3,0.1c0.5,0,1.1,0,1.6,0c0.5,0,1,0,1.5,0c0.5,0,1.1,0.1,1.7,0.1h1.1
		c-0.1-0.4-0.3-0.8-0.4-1.2c-0.1-0.3-0.1-0.6-0.1-0.9v-0.1v-0.3c0-0.3-0.1-0.5-0.2-0.8c-0.1-0.3-0.1-0.5-0.2-0.8v-0.4
		c0-0.1,0-0.3,0-0.4c0-0.1,0-0.4-0.1-0.7v-0.1v-0.2l-0.1-1c0-0.2,0-0.5-0.1-0.7c-0.1-0.2,0-0.5-0.1-0.7v-0.1c0-0.2,0-0.5-0.1-0.7
		v-0.2v-0.1c-0.1-0.3-0.1-0.7-0.1-1c0-0.2,0-0.4,0-0.5v-0.1c0-0.2,0-0.3,0-0.5c-0.1-0.6-0.1-1.2-0.2-1.9v-0.5v-0.1
		c0-0.4-0.1-0.9-0.1-1.4c0-0.2,0-0.3,0-0.5c0-0.1,0-0.3,0-0.4c0-0.4,0-0.7-0.1-0.9l-0.1-0.7v-0.2c0-0.4-0.1-0.8-0.1-1.2
		c0-0.3-0.1-0.7-0.1-1.1c0-0.4,0-0.5-0.1-0.8v-0.4c0-0.2,0-0.4,0-0.6c0-0.2,0-0.3,0-0.4v-0.4c0-0.2,0-0.4,0-0.7s-0.1-0.6-0.1-0.9
		v-0.2c0-0.3-0.1-0.6-0.1-0.9v-0.3c0-0.2,0-0.3,0-0.5v-0.2v-0.4c0-0.2,0-0.5,0-0.7v-0.1c0-0.1,0-0.2,0-0.3c0-0.8-0.1-1.5-0.2-2.3
		c0-0.4-0.1-0.8-0.1-1.2v-0.2c0-0.3-0.1-0.5-0.1-0.8c-0.1-0.8-0.1-1.5-0.2-2.2c0-0.6-0.1-1.1-0.1-1.6v-0.5c-0.1-1-0.2-2.1-0.2-3.1
		v0.2l-0.1-1.4v-0.5v-0.4c-0.3,0-0.6,0.1-0.8,0.1h-1h-0.2c-0.2,0-0.5,0-0.8,0.1h-0.3H176c-0.4,0-0.9-0.1-1.4-0.1c-0.2,0-0.5,0-0.7,0
		s-0.4,0-0.6,0c-0.2,0-0.6-0.1-0.8-0.1h-0.1h-0.2c-0.3,0-0.7-0.1-1-0.1h-0.3h-0.5h-0.1h-0.3h-0.1h-0.2h-0.1H169h-0.5
		c-0.1,0-0.3,0-0.4,0c-0.4,0-0.9,0.1-1.4,0.1c-0.4,0-0.8-0.4-0.8-0.8c0-0.2,0.1-0.5,0.3-0.6c0-1-0.1-1.9-0.2-2.7l-0.1-0.5v-0.1l0,0
		c-0.1-0.5-0.2-1-0.2-1.5c0-0.3,0-0.5,0-0.8V91c0-0.2,0-0.3,0-0.4c0-0.4,0-0.8,0-1.2c0-0.4,0-0.6,0-0.9v-0.3c0-0.2,0-0.4,0-0.6
		c0-0.2,0-0.5,0-0.8V86c0-0.6,0-1.2,0-1.8c0-0.9,0.1-1.8,0.1-2.6c0-0.8,0.1-1.6,0.2-2.3v-0.1l0-0.5v-0.5l0,0
		c0.1-1.3,0.2-2.7,0.4-4.1v-0.1v-0.1c0.1-0.5,0.1-0.9,0.2-1.4v-0.1l0.1-0.5c0.1-0.7,0.2-1.4,0.3-2.1l0.1-0.7v-0.1
		c0.2-1.1,0.4-2.3,0.7-3.5l0.1-0.4c0.1-0.3,0.2-0.6,0.2-0.9c0.1-0.4,0.2-0.9,0.3-1.3c0.1-0.6,0.3-1.2,0.4-1.9l0.1-0.9
		c0.2-0.8,0.4-1.7,0.6-2.5l0.1-0.6V57c0.1-0.6,0.3-1.2,0.4-1.8c0.2-0.8,0.4-1.6,0.7-2.4c0.2-0.6,0.3-1.1,0.5-1.8l0.1-0.5
		c0.2-0.6,0.4-1.2,0.7-1.9l0.2-0.4c0.3-0.8,0.7-1.6,1-2.3l0.1-0.2l0.1-0.1c0.1-0.2,0.1-0.3,0.2-0.5c0.1-0.2,0.2-0.5,0.2-0.7
		c0.1-0.3,0.2-0.6,0.3-0.8c0-0.1,0-0.1,0.1-0.2v-0.1v-0.1l0.1-0.3c0-0.1,0.1-0.2,0.1-0.4l0.1-0.1c0-0.1,0.1-0.2,0.1-0.3
		c0.1-0.1,0.2-0.2,0.3-0.3v0l0.1-0.1c0.1-0.1,0.1-0.1,0.2-0.2c0.1-0.1,0.2-0.1,0.2-0.2h-0.4c-0.4,0-0.9,0-1.3,0h-0.3
		c-0.1,0-0.3,0-0.4,0h-0.2h-0.7c-0.3,0.1-0.5,0.1-0.8,0h-0.8C169.8,41.2,169.2,41.2,168.6,41.2L168.6,41.2z"/>
	<path class="st2" d="M148.9,140L148.9,140z"/>
	<path class="st2" d="M226.4,139.3L226.4,139.3L226.4,139.3c-0.2,0.1-0.2,0.2-0.3,0.2l-0.2,0.1c-0.2,0.2-0.5,0.4-0.7,0.6l-0.3,0.1
		h0.1c0.4-0.1,0.7-0.3,1-0.5c0.1-0.1,0.2-0.3,0.3-0.4L226.4,139.3L226.4,139.3L226.4,139.3z"/>
	<path class="st3" d="M207.3,40.6c-0.4,0-0.8,0-1.2,0s-0.7,0.1-1,0.1l-1.2,0.1c-0.4,0-0.8,0.1-1.3,0.1h-1.3c-0.6,0-1.2,0-1.7,0h0.1
		c-0.7,0-1.4,0-2.1,0h-0.2c-0.3,0-0.7,0-1,0l-0.8-0.1c-0.5,0-0.9,0-1.4-0.1c-0.5,0-1,0.1-1.5,0.1c-0.3,0-0.5,0-0.8,0h-0.8
		c-0.6,0-1.2,0-1.8,0.1c-0.6,0-1.2,0.1-1.8,0.1c-0.5,0-1,0-1.5,0.1c-0.5,0.1-1.1,0.1-1.7,0.1c-0.3,0-0.7,0-1,0h-0.8
		c-0.5,0-1,0-1.5,0c-0.3,0-0.7,0-1,0.1c-0.3,0.1-0.8,0-1.2,0h0.2h-1.2c-0.6,0-1.1,0.1-1.7,0.1h-1c-0.1,0.1-0.2,0.1-0.2,0.2
		c-0.1,0.1-0.1,0.1-0.2,0.2l-0.1,0.1v0c-0.1,0.1-0.2,0.2-0.3,0.3c0,0.1-0.1,0.2-0.1,0.3l-0.1,0.1l-0.1,0.3c0,0.1-0.1,0.2-0.1,0.3
		v0.1v0.1c0,0.1,0,0.1-0.1,0.2c-0.1,0.3-0.2,0.6-0.3,0.8c-0.1,0.2-0.1,0.5-0.2,0.7c-0.1,0.2-0.1,0.3-0.2,0.5l-0.1,0.1l-0.1,0.2
		c-0.3,0.7-0.7,1.5-1,2.3l-0.2,0.4c-0.3,0.6-0.5,1.2-0.7,1.9l-0.1,0.5c-0.2,0.6-0.3,1.2-0.5,1.8c-0.2,0.8-0.4,1.6-0.6,2.4
		c-0.1,0.6-0.3,1.2-0.4,1.8v0.1l-0.1,0.6c-0.2,0.8-0.4,1.7-0.6,2.5l-0.2,0.7c-0.1,0.7-0.3,1.3-0.4,1.9l-0.3,1.3
		c-0.1,0.3-0.1,0.6-0.2,0.9l-0.1,0.4c-0.3,1.2-0.5,2.4-0.7,3.5v0.1l-0.1,0.7c-0.1,0.7-0.2,1.4-0.3,2.1l-0.1,0.4v0.1
		c-0.1,0.5-0.1,0.9-0.2,1.4v0.1v0.1c-0.2,1.4-0.3,2.7-0.4,4.1l0,0v0.5v0.5V79c-0.1,0.7-0.1,1.5-0.2,2.3c0,0.8-0.1,1.8-0.1,2.6
		c0,0.6,0,1.2,0,1.8v0.8c0,0.3,0,0.5,0,0.8s0,0.4,0,0.6v0.3c0,0.3,0,0.6,0,0.9c0,0.3,0,0.8,0,1.2c0,0.1,0,0.3,0,0.4v0.1
		c0,0.3,0,0.5,0,0.8c0,0.5,0.1,1,0.2,1.5l0,0v0.1l0.1,0.5c0.1,0.8,0.1,1.6,0.2,2.7c-0.2,0.2-0.3,0.4-0.3,0.6c0,0.4,0.4,0.8,0.8,0.8
		c0.5,0,1,0,1.4-0.1h0.4h0.4h0.4h0.1h0.2h0.2h0.3h0.1h0.5h0.3c0.3,0,0.7,0,1,0.1h0.2h0c0.3,0,0.5,0.1,0.8,0.1s0.4,0,0.6,0
		c0.2,0,0.5,0,0.7,0c0.5,0.1,1,0.1,1.4,0.1h0.4h0.3c0.3,0,0.5,0,0.8-0.1l0,0h0.2c0.3,0,0.6,0,1,0c0.3,0,0.6,0,0.8-0.1v0.4v0.5
		l0.1,1.4v0.1c0.1,1,0.1,2.1,0.2,3.1v0.5c0.1,0.5,0.1,1.1,0.1,1.6c0,0.7,0.1,1.5,0.2,2.2c0,0.3,0.1,0.6,0.1,0.8v0.2
		c0,0.4,0.1,0.8,0.1,1.2c0.1,0.7,0.1,1.4,0.1,2.2c0,0.1,0,0.2,0,0.3v0.1v0.7v0.4v0.3c0,0.2,0,0.3,0,0.5v0.3c0,0.3,0,0.6,0.1,0.9v0.2
		c0,0.3,0.1,0.6,0.1,0.9l0.1,0.7v0.4c0,0.1,0,0.3,0,0.4c0,0.1,0,0.4,0,0.6v0.4c0,0.3,0,0.6,0.1,0.8s0.1,0.7,0.1,1.1
		c0,0.4,0.1,0.8,0.1,1.2v0.2l0.1,0.6c0,0.3,0,0.6,0.1,0.9v0.4c0,0.2,0,0.3,0,0.5c0,0.5,0.1,0.9,0.1,1.4v0v0.5
		c0.1,0.7,0.1,1.3,0.2,1.9c0,0.2,0,0.3,0,0.5v0.1c0,0.2,0,0.4,0,0.5c0,0.3,0.1,0.7,0.1,1v0.1v0.2c0,0.2,0,0.5,0.1,0.7v0.1
		c0,0.2,0,0.5,0.1,0.7c0.1,0.2,0,0.5,0.1,0.7c0.1,0.2,0.1,0.7,0.1,1c0,0.1,0,0.1,0,0.2v0.1c0,0.2,0,0.4,0.1,0.7s0,0.3,0,0.4v0.4
		c0,0.3,0.1,0.6,0.2,0.8c0.1,0.2,0.1,0.5,0.2,0.8v0.3v0.1c0,0.7,0.2,1.4,0.5,2.1h0.5c0.5,0,1,0,1.5,0c0.5,0,1,0,1.5,0
		c0.5,0,1,0,1.6,0h1.5c1.1,0,2.1,0,3.2,0h1.5c0.6,0,1.1,0,1.7,0c1,0,2.1,0,3.1,0h2.3h1.4c1.1,0,2.3,0.1,3.4,0c0.5,0,1,0,1.5,0
		c0.5,0,1.1,0.1,1.6,0.1h1.7c0.6,0,1.1,0,1.7,0.1c0.6,0.1,1.1,0,1.6,0c0.5,0,0.9,0,1.4,0s1,0,1.5,0.1l1.6,0.1c0.6,0,1.2,0.1,1.7,0.1
		s1,0.1,1.6,0.1c0.5,0,1,0.1,1.6,0.1h0.4h0.1c0.5-0.1,0.9-0.3,1.3-0.6c0.3-0.2,0.5-0.3,0.7-0.5c0,0,0.1-0.1,0.2-0.1l0.2-0.2l0.1-0.1
		l0,0l0.2-0.2l0.2-0.2l0.2-0.2c0.3-0.2,0.5-0.5,0.6-0.8l0.1-0.1l0,0c0.1-0.1,0.1-0.3,0.2-0.4c0.2-0.3,0.3-0.6,0.4-1
		c0-0.1,0.1-0.2,0.1-0.3c0-0.1,0.1-0.2,0.1-0.3c0-0.1,0.1-0.2,0.1-0.3c0-0.1,0.1-0.3,0.2-0.5l0.2-0.7v-0.1c0-0.3,0-0.6,0-0.9
		c0-0.3,0.1-0.7,0.1-1.1c0-0.1,0-0.1,0-0.2c0-0.1,0-0.2,0-0.3s0-0.3,0-0.4V131v-0.3c0-0.2,0-0.3,0-0.4c0-0.2,0-0.3,0-0.5v-0.3
		c0-0.2,0-0.4,0-0.6v-0.1c0-0.4,0-0.9-0.1-1.3l0,0c0-0.6,0-1.2,0-1.8l0,0c0-0.2,0-0.5,0-0.7v0.2c0-0.3,0-0.5,0-0.8s0-0.5,0-0.7
		s0-0.5,0-0.7c0-0.2,0-0.5,0-0.7v0.2c0-0.4,0-0.7,0-1.1c0-0.4,0.1-0.6,0.1-0.9c0.1-0.6,0.1-1.2,0.1-1.8c0-0.3,0-0.6,0-0.9v0.1
		c0-0.4,0-0.8,0-1.2s0-0.6,0-0.9c0-0.5,0-1,0-1.5v-0.7c0-0.2,0-0.4,0-0.6v-0.6l0,0l0,0c0-0.5,0-0.9,0-1.4s0-0.9,0-1.4
		c0-0.5,0-0.9,0.1-1.4c0.1-0.4,0.1-0.8,0.2-1.3c0-0.4,0.1-0.8,0.1-1.2c0-0.4,0-0.9,0-1.4c0-1,0.1-1.9,0.1-2.9c0-0.5,0-1,0-1.5
		s0.1-0.8,0.1-1.2c0.1-1,0.1-2,0.2-3.1c0-0.5,0.1-1,0.1-1.5s0-1.1,0.1-1.7c0-0.6,0.1-1.1,0.1-1.6c0-0.5,0.1-1,0.1-1.5
		c0.1-1.1,0.1-2.1,0.1-3.2c0-0.5,0.1-1,0.1-1.6c0-0.5,0.1-1,0.1-1.6s0-0.9-0.1-1.3s-0.1-1-0.1-1.6v-1.2c0-0.4,0-0.7,0-1.1
		c0-0.6,0.1-1.3,0.1-1.9c0-0.4-0.1-0.9-0.1-1.3c0-0.4,0-1,0-1.4V73c0-0.2,0-0.4,0-0.6c0-0.6,0-1.2,0-1.8v-0.4c0-0.4,0-0.9,0-1.3
		s-0.1-0.8-0.1-1.3s-0.1-0.8-0.1-1.2c0-0.4,0-0.8,0-1.3s0-0.8,0-1.2c0-0.4,0-0.8,0.1-1.3c0.1-0.8,0.1-1.6,0.1-2.4c0-0.6,0-1.1,0-1.7
		c0-0.6,0-0.9,0-1.4c0-0.3,0-0.6-0.1-0.9l0,0v-0.1l-0.1-0.3c0-0.1,0-0.2,0-0.3v-0.2c0-0.2,0-0.5,0-0.7c0-0.5,0-1,0-1.5
		c0-0.5-0.1-0.8-0.1-1.2c0-0.4,0-0.9,0-1.4c0-0.2,0-0.4,0-0.6c0-0.1-0.1-0.3-0.1-0.4c0-0.1-0.1-0.2-0.1-0.3c0-0.1,0-0.2,0-0.3
		c0-0.1,0-0.3,0-0.4v-0.2c0-0.1,0-0.1,0-0.2c0-0.3,0-0.6-0.1-0.8c0-0.3-0.1-0.5-0.2-0.9c-0.1-0.3-0.2-0.6-0.3-0.9
		c-0.1-0.1-0.1-0.3-0.2-0.4l0,0v0c0-0.1-0.1-0.2-0.1-0.3c0-0.1-0.1-0.2-0.1-0.2l0,0.1l-0.1-0.1c0-0.1-0.1-0.1-0.1-0.2
		c-0.1-0.1-0.1-0.2-0.2-0.3l-0.1-0.2l0-0.1c-0.1-0.1-0.2-0.2-0.2-0.3l0,0l0,0l-0.2-0.3c-0.1-0.2-0.3-0.4-0.5-0.6l-0.1-0.1
		c-0.2-0.2-0.4-0.4-0.6-0.6l-0.3-0.3l-0.4-0.1l-0.5-0.2c-0.3-0.1-0.5-0.1-0.8-0.2c-0.2,0-0.4-0.1-0.6-0.1c-0.1,0-0.3,0-0.4,0h-0.3
		l-0.8-0.1c-0.3,0-0.6-0.1-0.9-0.2h0.1c-0.3-0.1-0.5-0.1-0.8-0.1c-0.2,0-0.4-0.1-0.6-0.1h-0.2l-0.5,0.1c-0.4,0-0.7,0-1.1,0h-0.2
		c-0.3,0-0.6,0-0.8,0.1c-0.3,0.1-0.6,0.1-0.8,0.1c-0.3,0-0.6,0-0.9,0h-0.9c-0.3,0-0.6,0-0.9-0.1c-0.3-0.1-0.6,0-0.9,0
		s-0.7,0-1.1-0.1l-0.4-0.1h-0.3h-0.2c-0.5,0-1,0.1-1.5,0.1c-0.5,0-0.8-0.1-1.2-0.1l-1.2,0.1L207.3,40.6z"/>
	<path class="st3" d="M228.9,123.9L228.9,123.9z"/>
	<path class="st3" d="M194,141.9h-0.7l0,0H194c0.2,0.1,0.4,0.1,0.6,0.1h0.2c0.3,0,0.5,0,0.8-0.1c0.1,0,0.1,0,0.2-0.1L194,141.9
		L194,141.9z"/>
	<path class="st3" d="M176.2,41.3c-0.5,0-0.9,0-1.4,0h-1.3c-0.1,0.2-0.2,0.4-0.2,0.7c0,0.1-0.1,0.2-0.1,0.4c0,0.1,0,0.3,0,0.4
		c-0.1,0.3-0.2,0.6-0.2,0.9c-0.1,0.3-0.3,0.8-0.4,1.1c0-0.1,0-0.1,0.1-0.2c-0.1,0.3-0.2,0.6-0.4,0.9c-0.1,0.4-0.3,0.7-0.4,1.1
		c-0.2,0.7-0.4,1.4-0.6,2.1c-0.2,0.7-0.4,1.3-0.6,1.9c-0.1,0.3-0.2,0.6-0.3,0.9c-0.1,0.3-0.2,0.7-0.3,1c-0.3,0.8-0.4,1.7-0.7,2.5
		l0.1-0.2c-0.1,0.3-0.3,0.7-0.4,1.1c-0.1,0.4-0.2,0.7-0.3,1c-0.1,0.3-0.2,0.6-0.2,0.9c-0.1,0.3-0.1,0.7-0.2,1
		c-0.1,0.7-0.3,1.3-0.5,1.9c-0.1,0.3-0.2,0.6-0.3,1c-0.1,0.3-0.2,0.7-0.3,1.1c-0.3,1.4-0.6,2.8-0.9,4.1c-0.1,0.3-0.1,0.7-0.2,1
		s-0.1,0.7-0.2,1c-0.1,0.7-0.2,1.3-0.4,2c-0.2,0.7-0.2,1.1-0.3,1.6s-0.2,1.2-0.3,1.9v-0.2c0,0.2,0,0.3,0,0.5l0,0l0,0
		c0,0.4-0.1,0.7-0.1,1.1l-0.1,0.9c0,0.3-0.1,0.6-0.1,0.9c0,0.3-0.1,0.8-0.1,1.2c-0.1,0.7-0.1,1.3-0.1,2s0,1.4,0,2.1
		s-0.1,1.4-0.1,2.1c0,0.3,0,0.7,0,1c0,0.4,0,0.7,0,1.1c0.1,0.7,0.1,1.4,0.2,2c0,0.7,0.1,1.3,0.1,1.9c0,0.3,0,0.7,0,1
		c0,0.3,0,0.7,0,1s0,0.6,0,0.9l0.1,0.7c0,0.2,0,0.4,0.1,0.7c0,0.2,0,0.3,0,0.4s0,0.3,0.1,0.5c0,0.1,0,0.1,0,0.2
		c0,0.1,0.1,0.3,0.2,0.4c0.1,0.1,0.1,0.2,0.2,0.3c0,0.1,0.1,0.2,0.1,0.2c0.1,0.2,0.2,0.3,0.4,0.4c0.1,0.1,0.3,0.1,0.4,0.1h0.2
		c0.1,0,0.2,0,0.3,0c0.1,0,0.2-0.1,0.3-0.2l0,0h0.1c0.1,0,0.3-0.1,0.4-0.2c0.2-0.1,0.5-0.3,0.7-0.4c0.2-0.1,0.3-0.5,0.2-0.7
		c-0.1-0.2-0.5-0.3-0.7-0.2l0,0l-0.6,0.3h0h-0.2h-0.1l0,0l0-0.1c-0.1-0.1-0.1-0.1-0.1-0.2l0,0c0-0.1,0-0.2,0-0.2l0,0v-0.1
		c0-0.2,0-0.4-0.1-0.6c-0.1-0.2,0-0.4,0-0.6v-1.5c0-0.2,0-0.3,0-0.5c0-0.2,0-0.4,0-0.6c0-0.3,0-0.7,0-1c0-0.6-0.1-1.3-0.1-1.9
		c0-0.4-0.1-0.8-0.1-1.2s-0.1-0.8-0.1-1.3c0-0.4,0-0.9,0-1.3s0-0.7,0-1.1l0-0.1c0.1-0.6,0.1-1.1,0.1-1.7c0-0.6,0.1-1,0.1-1.5
		c0-0.5,0-0.9,0-1.4c0-0.5,0.1-0.9,0.1-1.4c0-0.5,0.1-1.1,0.2-1.6c0-0.5,0.1-1,0.1-1.5v0.2c0-0.4,0.1-0.8,0.1-1.2v-0.1
		c0.1-0.7,0.2-1.4,0.3-2.1c0.1-0.7,0.2-1.3,0.3-2c0.1-0.7,0.2-1.3,0.3-2c0.1-0.3,0.1-0.7,0.2-1s0.1-0.7,0.2-1.1l0.2-1l0.2-1
		c0.1-0.4,0.2-0.7,0.3-1.1c0.1-0.4,0.1-0.7,0.2-1c0.2-0.7,0.4-1.3,0.5-2c0.1-0.3,0.1-0.6,0.2-0.9c0.1-0.3,0.2-0.7,0.3-1
		c0.2-0.6,0.3-1.2,0.5-1.8c0.2-0.6,0.4-1.1,0.6-1.7s0.4-1.2,0.5-1.8c0.1-0.3,0.2-0.6,0.3-0.9c0.1-0.3,0.2-0.6,0.3-0.9
		c0,0.1-0.1,0.1-0.1,0.2c0.2-0.4,0.3-0.8,0.4-1.2c0.1-0.4,0.2-0.7,0.3-1.1c0.2-0.8,0.4-1.5,0.7-2.3l0,0l0.4-1.2c0,0.1,0,0.1-0.1,0.2
		c0.2-0.5,0.3-1,0.5-1.4c0.1-0.2,0.1-0.4,0.2-0.6c0.1-0.2,0.1-0.3,0.1-0.5l0.1-0.3l0.1-0.2c0-0.1,0-0.1,0.1-0.1l0.2-0.1h0.1h0.2
		l0.3,0c0.1,0,0.2-0.1,0.3-0.1h0.2c0.2,0,0.4-0.1,0.5-0.1c0.1-0.1,0.3-0.1,0.4-0.1c0.1,0,0.1,0,0.2,0c0.1,0,0.3,0,0.4,0h0.1l0.3-0.1
		l0.3-0.1c0.2,0,0.3-0.2,0.4-0.3l0,0H178C177.4,41.2,176.8,41.3,176.2,41.3L176.2,41.3z"/>
	<path class="st4" d="M173.7,41L173.7,41z"/>
	<path class="st4" d="M174.1,41.2c-0.1,0-0.3,0-0.4,0c-0.1,0-0.2,0-0.3,0h-0.2c-0.1,0-0.3,0-0.4,0c-0.1,0-0.2,0-0.3-0.1l0,0.2
		c-0.1,0.3-0.2,0.5-0.3,0.8c-0.1,0.3-0.1,0.5-0.2,0.8c-0.2,0.5-0.4,1-0.5,1.5c-0.1,0.4-0.2,0.7-0.3,1.1c-0.1,0.2-0.1,0.3-0.1,0.5
		c-0.1,0.2-0.1,0.4-0.2,0.6c-0.1,0.2-0.1,0.7-0.2,1c-0.1,0.3-0.2,0.8-0.3,1.2c-0.1,0.4-0.2,0.8-0.3,1.2c-0.1,0.4-0.2,0.7-0.3,1
		c-0.1,0.3-0.3,0.8-0.5,1.2c-0.2,0.4-0.3,1-0.5,1.5c-0.3,0.9-0.5,1.8-0.8,2.6c-0.2,0.5-0.3,0.9-0.5,1.4c-0.2,0.5-0.3,0.9-0.4,1.3
		c-0.1,0.4-0.2,0.9-0.3,1.3c0,0.2-0.1,0.4-0.1,0.6c0,0.3-0.1,0.5-0.2,0.7c-0.1,0.4-0.2,0.8-0.3,1.2c-0.1,0.2-0.1,0.4-0.1,0.7
		c0,0.2-0.1,0.4-0.1,0.7c-0.2,0.9-0.3,1.9-0.5,2.8c-0.2,0.9-0.4,1.7-0.5,2.6c-0.1,0.4-0.1,0.8-0.2,1.2s-0.1,0.9-0.2,1.4
		c-0.1,0.5-0.1,0.8-0.2,1.3c-0.1,0.4-0.1,0.9-0.2,1.3v-0.2c-0.1,0.8-0.2,1.7-0.3,2.6s-0.3,1.7-0.4,2.6c-0.1,0.4-0.1,0.8-0.2,1.2
		c-0.1,0.5-0.1,1.1-0.1,1.6c0,0.5,0,0.9,0,1.4c0,0.2,0,0.5,0,0.7c0,0.3,0.1,0.5,0.1,0.8c0,0.5,0,0.9,0,1.4c0,0.3,0,0.5,0,0.8
		c0,0.3,0,0.5,0,0.8c0,0.3,0,0.7,0,1.1c0,0.4,0,0.4,0,0.7c0,0.2,0,0.3,0,0.5c0,0.4-0.1,0.8-0.1,1.1c0,0.4,0,0.9,0.1,1.3
		c0,0.5,0.1,0.9,0.2,1.3c0.1,0.3,0.2,0.7,0.2,1l0,0c0.1,0.4,0.2,0.9,0.3,1.3s0.2,0.7,0.3,1c0,0.2,0,0.3,0.1,0.5
		c0,0.2,0.1,0.4,0.2,0.6l0.2,0.4c0.1,0.1,0.2,0.3,0.3,0.4l0.2,0.2c0.1,0.1,0.2,0.1,0.3,0.2c0.1,0,0.2,0.1,0.2,0.1h0.1
		c0.1,0,0.3,0.1,0.4,0.1c0.1,0,0.2,0,0.2,0c0.1,0,0.2,0.1,0.3,0.1c0.1,0,0.3,0,0.4,0.1c0.2,0,0.4,0,0.6,0l0.4-0.1h0.1h0.3
		c0.1,0,0.2,0,0.3,0h0.2l0.2-0.1l0,0c0.1,0,0.3,0,0.4,0h0.3h0.1h0.2c0.1,0,0.3,0.1,0.4,0.1l0.3,0.1c0.2,0.1,0.5,0.1,0.7,0
		c0.2,0,0.3,0,0.5,0h0.2h0.2h0.1c0.2,0,0.3,0.1,0.5,0.1c0.1,0,0.2,0,0.4,0h0.3c0.2,0,0.4,0,0.7,0c0.3,0,0.5-0.1,0.8-0.2
		c0.2,0,0.3,0,0.5,0c0.2,0,0.3,0,0.5-0.1l0.2-0.1h0.2h0.3l0.3,0.1c0.1,0,0.3,0,0.4,0c0.1,0,0.2,0,0.3,0h0.5c0,0.2,0,0.3,0.1,0.5V100
		c0,0.3,0.1,0.6,0.1,0.9c0,0.4,0,0.8,0,1.2c0,0.4,0,0.9,0,1.3s0,1,0,1.5c0,0.5,0,0.9,0,1.4c0,0.5,0.1,0.9,0.1,1.4
		c0,0.5,0,0.9,0.1,1.3c0.1,0.4,0.1,0.9,0,1.4s0,0.8,0,1.2l0.1,0.7c0,0.2,0,0.5,0,0.7c0,0.5,0.1,1,0.1,1.5c0,0.5,0.1,1,0.1,1.5
		c0,0.5,0.1,0.9,0.1,1.4c0.1,0.5,0.1,0.9,0.2,1.4s0.1,0.9,0.1,1.3s0.1,0.8,0.1,1.1c0,0.2,0,0.3,0,0.5c0,0.2,0,0.4,0.1,0.7
		c0.1,0.3,0.1,0.7,0.2,1c0.1,0.4,0.1,0.9,0.1,1.3c0,0.4,0,0.8,0.1,1.2c0,0.2,0.1,0.4,0.1,0.6c0,0.3,0,0.6,0,0.8c0,0.5,0,0.9,0,1.4
		c0,0.2,0.1,0.5,0.1,0.7c0,0.3,0,0.5,0,0.8c0,0.5,0.1,1,0.1,1.5c0.1,0.9,0.3,1.8,0.4,2.8c0.1,0.5,0.1,1.1,0.2,1.6l0,0
		c0,0,0,0.1,0,0.1l0,0c0,0.2,0.1,0.5,0.1,0.7c0.1,0.6,0.2,1.2,0.3,1.8c0.1,0.2,0.2,0.5,0.3,0.7c0.1,0.2,0.3,0.5,0.4,0.8
		c0.1,0.3,0.2,0.4,0.2,0.6c0.1,0.2,0.3,0.3,0.5,0.3c0.2-0.1,0.3-0.3,0.3-0.5c0,0,0,0,0,0l-0.3-0.7c-0.1-0.2-0.1-0.3-0.2-0.5
		c-0.1-0.5-0.1-1.1-0.1-1.6c0-0.3,0-0.6-0.1-0.9s-0.1-0.7-0.1-1c0-0.3-0.1-0.6-0.1-1c0-0.3-0.1-0.6-0.1-1c-0.1-0.7-0.2-1.4-0.3-2.2
		v0.2c-0.1-0.6-0.1-1.2-0.2-1.8c0-0.3,0-0.6,0-0.9c0-0.3-0.1-0.7-0.1-1c-0.1-0.4-0.1-0.9-0.1-1.3c0-0.2,0-0.5,0-0.7
		c0-0.2-0.1-0.4-0.1-0.6c-0.1-0.8,0-1.7-0.1-2.5c-0.1-0.4-0.1-0.9-0.2-1.3c0-0.4,0-0.8,0-1.2s-0.1-0.8-0.1-1.1c0-0.4,0-1-0.1-1.5
		c-0.1-0.5,0-0.8-0.1-1.2c-0.1-0.4-0.1-1-0.1-1.5s-0.1-1-0.1-1.5l-0.1-0.8c0-0.2,0-0.5,0-0.7c0-0.4-0.1-0.9-0.1-1.3
		c0-0.4,0-0.9,0-1.3l-0.1-1.4c0-0.2,0-0.4,0-0.6s-0.1-0.5-0.1-0.7c0-0.5-0.1-0.9-0.1-1.4s0-0.9,0-1.4s0-0.9,0-1.4
		c0-0.5,0-0.8-0.1-1.3c0-0.2,0-0.4-0.1-0.6c-0.1-0.2,0-0.3,0-0.4s0-0.5,0-0.8c0-0.3-0.1-0.6-0.3-0.9c-0.1-0.2-0.3-0.4-0.5-0.5
		c-0.2-0.1-0.5-0.1-0.7-0.1h-0.3c-0.1,0-0.3,0-0.4,0l-0.3-0.1c-0.2,0-0.4,0-0.6,0c-0.1,0-0.2,0-0.3,0c-0.1,0-0.2,0-0.4,0
		c-0.3,0-0.5,0-0.8,0.1c-0.3,0-0.5,0.1-0.8,0.2h-0.7c-0.2,0-0.4,0-0.6,0c-0.2,0-0.4-0.1-0.6-0.1h-0.2h-0.2c-0.3,0-0.5,0-0.8,0.1l0,0
		h-0.1c-0.1,0-0.1,0-0.2,0H171c-0.1,0-0.2,0-0.4,0h-0.4c-0.1,0-0.3,0-0.4,0.1h-0.1c-0.2,0-0.3,0-0.5,0c-0.1,0-0.3,0.1-0.4,0.1h-0.1
		c-0.2,0-0.3,0-0.5,0c-0.1,0-0.2,0-0.3,0h-0.1c-0.1,0-0.2,0-0.3-0.1h-0.1c-0.1,0-0.3,0-0.4-0.1c-0.2-0.1-0.5-0.1-0.7,0l0,0
		c-0.1-0.1-0.1-0.2-0.2-0.3c0-0.1-0.1-0.2-0.1-0.3c0-0.1,0-0.2,0-0.3c0,0,0,0.1,0,0.1v-0.1l0,0l0,0l0,0l0,0
		c-0.1-0.7-0.3-1.3-0.4-1.9v-0.2l0,0c0-0.2-0.1-0.5-0.2-0.7c-0.1-0.2-0.1-0.5-0.2-0.8c-0.1-0.4-0.1-0.8-0.2-1.3c0-0.4,0-0.8,0-1.3
		c0-0.2,0-0.4,0-0.6c0-0.2,0-0.4,0-0.6v-1.5c0-0.5,0-0.9,0-1.4s0-0.9,0-1.4c0-0.5,0-0.9,0-1.4s0-1,0-1.4s0-0.9,0.1-1.3
		c0.1-0.4,0.1-0.8,0.1-1.2v-0.4c0.1-0.4,0.1-0.9,0.2-1.3c0-0.2,0.1-0.4,0.1-0.6c0-0.2,0-0.4,0.1-0.6c0.1-0.8,0.3-1.6,0.4-2.4
		c0.1-0.4,0.1-0.9,0.2-1.3c0.1-0.5,0.2-0.9,0.3-1.4c0.1-0.8,0.2-1.7,0.4-2.5s0.4-1.7,0.5-2.6c0.1-0.5,0.2-0.9,0.2-1.4
		c0.1-0.5,0.1-0.9,0.2-1.4c0-0.2,0.1-0.4,0.1-0.6c0-0.3,0.1-0.5,0.2-0.8c0.1-0.4,0.2-0.8,0.3-1.2c0.1-0.4,0.1-0.9,0.2-1.3
		c0.1-0.4,0.2-0.9,0.3-1.3c0.1-0.4,0.2-0.8,0.3-1.2c0.1-0.4,0.3-1,0.4-1.5c0.1-0.5,0.2-0.9,0.3-1.3s0.3-0.9,0.4-1.3
		c0.1-0.4,0.3-0.9,0.4-1.4c0.2-0.5,0.3-0.9,0.5-1.3c0.1-0.4,0.3-1,0.4-1.4s0.2-1,0.4-1.4c0.1-0.5,0.2-0.8,0.3-1.3
		c0.1-0.2,0.1-0.5,0.2-0.7c0-0.2,0.1-0.5,0.2-0.7c0.1-0.3,0.2-0.7,0.3-1c0.1-0.3,0.1-0.5,0.2-0.7c0-0.1,0.1-0.2,0.2-0.3
		c0.1-0.2,0.1-0.3,0.2-0.5l0.2-0.5c0.1-0.1,0.1-0.3,0.2-0.4c0.1-0.2,0.2-0.4,0.3-0.7l0.1-0.3h-0.2L174.1,41.2z M168.5,98.2
		L168.5,98.2z"/>
	<polygon class="st4" points="165.5,94.8 165.5,94.8 165.5,94.8 165.5,94.8 	"/>
	<polygon class="st4" points="163.9,95.1 163.9,95.1 163.9,95.1 163.9,95.1 	"/>
	<path class="st4" d="M165.9,97L165.9,97L165.9,97z"/>
	<path class="st4" d="M181.2,135.7L181.2,135.7z"/>
	<polygon class="st4" points="181.2,135.8 181.2,135.8 181.2,135.8 181.2,135.8 181.2,135.8 	"/>
	<polygon class="st4" points="181.2,135.8 181.2,135.8 181.2,135.8 181.2,135.8 	"/>
	<polygon class="st4" points="181.2,135.8 181.2,135.8 181.2,135.8 181.2,135.8 181.2,135.8 	"/>
	<path class="st5" d="M151.3,65.1c-0.2,0-0.5,0-0.7,0.1c-0.2,0-0.3,0.1-0.5,0.2c-0.1,0-0.2,0.1-0.3,0.1c-0.1,0.1-0.3,0.1-0.4,0.2
		c-0.2,0.2-0.4,0.4-0.5,0.6l-0.1,0.2c-0.2,0.1-0.3,0.3-0.3,0.5c0,0.1,0,0.2,0,0.3s-0.1,0.4-0.1,0.6l0,0c0,0.2-0.1,0.3-0.1,0.5
		c-0.1,0.3-0.1,0.6-0.2,0.9s0,0.4,0,0.6c0,0.2,0,0.3,0,0.5c0,0.3,0,0.5,0,0.8c0-0.1,0-0.2,0-0.3c0,0.2,0,0.5,0.1,0.7
		c0-0.1,0-0.1,0-0.2c0,0.1,0,0.3,0,0.4V72c0,0.1,0,0.3,0,0.4c0,0.1,0,0.2,0,0.3c0,0.2,0,0.4,0,0.5c0,0.1,0,0.2,0,0.3
		c0,0.2,0,0.4,0,0.5c0,0.3,0,0.6,0,0.9V75c0,0.1,0,0.1,0,0.1l0,0c0,0.1,0,0.3,0.1,0.4c0,0.2,0.1,0.3,0.1,0.5s0.1,0.4,0.2,0.6
		c0,0.1,0.1,0.2,0.2,0.3l0,0c0.1,0.1,0.1,0.2,0.2,0.3c0.1,0.1,0.2,0.3,0.3,0.4c0.2,0.2,0.4,0.4,0.6,0.5h-0.1
		c0.2,0.1,0.4,0.2,0.5,0.2c0.2,0,0.4,0.1,0.5,0.1c0.2,0,0.3,0,0.5-0.1h0.2h0.2c0.1,0,0.2-0.1,0.3-0.1c0.2-0.1,0.3-0.1,0.4-0.2
		c0.3-0.2,0.5-0.4,0.7-0.7c0.3-0.5,0.4-1,0.5-1.6c0-0.2,0-0.4,0.1-0.6c0.1-0.2,0-0.4,0-0.6s0-0.4,0-0.6s0-0.2,0-0.4s0-0.3,0-0.4
		c0-0.4,0-0.7,0-1.1c0-0.2,0-0.4,0-0.6c0-0.2,0-0.5,0-0.7V71c0-0.2,0-0.5,0-0.7c0-0.2,0-0.4,0-0.6c0-0.2,0-0.4,0-0.6
		c0-0.2,0-0.5,0-0.8c0-0.1,0-0.1,0-0.2c0-0.5-0.1-0.9-0.2-1.4c0-0.2-0.1-0.3-0.2-0.5c-0.1-0.2-0.2-0.3-0.3-0.4l-0.2-0.2
		c-0.2-0.2-0.3-0.3-0.6-0.3h-0.1l-0.3-0.1c-0.1,0-0.3-0.1-0.4-0.1h-0.1H151L151.3,65.1z M148.3,68.5L148.3,68.5z"/>
	<path class="st5" d="M197.4,64.9c-0.2,0.1-0.4,0.2-0.6,0.3c-0.2,0.1-0.3,0.2-0.5,0.3c-0.1,0.1-0.3,0.3-0.4,0.4
		c-0.2,0.2-0.3,0.5-0.4,0.8c-0.1,0.2-0.1,0.4-0.2,0.6c-0.1,0.5-0.1,1-0.1,1.6c0,0.6,0.1,1.2,0.2,1.8c0,0.4,0.1,0.8,0.1,1.2
		c0,0.2,0,0.3,0.1,0.5c0.1,0.2,0,0.3,0,0.5c0,0.3,0,0.6,0,0.9c0,0.3,0,0.6,0,1s0,0.6,0.1,0.9c0,0.3,0.1,0.6,0.3,0.8
		c0.1,0.3,0.3,0.5,0.5,0.7c0.2,0.2,0.4,0.4,0.7,0.5l0,0c0.2,0.1,0.5,0.2,0.7,0.3l0.4,0.1c0.1,0,0.3,0,0.4,0c0.2,0,0.5-0.1,0.7-0.2
		c0.2-0.1,0.4-0.2,0.6-0.4c0.2-0.2,0.4-0.4,0.6-0.7c0.1-0.3,0.3-0.5,0.4-0.8c0.1-0.5,0.2-1.1,0.2-1.6l0.1-0.5c0,0.1,0,0.2,0,0.2
		c0-0.3,0.1-0.5,0.1-0.8v0l0,0l0,0v-0.1v-0.1c0-0.2,0.1-0.5,0.1-0.7c0-0.2,0-0.5,0.1-0.8c0-0.5,0-1,0-1.5l0,0c0-0.4-0.1-0.8-0.1-1.1
		s-0.1-0.7-0.2-1c-0.1-0.3-0.1-0.7-0.2-1c-0.1-0.3-0.1-0.6-0.2-0.9c-0.1-0.4-0.3-0.7-0.5-1c-0.3-0.3-0.6-0.5-1-0.6
		c-0.3-0.1-0.6-0.1-0.9-0.1h-0.1C198.1,64.7,197.7,64.8,197.4,64.9L197.4,64.9z M201.5,73.4v0.1l0,0V73.4L201.5,73.4z"/>
	<path class="st5" d="M147.8,65.3c-0.1,0-0.1,0.1-0.2,0.2c0,0.1,0,0.2,0,0.2c0.1,0.1,0.1,0.2,0.2,0.3l0.2,0.2
		c0.1,0.1,0.2,0.3,0.3,0.4l0.2,0.2l0.2,0.2c0.1,0.2,0.3,0.3,0.4,0.4c0.1,0.1,0.2,0.2,0.3,0.1c0.1-0.1,0.2-0.2,0.1-0.3
		c0,0,0,0-0.1-0.1c-0.1-0.1-0.3-0.3-0.4-0.4c-0.1-0.1-0.2-0.3-0.3-0.4s-0.2-0.3-0.3-0.4l-0.2-0.3c-0.1-0.1-0.1-0.2-0.2-0.3
		c-0.1-0.1-0.1-0.1-0.2-0.1L147.8,65.3z"/>
	<path class="st5" d="M149.4,64c-0.1,0-0.1,0.1-0.1,0.2c0,0.1,0,0.2,0,0.2c0.1,0.3,0.3,0.7,0.4,1c0.1,0.2,0.2,0.3,0.3,0.5
		c0.1,0.2,0.2,0.3,0.3,0.5c0.1,0.1,0.2,0.2,0.4,0.1c0.1,0,0.1-0.1,0.1-0.1c0-0.1,0-0.1,0-0.2c-0.1-0.1-0.2-0.3-0.3-0.4
		c-0.1-0.2-0.1-0.3-0.2-0.4s-0.2-0.6-0.3-0.9l0,0l-0.1-0.4c-0.1-0.1-0.2-0.2-0.3-0.2C149.5,64,149.5,64,149.4,64L149.4,64z"/>
	<path class="st5" d="M151.9,63.3c-0.1,0-0.2,0.1-0.2,0.2c0,0.2-0.1,0.4-0.1,0.5c0,0.2,0,0.4-0.1,0.6s0,0.4-0.1,0.6
		c-0.1,0.2-0.1,0.4-0.1,0.6c0,0.1,0,0.1,0.1,0.2c0,0,0.1,0.1,0.2,0.1c0.1,0,0.1,0,0.2-0.1c0,0,0.1-0.1,0.1-0.2
		c0-0.2,0.1-0.5,0.1-0.7c0-0.2,0.1-0.5,0.1-0.7c0-0.2,0.1-0.3,0.1-0.5c0-0.2,0.1-0.3,0.1-0.5c0-0.1,0-0.1,0-0.2
		c0-0.1-0.1-0.1-0.2-0.1H152C152,63.3,152,63.3,151.9,63.3L151.9,63.3z"/>
	<path class="st5" d="M154.1,64.5c-0.1,0-0.1,0.1-0.1,0.1l-0.1,0.1l-0.1,0.1c0,0.1-0.1,0.1-0.1,0.2c-0.2,0.2-0.3,0.4-0.5,0.6
		c-0.2,0.2-0.4,0.5-0.5,0.7c-0.1,0.1-0.1,0.3,0.1,0.4c0,0,0,0,0,0c0.1,0.1,0.3,0.1,0.4-0.1c0,0,0,0,0,0c0.1-0.2,0.2-0.3,0.4-0.5
		c0.1-0.2,0.3-0.3,0.4-0.4l0.3-0.3c0.1-0.1,0.1-0.2,0.2-0.3l0,0c0.1-0.1,0.1-0.3,0.1-0.4c-0.1-0.1-0.2-0.2-0.3-0.2
		C154.2,64.5,154.1,64.5,154.1,64.5L154.1,64.5z"/>
	<path class="st5" d="M155,66.2c-0.2,0.1-0.3,0.1-0.5,0.2c-0.1,0.1-0.3,0.2-0.4,0.2c-0.2,0.1-0.4,0.1-0.6,0.2
		c-0.2,0-0.2,0.2-0.2,0.4c0,0,0,0,0,0c0,0.1,0.2,0.2,0.3,0.2c0.3-0.1,0.6-0.1,0.8-0.2c0.1-0.1,0.2-0.1,0.4-0.2
		c0.1-0.1,0.2-0.1,0.4-0.2c0.1-0.1,0.2-0.2,0.2-0.3C155.3,66.3,155.2,66.2,155,66.2L155,66.2z"/>
	<path class="st5" d="M195.2,64.5c-0.1,0.1-0.2,0.1-0.2,0.2c0,0.1,0,0.2,0,0.3c0,0.1,0.1,0.2,0.2,0.3l0.2,0.2
		c0.1,0.1,0.2,0.2,0.3,0.3l0.8,0.7c0.1,0.1,0.2,0.1,0.3,0.1c0.2,0,0.4-0.1,0.4-0.3c0,0,0,0,0,0c0-0.1,0-0.2-0.1-0.3
		c-0.4-0.3-0.7-0.7-1-1.1c-0.1-0.1-0.2-0.3-0.3-0.4c-0.1-0.1-0.2-0.1-0.3-0.1C195.3,64.5,195.2,64.5,195.2,64.5L195.2,64.5z"/>
	<path class="st5" d="M196.8,63c-0.2,0-0.3,0.2-0.3,0.3c0,0.2,0.1,0.4,0.1,0.6c0.1,0.2,0.1,0.4,0.2,0.6s0.1,0.4,0.2,0.6
		c0.1,0.2,0.2,0.4,0.3,0.6c0.1,0.2,0.3,0.2,0.5,0.1c0.2-0.1,0.2-0.3,0.1-0.4c-0.1-0.1-0.1-0.3-0.2-0.4c0-0.1-0.1-0.2-0.1-0.3
		c0-0.1-0.2-0.5-0.2-0.7c0-0.1-0.1-0.2-0.1-0.3c0-0.2-0.1-0.3-0.1-0.4C197.2,63.1,197,63,196.8,63L196.8,63L196.8,63z"/>
	<path class="st5" d="M198.8,62.8c-0.1,0.2-0.1,0.4-0.1,0.6c0,0.2,0,0.3,0,0.5c0,0.4,0,0.7-0.1,1.1c0,0.2,0.1,0.3,0.3,0.4
		c0.2,0,0.3-0.1,0.4-0.3l0,0c0-0.4,0-0.7,0.1-1.1l0.1-0.5c0-0.1,0-0.2,0-0.2s0-0.2,0-0.3c0-0.1-0.1-0.3-0.2-0.3h-0.1
		C199,62.6,198.9,62.7,198.8,62.8L198.8,62.8z"/>
	<path class="st5" d="M200.9,64.3l-0.2,0.3c0,0.1-0.1,0.2-0.2,0.2c-0.1,0.1-0.2,0.2-0.3,0.3l-0.3,0.3h0.1l-0.4,0.2
		c-0.1,0-0.1,0.1-0.1,0.2c0,0.1,0,0.1,0,0.2c0.1,0.1,0.2,0.2,0.3,0.1c0,0,0,0,0,0l0,0c0.3-0.2,0.6-0.4,0.9-0.6
		c0.3-0.2,0.5-0.5,0.7-0.8c0.1-0.1,0-0.3-0.1-0.4C201.2,64.2,201,64.2,200.9,64.3L200.9,64.3z"/>
	<path class="st5" d="M202,65.6l-0.3,0.2l-0.3,0.2l-0.6,0.4c-0.1,0-0.2,0.1-0.2,0.2c0,0.1,0,0.2,0,0.3c0,0.1,0.1,0.2,0.2,0.2
		c0.1,0,0.2,0,0.3,0c0.2-0.1,0.4-0.3,0.6-0.4l0.3-0.2c0.1-0.1,0.3-0.1,0.4-0.2c0.1-0.1,0.1-0.3,0.1-0.4c-0.1-0.1-0.2-0.2-0.3-0.2
		C202.1,65.6,202,65.6,202,65.6L202,65.6z"/>
	<path class="st5" d="M143.9,102.4c-0.1,0-0.2,0-0.4,0.1c-0.4,0-0.7,0.2-1,0.4l-0.2,0.2c-0.2,0.1-0.3,0.3-0.4,0.4
		c-0.1,0.1-0.2,0.3-0.3,0.5c-0.1,0.2-0.2,0.4-0.2,0.6c0,0.2-0.1,0.4-0.1,0.6c0,0.2,0,0.4,0,0.7c0,0.3,0.1,0.5,0.2,0.8
		c0.1,0.2,0.1,0.3,0.2,0.4c0.1,0.3,0.3,0.6,0.5,0.9c0.2,0.4,0.5,0.7,0.7,1.1c0.2,0.4,0.4,0.7,0.7,1c0.6,0.7,1.3,1.3,2,1.9l1,0.9
		c0.4,0.3,0.7,0.6,1.1,0.9c0.5,0.3,1,0.6,1.5,0.9c0.4,0.2,0.8,0.5,1.2,0.7l1.2,0.6c0.4,0.2,0.7,0.4,1.1,0.6s0.8,0.3,1.2,0.5l1.3,0.5
		c0.9,0.3,1.8,0.7,2.6,0.9c0.3,0.1,0.6,0.2,0.9,0.3l0.6,0.1c0.4,0.1,0.9,0.2,1.3,0.3s0.9,0.2,1.3,0.2c0.4,0.1,0.7,0.2,1.1,0.3
		c0.3,0.1,0.7,0.2,1,0.3c0.3,0.1,0.7,0.1,1,0.1l0.8,0.1c0.5,0.1,1,0.1,1.5,0.1h-0.4h0.5c0.9,0.1,1.9,0.2,2.8,0.3
		c1,0.1,2.1,0.2,3.2,0.2c0.5,0,1.1-0.1,1.6-0.1s0.9,0,1.4-0.1s1-0.1,1.6-0.2s0.9,0,1.4,0h0.5c0.5,0,0.9,0,1.4,0
		c0.8-0.1,1.6-0.2,2.5-0.4c0.6-0.2,1.3-0.4,1.9-0.5c0.6-0.1,1.2-0.3,1.8-0.4c0.9-0.2,1.8-0.4,2.7-0.6c0.9-0.2,1.6-0.4,2.4-0.6
		c0.8-0.3,1.4-0.5,2.2-0.8c0.4-0.2,0.8-0.3,1.2-0.5c0.4-0.2,0.8-0.4,1.2-0.6c0.4-0.2,0.8-0.4,1.2-0.5c0.4-0.2,0.6-0.3,0.9-0.5
		l0.6-0.4c0.4-0.2,0.8-0.5,1.2-0.7c0.4-0.3,0.9-0.6,1.4-0.9c0.4-0.2,0.7-0.5,1-0.8c0.4-0.3,0.8-0.6,1.3-1c0.8-0.7,1.6-1.4,2.4-2.2
		c0.2-0.2,0.3-0.4,0.5-0.7c0.3-0.4,0.5-0.8,0.8-1.2c0.2-0.4,0.3-0.8,0.3-1.2l0.1-0.4c0.1-0.8-0.2-1.6-0.8-2.2
		c-0.4-0.4-1-0.6-1.6-0.5h-0.3c-0.2,0-0.5,0.1-0.7,0.2c-0.6,0.2-1.2,0.5-1.8,0.9c-0.4,0.3-0.8,0.7-1.1,1c-0.1,0.1-0.3,0.3-0.4,0.4
		c-0.2,0.2-0.3,0.5-0.5,0.7c-0.1,0.2-0.2,0.3-0.3,0.5l-0.3,0.2c-0.2,0.1-0.3,0.3-0.5,0.5c-0.4,0.3-0.8,0.7-1.2,1
		c-0.4,0.3-1,0.8-1.5,1.1c-0.5,0.4-1,0.7-1.5,1c-0.3,0.2-0.5,0.4-0.8,0.6c-0.3,0.2-0.6,0.3-0.9,0.5l0.1-0.1l-1,0.5
		c-0.5,0.2-1,0.5-1.6,0.7c-0.6,0.2-1.2,0.5-1.8,0.7c-0.6,0.2-1.1,0.4-1.7,0.5l-1,0.3c-0.3,0.1-0.7,0.2-1.1,0.3l-1.3,0.2
		c-0.5,0.1-1,0.1-1.5,0.2c-1,0.1-2,0.3-3.1,0.4c-1,0.1-2,0.3-3,0.4c-0.5,0.1-1,0-1.5,0s-0.9,0-1.4,0h-1.2H172
		c-0.8-0.1-1.7-0.1-2.5-0.2s-1.7-0.3-2.5-0.4c-0.4-0.1-0.9-0.2-1.3-0.3c-0.4-0.1-0.9-0.2-1.4-0.3c-0.8-0.2-1.7-0.4-2.5-0.6
		c-0.5-0.2-1.1-0.4-1.6-0.6l-0.9-0.3l-0.9-0.4c-0.6-0.3-1.2-0.5-1.7-0.8c-0.3-0.2-0.6-0.3-0.9-0.5l-0.7-0.4l-1.1-0.7l0.3,0.2
		l-0.5-0.4c-0.5-0.3-0.9-0.6-1.4-1c-0.2-0.2-0.4-0.3-0.6-0.5c-0.2-0.2-0.3-0.3-0.5-0.5c-0.2-0.2-0.3-0.3-0.5-0.5s-0.4-0.4-0.6-0.5
		c-0.2-0.2-0.3-0.3-0.5-0.5l-0.5-0.4c-0.1-0.1-0.2-0.3-0.4-0.4l-0.3-0.3c-0.1-0.1-0.2-0.2-0.3-0.3l-0.4-0.3
		c-0.3-0.2-0.5-0.5-0.7-0.7c-0.3-0.3-0.7-0.5-1.1-0.8c-0.3-0.2-0.7-0.3-1-0.4c-0.3-0.1-0.7-0.1-1-0.1L143.9,102.4L143.9,102.4z
		 M153.5,109.3L153.5,109.3L153.5,109.3z"/>
	<path class="st6" d="M263.2,62.2c0-0.7,0.2-1.4,0.6-2c0.5-0.5,1.1-0.7,1.8-0.7v1c-0.3,0-0.6,0.1-0.8,0.3c-0.2,0.3-0.3,0.6-0.3,1
		v0.4h1.2v2.1h-2.2C263.3,63.6,263.2,62.9,263.2,62.2z M266.5,62.2c0-0.7,0.2-1.4,0.6-2c0.5-0.5,1.1-0.7,1.8-0.7v1
		c-0.7,0-1,0.4-1,1.3v0.4h1.2v2.1h-2.2C266.6,63.6,266.5,62.9,266.5,62.2z"/>
	<path class="st6" d="M283.4,73.2c-0.6,1.1-1.5,2.1-2.7,2.7c-1.3,0.7-2.8,1-4.3,0.9h-5.1V61.6h5.1c1.5-0.1,2.9,0.3,4.3,0.9
		c1.1,0.6,2.1,1.5,2.7,2.6C284.6,67.6,284.6,70.6,283.4,73.2L283.4,73.2z M280.4,73.2c1-1.1,1.5-2.5,1.5-4c0.1-1.5-0.4-2.9-1.5-4
		c-1.1-1-2.6-1.6-4.1-1.5h-2.4v10.8h2.4C277.7,74.6,279.2,74.1,280.4,73.2L280.4,73.2z"/>
	<path class="st6" d="M297.7,71.3h-9.1c0,1,0.3,2,1,2.7c0.6,0.6,1.5,0.9,2.3,0.9c0.7,0,1.5-0.2,2.1-0.6c0.5-0.4,0.9-1,1-1.6h2.6
		c-0.1,0.8-0.5,1.6-1,2.2c-0.5,0.7-1.2,1.2-2,1.5c-0.8,0.4-1.8,0.6-2.7,0.5c-1.1,0-2.1-0.2-3-0.7c-0.9-0.5-1.6-1.2-2.1-2.1
		c-1-2-1-4.4,0-6.5c0.5-0.9,1.2-1.6,2.1-2.1c1.9-1,4.2-1,6.1,0c0.8,0.5,1.5,1.1,2,2c0.5,0.9,0.7,1.8,0.7,2.8
		C297.8,70.6,297.8,71,297.7,71.3z M294.9,68.3c-0.3-0.5-0.7-0.9-1.2-1.2c-0.5-0.3-1.1-0.4-1.7-0.4c-0.9,0-1.7,0.3-2.4,0.9
		c-0.7,0.7-1.1,1.6-1,2.6h6.7C295.4,69.5,295.2,68.9,294.9,68.3z"/>
	<path class="st6" d="M307.4,65.8c0.8,0.7,1.4,1.7,1.5,2.8h-2.3c-0.1-0.6-0.4-1.2-0.8-1.6c-0.5-0.4-1.1-0.6-1.8-0.6
		c-0.5,0-1,0.1-1.4,0.4c-0.3,0.3-0.5,0.7-0.5,1.2c0,0.3,0.1,0.7,0.4,0.9c0.3,0.2,0.6,0.4,0.9,0.5c0.4,0.1,0.9,0.3,1.6,0.4
		c0.7,0.2,1.5,0.4,2.2,0.6c0.6,0.2,1,0.6,1.4,1c0.4,0.5,0.6,1.2,0.6,1.9c0,0.9-0.4,1.8-1.1,2.4c-0.9,0.6-2,1-3,0.9
		c-1.3,0.1-2.5-0.3-3.6-1c-0.9-0.7-1.5-1.7-1.6-2.9h2.4c0.1,0.6,0.4,1.2,0.9,1.6c0.6,0.4,1.3,0.6,2,0.6c0.5,0,1-0.1,1.4-0.5
		c0.3-0.3,0.5-0.7,0.5-1.2c0-0.4-0.1-0.7-0.4-1c-0.3-0.3-0.6-0.5-1-0.6c-0.5-0.2-1.1-0.3-1.6-0.4c-0.7-0.2-1.4-0.4-2.1-0.6
		c-0.5-0.2-1-0.5-1.4-0.9c-0.4-0.5-0.6-1.2-0.6-1.8c0-0.9,0.4-1.8,1.1-2.4c0.9-0.7,2-1,3.1-0.9C305.2,64.8,306.4,65.1,307.4,65.8z"
		/>
	<path class="st6" d="M311.6,60.5c0.3-0.3,0.7-0.4,1.1-0.4c0.4,0,0.8,0.1,1.1,0.4c0.3,0.3,0.5,0.6,0.4,1c0,0.4-0.1,0.8-0.4,1
		c-0.3,0.3-0.7,0.4-1.1,0.4c-0.4,0-0.8-0.1-1.1-0.4c-0.3-0.2-0.5-0.6-0.5-1C311.1,61.1,311.3,60.7,311.6,60.5z M313.9,64.9v11.8
		h-2.5V64.9L313.9,64.9z"/>
	<path class="st6" d="M324.4,65.6c0.7,0.5,1.3,1.2,1.6,2.1v-2.7h2.5v11.9c0,1-0.2,2-0.7,2.9c-0.4,0.8-1.1,1.5-1.9,2
		c-0.9,0.5-2,0.8-3,0.7c-1.4,0.1-2.9-0.3-4-1.2c-1-0.8-1.7-1.9-1.9-3.2h2.4c0.2,0.7,0.6,1.3,1.2,1.7c0.7,0.4,1.4,0.6,2.2,0.6
		c0.9,0,1.8-0.3,2.4-0.9c0.7-0.7,1-1.7,0.9-2.6V74c-0.3,0.9-0.9,1.6-1.6,2.1c-0.8,0.5-1.8,0.8-2.7,0.8c-1,0-1.9-0.2-2.8-0.7
		c-0.8-0.5-1.5-1.2-1.9-2.1c-0.9-2.1-0.9-4.4,0-6.5c0.4-0.9,1.1-1.6,1.9-2.1c0.8-0.5,1.8-0.7,2.8-0.7
		C322.6,64.8,323.6,65,324.4,65.6z M319.8,68c-1.3,1.7-1.3,4,0,5.7c0.7,0.7,1.6,1.1,2.6,1c0.6,0,1.3-0.2,1.9-0.5
		c0.5-0.3,1-0.8,1.3-1.4c0.3-0.6,0.5-1.3,0.5-2.1c0-0.7-0.1-1.4-0.5-2.1c-0.3-0.6-0.7-1-1.3-1.4c-0.6-0.3-1.2-0.5-1.9-0.5
		C321.4,66.9,320.5,67.3,319.8,68L319.8,68z"/>
	<path class="st6" d="M341.3,66.1c0.9,1.1,1.3,2.4,1.2,3.8v6.9h-2.5v-6.6c0.1-0.9-0.2-1.8-0.8-2.5c-0.6-0.6-1.4-0.9-2.2-0.9
		c-0.9,0-1.7,0.3-2.3,0.9c-0.6,0.8-1,1.7-0.9,2.7v6.3h-2.4V64.9h2.4v2.6c0.3-0.8,0.8-1.6,1.6-2.1c0.8-0.5,1.7-0.8,2.6-0.7
		C339.2,64.7,340.4,65.2,341.3,66.1z"/>
	<path class="st6" d="M352.9,63.6v4.6h5.6v1.9h-5.6v4.7h6.3v2h-8.7V61.6h8.7v2H352.9z"/>
	<path class="st6" d="M363.9,60.9v15.9h-2.4V60.9H363.9z"/>
	<path class="st6" d="M367,60.5c0.3-0.3,0.7-0.4,1.1-0.4c0.4,0,0.8,0.1,1.2,0.4c0.3,0.3,0.4,0.6,0.4,1c0,0.4-0.1,0.8-0.4,1
		c-0.3,0.3-0.7,0.4-1.2,0.4c-0.4,0-0.8-0.1-1.1-0.4c-0.3-0.3-0.4-0.6-0.4-1C366.5,61.1,366.7,60.7,367,60.5z M369.3,64.9v11.8h-2.5
		V64.9L369.3,64.9z"/>
	<path class="st6" d="M379.3,76.8l-2.9-4.2l-2.5,4.2h-2.7l3.9-6.1l-3.9-5.7h2.8l2.8,4.1l2.5-4.1h2.7l-3.9,6l4.1,5.9L379.3,76.8z"/>
	<path class="st6" d="M383.8,60.5c0.3-0.3,0.7-0.4,1.1-0.4c0.4,0,0.8,0.1,1.1,0.4c0.3,0.3,0.5,0.6,0.4,1c0,0.4-0.1,0.8-0.4,1
		c-0.3,0.3-0.7,0.4-1.1,0.4c-0.4,0-0.8-0.1-1.1-0.4c-0.3-0.3-0.4-0.6-0.4-1C383.4,61.1,383.5,60.7,383.8,60.5z M386.2,64.9v11.8
		h-2.4V64.9L386.2,64.9z"/>
	<path class="st6" d="M393.3,65.4c0.8-0.5,1.7-0.7,2.6-0.7v2.7h-0.7c-0.9,0-1.8,0.2-2.6,0.8c-0.7,0.7-1.1,1.6-1,2.6v6h-2.4V64.9h2.4
		v2.3C392,66.5,392.6,65.9,393.3,65.4z"/>
	<path class="st6" d="M413.6,62.4c1.1,0.7,2.1,1.6,2.7,2.8c1.3,2.5,1.3,5.5,0,8c-0.6,1.2-1.5,2.1-2.7,2.8c-2.4,1.3-5.3,1.3-7.6,0
		c-1.1-0.7-2.1-1.6-2.7-2.8c-1.3-2.5-1.3-5.5,0-8c0.6-1.1,1.6-2.1,2.7-2.8C408.3,61.1,411.2,61.1,413.6,62.4z M407.2,64.3
		c-0.8,0.4-1.4,1.1-1.8,1.9c-0.8,1.8-0.8,4,0,5.8c0.4,0.8,1,1.5,1.8,1.9c0.8,0.5,1.7,0.7,2.6,0.7c0.9,0,1.8-0.2,2.6-0.7
		c0.8-0.4,1.4-1.1,1.8-1.9c0.8-1.8,0.8-4,0-5.8c-0.4-0.8-1-1.5-1.8-1.9c-0.8-0.5-1.7-0.7-2.6-0.7C408.8,63.7,408,63.9,407.2,64.3z"
		/>
	<path class="st6" d="M429.6,66.1c0.9,1.1,1.3,2.4,1.3,3.8v6.9h-2.5v-6.6c0.1-0.9-0.2-1.8-0.8-2.5c-0.6-0.6-1.4-0.9-2.2-0.9
		c-0.9-0.1-1.7,0.3-2.3,0.9c-0.6,0.8-1,1.7-0.9,2.7v6.3h-2.4V64.9h2.4v2.6c0.3-0.8,0.8-1.6,1.6-2.1c0.8-0.5,1.7-0.8,2.6-0.7
		C427.5,64.7,428.8,65.2,429.6,66.1z"/>
	<path class="st6" d="M436.2,60.9v15.9h-2.4V60.9H436.2z"/>
	<path class="st6" d="M439.2,60.5c0.3-0.3,0.7-0.4,1.1-0.4c0.4,0,0.8,0.1,1.2,0.4c0.3,0.3,0.5,0.6,0.4,1c0,0.4-0.1,0.8-0.4,1
		c-0.3,0.3-0.7,0.4-1.2,0.4c-0.4,0-0.8-0.1-1.1-0.4c-0.3-0.3-0.4-0.6-0.4-1C438.8,61.1,438.9,60.7,439.2,60.5z M441.6,64.9v11.8
		h-2.4V64.9L441.6,64.9z"/>
	<path class="st6" d="M454.5,66.1c0.9,1.1,1.3,2.4,1.2,3.8v6.9h-2.4v-6.6c0.1-0.9-0.2-1.8-0.8-2.5c-0.6-0.6-1.4-0.9-2.2-0.9
		c-0.9,0-1.7,0.3-2.3,0.9c-0.6,0.8-1,1.7-0.9,2.7v6.3h-2.5V64.9h2.5v2.6c0.3-0.8,0.8-1.6,1.6-2.1c0.8-0.5,1.7-0.8,2.6-0.7
		C452.4,64.7,453.6,65.2,454.5,66.1z"/>
	<path class="st6" d="M469.5,71.3h-9.1c0,1,0.3,2,1,2.7c0.6,0.6,1.5,0.9,2.3,0.9c0.7,0,1.5-0.2,2.1-0.6c0.5-0.4,0.9-1,1-1.6h2.6
		c-0.1,0.8-0.5,1.6-1,2.2c-0.5,0.7-1.2,1.2-1.9,1.5c-0.8,0.4-1.8,0.6-2.7,0.5c-1.1,0-2.1-0.2-3-0.7c-0.9-0.5-1.6-1.2-2.1-2.1
		c-1-2-1-4.4,0-6.5c0.5-0.9,1.2-1.6,2.1-2.1c1.9-1,4.2-1,6.1,0c0.8,0.5,1.5,1.1,2,2c0.5,0.9,0.7,1.8,0.7,2.8
		C469.5,70.6,469.5,71,469.5,71.3z M466.7,68.3c-0.3-0.5-0.7-0.9-1.2-1.2c-0.5-0.3-1.1-0.4-1.7-0.4c-0.9,0-1.8,0.3-2.4,0.9
		c-0.7,0.7-1.1,1.6-1.1,2.6h6.7C467.1,69.5,467,68.9,466.7,68.3z"/>
	<path class="st6" d="M486.4,74.8c-0.4,0.7-1,1.2-1.6,1.5c-0.8,0.4-1.8,0.6-2.7,0.6c-0.9,0-1.9-0.2-2.8-0.5c-0.8-0.3-1.5-0.9-2-1.5
		c-0.5-0.7-0.8-1.5-0.8-2.3h2.6c0.1,0.6,0.4,1.2,0.8,1.7c0.5,0.5,1.3,0.7,2,0.7c0.6,0,1.3-0.2,1.7-0.6c0.4-0.4,0.6-1,0.6-1.5
		c0-0.5-0.1-1-0.5-1.3c-0.3-0.4-0.7-0.6-1.1-0.8c-0.4-0.2-1.1-0.4-1.8-0.7c-0.8-0.2-1.6-0.5-2.3-0.9c-0.6-0.3-1.1-0.8-1.5-1.3
		c-0.4-0.7-0.7-1.5-0.6-2.3c0-0.8,0.2-1.5,0.6-2.1c0.4-0.6,1-1.1,1.7-1.4c0.8-0.3,1.7-0.5,2.6-0.5c1.3-0.1,2.6,0.3,3.7,1.1
		c0.9,0.7,1.5,1.8,1.6,2.9h-2.7c-0.1-0.6-0.4-1.1-0.8-1.5c-1-0.8-2.4-0.8-3.4-0.1c-0.7,0.8-0.8,1.9-0.2,2.8c0.3,0.3,0.7,0.6,1.1,0.8
		c0.4,0.2,1,0.4,1.8,0.7c0.8,0.2,1.6,0.5,2.4,0.9c0.6,0.3,1.2,0.8,1.5,1.3c0.5,0.7,0.7,1.5,0.6,2.3
		C486.9,73.4,486.7,74.2,486.4,74.8z"/>
	<path class="st6" d="M495.3,74.6v2.1h-1.5c-1.9,0.3-3.6-1-3.9-2.8c-0.1-0.4-0.1-0.7,0-1.1V67h-1.7v-2.1h1.7V62h2.5v2.9h2.9V67h-2.9
		v5.8c-0.1,0.5,0.1,1,0.4,1.4c0.4,0.3,0.8,0.4,1.3,0.4H495.3z"/>
	<path class="st6" d="M506.1,65.5c0.9,0.5,1.7,1.2,2.1,2.1c1,2,1,4.4,0,6.5c-0.5,0.9-1.2,1.6-2.1,2.1c-1.9,1-4.2,1-6.2,0
		c-0.9-0.5-1.6-1.2-2.1-2.1c-0.5-1-0.8-2.1-0.8-3.2c0-1.1,0.2-2.2,0.8-3.2c0.5-0.9,1.2-1.6,2.1-2.1
		C501.9,64.6,504.1,64.6,506.1,65.5z M501.3,67.3c-0.5,0.3-1,0.8-1.3,1.3c-0.6,1.4-0.6,3,0,4.4c0.3,0.5,0.7,1,1.3,1.3
		c1.1,0.6,2.4,0.6,3.5,0c0.5-0.3,1-0.8,1.3-1.3c0.6-1.4,0.6-3,0-4.4c-0.3-0.6-0.7-1-1.3-1.3C503.6,66.7,502.3,66.7,501.3,67.3
		L501.3,67.3z"/>
	<path class="st6" d="M515.5,65.4c0.8-0.5,1.7-0.7,2.6-0.7v2.7h-0.7c-0.9,0-1.8,0.2-2.6,0.8c-0.7,0.7-1.1,1.6-1,2.6v6h-2.4V64.9h2.4
		v2.3C514.2,66.5,514.8,65.9,515.5,65.4z"/>
	<path class="st6" d="M530.8,71.3h-9.1c0,1,0.3,2,1,2.7c0.6,0.6,1.5,0.9,2.3,0.9c0.7,0,1.5-0.2,2.1-0.6c0.5-0.4,0.9-1,1-1.6h2.6
		c-0.3,1.7-1.4,3.1-2.9,3.7c-0.8,0.4-1.8,0.6-2.7,0.5c-1.1,0-2.1-0.2-3-0.7c-0.9-0.5-1.6-1.2-2.1-2.1c-1-2-1-4.4,0-6.5
		c0.5-0.9,1.2-1.6,2.1-2.1c1.9-1,4.2-1,6.1,0c0.8,0.4,1.5,1.1,2,1.9c0.5,0.9,0.7,1.8,0.7,2.8C530.9,70.6,530.9,71,530.8,71.3z
		 M528.1,68.3c-0.3-0.5-0.7-0.9-1.2-1.2c-0.5-0.3-1.1-0.4-1.7-0.4c-0.9,0-1.7,0.3-2.4,0.9c-0.7,0.7-1.1,1.6-1,2.6h6.7
		C528.5,69.5,528.4,68.9,528.1,68.3z"/>
	<path class="st6" d="M535.2,61.6c0,0.7-0.2,1.4-0.6,2c-0.5,0.5-1.1,0.7-1.8,0.7v-1c0.3,0,0.6-0.1,0.8-0.3c0.2-0.3,0.3-0.6,0.3-0.9
		v-0.5h-1.2v-2.1h2.2C535.1,60.2,535.2,60.9,535.2,61.6z M538.4,61.6c0.1,0.7-0.2,1.4-0.6,2c-0.5,0.5-1.1,0.7-1.8,0.7v-1
		c0.3,0,0.6-0.1,0.8-0.3c0.2-0.3,0.3-0.6,0.2-0.9v-0.5h-1.2v-2.1h2.2C538.3,60.2,538.4,60.9,538.4,61.6z"/>
	<path class="st6" d="M545.8,60.5c0.3-0.3,0.7-0.4,1.1-0.4c0.4,0,0.8,0.1,1.1,0.4c0.3,0.3,0.5,0.6,0.4,1c0,0.4-0.1,0.8-0.4,1
		c-0.3,0.3-0.7,0.4-1.1,0.4c-0.4,0-0.8-0.1-1.1-0.4c-0.3-0.3-0.4-0.6-0.4-1C545.4,61.1,545.6,60.7,545.8,60.5z M548.2,64.9v11.8
		h-2.4V64.9L548.2,64.9z"/>
	<path class="st6" d="M558.4,65.8c0.8,0.7,1.4,1.7,1.5,2.8h-2.3c-0.1-0.6-0.4-1.2-0.8-1.6c-0.5-0.4-1.1-0.6-1.8-0.6
		c-0.5,0-1,0.1-1.4,0.4c-0.3,0.3-0.5,0.7-0.5,1.2c0,0.3,0.1,0.7,0.4,0.9c0.3,0.2,0.6,0.4,0.9,0.5c0.4,0.1,0.9,0.3,1.6,0.4
		c0.7,0.2,1.5,0.4,2.2,0.6c0.5,0.2,1,0.6,1.4,1c0.4,0.5,0.6,1.2,0.6,1.9c0,0.9-0.4,1.8-1.1,2.4c-0.9,0.6-1.9,1-3,0.9
		c-1.3,0.1-2.5-0.3-3.6-1c-0.9-0.7-1.5-1.7-1.6-2.9h2.4c0.1,0.6,0.4,1.2,0.9,1.6c0.6,0.4,1.3,0.6,2,0.6c0.5,0,1-0.1,1.4-0.5
		c0.3-0.3,0.5-0.7,0.5-1.2c0-0.4-0.1-0.7-0.4-1c-0.3-0.3-0.6-0.5-1-0.6c-0.5-0.2-1.1-0.3-1.6-0.4c-0.7-0.2-1.4-0.4-2.1-0.6
		c-0.5-0.2-1-0.5-1.4-0.9c-0.4-0.5-0.6-1.2-0.6-1.8c0-0.9,0.4-1.8,1.1-2.4c0.9-0.7,2-1,3.1-0.9C556.3,64.7,557.4,65.1,558.4,65.8z"
		/>
	<path class="st6" d="M577.4,66.1c0.9,1.1,1.3,2.4,1.2,3.8v6.9h-2.4v-6.6c0.1-0.9-0.2-1.8-0.8-2.5c-0.6-0.6-1.4-0.9-2.2-0.9
		c-0.9,0-1.7,0.3-2.3,0.9c-0.6,0.8-1,1.7-0.9,2.7v6.3h-2.4V64.9h2.5v2.6c0.3-0.8,0.8-1.6,1.6-2.1c0.8-0.5,1.7-0.8,2.6-0.7
		C575.4,64.7,576.6,65.2,577.4,66.1z"/>
	<path class="st6" d="M590.1,65.5c0.9,0.5,1.6,1.2,2.1,2.1c1,2,1,4.4,0,6.5c-0.5,0.9-1.2,1.6-2.1,2.1c-1,0.5-2,0.8-3.1,0.7
		c-1.1,0-2.1-0.2-3.1-0.7c-0.9-0.5-1.7-1.2-2.1-2.1c-0.5-1-0.8-2.1-0.8-3.2c0-1.1,0.2-2.2,0.8-3.2c0.5-0.9,1.3-1.6,2.2-2.1
		c0.9-0.5,2-0.7,3.1-0.7C588,64.8,589.1,65,590.1,65.5z M585.2,67.3c-0.5,0.3-1,0.8-1.3,1.3c-0.6,1.4-0.6,3,0,4.4
		c0.3,0.5,0.7,1,1.3,1.3c1.1,0.6,2.4,0.6,3.5,0c0.5-0.3,1-0.8,1.3-1.3c0.6-1.4,0.6-3,0-4.4c-0.3-0.6-0.7-1-1.3-1.3
		C587.6,66.7,586.3,66.7,585.2,67.3z"/>
	<path class="st6" d="M601.3,74.6v2.1h-1.5c-1.8,0.3-3.6-1-3.9-2.8c-0.1-0.4-0.1-0.8,0-1.1V67h-1.7v-2.1h1.7V62h2.5v2.9h2.9V67h-2.9
		v5.8c-0.1,0.5,0.1,1,0.4,1.4c0.4,0.3,0.8,0.4,1.3,0.4H601.3z"/>
	<path class="st6" d="M616.1,65.6c0.7,0.5,1.3,1.2,1.6,2.1v-2.7h2.5v11.8h-2.5V74c-0.3,0.9-0.9,1.6-1.6,2.1
		c-0.8,0.5-1.8,0.8-2.7,0.8c-1,0-1.9-0.2-2.8-0.7c-0.8-0.5-1.5-1.2-1.9-2.1c-0.9-2.1-0.9-4.4,0-6.5c0.4-0.9,1.1-1.6,1.9-2.1
		c0.8-0.5,1.8-0.7,2.8-0.7C614.3,64.8,615.3,65,616.1,65.6z M611.5,68c-1.3,1.7-1.3,4,0,5.7c0.7,0.7,1.6,1.1,2.6,1
		c0.6,0,1.3-0.2,1.8-0.5c0.6-0.3,1-0.8,1.3-1.4c0.3-0.6,0.5-1.3,0.5-2.1c0-0.7-0.1-1.4-0.5-2.1c-0.3-0.6-0.7-1-1.3-1.4
		c-0.6-0.3-1.2-0.5-1.8-0.5C613.1,66.9,612.2,67.3,611.5,68L611.5,68z"/>
	<path class="st6" d="M627.9,74.2l3.4-9.3h2.6l-4.5,11.8h-3L622,64.9h2.6L627.9,74.2z"/>
	<path class="st6" d="M643.2,65.6c0.7,0.5,1.3,1.2,1.6,2.1v-2.7h2.5v11.8h-2.5V74c-0.3,0.9-0.9,1.6-1.6,2.1
		c-0.8,0.5-1.8,0.8-2.7,0.8c-1,0-1.9-0.2-2.8-0.7c-0.8-0.5-1.5-1.2-1.9-2.1c-0.9-2.1-0.9-4.4,0-6.5c0.4-0.9,1.1-1.6,1.9-2.1
		c0.8-0.5,1.8-0.7,2.8-0.7C641.4,64.8,642.4,65,643.2,65.6z M638.6,68c-1.3,1.7-1.3,4,0,5.7c0.7,0.7,1.6,1.1,2.6,1
		c0.6,0,1.3-0.2,1.9-0.5c0.5-0.3,1-0.8,1.3-1.4c0.3-0.6,0.5-1.3,0.5-2.1c0-0.7-0.1-1.4-0.5-2.1c-0.3-0.6-0.7-1-1.3-1.4
		c-0.6-0.3-1.2-0.5-1.9-0.5C640.2,66.9,639.3,67.3,638.6,68z"/>
	<path class="st6" d="M650.3,60.5c0.3-0.3,0.7-0.4,1.1-0.4c0.4,0,0.8,0.1,1.1,0.4c0.3,0.3,0.5,0.6,0.4,1c0,0.4-0.1,0.8-0.4,1
		c-0.3,0.3-0.7,0.4-1.1,0.4c-0.4,0-0.8-0.1-1.1-0.4c-0.3-0.3-0.4-0.6-0.4-1C649.8,61.1,650,60.7,650.3,60.5z M652.6,64.9v11.8h-2.4
		V64.9L652.6,64.9z"/>
	<path class="st6" d="M658.1,60.9v15.9h-2.4V60.9H658.1z"/>
	<path class="st6" d="M668.5,65.6c0.7,0.5,1.3,1.2,1.6,2.1v-2.7h2.5v11.8h-2.5V74c-0.3,0.9-0.9,1.6-1.6,2.1
		c-0.8,0.5-1.8,0.8-2.7,0.8c-1,0-1.9-0.2-2.8-0.7c-0.8-0.5-1.5-1.2-1.9-2.1c-0.9-2.1-0.9-4.4,0-6.5c0.4-0.9,1.1-1.6,1.9-2.1
		c0.8-0.5,1.8-0.7,2.8-0.7C666.7,64.8,667.7,65,668.5,65.6z M663.9,68c-1.3,1.7-1.3,4,0,5.7c0.7,0.7,1.6,1.1,2.6,1
		c0.6,0,1.3-0.2,1.8-0.5c0.6-0.3,1-0.8,1.3-1.4c0.3-0.6,0.5-1.3,0.5-2.1c0-0.7-0.2-1.4-0.5-2.1c-0.3-0.6-0.7-1-1.3-1.4
		c-0.6-0.3-1.2-0.5-1.8-0.5C665.5,66.9,664.6,67.3,663.9,68L663.9,68z"/>
	<path class="st6" d="M685,65.5c0.8,0.5,1.5,1.2,1.9,2.1c0.9,2.1,0.9,4.4,0,6.5c-0.4,0.9-1.1,1.6-1.9,2.1c-0.8,0.5-1.8,0.8-2.8,0.7
		c-1,0-1.9-0.3-2.7-0.8c-0.7-0.5-1.3-1.2-1.6-2.1v2.7h-2.5V60.9h2.5v6.8c0.3-0.9,0.8-1.6,1.6-2.1c0.8-0.5,1.8-0.8,2.7-0.8
		C683.3,64.8,684.2,65,685,65.5z M679.7,67.4c-0.5,0.3-1,0.8-1.3,1.4c-0.3,0.6-0.5,1.3-0.5,2.1c0,0.7,0.1,1.4,0.5,2.1
		c0.3,0.6,0.7,1,1.3,1.4c0.6,0.3,1.2,0.5,1.9,0.5c1,0,1.9-0.3,2.6-1c0.7-0.8,1-1.8,1-2.9c0.1-1-0.3-2.1-1-2.9
		c-0.7-0.7-1.6-1.1-2.6-1C680.9,66.9,680.2,67.1,679.7,67.4L679.7,67.4z"/>
	<path class="st6" d="M692.4,60.9v15.9H690V60.9H692.4z"/>
	<path class="st6" d="M706.3,71.3h-9.1c0,1,0.3,2,1,2.7c0.6,0.6,1.5,0.9,2.3,0.9c0.7,0,1.5-0.2,2.1-0.6c0.5-0.4,0.9-1,1-1.6h2.6
		c-0.3,1.7-1.4,3-2.9,3.7c-0.8,0.4-1.8,0.6-2.7,0.5c-1.1,0-2.1-0.2-3-0.7c-0.9-0.5-1.6-1.2-2.1-2.1c-1-2-1-4.4,0-6.5
		c0.5-0.9,1.2-1.6,2.1-2.1c1.9-1,4.2-1,6.1,0c0.8,0.5,1.5,1.1,2,2c0.5,0.9,0.7,1.8,0.7,2.8C706.4,70.6,706.4,71,706.3,71.3z
		 M703.5,68.3c-0.3-0.5-0.7-0.9-1.2-1.2c-0.5-0.3-1.1-0.4-1.7-0.4c-0.9,0-1.7,0.3-2.4,0.9c-0.7,0.7-1.1,1.6-1,2.6h6.7
		C704,69.5,703.8,68.9,703.5,68.3z"/>
	<path class="st6" d="M715.2,64.9l3.6,8.7l3.3-8.7h2.7l-7.2,17.4h-2.7l2.5-5.9l-5.1-11.5H715.2z"/>
	<path class="st6" d="M737.2,71.3h-9.1c0,1,0.3,2,1,2.7c0.6,0.6,1.5,0.9,2.3,0.9c0.7,0,1.5-0.2,2.1-0.6c0.5-0.4,0.9-1,1-1.6h2.6
		c-0.1,0.8-0.5,1.6-1,2.2c-0.5,0.7-1.2,1.2-2,1.5c-0.8,0.4-1.8,0.6-2.7,0.5c-1.1,0-2.1-0.2-3-0.7c-0.9-0.5-1.6-1.2-2.1-2.1
		c-1-2-1-4.4,0-6.5c0.5-0.9,1.2-1.6,2.1-2.1c1.9-1,4.2-1,6.1,0c0.8,0.5,1.5,1.1,2,2c0.5,0.9,0.7,1.8,0.7,2.8
		C737.3,70.6,737.3,71,737.2,71.3z M734.5,68.3c-0.3-0.5-0.7-0.9-1.2-1.2c-0.5-0.3-1.1-0.4-1.7-0.4c-0.9,0-1.7,0.3-2.4,0.9
		c-0.7,0.7-1.1,1.6-1.1,2.6h6.7C734.9,69.5,734.8,68.9,734.5,68.3z"/>
	<path class="st6" d="M745.6,74.6v2.1h-1.5c-1.9,0.3-3.6-1-3.9-2.8c-0.1-0.4-0.1-0.7,0-1.1V67h-1.7v-2.1h1.7V62h2.5v2.9h2.9V67h-2.9
		v5.8c-0.1,0.5,0.1,1,0.4,1.4c0.4,0.3,0.8,0.4,1.3,0.4H745.6z"/>
	<path class="st6" d="M749.9,74.1v2.7h-2.8v-2.7H749.9z"/>
	<path class="st7" d="M273.1,106.7c1,0.8,1.7,1.9,2.1,3.1h-1.7c-0.3-0.8-0.8-1.5-1.6-2c-0.8-0.5-1.7-0.8-2.6-0.7
		c-1.6,0-3.1,0.9-3.7,2.3c-0.4,0.8-0.6,1.7-0.6,2.6c0,0.9,0.2,1.8,0.6,2.6c0.7,1.4,2.2,2.3,3.7,2.3c0.9,0,1.9-0.2,2.6-0.7
		c0.7-0.5,1.3-1.2,1.6-2h1.7c-0.3,1.2-1.1,2.3-2.1,3.1c-1.1,0.8-2.4,1.2-3.8,1.1c-1.1,0-2.2-0.3-3.1-0.8c-0.9-0.5-1.6-1.3-2.1-2.3
		c-0.5-1-0.8-2.2-0.8-3.3c0-1.2,0.2-2.3,0.8-3.3c0.5-0.9,1.2-1.7,2.1-2.3c0.9-0.6,2-0.8,3.1-0.8
		C270.6,105.5,271.9,105.9,273.1,106.7z"/>
	<path class="st7" d="M285.3,109.3c0.8,0.9,1.1,2,1.1,3.2v5.8h-1.6v-5.6c0.1-0.8-0.2-1.6-0.8-2.3c-0.5-0.5-1.3-0.8-2-0.8
		c-0.8,0-1.6,0.3-2.1,0.9c-0.6,0.7-0.9,1.6-0.8,2.5v5.2h-1.6V105h1.6v5.7c0.2-0.7,0.7-1.4,1.3-1.8c0.7-0.4,1.4-0.7,2.2-0.6
		C283.5,108.2,284.5,108.6,285.3,109.3z"/>
	<path class="st7" d="M297.8,113.7h-7.9c0,0.9,0.3,1.8,1,2.5c0.6,0.6,1.4,0.9,2.2,0.8c0.7,0,1.4-0.2,2-0.6c0.5-0.4,0.9-1,1-1.6h1.7
		c-0.2,1.4-1.1,2.5-2.4,3.1c-0.7,0.3-1.5,0.5-2.2,0.4c-0.9,0-1.7-0.2-2.5-0.6c-0.7-0.4-1.3-1-1.7-1.8c-0.4-0.8-0.6-1.8-0.6-2.7
		c0-0.9,0.2-1.9,0.6-2.7c0.4-0.7,1-1.4,1.7-1.8c0.8-0.4,1.6-0.6,2.5-0.6c0.9,0,1.7,0.2,2.5,0.6c0.7,0.4,1.2,0.9,1.6,1.6
		c0.4,0.7,0.6,1.5,0.6,2.3C297.9,113,297.8,113.4,297.8,113.7z M295.8,111.1c-0.3-0.5-0.7-0.8-1.1-1.1c-0.5-0.2-1-0.4-1.6-0.4
		c-0.8,0-1.6,0.3-2.3,0.8c-0.6,0.6-1,1.5-1,2.4h6.3C296.2,112.3,296.1,111.6,295.8,111.1z"/>
	<path class="st7" d="M307.4,109.3c0.8,0.7,1.4,1.6,1.5,2.7h-1.7c-0.1-0.7-0.4-1.3-1-1.7c-1.1-0.7-2.4-0.8-3.6-0.2
		c-0.5,0.3-0.9,0.7-1.1,1.2c-0.3,0.6-0.5,1.3-0.4,2c0,0.7,0.1,1.4,0.4,2c0.2,0.5,0.6,0.9,1.1,1.2c1.1,0.6,2.5,0.5,3.6-0.2
		c0.5-0.4,0.9-1,1-1.7h1.7c-0.1,1.1-0.7,2-1.5,2.7c-0.9,0.7-2,1-3.1,1c-0.9,0-1.7-0.2-2.5-0.6c-0.7-0.4-1.3-1-1.7-1.8
		c-0.4-0.8-0.6-1.8-0.6-2.7c0-0.9,0.2-1.9,0.6-2.7c0.4-0.7,1-1.4,1.7-1.8c0.8-0.4,1.6-0.6,2.5-0.6
		C305.5,108.2,306.6,108.6,307.4,109.3z"/>
	<path class="st7" d="M316.5,118.3l-3.8-4.5v4.5h-1.6V105h1.6v7.7l3.7-4.3h2l-4.4,4.9l4.5,4.9L316.5,118.3z"/>
	<path class="st7" d="M332.1,108.9c0.7,0.4,1.3,1.1,1.6,1.8c0.4,0.8,0.6,1.8,0.6,2.7c0,0.9-0.2,1.8-0.6,2.7
		c-0.3,0.7-0.9,1.4-1.6,1.8c-0.7,0.4-1.5,0.6-2.3,0.6c-0.9,0-1.7-0.2-2.4-0.7c-0.7-0.5-1.1-1.1-1.4-1.9v2.5h-1.6V105h1.6v5.9
		c0.2-0.8,0.7-1.4,1.4-1.9c0.7-0.5,1.6-0.8,2.4-0.7C330.6,108.3,331.4,108.5,332.1,108.9z M327.6,110.2c-0.5,0.3-0.9,0.7-1.2,1.3
		c-0.3,0.6-0.4,1.2-0.4,1.9c0,0.7,0.1,1.3,0.4,1.9c0.3,0.5,0.7,1,1.2,1.3c0.5,0.3,1.1,0.5,1.7,0.4c0.9,0,1.8-0.3,2.4-1
		c1.2-1.6,1.2-3.7,0-5.3c-0.6-0.7-1.5-1-2.4-1C328.7,109.8,328.1,109.9,327.6,110.2L327.6,110.2z"/>
	<path class="st7" d="M342.9,109c0.7,0.5,1.1,1.1,1.4,1.9v-2.5h1.6v9.8h-1.6v-2.5c-0.2,0.8-0.7,1.4-1.4,1.9
		c-0.7,0.5-1.6,0.7-2.4,0.7c-0.8,0-1.6-0.2-2.3-0.6c-0.7-0.4-1.3-1-1.6-1.8c-0.4-0.8-0.6-1.8-0.6-2.7c0-0.9,0.2-1.8,0.6-2.7
		c0.3-0.7,0.9-1.4,1.6-1.8c0.7-0.4,1.5-0.6,2.3-0.6C341.3,108.2,342.2,108.5,342.9,109z M338.5,110.7c-1.2,1.6-1.2,3.7,0,5.3
		c0.6,0.7,1.5,1,2.4,1c0.6,0,1.2-0.1,1.7-0.4c0.5-0.3,0.9-0.7,1.2-1.3c0.3-0.6,0.4-1.2,0.4-1.9c0-0.7-0.1-1.3-0.4-1.9
		c-0.3-0.5-0.7-1-1.2-1.3c-0.5-0.3-1.1-0.4-1.7-0.4C340,109.7,339.1,110.1,338.5,110.7z"/>
	<path class="st7" d="M355.9,109.3c0.8,0.7,1.4,1.6,1.5,2.7h-1.7c-0.1-0.7-0.4-1.3-1-1.7c-1.1-0.7-2.4-0.8-3.6-0.2
		c-0.5,0.3-0.9,0.7-1.1,1.2c-0.3,0.6-0.5,1.3-0.4,2c0,0.7,0.1,1.4,0.4,2c0.2,0.5,0.6,0.9,1.1,1.2c1.1,0.6,2.5,0.5,3.6-0.2
		c0.5-0.4,0.9-1,1-1.7h1.7c-0.1,1.1-0.7,2-1.5,2.7c-0.9,0.7-2,1-3.1,1c-0.9,0-1.7-0.2-2.5-0.6c-0.7-0.4-1.3-1-1.7-1.8
		c-0.4-0.8-0.6-1.8-0.6-2.7c0-0.9,0.2-1.9,0.6-2.7c0.4-0.7,1-1.4,1.7-1.8c0.8-0.4,1.6-0.6,2.5-0.6
		C354,108.2,355.1,108.6,355.9,109.3z"/>
	<path class="st7" d="M365,118.3l-3.8-4.5v4.5h-1.6V105h1.6v7.7l3.7-4.3h2l-4.4,4.9l4.5,4.9L365,118.3z"/>
	<path class="st7" d="M375.4,106.6c-0.4,0.4-0.6,1-0.5,1.6v0.3h2.3v1.4h-2.3v8.4h-1.6v-8.4h-1.4v-1.4h1.4v-0.4c0-2.3,1.3-3.5,4-3.4
		v1.4C376.6,106,375.9,106.2,375.4,106.6z"/>
	<path class="st7" d="M386,108.9c0.8,0.4,1.4,1,1.8,1.8c0.4,0.8,0.7,1.7,0.6,2.7c0,0.9-0.2,1.9-0.6,2.7c-0.4,0.8-1,1.4-1.8,1.8
		c-1.6,0.8-3.5,0.8-5.1,0c-0.8-0.4-1.4-1-1.8-1.8c-0.4-0.8-0.7-1.7-0.6-2.7c0-0.9,0.2-1.9,0.6-2.7c0.4-0.8,1-1.4,1.8-1.8
		C382.5,108.1,384.4,108.1,386,108.9z M381.8,110.1c-0.5,0.3-0.9,0.7-1.2,1.2c-0.3,0.6-0.5,1.3-0.5,2c0,0.7,0.1,1.4,0.5,2
		c0.3,0.5,0.7,0.9,1.2,1.2c1,0.5,2.2,0.5,3.2,0c0.5-0.3,0.9-0.7,1.2-1.2c0.3-0.6,0.5-1.3,0.5-2c0-0.7-0.1-1.4-0.5-2
		c-0.3-0.5-0.7-0.9-1.2-1.2C384,109.6,382.8,109.6,381.8,110.1z"/>
	<path class="st7" d="M393.5,108.8c0.7-0.4,1.4-0.6,2.2-0.6v1.8h-0.5c-0.8,0-1.6,0.2-2.3,0.7c-0.6,0.6-1,1.5-0.9,2.3v5.2h-1.6v-9.8
		h1.6v2C392.4,109.8,392.9,109.2,393.5,108.8z"/>
	<path class="st7" d="M409.7,109.3c0.7,0.9,1.1,2,1.1,3.2v5.8h-1.6v-5.6c0.1-0.8-0.2-1.6-0.8-2.3c-0.5-0.5-1.3-0.8-2-0.8
		c-0.8,0-1.6,0.3-2.1,0.9c-0.6,0.7-0.9,1.6-0.8,2.5v5.2h-1.6V105h1.6v5.7c0.2-0.7,0.7-1.4,1.3-1.8c0.7-0.4,1.4-0.7,2.2-0.6
		C408,108.2,409,108.6,409.7,109.3z"/>
	<path class="st7" d="M419.7,109c0.7,0.5,1.1,1.1,1.4,1.9v-2.5h1.6v9.8h-1.6v-2.5c-0.2,0.8-0.7,1.4-1.4,1.9
		c-0.7,0.5-1.6,0.7-2.4,0.7c-0.8,0-1.6-0.2-2.3-0.6c-0.7-0.4-1.3-1-1.6-1.8c-0.4-0.8-0.6-1.8-0.6-2.7c0-0.9,0.2-1.8,0.6-2.7
		c0.3-0.7,0.9-1.4,1.6-1.8c0.7-0.4,1.5-0.6,2.3-0.6C418.2,108.3,419,108.5,419.7,109z M415.3,110.7c-1.2,1.6-1.2,3.7,0,5.3
		c0.6,0.7,1.5,1,2.4,1c0.6,0,1.2-0.1,1.7-0.4c0.5-0.3,0.9-0.7,1.2-1.3c0.3-0.6,0.4-1.2,0.4-1.9c0-0.7-0.1-1.3-0.4-1.9
		c-0.3-0.5-0.7-1-1.2-1.3c-0.5-0.3-1.1-0.4-1.7-0.4C416.9,109.7,416,110.1,415.3,110.7z"/>
	<path class="st7" d="M433.3,109.3c0.7,0.9,1.1,2,1.1,3.2v5.8h-1.6v-5.6c0.1-0.8-0.2-1.6-0.8-2.3c-0.5-0.5-1.3-0.8-2-0.8
		c-0.8,0-1.6,0.3-2.1,0.9c-0.6,0.7-0.9,1.6-0.8,2.5v5.2h-1.6v-9.8h1.6v2.3c0.2-0.8,0.7-1.4,1.3-1.8c0.7-0.4,1.4-0.7,2.2-0.6
		C431.5,108.2,432.5,108.6,433.3,109.3z"/>
	<path class="st7" d="M443.3,109c0.7,0.5,1.1,1.1,1.4,1.9V105h1.6v13.3h-1.6v-2.5c-0.2,0.8-0.7,1.4-1.4,1.9
		c-0.7,0.5-1.6,0.7-2.4,0.7c-0.8,0-1.6-0.2-2.3-0.6c-0.7-0.4-1.3-1-1.6-1.8c-0.4-0.8-0.6-1.8-0.6-2.7c0-0.9,0.2-1.8,0.6-2.7
		c0.3-0.7,0.9-1.4,1.6-1.8c0.7-0.4,1.5-0.6,2.3-0.6C441.7,108.2,442.6,108.5,443.3,109z M438.9,110.7c-1.2,1.6-1.2,3.7,0,5.3
		c0.6,0.7,1.5,1,2.4,1c0.6,0,1.2-0.1,1.7-0.4c0.5-0.3,0.9-0.7,1.2-1.3c0.3-0.6,0.4-1.2,0.4-1.9c0-0.7-0.1-1.3-0.4-1.9
		c-0.3-0.5-0.7-1-1.2-1.3c-0.5-0.3-1.1-0.4-1.7-0.4C440.4,109.7,439.5,110.1,438.9,110.7L438.9,110.7z"/>
	<path class="st7" d="M454.5,111v1.4h-7.2V111H454.5z"/>
	<path class="st7" d="M465.1,109.3c0.8,0.7,1.4,1.6,1.5,2.7h-1.7c-0.1-0.7-0.4-1.3-1-1.7c-0.6-0.4-1.3-0.6-2-0.6
		c-0.5,0-1.1,0.1-1.6,0.4c-0.5,0.3-0.9,0.7-1.1,1.2c-0.3,0.6-0.5,1.3-0.4,2c0,0.7,0.1,1.4,0.4,2c0.2,0.5,0.6,0.9,1.1,1.2
		c0.5,0.3,1,0.4,1.6,0.4c0.7,0,1.4-0.2,2-0.6c0.5-0.4,0.9-1,1-1.7h1.7c-0.2,1.1-0.7,2-1.5,2.7c-0.9,0.7-2,1-3.1,1
		c-0.9,0-1.7-0.2-2.5-0.6c-0.7-0.4-1.3-1-1.7-1.8c-0.4-0.8-0.6-1.8-0.6-2.7c0-0.9,0.2-1.9,0.6-2.7c0.4-0.8,1-1.4,1.7-1.8
		c0.8-0.4,1.6-0.6,2.5-0.6C463.2,108.2,464.3,108.6,465.1,109.3z"/>
	<path class="st7" d="M471.8,108.8c0.7-0.4,1.4-0.6,2.2-0.6v1.8h-0.5c-0.8,0-1.6,0.2-2.3,0.7c-0.6,0.6-1,1.5-0.9,2.3v5.2h-1.6v-9.8
		h1.6v2C470.7,109.8,471.2,109.2,471.8,108.8z"/>
	<path class="st7" d="M482.1,109c0.7,0.5,1.1,1.1,1.4,1.9v-2.5h1.6v9.8h-1.6v-2.5c-0.2,0.8-0.7,1.4-1.4,1.9
		c-0.7,0.5-1.6,0.7-2.4,0.7c-0.8,0-1.6-0.2-2.3-0.6c-0.7-0.4-1.3-1-1.6-1.8c-0.4-0.8-0.6-1.8-0.6-2.7c0-0.9,0.2-1.8,0.6-2.7
		c0.3-0.7,0.9-1.4,1.6-1.8c0.7-0.4,1.5-0.6,2.3-0.6C480.5,108.2,481.4,108.5,482.1,109z M477.7,110.7c-1.2,1.6-1.2,3.7,0,5.3
		c0.6,0.7,1.5,1,2.4,1c0.6,0,1.2-0.1,1.7-0.4c0.5-0.3,0.9-0.7,1.2-1.3c0.3-0.6,0.4-1.2,0.4-1.9c0-0.7-0.1-1.3-0.4-1.9
		c-0.3-0.5-0.7-1-1.2-1.3c-0.5-0.3-1.1-0.4-1.7-0.4C479.2,109.7,478.4,110.1,477.7,110.7z"/>
	<path class="st7" d="M490.2,106.6c-0.4,0.4-0.6,1-0.5,1.6v0.3h2.3v1.4h-2.3v8.4h-1.6v-8.4h-1.4v-1.4h1.4v-0.4c0-2.3,1.3-3.5,4-3.4
		v1.4C491.4,106,490.8,106.2,490.2,106.6z"/>
	<path class="st7" d="M498.5,116.8v1.5h-1.2c-0.8,0.1-1.6-0.2-2.2-0.7c-0.6-0.7-0.8-1.5-0.7-2.4v-5.3h-1.5v-1.4h1.5V106h1.6v2.5h2.5
		v1.4h-2.5v5.4c-0.1,0.5,0.1,0.9,0.3,1.3c0.3,0.3,0.8,0.4,1.2,0.3L498.5,116.8z"/>
	<path class="st7" d="M509.4,113.7h-7.8c0,0.9,0.3,1.8,1,2.5c0.6,0.6,1.4,0.9,2.2,0.8c0.7,0,1.4-0.2,2-0.6c0.5-0.4,0.9-1,1-1.6h1.7
		c-0.1,0.7-0.4,1.3-0.8,1.8c-0.4,0.5-1,1-1.6,1.3c-0.7,0.3-1.5,0.5-2.2,0.4c-0.9,0-1.7-0.2-2.5-0.6c-0.7-0.4-1.3-1-1.7-1.8
		c-0.4-0.8-0.6-1.8-0.6-2.7c0-0.9,0.2-1.9,0.6-2.7c0.4-0.8,1-1.4,1.7-1.8c0.8-0.4,1.6-0.6,2.5-0.6c0.9,0,1.7,0.2,2.5,0.6
		c0.7,0.4,1.2,0.9,1.6,1.6c0.4,0.7,0.6,1.5,0.6,2.3C509.5,113,509.5,113.4,509.4,113.7z M507.5,111.1c-0.3-0.5-0.7-0.8-1.1-1.1
		c-0.5-0.2-1-0.4-1.6-0.4c-0.8,0-1.6,0.3-2.3,0.8c-0.6,0.7-1,1.5-1,2.5h6.3C507.9,112.3,507.8,111.7,507.5,111.1z"/>
	<path class="st7" d="M518.1,109c0.7,0.5,1.1,1.1,1.4,1.9V105h1.6v13.3h-1.6v-2.5c-0.2,0.8-0.7,1.4-1.4,1.9
		c-0.7,0.5-1.6,0.7-2.4,0.7c-0.8,0-1.6-0.2-2.3-0.6c-0.7-0.4-1.3-1-1.6-1.8c-0.4-0.8-0.6-1.8-0.6-2.7c0-0.9,0.2-1.8,0.6-2.7
		c0.3-0.7,0.9-1.4,1.6-1.8c0.7-0.4,1.5-0.6,2.3-0.6C516.6,108.3,517.4,108.5,518.1,109z M513.7,110.7c-1.2,1.6-1.2,3.7,0,5.3
		c0.6,0.7,1.5,1,2.4,1c0.6,0,1.2-0.1,1.7-0.4c0.5-0.3,0.9-0.7,1.2-1.3c0.3-0.6,0.4-1.2,0.4-1.9c0-0.7-0.1-1.3-0.4-1.9
		c-0.3-0.5-0.7-1-1.2-1.3c-0.5-0.3-1.1-0.4-1.7-0.4C515.2,109.7,514.4,110.1,513.7,110.7z"/>
	<path class="st7" d="M534.6,109c0.7,0.5,1.1,1.1,1.4,1.9V105h1.6v13.3h-1.6v-2.5c-0.2,0.8-0.7,1.4-1.4,1.9
		c-0.7,0.5-1.6,0.7-2.4,0.7c-0.8,0-1.6-0.2-2.3-0.6c-0.7-0.4-1.3-1-1.6-1.8c-0.4-0.8-0.6-1.8-0.6-2.7c0-0.9,0.2-1.8,0.6-2.7
		c0.3-0.7,0.9-1.4,1.6-1.8c0.7-0.4,1.5-0.6,2.3-0.6C533,108.2,533.9,108.5,534.6,109z M530.2,110.7c-1.2,1.6-1.2,3.7,0,5.3
		c0.6,0.7,1.5,1,2.4,1c0.6,0,1.2-0.1,1.7-0.4c0.5-0.3,0.9-0.7,1.2-1.3c0.3-0.6,0.4-1.2,0.4-1.9c0-0.7-0.1-1.3-0.4-1.9
		c-0.3-0.5-0.7-1-1.2-1.3c-0.5-0.3-1.1-0.4-1.7-0.4C531.7,109.7,530.9,110.1,530.2,110.7z"/>
	<path class="st7" d="M540.2,104.9c0.2-0.2,0.5-0.3,0.8-0.3c0.3,0,0.6,0.1,0.8,0.3c0.2,0.2,0.3,0.4,0.3,0.7c0,0.3-0.1,0.5-0.3,0.7
		c-0.2,0.2-0.5,0.3-0.8,0.3c-0.3,0-0.6-0.1-0.8-0.3c-0.2-0.2-0.3-0.4-0.3-0.7C539.9,105.3,540,105.1,540.2,104.9z M541.8,108.5v9.8
		h-1.6v-9.8H541.8z"/>
	<path class="st7" d="M550.9,109c0.7,0.5,1.1,1.1,1.4,1.9v-2.5h1.6v10c0,0.8-0.2,1.7-0.6,2.4c-0.4,0.7-0.9,1.3-1.6,1.6
		c-0.7,0.4-1.6,0.6-2.4,0.6c-1.2,0.1-2.3-0.3-3.2-1c-0.8-0.6-1.4-1.6-1.6-2.6h1.6c0.2,0.6,0.6,1.2,1.1,1.5c0.6,0.4,1.3,0.6,2,0.6
		c0.8,0,1.6-0.3,2.2-0.8c0.6-0.6,0.9-1.5,0.9-2.4v-2.7c-0.2,0.8-0.7,1.4-1.4,1.9c-0.7,0.5-1.6,0.7-2.4,0.7c-0.8,0-1.6-0.2-2.3-0.6
		c-0.7-0.4-1.3-1-1.6-1.8c-0.4-0.8-0.6-1.8-0.6-2.7c0-0.9,0.2-1.8,0.6-2.7c0.4-0.7,0.9-1.4,1.6-1.8c0.7-0.4,1.5-0.6,2.3-0.6
		C549.3,108.2,550.2,108.5,550.9,109z M546.5,110.7c-1.2,1.6-1.2,3.7,0,5.3c0.6,0.7,1.5,1,2.4,1c0.6,0,1.2-0.1,1.7-0.4
		c0.5-0.3,0.9-0.7,1.2-1.3c0.3-0.6,0.4-1.2,0.4-1.9c0-0.7-0.1-1.3-0.4-1.9c-0.3-0.5-0.7-0.9-1.2-1.2c-0.5-0.3-1.1-0.4-1.7-0.4
		C548,109.8,547.1,110.1,546.5,110.7z"/>
	<path class="st7" d="M556.5,104.9c0.2-0.2,0.5-0.3,0.8-0.3c0.3,0,0.6,0.1,0.8,0.3c0.2,0.2,0.3,0.4,0.3,0.7c0,0.3-0.1,0.5-0.3,0.7
		c-0.2,0.2-0.5,0.3-0.8,0.3c-0.3,0-0.6-0.1-0.8-0.3c-0.2-0.2-0.3-0.4-0.3-0.7C556.2,105.3,556.3,105.1,556.5,104.9z M558.1,108.5
		v9.8h-1.6v-9.8H558.1z"/>
	<path class="st7" d="M565.4,116.8v1.5h-1.2c-0.8,0.1-1.6-0.2-2.2-0.7c-0.6-0.7-0.8-1.5-0.7-2.4v-5.3h-1.5v-1.4h1.5V106h1.6v2.5h2.5
		v1.4h-2.5v5.4c-0.1,0.5,0.1,0.9,0.3,1.3c0.3,0.3,0.8,0.4,1.2,0.3L565.4,116.8z"/>
	<path class="st7" d="M573.8,109c0.7,0.5,1.1,1.1,1.4,1.9v-2.5h1.6v9.8h-1.6v-2.5c-0.2,0.8-0.7,1.4-1.4,1.9
		c-0.7,0.5-1.6,0.7-2.4,0.7c-0.8,0-1.6-0.2-2.3-0.6c-0.7-0.4-1.3-1-1.6-1.8c-0.4-0.8-0.6-1.8-0.6-2.7c0-0.9,0.2-1.8,0.6-2.7
		c0.4-0.7,0.9-1.4,1.6-1.8c0.7-0.4,1.5-0.6,2.3-0.6C572.3,108.2,573.1,108.5,573.8,109z M569.5,110.7c-1.2,1.6-1.2,3.7,0,5.3
		c0.6,0.7,1.5,1,2.4,1c0.6,0,1.2-0.1,1.7-0.4c0.5-0.3,0.9-0.7,1.2-1.3c0.3-0.6,0.4-1.2,0.4-1.9c0-0.7-0.1-1.3-0.4-1.9
		c-0.3-0.5-0.7-1-1.2-1.3c-0.5-0.3-1.1-0.4-1.7-0.4C571,109.7,570.1,110.1,569.5,110.7z"/>
	<path class="st7" d="M581.1,105v13.3h-1.6V105H581.1z"/>
	<path class="st7" d="M594.5,109c0.7,0.5,1.1,1.1,1.4,1.9v-2.5h1.6v9.8h-1.6v-2.5c-0.2,0.8-0.7,1.4-1.4,1.9
		c-0.7,0.5-1.6,0.7-2.4,0.7c-0.8,0-1.6-0.2-2.3-0.6c-0.7-0.4-1.3-1-1.6-1.8c-0.4-0.8-0.6-1.8-0.6-2.7c0-0.9,0.2-1.8,0.6-2.7
		c0.4-0.7,0.9-1.4,1.6-1.8c0.7-0.4,1.5-0.6,2.3-0.6C593,108.2,593.8,108.5,594.5,109z M590.2,110.7c-1.2,1.6-1.2,3.7,0,5.3
		c0.6,0.7,1.5,1,2.4,1c0.6,0,1.2-0.1,1.7-0.4c0.5-0.3,0.9-0.7,1.2-1.3c0.3-0.6,0.4-1.2,0.4-1.9c0-0.7-0.1-1.3-0.4-1.9
		c-0.3-0.5-0.7-1-1.2-1.3c-0.5-0.3-1.1-0.4-1.7-0.4C591.7,109.7,590.8,110.1,590.2,110.7z"/>
	<path class="st7" d="M605.9,109.2c0.7,0.6,1.1,1.4,1.2,2.3h-1.6c-0.1-0.6-0.3-1.1-0.7-1.4c-0.5-0.4-1.1-0.6-1.7-0.6
		c-0.5,0-1,0.1-1.4,0.4c-0.3,0.3-0.5,0.7-0.5,1.1c0,0.3,0.1,0.7,0.3,0.9c0.2,0.2,0.5,0.4,0.8,0.5c0.4,0.1,0.9,0.3,1.4,0.4
		c0.6,0.1,1.2,0.3,1.8,0.5c0.4,0.2,0.8,0.5,1.1,0.8c0.3,0.4,0.5,1,0.5,1.5c0,0.8-0.3,1.5-0.9,1.9c-0.7,0.5-1.5,0.8-2.4,0.8
		c-1,0-2-0.3-2.9-0.8c-0.7-0.6-1.2-1.4-1.3-2.3h1.6c0,0.6,0.3,1.1,0.8,1.4c0.5,0.4,1.1,0.6,1.8,0.6c0.5,0,0.9-0.1,1.3-0.4
		c0.3-0.3,0.5-0.7,0.5-1.1c0-0.3-0.1-0.7-0.3-0.9c-0.2-0.2-0.5-0.4-0.8-0.5c-0.5-0.2-0.9-0.3-1.4-0.4c-0.6-0.1-1.2-0.3-1.8-0.5
		c-0.4-0.2-0.8-0.4-1.1-0.8c-0.3-0.4-0.5-0.9-0.5-1.5c0-0.8,0.3-1.5,0.9-2c0.7-0.5,1.6-0.8,2.5-0.8
		C604.2,108.3,605.1,108.6,605.9,109.2z"/>
	<path class="st7" d="M615.1,109.2c0.7,0.6,1.1,1.4,1.2,2.3h-1.6c-0.1-0.6-0.3-1.1-0.7-1.4c-0.5-0.4-1.1-0.6-1.7-0.6
		c-0.5,0-1,0.1-1.4,0.4c-0.3,0.3-0.5,0.7-0.5,1.1c0,0.3,0.1,0.7,0.3,0.9c0.2,0.2,0.5,0.4,0.8,0.5c0.4,0.1,0.9,0.3,1.4,0.4
		c0.6,0.1,1.2,0.3,1.8,0.5c0.4,0.2,0.8,0.5,1.1,0.8c0.3,0.4,0.5,1,0.5,1.5c0,0.8-0.3,1.5-0.9,1.9c-0.7,0.5-1.5,0.8-2.4,0.8
		c-1,0-2-0.3-2.9-0.8c-0.7-0.6-1.2-1.4-1.3-2.3h1.6c0,0.6,0.3,1.1,0.8,1.4c0.5,0.4,1.1,0.6,1.8,0.6c0.5,0,0.9-0.1,1.3-0.4
		c0.3-0.3,0.5-0.7,0.5-1.1c0-0.3-0.1-0.7-0.3-0.9c-0.2-0.2-0.5-0.4-0.8-0.5c-0.5-0.2-0.9-0.3-1.4-0.4c-0.6-0.1-1.2-0.3-1.8-0.5
		c-0.4-0.2-0.8-0.4-1.1-0.8c-0.3-0.4-0.5-0.9-0.5-1.5c0-0.8,0.3-1.5,0.9-2c0.7-0.5,1.6-0.8,2.5-0.8
		C613.4,108.3,614.4,108.6,615.1,109.2z"/>
	<path class="st7" d="M627.6,113.7h-7.9c0,0.9,0.3,1.8,1,2.5c0.6,0.6,1.4,0.9,2.2,0.8c0.7,0,1.4-0.2,2-0.6c0.5-0.4,0.9-1,1-1.6h1.7
		c-0.2,1.4-1.1,2.5-2.4,3.1c-0.7,0.3-1.5,0.5-2.2,0.4c-0.9,0-1.7-0.2-2.5-0.6c-0.7-0.4-1.3-1-1.7-1.8c-0.4-0.8-0.6-1.8-0.6-2.7
		c0-0.9,0.2-1.9,0.6-2.7c0.4-0.7,1-1.4,1.7-1.8c0.8-0.4,1.6-0.6,2.5-0.6c0.9,0,1.7,0.2,2.5,0.6c0.7,0.4,1.2,0.9,1.6,1.6
		c0.4,0.7,0.6,1.5,0.6,2.3C627.7,113,627.7,113.4,627.6,113.7z M625.7,111.1c-0.3-0.5-0.6-0.9-1.1-1.1c-0.5-0.2-1-0.4-1.6-0.4
		c-0.8,0-1.6,0.3-2.3,0.8c-0.6,0.6-1,1.5-1,2.4h6.3C626.1,112.3,626,111.6,625.7,111.1z"/>
	<path class="st7" d="M634.5,116.8v1.5h-1.2c-0.8,0.1-1.6-0.2-2.2-0.7c-0.6-0.7-0.8-1.5-0.7-2.4v-5.3h-1.5v-1.4h1.5V106h1.6v2.5h2.5
		v1.4h-2.5v5.4c-0.1,0.5,0.1,0.9,0.3,1.3c0.3,0.3,0.8,0.4,1.2,0.3L634.5,116.8z"/>
	<path class="st7" d="M641.1,116.8v1.5h-1.2c-0.8,0.1-1.6-0.2-2.2-0.7c-0.6-0.7-0.8-1.5-0.7-2.4v-5.3h-1.5v-1.4h1.5V106h1.6v2.5h2.6
		v1.4h-2.5v5.4c-0.1,0.5,0.1,0.9,0.3,1.3c0.3,0.3,0.8,0.4,1.2,0.3L641.1,116.8z"/>
	<path class="st7" d="M648.9,109.2c0.7,0.6,1.1,1.4,1.2,2.3h-1.6c-0.1-0.6-0.3-1.1-0.7-1.4c-0.5-0.4-1.1-0.6-1.7-0.6
		c-0.5,0-1,0.1-1.4,0.4c-0.3,0.3-0.5,0.7-0.5,1.1c0,0.3,0.1,0.7,0.3,0.9c0.2,0.2,0.5,0.4,0.8,0.5c0.4,0.1,0.9,0.3,1.4,0.4
		c0.6,0.1,1.2,0.3,1.8,0.5c0.4,0.2,0.8,0.5,1.1,0.8c0.3,0.4,0.5,1,0.5,1.5c0,0.8-0.3,1.5-0.9,1.9c-0.7,0.5-1.5,0.8-2.4,0.8
		c-1,0-2-0.3-2.9-0.8c-0.7-0.6-1.2-1.4-1.3-2.3h1.6c0,0.6,0.3,1.1,0.8,1.4c0.5,0.4,1.1,0.6,1.8,0.6c0.5,0,0.9-0.1,1.3-0.4
		c0.3-0.3,0.5-0.7,0.5-1.1c0-0.3-0.1-0.7-0.3-0.9c-0.2-0.2-0.5-0.4-0.8-0.5c-0.5-0.2-0.9-0.3-1.4-0.4c-0.6-0.1-1.2-0.3-1.8-0.5
		c-0.4-0.2-0.8-0.4-1.1-0.8c-0.3-0.4-0.5-0.9-0.5-1.5c0-0.8,0.3-1.5,0.9-2c0.7-0.5,1.6-0.8,2.5-0.8
		C647.2,108.3,648.1,108.6,648.9,109.2z"/>
	<path class="st7" d="M653.6,118.5c0,0.5-0.1,1.1-0.5,1.5c-0.4,0.4-0.9,0.6-1.4,0.6v-0.7c0.2,0,0.5-0.1,0.7-0.2
		c0.2-0.2,0.2-0.5,0.2-0.8v-0.2h-0.9v-1.7h1.7C653.5,117.5,653.6,118,653.6,118.5z"/>
	<path class="st7" d="M662.5,106.6c-0.4,0.4-0.6,1-0.5,1.6v0.3h2.3v1.4H662v8.4h-1.6v-8.4h-1.4v-1.4h1.4v-0.4c0-2.3,1.3-3.5,4-3.4
		v1.4C663.7,106,663,106.2,662.5,106.6z"/>
	<path class="st7" d="M673.1,108.9c0.8,0.4,1.4,1,1.8,1.8c0.4,0.8,0.7,1.7,0.6,2.7c0,0.9-0.2,1.9-0.6,2.7c-0.4,0.8-1,1.4-1.8,1.8
		c-1.6,0.8-3.5,0.8-5.1,0c-0.8-0.4-1.4-1-1.8-1.8c-0.4-0.8-0.7-1.7-0.6-2.7c0-0.9,0.2-1.9,0.6-2.7c0.4-0.8,1-1.4,1.8-1.8
		C669.6,108.1,671.5,108.1,673.1,108.9z M668.9,110.1c-0.5,0.3-0.9,0.7-1.2,1.2c-0.3,0.6-0.5,1.3-0.5,2c0,0.7,0.1,1.4,0.5,2
		c0.3,0.5,0.7,0.9,1.2,1.2c1,0.5,2.2,0.5,3.2,0c0.5-0.3,0.9-0.7,1.2-1.2c0.3-0.6,0.5-1.3,0.5-2c0-0.7-0.1-1.4-0.5-2
		c-0.3-0.5-0.7-0.9-1.2-1.2C671.1,109.6,669.9,109.6,668.9,110.1z"/>
	<path class="st7" d="M685.5,109.3c0.8,0.9,1.1,2,1.1,3.2v5.8H685v-5.6c0.1-0.8-0.2-1.6-0.8-2.3c-0.5-0.5-1.3-0.8-2-0.8
		c-0.8,0-1.6,0.3-2.1,0.9c-0.6,0.7-0.9,1.6-0.8,2.5v5.2h-1.6v-9.8h1.6v2.3c0.2-0.7,0.7-1.4,1.3-1.8c0.7-0.4,1.4-0.7,2.2-0.6
		C683.8,108.2,684.8,108.6,685.5,109.3z"/>
	<path class="st7" d="M693.8,116.8v1.5h-1.2c-0.8,0.1-1.6-0.2-2.2-0.7c-0.6-0.7-0.8-1.5-0.7-2.4v-5.3h-1.5v-1.4h1.5V106h1.7v2.5h2.5
		v1.4h-2.5v5.4c-0.1,0.5,0.1,0.9,0.3,1.3c0.3,0.3,0.8,0.4,1.2,0.3L693.8,116.8z"/>
	<path class="st7" d="M701.5,109.2c0.7,0.6,1.1,1.4,1.2,2.3h-1.6c-0.1-0.6-0.3-1.1-0.7-1.4c-0.5-0.4-1.1-0.6-1.7-0.6
		c-0.5,0-1,0.1-1.4,0.4c-0.3,0.3-0.5,0.7-0.5,1.1c0,0.3,0.1,0.7,0.3,0.9c0.2,0.2,0.5,0.4,0.8,0.5c0.4,0.1,0.9,0.3,1.4,0.4
		c0.6,0.1,1.2,0.3,1.8,0.5c0.4,0.2,0.8,0.5,1.1,0.8c0.3,0.4,0.5,1,0.5,1.5c0,0.8-0.3,1.5-0.9,1.9c-0.7,0.5-1.5,0.8-2.4,0.8
		c-1,0-2-0.2-2.9-0.8c-0.7-0.6-1.2-1.4-1.3-2.3h1.6c0,0.6,0.3,1.1,0.8,1.4c0.5,0.4,1.1,0.6,1.8,0.6c0.5,0,0.9-0.1,1.3-0.4
		c0.3-0.3,0.5-0.7,0.5-1.1c0-0.3-0.1-0.7-0.3-0.9c-0.2-0.2-0.5-0.4-0.8-0.5c-0.5-0.1-0.9-0.3-1.4-0.4c-0.6-0.1-1.2-0.3-1.7-0.5
		c-0.4-0.2-0.8-0.4-1.1-0.8c-0.3-0.4-0.5-0.9-0.5-1.5c0-0.8,0.3-1.5,0.9-2c0.7-0.5,1.6-0.8,2.5-0.8
		C699.8,108.3,700.7,108.6,701.5,109.2z"/>
	<path class="st7" d="M718.5,118.3l-2.8-3c0,0.2,0,0.5-0.1,0.7c-0.1,0.7-0.5,1.3-1.1,1.8c-0.6,0.5-1.3,0.7-2.1,0.7
		c-0.7,0-1.4-0.1-2-0.5c-0.6-0.3-1-0.8-1.3-1.3c-0.3-0.6-0.5-1.3-0.5-2c0-0.7,0.1-1.3,0.4-1.9c0.3-0.5,0.7-0.9,1.2-1.2
		c0.5-0.3,1.1-0.4,1.6-0.4h0.4l-0.3-0.3c-0.3-0.4-0.6-0.7-0.8-1.2c-0.2-0.4-0.3-0.8-0.3-1.3c0-1,0.6-1.9,1.5-2.4
		c0.6-0.3,1.2-0.4,1.8-0.4c0.9-0.1,1.7,0.2,2.4,0.8c0.6,0.8,1,1.7,1.1,2.7c0,0.1,0,0.2,0,0.3h-1.5c0-0.1,0-0.2,0-0.3
		c0-0.1,0-0.2,0-0.2c0-0.5-0.2-1-0.5-1.4c-0.4-0.3-0.8-0.5-1.3-0.5c-0.5,0-0.9,0.1-1.2,0.5c-0.3,0.3-0.5,0.7-0.5,1.1
		c0,0.3,0.1,0.7,0.2,0.9c0.2,0.3,0.4,0.6,0.7,0.9l6.7,7.9L718.5,118.3z M714.1,116.4c0.4-0.4,0.7-1,0.6-1.6c0-0.4-0.1-0.9-0.4-1.2
		c-0.2-0.4-0.5-0.7-0.9-0.9c-0.4-0.2-0.8-0.3-1.2-0.3c-0.6,0-1.1,0.2-1.5,0.6c-0.4,0.5-0.6,1.1-0.6,1.7c0,0.7,0.2,1.3,0.7,1.8
		c0.5,0.4,1.1,0.7,1.7,0.6C713.2,117,713.7,116.8,714.1,116.4L714.1,116.4z"/>
	<path class="st7" d="M740.9,109.3c0.7,0.9,1.1,2,1,3.2v5.8h-1.6v-5.6c0.1-0.8-0.2-1.6-0.7-2.2c-0.5-0.5-1.2-0.8-1.9-0.8
		c-0.8,0-1.5,0.3-2.1,0.8c-0.6,0.7-0.8,1.6-0.8,2.5v5.2h-1.6v-5.6c0.1-0.8-0.2-1.6-0.7-2.2c-0.5-0.5-1.2-0.8-1.9-0.8
		c-0.8,0-1.5,0.3-2.1,0.8c-0.6,0.7-0.8,1.6-0.8,2.5v5.2H726v-9.8h1.6v2.2c0.2-0.7,0.7-1.4,1.3-1.8c0.6-0.4,1.4-0.6,2.1-0.6
		c0.8,0,1.5,0.2,2.2,0.6c0.6,0.5,1.1,1.1,1.3,1.9c0.2-0.8,0.7-1.4,1.4-1.9c0.6-0.4,1.4-0.7,2.2-0.7
		C739.1,108.2,740.1,108.6,740.9,109.3z"/>
	<path class="st7" d="M751.4,108.9c0.8,0.4,1.4,1,1.8,1.8c0.4,0.8,0.7,1.7,0.6,2.7c0,0.9-0.2,1.9-0.6,2.7c-0.4,0.8-1,1.4-1.8,1.8
		c-1.6,0.8-3.5,0.8-5.1,0c-0.8-0.4-1.4-1-1.8-1.8c-0.4-0.8-0.7-1.7-0.6-2.7c0-0.9,0.2-1.9,0.6-2.7c0.4-0.8,1-1.4,1.8-1.8
		C747.9,108.1,749.8,108.1,751.4,108.9z M747.3,110.1c-0.5,0.3-0.9,0.7-1.2,1.2c-0.3,0.6-0.5,1.3-0.5,2c0,0.7,0.1,1.4,0.5,2
		c0.3,0.5,0.7,0.9,1.2,1.2c0.5,0.3,1.1,0.4,1.6,0.4c0.6,0,1.1-0.1,1.6-0.4c0.5-0.3,0.9-0.7,1.2-1.2c0.3-0.6,0.5-1.3,0.5-2
		c0-0.7-0.1-1.4-0.5-2c-0.3-0.5-0.7-0.9-1.2-1.2c-0.5-0.3-1.1-0.4-1.6-0.4C748.3,109.7,747.8,109.9,747.3,110.1z"/>
	<path class="st7" d="M759,108.8c0.7-0.4,1.4-0.6,2.2-0.6v1.8h-0.5c-0.8,0-1.6,0.2-2.3,0.7c-0.6,0.6-1,1.5-0.9,2.3v5.2h-1.6v-9.8
		h1.6v2C757.8,109.8,758.3,109.2,759,108.8z"/>
	<path class="st7" d="M771.8,113.7h-7.9c0,0.9,0.3,1.8,1,2.5c0.6,0.6,1.4,0.9,2.2,0.8c0.7,0,1.4-0.2,2-0.6c0.5-0.4,0.9-1,1-1.6h1.7
		c-0.1,0.7-0.4,1.3-0.8,1.8c-0.4,0.5-1,1-1.6,1.3c-0.7,0.3-1.5,0.5-2.2,0.4c-0.9,0-1.7-0.2-2.5-0.6c-0.7-0.4-1.3-1-1.7-1.8
		c-0.4-0.8-0.6-1.8-0.6-2.7c0-0.9,0.2-1.9,0.6-2.7c0.4-0.8,1-1.4,1.7-1.8c0.8-0.4,1.6-0.6,2.5-0.6c0.9,0,1.7,0.2,2.5,0.6
		c0.7,0.4,1.2,0.9,1.6,1.6c0.4,0.7,0.6,1.5,0.6,2.3C771.8,113,771.8,113.4,771.8,113.7z M769.8,111.1c-0.3-0.5-0.7-0.8-1.1-1.1
		c-0.5-0.2-1-0.4-1.6-0.4c-0.8,0-1.6,0.3-2.3,0.8c-0.6,0.6-1,1.5-1,2.4h6.3C770.2,112.3,770.1,111.6,769.8,111.1z"/>
	<path class="st7" d="M776.4,116.3v1.9h-2v-1.9L776.4,116.3z M776.3,105.3l-0.2,9.2h-1.3l-0.2-9.2H776.3z"/>
</g>
<g id="Layer_2_1_">
	<g id="Draw_Layer_1_">
		<circle class="st8" cx="99.8" cy="24.6" r="20.5"/>
		<path class="st9" d="M99.8,25.6l-7,8.7H91l7.9-9.9l-7.6-9.5h1.8l6.7,8.4l6.7-8.3h1.8l-7.6,9.5l7.8,9.9h-1.8L99.8,25.6z"/>
	</g>
</g>
</svg>
