<?xml version="1.0" encoding="utf-8"?>
<!-- Generator: Adobe Illustrator 24.1.3, SVG Export Plug-In . SVG Version: 6.00 Build 0)  -->
<svg version="1.1" id="Layer_1" xmlns="http://www.w3.org/2000/svg" xmlns:xlink="http://www.w3.org/1999/xlink" x="0px" y="0px"
	 viewBox="0 0 848.1 165.6" style="enable-background:new 0 0 848.1 165.6;" xml:space="preserve">
<style type="text/css">
	.st0{fill:#8792B4;}
	.st1{fill:none;stroke:#384173;stroke-width:5;stroke-miterlimit:10;}
	.st2{fill:#707DA7;}
	.st3{fill:#C7CCDD;}
	.st4{opacity:0.63;fill:#48578E;enable-background:new    ;}
	.st5{fill:#2F345B;}
	.st6{fill:none;}
	.st7{fill:#FFFFFF;}
	.st8{font-family:'GreycliffCF-Bold';}
	.st9{font-size:22px;}
	.st10{font-family:'GreycliffCF-Regular';}
	.st11{font-size:20px;}
	.st12{fill:#384173;}
	.st13{opacity:0.88;fill:#E8E8E8;enable-background:new    ;}
</style>
<g id="Draw_Layer">
	<path class="st0" d="M109.7,19.5H827c10.1,0,18.4,8.2,18.4,18.4v106.9c0,10.1-8.2,18.4-18.4,18.4H109.7c-10.1,0-18.4-8.2-18.4-18.4
		v-107C91.3,27.7,99.6,19.5,109.7,19.5z"/>
	<path class="st1" d="M109.9,19.5h717.3c10.1,0,18.4,8.2,18.4,18.4v106.9c0,10.1-8.2,18.4-18.4,18.4H109.9
		c-10.1,0-18.4-8.2-18.4-18.4v-107C91.5,27.7,99.8,19.5,109.9,19.5z"/>
	<path class="st2" d="M168.6,41.2c-0.5,0-1.1,0-1.6,0h-5.5H160c-0.8,0-1.5,0-2.3,0H157h-0.8c-0.6,0-1.1,0.1-1.7,0.1
		c-0.6,0-1.1,0-1.7,0h-1.5H151h-0.5H150h-0.8c-0.3,0-0.6,0.1-0.9,0.1c-0.6,0-1.1,0-1.7,0c-0.6,0-1-0.1-1.5-0.1h-0.7h-0.3
		c-0.8,0-1.6,0.1-2.4,0.1s-1.5,0-2.2,0c-0.9,0-1.8,0-2.7,0h-0.6h-0.7c-0.5,0-1,0.1-1.5,0.1c-1,0.1-2,0-3,0.1c-0.5,0-0.9,0-1.4,0
		h-4.1h-1.1c-0.6,0.2-1.1,0.5-1.6,0.8c-0.3,0.2-0.5,0.6-0.7,0.9l-0.2,0.3c-0.1,0.2-0.3,0.4-0.4,0.6c0,0.1-0.1,0.1-0.1,0.2l-0.1,0.1
		c-0.2,0.2-0.3,0.4-0.3,0.7c0,0.1,0,0.2,0,0.2c0,0.1,0,0.3,0,0.4v0.1c0,0.1,0,0.1,0,0.2c-0.1,0.4-0.1,0.8-0.1,1.1
		c0,0.2,0,0.4,0.1,0.6V48c0,0.2,0,0.3,0,0.5c0,0.3,0,0.6,0,1c0,0.1,0,0.2,0,0.3c0,0.3,0,0.5-0.1,0.8s0,0.5-0.1,0.7s-0.1,0.7-0.1,1
		s-0.1,0.7-0.1,1c0,0.2,0,0.4-0.1,0.6c-0.1,0.6-0.1,1.3-0.1,1.9c0,0.4,0,0.7,0,1.1c0,0.2,0,0.4,0,0.6c0,0.5,0,1,0,1.4
		c0,0.3-0.1,0.6-0.1,0.9s-0.1,0.8-0.1,1.2s0,0.6,0,0.9c0,0.3,0,0.5,0,0.8c0,0.6,0,1.2,0,1.8s0,1.3,0,1.9c-0.1,1.1-0.1,2-0.1,2.8
		c0,0.4,0,0.8,0.1,1.2c0,0.2,0,0.4,0.1,0.6s0.1,0.5,0.1,0.8c0,0.9,0.1,1.6,0.1,2.3c0,0.4,0,0.8,0,1.2c0,0.4,0,0.8,0,1.2v0.1
		c0,0.4,0,0.9,0,1.3s0,0.8,0,1.2v0.1c0,0.4,0,0.9,0,1.3s0,1,0,1.5c0,0.8,0.1,1.6,0.1,2.6c0.1,1,0.1,1.9,0.1,2.7c0,0.5,0,0.9,0,1.4
		c0,0.3,0,0.6,0,1v0.4c0,0.6,0,1.2,0.1,1.8v0.8c0,0.6,0,1.1,0,1.7v0.9c0,0.8,0.1,1.7,0.2,2.7c0.1,0.7,0.1,1.3,0.1,2v0.7
		c0,0.8,0,1.7,0.1,2.8c0.1,1.1,0.1,2,0.1,3c0,0.8,0,1.7,0,2.5c0,0.3,0,0.5,0,0.7c0.1,0.6,0.1,1.3,0.1,1.9c0,0.5,0,1.1-0.1,1.6
		c0,0.4,0,0.8,0,1.2c0,0.7,0,1.4,0,2c0,0.3,0,0.6,0,0.9c0,1,0,1.8,0,2.7v0.4c0,0.7-0.1,1.4-0.1,2.2c0,0.4,0,0.7,0,1.1
		c0,0.5,0,1.1,0,1.6v1.1c0,0.5,0,1,0,1.5c0,0.5,0,1,0,1.5c0,0.3,0,0.7,0,1s0,0.8,0,1.2s0,0.8,0,1.2s0,0.6,0,0.8s0,0.3,0,0.4
		s0,0.3,0,0.4c0,0.3,0,0.5,0.1,0.8c0.1,0.4,0.2,0.8,0.3,1.1c0.1,0.3,0.3,0.6,0.4,0.9c0.1,0.1,0.1,0.2,0.2,0.3s0.1,0.2,0.2,0.3
		s0.1,0.2,0.2,0.3s0.3,0.3,0.4,0.4l0,0l0.3,0.2c0,0,0.1,0,0.1,0.1c0.1,0.1,0.2,0.3,0.4,0.4c0.3,0.2,0.6,0.3,0.9,0.4l0.3,0.1h0.1
		l0.3,0.1l0.3,0.1h0.3h0.3h0.4c0.4,0,0.8,0,1.2,0s0.7,0,1.1,0h0.4c0.3,0,0.5,0,0.8-0.1h0.5c0.3,0,0.7,0,1,0s0.8,0,1.2,0s0.7,0,1.1,0
		h0.6c0.2,0,0.3,0,0.5,0.1l1.1,0.1c0.2,0,0.4,0,0.6,0h0.7c0.3,0,0.5,0,0.8,0h0.8c0.6,0,1.1,0,1.7,0s1,0,1.5,0h0.1
		c0.6-0.1,1.1-0.1,1.7-0.2h1.7c0.3,0,0.6,0,0.9,0l0.8,0.1c0.5,0,1,0,1.5,0h0.5c1.2-0.1,2.4,0,3.6,0h1c0.3,0,0.6,0,0.9,0
		c0.6,0,1.1,0.1,1.7,0.1h1.8l1.8,0.1c1.1,0.1,2.2,0.1,3.3,0.1c0.5,0,1,0,1.5,0s0.9,0,1.4,0h0.6H167c0.6,0,1.2,0,1.8,0s1.1,0,1.7,0
		c0.6,0,1.2,0,1.8,0h1.9c1.1,0,2.2,0.1,3.3,0.1c0.5,0,1.1,0,1.6,0s1,0,1.5,0s1.1,0.1,1.7,0.1h1.1c-0.1-0.4-0.3-0.8-0.4-1.2
		c-0.1-0.3-0.1-0.6-0.1-0.9v-0.1v-0.3c0-0.3-0.1-0.5-0.2-0.8c-0.1-0.3-0.1-0.5-0.2-0.8v-0.4c0-0.1,0-0.3,0-0.4c0-0.1,0-0.4-0.1-0.7
		v-0.1v-0.2l-0.1-1c0-0.2,0-0.5-0.1-0.7s0-0.5-0.1-0.7V132c0-0.2,0-0.5-0.1-0.7v-0.2V131c-0.1-0.3-0.1-0.7-0.1-1c0-0.2,0-0.4,0-0.5
		v-0.1c0-0.2,0-0.3,0-0.5c-0.1-0.6-0.1-1.2-0.2-1.9v-0.5v-0.1c0-0.4-0.1-0.9-0.1-1.4c0-0.2,0-0.3,0-0.5c0-0.1,0-0.3,0-0.4
		c0-0.4,0-0.7-0.1-0.9l-0.1-0.7v-0.2c0-0.4-0.1-0.8-0.1-1.2c0-0.3-0.1-0.7-0.1-1.1s0-0.5-0.1-0.8v-0.4c0-0.2,0-0.4,0-0.6
		s0-0.3,0-0.4v-0.4c0-0.2,0-0.4,0-0.7s-0.1-0.6-0.1-0.9v-0.2c0-0.3-0.1-0.6-0.1-0.9v-0.3c0-0.2,0-0.3,0-0.5v-0.2v-0.4
		c0-0.2,0-0.5,0-0.7v-0.1c0-0.1,0-0.2,0-0.3c0-0.8-0.1-1.5-0.2-2.3c0-0.4-0.1-0.8-0.1-1.2v-0.2c0-0.3-0.1-0.5-0.1-0.8
		c-0.1-0.8-0.1-1.5-0.2-2.2c0-0.6-0.1-1.1-0.1-1.6v-0.5c-0.1-1-0.2-2.1-0.2-3.1v0.2l-0.1-1.4v-0.5v-0.4c-0.3,0-0.6,0.1-0.8,0.1h-1
		h-0.2c-0.2,0-0.5,0-0.8,0.1h-0.3H176c-0.4,0-0.9-0.1-1.4-0.1c-0.2,0-0.5,0-0.7,0s-0.4,0-0.6,0c-0.2,0-0.6-0.1-0.8-0.1h-0.1h-0.2
		c-0.3,0-0.7-0.1-1-0.1h-0.3h-0.5h-0.1H170h-0.1h-0.2h-0.1H169h-0.5c-0.1,0-0.3,0-0.4,0c-0.4,0-0.9,0.1-1.4,0.1
		c-0.4,0-0.8-0.4-0.8-0.8c0-0.2,0.1-0.5,0.3-0.6c0-1-0.1-1.9-0.2-2.7l-0.1-0.5v-0.1l0,0c-0.1-0.5-0.2-1-0.2-1.5c0-0.3,0-0.5,0-0.8
		V91c0-0.2,0-0.3,0-0.4c0-0.4,0-0.8,0-1.2c0-0.4,0-0.6,0-0.9v-0.3c0-0.2,0-0.4,0-0.6s0-0.5,0-0.8V86c0-0.6,0-1.2,0-1.8
		c0-0.9,0.1-1.8,0.1-2.6c0-0.8,0.1-1.6,0.2-2.3v-0.1v-0.5v-0.5l0,0c0.1-1.3,0.2-2.7,0.4-4.1V74v-0.1c0.1-0.5,0.1-0.9,0.2-1.4v-0.1
		l0.1-0.5c0.1-0.7,0.2-1.4,0.3-2.1l0.1-0.7V69c0.2-1.1,0.4-2.3,0.7-3.5l0.1-0.4c0.1-0.3,0.2-0.6,0.2-0.9c0.1-0.4,0.2-0.9,0.3-1.3
		c0.1-0.6,0.3-1.2,0.4-1.9l0.1-0.9c0.2-0.8,0.4-1.7,0.6-2.5l0.1-0.6v0c0.1-0.6,0.3-1.2,0.4-1.8c0.2-0.8,0.4-1.6,0.7-2.4
		c0.2-0.6,0.3-1.1,0.5-1.8l0.1-0.5c0.2-0.6,0.4-1.2,0.7-1.9l0.2-0.4c0.3-0.8,0.7-1.6,1-2.3l0.1-0.2l0.1-0.1c0.1-0.2,0.1-0.3,0.2-0.5
		c0.1-0.2,0.2-0.5,0.2-0.7c0.1-0.3,0.2-0.6,0.3-0.8c0-0.1,0-0.1,0.1-0.2v-0.1v-0.1l0.1-0.3c0-0.1,0.1-0.2,0.1-0.4l0.1-0.1
		c0-0.1,0.1-0.2,0.1-0.3c0.1-0.1,0.2-0.2,0.3-0.3l0,0l0.1-0.1c0.1-0.1,0.1-0.1,0.2-0.2c0.1-0.1,0.2-0.1,0.2-0.2H175
		c-0.4,0-0.9,0-1.3,0h-0.3c-0.1,0-0.3,0-0.4,0h-0.2h-0.7c-0.3,0.1-0.5,0.1-0.8,0h-0.8C169.8,41.2,169.2,41.2,168.6,41.2L168.6,41.2z
		"/>
	<path class="st2" d="M148.9,140L148.9,140z"/>
	<path class="st2" d="M226.4,139.3L226.4,139.3L226.4,139.3c-0.2,0.1-0.2,0.2-0.3,0.2l-0.2,0.1c-0.2,0.2-0.5,0.4-0.7,0.6l-0.3,0.1
		h0.1c0.4-0.1,0.7-0.3,1-0.5c0.1-0.1,0.2-0.3,0.3-0.4L226.4,139.3L226.4,139.3L226.4,139.3z"/>
	<path class="st3" d="M207.3,40.6c-0.4,0-0.8,0-1.2,0s-0.7,0.1-1,0.1l-1.2,0.1c-0.4,0-0.8,0.1-1.3,0.1h-1.3c-0.6,0-1.2,0-1.7,0h0.1
		c-0.7,0-1.4,0-2.1,0h-0.2c-0.3,0-0.7,0-1,0l-0.8-0.1c-0.5,0-0.9,0-1.4-0.1c-0.5,0-1,0.1-1.5,0.1c-0.3,0-0.5,0-0.8,0h-0.8
		c-0.6,0-1.2,0-1.8,0.1c-0.6,0-1.2,0.1-1.8,0.1c-0.5,0-1,0-1.5,0.1s-1.1,0.1-1.7,0.1c-0.3,0-0.7,0-1,0h-0.8c-0.5,0-1,0-1.5,0
		c-0.3,0-0.7,0-1,0.1s-0.8,0-1.2,0h0.2h-1.2c-0.6,0-1.1,0.1-1.7,0.1h-1c-0.1,0.1-0.2,0.1-0.2,0.2c-0.1,0.1-0.1,0.1-0.2,0.2l-0.1,0.1
		l0,0c-0.1,0.1-0.2,0.2-0.3,0.3c0,0.1-0.1,0.2-0.1,0.3l-0.1,0.1l-0.1,0.3c0,0.1-0.1,0.2-0.1,0.3v0.1v0.1c0,0.1,0,0.1-0.1,0.2
		c-0.1,0.3-0.2,0.6-0.3,0.8s-0.1,0.5-0.2,0.7c-0.1,0.2-0.1,0.3-0.2,0.5l-0.1,0.1l-0.1,0.2c-0.3,0.7-0.7,1.5-1,2.3l-0.2,0.4
		c-0.3,0.6-0.5,1.2-0.7,1.9l-0.1,0.5c-0.2,0.6-0.3,1.2-0.5,1.8c-0.2,0.8-0.4,1.6-0.6,2.4c-0.1,0.6-0.3,1.2-0.4,1.8v0.1l-0.1,0.6
		c-0.2,0.8-0.4,1.7-0.6,2.5l-0.2,0.7c-0.1,0.7-0.3,1.3-0.4,1.9l-0.3,1.3c-0.1,0.3-0.1,0.6-0.2,0.9l-0.1,0.4
		c-0.3,1.2-0.5,2.4-0.7,3.5V69l-0.1,0.7c-0.1,0.7-0.2,1.4-0.3,2.1l-0.1,0.4v0.1c-0.1,0.5-0.1,0.9-0.2,1.4v0.1v0.1
		c-0.2,1.4-0.3,2.7-0.4,4.1l0,0v0.5V79v0c-0.1,0.7-0.1,1.5-0.2,2.3c0,0.8-0.1,1.8-0.1,2.6c0,0.6,0,1.2,0,1.8v0.8c0,0.3,0,0.5,0,0.8
		s0,0.4,0,0.6v0.3c0,0.3,0,0.6,0,0.9s0,0.8,0,1.2c0,0.1,0,0.3,0,0.4v0.1c0,0.3,0,0.5,0,0.8c0,0.5,0.1,1,0.2,1.5l0,0v0.1l0.1,0.5
		c0.1,0.8,0.1,1.6,0.2,2.7c-0.2,0.2-0.3,0.4-0.3,0.6c0,0.4,0.4,0.8,0.8,0.8c0.5,0,1,0,1.4-0.1h0.4h0.4h0.4h0.1h0.2h0.2h0.3h0.1h0.5
		h0.3c0.3,0,0.7,0,1,0.1h0.2l0,0c0.3,0,0.5,0.1,0.8,0.1s0.4,0,0.6,0c0.2,0,0.5,0,0.7,0c0.5,0.1,1,0.1,1.4,0.1h0.4h0.3
		c0.3,0,0.5,0,0.8-0.1l0,0h0.2c0.3,0,0.6,0,1,0c0.3,0,0.6,0,0.8-0.1v0.4v0.5l0.1,1.4v0.1c0.1,1,0.1,2.1,0.2,3.1v0.5
		c0.1,0.5,0.1,1.1,0.1,1.6c0,0.7,0.1,1.5,0.2,2.2c0,0.3,0.1,0.6,0.1,0.8v0.2c0,0.4,0.1,0.8,0.1,1.2c0.1,0.7,0.1,1.4,0.1,2.2
		c0,0.1,0,0.2,0,0.3v0.1v0.7v0.4v0.3c0,0.2,0,0.3,0,0.5v0.3c0,0.3,0,0.6,0.1,0.9v0.2c0,0.3,0.1,0.6,0.1,0.9l0.1,0.7v0.4
		c0,0.1,0,0.3,0,0.4s0,0.4,0,0.6v0.4c0,0.3,0,0.6,0.1,0.8s0.1,0.7,0.1,1.1s0.1,0.8,0.1,1.2v0.2l0.1,0.6c0,0.3,0,0.6,0.1,0.9v0.4
		c0,0.2,0,0.3,0,0.5c0,0.5,0.1,0.9,0.1,1.4l0,0v0.5c0.1,0.7,0.1,1.3,0.2,1.9c0,0.2,0,0.3,0,0.5v0.1c0,0.2,0,0.4,0,0.5
		c0,0.3,0.1,0.7,0.1,1v0.1v0.2c0,0.2,0,0.5,0.1,0.7v0.1c0,0.2,0,0.5,0.1,0.7s0,0.5,0.1,0.7s0.1,0.7,0.1,1c0,0.1,0,0.1,0,0.2v0.1
		c0,0.2,0,0.4,0.1,0.7s0,0.3,0,0.4v0.4c0,0.3,0.1,0.6,0.2,0.8c0.1,0.2,0.1,0.5,0.2,0.8v0.3v0.1c0,0.7,0.2,1.4,0.5,2.1h0.5
		c0.5,0,1,0,1.5,0s1,0,1.5,0s1,0,1.6,0h1.5c1.1,0,2.1,0,3.2,0h1.5c0.6,0,1.1,0,1.7,0c1,0,2.1,0,3.1,0h2.3h1.4c1.1,0,2.3,0.1,3.4,0
		c0.5,0,1,0,1.5,0s1.1,0.1,1.6,0.1h1.7c0.6,0,1.1,0,1.7,0.1c0.6,0.1,1.1,0,1.6,0s0.9,0,1.4,0s1,0,1.5,0.1l1.6,0.1
		c0.6,0,1.2,0.1,1.7,0.1s1,0.1,1.6,0.1c0.5,0,1,0.1,1.6,0.1h0.4h0.1c0.5-0.1,0.9-0.3,1.3-0.6c0.3-0.2,0.5-0.3,0.7-0.5
		c0,0,0.1-0.1,0.2-0.1l0.2-0.2l0.1-0.1l0,0l0.2-0.2l0.2-0.2l0.2-0.2c0.3-0.2,0.5-0.5,0.6-0.8l0.1-0.1l0,0c0.1-0.1,0.1-0.3,0.2-0.4
		c0.2-0.3,0.3-0.6,0.4-1c0-0.1,0.1-0.2,0.1-0.3s0.1-0.2,0.1-0.3s0.1-0.2,0.1-0.3s0.1-0.3,0.2-0.5l0.2-0.7v-0.1c0-0.3,0-0.6,0-0.9
		c0-0.3,0.1-0.7,0.1-1.1c0-0.1,0-0.1,0-0.2c0-0.1,0-0.2,0-0.3s0-0.3,0-0.4V131v-0.3c0-0.2,0-0.3,0-0.4c0-0.2,0-0.3,0-0.5v-0.3
		c0-0.2,0-0.4,0-0.6v-0.1c0-0.4,0-0.9-0.1-1.3l0,0c0-0.6,0-1.2,0-1.8l0,0c0-0.2,0-0.5,0-0.7v0.2c0-0.3,0-0.5,0-0.8s0-0.5,0-0.7
		s0-0.5,0-0.7s0-0.5,0-0.7v0.2c0-0.4,0-0.7,0-1.1s0.1-0.6,0.1-0.9c0.1-0.6,0.1-1.2,0.1-1.8c0-0.3,0-0.6,0-0.9v0.1c0-0.4,0-0.8,0-1.2
		s0-0.6,0-0.9c0-0.5,0-1,0-1.5v-0.7c0-0.2,0-0.4,0-0.6v-0.6l0,0l0,0c0-0.5,0-0.9,0-1.4s0-0.9,0-1.4s0-0.9,0.1-1.4
		c0.1-0.4,0.1-0.8,0.2-1.3c0-0.4,0.1-0.8,0.1-1.2c0-0.4,0-0.9,0-1.4c0-1,0.1-1.9,0.1-2.9c0-0.5,0-1,0-1.5s0.1-0.8,0.1-1.2
		c0.1-1,0.1-2,0.2-3.1c0-0.5,0.1-1,0.1-1.5s0-1.1,0.1-1.7c0-0.6,0.1-1.1,0.1-1.6s0.1-1,0.1-1.5c0.1-1.1,0.1-2.1,0.1-3.2
		c0-0.5,0.1-1,0.1-1.6c0-0.5,0.1-1,0.1-1.6s0-0.9-0.1-1.3s-0.1-1-0.1-1.6v-1.2c0-0.4,0-0.7,0-1.1c0-0.6,0.1-1.3,0.1-1.9
		c0-0.4-0.1-0.9-0.1-1.3s0-1,0-1.4V73c0-0.2,0-0.4,0-0.6c0-0.6,0-1.2,0-1.8v-0.4c0-0.4,0-0.9,0-1.3s-0.1-0.8-0.1-1.3
		s-0.1-0.8-0.1-1.2c0-0.4,0-0.8,0-1.3s0-0.8,0-1.2c0-0.4,0-0.8,0.1-1.3c0.1-0.8,0.1-1.6,0.1-2.4c0-0.6,0-1.1,0-1.7
		c0-0.6,0-0.9,0-1.4c0-0.3,0-0.6-0.1-0.9l0,0v-0.1l-0.1-0.3c0-0.1,0-0.2,0-0.3v-0.2c0-0.2,0-0.5,0-0.7c0-0.5,0-1,0-1.5
		s-0.1-0.8-0.1-1.2s0-0.9,0-1.4c0-0.2,0-0.4,0-0.6c0-0.1-0.1-0.3-0.1-0.4c0-0.1-0.1-0.2-0.1-0.3s0-0.2,0-0.3s0-0.3,0-0.4v-0.2
		c0-0.1,0-0.1,0-0.2c0-0.3,0-0.6-0.1-0.8c0-0.3-0.1-0.5-0.2-0.9c-0.1-0.3-0.2-0.6-0.3-0.9c-0.1-0.1-0.1-0.3-0.2-0.4l0,0l0,0
		c0-0.1-0.1-0.2-0.1-0.3s-0.1-0.2-0.1-0.2v0.1l-0.1-0.1c0-0.1-0.1-0.1-0.1-0.2c-0.1-0.1-0.1-0.2-0.2-0.3l-0.1-0.2v-0.1
		c-0.1-0.1-0.2-0.2-0.2-0.3l0,0l0,0l-0.2-0.3c-0.1-0.2-0.3-0.4-0.5-0.6l-0.1-0.1c-0.2-0.2-0.4-0.4-0.6-0.6l-0.3-0.3l-0.4-0.1
		l-0.5-0.2c-0.3-0.1-0.5-0.1-0.8-0.2c-0.2,0-0.4-0.1-0.6-0.1c-0.1,0-0.3,0-0.4,0h-0.3l-0.8-0.1c-0.3,0-0.6-0.1-0.9-0.2h0.1
		c-0.3-0.1-0.5-0.1-0.8-0.1c-0.2,0-0.4-0.1-0.6-0.1h-0.2l-0.5,0.1c-0.4,0-0.7,0-1.1,0h-0.2c-0.3,0-0.6,0-0.8,0.1
		c-0.3,0.1-0.6,0.1-0.8,0.1c-0.3,0-0.6,0-0.9,0h-0.9c-0.3,0-0.6,0-0.9-0.1c-0.3-0.1-0.6,0-0.9,0s-0.7,0-1.1-0.1l-0.4-0.1h-0.3h-0.2
		c-0.5,0-1,0.1-1.5,0.1s-0.8-0.1-1.2-0.1L207.3,40.6L207.3,40.6z"/>
	<path class="st3" d="M228.9,123.9L228.9,123.9z"/>
	<path class="st3" d="M194,141.9h-0.7l0,0H194c0.2,0.1,0.4,0.1,0.6,0.1h0.2c0.3,0,0.5,0,0.8-0.1c0.1,0,0.1,0,0.2-0.1L194,141.9
		L194,141.9z"/>
	<path class="st3" d="M176.2,41.3c-0.5,0-0.9,0-1.4,0h-1.3c-0.1,0.2-0.2,0.4-0.2,0.7c0,0.1-0.1,0.2-0.1,0.4c0,0.1,0,0.3,0,0.4
		c-0.1,0.3-0.2,0.6-0.2,0.9c-0.1,0.3-0.3,0.8-0.4,1.1c0-0.1,0-0.1,0.1-0.2c-0.1,0.3-0.2,0.6-0.4,0.9c-0.1,0.4-0.3,0.7-0.4,1.1
		c-0.2,0.7-0.4,1.4-0.6,2.1c-0.2,0.7-0.4,1.3-0.6,1.9c-0.1,0.3-0.2,0.6-0.3,0.9c-0.1,0.3-0.2,0.7-0.3,1c-0.3,0.8-0.4,1.7-0.7,2.5
		l0.1-0.2c-0.1,0.3-0.3,0.7-0.4,1.1c-0.1,0.4-0.2,0.7-0.3,1s-0.2,0.6-0.2,0.9c-0.1,0.3-0.1,0.7-0.2,1c-0.1,0.7-0.3,1.3-0.5,1.9
		c-0.1,0.3-0.2,0.6-0.3,1c-0.1,0.3-0.2,0.7-0.3,1.1c-0.3,1.4-0.6,2.8-0.9,4.1c-0.1,0.3-0.1,0.7-0.2,1s-0.1,0.7-0.2,1
		c-0.1,0.7-0.2,1.3-0.4,2s-0.2,1.1-0.3,1.6s-0.2,1.2-0.3,1.9v-0.2c0,0.2,0,0.3,0,0.5l0,0l0,0c0,0.4-0.1,0.7-0.1,1.1l-0.1,0.9
		c0,0.3-0.1,0.6-0.1,0.9s-0.1,0.8-0.1,1.2c-0.1,0.7-0.1,1.3-0.1,2s0,1.4,0,2.1s-0.1,1.4-0.1,2.1c0,0.3,0,0.7,0,1c0,0.4,0,0.7,0,1.1
		c0.1,0.7,0.1,1.4,0.2,2c0,0.7,0.1,1.3,0.1,1.9c0,0.3,0,0.7,0,1s0,0.7,0,1s0,0.6,0,0.9l0.1,0.7c0,0.2,0,0.4,0.1,0.7
		c0,0.2,0,0.3,0,0.4s0,0.3,0.1,0.5c0,0.1,0,0.1,0,0.2s0.1,0.3,0.2,0.4c0.1,0.1,0.1,0.2,0.2,0.3c0,0.1,0.1,0.2,0.1,0.2
		c0.1,0.2,0.2,0.3,0.4,0.4c0.1,0.1,0.3,0.1,0.4,0.1h0.2c0.1,0,0.2,0,0.3,0s0.2-0.1,0.3-0.2l0,0h0.1c0.1,0,0.3-0.1,0.4-0.2
		c0.2-0.1,0.5-0.3,0.7-0.4s0.3-0.5,0.2-0.7s-0.5-0.3-0.7-0.2l0,0l-0.6,0.3l0,0H167h-0.1l0,0v-0.1c-0.1-0.1-0.1-0.1-0.1-0.2l0,0
		c0-0.1,0-0.2,0-0.2l0,0v-0.1c0-0.2,0-0.4-0.1-0.6s0-0.4,0-0.6v-1.5c0-0.2,0-0.3,0-0.5s0-0.4,0-0.6c0-0.3,0-0.7,0-1
		c0-0.6-0.1-1.3-0.1-1.9c0-0.4-0.1-0.8-0.1-1.2s-0.1-0.8-0.1-1.3c0-0.4,0-0.9,0-1.3s0-0.7,0-1.1v-0.1c0.1-0.6,0.1-1.1,0.1-1.7
		s0.1-1,0.1-1.5s0-0.9,0-1.4s0.1-0.9,0.1-1.4s0.1-1.1,0.2-1.6c0-0.5,0.1-1,0.1-1.5v0.2c0-0.4,0.1-0.8,0.1-1.2v-0.1
		c0.1-0.7,0.2-1.4,0.3-2.1s0.2-1.3,0.3-2s0.2-1.3,0.3-2c0.1-0.3,0.1-0.7,0.2-1s0.1-0.7,0.2-1.1l0.2-1l0.2-1c0.1-0.4,0.2-0.7,0.3-1.1
		c0.1-0.4,0.1-0.7,0.2-1c0.2-0.7,0.4-1.3,0.5-2c0.1-0.3,0.1-0.6,0.2-0.9c0.1-0.3,0.2-0.7,0.3-1c0.2-0.6,0.3-1.2,0.5-1.8
		s0.4-1.1,0.6-1.7s0.4-1.2,0.5-1.8c0.1-0.3,0.2-0.6,0.3-0.9c0.1-0.3,0.2-0.6,0.3-0.9c0,0.1-0.1,0.1-0.1,0.2c0.2-0.4,0.3-0.8,0.4-1.2
		c0.1-0.4,0.2-0.7,0.3-1.1c0.2-0.8,0.4-1.5,0.7-2.3l0,0l0.4-1.2c0,0.1,0,0.1-0.1,0.2c0.2-0.5,0.3-1,0.5-1.4c0.1-0.2,0.1-0.4,0.2-0.6
		c0.1-0.2,0.1-0.3,0.1-0.5l0.1-0.3l0.1-0.2c0-0.1,0-0.1,0.1-0.1l0.2-0.1h0.1h0.2h0.3c0.1,0,0.2-0.1,0.3-0.1h0.2
		c0.2,0,0.4-0.1,0.5-0.1c0.1-0.1,0.3-0.1,0.4-0.1c0.1,0,0.1,0,0.2,0c0.1,0,0.3,0,0.4,0h0.1l0.3-0.1l0.3-0.1c0.2,0,0.3-0.2,0.4-0.3
		l0,0H178C177.4,41.2,176.8,41.3,176.2,41.3L176.2,41.3z"/>
	<path class="st4" d="M173.7,41L173.7,41z"/>
	<path class="st4" d="M174.1,41.2c-0.1,0-0.3,0-0.4,0c-0.1,0-0.2,0-0.3,0h-0.2c-0.1,0-0.3,0-0.4,0c-0.1,0-0.2,0-0.3-0.1v0.2
		c-0.1,0.3-0.2,0.5-0.3,0.8s-0.1,0.5-0.2,0.8c-0.2,0.5-0.4,1-0.5,1.5c-0.1,0.4-0.2,0.7-0.3,1.1c-0.1,0.2-0.1,0.3-0.1,0.5
		c-0.1,0.2-0.1,0.4-0.2,0.6c-0.1,0.2-0.1,0.7-0.2,1c-0.1,0.3-0.2,0.8-0.3,1.2s-0.2,0.8-0.3,1.2s-0.2,0.7-0.3,1s-0.3,0.8-0.5,1.2
		s-0.3,1-0.5,1.5c-0.3,0.9-0.5,1.8-0.8,2.6c-0.2,0.5-0.3,0.9-0.5,1.4s-0.3,0.9-0.4,1.3c-0.1,0.4-0.2,0.9-0.3,1.3
		c0,0.2-0.1,0.4-0.1,0.6c0,0.3-0.1,0.5-0.2,0.7c-0.1,0.4-0.2,0.8-0.3,1.2c-0.1,0.2-0.1,0.4-0.1,0.7c0,0.2-0.1,0.4-0.1,0.7
		c-0.2,0.9-0.3,1.9-0.5,2.8s-0.4,1.7-0.5,2.6c-0.1,0.4-0.1,0.8-0.2,1.2s-0.1,0.9-0.2,1.4c-0.1,0.5-0.1,0.8-0.2,1.3
		c-0.1,0.4-0.1,0.9-0.2,1.3v-0.2c-0.1,0.8-0.2,1.7-0.3,2.6s-0.3,1.7-0.4,2.6c-0.1,0.4-0.1,0.8-0.2,1.2c-0.1,0.5-0.1,1.1-0.1,1.6
		s0,0.9,0,1.4c0,0.2,0,0.5,0,0.7c0,0.3,0.1,0.5,0.1,0.8c0,0.5,0,0.9,0,1.4c0,0.3,0,0.5,0,0.8s0,0.5,0,0.8s0,0.7,0,1.1s0,0.4,0,0.7
		c0,0.2,0,0.3,0,0.5c0,0.4-0.1,0.8-0.1,1.1c0,0.4,0,0.9,0.1,1.3c0,0.5,0.1,0.9,0.2,1.3c0.1,0.3,0.2,0.7,0.2,1l0,0
		c0.1,0.4,0.2,0.9,0.3,1.3s0.2,0.7,0.3,1c0,0.2,0,0.3,0.1,0.5c0,0.2,0.1,0.4,0.2,0.6l0.2,0.4c0.1,0.1,0.2,0.3,0.3,0.4l0.2,0.2
		c0.1,0.1,0.2,0.1,0.3,0.2c0.1,0,0.2,0.1,0.2,0.1h0.1c0.1,0,0.3,0.1,0.4,0.1c0.1,0,0.2,0,0.2,0c0.1,0,0.2,0.1,0.3,0.1s0.3,0,0.4,0.1
		c0.2,0,0.4,0,0.6,0l0.4-0.1h0.1h0.3c0.1,0,0.2,0,0.3,0h0.2l0.2-0.1l0,0c0.1,0,0.3,0,0.4,0h0.3h0.1h0.2c0.1,0,0.3,0.1,0.4,0.1
		l0.3,0.1c0.2,0.1,0.5,0.1,0.7,0c0.2,0,0.3,0,0.5,0h0.2h0.2h0.1c0.2,0,0.3,0.1,0.5,0.1c0.1,0,0.2,0,0.4,0h0.3c0.2,0,0.4,0,0.7,0
		s0.5-0.1,0.8-0.2c0.2,0,0.3,0,0.5,0s0.3,0,0.5-0.1l0.2-0.1h0.2h0.3l0.3,0.1c0.1,0,0.3,0,0.4,0c0.1,0,0.2,0,0.3,0h0.5
		c0,0.2,0,0.3,0.1,0.5V100c0,0.3,0.1,0.6,0.1,0.9c0,0.4,0,0.8,0,1.2c0,0.4,0,0.9,0,1.3s0,1,0,1.5s0,0.9,0,1.4s0.1,0.9,0.1,1.4
		s0,0.9,0.1,1.3s0.1,0.9,0,1.4s0,0.8,0,1.2l0.1,0.7c0,0.2,0,0.5,0,0.7c0,0.5,0.1,1,0.1,1.5s0.1,1,0.1,1.5s0.1,0.9,0.1,1.4
		c0.1,0.5,0.1,0.9,0.2,1.4s0.1,0.9,0.1,1.3s0.1,0.8,0.1,1.1c0,0.2,0,0.3,0,0.5s0,0.4,0.1,0.7c0.1,0.3,0.1,0.7,0.2,1
		c0.1,0.4,0.1,0.9,0.1,1.3s0,0.8,0.1,1.2c0,0.2,0.1,0.4,0.1,0.6c0,0.3,0,0.6,0,0.8c0,0.5,0,0.9,0,1.4c0,0.2,0.1,0.5,0.1,0.7
		c0,0.3,0,0.5,0,0.8c0,0.5,0.1,1,0.1,1.5c0.1,0.9,0.3,1.8,0.4,2.8c0.1,0.5,0.1,1.1,0.2,1.6l0,0v0.1l0,0c0,0.2,0.1,0.5,0.1,0.7
		c0.1,0.6,0.2,1.2,0.3,1.8c0.1,0.2,0.2,0.5,0.3,0.7s0.3,0.5,0.4,0.8c0.1,0.3,0.2,0.4,0.2,0.6c0.1,0.2,0.3,0.3,0.5,0.3
		c0.2-0.1,0.3-0.3,0.3-0.5l0,0l-0.3-0.7c-0.1-0.2-0.1-0.3-0.2-0.5c-0.1-0.5-0.1-1.1-0.1-1.6c0-0.3,0-0.6-0.1-0.9s-0.1-0.7-0.1-1
		s-0.1-0.6-0.1-1c0-0.3-0.1-0.6-0.1-1c-0.1-0.7-0.2-1.4-0.3-2.2v0.2c-0.1-0.6-0.1-1.2-0.2-1.8c0-0.3,0-0.6,0-0.9
		c0-0.3-0.1-0.7-0.1-1c-0.1-0.4-0.1-0.9-0.1-1.3c0-0.2,0-0.5,0-0.7s-0.1-0.4-0.1-0.6c-0.1-0.8,0-1.7-0.1-2.5
		c-0.1-0.4-0.1-0.9-0.2-1.3c0-0.4,0-0.8,0-1.2s-0.1-0.8-0.1-1.1c0-0.4,0-1-0.1-1.5s0-0.8-0.1-1.2c-0.1-0.4-0.1-1-0.1-1.5
		s-0.1-1-0.1-1.5l-0.1-0.8c0-0.2,0-0.5,0-0.7c0-0.4-0.1-0.9-0.1-1.3s0-0.9,0-1.3l-0.1-1.4c0-0.2,0-0.4,0-0.6s-0.1-0.5-0.1-0.7
		c0-0.5-0.1-0.9-0.1-1.4s0-0.9,0-1.4s0-0.9,0-1.4s0-0.8-0.1-1.3c0-0.2,0-0.4-0.1-0.6s0-0.3,0-0.4s0-0.5,0-0.8s-0.1-0.6-0.3-0.9
		c-0.1-0.2-0.3-0.4-0.5-0.5s-0.5-0.1-0.7-0.1h-0.3c-0.1,0-0.3,0-0.4,0l-0.3-0.1c-0.2,0-0.4,0-0.6,0c-0.1,0-0.2,0-0.3,0s-0.2,0-0.4,0
		c-0.3,0-0.5,0-0.8,0.1c-0.3,0-0.5,0.1-0.8,0.2h-0.7c-0.2,0-0.4,0-0.6,0c-0.2,0-0.4-0.1-0.6-0.1h-0.2h-0.2c-0.3,0-0.5,0-0.8,0.1l0,0
		h-0.1c-0.1,0-0.1,0-0.2,0H171c-0.1,0-0.2,0-0.4,0h-0.4c-0.1,0-0.3,0-0.4,0.1h-0.1c-0.2,0-0.3,0-0.5,0c-0.1,0-0.3,0.1-0.4,0.1h-0.1
		c-0.2,0-0.3,0-0.5,0c-0.1,0-0.2,0-0.3,0h-0.1c-0.1,0-0.2,0-0.3-0.1h-0.1c-0.1,0-0.3,0-0.4-0.1c-0.2-0.1-0.5-0.1-0.7,0l0,0
		c-0.1-0.1-0.1-0.2-0.2-0.3c0-0.1-0.1-0.2-0.1-0.3c0-0.1,0-0.2,0-0.3v0.1v-0.1l0,0l0,0l0,0l0,0c-0.1-0.7-0.3-1.3-0.4-1.9v-0.2l0,0
		c0-0.2-0.1-0.5-0.2-0.7c-0.1-0.2-0.1-0.5-0.2-0.8c-0.1-0.4-0.1-0.8-0.2-1.3c0-0.4,0-0.8,0-1.3c0-0.2,0-0.4,0-0.6s0-0.4,0-0.6v-1.5
		c0-0.5,0-0.9,0-1.4s0-0.9,0-1.4s0-0.9,0-1.4s0-1,0-1.4s0-0.9,0.1-1.3s0.1-0.8,0.1-1.2v-0.4c0.1-0.4,0.1-0.9,0.2-1.3
		c0-0.2,0.1-0.4,0.1-0.6s0-0.4,0.1-0.6c0.1-0.8,0.3-1.6,0.4-2.4c0.1-0.4,0.1-0.9,0.2-1.3c0.1-0.5,0.2-0.9,0.3-1.4
		c0.1-0.8,0.2-1.7,0.4-2.5s0.4-1.7,0.5-2.6c0.1-0.5,0.2-0.9,0.2-1.4c0.1-0.5,0.1-0.9,0.2-1.4c0-0.2,0.1-0.4,0.1-0.6
		c0-0.3,0.1-0.5,0.2-0.8c0.1-0.4,0.2-0.8,0.3-1.2s0.1-0.9,0.2-1.3c0.1-0.4,0.2-0.9,0.3-1.3c0.1-0.4,0.2-0.8,0.3-1.2s0.3-1,0.4-1.5
		c0.1-0.5,0.2-0.9,0.3-1.3s0.3-0.9,0.4-1.3c0.1-0.4,0.3-0.9,0.4-1.4c0.2-0.5,0.3-0.9,0.5-1.3c0.1-0.4,0.3-1,0.4-1.4s0.2-1,0.4-1.4
		c0.1-0.5,0.2-0.8,0.3-1.3c0.1-0.2,0.1-0.5,0.2-0.7c0-0.2,0.1-0.5,0.2-0.7c0.1-0.3,0.2-0.7,0.3-1s0.1-0.5,0.2-0.7
		c0-0.1,0.1-0.2,0.2-0.3c0.1-0.2,0.1-0.3,0.2-0.5l0.2-0.5c0.1-0.1,0.1-0.3,0.2-0.4c0.1-0.2,0.2-0.4,0.3-0.7l0.1-0.3h-0.2L174.1,41.2
		z M168.5,98.2L168.5,98.2z"/>
	<polygon class="st4" points="165.5,94.8 165.5,94.8 165.5,94.8 	"/>
	<polygon class="st4" points="163.9,95.1 163.9,95.1 163.9,95.1 	"/>
	<path class="st4" d="M165.9,97L165.9,97L165.9,97z"/>
	<path class="st4" d="M181.2,135.7L181.2,135.7z"/>
	<polygon class="st4" points="181.2,135.8 181.2,135.8 181.2,135.8 181.2,135.8 	"/>
	<polygon class="st4" points="181.2,135.8 181.2,135.8 181.2,135.8 	"/>
	<polygon class="st4" points="181.2,135.8 181.2,135.8 181.2,135.8 181.2,135.8 	"/>
	<path class="st5" d="M151.3,65.1c-0.2,0-0.5,0-0.7,0.1c-0.2,0-0.3,0.1-0.5,0.2c-0.1,0-0.2,0.1-0.3,0.1c-0.1,0.1-0.3,0.1-0.4,0.2
		c-0.2,0.2-0.4,0.4-0.5,0.6l-0.1,0.2c-0.2,0.1-0.3,0.3-0.3,0.5c0,0.1,0,0.2,0,0.3s-0.1,0.4-0.1,0.6l0,0c0,0.2-0.1,0.3-0.1,0.5
		c-0.1,0.3-0.1,0.6-0.2,0.9s0,0.4,0,0.6s0,0.3,0,0.5c0,0.3,0,0.5,0,0.8c0-0.1,0-0.2,0-0.3c0,0.2,0,0.5,0.1,0.7c0-0.1,0-0.1,0-0.2
		c0,0.1,0,0.3,0,0.4V72c0,0.1,0,0.3,0,0.4s0,0.2,0,0.3c0,0.2,0,0.4,0,0.5s0,0.2,0,0.3c0,0.2,0,0.4,0,0.5c0,0.3,0,0.6,0,0.9V75
		c0,0.1,0,0.1,0,0.1l0,0c0,0.1,0,0.3,0.1,0.4c0,0.2,0.1,0.3,0.1,0.5s0.1,0.4,0.2,0.6c0,0.1,0.1,0.2,0.2,0.3l0,0
		c0.1,0.1,0.1,0.2,0.2,0.3c0.1,0.1,0.2,0.3,0.3,0.4c0.2,0.2,0.4,0.4,0.6,0.5h-0.1c0.2,0.1,0.4,0.2,0.5,0.2c0.2,0,0.4,0.1,0.5,0.1
		c0.2,0,0.3,0,0.5-0.1h0.2h0.2c0.1,0,0.2-0.1,0.3-0.1c0.2-0.1,0.3-0.1,0.4-0.2c0.3-0.2,0.5-0.4,0.7-0.7c0.3-0.5,0.4-1,0.5-1.6
		c0-0.2,0-0.4,0.1-0.6s0-0.4,0-0.6s0-0.4,0-0.6s0-0.2,0-0.4s0-0.3,0-0.4c0-0.4,0-0.7,0-1.1c0-0.2,0-0.4,0-0.6s0-0.5,0-0.7V71
		c0-0.2,0-0.5,0-0.7s0-0.4,0-0.6s0-0.4,0-0.6s0-0.5,0-0.8c0-0.1,0-0.1,0-0.2c0-0.5-0.1-0.9-0.2-1.4c0-0.2-0.1-0.3-0.2-0.5
		c-0.1-0.2-0.2-0.3-0.3-0.4l-0.2-0.2c-0.2-0.2-0.3-0.3-0.6-0.3h-0.1l-0.3-0.1C151.7,65.2,151.5,65.1,151.3,65.1L151.3,65.1l-0.3,0
		L151.3,65.1z M148.3,68.5L148.3,68.5z"/>
	<path class="st5" d="M197.4,64.9c-0.2,0.1-0.4,0.2-0.6,0.3c-0.2,0.1-0.3,0.2-0.5,0.3c-0.1,0.1-0.3,0.3-0.4,0.4
		c-0.2,0.2-0.3,0.5-0.4,0.8c-0.1,0.2-0.1,0.4-0.2,0.6c-0.1,0.5-0.1,1-0.1,1.6s0.1,1.2,0.2,1.8c0,0.4,0.1,0.8,0.1,1.2
		c0,0.2,0,0.3,0.1,0.5s0,0.3,0,0.5c0,0.3,0,0.6,0,0.9s0,0.6,0,1s0,0.6,0.1,0.9c0,0.3,0.1,0.6,0.3,0.8c0.1,0.3,0.3,0.5,0.5,0.7
		s0.4,0.4,0.7,0.5l0,0c0.2,0.1,0.5,0.2,0.7,0.3l0.4,0.1c0.1,0,0.3,0,0.4,0c0.2,0,0.5-0.1,0.7-0.2s0.4-0.2,0.6-0.4
		c0.2-0.2,0.4-0.4,0.6-0.7c0.1-0.3,0.3-0.5,0.4-0.8c0.1-0.5,0.2-1.1,0.2-1.6l0.1-0.5c0,0.1,0,0.2,0,0.2c0-0.3,0.1-0.5,0.1-0.8l0,0
		l0,0l0,0v-0.1v-0.1c0-0.2,0.1-0.5,0.1-0.7s0-0.5,0.1-0.8c0-0.5,0-1,0-1.5l0,0c0-0.4-0.1-0.8-0.1-1.1s-0.1-0.7-0.2-1
		c-0.1-0.3-0.1-0.7-0.2-1c-0.1-0.3-0.1-0.6-0.2-0.9c-0.1-0.4-0.3-0.7-0.5-1c-0.3-0.3-0.6-0.5-1-0.6c-0.3-0.1-0.6-0.1-0.9-0.1h-0.1
		C198.1,64.7,197.7,64.8,197.4,64.9L197.4,64.9z M201.5,73.4L201.5,73.4L201.5,73.4L201.5,73.4L201.5,73.4z"/>
	<path class="st5" d="M147.8,65.3c-0.1,0-0.1,0.1-0.2,0.2c0,0.1,0,0.2,0,0.2c0.1,0.1,0.1,0.2,0.2,0.3l0.2,0.2
		c0.1,0.1,0.2,0.3,0.3,0.4l0.2,0.2l0.2,0.2c0.1,0.2,0.3,0.3,0.4,0.4c0.1,0.1,0.2,0.2,0.3,0.1s0.2-0.2,0.1-0.3c0,0,0,0-0.1-0.1
		s-0.3-0.3-0.4-0.4c-0.1-0.1-0.2-0.3-0.3-0.4s-0.2-0.3-0.3-0.4l-0.2-0.3c-0.1-0.1-0.1-0.2-0.2-0.3c-0.1-0.1-0.1-0.1-0.2-0.1V65.3z"
		/>
	<path class="st5" d="M149.4,64c-0.1,0-0.1,0.1-0.1,0.2s0,0.2,0,0.2c0.1,0.3,0.3,0.7,0.4,1c0.1,0.2,0.2,0.3,0.3,0.5s0.2,0.3,0.3,0.5
		c0.1,0.1,0.2,0.2,0.4,0.1c0.1,0,0.1-0.1,0.1-0.1c0-0.1,0-0.1,0-0.2c-0.1-0.1-0.2-0.3-0.3-0.4c-0.1-0.2-0.1-0.3-0.2-0.4
		s-0.2-0.6-0.3-0.9l0,0l-0.1-0.4c-0.1-0.1-0.2-0.2-0.3-0.2C149.5,64,149.5,64,149.4,64L149.4,64z"/>
	<path class="st5" d="M151.9,63.3c-0.1,0-0.2,0.1-0.2,0.2c0,0.2-0.1,0.4-0.1,0.5c0,0.2,0,0.4-0.1,0.6s0,0.4-0.1,0.6
		s-0.1,0.4-0.1,0.6c0,0.1,0,0.1,0.1,0.2c0,0,0.1,0.1,0.2,0.1c0.1,0,0.1,0,0.2-0.1c0,0,0.1-0.1,0.1-0.2c0-0.2,0.1-0.5,0.1-0.7
		s0.1-0.5,0.1-0.7s0.1-0.3,0.1-0.5c0-0.2,0.1-0.3,0.1-0.5c0-0.1,0-0.1,0-0.2c0-0.1-0.1-0.1-0.2-0.1H152
		C152,63.3,152,63.3,151.9,63.3L151.9,63.3z"/>
	<path class="st5" d="M154.1,64.5c-0.1,0-0.1,0.1-0.1,0.1l-0.1,0.1l-0.1,0.1c0,0.1-0.1,0.1-0.1,0.2c-0.2,0.2-0.3,0.4-0.5,0.6
		s-0.4,0.5-0.5,0.7c-0.1,0.1-0.1,0.3,0.1,0.4l0,0c0.1,0.1,0.3,0.1,0.4-0.1l0,0c0.1-0.2,0.2-0.3,0.4-0.5c0.1-0.2,0.3-0.3,0.4-0.4
		l0.3-0.3c0.1-0.1,0.1-0.2,0.2-0.3l0,0c0.1-0.1,0.1-0.3,0.1-0.4c-0.1-0.1-0.2-0.2-0.3-0.2C154.2,64.5,154.1,64.5,154.1,64.5
		L154.1,64.5z"/>
	<path class="st5" d="M155,66.2c-0.2,0.1-0.3,0.1-0.5,0.2c-0.1,0.1-0.3,0.2-0.4,0.2c-0.2,0.1-0.4,0.1-0.6,0.2
		c-0.2,0-0.2,0.2-0.2,0.4l0,0c0,0.1,0.2,0.2,0.3,0.2c0.3-0.1,0.6-0.1,0.8-0.2c0.1-0.1,0.2-0.1,0.4-0.2c0.1-0.1,0.2-0.1,0.4-0.2
		c0.1-0.1,0.2-0.2,0.2-0.3C155.3,66.3,155.2,66.2,155,66.2L155,66.2z"/>
	<path class="st5" d="M195.2,64.5c-0.1,0.1-0.2,0.1-0.2,0.2s0,0.2,0,0.3c0,0.1,0.1,0.2,0.2,0.3l0.2,0.2c0.1,0.1,0.2,0.2,0.3,0.3
		l0.8,0.7c0.1,0.1,0.2,0.1,0.3,0.1c0.2,0,0.4-0.1,0.4-0.3l0,0c0-0.1,0-0.2-0.1-0.3c-0.4-0.3-0.7-0.7-1-1.1c-0.1-0.1-0.2-0.3-0.3-0.4
		s-0.2-0.1-0.3-0.1C195.3,64.5,195.2,64.5,195.2,64.5L195.2,64.5z"/>
	<path class="st5" d="M196.8,63c-0.2,0-0.3,0.2-0.3,0.3c0,0.2,0.1,0.4,0.1,0.6c0.1,0.2,0.1,0.4,0.2,0.6s0.1,0.4,0.2,0.6
		c0.1,0.2,0.2,0.4,0.3,0.6s0.3,0.2,0.5,0.1s0.2-0.3,0.1-0.4c-0.1-0.1-0.1-0.3-0.2-0.4c0-0.1-0.1-0.2-0.1-0.3c0-0.1-0.2-0.5-0.2-0.7
		c0-0.1-0.1-0.2-0.1-0.3c0-0.2-0.1-0.3-0.1-0.4C197.2,63.1,197,63,196.8,63L196.8,63L196.8,63z"/>
	<path class="st5" d="M198.8,62.8c-0.1,0.2-0.1,0.4-0.1,0.6c0,0.2,0,0.3,0,0.5c0,0.4,0,0.7-0.1,1.1c0,0.2,0.1,0.3,0.3,0.4
		c0.2,0,0.3-0.1,0.4-0.3l0,0c0-0.4,0-0.7,0.1-1.1l0.1-0.5c0-0.1,0-0.2,0-0.2s0-0.2,0-0.3s-0.1-0.3-0.2-0.3h-0.1
		C199,62.6,198.9,62.7,198.8,62.8L198.8,62.8z"/>
	<path class="st5" d="M200.9,64.3l-0.2,0.3c0,0.1-0.1,0.2-0.2,0.2c-0.1,0.1-0.2,0.2-0.3,0.3l-0.3,0.3h0.1l-0.4,0.2
		c-0.1,0-0.1,0.1-0.1,0.2s0,0.1,0,0.2c0.1,0.1,0.2,0.2,0.3,0.1l0,0l0,0c0.3-0.2,0.6-0.4,0.9-0.6c0.3-0.2,0.5-0.5,0.7-0.8
		c0.1-0.1,0-0.3-0.1-0.4C201.2,64.2,201,64.2,200.9,64.3L200.9,64.3z"/>
	<path class="st5" d="M202,65.6l-0.3,0.2l-0.3,0.2l-0.6,0.4c-0.1,0-0.2,0.1-0.2,0.2s0,0.2,0,0.3c0,0.1,0.1,0.2,0.2,0.2
		c0.1,0,0.2,0,0.3,0c0.2-0.1,0.4-0.3,0.6-0.4l0.3-0.2c0.1-0.1,0.3-0.1,0.4-0.2c0.1-0.1,0.1-0.3,0.1-0.4c-0.1-0.1-0.2-0.2-0.3-0.2
		C202.1,65.6,202,65.6,202,65.6L202,65.6z"/>
	<path class="st5" d="M143.9,102.4c-0.1,0-0.2,0-0.4,0.1c-0.4,0-0.7,0.2-1,0.4l-0.2,0.2c-0.2,0.1-0.3,0.3-0.4,0.4
		c-0.1,0.1-0.2,0.3-0.3,0.5s-0.2,0.4-0.2,0.6s-0.1,0.4-0.1,0.6s0,0.4,0,0.7c0,0.3,0.1,0.5,0.2,0.8c0.1,0.2,0.1,0.3,0.2,0.4
		c0.1,0.3,0.3,0.6,0.5,0.9c0.2,0.4,0.5,0.7,0.7,1.1s0.4,0.7,0.7,1c0.6,0.7,1.3,1.3,2,1.9l1,0.9c0.4,0.3,0.7,0.6,1.1,0.9
		c0.5,0.3,1,0.6,1.5,0.9c0.4,0.2,0.8,0.5,1.2,0.7l1.2,0.6c0.4,0.2,0.7,0.4,1.1,0.6s0.8,0.3,1.2,0.5l1.3,0.5c0.9,0.3,1.8,0.7,2.6,0.9
		c0.3,0.1,0.6,0.2,0.9,0.3l0.6,0.1c0.4,0.1,0.9,0.2,1.3,0.3s0.9,0.2,1.3,0.2c0.4,0.1,0.7,0.2,1.1,0.3c0.3,0.1,0.7,0.2,1,0.3
		c0.3,0.1,0.7,0.1,1,0.1l0.8,0.1c0.5,0.1,1,0.1,1.5,0.1h-0.4h0.5c0.9,0.1,1.9,0.2,2.8,0.3c1,0.1,2.1,0.2,3.2,0.2
		c0.5,0,1.1-0.1,1.6-0.1s0.9,0,1.4-0.1s1-0.1,1.6-0.2s0.9,0,1.4,0h0.5c0.5,0,0.9,0,1.4,0c0.8-0.1,1.6-0.2,2.5-0.4
		c0.6-0.2,1.3-0.4,1.9-0.5c0.6-0.1,1.2-0.3,1.8-0.4c0.9-0.2,1.8-0.4,2.7-0.6s1.6-0.4,2.4-0.6c0.8-0.3,1.4-0.5,2.2-0.8
		c0.4-0.2,0.8-0.3,1.2-0.5s0.8-0.4,1.2-0.6s0.8-0.4,1.2-0.5c0.4-0.2,0.6-0.3,0.9-0.5l0.6-0.4c0.4-0.2,0.8-0.5,1.2-0.7
		c0.4-0.3,0.9-0.6,1.4-0.9c0.4-0.2,0.7-0.5,1-0.8c0.4-0.3,0.8-0.6,1.3-1c0.8-0.7,1.6-1.4,2.4-2.2c0.2-0.2,0.3-0.4,0.5-0.7
		c0.3-0.4,0.5-0.8,0.8-1.2c0.2-0.4,0.3-0.8,0.3-1.2l0.1-0.4c0.1-0.8-0.2-1.6-0.8-2.2c-0.4-0.4-1-0.6-1.6-0.5h-0.3
		c-0.2,0-0.5,0.1-0.7,0.2c-0.6,0.2-1.2,0.5-1.8,0.9c-0.4,0.3-0.8,0.7-1.1,1c-0.1,0.1-0.3,0.3-0.4,0.4c-0.2,0.2-0.3,0.5-0.5,0.7
		c-0.1,0.2-0.2,0.3-0.3,0.5l-0.3,0.2c-0.2,0.1-0.3,0.3-0.5,0.5c-0.4,0.3-0.8,0.7-1.2,1s-1,0.8-1.5,1.1c-0.5,0.4-1,0.7-1.5,1
		c-0.3,0.2-0.5,0.4-0.8,0.6s-0.6,0.3-0.9,0.5l0.1-0.1l-1,0.5c-0.5,0.2-1,0.5-1.6,0.7s-1.2,0.5-1.8,0.7s-1.1,0.4-1.7,0.5l-1,0.3
		c-0.3,0.1-0.7,0.2-1.1,0.3l-1.3,0.2c-0.5,0.1-1,0.1-1.5,0.2c-1,0.1-2,0.3-3.1,0.4c-1,0.1-2,0.3-3,0.4c-0.5,0.1-1,0-1.5,0
		s-0.9,0-1.4,0h-1.2H172c-0.8-0.1-1.7-0.1-2.5-0.2s-1.7-0.3-2.5-0.4c-0.4-0.1-0.9-0.2-1.3-0.3c-0.4-0.1-0.9-0.2-1.4-0.3
		c-0.8-0.2-1.7-0.4-2.5-0.6c-0.5-0.2-1.1-0.4-1.6-0.6l-0.9-0.3l-0.9-0.4c-0.6-0.3-1.2-0.5-1.7-0.8c-0.3-0.2-0.6-0.3-0.9-0.5
		l-0.7-0.4L154,110l0.3,0.2l-0.5-0.4c-0.5-0.3-0.9-0.6-1.4-1c-0.2-0.2-0.4-0.3-0.6-0.5c-0.2-0.2-0.3-0.3-0.5-0.5s-0.3-0.3-0.5-0.5
		s-0.4-0.4-0.6-0.5c-0.2-0.2-0.3-0.3-0.5-0.5l-0.5-0.4c-0.1-0.1-0.2-0.3-0.4-0.4l-0.3-0.3c-0.1-0.1-0.2-0.2-0.3-0.3l-0.4-0.3
		c-0.3-0.2-0.5-0.5-0.7-0.7c-0.3-0.3-0.7-0.5-1.1-0.8c-0.3-0.2-0.7-0.3-1-0.4s-0.7-0.1-1-0.1L143.9,102.4L143.9,102.4z M153.5,109.3
		L153.5,109.3L153.5,109.3z"/>
	<g>
		<rect x="261.4" y="61.4" class="st6" width="495" height="27"/>
		<text transform="matrix(1 0 0 1 261.45 77.13)" class="st7 st8 st9">“Design Elixir Online Store” is not available yet. </text>
		<rect x="261.4" y="98.4" class="st6" width="541" height="15"/>
		<text transform="matrix(1 0 0 1 261.45 112.7003)" class="st7 st10 st11">Check back for hand-crafted digital assetts, fonts &amp; more!</text>
	</g>
</g>
<g id="Layer_2_1_">
	<g id="Draw_Layer_1_">
		<circle class="st12" cx="99.8" cy="24.6" r="20.5"/>
		<path class="st13" d="M99.8,25.6l-7,8.7H91l7.9-9.9l-7.6-9.5h1.8l6.7,8.4l6.7-8.3h1.8l-7.6,9.5l7.8,9.9h-1.8L99.8,25.6z"/>
	</g>
</g>
</svg>
