<?xml version="1.0" encoding="utf-8"?>
<!-- Generator: Adobe Illustrator 24.2.0, SVG Export Plug-In . SVG Version: 6.00 Build 0)  -->
<svg version="1.1" id="Layer_1" xmlns="http://www.w3.org/2000/svg" xmlns:xlink="http://www.w3.org/1999/xlink" x="0px" y="0px"
	 viewBox="0 0 848.1 165.6" style="enable-background:new 0 0 848.1 165.6;" xml:space="preserve">
<style type="text/css">
	.st0{fill:#8792B4;}
	.st1{fill:none;stroke:#384173;stroke-width:5;stroke-miterlimit:10;}
	.st2{fill:#707DA7;}
	.st3{fill:#C7CCDD;}
	.st4{opacity:0.63;fill:#48578E;enable-background:new    ;}
	.st5{fill:#2F345B;}
	.st6{fill:none;}
	.st7{enable-background:new    ;}
	.st8{fill:#FFFFFF;}
	.st9{fill:#384173;}
	.st10{opacity:0.88;fill:#E8E8E8;enable-background:new    ;}
</style>
<g id="Draw_Layer">
	<path class="st0" d="M109.7,19.5H827c10.1,0,18.4,8.2,18.4,18.4v106.9c0,10.1-8.2,18.4-18.4,18.4H109.7c-10.1,0-18.4-8.2-18.4-18.4
		v-107C91.3,27.7,99.6,19.5,109.7,19.5z"/>
	<path class="st1" d="M109.9,19.5h717.3c10.1,0,18.4,8.2,18.4,18.4v106.9c0,10.1-8.2,18.4-18.4,18.4H109.9
		c-10.1,0-18.4-8.2-18.4-18.4v-107C91.5,27.7,99.8,19.5,109.9,19.5z"/>
	<path class="st2" d="M168.6,41.2c-0.5,0-1.1,0-1.6,0h-5.5H160c-0.8,0-1.5,0-2.3,0H157h-0.8c-0.6,0-1.1,0.1-1.7,0.1
		c-0.6,0-1.1,0-1.7,0h-1.5H151h-0.5H150h-0.8c-0.3,0-0.6,0.1-0.9,0.1c-0.6,0-1.1,0-1.7,0c-0.6,0-1-0.1-1.5-0.1h-0.7h-0.3
		c-0.8,0-1.6,0.1-2.4,0.1s-1.5,0-2.2,0c-0.9,0-1.8,0-2.7,0h-0.6h-0.7c-0.5,0-1,0.1-1.5,0.1c-1,0.1-2,0-3,0.1c-0.5,0-0.9,0-1.4,0
		h-4.1h-1.1c-0.6,0.2-1.1,0.5-1.6,0.8c-0.3,0.2-0.5,0.6-0.7,0.9l-0.2,0.3c-0.1,0.2-0.3,0.4-0.4,0.6c0,0.1-0.1,0.1-0.1,0.2l-0.1,0.1
		c-0.2,0.2-0.3,0.4-0.3,0.7c0,0.1,0,0.2,0,0.2c0,0.1,0,0.3,0,0.4v0.1c0,0.1,0,0.1,0,0.2c-0.1,0.4-0.1,0.8-0.1,1.1
		c0,0.2,0,0.4,0.1,0.6V48c0,0.2,0,0.3,0,0.5c0,0.3,0,0.6,0,1c0,0.1,0,0.2,0,0.3c0,0.3,0,0.5-0.1,0.8s0,0.5-0.1,0.7s-0.1,0.7-0.1,1
		s-0.1,0.7-0.1,1c0,0.2,0,0.4-0.1,0.6c-0.1,0.6-0.1,1.3-0.1,1.9c0,0.4,0,0.7,0,1.1c0,0.2,0,0.4,0,0.6c0,0.5,0,1,0,1.4
		c0,0.3-0.1,0.6-0.1,0.9s-0.1,0.8-0.1,1.2s0,0.6,0,0.9c0,0.3,0,0.5,0,0.8c0,0.6,0,1.2,0,1.8s0,1.3,0,1.9c-0.1,1.1-0.1,2-0.1,2.8
		c0,0.4,0,0.8,0.1,1.2c0,0.2,0,0.4,0.1,0.6s0.1,0.5,0.1,0.8c0,0.9,0.1,1.6,0.1,2.3c0,0.4,0,0.8,0,1.2c0,0.4,0,0.8,0,1.2v0.1
		c0,0.4,0,0.9,0,1.3s0,0.8,0,1.2v0.1c0,0.4,0,0.9,0,1.3s0,1,0,1.5c0,0.8,0.1,1.6,0.1,2.6c0.1,1,0.1,1.9,0.1,2.7c0,0.5,0,0.9,0,1.4
		c0,0.3,0,0.6,0,1v0.4c0,0.6,0,1.2,0.1,1.8v0.8c0,0.6,0,1.1,0,1.7v0.9c0,0.8,0.1,1.7,0.2,2.7c0.1,0.7,0.1,1.3,0.1,2v0.7
		c0,0.8,0,1.7,0.1,2.8c0.1,1.1,0.1,2,0.1,3c0,0.8,0,1.7,0,2.5c0,0.3,0,0.5,0,0.7c0.1,0.6,0.1,1.3,0.1,1.9c0,0.5,0,1.1-0.1,1.6
		c0,0.4,0,0.8,0,1.2c0,0.7,0,1.4,0,2c0,0.3,0,0.6,0,0.9c0,1,0,1.8,0,2.7v0.4c0,0.7-0.1,1.4-0.1,2.2c0,0.4,0,0.7,0,1.1
		c0,0.5,0,1.1,0,1.6v1.1c0,0.5,0,1,0,1.5c0,0.5,0,1,0,1.5c0,0.3,0,0.7,0,1s0,0.8,0,1.2s0,0.8,0,1.2s0,0.6,0,0.8s0,0.3,0,0.4
		s0,0.3,0,0.4c0,0.3,0,0.5,0.1,0.8c0.1,0.4,0.2,0.8,0.3,1.1c0.1,0.3,0.3,0.6,0.4,0.9c0.1,0.1,0.1,0.2,0.2,0.3s0.1,0.2,0.2,0.3
		s0.1,0.2,0.2,0.3s0.3,0.3,0.4,0.4l0,0l0.3,0.2c0,0,0.1,0,0.1,0.1c0.1,0.1,0.2,0.3,0.4,0.4c0.3,0.2,0.6,0.3,0.9,0.4l0.3,0.1h0.1
		l0.3,0.1l0.3,0.1h0.3h0.3h0.4c0.4,0,0.8,0,1.2,0s0.7,0,1.1,0h0.4c0.3,0,0.5,0,0.8-0.1h0.5c0.3,0,0.7,0,1,0s0.8,0,1.2,0s0.7,0,1.1,0
		h0.6c0.2,0,0.3,0,0.5,0.1l1.1,0.1c0.2,0,0.4,0,0.6,0h0.7c0.3,0,0.5,0,0.8,0h0.8c0.6,0,1.1,0,1.7,0s1,0,1.5,0h0.1
		c0.6-0.1,1.1-0.1,1.7-0.2h1.7c0.3,0,0.6,0,0.9,0l0.8,0.1c0.5,0,1,0,1.5,0h0.5c1.2-0.1,2.4,0,3.6,0h1c0.3,0,0.6,0,0.9,0
		c0.6,0,1.1,0.1,1.7,0.1h1.8l1.8,0.1c1.1,0.1,2.2,0.1,3.3,0.1c0.5,0,1,0,1.5,0s0.9,0,1.4,0h0.6H167c0.6,0,1.2,0,1.8,0s1.1,0,1.7,0
		c0.6,0,1.2,0,1.8,0h1.9c1.1,0,2.2,0.1,3.3,0.1c0.5,0,1.1,0,1.6,0s1,0,1.5,0s1.1,0.1,1.7,0.1h1.1c-0.1-0.4-0.3-0.8-0.4-1.2
		c-0.1-0.3-0.1-0.6-0.1-0.9v-0.1v-0.3c0-0.3-0.1-0.5-0.2-0.8c-0.1-0.3-0.1-0.5-0.2-0.8v-0.4c0-0.1,0-0.3,0-0.4c0-0.1,0-0.4-0.1-0.7
		v-0.1v-0.2l-0.1-1c0-0.2,0-0.5-0.1-0.7s0-0.5-0.1-0.7V132c0-0.2,0-0.5-0.1-0.7v-0.2V131c-0.1-0.3-0.1-0.7-0.1-1c0-0.2,0-0.4,0-0.5
		v-0.1c0-0.2,0-0.3,0-0.5c-0.1-0.6-0.1-1.2-0.2-1.9v-0.5v-0.1c0-0.4-0.1-0.9-0.1-1.4c0-0.2,0-0.3,0-0.5c0-0.1,0-0.3,0-0.4
		c0-0.4,0-0.7-0.1-0.9l-0.1-0.7v-0.2c0-0.4-0.1-0.8-0.1-1.2c0-0.3-0.1-0.7-0.1-1.1s0-0.5-0.1-0.8v-0.4c0-0.2,0-0.4,0-0.6
		s0-0.3,0-0.4v-0.4c0-0.2,0-0.4,0-0.7s-0.1-0.6-0.1-0.9v-0.2c0-0.3-0.1-0.6-0.1-0.9v-0.3c0-0.2,0-0.3,0-0.5v-0.2v-0.4
		c0-0.2,0-0.5,0-0.7v-0.1c0-0.1,0-0.2,0-0.3c0-0.8-0.1-1.5-0.2-2.3c0-0.4-0.1-0.8-0.1-1.2v-0.2c0-0.3-0.1-0.5-0.1-0.8
		c-0.1-0.8-0.1-1.5-0.2-2.2c0-0.6-0.1-1.1-0.1-1.6v-0.5c-0.1-1-0.2-2.1-0.2-3.1v0.2l-0.1-1.4v-0.5v-0.4c-0.3,0-0.6,0.1-0.8,0.1h-1
		h-0.2c-0.2,0-0.5,0-0.8,0.1h-0.3H176c-0.4,0-0.9-0.1-1.4-0.1c-0.2,0-0.5,0-0.7,0s-0.4,0-0.6,0c-0.2,0-0.6-0.1-0.8-0.1h-0.1h-0.2
		c-0.3,0-0.7-0.1-1-0.1h-0.3h-0.5h-0.1H170h-0.1h-0.2h-0.1H169h-0.5c-0.1,0-0.3,0-0.4,0c-0.4,0-0.9,0.1-1.4,0.1
		c-0.4,0-0.8-0.4-0.8-0.8c0-0.2,0.1-0.5,0.3-0.6c0-1-0.1-1.9-0.2-2.7l-0.1-0.5v-0.1l0,0c-0.1-0.5-0.2-1-0.2-1.5c0-0.3,0-0.5,0-0.8
		V91c0-0.2,0-0.3,0-0.4c0-0.4,0-0.8,0-1.2c0-0.4,0-0.6,0-0.9v-0.3c0-0.2,0-0.4,0-0.6s0-0.5,0-0.8V86c0-0.6,0-1.2,0-1.8
		c0-0.9,0.1-1.8,0.1-2.6c0-0.8,0.1-1.6,0.2-2.3v-0.1v-0.5v-0.5l0,0c0.1-1.3,0.2-2.7,0.4-4.1V74v-0.1c0.1-0.5,0.1-0.9,0.2-1.4v-0.1
		l0.1-0.5c0.1-0.7,0.2-1.4,0.3-2.1l0.1-0.7V69c0.2-1.1,0.4-2.3,0.7-3.5l0.1-0.4c0.1-0.3,0.2-0.6,0.2-0.9c0.1-0.4,0.2-0.9,0.3-1.3
		c0.1-0.6,0.3-1.2,0.4-1.9l0.1-0.9c0.2-0.8,0.4-1.7,0.6-2.5l0.1-0.6l0,0c0.1-0.6,0.3-1.2,0.4-1.8c0.2-0.8,0.4-1.6,0.7-2.4
		c0.2-0.6,0.3-1.1,0.5-1.8l0.1-0.5c0.2-0.6,0.4-1.2,0.7-1.9l0.2-0.4c0.3-0.8,0.7-1.6,1-2.3l0.1-0.2l0.1-0.1c0.1-0.2,0.1-0.3,0.2-0.5
		c0.1-0.2,0.2-0.5,0.2-0.7c0.1-0.3,0.2-0.6,0.3-0.8c0-0.1,0-0.1,0.1-0.2v-0.1v-0.1l0.1-0.3c0-0.1,0.1-0.2,0.1-0.4l0.1-0.1
		c0-0.1,0.1-0.2,0.1-0.3c0.1-0.1,0.2-0.2,0.3-0.3l0,0l0.1-0.1c0.1-0.1,0.1-0.1,0.2-0.2c0.1-0.1,0.2-0.1,0.2-0.2H175
		c-0.4,0-0.9,0-1.3,0h-0.3c-0.1,0-0.3,0-0.4,0h-0.2h-0.7c-0.3,0.1-0.5,0.1-0.8,0h-0.8C169.8,41.2,169.2,41.2,168.6,41.2L168.6,41.2z
		"/>
	<path class="st2" d="M148.9,140L148.9,140z"/>
	<path class="st2" d="M226.4,139.3L226.4,139.3L226.4,139.3c-0.2,0.1-0.2,0.2-0.3,0.2l-0.2,0.1c-0.2,0.2-0.5,0.4-0.7,0.6l-0.3,0.1
		h0.1c0.4-0.1,0.7-0.3,1-0.5c0.1-0.1,0.2-0.3,0.3-0.4L226.4,139.3L226.4,139.3L226.4,139.3z"/>
	<path class="st3" d="M207.3,40.6c-0.4,0-0.8,0-1.2,0s-0.7,0.1-1,0.1l-1.2,0.1c-0.4,0-0.8,0.1-1.3,0.1h-1.3c-0.6,0-1.2,0-1.7,0h0.1
		c-0.7,0-1.4,0-2.1,0h-0.2c-0.3,0-0.7,0-1,0l-0.8-0.1c-0.5,0-0.9,0-1.4-0.1c-0.5,0-1,0.1-1.5,0.1c-0.3,0-0.5,0-0.8,0h-0.8
		c-0.6,0-1.2,0-1.8,0.1c-0.6,0-1.2,0.1-1.8,0.1c-0.5,0-1,0-1.5,0.1s-1.1,0.1-1.7,0.1c-0.3,0-0.7,0-1,0h-0.8c-0.5,0-1,0-1.5,0
		c-0.3,0-0.7,0-1,0.1s-0.8,0-1.2,0h0.2h-1.2c-0.6,0-1.1,0.1-1.7,0.1h-1c-0.1,0.1-0.2,0.1-0.2,0.2c-0.1,0.1-0.1,0.1-0.2,0.2l-0.1,0.1
		l0,0c-0.1,0.1-0.2,0.2-0.3,0.3c0,0.1-0.1,0.2-0.1,0.3l-0.1,0.1l-0.1,0.3c0,0.1-0.1,0.2-0.1,0.3v0.1v0.1c0,0.1,0,0.1-0.1,0.2
		c-0.1,0.3-0.2,0.6-0.3,0.8s-0.1,0.5-0.2,0.7c-0.1,0.2-0.1,0.3-0.2,0.5l-0.1,0.1l-0.1,0.2c-0.3,0.7-0.7,1.5-1,2.3l-0.2,0.4
		c-0.3,0.6-0.5,1.2-0.7,1.9l-0.1,0.5c-0.2,0.6-0.3,1.2-0.5,1.8c-0.2,0.8-0.4,1.6-0.6,2.4c-0.1,0.6-0.3,1.2-0.4,1.8v0.1l-0.1,0.6
		c-0.2,0.8-0.4,1.7-0.6,2.5l-0.2,0.7c-0.1,0.7-0.3,1.3-0.4,1.9l-0.3,1.3c-0.1,0.3-0.1,0.6-0.2,0.9l-0.1,0.4
		c-0.3,1.2-0.5,2.4-0.7,3.5V69l-0.1,0.7c-0.1,0.7-0.2,1.4-0.3,2.1l-0.1,0.4v0.1c-0.1,0.5-0.1,0.9-0.2,1.4v0.1v0.1
		c-0.2,1.4-0.3,2.7-0.4,4.1l0,0v0.5V79l0,0c-0.1,0.7-0.1,1.5-0.2,2.3c0,0.8-0.1,1.8-0.1,2.6c0,0.6,0,1.2,0,1.8v0.8
		c0,0.3,0,0.5,0,0.8s0,0.4,0,0.6v0.3c0,0.3,0,0.6,0,0.9s0,0.8,0,1.2c0,0.1,0,0.3,0,0.4v0.1c0,0.3,0,0.5,0,0.8c0,0.5,0.1,1,0.2,1.5
		l0,0v0.1l0.1,0.5c0.1,0.8,0.1,1.6,0.2,2.7c-0.2,0.2-0.3,0.4-0.3,0.6c0,0.4,0.4,0.8,0.8,0.8c0.5,0,1,0,1.4-0.1h0.4h0.4h0.4h0.1h0.2
		h0.2h0.3h0.1h0.5h0.3c0.3,0,0.7,0,1,0.1h0.2l0,0c0.3,0,0.5,0.1,0.8,0.1s0.4,0,0.6,0c0.2,0,0.5,0,0.7,0c0.5,0.1,1,0.1,1.4,0.1h0.4
		h0.3c0.3,0,0.5,0,0.8-0.1l0,0h0.2c0.3,0,0.6,0,1,0c0.3,0,0.6,0,0.8-0.1v0.4v0.5l0.1,1.4v0.1c0.1,1,0.1,2.1,0.2,3.1v0.5
		c0.1,0.5,0.1,1.1,0.1,1.6c0,0.7,0.1,1.5,0.2,2.2c0,0.3,0.1,0.6,0.1,0.8v0.2c0,0.4,0.1,0.8,0.1,1.2c0.1,0.7,0.1,1.4,0.1,2.2
		c0,0.1,0,0.2,0,0.3v0.1v0.7v0.4v0.3c0,0.2,0,0.3,0,0.5v0.3c0,0.3,0,0.6,0.1,0.9v0.2c0,0.3,0.1,0.6,0.1,0.9l0.1,0.7v0.4
		c0,0.1,0,0.3,0,0.4s0,0.4,0,0.6v0.4c0,0.3,0,0.6,0.1,0.8s0.1,0.7,0.1,1.1s0.1,0.8,0.1,1.2v0.2l0.1,0.6c0,0.3,0,0.6,0.1,0.9v0.4
		c0,0.2,0,0.3,0,0.5c0,0.5,0.1,0.9,0.1,1.4l0,0v0.5c0.1,0.7,0.1,1.3,0.2,1.9c0,0.2,0,0.3,0,0.5v0.1c0,0.2,0,0.4,0,0.5
		c0,0.3,0.1,0.7,0.1,1v0.1v0.2c0,0.2,0,0.5,0.1,0.7v0.1c0,0.2,0,0.5,0.1,0.7s0,0.5,0.1,0.7s0.1,0.7,0.1,1c0,0.1,0,0.1,0,0.2v0.1
		c0,0.2,0,0.4,0.1,0.7s0,0.3,0,0.4v0.4c0,0.3,0.1,0.6,0.2,0.8c0.1,0.2,0.1,0.5,0.2,0.8v0.3v0.1c0,0.7,0.2,1.4,0.5,2.1h0.5
		c0.5,0,1,0,1.5,0s1,0,1.5,0s1,0,1.6,0h1.5c1.1,0,2.1,0,3.2,0h1.5c0.6,0,1.1,0,1.7,0c1,0,2.1,0,3.1,0h2.3h1.4c1.1,0,2.3,0.1,3.4,0
		c0.5,0,1,0,1.5,0s1.1,0.1,1.6,0.1h1.7c0.6,0,1.1,0,1.7,0.1c0.6,0.1,1.1,0,1.6,0s0.9,0,1.4,0s1,0,1.5,0.1l1.6,0.1
		c0.6,0,1.2,0.1,1.7,0.1s1,0.1,1.6,0.1c0.5,0,1,0.1,1.6,0.1h0.4h0.1c0.5-0.1,0.9-0.3,1.3-0.6c0.3-0.2,0.5-0.3,0.7-0.5
		c0,0,0.1-0.1,0.2-0.1l0.2-0.2l0.1-0.1l0,0l0.2-0.2l0.2-0.2l0.2-0.2c0.3-0.2,0.5-0.5,0.6-0.8l0.1-0.1l0,0c0.1-0.1,0.1-0.3,0.2-0.4
		c0.2-0.3,0.3-0.6,0.4-1c0-0.1,0.1-0.2,0.1-0.3s0.1-0.2,0.1-0.3s0.1-0.2,0.1-0.3s0.1-0.3,0.2-0.5l0.2-0.7v-0.1c0-0.3,0-0.6,0-0.9
		c0-0.3,0.1-0.7,0.1-1.1c0-0.1,0-0.1,0-0.2c0-0.1,0-0.2,0-0.3s0-0.3,0-0.4V131v-0.3c0-0.2,0-0.3,0-0.4c0-0.2,0-0.3,0-0.5v-0.3
		c0-0.2,0-0.4,0-0.6v-0.1c0-0.4,0-0.9-0.1-1.3l0,0c0-0.6,0-1.2,0-1.8l0,0c0-0.2,0-0.5,0-0.7v0.2c0-0.3,0-0.5,0-0.8s0-0.5,0-0.7
		s0-0.5,0-0.7s0-0.5,0-0.7v0.2c0-0.4,0-0.7,0-1.1s0.1-0.6,0.1-0.9c0.1-0.6,0.1-1.2,0.1-1.8c0-0.3,0-0.6,0-0.9v0.1c0-0.4,0-0.8,0-1.2
		s0-0.6,0-0.9c0-0.5,0-1,0-1.5v-0.7c0-0.2,0-0.4,0-0.6v-0.6l0,0l0,0c0-0.5,0-0.9,0-1.4s0-0.9,0-1.4s0-0.9,0.1-1.4
		c0.1-0.4,0.1-0.8,0.2-1.3c0-0.4,0.1-0.8,0.1-1.2c0-0.4,0-0.9,0-1.4c0-1,0.1-1.9,0.1-2.9c0-0.5,0-1,0-1.5s0.1-0.8,0.1-1.2
		c0.1-1,0.1-2,0.2-3.1c0-0.5,0.1-1,0.1-1.5s0-1.1,0.1-1.7c0-0.6,0.1-1.1,0.1-1.6s0.1-1,0.1-1.5c0.1-1.1,0.1-2.1,0.1-3.2
		c0-0.5,0.1-1,0.1-1.6c0-0.5,0.1-1,0.1-1.6s0-0.9-0.1-1.3s-0.1-1-0.1-1.6v-1.2c0-0.4,0-0.7,0-1.1c0-0.6,0.1-1.3,0.1-1.9
		c0-0.4-0.1-0.9-0.1-1.3s0-1,0-1.4V73c0-0.2,0-0.4,0-0.6c0-0.6,0-1.2,0-1.8v-0.4c0-0.4,0-0.9,0-1.3s-0.1-0.8-0.1-1.3
		s-0.1-0.8-0.1-1.2c0-0.4,0-0.8,0-1.3s0-0.8,0-1.2c0-0.4,0-0.8,0.1-1.3c0.1-0.8,0.1-1.6,0.1-2.4c0-0.6,0-1.1,0-1.7
		c0-0.6,0-0.9,0-1.4c0-0.3,0-0.6-0.1-0.9l0,0v-0.1l-0.1-0.3c0-0.1,0-0.2,0-0.3v-0.2c0-0.2,0-0.5,0-0.7c0-0.5,0-1,0-1.5
		s-0.1-0.8-0.1-1.2s0-0.9,0-1.4c0-0.2,0-0.4,0-0.6c0-0.1-0.1-0.3-0.1-0.4c0-0.1-0.1-0.2-0.1-0.3s0-0.2,0-0.3s0-0.3,0-0.4v-0.2
		c0-0.1,0-0.1,0-0.2c0-0.3,0-0.6-0.1-0.8c0-0.3-0.1-0.5-0.2-0.9c-0.1-0.3-0.2-0.6-0.3-0.9c-0.1-0.1-0.1-0.3-0.2-0.4l0,0l0,0
		c0-0.1-0.1-0.2-0.1-0.3s-0.1-0.2-0.1-0.2v0.1l-0.1-0.1c0-0.1-0.1-0.1-0.1-0.2c-0.1-0.1-0.1-0.2-0.2-0.3l-0.1-0.2v-0.1
		c-0.1-0.1-0.2-0.2-0.2-0.3l0,0l0,0l-0.2-0.3c-0.1-0.2-0.3-0.4-0.5-0.6l-0.1-0.1c-0.2-0.2-0.4-0.4-0.6-0.6l-0.3-0.3l-0.4-0.1
		l-0.5-0.2c-0.3-0.1-0.5-0.1-0.8-0.2c-0.2,0-0.4-0.1-0.6-0.1c-0.1,0-0.3,0-0.4,0h-0.3l-0.8-0.1c-0.3,0-0.6-0.1-0.9-0.2h0.1
		c-0.3-0.1-0.5-0.1-0.8-0.1c-0.2,0-0.4-0.1-0.6-0.1h-0.2l-0.5,0.1c-0.4,0-0.7,0-1.1,0h-0.2c-0.3,0-0.6,0-0.8,0.1
		c-0.3,0.1-0.6,0.1-0.8,0.1c-0.3,0-0.6,0-0.9,0h-0.9c-0.3,0-0.6,0-0.9-0.1c-0.3-0.1-0.6,0-0.9,0s-0.7,0-1.1-0.1l-0.4-0.1h-0.3h-0.2
		c-0.5,0-1,0.1-1.5,0.1s-0.8-0.1-1.2-0.1L207.3,40.6L207.3,40.6z"/>
	<path class="st3" d="M228.9,123.9L228.9,123.9z"/>
	<path class="st3" d="M194,141.9h-0.7l0,0H194c0.2,0.1,0.4,0.1,0.6,0.1h0.2c0.3,0,0.5,0,0.8-0.1c0.1,0,0.1,0,0.2-0.1L194,141.9
		L194,141.9z"/>
	<path class="st3" d="M176.2,41.3c-0.5,0-0.9,0-1.4,0h-1.3c-0.1,0.2-0.2,0.4-0.2,0.7c0,0.1-0.1,0.2-0.1,0.4c0,0.1,0,0.3,0,0.4
		c-0.1,0.3-0.2,0.6-0.2,0.9c-0.1,0.3-0.3,0.8-0.4,1.1c0-0.1,0-0.1,0.1-0.2c-0.1,0.3-0.2,0.6-0.4,0.9c-0.1,0.4-0.3,0.7-0.4,1.1
		c-0.2,0.7-0.4,1.4-0.6,2.1c-0.2,0.7-0.4,1.3-0.6,1.9c-0.1,0.3-0.2,0.6-0.3,0.9c-0.1,0.3-0.2,0.7-0.3,1c-0.3,0.8-0.4,1.7-0.7,2.5
		l0.1-0.2c-0.1,0.3-0.3,0.7-0.4,1.1c-0.1,0.4-0.2,0.7-0.3,1s-0.2,0.6-0.2,0.9c-0.1,0.3-0.1,0.7-0.2,1c-0.1,0.7-0.3,1.3-0.5,1.9
		c-0.1,0.3-0.2,0.6-0.3,1c-0.1,0.3-0.2,0.7-0.3,1.1c-0.3,1.4-0.6,2.8-0.9,4.1c-0.1,0.3-0.1,0.7-0.2,1s-0.1,0.7-0.2,1
		c-0.1,0.7-0.2,1.3-0.4,2s-0.2,1.1-0.3,1.6s-0.2,1.2-0.3,1.9v-0.2c0,0.2,0,0.3,0,0.5l0,0l0,0c0,0.4-0.1,0.7-0.1,1.1l-0.1,0.9
		c0,0.3-0.1,0.6-0.1,0.9s-0.1,0.8-0.1,1.2c-0.1,0.7-0.1,1.3-0.1,2s0,1.4,0,2.1s-0.1,1.4-0.1,2.1c0,0.3,0,0.7,0,1c0,0.4,0,0.7,0,1.1
		c0.1,0.7,0.1,1.4,0.2,2c0,0.7,0.1,1.3,0.1,1.9c0,0.3,0,0.7,0,1s0,0.7,0,1s0,0.6,0,0.9l0.1,0.7c0,0.2,0,0.4,0.1,0.7
		c0,0.2,0,0.3,0,0.4s0,0.3,0.1,0.5c0,0.1,0,0.1,0,0.2s0.1,0.3,0.2,0.4c0.1,0.1,0.1,0.2,0.2,0.3c0,0.1,0.1,0.2,0.1,0.2
		c0.1,0.2,0.2,0.3,0.4,0.4c0.1,0.1,0.3,0.1,0.4,0.1h0.2c0.1,0,0.2,0,0.3,0s0.2-0.1,0.3-0.2l0,0h0.1c0.1,0,0.3-0.1,0.4-0.2
		c0.2-0.1,0.5-0.3,0.7-0.4s0.3-0.5,0.2-0.7s-0.5-0.3-0.7-0.2l0,0l-0.6,0.3l0,0H167h-0.1l0,0v-0.1c-0.1-0.1-0.1-0.1-0.1-0.2l0,0
		c0-0.1,0-0.2,0-0.2l0,0v-0.1c0-0.2,0-0.4-0.1-0.6s0-0.4,0-0.6v-1.5c0-0.2,0-0.3,0-0.5s0-0.4,0-0.6c0-0.3,0-0.7,0-1
		c0-0.6-0.1-1.3-0.1-1.9c0-0.4-0.1-0.8-0.1-1.2s-0.1-0.8-0.1-1.3c0-0.4,0-0.9,0-1.3s0-0.7,0-1.1v-0.1c0.1-0.6,0.1-1.1,0.1-1.7
		s0.1-1,0.1-1.5s0-0.9,0-1.4s0.1-0.9,0.1-1.4s0.1-1.1,0.2-1.6c0-0.5,0.1-1,0.1-1.5v0.2c0-0.4,0.1-0.8,0.1-1.2v-0.1
		c0.1-0.7,0.2-1.4,0.3-2.1s0.2-1.3,0.3-2s0.2-1.3,0.3-2c0.1-0.3,0.1-0.7,0.2-1s0.1-0.7,0.2-1.1l0.2-1l0.2-1c0.1-0.4,0.2-0.7,0.3-1.1
		c0.1-0.4,0.1-0.7,0.2-1c0.2-0.7,0.4-1.3,0.5-2c0.1-0.3,0.1-0.6,0.2-0.9c0.1-0.3,0.2-0.7,0.3-1c0.2-0.6,0.3-1.2,0.5-1.8
		s0.4-1.1,0.6-1.7s0.4-1.2,0.5-1.8c0.1-0.3,0.2-0.6,0.3-0.9c0.1-0.3,0.2-0.6,0.3-0.9c0,0.1-0.1,0.1-0.1,0.2c0.2-0.4,0.3-0.8,0.4-1.2
		c0.1-0.4,0.2-0.7,0.3-1.1c0.2-0.8,0.4-1.5,0.7-2.3l0,0l0.4-1.2c0,0.1,0,0.1-0.1,0.2c0.2-0.5,0.3-1,0.5-1.4c0.1-0.2,0.1-0.4,0.2-0.6
		c0.1-0.2,0.1-0.3,0.1-0.5l0.1-0.3l0.1-0.2c0-0.1,0-0.1,0.1-0.1l0.2-0.1h0.1h0.2h0.3c0.1,0,0.2-0.1,0.3-0.1h0.2
		c0.2,0,0.4-0.1,0.5-0.1c0.1-0.1,0.3-0.1,0.4-0.1c0.1,0,0.1,0,0.2,0c0.1,0,0.3,0,0.4,0h0.1l0.3-0.1l0.3-0.1c0.2,0,0.3-0.2,0.4-0.3
		l0,0H178C177.4,41.2,176.8,41.3,176.2,41.3L176.2,41.3z"/>
	<path class="st4" d="M173.7,41L173.7,41z"/>
	<path class="st4" d="M174.1,41.2c-0.1,0-0.3,0-0.4,0c-0.1,0-0.2,0-0.3,0h-0.2c-0.1,0-0.3,0-0.4,0c-0.1,0-0.2,0-0.3-0.1v0.2
		c-0.1,0.3-0.2,0.5-0.3,0.8s-0.1,0.5-0.2,0.8c-0.2,0.5-0.4,1-0.5,1.5c-0.1,0.4-0.2,0.7-0.3,1.1c-0.1,0.2-0.1,0.3-0.1,0.5
		c-0.1,0.2-0.1,0.4-0.2,0.6c-0.1,0.2-0.1,0.7-0.2,1c-0.1,0.3-0.2,0.8-0.3,1.2s-0.2,0.8-0.3,1.2s-0.2,0.7-0.3,1s-0.3,0.8-0.5,1.2
		s-0.3,1-0.5,1.5c-0.3,0.9-0.5,1.8-0.8,2.6c-0.2,0.5-0.3,0.9-0.5,1.4s-0.3,0.9-0.4,1.3c-0.1,0.4-0.2,0.9-0.3,1.3
		c0,0.2-0.1,0.4-0.1,0.6c0,0.3-0.1,0.5-0.2,0.7c-0.1,0.4-0.2,0.8-0.3,1.2c-0.1,0.2-0.1,0.4-0.1,0.7c0,0.2-0.1,0.4-0.1,0.7
		c-0.2,0.9-0.3,1.9-0.5,2.8s-0.4,1.7-0.5,2.6c-0.1,0.4-0.1,0.8-0.2,1.2s-0.1,0.9-0.2,1.4c-0.1,0.5-0.1,0.8-0.2,1.3
		c-0.1,0.4-0.1,0.9-0.2,1.3v-0.2c-0.1,0.8-0.2,1.7-0.3,2.6s-0.3,1.7-0.4,2.6c-0.1,0.4-0.1,0.8-0.2,1.2c-0.1,0.5-0.1,1.1-0.1,1.6
		s0,0.9,0,1.4c0,0.2,0,0.5,0,0.7c0,0.3,0.1,0.5,0.1,0.8c0,0.5,0,0.9,0,1.4c0,0.3,0,0.5,0,0.8s0,0.5,0,0.8s0,0.7,0,1.1s0,0.4,0,0.7
		c0,0.2,0,0.3,0,0.5c0,0.4-0.1,0.8-0.1,1.1c0,0.4,0,0.9,0.1,1.3c0,0.5,0.1,0.9,0.2,1.3c0.1,0.3,0.2,0.7,0.2,1l0,0
		c0.1,0.4,0.2,0.9,0.3,1.3s0.2,0.7,0.3,1c0,0.2,0,0.3,0.1,0.5c0,0.2,0.1,0.4,0.2,0.6l0.2,0.4c0.1,0.1,0.2,0.3,0.3,0.4l0.2,0.2
		c0.1,0.1,0.2,0.1,0.3,0.2c0.1,0,0.2,0.1,0.2,0.1h0.1c0.1,0,0.3,0.1,0.4,0.1c0.1,0,0.2,0,0.2,0c0.1,0,0.2,0.1,0.3,0.1s0.3,0,0.4,0.1
		c0.2,0,0.4,0,0.6,0l0.4-0.1h0.1h0.3c0.1,0,0.2,0,0.3,0h0.2l0.2-0.1l0,0c0.1,0,0.3,0,0.4,0h0.3h0.1h0.2c0.1,0,0.3,0.1,0.4,0.1
		l0.3,0.1c0.2,0.1,0.5,0.1,0.7,0c0.2,0,0.3,0,0.5,0h0.2h0.2h0.1c0.2,0,0.3,0.1,0.5,0.1c0.1,0,0.2,0,0.4,0h0.3c0.2,0,0.4,0,0.7,0
		s0.5-0.1,0.8-0.2c0.2,0,0.3,0,0.5,0s0.3,0,0.5-0.1l0.2-0.1h0.2h0.3l0.3,0.1c0.1,0,0.3,0,0.4,0c0.1,0,0.2,0,0.3,0h0.5
		c0,0.2,0,0.3,0.1,0.5V100c0,0.3,0.1,0.6,0.1,0.9c0,0.4,0,0.8,0,1.2c0,0.4,0,0.9,0,1.3s0,1,0,1.5s0,0.9,0,1.4s0.1,0.9,0.1,1.4
		s0,0.9,0.1,1.3s0.1,0.9,0,1.4s0,0.8,0,1.2l0.1,0.7c0,0.2,0,0.5,0,0.7c0,0.5,0.1,1,0.1,1.5s0.1,1,0.1,1.5s0.1,0.9,0.1,1.4
		c0.1,0.5,0.1,0.9,0.2,1.4s0.1,0.9,0.1,1.3s0.1,0.8,0.1,1.1c0,0.2,0,0.3,0,0.5s0,0.4,0.1,0.7c0.1,0.3,0.1,0.7,0.2,1
		c0.1,0.4,0.1,0.9,0.1,1.3s0,0.8,0.1,1.2c0,0.2,0.1,0.4,0.1,0.6c0,0.3,0,0.6,0,0.8c0,0.5,0,0.9,0,1.4c0,0.2,0.1,0.5,0.1,0.7
		c0,0.3,0,0.5,0,0.8c0,0.5,0.1,1,0.1,1.5c0.1,0.9,0.3,1.8,0.4,2.8c0.1,0.5,0.1,1.1,0.2,1.6l0,0v0.1l0,0c0,0.2,0.1,0.5,0.1,0.7
		c0.1,0.6,0.2,1.2,0.3,1.8c0.1,0.2,0.2,0.5,0.3,0.7s0.3,0.5,0.4,0.8c0.1,0.3,0.2,0.4,0.2,0.6c0.1,0.2,0.3,0.3,0.5,0.3
		c0.2-0.1,0.3-0.3,0.3-0.5l0,0l-0.3-0.7c-0.1-0.2-0.1-0.3-0.2-0.5c-0.1-0.5-0.1-1.1-0.1-1.6c0-0.3,0-0.6-0.1-0.9s-0.1-0.7-0.1-1
		s-0.1-0.6-0.1-1c0-0.3-0.1-0.6-0.1-1c-0.1-0.7-0.2-1.4-0.3-2.2v0.2c-0.1-0.6-0.1-1.2-0.2-1.8c0-0.3,0-0.6,0-0.9
		c0-0.3-0.1-0.7-0.1-1c-0.1-0.4-0.1-0.9-0.1-1.3c0-0.2,0-0.5,0-0.7s-0.1-0.4-0.1-0.6c-0.1-0.8,0-1.7-0.1-2.5
		c-0.1-0.4-0.1-0.9-0.2-1.3c0-0.4,0-0.8,0-1.2s-0.1-0.8-0.1-1.1c0-0.4,0-1-0.1-1.5s0-0.8-0.1-1.2c-0.1-0.4-0.1-1-0.1-1.5
		s-0.1-1-0.1-1.5l-0.1-0.8c0-0.2,0-0.5,0-0.7c0-0.4-0.1-0.9-0.1-1.3s0-0.9,0-1.3l-0.1-1.4c0-0.2,0-0.4,0-0.6s-0.1-0.5-0.1-0.7
		c0-0.5-0.1-0.9-0.1-1.4s0-0.9,0-1.4s0-0.9,0-1.4s0-0.8-0.1-1.3c0-0.2,0-0.4-0.1-0.6s0-0.3,0-0.4s0-0.5,0-0.8s-0.1-0.6-0.3-0.9
		c-0.1-0.2-0.3-0.4-0.5-0.5s-0.5-0.1-0.7-0.1h-0.3c-0.1,0-0.3,0-0.4,0l-0.3-0.1c-0.2,0-0.4,0-0.6,0c-0.1,0-0.2,0-0.3,0s-0.2,0-0.4,0
		c-0.3,0-0.5,0-0.8,0.1c-0.3,0-0.5,0.1-0.8,0.2h-0.7c-0.2,0-0.4,0-0.6,0c-0.2,0-0.4-0.1-0.6-0.1h-0.2h-0.2c-0.3,0-0.5,0-0.8,0.1l0,0
		h-0.1c-0.1,0-0.1,0-0.2,0H171c-0.1,0-0.2,0-0.4,0h-0.4c-0.1,0-0.3,0-0.4,0.1h-0.1c-0.2,0-0.3,0-0.5,0c-0.1,0-0.3,0.1-0.4,0.1h-0.1
		c-0.2,0-0.3,0-0.5,0c-0.1,0-0.2,0-0.3,0h-0.1c-0.1,0-0.2,0-0.3-0.1h-0.1c-0.1,0-0.3,0-0.4-0.1c-0.2-0.1-0.5-0.1-0.7,0l0,0
		c-0.1-0.1-0.1-0.2-0.2-0.3c0-0.1-0.1-0.2-0.1-0.3c0-0.1,0-0.2,0-0.3v0.1v-0.1l0,0l0,0l0,0l0,0c-0.1-0.7-0.3-1.3-0.4-1.9v-0.2l0,0
		c0-0.2-0.1-0.5-0.2-0.7c-0.1-0.2-0.1-0.5-0.2-0.8c-0.1-0.4-0.1-0.8-0.2-1.3c0-0.4,0-0.8,0-1.3c0-0.2,0-0.4,0-0.6s0-0.4,0-0.6v-1.5
		c0-0.5,0-0.9,0-1.4s0-0.9,0-1.4s0-0.9,0-1.4s0-1,0-1.4s0-0.9,0.1-1.3s0.1-0.8,0.1-1.2v-0.4c0.1-0.4,0.1-0.9,0.2-1.3
		c0-0.2,0.1-0.4,0.1-0.6s0-0.4,0.1-0.6c0.1-0.8,0.3-1.6,0.4-2.4c0.1-0.4,0.1-0.9,0.2-1.3c0.1-0.5,0.2-0.9,0.3-1.4
		c0.1-0.8,0.2-1.7,0.4-2.5s0.4-1.7,0.5-2.6c0.1-0.5,0.2-0.9,0.2-1.4c0.1-0.5,0.1-0.9,0.2-1.4c0-0.2,0.1-0.4,0.1-0.6
		c0-0.3,0.1-0.5,0.2-0.8c0.1-0.4,0.2-0.8,0.3-1.2s0.1-0.9,0.2-1.3c0.1-0.4,0.2-0.9,0.3-1.3c0.1-0.4,0.2-0.8,0.3-1.2s0.3-1,0.4-1.5
		c0.1-0.5,0.2-0.9,0.3-1.3s0.3-0.9,0.4-1.3c0.1-0.4,0.3-0.9,0.4-1.4c0.2-0.5,0.3-0.9,0.5-1.3c0.1-0.4,0.3-1,0.4-1.4s0.2-1,0.4-1.4
		c0.1-0.5,0.2-0.8,0.3-1.3c0.1-0.2,0.1-0.5,0.2-0.7c0-0.2,0.1-0.5,0.2-0.7c0.1-0.3,0.2-0.7,0.3-1s0.1-0.5,0.2-0.7
		c0-0.1,0.1-0.2,0.2-0.3c0.1-0.2,0.1-0.3,0.2-0.5l0.2-0.5c0.1-0.1,0.1-0.3,0.2-0.4c0.1-0.2,0.2-0.4,0.3-0.7l0.1-0.3h-0.2L174.1,41.2
		z M168.5,98.2L168.5,98.2z"/>
	<path class="st4" d="M165.5,94.8L165.5,94.8L165.5,94.8z"/>
	<path class="st4" d="M163.9,95.1L163.9,95.1L163.9,95.1z"/>
	<path class="st4" d="M165.9,97L165.9,97L165.9,97z"/>
	<path class="st4" d="M181.2,135.7L181.2,135.7z"/>
	<polygon class="st4" points="181.2,135.8 181.2,135.8 181.2,135.8 	"/>
	<path class="st4" d="M181.2,135.8L181.2,135.8L181.2,135.8z"/>
	<polygon class="st4" points="181.2,135.8 181.2,135.8 181.2,135.8 	"/>
	<path class="st5" d="M151.3,65.1c-0.2,0-0.5,0-0.7,0.1c-0.2,0-0.3,0.1-0.5,0.2c-0.1,0-0.2,0.1-0.3,0.1c-0.1,0.1-0.3,0.1-0.4,0.2
		c-0.2,0.2-0.4,0.4-0.5,0.6l-0.1,0.2c-0.2,0.1-0.3,0.3-0.3,0.5c0,0.1,0,0.2,0,0.3s-0.1,0.4-0.1,0.6l0,0c0,0.2-0.1,0.3-0.1,0.5
		c-0.1,0.3-0.1,0.6-0.2,0.9s0,0.4,0,0.6s0,0.3,0,0.5c0,0.3,0,0.5,0,0.8c0-0.1,0-0.2,0-0.3c0,0.2,0,0.5,0.1,0.7c0-0.1,0-0.1,0-0.2
		c0,0.1,0,0.3,0,0.4V72c0,0.1,0,0.3,0,0.4s0,0.2,0,0.3c0,0.2,0,0.4,0,0.5s0,0.2,0,0.3c0,0.2,0,0.4,0,0.5c0,0.3,0,0.6,0,0.9V75
		c0,0.1,0,0.1,0,0.1l0,0c0,0.1,0,0.3,0.1,0.4c0,0.2,0.1,0.3,0.1,0.5s0.1,0.4,0.2,0.6c0,0.1,0.1,0.2,0.2,0.3l0,0
		c0.1,0.1,0.1,0.2,0.2,0.3c0.1,0.1,0.2,0.3,0.3,0.4c0.2,0.2,0.4,0.4,0.6,0.5h-0.1c0.2,0.1,0.4,0.2,0.5,0.2c0.2,0,0.4,0.1,0.5,0.1
		c0.2,0,0.3,0,0.5-0.1h0.2h0.2c0.1,0,0.2-0.1,0.3-0.1c0.2-0.1,0.3-0.1,0.4-0.2c0.3-0.2,0.5-0.4,0.7-0.7c0.3-0.5,0.4-1,0.5-1.6
		c0-0.2,0-0.4,0.1-0.6s0-0.4,0-0.6s0-0.4,0-0.6s0-0.2,0-0.4s0-0.3,0-0.4c0-0.4,0-0.7,0-1.1c0-0.2,0-0.4,0-0.6s0-0.5,0-0.7V71
		c0-0.2,0-0.5,0-0.7s0-0.4,0-0.6s0-0.4,0-0.6s0-0.5,0-0.8c0-0.1,0-0.1,0-0.2c0-0.5-0.1-0.9-0.2-1.4c0-0.2-0.1-0.3-0.2-0.5
		c-0.1-0.2-0.2-0.3-0.3-0.4l-0.2-0.2c-0.2-0.2-0.3-0.3-0.6-0.3h-0.1l-0.3-0.1C151.7,65.2,151.5,65.1,151.3,65.1L151.3,65.1H151
		H151.3z M148.3,68.5L148.3,68.5z"/>
	<path class="st5" d="M197.4,64.9c-0.2,0.1-0.4,0.2-0.6,0.3c-0.2,0.1-0.3,0.2-0.5,0.3c-0.1,0.1-0.3,0.3-0.4,0.4
		c-0.2,0.2-0.3,0.5-0.4,0.8c-0.1,0.2-0.1,0.4-0.2,0.6c-0.1,0.5-0.1,1-0.1,1.6s0.1,1.2,0.2,1.8c0,0.4,0.1,0.8,0.1,1.2
		c0,0.2,0,0.3,0.1,0.5s0,0.3,0,0.5c0,0.3,0,0.6,0,0.9s0,0.6,0,1s0,0.6,0.1,0.9c0,0.3,0.1,0.6,0.3,0.8c0.1,0.3,0.3,0.5,0.5,0.7
		s0.4,0.4,0.7,0.5l0,0c0.2,0.1,0.5,0.2,0.7,0.3l0.4,0.1c0.1,0,0.3,0,0.4,0c0.2,0,0.5-0.1,0.7-0.2s0.4-0.2,0.6-0.4
		c0.2-0.2,0.4-0.4,0.6-0.7c0.1-0.3,0.3-0.5,0.4-0.8c0.1-0.5,0.2-1.1,0.2-1.6l0.1-0.5c0,0.1,0,0.2,0,0.2c0-0.3,0.1-0.5,0.1-0.8l0,0
		l0,0l0,0v-0.1v-0.1c0-0.2,0.1-0.5,0.1-0.7s0-0.5,0.1-0.8c0-0.5,0-1,0-1.5l0,0c0-0.4-0.1-0.8-0.1-1.1s-0.1-0.7-0.2-1
		c-0.1-0.3-0.1-0.7-0.2-1c-0.1-0.3-0.1-0.6-0.2-0.9c-0.1-0.4-0.3-0.7-0.5-1c-0.3-0.3-0.6-0.5-1-0.6c-0.3-0.1-0.6-0.1-0.9-0.1h-0.1
		C198.1,64.7,197.7,64.8,197.4,64.9L197.4,64.9z M201.5,73.4L201.5,73.4L201.5,73.4L201.5,73.4L201.5,73.4z"/>
	<path class="st5" d="M147.8,65.3c-0.1,0-0.1,0.1-0.2,0.2c0,0.1,0,0.2,0,0.2c0.1,0.1,0.1,0.2,0.2,0.3l0.2,0.2
		c0.1,0.1,0.2,0.3,0.3,0.4l0.2,0.2l0.2,0.2c0.1,0.2,0.3,0.3,0.4,0.4c0.1,0.1,0.2,0.2,0.3,0.1s0.2-0.2,0.1-0.3c0,0,0,0-0.1-0.1
		s-0.3-0.3-0.4-0.4c-0.1-0.1-0.2-0.3-0.3-0.4s-0.2-0.3-0.3-0.4l-0.2-0.3c-0.1-0.1-0.1-0.2-0.2-0.3c-0.1-0.1-0.1-0.1-0.2-0.1V65.3z"
		/>
	<path class="st5" d="M149.4,64c-0.1,0-0.1,0.1-0.1,0.2s0,0.2,0,0.2c0.1,0.3,0.3,0.7,0.4,1c0.1,0.2,0.2,0.3,0.3,0.5s0.2,0.3,0.3,0.5
		c0.1,0.1,0.2,0.2,0.4,0.1c0.1,0,0.1-0.1,0.1-0.1c0-0.1,0-0.1,0-0.2c-0.1-0.1-0.2-0.3-0.3-0.4c-0.1-0.2-0.1-0.3-0.2-0.4
		s-0.2-0.6-0.3-0.9l0,0l-0.1-0.4c-0.1-0.1-0.2-0.2-0.3-0.2C149.5,64,149.5,64,149.4,64L149.4,64z"/>
	<path class="st5" d="M151.9,63.3c-0.1,0-0.2,0.1-0.2,0.2c0,0.2-0.1,0.4-0.1,0.5c0,0.2,0,0.4-0.1,0.6s0,0.4-0.1,0.6
		s-0.1,0.4-0.1,0.6c0,0.1,0,0.1,0.1,0.2c0,0,0.1,0.1,0.2,0.1c0.1,0,0.1,0,0.2-0.1c0,0,0.1-0.1,0.1-0.2c0-0.2,0.1-0.5,0.1-0.7
		s0.1-0.5,0.1-0.7s0.1-0.3,0.1-0.5c0-0.2,0.1-0.3,0.1-0.5c0-0.1,0-0.1,0-0.2c0-0.1-0.1-0.1-0.2-0.1H152
		C152,63.3,152,63.3,151.9,63.3L151.9,63.3z"/>
	<path class="st5" d="M154.1,64.5c-0.1,0-0.1,0.1-0.1,0.1l-0.1,0.1l-0.1,0.1c0,0.1-0.1,0.1-0.1,0.2c-0.2,0.2-0.3,0.4-0.5,0.6
		s-0.4,0.5-0.5,0.7c-0.1,0.1-0.1,0.3,0.1,0.4l0,0c0.1,0.1,0.3,0.1,0.4-0.1l0,0c0.1-0.2,0.2-0.3,0.4-0.5c0.1-0.2,0.3-0.3,0.4-0.4
		l0.3-0.3c0.1-0.1,0.1-0.2,0.2-0.3l0,0c0.1-0.1,0.1-0.3,0.1-0.4c-0.1-0.1-0.2-0.2-0.3-0.2C154.2,64.5,154.1,64.5,154.1,64.5
		L154.1,64.5z"/>
	<path class="st5" d="M155,66.2c-0.2,0.1-0.3,0.1-0.5,0.2c-0.1,0.1-0.3,0.2-0.4,0.2c-0.2,0.1-0.4,0.1-0.6,0.2
		c-0.2,0-0.2,0.2-0.2,0.4l0,0c0,0.1,0.2,0.2,0.3,0.2c0.3-0.1,0.6-0.1,0.8-0.2c0.1-0.1,0.2-0.1,0.4-0.2c0.1-0.1,0.2-0.1,0.4-0.2
		c0.1-0.1,0.2-0.2,0.2-0.3C155.3,66.3,155.2,66.2,155,66.2L155,66.2z"/>
	<path class="st5" d="M195.2,64.5c-0.1,0.1-0.2,0.1-0.2,0.2s0,0.2,0,0.3c0,0.1,0.1,0.2,0.2,0.3l0.2,0.2c0.1,0.1,0.2,0.2,0.3,0.3
		l0.8,0.7c0.1,0.1,0.2,0.1,0.3,0.1c0.2,0,0.4-0.1,0.4-0.3l0,0c0-0.1,0-0.2-0.1-0.3c-0.4-0.3-0.7-0.7-1-1.1c-0.1-0.1-0.2-0.3-0.3-0.4
		s-0.2-0.1-0.3-0.1C195.3,64.5,195.2,64.5,195.2,64.5L195.2,64.5z"/>
	<path class="st5" d="M196.8,63c-0.2,0-0.3,0.2-0.3,0.3c0,0.2,0.1,0.4,0.1,0.6c0.1,0.2,0.1,0.4,0.2,0.6s0.1,0.4,0.2,0.6
		c0.1,0.2,0.2,0.4,0.3,0.6s0.3,0.2,0.5,0.1s0.2-0.3,0.1-0.4c-0.1-0.1-0.1-0.3-0.2-0.4c0-0.1-0.1-0.2-0.1-0.3c0-0.1-0.2-0.5-0.2-0.7
		c0-0.1-0.1-0.2-0.1-0.3c0-0.2-0.1-0.3-0.1-0.4C197.2,63.1,197,63,196.8,63L196.8,63L196.8,63z"/>
	<path class="st5" d="M198.8,62.8c-0.1,0.2-0.1,0.4-0.1,0.6c0,0.2,0,0.3,0,0.5c0,0.4,0,0.7-0.1,1.1c0,0.2,0.1,0.3,0.3,0.4
		c0.2,0,0.3-0.1,0.4-0.3l0,0c0-0.4,0-0.7,0.1-1.1l0.1-0.5c0-0.1,0-0.2,0-0.2s0-0.2,0-0.3s-0.1-0.3-0.2-0.3h-0.1
		C199,62.6,198.9,62.7,198.8,62.8L198.8,62.8z"/>
	<path class="st5" d="M200.9,64.3l-0.2,0.3c0,0.1-0.1,0.2-0.2,0.2c-0.1,0.1-0.2,0.2-0.3,0.3l-0.3,0.3h0.1l-0.4,0.2
		c-0.1,0-0.1,0.1-0.1,0.2s0,0.1,0,0.2c0.1,0.1,0.2,0.2,0.3,0.1l0,0l0,0c0.3-0.2,0.6-0.4,0.9-0.6c0.3-0.2,0.5-0.5,0.7-0.8
		c0.1-0.1,0-0.3-0.1-0.4C201.2,64.2,201,64.2,200.9,64.3L200.9,64.3z"/>
	<path class="st5" d="M202,65.6l-0.3,0.2l-0.3,0.2l-0.6,0.4c-0.1,0-0.2,0.1-0.2,0.2s0,0.2,0,0.3c0,0.1,0.1,0.2,0.2,0.2
		c0.1,0,0.2,0,0.3,0c0.2-0.1,0.4-0.3,0.6-0.4l0.3-0.2c0.1-0.1,0.3-0.1,0.4-0.2c0.1-0.1,0.1-0.3,0.1-0.4c-0.1-0.1-0.2-0.2-0.3-0.2
		C202.1,65.6,202,65.6,202,65.6L202,65.6z"/>
	<path class="st5" d="M143.9,102.4c-0.1,0-0.2,0-0.4,0.1c-0.4,0-0.7,0.2-1,0.4l-0.2,0.2c-0.2,0.1-0.3,0.3-0.4,0.4
		c-0.1,0.1-0.2,0.3-0.3,0.5s-0.2,0.4-0.2,0.6s-0.1,0.4-0.1,0.6s0,0.4,0,0.7c0,0.3,0.1,0.5,0.2,0.8c0.1,0.2,0.1,0.3,0.2,0.4
		c0.1,0.3,0.3,0.6,0.5,0.9c0.2,0.4,0.5,0.7,0.7,1.1s0.4,0.7,0.7,1c0.6,0.7,1.3,1.3,2,1.9l1,0.9c0.4,0.3,0.7,0.6,1.1,0.9
		c0.5,0.3,1,0.6,1.5,0.9c0.4,0.2,0.8,0.5,1.2,0.7l1.2,0.6c0.4,0.2,0.7,0.4,1.1,0.6s0.8,0.3,1.2,0.5l1.3,0.5c0.9,0.3,1.8,0.7,2.6,0.9
		c0.3,0.1,0.6,0.2,0.9,0.3l0.6,0.1c0.4,0.1,0.9,0.2,1.3,0.3s0.9,0.2,1.3,0.2c0.4,0.1,0.7,0.2,1.1,0.3c0.3,0.1,0.7,0.2,1,0.3
		c0.3,0.1,0.7,0.1,1,0.1l0.8,0.1c0.5,0.1,1,0.1,1.5,0.1h-0.4h0.5c0.9,0.1,1.9,0.2,2.8,0.3c1,0.1,2.1,0.2,3.2,0.2
		c0.5,0,1.1-0.1,1.6-0.1s0.9,0,1.4-0.1s1-0.1,1.6-0.2s0.9,0,1.4,0h0.5c0.5,0,0.9,0,1.4,0c0.8-0.1,1.6-0.2,2.5-0.4
		c0.6-0.2,1.3-0.4,1.9-0.5c0.6-0.1,1.2-0.3,1.8-0.4c0.9-0.2,1.8-0.4,2.7-0.6s1.6-0.4,2.4-0.6c0.8-0.3,1.4-0.5,2.2-0.8
		c0.4-0.2,0.8-0.3,1.2-0.5s0.8-0.4,1.2-0.6s0.8-0.4,1.2-0.5c0.4-0.2,0.6-0.3,0.9-0.5l0.6-0.4c0.4-0.2,0.8-0.5,1.2-0.7
		c0.4-0.3,0.9-0.6,1.4-0.9c0.4-0.2,0.7-0.5,1-0.8c0.4-0.3,0.8-0.6,1.3-1c0.8-0.7,1.6-1.4,2.4-2.2c0.2-0.2,0.3-0.4,0.5-0.7
		c0.3-0.4,0.5-0.8,0.8-1.2c0.2-0.4,0.3-0.8,0.3-1.2l0.1-0.4c0.1-0.8-0.2-1.6-0.8-2.2c-0.4-0.4-1-0.6-1.6-0.5h-0.3
		c-0.2,0-0.5,0.1-0.7,0.2c-0.6,0.2-1.2,0.5-1.8,0.9c-0.4,0.3-0.8,0.7-1.1,1c-0.1,0.1-0.3,0.3-0.4,0.4c-0.2,0.2-0.3,0.5-0.5,0.7
		c-0.1,0.2-0.2,0.3-0.3,0.5l-0.3,0.2c-0.2,0.1-0.3,0.3-0.5,0.5c-0.4,0.3-0.8,0.7-1.2,1s-1,0.8-1.5,1.1c-0.5,0.4-1,0.7-1.5,1
		c-0.3,0.2-0.5,0.4-0.8,0.6s-0.6,0.3-0.9,0.5l0.1-0.1l-1,0.5c-0.5,0.2-1,0.5-1.6,0.7s-1.2,0.5-1.8,0.7s-1.1,0.4-1.7,0.5l-1,0.3
		c-0.3,0.1-0.7,0.2-1.1,0.3l-1.3,0.2c-0.5,0.1-1,0.1-1.5,0.2c-1,0.1-2,0.3-3.1,0.4c-1,0.1-2,0.3-3,0.4c-0.5,0.1-1,0-1.5,0
		s-0.9,0-1.4,0h-1.2H172c-0.8-0.1-1.7-0.1-2.5-0.2s-1.7-0.3-2.5-0.4c-0.4-0.1-0.9-0.2-1.3-0.3c-0.4-0.1-0.9-0.2-1.4-0.3
		c-0.8-0.2-1.7-0.4-2.5-0.6c-0.5-0.2-1.1-0.4-1.6-0.6l-0.9-0.3l-0.9-0.4c-0.6-0.3-1.2-0.5-1.7-0.8c-0.3-0.2-0.6-0.3-0.9-0.5
		l-0.7-0.4L154,110l0.3,0.2l-0.5-0.4c-0.5-0.3-0.9-0.6-1.4-1c-0.2-0.2-0.4-0.3-0.6-0.5c-0.2-0.2-0.3-0.3-0.5-0.5s-0.3-0.3-0.5-0.5
		s-0.4-0.4-0.6-0.5c-0.2-0.2-0.3-0.3-0.5-0.5l-0.5-0.4c-0.1-0.1-0.2-0.3-0.4-0.4l-0.3-0.3c-0.1-0.1-0.2-0.2-0.3-0.3l-0.4-0.3
		c-0.3-0.2-0.5-0.5-0.7-0.7c-0.3-0.3-0.7-0.5-1.1-0.8c-0.3-0.2-0.7-0.3-1-0.4s-0.7-0.1-1-0.1L143.9,102.4L143.9,102.4z M153.5,109.3
		L153.5,109.3L153.5,109.3z"/>
	<g>
		<rect x="261.4" y="61.4" class="st6" width="495" height="27"/>
		<g class="st7">
			<path class="st8" d="M266,62.1c-1.6,0-2.5,1.9-1.8,1.9c1,0,1.8,0.8,1.8,1.8c0,1-0.8,1.8-1.8,1.8c-1,0-2-0.8-2-2.5
				c0-2.5,2.2-3.8,3.9-3.7V62.1z M270.6,62.1c-1.6,0-2.5,1.9-1.8,1.9c1,0,1.8,0.8,1.8,1.8c0,1-0.8,1.8-1.8,1.8s-2-0.8-2-2.5
				c0-2.5,2.2-3.8,3.9-3.7V62.1z"/>
			<path class="st8" d="M272.9,76.8V62.1c0-0.2,0.1-0.3,0.3-0.3h4.5c5.1,0,7.9,3.4,7.9,7.7s-2.7,7.7-7.9,7.7h-4.5
				C273,77.1,272.9,77,272.9,76.8z M277.7,74.3c3.1,0,4.7-1.7,4.7-4.9c0-3.2-1.6-4.9-4.7-4.9H276v9.8H277.7z"/>
			<path class="st8" d="M287.3,71.7c0-3.2,2.2-5.6,5.5-5.6c3.3,0,5.2,2.4,5.2,5.1c0,1.1-0.2,1.6-1.2,1.6h-6.6
				c0.3,1.4,1.5,2.1,3.2,2.1c0.8,0,1.6-0.2,2.5-0.7c0.2-0.1,0.3-0.1,0.4,0.1l0.8,1.1c0.1,0.2,0.1,0.3-0.1,0.5
				c-0.9,0.9-2.3,1.4-3.8,1.4C289.7,77.4,287.3,75,287.3,71.7z M295.3,70.7c-0.2-1.4-1.1-2.2-2.4-2.2c-1.3,0-2.4,0.7-2.6,2.2H295.3z
				"/>
			<path class="st8" d="M299.5,75.6c-0.1-0.2-0.1-0.4,0-0.6l0.8-1.1c0.2-0.3,0.4-0.2,0.6-0.1c0.9,0.7,1.6,1.1,2.5,1.1
				c0.7,0,1.2-0.3,1.2-0.9c0-0.5-0.3-0.8-1.1-1.1l-1.4-0.5c-1.4-0.5-2.4-1.5-2.4-2.9c0-2.1,1.8-3.3,3.8-3.3c1.4,0,2.7,0.6,3.6,1.7
				c0.1,0.2,0.1,0.3,0,0.5l-1,1.2c-0.2,0.2-0.3,0.2-0.5,0c-0.7-0.6-1.3-0.9-2-0.9c-0.7,0-1,0.4-1,0.9c0,0.5,0.4,0.8,1,1.1l1.5,0.6
				c1.4,0.6,2.4,1.5,2.4,3.1c0,2.2-1.9,3.3-4,3.3C301.7,77.4,300.3,76.6,299.5,75.6z"/>
			<path class="st8" d="M309.6,62.7c0-0.9,0.7-1.7,1.7-1.7s1.7,0.7,1.7,1.7c0,0.9-0.7,1.7-1.7,1.7S309.6,63.7,309.6,62.7z
				 M309.7,76.8V66.7c0-0.2,0.1-0.3,0.3-0.3h2.4c0.2,0,0.3,0.1,0.3,0.3v10.1c0,0.2-0.1,0.3-0.3,0.3h-2.4
				C309.9,77.1,309.7,77,309.7,76.8z"/>
			<path class="st8" d="M316.3,80.4c-0.2-0.2-0.2-0.4-0.1-0.6l0.6-1.2c0.1-0.2,0.3-0.3,0.5-0.2c0.9,0.5,1.9,0.8,2.9,0.8
				c1.5,0,3.1-0.7,3.1-2.7v-1.2c-0.7,1-1.8,1.6-3.3,1.6c-3,0-5.1-2.2-5.1-5.4c0-3.2,2-5.4,5.1-5.4c1.6,0,2.7,0.6,3.4,1.6l0-1
				c0-0.2,0.2-0.3,0.4-0.3h2.2c0.2,0,0.3,0.1,0.3,0.3v9.9c0,3.9-3,5.1-5.7,5.1C318.9,81.6,317.4,81.2,316.3,80.4z M323.2,71.5
				c0-1.7-1.1-2.7-2.6-2.7c-1.6,0-2.7,1.1-2.7,2.7c0,1.7,1.1,2.7,2.7,2.7C322.1,74.2,323.2,73.1,323.2,71.5z"/>
			<path class="st8" d="M328.8,76.8V66.7c0-0.2,0.1-0.3,0.3-0.3h2.3c0.2,0,0.3,0.1,0.3,0.4l0.1,1.3c0.6-1.1,1.7-1.9,3.3-1.9
				c2.2,0,3.9,1.6,3.9,4.4v6.3c0,0.2-0.2,0.3-0.4,0.3h-2.4c-0.2,0-0.3-0.1-0.3-0.3v-5.6c0-1.5-0.7-2.3-2-2.3c-1.3,0-2.1,0.8-2.1,2.3
				v5.6c0,0.2-0.1,0.3-0.3,0.3h-2.4C328.9,77.1,328.8,77,328.8,76.8z"/>
			<path class="st8" d="M346.1,76.8V62.1c0-0.2,0.1-0.3,0.3-0.3h7.8c0.2,0,0.3,0.1,0.3,0.3v2.1c0,0.2-0.1,0.3-0.3,0.3h-5v3.4h4.7
				c0.2,0,0.3,0.1,0.3,0.3v2.1c0,0.2-0.1,0.3-0.3,0.3h-4.7v3.6h5c0.2,0,0.3,0.1,0.3,0.3v2.1c0,0.2-0.1,0.3-0.3,0.3h-7.8
				C346.2,77.1,346.1,77,346.1,76.8z"/>
			<path class="st8" d="M357.2,76.8V61.7c0-0.2,0.1-0.3,0.3-0.3h2.4c0.2,0,0.3,0.1,0.3,0.3v15.1c0,0.2-0.1,0.3-0.3,0.3h-2.4
				C357.3,77.1,357.2,77,357.2,76.8z"/>
			<path class="st8" d="M362.8,62.7c0-0.9,0.7-1.7,1.7-1.7s1.7,0.7,1.7,1.7c0,0.9-0.7,1.7-1.7,1.7S362.8,63.7,362.8,62.7z
				 M362.9,76.8V66.7c0-0.2,0.1-0.3,0.3-0.3h2.4c0.2,0,0.3,0.1,0.3,0.3v10.1c0,0.2-0.1,0.3-0.3,0.3h-2.4
				C363,77.1,362.9,77,362.9,76.8z"/>
			<path class="st8" d="M368,76.7l3.3-5.1l-3.1-4.9c-0.1-0.2,0-0.4,0.2-0.4h2.6c0.2,0,0.3,0.1,0.4,0.2l1.7,2.9l1.7-2.9
				c0.1-0.2,0.2-0.2,0.4-0.2h2.6c0.3,0,0.4,0.2,0.2,0.4l-3.1,4.9l3.2,5.1c0.2,0.2,0,0.4-0.2,0.4h-2.6c-0.2,0-0.3-0.1-0.4-0.2
				l-1.8-3.1l-1.9,3.1c-0.1,0.2-0.2,0.2-0.4,0.2h-2.6C368,77.1,367.9,77,368,76.7z"/>
			<path class="st8" d="M380.1,62.7c0-0.9,0.7-1.7,1.7-1.7s1.7,0.7,1.7,1.7c0,0.9-0.7,1.7-1.7,1.7S380.1,63.7,380.1,62.7z
				 M380.2,76.8V66.7c0-0.2,0.1-0.3,0.3-0.3h2.4c0.2,0,0.3,0.1,0.3,0.3v10.1c0,0.2-0.1,0.3-0.3,0.3h-2.4
				C380.3,77.1,380.2,77,380.2,76.8z"/>
			<path class="st8" d="M385.9,76.8V66.7c0-0.2,0.1-0.3,0.3-0.3h2.3c0.2,0,0.3,0.1,0.3,0.4l0.1,1.4c0.4-1.1,1.1-2,2.3-2
				c0.5,0,0.8,0.1,1,0.3c0.2,0.1,0.2,0.2,0.2,0.4v1.9c0,0.3-0.2,0.3-0.4,0.3c-0.2-0.1-0.5-0.1-0.8-0.1c-1.5,0-2.3,1-2.3,2.6v5.4
				c0,0.2-0.1,0.3-0.3,0.3h-2.4C386,77.1,385.9,77,385.9,76.8z"/>
			<path class="st8" d="M398.3,69.5c0-4.5,3.5-7.9,7.9-7.9c4.4,0,7.9,3.5,7.9,7.9c0,4.4-3.5,7.9-7.9,7.9
				C401.8,77.4,398.3,73.9,398.3,69.5z M410.9,69.5c0-2.8-2-4.9-4.7-4.9c-2.7,0-4.7,2.1-4.7,4.9c0,2.8,2,4.8,4.7,4.8
				C408.9,74.3,410.9,72.2,410.9,69.5z"/>
			<path class="st8" d="M416.5,76.8V66.7c0-0.2,0.1-0.3,0.3-0.3h2.3c0.2,0,0.3,0.1,0.3,0.4l0.1,1.3c0.6-1.1,1.7-1.9,3.3-1.9
				c2.2,0,3.9,1.6,3.9,4.4v6.3c0,0.2-0.2,0.3-0.4,0.3H424c-0.2,0-0.3-0.1-0.3-0.3v-5.6c0-1.5-0.7-2.3-2-2.3c-1.3,0-2.1,0.8-2.1,2.3
				v5.6c0,0.2-0.1,0.3-0.3,0.3h-2.4C416.6,77.1,416.5,77,416.5,76.8z"/>
			<path class="st8" d="M429.3,76.8V61.7c0-0.2,0.1-0.3,0.3-0.3h2.4c0.2,0,0.3,0.1,0.3,0.3v15.1c0,0.2-0.1,0.3-0.3,0.3h-2.4
				C429.4,77.1,429.3,77,429.3,76.8z"/>
			<path class="st8" d="M434.8,62.7c0-0.9,0.7-1.7,1.7-1.7c1,0,1.7,0.7,1.7,1.7c0,0.9-0.7,1.7-1.7,1.7
				C435.6,64.4,434.8,63.7,434.8,62.7z M435,76.8V66.7c0-0.2,0.1-0.3,0.3-0.3h2.4c0.2,0,0.3,0.1,0.3,0.3v10.1c0,0.2-0.1,0.3-0.3,0.3
				h-2.4C435.1,77.1,435,77,435,76.8z"/>
			<path class="st8" d="M440.7,76.8V66.7c0-0.2,0.1-0.3,0.3-0.3h2.3c0.2,0,0.3,0.1,0.3,0.4l0.1,1.3c0.6-1.1,1.7-1.9,3.3-1.9
				c2.2,0,3.9,1.6,3.9,4.4v6.3c0,0.2-0.2,0.3-0.4,0.3h-2.4c-0.2,0-0.3-0.1-0.3-0.3v-5.6c0-1.5-0.7-2.3-2-2.3c-1.3,0-2.1,0.8-2.1,2.3
				v5.6c0,0.2-0.1,0.3-0.3,0.3H441C440.8,77.1,440.7,77,440.7,76.8z"/>
			<path class="st8" d="M452.9,71.7c0-3.2,2.2-5.6,5.5-5.6c3.3,0,5.2,2.4,5.2,5.1c0,1.1-0.2,1.6-1.2,1.6h-6.6
				c0.3,1.4,1.5,2.1,3.2,2.1c0.8,0,1.6-0.2,2.5-0.7c0.2-0.1,0.3-0.1,0.4,0.1l0.8,1.1c0.1,0.2,0.1,0.3-0.1,0.5
				c-0.9,0.9-2.3,1.4-3.8,1.4C455.3,77.4,452.9,75,452.9,71.7z M460.9,70.7c-0.2-1.4-1.1-2.2-2.4-2.2c-1.3,0-2.4,0.7-2.6,2.2H460.9z
				"/>
			<path class="st8" d="M469.7,75c-0.1-0.2-0.1-0.3,0-0.5l1.3-1.5c0.2-0.2,0.3-0.2,0.5,0c1,1,1.8,1.5,3.1,1.5c1.3,0,2.2-0.5,2.2-1.7
				c0-1-0.8-1.4-1.8-1.9l-1.9-0.9c-1.6-0.7-3.1-1.9-3.1-4.2c0-2.8,2.1-4.3,4.8-4.3c1.8,0,3.3,0.7,4.5,2c0.2,0.2,0.2,0.3,0,0.5
				l-1.3,1.5c-0.1,0.2-0.3,0.2-0.5,0.1c-0.9-0.8-1.7-1.3-2.7-1.3c-1.1,0-1.8,0.6-1.8,1.5c0,0.9,0.6,1.3,1.8,1.8l1.6,0.7
				c1.7,0.8,3.4,1.8,3.4,4.4c0,3.1-2.5,4.5-5.1,4.5C472.3,77.4,470.6,76.2,469.7,75z"/>
			<path class="st8" d="M482.8,74.2v-5.5h-1.4c-0.2,0-0.3-0.1-0.3-0.3v-1.7c0-0.2,0.1-0.3,0.3-0.3h1.4v-2.5c0-0.2,0.1-0.3,0.3-0.3
				h2.4c0.2,0,0.3,0.1,0.3,0.3v2.5h1.7c0.2,0,0.3,0.1,0.3,0.3v1.7c0,0.2-0.1,0.3-0.3,0.3h-1.7v5.2c0,0.6,0.4,0.9,0.9,0.9
				c0.2,0,0.4,0,0.7,0c0.2,0,0.4,0.1,0.4,0.3v1.6c0,0.5-1.1,0.6-1.8,0.6C484.3,77.4,482.8,76.6,482.8,74.2z"/>
			<path class="st8" d="M489.1,71.7c0-3.2,2.4-5.7,5.7-5.7c3.2,0,5.6,2.5,5.6,5.7s-2.4,5.7-5.6,5.7
				C491.5,77.4,489.1,74.9,489.1,71.7z M497.5,71.7c0-1.8-1.2-2.9-2.7-2.9c-1.5,0-2.7,1.1-2.7,2.9c0,1.8,1.2,2.9,2.7,2.9
				C496.3,74.6,497.5,73.5,497.5,71.7z"/>
			<path class="st8" d="M502.5,76.8V66.7c0-0.2,0.1-0.3,0.3-0.3h2.3c0.2,0,0.3,0.1,0.3,0.4l0.1,1.4c0.4-1.1,1.1-2,2.3-2
				c0.5,0,0.8,0.1,1,0.3c0.2,0.1,0.2,0.2,0.2,0.4v1.9c0,0.3-0.2,0.3-0.4,0.3c-0.2-0.1-0.5-0.1-0.8-0.1c-1.5,0-2.3,1-2.3,2.6v5.4
				c0,0.2-0.1,0.3-0.3,0.3h-2.4C502.6,77.1,502.5,77,502.5,76.8z"/>
			<path class="st8" d="M510.1,71.7c0-3.2,2.2-5.6,5.5-5.6c3.3,0,5.2,2.4,5.2,5.1c0,1.1-0.2,1.6-1.2,1.6h-6.6
				c0.3,1.4,1.5,2.1,3.2,2.1c0.8,0,1.6-0.2,2.5-0.7c0.2-0.1,0.3-0.1,0.4,0.1l0.8,1.1c0.1,0.2,0.1,0.3-0.1,0.5
				c-0.9,0.9-2.3,1.4-3.8,1.4C512.5,77.4,510.1,75,510.1,71.7z M518.1,70.7c-0.2-1.4-1.1-2.2-2.4-2.2c-1.3,0-2.4,0.7-2.6,2.2H518.1z
				"/>
			<path class="st8" d="M521,66.8c1.6,0,2.5-1.9,1.8-1.9c-1,0-1.8-0.8-1.8-1.8c0-1,0.8-1.8,1.8-1.8c1,0,2,0.8,2,2.5
				c0,2.5-2.2,3.8-3.9,3.7V66.8z M525.6,66.8c1.6,0,2.5-1.9,1.8-1.9c-1,0-1.8-0.8-1.8-1.8c0-1,0.8-1.8,1.9-1.8c1,0,2,0.8,2,2.5
				c0,2.5-2.2,3.8-3.9,3.7V66.8z"/>
			<path class="st8" d="M535.6,62.7c0-0.9,0.7-1.7,1.7-1.7c1,0,1.7,0.7,1.7,1.7c0,0.9-0.7,1.7-1.7,1.7
				C536.3,64.4,535.6,63.7,535.6,62.7z M535.8,76.8V66.7c0-0.2,0.1-0.3,0.3-0.3h2.4c0.2,0,0.3,0.1,0.3,0.3v10.1
				c0,0.2-0.1,0.3-0.3,0.3h-2.4C535.9,77.1,535.8,77,535.8,76.8z"/>
			<path class="st8" d="M541.1,75.6c-0.1-0.2-0.1-0.4,0-0.6l0.8-1.1c0.2-0.3,0.4-0.2,0.5-0.1c0.9,0.7,1.7,1.1,2.5,1.1
				c0.7,0,1.2-0.3,1.2-0.9c0-0.5-0.3-0.8-1.1-1.1l-1.4-0.5c-1.4-0.5-2.4-1.5-2.4-2.9c0-2.1,1.8-3.3,3.8-3.3c1.4,0,2.7,0.6,3.6,1.7
				c0.1,0.2,0.1,0.3,0,0.5l-1,1.2c-0.2,0.2-0.3,0.2-0.5,0c-0.7-0.6-1.3-0.9-2-0.9c-0.7,0-1,0.4-1,0.9c0,0.5,0.4,0.8,1,1.1l1.5,0.6
				c1.4,0.6,2.4,1.5,2.4,3.1c0,2.2-1.9,3.3-4,3.3C543.3,77.4,542,76.6,541.1,75.6z"/>
			<path class="st8" d="M555.6,76.8V66.7c0-0.2,0.1-0.3,0.3-0.3h2.3c0.2,0,0.3,0.1,0.3,0.4l0.1,1.3c0.6-1.1,1.7-1.9,3.3-1.9
				c2.2,0,3.9,1.6,3.9,4.4v6.3c0,0.2-0.2,0.3-0.4,0.3h-2.4c-0.2,0-0.3-0.1-0.3-0.3v-5.6c0-1.5-0.7-2.3-2-2.3c-1.3,0-2.1,0.8-2.1,2.3
				v5.6c0,0.2-0.1,0.3-0.3,0.3H556C555.8,77.1,555.6,77,555.6,76.8z"/>
			<path class="st8" d="M567.9,71.7c0-3.2,2.4-5.7,5.7-5.7c3.2,0,5.6,2.5,5.6,5.7s-2.4,5.7-5.6,5.7
				C570.3,77.4,567.9,74.9,567.9,71.7z M576.2,71.7c0-1.8-1.2-2.9-2.7-2.9c-1.5,0-2.7,1.1-2.7,2.9c0,1.8,1.2,2.9,2.7,2.9
				C575,74.6,576.2,73.5,576.2,71.7z"/>
			<path class="st8" d="M582,74.2v-5.5h-1.4c-0.2,0-0.3-0.1-0.3-0.3v-1.7c0-0.2,0.1-0.3,0.3-0.3h1.4v-2.5c0-0.2,0.1-0.3,0.3-0.3h2.4
				c0.2,0,0.3,0.1,0.3,0.3v2.5h1.7c0.2,0,0.3,0.1,0.3,0.3v1.7c0,0.2-0.1,0.3-0.3,0.3h-1.7v5.2c0,0.6,0.4,0.9,0.9,0.9
				c0.2,0,0.4,0,0.7,0c0.2,0,0.4,0.1,0.4,0.3v1.6c0,0.5-1.1,0.6-1.8,0.6C583.5,77.4,582,76.6,582,74.2z"/>
			<path class="st8" d="M592.8,71.7c0-3.2,2.1-5.7,5.1-5.7c1.6,0,2.8,0.7,3.5,1.8l0-1.2c0-0.2,0.1-0.3,0.3-0.3h2.2
				c0.2,0,0.3,0.1,0.3,0.3v10.1c0,0.2-0.2,0.3-0.4,0.3h-2.1c-0.2,0-0.3-0.1-0.3-0.3l0-1.2c-0.7,1.1-1.9,1.8-3.5,1.8
				C594.9,77.4,592.8,75,592.8,71.7z M601.3,71.7c0-1.7-1.1-2.9-2.7-2.9c-1.6,0-2.8,1.2-2.8,2.9c0,1.7,1.2,2.9,2.8,2.9
				C600.1,74.6,601.3,73.5,601.3,71.7z"/>
			<path class="st8" d="M610.3,76.9l-4-10.1c-0.1-0.2,0-0.4,0.3-0.4h2.4c0.2,0,0.3,0.1,0.4,0.3l2.6,7l2.5-7c0.1-0.2,0.2-0.3,0.4-0.3
				h2.4c0.2,0,0.4,0.1,0.3,0.4l-4,10.1c-0.1,0.2-0.2,0.3-0.4,0.3h-2.4C610.5,77.1,610.3,77,610.3,76.9z"/>
			<path class="st8" d="M618.1,71.7c0-3.2,2.1-5.7,5.1-5.7c1.6,0,2.8,0.7,3.5,1.8l0-1.2c0-0.2,0.1-0.3,0.3-0.3h2.2
				c0.2,0,0.3,0.1,0.3,0.3v10.1c0,0.2-0.2,0.3-0.4,0.3h-2.1c-0.2,0-0.3-0.1-0.3-0.3l0-1.2c-0.7,1.1-1.9,1.8-3.5,1.8
				C620.2,77.4,618.1,75,618.1,71.7z M626.6,71.7c0-1.7-1.1-2.9-2.7-2.9s-2.8,1.2-2.8,2.9c0,1.7,1.2,2.9,2.8,2.9
				S626.6,73.5,626.6,71.7z"/>
			<path class="st8" d="M632.1,62.7c0-0.9,0.7-1.7,1.7-1.7c1,0,1.7,0.7,1.7,1.7c0,0.9-0.7,1.7-1.7,1.7
				C632.8,64.4,632.1,63.7,632.1,62.7z M632.3,76.8V66.7c0-0.2,0.1-0.3,0.3-0.3h2.4c0.2,0,0.3,0.1,0.3,0.3v10.1
				c0,0.2-0.1,0.3-0.3,0.3h-2.4C632.4,77.1,632.3,77,632.3,76.8z"/>
			<path class="st8" d="M638,76.8V61.7c0-0.2,0.1-0.3,0.3-0.3h2.4c0.2,0,0.3,0.1,0.3,0.3v15.1c0,0.2-0.1,0.3-0.3,0.3h-2.4
				C638.1,77.1,638,77,638,76.8z"/>
			<path class="st8" d="M643.1,71.7c0-3.2,2.1-5.7,5.1-5.7c1.6,0,2.8,0.7,3.5,1.8l0-1.2c0-0.2,0.1-0.3,0.3-0.3h2.2
				c0.2,0,0.3,0.1,0.3,0.3v10.1c0,0.2-0.2,0.3-0.4,0.3h-2.1c-0.2,0-0.3-0.1-0.3-0.3l0-1.2c-0.7,1.1-1.9,1.8-3.5,1.8
				C645.2,77.4,643.1,75,643.1,71.7z M651.6,71.7c0-1.7-1.1-2.9-2.7-2.9s-2.8,1.2-2.8,2.9c0,1.7,1.2,2.9,2.8,2.9
				S651.6,73.5,651.6,71.7z"/>
			<path class="st8" d="M660.1,75.6l0,1.2c0,0.2-0.1,0.3-0.3,0.3h-2.2c-0.2,0-0.4-0.1-0.4-0.3V61.7c0-0.2,0.1-0.3,0.3-0.3h2.4
				c0.2,0,0.3,0.1,0.3,0.3v5.9c0.7-1,1.8-1.5,3.3-1.5c3,0,5.1,2.5,5.1,5.7c0,3.2-2.1,5.7-5.1,5.7C662,77.4,660.9,76.7,660.1,75.6z
				 M665.8,71.7c0-1.7-1.2-2.9-2.8-2.9c-1.6,0-2.8,1.1-2.8,2.9s1.1,2.9,2.8,2.9C664.6,74.6,665.8,73.5,665.8,71.7z"/>
			<path class="st8" d="M670.8,76.8V61.7c0-0.2,0.1-0.3,0.3-0.3h2.4c0.2,0,0.3,0.1,0.3,0.3v15.1c0,0.2-0.1,0.3-0.3,0.3h-2.4
				C670.9,77.1,670.8,77,670.8,76.8z"/>
			<path class="st8" d="M675.9,71.7c0-3.2,2.2-5.6,5.5-5.6c3.3,0,5.2,2.4,5.2,5.1c0,1.1-0.2,1.6-1.2,1.6h-6.6
				c0.3,1.4,1.5,2.1,3.2,2.1c0.8,0,1.6-0.2,2.5-0.7c0.2-0.1,0.3-0.1,0.4,0.1l0.8,1.1c0.1,0.2,0.1,0.3-0.1,0.5
				c-0.9,0.9-2.3,1.4-3.8,1.4C678.3,77.4,675.9,75,675.9,71.7z M683.9,70.7c-0.2-1.4-1.1-2.2-2.4-2.2c-1.3,0-2.4,0.7-2.6,2.2H683.9z
				"/>
			<path class="st8" d="M694.9,80.9l1.6-3.8l-4.2-10.4c-0.1-0.2,0-0.4,0.3-0.4h2.4c0.2,0,0.3,0.1,0.4,0.3l2.6,7l2.6-7
				c0.1-0.2,0.2-0.3,0.4-0.3h2.4c0.2,0,0.4,0.1,0.3,0.4L697.9,81c-0.1,0.2-0.2,0.3-0.4,0.3h-2.3C695,81.3,694.8,81.2,694.9,80.9z"/>
			<path class="st8" d="M704.3,71.7c0-3.2,2.2-5.6,5.5-5.6c3.3,0,5.2,2.4,5.2,5.1c0,1.1-0.2,1.6-1.2,1.6h-6.6
				c0.3,1.4,1.5,2.1,3.2,2.1c0.8,0,1.6-0.2,2.5-0.7c0.2-0.1,0.3-0.1,0.4,0.1l0.8,1.1c0.1,0.2,0.1,0.3-0.1,0.5
				c-0.9,0.9-2.3,1.4-3.8,1.4C706.6,77.4,704.3,75,704.3,71.7z M712.3,70.7c-0.2-1.4-1.1-2.2-2.4-2.2c-1.3,0-2.4,0.7-2.6,2.2H712.3z
				"/>
			<path class="st8" d="M717.8,74.2v-5.5h-1.4c-0.2,0-0.3-0.1-0.3-0.3v-1.7c0-0.2,0.1-0.3,0.3-0.3h1.4v-2.5c0-0.2,0.1-0.3,0.3-0.3
				h2.4c0.2,0,0.3,0.1,0.3,0.3v2.5h1.7c0.2,0,0.3,0.1,0.3,0.3v1.7c0,0.2-0.1,0.3-0.3,0.3h-1.7v5.2c0,0.6,0.4,0.9,0.9,0.9
				c0.2,0,0.4,0,0.7,0c0.2,0,0.4,0.1,0.4,0.3v1.6c0,0.5-1.1,0.6-1.8,0.6C719.4,77.4,717.8,76.6,717.8,74.2z"/>
			<path class="st8" d="M724.4,75.6c0-1,0.8-1.8,1.8-1.8c1,0,1.8,0.8,1.8,1.8c0,1-0.8,1.8-1.8,1.8C725.2,77.4,724.4,76.6,724.4,75.6
				z"/>
		</g>
		<rect x="261.4" y="98.4" class="st6" width="541" height="15"/>
		<g class="st7">
			<path class="st8" d="M262.8,105.8c0-4,3-7.2,7.1-7.2c1.9,0,3.5,0.7,4.7,1.8c0.1,0.1,0.2,0.3,0.1,0.5l-0.6,0.6
				c-0.1,0.1-0.3,0.1-0.4,0c-1-0.9-2.2-1.4-3.7-1.4c-3.2,0-5.6,2.4-5.6,5.8s2.4,5.7,5.6,5.7c1.5,0,2.7-0.5,3.7-1.4
				c0.2-0.2,0.3-0.1,0.4,0l0.6,0.6c0.2,0.2,0.1,0.3-0.1,0.5c-1.2,1.1-2.8,1.8-4.7,1.8C265.7,113,262.8,109.8,262.8,105.8z"/>
			<path class="st8" d="M285.8,106.7v5.8c0,0.2-0.1,0.3-0.3,0.3h-0.9c-0.2,0-0.2-0.1-0.2-0.3v-5.6c0-1.7-0.9-2.8-2.5-2.8
				c-1.6,0-2.8,1.1-2.8,2.8v5.6c0,0.2-0.1,0.3-0.3,0.3h-0.9c-0.2,0-0.3-0.1-0.3-0.3V98.7c0-0.2,0.1-0.3,0.3-0.3h0.9
				c0.2,0,0.3,0.1,0.3,0.3v5.8c0.6-1,1.6-1.8,3.2-1.8C284.3,102.7,285.8,104.1,285.8,106.7z"/>
			<path class="st8" d="M288.3,107.8c0-2.9,2-5.1,4.9-5.1c2.9,0,4.6,2.2,4.6,4.6c0,0.7-0.1,1-0.7,1h-7.4c0.2,1.9,1.5,3.4,3.9,3.4
				c1.2,0,2.1-0.4,2.8-0.9c0.1-0.1,0.2-0.1,0.3,0l0.3,0.5c0.1,0.2,0.1,0.3-0.1,0.4c-0.9,0.8-2.1,1.3-3.5,1.3
				C290.3,112.9,288.3,110.6,288.3,107.8z M296.5,107.2c-0.1-1.9-1.3-3.3-3.3-3.3c-1.9,0-3.3,1.3-3.5,3.3H296.5z"/>
			<path class="st8" d="M299.8,107.8c0-2.9,2.2-5.1,5.1-5.1c1.6,0,2.8,0.6,3.7,1.6c0.1,0.2,0.2,0.3,0,0.4l-0.5,0.5
				c-0.2,0.2-0.3,0.1-0.5,0c-0.6-0.7-1.4-1.2-2.7-1.2c-2.2,0-3.8,1.6-3.8,3.8c0,2.2,1.6,3.8,3.8,3.8c1.3,0,2-0.5,2.6-1.1
				c0.1-0.1,0.3-0.2,0.5,0l0.5,0.5c0.1,0.1,0.1,0.2,0,0.4c-0.8,1-2.1,1.6-3.7,1.6C302,112.9,299.8,110.7,299.8,107.8z"/>
			<path class="st8" d="M311.2,112.4V98.7c0-0.2,0.1-0.3,0.3-0.3h0.9c0.2,0,0.3,0.1,0.3,0.3v9.4l4.6-5c0.1-0.1,0.2-0.2,0.3-0.2h1.2
				c0.2,0,0.2,0.2,0.1,0.3l-3.6,3.9l4.2,5.3c0.1,0.2,0.1,0.3-0.2,0.3h-1c-0.2,0-0.3,0-0.4-0.2l-3.5-4.5l-1.7,1.8v2.5
				c0,0.2-0.1,0.3-0.3,0.3h-0.9C311.3,112.7,311.2,112.6,311.2,112.4z"/>
			<path class="st8" d="M327.2,110.8l0,1.6c0,0.2-0.1,0.3-0.3,0.3h-0.8c-0.2,0-0.3-0.1-0.3-0.3V98.7c0-0.2,0.1-0.3,0.3-0.3h0.9
				c0.2,0,0.3,0.1,0.3,0.3v6.1c0.7-1.3,2-2.1,3.7-2.1c2.9,0,4.8,2.2,4.8,5.1c0,2.9-2,5.1-4.8,5.1
				C329.2,112.9,327.9,112.1,327.2,110.8z M334.4,107.8c0-2.3-1.5-3.8-3.6-3.8c-2.1,0-3.5,1.6-3.5,3.8c0,2.3,1.5,3.8,3.5,3.8
				C332.9,111.6,334.4,110.1,334.4,107.8z"/>
			<path class="st8" d="M337.8,107.8c0-2.9,2-5.1,4.8-5.1c1.8,0,3,0.9,3.8,2.2l0-1.6c0-0.2,0.1-0.3,0.3-0.3h0.9
				c0.2,0,0.3,0.1,0.3,0.3v9.2c0,0.2-0.1,0.3-0.3,0.3h-0.9c-0.2,0-0.3-0.1-0.3-0.3l0-1.6c-0.7,1.3-2,2.1-3.8,2.1
				C339.8,112.9,337.8,110.7,337.8,107.8z M346.4,107.8c0-2.3-1.5-3.8-3.6-3.8c-2.1,0-3.6,1.5-3.6,3.8c0,2.3,1.5,3.8,3.6,3.8
				C345,111.6,346.4,110.1,346.4,107.8z"/>
			<path class="st8" d="M350.3,107.8c0-2.9,2.2-5.1,5.1-5.1c1.6,0,2.8,0.6,3.7,1.6c0.1,0.2,0.2,0.3,0,0.4l-0.5,0.5
				c-0.2,0.2-0.3,0.1-0.5,0c-0.6-0.7-1.4-1.2-2.7-1.2c-2.2,0-3.8,1.6-3.8,3.8c0,2.2,1.6,3.8,3.8,3.8c1.3,0,2-0.5,2.6-1.1
				c0.1-0.1,0.3-0.2,0.5,0l0.5,0.5c0.1,0.1,0.1,0.2,0,0.4c-0.8,1-2.1,1.6-3.7,1.6C352.5,112.9,350.3,110.7,350.3,107.8z"/>
			<path class="st8" d="M361.8,112.4V98.7c0-0.2,0.1-0.3,0.3-0.3h0.9c0.2,0,0.3,0.1,0.3,0.3v9.4l4.6-5c0.1-0.1,0.2-0.2,0.3-0.2h1.2
				c0.2,0,0.2,0.2,0.1,0.3l-3.6,3.9l4.2,5.3c0.1,0.2,0.1,0.3-0.2,0.3h-1c-0.2,0-0.3,0-0.4-0.2l-3.5-4.5l-1.7,1.8v2.5
				c0,0.2-0.1,0.3-0.3,0.3H362C361.8,112.7,361.8,112.6,361.8,112.4z"/>
			<path class="st8" d="M377.2,112.4v-8.3H376c-0.2,0-0.3-0.1-0.3-0.3v-0.6c0-0.2,0.1-0.3,0.3-0.3h1.2v-2.2c0-1.7,0.9-2.6,2.6-2.6
				c0.4,0,0.7,0,1,0.2c0.1,0.1,0.2,0.1,0.2,0.3v0.8c0,0.1-0.1,0.2-0.2,0.1c-0.3,0-0.5-0.1-0.7-0.1c-1.1,0-1.3,0.7-1.3,1.6v1.9h2
				c0.2,0,0.3,0.1,0.3,0.3v0.6c0,0.2-0.1,0.3-0.3,0.3h-2v8.3c0,0.2-0.1,0.3-0.3,0.3h-0.9C377.3,112.7,377.2,112.6,377.2,112.4z"/>
			<path class="st8" d="M382.2,107.8c0-2.9,2.2-5.1,5-5.1c2.8,0,5,2.2,5,5.1c0,2.9-2.2,5.1-5,5.1
				C384.4,112.9,382.2,110.7,382.2,107.8z M390.9,107.8c0-2.2-1.5-3.8-3.6-3.8c-2.1,0-3.6,1.6-3.6,3.8c0,2.2,1.5,3.8,3.6,3.8
				C389.3,111.6,390.9,110,390.9,107.8z"/>
			<path class="st8" d="M394.8,112.4v-9.2c0-0.2,0.1-0.3,0.3-0.3h0.8c0.2,0,0.3,0.1,0.3,0.3l0,1.1c0.4-0.9,1-1.7,2.3-1.7
				c0.4,0,0.7,0.1,0.9,0.2c0.1,0.1,0.2,0.2,0.2,0.3v0.7c0,0.2-0.1,0.3-0.4,0.2c-0.3-0.1-0.5-0.1-0.7-0.1c-1.8,0-2.2,1.6-2.2,2.7v5.8
				c0,0.2-0.1,0.3-0.3,0.3H395C394.9,112.7,394.8,112.6,394.8,112.4z"/>
			<path class="st8" d="M413.9,106.7v5.8c0,0.2-0.1,0.3-0.3,0.3h-0.9c-0.2,0-0.2-0.1-0.2-0.3v-5.6c0-1.7-0.9-2.8-2.5-2.8
				c-1.6,0-2.8,1.1-2.8,2.8v5.6c0,0.2-0.1,0.3-0.3,0.3h-0.9c-0.2,0-0.3-0.1-0.3-0.3V98.7c0-0.2,0.1-0.3,0.3-0.3h0.9
				c0.2,0,0.3,0.1,0.3,0.3v5.8c0.6-1,1.6-1.8,3.2-1.8C412.5,102.7,413.9,104.1,413.9,106.7z"/>
			<path class="st8" d="M416.4,107.8c0-2.9,2-5.1,4.8-5.1c1.8,0,3,0.9,3.8,2.2l0-1.6c0-0.2,0.1-0.3,0.3-0.3h0.9
				c0.2,0,0.3,0.1,0.3,0.3v9.2c0,0.2-0.1,0.3-0.3,0.3h-0.9c-0.2,0-0.3-0.1-0.3-0.3l0-1.6c-0.7,1.3-2,2.1-3.8,2.1
				C418.4,112.9,416.4,110.7,416.4,107.8z M425,107.8c0-2.3-1.5-3.8-3.6-3.8c-2.1,0-3.6,1.5-3.6,3.8c0,2.3,1.5,3.8,3.6,3.8
				C423.6,111.6,425,110.1,425,107.8z"/>
			<path class="st8" d="M429.5,112.4v-9.2c0-0.2,0.1-0.3,0.3-0.3h0.8c0.2,0,0.3,0.1,0.3,0.3l0.1,1.3c0.6-1,1.6-1.8,3.2-1.8
				c2.1,0,3.6,1.4,3.6,4v5.8c0,0.2-0.1,0.3-0.3,0.3h-0.9c-0.2,0-0.2-0.1-0.2-0.3v-5.6c0-1.7-0.9-2.8-2.5-2.8s-2.8,1.1-2.8,2.8v5.6
				c0,0.2-0.1,0.3-0.3,0.3h-0.9C429.5,112.7,429.5,112.6,429.5,112.4z"/>
			<path class="st8" d="M440.2,107.8c0-2.9,2-5.1,4.8-5.1c1.7,0,3,0.8,3.7,2.1v-6.1c0-0.2,0.1-0.3,0.3-0.3h0.9
				c0.2,0,0.3,0.1,0.3,0.3v13.7c0,0.2-0.1,0.3-0.3,0.3h-0.9c-0.2,0-0.3-0.1-0.3-0.3l0-1.6c-0.7,1.3-2,2.1-3.8,2.1
				C442.2,112.9,440.2,110.7,440.2,107.8z M448.8,107.8c0-2.3-1.5-3.8-3.6-3.8c-2.1,0-3.6,1.5-3.6,3.8c0,2.3,1.5,3.8,3.6,3.8
				C447.4,111.6,448.8,110.1,448.8,107.8z"/>
			<path class="st8" d="M452.8,107.4v-0.7c0-0.2,0.1-0.3,0.3-0.3h6c0.2,0,0.3,0.1,0.3,0.3v0.7c0,0.2-0.1,0.3-0.3,0.3h-6
				C452.9,107.7,452.8,107.6,452.8,107.4z"/>
			<path class="st8" d="M461.5,107.8c0-2.9,2.2-5.1,5.1-5.1c1.6,0,2.8,0.6,3.7,1.6c0.1,0.2,0.2,0.3,0,0.4l-0.5,0.5
				c-0.2,0.2-0.3,0.1-0.5,0c-0.6-0.7-1.4-1.2-2.7-1.2c-2.2,0-3.8,1.6-3.8,3.8c0,2.2,1.6,3.8,3.8,3.8c1.3,0,2-0.5,2.6-1.1
				c0.1-0.1,0.3-0.2,0.5,0l0.5,0.5c0.1,0.1,0.1,0.2,0,0.4c-0.8,1-2.1,1.6-3.7,1.6C463.7,112.9,461.5,110.7,461.5,107.8z"/>
			<path class="st8" d="M472.9,112.4v-9.2c0-0.2,0.1-0.3,0.3-0.3h0.8c0.2,0,0.3,0.1,0.3,0.3l0,1.1c0.4-0.9,1-1.7,2.3-1.7
				c0.4,0,0.7,0.1,0.9,0.2c0.1,0.1,0.2,0.2,0.2,0.3v0.7c0,0.2-0.1,0.3-0.4,0.2c-0.3-0.1-0.5-0.1-0.7-0.1c-1.8,0-2.2,1.6-2.2,2.7v5.8
				c0,0.2-0.1,0.3-0.3,0.3h-0.9C473,112.7,472.9,112.6,472.9,112.4z"/>
			<path class="st8" d="M479,107.8c0-2.9,2-5.1,4.8-5.1c1.8,0,3,0.9,3.8,2.2l0-1.6c0-0.2,0.1-0.3,0.3-0.3h0.9c0.2,0,0.3,0.1,0.3,0.3
				v9.2c0,0.2-0.1,0.3-0.3,0.3h-0.9c-0.2,0-0.3-0.1-0.3-0.3l0-1.6c-0.7,1.3-2,2.1-3.8,2.1C480.9,112.9,479,110.7,479,107.8z
				 M487.5,107.8c0-2.3-1.5-3.8-3.6-3.8c-2.1,0-3.6,1.5-3.6,3.8c0,2.3,1.5,3.8,3.6,3.8C486.1,111.6,487.5,110.1,487.5,107.8z"/>
			<path class="st8" d="M492.8,112.4v-8.3h-1.2c-0.2,0-0.3-0.1-0.3-0.3v-0.6c0-0.2,0.1-0.3,0.3-0.3h1.2v-2.2c0-1.7,0.9-2.6,2.6-2.6
				c0.4,0,0.7,0,1,0.2c0.1,0.1,0.2,0.1,0.2,0.3v0.8c0,0.1-0.1,0.2-0.2,0.1c-0.3,0-0.5-0.1-0.7-0.1c-1.1,0-1.3,0.7-1.3,1.6v1.9h2
				c0.2,0,0.3,0.1,0.3,0.3v0.6c0,0.2-0.1,0.3-0.3,0.3h-2v8.3c0,0.2-0.1,0.3-0.3,0.3h-0.9C492.9,112.7,492.8,112.6,492.8,112.4z"/>
			<path class="st8" d="M499.6,110.8v-6.7h-1.3c-0.2,0-0.3-0.1-0.3-0.3v-0.6c0-0.2,0.1-0.3,0.3-0.3h1.3v-2.3c0-0.2,0.1-0.3,0.3-0.3
				h0.9c0.2,0,0.3,0.1,0.3,0.3v2.3h1.7c0.2,0,0.3,0.1,0.3,0.3v0.6c0,0.2-0.1,0.3-0.3,0.3h-1.7v6.5c0,0.8,0.3,1,0.9,1
				c0.2,0,0.4,0,0.6,0c0.3,0,0.4,0.1,0.4,0.3v0.6c0,0.3-0.7,0.4-1.3,0.4C500.3,112.9,499.6,112.3,499.6,110.8z"/>
			<path class="st8" d="M504.8,107.8c0-2.9,2-5.1,4.9-5.1c2.9,0,4.6,2.2,4.6,4.6c0,0.7-0.1,1-0.7,1h-7.4c0.2,1.9,1.5,3.4,3.9,3.4
				c1.2,0,2.1-0.4,2.8-0.9c0.1-0.1,0.2-0.1,0.3,0l0.3,0.5c0.1,0.2,0.1,0.3-0.1,0.4c-0.9,0.8-2.1,1.3-3.5,1.3
				C506.8,112.9,504.8,110.6,504.8,107.8z M513.1,107.2c-0.1-1.9-1.3-3.3-3.3-3.3c-1.9,0-3.3,1.3-3.5,3.3H513.1z"/>
			<path class="st8" d="M516.4,107.8c0-2.9,2-5.1,4.8-5.1c1.7,0,3,0.8,3.7,2.1v-6.1c0-0.2,0.1-0.3,0.3-0.3h0.9
				c0.2,0,0.3,0.1,0.3,0.3v13.7c0,0.2-0.1,0.3-0.3,0.3h-0.9c-0.2,0-0.3-0.1-0.3-0.3l0-1.6c-0.7,1.3-2,2.1-3.8,2.1
				C518.3,112.9,516.4,110.7,516.4,107.8z M525,107.8c0-2.3-1.5-3.8-3.6-3.8s-3.6,1.5-3.6,3.8c0,2.3,1.5,3.8,3.6,3.8
				S525,110.1,525,107.8z"/>
			<path class="st8" d="M532.9,107.8c0-2.9,2-5.1,4.8-5.1c1.7,0,3,0.8,3.7,2.1v-6.1c0-0.2,0.1-0.3,0.3-0.3h0.9
				c0.2,0,0.3,0.1,0.3,0.3v13.7c0,0.2-0.1,0.3-0.3,0.3h-0.9c-0.2,0-0.3-0.1-0.3-0.3l0-1.6c-0.7,1.3-2,2.1-3.8,2.1
				C534.9,112.9,532.9,110.7,532.9,107.8z M541.5,107.8c0-2.3-1.5-3.8-3.6-3.8c-2.1,0-3.6,1.5-3.6,3.8c0,2.3,1.5,3.8,3.6,3.8
				C540,111.6,541.5,110.1,541.5,107.8z"/>
			<path class="st8" d="M545.7,99.5c0-0.5,0.4-0.9,0.9-0.9s0.9,0.4,0.9,0.9c0,0.5-0.4,0.9-0.9,0.9S545.7,100,545.7,99.5z
				 M545.9,112.4v-9.2c0-0.2,0.1-0.3,0.3-0.3h0.9c0.2,0,0.3,0.1,0.3,0.3v9.2c0,0.2-0.1,0.3-0.3,0.3h-0.9
				C546,112.7,545.9,112.6,545.9,112.4z"/>
			<path class="st8" d="M551.3,115.9c-0.2-0.1-0.2-0.2-0.1-0.4l0.3-0.6c0.1-0.1,0.2-0.2,0.4-0.1c0.8,0.5,1.8,0.8,2.8,0.8
				c1.9,0,3.7-0.8,3.7-3.3v-1.6c-0.7,1.2-2,2-3.7,2c-2.8,0-4.8-2-4.8-5c0-2.9,2-5,4.7-5c1.8,0,3,0.8,3.8,2l0-1.5
				c0-0.2,0.1-0.3,0.2-0.3h0.9c0.2,0,0.3,0.1,0.3,0.3v9.1c0,3.2-2.5,4.5-5,4.5C553.3,116.8,552.1,116.4,551.3,115.9z M558.3,107.7
				c0-2.2-1.4-3.7-3.5-3.7c-2,0-3.6,1.4-3.6,3.6c0,2.2,1.5,3.6,3.6,3.6C556.9,111.3,558.3,109.9,558.3,107.7z"/>
			<path class="st8" d="M562.6,99.5c0-0.5,0.4-0.9,0.9-0.9c0.5,0,0.9,0.4,0.9,0.9c0,0.5-0.4,0.9-0.9,0.9
				C563,100.4,562.6,100,562.6,99.5z M562.8,112.4v-9.2c0-0.2,0.1-0.3,0.3-0.3h0.9c0.2,0,0.3,0.1,0.3,0.3v9.2c0,0.2-0.1,0.3-0.3,0.3
				h-0.9C562.9,112.7,562.8,112.6,562.8,112.4z"/>
			<path class="st8" d="M568,110.8v-6.7h-1.3c-0.2,0-0.3-0.1-0.3-0.3v-0.6c0-0.2,0.1-0.3,0.3-0.3h1.3v-2.3c0-0.2,0.1-0.3,0.3-0.3
				h0.9c0.2,0,0.3,0.1,0.3,0.3v2.3h1.7c0.2,0,0.3,0.1,0.3,0.3v0.6c0,0.2-0.1,0.3-0.3,0.3h-1.7v6.5c0,0.8,0.3,1,0.9,1
				c0.2,0,0.4,0,0.6,0c0.3,0,0.4,0.1,0.4,0.3v0.6c0,0.3-0.7,0.4-1.3,0.4C568.7,112.9,568,112.3,568,110.8z"/>
			<path class="st8" d="M573.2,107.8c0-2.9,2-5.1,4.8-5.1c1.8,0,3,0.9,3.8,2.2l0-1.6c0-0.2,0.1-0.3,0.3-0.3h0.9
				c0.2,0,0.3,0.1,0.3,0.3v9.2c0,0.2-0.1,0.3-0.3,0.3h-0.9c-0.2,0-0.3-0.1-0.3-0.3l0-1.6c-0.7,1.3-2,2.1-3.8,2.1
				C575.2,112.9,573.2,110.7,573.2,107.8z M581.8,107.8c0-2.3-1.5-3.8-3.6-3.8s-3.6,1.5-3.6,3.8c0,2.3,1.5,3.8,3.6,3.8
				S581.8,110.1,581.8,107.8z"/>
			<path class="st8" d="M586.3,112.4V98.7c0-0.2,0.1-0.3,0.3-0.3h0.9c0.2,0,0.3,0.1,0.3,0.3v13.7c0,0.2-0.1,0.3-0.3,0.3h-0.9
				C586.3,112.7,586.3,112.6,586.3,112.4z"/>
			<path class="st8" d="M594.2,107.8c0-2.9,2-5.1,4.8-5.1c1.8,0,3,0.9,3.8,2.2l0-1.6c0-0.2,0.1-0.3,0.3-0.3h0.9
				c0.2,0,0.3,0.1,0.3,0.3v9.2c0,0.2-0.1,0.3-0.3,0.3h-0.9c-0.2,0-0.3-0.1-0.3-0.3l0-1.6c-0.7,1.3-2,2.1-3.8,2.1
				C596.2,112.9,594.2,110.7,594.2,107.8z M602.8,107.8c0-2.3-1.5-3.8-3.6-3.8s-3.6,1.5-3.6,3.8c0,2.3,1.5,3.8,3.6,3.8
				S602.8,110.1,602.8,107.8z"/>
			<path class="st8" d="M606.9,111.5c-0.1-0.2-0.1-0.3,0-0.5l0.3-0.4c0.1-0.2,0.3-0.2,0.5,0c0.6,0.6,1.3,1.1,2.4,1.1
				c1.1,0,2-0.5,2-1.5c0-0.9-0.6-1.4-1.5-1.8l-1.2-0.5c-1.2-0.5-2.2-1.2-2.2-2.6c0-1.6,1.4-2.6,3-2.6c1.1,0,2.2,0.5,2.9,1.4
				c0.1,0.1,0.1,0.3,0,0.4l-0.3,0.4c-0.2,0.2-0.3,0.2-0.5,0c-0.6-0.6-1.3-0.9-2-0.9c-0.9,0-1.7,0.4-1.7,1.4c0,0.9,0.7,1.3,1.7,1.7
				l1,0.4c1.3,0.5,2.3,1.2,2.3,2.8c0,1.8-1.6,2.8-3.3,2.8C608.5,112.9,607.5,112.2,606.9,111.5z"/>
			<path class="st8" d="M615.8,111.5c-0.1-0.2-0.1-0.3,0-0.5l0.3-0.4c0.1-0.2,0.3-0.2,0.5,0c0.6,0.6,1.3,1.1,2.4,1.1
				c1.1,0,2-0.5,2-1.5c0-0.9-0.6-1.4-1.5-1.8l-1.2-0.5c-1.2-0.5-2.2-1.2-2.2-2.6c0-1.6,1.4-2.6,3-2.6c1.1,0,2.2,0.5,2.9,1.4
				c0.1,0.1,0.1,0.3,0,0.4l-0.3,0.4c-0.2,0.2-0.3,0.2-0.5,0c-0.6-0.6-1.3-0.9-2-0.9c-0.9,0-1.7,0.4-1.7,1.4c0,0.9,0.7,1.3,1.7,1.7
				l1,0.4c1.3,0.5,2.3,1.2,2.3,2.8c0,1.8-1.6,2.8-3.3,2.8C617.4,112.9,616.3,112.2,615.8,111.5z"/>
			<path class="st8" d="M624.4,107.8c0-2.9,2-5.1,4.9-5.1c2.9,0,4.6,2.2,4.6,4.6c0,0.7-0.1,1-0.7,1h-7.4c0.2,1.9,1.5,3.4,3.9,3.4
				c1.2,0,2.1-0.4,2.8-0.9c0.1-0.1,0.2-0.1,0.3,0l0.3,0.5c0.1,0.2,0.1,0.3-0.1,0.4c-0.9,0.8-2.1,1.3-3.5,1.3
				C626.3,112.9,624.4,110.6,624.4,107.8z M632.6,107.2c-0.1-1.9-1.3-3.3-3.3-3.3c-1.9,0-3.3,1.3-3.5,3.3H632.6z"/>
			<path class="st8" d="M637.2,110.8v-6.7h-1.3c-0.2,0-0.3-0.1-0.3-0.3v-0.6c0-0.2,0.1-0.3,0.3-0.3h1.3v-2.3c0-0.2,0.1-0.3,0.3-0.3
				h0.9c0.2,0,0.3,0.1,0.3,0.3v2.3h1.7c0.2,0,0.3,0.1,0.3,0.3v0.6c0,0.2-0.1,0.3-0.3,0.3h-1.7v6.5c0,0.8,0.3,1,0.9,1
				c0.2,0,0.4,0,0.6,0c0.3,0,0.4,0.1,0.4,0.3v0.6c0,0.3-0.7,0.4-1.3,0.4C637.9,112.9,637.2,112.3,637.2,110.8z"/>
			<path class="st8" d="M643.9,110.8v-6.7h-1.3c-0.2,0-0.3-0.1-0.3-0.3v-0.6c0-0.2,0.1-0.3,0.3-0.3h1.3v-2.3c0-0.2,0.1-0.3,0.3-0.3
				h0.9c0.2,0,0.3,0.1,0.3,0.3v2.3h1.7c0.2,0,0.3,0.1,0.3,0.3v0.6c0,0.2-0.1,0.3-0.3,0.3h-1.7v6.5c0,0.8,0.3,1,0.9,1
				c0.2,0,0.4,0,0.6,0c0.3,0,0.4,0.1,0.4,0.3v0.6c0,0.3-0.7,0.4-1.3,0.4C644.7,112.9,643.9,112.3,643.9,110.8z"/>
			<path class="st8" d="M649.2,111.5c-0.1-0.2-0.1-0.3,0-0.5l0.3-0.4c0.1-0.2,0.3-0.2,0.5,0c0.6,0.6,1.3,1.1,2.4,1.1
				c1.1,0,2-0.5,2-1.5c0-0.9-0.6-1.4-1.5-1.8l-1.2-0.5c-1.2-0.5-2.2-1.2-2.2-2.6c0-1.6,1.4-2.6,3-2.6c1.1,0,2.2,0.5,2.9,1.4
				c0.1,0.1,0.1,0.3,0,0.4l-0.3,0.4c-0.2,0.2-0.3,0.2-0.5,0c-0.6-0.6-1.3-0.9-2-0.9c-0.9,0-1.7,0.4-1.7,1.4c0,0.9,0.7,1.3,1.7,1.7
				l1,0.4c1.3,0.5,2.3,1.2,2.3,2.8c0,1.8-1.6,2.8-3.3,2.8C650.8,112.9,649.8,112.2,649.2,111.5z"/>
			<path class="st8" d="M657.4,114.7c1.3,0,1.8-1.7,1.1-1.7c-0.7,0-1.1-0.4-1.1-1c0-0.6,0.5-1.1,1.1-1.1c0.7,0,1.3,0.7,1.3,1.7
				c0,1.3-1,2.6-2.5,2.6V114.7z"/>
			<path class="st8" d="M666.9,112.4v-8.3h-1.2c-0.2,0-0.3-0.1-0.3-0.3v-0.6c0-0.2,0.1-0.3,0.3-0.3h1.2v-2.2c0-1.7,0.9-2.6,2.6-2.6
				c0.4,0,0.7,0,1,0.2c0.1,0.1,0.2,0.1,0.2,0.3v0.8c0,0.1-0.1,0.2-0.2,0.1c-0.3,0-0.5-0.1-0.7-0.1c-1.1,0-1.3,0.7-1.3,1.6v1.9h2
				c0.2,0,0.3,0.1,0.3,0.3v0.6c0,0.2-0.1,0.3-0.3,0.3h-2v8.3c0,0.2-0.1,0.3-0.3,0.3h-0.9C667,112.7,666.9,112.6,666.9,112.4z"/>
			<path class="st8" d="M672,107.8c0-2.9,2.2-5.1,5-5.1c2.8,0,5,2.2,5,5.1c0,2.9-2.2,5.1-5,5.1C674.1,112.9,672,110.7,672,107.8z
				 M680.6,107.8c0-2.2-1.5-3.8-3.6-3.8c-2.1,0-3.6,1.6-3.6,3.8c0,2.2,1.5,3.8,3.6,3.8C679,111.6,680.6,110,680.6,107.8z"/>
			<path class="st8" d="M684.5,112.4v-9.2c0-0.2,0.1-0.3,0.3-0.3h0.8c0.2,0,0.3,0.1,0.3,0.3l0.1,1.3c0.6-1,1.6-1.8,3.2-1.8
				c2.1,0,3.6,1.4,3.6,4v5.8c0,0.2-0.1,0.3-0.3,0.3h-0.9c-0.2,0-0.2-0.1-0.2-0.3v-5.6c0-1.7-0.9-2.8-2.5-2.8s-2.8,1.1-2.8,2.8v5.6
				c0,0.2-0.1,0.3-0.3,0.3h-0.9C684.6,112.7,684.5,112.6,684.5,112.4z"/>
			<path class="st8" d="M696.4,110.8v-6.7h-1.3c-0.2,0-0.3-0.1-0.3-0.3v-0.6c0-0.2,0.1-0.3,0.3-0.3h1.3v-2.3c0-0.2,0.1-0.3,0.3-0.3
				h0.9c0.2,0,0.3,0.1,0.3,0.3v2.3h1.7c0.2,0,0.3,0.1,0.3,0.3v0.6c0,0.2-0.1,0.3-0.3,0.3h-1.7v6.5c0,0.8,0.3,1,0.9,1
				c0.2,0,0.4,0,0.6,0c0.3,0,0.4,0.1,0.4,0.3v0.6c0,0.3-0.7,0.4-1.3,0.4C697.1,112.9,696.4,112.3,696.4,110.8z"/>
			<path class="st8" d="M701.7,111.5c-0.1-0.2-0.1-0.3,0-0.5l0.3-0.4c0.1-0.2,0.3-0.2,0.5,0c0.6,0.6,1.3,1.1,2.4,1.1
				c1.1,0,2-0.5,2-1.5c0-0.9-0.6-1.4-1.5-1.8l-1.2-0.5c-1.2-0.5-2.2-1.2-2.2-2.6c0-1.6,1.4-2.6,3-2.6c1.1,0,2.2,0.5,2.9,1.4
				c0.1,0.1,0.1,0.3,0,0.4l-0.3,0.4c-0.2,0.2-0.3,0.2-0.5,0c-0.6-0.6-1.3-0.9-2-0.9c-0.9,0-1.7,0.4-1.7,1.4c0,0.9,0.7,1.3,1.7,1.7
				l1,0.4c1.3,0.5,2.3,1.2,2.3,2.8c0,1.8-1.6,2.8-3.3,2.8C703.3,112.9,702.2,112.2,701.7,111.5z"/>
			<path class="st8" d="M714.3,109.1c0-2.1,1.3-3.2,3.2-4.5c-1-1-1.7-2-1.7-3.2c0-1.5,1.2-2.8,3-2.8c1.8,0,3,1.3,3,2.8
				c0,1.5-1,2.5-2.5,3.5l3.3,3.7l1.4-2.2c0.1-0.1,0.1-0.2,0.3-0.2h1c0.1,0,0.2,0.1,0.1,0.3l-1.9,3.1l2.1,2.3c0.1,0.1,0.1,0.3,0,0.4
				l-0.5,0.5c-0.1,0.1-0.3,0.1-0.4,0l-1.9-2.2c-1.2,1.5-2.6,2.4-4.5,2.4C716.1,113,714.3,111.6,714.3,109.1z M722,109.7l-3.6-4.1
				c-1.6,1-2.6,1.8-2.6,3.4c0,1.8,1.3,2.7,2.8,2.7C720,111.6,721.1,110.9,722,109.7z M720.5,101.5c0-1-0.7-1.6-1.7-1.6
				c-1,0-1.7,0.6-1.7,1.6c0,1,0.7,1.8,1.4,2.5C719.8,103.2,720.5,102.5,720.5,101.5z"/>
			<path class="st8" d="M732.2,112.4v-9.2c0-0.2,0.1-0.3,0.3-0.3h0.8c0.2,0,0.3,0.1,0.3,0.3l0,1.1c0.5-0.9,1.3-1.7,2.8-1.7
				c1.4,0,2.4,0.6,2.9,1.9c0.5-1.1,1.4-1.9,3.1-1.9c2,0,3.2,1.3,3.2,3.9v5.9c0,0.2-0.1,0.3-0.3,0.3h-0.9c-0.2,0-0.3-0.1-0.3-0.3
				v-5.7c0-1.7-0.7-2.7-2.1-2.7c-1.4,0-2.4,1-2.4,2.7v5.7c0,0.2-0.1,0.3-0.3,0.3h-0.9c-0.2,0-0.3-0.1-0.3-0.3v-5.7
				c0-1.7-0.8-2.7-2.2-2.7c-1.5,0-2.3,1-2.3,2.7v5.7c0,0.2-0.1,0.3-0.3,0.3h-0.9C732.3,112.7,732.2,112.6,732.2,112.4z"/>
			<path class="st8" d="M748.2,107.8c0-2.9,2.2-5.1,5-5.1c2.8,0,5,2.2,5,5.1c0,2.9-2.2,5.1-5,5.1
				C750.3,112.9,748.2,110.7,748.2,107.8z M756.8,107.8c0-2.2-1.5-3.8-3.6-3.8c-2.1,0-3.6,1.6-3.6,3.8c0,2.2,1.5,3.8,3.6,3.8
				C755.3,111.6,756.8,110,756.8,107.8z"/>
			<path class="st8" d="M760.7,112.4v-9.2c0-0.2,0.1-0.3,0.3-0.3h0.8c0.2,0,0.3,0.1,0.3,0.3l0,1.1c0.4-0.9,1-1.7,2.3-1.7
				c0.4,0,0.7,0.1,0.9,0.2c0.1,0.1,0.2,0.2,0.2,0.3v0.7c0,0.2-0.1,0.3-0.4,0.2c-0.3-0.1-0.5-0.1-0.7-0.1c-1.8,0-2.2,1.6-2.2,2.7v5.8
				c0,0.2-0.1,0.3-0.3,0.3H761C760.8,112.7,760.7,112.6,760.7,112.4z"/>
			<path class="st8" d="M766.8,107.8c0-2.9,2-5.1,4.9-5.1c2.9,0,4.6,2.2,4.6,4.6c0,0.7-0.1,1-0.7,1h-7.4c0.2,1.9,1.5,3.4,3.9,3.4
				c1.2,0,2.1-0.4,2.8-0.9c0.1-0.1,0.2-0.1,0.3,0l0.3,0.5c0.1,0.2,0.1,0.3-0.1,0.4c-0.9,0.8-2.1,1.3-3.5,1.3
				C768.8,112.9,766.8,110.6,766.8,107.8z M775,107.2c-0.1-1.9-1.3-3.3-3.3-3.3c-1.9,0-3.3,1.3-3.5,3.3H775z"/>
			<path class="st8" d="M778.5,111.9c0-0.6,0.5-1,1-1s1,0.5,1,1c0,0.6-0.5,1-1,1S778.5,112.5,778.5,111.9z M779,108.7l-0.2-9.7
				c0-0.2,0.1-0.3,0.3-0.3h1c0.2,0,0.2,0.1,0.2,0.3l-0.2,9.7c0,0.2-0.1,0.3-0.3,0.3h-0.7C779.1,108.9,779,108.8,779,108.7z"/>
		</g>
	</g>
</g>
<g id="Layer_2_1_">
	<g id="Draw_Layer_1_">
		<circle class="st9" cx="99.8" cy="24.6" r="20.5"/>
		<path class="st10" d="M99.8,25.6l-7,8.7H91l7.9-9.9l-7.6-9.5h1.8l6.7,8.4l6.7-8.3h1.8l-7.6,9.5l7.8,9.9h-1.8L99.8,25.6z"/>
	</g>
</g>
</svg>
