<svg xmlns="http://www.w3.org/2000/svg" width="214.557" height="298.191" viewBox="0 0 214.557 298.191">
  <defs>
    <style>
      .a {
        fill: #a9b5d6;
      }

      .b {
        fill: #48588b;
      }

      .c {
        fill: #f8f8f5;
      }

      .d {
        fill: #fff;
      }

      .e {
        fill: #2f345b;
      }
    </style>
  </defs>
  <g>
    <g>
      <path class="a" d="M196.615,35.335c-6.791-5.333-14.527-9.461-20.772-15.471A35.328,35.328,0,0,1,164.45,5.21l-.466-1.7H5.942v255h205V48.719A38.443,38.443,0,0,1,196.615,35.335Z"/>
      <path class="b" d="M4,3.4c-.1,1.025-.135,2.053-.146,3.084C3.843,7.3,3.785,8.1,3.728,8.911c-.063.895-.047,1.792-.04,2.687,0,.5,0,1,.019,1.5.02.393.046.784.074,1.176V14.27c.065,1.028.12,2.059.128,3.092.01,1.255-.018,2.51,0,3.768s-.023,2.5-.042,3.755,0,2.5-.018,3.744c-.01,1.211-.086,2.422-.057,3.632.013.609.052,1.214.091,1.822.042.636.042,1.276.034,1.915A25.394,25.394,0,0,0,4.1,39.886c.067.475.188.939.289,1.409.11.5.188,1.01.253,1.518a27.408,27.408,0,0,1-.088,3.3c-.081,1.2-.165,2.4-.188,3.6-.021,1.132-.063,2.264-.11,3.4C4.2,54.3,4.2,55.5,4.182,56.69c-.019,1.221-.052,2.442-.047,3.663,0,1.127.021,2.26-.019,3.387-.018.535-.054,1.07-.08,1.6-.032.616-.029,1.234-.045,1.85-.036,1.221-.091,2.439-.12,3.661-.034,1.294-.117,2.593-.091,3.888s.138,2.611.154,3.919c.029,2.5-.337,4.978-.535,7.465-.1,1.252-.125,2.507-.123,3.763,0,1.213-.015,2.424-.042,3.637-.013.652-.015,1.31-.054,1.959S3.1,96.8,3.088,97.452c-.01,1.133.04,2.257.107,3.387.079,1.263.12,2.526.152,3.791s.007,2.539,0,3.807c-.007,1.172-.041,2.341-.073,3.512-.034,1.245-.028,2.49-.039,3.734q-.039,3.769.011,7.539c.02,1.291.044,2.58.1,3.869.047,1.156.065,2.32.049,3.476-.031,2.547-.177,5.091-.206,7.637-.026,2.37,0,4.736-.034,7.1-.01.626-.026,1.255-.005,1.881s.063,1.237.11,1.855c.091,1.235.093,2.469.081,3.706q-.021,1.732-.144,3.462a23.813,23.813,0,0,0,.011,3.431c.143,1.856.373,3.706.568,5.556.042.7.05,1.409.071,2.113.026.872.065,1.743.088,2.617.024.84.068,1.678.089,2.518.021.767-.018,1.532-.05,2.294a80.479,80.479,0,0,0,.473,10.27c.031.587.049,1.169.042,1.759-.008.626-.034,1.252-.053,1.878-.034,1.224.068,2.44.118,3.661.023.619.057,1.242.049,1.861-.01.644-.057,1.286-.1,1.93-.083,1.266-.169,2.529-.172,3.8,0,1.236.029,2.471.084,3.707.047,1.156.041,2.315.041,3.471,0,.53-.029,1.062-.034,1.592q-.011.942-.018,1.886-.007.885-.042,1.764c-.026.655-.114,1.305-.154,1.957-.078,1.284-.1,2.567-.073,3.851s.11,2.568.089,3.852c-.013.634-.052,1.265-.063,1.9-.01.608.014,1.213.04,1.821.055,1.336.13,2.67.234,4-.01-.112-.018-.227-.028-.339.087,1.119.1,2.244.175,3.364,0-.037-.007-.073-.011-.108q.03.38.055.759v.011l0,.021,0,.044c0,.027,0,.054.007.081v-.013l.006.071v-.011c0,.044.007.089.009.136,0-.024,0-.045,0-.065.045.587.092,1.174.146,1.761.066.67.16,1.341.233,2.014.115,1.662.177,3.33.31,4.992.065.806.133,1.618.232,2.421.094.752.2,1.5.282,2.255.034.5.071,1,.071,1.5,0,.6-.016,1.2-.011,1.8.011,1.2.1,2.395.207,3.593.046.947.01,1.884-.037,2.831a1.335,1.335,0,0,0,2.651.285l-.013,0a.881.881,0,0,0,.013-.146c.039-.744.075-1.54.062-2.341-.005-.574-.062-1.153-.114-1.667l-.045-.441c-.049-.835-.075-1.636-.073-2.382,0-.154,0-.308.006-.465l0-.232q0-.348,0-.7c0-.3-.015-.587-.031-.879l-.008-.11-.021-.328c-.041-.755-.138-1.5-.232-2.229l-.091-.7c-.118-1.01-.2-2-.264-2.756-.049-.689-.086-1.378-.122-2.066-.032-.614-.066-1.227-.107-1.84-.047-.728-.131-1.464-.214-2.194l-.034-.311c-.045-.43-.092-.858-.133-1.289l-.037-.511-.031-.4L7.2,232.34q-.033-.576-.055-1.156l-.013-.279-.024-.538c-.013-.344-.029-.691-.047-1.038h.006v-.016l-.01-.055c0-.022,0-.042,0-.064v0l-.01.043c-.062-.882-.107-1.761-.149-2.643l-.039-.752c-.028-.571-.039-1.14-.042-1.711,0-.345.016-.689.032-1.039.013-.263.026-.527.028-.79.021-1.091-.018-2.208-.054-3.194l-.021-.551c-.037-1.166-.024-2.369.039-3.674.029-.618.084-1.237.138-1.855s.071-1.213.081-1.887c.013-.537.018-1.075.024-1.623,0-.641.01-1.283.026-1.925.031-1.357-.011-2.737-.055-4.138l-.008-.269c-.026-.885-.052-1.772-.057-2.662,0-1.5.091-3.006.185-4.469l0-.073.008-.139a21.477,21.477,0,0,0,.063-2.16c-.018-.713-.047-1.422-.089-2.135-.039-.683-.078-1.492-.07-2.3,0-.561.021-1.125.039-1.686L7.141,187a29.48,29.48,0,0,0-.191-3.742c-.034-.359-.068-.72-.1-1.08l-.013-.185-.008-.138c-.12-1.712-.245-3.484-.245-5.227,0-.79.039-1.625.068-2.293l.018-.457c.037-.832,0-1.678-.034-2.541l-.008-.17c-.015-.42-.029-.84-.042-1.263l-.015-.42-.039-1.117c-.016-.456-.032-.913-.045-1.372-.005-.167-.007-.334-.01-.509v-.1c0-.287-.01-.574-.034-.861-.076-1.043-.2-2.132-.3-3.008l-.026-.245c-.086-.744-.17-1.483-.235-2.226l-.008-.115.008-.078,0-.031-.01.052a26.489,26.489,0,0,1-.034-3.21l.039-.686c.047-.822.1-1.848.115-2.826.016-1.088.021-2.377-.055-3.676-.01-.228-.026-.452-.042-.679l-.018-.235c-.021-.263-.041-.527-.057-.79-.034-.527-.026-1.06-.019-1.576l.006-.465c.013-1.158.015-2.317.018-3.475,0-1.245,0-2.487.018-3.729.016-1.2.039-2.476.086-3.718l.011-.24c.052-1.24.1-2.359.107-3.476.021-1.375-.021-2.771-.06-4.123l-.008-.232c-.031-1.01-.063-2.022-.073-3.032l-.008-.952v-.217c-.021-2.119-.042-4.308-.011-6.458q.012-.657.016-1.31l0-.433c0-.686.008-1.375.021-2.061l.031-1.261c.018-.7.037-1.406.044-2.111.029-2.225.037-4.866-.13-7.59-.076-1.255-.138-2.388-.131-3.538.008-.606.037-1.213.066-1.819l.01-.185c.029-.561.055-1.122.065-1.683.027-1.294.053-2.589.05-3.883,0-1.226.031-2.447.1-3.635.055-.931.151-1.876.243-2.789l.013-.133a43.168,43.168,0,0,0,.3-4.475c0-.749-.039-1.532-.073-2.166-.028-.568-.057-1.135-.07-1.706-.018-.916.01-1.847.037-2.75l0-.084c.011-.339.021-.681.029-1.023.044-1.818.12-4.558.25-7.363.037-.72.034-1.454.032-2.163l0-.128c0-.332,0-.66,0-.992.006-.983.019-1.964.032-2.961l.008-.6.015-1.005c.011-.871.021-1.74.047-2.611.016-.436.034-.869.055-1.3l.008-.17c.029-.673.06-1.349.06-2.025.008-1.1.078-2.2.159-3.413l.05-.686A20.772,20.772,0,0,0,7.3,42.988a15.472,15.472,0,0,0-.311-2.254,19.885,19.885,0,0,1-.36-2.014c-.065-.989-.063-1.984-.055-2.918.013-.709-.028-1.432-.068-2.071-.02-.363-.039-.726-.054-1.089-.026-.871,0-1.758.026-2.617V29.95l.015-.506c.019-.6.016-1.206.013-1.809,0-.457,0-.916,0-1.372s.019-.929.026-1.394l.011-.475c.01-.443.021-.889.026-1.333.01-.605,0-1.211,0-1.816,0-.517-.008-1.031,0-1.545.023-2.171-.026-3.984-.157-5.706-.049-.728-.055-1.448-.06-2.25l0-.279c-.008-.968-.008-1.714.046-2.5S6.5,7.4,6.5,6.625a30.969,30.969,0,0,1,.162-3.1h0A1.344,1.344,0,0,0,5.4,2.134c-.024,0-.047,0-.07,0A1.363,1.363,0,0,0,4,3.4Zm.635,230.01v0Z"/>
      <path class="b" d="M22.494,256.823l-.35.024c-.37.028-.793.062-1.211.062-.148,0-.3,0-.448-.013-.368-.026-.736-.039-1.107-.039-.281,0-.563.008-.843.029q-.547.034-1.095.078l-.822.06c-.152.008-.3.013-.455.013a7.915,7.915,0,0,1-1.011-.067l-.133-.013.013,0,.062.007-.061-.007.061.023-.133-.016a21.091,21.091,0,0,0-2.39-.148c-.264,0-.53,0-.8.02l-.144.006c-.561.028-1.122.057-1.683.114-.287.027-.574.066-.861.1l-.3.031c-.263.04-.527.08-.789.118a1.439,1.439,0,0,0-.947.425,1.336,1.336,0,0,0,.065,1.886,1.281,1.281,0,0,0,.942.36c.571-.08,1.14-.174,1.711-.242.548-.063,1.1-.084,1.647-.12a17.969,17.969,0,0,1,2.784.013c.418.049.837.1,1.258.13a11.528,11.528,0,0,0,1.641-.015c.551-.037,1.1-.092,1.657-.12a16.359,16.359,0,0,1,1.672.015c.261.013.522.029.783.029.284,0,.569-.042.854-.063.615-.047,1.231-.088,1.847-.094,1.022-.007,2.04.032,3.061.12.735.094,1.463.23,2.2.324.911.117,1.829.183,2.745.224.984.045,1.968.026,2.951.068.924.037,1.85.12,2.774.183,1.054.07,2.113.036,3.168.036,1.093,0,2.181.008,3.272.081,1.889.125,3.773.1,5.664.107,1,0,2,.055,2.993.06,1.041.006,2.083,0,3.121.013,1.057.013,2.114.037,3.17.089.911.047,1.819.12,2.733.162,2.087.091,4.179.031,6.269.021,1.044-.006,2.088,0,3.129.039.994.036,1.983.143,2.975.227,2,.167,4.01.334,6.019.438.932.047,1.856.078,2.787.039,1.033-.044,2.064-.122,3.095-.193a25.137,25.137,0,0,1,3.105-.041c1.033.054,2.069.122,3.105.161,1.02.039,2.046,0,3.068-.015.981-.019,1.96.007,2.941.02,1.991.024,3.982-.073,5.97-.193,1.07-.062,2.137-.135,3.207-.177,1.028-.042,2.051-.047,3.079-.013,2.048.065,4.091.243,6.139.269,1.039.013,2.075.007,3.111-.042.96-.047,1.923-.112,2.886-.141,1.059-.031,2.121-.039,3.183-.037.992,0,1.986.04,2.977.034,1.031,0,2.057-.034,3.087-.065.994-.029,1.988-.091,2.983-.094,2.053-.008,4.1-.039,6.152-.143,2.182-.113,4.36-.269,6.544-.308,2.062-.037,4.12.133,6.182.167,1.138.018,2.278.015,3.418.01.877,0,1.756,0,2.633,0,2.072.016,4.143.016,6.215.068,1.962.05,3.93.057,5.892.128,1.91.07,3.815.23,5.722.3,1.234.047,2.469.032,3.7.016.713-.008,1.422-.018,2.135-.016,1.978.011,3.95.094,5.928.081.945-.007,1.889-.026,2.833-.021.961.008,1.921.081,2.881.123,1.164.047,2.325,0,3.489-.031,1.049-.032,2.095-.11,3.144-.1.976,0,1.944-.07,2.917-.151.577-.05,1.154-.1,1.733-.133a9.654,9.654,0,0,1,1.007-.008c.337.052.665.12,1,.143.365.029.73.063,1.095.081a4.167,4.167,0,0,0,.418,0c.12,0,.24,0,.362,0a3.337,3.337,0,0,0,.489-.023l.107-.008a1.318,1.318,0,0,0,1.482-.324l.047-.054a1.327,1.327,0,0,0,.321-.6,1.442,1.442,0,0,0-.167-1.025,1.519,1.519,0,0,0-1.489-.691c0,.007,0,.015,0,.015-.088,0-.177.008-.261.018a6.6,6.6,0,0,1-.717.029h-.449c-.107,0-.214,0-.323,0-.16-.011-.316-.021-.473-.034l-.144-.011-.164-.013c-.114-.018-.224-.039-.389-.068l-.156-.026a6.082,6.082,0,0,0-1.088-.065c-.879,0-1.761.081-2.591.164a22.776,22.776,0,0,1-2.291.128c-.783,0-1.563.024-2.349.055l-.328.011c-.89.034-2,.078-3.048.078-.712,0-1.37-.021-2.009-.06-.754-.05-1.579-.071-2.669-.071-.439,0-.877,0-1.313.006l-.1,0-.449,0q-.443,0-.885,0h-.3c-.806,0-1.612-.021-2.418-.036l-.347-.006-.3-.008c-.885-.018-1.769-.036-2.654-.036l-.177,0c-.59,0-1.18.01-1.769.018l-1.172.018h-.36c-.918,0-1.847-.034-2.711-.07-.783-.034-1.563-.081-2.343-.131l-.232-.015c-.982-.058-1.994-.118-2.993-.141-.734-.019-1.467-.029-2.2-.04l-.94-.01q-.771-.015-1.542-.039c-.454-.013-.911-.026-1.367-.034-1.8-.039-3.625-.044-5.42-.05l-.725,0q-.994,0-1.986,0l-1.4,0c-.9,0-1.79-.008-2.685-.031-.551-.016-1.1-.04-1.647-.065l-.274-.011c-.438-.021-.877-.042-1.315-.057-.412-.016-.825-.024-1.234-.024-.582,0-1.164.013-1.746.031-1.354.034-2.734.113-4.148.2q-1.164.066-2.325.128c-.838.039-1.676.057-2.516.075l-.245.008-.426.011c-.5.01-1,.01-1.5.01s-1,0-1.506.011c-.524.01-1.051.033-1.576.057l-.328.013c-.334.013-.668.029-1,.039-.814.021-1.625.037-2.44.037l-.652,0-.073,0-1.067-.013c-.559-.008-1.117-.015-1.676-.015l-.276,0c-.9,0-1.874.021-3.056.066-.521.018-1.043.046-1.562.075-.486.029-.969.055-1.454.076-.383.013-.769.018-1.156.018-.613,0-1.226-.013-1.834-.034-.955-.034-1.907-.081-2.912-.135-1.135-.058-2.309-.121-3.465-.144-.2,0-.4-.008-.6-.008-1.3,0-2.606.089-3.765.167l-.368.024c-.485.031-.97.062-1.453.088-1.821.094-3.319.139-4.713.139-.381,0-.764-.006-1.148-.011-.3-.008-.605-.008-.908-.008-.522,0-1.041.006-1.565.013l-.392,0c-.394,0-.788.01-1.184.01-.728,0-1.329-.015-1.884-.041l-.984-.055c-.762-.044-1.524-.089-2.286-.112-.141-.006-.281-.008-.422-.008-.736,0-1.485.057-2.145.109l-.478.037c-1.1.076-2.095.141-3.11.159h-.219c-.671,0-1.354-.044-2.069-.086l-.475-.029c-1.855-.112-3.753-.271-5.694-.435l-.235-.019c-.842-.073-1.954-.159-3.076-.193-.4-.015-.8-.021-1.2-.021q-.489,0-.978.008l-.329,0-.624.008h-.216c-.781.008-1.563.016-2.344.016-1.458,0-2.622-.029-3.663-.086l-1.085-.066c-.572-.036-1.143-.07-1.712-.1-.838-.042-1.694-.047-2.534-.052l-.634,0-.43,0h-.431l-.431,0h-.675c-.373,0-.744,0-1.114-.011l-.679-.018c-.678-.018-1.357-.037-2.033-.037l-.287,0c-.367,0-.735,0-1.1,0-.533,0-1.063,0-1.595-.023-.673-.024-1.344-.06-2.014-.1l-.379-.021c-.237-.013-.475-.026-.712-.034-.506-.023-1.012-.031-1.521-.031-.274,0-.551,0-.825,0l-.412,0-.809.01H39.3c-1.1,0-2.2-.07-3.327-.148-.905-.068-1.821-.089-2.75-.11l-.524-.011c-1.018-.026-1.942-.078-2.821-.161-.326-.045-.65-.094-.973-.141l-.068-.011c-.715-.109-1.521-.232-2.32-.289-.762-.06-1.526-.089-2.272-.089-.632,0-1.2.018-1.751.06Z"/>
      <path class="b" d="M211.055,48.9a1.337,1.337,0,0,0-.95.415,1.388,1.388,0,0,0-.368.937c-.008.154-.018.3-.034.459a3.577,3.577,0,0,0,.024.686c.033.4.065.8.109,1.2l.016.006c.013.126.029.253.047.381.055.42.094.773.107,1.138,0,.217,0,.433,0,.647,0,.243,0,.486.007.728s.024.462.037.692l.018.279c.037.566.073,1.151.079,1.727,0,.18,0,.36-.008.54l0,.139c-.005.242-.01.485-.005.727l.008.5,0,.185c.006.193.011.386.011.577l0,.851c.008.694.015,1.411-.01,2.126-.011.261-.008.522-.006.783,0,.18,0,.36,0,.54,0,.472,0,.942.018,1.414.037.911.1,1.822.165,2.73.026.365.049.73.073,1.127.036.535.073,1.072.119,1.607.05.6.063,1.219.079,1.832l.016.611c.023.762.052,1.518.086,2.288l.026.571c.034.841.083,1.746.193,2.667l.06.5c.036.276.07.55.1.827.029.318.037.642.042.963l.01.323c.013.371.013.744.016,1.114l0,.186c0,.36,0,.72.012,1.08.019.856.092,1.686.186,2.682.094,1.023.159,1.85.2,2.6a17.239,17.239,0,0,1-.021,2.515,24.676,24.676,0,0,0-.274,2.719c-.021.718-.005,1.445.011,2.153l0,.112c.008.308.016.618.022.926l.01.77.01.77c.005.5.011,1,.021,1.5.013.817.084,1.668.144,2.351l.054.674.016.206.016.214c.068.887.138,1.8.18,2.7l.063,1.527.062,1.532,0,.143c.016.389.034.788.024,1.18-.008.344-.026.686-.045,1.028l-.013.255c-.007.165-.013.329-.018.493l-.021.462c-.026.749-.055,1.5-.065,2.255-.024,1.938-.042,3.88-.039,5.821l0,1.07a45.339,45.339,0,0,1-.144,4.864c-.094.913-.19,1.993-.2,3.1,0,.274,0,.545.01.827.008.2.014.405.016.606,0,.294,0,.589-.008.887,0,.229,0,.462,0,.691,0,.906-.031,1.811-.058,2.714l-.007.266,0,.11c-.032,1.046-.065,2.129-.061,3.193,0,1.644-.036,3.377-.062,4.768-.026,1.278-.05,2.557-.057,3.835s.065,2.565.143,3.823l.049.806a38.918,38.918,0,0,1-.031,4.812c-.06.428-.127.85-.2,1.338l-.029.165c-.06.383-.123.769-.172,1.156a25.6,25.6,0,0,0-.238,3.235l-.015.984c-.011.7-.021,1.4-.013,2.1.008.59.036,1.179.065,1.769.021.386.039.77.055,1.156a29.762,29.762,0,0,1-.053,3.066l-.041.54c-.021.274-.042.551-.057.825-.032.477-.029.96-.027,1.43l0,.177c.008,1,.112,1.988.216,3,.1.95.2,1.934.212,2.905,0,.454-.016.853-.052,1.255l-.016.122c-.109.916-.224,1.863-.258,2.8-.039,1-.045,2.02-.047,3.061,0,.866-.014,1.873-.076,2.865l-.052.749c-.044.657-.089,1.315-.123,1.972l-.01.2a23.677,23.677,0,0,0-.05,2.5c.029.662.084,1.328.141,1.991l.013.151c.029.323.057.65.084.976.081,1.072.117,2.158.146,3.092a25.348,25.348,0,0,1-.141,2.933l-.118,1.239-.018.2c-.133,1.414-.271,2.875-.342,4.316-.086,1.6-.1,3.324-.036,5.26.013.5.034,1,.054,1.5l.019.389.034.767c.01.331.021.665.028,1,.013.483.027.968.053,1.451a36.039,36.039,0,0,1-.076,5.521l-.037.279c-.078.584-.143,1.112-.164,1.639a19.8,19.8,0,0,0,.037,2.058c.039.7.1,1.394.159,2.088l.031.4c.031.366.063.728.091,1.094.1,1.427.248,2.826.379,4.008a20.769,20.769,0,0,1,.154,3.7c-.06.441-.133.88-.206,1.315l-.019.1c-.1.587-.195,1.192-.256,1.792a17.934,17.934,0,0,0-.054,2.169v.172c0,.342.01.684,0,1.025-.011.389-.028.778-.049,1.224-.035.736-.068,1.5-.035,2.239a14.534,14.534,0,0,0,.656,3.288l.065.229c.041.154.083.308.122.46.016.049.032.1.047.143l.008.037,0,.015a1.336,1.336,0,0,0,2.5-.91c-.246-.922-.522-1.835-.695-2.771a26.382,26.382,0,0,1,.022-3.633c.015-.683,0-1.362-.019-2.043a14.209,14.209,0,0,1,.078-1.69c.079-.564.173-1.125.272-1.689a15.734,15.734,0,0,0,.25-2.525,17.941,17.941,0,0,0-.141-2.1c-.067-.7-.156-1.4-.229-2.1-.164-1.521-.248-3.053-.371-4.577-.052-.665-.109-1.33-.143-2a15.821,15.821,0,0,1,.054-2.325c.118-.947.217-1.892.249-2.847q.054-1.547-.006-3.089c-.068-1.874-.13-3.75-.211-5.623s-.06-3.771.037-5.65c.054-1.072.148-2.147.239-3.217.087-1,.212-1.991.285-2.987.062-.908.1-1.809.076-2.717-.029-.952-.076-1.9-.149-2.849-.073-.932-.175-1.863-.217-2.8-.039-.835,0-1.665.034-2.5.079-1.733.261-3.457.266-5.192.006-1.827-.008-3.656.173-5.475.065-.49.13-.978.174-1.471a11.96,11.96,0,0,0,.021-1.417c-.021-.955-.148-1.905-.247-2.855s-.165-1.9-.173-2.854.058-1.863.123-2.8c.07-1,.075-2,.055-3-.018-.91-.089-1.821-.118-2.732-.031-.983,0-1.97.021-2.953.018-.942.055-1.876.144-2.813.133-.953.31-1.9.43-2.85a25.906,25.906,0,0,0,.159-3.308c0-2.119-.24-4.227-.253-6.343,0-.945,0-1.889.021-2.834.024-.973.044-1.947.065-2.92.042-2.019.021-4.039.089-6.059.068-2.043.136-4.091.073-6.134a22.688,22.688,0,0,1,.156-3.082c.108-1.009.165-2.019.178-3.037.026-2.009,0-4.018.013-6.025.016-1.826.018-3.653.1-5.477.037-.853.094-1.706.092-2.559,0-.765-.071-1.53-.095-2.291-.057-1.746-.146-3.494-.312-5.235-.16-1.638-.17-3.277-.191-4.921a48.493,48.493,0,0,1,.029-5.044,23.151,23.151,0,0,0,.261-2.583,28.459,28.459,0,0,0-.162-3c-.039-.452-.065-.906-.107-1.36-.047-.5-.109-1-.131-1.508-.036-.848-.026-1.693-.039-2.539a21.433,21.433,0,0,0-.143-2.6q-.2-1.472-.261-2.959c-.039-1.012-.107-2.025-.128-3.037-.016-.9-.021-1.806-.1-2.7s-.131-1.822-.193-2.732-.131-1.822-.165-2.732-.023-1.824-.015-2.737c0-.493.021-.987.021-1.482s-.013-1-.016-1.493c0-.4-.013-.793-.021-1.19-.01-.5.021-.989.016-1.482-.008-.9-.089-1.8-.134-2.7-.018-.422-.013-.848-.01-1.271a9.4,9.4,0,0,0-.107-1.242c-.065-.493-.107-.983-.148-1.479-.014-.185-.035-.37-.04-.556-.08-.154-.164-.3-.237-.462-.141-.313-.266-.626-.389-.944-.086-.18-.175-.358-.258-.538a1.31,1.31,0,0,0-.41-.068Z"/>
      <path class="b" d="M155.923,1.784a1.442,1.442,0,0,0-.345,1.232l.013,0a.755.755,0,0,0,.021.088,1.439,1.439,0,0,0,.467.7,9.786,9.786,0,0,1,.939.95l.081.092c.266.3.525.607.783.915l.089.105.263.313a12.132,12.132,0,0,0,1.14,1.172c.131.119.264.234.4.352l.088.073.053.047c.25.216.5.433.743.668l.373.365.079.078c.558.546,1.135,1.107,1.666,1.7l-.014-.019a.339.339,0,0,0,.028.034l.167.19q.274.353.54.713l.12.159.105.138c.341.467.728.921,1.067,1.323l.154.183a7.67,7.67,0,0,1,.548.809c.12.2.23.412.339.623.07.136.143.274.217.41l.156.276c.313.562.639,1.141.916,1.733a11.6,11.6,0,0,1,.472,1.488c.125.469.282.936.454,1.44l.128.375a12,12,0,0,1,.332,1.219c.059.258.122.519.193.778.06.211.13.417.2.626l.033.107a9.382,9.382,0,0,1,.329,1.109l.018.151a12.214,12.214,0,0,0,.248,1.438c.045.159.092.315.139.472l.049.154c.086.279.17.556.235.843.013.172.018.344.024.516l.005.17a6.722,6.722,0,0,0,.177,1.24c.063.289.138.571.214.853.081.3.162.613.23.926.109.9.193,1.853.245,2.842.013.274.018.547.021.824l0,.172q0,.262.015.525c.005.133.013.269.021.441a7.746,7.746,0,0,1,.016,1.046,5.522,5.522,0,0,0-.071,1.07,7.529,7.529,0,0,0,.126.973,2.442,2.442,0,0,1,0,.436,5.126,5.126,0,0,1-.141.548l-.031.11c-.029.1-.058.2-.084.3a6.09,6.09,0,0,0-.115.9l-.01.086a4.244,4.244,0,0,0-.167.43,2.237,2.237,0,0,0-.063.46l0,.075a1.494,1.494,0,0,0,.193.746l.047.105a1.719,1.719,0,0,0,.605.571,1.89,1.89,0,0,0,.872.235,5.56,5.56,0,0,0,.577.029h.193c1.056.026,2,.073,2.875.146l.853.1c.645.078,1.292.156,1.939.224l.258.031.11.013c.4.05.8.1,1.192.167l.666.128c.36.071.722.141,1.085.2.872.149,1.795.222,2.536.28l.209.018c.381.031.762.06,1.138.1.613.092,1.218.222,1.889.368l.321.068c.506.112,1.018.193,1.534.276l.1.016.389.06.18.029c.637.1,1.357.216,2.062.282.253.028.5.044.756.062l.154.011c.355.023.715.047,1.07.083a9.658,9.658,0,0,0,1.18.092c.065,0,.133,0,.2-.006.172-.005.347-.01.522-.01.274,0,.548.01.819.031a6.439,6.439,0,0,0,.8.084l.307.01c.181,0,.361.008.541.019.114.007.227.02.339.033l.11.011c.148.015.3.031.449.042.208.013.417.028.623.046.571.092,1.138.2,1.706.308l.183.034.58.113a12.491,12.491,0,0,1,2.141.649c.162.06.324.126.494.193a6.81,6.81,0,0,1,1.244.634l.115.081.269.2.49.347a8.593,8.593,0,0,1,1.11,1.151,3.59,3.59,0,0,1,.279.454c.026.062.049.125.073.188a1.906,1.906,0,0,0,.819,1.059,1.621,1.621,0,0,0,.284.133V52.6a1.379,1.379,0,0,0,1.524-.657,1.281,1.281,0,0,0,.126-.934,1.354,1.354,0,0,0,.66-.191c.041-.026.078-.052.117-.081-.052-.1-.1-.193-.148-.292-.141-.313-.267-.626-.389-.945-.227-.464-.455-.923-.642-1.409-.159-.336-.337-.662-.486-1-.122-.279-.2-.574-.307-.856-.168-.337-.319-.679-.465-1.023-.156-.313-.323-.616-.485-.926-.183-.352-.434-.663-.616-1.015-.125-.245-.25-.485-.379-.723-.32-.3-.639-.6-.973-.895-.483-.423-.949-.864-1.422-1.3-.446-.412-.921-.8-1.37-1.206-.5-.454-.941-.965-1.432-1.429-.958-.906-1.975-1.754-2.873-2.722a16.092,16.092,0,0,0-1.328-1.3c-.491-.415-.989-.822-1.487-1.229q-1.488-1.221-2.868-2.565c-.48-.469-.96-.929-1.464-1.372s-1.025-.851-1.534-1.281c-.441-.374-.858-.767-1.286-1.156-.522-.478-1.06-.932-1.61-1.375q-1.551-1.238-3.072-2.516c-.469-.391-.915-.814-1.377-1.213-.491-.42-1-.817-1.516-1.206-1.109-.837-2.187-1.7-3.309-2.52l.076.055c-.3-.217-.593-.434-.89-.647-.652-.5-1.292-1.013-1.921-1.542-.678-.574-1.341-1.159-2.05-1.7-.66-.5-1.31-1.017-1.973-1.516-.4-.3-.8-.6-1.206-.882-.326-.219-.654-.433-.976-.657a25.147,25.147,0,0,1-1.962-1.633c-.621-.575-1.255-1.12-1.925-1.639s-1.31-1.127-2-1.654c-.715-.548-1.451-1.062-2.184-1.584a5.535,5.535,0,0,0-.741-.5,5.927,5.927,0,0,0-.728-.295c-.733-.334-1.427-.744-2.171-1.054l.071.028c-.47-.193-.893-.459-1.381-.615a1.736,1.736,0,0,0-.516-.079,1.319,1.319,0,0,0-1.041.433ZM192.9,43.966c-.314-.023-.624-.046-.935-.073-.294-.039-.587-.088-.879-.138-.271-.047-.543-.091-.814-.128-.616-.086-1.263-.206-2.041-.381a23.838,23.838,0,0,0-2.593-.443c-.392-.047-.783-.076-1.172-.1l-.138-.008c-.342-.023-.684-.049-1.026-.08-.7-.094-1.4-.225-2.1-.355l-.535-.1c-.762-.139-1.545-.217-2.3-.293l-.589-.06-.5-.062c-.887-.115-1.686-.212-2.5-.248-.211-.011-.422-.024-.631-.037-.245-.015-.491-.031-.736-.039l-.086,0-.1-.019c0-.023,0-.046,0-.073.045-.222.107-.438.175-.686.045-.159.086-.318.123-.485a3.983,3.983,0,0,0,.094-1.1,4.432,4.432,0,0,0-.094-.676l-.018-.091a4.438,4.438,0,0,1-.019-.833,6.35,6.35,0,0,0,.076-1.145c0-.2-.018-.4-.031-.6-.011-.157-.021-.313-.029-.47-.011-.255-.013-.511-.016-.775,0-.417-.01-.85-.052-1.273l-.06-.663c-.047-.535-.1-1.069-.167-1.607a12.662,12.662,0,0,0-.329-1.542l-.023-.092c-.081-.307-.159-.615-.225-.931-.023-.24-.031-.478-.033-.72a5.4,5.4,0,0,0-.157-1.122c-.06-.285-.146-.561-.232-.838l-.026-.086a9.531,9.531,0,0,1-.251-.937l-.021-.167a7.649,7.649,0,0,0-.3-1.544l-.036-.105a17.626,17.626,0,0,1-.517-1.724,15.834,15.834,0,0,0-.527-1.822c-.19-.55-.352-1.088-.5-1.646a15.745,15.745,0,0,0-1.6-3.572c-.1-.175-.193-.355-.308-.58-.167-.315-.342-.644-.535-.952a12.9,12.9,0,0,0-1.036-1.323l-.253-.3c-.245-.311-.48-.629-.712-.947l-.181-.243c-.1-.141-.211-.277-.318-.433l.008-.005.01.005c.28.224.559.451.833.686s.553.493.845.767c.386.355.783.72,1.2,1.052.493.4,1.033.767,1.542,1.114l.13.089c.214.143.428.289.639.44q.564.42,1.114.849l.572.438.564.428c.433.329.882.668,1.307,1.025l.55.473c.4.347.807.694,1.224,1.03.585.472,1.206.945,2.009,1.534l.068.053.043.046.024.017-.017-.024.435.31c.512.381,1.016.778,1.564,1.211.276.222.563.438.853.655.253.19.506.381.756.577.551.433,1.088.9,1.61,1.354l.071.06.115.1c.36.313.722.628,1.1.931q1.577,1.3,3.167,2.583c.433.35.851.733,1.271,1.122l.24.222c.42.389.856.767,1.331,1.159l.2.164c.438.36.934.767,1.388,1.187.256.24.506.486.754.731.2.2.407.4.613.592.838.8,1.764,1.6,2.912,2.537l.058.047c.464.38.947.772,1.4,1.187.264.242.512.508.785.8.194.211.387.423.593.621.446.438.908.858,1.4,1.307s1.007.911,1.487,1.388c.071.073.141.146.209.219l.1.11c.136.146.272.292.418.431.24.221.485.44.733.652.358.3.7.618,1.036.937l.323.3c.246.224.494.443.744.662l.144.128c.227.2.456.405.681.611l.3.279c.3.279.647.595.955.926a9.857,9.857,0,0,1,.58.9c.138.24.292.473.459.723a3.805,3.805,0,0,1,.2.335l.042.064-.015-.01.009.021-.148-.1-.149-.1-.271-.185L208.14,47l-.17-.12-.065-.044-.068-.053a6.863,6.863,0,0,0-.822-.5c-.276-.133-.566-.245-.892-.368l-.071-.028a18.456,18.456,0,0,0-1.858-.676,19.333,19.333,0,0,0-2.087-.454c-.133-.024-.263-.05-.394-.073l-.193-.037-.384-.073c-.451-.086-.908-.133-1.372-.175l-.5-.044-.323-.029-.347-.031c-.2-.021-.407-.024-.608-.026-.167,0-.334-.005-.5-.016A10.819,10.819,0,0,0,196,44.141c-.11,0-.219,0-.329.006s-.217.005-.326.005H195.2c-.24-.008-.483-.029-.725-.052l-.136-.024-.015,0,.114.028c-.514-.057-1.025-.1-1.539-.136Z"/>
      <path class="b" d="M179.635,17.4c-.039-.029-.078-.057-.118-.084.04.027.079.055.118.084Z"/>
      <path class="b" d="M151.6.018c-.78.026-1.555.087-2.335.1-.762.016-1.524.023-2.286,0a44.656,44.656,0,0,0-4.465.154c-.7.044-1.4.055-2.1.049-.794-.007-1.582.032-2.375.063-.749.031-1.5.063-2.249.086-.728.024-1.456-.015-2.184-.05C132.069.342,130.532.292,129,.311c-1.477.018-2.954.036-4.428-.019-1.529-.057-3.053.079-4.582.128-.736.024-1.466.037-2.2,0S116.327.337,115.6.326c-1.545-.021-3.082.152-4.624.185-1.482.032-2.948.173-4.423.329a43.671,43.671,0,0,1-4.574.321c-.318,0-.634,0-.952-.008-.431-.008-.861-.015-1.292-.008L97.6,1.187c-1.534.029-3.068.094-4.6.146-3.013.1-6.027.147-9.043.16-.71,0-1.42.026-2.13.047-.8.023-1.591.023-2.39.023-1.477,0-2.946.1-4.422.136-1.553.042-3.105.055-4.658.1-1.378.039-2.766.13-4.141.065l-.248-.016c.041,0,.082.008.121.01l-.076,0c-.019,0-.037,0-.053-.006h0l-.391-.023-.041,0h0c-2.019-.143-4.033-.174-6.057-.141-1.907.032-3.81-.012-5.714-.114-.937-.061-1.874-.123-2.813-.16-.968-.039-1.936-.039-2.907-.057-1.9-.036-3.8-.118-5.707-.219l-.036,0,.036,0-.057,0C41.39,1.07,40.516,1,39.639.953c-.952-.053-1.912.054-2.862.1-1.813.078-3.627.172-5.44.083-.937-.067-1.866-.174-2.8-.245C27.514.809,26.484.8,25.458.739c.024,0,.047,0,.07.005C25.385.736,25.241.728,25.1.718c-.619-.04-1.238-.1-1.857-.142l.078,0L23.2.573l-.051,0,.033,0-.09-.006.057,0-.082,0L22.971.558l.093.007C21.745.5,20.421.509,19.1.527c-1.291.018-2.586.042-3.875.086-.511.016-1.015.1-1.524.139-.621.049-1.244.073-1.868.086-.284.005-.569,0-.853.018-.3.018-.595.06-.895.078A17.659,17.659,0,0,1,8.258.953C7.9.918,7.548.866,7.188.864c-.11,0-.219,0-.329.005L6.6.877A2.6,2.6,0,0,0,5.528.885,1.343,1.343,0,0,0,4.69,2.578a1.327,1.327,0,0,0,1.271.9c.234.023.468.054.7.063l0-.014h.1l.11,0,.287,0c.073,0,.143-.006.216-.006l.173.021.075.011c.115.013.23.026.345.029.4.026.791.041,1.187.041.478,0,.958-.036,1.467-.076l.542-.039c.326-.018.652-.02.981-.023.3,0,.6,0,.906-.024.548-.026,1.09-.081,1.651-.138l.149-.016c.577-.052,1.174-.062,1.761-.07l.087,0c.665-.01,1.328-.023,1.993-.041.746-.019,1.5-.032,2.244-.032.8,0,1.466.016,2.088.045.352.023.7.052,1.08.083.347.029.691.058,1.064.076l.154.01c.569.032,1.138.058,1.707.081l.984.042c.357.031.709.065,1.075.1.532.052,1.061.1,1.594.136.744.049,1.62.1,2.494.1.248,0,.5,0,.749-.013l.778-.029c.79-.029,1.578-.057,2.369-.091l.673-.032.144,0c.516-.023,1.035-.049,1.555-.049.2,0,.407,0,.61.01,1.835.141,3.763.246,5.892.321.778.031,1.558.045,2.336.057l.3.006c1.2.018,2.283.036,3.376.091,2.028.128,4.186.253,6.341.258.5,0,1-.01,1.5-.021s1-.02,1.5-.02h.167c1.185.007,2.088.028,2.925.073l.144.01.617.058.328.022h0l-.049,0,.048,0-.048-.019c.806.055,1.448.078,2.022.078l.344,0c.337,0,.676-.013,1.015-.023l.259-.011.307-.01c.214-.008.428-.016.645-.021.441-.008.882-.021,1.365-.037l1.033-.031c.386-.01.772-.013,1.161-.016.355,0,.71,0,1.065-.012.589-.016,1.182-.04,1.774-.063l.258-.008c.8-.031,1.605-.063,2.409-.076H80.41c.347,0,.694,0,1.043-.013l.687-.021c.506-.018,1.009-.033,1.513-.039l.968-.008C87.09,4.12,89.889,4.1,92.632,4q2.262-.078,4.527-.149c1.145-.036,2.192-.055,3.2-.055.413,0,.822,0,1.234.008l.387,0a46.234,46.234,0,0,0,4.688-.318l.092-.01c1.289-.131,2.625-.269,3.943-.311.555-.016,1.111-.044,1.667-.07l.316-.016c.871-.044,1.743-.089,2.617-.107h.263c.567,0,1.135.023,1.7.05l.122.005.1,0c.559.026,1.117.052,1.678.052.151,0,.3,0,.454-.008.76-.018,1.519-.041,2.275-.083l.434-.024c.493-.028.986-.057,1.482-.057.135,0,.274,0,.409,0,.885.034,1.811.047,2.915.047q.727,0,1.456-.008c.4,0,.793,0,1.192,0,1.415,0,2.5.026,3.52.083q1.092.063,2.184.081l.238,0c.48,0,.96-.024,1.44-.048l.53-.026.266-.01c.616-.029,1.231-.055,1.85-.07.206,0,.415-.006.621-.006h.417l.2,0h.2c.13,0,.261,0,.391,0,.793-.011,1.6-.063,2.422-.118l.256-.015c.427-.029.858-.058,1.286-.079.182-.007.368-.01.55-.01.347,0,.694.01,1.041.023l.4.011c.217.008.433.008.65.008.409,0,.822-.008,1.237-.016l.263,0c.337,0,.676-.021,1.013-.042l.148-.008c.3-.018.593-.036.893-.047s.628-.013.941-.013c.272,0,.543,0,.815.011.543.057,1.083.154,1.6.248l.144.023.189.051.359.064A1.35,1.35,0,0,0,157.4,1.994,1.345,1.345,0,0,0,156.346.428c-.786-.136-1.571-.311-2.362-.376C153.53.013,153.074,0,152.62,0c-.34,0-.679.008-1.018.018ZM6.032,3.473c.031,0,.06,0,.089,0l-.045.008a.212.212,0,0,1-.044,0Z"/>
      <path class="c" d="M165.115,9.293l-.007,0c.106.156.213.292.317.433l.18.242c.233.319.468.637.713.948l.253.3a12.934,12.934,0,0,1,1.036,1.325c.194.307.367.635.534.952.115.224.209.4.308.579a15.65,15.65,0,0,1,1.6,3.571c.144.558.306,1.1.5,1.647a16.014,16.014,0,0,1,.53,1.82,17.151,17.151,0,0,0,.514,1.726l.036.1a7.66,7.66,0,0,1,.3,1.546l.021.167a9.6,9.6,0,0,0,.249.937l.026.085c.086.276.172.552.234.837a5.351,5.351,0,0,1,.157,1.123c0,.243.01.48.034.721.064.314.143.623.222.93l.023.091a12.463,12.463,0,0,1,.331,1.544c.071.537.12,1.072.167,1.607l.06.663c.042.422.047.855.052,1.274,0,.263.006.518.016.774.008.156.019.312.029.468.013.2.026.4.031.6a6.526,6.526,0,0,1-.076,1.144,4.283,4.283,0,0,0,.019.834l.018.092a4.939,4.939,0,0,1,.094.675,4.073,4.073,0,0,1-.094,1.1c-.036.165-.08.324-.123.484-.07.249-.13.465-.174.688a.562.562,0,0,1,0,.071l.1.017.087,0c.245.008.49.023.735.039.209.013.421.026.632.037.81.038,1.609.134,2.494.247l.5.063.59.06c.756.076,1.539.154,2.3.292l.535.1c.7.13,1.4.261,2.1.354.343.032.685.058,1.026.081l.139.01c.39.028.781.056,1.171.1a23.924,23.924,0,0,1,2.6.446c.776.174,1.423.294,2.038.378.271.037.543.081.814.128.292.049.584.1.88.138s.621.05.934.073c.514.039,1.025.079,1.539.136l-.126-.029.163.026c.243.024.485.045.726.052h.141c.11,0,.219,0,.326,0s.22-.005.329-.005a10.954,10.954,0,0,1,1.483.107c.166.011.332.013.5.016.2,0,.4.005.607.026l.349.031.322.029.5.044c.465.044.921.091,1.371.175l.384.073.195.037c.13.025.26.05.392.073a19.163,19.163,0,0,1,2.089.456,18.389,18.389,0,0,1,1.858.676l.069.026c.326.125.617.236.893.37a6.259,6.259,0,0,1,.821.5l.07.052.063.044.17.12.091.065.269.186.148.1.149.1a2.84,2.84,0,0,0-.236-.41c-.167-.251-.321-.483-.459-.723a9.91,9.91,0,0,0-.58-.9c-.307-.332-.651-.648-.955-.928l-.3-.279c-.224-.207-.452-.409-.68-.611l-.145-.127c-.25-.22-.5-.439-.743-.663l-.324-.3c-.339-.319-.678-.634-1.036-.937q-.372-.318-.733-.652c-.146-.138-.282-.285-.417-.43l-.1-.11c-.069-.074-.138-.148-.209-.22-.481-.478-.992-.941-1.486-1.389s-.957-.867-1.4-1.306c-.206-.2-.4-.409-.592-.621-.272-.292-.521-.559-.786-.8-.451-.415-.933-.808-1.4-1.187l-.057-.047c-1.147-.936-2.072-1.741-2.912-2.536-.206-.2-.409-.394-.613-.593-.248-.245-.5-.49-.754-.73-.453-.421-.95-.829-1.388-1.188l-.2-.164c-.474-.391-.91-.77-1.331-1.159l-.24-.221c-.42-.389-.836-.773-1.271-1.123q-1.588-1.282-3.167-2.583c-.373-.3-.734-.618-1.095-.932l-.116-.1-.07-.061c-.52-.453-1.059-.921-1.611-1.353-.25-.2-.5-.387-.756-.577-.288-.217-.575-.433-.854-.655-.547-.432-1.051-.829-1.563-1.211l-.433-.31.041.059-.093-.1-.068-.053c-.8-.589-1.423-1.062-2.009-1.534-.417-.336-.822-.683-1.223-1.03l-.551-.473c-.424-.358-.873-.7-1.308-1.026L172,14.732l-.572-.438c-.368-.285-.738-.569-1.114-.849-.211-.15-.425-.3-.639-.442l-.128-.087C169.036,12.57,168.5,12.2,168,11.8c-.416-.333-.814-.7-1.2-1.052-.294-.274-.568-.524-.847-.767s-.553-.462-.833-.686l-.009,0Z"/>
    </g>
    <g>
      <path class="d" d="M8.525,286.664a4.586,4.586,0,0,1,1.705,2.353v-3.08h2v12.078h-2v-3.08a4.591,4.591,0,0,1-1.7,2.355,4.968,4.968,0,0,1-2.981.88,5.48,5.48,0,0,1-2.86-.748,5.17,5.17,0,0,1-1.969-2.146A7.123,7.123,0,0,1,0,291.987a7.2,7.2,0,0,1,.715-3.3,5.161,5.161,0,0,1,1.969-2.156,5.48,5.48,0,0,1,2.86-.748A4.962,4.962,0,0,1,8.525,286.664Zm-5.368,2.078a5.294,5.294,0,0,0,0,6.49,3.875,3.875,0,0,0,2.959,1.177,4.106,4.106,0,0,0,2.123-.55A3.823,3.823,0,0,0,9.7,294.308a4.9,4.9,0,0,0,.528-2.321,4.97,4.97,0,0,0-.528-2.332A3.749,3.749,0,0,0,8.239,288.1a4.178,4.178,0,0,0-2.123-.539A3.879,3.879,0,0,0,3.157,288.742Z"/>
      <path class="d" d="M25.19,287.093a5.423,5.423,0,0,1,1.3,3.9v7.017h-2v-6.841a3.86,3.86,0,0,0-.924-2.773,3.308,3.308,0,0,0-2.508-.968,3.427,3.427,0,0,0-2.64,1.068,4.418,4.418,0,0,0-.99,3.112v6.4h-2V285.937h2V288.8a4.114,4.114,0,0,1,1.639-2.267,4.757,4.757,0,0,1,2.717-.792A4.508,4.508,0,0,1,25.19,287.093Z"/>
      <path class="d" d="M40.557,283.319a7.207,7.207,0,0,1,2.717,2.827,9,9,0,0,1,0,8.206,7.2,7.2,0,0,1-2.717,2.827,7.536,7.536,0,0,1-3.883,1.012,7.65,7.65,0,0,1-3.905-1.012,7.151,7.151,0,0,1-2.739-2.827,9,9,0,0,1,0-8.206,7.158,7.158,0,0,1,2.739-2.827,7.66,7.66,0,0,1,3.905-1.012A7.545,7.545,0,0,1,40.557,283.319Zm-6.754,1.6a5.1,5.1,0,0,0-1.98,2.111,7.6,7.6,0,0,0,0,6.436,5.081,5.081,0,0,0,1.98,2.123,5.6,5.6,0,0,0,2.871.736,5.489,5.489,0,0,0,2.849-.748,5.179,5.179,0,0,0,1.98-2.123,7.572,7.572,0,0,0,0-6.424,5.11,5.11,0,0,0-1.98-2.111,5.918,5.918,0,0,0-5.72,0Z"/>
      <path class="d" d="M54.9,286.664a4.586,4.586,0,0,1,1.7,2.353v-7.282h2v16.28h-2v-3.08a4.591,4.591,0,0,1-1.7,2.355,4.968,4.968,0,0,1-2.981.88,5.48,5.48,0,0,1-2.86-.748,5.17,5.17,0,0,1-1.969-2.146,7.123,7.123,0,0,1-.715-3.289,7.2,7.2,0,0,1,.715-3.3,5.161,5.161,0,0,1,1.969-2.156,5.48,5.48,0,0,1,2.86-.748A4.962,4.962,0,0,1,54.9,286.664Zm-5.368,2.078a5.294,5.294,0,0,0,0,6.49,3.875,3.875,0,0,0,2.959,1.177,4.106,4.106,0,0,0,2.123-.55,3.823,3.823,0,0,0,1.463-1.551,4.9,4.9,0,0,0,.528-2.321,4.97,4.97,0,0,0-.528-2.332,3.749,3.749,0,0,0-1.463-1.551,4.178,4.178,0,0,0-2.123-.539A3.879,3.879,0,0,0,49.533,288.742Z"/>
      <path class="d" d="M72.82,292.4H63.162a4.235,4.235,0,0,0,1.177,3.1,3.84,3.84,0,0,0,2.717,1.034,3.924,3.924,0,0,0,2.431-.738,3.049,3.049,0,0,0,1.2-1.968H72.82a5.039,5.039,0,0,1-2.948,3.783,6.517,6.517,0,0,1-2.728.551,6.224,6.224,0,0,1-3.08-.748,5.284,5.284,0,0,1-2.1-2.146,6.785,6.785,0,0,1-.759-3.289,6.854,6.854,0,0,1,.759-3.3,5.273,5.273,0,0,1,2.1-2.156,6.224,6.224,0,0,1,3.08-.748,6.089,6.089,0,0,1,3.069.748,5.157,5.157,0,0,1,2,2,5.637,5.637,0,0,1,.693,2.772A6.015,6.015,0,0,1,72.82,292.4Zm-2.376-3.212a3.23,3.23,0,0,0-1.386-1.342,4.225,4.225,0,0,0-1.914-.439,3.965,3.965,0,0,0-2.772,1.022,4.12,4.12,0,0,0-1.21,3h7.722A4.115,4.115,0,0,0,70.444,289.193Z"/>
      <path class="d" d="M85.03,282.506v1.628H80.652v13.881h-2V284.134H74.272v-1.628Z"/>
      <path class="d" d="M95.6,286.531a5.365,5.365,0,0,1,2.156,2.156,6.7,6.7,0,0,1,.781,3.3,6.637,6.637,0,0,1-.781,3.289,5.377,5.377,0,0,1-2.156,2.146,6.852,6.852,0,0,1-6.226,0,5.442,5.442,0,0,1-2.167-2.146,6.556,6.556,0,0,1-.792-3.289,6.622,6.622,0,0,1,.792-3.3,5.429,5.429,0,0,1,2.167-2.156,6.852,6.852,0,0,1,6.226,0Zm-5.1,1.5a3.641,3.641,0,0,0-1.474,1.485,5.005,5.005,0,0,0-.561,2.475,4.949,4.949,0,0,0,.561,2.453,3.637,3.637,0,0,0,1.474,1.486,4.345,4.345,0,0,0,3.982,0,3.643,3.643,0,0,0,1.474-1.486,4.949,4.949,0,0,0,.561-2.453,5.005,5.005,0,0,0-.561-2.475,3.647,3.647,0,0,0-1.474-1.485,4.345,4.345,0,0,0-3.982,0Z"/>
      <path class="d" d="M110.66,282.506v1.628h-4.378v13.881h-2V284.134H99.9v-1.628Z"/>
      <path class="d" d="M122.408,287.093a5.423,5.423,0,0,1,1.3,3.9v7.017h-2v-6.841a3.86,3.86,0,0,0-.924-2.773,3.309,3.309,0,0,0-2.509-.968,3.427,3.427,0,0,0-2.639,1.068,4.418,4.418,0,0,0-.99,3.112v6.4h-2v-16.28h2V288.8a4.114,4.114,0,0,1,1.639-2.267,4.757,4.757,0,0,1,2.717-.792A4.508,4.508,0,0,1,122.408,287.093Z"/>
      <path class="d" d="M126.808,281.505a1.608,1.608,0,0,1,1.98,0,1.248,1.248,0,0,1,0,1.782,1.608,1.608,0,0,1-1.98,0,1.248,1.248,0,0,1,0-1.782Zm1.98,4.432v12.078h-2V285.937Z"/>
      <path class="d" d="M139.073,286.85a4.505,4.505,0,0,1,1.507,2.871h-1.914a2.772,2.772,0,0,0-.892-1.771,2.9,2.9,0,0,0-2.034-.692,2.513,2.513,0,0,0-1.683.516,1.743,1.743,0,0,0-.6,1.4,1.441,1.441,0,0,0,.406,1.066,2.592,2.592,0,0,0,1.013.616,16.58,16.58,0,0,0,1.661.451,16.6,16.6,0,0,1,2.167.627,3.387,3.387,0,0,1,1.407,1.024,2.869,2.869,0,0,1,.583,1.891,2.975,2.975,0,0,1-1.11,2.4,4.486,4.486,0,0,1-2.959.924,5.668,5.668,0,0,1-3.52-1.034,4.124,4.124,0,0,1-1.606-2.882h1.936a2.516,2.516,0,0,0,.957,1.781,3.448,3.448,0,0,0,2.233.683,2.314,2.314,0,0,0,1.616-.529,1.777,1.777,0,0,0,.583-1.386,1.516,1.516,0,0,0-.418-1.122,2.735,2.735,0,0,0-1.033-.637,15.006,15.006,0,0,0-1.695-.462,16.757,16.757,0,0,1-2.145-.616,3.28,3.28,0,0,1-1.363-.98,2.739,2.739,0,0,1-.561-1.814,3.037,3.037,0,0,1,1.122-2.453,4.627,4.627,0,0,1,3.058-.936A4.879,4.879,0,0,1,139.073,286.85Z"/>
      <path class="d" d="M152.658,296.035a3.977,3.977,0,0,1-1.606,1.54,5.455,5.455,0,0,1-2.662.6,6.4,6.4,0,0,1-2.74-.562,4.864,4.864,0,0,1-1.913-1.54,4.346,4.346,0,0,1-.825-2.232h2.133a3.02,3.02,0,0,0,.452,1.287,2.975,2.975,0,0,0,1.1,1.033,3.429,3.429,0,0,0,1.727.407,2.738,2.738,0,0,0,2.024-.7,2.442,2.442,0,0,0,.7-1.8,2.328,2.328,0,0,0-.5-1.54,3.5,3.5,0,0,0-1.222-.934,16.243,16.243,0,0,0-1.98-.737,19.84,19.84,0,0,1-2.364-.914,4.021,4.021,0,0,1-1.518-1.287,3.752,3.752,0,0,1-.627-2.265,3.913,3.913,0,0,1,.583-2.135,3.829,3.829,0,0,1,1.672-1.43,6.035,6.035,0,0,1,2.563-.506,5.513,5.513,0,0,1,3.629,1.112,4.244,4.244,0,0,1,1.562,2.827H150.7a2.922,2.922,0,0,0-.947-1.629,2.979,2.979,0,0,0-2.089-.7,2.857,2.857,0,0,0-1.936.627,2.213,2.213,0,0,0-.727,1.77,2.188,2.188,0,0,0,.474,1.463,3.281,3.281,0,0,0,1.176.88,18.957,18.957,0,0,0,1.936.715,19.565,19.565,0,0,1,2.41.925,4.058,4.058,0,0,1,1.55,1.331,3.972,3.972,0,0,1,.639,2.364A4.126,4.126,0,0,1,152.658,296.035Z"/>
      <path class="d" d="M155.891,281.505a1.608,1.608,0,0,1,1.98,0,1.248,1.248,0,0,1,0,1.782,1.608,1.608,0,0,1-1.98,0,1.248,1.248,0,0,1,0-1.782Zm1.98,4.432v12.078h-2V285.937Z"/>
      <path class="d" d="M166.847,296.256v1.759h-1.5a3.844,3.844,0,0,1-2.761-.879,3.976,3.976,0,0,1-.913-2.949v-6.511h-1.8v-1.739h1.8v-3.013H163.7v3.013h3.124v1.739H163.7v6.555a2.256,2.256,0,0,0,.429,1.6,2.065,2.065,0,0,0,1.485.43Z"/>
      <path class="d" d="M180.311,292.4h-9.658a4.235,4.235,0,0,0,1.177,3.1,3.84,3.84,0,0,0,2.716,1.034,3.925,3.925,0,0,0,2.432-.738,3.049,3.049,0,0,0,1.2-1.968h2.134a5.039,5.039,0,0,1-2.948,3.783,6.52,6.52,0,0,1-2.728.551,6.224,6.224,0,0,1-3.08-.748,5.278,5.278,0,0,1-2.1-2.146,6.785,6.785,0,0,1-.759-3.289,6.854,6.854,0,0,1,.759-3.3,5.267,5.267,0,0,1,2.1-2.156,6.224,6.224,0,0,1,3.08-.748,6.089,6.089,0,0,1,3.069.748,5.157,5.157,0,0,1,2,2,5.647,5.647,0,0,1,.692,2.772A6.023,6.023,0,0,1,180.311,292.4Zm-2.376-3.212a3.235,3.235,0,0,0-1.386-1.342,4.225,4.225,0,0,0-1.914-.439,3.965,3.965,0,0,0-2.772,1.022,4.12,4.12,0,0,0-1.21,3h7.722A4.124,4.124,0,0,0,177.935,289.193Z"/>
      <path class="d" d="M184.491,295.662v2.353h-2.42v-2.353Z"/>
      <path class="d" d="M192.542,296.256v1.759h-1.5a3.844,3.844,0,0,1-2.761-.879,3.98,3.98,0,0,1-.912-2.949v-6.511h-1.8v-1.739h1.8v-3.013H189.4v3.013h3.125v1.739H189.4v6.555a2.26,2.26,0,0,0,.429,1.6,2.066,2.066,0,0,0,1.486.43Z"/>
      <path class="d" d="M201.936,298.015l-3.146-4.62-2.838,4.62H193.73l3.96-6.225-3.982-5.853H196l3.058,4.489,2.794-4.489h2.222l-3.938,6.073,4.092,6Z"/>
      <path class="d" d="M211.858,296.256v1.759h-1.5a3.843,3.843,0,0,1-2.761-.879,3.976,3.976,0,0,1-.913-2.949v-6.511h-1.8v-1.739h1.8v-3.013h2.024v3.013h3.124v1.739h-3.124v6.555a2.256,2.256,0,0,0,.429,1.6,2.065,2.065,0,0,0,1.485.43Z"/>
    </g>
    <g>
      <path class="e" d="M51.85,154.274a6.369,6.369,0,1,1,12.736,0,6.368,6.368,0,0,1-12.736,0Z"/>
      <path class="e" d="M73.5,150.051V135.928H69.472a.989.989,0,0,1-.991-1.056v-6.4a.989.989,0,0,1,.991-1.055H73.5v-7.524a1.042,1.042,0,0,1,1.056-1.055H83.66a1.042,1.042,0,0,1,1.056,1.055v7.524h4.818a1.042,1.042,0,0,1,1.056,1.055v6.4a1.042,1.042,0,0,1-1.056,1.056H84.716v12.935a2.5,2.5,0,0,0,2.772,2.508c.594,0,1.122,0,2.046-.067a1.043,1.043,0,0,1,1.122.991v6.071c0,1.716-3.7,2.178-6.072,2.178C79.107,160.544,73.5,158.1,73.5,150.051Z"/>
      <path class="e" d="M93.693,158.5l9.57-15.377-9.24-14.452a.77.77,0,0,1,.726-1.254h9.834a1.255,1.255,0,0,1,1.187.659l4.158,7.194,4.092-7.194a1.357,1.357,0,0,1,1.253-.659h9.768c.857,0,1.253.594.726,1.254l-9.174,14.452,9.57,15.377c.462.66.066,1.254-.726,1.254H115.6a1.259,1.259,0,0,1-1.188-.66l-4.488-7.986-4.488,7.986a1.36,1.36,0,0,1-1.253.66H94.419C93.562,159.752,93.3,159.158,93.693,158.5Z"/>
      <path class="e" d="M133.623,150.051V135.928H129.6a.989.989,0,0,1-.99-1.056v-6.4a.989.989,0,0,1,.99-1.055h4.026v-7.524a1.042,1.042,0,0,1,1.056-1.055h9.107a1.042,1.042,0,0,1,1.056,1.055v7.524h4.817a1.042,1.042,0,0,1,1.056,1.055v6.4a1.042,1.042,0,0,1-1.056,1.056h-4.817v12.935a2.5,2.5,0,0,0,2.771,2.508c.595,0,1.122,0,2.046-.067a1.042,1.042,0,0,1,1.122.991v6.071c0,1.716-3.7,2.178-6.071,2.178C139.232,160.544,133.623,158.1,133.623,150.051Z"/>
    </g>
  </g>
</svg>
