<svg xmlns="http://www.w3.org/2000/svg" viewBox="0 0 348.67 340.8"><defs><style>.cls-1{fill:#ececec;}.cls-2{fill:#707da7;}</style></defs><title>photoshop</title><g id="Layer_2" data-name="Layer 2"><g id="Draw_Layer" data-name="Draw Layer"><path class="cls-1" d="M285.91,0q-.59,0-1.14.12c-.28,0-.57.07-.86.09l-.87,0H281.5l-.51,0c-.59,0-1.18,0-1.77,0-.74,0-1.47,0-2.2,0l-.56,0h-1q-.39,0-.78,0c-.78,0-1.55-.1-2.32-.1a11.24,11.24,0,0,0-2.13.25,6.79,6.79,0,0,1-.9,0c-.47,0-.93,0-1.39-.06L266.88.32h-.46c-.56,0-1.11,0-1.67,0l-1.17,0h-.44c-.39,0-.76,0-1.15,0h-.24l-1,0-.7,0c-.9,0-1.77.07-2.66.07h-1.24c-.65,0-1.29,0-1.94.06s-1,.05-1.53.06h-.37c-.44,0-.87,0-1.31,0s-.88,0-1.32,0-.71,0-1,0l-.94.09c-.66.06-1.32.12-2,.14h-.56c-.81,0-1.66,0-2.47.13a14.93,14.93,0,0,1-2,.12l-1.08,0h-.64c-.33,0-.67,0-1,0l-.5.05c-.28,0-.58.06-.87.07h-.32c-.69,0-1.38-.06-2.07-.11-.48-.05-1-.09-1.47-.11h-.59c-.52,0-1,0-1.56,0l-.93,0-2.56.09c-1.45,0-2.91.1-4.37.11h-1.91c-.34,0-.68,0-1,.07s-.42.05-.63.06c-.67,0-1.35.06-2,.08l-1.78.06c-1.26.07-2.52.13-3.79.13-.74,0-1.48,0-2.22,0s-1.25,0-1.88,0h-.24c-.69,0-1.39,0-2.08-.05s-1.21,0-1.81,0h-.79c-1,0-2.07,0-3.09,0l-2.25.08c-.2,0-.41,0-.62,0h-1.47l-1,0-1.39,0h-1.73l-1.84,0c-.67,0-1.34,0-2,0h-.48l-2,0-2,0h-5.9c-1,0-1.95,0-2.93-.06-1.51-.06-3-.13-4.57-.13H167.4l-2.06,0L164,1.49c-.8,0-1.62-.08-2.43-.08h-.64c-.92,0-1.82.1-2.73.16-.64,0-1.27.09-1.91.12-.33,0-.67,0-1,0-.76,0-1.53,0-2.29-.07l-1.23,0c-1,0-1.91,0-2.87,0h-4.61c-1.41,0-2.93,0-4.46-.14-1.06-.07-2.13-.08-3-.08h-1.91c-.91,0-2,0-3-.09l-.88-.09C129.7,1,128.4.91,127.11.86h-.69c-.57,0-1.15,0-1.73,0s-1.07,0-1.61,0h-.85c-1.34,0-2.69,0-4,.09s-2.42.08-3.63.09h-4.19c-.67,0-1.33,0-2,.06s-1.22.05-1.84.05l-.66,0c-.56,0-1.11,0-1.68,0l-1.8,0h-.53l-2.2,0-2.21,0c-.72,0-1.45,0-2.18,0l-1.62-.05c-.7,0-1.39,0-2.09-.07S90.17.91,89.47.9h-.71c-1.18,0-2.37,0-3.55-.09-.86,0-1.7-.08-2.55-.08-.5,0-1,0-1.48,0-1,0-2,.13-3,.19-1.59.12-3.23.23-4.84.27l-.6,0c-1.08,0-2.15,0-3.22.13s-2.15.15-3.08.15l-.91,0c-.7-.07-1.41-.15-2.12-.15a14.17,14.17,0,0,0-1.94.19l-.5.07c-.5.08-1,.13-1.5.18l-.88.11c-1,.12-2,.3-3,.47l-.48.09-1.65.26-.41,0c-.86.11-1.7.21-2.55.39-.5.11-1,.23-1.48.36L48,3.8l-.88.2a38.39,38.39,0,0,0-4.4,1.13c-.74.25-1.47.52-2.2.79-1.09.4-2.22.82-3.35,1.16a22.11,22.11,0,0,0-2.83,1c-.56.26-1.12.54-1.68.83l-1.12.57-.26.12a52.27,52.27,0,0,0-5.4,2.84,24.37,24.37,0,0,0-2.56,1.79,8.86,8.86,0,0,0-1.68,1.68,5.82,5.82,0,0,1-.62.4A9,9,0,0,0,19,18l-.78.83L16.68,20.4c-.87.92-1.75,1.84-2.59,2.79a24.08,24.08,0,0,0-1.64,2.15c-.2.29-.37.6-.55.9s-.22.38-.34.57l-.2.23c-.4.46-.81.91-1.17,1.41a16,16,0,0,0-1,1.55,10.49,10.49,0,0,0-.59,1.43c-.11.26-.22.48-.33.7s-.29.59-.42.9c-.2.5-.43,1-.66,1.48l-.1.21a38.22,38.22,0,0,0-1.62,3.86c-.17.45-.33.89-.49,1.33s-.36,1-.52,1.45c-.3.8-.6,1.58-.84,2.4-.18.59-.36,1.2-.56,1.79a23.82,23.82,0,0,0-1.12,3.73C1.62,50.46,1.4,51.65,1.2,53l-.1.71a24.77,24.77,0,0,0-.35,3.13c0,.65-.06,1.3-.11,2S.57,60,.54,60.6c0,.83,0,1.67.07,2.48,0,.44.05.88.07,1.32,0,.23,0,.45,0,.67s0,.45.05.67v1.73c0,.45,0,.9,0,1.35a18.43,18.43,0,0,1,0,2.35l0,.32C.72,72.64.62,73.8.58,75c0,1,0,2,0,2.94,0,.47,0,1,.05,1.42v1.16c0,1.15,0,2.33.14,3.49.08,1,.1,2,.12,2.93l0,1.26v.29c0,1.2.07,2.4.06,3.6v.31c0,1.24,0,2.48-.13,3.73,0,.55-.07,1.1-.11,1.64-.06.83-.12,1.65-.16,2.48-.08,1.53-.07,3.09-.07,4.6s0,2.75,0,4.13-.05,2.61-.05,3.92,0,3-.07,4.42-.12,3.24-.16,4.86-.08,2.94-.14,4.42S0,129.76,0,131.39c.05,1.27.16,2.62.34,4.12s.28,3.26.39,4.85c.06.92.11,1.85.19,2.77.14,1.8.18,3.63.22,5.4,0,1.07,0,2.15.09,3.22,0,.51.05,1,.08,1.52l0,.22v.23l-.08,1.37C1.08,157.49,1,160,.7,162.4l0-.24-.08.66,0,.33,0,.19c-.28,3-.41,5.69-.4,8.26,0,1.21,0,2.41.09,3.61.06,1.69.12,3.44.07,5.16,0,1.89,0,3.81.08,5.67,0,1.13.08,2.26.09,3.4l0,2.2c0,1.92,0,3.82.09,5.74,0,1.37,0,2.84-.09,4.63,0,.31,0,.62-.07.94a9.61,9.61,0,0,0,.37,4.7c0,1,0,2,.1,3.09.08,1.43.1,2.89,0,4.35,0,.82,0,1.64,0,2.47,0,.63,0,1.26,0,1.89a31,31,0,0,0,.21,3.7,33,33,0,0,1,.08,4.09c0,1.37,0,2.61.06,3.84l0,1.25c0,.53,0,1.06,0,1.6,0,.78,0,1.56,0,2.34l0,.59c0,.32.05.65.06,1s0,.58,0,.86,0,.42,0,.64c0,.51,0,1,0,1.52,0,.75,0,1.5,0,2.24,0,.4.05.81.09,1.21s.06.66.08,1c0,.7.06,1.39,0,2.1,0,.23,0,.46,0,.69,0,.41-.05.82,0,1.23s0,.87,0,1.3,0,.65,0,1,0,.44,0,.66c0,.44,0,.88,0,1.31-.05.61-.08,1.23-.11,1.84-.07,1.47,0,2.92,0,4.16v.26A63.09,63.09,0,0,1,1.32,267c-.06.56-.1,1.12-.15,1.68a28.91,28.91,0,0,0-.09,3.31c0,.48,0,1,0,1.45s0,1.21,0,1.81v.28c0,.94.05,1.88.13,2.82.05.65.11,1.3.17,1.95.05.47.09.93.13,1.4s.11,1,.18,1.49.12.84.16,1.27c.14,1.36.27,2.59.51,3.84.14.8.31,1.59.47,2.39s.39,1.82.55,2.74l0,.24c0,.25.09.49.12.73l0-.27c.1.7.24,1.4.37,2.1s.24,1.22.34,1.84c0,.08,0,.16,0,.24.07.41.14.72.22,1a3.31,3.31,0,0,0,.14.41l.15.43c.07.28.13.57.19.85a9.28,9.28,0,0,0,.22.91,10.34,10.34,0,0,0,1.07,2.22c.21.35.41.71.6,1.07a7.64,7.64,0,0,0,.53.86c.14.22.29.43.42.65s.26.5.38.75a9.17,9.17,0,0,0,.46.88l.32.52q.23.48.48.93c.17.29.32.58.47.88s.33.66.52,1c.3.55.59,1.1.86,1.66s.41,1,.64,1.48c.15.31.33.6.5.89l.31.53A19.72,19.72,0,0,0,14.73,319c.59.79,1.16,1.62,1.72,2.45.19.28.37.55.54.83.39.6.77,1.18,1.2,1.75a44.49,44.49,0,0,0,4.42,4.74A11.14,11.14,0,0,0,25.69,331a20.39,20.39,0,0,0,2.21.89l.3.2a22.16,22.16,0,0,0,2.58,2l.16.11a23.64,23.64,0,0,0,2.65,1.66l-.2-.14a9.58,9.58,0,0,0,1.13.63l.28.14-.3-.18a12,12,0,0,0,2.28,1l.81.26c.58.19,1.16.38,1.75.53a28.93,28.93,0,0,0,3.1.67l1.47.19c.4.05.81.09,1.21.15s1,.14,1.52.23.9.15,1.36.21,1.14.12,1.72.17l1.19.11,1.2.14c.64.08,1.28.16,1.91.21s1.15,0,1.72,0l1.71,0-.3,0c.89,0,1.77-.09,2.66-.15h.77l1.16,0,1.09,0,.7,0h.28c.53,0,1.06,0,1.59-.06l.54,0h1.53c.68,0,1.35,0,2,0h.67l.55,0h.68c.65,0,1.29,0,1.94-.05l.43,0,1.53-.1.51,0h.5c.62,0,1.24,0,1.84,0h.49c.5,0,1,0,1.5-.05l.48,0,.48-.05c.33,0,.66,0,1-.06l.35-.06.48-.07.59-.06c.25,0,.5-.05.76-.06h2c.55,0,1.09,0,1.64,0,1,0,2-.08,3-.14l1.15-.06h4.64l1.46,0,2,0h2.14c1.36,0,2.47,0,3.51.1l2.23.1c1.18.05,2.37.09,3.55.2s2.59.13,3.86.14l1.82,0,1.14,0c1.36,0,2.73.08,4.1.08.72,0,1.45,0,2.17,0l.79,0h.8c.48,0,1,0,1.45,0h.39l1.72,0h.66c1.07,0,2.14-.12,3.17-.21.63-.06,1.25-.12,1.88-.15.42,0,.83,0,1.26,0l1,0,1.92.06,1,0c.88,0,1.75,0,2.63,0,1.12,0,2.23,0,3.34-.06H147l.84,0,.84,0,2.29-.08,1,0c.58,0,1.16,0,1.74,0,.92.05,1.84.06,2.75.06h1.83c1.79,0,3.65,0,5.48.15,1.55.11,3.13.12,4.66.13l2.07,0,1.41,0c1,0,2,0,3-.08l1.48-.09c.62-.05,1.24-.08,1.85-.11h1q1,0,2,0H182c.71,0,1.43,0,2.14,0l.4,0h-.2l1.73-.06c1,0,2,0,3,.06h.31c.91,0,1.83,0,2.74,0h1l1.57,0h.21s.11,0,.11,0h.8l.6,0H202c.64,0,1.27,0,1.91.05s1.27.05,1.9.05c1.52,0,3,0,4.56,0h1c1.19,0,2.43,0,3.64.14,1.51.13,3,.26,4.4.34.76,0,1.52.05,2.28.05h2l1.2,0,3,0h.58c1,0,2,.06,2.95.11l1.56.08h.71c.58,0,1.17,0,1.75-.05h.17l1.23,0h.7c1.19,0,2.38,0,3.54.12.51,0,1,0,1.51,0h1.12l1.57,0,1.78,0h.44l.62,0c.49,0,1,0,1.46-.06h.67c1.72,0,3.46.1,5.15.21,1.45.1,2.91.19,4.37.22,1.27,0,2.56.12,3.8.22l1.89.14c.72,0,1.45.07,2.19.07.9,0,1.8,0,2.7-.09h1.9c.93,0,1.86,0,2.8,0,.77,0,1.53,0,2.3-.06.33,0,.67,0,1-.07l1.11-.08c.44,0,.89,0,1.33-.07l.89,0,.6,0c1.17,0,2.39-.05,3.59-.16.78-.08,1.56-.19,2.34-.3.62-.09,1.25-.18,1.87-.24l2-.24,1.64-.2c.69-.08,1.37-.13,2.06-.18s1.31-.09,2-.16a9.34,9.34,0,0,0,1.79-.37l.65-.19c.7-.2,1.39-.39,2.07-.64a11.81,11.81,0,0,0,1.12-.44l.83-.33c.53-.2,1.06-.39,1.6-.57l.37-.13a56.39,56.39,0,0,0,5.7-2.43l1.62-.76,3.27-1.52.66-.3c.71-.33,1.43-.66,2.12-1a21.54,21.54,0,0,0,2.8-2c.47-.36.92-.71,1.41-1.06l.75-.38.72-.36a23.92,23.92,0,0,0,2.58-1.56,20.39,20.39,0,0,0,1.67-1.34,8.29,8.29,0,0,0,1-1.19c.14-.16.26-.33.4-.49l-.38.38c.3-.32.59-.65.87-1l.61-.71a9,9,0,0,1,1-.87,12.26,12.26,0,0,0,1.19-1.2l.24-.26a10.47,10.47,0,0,0,.94-1.06c.24-.31.45-.64.66-1l.1-.16.39-.61c.53-.82,1.06-1.63,1.56-2.48a4.63,4.63,0,0,0,.28-.54l.14-.2.23-.35,1-1.28-.13.12.24-.27a6.37,6.37,0,0,0,.7-1.14c.19-.37.37-.74.56-1.1.07-.13.14-.25.22-.37a3.91,3.91,0,0,0,.31-.56c.21-.5.42-1,.61-1.47.09-.24.21-.59.33-.94l.07-.19.36-.89.29-.68c.26-.61.52-1.21.73-1.84l.19-.49.18-.46.1-.23.11-.29a8.69,8.69,0,0,0,.45-1.3c0-.15.07-.3.1-.44a5.27,5.27,0,0,1,.14-.6c.22-.83.37-1.68.51-2.5l.11-.66c.16-.91.24-1.86.33-2.78l.08-.9c0-.41,0-.81.07-1.21s0-.76.07-1.14.11-.89.16-1.27c.15-1.1.3-2.21.34-3.33.05-1,.13-1.95.23-2.92a28.43,28.43,0,0,0,.41-5.46c-.06-1.14-.15-2.29-.23-3.42-.06-.73-.11-1.46-.16-2.19-.11-1.74-.13-3.49-.07-5.2a25.26,25.26,0,0,0-.44-4.95,18.58,18.58,0,0,1-.16-3.57c.06-.75.07-1.51.09-2.26s0-1.45.08-2.18c.1-1.57.19-3.26.17-5,0-.61,0-1.2,0-1.8V244c0-.39,0-.79,0-1.18s0-.7,0-1c0-.67,0-1.34,0-2s0-1.45,0-2.17v-.8c0-1.07,0-2.13,0-3.2q-.06-1-.15-2c-.08-.95-.16-1.91-.17-2.87,0-1.47-.07-2.93-.12-4.39v-.22c0-.65-.05-1.31,0-2s.09-1.56.12-2.34,0-1.53,0-2.3,0-1.41,0-2.12c0-1.13,0-2.26,0-3.4v-.85c0-.87.05-1.73.09-2.6l.06-1.4c0-1.08,0-2.16,0-3.24,0-.55,0-1.08,0-1.62,0-1,0-2,0-3,0-.59,0-1.19,0-1.79v-.8c0-1.05,0-2.1,0-3.16,0-.65,0-1.3-.08-2s-.07-1.36-.07-2c0-.89.06-1.8.12-2.67,0-.52.07-1,.09-1.57,0-.92,0-1.86,0-2.77,0-.56,0-1.12-.05-1.69,0-1.35.05-2.69.09-4,.06-1.54.11-3.12.08-4.69,0-1.72,0-3.4,0-4.82,0-.8.09-1.6.16-2.4s.14-1.65.16-2.48,0-1.82,0-2.74c0-.45,0-.9,0-1.36,0-1.31,0-2.63-.11-3.94-.14-2.82-.15-5.69-.17-8.47,0-1.54-.06-3.08-.13-4.62s-.05-2.81,0-4.17c0-2,.07-4,.13-6l.07-2.68c.05-1.49.1-3,.16-4.48s.1-2.68.14-4,0-2.92,0-4.34-.07-3,0-4.56.14-2.8.23-4.2.2-3,.25-4.56.07-2.73.17-4.09c.05-.66.09-1.32.13-2s.11-1.56.17-2.34c.16-2,.23-4.06.31-6l.09-2.5c.1-1.94,0-3.92,0-5.84l0-.68c-.06-1.69-.19-3.41-.32-5.07l-.12-1.6L348,71c-.12-1.59-.23-3.19-.31-4.79-.11-2-.33-4.12-.74-6.82-.24-1.93-.48-3.79-.89-5.6-.22-1-.49-1.91-.76-2.86-.2-.72-.41-1.45-.59-2.18l-.18-.7c-.28-1.1-.56-2.21-.81-3.31-.12-.53-.25-1-.41-1.54a18.18,18.18,0,0,0-.84-2.13L342,39.72c-.35-.94-.71-1.91-1.16-2.83a10.77,10.77,0,0,0-.83-1.28l-.2-.27c-.38-.53-.78-1-1.18-1.55a18.94,18.94,0,0,1-1.23-2c-.16-.28-.31-.56-.48-.83-.72-1.21-1.45-2.42-2.23-3.6a20.75,20.75,0,0,0-2.89-3.54,31.28,31.28,0,0,1-2.36-2.52,15.33,15.33,0,0,0-1.14-1.41,4.58,4.58,0,0,0-.46-.42l-.33-.3c-.67-.63-1.3-1.34-1.92-2L325.4,17a13.93,13.93,0,0,0-2.29-2L321.89,14c-.45-.35-.9-.71-1.36-1l-.14-.13c-.52-.41-1-.83-1.58-1.22s-1.13-1-1.69-1.44l-.36-.31A25.88,25.88,0,0,0,314.31,8c-.41-.28-.81-.56-1.2-.85l-.17-.11-.22-.17-.18-.17a7.73,7.73,0,0,0-1.6-1.08A14.57,14.57,0,0,0,309.23,5l-.53-.18.07,0-.52-.19-.53-.17-.5-.18-1.05-.42c-.47-.2-.94-.38-1.41-.56l-.65-.24L304,3.07,303.77,3l-.9-.31-1.22-.44.07,0A11.06,11.06,0,0,0,300,1.81a15.75,15.75,0,0,1-1.87-.44,25.56,25.56,0,0,0-4.57-.83L292.24.41l-1-.11c-.64-.07-1.27-.1-1.91-.13l-.95-.05a18.25,18.25,0,0,0-2-.12ZM117.56,17.24h.4l.79,0c.8,0,1.59-.07,2.43-.13L122.8,17l.87,0c1.09-.06,2.18-.11,3.41-.11h.44c1.3,0,2.42,0,3.45-.09s2.16-.09,3.64-.09h1.25c1,0,2.13,0,3.32.1.92.07,2,.1,3.29.1,1.5,0,3,0,4.55-.1a5.43,5.43,0,0,1,.57,0c.75,0,1.51.05,2.31.11.55,0,1.1.07,1.66.08l1.7,0h.35c.86,0,1.74,0,2.6.09q.58,0,1.17.09l1,.09q1,0,2.07.06l.35,0c1.15,0,2.29.12,3.47.22l.48,0,.32,0a29.15,29.15,0,0,0,3,.11h3.43c.83,0,1.67,0,2.5,0l3.1-.06h.64c1.29,0,2.57,0,3.86-.11l2-.06,2.4-.07.92-.05.45,0c.79,0,1.57-.09,2.36-.09.29,0,.57,0,.86,0l1.48.1c1,.09,1.87.14,2.69.14H195l.88,0,1.33,0h.18c.46,0,.89.05,1.41.09l.27,0,.21,0,.5.05c.55.05,1.1.06,1.65.06.71,0,1.43,0,2.14-.06l.57,0,.53,0c1.32-.06,2.64-.12,4-.14h.47c1.21,0,2.4.06,3.61.13.77,0,1.55.05,2.33.05s1.35,0,2,0l1-.05h1l1.37,0c.29,0,.56,0,.85,0,.94,0,1.88.05,2.82.05.65,0,1.31,0,2,0s1,0,1.52,0c1.1,0,2.2,0,3.3.06l.51,0c.91,0,1.82,0,2.73,0h.26c.76,0,1.51,0,2.33-.08l1.66-.06h.82c1.07,0,2.15.05,3.2.11.53,0,1.06,0,1.59,0l1.64,0h1c1.14,0,2.28,0,3.41,0h1.29q4.57,0,9.15.09c.82,0,1.64.06,2.46.11.58,0,1.15.07,1.73.09l1.38.05.73,0,.71,0,1.29,0a6.56,6.56,0,0,1,.76.09l.38.07c.58.08,1.17.13,1.78.16h.77c.77,0,1.55,0,2.32-.1l.81,0c.77,0,1.52.07,2.35.15l.27,0,.38.05c.36,0,.72,0,1.08,0,.7,0,1.4-.05,2.1-.1l.48,0,.31,0h.21l.58,0h.3c.16,0,.31,0,.46,0l.37,0a2.9,2.9,0,0,0,2.26,1.18,30.32,30.32,0,0,1,4.26.33,29.52,29.52,0,0,1,3,.95l.76.27,2.43.85.52.18a15.38,15.38,0,0,1,1.52.58l.28.13.84.41.66.31a15.53,15.53,0,0,1,1.65,1.12l.54.4.28.2.24.14.77.53c.51.39,1,.8,1.48,1.22l.56.49c.22.19.46.38.81.65l.14.1c.27.19.52.38.78.59l.42.41.22.21.42.39c.38.35.77.69,1.16,1l.4.33c.41.44.77.91,1.2,1.47l.17.22.4.53.82,1c.5.63,1,1.25,1.53,1.83.21.23.43.46.65.68l.46.47a13.91,13.91,0,0,1,.94,1.15l.11.15.1.14.61.81c.42.56.84,1.14,1.24,1.71s.62,1.09,1,1.77l.11.21.31.58c.42.78.88,1.55,1.35,2.31l.58,1a36.78,36.78,0,0,1,3.09,7.09l.52,1.62c.33,1,.67,2.1,1,3.15l.17.51.16.5a40.94,40.94,0,0,1,1.07,4.25l.06.17.13.64c.12.56.24,1.12.37,1.68a33.69,33.69,0,0,1,.88,6.26c0,.45.07.89.1,1.33h0v-.11a.34.34,0,0,0,0,.1l0-.1v0l0,0c0,.86.09,1.71.15,2.56s.08,1.58.12,2.37l0,.81,0,.6c0,.59.06,1.17.1,1.75.09,1.66.13,3.27.16,4.87v.4c0,1.14,0,2.27.07,3.4.05,1.54.1,3.07.19,4.6.05,1,.13,2,.23,3,.05.62.11,1.24.15,1.86s0,1.44,0,2.16v.31c0,.41,0,.83,0,1.25s0,1.08,0,1.61v.3c0,.7,0,1.39,0,2.07s0,1.09-.08,1.64l0,.31c0,.67-.07,1.34-.07,2s0,1.19.06,1.78v.23c0,.54.06,1.09.07,1.64a25.23,25.23,0,0,1-.2,3.06l0,.19c0,.44-.09.89-.13,1.34-.11,1.22-.12,2.51-.14,3.83v1.24c0,1.19,0,2.41,0,3.64s.11,2.63.17,3.94c.08,1.57.05,3.1,0,4.58v.18c0,1.09-.05,2.19,0,3.28,0,1.58,0,3.15-.07,4.82,0,1,0,2,0,3,0,1.49,0,3.07.07,4.33l0,.28v.2l0,.7c0,.92.06,1.83.07,2.75,0,1.2,0,2.39,0,3.58v.4c0,1.3,0,2.6,0,3.9s0,2.47,0,3.7v3.91c0,1.17,0,2.33-.05,3.49l0,.37c0,1.11-.05,2.23,0,3.36,0,.53,0,1.07,0,1.6,0,.73,0,1.46,0,2.18s0,1.38-.07,2.1-.05,1.22-.06,1.84c0,1.36,0,2.71,0,4.07v.37c0,1,0,2,0,3,0,1.33,0,2.68-.08,4l0,.45V200q-.06,1.44-.09,2.88l0,1.19v.38c0,.74,0,1.5,0,2.24s0,1.43,0,2.15v.7l0,.72V211c0,1.86,0,3.73,0,5.58v.55c0,3.27,0,6.64.11,10,0,.74.07,1.47.13,2.25l0,.29,0,.54c.06,1.5.06,3,.06,4.48,0,1.07,0,2.14,0,3.22s.08,2.35.14,3.55.13,2.45.15,3.68,0,2.28-.09,3.7l0,.37c-.06,1.14-.11,2.28-.11,3.42s0,2,0,3.09v.62c0,1,.12,2,.24,3.12l.05.49.05.49,0,.48c0,.91.05,1.81,0,2.73,0,.5,0,1-.07,1.54s-.07,1.2-.07,1.8,0,1,0,1.54a8.93,8.93,0,0,0,.06,1c.08,1.53.1,3,.07,4.8a3.18,3.18,0,0,0-1.37,2.36l-.05.54,0,.55c-.08,1-.17,2-.22,3l-.05.67a22.61,22.61,0,0,1-.2,2.29l-.11.38c-.07.23-.14.46-.2.69-.1.42-.17.83-.24,1.29l-.05.2c-.07.29-.16.58-.25.86l-.15.49c-.13.56-.25,1.12-.37,1.7a14,14,0,0,1-.55,1.66l-.09.23c-.2.57-.42,1.12-.67,1.67a38.5,38.5,0,0,1-4.45,7.11c-.49.55-1,1.06-1.51,1.58-.66.67-1.28,1.38-1.89,2.09l-.86.88-.57.59-.23.24-.47.49-.22.24-.14.15c-.36.37-.71.75-1.09,1.11l-.27.26c-.55.53-1.1,1.06-1.62,1.63a12.5,12.5,0,0,1-2.05,1.81l-.76.53-.75.53a21,21,0,0,1-2.77,1.56l-1.16.52-.27.12c-.6.26-1.21.54-1.82.82-1.16.56-2.3,1.06-3.5,1.53-.42.16-.84.35-1.39.59s-1,.43-1.48.63c-.81.24-1.64.45-2.46.65l-1,.25c-1.22.32-2.43.72-3.95,1.28a3.56,3.56,0,0,0-.62.23,17.36,17.36,0,0,1-2.9.6l-1.44.23c-1,.17-2,.42-2.92.64l-.32.08-.25.06-1.62.38c-.92.23-1.84.39-2.73.54l-.21,0-1,.16-.9.16c-1,.17-2.11.36-3.23.48s-2.08.17-3.12.27l-1,.12-.5.06-1.53.19c-.43,0-.86,0-1.3.05h-.31c-.51,0-1,0-1.52.08-.75.05-1.49.13-2.24.2l-.55.06-1.41.14c-.85,0-1.69.06-2.55.06h-1.8l-.51,0c-.63,0-1.27,0-1.9,0h-.35l-2,0-1.23,0h-.73c-1.1,0-2.2,0-3.3-.08-2.19-.09-4.38-.21-6.63-.33l-.78,0-1.06-.06-.78-.05c-.69,0-1.38-.09-2.07-.09-.29,0-.58,0-.86,0l-3.81.27c-.43,0-.89.05-1.34.05-.85,0-1.7-.06-2.62-.12l-.29,0c-.84-.08-1.72-.11-3-.11l-1.39,0-.67,0-.67,0c-.75,0-1.49.05-2.25.05H216q-2.17,0-4.32-.15c-1.14,0-2.27,0-3.41,0h-1c-.53,0-1.05,0-1.62,0h-.82l-1.62,0H203c-2.4,0-5.19.08-8.78.22l-1.34.06-.19,0c-.89,0-1.78.09-2.68.1h-6.14c-.79,0-1.58,0-2.37,0l-1.11,0c-1.13,0-2.25.06-3.37.13-1.65.09-3.3.13-5,.18h-.74l-.6,0c-.82,0-1.63,0-2.45.09l-.88,0h-.2c-1.71.07-3.84.17-5.89.17-.58,0-1.15,0-1.73,0-1.46,0-2.93-.05-4.4-.05-.7,0-1.41,0-2.17,0s-1.45,0-2.17,0h-.17c-1.36,0-2.73-.06-4.11-.12s-2.78-.1-4.17-.1h-1.49c-.87,0-1.74,0-2.64-.05h-.83l-.51,0c-1,0-2.06-.05-3.1-.05h-.29l-2.49.08q-.94,0-1.89.06h-.58c-.74,0-1.47,0-2.2,0l-1.65,0h-.88c-1.11,0-2.23,0-3.34,0s-2.15.06-3.22.06l-1.34,0-1.64,0-.45,0c-.76,0-1.52,0-2.28,0h-1.29c-1.16,0-2.32,0-3.49,0s-2.57,0-3.87-.05c-1.72,0-3.44,0-5.17-.09-2.3-.1-4.61-.23-6.91-.35l-1.73-.1q-.76,0-1.53,0H85.06c-1.46,0-2.93-.07-4.39-.13l-5.51-.29H75l-1.07-.06L72,324l-4.1-.22-4.11-.22-1.8-.1L60,323.35l-.62,0c-.57,0-1.14-.06-1.7-.11-.4,0-.81-.1-1.22-.16l-.89-.13c-1.31-.16-2.62-.31-3.93-.53l-1.25-.22-1.26-.24c-.61-.14-1.22-.28-1.84-.45l-.08-.14A5.38,5.38,0,0,0,46,320a16.23,16.23,0,0,0-2.38-1.62,9.16,9.16,0,0,1-2-1.57l-.34-.31v0l0,.07,0,0,0,.07,0,0v0c-.44-.47-.9-.9-1.43-1.4l-.15-.14-.46-.45-.71-.67c-.7-.72-1.4-1.44-2.11-2.15-.33-.33-.67-.64-1-1l-.52-.48a2.27,2.27,0,0,0-.31-.31,13.19,13.19,0,0,0-1-1l-.26-.23-.15-.14-.28-.26-.55-.55-.37-.37-.31-.3c-.48-.52-.93-1.07-1.39-1.61l-.16-.21a22.43,22.43,0,0,1-1.41-1.88l-.59-1-.19-.29-.15-.25-.32-.49c-.14-.24-.29-.46-.61-.91-.12-.18-.24-.36-.34-.54a40.38,40.38,0,0,1-2-4.84c-.26-.71-.51-1.42-.78-2.13-.47-1.19-.88-2.38-1.29-3.59-.12-.36-.25-.73-.38-1.09L22,288.2c-.27-.75-.56-1.55-.78-2.35l-.36-1.39c-.15-.65-.3-1.29-.46-1.84-.21-1-.37-2.09-.52-3.12s-.28-1.79-.46-2.67c-.27-1.36-.45-2.82-.62-4.12l0-.16,0-.37,0-.34c-.05-.33-.09-.65-.15-1l0-.25,0-.29c-.25-1.78-.54-3.81-.62-5.77-.06-1.77,0-3.49,0-5.16.16-4.75.14-8.75-.07-12.24l-.08-1.31c-.18-3.07-.37-6.24-.35-9.38,0-1.09.12-2.17.21-3.3l0-.28.07-.8c.09-1.22.11-2.45.11-3.83v-.58l.08-1.47v-.36c.05-.74.1-1.47.12-2.21,0-1.7,0-3.41,0-5.11l0-1.13v-.18l0-.63c0-.8-.05-1.59-.06-2.4,0-1.35,0-2.71,0-4.11l0-2.14v-3.17c0-.7.06-1.4.11-2.1v-.34l.07-1a45,45,0,0,0,0-4.65l0-1,0-1v-.42c-.05-1.27-.12-2.84-.12-4.34,0-1,.09-2,.15-3l0-.5.08-1.39c.07-1.19.12-2.4.17-3.6l.06-1.46a46.19,46.19,0,0,0,0-5.39l0-.37,0-.29c-.07-1-.15-2.22-.15-3.38,0-.51,0-1,0-1.58l.05-.15a.22.22,0,0,1,0-.09l-.05.17a.28.28,0,0,1,0-.09l-.05.09c.05-.49.05-1,.06-1.48l0-1.47v-1.48c0-.38,0-.75.06-1.17l0-.39v-.29l.07-1c0-.57.05-1.14.07-1.71V159l0-.73q.11-3.42.15-6.85l0-1.18c0-.9.05-1.79.05-2.69,0-.72,0-1.44,0-2.17V145l0-1c0-1-.07-2.05-.13-3.08v-.7c0-.93-.1-2-.1-3v-1.3c0-1.41.09-2.81.18-4.21,0-.55.06-1.09.07-1.64l0-.93,0-.94c0-.67.06-1.34.06-2s-.07-1.54-.13-2.31l0-.25-.09-1.07a32.87,32.87,0,0,1-.1-3.57c0-.13,0-.27,0-.4v-.1l0,0a.08.08,0,0,1,0,0v0l0,0,0-.88c0-.57,0-1.15,0-1.77l.09-2.53c.07-1.92.14-3.84.16-5.77,0-.92,0-1.84,0-2.76l0-1.62,0-.17,0-.28v-.27c0-.74.05-1.49.09-2.24S19,98.76,19,98c0-1,0-1.94,0-2.91v-.38c0-.52,0-1,0-1.55V91.51c0-.74,0-1.48,0-2.22V87.64l.05-1.25c.06-1.54.12-3.13.11-4.7,0-.74.08-1.48.12-2.22l0-.36.07-1c.08-1.34.15-2.65.18-4,0-.63,0-1.32,0-2s0-1.29.06-2c0-.37,0-.81.05-1.25v-.4l0-.33c0-.41,0-.82,0-1.24s0-.85,0-1.27v-.85c.06-.88.15-1.75.24-2.63l.1-.91c.07-.62.1-1.25.13-1.87v-.71l0-.9c0-.43.05-.84.11-1.3a3.39,3.39,0,0,0,.89-2l.14-.86.12-.75a11.06,11.06,0,0,1,.76-2.42c.43-.93.71-1.61.95-2.26s.41-1.23.62-1.93a21.3,21.3,0,0,1,.92-2.61c.95-1.79,2-3.47,2.67-4.57a18.58,18.58,0,0,1,1.29-1.76L29,37l.27-.35,1.23-1.54c1.14-1.23,2.35-2.43,3.95-3.88.48-.42.94-.87,1.53-1.44a25.71,25.71,0,0,1,2.83-2.45c.59-.4,1.17-.79,1.79-1.14A19.55,19.55,0,0,1,43.05,25c.43-.17.86-.36,1.28-.54l.45-.2.22-.1.31-.13c.78-.34,1.56-.69,2.37-1,.33-.11.67-.22,1-.31l.19-.07c.63-.19,1.25-.39,1.85-.62,1-.39,2-.76,2.94-1.12a30,30,0,0,1,6-1.48l.93-.08.48,0,.33,0,0,0h0l-.08,0h.05l-.05,0c1.3-.08,2.64-.26,3.79-.42l.24,0,.22,0q.92-.14,1.83-.24c.41,0,.82-.06,1.24-.11.74-.05,1.5-.06,2.25-.06h2l2,0h1c1.63,0,3.36-.14,5.3-.31q1.23-.12,2.46-.27c.66-.08,1.34-.16,2-.22.42,0,.84-.05,1.27-.05a12.12,12.12,0,0,1,1.79.13,9,9,0,0,0,1.6.11c.5,0,1,0,1.53-.05H92l.47,0c.33,0,.66,0,1,0h.8l.21,0h.65a17.39,17.39,0,0,0,2.71-.27l.35-.05.33,0,.38-.05h.17c.56,0,1.12.05,1.68.1l.26,0c.28,0,.57.05.85.06h.93c.67,0,1.35,0,2,0l1,0,.66,0c1.16,0,2.33-.05,3.49-.12h.21c.65-.05,1.32-.09,2-.09.44,0,.88,0,1.49.07l.22,0,.51,0q.53,0,1.05,0c.71,0,1.42,0,2.13-.08Z"/><path class="cls-1" d="M126.19,83,126,83h-.29a4.52,4.52,0,0,1-.51,0h-1.57a14.38,14.38,0,0,0-2.39.18h-.33a9.39,9.39,0,0,1-1.1-.07c-.22,0-.43,0-.65,0h-.31a14.89,14.89,0,0,0-1.64.12c-.85.09-1.6.12-2.35.16s-1.64.07-2.46.16a3.81,3.81,0,0,1-.59,0c-.23,0-.46,0-.69,0h-.32l-.31,0-.3,0h-.38c-.33,0-.65,0-1,0l-.77,0h-.3l-1.07,0h-.27c-.27,0-.53,0-.8,0a10.54,10.54,0,0,0-1.91.21h-1a3.77,3.77,0,0,0-.48,0,8.53,8.53,0,0,0-1.69.25l-.59.14c-.34,0-.68,0-1,0a21,21,0,0,1-2.63-.2,8.2,8.2,0,0,0-1.51-.15h-.6l-.48,0a15.33,15.33,0,0,0-2.58.2l-.29,0h-.29l-.3,0-.43,0h-.21L89.34,84a3,3,0,0,0-2-.75,2.83,2.83,0,0,0-.76.09,3.37,3.37,0,0,0-2.26,2.25,4.06,4.06,0,0,0-.15,1.1l0,.31-.06.77-.11.61a21.53,21.53,0,0,0-.41,3.69c0,.34,0,.68,0,1.05l0,.58a13.45,13.45,0,0,1,0,1.42v.17l0,.63c0,.68,0,1.35-.08,2.12,0,.6-.06,1.21-.08,1.81l0,1.34c0,1-.06,1.94-.13,2.9a85.74,85.74,0,0,0-.2,8.69c.08,2.23.06,4.47.05,6.63V120l0,1.45c0,2.91-.09,5.82-.18,8.72L82.87,133c0,2.13-.1,4.26-.21,6.38-.13,2.42-.06,5,0,7.23l0,.29v.47c0,1.49,0,3.06,0,4.48v1.3l0,.75v.57c0,.55,0,1.1,0,1.66,0,1.44.05,2.9.11,4.32v.23c0,1.11.1,2.23.12,3.34l0,1v.75c0,.75,0,1.5,0,2.24s0,1.2,0,1.8v.38c0,.51,0,1,0,1.54,0,.9,0,1.79,0,2.69v.35c0,1.29.06,3.05,0,4.69-.1,1.91,0,3.91,0,5.79,0,.75.06,1.51.08,2.26,0,1.54,0,3.13,0,4.64v.51c0,.82-.06,1.62-.08,2.43-.06,3.25-.07,5.52,0,7.61,0,.91,0,1.79-.1,2.62l0,.41c0,.51-.06,1-.07,1.52a40.75,40.75,0,0,0,.18,4.13,31.06,31.06,0,0,1,0,4.44,33.58,33.58,0,0,0,0,3.49v.16l0,1.15c0,.62,0,1.25,0,1.89v1.34c0,.59,0,1.18.06,1.77s.06.94.06,1.41a40.83,40.83,0,0,1-.36,5.12l0,.22,0,.2c-.12,1-.23,2-.29,3l0,.47c0,.4-.06.79-.06,1.19s0,1,.07,1.55q0,.56.06,1.11a3.15,3.15,0,0,0,1.7,2.72,2.77,2.77,0,0,0,1.71.68h.19l.26,0h.19c.63-.06,1.33-.14,2-.14.32,0,.64,0,1,.05l.35.06a22.4,22.4,0,0,0,3.73.39,10.8,10.8,0,0,0,1.13,0c.72-.07,1.48-.11,2.31-.12h.66a10.37,10.37,0,0,1,1.24,0,14.7,14.7,0,0,0,1.78.18l.75,0h.24l.71.18.24.05a15.5,15.5,0,0,0,2.3.32c.15,0,.3,0,.63,0h.56a4.06,4.06,0,0,1,.51,0l.27,0a2.83,2.83,0,0,0,.67-.11,3.87,3.87,0,0,0,1.89-.5,4.53,4.53,0,0,0,1.85-2.53,5.36,5.36,0,0,0,.17-1.69,15.28,15.28,0,0,0-.12-1.53l0-.21,0-.22c0-.32-.06-.65-.06-1v-.71c0-.17,0-.34,0-.51a11.3,11.3,0,0,0-.08-1.15l0-.35c-.06-.71-.11-1.41-.15-2.11-.06-1.4,0-2.83.08-4.22v-.63c0-.91.08-1.85.07-2.78v-.75l0-.45a18.68,18.68,0,0,1,0-2.79,19.77,19.77,0,0,0,.08-3.9l0-.33c0-.56-.06-1.13,0-1.69s.06-.93.12-1.48l.06-.55c.15-1.31.21-2.66.26-3.81.1-2.25.14-4.48.17-6.56,0-.64,0-1.28.11-1.92l0-.5,0-.34,0-.63c0-1.18.1-2.35.12-3.52,0-.6,0-1.21,0-1.81l0-.61.16-3.42.7,0c.38,0,.74.05,1.08.05l.56,0c.54,0,1.08-.09,1.62-.09l.4,0,1,.05.33,0,1,.05h.57c.67,0,1.34,0,2.06-.05l1.61,0c.79,0,1.59-.07,2.44-.14l.37,0,.18,0,.36,0,1.07-.1c1.19-.09,2.43-.12,3.65-.14h.59c1.16,0,2.32,0,3.49-.1a33.65,33.65,0,0,0,3.83-.51l1.26-.21a27.7,27.7,0,0,0,4.39-.93l1.12-.41.3-.12c.46-.17.91-.34,1.37-.49s1-.29,1.47-.42l1-.28a22.72,22.72,0,0,0,3.27-1.39c.58-.29,1.15-.58,1.75-.84l.82-.31a26.48,26.48,0,0,0,3.27-1.4,18.79,18.79,0,0,0,3.5-2.7l.15-.13.9-.82c.67-.59,1.33-1.18,2-1.79a31.66,31.66,0,0,0,3.11-3.39,28,28,0,0,0,3-4.32c.39-.73.83-1.42,1.34-2.26.33-.52.65-1,1-1.55a36.69,36.69,0,0,0,2-4.08l.1-.2.06-.16c.13-.3.25-.62.39-1l.29-.76c.28-.69.55-1.38.8-2.09.12-.34.22-.68.33-1l.12-.38.06-.2c.12-.38.24-.76.38-1.14.08-.22.16-.44.25-.65s.19-.47.28-.71a11.47,11.47,0,0,0,.3-1.14l0-.16,0-.24c.22-1,.45-1.91.69-2.86a16.33,16.33,0,0,0,.4-2.55l.05-.45c.12-.61.28-1.18.44-1.75a9.77,9.77,0,0,0,.4-2.74v-1c0-1,0-2.07.13-3.1l.07-.45c.11-.66.21-1.31.26-2,.07-.82.09-1.65.11-2.46a14.32,14.32,0,0,0-.11-2.36c-.07-.56-.16-1.09-.26-1.63l-.14-.87c-.05-.46-.09-.92-.11-1.37,0-.18,0-.36,0-.54v-.18c0-.32,0-.64,0-1a28.72,28.72,0,0,0-.75-4.33l-.05-.23a41.39,41.39,0,0,0-2.5-7.61c-.25-.59-.55-1.15-.85-1.71s-.54-1-.79-1.57c-.15-.33-.28-.66-.41-1s-.24-.58-.37-.87a9.69,9.69,0,0,0-1.17-1.83c-.36-.47-.73-.91-1.1-1.36l-.15-.18-.14-.16c-.32-.38-.64-.76-1-1.15l-.23-.27a12,12,0,0,0-.92-1.09,9.54,9.54,0,0,0-1.42-1.2l-.15-.12-1.27-1q-.9-.77-1.83-1.5a11.54,11.54,0,0,0-2.9-1.54,23.07,23.07,0,0,1-2.93-1.78l-.69-.47A24.12,24.12,0,0,0,156,90l-.71-.32c-.83-.37-1.66-.75-2.49-1.06s-1.59-.52-2.39-.75c-1.43-.41-2.79-.78-4.17-1.16l-1.6-.45-1-.28a23.12,23.12,0,0,1-2.49-.73l-.74-.27a10.69,10.69,0,0,0-1.92-.57l-1-.23c-.38-.09-.77-.16-1.2-.24-.65-.1-1.31-.17-2-.24l-.77-.08L133,83.5a18.05,18.05,0,0,0-2.71-.34c-.56,0-1.12-.06-1.82-.14-.41,0-.82-.07-1.22-.08h-.28l-.73,0Zm-10.77,25.81h.29c.35,0,.7,0,1.05,0l.67,0H118l1.15,0c.64,0,1.29,0,1.93.09,1.53.24,3.13.37,4.62.48l.5,0,.53,0,1,.09.69.16.2,0,.49.11.79.17c.44.07.88.18,1.3.29a14.6,14.6,0,0,1,1.93.7l.34.14.89.35.78.29c.36.17.72.36,1.07.55l.14.08.75.39a15,15,0,0,1,2,1.21l.44.36a30,30,0,0,1,3.47,3.16l.76.85c.7.77,1.39,1.55,2,2.38a8.64,8.64,0,0,1,.82,1.48c.17.38.37.8.57,1.23l.09.19c.21.42.41.85.6,1.28A20.64,20.64,0,0,1,149,128.5c.14.59.32,1.17.51,1.8l.06.16a15.89,15.89,0,0,1,.65,2.43,32,32,0,0,1,0,7.18,15.9,15.9,0,0,1-1,3.21q-.27.58-.51,1.17a16.92,16.92,0,0,1-1.93,2.94l-.29.38c-.43.56-.85,1.13-1.27,1.71l-.29.38-.7.94c-.49.59-1,1.14-1.57,1.69l-.62.63-.65.68a17.68,17.68,0,0,1-1.63,1.56,22.11,22.11,0,0,1-2.49,1.44l-.85.46-.26.14c-.45.25-.91.49-1.38.71s-1.09.35-1.64.51l-.48.15a17.71,17.71,0,0,1-2.32.61l-.32,0-.36,0-.36,0c-.52,0-1,.07-1.54.13l-1.73.23-.48.07-1,.13c-.43,0-.86.06-1.28.06-.76,0-1.52-.05-2.27-.1s-1.62-.1-2.36-.1h-.57c-.71,0-1.42.08-2.22.16l-.51,0a7.22,7.22,0,0,1-.81,0,1.93,1.93,0,0,1-.63-.08c0-.91.06-1.84.08-2.77,0-.53,0-1.06.06-1.6,0-1,.07-1.9.06-2.86,0-.66,0-1.31,0-2v-.28c0-.74,0-1.47,0-2.21v-.5c0-1.32,0-2.64,0-4s0-2.48,0-3.72v-2.38c0-.76,0-1.52,0-2.28s0-1.39.06-2.13,0-1.38.06-2.06V130c0-.87,0-1.73.06-2.59l0-.52,0-.52,0-.47c.1-1.31.19-2.7.16-4.07l0-2.71,0-2.75c0-.95,0-1.9,0-2.86v-.29c0-.91.06-1.82,0-2.73l0-.8,0-.91h.28c.21,0,.4,0,.62,0Z"/><path class="cls-1" d="M247.88,123.83h-.26a30.5,30.5,0,0,0-3.38.19l-.47.06a13.57,13.57,0,0,1-1.68.13l-.74,0c-.28,0-.56,0-.84,0h-2.89c-.41,0-.71-.05-1-.05a4,4,0,0,0-.49,0h-.25q-.31,0-.63,0a8.37,8.37,0,0,1-1.36-.12,12.57,12.57,0,0,0-1.65-.13h-.78c-.41,0-.83,0-1.24,0l-.63.06a6.56,6.56,0,0,1-1,.08,14.85,14.85,0,0,0-1.75.15,2.91,2.91,0,0,0-.67.15,5.94,5.94,0,0,1-.79.09l-.36,0a16.9,16.9,0,0,0-3.93,1l-.78.23c-.53.16-.89.27-1.24.4-.8.29-1.6.58-2.41.81a11.5,11.5,0,0,0-1.73.69l-.89.4-.48.19a11.29,11.29,0,0,0-2.86,1.44c-.24.18-.47.36-.69.55l-.13.1-.15.12-.25.21-.23.17-.51.4a18.63,18.63,0,0,0-1.73,1.59l-.17.17c-.17.14-.35.28-.74.57a8.64,8.64,0,0,0-1.19,1c-.15.13-.3.28-.46.44a14.21,14.21,0,0,0-1.66,1.6l-.33.37-.33.38a7,7,0,0,0-.64.87c-.47.74-.88,1.51-1.28,2.28l-.15.28c-.25.46-.5.93-.77,1.39l-.16.24-.1.15a26.7,26.7,0,0,0-1.89,3.18c-.28.58-.55,1.16-.82,1.74a20.85,20.85,0,0,0-.91,2.54,12.77,12.77,0,0,0-.38,2.16l0,.3,0,.2-.06.4a9.82,9.82,0,0,0,.17,3.5,4.87,4.87,0,0,1,.07.75v.26l0,.35,0,.26.05.39.08.56c0,.24.05.48.07.74s.06.6.1.89a16.86,16.86,0,0,0,.34,1.83c.17.74.35,1.37.56,2l.06.18.43,1.36.1.5.12.52c.27,1.22.53,2.23.79,3.09a14.12,14.12,0,0,0,1.29,2.82l.31.65a12,12,0,0,0,1.34,2.28,16.56,16.56,0,0,0,1.56,1.71l.34.35c.29.3.49.49.68.66.67.56,1.37,1.09,2.07,1.6s1.17.87,1.73,1.33a23.82,23.82,0,0,0,3,2l.58.34.54.31.16.12.33.21.25.18c.36.23.71.46,1.08.68l.89.53.85.5.32.2,1.09.72c.4.28.8.56,1.22.81s.75.44,1.14.65.53.27.79.43c.54.34,1.07.69,1.63,1l.56.3.21.11.47.23a14.38,14.38,0,0,0,1.63,1,13.06,13.06,0,0,0,1.51.62l.51.18a20.56,20.56,0,0,1,3.06,1.51l.84.53.32.22,1.51,1a15.77,15.77,0,0,1,1.28,1.13l.27.25.27.26,1,.91c.73.65,1.57,1.4,2.31,2.17l.43.46.43.45c.37.45.69,1,1,1.44l.3.45c.16.24.32.47.49.7s.45.64.66,1a19.33,19.33,0,0,1,.8,2.14L241,208l0,.17c0,.26-.08.45-.1.65a8.69,8.69,0,0,1-.15,1.21c-.19.56-.44,1.12-.69,1.68l-.15.35-.11.25-.3.69c-.23.53-.47,1.08-.74,1.61a12.21,12.21,0,0,1-.86,1.07,10.6,10.6,0,0,1-1.48,1l-1.45.77a11.15,11.15,0,0,1-1.57.61c-.31,0-.65.07-1,.09l-.22,0-.52,0-.2,0c-.64.06-1.25.12-1.9.12h-.66l-.29,0h-.33c-.45,0-.89,0-1.34,0s-1.08.07-1.61.07h-.88l-.29-.07H224l.05.05.1,0-.06,0,.06.05h0l0,0a8.12,8.12,0,0,0-1.46-.09h-.36l-.84-.08-.29,0c-.21,0-.43-.05-.65-.06a2.78,2.78,0,0,1-.57-.07l-.49-.08a8.92,8.92,0,0,1-1-.18l-.68-.2-.51-.2-.51-.14,0,0,.07.05,0,0,0,.05,0,0v0l-.26-.13c-.66-.19-1.29-.34-2-.48l-.45-.08c-.68-.12-1.33-.25-2-.43l-.41-.12-.71-.2-.42-.12-.45-.17a17.13,17.13,0,0,0-2.23-1.31l-1.43-.67-.72-.33-1.26-.56c-.9-.39-1.8-.78-2.7-1.21a5.32,5.32,0,0,0-1.07-.8,8,8,0,0,0-.92-.47,4,4,0,0,0-1.71-.42,2.88,2.88,0,0,0-1,.18,3.19,3.19,0,0,0-2,2.44,2.71,2.71,0,0,0,0,1.07,13.84,13.84,0,0,0-.07,2,9.54,9.54,0,0,0,.33,1.86c.07.41.13.85.16,1.28v.33a1.6,1.6,0,0,1-.07.54h0v.07l.05,0,0-.06a.43.43,0,0,1,0,.05l0-.05v0l0,0a10.65,10.65,0,0,0,0,1.7,6.1,6.1,0,0,0,.08.69l0,.27,0,.28v.19l-.1.26a8.21,8.21,0,0,0-.27,2.25,7.28,7.28,0,0,0,.11.91c0,.22.06.44.08.66s0,.33,0,.48c-.07.56-.1,1.11-.13,1.67,0,.27,0,.54,0,.85v.43l0,.41a9.7,9.7,0,0,0,0,1.41c0,.16,0,.31.06.45a3.26,3.26,0,0,1,.07.6v1.51a5.22,5.22,0,0,0,.25,1.59,4.52,4.52,0,0,0,3,3.08,35.23,35.23,0,0,0,5,1.76l.65.2c1,.29,1.9.51,2.83.73.36.09.7.16,1.06.22l.18,0,.23,0,.19,0c.47.08.93.19,1.38.3l.39.11c.8.2,1.7.43,2.62.57.55.07,1.1.17,1.64.26l.32.06.38.07,1.51.27c1.48.26,3,.47,4.44.67.89.12,1.81.16,2.75.21l.53,0H225l.53,0,.77.05.36,0c.85.06,1.69.11,2.54.11a35.63,35.63,0,0,0,4-.23c1.49-.15,3.11-.39,4.92-.71a32.89,32.89,0,0,0,6-1.49q.53-.19,1.05-.42l1.21-.49q1.15-.41,2.34-.75a13.53,13.53,0,0,0,3.09-1.48l.34-.2.68-.41.46-.23a13.79,13.79,0,0,0,2.5-1.46c.8-.62,1.62-1.25,2.41-2l.88-.84.59-.57.39-.34a11,11,0,0,0,1.19-1.11,7.94,7.94,0,0,0,.73-1l.1-.14.29-.47c.15-.21.32-.43.5-.65a8.55,8.55,0,0,0,.54-.73c.26-.38.5-.79.73-1.19l.33-.58a17.42,17.42,0,0,0,2-3.75l.14-.41.08-.22c.22-.66.44-1.32.61-2,.06-.24.12-.48.16-.7l0-.18.09-.43.11-.52a26.37,26.37,0,0,0,.78-2.82,14.86,14.86,0,0,0,.22-2.49v-1.61l0-.41c0-.43,0-.84,0-1.25V210c0-.58.11-1.16.2-1.92a19.41,19.41,0,0,0,.16-3.53c0-.21,0-.42-.07-.63l0-.15c0-.15,0-.27,0-.39s0-.31,0-.47l0-.34a1.29,1.29,0,0,0,0-.29,9,9,0,0,0-.5-1.82l-.08-.22-.17-.49,0-.32,0-.42,0-.26a9.14,9.14,0,0,0-.37-1.69c-.07-.47-.13-1-.19-1.46a14.06,14.06,0,0,0-.51-2.36,10.37,10.37,0,0,0-1.26-2.42c-.19-.3-.36-.55-.55-.86a5,5,0,0,0-.6-.92,9.63,9.63,0,0,0-.84-.85l-.44-.42a6.21,6.21,0,0,1-.4-.63,4.53,4.53,0,0,0-.88-.93l-.32-.28a7,7,0,0,0-.69-.53l-.21-.17a4.17,4.17,0,0,1-.67-.58,13.33,13.33,0,0,0-1.58-1.6,12.47,12.47,0,0,0-2.24-1.38l-.18-.16-.19-.17c-.2-.18-.41-.36-.61-.52A14.84,14.84,0,0,0,254,180l-.82-.43-.48-.43c-.18-.17-.36-.33-.55-.48l-.46-.35c-.3-.22-.6-.45-.91-.66a6.13,6.13,0,0,1-.65-.49c-.28-.22-.45-.34-.62-.46l-.49-.35-.27-.22c-.39-.26-.78-.51-1.19-.74l-.31-.22a19.09,19.09,0,0,0-2.24-1.39q-.54-.27-1.08-.51a13.49,13.49,0,0,1-1.79-.89l-.29-.15a21.51,21.51,0,0,0-2.1-1.18c-.32-.17-.66-.32-1-.47l-.21-.09c-.43-.2-.86-.4-1.3-.62-.29-.23-.59-.48-.88-.73l-.23-.18a8.22,8.22,0,0,0-.86-.67,20.69,20.69,0,0,0-2.17-1.26l-.29-.15-.33-.18-.69-.37c-.35-.27-.7-.54-1.05-.84a13.63,13.63,0,0,0-1.59-1.11,10.45,10.45,0,0,1-1.46-1.08,2.48,2.48,0,0,1-.19-.26l-.1-.13-.22-.31c-.13-.18-.26-.36-.4-.52a8.92,8.92,0,0,0-1.15-1.15l-.62-.56a10,10,0,0,1-.78-1.28l-.09-.17-.09-.15-.42-.72a7.91,7.91,0,0,1-.54-1.65c-.1-.4-.22-.78-.35-1.18l-.27-.78a12.67,12.67,0,0,1-.18-1.6,3.43,3.43,0,0,1,.08-.42,14,14,0,0,1,.82-2c.39-.58.76-1.18,1.13-1.81a8.62,8.62,0,0,1,1.09-.62l.49-.27a4.88,4.88,0,0,0,.63-.44c.22-.15.38-.27.56-.38a22.46,22.46,0,0,1,2.3-.89l.73-.22.22-.06.43-.14.39-.12.2-.07.43-.15.16-.06a14,14,0,0,1,1.78-.22l.91,0h.89l.92,0h.3l.51,0,.18,0h.17a6.11,6.11,0,0,0,.64,0,2.2,2.2,0,0,1,.36,0l.55.08c.57.06,1.12.11,1.69.14a5.37,5.37,0,0,1,.75.13c.22.07.46.17.7.26a11.79,11.79,0,0,0,1.42.47l.19.06c.69.23,1.36.51,2,.79l.3.13a16.83,16.83,0,0,1,2.09,1c.69.42,1.41.82,2.22,1.23l.36.18.25.12.15.07.19.09c.31.14.62.29.92.46.73.46,1.51.94,2.35,1.36.43.22.86.42,1.29.62l.39.17.57.27.41.18a5.28,5.28,0,0,0,1.14.39,2.7,2.7,0,0,0,.49,0,3.52,3.52,0,0,0,2.48-1.16,4,4,0,0,0,.89-1.87,4.59,4.59,0,0,0,.06-1.2c0-.3.09-.59.13-.89a1,1,0,0,0,0-.29l0-.19a9.26,9.26,0,0,0,0-1.16l0-.32v-.29c.1-.8.17-1.58.21-2.38s.14-1.59.19-2.39l0-.17a6.7,6.7,0,0,0,.08-.92l0-.62a16.11,16.11,0,0,1,.39-1.84l.09-.37a9.61,9.61,0,0,0,.24-1.93v-1a17.05,17.05,0,0,0,.13-2.85,16.57,16.57,0,0,0-.37-2.8,11,11,0,0,0-.23-1.19,3.69,3.69,0,0,0-1.82-2.22,6.1,6.1,0,0,0-2.52-.58l-.16,0-.69,0a3.13,3.13,0,0,0-1.46.31,17.63,17.63,0,0,0-1.8-.38,3,3,0,0,1-.42-.1,6.16,6.16,0,0,0-.75-.15l-1.23-.08-.34-.07-.29-.06-.31-.06a10,10,0,0,0-1.61-.15l-1.07,0-.95-.08h0l-.06.06Z"/><path class="cls-2" d="M135.86,16.63h-1.25c-1.48,0-2.57,0-3.64.09s-2.15.1-3.45.1h-.44c-1.23,0-2.32,0-3.41.1l-.88.05-1.61.09c-.84.05-1.63.1-2.43.12l-.79,0-.4,0c-.71,0-1.42.07-2.13.07q-.53,0-1.05,0l-.51,0h-.22c-.61-.05-1.05-.08-1.49-.08-.66,0-1.33,0-2,.09l-.21,0c-1.17.06-2.33.09-3.48.11l-.67,0-1,0c-.67,0-1.35,0-2,0h-.92l-.86-.07-.26,0c-.56-.05-1.12-.1-1.68-.1h-.17l-.38.05-.33,0-.35.05a18.69,18.69,0,0,1-2.71.27l-.65,0h-1l-1,0-.47,0h-.23c-.52,0-1,.05-1.53.05a8.84,8.84,0,0,1-1.59-.11,12.44,12.44,0,0,0-1.8-.12c-.43,0-.85,0-1.27,0l-2,.22c-.81.1-1.63.19-2.45.27-1.94.17-3.67.27-5.3.32h-1c-.65,0-1.3,0-2,0h-.19l-1.84,0c-.75,0-1.51,0-2.25.07l-1.24.1c-.62.08-1.22.15-1.83.24l-.22,0-.24,0c-1.15.16-2.49.34-3.79.42l.25.15-.9-.05-.93.08a30,30,0,0,0-6,1.48q-1.47.54-2.94,1.11c-.6.24-1.22.44-1.85.63l-.19.06-1,.32c-.81.31-1.59.65-2.38,1l-.3.13-.22.1-.45.19c-.42.19-.85.38-1.28.55a18.91,18.91,0,0,0-2.47,1.18c-.62.35-1.2.74-1.79,1.14A25.71,25.71,0,0,0,36,29.76c-.59.57-1.05,1-1.52,1.44-1.61,1.45-2.82,2.65-4,3.88l-1.23,1.55L29,37l-.27.34a18.42,18.42,0,0,0-1.29,1.75c-.69,1.1-1.72,2.78-2.67,4.57a20.9,20.9,0,0,0-.92,2.62c-.22.69-.41,1.31-.63,1.92s-.51,1.33-.94,2.26a11.06,11.06,0,0,0-.76,2.42l-.12.74-.14.86a3.42,3.42,0,0,1-.89,2c-.06.46-.09.87-.11,1.3l0,.9v.47l0,.24c0,.62-.06,1.25-.13,1.87l-.1.91c-.09.88-.18,1.75-.24,2.63v.85c0,.42,0,.84,0,1.27s0,.83,0,1.24v.33l0,.4c0,.44,0,.88,0,1.25,0,.66,0,1.3-.06,2s0,1.38,0,2c0,1.33-.1,2.64-.19,4l-.07,1v.36c-.05.74-.1,1.48-.12,2.22,0,1.57-.06,3.16-.12,4.7L19,87.64v1.65c0,.74,0,1.48,0,2.22v1.65c0,.52,0,1,0,1.55v.38c0,1,0,1.94,0,2.91,0,.76,0,1.52-.09,2.27s-.07,1.5-.09,2.24v.27l0,.28,0,.18,0,1.61c0,.92,0,1.84,0,2.76,0,1.93-.09,3.85-.17,5.77l-.09,2.53c0,.62,0,1.2,0,1.77l0,.88a.2.2,0,0,0,.14-.17,28.34,28.34,0,0,0,.06,4.16l.09,1.08,0,.24c.06.77.12,1.54.13,2.31s0,1.35-.06,2l0,.94,0,.93c0,.55,0,1.09-.07,1.63-.09,1.41-.14,2.81-.18,4.22v1.3c0,1,.05,2.1.1,3v.16l0,.37V141c.06,1,.12,2.05.14,3.08l0,1v.42c0,.73,0,1.45,0,2.17,0,.9,0,1.79-.06,2.69l0,1.18q0,3.43-.15,6.85l0,.73v.41l0,.42c0,.57,0,1.14-.07,1.71l-.06,1,0,.29,0,.39c0,.42-.05.8-.06,1.17v1.48l0,1.47c0,.49,0,1,0,1.48l.15-.33-.12.4c0,.55,0,1.07,0,1.58,0,1.16.07,2.34.14,3.38l0,.29,0,.37a44.09,44.09,0,0,1,0,5.39l-.06,1.46c-.05,1.2-.1,2.4-.16,3.6l-.09,1.39,0,.5c-.06,1-.12,2-.15,3,0,1.51.06,3.08.12,4.34v.42l0,1,0,1a45.07,45.07,0,0,1,0,4.65l-.06,1,0,.34c0,.7-.09,1.4-.1,2.1l0,2.05v1.12c0,.72,0,1.42,0,2.14,0,1.4,0,2.76,0,4.11,0,.81,0,1.6.06,2.4l0,.63v.19l0,1.12c0,1.7,0,3.41,0,5.11,0,.74-.07,1.47-.11,2.21l0,.36-.08,1.47v.58c0,1.37,0,2.61-.11,3.83l-.07.79v.29c-.09,1.13-.18,2.21-.21,3.3,0,3.14.16,6.31.34,9.38l.08,1.31c.21,3.49.23,7.49.07,12.24,0,1.67,0,3.39,0,5.16.08,2,.37,4,.62,5.78l0,.28,0,.25c.06.33.1.66.15,1l0,.34,0,.37,0,.16c.17,1.3.35,2.76.62,4.12.18.88.32,1.77.46,2.68s.32,2.07.52,3.11c.16.55.31,1.19.46,1.83l.36,1.4c.22.8.51,1.6.78,2.35l.08.23c.13.36.25.72.38,1.09.4,1.21.82,2.4,1.29,3.59.26.71.52,1.42.77,2.13a42.11,42.11,0,0,0,2,4.84c.11.18.23.36.35.54.32.45.47.67.61.91l.31.49.16.25.19.29.59,1a22.19,22.19,0,0,0,1.41,1.87l.16.2c.46.55.91,1.1,1.39,1.62l.31.3.37.37.55.55.29.26.14.14.26.23c.35.31.67.66,1,1a2.91,2.91,0,0,1,.3.31l.52.48c.34.32.69.63,1,1,.71.71,1.41,1.43,2.11,2.15l.71.67.47.45.14.13c.53.51,1,.94,1.43,1.41v-.21a8.76,8.76,0,0,0,2.34,1.95A17,17,0,0,1,46,320a5.6,5.6,0,0,1,1.25,1.36h0a.57.57,0,0,0,.08.15c.62.16,1.23.3,1.84.44l1.26.24,1.25.22c1.31.22,2.61.37,3.92.53.3,0,.6.08.89.13s.82.12,1.23.16c.56.05,1.13.08,1.69.11l.62,0,1.92.11,1.8.1,4.11.22L72,324l1.92.11,1.08.05h.2c1.84.1,3.66.2,5.51.28,1.46.06,2.93.12,4.39.14h2.48c.51,0,1,0,1.52,0l1.74.1c2.3.12,4.61.25,6.91.34,1.73.08,3.45.09,5.17.1,1.3,0,2.59,0,3.87,0s2.33,0,3.49,0h1.29c.76,0,1.52,0,2.28,0h.45l1.64.05h1.34c1.07,0,2.14,0,3.22,0s2.23,0,3.34,0h.88l1.65,0c.73,0,1.46,0,2.2,0h.58l1.89-.06c.86,0,1.67-.07,2.49-.08h.29c1,0,2.07,0,3.1.05l.5,0h.24l.6,0c.9,0,1.77.05,2.64.05h1.49c1.39,0,2.78.05,4.17.1s2.75.11,4.11.11h.17c.72,0,1.45,0,2.17,0s1.47,0,2.17,0c1.47,0,2.94,0,4.4.05.58,0,1.15,0,1.73,0,2,0,4.18-.09,5.89-.16h.2l.89,0c.81,0,1.62-.06,2.44-.09h.6l.74,0c1.67,0,3.32-.08,5-.18,1.12-.06,2.24-.09,3.37-.12l1.11,0c.79,0,1.58,0,2.37,0s1.34,0,2,0H190c.9,0,1.79-.06,2.68-.11h.19l1.34-.06c3.59-.14,6.38-.21,8.78-.22h.27l1.62,0h.82l1.62,0h1c1.14,0,2.27,0,3.4,0,1.44.07,2.88.12,4.33.15h.4c.76,0,1.5,0,2.26-.05l.66,0H220c.46,0,.93,0,1.39,0,1.23,0,2.11,0,3,.11h.29c.92.07,1.77.13,2.62.13.45,0,.91,0,1.34-.05l3.81-.28.86,0c.69,0,1.38,0,2.07.09l.78,0,1.06.06.78,0c2.25.12,4.44.23,6.63.32,1.1.05,2.2.09,3.3.09h.73l1.23,0c.67,0,1.34,0,2,0h.35l1.9,0,.51,0h1.8c.86,0,1.7,0,2.55-.06l1.41-.13.55-.06c.75-.08,1.49-.15,2.24-.2.51-.05,1-.06,1.52-.08H265c.44,0,.87,0,1.3-.06s1-.11,1.53-.18l.5-.06,1-.12c1-.11,2.08-.19,3.12-.27s2.21-.31,3.23-.49l.9-.15,1-.16.21,0c.89-.16,1.81-.31,2.73-.54l1.62-.38.25-.06.32-.08c.94-.22,1.94-.46,2.92-.64.48-.09,1-.16,1.44-.23a17.36,17.36,0,0,0,2.9-.6,4.49,4.49,0,0,1,.61-.23c1.53-.56,2.75-.95,4-1.28l1-.25c.82-.2,1.65-.4,2.46-.65.5-.2,1-.41,1.48-.63l1.39-.59c1.2-.47,2.34-1,3.5-1.53l1.82-.82.27-.12,1.16-.52a20.54,20.54,0,0,0,2.77-1.56l.75-.53.76-.52a13,13,0,0,0,2.05-1.82c.52-.57,1.07-1.1,1.62-1.63l.27-.26c.38-.36.73-.74,1.09-1.12l.13-.14.23-.24.47-.49.23-.24.57-.59.86-.88c.61-.71,1.22-1.42,1.89-2.09.51-.52,1-1,1.51-1.58a38.5,38.5,0,0,0,4.45-7.11c.25-.55.47-1.11.68-1.67l.08-.23a14.66,14.66,0,0,0,.55-1.66c.12-.58.23-1.15.37-1.7l.15-.49c.09-.28.18-.57.25-.86l.05-.21c.07-.45.14-.86.24-1.28.06-.23.13-.46.2-.7l.11-.37a22.61,22.61,0,0,0,.2-2.29l.05-.67c0-1,.14-2,.22-3l0-.55.05-.54a3.14,3.14,0,0,1,1.37-2.35c0-1.8,0-3.28-.08-4.81,0-.29,0-.58-.06-1s0-1,0-1.54,0-1.2.08-1.8.06-1,.07-1.54c0-.92,0-1.82,0-2.73l0-.49-.05-.48-.05-.49c-.12-1.12-.22-2.12-.24-3.12v-.62c0-1,0-2.06,0-3.09s.05-2.28.11-3.42v-.37c.08-1.42.12-2.54.1-3.7s-.09-2.45-.15-3.68-.12-2.38-.15-3.55,0-2.15,0-3.22c0-1.49,0-3-.06-4.48l0-.54,0-.29c-.05-.78-.1-1.51-.13-2.25-.15-3.37-.13-6.74-.1-10v-.55c0-1.85,0-3.72,0-5.58l0-.72v-1.42c0-.72,0-1.43,0-2.15s0-1.5,0-2.24v-.38l0-1.19q0-1.44.09-2.88v-.45l0-.45c0-1.38.08-2.71.08-4,0-1,0-2,0-3v-.37c0-1.36,0-2.71,0-4.07,0-.61,0-1.23.06-1.84s.05-1.41.06-2.1,0-1.45,0-2.18c0-.53,0-1.07,0-1.6,0-1.13,0-2.25,0-3.36v-.37c0-1.17.06-2.33.06-3.49v-3.91c0-1.23,0-2.46,0-3.7s0-2.6,0-3.89v-.41c0-1.19,0-2.38,0-3.58,0-.92,0-1.83-.07-2.75l0-.7,0-.2v-.27c0-1.27-.1-2.85-.08-4.34,0-1,0-2,.06-3,0-1.67.08-3.24.06-4.82,0-1.09,0-2.19,0-3.28v-.18c0-1.48.06-3,0-4.58-.07-1.32-.12-2.63-.17-3.94s-.05-2.45,0-3.64v-1.24c0-1.32,0-2.61.13-3.83.05-.45.09-.89.14-1.34l0-.19a27.43,27.43,0,0,0,.2-3.06c0-.55,0-1.1-.07-1.64v-.23c0-.59-.07-1.18-.06-1.78s0-1.34.06-2l0-.31c0-.55.06-1.09.08-1.64s0-1.37,0-2.07V106c0-.53,0-1.07,0-1.61s0-.83,0-1.25v-.31c0-.72,0-1.44,0-2.16l-.15-1.86c-.1-1.06-.18-2.05-.23-3-.09-1.52-.14-3-.19-4.59,0-1.13-.06-2.27-.08-3.4v-.4c0-1.6-.07-3.21-.17-4.87l-.09-1.75,0-.6,0-.81-.12-2.37c-.06-.85-.12-1.7-.15-2.56l-.13.21a35.53,35.53,0,0,0-.93-7.68c-.12-.56-.25-1.12-.37-1.68l-.13-.63-.06-.18c-.36-1.68-.65-3-1.06-4.25l-.17-.5-.16-.51c-.37-1-.71-2.1-1-3.15l-.52-1.62a36.72,36.72,0,0,0-3.08-7.09l-.59-1c-.47-.77-.93-1.53-1.35-2.31l-.31-.58-.11-.21c-.36-.68-.66-1.24-1-1.78s-.82-1.14-1.24-1.7l-.61-.81-.1-.14-.11-.14a12.36,12.36,0,0,0-.94-1.16l-.46-.47-.65-.67c-.54-.59-1-1.21-1.53-1.84l-.82-1-.4-.52-.17-.23c-.43-.56-.79-1-1.2-1.47l-.4-.33c-.39-.33-.79-.67-1.16-1l-.43-.4-.21-.21-.42-.41c-.26-.21-.52-.4-.78-.59l-.14-.1c-.35-.27-.59-.46-.81-.65L306,27c-.48-.42-1-.83-1.47-1.22l-.77-.53-.24-.14-.28-.2-.54-.4a14.16,14.16,0,0,0-1.65-1.12l-.66-.32-.84-.4-.28-.13a14.48,14.48,0,0,0-1.52-.58l-.52-.18L294.83,21l-.75-.27c-1-.35-2-.71-3-1a30.34,30.34,0,0,0-4.27-.32,2.91,2.91,0,0,1-2.25-1.17l-.37-.06-.46,0h-.3l-.58,0h-.21l-.31,0-.49,0c-.69.05-1.39.11-2.09.11-.36,0-.72,0-1.07-.05l-.39,0-.27,0c-.83-.08-1.58-.15-2.35-.15l-.81,0c-.77.06-1.55.11-2.32.11h-.77c-.61,0-1.2-.08-1.78-.16l-.38-.06a5,5,0,0,0-.76-.1l-1.29-.05-.71,0-.73,0-1.38,0-1.73-.1c-.82,0-1.64-.1-2.46-.11q-4.57-.08-9.15-.08h-1.29c-1.13,0-2.27,0-3.41,0l-.61,0h-.41l-1.64,0c-.53,0-1.06,0-1.58,0-1.06-.07-2.13-.12-3.21-.12h-.82l-1.66.06c-.82,0-1.57.08-2.33.08h-.26c-.91,0-1.82,0-2.73,0l-.5,0c-1.11,0-2.21-.07-3.31-.07-.5,0-1,0-1.52,0s-1.31,0-2,0c-.94,0-1.88,0-2.82-.05l-.85,0c-.45,0-.91,0-1.37,0h-.34l-.34,0h-.35l-1,0c-.67,0-1.35,0-2,0s-1.56,0-2.33-.06c-1.21-.07-2.4-.13-3.61-.13h-.47c-1.32,0-2.64.08-4,.14l-.53,0-.57,0c-.71,0-1.43.06-2.14.06-.55,0-1.1,0-1.65-.07l-.5-.05h-.21l-.27,0c-.51-.05-1-.09-1.41-.09h-.18l-1.33,0-.88,0h-.28c-.82,0-1.7-.05-2.69-.14l-1.48-.1-.86,0c-.79,0-1.57.05-2.36.1l-.45,0-.92,0-2.4.07-2,.07c-1.29.05-2.57.08-3.86.1h-.64l-3.1.07c-.83,0-1.67,0-2.5,0h-2.1l-1.33,0c-1.28,0-2.16,0-2.94-.11l-.33,0-.47,0c-1.19-.1-2.33-.19-3.48-.22h-.35c-.69,0-1.38,0-2.07-.07-.34,0-.69-.05-1-.09L156.21,17c-.86-.05-1.74-.07-2.6-.09h-.35l-1.7,0c-.56,0-1.11,0-1.66-.08-.8-.05-1.56-.1-2.31-.1H147c-1.55.06-3.05.11-4.55.11-1.32,0-2.37,0-3.29-.1-1.18-.1-2.34-.11-3.32-.11ZM125.2,83l.51,0,.29,0h.19l.73,0h.28a10.16,10.16,0,0,1,1.22.09c.7.06,1.26.11,1.82.13a18.05,18.05,0,0,1,2.71.34l.58.09.77.08c.69.07,1.35.13,2,.24.43.08.82.15,1.2.24s.69.17,1,.22a10.7,10.7,0,0,1,1.92.58l.74.27c.83.3,1.69.53,2.49.74l1,.27,1.6.45,4.17,1.16c.8.23,1.6.46,2.38.75s1.66.69,2.49,1.07L156,90a23.16,23.16,0,0,1,3.74,1.92l.69.47a23.92,23.92,0,0,0,2.94,1.78,11.72,11.72,0,0,1,2.9,1.54q.93.73,1.83,1.5l1.27,1,.16.12a10,10,0,0,1,1.41,1.2,13.45,13.45,0,0,1,.92,1.08l.23.28c.31.39.63.77,1,1.15l.13.16.16.18c.37.44.74.89,1.1,1.36a9.69,9.69,0,0,1,1.17,1.83q.19.44.36.87c.14.33.27.66.42,1,.25.53.52,1,.79,1.57s.59,1.12.85,1.71a41.38,41.38,0,0,1,2.49,7.61l.06.22a29,29,0,0,1,.75,4.35c0,.31,0,.63,0,1v.72c0,.46.06.91.11,1.37l.14.87c.1.54.19,1.07.26,1.63a13.34,13.34,0,0,1,.11,2.36c0,.81,0,1.64-.11,2.45a19.17,19.17,0,0,1-.26,2l-.07.45c-.1,1-.12,2.1-.13,3.1v1a9.41,9.41,0,0,1-.4,2.74c-.17.57-.32,1.14-.44,1.74l-.05.46a16.33,16.33,0,0,1-.4,2.55c-.25,1-.47,1.9-.69,2.86l-.06.24,0,.16c-.11.45-.19.8-.31,1.14s-.17.47-.27.71-.17.43-.26.65c-.14.38-.26.76-.37,1.14l-.07.21-.12.37c-.1.35-.21.69-.32,1-.25.71-.52,1.4-.8,2.09l-.29.76c-.14.41-.27.73-.39,1l-.07.16-.09.2a36.69,36.69,0,0,1-2,4.08c-.31.52-.63,1-1,1.55-.52.83-1,1.53-1.35,2.26a27.68,27.68,0,0,1-3,4.32,33.62,33.62,0,0,1-3.1,3.4c-.65.6-1.32,1.19-2,1.78l-.91.82-.15.13a19.13,19.13,0,0,1-3.5,2.7,25,25,0,0,1-3.27,1.4l-.82.31c-.6.26-1.18.55-1.75.84A23.2,23.2,0,0,1,150,185l-1,.27c-.5.14-1,.27-1.48.42s-.91.32-1.37.5l-.3.12-1.12.41a27.58,27.58,0,0,1-4.4.93l-1.25.21a33.82,33.82,0,0,1-3.84.52c-1.16.06-2.32.08-3.48.09h-.59c-1.23,0-2.46.06-3.65.14l-1.07.1-.36,0-.19,0-.36,0c-.85.07-1.65.14-2.44.14l-1.62.05c-.71,0-1.38,0-2,0h-.57l-1-.05-.33,0-1-.05h-.4c-.54,0-1.08,0-1.62.08l-.56,0c-.34,0-.7,0-1.08,0l-.7-.05-.16,3.42,0,.61c0,.6,0,1.21,0,1.81,0,1.17-.07,2.34-.12,3.52,0,.21,0,.42,0,.63l0,.34,0,.5c0,.64-.1,1.28-.11,1.91,0,2.09-.07,4.32-.17,6.57,0,1.15-.11,2.5-.26,3.81l-.06.54c-.06.56-.11,1-.12,1.49s0,1.13,0,1.69l0,.33A20.38,20.38,0,0,1,111,220a18.84,18.84,0,0,0,0,2.8l0,.45V224c0,.93,0,1.87-.07,2.78v.63c-.07,1.38-.13,2.82-.07,4.22,0,.71.08,1.4.15,2.11l0,.35a9,9,0,0,1,.08,1.15c0,.17,0,.34,0,.5v.72a7.91,7.91,0,0,0,.07,1l0,.22,0,.21c.06.5.11,1,.12,1.53a5.06,5.06,0,0,1-.17,1.69,4.5,4.5,0,0,1-1.86,2.53,3.7,3.7,0,0,1-1.88.5,2.43,2.43,0,0,1-.67.12l-.27,0a4.12,4.12,0,0,0-.51,0h-.56c-.34,0-.48,0-.63,0a15.32,15.32,0,0,1-2.3-.32l-.24-.05-.72-.18h-.23l-.75,0a17,17,0,0,1-1.78-.17,10.4,10.4,0,0,0-1.24-.06h-.66c-.83,0-1.59.05-2.31.11a10.84,10.84,0,0,1-1.13.06,22.31,22.31,0,0,1-3.73-.4l-.35-.06c-.33,0-.65,0-1,0-.68,0-1.38.07-2,.13l-.2,0-.25,0h-.19a2.79,2.79,0,0,1-1.71-.69,3.16,3.16,0,0,1-1.7-2.72c0-.37,0-.74-.06-1.11,0-.52,0-1-.07-1.55a9.49,9.49,0,0,1,.06-1.19l0-.47c.06-1,.16-2,.29-3l0-.2,0-.22a40.87,40.87,0,0,0,.37-5.12q0-.7-.06-1.41c0-.59-.07-1.18-.07-1.77l0-1v-.38c0-.64,0-1.27,0-1.89l0-1.15v-.16a33.58,33.58,0,0,1,0-3.49,31.19,31.19,0,0,0,0-4.45,40.43,40.43,0,0,1-.18-4.12c0-.51,0-1,.07-1.52l0-.41c0-.83.11-1.71.1-2.62,0-2.09,0-4.36,0-7.61,0-.81,0-1.61.07-2.43v-.51c0-1.51.08-3.1,0-4.64,0-.75,0-1.51-.07-2.26-.08-1.88-.15-3.88,0-5.79.08-1.64,0-3.4,0-4.69v-.35c0-.9,0-1.79,0-2.69,0-.51,0-1,0-1.54v-.38c0-.6,0-1.19,0-1.8s0-1.49,0-2.24V164c0-1.11-.07-2.23-.12-3.35v-.22c-.06-1.42-.12-2.88-.11-4.32,0-.56,0-1.11,0-1.66v-.57l0-.75v-1.3c0-1.42,0-3,0-4.48v-.19l0-.28v-.28c-.07-2.26-.14-4.82,0-7.24.11-2.12.16-4.25.21-6.38l.07-2.76c.09-2.9.17-5.81.19-8.72v-2.08c0-2.16,0-4.4,0-6.63-.08-2.55,0-5.4.21-8.68.06-1,.1-1.94.13-2.91l0-1.34c0-.6,0-1.21.08-1.81,0-.77.06-1.44.07-2.12l0-.63v-.17c0-.47,0-1,0-1.42l0-.58c0-.37,0-.71,0-1.05a22.77,22.77,0,0,1,.4-3.69l.11-.61.07-.77,0-.31a5,5,0,0,1,.16-1.1,3.34,3.34,0,0,1,2.26-2.24,2.46,2.46,0,0,1,.76-.1,3,3,0,0,1,2,.75l.26.06h.22l.43,0,.3,0,.29,0,.29,0a15.33,15.33,0,0,1,2.58-.2l.48,0h.6a10.52,10.52,0,0,1,1.51.14,20.83,20.83,0,0,0,2.63.2c.35,0,.69,0,1,0a5.63,5.63,0,0,0,.59-.14,9.51,9.51,0,0,1,1.69-.26h1.46a10.52,10.52,0,0,1,1.91-.22l.8,0h.27l1.07,0h.3c.26,0,.52,0,.78,0s.65,0,1,0h.38l.3,0,.31,0h.32c.23,0,.46,0,.69,0s.4,0,.6,0c.81-.09,1.63-.13,2.45-.16s1.51-.07,2.35-.16a14.89,14.89,0,0,1,1.64-.12h.31c.22,0,.43,0,.65,0a9.26,9.26,0,0,0,1.1.07h.33a15.54,15.54,0,0,1,2.39-.18h.43l.33,0h.81Zm122.68,40.82h0a.15.15,0,0,0,.05-.06l1,.07,1.07,0a11.18,11.18,0,0,1,1.61.14l.3.06.3.07.35.07,1.21.08c.23,0,.45.08.77.15a4.2,4.2,0,0,0,.41.1c.66.11,1.26.24,1.8.38a3,3,0,0,1,1.46-.32,5.53,5.53,0,0,1,.69,0l.16,0a6,6,0,0,1,2.52.58,3.68,3.68,0,0,1,1.81,2.22,9.26,9.26,0,0,1,.24,1.19,18.9,18.9,0,0,1,.37,2.8,16.1,16.1,0,0,1-.13,2.85v1a9.47,9.47,0,0,1-.26,1.93l-.09.38a18.43,18.43,0,0,0-.38,1.83l0,.62a6.7,6.7,0,0,1-.08.92l0,.17c-.05.8-.11,1.59-.18,2.39s-.11,1.58-.22,2.38v.29l0,.32a9.16,9.16,0,0,1,0,1.16l-.05.19s0,.13,0,.29-.07.59-.12.89a5.6,5.6,0,0,1-.06,1.19,4,4,0,0,1-.9,1.88,3.52,3.52,0,0,1-2.48,1.16l-.49,0a5.58,5.58,0,0,1-1.13-.4l-.42-.19-.57-.26-.39-.18c-.43-.2-.86-.39-1.29-.61-.84-.42-1.62-.9-2.35-1.36-.3-.17-.61-.32-.92-.46l-.19-.09-.15-.07-.25-.12-.36-.18c-.8-.41-1.53-.81-2.22-1.23a16.83,16.83,0,0,0-2.09-1l-.3-.13c-.67-.28-1.34-.57-2-.8l-.19-.05a12.4,12.4,0,0,1-1.42-.47c-.24-.09-.48-.19-.7-.26a4,4,0,0,0-.75-.12c-.57,0-1.12-.08-1.69-.14l-.55-.09-.36,0a6.11,6.11,0,0,1-.64,0h-.17l-.18,0-.5,0h-.31l-.92,0h-1.8a13.77,13.77,0,0,0-1.78.22l-.16.06-.43.15-.2.06-.38.13-.44.14-.21.06c-.25.06-.5.14-.74.21a24.14,24.14,0,0,0-2.3.9c-.18.11-.34.22-.56.38a4.44,4.44,0,0,1-.63.43l-.49.27a10,10,0,0,0-1.09.63c-.37.63-.74,1.23-1.13,1.81a13.68,13.68,0,0,0-.82,2,3,3,0,0,0-.08.41,11,11,0,0,0,.18,1.6l.26.78c.14.4.26.78.36,1.18a8.91,8.91,0,0,0,.53,1.65l.43.72.09.15.09.17a8.74,8.74,0,0,0,.78,1.27l.62.57a8.82,8.82,0,0,1,1.15,1.14c.14.17.27.36.4.53l.22.31.09.14c.07.08.13.17.2.24a10.24,10.24,0,0,0,1.46,1.09,14.59,14.59,0,0,1,1.6,1.11c.35.3.69.57,1,.85l.69.36.33.18.29.15a19.07,19.07,0,0,1,2.17,1.26,9.42,9.42,0,0,1,.86.67l.23.18c.29.25.59.5.88.73.44.22.87.42,1.3.62l.21.09,1,.47a21.51,21.51,0,0,1,2.1,1.18l.29.15a12.36,12.36,0,0,0,1.79.89l1.08.51a20.89,20.89,0,0,1,2.24,1.39l.31.22c.41.24.8.48,1.19.74l.28.22a5.92,5.92,0,0,0,.48.35c.17.12.34.24.62.46a7.36,7.36,0,0,0,.65.49l.91.66.46.35c.19.15.37.31.55.48l.48.43.82.43a14.84,14.84,0,0,1,1.38.83c.2.16.41.34.61.52l.19.17.18.16a12.13,12.13,0,0,1,2.24,1.38,12.63,12.63,0,0,1,1.58,1.6,5.17,5.17,0,0,0,.66.58l.22.17a6,6,0,0,1,.69.53l.32.28a4.28,4.28,0,0,1,.88.93c.13.22.26.44.4.63l.45.42a11.14,11.14,0,0,1,.83.85,5,5,0,0,1,.6.92c.19.31.36.57.55.86a10,10,0,0,1,1.25,2.42,13.33,13.33,0,0,1,.52,2.36c.06.5.12,1,.19,1.47a10.33,10.33,0,0,1,.38,1.69l0,.25,0,.42,0,.32.17.48.08.23a9.7,9.7,0,0,1,.5,1.82,1.29,1.29,0,0,1,0,.29l0,.34c0,.16,0,.31,0,.47a3.21,3.21,0,0,0,.05.39l0,.16c0,.2.06.41.08.62a19.39,19.39,0,0,1-.17,3.53c-.09.76-.16,1.34-.2,1.92v.95c0,.41,0,.82,0,1.25v.4l0,.41v1.21a13.79,13.79,0,0,1-.22,2.49c-.18.88-.44,1.72-.78,2.82l-.11.52-.09.43,0,.18c-.05.23-.1.46-.17.7-.16.67-.38,1.33-.6,2l-.08.22-.14.41a17.3,17.3,0,0,1-2,3.74l-.33.59c-.23.4-.47.8-.73,1.19s-.34.48-.54.74-.35.44-.5.65l-.29.46-.1.14a10.14,10.14,0,0,1-.72,1,12,12,0,0,1-1.19,1.11l-.4.34-.59.57-.88.84c-.79.73-1.61,1.37-2.41,2a13.23,13.23,0,0,1-2.5,1.46l-.46.23-.69.41-.33.2a13.74,13.74,0,0,1-3.09,1.48c-.78.23-1.57.48-2.34.75l-1.21.49c-.35.14-.7.29-1.05.42a33,33,0,0,1-6,1.49c-1.8.33-3.41.56-4.92.71a37.66,37.66,0,0,1-4,.24c-.85,0-1.69-.06-2.54-.12l-.36,0-.77-.05-.53,0h-.27l-.53,0c-.94,0-1.86-.09-2.75-.21-1.48-.2-3-.4-4.44-.66l-1.51-.27-.38-.08-.32-.06c-.54-.09-1.09-.19-1.64-.26a25.46,25.46,0,0,1-2.62-.58l-.39-.1c-.46-.11-.91-.22-1.38-.3l-.19,0-.22,0-.18,0c-.38-.08-.71-.14-1.07-.23-.94-.22-1.84-.45-2.83-.74l-.66-.19a36.93,36.93,0,0,1-4.95-1.76,4.52,4.52,0,0,1-3-3.08,4.93,4.93,0,0,1-.25-1.59v-1.51a3.26,3.26,0,0,0-.07-.6c0-.15,0-.3-.07-.45a9.85,9.85,0,0,1,0-1.41l0-.41v-.43c0-.31,0-.58,0-.85a15.65,15.65,0,0,1,.13-1.67c0-.15,0-.3,0-.48s-.05-.44-.09-.67-.09-.6-.1-.9a7.62,7.62,0,0,1,.28-2.26l.09-.25v-.2l0-.27,0-.27a6.1,6.1,0,0,1-.08-.69,10.51,10.51,0,0,1,0-1.69l-.18.11a1.69,1.69,0,0,0,.11-.64v-.33a10.66,10.66,0,0,0-.17-1.28,11.32,11.32,0,0,1-.33-1.86,13.92,13.92,0,0,1,.08-2,2.93,2.93,0,0,1,0-1.07,3.19,3.19,0,0,1,2-2.44,2.88,2.88,0,0,1,1-.18,4,4,0,0,1,1.71.42c.31.15.62.3.92.47a5,5,0,0,1,1.07.8c.9.43,1.8.83,2.7,1.22l1.26.56.72.33c.48.21.95.43,1.43.66a17.13,17.13,0,0,1,2.23,1.31,4.22,4.22,0,0,0,.45.18l.43.11.71.2.4.12c.64.18,1.3.31,2,.43l.44.08c.71.13,1.34.29,2,.48l.25.13-.1-.22,1.05.42.69.19a6.74,6.74,0,0,0,1,.17l.48.09a3.94,3.94,0,0,0,.58.06l.65.07.29,0c.28,0,.55.07.84.09h.36a9.16,9.16,0,0,1,1.46.09l-.19-.2.51.12h.88c.54,0,1.06,0,1.61-.07s.89,0,1.34,0h1.28a17.16,17.16,0,0,0,1.9-.13l.2,0,.52,0,.23,0c.33,0,.67-.05,1-.09a11.15,11.15,0,0,0,1.57-.61l1.45-.76a10.85,10.85,0,0,0,1.47-1,10.72,10.72,0,0,0,.87-1.07c.27-.53.51-1.08.74-1.61l.3-.69.11-.25.15-.35c.25-.56.5-1.12.69-1.68a8.51,8.51,0,0,0,.15-1.21,4.39,4.39,0,0,1,.1-.64l0-.17.08-.4a18.6,18.6,0,0,0-.8-2.14c-.21-.34-.43-.66-.66-1l-.49-.71-.3-.44c-.33-.49-.65-1-1-1.43l-.43-.46-.43-.46c-.74-.77-1.58-1.52-2.31-2.17l-1-.91-.27-.26-.27-.25a15.77,15.77,0,0,0-1.28-1.13l-1.51-1L230,195l-.84-.53a19.21,19.21,0,0,0-3.06-1.51l-.51-.18a13.86,13.86,0,0,1-1.51-.62,14.38,14.38,0,0,1-1.63-1l-.47-.23-.21-.11-.56-.3c-.56-.31-1.09-.66-1.63-1-.26-.15-.52-.29-.79-.42s-.77-.41-1.14-.65-.82-.53-1.22-.81l-1.09-.72-.32-.21-.85-.5c-.3-.17-.6-.34-.89-.52s-.72-.45-1.07-.68l-.26-.18-.33-.22-.16-.11-.53-.31-.59-.35a23.76,23.76,0,0,1-3-2c-.56-.46-1.14-.89-1.73-1.33s-1.4-1-2.07-1.6c-.2-.17-.39-.36-.68-.66l-.35-.35a20.28,20.28,0,0,1-1.55-1.7,12.41,12.41,0,0,1-1.34-2.29l-.31-.65a14.38,14.38,0,0,1-1.29-2.82c-.26-.86-.52-1.87-.8-3.09l-.11-.52-.1-.49c-.14-.46-.29-.92-.43-1.37l-.05-.18a20.24,20.24,0,0,1-.57-2,13.1,13.1,0,0,1-.34-1.83c0-.29-.07-.59-.1-.9s-.05-.5-.08-.74l-.07-.56-.05-.38,0-.27,0-.34v-.26c0-.25,0-.5-.07-.76a9.53,9.53,0,0,1-.17-3.49l.06-.39,0-.21,0-.3a13.83,13.83,0,0,1,.39-2.16,20.85,20.85,0,0,1,.91-2.54c.27-.58.54-1.16.82-1.74a25.92,25.92,0,0,1,1.89-3.18l.1-.15.16-.24c.27-.46.52-.93.77-1.39l.15-.28c.41-.77.82-1.54,1.28-2.28a7.79,7.79,0,0,1,.64-.87l.33-.38.33-.38a15,15,0,0,1,1.66-1.59l.46-.45a11,11,0,0,1,1.18-1c.4-.29.58-.43.75-.57l.17-.17a18.63,18.63,0,0,1,1.73-1.59l.51-.4.22-.17.26-.21.15-.12.12-.1c.23-.19.46-.38.7-.55a11.73,11.73,0,0,1,2.85-1.44l.49-.19.89-.4a10.44,10.44,0,0,1,1.72-.68c.82-.23,1.62-.52,2.42-.82.35-.13.71-.24,1.24-.39.26-.08.53-.15.78-.24a16.86,16.86,0,0,1,3.94-1l.35,0a4.52,4.52,0,0,0,.79-.09,4.54,4.54,0,0,1,.67-.15c.56-.07,1.09-.12,1.75-.14.32,0,.64,0,1-.08s.42-.05.63-.06c.41,0,.83,0,1.24,0h.78a10.94,10.94,0,0,1,1.65.13,9.67,9.67,0,0,0,1.36.12q.31,0,.63,0l.25,0h.49a9.77,9.77,0,0,1,1,.05h1.5l.94,0h.44l.85,0,.74,0a15.83,15.83,0,0,0,1.68-.13l.47-.06a30.5,30.5,0,0,1,3.38-.19Z"/><path class="cls-2" d="M116.76,108.72c-.35,0-.7,0-1.05,0h-.29c-.22,0-.41,0-.62,0h-.28l0,.91,0,.8c0,.91,0,1.82,0,2.73v.29c0,1-.07,1.91,0,2.86l0,2.75,0,2.71c0,1.37-.07,2.76-.17,4.06l0,.48,0,.52,0,.51c0,.86,0,1.73-.06,2.6v1.3c0,.68,0,1.37,0,2.06s-.06,1.43-.06,2.13,0,1.52,0,2.28v2.38c0,1.24,0,2.48,0,3.72s0,2.64,0,4v.51c0,.74,0,1.47,0,2.21v.28c0,.68,0,1.33,0,2,0,1,0,1.91-.06,2.86,0,.54,0,1.07-.06,1.6,0,.93,0,1.86-.08,2.77a1.93,1.93,0,0,0,.63.08,7.22,7.22,0,0,0,.81,0l.51,0c.8-.08,1.51-.15,2.22-.16h.57c.74,0,1.47,0,2.36.1s1.51.1,2.27.1c.42,0,.85,0,1.28-.06l1-.13.48-.08,1.73-.22c.51-.06,1-.1,1.54-.14l.36,0,.36,0,.32,0a17.55,17.55,0,0,0,2.32-.59l.48-.15c.55-.17,1.1-.33,1.64-.52s.93-.46,1.38-.71l.26-.13.86-.47a26,26,0,0,0,2.49-1.44,18.84,18.84,0,0,0,1.62-1.56l.65-.68.62-.63c.54-.55,1.08-1.1,1.57-1.69l.7-1,.29-.37c.42-.58.84-1.15,1.27-1.71l.29-.38a16.92,16.92,0,0,0,1.93-2.94c.17-.39.33-.78.51-1.17a16,16,0,0,0,1-3.2,32,32,0,0,0,0-7.19,15.89,15.89,0,0,0-.65-2.43l-.05-.16c-.2-.63-.38-1.2-.51-1.79A21.73,21.73,0,0,0,148,125c-.19-.43-.39-.86-.59-1.28l-.09-.19c-.21-.43-.41-.85-.58-1.23a9.11,9.11,0,0,0-.82-1.49c-.66-.82-1.35-1.6-2-2.37l-.76-.85a30.86,30.86,0,0,0-3.47-3.16l-.45-.36a13,13,0,0,0-2-1.21l-.75-.4-.14-.07c-.35-.19-.71-.38-1.07-.55l-.78-.3-.89-.34-.34-.14a13.3,13.3,0,0,0-1.93-.7c-.42-.12-.86-.21-1.3-.29l-.79-.16-.49-.11-.2,0-.7-.17-1-.09-.53,0-.5,0c-1.49-.11-3.09-.24-4.62-.48-.64-.06-1.29-.08-1.93-.08-.38,0-.77,0-1.15-.06h-.6l-.68,0Z"/></g></g></svg>