<svg xmlns="http://www.w3.org/2000/svg" width="171.146" height="171.274" viewBox="0 0 171.146 171.274">
  <defs>
    <style>
      .a {
        fill: #c77966;
      }

      .b {
        fill: #2c2c2c;
      }

      .c {
        fill: #99a3be;
      }

      .d {
        fill: #394172;
      }

      .e {
        fill: #ea9a00;
      }
    </style>
  </defs>
  <g>
    <path class="a" d="M162.286,46a17.929,17.929,0,0,0-2.3-2.5l2.6,4.9a10.5,10.5,0,0,0-.3-2.4Z"/>
    <path class="b" d="M92.786.3l-7.2-.3a65.654,65.654,0,0,0-7.6.4Z"/>
    <g>
      <path class="c" d="M88.086,99.1h0Zm9.1-50.7-.2.2h.2Z"/>
      <path class="c" d="M82.786,63.8h0l-.1-.3a12.476,12.476,0,0,1-1.4-6.8,98.912,98.912,0,0,0-12.1,1.1,66.338,66.338,0,0,0-5.7,7.4,15.379,15.379,0,0,1,1.9.2,12.628,12.628,0,0,1,12.4,7.8h0a43.736,43.736,0,0,1,3.9,11V84l.6,2.8c.1.6.2,1.1.3,1.6v-.2a5.067,5.067,0,0,1,.2,1.3v.1c.1,4.4,4.4,3.8,5.9,4.8,15.4-7-2.6,7.2-6.9-.5,0,.1,0,.1.1.2V94c0-.1-.1-.1-.1-.2v.1c-1.3-3.1-.7-5.9-1.1-7.6v.1a50.159,50.159,0,0,0-3.5-11.4,22.638,22.638,0,0,0-2.6-4.2h0a9.51,9.51,0,0,0-3.6-2.7h-.2a29,29,0,0,0-7.1-1.5h-1.3c-3.3,4.5-6.6,7.6-13.4,6.6-.4.2-.3.2-.4.1,37.8,61.5,61.8,33.8,69.5,9.8C107.786,96.3,83.586,99.2,82.786,63.8Zm-12.5,15.9h0l.1-.1Zm-2.6-1.6c-4,.9-3.8,2.2-5,3.6l-.1.1v0a8.635,8.635,0,0,1-1.4,1.3c0,.8-3.7,1.9-3.8-.1,1-1.3,1.2-.5,1.7-.5a6.753,6.753,0,0,1,1.4.2,4.875,4.875,0,0,1,.3-.7c-2.3.8-2.9-2.5.6-1.7a.367.367,0,0,1,.3.1c1.5-2.2,3.8-4.6,5.4-3.7h-.1a11.8,11.8,0,0,1,2-.4c6.4.8.2,2.2-1.3,1.8Zm18,26.1.3.1Zm2.3-5.1h0c7.4-3.7,9.9-2.8,13.4-4.2,1.7,20.7-39,2.5-13.4,4.2Z"/>
      <path class="c" d="M74.387,70.7Zm8.4-7h0c-.1-.2-.1-.2-.1-.3h0a.367.367,0,0,1,.1.3h0v0Zm26.8,104,2-.6a10.61,10.61,0,0,1-1.9-.4C109.686,167.1,109.586,167.4,109.586,167.7Zm-9.7-51.9a11.3,11.3,0,0,1,2.1-3.9c-6.6,3.7-14,1.8-18,.2,12.6,16.4,13.5,51.4-11.2,41.9-17.7,22.8-29.9,5.6-27.3-5.4-6.1.7-11.4,1.2-16.3,1.6a85.272,85.272,0,0,0,78.1,18.2c-2.3-5.1-6.1-21.7-9.8-53.5,1.9-2.3,2.4-.1,2.4.9Zm21.1,36.8a42.764,42.764,0,0,1-3.7-5.7C117.686,149.6,118.486,151.8,120.986,152.6Z"/>
      <path class="c" d="M82.686,89.4v0Zm25.3,60.8.6,4.2A30.341,30.341,0,0,0,107.986,150.2ZM102.586,48l2.1.9a11.065,11.065,0,0,0-3.4-2.2,5.36,5.36,0,0,1,1.3,1.3ZM77.186.4a86.353,86.353,0,0,0-38.9,13.8c4.2,5.5,3.5,14.5.8,17.1-11.9,11.5-18.7,8.6-21.1,1.8a85.555,85.555,0,0,0,7.2,113.1c11-.4,22.5.3,23.2-7.9-21.2-18.7,2.8-28.8-14.9-44.2-5-9.7,1.3-21.3,5.2-26.3-10.5-43,37.1-51,62.9-57.4a31.247,31.247,0,0,1,25.2,16.5l-.1-.5c13.1,27.7,12.9,55.5,10.9,80.3,11.9,9.3,8.7,21.9-.2,26.3,0,.3-.1.6-.1.9.4.7.9,1.3,1.3,1.9a25.117,25.117,0,0,1,9.3,7.8l.2.1a85.7,85.7,0,0,0,14.6-95.6c3.1,27.2-29.6-2.9-8-6.9a7.147,7.147,0,0,1,5.4,2,80.693,80.693,0,0,0-6-9.2c-7.1,8-17.6-6.4-14.6-15.1A86.035,86.035,0,0,0,93.986.4Zm-40.4,129.2c-8.3,29.3-33.7-8.1-18.8-14.5C30.887,110.8,36.286,122.5,36.786,129.6Zm46-65.8c0-.1,0-.1-.1-.2h0c0,.1,0,.1.1.2Z"/>
      <path class="c" d="M90.887,54.8h0ZM77.986.4l-.8.1h16.9l-1.3-.2Z"/>
    </g>
    <g>
      <path class="d" d="M82.786,63.7l-.1-.2A.349.349,0,0,1,82.786,63.7Z"/>
      <path class="d" d="M110.686,68.7l.1-.1Z"/>
      <path class="d" d="M82.686,63.4h0l.3.6-.1-.1c.8,35.4,24.9,32.5,35.2,19.2,3.3-10.4,3.6-20.1.6-21.7-7.4-1.2-9.6-8.3-13.9-12.4l-2.1-.9c4.1,5.1,2.8,15.1.9,18.9h0l-.1.1c-.1.1-.2.2-.3.2h0a1.332,1.332,0,0,1-.5.3h0l-.1-.2a5.559,5.559,0,0,1-4.5-1h0l-.1-.1c1.5-9.5-1.5-13.7-.8-17.6h-.2c-4.6,6-10.2,7.4-15.8,7.9a13.3,13.3,0,0,0,1.5,6.8Zm25.9-1.7c2.4-2.9,4.8,1.2,6.1,1.2,1.7,3.3-7-1-6.1-1.2Zm-11.4,7.9c.8-.3.7,0,1.1-.1h0a7.084,7.084,0,0,0,1.4.1h.7a10.867,10.867,0,0,0,1.3-.1h0c1.6-.1,1.6-.4,2.4-.4h1c.1-.1.2-.1.1,0,.6,0,1.2.1,1.7.1a4.29,4.29,0,0,1,2.3-2.1c.9-.1,1.1,1,.9,1a10.7,10.7,0,0,1-1.6,1.4l.8.2.6-.3a2.047,2.047,0,0,0,.8-.8c2.1.5,1.2,1.2-.1,1.7,1.1.9-1.3,1.7-4.2.3h-.6a.92.92,0,0,1-1,.1h-.4c-3.4.2-3.3.1-4.1-.6,0,.8-.1.7-.2.9h0l-.2.1-2.6.6a9.451,9.451,0,0,0-4.2,2.2h0c-6.4,4.4,2.3-5.3,3.9-4l.2-.3Zm-6.2-14.8V55l-.1-.1Zm16.8,111.4v0a33.345,33.345,0,0,0,.9-11.8c-.2-1.3-.4-2.7-.7-4.2-2.7-13.3-10.7-25.6-8-34.4-.1-1-.6-3.2-2.3-1,3.7,31.8,7.5,48.4,9.8,53.5l2.2-.6v-1a10.57,10.57,0,0,1-1.9-.5Z"/>
      <path class="d" d="M122.686,162.7a84.766,84.766,0,0,0,22.6-15.9,21.866,21.866,0,0,1-8.9-7.6c-3.8,19.7-9.8,20.3-15.4,13.3-2.5-.8-3.3-3-3.7-5.7-6.9-12.5-12.4-33.1-11.4-37.8a18.191,18.191,0,0,1-3.8,2.9,9.879,9.879,0,0,0-2.1,3.9v.4a329.457,329.457,0,0,1,8.1,34,30.341,30.341,0,0,1,.6,4.2,72.888,72.888,0,0,1,1,12.3,12.86,12.86,0,0,0,1.9.4,94.808,94.808,0,0,0,11.1-4.4Zm25.2-18.8a25.12,25.12,0,0,0-9.3-7.8A33.073,33.073,0,0,0,147.887,143.9Z"/>
      <path class="d" d="M107.986,150.2a284.745,284.745,0,0,0-8.1-34h0v-.4C97.286,124.7,105.286,136.9,107.986,150.2Zm-.3,16.1v0Zm.1-.1,1.9.6a83.863,83.863,0,0,0-1-12.3A30.816,30.816,0,0,1,107.786,166.2Zm14.9-3.5h0Z"/>
    </g>
    <g>
      <path class="a" d="M39.086,31.3c2.7-2.6,3.4-11.6-.8-17.1a83.337,83.337,0,0,0-9.4,7.2c-.1,1.2-1,2.6-1.8,2.6a4.418,4.418,0,0,1-1.6.6,86.031,86.031,0,0,0-7.5,8.5C20.387,40,27.186,42.8,39.086,31.3Z"/>
      <path class="a" d="M27.086,24.1c.8,0,1.7-1.4,1.8-2.6-1.2,1-2.3,2.1-3.4,3.2a2.451,2.451,0,0,0,1.6-.6Zm135.6,24.3-2.6-4.9a7.147,7.147,0,0,0-5.4-2C133.086,45.5,165.786,75.5,162.686,48.4Zm-8.6-14.1a83.475,83.475,0,0,0-14.6-15.1C136.486,27.9,146.987,42.3,154.086,34.3Zm-126.3,98.5h0v0Zm-9.8-17.7c-14.9,6.4,10.5,43.8,18.8,14.5C36.286,122.5,30.887,110.8,17.986,115.1Zm9.8,17.9h0l.3-2C31.186,133.4,25.786,138.4,27.786,133Z"/>
      <path class="a" d="M28.086,131a6.279,6.279,0,0,1-.3,1.9v0C25.786,138.4,31.186,133.4,28.086,131Z"/>
    </g>
    <g>
      <path class="b" d="M128.387,76h0l-.1-.1Zm-17.4,34.5h0v0Zm19.1-9.8v0Zm8.3,18.1h0v0Zm-5.8,11.9h0a.1.1,0,0,1,.1-.1Zm-.6,13.1h0v0Zm-63.7-6.4h0v0Zm-1.4,10v0Zm-3.3-22.7Z"/>
      <path class="b" d="M63.586,124.7v0Zm-3.9-25.4v0Z"/>
      <path class="b" d="M77.586,117.3Zm5.1,17.4h0v0Zm-19.2-18.3v0Zm4.8-11Zm7.4,28.8h0c0,.1,0,.2-.1.2C75.686,134.2,75.686,134.3,75.686,134.2Z"/>
      <path class="b" d="M62.686,121.6l.1-.2C62.686,121.5,62.686,121.5,62.686,121.6Zm24.9,15.3v0Zm20-92Zm28.6,79.8.1-.1C136.186,124.7,136.286,124.7,136.186,124.7Zm-4.9,20.8-.1.1ZM80.387,28l-.1.1Zm27.1,16.3v0Zm24,62.4v0Zm6.3,16.4.1-.2C137.887,123,137.786,123,137.786,123.1Zm-50,20.9h0v0Zm-32.9-33Zm34.6-61.8.1-.1Zm-1.5,93.3v0Zm42-22.6Zm-.9,1.7-.2.2Zm-2.1,6.8v0Z"/>
      <path class="b" d="M72.887,153.9c24.7,9.5,23.8-25.4,11.2-41.9,4,1.7,11.4,3.6,18-.2a8,8,0,0,1,1.3-1.3h0c1.8-1.2,1.6-1,2.5-1.6,3.8-1.7,1.8,2.6.7,2.9a7.336,7.336,0,0,1,4,4.6c.1-1.2.3-2.3.3-2.9l.1.2c-2.2-2.2-2.4-4.3-1.8-5.2,2.3-1.2,1.4,1.5,1.8,1.9v.1a7.876,7.876,0,0,1,.6,8.7l-.3,1.2c.4,4.8-.8,10,.1,11.7,5.3,4.2,5.2,10.3,5.9,14.7a42.764,42.764,0,0,0,3.7,5.7,8.109,8.109,0,0,0,4.1.2,10.969,10.969,0,0,0,6.1-4c-1.1.3-1.9-1.9.7-4.9v-.1a26.18,26.18,0,0,0-.9-5.6c-5.6-10.4,8.9-12.3,7.4-19.2v-.2l-.1-.4c0,.1.1.3.1.4-3.1-7.1-12.1-7.9-9.2-15.2v.1c.4-1,.7-2,1-3h0c-3.1-5.3-1.9-9.3.4-12.4h0c.5-.8,1-1.7,1.5-2.5h0a2.19,2.19,0,0,0,.3-2.2c-3.5-6.6-11.5-11.3-7.6-17.3,2.2-1.3.8,2,.7,2.4a8.923,8.923,0,0,0,1.2,4.5,10.766,10.766,0,0,0,1.8,2.4l.1.1c11.7,7.1,0,15,1.4,20.6,3.2,19.4,22.2,22.5,4.2,32.5l.1-.1a7.965,7.965,0,0,0-1.5,1.7v.1a8.075,8.075,0,0,0-.8,3.4,11.076,11.076,0,0,0,.2,1.9h0a27.129,27.129,0,0,1,.9,4.1h0v0c.1,1.1.2,2.1.2,3.2.3-3.7-.4-7.3,1.8-8.8a12.928,12.928,0,0,1,.4-4.4,21.353,21.353,0,0,0,2,4c0-.3.1-.6.1-.9,8.9-4.4,12.1-17,.2-26.3,1.9-24.9,2.2-52.7-10.9-80.4l.1.5a31.009,31.009,0,0,0-25.1-16.5C75.786,17,28.286,25,38.786,68c-3.9,5-10.2,16.6-5.2,26.3,17.7,15.4-6.3,25.4,14.9,44.2-.7,8.2-12.3,7.5-23.2,7.9,1.3,1.3,2.7,2.6,4.1,3.8l16.3-1.6C42.986,159.5,55.186,176.7,72.887,153.9Zm-13.2,4c-3.2-3.7,1.6-19.5-.9-23.6h0l-.1-.1a.1.1,0,0,1,.1.1c-8.9-16.1-3-34.4-12.7-49.3-.6-.9-1.3-1.8-2-2.8a28.318,28.318,0,0,1,2,2.8c14.5,20.5,14.8,46.9,13.6,72.9Zm5.9-3.2h0c-2.6,4.2-1-3.8.1-4.4-.2-6.7,1.9-10.2,2.7-12.8l-.1-.1c-.1,0-.1-.1-.2-.2l.1.1c-8.6-11.9-6-33.7-10.7-43.8,2.2.1,1.8,1.8,2.1,2.2,0-.1,0-.1-.1-.2a.367.367,0,0,1,.1.3c0,.1-.1,0-.1-.1,5.2,22.4,13.4,41.5,6.1,59Zm10.3-15-.1.1.1-.1c.3-3.6-.9-4.9-.2-5.4v-.1c.1-5.9-5.2-7.2-3.9-10.6v.1c.4-1.1.3-1,.3-.8-4.5-7.7-4.4-16.2-5-19.6a7.942,7.942,0,0,1,2.6,6c8.2,14.5,7.9,53.6,6.2,30.4Zm6.8-4.8h0a4.869,4.869,0,0,0-.1-1.2v.2a.367.367,0,0,1-.1-.3l-.1-.1.1.1a13,13,0,0,1-1.3-6.7v-.1c-.8-6.8-8.7-13.4-5.1-18,1.9-.4,1.6,1.6,1.3,2.4,3.7,9.4,6.8,19.6,6.9,26.7h0c4.3,15.1-3.3,3.6-1.6-3Zm4.9,1.9v.1c3.8,3.9,1.3,11.4.2,7.1v-.1a39.064,39.064,0,0,0-.5-4.8h0c-1.4-8.2-4.9-17.1-3.3-23.3a62.2,62.2,0,0,1,3.6,21Zm-39-63.5c.2.1,0,.1.4-.1,6.8,1,10.1-2.1,13.4-6.6-1.4-.2-.5-1.4-.2-1.4h1.2a69.2,69.2,0,0,1,5.7-7.4,97.149,97.149,0,0,1,12.1-1.1,5.87,5.87,0,0,1,2.4-4.1,32.58,32.58,0,0,1-3.9,1.6c-7.4-.5,9.7-6,10.1-7.5,3.4.4,1.2,2.2-2,3.9,3-.7,6.1-1.3,9.2-1.8l.2-.2a5.782,5.782,0,0,1,.5-1.4c-3-2.6-2.7-3.4-2.1-4,1.3.5.7,1.2.9,1.4v-.2a15.274,15.274,0,0,1,1.8,1.8,2.092,2.092,0,0,1,.4-.6,6.979,6.979,0,0,1,2.7,1.4,10.44,10.44,0,0,1,3.4,2.2,46.967,46.967,0,0,1,6.9,3.9c-3.6-5.5-8-13.5-7.7-14.4-4.5-3.2-11.9-6.2-10.5-8.4,11.9,3,15.4,14.4,20.7,22.1V52q1.05,2.55,1.5,3.9c9.7,9,8.3,19.7,2.5,27.1-7.8,24.1-31.8,51.8-69.6-9.7Zm46.1-34.6v-.2a8.8,8.8,0,0,0,.5,1.5c2.4-2.3,4,1.2,4.4,2.3,13,5.8-9.9-.8-5.9-5.2,1.4.6.7,1.4,1,1.6Zm21,85.6v0c-3.1,13-1.9-9.3-.9-10.6a3.506,3.506,0,0,0-.6-1.4c-2.1-2.9-2.5-5.4-2-7.3,1.5.6,1.3,1.3,1.2,1.5v.1a3.153,3.153,0,0,0,.5,2.3,21.689,21.689,0,0,1,1.5,2.6c0-.1-.1-.1-.1-.2,2.8,5.8-1.5,9,.4,13Zm4.3,11,.3,1.4v.1a20.582,20.582,0,0,1,.9,3.3l-.1-.3a15.054,15.054,0,0,1,.5,5.6h0v1c-1.4,6.9-6.9-20.4-3-19.5-.1.1-.1.2-.2.3,8-7.6-3.2-13.3-.1-19.6-1.7-8.2-1.9-14.4,1.3-20.2,2.6-1.8,1.5,2.1,1.3,2.8a.1.1,0,0,1,.1-.1c0,.1,0,.2-.1.2v-.1c-5.5,13.4,7.2,27.5.4,37.3l.2-.3a8.7,8.7,0,0,0-1.5,8.1Zm5.8-25.6a5.75,5.75,0,0,0,1.7,2.8c12.8,7.2-3.1,13.8-1,20v1.1c1,4.3,2.4,7.2,1.3,9.6,0-.1.1-.2.1-.3-.2.6-.3,1.3-.5,2h0c-1.9,4.4-2.9-1.7-1.6-2.8l.3-1.8v-.1c-4.5-9.5,1-15,4.1-21.1-8.9-9.6-7.7-23.5-5.1-33.7v.2a6.246,6.246,0,0,0-.3-2.7h0c-.8-3-3.2-4.1-2.1-5.7C130.086,86.7,124.186,99.8,125.786,109.7Zm-21-95.5c13.5,2.1,21.7,20.7,22.8,30.2l.1-.3c-1.3,4.9,4.9,9.8,1.4,13.4-.7,9.6,3.5,14.9,7.8,20.5v.1l-.1-.1c-.3,3.1-2.5-1.7-3.8-2l.1.1-.2-.1h.2c-10.2-14.3-4.5-36.3-16.2-49.8-16.4-15.6-39.4-4.4-12.1-12Zm-11.9,10.2h0c4.1-1.3,4.7-2.5,6-2.8,12.4,8.5,19.6,17,22.4,29.3h0V51c.1.2,0,.1.1.2v-.6c2.6,3.8,3.4,6.8,3.1,8.1a8.488,8.488,0,0,0,.9,2.2c-7.3.2-12.4-30-18.2-31.9h-.1c-7.4,3.4-4.2-7-8.4-5.5l.2-.1c-3.9,2-3.1,1.7-4.9,2.2h-.1C87.686,25.7,89.186,20.3,92.887,24.4Zm-18.8,25.7c-10.7,7.3-17,16.8-14.7,12.5v.2c2.9-11.6,19.2-17.5,25-20.8C89.586,45.1,75.387,50.5,74.086,50.1Zm1.5-9.7c-24,14.3-18.9,28.8-20.3,21.5v.2c-.8-14.9,18-22.8,25-26.8C92.986,33.5,77.887,41.9,75.586,40.4Zm2.5-10.6c-10.6,13.4-23.7,9.9-25.8,24.4h0c1.6,6.4-4.4,21.3-2.1,14.1l-.1.2c0-.1.1-.1.1-.2a2.885,2.885,0,0,0-.3-1.8l.1.2c-.3-11.4,1.4-20.8,6.1-24.8h0c2.5-2.1,3.3-2.3,4-2.3,6.5-3.3,11.1-7.2,15.3-9.7h0a17.42,17.42,0,0,1,6.5-2.6c8,0-2.9,4.8-3.8,2.5Zm-33.2,84c4-13-1.8-15.2-7.9-26.9,7.4-19,.7-51.5,21.3-54.8,3.2-6.4,7.3-6.1,9.9-5.6h-.1l-.2-.1.2.1c4.1-1.5,6.8-8.6,8.8-7.2,7.5-.7,7.2,4.1,2.3,1.9a4.465,4.465,0,0,0-2.8.6c-2.9,1.7-2.5,2.4-3.1,3.4-1.7,8.6-9.2.8-11.4,6.4h0l-.1.1v-.1c-13.1,6.4-6.9,9-13.5,12.5h0c-4.3,9.7-2.1,16.2-1.8,25.5-5.9,9.6-8.4,14.8-.4,25.1,8.6,10.1-3.9,25.6,4.2,33.6-.1-.1-.1-.2-.2-.4,7.7,9.4,2.1,24.8,2.8,30.1-8.7-6.8.2-16.1-1.9-22.4-3.2-7.9-12.2-14.8-6.1-21.8Z"/>
      <path class="b" d="M58.486,149.8a.1.1,0,0,0,.1.1Zm.7-12.6c0-.1,0,0,.1-.2C59.286,137.1,59.286,137.2,59.186,137.2Zm-4.9-1.8-.1-.1A.1.1,0,0,0,54.286,135.4Z"/>
      <path class="b" d="M54.186,135.3v0Zm6.2,12.3.1-.2A.343.343,0,0,0,60.387,147.6Zm.1-5.8.1.1Zm16.4,1.3v0Zm.1-.5v0Zm.1-6.1.1-.2a.321.321,0,0,1-.1.2Zm9.3-1.8v0Zm16.7-24,.1-.1Zm17.1,13.9.1-.2Zm7,20.6v0Zm-3.1-66.5c0-.1,0-.1-.1-.2C123.986,78.6,123.986,78.7,124.086,78.7Zm.5-29.9h0l-.1-.2-.1-.1.1.1Zm-3.3.2v0Zm-1.5-18.5-.2-.2Zm-57.8.8.1-.1Zm12.9-1.3.2-.1C74.986,29.9,74.986,30,74.887,30Zm9.1-2.7-.2-.1h-.1Zm-37.8,33.3v0Zm79,83.5v0Zm.8-3.9v0Zm-85-59.1-.1.1Zm5.9,22.6-.1-.1Zm79.6,29v0Zm-76.4-71.2Zm18.4-7.4-.2.1Zm7.4-14-.1.1A.1.1,0,0,1,75.887,40.1Z"/>
      <path class="b" d="M75.887,40.2h0Zm-.3,6.6-.2.1ZM61.086,59c-.1.1,0,.1,0,0Zm50.4-25.4v0Zm-29.3,4.1h0Zm10.8-13.4h0Zm-12.5,14.5-.2.2Zm-34.6,73.1-.1.3C45.786,112,45.786,112,45.887,111.9Zm9.8-67.4Zm-7.4-3.9.2-.1Z"/>
      <path class="b" d="M52.986,36.2l.1-.1Zm-4.5,4.3.2-.1Zm18.2-1.6h0Zm11.5-9.4Zm-15.1,10.6-.1.1A.1.1,0,0,0,63.086,40.1Zm2.4-11.5a.367.367,0,0,0,.3-.1Zm54.1,103.8v0Zm-.3-34.7v0Zm.7-4c0-.1,0-.1.1-.2Zm.4,43.3v0Zm-1.7-75.6c3,1.6,2.7,11.3-.6,21.7,5.8-7.4,7.2-18.2-2.5-27.1,1.4,4.2-1,1.4-3.9-3.1a46.967,46.967,0,0,0-6.9-3.9C109.086,53,111.286,60.2,118.686,61.4Zm-21.7-12.7a71.219,71.219,0,0,0-9.2,1.8l-4.2,2a6.24,6.24,0,0,0-2.4,4.1c5.7-.6,11.2-2,15.8-7.9Zm36.1,94.6c0,3.7-1,5.3-1.9,5.5a10.968,10.968,0,0,1-6.1,4,11.232,11.232,0,0,1-4.1-.2c5.6,7,11.6,6.4,15.4-13.3a9.667,9.667,0,0,1-1.5-4.7c-2.2,1.4-1.5,5-1.8,8.7Zm-21.7-11.2c-.9-1.7.3-6.9-.1-11.7-2.6,12-1.4,1.9-.8-4a7.594,7.594,0,0,0-4-4.6c1.1-.4,3.1-4.6-.7-2.9-1,.6-.7.4-2.5,1.6a16.094,16.094,0,0,0-1.3,1.3,15.328,15.328,0,0,0,3.8-2.9c-.9,4.7,4.5,25.3,11.4,37.8-.6-4.3-.5-10.4-5.8-14.6Z"/>
      <path class="b" d="M103.286,110.6h0Zm-.1,0-.1.1Zm-4.3-62.3a2.113,2.113,0,0,0-.4-.6h0a.781.781,0,0,1-.4-.4,10.475,10.475,0,0,1-.8,1.1v.2l1.6-.3Zm-.2-2a20.023,20.023,0,0,1,1.4,1.6,5.359,5.359,0,0,0,1.1-.5l1.5.6a15.38,15.38,0,0,0-1.2-1.3,11.068,11.068,0,0,0-2.6-.7C98.786,46.2,98.686,46.2,98.686,46.3Zm2.6,6.1v0Z"/>
      <path class="b" d="M97.186,48.6c-.7,4,2.3,8.1.8,17.6h0l.1.1a5.56,5.56,0,0,0,4.5,1c-2.4-8.4-.2-13.2-3.7-19-.5.1-1.1.2-1.7.3Zm2.9-.7c1.4,1.7,2.1,3.2,1.2,4.4,4.8,7.4,0,9.9,2.2,14.6h0c1.9-3.8,3.2-13.8-.9-18.9l-1.5-.6A3.128,3.128,0,0,1,100.086,47.9Z"/>
      <path class="b" d="M103.086,67.2h0c.1-.1.2-.2.3-.2Zm-3.3-17.9Zm-1-3.2a7.726,7.726,0,0,1,2.6.7,8.681,8.681,0,0,0-2.7-1.4c-.1.2-.3.4-.4.6l.4.4c0-.2,0-.2.1-.3Zm-1.1.9a7.838,7.838,0,0,0-.5,1.4l.8-1.1Z"/>
      <path class="b" d="M100.286,69.6Zm4.5,1h0a.769.769,0,0,0,1-.1A3.4,3.4,0,0,0,104.786,70.6Z"/>
      <path class="b" d="M100.486,69.6h0a.756.756,0,0,0-.1.4c.8.7.7.7,4.1.6h.3c-2,.1-.1-1.2.5-1.5h-1c-.8,0-.8.3-2.4.4h0a8.8,8.8,0,0,0-1.4.1Zm-30.2,10.1.1-.1-.1.1Zm10,4.7v0Z"/>
      <path class="b" d="M63.586,66.6h0a24.967,24.967,0,0,1,7.2,1.5h0l.2.1h-.1a9.51,9.51,0,0,1,3.6,2.7h0l.1.1-.1-.1a22.638,22.638,0,0,1,2.6,4.2V75c0,.1.1.1.1.2l-.1-.1a44.6,44.6,0,0,1,3.6,11.4v-.1c.4,1.7-.2,4.5,1.1,7.6,4.4,7.7,22.3-6.5,6.9.5l.2.1-.2-.1h.1c-1.5-1-5.8-.4-5.9-4.8v-.2a5.067,5.067,0,0,1-.2-1.3v.2c-.1-.6-.2-1.1-.3-1.6h0v0c-.1-.6-.1-.3-.6-2.8v.2a53.309,53.309,0,0,0-3.9-11h0a13.01,13.01,0,0,0-12.4-7.8h0c-.3,0-.9-.1-1.9-.2-.4.5-.7,1-1.1,1.5a4.477,4.477,0,0,1,1.1-.1Zm16.7,18v0Zm-15.1-19.3h0Z"/>
      <path class="b" d="M81.786,93.9a.31.31,0,0,0-.1-.2v-.1A.774.774,0,0,1,81.786,93.9Zm-4.8-19.1h0l.1.2A.31.31,0,0,0,76.986,74.8Zm5.2,11.9h0v0Zm6.6,7.7-.2-.1h-.1Zm-26.6-29.2c-.3,0-1.2,1.2.2,1.4l1-1.5A5.739,5.739,0,0,0,62.186,65.2Zm25.8,33.9h0c-25.7-1.8,15.1,16.5,13.4-4.3C97.986,96.3,95.387,95.4,87.986,99.1Z"/>
      <path class="b" d="M85.887,104.3l-.2-.1Zm62.1,39.8h0l-.1-.2Zm-9.4-8c-.5-.6-.9-1.3-1.4-1.9-.1.4-.1.8-.2,1.1l1.6.8Z"/>
      <path class="b" d="M136.387,139.2a21.872,21.872,0,0,0,8.9,7.6c.9-.9,1.8-1.8,2.7-2.8l-.1-.2a31.736,31.736,0,0,1-9.3-7.8l-1.5-.8A36.536,36.536,0,0,1,136.387,139.2Zm6.5,2.4-.1-.1Z"/>
      <path class="b" d="M134.887,134.6l.3-.2a11.351,11.351,0,0,1,1.9,1c.1-.4.1-.8.2-1.1a21.353,21.353,0,0,1-2-4A12.128,12.128,0,0,0,134.887,134.6Z"/>
      <path class="b" d="M135.186,134.4l-.3.2a12.362,12.362,0,0,0,1.5,4.7l.7-3.9A17.377,17.377,0,0,0,135.186,134.4Z"/>
    </g>
    <g>
      <path class="e" d="M61.986,31.2l-.1.1Zm6.1-4.9-.2-.1Zm-17.3,126.1v0Zm11.1-121Z"/>
      <path class="e" d="M52.986,157.9c-.6-5.3,4.9-20.7-2.8-30.1.1.1.1.3.2.4-8.2-8,4.4-23.5-4.2-33.6-8-10.3-5.5-15.6.4-25.1-.4-9.3-2.5-15.8,1.8-25.5h0c6.5-3.5.4-6.1,13.5-12.5,2.1-5.6,9.6,2.1,11.4-6.4h0c.6-1,.2-1.8,3.1-3.4h.1a4.465,4.465,0,0,1,2.8-.6h0c4.9,2.2,5.2-2.6-2.3-1.9-2-1.4-4.7,5.7-8.8,7.2h.1c-2.6-.5-6.7-.8-9.9,5.6-20.7,3.4-14,35.9-21.4,54.9,6.1,11.6,11.9,13.9,7.9,26.9h0c-6,7,2.9,14,6.2,21.7C53.186,141.8,44.286,151.1,52.986,157.9Zm-2.4-5.7.1.1a.1.1,0,0,0-.1-.1Zm.1.1v0Zm2.1-7-.1.3a.367.367,0,0,0,.1-.3Zm-4.7-45.7-.1-.1Zm17.7-71-.3.1Zm-12.7,7.5a.1.1,0,0,1-.1.1Zm-4.4,4.3-.2.1Zm-.2.1-.2.1Zm-4.8,28.4-.1-.1Zm-.3-6.8Zm-2.5,19.1.1-.1Zm4.5,43.4.1.1a.1.1,0,0,1-.1-.1Zm.4-12.5a.365.365,0,0,1,.1-.3Zm1.1-8,.1-.2Z"/>
      <path class="e" d="M46.186,60.4v0Zm7.9,74.8v.1C54.086,135.2,54.186,135.2,54.086,135.2Zm-7.2-31.3-.1.2Zm5.8,41.7c0-.1,0,0,.1-.3A.367.367,0,0,1,52.686,145.6Zm6-11.4h0c2.6,4.2-2.3,19.9,1,23.6,1.2-26,.8-52.4-13.6-73C55.786,99.8,49.786,118.1,58.686,134.2Zm-3.8-23.1Zm0,0c0-.1,0-.1-.1-.2C54.887,111,54.887,111,54.887,111.1Zm-.5,9.8Zm6.1,26.5-.1.2A.356.356,0,0,1,60.486,147.4Zm-14.4-62.5-2-2.8Z"/>
      <path class="e" d="M58.586,150a.1.1,0,0,0-.1-.1Zm.7-13c-.1.2,0,.1-.1.2C59.286,137.2,59.286,137.1,59.286,137Zm-.7-2.9.1.1Zm-1-40.5c4.6,10,2,31.8,10.6,43.8l.1.1v-.1c-.8,2.5-2.9,6-2.7,12.8l.1-.1-.1.1c-1.1.6-2.7,8.6-.1,4.4,7.3-17.5-.9-36.5-5.9-58.9-.2-.3.2-2-2-2.1Zm9.3,53.7v0Zm1.1-3,.1.1a.1.1,0,0,0-.1-.1Zm-8.3-45.2v0Zm3.9,25.7v0Zm.1-8.1-.1-.1Zm-.1-.2v0Zm0,8-.1-.1Zm-.8-3.1-.1.2Zm-1-7.8Z"/>
      <path class="e" d="M59.686,95.6v.2a.1.1,0,0,0,.1.1A.367.367,0,0,1,59.686,95.6Zm8.4,41.6.1.2Zm9.1-.9-.1.2A.31.31,0,0,0,77.186,136.3Zm-.2,6.1v0Zm-1.2-2.6.1-.1Zm-6.1-30.3v0Z"/>
      <path class="e" d="M69.686,109.5v-.2a7.942,7.942,0,0,0-2.6-6c.5,3.3.4,11.8,5,19.6.1-.1.1-.3-.3.8h0c-1.4,3.4,3.9,4.7,3.9,10.6h0c0,.1,0,0-.1.3,0-.1,0-.1.1-.2-.6.5.5,1.8.2,5.4h0v0c1.8,23.2,2-15.9-6.2-30.3Zm-1.8-2,.1.1Zm.1,0Zm4.8,13.2a.1.1,0,0,0-.1-.1C72.786,120.6,72.786,120.6,72.786,120.7Zm4.1,22.5v0Z"/>
      <path class="e" d="M84.286,137.9h0c-.1-7.1-3.2-17.3-6.9-26.7,0,.1-.1.2-.1.3l.1-.3c.3-.8.5-2.7-1.3-2.4-3.7,4.6,4.2,11.3,5,18v.1h0a13.006,13.006,0,0,0,1.3,6.7h0l.1.3v-.2a4.484,4.484,0,0,1,.1,1.1v.1c-1.6,6.5,6,18.1,1.7,3Zm-6.7-20.7Zm5.9,23.5.1.1Z"/>
      <path class="e" d="M81.186,126.9Zm-3.9-15.5c0-.1.1-.2.1-.3h0Zm10.4,32.8v0Zm-.4-5h0a26.073,26.073,0,0,1,.5,4.8v.1c1.1,4.3,3.6-3.2-.2-7.1v-.1a57.639,57.639,0,0,0-3.6-21C82.387,122.1,85.887,131,87.286,139.2Zm.7,3.5v0Zm-.6-3.3v0Z"/>
      <path class="e" d="M86.387,134.6v0Zm-2.4-107.3-.3-.1h.1Zm-8.9,2.7-.2.1Zm-15,9.7h0Zm-7.7,10.4v0Z"/>
      <path class="e" d="M75.186,29.9h0c-4.2,2.5-8.8,6.4-15.3,9.7h-.1c-.6-.1-1.4.2-4,2.3h0c-4.7,3.9-6.4,13.4-6.1,24.8,0-.1-.1-.1-.1-.2a3.661,3.661,0,0,1,.4,1.8v0c0,.1,0,.1-.1.2l.1-.2c-2.4,7.2,3.7-7.7,2.1-14.1h0c2.1-14.6,15.2-11,25.8-24.4.9,2.3,11.8-2.5,3.7-2.5a17.67,17.67,0,0,0-6.4,2.6Zm-25.1,31.5Zm2.3-11.1v0Zm10.6-10.1.1-.1C63.086,40.2,63.086,40.2,62.986,40.2Zm17.2-12.1.1-.1Z"/>
      <path class="e" d="M80.286,35.2c-7,4-25.8,11.9-25,26.8v-.2c1.4,7.3-3.7-7.2,20.3-21.5C77.887,41.9,92.986,33.5,80.286,35.2Zm-23.4,19.3Zm18.9-14.3.1-.1A.1.1,0,0,0,75.786,40.2Zm1.7-3,.2-.1Zm2.8,1.9.2-.2a.216.216,0,0,0-.2.2Z"/>
      <path class="e" d="M77.686,37.2l-.2.1Zm6.7,4.7c-5.8,3.3-22.1,9.2-25,20.8v-.2c-2.4,4.4,4-5.1,14.7-12.5C75.387,50.5,89.586,45.1,84.387,41.9Zm-16.1,12.3.2-.1Zm7.1-7.2.2-.1Z"/>
      <path class="e" d="M89.887,46.5c-.4,1.6-17.5,7-10.1,7.5-.2.1,1.6-.6,3.9-1.6a13.523,13.523,0,0,1,4.2-2c3.2-1.7,5.4-3.5,2-3.9Zm-.3,2.6-.1.1Z"/>
      <path class="e" d="M83.586,52.5l4.2-2A11.615,11.615,0,0,0,83.586,52.5Zm41-3.8-.1-.2Zm4.4,8.9h0c.1-.2.1-.2.1-.3C129.086,57.4,128.986,57.5,128.986,57.6Z"/>
      <path class="e" d="M116.887,26.2h0c11.7,13.6,6,35.5,16.2,49.8,1.3.3,3.4,5.1,3.8,2-4.3-5.6-8.5-10.9-7.8-20.5l-.1.1a.367.367,0,0,1,.1-.3v.2c3.5-3.7-2.7-8.5-1.4-13.4l-.1.3c-1.1-9.5-9.4-28.1-22.8-30.2C77.486,21.8,100.486,10.6,116.887,26.2Zm14.7,46.6-.1-.1Zm-2.2-6.5-.1-.1Zm-1.4-14Zm-11.2-26.2-.1-.1Z"/>
      <path class="e" d="M136.887,77.9h0l.1.2Zm-12.4-29.3-.1-.1C124.387,48.4,124.387,48.4,124.486,48.6Zm8.7,27.6-.1-.1h-.2Zm-1.3,67.7Zm6.5-24.9v0Zm-7.3,19.2v0Zm-2.7-62.3-.1-.1Zm4.5,64.2h0v0Zm-.7-56.5h0v0Zm-.5,50.5h0v0Zm-5.1-60.5-.1-.2a.1.1,0,0,0-.1-.1l.2.3Z"/>
      <path class="e" d="M131.586,148.3h0a10.815,10.815,0,0,0,1.5-5c0-1.1-.1-2.1-.2-3.2a27.13,27.13,0,0,0-.9-4.1h0a6.154,6.154,0,0,1-.2-1.9h0v0a7.734,7.734,0,0,1,.8-3.4l.1-.1-.1.1a7.965,7.965,0,0,1,1.5-1.7l-.1.1c18-10-1-13.1-4.2-32.5-1.4-5.6,10.3-13.6-1.4-20.6h0l-.2-.2a10.766,10.766,0,0,1-1.8-2.4l.1.2a.349.349,0,0,0-.1-.2.1.1,0,0,0,.1.1,8.923,8.923,0,0,1-1.2-4.5h0c.1-.5,1.6-3.8-.7-2.4-3.9,5.9,4.1,10.7,7.6,17.3v-.1c0,.1,0,.2.1.2l-.1-.1a2.305,2.305,0,0,1-.2,2.4h0c-.5.8-1,1.7-1.5,2.5h0c-2.3,3.1-3.5,7-.4,12.4v-.1c-.3,1-.6,2-1,3V104c-2.9,7.2,6.2,8.1,9.2,15.2,0-.2-.1-.3-.1-.4l.1.4c0,.2,0,.1.1.4v-.2c1.6,7-12.9,8.9-7.4,19.3v0a26.18,26.18,0,0,1,.9,5.6v-.1c0,.1,0,.1-.1.2h0c-2.6,3-1.8,5.2-.7,4.9a1.756,1.756,0,0,1,.4-.5l.1-.5Zm-1.2-68.2.1.1Zm1.1,26.4v0Zm.5,1.6.1.1c-.1,0-.1,0-.1-.1Zm1.3,1.7.2.2Zm4.6,13.1c0,.1-.1.1-.1.2,0-.1.1-.1.1-.2Zm-1.6,1.7-.1.1Zm-5.1,21a.1.1,0,0,1,.1-.1Z"/>
      <path class="e" d="M133.086,143.3a10.815,10.815,0,0,1-1.5,5h0a1,1,0,0,1-.4.5C132.086,148.6,133.086,147,133.086,143.3Zm-5.6-30.6a.1.1,0,0,0-.1-.1h0Zm-1.8,29.4h0c0,.1,0,.1-.1.2C125.686,142.3,125.686,142.2,125.686,142.1Zm1.5,3v0Zm-1.4-35.2v0Z"/>
      <path class="e" d="M124.686,82.9h0a12.413,12.413,0,0,1,.3,2.7v-.2c-2.6,10.2-3.8,24.1,5.1,33.7-3.1,6.1-8.6,11.6-4.1,21.1v.1a5.663,5.663,0,0,1-.3,1.8h0c0,.1-.1.2-.1.3,0-.1,0-.1.1-.2-1.3,1.2-.2,7.3,1.6,2.8.2-.7.3-1.3.5-2,0,.1-.1.2-.1.3,1.1-2.4-.3-5.3-1.3-9.6v-1.1c-2.2-6.2,13.8-12.9,1-20l.1.1-.1-.2h.1a8.108,8.108,0,0,1-1.7-2.8v0h0c-1.6-10,4.3-23.1-3.2-32.5-1.1,1.7,1.3,2.8,2.1,5.7Zm.1,19.1Zm.4,42.2v0Zm1.8-15.6v0Zm2-6.7c.1-.1,0,0,.2-.3-.1.1-.2.2-.2.3Zm-3.8-28.9v0Zm-4.9,31.5c-.1.2-.1.1-.1.2Z"/>
      <path class="e" d="M120.986,90.2c.2-.7,1.3-4.6-1.3-2.8-3.3,5.8-3,12-1.3,20.2h0c-3.1,6.3,8.1,12,.1,19.6l.2-.3c-3.9-.9,1.6,26.5,3,19.5v-1a15.054,15.054,0,0,0-.5-5.6l.1.3a24.4,24.4,0,0,0-.9-3.3v.1c0-.1,0-.1-.1-.3v.1l-.3-1.4v.2c0-.1,0-.2-.1-.2h0a9.079,9.079,0,0,1,1.6-8.1l-.2.3c7-9.7-5.7-23.8-.3-37.3Zm-1,3.4c0,.1,0,.1-.1.2Zm-.7,4.3v0Zm.3,34.6v0Z"/>
      <path class="e" d="M120.387,136.9v0Zm.7-46.8a.1.1,0,0,1-.1.1v.1C121.086,90.3,121.086,90.2,121.086,90.1Zm-1.1,45.4v0Zm-5.3-21.8h0v0Zm1,10.6h0v0Zm-1.9-15.3h0l-.1-.2Z"/>
      <path class="e" d="M115.286,111.3a.348.348,0,0,1,.1.2c-.3-.5-.3-.4-1.5-2.6v.1l-.1-.2.1.1a3.711,3.711,0,0,1-.5-2.3v-.1c.1-.1.2-.9-1.2-1.5-.6,1.8-.1,4.3,2,7.3v-.1a.349.349,0,0,1,.1.2.1.1,0,0,0-.1-.1l.6,1.4v0c-1,1.3-2.2,23.6.9,10.7-1.9-4,2.4-7.3-.4-13.1Z"/>
      <path class="e" d="M114.086,112.2h0l.1.2A.308.308,0,0,1,114.086,112.2Zm-2.6,7,.1-.1V119C111.586,119.1,111.586,119.2,111.486,119.2Z"/>
      <path class="e" d="M111.586,119.1l-.1.1.1-.1a7.706,7.706,0,0,0-.6-8.7v.1c0-.1-.1-.1-.1-.2v.1c-.4-.3.5-3-1.8-1.9-.5.9-.4,3,1.9,5.1l-.1-.2c-.1.6-.2,1.7-.3,2.9a17.735,17.735,0,0,1,.8,4,7.5,7.5,0,0,1,.2-1.2Z"/>
      <path class="e" d="M111.286,120.4a13.545,13.545,0,0,0-.8-4C109.887,122.3,108.786,132.4,111.286,120.4Zm13-61.7h0c0-.1-.1-.2-.1-.4C124.286,58.4,124.286,58.5,124.286,58.7Z"/>
      <path class="e" d="M93.887,25.5c1.7-.5,1-.2,4.9-2.2l-.2.1c4.2-1.5,1,8.9,8.4,5.5h.1c5.7,1.9,10.9,32.1,18.2,31.9a8.486,8.486,0,0,1-.9-2.2h0c0-.1-.1-.2-.1-.4,0,.1.1.2.1.4.3-1.3-.5-4.3-3.1-8.1v.3c-2.8-12.4-10-20.8-22.4-29.3-1.4.3-1.9,1.5-6,2.8h-.1C89.186,20.3,87.686,25.7,93.887,25.5Zm17.7,8.3v0Zm-10.9-9.5-.1-.1Z"/>
      <path class="e" d="M93.887,25.5Zm27.4,23.7v0Zm-7.2,2.8h0c-5.3-7.6-8.8-19-20.7-22-1.4,2.2,6,5.2,10.5,8.4-.3.9,4.2,8.9,7.7,14.4a29.493,29.493,0,0,1,3.9,3.1A27.817,27.817,0,0,0,114.086,52Zm-6.6-7.5v0Z"/>
      <path class="e" d="M115.586,55.9a29.483,29.483,0,0,0-3.9-3.1C114.586,57.3,116.887,60.1,115.586,55.9Zm-16-13.5-.1-.1Z"/>
      <path class="e" d="M99.586,42.3l.1.1-.1-.1c-.5-1-2-4.5-4.5-2.3a8.979,8.979,0,0,1-.5-1.5v.2c-.3-.2.4-1-1-1.6C89.686,41.5,112.486,48.1,99.586,42.3Zm.5.7-.1-.1Zm-2.9-1.9-.1-.1Zm-.7-.3h0Zm6.1,26.7h0a3.208,3.208,0,0,0,.5-.3l-.5.1Zm-6.1-23.3v.2c-.2-.2.4-.9-.9-1.4-.6.7-.9,1.4,2.1,4l.6-1a15.363,15.363,0,0,0-1.8-1.8Zm2.2,2.1-.6,1c.1.1.3.2.4.4h0a2.092,2.092,0,0,0,.4.6,5.638,5.638,0,0,0,1.2-.4l-1.4-1.6Z"/>
      <path class="e" d="M101.286,52.3h0c.8-1.2.2-2.7-1.2-4.4-.4.1-.8.3-1.2.4,3.4,5.9,1.3,10.7,3.7,19l.5-.1.3-.2.1-.1c-2.1-4.7,2.6-7.2-2.2-14.6Zm1.3,12c0,.1.1.1.1.2Zm-3.9-18-.4-.4-.6,1,.3.3A3.114,3.114,0,0,0,98.686,46.3Z"/>
    </g>
    <g>
      <path class="b" d="M114.686,62.9c-1.4,0-3.7-4.1-6.1-1.2C107.686,61.9,116.286,66.2,114.686,62.9Zm-3.8,0h0Zm-17.6,10.7.1-.1Z"/>
      <path class="b" d="M93.286,73.6h0a11.3,11.3,0,0,1,4.2-2.2h0c.1,0,.2,0,.2-.1h-.2a19.969,19.969,0,0,0,2.6-.5h0c.1,0,.1,0,.2-.1h-.1c.1-.2.1,0,.2-.9-.2-.1-.4-.3-.6-.4h0a6.15,6.15,0,0,1-1.4-.1h0c-.4.1-.3-.2-1.1.1-1.7-1.1-10.4,8.6-4,4.2Zm.1-.1-.1.1Z"/>
      <path class="b" d="M100.387,69.6h-.5c.2.1.4.3.6.4C100.387,69.9,100.387,69.8,100.387,69.6Z"/>
      <path class="b" d="M105.786,70.5h.7c2.9,1.4,5.3.6,4.2-.3-1.5.6-3.5.7-1.4-.6-.2-.1-.5-.1-.8-.2-1.7,1.3-2.1.7-1.6-.2a9.15,9.15,0,0,0-1.7-.1c.1-.1,0-.1-.1,0,1.9.1,1.4,1,.7,1.4Z"/>
      <path class="b" d="M104.686,70.6h0c.4,0,.7-.1,1.1-.1.7-.4,1.2-1.3-.6-1.4C104.586,69.4,102.686,70.7,104.686,70.6Zm5.5-2.5c.2,0,0-1.1-.9-1a4.71,4.71,0,0,0-2.3,2.1,9.005,9.005,0,0,1,1.6.3c.5-.5,1.1-.9,1.6-1.4Z"/>
      <path class="b" d="M108.586,69.5l-1.6-.3C106.486,70.2,106.887,70.8,108.586,69.5Zm2.2-1a3.044,3.044,0,0,1-.8.8.1.1,0,0,0,.1-.1c-.1,0-.1.1-.2.1h0l-.6.3a4.235,4.235,0,0,1,1.4.6C111.887,69.8,112.887,69,110.786,68.5Zm0,.1-.1.1Z"/>
      <path class="b" d="M110.086,69.2c-.1,0-.1,0-.1.1h0A.1.1,0,0,1,110.086,69.2Zm.6,1a3.506,3.506,0,0,0-1.4-.6C107.186,70.9,109.186,70.8,110.686,70.2Z"/>
      <path class="b" d="M68.986,76.2a14.159,14.159,0,0,0-2,.4h.1c-1.6-.8-3.9,1.6-5.4,3.7.5.2.5.6.6.6a3.766,3.766,0,0,1-1.5.9c-.1.2-.2.5-.3.7.5.1.7.3.7.5.5-.4.9-.9,1.4-1.3l.1-.1c1.3-1.4,1-2.7,5-3.6h0c1.5.5,7.7-.9,1.3-1.8Z"/>
      <path class="b" d="M61.486,80.2c-3.5-.8-2.9,2.4-.6,1.7l.9-1.6c-.1,0-.2-.1-.3-.1Z"/>
      <path class="b" d="M61.786,80.3a8.217,8.217,0,0,0-.9,1.6,3.766,3.766,0,0,0,1.5-.9C62.286,80.9,62.286,80.5,61.786,80.3Zm-1.3,2.3a5.9,5.9,0,0,0-1.4-.2c-.6,0-.8-.8-1.7.5.1,2,3.8.9,3.8.1-.8.7-.9.4-.7-.4Z"/>
      <path class="b" d="M60.486,82.6c-.3.8-.1,1.1.7.5C61.186,82.9,60.986,82.7,60.486,82.6Z"/>
    </g>
  </g>
</svg>
