<svg xmlns="http://www.w3.org/2000/svg" viewBox="0 0 286 281.8" xmlns:v="https://vecta.io/nano"><path d="M0 0h286v281.7H0z" fill="#9aa4bd"/><g fill="#fefefe"><path d="M260.4 252.3H257c-.4 0-.7 0-1.1.1l-.5.1h-.7c-.3 0-.5.1-.8.3-.6.1-.9.6-.9 1.2v1.9c0 .3 0 .6-.1.8 0 .3-.1.6-.1.9v6.8c0 .5 0 1 .1 1.4a.76.76 0 0 0 .2.4c.2.3.5.5.8.6s.5.1.8.1h9.2c.5 0 1-.3 1.2-.7.1-.2.2-.5.2-.8v-2.6c0-.3 0-.7-.1-1v.1-.2c-.1-.5-.1-1.1-.1-1.6 0-.3 0-.6-.1-1l-.1-.4c-.1-.7 0-1.4-.1-2.1v-1.9c0-.4 0-.8-.1-1.1 0-.1 0-.2-.1-.3-.1-.2-.2-.4-.4-.6s-.4-.3-.6-.4c-.3-.1-.6-.1-.9-.1h-.9c-.3 0-.6-.1-.9-.1h-.2c.2.1-.1.1-.3.2h0zm-1.7 2.5h1.4c.5-.1.9-.1 1.4-.1.4.1.7.1 1.1.1h.1v3.5c0 .5.1.9.2 1.4v1c0 .5.1.9.1 1.4v2.5h-7.7v-4.7l.1-2.9c0-.5.1-1 .1-1.5v-.6c.3 0 .6-.1.9-.1h2.3zm-3.3 10.4h0zm7.7-3v-.1.1zm0-.1s0-.1 0 0v-.2c0 0 0 .1 0 .2h0z"/><path d="M258.1 265.6l-.9 1.8-.9 1.9-1.7 3.6c-.3.6-.5 1.3-.7 2-.1.2-.1.5 0 .7.1.3.3.6.6.8.5.2 1 .2 1.5-.1.3-.2.6-.4.9-.7.5-.4 1.1-.8 1.6-1.3l1.7-1.5c.3-.2.5-.5.8-.8s.4-.4.6-.7c.4-.5.9-1 1.3-1.6l-.2.2.3-.3c.2-.3.5-.6.7-.9.3-.3.4-.4.5-.7l.8-.8c.2-.3.2-.6.1-.9s-.3-.6-.6-.7c-.3-.2-.6-.2-.9-.1-.2.1-.5.2-.6.4h0s0-.1.1-.1l-.1.1c-.3.2-.5.5-.7.8l.1-.2c-.4.5-.9 1-1.3 1.6l.1-.1c-.1.2-.3.4-.4.6l.2-.3c-.3.4-.6.8-1 1.2l-1.2 1.3-.6.6 2.3-4.6c.3-.6.1-1.3-.4-1.7-.2-.1-.4-.2-.6-.2-.8.1-1.2.4-1.4.7h0zm4.8.3l-.1.1.1-.1z"/><path d="M256.3 253.8c-.1.1-.2.2-.4.3-.2.2-.4.4-.5.7-.1.2-.2.4-.2.6l-.1.1c-.2.2-.4.4-.5.6-.1.3-.2.6-.2.9v2.5c0 .2 0 .4.1.5 0 .3-.1.6-.2.9l-.3 1.8c-.1.4-.1.7-.2 1.1v.9c.3 1.1 1.4 1.7 2.4 1.4h.2c.4-.1.7-.4 1-.7.2-.2.3-.4.4-.7h.4l.3.3c.1.1.3.2.5.2a1.1 1.1 0 0 0 .8 0c.1 0 .2-.1.3-.1a.76.76 0 0 1 .2.4c.1.1.1.3.1.4s-.1.2-.2.2h0l-.8 1.1.2-.3-.4.5c-.3.3-.6.7-.9 1s-.6.7-.9 1.1h0l-.9 1.2c-.2.3-.2.6-.1.9s.3.6.6.7c.3.2.6.2.9.1s.6-.3.7-.6l.5-.6c.1-.1.2-.3.3-.4l1.9-2.3c.1-.2.3-.4.4-.6s.2-.3.3-.5c.1-.1.3-.4.4-.5-.1-.5.1-1.1.4-1.5.2-.5.3-1 .3-1.5V262l.2-3.2c0-.5.1-1.1.1-1.6v-1.9c-.1-.6-.7-1.1-1.3-1.1-.2 0-.4 0-.6.1-.1-.2-.2-.4-.4-.6-.5-.5-1.1-.4-1.8-.4h-1.1l-.4-.1c-.3-.1-.5-.1-.8-.2h0c.1.2-.3.4-.7.8h0zm3.2 17.6h0zm16.4-19.1h-3.3c-.4 0-.7 0-1.1.1-.2 0-.3.1-.5.1h-.7c-.3 0-.5.1-.8.3-.6.1-.9.6-.9 1.2v1.9c0 .3 0 .6-.1.8 0 .3 0 .6-.1.9v6.8c0 .5 0 1 .1 1.4 0 .2.1.3.2.4.2.3.5.5.8.6s.5.1.8.1h9.2c.5 0 1-.3 1.2-.7.1-.2.2-.5.2-.8v-2.6c0-.3 0-.7-.1-1v.1-.2c-.1-.5-.1-1.1-.1-1.6 0-.3 0-.6-.1-1 0-.1 0-.3-.1-.4-.1-.7-.1-1.4-.1-2.1v-1.9c0-.4 0-.8-.1-1.1 0-.1 0-.2-.1-.3-.1-.2-.2-.4-.4-.6s-.4-.3-.6-.4c-.3-.1-.6-.1-.9-.1h-.8c-.3 0-.6-.1-.9-.1h-.2c0 .1-.3.1-.5.2h0zm-1.7 2.5h1.4c.5-.1.9-.1 1.4-.1.4.1.7.1 1.1.1h.1v3.5c0 .5.1.9.2 1.4v1c0 .5 0 .9.1 1.4v2.6h-7.7V260l.1-2.9c0-.5.1-1 .1-1.5v-.6c.3 0 .6-.1.9-.1h1l1.3-.1zm-3.3 10.4h0zm7.7-3v-.1.1zm0-.1s0-.1 0 0v-.2.2z"/><path d="M273.6 265.6l-.9 1.8-.9 1.9-1.7 3.6c-.3.6-.5 1.3-.7 2-.1.2-.1.5 0 .7.1.3.3.6.6.8.5.2 1 .2 1.5-.1.3-.2.6-.4.9-.7.5-.4 1.1-.8 1.6-1.3l1.6-1.5c.3-.2.5-.5.8-.8s.4-.4.6-.7c.4-.5.9-1 1.3-1.6l-.2.2.3-.3c.2-.3.5-.6.7-.9.3-.3.4-.4.5-.7l.8-.8c.2-.3.2-.6.1-.9-.2-.7-.9-1-1.5-.9-.2.1-.5.2-.6.4h0s0-.1.1-.1l-.1.1c-.3.2-.5.5-.7.7l.1-.2c-.4.5-.9 1-1.3 1.6l.1-.1-.2.3c-.3.4-.6.8-1 1.2l-1.2 1.3-.6.6c.2-.3.3-.6.5-1l1.8-3.6c.3-.6.1-1.3-.5-1.7-.2-.1-.4-.2-.6-.2-.6.3-1 .5-1.2.9h0zm4.8.3l-.1.1.1-.1z"/><path d="M271.8 253.8c-.1.1-.2.2-.4.3-.2.2-.4.4-.5.7-.1.2-.2.4-.2.6l-.1.1c-.2.2-.4.4-.5.6-.1.3-.2.6-.2.9v2.5c0 .2 0 .4.1.5-.1.3-.1.6-.2.9l-.3 1.8c-.1.4-.1.7-.2 1.1 0 .3 0 .6.1.9.1.5.4.9.8 1.1a1.68 1.68 0 0 0 1.8.2c.4-.1.7-.4 1-.7.2-.2.3-.4.4-.7h.4l.3.3c.1.1.3.2.5.2.2.1.5.1.8 0 .1 0 .2-.1.3-.1a.76.76 0 0 1 .2.4c.1.1.1.3.1.4-.1.1-.1.2-.2.2h0l-.8 1.1.2-.3-.4.5c-.3.3-.6.7-.9 1s-.6.7-.9 1.1h0l-.9 1.2c-.2.3-.2.6-.1.9s.3.6.6.7c.3.2.6.2.9.1s.6-.3.7-.6l.5-.6c.1-.1.2-.3.3-.4l1.9-2.3c.1-.2.3-.4.4-.6s.2-.3.3-.5c.1-.1.3-.4.4-.5.3-.4.4-.9.3-1.4 0-.1.1-.1.1-.2.2-.5.3-1 .3-1.5v-1.9l.2-3.2c0-.5.1-1.1.1-1.6v-1.9c-.1-.6-.7-1.1-1.3-1.1-.2 0-.4 0-.6.1-.1-.2-.2-.4-.4-.6-.5-.5-1.1-.4-1.8-.4h-1.1l-.4-.1c-.3-.1-.5-.1-.8-.2h0c0 .4-.4.6-.8 1h0zm3.2 17.6h0zM27.3 31.6c.7-.1 1.4-.1 2-.1h1.6c.4 0 .8 0 1.1-.1l.6-.1h.8c.3 0 .6-.1.8-.3.6-.1 1-.7 1-1.3v-2c0-.3 0-.6.1-.9 0-.3.1-.6.1-1 .1-1.2 0-2.5 0-3.8v-3.7c.1-.5 0-1.1-.1-1.6 0-.2-.1-.3-.2-.5-.2-.3-.5-.6-.9-.7-.3-.1-.6-.1-.9-.1h-10c-.6 0-1.1.3-1.4.8-.1.3-.2.6-.2.9v2.8c0 .4 0 .7.1 1.1v.2c.1.6.1 1.2.1 1.7V24c0 .1.1.3.1.4.1.8.1 1.6.1 2.3v2c0 .4 0 .8.1 1.2 0 .1.1.2.1.3.1.3.2.5.4.7s.4.3.7.4.7.1 1 .1h1c.3 0 .6.1.9.1h.2c.1.2.4.2.8.1h0zm1.8-2.7h-1.6c-.5.1-1 .1-1.5.1-.4-.1-.8-.1-1.2-.1h-.1V25c0-.5-.1-1-.2-1.5v-1c0-.5 0-1-.1-1.5v-2.8h8.4v5.1l-.1 3.2c0 .5-.1 1.1-.1 1.6v.6c-.3 0-.6.1-.9.2s-.8 0-1.1 0h-1.5zm3.6-11.4h0zm-8.4 3.2v.1-.1zm0 .2v.2-.2z"/><path d="M29.8 17c.3-.6.7-1.3.9-1.9l1-2 1.8-4c.3-.7.6-1.4.7-2.1a1.1 1.1 0 0 0 0-.8c-.1-.4-.3-.7-.6-.8-.5-.3-1.1-.2-1.6.1-.3.2-.7.4-1 .7a11.51 11.51 0 0 0-1.7 1.4l-1.8 1.7c-.3.2-.5.5-.8.7l-.7.7-1.4 1.7.2-.3c-.1.1-.2.2-.3.4v-.1c-.3.3-.5.7-.8 1s-.4.5-.6.7l-.3.3c-.1.1-.2.1-.2.2a1.38 1.38 0 0 0-.3.4c-.2.3-.2.7-.1 1s.3.6.6.8.7.2 1 .1.5-.2.7-.5h0l-.1.1c0-.1.1-.1.1-.1h0c.3-.2.5-.5.8-.8l-.1.4 1.4-1.7-.1.1.5-.6-.2.2c.3-.4.7-.9 1.1-1.3l1.4-1.4c.2-.2.4-.4.7-.6l-.5 1.1c-.3.7-.7 1.3-1 1.9s-.6 1.3-1 1.9-.2 1.5.5 1.8c.6.5 1.4.3 1.8-.4h0zm-5.3-.3c0-.1.1-.1.1-.2s0 0 0 0l-.1.2z"/><path d="M31.7 29.9c.1-.1.2-.3.4-.4.2-.2.4-.5.6-.8.1-.2.2-.4.2-.6l.1-.1c.2-.2.4-.4.5-.7l.3-1v-2.7c0-.2 0-.4-.1-.6.1-.3.1-.7.2-1l.3-1.9c.1-.4.1-.8.2-1.2.1-.3 0-.7 0-1-.1-.5-.4-.9-.9-1.2-.6-.4-1.3-.5-2-.3-.4.2-.8.4-1.1.7-.2.2-.4.5-.5.8h-.5l-.3-.3c-.2-.1-.3-.2-.5-.3-.3-.1-.6-.1-.8 0-.1 0-.2.1-.4.1-.1-.1-.2-.3-.3-.5s-.1-.3-.1-.5l.2-.3c.3-.4.6-.8.8-1.2l-.2.3.4-.5.9-1.1c.3-.4.7-.8 1-1.2h0l1-1.3c.2-.3.2-.7.1-1s-.3-.6-.6-.8-.7-.2-1-.1-.6.3-.8.6c-.2.2-.3.5-.5.7l-.3.6-2.1 2.5c-.2.2-.3.4-.5.6-.1.2-.2.3-.3.5l-.5.6c-.3.4-.4 1-.3 1.5 0 .1-.1.1-.1.2-.2.5-.3 1.1-.3 1.7v2.1c-.2 1.2-.2 2.4-.3 3.5 0 .6-.1 1.2-.1 1.8 0 .3 0 .6-.1.9v1.1c.2.7.8 1.2 1.5 1.2.2 0 .4 0 .6-.1.1.2.2.4.4.6.5.5 1.3.4 1.9.4H29l.4.1c.3.1.6.2.9.2h.1c.5 0 1-.2 1.3-.6h0zm-3.4-19.2l.1-.1-.1.1zm-18 20.9c.7-.1 1.4-.1 2-.1h1.6c.4 0 .8 0 1.1-.1l.6-.1h.8c.3 0 .6-.1.8-.3.6-.1 1-.7 1-1.3 0-.7 0-1.4-.1-2 0-.3 0-.6.1-.9 0-.3.1-.6.1-1 .1-1.2 0-2.5 0-3.8v-3.7c.1-.5 0-1.1-.1-1.6-.1-.2-.1-.3-.2-.5-.2-.3-.5-.6-.9-.7-.3-.1-.6-.1-.9-.1h-10c-.6 0-1.1.3-1.4.8-.1.3-.2.6-.2.9V20c0 .4 0 .7.1 1.1V21v.2c.1.6.1 1.2.1 1.7V24l.2.5v4.3c0 .4 0 .8.1 1.2 0 .1.1.2.1.3.1.3.2.5.4.7s.4.3.7.4.7.1 1 .1h1c.3 0 .6.1.9.1h.1c.3.1.7 0 1 0h0zm1.8-2.7h-1.6c-.5.1-1 .1-1.5.1-.4-.1-.8-.1-1.2-.1h-.1V25c0-.5-.1-1-.2-1.5v-1c0-.5 0-1-.1-1.5l-.1-.3v-2.6h8.4v5.1l-.1 3.2c0 .5-.1 1.1-.1 1.6v.6c-.3 0-.6.1-1 .2-.3.1-.8 0-1.1 0l-1.3.1zm3.6-11.4h0zm-8.4 3.2v.1-.1zm0 .2v.2-.2z"/><path d="M12.8 17l1-1.9 1-2 1.8-4c.3-.7.6-1.4.7-2.1a1.1 1.1 0 0 0 0-.8c-.1-.4-.3-.7-.7-.8-.5-.3-1.1-.2-1.6.1-.3.2-.6.5-.9.7a11.51 11.51 0 0 0-1.7 1.4l-1.8 1.7c-.3.2-.6.5-.9.7l-.7.7-1.4 1.7.2-.3c-.1.1-.2.2-.3.4h0c-.3.3-.5.7-.8 1s-.4.5-.6.7l-.3.3c-.1.1-.2.1-.2.2-.1.1-.2.2-.3.4-.2.3-.2.7-.1 1s.3.6.6.8.7.2 1 .1.5-.2.7-.5h0l-.1.1c0-.1.1-.1.1-.2h0c.3-.2.5-.5.8-.8 0 .3 0 .4-.1.4l1.4-1.7-.1.1.5-.6-.2.3c.4-.4.7-.9 1.1-1.3l1.4-1.4c.2-.2.4-.4.7-.6l-.5 1.1c-.3.7-.7 1.3-1 1.9s-.6 1.3-1 1.9-.2 1.5.5 1.8c.6.4 1.5.2 1.8-.5h0zm-5.3-.3c0-.1.1-.1.1-.2h0l-.1.2z"/><path d="M14.7 29.9l.4-.4c.2-.2.4-.5.6-.8.1-.2.2-.4.2-.6l.1-.1c.2-.2.4-.4.5-.7s.2-.7.2-1v-2.7c0-.2 0-.4-.1-.6.1-.3.1-.7.2-1l.3-1.9c.1-.4.1-.8.2-1.2 0-.3 0-.7-.1-1-.3-1.2-1.5-1.9-2.7-1.6-.1 0-.1 0-.2.1-.4.2-.8.4-1.1.7-.2.2-.4.5-.5.8h-.5l-.3-.3c-.2-.1-.3-.2-.5-.3-.3-.1-.6-.1-.8 0-.1 0-.2.1-.4.1-.1-.1-.2-.3-.3-.5s-.1-.3-.1-.5c.1-.1.1-.2.2-.3h0c.3-.4.6-.8.8-1.2l-.2.3.4-.5.9-1.1c.3-.4.7-.8 1-1.2h0l1-1.3c.2-.3.2-.7.1-1-.2-.7-.9-1.1-1.7-.9-.3.1-.6.3-.8.6-.2.2-.3.5-.5.7v.5l-2.1 2.5c-.2.2-.3.4-.5.6-.1.2-.2.3-.3.5l-.5.6c-.3.4-.4 1-.3 1.5 0 .1-.1.1-.1.2-.2.6-.3 1.2-.2 1.8v2.1c-.2 1.2-.2 2.4-.2 3.5-.1.6-.1 1.2-.1 1.8 0 .3 0 .6-.1.9v1.2c.2.7.8 1.2 1.5 1.2.2 0 .4-.1.6-.2.1.2.2.4.4.6.5.5 1.3.4 1.9.4h1.2c.1 0 .3 0 .4.1.3.1.6.2.9.2h.1c.3 0 .8-.2 1.1-.6zm-3.4-19.2l.1-.1-.1.1z"/></g></svg>