<svg xmlns="http://www.w3.org/2000/svg" viewBox="0 0 284 279.7" xmlns:v="https://vecta.io/nano"><path d="M0 0h284v279.6H0z" fill="#9aa4bd"/><path d="M39.7 33.1h.4c.3 0 .6-.1.8-.1h.1c.2 0 .4-.1.6-.1l.9-.3.6-.3a3.04 3.04 0 0 0 .7-.5l.1-.1c.4-.3.8-.7 1.1-1.2.2-.3.4-.6.5-.9.1-.2.3-.4.4-.6l.6-1.3c.1-.4.3-.8.4-1.2l.3-1.2c.1-.4.1-.9.1-1.3 0-.5-.1-.9-.3-1.4-.3-1-.7-1.9-1.3-2.7a6.42 6.42 0 0 0-1-1.3c-.2-.2-.4-.4-.7-.6-.2-.2-.5-.3-.8-.4h-.1c-.2-.1-.4-.1-.5-.2h-.1l-.6-.2c-.6-.2-1.1-.3-1.7-.3-.3 0-.6 0-.9-.1h-.6c-.4.1-.8.1-1.3.2v-.1.1-.3c0-.1 0-.1.1-.2 0-.1 0-.2.1-.2.1-.2.1-.4.2-.5l.2-.4V15c0-.1.1-.2.1-.2l.1-.1v-.1c0-.1.1-.2.1-.3l.2-.4.1-.1c0-.1.1-.2.1-.3s.1-.2.2-.3.1-.2.2-.3l.4-.4h.1l.3-.3.1-.2.2-.2v-.1l.9-.9c0-.1.1-.1.2-.2l.5-.5V10c0-.1 0-.1-.1-.1h-.1c-.1 0-.2 0-.2.1-.2.1-.3.2-.5.3l-.2.2c-.1 0-.1.1-.2.1l-.5-.1-.2.1s-.1 0-.1.1l-.1.1c-.1 0-.1.1-.2.1-.2.1-.3.2-.4.3l-.3.2-1 1-.1.2c-.2.2-.3.4-.5.6l-.2.3-.1.2c-.2.2-.4.5-.6.7a1.38 1.38 0 0 0-.3.4c-.1.1-.1.2-.2.3l-.1.1c-.1.1-.1.2-.2.3s-.1.1-.1.2l-.3-.1-.2.2-.2.4-.1.1v.1l-.1.1c0 .1-.1.1-.1.2l-.1.1-.1.2-.1.1v.5l-.1.1v.1c0 .1 0 .1-.1.2 0 .1 0 .1-.1.2l-.1.2c-.1.1-.1.2-.1.3v.2c0 .1 0 .1-.1.2 0 .1-.1.1-.1.2v.2l-.1.2c0 .1-.1.1-.1.2h0c0 .1-.1.1-.1.2s-.1.2-.1.2v.2c0 .1-.1.2-.1.2 0 .1 0 .1-.1.2 0 .1 0 .1-.1.2v.2c0 .1-.1.2-.1.3v1s0 .1-.1.1v.6c0 .1-.1.2-.1.3V25c-.1.3-.1.6-.2 1 0 .5 0 1.1.1 1.6l.3 1.2c.1.4.3.9.6 1.2.2.3.4.5.6.8l.2.3c.2.3.5.5.7.7s.4.3.6.4c.1.1.3.1.4.2l.2.1.3.2c.3.2.7.3 1.1.5l1.3.3h1.6l-.4-.4zm-17.9 0h.4c.3 0 .6-.1.8-.1h.1c.2 0 .4-.1.6-.1l.9-.3.6-.3a3.04 3.04 0 0 0 .7-.5l.1-.1c.4-.3.8-.7 1.1-1.2.2-.3.4-.6.5-.9.1-.2.3-.4.4-.6l.6-1.3c.1-.4.3-.8.4-1.2l.3-1.2c.1-.5.1-.9.1-1.4s-.1-.9-.3-1.4c-.3-.9-.7-1.9-1.3-2.7a6.42 6.42 0 0 0-1-1.3c-.2-.2-.5-.4-.7-.6s-.5-.3-.8-.4h-.1c-.2-.1-.4-.1-.5-.2h-.1l-.3-.1-.3.2c-.6-.2-1.1-.3-1.7-.3-.3 0-.6 0-.9-.1h-.6c-.4.1-.9.1-1.3.2v-.5c0-.1 0-.1.1-.2 0-.1 0-.2.1-.2.1-.2.1-.4.2-.5.1-.2.1-.3.2-.4l.1-.3.1-.2.1-.1v-.1l.1-.3.2-.4.1-.1.1-.3c.1-.1.1-.2.2-.3l.2-.3.2-.2.1-.2.1-.1.1-.2.1-.1.1-.2.2-.2h.1l.6-.6.2-.3c0-.1.1-.1.1-.2l.5-.5v-.1c0-.1 0-.1-.1-.1h-.1c-.1 0-.2 0-.2.1-.2.1-.3.2-.5.3l-.2.2-.6.3-.2.2-.2.1a1.38 1.38 0 0 0-.4.3l-.3.2-1 1-.1.2c-.2.2-.3.4-.5.6-.1.1-.1.2-.2.3l-.1.2c-.2.2-.4.5-.6.7a1.38 1.38 0 0 0-.3.4l-.5-.1-.1.1c-.1.1-.1.2-.2.3 0 .1-.1.1-.1.2l-.3.3-.2.4-.1.1v.1s0 .1-.1.1h0c0 .1-.1.1-.1.2 0 0 0 .1-.1.1l-.1.2-.1.1-.2.3v.2l.1.2c0 .1 0 .1-.1.2l-.1.2-.1.3v.1l-.1.1c0 .1 0 .1-.1.2 0 .1-.1.1-.1.2l-.1.1v.1l-.1.2c0 .1-.1.1-.1.2h0c0 .1-.1.1-.1.2s-.1.2-.1.2v.2c0 .1-.1.2-.1.2 0 .1 0 .1-.1.2 0 .1 0 .1-.1.2v.2c0 .1-.1.2-.1.3v1.1s0 .1-.1.1v.6c0 .1-.1.2-.1.3V25c-.1.3-.1.6-.2 1 0 .5 0 1.1.1 1.6l.3 1.2c.1.4.3.9.6 1.2.2.3.4.5.6.8l.2.3c.2.3.5.5.7.7s.4.3.6.4c.1.1.3.1.4.2l.2.1.3.2c.3.2.7.3 1.1.5l1.3.3h.9l.4-.4zm224.4 210.7h-.4c-.3 0-.6.1-.8.1h-.1c-.2 0-.4.1-.6.1l-.9.3-.6.3a3.04 3.04 0 0 0-.7.5l-.1.1c-.4.3-.8.7-1.1 1.2-.2.3-.4.6-.5.9-.1.2-.3.4-.4.6l-.6 1.3c-.1.4-.3.8-.4 1.2l-.3 1.2c-.1.4-.1.9-.1 1.3 0 .5.1.9.3 1.4.3 1 .7 1.9 1.3 2.7a6.42 6.42 0 0 0 1 1.3c.2.2.4.4.7.6.2.2.5.3.8.4h.1c.2.1.4.1.5.2h.1l.6.2c.6.2 1.1.3 1.7.3.3 0 .6 0 .9.1h.6c.4-.1.8-.1 1.3-.2v.5c0 .1 0 .1-.1.2 0 .1 0 .2-.1.2-.1.2-.1.4-.2.5l-.2.4-.1.3c0 .1-.1.2-.1.2l-.1.1v.1c0 .1-.1.2-.1.3l-.2.4-.1.1c0 .1-.1.2-.1.3s-.1.2-.2.3-.1.2-.2.3l-.4.4h-.1l-.3.3.1.2-.2.2v.1l-.9.9c0 .1-.1.1-.2.2l-.5.5v.1c0 .1 0 .1.1.1h.1c.1 0 .2 0 .2-.1.2-.1.3-.2.5-.3l.2-.2c.1 0 .1-.1.2-.1l.4-.2s.1 0 .1-.1l.1-.1c.1 0 .1-.1.2-.1a1.38 1.38 0 0 0 .4-.3l.3-.2 1-1 .1-.2c.2-.2.3-.4.5-.6l.2-.3.1-.2c.2-.2.4-.5.6-.7.1-.1.2-.2.3-.4.1-.1.1-.2.2-.3l.1-.1c.1-.1.1-.2.2-.3s.1-.1.1-.2l.3-.3.2-.4.1-.1v-.1l.1-.1c0-.1.1-.1.1-.2l.1-.1.1-.2.1-.1c.1-.1.1-.2.2-.3l.1-.1v-.1c0-.1 0-.1.1-.2 0-.1 0-.1.1-.2l.1-.2c.1-.1.1-.2.1-.3v-.2c0-.1 0-.1.1-.2 0-.1.1-.1.1-.2v-.2l.1-.2c0-.1.1-.1.1-.2h0c0-.1.1-.1.1-.2s.1-.2.1-.2v-.2c0-.1.1-.2.1-.2 0-.1 0-.1.1-.2 0-.1 0-.1.1-.2v-.2c0-.1.1-.2.1-.3v-.8s0-.1.1-.1v-.6c0-.1.1-.2.1-.3V252c.1-.3.1-.6.2-1 0-.5 0-1.1-.1-1.6l-.3-1.2c-.1-.4-.3-.9-.6-1.2-.2-.3-.4-.5-.6-.8l-.2-.3c-.2-.3-.5-.5-.7-.7s-.4-.3-.6-.4c-.1-.1-.3-.1-.4-.2l-.2-.1-.3-.2c-.3-.2-.7-.3-1.1-.5l-1.3-.3h-1.6l.6.3zm17.9 0h-.4c-.3 0-.6.1-.8.1h-.1c-.2 0-.4.1-.6.1l-.9.3-.6.3a3.04 3.04 0 0 0-.7.5l-.1.1c-.4.3-.8.7-1.1 1.2-.2.3-.4.6-.5.9-.1.2-.3.4-.4.6l-.6 1.3c-.1.4-.3.8-.4 1.2l-.3 1.2c-.1.5-.1.9-.1 1.4s.1.9.3 1.4c.3.9.7 1.9 1.3 2.7a6.42 6.42 0 0 0 1 1.3c.2.2.5.4.7.6s.5.3.8.4h.1c.2.1.4.1.5.2h.1l.6.2c.6.2 1.1.3 1.7.3.3 0 .6 0 .9.1h.6c.4-.1.9-.1 1.3-.2v.5c0 .1 0 .1-.1.2 0 .1 0 .2-.1.2-.1.2-.1.4-.2.5-.1.2-.1.3-.2.4l-.1.3-.1.2-.1.1v.1l-.1.3-.2.4-.1.1-.1.3c-.1.1-.1.2-.2.3l-.2.3-.2.2-.1.2-.1.1-.1.2-.1.1-.1.2-.2.2h-.1l-.6.6-.2.3c0 .1-.1.1-.1.2l-.5.5v.1c0 .1 0 .1.1.1h.1c.1 0 .2 0 .2-.1.2-.1.3-.2.5-.3l.2-.2.6-.3.2-.2.2-.1a1.38 1.38 0 0 0 .4-.3l.3-.2 1-1 .1-.2c.2-.2.3-.4.5-.6.1-.1.1-.2.2-.3l.1-.2c.2-.2.4-.5.6-.7a1.38 1.38 0 0 0 .3-.4l.2-.3.1-.1c.1-.1.1-.2.2-.3 0-.1.1-.1.1-.2l.3-.3.2-.4.1-.1v-.1s0-.1.1-.1h0c0-.1.1-.1.1-.2 0 0 0-.1.1-.1l.1-.2.1-.1.2-.3v-.2l.1-.2c0-.1 0-.1.1-.2l.1-.2.1-.3v-.1l.1-.1c0-.1 0-.1.1-.2 0-.1.1-.1.1-.2l.1-.1v-.1l.1-.2c0-.1.1-.1.1-.2h0c0-.1.1-.1.1-.2s.1-.2.1-.2v-.2c0-.1.1-.2.1-.2 0-.1 0-.1.1-.2 0-.1 0-.1.1-.2v-.2c0-.1.1-.2.1-.3v-.9s0-.1.1-.1v-.6c0-.1.1-.2.1-.3V252c.1-.3.1-.6.2-1 0-.5 0-1.1-.1-1.6l-.3-1.2c-.1-.4-.3-.9-.6-1.2-.2-.3-.4-.5-.6-.8l-.2-.3c-.2-.3-.5-.5-.7-.7s-.4-.3-.6-.4c-.1-.1-.3-.1-.4-.2l-.2-.1-.3-.2c-.3-.2-.7-.3-1.1-.5l-1.3-.3h-.9l-.3.3z" fill="#fefefe"/></svg>