<?xml version="1.0" encoding="utf-8"?>
<!-- Generator: Adobe Illustrator 24.1.2, SVG Export Plug-In . SVG Version: 6.00 Build 0)  -->
<svg version="1.1" id="Layer_1" xmlns="http://www.w3.org/2000/svg" xmlns:xlink="http://www.w3.org/1999/xlink" x="0px" y="0px"
	 viewBox="0 0 283.4 286.5" style="enable-background:new 0 0 283.4 286.5;" xml:space="preserve">
<style type="text/css">
	.st0{fill:#9AA4BD;}
	.st1{fill:#FEFEFE;}
</style>
<rect x="0" y="0" class="st0" width="283.2" height="286.4"/>
<path class="st1" d="M258.1,249.6c-0.6,0.1-1.1,0.3-1.7,0.5c-0.3,0.1-0.5,0.3-0.8,0.5c-0.2,0.1-0.3,0.3-0.4,0.5
	c-0.2,0.2-0.4,0.5-0.5,0.7c-0.2,0.3-0.3,0.6-0.4,0.9c-0.3,0.9-0.5,1.9-0.4,2.9c0,0.5,0,1,0.1,1.6c0.1,0.5,0.1,1,0.2,1.6
	c0.1,1.1,0.3,2.1,0.5,3.2c0.2,1.1,0.3,2,0.5,3c0.2,1,0.5,1.9,0.8,2.9c0.2,0.8,0.4,1.7,0.7,2.5c0.3,0.8,0.5,1.6,0.8,2.4
	c0.3,0.7,0.5,1.4,0.7,2.1c0.3,0.8,0.6,1.7,1,2.5c0.1,0.2,0.4,0.4,0.6,0.5c0.5,0.1,1.1-0.1,1.2-0.6l0.1,0c0.2-0.1,0.4-0.4,0.5-0.6
	c0.1-0.4,0.1-0.7,0.2-1c0-0.2,0-0.4,0-0.6c0-0.2,0-0.4,0.1-0.5c0-0.3,0.1-0.7,0.1-1s0.1-0.5,0.1-0.8s0.1-0.7,0.1-1
	c0.1-0.5,0-0.9,0.1-1.4c0.1-0.3,0.1-0.7,0.2-1c0-0.3,0.1-0.7,0.2-1.1c0.1-0.5,0.2-1,0.3-1.5c0.1-0.5,0.2-0.9,0.2-1.4
	c0.1-0.4,0.1-0.8,0.2-1.1v0.1c0.1-0.5,0.2-1.1,0.2-1.6c0.1-0.6,0.1-1,0.1-1.5c0.1-1,0-2,0-3c0-0.5-0.1-1-0.1-1.6
	c0-0.6-0.1-1.3-0.2-1.9c-0.1-0.4-0.2-0.8-0.3-1.3c-0.1-0.5-0.3-0.9-0.5-1.4c-0.4-1-1.2-1.8-2.1-2.2c-0.3-0.1-0.7-0.2-1-0.2
	C258.8,249.6,258.5,249.6,258.1,249.6L258.1,249.6z M259.4,251.6l0.1,0c0.1,0,0.2,0.1,0.3,0.2c0.1,0.1,0.2,0.2,0.3,0.3
	c0.2,0.3,0.4,0.6,0.5,0.9c0.1,0.3,0.2,0.6,0.3,1c0.1,0.3,0.2,0.7,0.2,1.1c0.1,0.6,0.1,1.3,0.1,2s0.1,1.4,0.1,2c0,1.2,0,2.4-0.2,3.6
	c-0.1,0.4-0.1,0.8-0.2,1.2s-0.1,0.9-0.2,1.3c-0.1,0.4-0.2,1-0.2,1.4c0,0.3-0.1,0.5-0.1,0.8c0,0.3-0.1,0.6-0.1,0.8s-0.1,0.6-0.1,0.9
	c0-0.1,0-0.2,0-0.3c-0.1,0.6-0.2,1.2-0.3,1.8c0,0.2,0,0.5,0,0.7c0,0.2-0.1,0.5-0.1,0.7c-0.1,0.4-0.1,0.8-0.2,1.2c0,0,0-0.1,0-0.1
	c-0.3-0.9-0.6-1.7-0.9-2.6c-0.3-1-0.6-1.9-0.8-2.9c-0.3-1-0.5-1.9-0.8-2.9s-0.4-2-0.6-3c-0.2-0.9-0.4-1.8-0.5-2.8
	c-0.1-0.8-0.2-1.6-0.2-2.4c-0.1-0.8-0.1-1.5,0-2.3c0.1-0.4,0.2-0.8,0.3-1.2c0.1-0.3,0.3-0.5,0.4-0.7c0.1-0.1,0.3-0.3,0.4-0.4
	c0.1-0.1,0.2-0.2,0.4-0.2c0.4-0.1,0.7-0.2,1.1-0.3C258.8,251.6,259.1,251.6,259.4,251.6L259.4,251.6z M263.2,263.8L263.2,263.8
	C263.2,263.9,263.2,263.8,263.2,263.8z M262.2,270.2L262.2,270.2L262.2,270.2z M259.8,273.2v0.1l0,0V273.2L259.8,273.2z
	 M262.4,269.1v0.1c0-0.1,0-0.2,0-0.3C262.4,269,262.4,269.1,262.4,269.1L262.4,269.1z"/>
<path class="st1" d="M271.4,248.4c-0.2,0.1-0.5,0.1-0.7,0.2c-0.6,0.2-1.1,0.5-1.6,0.9c-0.3,0.3-0.6,0.7-0.9,1.1
	c-0.5,0.8-0.9,1.7-1.2,2.7c-0.3,0.9-0.4,1.9-0.4,2.9c0,0.5,0,1,0,1.5c0,0.5,0.1,1,0.1,1.5s0.1,1,0.1,1.6c0,0.5,0.1,1.1,0.2,1.7
	c0.2,1,0.3,1.9,0.5,2.9c0,0.2,0.1,0.5,0.1,0.7c0,0.2,0.1,0.5,0.2,0.7l0.3,1.5c0.2,0.9,0.5,1.7,0.7,2.6c0.1,0.2,0.1,0.5,0.2,0.7
	c0.1,0.8,0.2,1.6,0.4,2.4c0.1,0.4,0.2,0.7,0.3,1.1s0.3,0.8,0.4,1.2c0.1,0.3,0.2,0.5,0.5,0.6c0.1,0.1,0.3,0.1,0.4,0.1
	c0.1,0.4,0.4,0.6,0.7,0.7c0.6,0.2,1.1-0.2,1.3-0.7c0.1-0.2,0.1-0.4,0.1-0.6c0-0.2,0.1-0.3,0.1-0.5c0.1-0.2,0.1-0.5,0.2-0.7
	c0.1-0.2,0.1-0.4,0.1-0.7s0.1-0.5,0.2-0.8c0.2-0.9,0.4-1.8,0.7-2.7c0.2-0.9,0.4-2,0.6-3c0.1-0.5,0.2-0.9,0.2-1.4
	c0.1-0.5,0.2-0.9,0.3-1.4c0.2-1.1,0.4-2.2,0.6-3.3c0.1-0.5,0.2-1.1,0.3-1.6s0.1-1.1,0.2-1.7c0-0.1,0-0.3,0.1-0.4
	c0.1-0.5,0.1-1.1,0.1-1.6c0-0.5,0-0.9,0-1.4c0-0.6-0.1-1.2-0.2-1.7c-0.1-0.5-0.2-1-0.4-1.4c-0.1-0.5-0.4-0.9-0.6-1.3
	c-0.3-0.5-0.7-0.9-1.1-1.3c-0.4-0.3-0.8-0.6-1.2-0.8c-0.2-0.1-0.4-0.2-0.7-0.2c-0.1,0-0.3-0.1-0.4-0.1
	C271.8,248.3,271.6,248.4,271.4,248.4L271.4,248.4z M271.9,250.4l0.1,0c0.2,0.1,0.5,0.3,0.7,0.4c0.3,0.3,0.6,0.6,0.8,0.9
	c0.1,0.2,0.3,0.4,0.4,0.6c0.1,0.3,0.2,0.7,0.3,1c0.1,0.4,0.2,0.8,0.3,1.2c0.1,0.5,0.1,1.1,0.1,1.6c0,0.6,0,1.2-0.1,1.8
	c-0.1,0.6-0.2,1.3-0.2,1.9c-0.1,0.9-0.3,1.9-0.5,2.8c-0.1,0.5-0.2,1.1-0.3,1.6c-0.1,0.5-0.2,1-0.3,1.4c-0.2,1-0.3,1.9-0.5,2.9
	c-0.1,0.5-0.2,1-0.3,1.4c-0.1,0.5-0.2,0.9-0.3,1.4c-0.2,0.8-0.4,1.7-0.6,2.5c0,0,0-0.1,0-0.1c-0.2-0.6-0.3-1.3-0.4-1.9
	c0-0.4-0.1-0.9-0.2-1.3c-0.1-0.4-0.2-0.8-0.3-1.2c-0.3-0.8-0.5-1.7-0.7-2.6c-0.1-0.4-0.2-0.9-0.3-1.3s-0.2-0.9-0.2-1.4
	c-0.2-0.8-0.3-1.7-0.4-2.5c-0.1-0.5-0.1-1.1-0.1-1.6c0-0.5-0.1-1.1-0.1-1.7c-0.1-1.1,0-2.1,0.1-3.2c0.1-0.8,0.3-1.6,0.6-2.4
	c0.2-0.5,0.5-1,0.9-1.4c0.1-0.2,0.3-0.3,0.4-0.4c0.2-0.1,0.4-0.2,0.6-0.3C271.5,250.5,271.7,250.5,271.9,250.4L271.9,250.4z
	 M271.8,250.4L271.8,250.4z M273.6,251.9L273.6,251.9L273.6,251.9z M274.5,258L274.5,258c0,0.1,0,0.2,0,0.2V258L274.5,258z
	 M276.6,258.3c0,0.1,0,0.1,0,0.2c0-0.1,0-0.2,0-0.3L276.6,258.3L276.6,258.3z"/>
<path class="st1" d="M12.1,7.8c-0.6,0.1-1.1,0.3-1.7,0.5c-0.3,0.1-0.5,0.3-0.8,0.5C9.6,9,9.4,9.1,9.3,9.3C9.1,9.5,8.9,9.8,8.7,10
	c-0.2,0.3-0.3,0.6-0.4,0.9c-0.3,0.9-0.5,1.9-0.4,2.9c0,0.5,0,1,0.1,1.6c0.1,0.5,0.1,1,0.2,1.6c0.1,1.1,0.3,2.1,0.5,3.2
	c0.2,1.1,0.3,2,0.5,3c0.2,1,0.5,1.9,0.8,2.9c0.2,0.8,0.4,1.7,0.7,2.5s0.5,1.6,0.8,2.4c0.3,0.7,0.5,1.4,0.7,2.1
	c0.3,0.8,0.6,1.7,1,2.5c0.1,0.2,0.4,0.4,0.6,0.5c0.5,0.1,1.1-0.1,1.2-0.6l0.1,0c0.2-0.1,0.4-0.4,0.5-0.6c0.1-0.4,0.1-0.7,0.2-1
	c0-0.2,0-0.4,0-0.6s0-0.4,0.1-0.5c0-0.3,0.1-0.7,0.1-1s0.1-0.5,0.1-0.8c0-0.2,0.1-0.7,0.1-1c0.1-0.5,0-0.9,0.1-1.4
	c0.1-0.3,0.1-0.7,0.2-1c0-0.3,0.1-0.7,0.2-1.1c0.1-0.5,0.2-1,0.3-1.5c0.1-0.5,0.2-0.9,0.2-1.4c0.1-0.4,0.1-0.8,0.2-1.1v0.1
	c0.1-0.5,0.2-1.1,0.2-1.6c0.1-0.6,0.1-1,0.1-1.5c0.1-1,0-2,0-3c0-0.5-0.1-1-0.1-1.6c0-0.6-0.1-1.3-0.2-1.9c-0.1-0.4-0.2-0.8-0.3-1.3
	c-0.1-0.5-0.3-0.9-0.5-1.4c-0.4-1-1.2-1.8-2.1-2.2c-0.3-0.1-0.7-0.2-1-0.2C12.9,7.8,12.5,7.8,12.1,7.8L12.1,7.8z M13.5,9.8l0.1,0
	c0.1,0,0.2,0.1,0.3,0.2c0.1,0.1,0.2,0.2,0.3,0.3c0.2,0.3,0.4,0.6,0.5,0.9c0.1,0.3,0.2,0.6,0.3,1c0.1,0.3,0.2,0.7,0.2,1.1
	c0.1,0.6,0.1,1.3,0.1,2c0.1,0.7,0.1,1.4,0.1,2c0,1.2,0,2.4-0.2,3.6c-0.1,0.4-0.1,0.8-0.2,1.2c-0.1,0.4-0.1,0.9-0.2,1.3
	c-0.1,0.4-0.2,1-0.2,1.4c0,0.3-0.1,0.5-0.1,0.8c0,0.3-0.1,0.6-0.1,0.8c0,0.3-0.1,0.6-0.1,0.9c0-0.1,0-0.2,0-0.3
	c-0.1,0.6-0.2,1.2-0.3,1.8c0,0.2,0,0.5,0,0.7c0,0.2-0.1,0.5-0.1,0.7c-0.1,0.4-0.1,0.8-0.2,1.2c0,0,0-0.1,0-0.1
	c-0.3-0.9-0.6-1.7-0.9-2.6c-0.3-1-0.6-1.9-0.8-2.9c-0.3-1-0.5-1.9-0.8-2.9c-0.2-1-0.4-2-0.6-3c-0.2-0.9-0.4-1.8-0.5-2.8
	c-0.1-0.8-0.2-1.6-0.2-2.4c-0.1-0.8-0.1-1.5,0-2.3c0.1-0.4,0.2-0.8,0.3-1.2c0.1-0.3,0.3-0.5,0.4-0.7c0.1-0.1,0.3-0.3,0.4-0.4
	c0.1-0.1,0.2-0.2,0.4-0.2c0.4-0.1,0.7-0.2,1.1-0.3C12.9,9.8,13.2,9.8,13.5,9.8L13.5,9.8z M17.3,22L17.3,22
	C17.3,22.1,17.3,22,17.3,22z M16.3,28.4L16.3,28.4L16.3,28.4z M13.9,31.4v0.1l0,0V31.4L13.9,31.4z M16.4,27.4v0.1c0-0.1,0-0.2,0-0.3
	C16.5,27.3,16.5,27.3,16.4,27.4L16.4,27.4z"/>
<path class="st1" d="M25.4,6.6c-0.2,0.1-0.5,0.1-0.7,0.2c-0.6,0.2-1.1,0.5-1.6,0.9c-0.3,0.3-0.6,0.7-0.9,1.1
	c-0.5,0.8-0.9,1.7-1.2,2.7c-0.3,0.9-0.4,1.9-0.4,2.9c0,0.5,0,1,0,1.5c0,0.5,0.1,1,0.1,1.5s0.1,1,0.1,1.6c0,0.5,0.1,1.1,0.2,1.7
	c0.2,1,0.3,1.9,0.5,2.9c0,0.2,0.1,0.5,0.1,0.7c0,0.2,0.1,0.5,0.2,0.7l0.3,1.5c0.2,0.9,0.5,1.7,0.7,2.6c0.1,0.2,0.1,0.5,0.2,0.7
	c0.1,0.8,0.2,1.6,0.4,2.4c0.1,0.4,0.2,0.7,0.3,1.1c0.1,0.4,0.3,0.8,0.4,1.2c0.1,0.3,0.2,0.5,0.5,0.6c0.1,0.1,0.3,0.1,0.4,0.1
	c0.1,0.4,0.4,0.6,0.7,0.7c0.6,0.2,1.1-0.2,1.3-0.7c0.1-0.2,0.1-0.4,0.1-0.6c0-0.2,0.1-0.3,0.1-0.5c0.1-0.2,0.1-0.5,0.2-0.7
	c0.1-0.2,0.1-0.4,0.1-0.7s0.1-0.5,0.2-0.8c0.2-0.9,0.4-1.8,0.7-2.7c0.2-0.9,0.4-2,0.6-3c0.1-0.5,0.2-0.9,0.2-1.4
	c0.1-0.5,0.2-0.9,0.3-1.4c0.2-1.1,0.4-2.2,0.6-3.3c0.1-0.5,0.2-1.1,0.3-1.6c0.1-0.5,0.1-1.1,0.2-1.7c0-0.1,0-0.3,0.1-0.4
	c0.1-0.5,0.1-1.1,0.1-1.6c0-0.5,0-0.9,0-1.4c0-0.6-0.1-1.2-0.2-1.7c-0.1-0.5-0.2-1-0.4-1.4C30,9.8,29.8,9.4,29.5,9
	c-0.3-0.5-0.7-0.9-1.1-1.3c-0.4-0.3-0.8-0.6-1.2-0.8c-0.2-0.1-0.4-0.2-0.7-0.2c-0.1,0-0.3-0.1-0.4-0.1C25.8,6.5,25.7,6.6,25.4,6.6
	L25.4,6.6z M26,8.6l0.1,0c0.2,0.1,0.5,0.3,0.7,0.4c0.3,0.3,0.6,0.6,0.8,0.9c0.1,0.2,0.3,0.4,0.4,0.6c0.1,0.3,0.2,0.7,0.3,1
	c0.1,0.4,0.2,0.8,0.3,1.2c0.1,0.5,0.1,1.1,0.1,1.6c0,0.6,0,1.2-0.1,1.8c-0.1,0.6-0.2,1.3-0.2,1.9C28.2,19,28,20,27.8,20.9
	c-0.1,0.5-0.2,1.1-0.3,1.6c-0.1,0.5-0.2,1-0.3,1.4c-0.2,1-0.3,1.9-0.5,2.9c-0.1,0.5-0.2,1-0.3,1.4c-0.1,0.5-0.2,0.9-0.3,1.4
	c-0.2,0.8-0.4,1.7-0.6,2.5c0,0,0-0.1,0-0.1c-0.2-0.6-0.3-1.3-0.4-1.9c0-0.4-0.1-0.9-0.2-1.3c-0.1-0.4-0.2-0.8-0.3-1.2
	c-0.3-0.8-0.5-1.7-0.7-2.6c-0.1-0.4-0.2-0.9-0.3-1.3s-0.2-0.9-0.2-1.4c-0.2-0.8-0.3-1.7-0.4-2.5c-0.1-0.5-0.1-1.1-0.1-1.6
	c0-0.5-0.1-1.1-0.1-1.7c-0.1-1.1,0-2.1,0.1-3.2c0.1-0.8,0.3-1.6,0.6-2.4c0.2-0.5,0.5-1,0.9-1.4c0.1-0.2,0.3-0.3,0.4-0.4
	c0.2-0.1,0.4-0.2,0.6-0.3C25.5,8.7,25.8,8.7,26,8.6L26,8.6z M25.9,8.6L25.9,8.6z M27.7,10.1L27.7,10.1L27.7,10.1z M28.6,16.2
	L28.6,16.2c0,0.1,0,0.2,0,0.2V16.2L28.6,16.2z M30.6,16.5c0,0.1,0,0.1,0,0.2c0-0.1,0-0.2,0-0.3L30.6,16.5L30.6,16.5z"/>
</svg>
