<?xml version="1.0" encoding="utf-8"?>
<!-- Generator: Adobe Illustrator 24.2.0, SVG Export Plug-In . SVG Version: 6.00 Build 0)  -->
<svg version="1.1" id="Layer_1" xmlns="http://www.w3.org/2000/svg" xmlns:xlink="http://www.w3.org/1999/xlink" x="0px" y="0px"
	 viewBox="0 0 33.1 23.7" style="enable-background:new 0 0 33.1 23.7;" xml:space="preserve">
<style type="text/css">
	.st0{fill:#FEFEFE;}
</style>
<g>
	<path class="st0" d="M18.2,5.9c-0.1,0.5-0.1,1.1-0.1,1.6c0.1,0.4,0.1,0.7,0.2,1v1.4c0,0.1,0.1,0.2,0.1,0.3v0.6l0,0
		c0.1,0,0.1,0,0.1,0.1v0.8c0,0.1,0.1,0.2,0.1,0.3v0.2c0.1,0.1,0.1,0.1,0.1,0.2c0.1,0.1,0.1,0.1,0.1,0.2c0.1,0.1,0.1,0.1,0.1,0.2V13
		c0.1,0.1,0.1,0.1,0.1,0.2c0,0.1,0.1,0.1,0.1,0.2s0.1,0.1,0.1,0.2l0.1,0.2V14c0,0.1,0.1,0.1,0.1,0.2c0.1,0.1,0.1,0.1,0.1,0.2v0.2
		c0,0.1,0,0.2,0.1,0.3l0.1,0.2c0.1,0.1,0.1,0.1,0.1,0.2c0.1,0.1,0.1,0.1,0.1,0.2v0.1l0.1,0.1c0.1,0.1,0.1,0.2,0.2,0.3l0.1,0.1
		l0.1,0.2l0.1,0.1c0,0.1,0.1,0.1,0.1,0.2l0.1,0.1v0.1l0.1,0.1l0.2,0.4l0.3,0.3c0,0.1,0,0.1,0.1,0.2c0.1,0.1,0.1,0.2,0.2,0.3l0.1,0.1
		c0.1,0.1,0.1,0.2,0.2,0.3c0.1,0.2,0.2,0.3,0.3,0.4c0.2,0.2,0.4,0.5,0.6,0.7l0.1,0.2l0.2,0.3c0.2,0.2,0.3,0.4,0.5,0.6l0.1,0.2l1,1
		l0.3,0.2c0.1,0.1,0.2,0.2,0.4,0.3c0.1,0,0.1,0.1,0.2,0.1l0.1,0.1l0,0c0,0.1,0,0.1,0.1,0.1l0.4,0.2c0.1,0,0.1,0.1,0.2,0.1l0.2,0.2
		c0.2,0.1,0.3,0.2,0.5,0.3c0,0.1,0.1,0.1,0.2,0.1h0.1c0.1,0,0.1,0,0.1-0.1v-0.1L27,22.9c-0.1-0.1-0.2-0.1-0.2-0.2l-0.9-0.9v-0.1
		l-0.2-0.2l0.1-0.2L25.5,21h-0.1L25,20.6c-0.1-0.1-0.1-0.2-0.2-0.3c-0.1-0.1-0.2-0.2-0.2-0.3s-0.1-0.2-0.1-0.3l-0.1-0.1l-0.2-0.4
		c0-0.1-0.1-0.2-0.1-0.3v-0.1L24,18.7c-0.1-0.1-0.1-0.1-0.1-0.2l-0.1-0.3l-0.2-0.4c-0.1-0.1-0.1-0.3-0.2-0.5c-0.1,0-0.1-0.1-0.1-0.2
		c-0.1-0.1-0.1-0.1-0.1-0.2v-0.5c0.5,0.1,0.9,0.1,1.3,0.2h0.6c0.3-0.1,0.6-0.1,0.9-0.1c0.6,0,1.2-0.1,1.7-0.3l0.6-0.2h0.1
		c0.1-0.1,0.3-0.1,0.5-0.2H29c0.3-0.1,0.6-0.2,0.8-0.4c0.3-0.2,0.5-0.4,0.7-0.6c0.4-0.4,0.7-0.8,1-1.3c0.6-0.8,1-1.7,1.3-2.7
		c0.2-0.4,0.3-0.9,0.3-1.4c0-0.4,0-0.9-0.1-1.3l-0.3-1.2c-0.1-0.4-0.3-0.8-0.4-1.2l-0.6-1.3c-0.1-0.2-0.3-0.4-0.4-0.6
		c-0.1-0.3-0.3-0.6-0.5-0.9c-0.3-0.5-0.7-0.9-1.1-1.2l-0.1-0.1c-0.2-0.2-0.4-0.4-0.7-0.5l-0.6-0.3l-0.9-0.3c-0.2,0-0.4-0.1-0.6-0.1
		h-0.1c-0.2,0-0.5-0.1-0.8-0.1h-0.4L26.1,0l-1.6,0l-1.3,0.3c-0.4,0.1-0.7,0.3-1.1,0.5L21.8,1l-0.2,0.1c-0.1,0.1-0.3,0.1-0.4,0.2
		c-0.2,0.1-0.4,0.2-0.6,0.4c-0.3,0.2-0.5,0.4-0.7,0.7l-0.2,0.3c-0.2,0.3-0.4,0.5-0.6,0.8c-0.3,0.3-0.5,0.8-0.6,1.2L18.2,5.9z"/>
	<path class="st0" d="M0,7.5c0.1,0.4,0.1,0.7,0.2,1v1.4c0,0.1,0.1,0.2,0.1,0.3v0.6c0.1,0,0.1,0,0.1,0.1v0.9c0,0.1,0.1,0.2,0.1,0.3
		v0.2c0.1,0.1,0.1,0.1,0.1,0.2c0.1,0.1,0.1,0.1,0.1,0.2c0.1,0.1,0.1,0.1,0.1,0.2v0.2c0.1,0.1,0.1,0.1,0.1,0.2c0,0.1,0.1,0.1,0.1,0.2
		s0.1,0.1,0.1,0.2l0.1,0.2V14l0.1,0.1c0,0.1,0.1,0.1,0.1,0.2c0.1,0.1,0.1,0.1,0.1,0.2l0.1,0.1v0.1L1.7,15l0.1,0.2
		c0.1,0.1,0.1,0.1,0.1,0.2L2,15.6v0.2l0.2,0.3l0.1,0.1l0.1,0.2l0,0c0.1,0,0.1,0,0.1,0.1c0,0.1,0.1,0.1,0.1,0.2l0,0
		c0.1,0,0.1,0,0.1,0.1v0.1L2.8,17L3,17.4l0.3,0.3c0,0.1,0.1,0.1,0.1,0.2c0.1,0.1,0.1,0.2,0.2,0.3l0.1,0.1l0.2,0.3
		C4,18.8,4.1,18.9,4.2,19c0.2,0.2,0.4,0.5,0.6,0.7l0.1,0.2C5,20,5,20.1,5.1,20.2c0.2,0.2,0.3,0.4,0.5,0.6L5.7,21l1,1L7,22.2
		c0.1,0.1,0.2,0.2,0.4,0.3l0.2,0.1l0.2,0.2l0.6,0.3l0.2,0.2c0.2,0.1,0.3,0.2,0.5,0.3c0,0.1,0.1,0.1,0.2,0.1h0.1c0.1,0,0.1,0,0.1-0.1
		v-0.1L9,23c0-0.1-0.1-0.1-0.1-0.2l-0.2-0.3l-0.6-0.6H8l-0.2-0.2l-0.1-0.2l-0.1-0.1l-0.1-0.2l-0.1-0.1l-0.1-0.2l-0.2-0.2l-0.2-0.3
		c-0.1-0.1-0.1-0.2-0.2-0.3l-0.1-0.3l-0.1-0.1l-0.2-0.4L6.2,19v-0.1l-0.1-0.1L6,18.6l-0.1-0.3c-0.1-0.1-0.1-0.2-0.2-0.4
		c-0.1-0.1-0.1-0.3-0.2-0.5c-0.1,0-0.1-0.1-0.1-0.2c-0.1-0.1-0.1-0.1-0.1-0.2v-0.5c0.4,0.1,0.9,0.1,1.3,0.2h0.6
		c0.3-0.1,0.6-0.1,0.9-0.1c0.6,0,1.2-0.1,1.7-0.3l0.6-0.2h0.1c0.1-0.1,0.3-0.1,0.5-0.2h0.1c0.3-0.1,0.6-0.2,0.8-0.4
		c0.2-0.2,0.5-0.4,0.7-0.6c0.4-0.4,0.7-0.8,1-1.3c0.6-0.8,1-1.7,1.3-2.7c0.2-0.4,0.3-0.9,0.3-1.4c0-0.5,0-0.9-0.1-1.4l-0.3-1.2
		c-0.1-0.4-0.3-0.8-0.4-1.2l-0.6-1.3c-0.1-0.2-0.3-0.4-0.4-0.6c-0.1-0.3-0.3-0.6-0.5-0.9c-0.3-0.5-0.7-0.9-1.1-1.2l-0.1-0.1
		c-0.2-0.2-0.4-0.4-0.7-0.5l-0.6-0.3L9.5,0.5c-0.2,0-0.4-0.1-0.6-0.1H8.8C8.6,0.4,8.3,0.3,8,0.3H7.6L7.3,0L6.4,0L5.1,0.3
		C4.7,0.4,4.4,0.6,4,0.8L3.7,1L3.5,1.1C3.4,1.2,3.2,1.2,3.1,1.3C2.9,1.4,2.7,1.5,2.5,1.7C2.2,1.9,2,2.1,1.8,2.4L1.6,2.7
		C1.4,3,1.2,3.2,1,3.5C0.7,3.8,0.5,4.3,0.4,4.7L0.1,5.9C0,6.4,0,7,0,7.5z"/>
</g>
</svg>
