<svg xmlns="http://www.w3.org/2000/svg" width="22.926" height="29.569" viewBox="0 0 22.926 29.569">
  <defs>
    <style>
      .a {
        fill: #fefefe;
      }
    </style>
  </defs>
  <g>
    <path class="a" d="M9.726,8.344a12.252,12.252,0,0,0-.2-1.9l-.3-1.3a7.838,7.838,0,0,0-.5-1.4,4.117,4.117,0,0,0-2.1-2.2,3.553,3.553,0,0,0-1-.2,8.17,8.17,0,0,0-1.4-.1h0a10.926,10.926,0,0,0-1.7.5,3.508,3.508,0,0,0-.8.5,1,1,0,0,0-.4.5,3.081,3.081,0,0,0-.5.7,3.552,3.552,0,0,0-.4.9,7.045,7.045,0,0,0-.4,2.9,9.151,9.151,0,0,0,.1,1.6c.1.5.1,1,.2,1.6.1,1.1.3,2.1.5,3.2l.5,3c.2,1,.5,1.9.8,2.9l.7,2.5.8,2.4a17.233,17.233,0,0,1,.7,2.1l1,2.5a1.47,1.47,0,0,0,.6.5.971.971,0,0,0,1.2-.6h.1a1.47,1.47,0,0,0,.5-.6c.1-.4.1-.7.2-1v-.6a.749.749,0,0,1,.1-.5c0-.3.1-.7.1-1s.1-.5.1-.8.1-.7.1-1c.1-.5,0-.9.1-1.4.1-.3.1-.7.2-1a5.16,5.16,0,0,1,.2-1.1l.3-1.5a6.753,6.753,0,0,0,.2-1.4c.1-.4.1-.8.2-1.1v.1a8.752,8.752,0,0,0,.2-1.6,8.084,8.084,0,0,0,.1-1.5c.1-1,0-2,0-3C9.826,9.444,9.726,8.944,9.726,8.344Zm-2.5,6c-.1.4-.1.8-.2,1.2s-.1.9-.2,1.3a6.753,6.753,0,0,0-.2,1.4c0,.3-.1.5-.1.8s-.1.6-.1.8-.1.6-.1.9v-.3l-.3,1.8v.7c0,.2-.1.5-.1.7-.1.4-.1.8-.2,1.2v-.1l-.9-2.6-1.6-5.8c-.3-1-.4-2-.6-3l-.5-2.8-.2-2.4a8.854,8.854,0,0,1,0-2.3l.3-1.2a4.348,4.348,0,0,1,.4-.7l.4-.4a.52.52,0,0,1,.4-.2l1.1-.3a1.978,1.978,0,0,0,1,.2h.1c.1,0,.2.1.3.2l.3.3a4.053,4.053,0,0,1,.5.9l.3,1a3.6,3.6,0,0,1,.2,1.1,12.75,12.75,0,0,1,.1,2c0,.7.1,1.4.1,2A21.737,21.737,0,0,1,7.226,14.344Z"/>
    <path class="a" d="M22.726,5.144a5.732,5.732,0,0,0-.4-1.4,5.171,5.171,0,0,0-.6-1.3,6.885,6.885,0,0,0-1.1-1.3,8.342,8.342,0,0,0-1.2-.8,1.445,1.445,0,0,0-.7-.2c-.1,0-.3-.1-.4-.1a2.078,2.078,0,0,0-.8,0h0c-.2.1-.5.1-.7.2a5.071,5.071,0,0,0-1.6.9,10.627,10.627,0,0,0-.9,1.1,11.065,11.065,0,0,0-1.2,2.7,9.246,9.246,0,0,0-.4,2.9v1.5c0,.5.1,1,.1,1.5s.1,1,.1,1.6a11.135,11.135,0,0,0,.2,1.7l.5,2.9c0,.2.1.5.1.7a1.854,1.854,0,0,0,.2.7l.3,1.5.7,2.6c.1.2.1.5.2.7l.4,2.4.3,1.1c.1.4.3.8.4,1.2.1.3.2.5.5.6a.6.6,0,0,0,.4.1.988.988,0,0,0,.7.7,1.053,1.053,0,0,0,1.3-.7,1.268,1.268,0,0,0,.1-.6c0-.2.1-.3.1-.5.1-.2.1-.5.2-.7a1.483,1.483,0,0,0,.1-.7,2.353,2.353,0,0,1,.2-.8l.7-2.7.6-3a6.753,6.753,0,0,0,.2-1.4l.3-1.4.6-3.3.3-1.6c.1-.5.1-1.1.2-1.7a.6.6,0,0,1,.1-.4,8.6,8.6,0,0,0,.1-1.6v-1.4A8.807,8.807,0,0,0,22.726,5.144Zm-2.1,4.4a12.252,12.252,0,0,0-.2,1.9,27.411,27.411,0,0,1-.5,2.8l-.3,1.6-.3,1.4-.5,2.9-.6,2.8-.6,2.5v-.1a12.86,12.86,0,0,1-.4-1.9,5.853,5.853,0,0,0-.2-1.3l-.3-1.2a19.734,19.734,0,0,1-.7-2.6l-.3-1.3a5.9,5.9,0,0,1-.2-1.4,21.656,21.656,0,0,1-.4-2.5,8.6,8.6,0,0,1-.1-1.6c0-.5-.1-1.1-.1-1.7a17.129,17.129,0,0,1,.1-3.2,10.548,10.548,0,0,1,.6-2.4,4.2,4.2,0,0,1,.9-1.4c.1-.2.3-.3.4-.4l.6-.3a1.087,1.087,0,0,0,.5-.1h.1c.2.1.5.3.7.4a6.47,6.47,0,0,1,.8.9c.1.2.3.4.4.6l.3,1,.3,1.2a8.6,8.6,0,0,1,.1,1.6A10.869,10.869,0,0,1,20.626,9.544Z"/>
    <path class="a" d="M9.326,15.444Z"/>
    <path class="a" d="M5.926,24.844v0Z"/>
    <path class="a" d="M8.526,20.744v0Z"/>
    <polygon class="a" points="20.626 9.644 20.626 9.644 20.626 9.844 20.626 9.644"/>
    <path class="a" d="M22.726,9.944v0Z"/>
  </g>
</svg>
