<svg xmlns="http://www.w3.org/2000/svg" width="33.1" height="23.7" viewBox="0 0 33.1 23.7">
  <defs>
    <style>
      .a {
        fill: #fefefe;
      }
    </style>
  </defs>
  <g>
    <path class="a" d="M14.6,4.7A2.725,2.725,0,0,0,14,3.5c-.2-.3-.4-.5-.6-.8l-.2-.3a4.62,4.62,0,0,0-.7-.7,2.092,2.092,0,0,0-.6-.4c-.1-.1-.3-.1-.4-.2L11.3,1,11,.8A11.731,11.731,0,0,0,9.9.3L8.6,0H7l.6.3H7.2c-.3,0-.6.1-.8.1H6.3c-.2,0-.4.1-.6.1L4.8.8l-.6.3a3.038,3.038,0,0,0-.7.5l-.1.1A4.263,4.263,0,0,0,2.3,2.9a4.053,4.053,0,0,0-.5.9c-.1.2-.3.4-.4.6L.8,5.7c-.1.4-.3.8-.4,1.2L.1,8.1A5.7,5.7,0,0,0,0,9.4a3.529,3.529,0,0,0,.3,1.4,8.449,8.449,0,0,0,1.3,2.7,6.4,6.4,0,0,0,1,1.3,4.349,4.349,0,0,0,.7.6,2.01,2.01,0,0,0,.8.4h.1c.2.1.4.1.5.2h.1l.6.2a5.079,5.079,0,0,0,1.7.3,2.769,2.769,0,0,1,.9.1h.6c.4-.1.8-.1,1.3-.2v.5c0,.1,0,.1-.1.2,0,.1,0,.2-.1.2-.1.2-.1.4-.2.5l-.2.4-.1.3a.349.349,0,0,1-.1.2l-.1.1v.1c0,.1-.1.2-.1.3l-.2.4-.1.1c0,.1-.1.2-.1.3s-.1.2-.2.3-.1.2-.2.3l-.4.4H7.6l-.3.3.1.2-.2.2v.1l-.9.9c0,.1-.1.1-.2.2l-.5.5v.1c0,.1,0,.1.1.1h.1c.1,0,.2,0,.2-.1.2-.1.3-.2.5-.3l.2-.2c.1,0,.1-.1.2-.1l.4-.2a.1.1,0,0,0,.1-.1l.1-.1c.1,0,.1-.1.2-.1a1.386,1.386,0,0,0,.4-.3l.3-.2,1-1,.1-.2c.2-.2.3-.4.5-.6l.2-.3.1-.2c.2-.2.4-.5.6-.7a1.38,1.38,0,0,0,.3-.4c.1-.1.1-.2.2-.3l.1-.1c.1-.1.1-.2.2-.3s.1-.1.1-.2l.3-.3.2-.4.1-.1v-.1l.1-.1c0-.1.1-.1.1-.2l.1-.1.1-.2.1-.1c.1-.1.1-.2.2-.3l.1-.1v-.1c0-.1,0-.1.1-.2,0-.1,0-.1.1-.2l.1-.2a.367.367,0,0,0,.1-.3v-.2c0-.1,0-.1.1-.2,0-.1.1-.1.1-.2v-.2l.1-.2c0-.1.1-.1.1-.2s.1-.1.1-.2a.349.349,0,0,1,.1-.2v-.2a.349.349,0,0,1,.1-.2c0-.1,0-.1.1-.2,0-.1,0-.1.1-.2V12c0-.1.1-.2.1-.3v-.8a.1.1,0,0,1,.1-.1v-.6c0-.1.1-.2.1-.3V8.5c.1-.3.1-.6.2-1a8.6,8.6,0,0,0-.1-1.6Z"/>
    <path class="a" d="M33,5.9l-.3-1.2a2.725,2.725,0,0,0-.6-1.2c-.2-.3-.4-.5-.6-.8l-.2-.3a4.62,4.62,0,0,0-.7-.7,2.092,2.092,0,0,0-.6-.4c-.1-.1-.3-.1-.4-.2L29.4,1,29.1.8A11.731,11.731,0,0,0,28,.3L26.7,0h-.9l-.3.3h-.4c-.3,0-.6.1-.8.1h-.1c-.2,0-.4.1-.6.1l-.9.3-.6.3a3.06,3.06,0,0,0-.7.5l-.1.1a4.263,4.263,0,0,0-1.1,1.2,4.053,4.053,0,0,0-.5.9c-.1.2-.3.4-.4.6l-.6,1.3c-.1.4-.3.8-.4,1.2L18,8.1a6.6,6.6,0,0,0-.1,1.4,3.529,3.529,0,0,0,.3,1.4,9.6,9.6,0,0,0,1.3,2.7,6.4,6.4,0,0,0,1,1.3c.2.2.5.4.7.6a2.01,2.01,0,0,0,.8.4h.1c.2.1.4.1.5.2h.1l.6.2a5.079,5.079,0,0,0,1.7.3,2.769,2.769,0,0,1,.9.1h.6c.4-.1.9-.1,1.3-.2V17c0,.1,0,.1-.1.2,0,.1,0,.2-.1.2-.1.2-.1.4-.2.5-.1.2-.1.3-.2.4l-.1.3-.1.2-.1.1V19l-.1.3-.2.4-.1.1-.1.3c-.1.1-.1.2-.2.3l-.2.3-.2.2-.1.2-.1.1-.1.2-.1.1-.1.2-.2.2H25l-.6.6-.2.3c0,.1-.1.1-.1.2l-.5.5v.1c0,.1,0,.1.1.1h.1c.1,0,.2,0,.2-.1.2-.1.3-.2.5-.3l.2-.2.6-.3.2-.2.2-.1a1.382,1.382,0,0,0,.4-.3l.3-.2,1-1,.1-.2c.2-.2.3-.4.5-.6.1-.1.1-.2.2-.3l.1-.2c.2-.2.4-.5.6-.7a1.4,1.4,0,0,0,.3-.4l.2-.3.1-.1c.1-.1.1-.2.2-.3,0-.1.1-.1.1-.2l.3-.3.2-.4.1-.1v-.1a.1.1,0,0,1,.1-.1c0-.1.1-.1.1-.2a.1.1,0,0,1,.1-.1l.1-.2.1-.1.2-.3v-.2l.1-.2c0-.1,0-.1.1-.2l.1-.2.1-.3v-.1l.1-.1c0-.1,0-.1.1-.2,0-.1.1-.1.1-.2l.1-.1v-.1l.1-.2c0-.1.1-.1.1-.2s.1-.1.1-.2a.349.349,0,0,1,.1-.2v-.2a.349.349,0,0,1,.1-.2c0-.1,0-.1.1-.2,0-.1,0-.1.1-.2v-.2c0-.1.1-.2.1-.3v-.9a.1.1,0,0,1,.1-.1v-.6c0-.1.1-.2.1-.3V8.5c.1-.3.1-.6.2-1A8.6,8.6,0,0,0,33,5.9Z"/>
  </g>
</svg>
