<svg xmlns="http://www.w3.org/2000/svg" viewBox="0 0 283.4 286.5" xmlns:v="https://vecta.io/nano"><path d="M0 0h283.2v286.4H0z" fill="#9aa4bd"/><path d="M258.1 249.6c-.6.1-1.1.3-1.7.5-.3.1-.5.3-.8.5-.2.1-.3.3-.4.5a3.04 3.04 0 0 0-.5.7c-.2.3-.3.6-.4.9-.3.9-.5 1.9-.4 2.9 0 .5 0 1 .1 1.6.1.5.1 1 .2 1.6.1 1.1.3 2.1.5 3.2l.5 3c.2 1 .5 1.9.8 2.9l.7 2.5.8 2.4c.3.7.5 1.4.7 2.1l1 2.5c.1.2.4.4.6.5.5.1 1.1-.1 1.2-.6h.1c.2-.1.4-.4.5-.6.1-.4.1-.7.2-1v-.6c0-.2 0-.4.1-.5 0-.3.1-.7.1-1s.1-.5.1-.8.1-.7.1-1c.1-.5 0-.9.1-1.4.1-.3.1-.7.2-1 0-.3.1-.7.2-1.1l.3-1.5c.1-.5.2-.9.2-1.4.1-.4.1-.8.2-1.1v.1c.1-.5.2-1.1.2-1.6.1-.6.1-1 .1-1.5.1-1 0-2 0-3 0-.5-.1-1-.1-1.6s-.1-1.3-.2-1.9l-.3-1.3c-.1-.5-.3-.9-.5-1.4-.4-1-1.2-1.8-2.1-2.2-.3-.1-.7-.2-1-.2-.7-.1-1-.1-1.4-.1h0zm1.3 2h.1c.1 0 .2.1.3.2l.3.3c.2.3.4.6.5.9l.3 1c.1.3.2.7.2 1.1.1.6.1 1.3.1 2s.1 1.4.1 2c0 1.2 0 2.4-.2 3.6-.1.4-.1.8-.2 1.2s-.1.9-.2 1.3-.2 1-.2 1.4c0 .3-.1.5-.1.8s-.1.6-.1.8-.1.6-.1.9v-.3l-.3 1.8v.7c0 .2-.1.5-.1.7-.1.4-.1.8-.2 1.2v-.1l-.9-2.6-1.6-5.8c-.3-1-.4-2-.6-3l-.5-2.8-.2-2.4c-.1-.8-.1-1.5 0-2.3l.3-1.2c.1-.3.3-.5.4-.7l.4-.4c.1-.1.2-.2.4-.2l1.1-.3c.4.2.7.2 1 .2h0zm3.8 12.2h0c0 .1 0 0 0 0zm-1 6.4h0zm-2.4 3v.1-.1zm2.6-4.1v.1-.1zm9-20.7c-.2.1-.5.1-.7.2-.6.2-1.1.5-1.6.9-.3.3-.6.7-.9 1.1-.5.8-.9 1.7-1.2 2.7-.3.9-.4 1.9-.4 2.9v1.5c0 .5.1 1 .1 1.5s.1 1 .1 1.6c0 .5.1 1.1.2 1.7l.5 2.9c0 .2.1.5.1.7s.1.5.2.7l.3 1.5.7 2.6c.1.2.1.5.2.7l.4 2.4.3 1.1c.1.4.3.8.4 1.2.1.3.2.5.5.6.1.1.3.1.4.1.1.4.4.6.7.7.6.2 1.1-.2 1.3-.7.1-.2.1-.4.1-.6s.1-.3.1-.5c.1-.2.1-.5.2-.7s.1-.4.1-.7.1-.5.2-.8l.7-2.7.6-3c.1-.5.2-.9.2-1.4l.3-1.4.6-3.3.3-1.6c.1-.5.1-1.1.2-1.7 0-.1 0-.3.1-.4.1-.5.1-1.1.1-1.6v-1.4c0-.6-.1-1.2-.2-1.7s-.2-1-.4-1.4c-.1-.5-.4-.9-.6-1.3-.3-.5-.7-.9-1.1-1.3-.4-.3-.8-.6-1.2-.8-.2-.1-.4-.2-.7-.2-.1 0-.3-.1-.4-.1-.4-.1-.6 0-.8 0h0zm.5 2h.1c.2.1.5.3.7.4.3.3.6.6.8.9.1.2.3.4.4.6l.3 1 .3 1.2c.1.5.1 1.1.1 1.6 0 .6 0 1.2-.1 1.8s-.2 1.3-.2 1.9c-.1.9-.3 1.9-.5 2.8l-.3 1.6-.3 1.4-.5 2.9-.6 2.8-.6 2.5v-.1c-.2-.6-.3-1.3-.4-1.9 0-.4-.1-.9-.2-1.3l-.3-1.2c-.3-.8-.5-1.7-.7-2.6l-.3-1.3c-.1-.4-.2-.9-.2-1.4-.2-.8-.3-1.7-.4-2.5-.1-.5-.1-1.1-.1-1.6s-.1-1.1-.1-1.7c-.1-1.1 0-2.1.1-3.2.1-.8.3-1.6.6-2.4.2-.5.5-1 .9-1.4.1-.2.3-.3.4-.4l.6-.3c.1 0 .3 0 .5-.1h0zm-.1 0h0zm1.8 1.5h0zm.9 6.1h0v.2-.2zm2.1.3v.2-.2zM12.1 7.8c-.6.1-1.1.3-1.7.5-.3.1-.5.3-.8.5 0 .2-.2.3-.3.5-.2.2-.4.5-.6.7-.2.3-.3.6-.4.9-.3.9-.5 1.9-.4 2.9 0 .5 0 1 .1 1.6.1.5.1 1 .2 1.6.1 1.1.3 2.1.5 3.2l.5 3c.2 1 .5 1.9.8 2.9l.7 2.5.8 2.4c.3.7.5 1.4.7 2.1l1 2.5c.1.2.4.4.6.5.5.1 1.1-.1 1.2-.6h.1c.2-.1.4-.4.5-.6.1-.4.1-.7.2-1v-.6c0-.2 0-.4.1-.5 0-.3.1-.7.1-1s.1-.5.1-.8c0-.2.1-.7.1-1 .1-.5 0-.9.1-1.4.1-.3.1-.7.2-1 0-.3.1-.7.2-1.1L17 25c.1-.5.2-.9.2-1.4.1-.4.1-.8.2-1.1v.1c.1-.5.2-1.1.2-1.6.1-.6.1-1 .1-1.5.1-1 0-2 0-3 0-.5-.1-1-.1-1.6s-.1-1.3-.2-1.9l-.3-1.3c-.1-.5-.3-.9-.5-1.4-.4-1-1.2-1.8-2.1-2.2-.3-.1-.7-.2-1-.2-.6-.1-1-.1-1.4-.1h0zm1.4 2h.1c.1 0 .2.1.3.2l.3.3c.2.3.4.6.5.9l.3 1c.1.3.2.7.2 1.1.1.6.1 1.3.1 2 .1.7.1 1.4.1 2 0 1.2 0 2.4-.2 3.6-.1.4-.1.8-.2 1.2s-.1.9-.2 1.3-.2 1-.2 1.4c0 .3-.1.5-.1.8s-.1.6-.1.8c0 .3-.1.6-.1.9V27l-.3 1.8v.7c0 .2-.1.5-.1.7-.1.4-.1.8-.2 1.2v-.1l-.9-2.6-1.6-5.8-.6-3-.5-2.8-.2-2.4c-.1-.8-.1-1.5 0-2.3l.3-1.2c.1-.3.3-.5.4-.7l.4-.4c.1-.1.2-.2.4-.2l1.1-.3c.4.2.7.2 1 .2h0zM17.3 22h0c0 .1 0 0 0 0zm-1 6.4h0zm-2.4 3v.1-.1zm2.5-4v.1-.3c.1.1.1.1 0 .2h0zm9-20.8c-.2.1-.5.1-.7.2-.6.2-1.1.5-1.6.9-.3.3-.6.7-.9 1.1-.5.8-.9 1.7-1.2 2.7-.3.9-.4 1.9-.4 2.9v1.5c0 .5.1 1 .1 1.5s.1 1 .1 1.6c0 .5.1 1.1.2 1.7l.5 2.9c0 .2.1.5.1.7s.1.5.2.7l.3 1.5.7 2.6c.1.2.1.5.2.7l.4 2.4.3 1.1c.1.4.3.8.4 1.2.1.3.2.5.5.6.1.1.3.1.4.1.1.4.4.6.7.7.6.2 1.1-.2 1.3-.7.1-.2.1-.4.1-.6s.1-.3.1-.5c.1-.2.1-.5.2-.7s.1-.4.1-.7.1-.5.2-.8l.7-2.7.6-3c.1-.5.2-.9.2-1.4l.3-1.4.6-3.3.3-1.6c.1-.5.1-1.1.2-1.7 0-.1 0-.3.1-.4.1-.5.1-1.1.1-1.6v-1.4c0-.6-.1-1.2-.2-1.7s-.2-1-.4-1.4c-.2-.5-.4-.9-.7-1.3-.3-.5-.7-.9-1.1-1.3-.4-.3-.8-.6-1.2-.8-.2-.1-.4-.2-.7-.2-.1 0-.3-.1-.4-.1-.3-.1-.4 0-.7 0h0zm.6 2h.1c.2.1.5.3.7.4.3.3.6.6.8.9.1.2.3.4.4.6l.3 1 .3 1.2c.1.5.1 1.1.1 1.6 0 .6 0 1.2-.1 1.8s-.2 1.3-.2 1.9l-.6 2.9-.3 1.6-.3 1.4-.5 2.9-.6 2.8-.6 2.5V32c-.2-.6-.3-1.3-.4-1.9 0-.4-.1-.9-.2-1.3l-.3-1.2c-.3-.8-.5-1.7-.7-2.6l-.3-1.3c-.1-.4-.2-.9-.2-1.4-.2-.8-.3-1.7-.4-2.5-.1-.5-.1-1.1-.1-1.6s-.1-1.1-.1-1.7c-.1-1.1 0-2.1.1-3.2.1-.8.3-1.6.6-2.4.2-.5.5-1 .9-1.4.1-.2.3-.3.4-.4l.6-.3c.1-.1.4-.1.6-.2h0zm-.1 0h0zm1.8 1.5h0zm.9 6.1h0v.2-.2zm2 .3v.2-.2z" fill="#fefefe"/></svg>