<?xml version="1.0" encoding="utf-8"?>
<!-- Generator: Adobe Illustrator 24.2.0, SVG Export Plug-In . SVG Version: 6.00 Build 0)  -->
<svg version="1.1" id="Layer_1" xmlns="http://www.w3.org/2000/svg" xmlns:xlink="http://www.w3.org/1999/xlink" x="0px" y="0px"
	 viewBox="0 0 28.1 24.4" style="enable-background:new 0 0 28.1 24.4;" xml:space="preserve">
<style type="text/css">
	.st0{fill:#FEFEFE;}
</style>
<g>
	<path class="st0" d="M20.2,0L20,0c-0.3,0-0.6,0.1-0.9,0.1h-0.9c-0.3,0-0.6,0-0.9,0.1c-0.2,0.1-0.4,0.2-0.6,0.4
		c-0.2,0.2-0.3,0.4-0.4,0.6c-0.1,0.1-0.1,0.2-0.1,0.3c-0.1,0.4-0.1,0.7-0.1,1.1v1.9c-0.1,0.7,0,1.4-0.1,2.1L15.9,7
		c-0.1,0.3-0.1,0.7-0.1,1c0,0.5,0,1.1-0.1,1.6v0.1c-0.1,0.3-0.1,0.7-0.1,1v2.6c0,0.3,0.1,0.6,0.2,0.8c0.2,0.4,0.7,0.7,1.2,0.7h9.2
		c0.3,0,0.5,0,0.8-0.1c0.3-0.1,0.6-0.3,0.8-0.6c0.1-0.1,0.2-0.2,0.2-0.4c0.1-0.5,0.1-0.9,0.1-1.4V5.5c0-0.3-0.1-0.6-0.1-0.9
		c-0.1-0.3-0.1-0.5-0.1-0.8V1.9C28,1.3,27.6,0.8,27,0.7c-0.2-0.2-0.5-0.3-0.8-0.3h-0.7L25,0.3c-0.4-0.1-0.7-0.1-1.1-0.1h-3.4
		C20.3,0.1,20,0.1,20.2,0z M24.5,2.7c0.3,0,0.6,0.1,0.9,0.1v0.6c0,0.5,0.1,1,0.1,1.5l0.1,2.9v4.7h-7.7V10c0-0.5,0.1-0.9,0.1-1.4v-1
		c0.1-0.5,0.2-0.9,0.2-1.4V2.7h0.1c0.4,0,0.7,0,1.1-0.1c0.5,0,0.9,0,1.4,0.1h1.4H24.5z M17.8,10.1L17.8,10.1z M17.8,10L17.8,10
		L17.8,10z"/>
	<path class="st0" d="M21.4,12.8c-0.2,0-0.4,0.1-0.6,0.2c-0.5,0.4-0.7,1.1-0.4,1.7l2.3,4.6l-0.6-0.6l-1.2-1.3
		c-0.4-0.4-0.7-0.8-1-1.2l0.2,0.3c-0.1-0.2-0.3-0.4-0.4-0.6l0.1,0.1c-0.4-0.6-0.9-1.1-1.3-1.6l0.1,0.2c-0.2-0.3-0.4-0.6-0.7-0.8
		l-0.1-0.1l0,0c0.1,0,0.1,0,0.1,0.1l0,0c-0.1-0.2-0.4-0.3-0.6-0.4c-0.3-0.1-0.6-0.1-0.9,0.1c-0.3,0.1-0.5,0.4-0.6,0.7
		c-0.1,0.3-0.1,0.6,0.1,0.9l0.8,0.8c0.1,0.3,0.3,0.5,0.5,0.7c0.2,0.3,0.5,0.6,0.7,0.9l0.3,0.3L18,17.6c0.4,0.6,0.9,1.1,1.3,1.6
		c0.2,0.3,0.4,0.5,0.6,0.7c0.2,0.3,0.5,0.6,0.8,0.8l1.7,1.5c0.5,0.5,1,0.9,1.6,1.3c0.3,0.3,0.6,0.5,0.9,0.7c0.5,0.3,1,0.3,1.5,0.1
		c0.3-0.2,0.5-0.5,0.6-0.8c0.1-0.2,0.1-0.5,0-0.7c-0.2-0.7-0.4-1.4-0.7-2l-1.7-3.6l-0.9-1.9l-0.9-1.8C22.5,13.1,21.9,12.8,21.4,12.8
		z M18.1,13.9L18,13.8L18.1,13.9z"/>
	<path class="st0" d="M23.9,0.9L23.9,0.9C23.6,1,23.4,1,23.1,1.1l-0.4,0.1h-1.1c-0.7,0-1.3-0.1-1.8,0.4c-0.2,0.2-0.3,0.4-0.4,0.6
		c-0.2-0.1-0.4-0.1-0.6-0.1c-0.6,0-1.2,0.5-1.3,1.1v1.9c0,0.5,0.1,1.1,0.1,1.6l0.2,3.2v1.9c0,0.5,0.1,1,0.3,1.5
		c0.3,0.4,0.5,1,0.4,1.5c0.1,0.1,0.3,0.4,0.4,0.5c0.1,0.2,0.2,0.3,0.3,0.5c0.1,0.2,0.3,0.4,0.4,0.6l1.9,2.3c0.1,0.1,0.2,0.3,0.3,0.4
		l0.5,0.6c0.1,0.3,0.4,0.5,0.7,0.6c0.3,0.1,0.6,0.1,0.9-0.1c0.3-0.1,0.5-0.4,0.6-0.7c0.1-0.3,0.1-0.6-0.1-0.9l-0.9-1.2l0,0
		c-0.3-0.4-0.6-0.8-0.9-1.1c-0.3-0.3-0.6-0.7-0.9-1l-0.4-0.5l0.2,0.3L20.7,14l0,0c-0.1,0-0.2-0.1-0.2-0.2c0-0.1,0-0.3,0.1-0.4
		c0-0.2,0.1-0.3,0.2-0.4c0.1,0,0.2,0.1,0.3,0.1c0.3,0.1,0.5,0.1,0.8,0c0.2,0,0.4-0.1,0.5-0.2l0.3-0.3h0.4c0.1,0.3,0.2,0.5,0.4,0.7
		c0.3,0.3,0.6,0.6,1,0.7h0.2c0,0,0,0,0.1,0c1,0.3,2.1-0.4,2.3-1.4v-0.9C27,11.3,27,11,26.9,10.6l-0.3-1.8c-0.1-0.3-0.2-0.6-0.2-0.9
		c0.1-0.1,0.1-0.3,0.1-0.5V4.9c0-0.3-0.1-0.6-0.2-0.9c-0.1-0.2-0.3-0.4-0.5-0.6l-0.1-0.1c0-0.2-0.1-0.4-0.2-0.6
		C25.4,2.4,25.2,2.2,25,2c-0.2-0.1-0.3-0.2-0.4-0.3C24.2,1.3,23.8,1.1,23.9,0.9z M4.5,0L4.3,0C4,0,3.7,0.1,3.4,0.1H2.6
		c-0.3,0-0.6,0-0.9,0.1C1.5,0.3,1.3,0.4,1.1,0.6C0.9,0.8,0.8,1,0.7,1.2C0.6,1.3,0.6,1.4,0.6,1.5C0.5,1.9,0.5,2.2,0.5,2.6v1.9
		c0,0.7,0,1.4-0.1,2.1C0.3,6.7,0.3,6.9,0.3,7C0.2,7.3,0.2,7.7,0.2,8c0,0.5,0,1.1-0.1,1.6v0.1C0,10,0,10.4,0,10.7l0,2.6
		c0,0.3,0.1,0.6,0.2,0.8c0.2,0.4,0.7,0.7,1.2,0.7h9.2c0.3,0,0.5,0,0.8-0.1c0.3-0.1,0.6-0.3,0.8-0.6c0.1-0.1,0.2-0.2,0.2-0.4
		c0.1-0.5,0.1-0.9,0.1-1.4V5.5c-0.1-0.3-0.1-0.6-0.1-0.9c-0.1-0.3-0.1-0.5-0.1-0.8V1.9c0.1-0.6-0.3-1.1-0.9-1.2
		c-0.2-0.2-0.5-0.3-0.8-0.3H9.9c-0.2,0-0.3-0.1-0.5-0.1C9,0.2,8.7,0.2,8.3,0.2H5C4.8,0.1,4.5,0.1,4.5,0z M8,2.8h1
		c0.3,0,0.6,0.1,0.9,0.1v0.6C9.9,4,10,4.5,10,5l0.1,2.9v4.7H2.4V10c0.1-0.5,0.1-0.9,0.1-1.4v-1c0.1-0.5,0.2-0.9,0.2-1.4V2.7h0.1
		c0.4,0,0.7,0,1.1-0.1c0.5,0,0.9,0,1.4,0.1h1.4L8,2.8z M2.3,10.1L2.3,10.1z M2.3,10L2.3,10L2.3,10z"/>
	<path class="st0" d="M6.1,12.6c-0.2,0-0.4,0.1-0.6,0.2c-0.6,0.4-0.8,1.1-0.5,1.7l1.8,3.6c0.1,0.3,0.3,0.7,0.5,1l-0.6-0.6l-1.2-1.3
		c-0.4-0.4-0.7-0.8-1-1.2l-0.2-0.3l0.1,0.1c-0.4-0.6-0.9-1.1-1.3-1.6l0.1,0.2c-0.2-0.3-0.4-0.5-0.7-0.7l-0.1-0.1l0,0
		c0.1,0,0.1,0,0.1,0.1l0,0c-0.1-0.2-0.4-0.3-0.6-0.4c-0.7-0.1-1.3,0.3-1.5,0.9c-0.1,0.3-0.1,0.6,0.1,0.9l0.8,0.8
		c0.1,0.3,0.3,0.5,0.5,0.7c0.2,0.3,0.5,0.6,0.7,0.9l0.3,0.3l-0.2-0.2c0.4,0.6,0.9,1.1,1.3,1.6c0.2,0.3,0.4,0.5,0.6,0.7
		c0.2,0.3,0.5,0.6,0.8,0.8l1.6,1.5c0.5,0.5,1,0.9,1.6,1.3c0.3,0.3,0.6,0.5,0.9,0.7c0.5,0.3,1,0.3,1.5,0.1c0.3-0.2,0.5-0.5,0.6-0.8
		c0.1-0.2,0.1-0.5,0-0.7c-0.2-0.7-0.4-1.4-0.7-2l-1.7-3.6l-0.9-1.9l-0.9-1.8C7.1,13.1,6.7,12.9,6.1,12.6z M2.6,13.9l-0.1-0.1
		L2.6,13.9z"/>
	<path class="st0" d="M1.9,3v1.9C1.9,5.4,2,6,2,6.5l0.2,3.2v1.9c0,0.5,0.1,1,0.3,1.5c0,0.1,0.1,0.1,0.1,0.2c-0.1,0.5,0,1,0.3,1.4
		c0.1,0.1,0.3,0.4,0.4,0.5c0.1,0.2,0.2,0.3,0.3,0.5s0.3,0.4,0.4,0.6l1.9,2.3C6,18.7,6.1,18.9,6.2,19l0.5,0.6
		c0.1,0.3,0.4,0.5,0.7,0.6c0.3,0.1,0.6,0.1,0.9-0.1c0.3-0.1,0.5-0.4,0.6-0.7C9,19.1,9,18.8,8.8,18.5l-0.9-1.2
		c-0.3-0.4-0.6-0.8-0.9-1.1c-0.3-0.3-0.6-0.7-0.9-1l-0.4-0.5L5.9,15l-0.8-1.1c-0.1,0-0.1-0.1-0.2-0.2c0-0.1,0-0.3,0.1-0.4
		c0-0.2,0.1-0.3,0.2-0.4c0.1,0,0.2,0.1,0.3,0.1c0.3,0.1,0.5,0.1,0.8,0c0.2,0,0.4-0.1,0.5-0.2l0.3-0.3h0.4c0.1,0.3,0.2,0.5,0.4,0.7
		c0.3,0.3,0.6,0.6,1,0.7c0.6,0.3,1.3,0.2,1.8-0.2c0.4-0.2,0.7-0.6,0.8-1.1c0.1-0.3,0.1-0.6,0.1-0.9c-0.1-0.4-0.1-0.7-0.2-1.1
		l-0.3-1.8C11,8.5,11,8.2,10.9,7.9C11,7.8,11,7.6,11,7.4V4.9c0-0.3-0.1-0.6-0.2-0.9c-0.1-0.2-0.3-0.4-0.5-0.6l-0.1-0.1
		c0-0.2-0.1-0.4-0.2-0.6C9.9,2.4,9.7,2.2,9.5,2C9.3,1.9,9.2,1.8,9.1,1.7c-0.4-0.4-0.8-0.6-0.8-1C8,0.8,7.8,0.8,7.5,0.9L7.1,1H6
		C5.3,1,4.7,0.9,4.2,1.4C4,1.6,3.9,1.8,3.8,2C3.6,1.9,3.4,1.9,3.2,1.9C2.6,1.9,2,2.4,1.9,3z"/>
</g>
</svg>
