<?xml version="1.0" encoding="utf-8"?>
<!-- Generator: Adobe Illustrator 24.3.0, SVG Export Plug-In . SVG Version: 6.00 Build 0)  -->
<svg version="1.1" id="Layer_1" xmlns:v="https://vecta.io/nano"
	 xmlns="http://www.w3.org/2000/svg" xmlns:xlink="http://www.w3.org/1999/xlink" x="0px" y="0px" viewBox="0 0 2647 1407.3"
	 style="enable-background:new 0 0 2647 1407.3;" xml:space="preserve">
<style type="text/css">
	.st0{fill:#FFFFFF;}
</style>
<g>
	<path class="st0" d="M1176.9,27.6c-0.1,1.8,1.4,3.3,3.2,3.4s3.3-1.4,3.4-3.2s-1.4-3.3-3.2-3.4l0,0
		C1178.5,24.3,1177,25.7,1176.9,27.6z"/>
	<g>
		<path id="B" class="st0" d="M1262.8,159.6c-0.1,1.8,1.4,3.3,3.2,3.4s3.3-1.4,3.4-3.2s-1.4-3.3-3.2-3.4l0,0
			C1264.4,156.4,1262.9,157.8,1262.8,159.6z"/>
	</g>
	<path class="st0" d="M2325.7,109.4c0,1.8,1.4,3.3,3.2,3.4c1.8,0,3.3-1.4,3.4-3.2c0-1.8-1.4-3.3-3.2-3.4l0,0c-1.8-0.1-3.3,1.2-3.4,3
		V109.4z"/>
	<g>
		<path id="B_1_" class="st0" d="M2348.4,183.8c-0.1,1.8,1.4,3.3,3.2,3.4c1.8,0.1,3.3-1.4,3.4-3.2s-1.4-3.3-3.2-3.4l0,0
			C2350,180.6,2348.5,182,2348.4,183.8z"/>
	</g>
	<g>
		<path id="B_2_" class="st0" d="M130.3,340.5c-0.1,1.8,1.4,3.3,3.2,3.4s3.3-1.4,3.4-3.2c0.1-1.8-1.4-3.3-3.2-3.4l0,0
			C131.9,337.3,130.4,338.7,130.3,340.5z"/>
	</g>
	<path class="st0" d="M71.9,34.6c-0.1,1.8,1.3,3.3,3.1,3.4h0.1c1.8,0.1,3.3-1.4,3.4-3.2s-1.4-3.3-3.2-3.4l0,0
		C73.5,31.4,72,32.8,71.9,34.6z M224.8,102.3c-0.1,1.8,1.4,3.3,3.2,3.4s3.3-1.4,3.4-3.2s-1.4-3.3-3.2-3.4l0,0
		C226.4,99,224.9,100.4,224.8,102.3C224.8,102.2,224.8,102.3,224.8,102.3z"/>
	<g>
		<path id="B_3_" class="st0" d="M436.6,189c-0.1,1.8,1.4,3.3,3.2,3.4s3.3-1.4,3.4-3.2s-1.4-3.3-3.2-3.4l0,0
			C438.2,185.8,436.7,187.2,436.6,189z"/>
	</g>
	<path class="st0" d="M1605.4,76.4c0,1.8,1.4,3.3,3.2,3.4c1.8,0,3.3-1.4,3.4-3.2c0-1.8-1.4-3.3-3.2-3.4
		C1607,73.1,1605.5,74.5,1605.4,76.4z M2381.9,68.8c0,1.8,1.4,3.3,3.2,3.4c1.8,0,3.3-1.4,3.4-3.2c0-1.8-1.4-3.3-3.2-3.4l0,0
		C2383.5,65.6,2382,67,2381.9,68.8z M1325.6,114.5c0,1.8,1.4,3.3,3.2,3.4c1.8,0,3.3-1.4,3.4-3.2c0-1.8-1.4-3.3-3.2-3.4
		C1327.2,111.3,1325.7,112.7,1325.6,114.5z M180.7,284.3c-0.1,3.5,2.7,6.4,6.2,6.5s6.4-2.7,6.5-6.2s-2.7-6.4-6.2-6.5
		C183.7,278.1,180.9,280.8,180.7,284.3z"/>
	<g>
		<path id="C" class="st0" d="M481.5,29.4c-0.1,3.5,2.7,6.4,6.2,6.5s6.4-2.7,6.5-6.2s-2.7-6.4-6.2-6.5l0,0
			C484.5,23.1,481.6,25.9,481.5,29.4z"/>
	</g>
	<path class="st0" d="M172,89.4c-0.1,3.5,2.7,6.4,6.2,6.5s6.4-2.7,6.5-6.2s-2.7-6.4-6.2-6.5l0,0C175,83.2,172.2,85.9,172,89.4z"/>
	<g>
		<path id="C_1_" class="st0" d="M0,152.7c-0.1,3.5,2.7,6.4,6.2,6.5c3.5,0.1,6.4-2.7,6.5-6.2s-2.7-6.4-6.2-6.5l0,0
			C3,146.4,0.1,149.2,0,152.7z"/>
	</g>
	<g>
		<path id="D" class="st0" d="M1109.8,143.4c-0.1,3.5,2.7,6.4,6.2,6.5s6.4-2.7,6.5-6.2s-2.7-6.4-6.2-6.5S1109.9,139.9,1109.8,143.4z
			"/>
	</g>
	<g>
		<path id="C_2_" class="st0" d="M963.6,63.3c-0.1,3.5,2.7,6.4,6.2,6.5s6.4-2.7,6.5-6.2c0.1-3.5-2.7-6.4-6.2-6.5l0,0
			C966.6,57,963.7,59.8,963.6,63.3z"/>
	</g>
	<g>
		<path id="E" class="st0" d="M1325.7,6.2c-0.1,3.5,2.7,6.4,6.2,6.5s6.4-2.7,6.5-6.2s-2.7-6.4-6.2-6.5l0,0
			C1328.7,0,1325.8,2.7,1325.7,6.2z"/>
	</g>
	<g>
		<path id="D_1_" class="st0" d="M1453.6,153.9c-0.1,3.5,2.7,6.4,6.2,6.5s6.4-2.7,6.5-6.2c0.1-3.5-2.7-6.4-6.2-6.5
			S1453.7,150.4,1453.6,153.9z"/>
	</g>
	<g>
		<path id="C_3_" class="st0" d="M1734,132.5c-0.1,3.5,2.7,6.4,6.2,6.5s6.4-2.7,6.5-6.2c0.1-3.5-2.7-6.4-6.2-6.5l0,0
			C1737,126.2,1734.1,129,1734,132.5z"/>
	</g>
	<g>
		<path id="E_1_" class="st0" d="M1575.1,42.5c-0.1,3.5,2.7,6.4,6.2,6.5s6.4-2.7,6.5-6.2s-2.7-6.4-6.2-6.5l0,0
			C1578.1,36.3,1575.2,39,1575.1,42.5z"/>
	</g>
	<g>
		<path id="D_2_" class="st0" d="M1968.5,55.1c-0.1,3.5,2.7,6.4,6.2,6.5s6.4-2.7,6.5-6.2c0.1-3.5-2.7-6.4-6.2-6.5
			S1968.6,51.6,1968.5,55.1z"/>
	</g>
	<path class="st0" d="M2085.7,128.5c-0.1,3.5,2.7,6.4,6.2,6.5s6.4-2.7,6.5-6.2s-2.7-6.4-6.2-6.5l0,0
		C2088.7,122.3,2085.9,125,2085.7,128.5z"/>
	<g>
		<path id="C_4_" class="st0" d="M2219.1,23.3c-0.1,3.5,2.7,6.4,6.2,6.5s6.4-2.7,6.5-6.2c0.1-3.5-2.7-6.4-6.2-6.5l0,0
			C2222.1,17,2219.2,19.8,2219.1,23.3z"/>
	</g>
	<g>
		<path id="E_2_" class="st0" d="M2297.6,166.6c-0.1,3.5,2.7,6.4,6.2,6.5c3.5,0.1,6.4-2.7,6.5-6.2c0.1-3.5-2.7-6.4-6.2-6.5l0,0
			C2300.6,160.4,2297.7,163.1,2297.6,166.6z"/>
	</g>
	<path class="st0" d="M2512.7,238.8c-0.1,3.5,2.7,6.4,6.2,6.5s6.4-2.7,6.5-6.2s-2.7-6.4-6.2-6.5
		C2515.7,232.6,2512.8,235.3,2512.7,238.8z"/>
	<g>
		<path id="C_5_" class="st0" d="M2634.3,196.8c-0.1,3.5,2.7,6.4,6.2,6.5c3.5,0.1,6.4-2.7,6.5-6.2c0.1-3.5-2.7-6.4-6.2-6.5l0,0
			C2637.3,190.5,2634.4,193.3,2634.3,196.8z"/>
	</g>
	<path class="st0" d="M1379.8,423.8c0.1,1.1,1,2,2.1,1.9s2-1,1.9-2.1s-1-1.9-2.1-1.9C1380.6,421.8,1379.8,422.7,1379.8,423.8z
		 M704.8,620.7c0.1,1.1,1,2,2.1,1.9c1.1,0,1.9-0.9,1.9-2v-0.2c-0.1-1.1-1-2-2.1-1.9S704.7,619.6,704.8,620.7L704.8,620.7z
		 M404.8,305.9c0.1,1.1,1,1.9,2.1,1.9c1.1-0.1,2-1,1.9-2.1s-1-1.9-2.1-1.9s-1.9,0.9-1.9,2V305.9z"/>
	<g>
		<path id="F" class="st0" d="M693.3,270.5c0.1,1.1,1,2,2.1,1.9s2-1,1.9-2.1s-1-1.9-2.1-1.9C694.1,268.5,693.2,269.4,693.3,270.5z"
			/>
	</g>
	<path class="st0" d="M1686.9,335.7c0.1,1.1,1,2,2.1,1.9s2-1,1.9-2.1s-1-2-2.1-1.9S1686.8,334.6,1686.9,335.7z"/>
	<g>
		<path id="F_1_" class="st0" d="M1841.9,290.2c0.1,1.1,1,2,2.1,1.9c1.1-0.1,2-1,1.9-2.1c-0.1-1.1-1-1.9-2.1-1.9
			C1842.7,288.2,1841.8,289.1,1841.9,290.2z"/>
	</g>
	<path class="st0" d="M1797.6,351.8c0.1,1.1,1,2,2.1,1.9s2-1,1.9-2.1s-1-2-2.1-1.9c-1.1,0-1.9,0.9-1.9,2V351.8z M2086.3,382.5
		c0.1,1.1,1,2,2.1,1.9c1.1,0,1.9-0.9,1.9-2v-0.2c-0.1-1.1-1-2-2.1-1.9S2086.3,381.4,2086.3,382.5z M2228.8,296.8
		c0.1,1.1,1,2,2.1,1.9s2-1,1.9-2.1s-1-2-2.1-1.9S2228.7,295.7,2228.8,296.8z"/>
	<g>
		<path id="F_2_" class="st0" d="M2143.9,210.1c0.1,1.1,1,2,2.1,1.9c1.1-0.1,2-1,1.9-2.1c-0.1-1.1-1-1.9-2.1-1.9
			C2144.7,208.1,2143.8,209,2143.9,210.1z"/>
	</g>
	<path class="st0" d="M2012.9,224.5c0.1,1.1,1,2,2.1,1.9s2-1,1.9-2.1l0,0c-0.1-1.1-1.1-2-2.2-1.9S2012.8,223.4,2012.9,224.5
		L2012.9,224.5z"/>
	<g>
		<path id="F_3_" class="st0" d="M2479.9,424.5c0.1,1.1,1,2,2.1,1.9c1.1-0.1,2-1,1.9-2.1c-0.1-1.1-1-1.9-2.1-1.9
			C2480.7,422.5,2479.8,423.4,2479.9,424.5z"/>
	</g>
	<path class="st0" d="M233.3,469.3c0.1,1.1,1,2,2.1,1.9s1.9-1,1.9-2.1c-0.1-1.1-1-2-2.1-1.9S233.2,468.2,233.3,469.3z M1511,248.6
		c0.1,1.1,1,2,2.1,1.9s2-1,1.9-2.1s-1-2-2.1-1.9l0,0C1511.8,246.7,1511,247.5,1511,248.6z M1627.6,354.2c0.1,1.1,1,2,2.1,1.9
		s2-1,1.9-2.1s-1-2-2.1-1.9C1628.4,352.3,1627.6,353.1,1627.6,354.2z M1897.5,351.5c0.1,1.1,1,2,2.1,1.9s2-1,1.9-2.1s-1-1.9-2.1-1.9
		s-1.9,0.9-1.9,2V351.5z M2347.5,445.6c0.1,1.1,1,2,2.1,1.9s2-1,1.9-2.1s-1-1.9-2.1-1.9s-1.9,0.9-1.9,2V445.6z"/>
	<g>
		<path id="F_4_" class="st0" d="M2495.6,370.3c0.1,1.1,1,2,2.1,1.9c1.1-0.1,2-1,1.9-2.1c-0.1-1.1-1-1.9-2.1-1.9
			C2496.4,368.3,2495.5,369.2,2495.6,370.3z"/>
	</g>
	<path class="st0" d="M985.4,323c-1.7,0.1-3,1.5-2.9,3.2c0.1,1.7,1.5,3,3.2,2.9s3-1.5,2.9-3.2C988.5,324.2,987.1,322.9,985.4,323z"
		/>
	<path class="st0" d="M1208.9,334.5c-1.6,0.1-2.9,1.5-2.8,3.2c0.1,1.7,1.5,2.9,3.2,2.8c1.7-0.1,2.9-1.5,2.8-3.2
		C1212,335.6,1210.6,334.4,1208.9,334.5z"/>
	<path class="st0" d="M878.4,418.9c-1.6,0-3,1.4-2.9,3.2c0.1,1.7,1.6,3,3.2,2.9c1.6-0.1,2.9-1.5,2.9-3.2
		C881.5,420.1,880.1,418.8,878.4,418.9z"/>
	<path class="st0" d="M619.5,249.8c-1.7,0.2-3,1.6-2.9,3.3c0.1,1.7,1.5,2.9,3.2,2.8s2.9-1.5,2.8-3.2v-0.1
		C622.5,251,621.1,249.7,619.5,249.8z"/>
	<path class="st0" d="M1963.6,245.8L1963.6,245.8c-1.7,0.1-3,1.5-2.9,3.1c0.1,1.7,1.4,3,3.1,2.9c1.7-0.1,3-1.4,2.9-3.1
		C1966.6,247,1965.3,245.7,1963.6,245.8z"/>
	<path class="st0" d="M2420.4,667.4c-1.7,0.1-2.9,1.5-2.9,3.2c0.1,1.7,1.6,2.9,3.2,2.8s2.8-1.5,2.8-3.2
		C2423.4,668.6,2422,667.4,2420.4,667.4z"/>
	<path class="st0" d="M2608.3,802.6c-1.7,0.1-3,1.5-2.9,3.2s1.5,3,3.2,2.9s3-1.5,2.9-3.2S2610,802.5,2608.3,802.6z"/>
	<path class="st0" d="M2321.1,325.2c-1.7,0.1-3,1.5-2.9,3.2s1.5,3,3.2,2.9c1.7-0.1,3-1.5,2.9-3.2
		C2324.2,326.4,2322.8,325.1,2321.1,325.2z"/>
	<path class="st0" d="M1810,232.1c-1.7,0.1-2.9,1.5-2.9,3.2c0.1,1.7,1.6,2.9,3.2,2.8c1.6-0.1,2.8-1.5,2.8-3.2
		C1813,233.3,1811.6,232,1810,232.1z"/>
</g>
</svg>
