<svg xmlns="http://www.w3.org/2000/svg" xmlns:xlink="http://www.w3.org/1999/xlink" viewBox="0 0 2621 1374.9" xmlns:v="https://vecta.io/nano"><g fill="#fff"><use xlink:href="#B"/><path d="M96.2 156.6c-.1 1.8 1.4 3.3 3.2 3.4s3.3-1.4 3.4-3.2-1.4-3.3-3.2-3.4h0a3.4 3.4 0 0 0-3.4 3.2zm278.3-81.2c-.1 1.8 1.4 3.3 3.2 3.4s3.3-1.4 3.4-3.2-1.4-3.3-3.2-3.4h0c-1.8-.1-3.3 1.3-3.4 3.2zM0 410.3a3.4 3.4 0 0 0 3.2 3.4c1.8.1 3.3-1.4 3.4-3.2s-1.4-3.3-3.2-3.4a3.4 3.4 0 0 0-3.4 3.2zm305.3-200c-.1 1.8 1.4 3.3 3.2 3.4s3.3-1.4 3.4-3.2-1.4-3.3-3.2-3.4h0c-1.8-.1-3.3 1.3-3.4 3.2zM1224.2 3.2a3.4 3.4 0 0 0 3.2 3.4c1.8.1 3.3-1.3 3.4-3.1v-.1c.1-1.8-1.4-3.3-3.2-3.4s-3.3 1.4-3.4 3.2zm1384.1 333.5c-.1 3.5 2.7 6.4 6.2 6.5s6.4-2.7 6.5-6.2-2.7-6.4-6.2-6.5-6.4 2.7-6.5 6.2zM156.2 381.1c.1 1.1 1 2 2.1 1.9s2-1 1.9-2.1-1-1.9-2.1-1.9c-1 0-1.9.8-1.9 1.9v.2zm454.1-201.8c.1 1.1 1 2 2.1 1.9s2-1 1.9-2.1h0c0-1.1-.9-1.9-2-1.9-1.1.1-2 1-2 2.1h0z"/><use xlink:href="#C"/><use xlink:href="#D"/><path d="M1232 657.2c.1 1.1 1 2 2.1 1.9 1.1 0 1.9-.9 1.9-2v-.2c-.1-1.1-1-2-2.1-1.9s-2 1.1-1.9 2.2z"/><use xlink:href="#D" x="-479.2" y="250.7"/><use xlink:href="#D" x="-397.4" y="61.1"/><path d="M656.3 588.3c.1 1.1 1 2 2.1 1.9 1.1 0 1.9-.9 1.9-2v-.2c-.1-1.1-1-2-2.1-1.9s-2 1.1-1.9 2.2h0z"/><use xlink:href="#E"/><use xlink:href="#E" x="724.8" y="-407.8"/><path d="M685.2 358.8c.1 1.1 1 2 2.1 1.9 1.1 0 1.9-.9 1.9-2v-.2c-.1-1.1-1-2-2.1-1.9s-2 1.1-1.9 2.2z"/><use xlink:href="#F"/><path d="M346.4 422.2c.1 1.1 1 2 2.1 1.9s2-1 1.9-2.1-1-2-2.1-1.9-1.9 1-1.9 2.1z"/><use xlink:href="#C" x="238.9" y="-193"/><use xlink:href="#D" x="225.3" y="1"/><use xlink:href="#D" x="123" y="165.1"/><use xlink:href="#F" x="1157.4" y="-80.5"/><use xlink:href="#E" x="1709.5" y="-72.8"/><path d="M2196.1 181.8c.1 1.1 1 2 2.1 1.9s2-1 1.9-2.1h0c-.1-1.1-1-2-2.1-1.9-1.1 0-1.9.9-1.9 2 0 0 0 .1 0 .1h0z"/><use xlink:href="#C" x="1285.9" y="119.5"/><path d="M2568.6 698.8c.1 1.1 1 1.9 2.1 1.9 1.1-.1 2-1 1.9-2.1s-1-1.9-2.1-1.9-1.9.9-1.9 2v.1z"/><use xlink:href="#E" x="1431.2" y="-101"/><use xlink:href="#D" x="376.9" y="281.6"/><use xlink:href="#F" x="1119.6" y="192.3"/><path d="M989.1 331.6c.1 1.1 1 2 2.1 1.9s2-1 1.9-2.1-1-2-2.1-1.9-1.9 1-1.9 2.1z"/><use xlink:href="#E" x="410" y="-373.3"/><use xlink:href="#E" x="276.3" y="-319.3"/><path d="M288.9 343.1c.1 1.1 1 2 2.1 1.9 1.1 0 1.9-.9 1.9-2v-.2c-.1-1.1-1-2-2.1-1.9s-1.9 1.1-1.9 2.2z"/><use xlink:href="#E" x="862.5" y="-285.1"/><path d="M1325.3 134.5c.1 1.1 1 1.9 2.1 1.9 1.1-.1 2-1 1.9-2.1s-1-1.9-2.1-1.9c-1.1.1-2 1-1.9 2.1zm651.5 113.2c.1 1.1 1 2 2.1 1.9s1.9-1 1.9-2.1c-.1-1.1-1-2-2.1-1.9s-1.9 1-1.9 2.1z"/><use xlink:href="#D" x="672.7" y="3.6"/><use xlink:href="#D" x="772.3" y="-86"/><use xlink:href="#C" x="1134.9" y="-75.4"/><path d="M1347.4 277.3c.1 1.7 1.5 2.9 3.2 2.8s2.9-1.5 2.8-3.2-1.5-2.9-3.2-2.8-2.9 1.6-2.8 3.2zm36.6 105.6c.1 1.7 1.5 3 3.2 2.9s3-1.5 2.9-3.2-1.5-3-3.2-2.9-3 1.5-2.9 3.2zm385.1-42.8c.1 1.7 1.6 2.9 3.2 2.8s2.8-1.5 2.8-3.2c-.1-1.6-1.5-2.9-3.1-2.8-1.7.1-2.9 1.5-2.9 3.2zm163-25.8c.1 1.7 1.6 3 3.2 2.9s2.9-1.5 2.9-3.2h0c-.1-1.7-1.5-3-3.2-2.9s-2.9 1.5-2.9 3.2h0zm204.4 87.6c.1 1.7 1.5 3 3.2 2.9s3-1.5 2.9-3.2-1.5-3-3.2-2.9h0c-1.7.1-2.9 1.5-2.9 3.2zm232.3 14.1c.1 1.7 1.5 3 3.2 2.9s3-1.5 2.9-3.2-1.5-3-3.2-2.9h0c-1.7.1-3 1.5-2.9 3.2z"/><use xlink:href="#B" x="1228.3" y="-732.5"/><use xlink:href="#B" x="1257.4" y="-542.1"/><path d="M157.1 557.9c.1 1.7 1.5 3 3.2 2.9s3-1.5 2.9-3.2-1.5-3-3.2-2.9h0c-1.7.1-2.9 1.5-2.9 3.2zm-45.3 70.9c.1 1.7 1.5 2.9 3.2 2.8s2.9-1.5 2.8-3.2-1.5-2.9-3.2-2.8-2.9 1.6-2.8 3.2zm182.6-110.2c.1 1.7 1.5 3 3.2 2.9s2.9-1.5 2.8-3.2-1.5-2.9-3.2-2.8h-.1c-1.5.1-2.7 1.5-2.7 3.1zm72.7-138.5c.1 1.7 1.5 3 3.2 2.9s2.9-1.5 2.8-3.2-1.5-2.9-3.2-2.8h-.1c-1.5.1-2.7 1.5-2.7 3.1zm-152.9-25c.1 1.7 1.5 3 3.2 2.9s2.9-1.5 2.8-3.2-1.5-2.9-3.2-2.8h-.1c-1.6 0-2.8 1.3-2.8 2.9.1.1.1.1.1.2zm343.9 168.3c.1 1.7 1.6 2.9 3.2 2.8s2.8-1.5 2.8-3.2c-.1-1.6-1.5-2.8-3.1-2.8-1.6.2-2.9 1.6-2.9 3.2zm-72.4-229.9c.1 1.7 1.5 2.9 3.2 2.8s2.9-1.5 2.8-3.2v-.1c-.1-1.7-1.6-2.9-3.2-2.8-1.7.3-2.9 1.7-2.8 3.3z"/></g><defs ><path id="B" d="M1340.3 1372.1c.1 1.7 1.6 2.9 3.2 2.8s2.8-1.5 2.8-3.2c-.1-1.6-1.5-2.9-3.1-2.8-1.7.1-3 1.5-2.9 3.2z"/><path id="C" d="M1130.5 390.5c.1 1.1 1 2 2.1 1.9s2-1 1.9-2.1-1-1.9-2.1-1.9-1.9.9-1.9 2v.1z"/><path id="D" d="M1331.3 391.4c.1 1.1 1 2 2.1 1.9s2-1 1.9-2.1-1-1.9-2.1-1.9c-1.1.1-1.9 1-1.9 2.1z"/><path id="E" d="M437.8 612.2c.1 1.1 1 2 2.1 1.9s2-1 1.9-2.1-1-1.9-2.1-1.9c-1.1.1-2 1-1.9 2.1z"/><path id="F" d="M530.7 354.3c.1 1.1 1 2 2.1 1.9s2-1 1.9-2.1-1-2-2.1-1.9-2 1-1.9 2.1z"/></defs></svg>