<?xml version="1.0" encoding="utf-8"?>
<!-- Generator: Adobe Illustrator 24.1.3, SVG Export Plug-In . SVG Version: 6.00 Build 0)  -->
<svg version="1.1" id="Layer_1" xmlns="http://www.w3.org/2000/svg" xmlns:xlink="http://www.w3.org/1999/xlink" x="0px" y="0px"
	 viewBox="0 0 2735.2 1416" style="enable-background:new 0 0 2735.2 1416;" xml:space="preserve">
<style type="text/css">
	.st0{opacity:0.75;}
	.st1{fill:#FFFFFF;}
</style>
<g class="st0">
	<path class="st1" d="M1434.6,1414.1c0.1,1.1,1,2,2.1,1.9s2-1,1.9-2.1c-0.1-1.1-1-1.9-2.1-1.9
		C1435.4,1412.1,1434.5,1413,1434.6,1414.1z"/>
	<g>
		<path class="st1" d="M32.6,396.5c-0.1,1.8,1.4,3.3,3.2,3.4c1.8,0.1,3.3-1.4,3.4-3.2c0-1.8-1.4-3.3-3.2-3.4
			C34.2,393.2,32.7,394.6,32.6,396.5C32.6,396.4,32.6,396.5,32.6,396.5L32.6,396.5z"/>
		<path class="st1" d="M46.2,222.4c-0.1,1.8,1.4,3.3,3.2,3.4s3.3-1.4,3.4-3.2c0.1-1.8-1.4-3.3-3.2-3.4l0,0c-1.7-0.1-3.3,1.2-3.4,2.9
			C46.2,222.2,46.2,222.3,46.2,222.4z"/>
		<path class="st1" d="M758.8,40.9c-0.1,1.8,1.4,3.3,3.2,3.4c1.8,0.1,3.3-1.4,3.4-3.2c0.1-1.8-1.4-3.3-3.2-3.4
			C760.4,37.7,758.9,39.1,758.8,40.9z"/>
		<path class="st1" d="M384.7,85c-0.9,0.6-1.1,1.9-0.5,2.8l0,0c0.7,0.8,1.3,1.7,1.9,2.6c0.3,0.6,0.6,1.1,1,1.6
			c0.3,0.4,0.8,0.7,1.3,0.8c1.1,0.1,2.1-0.6,2.3-1.7c0.1-0.5-0.1-1.1-0.4-1.5c-0.1-0.2-0.3-0.3-0.4-0.5c-0.3-0.6-0.7-1.2-1.1-1.8
			c-0.5-0.6-0.9-1.3-1.4-1.9c-0.4-0.5-1-0.8-1.6-0.8C385.4,84.7,385,84.8,384.7,85L384.7,85z"/>
		<path class="st1" d="M389.3,97.2c-0.5,0.1-1,0.4-1.3,0.8l-0.2,0.2c-0.7,0.6-1.5,1.1-2.3,1.6c-0.4,0.3-0.7,0.8-0.8,1.3
			c-0.1,0.5,0.1,1.1,0.4,1.5c0.3,0.4,0.8,0.7,1.3,0.8c0.5,0.1,1.1-0.1,1.5-0.4l1.5-0.9c0.7-0.5,1.3-1,1.8-1.6c0.7-0.8,0.6-2-0.2-2.7
			c0,0-0.1,0-0.1-0.1h-0.1c-0.4-0.3-0.8-0.5-1.3-0.4L389.3,97.2z"/>
		<path class="st1" d="M393.5,96.5c-0.9,0.6-1.1,1.9-0.5,2.7c0,0,0,0,0.1,0.1l1.1,1.6c0.4,0.6,0.9,1.2,1.4,1.7
			c0.9,0.7,2.2,0.5,2.9-0.4c0.3-0.4,0.4-0.9,0.4-1.4v-0.1c-0.1-0.4-0.3-0.8-0.6-1.1l0.1,0.1c-0.7-0.9-1.4-1.8-2-2.8
			c-0.4-0.5-1-0.8-1.6-0.8C394.3,96.1,393.9,96.3,393.5,96.5z"/>
		<path class="st1" d="M398.6,90l-1.2,1.1c-0.4,0.3-0.7,0.8-0.8,1.3c-0.2,1.1,0.6,2.1,1.7,2.3c0,0,0,0,0,0h0.1
			c0.5,0.1,1.1,0,1.5-0.4l1.2-1.1c0.4-0.3,0.7-0.8,0.8-1.3c0.1-0.5-0.1-1.1-0.4-1.5c-0.3-0.4-0.8-0.7-1.3-0.8h-0.3
			C399.4,89.5,399,89.7,398.6,90L398.6,90z"/>
		<path class="st1" d="M677.8,136.1c-0.5,0.2-0.9,0.6-1.1,1.1c-0.2,0.5-0.2,1.1,0,1.6l0.6,1.8c0.3,0.7,0.7,1.4,1.1,2.1
			c0.6,0.9,1.9,1.1,2.8,0.5l0,0c0.4-0.3,0.7-0.8,0.8-1.3c0.1-0.5-0.1-1.1-0.4-1.5l-0.1-0.2c-0.4-0.9-0.8-1.8-1.1-2.8
			c-0.3-0.8-1.1-1.3-1.9-1.3C678.3,136,678,136,677.8,136.1L677.8,136.1z"/>
		<path class="st1" d="M676.4,146.7c-1,0.4-2,0.8-3,1.3c-0.5,0.2-0.9,0.6-1.1,1.1c-0.5,1-0.1,2.2,0.9,2.7c0,0,0,0,0,0
			c0.5,0.3,1.2,0.3,1.7,0c0.9-0.6,2-1,3-1.3c1-0.4,1.6-1.6,1.2-2.6c-0.2-0.6-0.6-1-1.2-1.2c-0.2-0.1-0.5-0.2-0.8-0.2
			C676.9,146.5,676.6,146.6,676.4,146.7L676.4,146.7z"/>
		<path class="st1" d="M684.5,147.1c-0.5,0.2-0.9,0.6-1.1,1.1c-0.2,0.5-0.2,1.1,0,1.6c0.2,0.4,0.4,0.7,0.6,1.1
			c0.2,0.5,0.6,0.9,1.1,1.1c0.5,0.2,1.1,0.2,1.6,0c0.5-0.2,0.9-0.6,1.1-1.1c0.2-0.5,0.2-1.1,0-1.6c-0.2-0.4-0.4-0.7-0.6-1.1
			c-0.2-0.5-0.6-0.9-1.1-1.1c-0.3-0.1-0.5-0.2-0.8-0.2C685,146.9,684.7,147,684.5,147.1z"/>
		<path class="st1" d="M688.8,140.5l-1.8,0.8c-1,0.4-1.6,1.5-1.3,2.5c0.4,1,1.5,1.6,2.5,1.3c0.1,0,0.2-0.1,0.2-0.1
			c0.6-0.2,1.2-0.5,1.8-0.8c1-0.4,1.5-1.6,1.1-2.6c-0.3-0.8-1.1-1.3-1.9-1.3C689.3,140.4,689,140.4,688.8,140.5L688.8,140.5z"/>
		<path class="st1" d="M763.3,31c-0.5,0.2-0.9,0.6-1.1,1.1l-0.1,0.3c-0.2,0.5-0.2,1.1,0,1.6c0.4,1,1.6,1.6,2.6,1.2h0.1
			c0.5-0.2,0.9-0.6,1.1-1.1l0.1-0.3c0.2-0.5,0.2-1.1,0-1.6c-0.2-0.5-0.6-0.9-1.1-1.1c-0.3-0.1-0.5-0.2-0.8-0.2
			C763.8,30.8,763.5,30.9,763.3,31z"/>
		<path class="st1" d="M769.1,40.9c-0.3,0.4-0.5,1-0.4,1.5c0.1,0.5,0.4,1,0.8,1.3c0.4,0.3,1,0.5,1.5,0.4c0.5-0.1,1-0.3,1.3-0.7
			c0.3-0.4,0.5-1,0.4-1.5c-0.1-0.5-0.4-1-0.8-1.3c-0.4-0.3-1-0.5-1.5-0.4C769.9,40.3,769.4,40.5,769.1,40.9z"/>
		<path class="st1" d="M760,50.2c-0.3,0.4-0.5,1-0.4,1.5c0.1,0.5,0.4,1,0.8,1.3c0.4,0.3,1,0.5,1.5,0.4c0.5-0.1,1-0.4,1.3-0.8
			c0.3-0.4,0.5-1,0.4-1.5c-0.1-0.5-0.4-1-0.8-1.3c-0.4-0.3-1-0.5-1.5-0.4C760.8,49.6,760.4,49.8,760,50.2z"/>
		<path class="st1" d="M750.3,37.4c-0.7,0.8-0.6,2,0.2,2.7c0,0,0.1,0,0.1,0.1h0.1c0.4,0.3,1,0.5,1.5,0.4c0.5-0.1,1-0.4,1.3-0.8
			c0.7-0.9,0.5-2.2-0.3-2.9c-0.4-0.3-1-0.5-1.5-0.4C751.2,36.7,750.7,37,750.3,37.4z"/>
		<path class="st1" d="M324.8,256c-0.5,0.1-1,0.3-1.3,0.7c-0.3,0.4-0.5,1-0.4,1.5c0.1,0.5,0.4,1,0.8,1.3c1,1,2.1,1.9,3.2,2.9
			c0.9,0.7,2.2,0.5,2.9-0.4c0.7-0.9,0.5-2.1-0.3-2.8l0,0c-1.1-0.9-2.2-1.9-3.2-2.9c-0.4-0.3-0.8-0.5-1.3-0.4L324.8,256L324.8,256z"
			/>
		<path class="st1" d="M336.3,252.9c-0.7,1-1.3,2.1-1.8,3.2l-1.2,3c-0.4,1,0,2.2,1,2.7c1,0.5,2.2,0,2.7-1l0,0
			c0.6-1.7,1.3-3.3,2.1-4.9l0.3-0.4c0.7-0.8,0.6-2.1-0.2-2.8c-0.4-0.3-0.9-0.5-1.4-0.5C337.2,252.1,336.6,252.4,336.3,252.9
			L336.3,252.9z"/>
		<path class="st1" d="M339.7,263.6c-0.4,0.3-0.7,0.8-0.8,1.3c-0.1,0.5,0.1,1.1,0.4,1.5c0.3,0.4,0.8,0.7,1.3,0.8
			c1,0,1.9,0.1,2.9,0.2c1.1,0.2,2.1-0.6,2.3-1.7c0.2-1.1-0.6-2.1-1.7-2.3c-1-0.1-1.9-0.2-2.9-0.2H341
			C340.5,263.2,340.1,263.4,339.7,263.6L339.7,263.6z"/>
		<path class="st1" d="M331.3,266.5c-0.5,0.2-0.9,0.6-1.1,1.1c-0.4,1.3-0.9,2.6-1.3,3.9c-0.2,0.5-0.2,1.1,0,1.6
			c0.4,1,1.6,1.5,2.6,1.1h0.1c0.5-0.2,0.9-0.6,1.1-1.1c0.4-1.3,0.9-2.6,1.3-3.9c0.2-0.5,0.2-1.1,0-1.6c-0.2-0.5-0.6-0.9-1.1-1.1
			c-0.3-0.1-0.5-0.2-0.8-0.2C331.8,266.4,331.5,266.4,331.3,266.5L331.3,266.5z"/>
		<path class="st1" d="M0.7,13.3C0.3,13.6,0,14.1,0,14.7c0,0.5,0.1,1.1,0.5,1.5c0.6,0.9,1.2,1.8,1.8,2.6c0.4,0.6,0.9,1.2,1.3,1.8
			l0.3,0.6c0.5,1,1.7,1.5,2.7,1c1-0.5,1.4-1.7,1-2.7l0,0c-0.6-1.1-1.3-2.1-2-3.1c-0.7-0.9-1.3-1.9-2-2.9c-0.3-0.4-0.8-0.7-1.4-0.7H2
			C1.5,12.8,1.1,13,0.7,13.3z M3.7,20.8l0.1,0.1L3.7,20.8z"/>
		<path class="st1" d="M13.9,14c-0.7,1.1-1.3,2.3-1.9,3.4c-0.2,0.5-0.2,1.1,0.1,1.6c0.4,1,1.5,1.4,2.5,1.1c0,0,0.1,0,0.1-0.1h0.1
			c0.5-0.2,0.9-0.6,1.1-1.1c0.2-0.3,0.4-0.6,0.5-1l0.9-1.5c0.7-0.8,0.5-2.1-0.3-2.7c0,0,0,0-0.1-0.1c-0.4-0.3-0.8-0.4-1.3-0.4
			C14.9,13.1,14.3,13.4,13.9,14z"/>
		<path class="st1" d="M17.1,26.1c-0.4,1,0.1,2.2,1.2,2.6c0,0,0,0,0,0c1,0.4,2,0.8,3,1c1.1,0.3,2.2,0.4,3.3,0.6
			c1.1,0.1,2.1-0.7,2.2-1.8v-0.1c0.1-0.6-0.1-1.1-0.5-1.5c-0.3-0.4-0.8-0.7-1.3-0.8c-0.8-0.1-1.6-0.2-2.4-0.4c-1-0.3-1.9-0.6-2.8-1
			c-0.2-0.1-0.5-0.1-0.7-0.1C18.2,24.7,17.4,25.3,17.1,26.1z"/>
		<path class="st1" d="M3.9,32.5c-0.2,0.6-0.5,1.2-0.8,1.8c-0.4,1,0.1,2.2,1.1,2.6h0.1c1.1,0.4,2.3-0.1,2.7-1.2
			c0.3-0.6,0.5-1.2,0.8-1.8c0.4-1-0.1-2.2-1.2-2.6c0,0,0,0,0,0c-0.2-0.1-0.5-0.1-0.7-0.1C5,31.2,4.3,31.7,3.9,32.5z"/>
		<path class="st1" d="M59.6,213.1c-0.9,0.7-1,2-0.3,2.9c0,0,0,0,0,0c0.3,0.4,0.8,0.7,1.4,0.7c0.5,0,1.1-0.1,1.5-0.5
			c0.9-0.7,1-1.9,0.4-2.7c0,0,0-0.1-0.1-0.1l0,0c-0.3-0.4-0.8-0.7-1.4-0.7C60.6,212.6,60,212.8,59.6,213.1L59.6,213.1z"/>
		<path class="st1" d="M41.8,213.7c-0.9,0.7-1,2-0.3,2.9c0,0,0,0,0,0c0.3,0.4,0.8,0.7,1.4,0.7c0.5,0,1.1-0.1,1.5-0.5
			c0.9-0.7,1-1.9,0.4-2.7c0,0,0-0.1-0.1-0.1l0,0c-0.3-0.4-0.8-0.7-1.4-0.7C42.8,213.2,42.2,213.4,41.8,213.7L41.8,213.7z"/>
		<path class="st1" d="M39.6,232.3c-0.9,0.7-1,1.9-0.4,2.7c0,0,0,0.1,0.1,0.1l0,0c0.3,0.4,0.8,0.7,1.4,0.7c0.5,0,1.1-0.1,1.5-0.4
			c0.4-0.3,0.7-0.8,0.7-1.4c0-0.5-0.1-1.1-0.5-1.5c-0.3-0.4-0.8-0.7-1.4-0.7C40.5,231.8,40,232,39.6,232.3z"/>
		<path class="st1" d="M54.7,227.6c-0.9,0.7-0.9,2-0.2,2.9c0.4,0.4,0.9,0.7,1.4,0.7c0.5,0,1.1-0.1,1.5-0.5c0.9-0.7,0.9-2,0.2-2.9
			c-0.4-0.4-0.9-0.7-1.4-0.7C55.7,227,55.1,227.2,54.7,227.6z"/>
		<path class="st1" d="M41.8,384.9c-0.5,0.8-1.1,1.6-1.6,2.5c-0.6,0.9-0.4,2.2,0.5,2.8c0.9,0.6,2.2,0.4,2.8-0.5
			c0.5-0.8,1.1-1.6,1.6-2.5c0.6-0.9,0.4-2.2-0.5-2.8c-0.4-0.2-0.8-0.4-1.2-0.4C42.8,384,42.2,384.4,41.8,384.9z"/>
		<path class="st1" d="M44.2,399.3c-0.1,1.1,0.7,2.1,1.8,2.2l4.2,0.6c1.1,0.1,2.1-0.7,2.2-1.8c0.1-1.1-0.7-2.1-1.8-2.2l0,0l-4.2-0.6
			h-0.2C45.2,397.4,44.3,398.3,44.2,399.3z"/>
		<path class="st1" d="M30,406.8l-0.1,1.1c-0.1,1.1,0.7,2.1,1.8,2.2c1.1,0.1,2.1-0.7,2.2-1.8c0,0,0,0,0,0l0.1-1.1
			c0.1-1.1-0.7-2.1-1.8-2.2H32C31,404.9,30.1,405.7,30,406.8C30,406.8,30,406.8,30,406.8L30,406.8z"/>
		<path class="st1" d="M18.9,395.2c-0.1,1.1,0.8,2.1,1.9,2.2c0,0,0,0,0,0c1.6,0.2,3.3,0.3,4.9,0.3c1.1,0.1,2.1-0.7,2.2-1.8
			c0.1-1.1-0.7-2.1-1.8-2.2H26c-1.6,0-3.3-0.1-4.9-0.4h-0.3C19.8,393.5,19.1,394.2,18.9,395.2z"/>
		<path class="st1" d="M1207.7,131.2c-1,0.4-1.6,1.6-1.2,2.6c0.3,1.1,0.7,2.2,1,3.4c0.2,0.5,0.5,0.9,1,1.1c1,0.5,2.2,0.1,2.7-0.9
			c0,0,0,0,0,0v-0.1c0.2-0.5,0.2-1.1,0.1-1.6c-0.3-1.1-0.6-2.2-0.9-3.4c-0.3-0.8-1-1.3-1.9-1.3
			C1208.2,131.1,1208,131.2,1207.7,131.2L1207.7,131.2z"/>
		<path class="st1" d="M1218.9,133.6l-4.3,3.1c-0.9,0.6-1.1,1.9-0.5,2.8c0.6,0.9,1.9,1.1,2.8,0.5l4.3-3.1c0.9-0.6,1.2-1.9,0.6-2.8
			V134c-0.4-0.6-1-0.9-1.7-0.9C1219.7,133.3,1219.3,133.4,1218.9,133.6L1218.9,133.6z"/>
		<path class="st1" d="M1215.7,144.9c-0.5,0.2-0.9,0.5-1.1,1c-0.2,0.5-0.3,1.1-0.1,1.6c0.2,0.5,0.5,0.9,1,1.1
			c0.8,0.5,1.7,1.1,2.6,1.6c0.5,0.3,0.9,0.6,1.3,1c0.9,0.7,2.1,0.6,2.9-0.2c0.7-0.9,0.7-2.2-0.2-2.9c-1.5-1.2-3.1-2.3-4.8-3.2
			c-0.3-0.1-0.5-0.2-0.8-0.2C1216.2,144.7,1215.9,144.7,1215.7,144.9L1215.7,144.9z"/>
		<path class="st1" d="M1206.3,147.8l-2.6,1.1c-0.5,0.2-0.9,0.5-1.1,1c-0.5,0.9-0.2,2.1,0.8,2.7c0,0,0,0,0,0
			c0.5,0.3,1.1,0.3,1.7,0.1l2.6-1.1c1-0.4,1.6-1.6,1.2-2.6c-0.3-0.8-1-1.4-1.9-1.4C1206.8,147.6,1206.5,147.7,1206.3,147.8z"/>
		<path class="st1" d="M1428.8,3.9c-0.5,0-1,0.3-1.4,0.7c-0.3,0.4-0.5,1-0.5,1.5c-0.1,1.7-0.1,3.3,0,5c0.1,1.1,1.1,1.9,2.2,1.8
			s1.9-1.1,1.8-2.2c0,0,0,0,0,0c-0.1-1.7-0.1-3.3,0-5c0-0.5-0.3-1-0.7-1.4C1429.8,4,1429.3,3.8,1428.8,3.9z"/>
		<path class="st1" d="M1439.8,9.9c-1.1,0.4-2.3,0.7-3.4,1.1c-1,0.4-1.6,1.6-1.2,2.6c0.4,1,1.5,1.6,2.6,1.2l0,0
			c1.1-0.3,2.3-0.7,3.4-1.1c1.1-0.2,1.8-1.2,1.6-2.3c-0.2-1.1-1.2-1.8-2.3-1.6l0,0C1440.3,9.8,1440,9.8,1439.8,9.9z"/>
		<path class="st1" d="M1435.9,18.7c-0.7,0.9-0.6,2.1,0.2,2.9c1,0.9,2.1,1.8,3.1,2.7c0.9,0.7,2.1,0.6,2.9-0.2
			c0.7-0.9,0.7-2.2-0.2-2.9c-1.1-0.9-2.1-1.8-3.1-2.7c-0.4-0.3-0.8-0.5-1.3-0.5C1436.9,18,1436.3,18.3,1435.9,18.7z"/>
		<path class="st1" d="M1424.1,19.8c-0.8,0.5-1.6,0.9-2.3,1.4c-0.9,0.6-1.2,1.9-0.6,2.8l0,0c0.6,0.9,1.8,1.2,2.7,0.6
			c0,0,0.1,0,0.1-0.1l2.3-1.4c0.9-0.6,1.2-1.9,0.6-2.8l0,0c-0.4-0.5-1-0.8-1.6-0.9C1424.9,19.5,1424.5,19.6,1424.1,19.8L1424.1,19.8
			z"/>
		<path class="st1" d="M1598.1,0.2c-0.5,0.2-0.9,0.5-1.1,1c-0.3,0.5-0.3,1.1-0.1,1.6c0.6,1.1,1.1,2.2,1.6,3.3c0.2,0.5,0.5,0.9,1,1.1
			c1,0.5,2.2,0.1,2.7-0.9c0,0,0,0,0,0V6.2c0.3-0.5,0.3-1.1,0.1-1.6c-0.5-1.1-1.1-2.2-1.6-3.3c-0.2-0.5-0.5-0.9-1-1.1
			c-0.3-0.1-0.6-0.2-0.9-0.2C1598.6,0.1,1598.3,0.1,1598.1,0.2z"/>
		<path class="st1" d="M1614.3,4.7l-2.6,1.1c-0.5,0.2-0.9,0.5-1.1,1c-0.5,0.9-0.2,2.1,0.8,2.7c0,0,0,0,0,0c0.5,0.3,1.1,0.3,1.7,0.1
			c0.9-0.4,1.7-0.8,2.6-1.1c1-0.4,1.6-1.5,1.2-2.6c-0.3-0.8-1.1-1.3-1.9-1.3C1614.8,4.5,1614.5,4.6,1614.3,4.7L1614.3,4.7z"/>
		<path class="st1" d="M1611,14.7c-0.5,1-0.1,2.2,0.9,2.7c0,0,0,0,0,0h0.1c1.2,0.6,2.5,1.3,3.7,1.9c1,0.5,2.2,0.1,2.7-0.9
			c0.5-1,0.1-2.2-0.9-2.7l0,0l0,0c-1.2-0.6-2.5-1.2-3.7-1.9c-0.3-0.1-0.6-0.2-0.9-0.2C1612.1,13.6,1611.4,14,1611,14.7z"/>
		<path class="st1" d="M1597,13.5l-2.1,4.1c-0.5,1-0.1,2.2,0.9,2.7c1,0.5,2.2,0.1,2.7-0.9l0,0l0,0l2.1-4.1c0.5-1,0.1-2.2-0.9-2.7
			C1598.7,12.1,1597.5,12.5,1597,13.5C1597,13.5,1597,13.5,1597,13.5z"/>
		<path class="st1" d="M1629.1,157.2c-1,0.4-1.6,1.6-1.2,2.6l2.7,5.4c0,0.1,0.1,0.1,0.1,0.2l0,0v0.1c0.2,0.5,0.6,0.8,1,1.1
			c0.5,0.2,1.1,0.3,1.6,0.1c1-0.4,1.6-1.6,1.2-2.6c-0.2-0.5-0.4-0.9-0.7-1.3l-2.2-4.4c-0.2-0.5-0.5-0.9-1-1.1
			c-0.3-0.1-0.6-0.2-0.9-0.2C1629.5,157.1,1629.3,157.2,1629.1,157.2L1629.1,157.2z M1630.8,165.7l-0.1-0.1v-0.1l-0.1-0.2v-0.1
			L1630.8,165.7L1630.8,165.7z"/>
		<path class="st1" d="M1645.7,162.1c-2.2,1-4.4,1.9-6.6,2.7c-1,0.4-1.6,1.6-1.2,2.6c0.4,1,1.5,1.6,2.6,1.2c2.2-0.9,4.4-1.7,6.6-2.7
			c0.5-0.2,0.9-0.5,1.2-1c0.2-0.5,0.3-1.1,0.1-1.6c-0.2-0.5-0.5-0.9-1-1.1c-0.3-0.1-0.6-0.2-0.9-0.2
			C1646.2,162,1646,162,1645.7,162.1L1645.7,162.1z"/>
		<path class="st1" d="M1638.7,174.7c-0.7,0.8-0.7,2,0.1,2.8h0.1c1.1,0.9,2.1,1.7,3.2,2.6c0.9,0.7,2.2,0.7,2.9-0.2c0,0,0,0,0,0
			c0.7-0.8,0.7-2-0.1-2.8h-0.1c-1.1-0.8-2.2-1.7-3.2-2.6c-0.4-0.3-0.9-0.5-1.4-0.5C1639.6,174.1,1639.1,174.3,1638.7,174.7z"/>
		<path class="st1" d="M1630.5,172.3c-2.3,1.7-4.7,3.2-7.2,4.6c-0.5,0.3-0.8,0.8-0.8,1.3c-0.2,1.1,0.5,2.2,1.6,2.4
			c0.5,0.1,1.1,0,1.5-0.3c2.5-1.4,4.9-2.9,7.2-4.6c0.9-0.6,1.2-1.8,0.7-2.7c-0.4-0.6-1.1-1-1.9-1
			C1631.2,172,1630.8,172.1,1630.5,172.3z"/>
		<path class="st1" d="M1979.4,132.8c-0.4,0.3-0.7,0.8-0.8,1.3c-0.1,0.5,0,1,0.3,1.5c0.7,1.2,1.4,2.5,2.2,3.7
			c0.6,0.9,1.9,1.2,2.8,0.6c0.5-0.3,0.8-0.8,0.9-1.4c0.1-0.5,0-1.1-0.3-1.5c-0.7-1.2-1.4-2.5-2.2-3.7c-0.4-0.5-1-0.8-1.6-0.8
			C1980.2,132.5,1979.8,132.6,1979.4,132.8L1979.4,132.8z"/>
		<path class="st1" d="M1993.2,135.2c-0.7,0.8-1.5,1.6-2.3,2.3c-0.4,0.4-0.5,1-0.5,1.5c0.1,0.5,0.3,1,0.7,1.4c0.4,0.3,1,0.5,1.5,0.5
			c0.5-0.1,1-0.3,1.3-0.7c0.8-0.8,1.6-1.6,2.3-2.4c0.7-0.8,0.6-2.1-0.2-2.8h-0.1c-0.4-0.3-0.8-0.5-1.3-0.5
			C1994.1,134.6,1993.6,134.8,1993.2,135.2z"/>
		<path class="st1" d="M1992.6,147.1c-0.5,1,0,2.2,1,2.7c1.6,0.7,3.2,1.5,4.7,2.3h-0.1c0.9,0.7,2.1,0.5,2.8-0.3
			c0.7-0.9,0.7-2.2-0.2-2.9c0,0,0,0,0,0c-0.8-0.6-1.7-1.1-2.7-1.5l-2.8-1.3C1994.3,145.7,1993.1,146.1,1992.6,147.1L1992.6,147.1z
			 M1997.9,151.8l0.2,0.1L1997.9,151.8z"/>
		<path class="st1" d="M1978.7,150.1c-1,1.2-1.9,2.5-2.9,3.7c-0.7,0.9-0.6,2.2,0.2,2.9s2.2,0.6,2.9-0.2c0,0,0,0,0.1-0.1
			c1-1.2,2-2.4,2.9-3.7c0.7-0.8,0.7-2-0.1-2.7c0,0,0,0-0.1-0.1c-0.4-0.3-0.9-0.5-1.4-0.5C1979.7,149.4,1979.1,149.6,1978.7,150.1z"
			/>
		<path class="st1" d="M2000,0.9c-0.4,0.3-0.7,0.8-0.8,1.3c-0.1,0.5,0,1.1,0.3,1.5l0.9,1.5l0.3,0.6c0.2,0.5,0.5,0.9,1,1.1
			c0.5,0.2,1.1,0.3,1.6,0.1c0.5-0.2,0.9-0.5,1.1-1c0.2-0.5,0.2-1.1,0-1.6c-0.5-1-1.1-2-1.7-3c-0.3-0.4-0.8-0.7-1.3-0.8h-0.3
			C2000.7,0.6,2000.3,0.7,2000,0.9z"/>
		<path class="st1" d="M2012.7,5.4l-3.2,2.6c-0.4,0.3-0.7,0.8-0.8,1.3c-0.1,0.5,0,1.1,0.3,1.5c0.6,0.9,1.9,1.1,2.8,0.5h0.1l3.1-2.6
			c0.4-0.3,0.7-0.8,0.8-1.3c0.1-0.5,0-1.1-0.3-1.5c-0.4-0.5-1-0.9-1.7-0.9C2013.4,5,2013,5.1,2012.7,5.4L2012.7,5.4z"/>
		<path class="st1" d="M2010.7,18.5c-0.4,1,0,2.2,1,2.7l3,1.5l0.2,0.1c0.4,0.3,1,0.5,1.5,0.5c0.5-0.1,1-0.3,1.4-0.7
			c0.3-0.4,0.5-1,0.5-1.5c-0.1-0.5-0.3-1-0.7-1.4c-1.3-0.8-2.7-1.6-4.1-2.2c-0.3-0.1-0.5-0.2-0.8-0.2
			C2011.9,17.3,2011.1,17.7,2010.7,18.5z"/>
		<path class="st1" d="M2003,15.9c-1.7,1.1-3.3,2.2-5.1,3.3c-0.9,0.6-1.2,1.9-0.6,2.8c0.3,0.5,0.8,0.8,1.4,0.9
			c0.5,0.1,1.1,0,1.5-0.4c1.7-1,3.4-2.1,5.1-3.3c0.9-0.7,1.1-1.9,0.5-2.8c-0.4-0.5-1-0.8-1.6-0.8C2003.8,15.6,2003.4,15.7,2003,15.9
			z"/>
		<path class="st1" d="M2217.3,104.4c-0.4,0.4-0.5,1-0.5,1.5c0.1,0.5,0.3,1,0.7,1.4c0.6,0.6,1.2,1.2,1.9,1.8
			c0.8,0.7,2.1,0.6,2.8-0.2l0,0c0.7-0.8,0.7-2-0.1-2.7c0,0-0.1-0.1-0.1-0.1c-0.6-0.6-1.2-1.2-1.9-1.8c-0.3-0.3-0.8-0.5-1.2-0.5
			C2218.3,103.7,2217.7,103.9,2217.3,104.4z"/>
		<path class="st1" d="M2236.2,100.5c-1,1.4-2,2.7-3,4.1c-0.7,0.9-0.6,2.2,0.3,2.9c0.8,0.7,2.1,0.6,2.8-0.2l0,0c1-1.4,2-2.7,3-4.1
			c0.7-0.8,0.7-2-0.1-2.7c0,0,0,0-0.1-0.1c-0.4-0.3-0.9-0.5-1.4-0.5C2237.1,99.8,2236.6,100,2236.2,100.5L2236.2,100.5z"/>
		<path class="st1" d="M2238.5,115.3c-1.1,0.1-1.9,1-1.9,2.1c0,0.6,0.3,1.2,0.8,1.5l1.3,0.9c0.4,0.3,1,0.5,1.5,0.5
			c0.5,0,1-0.3,1.4-0.7c0.3-0.4,0.5-1,0.5-1.5c-0.1-0.5-0.3-1-0.7-1.3l-1.3-0.9c-0.4-0.3-0.8-0.5-1.3-0.5L2238.5,115.3z"/>
		<path class="st1" d="M2223.4,121c-0.7,1-1.5,1.9-2.2,2.9c-0.7,0.9-0.6,2.2,0.2,2.9s2.2,0.6,2.9-0.2c0,0,0,0,0.1-0.1l0,0
			c0.7-1,1.4-1.9,2.2-2.9c0.7-0.8,0.7-2-0.1-2.7c0,0,0,0-0.1-0.1c-0.4-0.3-0.9-0.5-1.4-0.5C2224.4,120.2,2223.8,120.5,2223.4,121z"
			/>
		<path class="st1" d="M2420.4,10.8c-0.5,0.1-1,0.3-1.4,0.7c-0.3,0.4-0.5,1-0.4,1.5c0,1.7-0.1,3.4,0,5.1c0.1,1.1,1.1,1.9,2.2,1.8
			h0.1c1.1-0.1,1.9-1.1,1.8-2.2c-0.1-1.7,0-3.4,0-5.1c-0.1-1.1-0.9-1.9-2-1.9L2420.4,10.8z"/>
		<path class="st1" d="M2430.3,21c-0.4,0.3-0.7,0.8-0.8,1.3c-0.1,0.5,0,1.1,0.4,1.5c0.3,0.4,0.8,0.7,1.3,0.8c1.1,0,2.3,0.1,3.4,0.1
			c0.5-0.1,1-0.3,1.4-0.7c0.3-0.4,0.5-1,0.5-1.5c-0.1-0.5-0.3-1-0.7-1.4c-0.4-0.3-1-0.5-1.5-0.5h-2.6
			C2431.2,20.6,2430.7,20.8,2430.3,21L2430.3,21z"/>
		<path class="st1" d="M2424.8,35.3c-0.9,0.6-1.1,1.9-0.5,2.8v0.1l2.8,3.6c0.6,0.9,1.9,1.1,2.8,0.5c0.9-0.6,1.1-1.9,0.5-2.8l0,0l0,0
			l-2.8-3.6c-0.4-0.5-1-0.8-1.7-0.8C2425.5,34.9,2425.1,35,2424.8,35.3z"/>
		<path class="st1" d="M2411.6,29.4c-1.6,0.2-3.2,0.4-4.8,0.7c-0.5,0.1-1,0.3-1.4,0.7c-0.3,0.4-0.5,1-0.5,1.5
			c0.1,1.1,1.1,1.9,2.2,1.8c1.6-0.3,3.2-0.5,4.8-0.7c1.1-0.1,2-1,1.9-2.1C2413.7,30.2,2412.8,29.3,2411.6,29.4
			C2411.6,29.4,2411.6,29.4,2411.6,29.4z"/>
		<path class="st1" d="M2444.2,163.8c-0.5,0.2-0.9,0.5-1.1,1c-0.2,0.5-0.2,1.1-0.1,1.6c0.4,1.4,0.8,2.7,1.1,4.1
			c0.2,0.5,0.5,0.9,1,1.1c1,0.5,2.2,0.1,2.7-0.9c0,0,0,0,0,0v-0.1c0.2-0.5,0.2-1.1,0.1-1.6c-0.3-1.4-0.7-2.8-1.1-4.1
			C2446.4,163.9,2445.2,163.4,2444.2,163.8L2444.2,163.8z"/>
		<path class="st1" d="M2457.7,170.2c-0.5,0.4-1,0.7-1.6,1.1c-0.9,0.6-1.1,1.9-0.5,2.8c0.6,0.9,1.9,1.1,2.8,0.5l0,0l1.6-1.1
			c0.9-0.6,1.2-1.9,0.6-2.8c-0.4-0.6-1.1-1-1.8-0.9C2458.4,169.9,2458,170,2457.7,170.2z"/>
		<path class="st1" d="M2455.1,187c-0.7,0.9-0.6,2.2,0.3,2.9c1.2,0.9,2.4,1.8,3.5,2.8c0.9,0.7,2.2,0.6,2.9-0.3
			c0.7-0.8,0.6-2.1-0.2-2.8c0,0-0.1-0.1-0.1-0.1c-1.1-1-2.3-1.9-3.5-2.8c-0.4-0.3-0.9-0.4-1.4-0.4
			C2456,186.3,2455.5,186.5,2455.1,187z"/>
		<path class="st1" d="M2440.7,189.6l-3.3,1.6c-0.5,0.2-0.9,0.5-1.1,1c-0.2,0.5-0.3,1.1-0.1,1.6c0.4,1,1.6,1.6,2.6,1.2l3.3-1.6
			c0.5-0.2,0.9-0.5,1.1-1c0.2-0.5,0.3-1.1,0.1-1.6c-0.2-0.5-0.6-0.9-1.1-1.1c-0.3-0.1-0.6-0.2-0.9-0.2
			C2441.1,189.4,2440.9,189.5,2440.7,189.6z"/>
		<path class="st1" d="M2692.2,68.7c-0.9,0.7-1.1,1.9-0.5,2.8c1,1.5,1.9,3,2.8,4.5c0.3,0.4,0.8,0.7,1.3,0.8c0.5,0.1,1.1,0,1.5-0.3
			c0.4-0.3,0.7-0.8,0.8-1.3c0.1-0.5,0-1.1-0.4-1.5c-0.9-1.5-1.8-3-2.8-4.5c-0.4-0.5-1-0.8-1.6-0.8
			C2692.9,68.3,2692.5,68.4,2692.2,68.7z"/>
		<path class="st1" d="M2707,70.3c-1.4,1-2.8,1.9-4.1,2.8c-0.9,0.6-1.1,1.9-0.5,2.8l0,0c0.7,0.9,1.9,1.1,2.8,0.5
			c1.4-0.9,2.8-1.9,4.1-2.8c0.9-0.6,1.1-1.9,0.5-2.8l0,0c-0.4-0.5-1-0.8-1.6-0.8C2707.8,70,2707.4,70.1,2707,70.3z"/>
		<path class="st1" d="M2703.1,84c-0.2,1.1,0.6,2.1,1.7,2.3c0,0,0,0,0,0c1.4,0.3,2.7,0.6,4.1,1h0.1l0.5,0.2c0.3,0,0.7,0,1-0.1
			c1-0.4,1.6-1.6,1.2-2.6v-0.1c-0.2-0.5-0.5-0.9-1-1.1c-0.9-0.3-1.9-0.6-2.8-0.8c-1-0.2-1.6-0.4-2.4-0.5h-0.4
			C2704.1,82.3,2703.3,83,2703.1,84L2703.1,84z"/>
		<path class="st1" d="M2692.6,86.8c-0.5,0.1-1,0.3-1.4,0.7c-1.5,1.4-3,2.9-4.5,4.4c-0.7,0.8-0.7,2,0.1,2.7c0,0,0.1,0.1,0.1,0.1
			c0.4,0.3,1,0.5,1.5,0.5c0.5-0.1,1-0.3,1.4-0.7c1.5-1.5,3-2.9,4.5-4.4c0.4-0.4,0.5-1,0.5-1.5c-0.1-1-1-1.8-2-1.8H2692.6z"/>
		<path class="st1" d="M2708.8,288.8c-0.9,0.6-1.1,1.9-0.5,2.8l0,0c1.4,1.7,2.7,3.5,3.9,5.3c0.3,0.4,0.8,0.7,1.3,0.8
			c0.5,0.1,1.1,0,1.5-0.4c0.4-0.3,0.7-0.8,0.8-1.3c0.1-0.5,0-1.1-0.4-1.5c-1.2-1.8-2.5-3.6-3.9-5.3c-0.4-0.5-1-0.8-1.7-0.9
			C2709.4,288.4,2709.1,288.6,2708.8,288.8L2708.8,288.8z"/>
		<path class="st1" d="M2726.7,293.1c-1.5,1-3.1,1.9-4.7,2.8c-0.4,0.3-0.7,0.8-0.8,1.3c-0.1,0.5,0,1.1,0.4,1.5
			c0.3,0.4,0.8,0.7,1.3,0.8c0.5,0.1,1.1,0,1.5-0.4c1.6-0.9,3.2-1.8,4.7-2.8c0.9-0.6,1.1-1.9,0.5-2.8v-0.1c-0.4-0.5-1-0.8-1.6-0.8
			C2727.5,292.7,2727.1,292.9,2726.7,293.1L2726.7,293.1z"/>
		<path class="st1" d="M2722.8,307.7c-0.4,0.3-0.7,0.8-0.8,1.3c-0.1,0.5,0,1.1,0.4,1.5c0.7,0.8,1.4,1.6,2,2.4
			c0.6,0.9,1.9,1.1,2.8,0.5c0.9-0.6,1.1-1.9,0.5-2.8l0,0l0,0c-0.7-0.8-1.4-1.6-2-2.4c-0.3-0.4-0.8-0.7-1.3-0.8h-0.3
			C2723.6,307.3,2723.2,307.4,2722.8,307.7L2722.8,307.7z"/>
		<path class="st1" d="M2712.6,305.5c-0.5,0.1-1,0.3-1.4,0.7c-1.6,1.6-3.4,3.2-5,4.8c-0.4,0.4-0.5,1-0.5,1.5c0.1,0.5,0.3,1,0.7,1.4
			c0.4,0.3,1,0.5,1.5,0.5c0.5-0.1,1-0.3,1.4-0.7c1.6-1.6,3.3-3.2,5-4.8c0.4-0.4,0.5-1,0.5-1.5c-0.1-0.5-0.3-1-0.7-1.4
			c-0.4-0.3-0.8-0.5-1.3-0.5H2712.6z"/>
		<path class="st1" d="M2716.2,473.1c-0.5,0.2-0.9,0.5-1.1,1c-0.2,0.5-0.3,1.1-0.1,1.6c1,1.9,1.9,3.9,2.9,5.8c0.2,0.5,0.5,0.9,1,1.1
			c1,0.5,2.2,0.1,2.7-0.9c0,0,0,0,0,0v-0.1c0.2-0.5,0.3-1.1,0.1-1.6c-1-1.9-1.9-3.9-2.9-5.8c-0.2-0.5-0.6-0.9-1.1-1.1
			c-0.3-0.1-0.6-0.2-0.9-0.2C2716.6,473,2716.4,473.1,2716.2,473.1L2716.2,473.1z"/>
		<path class="st1" d="M2728,478.8c-0.6,0.4-1.3,0.8-2,1.2c-0.9,0.6-1.2,1.9-0.6,2.8c0.3,0.5,0.8,0.8,1.4,0.9c0.5,0.1,1.1,0,1.5-0.4
			c0.7-0.4,1.3-0.8,2-1.2c0.9-0.7,1.1-1.9,0.5-2.8c-0.4-0.5-1-0.8-1.6-0.8C2728.8,478.4,2728.3,478.5,2728,478.8L2728,478.8z"/>
		<path class="st1" d="M2729.5,493.2c-1.1,0.1-2,1.1-1.9,2.2c0,0,0,0,0,0c0.1,0.5,0.3,1,0.7,1.4c1.2,0.8,2.4,1.7,3.5,2.7
			c0.9,0.7,2.2,0.6,2.9-0.3c0.7-0.8,0.6-2.1-0.2-2.8c0,0-0.1-0.1-0.1-0.1c-1.1-1-2.3-1.9-3.5-2.7
			C2730.5,493.3,2730,493.1,2729.5,493.2L2729.5,493.2z"/>
		<path class="st1" d="M2719.4,489.8c-1.4,1.3-2.9,2.6-4.4,4c-0.4,0.3-0.7,0.8-0.8,1.3c-0.1,0.5,0,1.1,0.4,1.5
			c0.3,0.4,0.8,0.7,1.3,0.8c0.5,0.1,1.1,0,1.5-0.4c1.5-1.3,2.9-2.7,4.4-4c0.4-0.3,0.7-0.8,0.8-1.3c0.1-0.5,0-1.1-0.4-1.5
			c-0.3-0.4-0.8-0.7-1.3-0.8h-0.4C2720.1,489.4,2719.7,489.6,2719.4,489.8z"/>
		<path class="st1" d="M2719.4,489.8c-1.4,1.3-2.9,2.6-4.4,4c-0.4,0.3-0.7,0.8-0.8,1.3c-0.1,0.5,0,1.1,0.4,1.5
			c0.3,0.4,0.8,0.7,1.3,0.8c0.5,0.1,1.1,0,1.5-0.4c1.5-1.3,2.9-2.7,4.4-4c0.4-0.3,0.7-0.8,0.8-1.3c0.1-0.5,0-1.1-0.4-1.5
			c-0.3-0.4-0.8-0.7-1.3-0.8h-0.4C2720.1,489.4,2719.7,489.6,2719.4,489.8z"/>
		<path class="st1" d="M1957.7,192c0.1,1.1,1,1.9,2.1,1.9c1.1-0.1,2-1,1.9-2.1c-0.1-1.1-1-2-2.1-1.9
			C1958.5,190,1957.6,190.9,1957.7,192L1957.7,192z"/>
		<path class="st1" d="M1957.7,192c0.1,1.1,1,1.9,2.1,1.9c1.1-0.1,2-1,1.9-2.1c-0.1-1.1-1-2-2.1-1.9
			C1958.5,190,1957.6,190.9,1957.7,192L1957.7,192z"/>
	</g>
</g>
</svg>
