<?xml version="1.0" encoding="utf-8"?>
<!-- Generator: Adobe Illustrator 24.1.3, SVG Export Plug-In . SVG Version: 6.00 Build 0)  -->
<svg version="1.1" id="Layer_1" xmlns="http://www.w3.org/2000/svg" xmlns:xlink="http://www.w3.org/1999/xlink" x="0px" y="0px"
	 viewBox="0 0 2647 1407.3" style="enable-background:new 0 0 2647 1407.3;" xml:space="preserve">
<style type="text/css">
	.st0{fill:#FFFFFF;}
</style>
<g>
	<path class="st0" d="M1176.9,27.6c-0.1,1.8,1.4,3.3,3.2,3.4c1.8,0.1,3.3-1.4,3.4-3.2c0.1-1.8-1.4-3.3-3.2-3.4l0,0
		C1178.5,24.3,1177,25.7,1176.9,27.6C1176.9,27.6,1176.9,27.6,1176.9,27.6z"/>
	<path class="st0" d="M1262.8,159.6c-0.1,1.8,1.4,3.3,3.2,3.4c1.8,0.1,3.3-1.4,3.4-3.2c0.1-1.8-1.4-3.3-3.2-3.4l0,0
		C1264.4,156.4,1262.9,157.8,1262.8,159.6z"/>
	<path class="st0" d="M2325.7,109.4c0,1.8,1.4,3.3,3.2,3.4c1.8,0,3.3-1.4,3.4-3.2c0-1.8-1.4-3.3-3.2-3.4l0,0c-1.8-0.1-3.3,1.2-3.4,3
		C2325.7,109.3,2325.7,109.3,2325.7,109.4z"/>
	<path class="st0" d="M2348.4,183.8c-0.1,1.8,1.4,3.3,3.2,3.4c1.8,0.1,3.3-1.4,3.4-3.2c0.1-1.8-1.4-3.3-3.2-3.4l0,0
		C2350,180.6,2348.5,182,2348.4,183.8z"/>
	<path class="st0" d="M130.3,340.5c-0.1,1.8,1.4,3.3,3.2,3.4c1.8,0.1,3.3-1.4,3.4-3.2c0.1-1.8-1.4-3.3-3.2-3.4l0,0
		C131.9,337.3,130.4,338.7,130.3,340.5z"/>
	<path class="st0" d="M71.9,34.6c-0.1,1.8,1.3,3.3,3.1,3.4c0,0,0,0,0.1,0c1.8,0.1,3.3-1.4,3.4-3.2c0.1-1.8-1.4-3.3-3.2-3.4l0,0
		C73.5,31.4,72,32.8,71.9,34.6z"/>
	<path class="st0" d="M224.8,102.3c-0.1,1.8,1.4,3.3,3.2,3.4s3.3-1.4,3.4-3.2c0.1-1.8-1.4-3.3-3.2-3.4l0,0
		C226.4,99,224.9,100.4,224.8,102.3C224.8,102.2,224.8,102.3,224.8,102.3z"/>
	<path class="st0" d="M436.6,189c-0.1,1.8,1.4,3.3,3.2,3.4c1.8,0.1,3.3-1.4,3.4-3.2c0.1-1.8-1.4-3.3-3.2-3.4l0,0
		C438.2,185.8,436.7,187.2,436.6,189z"/>
	<path class="st0" d="M1605.4,76.4c0,1.8,1.4,3.3,3.2,3.4c1.8,0,3.3-1.4,3.4-3.2c0-1.8-1.4-3.3-3.2-3.4
		C1607,73.1,1605.5,74.5,1605.4,76.4C1605.4,76.4,1605.4,76.4,1605.4,76.4z"/>
	<path class="st0" d="M2381.9,68.8c0,1.8,1.4,3.3,3.2,3.4c1.8,0,3.3-1.4,3.4-3.2c0-1.8-1.4-3.3-3.2-3.4l0,0
		C2383.5,65.6,2382,67,2381.9,68.8z"/>
	<path class="st0" d="M1325.6,114.5c0,1.8,1.4,3.3,3.2,3.4c1.8,0,3.3-1.4,3.4-3.2c0-1.8-1.4-3.3-3.2-3.4
		C1327.2,111.3,1325.7,112.7,1325.6,114.5z"/>
	<path class="st0" d="M180.7,284.3c-0.1,3.5,2.7,6.4,6.2,6.5c3.5,0.1,6.4-2.7,6.5-6.2c0.1-3.5-2.7-6.4-6.2-6.5c0,0,0,0,0,0
		C183.7,278.1,180.9,280.8,180.7,284.3z"/>
	<path class="st0" d="M481.5,29.4c-0.1,3.5,2.7,6.4,6.2,6.5c3.5,0.1,6.4-2.7,6.5-6.2s-2.7-6.4-6.2-6.5c0,0,0,0,0,0l0,0
		C484.5,23.1,481.6,25.9,481.5,29.4z"/>
	<path class="st0" d="M172,89.4c-0.1,3.5,2.7,6.4,6.2,6.5c3.5,0.1,6.4-2.7,6.5-6.2c0.1-3.5-2.7-6.4-6.2-6.5c0,0,0,0,0,0l0,0
		C175,83.2,172.2,85.9,172,89.4z"/>
	<path class="st0" d="M0,152.7c-0.1,3.5,2.7,6.4,6.2,6.5s6.4-2.7,6.5-6.2c0.1-3.5-2.7-6.4-6.2-6.5c0,0,0,0,0,0l0,0
		C3,146.4,0.1,149.2,0,152.7z"/>
	<path class="st0" d="M1109.8,143.4c-0.1,3.5,2.7,6.4,6.2,6.5c3.5,0.1,6.4-2.7,6.5-6.2s-2.7-6.4-6.2-6.5c0,0,0,0,0,0
		C1112.8,137.1,1109.9,139.9,1109.8,143.4z"/>
	<path class="st0" d="M963.6,63.3c-0.1,3.5,2.7,6.4,6.2,6.5c3.5,0.1,6.4-2.7,6.5-6.2c0.1-3.5-2.7-6.4-6.2-6.5c0,0,0,0,0,0l0,0
		C966.6,57,963.7,59.8,963.6,63.3z"/>
	<path class="st0" d="M1325.7,6.2c-0.1,3.5,2.7,6.4,6.2,6.5c3.5,0.1,6.4-2.7,6.5-6.2s-2.7-6.4-6.2-6.5c0,0,0,0,0,0l0,0
		C1328.7,0,1325.8,2.7,1325.7,6.2z"/>
	<path class="st0" d="M1453.6,153.9c-0.1,3.5,2.7,6.4,6.2,6.5c3.5,0.1,6.4-2.7,6.5-6.2s-2.7-6.4-6.2-6.5c0,0,0,0,0,0
		C1456.6,147.6,1453.7,150.4,1453.6,153.9z"/>
	<path class="st0" d="M1734,132.5c-0.1,3.5,2.7,6.4,6.2,6.5s6.4-2.7,6.5-6.2c0.1-3.5-2.7-6.4-6.2-6.5l0,0
		C1737,126.2,1734.1,129,1734,132.5z"/>
	<path class="st0" d="M1575.1,42.5c-0.1,3.5,2.7,6.4,6.2,6.5c3.5,0.1,6.4-2.7,6.5-6.2c0.1-3.5-2.7-6.4-6.2-6.5c0,0,0,0,0,0l0,0
		C1578.1,36.3,1575.2,39,1575.1,42.5z"/>
	<path class="st0" d="M1968.5,55.1c-0.1,3.5,2.7,6.4,6.2,6.5c3.5,0.1,6.4-2.7,6.5-6.2c0.1-3.5-2.7-6.4-6.2-6.5
		C1971.5,48.8,1968.6,51.6,1968.5,55.1z"/>
	<path class="st0" d="M2085.7,128.5c-0.1,3.5,2.7,6.4,6.2,6.5s6.4-2.7,6.5-6.2c0.1-3.5-2.7-6.4-6.2-6.5c0,0,0,0,0,0l0,0
		C2088.7,122.3,2085.9,125,2085.7,128.5z"/>
	<path class="st0" d="M2219.1,23.3c-0.1,3.5,2.7,6.4,6.2,6.5c3.5,0.1,6.4-2.7,6.5-6.2s-2.7-6.4-6.2-6.5c0,0,0,0,0,0l0,0
		C2222.1,17,2219.2,19.8,2219.1,23.3z"/>
	<path class="st0" d="M2297.6,166.6c-0.1,3.5,2.7,6.4,6.2,6.5s6.4-2.7,6.5-6.2s-2.7-6.4-6.2-6.5c0,0,0,0,0,0l0,0
		C2300.6,160.4,2297.7,163.1,2297.6,166.6z"/>
	<path class="st0" d="M2512.7,238.8c-0.1,3.5,2.7,6.4,6.2,6.5s6.4-2.7,6.5-6.2s-2.7-6.4-6.2-6.5c0,0,0,0,0,0
		C2515.7,232.6,2512.8,235.3,2512.7,238.8z"/>
	<path class="st0" d="M2634.3,196.8c-0.1,3.5,2.7,6.4,6.2,6.5s6.4-2.7,6.5-6.2s-2.7-6.4-6.2-6.5c0,0,0,0,0,0l0,0
		C2637.3,190.5,2634.4,193.3,2634.3,196.8z"/>
	<path class="st0" d="M1379.8,423.8c0.1,1.1,1,2,2.1,1.9c1.1-0.1,2-1,1.9-2.1c-0.1-1.1-1-1.9-2.1-1.9
		C1380.6,421.8,1379.8,422.7,1379.8,423.8z"/>
	<path class="st0" d="M704.8,620.7c0.1,1.1,1,2,2.1,1.9c1.1,0,1.9-0.9,1.9-2c0,0,0-0.1,0-0.1v-0.1c-0.1-1.1-1-2-2.1-1.9
		C705.6,618.6,704.7,619.6,704.8,620.7L704.8,620.7z"/>
	<path class="st0" d="M404.8,305.9c0.1,1.1,1,1.9,2.1,1.9c1.1-0.1,2-1,1.9-2.1c-0.1-1.1-1-1.9-2.1-1.9c-1.1,0-1.9,0.9-1.9,2
		C404.8,305.8,404.8,305.9,404.8,305.9z"/>
	<path class="st0" d="M693.3,270.5c0.1,1.1,1,2,2.1,1.9c1.1-0.1,2-1,1.9-2.1c-0.1-1.1-1-1.9-2.1-1.9
		C694.1,268.5,693.2,269.4,693.3,270.5z"/>
	<path class="st0" d="M1686.9,335.7c0.1,1.1,1,2,2.1,1.9c1.1-0.1,2-1,1.9-2.1s-1-2-2.1-1.9C1687.7,333.7,1686.8,334.6,1686.9,335.7z
		"/>
	<path class="st0" d="M1841.9,290.2c0.1,1.1,1,2,2.1,1.9c1.1-0.1,2-1,1.9-2.1c-0.1-1.1-1-1.9-2.1-1.9
		C1842.7,288.2,1841.8,289.1,1841.9,290.2z"/>
	<path class="st0" d="M1797.6,351.8c0.1,1.1,1,2,2.1,1.9c1.1-0.1,2-1,1.9-2.1s-1-2-2.1-1.9c-1.1,0-1.9,0.9-1.9,2
		C1797.6,351.7,1797.6,351.8,1797.6,351.8z"/>
	<path class="st0" d="M2086.3,382.5c0.1,1.1,1,2,2.1,1.9c1.1,0,1.9-0.9,1.9-2c0,0,0-0.1,0-0.1v-0.1c-0.1-1.1-1-2-2.1-1.9
		C2087.1,380.4,2086.3,381.4,2086.3,382.5z"/>
	<path class="st0" d="M2228.8,296.8c0.1,1.1,1,2,2.1,1.9c1.1-0.1,2-1,1.9-2.1c-0.1-1.1-1-2-2.1-1.9
		C2229.6,294.8,2228.7,295.7,2228.8,296.8z"/>
	<path class="st0" d="M2143.9,210.1c0.1,1.1,1,2,2.1,1.9c1.1-0.1,2-1,1.9-2.1c-0.1-1.1-1-1.9-2.1-1.9
		C2144.7,208.1,2143.8,209,2143.9,210.1C2143.9,210.1,2143.9,210.1,2143.9,210.1z"/>
	<path class="st0" d="M2012.9,224.5c0.1,1.1,1,2,2.1,1.9c1.1-0.1,2-1,1.9-2.1l0,0c-0.1-1.1-1.1-2-2.2-1.9
		C2013.6,222.5,2012.8,223.4,2012.9,224.5C2012.9,224.5,2012.9,224.5,2012.9,224.5L2012.9,224.5z"/>
	<path class="st0" d="M2479.9,424.5c0.1,1.1,1,2,2.1,1.9c1.1-0.1,2-1,1.9-2.1c-0.1-1.1-1-1.9-2.1-1.9
		C2480.7,422.5,2479.8,423.4,2479.9,424.5z"/>
	<path class="st0" d="M233.3,469.3c0.1,1.1,1,2,2.1,1.9c1.1-0.1,1.9-1,1.9-2.1c-0.1-1.1-1-2-2.1-1.9S233.2,468.2,233.3,469.3z"/>
	<path class="st0" d="M1511,248.6c0.1,1.1,1,2,2.1,1.9c1.1-0.1,2-1,1.9-2.1s-1-2-2.1-1.9l0,0C1511.8,246.7,1511,247.5,1511,248.6z"
		/>
	<path class="st0" d="M1627.6,354.2c0.1,1.1,1,2,2.1,1.9c1.1-0.1,2-1,1.9-2.1s-1-2-2.1-1.9C1628.4,352.3,1627.6,353.1,1627.6,354.2z
		"/>
	<path class="st0" d="M1897.5,351.5c0.1,1.1,1,2,2.1,1.9c1.1-0.1,2-1,1.9-2.1c-0.1-1.1-1-1.9-2.1-1.9c-1.1,0-1.9,0.9-1.9,2
		C1897.5,351.4,1897.5,351.5,1897.5,351.5z"/>
	<path class="st0" d="M2347.5,445.6c0.1,1.1,1,2,2.1,1.9c1.1-0.1,2-1,1.9-2.1c-0.1-1.1-1-1.9-2.1-1.9c-1.1,0-1.9,0.9-1.9,2
		C2347.5,445.5,2347.5,445.6,2347.5,445.6z"/>
	<path class="st0" d="M2495.6,370.3c0.1,1.1,1,2,2.1,1.9c1.1-0.1,2-1,1.9-2.1c-0.1-1.1-1-1.9-2.1-1.9
		C2496.4,368.3,2495.5,369.2,2495.6,370.3z"/>
	<path class="st0" d="M616.6,253.1c0.1,1.7,1.5,2.9,3.2,2.8c1.7-0.1,2.9-1.5,2.8-3.2c0,0,0-0.1,0-0.1c-0.1-1.6-1.5-2.9-3.1-2.8
		C617.8,250,616.5,251.4,616.6,253.1z"/>
	<path class="st0" d="M875.5,422.1c0.1,1.7,1.6,3,3.2,2.9c1.6-0.1,2.9-1.5,2.9-3.2c-0.1-1.7-1.5-3-3.2-2.9
		C876.8,418.9,875.4,420.3,875.5,422.1C875.5,422,875.5,422.1,875.5,422.1z"/>
	<path class="st0" d="M982.5,326.2c0.1,1.7,1.5,3,3.2,2.9c1.7-0.1,3-1.5,2.9-3.2c-0.1-1.7-1.5-3-3.2-2.9c0,0,0,0,0,0l0,0
		C983.7,323.1,982.4,324.5,982.5,326.2C982.5,326.2,982.5,326.2,982.5,326.2z"/>
	<path class="st0" d="M1206.1,337.7c0.1,1.7,1.5,2.9,3.2,2.8c1.7-0.1,2.9-1.5,2.8-3.2s-1.5-2.9-3.2-2.8
		C1207.3,334.6,1206,336,1206.1,337.7C1206.1,337.7,1206.1,337.7,1206.1,337.7z"/>
	<path class="st0" d="M1388.8,1404.5c0.1,1.7,1.5,2.9,3.2,2.8c1.7-0.1,2.9-1.5,2.8-3.2c0,0,0-0.1,0-0.1c-0.1-1.6-1.5-2.9-3.1-2.8
		C1390.1,1401.4,1388.8,1402.8,1388.8,1404.5C1388.8,1404.5,1388.8,1404.5,1388.8,1404.5z"/>
	<path class="st0" d="M1807.1,235.3c0.1,1.7,1.6,2.9,3.2,2.8c1.6-0.1,2.8-1.5,2.8-3.2c-0.1-1.6-1.5-2.9-3.1-2.8
		C1808.3,232.2,1807.1,233.6,1807.1,235.3z"/>
	<path class="st0" d="M1960.7,248.9c0.1,1.7,1.4,3,3.1,2.9c1.7-0.1,3-1.4,2.9-3.1s-1.4-3-3.1-2.9c0,0-0.1,0-0.1,0
		C1961.9,245.9,1960.6,247.3,1960.7,248.9z"/>
	<path class="st0" d="M2318.2,328.4c0.1,1.7,1.5,3,3.2,2.9c1.7-0.1,3-1.5,2.9-3.2c-0.1-1.7-1.5-3-3.2-2.9c0,0,0,0,0,0
		C2319.4,325.3,2318.1,326.7,2318.2,328.4z"/>
	<path class="st0" d="M2605.4,805.8c0.1,1.7,1.5,3,3.2,2.9c1.7-0.1,3-1.5,2.9-3.2c-0.1-1.7-1.5-3-3.2-2.9c0,0,0,0,0,0
		C2606.6,802.7,2605.3,804.1,2605.4,805.8z"/>
	<path class="st0" d="M2417.5,670.6c0.1,1.7,1.6,2.9,3.2,2.8c1.6-0.1,2.8-1.5,2.8-3.2c-0.1-1.6-1.5-2.8-3.1-2.8
		C2418.7,667.5,2417.5,668.9,2417.5,670.6z"/>
</g>
</svg>
