<svg xmlns="http://www.w3.org/2000/svg" xmlns:xlink="http://www.w3.org/1999/xlink" viewBox="0 0 2647 1407.3" xmlns:v="https://vecta.io/nano"><g fill="#fff"><path d="M1176.9 27.6c-.1 1.8 1.4 3.3 3.2 3.4s3.3-1.4 3.4-3.2-1.4-3.3-3.2-3.4h0c-1.8-.1-3.3 1.3-3.4 3.2z"/><use xlink:href="#B"/><path d="M2325.7 109.4a3.4 3.4 0 0 0 3.2 3.4 3.4 3.4 0 0 0 3.4-3.2 3.4 3.4 0 0 0-3.2-3.4h0c-1.8-.1-3.3 1.2-3.4 3v.2z"/><use xlink:href="#B" x="1085.6" y="24.2"/><use xlink:href="#B" x="-1132.5" y="180.9"/><path d="M71.9 34.6c-.1 1.8 1.3 3.3 3.1 3.4h.1c1.8.1 3.3-1.4 3.4-3.2s-1.4-3.3-3.2-3.4h0a3.4 3.4 0 0 0-3.4 3.2zm152.9 67.7c-.1 1.8 1.4 3.3 3.2 3.4s3.3-1.4 3.4-3.2-1.4-3.3-3.2-3.4h0c-1.8-.1-3.3 1.3-3.4 3.2 0-.1 0 0 0 0z"/><use xlink:href="#B" x="-826.2" y="29.4"/><path d="M1605.4 76.4a3.4 3.4 0 0 0 3.2 3.4 3.4 3.4 0 0 0 3.4-3.2 3.4 3.4 0 0 0-3.2-3.4c-1.8-.1-3.3 1.3-3.4 3.2zm776.5-7.6a3.4 3.4 0 0 0 3.2 3.4 3.4 3.4 0 0 0 3.4-3.2 3.4 3.4 0 0 0-3.2-3.4h0a3.4 3.4 0 0 0-3.4 3.2zm-1056.3 45.7a3.4 3.4 0 0 0 3.2 3.4 3.4 3.4 0 0 0 3.4-3.2 3.4 3.4 0 0 0-3.2-3.4 3.4 3.4 0 0 0-3.4 3.2zM180.7 284.3c-.1 3.5 2.7 6.4 6.2 6.5s6.4-2.7 6.5-6.2-2.7-6.4-6.2-6.5c-3.5 0-6.3 2.7-6.5 6.2z"/><use xlink:href="#C"/><path d="M172 89.4c-.1 3.5 2.7 6.4 6.2 6.5s6.4-2.7 6.5-6.2-2.7-6.4-6.2-6.5h0c-3.5 0-6.3 2.7-6.5 6.2z"/><use xlink:href="#C" x="-481.5" y="123.3"/><use xlink:href="#D"/><use xlink:href="#C" x="482.1" y="33.9"/><use xlink:href="#E"/><use xlink:href="#D" x="343.8" y="10.5"/><use xlink:href="#C" x="1252.5" y="103.1"/><use xlink:href="#E" x="249.4" y="36.3"/><use xlink:href="#D" x="858.7" y="-88.3"/><path d="M2085.7 128.5c-.1 3.5 2.7 6.4 6.2 6.5s6.4-2.7 6.5-6.2-2.7-6.4-6.2-6.5h0c-3.5 0-6.3 2.7-6.5 6.2z"/><use xlink:href="#C" x="1737.6" y="-6.1"/><use xlink:href="#E" x="971.9" y="160.4"/><path d="M2512.7 238.8c-.1 3.5 2.7 6.4 6.2 6.5s6.4-2.7 6.5-6.2-2.7-6.4-6.2-6.5c-3.5 0-6.4 2.7-6.5 6.2z"/><use xlink:href="#C" x="2152.8" y="167.4"/><path d="M1379.8 423.8c.1 1.1 1 2 2.1 1.9s2-1 1.9-2.1-1-1.9-2.1-1.9c-1.1.1-1.9 1-1.9 2.1zm-675 196.9c.1 1.1 1 2 2.1 1.9 1.1 0 1.9-.9 1.9-2v-.2c-.1-1.1-1-2-2.1-1.9s-2 1.1-1.9 2.2h0zm-300-314.8c.1 1.1 1 1.9 2.1 1.9 1.1-.1 2-1 1.9-2.1s-1-1.9-2.1-1.9-1.9.9-1.9 2v.1z"/><use xlink:href="#F"/><path d="M1686.9 335.7c.1 1.1 1 2 2.1 1.9s2-1 1.9-2.1-1-2-2.1-1.9-2 1-1.9 2.1z"/><use xlink:href="#F" x="1148.6" y="19.7"/><path d="M1797.6 351.8c.1 1.1 1 2 2.1 1.9s2-1 1.9-2.1-1-2-2.1-1.9c-1.1 0-1.9.9-1.9 2v.1zm288.7 30.7c.1 1.1 1 2 2.1 1.9 1.1 0 1.9-.9 1.9-2v-.2c-.1-1.1-1-2-2.1-1.9s-1.9 1.1-1.9 2.2zm142.5-85.7c.1 1.1 1 2 2.1 1.9s2-1 1.9-2.1-1-2-2.1-1.9-2 1-1.9 2.1z"/><use xlink:href="#F" x="1450.6" y="-60.4"/><path d="M2012.9 224.5c.1 1.1 1 2 2.1 1.9s2-1 1.9-2.1h0c-.1-1.1-1.1-2-2.2-1.9s-1.9 1-1.8 2.1h0z"/><use xlink:href="#F" x="1786.6" y="154"/><path d="M233.3 469.3c.1 1.1 1 2 2.1 1.9s1.9-1 1.9-2.1c-.1-1.1-1-2-2.1-1.9s-2 1-1.9 2.1zM1511 248.6c.1 1.1 1 2 2.1 1.9s2-1 1.9-2.1-1-2-2.1-1.9h0c-1.1.2-1.9 1-1.9 2.1zm116.6 105.6c.1 1.1 1 2 2.1 1.9s2-1 1.9-2.1-1-2-2.1-1.9c-1.1.2-1.9 1-1.9 2.1zm269.9-2.7c.1 1.1 1 2 2.1 1.9s2-1 1.9-2.1-1-1.9-2.1-1.9-1.9.9-1.9 2v.1zm450 94.1c.1 1.1 1 2 2.1 1.9s2-1 1.9-2.1-1-1.9-2.1-1.9-1.9.9-1.9 2v.1z"/><use xlink:href="#F" x="1802.3" y="99.8"/><path d="M616.6 253.1c.1 1.7 1.5 2.9 3.2 2.8s2.9-1.5 2.8-3.2v-.1c-.1-1.6-1.5-2.9-3.1-2.8-1.7.2-3 1.6-2.9 3.3zm258.9 169c.1 1.7 1.6 3 3.2 2.9s2.9-1.5 2.9-3.2c-.1-1.7-1.5-3-3.2-2.9-1.6 0-3 1.4-2.9 3.2 0-.1 0 0 0 0zm107-95.9c.1 1.7 1.5 3 3.2 2.9s3-1.5 2.9-3.2-1.5-3-3.2-2.9h0c-1.7.1-3 1.5-2.9 3.2zm223.6 11.5c.1 1.7 1.5 2.9 3.2 2.8s2.9-1.5 2.8-3.2-1.5-2.9-3.2-2.8c-1.6.1-2.9 1.5-2.8 3.2zm182.7 1066.8c.1 1.7 1.5 2.9 3.2 2.8s2.9-1.5 2.8-3.2v-.1c-.1-1.6-1.5-2.9-3.1-2.8a3.35 3.35 0 0 0-2.9 3.3zm418.3-1169.2c.1 1.7 1.6 2.9 3.2 2.8s2.8-1.5 2.8-3.2c-.1-1.6-1.5-2.9-3.1-2.8-1.7.1-2.9 1.5-2.9 3.2zm153.6 13.6c.1 1.7 1.4 3 3.1 2.9s3-1.4 2.9-3.1-1.4-3-3.1-2.9h-.1c-1.6.1-2.9 1.5-2.8 3.1zm357.5 79.5c.1 1.7 1.5 3 3.2 2.9s3-1.5 2.9-3.2-1.5-3-3.2-2.9-3 1.5-2.9 3.2zm287.2 477.4c.1 1.7 1.5 3 3.2 2.9s3-1.5 2.9-3.2-1.5-3-3.2-2.9-3 1.5-2.9 3.2zm-187.9-135.2c.1 1.7 1.6 2.9 3.2 2.8s2.8-1.5 2.8-3.2c-.1-1.6-1.5-2.8-3.1-2.8-1.7.1-2.9 1.5-2.9 3.2z"/></g><defs ><path id="B" d="M1262.8 159.6c-.1 1.8 1.4 3.3 3.2 3.4s3.3-1.4 3.4-3.2-1.4-3.3-3.2-3.4h0a3.4 3.4 0 0 0-3.4 3.2z"/><path id="C" d="M481.5 29.4c-.1 3.5 2.7 6.4 6.2 6.5s6.4-2.7 6.5-6.2-2.7-6.4-6.2-6.5h0c-3.5-.1-6.4 2.7-6.5 6.2z"/><path id="D" d="M1109.8 143.4c-.1 3.5 2.7 6.4 6.2 6.5s6.4-2.7 6.5-6.2-2.7-6.4-6.2-6.5-6.4 2.7-6.5 6.2z"/><path id="E" d="M1325.7 6.2c-.1 3.5 2.7 6.4 6.2 6.5s6.4-2.7 6.5-6.2-2.7-6.4-6.2-6.5h0c-3.5 0-6.4 2.7-6.5 6.2z"/><path id="F" d="M693.3 270.5c.1 1.1 1 2 2.1 1.9s2-1 1.9-2.1-1-1.9-2.1-1.9c-1.1.1-2 1-1.9 2.1z"/></defs></svg>