<svg xmlns="http://www.w3.org/2000/svg" xmlns:xlink="http://www.w3.org/1999/xlink" viewBox="0 0 2735.2 1416" xmlns:v="https://vecta.io/nano"><g opacity=".75" fill="#fff"><path d="M1434.6 1414.1c.1 1.1 1 2 2.1 1.9s2-1 1.9-2.1-1-1.9-2.1-1.9c-1.1.1-2 1-1.9 2.1zM32.6 396.5c-.1 1.8 1.4 3.3 3.2 3.4s3.3-1.4 3.4-3.2a3.4 3.4 0 0 0-3.2-3.4c-1.8-.1-3.3 1.3-3.4 3.2 0-.1 0 0 0 0h0zm13.6-174.1c-.1 1.8 1.4 3.3 3.2 3.4s3.3-1.4 3.4-3.2-1.4-3.3-3.2-3.4h0c-1.7-.1-3.3 1.2-3.4 2.9v.3zM758.8 40.9c-.1 1.8 1.4 3.3 3.2 3.4s3.3-1.4 3.4-3.2-1.4-3.3-3.2-3.4a3.4 3.4 0 0 0-3.4 3.2zM384.7 85c-.9.6-1.1 1.9-.5 2.8h0c.7.8 1.3 1.7 1.9 2.6.3.6.6 1.1 1 1.6.3.4.8.7 1.3.8 1.1.1 2.1-.6 2.3-1.7.1-.5-.1-1.1-.4-1.5-.1-.2-.3-.3-.4-.5-.3-.6-.7-1.2-1.1-1.8-.5-.6-.9-1.3-1.4-1.9-.4-.5-1-.8-1.6-.8-.4.1-.8.2-1.1.4h0zm4.6 12.2c-.5.1-1 .4-1.3.8l-.2.2c-.7.6-1.5 1.1-2.3 1.6-.4.3-.7.8-.8 1.3s.1 1.1.4 1.5.8.7 1.3.8 1.1-.1 1.5-.4l1.5-.9c.7-.5 1.3-1 1.8-1.6.7-.8.6-2-.2-2.7 0 0-.1 0-.1-.1h-.1c-.4-.3-.8-.5-1.3-.4l-.2-.1zm4.2-.7c-.9.6-1.1 1.9-.5 2.7l.1.1 1.1 1.6a11.51 11.51 0 0 0 1.4 1.7c.9.7 2.2.5 2.9-.4.3-.4.4-.9.4-1.4v-.1c-.1-.4-.3-.8-.6-1.1l.1.1-2-2.8c-.4-.5-1-.8-1.6-.8-.5 0-.9.2-1.3.4zm5.1-6.5l-1.2 1.1c-.4.3-.7.8-.8 1.3-.2 1.1.6 2.1 1.7 2.3h.1c.5.1 1.1 0 1.5-.4l1.2-1.1c.4-.3.7-.8.8-1.3s-.1-1.1-.4-1.5-.8-.7-1.3-.8h-.3c-.5-.1-.9.1-1.3.4h0zm279.2 46.1a1.98 1.98 0 0 0-1.1 1.1 2.21 2.21 0 0 0 0 1.6l.6 1.8c.3.7.7 1.4 1.1 2.1.6.9 1.9 1.1 2.8.5h0c.4-.3.7-.8.8-1.3s-.1-1.1-.4-1.5l-.1-.2-1.1-2.8c-.3-.8-1.1-1.3-1.9-1.3-.2-.1-.5-.1-.7 0h0zm-1.4 10.6l-3 1.3a1.98 1.98 0 0 0-1.1 1.1c-.5 1-.1 2.2.9 2.7a1.72 1.72 0 0 0 1.7 0c.9-.6 2-1 3-1.3 1-.4 1.6-1.6 1.2-2.6a1.8 1.8 0 0 0-1.2-1.2c-.2-.1-.5-.2-.8-.2-.2 0-.5.1-.7.2h0zm8.1.4a1.98 1.98 0 0 0-1.1 1.1 2.21 2.21 0 0 0 0 1.6l.6 1.1a1.98 1.98 0 0 0 1.1 1.1 2.21 2.21 0 0 0 1.6 0 1.98 1.98 0 0 0 1.1-1.1 2.21 2.21 0 0 0 0-1.6l-.6-1.1a1.98 1.98 0 0 0-1.1-1.1c-.3-.1-.5-.2-.8-.2s-.6.1-.8.2zm4.3-6.6l-1.8.8c-1 .4-1.6 1.5-1.3 2.5.4 1 1.5 1.6 2.5 1.3.1 0 .2-.1.2-.1.6-.2 1.2-.5 1.8-.8 1-.4 1.5-1.6 1.1-2.6-.3-.8-1.1-1.3-1.9-1.3-.1.1-.4.1-.6.2h0zM763.3 31a1.98 1.98 0 0 0-1.1 1.1l-.1.3a2.21 2.21 0 0 0 0 1.6c.4 1 1.6 1.6 2.6 1.2h.1a1.98 1.98 0 0 0 1.1-1.1l.1-.3a2.21 2.21 0 0 0 0-1.6 1.98 1.98 0 0 0-1.1-1.1c-.3-.1-.5-.2-.8-.2-.3-.1-.6 0-.8.1zm5.8 9.9c-.3.4-.5 1-.4 1.5s.4 1 .8 1.3 1 .5 1.5.4 1-.3 1.3-.7.5-1 .4-1.5-.4-1-.8-1.3-1-.5-1.5-.4-1 .3-1.3.7zm-9.1 9.3c-.3.4-.5 1-.4 1.5s.4 1 .8 1.3 1 .5 1.5.4 1-.4 1.3-.8.5-1 .4-1.5-.4-1-.8-1.3-1-.5-1.5-.4c-.5.2-.9.4-1.3.8zm-9.7-12.8c-.7.8-.6 2 .2 2.7 0 0 .1 0 .1.1h.1c.4.3 1 .5 1.5.4s1-.4 1.3-.8c.7-.9.5-2.2-.3-2.9-.4-.3-1-.5-1.5-.4-.5.2-1 .5-1.4.9zM324.8 256c-.5.1-1 .3-1.3.7s-.5 1-.4 1.5.4 1 .8 1.3l3.2 2.9c.9.7 2.2.5 2.9-.4s.5-2.1-.3-2.8h0a44.04 44.04 0 0 1-3.2-2.9c-.4-.3-.8-.5-1.3-.4l-.4.1zm11.5-3.1c-.7 1-1.3 2.1-1.8 3.2l-1.2 3c-.4 1 0 2.2 1 2.7s2.2 0 2.7-1h0c.6-1.7 1.3-3.3 2.1-4.9l.3-.4c.7-.8.6-2.1-.2-2.8-.4-.3-.9-.5-1.4-.5-.6-.1-1.2.2-1.5.7h0zm3.4 10.7c-.4.3-.7.8-.8 1.3s.1 1.1.4 1.5.8.7 1.3.8c1 0 1.9.1 2.9.2 1.1.2 2.1-.6 2.3-1.7s-.6-2.1-1.7-2.3l-2.9-.2h-.2c-.5 0-.9.2-1.3.4h0zm-8.4 2.9a1.98 1.98 0 0 0-1.1 1.1l-1.3 3.9a2.21 2.21 0 0 0 0 1.6c.4 1 1.6 1.5 2.6 1.1h.1a1.98 1.98 0 0 0 1.1-1.1l1.3-3.9a2.21 2.21 0 0 0 0-1.6 1.98 1.98 0 0 0-1.1-1.1c-.3-.1-.5-.2-.8-.2-.3.1-.6.1-.8.2h0zM.7 13.3a1.75 1.75 0 0 0-.7 1.4c0 .5.1 1.1.5 1.5l1.8 2.6 1.3 1.8.3.6c.5 1 1.7 1.5 2.7 1s1.4-1.7 1-2.7h0c-.6-1.1-1.3-2.1-2-3.1-.7-.9-1.3-1.9-2-2.9a1.75 1.75 0 0 0-1.4-.7H2c-.5 0-.9.2-1.3.5zm3 7.5l.1.1-.1-.1zM13.9 14c-.7 1.1-1.3 2.3-1.9 3.4-.2.5-.2 1.1.1 1.6.4 1 1.5 1.4 2.5 1.1 0 0 .1 0 .1-.1h.1a1.98 1.98 0 0 0 1.1-1.1c.2-.3.4-.6.5-1l.9-1.5c.7-.8.5-2.1-.3-2.7l-.1-.1c-.4-.3-.8-.4-1.3-.4-.7-.1-1.3.2-1.7.8zm3.2 12.1c-.4 1 .1 2.2 1.2 2.6 1 .4 2 .8 3 1 1.1.3 2.2.4 3.3.6 1.1.1 2.1-.7 2.2-1.8v-.1c.1-.6-.1-1.1-.5-1.5-.3-.4-.8-.7-1.3-.8l-2.4-.4c-1-.3-1.9-.6-2.8-1-.2-.1-.5-.1-.7-.1-.9.1-1.7.7-2 1.5zM3.9 32.5c-.2.6-.5 1.2-.8 1.8-.4 1 .1 2.2 1.1 2.6h.1c1.1.4 2.3-.1 2.7-1.2l.8-1.8c.4-1-.1-2.2-1.2-2.6-.2-.1-.5-.1-.7-.1-.9 0-1.6.5-2 1.3z"/><use xlink:href="#B"/><use xlink:href="#B" x="-17.8" y="0.6"/><path d="M39.6 232.3c-.9.7-1 1.9-.4 2.7 0 0 0 .1.1.1h0a1.75 1.75 0 0 0 1.4.7c.5 0 1.1-.1 1.5-.4a1.75 1.75 0 0 0 .7-1.4c0-.5-.1-1.1-.5-1.5a1.75 1.75 0 0 0-1.4-.7c-.5 0-1 .2-1.4.5zm15.1-4.7c-.9.7-.9 2-.2 2.9.4.4.9.7 1.4.7s1.1-.1 1.5-.5c.9-.7.9-2 .2-2.9-.4-.4-.9-.7-1.4-.7-.5-.1-1.1.1-1.5.5zM41.8 384.9l-1.6 2.5c-.6.9-.4 2.2.5 2.8s2.2.4 2.8-.5l1.6-2.5c.6-.9.4-2.2-.5-2.8-.4-.2-.8-.4-1.2-.4-.6 0-1.2.4-1.6.9zm2.4 14.4c-.1 1.1.7 2.1 1.8 2.2l4.2.6c1.1.1 2.1-.7 2.2-1.8s-.7-2.1-1.8-2.2h0l-4.2-.6h-.2c-1-.1-1.9.8-2 1.8zM30 406.8l-.1 1.1c-.1 1.1.7 2.1 1.8 2.2s2.1-.7 2.2-1.8l.1-1.1c.1-1.1-.7-2.1-1.8-2.2H32c-1-.1-1.9.7-2 1.8h0zm-11.1-11.6c-.1 1.1.8 2.1 1.9 2.2a40.28 40.28 0 0 0 4.9.3c1.1.1 2.1-.7 2.2-1.8s-.7-2.1-1.8-2.2H26c-1.6 0-3.3-.1-4.9-.4h-.3c-1 .2-1.7.9-1.9 1.9zm1188.8-264c-1 .4-1.6 1.6-1.2 2.6l1 3.4c.2.5.5.9 1 1.1 1 .5 2.2.1 2.7-.9v-.1c.2-.5.2-1.1.1-1.6l-.9-3.4c-.3-.8-1-1.3-1.9-1.3-.3.1-.5.2-.8.2h0zm11.2 2.4l-4.3 3.1c-.9.6-1.1 1.9-.5 2.8s1.9 1.1 2.8.5l4.3-3.1c.9-.6 1.2-1.9.6-2.8v-.1c-.4-.6-1-.9-1.7-.9-.4.2-.8.3-1.2.5h0zm-3.2 11.3c-.5.2-.9.5-1.1 1s-.3 1.1-.1 1.6.5.9 1 1.1l2.6 1.6a6.42 6.42 0 0 1 1.3 1c.9.7 2.1.6 2.9-.2.7-.9.7-2.2-.2-2.9-1.5-1.2-3.1-2.3-4.8-3.2-.3-.1-.5-.2-.8-.2s-.6 0-.8.2h0zm-9.4 2.9l-2.6 1.1c-.5.2-.9.5-1.1 1-.5.9-.2 2.1.8 2.7.5.3 1.1.3 1.7.1l2.6-1.1c1-.4 1.6-1.6 1.2-2.6-.3-.8-1-1.4-1.9-1.4-.2 0-.5.1-.7.2zM1428.8 3.9c-.5 0-1 .3-1.4.7-.3.4-.5 1-.5 1.5-.1 1.7-.1 3.3 0 5 .1 1.1 1.1 1.9 2.2 1.8s1.9-1.1 1.8-2.2c-.1-1.7-.1-3.3 0-5 0-.5-.3-1-.7-1.4-.4-.3-.9-.5-1.4-.4zm11 6l-3.4 1.1c-1 .4-1.6 1.6-1.2 2.6s1.5 1.6 2.6 1.2h0l3.4-1.1a1.95 1.95 0 0 0 1.6-2.3 1.95 1.95 0 0 0-2.3-1.6h0c-.2 0-.5 0-.7.1z"/><path d="M1435.9 18.7c-.7.9-.6 2.1.2 2.9l3.1 2.7c.9.7 2.1.6 2.9-.2.7-.9.7-2.2-.2-2.9l-3.1-2.7c-.4-.3-.8-.5-1.3-.5-.6 0-1.2.3-1.6.7zm-11.8 1.1l-2.3 1.4c-.9.6-1.2 1.9-.6 2.8h0c.6.9 1.8 1.2 2.7.6 0 0 .1 0 .1-.1l2.3-1.4c.9-.6 1.2-1.9.6-2.8h0c-.4-.5-1-.8-1.6-.9-.4.1-.8.2-1.2.4h0zm174-19.6c-.5.2-.9.5-1.1 1-.3.5-.3 1.1-.1 1.6l1.6 3.3c.2.5.5.9 1 1.1 1 .5 2.2.1 2.7-.9v-.1c.3-.5.3-1.1.1-1.6l-1.6-3.3c-.2-.5-.5-.9-1-1.1-.3-.1-.6-.2-.9-.2-.2.1-.5.1-.7.2zm16.2 4.5l-2.6 1.1c-.5.2-.9.5-1.1 1-.5.9-.2 2.1.8 2.7.5.3 1.1.3 1.7.1l2.6-1.1c1-.4 1.6-1.5 1.2-2.6-.3-.8-1.1-1.3-1.9-1.3-.2-.1-.5 0-.7.1h0zm-3.3 10c-.5 1-.1 2.2.9 2.7h.1l3.7 1.9c1 .5 2.2.1 2.7-.9s.1-2.2-.9-2.7h0l-3.7-1.9c-.3-.1-.6-.2-.9-.2-.8 0-1.5.4-1.9 1.1zm-14-1.2l-2.1 4.1c-.5 1-.1 2.2.9 2.7s2.2.1 2.7-.9h0l2.1-4.1c.5-1 .1-2.2-.9-2.7s-2.2-.1-2.7.9zm32.1 143.7c-1 .4-1.6 1.6-1.2 2.6l2.7 5.4c0 .1.1.1.1.2h0v.1c.2.5.6.8 1 1.1.5.2 1.1.3 1.6.1 1-.4 1.6-1.6 1.2-2.6-.2-.5-.4-.9-.7-1.3l-2.2-4.4c-.2-.5-.5-.9-1-1.1-.3-.1-.6-.2-.9-.2-.2 0-.4.1-.6.1h0zm1.7 8.5l-.1-.1v-.1l-.1-.2v-.1l.2.5zm14.9-3.6l-6.6 2.7c-1 .4-1.6 1.6-1.2 2.6s1.5 1.6 2.6 1.2l6.6-2.7c.5-.2.9-.5 1.2-1 .2-.5.3-1.1.1-1.6s-.5-.9-1-1.1c-.3-.1-.6-.2-.9-.2s-.5 0-.8.1h0zm-7 12.6c-.7.8-.7 2 .1 2.8h.1l3.2 2.6c.9.7 2.2.7 2.9-.2.7-.8.7-2-.1-2.8h-.1a40.31 40.31 0 0 1-3.2-2.6c-.4-.3-.9-.5-1.4-.5-.6.1-1.1.3-1.5.7zm-8.2-2.4c-2.3 1.7-4.7 3.2-7.2 4.6-.5.3-.8.8-.8 1.3-.2 1.1.5 2.2 1.6 2.4.5.1 1.1 0 1.5-.3 2.5-1.4 4.9-2.9 7.2-4.6.9-.6 1.2-1.8.7-2.7-.4-.6-1.1-1-1.9-1-.4 0-.8.1-1.1.3zm348.9-39.5c-.4.3-.7.8-.8 1.3s0 1 .3 1.5l2.2 3.7c.6.9 1.9 1.2 2.8.6.5-.3.8-.8.9-1.4.1-.5 0-1.1-.3-1.5l-2.2-3.7c-.4-.5-1-.8-1.6-.8-.5 0-.9.1-1.3.3h0zm13.8 2.4c-.7.8-1.5 1.6-2.3 2.3-.4.4-.5 1-.5 1.5.1.5.3 1 .7 1.4.4.3 1 .5 1.5.5.5-.1 1-.3 1.3-.7l2.3-2.4c.7-.8.6-2.1-.2-2.8h-.1c-.4-.3-.8-.5-1.3-.5-.5.1-1 .3-1.4.7z"/><path d="M1992.6 147.1c-.5 1 0 2.2 1 2.7l4.7 2.3h-.1c.9.7 2.1.5 2.8-.3.7-.9.7-2.2-.2-2.9a11.74 11.74 0 0 0-2.7-1.5l-2.8-1.3c-1-.4-2.2 0-2.7 1h0zm5.3 4.7l.2.1-.2-.1zm-19.2-1.7l-2.9 3.7c-.7.9-.6 2.2.2 2.9s2.2.6 2.9-.2l.1-.1 2.9-3.7c.7-.8.7-2-.1-2.7l-.1-.1c-.4-.3-.9-.5-1.4-.5-.6 0-1.2.2-1.6.7zM2000 .9c-.4.3-.7.8-.8 1.3s0 1.1.3 1.5l.9 1.5.3.6c.2.5.5.9 1 1.1s1.1.3 1.6.1.9-.5 1.1-1a2.21 2.21 0 0 0 0-1.6c-.5-1-1.1-2-1.7-3-.3-.4-.8-.7-1.3-.8h-.3c-.4 0-.8.1-1.1.3zm12.7 4.5l-3.2 2.6c-.4.3-.7.8-.8 1.3s0 1.1.3 1.5c.6.9 1.9 1.1 2.8.5h.1l3.1-2.6c.4-.3.7-.8.8-1.3s0-1.1-.3-1.5c-.4-.5-1-.9-1.7-.9-.4 0-.8.1-1.1.4h0zm-2 13.1c-.4 1 0 2.2 1 2.7l3.2 1.6c.4.3 1 .5 1.5.5.5-.1 1-.3 1.4-.7.3-.4.5-1 .5-1.5-.1-.5-.3-1-.7-1.4-1.3-.8-2.7-1.6-4.1-2.2-.3-.1-.5-.2-.8-.2-.8 0-1.6.4-2 1.2zm-7.7-2.6l-5.1 3.3c-.9.6-1.2 1.9-.6 2.8.3.5.8.8 1.4.9.5.1 1.1 0 1.5-.4l5.1-3.3c.9-.7 1.1-1.9.5-2.8-.4-.5-1-.8-1.6-.8-.4 0-.8.1-1.2.3zm214.3 88.5c-.4.4-.5 1-.5 1.5.1.5.3 1 .7 1.4l1.9 1.8c.8.7 2.1.6 2.8-.2h0c.7-.8.7-2-.1-2.7l-.1-.1-1.9-1.8c-.3-.3-.8-.5-1.2-.5-.6-.1-1.2.1-1.6.6zm18.9-3.9l-3 4.1c-.7.9-.6 2.2.3 2.9.8.7 2.1.6 2.8-.2h0l3-4.1c.7-.8.7-2-.1-2.7l-.1-.1c-.4-.3-.9-.5-1.4-.5-.6-.1-1.1.1-1.5.6h0zm2.3 14.8c-1.1.1-1.9 1-1.9 2.1 0 .6.3 1.2.8 1.5l1.3.9c.4.3 1 .5 1.5.5s1-.3 1.4-.7c.3-.4.5-1 .5-1.5-.1-.5-.3-1-.7-1.3l-1.3-.9c-.4-.3-.8-.5-1.3-.5l-.3-.1zm-15.1 5.7l-2.2 2.9c-.7.9-.6 2.2.2 2.9s2.2.6 2.9-.2l.1-.1 2.2-2.9c.7-.8.7-2-.1-2.7l-.1-.1c-.4-.3-.9-.5-1.4-.5-.6-.1-1.2.2-1.6.7zm197-110.2c-.5.1-1 .3-1.4.7-.3.4-.5 1-.4 1.5v5.1c.1 1.1 1.1 1.9 2.2 1.8h.1c1.1-.1 1.9-1.1 1.8-2.2-.1-1.7 0-3.4 0-5.1-.1-1.1-.9-1.9-2-1.9l-.3.1zm9.9 10.2c-.4.3-.7.8-.8 1.3s0 1.1.4 1.5c.3.4.8.7 1.3.8l3.4.1c.5-.1 1-.3 1.4-.7.3-.4.5-1 .5-1.5-.1-.5-.3-1-.7-1.4-.4-.3-1-.5-1.5-.5h-2.6c-.5 0-1 .2-1.4.4h0zm-5.5 14.3c-.9.6-1.1 1.9-.5 2.8v.1l2.8 3.6c.6.9 1.9 1.1 2.8.5s1.1-1.9.5-2.8h0l-2.8-3.6c-.4-.5-1-.8-1.7-.8-.4-.2-.8-.1-1.1.2zm-13.2-5.9l-4.8.7c-.5.1-1 .3-1.4.7-.3.4-.5 1-.5 1.5.1 1.1 1.1 1.9 2.2 1.8l4.8-.7c1.1-.1 2-1 1.9-2.1s-1-2-2.2-1.9zm32.6 134.4c-.5.2-.9.5-1.1 1s-.2 1.1-.1 1.6l1.1 4.1c.2.5.5.9 1 1.1 1 .5 2.2.1 2.7-.9v-.1c.2-.5.2-1.1.1-1.6-.3-1.4-.7-2.8-1.1-4.1-.4-1-1.6-1.5-2.6-1.1h0zm13.5 6.4c-.5.4-1 .7-1.6 1.1-.9.6-1.1 1.9-.5 2.8s1.9 1.1 2.8.5h0l1.6-1.1c.9-.6 1.2-1.9.6-2.8-.4-.6-1.1-1-1.8-.9-.4.1-.8.2-1.1.4zm-2.6 16.8c-.7.9-.6 2.2.3 2.9l3.5 2.8c.9.7 2.2.6 2.9-.3.7-.8.6-2.1-.2-2.8l-.1-.1c-1.1-1-2.3-1.9-3.5-2.8-.4-.3-.9-.4-1.4-.4-.6 0-1.1.2-1.5.7zm-14.4 2.6l-3.3 1.6c-.5.2-.9.5-1.1 1s-.3 1.1-.1 1.6c.4 1 1.6 1.6 2.6 1.2l3.3-1.6c.5-.2.9-.5 1.1-1s.3-1.1.1-1.6a1.98 1.98 0 0 0-1.1-1.1c-.3-.1-.6-.2-.9-.2-.2-.1-.4 0-.6.1zm251.5-120.9c-.9.7-1.1 1.9-.5 2.8l2.8 4.5c.3.4.8.7 1.3.8s1.1 0 1.5-.3.7-.8.8-1.3 0-1.1-.4-1.5l-2.8-4.5c-.4-.5-1-.8-1.6-.8-.4-.1-.8 0-1.1.3zm14.8 1.6l-4.1 2.8c-.9.6-1.1 1.9-.5 2.8h0c.7.9 1.9 1.1 2.8.5l4.1-2.8c.9-.6 1.1-1.9.5-2.8h0c-.4-.5-1-.8-1.6-.8-.4 0-.8.1-1.2.3zm-3.9 13.7c-.2 1.1.6 2.1 1.7 2.3l4.1 1h.1l.5.2c.3 0 .7 0 1-.1 1-.4 1.6-1.6 1.2-2.6v-.1c-.2-.5-.5-.9-1-1.1l-2.8-.8-2.4-.5h-.4c-1 0-1.8.7-2 1.7h0zm-10.5 2.8c-.5.1-1 .3-1.4.7l-4.5 4.4c-.7.8-.7 2 .1 2.7l.1.1c.4.3 1 .5 1.5.5.5-.1 1-.3 1.4-.7l4.5-4.4c.4-.4.5-1 .5-1.5a2.05 2.05 0 0 0-2-1.8h-.2zm16.2 202c-.9.6-1.1 1.9-.5 2.8h0c1.4 1.7 2.7 3.5 3.9 5.3.3.4.8.7 1.3.8s1.1 0 1.5-.4c.4-.3.7-.8.8-1.3s0-1.1-.4-1.5l-3.9-5.3c-.4-.5-1-.8-1.7-.9-.4.1-.7.3-1 .5h0zm17.9 4.3c-1.5 1-3.1 1.9-4.7 2.8-.4.3-.7.8-.8 1.3s0 1.1.4 1.5c.3.4.8.7 1.3.8s1.1 0 1.5-.4l4.7-2.8c.9-.6 1.1-1.9.5-2.8v-.1c-.4-.5-1-.8-1.6-.8-.5.1-.9.3-1.3.5h0z"/><path d="M2722.8 307.7c-.4.3-.7.8-.8 1.3s0 1.1.4 1.5l2 2.4c.6.9 1.9 1.1 2.8.5s1.1-1.9.5-2.8h0l-2-2.4c-.3-.4-.8-.7-1.3-.8h-.3c-.5-.1-.9 0-1.3.3h0zm-10.2-2.2c-.5.1-1 .3-1.4.7l-5 4.8c-.4.4-.5 1-.5 1.5.1.5.3 1 .7 1.4.4.3 1 .5 1.5.5.5-.1 1-.3 1.4-.7l5-4.8c.4-.4.5-1 .5-1.5-.1-.5-.3-1-.7-1.4-.4-.3-.8-.5-1.3-.5h-.2zm3.6 167.6c-.5.2-.9.5-1.1 1s-.3 1.1-.1 1.6l2.9 5.8c.2.5.5.9 1 1.1 1 .5 2.2.1 2.7-.9v-.1c.2-.5.3-1.1.1-1.6l-2.9-5.8a1.98 1.98 0 0 0-1.1-1.1c-.3-.1-.6-.2-.9-.2-.2.1-.4.2-.6.2h0zm11.8 5.7l-2 1.2c-.9.6-1.2 1.9-.6 2.8.3.5.8.8 1.4.9.5.1 1.1 0 1.5-.4l2-1.2c.9-.7 1.1-1.9.5-2.8-.4-.5-1-.8-1.6-.8-.4-.1-.9 0-1.2.3h0zm1.5 14.4c-1.1.1-2 1.1-1.9 2.2.1.5.3 1 .7 1.4 1.2.8 2.4 1.7 3.5 2.7.9.7 2.2.6 2.9-.3.7-.8.6-2.1-.2-2.8l-.1-.1c-1.1-1-2.3-1.9-3.5-2.7-.4-.3-.9-.5-1.4-.4h0zm-10.1-3.4l-4.4 4c-.4.3-.7.8-.8 1.3s0 1.1.4 1.5c.3.4.8.7 1.3.8s1.1 0 1.5-.4l4.4-4c.4-.3.7-.8.8-1.3s0-1.1-.4-1.5c-.3-.4-.8-.7-1.3-.8h-.4c-.4 0-.8.2-1.1.4zM1957.7 192c.1 1.1 1 1.9 2.1 1.9 1.1-.1 2-1 1.9-2.1s-1-2-2.1-1.9-2 1-1.9 2.1h0z"/></g><defs ><path id="B" d="M59.6 213.1c-.9.7-1 2-.3 2.9a1.75 1.75 0 0 0 1.4.7c.5 0 1.1-.1 1.5-.5.9-.7 1-1.9.4-2.7 0 0 0-.1-.1-.1h0a1.75 1.75 0 0 0-1.4-.7c-.5-.1-1.1.1-1.5.4h0z"/></defs></svg>