<?xml version="1.0" encoding="utf-8"?>
<!-- Generator: Adobe Illustrator 24.1.3, SVG Export Plug-In . SVG Version: 6.00 Build 0)  -->
<svg version="1.1" id="Layer_1" xmlns="http://www.w3.org/2000/svg" xmlns:xlink="http://www.w3.org/1999/xlink" x="0px" y="0px"
	 viewBox="0 0 2621 1374.9" style="enable-background:new 0 0 2621 1374.9;" xml:space="preserve">
<style type="text/css">
	.st0{fill:#FFFFFF;}
</style>
<g>
	<path class="st0" d="M1340.3,1372.1c0.1,1.7,1.6,2.9,3.2,2.8c1.6-0.1,2.8-1.5,2.8-3.2c-0.1-1.6-1.5-2.9-3.1-2.8
		C1341.5,1369,1340.2,1370.4,1340.3,1372.1C1340.3,1372.1,1340.3,1372.1,1340.3,1372.1z"/>
	<g>
		<path class="st0" d="M96.2,156.6c-0.1,1.8,1.4,3.3,3.2,3.4s3.3-1.4,3.4-3.2c0.1-1.8-1.4-3.3-3.2-3.4l0,0
			C97.8,153.4,96.3,154.8,96.2,156.6z"/>
		<path class="st0" d="M374.5,75.4c-0.1,1.8,1.4,3.3,3.2,3.4c1.8,0.1,3.3-1.4,3.4-3.2c0.1-1.8-1.4-3.3-3.2-3.4l0,0
			C376.1,72.1,374.6,73.5,374.5,75.4C374.5,75.4,374.5,75.4,374.5,75.4z"/>
		<path class="st0" d="M0,410.3c0,1.8,1.4,3.3,3.2,3.4c1.8,0.1,3.3-1.4,3.4-3.2s-1.4-3.3-3.2-3.4C1.6,407.1,0.1,408.5,0,410.3z"/>
		<path class="st0" d="M305.3,210.3c-0.1,1.8,1.4,3.3,3.2,3.4c1.8,0.1,3.3-1.4,3.4-3.2c0.1-1.8-1.4-3.3-3.2-3.4l0,0
			C306.9,207,305.4,208.4,305.3,210.3C305.3,210.3,305.3,210.3,305.3,210.3z"/>
		<path class="st0" d="M1224.2,3.2c0,1.8,1.4,3.3,3.2,3.4c1.8,0.1,3.3-1.3,3.4-3.1c0,0,0,0,0-0.1c0.1-1.8-1.4-3.3-3.2-3.4
			S1224.3,1.4,1224.2,3.2z"/>
		<path class="st0" d="M2608.3,336.7c-0.1,3.5,2.7,6.4,6.2,6.5c3.5,0.1,6.4-2.7,6.5-6.2s-2.7-6.4-6.2-6.5c0,0,0,0,0,0
			C2611.3,330.4,2608.4,333.2,2608.3,336.7z"/>
		<path class="st0" d="M156.2,381.1c0.1,1.1,1,2,2.1,1.9c1.1-0.1,2-1,1.9-2.1c-0.1-1.1-1-1.9-2.1-1.9c-1,0-1.9,0.8-1.9,1.9
			C156.2,381,156.2,381,156.2,381.1z"/>
		<path class="st0" d="M610.3,179.3c0.1,1.1,1,2,2.1,1.9c1.1-0.1,2-1,1.9-2.1l0,0c0-1.1-0.9-1.9-2-1.9
			C611.2,177.3,610.3,178.2,610.3,179.3L610.3,179.3z"/>
		<path class="st0" d="M1130.5,390.5c0.1,1.1,1,2,2.1,1.9c1.1-0.1,2-1,1.9-2.1c-0.1-1.1-1-1.9-2.1-1.9c-1.1,0-1.9,0.9-1.9,2
			C1130.5,390.4,1130.5,390.5,1130.5,390.5z"/>
		<path class="st0" d="M1331.3,391.4c0.1,1.1,1,2,2.1,1.9c1.1-0.1,2-1,1.9-2.1c-0.1-1.1-1-1.9-2.1-1.9
			C1332.1,389.4,1331.3,390.3,1331.3,391.4z"/>
		<path class="st0" d="M1232,657.2c0.1,1.1,1,2,2.1,1.9c1.1,0,1.9-0.9,1.9-2c0,0,0-0.1,0-0.1v-0.1c-0.1-1.1-1-2-2.1-1.9
			C1232.8,655.1,1231.9,656.1,1232,657.2z"/>
		<path class="st0" d="M852.1,642.1c0.1,1.1,1,2,2.1,1.9c1.1-0.1,2-1,1.9-2.1c-0.1-1.1-1-1.9-2.1-1.9
			C852.9,640.1,852.1,641,852.1,642.1z"/>
		<path class="st0" d="M933.9,452.5c0.1,1.1,1,2,2.1,1.9c1.1-0.1,2-1,1.9-2.1c-0.1-1.1-1-1.9-2.1-1.9
			C934.7,450.5,933.9,451.4,933.9,452.5z"/>
		<path class="st0" d="M656.3,588.3c0.1,1.1,1,2,2.1,1.9c1.1,0,1.9-0.9,1.9-2c0,0,0-0.1,0-0.1V588c-0.1-1.1-1-2-2.1-1.9
			C657.1,586.2,656.2,587.2,656.3,588.3L656.3,588.3z"/>
		<path class="st0" d="M437.8,612.2c0.1,1.1,1,2,2.1,1.9s2-1,1.9-2.1c-0.1-1.1-1-1.9-2.1-1.9C438.6,610.2,437.7,611.1,437.8,612.2z"
			/>
		<path class="st0" d="M1162.6,204.4c0.1,1.1,1,2,2.1,1.9c1.1-0.1,2-1,1.9-2.1c-0.1-1.1-1-1.9-2.1-1.9
			C1163.4,202.4,1162.5,203.3,1162.6,204.4z"/>
		<path class="st0" d="M685.2,358.8c0.1,1.1,1,2,2.1,1.9c1.1,0,1.9-0.9,1.9-2c0,0,0-0.1,0-0.1v-0.1c-0.1-1.1-1-2-2.1-1.9
			C686,356.7,685.1,357.7,685.2,358.8z"/>
		<path class="st0" d="M530.7,354.3c0.1,1.1,1,2,2.1,1.9c1.1-0.1,2-1,1.9-2.1s-1-2-2.1-1.9C531.5,352.3,530.6,353.2,530.7,354.3z"/>
		<path class="st0" d="M346.4,422.2c0.1,1.1,1,2,2.1,1.9c1.1-0.1,2-1,1.9-2.1s-1-2-2.1-1.9C347.2,420.2,346.4,421.1,346.4,422.2z"/>
		<path class="st0" d="M1369.4,197.5c0.1,1.1,1,2,2.1,1.9c1.1-0.1,2-1,1.9-2.1c-0.1-1.1-1-1.9-2.1-1.9c-1.1,0-1.9,0.9-1.9,2
			C1369.4,197.4,1369.4,197.5,1369.4,197.5z"/>
		<path class="st0" d="M1556.6,392.4c0.1,1.1,1,2,2.1,1.9c1.1-0.1,2-1,1.9-2.1c-0.1-1.1-1-1.9-2.1-1.9
			C1557.4,390.4,1556.6,391.3,1556.6,392.4z"/>
		<path class="st0" d="M1454.3,556.5c0.1,1.1,1,2,2.1,1.9s2-1,1.9-2.1c-0.1-1.1-1-1.9-2.1-1.9
			C1455.1,554.5,1454.3,555.4,1454.3,556.5z"/>
		<path class="st0" d="M1688.1,273.8c0.1,1.1,1,2,2.1,1.9c1.1-0.1,2-1,1.9-2.1s-1-2-2.1-1.9C1688.9,271.8,1688,272.7,1688.1,273.8z"
			/>
		<path class="st0" d="M2147.3,539.4c0.1,1.1,1,2,2.1,1.9c1.1-0.1,2-1,1.9-2.1c-0.1-1.1-1-1.9-2.1-1.9
			C2148.1,537.4,2147.2,538.3,2147.3,539.4z"/>
		<path class="st0" d="M2196.1,181.8c0.1,1.1,1,2,2.1,1.9c1.1-0.1,2-1,1.9-2.1l0,0l0,0c-0.1-1.1-1-2-2.1-1.9c-1.1,0-1.9,0.9-1.9,2
			C2196.1,181.7,2196.1,181.8,2196.1,181.8L2196.1,181.8z"/>
		<path class="st0" d="M2416.4,510c0.1,1.1,1,2,2.1,1.9c1.1-0.1,2-1,1.9-2.1c-0.1-1.1-1-1.9-2.1-1.9c-1.1,0-1.9,0.9-1.9,2
			C2416.4,509.9,2416.4,510,2416.4,510z"/>
		<path class="st0" d="M2568.6,698.8c0.1,1.1,1,1.9,2.1,1.9c1.1-0.1,2-1,1.9-2.1c-0.1-1.1-1-1.9-2.1-1.9c-1.1,0-1.9,0.9-1.9,2
			C2568.6,698.7,2568.6,698.8,2568.6,698.8z"/>
		<path class="st0" d="M1869,511.2c0.1,1.1,1,2,2.1,1.9c1.1-0.1,2-1,1.9-2.1c-0.1-1.1-1-1.9-2.1-1.9
			C1869.8,509.2,1868.9,510.1,1869,511.2z"/>
		<path class="st0" d="M1708.2,673c0.1,1.1,1,2,2.1,1.9s2-1,1.9-2.1c-0.1-1.1-1-1.9-2.1-1.9C1709,671,1708.2,671.9,1708.2,673z"/>
		<path class="st0" d="M1650.3,546.6c0.1,1.1,1,2,2.1,1.9c1.1-0.1,2-1,1.9-2.1c-0.1-1.1-1-2-2.1-1.9
			C1651.1,544.6,1650.2,545.5,1650.3,546.6z"/>
		<path class="st0" d="M989.1,331.6c0.1,1.1,1,2,2.1,1.9c1.1-0.1,2-1,1.9-2.1c-0.1-1.1-1-2-2.1-1.9
			C989.9,329.6,989.1,330.5,989.1,331.6z"/>
		<path class="st0" d="M847.8,238.9c0.1,1.1,1,2,2.1,1.9c1.1-0.1,2-1,1.9-2.1c-0.1-1.1-1-1.9-2.1-1.9
			C848.6,236.9,847.7,237.8,847.8,238.9z"/>
		<path class="st0" d="M714.1,292.9c0.1,1.1,1,2,2.1,1.9c1.1-0.1,2-1,1.9-2.1c-0.1-1.1-1-1.9-2.1-1.9
			C714.9,290.9,714,291.8,714.1,292.9z"/>
		<path class="st0" d="M288.9,343.1c0.1,1.1,1,2,2.1,1.9c1.1,0,1.9-0.9,1.9-2c0,0,0-0.1,0-0.1v-0.1c-0.1-1.1-1-2-2.1-1.9
			C289.7,341,288.9,342,288.9,343.1z"/>
		<path class="st0" d="M1300.3,327.1c0.1,1.1,1,2,2.1,1.9c1.1-0.1,2-1,1.9-2.1c-0.1-1.1-1-1.9-2.1-1.9
			C1301.1,325.1,1300.2,326,1300.3,327.1z"/>
		<path class="st0" d="M1325.3,134.5c0.1,1.1,1,1.9,2.1,1.9c1.1-0.1,2-1,1.9-2.1c-0.1-1.1-1-1.9-2.1-1.9
			C1326.1,132.5,1325.2,133.4,1325.3,134.5z"/>
		<path class="st0" d="M1976.8,247.7c0.1,1.1,1,2,2.1,1.9c1.1-0.1,1.9-1,1.9-2.1c-0.1-1.1-1-2-2.1-1.9
			C1977.6,245.7,1976.8,246.6,1976.8,247.7z"/>
		<path class="st0" d="M2004,395c0.1,1.1,1,2,2.1,1.9c1.1-0.1,2-1,1.9-2.1c-0.1-1.1-1-1.9-2.1-1.9C2004.8,393,2004,393.9,2004,395z"
			/>
		<path class="st0" d="M2103.6,305.4c0.1,1.1,1,2,2.1,1.9c1.1-0.1,2-1,1.9-2.1c-0.1-1.1-1-1.9-2.1-1.9
			C2104.4,303.4,2103.6,304.3,2103.6,305.4z"/>
		<path class="st0" d="M2265.4,315.1c0.1,1.1,1,2,2.1,1.9c1.1-0.1,2-1,1.9-2.1c-0.1-1.1-1-1.9-2.1-1.9c-1.1,0-1.9,0.9-1.9,2
			C2265.4,315,2265.4,315.1,2265.4,315.1z"/>
		<path class="st0" d="M1347.4,277.3c0.1,1.7,1.5,2.9,3.2,2.8c1.7-0.1,2.9-1.5,2.8-3.2c-0.1-1.7-1.5-2.9-3.2-2.8
			C1348.5,274.2,1347.3,275.7,1347.4,277.3z"/>
		<path class="st0" d="M1384,382.9c0.1,1.7,1.5,3,3.2,2.9c1.7-0.1,3-1.5,2.9-3.2c-0.1-1.7-1.5-3-3.2-2.9c0,0,0,0,0,0
			C1385.2,379.8,1383.9,381.2,1384,382.9C1384,382.9,1384,382.9,1384,382.9z"/>
		<path class="st0" d="M1769.1,340.1c0.1,1.7,1.6,2.9,3.2,2.8c1.6-0.1,2.8-1.5,2.8-3.2c-0.1-1.6-1.5-2.9-3.1-2.8
			C1770.3,337,1769.1,338.4,1769.1,340.1z"/>
		<path class="st0" d="M1932.1,314.3c0.1,1.7,1.6,3,3.2,2.9c1.6-0.1,2.9-1.5,2.9-3.2l0,0c-0.1-1.7-1.5-3-3.2-2.9
			C1933.3,311.2,1932.1,312.6,1932.1,314.3L1932.1,314.3z"/>
		<path class="st0" d="M2136.5,401.9c0.1,1.7,1.5,3,3.2,2.9c1.7-0.1,3-1.5,2.9-3.2c-0.1-1.7-1.5-3-3.2-2.9c0,0,0,0,0,0l0,0
			C2137.7,398.8,2136.5,400.2,2136.5,401.9z"/>
		<path class="st0" d="M2368.8,416c0.1,1.7,1.5,3,3.2,2.9c1.7-0.1,3-1.5,2.9-3.2c-0.1-1.7-1.5-3-3.2-2.9c0,0,0,0,0,0l0,0
			C2370,412.9,2368.7,414.3,2368.8,416C2368.8,416,2368.8,416,2368.8,416z"/>
		<path class="st0" d="M2568.6,639.6c0.1,1.7,1.6,2.9,3.2,2.8c1.6-0.1,2.8-1.5,2.8-3.2c-0.1-1.6-1.5-2.9-3.1-2.8
			C2569.8,636.5,2568.5,637.9,2568.6,639.6C2568.6,639.6,2568.6,639.6,2568.6,639.6z"/>
		<path class="st0" d="M2597.7,830c0.1,1.7,1.6,2.9,3.2,2.8c1.6-0.1,2.8-1.5,2.8-3.2c-0.1-1.6-1.5-2.9-3.1-2.8
			C2598.9,826.9,2597.6,828.3,2597.7,830C2597.7,830,2597.7,830,2597.7,830z"/>
		<path class="st0" d="M157.1,557.9c0.1,1.7,1.5,3,3.2,2.9c1.7-0.1,3-1.5,2.9-3.2c-0.1-1.7-1.5-3-3.2-2.9c0,0,0,0,0,0l0,0
			C158.3,554.8,157.1,556.2,157.1,557.9z"/>
		<path class="st0" d="M111.8,628.8c0.1,1.7,1.5,2.9,3.2,2.8c1.7-0.1,2.9-1.5,2.8-3.2c-0.1-1.7-1.5-2.9-3.2-2.8
			C112.9,625.7,111.7,627.2,111.8,628.8z"/>
		<path class="st0" d="M294.4,518.6c0.1,1.7,1.5,3,3.2,2.9c1.7-0.1,2.9-1.5,2.8-3.2c-0.1-1.7-1.5-2.9-3.2-2.8c0,0-0.1,0-0.1,0
			C295.6,515.6,294.4,517,294.4,518.6z"/>
		<path class="st0" d="M367.1,380.1c0.1,1.7,1.5,3,3.2,2.9c1.7-0.1,2.9-1.5,2.8-3.2c-0.1-1.7-1.5-2.9-3.2-2.8c0,0-0.1,0-0.1,0
			C368.3,377.1,367.1,378.5,367.1,380.1z"/>
		<path class="st0" d="M214.2,355.1c0.1,1.7,1.5,3,3.2,2.9c1.7-0.1,2.9-1.5,2.8-3.2s-1.5-2.9-3.2-2.8c0,0-0.1,0-0.1,0
			c-1.6,0-2.8,1.3-2.8,2.9C214.2,355,214.2,355,214.2,355.1z"/>
		<path class="st0" d="M558.1,523.4c0.1,1.7,1.6,2.9,3.2,2.8c1.6-0.1,2.8-1.5,2.8-3.2c-0.1-1.6-1.5-2.8-3.1-2.8
			C559.4,520.4,558.1,521.8,558.1,523.4z"/>
		<path class="st0" d="M485.7,293.5c0.1,1.7,1.5,2.9,3.2,2.8c1.7-0.1,2.9-1.5,2.8-3.2c0,0,0-0.1,0-0.1c-0.1-1.7-1.6-2.9-3.2-2.8
			C486.8,290.5,485.6,291.9,485.7,293.5z"/>
	</g>
</g>
</svg>
