<svg xmlns="http://www.w3.org/2000/svg" viewBox="0 0 415.5 356.39" xmlns:v="https://vecta.io/nano"><g fill="#bcc1d0"><path d="M183.8 204.4l-.2.06a12.52 12.52 0 0 0-1.74.53l-2.9 1.26a56 56 0 0 1-6.41 2.51l-4.94 1.87-1.62.65-2.25.85-4.43 1.76-6.57 3.1-6.38 2.72-6.88 2.85-2.74 1.28-3.75 1.73-.38.17-2.8 1.2-2.37.93-.75.3a26.56 26.56 0 0 0-3.33 1.5l-.82.45-2.15 1.14-2.33 1.13a2.17 2.17 0 0 0-1.09 2.81 2.19 2.19 0 0 0 .93 1v.8l.1 2v.76l.32 5.9v2.93l.32 9.3.13 4.25.07 1.7c0 1.74.22 3.5.4 5.2l.12 1.38c.36 3.94.76 8.42.84 12.8 0 1.72.13 3.47.22 5.15l.07 1.23c.06 1.12.08 2.26.1 3.36s0 1.9.07 2.86v.54l.17 5.64v6.27c0 1.35.12 2.72.2 4.05 0 .7.1 1.4.12 2.12 0 .5 0 1 .06 1.52s0 1.17.08 1.76.06.94.1 1.4l.1 1.74c0 1.1.1 2.18.13 3.26l.14 3.26.17 2.86.2 3.42c.06 1.36.14 2.4.26 3.37l.15 1.12.17 1.4a45.72 45.72 0 0 1 .13 2c.03.66.07 1.1.1 1.64s.1 1.2.16 1.8l.18 1.9c.05.63.07 1.4.05 2 0 .4-.06.8-.1 1.2v.45a11.75 11.75 0 0 0 .69 4.34 2.48 2.48 0 0 0 .65 1.12c.66 0 1.33-.07 2-.1s1.55.1 2.32.14l1.93.1.87.08h1.75c2 .06 4.07 0 6.1 0l4.67-.1c.6 0 1.18-.05 1.78-.05a14.83 14.83 0 0 1 1.51-.21c.52 0 1-.07 1.57-.1s1.17-.06 1.75-.1 1-.1 1.5-.18.94-.14 1.43-.18h.24l3.13-.3c.46-.05.92-.12 1.4-.2.62-.1 1.27-.2 1.9-.23h3.24l4.82.1h5.22l3.82-.05a16.16 16.16 0 0 0 1.72-.15c.44-.05.9-.1 1.34-.14l2.92-.14h1.5c.82 0 1.68 0 2.5-.13l1-.13 2-.22c1.44-.13 2.9-.2 4.32-.26l2.1-.1 1.44-.06 2-.1 3.1-.26h.34l6.68-.58a110.92 110.92 0 0 1 3.64-.2c.57 0 1.1 0 1.66-.05s1.18 0 1.76-.05c2.23-.1 4.45-.38 6.72-.67a199.39 199.39 0 0 1 7-.8c1.38-.12 2.8-.18 4.15-.23.93 0 1.87-.07 2.8-.13 1.72-.1 3.46-.32 5.15-.54l1.74-.22c1.05-.12 2.1-.2 3.16-.3s2.28-.2 3.42-.34l.73-.1 2.85-.33c.95-.1 1.6-.13 2.4-.2l1-.07c1.05-.07 2.1-.2 3.16-.3h.24c.78-.08 1.58-.23 2.35-.38l1-.18c1.1-.2 2.23-.37 3.36-.54l.75-.12c.86-.13 1.76-.27 2.64-.36 1.53-.14 3.08-.34 4.58-.53l2.13-.27c2.25-.27 4.5-.42 6.8-.55 1.75-.1 3.5-.25 5.25-.4l1.73-.15 2.33-.2c1.24-.2 2.47-.43 3.7-.63a49.58 49.58 0 0 1 5.57-.45l8.26-.4c.28 0 .57 0 .85-.1h.1l.46-.07c2.1-.33 4.26-.66 6.4-.85l1.5-.12 2-.2c1.8-.18 3.55-.6 5.32-.95s3.45-.58 5.2-.78 3.77-.36 5.65-.7 3.65-.6 5.48-.9 3.54-.66 5.3-1c1.53-.24 3-.7 4.53-.95l.32-.05a1.8 1.8 0 0 0 .08-.83c-.08-.66-.16-1.3-.28-2l-.07-.4c-.1-.48-.18-.95-.23-1.43-.07-.66-.1-1.32-.13-2 0-.5 0-1-.08-1.48-.1-1.13-.25-2.26-.4-3.36l-.05-.3c-.13-.95-.35-1.9-.56-2.83l-.13-.6a24.61 24.61 0 0 1-.29-2.89 22.69 22.69 0 0 0-.31-2.88l-.23-1.24c-.08-.4-.2-1.08-.3-1.63l-.2-1.53-.22-1.54c-.08-.54-.2-1.1-.3-1.65l-.18-1c-.13-.75-.2-1.5-.27-2.24v-.38l-.56-6.1c0-.6-.1-1.2-.18-1.78 0-.32-.08-.64-.1-.95l-.26-3.07-.36-5.6c0-.4-.07-.8-.1-1.2 0-.57-.1-1.15-.12-1.73-.06-1-.07-2.1 0-3.35a27 27 0 0 0-.21-3.26c-.07-.6-.13-1.2-.18-1.8-.06-.92-.1-1.83-.1-2.74a19.12 19.12 0 0 0-.23-2.58c-.12-.88-.2-1.76-.3-2.64a24.75 24.75 0 0 0-.53-3v-.2a35.14 35.14 0 0 1-.42-3.88v-.27c0-.63-.08-1.26-.15-1.9v-.4c-.06-.6-.12-1.23-.12-1.85a41.55 41.55 0 0 0-.18-4.24c-.08-.72-.14-1.43-.18-2.15v-.34c0-.46-.06-.93-.05-1.4a2.11 2.11 0 0 0-1.23-1.77 2.57 2.57 0 0 0-.5-.15 3.4 3.4 0 0 0-2.7-1.07l-.58-.06c-.82-.1-1.68-.25-2.64-.45s-2.07-.58-3.07-.9-1.94-.6-2.9-.85a34.28 34.28 0 0 0-4-.67c-1-.14-2.1-.27-3.15-.5s-1.95-.6-2.9-.9-2.1-.73-3.18-1c-2.33-.58-4.73-1-7.05-1.4l-2.05-.36-5.17-.85c-2.38-.33-4.76-.7-7.08-1.12l-6.95-1.2c-1.35-.22-2.73-.38-4.06-.54l-3.07-.4-1.38-.2c-1.85-.28-3.76-.57-5.66-.73-2.88-.23-5.1-.36-7.2-.42h-1.5c-1.85 0-3.73.08-5.55.17l-1.13.05h-1.55a58.13 58.13 0 0 1-5-.21l-7.17-.54c-3.14-.17-6.33-.2-9.4-.24-1.67 0-3.35 0-5-.08q-3.6-.08-7.2-.1H226c-2 0-4.16 0-6.23-.15a499.23 499.23 0 0 0-14.85-.63h-4.24l-2 .1-1.8.1h-1a12.17 12.17 0 0 1-1.94-.13 1.41 1.41 0 0 1-.24-.16l-.18-.2c0-.1-.08-.17-.1-.26a9.28 9.28 0 0 1-.11-1.06v-2.44a25.13 25.13 0 0 0-1-5.66c-.13-.45-.28-.88-.42-1.32l-.34-1.05A21.2 21.2 0 0 1 191 215c-.06-.56-.1-1.13-.14-1.7l-.13-1.7a14.94 14.94 0 0 0-.77-3 9.79 9.79 0 0 0-.68-1.56 5.77 5.77 0 0 0-.72-1.1 4.54 4.54 0 0 0-1.54-1.16 5.32 5.32 0 0 0-1.85-.54H185a4.39 4.39 0 0 0-1.15.19z"/><path d="M124.72,356.12Z"/></g><path d="M178.57 203.1a29.55 29.55 0 0 0-1.68 5.18l-.22 2-.37 2-.2 2.06-.3 2.1-.15 2a9.47 9.47 0 0 1-.21 1.6 14.86 14.86 0 0 0-.66 4.12v.3-.3.33a14.17 14.17 0 0 1-.21 1.61c-.08.54-.07 1.07-.13 1.6s-.22 1-.28 1.46a17.72 17.72 0 0 0 0 2.06 9 9 0 0 1-.15 1.46 14.24 14.24 0 0 0-.3 1.83v.64l-.1.9a8.68 8.68 0 0 0 .27 4.38 5.32 5.32 0 0 0 1.39 2 7.94 7.94 0 0 0 1.42.94 9.23 9.23 0 0 0 2.38.78 31.77 31.77 0 0 0 3.17.9 20.13 20.13 0 0 0 4.18.18 35.14 35.14 0 0 1 4.21.55c.68.12 1.35.3 2 .46s1.34.23 2 .34l2 .33 2 .17c.66.08 1.42.3 2.14.38l2.18.28 2.7.74 2.3.4a25 25 0 0 0 2.72.65l2.8.4c.93.13 1.84.35 2.76.53l2.74.5 3 .6c1.33.23 2.68.24 4 .44l3.62.5 3.4.2 2 .24 2.44.16 4.43.17 9.13.5 9.33.6 8.86.72 4.8.23 5 .05 6 .28 6.3.23q2.54.1 5.07.2l2.73.2h3.28l5.65.2 6.7.24h3.8l4.3.1 4.62.25c1.55.1 3.28.1 4.92.1h.43l4.84-.15 3.22-.05h5.37l3.56-.14h.37a20 20 0 0 0 2.45-.08l2.87-.22 2.07.1c1.33 0 2.62-.1 3.94-.22l6-.3h.23l4.56.1 4.08-.2a29.53 29.53 0 0 0 3.52 0c.5 0 1-.12 1.52-.15s1.05 0 1.58 0a21.38 21.38 0 0 0 3.2-.29 19.22 19.22 0 0 1 2.63-.11c1.37 0 2.74.15 4.1.25l3.66.2c1.22.05 2.16.2 3.23.3.4 0 .77.06 1.16.12h.22a3.49 3.49 0 0 0 2.66.19 6.84 6.84 0 0 0 .89-.46 3.08 3.08 0 0 0 1.27-2.12 3 3 0 0 0-.58-2.33 3.21 3.21 0 0 0-1.33-1.06l-.93-.26-.38-.1-1-.2c-.54-.1-1.1-.12-1.64-.17l-2.28-.2c-.76-.03-1.53 0-2.3-.1l-5.4-.37h-3.44a21.56 21.56 0 0 0-2.77.32 13.33 13.33 0 0 1-2 .07h-1.1c-.94 0-1.87.18-2.8.22-1.2 0-2.37-.1-3.56 0l-3.54.18c-1.18.01-2.1-.08-3.13-.1h-.77l-4.33.12c-.8 0-1.63.14-2.44.2l-2.2.18c-1.42 0-2.82-.14-4.24-.07l-3.87.3h-.35l-3.08.07a23.28 23.28 0 0 1-2.36.1c-1.93 0-3.86-.07-5.8 0l-5.74.2h.8-3.38c-1.13 0-2.44-.17-3.66-.25l-4.84-.13c-2.24 0-4.48-.1-6.72-.1h-.9l-6.77-.27c-1.24 0-2.5-.06-3.73-.14s-2.46 0-3.7 0c-.8 0-1.6-.13-2.4-.17l-2.34-.1c-2.12 0-4.24-.18-6.37-.24l-6.32-.32-7-.1c-6-.18-11.88-.84-17.82-1.24l-9.16-.58c-3.05-.25-6.05-.23-9.07-.4-1.5-.08-3-.14-4.48-.33-1.17-.15-2.34-.2-3.5-.27a25.18 25.18 0 0 1-3.57-.41c-1.32-.26-2.68-.33-4-.48-1.07-.12-2.12-.36-3.17-.58s-1.86-.3-2.78-.48c-1.84-.4-3.7-.7-5.56-1-.73-.1-1.46-.24-2.18-.42a14.79 14.79 0 0 0-2.06-.52c-.7-.1-1.42-.2-2.12-.37a19.43 19.43 0 0 0-2.82-.72c-.93-.14-1.85-.2-2.77-.4a22 22 0 0 0-2.29-.26c-.8-.08-1.6-.22-2.38-.35s-1.57-.24-2.34-.4-1.6-.37-2.44-.5-1.7-.3-2.56-.37a32.37 32.37 0 0 0-3.55-.09 12.63 12.63 0 0 1-2.21-.3l-2.48-.73-.3-.1.1-.8c0-.4.07-.8.1-1.2a3 3 0 0 0 .05-.67c.08-.76.3-1.5.4-2.25a21.13 21.13 0 0 0 0-2.87c0-.3.1-.6.18-.88a7.35 7.35 0 0 0 .13-1.24 14 14 0 0 1 .18-1.43 9.11 9.11 0 0 0 .12-1.47v-.63a13.13 13.13 0 0 1 .36-2.33 10.16 10.16 0 0 0 .42-1.71c.07-.53.07-1.06.1-1.6.1-1.2.25-2.36.44-3.54.1-.58.1-1.17.17-1.75s.2-1.18.3-1.77c.2-1 .2-2 .4-3s.78-2 1.13-3a3.31 3.31 0 0 0 0-2.4 3.12 3.12 0 0 0-2.94-2 3.1 3.1 0 0 0-3 1.92zm-3.8 21.6h0zm214.32 30.7h0zm-71.15 1.25h0zm31.8.13h0zm.6 0h0zm-17.38.32h0zm-.13 0h0zm-.1 0h0zm-17.85-6.78h0zm-133.8-25.42h0zm0 0v-.52.52zm-6.3-.74h0z" fill="#2f345b" opacity=".3"/><path d="M232.57 49.7H232a2.17 2.17 0 0 0-2.08 2.07 2.14 2.14 0 0 0 1.55 2.1c0 1-.1 1.85-.2 2.6l-.18 1-.5 3-.43 3.52-1.23 5.4-.64 2.73-.7 2.92-.2.8-.54 2.24-.1.5-.6 2.66-.6 2.1-.26.9-.54 2.1-.16.64-1 3.55-.75 2.55-1 3.9-.53 2.23c-.27 1.1-.63 2.18-1 3.23l-.83 2.7-.1.4-1.8 6.38-1.83 5.7-.1.25q-1 3.12-2.12 6.23l-2 6-2.1 6.2-1.12 3.4-.94 2.82-1.82 4.7-.48 1.18-1.58 3.87-3.3 8.3-1.43 3.64-1.42 3.64-.9 2.5-.43 1.22-1.44 3.54-.56 1.16q-.78 1.62-1.53 3.24l.08-.14c0 .12-.1.24-.17.36v.05l-.05.1-1.48 3-1.27 2.63a2.48 2.48 0 0 0-.17.37l-.06.14-.1.2-.73 1.52-.76 1.63-.85 1.93-1.35 2.6-.94 1.84-.46 1-1.5 2.66-.83 1.34-.07.1a4.68 4.68 0 0 0-.87 2.14 2.11 2.11 0 0 0 1.26 2l-.72 2.58-.15.6-.15.54-.3 1.24-.23 1.47-.07.48-.1.47-.32 1.88c0 .3-.08.6-.1.92l-.1.92-.1.6-.4 2.62-.2 1.07-.24 1.13v.55l-.07.42a25.87 25.87 0 0 0-.41 3.06l-.07 1.66v1.43l-.25 3.3-.24 1.84q-.06.5-.1 1v.45a10.28 10.28 0 0 1-.52 1.65 2.66 2.66 0 0 0-.28 1.21 2.91 2.91 0 0 0 .36 1.34 3.2 3.2 0 0 0 1 1.06 7.45 7.45 0 0 0 3.24.83l2.07.25 4.93 1 1.1.3 1.42.37 3.26.62 1.37.2 1.36.2 4.68 1 1.4.38 3.78.9a56 56 0 0 0 6 .72l1.3.08 1.56.1c.92.07 1.84.22 2.72.37l2.7.43 1.7.36a29 29 0 0 0 3.14.56l1.53.13 2.64.26.35.06 3.1.47 1.9.15 1.44.1 6.12.72a34.7 34.7 0 0 0 3.52.25h3.42c.92 0 2.14.1 3.37.24l3.3.3 1.47.12 6 .42h.64c1 0 1.93.1 2.9.18l3.33.28c.5 0 1 .08 1.5.12l1.88.15h.42l3 .2 3.2.28 2.68.2.9.06 6.6.3h3.56l2.07-.1 1.35-.08h3.43c.64 0 1.43.08 2.14.13l1.2.1 3.1.1 3.78-.1c1.03-.1 1.78 0 2.66 0h5.6l5.76-.14h.2l2.7-.08h.56l3.43.12h6.7l2.53.12 3.08.1h1.08c.7 0 1.37-.07 2.05-.12l1.38-.08 3.27-.08 3.7-.15 2.75-.13 3.25-.06 1.82-.05 1.52-.06h2.06l2.75-.06c1.7 0 3.35-.16 4.75-.3l3.4-.22h.33c.93 0 1.86.07 2.9.16a23.16 23.16 0 0 0 2 .07h1.6l2.8.13a11.45 11.45 0 0 0 1.17.05h2.7l3.87.16h2.6l1.27-.05H402a1.86 1.86 0 0 0 1.22-.48h.18a2.15 2.15 0 0 0 1.5-.55 2 2 0 0 0 .69-1.51 2.81 2.81 0 0 1 0-.41 2.8 2.8 0 0 0 0-.29v-1l-.05-1.64v-1l.08-2.4v-.7l.06-1.9V241a53.26 53.26 0 0 1 .37-5.71v-.14l.33-3v-.28l.25-2.7.08-.42.43-2.93a13.76 13.76 0 0 0 0-2v-.9l.17-4.37c0-.6.07-1.2.1-1.77l.12-5.07v-4a27.85 27.85 0 0 1 .13-3c0-.63.1-1.25.17-1.88 0-.44.1-.88.13-1.3a23.19 23.19 0 0 0 .05-2.92l-.05-3.16a29.69 29.69 0 0 1 .27-3l.32-2.85c.08-1 .08-2 .07-3.17l.18-4.33.14-2.44.1-1.78.12-2.72a37.81 37.81 0 0 1 .37-3.81l.48-3.24c.1-1.06.1-2 .1-3a45.05 45.05 0 0 1 .57-5.8 25.09 25.09 0 0 0 .28-2.93v-.52l.12-2.58.26-6.14v-2.8l.2-3 .3-6.32.08-3.68v-2.2c0-1.55.2-3.12.33-4.64l.1-1.17.24-4 .1-2.27c0-.46.07-.92.1-1.37l.13-2v-3.2l.2-4.3.12-1.94.06-2a31.5 31.5 0 0 1 .28-4.1l.25-1.28.37-2.18c.14-1.05.2-2.12.22-3v-.52c0-.9.07-1.8.14-2.7l.07-.7a21.84 21.84 0 0 0 .15-2.3v-6.24l.1-2.62V72.6l.1-2.6c0-.44 0-.87.07-1.3s0-.76 0-1.14a18.6 18.6 0 0 1 .11-2.23c0-.24.1-.48.14-.72-1.13 0-2.25 0-3.36-.06-.86-.07-1.7-.26-2.55-.35l-2.7-.34-2.6-.67c-.7-.2-1.4-.3-2.1-.44l-2.28-.44c-.76-.13-1.67-.18-2.5-.25h.73l-6.1-.62c-1.13-.05-2.26 0-3.4-.07-1.3 0-2.58-.1-3.87-.2l-1.6-.1q.48 0 1 .06l-1.8-.12a35 35 0 0 1-4.21-.47q-1.83-.33-3.7-.48l-3.5-.05c-1.22 0-2.6-.15-3.9-.2s-2.67 0-4 0h-3.76a34.8 34.8 0 0 1-5.28-.66 38.73 38.73 0 0 0-4-.51l-4-.37-3.38-.37-7.58-.38-7.16-.7-5.2-.27-2.3-.13 1 .06-4.13-.24c-3.1-.16-6.2 0-9.28-.26l-9.25-1-4.5-.13-4.7-.24-5.24.05c-1.75.05-3.72-.16-5.57-.3-1.3 0-2.58 0-3.86-.08l-3.74-.16-10.34-.54-9.7-.95 1 .07-4.94-.5c-1.25-.1-2.48-.3-3.7-.52l-3.67-.57a8.62 8.62 0 0 1-.94.22 6.46 6.46 0 0 1-4.23-.33 3.88 3.88 0 0 1-1.5-1.42l-.2.08z" fill="#d0d5e7"/><g fill="#2f345b"><path d="M267.6 178.3l-1.93.9.48-.17-1.46.56-.82.24c-.62.18-1.22.44-1.82.66l.76-.27-1.88.7-.6.2.77-.27-1.36.5-3.08 1h.05l.46-.17-.56.2-2.25.78-1.28.47-2.76.82-3.6 1.24-2.77.87-3.57 1.25-3.72 1.24-2.92 1.12.77-.28-6.34 2.36-3.93 1.4-2.8 1.1-2.86 1.2-2.7 1.08-4.5 1.48.77-.27-2.26.8-1.13.4.77-.28-3.46 1.3-2.76 1.22-5.32 2.05-5.1 1.83-3.08 1.18-2.16.9-5.25 1.88-2.62.9c-.82.3-1.6.65-2.4 1l-4 1.26-4.14 1.34-4.06 1.25-4.5 1.62-4.8 1.55.43-.16c-1.23.43-2.48.77-3.74 1.08l-4 1c-1.9.43-3.77 1-5.63 1.65l-3.3.94-2.65.75-2.7.85-3.28.88-3 1.07c-1 .36-2.3.58-3.4 1l-3.77 1.3.43-.15-1.52.54-1.2.42-2.55.8c-1.27.38-2.46 1-3.7 1.42l-4.5 1.65-6.88 2.12-4.26 1.32-3.88 1.45h.07L88.5 240l-3.83 1.22-4.8 1.75-3.07 1.08-2.93 1.22-2.68 1c-1.7.57-3.47 1-5.23 1.42-.95.22-1.93.26-2.9.4a15.14 15.14 0 0 0-3.36 1.2 3.19 3.19 0 0 0 .5 5.71 3.41 3.41 0 0 0 2.43-.19l1.25-.53a13.55 13.55 0 0 1 2.37-.35 19.46 19.46 0 0 0 3.2-.71l2.74-.77 3-1.07 2.6-.94 2.46-1 5.3-1.92 4.24-1.34 9.36-3.5 7.6-2.24 4.16-1.43 2.54-1 2.28-.82 1.57-.64 1.67-.5 1.88-.63 3.68-1.32 6.17-1.88h-.1l1.35-.5c.94-.32 1.9-.56 2.86-.8s2-.6 3-.9l2.6-.8 3.05-.8 5.62-1.75 1.84-.4 2-.5 4-1.06 1.3-.44 3.5-1.1 3.36-1.22 8.66-2.77 4.45-1.42c1.67-.53 3.25-1.23 4.88-1.84l3.62-1.3 5.74-2.12 5.1-2 6.94-2.56 6.8-2.78.64-.22 1.1-.4.92-.33 3.34-1.06 3.78-1.44 6.3-2.54 4.32-1.52 4.6-1.74-.43.16 3.57-1.35 2.07-.66 2.38-.86 12.73-4.18-.77.27 1.48-.53-.77.28 2.5-.87h.08l1.66-.5c.77-.23 1.5-.52 2.26-.8h0l.38-.13-.3.1 1.65-.6-.77.27 1.27-.46 1.92-.62 1.14-.46a9.8 9.8 0 0 0 1.81-.81 8.18 8.18 0 0 1 1-.5 3.17 3.17 0 0 0 1.34-.34 3.35 3.35 0 0 0 1.58-1.85v-.1a3.07 3.07 0 0 0-.19-2.43 3.23 3.23 0 0 0-2.69-1.74H271a8.73 8.73 0 0 0-3.44 1.1zm-5.9 2.36l-.62.22.62-.22zm-132.84 45.47l-.7.25.74-.27zm-1.2.43l-.22.08.22-.08zm2.24 5.9l.65-.23-.65.23zm81.33-27.24l.6-.2-.6.2zm.64-.22h.14l-.13.05zm47.2-16.8l-.34.12-.42.15.76-.27zm-5-4.93l.77-.28-.77.28z" opacity=".3"/><path d="M3.17 68.3L0 69.4l.28 1.48c.2 1 .5 1.94.8 2.9l.84 3a16.31 16.31 0 0 0 .74 2.17l.63 1.26c.2.43.3 1 .46 1.5a26.37 26.37 0 0 0 1 2.47l1.48 3.57L7.45 91l1.13 2.46 1.14 3.2 1.14 2.77c.36.93.55 1.74.85 2.6l1.23 3.23.37 1-.27-.77.37 1 1.33 3.82-.14-.38c.75 2.12 1.27 4.3 1.85 6.47l1 3.6c.35 1.2.74 2.17 1.14 3.24.6 1.8.94 3.68 1.47 5.52s1.3 3.77 2 5.63l.2.56a3.44 3.44 0 0 0 .21.53l.1.26.9 2.88 1.1 3.16.63 2 .85 2.48 1 3.05a42.93 42.93 0 0 0 1.38 4.15l1.36 3.06 1.02 2.72 2 5.36 2.88 7.83 1 2.55.92 3 1.1 3.36.68 2.2 1.18 3.38-.28-.76.57 1.58a.56.56 0 0 1 0-.12l1 3.1.87 3 1.83 6 1.2 3.8 1.16 3.82 1.08 3.8.85 3.6 1.25 4.16c.28 1.05.45 2.15.64 3.23l1.14 5.56.6 3.42.92 3.53.77 2.83c.23.95.35 1.68.47 2.54l.5 3.15c.08.53.22 1.05.32 1.58l.22 1.45a29.77 29.77 0 0 0 .66 4.61 4.35 4.35 0 0 0 2.75 3.45 8.12 8.12 0 0 0 3.56-.22 3.21 3.21 0 0 0 2.42-3.8 3.16 3.16 0 0 0-2.86-2.45l-.17-1.36a27 27 0 0 0-.34-3l-.43-2.14-.75-4.62-1.63-6.07-.73-3.77-.46-2.62-.62-2.8-.58-3.1a42.94 42.94 0 0 0-1.2-4.16c-.37-1.18-.6-2.37-.9-3.57l-2.24-7.75-1.15-3.8-1-3.1-1.5-5.07q-.78-2.85-1.8-5.62l-.5-1.37-1.58-4.82.13.36-1.7-5.4-2.17-5.7a1.59 1.59 0 0 0 .07.2l-.08-.2a1.22 1.22 0 0 0-.07-.17l.06.15q-1-2.82-2.06-5.63v.08l-1.1-2.93-1.86-5.13-1.9-4.43-.86-2.82-1.32-3.78-1.66-5 .28.77-1.16-3.5-.5-1.6c-.07-.24-.17-.48-.25-.72a3.23 3.23 0 0 0-.26-.72v-.1l-1.26-3.33a46.14 46.14 0 0 1-1.28-4.44 41.51 41.51 0 0 0-1.46-4.76 60.47 60.47 0 0 1-1.81-6.24q-.77-3.1-1.83-6.1c0 .12.1.23.13.35l-1.35-3.9a.08.08 0 0 0 0 0 .5.5 0 0 1-.05-.13l-.2-.55-.12-.34-.2-.54.12.36-.94-2.43-1.4-4.18-1.38-3.38-1.3-3.52-1.47-3.3L11 82.7l-1.1-2.55c-.34-.87-.5-1.76-.85-2.63-.22-.54-.54-1-.78-1.58l-1.37-4.9-.57-2.36-.17-.9a4.91 4.91 0 0 0-.17-.6 23.08 23.08 0 0 1-2.83 1.11zm9.6 36.43l.15.4-.15-.4zm21.38 45.9c0 .07 0 .14.08.22a2 2 0 0 1-.08-.22zm6.78 17.72h0z" opacity=".3"/><path d="M40.93 168.37v-.01.01z" opacity=".3"/><path d="M40.94 168.37h-.01.01z" opacity=".3"/></g><path d="M216 .22l-3.4 1.06-2.83 1.07-2.23.76c-1.38.35-2.7.86-4 1.32-1.6.56-3.26 1-4.9 1.4l-2.1.7-1.66.5a22.69 22.69 0 0 1-2.68 1.14l-2.28.76-7.72 2.02-5.43 1.6-3 .82-3.43 1.2-3.36.8c-1.1.3-2 .6-3 1a30.69 30.69 0 0 1-2.95.95l-2.88.74-5.82 1.83-3.24 1-2.77 1-12.25 3.83-3.66 1.2-7.56 2.27c-.94.28-1.9.47-2.87.7s-2.1.62-3.13.94L111 32.62l-3.3 1.1-2.93.74-5.3 1.4-2.67.77-4.08 1.06-2.8.78-2.73.62-4.2 1.07-3.73 1.37-4.53 1.43-4.1 1.52-8.75 3.32-2.3.94-1.76.54L54 50.54l-3.9 1.36-4.22 1.07A31.68 31.68 0 0 0 42 54.06a37.4 37.4 0 0 1-3.57 1.2L32.75 57l-2.57 1-2.8 1c-.92.37-1.95.73-2.95 1l-2.4.8-3.64 1.68c-1.42.62-2.9 1.1-4.35 1.6l-5.53 1.9a44.82 44.82 0 0 1-5.36 2.32l-.57.17.4 1c.12.3.22.7.32 1.06l.57 1.73 1.06 3.2.92 2.8c1.44 4.1 2.87 8.1 4.57 12.08.34.78.74 1.54 1.13 2.27l.27.5a36.85 36.85 0 0 1 1.31 2.87c.66 1.6 1.23 3.26 1.78 4.86l.5 1.44c.75 2.15 1.45 4.35 2.13 6.48l1.87 5.72.42 1.25.65 1.88c.32.9.67 1.8 1 2.7l.17.44c.78 2 1.5 4 2.2 6.2.28.88.53 1.76.8 2.65.35 1.2.7 2.44 1.12 3.64.17.5.35 1 .53 1.48a73.73 73.73 0 0 1 .59 1.66c.2.55.4 1.26.6 1.88.1.38.23.76.35 1.13l.3.95c1.17 3.7 2.37 7.5 3.84 11.15l.14.36c.7 1.76 1.44 3.6 2.06 5.43s1.24 3.8 1.87 5.9l.1.33c.2.6.37 1.22.53 1.83.5 2.08 1 4.22 1.7 6.32.5 1.54 1.08 3.07 1.65 4.55l.65 1.72c.2.58.5 1.28.74 1.9l1.56 4.22c.63 1.83 1.35 3.9 1.94 6 .13.42.24.84.35 1.27l.73 2.72c.18.74.34 1.47.5 2.2l.45 2c.3 1.27.7 2.53 1.1 3.75l.44 1.4c.4 1.28.86 2.56 1.32 3.8l.3.83a52.23 52.23 0 0 1 1.31 4.19c.2.9.36 1.82.53 2.73l.6 3.15c.3 1.3.65 2.6 1 3.84l.42 1.6.14.58c.4 1.65.82 3.36 1.4 5s1 3.2 1.6 5.23l.67 2.6a11.33 11.33 0 0 1 .24 1.68l.23 2 .1.86a42.57 42.57 0 0 1 .13 1.18 11.89 11.89 0 0 0 .35 1.64c.25 1 .46 2 .66 3l.35 1.67a2.21 2.21 0 0 0 .81 1.41 2.14 2.14 0 0 0 1.31.45h.26a2.14 2.14 0 0 0 1.42-.8 2 2 0 0 0 .33-.61 3.52 3.52 0 0 0 .69-.14l.65-.2a9.57 9.57 0 0 0 .81-.23c.83-.27 1.66-.55 2.47-.85s1.43-.48 2.14-.7l.6-.18a48.93 48.93 0 0 0 1.71-.57l.94-.32c.84-.27 1.7-.48 2.55-.7l.47-.1 2.7-.7.43-.1 1.34-.36 4.55-1.2.7-.16 2.7-.66c.66-.2 1.32-.4 2-.64l1-.34c1.26-.4 2.57-.75 3.83-1.08.77-.2 1.54-.4 2.3-.6 1.15-.32 2.28-.68 3.42-1.05l2.9-.9c2-.57 4-1.08 6.32-1.67 3.36-.84 6.73-1.88 10-2.87l2.5-.76a72.71 72.71 0 0 1 3.49-1l3-.87c1.16-.35 2.3-.74 3.46-1.12l2.74-.9c2-.63 4.1-1.36 6.35-2.23l3.2-1.17c.64-.23 1.3-.43 1.94-.63l1.2-.37 2.15-.7 1-.33 1-.35 2-.66 2-.57 1.08-.3c1-.28 2-.6 3-.92l.25-.08c2.78-.9 5.58-1.9 8.28-2.85l4.1-1.44c1.07-.37 2.15-.7 3.23-1.06l2.53-.8 3.1-1.13c1.02-.4 2-.74 3-1.08q2.55-.87 5.1-1.8l.92-.32c.64-.23 1.28-.48 1.9-.73l1.1-.43q1.5-.57 3-1.1c2.5-.92 4.53-1.62 6.42-2.23s3.88-1.4 6-2.25l3.25-1.3q1.26-.48 2.52-1c1.5-.6 3.06-1.13 4.57-1.63l1.43-.5a105.68 105.68 0 0 0 5.84-2.18l5.84-2.5c3.88-1.6 8-3.18 12.24-4.7l4.25-1.56 8.24-2.93c1.58-.52 3.2-1 4.8-1.42l3-.85.65-.2c1-.3 2.06-.6 3-1s2.12-.9 3.22-1.43a2 2 0 0 0 .55-.27l.32-.16a1.9 1.9 0 0 0 1-1.21 2.2 2.2 0 0 0-.19-1.71 2.34 2.34 0 0 0-.49-.59c0-.13-.07-.27-.1-.4a12.3 12.3 0 0 1-.18-.75 11.09 11.09 0 0 0-.75-2.47 13 13 0 0 1-.65-1.91l-.17-.56c-.6-1.94-1-3.9-1.47-5.9-.13-.64-.32-1.26-.5-1.9l-.3-1.07-.23-.9-.57-2.12c-.3-1.07-.6-2-.93-2.8a78.63 78.63 0 0 1-1.1-2.92l-1-2.9-.23-.7c-.24-.73-.5-1.5-.7-2.24-.28-1.07-.52-2.15-.76-3.23l-.74-3.17-1.6-5.97c-.54-2-1.13-4.08-1.78-6.1-.28-.88-.52-1.77-.77-2.67s-.57-2.05-.9-3.07c-.17-.52-.36-1-.54-1.56l-.5-1.4c-.36-1.06-.68-2.15-.94-3.07l-.36-1.3c-.44-1.62-.9-3.3-1.5-4.9l-2.43-6.17c-.54-1.3-1-2.66-1.46-4L249 94.03l-.9-2.54-.64-1.82-1.55-4.24c-.35-.9-.7-1.8-1-2.72l-1.2-3.16c-.2-.5-.4-1-.6-1.5-.56-1.36-1.13-2.75-1.6-4.16l-.55-1.6c-.48-1.45-1-2.95-1.58-4.4s-1.24-3.25-1.8-4.84l-.38-1.1-2.14-6.28-2-5.75a4 4 0 0 1-.83-2.12 2.44 2.44 0 0 1 0-.27c-.1-.3-.2-.6-.3-.92l-.1-.35-.78-2.65a128.3 128.3 0 0 0-1.25-4.42l-.5-1.68-.3-1c-.5-1.7-1-3.46-1.6-5.16-.4-1.13-.87-2.25-1.34-3.33-.36-.82-.7-1.63-1-2.47-.73-1.9-1.4-3.85-2.06-5.86-1.33-4.05-2.53-8-3.58-11.86l-.4-1.5-.48-1.76a31.66 31.66 0 0 0-.68-2l-.27-.58c-.23-.63-.5-1.26-.75-1.88l-.06-.12-.76.22z" fill="#c7ccdd"/><g fill="#2f345b"><path d="M83.64 80.13a7.14 7.14 0 0 0-1.46.21 13.45 13.45 0 0 0-4.08 2.12l-1.3.9a8.47 8.47 0 0 0-1.51 1.54 16.66 16.66 0 0 0-1.73 3 12.38 12.38 0 0 0-1 2.8L72 93.9a14.14 14.14 0 0 0-.19 3.25 11.25 11.25 0 0 0 .26 1.91 14.85 14.85 0 0 0 .59 1.82 14.54 14.54 0 0 0 3.4 5.18 12.26 12.26 0 0 0 4.15 2.59 12.63 12.63 0 0 0 2.36.63c.72.13 1.45.16 2.18.22a14.81 14.81 0 0 0 2.1.08 8.31 8.31 0 0 0 2.78-.66 10.41 10.41 0 0 0 2.12-1.22 11 11 0 0 0 1.92-1.88 9.42 9.42 0 0 0 1.56-2 7.2 7.2 0 0 0 .6-1.36 4.4 4.4 0 0 0-.07-2.22 14.92 14.92 0 0 0-1.5-3.24 19.79 19.79 0 0 1-1.17-2.46 23.49 23.49 0 0 0-.85-2.74 2.69 2.69 0 0 0-2.55-1.53 6.78 6.78 0 0 0-2.09.44 14.38 14.38 0 0 0-3 1.67l-2.4 1.52a2.21 2.21 0 0 0-1.06 1.23 2.12 2.12 0 0 0 .11 1.62 2.15 2.15 0 0 0 1.23 1.06 2.08 2.08 0 0 0 1.62-.11l2.4-1.53a21.12 21.12 0 0 1 2.24-1.35c0 .08 0 .17.08.26a17.74 17.74 0 0 0 .89 2.33l.94 1.85.92 1.75.1.37v.1a6.5 6.5 0 0 1-.65 1l-.62.7a6.18 6.18 0 0 1-2.77 2 7 7 0 0 1-.79.18c-.64 0-1.3 0-1.93-.1l-1.94-.2a11.75 11.75 0 0 1-2.11-.75 9.39 9.39 0 0 1-1.5-1 14.22 14.22 0 0 1-1.65-1.91 14.61 14.61 0 0 1-1.3-2.63A11.27 11.27 0 0 1 76 97a12.25 12.25 0 0 1 .15-2.49l.35-2.2a11 11 0 0 1 .5-1.77 10.76 10.76 0 0 1 .51-1.16 14.4 14.4 0 0 1 1.37-2.22 8.81 8.81 0 0 1 1.12-.91l1-.7a12.75 12.75 0 0 1 2-1l.73-.16h.35c1 .24 1.9.6 2.85.92a2.12 2.12 0 1 0 1.35-4l-2.53-.84a6 6 0 0 0-1.83-.31zm12.74-.9a2.17 2.17 0 0 0-1.33.9 2.07 2.07 0 0 0-.31 1.62l.9 3.1.6 2.8.77 2.9a18.77 18.77 0 0 0 1 3.17c.37.9.84 1.75 1.28 2.6a15.86 15.86 0 0 0 1.69 2.49l1.55 1.9a12.87 12.87 0 0 0 1 1.14 3.23 3.23 0 0 0 1.55 1 4.32 4.32 0 0 0 2 0 17 17 0 0 0 1.87-.61l1.55-.6a8.75 8.75 0 0 0 1.45-.77l1.68-1.2a2 2 0 0 0 .72-1.48 2.12 2.12 0 0 0-2-2.23 2.31 2.31 0 0 0-1.51.52l-1.06.78a15.21 15.21 0 0 1-2.64 1.16l-.83.25-1.12-1.43c-.4-.43-.94-1.08-1.36-1.67a21.64 21.64 0 0 1-2.1-4.09c-.26-.8-.44-1.62-.63-2.44l-.7-2.6-.57-2.67c-.2-.88-.54-1.9-.85-2.82a2.24 2.24 0 0 0-.99-1.41 2.11 2.11 0 0 0-1.19-.36 2.09 2.09 0 0 0-.43 0z"/><path d="M107.13 85.6l-6.64 2.72-.48.16a2.31 2.31 0 0 0-1.32.9 2.11 2.11 0 0 0-.32 1.63 2.16 2.16 0 0 0 .9 1.33 2 2 0 0 0 1.61.31l8.15-3.24a2.13 2.13 0 0 0 .94-2.85 2.08 2.08 0 0 0-1.89-1.16 2.26 2.26 0 0 0-1 .21zm1.05-11.03a25.87 25.87 0 0 0-5.56 1.76l-5.18 2-1.25.4a2.32 2.32 0 0 0-1.33.89 2.14 2.14 0 0 0 .58 3 2.07 2.07 0 0 0 1.62.32q2.52-.8 5-1.8l4.23-1.68a19.2 19.2 0 0 1 2.8-.73 2.11 2.11 0 0 0-.5-4.18 2.43 2.43 0 0 0-.38 0zm27.12-7.85l-.72.4-.6.15c-.57.16-1.1.37-1.67.57l.52-.18-1.06.37-6.75 1.9-7.27 2.33a2.37 2.37 0 0 0-1.33.9 2.15 2.15 0 0 0-.31 1.62 2.11 2.11 0 0 0 .9 1.32 2 2 0 0 0 1.61.32l7.67-2.46c1.23-.4 2.5-.7 3.75-1s2.6-.73 3.88-1.2l-.5.18 1-.35 1.26-.36a5.55 5.55 0 0 0 1.18-.49l.3-.2a2.23 2.23 0 0 0 1.63-1.43 2.14 2.14 0 0 0-1.34-2.68 1.84 1.84 0 0 0-.72-.14 3 3 0 0 0-1.46.45zm-.95 4.86h-.1.1z"/><path d="M126.72 70.3a2.12 2.12 0 0 0-1.32.9 2.07 2.07 0 0 0-.32 1.62l1 3.6 1.13 3.43 1.2 3c.38.83.74 1.7 1 2.57l.66 2.1.92 2.52a2 2 0 0 0 1.22 1.06 2.12 2.12 0 0 0 2.79-1.35 2.32 2.32 0 0 0-.12-1.62l-.54-1.47-.62-2a26.05 26.05 0 0 0-.95-2.55l-1.65-4q-.45-1.34-.87-2.67l-1-3.54a2.23 2.23 0 0 0-.89-1.32 2.11 2.11 0 0 0-1.19-.36 2.09 2.09 0 0 0-.43 0zM166.8 58a2.68 2.68 0 0 0-1.91 1.86 5.82 5.82 0 0 0-.26 1.21c0 .24-.08.5-.1.73l-.17 1.56c-.17 2.23-.2 4.47-.14 6.7 0 1.75.2 3.5.4 5.26l.6 4.4a15.13 15.13 0 0 1-.08 2.33c-.1.9-.3 1.82-.47 2.72a2 2 0 0 0 .52 1.51 2.12 2.12 0 0 0 3 .2 2.31 2.31 0 0 0 .73-1.49l.52-3.17a15.27 15.27 0 0 0-.12-3.51l-.44-3.1-.28-2.7-.1-5.82v-1.75l.33.66 1.85 3.27 2 3.42 3.08 4.66-.17-.25 1.26 1.8.8 1 .12.25a2 2 0 0 0 1.26 1.05 2.12 2.12 0 0 0 1.62-.12 2.08 2.08 0 0 0 1.06-1.23 2.27 2.27 0 0 0-.11-1.62 6.79 6.79 0 0 0-1.28-1.85l-.9-1.2-.3-.47-1.88-2.72-1.35-2.32-1.64-2.83-3-5.5a6.48 6.48 0 0 0-2.2-2.55 3.18 3.18 0 0 0-1.62-.5 2.33 2.33 0 0 0-.59.08zm10.5 13.8l.1.16-.1-.16zm-8.76.2v.24a1.94 1.94 0 0 1 0-.24zm10.73 2.66l.08.1a1 1 0 0 0-.08-.11z"/><path d="M174.32 68.4c-1 .33-2 .78-3 1.17l-2.34.84-3.45 1a2.25 2.25 0 0 0-1.32.89 2.17 2.17 0 0 0-.32 1.62 2.14 2.14 0 0 0 2.52 1.64l5.06-1.6 3.83-1.46a2.23 2.23 0 0 0 1.27-.88 2.13 2.13 0 0 0-.58-2.94 2.28 2.28 0 0 0-1.21-.38 1.4 1.4 0 0 0-.41.06zm-90.94 57.98a2.12 2.12 0 0 0-.72 1.48 2 2 0 0 0 .53 1.51 19.48 19.48 0 0 1 2.3 2.42l1 1.75 1.27 2-.06-.1a25.36 25.36 0 0 1 1.84 3.25l1.56 3.7 1.5 4.2.8 3 .58 2.88a10.31 10.31 0 0 1-.15 1.84 16.92 16.92 0 0 1-.88 3.13l-.24.36-.2.17-.64.3a8.94 8.94 0 0 1-1.37.25 7.22 7.22 0 0 1-1.47-.1 13.14 13.14 0 0 1-2.39-.71 5.11 5.11 0 0 1-.48-.33 12.76 12.76 0 0 1-1.5-1.7 9.09 9.09 0 0 1-.64-1.47l-.55-1.6.08.2-.06-.2a2.2 2.2 0 0 0-.89-1.32 2.12 2.12 0 0 0-3.26 2.2l.27.8 1 2.66a9.83 9.83 0 0 0 2 2.78 8.09 8.09 0 0 0 1.65 1.44A9.07 9.07 0 0 0 86 162a17.27 17.27 0 0 0 3.09.7 6.39 6.39 0 0 0 1.31.05 12.39 12.39 0 0 0 2-.24 6.24 6.24 0 0 0 4.16-2.87 13.26 13.26 0 0 0 1.18-3.41 14.12 14.12 0 0 0 .49-3.76 15.36 15.36 0 0 0-.44-2.7l-.5-2.24a52.66 52.66 0 0 0-1.69-5 49.94 49.94 0 0 0-1.86-4.85 23.52 23.52 0 0 0-1.15-2.37l-1.45-2.3a2.5 2.5 0 0 0 .16.24l-.93-1.45c-.3-.45-.67-1.22-1-1.8a13.59 13.59 0 0 0-1.27-1.74 19.75 19.75 0 0 0-1.67-1.63 2.25 2.25 0 0 0-1.49-.72h-.1a2.14 2.14 0 0 0-1.4.53zm12.23 16.2c0 .1.06.18.1.27l-.1-.27zm-11.73 11.26a1.21 1.21 0 0 0 .05.14l-.05-.14zm33.54-37.12a2.42 2.42 0 0 0-.92.46 1.94 1.94 0 0 0-1.84 0l-3.17 2a9.27 9.27 0 0 0-2.32 2.7 14.68 14.68 0 0 0-1.64 3.11 23.5 23.5 0 0 0-.87 3 17.42 17.42 0 0 0-.41 3.29 19.43 19.43 0 0 0 .32 3.57 32.72 32.72 0 0 0 1.75 6.15 13.89 13.89 0 0 0 2.35 4.11 12.28 12.28 0 0 0 4.12 2.81 28.4 28.4 0 0 0 2.89 1.39 21.14 21.14 0 0 0 3.06.79 13.16 13.16 0 0 0 3.42.39 9.93 9.93 0 0 0 1.63-.19 14.61 14.61 0 0 0 1.91-.61 17 17 0 0 0 2.59-1.31 13 13 0 0 0 2.44-1.79 14.34 14.34 0 0 0 1.92-2.4 18.09 18.09 0 0 0 1.79-3.33 15.16 15.16 0 0 0 .73-3.2 25.27 25.27 0 0 0 .27-2.88 19.39 19.39 0 0 0-.37-3.72 23.46 23.46 0 0 0-.55-3 6.93 6.93 0 0 0-.67-1.56l-.8-1.23a16 16 0 0 0-1.91-2.44 22.22 22.22 0 0 0-2.55-2.1 13.1 13.1 0 0 0-2.67-1.53c-1.44-.64-2.92-1.14-4.4-1.65a14.8 14.8 0 0 0-4.59-1 6.48 6.48 0 0 0-1.51.17zm-.86 4.28a4 4 0 0 0 .4-.28 1.9 1.9 0 0 0 1.33.15l.47-.1a9.11 9.11 0 0 1 1.37.15c.6.14 1.2.37 1.8.57l1.87.64 2.86 1.12a18.72 18.72 0 0 1 3 2.12 12.71 12.71 0 0 1 1.77 2.1 11 11 0 0 1 .95 1.63 19.89 19.89 0 0 1 .39 2.18l.4 2.5a20.3 20.3 0 0 1-.41 4.46 11.84 11.84 0 0 1-.58 1.74 20.2 20.2 0 0 1-2 3.13 9.91 9.91 0 0 1-1.18 1.06 19 19 0 0 1-3.31 1.73 8.39 8.39 0 0 1-1.47.32 11.58 11.58 0 0 1-2.28-.2l-1.83-.4a11.89 11.89 0 0 1-2-.76l-1.7-.88a13.27 13.27 0 0 1-2.14-1.3 11.26 11.26 0 0 1-.94-1.13 18.08 18.08 0 0 1-1.44-3.13 28.32 28.32 0 0 1-1.37-6 15.36 15.36 0 0 1 .15-3 18.59 18.59 0 0 1 1.18-3.82 18.61 18.61 0 0 1 1.82-2.74 6.21 6.21 0 0 1 .63-.52l2.27-1.4zm-2.07 1.25l-.13.1.13-.1zm3.66 22.64l.28.14-.28-.14zm20.78-34.26a2.14 2.14 0 0 0-1.64 2.51l.4 2.57.33 2.35a16 16 0 0 0 .48 2l.8 2.18c.27.72.47 1.57.7 2.35l.9 2.6c.3.86.57 1.93.82 2.9a30.84 30.84 0 0 0 1.35 3.62l2.32 5.8a2.12 2.12 0 1 0 3.79-1.9c-.63-1.27-1.12-2.6-1.63-3.93l-.75-2-.78-1.94-.68-2.5-.88-2.55-.85-2.77c-.28-.93-.64-1.83-1-2.75a17 17 0 0 1-.62-3l-.6-3.88a2.11 2.11 0 0 0-2.1-1.68 1.84 1.84 0 0 0-.41 0zm1.88 16.3c0 .06.05.13.07.2s0-.14-.07-.2z"/><path d="M144.5 107.92a8 8 0 0 0-2.05.8 27.37 27.37 0 0 0-3.1 2l-1.37 1a2 2 0 0 0-.71 1.48 2.12 2.12 0 0 0 2 2.23 2.35 2.35 0 0 0 1.51-.52l2.2-1.53a13.23 13.23 0 0 1 2.18-1.2 5.4 5.4 0 0 1 .72-.16 10.21 10.21 0 0 1 1.46.08 9.05 9.05 0 0 1 1.25.39l.38.24.07.08.06.28a8.26 8.26 0 0 1-.1 1 15 15 0 0 1-1 2.6l-1.8 3.23a22.82 22.82 0 0 1-2.35 3.34l.37-.42-.72.82-2 2.1a2 2 0 0 0-.31 1.61 2.27 2.27 0 0 0 .89 1.33h0a2.13 2.13 0 0 0 1.07.35 2.24 2.24 0 0 0 1.51-.52l2-1.65 2.17-1.68a18.12 18.12 0 0 1 3-1.57 11.44 11.44 0 0 1 1.64-.37 11.25 11.25 0 0 1 2 .12 7.36 7.36 0 0 1 1 .34 4 4 0 0 1 .43.29l.1.1.3.6c.1.2.16.64.2 1a9.71 9.71 0 0 1-.11 1.21 20.57 20.57 0 0 1-1.28 3.76 9.49 9.49 0 0 1-1 1.46l-1.95 2.06a13.74 13.74 0 0 1-1.68 1.56 15.55 15.55 0 0 1-2.56 1.07 2 2 0 0 0-1.06 1.24 2.09 2.09 0 0 0 .11 1.61 2.16 2.16 0 0 0 1.23 1.07 2.33 2.33 0 0 0 1.62-.12 15.36 15.36 0 0 0 2.7-1.16 11.54 11.54 0 0 0 2.44-2.08l2.44-2.6a10.77 10.77 0 0 0 1-1.28 13.45 13.45 0 0 0 .89-1.83 18 18 0 0 0 1-2.75 10.54 10.54 0 0 0 .43-3.78 6.78 6.78 0 0 0-1.81-4.1 7.92 7.92 0 0 0-4.93-2 9.58 9.58 0 0 0-3.54.29l.6-1.22a12.92 12.92 0 0 0 1-2.74 13.93 13.93 0 0 0 .3-1.92 4.94 4.94 0 0 0-.4-2.31 5.05 5.05 0 0 0-2.83-2.61l-.4-.16a4.37 4.37 0 0 0-.67-.22 10.36 10.36 0 0 0-2.06-.37h-.67a8.43 8.43 0 0 0-1.81.19zm4.36 4.56l.08.13-.08-.13zm-5.54 11.4l-.1.1.1-.1zm22.28-26.65a2.14 2.14 0 0 0-1.59 2.51l.55 2.9.3 2.5a39 39 0 0 0 1 4.89l1.18 5.08.78 2.53c.25.84.46 1.83.66 2.75a2.13 2.13 0 0 0 4.16-.88l-.64-2.64-.78-2.53c-.25-.84-.46-1.73-.63-2.62l-.55-2.48-.67-2.6c-.2-.87-.27-1.53-.38-2.3l-.3-2.38-.58-3.1a2.14 2.14 0 0 0-2.11-1.69 2 2 0 0 0-.43 0zm4.04 30.77a2.12 2.12 0 1 0 2.23-2 2.12 2.12 0 0 0-2.23 2zm6.7-34.66a2.16 2.16 0 0 0-1.33.89 2.26 2.26 0 0 0-.31 1.62l1.4 9.94a26 26 0 0 0 .54 3l1.46 6 .8 3c.22 1 .52 1.84.78 2.76a2.68 2.68 0 0 1 .07.27 2.121 2.121 0 1 0 4.15-.88 13.15 13.15 0 0 0-.42-1.35c-.15-.46-.26-.93-.37-1.4l-.8-3c-.62-1.94-1-3.94-1.47-5.9a26 26 0 0 1-.56-3l-.48-3.4-.94-6.72a2.09 2.09 0 0 0-2.11-1.68 1.75 1.75 0 0 0-.4 0zm3.43 34.18a2.12 2.12 0 1 0 2.23-2 2.13 2.13 0 0 0-2.23 2zm-4.32 9.55l-3.33.7-3 .87-6.9 2.2-3.78 1.32-3.1 1.2-6.2 2.46-2.34.83-13.58 4.57-6.18 2.4-6.6 3.1-5.73 2.73-6.68 2.88-12.43 5.3c-3.5 1.5-6.94 3.2-10.36 4.9a47.77 47.77 0 0 1-5.17 2.16c-1.87.66-3.7 1.42-5.55 2.17a2.14 2.14 0 0 0-1 2.85 2.19 2.19 0 0 0 1.23 1.07 2.26 2.26 0 0 0 1.62-.12q3.2-1.3 6.45-2.5c1-.36 1.9-.7 2.83-1.15l3.08-1.5q3.08-1.5 6.18-2.93c2-.93 4.13-1.82 6.2-2.7l12.5-5.3c4.15-1.8 8.48-4 12.7-6a110.93 110.93 0 0 1 10.89-4.3l6.16-2 7.12-2.46c2.1-.74 4.16-1.6 6.22-2.44a103.07 103.07 0 0 1 5.8-2.17c2.2-.76 4.43-1.5 6.68-2.16l3.4-1c1.14-.32 2.43-.57 3.66-.8a2.12 2.12 0 0 0-.46-4.19 2.83 2.83 0 0 0-.41 0zm-28.75 9.6l-.38.14.38-.14zm-9 7.42l-.27.1.27-.1zm56.46-8.75l-6.43 1.65-6.86 1.7-6.46 1.48-3.6.87-3.1.9-6.8 2.28-6.73 2.17-12.64 4.3c-4.33 1.6-8.62 3.28-12.9 5s-8.54 3.2-12.7 5l-3.34 1.47c-1.12.47-2.18.84-3.27 1.22s-2 .66-3.08 1-2.08.7-3.12 1.07-2.1.84-3.14 1.26l-3 1.2c-2.08.84-4.14 1.67-6.14 2.7s-4.18 2.13-6.33 3.06-4.2 1.6-6.28 2.37-4.07 1.7-6.1 2.54-4 1.3-5.9 2.23l-.42.2a2.122 2.122 0 0 0 1.72 3.88l1.47-.7c.47-.2 1-.37 1.53-.53 1-.32 1.93-.64 2.87-1l3.1-1.3 3-1.27 6.53-2.46c2.16-.88 4-1.88 6-2.9l3-1.46c1-.46 2.07-.85 3.1-1.26l6.38-2.55c2.13-.83 4.2-1.43 6.3-2.1a57.45 57.45 0 0 0 6.25-2.52c2-.9 4-1.77 6.07-2.54l6.6-2.52 12.85-5c4.32-1.62 8.73-3 13.12-4.5l6.24-2 6.78-2.28h.08c-.18 0-.35.1-.53.15l3.1-.9 3.6-.87 6.46-1.48a155.55 155.55 0 0 0 6.86-1.7c2.27-.62 4.27-1.2 6.43-1.65a2.15 2.15 0 0 0 1.75-2.44 2.17 2.17 0 0 0-2.05-1.79 1.64 1.64 0 0 0-.38 0zM296 122.46a2.17 2.17 0 0 0-1.37.83 2 2 0 0 0-.39 1.6l.33 1.25a10.41 10.41 0 0 1 .21 1.47l.23 2.5-.1 5.13.08 5.45-.06 5.27-.06 2.76c-.06.92 0 2.1 0 3.13a14.3 14.3 0 0 1-.31 2.43 20.51 20.51 0 0 1-1.49 4.1 7.93 7.93 0 0 1-1 1.32 12.72 12.72 0 0 1-1.9 1.62 10.12 10.12 0 0 1-1.34.62 10.91 10.91 0 0 1-1.8.21 8.33 8.33 0 0 1-1.41-.15 11.53 11.53 0 0 1-1.86-.76 9.11 9.11 0 0 1-.95-.68 11.7 11.7 0 0 1-1.1-1.49c-.26-.4-.6-.76-.88-1.15l-.15-.38a12.87 12.87 0 0 1-.39-2.13 14.48 14.48 0 0 1 .42-2.44 2 2 0 0 0-.46-1.53 2.12 2.12 0 0 0-3-.34 2.31 2.31 0 0 0-.79 1.45q-.23 1-.4 2.07a8.61 8.61 0 0 0 .16 2.53l.27 1.2c.1.4.2.68.32 1a5.47 5.47 0 0 0 .53 1 8.7 8.7 0 0 0 .65.85 7.34 7.34 0 0 1 .68 1 7.73 7.73 0 0 0 2.25 2.27A14.62 14.62 0 0 0 284 166a11.53 11.53 0 0 0 1.84.37 12.15 12.15 0 0 0 2.09 0 9.6 9.6 0 0 0 1.6-.21 10 10 0 0 0 1.93-.73 12 12 0 0 0 2.9-2.1l1.4-1.47a9.13 9.13 0 0 0 1-1.69 17.1 17.1 0 0 0 1.16-2.84 18.69 18.69 0 0 0 .85-3.39c.26-2 .17-4 .24-5.95v-5.2l.06-2.3-.05-2.3v-4.1l.05-4.95-.24-2.38a14.86 14.86 0 0 0-.52-2.47 2.22 2.22 0 0 0-.83-1.36 2.17 2.17 0 0 0-1.27-.42 1.84 1.84 0 0 0-.33 0zm11.84 3.8l-.56 4.82-.2 2.17c-.04.73 0 1.57 0 2.35a30.44 30.44 0 0 1-.72 4.83 19 19 0 0 0 0 4.59c0 1.4-.24 2.8-.2 4.2l.07 4.74-.1 2.62-.07 2.46a23.92 23.92 0 0 0-.07 2.68l.06 1.3v.53a3.05 3.05 0 0 0 .2 1 2.08 2.08 0 0 0 1.17 1.12 2.14 2.14 0 0 0 1.63 0 2.11 2.11 0 0 0 1.12-1.17 2.08 2.08 0 0 0 .07-1.23h0c-.07-.62-.08-1.26-.1-1.9a1.77 1.77 0 0 0 0 .23l.13-3.6.1-2c.1-.64 0-1.6 0-2.38v-5.1l.18-2.6a23.09 23.09 0 0 0-.13-3 20.11 20.11 0 0 1 .52-3.78 18.54 18.54 0 0 0 .31-2c.06-.72.06-1.45 0-2.18a27.34 27.34 0 0 1 .28-3.84l.2-2.15.3-2.22a2.13 2.13 0 0 0-1.9-2.32h-.1a2.17 2.17 0 0 0-2.11 1.91zm2.52 27a.57.57 0 0 0 0 .13v-.13zm0 .4v.15-.15z"/><path d="M329.88 127.56a2.27 2.27 0 0 0-1.12 1.18l-.18.34a11.44 11.44 0 0 1-1 1.56 15.32 15.32 0 0 1-1.08 1.21l-1.9 1.77-2.08 1.64-4 3.13-2.08 1.38-1.9 1.38c-1.3 1-2.68 1.85-4.06 2.7l.46-.27-1 .6h.07a6.82 6.82 0 0 0-1.93 1.34 2.33 2.33 0 0 0-.47 1.17 2.17 2.17 0 0 0 .47 1.58 3.07 3.07 0 0 0 1 .74l.23.12c1.16.5 2.35.84 3.54 1.23l3.57 1.26a32.59 32.59 0 0 1 3.45 1.44 15.22 15.22 0 0 1 1.5 1 17.62 17.62 0 0 0 2.2 1.33l1.15.66a13.52 13.52 0 0 1 1.39 1.11 31.24 31.24 0 0 0 2.81 2l3.27 2.06 1.57 1 .7.44.32.18a2.13 2.13 0 0 0 3.71-1.18 2.24 2.24 0 0 0-.45-1.54 4.27 4.27 0 0 0-1.47-1.12l-1.72-1.07-3.4-2.14-3-2.2a11.08 11.08 0 0 0-1.46-1.09l-1.9-1.07a11.8 11.8 0 0 1-1.4-.94 15.34 15.34 0 0 0-2-1.25 31.53 31.53 0 0 0-3.84-1.62l-3.4-1.2 2.78-1.9 2.22-1.6 2.47-1.68 4.88-3.84a30.51 30.51 0 0 0 2.39-2.15 21.09 21.09 0 0 0 2.22-2.51 17.68 17.68 0 0 0 1.4-2.42 2 2 0 0 0 0-1.62 2.14 2.14 0 0 0-1.17-1.12 2.06 2.06 0 0 0-.77-.14 2.14 2.14 0 0 0-.86.18zM323 155.1l.5.28-.5-.28zM173 244a21.3 21.3 0 0 0-1.81 3l-.6 1.38a10 10 0 0 0-.45 2 14.43 14.43 0 0 0-.16 3.41 20.74 20.74 0 0 0 .38 3 14 14 0 0 0 1.16 3.33 11.4 11.4 0 0 0 3.69 4.25 14.55 14.55 0 0 0 6.76 2.55 14.22 14.22 0 0 0 3.45-.06 21.32 21.32 0 0 0 3.16-.74 20 20 0 0 0 3.07-1.18 24.93 24.93 0 0 0 3-1.81 2.12 2.12 0 0 0-1.12-3.77 2.2 2.2 0 0 0-1.53.45l-1.07.72a18.68 18.68 0 0 1-3.45 1.53l.52-.15-2.14.58c-.72.14-1.38.22-2.08.28a14.63 14.63 0 0 1-2.72-.31 12.17 12.17 0 0 1-2.26-.88 7.11 7.11 0 0 1-3.3-3.06 13.6 13.6 0 0 1-.76-1.75l-.34-1.68-.18-1.86a15.52 15.52 0 0 1 .27-3 12.94 12.94 0 0 1 .85-2 22.82 22.82 0 0 1 2.67-3.58l.4-.36h-.05a4.68 4.68 0 0 1-2.08-.66 9.5 9.5 0 0 1-1.08-.81l-.3-.32-.28-.35A19.85 19.85 0 0 0 173 244zm1.54 5.75v.15-.15zm25.98 2.17l.73 4.68.9 4.2a2.122 2.122 0 1 0 4.19-.68l-.92-4.36-.8-5.08-.24-1.3-1.5-.33-2.55-.67-.5-.08.7 3.6z"/><path d="M202.24 250.27a2.12 2.12 0 1 0 .67 4.19l5.12-1.15 6-1.52a2.06 2.06 0 0 0 1.12-1.18.24.24 0 0 0 0-.08l-1.2-.08-3.2-.37 1 .13-5.23-.52.46.06-1.42-.18-3.25.7z"/><path d="M214.16 255.33l.42 2.43.26 2.44a2.122 2.122 0 1 0 4.19-.68c-.14-.74-.14-1.52-.24-2.28l-.43-2.53-.8-3.93-1-.13.66.1-.68-.08h.1l-2.74-.23-.75-.07q.48 2.48 1 5zm8.9-3.7h0zm.03.13a21.83 21.83 0 0 0 1 2.67 17.11 17.11 0 0 0 1.75 3 9.93 9.93 0 0 0 2.82 2.7 9 9 0 0 0 3.67 1.26 9.59 9.59 0 0 0 6.69-1.75 8.75 8.75 0 0 0 1.6-1.56 8.62 8.62 0 0 0 .87-1.21 7.23 7.23 0 0 0 .72-1.51 9.77 9.77 0 0 0 .37-1.77q0-.3 0-.6c-.28 0-.57 0-.85.06l.66-.08-1.9.2 1-.12-2.4.27 1-.14-1.76.17c0 .1 0 .23-.05.34a6.19 6.19 0 0 1-.32.85 10.2 10.2 0 0 1-1.06 1.37 5 5 0 0 1-.58.45 13 13 0 0 1-1.57.71 9.18 9.18 0 0 1-1.17.18 8.48 8.48 0 0 1-1.41-.17 8.18 8.18 0 0 1-1-.36 8.6 8.6 0 0 1-1.2-.88 15.06 15.06 0 0 1-1.52-2.11l-.42-.83-1.66-.33a13.84 13.84 0 0 1-1.44-.38 10.52 10.52 0 0 0-1.85-.5v.1zm42-3.86h1.3a.86.86 0 0 1 .14-.13q-.72.08-1.44.12zm-12.45 7.42a15.69 15.69 0 0 0 3.79 1.8 21.42 21.42 0 0 0 4.07.63 12.51 12.51 0 0 0 2.12 0c.5 0 1-.12 1.5-.15h-.55a5.14 5.14 0 0 0 1.7-.23 2.75 2.75 0 0 0 1.4-1.16 6.18 6.18 0 0 0 .43-.9 15.64 15.64 0 0 1-3.61-.16l-2.27-.44-2-.25.7.1-.76-.1H259l-.66-.1-1-.14.56.08-2.2-.4-1.45-.16-2.13-.36c-.7-.12-1.3-.07-2-.08a9.37 9.37 0 0 0 2.51 2zm6.35-.9h0z"/><path d="M265.1 247.9h1.3a.86.86 0 0 1 .14-.13l-1.44.13zm-1.5 9.77a16.07 16.07 0 0 0 .34 2.41c.1.5.1 1 .2 1.55a2.122 2.122 0 0 0 4.19-.68c-.1-.42-.1-.86-.16-1.28l-.33-2-.15-2.2v-.16h-.28a17.19 17.19 0 0 1-3.92-.15h-.07l.2 2.55zm-93.26 19.93a7 7 0 0 0-1.69 1 8 8 0 0 0-1.32 1.34c-.3.37-.57.77-.84 1.17l-1.78 2.76a21.45 21.45 0 0 0-2.89 6.46 11.57 11.57 0 0 0 1.16 7.59l1.2 2 1.06 1.5a12.59 12.59 0 0 0 1.15 1.16 15.88 15.88 0 0 0 3.75 2.46 10 10 0 0 0 2.82 1 8.25 8.25 0 0 0 4.27-.64 23.64 23.64 0 0 0 4.06-2 2 2 0 0 0 .78-1.45 2.1 2.1 0 0 0-1.9-2.32 2.2 2.2 0 0 0-1.42.38 20.44 20.44 0 0 1-3.81 1.73 5.79 5.79 0 0 1-.83.16 6 6 0 0 1-.85-.09 11.69 11.69 0 0 1-1.91-.85 14.35 14.35 0 0 1-2.26-1.59 12.17 12.17 0 0 1-1.28-1.57l-.6-.94a16.08 16.08 0 0 1-1.11-2.38 10.66 10.66 0 0 1-.27-1.94 9.43 9.43 0 0 1 .17-1.59 17.21 17.21 0 0 1 1.49-3.48l1.7-2.76a23.23 23.23 0 0 1 1.75-2.45 6 6 0 0 1 .68-.54 7.37 7.37 0 0 1 .64-.29 5.6 5.6 0 0 1 .59-.12 3.12 3.12 0 0 1 .44 0 19.67 19.67 0 0 1 2.44 1.08 2.12 2.12 0 0 0 2.7-2.84 2.23 2.23 0 0 0-1.18-1.12 11.9 11.9 0 0 0-3.91-1.4h-.44a7.33 7.33 0 0 0-2.57.57zm23.5 1.73a1.93 1.93 0 0 0-1.17-.15l-1.82.5a6.73 6.73 0 0 0-1.6.82 8.83 8.83 0 0 0-2.32 2.36 19.51 19.51 0 0 0-1.74 3.21 13 13 0 0 0-1 4.34 14.82 14.82 0 0 0 .26 3.7 26.62 26.62 0 0 0 .95 3.5 14.12 14.12 0 0 0 1.49 3.14 13.23 13.23 0 0 0 .83 1.23 11.16 11.16 0 0 0 1.36 1.39 16.14 16.14 0 0 0 2.42 1.77 7.63 7.63 0 0 0 2 .9 6.86 6.86 0 0 0 1.68.22 7.21 7.21 0 0 0 2.25-.41l1.43-.57a11.51 11.51 0 0 0 2.28-1.53 23 23 0 0 0 2.44-2.4 13.44 13.44 0 0 0 3.4-5.64 14.53 14.53 0 0 0 .26-4 19.7 19.7 0 0 0-.32-3 12.86 12.86 0 0 0-1.19-3.74 13.66 13.66 0 0 0-1.19-1.89 9.8 9.8 0 0 0-1.53-1.49 8.73 8.73 0 0 0-1.38-1 21 21 0 0 0-2-1.05 11.87 11.87 0 0 0-4.07-1h-.12a2.27 2.27 0 0 0-1.57.61zm-.5 4a2.56 2.56 0 0 0 1.14-.57 1.81 1.81 0 0 0 .62.14 12.29 12.29 0 0 1 1.5.18 13.3 13.3 0 0 1 2.28.93 13.43 13.43 0 0 1 1.87 1.32 8.32 8.32 0 0 1 .87 1.09 13 13 0 0 1 .79 1.79 20.71 20.71 0 0 1 .59 4.07 13.54 13.54 0 0 1-.15 2.3 7.93 7.93 0 0 1-.51 1.33 22.06 22.06 0 0 1-2.61 3.32 17 17 0 0 1-2.35 2 11.15 11.15 0 0 1-1.55.67l-.62.12a5.29 5.29 0 0 1-.56-.05 5.58 5.58 0 0 1-.67-.28 15.73 15.73 0 0 1-2.47-1.82 10.24 10.24 0 0 1-1.13-1.47 11.17 11.17 0 0 1-.64-1.24l-.54-1.46-.55-2.13a14.57 14.57 0 0 1-.28-2.19 18.42 18.42 0 0 1 .3-2.56 14.42 14.42 0 0 1 1.13-2.58 12.44 12.44 0 0 1 1.21-1.73 6.85 6.85 0 0 1 .85-.68l.5-.22 1-.26zm30.66-7.86a6.62 6.62 0 0 0-1.22.31l-5.87 1.45a16.93 16.93 0 0 1-3 .48 4.2 4.2 0 0 0-.51.05 3.17 3.17 0 0 0-1.34.56 2.3 2.3 0 0 0-.82 2.12 3.6 3.6 0 0 0 .21.78l.5 1.63a9.2 9.2 0 0 1 .22 1.73c0 .7.1 1.42.16 2.12l.62 4.57a48.42 48.42 0 0 1 .44 4.75l.25 4.68a2.13 2.13 0 0 0 2.43 1.76 2.17 2.17 0 0 0 1.37-.83 2.25 2.25 0 0 0 .39-1.61l-.27-5.06a43.72 43.72 0 0 0-.52-5l-.6-4.82-.17-2.25a7.61 7.61 0 0 0-.25-1.15h.13c.92-.13 1.82-.42 2.73-.64l5.56-1.4-.52.15a5.71 5.71 0 0 1 .74-.18 2.11 2.11 0 0 0-.39-4.2 1.42 1.42 0 0 0-.29 0z"/><path d="M222.84 285.9l-1.5.1-1.36.2a24.79 24.79 0 0 1-2.56.3h-1a2.25 2.25 0 0 0-1.53.45 2.13 2.13 0 0 0 1.12 3.76 24.09 24.09 0 0 0 4.16-.25l1.67-.24 1.67-.13a2.12 2.12 0 0 0-.4-4.21h-.28zm19.43-12.63a59.52 59.52 0 0 1-6.64.79 9.73 9.73 0 0 1-1.52-.12l-.38-.12a2.84 2.84 0 0 0-1.29-.14 2.17 2.17 0 0 0-1.69 1.39c-.38 1 .05 2.1.27 3.08a31.21 31.21 0 0 1 .73 5.18v2.46l.15 3.36a20.61 20.61 0 0 0 .33 2.72l.38 2.4a20 20 0 0 1-.39 2.64 2.11 2.11 0 0 0 3.43 1.86 2.17 2.17 0 0 0 .79-1.45 14.32 14.32 0 0 0 .4-2.69 16 16 0 0 0-.36-3.09 35.12 35.12 0 0 1-.51-5.41 42.42 42.42 0 0 0-.2-5.64l-.37-2.2a20.75 20.75 0 0 0 2.09-.13l2.66-.27 2.8-.44a2.12 2.12 0 0 0-.34-4.22 2 2 0 0 0-.34 0zm-6.27 12.4a2.26 2.26 0 0 0 0 .26v-.26z"/><path d="M241.47 283.82l-3.44.37a11.45 11.45 0 0 1-2-.22 2.06 2.06 0 0 0-1.53.46 2.13 2.13 0 0 0-.8 1.45 2.18 2.18 0 0 0 .46 1.53 2.24 2.24 0 0 0 1.45.79l1.26.2a11 11 0 0 0 1.72 0c.4 0 .8-.05 1.2-.1l2.36-.3a2.12 2.12 0 0 0-.42-4.21h-.26zm10.85-9.44a2.12 2.12 0 0 0-1.36.83 2.25 2.25 0 0 0-.39 1.61l.2 3q0 1.9-.15 3.78a24.47 24.47 0 0 0 0 4.28 35.28 35.28 0 0 0 .59 3.66l.25 1.6a14.43 14.43 0 0 0 .45 2 5.36 5.36 0 0 0 .75 1.78 3.59 3.59 0 0 0 3.06 1.29 31.14 31.14 0 0 0 4.3-.42 34.4 34.4 0 0 0 3.87-.89l4-1.3.78-.23a2 2 0 0 0 1.12-1.17 2.12 2.12 0 0 0-1.22-2.74 2.08 2.08 0 0 0-1.37 0h.07-.27l-3.86 1.24A34.76 34.76 0 0 1 256 294a14 14 0 0 1-.36-1.91l-.3-1.78-.37-2.1c-.1-.7-.15-1.3-.18-2 0-1.52.2-3 .23-4.55a47 47 0 0 0-.22-5.56 2.11 2.11 0 0 0-2.13-1.77 1.67 1.67 0 0 0-.31 0zm3.5 19.1v.15c0 .05 0-.1 0-.15zm.15.5zm.14.5h0v.1-.1z"/><path d="M262.37 281.7l-1.95.37-2.12.54-4.6 1.46a2.12 2.12 0 0 0 .1 3.92 2.21 2.21 0 0 0 1.62 0l2.9-1 2.2-.58 2.52-.5a2.13 2.13 0 0 0-.3-4.23 1.64 1.64 0 0 0-.38 0zm.03-9.7l-2.3.28-2.5.28-5.3.65a2.12 2.12 0 0 0-1.76 2.43 2.17 2.17 0 0 0 .83 1.37 2.31 2.31 0 0 0 1.61.39l5.3-.65 2.34-.26 2.46-.3a2.12 2.12 0 0 0 .92-3.8 2.06 2.06 0 0 0-1.3-.4zm11.42-1.13a2.11 2.11 0 0 0-1.37.83 2.27 2.27 0 0 0-.39 1.6l.26 3.26.18 3.55.12 3c.06 1 .25 2.2.42 3.3l.48 3.1a21.22 21.22 0 0 0 .43 2.86 7.85 7.85 0 0 0 .56 1.56 3.59 3.59 0 0 0 .95 1.2 3.08 3.08 0 0 0 2.23.48c1-.06 2.06-.27 3.08-.4l3.22-.38 2.73-.4c.4 0 .78-.08 1.17-.1a2 2 0 0 0 1.36-.83 2.13 2.13 0 0 0-.44-3 2.32 2.32 0 0 0-1.6-.39c-.8 0-1.6.18-2.4.3l-2.48.32-2.7.33-1.6.22c-.14-.66-.2-1.34-.28-2l-.43-2.86a46.79 46.79 0 0 1-.6-5.42v.06l-.17-4.18-.32-4.25a2 2 0 0 0-.83-1.36 2.06 2.06 0 0 0-1.27-.42h-.33z"/><path d="M283.6 277.4c-.63.18-1.28.28-1.92.42l-1.95.4-2.08.38a21.18 21.18 0 0 1-2.65.39h-.36a2.31 2.31 0 0 0-1.53.45 2.12 2.12 0 0 0-.79 1.45 2.1 2.1 0 0 0 .45 1.53 2.05 2.05 0 0 0 1.45.8 18.82 18.82 0 0 0 2.6-.17l1.22-.2 2.2-.4 2-.4 2-.43a2.29 2.29 0 0 0 1.37-.83 2.13 2.13 0 0 0 .39-1.6 2.17 2.17 0 0 0-.83-1.37 2.3 2.3 0 0 0-1.26-.43 1.34 1.34 0 0 0-.35 0zm2.93-8.46l-2.94.32-3.5.2-3.46.3-3.66.54a2.14 2.14 0 0 0-1.76 2.43 2.16 2.16 0 0 0 2.44 1.76l3.58-.53c1.2-.18 2.27-.25 3.4-.3l3.5-.2c.5 0 1 0 1.5-.1s1.06-.16 1.58-.22a2.11 2.11 0 0 0-.4-4.2z"/></g></svg>