<svg xmlns="http://www.w3.org/2000/svg" viewBox="0 0 320.19 278.44" xmlns:v="https://vecta.io/nano"><g fill="#48578e"><path d="M19.4 0h-.27a25.92 25.92 0 0 0-3.74.27l-1.77.3-2 .34-1.83.32-1.35.24a14.33 14.33 0 0 0-2.68.66 6 6 0 0 0-2.45 1.5A10.52 10.52 0 0 0 2 5.54l-.16.26a2.23 2.23 0 0 0-.24.4 4.81 4.81 0 0 0-.39 1.14c0 .14-.07.28-.1.42L.52 9.18l-.28.66a2.05 2.05 0 0 0-.18 1.41A1.85 1.85 0 0 0 1 12.39a1.87 1.87 0 0 0 .32.15l.05 1.67v.55c0 .8.1 1.6.17 2.4.06 1 0 2 0 2.95v7.03l-.07 1.6v3.87l-.08 3.32v1.68l-.07 2.06.06 2.4v1.43l.13 3.12c.06 1.04 0 2.24 0 3.33V50l-.05 3.23v10.4q0 .63 0 1.23l-.05 2.18V81.2l.06 6.24v.63l.07 4.5v6l.1 2.82v.72l.07 3.06v12.44c0 1.43.13 3 .3 4.9l.22 3.3v.44l.13 3.16v6.87l.1 2.06.08 1.78v13.7l-.06 3.08v9.63l-.08 1.8-.06 1.26-.08 3.3v3.5L2.4 178l-.22 5.2v.8l-.2 5.54.12 2.86v.5c.07 1.13 0 2.28 0 3.4v3.4l-.13 3.9-.1 1.22-.15 2.34v9.67c0 .63.06 1.27.1 1.9 0 .4.06.8.08 1.2.06 1.16 0 2.34 0 3.35l-.34 6.6c0 .37-.06.75-.1 1.12l-.1 1.18v2.98c0 .56-.06 1.13-.1 1.7q0 .6 0 1.2v.5a28.82 28.82 0 0 0 .14 2.91l.1 2.77v5.57a29.07 29.07 0 0 0 .15 3c0 .6.08 1.2.12 1.8l.2 2.7a2.29 2.29 0 0 0 0 .25v.2l.1 1.8c.01.53 0 1-.06 1.46v.63a10 10 0 0 0 .18 2l.06.43.15.93.17 1.13v.26c0 .38 0 .76.1 1.13a9 9 0 0 0 .21.93l.12.46a9.2 9.2 0 0 0 1.16 3.09 4.57 4.57 0 0 0 1.43 1.47l.73.43a5.13 5.13 0 0 0 1.07.46 5.83 5.83 0 0 0 .93.16h.12a4 4 0 0 0 .77.11h0a5.87 5.87 0 0 0 .62 0h.55c.26 0 .53 0 .8-.06a1.1 1.1 0 0 0 .26-.06c.4 0 .76-.06 1.1-.1l.9-.08 1-.1h.3l.9-.1.6-.08h1l1.32-.06h.7c.78 0 1.57.07 2.34.13.5 0 1 .08 1.5.1.72 0 1.44.1 2.16.15h.56l1.2.05a10.34 10.34 0 0 0 1.3-.09l.9-.07h2.6l.5.05h.72a13.22 13.22 0 0 1 1.78.16 1.81 1.81 0 0 0 1.3.75h.93a12.08 12.08 0 0 1 1.26.15l.35.06a4.36 4.36 0 0 0 1 .13l1.57-.05a8 8 0 0 0 1.46-.28 4.92 4.92 0 0 1 .67-.1l.85.1.58.07a9.87 9.87 0 0 0 1 .05h.53c.55 0 1.1.1 1.63.16l.56.07a17.1 17.1 0 0 0 1.85.09h2.72c.3 0 .6 0 .9-.06h4.72c.37 0 .74.05 1.1.1l.6.06 2.37.14a14.31 14.31 0 0 0 2.62-.22 11.63 11.63 0 0 1 1.71-.18c.5 0 1 .07 1.5.12h.5a12.36 12.36 0 0 0 1.3.07 8.64 8.64 0 0 0 .88 0 7.34 7.34 0 0 0 1.06-.19l.56-.1a14.27 14.27 0 0 1 2.34-.22H82q.73 0 1.47 0h.8c.56 0 1.13.06 1.7.1l1.5.1h3.6c1.48 0 3 .15 4.43.3l.6.06a14.19 14.19 0 0 0 1.51.07l2.5-.1c.52 0 1-.07 1.55-.08h3.7l2.26-.1 1.18-.06h3.33c1.24 0 2.5.08 3.76.2l1.35.14 2.43.22 2.92.1h3.22l5 .15 2.88.24 5 .33h1.3l3.45-.1h.6l3.7-.22 2.35.1h.3l3.18.13 3.54-.07 2.28-.06h17.2l2.13-.1 1.3-.07c.9 0 1.8.07 2.68.14h.42l4.22.2 2.8.13 4.6.16h3.3l1.86-.05 1.44-.05 3.9.15.88.05 2.9.1 2.78.1 4 .1 6.08-.1h1.32l2.45.1 1.85.1h.67l2.2-.06 1.54-.06 2 .05 5.93.1h8.03l8.6.28 4.6.23h.9c.85 0 1.7-.08 2.54-.13l2.53-.13H274l3.9.08 1.32.08 2.9.12h.63l4.72-.38 4.84-.38h3.2l2.88-.1c.96-.02 2 0 3 .1l2.48.1h1.5a26.41 26.41 0 0 0 3-.27l.74-.1 2.22-.36a7.88 7.88 0 0 0 3-1.28 7.51 7.51 0 0 0 1.82-2 12.38 12.38 0 0 0 1.1-2.09 6.11 6.11 0 0 1 .38-.77l.08-.15a1.12 1.12 0 0 0 .34-.41 4 4 0 0 0 .24-.51c0-.17.07-.33.1-.5l.12-.26.12-.28a1.72 1.72 0 0 0-.11-1.6 17.25 17.25 0 0 0-.1-1.79 27.65 27.65 0 0 1 .23-4.37l.2-2.12.18-3.1v-.74l.1-2.35.1-3.42.1-1.3.17-2.6v-1.45l.06-2.12v-.25l.2-3.62v-7.66l-.08-4.7-.08-3.1v-5.26l.06-2.4.05-1.93c.05-.64.05-1.4.05-2.12l.1-3.8v-1.77l.05-1.75v-3.28l-.12-3.9-.1-2.73q0-1.6 0-3.18l.08-2.06.06-1.2v-3.1c0-1.2-.15-2.4-.25-3.42l-.2-7.34.1-2.5.06-1.1.07-2.28v-1.46l-.1-7.7-.16-5.55-.05-2.12v-.23l-.05-3.4v-3.02l-.07-2.46v-3.54l.12-2.52v-.8a20.33 20.33 0 0 0 .1-2.35l-.46-6.53-.18-3.3v-4.2l-.1-3.53v-3.98l-.2-3.92-.2-3.08v-3.18l-.05-3.9q-.06-1.27-.15-2.55l-.17-3.1V85.8c0-3 0-6.94-.43-10.9a9.67 9.67 0 0 1 0-1.5c0-.3 0-.6.07-.92s0-.57.06-.86c.06-1.06 0-2.13 0-3.17v-4.1c.05-.8.16-1.6.27-2.4 0-.35.1-.7.13-1a27.16 27.16 0 0 0 .15-3.12V54.3c0-.47-.05-1-.08-1.43-.05-.65-.1-1.3-.1-1.94 0-.83 0-1.66-.05-2.5v-2.25c0-1.25-.05-2.54 0-3.8 0-.86.07-1.7.1-2.56l.1-2.35v-2.5q0-1.34.06-2.67v-2.13c0-.65-.07-1.32-.13-2-.06-.9-.1-1.86-.13-2.93V24.1c0-.83-.05-1.66 0-2.48v-.26c0-1.83 0-3.72.16-5.58v-.26a17.89 17.89 0 0 0 .06-2.32 9.22 9.22 0 0 0-.2-1.51c-.1-.44-.18-.87-.25-1.3-.13-.8-.27-1.5-.43-2.14a22.6 22.6 0 0 0-.51-1.74v-.07a5 5 0 0 0-.22-.58 4.72 4.72 0 0 0-.51-.87 3.64 3.64 0 0 0-1.35-1.09h-.08a1.85 1.85 0 0 0-.79-1.9 2.39 2.39 0 0 0-1-.28h-5.7c-.5 0-1 .06-1.5.06h-5.1c-.44 0-.88.06-1.32.1-.62.06-1.27.1-1.9.1h-8.83c-.48 0-1 .06-1.43.1h-.58c-2 .16-4.06.18-6 .18h-1.06c-.9 0-1.8-.07-2.7-.13l-1.34-.1h-14.94c-.68 0-1.35-.1-2-.14-1.05-.1-2.1-.1-3.14-.1h-1.78c-1.16 0-2.1 0-3 .07-.67 0-1.34.06-2 .1l-2.3.1c-1.75.12-3.1.17-4.35.18h-8.97l-2.67.05h-1.07c-1.18 0-2.38.08-3.54.14-1.33.07-2.7.15-4.07.15h-7.5c-.38 0-1-.1-1.5-.14l-.52-.06a49.08 49.08 0 0 0-2.09-.18h-.16c-.55 0-1.14-.05-1.83-.05h-3.22c-1.25 0-2.52-.06-3.75-.1l-3.76-.1c-1.26 0-2.76 0-4.2-.15s-2.66-.1-4.14-.1h-5.45c-1 0-2.23 0-3.5-.08l-3.22-.1h-1.2c-1.48 0-2.8-.07-4-.07s-2.4 0-3.6.06-2.4.06-3.6.06H163c-1.2 0-2.46-.1-4.1-.22l-.77-.05c-1.12-.1-2.28-.18-3.43-.18h-4.3c-1.17 0-2.37.05-3.53.08h-.7c-.54 0-1.1 0-1.63.07-.83 0-1.66.07-2.5.08h-4.1l-1.93.52c-.73 0-1.47.08-2.2.1h-5.4c-1 0-2.07.06-3.1.06s-2.36.07-3.52.14l-1 .05c-1.78.1-3.7.14-6.06.14h-2.52c-1 0-2 0-2.9-.1h-1.9L106 2.2H95.36c-.73 0-1.47-.05-2.2-.1l-2-.1L88 2h-1.35c-1.28 0-2.58.08-3.83.14h-2.6c-.68-.05-1.38-.1-2.08-.1h-1.9L75.08 2h-5c-.7 0-1.23-.06-1.84-.1h-9.3l-2.08-.1c-.7 0-1.4-.05-2.08-.1-1.17-.05-2.34-.13-3.5-.2h-.7l-1.17-.26-3.14-.2C45.52 1 44.78 1 44 1h-8.16c-.5 0-1 0-1.46-.05l-2.8-.1-1.1-.08-3.1-.23-5.02-.4-.7-.06-.92-.1h-.85zm5.77 255.13H25l-1-.08h-.46l-.28-1.78A23.18 23.18 0 0 1 23 250c0-.47 0-.94.08-1.47a16.61 16.61 0 0 0 .07-1.88c0-.9-.06-1.77-.1-2.65v-1.52a27.42 27.42 0 0 1-.05-2.93l.05-.85v-.1c.06-.88.1-1.83.13-2.78s0-1.68-.1-2.68l-.05-.83c-.15-2.74-.17-5.1-.08-7.18.06-1.2 0-2.4 0-3.56v-1.1c0-.83 0-1.66-.07-2.48-.06-1.38-.2-2.82-.3-4.1v-.37l-.26-3.07a26 26 0 0 1 0-3.39l.06-.94v-2.74l-.05-3.94c0-.62-.06-1.24-.1-1.87v-.44c0-.5-.07-1-.1-1.5 0-.7 0-1.38-.06-2.08v-.2L22 192c0-1.37-.1-2.73-.16-4.1-.1-2.27-.18-4.7-.1-7.25 0-.6.05-1.2.08-1.78v-.3c0-.44.05-.87.06-1.3a49.14 49.14 0 0 0 0-3.84c0-.93 0-1.86-.07-2.8 0-1.6-.08-3.2-.13-4.8v-1.08c0-.8 0-1.6-.08-2.4 0-.46 0-.92-.07-1.38v-.26c0-.68-.08-1.36-.1-2v-1.62c-.05-1.94-.1-3.82-.06-5.66.05-2.6-.1-5.12-.23-7.56v-.37c-.1-2.15-.24-4.58-.2-7 0-1.46.1-2.94.2-4.43l.16-3a47.08 47.08 0 0 0 0-3.77v-3.7l.05-2.17v-.63l.06-4.36c0-1.14 0-2.28-.1-3.35v-.5c-.06-1.26-.06-2.44-.06-3.76v-10.2c0-1.6.07-3.2.08-4.8v-7.35c0-1.82.06-3.8.1-5.4v-3.1c0-.88.05-1.76.06-2.65v-3.82c-.06-1.94 0-4 0-5.64V55q0-1.74 0-3.48c0-1.15 0-2.32.1-3.58l.22-5c0-.8 0-1.6.05-2.42v-2.16c0-.36.05-.72.08-1.1s.05-.5.06-.76a15.45 15.45 0 0 0 0-2.26c0-.17 0-.34-.05-.5v-.3a10.47 10.47 0 0 1 .07-1.28 18.37 18.37 0 0 1 .1-2.18l.12-.88.2-1.43v-.24a7.73 7.73 0 0 0 .12-1.17 8.05 8.05 0 0 0-.23-1.84 18 18 0 0 1 .16-2.95v-.05c2.18.2 4.73.36 7.58.5h.3c1.6.1 2.92.15 4 .15h.2c1.46 0 2.86-.06 4-.12h4.26l4.24.05h4.2c1 0 2-.06 3-.1h1.43c.65 0 1.3-.06 1.94-.1l2.32-.1 4.32-.06H70c.94 0 1.9 0 2.83-.05s2 0 3.1 0l4.2.06h4.72l4.85.07h.48l7 .2h1.18l4.46-.07 2-.1h2.05c.54 0 1.13-.05 1.8-.05h2.53c1.43 0 2.86.07 4.28.12s2.83.07 4.62.07l4.14-.06c1.24-.06 2.48-.06 3.6-.06 1.64 0 3.4 0 5.2.12h.84c.83 0 2.08.1 3.3.1h.56c1.38 0 2.63 0 3.82-.06a117.11 117.11 0 0 1 3.88-.07 130.83 130.83 0 0 1 4.74.07h2c1.16 0 2.7.1 4.2.1h2.07l2.43-.1h.1l2-.08h4.24c1.16 0 2.3.1 3.68.17h.57c1.44.1 2.74.18 4.14.2l2.46.06h.64c1.62 0 2.9.06 4.06.06h2.1c.85 0 1.7 0 2.56.05h.7l4.18.08h.62l3.65.06c.74 0 1.5.07 2.3.12h.1l1.6.1c1 .05 2 .07 3.05.1h5.65c1.82 0 3.62.1 5.37.17h.13q1.53.08 3.06.12h.93c1.06 0 2 .07 2.8.07h.5c1.5 0 3 0 4.6-.08h2.46c.55 0 1.1 0 1.65.05l4.2.23 1.48.05h.23l6.47.17h4.8c1.3 0 2.46 0 3.7.1 2.75.17 5.3.27 7.75.3 1.42 0 2.84.06 4.25.1h2.58c.87 0 1.76 0 2.63.07.64 0 1.28.08 2 .14l2.4.17h.7a17.92 17.92 0 0 0 2.09-.12l.8-.12h.34l.8-.13c.8-.06 1.44-.1 2-.1h5.4c.58 0 1.17 0 1.8.08h1.35c.45 0 1 .08 1.58.08h2.58c.74 0 1.5.07 2.37.08a5 5 0 0 1 .67.05h.36a.31.31 0 0 1 .16.06v4.12c0 1.36.08 2.6.16 3.76v.28c.07 1 .14 2.1.13 3.17v4.76c0 .74.06 1.48.08 2.22 0 .94-.05 1.9-.12 2.94v.58a24.49 24.49 0 0 0 0 3.54l.08 1.6v1.33c0 .27 0 .53.05.8l.2 3.48c.04.83 0 1.72 0 2.55v4.38a24.35 24.35 0 0 0 .18 3l.06.72.12 1.27v.27a53.13 53.13 0 0 1 .31 5.58v3.4c0 1.17.06 2.36.1 3.6 0 1.45.05 2.7 0 3.82 0 .76-.05 1.53-.1 2.35v1.44c0 1-.1 2.1-.08 3.2s0 2.4.06 3.6v7.1c0 .65 0 1.3.07 1.94 0 .25 0 .5.05.75s0 .62 0 .94v.1c0 1.44.07 2.48.07 3.6s0 2-.06 3v3.97a33.56 33.56 0 0 0 .1 2.24v2.5c0 .68.06 1.5.06 2.26s0 1.28-.06 2v.4c0 .38 0 .75-.05 1.12-.05 1.05-.07 2.25 0 3.67 0 .82 0 1.64.07 2.48v.65a83.09 83.09 0 0 1 .09 4.13v7.36c0 1.9-.06 3.9-.1 5.83v1.23c0 .82-.06 1.63-.1 2.45l-.06 1.32c-.06 1.07-.07 2.27-.06 3.75v3.95c0 .75 0 1.5-.07 2.25v1.4c-.06 1.58 0 3.1 0 4.6v2.46c0 1.4-.05 2.85-.1 4v2.58a34.72 34.72 0 0 0 0 3.57 51 51 0 0 1 .08 3.66c-.05 1.76-.18 3.53-.3 5l-.13 1.63v1.72c0 .85 0 1.7-.05 2.56v.85c0 1.05-.07 2.1-.1 3.15v.65c0 1.07-.07 2.14-.1 3.2l-.06 3c0 1.44-.05 2.88-.1 4.32 0 .93-.1 1.9-.18 2.9v.32c-.1 1.2-.2 2.42-.22 3.7l-.13 3.86a30 30 0 0 0 0 3.8c0 .77.06 1.57.07 2.38v1.25c0 1.3-.06 2.57-.13 3.64l-.1.8a31.46 31.46 0 0 0-.23 3.3 17 17 0 0 0 .11 2c0 .24.07.48.1.72l.05.35a8.79 8.79 0 0 1 .07 1.26v2.4a8.18 8.18 0 0 0 .06 1.22l.06.8v3.48l-.06.47-.18 1.42-.12.88h-1.3c-1 0-2.07-.1-3.24-.18h-.55l-1.46-.1c-1.87-.1-3.6-.12-6-.16-1 0-1.9-.1-2.66-.18l-2.8-.3a56.94 56.94 0 0 0-4.55-.17h-6.66l-1.74.05h-.38l-2.62.06h-.13c-1.06 0-2.25 0-3.52-.05h-1.95c-.37 0-.73 0-1.1-.08h-.8c-2.1-.18-4.46-.26-7-.26H244c-1.1 0-2 0-2.82.06h-.55l-4.54.18c-.85 0-1.73 0-2.5-.05h-.78c-.8 0-1.58-.06-2.37-.07H219.8l-.07.06h-3.38c-1 0-2 0-3-.05h-11.14q-1 0-2 0l-1.8.08h-.3l-2 .08c-1.34 0-2.68.1-3.82.18-2.6.16-5.16.3-7.7.33h-6.8c-1.1 0-2.1.06-3.52.13h-.1l-1.27.06-2.06.12h-.3c-.88.06-1.8.1-2.68.13h-3.62c-1.6 0-3.2 0-4.78-.05h-6.16c-1.54 0-2.78 0-3.8.1l-4.73.18-2.8-.07H126.6c-.8 0-1.6-.1-2.37-.16h-.93c-1.7-.15-3.83-.33-5.87-.34-1.8 0-3.67-.1-5.46-.18h-.68c-.64 0-1.38-.05-2.34-.05H106c-1.16 0-2.44-.05-3.26-.08h-.7c-.8 0-1.57-.06-2.36-.07h-4.02l-2.48.15c-1.35 0-3 0-4.58-.13-1-.06-2.08-.1-3.18-.1h-1.7c-2.06 0-3.85 0-5.63-.08l-2-.07c-1.18 0-2.34-.1-3.52-.1h-.12c-1.14 0-2.27-.06-3.36-.12h-.17l-2-.1q-.78 0-1.56 0H61.4c-.5 0-1 0-1.53-.08h-.62c-.6 0-1.17-.1-1.76-.12H57c-.7 0-1.4.05-2.13.1-.4 0-.8.06-1.2.07-1.6 0-3.3-.18-4.54-.28h-.82c-.6 0-1.23-.1-1.84-.13h-2.4c-.64 0-1.3 0-1.95-.1h-.54l-.8-.06c-.43 0-.92-.06-1.4-.06h-.5c-.52 0-1.07.1-1.63.16h-.4c-.44.06-.88.1-1.33.15s-.85 0-1.27.06h-.72a14.51 14.51 0 0 0-1.5.21h-.43c-.48.05-.94.1-1.4.1H26.6c-.48 0-.94-.05-1.43-.08z"/><path d="M2.7 254.8A2 2 0 0 0 2 256a7.26 7.26 0 0 0-.2 1.8v.8a4.82 4.82 0 0 0 .17 1.12l.27.87a7.68 7.68 0 0 1 .1 1.27v-.48 1.1c0 .32-.08.6-.08.94v.25a1.51 1.51 0 0 0 .05.42v.05a4 4 0 0 0 0 .78v.26a2.22 2.22 0 0 0 .06.44.77.77 0 0 1 0 .15v.3a.55.55 0 0 1 0 .17 2.2 2.2 0 0 0 0 .36v.77a2.52 2.52 0 0 0 .05.37v.35a1.5 1.5 0 0 0 .09.46v.57a6.37 6.37 0 0 0 .2.75h0a8 8 0 0 0 0 1 4.9 4.9 0 0 0 .41 1.4 8.69 8.69 0 0 0 .67 1.41c.12.2.3.36.44.55a1.92 1.92 0 0 0 .29.45l.4.4a2.57 2.57 0 0 0 1 .75 2.85 2.85 0 0 0 .55.16 12.49 12.49 0 0 0 1.76.67c.27.06.56.1.83.13h.38a2.28 2.28 0 0 0 .64 0h1.2c.27 0 .55-.07.82-.08h1.58c.3 0 .6-.07.9-.1s.7 0 1 0h-.23.93c.3 0 .37-.05.55-.06h.54c.45 0 .9.13 1.35.17l1.77.14H20l1.24.06h-.5c.6 0 1.2.07 1.8.1h-.48l1.43.07h-.15c.7 0 1.38.1 2.07.13h.24l1.43.05h-.3 3.46l1.72.05h1.82c.68 0 1.35.1 2 .1h-.3l2.37.1h6l3.2.18h.46l1.88.07c.62.01 1 0 1.5-.06h3.48a32.73 32.73 0 0 0 4-.1l2.36-.1 2.17-.05 3.23.1 1.44-.06h7.02c.7 0 1.42.12 2.13.17l2.7.1h.5c.8 0 1.62.1 2.43.13h5.77l2.67-.08c.9-.08 1.8-.06 2.7 0h.64l6.34.08 7-.1 4.34.27 2.78.08h2l1.66.05 2.4.05H123l4.1.12h2l2-.08 4-.06h4.83l2.5.07h1.1l3.27.07 3.6-.12 2.67-.12 3.62.06h3.07l1.7-.08h8.74l3.9.2c.7 0 1.4-.1 2.1-.17l2.34-.2 2.26-.12c.75-.03 1.52-.14 2.28-.24l2-.3a13.28 13.28 0 0 1 2-.11 11.84 11.84 0 0 0 2.79-.1 2.2 2.2 0 0 0 1.77-1.19 1.92 1.92 0 0 0 .15-1.05l1.46-.14c.72 0 1.43 0 2.15-.12l2.14-.43.5-.12a1.81 1.81 0 0 0 .79-.57 1.85 1.85 0 0 0-.28-2.62 1.79 1.79 0 0 0-1.35-.41l-1.84.38a17.21 17.21 0 0 1-1.89.16c-.63 0-1.25.06-1.88.13l-1.7.25-3.44.38a22.5 22.5 0 0 1-3.18.28c-.5 0-1-.07-1.54-.08a2 2 0 0 0-.8.18 1.9 1.9 0 0 0-1.21 1.46 1.94 1.94 0 0 0 0 .59l-3.37.25-3.24.2c-.68 0-1.36-.14-2-.16-.86 0-1.73-.05-2.6-.07h.2-7.1l-1.64.07c-1.08.06-2.16 0-3.24 0s-2.34-.08-3.5-.07l-2.54.1-6.64.1-1.54-.05h.5c-.75 0-1.5 0-2.26-.06h-1.24l-3.8-.05h-3.6c-1.2-.06-2.6.1-3.88.12h-3.33c-1.1 0-2.2-.1-3.32-.1h-2.35l-2.15-.07h.48-4.84l-4.63-.28c-1.74-.1-3.47 0-5.2 0H91l-2.62.1h-5.92c-.8 0-1.62-.1-2.44-.14h.5l-2.45-.08-3.1-.22c-1.23-.05-2.45 0-3.68 0h-6.8c-.9 0-1.8-.12-2.7-.1l-2.84.1-4.45.18h-6l-1.46-.06h-.56l-3.17-.18h-6c-.67 0-1.34-.08-2-.1h.48l-2.5-.14h.5-3.6l-1.75-.05h-3.1c-.66 0-1.32-.1-2-.13h.27l-1.75-.08h.48c-.53 0-1.07-.07-1.6-.1h-.4l-1.4-.14c-.3 0-.6-.08-.88-.13a6.34 6.34 0 0 0-1.07-.05 4.6 4.6 0 0 0-.83 0 8.07 8.07 0 0 1-1 .07h.48-1.26a4.75 4.75 0 0 0-.84.06 7.53 7.53 0 0 1-1.06.05h-.1a5.53 5.53 0 0 0-1.15 0 6.7 6.7 0 0 1-.77.08h-.1a5.67 5.67 0 0 0-.71 0h-.1c-.27 0-.53-.08-.8-.13l-.6-.28a6.1 6.1 0 0 0-.82-.28h0a1 1 0 0 1-.09-.13A2.2 2.2 0 0 0 7 272l-.17-.18-.17-.24a11.64 11.64 0 0 1-.44-1.11.86.86 0 0 1 0-.16 3 3 0 0 0 0-.89c0-.26-.12-.52-.2-.77v-.32a2.82 2.82 0 0 0-.1-.58 3.09 3.09 0 0 0 0-.43 2.34 2.34 0 0 0 0-.26h0a6.39 6.39 0 0 0 .09-.75 6.17 6.17 0 0 0 0-.75 2.52 2.52 0 0 0-.08-.54 2.62 2.62 0 0 1 0-.28v-.2a3.25 3.25 0 0 0 0-1.05h0v.1a.77.77 0 0 1 0-.15c0-.23 0-.46.06-.7v.26a10.85 10.85 0 0 0 0-1.27v.48a9.87 9.87 0 0 0 0-1.72 10.43 10.43 0 0 0-.45-1.77 4.67 4.67 0 0 1 0-.52v-.3a5.89 5.89 0 0 1 .18-1.26 1.82 1.82 0 0 0-.33-1.41 1.92 1.92 0 0 0-1.2-.74 1.51 1.51 0 0 0-.3 0 1.84 1.84 0 0 0-1.11.36zm3.15 8.5v.12-.13zm.07 4.3h0zm87.7 6.52h0z"/></g><path d="M41.66 40.17a1.18 1.18 0 0 0-.68.25v1.65a16.67 16.67 0 0 1-.1 2.4 13.61 13.61 0 0 0 0 1.44v.9c0 .46 0 .92.07 1.4v.55a7.89 7.89 0 0 1 0 1.09 19.82 19.82 0 0 0 .11 2.73h.1c1 .35 1.88.75 2.8 1.17a22.41 22.41 0 0 1 2.48 1.36l.14.08a24.84 24.84 0 0 0 5 2.08l.76.25 2.45 1 .9.38 1 .37h.14l.2.05 2.7.92h.1l.2.07.68.22.7.23 1.2.38h.08l1.28.4 1 .3h.3l1.1.32.5.2h.22l.6.24h.23l-3.75 1.73-.48.2-2.4 1.14-.65.35-.16.1-1.58.85-1.88.86h-.13l.1.56-.24.1-2.2 1-1.55.8-.46.23-1.7.73h-.1l-.92.4-1.7.83h-.1l-.75.38-1.12.48-.78.33a5.66 5.66 0 0 1-.72.28h-.1l-.55.2-.23.1-.16.06h-.78a1.63 1.63 0 0 0-.36 0v.2l.1.76c0 .28 0 .56.05.85V77a20.48 20.48 0 0 1 0 2.5c-.06.8-.06 1.57-.06 2.44v.74a5.91 5.91 0 0 0 0 .84v.84c0 .4 0 .83.08 1.28v.27c0 .6.1 1.17.12 1.76v1.4a1.09 1.09 0 0 1 0 .18 12.68 12.68 0 0 0 2-.72l.47-.23.18-.1.13-.06.13-.07h.1l.7-.36c.38-.2.8-.35 1.22-.52l.45-.18 2-.9 1.75-.92h.08l2-1 2.36-.94.17-.07 1.6-.6c.53-.22 1-.48 1.5-.73l.13-.06.08-.05 2.14-1.07 3.86-1.62 1.9-.83h.3l.2-.1h.1l1.14-.5 1.24-.5h.1l.26-.1 2.5-1 3.33-1.47.82-.34 2.48-1.06.65-.3.14-.07 1.2-.54.7-.3 1.1-.44.95-.45.2-.1h.07a4.81 4.81 0 0 1 .88-.47.25.25 0 0 1 .12 0h0l.2-.08h.14l.17-.1.3-.17a7.06 7.06 0 0 1 .72-.4h.1v.01h-.1a8.1 8.1 0 0 0 1.27-.81v-1.6a5.83 5.83 0 0 0-.08-.83v-.3c-.1-.67-.13-1.33-.17-2v-2.05a.5.5 0 0 1 0-.12h0v.08-1.06a5.17 5.17 0 0 0 0-.54c0-.3-.08-.57-.13-.85v-.35a1.74 1.74 0 0 0 0-.47 1.41 1.41 0 0 0-.49-1 4.88 4.88 0 0 0-.77-.46l-.32-.23-.18-.06a1.73 1.73 0 0 0-.32-.11l-.54-.18a24.47 24.47 0 0 1-2.5-1.17l-1.08-.55-1.32-.55h-.1l-.36-.13-2.14-.78h-.14l-.76-.27-7.74-3.25h-.1l-1.93-.85-1.3-.5-.8-.3-.87-.36-.15-.06h-.1l-.84-.35-2.23-.82-.54-.18h-.13C59.6 46 58.42 45.56 57 45l-3.46-1.24h-.1l-.8-.27-1.8-.66-.2-.08-1.28-.47-2-.64-.22-.06-1.6-.48-1.28-.48a8.47 8.47 0 0 0-1-.32 3.23 3.23 0 0 0-.93-.12h-.7zM99.83 90h-2c-.8 0-1.58 0-2.37-.06h-3.82c-.5 0-1 0-1.52-.08h-.22l-1.16-.06h-1.07v10.08a12.18 12.18 0 0 1 0 1.35v2.4h6.1l2.8.1h2.1l1.5.12h.9c.65.06 1.25.06 1.77.06h4.3l2.64.05 1.34.1h.2l2.28.1h6.5l1.55-.06h1l2.8.06 2.67.05q1 0 2 0h.65l1.58-.06.08-1.74v-.35c0-.45.05-.9.08-1.36v-.15c0-.32.05-.63.06-1 0-.74.07-1.47.12-2.22l.15-4.1-.05-1.9v-.23a5.67 5.67 0 0 1 0-.71h-4.15c-.53 0-1 0-1.58-.1s-1.1-.07-1.63-.08h-.58c-1.12 0-2.28 0-3.42-.1h-1.15c-.54 0-1.08-.08-1.62-.1h-6.5H111h-8.14l-3 .1z" fill="#ececec"/><path d="M22.54 21.4v.05a18 18 0 0 0-.16 2.95 8.05 8.05 0 0 1 .23 1.84 9.11 9.11 0 0 1-.11 1.17v.24l-.2 1.43-.2.92a18.37 18.37 0 0 0-.1 2.18 12.74 12.74 0 0 0 0 1.28v.8a15.45 15.45 0 0 1 0 2.26c0 .25 0 .5-.06.76s.06.72.06 1.1l-.05 1.7v.45l-.06 2.42-.22 5-.1 3.58v21.93l-.06 2.65v3.1l-.1 5.4v7.35l-.08 4.8v.7l-.05 2v7.43l.06 3.76v.56l.1 3.35q0 2.17-.06 4.35v10.28c0 1.12-.1 2-.16 3l-.2 4.43.2 7v.37l.22 7.56.06 5.66v1.62l.1 2.05v.15c0 .47.05.92.07 1.38l.08 2.4v1.08l.2 7.58v3.84l-.06 1.3v.3l-.08 1.78.12 7.25.15 4.1v1.54l.07 2.08q0 .75.1 1.5v.44c0 .63.08 1.25.1 1.87l.05 3.94v2.74l-.06.94a26 26 0 0 0 0 3.39l.26 3.07v.37l.3 4.1.07 2.48v4.66c-.1 2.1-.07 4.44.08 7.18l.06.83.1 2.68-.13 2.78v.1l-.05.85a27.63 27.63 0 0 0 0 2.93V244l.1 2.65a16.61 16.61 0 0 1-.07 1.88c0 .53-.07 1-.08 1.47a23.18 23.18 0 0 0 .18 3.18l.28 1.78H24l1 .07h.2l1.43.07h3.57c.47 0 .93-.06 1.4-.1h.43l1.5-.12h.7l1.27-.05 1.33-.15h.4l1.63-.16h.5l1.4.06.8.06h.54c.64 0 1.3.1 1.95.1h2.4c.6 0 1.23.08 1.84.13h.8l4.54.28 1.22-.07 2.12-.1h.53c.58 0 1.17.07 1.76.1h.62c.52 0 1 .07 1.53.08h3.95q.78 0 1.56 0l2 .1h.17l3.36.12h.12l3.52.1 2 .07 5.63.08h1.7l3.18.1 4.58.13c.83 0 1.67-.1 2.48-.15h4.06l2.36.07h.7l3.26.08h2.9l2.34.05h.68l5.46.18c2 0 4.16.2 5.87.34h.93l2.37.16h15.26l2.8.07 4.73-.18 3.8-.1h14.56l2.68-.13h.3l2.06-.1 1.27-.06h.1l3.52-.13h6.8l7.7-.33 3.82-.18 2-.08h.3l1.8-.08q1 0 2 0h11.18l3 .05h3.38l.07-.05h7.65q.93 0 1.86 0h1.12l2.37.07h.78l2.5.06 4.54-.18h.55l2.82-.06h3.15l7 .26h.87c.38 0 .74.07 1.1.08h1.95l3.65.05 2.62-.05h.38l1.74-.05h6.66l4.55.17 2.8.28c.73.1 1.64.16 2.66.2l6 .16 1.46.1h.55l3.24.17h1.3l.12-.87.18-1.42.06-.47v-3.48c0-.27 0-.53-.05-.8a8.18 8.18 0 0 1-.06-1.22v-2.4a10.81 10.81 0 0 0-.07-1.27l-.06-.34c0-.24-.07-.48-.1-.72a14.93 14.93 0 0 1-.11-2 31.46 31.46 0 0 1 .23-3.3l.08-.8.14-3.64v-1.26l-.07-2.37a30 30 0 0 1 0-3.8l.13-3.86.22-3.7v-.32l.18-2.9.1-4.32.06-3 .1-3.2v-.65l.1-3.15v-.85l.06-2.56v-.6a8.34 8.34 0 0 1 0-1.12c0-.55.08-1.1.13-1.63l.3-5-.08-3.66a34.72 34.72 0 0 1 0-3.57v-2.58l.1-4v-8.45l.07-2.25v-3.6l.05-3.75.06-1.32.1-2.45v-1.28l.1-5.83v-.57q0-3.4 0-6.8l-.1-4.13v-.65l-.07-2.48v-3.67l.05-1.12V127l.06-2-.06-2.26v-2.5l-.1-2.24v-4l.06-3-.07-3.7v-.94c0-.3 0-.5-.05-.75l-.07-1.94v-7.1l-.06-3.6.08-3.2v-1.44l.1-2.35v-3.82l-.1-3.6v-3.4a52.82 52.82 0 0 0-.31-5.58v-.28l.14-1.3-.07-.72a28.92 28.92 0 0 1-.18-3V57.3c0-.86-.1-1.66-.15-2.48l-.06-1c0-.28 0-.54-.05-.8v-1.33l-.08-1.6a24.49 24.49 0 0 1 0-3.54V46l.12-2.94-.08-2.22v-4.76c.06-1.1-.06-2.14-.13-3.17v-.3l-.16-3.76v-4.12a.31.31 0 0 0-.16-.06h-.36a5 5 0 0 0-.67-.05c-.86 0-1.63 0-2.37-.08H290c-.55 0-1.13 0-1.58-.08h-1.35c-.63 0-1.22-.08-1.8-.08h-5.4l-2 .1-.8.14h-.33l-.8.12a17.62 17.62 0 0 1-2.08.12h-.62c-.8 0-1.6-.1-2.4-.17l-2-.14c-.87 0-1.76-.05-2.63-.07h-2.58c-1.42 0-2.83-.08-4.25-.1-2.46 0-5-.12-7.75-.3l-3.7-.1h-4.88c-2.35 0-4.93-.1-6.47-.17h-.23l-1.35-.2-4.2-.22c-.55 0-1.1-.05-1.65-.06h-2.5l-4.6.07h-.5c-.8 0-1.75 0-2.8-.07h-.93l-3.06-.13h-.13l-5.37-.17h-5.65c-1 0-2-.05-3.05-.1l-1.6-.1h-.1l-2.3-.13-3.65-.06h-.62l-4.18-.08h-5.36c-1.15 0-2.44 0-4.06-.07H178l-2.45-.07c-1.4 0-2.7-.1-4.15-.2h-.57l-3.68-.17h-4.24l-2 .08h-.1l-2.43.1h-2.07c-1.5 0-3 0-4.2-.1h-2l-4.74-.07-3.88.07-3.82.06h-.56c-1.2 0-2.46-.06-3.3-.1H133l-5.2-.12-3.6.06-4.14.06c-1.8 0-3.34 0-4.62-.07l-4.28-.12h-2.53l-1.8.05h-2.05l-2 .08L98.4 22H97.2c-2.38 0-4.73-.1-7-.2h-.47l-4.86-.07h-4.75c-1.38 0-2.8-.06-4.2-.06l-3.1.05h-8.36l-4.32.07-2.32.1c-.77.1-1.3.07-1.94.1h-1.44l-3 .1H38.66l-4 .1h-.2c-1.08 0-2.4 0-4-.15h-.3l-7.58-.5zm18.7 31.18a19.82 19.82 0 0 1-.11-2.73 8.09 8.09 0 0 0 0-1.1v-.54l-.06-1.4v-.9a13.61 13.61 0 0 1 0-1.44 16.61 16.61 0 0 0 .1-2.4v-1.65a1.18 1.18 0 0 1 .68-.25h.7a3.23 3.23 0 0 1 .93.12 8.47 8.47 0 0 1 1 .32l1.28.48 1.6.48.22.07 2 .63 1.28.47.2.08 1.8.66.8.27h.1L57.2 45l3.76 1.47h.14l.53.18 2.23.82.84.35h.1l.15.06.87.36.8.3 1.3.5 1.93.85h.1l7.74 3.25.76.27h.15l2.13.78.36.13h.1l1.32.55 1.08.55a25.51 25.51 0 0 0 2.5 1.17l.54.18a1.1 1.1 0 0 1 .32.11l.18.06.5.2a4.88 4.88 0 0 1 .77.46 1.41 1.41 0 0 1 .49 1 1.74 1.74 0 0 1 0 .47v.35c0 .28.1.57.13.85a5.17 5.17 0 0 1 0 .54v1l.06-.12a.65.65 0 0 0 0 .18v2.06a12.84 12.84 0 0 0 .17 2v.1a5.69 5.69 0 0 1 .08.82v1.6a8.1 8.1 0 0 1-1.27.81l.26-.1a7.11 7.11 0 0 0-.91.49l-.3.17-.18.1h-.13l-.2.08a.25.25 0 0 0-.12 0 4.81 4.81 0 0 0-.88.47h-.07l-.2.1-.95.44-.9.37-.2.08-.7.3-1.2.54-.14.07-.65.3-2.48 1.06-.82.34-3.33 1.47c-.77.36-1.55.66-2.5 1l-.26.1h-.1l-1.24.5-1.14.5h-.1l-.2.1h-.28l-1.9.83-3.86 1.62-2.14 1.07-.08.05-.13.06-1.5.73c-.5.22-1.06.4-1.6.6l-.17.07-2.36.94-2 1h-.08l-1.75.92-2 .9-.45.18-1.22.52-.7.36h-.1l-.13.07-.13.06-.18.1a5.21 5.21 0 0 1-.47.24 13.77 13.77 0 0 1-2 .72v-1.57c0-.6-.07-1.17-.12-1.76v-.27c0-.45-.08-.87-.08-1.28v-.84a7.86 7.86 0 0 1 0-.84v-.74l.06-2.44a20.42 20.42 0 0 0-.06-2.5v-.85c0-.3 0-.57-.05-.85l-.1-.76v-.22a2.47 2.47 0 0 1 .36 0h.78l.16-.06.23-.1.55-.2h.1a7.72 7.72 0 0 0 .72-.29l.78-.33 1.12-.48.75-.38h.1l1.7-.83.92-.4h.1l1.7-.74.46-.23 1.54-.78 2.22-1-.1.4.18-.08h.13l1.88-.86 1.58-.85.17-.1.64-.35c.8-.44 1.7-.83 2.4-1.14l.48-.2 3.76-1.73-.15-.1-.12-.05-.6-.23h-.22l-.5-.2-1.1-.32h-.3l-1-.3-1.28-.4h-.08l-1.2-.38-.66-.46-.68-.22-.2-.07h-.08l-2.7-.92-.2-.05h-.14l-1-.37-.98-.46-.25-.1-2.2-.9-.76-.25a24.84 24.84 0 0 1-5-2.08l-.14-.08a22.41 22.41 0 0 0-2.48-1.36l-2.8-1.17h-.1zM97.82 90h2l3-.1h15.74c.54 0 1.08.06 1.62.1h1.15l3.42.1h.58l1.63.08c.54.08 1 .07 1.58.1h4.18v.95l.05 1.9-.16 4.1-.1 2.22c0 .32 0 .63-.06 1v.15c0 .45-.06.9-.08 1.36v.35l-.07 1.74-1.6.06h-2.65c-.9 0-1.78 0-2.67-.05-1.08 0-2-.06-2.8-.06h-1l-1.55.06h-6.5c-.73 0-1.46 0-2.28-.1h-.2l-1.34-.1c-.88 0-1.76-.05-2.64-.05H101l-.62-.06h-.27l-1.5-.12h-2.1l-2.8-.1h-6.05V89.9h1.08l1.16.07h.22c.5 0 1 .07 1.52.08h3.82l2.37.06z" fill="#2f345b"/></svg>