<svg xmlns="http://www.w3.org/2000/svg" width="231.995" height="238.248" viewBox="0 0 231.995 238.248">
  <defs>
    <style>
      .a {
        fill: #48578e;
      }

      .b {
        fill: #ececec;
      }

      .c {
        fill: #2f345b;
      }

      .d {
        fill: #fff;
      }
    </style>
  </defs>
  <g>
    <g>
      <path class="a" d="M14.048,0l-.192,0a19.252,19.252,0,0,0-2.711.2c-.429.065-.855.145-1.282.226-.479.09-.956.179-1.44.247C7.98.739,7.54.821,7.1.906c-.325.061-.65.122-.977.175a10.6,10.6,0,0,0-1.943.475A4.282,4.282,0,0,0,2.4,2.648,7.632,7.632,0,0,0,1.47,4.016c-.036.063-.076.123-.116.184a2.11,2.11,0,0,0-.174.289A3.6,3.6,0,0,0,.9,5.315a2.837,2.837,0,0,1-.083.31c-.156.338-.3.682-.441,1.026l-.2.482A1.468,1.468,0,0,0,.042,8.148a1.365,1.365,0,0,0,.644.832,1.342,1.342,0,0,0,.235.1c-.011.428.012.825.038,1.21l.023.4c.034.582.072,1.161.127,1.744.042.711.027,1.433.012,2.132l-.008.471c-.008.486.008.978.025,1.455.009.325.007.648,0,.971,0,.171,0,.345,0,.516v.3c0,.372,0,.743-.015,1.115l-.014.279c-.019.384-.038.771-.047,1.157-.008.431-.013.859,0,1.29l.007.218c.016.426.031.867.019,1.3-.026.8-.049,1.6-.06,2.4-.006.406-.021.809-.035,1.214-.019.5-.038.993-.038,1.489,0,.581.021,1.161.042,1.74l.023.642.011.392c.023.742.046,1.508.095,2.262.048.8.019,1.619-.009,2.409l0,.066c-.025.781-.032,1.56-.038,2.341l-.008.982c-.013,1.347-.026,2.739,0,4.109.015.957.015,1.736,0,2.456-.006.3-.016.595-.025.891-.017.526-.034,1.051-.032,1.577l.009.908c0,.6.01,1.2.01,1.8,0,.666-.019,1.331-.038,2l-.019.8c-.008.4,0,.811,0,1.216s.011.811,0,1.217c-.019.886-.019,1.617,0,2.3.048,1.508.046,3.043.044,4.527v.454c0,1.085.025,2.19.053,3.258.015.576.03,1.153.04,1.731s0,1.13-.008,1.7c-.007.3-.011.591-.013.887-.006.68.027,1.374.063,2.046l.026.519c.036.739.042,1.491.048,2.217.007.535.011,1.071.028,1.607.014.558.019,1.071.008,1.569-.008.342,0,.684,0,1.026,0,.306.006.615,0,.921-.021,1.389-.036,2.639,0,3.887.025,1.037.1,2.164.23,3.547.059.794.108,1.588.154,2.382l.019.317c.047.752.095,1.529.095,2.293v.486c0,.686,0,1.376.019,2.063.013.42.015.84.017,1.262,0,.4,0,.8.015,1.2.013.5.04,1,.068,1.5.023.428.046.859.061,1.29.027.808.017,1.624,0,2.388-.009.327,0,.654,0,.982l0,.122c0,.163,0,.323,0,.484,0,.232,0,.462.009.692.025.828.034,1.656.036,2.486v.259c0,.767,0,1.556-.024,2.336l0,.107c-.025.731-.053,1.489-.04,2.232l.019,1.1c.023,1.187.047,2.413.03,3.621-.011.748-.007,1.5,0,2.249,0,.441-.027.885-.054,1.313-.019.3-.04.608-.049.915-.025.8-.048,1.6-.055,2.394l0,.507c0,.678-.006,1.353-.032,2.029L1.738,129c-.042,1.235-.085,2.511-.156,3.763l-.034.583c-.08,1.317-.161,2.679-.144,4.016.007.692.049,1.393.089,2.073l.021.37c.049.815.025,1.649,0,2.453l0,.131c-.013.48-.008.963,0,1.445,0,.293.006.587.006.88,0,1.1-.031,2-.088,2.836-.022.295-.045.591-.068.884-.044.566-.091,1.132-.112,1.7s-.006,1.159.011,1.727c.006.222.012.446.017.67.012.726.014,1.452.019,2.179,0,.811.008,1.624.025,2.434.008.456.042.921.076,1.369.021.293.042.587.057.878.042.842.021,1.693,0,2.426-.053,1.55-.133,3.157-.243,4.776-.019.271-.046.541-.072.811s-.057.57-.076.857c-.029.433-.027.872-.025,1.3,0,.285,0,.57,0,.855-.011.412-.038.824-.066,1.233-.019.292-.023.583-.027.874l0,.351a20.608,20.608,0,0,0,.1,2.107c.05.724.074,1.381.072,2.008,0,.275-.009.551-.015.826-.007.376-.015.752-.013,1.127,0,.478-.011.955-.023,1.43l-.017.638a20.539,20.539,0,0,0,.11,2.187q.046.653.086,1.305c.042.65.085,1.3.138,1.953,0,.053.008.118.014.18l.011.137c.044.526.063.929.065,1.309,0,.351-.021.712-.042,1.06-.011.154-.021.306-.027.46a7.239,7.239,0,0,0,.128,1.466l.047.312c.032.226.067.45.106.674.042.274.086.547.124.819l.011.192c.017.27.031.549.071.815a6.154,6.154,0,0,0,.15.678c.03.11.059.22.085.329a6.621,6.621,0,0,0,.844,2.239A3.343,3.343,0,0,0,4,198.186c.171.108.344.213.524.31a3.52,3.52,0,0,0,.777.338,3.618,3.618,0,0,0,.678.11l.082.008a2.96,2.96,0,0,0,.559.083h.007a3.963,3.963,0,0,0,.447-.028c.068,0,.136,0,.2,0h.2c.19,0,.38-.019.57-.042a1.457,1.457,0,0,0,.192-.04c.3-.025.547-.049.8-.08.218-.021.439-.042.659-.061s.448-.051.686-.081l.216-.025c.219-.021.437-.051.656-.08.146-.019.292-.038.437-.055.235-.013.469-.019.7-.025.319-.009.636-.017.955-.041.167-.01.335-.014.5-.014.564,0,1.139.046,1.694.09.363.028.724.057,1.087.074.522.024,1.043.066,1.563.11l.405.034c.294.023.585.04.881.04a8.509,8.509,0,0,0,.944-.068c.219-.014.439-.031.658-.048l-.021,0c.224-.009.446-.017.67-.017h.3l.282,0a4.092,4.092,0,0,1,.459.021l.164.019a3.42,3.42,0,0,0,.351.036h.067l.161,0,.211,0,.087,0a9.811,9.811,0,0,1,1.283.117,1.336,1.336,0,0,0,.944.544c.161.011.321.015.484.015h.188a7.6,7.6,0,0,1,.918.106c.085.012.169.029.251.046a3.505,3.505,0,0,0,.693.091c.454,0,.813-.013,1.144-.038a5.214,5.214,0,0,0,1.052-.2c.161-.031.323-.057.488-.072.2.015.409.043.614.068.142.017.281.036.42.051a6.958,6.958,0,0,0,.737.033c.127,0,.254,0,.378,0,.4.013.8.064,1.187.112l.4.051a12.2,12.2,0,0,0,1.337.065c.156,0,.31,0,.467,0l.462,0c.249,0,.5.007.75.007h.291c.224,0,.443-.021.663-.038.11-.011.22-.019.332-.026.4,0,.791.009,1.186.015l.3.006.338,0c.308,0,.616-.007.922-.013l.342,0c.269.01.537.04.8.067.148.015.3.032.441.045.568.048,1.145.1,1.719.1a10.429,10.429,0,0,0,1.9-.163,8,8,0,0,1,1.24-.128c.361.01.724.046,1.077.082l.356.036c.349.032.655.048.938.048.213,0,.429-.008.644-.029a6.227,6.227,0,0,0,.767-.139c.133-.03.268-.06.4-.083a10.414,10.414,0,0,1,1.7-.154c.368,0,.733.008,1.1.017.448.008.9.019,1.343.019l.382,0c.37,0,.742.008,1.111.015l.743.014h.23c.355,0,.712-.01,1.067-.019l.576-.014c.41.008.82.038,1.229.067.363.026.729.053,1.092.066l.192.006c.359.013.718.023,1.077.023h.234c.2-.006.4-.015.6-.023.165-.006.329-.013.494-.017,1.075,0,2.158.108,3.208.211l.432.042c.342.032.7.049,1.1.049.6,0,1.212-.038,1.8-.074.373-.023.745-.046,1.119-.059.38,0,.76.008,1.142.015s.779.012,1.17.012l.378,0c.547-.006,1.1-.038,1.64-.067.283-.015.566-.032.851-.042.465,0,.929.014,1.394.029.34.011.682.021,1.022.028.9.012,1.812.063,2.72.149q.49.045.981.095c.587.06,1.172.119,1.759.163.706.053,1.423.068,2.12.082l.473.013c.619.015,1.24.021,1.858.027,1.185.013,2.412.026,3.613.108.7.045,1.4.112,2.091.178,1.173.111,2.388.228,3.589.238.317,0,.634,0,.95,0,1.007,0,1.78-.023,2.5-.076l.433-.033c.879-.066,1.787-.133,2.684-.159.568.009,1.142.047,1.7.085l.209.014c.914.062,1.626.091,2.306.091.855,0,1.723-.027,2.561-.053.551-.019,1.1-.035,1.655-.044q.7,0,1.394.011.608.006,1.216.006c.215,0,.429,0,.642,0l-.112-.006h.1c.342,0,.684-.009,1.026-.015s.7-.015,1.054-.019l.589,0h.608q.609,0,1.217.006c.361,0,.722.011,1.081.019s.722.017,1.081.021l.515,0q.627.011,1.254.011.4,0,.792-.006c.515-.011,1.028-.041,1.541-.07.311-.019.621-.036.934-.049.65,0,1.307.053,1.942.1l.309.023c.9.065,1.875.112,3.055.15.678.021,1.353.057,2.029.093,1.092.057,2.221.116,3.334.116l.4,0c.272,0,.547,0,.821,0h.613c.251,0,.5,0,.754,0,.451-.009.9-.024,1.351-.04.348-.013.695-.026,1.041-.032.946.006,1.907.057,2.836.108l.633.033c.7.034,1.4.057,2.1.081.674.021,1.345.042,2.017.076.891.042,1.837.063,2.888.063,1.468,0,2.961-.042,4.405-.082l.959-.026c.593.007,1.192.042,1.773.076.446.028.891.055,1.339.07.16,0,.323.006.483.006.535,0,1.079-.025,1.607-.048.37-.017.741-.034,1.111-.043l1.463.036c1.408.038,2.865.076,4.3.076.243,0,.486,0,.729,0l.388,0,.935,0,.984,0h.41l-.1-.013.11.013a.389.389,0,0,1,.059,0h.126l-.084-.012.091.012a1.452,1.452,0,0,0,.148.009,1.643,1.643,0,0,0,.185-.013l.953-.013.2,0h.7c2.008,0,4.143.017,6.234.209,1.224.112,2.318.167,3.344.167.216,0,.433,0,.648-.006.615-.015,1.238-.055,1.842-.091s1.222-.078,1.832-.091c.763-.006,1.523-.023,2.283-.04l.918-.019c.155,0,.309,0,.465,0l.543,0c.27,0,.54,0,.808,0,1.111,0,2.011.017,2.83.059.319.015.637.036.956.055.687.044,1.4.091,2.095.091.152,0,.3,0,.456-.007,1.142-.038,2.3-.156,3.419-.272,1.148-.121,2.337-.243,3.509-.275l.477,0c.247,0,.492.007.739.007.368,0,.735-.007,1.1-.023.7-.034,1.39-.06,2.087-.074.648,0,1.414.012,2.187.08.555.044,1.144.067,1.8.067.363,0,.726-.006,1.094-.016a19.452,19.452,0,0,0,2.151-.193l.532-.074c.532-.073,1.084-.147,1.616-.263a5.667,5.667,0,0,0,2.2-.927,5.559,5.559,0,0,0,1.318-1.457,8.473,8.473,0,0,0,.791-1.512,4.992,4.992,0,0,1,.277-.558l.059-.107a.9.9,0,0,0,.249-.3c.064-.122.123-.245.176-.372.025-.122.048-.24.067-.361l.089-.194.088-.2a1.269,1.269,0,0,0-.078-1.162c0-.439-.035-.88-.073-1.292a19.446,19.446,0,0,1,.164-3.171c.055-.511.11-1.022.146-1.535.053-.748.091-1.5.127-2.243l.029-.54c.032-.558.063-1.136.068-1.7.006-.786.019-1.63.078-2.475.021-.313.044-.625.067-.938.049-.627.095-1.254.123-1.883.013-.351.019-.7.025-1.052.007-.5.015-1.022.049-1.533l.012-.183c.053-.857.11-1.744.14-2.618.038-1.063.029-2.142.019-3.187-.009-.787-.015-1.577,0-2.367.019-1.134-.019-2.287-.057-3.4-.024-.752-.049-1.5-.057-2.251-.015-1.073-.013-1.949.008-2.764.009-.349.019-.7.032-1.045.019-.583.038-1.164.044-1.749,0-.466.021-.933.036-1.4.017-.514.032-1.025.036-1.538.006-.92.032-1.839.059-2.759l.036-1.28.036-1.271c.023-.7.008-1.406,0-2.093l-.007-.287c-.017-.939-.053-1.877-.088-2.816-.024-.659-.049-1.318-.068-1.979-.021-.766-.025-1.535-.027-2.3,0-.5.029-1,.057-1.491.016-.292.033-.583.044-.872.034-.868.04-1.584.017-2.255-.03-.877-.106-1.742-.178-2.475-.128-1.712-.143-3.423-.147-5.321,0-.6.031-1.216.065-1.807.015-.264.028-.53.04-.794.026-.549.038-1.1.051-1.647.008-.355.017-.708.029-1.062.053-1.6.034-3.324-.061-5.583-.055-1.343-.086-2.684-.118-4.027l-.038-1.535,0-.167c-.021-.806-.045-1.638-.036-2.46,0-.439,0-.876,0-1.315,0-.292,0-.585,0-.876,0-.592-.023-1.2-.049-1.78l-.023-.562c-.027-.667-.032-1.328-.034-2,0-.61.043-1.229.087-1.826l.015-.207.031-.384a14.063,14.063,0,0,0,.07-1.7c-.061-1.556-.192-3.127-.332-4.732-.063-.809-.122-1.6-.128-2.39,0-.492,0-.982,0-1.474,0-.528,0-1.058-.005-1.586-.008-.853-.042-1.7-.074-2.555l-.019-.475c-.019-.585-.012-1.182-.006-1.757l.006-.658c0-.948-.069-1.907-.141-2.836-.057-.729-.116-1.485-.135-2.23-.019-.768-.019-1.535-.019-2.3,0-.924,0-1.879-.034-2.818-.025-.617-.068-1.234-.11-1.848-.05-.737-.1-1.5-.122-2.251s-.009-1.5,0-2.236c.006-.42.015-.84.015-1.26,0-2.171-.03-5.032-.315-7.9a7.959,7.959,0,0,1-.03-1.084c.011-.223.032-.445.051-.667.019-.207.038-.414.049-.623.044-.764.036-1.543.027-2.3l0-.289,0-.309c-.013-.779-.026-1.583.025-2.369.038-.58.118-1.167.194-1.737.034-.252.068-.505.1-.759a20.881,20.881,0,0,0,.109-2.263l0-.158c.012-.864.021-1.643-.017-2.416-.017-.346-.04-.693-.064-1.039-.031-.469-.065-.937-.08-1.406-.019-.6-.027-1.2-.036-1.8l-.015-.9-.012-.735c-.019-.9-.038-1.839-.011-2.762.017-.618.049-1.235.08-1.854.03-.566.057-1.134.076-1.7.013-.41.009-.822.007-1.234l0-.58c0-.644.023-1.288.044-1.932.021-.585.025-1.075.015-1.544s-.055-.958-.1-1.423c-.044-.652-.073-1.345-.09-2.118-.007-.272-.015-.544-.022-.815-.018-.6-.035-1.2-.031-1.8l0-.185c.008-1.329.019-2.7.114-4.046l.013-.188a12.393,12.393,0,0,0,.046-1.683,7.2,7.2,0,0,0-.144-1.1c-.069-.314-.135-.629-.185-.948-.091-.578-.19-1.085-.309-1.55-.109-.435-.232-.848-.371-1.258l-.013-.051c-.048-.143-.1-.287-.156-.424a3.454,3.454,0,0,0-.376-.629,2.665,2.665,0,0,0-.973-.79l-.062-.025h.007a1.334,1.334,0,0,0-.672-1.354,1.71,1.71,0,0,0-.728-.205c-.042,0-.085-.006-.127-.008l-.063,0c-.131-.007-.264-.011-.4-.013l-.074,0c-.217-.007-.435-.013-.652-.013-.1,0-.207,0-.311,0-.2.007-.4.017-.6.026-.165.008-.332.017-.5.021l-.433.008c-.287,0-.576.007-.865.023l-.11.009c-.361.021-.718.042-1.081.044l-.1,0c-.161,0-.322,0-.478-.01h-.076c-.145,0-.293-.007-.439-.007-.118,0-.239,0-.357.007l-.376.021c-.228.015-.456.029-.686.032l-.186,0c-.316.008-.633.015-.95.027s-.638.042-.954.07c-.452.038-.921.076-1.381.08l-.4.007c-.405,0-.811.01-1.218.01-.353,0-.706,0-1.058-.017-.583-.017-1.166-.019-1.748-.021l-.7,0-.392,0c-.211-.005-.425-.007-.636-.007h-.249c-.346.007-.7.038-1.039.07l-.414.034c-1.455.12-2.941.129-4.379.135l-.69,0-.079,0c-.648,0-1.309-.05-1.946-.1-.326-.025-.651-.051-.974-.07-.34-.017-.678-.023-1.015-.023s-.7.006-1.054.013l-.676.01-1.182.017c-.657.009-1.314.019-1.972.023l-.53,0c-.809,0-1.618-.013-2.424-.024l-.425-.008-.46,0c-.376,0-.748-.007-1.121-.028-.49-.025-.982-.063-1.472-.1-.76-.061-1.531-.068-2.278-.074l-.277,0c-.336,0-.674-.005-1.011-.005-.839,0-1.525.015-2.16.049-.484.027-.97.046-1.453.063-.555.021-1.111.043-1.664.076-1.273.083-2.245.123-3.152.127l-.081,0c-.268,0-.534-.006-.8-.01s-.534-.011-.8-.011c-.549,0-1.1.017-1.647.034l-.41.015c-.329.012-.659.023-.99.023h-.057l-.441,0c-.254,0-.5-.005-.756-.005-.157,0-.313,0-.471,0-.644.015-1.29.024-1.934.032l-.771.009c-.857.012-1.727.059-2.57.1-.965.051-1.963.106-2.95.106-.907,0-1.815.017-2.723.04-.216.006-.433.015-.649.023-.409.017-.817.032-1.224.032-.279,0-.558-.007-.836-.028-.362-.023-.72-.065-1.079-.1l-.381-.045c-.5-.055-1-.088-1.507-.124l-.118-.009c-.4-.025-.83-.038-1.324-.038-.45,0-.9.011-1.354.021l-.348.007c-.211.006-.422.008-.634.008-.905,0-1.828-.04-2.719-.076s-1.812-.078-2.72-.078c-.98,0-2-.036-3.036-.108-.969-.067-1.932-.074-3-.074h-.385c-.532,0-1.062.015-1.592.028-.485.013-.971.023-1.459.025l-.534,0c-.695,0-1.611-.006-2.54-.057-.777-.04-1.556-.061-2.334-.08l-.859-.025c-1.077-.032-2.037-.049-2.933-.049-.865,0-1.731.023-2.6.045s-1.733.044-2.6.044c-.323,0-.646,0-.969-.011-.864-.019-1.783-.067-2.975-.154l-.56-.04c-.811-.061-1.651-.127-2.483-.127l-1.052.007c-.684,0-1.368.006-2.054.006-.853,0-1.721.032-2.559.059l-.518.017c-.392.013-.787.032-1.18.051-.6.027-1.206.055-1.81.061-.154,0-.308,0-.462,0-.264,0-.53,0-.794-.006h-.143c-.239,0-.478,0-.716,0-.285,0-.572,0-.858.01-.462.015-.924.04-1.387.064-.534.027-1.066.054-1.6.067-.266.009-.532.011-.8.013s-.535,0-.8.01q-.365.01-.726.03c-.243.01-.486.023-.728.027L93,1.51c-.747.021-1.494.042-2.242.042-.851,0-1.715.051-2.551.1l-.754.04c-1.29.07-2.685.1-4.389.1-.611,0-1.219,0-1.829-.011-.7,0-1.415-.038-2.105-.07l-.75-.035-.646-.03c-.308-.017-.618-.032-.929-.042-.169,0-.342-.007-.513-.007-.414,0-.828.013-1.241.024-.8.025-1.6.033-2.4.033l-.621,0c-.257,0-.515-.012-.773-.025s-.542-.023-.815-.025h-.386c-.323,0-.648,0-.971-.009-.53-.008-1.06-.038-1.59-.067-.471-.028-.942-.055-1.413-.068-.783-.017-1.569-.027-2.354-.027-.317,0-.634,0-.952,0-.925.01-1.867.059-2.775.1l-.258.013q-.357.019-.717.019c-.3,0-.6-.011-.9-.032-.49-.036-1-.076-1.5-.078H56.5c-.207,0-.416,0-.625,0s-.42,0-.632,0c-.28,0-.563-.007-.844-.015s-.564-.015-.847-.015l-.306,0-.975,0c-.5,0-.995,0-1.491-.019-.444-.012-.891-.044-1.337-.076l-.192-.014c-.2-.015-.4-.017-.595-.017l-.3,0h-.3l-.428,0H47.2c-.235,0-.469,0-.7,0-.307,0-.611,0-.917-.01-.376-.007-.751-.007-1.127-.007-.573,0-1.164,0-1.744-.029q-.755-.036-1.508-.064c-.5-.021-1-.04-1.506-.065-.848-.04-1.693-.1-2.538-.154L36.643.963,35.79.906C35.034.855,34.276.8,33.52.769,32.984.748,32.446.741,31.909.741l-.785,0-.6,0c-.988,0-1.974,0-2.96.017-.234,0-.469.015-.7.026-.218.01-.435.021-.655.023l-.217,0c-.353,0-.71-.021-1.06-.042-.682-.042-1.36-.095-2.04-.148L22.084.562C21.337.505,20.592.452,19.844.4,18.632.308,17.418.22,16.206.118l-.5-.042c-.224-.019-.448-.04-.67-.057C14.836,0,14.629,0,14.426,0c-.125,0-.251,0-.378,0ZM18.231,184.86l-.063,0-.074,0c-.247-.019-.5-.038-.744-.053l-.154-.006-.177-.038c-.072-.425-.142-.858-.2-1.29a17.579,17.579,0,0,1-.131-2.306c.009-.34.032-.68.059-1.062a13.574,13.574,0,0,0,.053-1.364c-.015-.642-.044-1.282-.076-1.922l-.036-.728-.017-.38a20.979,20.979,0,0,1-.029-2.122l.036-.619,0-.061c.042-.64.082-1.324.1-2.015.015-.612-.021-1.216-.07-1.942l-.038-.6c-.107-1.985-.126-3.687-.059-5.2.044-.863.032-1.748.015-2.58l-.009-.621,0-.179c-.008-.6-.019-1.2-.046-1.8-.042-1-.137-2.042-.222-2.969l-.008-.082-.007-.064-.006-.063-.006-.061c-.07-.739-.138-1.48-.19-2.222a20.238,20.238,0,0,1-.028-2.455c.015-.228.03-.454.047-.682l.019-.266.025-.4c.019-.325.021-.654.021-.984l0-.329c.011-1.049,0-2.01-.036-2.859-.012-.45-.04-.9-.069-1.355l0-.062-.007-.088-.013-.167c-.025-.361-.048-.724-.067-1.086-.025-.5-.036-1-.044-1.5l0-.152c0-.323-.01-.644-.019-.967q-.043-1.485-.114-2.971c-.069-1.645-.135-3.4-.084-5.249.013-.431.036-.862.061-1.29l.013-.22c.017-.317.034-.633.044-.95.034-.889.034-1.8,0-2.781-.019-.676-.036-1.349-.053-2.025q-.041-1.733-.1-3.465l-.021-.785c-.014-.577-.031-1.153-.057-1.73-.014-.333-.031-.665-.052-1l-.009-.183c-.027-.494-.053-.989-.068-1.485l-.023-.9,0-.072,0-.093,0-.112c-.036-1.4-.068-2.766-.049-4.1.043-1.875-.061-3.708-.16-5.48l-.006-.095-.005-.107,0-.066c-.078-1.554-.169-3.317-.15-5.038.017-1.062.083-2.132.146-3.211.044-.727.087-1.451.116-2.179.04-.815.042-1.711.011-2.737-.019-.876-.021-1.727-.009-2.677l.032-1.573.01-.461c.017-1.053.036-2.1.043-3.158.01-.822-.028-1.65-.066-2.427l0-.069,0-.057-.013-.277c-.044-.912-.046-1.771-.044-2.722q0-1.038-.009-2.077l0-.288v-.39c0-.811-.008-1.751.009-2.648l.033-1.427.011-.494c.025-1.158.049-2.315.061-3.474l.011-1.081.013-1.461c0-.378,0-.748,0-1.164v-.2l0-.192c-.006-.416-.01-.83-.01-1.246,0-1.322.042-2.753.073-3.9l0-.072.009-.293,0-.074v-.066l.03-.986.01-.371.011-.383c.019-.641.036-1.281.046-1.921.017-.908-.008-1.829-.038-2.77-.04-1.407-.017-2.893,0-4.088V46.24l0-.082.017-.978c.017-1.1.019-2.194.021-3.355q0-.974.009-1.947c.006-.838.01-1.677,0-2.517s.013-1.683.063-2.6c.07-1.128.123-2.319.161-3.647.021-.585.031-1.167.04-1.75l.008-.327c.007-.414.015-.826.028-1.24.01-.258.031-.517.057-.792.017-.181.034-.363.042-.545a11.8,11.8,0,0,0-.013-1.642c-.008-.121-.021-.241-.036-.361l-.014-.135-.009-.083a8.643,8.643,0,0,1-.061-.929,15.277,15.277,0,0,1,.108-1.607l.088-.635.146-1.037.025-.175a6.146,6.146,0,0,0,.085-.845,6.356,6.356,0,0,0-.165-1.336,12.972,12.972,0,0,1,.11-2.137l.036-.036c1.579.137,3.427.262,5.492.371l.211.013c1.168.074,2.118.108,2.9.108h.15c1.058,0,2.071-.042,2.939-.083.385-.016.769-.023,1.155-.023.3,0,.608.007.969.013H30.4l.707.01c1.045.009,2.059.017,3.07.03l.665.006.311.005q.63.009,1.26.01c.275,0,.547,0,.82-.006.736-.013,1.469-.038,2.2-.066l.274-.01.765-.028c.469-.017.937-.042,1.406-.069.56-.032,1.119-.062,1.681-.074,1.045-.026,2.088-.045,3.133-.047.575,0,1.149.007,1.744.013H48.7l.141,0,.467,0c.467,0,.931.007,1.4.007q1.026,0,2.048-.03c.733-.023,1.472-.036,2.257-.036,1.024,0,2.048.023,3.049.047l.175,0,.361.006.212,0h.067c.731.017,1.461.019,2.192.019H61.5c1.153,0,2.346,0,3.518.047l.219.008.123.007c1.649.069,3.353.141,5.072.141.285,0,.572,0,.857-.006,1.077-.015,2.154-.032,3.23-.057.473-.011.951-.034,1.432-.059l.192-.011.351-.019.055-.011.3-.017.281-.014.3-.019c.391-.021.817-.034,1.309-.034.383,0,.761.008,1.16.019l.278,0,.123,0,.276.007q1.553.034,3.1.086c.925.038,2.051.055,3.345.055,1.094,0,2.1-.015,3-.046.917-.028,1.8-.043,2.619-.043,1.186,0,2.451.03,3.76.087l.365.017.055,0,.19.009c.6.031,1.51.071,2.384.076h.408c1,0,1.9-.015,2.768-.049,1.109-.032,2-.046,2.808-.046.91,0,1.941.014,3.44.048l.365.011.363.01.362.011.361.01c.844.032,1.955.068,3.038.068q.75,0,1.5-.028c.577-.021,1.153-.048,1.765-.078l.066,0c.473-.023.94-.044,1.41-.063s.938-.025,1.407-.025c.555,0,1.11.008,1.663.021.841.019,1.671.063,2.669.12l.095,0,.167.009.15.008c1.041.068,1.987.125,3,.144.593.01,1.186.027,1.78.044l.095,0,.114,0,.118,0,.137,0c1.17.034,2.105.048,2.942.048.325,0,.65,0,.973-.008.184,0,.365-.006.547-.006.618,0,1.237.017,1.856.033l.5.013c1.012.025,2.021.042,3.032.057l.448.007c.881.01,1.763.023,2.644.046.536.015,1.081.051,1.659.091l.085,0c.386.027.775.055,1.161.076.737.036,1.472.057,2.209.076l.967.03c.344.01.688.012,1.032.012.309,0,.615,0,.957-.006l.143,0,.357,0c.214,0,.425,0,.64,0,1.32,0,2.623.064,3.894.125l.091,0c.741.036,1.48.07,2.221.093l.671.023c.765.034,1.451.051,2.038.051l.363,0c1.092-.015,2.185-.034,3.328-.057.078,0,.154,0,.232,0,.207,0,.412.006.648.015l.131,0h.112l.311.01.369.007c.4.008.8.016,1.2.042,1.014.061,2.025.12,3.041.16l1.077.042.162.009c1.117.046,2.986.122,4.69.124h.243c.388,0,.777,0,1.163-.006l.387,0,.088,0,.418,0c.41,0,.824-.009,1.236-.009.933,0,1.782.023,2.671.068,2,.127,3.836.194,5.621.211,1.026.01,2.052.042,3.08.074l.488.015c.332.008.663.014,1.022.021l.353.008c.631.011,1.281.021,1.906.049.469.025.932.061,1.436.1.583.047,1.166.091,1.746.118.152.007.3.009.45.009A12.214,12.214,0,0,0,200,17.842c.182-.017.363-.048.576-.086l.085-.015.089-.017.069-.013c.192-.036.385-.071.579-.1.585-.044,1.039-.065,1.429-.065.127,0,.251,0,.378.006l.509.019.148.008c.4.015.8.028,1.206.028.283,0,.565-.006.878-.017.236-.006.469-.013.7-.013l.076,0c.418,0,.842.028,1.3.057l.152.009.128.008.188.015.161.013.2.014L209,17.7c.326.03.748.063,1.149.063h.116c.171,0,.34-.012.532-.025l.3-.015c.076,0,.152-.006.23-.006.23,0,.463.015.691.029.534.03,1.095.049,1.714.057.165,0,.325.017.486.034l.264.026a.281.281,0,0,1,.118.042l.021.376.021.306c.023.435.019.861.015,1.275v.078c0,.317-.009.634,0,.95.021.987.059,1.878.118,2.722l0,.2c.049.752.1,1.529.093,2.3-.015.8,0,1.675.034,2.593l.017.441.017.419c.023.536.046,1.074.057,1.611.008.679-.038,1.383-.089,2.128l0,.091,0,.067-.019.262A17.784,17.784,0,0,0,214.9,36.3l.059,1.155.019.39.015.3.014.283c.009.192.022.382.036.583l.049.751c.04.6.08,1.2.1,1.8.024.629.017,1.246.011,1.85,0,.232,0,.462,0,.692l0,.828c0,.551,0,1.1,0,1.656a18.62,18.62,0,0,0,.131,2.193l.048.524.085.916.008.091.008.11a37.037,37.037,0,0,1,.222,4.044l-.006.261,0,.1,0,.118,0,.14,0,.152c-.008.525-.021,1.123-.006,1.689.014.853.042,1.71.071,2.614.03,1.047.038,1.949.026,2.762-.011.557-.036,1.115-.064,1.7l-.006.181-.034.7-.006.144c-.032.716-.068,1.526-.055,2.32q.022,1.308.038,2.614c.006.522-.006,1.035-.027,1.647-.009.309-.015.615-.019.923-.019.76,0,1.558.023,2.2l0,.074,0,.1,0,.087,0,.135c.01.469.027.935.048,1.4.009.182.021.363.036.545.017.226.034.452.04.68l0,.074c.03,1.043.053,1.8.051,2.607,0,.718-.023,1.438-.042,2.156l0,.11,0,.112,0,.125,0,.135,0,.143,0,.163c-.01.688-.023,1.394-.014,2.086,0,.528.033,1.092.067,1.624l.013.226c.012.226.025.454.036.68l.021.511,0,.061.006.173.007.167c.019.494.044,1.077.044,1.638,0,.463-.023.923-.049,1.457l-.006.15,0,.059,0,.074q-.022.406-.038.811c-.038.762-.049,1.63-.032,2.656.006.6.028,1.191.051,1.8l.01.258,0,.067,0,.146c.038,1.024.072,2.023.063,3-.023,1.637-.025,3.273-.027,4.92v.408c0,1.378-.045,2.825-.085,4.225l-.006.274-.006.214,0,.177-.006.228c-.019.593-.049,1.182-.078,1.771l-.044.963c-.038.775-.051,1.639-.043,2.718l0,.477c.007.709.013,1.417,0,2.128-.007.543-.028,1.086-.051,1.628l-.011.245c-.01.254-.019.511-.025.767-.042,1.142-.027,2.253-.013,3.328l0,.086,0,.093,0,.112c.006.5.012,1,.015,1.5,0,1.009-.036,2.061-.07,2.9l-.007.216,0,.076-.006.177-.019.477-.013.309-.008.2c0,.136-.008.273-.011.408a25.507,25.507,0,0,0,.028,2.589c.055.918.074,1.811.057,2.654-.032,1.275-.129,2.553-.22,3.634-.038.392-.072.785-.1,1.178-.023.272-.023.543-.021.817v.429c-.009.618-.023,1.239-.038,1.858l-.015.618c-.019.761-.044,1.523-.07,2.283l-.014.469c-.026.773-.051,1.547-.07,2.318-.019.731-.032,1.461-.044,2.2-.017,1.04-.036,2.084-.072,3.127-.028.677-.078,1.374-.131,2.105l-.009.112-.008.12c-.067.862-.137,1.753-.156,2.669-.021.891-.047,1.845-.093,2.8a20.983,20.983,0,0,0,0,2.749c.029.56.042,1.138.052,1.723l0,.152,0,.131.008.623c.011.94-.044,1.862-.1,2.641l-.059.585a22.266,22.266,0,0,0-.167,2.4,11.093,11.093,0,0,0,.078,1.436c.019.171.047.344.076.519l.038.249a6.263,6.263,0,0,1,.051.919c0,.361-.011.722-.025,1.081q-.016.328-.024.654a6.181,6.181,0,0,0,.043.887c.016.192.031.384.04.577.014.416.008.829,0,1.26l0,.194,0,.3,0,.108,0,.108c0,.179,0,.359-.01.538l-.045.34-.133,1.028-.084.634-.454.017-.49.019c-.737,0-1.5-.061-2.346-.129l-.194-.017-.2-.017c-.352-.027-.7-.053-1.058-.069-1.353-.07-2.6-.093-4.343-.121a19.02,19.02,0,0,1-1.926-.133c-.528-.074-1.153-.137-2.029-.207-1-.082-2.082-.122-3.294-.122q-.647,0-1.3.012c-.222,0-.442,0-.663,0l-.469,0c-.8,0-1.6,0-2.4.016l-1.264.034-.277.007c-.631.016-1.263.033-1.894.04l-.1,0c-.769,0-1.626-.015-2.549-.041l-.84-.031-.131,0-.125,0-.32-.012c-.264-.009-.526-.034-.8-.062l-.086-.006-.163-.017-.068-.006-.257-.021c-1.529-.127-3.229-.188-5.051-.188-.209,0-.418,0-.629,0l-.235-.008-.359,0c-.354,0-.711-.006-1.066-.006-.792,0-1.442.015-2.042.046l-.4.022c-1.338.067-2.288.114-3.291.13-.611,0-1.248-.021-1.808-.04l-.188,0-.2-.006-.182-.007c-.57-.021-1.142-.042-1.714-.052-.271,0-.539-.011-.811-.019-.45-.013-.9-.026-1.347-.026-.59,0-1.181.013-1.806.028l-.819.015-.528,0c-.73.006-1.465.012-2.217.012l-.1-.008h-.074l-.053.04c-.12,0-.243,0-.365,0-.4,0-.8,0-1.235.01l-.117,0-.139,0-.471.006-.118,0c-.724,0-1.436-.019-2.188-.04l-.128,0-.161,0c-.616-.017-1.235-.021-1.883-.023-.378,0-.761,0-1.145-.011-.405,0-.813-.006-1.218-.006l-1.088,0-.772,0-.853,0-.854,0c-.485,0-.969,0-1.454.019-.437.014-.875.033-1.318.057l-.217.008c-.492.023-.984.044-1.478.057-.967.023-1.939.08-2.762.135-1.89.11-3.74.211-5.589.235-.431,0-.862,0-1.291,0-.375,0-.751,0-1.127.007-.579.006-1.183.015-1.784.025l-.727.011c-.787,0-1.531.04-2.548.1l-.064,0-.924.044c-.482.024-.963.051-1.489.083l-.218.012c-.637.038-1.3.074-1.942.091-.771,0-1.546.013-2.319.025l-.308,0c-1.151,0-2.306-.013-3.458-.036-.243,0-.488-.007-.731-.007-.615,0-1.229.013-1.843.028-.429.01-.858.019-1.288.023l-.611,0c-1.115,0-2.014.019-2.749.063-1.1.049-2.263.1-3.427.127-.675-.011-1.353-.03-2.031-.049l-.486-.014c-.329-.009-.661-.017-.992-.024-.095,0-.192,0-.289,0-.277,0-.556.007-.877.017l-.143.007q-.339.012-.678.018l-.492.011q-.738.017-1.476.025l-.226,0-.646,0h-.08l-.363,0-.328,0-.285,0c-.481,0-.963-.009-1.444-.009l-.576,0-.478,0q-.61,0-1.224-.017c-.575-.023-1.153-.07-1.715-.114l-.146-.011-.093-.008-.175-.017-.257-.026c-1.238-.1-2.777-.236-4.255-.244-1.311-.007-2.658-.068-3.959-.129l-.082,0-.136-.007-.274-.015c-.463-.025-1-.035-1.7-.035-.582,0-1.169.008-1.784.021l-.323,0c-.842-.008-1.769-.04-2.363-.061l-.217-.007-.287-.01c-.571-.021-1.138-.04-1.711-.051l-.226,0c-.34-.006-.682-.013-1.022-.013-.534,0-.952.013-1.315.043l-.186.014-.194.013c-.589.044-1.2.089-1.8.11-.976-.006-2.133-.023-3.319-.095-.752-.049-1.506-.072-2.3-.072-.412,0-.823.006-1.237.017-1.493,0-2.792-.021-4.082-.057-.473-.013-.946-.032-1.419-.051-.855-.038-1.693-.072-2.55-.072h-.085c-.828,0-1.645-.044-2.434-.084l-.123-.006c-.485-.026-.973-.051-1.461-.07-.376-.013-.754-.017-1.132-.017-.4,0-.8,0-1.252.013-.281,0-.562.017-.842.034l-.121.006-.164.008-.239.011-.241.01c-.367,0-.728-.029-1.106-.057l-.055,0-.156-.01-.093-.007-.146-.012c-.426-.034-.853-.066-1.279-.083-.127,0-.254-.006-.383-.006-.5,0-1,.032-1.539.066-.293.019-.589.038-.883.05-1.152-.027-2.386-.131-3.287-.2l-.055,0-.1-.008-.146-.011-.146-.013-.133-.01c-.443-.036-.887-.072-1.33-.093-.2-.008-.4-.013-.6-.013-.258,0-.517.007-.775.013l-.372.006c-.46-.006-.946-.038-1.412-.069l-.139-.009-.127-.008-.121-.009-.582-.042c-.309-.021-.668-.044-1.024-.044-.117,0-.233,0-.349.008-.38.015-.779.066-1.184.116l-.1.013-.2.025c-.321.043-.64.083-.965.108-.306.023-.612.032-.921.04l-.09,0-.427.009a10.638,10.638,0,0,0-1.094.091l-.076.008-.063.006-.084.009-.083.006c-.352.038-.686.074-1.022.085-.169,0-.338,0-.507,0h-.884l-.646.014-.074,0-.48.012c-.342-.006-.679-.031-1.032-.057Z"/>
      <path class="a" d="M1.948,184.605a1.463,1.463,0,0,0-.534.868,4.963,4.963,0,0,0-.144,1.3c-.011.2-.019.393-.017.588a3.393,3.393,0,0,0,.127.809c.052.213.129.421.194.632a5.37,5.37,0,0,1,.068.922l.012-.351c-.007.192,0,.382,0,.572-.012.135-.023.269-.031.405l.007-.174c-.017.23-.055.437-.055.675,0,.061,0,.123,0,.184a1.132,1.132,0,0,0,.039.306l0,.038a3.851,3.851,0,0,0-.024.56c0,.063,0,.124,0,.188a1.628,1.628,0,0,0,.047.318c.006.038.011.075.014.113,0,.069-.01.137-.013.206-.005.042-.012.084-.021.125a1.761,1.761,0,0,0-.033.26c-.015.185-.028.37-.026.557,0,.09.024.178.033.269s-.005.171,0,.257a1.246,1.246,0,0,0,.062.332c.01.137,0,.273.018.411a3.835,3.835,0,0,0,.142.548l0,.021a5.224,5.224,0,0,0-.01.708,3.509,3.509,0,0,0,.3,1.016,6.74,6.74,0,0,0,.488,1.022c.086.147.219.261.314.4a1.589,1.589,0,0,0,.214.321c.093.1.193.2.293.3a1.855,1.855,0,0,0,.724.546,2.808,2.808,0,0,0,.4.113,8.186,8.186,0,0,0,1.275.484,5.955,5.955,0,0,0,.6.095c.092.013.183.032.276.04a1.621,1.621,0,0,0,.467,0,.742.742,0,0,1,.084-.01c.257.011.513.01.771.008.2,0,.4-.05.6-.059.381.018.76.026,1.143.019.215,0,.424-.053.64-.065.251-.015.509-.026.758-.022l-.171-.008c.228.006.451,0,.68-.011.134-.006.266-.031.4-.038s.258.009.387.011c.327.03.651.094.977.125.428.04.851.084,1.281.1l-.35-.013c.3.017.595.028.893.04l-.35-.012c.433.023.863.055,1.3.069l-.35-.012c.346.019.692.04,1.038.054l-.111,0c.5.03,1,.072,1.506.094l-.125,0,.139,0,.159.006,1.036.035-.225-.008c.28.01.558.013.837.017l-.35-.013c.245.009.49.016.735.023.29.011.581.015.873.02l.294.013h-.021l.085,0,.062,0c.415.016.829.026,1.245.032.179,0,.361,0,.542-.006.2,0,.393-.01.59,0l.185,0c.49.024.977.064,1.467.083l-.21-.007c.57.029,1.142.078,1.714.078.209,0,.418,0,.627,0,.268,0,.536,0,.8,0,.152.006.305.012.458.016.436.015.869.024,1.308,0,.382-.021.76-.027,1.143-.023.775.041,1.546.11,2.323.128.112,0,.225.008.337.012.454.023.909.044,1.364.052.357,0,.722-.03,1.079-.049.219-.013.443-.006.667,0,.144,0,.289.006.435,0,.4,0,.8.007,1.2.007l-.032,0,.571.016-.349-.012a23.693,23.693,0,0,0,2.87-.072c.568-.047,1.142-.059,1.712-.08.524-.019,1.048-.042,1.571-.034.779.047,1.557.094,2.34.074.348-.011.694-.03,1.043-.043.215-.006.432,0,.648,0,.177,0,.357.005.534,0,.707-.014,1.415,0,2.122-.021.639-.013,1.28-.033,1.92-.025.516.03,1.03.089,1.547.12.654.04,1.308.048,1.963.066l.437.017-.075,0c.586.034,1.17.073,1.756.1l-.151-.006.156.006.194.007-.15,0c.834.027,1.668.019,2.5.013.545-.006,1.09-.01,1.635-.006.648.006,1.29-.023,1.936-.063s1.3-.045,1.946-.03l.46.014c1.532.055,3.064.066,4.6.052,1.683-.015,3.367-.1,5.05-.061,1.049.057,2.1.133,3.145.194.671.038,1.345.046,2.016.057.281.006.564,0,.847-.007.319-.006.638-.012.958,0l-.35-.013c.4.016.8.027,1.2.037.584.024,1.165.038,1.748.039.213,0,.426,0,.639,0,.36,0,.72,0,1.081,0,.986.044,1.973.086,2.959.087.475,0,.948,0,1.423-.006s.969-.044,1.455-.061c.969-.032,1.936-.015,2.905-.04.923-.026,1.852-.02,2.776.009l.7.025c.6.025,1.207.034,1.812.052.264.01.528.018.792.026.791.028,1.58.041,2.371.052.868.013,1.738-.057,2.606-.084.646-.019,1.292-.082,1.938-.091.874-.008,1.749.015,2.623.042h0c.743.024,1.485.024,2.228.015.412-.006.824-.038,1.236-.053.365-.014.73,0,1.095,0,.668.012,1.337,0,2,0,.684,0,1.371-.042,2.055-.016l-.1,0c.427.013.855.015,1.282.023.946.049,1.886.171,2.835.147.511-.012,1.022-.078,1.531-.122.565-.047,1.129-.1,1.7-.144.543-.042,1.092-.071,1.636-.09s1.1-.1,1.65-.174c.477-.063.952-.154,1.427-.221a9.449,9.449,0,0,1,1.446-.082,8.8,8.8,0,0,0,2.019-.072,1.6,1.6,0,0,0,1.282-.862,1.4,1.4,0,0,0,.107-.765c.351-.044.7-.073,1.056-.1.522-.038,1.039-.025,1.56-.09s1.039-.193,1.554-.311l.353-.082a1.351,1.351,0,0,0,.37-2.314,1.283,1.283,0,0,0-.976-.294c-.443.1-.885.2-1.334.273a11.331,11.331,0,0,1-1.373.114c-.456.017-.908.044-1.36.093-.411.042-.821.126-1.231.183-.83.116-1.661.171-2.491.279a17.494,17.494,0,0,1-2.305.2c-.372-.02-.743-.051-1.116-.062a1.574,1.574,0,0,0-.585.129,1.4,1.4,0,0,0-.874,1.06,1.414,1.414,0,0,0-.007.426c-.815.044-1.628.13-2.442.182-.785.051-1.56.159-2.345.155-.494-.033-.984-.1-1.481-.121-.625-.025-1.25-.032-1.875-.044l.148,0c-.707-.023-1.411-.014-2.118,0-.446.011-.891.009-1.335.009-.224,0-.445,0-.667,0-.34,0-.678-.015-1.018-.015-.4,0-.8.027-1.191.048-.78.043-1.567.027-2.348.008-.845-.032-1.693-.058-2.538-.05-.614,0-1.226.047-1.841.078-1.605.078-3.2.114-4.81.068-.37-.015-.741-.028-1.111-.038l.351.012c-.544-.02-1.088-.027-1.632-.043-.3-.014-.6-.024-.9-.035-.917-.036-1.831-.038-2.747-.038-.87,0-1.74.043-2.61.028-.937-.017-1.875.08-2.812.088-.8.006-1.607-.006-2.407-.025-.8-.04-1.605-.08-2.408-.078-.568,0-1.136.016-1.7.006-.521-.025-1.041-.037-1.562-.055l.351.013c-.661-.025-1.322-.023-1.981-.023-.508,0-1.016,0-1.524-.01-1.117-.065-2.237-.146-3.354-.2-1.26-.066-2.517-.015-3.775.014q-3.02.072-6.041-.012c-.256-.01-.512-.018-.769-.026l.2.008c-.67-.023-1.341-.027-2.014,0-.634.027-1.263.074-1.9.078q-.417,0-.836,0c-.452,0-.9,0-1.353.006-.654.015-1.311.021-1.963,0l-.154,0c-.588-.027-1.177-.075-1.766-.1l.35.012c-.539-.026-1.078-.032-1.617-.046-.75-.039-1.5-.124-2.245-.156-.889-.038-1.775,0-2.662.01-.777.011-1.556.013-2.333.024-.471.008-.94,0-1.413.019-.393.017-.788.031-1.183.026-.653-.032-1.3-.087-1.957-.081-.684.006-1.372.031-2.054.074-1.075.062-2.146.139-3.224.131-.162-.006-.323-.011-.484-.011l.143,0c-.431-.013-.861-.014-1.292-.014-.279,0-.559,0-.838,0-.315,0-.627.009-.942.019s-.622.024-.934.019c-.351-.017-.7-.037-1.055-.043l-.408-.013c-.765-.04-1.53-.12-2.3-.132-.327,0-.654.009-.982.021s-.628.025-.944.022c-.2-.009-.4-.017-.6-.022l.095,0c-.512-.016-1.022-.016-1.533-.014H27c-.484-.024-.968-.055-1.453-.071l.349.013c-.6-.032-1.2-.085-1.81-.095l.35.012c-.456-.014-.91-.014-1.364-.014-.392,0-.784,0-1.175-.012h-.039c-.423-.02-.845-.026-1.268-.038-.16-.007-.32-.011-.48-.013l.35.013c-.371-.015-.743-.017-1.114-.028l.075,0c-.2-.006-.407-.012-.609-.016-.158-.009-.315-.016-.472-.021-.48-.025-.957-.069-1.436-.089l.2.007c-.424-.017-.847-.048-1.269-.063l.348.013c-.387-.024-.775-.055-1.165-.067q-.324-.018-.648-.03l.35.012c-.34-.029-.68-.065-1.02-.1-.213-.021-.424-.053-.637-.089a4.217,4.217,0,0,0-.77-.04,3.967,3.967,0,0,0-.607-.008,6.023,6.023,0,0,1-.71.052l.351.013c-.31-.013-.6,0-.91,0a3.791,3.791,0,0,0-.612.04,4.589,4.589,0,0,1-.769.04H8.963a3.886,3.886,0,0,0-.835-.013c-.185.024-.37.05-.558.058l-.077-.008a2.989,2.989,0,0,0-.518-.012c-.027,0-.053.007-.079.011a5.754,5.754,0,0,1-.573-.1c-.148-.061-.29-.137-.437-.2a4.657,4.657,0,0,0-.6-.2l-.016-.016c-.024-.03-.047-.06-.068-.092a1.1,1.1,0,0,0-.148-.229c-.04-.044-.084-.089-.122-.133a1.643,1.643,0,0,1-.128-.173c-.121-.261-.223-.536-.318-.807,0-.038-.006-.075-.007-.113a2.165,2.165,0,0,0,.007-.643c-.037-.192-.085-.377-.136-.561,0-.077,0-.156,0-.233a1.774,1.774,0,0,0-.07-.42,2.952,2.952,0,0,0,0-.312c0-.062-.02-.123-.028-.184v-.018c.026-.188.054-.358.065-.542a5.419,5.419,0,0,0,.028-.542,1.894,1.894,0,0,0-.059-.4,1.647,1.647,0,0,1-.01-.2c.006-.049.013-.1.018-.146a2.343,2.343,0,0,0-.041-.761v-.006l.017.072a.64.64,0,0,1-.014-.107c.018-.17.032-.338.04-.509l-.007.192a7.1,7.1,0,0,0,.033-.921c0,.116-.008.232-.012.351a7.759,7.759,0,0,0-.023-1.248,8.811,8.811,0,0,0-.328-1.281,3.186,3.186,0,0,1-.021-.379l.009-.21a4.041,4.041,0,0,1,.126-.911,1.3,1.3,0,0,0-.24-1.022,1.368,1.368,0,0,0-.868-.534,1.348,1.348,0,0,0-.219-.018,1.363,1.363,0,0,0-.8.26Zm2.284,6.156.021.088v.006c-.007-.03-.014-.062-.021-.094Zm.049,3.122v0Zm63.537,4.723.144,0-.144,0Z"/>
      <path class="b" d="M30.186,29.1a.88.88,0,0,0-.492.184c-.015.39-.008.781.015,1.193a11.361,11.361,0,0,1-.076,1.742,9.894,9.894,0,0,0,.023,1.043l.007.124c.008.173.016.347.021.518.006.335.025.669.048,1.026,0,.116.015.234.03.392a6.76,6.76,0,0,1,.034.792,13.852,13.852,0,0,0,.076,1.983l.067.025c.7.254,1.36.547,2.038.851a17.139,17.139,0,0,1,1.795.982l.1.059a18.286,18.286,0,0,0,3.663,1.51l.551.182c.484.177,1,.388,1.592.646l.182.08c.218.1.433.192.655.281.242.1.489.181.736.266l.1.034.156.04c.669.245,1.36.471,1.955.665l.061.021.146.049.5.162.5.165c.289.095.582.186.876.274l.061.019c.311.091.619.184.925.285.243.081.492.152.739.222l.1.03.112.031c.266.074.532.15.8.235.121.046.243.095.363.143l.093.036.068.025c.143.057.289.114.437.167l.084.03.049.037.025.009-.006,0,.01.007,0,0,.009.006-.465.216c-.749.348-1.5.7-2.257,1.034l-.348.154c-.509.228-1.143.509-1.73.822-.158.084-.312.169-.468.255l-.121.066c-.38.211-.76.42-1.146.614-.45.213-.906.418-1.362.623l-.093.04-.131.059-.169.076c-.488.222-1.066.484-1.6.75-.38.186-.749.374-1.117.562l-.333.168c-.4.186-.8.355-1.225.533l-.08.033c-.224.093-.446.186-.67.281-.418.182-.853.406-1.237.6l-.065.034c-.178.095-.357.188-.543.281-.266.118-.534.232-.809.346l-.563.241c-.172.076-.347.139-.524.2l-.066.023c-.133.047-.268.1-.4.148l-.164.07-.121.049-.061.025-.061.029L31.379,54a2.241,2.241,0,0,0-.3-.026h-.056a1.2,1.2,0,0,0-.26.036l.019.154c.023.184.046.368.065.552.021.2.03.409.038.616l.015.285.019.33a14.492,14.492,0,0,1,.038,1.809c-.04.574-.042,1.142-.042,1.774l0,.532c0,.2.012.405.027.608l0,.074c.011.177.024.357.024.536,0,.3.027.6.057.931l.019.2c.038.422.063.848.088,1.273l.009.143.019.34.023.527.01.127a9.551,9.551,0,0,0,1.443-.518c.116-.055.23-.114.344-.174l.131-.065.093-.049.095-.048.069-.038q.251-.133.507-.258c.279-.139.581-.257.889-.378l.323-.128c.454-.188.942-.408,1.453-.657.426-.209.847-.435,1.265-.661l.059-.032c.4-.219.931-.5,1.457-.749.568-.266,1.2-.5,1.706-.68l.129-.049c.386-.141.772-.285,1.153-.445s.736-.345,1.087-.524l.095-.049.061-.031.1-.053c.473-.245.955-.475,1.436-.7.879-.418,1.751-.764,2.8-1.172.49-.194.986-.42,1.385-.6l.068-.029.069-.032.064-.03.154-.069.063-.03c.275-.122.547-.247.824-.359.3-.124.6-.24.9-.354l.072-.028.188-.07c.691-.261,1.263-.483,1.818-.741.752-.357,1.542-.7,2.414-1.064L56.5,53.7c.587-.243,1.21-.5,1.8-.769.156-.071.314-.145.471-.219l.1-.049c.287-.135.574-.268.868-.39.167-.072.336-.14.505-.207l.149-.059c.218-.087.438-.176.655-.266.239-.1.462-.212.691-.326l.137-.069.053-.028a3.143,3.143,0,0,1,.639-.34.154.154,0,0,1,.085-.029h0c.048-.021.1-.04.15-.059l.1-.034.127-.076.217-.125c.163-.1.336-.2.519-.287l.07-.038-.026.01-.088.043.067-.036-.071.027a5.69,5.69,0,0,0,.918-.587c0-.168,0-.342-.014-.523,0-.087-.007-.173-.007-.26v-.156l0-.228a4.008,4.008,0,0,0-.057-.6l-.01-.059c-.07-.486-.1-.963-.12-1.47l0-.059,0-.1c-.008-.175-.019-.352-.034-.555-.019-.258-.038-.522-.036-.786a.414.414,0,0,1,.009-.087l0-.024-.009.019-.013.054,0-.036-.017.036.032-.251c.013-.143.023-.3.023-.466a3.55,3.55,0,0,0-.019-.395c-.021-.207-.057-.414-.095-.619l-.011-.057-.025-.2a1.124,1.124,0,0,0,.034-.34,1.012,1.012,0,0,0-.351-.746,3.67,3.67,0,0,0-.559-.329c-.116-.053-.235-.106-.357-.152l-.131-.049a1.418,1.418,0,0,0-.23-.08l-.391-.127a17.411,17.411,0,0,1-1.811-.851c-.26-.135-.522-.268-.784-.394-.3-.146-.627-.273-.958-.4l-.064-.025-.259-.1c-.511-.2-1.031-.384-1.548-.564l-.1-.036c-.181-.07-.365-.133-.549-.194-1.847-.686-3.735-1.478-5.61-2.354l-.078-.036c-.5-.228-.946-.433-1.4-.615-.314-.124-.633-.245-.952-.363L47.547,35c-.213-.08-.422-.169-.631-.257l-.108-.047-.068-.029c-.2-.087-.4-.173-.606-.254-.53-.211-1.057-.4-1.617-.591l-.388-.131-.095-.029c-.856-.307-1.707-.649-2.731-1.062-.836-.336-1.678-.623-2.5-.9l-.069-.025-.571-.2c-.437-.156-.872-.319-1.3-.483l-.145-.053c-.309-.116-.615-.23-.923-.342-.481-.171-.98-.317-1.465-.46l-.161-.047c-.386-.112-.775-.224-1.159-.35-.31-.11-.623-.226-.929-.347-.228-.09-.463-.164-.7-.234a2.4,2.4,0,0,0-.678-.082c-.171,0-.342.012-.511.025Z"/>
      <path class="b" d="M72.334,65.189l-.4.019c-.351.016-.7.023-1.054.023-.574,0-1.146-.019-1.721-.04-.314,0-.627.012-.939.025l-.182.006c-.41.015-.817.03-1.227.03-.139,0-.281,0-.42,0-.365-.013-.73-.034-1.1-.057l-.165-.009c-.278-.019-.559-.036-.84-.048-.091,0-.181.006-.274.01-.14.006-.281.013-.421.013l-.08-.013h0L63.5,65.6l-.009.454.006.488c.007.272.013.541.011.813l0,.106v.1c.006.163,0,.325,0,.492,0,.38.014.76.027,1.14l0,.1c.01.32.019.642.013.963,0,.08,0,.159,0,.238v0c0-.022,0-.044,0-.066v.065l.013-.031c0,.3.008.6.019.9l.006.22L63.6,72c0,.137.006.273.01.414.013.327.024.648.005.978-.007.095-.015.186-.024.281-.012.126-.023.253-.033.382l-.013.373c-.006.176-.013.353-.015.528l-.013.18c.169.006.338.006.509.006.207,0,.414,0,.619,0s.407-.006.612-.006q.225,0,.45.006.257.006.513.006c.188,0,.376,0,.589,0l.146,0c.175,0,.348,0,.524,0,.15,0,.3,0,.452.006.675.032,1.349.057,2.022.08l.414.015,1.115.04c.359.023.716.053,1.081.085l.091.006.1.008.454.041c.469.04.906.042,1.282.042l.486,0,.492,0c.342,0,.652-.009.956-.019l.135,0c.351-.012.7-.023,1.054-.023.638,0,1.275.017,1.913.036.306.017.612.036.967.061l.156.011c.592.04,1.121.074,1.649.08.38.006.76.011,1.141.011.584,0,1.169-.009,1.754-.019l.393-.007.213,0,.222,0c.2,0,.407-.009.612-.017l.378-.019c.374-.019.748-.038,1.121-.044.241-.007.48-.009.72-.009.577,0,1.238.015,2.021.042.644.024,1.284.03,1.934.036.492,0,.984.009,1.476.024.157,0,.315,0,.471,0,.475,0,.843-.015,1.149-.04.031-.42.042-.841.052-1.263l.005-.251c.008-.33.031-.657.057-.984l.008-.114c.017-.228.034-.456.04-.684.023-.535.053-1.067.085-1.611.055-.972.11-1.977.114-2.969,0-.458-.019-.925-.04-1.375l0-.059,0-.112c-.01-.175-.019-.348-.015-.513-.278,0-.559.008-.838.015l-.272.008-.184,0c-.376.008-.754.019-1.132.019-.2,0-.4-.005-.6-.009-.381-.013-.761-.038-1.141-.063s-.789-.053-1.184-.064l-.416-.008c-.815-.013-1.656-.025-2.481-.066l-.553-.033-.277-.017c-.391-.028-.783-.053-1.176-.066l-.76-.01-.427-.007-.836-.012c-.281,0-.559-.011-.838-.017-.617-.009-1.233-.023-1.85-.038l-.8-.017q-.273,0-.543.006l-.185,0c-.279.006-.56.012-.839.012-.186,0-.369,0-.555-.008-.209-.009-.416-.021-.623-.034-.158-.011-.319-.021-.479-.027l-.488,0-.167,0c-.336,0-.669,0-1.005-.012q-.222-.01-.441-.024l-.14-.006c-.145-.008-.291-.017-.437-.023-.741,0-1.495.034-2.2.07Z"/>
      <path class="c" d="M16.335,15.506l-.035.035a12.756,12.756,0,0,0-.11,2.137,6.34,6.34,0,0,1,.165,1.336,6.247,6.247,0,0,1-.085.844l-.025.175L16.1,21.07l-.088.636a15,15,0,0,0-.108,1.607,8.377,8.377,0,0,0,.061.929l.009.083.014.135c.015.121.028.241.036.361a11.8,11.8,0,0,1,.013,1.642c-.009.182-.025.363-.042.545-.026.274-.047.534-.057.792-.013.413-.021.827-.03,1.24l-.006.327c-.009.583-.019,1.165-.04,1.75-.04,1.328-.093,2.52-.161,3.647-.051.913-.072,1.763-.063,2.6s.006,1.679,0,2.517q-.006.972-.009,1.947c0,1.161,0,2.257-.021,3.355l-.017.977,0,.083v.093c-.019,1.194-.042,2.682,0,4.088.03.942.055,1.862.038,2.77-.01.64-.027,1.279-.046,1.921l-.011.382-.01.372-.03.986v.066l0,.073-.009.294,0,.072c-.033,1.15-.074,2.582-.074,3.9,0,.416.005.83.011,1.246l0,.192v.2c.007.416.009.786,0,1.164l-.012,1.461L15.436,66.6c-.013,1.159-.037,2.317-.061,3.474l-.011.494L15.331,72c-.017.9-.013,1.837-.009,2.648v.39l0,.288q.01,1.038.009,2.077c0,.95,0,1.81.044,2.722l.013.277,0,.057,0,.07c.038.777.074,1.6.066,2.425-.007,1.055-.026,2.106-.045,3.158l-.008.461-.032,1.574c-.014.951-.011,1.8.009,2.677.031,1.027.028,1.922-.011,2.736-.029.729-.072,1.453-.116,2.179-.065,1.08-.129,2.15-.146,3.212-.019,1.722.071,3.484.15,5.039l0,.065.005.108.006.095c.1,1.772.2,3.6.16,5.479-.02,1.333.012,2.7.049,4.1l0,.112,0,.093,0,.072.023.9c.015.5.041.991.068,1.485l.008.184c.022.337.038.669.053,1,.026.576.042,1.152.057,1.729l.021.785q.057,1.733.095,3.465c.017.676.034,1.349.053,2.025.031.983.03,1.893,0,2.781-.011.316-.027.633-.044.95l-.013.219c-.025.429-.049.86-.061,1.291-.052,1.845.013,3.6.084,5.249q.07,1.487.114,2.971c.009.323.015.644.019.967l0,.152c.009.5.02,1,.045,1.506.019.361.042.724.067,1.085l.013.167.006.089,0,.061c.029.458.057.906.069,1.355.033.848.045,1.81.036,2.859l0,.329c0,.33,0,.659-.021.984l-.025.4-.019.266c-.017.228-.032.454-.047.682a19.87,19.87,0,0,0,.028,2.457c.053.741.12,1.482.19,2.221l.006.062.006.063.007.063.008.083c.084.925.179,1.974.222,2.968.027.6.038,1.2.046,1.8l0,.179.009.621c.016.833.028,1.717-.015,2.58-.069,1.515-.049,3.217.059,5.2l.038.6c.049.726.085,1.329.07,1.942-.014.69-.054,1.376-.095,2.014l0,.061-.036.619a20.7,20.7,0,0,0,.029,2.123l.017.38.036.728c.032.64.061,1.28.076,1.922.01.458-.019.926-.053,1.363-.027.383-.05.723-.059,1.063a17.24,17.24,0,0,0,.131,2.306c.061.433.131.866.2,1.291l.175.036.155.006c.247.015.5.034.743.053l.074,0,.063.005c.353.025.692.05,1.033.056l.48-.012.074,0,.646-.015h.884c.169,0,.338,0,.507,0,.337-.011.67-.047,1.022-.084l.083-.007.085-.009.063-.006.076-.008c.406-.049.747-.083,1.093-.091l.427-.009.091,0c.308-.008.614-.017.92-.04.326-.025.645-.065.966-.108l.2-.025.1-.013c.406-.05.8-.1,1.184-.116.117-.006.233-.008.349-.008.356,0,.715.023,1.023.044l.583.042.12.009.127.008.14.01c.467.031.951.063,1.412.068l.372-.006c.258-.006.517-.013.775-.013.2,0,.4.005.6.013.443.021.886.057,1.33.093l.133.011.145.012.146.011.1.008.056,0c.9.075,2.135.177,3.287.2.294-.012.59-.031.883-.05.535-.034,1.039-.066,1.539-.066.129,0,.256,0,.382.006.427.017.853.049,1.28.083l.145.012.093.007.157.01.055,0c.377.026.74.051,1.106.056l.241-.011.239-.011.165-.008.12-.006c.281-.017.561-.032.842-.034.454-.009.853-.013,1.252-.013.378,0,.756,0,1.132.017.488.019.975.044,1.461.07l.123.006c.79.042,1.606.085,2.434.085H52.6c.856,0,1.7.033,2.55.071.473.019.946.038,1.419.051,1.291.037,2.588.055,4.082.057.414-.011.825-.017,1.237-.017.8,0,1.55.024,2.3.072,1.186.072,2.344.089,3.32.095.6-.021,1.208-.066,1.8-.11l.194-.013.186-.014c.363-.029.78-.043,1.315-.043.34,0,.682.007,1.022.013l.226,0c.572.011,1.14.03,1.71.051l.288.01.218.008c.592.02,1.52.053,2.362.06l.323,0c.615-.013,1.2-.021,1.784-.021.7,0,1.234.011,1.7.036l.274.014.135.007.083,0c1.3.06,2.648.121,3.959.128,1.478.008,3.017.139,4.254.245l.258.025.175.017.093.008L90,185.8c.561.045,1.141.091,1.714.113q.615.018,1.225.017l.478,0,.576,0c.481,0,.963,0,1.444.009l.285,0,.327,0,.364,0h.08l.646,0,.226,0q.738-.009,1.476-.025l.492-.01q.339-.008.678-.019l.144-.007c.32-.01.6-.017.876-.017.1,0,.194,0,.289,0,.331.007.663.015.992.024l.486.014c.678.019,1.355.038,2.031.049,1.163-.027,2.331-.077,3.427-.127.735-.042,1.635-.063,2.749-.063l.611,0c.43,0,.859-.013,1.288-.023.614-.015,1.228-.028,1.843-.028.243,0,.488,0,.73.007,1.153.023,2.308.036,3.459.036l.308,0c.773-.013,1.548-.024,2.319-.026.646-.017,1.3-.053,1.943-.091l.217-.012c.526-.032,1.007-.059,1.489-.083l.925-.044.063,0c1.017-.057,1.76-.091,2.548-.1l.727-.011c.6-.01,1.2-.019,1.784-.025.376,0,.752-.007,1.127-.007.429,0,.86,0,1.291.005,1.85-.023,3.7-.124,5.589-.235.823-.053,1.795-.111,2.762-.135.494-.012.986-.034,1.478-.057l.217-.008c.443-.022.881-.043,1.318-.057.485-.015.969-.019,1.454-.019l.854,0,.853,0,.772,0,1.088,0c.405,0,.813,0,1.218.006.384.006.767.008,1.145.011.648,0,1.266.006,1.883.023l.16,0,.13,0c.75.02,1.462.039,2.187.039l.118,0,.471-.006.14,0,.116,0c.432-.007.834-.011,1.235-.011.122,0,.245,0,.365,0l.052-.039h.075l.1.008c.752,0,1.487-.006,2.217-.012l.528,0,.819-.015c.625-.015,1.217-.026,1.806-.028.448,0,.9.013,1.346.026.273.008.541.014.811.019.573.01,1.145.031,1.715.053l.182.006.2.006.188,0c.56.019,1.2.041,1.808.041,1-.017,1.954-.063,3.292-.131l.4-.022c.6-.031,1.248-.046,2.041-.046.355,0,.712,0,1.066.006l.359,0,.235.008c.211,0,.42,0,.629,0,1.823,0,3.522.063,5.05.188l.258.021.067.006.163.017.087.006c.276.028.538.053.8.062l.321.012.125,0,.131,0,.84.032c.923.025,1.78.04,2.549.04l.1,0c.631-.007,1.263-.023,1.894-.04l.277-.007c.422-.012.842-.023,1.265-.033.8-.017,1.6-.017,2.4-.017l.469,0c.221,0,.441,0,.663,0q.65-.014,1.3-.013c1.213,0,2.29.04,3.294.122.877.071,1.5.135,2.029.207a18.2,18.2,0,0,0,1.926.133c1.745.028,2.99.051,4.343.121.353.017.705.042,1.058.069l.2.017.2.017c.848.068,1.609.125,2.346.129l.49-.019.454-.017.085-.633.131-1.027.045-.34c.008-.18.01-.36.01-.539l0-.108,0-.107,0-.3,0-.194c.006-.431.012-.845,0-1.261-.009-.192-.024-.384-.04-.576a6.47,6.47,0,0,1-.043-.886c0-.218.013-.435.024-.655.014-.359.029-.72.025-1.081a6.268,6.268,0,0,0-.051-.92l-.038-.249c-.029-.175-.057-.348-.076-.519a11.258,11.258,0,0,1-.078-1.435,22.229,22.229,0,0,1,.167-2.394l.059-.585c.055-.779.11-1.7.1-2.642l-.008-.623,0-.131,0-.152c-.011-.585-.024-1.164-.053-1.723a21.159,21.159,0,0,1,0-2.749c.046-.956.072-1.911.093-2.8.019-.915.089-1.807.156-2.668l.009-.121.008-.112c.053-.731.1-1.428.131-2.105.036-1.043.055-2.086.072-3.127.012-.742.025-1.472.044-2.2.019-.77.044-1.545.07-2.318l.014-.469c.026-.76.051-1.522.07-2.282l.015-.619c.015-.619.03-1.24.038-1.858v-.429c0-.275,0-.545.021-.817q.042-.588.1-1.178c.091-1.082.188-2.359.22-3.634.017-.843,0-1.736-.057-2.655a25.491,25.491,0,0,1-.027-2.588c0-.135.006-.272.01-.407l.008-.2.013-.308.019-.478.006-.177,0-.076.008-.215c.032-.845.072-1.9.068-2.906,0-.5-.009-1-.015-1.5l0-.112,0-.093,0-.086c-.014-1.075-.029-2.187.012-3.328.007-.255.015-.513.025-.766l.011-.245c.023-.543.044-1.086.051-1.629.008-.711,0-1.417,0-2.129l0-.476c-.008-1.08,0-1.943.043-2.717l.044-.963c.03-.589.059-1.179.078-1.772l.006-.228.005-.177.006-.214.008-.273c.04-1.4.081-2.848.083-4.226v-.408c0-1.647,0-3.282.027-4.92.009-.973-.025-1.973-.063-3l0-.146,0-.067-.01-.258c-.023-.606-.044-1.2-.051-1.8-.015-1.026,0-1.9.032-2.656q.015-.4.038-.81l0-.074,0-.06.006-.149c.026-.535.047-.995.049-1.458,0-.562-.024-1.145-.044-1.638l-.007-.167-.006-.173,0-.062-.021-.511c-.011-.226-.023-.454-.036-.679l-.013-.226c-.034-.532-.065-1.1-.067-1.624-.008-.693,0-1.4.016-2.086l0-.163,0-.143,0-.135,0-.125,0-.112,0-.109c.019-.718.038-1.439.042-2.156,0-.811-.02-1.565-.051-2.608l0-.074c-.006-.228-.023-.454-.04-.68-.015-.182-.027-.364-.036-.545-.021-.469-.038-.935-.048-1.4l0-.135,0-.087,0-.1,0-.074c-.019-.641-.042-1.439-.023-2.2,0-.308.01-.614.019-.922.021-.612.034-1.126.027-1.648q-.015-1.308-.038-2.614c-.013-.793.023-1.6.055-2.319l.006-.145.034-.7.006-.181c.028-.589.053-1.147.064-1.7.012-.812,0-1.716-.025-2.762-.03-.9-.057-1.761-.072-2.614-.014-.567,0-1.163.007-1.69l0-.151,0-.14,0-.118,0-.1.006-.262a36.536,36.536,0,0,0-.221-4.043l-.009-.111-.008-.091-.085-.916-.048-.524a18.837,18.837,0,0,1-.131-2.193c.006-.551,0-1.105,0-1.656l0-.828c0-.23,0-.46,0-.692.006-.6.013-1.221-.011-1.85-.023-.6-.063-1.2-.1-1.8L215.043,39c-.014-.2-.027-.39-.036-.582l-.014-.283-.015-.3-.019-.391-.059-1.155a18.2,18.2,0,0,1-.021-2.564l.019-.262,0-.068.006-.091c.05-.745.1-1.448.087-2.128-.011-.537-.034-1.075-.057-1.612l-.017-.418-.017-.441c-.037-.918-.048-1.79-.034-2.593.007-.768-.043-1.545-.091-2.3l-.006-.2c-.058-.845-.1-1.735-.118-2.722-.006-.316,0-.633,0-.95v-.078c0-.413.009-.84-.015-1.275l-.021-.307-.021-.375a.278.278,0,0,0-.117-.041l-.264-.026c-.16-.017-.321-.032-.486-.034-.618-.008-1.18-.027-1.714-.057-.228-.014-.461-.029-.691-.029-.078,0-.154,0-.23.006l-.3.015c-.192.013-.361.021-.532.025h-.116c-.4,0-.824-.034-1.148-.063l-.152-.013-.2-.015-.16-.012-.188-.015-.129-.008-.152-.009c-.457-.029-.88-.057-1.3-.057l-.076,0c-.232,0-.465.006-.7.013-.313.01-.595.017-.878.017-.4,0-.8-.013-1.206-.028l-.148-.008-.509-.019c-.126,0-.251-.006-.378-.006-.39,0-.845.02-1.43.065-.194.028-.387.063-.579.1l-.069.013-.089.017-.085.015c-.213.038-.394.069-.576.086a12.4,12.4,0,0,1-1.511.089c-.148,0-.3,0-.449-.009-.581-.027-1.164-.071-1.746-.118-.5-.042-.968-.078-1.436-.1-.626-.029-1.276-.04-1.907-.05l-.353-.007c-.359-.007-.69-.013-1.022-.021l-.488-.015c-1.028-.032-2.053-.064-3.08-.074-1.784-.017-3.622-.086-5.621-.211-.889-.046-1.738-.068-2.671-.068-.412,0-.826,0-1.236.009l-.418,0-.088,0-.387,0c-.386,0-.775.006-1.163.006h-.243c-1.7,0-3.572-.078-4.689-.124l-.163-.009-1.077-.042c-1.015-.04-2.027-.1-3.04-.16-.4-.026-.8-.034-1.2-.043l-.369-.006-.311-.01h-.112l-.13,0c-.237-.007-.441-.013-.649-.013-.078,0-.154,0-.233,0-1.142.023-2.235.042-3.327.057l-.363,0c-.587,0-1.273-.017-2.037-.051l-.672-.023c-.741-.023-1.48-.057-2.221-.093l-.091,0c-1.271-.062-2.574-.125-3.894-.125-.215,0-.427,0-.64,0l-.357,0-.143,0c-.342,0-.648.006-.957.006-.344,0-.688,0-1.032-.013l-.967-.029c-.737-.019-1.472-.04-2.209-.076-.386-.021-.774-.049-1.161-.076l-.084,0c-.579-.04-1.124-.076-1.66-.091-.881-.023-1.763-.036-2.644-.047l-.447-.006c-1.012-.015-2.021-.032-3.032-.057l-.5-.013c-.619-.016-1.237-.033-1.856-.033-.182,0-.363,0-.547.006-.323,0-.648.008-.973.008-.837,0-1.771-.015-2.942-.048l-.137,0-.118-.005-.114,0-.095,0c-.594-.017-1.187-.034-1.78-.044-1.016-.02-1.961-.077-3-.144l-.15-.008-.166-.009-.095,0c-1-.057-1.829-.1-2.669-.12-.554-.013-1.109-.022-1.664-.022-.469,0-.94.007-1.407.026s-.937.04-1.41.063l-.066,0c-.612.03-1.189.057-1.765.078q-.75.028-1.5.028c-1.084,0-2.193-.036-3.038-.068l-.361-.01-.361-.011-.364-.01-.365-.011c-1.5-.034-2.529-.049-3.44-.049-.806,0-1.7.015-2.808.047-.864.033-1.769.048-2.768.048H99.4c-.874,0-1.779-.045-2.383-.076l-.19-.008-.055,0-.366-.017c-1.308-.058-2.574-.087-3.76-.087-.822,0-1.7.015-2.619.043-.9.03-1.905.046-3,.046-1.294,0-2.42-.018-3.345-.055q-1.551-.051-3.1-.086l-.277-.007-.123,0-.278,0c-.4-.011-.777-.019-1.16-.019-.492,0-.918.013-1.309.034l-.3.019-.281.014-.3.017-.055.011-.35.019-.192.01c-.482.026-.959.049-1.432.06-1.077.025-2.153.042-3.23.057-.285,0-.572.006-.857.006-1.719,0-3.424-.072-5.072-.142l-.123-.006-.219-.008C63.846,15.7,62.653,15.7,61.5,15.7h-.435c-.731,0-1.461,0-2.192-.019h-.067l-.211,0-.362-.006-.175,0c-1-.024-2.025-.047-3.049-.047-.785,0-1.524.013-2.257.036q-1.023.031-2.048.03c-.466,0-.93,0-1.4-.008l-.467,0-.141,0h-.255c-.6-.006-1.171-.012-1.745-.012-1.045,0-2.088.021-3.133.047-.562.012-1.122.042-1.681.074-.469.027-.938.052-1.406.069l-.765.028-.274.01c-.735.028-1.468.053-2.205.066-.272,0-.544.006-.819.006q-.63,0-1.26-.011l-.311,0-.665-.006c-1.011-.013-2.025-.021-3.07-.03l-.707-.01h-.252c-.361-.007-.664-.013-.969-.013-.386,0-.771.006-1.155.023-.868.04-1.882.083-2.939.083h-.15c-.784,0-1.733-.036-2.9-.108l-.211-.013c-2.066-.11-3.914-.235-5.492-.371ZM29.872,38.1a13.843,13.843,0,0,1-.077-1.982,6,6,0,0,0-.034-.793c-.014-.159-.024-.277-.03-.393-.021-.355-.042-.689-.048-1.026,0-.171-.012-.344-.021-.516l-.007-.126c-.018-.322-.038-.688-.023-1.042a11.249,11.249,0,0,0,.076-1.743c-.023-.412-.028-.8-.015-1.192a.894.894,0,0,1,.494-.185c.168-.013.339-.025.51-.025a2.374,2.374,0,0,1,.679.084c.236.069.47.143.7.234.306.12.619.237.929.346.385.127.773.239,1.16.351l.16.047c.485.141.983.287,1.465.46.309.112.615.226.923.342l.146.053c.433.164.868.327,1.3.483l.57.194.07.026c.823.28,1.666.567,2.5.9,1.024.414,1.875.755,2.731,1.062l.095.03.388.131c.559.186,1.088.379,1.618.591.2.08.4.166.605.252l.068.031.108.046c.209.089.418.178.631.258l.585.222c.319.118.638.238.952.363.452.18.9.385,1.4.614l.078.036c1.876.875,3.763,1.667,5.611,2.355.183.061.367.124.549.194l.1.036c.517.179,1.037.361,1.548.564l.26.1.063.025c.331.128.654.254.958.4.262.127.524.26.783.4a17.962,17.962,0,0,0,1.813.851l.39.127a1.157,1.157,0,0,1,.23.08l.131.049c.123.046.241.1.357.152a3.38,3.38,0,0,1,.558.328,1.015,1.015,0,0,1,.353.746,1.09,1.09,0,0,1-.036.34l.028.2.01.057c.038.2.074.411.095.618a3.55,3.55,0,0,1,.019.395c0,.164-.011.322-.023.466l-.032.251.042-.089a.389.389,0,0,0-.019.127c0,.264.017.529.036.786.015.2.026.38.034.555l0,.1,0,.059c.026.506.051.984.122,1.47l.01.059a4.277,4.277,0,0,1,.057.6l0,.228v.156c0,.087,0,.173.007.26.01.182.014.355.014.523a5.789,5.789,0,0,1-.919.587l.19-.071a5.309,5.309,0,0,0-.662.352l-.216.126-.128.074-.1.034c-.051.019-.1.038-.15.059h0a.144.144,0,0,0-.085.03,3.067,3.067,0,0,0-.639.34l-.054.027-.137.07c-.228.114-.451.226-.69.325-.217.091-.437.179-.654.266l-.15.059c-.169.068-.338.135-.505.207-.294.122-.581.255-.868.391l-.1.048c-.156.074-.314.148-.47.22-.585.268-1.207.527-1.8.768l-.595.247c-.872.36-1.661.708-2.414,1.065-.556.258-1.128.479-1.818.741l-.188.069-.071.028c-.3.114-.6.23-.9.355-.277.113-.55.236-.824.36l-.063.028-.154.07-.064.029-.069.032-.068.03c-.4.182-.895.408-1.385.6-1.047.409-1.918.754-2.8,1.172-.481.226-.963.456-1.436.7l-.1.053-.061.032-.095.048c-.35.18-.712.366-1.087.524s-.767.3-1.153.445l-.129.049c-.507.185-1.138.415-1.706.68-.527.247-1.056.53-1.458.75l-.059.031c-.418.226-.838.452-1.264.661-.511.249-1,.47-1.453.657l-.323.128c-.309.121-.61.24-.889.379-.171.082-.34.169-.507.257l-.07.038-.095.049-.093.048-.13.066c-.114.059-.228.118-.344.173a9.413,9.413,0,0,1-1.446.519l-.03-.653-.02-.341-.008-.142c-.025-.426-.049-.851-.089-1.275l-.019-.194c-.03-.327-.057-.63-.057-.931,0-.18-.012-.358-.023-.536l-.005-.074c-.015-.2-.029-.4-.027-.608l0-.532c0-.631,0-1.2.042-1.773a14.33,14.33,0,0,0-.038-1.811l-.019-.329-.015-.285c-.008-.207-.017-.412-.038-.617-.019-.184-.042-.367-.065-.551l-.019-.154a1.375,1.375,0,0,1,.261-.037h.056a2.213,2.213,0,0,1,.3.026l.087.012.062-.027.061-.026.12-.05.165-.068c.131-.053.266-.1.4-.148l.066-.023c.177-.063.352-.127.524-.2l.563-.24c.275-.114.543-.228.809-.347.186-.093.366-.186.543-.281l.065-.033c.385-.2.82-.421,1.237-.6.224-.1.446-.188.67-.281l.08-.034c.427-.177.826-.346,1.225-.532l.334-.169c.367-.188.737-.376,1.117-.562.536-.266,1.114-.527,1.6-.749l.168-.076.131-.059.093-.04c.456-.2.912-.41,1.362-.623.386-.2.767-.4,1.147-.615l.12-.065c.156-.087.31-.171.469-.256.585-.312,1.22-.594,1.729-.821l.348-.154c.756-.338,1.508-.686,2.257-1.035l.465-.215-.082-.064-.085-.031c-.148-.052-.294-.109-.437-.166l-.068-.026-.093-.036c-.12-.048-.243-.1-.363-.143-.264-.085-.53-.161-.8-.235l-.112-.031-.1-.03c-.247-.07-.5-.141-.738-.222-.307-.1-.615-.194-.925-.285l-.062-.019c-.293-.088-.587-.179-.876-.274l-.5-.165-.5-.162-.146-.049-.061-.021c-.6-.193-1.285-.42-1.955-.665l-.157-.04-.1-.034c-.247-.085-.494-.169-.736-.266-.222-.089-.437-.184-.655-.281l-.181-.08c-.589-.257-1.11-.468-1.593-.646l-.551-.182a18.225,18.225,0,0,1-3.663-1.509l-.1-.059a17.039,17.039,0,0,0-1.795-.982c-.677-.3-1.343-.6-2.038-.851l-.067-.025ZM70.879,65.23c.351,0,.7-.007,1.054-.023l.4-.019c.709-.036,1.463-.07,2.2-.07.146.006.291.015.437.023l.14.008c.146.008.294.017.441.022.337.011.671.012,1.005.014h.167l.488,0c.16.006.32.016.479.027.207.013.414.025.623.034.186.006.369.008.555.008.28,0,.56-.006.839-.012l.185,0c.18,0,.361-.007.543-.007l.8.017c.617.015,1.233.029,1.85.038.279.006.557.013.838.017l.837.013.426.006.76.01c.392.013.785.038,1.176.066l.276.017c.185.012.369.024.554.034.825.041,1.667.054,2.48.067l.417.006c.394.011.789.036,1.184.064.38.025.76.05,1.14.063.2,0,.4.009.6.009.378,0,.756-.01,1.133-.019l.183,0,.272-.008c.279-.006.56-.013.838-.015,0,.166.006.339.015.514l0,.112,0,.06c.023.45.046.915.042,1.374,0,.992-.061,2-.116,2.969-.03.544-.06,1.076-.083,1.61-.007.228-.023.456-.04.684l-.008.114c-.026.328-.049.655-.057.985l0,.251c-.01.422-.021.842-.052,1.262-.308.027-.675.042-1.15.042-.156,0-.314,0-.471,0-.492-.015-.984-.02-1.476-.024-.65-.006-1.29-.012-1.934-.036-.783-.027-1.444-.042-2.021-.042-.24,0-.479,0-.72.009-.374.006-.747.025-1.121.044l-.378.019c-.2.008-.41.013-.612.017l-.222,0-.213,0-.393.007c-.585.01-1.17.019-1.754.019-.38,0-.761,0-1.141-.011-.527-.006-1.059-.04-1.648-.08L80.5,75.5c-.354-.025-.661-.044-.967-.061-.638-.019-1.275-.036-1.913-.036-.351,0-.7.011-1.054.023l-.135,0c-.3.011-.614.019-.956.019l-.492,0-.486,0c-.375,0-.814,0-1.281-.042l-.454-.041-.1-.008-.09-.006c-.366-.032-.723-.062-1.082-.085l-1.115-.04-.413-.015c-.674-.023-1.348-.048-2.023-.08-.15,0-.3-.006-.452-.006-.176,0-.349,0-.524,0l-.146,0c-.213,0-.4,0-.589,0q-.257,0-.513-.006-.225-.006-.45-.006-.307,0-.612.006c-.2,0-.412,0-.619,0-.171,0-.339,0-.508-.006l.011-.18c0-.176.009-.353.015-.528l.013-.374c.01-.129.021-.255.033-.382.009-.095.017-.187.024-.281.019-.329.008-.65-.005-.978,0-.141-.008-.276-.01-.414s-.007-.281-.012-.422l-.007-.22c-.011-.3-.021-.6-.019-.9l-.026.062c.021-.409.009-.819,0-1.228l0-.1c-.012-.38-.025-.76-.027-1.14.006-.167.01-.329,0-.492v-.1l0-.106c0-.272,0-.541-.01-.813l-.007-.488L63.5,65.6l.008-.458.083.012c.14,0,.281-.006.421-.013.093,0,.182-.008.274-.01.281.012.561.029.84.048l.165.01c.367.022.732.045,1.1.056.139,0,.281,0,.42,0,.409,0,.818-.015,1.227-.03l.182-.006c.312-.013.625-.023.939-.025.574.021,1.147.04,1.721.04Z"/>
    </g>
    <g>
      <path class="d" d="M47.321,226.928a4.5,4.5,0,0,1,1.507,2.871H46.914a2.776,2.776,0,0,0-.891-1.771,2.9,2.9,0,0,0-2.035-.692,2.513,2.513,0,0,0-1.683.516,1.743,1.743,0,0,0-.6,1.4,1.437,1.437,0,0,0,.407,1.066,2.581,2.581,0,0,0,1.012.616,16.58,16.58,0,0,0,1.661.451,16.246,16.246,0,0,1,2.167.627,3.4,3.4,0,0,1,1.408,1.024,2.874,2.874,0,0,1,.583,1.891,2.976,2.976,0,0,1-1.111,2.4,4.486,4.486,0,0,1-2.959.924,5.662,5.662,0,0,1-3.52-1.035,4.12,4.12,0,0,1-1.606-2.881h1.936a2.516,2.516,0,0,0,.957,1.781,3.452,3.452,0,0,0,2.233.683,2.318,2.318,0,0,0,1.617-.529,1.78,1.78,0,0,0,.583-1.386,1.516,1.516,0,0,0-.418-1.122,2.747,2.747,0,0,0-1.034-.637,15.039,15.039,0,0,0-1.694-.462,16.661,16.661,0,0,1-2.145-.616,3.292,3.292,0,0,1-1.364-.98,2.739,2.739,0,0,1-.561-1.814,3.037,3.037,0,0,1,1.122-2.453,4.627,4.627,0,0,1,3.058-.936A4.877,4.877,0,0,1,47.321,226.928Z"/>
      <path class="d" d="M51.644,221.583a1.608,1.608,0,0,1,1.98,0,1.248,1.248,0,0,1,0,1.782,1.608,1.608,0,0,1-1.98,0,1.248,1.248,0,0,1,0-1.782Zm1.98,4.432v12.078h-2V226.015Z"/>
      <path class="d" d="M62.6,236.334v1.759H61.1a3.839,3.839,0,0,1-2.761-.88,3.971,3.971,0,0,1-.913-2.948v-6.511h-1.8v-1.739h1.8V223h2.024v3.013h3.124v1.739H59.454v6.555a2.256,2.256,0,0,0,.429,1.595,2.065,2.065,0,0,0,1.485.43Z"/>
      <path class="d" d="M76.063,232.483H66.406a4.238,4.238,0,0,0,1.176,3.1A3.844,3.844,0,0,0,70.3,236.62a3.924,3.924,0,0,0,2.431-.738,3.041,3.041,0,0,0,1.2-1.968h2.134a5.041,5.041,0,0,1-2.947,3.783,6.524,6.524,0,0,1-2.728.551,6.23,6.23,0,0,1-3.081-.748,5.284,5.284,0,0,1-2.1-2.146,6.785,6.785,0,0,1-.758-3.289,6.854,6.854,0,0,1,.758-3.3,5.273,5.273,0,0,1,2.1-2.156,6.23,6.23,0,0,1,3.081-.748,6.085,6.085,0,0,1,3.068.748,5.15,5.15,0,0,1,2,2,5.637,5.637,0,0,1,.693,2.772A5.928,5.928,0,0,1,76.063,232.483Zm-2.376-3.212a3.227,3.227,0,0,0-1.385-1.342,4.228,4.228,0,0,0-1.914-.439,3.964,3.964,0,0,0-2.772,1.022,4.116,4.116,0,0,0-1.21,3h7.721A4.106,4.106,0,0,0,73.687,229.271Z"/>
      <path class="d" d="M88.054,236.113a3.983,3.983,0,0,1-1.606,1.54,5.456,5.456,0,0,1-2.663.595,6.4,6.4,0,0,1-2.739-.562,4.864,4.864,0,0,1-1.913-1.54,4.356,4.356,0,0,1-.826-2.232h2.134a3.031,3.031,0,0,0,.451,1.287,2.991,2.991,0,0,0,1.1,1.033,3.446,3.446,0,0,0,1.728.407,2.735,2.735,0,0,0,2.023-.7,2.439,2.439,0,0,0,.7-1.8,2.323,2.323,0,0,0-.5-1.54,3.5,3.5,0,0,0-1.221-.934,16.307,16.307,0,0,0-1.98-.737,19.772,19.772,0,0,1-2.364-.914,4.024,4.024,0,0,1-1.519-1.287,3.752,3.752,0,0,1-.626-2.265,3.913,3.913,0,0,1,.583-2.135,3.826,3.826,0,0,1,1.671-1.43,6.035,6.035,0,0,1,2.563-.506,5.509,5.509,0,0,1,3.63,1.112,4.244,4.244,0,0,1,1.562,2.827H86.1a2.928,2.928,0,0,0-.947-1.629,2.979,2.979,0,0,0-2.09-.7,2.86,2.86,0,0,0-1.936.627,2.511,2.511,0,0,0-.253,3.233,3.293,3.293,0,0,0,1.177.88,18.866,18.866,0,0,0,1.936.715,19.479,19.479,0,0,1,2.409.925,4.053,4.053,0,0,1,1.551,1.331,3.979,3.979,0,0,1,.638,2.364A4.125,4.125,0,0,1,88.054,236.113Z"/>
      <path class="d" d="M97.029,236.334v1.759h-1.5a3.84,3.84,0,0,1-2.761-.88,3.971,3.971,0,0,1-.913-2.948v-6.511h-1.8v-1.739h1.8V223h2.024v3.013h3.124v1.739H93.883v6.555a2.256,2.256,0,0,0,.429,1.595,2.065,2.065,0,0,0,1.485.43Z"/>
      <path class="d" d="M107.4,226.742a4.586,4.586,0,0,1,1.7,2.353v-3.08h2v12.078h-2v-3.08a4.591,4.591,0,0,1-1.7,2.355,4.968,4.968,0,0,1-2.981.88,5.486,5.486,0,0,1-2.861-.748,5.168,5.168,0,0,1-1.968-2.146,7.123,7.123,0,0,1-.715-3.289,7.2,7.2,0,0,1,.715-3.3,5.159,5.159,0,0,1,1.968-2.156,5.486,5.486,0,0,1,2.861-.748A4.962,4.962,0,0,1,107.4,226.742Zm-5.368,2.078a5.294,5.294,0,0,0,0,6.49,3.874,3.874,0,0,0,2.958,1.177,4.11,4.11,0,0,0,2.124-.55,3.82,3.82,0,0,0,1.462-1.551,4.9,4.9,0,0,0,.529-2.321,4.97,4.97,0,0,0-.529-2.332,3.747,3.747,0,0,0-1.462-1.551,4.182,4.182,0,0,0-2.124-.539A3.878,3.878,0,0,0,102.034,228.82Z"/>
      <path class="d" d="M120.063,236.334v1.759h-1.5a3.843,3.843,0,0,1-2.762-.88,3.976,3.976,0,0,1-.912-2.948v-6.511h-1.8v-1.739h1.8V223h2.024v3.013h3.124v1.739h-3.124v6.555a2.256,2.256,0,0,0,.429,1.595,2.065,2.065,0,0,0,1.485.43Z"/>
      <path class="d" d="M129.577,226.928a4.5,4.5,0,0,1,1.507,2.871H129.17a2.776,2.776,0,0,0-.891-1.771,2.9,2.9,0,0,0-2.035-.692,2.516,2.516,0,0,0-1.683.516,1.746,1.746,0,0,0-.605,1.4,1.441,1.441,0,0,0,.407,1.066,2.588,2.588,0,0,0,1.012.616,16.656,16.656,0,0,0,1.661.451,16.246,16.246,0,0,1,2.167.627,3.4,3.4,0,0,1,1.408,1.024,2.869,2.869,0,0,1,.583,1.891,2.973,2.973,0,0,1-1.111,2.4,4.484,4.484,0,0,1-2.959.924,5.664,5.664,0,0,1-3.52-1.035A4.123,4.123,0,0,1,122,234.332h1.936a2.519,2.519,0,0,0,.957,1.781,3.452,3.452,0,0,0,2.233.683,2.318,2.318,0,0,0,1.617-.529,1.777,1.777,0,0,0,.583-1.386,1.516,1.516,0,0,0-.418-1.122,2.739,2.739,0,0,0-1.034-.637,14.979,14.979,0,0,0-1.694-.462,16.757,16.757,0,0,1-2.145-.616,3.292,3.292,0,0,1-1.364-.98,2.739,2.739,0,0,1-.561-1.814,3.037,3.037,0,0,1,1.122-2.453,4.627,4.627,0,0,1,3.058-.936A4.877,4.877,0,0,1,129.577,226.928Z"/>
      <path class="d" d="M135.352,235.74v2.353h-2.42V235.74Z"/>
      <path class="d" d="M148.662,232.483H139a4.235,4.235,0,0,0,1.177,3.1,3.84,3.84,0,0,0,2.717,1.034,3.924,3.924,0,0,0,2.431-.738,3.049,3.049,0,0,0,1.2-1.968h2.134a5.039,5.039,0,0,1-2.948,3.783,6.517,6.517,0,0,1-2.728.551,6.226,6.226,0,0,1-3.08-.748,5.284,5.284,0,0,1-2.1-2.146,6.785,6.785,0,0,1-.759-3.289,6.854,6.854,0,0,1,.759-3.3,5.273,5.273,0,0,1,2.1-2.156,6.226,6.226,0,0,1,3.08-.748,6.089,6.089,0,0,1,3.069.748,5.15,5.15,0,0,1,2,2,5.637,5.637,0,0,1,.693,2.772A5.928,5.928,0,0,1,148.662,232.483Zm-2.376-3.212a3.224,3.224,0,0,0-1.386-1.342,4.225,4.225,0,0,0-1.914-.439,3.965,3.965,0,0,0-2.772,1.022,4.12,4.12,0,0,0-1.21,3h7.722A4.115,4.115,0,0,0,146.286,229.271Z"/>
      <path class="d" d="M158.32,238.093l-3.146-4.62-2.838,4.62h-2.222l3.96-6.225-3.982-5.853h2.288l3.058,4.489,2.794-4.489h2.222l-3.938,6.073,4.092,6Z"/>
      <path class="d" d="M173.5,232.483h-9.658a4.235,4.235,0,0,0,1.177,3.1,3.84,3.84,0,0,0,2.717,1.034,3.924,3.924,0,0,0,2.431-.738,3.049,3.049,0,0,0,1.2-1.968H173.5a5.039,5.039,0,0,1-2.948,3.783,6.517,6.517,0,0,1-2.728.551,6.224,6.224,0,0,1-3.08-.748,5.284,5.284,0,0,1-2.1-2.146,6.785,6.785,0,0,1-.759-3.289,6.854,6.854,0,0,1,.759-3.3,5.273,5.273,0,0,1,2.1-2.156,6.224,6.224,0,0,1,3.08-.748,6.089,6.089,0,0,1,3.069.748,5.157,5.157,0,0,1,2,2,5.637,5.637,0,0,1,.693,2.772A6.015,6.015,0,0,1,173.5,232.483Zm-2.376-3.212a3.23,3.23,0,0,0-1.386-1.342,4.225,4.225,0,0,0-1.914-.439,3.965,3.965,0,0,0-2.772,1.022,4.12,4.12,0,0,0-1.21,3h7.722A4.115,4.115,0,0,0,171.124,229.271Z"/>
    </g>
  </g>
</svg>
