<?xml version="1.0" encoding="utf-8"?>
<!-- Generator: Adobe Illustrator 24.2.1, SVG Export Plug-In . SVG Version: 6.00 Build 0)  -->
<svg version="1.1" id="Layer_1" xmlns="http://www.w3.org/2000/svg" xmlns:xlink="http://www.w3.org/1999/xlink" x="0px" y="0px"
	 viewBox="0 0 232 238.2" style="enable-background:new 0 0 232 238.2;" xml:space="preserve">
<style type="text/css">
	.st0{fill:#48578E;}
	.st1{fill:#ECECEC;}
	.st2{fill:#2F345B;}
	.st3{fill:#FFFFFF;}
</style>
<g>
	<g>
		<path class="st0" d="M14,0h-0.2c-0.9,0-1.8,0.1-2.7,0.2c-0.4,0.1-0.9,0.1-1.3,0.2c-0.5,0.1-1,0.2-1.4,0.2C8,0.7,7.5,0.8,7.1,0.9
			C6.8,1,6.4,1,6.1,1.1C5.5,1.2,4.8,1.3,4.2,1.6C3.5,1.8,2.9,2.1,2.4,2.6C2,3.1,1.7,3.5,1.5,4c0,0.1-0.1,0.1-0.1,0.2
			C1.3,4.3,1.2,4.4,1.2,4.5C1.1,4.8,1,5,0.9,5.3c0,0.1,0,0.2-0.1,0.3C0.7,6,0.5,6.3,0.4,6.7L0.2,7.1C0,7.4,0,7.8,0,8.1
			C0.1,8.5,0.4,8.8,0.7,9c0.1,0,0.2,0.1,0.2,0.1c0,0.4,0,0.8,0,1.2l0,0.4c0,0.6,0.1,1.2,0.1,1.7c0,0.7,0,1.4,0,2.1l0,0.5
			c0,0.5,0,1,0,1.5c0,0.3,0,0.6,0,1c0,0.2,0,0.3,0,0.5v0.3c0,0.4,0,0.7,0,1.1l0,0.3c0,0.4,0,0.8,0,1.2c0,0.4,0,0.9,0,1.3l0,0.2
			c0,0.4,0,0.9,0,1.3c0,0.8,0,1.6-0.1,2.4c0,0.4,0,0.8,0,1.2c0,0.5,0,1,0,1.5c0,0.6,0,1.2,0,1.7l0,0.6l0,0.4c0,0.7,0,1.5,0.1,2.3
			c0,0.8,0,1.6,0,2.4v0.1c0,0.8,0,1.6,0,2.3l0,1c0,1.3,0,2.7,0,4.1c0,1,0,1.7,0,2.5c0,0.3,0,0.6,0,0.9c0,0.5,0,1.1,0,1.6l0,0.9
			c0,0.6,0,1.2,0,1.8c0,0.7,0,1.3,0,2l0,0.8c0,0.4,0,0.8,0,1.2s0,0.8,0,1.2c0,0.9,0,1.6,0,2.3c0,1.5,0,3,0,4.5v0.5
			c0,1.1,0,2.2,0.1,3.3c0,0.6,0,1.2,0,1.7s0,1.1,0,1.7c0,0.3,0,0.6,0,0.9c0,0.7,0,1.4,0.1,2l0,0.5c0,0.7,0,1.5,0,2.2
			c0,0.5,0,1.1,0,1.6c0,0.6,0,1.1,0,1.6c0,0.3,0,0.7,0,1c0,0.3,0,0.6,0,0.9c0,1.4,0,2.6,0,3.9c0,1,0.1,2.2,0.2,3.5
			c0.1,0.8,0.1,1.6,0.2,2.4l0,0.3c0,0.8,0.1,1.5,0.1,2.3v0.5c0,0.7,0,1.4,0,2.1c0,0.4,0,0.8,0,1.3c0,0.4,0,0.8,0,1.2
			c0,0.5,0,1,0.1,1.5c0,0.4,0,0.9,0.1,1.3c0,0.8,0,1.6,0,2.4c0,0.3,0,0.7,0,1v0.1c0,0.2,0,0.3,0,0.5c0,0.2,0,0.5,0,0.7
			c0,0.8,0,1.7,0,2.5v0.3c0,0.8,0,1.6,0,2.3v0.1c0,0.7-0.1,1.5,0,2.2l0,1.1c0,1.2,0,2.4,0,3.6c0,0.7,0,1.5,0,2.2
			c0,0.4,0,0.9-0.1,1.3c0,0.3,0,0.6,0,0.9c0,0.8,0,1.6-0.1,2.4v0.5c0,0.7,0,1.4,0,2l0,1.2c0,1.2-0.1,2.5-0.2,3.8l0,0.6
			c-0.1,1.3-0.2,2.7-0.1,4c0,0.7,0,1.4,0.1,2.1l0,0.4c0,0.8,0,1.6,0,2.5v0.1c0,0.5,0,1,0,1.4c0,0.3,0,0.6,0,0.9c0,1.1,0,2-0.1,2.8
			c0,0.3,0,0.6-0.1,0.9c0,0.6-0.1,1.1-0.1,1.7s0,1.2,0,1.7c0,0.2,0,0.4,0,0.7c0,0.7,0,1.5,0,2.2c0,0.8,0,1.6,0,2.4
			c0,0.5,0,0.9,0.1,1.4c0,0.3,0,0.6,0.1,0.9c0,0.8,0,1.7,0,2.4c-0.1,1.6-0.1,3.2-0.2,4.8c0,0.3,0,0.5-0.1,0.8s-0.1,0.6-0.1,0.9
			c0,0.4,0,0.9,0,1.3c0,0.3,0,0.6,0,0.9c0,0.4,0,0.8-0.1,1.2c0,0.3,0,0.6,0,0.9v0.4c0,0.7,0,1.4,0.1,2.1c0,0.7,0.1,1.4,0.1,2
			c0,0.3,0,0.6,0,0.8c0,0.4,0,0.8,0,1.1c0,0.5,0,1,0,1.4l0,0.6c0,0.7,0,1.5,0.1,2.2c0,0.4,0.1,0.9,0.1,1.3c0,0.6,0.1,1.3,0.1,2
			c0,0.1,0,0.1,0,0.2l0,0.1c0,0.5,0.1,0.9,0.1,1.3c0,0.4,0,0.7,0,1.1c0,0.2,0,0.3,0,0.5c0,0.5,0,1,0.1,1.5l0,0.3
			c0,0.2,0.1,0.4,0.1,0.7c0,0.3,0.1,0.5,0.1,0.8l0,0.2c0,0.3,0,0.5,0.1,0.8c0,0.2,0.1,0.5,0.2,0.7c0,0.1,0.1,0.2,0.1,0.3
			c0.1,0.8,0.4,1.6,0.8,2.2c0.3,0.4,0.6,0.8,1,1.1c0.2,0.1,0.3,0.2,0.5,0.3c0.2,0.1,0.5,0.3,0.8,0.3c0.2,0.1,0.4,0.1,0.7,0.1l0.1,0
			c0.2,0,0.4,0.1,0.6,0.1h0c0.1,0,0.3,0,0.4,0c0.1,0,0.1,0,0.2,0h0.2c0.2,0,0.4,0,0.6,0c0.1,0,0.1,0,0.2,0c0.3,0,0.5,0,0.8-0.1
			c0.2,0,0.4,0,0.7-0.1s0.4-0.1,0.7-0.1l0.2,0c0.2,0,0.4-0.1,0.7-0.1c0.1,0,0.3,0,0.4-0.1c0.2,0,0.5,0,0.7,0c0.3,0,0.6,0,1,0
			c0.2,0,0.3,0,0.5,0c0.6,0,1.1,0,1.7,0.1c0.4,0,0.7,0.1,1.1,0.1c0.5,0,1,0.1,1.6,0.1l0.4,0c0.3,0,0.6,0,0.9,0c0.3,0,0.6,0,0.9-0.1
			c0.2,0,0.4,0,0.7,0h0c0.2,0,0.4,0,0.7,0H22h0.3c0.2,0,0.3,0,0.5,0l0.2,0c0.1,0,0.2,0,0.4,0h0.1h0.2h0.2h0.1c0.4,0,0.9,0,1.3,0.1
			c0.2,0.3,0.6,0.5,0.9,0.5c0.2,0,0.3,0,0.5,0h0.2c0.3,0,0.6,0.1,0.9,0.1c0.1,0,0.2,0,0.3,0c0.2,0.1,0.5,0.1,0.7,0.1
			c0.5,0,0.8,0,1.1,0c0.4,0,0.7-0.1,1.1-0.2c0.2,0,0.3-0.1,0.5-0.1c0.2,0,0.4,0,0.6,0.1c0.1,0,0.3,0,0.4,0.1c0.2,0,0.5,0,0.7,0
			c0.1,0,0.3,0,0.4,0c0.4,0,0.8,0.1,1.2,0.1l0.4,0.1c0.4,0,0.9,0.1,1.3,0.1c0.2,0,0.3,0,0.5,0h0.5c0.2,0,0.5,0,0.8,0h0.3
			c0.2,0,0.4,0,0.7,0c0.1,0,0.2,0,0.3,0c0.4,0,0.8,0,1.2,0l0.3,0h0.3c0.3,0,0.6,0,0.9,0h0.3c0.3,0,0.5,0,0.8,0.1c0.1,0,0.3,0,0.4,0
			c0.6,0,1.1,0.1,1.7,0.1c0.6,0,1.3-0.1,1.9-0.2c0.4-0.1,0.8-0.1,1.2-0.1c0.4,0,0.7,0,1.1,0.1l0.4,0c0.3,0,0.7,0,0.9,0
			c0.2,0,0.4,0,0.6,0c0.3,0,0.5-0.1,0.8-0.1c0.1,0,0.3-0.1,0.4-0.1c0.6-0.1,1.1-0.1,1.7-0.2c0.4,0,0.7,0,1.1,0c0.4,0,0.9,0,1.3,0
			h0.4c0.4,0,0.7,0,1.1,0l0.7,0h0.2c0.4,0,0.7,0,1.1,0l0.6,0c0.4,0,0.8,0,1.2,0.1c0.4,0,0.7,0.1,1.1,0.1l0.2,0c0.4,0,0.7,0,1.1,0
			h0.2c0.2,0,0.4,0,0.6,0c0.2,0,0.3,0,0.5,0c1.1,0,2.2,0.1,3.2,0.2l0.4,0c0.3,0,0.7,0,1.1,0c0.6,0,1.2,0,1.8-0.1
			c0.4,0,0.7,0,1.1-0.1c0.4,0,0.8,0,1.1,0s0.8,0,1.2,0h0.4c0.5,0,1.1,0,1.6-0.1c0.3,0,0.6,0,0.9,0c0.5,0,0.9,0,1.4,0
			c0.3,0,0.7,0,1,0c0.9,0,1.8,0.1,2.7,0.1c0.3,0,0.7,0.1,1,0.1c0.6,0.1,1.2,0.1,1.8,0.2c0.7,0.1,1.4,0.1,2.1,0.1l0.5,0
			c0.6,0,1.2,0,1.9,0c1.2,0,2.4,0,3.6,0.1c0.7,0,1.4,0.1,2.1,0.2c1.2,0.1,2.4,0.2,3.6,0.2c0.3,0,0.6,0,0.9,0c1,0,1.8,0,2.5-0.1
			l0.4,0c0.9-0.1,1.8-0.1,2.7-0.2c0.6,0,1.1,0,1.7,0.1l0.2,0c0.9,0.1,1.6,0.1,2.3,0.1c0.9,0,1.7,0,2.6-0.1c0.6,0,1.1,0,1.7,0
			c0.5,0,0.9,0,1.4,0c0.4,0,0.8,0,1.2,0c0.2,0,0.4,0,0.6,0l-0.1,0h0.1c0.3,0,0.7,0,1,0s0.7,0,1.1,0h0.6h0.6c0.4,0,0.8,0,1.2,0
			c0.4,0,0.7,0,1.1,0s0.7,0,1.1,0h0.5c0.4,0,0.8,0,1.3,0c0.3,0,0.5,0,0.8,0c0.5,0,1,0,1.5-0.1c0.3,0,0.6,0,0.9,0
			c0.6,0,1.3,0.1,1.9,0.1l0.3,0c0.9,0.1,1.9,0.1,3.1,0.1c0.7,0,1.4,0.1,2,0.1c1.1,0.1,2.2,0.1,3.3,0.1h0.4c0.3,0,0.5,0,0.8,0h0.6
			c0.3,0,0.5,0,0.8,0c0.5,0,0.9,0,1.4,0c0.3,0,0.7,0,1,0c0.9,0,1.9,0.1,2.8,0.1l0.6,0c0.7,0,1.4,0.1,2.1,0.1c0.7,0,1.3,0,2,0.1
			c0.9,0,1.8,0.1,2.9,0.1c1.5,0,3,0,4.4-0.1l1,0c0.6,0,1.2,0,1.8,0.1c0.4,0,0.9,0.1,1.3,0.1c0.2,0,0.3,0,0.5,0c0.5,0,1.1,0,1.6,0
			c0.4,0,0.7,0,1.1,0l1.5,0c1.4,0,2.9,0.1,4.3,0.1c0.2,0,0.5,0,0.7,0h0.4h0.9h1h0.4l-0.1,0l0.1,0c0,0,0,0,0.1,0h0.1l-0.1,0l0.1,0
			c0,0,0.1,0,0.1,0c0.1,0,0.1,0,0.2,0l1,0h0.2h0.7c2,0,4.1,0,6.2,0.2c1.2,0.1,2.3,0.2,3.3,0.2c0.2,0,0.4,0,0.6,0
			c0.6,0,1.2-0.1,1.8-0.1s1.2-0.1,1.8-0.1c0.8,0,1.5,0,2.3,0l0.9,0c0.2,0,0.3,0,0.5,0h0.5c0.3,0,0.5,0,0.8,0c1.1,0,2,0,2.8,0.1
			c0.3,0,0.6,0,1,0.1c0.7,0,1.4,0.1,2.1,0.1c0.2,0,0.3,0,0.5,0c1.1,0,2.3-0.2,3.4-0.3c1.1-0.1,2.3-0.2,3.5-0.3h0.5
			c0.2,0,0.5,0,0.7,0c0.4,0,0.7,0,1.1,0c0.7,0,1.4-0.1,2.1-0.1c0.6,0,1.4,0,2.2,0.1c0.6,0,1.1,0.1,1.8,0.1c0.4,0,0.7,0,1.1,0
			c0.7,0,1.4-0.1,2.2-0.2l0.5-0.1c0.5-0.1,1.1-0.1,1.6-0.3c0.8-0.1,1.5-0.5,2.2-0.9c0.5-0.4,1-0.9,1.3-1.5c0.3-0.5,0.6-1,0.8-1.5
			c0.1-0.2,0.2-0.4,0.3-0.6l0.1-0.1c0.1-0.1,0.2-0.2,0.2-0.3c0.1-0.1,0.1-0.2,0.2-0.4c0-0.1,0-0.2,0.1-0.4l0.1-0.2l0.1-0.2
			c0.2-0.4,0.1-0.8-0.1-1.2c0-0.4,0-0.9-0.1-1.3c0-1.1,0-2.1,0.2-3.2c0.1-0.5,0.1-1,0.1-1.5c0.1-0.7,0.1-1.5,0.1-2.2l0-0.5
			c0-0.6,0.1-1.1,0.1-1.7c0-0.8,0-1.6,0.1-2.5c0-0.3,0-0.6,0.1-0.9c0-0.6,0.1-1.3,0.1-1.9c0-0.4,0-0.7,0-1.1c0-0.5,0-1,0-1.5l0-0.2
			c0.1-0.9,0.1-1.7,0.1-2.6c0-1.1,0-2.1,0-3.2c0-0.8,0-1.6,0-2.4c0-1.1,0-2.3-0.1-3.4c0-0.8,0-1.5-0.1-2.3c0-1.1,0-1.9,0-2.8
			c0-0.3,0-0.7,0-1c0-0.6,0-1.2,0-1.7c0-0.5,0-0.9,0-1.4c0-0.5,0-1,0-1.5c0-0.9,0-1.8,0.1-2.8l0-1.3l0-1.3c0-0.7,0-1.4,0-2.1l0-0.3
			c0-0.9-0.1-1.9-0.1-2.8c0-0.7,0-1.3-0.1-2c0-0.8,0-1.5,0-2.3c0-0.5,0-1,0.1-1.5c0-0.3,0-0.6,0-0.9c0-0.9,0-1.6,0-2.3
			c0-0.9-0.1-1.7-0.2-2.5c-0.1-1.7-0.1-3.4-0.1-5.3c0-0.6,0-1.2,0.1-1.8c0-0.3,0-0.5,0-0.8c0-0.5,0-1.1,0.1-1.6c0-0.4,0-0.7,0-1.1
			c0.1-1.6,0-3.3-0.1-5.6c-0.1-1.3-0.1-2.7-0.1-4l0-1.5v-0.2c0-0.8,0-1.6,0-2.5c0-0.4,0-0.9,0-1.3c0-0.3,0-0.6,0-0.9
			c0-0.6,0-1.2,0-1.8l0-0.6c0-0.7,0-1.3,0-2c0-0.6,0-1.2,0.1-1.8l0-0.2l0-0.4c0.1-0.6,0.1-1.1,0.1-1.7c-0.1-1.6-0.2-3.1-0.3-4.7
			c-0.1-0.8-0.1-1.6-0.1-2.4c0-0.5,0-1,0-1.5c0-0.5,0-1.1,0-1.6c0-0.9,0-1.7-0.1-2.6l0-0.5c0-0.6,0-1.2,0-1.8l0-0.7
			c0-0.9-0.1-1.9-0.1-2.8c-0.1-0.7-0.1-1.5-0.1-2.2c0-0.8,0-1.5,0-2.3c0-0.9,0-1.9,0-2.8c0-0.6-0.1-1.2-0.1-1.8
			c-0.1-0.7-0.1-1.5-0.1-2.3s0-1.5,0-2.2c0-0.4,0-0.8,0-1.3c0-2.2,0-5-0.3-7.9c0-0.4,0-0.7,0-1.1c0-0.2,0-0.4,0.1-0.7
			c0-0.2,0-0.4,0-0.6c0-0.8,0-1.5,0-2.3v-0.3V49c0-0.8,0-1.6,0-2.4c0-0.6,0.1-1.2,0.2-1.7c0-0.3,0.1-0.5,0.1-0.8
			c0.1-0.8,0.1-1.5,0.1-2.3v-0.2c0-0.9,0-1.6,0-2.4c0-0.3,0-0.7-0.1-1c0-0.5-0.1-0.9-0.1-1.4c0-0.6,0-1.2,0-1.8l0-0.9l0-0.7
			c0-0.9,0-1.8,0-2.8c0-0.6,0-1.2,0.1-1.9c0-0.6,0.1-1.1,0.1-1.7c0-0.4,0-0.8,0-1.2v-0.6c0-0.6,0-1.3,0-1.9c0-0.6,0-1.1,0-1.5
			s-0.1-1-0.1-1.4c0-0.7-0.1-1.3-0.1-2.1c0-0.3,0-0.5,0-0.8c0-0.6,0-1.2,0-1.8v-0.2c0-1.3,0-2.7,0.1-4l0-0.2c0.1-0.6,0.1-1.1,0-1.7
			c0-0.4-0.1-0.7-0.1-1.1c-0.1-0.3-0.1-0.6-0.2-0.9C230.2,7,230.1,6.5,230,6c-0.1-0.4-0.2-0.8-0.4-1.3l0-0.1c0-0.1-0.1-0.3-0.2-0.4
			c-0.1-0.2-0.2-0.4-0.4-0.6c-0.3-0.3-0.6-0.6-1-0.8l-0.1,0h0c0.1-0.5-0.2-1.1-0.7-1.4c-0.2-0.1-0.5-0.2-0.7-0.2c0,0-0.1,0-0.1,0
			h-0.1c-0.1,0-0.3,0-0.4,0H226c-0.2,0-0.4,0-0.7,0c-0.1,0-0.2,0-0.3,0c-0.2,0-0.4,0-0.6,0c-0.2,0-0.3,0-0.5,0l-0.4,0
			c-0.3,0-0.6,0-0.9,0l-0.1,0c-0.4,0-0.7,0-1.1,0h-0.1c-0.2,0-0.3,0-0.5,0h-0.1c-0.1,0-0.3,0-0.4,0c-0.1,0-0.2,0-0.4,0l-0.4,0
			c-0.2,0-0.5,0-0.7,0h-0.2c-0.3,0-0.6,0-0.9,0s-0.6,0-1,0.1c-0.5,0-0.9,0.1-1.4,0.1l-0.4,0c-0.4,0-0.8,0-1.2,0c-0.4,0-0.7,0-1.1,0
			c-0.6,0-1.2,0-1.7,0h-0.7h-0.4c-0.2,0-0.4,0-0.6,0H209c-0.3,0-0.7,0-1,0.1l-0.4,0c-1.5,0.1-2.9,0.1-4.4,0.1h-0.7h-0.1
			c-0.6,0-1.3,0-1.9-0.1c-0.3,0-0.7-0.1-1-0.1c-0.3,0-0.7,0-1,0s-0.7,0-1.1,0l-0.7,0l-1.2,0c-0.7,0-1.3,0-2,0h-0.5
			c-0.8,0-1.6,0-2.4,0l-0.4,0h-0.5c-0.4,0-0.7,0-1.1,0c-0.5,0-1-0.1-1.5-0.1c-0.8-0.1-1.5-0.1-2.3-0.1h-0.3c-0.3,0-0.7,0-1,0
			c-0.8,0-1.5,0-2.2,0c-0.5,0-1,0-1.5,0.1c-0.6,0-1.1,0-1.7,0.1c-1.3,0.1-2.2,0.1-3.2,0.1h-0.1c-0.3,0-0.5,0-0.8,0s-0.5,0-0.8,0
			c-0.5,0-1.1,0-1.6,0l-0.4,0c-0.3,0-0.7,0-1,0h-0.1H170c-0.3,0-0.5,0-0.8,0c-0.2,0-0.3,0-0.5,0c-0.6,0-1.3,0-1.9,0l-0.8,0
			c-0.9,0-1.7,0.1-2.6,0.1c-1,0.1-2,0.1-2.9,0.1c-0.9,0-1.8,0-2.7,0c-0.2,0-0.4,0-0.6,0c-0.4,0-0.8,0-1.2,0c-0.3,0-0.6,0-0.8,0
			c-0.4,0-0.7-0.1-1.1-0.1l-0.4,0c-0.5-0.1-1-0.1-1.5-0.1l-0.1,0c-0.4,0-0.8,0-1.3,0c-0.4,0-0.9,0-1.4,0l-0.3,0c-0.2,0-0.4,0-0.6,0
			c-0.9,0-1.8,0-2.7-0.1s-1.8-0.1-2.7-0.1c-1,0-2,0-3-0.1c-1-0.1-1.9-0.1-3-0.1h-0.4c-0.5,0-1.1,0-1.6,0c-0.5,0-1,0-1.5,0h-0.5
			c-0.7,0-1.6,0-2.5-0.1c-0.8,0-1.6-0.1-2.3-0.1l-0.9,0c-1.1,0-2,0-2.9,0c-0.9,0-1.7,0-2.6,0s-1.7,0-2.6,0c-0.3,0-0.6,0-1,0
			c-0.9,0-1.8-0.1-3-0.2l-0.6,0c-0.8-0.1-1.7-0.1-2.5-0.1l-1.1,0c-0.7,0-1.4,0-2.1,0c-0.9,0-1.7,0-2.6,0.1l-0.5,0
			c-0.4,0-0.8,0-1.2,0.1c-0.6,0-1.2,0.1-1.8,0.1c-0.2,0-0.3,0-0.5,0c-0.3,0-0.5,0-0.8,0h-0.1c-0.2,0-0.5,0-0.7,0c-0.3,0-0.6,0-0.9,0
			c-0.5,0-0.9,0-1.4,0.1c-0.5,0-1.1,0.1-1.6,0.1c-0.3,0-0.5,0-0.8,0s-0.5,0-0.8,0c-0.2,0-0.5,0-0.7,0c-0.2,0-0.5,0-0.7,0l-0.9,0
			c-0.7,0-1.5,0-2.2,0c-0.9,0-1.7,0.1-2.6,0.1l-0.8,0c-1.3,0.1-2.7,0.1-4.4,0.1c-0.6,0-1.2,0-1.8,0c-0.7,0-1.4,0-2.1-0.1l-0.8,0
			l-0.6,0c-0.3,0-0.6,0-0.9,0c-0.2,0-0.3,0-0.5,0c-0.4,0-0.8,0-1.2,0c-0.8,0-1.6,0-2.4,0H72c-0.3,0-0.5,0-0.8,0s-0.5,0-0.8,0h-0.4
			c-0.3,0-0.6,0-1,0c-0.5,0-1.1,0-1.6-0.1c-0.5,0-0.9-0.1-1.4-0.1c-0.8,0-1.6,0-2.4,0c-0.3,0-0.6,0-1,0c-0.9,0-1.9,0.1-2.8,0.1
			l-0.3,0c-0.2,0-0.5,0-0.7,0c-0.3,0-0.6,0-0.9,0c-0.5,0-1-0.1-1.5-0.1h-0.1c-0.2,0-0.4,0-0.6,0s-0.4,0-0.6,0c-0.3,0-0.6,0-0.8,0
			s-0.6,0-0.8,0h-0.3h-1c-0.5,0-1,0-1.5,0c-0.4,0-0.9,0-1.3-0.1l-0.2,0c-0.2,0-0.4,0-0.6,0h-0.3h-0.3h-0.4h-0.4c-0.2,0-0.5,0-0.7,0
			c-0.3,0-0.6,0-0.9,0c-0.4,0-0.8,0-1.1,0c-0.6,0-1.2,0-1.7,0c-0.5,0-1,0-1.5-0.1c-0.5,0-1,0-1.5-0.1C38.9,1.1,38,1,37.2,1l-0.5,0
			l-0.9-0.1c-0.8-0.1-1.5-0.1-2.3-0.1c-0.5,0-1.1,0-1.6,0h-0.8h-0.6c-1,0-2,0-3,0c-0.2,0-0.5,0-0.7,0c-0.2,0-0.4,0-0.7,0H26
			c-0.4,0-0.7,0-1.1,0c-0.7,0-1.4-0.1-2-0.1l-0.8-0.1c-0.7-0.1-1.5-0.1-2.2-0.2c-1.2-0.1-2.4-0.2-3.6-0.3l-0.5,0
			c-0.2,0-0.4,0-0.7-0.1c-0.2,0-0.4,0-0.6,0C14.3,0,14.2,0,14,0z M18.2,184.9L18.2,184.9h-0.1c-0.2,0-0.5,0-0.7-0.1l-0.2,0l-0.2,0
			c-0.1-0.4-0.1-0.9-0.2-1.3c-0.1-0.8-0.1-1.5-0.1-2.3c0-0.3,0-0.7,0.1-1.1c0-0.5,0.1-0.9,0.1-1.4c0-0.6,0-1.3-0.1-1.9l0-0.7l0-0.4
			c0-0.7-0.1-1.4,0-2.1l0-0.6v-0.1c0-0.6,0.1-1.3,0.1-2c0-0.6,0-1.2-0.1-1.9l0-0.6c-0.1-2-0.1-3.7-0.1-5.2c0-0.9,0-1.7,0-2.6l0-0.6
			v-0.2c0-0.6,0-1.2,0-1.8c0-1-0.1-2-0.2-3l0-0.1l0-0.1l0-0.1l0-0.1c-0.1-0.7-0.1-1.5-0.2-2.2c-0.1-0.8-0.1-1.6,0-2.5
			c0-0.2,0-0.5,0-0.7l0-0.3l0-0.4c0-0.3,0-0.7,0-1v-0.3c0-1,0-2,0-2.9c0-0.4,0-0.9-0.1-1.4v-0.1l0-0.1l0-0.2c0-0.4,0-0.7-0.1-1.1
			c0-0.5,0-1,0-1.5v-0.2c0-0.3,0-0.6,0-1c0-1-0.1-2-0.1-3c-0.1-1.6-0.1-3.4-0.1-5.2c0-0.4,0-0.9,0.1-1.3l0-0.2c0-0.3,0-0.6,0-0.9
			c0-0.9,0-1.8,0-2.8c0-0.7,0-1.3-0.1-2c0-1.2-0.1-2.3-0.1-3.5l0-0.8c0-0.6,0-1.2-0.1-1.7c0-0.3,0-0.7-0.1-1l0-0.2
			c0-0.5-0.1-1-0.1-1.5l0-0.9v-0.1V114v-0.1c0-1.4-0.1-2.8,0-4.1c0-1.9-0.1-3.7-0.2-5.5l0-0.1l0-0.1V104c-0.1-1.6-0.2-3.3-0.1-5
			c0-1.1,0.1-2.1,0.1-3.2c0-0.7,0.1-1.5,0.1-2.2c0-0.8,0-1.7,0-2.7c0-0.9,0-1.7,0-2.7l0-1.6l0-0.5c0-1.1,0-2.1,0-3.2
			c0-0.8,0-1.7-0.1-2.4v-0.1v-0.1l0-0.3c0-0.9,0-1.8,0-2.7c0-0.7,0-1.4,0-2.1V75v-0.4c0-0.8,0-1.8,0-2.6l0-1.4l0-0.5
			c0-1.2,0-2.3,0.1-3.5l0-1.1l0-1.5c0-0.4,0-0.7,0-1.2v-0.2v-0.2c0-0.4,0-0.8,0-1.2c0-1.3,0-2.8,0.1-3.9v-0.1l0-0.3v-0.1v-0.1l0-1
			l0-0.4l0-0.4c0-0.6,0-1.3,0-1.9c0-0.9,0-1.8,0-2.8c0-1.4,0-2.9,0-4.1v-0.1v-0.1l0-1c0-1.1,0-2.2,0-3.4c0-0.6,0-1.3,0-1.9
			c0-0.8,0-1.7,0-2.5s0-1.7,0.1-2.6c0.1-1.1,0.1-2.3,0.2-3.6c0-0.6,0-1.2,0-1.8l0-0.3c0-0.4,0-0.8,0-1.2c0-0.3,0-0.5,0.1-0.8
			c0-0.2,0-0.4,0-0.5c0-0.5,0-1.1,0-1.6c0-0.1,0-0.2,0-0.4l0-0.1l0-0.1c0-0.3-0.1-0.6-0.1-0.9c0-0.5,0-1.1,0.1-1.6l0.1-0.6l0.1-1
			l0-0.2c0-0.3,0.1-0.6,0.1-0.8c0-0.4-0.1-0.9-0.2-1.3c0-0.7,0-1.4,0.1-2.1l0,0c1.6,0.1,3.4,0.3,5.5,0.4l0.2,0
			C23.2,16,24.2,16,25,16h0.1c1.1,0,2.1,0,2.9-0.1c0.4,0,0.8,0,1.2,0c0.3,0,0.6,0,1,0h0.2l0.7,0c1,0,2.1,0,3.1,0l0.7,0l0.3,0
			c0.4,0,0.8,0,1.3,0c0.3,0,0.5,0,0.8,0c0.7,0,1.5,0,2.2-0.1l0.3,0l0.8,0c0.5,0,0.9,0,1.4-0.1c0.6,0,1.1-0.1,1.7-0.1
			c1,0,2.1,0,3.1,0c0.6,0,1.1,0,1.7,0h0.3h0.1h0.5c0.5,0,0.9,0,1.4,0c0.7,0,1.4,0,2,0c0.7,0,1.5,0,2.3,0c1,0,2,0,3,0h0.2l0.4,0h0.2
			h0.1c0.7,0,1.5,0,2.2,0h0.4c1.2,0,2.3,0,3.5,0l0.2,0l0.1,0c1.6,0.1,3.4,0.1,5.1,0.1c0.3,0,0.6,0,0.9,0c1.1,0,2.2,0,3.2-0.1
			c0.5,0,1,0,1.4-0.1l0.2,0l0.4,0l0.1,0l0.3,0l0.3,0l0.3,0c0.4,0,0.8,0,1.3,0c0.4,0,0.8,0,1.2,0h0.3h0.1l0.3,0c1,0,2.1,0.1,3.1,0.1
			c0.9,0,2.1,0.1,3.3,0.1c1.1,0,2.1,0,3,0c0.9,0,1.8,0,2.6,0c1.2,0,2.5,0,3.8,0.1l0.4,0h0.1l0.2,0c0.6,0,1.5,0.1,2.4,0.1h0.4
			c1,0,1.9,0,2.8,0c1.1,0,2,0,2.8,0c0.9,0,1.9,0,3.4,0l0.4,0l0.4,0l0.4,0l0.4,0c0.8,0,2,0.1,3,0.1c0.5,0,1,0,1.5,0
			c0.6,0,1.2,0,1.8-0.1h0.1c0.5,0,0.9,0,1.4-0.1s0.9,0,1.4,0c0.6,0,1.1,0,1.7,0c0.8,0,1.7,0.1,2.7,0.1h0.1l0.2,0l0.2,0
			c1,0.1,2,0.1,3,0.1c0.6,0,1.2,0,1.8,0h0.1h0.1h0.1h0.1c1.2,0,2.1,0,2.9,0c0.3,0,0.6,0,1,0c0.2,0,0.4,0,0.5,0c0.6,0,1.2,0,1.9,0
			l0.5,0c1,0,2,0,3,0.1l0.4,0c0.9,0,1.8,0,2.6,0c0.5,0,1.1,0.1,1.7,0.1h0.1c0.4,0,0.8,0.1,1.2,0.1c0.7,0,1.5,0.1,2.2,0.1l1,0
			c0.3,0,0.7,0,1,0c0.3,0,0.6,0,1,0h0.1h0.4c0.2,0,0.4,0,0.6,0c1.3,0,2.6,0.1,3.9,0.1h0.1c0.7,0,1.5,0.1,2.2,0.1l0.7,0
			c0.8,0,1.5,0.1,2,0.1h0.4c1.1,0,2.2,0,3.3-0.1c0.1,0,0.2,0,0.2,0c0.2,0,0.4,0,0.6,0h0.1h0.1l0.3,0l0.4,0c0.4,0,0.8,0,1.2,0
			c1,0.1,2,0.1,3,0.2l1.1,0l0.2,0c1.1,0,3,0.1,4.7,0.1h0.2c0.4,0,0.8,0,1.2,0h0.4h0.1h0.4c0.4,0,0.8,0,1.2,0c0.9,0,1.8,0,2.7,0.1
			c2,0.1,3.8,0.2,5.6,0.2c1,0,2.1,0,3.1,0.1l0.5,0c0.3,0,0.7,0,1,0l0.4,0c0.6,0,1.3,0,1.9,0c0.5,0,0.9,0.1,1.4,0.1
			c0.6,0,1.2,0.1,1.7,0.1c0.2,0,0.3,0,0.4,0c0.5,0,1,0,1.5-0.1c0.2,0,0.4,0,0.6-0.1l0.1,0l0.1,0l0.1,0c0.2,0,0.4-0.1,0.6-0.1
			c0.6,0,1-0.1,1.4-0.1c0.1,0,0.3,0,0.4,0l0.5,0l0.1,0c0.4,0,0.8,0,1.2,0c0.3,0,0.6,0,0.9,0c0.2,0,0.5,0,0.7,0h0.1
			c0.4,0,0.8,0,1.3,0.1l0.2,0l0.1,0l0.2,0l0.2,0l0.2,0l0.1,0c0.3,0,0.7,0.1,1.1,0.1h0.1c0.2,0,0.3,0,0.5,0l0.3,0c0.1,0,0.2,0,0.2,0
			c0.2,0,0.5,0,0.7,0c0.5,0,1.1,0,1.7,0.1c0.2,0,0.3,0,0.5,0l0.3,0c0,0,0.1,0,0.1,0l0,0.4l0,0.3c0,0.4,0,0.9,0,1.3v0.1
			c0,0.3,0,0.6,0,1c0,1,0.1,1.9,0.1,2.7v0.2c0,0.8,0.1,1.5,0.1,2.3c0,0.8,0,1.7,0,2.6l0,0.4l0,0.4c0,0.5,0,1.1,0.1,1.6
			c0,0.7,0,1.4-0.1,2.1v0.1v0.1l0,0.3c-0.1,0.9-0.1,1.7,0,2.6l0.1,1.2l0,0.4l0,0.3l0,0.3c0,0.2,0,0.4,0,0.6l0,0.8
			c0,0.6,0.1,1.2,0.1,1.8c0,0.6,0,1.2,0,1.8c0,0.2,0,0.5,0,0.7v0.8c0,0.6,0,1.1,0,1.7c0,0.7,0,1.5,0.1,2.2l0,0.5l0.1,0.9l0,0.1
			l0,0.1c0.1,1.3,0.2,2.7,0.2,4l0,0.3v0.1v0.1v0.1v0.2c0,0.5,0,1.1,0,1.7c0,0.9,0,1.7,0.1,2.6c0,1,0,1.9,0,2.8c0,0.6,0,1.1-0.1,1.7
			l0,0.2l0,0.7l0,0.1c0,0.7-0.1,1.5-0.1,2.3c0,0.9,0,1.7,0,2.6c0,0.5,0,1,0,1.6c0,0.3,0,0.6,0,0.9c0,0.8,0,1.6,0,2.2v0.1v0.1V75v0.1
			c0,0.5,0,0.9,0,1.4c0,0.2,0,0.4,0,0.5c0,0.2,0,0.5,0,0.7v0.1c0,1,0.1,1.8,0.1,2.6c0,0.7,0,1.4,0,2.2v0.1v0.1v0.1v0.1v0.1v0.2
			c0,0.7,0,1.4,0,2.1c0,0.5,0,1.1,0.1,1.6l0,0.2c0,0.2,0,0.5,0,0.7l0,0.5v0.1l0,0.2l0,0.2c0,0.5,0,1.1,0,1.6c0,0.5,0,0.9,0,1.5
			l0,0.2v0.1v0.1c0,0.3,0,0.5,0,0.8c0,0.8,0,1.6,0,2.7c0,0.6,0,1.2,0.1,1.8l0,0.3v0.1V98c0,1,0.1,2,0.1,3c0,1.6,0,3.3,0,4.9v0.4
			c0,1.4,0,2.8-0.1,4.2l0,0.3l0,0.2v0.2l0,0.2c0,0.6,0,1.2-0.1,1.8l0,1c0,0.8-0.1,1.6,0,2.7v0.5c0,0.7,0,1.4,0,2.1
			c0,0.5,0,1.1-0.1,1.6l0,0.2c0,0.3,0,0.5,0,0.8c0,1.1,0,2.3,0,3.3v0.1v0.1v0.1c0,0.5,0,1,0,1.5c0,1,0,2.1-0.1,2.9l0,0.2v0.1l0,0.2
			l0,0.5l0,0.3l0,0.2c0,0.1,0,0.3,0,0.4c0,0.9,0,1.7,0,2.6c0.1,0.9,0.1,1.8,0.1,2.7c0,1.3-0.1,2.6-0.2,3.6c0,0.4-0.1,0.8-0.1,1.2
			c0,0.3,0,0.5,0,0.8v0.4c0,0.6,0,1.2,0,1.9l0,0.6c0,0.8,0,1.5-0.1,2.3l0,0.5c0,0.8-0.1,1.5-0.1,2.3c0,0.7,0,1.5,0,2.2
			c0,1,0,2.1-0.1,3.1c0,0.7-0.1,1.4-0.1,2.1l0,0.1l0,0.1c-0.1,0.9-0.1,1.8-0.2,2.7c0,0.9,0,1.8-0.1,2.8c-0.1,0.9-0.1,1.8,0,2.7
			c0,0.6,0,1.1,0.1,1.7v0.2v0.1l0,0.6c0,0.9,0,1.9-0.1,2.6l-0.1,0.6c-0.1,0.8-0.2,1.6-0.2,2.4c0,0.5,0,1,0.1,1.4
			c0,0.2,0,0.3,0.1,0.5l0,0.2c0,0.3,0.1,0.6,0.1,0.9c0,0.4,0,0.7,0,1.1c0,0.2,0,0.4,0,0.7c0,0.3,0,0.6,0,0.9c0,0.2,0,0.4,0,0.6
			c0,0.4,0,0.8,0,1.3v0.2v0.3v0.1v0.1c0,0.2,0,0.4,0,0.5l0,0.3l-0.1,1l-0.1,0.6l-0.5,0l-0.5,0c-0.7,0-1.5-0.1-2.3-0.1l-0.2,0l-0.2,0
			c-0.4,0-0.7-0.1-1.1-0.1c-1.4-0.1-2.6-0.1-4.3-0.1c-0.6,0-1.3-0.1-1.9-0.1c-0.5-0.1-1.2-0.1-2-0.2c-1-0.1-2.1-0.1-3.3-0.1
			c-0.4,0-0.9,0-1.3,0c-0.2,0-0.4,0-0.7,0h-0.5c-0.8,0-1.6,0-2.4,0l-1.3,0l-0.3,0c-0.6,0-1.3,0-1.9,0h-0.1c-0.8,0-1.6,0-2.5,0
			l-0.8,0H186h-0.1l-0.3,0c-0.3,0-0.5,0-0.8-0.1l-0.1,0l-0.2,0l-0.1,0l-0.3,0c-1.5-0.1-3.2-0.2-5.1-0.2c-0.2,0-0.4,0-0.6,0l-0.2,0
			h-0.4c-0.4,0-0.7,0-1.1,0c-0.8,0-1.4,0-2,0l-0.4,0c-1.3,0.1-2.3,0.1-3.3,0.1c-0.6,0-1.2,0-1.8,0h-0.2l-0.2,0l-0.2,0
			c-0.6,0-1.1,0-1.7-0.1c-0.3,0-0.5,0-0.8,0c-0.4,0-0.9,0-1.3,0c-0.6,0-1.2,0-1.8,0l-0.8,0h-0.5c-0.7,0-1.5,0-2.2,0l-0.1,0h-0.1
			l-0.1,0c-0.1,0-0.2,0-0.4,0c-0.4,0-0.8,0-1.2,0h-0.1h-0.1l-0.5,0h-0.1c-0.7,0-1.4,0-2.2,0h-0.1h-0.2c-0.6,0-1.2,0-1.9,0
			c-0.4,0-0.8,0-1.1,0c-0.4,0-0.8,0-1.2,0H149h-0.8h-0.9h-0.9c-0.5,0-1,0-1.5,0c-0.4,0-0.9,0-1.3,0.1l-0.2,0c-0.5,0-1,0-1.5,0.1
			c-1,0-1.9,0.1-2.8,0.1c-1.9,0.1-3.7,0.2-5.6,0.2c-0.4,0-0.9,0-1.3,0c-0.4,0-0.8,0-1.1,0c-0.6,0-1.2,0-1.8,0l-0.7,0
			c-0.8,0-1.5,0-2.5,0.1h-0.1l-0.9,0c-0.5,0-1,0.1-1.5,0.1l-0.2,0c-0.6,0-1.3,0.1-1.9,0.1c-0.8,0-1.5,0-2.3,0h-0.3
			c-1.2,0-2.3,0-3.5,0c-0.2,0-0.5,0-0.7,0c-0.6,0-1.2,0-1.8,0c-0.4,0-0.9,0-1.3,0H111c-1.1,0-2,0-2.7,0.1c-1.1,0-2.3,0.1-3.4,0.1
			c-0.7,0-1.4,0-2,0l-0.5,0c-0.3,0-0.7,0-1,0c-0.1,0-0.2,0-0.3,0c-0.3,0-0.6,0-0.9,0l-0.1,0c-0.2,0-0.5,0-0.7,0l-0.5,0
			c-0.5,0-1,0-1.5,0h-0.2h-0.6h-0.1h-0.4h-0.3h-0.3c-0.5,0-1,0-1.4,0h-0.6h-0.5c-0.4,0-0.8,0-1.2,0c-0.6,0-1.2-0.1-1.7-0.1l-0.1,0
			l-0.1,0l-0.2,0l-0.3,0c-1.2-0.1-2.8-0.2-4.3-0.2c-1.3,0-2.7-0.1-4-0.1H81l-0.1,0l-0.3,0c-0.5,0-1,0-1.7,0c-0.6,0-1.2,0-1.8,0h-0.3
			c-0.8,0-1.8,0-2.4-0.1l-0.2,0l-0.3,0c-0.6,0-1.1,0-1.7-0.1H72c-0.3,0-0.7,0-1,0c-0.5,0-1,0-1.3,0l-0.2,0l-0.2,0
			c-0.6,0-1.2,0.1-1.8,0.1c-1,0-2.1,0-3.3-0.1c-0.8,0-1.5-0.1-2.3-0.1c-0.4,0-0.8,0-1.2,0c-1.5,0-2.8,0-4.1-0.1
			c-0.5,0-0.9,0-1.4-0.1c-0.9,0-1.7-0.1-2.5-0.1h-0.1c-0.8,0-1.6,0-2.4-0.1l-0.1,0c-0.5,0-1-0.1-1.5-0.1c-0.4,0-0.8,0-1.1,0
			c-0.4,0-0.8,0-1.3,0c-0.3,0-0.6,0-0.8,0l-0.1,0l-0.2,0l-0.2,0l-0.2,0c-0.4,0-0.7,0-1.1-0.1h-0.1l-0.2,0l-0.1,0l-0.1,0
			c-0.4,0-0.9-0.1-1.3-0.1c-0.1,0-0.3,0-0.4,0c-0.5,0-1,0-1.5,0.1c-0.3,0-0.6,0-0.9,0.1c-1.2,0-2.4-0.1-3.3-0.2h-0.1l-0.1,0l-0.1,0
			l-0.1,0l-0.1,0c-0.4,0-0.9-0.1-1.3-0.1c-0.2,0-0.4,0-0.6,0c-0.3,0-0.5,0-0.8,0l-0.4,0c-0.5,0-0.9,0-1.4-0.1l-0.1,0l-0.1,0l-0.1,0
			l-0.6,0c-0.3,0-0.7,0-1,0c-0.1,0-0.2,0-0.3,0c-0.4,0-0.8,0.1-1.2,0.1l-0.1,0l-0.2,0c-0.3,0-0.6,0.1-1,0.1c-0.3,0-0.6,0-0.9,0h-0.1
			l-0.4,0c-0.4,0-0.7,0-1.1,0.1l-0.1,0l-0.1,0l-0.1,0l-0.1,0c-0.4,0-0.7,0.1-1,0.1c-0.2,0-0.3,0-0.5,0h-0.9l-0.6,0h-0.1l-0.5,0
			C18.9,184.9,18.6,184.9,18.2,184.9L18.2,184.9z"/>
		<path class="st0" d="M1.9,184.6c-0.3,0.2-0.5,0.5-0.5,0.9c-0.1,0.4-0.2,0.9-0.1,1.3c0,0.2,0,0.4,0,0.6c0,0.3,0.1,0.5,0.1,0.8
			c0.1,0.2,0.1,0.4,0.2,0.6c0,0.3,0.1,0.6,0.1,0.9l0-0.4c0,0.2,0,0.4,0,0.6c0,0.1,0,0.3,0,0.4l0-0.2c0,0.2-0.1,0.4-0.1,0.7
			c0,0.1,0,0.1,0,0.2c0,0.1,0,0.2,0,0.3v0c0,0.2,0,0.4,0,0.6c0,0.1,0,0.1,0,0.2c0,0.1,0,0.2,0,0.3c0,0,0,0.1,0,0.1
			c0,0.1,0,0.1,0,0.2c0,0,0,0.1,0,0.1c0,0.1,0,0.2,0,0.3c0,0.2,0,0.4,0,0.6c0,0.1,0,0.2,0,0.3s0,0.2,0,0.3c0,0.1,0,0.2,0.1,0.3
			c0,0.1,0,0.3,0,0.4c0,0.2,0.1,0.4,0.1,0.5v0c0,0.2,0,0.5,0,0.7c0,0.4,0.1,0.7,0.3,1c0.1,0.4,0.3,0.7,0.5,1
			c0.1,0.1,0.2,0.3,0.3,0.4c0.1,0.1,0.1,0.2,0.2,0.3c0.1,0.1,0.2,0.2,0.3,0.3c0.2,0.2,0.4,0.4,0.7,0.5c0.1,0,0.3,0.1,0.4,0.1
			c0.4,0.2,0.8,0.4,1.3,0.5c0.2,0,0.4,0.1,0.6,0.1c0.1,0,0.2,0,0.3,0c0.2,0,0.3,0,0.5,0c0,0,0.1,0,0.1,0c0.3,0,0.5,0,0.8,0
			c0.2,0,0.4-0.1,0.6-0.1c0.4,0,0.8,0,1.1,0c0.2,0,0.4-0.1,0.6-0.1c0.3,0,0.5,0,0.8,0l-0.2,0c0.2,0,0.5,0,0.7,0c0.1,0,0.3,0,0.4,0
			s0.3,0,0.4,0c0.3,0,0.7,0.1,1,0.1c0.4,0,0.9,0.1,1.3,0.1l-0.4,0c0.3,0,0.6,0,0.9,0l-0.4,0c0.4,0,0.9,0.1,1.3,0.1l-0.4,0
			c0.3,0,0.7,0,1,0.1h-0.1c0.5,0,1,0.1,1.5,0.1h-0.1h0.1l0.2,0l1,0l-0.2,0c0.3,0,0.6,0,0.8,0l-0.4,0c0.2,0,0.5,0,0.7,0
			c0.3,0,0.6,0,0.9,0l0.3,0h0h0.1h0.1c0.4,0,0.8,0,1.2,0c0.2,0,0.4,0,0.5,0c0.2,0,0.4,0,0.6,0h0.2c0.5,0,1,0.1,1.5,0.1l-0.2,0
			c0.6,0,1.1,0.1,1.7,0.1c0.2,0,0.4,0,0.6,0c0.3,0,0.5,0,0.8,0c0.2,0,0.3,0,0.5,0c0.4,0,0.9,0,1.3,0c0.4,0,0.8,0,1.1,0
			c0.8,0,1.5,0.1,2.3,0.1c0.1,0,0.2,0,0.3,0c0.5,0,0.9,0,1.4,0.1c0.4,0,0.7,0,1.1,0c0.2,0,0.4,0,0.7,0c0.1,0,0.3,0,0.4,0
			c0.4,0,0.8,0,1.2,0h0l0.6,0l-0.3,0c1,0,1.9,0,2.9-0.1c0.6,0,1.1-0.1,1.7-0.1c0.5,0,1,0,1.6,0c0.8,0,1.6,0.1,2.3,0.1
			c0.3,0,0.7,0,1,0c0.2,0,0.4,0,0.6,0c0.2,0,0.4,0,0.5,0c0.7,0,1.4,0,2.1,0c0.6,0,1.3,0,1.9,0c0.5,0,1,0.1,1.5,0.1
			c0.7,0,1.3,0,2,0.1l0.4,0h-0.1c0.6,0,1.2,0.1,1.8,0.1l-0.2,0l0.2,0l0.2,0h-0.2c0.8,0,1.7,0,2.5,0c0.5,0,1.1,0,1.6,0
			c0.6,0,1.3,0,1.9-0.1s1.3,0,1.9,0l0.5,0c1.5,0.1,3.1,0.1,4.6,0.1c1.7,0,3.4-0.1,5.1-0.1c1,0.1,2.1,0.1,3.1,0.2c0.7,0,1.3,0,2,0.1
			c0.3,0,0.6,0,0.8,0c0.3,0,0.6,0,1,0l-0.3,0c0.4,0,0.8,0,1.2,0c0.6,0,1.2,0,1.7,0c0.2,0,0.4,0,0.6,0c0.4,0,0.7,0,1.1,0
			c1,0,2,0.1,3,0.1c0.5,0,0.9,0,1.4,0s1,0,1.5-0.1c1,0,1.9,0,2.9,0c0.9,0,1.9,0,2.8,0l0.7,0c0.6,0,1.2,0,1.8,0.1c0.3,0,0.5,0,0.8,0
			c0.8,0,1.6,0,2.4,0.1c0.9,0,1.7-0.1,2.6-0.1c0.6,0,1.3-0.1,1.9-0.1c0.9,0,1.7,0,2.6,0l0,0c0.7,0,1.5,0,2.2,0c0.4,0,0.8,0,1.2-0.1
			c0.4,0,0.7,0,1.1,0c0.7,0,1.3,0,2,0c0.7,0,1.4,0,2.1,0H122c0.4,0,0.9,0,1.3,0c0.9,0,1.9,0.2,2.8,0.1c0.5,0,1-0.1,1.5-0.1
			c0.6,0,1.1-0.1,1.7-0.1c0.5,0,1.1-0.1,1.6-0.1s1.1-0.1,1.6-0.2c0.5-0.1,1-0.2,1.4-0.2c0.5-0.1,1-0.1,1.4-0.1c0.7,0.1,1.4,0,2-0.1
			c0.5,0,1-0.4,1.3-0.9c0.1-0.2,0.1-0.5,0.1-0.8c0.4,0,0.7-0.1,1.1-0.1c0.5,0,1,0,1.6-0.1s1-0.2,1.6-0.3l0.4-0.1
			c0.7-0.3,1-1,0.8-1.7c-0.1-0.2-0.2-0.4-0.4-0.6c-0.3-0.2-0.6-0.3-1-0.3c-0.4,0.1-0.9,0.2-1.3,0.3c-0.5,0.1-0.9,0.1-1.4,0.1
			c-0.5,0-0.9,0-1.4,0.1c-0.4,0-0.8,0.1-1.2,0.2c-0.8,0.1-1.7,0.2-2.5,0.3c-0.8,0.1-1.5,0.2-2.3,0.2c-0.4,0-0.7-0.1-1.1-0.1
			c-0.2,0-0.4,0-0.6,0.1c-0.5,0.2-0.8,0.6-0.9,1.1c0,0.1,0,0.3,0,0.4c-0.8,0-1.6,0.1-2.4,0.2c-0.8,0.1-1.6,0.2-2.3,0.2
			c-0.5,0-1-0.1-1.5-0.1c-0.6,0-1.2,0-1.9,0h0.1c-0.7,0-1.4,0-2.1,0c-0.4,0-0.9,0-1.3,0c-0.2,0-0.4,0-0.7,0c-0.3,0-0.7,0-1,0
			c-0.4,0-0.8,0-1.2,0c-0.8,0-1.6,0-2.3,0c-0.8,0-1.7-0.1-2.5-0.1c-0.6,0-1.2,0-1.8,0.1c-1.6,0.1-3.2,0.1-4.8,0.1
			c-0.4,0-0.7,0-1.1,0l0.4,0c-0.5,0-1.1,0-1.6,0c-0.3,0-0.6,0-0.9,0c-0.9,0-1.8,0-2.7,0c-0.9,0-1.7,0-2.6,0c-0.9,0-1.9,0.1-2.8,0.1
			c-0.8,0-1.6,0-2.4,0c-0.8,0-1.6-0.1-2.4-0.1c-0.6,0-1.1,0-1.7,0c-0.5,0-1,0-1.6-0.1l0.4,0c-0.7,0-1.3,0-2,0c-0.5,0-1,0-1.5,0
			c-1.1-0.1-2.2-0.1-3.4-0.2c-1.3-0.1-2.5,0-3.8,0c-2,0-4,0-6,0c-0.3,0-0.5,0-0.8,0l0.2,0c-0.7,0-1.3,0-2,0c-0.6,0-1.3,0.1-1.9,0.1
			c-0.3,0-0.6,0-0.8,0c-0.5,0-0.9,0-1.4,0c-0.7,0-1.3,0-2,0h-0.2c-0.6,0-1.2-0.1-1.8-0.1l0.3,0c-0.5,0-1.1,0-1.6,0
			c-0.8,0-1.5-0.1-2.2-0.2c-0.9,0-1.8,0-2.7,0c-0.8,0-1.6,0-2.3,0c-0.5,0-0.9,0-1.4,0c-0.4,0-0.8,0-1.2,0c-0.7,0-1.3-0.1-2-0.1
			c-0.7,0-1.4,0-2.1,0.1c-1.1,0.1-2.1,0.1-3.2,0.1c-0.2,0-0.3,0-0.5,0h0.1c-0.4,0-0.9,0-1.3,0c-0.3,0-0.6,0-0.8,0
			c-0.3,0-0.6,0-0.9,0s-0.6,0-0.9,0c-0.4,0-0.7,0-1.1,0l-0.4,0c-0.8,0-1.5-0.1-2.3-0.1c-0.3,0-0.7,0-1,0s-0.6,0-0.9,0
			c-0.2,0-0.4,0-0.6,0H29c-0.5,0-1,0-1.5,0H27c-0.5,0-1-0.1-1.5-0.1l0.3,0c-0.6,0-1.2-0.1-1.8-0.1l0.4,0c-0.5,0-0.9,0-1.4,0
			c-0.4,0-0.8,0-1.2,0h0c-0.4,0-0.8,0-1.3,0c-0.2,0-0.3,0-0.5,0l0.4,0c-0.4,0-0.7,0-1.1,0h0.1c-0.2,0-0.4,0-0.6,0
			c-0.2,0-0.3,0-0.5,0c-0.5,0-1-0.1-1.4-0.1l0.2,0c-0.4,0-0.8,0-1.3-0.1l0.3,0c-0.4,0-0.8-0.1-1.2-0.1c-0.2,0-0.4,0-0.6,0l0.4,0
			c-0.3,0-0.7-0.1-1-0.1c-0.2,0-0.4-0.1-0.6-0.1c-0.3,0-0.5-0.1-0.8,0c-0.2,0-0.4,0-0.6,0c-0.2,0-0.5,0-0.7,0.1l0.4,0
			c-0.3,0-0.6,0-0.9,0c-0.2,0-0.4,0-0.6,0c-0.3,0-0.5,0-0.8,0H9c-0.3,0-0.6,0-0.8,0c-0.2,0-0.4,0.1-0.6,0.1l-0.1,0
			c-0.2,0-0.3,0-0.5,0c0,0-0.1,0-0.1,0c-0.2,0-0.4-0.1-0.6-0.1c-0.1-0.1-0.3-0.1-0.4-0.2c-0.2-0.1-0.4-0.1-0.6-0.2l0,0
			c0,0,0-0.1-0.1-0.1c0-0.1-0.1-0.2-0.1-0.2c0,0-0.1-0.1-0.1-0.1c0-0.1-0.1-0.1-0.1-0.2c-0.1-0.3-0.2-0.5-0.3-0.8c0,0,0-0.1,0-0.1
			c0-0.2,0-0.4,0-0.6c0-0.2-0.1-0.4-0.1-0.6c0-0.1,0-0.2,0-0.2c0-0.1,0-0.3-0.1-0.4c0-0.1,0-0.2,0-0.3c0-0.1,0-0.1,0-0.2v0
			c0-0.2,0.1-0.4,0.1-0.5c0-0.2,0-0.4,0-0.5c0-0.1,0-0.3-0.1-0.4c0-0.1,0-0.1,0-0.2c0,0,0-0.1,0-0.1c0-0.3,0-0.5,0-0.8v0l0,0.1
			c0,0,0-0.1,0-0.1c0-0.2,0-0.3,0-0.5l0,0.2c0-0.3,0-0.6,0-0.9c0,0.1,0,0.2,0,0.4c0-0.4,0-0.8,0-1.2c-0.1-0.4-0.2-0.9-0.3-1.3
			c0-0.1,0-0.3,0-0.4l0-0.2c0-0.3,0-0.6,0.1-0.9c0.1-0.4,0-0.7-0.2-1c-0.2-0.3-0.5-0.5-0.9-0.5c-0.1,0-0.1,0-0.2,0
			C2.5,184.3,2.2,184.4,1.9,184.6L1.9,184.6z M4.2,190.8L4.2,190.8L4.2,190.8C4.2,190.8,4.2,190.8,4.2,190.8z M4.3,193.9L4.3,193.9z
			 M67.8,198.6H68H67.8z"/>
		<path class="st1" d="M30.2,29.1c-0.2,0-0.4,0.1-0.5,0.2c0,0.4,0,0.8,0,1.2c0,0.6,0,1.2-0.1,1.7c0,0.3,0,0.7,0,1l0,0.1
			c0,0.2,0,0.3,0,0.5c0,0.3,0,0.7,0,1c0,0.1,0,0.2,0,0.4c0,0.3,0,0.5,0,0.8c0,0.7,0,1.3,0.1,2l0.1,0c0.7,0.3,1.4,0.5,2,0.9
			c0.6,0.3,1.2,0.6,1.8,1l0.1,0.1c1.2,0.6,2.4,1.1,3.7,1.5l0.6,0.2c0.5,0.2,1,0.4,1.6,0.6l0.2,0.1c0.2,0.1,0.4,0.2,0.7,0.3
			c0.2,0.1,0.5,0.2,0.7,0.3l0.1,0l0.2,0c0.7,0.2,1.4,0.5,2,0.7l0.1,0l0.1,0l0.5,0.2l0.5,0.2c0.3,0.1,0.6,0.2,0.9,0.3l0.1,0
			c0.3,0.1,0.6,0.2,0.9,0.3c0.2,0.1,0.5,0.2,0.7,0.2l0.1,0l0.1,0c0.3,0.1,0.5,0.2,0.8,0.2c0.1,0,0.2,0.1,0.4,0.1l0.1,0l0.1,0
			c0.1,0.1,0.3,0.1,0.4,0.2l0.1,0l0,0l0,0h0l0,0l0,0l0,0l-0.5,0.2c-0.7,0.3-1.5,0.7-2.3,1l-0.3,0.2c-0.5,0.2-1.1,0.5-1.7,0.8
			c-0.2,0.1-0.3,0.2-0.5,0.3L44,48.2c-0.4,0.2-0.8,0.4-1.1,0.6c-0.5,0.2-0.9,0.4-1.4,0.6l-0.1,0l-0.1,0.1l-0.2,0.1
			c-0.5,0.2-1.1,0.5-1.6,0.8c-0.4,0.2-0.7,0.4-1.1,0.6l-0.3,0.2c-0.4,0.2-0.8,0.4-1.2,0.5l-0.1,0c-0.2,0.1-0.4,0.2-0.7,0.3
			c-0.4,0.2-0.9,0.4-1.2,0.6l-0.1,0c-0.2,0.1-0.4,0.2-0.5,0.3c-0.3,0.1-0.5,0.2-0.8,0.3l-0.6,0.2c-0.2,0.1-0.3,0.1-0.5,0.2l-0.1,0
			c-0.1,0-0.3,0.1-0.4,0.1l-0.2,0.1l-0.1,0l-0.1,0l-0.1,0l-0.1,0c-0.1,0-0.2,0-0.3,0H31c-0.1,0-0.2,0-0.3,0l0,0.2
			c0,0.2,0,0.4,0.1,0.6c0,0.2,0,0.4,0,0.6l0,0.3l0,0.3c0.1,0.6,0.1,1.2,0,1.8c0,0.6,0,1.1,0,1.8v0.5c0,0.2,0,0.4,0,0.6v0.1
			c0,0.2,0,0.4,0,0.5c0,0.3,0,0.6,0.1,0.9l0,0.2c0,0.4,0.1,0.8,0.1,1.3l0,0.1l0,0.3l0,0.5l0,0.1c0.5-0.1,1-0.3,1.4-0.5
			c0.1-0.1,0.2-0.1,0.3-0.2l0.1-0.1l0.1,0l0.1,0l0.1,0c0.2-0.1,0.3-0.2,0.5-0.3c0.3-0.1,0.6-0.3,0.9-0.4l0.3-0.1
			c0.5-0.2,0.9-0.4,1.5-0.7c0.4-0.2,0.8-0.4,1.3-0.7l0.1,0c0.4-0.2,0.9-0.5,1.5-0.7c0.6-0.3,1.2-0.5,1.7-0.7l0.1,0
			c0.4-0.1,0.8-0.3,1.2-0.4s0.7-0.3,1.1-0.5l0.1,0l0.1,0l0.1-0.1c0.5-0.2,1-0.5,1.4-0.7c0.9-0.4,1.8-0.8,2.8-1.2
			c0.5-0.2,1-0.4,1.4-0.6l0.1,0l0.1,0l0.1,0l0.2-0.1l0.1,0c0.3-0.1,0.5-0.2,0.8-0.4c0.3-0.1,0.6-0.2,0.9-0.4l0.1,0l0.2-0.1
			c0.7-0.3,1.3-0.5,1.8-0.7c0.8-0.4,1.5-0.7,2.4-1.1l0.6-0.3c0.6-0.2,1.2-0.5,1.8-0.8c0.2-0.1,0.3-0.1,0.5-0.2l0.1,0
			c0.3-0.1,0.6-0.3,0.9-0.4c0.2-0.1,0.3-0.1,0.5-0.2l0.1-0.1c0.2-0.1,0.4-0.2,0.7-0.3c0.2-0.1,0.5-0.2,0.7-0.3l0.1-0.1l0.1,0
			c0.2-0.1,0.4-0.3,0.6-0.3c0,0,0.1,0,0.1,0l0,0c0,0,0.1,0,0.2-0.1l0.1,0l0.1-0.1l0.2-0.1c0.2-0.1,0.3-0.2,0.5-0.3l0.1,0l0,0l-0.1,0
			l0.1,0l-0.1,0c0.3-0.2,0.6-0.4,0.9-0.6c0-0.2,0-0.3,0-0.5c0-0.1,0-0.2,0-0.3v-0.2v-0.2c0-0.2,0-0.4-0.1-0.6l0-0.1
			c-0.1-0.5-0.1-1-0.1-1.5v-0.1v-0.1c0-0.2,0-0.4,0-0.6c0-0.3,0-0.5,0-0.8c0,0,0-0.1,0-0.1v0l0,0l0,0.1v0l0,0l0-0.3
			c0-0.1,0-0.3,0-0.5c0-0.1,0-0.3,0-0.4c0-0.2-0.1-0.4-0.1-0.6l0-0.1l0-0.2c0-0.1,0-0.2,0-0.3c0-0.3-0.1-0.6-0.4-0.7
			c-0.2-0.1-0.4-0.2-0.6-0.3c-0.1-0.1-0.2-0.1-0.4-0.2l-0.1,0c-0.1,0-0.2-0.1-0.2-0.1l-0.4-0.1c-0.6-0.2-1.2-0.5-1.8-0.9
			c-0.3-0.1-0.5-0.3-0.8-0.4c-0.3-0.1-0.6-0.3-1-0.4l-0.1,0l-0.3-0.1c-0.5-0.2-1-0.4-1.5-0.6l-0.1,0c-0.2-0.1-0.4-0.1-0.5-0.2
			c-1.8-0.7-3.7-1.5-5.6-2.4l-0.1,0c-0.5-0.2-0.9-0.4-1.4-0.6c-0.3-0.1-0.6-0.2-1-0.4L47.5,35c-0.2-0.1-0.4-0.2-0.6-0.3l-0.1,0
			l-0.1,0c-0.2-0.1-0.4-0.2-0.6-0.3c-0.5-0.2-1.1-0.4-1.6-0.6l-0.4-0.1l-0.1,0c-0.9-0.3-1.7-0.6-2.7-1.1c-0.8-0.3-1.7-0.6-2.5-0.9
			l-0.1,0l-0.6-0.2c-0.4-0.2-0.9-0.3-1.3-0.5l-0.1-0.1c-0.3-0.1-0.6-0.2-0.9-0.3c-0.5-0.2-1-0.3-1.5-0.5l-0.2,0
			c-0.4-0.1-0.8-0.2-1.2-0.4c-0.3-0.1-0.6-0.2-0.9-0.3c-0.2-0.1-0.5-0.2-0.7-0.2c-0.2-0.1-0.4-0.1-0.7-0.1
			C30.5,29.1,30.4,29.1,30.2,29.1L30.2,29.1z"/>
		<path class="st1" d="M72.3,65.2l-0.4,0c-0.4,0-0.7,0-1.1,0c-0.6,0-1.1,0-1.7,0c-0.3,0-0.6,0-0.9,0l-0.2,0c-0.4,0-0.8,0-1.2,0
			c-0.1,0-0.3,0-0.4,0c-0.4,0-0.7,0-1.1-0.1l-0.2,0c-0.3,0-0.6,0-0.8,0c-0.1,0-0.2,0-0.3,0c-0.1,0-0.3,0-0.4,0l-0.1,0l0,0l0,0.5
			l0,0.5l0,0.5c0,0.3,0,0.5,0,0.8v0.1v0.1c0,0.2,0,0.3,0,0.5c0,0.4,0,0.8,0,1.1v0.1c0,0.3,0,0.6,0,1c0,0.1,0,0.2,0,0.2l0,0
			c0,0,0,0,0-0.1v0.1l0,0c0,0.3,0,0.6,0,0.9l0,0.2l0,0.4c0,0.1,0,0.3,0,0.4c0,0.3,0,0.6,0,1c0,0.1,0,0.2,0,0.3c0,0.1,0,0.3,0,0.4
			l0,0.4c0,0.2,0,0.4,0,0.5l0,0.2c0.2,0,0.3,0,0.5,0c0.2,0,0.4,0,0.6,0s0.4,0,0.6,0c0.2,0,0.3,0,0.4,0c0.2,0,0.3,0,0.5,0
			c0.2,0,0.4,0,0.6,0H67c0.2,0,0.3,0,0.5,0c0.2,0,0.3,0,0.5,0c0.7,0,1.3,0.1,2,0.1l0.4,0l1.1,0c0.4,0,0.7,0.1,1.1,0.1l0.1,0l0.1,0
			l0.5,0c0.5,0,0.9,0,1.3,0H75h0.5c0.3,0,0.7,0,1,0h0.1c0.4,0,0.7,0,1.1,0c0.6,0,1.3,0,1.9,0c0.3,0,0.6,0,1,0.1l0.2,0
			c0.6,0,1.1,0.1,1.6,0.1c0.4,0,0.8,0,1.1,0c0.6,0,1.2,0,1.8,0l0.4,0h0.2H86c0.2,0,0.4,0,0.6,0l0.4,0c0.4,0,0.7,0,1.1,0
			c0.2,0,0.5,0,0.7,0c0.6,0,1.2,0,2,0c0.6,0,1.3,0,1.9,0c0.5,0,1,0,1.5,0c0.2,0,0.3,0,0.5,0c0.5,0,0.8,0,1.1,0c0-0.4,0-0.8,0.1-1.3
			l0-0.3c0-0.3,0-0.7,0.1-1l0-0.1c0-0.2,0-0.5,0-0.7c0-0.5,0.1-1.1,0.1-1.6c0.1-1,0.1-2,0.1-3c0-0.5,0-0.9,0-1.4v-0.1v-0.1
			c0-0.2,0-0.3,0-0.5c-0.3,0-0.6,0-0.8,0l-0.3,0h-0.2c-0.4,0-0.8,0-1.1,0c-0.2,0-0.4,0-0.6,0c-0.4,0-0.8,0-1.1-0.1s-0.8-0.1-1.2-0.1
			l-0.4,0c-0.8,0-1.7,0-2.5-0.1l-0.6,0l-0.3,0c-0.4,0-0.8-0.1-1.2-0.1l-0.8,0l-0.4,0l-0.8,0c-0.3,0-0.6,0-0.8,0c-0.6,0-1.2,0-1.8,0
			l-0.8,0c-0.2,0-0.4,0-0.5,0h-0.2c-0.3,0-0.6,0-0.8,0c-0.2,0-0.4,0-0.6,0c-0.2,0-0.4,0-0.6,0c-0.2,0-0.3,0-0.5,0h-0.5h-0.2
			c-0.3,0-0.7,0-1,0c-0.1,0-0.3,0-0.4,0l-0.1,0c-0.1,0-0.3,0-0.4,0C73.8,65.1,73,65.2,72.3,65.2L72.3,65.2z"/>
		<path class="st2" d="M16.3,15.5L16.3,15.5c-0.1,0.7-0.2,1.5-0.1,2.2c0.1,0.4,0.2,0.9,0.2,1.3c0,0.3,0,0.6-0.1,0.8l0,0.2l-0.1,1
			L16,21.7c-0.1,0.5-0.1,1.1-0.1,1.6c0,0.3,0,0.6,0.1,0.9l0,0.1l0,0.1c0,0.1,0,0.2,0,0.4c0,0.5,0,1.1,0,1.6c0,0.2,0,0.4,0,0.5
			c0,0.3,0,0.5-0.1,0.8c0,0.4,0,0.8,0,1.2l0,0.3c0,0.6,0,1.2,0,1.8c0,1.3-0.1,2.5-0.2,3.6c-0.1,0.9-0.1,1.8-0.1,2.6s0,1.7,0,2.5
			c0,0.6,0,1.3,0,1.9c0,1.2,0,2.3,0,3.4l0,1v0.1v0.1c0,1.2,0,2.7,0,4.1c0,0.9,0.1,1.9,0,2.8c0,0.6,0,1.3,0,1.9l0,0.4l0,0.4l0,1v0.1
			V57l0,0.3v0.1c0,1.2-0.1,2.6-0.1,3.9c0,0.4,0,0.8,0,1.2v0.2v0.2c0,0.4,0,0.8,0,1.2l0,1.5l0,1.1c0,1.2,0,2.3-0.1,3.5l0,0.5l0,1.4
			c0,0.9,0,1.8,0,2.6V75v0.3c0,0.7,0,1.4,0,2.1c0,0.9,0,1.8,0,2.7l0,0.3v0.1v0.1c0,0.8,0.1,1.6,0.1,2.4c0,1.1,0,2.1,0,3.2l0,0.5
			l0,1.6c0,1,0,1.8,0,2.7c0,1,0,1.9,0,2.7c0,0.7-0.1,1.5-0.1,2.2c-0.1,1.1-0.1,2.2-0.1,3.2c0,1.7,0.1,3.5,0.1,5v0.1l0,0.1l0,0.1
			c0.1,1.8,0.2,3.6,0.2,5.5c0,1.3,0,2.7,0,4.1v0.1v0.1v0.1l0,0.9c0,0.5,0,1,0.1,1.5l0,0.2c0,0.3,0,0.7,0.1,1c0,0.6,0,1.2,0.1,1.7
			l0,0.8c0,1.2,0.1,2.3,0.1,3.5c0,0.7,0,1.3,0.1,2c0,1,0,1.9,0,2.8c0,0.3,0,0.6,0,0.9l0,0.2c0,0.4,0,0.9-0.1,1.3
			c-0.1,1.8,0,3.6,0.1,5.2c0,1,0.1,2,0.1,3c0,0.3,0,0.6,0,1v0.2c0,0.5,0,1,0,1.5c0,0.4,0,0.7,0.1,1.1l0,0.2l0,0.1v0.1
			c0,0.5,0.1,0.9,0.1,1.4c0,0.8,0,1.8,0,2.9v0.3c0,0.3,0,0.7,0,1l0,0.4l0,0.3c0,0.2,0,0.5,0,0.7c0,0.8,0,1.6,0,2.5
			c0.1,0.7,0.1,1.5,0.2,2.2l0,0.1l0,0.1l0,0.1l0,0.1c0.1,0.9,0.2,2,0.2,3c0,0.6,0,1.2,0,1.8v0.2l0,0.6c0,0.8,0,1.7,0,2.6
			c-0.1,1.5,0,3.2,0.1,5.2l0,0.6c0,0.7,0.1,1.3,0.1,1.9c0,0.7-0.1,1.4-0.1,2v0.1l0,0.6c0,0.7,0,1.4,0,2.1l0,0.4l0,0.7
			c0,0.6,0.1,1.3,0.1,1.9c0,0.5,0,0.9-0.1,1.4c0,0.4,0,0.7-0.1,1.1c0,0.8,0,1.5,0.1,2.3c0.1,0.4,0.1,0.9,0.2,1.3l0.2,0l0.2,0
			c0.2,0,0.5,0,0.7,0.1h0.1l0.1,0c0.4,0,0.7,0.1,1,0.1l0.5,0h0.1l0.6,0h0.9c0.2,0,0.3,0,0.5,0c0.3,0,0.7,0,1-0.1l0.1,0l0.1,0l0.1,0
			l0.1,0c0.4,0,0.7-0.1,1.1-0.1l0.4,0h0.1c0.3,0,0.6,0,0.9,0c0.3,0,0.6-0.1,1-0.1l0.2,0l0.1,0c0.4-0.1,0.8-0.1,1.2-0.1
			c0.1,0,0.2,0,0.3,0c0.4,0,0.7,0,1,0l0.6,0l0.1,0l0.1,0l0.1,0c0.5,0,1,0.1,1.4,0.1l0.4,0c0.3,0,0.5,0,0.8,0c0.2,0,0.4,0,0.6,0
			c0.4,0,0.9,0.1,1.3,0.1l0.1,0l0.1,0l0.1,0l0.1,0h0.1c0.9,0.1,2.1,0.2,3.3,0.2c0.3,0,0.6,0,0.9-0.1c0.5,0,1-0.1,1.5-0.1
			c0.1,0,0.3,0,0.4,0c0.4,0,0.9,0,1.3,0.1l0.1,0l0.1,0l0.2,0h0.1c0.4,0,0.7,0.1,1.1,0.1l0.2,0l0.2,0l0.2,0l0.1,0c0.3,0,0.6,0,0.8,0
			c0.5,0,0.9,0,1.3,0c0.4,0,0.8,0,1.1,0c0.5,0,1,0,1.5,0.1l0.1,0c0.8,0,1.6,0.1,2.4,0.1h0.1c0.9,0,1.7,0,2.5,0.1
			c0.5,0,0.9,0,1.4,0.1c1.3,0,2.6,0.1,4.1,0.1c0.4,0,0.8,0,1.2,0c0.8,0,1.5,0,2.3,0.1c1.2,0.1,2.3,0.1,3.3,0.1
			c0.6,0,1.2-0.1,1.8-0.1l0.2,0l0.2,0c0.4,0,0.8,0,1.3,0c0.3,0,0.7,0,1,0h0.2c0.6,0,1.1,0,1.7,0.1l0.3,0l0.2,0
			c0.6,0,1.5,0.1,2.4,0.1h0.3c0.6,0,1.2,0,1.8,0c0.7,0,1.2,0,1.7,0l0.3,0l0.1,0h0.1c1.3,0.1,2.6,0.1,4,0.1c1.5,0,3,0.1,4.3,0.2
			l0.3,0l0.2,0l0.1,0l0.1,0c0.6,0,1.1,0.1,1.7,0.1c0.4,0,0.8,0,1.2,0h0.5H94c0.5,0,1,0,1.4,0h0.3H96h0.4h0.1h0.6h0.2
			c0.5,0,1,0,1.5,0l0.5,0c0.2,0,0.5,0,0.7,0l0.1,0c0.3,0,0.6,0,0.9,0c0.1,0,0.2,0,0.3,0c0.3,0,0.7,0,1,0l0.5,0c0.7,0,1.4,0,2,0
			c1.2,0,2.3-0.1,3.4-0.1c0.7,0,1.6-0.1,2.7-0.1h0.6c0.4,0,0.9,0,1.3,0c0.6,0,1.2,0,1.8,0c0.2,0,0.5,0,0.7,0c1.2,0,2.3,0,3.5,0h0.3
			c0.8,0,1.5,0,2.3,0c0.6,0,1.3-0.1,1.9-0.1l0.2,0c0.5,0,1-0.1,1.5-0.1l0.9,0h0.1c1-0.1,1.8-0.1,2.5-0.1l0.7,0c0.6,0,1.2,0,1.8,0
			c0.4,0,0.8,0,1.1,0c0.4,0,0.9,0,1.3,0c1.9,0,3.7-0.1,5.6-0.2c0.8-0.1,1.8-0.1,2.8-0.1c0.5,0,1,0,1.5-0.1l0.2,0
			c0.4,0,0.9,0,1.3-0.1c0.5,0,1,0,1.5,0h0.9h0.9h0.8h1.1c0.4,0,0.8,0,1.2,0c0.4,0,0.8,0,1.1,0c0.6,0,1.3,0,1.9,0h0.2h0.1
			c0.8,0,1.5,0,2.2,0h0.1l0.5,0h0.1h0.1c0.4,0,0.8,0,1.2,0c0.1,0,0.2,0,0.4,0l0.1,0h0.1l0.1,0c0.8,0,1.5,0,2.2,0h0.5l0.8,0
			c0.6,0,1.2,0,1.8,0c0.4,0,0.9,0,1.3,0c0.3,0,0.5,0,0.8,0c0.6,0,1.1,0,1.7,0.1l0.2,0l0.2,0h0.2c0.6,0,1.2,0,1.8,0
			c1,0,2-0.1,3.3-0.1l0.4,0c0.6,0,1.2,0,2,0c0.4,0,0.7,0,1.1,0h0.4l0.2,0c0.2,0,0.4,0,0.6,0c1.8,0,3.5,0.1,5.1,0.2l0.3,0l0.1,0
			l0.2,0l0.1,0c0.3,0,0.5,0.1,0.8,0.1l0.3,0h0.1h0.1l0.8,0c0.9,0,1.8,0,2.5,0h0.1c0.6,0,1.3,0,1.9,0l0.3,0c0.4,0,0.8,0,1.3,0
			c0.8,0,1.6,0,2.4,0h0.5c0.2,0,0.4,0,0.7,0c0.4,0,0.9,0,1.3,0c1.2,0,2.3,0,3.3,0.1c0.9,0.1,1.5,0.1,2,0.2c0.6,0.1,1.3,0.1,1.9,0.1
			c1.7,0,3,0.1,4.3,0.1c0.4,0,0.7,0,1.1,0.1l0.2,0l0.2,0c0.8,0.1,1.6,0.1,2.3,0.1l0.5,0l0.5,0l0.1-0.6l0.1-1l0-0.3
			c0-0.2,0-0.4,0-0.5v-0.1v-0.1v-0.3v-0.2c0-0.4,0-0.8,0-1.3c0-0.2,0-0.4,0-0.6c0-0.3,0-0.6,0-0.9c0-0.2,0-0.4,0-0.7
			c0-0.4,0-0.7,0-1.1c0-0.3,0-0.6-0.1-0.9l0-0.2c0-0.2-0.1-0.3-0.1-0.5c-0.1-0.5-0.1-1-0.1-1.4c0-0.8,0.1-1.6,0.2-2.4l0.1-0.6
			c0.1-0.8,0.1-1.7,0.1-2.6l0-0.6v-0.1v-0.2c0-0.6,0-1.2-0.1-1.7c-0.1-0.9-0.1-1.8,0-2.7c0-1,0.1-1.9,0.1-2.8c0-0.9,0.1-1.8,0.2-2.7
			l0-0.1l0-0.1c0.1-0.7,0.1-1.4,0.1-2.1c0-1,0.1-2.1,0.1-3.1c0-0.7,0-1.5,0-2.2c0-0.8,0-1.5,0.1-2.3l0-0.5c0-0.8,0.1-1.5,0.1-2.3
			l0-0.6c0-0.6,0-1.2,0-1.9v-0.4c0-0.3,0-0.5,0-0.8c0-0.4,0.1-0.8,0.1-1.2c0.1-1.1,0.2-2.4,0.2-3.6c0-0.8,0-1.7-0.1-2.7
			c-0.1-0.9-0.1-1.7,0-2.6c0-0.1,0-0.3,0-0.4l0-0.2l0-0.3l0-0.5l0-0.2v-0.1l0-0.2c0-0.8,0.1-1.9,0.1-2.9c0-0.5,0-1,0-1.5v-0.1v-0.1
			v-0.1c0-1.1,0-2.2,0-3.3c0-0.3,0-0.5,0-0.8l0-0.2c0-0.5,0-1.1,0.1-1.6c0-0.7,0-1.4,0-2.1v-0.5c0-1.1,0-1.9,0-2.7l0-1
			c0-0.6,0.1-1.2,0.1-1.8l0-0.2l0-0.2l0-0.2l0-0.3c0-1.4,0.1-2.8,0.1-4.2v-0.4c0-1.6,0-3.3,0-4.9c0-1,0-2-0.1-3v-0.1v-0.1l0-0.3
			c0-0.6,0-1.2-0.1-1.8c0-1,0-1.9,0-2.7c0-0.3,0-0.5,0-0.8v-0.1v-0.1l0-0.1c0-0.5,0-1,0-1.5c0-0.6,0-1.1,0-1.6l0-0.2l0-0.2v-0.1
			l0-0.5c0-0.2,0-0.5,0-0.7l0-0.2c0-0.5-0.1-1.1-0.1-1.6c0-0.7,0-1.4,0-2.1v-0.2v-0.1v-0.1v-0.1v-0.1v-0.1c0-0.7,0-1.4,0-2.2
			c0-0.8,0-1.6-0.1-2.6v-0.1c0-0.2,0-0.5,0-0.7c0-0.2,0-0.4,0-0.5c0-0.5,0-0.9,0-1.4V75v-0.1v-0.1v-0.1c0-0.6,0-1.4,0-2.2
			c0-0.3,0-0.6,0-0.9c0-0.6,0-1.1,0-1.6c0-0.9,0-1.7,0-2.6c0-0.8,0-1.6,0.1-2.3l0-0.1l0-0.7l0-0.2c0-0.6,0.1-1.1,0.1-1.7
			c0-0.8,0-1.7,0-2.8c0-0.9-0.1-1.8-0.1-2.6c0-0.6,0-1.2,0-1.7v-0.2v-0.1v-0.1v-0.1l0-0.3c0-1.4-0.1-2.7-0.2-4l0-0.1l0-0.1l-0.1-0.9
			l0-0.5c-0.1-0.7-0.1-1.5-0.1-2.2c0-0.6,0-1.1,0-1.7v-0.8c0-0.2,0-0.5,0-0.7c0-0.6,0-1.2,0-1.8c0-0.6-0.1-1.2-0.1-1.8l0-0.7
			c0-0.2,0-0.4,0-0.6l0-0.3l0-0.3l0-0.4l-0.1-1.2c-0.1-0.9-0.1-1.7,0-2.6l0-0.3v-0.1l0-0.1c0.1-0.7,0.1-1.4,0.1-2.1
			c0-0.5,0-1.1-0.1-1.6l0-0.4l0-0.4c0-0.9,0-1.8,0-2.6c0-0.8,0-1.5-0.1-2.3l0-0.2c-0.1-0.8-0.1-1.7-0.1-2.7c0-0.3,0-0.6,0-1v-0.1
			c0-0.4,0-0.8,0-1.3l0-0.3l0-0.4c0,0-0.1,0-0.1,0l-0.3,0c-0.2,0-0.3,0-0.5,0c-0.6,0-1.2,0-1.7-0.1c-0.2,0-0.5,0-0.7,0
			c-0.1,0-0.2,0-0.2,0l-0.3,0c-0.2,0-0.4,0-0.5,0h-0.1c-0.4,0-0.8,0-1.1-0.1l-0.2,0l-0.2,0l-0.2,0l-0.2,0l-0.1,0l-0.2,0
			c-0.5,0-0.9-0.1-1.3-0.1h-0.1c-0.2,0-0.5,0-0.7,0c-0.3,0-0.6,0-0.9,0c-0.4,0-0.8,0-1.2,0l-0.1,0l-0.5,0c-0.1,0-0.3,0-0.4,0
			c-0.4,0-0.8,0-1.4,0.1c-0.2,0-0.4,0.1-0.6,0.1l-0.1,0l-0.1,0l-0.1,0c-0.2,0-0.4,0.1-0.6,0.1c-0.5,0.1-1,0.1-1.5,0.1
			c-0.1,0-0.3,0-0.4,0c-0.6,0-1.2-0.1-1.7-0.1c-0.5,0-1-0.1-1.4-0.1c-0.6,0-1.3,0-1.9,0l-0.4,0c-0.4,0-0.7,0-1,0l-0.5,0
			c-1,0-2.1-0.1-3.1-0.1c-1.8,0-3.6-0.1-5.6-0.2c-0.9,0-1.7-0.1-2.7-0.1c-0.4,0-0.8,0-1.2,0h-0.4H178h-0.4c-0.4,0-0.8,0-1.2,0h-0.2
			c-1.7,0-3.6-0.1-4.7-0.1l-0.2,0l-1.1,0c-1,0-2-0.1-3-0.2c-0.4,0-0.8,0-1.2,0l-0.4,0l-0.3,0h-0.1h-0.1c-0.2,0-0.4,0-0.6,0
			c-0.1,0-0.2,0-0.2,0c-1.1,0-2.2,0-3.3,0.1h-0.4c-0.6,0-1.3,0-2-0.1l-0.7,0c-0.7,0-1.5-0.1-2.2-0.1h-0.1c-1.3-0.1-2.6-0.1-3.9-0.1
			c-0.2,0-0.4,0-0.6,0h-0.4h-0.1c-0.3,0-0.6,0-1,0c-0.3,0-0.7,0-1,0l-1,0c-0.7,0-1.5,0-2.2-0.1c-0.4,0-0.8,0-1.2-0.1H144
			c-0.6,0-1.1-0.1-1.7-0.1c-0.9,0-1.8,0-2.6,0l-0.4,0c-1,0-2,0-3-0.1l-0.5,0c-0.6,0-1.2,0-1.9,0c-0.2,0-0.4,0-0.5,0
			c-0.3,0-0.6,0-1,0c-0.8,0-1.8,0-2.9,0h-0.1l-0.1,0h-0.1H129c-0.6,0-1.2,0-1.8,0c-1,0-2-0.1-3-0.1l-0.2,0l-0.2,0h-0.1
			c-1-0.1-1.8-0.1-2.7-0.1c-0.6,0-1.1,0-1.7,0c-0.5,0-0.9,0-1.4,0s-0.9,0-1.4,0.1h-0.1c-0.6,0-1.2,0.1-1.8,0.1c-0.5,0-1,0-1.5,0
			c-1.1,0-2.2,0-3-0.1l-0.4,0l-0.4,0l-0.4,0l-0.4,0c-1.5,0-2.5,0-3.4,0c-0.8,0-1.7,0-2.8,0c-0.9,0-1.8,0-2.8,0h-0.4
			c-0.9,0-1.8,0-2.4-0.1l-0.2,0h-0.1l-0.4,0c-1.3-0.1-2.6-0.1-3.8-0.1c-0.8,0-1.7,0-2.6,0c-0.9,0-1.9,0-3,0c-1.3,0-2.4,0-3.3-0.1
			c-1,0-2.1-0.1-3.1-0.1l-0.3,0h-0.1h-0.3c-0.4,0-0.8,0-1.2,0c-0.5,0-0.9,0-1.3,0l-0.3,0l-0.3,0l-0.3,0l-0.1,0l-0.3,0l-0.2,0
			c-0.5,0-1,0-1.4,0.1c-1.1,0-2.2,0-3.2,0.1c-0.3,0-0.6,0-0.9,0c-1.7,0-3.4-0.1-5.1-0.1l-0.1,0l-0.2,0c-1.2-0.1-2.4-0.1-3.5-0.1
			h-0.4c-0.7,0-1.5,0-2.2,0h-0.1h-0.2l-0.4,0h-0.2c-1,0-2,0-3,0c-0.8,0-1.5,0-2.3,0c-0.7,0-1.4,0-2,0c-0.5,0-0.9,0-1.4,0h-0.5h-0.1
			h-0.3c-0.6,0-1.2,0-1.7,0c-1,0-2.1,0-3.1,0c-0.6,0-1.1,0-1.7,0.1c-0.5,0-0.9,0.1-1.4,0.1l-0.8,0l-0.3,0c-0.7,0-1.5,0.1-2.2,0.1
			c-0.3,0-0.5,0-0.8,0c-0.4,0-0.8,0-1.3,0h-0.3l-0.7,0c-1,0-2,0-3.1,0l-0.7,0h-0.3c-0.4,0-0.7,0-1,0c-0.4,0-0.8,0-1.2,0
			c-0.9,0-1.9,0.1-2.9,0.1h-0.1c-0.8,0-1.7,0-2.9-0.1l-0.2,0C19.8,15.8,17.9,15.7,16.3,15.5L16.3,15.5z M29.9,38.1
			c-0.1-0.7-0.1-1.3-0.1-2c0-0.3,0-0.5,0-0.8c0-0.2,0-0.3,0-0.4c0-0.4,0-0.7,0-1c0-0.2,0-0.3,0-0.5l0-0.1c0-0.3,0-0.7,0-1
			c0.1-0.6,0.1-1.2,0.1-1.7c0-0.4,0-0.8,0-1.2c0.1-0.1,0.3-0.2,0.5-0.2c0.2,0,0.3,0,0.5,0c0.2,0,0.5,0,0.7,0.1
			c0.2,0.1,0.5,0.1,0.7,0.2c0.3,0.1,0.6,0.2,0.9,0.3c0.4,0.1,0.8,0.2,1.2,0.4l0.2,0c0.5,0.1,1,0.3,1.5,0.5c0.3,0.1,0.6,0.2,0.9,0.3
			l0.1,0.1c0.4,0.2,0.9,0.3,1.3,0.5l0.6,0.2l0.1,0c0.8,0.3,1.7,0.6,2.5,0.9c1,0.4,1.9,0.8,2.7,1.1l0.1,0l0.4,0.1
			c0.6,0.2,1.1,0.4,1.6,0.6c0.2,0.1,0.4,0.2,0.6,0.3l0.1,0l0.1,0c0.2,0.1,0.4,0.2,0.6,0.3l0.6,0.2c0.3,0.1,0.6,0.2,1,0.4
			c0.5,0.2,0.9,0.4,1.4,0.6l0.1,0c1.9,0.9,3.8,1.7,5.6,2.4c0.2,0.1,0.4,0.1,0.5,0.2l0.1,0c0.5,0.2,1,0.4,1.5,0.6l0.3,0.1l0.1,0
			c0.3,0.1,0.7,0.3,1,0.4c0.3,0.1,0.5,0.3,0.8,0.4c0.6,0.3,1.2,0.6,1.8,0.9l0.4,0.1c0.1,0,0.2,0,0.2,0.1l0.1,0
			c0.1,0,0.2,0.1,0.4,0.2c0.2,0.1,0.4,0.2,0.6,0.3c0.2,0.2,0.3,0.5,0.4,0.7c0,0.1,0,0.2,0,0.3l0,0.2l0,0.1c0,0.2,0.1,0.4,0.1,0.6
			c0,0.1,0,0.3,0,0.4c0,0.2,0,0.3,0,0.5l0,0.3l0-0.1c0,0,0,0.1,0,0.1c0,0.3,0,0.5,0,0.8c0,0.2,0,0.4,0,0.6v0.1v0.1
			c0,0.5,0.1,1,0.1,1.5l0,0.1c0,0.2,0.1,0.4,0.1,0.6v0.2V49c0,0.1,0,0.2,0,0.3c0,0.2,0,0.4,0,0.5c-0.3,0.2-0.6,0.4-0.9,0.6l0.2-0.1
			c-0.2,0.1-0.4,0.2-0.7,0.4L63,50.8l-0.1,0.1l-0.1,0c-0.1,0-0.1,0-0.2,0.1l0,0c0,0-0.1,0-0.1,0c-0.2,0.1-0.4,0.2-0.6,0.3l-0.1,0
			l-0.1,0.1c-0.2,0.1-0.5,0.2-0.7,0.3c-0.2,0.1-0.4,0.2-0.7,0.3l-0.2,0.1c-0.2,0.1-0.3,0.1-0.5,0.2c-0.3,0.1-0.6,0.3-0.9,0.4l-0.1,0
			c-0.2,0.1-0.3,0.1-0.5,0.2c-0.6,0.3-1.2,0.5-1.8,0.8L55.9,54c-0.9,0.4-1.7,0.7-2.4,1.1c-0.6,0.3-1.1,0.5-1.8,0.7l-0.2,0.1l-0.1,0
			c-0.3,0.1-0.6,0.2-0.9,0.4c-0.3,0.1-0.5,0.2-0.8,0.4l-0.1,0l-0.2,0.1l-0.1,0l-0.1,0l-0.1,0c-0.4,0.2-0.9,0.4-1.4,0.6
			c-1,0.4-1.9,0.8-2.8,1.2c-0.5,0.2-1,0.5-1.4,0.7l-0.1,0.1l-0.1,0l-0.1,0c-0.3,0.2-0.7,0.4-1.1,0.5s-0.8,0.3-1.2,0.4l-0.1,0
			c-0.5,0.2-1.1,0.4-1.7,0.7c-0.5,0.2-1.1,0.5-1.5,0.8l-0.1,0c-0.4,0.2-0.8,0.5-1.3,0.7c-0.5,0.2-1,0.5-1.5,0.7l-0.3,0.1
			c-0.3,0.1-0.6,0.2-0.9,0.4c-0.2,0.1-0.3,0.2-0.5,0.3l-0.1,0l-0.1,0l-0.1,0L33,64.1c-0.1,0.1-0.2,0.1-0.3,0.2
			c-0.5,0.2-1,0.4-1.4,0.5l0-0.7l0-0.3l0-0.1c0-0.4,0-0.9-0.1-1.3l0-0.2c0-0.3-0.1-0.6-0.1-0.9c0-0.2,0-0.4,0-0.5l0-0.1
			c0-0.2,0-0.4,0-0.6v-0.5c0-0.6,0-1.2,0-1.8c0-0.6,0-1.2,0-1.8l0-0.3l0-0.3c0-0.2,0-0.4,0-0.6c0-0.2,0-0.4-0.1-0.6l0-0.2
			c0.1,0,0.2,0,0.3,0h0.1c0.1,0,0.2,0,0.3,0l0.1,0l0.1,0l0.1,0l0.1,0l0.2-0.1c0.1-0.1,0.3-0.1,0.4-0.1l0.1,0
			c0.2-0.1,0.4-0.1,0.5-0.2l0.6-0.2c0.3-0.1,0.5-0.2,0.8-0.3c0.2-0.1,0.4-0.2,0.5-0.3l0.1,0c0.4-0.2,0.8-0.4,1.2-0.6
			c0.2-0.1,0.4-0.2,0.7-0.3l0.1,0c0.4-0.2,0.8-0.3,1.2-0.5l0.3-0.2c0.4-0.2,0.7-0.4,1.1-0.6c0.5-0.3,1.1-0.5,1.6-0.7l0.2-0.1
			l0.1-0.1l0.1,0c0.5-0.2,0.9-0.4,1.4-0.6c0.4-0.2,0.8-0.4,1.1-0.6l0.1-0.1c0.2-0.1,0.3-0.2,0.5-0.3c0.6-0.3,1.2-0.6,1.7-0.8
			l0.3-0.2c0.8-0.3,1.5-0.7,2.3-1l0.5-0.2l-0.1-0.1l-0.1,0c-0.1-0.1-0.3-0.1-0.4-0.2l-0.1,0l-0.1,0c-0.1,0-0.2-0.1-0.4-0.1
			c-0.3-0.1-0.5-0.2-0.8-0.2l-0.1,0l-0.1,0c-0.2-0.1-0.5-0.1-0.7-0.2c-0.3-0.1-0.6-0.2-0.9-0.3l-0.1,0c-0.3-0.1-0.6-0.2-0.9-0.3
			L44.1,44l-0.5-0.2l-0.1,0l-0.1,0c-0.6-0.2-1.3-0.4-2-0.7l-0.2,0l-0.1,0c-0.2-0.1-0.5-0.2-0.7-0.3c-0.2-0.1-0.4-0.2-0.7-0.3
			l-0.2-0.1c-0.6-0.3-1.1-0.5-1.6-0.6l-0.6-0.2c-1.3-0.4-2.5-0.9-3.7-1.5L33.7,40c-0.6-0.4-1.2-0.7-1.8-1
			C31.3,38.7,30.6,38.4,29.9,38.1L29.9,38.1L29.9,38.1z M70.9,65.2c0.4,0,0.7,0,1.1,0l0.4,0c0.7,0,1.5-0.1,2.2-0.1
			c0.1,0,0.3,0,0.4,0l0.1,0c0.1,0,0.3,0,0.4,0c0.3,0,0.7,0,1,0h0.2h0.5c0.2,0,0.3,0,0.5,0c0.2,0,0.4,0,0.6,0c0.2,0,0.4,0,0.6,0
			c0.3,0,0.6,0,0.8,0h0.2c0.2,0,0.4,0,0.5,0l0.8,0c0.6,0,1.2,0,1.8,0c0.3,0,0.6,0,0.8,0l0.8,0l0.4,0l0.8,0c0.4,0,0.8,0,1.2,0.1
			l0.3,0c0.2,0,0.4,0,0.6,0c0.8,0,1.7,0.1,2.5,0.1l0.4,0c0.4,0,0.8,0,1.2,0.1c0.4,0,0.8,0.1,1.1,0.1c0.2,0,0.4,0,0.6,0
			c0.4,0,0.8,0,1.1,0h0.2l0.3,0c0.3,0,0.6,0,0.8,0c0,0.2,0,0.3,0,0.5v0.1v0.1c0,0.4,0,0.9,0,1.4c0,1-0.1,2-0.1,3
			c0,0.5-0.1,1.1-0.1,1.6c0,0.2,0,0.5,0,0.7l0,0.1c0,0.3,0,0.7-0.1,1v0.3c0,0.4,0,0.8-0.1,1.3c-0.3,0-0.7,0-1.2,0
			c-0.2,0-0.3,0-0.5,0c-0.5,0-1,0-1.5,0c-0.7,0-1.3,0-1.9,0c-0.8,0-1.4,0-2,0c-0.2,0-0.5,0-0.7,0c-0.4,0-0.7,0-1.1,0l-0.4,0
			c-0.2,0-0.4,0-0.6,0h-0.2h-0.2l-0.4,0c-0.6,0-1.2,0-1.8,0c-0.4,0-0.8,0-1.1,0c-0.5,0-1.1,0-1.6-0.1l-0.1,0c-0.4,0-0.7,0-1-0.1
			c-0.6,0-1.3,0-1.9,0c-0.4,0-0.7,0-1.1,0h-0.1c-0.3,0-0.6,0-1,0H75h-0.5c-0.4,0-0.8,0-1.3,0l-0.5,0l-0.1,0l-0.1,0
			c-0.4,0-0.7-0.1-1.1-0.1l-1.1,0l-0.4,0c-0.7,0-1.3,0-2-0.1c-0.2,0-0.3,0-0.5,0c-0.2,0-0.3,0-0.5,0h-0.1c-0.2,0-0.4,0-0.6,0
			c-0.2,0-0.3,0-0.5,0c-0.1,0-0.3,0-0.4,0c-0.2,0-0.4,0-0.6,0c-0.2,0-0.4,0-0.6,0c-0.2,0-0.3,0-0.5,0l0-0.2c0-0.2,0-0.4,0-0.5l0-0.4
			c0-0.1,0-0.3,0-0.4c0-0.1,0-0.2,0-0.3c0-0.3,0-0.7,0-1c0-0.1,0-0.3,0-0.4s0-0.3,0-0.4l0-0.2c0-0.3,0-0.6,0-0.9l0,0.1
			c0-0.4,0-0.8,0-1.2v-0.1c0-0.4,0-0.8,0-1.1c0-0.2,0-0.3,0-0.5v-0.1v-0.1c0-0.3,0-0.5,0-0.8l0-0.5l0-0.4l0-0.5l0.1,0
			c0.1,0,0.3,0,0.4,0c0.1,0,0.2,0,0.3,0c0.3,0,0.6,0,0.8,0l0.2,0c0.4,0,0.7,0,1.1,0.1c0.1,0,0.3,0,0.4,0c0.4,0,0.8,0,1.2,0l0.2,0
			c0.3,0,0.6,0,0.9,0C69.7,65.2,70.3,65.2,70.9,65.2L70.9,65.2z"/>
	</g>
	<g>
		<path class="st3" d="M37.4,221c1.1,1,1.8,2.3,2,3.8h-2.5c-0.1-0.9-0.5-1.7-1.2-2.3c-0.7-0.6-1.7-1-2.7-0.9c-0.8,0-1.6,0.2-2.2,0.7
			c-0.5,0.5-0.8,1.1-0.8,1.8c0,0.5,0.2,1,0.5,1.4c0.4,0.4,0.8,0.6,1.3,0.8c0.7,0.2,1.5,0.4,2.2,0.6c1,0.2,1.9,0.5,2.9,0.8
			c0.7,0.3,1.4,0.7,1.9,1.4c0.5,0.7,0.8,1.6,0.8,2.5c0,1.2-0.5,2.4-1.5,3.2c-1.1,0.9-2.5,1.3-3.9,1.2c-1.7,0.1-3.3-0.4-4.6-1.4
			c-1.2-0.9-2-2.3-2.1-3.8h2.6c0.1,0.9,0.5,1.8,1.3,2.3c0.8,0.6,1.9,1,2.9,0.9c0.8,0,1.5-0.2,2.1-0.7c0.5-0.5,0.8-1.1,0.8-1.8
			c0-0.5-0.2-1.1-0.6-1.5c-0.4-0.4-0.9-0.7-1.4-0.8c-0.7-0.2-1.5-0.4-2.2-0.6c-1-0.2-1.9-0.5-2.8-0.8c-0.7-0.3-1.3-0.7-1.8-1.3
			c-0.5-0.7-0.8-1.5-0.7-2.4c0-1.2,0.5-2.4,1.5-3.2c1.2-0.9,2.6-1.3,4-1.2C34.6,219.5,36.1,220,37.4,221z"/>
		<path class="st3" d="M43.1,214c0.8-0.6,1.8-0.6,2.6,0c0.6,0.6,0.7,1.7,0,2.3c0,0,0,0,0,0c-0.8,0.6-1.8,0.6-2.6,0
			C42.4,215.7,42.4,214.7,43.1,214C43,214,43.1,214,43.1,214z M45.7,219.8v15.9H43v-15.9H45.7z"/>
		<path class="st3" d="M57.5,233.4v2.3h-2c-1.3,0.1-2.6-0.3-3.6-1.2c-0.9-1.1-1.3-2.5-1.2-3.9v-8.6h-2.4v-2.3h2.4v-4h2.7v4h4.1v2.3
			h-4.1v8.6c-0.1,0.7,0.1,1.5,0.6,2.1c0.6,0.4,1.3,0.6,2,0.6L57.5,233.4z"/>
		<path class="st3" d="M75.3,228.4H62.5c-0.1,1.5,0.5,3,1.6,4.1c1,0.9,2.3,1.4,3.6,1.4c1.1,0,2.3-0.3,3.2-1c0.8-0.6,1.4-1.6,1.6-2.6
			h2.8c-0.4,2.2-1.8,4.1-3.9,5c-1.1,0.5-2.4,0.7-3.6,0.7c-1.4,0-2.8-0.3-4.1-1c-1.2-0.7-2.1-1.6-2.8-2.8c-0.7-1.3-1-2.8-1-4.3
			c0-1.5,0.3-3,1-4.4c0.6-1.2,1.6-2.2,2.8-2.8c1.2-0.7,2.6-1,4.1-1c1.4,0,2.8,0.3,4,1c1.1,0.6,2,1.5,2.6,2.6
			c0.6,1.1,0.9,2.4,0.9,3.7C75.4,227.4,75.3,227.9,75.3,228.4z M72.1,224.1c-0.4-0.8-1.1-1.4-1.8-1.8c-0.8-0.4-1.6-0.6-2.5-0.6
			c-1.3,0-2.7,0.4-3.7,1.3c-1,1-1.6,2.5-1.6,4h10.2C72.8,226.1,72.6,225,72.1,224.1z"/>
		<path class="st3" d="M91.1,233.1c-0.5,0.9-1.2,1.6-2.1,2c-1.1,0.6-2.3,0.8-3.5,0.8c-1.2,0-2.5-0.2-3.6-0.7c-1-0.4-1.9-1.1-2.5-2
			c-0.6-0.9-1-1.9-1.1-2.9H81c0.1,0.6,0.3,1.2,0.6,1.7c0.4,0.6,0.9,1,1.5,1.4c0.7,0.4,1.5,0.6,2.3,0.5c1,0.1,1.9-0.3,2.7-0.9
			c0.6-0.6,1-1.5,0.9-2.4c0-0.7-0.2-1.5-0.7-2c-0.4-0.5-1-0.9-1.6-1.2c-0.8-0.4-1.7-0.7-2.6-1c-1.1-0.3-2.1-0.7-3.1-1.2
			c-0.8-0.4-1.5-1-2-1.7c-0.6-0.9-0.9-1.9-0.8-3c0-1,0.2-2,0.8-2.8c0.5-0.8,1.3-1.5,2.2-1.9c1.1-0.5,2.2-0.7,3.4-0.7
			c1.7-0.1,3.4,0.4,4.8,1.5c1.2,0.9,1.9,2.3,2.1,3.7h-2.8c-0.2-0.8-0.6-1.6-1.2-2.1c-0.8-0.6-1.8-1-2.8-0.9c-0.9,0-1.8,0.2-2.6,0.8
			c-1.1,1.1-1.3,3-0.3,4.3c0.4,0.5,1,0.9,1.6,1.2c0.8,0.4,1.7,0.7,2.6,0.9c1.1,0.3,2.1,0.7,3.2,1.2c0.8,0.4,1.5,1,2,1.8
			c0.6,0.9,0.9,2,0.8,3.1C91.8,231.4,91.5,232.3,91.1,233.1z"/>
		<path class="st3" d="M102.9,233.4v2.3h-2c-1.3,0.1-2.6-0.3-3.6-1.2c-0.9-1.1-1.3-2.5-1.2-3.9v-8.6h-2.4v-2.3h2.4v-4h2.7v4h4.1v2.3
			h-4.1v8.6c-0.1,0.7,0.1,1.5,0.6,2.1c0.6,0.4,1.3,0.6,2,0.6L102.9,233.4z"/>
		<path class="st3" d="M116.6,220.8c1.1,0.8,1.8,1.9,2.2,3.1v-4.1h2.6v15.9h-2.6v-4.1c-0.4,1.3-1.2,2.3-2.2,3.1
			c-1.2,0.8-2.5,1.2-3.9,1.2c-1.3,0-2.6-0.3-3.8-1c-1.1-0.7-2-1.7-2.6-2.8c-0.7-1.3-1-2.8-0.9-4.3c0-1.5,0.3-3,0.9-4.4
			c0.6-1.2,1.5-2.2,2.6-2.8c1.1-0.7,2.4-1,3.8-1C114,219.6,115.4,220,116.6,220.8z M109.5,223.5c-2,2.5-2,6,0,8.6
			c1,1.1,2.4,1.6,3.9,1.6c1,0,1.9-0.2,2.8-0.7c0.8-0.5,1.5-1.2,1.9-2c0.5-0.9,0.7-2,0.7-3.1c0-1.1-0.2-2.1-0.7-3.1
			c-0.4-0.9-1.1-1.6-1.9-2c-0.9-0.5-1.8-0.7-2.8-0.7C111.9,221.9,110.5,222.5,109.5,223.5L109.5,223.5z"/>
		<path class="st3" d="M133.3,233.4v2.3h-2c-1.3,0.1-2.6-0.3-3.6-1.2c-0.9-1.1-1.3-2.5-1.2-3.9v-8.6h-2.4v-2.3h2.4v-4h2.7v4h4.1v2.3
			h-4.1v8.6c-0.1,0.7,0.1,1.5,0.6,2.1c0.6,0.4,1.3,0.6,2,0.6L133.3,233.4z"/>
		<path class="st3" d="M145.8,221c1.1,1,1.8,2.3,2,3.8h-2.5c-0.1-0.9-0.5-1.7-1.2-2.3c-0.7-0.6-1.7-1-2.7-0.9
			c-0.8,0-1.6,0.2-2.2,0.7c-0.5,0.5-0.8,1.1-0.8,1.8c0,0.5,0.2,1,0.5,1.4c0.4,0.4,0.8,0.6,1.3,0.8c0.7,0.2,1.5,0.4,2.2,0.6
			c1,0.2,1.9,0.5,2.9,0.8c0.7,0.3,1.4,0.7,1.9,1.4c0.5,0.7,0.8,1.6,0.8,2.5c0,1.2-0.5,2.4-1.5,3.2c-1.1,0.9-2.5,1.3-3.9,1.2
			c-1.7,0.1-3.3-0.4-4.6-1.4c-1.2-0.9-2-2.3-2.1-3.8h2.6c0.1,0.9,0.5,1.8,1.3,2.3c0.8,0.6,1.9,1,2.9,0.9c0.8,0,1.5-0.2,2.1-0.7
			c0.5-0.5,0.8-1.1,0.8-1.8c0-0.5-0.2-1.1-0.6-1.5c-0.4-0.4-0.9-0.7-1.4-0.8c-0.7-0.2-1.5-0.4-2.2-0.6c-1-0.2-1.9-0.5-2.8-0.8
			c-0.7-0.3-1.3-0.7-1.8-1.3c-0.5-0.7-0.8-1.5-0.7-2.4c0-1.2,0.5-2.4,1.5-3.2c1.2-0.9,2.6-1.3,4-1.2C143,219.5,144.6,220,145.8,221z
			"/>
		<path class="st3" d="M153.4,232.6v3.1h-3.2v-3.1H153.4z"/>
		<path class="st3" d="M171,228.4h-12.7c-0.1,1.5,0.5,3,1.6,4.1c1,0.9,2.3,1.4,3.6,1.4c1.1,0,2.3-0.3,3.2-1c0.8-0.6,1.4-1.6,1.6-2.6
			h2.8c-0.4,2.2-1.8,4.1-3.9,5c-1.1,0.5-2.4,0.7-3.6,0.7c-1.4,0-2.8-0.3-4.1-1c-1.2-0.7-2.1-1.6-2.8-2.8c-0.7-1.3-1-2.8-1-4.3
			c0-1.5,0.3-3,1-4.4c0.6-1.2,1.6-2.2,2.8-2.8c1.2-0.7,2.6-1,4.1-1c1.4,0,2.8,0.3,4,1c1.1,0.6,2,1.5,2.6,2.6
			c0.6,1.1,0.9,2.4,0.9,3.7C171.1,227.4,171.1,227.9,171,228.4z M167.8,224.1c-0.4-0.8-1.1-1.4-1.8-1.8c-0.8-0.4-1.6-0.6-2.5-0.6
			c-1.3,0-2.7,0.4-3.7,1.3c-1,1-1.6,2.5-1.6,4h10.2C168.5,226.1,168.3,225,167.8,224.1z"/>
		<path class="st3" d="M183.7,235.7l-4.1-6.1l-3.7,6.1h-2.9l5.2-8.2l-5.2-7.7h3l4,5.9l3.7-5.9h2.9l-5.2,8l5.4,7.9L183.7,235.7z"/>
		<path class="st3" d="M203.7,228.4H191c-0.1,1.5,0.5,3,1.6,4.1c1,0.9,2.3,1.4,3.6,1.4c1.1,0,2.3-0.3,3.2-1c0.8-0.6,1.4-1.6,1.6-2.6
			h2.8c-0.4,2.2-1.8,4.1-3.9,5c-1.1,0.5-2.4,0.7-3.6,0.7c-1.4,0-2.8-0.3-4.1-1c-1.2-0.7-2.1-1.6-2.8-2.8c-0.7-1.3-1-2.8-1-4.3
			c0-1.5,0.3-3,1-4.4c0.6-1.2,1.6-2.2,2.8-2.8c1.2-0.7,2.6-1,4.1-1c1.4,0,2.8,0.3,4,1c1.1,0.6,2,1.5,2.6,2.6
			c0.6,1.1,0.9,2.4,0.9,3.7C203.8,227.4,203.8,227.9,203.7,228.4z M200.6,224.1c-0.4-0.8-1.1-1.4-1.8-1.8c-0.8-0.4-1.6-0.6-2.5-0.6
			c-1.3,0-2.7,0.4-3.7,1.3c-1,1-1.6,2.5-1.6,4h10.2C201.3,226.1,201.1,225,200.6,224.1z"/>
	</g>
</g>
</svg>
