<svg xmlns="http://www.w3.org/2000/svg" width="213.425" height="67.043" viewBox="0 0 213.425 67.043">
  <defs>
    <style>
      .a {
        fill: #fff;
      }
    </style>
  </defs>
  <g>
    <path class="a" d="M38.513,46.415,23.041,33.522,38.513,20.628a3.046,3.046,0,0,0,0-4.681L20.232.712a3.046,3.046,0,0,0-5,2.341V26.166L5.2,16.133A3.047,3.047,0,0,0,.892,20.442l13.08,13.08L.892,46.6A3.047,3.047,0,0,0,5.2,50.91L15.235,40.877V63.99a3.046,3.046,0,0,0,5,2.341L38.513,51.1A3.047,3.047,0,0,0,38.513,46.415ZM21.328,9.558,31.8,18.287,21.328,27.016Zm0,47.927V40.027L31.8,48.756Z"/>
    <g>
      <path class="a" d="M103.117,51.612a6.364,6.364,0,1,0,0,9A6.373,6.373,0,0,0,103.117,51.612Z"/>
      <path class="a" d="M82.858,40.357l4.5,4.5a15.935,15.935,0,0,1,22.51,0l4.5-4.5A22.308,22.308,0,0,0,82.858,40.357Z"/>
      <path class="a" d="M98.615,17.913A37.95,37.95,0,0,0,71.6,29.1l4.5,4.5a31.834,31.834,0,0,1,45.02,0l4.5-4.5A37.95,37.95,0,0,0,98.615,17.913Z"/>
      <path class="a" d="M98.615,2A53.764,53.764,0,0,0,60.348,17.846l4.5,4.5a47.752,47.752,0,0,1,67.531,0l4.5-4.5A53.764,53.764,0,0,0,98.615,2Z"/>
    </g>
    <g>
      <path class="a" d="M186.952,3.666a1.6,1.6,0,0,0-1.729.305L168.8,19.48H157.619a1.594,1.594,0,0,0-1.595,1.595V43.4a1.594,1.594,0,0,0,1.595,1.595H168.8L185.223,60.5a1.6,1.6,0,0,0,2.691-1.159V5.13A1.6,1.6,0,0,0,186.952,3.666Z"/>
      <path class="a" d="M195.256,23.3l-2.272,2.272a1.54,1.54,0,0,0-.226,1.969,7.955,7.955,0,0,1,0,9.392,1.54,1.54,0,0,0,.226,1.969l2.272,2.272a1.621,1.621,0,0,0,2.434-.191,14.324,14.324,0,0,0,0-17.492A1.621,1.621,0,0,0,195.256,23.3Z"/>
      <path class="a" d="M206.613,14.284a1.6,1.6,0,0,0-2.307-.035l-2.256,2.256a1.607,1.607,0,0,0-.04,2.2,20.687,20.687,0,0,1,0,27.06,1.606,1.606,0,0,0,.04,2.2l2.256,2.256a1.6,1.6,0,0,0,2.307-.035,27.061,27.061,0,0,0,0-35.9Z"/>
    </g>
  </g>
</svg>
