<svg xmlns="http://www.w3.org/2000/svg" viewBox="0 0 621.88 547.63"><defs><style>.cls-1{fill:#f4f4f4;}</style></defs><title>Asset 1</title><g id="Layer_2" data-name="Layer 2"><g id="Draw_Layer" data-name="Draw Layer"><path class="cls-1" d="M260.54,0h-.08a42.62,42.62,0,0,0-6.52.67l-.85.13c-1.5.17-3.1.27-4.86.32a40.73,40.73,0,0,0-5.46.69L241.43,2c-.63.06-1.26.12-1.89.16a43.49,43.49,0,0,0-5.09.77c-1,.21-2.11.49-3.13.75-1.23.32-2.5.65-3.78.88-1,.13-2.19.29-3.33.54l-.69.15c-.73.16-1.45.33-2.19.46l-.21,0c-1,.12-2,.24-3,.4-.57.1-1.13.21-1.69.33l-1.32.26c-.49.09-1,.17-1.48.24s-1.07.15-1.61.26c-.73.14-1.46.31-2.19.48l-1,.23c-.65.15-1.3.35-1.93.55l-1,.3c-1,.28-2,.47-2.94.65-1.77.33-3.53.83-5.22,1.31l-1.13.32c-1.85.51-3.82,1.13-5.86,1.84-.73.26-1.47.49-2.2.73-1.38.45-2.8.9-4.16,1.47l-.48.2a59.63,59.63,0,0,0-6.86,3.16l-.9.52c-1.55.89-3.16,1.8-4.81,2.56l-.61.26-.58.25-1,.38c-2,.77-4.12,1.57-6.12,2.52l-1,.5-.77.25c-1.66.53-3.38,1.09-5,1.69a123.6,123.6,0,0,0-14.83,6.1c-1.89,1-3.76,2-5.17,2.78s-2.61,1.35-3.9,2l-1.64.8a82.69,82.69,0,0,0-10.1,6.33l-.63.44c-1.78,1.24-3.54,2.51-5.3,3.78-1.48,1.07-3,2.14-4.47,3.19l-1.12.79c-2.71,1.9-5.52,3.86-8.21,5.9h0l-.09.07-.08.07h0l-.35.27-.67.52.44-.32c-2.3,1.76-4.3,3.4-6.11,5-1.28,1.11-2.51,2.31-3.71,3.47L88.78,70c-4.32,4.12-7.81,7.56-11,10.85C73.79,85,70,88.74,66.12,92.22c-1.92,1.74-3.74,3.65-5.51,5.49l-.07.08-1.62,1.68c-1.22,1.26-2.43,2.51-3.62,3.8a133.4,133.4,0,0,0-9,11.15l-1.5,2c-2.93,3.91-5.71,8.09-8.17,11.78-2.87,4.31-5.26,8.19-7.31,11.86-.9,1.6-1.87,3.2-2.82,4.75a86.92,86.92,0,0,0-4.45,7.89c-1.52,3.21-2.61,5.71-3.56,8.13l-1.07,2.76c-.58,1.48-1.15,3-1.74,4.45l-1.41,3.48c-1.52,3.71-3.09,7.54-4.26,11.45-.69,2.32-1.35,4.65-2,7-.79,2.76-1.6,5.62-2.46,8.42-.19.64-.4,1.28-.6,1.92-.61,1.92-1.23,3.9-1.7,5.9-.37,1.63-.62,3.31-.86,4.94-.12.87-.25,1.74-.4,2.61a129.67,129.67,0,0,0-1.7,17.46C.13,236.7.1,242.29.07,247.7c0,8.23,0,16.46-.06,24.69v14.13c0,2.38.13,4.91.39,8,0,.56.09,1.11.13,1.67.06.86.12,1.72.21,2.58s.23,1.88.35,2.83c.07.54.14,1.09.2,1.63.51,4.14,1,7.53,1.42,10.67l0,.2c.69,5.14,1.4,10.45,2.43,15.62.6,3,1.11,5.73,1.56,8.3.19,1.1.37,2.2.56,3.29.3,1.79.6,3.58.93,5.37s.67,3.31,1,4.93c.24,1.12.49,2.25.71,3.38.33,1.61.74,3.22,1.13,4.78.26,1,.51,2,.75,3,1.21,5.24,2.58,10.15,4.19,15,.5,1.51,1.17,3.5,1.9,5.52s1.7,4.27,2.58,6.33l.11.24c1.26,3,2.63,6.13,4.06,9.19.33.71.67,1.41,1,2.12.85,1.79,1.73,3.64,2.52,5.5,1.92,4.54,3.74,8.59,5.57,12.37,1,2.11,2.08,4.13,3.16,6s2.2,3.51,3.33,5.18c.91,1.34,1.84,2.67,2.77,4,1.44,2,2.92,4.15,4.29,6.29,1.19,1.88,2.31,3.51,3.4,5,1,1.29,2,2.54,3,3.76.53.65,1.07,1.3,1.6,2,1.12,1.5,2.21,3,3.3,4.55,1.48,2.05,3,4.18,4.58,6.22l.65.85c.84,1.09,1.7,2.22,2.63,3.26s1.87,2,2.82,3.05c1.65,1.76,3.42,3.63,5.25,5.48l1.76,1.78c1.17,1.2,2.38,2.44,3.61,3.62s2.54,2.33,3.79,3.45l2.16,1.94c.88.8,1.77,1.59,2.67,2.38,1.17,1,2.34,2.07,3.48,3.14,2.07,1.92,4.19,3.75,5.8,5.14,2.35,2,4.93,4,7.67,5.94,1.16.82,2.34,1.6,3.52,2.38s2.26,1.51,3.37,2.28l.52.37c4,2.82,8.21,5.74,12.52,8.26,2.12,1.24,4.45,2.47,7.32,3.86,3.26,1.56,6.2,3,9.32,4.18,5,2,10.17,3.72,15,5.34,5,1.67,10.11,3,15.35,4.35,4.58,1.17,9.54,2.3,15.6,3.55l1.12.23c2.1.43,4.27.88,6.39,1.38l3.84.94,3.51.87,1.25.3c2.13.51,4.33,1,6.52,1.4,2.94.49,6.11.9,10.26,1.34,3.39.35,6.79.75,10.18,1.15,2,.24,4,.48,6,.7,1.84.21,3.67.44,5.51.67,3.53.45,7.18.9,10.78,1.19,10.13.82,20.47.84,30.47.87h3.92a100.41,100.41,0,0,0,17.59-1.7c3.57-.63,7.19-1.34,10.68-2l5.23-1c2.31-.44,4.78-1,7.77-1.64,1.73-.39,3.51-.73,5.22-1.06l2.52-.49a137,137,0,0,0,14.52-3.59l2.22-.7c4-1.25,8.17-2.54,12.22-3.93,2-.7,4.07-1.51,6-2.28l1.29-.51c2.78-1.1,6.06-2.41,9.3-3.83,2.59-1.13,4.93-2.17,7.22-3.32s4.28-2.27,6.35-3.41l.9-.5a122.67,122.67,0,0,0,13.65-8.89c2.09-1.56,4.19-3.13,6.26-4.72l-.16.1c3.94-3,8.22-6.18,13.84-10.3,2.69-2,5.56-4.1,8.39-6.43.79-.65,1.58-1.32,2.37-2,1.25-1.06,2.54-2.15,3.85-3.18,5-3.85,8.94-7.2,12.5-10.53,1.27-1.19,2.5-2.47,3.69-3.7l1.85-1.9c1.33-1.35,2.65-2.75,3.92-4.12l1.62-1.72a138.77,138.77,0,0,0,11.15-13.07c2.85-3.88,5.84-8.05,9.42-13.16,2.8-4,5.59-8.32,8.78-13.63,2.95-4.9,5.61-10.08,8.18-15.09l1.11-2.15c.95-1.82,1.93-3.69,2.81-5.58,1.28-2.77,2.58-5.74,4.08-9.35,2-4.75,3.62-9.89,4.94-14,2.3-7.19,4.91-15.58,6.75-24.15,2.07-9.64,3.59-18.38,4.67-26.73.79-5.71,1.61-11.61,2-17.57.15-2.57.4-5.18.64-7.71s.48-5,.63-7.54c.29-5.09.34-10.24.39-14.79a124.88,124.88,0,0,0-1.15-16.93c-.39-3-.94-6-1.47-8.91-.39-2.12-.79-4.32-1.12-6.49-.16-1.28-.29-2.55-.41-3.84-.19-2.09-.48-4.21-.76-6.25l-.15-1.1v.2l0-.2v-.14a0,0,0,0,0,0,0h0c-.34-2.57-.74-5.17-1.2-7.92-.13-.76-.25-1.52-.37-2.28-.28-1.75-.57-3.56-.94-5.32l-.21-1c-.47-2.28-.95-4.63-1.28-7s-.8-5-1.42-7.82c-.73-3.3-1.73-6.6-2.69-9.79-.42-1.38-.83-2.75-1.23-4.12a157.9,157.9,0,0,0-5.33-15.27l-1.17-2.94c-1.08-2.73-2.2-5.54-3.35-8.3-4.13-10.14-8.61-20.89-14-31.1-2.42-4.56-5-8.93-7.51-13l-.66-1.08c-1-1.67-2.09-3.41-3.18-5.08-1-1.52-2-3-3.05-4.52l-1.28-1.86a153.65,153.65,0,0,0-9.52-12.16l-1-1.15c-1.69-2-3.44-4-4.94-5.69-.84-1-1.66-1.91-2.49-2.88s-1.5-1.76-2.26-2.63a116.45,116.45,0,0,0-10.25-10.06,162.51,162.51,0,0,0-13.46-10.84c-3.57-2.54-7.25-5.27-11-8.12-3.53-2.73-7.24-5.18-10.08-7a102.84,102.84,0,0,0-11.28-6.46c-5.49-2.65-9.75-4.58-13.79-6.26-2.1-.91-4.21-1.89-6.25-2.83-2.26-1-4.6-2.13-6.94-3.13l-.2-.09-.54-.22-.54-.23.49.23c-2.68-1.15-5.51-2.29-8.64-3.53l-.75-.32c-2.07-.9-4.21-1.82-6.35-2.65a62.51,62.51,0,0,0-6.46-2l-.78-.21-1.11-.31c-.84-.23-1.69-.46-2.54-.67s-1.9-.41-2.85-.6l-1.36-.27c-2.84-.58-5.35-1.13-7.66-1.69-2-.49-4-1.11-5.91-1.72l-1.14-.36a50.4,50.4,0,0,0-5.91-1.33l-1.59-.3q-3.85-.73-7.69-1.51c-1.13-.23-2.27-.43-3.4-.62s-2.5-.43-3.74-.69c-1.66-.35-3.33-.78-4.94-1.19L302.65,4c-.72-.18-1.43-.39-2.14-.59-1.18-.34-2.4-.69-3.64-.93a56.42,56.42,0,0,0-7.53-.9l-1.77-.1c-1.34-.06-2.73-.13-4.09-.29C281,.86,278.21.52,275.39.31c-2.63-.18-5.28-.23-7.77-.26s-4.72,0-7.08,0ZM144.2,158.72c2,0,3.79,0,5.54-.11,1.94-.07,3.87-.23,5.68-.4,1.54-.14,3.12-.21,4.65-.27l.83,0c.77,0,1.53,0,2.3,0,1.2,0,2.4,0,3.59-.07s2.21-.17,3.28-.29c.89-.1,1.81-.2,2.72-.25s1.89,0,2.83.08l1.14.05c.56,0,1.12,0,1.67,0,1,0,1.93,0,2.89-.06.48,0,1,0,1.45,0,.69,0,1.37,0,2.06.06s1.57.12,2.36.21c.54.06,1.08.12,1.62.16,2.78.23,5.37.55,7.92,1,1.63.28,3.3.45,4.91.62,1.12.11,2.23.22,3.34.37,2.32.32,4.83.77,7.91,1.44,1.68.41,3.66.9,5.63,1.44l.53.14c.89.24,1.8.49,2.68.78s1.79.64,2.66,1l.44.18,1.45.56a96.67,96.67,0,0,1,10.5,4.5l3.69,2,.55.3a27.35,27.35,0,0,1,4.73,3.73l.35.33,1.13,1.07.85.82c1.06,1,2.09,2.14,3.09,3.2l1.59,1.68a41.07,41.07,0,0,1,4.91,6,41.68,41.68,0,0,1,2.52,5.17l.12.28c.67,1.59,1.36,3.24,1.91,4.91.23.9.39,1.82.55,2.72.1.6.2,1.19.33,1.79l.25,1.15c.28,1.31.58,2.67.76,4,.12.94.26,1.88.4,2.82l.25,1.77c.24,1.7.34,3.4.4,4.84,0,1.08,0,2.08,0,3.07a32.86,32.86,0,0,1-.41,3.78l-.12.78c-.32,2-.65,4.14-1.09,6.19a33.12,33.12,0,0,1-1.75,5.19c-.76,1.75-1.65,3.44-2.34,4.71s-1.73,2.74-2.63,4c-.45.67-.91,1.34-1.35,2-.61.94-1.3,1.91-2.16,3.08a33.13,33.13,0,0,1-2.53,3l-.48.48c-.59.6-1.2,1.21-1.74,1.87a7.84,7.84,0,0,0-.5.64l-.37.47a2.11,2.11,0,0,1-.19.23,8.43,8.43,0,0,1-1.28.94l-.76.52c-.65.47-1.16.82-1.65,1.14-1,.62-2,1.23-2.9,1.85l-.72.3-.52.2a3.75,3.75,0,0,0-2.38,3.11,3.52,3.52,0,0,0,1.38,3,3.41,3.41,0,0,0,1.31.58,13.6,13.6,0,0,1,1.14.86l.11.09a12.35,12.35,0,0,0,1.93,1.16c.61.35,1.16.72,1.7,1.08l1.28.83.33.2c1.15.71,2.33,1.45,3.44,2.28.9.67,1.77,1.41,2.62,2.12l.65.55,1,.79c.62.5,1.24,1,1.84,1.55a42.4,42.4,0,0,1,3.38,3.83c.67.87,1.29,1.8,1.89,2.7l.07.11.3.45c.58.87,1.17,1.74,1.72,2.63l1.26,2c.25.42.5.84.76,1.26.52.85,1.05,1.69,1.59,2.53l1,1.55a46.72,46.72,0,0,1,4,8.74c.26,1,.48,2,.7,3l.22,1,.24,1.05c.22,1,.46,2,.62,3,.12.75.22,1.51.31,2.27.07.55.14,1.1.22,1.65.25,1.74.47,3.31.57,4.91a85.66,85.66,0,0,1-.07,9.05,28,28,0,0,1-.53,3.42c-.14.69-.28,1.38-.38,2.07-.08.5-.15,1-.22,1.52-.15,1-.3,2.09-.5,3.13a33.07,33.07,0,0,1-2.44,5.94c-.42.7-.86,1.4-1.3,2.09-.61,1-1.24,1.95-1.8,3-.85,1.57-1.64,3.2-2.41,4.77l-.85,1.75a24,24,0,0,1-2.65,3.76c-1.1,1.06-2.28,2.06-3.42,3-.44.37-.88.74-1.31,1.12a50.31,50.31,0,0,1-5.48,4.13A76.07,76.07,0,0,1,241,377.81c-3.41,1.41-7.17,2.76-11.5,4.16-4.48,1.31-9.3,2.44-15.19,3.55-.8.16-1.62.3-2.43.43l-1.43.25c-.68.12-1.35.25-2,.39s-1.28.27-1.93.38l-2.17.37-1.91.32A26.38,26.38,0,0,1,199,388l-3.48.11h-.05l-.38,0h-.37c-2.18.09-4.47.26-6.69.43l-2.22.16-3.45.29c-1.77.16-3.6.33-5.41.41h-.21l-.39,0h-1.07c-.93,0-1.86,0-2.8-.06H172c-.91,0-1.83-.06-2.75-.06-2.49,0-5,.11-7.47.22h-.9c-1.14,0-2.27-.05-3.42-.1l-1.19-.06-3.54-.17c-2.58-.15-5.2-.15-7.73-.16h-1.75c-1.47,0-3-.09-4.41-.18s-3-.17-4.54-.17q-.78,0-1.56,0c-.73,0-1.46.1-2.19.16s-1.63.14-2.45.17l-.46,0c-1.23,0-2.45.08-3.67.15-1,.06-2.08.19-3.09.31-.75.1-1.5.19-2.25.25s-1.51.2-2.25.32a24.26,24.26,0,0,1-2.58.35h-.69c-1.58,0-3.19,0-4.75-.1l-1.22,0c-.81,0-1.62,0-2.43,0-1.42,0-2.95,0-5,.1l-1,0h-.51c-1.24,0-2.5-.08-3.71-.16-.84-.05-1.67-.1-2.5-.13l-.6,0c-.86,0-1.71-.06-2.57-.13l-2-.21-1.24-.13c.14-.84.27-1.69.41-2.53l.2-1.3a33.53,33.53,0,0,0,.45-5v-.64c0-.6,0-1.22,0-1.82,0-.78.13-1.55.21-2.33l0-.53a39.73,39.73,0,0,0,.11-4.92c0-.19,0-.39,0-.58v.21c0-.81,0-1.63-.09-2.44l-.08-1.67a29.46,29.46,0,0,1,.1-3.16c.06-.81.16-1.6.26-2.4.07-.51.13-1,.19-1.52.08-.79.15-1.58.21-2.38l.09-1.09c.11-1.21.22-2.47.24-3.7L88,349q0-2.19.09-4.38c.08-2.51.06-5.15-.06-8.54v.17c-.05-2.31-.11-4.61-.16-6.92,0-1.07,0-2.14,0-3.21,0-1.51,0-3-.08-4.53s0-2.78,0-4.13c0-1.09,0-2.18,0-3.27,0-1.24,0-2.48,0-3.72s0-2.65,0-4l0-1.9c0-1.86-.07-3.72-.1-5.58,0-2.24,0-4.52,0-6.72l0-1c0-2.52.08-5.21,0-7.94-.08-2.53-.13-5.14-.17-8,0-2.23,0-4.5.11-6.7l0-1,.11-3.58c0-1.48.1-3,.14-4.46,0-1.65.11-3.29.18-4.94l.12-2.78c.09-2.5.1-5.1,0-7.95-.07-3.21,0-6.48,0-9.64v-.72c0-3.14,0-6.49-.2-10.56-.05-2.13,0-4.39,0-7.33,0-2.35,0-4.73,0-7v-.73c0-2.06,0-4.15.1-6.18l0-1.49a78.19,78.19,0,0,0-.23-8.32c-.12-1.43-.21-2.89-.28-4.46-.07-3.31,0-6.74.07-10.49.06-2,.13-3.47.23-4.91a15.06,15.06,0,0,0,0-3,9,9,0,0,0-.38-1.44l-.08-.25,0-.11,0-.17a11.52,11.52,0,0,1-.14-1.18V166a5.68,5.68,0,0,0-.11-1l-.09-.43c0-.22-.07-.44-.13-.65a4.72,4.72,0,0,1-.1-.64c0-.11,0-.22,0-.34a4.63,4.63,0,0,0-.09-.49l0-.3.1-.05.11-.06-.19.09.29-.14.22-.13.13,0,.25,0a4.93,4.93,0,0,0,.54,0c.37,0,.71,0,1,0l.2,0,.7,0h.22a3,3,0,0,0,.42,0c.32,0,.64,0,1,0h.17l.1,0h.17a11.83,11.83,0,0,1,1.41.1c.46.05.93.07,1.4.09l.54,0,.76,0c.92,0,1.84-.07,2.73-.15l1.13-.08h.38a21.1,21.1,0,0,0,2.51-.13c.87-.1,1.81-.2,2.74-.25h.67c1,0,1.93,0,2.89-.13.78-.07,1.56-.19,2.34-.31.57-.09,1.14-.18,1.72-.25l.89-.11c1-.12,2.14-.25,3.21-.44a26.41,26.41,0,0,1,3.18-.38h.69a43.7,43.7,0,0,0,4.7-.21l1-.12c1.12-.14,2.28-.28,3.43-.36s2.48-.15,3.72-.21l.91-.05c.71,0,1.42-.08,2.13-.13l2-.13h.53l2.31,0c.78,0,1.55,0,2.32,0ZM328.82,193.4h0c-.87-.1-1.73-.22-2.58-.34l-.82-.1a13.9,13.9,0,0,1-1.93-.33c-.12-.46-.2-1-.27-1.39a11,11,0,0,1,0-2.13,19.44,19.44,0,0,0,.16-2.16c0-.56,0-1.13,0-1.69l0-.61a36.85,36.85,0,0,1,.14-4.55l.12-1.36c.11-1.22.21-2.44.29-3.66.05-.85.09-1.71.13-2.57a2.27,2.27,0,0,0,1.09.28l.63,0a5.46,5.46,0,0,1,.56,0h.26c.22,0,.43,0,.65,0,.54.08,1.08.18,1.62.28l1.62.28c1.28.19,2.68.36,4.28.5,2.33.21,4.67.24,6.66.24h1.28l2.95,0,3.82,0h1.33c1.41,0,2.81.05,4.21.08,1.25,0,2.51.07,3.76.09,3.17.05,5.62.11,7.94.2,2.86.11,5.53.27,8.15.48,1.75.15,3.09.23,4.34.27s2.27.06,3.4.08h.67l8,.17,1.35,0c1.47,0,3,.06,4.48.16,1.93.13,3.92.24,5.92.31,1.56.06,3.61.12,5.67.12h.53a21.4,21.4,0,0,0,2.75-.23l.3,0,.6-.08c.05.32.1.61.16.9s.12.53.19.79c.11.43.21.85.3,1.29a19.12,19.12,0,0,1-.08,2.73c-.05.62-.1,1.24-.1,1.86a15.83,15.83,0,0,0,.57,3.76c.11.44.21.87.3,1.31a16.52,16.52,0,0,1-.07,2.73c0,.34-.06.68-.08,1a10.43,10.43,0,0,0,.24,2.51l-1.14-.06-.64,0c-1.22-.05-2.45-.1-3.67-.13-2.53-.05-5.06-.12-7.6-.19l-2.4-.07c-1.87,0-3.8-.1-5.7-.2l-5.41-.29-2.67-.15c-.67,0-1.35-.06-2-.06-.9,0-1.83,0-2.85.09-1.41.08-2.84.25-4.21.41l-1.06.12-.8.09a37.86,37.86,0,0,1-4,.31h-.57c-1.55,0-2.84-.06-4-.17s-2.09-.3-3.13-.46c-1.48-.24-3-.48-4.53-.62-2.19-.21-4.31-.32-6.3-.32l-1.38,0c-2.76.07-5.47.29-8.23.54-2.46.22-5.08.43-7.76.43h-.35c-1.19,0-2.4-.11-3.42-.22a2.46,2.46,0,0,0-.53-.06l-.83-.08h-.12l-.11,0Zm26,30.21h.1l2.05-.31c1.65-.23,3.84-.51,6.06-.64h.1c1.21-.07,2.46-.14,3.7-.14.79,0,1.5,0,2.17.08,1.84.17,3.69.31,5.54.43l2,.13c1.34.08,2.72.17,4.07.3s2.73.37,4.09.56c1.8.27,3.67.54,5.52.74h0c1.55.17,3.16.35,4.71.67a29.89,29.89,0,0,1,4.5,1.27c1,.41,2,.82,3,1.25s2.14.88,3.19,1.28l.55.21a51.7,51.7,0,0,1,6.12,3.15c2.16,1.26,3.9,2.37,5.48,3.51a14.85,14.85,0,0,1,2.05,1.93l.21.29a26.35,26.35,0,0,0,2.92,3.52c.46.45.93.88,1.41,1.3.75.68,1.53,1.38,2.23,2.13l1.37,1.47c1.61,1.73,3.27,3.51,4.77,5.37.58.76,1.14,1.53,1.7,2.31l.82,1.11c1,1.35,2,2.67,2.87,4.06.45.67.86,1.37,1.25,2.06s.76,1.31,1.18,1.95c.25.38.51.75.77,1.12a22.58,22.58,0,0,1,1.55,2.45,20.71,20.71,0,0,1,.62,2.11,22.34,22.34,0,0,0,.77,2.31l.16.42c.45,1.23.79,2.52,1.12,3.77.23.88.47,1.76.74,2.63.11.35.22.7.34,1.05.21.65.42,1.3.6,2,.27,1,.51,2,.72,3,.16.76.35,1.52.53,2.28.24,1,.5,2,.68,3,0,.44.08.89.11,1.33s.08,1.09.15,1.63c.1.75.25,1.5.39,2.22.09.43.18.86.26,1.29a30.24,30.24,0,0,1,.12,3.29c0,1,0,2,.09,3l0,.29c.09.93.17,1.88.19,2.83a25.6,25.6,0,0,1-.11,2.6,11.93,11.93,0,0,1-.45,2c-.14.28-.28.56-.45.83a10.17,10.17,0,0,1-.8.81,10.6,10.6,0,0,1-1.5.37c-.3,0-.6,0-.9,0-.5,0-1,0-1.5-.06l-1.07-.05h-.58a10.66,10.66,0,0,0-1.89-.18l-.71,0c-.65.05-1.51.11-2.37.11H438c-1.86,0-3.72,0-5.58-.09l-1,0-2-.05c-.82,0-1.65-.09-2.45-.17h-.18c-2-.18-3.77-.28-5.49-.31l-1.48,0-3.66-.08c-1.44,0-2.89-.14-4.3-.24l-.83,0L410,310.9c-1.31-.1-2.67-.2-4-.23s-2.49-.06-3.74-.06l-1.94,0h-1l-2,0-2.16,0h-4.6c-.56,0-1.13,0-1.69-.05l-.41-.06-2-.25c-1-.11-2.12-.17-3.22-.18h-2.66c-.89,0-1.94,0-3-.06-.85,0-1.69-.12-2.54-.2s-1.65-.16-2.47-.2c-.63,0-1.26,0-1.89,0-1,0-2.1,0-3.22.11l-2,.16c-1.09.1-2.18.19-3.28.24l-2,.08c-1.1,0-2.2.08-3.3.16h-.19c-1.84.14-3.76.28-5.63.51a44.09,44.09,0,0,1-5.59.37h-2.69c-.67,0-1.34.05-2,.1l-.82.06c-.69,0-1.37.07-2.06.07l-.83,0a3.44,3.44,0,0,0-1.37-.33h-.43l-1.11,0-.84,0c-.39,0-.77.05-1.16.09l-.88.07-.41,0a10.35,10.35,0,0,0-1.83.2,3.6,3.6,0,0,0-2,1.62,3,3,0,0,0-.4,1l0,.18c-.15.36-.29.73-.41,1.1L326,316c-.05.18-.09.35-.15.53-.47,1.09-.89,2.21-1.25,3.16a10.18,10.18,0,0,0-1.08,4.82l0,.32c.06.74.13,1.49.25,2.23.07.41.17.81.27,1.21.06.24.12.48.17.72.05.48.07,1,.09,1.44s0,1,.09,1.55a27,27,0,0,0,.8,4.34,21.94,21.94,0,0,0,1.56,3.92,14.08,14.08,0,0,0,2.53,3.52,42.23,42.23,0,0,0,4.06,3.53c.73.59,1.47,1.18,2.18,1.79,1.13,1,2.29,2,3.57,2.86a33.38,33.38,0,0,0,3.46,2.09c2.79,1.49,5.16,2.71,7.62,3.82a29.46,29.46,0,0,0,4.29,1.58,20.29,20.29,0,0,0,3.18.53l.85.1a64,64,0,0,1,7.82,1.36,35.25,35.25,0,0,0,8.51.83H375c2,0,4-.15,5.88-.31l1.14-.08c1.4-.11,2.71-.27,4-.47a18.25,18.25,0,0,0,3.87-1c.79-.32,1.56-.69,2.31-1.05.45-.22.9-.44,1.36-.64l.66-.3a24.16,24.16,0,0,0,2.6-1.29,23.27,23.27,0,0,0,2.74-2.05l.43-.34c.5-.42.9-.78,1.26-1.13a18.23,18.23,0,0,0,1.69-2l.55-.77.38-.52.07-.09c.65-.87,1.33-1.76,1.94-2.7a29.55,29.55,0,0,0,1.58-2.74,32.15,32.15,0,0,0,1.68-3.8c.06-.15.11-.32.16-.49l.2,0,.71,0,1.05,0h.31l1.48-.07c.82-.05,1.67-.1,2.52-.1h0c1,0,2,.08,3,.15l.61.05c1.09.08,2.52.18,4,.18h.15c2.48,0,5-.18,7.42-.35h.18c2.47-.18,4.92-.23,7.84-.25h2.66a15.83,15.83,0,0,0-1.18,2c-.87,1.71-1.83,3.4-2.76,5-.33.57-.65,1.14-1,1.71l-1.15,2c-.74,1.32-1.49,2.64-2.22,4a58.73,58.73,0,0,1-3.5,5.79l-1.05,1.28c-.68.83-1.39,1.68-2,2.59-.44.63-.82,1.31-1.2,2s-.68,1.19-1.05,1.75a12.6,12.6,0,0,1-1.56,1.53l-.09.07c-1,.74-2,1.52-2.95,2.36-.29.24-.56.49-.84.75-.45.4-.89.81-1.36,1.2a31.92,31.92,0,0,1-3.19,1.86l-1.45.79c-.8.44-1.62.9-2.4,1.43l-.78.55c-.43.31-.86.61-1.31.88a36.54,36.54,0,0,1-4,2l-.88.4-1.09.49c-.47.2-.94.4-1.4.62l-1.73.8a45.6,45.6,0,0,1-4.83,1.49c-1.81.49-3.32.82-4.75,1.07l-1.81.21q-2.91.35-5.79.73l-.52.07a36.39,36.39,0,0,1-3.78.4h-.19l-1.21,0c-.24,0-.48,0-.72,0s-.77-.06-1.16-.1l-1.79-.25c-1.95-.27-4-.55-5.95-.75-1.2-.13-2.41-.23-3.61-.33-1-.09-2-.17-3-.27a46.36,46.36,0,0,1-8.24-1.85l-.18-.06c-2.58-.82-5.24-1.66-7.8-2.63-1.41-.62-2.81-1.33-4.16-2-1-.49-1.91-1-2.88-1.44-2.49-1.19-4.9-2.51-6.94-3.64l-1-.54c-2.13-1.18-4.33-2.4-6.42-3.7s-4.33-2.91-6.39-4.41l-.38-.28-1-.73-1.68-1.22a38.7,38.7,0,0,1-3.81-3.24,46.08,46.08,0,0,1-3.31-3.82l-1-1.28-.9-1.19c-.45-.59-.88-1.19-1.31-1.8s-.68-1-1-1.42l-.5-.67c-.64-.85-1.31-1.73-1.9-2.63a28.64,28.64,0,0,1-1.82-3.23c-.18-.47-.34-1-.5-1.44s-.3-.93-.47-1.39c-.42-1.09-.89-2.16-1.36-3.2l-.33-.77a46.68,46.68,0,0,1-1.6-5c-.42-1.53-.9-3.13-1.5-5l-.07-.23c-.25-.79-.49-1.58-.73-2.37-.13-.45-.24-.91-.36-1.37s-.16-.67-.25-1l-.08-.28c-.4-1.44-.81-2.93-1.07-4.43s-.29-3-.38-4.44c-.06-.81-.11-1.63-.18-2.45l-.15-1.56a33.45,33.45,0,0,1-.24-5.58c.08-.66.18-1.31.28-2,.18-1.22.36-2.48.49-3.74.1-1.05.17-2.11.21-3.17l0-1.23c0-.63,0-1.25.06-1.88a39.77,39.77,0,0,1,1.61-6.35c.81-2.5,1.55-4.68,2.26-6.66a85.57,85.57,0,0,1,4.39-8.46c.44-.76.87-1.53,1.29-2.29l.65-1.16a108.3,108.3,0,0,1,5.91-9.88c1.06-1.36,2.24-2.67,3.37-3.93.5-.54,1-1.09,1.47-1.64.32-.37.64-.73.95-1.1.54-.62,1.08-1.25,1.64-1.86.72-.79,1.52-1.59,2.6-2.6s2.06-2,2.94-2.85c.39-.41.78-.83,1.16-1.25s1-1,1.46-1.54c1-1,2.09-1.88,3.14-2.76s2-1.66,2.92-2.56,2.13-1.93,3.58-3.09a25.08,25.08,0,0,1,4.14-2.52l1-.49c1.15-.56,2.31-1.12,3.48-1.63a53.24,53.24,0,0,1,5.65-1.71l1.37-.36c1.37-.36,2.8-.74,4.23-1L352,224l2.87-.4Z"/><path class="cls-1" d="M371.27,246.93H371a44.94,44.94,0,0,0-7.31.53,37.19,37.19,0,0,0-6.59,2c-4.36,1.65-8.88,3.65-12.31,7.14-.91.92-1.78,1.91-2.62,2.86-.58.67-1.17,1.34-1.78,2s-1.28,1.3-1.92,1.92l-.37.35a16.74,16.74,0,0,0-2.28,2.75,6.68,6.68,0,0,0-.53,1l-.11.24-.36.77-.35.77c-.22.45-.44.9-.67,1.35s-.51,1-.75,1.54a16.27,16.27,0,0,0-1.25,3.67c-.06.31-.13.62-.21.94a10.81,10.81,0,0,0-.39,2.84,2.48,2.48,0,0,0,.4,1.29,1.6,1.6,0,0,0-.43-.06,1.72,1.72,0,0,0-1.74,1.29,1.85,1.85,0,0,0,.27,1.42,1.53,1.53,0,0,0,1,.68l.7.11c1.88.3,3.82.62,5.74.82a32.14,32.14,0,0,0,3.27.15c.86,0,1.72,0,2.57-.06l.91,0c.7,0,1.41,0,2.11-.09l.43,0c.85-.06,1.71-.11,2.57-.15l.93-.05c.95,0,1.93-.09,2.9-.09.75,0,1.42,0,2.05.09l1.69.22,1.11.16c1,.13,2,.22,3,.32l.89.08c2,.19,4.3.4,6.53.44h.47c.73,0,1.46,0,2.19-.06l.79,0c.73,0,1.46,0,2.19,0h1a60.8,60.8,0,0,1,6.35.36l-.6-.09a35.39,35.39,0,0,0,3.67.3c.88,0,1.76,0,2.64,0h.48l1.55,0,1.69,0h.15c.74,0,1.47,0,2.21,0l.86,0,1.55,0c.85,0,1.69,0,2.53,0l1.63,0,.87,0,.8,0a3.78,3.78,0,0,0,2.95-1,7.69,7.69,0,0,0,1.14-1.63,5.61,5.61,0,0,0,.69-2.41l0-.4c.07-.5.16-1,.24-1.49l.11-.58a14.28,14.28,0,0,0,.28-2.18,9,9,0,0,0-.54-3.19c-.21-.56-.46-1.12-.7-1.67l-.17-.38a10.27,10.27,0,0,1-.39-1.27l-.12-1.1c-.07-.67-.14-1.37-.27-2.06a10.21,10.21,0,0,0-2.2-4.19l-.42-.55a24.14,24.14,0,0,1-1.51-2.09c-.29-.47-.56-.95-.82-1.44a10,10,0,0,0-2-2.6,27.42,27.42,0,0,0-3.15-2.42c-1-.67-1.91-1.24-2.82-1.79a37.3,37.3,0,0,0-6.38-3.21,30,30,0,0,0-6.58-1.64,59,59,0,0,0-7.36-.42Z"/><path class="cls-1" d="M149.07,197.06h-.41a23.53,23.53,0,0,0-2.53.19c-.61.07-1.22.14-1.83.18-1.44.08-2.88.12-4.29.12h-1a2.27,2.27,0,0,0-2.19,2.2,1.86,1.86,0,0,0-.73,1.47c0,.74,0,1.6-.09,2.45l-.06.4c-.07.51-.14,1-.18,1.53s-.06.91-.08,1.37l0,.57c-.06,1.17-.17,2.33-.27,3.41s-.24,2.18-.3,3.38c0,.42,0,.84,0,1.25,0,.68,0,1.36-.09,2s-.16,1.18-.24,1.76c-.13.83-.26,1.68-.34,2.52a23.33,23.33,0,0,0-.08,3.71,48.41,48.41,0,0,1,0,7.6c-.15,1.27-.23,2.4-.27,3.45,0,.58,0,1.15,0,1.73a22.71,22.71,0,0,1,0,2.33l0,.33a16.63,16.63,0,0,0-.19,2.23c0,.53,0,1.05.07,1.57a9.33,9.33,0,0,1,0,1.47c-.06.52-.09,1-.13,1.56s-.06.93-.11,1.39l0,.27a4.37,4.37,0,0,0,.36,3.22,5.73,5.73,0,0,0,3.15,1.9l.57.2a24,24,0,0,0,3.07.91l.45.09a22.31,22.31,0,0,1,2.62.66l.73.25.74.25c.43.14.87.24,1.31.35l.4.09a32,32,0,0,0,3.25.59l.48.06c.9.11,1.82.23,2.73.38,1.59.29,2.82.46,4,.56,1,.09,2,.1,3,.11h5.19c.58,0,1.15,0,1.73,0s1.33.05,2,.08l1.09.05H171c.65,0,1.3,0,1.95-.07l.66,0c1.05-.06,2.1-.11,3.15-.2.71-.06,1.42-.15,2.12-.24l1.23-.15c.84-.1,1.68-.17,2.52-.25l.91-.09a38.8,38.8,0,0,0,7.35-1.58,30,30,0,0,0,6.25-2.64c.78-.46,1.57-.89,2.36-1.32,1-.57,2.1-1.15,3.13-1.77l.46-.27c.65-.39,1.32-.79,1.94-1.23s1.16-.88,1.73-1.34l.91-.73.21-.16.21-.17c.79-.6,1.59-1.21,2.35-1.85a17.26,17.26,0,0,0,2.61-3,38.77,38.77,0,0,0,3.64-6.15,29.34,29.34,0,0,0,2.2-6.69,14.6,14.6,0,0,0,.24-3.64,21,21,0,0,1,.09-3,9.22,9.22,0,0,0-.25-3.85,34.37,34.37,0,0,0-1.51-3.79l-.44-.91c-.3-.63-.61-1.25-.89-1.89a13.1,13.1,0,0,0-1.4-2.5,11.18,11.18,0,0,0-1.46-1.67l-.22-.21-.94-.88-.42-.44c-.19-.2-.37-.39-.57-.57a15.61,15.61,0,0,0-2.06-1.64,14.55,14.55,0,0,0-3.84-1.78q-.83-.26-1.68-.48c-.55-.15-1.1-.3-1.66-.47a31.09,31.09,0,0,0-4.13-1l-1.65-.27c-.79-.13-1.58-.27-2.38-.39a45.13,45.13,0,0,0-4.56-.43l-1.22-.05c-.81,0-1.63,0-2.44-.12-1.16-.16-2.13-.33-3.06-.54l-.87-.21c-.81-.19-1.62-.38-2.44-.54a40.69,40.69,0,0,0-6.77-.56h-.49c-1.15,0-2.3-.08-3.45-.13s-2.41-.11-3.62-.14H164c-1,0-1.93.05-2.89.09H161c-.88,0-1.77.08-2.65.08H158c-1.05,0-2.12-.08-3.15-.15l-1.67-.09c-1.61-.09-2.91-.13-4.1-.13Z"/><path class="cls-1" d="M142.86,287.34c-.54,0-1.09,0-1.62,0l-1,0a9.13,9.13,0,0,0-3.37.77,2.14,2.14,0,0,0-1,.59,1.26,1.26,0,0,0-.26.32,1.52,1.52,0,0,0-.86,1.13l0,.34c-.08.57-.16,1.15-.23,1.72a17.22,17.22,0,0,0-.08,2.35c0,1.07,0,2.22,0,3.51,0,1-.1,2.29,0,3.61a26.61,26.61,0,0,1-.15,3.42,34.32,34.32,0,0,0-.29,3.59c0,1.18.06,2.35.14,3.65a61.23,61.23,0,0,1,.05,7.26c0,.75-.1,1.5-.15,2.26-.11,1.51-.22,3.08-.26,4.63,0,1.28-.13,2.58-.24,3.84-.08.94-.16,1.87-.21,2.81s-.08,1.68-.09,2.52.07,1.42.14,2.12l0,.36a18.7,18.7,0,0,1,.13,2.29c0,.58,0,1.16-.09,1.74l0,.78c0,.51,0,1-.06,1.54v.7a18.2,18.2,0,0,0,.11,3.05,4.72,4.72,0,0,0,.75,2.3,4.17,4.17,0,0,0,2.59,1.59,21.35,21.35,0,0,0,2.24.26l.8.06,1.33.2c.66.1,1.32.21,2,.28,1.55.19,2.82.32,4,.42l1.56.12q1.09.11,2.19.18c1.08.08,2.18.1,3.25.13h.36c2.4,0,4.74.23,7.33.43,2.4.19,4.79.4,7.18.61,1.67.15,3.37.25,5,.35l1.8.1c1.11.07,2.1.1,3.05.1a33.57,33.57,0,0,0,3.73-.19l1.57-.19a46.37,46.37,0,0,1,5.31-.42,50.14,50.14,0,0,0,5.59-.41l.65-.07.46-.05a33.14,33.14,0,0,0,3.4-.49,23.78,23.78,0,0,0,3.41-1,57.4,57.4,0,0,0,7-3.32,39,39,0,0,0,4.91-3.18l.61-.46c.77-.57,1.56-1.16,2.28-1.81a24.51,24.51,0,0,0,2.33-2.53A29.37,29.37,0,0,0,222.5,338c.47-.76.9-1.57,1.31-2.36l.5-.94c.57-1.07,1.12-2.12,1.59-3.22.14-.35.3-.7.45-1.05a22,22,0,0,0,1.16-3,20,20,0,0,0,.53-3.16v-.12l0-.11a18.75,18.75,0,0,0,.18-3.75c-.05-.49-.11-1-.17-1.46s-.15-1.09-.19-1.65a33.9,33.9,0,0,0-.39-3.57,12.74,12.74,0,0,0-.4-1.5c-.1-.31-.19-.63-.28-.94l-.17-.71c-.2-.8-.41-1.63-.67-2.43a12.82,12.82,0,0,0-1.53-3.08,16.24,16.24,0,0,1-1.35-2.45c-.12-.3-.28-.67-.46-1a9.18,9.18,0,0,0-1-1.58c-.4-.5-.82-1-1.24-1.47s-.7-.79-1-1.2-.73-.94-1.19-1.44A10.25,10.25,0,0,0,216,294a26.89,26.89,0,0,0-4.73-2.16l-.18-.08c-1.08-.43-2.19-.88-3.31-1.23a20.31,20.31,0,0,0-2.41-.52l-.91-.16a60.24,60.24,0,0,0-7.56-.94c-.91-.06-1.82-.15-2.73-.24-1.13-.11-2.29-.22-3.44-.28l-.31,0-.81,0h-.52c-1,0-2.1,0-3.13.09s-2,.1-3.05.1h-.59c-.53,0-1.1,0-1.76-.11a27,27,0,0,0-3.34-.22c-1,0-2.12.06-3.16.12h-.18c-1.34.07-2.37.11-3.35.11s-1.74,0-2.54-.09l-1.89-.33-1.29-.24a20.64,20.64,0,0,0-3.54-.26h-.54c-.67,0-1.35,0-2,.07s-1.09.05-1.63.06h-.35c-.71,0-1.43-.05-2.13-.1l-1-.06c-1.26-.06-2.54-.07-3.63-.07H146.5q-1,0-1.92-.06l-1.05,0Z"/><path class="cls-1" d="M522.54,2c-.91.15-1.8.35-2.69.58a16.31,16.31,0,0,0-3.16,1.13A26.91,26.91,0,0,0,511.63,7a20.93,20.93,0,0,0-3.05,3.12A10.76,10.76,0,0,0,507.46,12a23.9,23.9,0,0,0-1.16,2.46,18.17,18.17,0,0,0-.91,4.32,16.68,16.68,0,0,0,.05,3.39,17.74,17.74,0,0,0,.55,3.23,16.2,16.2,0,0,0,3.78,6.81,17.3,17.3,0,0,0,6.44,4.2,16.65,16.65,0,0,0,3.89.89,9.08,9.08,0,0,0,1.65,0,25.38,25.38,0,0,0,2.88-.22,17,17,0,0,0,3.52-.94c.3,0,.6-.1.9-.17a23.28,23.28,0,0,0,2.36-.78,8.81,8.81,0,0,0,1.13-.5,32,32,0,0,0,2.93-1.85A24.28,24.28,0,0,0,539.59,29a20.3,20.3,0,0,0,2.26-2.81c.59-1,1.12-1.94,1.62-3a28.92,28.92,0,0,0,2-5.3,13.36,13.36,0,0,0,.37-6.09,11.54,11.54,0,0,0-2.63-5c-2-2.43-5-3.71-8-4.41a30,30,0,0,0-6.33-.79H528a34.48,34.48,0,0,0-5.47.42Z"/><path class="cls-1" d="M577.12,53.57a46.16,46.16,0,0,0-5.72,1A28.51,28.51,0,0,0,564,57.68a42.33,42.33,0,0,0-5.46,3.76,33.73,33.73,0,0,0-4,3.69,31.19,31.19,0,0,0-4.14,5.24,37.07,37.07,0,0,0-2.2,4.36,29.08,29.08,0,0,0-2.88,3.9,25.75,25.75,0,0,0-2.5,5.5,29.29,29.29,0,0,0-1.18,6,31.64,31.64,0,0,0,0,5.92,37.48,37.48,0,0,0,.57,5.18,34.86,34.86,0,0,0,2,6.24c1.5,3.56,4.41,6.14,7.53,8.25a46.25,46.25,0,0,0,4.89,2.78c1.9,1,3.79,2,5.78,2.82a72.81,72.81,0,0,0,10.9,3.4,41.73,41.73,0,0,0,11.79,1c2.1-.11,4.18-.28,6.26-.56a30.75,30.75,0,0,0,5.6-1.38,39.27,39.27,0,0,0,5.62-2.31,42.42,42.42,0,0,0,5.55-3.45,28.52,28.52,0,0,0,4-3.48,23.3,23.3,0,0,0,3.67-5.24,34,34,0,0,0,2.49-5.71c.54-1.73,1-3.49,1.43-5.25.52-2.17,1-4.36,1.41-6.54a28,28,0,0,0,.62-5.4,38.85,38.85,0,0,0-.54-6.37c-.33-1.87-.77-3.71-1.2-5.55a27.46,27.46,0,0,0-.93-3,14.61,14.61,0,0,0-2-3.74,16.57,16.57,0,0,0-7.29-8.83c-4.44-2.63-9.6-3.42-14.62-4.2l-2.15-.31c-1.4-.29-2.81-.54-4.2-.78a31.85,31.85,0,0,0-5.44-.43,61.76,61.76,0,0,0-6.4.39ZM551,106.36a1.59,1.59,0,0,1,.13.13l.06.11-.19-.24Z"/></g></g></svg>