<svg xmlns="http://www.w3.org/2000/svg" viewBox="0 0 578 613.57"><defs><style>.cls-1{fill:#f4f4f4;}</style></defs><title>Asset 4</title><g id="Layer_2" data-name="Layer 2"><g id="Draw_Layer" data-name="Draw Layer"><path class="cls-1" d="M296.08,67.16c-.79,0-1.6.06-2.38.11l-.55,0c-1.79.11-3.61.15-5.37.19l-1.72,0c-1,0-2,.12-2.94.2l-.83.07-1.09.09-2.78.23c-.59.06-1.18.1-1.78.14s-1.1.07-1.65.13c-1.73.15-3.44.41-5.09.67-.8.13-1.59.24-2.39.34l-1.51.2c-1.42.2-2.81.46-4.12.71-2.45.47-5.23,1-8,1.34a134.4,134.4,0,0,0-15.25,2.91c-3.08.74-6.14,1.51-9.21,2.29-2.27.29-4.15.57-5.91.89-2.75.5-5.53,1.11-7.92,1.64-2.82.63-5.66,1.31-8.07,1.89s-4.9,1.29-7.75,2.17c-2.34.73-4.68,1.54-6.95,2.33l-.79.27c-1.19.41-2.36.85-3.54,1.28-1.43.53-2.86,1.06-4.31,1.55s-2.95.94-4.39,1.37q-1.68.5-3.33,1a80,80,0,0,0-8.2,3.16c-1.31.58-2.62,1.22-3.9,1.84-.89.43-1.79.87-2.69,1.29-2,.93-4.05,1.81-6,2.65l-.11.05-1.22.49c-2.08.83-4.24,1.69-6.32,2.62s-4.38,2.12-7.21,3.73c-4.38,2.48-8.55,5.25-13.45,8.65l-1.19.83c-3.89,2.69-7.91,5.48-11.83,8.27-2.21,1.59-4.36,3.33-6.44,5l-.47.39c-1.87,1.51-3.82,3.14-6.33,5.28C97,139,92.7,142.73,88.63,146.72c-1.5,1.47-3,2.92-4.52,4.37-2.32,2.23-4.71,4.53-7,6.85-1.48,1.48-2.87,3.1-4.22,4.67l-1.51,1.73c-2.1,2.38-3.72,4.19-5.27,5.86-2,2.22-3.85,4.21-5.52,6.09-1.85,2.08-3.56,4.34-5.21,6.53l-.49.66-1.22,1.59c-1.22,1.6-2.48,3.25-3.68,4.9-1.37,1.9-2.77,4-4.28,6.56-1.38,2.3-2.73,4.56-4,6.87-.77,1.38-1.48,2.82-2.16,4.21-.45.92-.91,1.85-1.38,2.76-.71,1.36-1.45,2.69-2.19,4-.48.86-1,1.73-1.43,2.6-1.28,2.38-2.6,4.74-3.92,7.11a73.09,73.09,0,0,0-3.58,7.4c-.45,1.08-.88,2.16-1.3,3.25s-.85,2.14-1.29,3.2c-1.05,2.41-2.17,4.84-3.22,7.12-1.16,2.51-2.31,5.24-3.49,8.34-.48,1.27-.95,2.54-1.42,3.8s-1,2.7-1.51,4c-1,2.54-1.88,5.13-2.64,7.36s-1.52,4.55-2.46,7.49c-.53,1.67-1,3.34-1.51,5L7.4,283.8C6.63,286.35,6,289,5.48,291.52s-.83,5.06-1.16,7.54l-.2,1.45L4,301.8l-.16,1.14,0,.21-.23,1.51c-.45,3.06-.74,5.45-.94,7.74-.23,2.51-.48,5-.75,7.54-.24,2.26-.54,4.93-.91,7.56s-.68,5.55-.81,8.25a129.9,129.9,0,0,0,.31,15.89c.36,4.81,1,9.67,1.7,14.37l.37,2.65.39,2.9c.58,4.29,1.19,8.73,2,13.07.3,1.66.6,3.31.91,5,.65,3.54,1.32,7.2,1.91,10.81.23,1.36.44,2.73.66,4.1.6,3.83,1.22,7.79,2.05,11.65.59,2.77,1.39,5.49,2.09,7.83.9,3,1.57,5.5,2.11,7.81.29,1.25.57,2.49.85,3.74.36,1.59.72,3.19,1.1,4.78l.41,1.75c.43,1.86.88,3.79,1.41,5.65a103,103,0,0,0,5.78,15.67c.9,1.89,2,3.75,3,5.54l.79,1.38c1.18,2.1,2.56,4.58,3.85,7.11.5,1,1,1.95,1.46,2.93.66,1.34,1.32,2.69,2,4l.15.29c.54,1,1.1,2.11,1.71,3.14.73,1.24,1.54,2.47,2.31,3.63a40.92,40.92,0,0,0,2.51,3.3l.39.48c.9,1.11,1.83,2.17,2.55,3,1.52,1.72,3.13,3.63,4.94,5.82L52,506.66c2.43,3,4.95,6.11,7.62,9s5.68,5.93,8.51,8.77L70.65,527c1.85,1.87,3.62,3.8,5.27,5.61a53,53,0,0,0,5.27,5.15c2.19,1.79,4.49,3.37,6.86,5,1.9,1.29,3.78,2.64,5.57,4,1.41,1.13,2.88,2.4,4.49,3.89s3.19,2.79,5.32,4.41q3.58,2.75,7.18,5.46l2,1.53,1.87,1.51c1.5,1.22,3.05,2.48,4.65,3.62,2,1.47,4.25,3,6.51,4.37s4.57,2.63,7.43,4.13l.31.16c2.13,1.12,4.34,2.28,6.41,3.6,2.75,1.77,4.85,3.17,6.81,4.54l.37.27c.79.55,1.6,1.12,2.43,1.62,1.17.68,2.36,1.34,3.56,2,1.41.73,2.87,1.4,4.29,2,.92.42,1.84.84,2.75,1.28,1.47.71,2.92,1.54,4.32,2.35.84.48,1.69,1,2.55,1.43,1.7.92,3.68,2,5.7,2.87a43.21,43.21,0,0,0,6.91,2.38c.66.18,1.33.34,2,.51,1.36.34,2.76.69,4.12,1.08,2,.57,4.05,1.21,6.34,2a89.93,89.93,0,0,0,12.53,3.38c2.91.52,5.9.81,8.79,1.08,1.7.16,3.46.33,5.19.54,1.2.19,2.41.39,3.61.6a121.11,121.11,0,0,0,12.13,1.6l2.78.16c1.66.09,3.31.18,5,.31,2.09.16,4.21.42,6.25.67l1.66.2c2.78.33,5.53.6,8.16.8,2.85.22,5.34.33,7.64.33h4.56c3,0,7,0,11,.08l1.27,0c1.42,0,2.84.06,4.27.06h1a64.07,64.07,0,0,0,8.55-.73c2.36-.34,4.66-.79,7.22-1.31,2.39-.47,4.65-.85,6.9-1.16,1.19-.12,2.38-.22,3.58-.32s2.58-.22,3.87-.36c2.85-.31,5.84-.77,9.42-1.45,5.27-1,10.56-2.33,15.68-3.62l.35-.09,3-.75c4.3-1.07,8.76-2.17,13-3.54a124.75,124.75,0,0,0,15.49-6.35c2.79-1.33,5.6-2.72,8.33-4.07l3-1.49c3.49-1.73,7.17-3.42,11.25-5.17L402,581.4c3.39-1.28,6.89-2.61,10.26-4.11,2.43-1.08,4.78-2.32,7-3.5,2.55-1.36,4.88-2.68,7.12-4,4.78-2.87,9.35-6.11,13.57-9.19,2.16-1.58,4.62-3.38,7-5.25l.24-.19c1-.82,2.05-1.64,3.06-2.49.77-.66,1.52-1.34,2.26-2l.94-.87a79,79,0,0,0,5.91-6.13c1.54-1.75,3.36-3.83,5.1-6,1.95-2.41,4-4.88,5.78-7.42l1.47-2c1.12-1.53,2.27-3.11,3.34-4.71,6.35-9.5,12.62-19.25,18.44-28.37,1.56-2.44,3.2-4.88,4.79-7.25,3.12-4.64,6.35-9.45,9.08-14.45,3.93-7.19,7.71-15.07,11.55-24.09,2.27-5.18,4.47-10.46,6.55-15.68l.21-.54c.92-2.31,1.88-4.7,2.63-7.11.47-1.51.9-3.06,1.31-4.56.28-1,.56-2.05.85-3.07.55-1.9,1.12-3.8,1.68-5.71,1-3.36,2-6.83,3-10.26,1-3.77,1.77-7.69,2.47-11.48.24-1.31.48-2.62.73-3.93l.17-.87c.48-2.46,1-5,1.32-7.53.33-2.37.58-4.88.8-7.87.2-2.7.41-5.41.63-8.1.19-2.21.3-4.55.36-7.6a120.21,120.21,0,0,0-1-15.33l0-.44c-.09-.86-.19-1.71-.29-2.57-.19-1.72-.39-3.43-.54-5.15-.2-2.23-.45-4.87-.77-7.57-.39-3.27-.9-6.49-1.39-9.48l-.23-1.39c-.38-2.31-.76-4.7-1.21-7-.84-4.38-1.92-8.78-3-13l-.41-1.66c-.47-1.91-.86-3.87-1.24-5.76-.16-.81-.32-1.62-.49-2.43-.48-2.32-1.05-4.85-1.78-8-1.15-4.86-2.45-10.36-4.11-15.67-1.2-3.84-2.62-7.68-4-11.39-.42-1.12-.84-2.25-1.25-3.38s-.83-2.26-1.26-3.39c-.49-1.3-1-2.61-1.45-3.92-.87-2.41-1.91-5-3.18-8-.74-1.75-1.59-3.51-2.42-5.2l-.77-1.57c-1.12-2.31-2.23-4.54-3.32-6.63-.91-1.75-1.89-3.49-2.84-5.18l-1-1.85-.71-1.27c-1-1.84-2.07-3.74-3.19-5.56-1-1.66-2.13-3.43-3.35-5.14-.61-.85-1.23-1.69-1.86-2.53s-1.1-1.49-1.64-2.24l-.09-.12c-1.23-1.71-2.51-3.48-3.84-5.17-.65-.82-1.31-1.63-2-2.44l-1.32-1.62c-1.41-1.92-2.7-4-3.95-5.95a62.29,62.29,0,0,0-5.32-7.11c-1.05-1.23-2.16-2.43-3.24-3.59-.57-.62-1.14-1.23-1.7-1.85-1.73-1.9-3.35-3.89-4.71-5.59a74.41,74.41,0,0,0-4.9-5.71c-1.57-1.6-3.26-3.24-5.31-5.16-.88-.83-1.77-1.63-2.66-2.44s-1.95-1.77-2.91-2.67c-2.18-2.06-4.27-3.85-6.38-5.49l-.09-.06-.1-.08-.18-.14-.06-.05-.1-.08-.1-.06h0c-1.12-.87-2.24-1.72-3.36-2.57-2.47-2-4.81-4-6.58-5.58-2.52-2.26-5.26-4.36-7.91-6.39l-.9-.68c-.48-.38-1-.76-1.45-1.13l-.08-.05h0a.32.32,0,0,0-.11-.12l.09.1c-3.7-2.87-7.6-5.61-11.38-8.26l-.34-.24c-2.08-1.46-4.34-3-6.73-4.42-1.54-.9-3.16-1.74-4.73-2.54l-2.06-1.07c-1.45-.76-2.85-1.65-4.21-2.5l-1.36-.86c-1.13-.69-2.24-1.41-3.34-2.13-.83-.53-1.65-1.07-2.48-1.59l-.37-.23c-2.07-1.3-4.2-2.64-6.37-3.84s-4.69-2.56-6.93-3.75c-3.12-1.66-5.55-2.89-7.89-4-2-1-4.12-1.82-6.15-2.65-.78-.32-1.55-.63-2.32-1-2.43-1.05-5-2.15-7.59-3.13-1.61-.61-3.28-1.13-4.89-1.63l-2-.63c-2.33-.74-4.82-1.52-7.37-2.16-1.94-.49-3.93-.91-5.85-1.32l-1.12-.24L326.72,72l-2-.4c-.82-.18-1.63-.4-2.44-.61l-1-.26c-2-.52-4.07-1-6.06-1.43l-.85-.2c-2.71-.61-5.23-1.09-7.71-1.45a37.74,37.74,0,0,0-4.73-.28c-.67,0-1.34,0-2,0l-1.44-.07-1.8-.08-.61,0ZM187.23,217.58c2-.3,3.67-.64,5.23-1,1.41-.35,2.9-.64,4.84-.94,4.38-.57,7.71-.9,10.82-1.07,1.34-.08,2.71-.09,4-.11l2,0c1.87,0,3.83-.18,6-.43,3.7-.43,7.4-.6,11.51-.77l2.86-.13c2.53-.12,5.14-.24,7.71-.24h.94l3.51,0c2.6,0,5.29,0,7.94.13l1.1,0,4.5.17,1.9,0h3.15l4.25,0,5.84,0h1.24c2.25,0,4.54.15,6.76.29,1.45.09,2.9.18,4.35.24.83,0,1.65,0,2.48,0,1.33,0,2.67,0,4-.06s2.78-.07,4.17-.07h.44c2,0,4,.17,5.53.3,1.9.16,3.87.27,6,.35,4.4.15,7.76.22,10.9.22H322a106.58,106.58,0,0,1,11,.61h.17c1.65.24,3.32.55,4.94.85s3.29.62,4.95.87a84.65,84.65,0,0,1,10.44,2c.8.22,1.58.48,2.36.73s1.35.45,2,.65c1.34.38,2.71.71,4,1l.59.14c1.71.41,3.46.77,5.15,1.12a31,31,0,0,1,4.71,1.35,17.45,17.45,0,0,1,2.73,1.62c.27.23.53.47.79.71s.8.75,1.23,1.1c.73.6,1.5,1.16,2.26,1.71l.86.64a20.31,20.31,0,0,1,2,1.71c.63.66,1.24,1.36,1.94,2.23a43,43,0,0,1,4.26,7.92c.19.44.43,1,.63,1.64.31,1,.54,1.92.76,2.83.33,1.4.77,2.81,1.2,4.16l.23.76a36.31,36.31,0,0,1,1.07,5l.09.53c.16.94.37,1.88.57,2.8.16.72.32,1.44.46,2.16s.12,1.52.16,2.28.08,1.41.15,2.12.13,1.28.21,1.92c.1,1,.22,1.94.28,2.92,0,.65.08,1.3.11,1.94.05,1,.11,2.07.21,3.1s.24,2,.38,3.05c.1.7.2,1.41.28,2.12l.27,2.08c.15,1.16.3,2.31.43,3.47.17,1.52.25,3.08.33,4.59l.06,1c.1,1.86.12,3.74.14,5.57s0,3.83.15,5.74l.15,2.43c.19,2.91.39,5.93.44,8.9l.05,1.85c0,1.38.07,2.76.07,4.15,0,1.87,0,3.87.13,5.89.05.84.14,1.68.23,2.52.11,1,.22,2.11.25,3.17a37.46,37.46,0,0,1-.18,4.11l-.08,1.1a33.79,33.79,0,0,0-.07,5.69,53.45,53.45,0,0,1,.22,6c-.05,2.3,0,4.17.07,5.89,0,.63.08,1.27.12,1.9.08,1.12.16,2.27.18,3.41,0,.74,0,1.49,0,2.23,0,1,0,2.12,0,3.18s.17,1.9.27,2.83.19,1.61.25,2.41a37.43,37.43,0,0,1-.13,5.51,38.19,38.19,0,0,0-.14,5.46c.14,1.95.3,4.17.25,6.33,0,1.09-.09,2.21-.15,3.28-.06.86-.11,1.72-.14,2.58-.05,1.38,0,2.78,0,4.14,0,.71,0,1.41,0,2.12a52.81,52.81,0,0,1-.26,5.87l-.16,1c-.15,1-.31,2-.42,3.06s-.18,2.17-.21,3.5c0,2-.08,4.14-.29,6.22-.17,1.3-.37,2.68-.64,4.05s-.65,2.89-1.13,4.57c-.71,2.5-1.68,5.78-2.94,9l-.57,1.28-.66,1.53-.1.22c-.46,1.09-.93,2.21-1.49,3.28a28.58,28.58,0,0,1-1.62,2.63l-.29.45c-.48.72-1,1.46-1.62,2.28-.84,1-1.77,2-2.67,3l-.09.11c-1.07,1.14-2.08,2.14-3.09,3.05-.66.58-1.31,1.19-2,1.79-1.25,1.16-2.55,2.35-3.89,3.44-1.24.9-2.56,1.72-3.83,2.51l-1.19.74a43.26,43.26,0,0,1-4.85,2.77c-1,.4-2,.77-3,1.14-.64.23-1.28.46-1.92.71a43.69,43.69,0,0,1-5.81,1.63c-1.63.36-3.31.6-4.94.84l-2.21.33-2.59.43c-1.32.22-2.63.44-3.95.64-3.2.44-6.93.93-10.6,1.08-1.93.07-3.86.18-5.79.29s-4.08.22-6.13.3l-1.1,0c-1.49.05-3,.1-4.52.24l-.49,0c-1.63.15-3.27.3-4.91.42-1.46.11-3,.16-4.56.16-2.07,0-4.24-.09-6.63-.28-3.18-.24-6.55-.37-10.95-.41-3.6,0-7.25-.18-10.86-.45l-1.05-.07c-1.58-.12-3.21-.24-4.83-.27l-5.07,0h-.84c-2.42,0-4.88-.18-7.25-.35q-1.77-.14-3.54-.24l-3.12-.16c-2.53-.12-5.14-.24-7.71-.51l-3-.43c-1.52-.23-3-.45-4.56-.64-3.14-.39-5.57-.62-7.87-.73-1.32-.06-2.64-.08-4-.11s-2.64-.06-4-.12c-5.28-.24-10.49-.81-15.81-1.42l-1.06-.14c-3.16-.42-6.43-.84-9.6-1.5a67.83,67.83,0,0,1-11.77-3.47c-.92-.38-1.89-.76-2.86-1.15A26.81,26.81,0,0,1,172.6,461l-1.25-.78c-.7-.44-1.42-.9-2.16-1.3-1.28-.7-2.62-1.31-3.93-1.89l-.21-.09a16.62,16.62,0,0,1-2.94-1.7c-1-.82-2-1.71-2.93-2.57l-.29-.26q-1.68-1.51-3.33-3.08a54,54,0,0,1-5.45-6.28,23.77,23.77,0,0,1-2.17-3.85c-.32-.7-.67-1.4-1-2.09s-.63-1.25-.92-1.88c-.4-1.1-.7-2.24-1-3.35-.15-.61-.31-1.21-.49-1.81-.3-1.05-.62-2.09-.94-3.13s-.56-1.82-.83-2.73c-.62-2.1-1.21-4-1.83-5.78a29.89,29.89,0,0,1-1.19-5.14c-.19-1.47-.33-3-.43-4.55,0-.63-.08-1.25-.11-1.88-.07-1.3-.14-2.64-.29-4l-.08-.75c-.17-1.52-.34-3.09-.43-4.65,0-.9-.08-1.8-.11-2.7s-.07-2.06-.14-3.09c-.12-1.72-.15-3.52-.09-5.67,0-1.27,0-2.53,0-3.79v-1.9c0-1.61.15-3.24.28-4.82l.07-.83c.13-1.6.29-3.71.32-5.85,0-1.92.18-3.87.34-5.75.06-.74.12-1.49.17-2.23.11-1.42.15-2.87.19-4.26,0-1.11.06-2.22.13-3.33,0-.72.09-1.44.14-2.16s.09-1.14.13-1.71c.07-1.18.06-2.38,0-3.54v-.75a59.76,59.76,0,0,1,.59-7.6l.05-.47c.12-.95.24-1.91.32-2.86s.11-1.75.15-2.62l0-.57c.09-1.67.16-3.44.21-5.58,0-.89,0-1.77,0-2.66s0-2.1,0-3.15.11-2.39.17-3.58c.05-.94.1-1.87.14-2.81,0-.67.07-1.33.1-2,.08-1.4.15-2.79.18-4.19s0-2.58-.06-3.84c0-.7-.05-1.4-.06-2.11,0-2.29.09-4.62.23-6.87.08-1.32.16-2.65.2-4,.06-1.86.2-3.84.43-6.24l.1-1c.18-1.9.36-3.79.56-5.68,0,.1,0,.2,0,.3q.21-1.57.39-3.15c.32-2.41.7-4.86,1.06-7.23l.13-.9c.34-2.24.87-4.48,1.38-6.65.25-1.06.5-2.11.73-3.17s.43-2.13.63-3.2c.12-.66.25-1.31.38-2a44.36,44.36,0,0,1,1.32-4.83l.4-1.25c.36-1.13.74-2.3,1.06-3.47a43.9,43.9,0,0,1,1.69-5c.34-.83.64-1.52,1-2.19a15.26,15.26,0,0,1,1.44-2.21c.41-.52.83-1,1.24-1.44,1-.68,2-1.35,2.95-2l.33-.22c.87-.59,1.77-1.2,2.7-1.73.72-.4,1.45-.75,2.33-1.14l.53-.22a52.68,52.68,0,0,0,5.59-2.53l1.5-.85c1.09-.63,2.22-1.28,3.39-1.83a45.13,45.13,0,0,1,9-2.43l2.26-.32.57-.08h0Z"/><path class="cls-1" d="M274.12,297.08c-.84,0-1.69,0-2.54.05s-1.94,0-2.91,0-1.8,0-2.7,0a33.66,33.66,0,0,0-6.06.82c-1,.19-1.93.45-2.86.7-.75.2-1.49.4-2.25.57-.53.12-1.08.22-1.62.32a24.12,24.12,0,0,0-3.13.74,20.39,20.39,0,0,0-5.5,2.75,32.76,32.76,0,0,0-4.92,4.09c-1.07,1.11-2.18,2.37-3.41,3.83s-2.52,3-3.68,4.61c-.94,1.31-1.81,2.71-2.53,3.9l-.3.48a36.77,36.77,0,0,0-2,3.59,34.34,34.34,0,0,0-2.06,5.93c-.51,1.93-.94,3.86-1.27,5.74a25.3,25.3,0,0,0-.44,6.06,46.56,46.56,0,0,0,.95,6.48q.54,2.52,1,5.05a23.35,23.35,0,0,0,1,3.45l.29.8.31.88a47.73,47.73,0,0,0,2,5.12,17.2,17.2,0,0,0,1.94,3,19.23,19.23,0,0,0,1.76,2,40.75,40.75,0,0,0,5,4.07l2.26,1.55c.81.54,1.62,1.09,2.42,1.65,1.53,1.08,3.07,2.16,4.63,3.21a36.85,36.85,0,0,0,8.55,3.84l2.1.75.47.17c1.34.5,2.73,1,4.13,1.42a33.22,33.22,0,0,0,6,.95,15.75,15.75,0,0,0,1.7.08,34.48,34.48,0,0,0,9.84-1.85,59.74,59.74,0,0,0,10.36-4.21,35.36,35.36,0,0,0,4.58-2.89c1-.73,2-1.51,3-2.31l.35-.28a17.45,17.45,0,0,0,1.58-1.39A35.79,35.79,0,0,0,303,369.3c.36-.49.71-1,1.07-1.46l.6-.79a28.78,28.78,0,0,0,2.47-3.58c1-1.88,1.82-3.41,2.46-4.84a64.63,64.63,0,0,0,2.34-6.24,28.91,28.91,0,0,0,1.07-5.05c.31-2.35.54-4.27.73-6a32.31,32.31,0,0,0,.18-4.88c-.07-1.51-.26-3-.44-4.45a36.08,36.08,0,0,0-.91-5c-.16-.57-.34-1.13-.51-1.69s-.39-1.25-.57-1.89a27.21,27.21,0,0,0-1.76-4.41l-.1-.21a21.21,21.21,0,0,0-2.85-4.68c-.66-.79-1.41-1.54-2.14-2.26l-.84-.84c-1.09-1.11-2.16-2.29-3.19-3.51l-.36-.48c-.43-.58-.86-1.16-1.31-1.72a11.58,11.58,0,0,0-2.12-1.9l-.45-.34.14.14-.16-.13,0,0h0a26.91,26.91,0,0,0-2.61-1.81c-.31-.19-.63-.36-1-.53l-.59-.33-.18-.1a13.09,13.09,0,0,0-1.24-.64l-.95-.39a3.72,3.72,0,0,0-1-.13,4.13,4.13,0,0,0-1,.14,4.21,4.21,0,0,0-1.06.48,47.49,47.49,0,0,0-9.1-2.46,23.54,23.54,0,0,0-3.45-.22Z"/><path class="cls-1" d="M370,314.79c-.43,0-.86,0-1.28.06l-.74,0c-1.7.08-3.33.2-5,.37-.82.08-1.68.12-2.61.12s-1.69,0-2.66-.1c-.59,0-1.17-.05-1.75-.05a30.73,30.73,0,0,0-3.74.23,78.33,78.33,0,0,1-8.36.39l-2.22,0c-2.78.05-6.93.13-7.8,3.53a8.43,8.43,0,0,0,.31,4c.09.4.19.8.27,1.19l.07.68c0,.6.11,1.22.22,1.82a12.55,12.55,0,0,0,.79,2.43,19.66,19.66,0,0,1,.9,2.61c.15.6.26,1.2.37,1.92l.12.93c.15,1.25.31,2.51.44,3.77a18,18,0,0,1-.1,3.91c-.14,1-.3,1.92-.47,2.88l-.16.95c-.19,1.17-.31,2.37-.43,3.53l-.1,1c-.15,1.12-.3,2.22-.34,3.32l0,.49c0,.62,0,1.23-.08,1.84a49.82,49.82,0,0,1-1.4,5.6l-.09.32c-.79,2.69-1.54,4.91-2.36,7v0l-.18.45-.83,2.05a35.72,35.72,0,0,1-3.66,6.67c-1.39,1.69-2.91,3.31-4.37,4.88-1.2,1.28-2.44,2.61-3.6,4-.7.81-1.36,1.65-2,2.49s-1.4,1.78-2.14,2.64a32.68,32.68,0,0,1-4.42,4.14l-2.56,1.89-1.86,1.36c-1.18.88-2.32,1.84-3.42,2.76-.6.5-1.2,1-1.81,1.5a44.27,44.27,0,0,1-7.1,4.29c-1,.37-2,.69-2.86,1q-2.33.75-4.68,1.46a64.4,64.4,0,0,1-8.42,1.88,68,68,0,0,1-8.35.63c-1.18,0-2.28-.05-3.36-.15a40.63,40.63,0,0,1-4.88-1.06c-1-.29-2.08-.64-3.08-1-.79-.26-1.57-.52-2.36-.76-1-.3-2-.57-2.95-.84s-1.87-.52-2.8-.8c-1.86-.56-3.68-1.18-5.4-1.83-2.2-.95-4.29-2-6.6-3.16a53.52,53.52,0,0,1-6.93-4.13c-.92-.73-1.78-1.48-2.57-2.22-.6-.55-1.18-1.13-1.77-1.7s-1.08-1.07-1.64-1.59l-1.74-1.61a56.85,56.85,0,0,1-4.58-4.48c-1-1.36-2-2.79-2.88-4.17l-.27-.39-.88-1.33c-.29-.45-.59-.89-.88-1.33s-.72-1-1.09-1.49-.55-.72-.81-1.09a59.14,59.14,0,0,1-5.72-10.22,45.78,45.78,0,0,1-2.16-7.92c-.43-2.31-.79-4.4-1.09-6.39s-.37-4-.44-6.66a63.72,63.72,0,0,1,.26-7.68c.38-2.57.91-5.15,1.43-7.64l.12-.59c.23-1.13.42-2.28.59-3.4l.09-.55a15.23,15.23,0,0,1,.8-2.94,6.88,6.88,0,0,0,.69-2.8,4.36,4.36,0,0,0-.59-2.11,4,4,0,0,0-1.4-1.44l-.13-.1a4.61,4.61,0,0,0-2.67-.69,14.15,14.15,0,0,0-1.49.1c-.37,0-.73.08-1.09.09l-.58,0c-.72,0-1.45-.06-2.11-.1-1.86-.13-3.74-.32-5.57-.5l-.67-.07c-.75-.07-1.53-.11-2.37-.11h-.8a23,23,0,0,0-2.86.33l-.33.05a52.69,52.69,0,0,1-7,.59c-.81,0-1.59,0-2.33-.1l-1.63-.25-1.39-.22c-1.44-.21-2.92-.37-4.35-.53l-.31,0h-.19a3.2,3.2,0,0,0-2.08,1,3.29,3.29,0,0,0-.94,2,4.42,4.42,0,0,0-1,1.87,9.54,9.54,0,0,0-.26,2.49c0,.32,0,.64,0,1-.14.92-.23,1.7-.3,2.42,0,.36-.05.71-.07,1.07s-.05.77-.09,1.16a27.72,27.72,0,0,0-.25,2.91c0,.73-.05,1.46-.08,2.19l0,.82,0,.42c0,.67,0,1.35,0,2s.07,1.36.14,2l.06.64a33.55,33.55,0,0,1-.06,5.11,44,44,0,0,0,0,5.85,28.24,28.24,0,0,1,0,3.32c0,.68-.06,1.37-.07,2.06a29.25,29.25,0,0,0,.24,3.26c.07.61.14,1.23.18,1.86.08,1.15,0,2.33,0,3.47,0,.63,0,1.25,0,1.88s0,1.24,0,1.86c0,1.12,0,2.27,0,3.4v.45c-.05,1.25-.1,2.55-.07,3.83L162,381c0,1.28,0,2.75.17,4.19,0,.39.07.78.11,1.16.09,1,.19,1.94.22,2.92l0,1.4c0,.89,0,1.78.07,2.66.06,1.2.21,2.41.35,3.58l0,.16c.1.85.16,1.71.21,2.55,0,.4.05.81.08,1.22a42.79,42.79,0,0,0,.77,4.88c.11,1.1.11,2.13.12,3.12,0,.55,0,1.1,0,1.66.05,1.66.2,3.36.34,5l.06.61a25.57,25.57,0,0,0,.51,3.57c.12.5.27,1,.41,1.5s.25.84.36,1.26.18.78.25,1.17.17.82.27,1.23a16.9,16.9,0,0,0,.95,2.55c.2.51.39,1,.57,1.56a31.66,31.66,0,0,0,1.31,3.23,20.84,20.84,0,0,0,2.42,3.94c.51.62,1.08,1.21,1.63,1.78s1,1,1.43,1.55a37.57,37.57,0,0,0,3.59,3.71c3,2.71,7.28,3.57,11.4,4.1,1.25.16,2.52.25,3.74.35.88.06,1.76.13,2.63.22l1.83.2c1.08.13,2.21.27,3.32.33.42,0,.84,0,1.27,0,.78,0,1.56,0,2.34-.06l1.78-.06h6.26c1.72,0,3.43,0,5.16.08l2.29,0h3.88c1,0,2,.06,3,.11s2,.09,3,.1H231c.81,0,1.62,0,2.42,0h.34c.76,0,1.51,0,2.27,0h.41c4.38,0,8.63.42,11.85.75,2.32.23,4.4.38,6.36.44l2.46.06c1,0,2.05,0,3.08.08,1.56.06,3.15.18,4.69.29,2.15.15,4.39.32,6.59.34h.69c1.53,0,3.05,0,4.58-.07l.58,0h1c1.79,0,3.59.11,5.28.24l2.26.18c1.18.1,2.36.21,3.55.27,1.93.12,3.95.17,6.19.17,1.6,0,3.19,0,4.79.07s3,0,4.55,0h2.47c2.55,0,5.29,0,8,.18l2.89.17c2.42.14,4.93.29,7.4.37l1,0c.82,0,1.65.06,2.48.06.55,0,1.11,0,1.66,0,1.75-.11,3.45-.35,4.88-.57.88-.11,1.77-.19,2.66-.27s1.9-.17,2.85-.29a57,57,0,0,0,7-1.31l1.29-.33a40.45,40.45,0,0,0,5.48-1.61c1.41-.56,2.81-1.2,4.17-1.81.72-.33,1.44-.66,2.17-1l2.3-1,.1,0a22.55,22.55,0,0,0,3.14-1.5,16.14,16.14,0,0,0,1.81-1.36l.14-.13a8.91,8.91,0,0,0,1.6-1.95l.24-.35a17.29,17.29,0,0,0,1.13-2l.25-.48c.54-1,.92-1.85,1.26-2.62a29,29,0,0,0,1.87-6c.36-1.86.61-3.71.88-5.92.19-1.46.41-3.39.55-5.38,0-.72.11-1.44.18-2.16.09-.94.19-1.9.22-2.86s.06-1.7.08-2.55,0-1.71.08-2.56c0-.69.07-1.39.12-2.08.06-1,.12-2.09.14-3.13s0-1.85-.08-2.75c0-.7-.08-1.41-.08-2.12s0-1.31,0-2c0-1,0-2,0-3,0-.73,0-1.47,0-2.2,0-1.06,0-2.11,0-3.16s-.09-2-.17-3c-.07-.81-.14-1.63-.17-2.44,0-.52,0-1.05,0-1.57,0-1,0-2-.12-3.05-.14-1.71-.19-3.15-.17-4.52,0-.53,0-1.07.05-1.61,0-.93.09-1.9,0-2.85,0-.37-.05-.74-.08-1.11a16,16,0,0,1-.1-1.7c0-.77,0-1.54.07-2.31l.06-1a39.19,39.19,0,0,0,.13-3.92l0-.63c0-1.45-.09-3,0-4.44,0-.75.08-1.49.12-2.23.06-.93.12-1.86.15-2.79,0-1.17.07-2.55.21-3.93.22-1.69.45-3.49.56-5.32l.05-.76c.08-1.38.17-2.81.18-4.22a39.32,39.32,0,0,0-.8-7c-.12-.68-.21-1.27-.31-1.86-.19-1.17-.38-2.38-.65-3.55a7.5,7.5,0,0,0-1.73-3.21,6.47,6.47,0,0,0-2.85-1.73,5,5,0,0,0-1.62-.23Z"/><path class="cls-1" d="M342.42,237.27c-1.16,0-2.33.06-3.46.11l-.24,0c-1.25.06-2.51.16-3.77.26l-1.77.13c-.76.06-1.53.09-2.29.13-1.19.06-2.42.12-3.61.25a4.38,4.38,0,0,0-2.85,1.19,4.09,4.09,0,0,0,2.61,7,3.17,3.17,0,0,0-.08.55c-.07,1.1-.11,2.2-.14,3.31,0,.79-.06,1.59-.1,2.38-.05,1.14-.17,2.29-.28,3.41q-.12,1.17-.21,2.34c-.06.74-.14,1.48-.22,2.21-.1,1-.21,2-.26,2.94l-.06,1.22c-.06,1.2-.12,2.43-.23,3.65-.11.72-.24,1.44-.37,2.16s-.29,1.59-.4,2.39a29.55,29.55,0,0,0-.3,3.08c0,.34,0,.68,0,1,0,.58,0,1.15-.05,1.73s-.21,1.21-.35,1.81l0,.2a6.64,6.64,0,0,0-.1,3.67,4.76,4.76,0,0,0,1.05,1.78,7.36,7.36,0,0,0,1.15.92,6.22,6.22,0,0,0,2.27.8l1,.18,1.45.27a52.66,52.66,0,0,0,6,1c1.09.11,2.19.19,3.29.28l1.79.14,1.61.13c2.65.23,5.39.46,8.09.48h.38c1.15,0,2.33-.05,3.47-.1l1.11,0h.49c.78,0,1.56.06,2.32.13.51,0,1,.08,1.53.1h.34a15.13,15.13,0,0,0,2.6-.31l.41-.07a8,8,0,0,0,2.67-.94,5.94,5.94,0,0,0,1.31-1,6,6,0,0,0,1.34-2.24,9,9,0,0,0,.53-2.59v-.11c.07-.48.15-1,.22-1.45.1-.67.21-1.34.29-2a35.47,35.47,0,0,0,.26-5.64c0-.59-.06-1.18-.12-1.76a20.16,20.16,0,0,1-.11-2.46c0-1.38.16-2.74.31-4.14l.06-.59c.13-1.13.25-2.3.27-3.46s0-2.1,0-3.15V257.5c0-1.31-.07-2.62-.13-3.9v-.29a23.74,23.74,0,0,1,.14-3.41c.08-.52.18-1,.28-1.54.07-.34.13-.67.19-1,.11-.56.17-1.12.23-1.69l0-.34a4.9,4.9,0,0,0,0-1.08,4.48,4.48,0,0,0-.57-2l-.12-.16a4.14,4.14,0,0,0-1.22-1.21,5,5,0,0,0-1.29-.52l-.82-.18-.63-.13-.82-.19c-.69-.16-1.38-.32-2.08-.45a68.87,68.87,0,0,0-8.52-.92c-1.61-.1-3.27-.21-4.9-.38l-.46-.06c-1.85-.24-3.75-.49-5.64-.65-.76-.06-1.55-.1-2.4-.1Z"/><path class="cls-1" d="M469.94,569.23c-1,0-1.95.07-2.92.15a21.29,21.29,0,0,0-5.23,1,20.24,20.24,0,0,0-2.77,1.25,21.08,21.08,0,0,0-3.57,2.26,20.84,20.84,0,0,0-2.32,2.18,14.87,14.87,0,0,0-2,3,22.39,22.39,0,0,0-1.76,4.9,16,16,0,0,0-.32,6.65,11.74,11.74,0,0,0,1.18,3.65,18.15,18.15,0,0,0,1.17,1.94,14.8,14.8,0,0,0,1.87,2,12.85,12.85,0,0,0,2.65,1.91,17.77,17.77,0,0,0,5.44,3.43c.93.37,1.86.72,2.82,1a26.75,26.75,0,0,0,4,1.1,20.68,20.68,0,0,0,5.09.23,14.94,14.94,0,0,0,6.67-2.35,27.08,27.08,0,0,0,2.69-2,22.12,22.12,0,0,0,3.91-4.34,31.77,31.77,0,0,0,2.4-3.89,14.56,14.56,0,0,0,1.42-7.52,12.06,12.06,0,0,0-.43-2.31c-.2-.79-.4-1.55-.65-2.32a15.93,15.93,0,0,0-2.4-4.49,29.17,29.17,0,0,0-3-3.25,19.31,19.31,0,0,0-3.5-2.52,14.29,14.29,0,0,0-5.61-1.81,15.45,15.45,0,0,0-1.81-.09c-1,0-2,.07-3,.13Z"/><path class="cls-1" d="M542.07,548.93a37.37,37.37,0,0,0-7.19,1.35c-3,.89-6.1,2-8.52,4.06a19.61,19.61,0,0,0-5,6.73c-.45.95-.8,2-1.17,2.95-.5,1.36-.94,2.74-1.31,4.13a36.44,36.44,0,0,0-1.5,4.57,23.33,23.33,0,0,0-.77,6.91,26.84,26.84,0,0,0,1.3,6.86,31,31,0,0,0,3.29,7.22c2.22,3.54,5.86,5.78,9.71,7.17a51.35,51.35,0,0,0,13.1,3,30.43,30.43,0,0,0,8.68-.43,41.87,41.87,0,0,0,6.67-1.89,33.81,33.81,0,0,0,11.77-7.61,22.21,22.21,0,0,0,2-2.3,28.45,28.45,0,0,0,2.24-3.6,18.75,18.75,0,0,0,1.45-3.91c.13-.44.28-.88.39-1.33a28,28,0,0,0,.58-2.87,33,33,0,0,0-1.75-14.53,24.15,24.15,0,0,0-3.38-6.51,17.71,17.71,0,0,0-2.85-2.89,18.18,18.18,0,0,0-3.3-2.19,22.19,22.19,0,0,0-2.92-1.37,72.78,72.78,0,0,0-12.61-3,38.42,38.42,0,0,0-6.42-.59c-.83,0-1.67,0-2.5.1Z"/><path class="cls-1" d="M508.24,506.81a9.45,9.45,0,0,0-4.81,3.64,10.12,10.12,0,0,0-1.45,2.66,8.55,8.55,0,0,0-.44,3.44,4.45,4.45,0,0,0,.12.73,7.56,7.56,0,0,0-.21,1.36,7.88,7.88,0,0,0,.46,3.08,6.65,6.65,0,0,0,1.75,2.35,5.85,5.85,0,0,0,2.15,1.24,7.71,7.71,0,0,0,3.05.43,11.63,11.63,0,0,0,2.87-.53,9.42,9.42,0,0,0,2.68-1.22,11,11,0,0,0,3.38-3.86,13.14,13.14,0,0,0,.73-1.57,10.63,10.63,0,0,0,.9-4.11,6.75,6.75,0,0,0-1.81-4.57,10.26,10.26,0,0,0-7.28-3.36,7.48,7.48,0,0,0-2.09.29Zm4.12,8.13h0v0l0,0,0,0Zm.27.36a1,1,0,0,1,.1.17l-.1-.17Z"/><path class="cls-1" d="M176.85,44.74c-.45,0-.89.11-1.32.2-.76.16-1.51.36-2.26.56a14.17,14.17,0,0,0-2.31,1,18.6,18.6,0,0,0-2.21,1.16,10.45,10.45,0,0,0-3.2,3.25,12.55,12.55,0,0,0-2,5,10.23,10.23,0,0,0,.05,2.65c.14.62.29,1.25.45,1.86a7.38,7.38,0,0,0,.5,1.28,10.58,10.58,0,0,0,3.91,4.55l.27.33A8.37,8.37,0,0,0,177,69.25a12.53,12.53,0,0,0,2.78-1c.63-.32,1.26-.68,1.86-1a13,13,0,0,0,4.21-4.45A18.28,18.28,0,0,0,187.15,60c.31-.8.56-1.62.79-2.45a8.15,8.15,0,0,0,.2-2.09,5.49,5.49,0,0,0-.07-1.46q-.18-.77-.39-1.53a13.67,13.67,0,0,0-1.58-3.32A12.92,12.92,0,0,0,184,46.65a8,8,0,0,0-1.84-1.16,8.23,8.23,0,0,0-2.8-.78,8.52,8.52,0,0,0-1-.06,14.74,14.74,0,0,0-1.5.09Z"/><path class="cls-1" d="M229.81.4a36.57,36.57,0,0,0-4.12,1,15.93,15.93,0,0,0-3.16,1.47,12.58,12.58,0,0,0-1.85,1.22,24.87,24.87,0,0,0-5.07,5.58c-.22.21-.42.42-.63.63a17.77,17.77,0,0,0-3.17,5.16,21.08,21.08,0,0,0-1.18,3.63,21.58,21.58,0,0,0-.57,7.25,15.4,15.4,0,0,0,2.13,6.09,12.28,12.28,0,0,0,2.18,2.79,17.36,17.36,0,0,0,3.42,2.42A17.66,17.66,0,0,0,223,39.47a20,20,0,0,0,4.37.34,19.73,19.73,0,0,0,5.21-.87,22.74,22.74,0,0,0,4.14-1.82A40.56,40.56,0,0,0,243,33.3a23.86,23.86,0,0,0,2.36-2.14,16.22,16.22,0,0,0,2.1-3A19.89,19.89,0,0,0,248.81,25a27,27,0,0,0,1.55-6.92,18.69,18.69,0,0,0-1.86-9.76A17,17,0,0,0,247.14,6a13.25,13.25,0,0,0-1.89-2,12.84,12.84,0,0,0-2.77-1.81A18.29,18.29,0,0,0,239.63,1c-.76-.26-1.53-.46-2.31-.66A17.45,17.45,0,0,0,233.5,0h-.22a20.27,20.27,0,0,0-3.47.4Zm2.74,18.38h0l-.23,0,.23,0Z"/><path class="cls-1" d="M141.73,14.65c-.72.34-1.44.68-2.14,1.06s-1.2.61-1.77,1A13,13,0,0,0,135.05,19a7.27,7.27,0,0,0-1.39,2.27,8.39,8.39,0,0,0-.52,3.81c.13.55.27,1.09.43,1.63l.3.54a4.57,4.57,0,0,0,.88,1.38,6.5,6.5,0,0,0,2,1.65,9.36,9.36,0,0,0,1.95.67,3.8,3.8,0,0,0,2-.22,3.88,3.88,0,0,0,2.19-5,3.64,3.64,0,0,0-1.16-1.54,9.13,9.13,0,0,1,.79-.54c.74-.38,1.5-.75,2.25-1.12a4.47,4.47,0,0,0,2.31-2.18A4.23,4.23,0,0,0,145,14.73a4.56,4.56,0,0,0-1.82-.39,3.37,3.37,0,0,0-1.45.31ZM141,23.32l.17.31-.17-.31Zm.41.14v.4h0c0-.13,0-.26,0-.39Zm.11.47Zm.15.31h0Zm-.21.2.07.25a1.82,1.82,0,0,1-.07-.25Z"/><path class="cls-1" d="M147.05,12.9a11.38,11.38,0,0,0-3.18.64,17.09,17.09,0,0,0-2.26.2,11.7,11.7,0,0,0-5.07,2.09,8.58,8.58,0,0,0-1.86,2,8.37,8.37,0,0,0-1.22,2.47c-.12.42-.25.84-.37,1.26a9.75,9.75,0,0,0-.12,2,8.35,8.35,0,0,0,.37,2.34,8.51,8.51,0,0,0,.17,2,9.4,9.4,0,0,0,1.54,3.5A9.42,9.42,0,0,0,137,33.22a8.27,8.27,0,0,0,3,1.4,10.53,10.53,0,0,0,5.23,0,13.87,13.87,0,0,0,7.26-3.85c.14-.15.27-.31.4-.47l.71-.57A15.68,15.68,0,0,0,156,27.29a11.43,11.43,0,0,0,2-4.68,7.3,7.3,0,0,0-.65-4.71,7.69,7.69,0,0,0-1.81-2.42,10.94,10.94,0,0,0-2.78-1.77l-.74-.23a9.47,9.47,0,0,0-2-.5,7.7,7.7,0,0,0-1.44-.11c-.48,0-1,0-1.43,0Z"/></g></g></svg>