<svg xmlns="http://www.w3.org/2000/svg" viewBox="0 0 614.77 573.36"><defs><style>.cls-1{fill:#f4f4f4;}</style></defs><title>Asset 2</title><g id="Layer_2" data-name="Layer 2"><g id="Draw_Layer" data-name="Draw Layer"><path class="cls-1" d="M284.62,6.66c-1.31,0-2.64.12-3.65.22-2,.21-4.05.52-6,.81l-1.6.24c-4.51.66-8.92,1.51-13.81,2.47-2.26.44-4.59.89-6.89,1.23-2.64.39-5.29.78-7.86,1.32-3.81.82-7.6,2-11.26,3.11l-3.12,1c-3.38,1-6.76,2.26-10,3.47-1.64.61-3.27,1.22-4.92,1.8-2.1.68-4,1.28-5.92,1.83l-.87.25c-2.09.61-4.25,1.24-6.35,2-1.94.7-3.88,1.51-5.75,2.29s-3.56,1.47-5.36,2.14l-1.63.53c-1.44.46-2.93.93-4.37,1.47-1,.39-2.07.81-3.1,1.23s-2.13.87-3.21,1.27a1,1,0,0,0,.17,0l-.49.15-.49.16a159.93,159.93,0,0,0-15.89,6c-1.21.55-2.41,1.14-3.6,1.73-1.38.68-2.8,1.38-4.23,2l-1.86.81c-2,.87-4.06,1.77-6.05,2.73-2.32,1.11-4.77,2.45-7.71,4.22l-1.07.65c-.85.53-1.74,1.07-2.63,1.56-1.32.71-2.73,1.42-4.45,2.25l-.91.45a69.91,69.91,0,0,0-6.23,3.27c-1.25.76-2.48,1.59-3.66,2.46-.19.14-.38.28-.56.43-1.36.67-2.56,1.29-3.64,1.91-2.44,1.4-4.76,3.06-7,4.66l-.87.62-1.88,1.33c-1.73,1.22-3.46,2.44-5.17,3.68-2.5,1.8-4.5,3.31-6.31,4.75-2.43,1.93-4.74,4.08-6.73,5.95-.72.68-1.45,1.35-2.18,2-1.28,1.18-2.62,2.41-3.88,3.66-1.89,1.86-3.67,3.88-5.4,5.83l-.77.87c-1.91,2.16-3.76,4.44-5.54,6.65-1.63,2-3.32,4.09-5.05,6.08-2,2.25-3.67,4.33-5.2,6.36-1.82,2.43-3.57,5-5.12,7.28-1.32,1.94-2.69,4.05-4.29,6.66l-.2.32c-1.5,2.43-3,4.94-4.41,7.51-1.07,2-2.26,4-3.41,5.94-.51.86-1,1.71-1.52,2.57-1.6,2.74-3.08,5.52-4.81,8.85s-3.3,6.58-4.85,9.81c-1.11,2.3-2.21,4.6-3.36,6.89-.56,1.06-1.12,2.12-1.69,3.18-1.8,3.39-3.67,6.89-5.22,10.46-.88,2-1.91,4.47-2.87,7-.51,1.37-1.05,2.72-1.6,4.07-.44,1.12-.89,2.23-1.32,3.35q-.22.6-.48,1.2c-.36.91-.74,1.86-1.06,2.81Q12.66,208.72,12,211c-.55,1.81-1.14,3.6-1.72,5.4l-.7,2.16a70.47,70.47,0,0,0-2,8.25q-.18.93-.33,1.86c-.09.53-.18,1.06-.28,1.59s-.25,1.31-.39,2-.23,1.11-.33,1.67c-.42,2.14-.73,4.27-1,6.06-.31,2.23-.72,4.4-1.08,6.23a141.18,141.18,0,0,0-2.51,14.34c-.55,5-1,9.46-1.13,14,0,1.8-.08,3.6-.11,5.4-.06,3-.11,6.1-.25,9.16a134.61,134.61,0,0,0,.17,14.35v-.14c.11,2.36.18,4.81.18,7.29,0,1.49.06,3,.13,4.48.05,1.23.1,2.46.11,3.69.06,3.5.14,6.18.29,8.7l.06,1.05c.15,2.7.3,5.5.58,8.23s.64,5.19,1.09,7.39c.37,1.85.9,3.7,1.4,5.49.3,1.05.6,2.1.87,3.15.57,2.23,1,4.53,1.43,6.75l.25,1.31c.48,2.53,1.06,5.21,1.75,8.19.63,2.75,1.29,5.58,2.19,8.4,1,3.11,1.82,5.63,2.6,7.93.44,1.28.91,2.56,1.37,3.83q.57,1.55,1.11,3.09a78.83,78.83,0,0,0,3.57,8.47c.45.92,1,1.83,1.47,2.71.22.37.43.75.64,1.12.4.71.8,1.43,1.21,2.14l1,1.76c1.63,2.91,3,5.48,4.15,7.86,1,2,1.94,4.1,2.85,6.11,1.11,2.42,2.25,4.92,3.46,7.33A83.22,83.22,0,0,0,43,444c1.47,1.86,3.09,3.77,5.11,6a60.12,60.12,0,0,1,4.53,5.71c.63,1,1.37,2.09,2.07,3.27.49.85,1,1.71,1.42,2.57l1,1.81a69,69,0,0,0,5.94,9.24,31.44,31.44,0,0,0,3.27,3.67,62.43,62.43,0,0,0,4.86,4c2.72,2,5.62,4.22,8.44,6.66,1.8,1.65,3.58,3.38,5.3,5.05,2.06,2,4.19,4.08,6.37,6,2.38,2.14,4.71,4.22,7.1,6.28l.25.21c1,.84,2,1.71,3,2.5,1.25.95,2.5,1.88,3.77,2.81,1.51,1.09,3.08,2.15,4.6,3.17.86.58,1.71,1.15,2.56,1.74,2.52,1.74,4.8,3.44,7,5.19.71.57,1.41,1.16,2.11,1.74,1.35,1.13,2.76,2.3,4.19,3.38a61.54,61.54,0,0,0,6.93,4.4c2.67,1.51,4.85,2.86,6.84,4.22,1.21.83,2.38,1.74,3.52,2.61s2.34,1.8,3.55,2.63A116.84,116.84,0,0,0,159.07,546l.51.27,1.28.66c1.2.63,2.39,1.25,3.6,1.86l1.07.53c.81.41,1.62.83,2.44,1.2a57.87,57.87,0,0,0,7.48,2.68l2.76.79c1.67.46,3.39.95,5.07,1.48,1,.29,1.9.61,2.85.93l.63.21c1,.32,2,.61,2.94.88l1.16.34c3.16.91,6.54,1.72,10.34,2.46,1.89.4,3.73.8,5.55,1.24,2.86.7,5.25,1.26,7.75,1.7,1.63.29,3.3.51,4.91.73.92.13,1.85.25,2.77.39,2.37.35,4.54.72,6.64,1.13s4.36,1,6.78,1.63c2.73.69,5.21,1.27,7.59,1.77,3.68.77,6.7,1.29,9.49,1.64,3,.37,6,.66,8.3.87,5.15.48,10.39.85,15.45,1.22l1.48.1,2,.15c2.19.16,4.38.32,6.57.46.94.06,1.94.08,3.17.08l2.43,0,2.29,0c1.64,0,3.31-.09,4.92-.17.93,0,1.86-.1,2.79-.13l2.12,0,2.53-.06c1.21,0,2.41-.14,3.62-.24l1.07-.08,1-.05c1.8-.09,3.66-.19,5.48-.35l1.79-.13a37.53,37.53,0,0,0,4.34-.44c1.91-.34,3.87-.73,5.82-1.16a35.56,35.56,0,0,1,4.68-.67c2.5-.14,4.41-.3,6.17-.51A50.1,50.1,0,0,0,347,568l.11,0c.67-.17,1.34-.36,2-.55,1.22-.34,2.48-.7,3.76-.93.8-.15,1.62-.23,2.41-.3l.5,0c.57-.06,1.14-.14,1.71-.22l1.31-.16c.78-.1,1.56-.16,2.34-.23,1-.09,2-.18,3-.32,1.89-.25,3.62-.53,5.27-.84a33.21,33.21,0,0,0,4.86-1.45l.86-.3,2.55-.91,2.55-.91,2.68-.87c3.13-1,6.37-2,9.5-3.25,1.83-.7,3.66-1.46,5.44-2.19,2.43-1,4.94-2,7.45-2.94l.84-.27a82.67,82.67,0,0,0,9.45-3.5c2.45-1.15,4.89-2.43,7.25-3.67L425,543c3-1.54,5.94-3.16,8.45-4.54l3.46-1.89,1.36-.74c1.74-.95,3.38-2,4.75-2.92l.29-.18.32-.22-.27.16-.26.17A154.5,154.5,0,0,0,456,522.93c4.27-3.56,8.67-7,13.09-10.31,4-3,8.58-6.37,12.88-9.81l1.6-1.27c3.63-2.9,7.38-5.89,10.76-9.19,1.72-1.68,3.42-3.37,5.12-5.07l.94-.93c1.11-1.1,2.21-2.26,3.27-3.38s1.86-2,2.81-2.91a165.38,165.38,0,0,0,11.65-12.78c2.63-3.28,5.22-6.69,7.72-10l1.71-2.25c1.8-2.36,3.55-4.85,5.34-7.61.58-.9,1.18-1.8,1.78-2.69,1-1.54,2.1-3.14,3.07-4.75,2.17-3.57,4.22-7.3,6.21-10.9q1.34-2.43,2.68-4.84a151,151,0,0,0,7.48-15.13c2-4.7,3.94-9.29,6-13.86,1.07-2.41,2.2-5,3.17-7.69.67-1.84,1.27-3.74,1.85-5.58l.55-1.73c1.28-4,2.61-8.1,3.62-12.24l.43-1.71c.32-1.26.63-2.53.93-3.8.37-1.59.68-3.21,1-4.78l.45-2.32-.07.29c.44-2.08.83-4.17,1.22-6.26l.46-2.39.25-1.31c.41-2.11.83-4.29,1.15-6.45.43-2.85.81-5.78,1.12-8.7.22-2,.52-4,.81-5.92l.39-2.61c.65-4.6,1.19-9.55,1.73-16.08.27-3.25.4-5.92.42-8.38V295.1c0-1.64,0-3.34,0-5,0-1,.06-2,.1-2.93l0-.71c.06-1.6,0-3.23,0-4.8v-.17c-.05-1.3,0-2.62,0-3.9s0-2.6,0-3.9c0-.95-.06-1.89-.08-2.84,0-1.64-.08-3.33-.16-5-.15-2.84-.4-5.76-.76-8.94-.71-6.21-1.51-12.22-2.4-17.85-.35-2.3-.81-4.62-1.25-6.87l-.27-1.37q-.24-1.17-.51-2.31c-.12-.56-.25-1.12-.37-1.68l-.09-.43c-.25-1.17-.51-2.37-.84-3.55a53.76,53.76,0,0,0-2.45-7c-.67-1.53-1.47-3.05-2.24-4.51l-.52-1c-.88-1.69-1.68-3.46-2.46-5.17-1-2.1-1.93-4.27-3.08-6.32-.77-1.38-1.58-2.73-2.39-4.09-.53-.89-1.06-1.77-1.58-2.67-.79-1.36-1.56-2.74-2.33-4.11-.53-1-1.06-1.91-1.61-2.86s-1-1.85-1.55-2.78c-.69-1.26-1.38-2.51-2.11-3.75-1-1.72-2.17-3.39-3.29-5l-.87-1.25c-1.43-2.26-2.73-4.63-3.95-6.86-1.06-1.94-2.22-3.87-3.34-5.73l-.52-.85c-1.58-2.65-3.05-5-4.47-7.22l-1.53-2.35c-1-1.56-2.08-3.17-3.07-4.79q-1.26-2.09-2.55-4.14c-.56-.9-1.12-1.79-1.67-2.69s-1.13-1.88-1.69-2.82c-.88-1.49-1.8-3-2.77-4.52-2-3-3.86-5.61-5.7-7.91-1.13-1.42-2.39-2.77-3.62-4.08-.7-.76-1.4-1.51-2.09-2.28l-.44-.5c-.68-.77-1.39-1.57-2-2.39-.9-1.13-1.68-2.15-2.38-3.13-.45-.6-.88-1.22-1.31-1.83l-.67-1c-.63-.88-1.32-1.74-2-2.57l-.39-.48c-1.87-2.33-3.75-4.56-5.35-6.44q-1.56-1.86-3.07-3.75c-.81-1-1.62-2-2.44-3-1.6-1.93-3.26-3.93-5.08-5.75-2-2-3.56-3.62-5-5.2l-3-3.31-2-2.17a73.86,73.86,0,0,0-5.8-5.53c-.72-.63-1.48-1.25-2.22-1.84l-.73-.59L463.5,65l-1.1-.92-1.79-1.47c-1.24-1-2.48-2-3.7-3.07l-1.52-1.41-2.24-2.06,0,0-.19-.17h0l-.09-.07a61.9,61.9,0,0,0-6.24-4.91c-1.37-.92-2.76-1.81-4.14-2.7L440,46.58c-3.94-2.58-8.16-4.83-12.25-7L426.61,39c-3.1-1.66-5.91-3.14-8.8-4.48-.72-.34-1.46-.66-2.19-1l-1.4-.63-1.35-.61c-.88-.4-1.75-.81-2.65-1.18l-1-.43c-2.23-.94-4.54-1.91-6.86-2.75-2.48-.91-5.38-1.95-8.28-2.77l-.86-.25c-1.42-.4-2.89-.81-4.32-1.28l-1.32-.44c-1.14-.39-2.31-.78-3.5-1.1-.84-.22-1.68-.46-2.51-.71s-1.48-.45-2.22-.65c-1.68-.44-3.35-.77-5.35-1.12l-1.42-.33L371.39,19l-1.09-.25c-.79-.17-1.6-.35-2.39-.57-1.87-.52-3.47-.91-5-1.24-.61-.12-1.23-.22-1.84-.33-.35-.06-.71-.11-1.06-.18l-2.85-.68c-3.32-.8-6.75-1.63-10.19-2.14-2.42-.36-4.81-.84-7.12-1.3-1.07-.21-2.15-.38-3.23-.55s-2-.31-3-.5c-2.4-.51-5-1-7.63-1.41-2.38-.33-4.76-.54-7-.73-3.93-.33-7.94-.61-11.81-.89L304.77,8,289.63,7l-1-.07-2.85-.19c-.39,0-.78,0-1.18,0ZM185.16,190.84a44.17,44.17,0,0,1-7.56-.69c-1.31-.31-2.62-.69-3.89-1.06l-1-.3a41,41,0,0,1-5.66-2q-.79-.44-1.56-.9a13.14,13.14,0,0,1-1.87-1.42,25.29,25.29,0,0,1-3.43-4,40.08,40.08,0,0,1-3.44-6.62,20.76,20.76,0,0,1-.77-3.71,48.79,48.79,0,0,1,.88-9.09,21.44,21.44,0,0,1,1.18-3.63c.48-1.13,1-2.25,1.59-3.33.76-1.39,1.6-2.67,2.41-3.9l.94-1.46a52.79,52.79,0,0,1,3.77-5.31,24.84,24.84,0,0,1,3.38-2.93,15.28,15.28,0,0,1,2.2-1.17c.6-.24,1.2-.45,1.8-.67l1.14-.4c1.1-.42,2.19-.92,3.25-1.4.85-.38,1.69-.77,2.56-1.12a42.15,42.15,0,0,1,5.44-1.19,4.06,4.06,0,0,0,.24.63,4.16,4.16,0,0,0,2.42,2.14l.29.08a15.77,15.77,0,0,1,2.05.65c.36.21.71.44,1.06.66l.11.06a22.42,22.42,0,0,0,2.57,1.4,11,11,0,0,0,1.42.52,19.59,19.59,0,0,1,2.21.85l2.12,1.08c.5.26,1,.53,1.49.82a9.1,9.1,0,0,1,1.26,1,13.14,13.14,0,0,1,1.37,1.5c.25.42.49.84.72,1.27s.53,1,.81,1.41c.55.91,1.17,1.81,1.76,2.67l.16.24a24.5,24.5,0,0,1,2,4.21,38.5,38.5,0,0,1,1.63,7.06,21.71,21.71,0,0,1-.24,3.21,28.67,28.67,0,0,1-2.15,5.62c-.61,1.23-1.17,2.49-1.71,3.72-.39.89-.79,1.79-1.2,2.67a28.67,28.67,0,0,1-3.16,4.88,40.4,40.4,0,0,1-5,4.28,23.61,23.61,0,0,1-3.57,1.73,50.44,50.44,0,0,1-8.75,2q-.66,0-1.32,0Zm149,46.43c.81-.54,1.6-1.09,2.4-1.64l1.26-.86.68-.46a36.41,36.41,0,0,1,5-2.72c.54-.23,1.08-.48,1.62-.73,1-.47,2.07-1,3.14-1.37a28.79,28.79,0,0,1,3.76-.86,37.3,37.3,0,0,0,3.92-.83,55,55,0,0,1,8-1.37q.92,0,1.83,0c2.16,0,4.43.13,7.13.39,3.73.37,6.59.75,9.26,1.25a33.57,33.57,0,0,1,3.25.87,36.83,36.83,0,0,1,3.45,1.46c1,.46,2,.9,3,1.33s2,.87,2.95,1.33c.73.41,1.44.89,2.13,1.34a27.15,27.15,0,0,0,2.71,1.65c1.31.67,2.68,1.31,4.18,1.95l.56.24c.64.27,1.27.54,1.9.83.76.44,1.51.94,2.24,1.42l1,.68c1,.64,2,1.24,3,1.82l.24.15a40.73,40.73,0,0,1,6.23,4.5,33.22,33.22,0,0,1,4.29,5l1.84,2.73a55.14,55.14,0,0,1,3,5.71c.86,1.85,1.63,3.53,2.3,5.28.41,1.29.77,2.62,1.13,3.9l.07.26c.2.72.42,1.44.65,2.16s.53,1.7.75,2.57a49.2,49.2,0,0,1,1,5.62l.06.44c.24,1.73.48,3.45.75,5.18.32,2,.49,4,.65,5.94.13,1.59.27,3.24.49,4.85.44,3.31.78,6.65,1,10.2.11,2,.25,3.92.4,5.87l.07,1a96.81,96.81,0,0,1,.11,10.54q-.15,2.88-.33,5.76c-.1,1.71-.2,3.41-.29,5.12-.33,6.12-.62,12.35-.89,18.37l-.26,5.58q-.34,7.42-.73,14.85l-.38,7.43c-.1,1.91-.17,3.82-.25,5.73l0,.71a44.59,44.59,0,0,1-.33,4.74l-.14,1c-.24,1.63-.48,3.31-.66,5-.13,1.19-.22,2.39-.3,3.58-.06.74-.11,1.48-.18,2.21-.17,1.91-.35,3.81-.54,5.72l-.24,2.48,0,.42c-.16,1.68-.32,3.42-.57,5.12l-.95,0h-.2l-.82,0c-.71,0-1.41.05-2.12.09h-.76c-.61,0-1.23-.05-1.83-.09l-.23,0c-1-.08-2-.14-2.95-.19s-2.27-.08-3.46-.08c-.69,0-1.37,0-2.06,0-1.57,0-3.17.16-4.71.28l-.82.06c-1.64.07-3.23.15-4.83.37l-1.35.19c-1,.15-1.94.29-2.92.39h-.68a21.22,21.22,0,0,1-2.69-.17c-.74-.1-1.47-.21-2.2-.33l-1.86-.29c-1.06-.14-2.15-.19-3.2-.24l-.7,0-1,0-.94,0,0-.41c0-.5-.09-1-.15-1.48-.09-.66-.2-1.32-.31-2s-.23-1.36-.32-2c-.14-1.06-.3-2.12-.45-3.18l-.19-1.3c-.2-1.35-.31-2.79-.39-3.94l-.15-3c-.14-2.69-.28-5.48-.48-8.22a79,79,0,0,1,.16-8.65l.06-1c.17-2.69.33-5.38.52-8.06l.16-2.05c.18-2.4.36-4.87.46-7.31.1-2.93,0-6-.21-10-.09-1.85-.14-3.72-.18-5.53l0-1.57c-.09-3.2-.29-6.08-.61-8.81-.6-4.92-1.07-10-1.43-15.24-.1-2.21-.09-4.45-.08-6.63,0-1.41,0-2.82,0-4.24a65.1,65.1,0,0,0-.39-6.75c-.15-1.18-.34-2.35-.53-3.52-.09-.54-.18-1.08-.26-1.62l-.12-.75a40.76,40.76,0,0,0-.84-4.49,37.3,37.3,0,0,0-1.11-3.58c-.24-.64-.51-1.27-.79-1.9l-.27-.63c-.35-.81-.68-1.62-1-2.44s-.66-1.6-1-2.4a26,26,0,0,0-3.2-5.39c-.32-.42-.68-.81-1-1.2l-.56-.63-1.38-1.58-.29-.33a27,27,0,0,0-4.72-4.33,35.37,35.37,0,0,0-6-3.18,27.18,27.18,0,0,0-6.76-2,20.73,20.73,0,0,0-3.37-.23c-.72,0-1.44,0-2.16,0a39.15,39.15,0,0,0-6.62.71,45.45,45.45,0,0,0-6.21,1.86,47.86,47.86,0,0,0-4.9,2.08,32.85,32.85,0,0,0-9.78,7.24,36.52,36.52,0,0,0-3.87,4.92,52.64,52.64,0,0,0-3.06,5.62,34.47,34.47,0,0,0-2.06,5.28c-.3,1-.56,2.07-.81,3.08-.16.67-.32,1.35-.5,2a86.09,86.09,0,0,0-2.51,12c-.36,3.05-.57,6.17-.77,9.19l-.17,2.51c-.25,3.61-.55,7.35-.92,11.43-.16,1.73-.36,3.46-.55,5.19-.23,2-.47,4-.63,6-.32,3.91-.47,7.92-.57,11.32-.13,4.37-.11,8.27.07,11.93.19,3.82.27,7.65.23,11.38,0,2.33,0,4.26,0,6.08l.05,1.59c0,1.45.09,2.95.08,4.42,0,2.87-.14,5.78-.27,8.59-.05,1-.1,2-.14,3.06-.11,2.69-.2,5.32-.12,8,0,1.74.18,3.5.3,5.15a1.88,1.88,0,0,0-.34,0c-1.25,0-2.6.1-4.25.25-1.06.11-2.12.26-3.18.41s-2.24.31-3.37.42l-1.23.05-2.45.11-2.83.2-1.62.11c-.77,0-1.54,0-2.31,0-2.4,0-4.85-.12-7.22-.24-1.66-.09-3.32-.17-5-.22-1.17,0-2.35,0-3.52-.05a76.86,76.86,0,0,1-9.21-.45l.06-1.54c0-.31,0-.62,0-.93,0-1.23.08-2.49.08-3.85,0-2.17-.2-4.37-.4-6.49-.05-.6-.11-1.2-.16-1.81,0-.88-.1-1.76-.15-2.65-.06-1.05-.09-2-.13-3s0-1.7-.1-2.55c-.08-1.59-.22-3.2-.36-4.76l-.08-1-.12-1.48c-.09-1.15-.18-2.34-.32-3.5-.23-1.91-.39-3.5-.52-5-.11-2.36-.12-4.75-.12-7.07,0-1.2,0-2.39,0-3.59-.05-3.1-.16-6.26-.28-9.31L256,357l0-.57c-.12-3.58-.25-7.29-.18-10.93,0-2.13.14-4.29.24-6.37.08-1.82.16-3.63.21-5.44s.06-3.82.06-5.62c0-.53,0-1.06,0-1.59,0-1.18,0-2.39,0-3.57.16-3.48.34-7.42.4-11.3,0-3.27,0-6.77-.23-11.33-.16-3.66-.05-7.38.05-11l0-.44c.14-4.72.14-8.32,0-11.67s-.31-7.25-.25-11,0-7.49-.07-11.73c0-1.36,0-2.74,0-4.08v-1.6c0-2,0-3.92-.1-5.76-.08-2.28-.07-4.16,0-5.91s.19-3.46.3-5.19c.39,0,.78-.05,1.16-.08l.63,0,1.62-.14,1-.09h.94c.87,0,1.74,0,2.6.06s1.54.06,2.3.06h.43c1.83,0,3.69-.1,5.48-.2l.87,0c.77,0,1.54,0,2.32,0H277c1,0,2,0,2.94-.06,1.4-.08,2.81-.24,4.18-.38,1-.11,2-.22,3-.3s1.94,0,2.92,0c.73,0,1.46,0,2.19,0,1.37,0,2.73-.1,4.09-.17l2-.09c.92,0,1.84,0,2.76,0,1.1,0,2.23,0,3.34-.07a27.13,27.13,0,0,0,3-.29c.08.89.19,1.79.29,2.69s.21,1.78.31,2.67c.12,1.18.26,2.35.41,3.53.17,1.37.34,2.74.47,4.12,0,1.18,0,2.36,0,3.54s0,2.64.05,4c0,.61.05,1.22,0,1.82,0,.36,0,.71-.07,1.06s-.06.62-.07.93a4.15,4.15,0,0,0,.94,3,3.94,3.94,0,0,0,2.93,1.33,4.53,4.53,0,0,0,.74-.07,4.36,4.36,0,0,0,2.15-1.16c.24-.24.46-.5.68-.76l.34-.35.68-.73-.06.06a14.52,14.52,0,0,0,1.82-2.26,25.33,25.33,0,0,0,1.19-2.24c.48-.85,1-1.63,1.55-2.38l.31-.45c.58-.83,1.23-1.69,2.06-2.68.56-.59,1.12-1.17,1.69-1.74l.21-.22c.59-.59,1.25-1.13,1.89-1.66l.5-.41a67.27,67.27,0,0,1,5.51-4.08l0,0,.22-.15h0Zm-144.9-2.45h1.3c2.81-.06,5.68-.26,8.54-.6l1.83-.22c1.65-.2,3.36-.41,5-.56l.81,0h.41c0,.84.1,1.85.21,2.87.06.58.16,1.16.26,1.73.07.42.14.83.19,1.25,0,1,0,2,0,3l0,1c0,1.58,0,3.27.13,5.17a87.32,87.32,0,0,1-.2,10.6c-.23,3.41-.44,7.07-.5,10.77a100.29,100.29,0,0,0,.64,11.32c.19,3.64.19,7.22.17,10.26s.09,6.31.19,9.38l.07,2.07c0,.87.07,1.74.11,2.61.05,1.12.1,2.24.13,3.36.05,1.81,0,3.66-.11,5.45l0,.4c-.07,1.51-.12,3-.16,4.52-.08,2.34-.15,4.77-.31,7.15-.09,1.37-.25,2.77-.41,4.12-.06.53-.12,1.05-.17,1.58-.21,1.87-.43,3.75-.65,5.62l-.33,2.67c-.13,1-.26,2.07-.38,3.11-.16,1.43-.26,2.89-.35,4.3l-.09,1.36-.16,2.31c-.49,6.93-1,14.09-1.65,21.11-.31,3.25-.7,6.41-1.17,9.39-.18,1.13-.38,2.25-.57,3.38l-.22,1.27c-.2,1.14-.36,2.27-.53,3.41l-.2,1.33c-.4,2.65-.84,5.8-1.05,9.05a70.26,70.26,0,0,0,.25,9.92l.06,1.1.06,1.11h-.12l-.75.13c-.67.12-1.33.24-2,.33H196c-.32,0-.63,0-1,0l-.43,0a19.12,19.12,0,0,0-2.48.25c-.63.13-1.25.28-1.87.43s-1.29.36-1.94.55l-1.41.41a16.34,16.34,0,0,1-2.93.5,47.88,47.88,0,0,0-7.13.81l-1.67.37c-.62.14-1.25.29-1.87.41a34.55,34.55,0,0,1-3.51.53c-.87,0-1.75.05-2.62.06l-2.32.05c-2,.07-4,.24-6.09.42l-1.2,0a22.17,22.17,0,0,1-3-.2l-.11,0,0-.12-.05-.13a8.88,8.88,0,0,1-.23-1c-.05-2.15-.15-4.44-.31-7-.06-1.13-.08-2.28-.1-3.39,0-.54,0-1.08,0-1.62,0-1.83.07-3.63.19-5.37.25-3.67.5-7.35.71-11,.24-4.07.38-7.5.33-11,0-.91-.06-1.81-.1-2.72s-.07-1.65-.08-2.48c0-1,0-2,0-3s0-1.77,0-2.65c0-2.84.17-5.72.36-8.51l.15-2.11.69-10.8c.44-7.17.94-15.3,1-23.37,0-1.08,0-2.15-.05-3.23,0-1.63-.08-3.31,0-5q.16-4.19.29-8.36c.1-2.87.19-5.92.17-9,0-2.82-.23-5.67-.44-8.44l0-.59c-.07-1.65-.09-3.31-.11-4.75,0-1.24.06-2.51.13-3.73,0-.56.06-1.12.08-1.68.15-3.68.29-7.27.2-10.83,0-2.2-.19-4.21-.42-6.13-.07-.56-.13-1.12-.19-1.68-.13-1.12-.25-2.25-.41-3.36s-.32-2.06-.49-3.09c-.11-.66-.23-1.33-.33-2-.26-1.66-.51-3.32-.73-5-.34-2.44-.51-4.81-.7-7.67,0-.56,0-1.13,0-1.7a2.73,2.73,0,0,0,.21.3,3.92,3.92,0,0,0,2.68,1.35A77.38,77.38,0,0,0,165,236l2-.27c2.53-.33,5.24-.6,8.77-.9,1.66-.08,3.37-.12,5.23-.12h2c.87,0,1.75,0,2.62.06,1.23,0,2.46.06,3.7.06Z"/><path class="cls-1" d="M33.58,47.44a13.43,13.43,0,0,0-3.3,2.11,28.16,28.16,0,0,0-3.64,4.07,19.76,19.76,0,0,0-2.7,4.72,31.6,31.6,0,0,0-1.44,6,12.39,12.39,0,0,0-.18,2.36c.05.92.09,1.84.22,2.76a12.81,12.81,0,0,0,1.13,3.45,13,13,0,0,0,4,4.74,18.91,18.91,0,0,0,3,1.74,20.16,20.16,0,0,0,4.4,1.54c1.12.27,2.25.5,3.38.69a16,16,0,0,0,4.84,0,14.39,14.39,0,0,0,3.29-1,13.55,13.55,0,0,0,2.6-1.53c.37-.25.73-.5,1.09-.77a15.32,15.32,0,0,0,2.2-2.28,14.71,14.71,0,0,0,1.18-1.63,22.12,22.12,0,0,0,2.71-3.63,23,23,0,0,0,2.26-5.07c.25-.81.47-1.62.67-2.45.15-.61.26-1.24.37-1.86a9.73,9.73,0,0,0-.07-3.14,10.66,10.66,0,0,0-2.08-4.68,15.71,15.71,0,0,0-3.33-3.13,15.91,15.91,0,0,0-5.13-2.38A50.41,50.41,0,0,0,43.51,47,43.21,43.21,0,0,0,39,46.35h-.57a11.58,11.58,0,0,0-4.85,1.1Z"/><path class="cls-1" d="M100.41.17a29.44,29.44,0,0,0-7,1.65A25.64,25.64,0,0,0,88.29,4.3a19.93,19.93,0,0,0-2.93,2.16,20.48,20.48,0,0,0-2.62,3c-.53.77-1,1.54-1.5,2.35a21.49,21.49,0,0,0-1.64,3.42,33.23,33.23,0,0,0-2.19,11.86,18.78,18.78,0,0,0,1.29,6.47,17.53,17.53,0,0,0,1.74,3.29,20.2,20.2,0,0,0,2.27,3A25.91,25.91,0,0,0,85,41.93a15.5,15.5,0,0,0,2,1.29,26.12,26.12,0,0,0,4.53,2.08,17.21,17.21,0,0,0,2.25,1.54,25.73,25.73,0,0,0,6.05,2.55,22.62,22.62,0,0,0,6.92,1.07,35.15,35.15,0,0,0,4-.39,23,23,0,0,0,3.88-1.14c.83-.3,1.65-.64,2.45-1a23.65,23.65,0,0,0,3.21-2,24.27,24.27,0,0,0,4.49-4.16c.52-.6,1-1.22,1.48-1.86a20.07,20.07,0,0,0,1.85-3.41,16,16,0,0,0,.81-2.42c.36-1.36.63-2.73.9-4.1a28.49,28.49,0,0,0,.68-5.36,33.6,33.6,0,0,0-.16-3.75,26.41,26.41,0,0,0-.51-2.82,36.17,36.17,0,0,0-1.89-6,18.48,18.48,0,0,0-2.55-4.21,16.36,16.36,0,0,0-2.79-2.66,17.12,17.12,0,0,0-3.32-1.91,23.94,23.94,0,0,0-5.34-1.78c-2.19-.46-4.38-.9-6.6-1.19A29.66,29.66,0,0,0,103.58,0a30.45,30.45,0,0,0-3.17.17Zm8,25.7-.16.06.16-.06Zm.16,0-.27.18.27-.18Zm-.41,1.61a1,1,0,0,1,.08.11h0l-.07-.1Z"/><path class="cls-1" d="M596.32,402.48a11.68,11.68,0,0,0-4.69,2.12,15.07,15.07,0,0,0-3.37,3.44,23.73,23.73,0,0,0-3.16,4.14,14.26,14.26,0,0,0-1.74,4.05,21.66,21.66,0,0,0-.5,3.75,10,10,0,0,0,3,7.86,18,18,0,0,0,2.86,2.2,16,16,0,0,0,1.45.83,12.2,12.2,0,0,0,2.3,1,18.75,18.75,0,0,0,2.57.48,13.24,13.24,0,0,0,3.55-.22,11.77,11.77,0,0,0,1.83-.41c1.23-.35,2.44-.76,3.64-1.21a13.33,13.33,0,0,0,4.44-3,31.63,31.63,0,0,0,4.44-5.35,16.83,16.83,0,0,0,1.29-2.54,10.57,10.57,0,0,0,.48-2.09,7.53,7.53,0,0,0,0-2.12,15.29,15.29,0,0,0-1-4.15,12.79,12.79,0,0,0-3.84-5.31,17,17,0,0,0-3.76-2.3,15.76,15.76,0,0,0-6.71-1.45,16.33,16.33,0,0,0-3,.28Zm4.14,14.17.33.49a4.07,4.07,0,0,1-.33-.48Zm0,.48,0,.56a5.25,5.25,0,0,1,0-.56Z"/></g></g></svg>