<svg xmlns="http://www.w3.org/2000/svg" width="28.1" height="24.439" viewBox="0 0 28.1 24.439">
  <defs>
    <style>
      .a {
        fill: #374071;
      }
    </style>
  </defs>
  <g>
    <path class="a" d="M7.6.2H4.2A4.1,4.1,0,0,0,3.1.3L2.6.4H1.9a1.33,1.33,0,0,0-.8.3A1.108,1.108,0,0,0,.2,1.9V3.8a1.949,1.949,0,0,1-.1.8c0,.3-.1.6-.1.9v6.8a6.15,6.15,0,0,0,.1,1.4.758.758,0,0,0,.2.4,1.555,1.555,0,0,0,.8.6,2.2,2.2,0,0,0,.8.1h9.2a1.387,1.387,0,0,0,1.2-.7,1.884,1.884,0,0,0,.2-.8V10.7a3.4,3.4,0,0,0-.1-1V9.6A8.6,8.6,0,0,1,12.3,8a3.751,3.751,0,0,0-.1-1l-.1-.4c-.1-.7,0-1.4-.1-2.1V2.6a3.75,3.75,0,0,0-.1-1.1.367.367,0,0,0-.1-.3,2.092,2.092,0,0,0-.4-.6,2.092,2.092,0,0,0-.6-.4A2.769,2.769,0,0,0,9.9.1H9C8.7.1,8.4,0,8.1,0H7.9c.2.1-.1.1-.3.2ZM5.9,2.7H7.3a6.6,6.6,0,0,1,1.4-.1,4.1,4.1,0,0,0,1.1.1h.1V6.2a6.753,6.753,0,0,0,.2,1.4v1c0,.5.1.9.1,1.4v2.5H2.5V7.8a28.1,28.1,0,0,1,.1-2.9c0-.5.1-1,.1-1.5V2.8h0c.3,0,.6-.1.9-.1H5.9Zm4.4,7.4v0Zm0-.1h0v0Z"/>
    <path class="a" d="M5.3,13.5l-.9,1.8c-.3.6-.6,1.2-.9,1.9-.6,1.2-1.2,2.4-1.7,3.6a11.764,11.764,0,0,0-.7,2,.854.854,0,0,0,0,.7,1.555,1.555,0,0,0,.6.8,1.6,1.6,0,0,0,1.5-.1,5.5,5.5,0,0,0,.9-.7,18.258,18.258,0,0,0,1.6-1.3c.6-.5,1.1-1,1.7-1.5a6.034,6.034,0,0,0,.8-.8,3.736,3.736,0,0,0,.6-.7c.4-.5.9-1,1.3-1.6l-.2.2.3-.3h0c.2-.3.5-.6.7-.9a1.531,1.531,0,0,0,.5-.7l.3-.3.2-.2.3-.3a.972.972,0,0,0,.1-.9,1.057,1.057,0,0,0-.6-.7.972.972,0,0,0-.9-.1c-.2.1-.5.2-.6.4h0a.1.1,0,0,1,.1-.1l-.1.1h0a2.7,2.7,0,0,0-.7.8l.1-.2c-.4.5-.9,1-1.3,1.6l.1-.1c-.1.2-.3.4-.4.6l.2-.3a10.592,10.592,0,0,1-1,1.2c-.4.4-.8.9-1.2,1.3l-.6.6.5-1,.9-1.8.9-1.8A1.388,1.388,0,0,0,7.3,13h0a1.421,1.421,0,0,0-.6-.2,1.834,1.834,0,0,0-1.4.7Zm4.8.3-.1.1h0l.1-.1Z"/>
    <path class="a" d="M3.5,1.7a1.38,1.38,0,0,1-.4.3,1.794,1.794,0,0,0-.5.7,1.421,1.421,0,0,0-.2.6l-.1.1a2.651,2.651,0,0,0-.5.6,2.92,2.92,0,0,0-.2.9V7.4a.749.749,0,0,0,.1.5,2.92,2.92,0,0,1-.2.9l-.3,1.8c-.1.4-.1.7-.2,1.1v.9A1.939,1.939,0,0,0,3.4,14h.2a2.286,2.286,0,0,0,1-.7,1.612,1.612,0,0,0,.4-.7h.4l.3.3a.764.764,0,0,0,.5.2,1.1,1.1,0,0,0,.8,0c.1,0,.2-.1.3-.1a.758.758,0,0,1,.2.4.6.6,0,0,1,.1.4.215.215,0,0,1-.2.2h0c-.3.4-.5.7-.8,1.1l.2-.3-.4.5c-.3.3-.6.7-.9,1a10.627,10.627,0,0,0-.9,1.1h0l-.9,1.2a.972.972,0,0,0-.1.9,1.057,1.057,0,0,0,.6.7.972.972,0,0,0,.9.1,1.057,1.057,0,0,0,.7-.6l.5-.6c.1-.1.2-.3.3-.4.6-.8,1.3-1.5,1.9-2.3h0c.1-.2.3-.4.4-.6s.2-.3.3-.5c.1-.1.3-.4.4-.5a2.026,2.026,0,0,1,.4-1.5,4.013,4.013,0,0,0,.3-1.5V9.9c.1-1.1.2-2.2.2-3.2,0-.5.1-1.1.1-1.6V3.2A1.384,1.384,0,0,0,9.3,2.1a1.268,1.268,0,0,0-.6.1,2.092,2.092,0,0,0-.4-.6c-.5-.5-1.1-.4-1.8-.4H5.4L5,1.1C4.7,1,4.5,1,4.2.9h0c.1.2-.3.4-.7.8Z"/>
    <path class="a" d="M23.1.2H19.8a4.1,4.1,0,0,0-1.1.1c-.2,0-.3.1-.5.1h-.7a1.33,1.33,0,0,0-.8.3,1.108,1.108,0,0,0-.9,1.2V3.8a1.949,1.949,0,0,1-.1.8,2.769,2.769,0,0,1-.1.9v6.8a6.15,6.15,0,0,0,.1,1.4.52.52,0,0,0,.2.4,1.555,1.555,0,0,0,.8.6,2.2,2.2,0,0,0,.8.1h9.2a1.387,1.387,0,0,0,1.2-.7,1.884,1.884,0,0,0,.2-.8V10.7a3.4,3.4,0,0,0-.1-1V9.6A8.6,8.6,0,0,1,27.9,8a3.751,3.751,0,0,0-.1-1,.6.6,0,0,0-.1-.4,14.769,14.769,0,0,1-.1-2.1V2.6a3.75,3.75,0,0,0-.1-1.1.367.367,0,0,0-.1-.3A2.092,2.092,0,0,0,27,.6a2.092,2.092,0,0,0-.6-.4,2.769,2.769,0,0,0-.9-.1h-.8c-.3,0-.6-.1-.9-.1h-.2c0,.1-.3.1-.5.2ZM21.4,2.7h1.4a6.6,6.6,0,0,1,1.4-.1,4.1,4.1,0,0,0,1.1.1h.1V6.2a6.753,6.753,0,0,0,.2,1.4v1a6.6,6.6,0,0,0,.1,1.4v2.6H18V7.9A28.1,28.1,0,0,1,18.1,5c0-.5.1-1,.1-1.5V2.9h0c.3,0,.6-.1.9-.1h1Zm4.4,7.4v0Zm0-.1h0v0Z"/>
    <path class="a" d="M20.8,13.5l-.9,1.8c-.3.6-.6,1.2-.9,1.9-.6,1.2-1.2,2.4-1.7,3.6a11.764,11.764,0,0,0-.7,2,.854.854,0,0,0,0,.7,1.555,1.555,0,0,0,.6.8,1.6,1.6,0,0,0,1.5-.1,5.5,5.5,0,0,0,.9-.7,18.258,18.258,0,0,0,1.6-1.3c.5-.5,1.1-1,1.6-1.5a6.034,6.034,0,0,0,.8-.8,3.736,3.736,0,0,0,.6-.7c.4-.5.9-1,1.3-1.6l-.2.2.3-.3h0c.2-.3.5-.6.7-.9a1.531,1.531,0,0,0,.5-.7l.3-.3.2-.2.3-.3a.972.972,0,0,0,.1-.9,1.31,1.31,0,0,0-1.5-.9h0c-.2.1-.5.2-.6.4h0a.1.1,0,0,1,.1-.1l-.1.1h0a4.62,4.62,0,0,0-.7.7l.1-.2c-.4.5-.9,1-1.3,1.6l.1-.1-.4.6.2-.3a10.592,10.592,0,0,1-1,1.2c-.4.4-.8.9-1.2,1.3l-.6.6a9.292,9.292,0,0,0,.5-1l.9-1.8.9-1.8a1.31,1.31,0,0,0-.5-1.7,1.421,1.421,0,0,0-.6-.2c-.6.3-1,.5-1.2.9Zm4.8.3-.1.1h0l.1-.1Z"/>
    <path class="a" d="M19,1.7a1.38,1.38,0,0,1-.4.3,1.794,1.794,0,0,0-.5.7,1.421,1.421,0,0,0-.2.6l-.1.1a2.651,2.651,0,0,0-.5.6,2.92,2.92,0,0,0-.2.9V7.4a.749.749,0,0,0,.1.5c-.1.3-.1.6-.2.9l-.3,1.8c-.1.4-.1.7-.2,1.1a2.769,2.769,0,0,0,.1.9,1.548,1.548,0,0,0,.8,1.1,1.679,1.679,0,0,0,1.8.2,2.286,2.286,0,0,0,1-.7,1.612,1.612,0,0,0,.4-.7H21l.3.3a.764.764,0,0,0,.5.2,1.1,1.1,0,0,0,.8,0c.1,0,.2-.1.3-.1a.758.758,0,0,1,.2.4.6.6,0,0,1,.1.4c-.1.1-.1.2-.2.2h0c-.3.4-.5.7-.8,1.1l.2-.3-.4.5c-.3.3-.6.7-.9,1a10.627,10.627,0,0,0-.9,1.1h0l-.9,1.2a.972.972,0,0,0-.1.9,1.057,1.057,0,0,0,.6.7.972.972,0,0,0,.9.1,1.057,1.057,0,0,0,.7-.6l.5-.6c.1-.1.2-.3.3-.4.6-.8,1.3-1.5,1.9-2.3h0c.1-.2.3-.4.4-.6s.2-.3.3-.5c.1-.1.3-.4.4-.5a1.735,1.735,0,0,0,.3-1.4c0-.1.1-.1.1-.2a4.013,4.013,0,0,0,.3-1.5V9.7c.1-1.1.2-2.2.2-3.2,0-.5.1-1.1.1-1.6V3a1.384,1.384,0,0,0-1.3-1.1,1.268,1.268,0,0,0-.6.1,2.092,2.092,0,0,0-.4-.6C23.4.9,22.8,1,22.1,1H21L20.6.9c-.3-.1-.5-.1-.8-.2h0c0,.4-.4.6-.8,1Z"/>
  </g>
</svg>
