<svg xmlns="http://www.w3.org/2000/svg" width="30.844" height="26.447" viewBox="0 0 30.844 26.447">
  <defs>
    <style>
      .a {
        fill: #374071;
      }
    </style>
  </defs>
  <g>
    <path class="a" d="M22.7,26.381a14.084,14.084,0,0,1,2-.1h1.6a3.75,3.75,0,0,0,1.1-.1l.6-.1h.8a1.135,1.135,0,0,0,.8-.3,1.3,1.3,0,0,0,1-1.3v-2a2.769,2.769,0,0,1,.1-.9c0-.3.1-.6.1-1,.1-1.2,0-2.5,0-3.8v-3.7a4.329,4.329,0,0,0-.1-1.6c0-.2-.1-.3-.2-.5a1.6,1.6,0,0,0-.9-.7,2.769,2.769,0,0,0-.9-.1h-10a1.6,1.6,0,0,0-1.4.8,2.92,2.92,0,0,0-.2.9v2.8a4.1,4.1,0,0,0,.1,1.1h0v.2a10.284,10.284,0,0,1,.1,1.7v1.1c0,.1.1.3.1.4a18.484,18.484,0,0,1,.1,2.3v2a4.869,4.869,0,0,0,.1,1.2c0,.1.1.2.1.3a1.532,1.532,0,0,0,1.1,1.1,3.4,3.4,0,0,0,1,.1h1c.3,0,.6.1.9.1h.2c.1.2.4.2.8.1Zm1.8-2.7H22.9a7.569,7.569,0,0,1-1.5.1,4.869,4.869,0,0,0-1.2-.1h-.1v-3.9a7.719,7.719,0,0,0-.2-1.5v-1a7.569,7.569,0,0,0-.1-1.5v-2.8h8.4v5.1c0,1.1,0,2.1-.1,3.2,0,.5-.1,1.1-.1,1.6v.6h0a2.92,2.92,0,0,0-.9.2,4.052,4.052,0,0,1-1.1,0Zm-4.8-8.2v0Zm0,.2h0v0Z"/>
    <path class="a" d="M25.2,11.781a16.316,16.316,0,0,0,.9-1.9l1-2c.6-1.3,1.3-2.6,1.8-4a8.64,8.64,0,0,0,.7-2.1,1.1,1.1,0,0,0,0-.8,1.037,1.037,0,0,0-.6-.8,1.542,1.542,0,0,0-1.6.1,6.07,6.07,0,0,0-1,.7,11.511,11.511,0,0,0-1.7,1.4l-1.8,1.7c-.3.2-.5.5-.8.7l-.7.7c-.5.6-.9,1.1-1.4,1.7l.2-.3a1.38,1.38,0,0,0-.3.4v-.1c-.3.3-.5.7-.8,1s-.4.5-.6.7l-.3.3c-.1.1-.2.1-.2.2a1.38,1.38,0,0,0-.3.4,1.183,1.183,0,0,0-.1,1,1.555,1.555,0,0,0,.6.8,1.183,1.183,0,0,0,1,.1,1.157,1.157,0,0,0,.7-.5h0l-.1.1a.1.1,0,0,1,.1-.1h0a6.034,6.034,0,0,0,.8-.8l-.1.4a20.948,20.948,0,0,0,1.4-1.7l-.1.1.5-.6-.2.2a12.667,12.667,0,0,1,1.1-1.3l1.4-1.4a4.349,4.349,0,0,1,.7-.6c-.2.4-.3.7-.5,1.1-.3.7-.7,1.3-1,1.9a17.377,17.377,0,0,1-1,1.9,1.234,1.234,0,0,0,.5,1.8,1.16,1.16,0,0,0,1.8-.4Zm-5.3-.3c0-.1.1-.1.1-.2h0l-.1.2Z"/>
    <path class="a" d="M27.1,24.681c.1-.1.2-.3.4-.4a5.547,5.547,0,0,0,.6-.8,1.421,1.421,0,0,0,.2-.6l.1-.1a1.794,1.794,0,0,0,.5-.7c.1-.3.2-.7.3-1v-2.7a1.268,1.268,0,0,0-.1-.6c.1-.3.1-.7.2-1,.1-.7.2-1.3.3-1.9.1-.4.1-.8.2-1.2a3.352,3.352,0,0,0,0-1,1.785,1.785,0,0,0-.9-1.2,2.356,2.356,0,0,0-2-.3,4.129,4.129,0,0,0-1.1.7,2.177,2.177,0,0,0-.5.8h-.5l-.3-.3c-.2-.1-.3-.2-.5-.3a1.1,1.1,0,0,0-.8,0c-.1,0-.2.1-.4.1a2.186,2.186,0,0,1-.3-.5.9.9,0,0,1-.1-.5l.2-.3h0a8.342,8.342,0,0,0,.8-1.2l-.2.3.4-.5c.3-.4.6-.7.9-1.1s.7-.8,1-1.2h0c.3-.4.7-.9,1-1.3a1.183,1.183,0,0,0,.1-1,1.555,1.555,0,0,0-.6-.8,1.183,1.183,0,0,0-1-.1,1.555,1.555,0,0,0-.8.6c-.2.2-.3.5-.5.7l-.3.6c-.7.9-1.5,1.7-2.1,2.5h0c-.2.2-.3.4-.5.6-.1.2-.2.3-.3.5l-.5.6a1.971,1.971,0,0,0-.3,1.5c0,.1-.1.1-.1.2a4.671,4.671,0,0,0-.3,1.7v2.1c-.2,1.2-.2,2.4-.3,3.5,0,.6-.1,1.2-.1,1.8a2.769,2.769,0,0,1-.1.9v1.1a1.593,1.593,0,0,0,1.5,1.2,1.268,1.268,0,0,0,.6-.1,2.092,2.092,0,0,0,.4.6c.5.5,1.3.4,1.9.4h1.2l.4.1a2.92,2.92,0,0,0,.9.2h.1a1.612,1.612,0,0,0,1.3-.6Zm-3.4-19.2.1-.1Z"/>
    <path class="a" d="M5.7,26.381a14.084,14.084,0,0,1,2-.1H9.3a3.75,3.75,0,0,0,1.1-.1l.6-.1h.8a1.135,1.135,0,0,0,.8-.3,1.3,1.3,0,0,0,1-1.3,12.75,12.75,0,0,0-.1-2,2.769,2.769,0,0,1,.1-.9c0-.3.1-.6.1-1,.1-1.2,0-2.5,0-3.8v-3.7a4.329,4.329,0,0,0-.1-1.6c-.1-.2-.1-.3-.2-.5a1.6,1.6,0,0,0-.9-.7,2.769,2.769,0,0,0-.9-.1H1.6a1.6,1.6,0,0,0-1.4.8,2.92,2.92,0,0,0-.2.9v2.9a4.1,4.1,0,0,0,.1,1.1v.1a10.284,10.284,0,0,1,.1,1.7v1.1l.2.5v4.3a4.869,4.869,0,0,0,.1,1.2c0,.1.1.2.1.3a1.612,1.612,0,0,0,.4.7,1.612,1.612,0,0,0,.7.4,3.4,3.4,0,0,0,1,.1h1c.3,0,.6.1.9.1h.1a3.352,3.352,0,0,0,1,0Zm1.8-2.7H5.9a7.569,7.569,0,0,1-1.5.1,4.869,4.869,0,0,0-1.2-.1H3.1v-3.9a7.719,7.719,0,0,0-.2-1.5v-1a7.569,7.569,0,0,0-.1-1.5l-.1-.3v-2.6h8.4v5.1c0,1.1,0,2.1-.1,3.2,0,.5-.1,1.1-.1,1.6v.6h0a4.4,4.4,0,0,0-1,.2,4.052,4.052,0,0,1-1.1,0Zm-4.8-8.2v0Zm0,.2h0v0Z"/>
    <path class="a" d="M8.2,11.781c.3-.6.7-1.3,1-1.9l1-2c.6-1.3,1.3-2.6,1.8-4a8.64,8.64,0,0,0,.7-2.1,1.1,1.1,0,0,0,0-.8.969.969,0,0,0-.7-.8,1.542,1.542,0,0,0-1.6.1c-.3.2-.6.5-.9.7a11.511,11.511,0,0,0-1.7,1.4L6,4.081c-.3.2-.6.5-.9.7l-.7.7c-.5.6-.9,1.1-1.4,1.7l.2-.3a1.38,1.38,0,0,0-.3.4h0c-.3.3-.5.7-.8,1s-.4.5-.6.7l-.3.3c-.1.1-.2.1-.2.2a1.38,1.38,0,0,0-.3.4,1.183,1.183,0,0,0-.1,1,1.555,1.555,0,0,0,.6.8,1.183,1.183,0,0,0,1,.1,1.157,1.157,0,0,0,.7-.5h0l-.1.1c0-.1.1-.1.1-.2h0a6.034,6.034,0,0,0,.8-.8c0,.3,0,.4-.1.4A20.948,20.948,0,0,0,5,9.081l-.1.1.5-.6-.2.3c.4-.4.7-.9,1.1-1.3l1.4-1.4a4.349,4.349,0,0,1,.7-.6l-.5,1.1c-.3.7-.7,1.3-1,1.9a17.377,17.377,0,0,1-1,1.9,1.234,1.234,0,0,0,.5,1.8,1.234,1.234,0,0,0,1.8-.5Zm-5.3-.3c0-.1.1-.1.1-.2H3l-.1.2Z"/>
    <path class="a" d="M10.1,24.681l.4-.4a5.547,5.547,0,0,0,.6-.8,1.421,1.421,0,0,0,.2-.6l.1-.1a1.794,1.794,0,0,0,.5-.7,3.553,3.553,0,0,0,.2-1v-2.7a1.268,1.268,0,0,0-.1-.6c.1-.3.1-.7.2-1,.1-.7.2-1.3.3-1.9.1-.4.1-.8.2-1.2a3.4,3.4,0,0,0-.1-1,2.2,2.2,0,0,0-2.7-1.6c-.1,0-.1,0-.2.1a4.129,4.129,0,0,0-1.1.7,2.177,2.177,0,0,0-.5.8H7.6l-.3-.3c-.2-.1-.3-.2-.5-.3a1.1,1.1,0,0,0-.8,0c-.1,0-.2.1-.4.1a2.186,2.186,0,0,1-.3-.5.9.9,0,0,1-.1-.5c.1-.1.1-.2.2-.3h0a8.342,8.342,0,0,0,.8-1.2l-.2.3.4-.5c.3-.4.6-.7.9-1.1s.7-.8,1-1.2h0c.3-.4.7-.9,1-1.3a1.183,1.183,0,0,0,.1-1,1.346,1.346,0,0,0-1.7-.9h0a1.555,1.555,0,0,0-.8.6c-.2.2-.3.5-.5.7v.5c-.7.9-1.5,1.7-2.1,2.5h0c-.2.2-.3.4-.5.6-.1.2-.2.3-.3.5l-.5.6a1.971,1.971,0,0,0-.3,1.5c0,.1-.1.1-.1.2a3.722,3.722,0,0,0-.2,1.8v2.1a21.145,21.145,0,0,0-.2,3.5,10.869,10.869,0,0,0-.1,1.8,2.769,2.769,0,0,1-.1.9v1.2a1.593,1.593,0,0,0,1.5,1.2,1.421,1.421,0,0,0,.6-.2,2.092,2.092,0,0,0,.4.6c.5.5,1.3.4,1.9.4H7.6a.6.6,0,0,1,.4.1,2.92,2.92,0,0,0,.9.2H9A1.538,1.538,0,0,0,10.1,24.681ZM6.7,5.481l.1-.1-.1.1Z"/>
  </g>
</svg>
