<svg xmlns="http://www.w3.org/2000/svg" width="359.144" height="307.457" viewBox="0 0 359.144 307.457">
  <defs>
    <style>
      .cls-1, .cls-2 {
        fill: #384173;
      }

      .cls-2 {
        opacity: 0.65;
      }

      .cls-3 {
        fill: #48578c;
      }

      .cls-4 {
        fill: #a9b5d6;
      }

      .cls-5 {
        fill: #4d5888;
      }

      .cls-6 {
        font-size: 34px;
        fill: #e8e8e8;
        font-family: MazzardH-Bold, Mazzard;
        font-weight: 700;
        opacity: 0.88;
      }

      .cls-7 {
        letter-spacing: -0.013em;
      }

      .cls-8 {
        letter-spacing: -0.027em;
      }
    </style>
  </defs>
  <title>Asset 23</title>
  <g id="Layer_2" data-name="Layer 2">
    <g id="Draw_Layer" data-name="Draw Layer">
      <g>
        <g>
          <g>
            <path class="cls-1" d="M48.438,36.932c-.535.068-1.082.148-1.629.228-.6.068-1.2.148-1.788.227a7.428,7.428,0,0,0-1.629.479c-.342.137-.673.285-1.014.421a10.638,10.638,0,0,0-1.629.672,13.585,13.585,0,0,0-1.481,1.071,7.656,7.656,0,0,0-1.606,1.3,13.768,13.768,0,0,0-1.607,2.255,21.789,21.789,0,0,0-1.811,4.694c-.41,1.355-.809,2.711-1.173,4.078a14.148,14.148,0,0,0-.4,2.859c0,.126-.011.251-.011.376.034.183.057.365.091.547.022.513.091,1.025.159,1.538.057.672.057,1.344.057,2.028v.444a20.163,20.163,0,0,0,.3,3.247c.035.5.057,1.013.08,1.515l.046.911c.011.376.034.763.057,1.139l.045.547c.046.57.08,1.128.114,1.7l.057,1.322c.023.672.057,1.344.1,2.027.068,1.219.125,2.427.079,3.634a18.936,18.936,0,0,0,.069,3.042c.091,1.014.125,2,.125,3.019-.011.615.011,1.23.046,1.879.034.57.068,1.128.068,1.7a23.9,23.9,0,0,0,.182,3.189,13.063,13.063,0,0,1-.023,2.005l-.034.821-.034.637-.034.638a6.073,6.073,0,0,0,0,.661l.011.433a6.343,6.343,0,0,0,.046.923h-.034l.068.364a8.827,8.827,0,0,1,.068,1.082,16.959,16.959,0,0,1-.057,2.165c-.182,1.276-.307,2.574-.41,3.862l-.057.581c-.045.433-.091.877-.1,1.31l-.023.33c-.011.319-.034.638-.057.957-.171,1.139-.308,2.267-.376,3.417l-.045.65-.023.353c-.012.239-.012.478-.012.718a12.951,12.951,0,0,0,.114,1.48,27.123,27.123,0,0,1,.126,3.145c0,.193,0,.375.011.569a4.933,4.933,0,0,1,.011.832c-.022.376-.045.752-.045,1.116l-.012.547a16.631,16.631,0,0,0,.046,1.993c.034.445.057.9.068,1.345,0,.569.012,1.15.035,1.72l.022.6.034.774.012.593c.08,2.278.137,4.5.023,6.7l-.08,1.105c-.057.752-.114,1.5-.125,2.255l-.035,1.572c-.022.809-.045,1.607-.045,2.415l-.034.707c-.023.307-.034.6-.034.9s.011.6.022.9l.012.3c.011.193.022.4.022.592,0,.855-.022,1.709-.045,2.552l-.011.775-.035.979-.011.3a22.817,22.817,0,0,0,.023,2.507,21.414,21.414,0,0,1-.012,2.267l-.011.375c-.011.365-.023.73-.011,1.094,0,.49-.023.98-.046,1.47l-.011.478c-.035.706-.069,1.413-.057,2.13l.045,1.834.057,1.869c0,.375-.023.751-.057,1.127l-.034.684c-.023.729-.011,1.469.034,2.2l.091,1.527c.057.775.1,1.549.137,2.312v1.515c-.011.6-.023,1.219.011,1.823.012.513.057,1.014.114,1.7.057.615.114,1.23.148,1.845.035.8.035,1.606.035,2.415l.011,1.424c.011,1.173.08,2.347.148,3.52.068,1.321.091,2.643.091,3.976,0,.74,0,1.469-.011,2.21v1.446c0,.661-.023,1.31-.046,1.971l-.023.5c-.011.331-.011.661-.011.98-.023.741,0,1.47.023,2.2l.034.922.011.718c.012.365.023.729,0,1.151-.022.284-.045.581-.045.865l-.012.467c-.068,1.06-.079,2.131-.045,3.19.023.763.08,1.538.148,2.3l.08.946c.034.615.045,1.23.068,1.891,0,.41.011.831.034,1.253s0,.809-.023,1.276c0,.387-.011.752,0,1.162a20.353,20.353,0,0,1-.022,2.244c-.069.512-.126,1.025-.148,1.549l-.069.627q-.035.41-.034.82a23.519,23.519,0,0,0,.125,2.54l.046.661.057.615v.524a5.568,5.568,0,0,0,.034.752,8.8,8.8,0,0,1,.034,1.1,10.19,10.19,0,0,0,.023,1.185,2.574,2.574,0,0,0,.729,1.822,2.735,2.735,0,0,0,.661.5c.034.035.068.08.1.114a2.6,2.6,0,0,0,1.094.251,2.679,2.679,0,0,0,2.688-2.654q-.032-.6-.033-1.19l-.092-.1a10.319,10.319,0,0,0-.045-1.184c-.012-.228-.023-.456-.023-.684s0-.478-.023-.717l-.046-.57-.114-1.287a29.587,29.587,0,0,1,.1-3.919,13.065,13.065,0,0,0,.159-1.367,5.825,5.825,0,0,0-.011-.775c-.011-.216-.011-.444-.011-.649l.011-.478c.023-.707.046-1.5,0-2.267-.011-.274-.011-.559,0-.98,0-.228,0-.467-.023-.98-.034-.535-.068-1.093-.114-1.629l-.034-.478-.034-.536a25.445,25.445,0,0,1-.125-2.677l.034-1.23.068-2.164c.046-.684.023-1.379,0-2.1l-.011-.342-.023-.387-.045-1c-.023-.718.011-1.458.045-2.107l.023-.342.011-.342c.012-.342.023-.683.012-1.025v-1c0-.865,0-1.72.022-2.574.057-2.13-.045-4.329-.159-6.231l-.068-1.458c-.035-.741-.035-1.481-.035-2.222,0-.467,0-.923-.011-1.378-.011-1.356-.114-2.677-.216-3.782a29.424,29.424,0,0,1-.069-3.361,35.283,35.283,0,0,0-.159-3.645,27.752,27.752,0,0,1-.046-4.09,19.92,19.92,0,0,0-.023-2.586l-.011-.535-.023-.535c0-1.584.023-2.894.069-4.113.045-1.276.079-2.574.1-3.85,0-.262,0-.524-.023-.9-.011-.228-.022-.444-.022-.672l.022-1.686v-.342c.023-.547.035-1.094.035-1.652l.011-.547.011-.546.012-.547c.011-.513,0-1.037-.023-1.561a19.193,19.193,0,0,1,0-1.993c.045-.7.057-1.379.057-2.29,0-.535.011-1.06.034-1.595l.034-.683.023-.673c.023-.694.046-1.389.091-2.084l.034-.4c.069-1,.137-2.028.126-3.053l-.012-.33c-.034-2.1-.068-3.987-.159-5.878-.023-.581-.034-1.151-.046-1.732l-.023-.433-.022-.888-.057-1.276c-.012-.308,0-.627.011-.946l.011-.444c0-.2.012-.41.023-.615a6.81,6.81,0,0,0,.034-.684c0-.182-.011-.376-.034-.729l-.011-.467a21.882,21.882,0,0,0-.114-2.813,15,15,0,0,1-.091-2.712l.057-.535.023-.524.045-.524.046-.524.045-.547a16.266,16.266,0,0,0,.239-1.777,7.553,7.553,0,0,0,.046-.889l.023-.444.023-.444q.153-1.88.41-4a11.267,11.267,0,0,0,.171-1.526c.011-.422.011-.843,0-1.435,0-.262-.012-.524-.046-.912l-.046-.524c-.034-.342-.057-.672-.057-1v-.513l-.011-.569a7.066,7.066,0,0,1,.057-1.026c0-.136.011-.273.023-.4.011-.285.034-.57.057-.843.023-.251.034-.5.045-.752a8.63,8.63,0,0,0-.136-1.652c-.08-.889-.092-1.811-.092-2.711l-.011-.433c0-.365-.011-.729-.034-1.094l-.023-.387c-.034-.649-.068-1.3-.057-1.937a27.137,27.137,0,0,0-.137-2.779l-.034-.365a21.291,21.291,0,0,1-.022-2.255c.011-.365.011-.718.011-1.082.011-1.037-.046-2.108-.114-3.315l-.034-.411c-.023-.375-.034-.763-.069-1.572-.011-.638-.034-1.275-.091-1.913-.091-1.048-.148-2.1-.2-3.144-.022-.456-.045-.923-.057-1.39a10.658,10.658,0,0,0-.2-1.743l-.068-.365a19.642,19.642,0,0,1-.046-1.97v-.342q.018-.393,0-.786a11.649,11.649,0,0,0-.114-1.31A4.225,4.225,0,0,0,38,56.434a5.086,5.086,0,0,0-.068-.569,10.389,10.389,0,0,1,.045-1.333,25.385,25.385,0,0,1,.73-2.78l.227-.74.171-.627c.308-1.082.627-2.187,1.037-3.246a12.834,12.834,0,0,1,1.276-2.165l.319-.307.524-.376.524-.365a8.243,8.243,0,0,1,.74-.49c.444-.159.889-.33,1.322-.512l.284-.114a2.439,2.439,0,0,1,.5-.137c.022.011.045.02.067.03.365-.084.731-.159,1.117-.212h-.068c1.014-.125,2.016-.251,3.03-.387A2.561,2.561,0,0,0,51.4,40.9a2.7,2.7,0,0,0,.3-2.05,2.668,2.668,0,0,0-1.207-1.618,2.456,2.456,0,0,0-1.322-.353,5.412,5.412,0,0,0-.729.057Zm-5.274,1.036c-.069.023-.137.057-.2.08.068-.023.136-.057.2-.08Z"/>
            <path class="cls-1" d="M295.284,33.959c-1.094.034-2.187.045-3.292.056a17.956,17.956,0,0,0-3.976.365c-.49.1-.968.216-1.458.3a38.467,38.467,0,0,1-4.147.091c-1.014-.022-2.027-.034-3.03,0-1.276.057-2.54.126-3.816.091s-2.518-.113-3.782-.159c-2.541-.091-5.092-.091-7.621-.023-2.256.069-4.477.388-6.744.353-1.208-.022-2.415-.057-3.623-.022-1.253.034-2.494.034-3.747-.012-2.484-.068-4.99-.091-7.462-.273-1.162-.08-2.324-.171-3.5-.217-1.344-.045-2.689-.022-4.021,0-2.541.046-5.058.285-7.6.217-2.6-.057-5.183-.171-7.769-.251-2.609-.068-5.229-.057-7.826-.114-1.64-.034-3.269-.023-4.9,0-1.014.012-2.028.023-3.053.012-2.541,0-5.092-.092-7.633-.114-2.449-.012-4.887.068-7.336.159-1.173.046-2.335.114-3.509.137-1.378.023-2.768,0-4.146-.023-2.427-.023-4.842.125-7.268.171-2.449.046-4.9.011-7.359-.011-1.333-.012-2.677.057-4.021.057-1.322.011-2.654.045-3.976.057s-2.643.056-3.964.056c-.741.012-1.47,0-2.2-.011-.672-.011-1.344-.011-2.016-.011-5.32.011-10.64.2-15.948.524-2.609.148-5.218.091-7.827.182l-3.428.137c-1.162.045-2.324.057-3.475.159-4.819.4-9.649.832-14.479,1.151-2.437.148-4.9.182-7.359.193-1.241.012-2.483.012-3.725-.022-1.367-.035-2.734-.16-4.089-.217-2.415-.1-4.83-.25-7.257-.25-1.185,0-2.369.045-3.554.034-1.23-.012-2.438-.057-3.657-.1-2.062-.068-4.112,0-6.174.034-1.094.012-2.2,0-3.292-.022-1.06-.012-2.13-.035-3.2-.023a53.038,53.038,0,0,1-5.856-.182c-.489-.046-.979-.114-1.469-.149A14.263,14.263,0,0,0,54,36.351c-.98.068-1.948.171-2.905.3-.809.091-1.629.171-2.438.319a14.65,14.65,0,0,0-2.472.82,2.89,2.89,0,0,0-1.606,1.208,2.694,2.694,0,0,0-.307,2.05,2.748,2.748,0,0,0,1.207,1.618c.017.011.035.021.054.031l.106-.02a3,3,0,0,0,1.264.3,1.8,1.8,0,0,0,.6-.079,17.24,17.24,0,0,1,3.19-.957l.626-.069.638-.079.387-.046a28.319,28.319,0,0,1,3.031-.2,4.617,4.617,0,0,1,.968.1h.307l.49.045c.41.046.82.068,1.242.091l.467.034c1.185.069,2.4.069,3.326.069h1.413l1.538-.012,1.128.012.865.011c.57.012,1.151.023,1.732.023l1.355-.023c.855-.023,1.7-.045,2.541-.045l.615.011h.615l1.663.046.479.022c1.4.023,2.791.057,4.18.057h.98l.752-.011c.592-.012,1.2-.023,1.8-.023.376,0,.763,0,1.139.011,1.151.035,2.3.08,3.452.149l2.176.113.375.023c1.743.1,3.543.194,5.389.194,2.631-.011,5-.023,7.393-.114,2.255-.08,4.557-.239,7.245-.513.889-.079,1.788-.148,2.734-.216l.661-.057.353-.023c.3-.011.6-.034.911-.057l.456-.045.683-.069.718-.068.729-.068c1.675-.126,3.452-.2,4.887-.262.7-.023,1.4-.057,2.108-.092,1.617-.079,3.258-.1,5.012-.136l.683-.012.627-.011,1.356-.023c.911-.011,1.822-.057,2.722-.114l1.117-.057,1.287-.057.831-.034.547-.023c.387-.022.775-.045,1.174-.079,3.087-.171,6.2-.194,9.09-.194H152.3c1.5,0,3.007,0,4.5-.034l2.746-.034.774-.012c1.573-.011,3.133-.034,4.705-.079h.741l.752-.012c.786,0,1.572.012,2.38.023h.342c.684.011,1.344.023,2.016.023.388,0,.786,0,1.174-.012.911-.011,1.822-.045,2.722-.079l.456-.012c1.344-.057,2.677-.1,4.01-.114.82,0,1.64.012,2.529.023.729.011,1.469.011,2.21.011,1.162,0,2.1-.011,2.928-.068,2.688-.137,5.524-.2,8.68-.2,2.05,0,4.09.034,6.311.068.592.012,1.2.023,1.8.023.774,0,1.549,0,2.46-.023.855-.011,1.709-.011,2.564-.011h1c1.868.023,3.725.046,5.616.08l2.415.034c1.663.023,3.326.08,5,.148l2.814.1c.888.022,1.8.045,2.688.045.319,0,.638,0,.957-.011q1.2-.034,2.392-.1l.718-.034.718-.046c1.2-.045,2.381-.068,3.5-.068,1.4,0,2.78.034,4.1.125l1,.069.524.034c.707.057,1.413.1,2.119.114l2.461.08.353.011.934.023c1.253.045,2.506.08,3.976.091h.706l.365-.011.319-.012h.387c.41-.011.809-.011,1.458-.011l.57.011.615.012.683.011h.672q.616,0,1.231-.034c.535-.012,1.071-.057,1.606-.1l.683-.068.821-.069c.991-.091,1.97-.1,2.882-.1h3.691l.695.011.467.012.467.011c.615.012,1.241.012,1.856.046l.832.045c.843.046,1.686.091,2.654.091s1.9-.034,2.86-.079l.444-.012c.615-.034,1.23-.045,1.845-.045l.661.011h.661l.444.011c.444.012.9.023,1.356.023.717,0,1.321-.023,1.913-.079a19.154,19.154,0,0,0,2.336-.319l.319-.069.33-.068.638-.137c1.071-.1,2.164-.114,3.372-.114.615,0,1.242-.011,1.891-.034.433-.011.866-.023,1.3-.023.467,0,.945.023,1.435.057.353.023.718.057,1.082.091l.593.069c.535.057,1.07.114,1.594.125.183.011.376.023.559.023.239,0,.467,0,.706-.012l.512-.034c.308-.011.627-.011.946-.011l.342.011c.341,0,.695.012,1.082.046.513.023,1.014.034,1.526.034l.524-.011h.821l.8-.012a8.243,8.243,0,0,1,1.059.046l.319-.023.456-.011.353-.012h.536l.364.023.308.046.41.057c.262.068.535.136.82.216a2.869,2.869,0,0,0,.729.068h.2l.2.048a2.659,2.659,0,0,0,2.139-1.893,2.7,2.7,0,0,0-1.856-3.292,16.172,16.172,0,0,0-2.791-.524c-.4-.035-.809-.012-1.208-.012-.376.012-.752.012-1.128.012h-.66c-1.117.011-2.233.045-3.361-.012a31.959,31.959,0,0,0-3.474-.045,24.772,24.772,0,0,1-3.668-.194c-.593-.068-1.185-.1-1.778-.137-.113-.011-.239-.011-.353-.011-.421,0-.843.034-1.264.046Z"/>
            <path class="cls-1" d="M309.945,36.8a2.681,2.681,0,0,0,1.743,2.77l.33.021.308.046.41.057c.241.062.493.126.753.2.154.024.308.05.463.077.09.006.2.009.333.009h.2l.376.091a6.688,6.688,0,0,1,.661.228,4.493,4.493,0,0,1,.5.342l.581.524a2.655,2.655,0,0,1,.415.443l.048.044-.053-.134.467.41a8.052,8.052,0,0,1,1.025,1.2,3.5,3.5,0,0,0,.5.65l.364.455c.057.126.114.262.16.4.182.649.307,1.3.467,2.108l.068.41a17.952,17.952,0,0,1,.342,2.574l.1.376c.069,1.014.171,2.028.3,3.03l-.023.331-.017.134c.009.077.019.154.028.23s.019.153.028.228c.049.143.1.3.166.5l.057.365c.1.683.193,1.31.239,1.948,0,.592.011,1.184.057,1.936l.091.889c.034.273.057.558.08.911.023.729.045,1.47.091,2.2l.011.353v.342l.023.854.034.866.012.592c.034,1.128.068,2.3.182,3.475.046.455.091.9.148,1.355.08.718.16,1.436.205,2.165.011.808,0,1.617-.023,2.426l-.011.387-.011.559v.581c-.012,1.549-.057,3.018-.137,4.385l-.091,1.3a32.479,32.479,0,0,0-.069,3.657c.046.888.114,1.777.183,2.665l.022.433.046.638c.034.456.068.912.091,1.356a32.177,32.177,0,0,1-.045,3.292c-.08,1.287-.149,2.575-.217,3.862-.068,1.344-.114,2.7-.159,4.078-.035,1.025-.069,2.05-.114,3.064l-.034.832-.023.82-.023.82-.034.752c-.046,1.424-.1,3.053-.205,4.614l-.08,1-.068.9-.069.866-.068.9-.046.547c-.079.9-.171,2.016-.171,3.075,0,1.311,0,2.609.023,4.181.012,1.823.023,3.646.012,5.468,0,1.652-.114,3.27-.262,5.195a38.936,38.936,0,0,0,.034,5.149c.057,2.586.023,4.921-.091,7.142-.046.661-.057,1.333-.069,2.119l-.011.5c0,.411,0,.832-.011,1.242-.023,1.242-.057,2.484-.114,3.725-.126,3.2-.148,5.468-.08,7.587.068,2.3.091,4.716.068,7.37-.011.821.012,1.629.046,2.45l.023,1.207.011.8c.011.82.034,1.617.068,2.437.057,2.518.08,4.83.057,7.063l-.022,1.208c-.012.786-.023,1.583-.012,2.369l.012,1.31c.011.866.022,1.732.011,2.6-.011,1.2.011,2.38.034,3.565s.046,2.37.034,3.554l-.011.479c-.012,1.071-.023,2.176.057,3.258l.068.991c.057.592.1,1.185.137,1.766v1.72c.011.444.011.888.045,1.333l.092,1.367.034.478.034.478a22.035,22.035,0,0,1-.205,3.68l-.137.638c-.045.251-.1.524-.137.8-.068.581-.1,1.151-.136,1.732l-.069.774-.045.65-.068.717c-.057.445-.1.889-.126,1.333l-.034.308-.034.307-.125.65-.043.031c0,.035,0,.07,0,.1a13.02,13.02,0,0,0,.011,1.629,2.681,2.681,0,0,0,.137,1.948,2.678,2.678,0,0,0,3.554,1.288,2.606,2.606,0,0,0,.513-.319c0-.023.011-.057.011-.091a3.4,3.4,0,0,0,.8-1.094,4.573,4.573,0,0,0,.216-2.312,25.2,25.2,0,0,1,.262-2.905l.046-.422c.068-.581.1-1.162.136-1.754.035-.672.08-1.356.16-2.039.034-.24.08-.479.171-.889.057-.285.114-.558.148-.854.08-.752.148-1.493.171-2.256.023-1.014-.046-2.016-.114-3.03-.034-.49-.069-.991-.091-1.492l-.023-1.436c-.011-.717-.023-1.435-.057-2.153,0-.444-.046-.888-.08-1.321l-.034-.308-.091-1.139c0-.615.011-1.23.023-1.845v-.65c.011-1.093-.012-2.2-.046-3.565-.011-1.128-.023-2.244-.023-3.361l-.022-2.677c-.012-1.025,0-2.062.022-3.087l.012-.524c.011-.934.022-1.868-.012-2.814l-.022-2.107c-.012-1.378-.035-2.768-.069-4.078l-.023-1.515c-.022-1.083-.045-2.188-.079-3.167V168.4c-.023-1.219-.035-2.438-.046-3.68l-.023-1.856c-.022-1.948-.045-3.9.023-5.856.114-2.5.171-4.978.2-7.484.012-.638.046-1.276.08-1.914.045-.581.08-1.162.08-1.743q.033-1.914,0-3.827l-.035-1.162-.034-1.174c-.034-1.2-.068-2.4.012-3.588l.1-1.561c.057-.866.114-1.743.148-2.608s.023-1.721.012-2.575l-.012-1.287c0-1.276,0-2.552-.022-3.828-.023-1.242-.012-2.472.011-3.713.023-.866.091-1.732.171-2.6l.08-1.014.056-.6c.171-2.245.354-4.557.4-6.835.1-3.874.262-7.747.433-11.62l.114-1.845c.08-1.333.148-2.666.1-3.987-.023-.98-.08-1.96-.137-2.928l-.046-.8c-.023-.559-.057-1.1-.1-1.652l-.091-1.231c0-1,.068-2.016.136-3.018l.08-1.288c.068-1.332.091-2.665.114-3.987v-.706l.034-1.321a37.16,37.16,0,0,0-.08-4.067c-.034-.41-.091-.832-.148-1.242l-.125-1q-.12-1.077-.171-2.153v-.684l.046-.3c0-.068-.012-.137-.012-.2l-.023-.5-.034-.49a5.985,5.985,0,0,1-.022-1.276l-.069-.319-.045-1.561a1.414,1.414,0,0,1,.045-.307l-.068-.376c-.012-.479-.034-.969-.069-1.458l-.045-.718c.011-.057.011-.125.023-.182-.023-.251-.057-.49-.069-.741a18.626,18.626,0,0,0-.136-2.392c-.1-.74-.217-1.481-.308-2.221-.1-.878-.205-1.743-.285-2.62-.079-.832-.114-1.652-.262-2.472a39.375,39.375,0,0,0-.831-4.272,7.645,7.645,0,0,0-1.162-2.6c-.228-.319-.536-.592-.775-.922.057.091.125.182.171.273a12.1,12.1,0,0,0-2.483-2.745c.159.159.33.307.5.467-.239-.217-.467-.422-.706-.627-.254-.242-.507-.463-.761-.684a11.284,11.284,0,0,0-.925-.763,6.776,6.776,0,0,0-1.766-.82,20.826,20.826,0,0,0-3.919-.74c-.091,0-.194-.012-.3-.012a2.689,2.689,0,0,0-2.62,2.4Zm9.543-.054c.085.076.164.147.242.225-.081-.077-.162-.151-.242-.225Z"/>
            <path class="cls-1" d="M320.961,221.83a2.735,2.735,0,0,0-.973.373l-.018.094a2.746,2.746,0,0,0-1.105,2.608,11.543,11.543,0,0,1,.113,1.254l-.113.41a9.068,9.068,0,0,1-.73.945l-.262.319a2.737,2.737,0,0,1-.353.251l-.341.228a3.967,3.967,0,0,1-.445.193c-.4.1-.8.205-1.23.308a15.355,15.355,0,0,1-2.142.216c-.763.046-1.526.126-2.335.228-.569.08-1.207.125-1.936.171l-.673-.011h-1c-.558,0-1.116,0-1.686.034-.3,0-.592.023-1.116.057l-.376.068c-.467.057-.923.1-1.39.137a37.658,37.658,0,0,0-3.828.285c-.649.079-1.321.125-2.176.17-.524.023-1.048.057-1.572.114-1.082.114-2.255.285-3.69.513l-.581.091a10.563,10.563,0,0,1-1.2.16l-1.013.045-.673.034-.808-.011h-.843c-.3,0-.581,0-.877.011-.388.023-.787.057-1.174.1l-.626.068c-.65-.023-1.31-.08-2.039-.159-.331-.034-.661-.069-.992-.08-.262-.023-.535-.034-.8-.034-.49,0-.991.023-1.583.068l-.467.034c-.342.034-.673.057-1.014.08h-.342a18.2,18.2,0,0,1-1.937-.08l-.546.023c-.627,0-1.242.034-1.9.091l-.638.046h-.66l-1.333.011c-.6,0-1.219-.011-1.834-.045-.41-.023-.821-.046-1.231-.046-.512,0-1.025.011-1.583.046-.387.011-.786.011-1.185.011-1.036,0-1.879-.023-2.677-.091-1.173-.1-2.335-.148-3.463-.148-.353,0-.695,0-.991.011h-.57l-.558.012c-.877.011-1.777.034-2.665.091l-.764.011h-.774c-.342.011-.672.011-1.014.046h-.547c-.524,0-1.048-.012-1.618-.023l-.82-.012-.524-.011-1.048-.011h-1.036l-.787.011c-.546,0-1.093-.034-1.64-.068l-.592-.023-.615-.034-.6-.034-.946-.057c-.273-.023-.546-.046-.82-.057-.182-.012-.353-.012-.535-.012-.49,0-.98.023-1.458.046l-.661.011-.353.012-1.39.022c-1.344,0-2.711-.1-4.135-.216q-.975-.069-1.948-.1l-.308-.022c-.911-.046-1.743-.091-2.574-.183s-1.641-.193-2.461-.319c-.763-.1-1.526-.193-2.29-.284a27.363,27.363,0,0,0-2.859-.148q-.752,0-1.469.034h-.661c-.82,0-1.652.011-2.472.057h-.729c-1.219,0-2.244-.034-3.156-.1-.547-.034-1.093-.045-1.834-.045h-.33a18.272,18.272,0,0,1-2.472-.285c-1.253-.217-2.54-.376-3.839-.479-.877-.079-1.7-.114-2.529-.114-.547,0-1.094.012-1.652.046-.478.011-.968.011-1.458.011h-1.253c-.809,0-1.606,0-2.4.035h-.695c-1.572,0-3.178-.08-4.784-.228a12.84,12.84,0,0,0-1.322-.057c-.763,0-1.537.045-2.415.1l-.387.034-.41.023-.41.023c-.365.011-.741.011-1.116.011s-.741,0-1.117-.011h-.364c-.638,0-1.276.023-1.937.057l-.626.034c-.513.023-1.026.046-1.538.057l-1,.046c-.672.023-1.344.023-2.016.023-1.379,0-2.814.011-4.215.136-1,.08-1.994.217-2.825.342-.934.125-1.891.171-2.939.216-1.037.023-2.051.057-3.144.114l-.661.034-.729.023-1.014.023c-.98,0-2.05-.034-3.52-.148l-.353-.023c-.5-.034-1-.057-1.561-.057-.387,0-.774.012-1.162.034l-.547.035-.6.045c-.8.012-1.595.046-2.415.091l-.615.023-.6.011h-1.219l-1.5-.011c-.82,0-1.652.057-2.54.125l-.9.057-.6.012c-.387.011-.786.034-1.185.057s-.831.011-1.241.011l-.661-.011h-1.333c-.661-.012-1.333-.023-2.005-.023-.9,0-1.811.011-2.711.057l-.74.011c-1.026.012-2.074.023-3.133.126-.433.045-.877.1-1.31.17l-.388.057c-.421.057-.854.114-1.275.148-.775.012-1.8.046-2.837.16-.775.068-1.549.114-2.358.159l-.433.035H113.86c-.467-.012-.934-.012-1.4-.012-.535,0-1.059,0-1.583.023h-.331c-.49,0-.991-.011-1.743-.034q-.957-.034-1.913-.034c-.388,0-.764,0-1.185.022a12.017,12.017,0,0,0-1.379.137c-.341.046-.683.091-1.013.125-.832.057-1.652.1-2.5.149-.729.011-1.458.022-2.187.056h-.866c-.467,0-.934,0-1.4.012-.422,0-.82.034-1.584.091l-.444.034-.456.034h-.6c-.991,0-1.812-.034-2.6-.091q-1.588-.137-3.178-.239c-1.025-.068-2.062-.125-3.1-.171l-.524-.034L83.1,231c-.171-.011-.342-.023-.513-.023-.239-.023-.478-.023-.717-.023-.319,0-.627,0-.98.023l-.49-.011c-.832,0-1.424-.023-2.005-.069-.478-.045-.968-.068-1.447-.068-.216,0-.444.012-.672.023-.74-.023-1.56-.068-2.506-.16-.251-.022-.5-.034-.74-.034-.536,0-1.06.046-1.675.1l-.752.068h-.455c-.4,0-.809-.011-1.2-.045-.33-.035-.649-.046-1.173-.057l-.467-.035-.444-.022c-.376-.035-.764-.057-1.139-.057a19.17,19.17,0,0,0-2.6.193l-.307-.034a7.884,7.884,0,0,0-.821-.034c-.592.023-1.241.068-2.016.171l-.33-.034a5.062,5.062,0,0,0-.741-.046c-.376,0-.751.023-1.139.057L57.4,230.8l-.3.011c-.4-.034-.809-.079-1.207-.148l-.411-.057a6.283,6.283,0,0,0-.911-.114c-.216-.011-.444-.011-.661-.011a4.44,4.44,0,0,1-.558-.023c-.854-.057-1.7-.193-2.381-.3l-.319-.057a9.929,9.929,0,0,0-1.936-.148l-.547-.057a5.435,5.435,0,0,0-.74-.057c-.411,0-.821.011-1.333.034-.126-.034-.262-.057-.593-.125a4.4,4.4,0,0,0-.626-.046,3.927,3.927,0,0,1-.547-.114l-.308-.057a8.543,8.543,0,0,1-1.093-.432l-.262-.137-.456-.308a10.369,10.369,0,0,0-.683-.854l-.262-.319a7.18,7.18,0,0,0-.49-.752,4.24,4.24,0,0,0-.5-.9,8.635,8.635,0,0,0-.593-.866l-.353-.376v-.079l-.137-.137v-.011l.137.133v-.01c-.058-.061-.117-.123-.182-.18a2.3,2.3,0,0,0-.706-.786,2.741,2.741,0,0,0-1.994-.456,2.692,2.692,0,0,0-1.732,1.082,2.6,2.6,0,0,0-.455,1.994,3.764,3.764,0,0,0,.831,1.629c.08.091.171.182.262.273a1.319,1.319,0,0,0,.217.125,1,1,0,0,1,.216.319l.194.285a3.2,3.2,0,0,0,.273.6,6.291,6.291,0,0,0,.627.9,5.7,5.7,0,0,0,.649.866,4.252,4.252,0,0,1,.536.66,3.9,3.9,0,0,0,.968,1.037c.011,0,.433.262.433.262l.455.285a4.29,4.29,0,0,0,.673.376l.444.182a7.664,7.664,0,0,0,1.253.49,13.456,13.456,0,0,0,1.412.353l.513.08c.182.023.365.023.558.034l.342.057.365.1a1.974,1.974,0,0,0,.4.035,4.638,4.638,0,0,0,.718-.069l.376-.034a3.252,3.252,0,0,1,.581.046,8.907,8.907,0,0,0,.991.057,12.279,12.279,0,0,1,1.937.239l.375.068a17.077,17.077,0,0,0,2.769.217,15.555,15.555,0,0,1,1.913.216L56.8,236a5.38,5.38,0,0,0,.808.068,7.957,7.957,0,0,0,.866-.057l.4-.011.41.023a6.111,6.111,0,0,0,.786.057,3.492,3.492,0,0,0,.478-.034l.524-.057c.251-.035.5-.069.752-.092.126,0,.251.012.593.035.239.022.489.034.729.034a3.338,3.338,0,0,0,.581-.034l.455-.046c.342-.046.7-.091,1.037-.125.456.011.9.034,1.344.079a7.94,7.94,0,0,0,1.037.057c.307.012.615.023.923.046a9.211,9.211,0,0,0,.968.046l.968-.023c.5,0,1-.046,1.492-.091l.547-.057c.274.011.547.034.809.057.308.022.615.045.923.045s.638.023.945.046a6.139,6.139,0,0,0,.65.023l.626-.012c.592,0,1.2.046,1.8.1.239.022.478.022.729.022h.479l1.025.012h.809c.911,0,1.834.057,2.745.125l.649.046c1.162.079,2.336.148,3.509.205.49.034.968.08,1.561.125a21.322,21.322,0,0,0,2.255.148l.433.012c.706,0,1.413-.023,2.107-.069.331-.011.661-.034.98-.068l.8-.068,1.2-.012c.546,0,1.093-.011,1.617-.023l.786-.011,1.663-.057c.331-.011.65-.034,1.037-.057.319-.023.627-.046.934-.057.536-.023,1.06-.08,1.584-.148l.421-.046c.308-.034.615-.068.923-.091.342,0,.683.012,1.321.046l.866.011c.433,0,.866.012,1.572.034.433,0,.866-.022,1.3-.057.672,0,1.344,0,2.119.023.467.012.934.012,1.4.012.581,0,1.173-.012,1.754-.046l.741-.034a13.645,13.645,0,0,0,1.674-.114c.638-.08,1.276-.125,2.028-.16l1.242-.045c.341-.011.694-.068,1.048-.114l.33-.068c.911-.137,1.834-.228,2.757-.274l2.813-.068h.707l.706-.011,1.914.011.535.011,1.584.012c.82,0,1.64-.012,2.46-.057.615-.012,1.231-.023,1.834-.057l.8-.057.774-.069c.376,0,.764,0,1.14.012l.478.011h.478l.468-.011c1.2-.023,2.38-.08,3.565-.137l1.094-.034,1.834-.068c.638,0,1.276.045,1.9.079l.365.023,1.071.057c.6.046,1.207.057,1.822.057.467,0,.946-.011,1.356-.023l.3.023.421-.045,1.333-.069,1.345-.068c.956-.012,1.925-.034,2.882-.1l.717-.034a19.047,19.047,0,0,0,1.96-.171c1.3-.182,2.608-.33,3.918-.4h1.31c.456.011.912.011,1.367.011.809-.011,1.618-.034,2.472-.08l.912-.045c.695-.035,1.4-.069,2.1-.092.3-.011.6-.011.9-.011h.888c.8,0,1.584,0,2.37-.034.467-.011.934-.046,1.4-.08l.854-.068c.786,0,1.572.068,2.358.125l.3.023,1.218.08c.786.045,1.584.068,2.37.068.661,0,1.333-.011,1.993-.046h1.322l.843.023c.205,0,.421-.011.626-.023.923-.011,1.834-.034,3.019-.068a43.9,43.9,0,0,1,6.3.638l1.048.16a9.893,9.893,0,0,0,1.526.091l.707-.012c.3,0,.592.023,1.162.057.33.023.672.046,1.013.046l.923.034c.444.011.877.011,1.322.011.843-.011,1.674-.022,2.506-.057l1.264-.011.923-.011h.535a43.124,43.124,0,0,1,5.491.489c.957.126,1.925.251,2.882.342.866.091,1.72.125,2.666.171.718.034,1.447.068,2.164.114a32.037,32.037,0,0,0,3.3.148l.957-.011,1.105-.012,1.868-.045c.9,0,1.788.068,2.666.136l.535.035c1.014.057,2,.079,3.019.091l.569.011c1.105.034,2.2.046,3.3.046s2.244-.012,3.235-.046c1.139-.023,2.256-.057,3.384-.1l1.275-.012,1.231-.023h.341c1.048,0,2.085.069,3.122.149l.991.056c.649.046,1.31.069,1.971.069.717,0,1.435-.023,2.267-.046l.524-.023c.387,0,.786.023,1.184.046l.365.011.33.012.855.023,1.161-.023h1.459c.41,0,.82-.034,1.23-.069l1.071-.056c.421,0,.854.011,1.276.022l.922.057.524-.023a15.052,15.052,0,0,0,1.595-.068c.41-.034.82-.068,1.322-.114.934,0,1.868.091,2.8.182l.706.057a6.811,6.811,0,0,0,.684.035,15.931,15.931,0,0,0,1.777-.114l.957-.091c.376,0,.74.011,1.241.057l.308-.023c.478,0,.957-.023,1.435-.057l.365-.023.718-.046a22.774,22.774,0,0,0,2.916-.353l.752-.114.535-.091c1.162-.159,2.335-.3,3.52-.364l.387-.023c.707-.046,1.413-.091,2.119-.182a20.146,20.146,0,0,1,2.017-.171h.3c.626-.023,1.264-.046,1.9-.126s1.31-.148,1.96-.182c.489-.011.979-.011,1.458-.011.854,0,1.708,0,2.563-.046.455-.023.922-.08,1.378-.148l.6-.08,1.3-.1.672-.057a15.051,15.051,0,0,0,3.1-.479l.331-.1a7.99,7.99,0,0,0,1.355-.49,13.2,13.2,0,0,0,1.174-.752,5.6,5.6,0,0,0,.672-.49,5.344,5.344,0,0,0,.706-.786l.524-.626.581-.706a5.7,5.7,0,0,0,1.116-2.791c.023-.012.034-.035.057-.046v-.023a8.65,8.65,0,0,0-.057-1.879c-.034-.308-.079-.616-.114-.923a2.672,2.672,0,0,0-2.665-2.221,2.457,2.457,0,0,0-.41.034ZM39.3,224.586a.226.226,0,0,1,.045.069c.035.08.057.159.08.228-.034-.1-.08-.194-.125-.3Z"/>
            <path class="cls-1" d="M77.7,0a22.557,22.557,0,0,0-2.267.205l-.82.1c-.649.034-1.3.045-1.948.045H70.823L69.5.365,67.325.376,65.97.365c-1.322,0-2.632.091-3.93.193-.638.034-1.276.114-1.926.194l-.5.057q-.888.12-1.777.2l-1.014.091-1,.091c-.6.046-1.2.08-1.8.08H52.847l-.786-.012-.775.012c-.9.045-1.8.091-2.688.194a6.775,6.775,0,0,0-1.914.637,9.616,9.616,0,0,1-1.5.365,6.716,6.716,0,0,0-1.481.205,6.937,6.937,0,0,0-2.153.991,7.425,7.425,0,0,1-.957.456,9.469,9.469,0,0,0-.911.421,10.258,10.258,0,0,0-2.37,1.72c-.193.194-.387.388-.7.65a5.377,5.377,0,0,0-.763.683,8.121,8.121,0,0,0-.717.889,8.807,8.807,0,0,1-.524.717,3.284,3.284,0,0,0-.388.479,5.737,5.737,0,0,0-.683,1.219,12.574,12.574,0,0,0-1,3.577c-.091.49-.136.979-.182,1.469l-.023.308c-.045.626-.1,1.264-.2,1.88-.1.592-.182,1.184-.25,1.777a14.894,14.894,0,0,0-.046,2.187v1.367c0,.763,0,1.526.023,2.278.045,1.379.057,2.757,0,4.124-.023.7-.057,1.39-.091,2.085a22.067,22.067,0,0,0,.034,2.312c.011.627.011,1.242,0,1.868-.012.775-.012,1.561.034,2.336.034.581.068,1.173.068,1.754,0,.672.046,1.344.1,2.016s.045,1.322.034,1.994l-.011.353L32,45.248a11.7,11.7,0,0,0,.091,1.276l.011.911c.012.353.012.7.057,1.048a18.525,18.525,0,0,0,.217,1.925l.136,1.06c.012.41,0,.82-.011,1.23-.011.455-.023.911.011,1.355a16.016,16.016,0,0,0,.24,2.085c.022.513.091,1.025.159,1.538,0,.046.012.1.012.148a2.783,2.783,0,0,0,1.093,1.413,2.742,2.742,0,0,0,2.039.376,2.683,2.683,0,0,0,1.663-1.14,2.422,2.422,0,0,0,.364-.908c-.013-.116-.027-.244-.045-.39A4.225,4.225,0,0,0,38,56.434a5.086,5.086,0,0,0-.068-.569c-.005-.215-.005-.422,0-.625-.063-.388-.129-.773-.171-1.164-.011-.717.046-1.447.023-2.164-.034-1.151-.262-2.267-.376-3.395-.023-.376-.023-.752-.034-1.139-.012-.558-.057-1.128-.114-1.686-.012-.627.045-1.253.045-1.891,0-.8-.068-1.595-.125-2.392-.057-.821-.045-1.652-.08-2.472h-.022l-.023-.331c-.034-.615-.023-1.253-.012-1.868v-.4c.012-.353.012-.706,0-1.048l-.022-.9v-.125c-.012-.809-.035-1.652,0-2.483.057-1.014.114-2.29.114-3.486,0-.763-.023-1.527-.046-2.3l-.034-.957c-.012-.684-.012-1.356,0-2.039V21.394a18.857,18.857,0,0,1,.307-2.974l.091-.569c.08-.524.126-1.048.171-1.572.035-.5.08-.991.16-1.493a11.581,11.581,0,0,1,.592-1.868,7.219,7.219,0,0,1,.65-.866,3.369,3.369,0,0,0,.33-.455l.068-.091.137-.217c.137-.114.273-.228.478-.387.148-.137.308-.262.456-.41.125-.114.239-.228.353-.342l.1-.091a6.224,6.224,0,0,1,.49-.467,11.659,11.659,0,0,1,1.161-.638c.16-.069.319-.137.49-.205l.137-.057.285-.114a7.654,7.654,0,0,0,1.162-.684l.125-.057a4.779,4.779,0,0,1,.8-.17,8.556,8.556,0,0,0,1.856-.308l.194-.057c.2-.068.421-.137.638-.2s.41-.171.615-.251l.148-.057.239-.113c.126-.023.274-.057.4-.069l.467-.034c.331-.023.661-.046.991-.057.217-.011.433-.011.65-.011h.592l.308.011h.239l.524.011h.182c1.31-.011,2.631-.136,3.919-.262l.478-.022a1.048,1.048,0,0,0,.194-.012h.011l-.068-.023c.888-.079,1.766-.182,2.654-.284l1.435-.16c1.049-.068,2.085-.114,3.133-.148h2.962c.4,0,.786,0,1.185-.011.649-.012,1.31-.012,1.971-.012l.649.012c.433,0,.877-.012,1.31-.023A29.276,29.276,0,0,0,76.5,5.343l.114-.023.478-.057c.239,0,.478-.011.718-.011.638,0,1.3.034,2.107.1.479.046,1.014.068,1.618.068.581,0,1.15-.011,1.72-.034.262-.011.513-.011.763-.011.456,0,.9.011,1.344.023.365,0,.729.011,1.094.011l.137.011c.228,0,.455-.011.683-.022h.239l.228-.012c.41-.011.809-.023,1.219-.023.194,0,.4,0,.593.012l.911.045.968.046c1.527.08,3.121.171,4.671.171.3,0,.592-.012.888-.023.274,0,.536-.011.8-.023h.193c.308-.011.627-.022,1.014-.022.513,0,1.025.034,1.549.068l.695.034c1.39.068,2.769.137,4.158.16h.251c.387,0,.763-.012,1.162-.023l.2-.012h.137l.25-.011c.353-.011.707-.023,1.048-.023.251,0,.5.012.752.023,1.094.068,2.2.125,3.372.182l.171.012,1.412.068.183.011a51.961,51.961,0,0,1,5.308.467,8.647,8.647,0,0,1,1.5.422,1.6,1.6,0,0,1,.228.159l.774.729c.342.331.729.627,1.1.935l.137.1.1.114c.091.171.193.342.284.513l.069.125.091.171c.159.273.307.558.467.831.57.923,1.2,1.846,1.777,2.7a36.3,36.3,0,0,0,2.973,3.794c.467.524.934,1.059,1.4,1.594.559.638,1.117,1.276,1.686,1.892.3.318.581.637.855.968l.159.171c.194.216.376.433.57.649a20.017,20.017,0,0,0,1.936,1.743l.24.205a.011.011,0,0,0,.011.011c.125.114.262.217.4.319a2.531,2.531,0,0,0,2.039.376,2.638,2.638,0,0,0,1.652-1.128,2.715,2.715,0,0,0,.387-2.05,2.549,2.549,0,0,0-.558-1.105l-.114-.034a4.031,4.031,0,0,0-.513-.467l-.979-.786a18.494,18.494,0,0,1-1.618-1.766l-.4-.456-.683-.774c-.513-.558-1.014-1.117-1.5-1.7q-.479-.581-.991-1.127c-.342-.365-.672-.729-.991-1.117-.6-.752-1.185-1.526-1.857-2.472-.626-.945-1.242-1.891-1.777-2.893a8.177,8.177,0,0,0-1.219-1.823,7.445,7.445,0,0,0-1.059-.911l-.274-.2-.342-.319c-.455-.433-.911-.855-1.4-1.242a6.935,6.935,0,0,0-2.893-1.128,36.39,36.39,0,0,0-6.448-.717L113.712.775C112.6.718,111.479.649,110.363.558h-.456c-.4-.023-.808-.045-1.219-.045l-.5.022c-.66.035-1.333.057-2.267.057-.979,0-1.982-.045-2.962-.1l-.467-.012c-1.207-.068-2.4-.125-3.611-.125-.376,0-.74,0-1.116.023-.41.011-.832.011-1.242.011-1.447,0-2.905-.068-4.363-.148L91.533.216,91.168.194c-.706-.035-1.412-.069-2.13-.069l-.456.012-.66.011c-.5.011-.992.023-1.481.023h-.5L85.256.159,84.105.137c-.25,0-.512,0-.877.022-.478.012-.945.023-1.424.023-.433,0-.877-.011-1.31-.034L79.765.08C79.184.034,78.615,0,78.034,0Z"/>
            <path class="cls-1" d="M135.687,22.328a2.726,2.726,0,0,0,.285,1.982l.034.034a2.8,2.8,0,0,0,1.64,1.207l.82.274a19.8,19.8,0,0,0,2.917.786c1.025.171,2.426.4,3.782.7a38.94,38.94,0,0,0,6.743.706l.923.046c.627.034,1.242.034,1.857.034.581,0,1.162,0,1.743.023.49.022.968.057,1.458.1l.182.012c.57.045,1.139.079,1.709.091.319.011.627.011.934.011.444,0,.877,0,1.322-.011.421,0,.854-.012,1.378-.012.74,0,1.47-.023,2.2-.068.489-.023.979-.046,1.481-.057,1.31-.034,2.62-.1,3.93-.182,1.276-.069,2.54-.137,3.816-.171l.809-.023c1.082-.034,2.175-.068,3.258-.114.911-.045,1.811-.114,2.711-.194l1.253-.091c2.347-.171,4.773-.262,6.915-.33l1.595-.057.524-.011h.182c2.392-.092,4.853-.171,7.29-.205h.616c1.207,0,2.4.045,3.611.091,1.025.034,2.039.068,3.064.079l.729.012,1.014-.012h1.9l.524.012h.559c.934.023,1.857.034,2.779.034h1.1c.946,0,2.051,0,3.122-.068.421-.012.831-.035,1.241-.057l.433-.034c.82-.057,1.629-.1,2.461-.137.854-.012,1.708-.023,2.563-.023h.524c.342,0,.695,0,1.048-.011.8-.012,1.595-.046,2.4-.091l.444-.023,1.367-.069,1.1-.034.273-.011c.718-.023,1.424-.046,2.142-.046h.2c1.253.012,2.517.046,3.782.08,2.552.091,5.092.1,8.111.1,1.367,0,2.745-.046,4.089-.092l.183-.011c1.321-.057,2.642-.1,3.975-.114,2.45-.011,4.819-.114,7.439-.239.6-.034,1.219-.046,1.823-.046,1.048,0,2.107.034,3.167.069.786.022,1.583.057,2.369.057l.376.011c.763,0,1.538-.034,2.312-.068.479-.023.957-.046,1.436-.057s.923-.012,1.378-.012h1.413l1.116.012h.991c.934,0,1.857,0,2.791.022,1.356.046,2.7.08,4.044.092l2.074.011c1.845.011,3.747.023,5.627.1,1.014.045,2.028.125,3.076.239.25.023.5.057.752.079l-.012-.011H296.9l-.193-.045c.626.068,1.264.125,1.9.182l.285.034.3.034a2.472,2.472,0,0,0,.706.091.152.152,0,0,0,.069-.011l.307.045.308.035.752.091c.843.091,1.686.193,2.529.262l.535.045c.672.046,1.356.114,2.028.171a29.866,29.866,0,0,0,3.657.3l.2-.011h.319c.843,0,1.754.057,2.791.159a21.23,21.23,0,0,1,4.26.912,13.923,13.923,0,0,1,1.937,1.048c.136.125.262.239.4.387v.023l.137.137a16.094,16.094,0,0,1,1.151,1.834c.011.034.022.068.034.114.011.307.011.6.034.911.011.068.011.137.023.2.011.046.022.08.034.125l.011.217c.034.25.057.512.069.763.022.433-.012.866-.035,1.367l-.011.125c-.023.137-.023.274-.046.41a7.033,7.033,0,0,0-.011.832,28.805,28.805,0,0,1-.137,2.985c-.057.877-.011,1.743-.068,2.608-.262,1.743-.752,3.429-.888,5.183.017.162.028.327.037.492.037.314.068.648.088,1.012l.1.376c.014.2.03.405.046.607a12.959,12.959,0,0,1,.153,1.592c.031.278.063.555.1.831l-.023.331-.046.353c.08.216.148.421.251.74l.057.365c.1.683.193,1.31.239,1.948,0,.127,0,.254,0,.382a2.722,2.722,0,0,0,2.983.153,2.522,2.522,0,0,0,1.207-1.652,14.729,14.729,0,0,0,.194-2.551c-.034-.6-.114-1.208-.16-1.823a13.188,13.188,0,0,1,.046-1.766c.034-.478.023-.957.045-1.435.2-1.253.559-2.472.741-3.737a20.544,20.544,0,0,0,.216-2.517c.023-.706-.011-1.413.046-2.13a19.569,19.569,0,0,0,.125-2.017,18.828,18.828,0,0,1,.012-1.959,9.857,9.857,0,0,0,.011-1.834c-.011-.194-.023-.4-.034-.592-.034-.126-.057-.262-.091-.4-.012-.262-.023-.536-.057-.8a6.784,6.784,0,0,0-1.139-3.155l-.251-.376c-.217-.353-.444-.706-.684-1.048a10.256,10.256,0,0,0-4.135-3.2,21.94,21.94,0,0,0-7.757-1.675c-.809-.068-1.595-.091-2.438-.114-.82-.022-1.629-.045-2.438-.113-.968-.114-1.937-.206-2.905-.285l-1.914-.171c-.877-.114-1.743-.217-2.9-.331-.854-.113-1.7-.193-2.586-.273a68.08,68.08,0,0,0-7.119-.456l-1.55-.011-1.663-.011c-1.538-.012-3.087-.012-4.625-.035-2.13-.056-4.272-.091-6.413-.091l-1.424.012c-.707,0-1.413.034-2.119.068l-.592.023c-.422.011-.843.034-1.265.045h-.718c-.808,0-1.629-.022-2.529-.045l-.535-.012-1.048-.022c-.752-.023-1.492-.046-2.244-.046l-.387.012c-.912,0-1.823.045-2.734.091L260,21l-.547.034c-1.276.057-2.552.08-3.884.091-1.311.012-2.643.023-3.953.1-2.017.1-4.033.136-6.049.136-2.632,0-5.263-.057-7.883-.125l-1.983-.046-1.105-.022c-1.31,0-2.62.057-3.941.114l-.581.034-1.173.045-1.185.057c-.934.023-1.846.023-2.768.023l-1.436.011c-.695,0-1.389.035-2.084.069l-.445.034c-.5.034-1.013.068-1.526.091-1.732.091-3.474.114-5.206.114-.98,0-1.948,0-2.928-.011l-2.027-.023c-1.846,0-3.68-.012-5.514-.08-1.253-.057-2.5-.08-3.736-.08s-2.5.023-3.748.057q-4.05.086-8.1.274l-1.743.068c-.843.034-1.686.068-2.54.125-1.048.057-2.107.137-3.144.217l-1,.08c-1.5.1-3.007.148-4.545.182-1.173.034-2.358.068-3.531.137-3.384.193-7.04.375-10.8.375h-1.253c-.843-.011-1.686-.091-2.711-.17-.558-.057-1.1-.057-1.663-.069h-1.333c-.888-.011-1.766-.057-2.654-.114l-1.253-.091-1.4-.068a18.564,18.564,0,0,1-2.1-.342l-2.051-.421-.364-.069-1.048-.171a10.832,10.832,0,0,1-1.595-.33c-.547-.148-1.094-.319-1.652-.5l-.08-.08-.82-.273a2.2,2.2,0,0,0-.661-.1,2.8,2.8,0,0,0-2.574,2.051Zm161.021,4.294c.057.012.125.012.182.023a.944.944,0,0,1-.182-.023Z"/>
            <path class="cls-1" d="M321.36,27.7a2.618,2.618,0,0,0-1.276,1.549,2.861,2.861,0,0,0-.114,1.094c0,.011.011.023.023.034a1.883,1.883,0,0,0,.307.923,9.5,9.5,0,0,1,.832,1.481c.1.319.182.626.273.945l.012.137c.011.057.022.1.034.159.091.331.182.673.239,1,.011.456-.011.911-.023,1.367A15.849,15.849,0,0,0,321.7,38.4a7.226,7.226,0,0,1,0,1.177,10.377,10.377,0,0,0-.205,1.777,18.422,18.422,0,0,0,.114,2.084c.08,1,.057,1.994.046,3.008a28.274,28.274,0,0,0,.159,3.11v-.012a.067.067,0,0,0,.012.046v.068c.009.114.019.22.028.325l0-.016c.213,2.616.236,5.243.236,7.87-.012,1.447.171,2.882.068,4.329a28.262,28.262,0,0,0,.4,5.8,2.575,2.575,0,0,0,1.185,1.663,2.661,2.661,0,0,0,2.016.342,2.754,2.754,0,0,0,1.287-.707c-.125-.774-.182-1.572-.228-2.335a3.317,3.317,0,0,1,.034-.652v-.3l.046-.319-.034-.683-.034-.49a5.92,5.92,0,0,1-.023-1.276l-.068-.319-.046-1.561a1.416,1.416,0,0,1,.046-.307l-.069-.376c0-.186-.011-.373-.019-.561a7.758,7.758,0,0,1-.062-1.1l-.033-.517c.057-.5.114-.991.16-1.378.034-.217.057-.433.079-.684a8.209,8.209,0,0,1-.079-2.13l.068-.547a6.305,6.305,0,0,1,.433-1.971c-.068-1.059-.148-2.119-.251-3.167a21.75,21.75,0,0,1-.022-2.449,25.026,25.026,0,0,0-.1-2.927,13.993,13.993,0,0,1,.011-2.666A5.356,5.356,0,0,0,327,39.394a13.006,13.006,0,0,0-.08-1.321,17.071,17.071,0,0,1,.034-1.868l.011-.388a9.794,9.794,0,0,0-.33-2.836c0-.108-.01-.218-.016-.329a12.111,12.111,0,0,0-1.636-3.886,2.89,2.89,0,0,0-1.56-1.276,2.732,2.732,0,0,0-2.062.205Zm.33,10.594,0,.081a.691.691,0,0,1,0-.081Z"/>
            <path class="cls-1" d="M321.842,49.836l-.015-.173-.006-.065c.006.08.013.159.021.238Z"/>
            <path class="cls-2" d="M238.391,31.169c-.622.029-1.243.038-1.865.038h-.592c-.442,0-.884,0-1.326,0-1.36.012-2.72.125-4.226.258l-.267.021c-1.059.088-2.157.18-3.233.221-2.678.092-5.343.117-7.829.13-1.669,0-3.358.125-4.993.242l-.15.012-.393.025c-.922.067-1.848.134-2.778.18l-1.134.054-.338.012c-1.21.059-2.461.121-3.692.125l-1.443-.037c-.93-.025-1.861-.05-2.8-.05l-.279,0c-.718,0-1.436.033-2.149.067l-.216.012c-.655.034-1.31.067-1.966.08-.98-.03-2.035-.1-3.316-.222-.621-.062-1.243-.112-1.868-.162s-1.252-.1-1.873-.163c-1.344-.142-2.549-.217-3.683-.234-.313-.008-.622-.008-.935-.008-.584,0-1.172.008-1.765.017l-.554,0c-.359,0-.714.008-1.072.008-.543-.012-1.085-.029-1.66-.046l-1.1-.033-.73-.036-.312,0,.107.024c-.5-.012-1-.016-1.51-.016-.91,0-1.815.012-2.724.029l-1.631.025-.964-.038c-.625-.02-1.247-.037-1.868-.037-.346,0-.693.008-1.039.025-1.034.046-2.119.071-3.408.079a16.733,16.733,0,0,0-2.031.167c-.547.063-1.106.129-1.661.15-1.247.034-2.5.13-3.787.225l-.288.021c-.717.05-1.435.084-2.177.117-.555.025-1.114.05-1.669.088-1.372.083-2.741.175-4.146.271-1.231.075-2.482.1-3.75.129-1.147.025-2.29.05-3.437.117-.455.021-.906.033-1.36.05l-.455.017c-.425.008-.851.02-1.277.041-.342.009-.675.042-1.026.084l-.375.041c-.43.042-.868.059-1.306.076l-.438.016c-2.269.092-4.53.226-6.8.363-1.126.067-2.256.109-3.387.146-.475.013-.947.038-1.422.067l-.226.008c-.684.034-1.368.071-2.056.075-1.035,0-2.086.042-3.1.088l-.158.008c-.893.042-1.815.084-2.761.084-.108,0-.216,0-.325-.009h-.138l.1,0h-.089l.089.026-.417,0c-.692,0-1.38.009-2.073.03l-.346,0-.346,0-.346,0h-.355l-.284,0h-.279l-.475,0-.476,0-.643,0-1.017,0-.413,0-.467-.008-.142-.024h-.1l.056.025c-.593-.013-1.185-.038-1.79-.067-.78-.033-1.556-.063-2.336-.063-.212,0-.421,0-.634.009-.475.012-.955.029-1.43.046-.893.033-1.786.062-2.683.071-.913-.017-1.823-.046-2.761-.076-1.226-.041-2.453-.079-3.679-.079l-.563,0c-1.077.005-2.169.063-3.225.121l-.25.013c-1.093.062-2.223.125-3.337.133L83.6,34.36c-.743-.025-1.481-.05-2.224-.05-.2,0-.4,0-.6.008-1.089.017-2.516.046-3.925.13-2.532.142-5.027.175-7.129.187l-2.286-.041-1.852-.038-1.159-.039-.6-.006.141.024-.326-.012-.339-.016H63.3c-.68-.029-1.364-.079-2.09-.133-.442-.034-.876-.067-1.314-.088-.58-.037-1.155-.05-1.735-.05-.518,0-1.03.008-1.556.017-.384.008-.768.016-1.152.021l-.888-.034-.25-.012c-.509-.017-1.018-.034-1.531-.034-.405,0-.809.013-1.218.042-.722.046-1.46.146-2.223.254l-.4.051-.75.1a20.233,20.233,0,0,0-3.246.663c-.5.146-.993.313-1.485.484l-.179.058-.551.184-.188.067c-.767.254-1.535.513-2.285.809a11.151,11.151,0,0,0-1.782.842,6.571,6.571,0,0,0-1.243,1.081.5.5,0,0,1-.12.1,9.041,9.041,0,0,0-1.165,1.916c-.187.372-.383.739-.571,1.11-.242.488-.417,1.005-.609,1.514a2.672,2.672,0,0,0,4.9,2.14,25.014,25.014,0,0,1,1.364-3.028c.075-.1.15-.2.234-.288.046-.042.1-.075.146-.113a26.861,26.861,0,0,1,3.116-1.147c.872-.283,1.739-.6,2.619-.851.976-.212,1.99-.3,2.974-.425a28.964,28.964,0,0,1,3-.28c.972.034,1.939.075,2.916.075.721,0,1.447-.029,2.173-.041.993.037,1.977.137,2.97.2,1.331.079,2.653.088,3.983.088,1.2.02,2.4.07,3.6.1,1.473.033,2.937-.009,4.405-.021,2.946-.029,5.886-.288,8.827-.288,1.9.037,3.8.108,5.7,0,1.606-.1,3.213-.184,4.818-.192,1.773.033,3.542.129,5.315.15,1.03.013,2.069-.021,3.1-.054.884-.03,1.773-.059,2.661-.063,1.316.04,2.631.1,3.951.122h-.222c.122,0,.249,0,.373,0h.111c.079,0,.155,0,.234.005-.079-.005-.155-.005-.234-.005h2.123c.284,0,.568.005.851.005.2,0,.413,0,.618,0a2.757,2.757,0,0,0,.642,0,.039.039,0,0,1,.021,0h.918c.767-.009,1.531-.038,2.3-.042,1.385,0,2.766-.034,4.155-.1.613-.029,1.222-.088,1.839-.1.734-.008,1.473,0,2.207-.021,2.807-.1,5.623-.225,8.426-.425,1.41-.1,2.816-.155,4.23-.205,1.255-.046,2.5-.188,3.75-.242,2.465-.112,4.93-.175,7.4-.229,1.9-.042,3.783-.23,5.681-.321.884-.042,1.773-.142,2.657-.167,1.031-.025,2.061-.092,3.087-.171.976-.075,1.948-.134,2.924-.163.947-.033,1.873-.167,2.812-.263.863-.087,1.739-.066,2.611-.075.822-.008,1.639-.067,2.465-.087,1.268.029,2.532.087,3.805.062,1.255-.025,2.515-.046,3.766-.046.292,0,.58.009.868.009,1.1.021,2.194.083,3.295.1,1.356.012,2.711-.025,4.067-.029,1.239.033,2.47.116,3.7.246,1.435.146,2.879.237,4.318.379a35.432,35.432,0,0,0,4.809.146c1.343-.046,2.687-.125,4.034-.142,1.4.025,2.791.088,4.192.088,1.21,0,2.416-.054,3.621-.113,1.4-.071,2.8-.133,4.2-.25s2.791-.242,4.193-.271c2.586-.054,5.168-.075,7.75-.113,1.26-.016,2.511-.1,3.767-.2,1.3-.1,2.6-.246,3.9-.3,1.035-.042,2.073-.058,3.112-.054.571,0,1.147-.013,1.719-.029.458-.017.921-.029,1.384-.034,1.3.038,2.595.109,3.9.113.914.025,1.832.1,2.745.125.834.029,1.669.017,2.5,0,.413-.008.826-.012,1.239-.017.463.005.926.009,1.393.009,1.694.021,3.391.012,5.085-.009.851.021,1.7.067,2.549.092s1.689.013,2.536,0c.4-.008.792-.012,1.193-.017,1.873.046,3.746.172,5.623.2,1.118.016,2.24.071,3.362.1,1.335.033,2.67.029,4,.025l1.217.012c1.9.05,3.788.217,5.69.276,1.289.037,2.574.075,3.867.05.968-.021,1.94-.08,2.916-.1.892.025,1.781.1,2.674.12.738.021,1.48.005,2.223-.012.479-.017.959-.025,1.443-.029.5,0,1,0,1.51,0,.78.025,1.556.092,2.336.171.993.092,1.994.1,2.991.108.914.013,1.827.013,2.741.013.4,0,.792,0,1.188,0,1.26.041,2.511.2,3.759.358s2.52.292,3.75.563c.525.159,1.042.33,1.567.485l-.024,0c.142.042.284.088.422.138a10.636,10.636,0,0,0,1,1.1c.225.209.446.421.667.634a2.8,2.8,0,0,1,.2.25.993.993,0,0,0,0,.109,2.583,2.583,0,0,0,.984,1.752,2.667,2.667,0,0,0,3.755-.426,2.563,2.563,0,0,0,.55-1.5v.146a4.09,4.09,0,0,0-.233-1.928,6.429,6.429,0,0,0-.543-.966l0,.007c-.084-.142-.167-.284-.259-.417a6.4,6.4,0,0,0-.88-.96l-.3-.289,0,.027-.413-.392-.188-.23-.1-.117c-.092-.108-.18-.212-.271-.313a4.706,4.706,0,0,0-1.869-1.372,12.335,12.335,0,0,0-1.231-.367l-.642-.2a16.667,16.667,0,0,0-2.115-.559c-.772-.146-1.56-.246-2.369-.342l-.86-.108c-1.03-.138-2.231-.288-3.428-.334-.38-.017-.755-.021-1.135-.021-.438,0-.876,0-1.318.012-.392.009-.784.013-1.181.017l-.442-.008-1.151-.017c-.78-.021-1.552-.087-2.324-.154l-.638-.05c-.83-.075-1.635-.079-2.323-.079H296.7l-.242,0-.492,0c-.563,0-1.13.008-1.718.016-.426.008-.856.017-1.285.021-.422-.017-.839-.033-1.256-.054-.747-.034-1.5-.067-2.248-.067l-.43,0c-.5,0-1,.021-1.5.038l-.309.012c-.684.025-1.368.046-2.052.054-1.319-.033-2.628-.095-3.942-.162l-.242-.013c-1.112-.053-2.245-.11-3.376-.16q-.36-.011-.72-.016l.112.022q-.764-.012-1.526-.013l-.881,0c-.383,0-.771,0-1.155,0-1.756-.029-3.654-.087-6.161-.187-1.076-.046-2.148-.088-3.254-.13-.329-.012-.659-.016-.988-.016-.5,0-1,.008-1.5.021l-.376,0c-.25,0-.5.008-.754.008-.4-.012-.8-.029-1.244-.046-.759-.033-1.518-.062-2.277-.062l-.409,0-1.222.017c-.705.012-1.4.025-2.107.025l-.613-.017c-.374-.006-.751-.013-1.126-.034l-.319,0,.073.025c-.055,0-.109,0-.163,0h-.188l-.371,0c-.484,0-.963.013-1.46.021l-.434,0c-.279,0-.555.008-.83.008-.667-.016-1.33-.041-2-.083-.88-.054-1.764-.059-2.665-.059l-1.147-.045c-.8-.034-1.6-.063-2.407-.063-.367,0-.739,0-1.11.025Zm-69.307,5.773h0Zm-61.375,2.607h0Z"/>
            <path class="cls-3" d="M77.811,5.258c-.242,0-.48,0-.722.013l-.481.059-.111.012c-.987.113-2.008.23-3.016.246-.438.013-.876.017-1.314.017l-.655,0c-.659,0-1.314,0-1.969.012-.392.013-.784.013-1.176.013l-.951,0-1.009,0c-.338,0-.67,0-1.007.009-1.05.025-2.089.071-3.136.142l-1.436.162c-.884.105-1.764.205-2.653.288l.11.021-.718.033c-1.289.122-2.614.246-3.925.255l-.18,0-.525-.009-.241,0-.3,0c-.2,0-.4-.007-.594-.007q-.327,0-.652.012c-.325.017-.655.038-.985.059l-.471.029c-.13.021-.268.046-.394.075l-.247.109-.143.06c-.2.085-.408.171-.62.249s-.425.137-.638.2l-.192.058a8.443,8.443,0,0,1-1.858.309,6.11,6.11,0,0,0-.791.171l-.133.063a7.579,7.579,0,0,1-1.157.68l-.284.118-.141.057c-.163.062-.33.129-.489.205a9.945,9.945,0,0,0-1.16.638c-.175.144-.335.3-.494.458l-.1.094c-.117.117-.234.234-.355.346-.148.145-.3.276-.461.4-.2.162-.335.275-.469.4l-.139.211-.064.094a5.45,5.45,0,0,1-.336.455,7.735,7.735,0,0,0-.652.865,12,12,0,0,0-.593,1.864c-.075.5-.117.994-.159,1.49-.041.53-.088,1.055-.171,1.581l-.088.559a19.563,19.563,0,0,0-.308,2.98c0,.438,0,.876,0,1.309l0,.294c0,.682-.008,1.364.01,2.043l.029.955c.025.773.05,1.534.05,2.3,0,1.206-.065,2.473-.117,3.491-.039.829-.019,1.667,0,2.478l0,.126.02.905c.007.347,0,.7,0,1.043l0,.258,0,.144c-.008.614-.016,1.248.019,1.871l.016.334a.465.465,0,0,0,.158-.119,6.528,6.528,0,0,1,1.244-1.078,11.031,11.031,0,0,1,1.779-.842c.751-.3,1.518-.554,2.286-.809l.188-.067.55-.183.182-.062c.49-.168.981-.336,1.482-.48a20.441,20.441,0,0,1,3.248-.667c.25-.03.5-.064.747-.1l.4-.053c.764-.1,1.5-.206,2.223-.255.408-.029.812-.041,1.217-.041.512,0,1.02.018,1.529.036l.252.009.888.034c.384,0,.768-.013,1.152-.021.525-.008,1.04-.017,1.556-.017.579,0,1.155.013,1.734.05.44.024.875.056,1.314.089.726.053,1.411.1,2.09.132l.347.017.325.012-.237-.037,1.852.058,1.851.038,2.287.042c2.1-.013,4.6-.045,7.129-.188,1.408-.083,2.837-.113,3.925-.129.2-.005.4-.009.6-.009.742,0,1.483.025,2.224.05l.951.029c1.112-.008,2.243-.07,3.337-.131l.249-.014c1.056-.056,2.149-.113,3.226-.121l.563-.005c1.226,0,2.452.038,3.679.08.94.03,1.849.058,2.761.075.9-.009,1.79-.038,2.683-.071.475-.017.955-.034,1.431-.046.212-.008.421-.008.633-.008.78,0,1.556.033,2.336.066.605.025,1.2.05,1.79.063l-.115-.046.3.046.468.008.413,0,1.018,0,.642,0,.476,0,.475,0h.279l.284,0h.355l.346,0,.348,0,.345,0c.692-.021,1.38-.029,2.072-.029l.417,0-.19-.051a3.941,3.941,0,0,0,.554.03c.946,0,1.868-.042,2.761-.083l.158-.007c1.018-.044,2.069-.089,3.1-.089.688,0,1.373-.039,2.058-.073l.224-.011c.476-.029.947-.054,1.422-.067,1.131-.037,2.262-.079,3.388-.146,2.265-.137,4.526-.271,6.8-.363l.438-.016c.438-.017.874-.034,1.306-.075l.376-.042c.351-.039.684-.075,1.025-.084q.639-.03,1.276-.041l.455-.015c.453-.015.907-.03,1.36-.052,1.147-.067,2.29-.092,3.437-.117,1.267-.025,2.521-.051,3.75-.129,1.406-.1,2.775-.188,4.147-.271.555-.037,1.114-.062,1.669-.087.742-.034,1.459-.067,2.177-.118l.288-.021c1.282-.095,2.541-.188,3.787-.225.555-.02,1.115-.086,1.66-.15a16.937,16.937,0,0,1,2.031-.167c1.289-.008,2.374-.033,3.408-.079q.52-.025,1.039-.025c.621,0,1.243.021,1.868.041l.963.034,1.632-.025c.909-.017,1.814-.029,2.724-.029.5,0,1,0,1.51.017l-.166-.034,1.1.052,1.1.032c.577.017,1.117.033,1.661.046.359,0,.713-.005,1.072-.009l.554,0c.594-.008,1.18-.017,1.765-.017.313,0,.621,0,.934.009,1.137.016,2.342.093,3.683.233.621.063,1.247.113,1.873.163s1.247.1,1.868.163c1.284.122,2.338.192,3.317.221.656-.013,1.311-.046,1.966-.08l.214-.01c.717-.034,1.434-.069,2.151-.069l.279,0c.934,0,1.865.025,2.794.05l1.444.038c1.232,0,2.481-.064,3.69-.122l.34-.016,1.135-.054c.928-.044,1.854-.111,2.779-.177l.391-.028.151-.011c1.635-.117,3.325-.239,4.992-.243,2.485-.012,5.153-.037,7.83-.129,1.077-.039,2.172-.131,3.232-.22l.268-.023c1.506-.131,2.864-.242,4.225-.258.442,0,.884,0,1.326,0h.592c.622,0,1.244-.009,1.866-.038.371-.021.742-.025,1.109-.025.805,0,1.6.029,2.406.063l1.147.046c.9,0,1.786,0,2.665.058.668.042,1.331.067,2,.084.275,0,.551,0,.831-.009l.433,0c.5-.008.976-.017,1.46-.021l.371,0H251c.054,0,.108,0,.162,0l-.144-.046c.5.042,1.011.053,1.518.063l.612.013c.7,0,1.4-.013,2.1-.025l1.224-.017.409,0c.759,0,1.518.029,2.277.062.442.018.843.034,1.243.046.255,0,.5,0,.756-.008l.375,0c.5-.013,1-.021,1.5-.021.329,0,.658,0,.988.017,1.1.042,2.179.083,3.253.129,2.506.1,4.406.159,6.162.188.384,0,.772,0,1.155,0l.881,0q.762,0,1.526.012l-.212-.038c1.4.057,2.816.126,4.2.193l.241.012c1.314.067,2.624.129,3.942.163.685-.009,1.369-.03,2.053-.055l.311-.01c.5-.018,1-.036,1.5-.04l.43,0c.751,0,1.5.034,2.248.067.417.021.834.037,1.255.054.431,0,.86-.012,1.286-.021.588-.008,1.153-.016,1.718-.016l.492,0,.242,0h.668c.688,0,1.492.006,2.322.079l.638.05c.772.067,1.544.133,2.325.154l1.151.017.442.008c.4,0,.789-.008,1.181-.016.442-.009.88-.013,1.318-.013.379,0,.755,0,1.134.021,1.2.046,2.4.2,3.428.334l.859.108c.81.1,1.6.2,2.369.342a17.236,17.236,0,0,1,2.118.56l.642.2a11.336,11.336,0,0,1,1.23.367,4.686,4.686,0,0,1,1.869,1.369c.092.1.181.206.271.312l.1.118.188.229.414.393a3.393,3.393,0,0,0,.066-.511l.01-.13a12.489,12.489,0,0,0,.042-1.369c-.017-.251-.042-.506-.067-.756l-.021-.221c-.08-.315-.167-.628-.268-.941A8.56,8.56,0,0,0,320.3,31.3a1.946,1.946,0,0,1-.307-.93c-.132-.14-.262-.261-.4-.378a14.222,14.222,0,0,0-1.933-1.057,21.736,21.736,0,0,0-4.263-.906c-1.039-.1-1.952-.155-2.791-.155h-.322l-.2.005a29.954,29.954,0,0,1-3.657-.292c-.676-.063-1.356-.121-2.032-.176l-.538-.045c-.845-.07-1.683-.168-2.524-.267l-.754-.088-.305-.033-.308-.038H299.9a2.588,2.588,0,0,1-.714-.084l-.289-.034-.288-.033c-.638-.058-1.272-.117-1.906-.184l.443.1c-1.393-.191-2.714-.3-4.036-.359-1.878-.079-3.784-.088-5.628-.1l-2.073-.017c-1.347-.013-2.694-.046-4.041-.088-.935-.029-1.865-.029-2.791-.029l-.334,0h-.334l-.329,0-1.118,0c-.488,0-.947-.008-1.406-.008s-.922,0-1.385.012c-.48.017-.959.038-1.435.058-.772.034-1.543.067-2.315.067l-.371,0c-.791-.008-1.581-.033-2.372-.058-1.056-.034-2.112-.067-3.163-.067-.61,0-1.219.008-1.828.038-2.62.126-4.988.233-7.433.246-1.329.008-2.655.058-3.98.108l-.182.007c-1.34.048-2.727.1-4.089.1-3.021,0-5.557-.017-8.113-.1-1.259-.042-2.523-.075-3.783-.087H234.4c-.712,0-1.422.026-2.134.052l-.277.01-1.1.038c-.457.016-.916.038-1.374.061l-.445.022c-.8.046-1.6.088-2.4.1-.35.006-.7.008-1.049.009l-.523,0c-.855,0-1.711,0-2.566.025-.819.025-1.635.078-2.454.132l-.434.027c-.412.026-.825.051-1.237.07-1.074.055-2.184.063-3.128.063l-.392,0h-.393l-.313,0c-.928,0-1.857-.015-2.785-.029l-.555-.009-.526-.008-.809,0-1.1,0-1.005.008-.734-.008c-1.02-.009-2.041-.046-3.061-.083C202.4,26.849,201.2,26.8,200,26.8l-.617,0c-2.437.032-4.908.117-7.3.2l-.183.006-.517.017-1.6.054c-2.143.071-4.573.151-6.912.325l-1.252.1c-.9.07-1.805.141-2.711.183-1.088.054-2.177.088-3.266.121l-.8.021c-1.277.037-2.545.1-3.818.175-1.312.071-2.621.142-3.929.175-.5.017-.989.038-1.485.063-.73.037-1.46.071-2.189.071-.526,0-.96,0-1.39.008s-.876.008-1.314.008c-.312,0-.621,0-.934-.008-.571-.011-1.138-.053-1.706-.095l-.187-.013c-.484-.038-.972-.075-1.46-.1-.58-.024-1.156-.024-1.736-.024-.617,0-1.239,0-1.855-.034l-.927-.042a39.87,39.87,0,0,1-6.743-.709c-1.353-.3-2.76-.528-3.788-.7a18.838,18.838,0,0,1-2.914-.79l-.822-.269a2.8,2.8,0,0,1-1.634-1.205l-.246-.2a19.109,19.109,0,0,1-1.932-1.749c-.194-.211-.383-.426-.573-.643l-.153-.175c-.279-.325-.563-.651-.855-.968-.576-.617-1.135-1.255-1.689-1.893-.464-.534-.931-1.064-1.406-1.59a36.36,36.36,0,0,1-2.965-3.8c-.591-.854-1.215-1.773-1.781-2.7-.164-.272-.316-.549-.468-.827l-.091-.166-.071-.13c-.094-.171-.187-.342-.284-.508l-.1-.114-.139-.11c-.379-.3-.759-.6-1.109-.934l-.767-.726c-.072-.055-.149-.108-.224-.16a8.124,8.124,0,0,0-1.509-.414,49.914,49.914,0,0,0-5.3-.469l-.194-.011-1.409-.075-.172-.008c-1.169-.061-2.272-.118-3.374-.184-.251-.012-.5-.016-.752-.016-.344,0-.691.01-1.038.021l-.259.008-.13,0-.2.008c-.4.013-.784.025-1.164.025l-.254,0c-1.384-.021-2.769-.087-4.154-.154l-.7-.038c-.517-.033-1.035-.062-1.552-.071-.385,0-.7.012-1.007.023l-.191.007c-.267.012-.533.02-.8.025-.3.008-.593.012-.889.012-1.557,0-3.14-.085-4.67-.167l-.973-.05-.905-.046c-.2-.008-.4-.008-.6-.008-.4,0-.81.012-1.218.025l-.23.008-.233.007c-.231.007-.462.014-.693.014l-.133,0c-.363,0-.73-.008-1.093-.017-.446-.012-.893-.025-1.339-.025-.254,0-.509,0-.764.013-.576.025-1.147.042-1.722.042-.606,0-1.136-.022-1.622-.067-.8-.071-1.467-.105-2.1-.105Z"/>
            <path class="cls-4" d="M296.412,39.192c-.432,0-.864.012-1.295.023-.654.023-1.28.034-1.9.034-1.209,0-2.3.012-3.375.114l-.63.138-.33.068-.322.066a18.892,18.892,0,0,1-2.34.321c-.592.056-1.2.079-1.911.079-.454,0-.908-.011-1.362-.022L282.514,40h-.661l-.66-.011c-.617,0-1.232.011-1.848.045l-.443.012c-.957.045-1.9.079-2.859.079s-1.81-.045-2.653-.091l-.831-.045c-.62-.037-1.241-.044-1.861-.051l-.464-.006-.467-.012-.695-.011h-3.691c-.912,0-1.893.011-2.885.1l-.82.068-.684.068c-.534.046-1.069.091-1.6.1q-.615.033-1.23.034l-.677-.006-.678-.006-.615-.011-.569-.011c-.651,0-1.05,0-1.46.011h-.386l-.32.011-.365.012h-.7c-1.469-.012-2.722-.046-3.975-.091l-.934-.023-.353-.011-2.461-.08c-.706-.012-1.411-.057-2.117-.114l-.525-.034-1-.068c-1.322-.092-2.7-.126-4.1-.126-1.117,0-2.3.023-3.5.068l-.719.046-.717.034q-1.2.069-2.392.1c-.319.011-.637.011-.956.011-.888,0-1.8-.023-2.687-.045l-2.814-.1c-1.674-.068-3.338-.125-5-.148l-2.415-.034c-1.891-.034-3.747-.057-5.616-.08h-1c-.855,0-1.71,0-2.564.011-.911.023-1.686.023-2.46.023-.6,0-1.207-.011-1.8-.023-2.218-.035-4.259-.068-6.312-.068-3.151,0-5.991.067-8.682.2-.831.057-1.765.068-2.926.068-.741,0-1.481,0-2.21-.011-.892-.012-1.7-.023-2.529-.023-1.334.012-2.667.057-4.011.114l-.455.012c-.9.034-1.812.068-2.723.079-.387.012-.786.012-1.173.012-.674,0-1.338-.011-2.012-.023h-.346c-.8-.011-1.6-.023-2.38-.023l-.753.012h-.74c-1.573.045-3.133.068-4.705.079l-.775.012-2.745.034c-1.492.034-3,.034-4.5.034h-2.609c-2.9,0-6.005.023-9.092.194-.4.031-.78.051-1.168.072l-.552.03-.831.034-1.288.057-1.116.057c-.9.057-1.811.1-2.722.114l-1.355.023-.627.011-.686.012c-1.746.029-3.388.056-5.011.136-.706.035-1.412.069-2.107.092-1.436.057-3.213.136-4.888.262l-.73.068-.717.068-.684.069-.456.036c-.3.026-.606.051-.91.066l-.353.023-.664.051c-.939.071-1.835.139-2.732.223-2.68.268-4.982.43-7.243.512-2.392.091-4.761.1-7.392.114-1.845,0-3.645-.091-5.387-.194l-.376-.023-2.176-.113c-1.15-.069-2.3-.114-3.452-.149-.376-.011-.764-.011-1.14-.011-.6,0-1.2.011-1.8.023l-.747.011H80.3c-1.388,0-2.776-.033-4.175-.067l-.478-.014-1.668-.044h-.616l-.614-.011c-.845,0-1.688.022-2.543.044l-1.354.024c-.581,0-1.162-.012-1.731-.023l-.866-.011-1.128-.012-1.538.012H62.176c-.922,0-2.14,0-3.324-.069l-.467-.034c-.421-.022-.831-.045-1.241-.091l-.49-.045h-.31a4.661,4.661,0,0,0-.968-.1,28.118,28.118,0,0,0-3.034.2l-.388.046-.637.079-.627.069a16.921,16.921,0,0,0-3.185.947,1.651,1.651,0,0,1-.605.089,3.013,3.013,0,0,1-1.263-.3,2.363,2.363,0,0,0-.5.135l-.286.114c-.432.182-.875.353-1.318.523a6.442,6.442,0,0,0-.75.483l-.524.365-.513.376-.322.31a13,13,0,0,0-1.282,2.162c-.411,1.062-.73,2.168-1.038,3.251l-.171.627-.227.739a23.373,23.373,0,0,0-.719,2.772,10.3,10.3,0,0,0-.046,1.338,5.263,5.263,0,0,1,.068.571,4.189,4.189,0,0,1,.034.737,11.944,11.944,0,0,1,.114,1.312c.012.262.012.523,0,.785v.343a19.713,19.713,0,0,0,.046,1.973l.069.367a12.428,12.428,0,0,1,.2,1.738c.012.468.034.935.057,1.391.057,1.049.114,2.1.205,3.145.057.638.08,1.275.091,1.912.026.81.039,1.2.069,1.574l.034.41c.066,1.206.125,2.274.114,3.312,0,.365,0,.718-.011,1.082a21.347,21.347,0,0,0,.022,2.258l.034.366a27.082,27.082,0,0,1,.137,2.776c-.011.639.023,1.289.057,1.939l.023.387q.034.546.034,1.092l.011.433c0,.9.012,1.824.092,2.714a8.591,8.591,0,0,1,.136,1.648c-.011.252-.022.5-.045.75-.023.274-.046.559-.057.844-.012.125-.023.263-.023.4a7.065,7.065,0,0,0-.057,1.027l.011.569v.512c0,.331.023.662.057,1l.046.524c.027.387.046.652.046.909.011.592.011,1.013,0,1.434a11.227,11.227,0,0,1-.171,1.523q-.257,2.121-.41,4l-.023.445-.023.444a7.727,7.727,0,0,1-.045.887,16.71,16.71,0,0,1-.239,1.775l-.048.555-.044.518-.046.524-.022.526-.057.533a14.3,14.3,0,0,0,.091,2.718,21.843,21.843,0,0,1,.114,2.81l.011.468c.023.353.034.547.034.728a6.751,6.751,0,0,1-.034.681c-.011.208-.023.413-.023.618l-.011.444c-.011.319-.023.639-.011.947l.057,1.276.022.888.023.434c.012.58.023,1.15.046,1.731.091,1.891.125,3.782.159,5.877l.012.331c.011,1.024-.057,2.048-.126,3.05l-.034.4c-.045.7-.068,1.391-.091,2.086l-.023.673-.034.683c-.023.536-.034,1.06-.034,1.6,0,.911-.012,1.594-.057,2.288a19.251,19.251,0,0,0,0,2c.023.524.034,1.047.023,1.559l-.012.546-.011.548-.012.547c0,.558-.011,1.1-.034,1.651l-.005.343-.017,1.686c0,.229.01.448.021.676.024.373.024.634.024.9-.023,1.275-.057,2.573-.1,3.849-.046,1.219-.069,2.53-.069,4.114l.023.536.011.535a22.063,22.063,0,0,1,.023,2.583,26.359,26.359,0,0,0,.046,4.094,35.232,35.232,0,0,1,.159,3.643,29.454,29.454,0,0,0,.069,3.363c.1,1.105.2,2.425.216,3.78.011.456.011.911.011,1.378,0,.741,0,1.482.035,2.223l.068,1.458c.107,1.9.216,4.1.159,6.229-.022.855-.022,1.709-.022,2.575v1c.008.342,0,.683-.013,1.025l-.01.341-.023.341c-.034.65-.068,1.391-.045,2.11l.045,1,.023.388.009.34c.021.72.042,1.415,0,2.094l-.068,2.165-.034,1.231a25.349,25.349,0,0,0,.123,2.676l.036.539.034.478c.042.536.074,1.09.1,1.629.032.512.032.751.032.978-.011.421-.011.707,0,.981.046.763.023,1.559,0,2.265l-.011.478c0,.207,0,.435.011.652.013.3.022.526.011.772a12.776,12.776,0,0,1-.159,1.364,27.794,27.794,0,0,0-.1,3.925l.114,1.29.046.567c.023.239.023.477.023.715s.011.457.023.685a10.319,10.319,0,0,1,.045,1.183l.35.374a8.414,8.414,0,0,1,.588.872,4.158,4.158,0,0,1,.5.9,7.269,7.269,0,0,1,.492.755l.265.313a8.221,8.221,0,0,1,.681.863l.454.305.264.138a8.475,8.475,0,0,0,1.1.434l.3.047h0a4.964,4.964,0,0,0,.557.125,3.562,3.562,0,0,1,.616.034c.331.069.469.1.6.136.506-.023.918-.044,1.33-.044a5.365,5.365,0,0,1,.736.057l.548.057a9.185,9.185,0,0,1,1.945.159l.314.05a23.681,23.681,0,0,0,2.378.292,4.456,4.456,0,0,0,.56.023c.216,0,.444,0,.66.011a6.247,6.247,0,0,1,.907.114l.412.057c.4.068.809.114,1.209.148l.3-.011.371.091c.393-.034.768-.057,1.143-.057a5.008,5.008,0,0,1,.737.046l.331.034c.781-.1,1.429-.148,2.021-.171a7.818,7.818,0,0,1,.816.034l.307.034a19.326,19.326,0,0,1,2.6-.193c.375,0,.761.022,1.136.056l.446.023.466.034c.524.012.843.023,1.173.057.388.035.8.046,1.2.046h.455l.755-.068c.614-.057,1.137-.1,1.672-.1.238,0,.488.012.738.034.945.091,1.766.137,2.507.16.23-.011.457-.023.673-.023.478,0,.967.023,1.444.068.583.046,1.175.069,2.008.069l.489.011c.355-.023.662-.023.981-.023h0c.237,0,.475,0,.712.023.173,0,.344.012.514.023l.774.057.525.034c1.037.046,2.073.1,3.1.171q1.588.1,3.178.239c.787.057,1.608.091,2.6.091h.6l.458-.034.444-.034c.758-.053,1.166-.081,1.582-.091.467-.011.934-.011,1.4-.011h.866c.728-.035,1.456-.046,2.183-.057.849-.046,1.669-.092,2.5-.149.331-.034.673-.079,1.015-.125a11.973,11.973,0,0,1,1.376-.137c.421-.022.8-.022,1.184-.022q.956,0,1.912.034c.753.023,1.254.034,1.744.034h.331c.524-.023,1.048-.023,1.583-.023.467,0,.934,0,1.4.012h2.119l.435-.035c.809-.045,1.584-.091,2.359-.159,1.036-.114,2.06-.148,2.834-.16.424-.034.858-.091,1.279-.148l.388-.057c.433-.068.877-.125,1.309-.171,1.053-.1,2.107-.113,3.127-.125l.743-.011c.9-.046,1.812-.057,2.711-.057.672,0,1.344.011,2.005.023H134.5l.66.011c.411,0,.833,0,1.243-.011s.8-.046,1.185-.057l.6-.012.9-.057c.888-.068,1.719-.125,2.538-.125l1.5.011h1.219l.6-.011.616-.023c.82-.045,1.617-.079,2.414-.091l.606-.046.546-.034c.387-.022.774-.034,1.16-.034.558,0,1.058.023,1.559.057l.353.023c1.47.114,2.542.148,3.522.148l1.015-.023.729-.023.661-.034c1.093-.057,2.107-.091,3.143-.114,1.05-.045,2.008-.091,2.943-.216.831-.126,1.822-.262,2.823-.342,1.4-.125,2.835-.136,4.213-.136.672,0,1.345,0,2.017-.023l1-.046c.512-.011,1.025-.034,1.538-.057l.626-.034c.661-.034,1.3-.057,1.936-.057h.364c.375.011.752.011,1.117.011s.752,0,1.117-.011l.411-.023.41-.022.388-.035c.876-.057,1.65-.1,2.412-.1a12.782,12.782,0,0,1,1.319.057c1.606.151,3.217.228,4.787.228h.695c.8-.035,1.595-.035,2.4-.035h1.253c.49,0,.98,0,1.459-.011.558-.034,1.1-.046,1.651-.046.831,0,1.65.035,2.526.114,1.3.1,2.585.262,3.837.478a18.151,18.151,0,0,0,2.476.286h.331c.74,0,1.286.011,1.833.045.911.069,1.937.1,3.157.1h.729c.821-.046,1.652-.057,2.472-.057h.661q.718-.035,1.469-.034a27.63,27.63,0,0,1,2.857.147c.768.092,1.528.183,2.288.285.82.125,1.641.228,2.461.319s1.665.137,2.577.183l.307.022q.975.034,1.948.1c1.424.114,2.792.216,4.137.216l1.39-.022.354-.012.66-.011c.479-.023.968-.046,1.458-.046.181,0,.352,0,.533.012.274.011.547.034.82.056l.947.058.6.034.615.034.593.023c.547.034,1.094.068,1.641.068l.787-.011,1.041,0,1.043.006.523.011.821.012c.572.012,1.095.023,1.618.023h.547c.342-.026.677-.032,1.009-.039l.336-.007h.443l.764-.011c.89-.057,1.789-.08,2.666-.091l.558-.012h.569c.3-.011.638-.011.991-.011,1.127,0,2.288.045,3.461.148.8.068,1.641.091,2.679.091.4,0,.8,0,1.186-.011.558-.035,1.07-.046,1.582-.046.41,0,.819.023,1.229.046.616.034,1.231.045,1.836.045l1.333-.011h.66l.64-.046c.661-.057,1.275-.091,1.9-.091l.547-.023a18.144,18.144,0,0,0,1.936.08h.342c.344-.023.674-.046,1.016-.08l.467-.034c.59-.037,1.09-.068,1.581-.068.261,0,.534.011.8.034.331.011.661.045.991.08.729.079,1.391.136,2.041.159l.63-.068c.387-.046.785-.08,1.172-.1.3-.011.58-.011.876-.011h.843l.808.011.674-.034,1.014-.045a10.615,10.615,0,0,0,1.2-.16l.58-.091c1.435-.228,2.608-.4,3.69-.513.523-.057,1.046-.091,1.57-.114.855-.045,1.528-.091,2.178-.171a37.908,37.908,0,0,1,3.825-.284c.468-.035.925-.08,1.392-.137l.378-.069c.516-.027.81-.056,1.111-.056.571-.034,1.128-.034,1.686-.034h1l.672.011c.732-.046,1.371-.091,1.941-.171.808-.1,1.571-.182,2.333-.228a15.27,15.27,0,0,0,2.146-.217c.422-.091.821-.194,1.22-.3a3.783,3.783,0,0,0,.451-.2l.344-.229a2.693,2.693,0,0,0,.345-.253l.265-.322a9.97,9.97,0,0,0,.731-.937l.118-.418c-.022-.42-.067-.831-.125-1.253a2.748,2.748,0,0,1,1.116-2.6l.115-.646.034-.309.034-.307c.023-.446.069-.889.125-1.333l.069-.719.052-.648.062-.776c.034-.581.068-1.15.136-1.73.034-.273.091-.545.148-.806l.125-.627a21.55,21.55,0,0,0,.206-3.686l-.034-.48-.034-.479-.092-1.366c-.025-.445-.032-.884-.038-1.326l-.007-.439v-1.286c-.034-.584-.08-1.176-.137-1.769l-.068-.99c-.08-1.082-.069-2.186-.057-3.256l.011-.478c.012-1.185-.011-2.37-.034-3.555s-.045-2.369-.034-3.565c.011-.866,0-1.732-.011-2.6l-.012-1.31c-.011-.786,0-1.583.012-2.369l.022-1.207c.023-2.234,0-4.546-.057-7.064-.034-.821-.057-1.618-.068-2.438l-.011-.8-.023-1.208c-.034-.82-.057-1.629-.046-2.448.023-2.655,0-5.07-.068-7.372-.065-2.113-.041-4.381.08-7.585.057-1.241.091-2.483.114-3.725.011-.41.011-.832.011-1.243l.011-.5c.017-.789.031-1.459.069-2.121.12-2.222.15-4.559.091-7.145a40.681,40.681,0,0,1-.034-5.146c.148-1.931.262-3.539.262-5.2.011-1.822,0-3.645-.012-5.468-.012-1.567-.023-2.869-.023-4.181,0-1.058.092-2.174.171-3.073l.046-.547.068-.9.069-.865.068-.9.08-1c.1-1.561.159-3.191.205-4.615l.034-.751.023-.821.023-.82.034-.831c.045-1.014.079-2.04.114-3.065.045-1.378.091-2.734.159-4.078.068-1.287.137-2.574.217-3.861a32.232,32.232,0,0,0,.045-3.3c-.023-.444-.057-.9-.091-1.352l-.046-.643-.022-.432c-.069-.892-.137-1.779-.183-2.666a34.384,34.384,0,0,1,.068-3.653l.092-1.3c.08-1.368.125-2.838.137-4.388v-.581l.011-.558.011-.387c.023-.809.034-1.619.023-2.428-.045-.731-.125-1.449-.205-2.167-.057-.456-.1-.9-.148-1.355-.112-1.165-.147-2.341-.181-3.474l-.013-.591-.034-.866-.023-.854v-.341l-.011-.354c-.045-.73-.068-1.47-.09-2.2-.024-.354-.047-.639-.081-.913l-.081-.889c-.056-.749-.067-1.341-.067-1.932-.046-.641-.137-1.268-.24-1.952l-.057-.365c-.092-.312-.16-.518-.24-.735l.036-.352.023-.331c-.126-1.007-.228-2.021-.3-3.034l-.092-.37a19.188,19.188,0,0,0-.353-2.584L320,46.724c-.148-.8-.273-1.449-.456-2.1a4.177,4.177,0,0,0-.161-.4l-.369-.451a3.861,3.861,0,0,1-.5-.657,8.7,8.7,0,0,0-1.03-1.191l-.468-.411.115.288a1.808,1.808,0,0,0-.526-.641l-.58-.524a4.853,4.853,0,0,0-.5-.345,6.57,6.57,0,0,0-.667-.231l-.377-.091-.2,0a2.57,2.57,0,0,1-.73-.07q-.428-.12-.822-.206l-.4-.057-.314-.048-.361-.021h-.537l-.352.012-.457.011-.321.023a8.181,8.181,0,0,0-1.057-.046l-.8.012h-.82l-.524.011c-.512,0-1.013-.011-1.525-.034-.387-.034-.741-.046-1.083-.046l-.341-.011c-.32,0-.64,0-.948.011l-.513.035c-.238.011-.466.011-.7.011-.182,0-.375-.012-.557-.023-.524-.011-1.059-.068-1.593-.125l-.593-.068c-.365-.035-.73-.069-1.083-.092-.49-.034-.97-.057-1.437-.057Z"/>
          </g>
          <g>
            <path class="cls-5" d="M92.743,105.1c.014-.042.027-.085.041-.127l-.041.127Z"/>
            <path class="cls-5" d="M182.819,41.98c-.469.027-.934.081-1.4.131l-.7.072c-1.088.113-2.171.271-3.255.429l-.908.131c-.469.072-.943.131-1.408.194-1.125.145-2.28.3-3.423.56-.415.1-.826.239-1.232.375l-.3.1c-.655.226-1.318.4-1.982.574l-.163.04c-.609.163-1.219.312-1.833.456-.9.221-1.792.438-2.677.687-1.233.356-2.5.641-3.73.921-1.458.334-2.971.677-4.429,1.128-.7.222-1.4.389-2.1.56-.42.1-.835.2-1.251.312-.546.149-1.083.316-1.616.483-.411.126-.826.217-1.246.3l-.407.086a45.393,45.393,0,0,0-5.282,1.608c-.475.162-.944.325-1.414.483l-1.67.569-2.253.767-.75.253a32.387,32.387,0,0,0-3.246,1.215l-.741.334a26.1,26.1,0,0,0-3.779,1.973c-.208.14-.42.275-.628.411-.338.212-.672.424-.993.659a17.248,17.248,0,0,0-1.648,1.431c-.582.488-1.124.894-1.666,1.3-.393.293-.786.587-1.17.889a17.212,17.212,0,0,1-1.7,1.138c-.515.316-1.047.641-1.544,1.016L119.7,64c-.388.289-.772.578-1.156.871-.226.177-.46.344-.691.515-.411.3-.821.6-1.21.935a24.8,24.8,0,0,0-2.42,2.343c-.551.614-1.07,1.152-1.594,1.644-.487.406-.993.794-1.5,1.183a17.221,17.221,0,0,0-3.676,3.436,27.9,27.9,0,0,0-2.456,4.465c-.235.5-.47,1-.718,1.495-.194.388-.42.758-.646,1.133-.212.343-.424.691-.609,1.052-.415.8-.754,1.395-1.093,1.946-.492.781-.961,1.567-1.436,2.357-.338.56-.672,1.115-1.011,1.675-.582.881-1.147,1.748-1.653,2.651a19.29,19.29,0,0,0-1.268,2.912c-.154.411-.3.826-.443,1.242l.009-.018-.049.144-.317.93-.293.876c-.343.935-.768,1.851-1.178,2.741l-.317.682a16.59,16.59,0,0,0-.857,2.582c-.1.389-.213.773-.33,1.156l.072-.14a10.374,10.374,0,0,0-.551,2.208c-.067.447-.113.894-.153,1.346l-.086.248c-.059.158-.117.321-.176.483h-.005l-.022.068.013-.027c-.031.086-.058.176-.09.262l.1-.23a15.428,15.428,0,0,0-.7,2.212c-.144.664-.28,1.327-.4,2-.239,1.336-.46,2.673-.65,4.018-.126.912-.289,1.82-.451,2.727a39.706,39.706,0,0,0-.669,4.99l.032-.285c-.027.285-.041.574-.054.863l-.023.388c-.05.447-.113.889-.18,1.332a21.5,21.5,0,0,0-.181,2.212c-.014.28-.027.556-.045.836l.036-.3c-.027.452-.041.9-.059,1.346-.009.347-.018.7-.036,1.047l-.041.452a36.107,36.107,0,0,0-.248,4.379c.023.863.014,1.721,0,2.583-.009.835-.018,1.666,0,2.5l.009.343a22.189,22.189,0,0,0,.176,2.664q.251,1.673.438,3.354a41.787,41.787,0,0,0,.9,4.714c.158.673.316,1.35.456,2.028.231,1.124.488,2.334.827,3.553.37,1.337.8,2.646,1.241,3.983.768,2.316,1.553,4.632,2.339,6.939l.244.727c.384,1.134.763,2.244,1.142,3.36.4,1.174.849,2.348,1.368,3.594.628,1.5,1.192,2.849,1.888,4.208a14.8,14.8,0,0,0,.812,1.327l.154.231c.393.6.763,1.2,1.129,1.81l.289.5c.257.438.519.88.794,1.309.344.533.723,1.043,1.1,1.554l.194.257.5.7c.285.4.569.8.872,1.188.271.352.555.686.84,1.025.212.244.42.492.627.745.542.663,1.039,1.386,1.517,2.086.316.456.628.912.958,1.354a36.57,36.57,0,0,0,2.7,3.138l.474.511c.438.519.858,1.052,1.278,1.584.74.935,1.5,1.906,2.348,2.782a18.769,18.769,0,0,0,1.869,1.639l.185.149c.7.56,1.391,1.151,2.077,1.738l.167.145c.93.8,1.951,1.512,2.939,2.208.429.3.858.6,1.278.907l.813.6c.488.366.98.732,1.485,1.075.745.5,1.5.98,2.258,1.463l.429.275c.411.285.813.573,1.215.867.447.33.9.655,1.359.971l.149.1a15.969,15.969,0,0,0,2.149,1.3c.366.172.749.312,1.129.451l.469.172a11.691,11.691,0,0,1,1.824.935c.353.207.7.415,1.075.6a17.476,17.476,0,0,0,2.027.822c.452.163.9.325,1.341.506a31.83,31.83,0,0,0,4.078,1.472c.663.176,1.332.311,2,.442.569.113,1.134.226,1.7.361.528.131,1.052.262,1.576.4l1.449.361c.51.126,1.012.244,1.517.352a12.567,12.567,0,0,0,1.833.217,23.989,23.989,0,0,1,3.107.546l.641.149c.912.208,1.856.425,2.768.723a11.313,11.313,0,0,0,2.822.727c.492.045.957.076,1.436.076.18,0,.365,0,.551-.018s.374-.018.559-.018c.285.059.565.145.849.226q.258.081.529.149a9.857,9.857,0,0,0,2,.221l.131,0c.407.049.818.122,1.224.2a16.122,16.122,0,0,0,2.759.257h.009a9.025,9.025,0,0,0,1.341-.122c.207-.031.411-.063.614-.085a10.465,10.465,0,0,1,1.133-.041c.289,0,.583,0,.872-.023.46-.031.921-.1,1.377-.18.216-.032.433-.068.645-.1a13.167,13.167,0,0,1,1.793-.1h.311a34.224,34.224,0,0,0,3.807-.253c.654-.072,1.309-.167,1.959-.262.578-.085,1.156-.171,1.739-.243a31.315,31.315,0,0,0,4.56-.894c.736-.195,1.467-.416,2.194-.637.705-.212,1.414-.425,2.123-.619l.772-.207c1.1-.3,2.2-.6,3.3-.885.678-.167,1.35-.357,2.023-.542,1.03-.285,2.095-.583,3.161-.817a24.693,24.693,0,0,0,3.494-.845c1.206-.406,2.394-.934,3.545-1.445a82.922,82.922,0,0,0,8.285-4.2c.393-.231.777-.465,1.161-.7.7-.425,1.4-.854,2.131-1.242.42-.226.844-.447,1.269-.668.686-.361,1.377-.718,2.05-1.106.912-.524,1.8-1.093,2.686-1.657l.334-.217a28.119,28.119,0,0,0,3.3-2.393c1.508-1.287,2.962-2.687,4.366-4.037.755-.727,1.513-1.454,2.276-2.167.3-.28.592-.573.881-.867l.438-.433c.307-.3.627-.592.943-.881.235-.212.47-.424.7-.641.673-.637,1.3-1.328,1.906-2,.261-.289.523-.583.794-.867.953-1.03,1.933-2.05,2.912-3.052.38-.389.777-.759,1.179-1.129.56-.52,1.142-1.057,1.662-1.639l1.011-1.161c.515-.587,1.025-1.169,1.544-1.747.447-.5.867-1.016,1.292-1.535.32-.393.641-.786.975-1.165a55.294,55.294,0,0,0,4.212-5.829c-.207.275-.4.564-.591.849a61.87,61.87,0,0,0,5.084-9.108c.452-.979.849-2.013,1.228-3.016l.2-.524c.619-1.6,1.1-2.912,1.508-4.135.466-1.328.9-2.66,1.328-4,.275-.872.5-1.779.7-2.655.1-.384.185-.763.28-1.138.118-.465.231-.926.343-1.391.208-.858.42-1.72.655-2.569a25.186,25.186,0,0,0,.872-4.1l.14-1.228a80.388,80.388,0,0,0,.641-8.435c0-.627-.014-1.255-.032-1.883-.018-.722-.041-1.449-.032-2.171.009-.759.009-1.518.009-2.276V129c.005-.921-.036-1.847-.081-2.768l-.027-.551a9.067,9.067,0,0,0-.108-.93c-.027-.172-.054-.343-.077-.51a21.913,21.913,0,0,0-.438-2.4c-.1-.655-.181-1.377-.244-2.267a24.44,24.44,0,0,0-.614-4.2c-.284-1.2-.573-2.406-.889-3.6-.122-.456-.258-.907-.393-1.359-.185-.627-.37-1.26-.528-1.9-.145-.821-.289-1.643-.47-2.465-.2-.926-.47-1.833-.7-2.6-.321-1.048-.673-2.091-1.025-3.129-.176-.533-.357-1.061-.533-1.594-.149-.452-.258-.921-.37-1.386-.064-.271-.127-.542-.2-.809a14.184,14.184,0,0,0-.628-1.724l-.207-.511-.176-.456c-.24-.627-.484-1.25-.759-1.86-.357-.776-.741-1.53-1.124-2.289l-.064-.122c-.266-.573-.51-1.156-.749-1.738a30.045,30.045,0,0,0-1.35-2.791,20.82,20.82,0,0,0-1.594-2.447l-.2-.284c-.623-.872-1.328-1.712-2-2.52l-.519-.623c-.434-.519-.826-1.066-1.224-1.612-.442-.614-.9-1.251-1.4-1.833-1.111-1.287-2.321-2.524-3.486-3.721-.93-.948-1.856-1.9-2.745-2.88-.637-.7-1.319-1.377-1.978-2.028l-.79-.785-.6-.61c-.713-.731-1.454-1.485-2.248-2.172-.334-.293-.687-.573-1.039-.848l-.582-.466a22.021,22.021,0,0,1-1.635-1.5l-.275-.27a12.113,12.113,0,0,0-1.255-1.143c-.7-.533-1.45-1.011-2.177-1.476l-.289-.181c-.474-.32-.948-.632-1.427-.944-.745-.5-1.494-.984-2.271-1.444-.216-.127-.433-.253-.65-.375-.311-.176-.618-.348-.925-.533-.366-.262-.723-.533-1.084-.8-.528-.4-1.061-.794-1.608-1.169-1.417-.984-2.826-1.874-4.181-2.651-.681-.388-1.413-.722-2.122-1.043-.451-.2-.9-.41-1.345-.627q-1.017-.508-2.019-1.025l-1.241-.632a17.832,17.832,0,0,0-3.883-1.314c-.438-.1-.867-.23-1.3-.361a13.314,13.314,0,0,0-2.321-.547l-.659-.067c-.985-.109-2-.217-3-.4a37.842,37.842,0,0,0-4.082-.488l.023.005c-.569-.064-1.138-.131-1.707-.2-.627-.072-1.25-.144-1.878-.2l-.89-.081c-1.363-.122-2.727-.248-4.095-.33-.736-.04-1.476-.063-2.212-.081-.659-.018-1.314-.036-1.969-.072-.469-.023-.935-.05-1.4-.077-.885-.054-1.77-.1-2.655-.131-.312,0-.623,0-.935,0h-.654l-.7,0c-.5,0-1-.009-1.494-.036-.389-.023-.777-.041-1.165-.041-.181,0-.357,0-.538.014Zm-69.38,40.542h.005s0,0,.009-.005c1.1-1.6,2.293-3.084,3.21-4.194l.266-.325c.357-.429.714-.863,1.084-1.278A21.193,21.193,0,0,1,120.14,74.7c.605-.606,1.178-1.247,1.747-1.879l.334-.366c.637-.7,1.219-1.435,1.756-2.126a23.545,23.545,0,0,1,3.956-3.748,18.092,18.092,0,0,1,2.429-1.558c1.68-.943,3.422-1.923,5.278-2.745.47-.2.935-.42,1.4-.636.659-.3,1.318-.6,1.987-.885.5-.2,1-.393,1.5-.583.659-.253,1.318-.5,1.968-.786a13.29,13.29,0,0,1,1.513-.528l.4-.126q.42-.129.84-.271c.619-.2,1.26-.416,1.905-.56a25.525,25.525,0,0,1,4.042-.655c.307-.072.618-.144.934-.207.641-.131,1.273-.325,1.892-.511.479-.144.962-.289,1.445-.411.217-.049.433-.1.655-.144.307-.068.614-.131.921-.217.352-.09.7-.2,1.047-.316.262-.086.524-.171.786-.248.772-.226,1.567-.406,2.33-.578.578-.131,1.156-.262,1.729-.415.447-.118.894-.217,1.341-.321.569-.126,1.138-.257,1.7-.42,1.124-.316,2.257-.582,3.314-.826.926-.208,1.923-.479,3.138-.854l.709-.221c.411-.135.826-.266,1.246-.384.713-.108,1.431-.189,2.149-.271.538-.058,1.07-.14,1.6-.221s1.066-.167,1.6-.226l1.034-.117c.686-.081,1.377-.163,2.068-.221.348-.027.691-.036,1.034-.036h.005c.487,0,.979.018,1.471.04l.208.009c.33.018.659.023.989.023.3,0,.592,0,.89-.009.356-.005.695-.009,1.038-.009.826,0,1.662.059,2.492.113l.56.036c.985.063,1.969.1,2.958.126.9.032,1.81.059,2.713.109l.709.067c.894.082,1.788.167,2.687.235.447.036.894.1,1.345.163l.569.072c.659.081,1.332.131,2,.176.975.09,1.928.217,2.908.384a31.978,31.978,0,0,0,3.2.442,14.772,14.772,0,0,1,3.093.637c.465.149.935.275,1.4.4.348.095.695.189,1.039.289.456.194.9.42,1.345.65l.388.194,1.233.628c.533.271,1.066.542,1.608.808.392.2.79.384,1.192.564.528.244,1.056.488,1.571.759.727.388,1.436.849,2.122,1.3l.217.14c.533.365,1.047.749,1.566,1.138.5.37.994.745,1.5,1.1.813.56,1.671,1.065,2.5,1.553.592.348,1.183.7,1.761,1.066.3.2.61.4.912.6.619.42,1.238.826,1.861,1.232a13.264,13.264,0,0,1,1.842,1.612,24,24,0,0,0,2.285,2.046c.722.564,1.381,1.119,2.009,1.706.438.411.853.845,1.269,1.278.257.267.514.533.776.8s.51.5.768.749q.474.447.93.912c-.235-.094-.465-.185-.695-.271l-.289-.112a9.711,9.711,0,0,0-1.77-.479,4.744,4.744,0,0,0-.763-.054c-.312,0-.628.022-.935.04l-.239.014a14,14,0,0,0-1.675.185c-.276.05-.551.113-.827.176-.248.059-.5.118-.754.163-.695.126-1.359.3-2.144.514a13.114,13.114,0,0,0-3.193,1.531,13.575,13.575,0,0,0-1.223.772,9.277,9.277,0,0,0-1.111,1.034l-.122.127c-.4.415-.777.848-1.151,1.282l-.56.646a8.224,8.224,0,0,0-1.31,2.375l-.113.261c-.153.366-.311.732-.474,1.093-.085.2-.185.388-.284.583-.113.221-.226.442-.325.668a9.861,9.861,0,0,0-.881,2.9,27.188,27.188,0,0,0-.1,3.151,6.059,6.059,0,0,0,.1.813c.018.131.041.257.059.388.068.515.1,1.025.131,1.544.008.134.017.263.027.388.331.886.677,1.767.966,2.669.158.492.3.994.492,1.481.122.321.231.659.371.98.225.343.5.664.709,1.025a7.964,7.964,0,0,1,.478.939c.068.163.131.33.2.492a7.232,7.232,0,0,0,.393.641c.118.168.24.339.343.515a5,5,0,0,1,.33.664c.018.05.036.1.05.153a.686.686,0,0,1,.072.109c.068.113.131.226.19.343.045.063.1.117.14.185a2.413,2.413,0,0,1,.32.718c.023.072.05.154.081.23a6.216,6.216,0,0,1,.312.56,2.521,2.521,0,0,1,.162.632,3.263,3.263,0,0,0,.186.474c-.041-.072-.077-.14-.118-.212q.115.21.217.42a2.353,2.353,0,0,1,.257.542c.012.045.023.087.032.128l.266.639c.1.258.212.511.321.768.28.632.524,1.278.763,1.928l.162.443c.353.939.741,1.864,1.134,2.785.126.289.262.578.393.867a16.189,16.189,0,0,1,.727,1.734l.067.307c.041.208.086.416.136.628.108.447.239.889.375,1.332l.09.311a36.727,36.727,0,0,1,.763,3.915c.054.406.072.817.095,1.228.013.258.027.515.045.772.04.551.063,1.111.072,1.666a29.943,29.943,0,0,1-.618,4.786c-.095.5-.172,1-.249,1.5l-.108.682c-.118.691-.289,1.391-.443,1.987-.126.438-.271.871-.411,1.3-.216.65-.438,1.318-.6,2-.081.347-.145.7-.2,1.043l-.077.42c-.086.474-.2.943-.316,1.413-.33,1.138-.732,2.3-1.224,3.562-.325.822-.614,1.657-.907,2.493l-.411,1.147c-.339.943-.718,1.864-1.1,2.785l-.262.628a34.273,34.273,0,0,0-1.341,4.271c-.217.736-.474,1.459-.732,2.177l-.32.894c-.181.514-.33,1.038-.479,1.562-.126.438-.253.876-.4,1.309-.519,1.545-1.1,3.1-1.662,4.6l-.221.582c-.149.4-.3.809-.443,1.215s-.293.813-.447,1.219c-.234.632-.478,1.26-.722,1.883l-.461,1.192c-.361.925-.722,1.842-1.088,2.763l-.244.623c-.176.443-.352.885-.532,1.323a34.938,34.938,0,0,0-1.156-3.666l-.068-.181-.068-.176a43.689,43.689,0,0,1-1.521-4.958c-.176-.713-.343-1.431-.51-2.149l-.122-.514c-.181-.786-.429-1.576-.669-2.339l-.176-.556-.329-1.065c-.434-1.414-.867-2.822-1.283-4.245-.23-.781-.469-1.557-.713-2.338-.366-1.188-.736-2.375-1.061-3.576-.348-1.3-.781-2.588-1.2-3.838-.2-.587-.4-1.179-.587-1.77-.312-.953-.6-1.91-.881-2.872-.158-.542-.347-1.066-.537-1.594-.135-.384-.275-.767-.4-1.156l-.1-.325c-.262-.826-.523-1.652-.812-2.47-.131-.374-.271-.749-.411-1.124-.194-.519-.389-1.043-.569-1.571-.393-1.165-.732-2.371-1.061-3.536-.2-.727-.411-1.449-.628-2.171l-.1-.339c-.262-.867-.523-1.729-.826-2.578-.343-.967-.686-1.933-.989-2.913-.56-1.806-1.1-3.576-1.558-5.355-.189-.718-.406-1.435-.623-2.149l-.225-.736c-.136-.442-.262-.885-.389-1.332-.122-.424-.248-.849-.374-1.273-.159-.528-.348-1.048-.533-1.562-.127-.357-.253-.714-.375-1.07-.28-.831-.483-1.707-.664-2.479a20.614,20.614,0,0,0-.573-2.077c-.262-.745-.492-1.4-.673-2.068-.172-.619-.3-1.246-.429-1.874l-.059-.285a10.2,10.2,0,0,0-.681-1.937l-.068-.158c-.108-.3-.2-.609-.3-.916-.1-.33-.207-.664-.329-.993l-.082-.222c-.144-.4-.284-.79-.447-1.183-.054-.135-.112-.266-.176-.4l-.135-.3c-.095-.252-.194-.51-.294-.763a3.8,3.8,0,0,0,.646.046,5.754,5.754,0,0,0,1.048-.091,5.768,5.768,0,0,1,.839-.049,6.373,6.373,0,0,0,.714-.037c.117-.013.23-.031.343-.054.135-.022.271-.045.411-.063.167-.014.334-.023.5-.032l.379-.027c.316-.027.637-.072.958-.122l.415-.063a7.667,7.667,0,0,0,3.152-1.192,1.585,1.585,0,0,0,.14-.09c.131-.068.257-.145.383-.226a2.17,2.17,0,0,0,.93-1.494,3.16,3.16,0,0,0-.627-2.046,3.4,3.4,0,0,0-1.91-1.327l-.244-.077a6.75,6.75,0,0,0-1.043-.284c-.122-.023-.248-.037-.375-.05a4.049,4.049,0,0,1-.469-.072l-.167-.032a4.854,4.854,0,0,0-.754-.122c-.353-.018-.7-.018-1.057-.018-.275-.013-.546-.045-.817-.077l-.5-.054-.786-.054-.786-.054c-.632-.05-1.3-.1-1.955-.1-.207,0-.411,0-.614.013-.3.019-.6.05-.889.082-.434.04-.863.086-1.3.09l-.6-.027c-.47-.027-.944-.054-1.418-.063h0a11.145,11.145,0,0,0-1.129.072c-.271.023-.542.05-.808.059-.149.009-.3.013-.447.013q-.306,0-.61-.013c-.235-.005-.47-.009-.7-.009-.275,0-.551.013-.826.027-.23.009-.465.018-.695.022-.276-.013-.551-.036-.827-.058-.46-.041-.925-.077-1.386-.082h-.009c-.379,0-.7.018-1.016.032-.293.018-.591.032-.889.032l-.14-.005c-.393-.014-.791-.027-1.188-.027-.189,0-.379,0-.564.009-.212.014-.425.027-.637.045-.311.027-.623.05-.939.054-.564-.027-1.133-.054-1.7-.054h-.226l-.632.027c-.3.014-.591.027-.885.027l-.311-.013c-.379-.018-.759-.036-1.138-.036-.144,0-.289,0-.433.009-.262.013-.52.036-.782.063-.316.027-.632.059-.943.063l-.533-.05c-.312-.027-.619-.058-.93-.076-.5-.027-.989-.032-1.486-.036l-.492-.005c-.442,0-.885.014-1.323.027-.361.018-.722.032-1.079.032l-.162-.005-.353-.018c-.6-.04-1.2-.077-1.8-.077l-.361,0-.537.009-.529,0a5.693,5.693,0,0,0-1.264.213,10.377,10.377,0,0,1-1.187.072l-.267,0a7.709,7.709,0,0,0-.844.1c-.257.036-.515.077-.772.09a6.485,6.485,0,0,0-3.725,1.264,9.51,9.51,0,0,0-.786.7,2.474,2.474,0,0,0-.587,1.445c-.009.072-.022.14-.036.212a2.069,2.069,0,0,0-.041.217,3.039,3.039,0,0,0,.326,1.824,3.948,3.948,0,0,0,1.006,1.341,6.1,6.1,0,0,0,.885.56l.1.059a7.513,7.513,0,0,0,1.671.623,11.942,11.942,0,0,0,1.982.433l.533.063a10.593,10.593,0,0,0,1.418.118c.1,0,.2,0,.3-.009.379-.018.763-.023,1.142-.027.325-.005.65-.005.98-.023l.126,0a4.974,4.974,0,0,0,.935-.086c.14-.032.28-.054.42-.072a1.311,1.311,0,0,0,.1.234,7.118,7.118,0,0,1,.3.7c.28.763.546,1.526.79,2.3.275.889.56,1.783.871,2.664.221.614.465,1.223.7,1.833l.307.776q.534,1.368,1.056,2.746c1.016,2.645,2.064,5.386,3.215,8.028.908,2.081,1.738,4.235,2.542,6.316.388,1,.777,2.01,1.169,3.007q.481,1.227.989,2.439c.149.347.3.695.456,1.038.2.438.393.872.569,1.314.312.763.628,1.526.971,2.276l.194.411a13.932,13.932,0,0,1,.56,1.314,3.452,3.452,0,0,0-.429.907l-.208.4c-.126.235-.257.47-.361.714a11.806,11.806,0,0,0-.533,1.53c-.108.411-.216.822-.338,1.229-.19.632-.434,1.255-.673,1.873-.108.28-.217.56-.321.84l-.189.528c-.258.7-.51,1.4-.79,2.091-.127.307-.253.605-.375.908l-.483,1.1c-.515,1.152-1.043,2.339-1.49,3.54-.249.668-.447,1.35-.65,2.032-.24.8-.484,1.63-.809,2.425l.172-.339c-.239.506-.447,1.021-.659,1.535l-.375.9-.108.253c-.307.709-.614,1.422-.913,2.136l-.058.122c-.632,1.454-1.283,2.957-1.824,4.47l-.3.849c-.176.514-.353,1.025-.551,1.535-.262.691-.483,1.409-.691,2.1l-.172.551c-.848,2.773-1.923,5.739-3.282,9.076-.2.487-.407.98-.6,1.472l.063-.118c-.149.334-.28.678-.415,1.016-.19-.645-.353-1.3-.5-1.91-.117-.487-.275-.966-.429-1.449-.144-.434-.289-.872-.4-1.319-.1-.406-.185-.821-.266-1.237-.077-.392-.149-.785-.249-1.174a16.127,16.127,0,0,0-.568-1.747l-.222-.605a24.1,24.1,0,0,1-.659-2.348l-.086-.4c-.049-.249-.1-.492-.167-.736-.1-.371-.248-.736-.388-1.1l-.113-.285c-.343-.871-.632-1.752-.93-2.637-.312-.934-.673-1.774-1.016-2.587l-.059-.135c-.2-.511-.365-1.039-.528-1.563l-.172-.555c-.289-.908-.663-1.793-1.029-2.65l-.163-.393a17.6,17.6,0,0,1-1.065-3.31,18.293,18.293,0,0,0-.962-2.962l-.248-.65-.307-.795a27.55,27.55,0,0,1-1.03-2.971,13.44,13.44,0,0,0-.65-1.946c-.117-.28-.244-.564-.37-.844l-.127-.28a2.048,2.048,0,0,0-.14-.334c-.149-.366-.28-.7-.392-1.043-.181-.538-.339-1.079-.493-1.626-.185-.632-.37-1.264-.587-1.887l-.149-.42c-.167-.465-.329-.93-.469-1.4s-.239-.939-.343-1.417l-.068-.317a16.493,16.493,0,0,0-1.26-3.314c-.122-.262-.244-.528-.365-.794-.163-.434-.308-.867-.452-1.305l-.14-.411c-.289-.858-.659-1.693-1.016-2.506a11.917,11.917,0,0,1-.474-1.355,12.7,12.7,0,0,1-.293-1.426l-.041-.226a25.638,25.638,0,0,0-.686-2.723l-.249-.858c-.135-.5-.3-.98-.46-1.467-.222-.668-.447-1.359-.61-2.064-.122-.514-.244-1.029-.4-1.539a12.324,12.324,0,0,0-.61-1.522c-.113-.321-.194-.632-.275-.944-.041-.167-.081-.329-.131-.5a9.928,9.928,0,0,0-.659-1.581l-.226-.465-.212-.451c-.136-.3-.276-.605-.425-.9-.095-.19-.194-.37-.293-.551-.136-.244-.271-.488-.389-.741l-.185-.46-.243-.6.081.244-.154-.429a5.217,5.217,0,0,1-.235-.812c-.045-.195-.1-.389-.162-.578-.05-.163-.1-.321-.14-.484-.068-.27-.149-.537-.23-.808-.136-.46-.271-.921-.362-1.39a10.838,10.838,0,0,1,.041-1.924l.023-.144.009,0c.176-.226.311-.393.46-.551.109-.058.226-.108.339-.162s.235-.1.348-.163a4.936,4.936,0,0,0,.776-.564,2.888,2.888,0,0,1,.587-.194,3.971,3.971,0,0,0,.668-.24,3.225,3.225,0,0,1,.624-.153c.158-.023.311-.063.46-.1l.266-.067a7.653,7.653,0,0,0,.845-.149l.3-.068c.167-.041.338-.077.5-.131a4.674,4.674,0,0,0,1.449-.862,3,3,0,0,0,.845-1.441l.117-.239c.09-.172.176-.343.253-.528a3.364,3.364,0,0,0,.072-2.023,4.411,4.411,0,0,0-1.237-1.982,7.066,7.066,0,0,0-1.382-1.161,9.068,9.068,0,0,0-1.937-.88,8.294,8.294,0,0,0-2.406-.235c-.709,0-1.423,0-2.131,0-.949,0-1.9.009-2.845.04-.47.014-.935.054-1.4.1-.5.04-1,.085-1.5.094l-.537.009c-.537.009-1.075.018-1.612.041s-1.088.086-1.625.154c-.411.054-.845.067-1.274.085-.239,0-.474.014-.709.027-.352.028-.7.064-1.047.1-.4.045-.79.09-1.183.108l-.492.036c-.47.032-.939.068-1.409.068l-.226-.005-.889-.022c-.375-.014-.745-.027-1.116-.032h-.009a16.776,16.776,0,0,0-2,.149,10.483,10.483,0,0,1-1.337.091c-.207,0-.415-.009-.627-.023l-.235-.014-.235-.018.113-.18.009,0c.8-1.368,1.684-2.722,2.542-4Zm145.854,18.909.014-.04,0-.027c.172-.614.317-1.134.443-1.662a19.249,19.249,0,0,0,.348-2.108c.058-.434.131-.872.2-1.3l.136-.885a11.952,11.952,0,0,0,.1-1.513l.04.122.059.117c.37.786.686,1.594,1.007,2.4l.388.984a15.881,15.881,0,0,1,.632,1.779c.077.276.14.551.208.827.086.352.167.7.266,1.056.226.781.5,1.553.763,2.325.181.52.362,1.039.529,1.558.347,1.07.74,2.339,1.034,3.648l.085.479c.122.691.244,1.386.407,2.077.131.583.307,1.151.478,1.72l.213.705c.23.772.438,1.6.641,2.533.086.388.185.772.289,1.156l.162.636c.1.678.149,1.364.194,2.046l.059.79a27.5,27.5,0,0,0,.547,3.332,27.728,27.728,0,0,1,.288,2.831c.032.668.041,1.337.055,2,.009.582.018,1.169.04,1.752.023.519,0,1.047-.009,1.571-.009.262-.013.519-.018.781-.009.569.009,1.142.027,1.711l.018.714c.032,1.309,0,2.727-.108,4.47-.108,1.214-.244,2.42-.379,3.635l-.145,1.259a23.613,23.613,0,0,1-.745,3.5c-.126.47-.253.939-.366,1.409-.641,2.7-1.368,5.757-2.32,8.66-.2.555-.393,1.115-.578,1.675-.33.917-.682,1.829-1.034,2.741l-.063.158c-.456,1.192-.894,2.325-1.387,3.4a42.491,42.491,0,0,1-1.986,3.982q-.42.711-.827,1.436c-.429.759-.857,1.522-1.318,2.258l-.2.3a68.714,68.714,0,0,1-4.221,5.522c-.8.952-1.635,1.878-2.47,2.8-.262.293-.519.587-.777.885a26.688,26.688,0,0,1-1.86,2.009c-2.036,1.923-3.964,3.906-5.725,5.9-.669.75-1.414,1.441-2.136,2.1q-.386.352-.772.718c-.411.389-.817.786-1.219,1.183-.533.519-1.061,1.043-1.612,1.544-.632.578-1.246,1.174-1.856,1.775-.519.506-1.034,1.016-1.567,1.508a44.911,44.911,0,0,1-7.825,5.17c-.406.217-.812.429-1.223.641-.321.167-.641.334-.957.506-.569.3-1.12.636-1.671.971l-.632.383-.759.447c.131-.234.253-.478.375-.722l-.2.307a16.372,16.372,0,0,0,.994-2c.451-1.039.921-2.113,1.336-3.215l.068-.185a27.546,27.546,0,0,1,1.35-3.17,13.179,13.179,0,0,0,.763-1.887c.149-.438.266-.809.384-1.174.153-.47.3-.935.465-1.395a17.712,17.712,0,0,1,1.111-2.353c.316-.591.641-1.2.907-1.824.181-.424.339-.858.492-1.291.149-.411.3-.818.465-1.219.186-.438.38-.872.574-1.31.149-.325.3-.65.438-.98.23-.528.42-1.07.609-1.612.091-.257.181-.514.276-.772.3-.812.636-1.639,1.016-2.447l.334-.709c.221-.469.447-.939.655-1.418.162-.379.343-.745.519-1.115.162-.329.325-.664.474-1l.361-.8c.172-.371.343-.745.51-1.12.19-.425.357-.858.529-1.287.1-.253.2-.506.3-.759.325-.8.668-1.584,1.016-2.375.325-.749.65-1.5.962-2.257.546-1.337,1.052-2.809,1.648-4.773a34.414,34.414,0,0,1,1.327-3.467c.19-.438.375-.881.556-1.323l.122-.3a38.585,38.585,0,0,0,1.345-3.635c.316-1.066.741-2.465,1.237-3.865.208-.587.425-1.174.637-1.761.659-1.811,1.345-3.684,1.833-5.594l-.131.415c.321-1.056.732-2.1,1.124-3.111.145-.366.289-.731.429-1.1.475-1.268.926-2.582,1.332-3.905.181-.583.4-1.161.61-1.734l.14-.384c.289-.772.533-1.558.777-2.348.505-1.634.952-3.111,1.35-4.641l.063-.244.063-.235c.2-.718.452-1.476.8-2.456.212-.6.407-1.192.6-1.793l.23-.7c.271-.817.569-1.6.912-2.4a19.435,19.435,0,0,0,.8-2.524c.185-.623.411-1.232.637-1.842.1-.266.2-.533.293-.8.389-1.079.687-2.2.971-3.282l.095-.357-.054.158.221-.772.032-.117c.131-.4.262-.809.388-1.215a22.281,22.281,0,0,0,.826-3.057l.127-.74c.067-.4.135-.8.216-1.206.131-.623.289-1.241.447-1.855l-.009.018a.058.058,0,0,0,.009-.028ZM96.624,130.279l.037-.6c.04-.37.09-.736.144-1.106l.095-.732c.095-.776.126-1.571.158-2.343l.009-.271c.1-.939.275-1.887.447-2.768.235-1.156.411-2.343.569-3.458l.1-.763c.131-.962.262-1.96.474-2.926.077-.348.144-.7.207-1.043.14-.709.28-1.441.488-2.145a40.1,40.1,0,0,0,1.269-3.851c.212-.827.451-1.653.713-2.47l.1-.267c.226-.632.456-1.268.695-1.892a12.294,12.294,0,0,1,.6-1.277l.059-.113c.483,1.287,1.007,2.573,1.526,3.851l.321.786.23.56c.3.745.619,1.512.876,2.293.312.949.6,1.9.894,2.859l.37,1.237c.443,1.494.9,3.038,1.4,4.547l.5,1.512c.438,1.332.889,2.714,1.381,4.055.158.424.321.844.479,1.269.194.5.388,1.015.573,1.53.226.628.443,1.269.655,1.906l.285.848c.4,1.161.808,2.312,1.219,3.468.257.727.519,1.454.772,2.186q.941,2.7,1.91,5.4c.483,1.35.912,2.74,1.323,4.09.167.538.334,1.08.5,1.621.533,1.68,1.174,3.351,1.792,4.967l.222.578q.48,1.246.97,2.488c.429,1.093.858,2.181,1.269,3.278.244.646.506,1.287.772,1.928l.334.826c.222.538.425,1.084.632,1.626.136.365.271.727.411,1.088.334.853.628,1.72.921,2.592.2.591.4,1.187.61,1.774.569,1.558,1.129,3.12,1.662,4.7.623,1.851,1.156,3.26,1.724,4.56q.508,1.158,1.039,2.294c.316.691.637,1.382.939,2.077.285.7.542,1.422.8,2.136.338.93.686,1.9,1.083,2.822.33.767.682,1.521,1.034,2.28.326.7.651,1.4.958,2.117.329.831.641,1.667.957,2.5.352.948.7,1.892,1.079,2.831.664,1.652,1.273,3.355,1.86,5l.1.28.284.794c.23.664.465,1.328.731,1.978l.113.271c.344.831.687,1.657.985,2.506.257.713.469,1.44.677,2.167a27.525,27.525,0,0,0,1.029,3.066c.149.348.307.691.47,1.034-.456-.194-.957-.388-1.431-.628-.348-.176-.678-.37-1.012-.564a12.23,12.23,0,0,0-1.63-.844c-.212-.086-.429-.167-.641-.244-.275-.1-.546-.2-.813-.312a7.476,7.476,0,0,1-1.02-.542c-.307-.216-.61-.442-.917-.663-.442-.325-.885-.646-1.336-.953-1.007-.682-2.027-1.337-3.052-1.987-.56-.4-1.111-.8-1.662-1.214l-.831-.614c-.352-.258-.713-.511-1.07-.759-.6-.42-1.192-.835-1.77-1.282s-1.12-.917-1.67-1.386c-.344-.289-.682-.578-1.025-.863l-.488-.4a23.166,23.166,0,0,1-1.951-1.711c-.415-.5-.812-1.012-1.2-1.522l-.546-.7c-.651-.826-1.382-1.607-2.087-2.361l-.559-.6c-.741-.876-1.405-1.824-2.05-2.741l-.42-.6c-.51-.718-1.075-1.408-1.621-2.077s-1.088-1.341-1.594-2.049c-.357-.5-.722-.994-1.084-1.491l-.361-.492a25.1,25.1,0,0,1-1.354-2.149l-.1-.171c-.361-.628-.74-1.278-1.156-1.883-.352-.506-.663-1-.952-1.513a96.618,96.618,0,0,1-3.554-9.459l-.506-1.5c-.763-2.239-1.521-4.479-2.257-6.727a56.563,56.563,0,0,1-1.766-6.435l.023.208c-.135-.682-.289-1.359-.447-2.032-.14-.614-.28-1.228-.415-1.842-.14-.831-.24-1.675-.339-2.515-.063-.515-.122-1.025-.194-1.535a32.694,32.694,0,0,1-.289-4.145c-.009-.975,0-1.951,0-2.921l0-.483c0-.321,0-.642-.009-.967,0-.51-.014-1.025,0-1.539.032-.371.068-.741.109-1.116l.072-.785c.068-.687.081-1.368.1-2.05.009-.434.018-.863.041-1.3l-.023.185c.009-.1.014-.2.018-.3Zm65.6,82.258.2-.727c.452-1.382,1.025-2.741,1.585-4.05l.158-.375c.294-.7.565-1.409.831-2.118.284-.758.569-1.517.89-2.262.153-.365.316-.722.478-1.083.4-.894.808-1.82,1.124-2.764.226-.663.4-1.341.578-2.013l.1-.384c.1-.4.189-.795.275-1.2.063-.28.122-.56.19-.84.207-.875.433-1.819.713-2.758.176-.529.366-1.048.551-1.567l.235-.664c.257-.736.474-1.481.691-2.226l.153-.533c.3-.912.65-1.824.989-2.7l.072-.185c.361-.953.831-2.213,1.228-3.491q.589-1.882,1.111-3.788c.113-.406.217-.808.321-1.21.167-.646.338-1.3.528-1.937l.045-.14c.28-.894.569-1.815.777-2.745.176-.79.338-1.535.542-2.262.126-.366.266-.723.41-1.084l.163-.415a22.5,22.5,0,0,0,.844-2.551l.073-.285c.279-1.1.555-2.194.875-3.278l.118-.366c.275-.867.555-1.729.822-2.6.085-.266.162-.533.243-.8l.136-.452a37.082,37.082,0,0,0,1.269-4.786c.095-.5.167-1.016.244-1.526l.1-.682a15.3,15.3,0,0,1,.411-1.833l.054.221c.194.56.379,1.089.618,1.617a21.1,21.1,0,0,1,.8,2.09l.091.262a16.168,16.168,0,0,0,1.083,2.308l.253.474c.163.293.348.641.533.993a19.935,19.935,0,0,1,.822,1.951l.135.361c.212.546.465,1.079.709,1.612l.311.673c.154.334.3.672.438,1.015.172.411.348.827.538,1.238a17.048,17.048,0,0,1,1.007,2.42c.131.415.234.844.343,1.269.086.338.171.681.266,1.02l.118.406c.2.714.406,1.445.668,2.145.208.555.433,1.1.659,1.648l.361.885c.2.5.429.984.655,1.472.131.289.262.573.388.858.321.722.623,1.517.926,2.425a16.95,16.95,0,0,0,.7,1.666c.131.28.262.564.384.853.189.447.4.89.6,1.332.235.5.47,1.007.677,1.517.28.673.529,1.364.777,2.05l.095.271c.406,1.106.713,2.262,1.011,3.377.176.66.352,1.319.547,1.973l.04.136c.122.42.244.835.357,1.26.054.185.095.379.135.569a7.73,7.73,0,0,0,.231.9l.094.271c.109.316.222.628.316.948.073.221.131.452.2.677.076.285.158.574.248.854.081.23.176.456.271.682.063.153.126.307.185.46.144.389.275.781.4,1.17l.176.532c.172.52.339,1.039.551,1.54l.46,1.075.456,1.079c.321.749.709,1.476,1.084,2.181l.086.162a23.3,23.3,0,0,1,.921,2.2c.185.488.388.962.591,1.436.167.384.33.768.484,1.156.338.858.641,1.729.943,2.6a12.214,12.214,0,0,0,.808,1.724c-1.025.186-2.122.411-3.205.718s-2.172.6-3.265.881l-1.21.311c-1.49.393-2.98.809-4.461,1.238l-1.061.316c-.926.28-1.887.568-2.854.79-.618.1-1.241.18-1.864.257-.547.072-1.093.14-1.635.221a37.1,37.1,0,0,1-4.307.411c-.307.014-.619.014-.926.014-.452,0-.9,0-1.35.031s-.867.109-1.3.176c-.353.055-.7.113-1.062.149a9.969,9.969,0,0,1-1.173.05c-.33,0-.66,0-.989.032-.3.022-.6.063-.9.1-.406.05-.8.1-1.21.113-.361-.05-.722-.113-1.079-.176-.614-.1-1.278-.176-2.149-.239-.267-.028-.538-.064-.8-.118a6.005,6.005,0,0,1-.777-.212c-.172-.059-.339-.113-.51-.158a6.317,6.317,0,0,0-1.535-.163c-.312,0-.628.014-.94.027-.252.01-.5.019-.745.023a7.465,7.465,0,0,1-.934-.212l-.339-.118c-.691-.239-1.4-.487-2.122-.677-.461-.122-.93-.221-1.4-.325l-.718-.162-.194-.041-.244-.059a.5.5,0,0,0,.149-.217c.375-.939.687-1.824.958-2.713l0,0c.167-.532.316-1.07.465-1.607Z"/>
            <polygon class="cls-5" points="92.782 104.944 92.773 104.971 92.796 104.949 92.782 104.944 92.782 104.944 92.782 104.944"/>
          </g>
        </g>
        <text class="cls-6" transform="translate(14.231 287.732)">deb<tspan class="cls-7" x="61.539" y="0">r</tspan><tspan x="73.405" y="0">a austin </tspan><tspan class="cls-8" x="207.229" y="0">w</tspan><tspan x="232.729" y="0">ebsite</tspan></text>
      </g>
    </g>
  </g>
</svg>
