<svg xmlns="http://www.w3.org/2000/svg" width="288.384" height="252.484" viewBox="0 0 288.384 252.484">
  <defs>
    <style>
      .cls-1, .cls-2 {
        fill: #384173;
      }

      .cls-2 {
        opacity: 0.65;
      }

      .cls-3 {
        fill: #48578c;
      }

      .cls-4 {
        fill: #a9b5d6;
      }

      .cls-5 {
        fill: #4d5888;
      }

      .cls-6 {
        fill: #e8e8e8;
        opacity: 0.88;
      }
    </style>
  </defs>
  <title>wordpress</title>
  <g id="Layer_2" data-name="Layer 2">
    <g id="Layer_53" data-name="Layer 53">
      <g>
        <g>
          <g>
            <path class="cls-1" d="M29.2,32.358c-.469.06-.948.13-1.427.2-.529.059-1.048.129-1.567.2a6.568,6.568,0,0,0-1.428.419c-.3.12-.588.25-.888.37a9.314,9.314,0,0,0-1.427.588,11.983,11.983,0,0,0-1.3.939,6.683,6.683,0,0,0-1.407,1.137,12.006,12.006,0,0,0-1.407,1.977A19.013,19.013,0,0,0,16.76,42.3c-.36,1.188-.709,2.375-1.028,3.573a12.394,12.394,0,0,0-.35,2.505c0,.11-.01.22-.01.329.03.16.05.32.08.48.02.449.08.9.14,1.347.05.589.05,1.178.05,1.777V52.7a17.7,17.7,0,0,0,.259,2.844c.03.44.05.889.07,1.328l.04.8c.01.33.03.669.05,1l.04.479c.04.5.07.989.1,1.488l.05,1.157c.02.589.05,1.178.09,1.777.059,1.068.109,2.126.069,3.184a16.85,16.85,0,0,0,.06,2.665c.08.888.11,1.756.11,2.645-.01.539.01,1.078.04,1.647.03.5.06.988.06,1.487a21.048,21.048,0,0,0,.16,2.794,11.481,11.481,0,0,1-.02,1.757l-.03.719-.03.558-.03.559a5.591,5.591,0,0,0,0,.579l.01.38a5.468,5.468,0,0,0,.04.808h-.03l.06.319a7.689,7.689,0,0,1,.06.949,14.965,14.965,0,0,1-.05,1.9c-.16,1.118-.27,2.256-.36,3.383l-.05.509c-.039.38-.079.769-.089,1.148l-.02.29c-.01.279-.03.559-.05.838-.15,1-.27,1.986-.33,2.994l-.04.569-.019.31c-.01.209-.01.419-.01.628a11.153,11.153,0,0,0,.1,1.3,23.829,23.829,0,0,1,.11,2.755c0,.169,0,.329.01.5a4.34,4.34,0,0,1,.01.728c-.02.33-.04.659-.04.978l-.01.48a14.593,14.593,0,0,0,.04,1.746c.03.389.05.789.06,1.178,0,.5.01,1.008.03,1.507l.02.529.03.679.01.519c.07,2,.12,3.942.02,5.868l-.07.969c-.05.658-.1,1.317-.11,1.976l-.03,1.377c-.02.709-.04,1.407-.04,2.116l-.03.619c-.02.269-.03.529-.03.788s.01.529.02.789l.01.259c.01.17.02.35.02.519,0,.749-.02,1.5-.04,2.236l-.01.679-.03.858-.01.26a20.631,20.631,0,0,0,.02,2.195,18.8,18.8,0,0,1-.01,1.987l-.01.329c-.01.319-.019.639-.01.958,0,.429-.019.858-.039,1.288l-.01.419c-.03.619-.06,1.237-.05,1.866l.04,1.607.05,1.637c0,.329-.02.659-.05.988l-.03.6c-.02.639-.01,1.288.03,1.926l.079,1.338c.05.678.09,1.357.12,2.026v1.327c-.01.529-.02,1.068.01,1.6.01.449.05.889.1,1.487.05.539.1,1.078.13,1.617.03.7.03,1.408.03,2.116l.01,1.248c.01,1.028.07,2.056.129,3.084.06,1.158.08,2.315.08,3.483,0,.649,0,1.288-.01,1.936v1.268c0,.579-.02,1.148-.04,1.727l-.02.439c-.01.289-.01.579-.01.858-.02.649,0,1.288.02,1.927l.03.808.01.629c.01.319.02.639,0,1.008-.02.249-.04.509-.04.758l-.01.41c-.059.928-.069,1.866-.04,2.794.02.669.07,1.348.13,2.016l.07.829c.03.539.04,1.078.06,1.657,0,.359.01.728.03,1.1s0,.709-.02,1.118c0,.34-.01.659,0,1.018a17.852,17.852,0,0,1-.02,1.967c-.06.449-.11.9-.13,1.357l-.06.549q-.03.359-.03.719a20.4,20.4,0,0,0,.11,2.225l.04.579.05.539v.459a4.846,4.846,0,0,0,.03.659,7.767,7.767,0,0,1,.03.968,8.991,8.991,0,0,0,.02,1.038,2.251,2.251,0,0,0,.639,1.6,2.375,2.375,0,0,0,.579.439c.03.03.059.07.089.1a2.281,2.281,0,0,0,.959.22,2.347,2.347,0,0,0,2.355-2.326c-.019-.347-.028-.695-.029-1.042l-.081-.086a8.929,8.929,0,0,0-.04-1.038c-.01-.2-.02-.4-.02-.6s0-.419-.02-.628l-.04-.5L21,192.88a25.926,25.926,0,0,1,.089-3.434,11.52,11.52,0,0,0,.14-1.2,5.22,5.22,0,0,0-.01-.679c-.01-.19-.01-.389-.01-.569l.01-.419c.02-.619.04-1.318,0-1.986-.01-.24-.01-.489,0-.859,0-.2,0-.409-.02-.858-.03-.469-.06-.958-.1-1.427l-.029-.42-.03-.469a22.215,22.215,0,0,1-.11-2.345l.03-1.078.06-1.9c.04-.6.02-1.208,0-1.837l-.01-.3-.02-.34-.04-.878c-.02-.629.01-1.278.04-1.846l.02-.3.01-.3c.01-.3.02-.6.01-.9v-.878c0-.758,0-1.507.02-2.256.049-1.866-.04-3.792-.14-5.459l-.06-1.278c-.03-.648-.03-1.3-.03-1.946,0-.409,0-.808-.01-1.208-.01-1.187-.1-2.345-.19-3.313a26.346,26.346,0,0,1-.06-2.945,30.76,30.76,0,0,0-.139-3.193,24.264,24.264,0,0,1-.04-3.584,17.416,17.416,0,0,0-.02-2.265l-.01-.469-.02-.469c0-1.388.02-2.536.06-3.6.04-1.118.07-2.256.09-3.374,0-.23,0-.459-.02-.788-.01-.2-.02-.39-.02-.589l.02-1.478v-.3c.02-.479.03-.958.03-1.447l.01-.479.01-.479.01-.479c.01-.45,0-.909-.02-1.368a16.94,16.94,0,0,1,0-1.746c.04-.609.05-1.208.05-2.007,0-.469.009-.928.029-1.4l.03-.6.02-.589c.02-.608.04-1.217.08-1.826l.03-.349c.06-.879.12-1.777.11-2.675l-.01-.29c-.03-1.836-.06-3.493-.14-5.15-.02-.509-.03-1.008-.04-1.517l-.02-.379-.02-.779-.05-1.118c-.01-.269,0-.549.01-.828l.01-.389c0-.18.01-.36.02-.539.02-.2.03-.4.03-.6,0-.16-.01-.329-.03-.639l-.01-.409a19.263,19.263,0,0,0-.1-2.465,13.129,13.129,0,0,1-.08-2.376l.05-.469.02-.459.04-.459.039-.459.04-.479a14.452,14.452,0,0,0,.21-1.557,6.775,6.775,0,0,0,.04-.779l.02-.389.02-.389q.135-1.647.359-3.5a9.763,9.763,0,0,0,.15-1.337c.01-.369.01-.739,0-1.258,0-.229-.01-.459-.04-.8l-.04-.459c-.03-.3-.05-.589-.05-.878v-.45l-.01-.5a6.177,6.177,0,0,1,.05-.9c0-.12.01-.239.02-.349.01-.25.03-.5.05-.739.02-.219.03-.439.04-.659a7.554,7.554,0,0,0-.12-1.447c-.07-.778-.08-1.587-.08-2.375l-.01-.38q0-.479-.03-.958l-.02-.339c-.03-.569-.06-1.138-.05-1.7A24.09,24.09,0,0,0,21,69.337l-.03-.319a18.706,18.706,0,0,1-.02-1.977c.01-.319.01-.628.01-.948.01-.908-.04-1.846-.1-2.9l-.03-.36c-.02-.329-.03-.668-.06-1.377-.01-.559-.03-1.118-.08-1.677-.08-.918-.13-1.836-.179-2.754-.02-.4-.04-.809-.05-1.218a9.343,9.343,0,0,0-.18-1.527l-.06-.32a17.075,17.075,0,0,1-.04-1.726v-.3c.01-.229.01-.459,0-.688a10.248,10.248,0,0,0-.1-1.148,3.731,3.731,0,0,0-.03-.649,4.506,4.506,0,0,0-.059-.5,8.94,8.94,0,0,1,.04-1.168,22.127,22.127,0,0,1,.638-2.435l.2-.649.15-.549c.269-.948.549-1.916.908-2.844a11.277,11.277,0,0,1,1.118-1.9l.279-.269.459-.329.459-.32a7.433,7.433,0,0,1,.649-.429c.389-.14.779-.29,1.158-.449l.249-.1a2.132,2.132,0,0,1,.44-.12c.019.01.039.018.059.027.319-.074.64-.14.979-.186h-.06c.888-.11,1.766-.22,2.655-.34a2.242,2.242,0,0,0,1.417-1.058,2.364,2.364,0,0,0,.259-1.8,2.338,2.338,0,0,0-1.058-1.418,2.153,2.153,0,0,0-1.157-.309,4.706,4.706,0,0,0-.639.05Zm-4.621.908c-.06.02-.12.05-.18.07.06-.02.12-.05.18-.07Z"/>
            <path class="cls-1" d="M245.471,29.753c-.958.03-1.917.04-2.885.05a15.753,15.753,0,0,0-3.483.319c-.429.09-.848.19-1.278.26a34.356,34.356,0,0,1-3.633.08c-.888-.02-1.776-.03-2.655,0-1.117.049-2.225.109-3.343.079s-2.206-.1-3.314-.139c-2.225-.08-4.461-.08-6.677-.02-1.976.06-3.922.339-5.909.309-1.058-.02-2.116-.05-3.173-.02-1.1.03-2.186.03-3.284-.01-2.176-.06-4.372-.08-6.538-.239-1.018-.07-2.036-.15-3.064-.19-1.177-.04-2.355-.02-3.523,0-2.226.04-4.431.249-6.657.19-2.276-.05-4.541-.15-6.807-.22-2.286-.06-4.581-.05-6.857-.1-1.437-.03-2.864-.02-4.292,0-.888.01-1.776.02-2.675.01-2.225,0-4.461-.08-6.687-.1-2.146-.01-4.282.06-6.427.14-1.028.04-2.046.1-3.075.12-1.207.02-2.425,0-3.633-.02-2.125-.02-4.241.11-6.367.15-2.146.04-4.292.01-6.448-.01-1.168-.01-2.345.05-3.523.05-1.158.01-2.326.039-3.483.049s-2.316.05-3.474.05c-.649.01-1.287,0-1.926-.01-.589-.01-1.178-.01-1.767-.01-4.661.01-9.322.18-13.973.46-2.286.129-4.571.079-6.857.159l-3,.12c-1.018.04-2.036.05-3.044.14-4.222.349-8.454.728-12.686,1.008-2.136.13-4.292.159-6.447.169-1.088.01-2.176.01-3.264-.019-1.2-.03-2.4-.14-3.583-.19-2.116-.09-4.232-.22-6.358-.22-1.038,0-2.076.04-3.114.03-1.078-.01-2.136-.05-3.2-.09-1.806-.059-3.6,0-5.41.03-.958.01-1.926,0-2.884-.02-.928-.01-1.866-.03-2.8-.02a46.524,46.524,0,0,1-5.13-.159c-.429-.04-.858-.1-1.287-.13a12.408,12.408,0,0,0-1.5.06c-.859.06-1.707.15-2.546.259-.708.08-1.427.15-2.135.28a12.849,12.849,0,0,0-2.166.718,2.542,2.542,0,0,0-1.408,1.058,2.364,2.364,0,0,0-.269,1.8A2.4,2.4,0,0,0,26.6,37.378a.417.417,0,0,0,.047.028c.03-.007.06-.012.093-.018a2.635,2.635,0,0,0,1.108.26,1.569,1.569,0,0,0,.528-.07,15.212,15.212,0,0,1,2.8-.839l.549-.059.559-.07.339-.04a24.641,24.641,0,0,1,2.655-.18,4.083,4.083,0,0,1,.849.09h.269l.429.04c.36.04.719.06,1.088.08l.409.03c1.038.06,2.106.06,2.915.06H42.47l1.348-.01.988.01.759.01c.5.01,1.008.02,1.517.02l1.187-.02c.749-.02,1.487-.04,2.226-.04l.539.01h.539l1.457.04.419.019c1.228.02,2.446.05,3.663.05h.859l.658-.01c.519-.01,1.048-.02,1.577-.02.33,0,.669,0,1,.01,1.009.03,2.017.07,3.025.13l1.906.1.329.02c1.527.09,3.1.17,4.721.17,2.306-.01,4.382-.02,6.478-.1,1.976-.07,3.992-.21,6.348-.449.778-.07,1.567-.13,2.4-.19l.579-.05.309-.02c.26-.01.529-.03.8-.05l.4-.04.6-.06.629-.059.639-.06c1.467-.11,3.024-.18,4.281-.23.609-.02,1.228-.05,1.847-.08,1.417-.07,2.854-.09,4.391-.119l.6-.01.549-.01,1.188-.02c.8-.01,1.6-.05,2.385-.1l.978-.05,1.128-.05.729-.03.479-.02c.339-.02.679-.04,1.028-.07,2.7-.15,5.429-.169,7.965-.169h2.285c1.318,0,2.635,0,3.943-.03l2.405-.03.679-.01c1.377-.01,2.744-.03,4.122-.07h.649l.658-.01c.689,0,1.378.01,2.086.02h.3c.6.01,1.177.02,1.766.02.34,0,.689,0,1.028-.01.8-.01,1.6-.04,2.386-.07l.4-.01c1.178-.05,2.346-.09,3.513-.1.719,0,1.438.01,2.216.02.639.01,1.288.01,1.936.01,1.018,0,1.837-.01,2.565-.06,2.356-.12,4.841-.179,7.606-.179,1.8,0,3.583.029,5.529.059.519.01,1.048.02,1.577.02.679,0,1.358,0,2.156-.02.749-.01,1.5-.01,2.246-.01h.878c1.637.02,3.264.04,4.921.07l2.116.03c1.457.02,2.914.07,4.381.13l2.465.09c.779.02,1.577.04,2.356.04.279,0,.559,0,.838-.01q1.049-.03,2.1-.09l.629-.03.629-.04c1.048-.04,2.086-.06,3.064-.06,1.228,0,2.435.03,3.593.11l.878.06.459.03c.619.05,1.238.09,1.857.1l2.156.069.309.01.819.02c1.1.04,2.195.07,3.483.08h.619l.319-.01.28-.01h.339c.359-.01.709-.01,1.277-.01l.5.01.538.01.6.01h.589q.54,0,1.078-.03c.469-.01.938-.05,1.407-.09l.6-.059.719-.06c.868-.08,1.727-.09,2.525-.09h3.234l.609.01.409.01.409.01c.539.01,1.088.01,1.627.04l.729.04c.738.04,1.477.08,2.325.08s1.667-.03,2.5-.07l.39-.01c.539-.03,1.077-.04,1.616-.04l.579.01h.579l.389.01c.39.01.789.02,1.188.02.629,0,1.158-.02,1.677-.07a16.585,16.585,0,0,0,2.046-.28l.28-.06.289-.059.559-.12c.938-.09,1.9-.1,2.954-.1.539,0,1.088-.01,1.657-.03.379-.01.759-.02,1.138-.02.409,0,.828.02,1.257.05.31.02.629.05.949.08l.519.06c.469.05.938.1,1.4.11.16.009.329.019.489.019.21,0,.409,0,.619-.01l.449-.029c.269-.01.549-.01.828-.01l.3.01c.3,0,.609.01.948.039.449.02.888.03,1.337.03l.46-.01h.718l.7-.01a7.282,7.282,0,0,1,.928.04l.279-.02.4-.01.309-.01h.469l.32.02.269.04.359.05c.23.06.469.12.719.19a2.5,2.5,0,0,0,.639.06h.179l.172.041a2.331,2.331,0,0,0,1.875-1.658,2.365,2.365,0,0,0-1.627-2.885,14.365,14.365,0,0,0-2.446-.459c-.349-.03-.708-.01-1.058-.01-.329.01-.658.01-.988.01h-.579c-.978.01-1.956.04-2.944-.01a28.364,28.364,0,0,0-3.044-.04,21.64,21.64,0,0,1-3.214-.169c-.519-.06-1.038-.09-1.557-.12-.1-.01-.21-.01-.309-.01-.37,0-.739.03-1.108.04Z"/>
            <path class="cls-1" d="M258.316,32.238a2.348,2.348,0,0,0,1.527,2.427l.29.018.269.04.359.05c.212.055.432.111.66.174.135.021.27.044.406.067.079,0,.174.009.292.009h.179l.33.08a5.488,5.488,0,0,1,.579.2,3.971,3.971,0,0,1,.439.3l.509.459a2.286,2.286,0,0,1,.363.388l.043.038-.047-.117.409.359a7.12,7.12,0,0,1,.9,1.048,3,3,0,0,0,.439.569l.319.4a3.526,3.526,0,0,1,.14.349c.16.569.269,1.138.409,1.846l.06.36a15.546,15.546,0,0,1,.3,2.255l.09.33c.06.888.15,1.776.26,2.655l-.02.289-.015.118c.008.067.016.134.025.2s.016.134.024.2c.044.125.088.262.146.439l.049.32c.09.6.17,1.147.21,1.706,0,.519.01,1.038.05,1.7l.08.779c.03.239.05.489.07.8.02.639.04,1.288.079,1.926l.01.31v.3l.02.749.03.758.01.519c.03.988.06,2.016.16,3.044.04.4.08.789.13,1.188.07.629.14,1.258.179,1.9.01.708,0,1.417-.02,2.125l-.01.34-.009.489v.509c-.01,1.357-.05,2.645-.12,3.843l-.08,1.137a28.464,28.464,0,0,0-.06,3.2c.04.779.1,1.557.16,2.336l.02.379.04.559c.03.4.059.8.079,1.188a28.434,28.434,0,0,1-.039,2.884c-.07,1.128-.13,2.256-.19,3.384-.06,1.177-.1,2.365-.14,3.573-.03.9-.06,1.8-.1,2.685l-.03.728-.02.719-.02.718-.029.659c-.04,1.248-.09,2.675-.18,4.042l-.07.879-.06.788-.06.759-.06.788-.04.479c-.069.789-.149,1.767-.149,2.7,0,1.148,0,2.286.02,3.663.01,1.6.02,3.194.01,4.791,0,1.447-.1,2.864-.23,4.551a34.236,34.236,0,0,0,.03,4.512c.05,2.265.02,4.311-.08,6.258-.04.578-.05,1.167-.06,1.856l-.01.439c0,.359,0,.729-.01,1.088-.02,1.088-.05,2.176-.1,3.264-.11,2.8-.13,4.791-.07,6.647.06,2.016.08,4.132.06,6.458-.01.718.01,1.427.039,2.145l.02,1.058.01.7c.01.719.03,1.417.06,2.136.05,2.206.07,4.232.05,6.188l-.02,1.058c-.01.689-.02,1.387-.01,2.076l.01,1.148c.01.758.02,1.517.01,2.276-.01,1.048.01,2.086.03,3.124s.04,2.076.03,3.114l-.01.419c-.01.938-.02,1.906.05,2.854l.06.869c.05.519.09,1.038.12,1.547v1.507c.01.389.01.778.04,1.168l.079,1.2.03.419.03.42a19.311,19.311,0,0,1-.179,3.223l-.12.559c-.04.22-.09.459-.12.7-.06.509-.09,1.008-.12,1.517l-.059.679-.04.569-.06.628c-.05.39-.09.779-.11,1.168l-.03.27-.03.269-.11.569-.037.027q0,.047,0,.093a11.325,11.325,0,0,0,.01,1.427,2.347,2.347,0,0,0,.12,1.707,2.345,2.345,0,0,0,3.114,1.128,2.266,2.266,0,0,0,.449-.28c0-.02.01-.05.01-.08a2.971,2.971,0,0,0,.7-.958,4.008,4.008,0,0,0,.189-2.026,21.874,21.874,0,0,1,.23-2.545l.04-.369c.06-.509.09-1.018.12-1.537.03-.589.07-1.188.139-1.787.03-.21.07-.419.15-.778.05-.25.1-.489.13-.749.07-.659.13-1.307.15-1.976.02-.888-.04-1.767-.1-2.655-.03-.429-.06-.868-.08-1.308l-.02-1.257c-.01-.629-.02-1.258-.05-1.887,0-.389-.04-.778-.07-1.157l-.03-.27-.08-1c0-.539.01-1.078.02-1.617v-.569c.01-.958-.01-1.926-.039-3.124-.01-.988-.02-1.966-.02-2.944l-.02-2.346c-.01-.9,0-1.806.02-2.7l.01-.459c.01-.819.019-1.637-.01-2.466l-.02-1.846c-.01-1.208-.03-2.426-.06-3.573l-.02-1.328c-.02-.948-.04-1.916-.07-2.774v-3.234c-.02-1.068-.03-2.136-.04-3.224l-.02-1.627c-.02-1.707-.04-3.413.02-5.13.1-2.186.15-4.362.18-6.557.01-.559.04-1.118.069-1.677.04-.509.07-1.018.07-1.527q.03-1.677,0-3.354l-.03-1.018-.03-1.028c-.029-1.048-.059-2.106.01-3.144l.09-1.367c.05-.759.1-1.527.13-2.286s.02-1.507.01-2.256l-.01-1.127c0-1.118,0-2.236-.02-3.354-.02-1.088-.01-2.166.01-3.254.02-.758.08-1.517.15-2.275l.07-.889.05-.529c.149-1.966.309-3.992.349-5.988.09-3.394.229-6.787.379-10.181l.1-1.617c.07-1.167.13-2.335.09-3.493-.02-.858-.07-1.717-.12-2.565l-.04-.7c-.02-.489-.05-.968-.09-1.447l-.08-1.078c0-.878.06-1.766.12-2.645l.07-1.127c.06-1.168.08-2.336.1-3.494v-.619l.03-1.157a32.711,32.711,0,0,0-.07-3.564c-.03-.359-.08-.728-.13-1.087l-.11-.879q-.1-.943-.149-1.886v-.6l.04-.259c0-.06-.01-.12-.01-.18l-.02-.439-.03-.429a5.227,5.227,0,0,1-.02-1.118l-.06-.28-.04-1.367a1.259,1.259,0,0,1,.04-.27l-.06-.329c-.01-.419-.03-.848-.06-1.278l-.04-.628c.01-.05.01-.11.02-.16-.02-.22-.05-.429-.06-.649a16.378,16.378,0,0,0-.12-2.1c-.089-.649-.189-1.3-.269-1.946-.09-.769-.18-1.527-.25-2.3-.069-.728-.1-1.447-.229-2.165a34.3,34.3,0,0,0-.729-3.743,6.664,6.664,0,0,0-1.018-2.276c-.2-.279-.469-.519-.678-.808.049.079.109.159.149.239a10.57,10.57,0,0,0-2.176-2.405c.14.14.29.269.44.409-.21-.19-.41-.369-.619-.549-.222-.212-.444-.406-.666-.6a9.783,9.783,0,0,0-.811-.668,5.891,5.891,0,0,0-1.547-.719,18.329,18.329,0,0,0-3.434-.649c-.08,0-.169-.01-.259-.01a2.356,2.356,0,0,0-2.3,2.106Zm8.361-.047c.075.067.144.128.213.2-.071-.067-.142-.133-.213-.2Z"/>
            <path class="cls-1" d="M267.968,194.357a2.394,2.394,0,0,0-.853.327l-.016.082a2.409,2.409,0,0,0-.968,2.286,10.156,10.156,0,0,1,.1,1.1l-.1.359a7.923,7.923,0,0,1-.639.828l-.229.28a2.343,2.343,0,0,1-.31.219l-.3.2a3.354,3.354,0,0,1-.389.17c-.35.089-.7.179-1.078.269a13.47,13.47,0,0,1-1.877.19c-.668.04-1.337.11-2.046.2-.5.07-1.058.11-1.7.15l-.589-.01H256.1c-.489,0-.978,0-1.477.03-.259,0-.519.02-.978.05l-.329.06c-.41.05-.809.09-1.218.12a33.369,33.369,0,0,0-3.354.249c-.568.07-1.157.11-1.906.15-.459.02-.918.05-1.377.1-.948.1-1.976.249-3.234.449l-.509.08a9.1,9.1,0,0,1-1.048.139l-.888.04-.589.03-.709-.01h-.738c-.26,0-.509,0-.769.01-.339.02-.689.05-1.028.09l-.549.06c-.569-.02-1.148-.07-1.786-.14-.29-.03-.579-.06-.869-.07-.229-.02-.469-.03-.7-.03-.43,0-.869.02-1.388.06l-.409.03c-.3.03-.589.05-.888.07h-.3a16.021,16.021,0,0,1-1.7-.07l-.48.02c-.549,0-1.087.03-1.666.08l-.559.04h-.579l-1.168.01c-.529,0-1.068-.01-1.607-.04-.359-.02-.718-.04-1.078-.04-.449,0-.9.01-1.387.04-.339.01-.689.01-1.038.01-.908,0-1.647-.02-2.346-.08-1.028-.09-2.046-.13-3.034-.13-.309,0-.609,0-.868.01h-.5l-.489.01c-.769.01-1.557.03-2.336.08l-.668.01h-.679c-.3.01-.589.01-.888.04h-.48c-.459,0-.918-.01-1.417-.02l-.718-.01-.46-.01-.918-.01H201.1l-.689.01c-.479,0-.958-.03-1.437-.06l-.519-.02-.539-.03-.529-.03-.828-.049c-.24-.02-.479-.04-.719-.05-.16-.01-.309-.01-.469-.01-.429,0-.858.02-1.278.04l-.579.01-.309.01-1.218.02c-1.177,0-2.375-.09-3.623-.19q-.854-.06-1.706-.09l-.27-.02c-.8-.04-1.527-.08-2.255-.16s-1.438-.169-2.156-.279c-.669-.09-1.338-.17-2.007-.25a24.17,24.17,0,0,0-2.5-.129q-.659,0-1.287.03H175.6c-.719,0-1.447.01-2.166.05h-.639c-1.068,0-1.966-.03-2.764-.09-.48-.03-.959-.04-1.607-.04h-.29a15.916,15.916,0,0,1-2.166-.25c-1.1-.189-2.225-.329-3.363-.419-.769-.07-1.487-.1-2.216-.1-.479,0-.958.01-1.447.04-.419.01-.849.01-1.278.01h-1.1c-.708,0-1.407,0-2.106.03h-.608c-1.378,0-2.785-.07-4.192-.2-.39-.039-.779-.049-1.158-.049-.669,0-1.348.04-2.116.089l-.339.03-.36.02-.359.02c-.319.01-.649.01-.978.01s-.649,0-.978-.01h-.32c-.559,0-1.117.02-1.7.05l-.549.03c-.449.02-.9.04-1.348.05l-.878.04c-.589.02-1.178.02-1.767.02-1.207,0-2.465.01-3.693.12-.878.07-1.746.189-2.475.3-.818.11-1.657.15-2.575.19-.908.02-1.8.05-2.755.1l-.578.03-.639.019-.889.02c-.858,0-1.8-.03-3.084-.129l-.309-.02c-.439-.03-.878-.05-1.367-.05q-.51,0-1.018.03l-.48.03-.529.04c-.7.01-1.4.04-2.115.079l-.539.02-.529.01h-1.068l-1.318-.01c-.718,0-1.447.05-2.226.11l-.788.05-.529.01c-.339.01-.689.03-1.038.05s-.729.01-1.088.01l-.579-.01h-1.168c-.578-.01-1.167-.02-1.756-.02-.789,0-1.587.01-2.376.05l-.648.01c-.9.01-1.817.02-2.745.11-.379.04-.769.09-1.148.149l-.339.05c-.37.05-.749.1-1.118.13-.679.01-1.577.04-2.485.14-.679.06-1.358.1-2.066.14l-.38.029H86.516c-.409-.009-.819-.009-1.228-.009-.469,0-.928,0-1.387.019h-.29c-.429,0-.868-.01-1.527-.029q-.838-.03-1.676-.03c-.34,0-.669,0-1.038.02a10.373,10.373,0,0,0-1.208.119c-.3.04-.6.08-.888.11-.729.05-1.448.09-2.186.13-.639.01-1.278.02-1.916.05h-.759c-.409,0-.818,0-1.228.01-.369,0-.718.03-1.387.08l-.389.03-.4.029h-.528c-.869,0-1.587-.029-2.276-.079q-1.392-.12-2.785-.21c-.9-.06-1.806-.11-2.715-.15l-.459-.03-.678-.05c-.15-.01-.3-.019-.45-.019-.209-.02-.419-.02-.628-.02-.28,0-.549,0-.859.02l-.429-.01c-.728,0-1.247-.02-1.756-.06-.42-.04-.849-.06-1.268-.06-.19,0-.389.01-.589.02-.649-.02-1.367-.06-2.2-.14-.219-.02-.439-.03-.648-.03-.47,0-.929.04-1.468.09l-.658.06h-.4c-.349,0-.708-.01-1.048-.04-.289-.03-.568-.04-1.028-.05l-.409-.03-.389-.02c-.329-.03-.669-.05-1-.05a16.745,16.745,0,0,0-2.276.17l-.269-.03a6.94,6.94,0,0,0-.719-.03c-.519.02-1.088.06-1.767.15l-.289-.03a4.464,4.464,0,0,0-.649-.04c-.329,0-.658.02-1,.05l-.329-.08-.26.01c-.349-.03-.708-.07-1.058-.13l-.359-.05a5.44,5.44,0,0,0-.8-.1c-.19-.01-.39-.01-.579-.01a3.91,3.91,0,0,1-.489-.02c-.749-.05-1.487-.169-2.086-.259l-.28-.05a8.654,8.654,0,0,0-1.7-.13l-.479-.05a4.713,4.713,0,0,0-.648-.05c-.36,0-.719.01-1.168.03-.11-.03-.23-.05-.519-.109a3.839,3.839,0,0,0-.549-.04,3.612,3.612,0,0,1-.479-.1l-.27-.05a7.54,7.54,0,0,1-.958-.379l-.229-.12-.4-.27a9,9,0,0,0-.6-.748l-.23-.28a6.409,6.409,0,0,0-.429-.658,3.69,3.69,0,0,0-.439-.789,7.682,7.682,0,0,0-.519-.758l-.31-.33v-.07l-.12-.119v-.01c.04.04.08.079.12.116v-.008c-.05-.053-.1-.108-.159-.158a2.017,2.017,0,0,0-.619-.689,2.4,2.4,0,0,0-1.747-.4,2.354,2.354,0,0,0-1.517.948,2.28,2.28,0,0,0-.4,1.747,3.29,3.29,0,0,0,.728,1.427c.07.08.15.16.23.239a1.178,1.178,0,0,0,.19.11.882.882,0,0,1,.189.28l.17.249a2.81,2.81,0,0,0,.239.529,5.621,5.621,0,0,0,.549.789,5.046,5.046,0,0,0,.569.758,3.66,3.66,0,0,1,.469.579,3.436,3.436,0,0,0,.849.908c.01,0,.379.23.379.23l.4.249a3.773,3.773,0,0,0,.589.33l.389.16a6.87,6.87,0,0,0,1.1.429,12.034,12.034,0,0,0,1.238.309l.449.07c.16.02.319.02.489.03l.3.05.319.09a1.744,1.744,0,0,0,.349.03,4.085,4.085,0,0,0,.629-.06l.329-.03a2.9,2.9,0,0,1,.509.04,7.684,7.684,0,0,0,.869.05,10.752,10.752,0,0,1,1.7.209l.33.06a14.923,14.923,0,0,0,2.425.19,13.858,13.858,0,0,1,1.677.189l1.1.15a4.686,4.686,0,0,0,.709.06,7.054,7.054,0,0,0,.758-.05l.349-.01.36.02a5.307,5.307,0,0,0,.688.05,2.966,2.966,0,0,0,.42-.03l.459-.05c.219-.03.439-.06.658-.08.11,0,.22.01.519.03.21.02.43.03.639.03a2.894,2.894,0,0,0,.509-.03l.4-.04c.3-.04.609-.08.909-.11.4.01.788.03,1.177.07a7.02,7.02,0,0,0,.909.05c.269.01.539.02.808.04a8.041,8.041,0,0,0,.849.04l.848-.02c.439,0,.878-.04,1.307-.08l.479-.05c.24.01.48.03.709.05.27.02.539.04.809.04s.558.02.828.04a5.41,5.41,0,0,0,.569.02l.549-.01c.519,0,1.048.04,1.577.09.209.02.419.02.639.02h.419l.9.01h.709c.8,0,1.607.05,2.405.11l.569.04c1.018.069,2.046.129,3.074.179.429.03.848.07,1.367.11a18.746,18.746,0,0,0,1.977.13l.379.01c.619,0,1.238-.02,1.846-.06.29-.01.579-.03.859-.06l.7-.06,1.048-.01c.479,0,.959-.01,1.418-.02l.688-.01,1.458-.05c.289-.01.568-.03.908-.05.279-.02.549-.04.818-.05.469-.019.928-.069,1.388-.129l.369-.04c.269-.03.539-.06.808-.08.3,0,.6.01,1.158.04l.759.01c.379,0,.758.01,1.377.03.379,0,.759-.02,1.138-.05.589,0,1.178,0,1.856.02.409.01.819.01,1.228.01.509,0,1.028-.01,1.537-.04l.649-.03a12.051,12.051,0,0,0,1.467-.1c.559-.07,1.118-.11,1.776-.14l1.088-.039c.3-.01.609-.06.919-.1l.289-.06c.8-.12,1.607-.2,2.415-.24l2.466-.06h.618l.619-.01,1.677.01.469.01,1.388.01c.718,0,1.437-.01,2.155-.05.539-.01,1.078-.02,1.607-.049l.7-.05.679-.06c.329,0,.668,0,1,.01l.419.01h.419l.409-.01c1.048-.02,2.086-.07,3.124-.12l.958-.03,1.607-.06c.559,0,1.118.04,1.667.07l.32.02.938.05c.529.04,1.058.05,1.6.05.409,0,.828-.01,1.187-.02l.26.02.369-.04,1.168-.06,1.178-.06c.838-.01,1.686-.03,2.525-.09l.629-.03a17.086,17.086,0,0,0,1.716-.149c1.138-.16,2.286-.29,3.434-.35h1.148c.4.01.8.01,1.2.01.709-.01,1.418-.03,2.166-.07l.8-.04c.608-.029,1.227-.059,1.836-.079.26-.01.529-.01.789-.01h.778c.7,0,1.387,0,2.076-.03.409-.01.819-.04,1.228-.07l.748-.06c.689,0,1.378.06,2.066.11l.26.02,1.068.07c.688.039,1.387.059,2.076.059.579,0,1.168-.01,1.746-.039h1.158l.739.019c.179,0,.369-.01.549-.019.808-.01,1.607-.03,2.645-.06a38.383,38.383,0,0,1,5.519.559l.918.139a8.584,8.584,0,0,0,1.338.08l.619-.01c.259,0,.519.02,1.018.05.289.02.588.04.888.04l.808.03c.39.01.769.01,1.158.01.739-.01,1.467-.02,2.2-.05l1.108-.01.808-.01h.469a37.877,37.877,0,0,1,4.811.429c.838.11,1.687.22,2.525.3.759.079,1.507.109,2.336.149.629.03,1.267.06,1.9.1a28.027,28.027,0,0,0,2.9.13l.838-.01.968-.01,1.637-.04c.788,0,1.567.06,2.335.12l.47.03c.888.05,1.756.07,2.644.08l.5.01c.968.03,1.926.039,2.894.039s1.966-.009,2.835-.039c1-.02,1.976-.05,2.964-.09l1.118-.01,1.078-.02h.3c.918,0,1.827.06,2.735.13l.868.049c.569.04,1.148.06,1.727.06.629,0,1.257-.02,1.986-.04l.459-.02c.339,0,.689.02,1.038.04l.32.01.289.01.749.02,1.018-.02h1.277c.359,0,.719-.03,1.078-.06l.938-.049c.37,0,.749.01,1.118.02l.809.049.459-.02a13.436,13.436,0,0,0,1.4-.059c.359-.03.719-.06,1.158-.1.818,0,1.637.08,2.455.159l.619.05a5.991,5.991,0,0,0,.6.03,13.857,13.857,0,0,0,1.557-.1l.838-.079c.329,0,.649.01,1.088.05l.27-.02c.419,0,.838-.02,1.257-.05l.319-.02.629-.04a20,20,0,0,0,2.555-.31l.659-.1.469-.08c1.018-.14,2.046-.26,3.084-.32l.34-.02c.618-.04,1.237-.079,1.856-.159a17.545,17.545,0,0,1,1.767-.15h.259c.549-.02,1.108-.04,1.667-.11s1.148-.13,1.717-.16c.429-.009.858-.009,1.277-.009.749,0,1.5,0,2.246-.04.4-.02.808-.07,1.208-.13l.529-.07,1.137-.09.589-.05a13.16,13.16,0,0,0,2.715-.419l.29-.09a7,7,0,0,0,1.187-.429,11.446,11.446,0,0,0,1.028-.659,4.812,4.812,0,0,0,.589-.429,4.7,4.7,0,0,0,.619-.689l.459-.548.509-.619a4.992,4.992,0,0,0,.978-2.446c.02-.01.03-.03.05-.04v-.019a7.587,7.587,0,0,0-.05-1.647c-.03-.27-.07-.539-.1-.809a2.341,2.341,0,0,0-2.335-1.946,2.165,2.165,0,0,0-.359.03ZM21.191,196.772a.209.209,0,0,1,.04.06c.03.07.05.14.07.2-.03-.09-.07-.17-.11-.26Z"/>
            <path class="cls-1" d="M54.837,0a19.5,19.5,0,0,0-1.986.18l-.719.089c-.569.03-1.138.04-1.707.04H48.808L47.65.319l-1.906.01L44.556.319c-1.157,0-2.3.08-3.443.17-.559.03-1.118.1-1.687.17l-.439.05q-.779.105-1.557.179l-.888.08-.878.08c-.529.04-1.048.07-1.577.07H33.059l-.689-.01-.679.01c-.788.04-1.577.08-2.355.17a5.937,5.937,0,0,0-1.677.558,8.416,8.416,0,0,1-1.318.32,5.926,5.926,0,0,0-1.3.179,6.072,6.072,0,0,0-1.886.869,6.443,6.443,0,0,1-.839.4,8.448,8.448,0,0,0-.8.369,9.01,9.01,0,0,0-2.076,1.507c-.17.17-.34.34-.609.569a4.766,4.766,0,0,0-.669.6,7.149,7.149,0,0,0-.629.779,7.585,7.585,0,0,1-.459.629,2.769,2.769,0,0,0-.339.419,5,5,0,0,0-.6,1.068,10.985,10.985,0,0,0-.878,3.134c-.08.429-.12.858-.16,1.287l-.02.27c-.04.549-.09,1.108-.18,1.646-.089.52-.159,1.039-.219,1.558a13.082,13.082,0,0,0-.04,1.916v1.2c0,.668,0,1.337.02,2,.04,1.207.05,2.415,0,3.613-.02.609-.05,1.217-.08,1.826a19.6,19.6,0,0,0,.03,2.026c.01.549.01,1.088,0,1.637-.01.679-.01,1.368.03,2.046.03.509.06,1.028.06,1.537,0,.589.04,1.178.09,1.767s.039,1.158.03,1.747l-.01.309-.02.579a10.337,10.337,0,0,0,.079,1.118l.01.8c.01.31.01.609.05.918a16.124,16.124,0,0,0,.19,1.687l.12.928c.01.36,0,.719-.01,1.078a11.742,11.742,0,0,0,.01,1.188,14.171,14.171,0,0,0,.209,1.827c.02.449.08.9.14,1.347,0,.04.01.09.01.13A2.437,2.437,0,0,0,16.56,51.9a2.4,2.4,0,0,0,1.787.33,2.348,2.348,0,0,0,1.457-1,2.135,2.135,0,0,0,.319-.8l-.04-.342a3.731,3.731,0,0,0-.03-.649,4.506,4.506,0,0,0-.059-.5c0-.188,0-.369,0-.548-.056-.339-.114-.676-.15-1.019-.01-.629.04-1.268.02-1.9-.03-1.008-.23-1.986-.33-2.975-.019-.329-.019-.658-.029-1-.01-.489-.05-.988-.1-1.477-.01-.549.04-1.1.04-1.657,0-.7-.06-1.4-.11-2.1-.05-.718-.04-1.447-.07-2.165h-.02l-.02-.29c-.03-.539-.02-1.1-.01-1.637v-.349c.01-.31.01-.619,0-.918l-.02-.789v-.11c-.01-.708-.03-1.447,0-2.175.05-.889.1-2.007.1-3.055,0-.668-.02-1.337-.04-2.016l-.03-.838c-.01-.6-.01-1.188,0-1.787V18.744a16.444,16.444,0,0,1,.27-2.605l.079-.5c.07-.459.11-.918.15-1.377.03-.44.07-.869.14-1.308a10.185,10.185,0,0,1,.519-1.637,6.246,6.246,0,0,1,.569-.758,2.912,2.912,0,0,0,.289-.4l.06-.079.12-.19c.12-.1.239-.2.419-.339.13-.12.27-.23.4-.36.11-.1.21-.2.31-.3l.09-.08a5.393,5.393,0,0,1,.429-.409,10.143,10.143,0,0,1,1.018-.559c.139-.06.279-.12.429-.18l.12-.05.249-.1a6.788,6.788,0,0,0,1.018-.6l.11-.05a4.142,4.142,0,0,1,.7-.15,7.534,7.534,0,0,0,1.627-.269l.169-.05c.18-.06.37-.12.559-.18s.359-.15.539-.22l.13-.049.209-.1c.11-.02.24-.05.35-.06l.409-.03c.289-.02.579-.04.868-.05.19-.01.38-.01.569-.01h.519l.27.01h.209l.459.01h.16c1.148-.01,2.306-.12,3.434-.23l.419-.019a.953.953,0,0,0,.169-.01h.01l-.059-.02c.778-.07,1.547-.16,2.325-.25l1.258-.14c.918-.06,1.826-.1,2.744-.129h2.595c.35,0,.689,0,1.038-.01.569-.01,1.148-.01,1.727-.01l.569.01c.379,0,.769-.01,1.148-.02a25.742,25.742,0,0,0,2.645-.21l.1-.02.419-.05c.209,0,.419-.01.629-.01.558,0,1.137.03,1.846.09.419.04.888.06,1.417.06.509,0,1.008-.01,1.507-.03.23-.01.45-.01.669-.01.4,0,.789.01,1.178.02.319,0,.639.01.958.01l.12.01c.2,0,.4-.01.6-.02h.209l.2-.01c.359-.01.708-.02,1.068-.02.169,0,.349,0,.519.01l.8.04.849.04c1.337.07,2.734.15,4.092.15.259,0,.519-.01.778-.02.24,0,.469-.01.7-.02h.17c.269-.01.549-.02.888-.02.449,0,.9.03,1.357.06l.609.029c1.218.06,2.425.12,3.643.14h.22c.339,0,.668-.01,1.018-.02l.179-.01h.12l.22-.01c.309-.01.619-.02.918-.02.22,0,.439.01.659.02.958.06,1.926.11,2.954.16l.15.01,1.237.06.16.01a45.371,45.371,0,0,1,4.651.409,7.606,7.606,0,0,1,1.318.369,1.48,1.48,0,0,1,.2.14l.679.639c.3.289.639.549.968.818l.12.09.09.1c.08.15.169.3.249.449l.06.11.08.15c.14.239.269.489.409.728.5.809,1.048,1.617,1.557,2.366A31.83,31.83,0,0,0,99.92,15c.409.459.819.928,1.228,1.4.489.558.978,1.117,1.477,1.656.259.28.509.559.749.849l.139.149c.17.19.33.38.5.569a17.46,17.46,0,0,0,1.7,1.527l.21.18a.01.01,0,0,0,.01.01,4.307,4.307,0,0,0,.349.279,2.216,2.216,0,0,0,1.787.33,2.318,2.318,0,0,0,1.447-.988,2.379,2.379,0,0,0,.339-1.8,2.227,2.227,0,0,0-.489-.968c-.03-.01-.07-.02-.1-.03a3.585,3.585,0,0,0-.449-.409l-.858-.689a16.185,16.185,0,0,1-1.418-1.547l-.349-.4-.6-.679c-.449-.489-.888-.978-1.317-1.487q-.42-.508-.869-.988c-.3-.319-.588-.639-.868-.978-.529-.659-1.038-1.338-1.627-2.166C100.359,8,99.82,7.166,99.351,6.288a7.187,7.187,0,0,0-1.068-1.6,6.5,6.5,0,0,0-.928-.8l-.239-.18-.3-.28c-.4-.379-.8-.748-1.228-1.088a6.1,6.1,0,0,0-2.535-.988A31.814,31.814,0,0,0,87.4.729L86.386.679c-.978-.05-1.956-.11-2.934-.19h-.4c-.35-.02-.709-.04-1.068-.04l-.44.02c-.578.03-1.167.05-1.986.05-.858,0-1.736-.04-2.595-.09l-.409-.01C75.5.359,74.449.309,73.391.309c-.329,0-.649,0-.978.02-.359.01-.729.01-1.088.01C70.057.339,68.78.279,67.5.21L66.953.19,66.634.17C66.015.14,65.4.11,64.768.11l-.4.01L63.79.13c-.44.01-.869.02-1.3.02h-.439l-.6-.01L60.446.12c-.22,0-.449,0-.769.02-.419.01-.828.02-1.247.02-.379,0-.769-.01-1.148-.03L56.643.07C56.134.03,55.635,0,55.126,0Z"/>
            <path class="cls-1" d="M105.639,19.562a2.388,2.388,0,0,0,.25,1.737l.03.03a2.457,2.457,0,0,0,1.437,1.058l.719.24a17.162,17.162,0,0,0,2.555.688c.9.15,2.126.35,3.313.609a34.235,34.235,0,0,0,5.909.619l.808.04c.549.03,1.088.03,1.627.03.509,0,1.018,0,1.527.02.429.02.849.05,1.278.09l.16.01c.5.039,1,.069,1.5.079.279.01.549.01.818.01.389,0,.769,0,1.158-.01.369,0,.748-.01,1.208-.01.648,0,1.287-.02,1.926-.059.429-.02.858-.04,1.3-.05,1.148-.03,2.3-.09,3.444-.16,1.118-.06,2.225-.12,3.343-.15l.709-.02c.948-.03,1.906-.06,2.854-.1.8-.04,1.587-.1,2.376-.169l1.1-.08c2.056-.15,4.182-.23,6.058-.29l1.4-.049.459-.01h.159c2.1-.08,4.252-.15,6.388-.18h.539c1.058,0,2.106.04,3.164.08.9.03,1.787.06,2.685.07l.639.01.888-.01h1.667l.459.01h.489c.818.02,1.627.03,2.435.03h.968c.829,0,1.8,0,2.735-.06.369-.01.729-.03,1.088-.05l.379-.03c.719-.05,1.428-.09,2.156-.12.749-.01,1.5-.02,2.246-.02h.459c.3,0,.609,0,.918-.01.7-.01,1.4-.04,2.106-.08l.389-.02,1.2-.06.968-.03.24-.01c.629-.019,1.247-.039,1.876-.039h.18c1.1.01,2.206.039,3.313.069,2.236.08,4.462.09,7.107.09,1.2,0,2.405-.04,3.583-.08l.16-.01c1.157-.049,2.315-.089,3.483-.1,2.146-.01,4.222-.1,6.517-.21.529-.03,1.068-.04,1.6-.04.919,0,1.847.03,2.775.06.689.02,1.387.05,2.076.05l.329.01c.669,0,1.348-.03,2.027-.06.419-.02.838-.04,1.257-.05s.809-.01,1.208-.01h1.237l.979.01h.868c.818,0,1.627,0,2.445.02,1.188.04,2.366.07,3.543.08l1.817.01c1.617.01,3.284.02,4.93.09.889.04,1.777.109,2.695.209.22.02.439.05.659.07l-.01-.01h-.02l-.17-.04c.549.06,1.108.11,1.667.16l.25.03.259.03a2.165,2.165,0,0,0,.619.08.127.127,0,0,0,.06-.01l.269.04.27.03.659.079c.738.08,1.477.17,2.215.23l.469.04c.589.04,1.188.1,1.777.15a26.4,26.4,0,0,0,3.2.259l.18-.01h.279c.739,0,1.537.05,2.445.14a18.6,18.6,0,0,1,3.733.8,12.189,12.189,0,0,1,1.7.919c.12.109.229.209.349.339v.02l.12.12a13.985,13.985,0,0,1,1.008,1.607c.01.03.02.059.03.1.01.27.01.529.03.8.01.06.01.12.02.179.01.04.02.07.03.11l.01.19c.03.22.05.449.06.669.02.379-.01.758-.03,1.2l-.01.11c-.02.12-.02.24-.04.359a5.941,5.941,0,0,0-.01.729,25.3,25.3,0,0,1-.12,2.615c-.05.769-.01,1.527-.06,2.286-.229,1.527-.659,3-.778,4.541.015.142.025.286.032.431.033.275.06.567.077.886l.09.33c.012.177.026.354.04.531a11.331,11.331,0,0,1,.134,1.4q.041.364.086.728l-.02.289-.04.31c.07.189.13.369.22.648l.049.32c.09.6.17,1.147.21,1.706,0,.112,0,.223,0,.335a2.38,2.38,0,0,0,2.613.134,2.207,2.207,0,0,0,1.058-1.447,12.869,12.869,0,0,0,.17-2.235c-.03-.529-.1-1.058-.14-1.6a11.421,11.421,0,0,1,.04-1.547c.03-.42.02-.839.04-1.258.179-1.1.489-2.166.649-3.274a18.252,18.252,0,0,0,.189-2.2c.02-.619-.01-1.238.04-1.867a17.279,17.279,0,0,0,.11-1.767,16.373,16.373,0,0,1,.01-1.716,8.627,8.627,0,0,0,.01-1.607c-.01-.17-.02-.349-.03-.519-.03-.11-.05-.23-.08-.349-.01-.23-.02-.47-.05-.7a5.942,5.942,0,0,0-1-2.765l-.22-.329c-.189-.31-.389-.619-.6-.918a8.983,8.983,0,0,0-3.623-2.8,19.221,19.221,0,0,0-6.8-1.467c-.709-.06-1.4-.08-2.136-.1-.719-.02-1.428-.04-2.136-.1-.849-.1-1.7-.179-2.545-.249l-1.677-.15c-.769-.1-1.527-.19-2.545-.29-.749-.1-1.487-.169-2.266-.239a59.215,59.215,0,0,0-6.238-.4l-1.357-.01-1.457-.01c-1.348-.01-2.7-.01-4.053-.03-1.866-.05-3.743-.08-5.619-.08l-1.248.01c-.618,0-1.237.03-1.856.06l-.519.02c-.369.01-.739.03-1.108.04h-.629c-.708,0-1.427-.02-2.215-.04l-.469-.01-.919-.02c-.658-.02-1.307-.04-1.966-.04l-.339.01c-.8,0-1.6.04-2.4.08l-.4.03-.479.03c-1.118.05-2.236.069-3.4.079-1.148.01-2.316.02-3.464.09-1.766.09-3.533.12-5.3.12-2.3,0-4.611-.05-6.906-.11l-1.737-.04-.968-.02c-1.148,0-2.3.05-3.454.1l-.509.03-1.028.04-1.038.05c-.818.02-1.617.02-2.425.02l-1.258.01c-.608,0-1.217.03-1.826.06l-.389.03c-.439.03-.889.06-1.338.08-1.517.079-3.044.1-4.561.1-.858,0-1.707,0-2.565-.01l-1.777-.02c-1.617,0-3.223-.01-4.83-.069-1.1-.05-2.186-.07-3.274-.07s-2.186.02-3.284.05q-3.548.075-7.1.239l-1.527.06c-.739.03-1.477.06-2.226.11-.918.05-1.846.12-2.755.189l-.878.07c-1.317.09-2.635.13-3.982.16-1.028.03-2.066.06-3.094.12-2.965.169-6.169.329-9.462.329h-1.1c-.739-.01-1.477-.08-2.376-.15-.489-.049-.968-.049-1.457-.059h-1.168c-.778-.01-1.547-.05-2.325-.1l-1.1-.08-1.228-.06a16.6,16.6,0,0,1-1.836-.3l-1.8-.37-.319-.06-.918-.149a9.669,9.669,0,0,1-1.4-.29c-.479-.129-.958-.279-1.447-.439l-.07-.07-.718-.239a1.946,1.946,0,0,0-.579-.09,2.452,2.452,0,0,0-2.256,1.8Zm141.079,3.763c.05.01.11.01.16.02a.875.875,0,0,1-.16-.02Z"/>
            <path class="cls-1" d="M268.317,24.265a2.3,2.3,0,0,0-1.118,1.358,2.522,2.522,0,0,0-.1.958c0,.01.01.02.02.03a1.643,1.643,0,0,0,.269.808,8.342,8.342,0,0,1,.729,1.3c.089.279.159.549.239.828l.01.12c.01.05.02.09.03.14.08.289.16.588.21.878.01.4-.01.8-.02,1.2a13.782,13.782,0,0,0,.025,1.763,6.452,6.452,0,0,1,0,1.031,8.947,8.947,0,0,0-.18,1.557,15.979,15.979,0,0,0,.1,1.827c.07.878.05,1.746.04,2.635a24.971,24.971,0,0,0,.139,2.724v-.01a.06.06,0,0,0,.01.04v.06c.009.1.017.193.025.285v-.014c.186,2.292.206,4.594.206,6.895-.01,1.268.15,2.526.06,3.793a24.786,24.786,0,0,0,.349,5.08,2.26,2.26,0,0,0,1.038,1.458,2.332,2.332,0,0,0,1.767.3,2.416,2.416,0,0,0,1.128-.619,20.49,20.49,0,0,1-.2-2.046,2.879,2.879,0,0,1,.03-.571V57.8l.04-.28-.03-.6-.03-.429a5.224,5.224,0,0,1-.02-1.118l-.06-.279-.04-1.367a1.259,1.259,0,0,1,.04-.27l-.06-.329c0-.163-.009-.327-.016-.492a6.731,6.731,0,0,1-.055-.962l-.029-.453c.05-.439.1-.868.14-1.207.03-.19.05-.38.07-.6a7.2,7.2,0,0,1-.07-1.867l.06-.479a5.552,5.552,0,0,1,.379-1.726c-.06-.929-.129-1.857-.219-2.775a19.206,19.206,0,0,1-.02-2.146,21.913,21.913,0,0,0-.09-2.565,12.166,12.166,0,0,1,.01-2.335,4.733,4.733,0,0,0,.13-1.009,11.224,11.224,0,0,0-.07-1.157,14.861,14.861,0,0,1,.03-1.637l.01-.34a8.572,8.572,0,0,0-.29-2.485c0-.094-.008-.191-.014-.287a10.6,10.6,0,0,0-1.433-3.406,2.53,2.53,0,0,0-1.367-1.118,2.33,2.33,0,0,0-.689-.1,2.3,2.3,0,0,0-1.118.279Zm.29,9.282,0,.071c0-.022,0-.046,0-.071Z"/>
            <path class="cls-1" d="M268.74,43.664c0-.051-.009-.1-.014-.152l0-.056c.006.07.012.139.019.208Z"/>
            <path class="cls-2" d="M195.624,27.309c-.545.026-1.089.033-1.634.033h-.519c-.387,0-.775,0-1.162,0-1.191.011-2.383.11-3.7.227l-.234.018c-.928.077-1.89.158-2.833.194-2.346.08-4.681.1-6.859.113-1.462,0-2.943.11-4.375.212l-.132.011-.343.022c-.808.059-1.619.117-2.434.157l-.994.048-.3.011c-1.06.051-2.157.106-3.235.11l-1.265-.033c-.814-.022-1.629-.044-2.448-.044l-.245,0c-.629,0-1.257.03-1.882.059l-.19.011c-.574.029-1.148.058-1.722.069-.858-.025-1.783-.087-2.905-.193-.545-.055-1.089-.1-1.637-.143s-1.1-.088-1.641-.142c-1.177-.125-2.233-.191-3.227-.2-.275-.008-.545-.008-.819-.008-.512,0-1.027.008-1.546.015l-.486,0c-.315,0-.625.007-.94.007-.475-.011-.95-.026-1.454-.04L143.5,27.8l-.639-.032-.273,0,.094.021c-.443-.011-.881-.014-1.324-.014-.8,0-1.589.01-2.386.025l-1.429.022-.844-.033c-.549-.018-1.093-.033-1.638-.033-.3,0-.607.007-.91.022-.906.04-1.856.062-2.986.069a14.629,14.629,0,0,0-1.78.147c-.478.055-.968.113-1.454.131-1.093.03-2.193.114-3.319.2l-.252.018c-.628.044-1.257.073-1.907.1-.487.022-.976.044-1.463.077-1.2.073-2.4.153-3.632.238-1.079.065-2.175.087-3.286.113-1.005.022-2.006.044-3.011.1-.4.018-.794.029-1.192.044l-.4.015c-.373.007-.746.018-1.119.036-.3.007-.592.037-.9.073l-.329.037c-.376.036-.76.051-1.144.066l-.383.014c-1.988.081-3.969.2-5.954.318-.987.059-1.977.095-2.967.128-.417.011-.83.033-1.247.059l-.2.007c-.6.029-1.2.062-1.8.066-.906,0-1.827.036-2.719.076l-.139.008c-.782.036-1.59.073-2.419.073-.094,0-.189,0-.284-.008h-.121l.087,0h-.078l.078.022-.366,0c-.606,0-1.209.008-1.816.026l-.3,0-.3,0-.3,0h-.311l-.249,0h-.244l-.417,0-.416,0-.563,0-.892,0-.362,0-.409-.007-.124-.021h-.09l.049.022c-.519-.011-1.038-.033-1.567-.059-.684-.029-1.364-.055-2.047-.055-.187,0-.369,0-.556.008-.416.011-.836.025-1.253.04-.782.029-1.565.055-2.35.062-.8-.015-1.6-.04-2.42-.066-1.074-.036-2.149-.069-3.223-.069l-.494,0c-.943,0-1.9.054-2.825.105l-.219.011c-.958.055-1.948.11-2.924.117L60,30.105c-.651-.022-1.3-.044-1.948-.044-.175,0-.347,0-.526.007-.954.015-2.2.04-3.439.114-2.219.124-4.4.153-6.246.164l-2-.037-1.623-.032L43.2,30.242l-.523-.005.124.021-.285-.011-.3-.014h-.007c-.595-.026-1.2-.07-1.831-.117-.387-.03-.767-.059-1.151-.077-.508-.033-1.012-.044-1.52-.044-.454,0-.9.007-1.364.015-.336.007-.672.014-1.008.018L34.563,30l-.219-.011c-.446-.015-.892-.029-1.341-.029-.355,0-.709.011-1.067.036-.633.04-1.28.128-1.948.223l-.348.044-.657.088a17.7,17.7,0,0,0-2.844.581c-.439.128-.87.274-1.3.424l-.157.051-.483.161-.164.058c-.672.223-1.345.45-2,.709a9.827,9.827,0,0,0-1.561.738,5.719,5.719,0,0,0-1.088.947.423.423,0,0,1-.106.086,7.893,7.893,0,0,0-1.02,1.679c-.165.326-.337.647-.5.972-.212.428-.365.881-.534,1.327a2.341,2.341,0,0,0,4.291,1.875,22.011,22.011,0,0,1,1.2-2.653c.066-.088.132-.172.2-.253.04-.036.084-.065.128-.1a23.49,23.49,0,0,1,2.73-1.005c.764-.249,1.524-.523,2.3-.746.855-.186,1.744-.267,2.606-.373a25.625,25.625,0,0,1,2.631-.245c.852.03,1.7.066,2.555.066.632,0,1.268-.025,1.9-.036.87.033,1.733.12,2.6.175,1.166.07,2.325.077,3.49.077,1.053.018,2.106.062,3.158.088,1.29.029,2.573-.008,3.86-.019,2.58-.025,5.157-.252,7.733-.252,1.667.033,3.326.1,5,0,1.407-.088,2.814-.161,4.221-.169,1.554.03,3.1.114,4.657.132.9.011,1.812-.018,2.715-.048.775-.025,1.553-.051,2.332-.054,1.152.035,2.3.086,3.461.106h-.194l.326,0h.1c.069,0,.135,0,.205,0-.07,0-.136,0-.205,0h1.86c.249,0,.5,0,.746,0,.179,0,.361,0,.541,0a2.409,2.409,0,0,0,.563,0,.028.028,0,0,1,.018,0h.8c.672-.007,1.341-.033,2.014-.037,1.213,0,2.423-.029,3.64-.084.537-.025,1.071-.076,1.611-.084.644-.007,1.29,0,1.934-.018,2.46-.084,4.926-.2,7.382-.373,1.236-.087,2.467-.135,3.706-.179,1.1-.04,2.19-.164,3.286-.212,2.16-.1,4.32-.153,6.48-.2,1.663-.036,3.315-.2,4.978-.281.774-.037,1.553-.124,2.328-.146.9-.022,1.805-.081,2.7-.15.855-.066,1.707-.117,2.562-.143.83-.029,1.641-.146,2.463-.23.757-.077,1.524-.059,2.288-.066.72-.007,1.437-.058,2.16-.077,1.111.026,2.219.077,3.333.055s2.2-.04,3.3-.04c.255,0,.507.007.76.007.961.019,1.922.073,2.887.088,1.188.011,2.375-.022,3.563-.026,1.086.03,2.164.1,3.246.216,1.257.128,2.522.208,3.783.333a31.2,31.2,0,0,0,4.213.128c1.177-.041,2.354-.11,3.535-.125,1.224.022,2.445.077,3.672.077,1.06,0,2.117-.047,3.173-.1,1.228-.062,2.456-.117,3.684-.219s2.445-.212,3.673-.237c2.266-.048,4.528-.066,6.79-.1,1.1-.015,2.2-.088,3.3-.172,1.136-.088,2.276-.215,3.417-.259q1.359-.056,2.726-.048c.5,0,1-.011,1.506-.025.4-.015.807-.026,1.213-.03,1.137.033,2.274.095,3.414.1.8.022,1.6.084,2.405.11.731.025,1.461.014,2.192,0,.362-.008.724-.011,1.086-.015.406,0,.811.007,1.221.007,1.483.018,2.971.011,4.455-.007.745.018,1.487.058,2.233.08s1.48.011,2.222,0c.347-.007.694-.011,1.045-.014,1.641.04,3.282.15,4.927.175.979.015,1.962.062,2.945.088,1.17.029,2.34.025,3.509.022l1.067.011c1.663.044,3.318.19,4.985.241,1.129.033,2.255.066,3.388.044.848-.018,1.7-.07,2.555-.088.782.022,1.56.084,2.343.106.647.018,1.3,0,1.947-.011.421-.015.841-.022,1.265-.025.442,0,.881,0,1.323,0,.683.022,1.363.08,2.047.149.87.081,1.747.092,2.62.095.8.011,1.6.011,2.4.011.347,0,.695,0,1.042,0,1.1.036,2.2.172,3.293.314s2.207.256,3.285.493c.46.14.914.289,1.373.425l-.02,0c.124.036.248.077.369.12a9.438,9.438,0,0,0,.873.962c.2.182.392.369.585.555.062.07.117.143.172.219,0,.033,0,.063,0,.095a2.262,2.262,0,0,0,.863,1.535,2.335,2.335,0,0,0,3.289-.372A2.247,2.247,0,0,0,270.265,36v.128a3.58,3.58,0,0,0-.2-1.689,5.592,5.592,0,0,0-.475-.846l0,.006c-.073-.125-.147-.249-.227-.366a5.675,5.675,0,0,0-.771-.84l-.262-.254,0,.023-.362-.343-.164-.2-.088-.1c-.081-.095-.157-.186-.237-.274a4.119,4.119,0,0,0-1.638-1.2,11.093,11.093,0,0,0-1.078-.322l-.563-.171a14.611,14.611,0,0,0-1.853-.49c-.676-.128-1.367-.216-2.076-.3l-.752-.095c-.9-.12-1.956-.252-3-.292-.332-.015-.661-.018-.994-.018-.384,0-.767,0-1.155.01-.343.008-.687.011-1.034.015l-.387-.007-1.009-.015c-.684-.018-1.36-.077-2.036-.135l-.559-.044c-.727-.066-1.433-.069-2.036-.069h-.584l-.212,0-.432,0c-.493,0-.99.007-1.5.014-.373.008-.75.015-1.126.018-.369-.014-.735-.029-1.1-.047-.654-.029-1.312-.058-1.97-.058l-.376,0c-.435,0-.874.019-1.313.033l-.27.011c-.6.022-1.2.04-1.8.048-1.155-.03-2.3-.084-3.454-.143l-.212-.011c-.974-.047-1.967-.1-2.958-.141-.21,0-.42-.01-.63-.013l.1.019q-.669-.01-1.338-.011l-.771,0c-.336,0-.676,0-1.012,0-1.539-.026-3.2-.077-5.4-.165-.943-.04-1.882-.076-2.851-.113-.289-.011-.578-.014-.866-.014-.439,0-.877.007-1.316.018l-.329,0c-.219,0-.439.008-.661.008-.351-.011-.7-.026-1.089-.04-.666-.03-1.331-.055-2-.055l-.358,0-1.071.015c-.618.011-1.228.022-1.846.022l-.537-.015c-.328-.005-.658-.011-.987-.029l-.279,0,.064.021c-.048,0-.095,0-.143,0h-.164l-.326,0c-.423,0-.844.011-1.279.018l-.38,0c-.244,0-.486.007-.727.007-.585-.014-1.166-.036-1.751-.073-.771-.047-1.545-.051-2.335-.051l-1-.04c-.7-.029-1.4-.055-2.109-.055-.321,0-.647,0-.972.022ZM134.9,32.367h0ZM81.126,34.651h0Z"/>
            <path class="cls-3" d="M54.931,4.607c-.212,0-.421,0-.633.011l-.421.051-.1.012c-.865.1-1.759.2-2.642.215-.384.011-.768.015-1.152.015l-.574,0c-.577,0-1.151,0-1.725.011-.343.011-.687.011-1.03.011l-.834,0-.884,0c-.3,0-.587,0-.882.008-.92.022-1.83.062-2.748.124L40.052,5.2c-.775.091-1.546.179-2.325.252l.1.019-.629.028c-1.129.107-2.29.216-3.439.223l-.157,0-.46-.007-.212,0-.265,0c-.173,0-.346-.007-.521-.007-.19,0-.38,0-.571.011-.285.015-.573.033-.862.051l-.413.026c-.114.018-.235.04-.345.066l-.217.095L29.607,6c-.178.074-.357.15-.544.218s-.372.12-.558.175l-.169.051a7.286,7.286,0,0,1-1.627.27,5.432,5.432,0,0,0-.693.15l-.117.056a6.6,6.6,0,0,1-1.014.6l-.248.1-.124.051c-.143.054-.289.113-.428.179a8.658,8.658,0,0,0-1.017.56c-.153.125-.293.263-.433.4l-.084.082c-.1.1-.2.205-.31.3-.13.127-.268.242-.4.355-.174.142-.295.241-.411.347l-.123.185-.056.082a4.66,4.66,0,0,1-.294.4,6.676,6.676,0,0,0-.571.758,10.43,10.43,0,0,0-.52,1.633c-.066.435-.1.87-.139,1.306-.036.464-.077.924-.15,1.384l-.077.49a17.132,17.132,0,0,0-.27,2.611c0,.384,0,.767,0,1.147v.258c0,.6-.007,1.2.008,1.789l.026.837c.022.678.044,1.344.044,2.014,0,1.056-.057,2.166-.1,3.058-.035.727-.017,1.461,0,2.171l0,.111.019.793c0,.3,0,.609,0,.913l0,.227,0,.126c-.007.538-.014,1.094.016,1.639l.015.293a.4.4,0,0,0,.138-.1,5.755,5.755,0,0,1,1.09-.945,9.551,9.551,0,0,1,1.559-.737c.657-.26,1.33-.486,2-.709l.165-.059.482-.16.16-.055c.429-.147.859-.294,1.3-.421a17.994,17.994,0,0,1,2.846-.584c.219-.026.436-.056.655-.085l.35-.047c.669-.091,1.313-.18,1.947-.222.358-.026.712-.037,1.067-.037.448,0,.894.016,1.339.032l.221.008.778.029c.337,0,.673-.01,1.009-.018.46-.007.912-.014,1.364-.014.507,0,1.012.011,1.52.043.384.022.766.05,1.15.078.637.047,1.236.09,1.832.116l.3.015.284.011-.207-.034,1.622.052,1.622.033,2,.036c1.843-.011,4.027-.038,6.246-.164,1.234-.072,2.486-.1,3.439-.113.178,0,.352-.008.526-.008.65,0,1.3.022,1.948.044l.833.026c.974-.007,1.965-.062,2.924-.116L63.979,30c.926-.048,1.883-.1,2.827-.106l.493,0c1.074,0,2.148.033,3.223.07.824.026,1.62.051,2.419.065.787-.007,1.569-.032,2.351-.062.417-.014.837-.029,1.254-.04.186-.007.369-.007.555-.007.683,0,1.363.029,2.046.058.53.022,1.049.044,1.568.055l-.1-.04.264.04.41.007.362,0,.892,0,.563,0,.416,0,.417,0h.244l.249,0h.311l.3,0,.3,0,.3,0c.607-.018,1.21-.025,1.816-.025l.366,0-.167-.045a3.412,3.412,0,0,0,.485.026c.829,0,1.637-.036,2.419-.073l.138-.006c.893-.038,1.813-.078,2.72-.078.6,0,1.2-.033,1.8-.063l.2-.01c.416-.026.829-.048,1.246-.058.99-.033,1.981-.07,2.968-.129,1.984-.12,3.965-.237,5.953-.317l.384-.015c.384-.015.766-.029,1.144-.066l.329-.036c.308-.034.6-.066.9-.073.373-.019.745-.03,1.118-.037l.4-.013c.4-.013.8-.026,1.192-.045,1-.059,2.006-.081,3.011-.1,1.11-.022,2.209-.045,3.286-.113,1.232-.084,2.431-.165,3.633-.238.487-.032.976-.054,1.462-.075.65-.031,1.279-.06,1.908-.1l.252-.018c1.124-.083,2.227-.165,3.318-.2.487-.018.977-.076,1.454-.132a14.83,14.83,0,0,1,1.78-.146c1.13-.007,2.08-.029,2.987-.07q.455-.021.909-.021c.545,0,1.089.018,1.637.036l.844.029,1.43-.022c.8-.014,1.59-.025,2.386-.025.442,0,.881,0,1.323.014l-.145-.029.964.046.965.027c.5.016.978.03,1.454.041.315,0,.626,0,.94-.008l.486,0c.52-.008,1.033-.015,1.546-.015.274,0,.544,0,.818.007,1,.015,2.052.082,3.227.205.544.055,1.093.1,1.641.142s1.092.088,1.637.143c1.125.107,2.048.168,2.906.194.574-.011,1.148-.041,1.722-.07l.188-.009c.628-.03,1.256-.06,1.884-.06l.245,0c.819,0,1.634.022,2.448.044l1.265.033c1.079,0,2.174-.056,3.233-.107l.3-.014.994-.047c.814-.039,1.625-.1,2.435-.155l.343-.024.132-.01c1.433-.1,2.913-.21,4.374-.213,2.177-.011,4.515-.032,6.86-.114.944-.033,1.9-.114,2.832-.192l.235-.02c1.319-.115,2.509-.212,3.7-.226.387,0,.775,0,1.162,0h.519c.545,0,1.09-.007,1.635-.033.325-.018.65-.022.971-.022.7,0,1.407.026,2.109.055l1,.04c.791,0,1.565,0,2.335.052.585.036,1.166.058,1.751.073.241,0,.483,0,.728-.007l.38,0c.434-.008.854-.015,1.278-.019l.326,0h.164c.048,0,.095,0,.142,0l-.126-.041c.441.037.886.046,1.33.055l.536.011c.616,0,1.229-.01,1.845-.022l1.072-.014.358,0c.665,0,1.33.026,2,.055.388.015.739.029,1.089.04.224,0,.443,0,.662-.007l.329,0c.439-.011.877-.018,1.316-.018.288,0,.577,0,.866.015.968.037,1.909.073,2.85.113,2.2.088,3.861.139,5.4.164.336,0,.676,0,1.012,0l.771,0q.669,0,1.338.011l-.186-.033c1.228.05,2.467.11,3.676.169l.212.01c1.151.059,2.3.114,3.454.143.6-.007,1.2-.026,1.8-.048l.272-.009c.438-.016.874-.031,1.311-.034l.376,0c.658,0,1.315.029,1.969.058.366.019.731.033,1.1.048.377,0,.754-.011,1.127-.018.516-.008,1.011-.015,1.5-.015l.432,0,.212,0h.584c.6,0,1.308.005,2.035.069l.559.044c.677.059,1.353.117,2.037.136l1.009.014.387.008c.347,0,.691-.008,1.035-.015.387-.007.77-.011,1.154-.011.332,0,.662,0,.994.018,1.049.041,2.1.172,3,.293l.753.094c.709.087,1.4.175,2.076.3a15.164,15.164,0,0,1,1.855.49l.563.175a10.138,10.138,0,0,1,1.077.321,4.112,4.112,0,0,1,1.638,1.2c.08.089.158.181.237.274l.088.1.164.2.363.344a2.928,2.928,0,0,0,.058-.448l.009-.114a11.087,11.087,0,0,0,.037-1.2c-.015-.219-.037-.442-.059-.662l-.018-.193c-.07-.276-.147-.55-.235-.825a7.468,7.468,0,0,0-.732-1.3,1.709,1.709,0,0,1-.269-.815c-.116-.122-.229-.229-.346-.331a12.457,12.457,0,0,0-1.695-.926,18.98,18.98,0,0,0-3.734-.794c-.91-.091-1.711-.135-2.446-.135h-.282l-.175,0a26.306,26.306,0,0,1-3.2-.255c-.592-.055-1.188-.107-1.78-.154l-.472-.04c-.74-.061-1.474-.147-2.211-.233l-.661-.078-.267-.029-.27-.033h-.057a2.241,2.241,0,0,1-.626-.073l-.253-.029-.252-.03c-.559-.051-1.115-.1-1.67-.16l.388.084c-1.22-.167-2.377-.264-3.536-.315-1.646-.069-3.316-.076-4.931-.084l-1.816-.014c-1.18-.011-2.361-.041-3.541-.077-.819-.026-1.634-.026-2.445-.026l-.293,0h-.292l-.288,0-.98,0c-.427,0-.83-.008-1.232-.008s-.808,0-1.213.011c-.421.015-.841.033-1.258.051-.676.03-1.352.059-2.028.059l-.325,0c-.693-.007-1.385-.029-2.078-.051-.926-.029-1.851-.058-2.772-.058-.534,0-1.067.007-1.6.033-2.3.111-4.37.2-6.513.215-1.165.008-2.326.051-3.487.095l-.159.006c-1.175.042-2.389.086-3.583.086-2.647,0-4.869-.015-7.108-.088-1.1-.037-2.211-.066-3.315-.077h-.179c-.624,0-1.246.023-1.87.046l-.243.009-.965.033c-.4.014-.8.034-1.2.054l-.39.019c-.7.04-1.4.077-2.1.084-.307,0-.614.007-.92.008l-.458,0c-.749,0-1.5,0-2.248.022-.718.022-1.432.069-2.15.116l-.38.023c-.361.023-.723.046-1.084.062-.941.048-1.913.055-2.741.055l-.343,0h-.344l-.274,0c-.814,0-1.627-.013-2.441-.026l-.486-.007-.461-.008-.709,0-.961,0-.881.008-.643-.008c-.894-.007-1.789-.04-2.683-.072-1.056-.041-2.109-.081-3.161-.081l-.541,0c-2.135.028-4.3.1-6.393.173l-.16.006-.453.014-1.4.048c-1.878.062-4.007.132-6.057.285l-1.1.088c-.789.062-1.582.124-2.375.16-.954.048-1.908.077-2.862.107l-.705.018c-1.119.033-2.23.091-3.345.153-1.15.062-2.3.125-3.442.154-.435.014-.866.033-1.3.055-.64.032-1.279.062-1.918.062-.461,0-.841,0-1.218.007s-.767.007-1.151.007c-.274,0-.544,0-.818-.007-.5-.01-1-.046-1.5-.083l-.164-.012c-.424-.033-.852-.066-1.28-.088-.508-.022-1.012-.022-1.52-.022-.541,0-1.086,0-1.626-.029l-.812-.036a34.955,34.955,0,0,1-5.908-.622c-1.185-.261-2.418-.463-3.319-.61a16.449,16.449,0,0,1-2.552-.692l-.721-.236a2.451,2.451,0,0,1-1.431-1.056l-.216-.179a16.555,16.555,0,0,1-1.693-1.533c-.17-.184-.336-.373-.5-.563l-.134-.153c-.245-.285-.494-.57-.749-.848-.505-.541-.994-1.1-1.48-1.659-.406-.468-.815-.932-1.232-1.393a31.885,31.885,0,0,1-2.6-3.328c-.517-.749-1.064-1.553-1.56-2.368-.143-.238-.277-.481-.41-.725l-.08-.144-.062-.115c-.082-.149-.164-.3-.249-.445l-.088-.1-.122-.1c-.332-.263-.665-.526-.972-.818L93.1,6.229c-.063-.049-.13-.095-.2-.141a7.123,7.123,0,0,0-1.322-.362,43.845,43.845,0,0,0-4.645-.412l-.169-.009L85.537,5.24l-.151-.008c-1.024-.053-1.99-.1-2.956-.16-.22-.012-.439-.015-.658-.015-.3,0-.606.009-.91.019l-.227.006-.114,0-.179.007c-.35.012-.687.022-1.019.022l-.223,0c-1.213-.019-2.426-.077-3.64-.136l-.614-.033c-.453-.029-.906-.054-1.359-.062-.338,0-.615.01-.883.02l-.167.006q-.351.017-.7.022c-.26.007-.519.011-.779.011-1.365,0-2.751-.075-4.092-.147l-.852-.043-.793-.04C65.048,4.7,64.872,4.7,64.7,4.7c-.355,0-.71.011-1.068.022l-.2.008-.2,0c-.2.007-.4.013-.607.013l-.117,0c-.318,0-.639-.007-.957-.014-.392-.011-.783-.022-1.174-.022-.222,0-.446,0-.669.011-.5.021-1,.036-1.509.036-.53,0-1-.019-1.421-.058-.7-.063-1.285-.092-1.839-.092Z"/>
            <path class="cls-4" d="M246.459,34.338c-.378,0-.757.01-1.135.02-.572.02-1.121.03-1.66.03-1.059,0-2.017.01-2.957.1l-.551.121-.29.059-.282.059a16.631,16.631,0,0,1-2.05.28c-.519.05-1.047.07-1.675.07-.4,0-.8-.01-1.193-.02l-.383-.01h-.58l-.578-.01c-.54,0-1.079.01-1.619.04l-.388.01c-.839.04-1.667.07-2.5.07s-1.586-.04-2.324-.08l-.729-.04c-.543-.032-1.087-.038-1.63-.045l-.407,0-.409-.01-.609-.01h-3.234c-.8,0-1.658.01-2.528.09l-.718.06-.6.06c-.468.04-.937.08-1.406.09q-.539.03-1.077.03l-.593,0-.595-.005-.538-.01-.5-.01c-.57,0-.919,0-1.279.01H209.1l-.281.01-.319.01h-.618c-1.287-.01-2.385-.04-3.482-.08l-.819-.02-.309-.01-2.156-.07c-.619-.01-1.237-.05-1.856-.1l-.459-.03-.878-.06c-1.159-.08-2.367-.109-3.595-.109-.979,0-2.017.019-3.065.059l-.63.04-.628.03q-1.049.06-2.095.09c-.28.01-.559.01-.838.01-.778,0-1.577-.02-2.355-.04l-2.465-.09c-1.467-.06-2.925-.109-4.382-.129l-2.116-.03c-1.657-.03-3.284-.05-4.921-.07h-.878c-.749,0-1.5,0-2.246.01-.8.02-1.477.02-2.156.02-.529,0-1.057-.01-1.576-.02-1.943-.031-3.732-.06-5.53-.06-2.761,0-5.249.059-7.607.18-.728.049-1.546.059-2.564.059-.648,0-1.3,0-1.936-.01-.781-.01-1.493-.02-2.216-.02-1.168.01-2.336.05-3.514.1l-.4.01c-.788.03-1.587.06-2.385.07-.34.01-.689.01-1.028.01-.591,0-1.172-.01-1.763-.019h-.3c-.7-.01-1.4-.02-2.086-.02l-.659.01h-.648c-1.378.04-2.745.06-4.123.07l-.678.01-2.406.03c-1.307.03-2.625.03-3.942.03h-2.285c-2.539,0-5.262.02-7.967.17-.346.027-.682.045-1.022.063l-.485.026-.728.03-1.128.05-.978.05c-.788.05-1.586.09-2.384.1l-1.188.02-.549.01-.6.01c-1.53.025-2.968.049-4.39.12-.619.03-1.238.06-1.847.08-1.258.049-2.815.119-4.282.229l-.64.06-.629.06-.6.06-.4.032c-.265.022-.531.044-.8.058l-.31.02-.581.044c-.823.062-1.608.122-2.394.2-2.348.235-4.365.378-6.346.449-2.1.08-4.171.09-6.477.1-1.616,0-3.193-.08-4.719-.17l-.329-.02-1.907-.1c-1.008-.06-2.017-.1-3.025-.13-.329-.01-.669-.01-1-.01-.527,0-1.054.01-1.581.02l-.655.01h-.858c-1.216,0-2.432-.03-3.658-.059l-.419-.013-1.461-.038h-.54l-.538-.01c-.74,0-1.479.019-2.228.039l-1.186.021c-.509,0-1.018-.01-1.517-.02l-.759-.01-.988-.01-1.348.01H41.233c-.808,0-1.876,0-2.913-.06l-.409-.03c-.369-.02-.728-.04-1.087-.08l-.429-.04h-.272a4.061,4.061,0,0,0-.849-.089,24.668,24.668,0,0,0-2.657.179l-.34.04-.559.07-.549.06a14.853,14.853,0,0,0-2.791.83,1.444,1.444,0,0,1-.529.078,2.627,2.627,0,0,1-1.107-.267,2.064,2.064,0,0,0-.44.119l-.249.1c-.379.159-.767.309-1.155.458a5.636,5.636,0,0,0-.658.423l-.458.319-.45.33-.282.272A11.3,11.3,0,0,0,21.927,41.3c-.36.93-.64,1.9-.91,2.848l-.15.549-.2.648a20.608,20.608,0,0,0-.63,2.429A9.017,9.017,0,0,0,20,48.947a4.618,4.618,0,0,1,.06.5,3.7,3.7,0,0,1,.03.646,10.761,10.761,0,0,1,.1,1.149c.01.23.01.458,0,.687v.3a17.12,17.12,0,0,0,.04,1.728l.06.322a11.016,11.016,0,0,1,.179,1.523c.01.41.03.819.05,1.219.05.918.1,1.837.18,2.755.05.559.069,1.117.079,1.676.023.709.034,1.052.06,1.378l.03.36c.058,1.056.109,1.992.1,2.9,0,.319,0,.628-.01.948a18.725,18.725,0,0,0,.02,1.978l.03.32a24.059,24.059,0,0,1,.12,2.433c-.01.559.02,1.129.05,1.7l.02.34q.03.478.03.956l.01.38c0,.789.01,1.6.079,2.378a7.521,7.521,0,0,1,.12,1.443c-.01.221-.02.439-.04.658-.02.24-.04.49-.05.74-.01.109-.02.23-.02.35a6.157,6.157,0,0,0-.049.9l.009.5v.449c0,.29.02.58.05.88l.04.459c.024.339.04.572.04.8.01.519.01.888,0,1.257a9.853,9.853,0,0,1-.149,1.334q-.225,1.859-.36,3.506l-.02.39-.02.389a6.959,6.959,0,0,1-.039.777,14.612,14.612,0,0,1-.21,1.555l-.041.487-.039.454-.04.459-.02.46-.05.468a12.586,12.586,0,0,0,.08,2.381,19.044,19.044,0,0,1,.1,2.462l.01.41c.02.309.03.479.03.638a5.947,5.947,0,0,1-.03.6c-.01.183-.02.362-.02.542l-.01.388c-.01.28-.02.56-.01.83l.05,1.118.02.778.02.38c.01.509.02,1.008.04,1.517.079,1.657.109,3.314.139,5.15l.01.29c.01.9-.05,1.794-.109,2.672l-.03.349c-.04.609-.06,1.218-.08,1.827l-.02.589-.03.6c-.02.469-.03.929-.03,1.4,0,.8-.01,1.4-.05,2a17,17,0,0,0,0,1.749c.02.459.03.917.02,1.366l-.01.478-.01.48-.01.479c0,.49-.01.968-.03,1.447l0,.3-.015,1.477c0,.2.009.392.019.592.021.327.021.556.021.785-.02,1.117-.05,2.255-.09,3.373-.04,1.068-.06,2.216-.06,3.6l.02.47.01.468a19.4,19.4,0,0,1,.02,2.264,22.984,22.984,0,0,0,.04,3.586,30.752,30.752,0,0,1,.14,3.192,25.911,25.911,0,0,0,.06,2.947c.09.968.179,2.125.189,3.312.01.4.01.8.01,1.207,0,.649,0,1.3.03,1.948l.06,1.277c.094,1.662.189,3.591.14,5.458-.02.749-.02,1.5-.02,2.256v.878c.007.3,0,.6-.011.9l-.009.3-.02.3c-.03.57-.06,1.219-.04,1.849l.04.878.02.34.008.3c.019.631.037,1.241,0,1.835l-.06,1.9-.03,1.078a22.684,22.684,0,0,0,.108,2.345l.032.472.03.42c.036.469.064.954.091,1.426.029.449.029.658.029.857-.01.37-.01.62,0,.86.04.668.02,1.366,0,1.984l-.01.419c0,.181,0,.381.01.571.011.263.019.461.01.677a11.461,11.461,0,0,1-.14,1.194,24.283,24.283,0,0,0-.09,3.439l.1,1.131.041.5c.02.209.02.418.02.626s.01.4.02.6a8.9,8.9,0,0,1,.04,1.036l.306.327a7.418,7.418,0,0,1,.516.764,3.679,3.679,0,0,1,.437.784,6.4,6.4,0,0,1,.43.662l.233.274a7.183,7.183,0,0,1,.6.757l.4.267.231.12a7.381,7.381,0,0,0,.963.381l.263.041h0a4.26,4.26,0,0,0,.489.11,2.947,2.947,0,0,1,.539.03c.29.06.411.085.527.119.443-.021.8-.039,1.165-.039a4.67,4.67,0,0,1,.645.05l.48.05a8.05,8.05,0,0,1,1.7.139l.275.044a20.945,20.945,0,0,0,2.084.256,3.935,3.935,0,0,0,.491.02c.189,0,.388,0,.577.01a5.518,5.518,0,0,1,.8.1l.361.05c.349.06.709.1,1.059.13l.263-.01.324.08c.345-.03.674-.05,1-.05a4.426,4.426,0,0,1,.646.04l.29.03c.684-.09,1.252-.129,1.77-.15.307,0,.516.01.715.03l.269.03a16.907,16.907,0,0,1,2.279-.169c.329,0,.667.02,1,.05l.39.02.409.029c.459.01.738.02,1.027.05.34.03.7.04,1.05.04h.4l.661-.06c.538-.049,1-.089,1.465-.089.209,0,.427.01.646.029.829.08,1.548.12,2.2.14.2-.01.4-.02.59-.02.418,0,.847.02,1.265.06.51.04,1.03.06,1.759.06l.429.01c.311-.02.58-.02.859-.02h0c.208,0,.416,0,.624.02.152,0,.3.01.45.02l.678.05.46.03c.908.04,1.816.09,2.714.15q1.393.088,2.785.209c.689.05,1.409.08,2.278.08h.528l.4-.03.389-.03c.664-.046,1.021-.071,1.386-.08.409-.01.818-.01,1.227-.01h.759c.638-.03,1.275-.04,1.913-.05.743-.039,1.462-.079,2.191-.129.29-.03.59-.07.889-.11a10.375,10.375,0,0,1,1.2-.12c.37-.02.7-.02,1.038-.02q.837,0,1.675.03c.66.02,1.1.03,1.528.03h.29c.46-.02.918-.02,1.387-.02.409,0,.818,0,1.227.01h1.857l.381-.03c.709-.04,1.388-.08,2.067-.14.908-.1,1.805-.129,2.483-.139.372-.03.752-.08,1.121-.13l.34-.05c.379-.06.768-.11,1.146-.15.924-.089,1.847-.1,2.74-.109l.652-.01c.789-.04,1.587-.05,2.375-.05.589,0,1.177.01,1.756.02H104.6l.579.01c.36,0,.729,0,1.089-.01s.7-.04,1.038-.05l.529-.01.789-.05c.778-.06,1.506-.11,2.224-.11l1.318.01h1.068l.529-.01.539-.02c.719-.04,1.417-.07,2.116-.08l.53-.04.479-.03q.508-.03,1.017-.03c.488,0,.927.02,1.365.05l.31.02c1.288.1,2.226.13,3.085.13l.889-.02.639-.02.58-.03c.958-.05,1.846-.08,2.754-.1.919-.04,1.759-.08,2.578-.19.728-.109,1.6-.229,2.473-.3,1.228-.109,2.484-.119,3.691-.119.59,0,1.179,0,1.768-.02l.879-.04c.448-.01.9-.03,1.347-.05l.549-.03c.578-.03,1.137-.05,1.695-.05h.32c.329.01.658.01.978.01s.659,0,.979-.01l.36-.02.359-.02.34-.03c.767-.05,1.446-.09,2.114-.09a11.277,11.277,0,0,1,1.155.05c1.407.133,2.819.2,4.2.2h.608c.7-.03,1.4-.03,2.106-.03h1.1c.43,0,.859,0,1.278-.01.49-.03.969-.04,1.447-.04.728,0,1.446.03,2.214.1,1.137.089,2.264.229,3.361.419a15.962,15.962,0,0,0,2.17.249h.29c.648,0,1.126.01,1.6.04.8.06,1.7.09,2.766.09h.639c.72-.04,1.448-.05,2.166-.05h.579c.42-.02.848-.03,1.287-.03a23.855,23.855,0,0,1,2.5.13c.673.08,1.339.16,2,.249.719.11,1.438.2,2.157.28s1.458.12,2.257.16l.269.02q.854.03,1.707.089c1.248.1,2.446.19,3.624.19l1.218-.02.31-.01.579-.01c.42-.02.848-.04,1.277-.04.159,0,.308,0,.467.01.24.01.479.03.718.05l.83.05.528.03.539.03.52.02c.479.03.959.06,1.438.06l.689-.01.913,0,.913,0,.459.01.719.01c.5.01.959.02,1.417.02H206c.3-.023.592-.028.884-.034l.294-.006h.389l.669-.01c.779-.05,1.567-.07,2.335-.08l.489-.01h.5c.26-.01.559-.01.868-.01.988,0,2,.04,3.032.13.7.06,1.439.08,2.348.08.35,0,.7,0,1.038-.01.49-.03.939-.04,1.387-.04.359,0,.718.02,1.077.04.539.03,1.078.04,1.608.04l1.168-.01h.579l.56-.04c.579-.05,1.117-.08,1.665-.08l.48-.02a16.01,16.01,0,0,0,1.7.07h.3c.3-.02.591-.04.89-.07l.409-.03c.517-.032.956-.06,1.386-.06.228,0,.467.01.7.03.29.01.579.04.868.07.639.07,1.219.12,1.788.14l.553-.06c.339-.04.688-.07,1.027-.09.258-.01.507-.01.767-.01h.738l.708.01.591-.03.888-.04a9.125,9.125,0,0,0,1.051-.14l.509-.08c1.257-.2,2.285-.349,3.233-.449.458-.05.917-.08,1.375-.1.75-.041,1.339-.08,1.909-.15a33.233,33.233,0,0,1,3.351-.25c.41-.03.81-.07,1.22-.12l.331-.06c.452-.024.709-.049.973-.049.5-.03.989-.03,1.477-.03h.879l.588.01c.641-.04,1.2-.08,1.7-.15.707-.09,1.376-.16,2.044-.2a13.517,13.517,0,0,0,1.88-.19c.37-.08.719-.17,1.069-.259a3.408,3.408,0,0,0,.395-.173l.3-.2a2.368,2.368,0,0,0,.3-.222l.232-.282a9.049,9.049,0,0,0,.641-.821l.1-.367c-.019-.368-.059-.728-.11-1.1a2.408,2.408,0,0,1,.978-2.281l.1-.566.031-.27.029-.27c.021-.39.06-.779.11-1.167l.06-.63.046-.568.054-.68c.03-.509.06-1.007.119-1.516.03-.239.08-.477.13-.706l.11-.55a19.022,19.022,0,0,0,.18-3.229l-.03-.42-.03-.42-.08-1.2c-.022-.39-.028-.775-.033-1.162l-.007-.384v-1.127c-.03-.511-.07-1.031-.119-1.55l-.06-.867c-.07-.948-.06-1.916-.05-2.853l.01-.419c.01-1.038-.01-2.077-.03-3.115s-.04-2.075-.03-3.123c.01-.759,0-1.518-.01-2.276l-.01-1.148c-.01-.689,0-1.387.01-2.076l.02-1.057c.02-1.957,0-3.984-.05-6.19-.03-.718-.05-1.417-.06-2.135l-.01-.7-.02-1.058c-.03-.719-.05-1.427-.04-2.145.02-2.326,0-4.442-.06-6.459-.057-1.851-.036-3.839.07-6.645.05-1.088.08-2.176.1-3.265.01-.359.01-.728.01-1.088l.009-.436c.015-.691.028-1.278.061-1.858.1-1.947.131-3.994.08-6.26a35.628,35.628,0,0,1-.03-4.509c.13-1.692.229-3.1.229-4.553.01-1.6,0-3.194-.01-4.791-.011-1.373-.02-2.514-.02-3.663,0-.927.08-1.905.15-2.692l.04-.48.06-.788.06-.759.06-.788.07-.879c.089-1.368.139-2.8.179-4.043l.03-.658.02-.719.02-.719.03-.728c.04-.889.07-1.787.1-2.685.04-1.208.08-2.4.14-3.573.059-1.128.119-2.255.189-3.383a28.216,28.216,0,0,0,.04-2.887c-.02-.389-.05-.787-.079-1.185l-.041-.563-.02-.379c-.06-.781-.119-1.558-.159-2.335a29.875,29.875,0,0,1,.059-3.2l.08-1.138c.07-1.2.11-2.486.12-3.844v-.509l.01-.489.01-.339c.02-.709.03-1.418.02-2.127-.04-.64-.11-1.269-.18-1.9-.05-.4-.089-.788-.129-1.187-.1-1.021-.129-2.051-.159-3.044l-.011-.517-.03-.759-.02-.749v-.3l-.01-.31c-.039-.64-.059-1.289-.079-1.927-.021-.311-.041-.561-.071-.8l-.071-.78c-.048-.656-.058-1.174-.058-1.693-.04-.561-.12-1.111-.21-1.71l-.05-.32c-.081-.273-.141-.453-.211-.643l.031-.309.02-.29c-.11-.882-.2-1.77-.259-2.658l-.081-.324a16.946,16.946,0,0,0-.309-2.264l-.06-.359c-.13-.7-.239-1.269-.4-1.839-.041-.122-.091-.242-.141-.353l-.323-.395a3.371,3.371,0,0,1-.437-.576,7.642,7.642,0,0,0-.9-1.043l-.41-.36.1.252a1.585,1.585,0,0,0-.46-.561l-.509-.459a4.345,4.345,0,0,0-.433-.3,5.536,5.536,0,0,0-.585-.2l-.331-.08-.178,0a2.236,2.236,0,0,1-.639-.062q-.375-.105-.72-.18l-.351-.05-.275-.042-.317-.018h-.47l-.309.01-.4.01-.281.02a7.227,7.227,0,0,0-.926-.04l-.7.01h-.718l-.46.01c-.448,0-.887-.01-1.336-.03-.339-.03-.649-.04-.949-.04l-.3-.01c-.28,0-.56,0-.83.01l-.45.03c-.209.01-.408.01-.617.01-.159,0-.328-.01-.487-.02-.46-.01-.928-.06-1.4-.11l-.519-.06c-.32-.03-.639-.06-.949-.08-.429-.03-.849-.05-1.259-.05Z"/>
          </g>
          <g>
            <path class="cls-5" d="M68.014,92.085l.036-.112-.036.112Z"/>
            <path class="cls-5" d="M146.935,36.781c-.412.024-.819.071-1.227.115l-.609.063c-.953.1-1.9.237-2.852.376l-.8.114c-.412.064-.827.115-1.235.171-.985.126-2,.261-3,.49-.364.087-.724.21-1.08.328l-.265.087c-.574.2-1.155.349-1.737.5l-.142.035c-.534.143-1.068.273-1.606.4-.788.194-1.571.384-2.346.6-1.08.313-2.192.562-3.268.807-1.278.293-2.6.594-3.881.989-.609.194-1.226.341-1.839.491-.368.087-.732.178-1.1.273-.479.13-.95.277-1.417.423-.36.111-.723.19-1.091.265l-.356.075a39.932,39.932,0,0,0-4.629,1.409c-.415.142-.827.285-1.238.423l-1.464.5-1.974.673-.657.222a28.162,28.162,0,0,0-2.844,1.064l-.649.292a23.05,23.05,0,0,0-3.311,1.729c-.182.123-.368.242-.55.36-.3.186-.589.372-.87.578a15.215,15.215,0,0,0-1.444,1.254c-.51.427-.985.783-1.46,1.139-.344.257-.688.514-1.024.779a15.133,15.133,0,0,1-1.492,1c-.451.277-.918.562-1.353.891l-.506.375c-.34.254-.677.507-1.013.764-.2.154-.4.3-.605.451-.36.261-.72.526-1.06.819a21.684,21.684,0,0,0-2.121,2.053c-.482.538-.937,1.009-1.4,1.44-.428.356-.871.7-1.318,1.036a15.082,15.082,0,0,0-3.22,3.011,24.479,24.479,0,0,0-2.152,3.912c-.206.439-.411.879-.629,1.31-.17.34-.368.664-.566.993-.186.3-.372.605-.534.921-.364.7-.66,1.223-.957,1.706-.431.684-.843,1.372-1.258,2.065-.3.49-.59.977-.886,1.467-.511.772-1.005,1.531-1.448,2.322a16.927,16.927,0,0,0-1.112,2.552c-.134.36-.265.724-.387,1.088l.007-.016-.043.127-.277.815-.257.767c-.3.819-.673,1.622-1.033,2.4l-.277.6a14.639,14.639,0,0,0-.751,2.263c-.091.34-.186.676-.289,1.012l.063-.122a9.064,9.064,0,0,0-.482,1.934c-.06.392-.1.783-.135,1.179l-.075.218c-.051.138-.1.281-.154.423h0l-.02.059.012-.023c-.028.075-.052.154-.079.229l.087-.2a13.477,13.477,0,0,0-.617,1.939c-.127.581-.246,1.163-.352,1.748-.21,1.171-.4,2.342-.57,3.521-.111.8-.253,1.594-.4,2.39a34.647,34.647,0,0,0-.585,4.371l.027-.249c-.023.249-.035.5-.047.755l-.02.34c-.043.392-.1.78-.158,1.168a18.674,18.674,0,0,0-.158,1.938c-.012.245-.024.487-.04.732l.032-.265c-.024.395-.036.787-.052,1.179-.007.3-.015.613-.031.917l-.036.4a31.688,31.688,0,0,0-.217,3.837c.019.756.011,1.508,0,2.263-.008.732-.016,1.46,0,2.192l.008.3a19.178,19.178,0,0,0,.154,2.335q.219,1.465.384,2.939a36.284,36.284,0,0,0,.791,4.13c.138.589.277,1.183.4,1.776.2.985.428,2.045.724,3.114.325,1.171.7,2.318,1.088,3.489.673,2.029,1.361,4.059,2.049,6.08l.214.637c.336.993.669,1.966,1,2.943.352,1.029.744,2.057,1.2,3.149.549,1.314,1.044,2.5,1.653,3.687a12.815,12.815,0,0,0,.712,1.163l.135.2c.344.522.668,1.048.989,1.586l.253.436c.225.383.455.771.7,1.147.3.467.633.914.965,1.361l.171.225.439.609c.249.353.5.7.763,1.041.238.308.487.6.736.9.186.214.368.431.55.653.475.581.91,1.214,1.329,1.827.277.4.55.8.839,1.187a32.287,32.287,0,0,0,2.365,2.75l.416.447c.384.454.751.921,1.119,1.388.649.819,1.318,1.67,2.057,2.437a16.552,16.552,0,0,0,1.638,1.436l.162.131c.618.49,1.219,1.008,1.82,1.523l.147.126c.815.7,1.709,1.326,2.575,1.935.376.261.752.526,1.12.795l.712.522c.427.321.858.641,1.3.942.653.439,1.314.858,1.978,1.281l.376.242c.36.249.712.5,1.064.759.392.289.787.574,1.191.851l.13.091a14.093,14.093,0,0,0,1.883,1.139c.321.15.657.273.989.4l.412.15a10.276,10.276,0,0,1,1.6.819c.309.182.617.364.942.526a15.241,15.241,0,0,0,1.776.72c.395.142.791.285,1.175.443a27.973,27.973,0,0,0,3.572,1.29c.582.154,1.167.273,1.757.387.5.1.993.2,1.487.317.463.115.922.229,1.381.348l1.27.317c.447.11.886.213,1.329.308a11.028,11.028,0,0,0,1.606.19,20.808,20.808,0,0,1,2.722.479l.561.13c.8.182,1.626.372,2.425.633a9.846,9.846,0,0,0,2.473.637c.431.04.839.067,1.258.067.158,0,.32,0,.483-.015s.328-.016.49-.016c.249.051.5.126.744.2.15.047.3.091.463.13a8.651,8.651,0,0,0,1.748.194l.115,0c.356.043.716.107,1.072.178a14.051,14.051,0,0,0,2.417.225h.008a8.007,8.007,0,0,0,1.175-.106c.182-.028.36-.056.538-.076a9.415,9.415,0,0,1,.993-.035c.253,0,.51,0,.763-.02.4-.028.808-.091,1.207-.158.19-.028.38-.06.566-.087a11.451,11.451,0,0,1,1.57-.087h.273a30.022,30.022,0,0,0,3.335-.222c.574-.063,1.147-.146,1.717-.229.506-.075,1.013-.151,1.523-.214a27.264,27.264,0,0,0,4-.783c.645-.17,1.285-.364,1.922-.558.617-.186,1.239-.372,1.86-.542l.676-.182c.961-.265,1.927-.53,2.892-.775.593-.147,1.183-.313,1.772-.475.9-.249,1.836-.51,2.769-.716a21.57,21.57,0,0,0,3.062-.74c1.057-.356,2.1-.819,3.106-1.266a72.533,72.533,0,0,0,7.259-3.683c.344-.2.681-.407,1.017-.613.617-.372,1.23-.748,1.867-1.088.368-.2.74-.392,1.112-.585.6-.317,1.206-.629,1.8-.97.8-.458,1.574-.957,2.354-1.451l.292-.19a24.536,24.536,0,0,0,2.888-2.1c1.322-1.127,2.595-2.354,3.826-3.537.66-.637,1.325-1.274,1.993-1.9.266-.245.519-.5.772-.759l.384-.38c.269-.265.55-.518.826-.771.206-.186.412-.372.614-.562.589-.558,1.139-1.163,1.669-1.753.23-.253.459-.51.7-.759.835-.9,1.693-1.8,2.552-2.674.332-.341.68-.665,1.032-.989.491-.455,1-.926,1.456-1.436l.886-1.017c.451-.514.9-1.025,1.353-1.531.392-.439.76-.89,1.132-1.345.281-.344.562-.688.854-1.021a48.269,48.269,0,0,0,3.691-5.107c-.182.241-.348.5-.518.744a54.183,54.183,0,0,0,4.454-7.98c.4-.858.744-1.764,1.077-2.642l.178-.459c.541-1.4.961-2.552,1.321-3.624.407-1.163.787-2.33,1.163-3.509.241-.763.435-1.558.617-2.326.083-.336.162-.668.245-1,.1-.407.2-.811.3-1.218.182-.752.368-1.507.574-2.251a22.063,22.063,0,0,0,.763-3.6l.123-1.076a70.084,70.084,0,0,0,.561-7.39c0-.55-.011-1.1-.027-1.65-.016-.633-.036-1.27-.028-1.9.008-.664.008-1.329.008-1.993v-1.2c0-.807-.032-1.618-.071-2.425l-.024-.483a7.942,7.942,0,0,0-.095-.815c-.024-.15-.047-.3-.067-.447a19.244,19.244,0,0,0-.384-2.1c-.091-.574-.158-1.207-.213-1.986a21.448,21.448,0,0,0-.539-3.683c-.249-1.053-.5-2.109-.779-3.157-.107-.4-.225-.8-.344-1.191-.162-.55-.324-1.1-.463-1.665-.126-.72-.253-1.44-.411-2.16-.178-.811-.412-1.606-.617-2.275-.281-.918-.59-1.832-.9-2.742-.155-.466-.313-.929-.467-1.4-.131-.4-.226-.807-.325-1.214-.055-.238-.11-.475-.174-.709a12.436,12.436,0,0,0-.55-1.511l-.182-.447-.154-.4c-.21-.55-.423-1.1-.664-1.63-.313-.681-.649-1.341-.986-2.006L221,78.469c-.233-.5-.447-1.013-.657-1.523a26.36,26.36,0,0,0-1.182-2.445,18.369,18.369,0,0,0-1.4-2.144l-.178-.249c-.546-.764-1.163-1.5-1.756-2.207l-.455-.546c-.38-.455-.724-.934-1.072-1.413-.388-.538-.788-1.1-1.227-1.606-.973-1.127-2.033-2.211-3.054-3.26-.815-.83-1.626-1.661-2.405-2.524-.558-.617-1.155-1.206-1.733-1.776l-.692-.688-.526-.534c-.625-.641-1.274-1.3-1.97-1.9-.293-.257-.6-.5-.91-.744l-.511-.407c-.542-.443-1.028-.91-1.432-1.314l-.241-.237a10.623,10.623,0,0,0-1.1-1c-.609-.467-1.27-.886-1.906-1.293l-.254-.159c-.415-.281-.83-.554-1.25-.826-.653-.436-1.309-.863-1.99-1.266-.19-.111-.379-.222-.569-.329-.273-.154-.542-.3-.811-.467-.321-.229-.633-.466-.95-.7-.463-.348-.929-.7-1.408-1.024-1.242-.863-2.477-1.642-3.663-2.323-.6-.34-1.239-.632-1.86-.913-.4-.178-.791-.36-1.179-.55-.593-.3-1.182-.6-1.768-.9l-1.088-.554a15.575,15.575,0,0,0-3.4-1.151c-.384-.091-.759-.2-1.135-.317a11.581,11.581,0,0,0-2.034-.478l-.577-.06c-.863-.1-1.753-.19-2.631-.352a33.346,33.346,0,0,0-3.576-.427l.02,0c-.5-.056-1-.115-1.5-.17-.55-.064-1.1-.127-1.646-.178l-.779-.072c-1.195-.106-2.389-.217-3.588-.288-.645-.036-1.294-.056-1.938-.072-.578-.015-1.152-.031-1.725-.063-.412-.02-.819-.043-1.231-.067-.775-.048-1.55-.091-2.326-.115-.273,0-.546,0-.819,0h-.573l-.609,0c-.44,0-.875-.008-1.31-.031-.34-.02-.68-.036-1.021-.036-.158,0-.312,0-.47.012ZM86.147,72.3h0l.008,0c.965-1.4,2.009-2.7,2.812-3.675l.234-.285c.312-.376.625-.756.949-1.12a18.964,18.964,0,0,1,1.863-1.768c.531-.53,1.033-1.092,1.531-1.646l.293-.32c.558-.617,1.068-1.258,1.539-1.863a20.578,20.578,0,0,1,3.466-3.284,15.845,15.845,0,0,1,2.128-1.365c1.471-.827,3-1.685,4.624-2.405.412-.178.819-.368,1.227-.558.577-.265,1.155-.53,1.74-.775.436-.178.875-.344,1.314-.51.577-.222,1.155-.44,1.725-.689a11.491,11.491,0,0,1,1.325-.463l.348-.11c.245-.076.491-.155.736-.238.542-.178,1.1-.364,1.669-.49a22.254,22.254,0,0,1,3.541-.574c.269-.063.542-.127.819-.182.562-.115,1.115-.285,1.657-.447.42-.127.843-.253,1.266-.36.19-.043.38-.087.574-.127.269-.059.538-.114.807-.189.309-.08.617-.178.918-.277.229-.076.459-.151.688-.218.677-.2,1.373-.356,2.041-.506.507-.115,1.013-.23,1.516-.364.391-.1.783-.19,1.174-.281.5-.111,1-.226,1.488-.368.985-.277,1.978-.51,2.9-.724.811-.182,1.685-.419,2.749-.748l.621-.194c.36-.118.724-.233,1.092-.336.625-.095,1.254-.166,1.883-.237.471-.052.938-.123,1.4-.194s.934-.146,1.405-.2l.906-.1c.6-.071,1.206-.142,1.812-.193.3-.024.6-.032.906-.032h0c.428,0,.859.016,1.29.035l.182.008c.289.016.578.02.866.02.262,0,.519,0,.78-.008.312,0,.609-.008.91-.008.724,0,1.456.052,2.183.1l.491.032c.862.055,1.725.083,2.591.111.791.027,1.586.051,2.378.095l.621.059c.783.071,1.566.146,2.354.206.391.031.783.087,1.179.142l.5.063c.578.072,1.167.115,1.749.155.854.079,1.689.19,2.547.336a28.311,28.311,0,0,0,2.805.388,12.937,12.937,0,0,1,2.71.557c.407.131.819.242,1.23.352.305.084.609.167.91.254.4.17.791.368,1.179.569l.34.17,1.08.55c.467.238.934.475,1.408.708.345.175.693.337,1.045.5.463.214.926.427,1.377.665.636.34,1.258.743,1.859,1.135l.19.123c.467.32.918.656,1.373,1,.435.325.87.653,1.317.962.712.49,1.464.933,2.191,1.361.519.3,1.037.609,1.543.933.265.178.534.352.8.522.542.368,1.084.724,1.63,1.08a11.594,11.594,0,0,1,1.614,1.413,21.147,21.147,0,0,0,2,1.792c.633.494,1.211.981,1.761,1.495.383.36.747.74,1.111,1.12.226.233.451.467.681.7s.447.439.672.657c.277.261.55.526.815.8-.206-.083-.407-.162-.609-.238l-.253-.1a8.553,8.553,0,0,0-1.551-.42,4.266,4.266,0,0,0-.669-.047c-.273,0-.55.02-.819.035l-.209.012a12.319,12.319,0,0,0-1.468.162c-.241.044-.483.1-.724.155-.217.051-.439.1-.661.142-.609.111-1.19.261-1.879.451a11.506,11.506,0,0,0-2.8,1.341,11.755,11.755,0,0,0-1.072.677,8.083,8.083,0,0,0-.973.906l-.107.11c-.348.364-.68.744-1.008,1.124l-.491.566a7.191,7.191,0,0,0-1.147,2.08l-.1.23c-.135.32-.273.641-.415.957-.076.174-.163.34-.25.511-.1.193-.2.387-.284.585a8.64,8.64,0,0,0-.772,2.54,23.608,23.608,0,0,0-.087,2.761,5.409,5.409,0,0,0,.087.712c.016.115.036.226.052.34.059.451.087.9.114,1.353.007.118.015.231.024.34.29.776.593,1.548.847,2.339.138.431.265.87.431,1.3.107.281.2.578.324.859.2.3.435.581.621.9a6.986,6.986,0,0,1,.42.822c.059.143.114.289.178.432a5.976,5.976,0,0,0,.344.561c.1.147.209.3.3.451a4.378,4.378,0,0,1,.289.582,1.314,1.314,0,0,1,.044.134.681.681,0,0,1,.063.095c.059.1.115.2.166.3.04.055.087.1.123.162a2.148,2.148,0,0,1,.281.629,2.039,2.039,0,0,0,.071.2,5.186,5.186,0,0,1,.273.491,2.162,2.162,0,0,1,.142.553,3.016,3.016,0,0,0,.162.416l-.1-.186c.067.122.13.245.19.368a2.052,2.052,0,0,1,.225.474c.01.04.02.077.028.113l.233.56c.091.225.186.447.281.672.245.554.459,1.12.669,1.69l.142.387c.309.823.649,1.634.993,2.441.111.253.229.507.344.76a13.682,13.682,0,0,1,.637,1.519l.059.269c.036.182.076.364.119.55.095.391.21.779.328,1.167l.08.273a32.072,32.072,0,0,1,.668,3.43c.048.356.063.716.083,1.076.012.225.024.451.04.676.035.483.055.973.063,1.46a26.224,26.224,0,0,1-.542,4.193c-.083.439-.15.879-.218,1.318l-.094.6c-.1.6-.254,1.218-.388,1.741-.111.383-.238.763-.36,1.139-.19.57-.384,1.155-.526,1.749-.072.3-.127.609-.178.913l-.068.368c-.075.416-.174.827-.277,1.238-.288,1-.64,2.018-1.072,3.122-.284.72-.538,1.452-.795,2.183l-.36,1c-.3.827-.629,1.634-.961,2.441l-.23.55a30.164,30.164,0,0,0-1.174,3.742c-.19.645-.416,1.278-.641,1.907l-.281.784c-.158.45-.289.909-.42,1.368-.11.384-.221.768-.348,1.148-.455,1.352-.965,2.713-1.455,4.027l-.194.51c-.131.352-.261.708-.388,1.064s-.257.712-.392,1.068c-.205.554-.419,1.1-.633,1.65l-.4,1.044c-.317.811-.633,1.614-.954,2.421l-.213.546c-.154.388-.309.776-.467,1.16a30.529,30.529,0,0,0-1.013-3.213l-.059-.158-.059-.154a38.169,38.169,0,0,1-1.334-4.344c-.154-.625-.3-1.254-.447-1.883l-.106-.451c-.159-.688-.376-1.381-.586-2.049l-.154-.487-.289-.933c-.38-1.239-.759-2.473-1.123-3.719-.2-.684-.412-1.365-.626-2.049-.32-1.041-.644-2.081-.929-3.133-.305-1.136-.685-2.267-1.052-3.363-.175-.514-.349-1.033-.515-1.551-.273-.835-.522-1.673-.771-2.516-.139-.475-.305-.933-.471-1.4-.119-.337-.241-.673-.352-1.013l-.091-.285c-.229-.724-.459-1.448-.712-2.164-.115-.328-.237-.657-.36-.985-.17-.455-.34-.914-.5-1.377-.344-1.02-.64-2.076-.929-3.1q-.267-.956-.55-1.9l-.091-.3c-.23-.759-.459-1.515-.724-2.259-.3-.846-.6-1.693-.866-2.551-.491-1.583-.962-3.133-1.365-4.692-.166-.629-.356-1.258-.546-1.883l-.2-.645c-.119-.388-.229-.775-.34-1.167-.107-.372-.218-.744-.328-1.115-.139-.463-.305-.918-.467-1.369-.111-.313-.222-.625-.329-.938-.245-.728-.423-1.5-.581-2.172a18.083,18.083,0,0,0-.5-1.819c-.229-.653-.431-1.227-.589-1.812-.15-.542-.265-1.092-.376-1.642l-.051-.249a8.87,8.87,0,0,0-.6-1.7l-.059-.139c-.095-.265-.178-.534-.265-.8-.091-.289-.182-.581-.289-.87l-.071-.194c-.127-.348-.249-.692-.392-1.037-.047-.118-.1-.233-.154-.348l-.119-.265c-.083-.221-.17-.447-.257-.668a3.385,3.385,0,0,0,.566.039,4.968,4.968,0,0,0,.918-.079,5.183,5.183,0,0,1,.736-.043,5.51,5.51,0,0,0,.625-.032c.1-.012.2-.028.3-.047.119-.02.238-.04.36-.056.147-.012.293-.02.439-.028l.333-.023c.277-.024.557-.064.838-.107l.364-.055a6.729,6.729,0,0,0,2.762-1.045,1.274,1.274,0,0,0,.122-.079c.115-.059.226-.127.336-.2a1.9,1.9,0,0,0,.815-1.309,2.77,2.77,0,0,0-.549-1.792,2.972,2.972,0,0,0-1.674-1.163l-.213-.068a6.078,6.078,0,0,0-.914-.249c-.107-.02-.218-.031-.329-.043a3.514,3.514,0,0,1-.411-.064l-.146-.027a4.156,4.156,0,0,0-.661-.107c-.309-.016-.617-.016-.926-.016-.241-.012-.479-.04-.716-.067l-.439-.048-.688-.047-.689-.048c-.554-.043-1.139-.091-1.713-.091-.182,0-.36,0-.538.012-.261.016-.522.044-.779.071-.38.036-.756.076-1.135.08l-.53-.024c-.412-.024-.827-.048-1.243-.056h0a9.65,9.65,0,0,0-.989.064c-.237.02-.474.043-.708.051-.13.008-.261.012-.391.012q-.267,0-.534-.012c-.206,0-.412-.008-.614-.008q-.362.006-.724.024c-.2.008-.407.016-.609.02-.241-.012-.482-.032-.724-.052-.4-.035-.811-.067-1.214-.071h-.008c-.332,0-.613.016-.89.028-.257.016-.518.028-.78.028l-.122,0c-.344-.012-.693-.024-1.041-.024-.166,0-.332,0-.494.008-.186.012-.372.023-.558.039-.273.024-.546.044-.823.048-.494-.024-.993-.048-1.487-.048h-.2l-.554.024c-.261.012-.518.024-.775.024L138.3,76.7c-.333-.016-.665-.032-1-.032-.127,0-.253,0-.38.008-.229.012-.455.032-.684.056-.277.023-.554.051-.827.055l-.467-.044c-.273-.023-.542-.051-.815-.067-.435-.024-.866-.028-1.3-.031l-.432,0c-.387,0-.775.011-1.159.023-.316.016-.633.028-.945.028l-.143,0-.308-.016c-.526-.035-1.049-.067-1.575-.067l-.316,0-.471.008-.463,0a4.986,4.986,0,0,0-1.107.186,9.22,9.22,0,0,1-1.041.063l-.233,0a6.55,6.55,0,0,0-.74.087c-.226.032-.451.067-.677.079a5.679,5.679,0,0,0-3.263,1.108,8.563,8.563,0,0,0-.689.613,2.161,2.161,0,0,0-.514,1.266c-.008.063-.02.123-.031.186a1.551,1.551,0,0,0-.036.19,2.664,2.664,0,0,0,.285,1.6,3.456,3.456,0,0,0,.882,1.175,5.258,5.258,0,0,0,.775.49l.091.052a6.627,6.627,0,0,0,1.464.546,10.556,10.556,0,0,0,1.737.38l.467.055a9.442,9.442,0,0,0,1.242.1c.087,0,.174,0,.261-.008.332-.016.668-.02,1-.024.284,0,.569,0,.858-.02l.111,0a4.333,4.333,0,0,0,.819-.075c.122-.027.245-.047.368-.063a1.208,1.208,0,0,0,.091.206,5.846,5.846,0,0,1,.261.617c.245.668.478,1.337.692,2.017.241.78.491,1.563.764,2.334.193.538.407,1.072.617,1.607l.269.68q.468,1.2.925,2.405c.891,2.318,1.808,4.72,2.817,7.034.795,1.824,1.523,3.711,2.227,5.534.341.879.681,1.761,1.025,2.635q.421,1.074.866,2.136c.131.305.265.61.4.91.174.384.344.764.5,1.151.273.669.55,1.338.851,1.994l.17.36a12.507,12.507,0,0,1,.491,1.151,3.027,3.027,0,0,0-.376.8l-.182.348c-.111.2-.226.411-.317.625a10.274,10.274,0,0,0-.467,1.341c-.095.36-.189.72-.3,1.076-.166.554-.38,1.1-.59,1.642-.095.245-.19.49-.281.736l-.166.462c-.225.614-.447,1.227-.692,1.832-.111.269-.222.53-.328.8l-.424.965c-.451,1.009-.914,2.05-1.3,3.1-.218.585-.392,1.183-.57,1.78-.21.7-.423,1.428-.708,2.124l.15-.3c-.209.443-.391.894-.577,1.345l-.329.791-.095.222c-.269.621-.538,1.246-.8,1.871l-.051.107c-.554,1.273-1.124,2.591-1.6,3.916l-.261.744c-.155.451-.309.9-.483,1.345-.229.6-.423,1.234-.6,1.839l-.151.483c-.743,2.429-1.685,5.028-2.876,7.952-.178.427-.356.858-.53,1.289l.056-.1c-.131.293-.246.594-.364.89-.166-.565-.309-1.135-.435-1.673-.1-.427-.242-.847-.376-1.27-.127-.38-.253-.763-.352-1.155-.091-.356-.163-.72-.234-1.084-.067-.344-.13-.688-.217-1.028a14.116,14.116,0,0,0-.5-1.531l-.194-.531a21.29,21.29,0,0,1-.577-2.057l-.075-.348c-.044-.217-.087-.431-.147-.645-.091-.324-.217-.644-.34-.961l-.1-.249c-.3-.764-.554-1.535-.815-2.31-.273-.819-.589-1.555-.89-2.267l-.051-.119c-.178-.447-.321-.91-.463-1.369l-.151-.486c-.253-.8-.581-1.571-.9-2.322l-.143-.345a15.348,15.348,0,0,1-.934-2.9,15.957,15.957,0,0,0-.842-2.6l-.218-.569-.269-.7a24.236,24.236,0,0,1-.9-2.6,11.864,11.864,0,0,0-.569-1.7c-.1-.245-.214-.494-.325-.739l-.111-.246a1.915,1.915,0,0,0-.122-.292c-.131-.321-.245-.614-.344-.914-.159-.471-.3-.946-.432-1.424-.162-.554-.324-1.108-.514-1.654l-.13-.368c-.147-.407-.289-.815-.412-1.226s-.209-.823-.3-1.242l-.06-.277a14.346,14.346,0,0,0-1.1-2.9l-.32-.7c-.142-.38-.269-.76-.4-1.144l-.122-.36c-.253-.751-.578-1.483-.89-2.195a10.574,10.574,0,0,1-.416-1.187,11.4,11.4,0,0,1-.257-1.25l-.035-.2a22.37,22.37,0,0,0-.6-2.385l-.217-.752c-.119-.435-.261-.858-.4-1.286-.194-.585-.391-1.19-.534-1.808-.107-.451-.214-.9-.348-1.349a10.834,10.834,0,0,0-.534-1.333c-.1-.281-.17-.554-.241-.827-.036-.146-.072-.288-.115-.435a8.636,8.636,0,0,0-.578-1.384l-.2-.408-.186-.395c-.119-.265-.242-.531-.372-.792-.083-.166-.17-.324-.257-.482-.119-.214-.238-.427-.341-.649l-.162-.4-.213-.526.071.214-.135-.376a4.509,4.509,0,0,1-.2-.712c-.04-.17-.091-.34-.143-.506-.043-.143-.087-.281-.123-.424-.059-.237-.13-.47-.2-.708-.119-.4-.238-.807-.317-1.218a9.537,9.537,0,0,1,.036-1.685l.02-.127.008,0c.154-.2.272-.344.4-.483.095-.051.2-.095.3-.142s.205-.091.3-.143a4.32,4.32,0,0,0,.681-.494,2.51,2.51,0,0,1,.514-.17,3.5,3.5,0,0,0,.586-.21,2.777,2.777,0,0,1,.545-.134c.139-.02.273-.056.4-.087l.233-.06a6.464,6.464,0,0,0,.74-.13l.261-.06c.147-.035.3-.067.439-.114a4.09,4.09,0,0,0,1.27-.756,2.619,2.619,0,0,0,.74-1.262l.1-.21c.079-.15.154-.3.221-.462a2.95,2.95,0,0,0,.064-1.773,3.874,3.874,0,0,0-1.084-1.736,6.157,6.157,0,0,0-1.211-1.017,7.982,7.982,0,0,0-1.7-.771,7.264,7.264,0,0,0-2.108-.206c-.622,0-1.247,0-1.868,0-.83,0-1.661.008-2.492.035-.411.012-.819.048-1.226.087-.439.036-.879.076-1.314.083l-.47.008c-.471.008-.942.016-1.413.036s-.953.075-1.424.134c-.36.048-.74.06-1.116.076-.209,0-.415.012-.621.023-.308.024-.613.056-.917.087-.349.04-.693.08-1.037.095l-.431.032c-.412.028-.823.059-1.234.059l-.2,0-.779-.019c-.329-.012-.653-.024-.978-.028H87.7a14.741,14.741,0,0,0-1.756.13,9.034,9.034,0,0,1-1.171.08c-.182,0-.364-.008-.55-.02l-.206-.012-.2-.016.1-.158.008,0c.7-1.2,1.475-2.386,2.227-3.5ZM213.938,88.87l.011-.036,0-.024c.151-.538.277-.993.388-1.456a16.845,16.845,0,0,0,.3-1.847c.051-.38.114-.764.174-1.143l.118-.776a10.13,10.13,0,0,0,.091-1.325l.036.107.051.1c.325.688.6,1.4.883,2.1l.34.863a14.193,14.193,0,0,1,.554,1.558c.067.242.122.483.182.724.075.309.146.618.233.926.2.684.435,1.361.669,2.037.158.455.316.91.463,1.365.3.938.648,2.049.905,3.2l.076.419c.106.6.213,1.215.356,1.82.114.51.269,1.009.419,1.507l.186.617c.2.677.384,1.405.562,2.219.075.341.162.677.253,1.013l.142.558c.087.593.131,1.195.17,1.792l.052.692a24.194,24.194,0,0,0,.478,2.92,24.1,24.1,0,0,1,.254,2.48c.027.586.035,1.171.047,1.757.008.51.016,1.024.036,1.535.02.455,0,.918-.008,1.376-.008.23-.012.455-.016.685-.008.5.008,1,.024,1.5l.016.625c.027,1.147,0,2.39-.095,3.917-.095,1.064-.214,2.12-.333,3.184l-.126,1.1a20.8,20.8,0,0,1-.653,3.062c-.111.411-.222.823-.32,1.234-.562,2.366-1.2,5.044-2.034,7.588-.174.486-.344.977-.506,1.467-.289.8-.6,1.6-.906,2.4l-.056.138c-.4,1.045-.783,2.038-1.214,2.979a36.886,36.886,0,0,1-1.741,3.489q-.367.624-.724,1.258c-.375.665-.751,1.333-1.155,1.978l-.174.261a59.474,59.474,0,0,1-3.7,4.839c-.7.834-1.432,1.645-2.164,2.456q-.343.386-.68.776a23.333,23.333,0,0,1-1.63,1.76c-1.784,1.685-3.473,3.422-5.016,5.171-.586.656-1.238,1.262-1.871,1.843q-.339.309-.677.629c-.36.34-.716.688-1.068,1.037-.467.454-.93.913-1.412,1.352-.554.507-1.092,1.029-1.626,1.555-.455.443-.906.89-1.373,1.322a39.364,39.364,0,0,1-6.856,4.529c-.356.19-.712.376-1.072.562q-.422.219-.838.443c-.5.265-.981.558-1.464.851l-.554.336-.665.391c.115-.2.222-.419.329-.633l-.174.269a14.411,14.411,0,0,0,.87-1.752c.4-.91.807-1.851,1.171-2.817l.059-.162a23.99,23.99,0,0,1,1.183-2.777,11.558,11.558,0,0,0,.669-1.654c.13-.383.233-.708.336-1.028.135-.412.265-.819.408-1.223a15.606,15.606,0,0,1,.973-2.061c.277-.518.561-1.048.795-1.6.158-.372.3-.752.431-1.131.131-.36.261-.716.408-1.068.162-.384.332-.764.5-1.148.13-.285.261-.569.384-.858.2-.463.368-.938.534-1.412.079-.226.158-.451.241-.677.261-.712.558-1.436.89-2.144l.293-.621c.194-.412.392-.823.574-1.242.142-.333.3-.653.454-.977.143-.289.285-.582.416-.879l.316-.7c.151-.324.3-.653.447-.981.166-.372.313-.752.463-1.127.087-.222.174-.444.265-.665.285-.7.586-1.389.89-2.081.285-.657.57-1.317.843-1.978.479-1.171.922-2.461,1.444-4.181a30.023,30.023,0,0,1,1.163-3.039c.166-.383.328-.771.487-1.159l.106-.261a33.367,33.367,0,0,0,1.179-3.184c.277-.934.649-2.16,1.084-3.387.182-.514.372-1.028.558-1.543.578-1.586,1.179-3.228,1.606-4.9l-.115.364c.281-.926.641-1.84.985-2.726.127-.32.254-.641.376-.965.416-1.112.811-2.263,1.167-3.422.159-.51.348-1.017.534-1.519l.123-.336c.253-.677.467-1.365.68-2.058.444-1.432.835-2.725,1.183-4.066l.056-.214.055-.206c.178-.629.4-1.293.7-2.152.186-.522.356-1.044.526-1.57l.2-.617c.238-.716.5-1.4.8-2.1a17.1,17.1,0,0,0,.7-2.211c.162-.546.36-1.08.557-1.615.087-.233.174-.466.257-.7.341-.945.6-1.926.851-2.876l.083-.312-.047.138.193-.676.028-.1c.115-.352.23-.708.34-1.064a19.62,19.62,0,0,0,.724-2.679l.111-.648c.059-.352.119-.7.19-1.057.115-.546.253-1.088.392-1.626l-.008.016a.058.058,0,0,0,.008-.023ZM71.415,114.144l.031-.522c.036-.324.079-.645.127-.969l.083-.641c.083-.68.111-1.376.138-2.053l.008-.237c.091-.823.242-1.654.392-2.425.206-1.013.36-2.054.5-3.031l.091-.668c.115-.843.23-1.717.416-2.564.067-.3.126-.609.182-.914.122-.621.245-1.262.427-1.879a35.248,35.248,0,0,0,1.112-3.374c.186-.724.395-1.448.625-2.164l.083-.233c.2-.554.4-1.112.609-1.658a10.594,10.594,0,0,1,.522-1.12l.052-.1c.423,1.127.882,2.254,1.337,3.374l.281.688.2.491c.265.653.542,1.325.768,2.01.273.83.53,1.665.783,2.5l.324,1.084c.388,1.309.788,2.662,1.227,3.983l.435,1.326c.384,1.167.779,2.377,1.211,3.552.138.372.28.74.419,1.112.17.443.34.89.5,1.341.2.55.388,1.111.574,1.669l.249.744c.348,1.017.708,2.025,1.068,3.038.226.637.455,1.274.677,1.915q.825,2.367,1.673,4.731c.423,1.183.8,2.4,1.159,3.584.147.471.293.946.439,1.421.467,1.471,1.029,2.935,1.571,4.351l.194.507q.421,1.091.85,2.179c.376.958.752,1.911,1.112,2.872.214.566.443,1.128.676,1.69l.293.724c.194.47.372.949.554,1.424.119.32.237.637.36.953.293.748.55,1.507.807,2.271.174.518.348,1.04.534,1.555.5,1.364.989,2.733,1.456,4.114.546,1.622,1.013,2.856,1.511,4,.3.677.6,1.345.91,2.01.277.6.558,1.211.823,1.82.249.617.475,1.246.7,1.871.3.815.6,1.662.949,2.473.289.672.6,1.333.906,2,.285.617.57,1.231.839,1.856.289.728.562,1.459.839,2.191.308.831.617,1.658.945,2.481.582,1.448,1.116,2.939,1.63,4.383l.087.245.249.7c.2.582.408,1.164.641,1.733l.1.238c.3.727.6,1.451.862,2.2.226.625.412,1.262.594,1.9a24,24,0,0,0,.9,2.686c.13.305.269.605.411.906-.4-.17-.838-.34-1.254-.55-.3-.154-.593-.324-.886-.494a10.874,10.874,0,0,0-1.428-.74c-.186-.075-.376-.146-.562-.214-.241-.087-.478-.174-.712-.273a6.572,6.572,0,0,1-.894-.474c-.269-.19-.534-.388-.8-.582-.388-.285-.775-.566-1.171-.835-.882-.6-1.776-1.171-2.674-1.74-.491-.348-.973-.7-1.456-1.064l-.728-.538c-.309-.226-.625-.447-.938-.665-.522-.368-1.044-.732-1.55-1.124s-.981-.8-1.464-1.214c-.3-.253-.6-.506-.9-.756l-.427-.348a20.186,20.186,0,0,1-1.709-1.5c-.364-.435-.712-.886-1.057-1.333l-.478-.613c-.57-.724-1.211-1.409-1.828-2.069l-.49-.527c-.649-.767-1.231-1.6-1.8-2.4l-.368-.522c-.447-.629-.942-1.234-1.421-1.82s-.953-1.175-1.4-1.8c-.313-.439-.633-.87-.949-1.305l-.317-.432c-.435-.6-.819-1.25-1.187-1.883l-.087-.15c-.316-.55-.649-1.12-1.013-1.65-.308-.443-.581-.878-.834-1.325a84.5,84.5,0,0,1-3.114-8.288l-.443-1.309c-.668-1.962-1.333-3.925-1.978-5.9a49.44,49.44,0,0,1-1.546-5.637l.019.182c-.118-.6-.253-1.191-.391-1.78-.123-.538-.246-1.076-.364-1.614-.123-.728-.21-1.468-.3-2.2-.055-.451-.107-.9-.17-1.345a28.67,28.67,0,0,1-.253-3.631c-.008-.855,0-1.709,0-2.56l0-.423c0-.281,0-.562-.008-.847,0-.447-.012-.9,0-1.349.027-.324.059-.649.095-.977l.063-.688c.059-.6.071-1.2.087-1.8.008-.38.016-.756.036-1.136l-.02.163c.008-.087.012-.174.016-.262Zm57.472,72.071.178-.637c.4-1.21.9-2.4,1.389-3.548l.138-.329c.258-.613.495-1.234.728-1.855.25-.665.5-1.329.78-1.982.134-.321.277-.633.419-.95.348-.783.708-1.594.985-2.421.2-.581.352-1.175.506-1.764l.087-.336c.091-.348.167-.7.242-1.049.055-.245.107-.49.166-.735.182-.768.38-1.595.625-2.418.154-.462.32-.917.483-1.372l.205-.582c.226-.645.416-1.3.606-1.95l.134-.467c.261-.8.57-1.6.866-2.37l.064-.162c.316-.835.728-1.938,1.076-3.058q.516-1.65.973-3.319c.1-.356.19-.708.281-1.06.146-.566.3-1.135.463-1.7l.039-.123c.246-.783.5-1.59.681-2.405.154-.692.3-1.345.474-1.982.111-.321.234-.633.36-.95l.143-.363a19.8,19.8,0,0,0,.74-2.236l.063-.249c.245-.961.487-1.922.767-2.872l.1-.32c.242-.76.487-1.515.72-2.275.075-.233.143-.467.214-.7l.119-.4a32.431,32.431,0,0,0,1.111-4.193c.083-.443.147-.89.214-1.337l.087-.6a13.387,13.387,0,0,1,.36-1.606l.047.194c.17.491.333.953.542,1.416a18.66,18.66,0,0,1,.7,1.832l.08.229a14.31,14.31,0,0,0,.949,2.022l.222.415c.142.257.3.562.466.871a16.989,16.989,0,0,1,.72,1.709l.119.316c.186.479.407.946.621,1.412l.273.59c.135.293.261.589.384.89.15.36.3.724.471,1.084a15.043,15.043,0,0,1,.882,2.12c.114.364.205.74.3,1.112.076.3.151.6.234.894l.1.356c.174.625.356,1.266.585,1.879.182.487.38.965.578,1.444l.316.775c.178.436.376.863.574,1.29.115.253.229.5.34.752.281.633.546,1.329.811,2.124a15.114,15.114,0,0,0,.613,1.46c.115.245.23.494.336.748.167.391.349.779.527,1.167.205.439.411.882.593,1.329.245.589.463,1.194.68,1.8l.084.237c.356.969.625,1.982.886,2.959.154.578.308,1.155.478,1.729l.036.119c.107.368.214.732.313,1.1.047.163.083.333.118.5a6.879,6.879,0,0,0,.2.787l.083.237c.095.277.194.55.277.831.063.194.115.4.17.594.067.249.139.5.218.747.071.2.154.4.237.6.055.134.111.269.162.4.127.34.241.685.352,1.025l.155.467c.15.455.3.909.482,1.349l.4.941.4.946c.281.656.621,1.293.95,1.91l.075.143a20.309,20.309,0,0,1,.807,1.926c.162.428.34.843.518,1.258.146.337.289.673.423,1.013.3.752.562,1.515.827,2.279a10.764,10.764,0,0,0,.708,1.511c-.9.162-1.859.36-2.808.629s-1.9.522-2.861.771l-1.06.273c-1.305.345-2.611.708-3.908,1.084l-.93.277c-.811.245-1.654.5-2.5.693-.542.087-1.088.158-1.634.225-.479.063-.957.123-1.432.194a32.86,32.86,0,0,1-3.774.36c-.269.012-.542.012-.811.012-.4,0-.791,0-1.183.027s-.76.095-1.139.155c-.309.047-.617.1-.93.13a8.808,8.808,0,0,1-1.029.044c-.288,0-.577,0-.866.027-.265.02-.526.056-.787.087-.356.044-.7.088-1.06.1-.317-.043-.633-.1-.946-.154-.538-.091-1.119-.154-1.883-.21a6.861,6.861,0,0,1-.7-.1,5.372,5.372,0,0,1-.681-.186c-.15-.052-.3-.1-.447-.139a5.514,5.514,0,0,0-1.345-.142c-.273,0-.549.012-.822.024-.222.007-.44.015-.653.019a6.383,6.383,0,0,1-.819-.186l-.3-.1c-.6-.21-1.23-.428-1.859-.594-.4-.107-.815-.194-1.226-.285l-.629-.142-.171-.036-.213-.051a.442.442,0,0,0,.13-.19c.329-.823.6-1.6.839-2.378l0,0c.146-.466.277-.937.407-1.408Z"/>
            <polygon class="cls-5" points="68.048 91.947 68.04 91.971 68.06 91.951 68.048 91.947 68.048 91.947 68.048 91.947"/>
          </g>
        </g>
        <g>
          <path class="cls-6" d="M2.085,238.545a6.788,6.788,0,0,1,5.242-2.323,7.012,7.012,0,0,1,4.289,1.43v-7.893h4.438V252.1H11.616v-1.072a6.737,6.737,0,0,1-4.289,1.459,6.787,6.787,0,0,1-5.242-2.322A8.433,8.433,0,0,1,0,244.353,8.327,8.327,0,0,1,2.085,238.545Zm2.561,5.779A3.551,3.551,0,0,0,8.1,248.076a3.569,3.569,0,0,0,3.455-3.752,3.617,3.617,0,0,0-1.013-2.621A3.252,3.252,0,0,0,8.1,240.631,3.553,3.553,0,0,0,4.646,244.324Z"/>
          <path class="cls-6" d="M22.788,245.962a3.839,3.839,0,0,0,3.783,2.71,3.783,3.783,0,0,0,3.067-1.369l4.319.982a8.17,8.17,0,0,1-7.416,4.2,8.386,8.386,0,0,1-6.047-2.322,8.236,8.236,0,0,1-.059-11.587,7.921,7.921,0,0,1,5.867-2.353,7.9,7.9,0,0,1,5.838,2.353,7.769,7.769,0,0,1,2.353,5.778,7.015,7.015,0,0,1-.178,1.609Zm7.148-3.306a3.837,3.837,0,0,0-3.634-2.621,3.681,3.681,0,0,0-3.484,2.621Z"/>
          <path class="cls-6" d="M36.312,229.759H40.78v7.893a7.069,7.069,0,0,1,9.5.893,8.347,8.347,0,0,1,2.114,5.808,8.455,8.455,0,0,1-2.114,5.809,6.787,6.787,0,0,1-5.242,2.322,6.928,6.928,0,0,1-4.26-1.429V252.1H36.312Zm4.528,14.565a3.453,3.453,0,1,0,6.88,0,3.616,3.616,0,0,0-1.012-2.621,3.148,3.148,0,0,0-2.413-1.072A3.552,3.552,0,0,0,40.84,244.324Z"/>
          <path class="cls-6" d="M58.862,238.218a5.617,5.617,0,0,1,4.736-2v4.766a2.927,2.927,0,0,0-1.608-.418,3.087,3.087,0,0,0-3.128,3.188V252.1H54.394V236.609h4.468Z"/>
          <path class="cls-6" d="M66.4,238.545a6.788,6.788,0,0,1,5.242-2.323,7.014,7.014,0,0,1,4.289,1.43v-1.043h4.438V252.1H75.931v-1.072a7.059,7.059,0,0,1-9.531-.863,8.433,8.433,0,0,1-2.085-5.809A8.327,8.327,0,0,1,66.4,238.545Zm2.561,5.779a3.467,3.467,0,1,0,6.91,0,3.616,3.616,0,0,0-1.012-2.621,3.254,3.254,0,0,0-2.443-1.072A3.552,3.552,0,0,0,68.961,244.324Z"/>
          <path class="cls-6" d="M91.78,238.545a6.786,6.786,0,0,1,5.242-2.323,7.014,7.014,0,0,1,4.289,1.43v-1.043h4.438V252.1h-4.438v-1.072a7.059,7.059,0,0,1-9.531-.863,8.433,8.433,0,0,1-2.085-5.809A8.327,8.327,0,0,1,91.78,238.545Zm2.561,5.779a3.467,3.467,0,1,0,6.91,0,3.616,3.616,0,0,0-1.012-2.621,3.256,3.256,0,0,0-2.443-1.072A3.552,3.552,0,0,0,94.341,244.324Z"/>
          <path class="cls-6" d="M108.253,236.609h4.468v8.757a2.848,2.848,0,1,0,5.689,0v-8.757h4.467V252.1H118.41v-1.578a5.106,5.106,0,0,1-4.23,1.965,5.817,5.817,0,0,1-4.229-1.7,5.724,5.724,0,0,1-1.7-4.23Z"/>
          <path class="cls-6" d="M133.424,241.107c-.268-.864-1.043-1.31-2.324-1.31-1.161,0-1.757.327-1.757,1.011,0,.388.417.746,1.221,1.043l2.77.894c3.128.983,4.408,2.413,4.408,4.766,0,3.247-2.531,4.973-6.374,4.973-3.9,0-6.225-1.7-6.671-4.646l4.11-.566c.3,1.042,1.191,1.549,2.651,1.549,1.191,0,2.025-.417,2.025-1.132,0-.506-.506-.893-1.549-1.191l-2.829-.834c-2.889-.8-4.081-2.174-4.081-4.468,0-3.425,2.5-4.974,6.285-4.974,3.6,0,5.808,1.579,6.195,4.229Z"/>
          <path class="cls-6" d="M138.667,236.609h2.115V233.6h4.468v3.008h3.515v3.872H145.25v5.808a1.613,1.613,0,0,0,1.7,1.639h1.817V252.1H146.2a5.672,5.672,0,0,1-3.872-1.4,4.611,4.611,0,0,1-1.549-3.544v-6.672h-2.115Z"/>
          <path class="cls-6" d="M150.106,232.767a2.673,2.673,0,0,1,.775-1.966,2.789,2.789,0,0,1,2-.774,2.67,2.67,0,0,1,1.966.774,2.8,2.8,0,0,1,0,3.931,2.668,2.668,0,0,1-1.966.776,2.787,2.787,0,0,1-2-.776A2.67,2.67,0,0,1,150.106,232.767Zm.537,19.33V236.609h4.467V252.1Z"/>
          <path class="cls-6" d="M157.613,236.609h4.468v1.578a5.106,5.106,0,0,1,4.229-1.965,5.7,5.7,0,0,1,4.2,1.7,5.635,5.635,0,0,1,1.728,4.229V252.1H167.77v-8.756a2.848,2.848,0,1,0-5.689,0V252.1h-4.468Z"/>
          <path class="cls-6" d="M185.852,252.1l-4.884-15.488h4.5l2.413,8.608,2.412-8.608H194.4l2.442,8.608,2.413-8.608h4.5L198.839,252.1h-4.051l-2.413-8.161-2.442,8.161Z"/>
          <path class="cls-6" d="M208.611,245.962a3.839,3.839,0,0,0,3.783,2.71,3.785,3.785,0,0,0,3.068-1.369l4.319.982a8.171,8.171,0,0,1-7.417,4.2,8.382,8.382,0,0,1-6.046-2.322,8.234,8.234,0,0,1-.06-11.587,8.456,8.456,0,0,1,11.706,0,7.773,7.773,0,0,1,2.353,5.778,7.015,7.015,0,0,1-.179,1.609Zm7.149-3.306a3.837,3.837,0,0,0-3.634-2.621,3.681,3.681,0,0,0-3.485,2.621Z"/>
          <path class="cls-6" d="M222.136,229.759H226.6v7.893a7.068,7.068,0,0,1,9.5.893,8.348,8.348,0,0,1,2.115,5.808,8.456,8.456,0,0,1-2.115,5.809,6.787,6.787,0,0,1-5.242,2.322,6.924,6.924,0,0,1-4.259-1.429V252.1h-4.468Zm4.527,14.565a3.453,3.453,0,1,0,6.88,0,3.616,3.616,0,0,0-1.012-2.621,3.148,3.148,0,0,0-2.413-1.072A3.552,3.552,0,0,0,226.663,244.324Z"/>
          <path class="cls-6" d="M248.26,241.107c-.269-.864-1.043-1.31-2.324-1.31-1.161,0-1.757.327-1.757,1.011,0,.388.417.746,1.221,1.043l2.77.894c3.128.983,4.408,2.413,4.408,4.766,0,3.247-2.531,4.973-6.374,4.973-3.9,0-6.225-1.7-6.672-4.646l4.111-.566c.3,1.042,1.191,1.549,2.651,1.549,1.191,0,2.025-.417,2.025-1.132,0-.506-.506-.893-1.549-1.191l-2.829-.834c-2.889-.8-4.081-2.174-4.081-4.468,0-3.425,2.5-4.974,6.285-4.974,3.6,0,5.808,1.579,6.195,4.229Z"/>
          <path class="cls-6" d="M253.98,232.767a2.672,2.672,0,0,1,.774-1.966,2.793,2.793,0,0,1,2-.774,2.674,2.674,0,0,1,1.966.774,2.8,2.8,0,0,1,0,3.931,2.671,2.671,0,0,1-1.966.776,2.791,2.791,0,0,1-2-.776A2.67,2.67,0,0,1,253.98,232.767Zm.536,19.33V236.609h4.468V252.1Z"/>
          <path class="cls-6" d="M260.474,236.609h2.115V233.6h4.467v3.008h3.515v3.872h-3.515v5.808a1.613,1.613,0,0,0,1.7,1.639h1.817V252.1H268.01a5.673,5.673,0,0,1-3.873-1.4,4.61,4.61,0,0,1-1.548-3.544v-6.672h-2.115Z"/>
          <path class="cls-6" d="M276.678,245.962a3.839,3.839,0,0,0,3.783,2.71,3.783,3.783,0,0,0,3.068-1.369l4.319.982a8.17,8.17,0,0,1-7.417,4.2,8.383,8.383,0,0,1-6.046-2.322,8.234,8.234,0,0,1-.06-11.587,8.456,8.456,0,0,1,11.706,0,7.769,7.769,0,0,1,2.353,5.778,7.015,7.015,0,0,1-.179,1.609Zm7.149-3.306a3.837,3.837,0,0,0-3.634-2.621,3.683,3.683,0,0,0-3.485,2.621Z"/>
        </g>
      </g>
    </g>
  </g>
</svg>
