<svg xmlns="http://www.w3.org/2000/svg" viewBox="0 0 374.63 206.62"><defs><style>.cls-1{fill:#fefefe;}</style></defs><g id="Layer_2" data-name="Layer 2"><g id="Draw_Layer" data-name="Draw Layer"><path class="cls-1" d="M374.63,0c-1.93.75-3.86,1.5-5.8,2.23-2.63,1-5.18,2.24-7.78,3.35-1.75.68-3.52,1.3-5.26,2s-3.76,1.51-5.66,2.2-4.05,1.25-6.08,1.86-4.08,1.19-6.13,1.78c-4.14,1.17-8.26,2.4-12.45,3.41s-8.09,2-12.1,3.15c-6.42,1.78-12.75,3.86-19.3,5.12-3.25.63-6.46,1.38-9.71,2s-6.47,1.18-9.72,1.66c-1.91.24-3.82.45-5.74.58s-4,.18-6.07.26c-4.28.16-8.56.32-12.84.66-2,.16-4,.28-6,.35s-4.19.06-6.28.15c-4.29.2-8.57.48-12.85.74-2,.12-4.06.22-6.09.19s-4.33-.1-6.49-.14c-4.15-.07-8.31-.2-12.46-.25s-8.36,0-12.54-.09-8.62-.31-12.92-.56c-2.21-.12-4.41-.36-6.61-.52s-4.37-.29-6.55-.39-4.37-.17-6.55-.3-4.1-.28-6.15-.39c-4.15-.24-8.29-.35-12.44-.53s-8.39-.26-12.56-.68c-2-.2-4-.42-6-.59-2.16-.18-4.33-.29-6.49-.43-4.24-.28-8.46-.81-12.7-1.15q-6.1-.5-12.23-.89c-4.1-.26-8.18-.5-12.29-.43-2,0-4,.18-5.92.27s-4.1.11-6.15.19c-4.19.15-8.39.24-12.58.55A73.79,73.79,0,0,0,37.4,27c-1.79.43-3.56.9-5.33,1.36a19.61,19.61,0,0,0-5.28,2.15,22.33,22.33,0,0,0-3.67,2.74c-.44.41-.93.76-1.38,1.15s-.82.78-1.22,1.17a16.69,16.69,0,0,0-1.39,1.4l-.22.28-.15.24c-.13.21-.25.43-.37.65a15.12,15.12,0,0,0-.78,1.74c-.25.59-.54,1.16-.79,1.75-.14.36-.24.73-.37,1.09s-.29.6-.41.92c-.21.55-.45,1.1-.63,1.67l-.12.41v.05h0v0l-.09.32.09-.33v0h0l0-.07,0-.07c-.08.3-.17.59-.26.89,0,.05,0,.1,0,.15l-.21.73a6.69,6.69,0,0,0-.16.75,10.33,10.33,0,0,1-.33,1.33h0l0,.06c0,.11-.06.22-.1.33s.15.32.24.48a4.23,4.23,0,0,0,7.91-1.89c.11-.41.25-.81.39-1.21.09-.18.2-.36.3-.54l.33-.52A6.21,6.21,0,0,0,23.93,45a9,9,0,0,1,.69-1.15l.83-1.26c.67-.73,1.44-1.37,2.15-2.06.4-.37.83-.7,1.25-1s.62-.58.94-.87a19.73,19.73,0,0,1,2.46-1.47c2-.71,4.12-1.14,6.18-1.67a56.88,56.88,0,0,1,6.08-1.22c3.92-.45,7.87-.64,11.8-.76,4.12-.13,8.24-.25,12.36-.41,2-.08,3.92-.22,5.88-.25,2.2,0,4.38,0,6.58.14q5.88.29,11.75.76c4.22.33,8.44.64,12.65,1.09s8.48.58,12.71,1l6.23.61c2,.21,4.13.27,6.19.36l12.66.52c4.11.18,8.21.45,12.31.68,4.36.25,8.71.39,13.07.71,2.17.16,4.34.38,6.52.5s4.24.22,6.35.31c4.42.19,8.82.2,13.24.25,4,.06,7.93.09,11.89.18,2.1.06,4.19.09,6.29.13s4.27.14,6.4.13c4.27,0,8.54-.41,12.79-.64,2.13-.11,4.25-.25,6.38-.33s4.09,0,6.13-.15c4.21-.21,8.4-.59,12.61-.78s8.23-.2,12.33-.51A120.65,120.65,0,0,0,283,36c2-.38,4.09-.73,6.13-1.17s4.2-.92,6.31-1.31c8.17-1.56,16.08-4.19,24.1-6.35,4-1.09,8.1-2,12.14-3.11s8.13-2.3,12.19-3.47c2.35-.68,4.71-1.35,7.05-2.08s4.39-1.64,6.58-2.48c2.44-.93,4.89-1.83,7.3-2.84,2.08-.86,4.14-1.79,6.2-2.69,1.2-.48,2.42-1,3.63-1.41Z"/><path class="cls-1" d="M14.31,49.48h0l0,.06,0-.05Z"/><path class="cls-1" d="M14.31,49.47s0-.1,0-.15,0,.1,0,.15Z"/><path class="cls-1" d="M4.68,149.23a4.3,4.3,0,0,0,3-1.22,4.1,4.1,0,0,0,.85-1.18c0-.08,0-.16,0-.23a17.79,17.79,0,0,1-.28-3.78,42.06,42.06,0,0,1,.36-4.63v0c0-.46,0-.93.05-1.39.18-1.29.29-2.57.42-3.86,0,.07,0,.15,0,.22.23-2,.28-4,.47-6,.11-.8.22-1.61.31-2.41.1-.52.22-1,.34-1.55s0-.74,0-1.1c0-.55.13-1.09.21-1.63,0-.36.08-.72.12-1.08a11.65,11.65,0,0,1,.21-1.18c.1-1.33.28-2.66.43-4,.1-.93.17-1.87.31-2.79s.3-1.66.47-2.49c.32-1.6.6-3.22.84-4.84.14-1,.32-2.1.48-3.15.19-1.36.45-2.71.65-4.06s.42-2.69.7-4,.6-2.58,1-3.86c.06-.21.12-.42.17-.63.14-.87.28-1.74.47-2.6.1-.46.2-.91.29-1.38.15-1.08.3-2.16.53-3.23s.43-2,.59-3c.09-.7.14-1.41.28-2.11s.34-1.37.52-2c0-.18.1-.35.14-.53l.12-.88c.15-.91.36-1.81.49-2.73.17-1.24.27-2.45.38-3.69.05-.41.1-.81.16-1.21.2-1.2.59-2.37.85-3.56a33.67,33.67,0,0,0,.61-4.11c.2-.95.53-1.9.8-2.83.46-1.62,1-3.23,1.46-4.85a4.25,4.25,0,0,0-8.21-2.23c-.48,1.57-1,3.15-1.42,4.73-.07.49-.16,1-.22,1.48a16.21,16.21,0,0,1-.46,2.2s0,0,0,.06v-.08a13.94,13.94,0,0,0-.41,1.81l-.12,1c0,.37-.06.75-.13,1.11-.28,1.38-.53,2.75-.8,4.12-.13.62-.27,1.24-.4,1.87-.06.3-.11.6-.18.9,0,.11,0,.22-.08.33,0,.34-.06.68-.1,1-.1.67-.23,1.34-.36,2-.19.94-.28,1.91-.4,2.86-.3,1.85-.78,3.65-1.16,5.49-.26,1.24-.42,2.5-.67,3.75s-.52,2.34-.71,3.53S7.24,87.7,7,88.76s-.39,1.83-.54,2.76c-.19,1.18-.35,2.36-.59,3.53s-.39,2.41-.55,3.62c-.12.87-.25,1.74-.35,2.62-.06.54-.08,1.08-.13,1.63-.32,2-.84,4-1.36,6a32.86,32.86,0,0,0-.7,4.2c-.12,1-.12,2-.25,3L2.71,115c-.18,1.35-.26,2.7-.4,4.06-.15.88-.35,1.76-.56,2.64a27.43,27.43,0,0,0-.5,3.25c-.11.73-.22,1.45-.3,2.19-.06.59-.07,1.18-.13,1.77C.7,130,.73,131.19.6,132.33c0-.14,0-.28.05-.43-.13,1.08-.22,2.15-.34,3.23s-.26,2.07-.3,3.13a14.31,14.31,0,0,0,.3,3c0,.29.07.57.1.85.1,1-.07,1.92,0,2.89a4.48,4.48,0,0,0,1.22,3,4.28,4.28,0,0,0,3,1.28Z"/><path class="cls-1" d="M238.74,116.62c2.2-.11,4.4-.13,6.6-.2s4.2-.24,6.29-.37c4.09-.25,8.18-.67,12.26-1.07,4.35-.42,8.68-1.12,13-1.86,1.91-.33,3.83-.7,5.75-1,1.64-.28,3.28-.49,4.91-.8,4-.77,8.07-1.67,12-2.75s7.81-2.43,11.73-3.61c3.34-1,6.71-1.89,10.07-2.83,3.61-1,7.12-2.27,10.68-3.4,1.45-.45,2.93-.86,4.38-1.32,1.63-.52,3.23-1.1,4.84-1.64.78-.26,1.59-.48,2.38-.71,1.19-.34,2.33-.76,3.47-1.21,1.89-.72,3.73-1.57,5.56-2.43a4.26,4.26,0,0,0-.74-7.82,4.45,4.45,0,0,0-3.24.31c-1.8.83-3.6,1.65-5.44,2.39-1.67.57-3.39,1-5,1.57S335,89,333.35,89.46s-3.17,1-4.75,1.46c-2.05.63-4.05,1.37-6.09,2-3.65,1.13-7.35,2-11,3.1-3.88,1.11-7.71,2.38-11.56,3.57-3,.94-6.11,1.64-9.2,2.32-2.87.63-5.73,1.27-8.65,1.67s-5.88,1.07-8.84,1.53c-3.15.47-6.28,1-9.45,1.39-3.81.36-7.63.74-11.44,1-4.36.3-8.72.44-13.08.59-2.68.09-5.34.24-8,.28l-.39.06a9.2,9.2,0,0,1-1,0h-.4c-.61,0-1.21,0-1.82,0-.44,0-.88,0-1.33,0s-.76,0-1.14,0-.69,0-1,0c-.8-.06-1.58-.25-2.37-.34a2.18,2.18,0,0,1-.71-.22h-.09c-2.13-.14-4.26-.23-6.38-.37-4.31-.27-8.63-.37-12.94-.72-4-.33-8-.71-12-1.17-8.34-1-16.7-1.87-25-3.13-3.92-.67-7.82-1.45-11.66-2.49-4.12-1.11-8.19-2.35-12.27-3.6q-12.4-3.78-24.79-7.61L111,87.28c-1.62-.51-3.2-1.12-4.79-1.7s-3.35-1.21-5-1.88c-1.48-.6-2.93-1.25-4.38-1.91-2.38-1.12-4.7-2.35-7-3.59s-4.63-2.41-6.93-3.61c-4.18-2.16-8.28-4.44-12.55-6.41-1.34-.63-2.67-1.27-4-1.87-1.58-.75-3.16-1.52-4.79-2.17s-3.25-1.33-4.85-2l1,.47C56,61.78,54.3,61,52.59,60.28s-3.3-1.67-4.94-2.53c-.89-.46-1.79-.88-2.66-1.38s-1.71-1.16-2.55-1.74c-2-1.37-4.17-2.52-6.21-3.84-1.56-1-3.16-2-4.63-3.09a20.08,20.08,0,0,1-2.07-2.25A20.78,20.78,0,0,1,28.17,43a9.51,9.51,0,0,1-.27-1,5.63,5.63,0,0,1,0-.58c.08-.4.18-.79.29-1.18a4.25,4.25,0,1,0-8.12-2.5,20,20,0,0,0-.69,3.66,12,12,0,0,0,1.05,5.17,11.57,11.57,0,0,0,.9,1.75c.31.51.59,1,.91,1.54a20.69,20.69,0,0,0,3.08,3.65,34.42,34.42,0,0,0,5.13,3.75c1.9,1.24,3.89,2.34,5.82,3.54,1.67,1,3.2,2.29,4.94,3.23s3.36,1.73,5,2.61c2.36,1.25,4.86,2.21,7.28,3.32l-1-.48c1.53.71,3.08,1.39,4.63,2.06,1.21.53,2.44,1,3.65,1.52l3.33,1.54,4.32,2-1-.48c3.38,1.62,6.7,3.39,10,5.17,1.74,1,3.52,1.83,5.28,2.76l5.74,3c2.21,1.16,4.48,2.2,6.76,3.21,2,.88,4,1.79,6,2.53s3.87,1.41,5.81,2.1,4.14,1.31,6.21,2q12.33,3.8,24.67,7.57c4,1.23,8.07,2.48,12.15,3.58,4.24,1.14,8.52,2,12.85,2.74,4.6.77,9.23,1.34,13.86,1.89,4,.47,8,.95,12,1.4s7.95.86,11.94,1.18c4.42.37,8.85.49,13.27.76,2.07.12,4.14.22,6.2.36s4.28.35,6.42.48c1.19.07,2.38.09,3.56.09,2.86,0,5.72-.16,8.57-.3Z"/><path class="cls-1" d="M351.64,183.68l-.1.06-.09,0h0l0,0,0,0h0l-.22.14.33-.21.61-.4c.22-.14.4-.35.63-.49.5-.33,1-.57,1.55-.85.27-.19.5-.4.75-.6a3.52,3.52,0,0,0,.29-1.48c0-.18,0-.35,0-.53q.19-.66.33-1.35c.21-1,.32-2,.46-3.06s.37-1.73.49-2.62c.07-.47.05-1,.08-1.43.14-.72.27-1.45.34-2.18s0-1.23.1-1.84,0-1.33,0-2a25.43,25.43,0,0,1,.18-2.61c.08-.71.1-1.44.14-2.15s-.05-1.37-.05-2.06a40.74,40.74,0,0,1,0-4.28,26.78,26.78,0,0,0,.39-5.44c-.06-1.47,0-2.94.06-4.41a27.87,27.87,0,0,0-.15-3.42,35.28,35.28,0,0,1,0-4.24c.08-1.79.25-3.59.44-5.37a28.69,28.69,0,0,0-.17-4.54c-.08-1.44-.12-2.86-.09-4.3.07-3-.08-6.09.19-9.12a41,41,0,0,0-.07-5.65c-.05-1,0-1.9-.06-2.85a19.51,19.51,0,0,0-.42-3.4q-.09-.48-.15-1c-.14-2-.32-4-.35-5.93,0-2.39.1-4.79.3-7.17a4.27,4.27,0,0,0-4.12-4.37,4.22,4.22,0,0,0-3,1.11,4.44,4.44,0,0,0-1.38,3,67.61,67.61,0,0,0-.26,9c.07,1.41.22,2.82.32,4.24s.36,2.67.55,4c0,.79,0,1.59,0,2.38s.1,1.81.16,2.72c.11,1.73-.09,3.47-.15,5.2-.1,2.85-.1,5.71-.12,8.57,0,1.4.06,2.81.18,4.21a25.51,25.51,0,0,1,0,4.37c-.16,1.73-.32,3.46-.39,5.2a32.59,32.59,0,0,0,.18,5c0-.37-.07-.73-.11-1.1.24,2.45,0,4.89.05,7.35a26.3,26.3,0,0,1-.26,4.93.06.06,0,0,0,0,0c-.09.62-.17,1.24-.2,1.88a20.22,20.22,0,0,0,0,2.06c0,1.36.07,2.7,0,4.06-.09,1.57-.29,3.14-.24,4.71,0,.57-.05,1.12-.07,1.68s0,1.08-.09,1.63a17.15,17.15,0,0,0-.32,2c0,.38,0,.76-.05,1.14-.14.66-.29,1.31-.39,2s-.12,1-.18,1.53-.18.8-.28,1.19c-.05.22-.11.43-.17.64a7.48,7.48,0,0,0-.27,1.44,4.08,4.08,0,0,0,0,.92,4.37,4.37,0,0,0,1.12,3,4.24,4.24,0,0,0,3,1.37h.09c.17-.12.35-.24.54-.35Zm6.13-43.16c0-.07,0-.13,0-.2s0,.14,0,.2Z"/><path class="cls-1" d="M207.66,206.49c2-.06,4-.1,6-.18,3.65-.15,7.28-.43,10.93-.66q2.4-.15,4.8-.39l.17,0h.08l1.15-.12c1.69-.15,3.39-.26,5.09-.33s3.62-.21,5.42-.38c3.86-.3,7.72-.52,11.56-.84,4.25-.35,8.46-.94,12.68-1.47,1.76-.22,3.5-.41,5.25-.68,2-.31,3.94-.68,5.91-1,3.49-.53,7-1,10.49-1.45.88-.12,1.76-.22,2.65-.32l3-.28.09,0h0a2.26,2.26,0,0,1,.53-.1l.4-.07.29-.08.19-.07-.09,0a10.51,10.51,0,0,1,2.71-.54h-.3l.7,0,.57,0c.25,0,.5,0,.74-.06l1.38-.23.69-.1.54-.11.13,0c1-.24,1.94-.4,2.91-.57l1.12-.19.94-.19c.41-.1.83-.21,1.25-.28a4.85,4.85,0,0,1,.55-.09c1.36-.28,2.72-.56,4.09-.81,1.75-.32,3.51-.51,5.27-.81s3.31-.6,4.94-1c2-.46,4-1.07,6.05-1.59s3.94-1,5.92-1.41c1.56-.35,3.14-.62,4.72-.9l1.67-.53c.46-.16.9-.35,1.35-.55.74-.32,1.51-.59,2.26-.87s1.43-.66,2.17-.92,1.2-.61,1.81-.9c.34-.17.68-.34,1-.48a8.59,8.59,0,0,0,.88-.37c.39-.27.78-.54,1.19-.79l0,0-.09,0h0l0,0,0,0h0l-.22.13.34-.2.51-.34a4.2,4.2,0,0,0,.06-4,4.28,4.28,0,0,0-5.75-1.76c-1.29.72-2.54,1.55-3.89,2.15-1.41.43-2.86.65-4.31.94-1.8.37-3.62.66-5.43,1-2,.4-3.94.89-5.89,1.4s-4,1.12-6,1.58c-1.68.39-3.38.7-5.07,1s-3.43.48-5.13.79c-3.34.61-6.64,1.38-10,2-1.38.24-2.75.54-4.12.82-1.67.35-3.34.58-5,.77-3.24.32-6.48.67-9.71,1.15-2.84.42-5.69.71-8.51,1.21-3.16.56-6.33,1-9.52,1.39s-6.1.81-9.16,1.14c-4.82.47-9.66.64-14.48,1.11-1.74.15-3.5.24-5.25.29-2.19.06-4.38.32-6.55.56l1.09-.11-1.24.13h0c-1.77.16-3.55.25-5.33.37s-3.74.29-5.62.39c-3.88.21-7.76.29-11.65.4s-7.51,0-11.26-.07l-2.62,0c-1,0-2.1,0-3.15,0-2,0-4-.17-6.05-.24-3.87-.13-7.74-.26-11.58-.69-4.11-.46-8.24-.93-12.36-1.27-3.93-.32-7.86-.76-11.79-1.19q-3.18-.34-6.36-.81c-2-.29-4-.46-5.95-.71-.9-.11-1.8-.25-2.7-.39l1.13.19c-1.37-.23-2.73-.44-4.1-.65-2.45-.43-4.91-.86-7.37-1.26-2-.34-4-.84-6-1.23s-4-.88-6-1.41c-4-1.08-8.13-1.81-12.17-2.78s-7.76-2.14-11.6-3.31l-12.07-3.71-5.88-1.8c-1.7-.53-3.34-1.23-5-1.86s-3.26-1.08-4.85-1.72-3.32-1.37-5-2.09C51,170.27,49,169.56,47,168.87s-3.8-1.5-5.71-2.21-3.66-1.22-5.42-2a47.61,47.61,0,0,0-4.73-1.83c-.69-.23-1.4-.43-2.08-.68s-1.47-.73-2.22-1.06c-1.11-.56-2.21-1.14-3.36-1.63-.87-.35-1.76-.6-2.63-.95-.68-.33-1.36-.66-2.05-1l1,.47c-.65-.3-1.23-.74-1.88-1.07-.32-.17-.67-.31-1-.51l-.67-.49c-.53-.36-1-.75-1.57-1.07a9,9,0,0,1-1.31-.9c-.52-.46-1-.93-1.59-1.37-.17-.15-.36-.27-.54-.4s-.41-.43-.61-.65l-.32-.46-.11-.16v0l0-.06a12.75,12.75,0,0,1-.83-1.24,9.6,9.6,0,0,1-.93-3,17.74,17.74,0,0,1-.28-3.78c0-.57,0-1.13.07-1.68a4.27,4.27,0,0,0-1.48-.81,4.23,4.23,0,0,0-3.23.31,4.06,4.06,0,0,0-2.07,2.5,11.85,11.85,0,0,0-.34,2.12c0,.3,0,.6.06.89a2.93,2.93,0,0,0-.06.83c0,.36.07.72.11,1.08A6,6,0,0,0,1.37,150c.11.44.25.87.34,1.31,0,.22.05.44.08.67a2.14,2.14,0,0,0,.09.34,5.79,5.79,0,0,0,.17,1,6.24,6.24,0,0,0,1,2,9.4,9.4,0,0,0,.62.89A8.45,8.45,0,0,0,5,157.91a17.28,17.28,0,0,0,1.6,1.37c.14.09.26.18.39.28.36.32.73.63,1.1.94l-.43-.35A15.43,15.43,0,0,0,10,161.93c.62.34,1.16.78,1.75,1.17.23.15.44.33.67.49a11.29,11.29,0,0,0,1.09.57,9.18,9.18,0,0,1,.95.57,11.51,11.51,0,0,0,1.44.74,27.05,27.05,0,0,0,3.26,1.43c.67.23,1.34.47,2,.75l1.11.57c.6.33,1.23.59,1.86.87.39.19.77.4,1.16.58a23.56,23.56,0,0,0,3,1.14A45.55,45.55,0,0,1,33,172.6c1.75.79,3.57,1.36,5.36,2s3.85,1.51,5.78,2.23S48,178.23,49.92,179l5,2.12c1.58.65,3.23,1.13,4.83,1.72s3.36,1.36,5.09,1.91Q76.6,188.49,88.42,192c1.92.57,3.85,1.11,5.79,1.6s4.13.91,6.2,1.35,4,.86,5.92,1.39l2.07.54c.35,0,.69.13,1,.21a11.29,11.29,0,0,1,1.44.39c.5.12,1,.22,1.5.32,1.67.33,3.32.73,5,1.06s3.31.58,5,.84q4.17.74,8.36,1.4l-1.13-.19c2.22.37,4.42.67,6.65.94s4.29.56,6.44.85c4,.54,8,.86,12,1.27s8,.73,12,1.18c2,.23,4,.49,6.07.66s3.81.26,5.71.34c4,.16,8,.41,12,.39,1.91,0,3.82-.05,5.73,0s3.59.09,5.38.12h.88c1.77,0,3.54-.08,5.3-.13Zm33.55-2.08h0ZM227.12,197l.36,0-.36,0ZM1.23,147.91a.24.24,0,0,1,0-.08l0,.08Zm0,0v-.06l.09-.57-.09.63Zm0-.08a.13.13,0,0,1,0-.06s0,0,0,.06Z"/><path class="cls-1" d="M237.19,114a18,18,0,0,1,2.36-.67,18.16,18.16,0,0,0,2.6-.8,11.24,11.24,0,0,1,1.1-.3,13.31,13.31,0,0,0,1.84-.63c.38-.14.74-.27,1.11-.42a9,9,0,0,1,1.35-.37c.68-.13,1.37-.27,2-.43a21.61,21.61,0,0,0,2.88-.87c.84-.33,1.66-.73,2.49-1.1,1.71-.76,3.37-1.61,5.08-2.38,1.09-.49,2.16-1,3.25-1.48s2.13-.88,3.21-1.29l2.41-.88-.13,0,.22-.08.22-.08c1.37-.51,2.74-1,4.13-1.4.95-.28,1.92-.52,2.86-.84s2.1-.75,3.15-1.14c2-.75,4.06-1.43,6.07-2.2,1.64-.62,3.24-1.32,4.87-2A129.2,129.2,0,0,1,307,89.6c2.72-.6,5.41-1.33,8.12-2,1.57-.39,3.13-.81,4.71-1.17s3.12-.57,4.69-.78,3-.17,4.48-.19c1.76,0,3.5-.22,5.26-.27s3.63.16,5.43.23c1.35.06,2.72.13,4.06.31.71.15,1.41.33,2.11.49a18.65,18.65,0,0,1,2.65.76c.79.38,1.57.8,2.35,1.2a4.54,4.54,0,0,0,3.26.55,4.24,4.24,0,0,0,3.16-5.11A4.07,4.07,0,0,0,355.38,81a27.73,27.73,0,0,0-6.25-2.72,39.39,39.39,0,0,0-5.88-1.14,75.63,75.63,0,0,0-11.75-.29c-1.95.15-3.9.11-5.85.22a47,47,0,0,0-7.56,1c-2.08.45-4.14,1-6.21,1.53-1.77.42-3.52.91-5.3,1.32-2,.46-3.95.91-5.91,1.46-2.13.59-4.26,1.2-6.36,1.88s-4.07,1.4-6.08,2.15S284.05,88.13,282,89s-4.09,1.45-6.11,2.21c-1.64.59-3.32,1.06-5,1.55s-3.32,1.12-5,1.75c-3.56,1.29-7.06,2.68-10.48,4.32-2,1-4.11,2-6.22,2.9-.78.23-1.58.41-2.37.58-.53.25-1,.52-1.54.81-.74.44-1.56.7-2.32,1.08a41.72,41.72,0,0,1-5.2,2.23h0l-1.27.4L236,107l-1.12.38.31-.1c-.57.2-1.13.4-1.71.58l-1.12.31a4.26,4.26,0,0,0-.24,2.66,4.3,4.3,0,0,0,1.85,2.62,4.62,4.62,0,0,0,2.34.7,2.82,2.82,0,0,0,.92-.15Zm41.75-15,.28-.11-.28.11Z"/><path class="cls-1" d="M269.1,102.27l-.09,0-.09,0,.18-.07Z"/><path class="cls-1" d="M231.65,114.63c.31-.15.62-.3.93-.43.83-.29,1.66-.53,2.51-.76,1.07-.29,2.13-.63,3.23-.83s2.14-.3,3.2-.59c1.41-.39,2.81-.83,4.2-1.29a4.48,4.48,0,0,0,2.61-1.85A4.26,4.26,0,0,0,247,103a4.39,4.39,0,0,0-.87-.42c-.29.15-.59.31-.87.48-.74.44-1.56.7-2.32,1.08a40.88,40.88,0,0,1-5.32,2.27l.1,0h0c-.4.14-.81.27-1.21.39L236,107c-.38.12-.74.26-1.11.38l.3-.1c-.57.2-1.13.4-1.71.58l-1.33.37a7.25,7.25,0,0,1-1.23.25,7.36,7.36,0,0,1-1,0h-.4c-.61,0-1.21,0-1.81,0s-.89,0-1.34,0h-.12a4.38,4.38,0,0,0-.25,4.41,4.22,4.22,0,0,0,3.76,2.23,4.37,4.37,0,0,0,2-.47Z"/><path class="cls-1" d="M10.73,117.35c.1-1,.23-2.09.35-3.13s.17-1.87.31-2.79.3-1.66.47-2.49c.08-.43.17-.87.25-1.3q-2.56,1-5.11,2.09a4.11,4.11,0,0,0-2.07,2.51,4.23,4.23,0,0,0,2.81,5.31,4,4,0,0,0,1.16.18,5.21,5.21,0,0,0,1.83-.38Z"/><path class="cls-1" d="M374.63,89.18a49.76,49.76,0,0,1-4.87,2.51c-1.63.66-3.26,1.33-4.85,2.06s-3,1.45-4.52,2.12c-1.25.49-2.52.91-3.77,1.4l-1.05.43A4.26,4.26,0,0,0,354,99.24a4.33,4.33,0,0,0-.44,3.23,4.28,4.28,0,0,0,2,2.58,4.65,4.65,0,0,0,2.21.61,2.79,2.79,0,0,0,1-.18c1.05-.41,2.13-.74,3.17-1.15,1.4-.55,2.78-1.13,4.14-1.76,1.88-.87,3.72-1.77,5.62-2.59,1-.39,1.94-.81,2.9-1.25Z"/><path class="cls-1" d="M374.63,13.09l-.42.13c-1.57.53-3.13,1.08-4.66,1.73s-2.78,1.19-4.18,1.76l-1.9.76c-.74.3-1.46.65-2.18,1-1.23.57-2.46,1.08-3.73,1.54-1.47.53-3,1-4.44,1.53-.73.25-1.45.51-2.19.73s-1.65.47-2.47.73c-1.32.44-2.64.89-4,1.25s-2.77.77-4.13,1.2-3,1-4.49,1.46c-.72.21-1.44.45-2.16.7s-1.58.46-2.37.68c-1.59.44-3.21.78-4.8,1.23s-3.08.87-4.62,1.34c-.65.19-1.3.37-1.95.59s-1.33.46-2,.67c-.86.27-1.72.52-2.6.72l.07,0-2.73.58c-1.38.27-2.75.57-4.11.93s-2.83.77-4.26,1.14c-2.68.69-5.36,1.45-8.07,2-1.14.22-2.28.4-3.42.62-1.39.27-2.77.53-4.15.84-1.66.33-3.32.62-5,1l-.22,0-.15,0,.12,0-2.84.62.38-.08-1,.21c-1.61.32-3.25.56-4.88.78s-3.34.43-5,.62-3.43.41-5.12.72c-.81.15-1.61.29-2.42.42s-1.72.22-2.59.33c-1.65.22-3.31.46-5,.64-.8.09-1.59.24-2.39.35s-1.61.18-2.41.27l-5.09.52c-1.73.18-3.46.36-5.2.47-1.36.09-2.73.13-4.09.22s-2.91.22-4.37.28c-2.73.11-5.45.36-8.18.43-1.27,0-2.53,0-3.79,0-.35,0-.7,0-1,0h-1c-.8,0-1.6,0-2.4,0-2.89,0-5.77,0-8.66-.07l-1.81-.09-2.22-.12h.08c-1.87-.11-3.74-.07-5.61-.11-1,0-2,0-3.06,0s-1.93,0-2.89,0c-1.85,0-3.7-.07-5.54-.12s-3.87-.05-5.8-.14c-5.68-.36-11.35-.88-17-1.15-.9,0-1.79,0-2.7-.06-.71,0-1.41,0-2.12-.08-1.23-.1-2.45-.24-3.68-.36s-2.41-.21-3.61-.27l-.93-.05-2.33-.11.38,0-1.73-.1H146c-1.7-.1-3.41-.23-5.11-.32-2-.11-4-.29-6-.41-1.09-.06-2.18-.17-3.27-.29s-2.2-.17-3.29-.23l.39,0c-1.14-.06-2.28-.13-3.42-.17s-2.19,0-3.29-.09c-2-.12-3.9-.29-5.85-.39h.07c-3.61-.2-7.21-.63-10.82-.77l.39,0-.84,0c-.9-.05-1.8-.17-2.7-.23s-1.88-.16-2.81-.25c-2-.2-4-.27-6.06-.34l-.39,0h-.29l-.7,0q-1.42-.09-2.85-.15c-3.36-.22-6.7-.71-10.07-.9l-2-.11.39,0c-1.37-.07-2.73-.07-4.09-.12l.39,0c-2.52-.15-5-.34-7.56-.32-1.27,0-2.54,0-3.81,0s-2.5,0-3.75-.08l.39,0-1.51-.07-1.05-.05c-1.09-.06-2.17-.08-3.26-.12s-2-.1-2.92-.13H47.37c-2.11,0-4.21.22-6.31.31-1,0-2,.15-3,.26a17.64,17.64,0,0,0-3,.49c-.73.2-1.44.47-2.16.69s-1.28.35-1.92.48h.05a5.62,5.62,0,0,0-.55.15c-.18.06-.38.07-.55.14a1.56,1.56,0,0,0-.85.77A1.46,1.46,0,0,0,29.07,43a1.5,1.5,0,0,0,1.91.93,2.88,2.88,0,0,1,.42-.11l.43-.13c.74-.16,1.48-.34,2.21-.56.42-.12.82-.29,1.24-.42s.88-.25,1.33-.36,1.15-.15,1.73-.21,1.33-.15,2-.21,1.39-.07,2.08-.11,1.3-.08,1.95-.13,1.37-.09,2-.11,1.41,0,2.11,0c1.28,0,2.55,0,3.83.05s2.43.11,3.64.15l1,0h0l1.53.07-.39,0c2,.11,3.93.17,5.89.09s3.85,0,5.76,0l3.4.22c1.22.07,2.44.06,3.66.1l1,.05,1.29.08c1,0,1.93.16,2.9.25s1.84.17,2.76.26,1.85.21,2.78.28,1.65.1,2.48.14,1.47.09,2.2.12h.12l.5,0h-.1c1.1.06,2.2.09,3.3.13,1.48.1,3,.25,4.42.37s3,.27,4.45.35l1.59.08c1.59.09,3.17.24,4.75.36l2.56.22c.89.07,1.79.12,2.69.16,1.72.11,3.45.26,5.17.36.89.05,1.78.06,2.68.08s1.68.05,2.52.09l1.83.1c2.06.14,4.11.39,6.17.51s4.39.34,6.59.43c1.66.09,3.32.23,5,.31h-.28c1,.06,1.94.1,2.91.14l-.39,0,1.28.07-.39,0,1,.06c1.88.1,3.76.33,5.64.51.93.09,1.86.13,2.79.17s2.13,0,3.19.06l1.6.08c1.49.09,3,.21,4.46.29,1.8.1,3.6.3,5.4.42l4.8.32c1.73.11,3.46.15,5.18.18,3,.06,6,.13,9.08.18.77,0,1.55,0,2.32,0s1.6,0,2.39,0c1.46,0,2.93,0,4.39.06l1.32.07-.39,0c.83.05,1.67.1,2.5.13h.18c1.6.09,3.2.14,4.8.13,1.76,0,3.52,0,5.28,0h.32l2.28,0c.4,0,.79,0,1.19,0h1.31c1.6,0,3.2,0,4.8-.11.76,0,1.51-.1,2.27-.15.92-.06,1.85-.09,2.77-.14,1.66-.1,3.32-.17,5-.3s3.42-.17,5.13-.29,3.47-.31,5.2-.49c2.88-.31,5.77-.54,8.64-1,.75-.12,1.52-.18,2.28-.27s1.38-.17,2.06-.27c1.49-.21,3-.37,4.46-.61s3-.54,4.52-.74l4.38-.53c3-.35,6-.75,8.94-1.37h.09l2.3-.51,1.61-.34c.91-.18,1.83-.35,2.74-.51s2.09-.43,3.14-.65q1.35-.27,2.7-.51c.83-.16,1.67-.28,2.51-.45,1.9-.39,3.77-.89,5.65-1.37s3.46-.87,5.18-1.35,3.53-1,5.31-1.35c1-.19,1.92-.39,2.88-.61.7-.14,1.4-.27,2.09-.46s1.46-.41,2.19-.65l1.84-.63c.72-.23,1.44-.42,2.16-.64,1.53-.48,3.07-.91,4.62-1.32s3.22-.81,4.82-1.24,3-.92,4.53-1.4l2.16-.69c.77-.26,1.53-.52,2.31-.76,1.34-.42,2.68-.8,4-1.15s2.74-.88,4.1-1.31c.76-.23,1.53-.43,2.29-.67s1.6-.54,2.4-.82c1.42-.49,2.87-.94,4.28-1.48l1.71-.67c.71-.3,1.4-.63,2.1-.94s1.32-.62,2-.89,1.38-.53,2.06-.83c2.57-1.1,5.15-2.17,7.8-3.08Z"/><path class="cls-1" d="M201.82,49.51l-.38,0,.38,0Z"/><path class="cls-1" d="M162.21,48h0Z"/><path class="cls-1" d="M204.56,46.67h0Z"/><path class="cls-1" d="M162.87,45.07h0Z"/><path class="cls-1" d="M150.62,44.29h0Z"/><path class="cls-1" d="M140.83,43.74h0Z"/><path class="cls-1" d="M79.52,42.44h0Z"/><path class="cls-1" d="M56,41.75l-.29,0,.29,0Z"/><path class="cls-1" d="M104.89,41.38h0Z"/><path class="cls-1" d="M57.7,38.86h0Z"/><path class="cls-1" d="M56.6,38.8h0Z"/><path class="cls-1" d="M314.83,36l.29-.06-.29.06Z"/><path class="cls-1" d="M312.49,33.43l.2,0-.2,0Z"/><path class="cls-1" d="M312.72,33.38l.15,0-.15,0Z"/><path class="cls-1" d="M283.5,40l.08,0-.11,0Z"/><path class="cls-1" d="M57,41.8h0Z"/><path class="cls-1" d="M92.32,43.49h0Z"/><path class="cls-1" d="M92.89,43.52h0Z"/><path class="cls-1" d="M281.12,43.54h0Z"/><path class="cls-1" d="M146,44.06h0Z"/><path class="cls-1" d="M149.61,44.24h0Z"/><path class="cls-1" d="M146.11,47h0Z"/><path class="cls-1" d="M205.27,49.69h0Z"/><path class="cls-1" d="M374.63,23.15l-1.84.76c-.69.29-1.38.59-2.09.83s-1.47.47-2.22.69-1.34.43-2,.66c-.82.28-1.66.51-2.49.74s-1.54.49-2.3.73l-2.36.73c-1.48.45-2.94.91-4.4,1.4s-2.78.94-4.17,1.39q-2.36.77-4.77,1.37c-1.44.37-2.85.81-4.27,1.26s-3.09.95-4.62,1.48-3.08,1.14-4.65,1.62-2.89.8-4.35,1.14c-.8.19-1.6.35-2.39.58l-2.17.65c-1.51.46-3,.82-4.56,1.24-3.12.88-6.23,1.8-9.41,2.5-1,.2-2.05.39-3.07.63l-1.49.33-.12,0-.51.1-.73.15-1.59.35-1.62.34c-.78.15-1.55.32-2.32.49l.26-.06c-2.53.53-5,1.16-7.55,1.74l-4.05.94c-.86.2-1.73.44-2.6.64l-1.33.26h0l-.35.07.16,0c-1.17.23-2.36.38-3.54.59s-2.62.56-3.93.84l.19,0-3.42.72c-3,.59-6.05,1-9.07,1.46-1.7.27-3.39.53-5.09.84-1.42.25-2.84.46-4.28.6-3.17.33-6.32.68-9.49,1-1.63.15-3.26.31-4.89.44s-3.12.23-4.68.34-3.25.2-4.88.23-3.1,0-4.65.11-2.9.17-4.36.19c-1.62,0-3.23.12-4.84.16l-5.27.13c-1.66,0-3.32.15-5,.19-3.29.1-6.58,0-9.87,0-1.33,0-2.67-.07-4-.1l-4.35-.08c-2.58,0-5.17,0-7.76-.16-.76-.06-1.53-.1-2.3-.14-1.11-.07-2.22-.13-3.33-.16-1.38-.05-2.76,0-4.14-.07-2-.12-4-.34-6.06-.48s-3.88-.26-5.82-.42c-.87-.08-1.74-.12-2.6-.23s-2-.29-2.93-.39-2.12-.22-3.18-.31S147,54,146,53.92l-1.34-.07-3.13-.18.39,0-1.18-.06H141c-1.86-.1-3.71-.24-5.57-.42L133,53c-1-.11-2.05-.18-3.09-.24l.39,0c-1.78-.1-3.55-.26-5.32-.38q-2.88-.2-5.75-.46c-1.71-.17-3.42-.4-5.13-.61s-3.7-.31-5.55-.4l.39,0c-.75,0-1.5-.14-2.25-.2s-1.52-.14-2.28-.24c-1.66-.22-3.33-.41-5-.6-3.13-.35-6.27-.61-9.41-.82-1.48-.1-3-.23-4.43-.42l-2.23-.29c-.82-.11-1.64-.18-2.47-.27-1.52-.17-3-.3-4.57-.51-1.33-.2-2.67-.27-4-.4-.48,0-1-.07-1.44-.1s-1.09-.13-1.65-.18c-1.17-.12-2.34-.31-3.51-.45s-2.24-.2-3.37-.29c-1-.08-1.93-.15-2.9-.2h-.3c-1.73-.07-3.45,0-5.18,0-.93,0-1.87,0-2.81,0s-1.75,0-2.63.06c-1.51,0-3,.24-4.51.33-.59,0-1.19.11-1.78.18a8.91,8.91,0,0,0-1.42.28c-.18,0-.37,0-.55.06a6.37,6.37,0,0,0-.66.16h-.13a1.52,1.52,0,0,0-1.38,1.61v0a1.51,1.51,0,0,0,1.22,1.36,2.91,2.91,0,0,0,1.39-.2l.44,0a5.32,5.32,0,0,0,.79-.18c.92-.16,1.85-.22,2.78-.31,1.44-.13,2.88-.26,4.33-.29l5-.11c1.67,0,3.33-.1,5,0l-.39,0,1.17.06h-.22l3.8.29c1.48.09,3,.3,4.41.51,2.7.38,5.44.41,8.14.8,1.52.22,3.06.34,4.6.51.75.09,1.52.14,2.28.25l2.41.32c1.47.18,2.94.3,4.42.4s3.13.25,4.69.36c1.21.09,2.41.23,3.61.36s2.55.28,3.82.44c2.46.31,4.94.6,7.41.73l-.39,0c1.74.11,3.48.2,5.21.41s3.42.42,5.14.6c1.9.2,3.83.32,5.74.45s3.6.27,5.41.37h-.07c1.79.12,3.57.35,5.35.53,1.93.19,3.86.3,5.79.4h-.16l.63,0,2.71.16h0l2.91.14c2.3.14,4.58.41,6.86.73,1.06.15,2.13.2,3.19.3s2.22.16,3.33.23c2.4.17,4.81.41,7.22.59s4.81.11,7.21.21l2.57.15-.38,0c1.6.09,3.2.18,4.8.22s3,0,4.47.06,3.26.07,4.88.09,3.2.09,4.8.11,3.36,0,5,0h2c1,0,2,0,3-.06,1.6-.07,3.2-.15,4.8-.18,1.83,0,3.66-.07,5.49-.14,1.57-.06,3.13-.13,4.7-.15s2.9-.15,4.35-.21,3.16-.05,4.74-.09,3.28-.16,4.92-.27l2.13-.13c.81-.05,1.62-.13,2.44-.2s1.54-.15,2.31-.22l2.61-.23c3.14-.29,6.28-.64,9.41-1,1.52-.15,3-.42,4.52-.69,1.82-.32,3.65-.58,5.47-.88,1.63-.27,3.25-.49,4.87-.74s3.26-.58,4.87-.93l4.86-1c.86-.16,1.72-.29,2.58-.42s1.55-.28,2.32-.45,1.67-.32,2.49-.55c1.29-.34,2.6-.61,3.89-.91,2.88-.67,5.74-1.37,8.62-2l-.26,0,1.78-.38c.63-.12,1.25-.26,1.87-.39l2.08-.44,1-.22a1.28,1.28,0,0,0,.34-.07l3.11-.67c.75-.15,1.51-.28,2.26-.46s1.65-.37,2.46-.57c1.62-.41,3.23-.88,4.82-1.35s3.08-.85,4.63-1.25c1.4-.36,2.77-.84,4.16-1.22.8-.21,1.61-.37,2.41-.57l2.22-.56a44,44,0,0,0,4.48-1.43q2.26-.83,4.56-1.55c1.54-.47,3.07-1,4.61-1.42s3-.78,4.55-1.22,2.91-1,4.36-1.43,2.88-1,4.34-1.43l4.53-1.39c.76-.25,1.51-.5,2.27-.71s1.65-.48,2.46-.76c1.4-.49,2.83-.85,4.23-1.35.72-.26,1.41-.57,2.11-.86l.49-.2Z"/><path class="cls-1" d="M175.48,59h0Z"/><path class="cls-1" d="M179.43,56.29l-.29,0,.29,0Z"/><path class="cls-1" d="M283.77,51.7l.27-.06-.27.06Z"/><path class="cls-1" d="M271.65,51.07l.28-.06-.28.06Z"/><path class="cls-1" d="M271.93,51l.09,0-.09,0Z"/><path class="cls-1" d="M284.18,48.58l.27,0-.27,0Z"/><path class="cls-1" d="M300.5,44.83l.09,0-.09,0Z"/><path class="cls-1" d="M282.82,48.86h0l-.21,0,.19,0Z"/><path class="cls-1" d="M141,56.62h0Z"/><path class="cls-1" d="M374.63,32.44c-.77.27-1.53.55-2.28.86-1.18.48-2.33,1-3.51,1.52l-1.79.71c-.69.28-1.38.49-2.08.7s-1.35.38-2,.58c-.82.25-1.65.49-2.47.72s-1.45.38-2.17.57-1.53.44-2.3.67c-1.49.46-3,.82-4.53,1.22s-2.75.92-4.1,1.39c-.61.22-1.22.42-1.83.62-.77.25-1.56.43-2.34.64-1.48.38-2.94.78-4.39,1.24s-2.8.87-4.2,1.28c-.65.19-1.31.39-1.95.63l-2.13.76c-1.37.46-2.72,1-4.11,1.37s-2.92.79-4.39,1.1l-.55.12c-1.21.24-2.43.48-3.63.74-1.36.3-2.72.62-4.07,1s-2.63.76-4,1.1c-1.06.28-2.13.52-3.2.75l.08,0-.19,0-.18,0,.11,0-1.95.38h0l-2.23.47-.7.15c-1.33.28-2.65.59-4,.9l-1,.2-.15,0h.05l-.11,0c-1.21.25-2.4.55-3.61.82h.07c-1.4.29-2.78.64-4.18,1l-3.19.65h0c-1.14.22-2.26.49-3.39.74a7.94,7.94,0,0,0-1,.18c-.19,0-.39.09-.58.13l-3.05.62h0l-1.12.23h.08c-1.13.24-2.25.53-3.38.77s-2.5.46-3.75.65c-.66.11-1.31.18-2,.29s-1.47.26-2.2.36l-2.18.28c-.8.11-1.59.24-2.39.36-1.35.21-2.7.49-4,.78-.59.11-1.19.2-1.79.28s-1.4.21-2.09.33c-1.38.22-2.76.41-4.15.55l-2,.18c-.83.07-1.67.09-2.49.17l-5.09.46-4.39.48c-1.48.14-3,.15-4.44.23-1.67.1-3.34.12-5,.22l-2.43.11c-.82,0-1.63.12-2.45.2-1.27.12-2.54.25-3.82.31s-2.83,0-4.24.09-3.09,0-4.64,0c-1.34,0-2.68,0-4,.08-.78,0-1.56.1-2.34.13s-1.33,0-2,0c-1.25,0-2.5,0-3.76-.05-1.45,0-2.91,0-4.37-.06-1.13,0-2.25,0-3.38-.05s-2.52-.19-3.79-.24l-3.53-.09-3.2-.07c-1.14,0-2.29-.08-3.44-.11-1.63-.1-3.25-.24-4.88-.31s-3.13-.08-4.69-.15c-2.06-.13-4.12-.34-6.19-.53s-4-.34-6-.44l.39,0c-.68,0-1.35-.09-2-.12l.39,0c-2.73-.15-5.46-.29-8.2-.38-.94-.06-1.88-.18-2.82-.27q-1.74-.16-3.48-.24h0c-1-.06-2-.07-2.93-.1-2.08-.12-4.17-.29-6.25-.5s-4.37-.45-6.57-.56h.06l-1.1-.05c-3-.21-6.1-.54-9.13-.92-1.66-.22-3.31-.5-5-.66s-3.24-.32-4.85-.55L96,59.48c-1.28-.19-2.57-.34-3.85-.55s-2.56-.39-3.84-.52-2.29-.17-3.43-.28-2.31-.25-3.48-.31h-.25l-1.65-.08-1,0c-1.9-.13-3.79-.29-5.69-.38-1.19-.07-2.39-.12-3.59-.1-1,0-2,0-3,0h.13l-1.3,0c-.6,0-1.2-.08-1.8-.1L62.16,57a3.5,3.5,0,0,1-.79-.11,1.5,1.5,0,0,0-.55,2.95,8,8,0,0,0,1.76.16l1.21.06c.74,0,1.47.09,2.21.1,2.16.1,4.32,0,6.48.14h0l.72,0c2,.14,4,.28,6,.39l1.67.08H81l.63,0h0l3.7.36c1.19.11,2.38.18,3.57.32s2.53.34,3.79.56,2.65.35,4,.55l2.16.31c.87.11,1.74.27,2.61.37,1.61.18,3.23.31,4.83.52s3.28.46,4.92.66,3,.37,4.56.49,2.81.24,4.22.31l.84,0h0q3.55.27,7.11.64c1.3.14,2.6.21,3.9.31s2.67.12,4,.17l-.28,0,.3,0h0l.87,0c1,.08,2,.15,3,.24s1.87.2,2.8.25c2.09.12,4.17.17,6.26.26l-.39,0c.92,0,1.84.12,2.77.16l-.39,0,2.11.12c1.21.07,2.42.18,3.63.28,1.37.12,2.75.23,4.12.39,2.87.31,5.76.31,8.64.43,1.39.08,2.79.19,4.19.27s2.76.1,4.14.14c2.46.09,4.93.09,7.39.2,1.57.1,3.13.24,4.71.26s2.91,0,4.37,0,2.68.07,4,.07h2.13c.68,0,1.35,0,2,0,1.56-.08,3.12-.16,4.68-.19h2.15c.78,0,1.56,0,2.33,0l4.66-.1c1.38,0,2.76-.14,4.13-.29.71-.08,1.43-.16,2.14-.21.86,0,1.73-.07,2.6-.12,1.67-.09,3.35-.12,5-.21,1.52-.09,3-.12,4.56-.23.66-.05,1.32-.13,2-.22s1.55-.17,2.32-.24c1.69-.16,3.37-.29,5.05-.46.79-.08,1.57-.13,2.36-.18s1.54-.12,2.31-.19c1.38-.12,2.75-.3,4.12-.51.66-.1,1.31-.23,2-.32s1.38-.18,2.07-.3,1.1-.22,1.65-.35c1.57-.29,3.14-.59,4.72-.81l2.59-.33c.79-.11,1.58-.26,2.37-.39s1.55-.21,2.32-.34,1.54-.26,2.32-.39c1.53-.27,3-.66,4.54-1l.49-.11-.08,0,.16,0,.21,0-.15,0,1.81-.38,2.14-.43a1.65,1.65,0,0,0,.32-.06c1.2-.25,2.38-.53,3.57-.78L287,60c1.06-.2,2.11-.4,3.16-.65s1.95-.47,2.93-.69h0c1.16-.25,2.32-.53,3.48-.8l.74-.15h-.07l.09,0,.14,0c1.37-.28,2.73-.64,4.11-.94l1-.22c.69-.14,1.38-.28,2.07-.44h0l.56-.12c1.21-.24,2.42-.48,3.63-.74s2.17-.53,3.25-.83c2.41-.68,4.84-1.31,7.29-1.83a73.88,73.88,0,0,0,8.68-2c1.4-.44,2.77-.94,4.15-1.41l1.92-.7c.71-.25,1.43-.43,2.15-.65,1.43-.44,2.86-.87,4.29-1.32s2.87-.82,4.32-1.18c2.81-.7,5.47-1.9,8.26-2.65.71-.2,1.41-.37,2.13-.54s1.61-.47,2.42-.71c1.49-.45,3-.81,4.49-1.23s2.92-.85,4.38-1.29c.64-.19,1.25-.43,1.88-.68s1.28-.5,1.91-.77c1.23-.53,2.44-1.09,3.69-1.58l.55-.21Z"/><path class="cls-1" d="M152.84,67.46h0Z"/><path class="cls-1" d="M137,66.48h0Z"/><path class="cls-1" d="M142.92,64h0Z"/><path class="cls-1" d="M119.42,62.26l-.31,0,.31,0Z"/><path class="cls-1" d="M281.47,61.22l.16,0h0l-.17,0Z"/><path class="cls-1" d="M281.71,61.17l.13,0-.13,0Z"/><polygon class="cls-1" points="281.98 61.11 281.98 61.11 281.99 61.11 281.98 61.11 281.98 61.11 281.98 61.11"/><path class="cls-1" d="M65.73,60.11h0Z"/><path class="cls-1" d="M272.89,60l.1,0-.1,0Z"/><path class="cls-1" d="M287.11,60l.2,0-.2,0Z"/><path class="cls-1" d="M281.9,58.09l.17,0-.17,0Z"/><path class="cls-1" d="M62.07,57h0Z"/><path class="cls-1" d="M321.5,49.13l.28-.05-.28.05Z"/><path class="cls-1" d="M306.53,52.71l.11,0-.18,0,.07,0Z"/><path class="cls-1" d="M304.51,53.11l-.37.08.37-.08Z"/><path class="cls-1" d="M296.43,54.88l.06,0-.12,0Z"/><path class="cls-1" d="M66,57.14l.26,0-.26,0Z"/><path class="cls-1" d="M297.42,57.71h-.09l.09,0Z"/><path class="cls-1" d="M81.12,57.81h0Z"/><path class="cls-1" d="M80.92,60.77h0Z"/><path class="cls-1" d="M277.69,62h-.14l.14,0Z"/><path class="cls-1" d="M120.55,62.31l.33,0-.33,0Z"/><path class="cls-1" d="M136.24,63.47h0Z"/><path class="cls-1" d="M135.72,66.42h0Z"/><path class="cls-1" d="M374.63,40.72c-.65.28-1.3.55-2,.81s-1.1.45-1.67.64-1.43.42-2.14.62a31.53,31.53,0,0,0-3.9,1.35c-1.23.51-2.48,1-3.75,1.37-.72.24-1.45.43-2.18.65s-1.33.41-2,.63c-1.3.42-2.58.91-3.87,1.38-2.59.93-5.25,1.64-7.84,2.55-1.25.44-2.52.88-3.78,1.26s-2.75.76-4.12,1.15c-.7.2-1.41.37-2.12.56l-1.81.54c-1.51.48-3,1-4.54,1.36s-2.9.82-4.33,1.32-2.74,1-4.14,1.44c-4.09,1.26-8.27,2.12-12.43,3.1l-1.65.38c-.53.12-1.06.28-1.59.43-1.07.3-2.14.62-3.21.91-1.92.51-3.87.92-5.81,1.33l.37-.08c-1.59.32-3.18.66-4.74,1.12l-2.3.66c-.77.22-1.55.39-2.34.56s-1.76.36-2.64.55l-1.58.34c-1.21.23-2.45.4-3.67.58s-2.52.39-3.78.63-2.54.42-3.82.63-2.83.5-4.24.79-2.57.52-3.87.68c-.75.1-1.5.16-2.25.26s-1.67.2-2.51.28c-1.54.15-3.08.3-4.61.5s-3,.41-4.56.61-2.84.45-4.27.57-3.07.29-4.61.45c-1.33.13-2.66.23-4,.36s-2.87.26-4.3.35l-2.2.14c-.6,0-1.21,0-1.83,0h-.55c-1.47,0-2.94.07-4.4.13-1.29,0-2.58.14-3.87.2-.73,0-1.47.05-2.2.09s-1.28.1-1.93.15c-1.16.09-2.34.13-3.5.2s-2.45.14-3.68.15c-.62,0-1.25,0-1.88,0l-2,0c-.57,0-1.15,0-1.73,0-.78,0-1.55,0-2.34,0-1.21,0-2.41,0-3.63,0s-2.59,0-3.89,0-2.75-.06-4.12-.09-2.59,0-3.89-.07-2.74-.23-4.11-.28-2.9,0-4.34-.06c-2.66-.05-5.32,0-8-.12l-1.89-.1c-3-.18-6-.22-9-.34-3.73-.2-7.48-.29-11.22-.31-1.78,0-3.55-.1-5.31-.16s-3.55-.1-5.32-.18h0c-1.62-.09-3.25-.1-4.89-.17-1.05-.07-2.1-.15-3.15-.2-1.54-.09-3.08-.18-4.61-.32-1.33-.12-2.65-.3-4-.43-1.13-.12-2.26-.21-3.4-.29-1.38-.09-2.77-.2-4.15-.27h.19c-2.54-.15-5.06-.52-7.59-.67h.12c-.56,0-1.13-.06-1.68-.09l.38,0-2.33-.12h0c-1.52-.1-3-.21-4.56-.28h.13c-1.13-.06-2.26,0-3.39-.09-.91-.06-1.81-.13-2.72-.16-.37,0-.75,0-1.13,0h-.7l0,0A1.5,1.5,0,0,0,86,71.82a1.5,1.5,0,0,0,1.2,1.75,4,4,0,0,0,1,.06H89l1.25,0c.84.07,1.69.14,2.53.16s1.72,0,2.58,0l-.39,0,1.31.06c1.57.1,3.13.22,4.7.29l2.37.12-.39,0,.77,0h-.18c2.59.2,5.17.54,7.78.68l-.26,0c2.49.16,5,.32,7.44.58,1.32.14,2.63.3,4,.42.78.08,1.56.11,2.34.16s1.53.11,2.3.15c1.46.1,2.93.21,4.4.25,1.07,0,2.15,0,3.23.1,1.75.09,3.51.13,5.27.2s3.4.14,5.1.18c1.91,0,3.81,0,5.72.07,1.64,0,3.28.07,4.92.15h.15c2.95.16,5.9.21,8.86.33l2.18.11c2.36.14,4.72.16,7.09.17,1.11,0,2.23,0,3.35,0,1.27,0,2.55,0,3.82.08s2.44.2,3.66.26,2.65,0,4,.07c.61,0,1.22,0,1.84,0s1.38,0,2.08,0c1.26,0,2.52,0,3.78,0s2.29,0,3.43,0c.72,0,1.43,0,2.15,0s1.26,0,1.89,0c1.12,0,2.23.06,3.35.06h.48c1.27,0,2.54-.06,3.81-.14s2.26-.1,3.4-.19l1.81-.15c.75,0,1.5-.06,2.25-.09,2.76-.09,5.51-.34,8.27-.34.75,0,1.48,0,2.22,0s1.58-.11,2.37-.15c1.48-.08,3-.2,4.46-.35l3.91-.35c1.51-.15,3-.32,4.53-.45,1.92-.16,3.81-.48,5.72-.74s4.11-.58,6.17-.79c1-.1,2.08-.18,3.11-.31S262,74.12,263,74s2-.29,3-.49c.85-.17,1.7-.33,2.54-.51l-.19,0,.24-.05.14,0-.13,0c2.63-.52,5.29-.87,7.92-1.37,1.17-.22,2.36-.36,3.54-.55l1.79-.27c.78-.12,1.56-.29,2.33-.47l2.24-.47c1-.18,1.91-.39,2.86-.61.75-.18,1.49-.41,2.23-.63,1.5-.44,3-.82,4.52-1.14,2.72-.55,5.42-1.18,8.09-1.91.73-.19,1.45-.42,2.17-.62s1.55-.4,2.33-.57c1.52-.34,3-.71,4.54-1.06s3-.69,4.53-1.08c1.25-.32,2.5-.68,3.73-1.06,1.4-.43,2.77-.94,4.15-1.44s2.87-.91,4.33-1.31,3-.9,4.53-1.36l1.71-.51c.73-.22,1.48-.38,2.22-.59,1.37-.39,2.75-.74,4.12-1.15s2.53-.82,3.78-1.26c2.59-.91,5.25-1.62,7.84-2.56,1.29-.46,2.57-1,3.87-1.37l1.83-.59c.79-.23,1.58-.45,2.36-.69,1.16-.37,2.32-.79,3.45-1.25s2.33-.91,3.53-1.29c.62-.19,1.24-.34,1.86-.52a18.73,18.73,0,0,0,1.79-.59c.6-.23,1.2-.48,1.8-.74Z"/><path class="cls-1" d="M167.08,77.7h0Z"/><path class="cls-1" d="M164.55,77.57h0Z"/><path class="cls-1" d="M184.39,75.24h0Z"/><path class="cls-1" d="M168.28,74.79h0Z"/><path class="cls-1" d="M168,74.78h0Z"/><polygon class="cls-1" points="166.14 74.67 166.13 74.67 166.14 74.67 166.14 74.67 166.14 74.67"/><path class="cls-1" d="M157.44,74.35h0Z"/><path class="cls-1" d="M127.2,73.32h0Z"/><path class="cls-1" d="M283.93,70.39l.22,0-.22,0Z"/><path class="cls-1" d="M284.18,67.31l.2,0-.2,0Z"/><path class="cls-1" d="M95.36,70.88l.26,0-.26,0Z"/><path class="cls-1" d="M268.64,73h0Z"/><path class="cls-1" d="M135.27,73.69h0Z"/><path class="cls-1" d="M155.77,77.24h0Z"/><path class="cls-1" d="M374.63,51.31l-.93.34c-1.15.44-2.29.91-3.45,1.31-2.14.76-4.21,1.73-6.37,2.45l-1.79.61c-.64.21-1.28.38-1.91.58-1.14.36-2.25.78-3.38,1.17s-2.45.63-3.66,1-2.48.75-3.75,1l-.1,0h0l-.19,0-.09,0,.07,0-.25.06c-2.5.5-4.92,1.25-7.37,2-1.21.36-2.42.72-3.63,1.11s-2.47.78-3.73,1.12-2.49.6-3.74.88-2.47.62-3.69,1-2.63.65-3.93,1-2.32.68-3.48,1c-1.43.44-2.91.75-4.38,1.06h0l-.29.07h0l.25-.06-.56.12h0l-.5.11c-1.53.39-3.05.81-4.6,1.14h0c-2.77.59-5.47,1.47-8.24,2.08-.93.18-1.87.31-2.8.49s-2.1.4-3.16.62l-2.29.49c-.87.19-1.74.41-2.61.59l.18,0-1.79.38c-1,.2-2.08.34-3.12.5-1.23.19-2.47.4-3.7.63-2.38.44-4.75.87-7.15,1.16s-4.94.64-7.43.77-4.94.48-7.4.82c-1.18.16-2.37.31-3.55.44s-2.32.19-3.47.31c-2.61.27-5.21.72-7.83.92q-1.82.15-3.63.33c-1.11.12-2.21.3-3.32.38s-2.48.19-3.72.31-2.2.24-3.3.32c-1.25.09-2.49.17-3.73.33s-2.28.33-3.43.43a35.13,35.13,0,0,1-4,.16c-1.18,0-2.36,0-3.54.07l-3.91.18c-1.42.06-2.84.21-4.26.27s-2.58.14-3.87.14-2.41,0-3.62,0c-1,0-2,0-2.94,0l-3,0c-1.81,0-3.61.14-5.41.07-2.73-.13-5.47-.15-8.2-.27-1.41-.06-2.82-.11-4.22-.12h-1c-1,0-2,0-3.05,0L170,83c-1.08-.06-2.16-.14-3.24-.14l-3.16,0c-1,0-2.07-.06-3.1-.09s-2,0-3-.09c-1.47-.09-2.95-.14-4.42-.21-1.15-.08-2.3-.2-3.46-.31s-2.34-.21-3.51-.27c-1.56-.1-3.13-.12-4.69-.18l-.6,0h0l-.58,0h0l-1.54-.08c-1-.05-1.92-.06-2.89-.09s-1.88-.09-2.83-.13l-1,0c-.81-.06-1.61-.16-2.42-.21-1-.07-2-.1-3-.13l-2.57-.05c-.84,0-1.68,0-2.51,0-1.28-.08-2.54-.19-3.82-.18-1.43,0-2.85.07-4.28.07a1.51,1.51,0,0,0-1.38,1.61,1.55,1.55,0,0,0,.51,1,1.53,1.53,0,0,0,1.1.36c.93,0,1.86,0,2.78,0s1.91-.06,2.87,0l1.64.12c.94.08,1.88.06,2.81.08,1.68,0,3.37.06,5,.13,1.14.08,2.27.2,3.4.26.86.06,1.72.09,2.58.12,1.16.06,2.33.08,3.49.13h0l.82,0,1.17.06.66,0h.31c1.41.07,2.82.09,4.23.15l1.1,0c1.6.12,3.2.33,4.81.46s3.35.16,5,.25l-.39,0c2.14.13,4.27.18,6.4.25s4.13,0,6.19.1l1.91.1h.09c1.43.08,2.86.16,4.3.16s2.85,0,4.28,0,3.07.13,4.6.18c1.38,0,2.75,0,4.13.1,1,0,2,.09,2.94.09h.58l3.59-.08c1.41,0,2.82-.07,4.22,0,1.24,0,2.48.06,3.72.07,2.66,0,5.31-.14,8-.32,1.28-.09,2.55-.16,3.83-.2s2.42-.12,3.63-.15c.64,0,1.27,0,1.9,0s1.46,0,2.2,0q1.75-.12,3.51-.36c1.16-.16,2.3-.3,3.47-.4l3.62-.31c1.16-.1,2.32-.22,3.49-.31l1.8-.14c.54,0,1.08-.13,1.63-.2,2.49-.3,5-.43,7.49-.75,1.21-.15,2.42-.34,3.64-.48s2.56-.28,3.85-.38c2.4-.19,4.77-.55,7.16-.86,1.29-.17,2.58-.33,3.88-.44,1.11-.09,2.23-.12,3.34-.22s2.51-.26,3.75-.42,2.49-.3,3.73-.48c2.28-.34,4.54-.81,6.81-1.2,1.1-.2,2.2-.34,3.3-.52s2.41-.43,3.61-.7l-.38.08c1.51-.31,3-.68,4.51-1h0l1.82-.38-.37.08c1.16-.23,2.32-.44,3.49-.64s2.51-.46,3.74-.78c2.12-.56,4.23-1.16,6.37-1.65l-.38.08c.89-.18,1.77-.39,2.65-.6s1.85-.48,2.77-.71l.09,0a1.53,1.53,0,0,0,.36-.07h0l.07,0h0c1.08-.23,2.17-.46,3.24-.72s2.36-.66,3.54-1,2.55-.71,3.84-1,2.51-.71,3.78-1,2.5-.59,3.75-.87,2.42-.64,3.62-1,2.44-.79,3.66-1.16,2.44-.71,3.66-1.07c1.42-.41,2.83-.82,4.26-1.15h0l.92-.19h0l.23,0h0c1.3-.27,2.58-.62,3.85-1s2.48-.63,3.7-1,2.21-.75,3.32-1.13c.61-.21,1.23-.4,1.85-.58s1.24-.41,1.86-.62c1.12-.37,2.23-.78,3.32-1.23s2.08-.87,3.14-1.24,2.27-.85,3.41-1.29l.38-.14Z"/><path class="cls-1" d="M188.07,86.47h0Z"/><path class="cls-1" d="M187.88,86.46h0Z"/><path class="cls-1" d="M140.54,84.61h0Z"/><path class="cls-1" d="M140.25,84.6h0Z"/><path class="cls-1" d="M139.38,84.55h0Z"/><path class="cls-1" d="M132.59,84.27l-.34,0,.34,0Z"/><path class="cls-1" d="M189.52,83.57h0Z"/><path class="cls-1" d="M132,81.27h0Z"/><path class="cls-1" d="M349.21,59.84l.12,0h.05l-.17,0Z"/><path class="cls-1" d="M350.17,62.67l-.27.06.27-.06Z"/><path class="cls-1" d="M349.84,62.74h.05l-.08,0Z"/><path class="cls-1" d="M349.9,62.73h-.06l-.11,0,.17,0Z"/><path class="cls-1" d="M349.73,62.77l-.15,0h0l.18,0Z"/><path class="cls-1" d="M314.87,69.05h0Z"/><path class="cls-1" d="M140.88,81.65h0Z"/><path class="cls-1" d="M170.59,86h0Z"/><path class="cls-1" d="M374.63,59l-.79.32-2.23,1c-.71.31-1.45.59-2.18.86-1.37.51-2.78.91-4.13,1.46-.64.26-1.28.53-1.92.76s-1.27.43-1.91.63-1.28.38-1.92.56-1.29.38-1.93.58l-3.93,1.28-1.92.64-1.94.65c-2,.65-4,1.37-6.05,2-.95.3-1.9.58-2.84.91a26.13,26.13,0,0,1-2.71.91h-.14a1.5,1.5,0,0,0,.18,3h.06a6.51,6.51,0,0,0,1.3-.26c.37-.1.72-.24,1.08-.37.64-.24,1.29-.47,1.94-.69,1.41-.46,2.82-.89,4.22-1.37,2.71-.92,5.44-1.81,8.15-2.71,1.32-.44,2.65-.89,4-1.29l1.89-.56c.63-.19,1.28-.36,1.92-.57s1.32-.43,2-.67,1.25-.52,1.89-.76,1.32-.46,2-.68,1.45-.5,2.17-.78,1.26-.48,1.88-.76l1.88-.82,0,0Z"/><path class="cls-1" d="M338.36,71.52l.09,0-.09,0Z"/><path class="cls-1" d="M186.2,93c3-.16,5.9-.37,8.84-.25l-.38,0c3.23.18,6.47.35,9.71.37,1.6,0,3.19-.14,4.78-.23s2.92-.18,4.38-.21,2.87,0,4.3,0c1.71,0,3.43,0,5.14,0,1.49,0,3-.07,4.46-.08s3.09-.06,4.63-.1,3.07,0,4.59-.06c.78,0,1.56-.07,2.34-.14s1.56-.18,2.34-.28c1.5-.18,3-.42,4.5-.55s3.13-.27,4.69-.45c2.18-.24,4.37-.5,6.57-.58a18.73,18.73,0,0,0,3.42-.36l3.27-.74a1.41,1.41,0,0,0,.86-.76,1.48,1.48,0,0,0,.06-1.15,1.45,1.45,0,0,0-.76-.85,1.6,1.6,0,0,0-1.14-.07l-3,.67a38.36,38.36,0,0,1-4.28.34c-1.54.11-3.08.25-4.61.44s-3.14.3-4.7.46c-.8.07-1.6.15-2.39.25l-2.17.29c-1.54.21-3.09.39-4.65.46s-3,0-4.56.07-3.11.09-4.67.11-3,0-4.44.07-3.12.09-4.67,0-3.21,0-4.81,0c-3.08,0-6.13.37-9.21.44-1.24,0-2.48,0-3.72-.07s-2.42-.07-3.63-.13l.39,0c-1.65-.09-3.3-.23-5-.22s-3.11.08-4.66.17l-4.55.26a44.62,44.62,0,0,1-4.48,0l-.54,0c-2.26-.12-4.53-.21-6.79-.2l-3,0c-1.08,0-2.17,0-3.25-.09s-2.4-.21-3.61-.28c-.84,0-1.68-.1-2.52-.11l-2,0-1,0c-.87-.06-1.73-.18-2.6-.24-.4,0-.79-.06-1.18-.1-.57-.06-1.14-.08-1.71-.1h0c-.82,0-1.64,0-2.46,0a1.48,1.48,0,0,0-1,.51,1.5,1.5,0,0,0,.14,2.12,1.64,1.64,0,0,0,1.11.37c.69,0,1.37,0,2.06,0l.68,0c1.84.12,3.68.35,5.53.44h-.28c1.27.07,2.54.08,3.82.12s2.51.21,3.78.29c1.58.11,3.17.17,4.76.17,1.34,0,2.67,0,4,0s2.94.06,4.41.13,2.93.12,4.4.12h.17c1.37,0,2.74-.08,4.1-.16Zm-25.69-.54h0Zm-9.76-.59h0Zm15-2h0Zm-.29,0h0Zm-8.08-.44h0Zm-.94-.06h0Zm.21,3h0Z"/><path class="cls-1" d="M217.79,100.42c1.59-.09,3.16-.32,4.74-.51s3.12-.27,4.67-.38,3.23-.18,4.84-.29c.75,0,1.51-.13,2.27-.17s1.42-.07,2.13-.12c.94,0,1.88-.15,2.82-.25a1.5,1.5,0,1,0-.23-3c-1.52.16-3,.26-4.57.34s-3.15.23-4.73.33l-2.33.13-2.32.18c-1.6.11-3.18.27-4.76.46a38.44,38.44,0,0,1-4.67.33c-1.51,0-3-.09-4.53-.14s-3-.06-4.51,0c-.73,0-1.45,0-2.18,0s-1.4,0-2.1,0l-.76,0-.94-.06-.59,0h-.17l-.5,0H199L196.55,97a70.24,70.24,0,0,0-7.54-.2c-2.25.11-4.51.14-6.77,0l-1.09-.06.39,0-1.9-.1h-1.41l-2.64-.09a12.54,12.54,0,0,0-1.5-.06,1.5,1.5,0,0,0,.24,3h.47c1,.08,2,.09,3,.12s1.73,0,2.6.07l1.22.06c1.09.06,2.18.11,3.27.12s2.21,0,3.31,0,2.13-.1,3.2-.11,2,.06,3,.11h0c1.31.09,2.62.14,3.93.21h0a7.62,7.62,0,0,0,1,.05h.16a1.67,1.67,0,0,0,.32,0c.79,0,1.58.11,2.38.14s1.43,0,2.15,0c1.49,0,3,0,4.45,0s3.1,0,4.65.12c.86,0,1.72.07,2.58.07.61,0,1.23,0,1.84,0Zm-36.29-.6h0Zm-.89-.06h0Z"/><path class="cls-1" d="M374.63,67.49l-.81.34c-1.36.53-2.73,1.07-4.06,1.68a32.39,32.39,0,0,1-6.25,2.18c-1.27.24-2.54.49-3.8.77l-.33.07c-.58.11-1.15.21-1.72.36s-1,.23-1.51.41a1.52,1.52,0,0,0-.93,1.91,1.53,1.53,0,0,0,1.43,1,1.34,1.34,0,0,0,.48-.08c.29-.1.6-.16.89-.24l.93-.23,1.07-.22h.05l.17,0h0l1.44-.32a42.12,42.12,0,0,0,4.43-1,34.11,34.11,0,0,0,4.16-1.56c1.34-.6,2.7-1.15,4.07-1.7l.29-.12Z"/><path class="cls-1" d="M360.38,75.37l-.14,0h0l.14,0Z"/><path class="cls-1" d="M374.63,76.49l-.24.1c-1.37.59-2.77,1.12-4.14,1.72-1.07.47-2.13,1-3.17,1.48l-2.57,1.33-.17.08a1.6,1.6,0,0,0-.86.76,1.53,1.53,0,0,0-.07,1.15,1.55,1.55,0,0,0,.77.86,1.67,1.67,0,0,0,.69.16,1.1,1.1,0,0,0,.45-.09c1.21-.59,2.39-1.23,3.59-1.84,1.87-.91,3.8-1.68,5.72-2.48Z"/><path class="cls-1" d="M364.23,81.26l.16-.08-.16.08Z"/><path class="cls-1" d="M94.14,109.27a3.65,3.65,0,0,0-.76.3,10.52,10.52,0,0,0-1.19.77c-.41.31-.79.66-1.18,1-.75.68-1.46,1.43-2.17,2.15s-1.49,1.6-2.24,2.41a51.08,51.08,0,0,0-3.8,4.63c-1.25,1.73-2.41,3.5-3.52,5.32S77.1,129.4,76,131.18c-.51.83-1,1.66-1.5,2.5l-.48.88a.93.93,0,0,1,0-.1,56.11,56.11,0,0,0-2.57,5.22c-.72,1.68-1.34,3.39-2,5.1-1.31,3.5-2.49,7-3.63,10.6A2,2,0,0,0,67.05,158a2,2,0,0,0,2.59-1.14c1.13-3.51,2.29-7,3.58-10.47.62-1.64,1.2-3.29,1.88-4.9s1.5-3.32,2.37-4.92l.33-.6h0v0l.17-.31-.18.33c1-1.73,2.08-3.46,3.15-5.17s2.12-3.46,3.21-5.17a59.11,59.11,0,0,1,3.48-4.83c.59-.74,1.23-1.43,1.86-2.13s1.34-1.47,2-2.2a24.51,24.51,0,0,1,3.48-3.2c.06.09.12.17.17.26a18.09,18.09,0,0,1,1.35,2.89,30.59,30.59,0,0,1,.8,4.67c.09.85.18,1.69.23,2.53s.07,1.51.09,2.26c0,2.22,0,4.44.13,6.65s.22,4.24.3,6.37c0,.87.05,1.74.08,2.62,0,1.72.16,3.43.24,5.15s.19,3.31.34,5,.29,3.46.52,5.18c.1.75.2,1.51.31,2.26.15.94.42,1.87.51,2.81,0,.44,0,.88,0,1.32v.57a4.06,4.06,0,0,0,.25,2,2,2,0,0,0,3.73-1.44c0-.76.06-1.53.06-2.29a24.94,24.94,0,0,0-.54-3.55c-.13-.86-.24-1.72-.36-2.58s-.17-1.8-.26-2.7c-.35-3.67-.62-7.34-.77-11,0,.06,0,.13,0,.19,0-.86,0-1.72-.08-2.58-.06-2.82-.26-5.63-.37-8.45,0-2.21,0-4.41-.12-6.62,0-1-.07-2.06-.17-3.08s-.23-2.07-.36-3.11a16.6,16.6,0,0,0-1.79-5.84c-.26-.5-.54-1-.84-1.46a5.17,5.17,0,0,0-.54-.78,5.89,5.89,0,0,0-.78-.72,3.46,3.46,0,0,0-1.61-.59,1.23,1.23,0,0,0-.27,0,3.76,3.76,0,0,0-1.07.2Zm1.61,3.66-.07,0,.07,0ZM101.68,131a1.09,1.09,0,0,1,0,.18,1.09,1.09,0,0,0,0-.18ZM77.8,135.94c0,.05,0,.1-.08.14l.08-.14Zm-4-1,.21-.37-.21.37Zm.47-.86.22-.39,0-.08-.27.47Z"/><path class="cls-1" d="M75.31,136.9a2,2,0,0,0,1.79,2.19,77.41,77.41,0,0,0,10.41.92c1.65,0,3.32-.12,5,0a32.16,32.16,0,0,1,4.8.74l.65.17a2.21,2.21,0,0,0,1.54,0,2,2,0,0,0,1-1.11,2,2,0,0,0,0-1.53,1.9,1.9,0,0,0-1.11-1.06,39.42,39.42,0,0,0-5.71-1.1,41.8,41.8,0,0,0-5.13-.07,46.32,46.32,0,0,1-5.13-.21c-2-.21-3.93-.46-5.9-.7l-.23,0a2,2,0,0,0-2,1.8Zm22,3.87.27.07-.27-.07Z"/><path class="cls-1" d="M126.43,122.54a2,2,0,0,0-1.06,1.11c-.62,2.37-1.24,4.73-1.75,7.13-.41,2-.68,3.95-1,5.94s-.3,3.88-.37,5.83c-.08,2.11-.21,4.22-.37,6.33-.13,1.68-.27,3.37-.38,5.06s-.15,3.63-.32,5.44-.38,3.48-.52,5.22c-.08.94-.2,1.87-.32,2.8-.06.41-.12.83-.16,1.25,0,.23,0,.47,0,.7a6.63,6.63,0,0,0,.07,1,2.84,2.84,0,0,0,.5,1.07,1.93,1.93,0,0,0,1.36.75,2,2,0,0,0,2.2-1.79,1.88,1.88,0,0,0-.14-.93,27.58,27.58,0,0,1,.33-2.88c.13-1,.2-2.08.3-3.13.18-1.95.46-3.88.52-5.84.14-4,.64-8.09.82-12.14.13-2.87.13-5.74.52-8.59s.84-5.43,1.46-8.11c.31-1.22.63-2.44.95-3.66a2.13,2.13,0,0,0,0-1.53,2,2,0,0,0-1.1-1.06,2,2,0,0,0-1.53,0Z"/><path class="cls-1" d="M130.3,122.58c-1.05,0-2.11.08-3.17.13a1.9,1.9,0,0,0-1.29.78,2,2,0,0,0,.41,2.8,2.12,2.12,0,0,0,1.51.37c1,0,2-.09,3-.12.82,0,1.63,0,2.45.08a20.2,20.2,0,0,1,2.57.4,13,13,0,0,1,2.63.92,10.53,10.53,0,0,1,1.61,1.12,8.64,8.64,0,0,1,.9,1.1c.09.18.17.37.25.55s.07.42.09.63a13.53,13.53,0,0,1-.38,2.68,11.88,11.88,0,0,1-.69,1.92,9.85,9.85,0,0,1-.87,1.17,10.07,10.07,0,0,1-1.38,1.14,15.6,15.6,0,0,1-2.42,1.12c-.88.32-1.76.62-2.65.92-1.73.58-3.45,1.23-5.18,1.8a16,16,0,0,0-4.29,1.61,2.45,2.45,0,0,0-1.26,2.46,2.07,2.07,0,0,0,.89,1.36,2.9,2.9,0,0,0,1.51.48,11.77,11.77,0,0,0,3-.28,64.38,64.38,0,0,1,8-.88,18.15,18.15,0,0,1,2.33.08c.88.1,1.75.24,2.63.41a13.72,13.72,0,0,1,1.65.52c.69.28,1.36.59,2,.93s1.14.73,1.69,1.13,1,.84,1.5,1.28.83.85,1.22,1.29a13.17,13.17,0,0,1,1.24,1.65,11.62,11.62,0,0,1,.85,1.69,7.55,7.55,0,0,1,.17,1.16,17.92,17.92,0,0,1-.5,3.87,12.29,12.29,0,0,1-.73,2,12.68,12.68,0,0,1-1.24,1.6c-.32.3-.65.58-1,.86a11.94,11.94,0,0,1-1.1.76,22.16,22.16,0,0,1-2.19,1.07c-.71.3-1.43.53-2.17.77a43.37,43.37,0,0,1-8.16,1.31c-1.35,0-2.71,0-4.06-.12a23.36,23.36,0,0,1-3.9-.57l-.66-.16a2.12,2.12,0,0,0-1.53,0,2,2,0,0,0-1.06,1.1,2.05,2.05,0,0,0,0,1.54,1.91,1.91,0,0,0,1.11,1.05,34.51,34.51,0,0,0,3.63.79,28.26,28.26,0,0,0,3.06.25c1.07,0,2.15.08,3.22.07a26.08,26.08,0,0,0,3.3-.28,39.23,39.23,0,0,0,6.35-1.27,20.87,20.87,0,0,0,6-2.78,10.47,10.47,0,0,0,1.25-1c.57-.56,1.13-1.13,1.65-1.75a9.91,9.91,0,0,0,1.67-3.1c.21-.62.34-1.26.49-1.89a19.67,19.67,0,0,0,.46-2.95,12.28,12.28,0,0,0-.1-2.71,8.2,8.2,0,0,0-1.16-2.92,16.62,16.62,0,0,0-1.94-2.75,28.09,28.09,0,0,0-2.32-2.31,17.86,17.86,0,0,0-2.54-1.87,23.72,23.72,0,0,0-3.28-1.61,13.66,13.66,0,0,0-2.42-.7c-.7-.14-1.39-.28-2.09-.36-.5,0-1-.09-1.49-.11a17.37,17.37,0,0,0,1.81-.83,11.09,11.09,0,0,0,2.51-1.78,10.06,10.06,0,0,0,2.49-3.65,18.35,18.35,0,0,0,.83-3.24,11.4,11.4,0,0,0,.17-1.64,6.89,6.89,0,0,0-.19-1.92,7.56,7.56,0,0,0-1-2.14,8.86,8.86,0,0,0-2.78-2.67,13,13,0,0,0-2.63-1.32,22.11,22.11,0,0,0-5.58-1.12c-.41,0-.83,0-1.24,0s-1.06,0-1.59,0Zm-4.76,24.53-.05,0s0,0,.05,0Zm24,6.6.18.29-.18-.29Z"/><path class="cls-1" d="M183.34,131.48c-1.1,0-2.2,0-3.3.11a14.6,14.6,0,0,0-3.42.53c-1.06.33-2.1.77-3.12,1.18a13.32,13.32,0,0,0-2.76,1.6,16.76,16.76,0,0,0-2.2,2,14.66,14.66,0,0,0-2,2.68,19.64,19.64,0,0,0-1.47,3.11,19.41,19.41,0,0,0-.86,2.71,51.63,51.63,0,0,0-1.45,11.93,17.57,17.57,0,0,0,4.15,11.28,17.31,17.31,0,0,0,4.49,3.24q2.51,1.38,5.09,2.59a19.08,19.08,0,0,0,12,2.12A17.59,17.59,0,0,0,194,175a19.15,19.15,0,0,0,5.18-3.34,7.33,7.33,0,0,0,.63-.73c.17-.21.35-.42.51-.64a11.06,11.06,0,0,0,.82-1.31,38.92,38.92,0,0,0,2.32-5.72c.63-1.88,1.21-3.78,1.79-5.68.31-1,.64-2,.87-3a17.55,17.55,0,0,0,.4-3.07,19.83,19.83,0,0,0-.18-3.17,16.71,16.71,0,0,0-.52-2.7,18,18,0,0,0-3-6,9.53,9.53,0,0,0-1.67-1.5,14.83,14.83,0,0,0-1.72-1.11c-.56-.34-1.12-.71-1.71-1s-1.3-.61-2-.88-1.36-.7-2-1-1.3-.51-1.94-.78a11,11,0,0,0-2.8-1.13,11.09,11.09,0,0,0-3.45,0l-.67,0a1.86,1.86,0,0,0-1.4-.68Zm-1.49,4a2,2,0,0,0,1,.71,1.93,1.93,0,0,0,1.28,0h0l.76,0,.92-.08a11.61,11.61,0,0,1,2-.08,6,6,0,0,1,.83.23,18.56,18.56,0,0,0,1.86.88q.81.3,1.59.63c.45.22.89.45,1.33.68s1.11.49,1.67.73c.73.37,1.42.79,2.12,1.21.4.24.8.46,1.18.73a7.32,7.32,0,0,1,.69.52,8.39,8.39,0,0,1,.77.81c.33.5.63,1,.92,1.53a14,14,0,0,1,.7,1.58,16.93,16.93,0,0,1,.81,3.5,18.4,18.4,0,0,1,0,3.71,31.46,31.46,0,0,1-.84,3.17c-.35,1.16-.7,2.32-1.07,3.47a69.11,69.11,0,0,1-2.31,6.57,14.58,14.58,0,0,1-1.37,2.32c-.07.09-.14.17-.2.26a9.13,9.13,0,0,1-1.37,1.2,22.58,22.58,0,0,1-4.16,2.18,16.7,16.7,0,0,1-8.07.69,19,19,0,0,1-4.06-1.36c-.72-.34-1.43-.7-2.14-1.06s-1.56-.74-2.31-1.16a28.83,28.83,0,0,1-3.87-2.37,11.2,11.2,0,0,1-1.42-1.5,18.88,18.88,0,0,1-1.72-3.42,10.32,10.32,0,0,1-.42-1.44,12.13,12.13,0,0,1-.23-1.45,31,31,0,0,1,0-4.31c.11-1.6.29-3.19.52-4.77.19-1.08.4-2.16.68-3.23a24.62,24.62,0,0,1,1.18-3.45,15.6,15.6,0,0,1,1.73-2.88,18.59,18.59,0,0,1,2.52-2.34,9.57,9.57,0,0,1,1.69-.92c.62-.26,1.25-.49,1.87-.73a10.27,10.27,0,0,1,2.25-.55c.85-.07,1.71-.1,2.57-.12Zm15.09,32.58,0,.05h0l0-.05Z"/><path class="cls-1" d="M216.31,135.79c0,2.09,0,4.19,0,6.29,0,1.87.09,3.75.2,5.62s.27,3.77.31,5.66c0,2.07,0,4.15.3,6.21.12.92.27,1.83.43,2.74a15.4,15.4,0,0,0,.9,2.87,14.23,14.23,0,0,0,1.49,2.7c.36.53.75,1.05,1.14,1.56a8.24,8.24,0,0,0,1.47,1.36,12.45,12.45,0,0,0,3.1,1.59c.93.38,1.9.7,2.86,1a14.66,14.66,0,0,0,1.46.33,16.06,16.06,0,0,0,2,.28,11.45,11.45,0,0,0,3.15-.26,9.42,9.42,0,0,0,2.71-1.1,14.13,14.13,0,0,0,2.55-1.93,19,19,0,0,0,2-2.56,15.34,15.34,0,0,0,1.58-3c.4-.95.72-1.93,1.05-2.9a27.68,27.68,0,0,0,.87-3,49.57,49.57,0,0,0,.89-6c.11-1.32.18-2.65.31-4s.33-2.59.51-3.87a26.29,26.29,0,0,0,.24-3.87,40,40,0,0,0-.43-4.36,1.93,1.93,0,0,0-.87-1.23,2,2,0,0,0-1.54-.25,2.06,2.06,0,0,0-1.23.87,2.16,2.16,0,0,0-.25,1.53c.09.71.18,1.41.26,2.11a20.9,20.9,0,0,1,0,3.71c-.13,1.5-.32,3-.53,4.49s-.26,2.82-.38,4.23-.25,2.63-.44,3.94c-.12.62-.24,1.24-.38,1.85s-.41,1.44-.64,2.16c-.42,1.28-.86,2.56-1.39,3.79a19.49,19.49,0,0,1-2,3.07,12.51,12.51,0,0,1-1.42,1.3,13.88,13.88,0,0,1-1.79.94,7.85,7.85,0,0,1-1.34.3,11.48,11.48,0,0,1-2-.06c-.34-.06-.68-.12-1-.2a14,14,0,0,1-1.56-.47c-.87-.29-1.73-.59-2.58-1a9.85,9.85,0,0,1-1.53-.92,10.58,10.58,0,0,1-1.11-1.3,17.16,17.16,0,0,1-1.59-2.88,23,23,0,0,1-.93-4.57c-.15-1.76-.12-3.54-.19-5.3s-.2-3.79-.32-5.68-.2-3.63-.19-5.46c0-2.1,0-4.19,0-6.29a2,2,0,0,0-1.95-2h-.05a2,2,0,0,0-2,1.95Zm4.73,23s0,.09,0,.13,0-.09,0-.13Z"/><path class="cls-1" d="M281.87,131.69c-.68.16-1.34.37-2,.55s-1.61.45-2.43.62c-.61.13-1.21.22-1.82.29-1.55.13-3.1.1-4.65.12-1.79,0-3.59.21-5.37.4-.67.07-1.35.13-2,.21-1.71.17-3.42.29-5.14.43a2.17,2.17,0,0,0-1.41.53,2,2,0,0,0-.11,2.83,1.94,1.94,0,0,0,1.42.64c2.14-.18,4.28-.34,6.42-.57l1.67-.17c1.35-.13,2.7-.29,4.06-.3s2.8,0,4.2-.06a24.15,24.15,0,0,0,4.63-.66c.76-.19,1.51-.41,2.26-.65a12,12,0,0,1,1.57-.39h0a2,2,0,0,0,1.5-3.64,2.71,2.71,0,0,0-1.44-.36,5.64,5.64,0,0,0-1.36.18ZM266,133.63h0Zm-2.15.22-.21,0,.21,0Zm3,3.67-.22,0,.22,0Z"/><path class="cls-1" d="M270,135.85c-.22,4.1-.37,8.19-.52,12.29-.14,3.91-.69,7.81-.65,11.73,0,1.76,0,3.52.07,5.27.05,1,.14,1.9.22,2.85a10.73,10.73,0,0,1-.14,2.53c0,.21-.07.42-.11.62a2.24,2.24,0,0,0,.15,1.53,2.06,2.06,0,0,0,1.18,1,2,2,0,0,0,1.53-.15,1.87,1.87,0,0,0,1-1.18,22.45,22.45,0,0,0,.44-3.25,29.8,29.8,0,0,0-.18-3c-.17-1.83-.09-3.67-.12-5.51-.08-3.92.42-7.82.62-11.73.06-1.09.06-2.18.11-3.26s.09-2,.12-3c.08-2.21.19-4.41.31-6.61a2,2,0,0,0-2-2.05h0a2,2,0,0,0-2,1.94Z"/><path class="cls-1" d="M347.79,112c-1.64.67-3.28,1.34-4.87,2.12a25.43,25.43,0,0,1-4,1.76l-.41.07a1.75,1.75,0,0,0,.42,3.48,18,18,0,0,0,5.09-2c1.64-.84,3.36-1.53,5.07-2.23a1.75,1.75,0,0,0-.67-3.38,1.55,1.55,0,0,0-.63.13Z"/><path class="cls-1" d="M349.65,121.94c-1.68.79-3.35,1.6-5,2.48a46.32,46.32,0,0,1-4.72,2.25c-1.69.69-3.41,1.3-5.12,1.89s-3.2,1.21-4.82,1.78c-1,.36-2,.71-3,1-.25.07-.51.13-.77.18-.47.08-.94.13-1.4.24a1.9,1.9,0,0,0-1.18.68,1.7,1.7,0,0,0-.35,1.27,1.76,1.76,0,0,0,.67,1.18,1.68,1.68,0,0,0,1.27.35c.51-.13,1-.18,1.54-.27s1.12-.27,1.67-.41c.81-.21,1.61-.5,2.4-.78,1.6-.57,3.18-1.22,4.79-1.77s3.44-1.19,5.13-1.86,3.2-1.41,4.76-2.21c1.8-.94,3.6-1.87,5.45-2.73a1.79,1.79,0,0,0,1-2.27,1.86,1.86,0,0,0-1.65-1.12,1.52,1.52,0,0,0-.63.14Z"/><path class="cls-1" d="M349.06,136.61c-1.35.59-2.69,1.19-4.08,1.66s-2.64.81-3.93,1.3a1.75,1.75,0,1,0,1.29,3.25c.65-.24,1.3-.45,2-.66s1.25-.39,1.86-.6c1.44-.49,2.82-1.09,4.2-1.69a1.78,1.78,0,0,0,1-2.28,1.82,1.82,0,0,0-1.64-1.11,1.51,1.51,0,0,0-.63.13Z"/><path class="cls-1" d="M17.71,61.57A1.78,1.78,0,0,0,18,64c1.68,1.36,3.29,2.81,5,4.1a35,35,0,0,0,5.89,3.65,1.76,1.76,0,0,0,2.29-.94,1.78,1.78,0,0,0-.95-2.29c-.53-.25-1.06-.53-1.57-.82a40.44,40.44,0,0,1-4.19-2.89c-1.48-1.17-2.89-2.41-4.35-3.59a1.61,1.61,0,0,0-1-.36,1.8,1.8,0,0,0-1.42.68Z"/><path class="cls-1" d="M15.2,69.44a1.77,1.77,0,0,0-.34,2.46c.56.69,1.11,1.38,1.66,2.08a20,20,0,0,0,1.8,1.89,16.56,16.56,0,0,0,1.74,1.36c.76.52,1.52,1,2.33,1.48,1.37.75,2.77,1.42,4.18,2.1.66.32,1.31.65,2,1s1.49.66,2.21,1a1.75,1.75,0,0,0,2.3-2.26,1.8,1.8,0,0,0-.95-1c-.71-.36-1.45-.68-2.17-1s-1.35-.65-2-1c-1.37-.67-2.73-1.33-4.07-2.06A22.88,22.88,0,0,1,20,72.69c-.84-.93-1.6-1.93-2.38-2.91a1.82,1.82,0,0,0-1.41-.68,1.73,1.73,0,0,0-1,.34Z"/><path class="cls-1" d="M13.6,85.41a1.76,1.76,0,0,0,.32,2.45,45.83,45.83,0,0,0,4.56,3c1.62.93,3.28,1.78,5,2.58.78.36,1.58.67,2.37,1s1.51.65,2.27,1l5,2a40.3,40.3,0,0,1,4.08,1.83l.65.41a1.85,1.85,0,0,0,1.27.34,1.72,1.72,0,0,0,1.18-.67A1.75,1.75,0,0,0,40,96.92a28.78,28.78,0,0,0-5-2.49c-1.6-.64-3.22-1.26-4.82-1.93s-3.22-1.32-4.82-2S22.18,89,20.65,88.15l-.07,0c-.69-.4-1.38-.81-2-1.25-.85-.57-1.68-1.16-2.49-1.78A1.75,1.75,0,0,0,15,84.73a1.73,1.73,0,0,0-1.39.68Z"/><path class="cls-1" d="M9.5,114.24a1.75,1.75,0,0,0-1,2.27,1.86,1.86,0,0,0,1,1c1.77.94,3.53,1.92,5.34,2.78s3.38,1.62,5.12,2.32a1.78,1.78,0,0,0,2.29-1,1.76,1.76,0,0,0-.95-2.28c-1.72-.7-3.39-1.52-5.07-2.31-1.83-.86-3.6-1.85-5.39-2.79a1.33,1.33,0,0,0-.63-.14,1.93,1.93,0,0,0-.69.13Z"/><path class="cls-1" d="M9.68,124.29a1.77,1.77,0,0,0,.32,2.45,21,21,0,0,0,4.53,3c1.18.53,2.39,1,3.61,1.41a56.57,56.57,0,0,1,7.19,2.61,1.75,1.75,0,0,0,2.29-.94,1.77,1.77,0,0,0,0-1.32,1.84,1.84,0,0,0-.95-1A35.82,35.82,0,0,0,21,128.46c-.91-.28-1.81-.6-2.7-.93-.51-.18-1-.39-1.5-.6s-1.18-.49-1.75-.79A28.31,28.31,0,0,1,12.13,124a1.61,1.61,0,0,0-1-.36,1.77,1.77,0,0,0-1.41.68Z"/><path class="cls-1" d="M9.79,135a1.79,1.79,0,0,0,.94,2.29c1.59.76,3.18,1.51,4.82,2.15a1.78,1.78,0,0,0,2.29-.95,1.76,1.76,0,0,0-.95-2.29c-1.64-.64-3.23-1.38-4.81-2.15a1.49,1.49,0,0,0-.65-.14A1.82,1.82,0,0,0,9.79,135Z"/></g></g></svg>