<svg xmlns="http://www.w3.org/2000/svg" viewBox="0 0 374.6 206.6" fill="#fff" xmlns:v="https://vecta.io/nano"><path d="M374.6 0l-5.8 2.2-7.8 3.3-5.3 2-5.7 2.2c-1.9.7-4 1.2-6.1 1.9l-6.1 1.8c-4.1 1.2-8.3 2.4-12.5 3.4s-8.1 2-12.1 3.1c-6.4 1.8-12.8 3.9-19.3 5.1-3.2.6-6.5 1.4-9.7 2l-9.7 1.7c-1.9.2-3.8.5-5.7.6l-6.1.3c-4.3.2-8.6.3-12.8.7-2 .2-4 .3-6 .4s-4.2.1-6.3.1l-12.9.7c-2 .1-4.1.2-6.1.2s-4.3-.1-6.5-.1l-12.5-.2c-4.2 0-8.4 0-12.5-.1s-8.6-.3-12.9-.6c-2.2-.1-4.4-.4-6.6-.5s-4.4-.3-6.6-.4l-6.6-.3c-2.2-.1-4.1-.3-6.1-.4l-12.4-.5c-4.1-.1-8.4-.3-12.6-.7l-6-.6c-2.2-.2-4.3-.3-6.5-.4l-12.7-1.1-12.2-.9c-4.1-.3-8.2-.5-12.3-.4-2 0-4 .2-5.9.3s-4.1.1-6.2.2c-4.2.1-8.4.2-12.6.5-4 .2-7.9.8-11.7 1.6-1.8.4-3.6.9-5.3 1.4-1.9.5-3.6 1.2-5.3 2.1-1.3.8-2.5 1.7-3.7 2.7-.4.4-.9.8-1.4 1.2s-.8.8-1.2 1.2c-.5.4-1 .9-1.4 1.4l-.2.3-.1.2c-.1.2-.2.4-.4.7-.3.6-.6 1.1-.8 1.7s-.5 1.2-.8 1.8c-.1.4-.2.7-.4 1.1s-.3.6-.4.9c-.2.5-.4 1.1-.6 1.7l-.1.4-.1.3.1-.3v-.2l-.3.9v.2l-.2.7c-.1.2-.1.5-.2.8-.1.5-.2.9-.3 1.3h0v.1c0 .1-.1.2-.1.3s.1.3.2.5c1.1 2 3.7 2.8 5.8 1.6 1.3-.7 2.1-2 2.1-3.5.1-.4.2-.8.4-1.2.1-.2.2-.4.3-.5l.3-.5c.2-.4.4-.8.5-1.2.2-.4.4-.8.7-1.2l.8-1.3 2.1-2.1c.4-.4.8-.7 1.2-1s.6-.6.9-.9c.8-.5 1.6-1 2.5-1.5 2-.7 4.1-1.1 6.2-1.7a59.81 59.81 0 0 1 6.1-1.2c3.9-.5 7.9-.6 11.8-.8l12.4-.4c2-.1 3.9-.2 5.9-.2 2.2 0 4.4 0 6.6.1 3.9.2 7.8.4 11.8.8 4.2.3 8.4.6 12.7 1.1s8.5.6 12.7 1l6.2.6c2 .2 4.1.3 6.2.4l12.7.5 12.3.7 13.1.7c2.2.2 4.3.4 6.5.5l6.4.3c4.4.2 8.8.2 13.2.2l11.9.2c2.1.1 4.2.1 6.3.1s4.3.1 6.4.1c4.3 0 8.5-.4 12.8-.6l6.4-.3c2.2-.1 4.1 0 6.1-.2 4.2-.2 8.4-.6 12.6-.8s8.2-.2 12.3-.5c4.5-.4 9-1 13.4-1.8 2-.4 4.1-.7 6.1-1.2s4.2-.9 6.3-1.3c8.2-1.6 16.1-4.2 24.1-6.4 4-1.1 8.1-2 12.1-3.1l12.2-3.5 7-2.1c2.3-.7 4.4-1.6 6.6-2.5l7.3-2.8 6.2-2.7c1.2-.5 2.4-1 3.6-1.4V0h.3z"/><path d="M14.3 49.5h0z"/><path d="M14.3 49.5v-.2c0-.1 0 .1 0 .2zm-9.6 99.7c1.1 0 2.2-.4 3-1.2.4-.3.6-.7.8-1.2v-.2c-.2-1.2-.3-2.5-.3-3.8 0-1.5.2-3.1.4-4.6h0c0-.5 0-.9.1-1.4.2-1.3.3-2.6.4-3.9v.2l.5-6 .3-2.4.3-1.6c.1-.6 0-.7 0-1.1 0-.6.1-1.1.2-1.6 0-.4.1-.7.1-1.1s.1-.8.2-1.2l.4-4 .3-2.8c.1-.9.3-1.7.5-2.5l.8-4.8c.1-1 .3-2.1.5-3.2l.6-4.1.7-4 1-3.9c.1-.2.1-.4.2-.6.1-.9.3-1.7.5-2.6l.3-1.4c.1-1.1.3-2.2.5-3.2l.6-3c.1-.7.1-1.4.3-2.1l.5-2c0-.2.1-.3.1-.5l.1-.9c.1-.9.4-1.8.5-2.7.2-1.2.3-2.4.4-3.7 0-.4.1-.8.2-1.2.2-1.2.6-2.4.9-3.6.3-1.4.5-2.7.6-4.1.2-1 .5-1.9.8-2.8l1.5-4.8c.6-2.3-.7-4.6-3-5.2s-4.6.7-5.2 3h0l-1.4 4.7c-.1.5-.2 1-.2 1.5-.1.7-.3 1.5-.5 2.2v.1-.1c-.2.6-.3 1.2-.4 1.8l-.1 1c0 .4-.1.8-.1 1.1l-.8 4.1-.4 1.9c-.1.3-.1.6-.2.9 0 .1 0 .2-.1.3 0 .3-.1.7-.1 1-.1.7-.2 1.3-.4 2-.2.9-.3 1.9-.4 2.9-.3 1.8-.8 3.7-1.2 5.5-.3 1.2-.4 2.5-.7 3.8l-.7 3.5-.6 3.2-.5 2.8-.6 3.5c-.3 1.1-.4 2.4-.6 3.6l-.3 2.6c-.1.5-.1 1.1-.1 1.6-.3 2-.8 4-1.4 6l-.7 4.2-.2 3 .2-1.1c-.2 1.3-.3 2.7-.4 4.1l-.6 2.6-.5 3.2-.3 2.2c-.1.6-.1 1.2-.1 1.8l-.2 3.4c0-.1 0-.3.1-.4l-.3 3.2-.3 3.1c0 1 .1 2 .3 3 0 .3.1.6.1.9.1 1-.1 1.9 0 2.9 0 1.1.5 2.2 1.2 3 .6.8 1.7 1.3 2.9 1.2h0z"/><path d="M238.7 116.6l6.6-.2 6.3-.4c4.1-.2 8.2-.7 12.3-1.1 4.4-.4 8.7-1.1 13-1.9l5.8-1c1.6-.3 3.3-.5 4.9-.8 4-.8 8.1-1.7 12-2.8s7.8-2.4 11.7-3.6c3.3-1 6.7-1.9 10.1-2.8 3.6-1 7.1-2.3 10.7-3.4 1.5-.4 2.9-.9 4.4-1.3 1.6-.5 3.2-1.1 4.8-1.6.8-.3 1.6-.5 2.4-.7 1.2-.3 2.3-.8 3.5-1.2 1.9-.7 3.7-1.6 5.6-2.4 2.1-1.1 2.9-3.7 1.7-5.8-.5-1-1.4-1.7-2.5-2.1-1.1-.3-2.2-.2-3.2.3-1.8.8-3.6 1.7-5.4 2.4-1.7.6-3.4 1-5 1.6s-3.2 1.1-4.9 1.6-3.2 1-4.8 1.5c-2 .6-4 1.4-6.1 2-3.6 1.1-7.4 2-11 3.1-3.9 1.1-7.7 2.4-11.6 3.6-3 .9-6.1 1.6-9.2 2.3-2.9.6-5.7 1.3-8.6 1.7s-5.9 1.1-8.8 1.5l-9.5 1.4c-3.8.4-7.6.7-11.4 1-4.4.3-8.7.4-13.1.6l-8 .3-.4.1h-6.6l-2.4-.3c-.2 0-.5-.1-.7-.2h-.3c-2.1-.1-4.3-.2-6.4-.4-4.3-.3-8.6-.4-12.9-.7-4-.3-8-.7-12-1.2l-25-3.1c-3.9-.7-7.8-1.4-11.7-2.5-4.1-1.1-8.2-2.3-12.3-3.6l-24.8-7.6-5-1.5c-1.6-.5-3.2-1.1-4.8-1.7s-3.3-1.2-5-1.9c-1.5-.6-2.9-1.2-4.4-1.9-2.4-1.1-4.7-2.3-7-3.6s-4.6-2.4-6.9-3.6c-4.2-2.2-8.3-4.4-12.6-6.4l-4-1.9c-1.6-.8-3.2-1.5-4.8-2.2s-3.2-1.3-4.8-2l1 .5c-1.7-.8-3.4-1.6-5.1-2.3s-3.3-1.7-4.9-2.5c-.9-.5-1.8-.9-2.7-1.4s-1.7-1.2-2.5-1.7c-2-1.4-4.2-2.5-6.2-3.8-1.6-1-3.2-2-4.6-3.1-.7-.7-1.4-1.4-2.1-2.2-.5-.8-1-1.6-1.4-2.4-.1-.3-.2-.7-.3-1v-.6l.3-1.2c.8-2.2-.4-4.6-2.6-5.4s-4.6.4-5.4 2.6c0 .1-.1.2-.1.2-.3 1.2-.6 2.4-.7 3.7 0 1.8.3 3.5 1 5.2.2.6.6 1.2.9 1.8l.9 1.5c.9 1.3 1.9 2.6 3.1 3.7 1.6 1.4 3.3 2.7 5.1 3.8 1.9 1.2 3.9 2.3 5.8 3.5 1.7 1 3.2 2.3 4.9 3.2s3.4 1.7 5 2.6c2.4 1.2 4.9 2.2 7.3 3.3l-1-.5 4.6 2.1 3.7 1.5 3.3 1.5 4.3 2-1-.5c3.4 1.6 6.7 3.4 10 5.2 1.7 1 3.5 1.8 5.3 2.8l5.7 3c2.2 1.2 4.5 2.2 6.8 3.2 2 .9 4 1.8 6 2.5l5.8 2.1c1.9.7 4.1 1.3 6.2 2l24.7 7.6 12.1 3.6c4.2 1.1 8.5 2 12.9 2.7 4.6.8 9.2 1.3 13.9 1.9l12 1.4c4 .5 7.9.9 11.9 1.2 4.4.4 8.9.5 13.3.8 2.1.1 4.1.2 6.2.4s4.3.3 6.4.5c1.2.1 2.4.1 3.6.1 3-.4 5.9-.5 8.7-.7h0z"/><path d="M351.6 183.7l-.1.1h-.1l-.2.1.4-.2.5-.4c.2-.1.4-.4.6-.5l1.5-.9c.3-.2.5-.4.8-.6.2-.5.3-1 .3-1.5v-.5l.3-1.4.5-3.1.5-2.6c.1-.5 0-1 .1-1.4.1-.7.3-1.4.3-2.2s0-1.2.1-1.8 0-1.3 0-2c0-.9.1-1.7.2-2.6.1-.7.1-1.4.1-2.1V158c-.1-1.4-.1-2.9 0-4.3.3-1.8.4-3.6.4-5.4-.1-1.5 0-2.9.1-4.4l-.1-3.4c-.1-1.4-.1-2.8 0-4.2l.4-5.4c.1-1.5 0-3-.2-4.5l-.1-4.3.2-9.1c.1-1.9.1-3.8-.1-5.7l-.1-2.8c0-1.1-.2-2.3-.4-3.4-.1-.3-.1-.7-.1-1l-.4-5.9.3-7.2c.1-2.3-1.8-4.3-4.1-4.4-1.1 0-2.2.4-3 1.1-.8.8-1.3 1.9-1.4 3-.3 3-.4 6-.3 9l.3 4.2c.1 1.4.4 2.7.5 4v2.4c0 .8.1 1.8.2 2.7.1 1.7-.1 3.5-.1 5.2l-.1 8.6.2 4.2c.1 1.5.1 2.9 0 4.4l-.4 5.2c-.1 1.7 0 3.3.2 5 0-.4-.1-.7-.1-1.1.2 2.4 0 4.9 0 7.4.1 1.6 0 3.3-.3 4.9h0c-.1.6-.2 1.2-.2 1.9v6.2c-.1 1.6-.3 3.1-.2 4.7 0 .6 0 1.1-.1 1.7s0 1.1-.1 1.6c-.1.7-.3 1.3-.3 2v1.1c-.1.7-.3 1.3-.4 2l-.2 1.5-.3 1.2c0 .2-.1.4-.2.6l-.3 1.4v.9c0 1.1.4 2.2 1.1 3 .8.8 1.9 1.3 3 1.4h.1c.2-.1.4-.2.5-.4l.3.1zm6.2-43.2v-.2c0-.1 0 .2 0 .2z"/><path d="M207.7 206.5l6-.2c3.6-.1 7.3-.4 10.9-.7 1.6-.1 3.2-.2 4.8-.4h.3l1.1-.1c1.7-.1 3.4-.3 5.1-.3s3.6-.2 5.4-.4l11.6-.8c4.2-.4 8.5-.9 12.7-1.5 1.8-.2 3.5-.4 5.2-.7 2-.3 3.9-.7 5.9-1l10.5-1.4 2.6-.3 3-.3h.1c.2-.1.3-.1.5-.1l.4-.1.3-.1.2-.1h-.1c.9-.3 1.8-.5 2.7-.5h-.3 1.3c.2 0 .5 0 .7-.1l2.1-.3.5-.1h.1l2.9-.6 1.1-.2.9-.2 1.2-.3c.2 0 .4-.1.5-.1 1.4-.3 2.7-.6 4.1-.8 1.8-.3 3.5-.5 5.3-.8s3.3-.6 4.9-1c2-.5 4-1.1 6-1.6s3.9-1 5.9-1.4c1.6-.4 3.1-.6 4.7-.9l1.7-.5c.5-.2.9-.4 1.4-.6.7-.3 1.5-.6 2.3-.9s1.4-.7 2.2-.9 1.2-.6 1.8-.9c.3-.2.7-.3 1-.5.3-.1.6-.2.9-.4.4-.3.8-.5 1.2-.8h0-.1l-.2.1.3-.2.5-.3c.7-1.2.7-2.7.1-4-1.1-2.1-3.7-2.8-5.8-1.8-1.3.7-2.5 1.6-3.9 2.1-1.4.4-2.9.6-4.3.9-1.8.4-3.6.7-5.4 1-2 .4-3.9.9-5.9 1.4s-4 1.1-6 1.6c-1.7.4-3.4.7-5.1 1s-3.4.5-5.1.8c-3.3.6-6.6 1.4-10 2-1.4.2-2.8.5-4.1.8-1.7.4-3.3.6-5 .8-3.2.3-6.5.7-9.7 1.1-2.8.4-5.7.7-8.5 1.2-3.2.6-6.3 1-9.5 1.4l-9.2 1.1c-4.8.5-9.7.6-14.5 1.1l-5.2.3a73.54 73.54 0 0 0-6.6.6l1.1-.1-1.2.1c-1.8.2-3.6.2-5.3.4s-3.7.3-5.6.4c-3.9.2-7.8.3-11.6.4s-7.5 0-11.3-.1h-5.7c-2 0-4-.2-6.1-.2-3.9-.1-7.7-.3-11.6-.7-4.1-.5-8.2-.9-12.4-1.3-3.9-.3-7.9-.8-11.8-1.2-2.1-.2-4.2-.5-6.4-.8-2-.3-4-.5-5.9-.7-.9-.1-1.8-.2-2.7-.4l1.1.2-4.1-.6-7.4-1.3c-2-.3-4-.8-6-1.2s-4-.9-6-1.4c-4-1.1-8.1-1.8-12.2-2.8s-7.8-2.1-11.6-3.3l-18-5.5c-1.7-.5-3.3-1.2-5-1.9s-3.3-1.1-4.8-1.7-3.3-1.4-5-2.1c-1.9-.8-3.9-1.5-5.9-2.2s-3.8-1.5-5.7-2.2-3.7-1.2-5.4-2c-1.5-.7-3.1-1.3-4.7-1.8-.7-.2-1.4-.4-2.1-.7a22.56 22.56 0 0 1-2.2-1.1c-1.1-.6-2.2-1.1-3.4-1.6-.9-.4-1.8-.6-2.6-.9-.7-.3-1.4-.7-2-1l1 .5c-.6-.3-1.2-.7-1.9-1.1-.3-.2-.7-.3-1-.5l-.7-.5c-.5-.4-1-.8-1.6-1.1-.5-.3-.9-.6-1.3-.9-.5-.5-1-.9-1.6-1.4-.2-.1-.4-.3-.5-.4l-.6-.6-.3-.5-.1-.2v-.1c-.3-.4-.6-.8-.8-1.2-.5-.9-.8-2-.9-3-.2-1.2-.3-2.5-.3-3.8 0-.6 0-1.1.1-1.7-.4-.4-.9-.6-1.5-.8-1.1-.3-2.2-.2-3.2.3s-1.8 1.4-2.1 2.5c-.2.7-.3 1.4-.3 2.1 0 .3 0 .6.1.9-.1.3-.1.6-.1.8 0 .4.1.7.1 1.1-.1.7 0 1.3.1 1.9.1.4.2.9.3 1.3 0 .2 0 .4.1.7 0 .1.1.2.1.3 0 .3.1.7.2 1 .2.7.5 1.4 1 2l.6.9c.4.6.8 1.2 1.3 1.7s1 .9 1.6 1.4c.1.1.3.2.4.3.4.3.7.6 1.1.9l-.4-.4c.7.7 1.5 1.3 2.3 1.8.6.3 1.2.8 1.8 1.2.2.1.4.3.7.5.4.2.7.4 1.1.6l.9.6c.5.3.9.5 1.4.7 1.1.5 2.1 1 3.3 1.4.7.2 1.3.5 2 .8l1.1.6c.6.3 1.2.6 1.9.9l1.2.6c1 .4 2 .8 3 1.1 1.6.5 3.2 1.1 4.7 1.8 1.8.8 3.6 1.4 5.4 2s3.8 1.5 5.8 2.2 3.9 1.4 5.8 2.2l5 2.1c1.6.6 3.2 1.1 4.8 1.7s3.4 1.4 5.1 1.9l23.6 7.2c1.9.6 3.8 1.1 5.8 1.6s4.1.9 6.2 1.4l8 1.9c.3 0 .7.1 1 .2.5.1 1 .2 1.4.4l1.5.3c1.7.3 3.3.7 5 1.1s3.3.6 5 .8l8.4 1.4-1.1-.2a74.67 74.67 0 0 0 6.6.9c2.2.2 4.3.6 6.4.9 4 .5 8 .9 12 1.3l12 1.2 6.1.7c2.1.2 3.8.3 5.7.3 4 .2 8 .4 12 .4 1.9 0 3.8-.1 5.7 0s3.6.1 5.4.1h.9c1.8.4 3.6.3 5.3.2h0zm33.5-2.1h0zm-14.1-7.4h0zM1.2 147.9h0zm0 0h0l.1-.6-.1.6zm0-.1h0zm236-33.8c.8-.3 1.6-.5 2.4-.7.9-.2 1.8-.5 2.6-.8l1.1-.3 1.8-.6c.4-.1.7-.3 1.1-.4.4-.2.9-.3 1.4-.4.7-.1 1.4-.3 2-.4 1-.2 1.9-.5 2.9-.9a27.18 27.18 0 0 0 2.5-1.1l5.1-2.4 3.2-1.5c1-.5 2.1-.9 3.2-1.3l2.4-.9h-.1l.4-.2 4.1-1.4 2.9-.8c1-.3 2.1-.8 3.1-1.1l6.1-2.2 4.9-2c5.5-2.1 11.1-3.7 16.7-5 2.7-.6 5.4-1.3 8.1-2l4.7-1.2c1.6-.4 3.1-.6 4.7-.8s3-.2 4.5-.2c1.8 0 3.5-.2 5.3-.3s3.6.2 5.4.2c1.4.1 2.7.1 4.1.3.7.2 1.4.3 2.1.5.9.2 1.8.4 2.6.8l2.4 1.2c1 .6 2.1.8 3.3.6 2.3-.5 3.7-2.8 3.2-5.1h0c-.2-1.1-.9-2-1.9-2.6a25.94 25.94 0 0 0-6.2-2.7c-1.9-.5-3.9-.9-5.9-1.1-3.9-.4-7.8-.5-11.8-.3-2 .2-3.9.1-5.9.2-2.5.1-5.1.5-7.6 1-2.1.4-4.1 1-6.2 1.5-1.8.4-3.5.9-5.3 1.3-2 .5-4 .9-5.9 1.5-2.1.6-4.3 1.2-6.4 1.9s-4.1 1.4-6.1 2.2-4.2 1.6-6.2 2.5-4.1 1.4-6.1 2.2c-1.6.6-3.3 1.1-5 1.6s-3.3 1.1-5 1.8c-3.6 1.3-7.1 2.7-10.5 4.3-2 1-4.1 2-6.2 2.9l-2.4.6c-.5.2-1 .5-1.5.8-.7.4-1.6.7-2.3 1.1-1.7.9-3.4 1.6-5.2 2.2h0l-1.3.4-.5.1-1.1.4.3-.1c-.6.2-1.1.4-1.7.6l-1.1.3c-.4.8-.4 1.8-.2 2.7.3 1.1.9 2 1.9 2.6.7.4 1.5.7 2.3.7.2 0 .5-.1.8-.2h0zm41.7-15l.3-.1-.3.1z"/><path d="M269.1 102.3h0-.2.2zm-37.5 12.3c.3-.2.6-.3.9-.4l2.5-.8 3.2-.8 3.2-.6 4.2-1.3c1.1-.3 2-.9 2.6-1.8 1.3-2 .7-4.6-1.3-5.9h0c-.3-.2-.6-.3-.9-.4-.3.2-.6.3-.9.5-.7.4-1.6.7-2.3 1.1-1.7.9-3.5 1.6-5.3 2.3h.1c-.4.1-.8.3-1.2.4l-.4.1c-.4.1-.7.3-1.1.4l.3-.1-1.7.6-1.3.4c-.4.1-.8.2-1.2.2h-4.6c-.9 1.3-1 3-.2 4.4.7 1.4 2.2 2.2 3.8 2.2.7 0 1.4-.2 2-.5h-.4zm-220.9 2.7l.4-3.1c.2-1 .2-1.9.3-2.8s.3-1.7.5-2.5c.1-.4.2-.9.2-1.3L7 109.7c-1 .5-1.8 1.4-2.1 2.5a4.2 4.2 0 0 0 2.8 5.3h0c.4.1.8.2 1.2.2.6 0 1.2-.1 1.8-.4zm363.9-28.1l-4.9 2.5-4.9 2.1-4.5 2.1-3.8 1.4-1 .4c-.6.4-1.2.9-1.6 1.5-.6 1-.7 2.1-.4 3.2s1 2 2 2.6c.7.4 1.4.6 2.2.6.3 0 .7-.1 1-.2l3.2-1.2 4.1-1.8 5.6-2.6 2.9-1.2.1-9.4zm0-76.1l-.4.1-4.7 1.7-4.2 1.8-1.9.8-2.2 1c-1.2.6-2.5 1.1-3.7 1.5l-4.4 1.5-2.2.7-2.5.7-4 1.2c-1.4.3-2.8.8-4.1 1.2l-4.5 1.5-2.2.7-2.4.7-4.8 1.2-4.6 1.3-2 .6c-.7.2-1.3.5-2 .7-.9.3-1.7.5-2.6.7h.1l-2.7.6-4.1.9-4.3 1.1-8.1 2-3.4.6-4.1.8-5 1h-.2l-2.8.6.4-.1-1 .2-4.9.8-5 .6-5.1.7c-.8.2-1.6.3-2.4.4l-2.6.3-5 .6-4.8.6-5.1.5-5.2.5-4.1.2-4.4.3-8.2.4H215c-2.9 0-5.8 0-8.7-.1l-1.8-.1-2.2-.1h.1l-5.6-.1h-6c-1.9 0-3.7-.1-5.5-.1s-3.9 0-5.8-.1l-17-1.2c-.9 0-1.8 0-2.7-.1-.7 0-1.4 0-2.1-.1l-3.7-.4-3.6-.3h-.9l-2.3-.1h.4l-1.7-.1h.2l-5.1-.3-6-.4-3.3-.3-3.3-.2h.4l-3.4-.2s-2.2 0-3.3-.1l-5.8-.4h.1c-3.6-.2-7.2-.6-10.8-.8h.4-1c-.9 0-1.8-.2-2.7-.2s-1.9-.2-2.8-.2a60.78 60.78 0 0 0-6.1-.3H92c-.9-.1-1.9-.1-2.8-.2-3.4-.2-6.7-.7-10.1-.9l-2-.1h.4c-1.4-.1-2.7-.1-4.1-.1h.4c-2.5-.2-5-.3-7.6-.3h-3.8c-1.3 0-2.5 0-3.8-.1h.4l-1.5-.1h-1c-1.1-.1-2.2-.1-3.3-.1s-2-.1-2.9-.1h-2.9c-2.1 0-4.2.2-6.3.3-1 0-2 .2-3 .3s-2 .2-3 .5c-.7.2-1.4.5-2.2.7s-1.3.3-1.9.5h0c-.2 0-.4.1-.5.2-.2.1-.4.1-.5.1-.4.1-.7.4-.9.8s-.2.9 0 1.3c.3.8 1.1 1.2 1.9.9h0c.1 0 .3-.1.4-.1l.4-.1c.7-.2 1.5-.3 2.2-.6.4-.1.8-.3 1.2-.4s.9-.2 1.3-.4 1.2-.2 1.7-.2 1.3-.2 2-.2 1.4-.1 2.1-.1 1.3-.1 2-.1 1.4-.1 2-.1h5.9c1.3 0 2.4.1 3.6.2h1l1.5.1h-.4c2 .1 3.9.2 5.9.1s3.8 0 5.8 0l3.4.2c1.2.1 2.4.1 3.7.1h1l1.3.1c1 0 1.9.2 2.9.2s1.8.2 2.8.3l2.8.3c1 .1 1.7.1 2.5.1s1.5.1 2.2.1h.5c1.1.1 2.2.1 3.3.1 1.5.1 3 .2 4.4.4a32.53 32.53 0 0 0 4.4.3l1.6.1c1.6.1 3.2.2 4.8.4l2.6.2c.9.1 1.8.1 2.7.2 1.7.1 3.4.3 5.2.4.9 0 1.8.1 2.7.1s1.7 0 2.5.1l1.8.1c2.1.1 4.1.4 6.2.5l6.6.4 5 .3h-.3c1 .1 1.9.1 2.9.1h-.4l1.3.1h-.4l1 .1c1.9.1 3.8.3 5.6.5.9.1 1.9.1 2.8.2s2.1 0 3.2.1l1.6.1 4.5.3c1.8.1 3.6.3 5.4.4l4.8.3c1.7.1 3.5.2 5.2.2l9.1.2h4.7c1.5 0 2.9 0 4.4.1l1.3.1h-.4c.8 0 1.7.1 2.5.1h.2c1.6.1 3.2.1 4.8.1h10.4c1.6 0 3.2 0 4.8-.1.8 0 1.5-.1 2.3-.2.9-.1 1.9-.1 2.8-.1l5-.3 5.1-.3c1.7-.1 3.5-.3 5.2-.5 2.9-.3 5.8-.5 8.6-1l2.3-.3c.8-.1 1.4-.2 2.1-.3l4.5-.6c1.5-.2 3-.5 4.5-.7l4.4-.5c3-.3 6-.8 8.9-1.4h.1l2.3-.5 1.6-.3c.9-.2 1.8-.3 2.7-.5s2.1-.4 3.1-.7c.9-.2 1.8-.3 2.7-.5.8-.2 1.7-.3 2.5-.5 1.9-.4 3.8-.9 5.6-1.4s3.5-.9 5.2-1.3 3.5-1 5.3-1.3l2.9-.6c.7-.1 1.4-.3 2.1-.5s1.5-.4 2.2-.7l1.8-.6 2.2-.6c1.5-.5 3.1-.9 4.6-1.3s3.2-.8 4.8-1.2 3-.9 4.5-1.4l2.2-.7c.8-.3 1.5-.5 2.3-.8 1.3-.4 2.7-.8 4-1.1s2.7-.9 4.1-1.3c.8-.2 1.5-.4 2.3-.7s1.6-.5 2.4-.8c1.4-.5 2.9-.9 4.3-1.5l1.7-.7 2.1-.9c.7-.3 1.3-.6 2-.9s1.4-.5 2.1-.8c2.6-1.1 5.1-2.2 7.8-3.1v-3.1h-.1z"/><path d="M201.8 49.5h-.4.4zM162.2 48h0zm42.4-1.3h0zm-41.7-1.6h0zm-12.3-.8h0zm-9.8-.6h0zm-61.3-1.3h0zM56 41.8h-.3.3zm48.9-.4h0zm-47.2-2.5h0zm-1.1-.1h0zM314.8 36l.3-.1-.3.1zm-2.3-2.6h0zm.2 0h0zM283.5 40h0zM57 41.8h0zm35.3 1.7h0zm.6 0h0zm188.2 0h0zm-135.1.6h0zm3.6.1h0zm-3.5 2.8h0zm59.2 2.7h0zm169.3-26.6l-1.8.8-2.1.8-2.2.7c-.7.2-1.3.4-2 .7-.8.3-1.7.5-2.5.7s-1.5.5-2.3.7l-2.4.7-4.4 1.4-4.2 1.4-4.8 1.4-4.3 1.3-4.6 1.5-4.6 1.6c-1.5.5-2.9.8-4.4 1.1-.8.2-1.6.3-2.4.6l-2.2.7c-1.5.5-3 .8-4.6 1.2l-9.4 2.5-3.1.6-1.5.3h-.1l-.5.1-.7.2-3.2.6-2.3.5.3-.1-11.5 2.6-3.9.9-.4.1h.2l-3.5.6-3.9.8h.2l-3.5.9-9.1 1.5-5.1.8-4.3.6-9.5 1-4.9.4-4.7.3-4.9.2-4.6.1-4.4.2-4.8.2-5.3.1-5 .2h-9.9c-1.3 0-2.7-.1-4-.1l-4.4-.1c-2.6 0-5.2 0-7.8-.2-.8-.1-1.5-.1-2.3-.1l-3.3-.2c-1.4 0-2.8 0-4.1-.1l-6.1-.5-5.8-.4-2.6-.2-2.9-.4-3.2-.3c-1.1-.1-2 0-3-.1l-1.3-.1-3.1-.2h.4l-1.2-.1h.3l-5.6-.4-2.5-.1-3.1-.2h.4l-5.3-.4-5.8-.5-5.1-.6-5.6-.4h.4c-.8 0-1.5-.1-2.2-.2s-1.5-.1-2.3-.2l-5-.6-9.4-.8-4.4-.4-2.2-.3-2.5-.3-4.6-.5c-1.3-.2-2.7-.3-4-.4-.5 0-1-.1-1.4-.1s-1.1-.1-1.7-.2c-1.2-.1-2.3-.3-3.5-.5s-2.2-.2-3.4-.3l-2.9-.2h-.3c-1.7-.1-3.5 0-5.2 0h-2.8l-2.6.1c-1.5 0-3 .2-4.5.3-.6 0-1.2.1-1.8.2-.5.1-1 .1-1.4.3-.2 0-.4 0-.5.1-.2 0-.4.1-.7.2h-.1c-.8.1-1.4.8-1.4 1.6h0c.1.7.6 1.2 1.2 1.4.5 0 .9 0 1.4-.2h.4c.3 0 .5-.1.8-.2.9-.2 1.8-.2 2.8-.3l4.3-.3 5-.1h4.6l1.2.1h-.2l3.8.3 4.4.5 8.1.8 4.6.5 2.3.2 2.4.3 4.4.4 4.7.4 3.6.4c1.2.2 2.6.3 3.8.4l7.4.7h-.4l5.2.4 5.1.6 5.7.5 5.4.4h-.1l5.4.5 5.8.4h-.2.6l2.7.2 2.9.1c2.3.1 4.6.4 6.9.7 1.1.2 2.1.2 3.2.3l3.3.2 7.2.6c2.4.2 4.8.1 7.2.2l2.6.2h-.4l4.8.2 4.5.1 4.9.1 4.8.1h7l3-.1 4.8-.2 5.5-.1 4.7-.2 4.4-.2 4.7-.1 4.9-.3 2.1-.1c.8 0 1.6-.1 2.4-.2l2.3-.2 2.6-.2 9.4-1 4.5-.7 5.5-.9 4.9-.7c1.7-.2 3.3-.6 4.9-.9l4.9-1c.9-.2 1.7-.3 2.6-.4s1.5-.3 2.3-.5l2.5-.5 3.9-.9 8.6-2h-.3l1.8-.4 1.9-.4 2.1-.4 1-.2c.1 0 .2 0 .3-.1l3.1-.7 2.3-.5 2.5-.6 4.8-1.3 4.6-1.2 4.2-1.2 2.4-.6 2.2-.6 4.5-1.4c1.5-.6 3-1.1 4.6-1.5l4.6-1.4 4.5-1.2 4.4-1.4c1.5-.4 2.9-1 4.3-1.4l4.5-1.4 2.3-.7c.8-.2 1.6-.5 2.5-.8l4.2-1.4 2.1-.9.5-.2.1-3.4z"/><path d="M175.5 59h0zm3.9-2.7h-.3.3zm104.4-4.6l.3-.1-.3.1zm-12.2-.6l.3-.1-.3.1z"/><path d="M271.9 51h0zm12.3-2.4h0zm16.3-3.8h0zm-17.7 4.1h0-.2.2zM141 56.6h0zm233.6-24.2c-.8.3-1.5.5-2.3.9l-3.5 1.5-1.8.7c-.7.3-1.4.5-2.1.7l-2 .6-2.5.7-2.2.6-2.3.7c-1.5.5-3 .8-4.5 1.2s-2.8.9-4.1 1.4l-1.8.6-2.3.6-4.4 1.2-4.2 1.3-2 .6-2.1.8-4.1 1.4L322 49l-.5.1-3.6.7-4.1 1-4 1.1-3.2.8h.1-.3l-2 .4-2.2.5-.7.2-4 .9-1 .2h-.2c-1.2.2-2.4.5-3.6.8h.1l-4.2 1-3.2.7-3.4.7c-.3 0-.7.1-1 .2-.2 0-.4.1-.6.1l-3 .6-1.1.2h.1c-1.1.2-2.2.5-3.4.8s-2.5.5-3.8.7l-2 .3-2.2.4-2.2.3-2.4.4c-1.4.2-2.7.5-4 .8l-1.8.3-2.1.3-4.1.5-2 .2-2.5.2-5.1.5-4.4.5-4.4.2-5 .2-2.4.1c-.8 0-1.6.1-2.4.2l-3.8.3c-1.3.1-2.8 0-4.2.1s-3.1 0-4.6 0l-4 .1-2.3.1h-2c-1.2 0-2.5 0-3.8-.1-1.4 0-2.9 0-4.4-.1-1.1 0-2.2 0-3.4-.1l-3.8-.2-3.5-.1-3.2-.1c-1.1 0-2.3-.1-3.4-.1l-4.9-.3-4.7-.2-6.2-.5-6-.4h.4c-.7 0-1.4-.1-2-.1h.4l-8.2-.4-2.8-.3-3.5-.2c-1-.1-2-.1-2.9-.1l-6.2-.5-6.6-.6h.1-1.1l-9.1-.9-5-.7-4.8-.5-4.7-.7-7.6-1-3.4-.3-3.5-.3h-.2l-1.7-.1h-1l-5.7-.4c-1.2-.1-2.4-.1-3.6-.1H65c-.6 0-1.2-.1-1.8-.1l-1-.2c-.3 0-.5 0-.8-.1-.8-.2-1.6.4-1.8 1.2s.4 1.6 1.2 1.8c.6.1 1.2.1 1.8.1l1.2.1 2.2.1 6.5.1h.7l6 .4 1.7.1h.7l3.7.4 3.6.3a27.13 27.13 0 0 1 3.8.6c1.3.3 2.7.3 4 .5l2.2.3 2.6.4 4.8.5 4.9.7 4.6.5 4.2.3h.8l7.1.6 3.9.3 4 .2h-.3 1.2l3 .2c1 0 1.9.2 2.8.2l6.3.3h-.4c.9 0 1.8.1 2.8.2h-.4l2.1.1 3.6.3 4.1.4c2.9.3 5.8.3 8.6.4l4.2.3 4.1.1 7.4.2 4.7.3c1.6.1 2.9 0 4.4 0l4 .1h4.1l4.7-.2h4.4l4.7-.1c1.4 0 2.8-.1 4.1-.3l2.1-.2 2.6-.1 5-.2 4.6-.2 2-.2c.7-.1 1.6-.2 2.3-.2l5.1-.5 2.4-.2 2.3-.2c1.4-.1 2.8-.3 4.1-.5l2-.3 2.1-.3 1.6-.3 4.7-.8 2.6-.3 2.4-.4 2.3-.3 2.3-.4 4.5-1 .5-.1h-.1.3l1.8-.4 2.1-.4c.1 0 .2 0 .3-.1 1.2-.2 2.4-.5 3.6-.8l1.5-.5 3.2-.7 2.9-.7c1.2-.2 2.3-.5 3.5-.8l.7-.2h-.1.2l4.1-.9 1-.2 2.1-.4.6-.1 3.6-.7c1.2-.2 2.2-.5 3.2-.8l7.3-1.8c2.9-.5 5.8-1.2 8.7-2 1.4-.4 2.8-.9 4.1-1.4l1.9-.7 2.1-.7 4.3-1.3 4.3-1.2c2.8-.7 5.5-1.9 8.3-2.7l2.1-.5c.7-.1 1.6-.5 2.4-.7 1.5-.5 3-.8 4.5-1.2l4.4-1.3 1.9-.7 1.9-.8 3.7-1.6.5-.2.2-3.3zM152.8 67.5h0zm-15.8-1h0z"/><path d="M142.9 64h0zm-23.5-1.7h-.3.3zm162.1-1.1h0zm.2 0h0zm.3-.1h0zm-216.3-1h0zm207.2-.1h0zm14.2 0h0zm-5.2-1.9h0zM62.1 57h0zm259.4-7.9h0zm-15 3.6h0zm-2 .4l-.4.1.4-.1zm-8.1 1.8h0zM66 57.1h0zm231.4.6h0zm-216.3.1h0zm-.2 3h0zM277.7 62h-.1.1zm-157.1.3h0zm15.6 1.2h0zm-.5 2.9h0zm238.9-25.7c-.6.3-1.3.5-2 .8s-1.1.5-1.7.6-1.4.4-2.1.6l-3.9 1.3-3.8 1.4-2.2.7c-.7.3-1.3.4-2 .6l-3.9 1.4-7.8 2.5-3.8 1.3-4.1 1.2-2.1.6-1.8.5-4.5 1.4-4.3 1.3-4.1 1.4c-4.1 1.3-8.3 2.1-12.4 3.1l-1.6.4c-.5.1-1.1.3-1.6.4l-3.2.9c-1.9.5-3.9.9-5.8 1.3l.4-.1c-1.6.3-3.2.7-4.7 1.1l-2.3.7-2.3.6c-.8.2-1.8.4-2.6.6l-1.6.3-3.7.6-7.6 1.2c-1.3.2-2.8.5-4.2.8s-2.6.5-3.9.7l-2.2.3c-.7.1-1.7.2-2.5.3-1.5.2-3.1.3-4.6.5l-4.6.6-4.3.6c-1.5.2-3.1.3-4.6.4-1.3.1-2.7.2-4 .4s-2.9.3-4.3.3l-2.2.1h-2.4c-1.5 0-2.9.1-4.4.1-1.3 0-2.6.1-3.9.2-.7 0-1.5.1-2.2.1s-1.3.1-1.9.2c-1.2.1-2.3.1-3.5.2s-2.4.1-3.7.2h-15.4c-1.3 0-2.8-.1-4.1-.1s-2.6 0-3.9-.1l-4.1-.3c-1.4-.1-2.9 0-4.3-.1-2.7-.1-5.3 0-8-.1l-1.9-.1c-3-.2-6-.2-9-.3a209.33 209.33 0 0 0-11.2-.3c-1.8 0-3.6-.1-5.3-.2s-3.6-.1-5.3-.2h0c-1.6-.1-3.2-.1-4.9-.2-1.1-.1-2.1-.2-3.2-.2l-4.6-.3c-1.3-.1-2.7-.3-4-.4l-3.4-.3-4.2-.3h.2l-7.6-.7h.1c-.6 0-1.1-.1-1.7-.1h.4l-2.3-.1-4.6-.3h.1c-1.1-.1-2.3 0-3.4-.1-.9-.1-1.8-.1-2.7-.2H88c-.8-.1-1.6.4-1.7 1.2-.2.8.4 1.6 1.2 1.7h0c.3.1.7.1 1 .1h1.7c.8.1 1.7.1 2.5.2s1.7 0 2.6 0H95l1.3.1 4.7.3 2.4.1h-.4.6l7.8.7h-.3c2.5.2 5 .3 7.4.6 1.3.1 2.6.3 4 .4.8.1 1.6.1 2.3.2s1.5.1 2.3.2c1.5.1 2.9.2 4.4.2 1.1 0 2.1 0 3.2.1 1.8.1 3.5.1 5.3.2s3.4.1 5.1.2c1.9 0 3.8 0 5.7.1 1.6 0 3.3.1 4.9.2h.1c2.9.2 5.9.2 8.9.3l2.2.1 7.1.2h3.4c1.3 0 2.6 0 3.8.1l3.7.3c1.3.1 2.6 0 4 .1H204c1.1 0 2.2.1 3.4.1h.5c1.3 0 2.5-.1 3.8-.1s2.3-.1 3.4-.2l1.8-.2c.8 0 1.5-.1 2.2-.1 2.8-.1 5.5-.3 8.3-.3h2.2c.7 0 1.6-.1 2.4-.2l4.5-.3 3.9-.3c1.5-.2 3-.3 4.5-.4 1.9-.2 3.8-.5 5.7-.7s4.1-.6 6.2-.8l3.1-.3c1-.1 2.1-.1 3.1-.2s2-.3 3-.5c.9-.2 1.7-.3 2.5-.5h-.2l.2-.1c2.6-.5 5.3-.9 7.9-1.4l3.5-.6 1.8-.3c.8-.1 1.6-.3 2.3-.5l2.2-.5 2.9-.6c.8-.2 1.5-.4 2.2-.6 1.5-.4 3-.8 4.5-1.1l8.1-1.9 2.2-.6c.7-.2 1.5-.4 2.3-.6 1.5-.3 3-.7 4.5-1.1s3-.7 4.5-1.1c1.2-.3 2.5-.7 3.7-1.1 1.4-.4 2.8-.9 4.1-1.4s2.9-.9 4.3-1.3 3-.9 4.5-1.4l1.7-.5 2.2-.6c1.4-.4 2.8-.7 4.1-1.2s2.5-.8 3.8-1.3c2.6-.9 5.2-1.6 7.8-2.6 1.3-.5 2.6-1 3.9-1.4l1.8-.6c.8-.2 1.6-.5 2.4-.7l3.5-1.2c1.2-.4 2.3-.9 3.5-1.3.6-.2 1.2-.3 1.9-.5l1.8-.6c.6-.2 1.2-.5 1.8-.7l.4-3.2zm-207.5 37h0z"/><path d="M164.6 77.6h0zm19.8-2.4h0zm-16.1-.4h0zm-.3 0h0zm-1.9-.1h0zm-8.7-.4h0zm-30.2-1h0zm156.7-2.9h0zm.3-3.1h0zM95.4 70.9h0zM268.6 73h0zm-133.3.7h0zm20.5 3.5h0zm218.8-25.9l-.9.3-3.5 1.3-6.4 2.5-1.8.6-1.9.6-3.4 1.2c-1.2.4-2.5.6-3.7 1s-2.5.8-3.8 1h-.1l-.2.1c-2.5.5-4.9 1.2-7.4 2l-3.6 1.1-3.7 1.1-3.7.9-3.7 1c-1.2.4-2.6.7-3.9 1s-2.3.7-3.5 1l-4.4 1.1-.3.1.2-.1-.6.1-.5.1-4.6 1.1-8.2 2.1-2.8.5-3.2.6-2.3.5-2.6.6h.2l-1.8.4-3.1.5-3.7.6-7.1 1.2-14.8 1.6c-1.2.2-2.4.3-3.5.4l-3.5.3-7.8.9-3.6.3-3.3.4-3.7.3-3.3.3-3.7.3-3.4.4-4 .2-3.5.1-3.9.2-4.3.3-3.9.1h-9.5l-5.4.1-8.2-.3-4.2-.1H173l-3-.2c-1.1-.1-2.2-.1-3.2-.1h-3.2c-1 0-2.1-.1-3.1-.1s-2 0-3-.1l-4.4-.2-7-.6-4.7-.2h-1.2l-1.5-.1c-1-.1-1.9-.1-2.9-.1s-1.9-.1-2.8-.1h-1l-2.4-.2c-1-.1-2-.1-3-.1L124 81h-2.5l-3.8-.2-4.3.1c-.8.1-1.4.8-1.4 1.6 0 .4.2.7.5 1s.7.4 1.1.4h2.8c.9 0 1.9-.1 2.9 0l1.6.1c.9.1 1.9.1 2.8.1l5 .1 3.4.3c.9.1 1.7.1 2.6.1 1.2.1 2.3.1 3.5.1h.8l1.2.1h1l4.2.2h1.1l4.8.5c1.6.2 3.4.2 5 .2h-.4l6.4.2 6.2.1 1.9.1h.1l4.3.2h4.3l4.6.2 4.1.1 2.9.1h.6l3.6-.1h4.2l3.7.1 8-.3 3.8-.2c1.2 0 2.4-.1 3.6-.2h4.1l3.5-.4c1.2-.2 2.3-.3 3.5-.4l3.6-.3 3.5-.3 1.8-.1c.5 0 1.1-.1 1.6-.2l7.5-.8 3.6-.5c1.2-.2 2.6-.3 3.9-.4l7.2-.9c1.3-.2 2.6-.3 3.9-.4l3.3-.2 3.8-.4c1.3-.1 2.5-.3 3.7-.5l6.8-1.2 3.3-.5 3.6-.7-.4.1 6.3-1.4-.4.1 3.5-.6 3.7-.8 6.4-1.7-.4.1 2.6-.6 2.8-.7h.1c.1 0 .2 0 .4-.1h.1l3.2-.7c1-.2 2.4-.7 3.5-1l7.6-2 3.8-.9 3.6-1 3.7-1.2 3.7-1.1 4.3-1.2.9-.2h.2l3.9-1 3.7-1 3.3-1.1 3.8-1.2 3.3-1.2 3.1-1.2c1-.3 2.3-.8 3.4-1.3l.4-.1.1-3.5z"/><path d="M188.1 86.5h0zm-.2 0h0zm-47.4-1.9h0zm-.3 0h0zm-.8 0h0zm-6.8-.3h-.3.3zm56.9-.7h0zM132 81.3h0zm217.2-21.5h0zm1 2.9l-.3.1.3-.1zm-.4 0h0z"/><path d="M349.9 62.7h0-.2.2zm-.2.1h-.1.1zm-34.8 6.3h0zm-174 12.6h0zm29.7 4.3h0zm204-27l-.8.3-2.2 1-2.2.9-4.1 1.5c-.6.3-1.3.5-1.9.8s-1.3.4-1.9.6l-3.8 1.2-3.9 1.3-1.9.6-1.9.7-6 2-2.8.9c-.9.4-1.8.7-2.7.9h-.1c-.8 0-1.5.8-1.4 1.6s.8 1.5 1.6 1.4h.1a3.08 3.08 0 0 0 1.3-.3c.4-.1.7-.2 1.1-.4l1.9-.7 12.3-4.1 4-1.3 3.8-1.2 2-.7 1.9-.8c.7-.3 1.3-.5 2-.7s1.5-.5 2.2-.8l3.8-1.6-.4-3.1z"/><path d="M338.4 71.5h0zM186.2 93l8.8-.2h-.4l9.7.4 4.8-.2 4.4-.2h9.4l13.7-.3 2.3-.1c.7 0 1.6-.2 2.3-.3l4.5-.6 4.7-.4 6.6-.6c1.1 0 2.3-.1 3.4-.4l3.3-.7c.4-.1.7-.4.9-.8s.2-.8.1-1.2-.4-.7-.8-.8c-.4-.2-.8-.2-1.1-.1l-3 .7c-1.4.2-2.8.3-4.3.3l-4.6.4-4.7.5-2.4.2-2.2.3-4.6.5-13.7.3c-1.4.1-3.1.1-4.7 0s-3.2 0-4.8 0l-9.2.4c-1.2 0-2.5 0-3.7-.1s-2.4-.1-3.6-.1h.4l-5-.2-4.7.2-4.6.3c-1.5.1-3 .1-4.5 0h-.5l-6.8-.2h-3c-1.1 0-2.2 0-3.2-.1l-3.6-.3c-.8 0-1.7-.1-2.5-.1h-3l-2.6-.2c-.4 0-.8-.1-1.2-.1-.6-.1-1.1-.1-1.7-.1h0-2.5c-.4 0-.7.2-1 .5-.5.6-.5 1.6.1 2.1h0c.3.3.7.4 1.1.4h2.8l5.5.4h-.3c1.3.1 2.5.1 3.8.1s2.5.2 3.8.3l4.8.2h4l8.8.2h.2l4.1-.2.2-.1zm-25.7-.5h0zm-9.7-.6h0zm15-2h0zm-.3 0h0zm-8.1-.5h0zm-1 0h0zm.3 3h0zm61.1 8l4.7-.5 4.7-.4 4.8-.3c.8 0 1.5-.1 2.3-.2s1.4-.1 2.1-.1c.9 0 1.9-.2 2.8-.2.8-.1 1.4-.8 1.4-1.6-.1-.8-.8-1.4-1.6-1.4-1.5.2-3 .3-4.6.3s-3.1.2-4.7.3l-2.3.1-2.3.2-4.8.5c-1.5.2-3.1.3-4.7.3-1.5 0-3-.1-4.5-.1s-3-.1-4.5 0h-5.1l-.9-.1H199l-2.4-.3c-2.5-.2-5-.3-7.5-.2h-6.8l-1.1-.1h.4l-1.9-.1h-1.4l-2.6-.1c-.5 0-1-.1-1.5-.1-.8.1-1.4.8-1.4 1.6.1.8.8 1.4 1.6 1.4h.5c1 .1 2 .1 3 .1l2.6.1 1.2.1c1.1.1 2.2.1 3.3.1h3.3l3.2-.1 3 .1 3.9.2c.3 0 .7.1 1 .1h.5l2.4.1h6.5l4.6.1 2.6.1c.6.2 1.3.2 1.8.1h0zm-36.3-.6h0zm-.9 0h0zm194-32.3l-.8.3-4.1 1.7c-2 .9-4.1 1.7-6.2 2.2-1.3.2-2.5.5-3.8.8l-.3.1c-.6.1-1.1.2-1.7.4s-1 .2-1.5.4c-.8.3-1.2 1.1-.9 1.9.2.6.8 1 1.4 1 .2 0 .3 0 .5-.1.3-.1.6-.2.9-.2l.9-.2 1.1-.2h.2l1.4-.3 4.4-1c1.4-.4 2.8-1 4.2-1.6l4.1-1.7.3-.1-.1-3.4z"/><path d="M360.4 75.4h-.1.1zm14.2 1.1l-.2.1-4.1 1.7-3.2 1.5-2.8 1.4c-.4.1-.7.4-.9.8s-.2.8-.1 1.2.4.7.8.9c.2.1.5.2.7.2s.3 0 .5-.1l3.6-1.8 5.7-2.5v-3.4z"/><path d="M364.2 81.3l.2-.1-.2.1zM347.8 112l-4.9 2.1c-1.3.7-2.6 1.3-4 1.8l-.4.1c-1 .1-1.6 1-1.5 2s1 1.6 2 1.5h0c1.8-.4 3.5-1.1 5.1-2 1.6-.8 3.4-1.5 5.1-2.2.9-.4 1.3-1.4 1-2.3-.3-.7-.9-1.1-1.7-1.1-.3-.1-.5 0-.7.1h0zm1.8 9.9l-5 2.5c-1.5.8-3.1 1.6-4.7 2.2l-5.1 1.9-4.8 1.8c-1 .4-2 .7-3 1-.2.1-.5.1-.8.2-.5.1-.9.1-1.4.2s-.9.3-1.2.7-.4.8-.4 1.3c.1.5.3.9.7 1.2s.8.4 1.3.4l1.5-.3 1.7-.4c.8-.2 1.6-.5 2.4-.8l4.8-1.8 5.1-1.9 4.8-2.2 5.5-2.7c.9-.4 1.3-1.4 1-2.3-.3-.7-.9-1.1-1.6-1.1-.3 0-.5.1-.8.1h0zm-.5 14.7l-4.1 1.7-3.9 1.3c-.9.3-1.4 1.3-1.1 2.2s1.3 1.4 2.2 1.1c0 0 .1 0 .1-.1l2-.7c.7-.3 1.2-.4 1.9-.6l4.2-1.7c.9-.4 1.3-1.4 1-2.3-.3-.7-.9-1.1-1.6-1.1-.3.1-.5.1-.7.2h0zm-331.4-75c-.6.8-.4 1.8.3 2.4l5 4.1c1.8 1.4 3.8 2.6 5.9 3.7.9.4 1.9-.1 2.3-.9.4-.9-.1-1.9-1-2.3a11.94 11.94 0 0 1-1.6-.8c-1.5-.9-2.9-1.8-4.2-2.9L20 61.3c-.3-.2-.6-.4-1-.4s-1 .2-1.3.7h0zm-2.5 7.8c-.8.6-.9 1.7-.3 2.5l1.7 2.1 1.8 1.9c.5.5 1.1.9 1.7 1.4l2.3 1.5c1.4.8 2.8 1.4 4.2 2.1.7.3 1.3.7 2 1l2.2 1c.9.4 1.9-.1 2.3-.9.2-.4.2-.9 0-1.3s-.5-.8-1-1c-.7-.4-1.5-.7-2.2-1s-1.4-.7-2-1l-4.1-2.1c-1.4-.8-2.7-1.7-3.9-2.8l-2.4-2.9c-.3-.4-.9-.7-1.4-.7-.3-.1-.6 0-.9.2h0zm-1.6 16c-.6.8-.4 1.9.3 2.4 1.5 1.1 3 2.1 4.6 3l5 2.6c.8.4 1.6.7 2.4 1s1.5.7 2.3 1l5 2c1.4.5 2.8 1.1 4.1 1.8l.7.4c.4.3.8.4 1.3.3s.9-.3 1.2-.7c.6-.8.4-1.8-.3-2.4-1.6-1-3.3-1.8-5-2.5l-4.8-1.9-4.8-2-4.7-2.3h-.1l-2-1.2-2.5-1.8c-.3-.2-.7-.4-1.1-.4-.7 0-1.3.3-1.6.7h0zm-4.1 28.8c-.9.3-1.4 1.4-1 2.3h0a1.65 1.65 0 0 0 1 1l5.3 2.8 5.1 2.3c.9.3 1.9-.1 2.3-1s-.1-1.9-1-2.3l-5.1-2.3-5.4-2.8c-.2-.1-.4-.1-.6-.1-.1 0-.4 0-.6.1h0zm.2 10.1c-.6.8-.4 1.9.3 2.4 1.4 1.2 2.9 2.2 4.5 3l3.6 1.4c2.5.7 4.9 1.6 7.2 2.6.9.4 1.9 0 2.3-.9h0c.2-.4.2-.9 0-1.3s-.5-.8-1-1c-1.8-.8-3.7-1.5-5.7-2l-2.7-.9-1.5-.6-1.8-.8-2.9-2.1c-.3-.2-.6-.4-1-.4-.4-.1-.9.2-1.3.6h0zm.1 10.7c-.4.9.1 1.9.9 2.3 1.6.8 3.2 1.5 4.8 2.1.9.4 1.9-.1 2.3-.9.4-.9-.1-1.9-1-2.3-1.6-.6-3.2-1.4-4.8-2.1-.2-.1-.4-.1-.6-.1-.7-.1-1.3.3-1.6 1z"/><path d="M145 168.9l-4.4-.9c-.4-.1-.7-.3-.7-.8l-.8-6.6-14.8-3-3.4 5.8c-.2.4-.5.5-1 .4l-4.4-.9c-.6-.1-.7-.5-.4-1l19.1-31.7c.2-.4.6-.5 1-.4l4.6 1c.4.1.8.4.8.8l5.1 36.7c.2.4-.1.7-.7.6zm-6.7-13.8l-2.2-17.8-9.1 15.5 11.3 2.3zm18.8 11.1l-.5 3.3c-.1.5-.3.7-.8.7l-3.8-.4c-.5 0-.7-.4-.6-.9l3.8-35.4c.1-.5.3-.7.8-.7l4.1.4c.5 0 .7.4.6.9l-1.6 14.6c2.1-2.5 5.2-3.9 9.2-3.5 7.2.8 11.6 7.1 10.8 14.6s-6.4 12.8-13.6 12c-4.1-.3-6.9-2.5-8.4-5.6zm16.6-6.9c.5-4.9-2.4-8.5-7-9-4.5-.5-8 2.5-8.5 7.4s2.3 8.5 6.8 8.9c4.5.6 8.2-2.3 8.7-7.3zm8.7.8c.1-7.5 5.9-13.3 13.5-13.1 7.5.1 13 6.1 12.9 13.6s-5.9 13.3-13.4 13.1c-7.6-.1-13.1-6.1-13-13.6zm21 .4c.1-4.9-3.2-8.2-7.6-8.3s-7.9 3.1-8 8 3.2 8.2 7.6 8.3 7.9-3.1 8-8zm10.2 2.8l-1-14.8c0-.5.2-.8.7-.8l4.2-.3c.5 0 .7.3.8.7l.9 13.8c.3 4 2.4 6.2 6 5.9 3.5-.2 5.9-2.7 5.7-6.7l-.9-13.8c0-.5.2-.8.7-.8l4.1-.3c.5 0 .8.3.8.7l1.5 23.9c0 .5-.3.8-.7.8l-3.9.3c-.5 0-.8-.2-.8-.8l-.4-3.1c-1.3 2.7-3.8 4.8-7.7 5.1-5.6.4-9.6-3.1-10-9.8zm31.9 1.3l-2-15-3.2.4c-.5.1-.8-.2-.8-.7l-.4-2.9c-.1-.5.2-.8.6-.9l3.2-.4-.8-5.9c-.1-.5.2-.8.6-.9l4.2-.6c.5-.1.8.2.8.7l.8 5.9 4.1-.5c.5-.1.8.2.9.7l.4 2.9c.1.5-.2.8-.7.9l-4.1.5 1.9 14.3c.2 1.7 1.1 2.3 2.6 2.1.4-.1 1-.2 1.6-.3s1 .1 1 .6l.4 2.7c.1 1-2.1 1.6-3.6 1.8-3.8.7-6.8-.7-7.5-5.4z" enable-background="new"/></svg>