<?xml version="1.0" encoding="utf-8"?>
<!-- Generator: Adobe Illustrator 24.1.3, SVG Export Plug-In . SVG Version: 6.00 Build 0)  -->
<svg version="1.1" id="Layer_1" xmlns="http://www.w3.org/2000/svg" xmlns:xlink="http://www.w3.org/1999/xlink" x="0px" y="0px"
	 viewBox="0 0 374.6 206.6" style="enable-background:new 0 0 374.6 206.6;" xml:space="preserve">
<style type="text/css">
	.st0{fill:#FFFFFF;}
	.st1{fill:none;}
</style>
<path class="st0" d="M374.6,0c-1.9,0.8-3.9,1.5-5.8,2.2c-2.6,1-5.2,2.2-7.8,3.3c-1.8,0.7-3.5,1.3-5.3,2S351.9,9,350,9.7
	s-4,1.2-6.1,1.9s-4.1,1.2-6.1,1.8c-4.1,1.2-8.3,2.4-12.5,3.4s-8.1,2-12.1,3.1c-6.4,1.8-12.8,3.9-19.3,5.1c-3.2,0.6-6.5,1.4-9.7,2
	s-6.5,1.2-9.7,1.7c-1.9,0.2-3.8,0.5-5.7,0.6s-4,0.2-6.1,0.3c-4.3,0.2-8.6,0.3-12.8,0.7c-2,0.2-4,0.3-6,0.4s-4.2,0.1-6.3,0.1
	c-4.3,0.2-8.6,0.5-12.9,0.7c-2,0.1-4.1,0.2-6.1,0.2s-4.3-0.1-6.5-0.1c-4.1-0.1-8.3-0.2-12.5-0.2s-8.4,0-12.5-0.1s-8.6-0.3-12.9-0.6
	c-2.2-0.1-4.4-0.4-6.6-0.5s-4.4-0.3-6.6-0.4s-4.4-0.2-6.6-0.3s-4.1-0.3-6.1-0.4c-4.1-0.2-8.3-0.4-12.4-0.5s-8.4-0.3-12.6-0.7
	c-2-0.2-4-0.4-6-0.6c-2.2-0.2-4.3-0.3-6.5-0.4c-4.2-0.3-8.5-0.8-12.7-1.1c-4.1-0.3-8.1-0.6-12.2-0.9s-8.2-0.5-12.3-0.4
	c-2,0-4,0.2-5.9,0.3s-4.1,0.1-6.2,0.2c-4.2,0.1-8.4,0.2-12.6,0.5c-4,0.2-7.9,0.8-11.7,1.6c-1.8,0.4-3.6,0.9-5.3,1.4
	c-1.9,0.5-3.6,1.2-5.3,2.1c-1.3,0.8-2.5,1.7-3.7,2.7c-0.4,0.4-0.9,0.8-1.4,1.2s-0.8,0.8-1.2,1.2c-0.5,0.4-1,0.9-1.4,1.4l-0.2,0.3
	l-0.1,0.2c-0.1,0.2-0.2,0.4-0.4,0.7c-0.3,0.6-0.6,1.1-0.8,1.7c-0.2,0.6-0.5,1.2-0.8,1.8c-0.1,0.4-0.2,0.7-0.4,1.1s-0.3,0.6-0.4,0.9
	c-0.2,0.5-0.4,1.1-0.6,1.7l-0.1,0.4l0,0l0,0l0,0L15,46.2l0.1-0.3l0,0l0,0v-0.1v-0.1c-0.1,0.3-0.2,0.6-0.3,0.9c0,0,0,0.1,0,0.2
	l-0.2,0.7c-0.1,0.2-0.1,0.5-0.2,0.8c-0.1,0.5-0.2,0.9-0.3,1.3l0,0v0.1c0,0.1-0.1,0.2-0.1,0.3s0.1,0.3,0.2,0.5c1.1,2,3.7,2.8,5.8,1.6
	c1.3-0.7,2.1-2,2.1-3.5c0.1-0.4,0.2-0.8,0.4-1.2c0.1-0.2,0.2-0.4,0.3-0.5l0.3-0.5c0.2-0.4,0.4-0.8,0.5-1.2c0.2-0.4,0.4-0.8,0.7-1.2
	l0.8-1.3c0.7-0.7,1.4-1.4,2.1-2.1c0.4-0.4,0.8-0.7,1.2-1s0.6-0.6,0.9-0.9c0.8-0.5,1.6-1,2.5-1.5c2-0.7,4.1-1.1,6.2-1.7
	c2-0.5,4-0.9,6.1-1.2c3.9-0.5,7.9-0.6,11.8-0.8c4.1-0.1,8.2-0.2,12.4-0.4c2-0.1,3.9-0.2,5.9-0.2c2.2,0,4.4,0,6.6,0.1
	c3.9,0.2,7.8,0.4,11.8,0.8c4.2,0.3,8.4,0.6,12.7,1.1s8.5,0.6,12.7,1l6.2,0.6c2,0.2,4.1,0.3,6.2,0.4l12.7,0.5
	c4.1,0.2,8.2,0.5,12.3,0.7c4.4,0.2,8.7,0.4,13.1,0.7c2.2,0.2,4.3,0.4,6.5,0.5s4.2,0.2,6.4,0.3c4.4,0.2,8.8,0.2,13.2,0.2
	c4,0.1,7.9,0.1,11.9,0.2c2.1,0.1,4.2,0.1,6.3,0.1s4.3,0.1,6.4,0.1c4.3,0,8.5-0.4,12.8-0.6c2.1-0.1,4.2-0.2,6.4-0.3s4.1,0,6.1-0.2
	c4.2-0.2,8.4-0.6,12.6-0.8s8.2-0.2,12.3-0.5c4.5-0.4,9-1,13.4-1.8c2-0.4,4.1-0.7,6.1-1.2s4.2-0.9,6.3-1.3c8.2-1.6,16.1-4.2,24.1-6.4
	c4-1.1,8.1-2,12.1-3.1s8.1-2.3,12.2-3.5c2.4-0.7,4.7-1.4,7-2.1s4.4-1.6,6.6-2.5c2.4-0.9,4.9-1.8,7.3-2.8c2.1-0.9,4.1-1.8,6.2-2.7
	c1.2-0.5,2.4-1,3.6-1.4V0H374.6z"/>
<path class="st0" d="M14.3,49.5L14.3,49.5L14.3,49.5L14.3,49.5L14.3,49.5z"/>
<path class="st0" d="M14.3,49.5c0,0,0-0.1,0-0.2S14.3,49.4,14.3,49.5z"/>
<path class="st0" d="M4.7,149.2c1.1,0,2.2-0.4,3-1.2c0.4-0.3,0.6-0.7,0.8-1.2c0-0.1,0-0.2,0-0.2c-0.2-1.2-0.3-2.5-0.3-3.8
	c0-1.5,0.2-3.1,0.4-4.6l0,0c0-0.5,0-0.9,0.1-1.4c0.2-1.3,0.3-2.6,0.4-3.9c0,0.1,0,0.1,0,0.2c0.2-2,0.3-4,0.5-6
	c0.1-0.8,0.2-1.6,0.3-2.4c0.1-0.5,0.2-1,0.3-1.6s0-0.7,0-1.1c0-0.6,0.1-1.1,0.2-1.6c0-0.4,0.1-0.7,0.1-1.1s0.1-0.8,0.2-1.2
	c0.1-1.3,0.3-2.7,0.4-4c0.1-0.9,0.2-1.9,0.3-2.8s0.3-1.7,0.5-2.5c0.3-1.6,0.6-3.2,0.8-4.8c0.1-1,0.3-2.1,0.5-3.2
	c0.2-1.4,0.4-2.7,0.6-4.1s0.4-2.7,0.7-4s0.6-2.6,1-3.9c0.1-0.2,0.1-0.4,0.2-0.6c0.1-0.9,0.3-1.7,0.5-2.6c0.1-0.5,0.2-0.9,0.3-1.4
	c0.1-1.1,0.3-2.2,0.5-3.2s0.4-2,0.6-3c0.1-0.7,0.1-1.4,0.3-2.1s0.3-1.4,0.5-2c0-0.2,0.1-0.3,0.1-0.5l0.1-0.9
	c0.1-0.9,0.4-1.8,0.5-2.7c0.2-1.2,0.3-2.4,0.4-3.7c0-0.4,0.1-0.8,0.2-1.2c0.2-1.2,0.6-2.4,0.9-3.6c0.3-1.4,0.5-2.7,0.6-4.1
	c0.2-1,0.5-1.9,0.8-2.8c0.5-1.6,1-3.2,1.5-4.8c0.6-2.3-0.7-4.6-3-5.2c-2.3-0.6-4.6,0.7-5.2,3l0,0c-0.5,1.6-1,3.2-1.4,4.7
	c-0.1,0.5-0.2,1-0.2,1.5c-0.1,0.7-0.3,1.5-0.5,2.2c0,0,0,0,0,0.1v-0.1c-0.2,0.6-0.3,1.2-0.4,1.8l-0.1,1c0,0.4-0.1,0.8-0.1,1.1
	c-0.3,1.4-0.5,2.8-0.8,4.1c-0.1,0.6-0.3,1.2-0.4,1.9c-0.1,0.3-0.1,0.6-0.2,0.9c0,0.1,0,0.2-0.1,0.3c0,0.3-0.1,0.7-0.1,1
	c-0.1,0.7-0.2,1.3-0.4,2c-0.2,0.9-0.3,1.9-0.4,2.9c-0.3,1.8-0.8,3.7-1.2,5.5c-0.3,1.2-0.4,2.5-0.7,3.8s-0.5,2.3-0.7,3.5
	S7.2,87.7,7,88.8s-0.4,1.8-0.5,2.8c-0.2,1.2-0.3,2.4-0.6,3.5s-0.4,2.4-0.6,3.6c-0.1,0.9-0.2,1.7-0.3,2.6c-0.1,0.5-0.1,1.1-0.1,1.6
	c-0.3,2-0.8,4-1.4,6c-0.3,1.4-0.6,2.8-0.7,4.2c-0.1,1-0.1,2-0.2,3l0.2-1.1c-0.2,1.3-0.3,2.7-0.4,4.1c-0.2,0.9-0.4,1.8-0.6,2.6
	c-0.2,1.1-0.4,2.2-0.5,3.2c-0.1,0.7-0.2,1.4-0.3,2.2c-0.1,0.6-0.1,1.2-0.1,1.8c-0.1,1.1-0.1,2.3-0.2,3.4c0-0.1,0-0.3,0.1-0.4
	c-0.1,1.1-0.2,2.1-0.3,3.2s-0.3,2.1-0.3,3.1s0.1,2,0.3,3c0,0.3,0.1,0.6,0.1,0.9c0.1,1-0.1,1.9,0,2.9c0,1.1,0.5,2.2,1.2,3
	C2.4,148.8,3.5,149.3,4.7,149.2L4.7,149.2z"/>
<path class="st0" d="M238.7,116.6c2.2-0.1,4.4-0.1,6.6-0.2s4.2-0.2,6.3-0.4c4.1-0.2,8.2-0.7,12.3-1.1c4.4-0.4,8.7-1.1,13-1.9
	c1.9-0.3,3.8-0.7,5.8-1c1.6-0.3,3.3-0.5,4.9-0.8c4-0.8,8.1-1.7,12-2.8s7.8-2.4,11.7-3.6c3.3-1,6.7-1.9,10.1-2.8
	c3.6-1,7.1-2.3,10.7-3.4c1.5-0.4,2.9-0.9,4.4-1.3c1.6-0.5,3.2-1.1,4.8-1.6c0.8-0.3,1.6-0.5,2.4-0.7c1.2-0.3,2.3-0.8,3.5-1.2
	c1.9-0.7,3.7-1.6,5.6-2.4c2.1-1.1,2.9-3.7,1.7-5.8c-0.5-1-1.4-1.7-2.5-2.1c-1.1-0.3-2.2-0.2-3.2,0.3c-1.8,0.8-3.6,1.7-5.4,2.4
	c-1.7,0.6-3.4,1-5,1.6s-3.2,1.1-4.9,1.6s-3.2,1-4.8,1.5c-2,0.6-4,1.4-6.1,2c-3.6,1.1-7.4,2-11,3.1c-3.9,1.1-7.7,2.4-11.6,3.6
	c-3,0.9-6.1,1.6-9.2,2.3c-2.9,0.6-5.7,1.3-8.6,1.7s-5.9,1.1-8.8,1.5c-3.1,0.5-6.3,1-9.5,1.4c-3.8,0.4-7.6,0.7-11.4,1
	c-4.4,0.3-8.7,0.4-13.1,0.6c-2.7,0.1-5.3,0.2-8,0.3l-0.4,0.1c-0.3,0-0.7,0-1,0h-0.4c-0.6,0-1.2,0-1.8,0c-0.4,0-0.9,0-1.3,0
	s-0.8,0-1.1,0s-0.7,0-1,0c-0.8-0.1-1.6-0.2-2.4-0.3c-0.2,0-0.5-0.1-0.7-0.2H221c-2.1-0.1-4.3-0.2-6.4-0.4c-4.3-0.3-8.6-0.4-12.9-0.7
	c-4-0.3-8-0.7-12-1.2c-8.3-1-16.7-1.9-25-3.1c-3.9-0.7-7.8-1.4-11.7-2.5c-4.1-1.1-8.2-2.3-12.3-3.6c-8.3-2.5-16.5-5.1-24.8-7.6
	l-5-1.5c-1.6-0.5-3.2-1.1-4.8-1.7s-3.3-1.2-5-1.9c-1.5-0.6-2.9-1.2-4.4-1.9c-2.4-1.1-4.7-2.3-7-3.6s-4.6-2.4-6.9-3.6
	c-4.2-2.2-8.3-4.4-12.6-6.4c-1.3-0.6-2.7-1.3-4-1.9c-1.6-0.8-3.2-1.5-4.8-2.2s-3.2-1.3-4.8-2l1,0.5c-1.7-0.8-3.4-1.6-5.1-2.3
	s-3.3-1.7-4.9-2.5c-0.9-0.5-1.8-0.9-2.7-1.4s-1.7-1.2-2.5-1.7c-2-1.4-4.2-2.5-6.2-3.8c-1.6-1-3.2-2-4.6-3.1
	c-0.7-0.7-1.4-1.4-2.1-2.2c-0.5-0.8-1-1.6-1.4-2.4c-0.1-0.3-0.2-0.7-0.3-1c0-0.2,0-0.4,0-0.6c0.1-0.4,0.2-0.8,0.3-1.2
	c0.8-2.2-0.4-4.6-2.6-5.4c-2.2-0.8-4.6,0.4-5.4,2.6c0,0.1-0.1,0.2-0.1,0.2c-0.3,1.2-0.6,2.4-0.7,3.7c0,1.8,0.3,3.5,1,5.2
	c0.2,0.6,0.6,1.2,0.9,1.8c0.3,0.5,0.6,1,0.9,1.5c0.9,1.3,1.9,2.6,3.1,3.7c1.6,1.4,3.3,2.7,5.1,3.8c1.9,1.2,3.9,2.3,5.8,3.5
	c1.7,1,3.2,2.3,4.9,3.2s3.4,1.7,5,2.6c2.4,1.2,4.9,2.2,7.3,3.3l-1-0.5c1.5,0.7,3.1,1.4,4.6,2.1c1.2,0.5,2.4,1,3.7,1.5l3.3,1.5l4.3,2
	l-1-0.5c3.4,1.6,6.7,3.4,10,5.2c1.7,1,3.5,1.8,5.3,2.8l5.7,3c2.2,1.2,4.5,2.2,6.8,3.2c2,0.9,4,1.8,6,2.5s3.9,1.4,5.8,2.1
	s4.1,1.3,6.2,2c8.2,2.5,16.4,5.1,24.7,7.6c4,1.2,8.1,2.5,12.1,3.6c4.2,1.1,8.5,2,12.9,2.7c4.6,0.8,9.2,1.3,13.9,1.9
	c4,0.5,8,0.9,12,1.4s7.9,0.9,11.9,1.2c4.4,0.4,8.9,0.5,13.3,0.8c2.1,0.1,4.1,0.2,6.2,0.4s4.3,0.3,6.4,0.5c1.2,0.1,2.4,0.1,3.6,0.1
	C233,116.9,235.9,116.8,238.7,116.6L238.7,116.6z"/>
<path class="st0" d="M351.6,183.7l-0.1,0.1h-0.1l0,0l0,0l0,0l0,0l-0.2,0.1L351.6,183.7l0.5-0.4c0.2-0.1,0.4-0.4,0.6-0.5
	c0.5-0.3,1-0.6,1.5-0.9c0.3-0.2,0.5-0.4,0.8-0.6c0.2-0.5,0.3-1,0.3-1.5c0-0.2,0-0.4,0-0.5c0.1-0.4,0.2-0.9,0.3-1.4
	c0.2-1,0.3-2,0.5-3.1s0.4-1.7,0.5-2.6c0.1-0.5,0-1,0.1-1.4c0.1-0.7,0.3-1.4,0.3-2.2s0-1.2,0.1-1.8s0-1.3,0-2c0-0.9,0.1-1.7,0.2-2.6
	c0.1-0.7,0.1-1.4,0.1-2.1s0-1.4,0-2.1c-0.1-1.4-0.1-2.9,0-4.3c0.3-1.8,0.4-3.6,0.4-5.4c-0.1-1.5,0-2.9,0.1-4.4c0-1.1,0-2.3-0.1-3.4
	c-0.1-1.4-0.1-2.8,0-4.2c0.1-1.8,0.2-3.6,0.4-5.4c0.1-1.5,0-3-0.2-4.5c-0.1-1.4-0.1-2.9-0.1-4.3c0.1-3-0.1-6.1,0.2-9.1
	c0.1-1.9,0.1-3.8-0.1-5.7c0-1,0-1.9-0.1-2.8c0-1.1-0.2-2.3-0.4-3.4c-0.1-0.3-0.1-0.7-0.1-1c-0.1-2-0.3-4-0.4-5.9
	c0-2.4,0.1-4.8,0.3-7.2c0.1-2.3-1.8-4.3-4.1-4.4c-1.1,0-2.2,0.4-3,1.1c-0.8,0.8-1.3,1.9-1.4,3c-0.3,3-0.4,6-0.3,9
	c0.1,1.4,0.2,2.8,0.3,4.2s0.4,2.7,0.5,4c0,0.8,0,1.6,0,2.4s0.1,1.8,0.2,2.7c0.1,1.7-0.1,3.5-0.1,5.2c-0.1,2.8-0.1,5.7-0.1,8.6
	c0,1.4,0.1,2.8,0.2,4.2c0.1,1.5,0.1,2.9,0,4.4c-0.2,1.7-0.3,3.5-0.4,5.2s0,3.3,0.2,5c0-0.4-0.1-0.7-0.1-1.1c0.2,2.4,0,4.9,0,7.4
	c0.1,1.6,0,3.3-0.3,4.9l0,0c-0.1,0.6-0.2,1.2-0.2,1.9s0,1.4,0,2.1c0,1.4,0.1,2.7,0,4.1c-0.1,1.6-0.3,3.1-0.2,4.7
	c0,0.6,0,1.1-0.1,1.7s0,1.1-0.1,1.6c-0.1,0.7-0.3,1.3-0.3,2c0,0.4,0,0.8,0,1.1c-0.1,0.7-0.3,1.3-0.4,2s-0.1,1-0.2,1.5
	s-0.2,0.8-0.3,1.2c0,0.2-0.1,0.4-0.2,0.6c-0.1,0.5-0.2,1-0.3,1.4c0,0.3,0,0.6,0,0.9c0,1.1,0.4,2.2,1.1,3c0.8,0.8,1.9,1.3,3,1.4h0.1
	c0.2-0.1,0.4-0.2,0.5-0.4L351.6,183.7z M357.8,140.5c0-0.1,0-0.1,0-0.2S357.8,140.5,357.8,140.5z"/>
<path class="st0" d="M207.7,206.5c2-0.1,4-0.1,6-0.2c3.6-0.1,7.3-0.4,10.9-0.7c1.6-0.1,3.2-0.2,4.8-0.4h0.2h0.1l1.1-0.1
	c1.7-0.1,3.4-0.3,5.1-0.3s3.6-0.2,5.4-0.4c3.9-0.3,7.7-0.5,11.6-0.8c4.2-0.4,8.5-0.9,12.7-1.5c1.8-0.2,3.5-0.4,5.2-0.7
	c2-0.3,3.9-0.7,5.9-1c3.5-0.5,7-1,10.5-1.4c0.9-0.1,1.8-0.2,2.6-0.3l3-0.3h0.1l0,0c0.2-0.1,0.3-0.1,0.5-0.1l0.4-0.1l0.3-0.1l0.2-0.1
	h-0.1c0.9-0.3,1.8-0.5,2.7-0.5h-0.3h0.7h0.6c0.2,0,0.5,0,0.7-0.1l1.4-0.2l0.7-0.1l0.5-0.1h0.1c1-0.2,1.9-0.4,2.9-0.6l1.1-0.2
	l0.9-0.2c0.4-0.1,0.8-0.2,1.2-0.3c0.2,0,0.4-0.1,0.5-0.1c1.4-0.3,2.7-0.6,4.1-0.8c1.8-0.3,3.5-0.5,5.3-0.8s3.3-0.6,4.9-1
	c2-0.5,4-1.1,6-1.6s3.9-1,5.9-1.4c1.6-0.4,3.1-0.6,4.7-0.9l1.7-0.5c0.5-0.2,0.9-0.4,1.4-0.6c0.7-0.3,1.5-0.6,2.3-0.9
	s1.4-0.7,2.2-0.9s1.2-0.6,1.8-0.9c0.3-0.2,0.7-0.3,1-0.5c0.3-0.1,0.6-0.2,0.9-0.4c0.4-0.3,0.8-0.5,1.2-0.8l0,0h-0.1l0,0l0,0l0,0l0,0
	l-0.2,0.1l0.3-0.2l0.5-0.3c0.7-1.2,0.7-2.7,0.1-4c-1.1-2.1-3.7-2.8-5.8-1.8c-1.3,0.7-2.5,1.6-3.9,2.1c-1.4,0.4-2.9,0.6-4.3,0.9
	c-1.8,0.4-3.6,0.7-5.4,1c-2,0.4-3.9,0.9-5.9,1.4s-4,1.1-6,1.6c-1.7,0.4-3.4,0.7-5.1,1s-3.4,0.5-5.1,0.8c-3.3,0.6-6.6,1.4-10,2
	c-1.4,0.2-2.8,0.5-4.1,0.8c-1.7,0.4-3.3,0.6-5,0.8c-3.2,0.3-6.5,0.7-9.7,1.1c-2.8,0.4-5.7,0.7-8.5,1.2c-3.2,0.6-6.3,1-9.5,1.4
	s-6.1,0.8-9.2,1.1c-4.8,0.5-9.7,0.6-14.5,1.1c-1.7,0.1-3.5,0.2-5.2,0.3c-2.2,0.1-4.4,0.3-6.6,0.6l1.1-0.1l-1.2,0.1l0,0
	c-1.8,0.2-3.6,0.2-5.3,0.4s-3.7,0.3-5.6,0.4c-3.9,0.2-7.8,0.3-11.6,0.4s-7.5,0-11.3-0.1h-2.6c-1,0-2.1,0-3.1,0c-2,0-4-0.2-6.1-0.2
	c-3.9-0.1-7.7-0.3-11.6-0.7c-4.1-0.5-8.2-0.9-12.4-1.3c-3.9-0.3-7.9-0.8-11.8-1.2c-2.1-0.2-4.2-0.5-6.4-0.8c-2-0.3-4-0.5-5.9-0.7
	c-0.9-0.1-1.8-0.2-2.7-0.4l1.1,0.2c-1.4-0.2-2.7-0.4-4.1-0.6c-2.4-0.4-4.9-0.9-7.4-1.3c-2-0.3-4-0.8-6-1.2s-4-0.9-6-1.4
	c-4-1.1-8.1-1.8-12.2-2.8s-7.8-2.1-11.6-3.3l-12.1-3.7l-5.9-1.8c-1.7-0.5-3.3-1.2-5-1.9s-3.3-1.1-4.8-1.7s-3.3-1.4-5-2.1
	c-1.9-0.8-3.9-1.5-5.9-2.2s-3.8-1.5-5.7-2.2s-3.7-1.2-5.4-2c-1.5-0.7-3.1-1.3-4.7-1.8c-0.7-0.2-1.4-0.4-2.1-0.7s-1.5-0.7-2.2-1.1
	c-1.1-0.6-2.2-1.1-3.4-1.6c-0.9-0.4-1.8-0.6-2.6-0.9c-0.7-0.3-1.4-0.7-2-1l1,0.5c-0.6-0.3-1.2-0.7-1.9-1.1c-0.3-0.2-0.7-0.3-1-0.5
	l-0.7-0.5c-0.5-0.4-1-0.8-1.6-1.1c-0.5-0.3-0.9-0.6-1.3-0.9c-0.5-0.5-1-0.9-1.6-1.4c-0.2-0.1-0.4-0.3-0.5-0.4s-0.4-0.4-0.6-0.6
	l-0.3-0.5l-0.1-0.2l0,0v-0.1c-0.3-0.4-0.6-0.8-0.8-1.2c-0.5-0.9-0.8-2-0.9-3c-0.2-1.2-0.3-2.5-0.3-3.8c0-0.6,0-1.1,0.1-1.7
	c-0.4-0.4-0.9-0.6-1.5-0.8c-1.1-0.3-2.2-0.2-3.2,0.3s-1.8,1.4-2.1,2.5c-0.2,0.7-0.3,1.4-0.3,2.1c0,0.3,0,0.6,0.1,0.9
	C1,146.1,1,146.4,1,146.6c0,0.4,0.1,0.7,0.1,1.1c-0.1,0.7,0,1.3,0.1,1.9c0.1,0.4,0.2,0.9,0.3,1.3c0,0.2,0,0.4,0.1,0.7
	c0,0.1,0.1,0.2,0.1,0.3c0,0.3,0.1,0.7,0.2,1c0.2,0.7,0.5,1.4,1,2c0.2,0.3,0.4,0.6,0.6,0.9c0.4,0.6,0.8,1.2,1.3,1.7s1,0.9,1.6,1.4
	c0.1,0.1,0.3,0.2,0.4,0.3c0.4,0.3,0.7,0.6,1.1,0.9l-0.4-0.4c0.7,0.7,1.5,1.3,2.3,1.8c0.6,0.3,1.2,0.8,1.8,1.2
	c0.2,0.1,0.4,0.3,0.7,0.5c0.4,0.2,0.7,0.4,1.1,0.6c0.3,0.2,0.6,0.4,0.9,0.6c0.5,0.3,0.9,0.5,1.4,0.7c1.1,0.5,2.1,1,3.3,1.4
	c0.7,0.2,1.3,0.5,2,0.8l1.1,0.6c0.6,0.3,1.2,0.6,1.9,0.9c0.4,0.2,0.8,0.4,1.2,0.6c1,0.4,2,0.8,3,1.1c1.6,0.5,3.2,1.1,4.7,1.8
	c1.8,0.8,3.6,1.4,5.4,2s3.8,1.5,5.8,2.2s3.9,1.4,5.8,2.2l5,2.1c1.6,0.6,3.2,1.1,4.8,1.7s3.4,1.4,5.1,1.9c7.8,2.5,15.7,4.9,23.6,7.2
	c1.9,0.6,3.8,1.1,5.8,1.6s4.1,0.9,6.2,1.4s4,0.9,5.9,1.4l2.1,0.5c0.3,0,0.7,0.1,1,0.2c0.5,0.1,1,0.2,1.4,0.4c0.5,0.1,1,0.2,1.5,0.3
	c1.7,0.3,3.3,0.7,5,1.1s3.3,0.6,5,0.8c2.8,0.5,5.6,1,8.4,1.4l-1.1-0.2c2.2,0.4,4.4,0.7,6.6,0.9s4.3,0.6,6.4,0.9c4,0.5,8,0.9,12,1.3
	s8,0.7,12,1.2c2,0.2,4,0.5,6.1,0.7s3.8,0.3,5.7,0.3c4,0.2,8,0.4,12,0.4c1.9,0,3.8-0.1,5.7,0s3.6,0.1,5.4,0.1h0.9
	C204.2,206.7,206,206.6,207.7,206.5L207.7,206.5z M241.2,204.4L241.2,204.4z M227.1,197h0.4H227.1z M1.2,147.9L1.2,147.9L1.2,147.9z
	 M1.2,147.9L1.2,147.9l0.1-0.6L1.2,147.9z M1.2,147.8L1.2,147.8L1.2,147.8z"/>
<path class="st0" d="M237.2,114c0.8-0.3,1.6-0.5,2.4-0.7c0.9-0.2,1.8-0.5,2.6-0.8c0.4-0.1,0.7-0.2,1.1-0.3c0.6-0.2,1.2-0.4,1.8-0.6
	c0.4-0.1,0.7-0.3,1.1-0.4c0.4-0.2,0.9-0.3,1.4-0.4c0.7-0.1,1.4-0.3,2-0.4c1-0.2,1.9-0.5,2.9-0.9c0.8-0.3,1.7-0.7,2.5-1.1
	c1.7-0.8,3.4-1.6,5.1-2.4c1.1-0.5,2.2-1,3.2-1.5s2.1-0.9,3.2-1.3l2.4-0.9h-0.1l0.2-0.1l0.2-0.1c1.4-0.5,2.7-1,4.1-1.4
	c1-0.3,1.9-0.5,2.9-0.8s2.1-0.8,3.1-1.1c2-0.8,4.1-1.4,6.1-2.2c1.6-0.6,3.2-1.3,4.9-2c5.5-2.1,11.1-3.7,16.7-5
	c2.7-0.6,5.4-1.3,8.1-2c1.6-0.4,3.1-0.8,4.7-1.2s3.1-0.6,4.7-0.8s3-0.2,4.5-0.2c1.8,0,3.5-0.2,5.3-0.3s3.6,0.2,5.4,0.2
	c1.4,0.1,2.7,0.1,4.1,0.3c0.7,0.2,1.4,0.3,2.1,0.5c0.9,0.2,1.8,0.4,2.6,0.8c0.8,0.4,1.6,0.8,2.4,1.2c1,0.6,2.1,0.8,3.3,0.6
	c2.3-0.5,3.7-2.8,3.2-5.1l0,0c-0.2-1.1-0.9-2-1.9-2.6c-2-1.2-4.1-2.1-6.2-2.7c-1.9-0.5-3.9-0.9-5.9-1.1c-3.9-0.4-7.8-0.5-11.8-0.3
	c-2,0.2-3.9,0.1-5.9,0.2c-2.5,0.1-5.1,0.5-7.6,1c-2.1,0.4-4.1,1-6.2,1.5c-1.8,0.4-3.5,0.9-5.3,1.3c-2,0.5-4,0.9-5.9,1.5
	c-2.1,0.6-4.3,1.2-6.4,1.9s-4.1,1.4-6.1,2.2S284,88.1,282,89s-4.1,1.4-6.1,2.2c-1.6,0.6-3.3,1.1-5,1.6s-3.3,1.1-5,1.8
	c-3.6,1.3-7.1,2.7-10.5,4.3c-2,1-4.1,2-6.2,2.9c-0.8,0.2-1.6,0.4-2.4,0.6c-0.5,0.2-1,0.5-1.5,0.8c-0.7,0.4-1.6,0.7-2.3,1.1
	c-1.7,0.9-3.4,1.6-5.2,2.2l0,0l-1.3,0.4L236,107l-1.1,0.4l0.3-0.1c-0.6,0.2-1.1,0.4-1.7,0.6l-1.1,0.3c-0.4,0.8-0.4,1.8-0.2,2.7
	c0.3,1.1,0.9,2,1.9,2.6c0.7,0.4,1.5,0.7,2.3,0.7C236.6,114.2,236.9,114.1,237.2,114L237.2,114z M278.9,99l0.3-0.1L278.9,99z"/>
<path class="st0" d="M269.1,102.3L269.1,102.3h-0.2H269.1L269.1,102.3z"/>
<path class="st0" d="M231.6,114.6c0.3-0.2,0.6-0.3,0.9-0.4c0.8-0.3,1.7-0.5,2.5-0.8c1.1-0.3,2.1-0.6,3.2-0.8s2.1-0.3,3.2-0.6
	c1.4-0.4,2.8-0.8,4.2-1.3c1.1-0.3,2-0.9,2.6-1.8c1.3-2,0.7-4.6-1.3-5.9l0,0c-0.3-0.2-0.6-0.3-0.9-0.4c-0.3,0.2-0.6,0.3-0.9,0.5
	c-0.7,0.4-1.6,0.7-2.3,1.1c-1.7,0.9-3.5,1.6-5.3,2.3h0.1l0,0c-0.4,0.1-0.8,0.3-1.2,0.4L236,107c-0.4,0.1-0.7,0.3-1.1,0.4l0.3-0.1
	c-0.6,0.2-1.1,0.4-1.7,0.6l-1.3,0.4c-0.4,0.1-0.8,0.2-1.2,0.2c-0.3,0-0.7,0-1,0h-0.4c-0.6,0-1.2,0-1.8,0s-0.9,0-1.3,0h-0.1
	c-0.9,1.3-1,3-0.2,4.4c0.7,1.4,2.2,2.2,3.8,2.2c0.7,0,1.4-0.2,2-0.5H231.6z"/>
<path class="st0" d="M10.7,117.3c0.1-1,0.2-2.1,0.4-3.1s0.2-1.9,0.3-2.8s0.3-1.7,0.5-2.5c0.1-0.4,0.2-0.9,0.2-1.3
	c-1.7,0.7-3.4,1.4-5.1,2.1c-1,0.5-1.8,1.4-2.1,2.5c-0.7,2.2,0.5,4.6,2.8,5.3l0,0c0.4,0.1,0.8,0.2,1.2,0.2
	C9.5,117.7,10.1,117.6,10.7,117.3z"/>
<path class="st0" d="M374.6,89.2c-1.6,0.9-3.2,1.8-4.9,2.5c-1.6,0.7-3.3,1.3-4.9,2.1s-3,1.4-4.5,2.1c-1.2,0.5-2.5,0.9-3.8,1.4
	l-1,0.4c-0.6,0.4-1.2,0.9-1.6,1.5c-0.6,1-0.7,2.1-0.4,3.2c0.3,1.1,1,2,2,2.6c0.7,0.4,1.4,0.6,2.2,0.6c0.3,0,0.7-0.1,1-0.2
	c1-0.4,2.1-0.7,3.2-1.2c1.4-0.6,2.8-1.1,4.1-1.8c1.9-0.9,3.7-1.8,5.6-2.6c1-0.4,1.9-0.8,2.9-1.2L374.6,89.2z"/>
<path class="st0" d="M374.6,13.1l-0.4,0.1c-1.6,0.5-3.1,1.1-4.7,1.7s-2.8,1.2-4.2,1.8l-1.9,0.8c-0.7,0.3-1.5,0.6-2.2,1
	c-1.2,0.6-2.5,1.1-3.7,1.5c-1.5,0.5-3,1-4.4,1.5c-0.7,0.2-1.5,0.5-2.2,0.7s-1.6,0.5-2.5,0.7c-1.3,0.4-2.6,0.9-4,1.2
	s-2.8,0.8-4.1,1.2s-3,1-4.5,1.5c-0.7,0.2-1.4,0.5-2.2,0.7s-1.6,0.5-2.4,0.7c-1.6,0.4-3.2,0.8-4.8,1.2s-3.1,0.9-4.6,1.3
	c-0.6,0.2-1.3,0.4-2,0.6s-1.3,0.5-2,0.7c-0.9,0.3-1.7,0.5-2.6,0.7h0.1l-2.7,0.6c-1.4,0.3-2.8,0.6-4.1,0.9s-2.8,0.8-4.3,1.1
	c-2.7,0.7-5.4,1.5-8.1,2c-1.1,0.2-2.3,0.4-3.4,0.6c-1.4,0.3-2.8,0.5-4.1,0.8c-1.7,0.3-3.3,0.6-5,1h-0.2h-0.1h0.1l-2.8,0.6l0.4-0.1
	l-1,0.2c-1.6,0.3-3.2,0.6-4.9,0.8s-3.3,0.4-5,0.6s-3.4,0.4-5.1,0.7c-0.8,0.2-1.6,0.3-2.4,0.4s-1.7,0.2-2.6,0.3
	c-1.6,0.2-3.3,0.5-5,0.6c-0.8,0.1-1.6,0.2-2.4,0.3s-1.6,0.2-2.4,0.3l-5.1,0.5c-1.7,0.2-3.5,0.4-5.2,0.5c-1.4,0.1-2.7,0.1-4.1,0.2
	s-2.9,0.2-4.4,0.3c-2.7,0.1-5.4,0.4-8.2,0.4c-1.3,0-2.5,0-3.8,0c-0.4,0-0.7,0-1,0h-1c-0.8,0-1.6,0-2.4,0c-2.9,0-5.8,0-8.7-0.1
	l-1.8-0.1l-2.2-0.1h0.1c-1.9-0.1-3.7-0.1-5.6-0.1c-1,0-2,0-3.1,0s-1.9,0-2.9,0c-1.9,0-3.7-0.1-5.5-0.1s-3.9,0-5.8-0.1
	c-5.7-0.4-11.4-0.9-17-1.2c-0.9,0-1.8,0-2.7-0.1c-0.7,0-1.4,0-2.1-0.1c-1.2-0.1-2.4-0.2-3.7-0.4s-2.4-0.2-3.6-0.3h-0.9l-2.3-0.1h0.4
	l-1.7-0.1h0.2c-1.7-0.1-3.4-0.2-5.1-0.3c-2-0.1-4-0.3-6-0.4c-1.1-0.1-2.2-0.2-3.3-0.3s-2.2-0.2-3.3-0.2h0.4
	c-1.1-0.1-2.3-0.1-3.4-0.2s-2.2,0-3.3-0.1c-2-0.1-3.9-0.3-5.8-0.4h0.1c-3.6-0.2-7.2-0.6-10.8-0.8h0.4h-1c-0.9,0-1.8-0.2-2.7-0.2
	s-1.9-0.2-2.8-0.2c-2-0.2-4-0.3-6.1-0.3H93h-0.3H92c-0.9-0.1-1.9-0.1-2.8-0.2c-3.4-0.2-6.7-0.7-10.1-0.9l-2-0.1h0.4
	c-1.4-0.1-2.7-0.1-4.1-0.1h0.4c-2.5-0.2-5-0.3-7.6-0.3c-1.3,0-2.5,0-3.8,0s-2.5,0-3.8-0.1H59l-1.5-0.1h-1c-1.1-0.1-2.2-0.1-3.3-0.1
	s-2-0.1-2.9-0.1h-2.9c-2.1,0-4.2,0.2-6.3,0.3c-1,0-2,0.2-3,0.3s-2,0.2-3,0.5c-0.7,0.2-1.4,0.5-2.2,0.7s-1.3,0.3-1.9,0.5l0,0
	c-0.2,0-0.4,0.1-0.5,0.2c-0.2,0.1-0.4,0.1-0.5,0.1c-0.4,0.1-0.7,0.4-0.9,0.8c-0.2,0.4-0.2,0.9,0,1.3c0.3,0.8,1.1,1.2,1.9,0.9l0,0
	c0.1,0,0.3-0.1,0.4-0.1l0.4-0.1c0.7-0.2,1.5-0.3,2.2-0.6c0.4-0.1,0.8-0.3,1.2-0.4s0.9-0.2,1.3-0.4s1.2-0.2,1.7-0.2s1.3-0.2,2-0.2
	s1.4-0.1,2.1-0.1s1.3-0.1,2-0.1s1.4-0.1,2-0.1s1.4,0,2.1,0c1.3,0,2.5,0,3.8,0s2.4,0.1,3.6,0.2h1l0,0l1.5,0.1h-0.4
	c2,0.1,3.9,0.2,5.9,0.1c2-0.1,3.8,0,5.8,0l3.4,0.2c1.2,0.1,2.4,0.1,3.7,0.1h1l1.3,0.1c1,0,1.9,0.2,2.9,0.2s1.8,0.2,2.8,0.3
	s1.8,0.2,2.8,0.3S89.2,43,90,43s1.5,0.1,2.2,0.1h0.1h0.5h-0.1c1.1,0.1,2.2,0.1,3.3,0.1c1.5,0.1,3,0.2,4.4,0.4s3,0.3,4.4,0.3l1.6,0.1
	c1.6,0.1,3.2,0.2,4.8,0.4l2.6,0.2c0.9,0.1,1.8,0.1,2.7,0.2c1.7,0.1,3.4,0.3,5.2,0.4c0.9,0,1.8,0.1,2.7,0.1s1.7,0,2.5,0.1l1.8,0.1
	c2.1,0.1,4.1,0.4,6.2,0.5s4.4,0.3,6.6,0.4c1.7,0.1,3.3,0.2,5,0.3h-0.3c1,0.1,1.9,0.1,2.9,0.1h-0.4l1.3,0.1h-0.4l1,0.1
	c1.9,0.1,3.8,0.3,5.6,0.5c0.9,0.1,1.9,0.1,2.8,0.2s2.1,0,3.2,0.1l1.6,0.1c1.5,0.1,3,0.2,4.5,0.3c1.8,0.1,3.6,0.3,5.4,0.4l4.8,0.3
	c1.7,0.1,3.5,0.2,5.2,0.2c3,0.1,6,0.1,9.1,0.2c0.8,0,1.6,0,2.3,0s1.6,0,2.4,0c1.5,0,2.9,0,4.4,0.1l1.3,0.1h-0.4
	c0.8,0,1.7,0.1,2.5,0.1h0.2c1.6,0.1,3.2,0.1,4.8,0.1c1.8,0,3.5,0,5.3,0h0.3h2.3c0.4,0,0.8,0,1.2,0h1.3c1.6,0,3.2,0,4.8-0.1
	c0.8,0,1.5-0.1,2.3-0.2c0.9-0.1,1.9-0.1,2.8-0.1c1.7-0.1,3.3-0.2,5-0.3s3.4-0.2,5.1-0.3s3.5-0.3,5.2-0.5c2.9-0.3,5.8-0.5,8.6-1
	c0.8-0.1,1.5-0.2,2.3-0.3s1.4-0.2,2.1-0.3c1.5-0.2,3-0.4,4.5-0.6s3-0.5,4.5-0.7l4.4-0.5c3-0.3,6-0.8,8.9-1.4h0.1l2.3-0.5l1.6-0.3
	c0.9-0.2,1.8-0.3,2.7-0.5s2.1-0.4,3.1-0.7c0.9-0.2,1.8-0.3,2.7-0.5c0.8-0.2,1.7-0.3,2.5-0.5c1.9-0.4,3.8-0.9,5.6-1.4
	s3.5-0.9,5.2-1.3s3.5-1,5.3-1.3c1-0.2,1.9-0.4,2.9-0.6c0.7-0.1,1.4-0.3,2.1-0.5s1.5-0.4,2.2-0.7l1.8-0.6c0.7-0.2,1.4-0.4,2.2-0.6
	c1.5-0.5,3.1-0.9,4.6-1.3s3.2-0.8,4.8-1.2s3-0.9,4.5-1.4l2.2-0.7c0.8-0.3,1.5-0.5,2.3-0.8c1.3-0.4,2.7-0.8,4-1.1s2.7-0.9,4.1-1.3
	c0.8-0.2,1.5-0.4,2.3-0.7s1.6-0.5,2.4-0.8c1.4-0.5,2.9-0.9,4.3-1.5l1.7-0.7c0.7-0.3,1.4-0.6,2.1-0.9s1.3-0.6,2-0.9s1.4-0.5,2.1-0.8
	c2.6-1.1,5.1-2.2,7.8-3.1v-3.1H374.6z"/>
<path class="st0" d="M201.8,49.5h-0.4H201.8z"/>
<path class="st0" d="M162.2,48L162.2,48z"/>
<path class="st0" d="M204.6,46.7L204.6,46.7z"/>
<path class="st0" d="M162.9,45.1L162.9,45.1z"/>
<path class="st0" d="M150.6,44.3L150.6,44.3z"/>
<path class="st0" d="M140.8,43.7L140.8,43.7z"/>
<path class="st0" d="M79.5,42.4L79.5,42.4z"/>
<path class="st0" d="M56,41.8h-0.3H56z"/>
<path class="st0" d="M104.9,41.4L104.9,41.4z"/>
<path class="st0" d="M57.7,38.9L57.7,38.9z"/>
<path class="st0" d="M56.6,38.8L56.6,38.8z"/>
<path class="st0" d="M314.8,36l0.3-0.1L314.8,36z"/>
<path class="st0" d="M312.5,33.4h0.2H312.5z"/>
<path class="st0" d="M312.7,33.4h0.1H312.7z"/>
<path class="st0" d="M283.5,40L283.5,40L283.5,40L283.5,40z"/>
<path class="st0" d="M57,41.8L57,41.8z"/>
<path class="st0" d="M92.3,43.5L92.3,43.5z"/>
<path class="st0" d="M92.9,43.5L92.9,43.5z"/>
<path class="st0" d="M281.1,43.5L281.1,43.5z"/>
<path class="st0" d="M146,44.1L146,44.1z"/>
<path class="st0" d="M149.6,44.2L149.6,44.2z"/>
<path class="st0" d="M146.1,47L146.1,47z"/>
<path class="st0" d="M205.3,49.7L205.3,49.7z"/>
<path class="st0" d="M374.6,23.1l-1.8,0.8c-0.7,0.3-1.4,0.6-2.1,0.8s-1.5,0.5-2.2,0.7s-1.3,0.4-2,0.7c-0.8,0.3-1.7,0.5-2.5,0.7
	s-1.5,0.5-2.3,0.7l-2.4,0.7c-1.5,0.5-2.9,0.9-4.4,1.4s-2.8,0.9-4.2,1.4c-1.6,0.5-3.2,1-4.8,1.4c-1.4,0.4-2.9,0.8-4.3,1.3
	s-3.1,1-4.6,1.5s-3.1,1.1-4.6,1.6s-2.9,0.8-4.4,1.1c-0.8,0.2-1.6,0.3-2.4,0.6l-2.2,0.7c-1.5,0.5-3,0.8-4.6,1.2
	c-3.1,0.9-6.2,1.8-9.4,2.5c-1,0.2-2,0.4-3.1,0.6l-1.5,0.3h-0.1l-0.5,0.1l-0.7,0.2l-1.6,0.3l-1.6,0.3c-0.8,0.2-1.5,0.3-2.3,0.5
	l0.3-0.1c-2.5,0.5-5,1.2-7.5,1.7l-4,0.9c-0.9,0.2-1.7,0.4-2.6,0.6l-1.3,0.3l0,0l-0.4,0.1h0.2c-1.2,0.2-2.4,0.4-3.5,0.6
	s-2.6,0.6-3.9,0.8h0.2L272,51c-3,0.6-6,1-9.1,1.5c-1.7,0.3-3.4,0.5-5.1,0.8c-1.4,0.2-2.8,0.5-4.3,0.6c-3.2,0.3-6.3,0.7-9.5,1
	c-1.6,0.2-3.3,0.3-4.9,0.4s-3.1,0.2-4.7,0.3s-3.2,0.2-4.9,0.2s-3.1,0-4.6,0.1s-2.9,0.2-4.4,0.2c-1.6,0-3.2,0.1-4.8,0.2l-5.3,0.1
	c-1.7,0-3.3,0.2-5,0.2c-3.3,0.1-6.6,0-9.9,0c-1.3,0-2.7-0.1-4-0.1l-4.4-0.1c-2.6,0-5.2,0-7.8-0.2c-0.8-0.1-1.5-0.1-2.3-0.1
	c-1.1-0.1-2.2-0.1-3.3-0.2c-1.4,0-2.8,0-4.1-0.1c-2-0.1-4-0.3-6.1-0.5s-3.9-0.3-5.8-0.4c-0.9-0.1-1.7-0.1-2.6-0.2s-2-0.3-2.9-0.4
	s-2.1-0.2-3.2-0.3s-2,0-3-0.1l-1.3-0.1l-3.1-0.2h0.4l-1.2-0.1h0.3c-1.9-0.1-3.7-0.2-5.6-0.4L133,53c-1-0.1-2.1-0.2-3.1-0.2h0.4
	c-1.8-0.1-3.6-0.3-5.3-0.4c-1.9-0.1-3.8-0.3-5.8-0.5c-1.7-0.2-3.4-0.4-5.1-0.6s-3.7-0.3-5.6-0.4h0.4c-0.8,0-1.5-0.1-2.2-0.2
	s-1.5-0.1-2.3-0.2c-1.7-0.2-3.3-0.4-5-0.6c-3.1-0.3-6.3-0.6-9.4-0.8c-1.5-0.1-3-0.2-4.4-0.4l-2.2-0.3c-0.8-0.1-1.6-0.2-2.5-0.3
	c-1.5-0.2-3-0.3-4.6-0.5c-1.3-0.2-2.7-0.3-4-0.4c-0.5,0-1-0.1-1.4-0.1s-1.1-0.1-1.7-0.2c-1.2-0.1-2.3-0.3-3.5-0.5s-2.2-0.2-3.4-0.3
	c-1-0.1-1.9-0.2-2.9-0.2h-0.3c-1.7-0.1-3.5,0-5.2,0c-0.9,0-1.9,0-2.8,0s-1.8,0-2.6,0.1c-1.5,0-3,0.2-4.5,0.3c-0.6,0-1.2,0.1-1.8,0.2
	c-0.5,0.1-1,0.1-1.4,0.3c-0.2,0-0.4,0-0.5,0.1c-0.2,0-0.4,0.1-0.7,0.2h-0.1c-0.8,0.1-1.4,0.8-1.4,1.6l0,0c0.1,0.7,0.6,1.2,1.2,1.4
	c0.5,0,0.9,0,1.4-0.2h0.4c0.3,0,0.5-0.1,0.8-0.2c0.9-0.2,1.8-0.2,2.8-0.3c1.4-0.1,2.9-0.3,4.3-0.3l5-0.1c1.7,0,3.3-0.1,5,0h-0.4
	l1.2,0.1h-0.2l3.8,0.3c1.5,0.1,3,0.3,4.4,0.5c2.7,0.4,5.4,0.4,8.1,0.8c1.5,0.2,3.1,0.3,4.6,0.5c0.8,0.1,1.5,0.1,2.3,0.2l2.4,0.3
	c1.5,0.2,2.9,0.3,4.4,0.4s3.1,0.2,4.7,0.4c1.2,0.1,2.4,0.2,3.6,0.4s2.6,0.3,3.8,0.4c2.5,0.3,4.9,0.6,7.4,0.7h-0.4
	c1.7,0.1,3.5,0.2,5.2,0.4s3.4,0.4,5.1,0.6c1.9,0.2,3.8,0.3,5.7,0.5s3.6,0.3,5.4,0.4H130c1.8,0.1,3.6,0.3,5.4,0.5
	c1.9,0.2,3.9,0.3,5.8,0.4H141h0.6l2.7,0.2l0,0l2.9,0.1c2.3,0.1,4.6,0.4,6.9,0.7c1.1,0.2,2.1,0.2,3.2,0.3s2.2,0.2,3.3,0.2
	c2.4,0.2,4.8,0.4,7.2,0.6s4.8,0.1,7.2,0.2l2.6,0.2h-0.4c1.6,0.1,3.2,0.2,4.8,0.2s3,0,4.5,0.1s3.3,0.1,4.9,0.1s3.2,0.1,4.8,0.1
	s3.4,0,5,0h2c1,0,2,0,3-0.1c1.6-0.1,3.2-0.2,4.8-0.2c1.8,0,3.7-0.1,5.5-0.1c1.6-0.1,3.1-0.1,4.7-0.2s2.9-0.2,4.4-0.2s3.2,0,4.7-0.1
	s3.3-0.2,4.9-0.3l2.1-0.1c0.8,0,1.6-0.1,2.4-0.2s1.5-0.2,2.3-0.2l2.6-0.2c3.1-0.3,6.3-0.6,9.4-1c1.5-0.2,3-0.4,4.5-0.7
	c1.8-0.3,3.6-0.6,5.5-0.9c1.6-0.3,3.2-0.5,4.9-0.7s3.3-0.6,4.9-0.9l4.9-1c0.9-0.2,1.7-0.3,2.6-0.4s1.5-0.3,2.3-0.5s1.7-0.3,2.5-0.5
	c1.3-0.3,2.6-0.6,3.9-0.9c2.9-0.7,5.7-1.4,8.6-2h-0.3l1.8-0.4c0.6-0.1,1.2-0.3,1.9-0.4l2.1-0.4l1-0.2c0.1,0,0.2,0,0.3-0.1l3.1-0.7
	c0.8-0.2,1.5-0.3,2.3-0.5s1.6-0.4,2.5-0.6c1.6-0.4,3.2-0.9,4.8-1.3s3.1-0.8,4.6-1.2c1.4-0.4,2.8-0.8,4.2-1.2
	c0.8-0.2,1.6-0.4,2.4-0.6l2.2-0.6c1.5-0.4,3-0.9,4.5-1.4c1.5-0.6,3-1.1,4.6-1.5c1.5-0.5,3.1-1,4.6-1.4s3-0.8,4.5-1.2s2.9-1,4.4-1.4
	s2.9-1,4.3-1.4l4.5-1.4c0.8-0.2,1.5-0.5,2.3-0.7s1.6-0.5,2.5-0.8c1.4-0.5,2.8-0.9,4.2-1.4c0.7-0.3,1.4-0.6,2.1-0.9l0.5-0.2
	L374.6,23.1z"/>
<path class="st0" d="M175.5,59L175.5,59z"/>
<path class="st0" d="M179.4,56.3h-0.3H179.4z"/>
<path class="st0" d="M283.8,51.7l0.3-0.1L283.8,51.7z"/>
<path class="st0" d="M271.6,51.1l0.3-0.1L271.6,51.1z"/>
<path class="st0" d="M271.9,51L271.9,51L271.9,51z"/>
<path class="st0" d="M284.2,48.6h0.3H284.2z"/>
<path class="st0" d="M300.5,44.8L300.5,44.8L300.5,44.8z"/>
<path class="st0" d="M282.8,48.9L282.8,48.9h-0.2H282.8L282.8,48.9z"/>
<path class="st0" d="M141,56.6L141,56.6z"/>
<path class="st0" d="M374.6,32.4c-0.8,0.3-1.5,0.5-2.3,0.9c-1.2,0.5-2.3,1-3.5,1.5l-1.8,0.7c-0.7,0.3-1.4,0.5-2.1,0.7
	s-1.4,0.4-2,0.6c-0.8,0.2-1.6,0.5-2.5,0.7s-1.5,0.4-2.2,0.6s-1.5,0.4-2.3,0.7c-1.5,0.5-3,0.8-4.5,1.2s-2.8,0.9-4.1,1.4
	c-0.6,0.2-1.2,0.4-1.8,0.6c-0.8,0.2-1.6,0.4-2.3,0.6c-1.5,0.4-2.9,0.8-4.4,1.2s-2.8,0.9-4.2,1.3c-0.6,0.2-1.3,0.4-2,0.6l-2.1,0.8
	c-1.4,0.5-2.7,1-4.1,1.4s-2.9,0.8-4.4,1.1l-0.5,0.1c-1.2,0.2-2.4,0.5-3.6,0.7c-1.4,0.3-2.7,0.6-4.1,1s-2.6,0.8-4,1.1
	c-1.1,0.3-2.1,0.5-3.2,0.8h0.1h-0.2h-0.2h0.1l-2,0.4l0,0l-2.2,0.5l-0.7,0.2c-1.3,0.3-2.6,0.6-4,0.9l-1,0.2h-0.1l0,0h-0.1
	c-1.2,0.2-2.4,0.5-3.6,0.8h0.1c-1.4,0.3-2.8,0.6-4.2,1l-3.2,0.7l0,0c-1.1,0.2-2.3,0.5-3.4,0.7c-0.3,0-0.7,0.1-1,0.2
	c-0.2,0-0.4,0.1-0.6,0.1l-3,0.6l0,0l-1.1,0.2h0.1c-1.1,0.2-2.2,0.5-3.4,0.8s-2.5,0.5-3.8,0.7c-0.7,0.1-1.3,0.2-2,0.3
	s-1.5,0.3-2.2,0.4l-2.2,0.3c-0.8,0.1-1.6,0.2-2.4,0.4c-1.4,0.2-2.7,0.5-4,0.8c-0.6,0.1-1.2,0.2-1.8,0.3s-1.4,0.2-2.1,0.3
	c-1.4,0.2-2.8,0.4-4.1,0.5l-2,0.2c-0.8,0.1-1.7,0.1-2.5,0.2l-5.1,0.5l-4.4,0.5c-1.5,0.1-3,0.2-4.4,0.2c-1.7,0.1-3.3,0.1-5,0.2
	l-2.4,0.1c-0.8,0-1.6,0.1-2.4,0.2c-1.3,0.1-2.5,0.2-3.8,0.3s-2.8,0-4.2,0.1s-3.1,0-4.6,0c-1.3,0-2.7,0-4,0.1c-0.8,0-1.6,0.1-2.3,0.1
	s-1.3,0-2,0c-1.2,0-2.5,0-3.8-0.1c-1.4,0-2.9,0-4.4-0.1c-1.1,0-2.2,0-3.4-0.1s-2.5-0.2-3.8-0.2l-3.5-0.1l-3.2-0.1
	c-1.1,0-2.3-0.1-3.4-0.1c-1.6-0.1-3.2-0.2-4.9-0.3s-3.1-0.1-4.7-0.2c-2.1-0.1-4.1-0.3-6.2-0.5s-4-0.3-6-0.4h0.4
	c-0.7,0-1.4-0.1-2-0.1h0.4c-2.7-0.2-5.5-0.3-8.2-0.4c-0.9-0.1-1.9-0.2-2.8-0.3c-1.2-0.1-2.3-0.2-3.5-0.2l0,0c-1-0.1-2-0.1-2.9-0.1
	c-2.1-0.1-4.2-0.3-6.2-0.5s-4.4-0.5-6.6-0.6h0.1h-1.1c-3-0.2-6.1-0.5-9.1-0.9c-1.7-0.2-3.3-0.5-5-0.7s-3.2-0.3-4.8-0.5L96,59.5
	c-1.3-0.2-2.6-0.3-3.8-0.5s-2.6-0.4-3.8-0.5s-2.3-0.2-3.4-0.3s-2.3-0.2-3.5-0.3h-0.2l-1.7-0.1h-1c-1.9-0.1-3.8-0.3-5.7-0.4
	c-1.2-0.1-2.4-0.1-3.6-0.1c-1,0-2,0-3,0h0.1H65c-0.6,0-1.2-0.1-1.8-0.1l-1-0.2c-0.3,0-0.5,0-0.8-0.1c-0.8-0.2-1.6,0.4-1.8,1.2
	s0.4,1.6,1.2,1.8C61.4,60,62,60,62.6,60l1.2,0.1c0.7,0,1.5,0.1,2.2,0.1c2.2,0.1,4.3,0,6.5,0.1l0,0h0.7c2,0.1,4,0.3,6,0.4l1.7,0.1H81
	h0.6l0,0l3.7,0.4c1.2,0.1,2.4,0.2,3.6,0.3s2.5,0.3,3.8,0.6s2.7,0.3,4,0.5l2.2,0.3c0.9,0.1,1.7,0.3,2.6,0.4c1.6,0.2,3.2,0.3,4.8,0.5
	s3.3,0.5,4.9,0.7s3,0.4,4.6,0.5s2.8,0.2,4.2,0.3h0.8l0,0c2.4,0.2,4.7,0.4,7.1,0.6c1.3,0.1,2.6,0.2,3.9,0.3s2.7,0.1,4,0.2h-0.3h0.3
	l0,0h0.9c1,0.1,2,0.2,3,0.2s1.9,0.2,2.8,0.2c2.1,0.1,4.2,0.2,6.3,0.3h-0.4c0.9,0,1.8,0.1,2.8,0.2h-0.4l2.1,0.1
	c1.2,0.1,2.4,0.2,3.6,0.3c1.4,0.1,2.8,0.2,4.1,0.4c2.9,0.3,5.8,0.3,8.6,0.4c1.4,0.1,2.8,0.2,4.2,0.3s2.8,0.1,4.1,0.1
	c2.5,0.1,4.9,0.1,7.4,0.2c1.6,0.1,3.1,0.2,4.7,0.3s2.9,0,4.4,0s2.7,0.1,4,0.1h2.1c0.7,0,1.4,0,2,0c1.6-0.1,3.1-0.2,4.7-0.2h2.1
	c0.8,0,1.6,0,2.3,0l4.7-0.1c1.4,0,2.8-0.1,4.1-0.3c0.7-0.1,1.4-0.2,2.1-0.2c0.9,0,1.7-0.1,2.6-0.1c1.7-0.1,3.4-0.1,5-0.2
	c1.5-0.1,3-0.1,4.6-0.2c0.7-0.1,1.3-0.1,2-0.2s1.6-0.2,2.3-0.2c1.7-0.2,3.4-0.3,5.1-0.5c0.8-0.1,1.6-0.1,2.4-0.2s1.5-0.1,2.3-0.2
	c1.4-0.1,2.8-0.3,4.1-0.5c0.7-0.1,1.3-0.2,2-0.3s1.4-0.2,2.1-0.3s1.1-0.2,1.6-0.3c1.6-0.3,3.1-0.6,4.7-0.8l2.6-0.3
	c0.8-0.1,1.6-0.3,2.4-0.4s1.5-0.2,2.3-0.3s1.5-0.3,2.3-0.4c1.5-0.3,3-0.7,4.5-1l0.5-0.1h-0.1h0.2h0.2h-0.1l1.8-0.4l2.1-0.4
	c0.1,0,0.2,0,0.3-0.1c1.2-0.2,2.4-0.5,3.6-0.8L287,60c1.1-0.2,2.1-0.4,3.2-0.7s2-0.5,2.9-0.7l0,0c1.2-0.2,2.3-0.5,3.5-0.8l0.7-0.2
	h-0.1h0.1h0.1c1.4-0.3,2.7-0.6,4.1-0.9l1-0.2c0.7-0.1,1.4-0.3,2.1-0.4l0,0l0.6-0.1c1.2-0.2,2.4-0.5,3.6-0.7s2.2-0.5,3.2-0.8
	c2.4-0.7,4.8-1.3,7.3-1.8c2.9-0.5,5.8-1.2,8.7-2c1.4-0.4,2.8-0.9,4.1-1.4l1.9-0.7c0.7-0.2,1.4-0.4,2.1-0.7c1.4-0.4,2.9-0.9,4.3-1.3
	s2.9-0.8,4.3-1.2c2.8-0.7,5.5-1.9,8.3-2.7c0.7-0.2,1.4-0.4,2.1-0.5s1.6-0.5,2.4-0.7c1.5-0.5,3-0.8,4.5-1.2s2.9-0.8,4.4-1.3
	c0.6-0.2,1.2-0.4,1.9-0.7s1.3-0.5,1.9-0.8c1.2-0.5,2.4-1.1,3.7-1.6l0.5-0.2L374.6,32.4z"/>
<path class="st0" d="M152.8,67.5L152.8,67.5z"/>
<path class="st0" d="M137,66.5L137,66.5z"/>
<path class="st0" d="M142.9,64L142.9,64z"/>
<path class="st0" d="M119.4,62.3h-0.3H119.4z"/>
<path class="st0" d="M281.5,61.2h0.2l0,0H281.5L281.5,61.2z"/>
<path class="st0" d="M281.7,61.2h0.1H281.7z"/>
<polygon class="st0" points="282,61.1 282,61.1 282,61.1 282,61.1 "/>
<path class="st0" d="M65.7,60.1L65.7,60.1z"/>
<path class="st0" d="M272.9,60h0.1H272.9z"/>
<path class="st0" d="M287.1,60h0.2H287.1z"/>
<path class="st0" d="M281.9,58.1h0.2H281.9z"/>
<path class="st0" d="M62.1,57L62.1,57z"/>
<path class="st0" d="M321.5,49.1h0.3H321.5z"/>
<path class="st0" d="M306.5,52.7h0.1H306.5L306.5,52.7z"/>
<path class="st0" d="M304.5,53.1l-0.4,0.1L304.5,53.1z"/>
<path class="st0" d="M296.4,54.9L296.4,54.9L296.4,54.9L296.4,54.9z"/>
<path class="st0" d="M66,57.1h0.3H66z"/>
<path class="st0" d="M297.4,57.7L297.4,57.7L297.4,57.7z"/>
<path class="st0" d="M81.1,57.8L81.1,57.8z"/>
<path class="st0" d="M80.9,60.8L80.9,60.8z"/>
<path class="st0" d="M277.7,62h-0.1H277.7z"/>
<path class="st0" d="M120.6,62.3h0.3H120.6z"/>
<path class="st0" d="M136.2,63.5L136.2,63.5z"/>
<path class="st0" d="M135.7,66.4L135.7,66.4z"/>
<path class="st0" d="M374.6,40.7c-0.6,0.3-1.3,0.5-2,0.8s-1.1,0.5-1.7,0.6s-1.4,0.4-2.1,0.6c-1.3,0.4-2.6,0.8-3.9,1.3
	c-1.2,0.5-2.5,1-3.8,1.4c-0.7,0.2-1.5,0.4-2.2,0.7s-1.3,0.4-2,0.6c-1.3,0.4-2.6,0.9-3.9,1.4c-2.6,0.9-5.2,1.6-7.8,2.5
	c-1.2,0.4-2.5,0.9-3.8,1.3s-2.8,0.8-4.1,1.2c-0.7,0.2-1.4,0.4-2.1,0.6l-1.8,0.5c-1.5,0.5-3,1-4.5,1.4s-2.9,0.8-4.3,1.3
	s-2.7,1-4.1,1.4c-4.1,1.3-8.3,2.1-12.4,3.1l-1.6,0.4c-0.5,0.1-1.1,0.3-1.6,0.4c-1.1,0.3-2.1,0.6-3.2,0.9c-1.9,0.5-3.9,0.9-5.8,1.3
	l0.4-0.1c-1.6,0.3-3.2,0.7-4.7,1.1l-2.3,0.7c-0.8,0.2-1.5,0.4-2.3,0.6s-1.8,0.4-2.6,0.6l-1.6,0.3c-1.2,0.2-2.5,0.4-3.7,0.6
	s-2.5,0.4-3.8,0.6s-2.5,0.4-3.8,0.6s-2.8,0.5-4.2,0.8s-2.6,0.5-3.9,0.7c-0.8,0.1-1.5,0.2-2.2,0.3s-1.7,0.2-2.5,0.3
	c-1.5,0.2-3.1,0.3-4.6,0.5s-3,0.4-4.6,0.6s-2.8,0.4-4.3,0.6s-3.1,0.3-4.6,0.4c-1.3,0.1-2.7,0.2-4,0.4s-2.9,0.3-4.3,0.3l-2.2,0.1
	c-0.6,0-1.2,0-1.8,0h-0.6c-1.5,0-2.9,0.1-4.4,0.1c-1.3,0-2.6,0.1-3.9,0.2c-0.7,0-1.5,0.1-2.2,0.1s-1.3,0.1-1.9,0.2
	c-1.2,0.1-2.3,0.1-3.5,0.2s-2.4,0.1-3.7,0.2c-0.6,0-1.2,0-1.9,0h-2c-0.6,0-1.1,0-1.7,0c-0.8,0-1.6,0-2.3,0c-1.2,0-2.4,0-3.6,0
	s-2.6,0-3.9,0s-2.8-0.1-4.1-0.1s-2.6,0-3.9-0.1s-2.7-0.2-4.1-0.3s-2.9,0-4.3-0.1c-2.7-0.1-5.3,0-8-0.1l-1.9-0.1c-3-0.2-6-0.2-9-0.3
	c-3.7-0.2-7.5-0.3-11.2-0.3c-1.8,0-3.6-0.1-5.3-0.2s-3.6-0.1-5.3-0.2l0,0c-1.6-0.1-3.2-0.1-4.9-0.2c-1.1-0.1-2.1-0.2-3.2-0.2
	c-1.5-0.1-3.1-0.2-4.6-0.3c-1.3-0.1-2.7-0.3-4-0.4c-1.1-0.1-2.3-0.2-3.4-0.3c-1.4-0.1-2.8-0.2-4.2-0.3h0.2c-2.5-0.2-5.1-0.5-7.6-0.7
	h0.1c-0.6,0-1.1-0.1-1.7-0.1h0.4l-2.3-0.1l0,0c-1.5-0.1-3-0.2-4.6-0.3h0.1c-1.1-0.1-2.3,0-3.4-0.1c-0.9-0.1-1.8-0.1-2.7-0.2
	c-0.4,0-0.8,0-1.1,0H88l0,0c-0.8-0.1-1.6,0.4-1.7,1.2c-0.2,0.8,0.4,1.6,1.2,1.7l0,0c0.3,0.1,0.7,0.1,1,0.1H89h1.2
	c0.8,0.1,1.7,0.1,2.5,0.2s1.7,0,2.6,0H95l1.3,0.1c1.6,0.1,3.1,0.2,4.7,0.3l2.4,0.1H103h0.8h-0.2c2.6,0.2,5.2,0.5,7.8,0.7h-0.3
	c2.5,0.2,5,0.3,7.4,0.6c1.3,0.1,2.6,0.3,4,0.4c0.8,0.1,1.6,0.1,2.3,0.2s1.5,0.1,2.3,0.2c1.5,0.1,2.9,0.2,4.4,0.2
	c1.1,0,2.1,0,3.2,0.1c1.8,0.1,3.5,0.1,5.3,0.2s3.4,0.1,5.1,0.2c1.9,0,3.8,0,5.7,0.1c1.6,0,3.3,0.1,4.9,0.2h0.1
	c2.9,0.2,5.9,0.2,8.9,0.3l2.2,0.1c2.4,0.1,4.7,0.2,7.1,0.2c1.1,0,2.2,0,3.4,0c1.3,0,2.6,0,3.8,0.1s2.4,0.2,3.7,0.3s2.6,0,4,0.1
	c0.6,0,1.2,0,1.8,0s1.4,0,2.1,0c1.3,0,2.5,0,3.8,0s2.3,0,3.4,0c0.7,0,1.4,0,2.1,0s1.3,0,1.9,0c1.1,0,2.2,0.1,3.4,0.1h0.5
	c1.3,0,2.5-0.1,3.8-0.1s2.3-0.1,3.4-0.2l1.8-0.2c0.8,0,1.5-0.1,2.2-0.1c2.8-0.1,5.5-0.3,8.3-0.3c0.8,0,1.5,0,2.2,0s1.6-0.1,2.4-0.2
	c1.5-0.1,3-0.2,4.5-0.3l3.9-0.3c1.5-0.2,3-0.3,4.5-0.4c1.9-0.2,3.8-0.5,5.7-0.7s4.1-0.6,6.2-0.8c1-0.1,2.1-0.2,3.1-0.3
	s2.1-0.1,3.1-0.2s2-0.3,3-0.5c0.9-0.2,1.7-0.3,2.5-0.5h-0.2l0.2-0.1h0.1h-0.1c2.6-0.5,5.3-0.9,7.9-1.4c1.2-0.2,2.4-0.4,3.5-0.6
	l1.8-0.3c0.8-0.1,1.6-0.3,2.3-0.5l2.2-0.5c1-0.2,1.9-0.4,2.9-0.6c0.8-0.2,1.5-0.4,2.2-0.6c1.5-0.4,3-0.8,4.5-1.1
	c2.7-0.6,5.4-1.2,8.1-1.9c0.7-0.2,1.5-0.4,2.2-0.6s1.5-0.4,2.3-0.6c1.5-0.3,3-0.7,4.5-1.1s3-0.7,4.5-1.1c1.2-0.3,2.5-0.7,3.7-1.1
	c1.4-0.4,2.8-0.9,4.1-1.4s2.9-0.9,4.3-1.3s3-0.9,4.5-1.4l1.7-0.5c0.7-0.2,1.5-0.4,2.2-0.6c1.4-0.4,2.8-0.7,4.1-1.2s2.5-0.8,3.8-1.3
	c2.6-0.9,5.2-1.6,7.8-2.6c1.3-0.5,2.6-1,3.9-1.4l1.8-0.6c0.8-0.2,1.6-0.5,2.4-0.7c1.2-0.4,2.3-0.8,3.5-1.2s2.3-0.9,3.5-1.3
	c0.6-0.2,1.2-0.3,1.9-0.5c0.6-0.2,1.2-0.4,1.8-0.6c0.6-0.2,1.2-0.5,1.8-0.7L374.6,40.7z"/>
<path class="st0" d="M167.1,77.7L167.1,77.7z"/>
<path class="st0" d="M164.6,77.6L164.6,77.6z"/>
<path class="st0" d="M184.4,75.2L184.4,75.2z"/>
<path class="st0" d="M168.3,74.8L168.3,74.8z"/>
<path class="st0" d="M168,74.8L168,74.8z"/>
<polygon class="st0" points="166.1,74.7 166.1,74.7 166.1,74.7 "/>
<path class="st0" d="M157.4,74.3L157.4,74.3z"/>
<path class="st0" d="M127.2,73.3L127.2,73.3z"/>
<path class="st0" d="M283.9,70.4h0.2H283.9z"/>
<path class="st0" d="M284.2,67.3h0.2H284.2z"/>
<path class="st0" d="M95.4,70.9h0.3H95.4z"/>
<path class="st0" d="M268.6,73L268.6,73z"/>
<path class="st0" d="M135.3,73.7L135.3,73.7z"/>
<path class="st0" d="M155.8,77.2L155.8,77.2z"/>
<path class="st0" d="M374.6,51.3l-0.9,0.3c-1.1,0.4-2.3,0.9-3.5,1.3c-2.1,0.8-4.2,1.7-6.4,2.5L362,56c-0.6,0.2-1.3,0.4-1.9,0.6
	c-1.1,0.4-2.2,0.8-3.4,1.2s-2.5,0.6-3.7,1s-2.5,0.8-3.8,1h-0.1l0,0h-0.2h0.1h0.1l-0.2,0.1c-2.5,0.5-4.9,1.2-7.4,2
	c-1.2,0.4-2.4,0.7-3.6,1.1s-2.5,0.8-3.7,1.1c-1.3,0.3-2.5,0.6-3.7,0.9s-2.5,0.6-3.7,1s-2.6,0.7-3.9,1s-2.3,0.7-3.5,1
	c-1.4,0.4-2.9,0.8-4.4,1.1l0,0l-0.3,0.1l0,0l0.2-0.1l-0.6,0.1l0,0l-0.5,0.1c-1.5,0.4-3,0.8-4.6,1.1l0,0c-2.8,0.6-5.5,1.5-8.2,2.1
	c-0.9,0.2-1.9,0.3-2.8,0.5s-2.1,0.4-3.2,0.6l-2.3,0.5c-0.9,0.2-1.7,0.4-2.6,0.6h0.2l-1.8,0.4c-1,0.2-2.1,0.3-3.1,0.5
	c-1.2,0.2-2.5,0.4-3.7,0.6c-2.4,0.4-4.8,0.9-7.1,1.2s-4.9,0.6-7.4,0.8s-4.9,0.5-7.4,0.8c-1.2,0.2-2.4,0.3-3.5,0.4s-2.3,0.2-3.5,0.3
	c-2.6,0.3-5.2,0.7-7.8,0.9c-1.2,0.1-2.4,0.2-3.6,0.3c-1.1,0.1-2.2,0.3-3.3,0.4s-2.5,0.2-3.7,0.3s-2.2,0.2-3.3,0.3
	c-1.2,0.1-2.5,0.2-3.7,0.3s-2.3,0.3-3.4,0.4c-1.3,0.1-2.7,0.2-4,0.2c-1.2,0-2.4,0-3.5,0.1l-3.9,0.2c-1.4,0.1-2.8,0.2-4.3,0.3
	s-2.6,0.1-3.9,0.1s-2.4,0-3.6,0c-1,0-2,0-2.9,0h-3c-1.8,0-3.6,0.1-5.4,0.1c-2.7-0.1-5.5-0.2-8.2-0.3c-1.4-0.1-2.8-0.1-4.2-0.1h-1
	c-1,0-2,0-3.1,0l-3-0.2c-1.1-0.1-2.2-0.1-3.2-0.1h-3.2c-1,0-2.1-0.1-3.1-0.1s-2,0-3-0.1c-1.5-0.1-2.9-0.1-4.4-0.2
	c-1.1-0.1-2.3-0.2-3.5-0.3s-2.3-0.2-3.5-0.3c-1.6-0.1-3.1-0.1-4.7-0.2h-0.6l0,0h-0.6l0,0l-1.5-0.1c-1-0.1-1.9-0.1-2.9-0.1
	s-1.9-0.1-2.8-0.1h-1c-0.8-0.1-1.6-0.2-2.4-0.2c-1-0.1-2-0.1-3-0.1L124,81c-0.8,0-1.7,0-2.5,0c-1.3-0.1-2.5-0.2-3.8-0.2
	c-1.4,0-2.8,0.1-4.3,0.1c-0.8,0.1-1.4,0.8-1.4,1.6c0,0.4,0.2,0.7,0.5,1s0.7,0.4,1.1,0.4c0.9,0,1.9,0,2.8,0s1.9-0.1,2.9,0l1.6,0.1
	c0.9,0.1,1.9,0.1,2.8,0.1c1.7,0,3.4,0.1,5,0.1c1.1,0.1,2.3,0.2,3.4,0.3c0.9,0.1,1.7,0.1,2.6,0.1c1.2,0.1,2.3,0.1,3.5,0.1l0,0h0.8
	l1.2,0.1h0.7h0.3c1.4,0.1,2.8,0.1,4.2,0.2h1.1c1.6,0.1,3.2,0.3,4.8,0.5s3.4,0.2,5,0.2h-0.4c2.1,0.1,4.3,0.2,6.4,0.2s4.1,0,6.2,0.1
	l1.9,0.1h0.1c1.4,0.1,2.9,0.2,4.3,0.2s2.9,0,4.3,0s3.1,0.1,4.6,0.2c1.4,0,2.8,0,4.1,0.1c1,0,2,0.1,2.9,0.1h0.6l3.6-0.1
	c1.4,0,2.8-0.1,4.2,0c1.2,0,2.5,0.1,3.7,0.1c2.7,0,5.3-0.1,8-0.3c1.3-0.1,2.6-0.2,3.8-0.2s2.4-0.1,3.6-0.2c0.6,0,1.3,0,1.9,0
	s1.5,0,2.2,0c1.2-0.1,2.3-0.2,3.5-0.4c1.2-0.2,2.3-0.3,3.5-0.4l3.6-0.3c1.2-0.1,2.3-0.2,3.5-0.3l1.8-0.1c0.5,0,1.1-0.1,1.6-0.2
	c2.5-0.3,5-0.4,7.5-0.8c1.2-0.2,2.4-0.3,3.6-0.5s2.6-0.3,3.9-0.4c2.4-0.2,4.8-0.6,7.2-0.9c1.3-0.2,2.6-0.3,3.9-0.4
	c1.1-0.1,2.2-0.1,3.3-0.2s2.5-0.3,3.8-0.4s2.5-0.3,3.7-0.5c2.3-0.3,4.5-0.8,6.8-1.2c1.1-0.2,2.2-0.3,3.3-0.5s2.4-0.4,3.6-0.7
	l-0.4,0.1c1.5-0.3,3-0.7,4.5-1l0,0l1.8-0.4l-0.4,0.1c1.2-0.2,2.3-0.4,3.5-0.6s2.5-0.5,3.7-0.8c2.1-0.6,4.2-1.2,6.4-1.7l-0.4,0.1
	c0.9-0.2,1.8-0.4,2.6-0.6s1.9-0.5,2.8-0.7h0.1c0.1,0,0.2,0,0.4-0.1l0,0h0.1l0,0c1.1-0.2,2.2-0.5,3.2-0.7s2.4-0.7,3.5-1
	s2.5-0.7,3.8-1s2.5-0.7,3.8-1s2.5-0.6,3.8-0.9s2.4-0.6,3.6-1s2.4-0.8,3.7-1.2s2.4-0.7,3.7-1.1c1.4-0.4,2.8-0.8,4.3-1.2l0,0l0.9-0.2
	l0,0h0.2l0,0c1.3-0.3,2.6-0.6,3.9-1s2.5-0.6,3.7-1s2.2-0.8,3.3-1.1c0.6-0.2,1.2-0.4,1.9-0.6s1.2-0.4,1.9-0.6
	c1.1-0.4,2.2-0.8,3.3-1.2s2.1-0.9,3.1-1.2s2.3-0.8,3.4-1.3l0.4-0.1L374.6,51.3z"/>
<path class="st0" d="M188.1,86.5L188.1,86.5z"/>
<path class="st0" d="M187.9,86.5L187.9,86.5z"/>
<path class="st0" d="M140.5,84.6L140.5,84.6z"/>
<path class="st0" d="M140.2,84.6L140.2,84.6z"/>
<path class="st0" d="M139.4,84.6L139.4,84.6z"/>
<path class="st0" d="M132.6,84.3h-0.3H132.6z"/>
<path class="st0" d="M189.5,83.6L189.5,83.6z"/>
<path class="st0" d="M132,81.3L132,81.3z"/>
<path class="st0" d="M349.2,59.8h0.1l0,0H349.2L349.2,59.8z"/>
<path class="st0" d="M350.2,62.7l-0.3,0.1L350.2,62.7z"/>
<path class="st0" d="M349.8,62.7L349.8,62.7L349.8,62.7L349.8,62.7z"/>
<path class="st0" d="M349.9,62.7L349.9,62.7h-0.2H349.9L349.9,62.7z"/>
<path class="st0" d="M349.7,62.8h-0.1l0,0H349.7L349.7,62.8z"/>
<path class="st0" d="M314.9,69.1L314.9,69.1z"/>
<path class="st0" d="M140.9,81.7L140.9,81.7z"/>
<path class="st0" d="M170.6,86L170.6,86z"/>
<path class="st0" d="M374.6,59l-0.8,0.3l-2.2,1c-0.7,0.3-1.5,0.6-2.2,0.9c-1.4,0.5-2.8,0.9-4.1,1.5c-0.6,0.3-1.3,0.5-1.9,0.8
	s-1.3,0.4-1.9,0.6s-1.3,0.4-1.9,0.6s-1.3,0.4-1.9,0.6l-3.9,1.3l-1.9,0.6l-1.9,0.7c-2,0.7-4,1.4-6,2c-1,0.3-1.9,0.6-2.8,0.9
	c-0.9,0.4-1.8,0.7-2.7,0.9h-0.1c-0.8,0-1.5,0.8-1.4,1.6s0.8,1.5,1.6,1.4h0.1c0.4,0,0.9-0.1,1.3-0.3c0.4-0.1,0.7-0.2,1.1-0.4
	c0.6-0.2,1.3-0.5,1.9-0.7c1.4-0.5,2.8-0.9,4.2-1.4c2.7-0.9,5.4-1.8,8.1-2.7c1.3-0.4,2.6-0.9,4-1.3l1.9-0.6c0.6-0.2,1.3-0.4,1.9-0.6
	s1.3-0.4,2-0.7s1.2-0.5,1.9-0.8s1.3-0.5,2-0.7s1.5-0.5,2.2-0.8s1.3-0.5,1.9-0.8l1.9-0.8l0,0L374.6,59z"/>
<path class="st0" d="M338.4,71.5L338.4,71.5L338.4,71.5z"/>
<path class="st0" d="M186.2,93c3-0.2,5.9-0.4,8.8-0.2h-0.4c3.2,0.2,6.5,0.3,9.7,0.4c1.6,0,3.2-0.1,4.8-0.2s2.9-0.2,4.4-0.2
	s2.9,0,4.3,0c1.7,0,3.4,0,5.1,0c1.5,0,3-0.1,4.5-0.1s3.1-0.1,4.6-0.1s3.1,0,4.6-0.1c0.8,0,1.6-0.1,2.3-0.1s1.6-0.2,2.3-0.3
	c1.5-0.2,3-0.4,4.5-0.6s3.1-0.3,4.7-0.4c2.2-0.2,4.4-0.5,6.6-0.6c1.1,0,2.3-0.1,3.4-0.4l3.3-0.7c0.4-0.1,0.7-0.4,0.9-0.8
	c0.2-0.4,0.2-0.8,0.1-1.2c-0.1-0.4-0.4-0.7-0.8-0.8c-0.4-0.2-0.8-0.2-1.1-0.1l-3,0.7c-1.4,0.2-2.8,0.3-4.3,0.3
	c-1.5,0.1-3.1,0.2-4.6,0.4s-3.1,0.3-4.7,0.5c-0.8,0.1-1.6,0.2-2.4,0.2l-2.2,0.3c-1.5,0.2-3.1,0.4-4.6,0.5s-3,0-4.6,0.1
	s-3.1,0.1-4.7,0.1s-3,0-4.4,0.1s-3.1,0.1-4.7,0s-3.2,0-4.8,0c-3.1,0-6.1,0.4-9.2,0.4c-1.2,0-2.5,0-3.7-0.1s-2.4-0.1-3.6-0.1h0.4
	c-1.6-0.1-3.3-0.2-5-0.2s-3.1,0.1-4.7,0.2l-4.6,0.3c-1.5,0.1-3,0.1-4.5,0h-0.5c-2.3-0.1-4.5-0.2-6.8-0.2h-3c-1.1,0-2.2,0-3.2-0.1
	s-2.4-0.2-3.6-0.3c-0.8,0-1.7-0.1-2.5-0.1h-2h-1c-0.9-0.1-1.7-0.2-2.6-0.2c-0.4,0-0.8-0.1-1.2-0.1c-0.6-0.1-1.1-0.1-1.7-0.1l0,0
	c-0.8,0-1.6,0-2.5,0c-0.4,0-0.7,0.2-1,0.5c-0.5,0.6-0.5,1.6,0.1,2.1l0,0c0.3,0.3,0.7,0.4,1.1,0.4c0.7,0,1.4,0,2.1,0h0.7
	c1.8,0.1,3.7,0.3,5.5,0.4h-0.3c1.3,0.1,2.5,0.1,3.8,0.1s2.5,0.2,3.8,0.3c1.6,0.1,3.2,0.2,4.8,0.2c1.3,0,2.7,0,4,0s2.9,0.1,4.4,0.1
	s2.9,0.1,4.4,0.1h0.2c1.4,0,2.7-0.1,4.1-0.2L186.2,93z M160.5,92.5L160.5,92.5z M150.8,91.9L150.8,91.9z M165.8,89.9L165.8,89.9z
	 M165.5,89.9L165.5,89.9z M157.4,89.4L157.4,89.4z M156.4,89.4L156.4,89.4z M156.7,92.4L156.7,92.4z"/>
<path class="st0" d="M217.8,100.4c1.6-0.1,3.2-0.3,4.7-0.5s3.1-0.3,4.7-0.4s3.2-0.2,4.8-0.3c0.8,0,1.5-0.1,2.3-0.2s1.4-0.1,2.1-0.1
	c0.9,0,1.9-0.2,2.8-0.2c0.8-0.1,1.4-0.8,1.4-1.6c-0.1-0.8-0.8-1.4-1.6-1.4c-1.5,0.2-3,0.3-4.6,0.3s-3.1,0.2-4.7,0.3l-2.3,0.1
	l-2.3,0.2c-1.6,0.1-3.2,0.3-4.8,0.5c-1.5,0.2-3.1,0.3-4.7,0.3c-1.5,0-3-0.1-4.5-0.1s-3-0.1-4.5,0c-0.7,0-1.4,0-2.2,0s-1.4,0-2.1,0
	h-0.8l-0.9-0.1H200h-0.2h-0.5H199l-2.4-0.3c-2.5-0.2-5-0.3-7.5-0.2c-2.2,0.1-4.5,0.1-6.8,0l-1.1-0.1h0.4l-1.9-0.1h-1.4l-2.6-0.1
	c-0.5,0-1-0.1-1.5-0.1c-0.8,0.1-1.4,0.8-1.4,1.6c0.1,0.8,0.8,1.4,1.6,1.4h0.5c1,0.1,2,0.1,3,0.1s1.7,0,2.6,0.1l1.2,0.1
	c1.1,0.1,2.2,0.1,3.3,0.1s2.2,0,3.3,0s2.1-0.1,3.2-0.1s2,0.1,3,0.1l0,0c1.3,0.1,2.6,0.1,3.9,0.2l0,0c0.3,0,0.7,0.1,1,0.1h0.2
	c0.1,0,0.2,0,0.3,0c0.8,0,1.6,0.1,2.4,0.1s1.4,0,2.1,0c1.5,0,3,0,4.4,0s3.1,0,4.6,0.1c0.9,0,1.7,0.1,2.6,0.1
	C216.6,100.5,217.3,100.5,217.8,100.4L217.8,100.4z M181.5,99.8L181.5,99.8z M180.6,99.8L180.6,99.8z"/>
<path class="st0" d="M374.6,67.5l-0.8,0.3c-1.4,0.5-2.7,1.1-4.1,1.7c-2,0.9-4.1,1.7-6.2,2.2c-1.3,0.2-2.5,0.5-3.8,0.8l-0.3,0.1
	c-0.6,0.1-1.1,0.2-1.7,0.4s-1,0.2-1.5,0.4c-0.8,0.3-1.2,1.1-0.9,1.9c0.2,0.6,0.8,1,1.4,1c0.2,0,0.3,0,0.5-0.1
	c0.3-0.1,0.6-0.2,0.9-0.2l0.9-0.2l1.1-0.2l0,0h0.2l0,0l1.4-0.3c1.5-0.3,3-0.6,4.4-1s2.8-1,4.2-1.6c1.3-0.6,2.7-1.2,4.1-1.7l0.3-0.1
	L374.6,67.5z"/>
<path class="st0" d="M360.4,75.4h-0.1l0,0H360.4z"/>
<path class="st0" d="M374.6,76.5l-0.2,0.1c-1.4,0.6-2.8,1.1-4.1,1.7c-1.1,0.5-2.1,1-3.2,1.5l-2.6,1.3l-0.2,0.1
	c-0.4,0.1-0.7,0.4-0.9,0.8c-0.2,0.4-0.2,0.8-0.1,1.2c0.1,0.4,0.4,0.7,0.8,0.9c0.2,0.1,0.5,0.2,0.7,0.2s0.3,0,0.5-0.1
	c1.2-0.6,2.4-1.2,3.6-1.8c1.9-0.9,3.8-1.7,5.7-2.5L374.6,76.5z"/>
<path class="st0" d="M364.2,81.3l0.2-0.1L364.2,81.3z"/>
<path class="st0" d="M347.8,112c-1.6,0.7-3.3,1.3-4.9,2.1c-1.3,0.7-2.6,1.3-4,1.8l-0.4,0.1c-1,0.1-1.6,1-1.5,2s1,1.6,2,1.5l0,0
	c1.8-0.4,3.5-1.1,5.1-2c1.6-0.8,3.4-1.5,5.1-2.2c0.9-0.4,1.3-1.4,1-2.3c-0.3-0.7-0.9-1.1-1.7-1.1C348.2,111.8,348,111.9,347.8,112
	L347.8,112z"/>
<path class="st0" d="M349.6,121.9c-1.7,0.8-3.4,1.6-5,2.5c-1.5,0.8-3.1,1.6-4.7,2.2c-1.7,0.7-3.4,1.3-5.1,1.9
	c-1.7,0.6-3.2,1.2-4.8,1.8c-1,0.4-2,0.7-3,1c-0.2,0.1-0.5,0.1-0.8,0.2c-0.5,0.1-0.9,0.1-1.4,0.2c-0.5,0.1-0.9,0.3-1.2,0.7
	c-0.3,0.4-0.4,0.8-0.4,1.3c0.1,0.5,0.3,0.9,0.7,1.2c0.4,0.3,0.8,0.4,1.3,0.4c0.5-0.1,1-0.2,1.5-0.3s1.1-0.3,1.7-0.4
	c0.8-0.2,1.6-0.5,2.4-0.8c1.6-0.6,3.2-1.2,4.8-1.8s3.4-1.2,5.1-1.9s3.2-1.4,4.8-2.2c1.8-0.9,3.6-1.9,5.5-2.7c0.9-0.4,1.3-1.4,1-2.3
	c-0.3-0.7-0.9-1.1-1.6-1.1C350.1,121.8,349.9,121.9,349.6,121.9L349.6,121.9z"/>
<path class="st0" d="M349.1,136.6c-1.4,0.6-2.7,1.2-4.1,1.7s-2.6,0.8-3.9,1.3c-0.9,0.3-1.4,1.3-1.1,2.2s1.3,1.4,2.2,1.1
	c0,0,0.1,0,0.1-0.1c0.6-0.2,1.3-0.4,2-0.7s1.2-0.4,1.9-0.6c1.4-0.5,2.8-1.1,4.2-1.7c0.9-0.4,1.3-1.4,1-2.3c-0.3-0.7-0.9-1.1-1.6-1.1
	C349.5,136.5,349.3,136.5,349.1,136.6L349.1,136.6z"/>
<path class="st0" d="M17.7,61.6c-0.6,0.8-0.4,1.8,0.3,2.4c1.7,1.4,3.3,2.8,5,4.1c1.8,1.4,3.8,2.6,5.9,3.7c0.9,0.4,1.9-0.1,2.3-0.9
	c0.4-0.9-0.1-1.9-1-2.3c-0.5-0.2-1.1-0.5-1.6-0.8c-1.5-0.9-2.9-1.8-4.2-2.9c-1.5-1.2-2.9-2.4-4.4-3.6c-0.3-0.2-0.6-0.4-1-0.4
	C18.6,60.9,18,61.1,17.7,61.6L17.7,61.6z"/>
<path class="st0" d="M15.2,69.4c-0.8,0.6-0.9,1.7-0.3,2.5c0.6,0.7,1.1,1.4,1.7,2.1s1.2,1.3,1.8,1.9c0.5,0.5,1.1,0.9,1.7,1.4
	c0.8,0.5,1.5,1,2.3,1.5c1.4,0.8,2.8,1.4,4.2,2.1c0.7,0.3,1.3,0.7,2,1s1.5,0.7,2.2,1c0.9,0.4,1.9-0.1,2.3-0.9c0.2-0.4,0.2-0.9,0-1.3
	s-0.5-0.8-1-1c-0.7-0.4-1.5-0.7-2.2-1s-1.4-0.7-2-1c-1.4-0.7-2.7-1.3-4.1-2.1c-1.4-0.8-2.7-1.7-3.9-2.8c-0.8-0.9-1.6-1.9-2.4-2.9
	c-0.3-0.4-0.9-0.7-1.4-0.7C15.8,69.1,15.5,69.2,15.2,69.4L15.2,69.4z"/>
<path class="st0" d="M13.6,85.4c-0.6,0.8-0.4,1.9,0.3,2.4c1.5,1.1,3,2.1,4.6,3c1.6,0.9,3.3,1.8,5,2.6c0.8,0.4,1.6,0.7,2.4,1
	s1.5,0.7,2.3,1l5,2c1.4,0.5,2.8,1.1,4.1,1.8l0.7,0.4c0.4,0.3,0.8,0.4,1.3,0.3s0.9-0.3,1.2-0.7c0.6-0.8,0.4-1.8-0.3-2.4
	c-1.6-1-3.3-1.8-5-2.5c-1.6-0.6-3.2-1.3-4.8-1.9s-3.2-1.3-4.8-2s-3.2-1.5-4.7-2.3h-0.1c-0.7-0.4-1.4-0.8-2-1.2
	c-0.9-0.6-1.7-1.2-2.5-1.8c-0.3-0.2-0.7-0.4-1.1-0.4C14.5,84.7,13.9,85,13.6,85.4L13.6,85.4z"/>
<path class="st0" d="M9.5,114.2c-0.9,0.3-1.4,1.4-1,2.3l0,0c0.2,0.5,0.5,0.8,1,1c1.8,0.9,3.5,1.9,5.3,2.8s3.4,1.6,5.1,2.3
	c0.9,0.3,1.9-0.1,2.3-1s-0.1-1.9-1-2.3c-1.7-0.7-3.4-1.5-5.1-2.3c-1.8-0.9-3.6-1.8-5.4-2.8c-0.2-0.1-0.4-0.1-0.6-0.1
	C10,114.1,9.7,114.1,9.5,114.2L9.5,114.2z"/>
<path class="st0" d="M9.7,124.3c-0.6,0.8-0.4,1.9,0.3,2.4c1.4,1.2,2.9,2.2,4.5,3c1.2,0.5,2.4,1,3.6,1.4c2.5,0.7,4.9,1.6,7.2,2.6
	c0.9,0.4,1.9,0,2.3-0.9l0,0c0.2-0.4,0.2-0.9,0-1.3c-0.2-0.4-0.5-0.8-1-1c-1.8-0.8-3.7-1.5-5.7-2c-0.9-0.3-1.8-0.6-2.7-0.9
	c-0.5-0.2-1-0.4-1.5-0.6s-1.2-0.5-1.8-0.8c-1-0.7-2-1.4-2.9-2.1c-0.3-0.2-0.6-0.4-1-0.4C10.6,123.6,10.1,123.9,9.7,124.3L9.7,124.3z
	"/>
<path class="st0" d="M9.8,135c-0.4,0.9,0.1,1.9,0.9,2.3c1.6,0.8,3.2,1.5,4.8,2.1c0.9,0.4,1.9-0.1,2.3-0.9c0.4-0.9-0.1-1.9-1-2.3
	c-1.6-0.6-3.2-1.4-4.8-2.1c-0.2-0.1-0.4-0.1-0.6-0.1C10.7,133.9,10.1,134.3,9.8,135z"/>
<path id="SVGID_x5F_1_x5F_" class="st1" d="M57.9,142.9c24.5,10.7,60.1,23,104.2,28c54,6.1,98.6-1.3,127.3-8.4"/>
<text><textPath  xlink:href="#SVGID_x5F_1_x5F_" startOffset="23.1445%">
<tspan  class="st0" style="font-family:'GreycliffCF-DemiBold'; font-size:52px;">About</tspan></textPath>
</text>
</svg>
