<svg xmlns="http://www.w3.org/2000/svg" viewBox="0 0 324.6 168.2" fill="#fff" xmlns:v="https://vecta.io/nano"><path d="M321.6 3.2c-1.1-.3-2.3-.1-3.3.4l-4.8 2.1-3.6 1.6-5.6 2.1-5.4 2.6-10.9 6.2-10.5 5.6-5.5 2.9-5.6 3.1c-3.7 2.1-7.3 4.4-11.1 6.4-3.7 2.1-7.6 3.9-11.5 5.9L232.1 48c-3.9 2-7.6 4.3-11.5 6.3l-11.8 5.9-11.8 5.7-11.9 5.5c-3.9 2-7.7 4-11.6 5.8s-7.7 3.7-11.5 5.6-7.8 4.1-11.6 6.3-8 4.4-12.1 6.5l-11.3 5.8-11.2 6.2-11.8 6.7c-3.8 2.1-7.7 4.1-11.4 6.3-1.8 1-3.6 2.1-5.3 3.2l-5.1 3.2c-1.7 1.1-3.3 2.4-4.8 3.7-1.3 1.2-2.7 2.2-4 3.2-1 .7-2 1.5-2.9 2.2l.9-.7-3.5 2.7c-2.4 1.8-4.8 3.5-7.1 5.4-1.1.9-2.2 1.8-3.3 2.8.5-1.1 1.1-2.3 1.7-3.4 1.1-2.4 2-4.9 3.1-7.3l.5-1.2-.1.3c1.2-2.7 2.6-5.4 4-8a79.31 79.31 0 0 0 4-8.3c.8-1.8 1.8-3.5 2.9-5.1 1.2-1.9 2.3-3.7 3.6-5.5 1.3-1.4 2.6-2.8 4-4a11.51 11.51 0 0 0 1.4-1.7c.3-.4.5-.9.7-1.4.4-1.1.2-2.4-.4-3.4-.4-.7-.9-1.2-1.6-1.7-.7-.4-1.5-.6-2.2-.7-.6 0-1.3 0-1.9.1l-5.4.3c-2.4.3-4.7.6-7.1 1.1-2 .4-4 .9-6 1.5l-6.4 2c-4.5 1.3-8.9 2.9-13.2 4.7-3.4 1.5-6.8 3.2-10.1 4.9l-6.6 3.3c-2.2 1.1-4.3 2.4-6.5 3.7l-.6.4 1.5-2 3.4-4.7.4-.5 5.8-6.9-.3.3c.6-.8 1.3-1.5 1.9-2.3a43.76 43.76 0 0 1 2-2.5l3-3.5c1.2-1.4 2.2-2.8 3.3-4.2.6-.7 1.2-1.3 1.8-1.9.8-.9 1.7-1.7 2.6-2.5 1.4-1.3 2.7-2.7 4.2-4l-.4.3 1.1-.9c1.2-.9 2.4-1.9 3.5-2.9.9-.9 1.8-1.7 2.8-2.4l-.9.7 2.7-2.1c.5-.4 1-.9 1.5-1.3h.1c1-.8 2-1.5 3-2.2l-.9.7c.8-.5 1.5-1 2.3-1.5.8-.6 1.7-1.2 2.6-1.7s1.6-1.1 2.4-1.5c1-.6 2-1.1 2.9-1.8 1.7-1.2 3.4-2.3 5.1-3.4.8-.5 1.5-1 2.2-1.5s1.8-1.1 2.6-1.7a145.92 145.92 0 0 1 5.2-3.2c.9-.5 1.8-1 2.6-1.6.9-.6 1.7-1.1 2.5-1.7l10.3-6.3c.8-.4 1.5-.9 2.2-1.3l2.6-1.5 5.4-3.1c1.8-1 3.4-2 5.1-3 1.5-.9 3.1-1.8 4.6-2.8.8-.5 1.5-.9 2.3-1.3 1-.6 1.9-1.2 2.9-1.8 1.5-1 3-1.9 4.6-2.7.9-.4 1.8-.8 2.7-1.3.9-.4 1.9-1.1 2.8-1.6 1-.5 1.8-.8 2.6-1.3.9-.5 2-.9 3-1.4s1.8-1 2.7-1.4c1-.4 1.9-1 2.9-1.5.5-.2.9-.4 1.4-.6s1-.5 1.5-.8c.8-.5 1.7-.7 2.5-1.2 1.3-.8 2.6-1.7 4-2.6.9-.6 1.8-1.2 2.6-1.8.2-.2.5-.3.7-.4-3.2-.9-6.4-2.3-9.4-4-.6.4-1.2.8-1.9 1.2-.6.4-1.3.7-2 1s-1.4.8-2.1 1.2-1.7.7-2.5 1.1-1.6.9-2.5 1.3-1.6.8-2.4 1.3c-1 .5-2 .9-3 1.4l-2.6 1.3-2.8 1.6c-1.8.9-3.6 1.7-5.3 2.7-.7.4-1.3.9-2 1.2-1 .6-2 1.1-2.9 1.8-.7.5-1.5.9-2.3 1.3-.8.5-1.5 1-2.3 1.4-1.7 1-3.3 2-5 2.9s-3.4 2-5.1 3-3.6 2-5.4 3c-1.6.9-3.1 1.9-4.7 2.8-1.8 1-3.5 2.2-5.3 3.3-.8.5-1.7 1-2.5 1.5-.9.5-1.6 1.1-2.5 1.7l-5.4 3.3-2.8 1.8c-1 .7-2.1 1.3-3.1 2-1.8 1.3-3.7 2.5-5.5 3.7-1 .7-2 1.4-3.1 2s-2 1.2-3.1 1.9c-1.1.6-2 1.3-3 2s-1.8 1.2-2.6 1.9a23.07 23.07 0 0 1-1.9 1.4c-1.5 1.1-2.9 2.3-4.3 3.4l.9-.7c-1.2.9-2.4 1.9-3.6 2.9L42 73.6c-.4.4-1 .8-1.4 1.2-.3.3-.8.6-1.2.9-.7.5-1.3 1-1.9 1.6-.5.4-.9.9-1.4 1.3s-.9.9-1.4 1.3L33 81.5c-2.2 2.2-4.3 4.6-6.1 7.1-.8 1-1.7 1.9-2.5 2.9S22.9 94 22 95.2l-3 3.7.7-.9c-2.1 2.5-4.3 5-6.3 7.6l-6.5 8.8c-1.1 1.5-2 3-2.9 4.6-.9 1.5-1.7 3.1-2.5 4.8-.5 1-1 2-1.3 3.1-.4 1.3-.2 2.6.5 3.8l.7.9a3.99 3.99 0 0 0 1.9 1.1c.8.3 1.7.3 2.6.1 1.2-.3 2.3-.8 3.4-1.4.9-.5 1.7-1 2.6-1.5 1.6-1 3.2-2.1 4.8-3.2s3.4-2.1 5.1-3.2c3.6-2.2 7.4-4 11.2-5.9 3.7-1.9 7.3-3.7 11.1-5.4l6.2-2.4c2.5-.9 5.2-1.6 7.8-2.4a97.69 97.69 0 0 1 7.2-2.1c1.3-.3 2.7-.6 4.1-.8a22.63 22.63 0 0 0-1.3 2c-.8 1.3-1.7 2.6-2.5 4-1 1.8-2 3.6-2.8 5.5a94.51 94.51 0 0 1-3.6 7.1c-1.6 2.9-3.1 5.9-4.4 8.9l-2.6 6.3c-.7 1.5-1.4 3-2.2 4.4-.9 1.8-1.7 3.7-2.4 5.6-.8 1.9-1.8 3.9-2.7 5.9l-.9 2c.1-.1.1-.3.2-.4l-.2.5c-.7 1.5-1.3 3.1-1.9 4.6-.4.9-.6 1.8-.7 2.7a4.37 4.37 0 0 0 1.2 3.3c.5.5 1.2.9 1.9 1.2.3.1.7.2 1.1.2s.9-.1 1.3-.1v.1c1.1-.3 2.1-1 2.9-1.8.5-.5.9-1 1.4-1.5 1-1.1 2.1-2.2 3.1-3.4 1.1-1.2 2.3-2.4 3.5-3.5l3.9-3.7c1.3-1.2 2.6-2.2 3.9-3.2 1.2-1.1 2.2-1.9 3.4-2.8l7.1-5.3 1.2-.9c1.7-1.2 3.3-2.5 4.9-3.7 1.2-.9 2.4-1.9 3.6-2.9 1.6-1.1 3.2-2.1 4.8-3.1s3.3-2.2 5-3.2c3.8-2.2 7.7-4.2 11.5-6.3l5.9-3.3 6-3.4 11.5-6.4 5.2-2.8c1.7-.9 3.7-1.9 5.5-2.8 3.9-2 7.8-4.1 11.7-6.3l12.5-6.8 5.4-2.7 5.8-2.8 11.6-5.8c3.9-2 7.8-3.7 11.7-5.5s8.1-3.9 12.1-5.8l11.7-5.7c3.8-2 7.7-4.2 11.5-6.3 3.9-2.1 7.8-4 11.7-6l11.7-5.9c3.9-2.1 7.4-4.3 11.1-6.4 6.5-3.8 13.3-7.1 20-10.7 3.2-1.7 6.3-3.5 9.4-5.3 3.2-1.9 6.6-3.6 10-5.1 2.2-.8 4.4-1.6 6.5-2.5 2.4-1.1 4.9-2.2 7.3-3.2 1-.5 1.7-1.4 2-2.5.3-2.8-1-5.1-3.3-5.8zM14 104.8l-.4.5.4-.5z"/><path d="M13.6 105.3h0zm-.2.3l.1-.2-.2.2zm208-63.1c.7-.1 1.4-.3 2-.6.8-.3 1.5-.6 2.3-1l4.1-2.2 4.1-2.5 4.2-2.4 8.5-4.4 4.4-2.2 4.1-2.2 4.4-2.4 4-2.1 8.8-4 2.5-1.1 2.6-1.4c.9-.5 1.7-.8 2.5-1.2l2.8-1.3c.7-.4 1-1.3.6-2s-1.3-1-2-.6l-4.5 2.1c-.7.3-1.3.7-2 1l-2.1 1-8.6 3.9-4.4 2.3c-.6.4-1.3.7-2 1s-1.4.8-2.1 1.1l-4.3 2.4-4.2 2.2-4.4 2.1-4.1 2.1-4.3 2.4-4.2 2.5-3.9 2.2-3.6 1.9c-.6.3-1.3.4-1.9.5a1.27 1.27 0 0 0-.9.7 1.39 1.39 0 0 0-.2 1.1 1.27 1.27 0 0 0 .7.9c.2.1.5.2.8.2h.3zm-22.6-.8l4.1-2.3 2.1-1.1c.7-.3 1.4-.7 2.1-1.1l2.1-1.1 2-1.2 4.2-2.4 8.2-4.6 4.2-2.2c1.4-.7 2.8-1.6 4.1-2.4l3.9-2.4c1.3-.8 2.7-1.4 4.1-2.1l4.2-2 4.1-2 1.6-.8c.7-.4 1-1.3.6-2s-1.3-1-2-.6l-2.4 1.2c-.7.3-1.3.7-2 1l-2 .9c-.7.3-1.3.6-2 1l-8.2 4.3-4.1 2.5c-1.4.9-2.8 1.5-4.2 2.2l-4 2.2-4.3 2.4-4 2.2-4.2 2.4-2 1.1-2.1 1.1-3.9 2.2-1.4.8c-.7.4-1 1.3-.6 2 .3.5.8.8 1.4.8 0 .1.3.1.4 0h0zm4.4-15.4c1.2-.5 2.3-1.1 3.4-1.7l3.6-1.8 3.3-1.8c1.1-.6 2.3-1.5 3.4-2.3l-.3.2.8-.5-.1.1 2.2-1.5 2.3-1.3c1.6-.9 3.2-1.6 4.9-2.4.7-.4 1-1.3.6-2s-1.3-1-2-.6l-4.9 2.4c-.8.4-1.5.8-2.3 1.3l-2.5 1.7.3-.2-.6.4-3.2 2.1-3.3 1.8-6.8 3.4c-.7.4-1 1.3-.6 2.1.2.3.5.6.9.7.1 0 .3.1.4.1 0 0 .3-.1.5-.2h0zM60.7 143.1l2.1-2.5c.7-.8 1.2-1.6 1.7-2.4l3.2-4.5a20.79 20.79 0 0 1 2.1-2.1l1.4-1.2c.5-.4.9-.9 1.3-1.3l2.6-2.5c.4-.4.8-.8 1.1-1.3s.8-1 1.2-1.5c.3-.4.6-.8 1-1.1l1.3-1.2 2.7-2.4 2.6-2.5c.9-.8 1.9-1.5 2.9-2.2l4.4-3.1c1.2-.9 2.5-1.7 3.8-2.5l3.9-2.4 4-2.2 2-1.2 2.1-1.1c.7-.4 1.3-.7 2-1l2.4-1.3c.7-.4 1-1.3.6-2s-1.3-1-2-.6l-2.3 1.2c-.7.4-1.4.7-2.1 1a12.81 12.81 0 0 0-2 1.1l-2 1.2-4 2.2c-1.3.7-2.6 1.6-3.9 2.4l-3.7 2.4-3.3 2.4-3.9 2.8c-1.3 1-2.1 1.9-3.1 2.9s-2.2 2-3.3 2.9c-.6.5-1.2 1-1.7 1.6l-1.4 1.7c-.4.6-.9 1-1.3 1.5s-1.1 1.1-1.7 1.6l-3.3 3.1c-1.2 1-2.2 2.1-3.2 3.3l-2.7 3.8-1.2 1.7c-.4.6-.9 1.2-1.4 1.8l-.9 1.1c-.3.3-.5.7-.5 1.1s.1.8.3 1.1c.3.3.7.5 1.1.5h0c.4.1.8 0 1.1-.3h0zm27-28.4l.2-.2-.2.2z"/><path d="M15 118.8l2-1.8 3.7-3.5 1.9-1.5 4.4-3.2c1.4-1.1 3.1-2.1 4.6-3.2l4.5-3.4 1.3-.9 3.8-2.4 3.8-2.3 3.8-2.4 4-2.5 4-2.2 4.2-2 8.7-3.7c1-.4 1.9-.9 2.8-1.4l2.8-1.5 5.6-3.3c.3-.2.6-.5.7-.9s.1-.8-.1-1.1c-.4-.7-1.3-1-2-.6l-4.3 2.6-4.1 2.3c-1.4.8-2.9 1.4-4.3 2l-4.1 1.8-4.3 1.9-4.2 2.2c-1.4.8-2.8 1.2-4.2 2-.7.4-1.3.9-2 1.3l-1.9 1.2-5.7 3.5-2.8 1.7c-1 .6-1.9 1.2-2.8 1.9l-2.8 2.1-2.4 1.9-3.6 2.4-3.6 2.6-2.5 1.8c-.8.6-1.6 1.3-2.3 2l-2.2 2.1-2.5 2.3c-.6.6-.6 1.5-.1 2.1.3.3.7.5 1.1.5s.8-.2 1.1-.4h0zm22.2-17.5c.1 0 .1-.1.2-.1l-.2.1zm31.9 18.9c1.5-1.2 2.9-2.5 4.2-3.9l2-2c.7-.7 1.3-1 2-1.6s1.4-.9 2-1.4l-.1.1 6-4.4c.3-.3.7-.5 1.1-.8s1-.6 1.4-.9l3.1-2.2h-.1l.1-.1.9-.6 2.3-1.7c.7-.6 1.4-1.2 2-1.9.5-.6.5-1.6-.1-2.1-.5-.5-1.3-.5-1.9-.1a33.29 33.29 0 0 1-2.8 2.5l-1.6 1.2.1-.1-.4.2h.1l-2.6 1.9-2.1 1.4-2.5 1.8-4.3 3.2-.7.5-2.9 2.1a26.22 26.22 0 0 0-2.5 2.2l-2.4 2.4c-.8.8-1.5 1.6-2.4 2.3-.6.6-.6 1.5-.1 2.1.3.3.7.5 1.1.5l1.1-.6zm8-10.9l.2-.1-.2.1zm.8-.6h0zm.1 0l.2-.2-.2.2zm13.7-6.2l.2-.1-.2.1zm-.3-3.4l.2-.1-.2.1zm-1.8 1.2h0l-.1.1.1-.1zm1.2 2.8h0zm-40.2-2.2l2-1.2c.6-.4 1.4-.8 2.1-1.2s1.4-.7 2.2-1l2-.9 2.2-.9 2.1-1 4.3-2.1 2.6-1.3 2.6-1.4c.9-.4 1.7-.9 2.5-1.3l2.8-1.4c.7-.4 1-1.3.6-2s-1.3-1-2-.6h0l-2.2 1.2c-.7.4-1.3.6-2 1l-4 2.2-4.1 2-4.5 2.1-2.8 1-2.6 1.2-2.7 1.4-2.6 1.6c-.3.2-.6.5-.7.9s-.1.8.1 1.1c.3.5.8.8 1.4.8.2 0 .5-.1.7-.2h0zm-18.7-6.8l4.1-2.7 4-2.3 4.1-2.3 3.9-2.4 3.9-2.5 4-2.4 4-2.3 4.1-2 3.9-1.7 4.5-1.7L77 70a1.27 1.27 0 0 0 .7-.9c.1-.4.1-.8-.1-1.2a1.27 1.27 0 0 0-.9-.7c-.4-.1-.8-.1-1.1.1L70 69.5l-4.5 1.7-4.3 2c-1.4.6-2.8 1.4-4.2 2.2l-4.1 2.4-3.9 2.4-4 2.5-4 2.4-4.1 2.2-6.7 4.2c-.3.2-.6.5-.7.9s-.1.8.1 1.1a1.27 1.27 0 0 0 .9.7c.2 0 .3.1.5.1.4 0 .6 0 .9-.2h0zm124.8-21l-8.1-12.5-7.2 12.5H135l10.5-17.3-10.8-16.6h6.5l8 12.3 7.2-12.3h6.3l-10.5 17 10.9 16.9h-6.4z"/></svg>