<svg xmlns="http://www.w3.org/2000/svg" viewBox="0 0 324.64 168.25"><defs><style>.cls-1{fill:#fefefe;}</style></defs><g id="Layer_2" data-name="Layer 2"><g id="Draw_Layer" data-name="Draw Layer"><path class="cls-1" d="M46.63,168.11a5.77,5.77,0,0,0,2.86-1.85c.47-.48.89-1,1.35-1.52,1-1.13,2.13-2.22,3.14-3.39a43.17,43.17,0,0,1,3.5-3.53c1.3-1.21,2.56-2.46,3.89-3.65S64,152,65.22,150.94s2.22-1.91,3.37-2.83c2.39-1.77,4.81-3.49,7.14-5.34l1.19-.91c1.65-1.22,3.28-2.47,4.9-3.73,1.21-.93,2.36-1.94,3.56-2.9,1.56-1.09,3.19-2.07,4.8-3.08s3.33-2.15,5-3.16c3.76-2.23,7.67-4.19,11.48-6.32,2-1.1,4-2.17,5.9-3.31s4-2.28,6-3.4c3.82-2.14,7.62-4.34,11.48-6.4,1.74-.92,3.47-1.86,5.21-2.79s3.69-1.85,5.53-2.79c3.94-2,7.83-4.12,11.7-6.26,4.15-2.3,8.29-4.61,12.5-6.81,1.79-.93,3.63-1.78,5.45-2.67s3.85-1.89,5.78-2.81c3.91-1.86,7.73-3.86,11.59-5.82s7.8-3.74,11.74-5.54,8.06-3.86,12.08-5.82,7.82-3.73,11.67-5.73,7.69-4.2,11.55-6.29,7.81-4,11.73-6,7.85-3.86,11.7-5.92,7.39-4.27,11.09-6.41c6.54-3.78,13.3-7.13,19.95-10.69,3.18-1.7,6.31-3.5,9.44-5.29a94.1,94.1,0,0,1,10-5.15c2.16-.83,4.36-1.56,6.48-2.53,2.42-1.1,4.85-2.19,7.3-3.25a4.09,4.09,0,0,0,2-2.51,4.25,4.25,0,0,0-2.91-5.27,4.62,4.62,0,0,0-3.28.39c-1.6.7-3.21,1.38-4.81,2.1-1.2.54-2.39,1.11-3.6,1.63-1.87.71-3.75,1.39-5.62,2.15a48.94,48.94,0,0,0-5.36,2.59c-3.63,2-7.24,4.12-10.88,6.15-3.46,1.94-7,3.76-10.53,5.61-1.84,1-3.7,1.9-5.52,2.89s-3.75,2-5.6,3.09c-3.72,2.1-7.34,4.36-11.08,6.43s-7.63,3.94-11.46,5.86S236,46,232.14,48s-7.63,4.29-11.53,6.3-7.87,4-11.85,5.88-7.86,3.9-11.84,5.74-8,3.57-11.88,5.54-7.69,4-11.59,5.85-7.71,3.71-11.54,5.61-7.78,4.13-11.64,6.27-8,4.42-12.08,6.53c-3.75,2-7.54,3.8-11.26,5.82s-7.45,4.11-11.16,6.2c-3.94,2.23-7.84,4.51-11.81,6.69-3.81,2.09-7.65,4.14-11.44,6.27-1.8,1-3.57,2.11-5.31,3.23s-3.4,2.14-5.09,3.22a49.15,49.15,0,0,0-4.79,3.69C76,132,74.67,133,73.31,134c-1,.74-2,1.47-2.94,2.22l.88-.66c-1.16.87-2.3,1.78-3.45,2.67-2.41,1.75-4.82,3.47-7.09,5.4-1.11.94-2.23,1.85-3.33,2.78.55-1.14,1.12-2.27,1.66-3.41,1.12-2.37,2-4.85,3.05-7.26l.52-1.2-.12.29c1.22-2.73,2.58-5.39,4.05-8a78.92,78.92,0,0,0,4-8.27,43.82,43.82,0,0,1,2.86-5.1c1.18-1.86,2.34-3.74,3.63-5.51A53.68,53.68,0,0,1,81,103.92a12.16,12.16,0,0,0,1.44-1.68,6.26,6.26,0,0,0,.66-1.38,4.15,4.15,0,0,0-.39-3.41,5,5,0,0,0-1.59-1.65,4.89,4.89,0,0,0-2.24-.65,8.23,8.23,0,0,0-1.91.13c-1.78.13-3.57.16-5.35.33a70.69,70.69,0,0,0-7.09,1.14c-2,.42-4,.91-6,1.52s-4.24,1.33-6.37,2A118.32,118.32,0,0,0,38.92,105c-3.43,1.48-6.78,3.17-10.08,4.9-2.17,1.13-4.38,2.19-6.56,3.3s-4.33,2.44-6.46,3.71l-.6.36,1.5-2c1.14-1.54,2.26-3.11,3.41-4.65l.4-.51c1.88-2.33,3.88-4.56,5.75-6.91l-.27.34c.62-.77,1.27-1.51,1.9-2.28s1.32-1.68,2-2.53c1-1.18,2-2.35,3-3.52,1.15-1.35,2.21-2.8,3.27-4.23.56-.66,1.16-1.29,1.76-1.92.83-.88,1.73-1.66,2.6-2.49,1.39-1.32,2.72-2.74,4.2-3.95l-.37.28,1.11-.86a30.77,30.77,0,0,0,3.5-2.94,30.56,30.56,0,0,1,2.82-2.4l-.88.66c.9-.68,1.78-1.38,2.65-2.08.54-.42,1-.88,1.55-1.31l.07,0c1-.75,2-1.49,3-2.25l-.88.66c.75-.53,1.51-1,2.27-1.55s1.72-1.16,2.6-1.7,1.6-1.06,2.43-1.52c1-.56,2-1.14,2.92-1.79,1.66-1.17,3.35-2.33,5.08-3.39.75-.47,1.45-1,2.2-1.48s1.75-1.11,2.62-1.66c1.74-1.08,3.47-2.18,5.22-3.22.88-.53,1.76-1,2.63-1.59s1.68-1.13,2.54-1.67c3.4-2.12,6.79-4.29,10.27-6.26.76-.43,1.48-.91,2.24-1.34l2.64-1.46c1.82-1,3.6-2.11,5.42-3.14s3.4-2,5.1-3c1.55-.9,3.11-1.79,4.63-2.75.75-.47,1.52-.87,2.26-1.33,1-.6,1.94-1.17,2.91-1.75a52.57,52.57,0,0,1,4.64-2.72c.89-.41,1.77-.81,2.65-1.26s1.88-1.09,2.84-1.6,1.77-.85,2.63-1.32,2-.94,3-1.42,1.78-1,2.73-1.43,1.9-1,2.89-1.49c.45-.2.9-.38,1.36-.57a10.8,10.8,0,0,0,1.54-.82c.8-.49,1.72-.74,2.5-1.24,1.33-.84,2.63-1.72,4-2.56.91-.57,1.76-1.23,2.65-1.84.32-.22.67-.4,1-.63s.77-.58,1.15-.87a8.32,8.32,0,0,1,1.07-.63c.83-.28,1.66-.52,2.51-.74a11.68,11.68,0,0,0,2.59-1.25c.25-.14.5-.26.76-.38.7-.23,1.41-.4,2.11-.62a4.46,4.46,0,0,0,2.61-1.95A4.25,4.25,0,0,0,165.7.17c-.74.23-1.49.4-2.23.66a21.79,21.79,0,0,0-2.4,1c-.43.2-.83.46-1.24.7-.8.23-1.59.44-2.38.72a13.58,13.58,0,0,0-2.53,1.11,15.57,15.57,0,0,0-1.74,1.28c-.47.32-1,.61-1.42.95-.76.54-1.52,1.08-2.31,1.58-1.1.69-2.18,1.4-3.26,2.11a14.4,14.4,0,0,1-2,1c-.74.34-1.4.82-2.12,1.18s-1.7.69-2.52,1.11-1.61.88-2.46,1.26-1.57.83-2.35,1.26c-1,.52-2,.9-3,1.42s-1.77.86-2.63,1.32-1.88,1.11-2.85,1.6c-1.77.9-3.6,1.67-5.3,2.73-.67.41-1.31.86-2,1.25-1,.58-2,1.14-2.91,1.75-.74.46-1.51.87-2.26,1.33s-1.55,1-2.34,1.42c-1.66.95-3.29,2-5,2.9s-3.43,2-5.14,3-3.57,2-5.35,3c-1.59.9-3.12,1.89-4.7,2.79-1.8,1-3.54,2.16-5.28,3.27-.83.53-1.67,1-2.52,1.54S81.9,46.53,81,47.07c-1.8,1.12-3.64,2.19-5.44,3.31l-2.81,1.75c-1,.65-2.1,1.3-3.11,2-1.81,1.27-3.68,2.48-5.53,3.69-1,.67-2,1.39-3.1,2S59,61.07,57.93,61.71s-2,1.31-3,2-1.77,1.22-2.64,1.87l0,0c-.75.57-1.52,1.12-2.28,1.69.17-.14.35-.27.53-.4-1.54,1.12-3,2.38-4.45,3.57l.87-.66c-1.22.93-2.39,1.9-3.57,2.89-.44.37-.83.81-1.25,1.21s-1,.81-1.43,1.2-1.13.86-1.69,1.29l.87-.66a25.62,25.62,0,0,0-2.27,1.87c-.45.43-.89.88-1.36,1.29s-.88.89-1.35,1.32l-1.74,1.58A51.75,51.75,0,0,0,27.1,88.9c-.8,1-1.66,1.94-2.47,2.93S22.86,94,22,95.16c-1,1.22-2,2.43-3,3.68l.67-.86c-2.09,2.54-4.26,5-6.28,7.6-2.25,2.88-4.36,5.86-6.52,8.8A42.83,42.83,0,0,0,4,119c-.86,1.55-1.72,3.14-2.46,4.75a16.2,16.2,0,0,0-1.31,3.07,4.82,4.82,0,0,0,.47,3.79l.66.88a4.22,4.22,0,0,0,1.85,1.1,4.55,4.55,0,0,0,2.56.09,15.14,15.14,0,0,0,3.37-1.44c.89-.47,1.74-1,2.58-1.54,1.62-1,3.2-2.11,4.8-3.17s3.44-2.11,5.15-3.16c3.6-2.21,7.42-4,11.15-5.91s7.32-3.73,11.08-5.35c2.07-.82,4.13-1.63,6.23-2.36,2.55-.88,5.17-1.57,7.75-2.38,2.4-.75,4.79-1.53,7.25-2.06,1.35-.29,2.71-.57,4.06-.81-.46.66-.9,1.33-1.33,2-.81,1.33-1.72,2.61-2.51,4a48.11,48.11,0,0,0-2.79,5.5c-1.09,2.43-2.29,4.78-3.6,7.1a101.15,101.15,0,0,0-4.49,9.18l.43-1c-1,2.33-2,4.69-2.94,7-.68,1.5-1.42,3-2.15,4.45-.9,1.81-1.65,3.69-2.42,5.55s-1.83,3.91-2.69,5.89l-.89,2c.06-.14.12-.29.19-.43l-.2.45-.24.55.24-.54q-1,2.28-1.86,4.6a9.93,9.93,0,0,0-.74,2.74,4.3,4.3,0,0,0,1.22,3.34,4.56,4.56,0,0,0,1.92,1.15,3.52,3.52,0,0,0,1.07.16,7.57,7.57,0,0,0,1.27-.14ZM14,104.77l-.42.53.42-.53Zm-.42.53-.07.09.07-.09Zm-.21.28.14-.19-.18.23,0,0Z"/><path class="cls-1" d="M221.43,42.46a8.55,8.55,0,0,0,2-.57,21.58,21.58,0,0,0,2.27-1c1.4-.71,2.79-1.42,4.15-2.2s2.77-1.65,4.15-2.48,2.8-1.62,4.22-2.4c2.78-1.54,5.6-3,8.48-4.37,1.49-.69,2.95-1.43,4.4-2.18s2.75-1.48,4.12-2.24,2.94-1.62,4.43-2.4,2.67-1.44,4-2.15c2.85-1.49,5.8-2.78,8.75-4,.83-.35,1.66-.72,2.48-1.11s1.74-.92,2.62-1.38,1.68-.8,2.52-1.19,1.86-.84,2.79-1.28a1.5,1.5,0,0,0-1.41-2.65c-1.48.71-3,1.37-4.47,2.05-.68.31-1.33.68-2,1s-1.36.71-2.06,1c-2.88,1.31-5.8,2.49-8.64,3.88-1.48.73-2.94,1.48-4.39,2.29-.65.36-1.32.69-2,1s-1.41.76-2.12,1.14c-1.45.78-2.88,1.6-4.32,2.39s-2.81,1.47-4.22,2.18-2.94,1.39-4.39,2.12-2.74,1.37-4.08,2.1-2.88,1.56-4.29,2.38-2.82,1.68-4.22,2.52-2.59,1.5-3.91,2.2A38.53,38.53,0,0,1,222.69,39a8.8,8.8,0,0,1-1.95.53,1.41,1.41,0,0,0-.92.66,1.51,1.51,0,0,0-.19,1.14,1.56,1.56,0,0,0,.66.93,1.41,1.41,0,0,0,.78.21l.36,0Z"/><path class="cls-1" d="M198.79,41.68c1.35-.77,2.72-1.52,4.08-2.28.7-.39,1.39-.77,2.1-1.13s1.4-.7,2.09-1.08,1.42-.74,2.12-1.13,1.36-.77,2-1.16l2.06-1.19,2.08-1.15c1.36-.77,2.73-1.5,4.09-2.26s2.74-1.6,4.13-2.34,2.83-1.46,4.25-2.19,2.76-1.58,4.13-2.39,2.59-1.62,3.92-2.37,2.7-1.4,4.06-2.08,2.77-1.34,4.16-2,2.72-1.39,4.09-2l1.63-.76a1.52,1.52,0,0,0,.62-2,1.54,1.54,0,0,0-2-.62c-.82.39-1.64.77-2.45,1.17-.66.33-1.31.69-2,1l-2,.95c-.67.31-1.33.64-2,1A75.75,75.75,0,0,0,231.76,20c-1.35.85-2.72,1.65-4.1,2.45s-2.77,1.49-4.16,2.19-2.7,1.47-4,2.22-2.88,1.61-4.33,2.41-2.71,1.47-4,2.24-2.75,1.63-4.17,2.37l-2,1.07c-.71.37-1.44.72-2.15,1.1-1.33.7-2.64,1.45-3.95,2.18l-1.45.82a1.52,1.52,0,0,0-.62,2,1.55,1.55,0,0,0,1.35.79,1.4,1.4,0,0,0,.68-.17Z"/><path class="cls-1" d="M203.21,26.32c1.17-.51,2.28-1.12,3.41-1.71s2.38-1.18,3.56-1.79,2.23-1.16,3.31-1.82,2.29-1.52,3.41-2.31l-.31.22.75-.53-.12.08c.72-.5,1.43-1,2.16-1.46s1.5-.89,2.26-1.31c1.59-.88,3.25-1.64,4.88-2.43a1.5,1.5,0,0,0-1.41-2.65c-1.63.79-3.29,1.55-4.88,2.43-.76.42-1.53.84-2.26,1.32s-1.67,1.1-2.49,1.69l.31-.22-.65.45h0c-1.05.73-2.09,1.48-3.18,2.14s-2.19,1.23-3.31,1.81-2.31,1.14-3.45,1.73-2.25,1.21-3.41,1.72a1.51,1.51,0,0,0,.27,2.76,1.58,1.58,0,0,0,.42.06,1.74,1.74,0,0,0,.72-.18Z"/><path class="cls-1" d="M60.72,143.12c.7-.83,1.4-1.66,2.07-2.5s1.16-1.57,1.72-2.37c1-1.5,2-3,3.17-4.51a23.44,23.44,0,0,1,2.1-2.13c.46-.41.92-.81,1.36-1.25s.88-.86,1.33-1.28c.89-.82,1.77-1.63,2.63-2.48.4-.4.77-.85,1.14-1.28s.81-1,1.21-1.47a12,12,0,0,1,1-1.1c.44-.4.89-.79,1.34-1.16.93-.78,1.84-1.59,2.72-2.43s1.69-1.68,2.59-2.46A36,36,0,0,1,88,114.47c1.47-1,2.92-2.08,4.38-3.14,1.25-.86,2.53-1.69,3.81-2.51s2.55-1.67,3.88-2.43c.67-.37,1.34-.72,2-1.1l2-1.13c.68-.4,1.35-.83,2-1.24s1.36-.74,2.05-1.11,1.34-.66,2-1c.82-.42,1.63-.85,2.44-1.28a1.5,1.5,0,1,0-1.41-2.65l-2.31,1.22c-.7.36-1.41.69-2.11,1s-1.37.73-2,1.11-1.37.83-2,1.25c-1.3.79-2.65,1.5-4,2.23s-2.6,1.57-3.87,2.41-2.48,1.59-3.68,2.43-2.23,1.61-3.35,2.41c-1.32.92-2.64,1.82-3.88,2.85s-2.12,1.9-3.14,2.9-2.17,2-3.28,2.94a16.38,16.38,0,0,0-1.72,1.61c-.49.55-1,1.12-1.42,1.7s-.87,1-1.35,1.51-1.09,1.06-1.66,1.57c-1.14,1-2.16,2.11-3.29,3.1a21.58,21.58,0,0,0-3.15,3.33c-.92,1.25-1.78,2.55-2.66,3.82-.4.57-.78,1.15-1.2,1.71s-.92,1.2-1.4,1.79l-.92,1.1a1.65,1.65,0,0,0-.48,1.07A1.51,1.51,0,0,0,58.6,143a1.55,1.55,0,0,0,1.07.49h0a1.41,1.41,0,0,0,1-.4Zm27-28.46.22-.16-.22.16Z"/><path class="cls-1" d="M15,118.79c.7-.59,1.39-1.18,2-1.81l1.87-1.84c.61-.59,1.23-1.16,1.84-1.73a20.56,20.56,0,0,1,1.86-1.49c1.48-1,2.95-2.12,4.42-3.2s3.11-2.12,4.64-3.22,3-2.31,4.48-3.41l1.27-.91c1.23-.83,2.51-1.58,3.77-2.36s2.54-1.54,3.8-2.33,2.56-1.57,3.84-2.36,2.64-1.72,4-2.54,2.67-1.51,4-2.24,2.77-1.39,4.18-2c2.88-1.26,5.8-2.42,8.65-3.73,1-.44,1.89-.89,2.82-1.36s1.84-1,2.76-1.51c1.93-1,3.78-2.16,5.62-3.31a1.54,1.54,0,0,0,.73-.89,1.47,1.47,0,0,0-.11-1.14,1.52,1.52,0,0,0-2-.62c-1.41.88-2.82,1.76-4.28,2.56s-2.73,1.51-4.1,2.26-2.87,1.38-4.33,2S64,82.82,62.65,83.4s-2.88,1.22-4.31,1.88-2.85,1.39-4.25,2.15S51.36,89,50,89.79c-.67.42-1.32.87-2,1.3l-1.92,1.18c-1.9,1.15-3.77,2.32-5.66,3.48l-2.83,1.72c-1,.59-1.88,1.24-2.8,1.9s-1.89,1.36-2.8,2.09-1.61,1.26-2.44,1.86L26,105.77c-1.21.84-2.38,1.73-3.56,2.6-.85.59-1.71,1.16-2.52,1.79a27.08,27.08,0,0,0-2.28,2c-.75.71-1.48,1.42-2.21,2.14s-1.64,1.54-2.5,2.27a1.51,1.51,0,0,0-.09,2.12,1.48,1.48,0,0,0,1.09.48,1.63,1.63,0,0,0,1-.39Zm22.22-17.46a1.09,1.09,0,0,1,.17-.13l-.17.13Z"/><path class="cls-1" d="M69.07,120.15a46.14,46.14,0,0,0,4.16-3.87c.66-.67,1.32-1.34,2-2s1.34-1,2-1.55,1.36-.92,2-1.4l-.08.06c2-1.44,4-3,6-4.42.35-.26.72-.51,1.08-.76s1-.61,1.42-.94c1-.71,2-1.45,3.06-2.17l-.07,0,.11-.08h0l0,0,.87-.62c.79-.55,1.58-1.1,2.34-1.7s1.38-1.25,2-1.88a1.5,1.5,0,0,0-2-2.21,29.68,29.68,0,0,1-2.8,2.46l-1.62,1.15.1-.07-.16.12-.15.1.07,0q-1.34.93-2.64,1.89l-2.08,1.39c-.85.55-1.65,1.16-2.47,1.76-1.45,1.06-2.88,2.15-4.34,3.21l-.65.46c-1,.68-2,1.36-2.95,2.06a20.77,20.77,0,0,0-2.5,2.18c-.8.79-1.56,1.61-2.36,2.38S67.89,117.25,67,118a1.51,1.51,0,0,0-.09,2.12,1.44,1.44,0,0,0,1.07.47,1.71,1.71,0,0,0,1.06-.39Zm8-10.86.16-.11-.16.11Zm.8-.57.08-.06-.08.06Zm.1-.07.22-.15-.22.15Zm13.74-6.18.21-.14-.21.14Zm-.34-3.4.15-.11-.15.11Zm-1.8,1.28.06,0-.14.11.08-.06Zm1.23,2.77,0,0,0,0Z"/><path class="cls-1" d="M50.63,100.93c.68-.43,1.36-.84,2-1.25s1.38-.83,2.09-1.21,1.43-.73,2.17-1l2-.91,2.18-.94,2.14-1c1.46-.68,2.88-1.42,4.33-2.13.87-.42,1.74-.83,2.59-1.27s1.72-1,2.58-1.43,1.68-.86,2.53-1.27,1.84-.95,2.75-1.43a1.5,1.5,0,1,0-1.41-2.65c-.74.4-1.49.8-2.24,1.18s-1.33.63-2,1c-1.33.69-2.62,1.46-4,2.15s-2.74,1.32-4.1,2-3,1.47-4.49,2.14l-2.76,1.21c-.87.4-1.76.76-2.63,1.18s-1.8.93-2.67,1.45-1.76,1-2.62,1.59a1.57,1.57,0,0,0-.73.89,1.51,1.51,0,0,0,.12,1.14,1.58,1.58,0,0,0,1.36.81,1.21,1.21,0,0,0,.66-.19Z"/><path class="cls-1" d="M31.88,94.1c1.37-.94,2.75-1.84,4.14-2.74s2.66-1.56,4-2.3,2.76-1.48,4.11-2.28,2.63-1.6,3.94-2.41S50.69,82.71,52,81.9s2.68-1.64,4-2.45,2.66-1.6,4-2.35,2.74-1.38,4.14-2,2.57-1.19,3.89-1.72c1.51-.56,3-1.09,4.53-1.68s3.06-1.19,4.6-1.78a1.49,1.49,0,0,0,.73-.88,1.53,1.53,0,0,0-.12-1.15,1.44,1.44,0,0,0-.88-.72,1.61,1.61,0,0,0-1.14.11c-1.88.71-3.75,1.45-5.62,2.17-1.52.53-3,1-4.51,1.69s-2.87,1.3-4.3,2a42.14,42.14,0,0,0-4.16,2.18c-1.35.82-2.73,1.61-4.08,2.44s-2.62,1.57-3.91,2.39-2.65,1.7-4,2.52-2.64,1.63-4,2.38-2.72,1.47-4.06,2.22c-2.31,1.3-4.52,2.75-6.7,4.24a1.61,1.61,0,0,0-.73.89,1.51,1.51,0,0,0,.12,1.14,1.49,1.49,0,0,0,.88.73,1.78,1.78,0,0,0,.47.07,1.28,1.28,0,0,0,.68-.18Z"/><path class="cls-1" d="M136,38.65a2,2,0,0,0-.08,2.83,33.44,33.44,0,0,1,2.27,2.63,56.18,56.18,0,0,1,3.42,5.8c1,1.83,2,3.65,3,5.5s2,3.88,3,5.8,2.08,3.53,3,5.35l.41.81a9.37,9.37,0,0,0,.4.85,2,2,0,0,0,2.72.8,2,2,0,0,0,.79-2.71c-.24-.4-.4-.86-.61-1.28s-.5-.94-.76-1.4c-.48-.86-1-1.69-1.47-2.55-1-1.84-2-3.72-3-5.61s-2-3.77-3-5.66l-1.71-3.17c-.44-.81-.88-1.63-1.37-2.41l-1-1.56a27.49,27.49,0,0,0-3.21-3.94,2,2,0,0,0-1.46-.62,2,2,0,0,0-1.37.54Zm1.95,5.12.16.22a1.77,1.77,0,0,1-.16-.22Z"/><path class="cls-1" d="M157.29,36.85a2.13,2.13,0,0,0-1.22.88c-.83,1.1-1.69,2.17-2.56,3.24l.33-.4c-1.31,1.61-2.62,3.23-4,4.79-1.53,1.74-3.09,3.46-4.62,5.2a107.33,107.33,0,0,0-7.84,9.58,26,26,0,0,0-1.47,2.28c-.21.38-.41.76-.6,1.15s-.26.58-.38.87a3.29,3.29,0,0,0-.15,1.81,2,2,0,0,0,2.43,1.46,2.07,2.07,0,0,0,1.22-.89,1.87,1.87,0,0,0,.28-1.07l.09-.26a39.82,39.82,0,0,1,4.67-6.8c2.54-3.08,5.21-6,7.88-9,1.35-1.5,2.64-3,3.92-4.6,1.42-1.72,2.84-3.45,4.19-5.23a1.92,1.92,0,0,0,.24-1.53,2,2,0,0,0-.88-1.22,2,2,0,0,0-1.06-.3,2,2,0,0,0-.48.06Z"/><path class="cls-1" d="M87.59,47.88A1.78,1.78,0,0,0,87,49.09,1.75,1.75,0,0,0,88.55,51a1.92,1.92,0,0,0,1.27-.39,1.75,1.75,0,0,0-1-3.1,1.84,1.84,0,0,0-1.26.39Z"/></g></g></svg>