<?xml version="1.0" encoding="utf-8"?>
<!-- Generator: Adobe Illustrator 24.1.3, SVG Export Plug-In . SVG Version: 6.00 Build 0)  -->
<svg version="1.1" id="Layer_1" xmlns="http://www.w3.org/2000/svg" xmlns:xlink="http://www.w3.org/1999/xlink" x="0px" y="0px"
	 viewBox="0 0 324.6 168.2" style="enable-background:new 0 0 324.6 168.2;" xml:space="preserve">
<style type="text/css">
	.st0{fill:#FEFEFE;}
	.st1{fill:#FFFFFF;}
</style>
<g id="Layer_2_1_">
	<g id="Draw_Layer">
		<path class="st0" d="M324,37.6c-0.2-0.3-0.4-0.6-0.7-0.9c-0.5-0.5-1.1-0.9-1.9-1.1c-0.8-0.3-1.7-0.3-2.5-0.1
			c-1.2,0.3-2.3,0.8-3.4,1.4c-0.9,0.5-1.7,1-2.6,1.5c-1.6,1-3.2,2.1-4.8,3.2s-3.4,2.1-5.2,3.2c-3.6,2.2-7.4,4-11.1,5.9
			c-3.7,1.9-7.3,3.7-11.1,5.4c-2.1,0.8-4.1,1.6-6.2,2.4c-2.5,0.9-5.2,1.6-7.7,2.4c-2.4,0.8-4.8,1.5-7.3,2.1
			c-1.3,0.3-2.7,0.6-4.1,0.8c0.5-0.7,0.9-1.3,1.3-2c0.8-1.3,1.7-2.6,2.5-4c1-1.8,2-3.6,2.8-5.5c1.1-2.4,2.3-4.8,3.6-7.1
			c1.6-2.9,3.1-5.9,4.4-8.9c0.9-2.1,1.8-4.2,2.6-6.2c0.7-1.5,1.4-3,2.1-4.5c0.9-1.8,1.6-3.7,2.4-5.5c0.8-1.9,1.8-4,2.7-5.9l0.9-2
			l-0.2,0.4l0.2-0.5l0.2-0.4c0.6-1.4,1.2-2.8,1.7-4.2c0.4-0.9,0.6-1.8,0.8-2.7c0.1-1.2-0.4-2.5-1.2-3.3c-0.5-0.6-1.2-1-1.9-1.2
			C280,0.1,279.6,0,279.3,0c-0.4,0-0.9,0.1-1.3,0.1c-1.1,0.3-2.1,1-2.8,1.9c-0.5,0.5-0.9,1-1.3,1.5c-1,1.1-2.1,2.2-3.1,3.4
			c-1.1,1.2-2.3,2.4-3.5,3.5c-1.3,1.2-2.6,2.5-3.9,3.7s-2.6,2.1-3.9,3.2c-1.1,1-2.2,1.9-3.4,2.8c-2.4,1.8-4.8,3.5-7.1,5.3l-1.2,0.9
			c-1.6,1.2-3.3,2.5-4.9,3.7c-1.2,0.9-2.4,1.9-3.6,2.9c-1.6,1.1-3.2,2.1-4.8,3.1c-1.6,1-3.3,2.2-5,3.2c-3.8,2.2-7.7,4.2-11.5,6.3
			c-2,1.1-3.9,2.2-5.9,3.3c-2,1.1-4,2.3-6,3.4c-3.8,2.1-7.6,4.3-11.5,6.4l-5.2,2.8c-1.8,1-3.7,1.9-5.5,2.8c-3.9,2-7.8,4.1-11.7,6.3
			c-4.1,2.3-8.3,4.6-12.5,6.8c-1.8,0.9-3.6,1.8-5.4,2.7c-1.8,0.9-3.8,1.9-5.8,2.8c-3.9,1.9-7.7,3.9-11.6,5.8
			c-3.9,2-7.8,3.7-11.7,5.5S117.1,98,113,100s-7.8,3.7-11.7,5.7s-7.7,4.2-11.5,6.3c-3.9,2.1-7.8,4-11.7,6c-3.9,2-7.8,3.9-11.7,5.9
			c-3.8,2.1-7.4,4.3-11.1,6.4c-6.5,3.8-13.2,7.1-19.9,10.7c-3.2,1.7-6.3,3.5-9.4,5.3c-3.2,1.9-6.6,3.6-10,5.2
			c-2.2,0.8-4.4,1.6-6.5,2.5c-1.4,0.6-2.7,1.2-4.1,1.8c0.1,0,0.3,0,0.4,0c4.7,0,9.3,1.2,13.7,3.3c0.3-0.1,0.6-0.2,0.9-0.4
			c1.8-0.8,3.6-1.6,5.4-2.6c3.6-2,7.2-4.1,10.9-6.2c3.5-1.9,7-3.8,10.5-5.6c1.8-1,3.7-1.9,5.5-2.9s3.7-2,5.6-3.1
			c3.7-2.1,7.3-4.4,11.1-6.4c3.7-2,7.7-4,11.5-5.9s7.8-3.8,11.7-5.9s7.6-4.3,11.5-6.3c3.9-2,7.9-4,11.9-5.9s7.8-3.9,11.8-5.7
			c4-1.8,8-3.6,11.9-5.5c3.9-2,7.7-4,11.6-5.9c3.9-1.8,7.7-3.7,11.5-5.6c3.8-1.9,7.8-4.1,11.6-6.3c3.9-2.1,8-4.4,12.1-6.5
			c3.8-2,7.5-3.8,11.3-5.8c3.7-2,7.5-4.1,11.2-6.2c3.9-2.2,7.8-4.5,11.8-6.7c3.8-2.1,7.6-4.1,11.4-6.3c1.8-1,3.6-2.1,5.3-3.2
			s3.4-2.1,5.1-3.2c1.7-1.1,3.3-2.4,4.8-3.7c1.3-1.1,2.7-2.1,4-3.1c1-0.7,2-1.5,2.9-2.2l-0.9,0.7c1.2-0.9,2.3-1.8,3.5-2.7
			c2.4-1.8,4.8-3.5,7.1-5.4c1.1-0.9,2.2-1.9,3.3-2.8c-0.6,1.1-1.1,2.3-1.7,3.4c-1.1,2.4-2,4.8-3,7.3l-0.4,1c-1.2,2.7-2.6,5.4-4,7.9
			c-1.5,2.7-2.8,5.4-4,8.3c-0.8,1.8-1.8,3.5-2.9,5.1c-1.2,1.9-2.3,3.7-3.6,5.5c-1.2,1.4-2.5,2.8-3.9,4.1c-0.6,0.5-1.1,1.1-1.5,1.7
			c-0.3,0.4-0.5,0.9-0.7,1.4c-0.4,1.1-0.2,2.4,0.4,3.4c0.4,0.7,0.9,1.2,1.6,1.6c0.7,0.4,1.5,0.6,2.2,0.7c0.6,0,1.3,0,1.9-0.1
			c1.8-0.1,3.6-0.2,5.3-0.3c2.4-0.3,4.8-0.6,7.1-1.1c2-0.4,4-0.9,6-1.5c2.1-0.7,4.2-1.3,6.4-2c4.5-1.3,8.9-2.9,13.2-4.8
			c3.4-1.5,6.8-3.2,10.1-4.9c2.2-1.1,4.4-2.2,6.6-3.3s4.3-2.4,6.5-3.7l0.6-0.4l-1.5,2c-1.1,1.5-2.3,3.1-3.4,4.7
			c-0.1,0.2-0.3,0.3-0.4,0.5c-1.9,2.3-3.9,4.6-5.7,6.9l0.3-0.4c-0.6,0.8-1.3,1.5-1.9,2.3c-0.6,0.8-1.3,1.7-2,2.5c-1,1.2-2,2.4-3,3.5
			c-1.2,1.3-2.2,2.8-3.3,4.2c-0.6,0.7-1.2,1.3-1.8,1.9c-0.8,0.9-1.7,1.7-2.6,2.5c-1.4,1.3-2.7,2.7-4.2,3.9l0.4-0.3
			c-0.4,0.3-0.8,0.6-1.1,0.9c-1.2,0.9-2.4,1.9-3.5,2.9c-0.9,0.9-1.8,1.7-2.8,2.4l0.9-0.7c-0.9,0.7-1.8,1.4-2.7,2.1
			c-0.5,0.4-1,0.9-1.5,1.3h-0.1l-2.2,1.6c-0.7,0.5-1.5,1-2.2,1.5c-0.8,0.5-1.7,1.2-2.6,1.7c-0.9,0.5-1.6,1.1-2.4,1.5
			c-1,0.6-2,1.1-2.9,1.8c-1.7,1.2-3.4,2.3-5.1,3.4c-0.8,0.5-1.5,1-2.2,1.5c-0.7,0.5-1.8,1.1-2.6,1.7c-1.7,1.1-3.5,2.2-5.2,3.2
			c-0.9,0.5-1.8,1-2.6,1.6c-0.9,0.6-1.7,1.1-2.5,1.7c-3.4,2.1-6.8,4.3-10.3,6.3c-0.8,0.4-1.5,0.9-2.2,1.3l-2.6,1.4
			c-1.8,1-3.6,2.1-5.4,3.2c-1.8,1-3.4,2-5.1,3c-1.5,0.9-3.1,1.8-4.6,2.8c-0.7,0.5-1.5,0.9-2.3,1.3c-1,0.6-1.9,1.2-2.9,1.8
			c-1.5,1-3,1.9-4.6,2.7c-0.9,0.4-1.8,0.8-2.6,1.3s-1.9,1.1-2.8,1.6c-1,0.5-1.8,0.9-2.6,1.3c-0.9,0.5-2,0.9-3,1.4
			c-1,0.5-1.8,1-2.7,1.4s-1.9,1-2.9,1.5l-1.3,0.6c-0.5,0.2-1.1,0.5-1.6,0.8c-0.8,0.5-1.7,0.7-2.5,1.2c-1.3,0.8-2.6,1.7-3.9,2.5
			c-0.9,0.6-1.8,1.2-2.7,1.9c-0.3,0.2-0.7,0.4-1,0.6c-0.3,0.2-0.8,0.6-1.1,0.9c-0.3,0.2-0.7,0.4-1.1,0.6c-0.8,0.3-1.7,0.5-2.5,0.7
			c-0.7,0.2-1.4,0.6-2,0.9c0.8,0.1,1.7,0.2,2.5,0.3c3.8,0,7.4,0.8,11,2.2c0.4-0.3,0.9-0.6,1.3-0.9c1.1-0.7,2.2-1.4,3.3-2.1
			c0.6-0.4,1.3-0.7,2-1c0.7-0.3,1.4-0.8,2.1-1.2c0.7-0.4,1.7-0.7,2.5-1.1c0.8-0.4,1.6-0.9,2.5-1.3c0.8-0.4,1.6-0.8,2.3-1.3
			c1-0.5,2-0.9,3-1.4s1.8-0.9,2.6-1.3s1.9-1.1,2.8-1.6c1.8-0.9,3.6-1.7,5.3-2.7c0.7-0.4,1.3-0.9,2-1.2c1-0.6,1.9-1.1,2.9-1.8
			c0.7-0.5,1.5-0.9,2.3-1.3c0.8-0.4,1.5-1,2.3-1.4c1.7-1,3.3-2,5-2.9c1.7-0.9,3.4-2,5.1-3s3.6-2,5.4-3c1.6-0.9,3.1-1.9,4.7-2.8
			c1.8-1,3.5-2.2,5.3-3.3c0.8-0.5,1.7-1,2.5-1.5c0.8-0.5,1.7-1.1,2.5-1.7c1.8-1.1,3.6-2.2,5.4-3.3l2.8-1.8c1-0.7,2.1-1.3,3.1-2
			c1.8-1.3,3.7-2.5,5.5-3.7c1-0.7,2-1.4,3.1-2c1.1-0.6,2.1-1.2,3.1-1.9c1-0.6,2-1.3,3-2s1.8-1.2,2.6-1.9c0.7-0.5,1.4-1.1,2.1-1.6
			c1.4-1,2.7-2.2,4.1-3.3l-0.9,0.7c1.2-0.9,2.4-1.9,3.6-2.9c0.4-0.4,0.8-0.8,1.3-1.2c0.5-0.4,0.9-0.8,1.4-1.2l1.7-1.3l-0.9,0.7
			c0.8-0.6,1.5-1.2,2.2-1.8c0.5-0.4,0.9-0.9,1.4-1.3c0.5-0.4,0.9-0.9,1.4-1.3l1.7-1.6c2.3-2.2,4.3-4.6,6.1-7.2
			c0.8-1,1.7-1.9,2.5-2.9s1.8-2.2,2.6-3.3c0.9-1.1,2-2.4,3-3.7l-0.7,0.9c2.1-2.5,4.3-5,6.3-7.6c2.2-2.9,4.4-5.9,6.5-8.8
			c1.1-1.5,2-3,2.9-4.6c0.9-1.6,1.7-3.1,2.5-4.8c0.5-1,1-2,1.3-3.1C324.9,40.1,324.7,38.8,324,37.6z"/>
		<polygon class="st0" points="310.6,63.5 311,63 310.6,63.5 		"/>
		<path class="st0" d="M311,63L311,63L311,63z"/>
		<polygon class="st0" points="311.2,62.7 311.1,62.9 311.2,62.7 311.2,62.7 		"/>
		<path class="st0" d="M103.2,125.8c-0.7,0.1-1.4,0.3-2,0.6c-0.8,0.3-1.5,0.6-2.3,1c-1.4,0.7-2.8,1.4-4.2,2.2s-2.8,1.6-4.2,2.4
			s-2.8,1.6-4.2,2.4c-2.8,1.5-5.6,3-8.5,4.4c-1.5,0.7-2.9,1.4-4.4,2.2s-2.8,1.5-4.1,2.2s-2.9,1.6-4.4,2.4l-4,2.1
			c-2.8,1.5-5.8,2.8-8.8,4c-0.8,0.4-1.7,0.7-2.5,1.1s-1.8,0.9-2.6,1.4s-1.7,0.8-2.5,1.2s-1.9,0.8-2.8,1.3c-0.8,0.3-1.1,1.2-0.8,2
			c0.3,0.8,1.2,1.1,2,0.8c0.1,0,0.1-0.1,0.2-0.1c1.5-0.7,3-1.4,4.5-2c0.7-0.3,1.3-0.7,2-1s1.4-0.7,2-1c2.9-1.3,5.8-2.5,8.6-3.9
			c1.5-0.7,2.9-1.5,4.4-2.3c0.7-0.4,1.3-0.7,2-1s1.4-0.8,2.1-1.1c1.4-0.8,2.9-1.6,4.3-2.4s2.8-1.5,4.2-2.2s2.9-1.4,4.4-2.1
			s2.7-1.4,4.1-2.1s2.9-1.6,4.3-2.4s2.8-1.7,4.2-2.5s2.6-1.5,3.9-2.2c1.2-0.7,2.4-1.3,3.7-1.8c0.6-0.3,1.3-0.4,2-0.5
			c0.4-0.1,0.7-0.3,0.9-0.7c0.2-0.3,0.3-0.8,0.2-1.2c-0.1-0.4-0.3-0.7-0.7-0.9c-0.2-0.1-0.5-0.2-0.8-0.2L103.2,125.8L103.2,125.8z"
			/>
		<path class="st0" d="M125.8,126.6c-1.3,0.8-2.7,1.5-4.1,2.3c-0.7,0.4-1.4,0.8-2.1,1.1s-1.4,0.7-2.1,1.1s-1.4,0.7-2.1,1.1
			s-1.3,0.8-2,1.2l-2.1,1.2l-2.1,1.1c-1.4,0.8-2.7,1.5-4.1,2.3s-2.7,1.6-4.1,2.3s-2.8,1.5-4.2,2.2s-2.8,1.6-4.1,2.4
			s-2.6,1.6-3.9,2.4s-2.7,1.4-4,2.1s-2.8,1.3-4.2,2s-2.7,1.4-4.1,2.1l-1.6,0.8c-0.7,0.4-1,1.3-0.6,2c0.4,0.7,1.3,1,2,0.6
			c0.8-0.4,1.6-0.8,2.4-1.2c0.7-0.3,1.3-0.7,2-1s1.3-0.6,2-1s1.3-0.6,2-1c2.8-1.3,5.6-2.8,8.2-4.4c1.3-0.9,2.7-1.6,4.1-2.4
			s2.8-1.5,4.2-2.2s2.7-1.5,4-2.2s2.9-1.6,4.3-2.4s2.7-1.5,4-2.2s2.8-1.6,4.2-2.4c0.7-0.4,1.3-0.7,2-1.1s1.4-0.7,2.1-1.1
			c1.3-0.7,2.6-1.5,4-2.2l1.4-0.8c0.7-0.4,1-1.3,0.6-2c-0.3-0.5-0.8-0.8-1.3-0.8c-0.2,0-0.5,0.1-0.7,0.2L125.8,126.6z"/>
		<path class="st0" d="M121.4,141.9c-1.2,0.5-2.3,1.1-3.4,1.7s-2.4,1.2-3.6,1.8s-2.2,1.2-3.3,1.8s-2.3,1.5-3.4,2.3l0.3-0.2l-0.8,0.5
			l0.1-0.1c-0.7,0.5-1.4,1-2.2,1.5s-1.5,0.9-2.3,1.3c-1.6,0.9-3.2,1.6-4.9,2.4c-0.7,0.4-1,1.3-0.6,2s1.3,1,2,0.6l0,0
			c1.6-0.8,3.3-1.6,4.9-2.4c0.8-0.4,1.5-0.8,2.2-1.3s1.7-1.1,2.5-1.7l-0.3,0.2l0.7-0.4l0,0c1.1-0.7,2.1-1.5,3.2-2.1s2.2-1.2,3.3-1.8
			s2.3-1.1,3.5-1.7s2.2-1.2,3.4-1.7c0.7-0.4,1-1.3,0.6-2c-0.2-0.3-0.5-0.6-0.9-0.7c-0.1,0-0.3-0.1-0.4-0.1
			C121.9,141.8,121.7,141.8,121.4,141.9L121.4,141.9z"/>
		<path class="st0" d="M127.1,150.6c-1.6,1-3.1,2.1-4.8,3c-0.8,0.4-1.5,0.8-2.2,1.3c-0.9,0.6-1.8,1.3-2.7,2
			c-0.6,0.6-0.6,1.5-0.1,2.1c0.3,0.3,0.7,0.5,1.1,0.5c0.4,0,0.8-0.1,1.1-0.4c0.6-0.5,1.2-1,1.9-1.4c1.1-0.7,2.2-1.3,3.3-2
			c1.3-0.8,2.6-1.7,3.9-2.5c0.3-0.2,0.6-0.5,0.7-0.9c0.1-0.4,0.1-0.8-0.1-1.1c-0.3-0.5-0.8-0.8-1.4-0.8
			C127.5,150.3,127.3,150.4,127.1,150.6L127.1,150.6z"/>
		<path class="st0" d="M263.9,25.1c-0.7,0.8-1.4,1.6-2.1,2.5s-1.2,1.6-1.7,2.4c-1,1.5-2.1,3-3.2,4.5c-0.7,0.7-1.4,1.5-2.1,2.1
			c-0.5,0.4-0.9,0.8-1.4,1.2s-0.9,0.9-1.3,1.3c-0.9,0.8-1.8,1.6-2.6,2.5c-0.4,0.4-0.8,0.8-1.1,1.3s-0.8,1-1.2,1.5
			c-0.3,0.4-0.6,0.8-1,1.1c-0.4,0.4-0.9,0.8-1.4,1.2c-0.9,0.8-1.8,1.6-2.7,2.4s-1.7,1.7-2.6,2.5s-1.9,1.5-2.8,2.2
			c-1.5,1-2.9,2.1-4.4,3.1c-1.2,0.9-2.5,1.7-3.8,2.5s-2.6,1.7-3.9,2.4c-0.7,0.4-1.3,0.7-2,1.1l-2,1.1c-0.7,0.4-1.4,0.8-2,1.2
			s-1.4,0.7-2,1.1s-1.4,0.7-2,1l-2.4,1.3c-0.7,0.4-1,1.3-0.6,2c0.4,0.7,1.3,1,2,0.6l0,0c0.8-0.4,1.5-0.8,2.3-1.2s1.4-0.7,2.1-1
			s1.4-0.7,2-1.1s1.4-0.8,2.1-1.2c1.3-0.8,2.6-1.5,4-2.2s2.6-1.6,3.9-2.4s2.5-1.6,3.7-2.4s2.2-1.6,3.4-2.4c1.3-0.9,2.6-1.8,3.9-2.8
			s2.1-1.9,3.1-2.9s2.2-2,3.3-2.9c0.6-0.5,1.1-1.1,1.6-1.6c0.5-0.5,1-1.1,1.4-1.7s0.9-1,1.4-1.5s1.1-1.1,1.7-1.6
			c1.1-1,2.1-2.1,3.3-3.1c1.2-1,2.2-2.1,3.1-3.3c0.9-1.2,1.8-2.5,2.7-3.8c0.4-0.6,0.8-1.1,1.2-1.7s0.9-1.2,1.4-1.8l0.9-1.1
			c0.6-0.6,0.7-1.5,0.1-2.1c0,0,0,0,0,0c-0.3-0.3-0.7-0.5-1.1-0.5l0,0C264.6,24.8,264.2,24.9,263.9,25.1L263.9,25.1z M236.9,53.6
			l-0.2,0.2L236.9,53.6z"/>
		<path class="st0" d="M309.6,49.5c-0.7,0.6-1.4,1.2-2,1.8l-1.9,1.8c-0.6,0.6-1.2,1.2-1.9,1.7c-0.6,0.5-1.3,1-1.9,1.5
			c-1.5,1-3,2.1-4.4,3.2s-3.1,2.1-4.6,3.2s-3,2.3-4.5,3.4l-1.3,0.9c-1.2,0.8-2.5,1.6-3.8,2.4s-2.5,1.5-3.8,2.3s-2.6,1.6-3.8,2.4
			s-2.6,1.7-4,2.5s-2.7,1.5-4,2.2s-2.8,1.4-4.2,2c-2.9,1.3-5.8,2.4-8.6,3.7c-0.9,0.4-1.9,0.9-2.8,1.4s-1.8,1-2.8,1.5
			c-1.9,1-3.8,2.2-5.6,3.3c-0.3,0.2-0.6,0.5-0.7,0.9c-0.1,0.4-0.1,0.8,0.1,1.2c0.4,0.7,1.3,1,2,0.6c1.4-0.9,2.8-1.8,4.3-2.6l4.1-2.2
			c1.4-0.8,2.9-1.4,4.3-2s2.7-1.2,4.1-1.8s2.9-1.2,4.3-1.9s2.9-1.4,4.2-2.2s2.7-1.5,4-2.4c0.7-0.4,1.3-0.9,2-1.3l1.9-1.2
			c1.9-1.2,3.8-2.3,5.7-3.5c1-0.6,1.9-1.1,2.8-1.7s1.9-1.2,2.8-1.9s1.9-1.4,2.8-2.1s1.6-1.3,2.4-1.9c1.2-0.8,2.4-1.6,3.6-2.5
			s2.4-1.7,3.6-2.6c0.9-0.6,1.7-1.2,2.5-1.8c0.8-0.6,1.6-1.3,2.3-2c0.8-0.7,1.5-1.4,2.2-2.1s1.6-1.5,2.5-2.3
			c0.6-0.6,0.6-1.5,0.1-2.1c-0.3-0.3-0.7-0.5-1.1-0.5C310.3,49.1,310,49.3,309.6,49.5L309.6,49.5z M287.4,66.9l-0.2,0.1L287.4,66.9z
			"/>
		<path class="st0" d="M271.9,17.2c-0.8,1-1.7,1.9-2.5,2.8s-1.6,1.9-2.4,2.9c-1.5,1.9-2.9,3.7-4.3,5.5c-0.4,0.7-0.2,1.6,0.5,2.1
			c0.7,0.4,1.6,0.2,2.1-0.5c0,0,0,0,0,0c0.9-1.2,1.8-2.3,2.7-3.5c0.9-1.1,1.7-2.2,2.6-3.3c1.1-1.3,2.3-2.6,3.4-3.9
			c0.3-0.3,0.5-0.7,0.5-1.1c0-0.4-0.1-0.8-0.4-1.1c-0.3-0.3-0.7-0.5-1.1-0.5l0,0C272.6,16.8,272.2,16.9,271.9,17.2L271.9,17.2z"/>
		<path class="st0" d="M269.9,16.8c-1,1.1-1.9,2.4-2.7,3.6c-0.8,1.2-1.5,2.3-2.2,3.5s-1.3,2.4-1.9,3.6c-0.4,0.7-0.6,1.4-0.8,2.2
			c-0.2,0.9-0.3,1.7-0.4,2.6c0,0.8,0.6,1.5,1.5,1.5c0,0,0,0,0,0c0.4,0,0.8-0.1,1.1-0.4c0.3-0.3,0.5-0.7,0.5-1.1
			c0.1-0.5,0.1-1,0.2-1.5c0.1-0.3,0.1-0.6,0.2-1c0.1-0.3,0.2-0.6,0.3-0.9c0.9-1.7,1.8-3.4,2.9-5c1-1.6,2.1-3.2,3.4-4.8L272,19
			c0.3-0.3,0.5-0.7,0.5-1c0-0.8-0.6-1.5-1.5-1.6l0,0C270.6,16.4,270.3,16.5,269.9,16.8L269.9,16.8z"/>
		<path class="st0" d="M255.6,48.1c-1.5,1.2-2.9,2.5-4.2,3.9c-0.7,0.7-1.3,1.3-2,2s-1.3,1-2,1.5s-1.4,0.9-2,1.4l0.1-0.1
			c-2,1.4-4,3-6,4.4l-1.2,0.7c-0.5,0.3-1,0.6-1.4,0.9c-1,0.7-2,1.4-3,2.2h0.1l-0.1,0.1l0,0l0,0l-0.9,0.6c-0.8,0.6-1.6,1.1-2.4,1.7
			s-1.4,1.2-2.1,1.9c-0.5,0.6-0.5,1.6,0.1,2.1c0.5,0.5,1.3,0.5,1.9,0.1c0.9-0.9,1.8-1.7,2.8-2.5L235,68l-0.1,0.1l0.2-0.1l0.1-0.1
			h-0.1c0.9-0.6,1.8-1.2,2.6-1.9c0.7-0.5,1.4-0.9,2.1-1.4c0.9-0.6,1.7-1.2,2.5-1.8c1.4-1.1,2.9-2.2,4.3-3.2l0.6-0.5
			c1-0.7,2-1.4,3-2.1c0.9-0.7,1.7-1.4,2.5-2.2c0.8-0.8,1.6-1.6,2.4-2.4s1.7-1.5,2.5-2.2c0.6-0.6,0.6-1.5,0.1-2.1
			c-0.3-0.3-0.7-0.5-1.1-0.5c-0.4,0-0.7,0.1-1,0.4H255.6z M247.5,59l-0.1,0.1L247.5,59z M246.7,59.6L246.7,59.6L246.7,59.6z
			 M246.6,59.6l-0.2,0.2L246.6,59.6z M232.9,65.8l-0.2,0.2L232.9,65.8z M233.2,69.2l-0.1,0.1L233.2,69.2z M235,67.9L235,67.9l0.1,0
			L235,67.9L235,67.9z M233.8,65.1L233.8,65.1z"/>
		<path class="st0" d="M274,67.3c-0.7,0.4-1.4,0.8-2,1.2s-1.4,0.8-2.1,1.2s-1.4,0.7-2.2,1.1l-2,0.9c-0.7,0.3-1.5,0.6-2.2,0.9l-2.1,1
			c-1.5,0.7-2.9,1.4-4.3,2.1c-0.9,0.4-1.7,0.8-2.6,1.3s-1.7,1-2.6,1.4s-1.7,0.9-2.5,1.3s-1.8,1-2.8,1.4c-0.8,0.3-1.2,1.1-0.9,1.9
			s1.1,1.2,1.9,0.9c0.1,0,0.3-0.1,0.4-0.2c0.8-0.4,1.5-0.8,2.2-1.2s1.3-0.6,2-1c1.3-0.7,2.6-1.4,4-2.1s2.7-1.3,4.1-2s3-1.5,4.5-2.1
			c0.9-0.4,1.9-0.8,2.8-1.2s1.8-0.8,2.6-1.2s1.8-0.9,2.7-1.4s1.8-1,2.6-1.6c0.3-0.2,0.6-0.5,0.7-0.9c0.1-0.4,0.1-0.8-0.1-1.1
			c-0.3-0.5-0.8-0.8-1.4-0.8C274.5,67.1,274.3,67.2,274,67.3L274,67.3z"/>
		<path class="st0" d="M292.8,74.2c-1.4,0.9-2.8,1.8-4.1,2.7s-2.7,1.6-4,2.3s-2.8,1.5-4.1,2.3s-2.6,1.6-3.9,2.4s-2.6,1.7-3.9,2.5
			s-2.7,1.6-4,2.4s-2.7,1.6-4,2.4s-2.7,1.4-4.1,2s-2.6,1.2-3.9,1.7c-1.5,0.6-3,1.1-4.5,1.7s-3.1,1.2-4.6,1.8
			c-0.4,0.2-0.6,0.5-0.7,0.9c-0.1,0.4-0.1,0.8,0.1,1.2c0.2,0.3,0.5,0.6,0.9,0.7c0.4,0.1,0.8,0.1,1.1-0.1c1.9-0.7,3.7-1.4,5.6-2.2
			c1.5-0.5,3-1,4.5-1.7s2.9-1.3,4.3-2c1.4-0.6,2.8-1.3,4.1-2.1c1.4-0.8,2.7-1.6,4.1-2.4s2.6-1.6,3.9-2.4s2.7-1.7,4-2.5
			s2.6-1.6,4-2.4s2.7-1.5,4.1-2.2c2.3-1.3,4.5-2.8,6.7-4.2c0.3-0.2,0.6-0.5,0.7-0.9c0.1-0.4,0.1-0.8-0.1-1.1
			c-0.2-0.4-0.5-0.6-0.9-0.7c-0.2,0-0.3-0.1-0.5-0.1C293.2,74,293,74,292.8,74.2L292.8,74.2z"/>
		<g>
			<path class="st1" d="M204.4,121.1l-8.1-12.5l-7.2,12.5h-6.3l10.5-17.3l-10.8-16.6h6.5l8,12.3l7.2-12.3h6.3l-10.5,17l10.9,16.9
				H204.4z"/>
		</g>
	</g>
</g>
</svg>
