<?xml version="1.0" encoding="utf-8"?>
<!-- Generator: Adobe Illustrator 24.1.3, SVG Export Plug-In . SVG Version: 6.00 Build 0)  -->
<svg version="1.1" id="Layer_1" xmlns="http://www.w3.org/2000/svg" xmlns:xlink="http://www.w3.org/1999/xlink" x="0px" y="0px"
	 viewBox="0 0 324.6 168.2" style="enable-background:new 0 0 324.6 168.2;" xml:space="preserve">
<style type="text/css">
	.st0{fill:#FFFFFF;}
</style>
<g id="Draw_Layer">
	<path class="st0" d="M321.6,3.2C321.6,3.2,321.6,3.2,321.6,3.2c-1.1-0.3-2.3-0.1-3.3,0.4c-1.6,0.7-3.2,1.4-4.8,2.1
		c-1.2,0.5-2.4,1.1-3.6,1.6c-1.9,0.7-3.8,1.4-5.6,2.1c-1.8,0.8-3.6,1.6-5.4,2.6c-3.6,2-7.2,4.1-10.9,6.2c-3.5,1.9-7,3.8-10.5,5.6
		c-1.8,1-3.7,1.9-5.5,2.9c-1.8,1-3.8,2-5.6,3.1c-3.7,2.1-7.3,4.4-11.1,6.4c-3.7,2.1-7.6,3.9-11.5,5.9C240.1,44,236,46,232.1,48
		s-7.6,4.3-11.5,6.3c-3.9,2-7.9,4-11.8,5.9c-4,1.9-7.9,3.9-11.8,5.7c-4,1.8-8,3.6-11.9,5.5c-3.9,2-7.7,4-11.6,5.8
		c-3.9,1.8-7.7,3.7-11.5,5.6c-3.8,1.9-7.8,4.1-11.6,6.3s-8,4.4-12.1,6.5c-3.8,2-7.5,3.8-11.3,5.8c-3.7,2-7.5,4.1-11.2,6.2
		c-3.9,2.2-7.8,4.5-11.8,6.7c-3.8,2.1-7.7,4.1-11.4,6.3c-1.8,1-3.6,2.1-5.3,3.2s-3.4,2.1-5.1,3.2c-1.7,1.1-3.3,2.4-4.8,3.7
		c-1.3,1.2-2.7,2.2-4,3.2c-1,0.7-2,1.5-2.9,2.2l0.9-0.7c-1.2,0.9-2.3,1.8-3.5,2.7c-2.4,1.8-4.8,3.5-7.1,5.4
		c-1.1,0.9-2.2,1.8-3.3,2.8c0.5-1.1,1.1-2.3,1.7-3.4c1.1-2.4,2-4.9,3.1-7.3l0.5-1.2l-0.1,0.3c1.2-2.7,2.6-5.4,4-8
		c1.5-2.7,2.8-5.4,4-8.3c0.8-1.8,1.8-3.5,2.9-5.1c1.2-1.9,2.3-3.7,3.6-5.5c1.3-1.4,2.6-2.8,4-4c0.5-0.5,1-1.1,1.4-1.7
		c0.3-0.4,0.5-0.9,0.7-1.4c0.4-1.1,0.2-2.4-0.4-3.4c-0.4-0.7-0.9-1.2-1.6-1.7c-0.7-0.4-1.5-0.6-2.2-0.7c-0.6,0-1.3,0-1.9,0.1
		c-1.8,0.1-3.6,0.2-5.4,0.3c-2.4,0.3-4.7,0.6-7.1,1.1c-2,0.4-4,0.9-6,1.5c-2,0.6-4.2,1.3-6.4,2c-4.5,1.3-8.9,2.9-13.2,4.7
		c-3.4,1.5-6.8,3.2-10.1,4.9c-2.2,1.1-4.4,2.2-6.6,3.3c-2.2,1.1-4.3,2.4-6.5,3.7l-0.6,0.4l1.5-2c1.1-1.5,2.3-3.1,3.4-4.7l0.4-0.5
		c1.9-2.3,3.9-4.6,5.8-6.9l-0.3,0.3c0.6-0.8,1.3-1.5,1.9-2.3c0.6-0.8,1.3-1.7,2-2.5c1-1.2,2-2.3,3-3.5c1.2-1.4,2.2-2.8,3.3-4.2
		c0.6-0.7,1.2-1.3,1.8-1.9c0.8-0.9,1.7-1.7,2.6-2.5c1.4-1.3,2.7-2.7,4.2-4l-0.4,0.3l1.1-0.9c1.2-0.9,2.4-1.9,3.5-2.9
		c0.9-0.9,1.8-1.7,2.8-2.4l-0.9,0.7c0.9-0.7,1.8-1.4,2.7-2.1c0.5-0.4,1-0.9,1.5-1.3h0.1c1-0.8,2-1.5,3-2.2l-0.9,0.7
		c0.8-0.5,1.5-1,2.3-1.5c0.8-0.6,1.7-1.2,2.6-1.7s1.6-1.1,2.4-1.5c1-0.6,2-1.1,2.9-1.8c1.7-1.2,3.4-2.3,5.1-3.4
		c0.8-0.5,1.5-1,2.2-1.5s1.8-1.1,2.6-1.7c1.7-1.1,3.5-2.2,5.2-3.2c0.9-0.5,1.8-1,2.6-1.6c0.9-0.6,1.7-1.1,2.5-1.7
		c3.4-2.1,6.8-4.3,10.3-6.3c0.8-0.4,1.5-0.9,2.2-1.3l2.6-1.5c1.8-1,3.6-2.1,5.4-3.1c1.8-1,3.4-2,5.1-3c1.5-0.9,3.1-1.8,4.6-2.8
		c0.8-0.5,1.5-0.9,2.3-1.3c1-0.6,1.9-1.2,2.9-1.8c1.5-1,3-1.9,4.6-2.7c0.9-0.4,1.8-0.8,2.7-1.3c0.9-0.4,1.9-1.1,2.8-1.6
		c1-0.5,1.8-0.8,2.6-1.3c0.9-0.5,2-0.9,3-1.4c1-0.5,1.8-1,2.7-1.4c1-0.4,1.9-1,2.9-1.5c0.5-0.2,0.9-0.4,1.4-0.6
		c0.5-0.2,1-0.5,1.5-0.8c0.8-0.5,1.7-0.7,2.5-1.2c1.3-0.8,2.6-1.7,4-2.6c0.9-0.6,1.8-1.2,2.6-1.8c0.2-0.2,0.5-0.3,0.7-0.4
		c-3.2-0.9-6.4-2.3-9.4-4c-0.6,0.4-1.2,0.8-1.9,1.2c-0.6,0.4-1.3,0.7-2,1c-0.7,0.3-1.4,0.8-2.1,1.2c-0.7,0.4-1.7,0.7-2.5,1.1
		s-1.6,0.9-2.5,1.3c-0.9,0.4-1.6,0.8-2.4,1.3c-1,0.5-2,0.9-3,1.4s-1.8,0.9-2.6,1.3c-0.9,0.5-1.9,1.1-2.8,1.6
		c-1.8,0.9-3.6,1.7-5.3,2.7c-0.7,0.4-1.3,0.9-2,1.2c-1,0.6-2,1.1-2.9,1.8c-0.7,0.5-1.5,0.9-2.3,1.3c-0.8,0.5-1.5,1-2.3,1.4
		c-1.7,1-3.3,2-5,2.9c-1.7,0.9-3.4,2-5.1,3c-1.7,1-3.6,2-5.4,3c-1.6,0.9-3.1,1.9-4.7,2.8c-1.8,1-3.5,2.2-5.3,3.3
		c-0.8,0.5-1.7,1-2.5,1.5c-0.9,0.5-1.6,1.1-2.5,1.7c-1.8,1.1-3.6,2.2-5.4,3.3l-2.8,1.8c-1,0.7-2.1,1.3-3.1,2
		c-1.8,1.3-3.7,2.5-5.5,3.7c-1,0.7-2,1.4-3.1,2s-2,1.2-3.1,1.9c-1.1,0.6-2,1.3-3,2c-1,0.7-1.8,1.2-2.6,1.9c-0.6,0.5-1.3,1-1.9,1.4
		c-1.5,1.1-2.9,2.3-4.3,3.4l0.9-0.7c-1.2,0.9-2.4,1.9-3.6,2.9c-0.4,0.4-0.8,0.8-1.2,1.2c-0.4,0.4-1,0.8-1.4,1.2
		c-0.3,0.3-0.8,0.6-1.2,0.9c-0.7,0.5-1.3,1-1.9,1.6c-0.5,0.4-0.9,0.9-1.4,1.3c-0.5,0.4-0.9,0.9-1.4,1.3l-1.7,1.6
		c-2.2,2.2-4.3,4.6-6.1,7.1c-0.8,1-1.7,1.9-2.5,2.9S22.9,94,22,95.2c-1,1.2-2,2.4-3,3.7l0.7-0.9c-2.1,2.5-4.3,5-6.3,7.6
		c-2.2,2.9-4.4,5.9-6.5,8.8c-1.1,1.5-2,3-2.9,4.6c-0.9,1.5-1.7,3.1-2.5,4.8c-0.5,1-1,2-1.3,3.1c-0.4,1.3-0.2,2.6,0.5,3.8l0.7,0.9
		c0.5,0.5,1.1,0.9,1.9,1.1c0.8,0.3,1.7,0.3,2.6,0.1c1.2-0.3,2.3-0.8,3.4-1.4c0.9-0.5,1.7-1,2.6-1.5c1.6-1,3.2-2.1,4.8-3.2
		c1.6-1.1,3.4-2.1,5.1-3.2c3.6-2.2,7.4-4,11.2-5.9c3.7-1.9,7.3-3.7,11.1-5.4c2.1-0.8,4.1-1.6,6.2-2.4c2.5-0.9,5.2-1.6,7.8-2.4
		c2.4-0.8,4.8-1.5,7.2-2.1c1.3-0.3,2.7-0.6,4.1-0.8c-0.5,0.7-0.9,1.3-1.3,2c-0.8,1.3-1.7,2.6-2.5,4c-1,1.8-2,3.6-2.8,5.5
		c-1.1,2.4-2.3,4.8-3.6,7.1c-1.6,2.9-3.1,5.9-4.4,8.9c-0.9,2.1-1.8,4.2-2.6,6.3c-0.7,1.5-1.4,3-2.2,4.4c-0.9,1.8-1.7,3.7-2.4,5.6
		c-0.8,1.9-1.8,3.9-2.7,5.9l-0.9,2c0.1-0.1,0.1-0.3,0.2-0.4l-0.2,0.5l-0.2,0.5l0.2-0.5c-0.7,1.5-1.3,3.1-1.9,4.6
		c-0.4,0.9-0.6,1.8-0.7,2.7c-0.1,1.2,0.4,2.5,1.2,3.3c0.5,0.5,1.2,0.9,1.9,1.2c0.3,0.1,0.7,0.2,1.1,0.2c0.4,0,0.9-0.1,1.3-0.1l0,0.1
		c1.1-0.3,2.1-1,2.9-1.8c0.5-0.5,0.9-1,1.4-1.5c1-1.1,2.1-2.2,3.1-3.4c1.1-1.2,2.3-2.4,3.5-3.5c1.3-1.2,2.6-2.5,3.9-3.7
		s2.6-2.2,3.9-3.2c1.2-1.1,2.2-1.9,3.4-2.8c2.4-1.8,4.8-3.5,7.1-5.3l1.2-0.9c1.7-1.2,3.3-2.5,4.9-3.7c1.2-0.9,2.4-1.9,3.6-2.9
		c1.6-1.1,3.2-2.1,4.8-3.1c1.6-1,3.3-2.2,5-3.2c3.8-2.2,7.7-4.2,11.5-6.3c2-1.1,4-2.2,5.9-3.3c1.9-1.1,4-2.3,6-3.4
		c3.8-2.1,7.6-4.3,11.5-6.4c1.7-0.9,3.5-1.9,5.2-2.8c1.7-0.9,3.7-1.9,5.5-2.8c3.9-2,7.8-4.1,11.7-6.3c4.1-2.3,8.3-4.6,12.5-6.8
		c1.8-0.9,3.6-1.8,5.4-2.7c1.8-0.9,3.9-1.9,5.8-2.8c3.9-1.9,7.7-3.9,11.6-5.8c3.9-2,7.8-3.7,11.7-5.5s8.1-3.9,12.1-5.8
		c4-2,7.8-3.7,11.7-5.7c3.8-2,7.7-4.2,11.5-6.3c3.9-2.1,7.8-4,11.7-6s7.9-3.9,11.7-5.9c3.9-2.1,7.4-4.3,11.1-6.4
		c6.5-3.8,13.3-7.1,20-10.7c3.2-1.7,6.3-3.5,9.4-5.3c3.2-1.9,6.6-3.6,10-5.1c2.2-0.8,4.4-1.6,6.5-2.5c2.4-1.1,4.9-2.2,7.3-3.2
		c1-0.5,1.7-1.4,2-2.5C325.2,6.2,323.9,3.9,321.6,3.2z"/>
	<path class="st0" d="M14,104.8l-0.4,0.5L14,104.8z"/>
	<path class="st0" d="M13.6,105.3L13.6,105.3L13.6,105.3z"/>
	<polygon class="st0" points="13.4,105.6 13.5,105.4 13.3,105.6 13.3,105.6 	"/>
	<path class="st0" d="M221.4,42.5c0.7-0.1,1.4-0.3,2-0.6c0.8-0.3,1.5-0.6,2.3-1c1.4-0.7,2.8-1.4,4.1-2.2s2.8-1.7,4.1-2.5
		s2.8-1.6,4.2-2.4c2.8-1.5,5.6-3,8.5-4.4c1.5-0.7,2.9-1.4,4.4-2.2s2.8-1.5,4.1-2.2s2.9-1.6,4.4-2.4s2.7-1.4,4-2.1
		c2.9-1.5,5.8-2.8,8.8-4c0.8-0.4,1.7-0.7,2.5-1.1s1.7-0.9,2.6-1.4s1.7-0.8,2.5-1.2s1.9-0.8,2.8-1.3c0.7-0.4,1-1.3,0.6-2
		c-0.4-0.7-1.3-1-2-0.6c-1.5,0.7-3,1.4-4.5,2.1c-0.7,0.3-1.3,0.7-2,1s-1.4,0.7-2.1,1c-2.9,1.3-5.8,2.5-8.6,3.9
		c-1.5,0.7-2.9,1.5-4.4,2.3c-0.6,0.4-1.3,0.7-2,1s-1.4,0.8-2.1,1.1c-1.4,0.8-2.9,1.6-4.3,2.4s-2.8,1.5-4.2,2.2s-2.9,1.4-4.4,2.1
		s-2.7,1.4-4.1,2.1s-2.9,1.6-4.3,2.4s-2.8,1.7-4.2,2.5s-2.6,1.5-3.9,2.2c-1.2,0.7-2.4,1.3-3.6,1.9c-0.6,0.3-1.3,0.4-1.9,0.5
		c-0.4,0.1-0.7,0.3-0.9,0.7c-0.2,0.3-0.3,0.7-0.2,1.1c0.1,0.4,0.3,0.7,0.7,0.9c0.2,0.1,0.5,0.2,0.8,0.2L221.4,42.5L221.4,42.5z"/>
	<path class="st0" d="M198.8,41.7c1.4-0.8,2.7-1.5,4.1-2.3c0.7-0.4,1.4-0.8,2.1-1.1s1.4-0.7,2.1-1.1s1.4-0.7,2.1-1.1s1.4-0.8,2-1.2
		l2.1-1.2l2.1-1.2c1.4-0.8,2.7-1.5,4.1-2.3s2.7-1.6,4.1-2.3s2.8-1.5,4.2-2.2s2.8-1.6,4.1-2.4s2.6-1.6,3.9-2.4s2.7-1.4,4.1-2.1
		s2.8-1.3,4.2-2s2.7-1.4,4.1-2l1.6-0.8c0.7-0.4,1-1.3,0.6-2c-0.4-0.7-1.3-1-2-0.6c-0.8,0.4-1.6,0.8-2.4,1.2c-0.7,0.3-1.3,0.7-2,1
		l-2,0.9c-0.7,0.3-1.3,0.6-2,1c-2.8,1.3-5.6,2.7-8.2,4.3c-1.4,0.9-2.7,1.6-4.1,2.5s-2.8,1.5-4.2,2.2s-2.7,1.5-4,2.2
		s-2.9,1.6-4.3,2.4s-2.7,1.5-4,2.2c-1.3,0.8-2.8,1.6-4.2,2.4l-2,1.1c-0.7,0.4-1.4,0.7-2.1,1.1c-1.3,0.7-2.6,1.5-3.9,2.2l-1.4,0.8
		c-0.7,0.4-1,1.3-0.6,2c0.3,0.5,0.8,0.8,1.4,0.8C198.4,41.8,198.7,41.8,198.8,41.7L198.8,41.7z"/>
	<path class="st0" d="M203.2,26.3c1.2-0.5,2.3-1.1,3.4-1.7s2.4-1.2,3.6-1.8s2.2-1.2,3.3-1.8s2.3-1.5,3.4-2.3l-0.3,0.2l0.8-0.5
		l-0.1,0.1c0.7-0.5,1.4-1,2.2-1.5s1.5-0.9,2.3-1.3c1.6-0.9,3.2-1.6,4.9-2.4c0.7-0.4,1-1.3,0.6-2s-1.3-1-2-0.6
		c-1.6,0.8-3.3,1.6-4.9,2.4c-0.8,0.4-1.5,0.8-2.3,1.3s-1.7,1.1-2.5,1.7l0.3-0.2l-0.6,0.4l0,0c-1.1,0.7-2.1,1.5-3.2,2.1
		s-2.2,1.2-3.3,1.8s-2.3,1.1-3.4,1.7s-2.2,1.2-3.4,1.7c-0.7,0.4-1,1.3-0.6,2.1c0.2,0.3,0.5,0.6,0.9,0.7c0.1,0,0.3,0.1,0.4,0.1
		C202.7,26.5,203,26.4,203.2,26.3L203.2,26.3z"/>
	<path class="st0" d="M60.7,143.1c0.7-0.8,1.4-1.7,2.1-2.5s1.2-1.6,1.7-2.4c1-1.5,2-3,3.2-4.5c0.7-0.8,1.4-1.5,2.1-2.1
		c0.5-0.4,0.9-0.8,1.4-1.2s0.9-0.9,1.3-1.3c0.9-0.8,1.8-1.6,2.6-2.5c0.4-0.4,0.8-0.8,1.1-1.3s0.8-1,1.2-1.5c0.3-0.4,0.6-0.8,1-1.1
		c0.4-0.4,0.9-0.8,1.3-1.2c0.9-0.8,1.8-1.6,2.7-2.4s1.7-1.7,2.6-2.5c0.9-0.8,1.9-1.5,2.9-2.2c1.5-1,2.9-2.1,4.4-3.1
		c1.2-0.9,2.5-1.7,3.8-2.5s2.6-1.7,3.9-2.4c0.7-0.4,1.3-0.7,2-1.1l2-1.1c0.7-0.4,1.3-0.8,2-1.2s1.4-0.7,2.1-1.1s1.3-0.7,2-1
		c0.8-0.4,1.6-0.8,2.4-1.3c0.7-0.4,1-1.3,0.6-2c-0.4-0.7-1.3-1-2-0.6l-2.3,1.2c-0.7,0.4-1.4,0.7-2.1,1s-1.4,0.7-2,1.1
		s-1.4,0.8-2,1.2c-1.3,0.8-2.7,1.5-4,2.2s-2.6,1.6-3.9,2.4s-2.5,1.6-3.7,2.4s-2.2,1.6-3.3,2.4c-1.3,0.9-2.6,1.8-3.9,2.8
		s-2.1,1.9-3.1,2.9s-2.2,2-3.3,2.9c-0.6,0.5-1.2,1-1.7,1.6c-0.5,0.6-1,1.1-1.4,1.7s-0.9,1-1.3,1.5s-1.1,1.1-1.7,1.6
		c-1.1,1-2.2,2.1-3.3,3.1c-1.2,1-2.2,2.1-3.2,3.3c-0.9,1.2-1.8,2.6-2.7,3.8c-0.4,0.6-0.8,1.1-1.2,1.7s-0.9,1.2-1.4,1.8l-0.9,1.1
		c-0.3,0.3-0.5,0.7-0.5,1.1c0,0.4,0.1,0.8,0.3,1.1c0.3,0.3,0.7,0.5,1.1,0.5l0,0C60,143.5,60.4,143.4,60.7,143.1L60.7,143.1z
		 M87.7,114.7l0.2-0.2L87.7,114.7z"/>
	<path class="st0" d="M15,118.8c0.7-0.6,1.4-1.2,2-1.8l1.9-1.8c0.6-0.6,1.2-1.2,1.8-1.7c0.6-0.5,1.2-1,1.9-1.5c1.5-1,3-2.1,4.4-3.2
		s3.1-2.1,4.6-3.2s3-2.3,4.5-3.4l1.3-0.9c1.2-0.8,2.5-1.6,3.8-2.4s2.5-1.5,3.8-2.3s2.6-1.6,3.8-2.4s2.6-1.7,4-2.5s2.7-1.5,4-2.2
		s2.8-1.4,4.2-2c2.9-1.3,5.8-2.4,8.7-3.7c1-0.4,1.9-0.9,2.8-1.4s1.8-1,2.8-1.5c1.9-1,3.8-2.2,5.6-3.3c0.3-0.2,0.6-0.5,0.7-0.9
		c0.1-0.4,0.1-0.8-0.1-1.1c-0.4-0.7-1.3-1-2-0.6c-1.4,0.9-2.8,1.8-4.3,2.6s-2.7,1.5-4.1,2.3s-2.9,1.4-4.3,2s-2.7,1.2-4.1,1.8
		s-2.9,1.2-4.3,1.9s-2.8,1.4-4.2,2.2S51.4,89,50,89.8c-0.7,0.4-1.3,0.9-2,1.3l-1.9,1.2c-1.9,1.2-3.8,2.3-5.7,3.5l-2.8,1.7
		c-1,0.6-1.9,1.2-2.8,1.9s-1.9,1.4-2.8,2.1s-1.6,1.3-2.4,1.9l-3.6,2.4c-1.2,0.8-2.4,1.7-3.6,2.6c-0.9,0.6-1.7,1.2-2.5,1.8
		c-0.8,0.6-1.6,1.3-2.3,2c-0.8,0.7-1.5,1.4-2.2,2.1s-1.6,1.5-2.5,2.3c-0.6,0.6-0.6,1.5-0.1,2.1c0.3,0.3,0.7,0.5,1.1,0.5
		C14.3,119.2,14.7,119,15,118.8L15,118.8z M37.2,101.3c0.1,0,0.1-0.1,0.2-0.1L37.2,101.3z"/>
	<path class="st0" d="M69.1,120.2c1.5-1.2,2.9-2.5,4.2-3.9c0.7-0.7,1.3-1.3,2-2s1.3-1,2-1.6s1.4-0.9,2-1.4l-0.1,0.1c2-1.4,4-3,6-4.4
		c0.3-0.3,0.7-0.5,1.1-0.8s1-0.6,1.4-0.9c1-0.7,2-1.4,3.1-2.2h-0.1l0.1-0.1l0,0l0,0l0.9-0.6c0.8-0.6,1.6-1.1,2.3-1.7s1.4-1.2,2-1.9
		c0.5-0.6,0.5-1.6-0.1-2.1c-0.5-0.5-1.3-0.5-1.9-0.1c-0.9,0.9-1.8,1.7-2.8,2.5l-1.6,1.2l0.1-0.1l-0.2,0.1l-0.2,0.1h0.1
		c-0.9,0.6-1.8,1.2-2.6,1.9l-2.1,1.4c-0.8,0.6-1.7,1.2-2.5,1.8c-1.4,1.1-2.9,2.2-4.3,3.2l-0.7,0.5c-1,0.7-2,1.4-2.9,2.1
		c-0.9,0.7-1.7,1.4-2.5,2.2c-0.8,0.8-1.6,1.6-2.4,2.4s-1.5,1.6-2.4,2.3c-0.6,0.6-0.6,1.5-0.1,2.1c0.3,0.3,0.7,0.5,1.1,0.5
		C68.4,120.6,68.7,120.4,69.1,120.2L69.1,120.2z M77.1,109.3l0.2-0.1L77.1,109.3z M77.9,108.7L77.9,108.7L77.9,108.7z M78,108.7
		l0.2-0.2L78,108.7z M91.7,102.5l0.2-0.1L91.7,102.5z M91.4,99.1l0.2-0.1L91.4,99.1z M89.6,100.3L89.6,100.3l-0.1,0.1L89.6,100.3
		L89.6,100.3z M90.8,103.1L90.8,103.1L90.8,103.1z"/>
	<path class="st0" d="M50.6,100.9c0.7-0.4,1.4-0.8,2-1.2s1.4-0.8,2.1-1.2s1.4-0.7,2.2-1l2-0.9l2.2-0.9l2.1-1
		c1.5-0.7,2.9-1.4,4.3-2.1c0.9-0.4,1.7-0.8,2.6-1.3s1.7-1,2.6-1.4s1.7-0.9,2.5-1.3s1.8-0.9,2.8-1.4c0.7-0.4,1-1.3,0.6-2
		c-0.4-0.7-1.3-1-2-0.6l0,0c-0.7,0.4-1.5,0.8-2.2,1.2s-1.3,0.6-2,1c-1.3,0.7-2.6,1.5-4,2.2s-2.7,1.3-4.1,2s-3,1.5-4.5,2.1L57,94.1
		c-0.9,0.4-1.8,0.8-2.6,1.2s-1.8,0.9-2.7,1.4s-1.8,1-2.6,1.6c-0.3,0.2-0.6,0.5-0.7,0.9c-0.1,0.4-0.1,0.8,0.1,1.1
		c0.3,0.5,0.8,0.8,1.4,0.8c0.2,0,0.5-0.1,0.7-0.2L50.6,100.9z"/>
	<path class="st0" d="M31.9,94.1c1.4-0.9,2.7-1.8,4.1-2.7s2.7-1.6,4-2.3s2.8-1.5,4.1-2.3s2.6-1.6,3.9-2.4s2.6-1.7,3.9-2.5
		s2.7-1.6,4-2.4s2.7-1.6,4-2.3s2.7-1.4,4.1-2c1.4-0.6,2.6-1.2,3.9-1.7c1.5-0.6,3-1.1,4.5-1.7s3.1-1.2,4.6-1.8
		c0.4-0.2,0.6-0.5,0.7-0.9c0.1-0.4,0.1-0.8-0.1-1.2c-0.2-0.4-0.5-0.6-0.9-0.7c-0.4-0.1-0.8-0.1-1.1,0.1c-1.9,0.7-3.8,1.4-5.6,2.2
		c-1.5,0.5-3,1-4.5,1.7s-2.9,1.3-4.3,2c-1.4,0.6-2.8,1.4-4.2,2.2c-1.3,0.8-2.7,1.6-4.1,2.4s-2.6,1.6-3.9,2.4s-2.7,1.7-4,2.5
		s-2.6,1.6-4,2.4s-2.7,1.5-4.1,2.2c-2.3,1.3-4.5,2.8-6.7,4.2c-0.3,0.2-0.6,0.5-0.7,0.9c-0.1,0.4-0.1,0.8,0.1,1.1
		c0.2,0.4,0.5,0.6,0.9,0.7c0.2,0,0.3,0.1,0.5,0.1C31.4,94.3,31.6,94.3,31.9,94.1L31.9,94.1z"/>
	<g>
		<path class="st0" d="M156.7,73.1l-8.1-12.5l-7.2,12.5H135l10.5-17.3l-10.8-16.6h6.5l8,12.3l7.2-12.3h6.3l-10.5,17l10.9,16.9H156.7
			z"/>
	</g>
</g>
</svg>
