<?xml version="1.0" encoding="utf-8"?>
<!-- Generator: Adobe Illustrator 24.2.1, SVG Export Plug-In . SVG Version: 6.00 Build 0)  -->
<svg version="1.1" id="Layer_1" xmlns="http://www.w3.org/2000/svg" xmlns:xlink="http://www.w3.org/1999/xlink" x="0px" y="0px"
	 viewBox="0 0 324.6 168.2" style="enable-background:new 0 0 324.6 168.2;" xml:space="preserve">
<style type="text/css">
	.st0{fill:#FEFEFE;}
	.st1{fill:#FFFFFF;}
</style>
<g id="Layer_2_1_">
	<g id="Draw_Layer">
		<path class="st0" d="M297.4,33.4c-0.2-0.3-0.4-0.5-0.7-0.8c-0.5-0.4-1.1-0.7-1.9-0.9c-0.8-0.2-1.6-0.1-2.3,0.1
			c-1.1,0.4-2.1,0.9-3,1.6c-0.8,0.5-1.5,1.1-2.3,1.6c-1.4,1.1-2.8,2.2-4.2,3.4c-1.4,1.2-3,2.2-4.5,3.4c-3.1,2.3-6.5,4.3-9.8,6.4
			c-3.3,2.1-6.4,4.1-9.8,6c-1.9,0.9-3.7,1.8-5.5,2.8c-2.2,1.1-4.7,1.9-6.9,2.9c-2.1,0.9-4.3,1.8-6.6,2.6c-1.2,0.4-2.4,0.8-3.7,1.1
			c0.4-0.7,0.7-1.3,1-2c0.6-1.3,1.3-2.6,2-3.9c0.8-1.8,1.5-3.5,2.1-5.3c0.8-2.3,1.7-4.6,2.7-6.9c1.2-2.8,2.4-5.7,3.3-8.6
			c0.6-2,1.3-4,1.9-6c0.5-1.4,1-2.9,1.5-4.3c0.7-1.7,1.2-3.6,1.7-5.3c0.6-1.8,1.3-3.9,2-5.7l0.7-1.9l-0.2,0.4l0.1-0.5l0.2-0.4
			c0.4-1.3,0.9-2.7,1.2-4c0.3-0.9,0.4-1.7,0.5-2.6c0-1.1-0.6-2.3-1.4-2.9c-0.5-0.5-1.2-0.8-1.9-0.9c-0.3-0.2-0.7-0.2-1-0.2
			c-0.4,0-0.8,0.2-1.2,0.2c-1,0.4-1.9,1.1-2.4,2c-0.4,0.5-0.7,1-1.1,1.5c-0.8,1.1-1.8,2.2-2.6,3.4c-0.9,1.2-1.9,2.4-2.9,3.5
			c-1.1,1.2-2.2,2.5-3.3,3.8s-2.2,2.2-3.3,3.3c-0.9,1-1.9,1.9-2.9,2.9c-2.1,1.9-4.1,3.7-6.1,5.5l-1,0.9c-1.4,1.2-2.8,2.6-4.2,3.8
			c-1,0.9-2.1,2-3.1,3c-1.4,1.2-2.8,2.2-4.2,3.3c-1.4,1.1-2.9,2.3-4.3,3.4c-3.3,2.4-6.8,4.6-10.1,6.8c-1.8,1.2-3.4,2.4-5.2,3.6
			s-3.5,2.5-5.3,3.7c-3.3,2.3-6.7,4.6-10.1,6.9l-4.6,3c-1.6,1.1-3.3,2.1-4.8,3.1c-3.4,2.2-6.9,4.5-10.3,6.8c-3.6,2.5-7.3,5-11,7.4
			c-1.6,1-3.2,2-4.8,3c-1.6,1-3.3,2.1-5.1,3.1c-3.4,2.1-6.8,4.3-10.2,6.4c-3.4,2.2-6.9,4.1-10.3,6.1s-7.2,4.3-10.8,6.5
			c-3.6,2.2-6.9,4.1-10.3,6.3c-3.4,2.2-6.8,4.6-10.1,6.8c-3.4,2.3-6.9,4.4-10.3,6.6c-3.4,2.2-6.9,4.3-10.3,6.5
			c-3.3,2.3-6.5,4.6-9.7,6.9c-5.7,4.1-11.6,7.7-17.5,11.6c-2.8,1.9-5.5,3.8-8.2,5.7c-2.8,2-5.8,3.9-8.8,5.7c-2,0.9-3.9,1.9-5.8,2.9
			c0,0,0,0,0,0h16c2.9-2,5.8-4.1,8.8-6.2c3.1-2.1,6.1-4.1,9.2-6.1c1.6-1.1,3.3-2.1,4.8-3.2c1.6-1.1,3.2-2.2,4.9-3.4
			c3.2-2.3,6.4-4.7,9.7-6.9c3.2-2.2,6.8-4.4,10.1-6.5c3.3-2.1,6.9-4.2,10.3-6.5c3.4-2.3,6.7-4.6,10.1-6.8c3.4-2.2,7-4.4,10.5-6.5
			c3.5-2.1,6.9-4.3,10.4-6.3c3.5-2,7.1-4,10.5-6.1c3.4-2.2,6.8-4.4,10.2-6.5c3.4-2,6.8-4.1,10.1-6.2c3.3-2.1,6.9-4.5,10.2-6.8
			c3.4-2.3,7-4.8,10.6-7.1c3.3-2.2,6.6-4.2,9.9-6.4c3.2-2.2,6.6-4.4,9.8-6.7c3.4-2.4,6.8-4.8,10.3-7.2c3.3-2.3,6.7-4.5,10-6.8
			c1.6-1.1,3.1-2.3,4.6-3.4c1.5-1.2,3-2.2,4.4-3.4c1.5-1.2,2.8-2.5,4.1-3.8c1.1-1.1,2.3-2.2,3.4-3.2c0.6-0.5,1.2-1.1,1.8-1.7
			c1-0.9,1.9-1.8,2.9-2.7c2.1-1.9,4.1-3.7,6.1-5.6c0.9-0.9,1.9-1.9,2.8-2.9c-0.5,1.1-0.8,2.2-1.3,3.3c-0.8,2.3-1.4,4.6-2.1,7l-0.3,1
			c-0.9,2.6-1.9,5.2-3,7.7c-1.2,2.6-2.1,5.2-3,8c-0.6,1.7-1.4,3.4-2.2,5c-0.9,1.9-1.8,3.6-2.8,5.4c-1,1.4-2.1,2.8-3.2,4.1
			c-0.5,0.5-0.9,1.1-1.2,1.7c-0.2,0.4-0.4,0.9-0.5,1.4c-0.3,1.1,0,2.2,0.7,3.1c0.4,0.6,0.9,1,1.6,1.3c0.7,0.3,1.4,0.4,2.1,0.5
			c0.6-0.1,1.2-0.1,1.7-0.3c1.7-0.2,3.3-0.5,4.9-0.7c2.2-0.5,4.4-1,6.5-1.6c1.8-0.5,3.6-1.2,5.4-1.9c1.9-0.8,3.8-1.6,5.7-2.4
			c4-1.6,8-3.5,11.8-5.6c3-1.7,6-3.6,8.9-5.4c1.9-1.2,3.9-2.4,5.8-3.6c1.9-1.2,3.8-2.6,5.7-4l0.5-0.4l-1.2,2
			c-0.9,1.5-1.9,3.1-2.7,4.6c-0.1,0.2-0.3,0.3-0.3,0.5c-1.6,2.3-3.2,4.6-4.7,6.9l0.2-0.4c-0.5,0.8-1.1,1.5-1.6,2.3
			c-0.5,0.8-1.1,1.7-1.6,2.5c-0.8,1.2-1.6,2.4-2.5,3.5c-1,1.3-1.8,2.8-2.7,4.2c-0.5,0.7-1,1.3-1.5,1.9c-0.7,0.9-1.4,1.7-2.2,2.5
			c-1.2,1.3-2.3,2.7-3.5,4l0.3-0.3c-0.3,0.3-0.7,0.6-0.9,0.9c-1,0.9-2.1,2-3,3c-0.8,0.9-1.5,1.7-2.4,2.5l0.8-0.7
			c-0.8,0.7-1.5,1.5-2.3,2.2c-0.4,0.4-0.8,0.9-1.3,1.3l-0.1,0l-1.9,1.7c-0.6,0.5-1.3,1.1-1.9,1.6c-0.7,0.5-1.5,1.3-2.3,1.8
			c-0.8,0.5-1.4,1.2-2.1,1.6c-0.9,0.6-1.8,1.2-2.5,1.9c-1.5,1.3-2.9,2.4-4.4,3.6c-0.7,0.5-1.3,1.1-1.9,1.6c-0.6,0.5-1.6,1.2-2.3,1.8
			c-1.5,1.2-3,2.3-4.5,3.4c-0.8,0.5-1.6,1.1-2.3,1.7c-0.8,0.6-1.5,1.2-2.2,1.8c-3,2.2-5.9,4.6-9,6.7c-0.7,0.4-1.3,1-1.9,1.4
			l-2.3,1.5c-1.6,1.1-3.1,2.3-4.7,3.4c-1.6,1.1-3,2.1-4.5,3.2c-1.3,1-2.7,1.9-4,3c-0.6,0.5-1.3,1-2,1.4c-0.9,0.6-1.7,1.3-2.5,1.9
			c-1.3,1.1-2.6,2-4,2.9c-0.8,0.4-1.6,0.9-2.3,1.4c-0.7,0.5-1.7,1.2-2.4,1.7c-0.9,0.5-1.6,1-2.3,1.4c-0.8,0.5-1.8,1-2.7,1.6
			s-1.6,1.1-2.4,1.5c-0.8,0.4-1.7,1.1-2.6,1.6l-1.1,0.7c-0.4,0.2-1,0.6-1.4,0.9c-0.7,0.5-1.5,0.8-2.2,1.3c-1.1,0.9-2.3,1.8-3.4,2.7
			c-0.8,0.6-1.6,1.3-2.3,2c-0.3,0.2-0.6,0.4-0.9,0.6c-0.3,0.2-0.7,0.6-0.9,0.9c-0.3,0.2-0.6,0.4-1,0.7c-0.7,0.3-1.5,0.6-2.3,0.9
			c-0.6,0.2-1.2,0.7-1.8,1c0.7,0,1.6,0,2.3,0.1c3.5-0.3,6.9,0.1,10.4,1.1c0.3-0.3,0.8-0.6,1.1-0.9c1-0.7,1.9-1.5,2.9-2.2
			c0.5-0.4,1.1-0.8,1.8-1.1c0.6-0.3,1.2-0.9,1.8-1.3c0.6-0.4,1.5-0.8,2.2-1.2c0.7-0.4,1.4-1,2.2-1.4c0.7-0.4,1.4-0.9,2-1.4
			c0.9-0.5,1.8-1,2.7-1.6s1.6-1,2.3-1.4c0.7-0.4,1.7-1.2,2.4-1.7c1.6-1,3.2-1.9,4.7-3c0.6-0.4,1.1-0.9,1.7-1.3
			c0.9-0.6,1.7-1.2,2.5-1.9c0.6-0.5,1.3-1,2-1.4c0.7-0.4,1.3-1.1,2-1.5c1.5-1.1,2.9-2.1,4.4-3.1c1.5-1,3-2.1,4.5-3.2
			c1.5-1.1,3.2-2.2,4.7-3.2c1.4-1,2.7-2,4.1-3c1.6-1.1,3-2.3,4.6-3.5c0.7-0.5,1.5-1.1,2.2-1.6c0.7-0.5,1.5-1.2,2.2-1.8
			c1.6-1.2,3.1-2.3,4.7-3.5l2.4-1.9c0.9-0.7,1.8-1.4,2.7-2.1c1.6-1.4,3.2-2.6,4.8-3.9c0.9-0.7,1.7-1.5,2.7-2.1c1-0.7,1.8-1.3,2.7-2
			c0.9-0.6,1.7-1.4,2.6-2.1c0.9-0.7,1.6-1.3,2.2-2c0.6-0.5,1.2-1.1,1.8-1.7c1.2-1,2.3-2.3,3.5-3.4l-0.8,0.7c1-0.9,2.1-2,3.1-3
			c0.3-0.4,0.7-0.8,1.1-1.2s0.8-0.8,1.2-1.2l1.1-1c0.5-0.5,1-1,1.5-1.5c0.4-0.4,0.8-0.9,1.2-1.3c0.4-0.4,0.8-0.9,1.2-1.3l1.4-1.6
			c1.9-2.2,3.6-4.6,5-7.2c0.7-1,1.4-1.9,2.1-2.9c0.7-1,1.5-2.2,2.1-3.3c0.7-1.1,1.6-2.4,2.5-3.7l-0.6,0.9c1.7-2.5,3.5-5,5.2-7.6
			c1.8-2.9,3.6-5.8,5.2-8.7c0.9-1.5,1.6-2.9,2.3-4.5c0.7-1.6,1.3-3,1.9-4.7c0.4-1,0.8-1.9,0.9-3C298.4,35.6,298.1,34.5,297.4,33.4z"
			/>
		<path class="st0" d="M287.2,58.5l0.3-0.5L287.2,58.5z"/>
		<path class="st0" d="M287.6,58L287.6,58L287.6,58z"/>
		<polygon class="st0" points="287.7,57.7 287.6,57.9 287.7,57.7 		"/>
		<path class="st0" d="M61.9,162.6c0.5-0.3,0.9-0.6,1.4-0.9c1.3-0.8,2.6-1.6,3.9-2.5c0.6-0.4,1.1-0.8,1.8-1.1
			c0.6-0.3,1.2-0.9,1.8-1.2c1.2-0.9,2.5-1.7,3.8-2.6c1.2-0.9,2.5-1.6,3.7-2.4c1.2-0.8,2.6-1.5,3.9-2.3c1.3-0.8,2.4-1.5,3.6-2.3
			c1.2-0.8,2.5-1.7,3.8-2.6c1.2-0.9,2.4-1.8,3.7-2.7c1.2-0.9,2.3-1.6,3.4-2.4c1-0.8,2.1-1.4,3.3-2c0.5-0.3,1.2-0.5,1.8-0.6
			c0.4-0.1,0.6-0.3,0.8-0.7c0.2-0.3,0.2-0.8,0.1-1.1c-0.1-0.4-0.3-0.6-0.7-0.8c-0.2-0.1-0.5-0.1-0.8-0.1l-0.2-0.1
			c-0.6,0.2-1.3,0.4-1.8,0.7c-0.7,0.3-1.3,0.7-2,1.1c-1.2,0.8-2.5,1.5-3.7,2.4c-1.2,0.9-2.4,1.7-3.7,2.6c-1.2,0.9-2.4,1.7-3.7,2.6
			c-2.5,1.6-4.9,3.3-7.5,4.8c-1.3,0.8-2.6,1.5-3.9,2.4c-1.3,0.9-2.5,1.6-3.6,2.4c-1.1,0.8-2.5,1.7-3.9,2.6l-3.5,2.3
			c-2.4,1.6-5,3-7.6,4.4C58,162.6,60,162.6,61.9,162.6z"/>
		<path class="st0" d="M82.6,162.9c0.6-0.3,1.1-0.7,1.7-1.1c0.6-0.4,1.1-0.7,1.8-1.1c2.5-1.4,4.9-3.1,7.2-4.8
			c1.1-0.9,2.4-1.7,3.6-2.6c1.2-0.9,2.5-1.6,3.7-2.4c1.2-0.8,2.4-1.6,3.5-2.4c1.1-0.8,2.5-1.7,3.8-2.6s2.4-1.6,3.5-2.4
			c1.1-0.8,2.4-1.7,3.7-2.6c0.6-0.4,1.1-0.8,1.8-1.2c0.6-0.4,1.2-0.8,1.8-1.2c1.1-0.8,2.3-1.6,3.5-2.4l1.2-0.9
			c0.6-0.4,0.8-1.3,0.4-1.9c-0.3-0.4-0.8-0.7-1.3-0.6c-0.2,0-0.5,0.1-0.6,0.2l0-0.1c-1.1,0.9-2.4,1.6-3.6,2.5
			c-0.6,0.4-1.2,0.9-1.8,1.2c-0.6,0.3-1.2,0.8-1.8,1.2c-0.6,0.4-1.2,0.8-1.8,1.2c-0.6,0.4-1.1,0.9-1.7,1.3l-1.8,1.3l-1.8,1.2
			c-1.2,0.9-2.4,1.6-3.6,2.5c-1.2,0.9-2.4,1.7-3.6,2.5c-1.2,0.8-2.5,1.6-3.7,2.4c-1.2,0.8-2.4,1.7-3.6,2.6c-1.1,0.9-2.3,1.7-3.4,2.6
			c-1.1,0.9-2.4,1.5-3.5,2.3c-1.1,0.8-2.5,1.4-3.7,2.2c-1.2,0.8-2.4,1.5-3.6,2.3l-1,0.6C79.3,162.8,80.9,162.9,82.6,162.9z"/>
		<path class="st0" d="M101.1,163.2c1.1-0.7,2.2-1.3,3.2-2c0.7-0.4,1.3-0.9,1.9-1.4c0.6-0.5,1.3-1.1,2-1.6l0.5-0.4
			c1-0.7,1.8-1.6,2.8-2.2s1.9-1.3,2.9-2c1-0.7,2-1.2,3.1-1.9c1.1-0.7,1.9-1.3,3-1.9c0.6-0.4,0.8-1.3,0.4-1.9
			c-0.2-0.3-0.5-0.5-0.9-0.6c-0.1,0-0.3-0.1-0.4-0.1s-0.3,0-0.5,0.1c-1.1,0.6-2,1.2-3,1.9c-1,0.7-2.1,1.3-3.2,2
			c-1.1,0.7-1.9,1.3-2.9,2c-0.9,0.6-1.9,1.5-2.8,2.3l-0.5,0.4l0.1-0.1c-0.6,0.5-1.2,1-1.9,1.6c-0.7,0.5-1.3,1-2,1.4
			c-1.4,1-2.8,1.8-4.3,2.6c-0.5,0.4-0.7,1-0.5,1.5C99,163.2,100.1,163.2,101.1,163.2z"/>
		<path class="st0" d="M119,163.4c0.5-0.5,0.9-0.9,1.5-1.3c1-0.7,1.9-1.4,2.9-2.1c1.1-0.9,2.3-1.8,3.4-2.7c0.3-0.2,0.5-0.5,0.6-0.9
			s0-0.7-0.2-1c-0.3-0.4-0.8-0.7-1.4-0.6c-0.3-0.1-0.5,0-0.6,0.2c-1.4,1.1-2.7,2.2-4.2,3.2c-0.7,0.4-1.3,0.9-1.9,1.4
			c-0.8,0.6-1.6,1.4-2.3,2.1c-0.4,0.5-0.4,1.2-0.1,1.7C117.4,163.4,118.2,163.4,119,163.4z"/>
		<path class="st0" d="M240.7,27.1c-0.6,0.8-1.2,1.6-1.7,2.5c-0.6,0.9-1,1.6-1.4,2.4c-0.8,1.5-1.7,3-2.6,4.4
			c-0.6,0.7-1.2,1.5-1.8,2.1c-0.4,0.4-0.8,0.8-1.2,1.2c-0.4,0.4-0.8,0.9-1.1,1.3c-0.8,0.8-1.5,1.6-2.2,2.5c-0.3,0.4-0.7,0.8-0.9,1.3
			s-0.7,1-1,1.5c-0.2,0.4-0.5,0.8-0.8,1.1c-0.3,0.4-0.8,0.8-1.2,1.2c-0.8,0.8-1.5,1.6-2.3,2.5c-0.8,0.8-1.4,1.7-2.2,2.5
			c-0.8,0.8-1.6,1.6-2.4,2.3c-1.3,1.1-2.5,2.2-3.8,3.3c-1,0.9-2.2,1.8-3.3,2.6s-2.3,1.8-3.4,2.6c-0.6,0.4-1.1,0.8-1.8,1.2l-1.8,1.2
			c-0.6,0.4-1.2,0.9-1.7,1.3s-1.2,0.8-1.8,1.2c-0.5,0.4-1.2,0.8-1.8,1.1l-2.1,1.4c-0.6,0.4-0.8,1.3-0.4,1.9c0.4,0.6,1.3,0.8,1.9,0.4
			l0,0c0.7-0.4,1.3-0.9,2-1.3c0.7-0.4,1.2-0.8,1.9-1.1c0.6-0.3,1.2-0.8,1.8-1.2s1.2-0.9,1.8-1.3c1.1-0.9,2.3-1.6,3.5-2.4
			c1.2-0.8,2.3-1.7,3.4-2.6c1.1-0.9,2.2-1.7,3.2-2.5c1-0.8,1.9-1.7,2.9-2.5c1.1-0.9,2.2-1.9,3.4-2.9c1.1-1,1.8-1.9,2.6-3
			c0.8-1,1.9-2,2.8-3c0.5-0.5,0.9-1.1,1.3-1.6s0.8-1.1,1.1-1.7c0.3-0.6,0.7-1,1.2-1.5s0.9-1.1,1.4-1.6c0.9-1,1.8-2.1,2.8-3.2
			c1-1,1.9-2.1,2.6-3.3c0.7-1.2,1.4-2.5,2.2-3.7c0.3-0.6,0.6-1.1,1-1.7c0.3-0.6,0.7-1.2,1.1-1.8l0.7-1.1c0.5-0.6,0.5-1.4-0.1-2l0,0
			c-0.3-0.3-0.7-0.4-1.1-0.4l0,0C241.3,26.7,240.9,26.9,240.7,27.1L240.7,27.1z M218.2,55.8L218,56L218.2,55.8z"/>
		<path class="st0" d="M285.1,45.7c-0.6,0.6-1.2,1.2-1.7,1.8l-1.6,1.8c-0.5,0.6-1,1.2-1.6,1.7c-0.5,0.5-1.1,1-1.6,1.6
			c-1.3,1.1-2.6,2.2-3.8,3.3c-1.2,1.1-2.7,2.2-4,3.4c-1.3,1.1-2.6,2.4-3.9,3.5l-1.1,0.9c-1,0.8-2.2,1.7-3.3,2.6
			c-1.1,0.9-2.2,1.6-3.3,2.5c-1.1,0.9-2.3,1.7-3.3,2.6c-1,0.8-2.3,1.8-3.5,2.7c-1.2,0.9-2.4,1.6-3.5,2.4c-1.1,0.8-2.5,1.5-3.7,2.2
			c-2.6,1.5-5.2,2.7-7.6,4.2c-0.8,0.4-1.7,1-2.5,1.5c-0.8,0.5-1.6,1.1-2.5,1.6c-1.7,1.1-3.3,2.4-4.9,3.5c-0.3,0.2-0.5,0.5-0.6,0.9
			s0,0.7,0.2,1.1c0.4,0.6,1.3,0.8,1.9,0.4c1.2-1,2.4-1.9,3.7-2.8l3.6-2.4c1.2-0.9,2.6-1.5,3.8-2.2s2.4-1.3,3.6-2
			c1.2-0.7,2.6-1.4,3.8-2.1c1.2-0.8,2.6-1.5,3.7-2.4s2.4-1.6,3.5-2.6c0.6-0.4,1.1-0.9,1.7-1.4l1.7-1.3c1.7-1.3,3.3-2.5,5-3.7
			c0.9-0.6,1.7-1.2,2.4-1.8s1.7-1.3,2.4-2c0.8-0.7,1.6-1.5,2.4-2.2s1.4-1.3,2.1-2c1-0.8,2.1-1.7,3.1-2.6c1-0.9,2.1-1.8,3.1-2.7
			c0.8-0.6,1.5-1.3,2.2-1.9c0.7-0.6,1.4-1.3,2-2.1c0.7-0.7,1.3-1.4,1.9-2.1c0.6-0.7,1.3-1.5,2.1-2.3c0.5-0.6,0.4-1.4-0.1-2
			c-0.3-0.3-0.7-0.4-1.1-0.4C285.7,45.2,285.4,45.4,285.1,45.7L285.1,45.7z M266.1,63.7l-0.2,0.1L266.1,63.7z"/>
		<path class="st0" d="M247.4,19.1c-0.7,1-1.4,1.9-2.1,2.8c-0.7,0.9-1.3,1.9-2,2.9c-1.2,1.9-2.4,3.7-3.5,5.5c-0.3,0.7,0,1.5,0.6,1.9
			c0.7,0.3,1.5,0,1.9-0.6l0,0c0.7-1.2,1.5-2.3,2.2-3.5c0.7-1.1,1.4-2.2,2.1-3.3c0.9-1.3,1.9-2.6,2.8-3.9c0.3-0.3,0.4-0.7,0.4-1.1
			c0-0.4-0.2-0.7-0.5-1c-0.3-0.3-0.7-0.4-1.1-0.4l0,0C248,18.7,247.6,18.8,247.4,19.1L247.4,19.1z"/>
		<path class="st0" d="M245.5,18.9c-0.8,1.1-1.5,2.4-2.2,3.6c-0.6,1.2-1.2,2.3-1.7,3.4s-1,2.3-1.4,3.5c-0.3,0.7-0.4,1.3-0.5,2.1
			c-0.1,0.8-0.1,1.6-0.1,2.4c0.1,0.7,0.7,1.3,1.5,1.3l0,0c0.4,0,0.7-0.2,1-0.5c0.3-0.3,0.4-0.7,0.4-1.1c0-0.5,0-0.9,0.1-1.4
			c0.1-0.3,0-0.6,0.1-0.9c0.1-0.3,0.1-0.6,0.2-0.9c0.7-1.7,1.4-3.3,2.2-4.9c0.8-1.6,1.7-3.1,2.7-4.7l0-0.1c0.3-0.3,0.4-0.7,0.4-1
			c-0.1-0.7-0.7-1.3-1.5-1.3l0,0C246.1,18.5,245.9,18.6,245.5,18.9L245.5,18.9z"/>
		<path class="st0" d="M235,49.1c-1.3,1.2-2.5,2.6-3.5,4c-0.6,0.7-1.1,1.3-1.7,2c-0.6,0.7-1.1,1-1.7,1.6c-0.6,0.5-1.2,1-1.7,1.5
			l0.1-0.1c-1.7,1.5-3.4,3.1-5.2,4.6l-1,0.8c-0.4,0.3-0.9,0.6-1.2,1c-0.9,0.7-1.7,1.5-2.6,2.3l0.1,0l-0.1,0.1l0,0l0,0l-0.8,0.6
			c-0.7,0.6-1.4,1.2-2.1,1.8c-0.7,0.6-1.2,1.2-1.8,1.9c-0.4,0.6-0.3,1.5,0.3,1.9c0.5,0.4,1.2,0.3,1.8-0.1c0.8-0.9,1.5-1.7,2.4-2.6
			l1.5-1.1l-0.1,0.1l0.2-0.1l0.1-0.1l-0.1,0c0.8-0.6,1.6-1.3,2.2-2c0.6-0.5,1.2-1,1.8-1.5c0.8-0.6,1.5-1.3,2.2-1.9
			c1.2-1.1,2.5-2.3,3.7-3.3l0.5-0.5c0.9-0.7,1.7-1.5,2.6-2.2c0.8-0.7,1.4-1.4,2.1-2.3c0.7-0.8,1.3-1.6,2-2.4
			c0.7-0.8,1.4-1.5,2.1-2.3c0.5-0.6,0.4-1.4-0.1-2c-0.3-0.3-0.7-0.4-1.1-0.4C235.5,48.6,235.3,48.7,235,49.1L235,49.1L235,49.1z
			 M228.5,59.9l-0.1,0.1L228.5,59.9z M227.8,60.5L227.8,60.5L227.8,60.5z M227.7,60.5l-0.2,0.2L227.7,60.5z M215.6,67.4l-0.2,0.2
			L215.6,67.4z M216.1,70.6l-0.1,0.1L216.1,70.6z M217.7,69.2L217.7,69.2L217.7,69.2L217.7,69.2L217.7,69.2z M216.3,66.7L216.3,66.7
			z"/>
		<path class="st0" d="M253.7,65.2c-0.6,0.4-1.2,0.9-1.7,1.3s-1.2,0.9-1.8,1.3c-0.6,0.4-1.2,0.8-1.9,1.2l-1.8,1
			c-0.6,0.3-1.3,0.7-2,1l-1.9,1.1c-1.3,0.8-2.6,1.5-3.8,2.3c-0.8,0.4-1.5,0.9-2.3,1.4c-0.8,0.5-1.5,1.1-2.3,1.5
			c-0.8,0.4-1.5,1-2.2,1.4c-0.7,0.4-1.6,1.1-2.5,1.5c-0.7,0.3-1,1.1-0.7,1.8c0.3,0.7,1.1,1,1.8,0.7c0.1,0,0.3-0.1,0.4-0.2
			c0.7-0.4,1.3-0.9,1.9-1.3s1.1-0.7,1.8-1.1c1.1-0.8,2.3-1.5,3.5-2.3c1.2-0.8,2.4-1.4,3.6-2.2c1.2-0.8,2.6-1.6,4-2.3
			c0.8-0.4,1.7-0.9,2.5-1.4s1.6-0.9,2.3-1.3c0.7-0.4,1.6-1,2.4-1.5c0.8-0.5,1.6-1.1,2.3-1.7c0.3-0.2,0.5-0.5,0.6-0.9s0-0.7-0.2-1
			c-0.3-0.4-0.8-0.7-1.4-0.6C254.2,65,254,65.1,253.7,65.2L253.7,65.2z"/>
		<path class="st0" d="M271.7,70c-1.2,1-2.4,1.9-3.6,2.9c-1.1,0.9-2.4,1.7-3.5,2.5c-1.1,0.8-2.5,1.6-3.6,2.5
			c-1.1,0.9-2.3,1.7-3.4,2.6c-1.1,0.9-2.3,1.8-3.4,2.7c-1.1,0.9-2.4,1.7-3.5,2.6c-1.1,0.9-2.4,1.7-3.5,2.6c-1.1,0.9-2.4,1.5-3.6,2.2
			c-1.2,0.7-2.3,1.3-3.5,1.9c-1.3,0.7-2.7,1.3-4,2c-1.3,0.7-2.8,1.4-4.1,2.1c-0.4,0.2-0.5,0.5-0.6,0.9s0,0.7,0.2,1.1
			c0.2,0.3,0.5,0.5,0.9,0.6c0.4,0.1,0.7,0,1-0.2c1.7-0.8,3.3-1.6,5-2.5c1.3-0.6,2.7-1.2,4-2c1.3-0.8,2.6-1.5,3.8-2.2
			c1.2-0.7,2.5-1.4,3.6-2.3c1.2-0.9,2.4-1.7,3.6-2.6s2.3-1.7,3.4-2.6c1.1-0.9,2.3-1.8,3.5-2.7s2.3-1.7,3.5-2.6
			c1.2-0.9,2.4-1.6,3.6-2.4c2-1.4,3.9-3,5.8-4.5c0.3-0.2,0.5-0.5,0.6-0.9c0.1-0.4,0-0.7-0.2-1c-0.2-0.4-0.5-0.5-0.9-0.6
			c-0.2,0-0.3-0.1-0.5,0C272.1,69.8,271.9,69.8,271.7,70L271.7,70z"/>
		<g>
			<path class="st1" d="M194,121.1l-8.6-10.9l-5.6,12.2l-5.8,0.5l8.2-16.9l-11.4-14.4l6-0.6l8.5,10.7l5.6-12l5.8-0.5l-8.2,16.6
				l11.6,14.7C200.1,120.5,194,121.1,194,121.1z"/>
		</g>
	</g>
</g>
</svg>
