<svg xmlns="http://www.w3.org/2000/svg" viewBox="0 0 349.35 170.85"><defs><style>.cls-1{fill:#fefefe;}</style></defs><g id="Layer_2" data-name="Layer 2"><g id="Draw_Layer" data-name="Draw Layer"><path class="cls-1" d="M153,65.75a12.35,12.35,0,0,0,1.83-.21,16.81,16.81,0,0,0,1.73-.6,19,19,0,0,0,1.95-.87c1.81-.94,3.54-2,5.31-3,1.93-1.1,3.76-2.33,5.64-3.48q3.6-2.2,7-4.63l-.88.63c3.41-2.37,6.73-4.85,10.1-7.27l1.12-.79,2.24-1.56a64.85,64.85,0,0,1,8.71-5c3.08-1.5,6.29-2.77,9.26-4.5,1.36-.8,2.71-1.64,4.06-2.46s2.88-1.61,4.32-2.43a89.18,89.18,0,0,0,9.61-6.35,4.11,4.11,0,0,0,1.37-3,4.31,4.31,0,0,0-1.12-3,4.26,4.26,0,0,0-3-1.37,4.56,4.56,0,0,0-3,1.12L217.84,18a86.49,86.49,0,0,1-8,4.9c-2.83,1.51-5.46,3.39-8.31,4.86s-6,2.79-8.93,4.25a68.11,68.11,0,0,0-9.06,5.53l.56-.4c-.89.62-1.79,1.24-2.67,1.87.29-.21.59-.41.88-.63-3,2.14-6,4.34-9,6.53l-2.48,1.73c-1.71,1.19-3.48,2.29-5.26,3.38s-3.25,2.1-4.93,3.07a70.71,70.71,0,0,1-7.38,4.07,5.68,5.68,0,0,1-.82.17l.24,0a4.16,4.16,0,0,0-2.34,1,4.26,4.26,0,0,0-1.37,3,4.35,4.35,0,0,0,1.12,3,4.24,4.24,0,0,0,2.83,1.37Zm.4-8.51h0Zm29.75-19.45.24-.17-.24.17Z"/><path class="cls-1" d="M209.43,75.44c3.68-.12,7.36-.11,11-.27s7.36-.69,11-1h0a2.28,2.28,0,0,1,.45,0c1.7-.16,3.39-.31,5.08-.43s3.57-.29,5.36-.28c1.95,0,3.9.08,5.86,0,1.8-.06,3.61-.2,5.41-.33s3.6-.34,5.39-.6c2-.3,4-.78,6-1.2s4.11-.83,6.18-1.17,4-.58,5.94-.92c1.8-.3,3.6-.63,5.38-1s3.46-.89,5.2-1.32q6.82-1.52,13.63-3.11c2.7-.64,5.44-1.09,8.12-1.84,2.35-.65,4.67-1.41,7-2l-.07,0c2.23-.56,4.42-1.21,6.6-1.95,2-.7,4.07-1.33,6.12-2s4-1.17,6-1.81c2.44-.79,4.8-1.81,7.16-2.81a4.25,4.25,0,0,0-3-8c-2.19.93-4.38,1.9-6.64,2.64-2,.66-4,1.23-6.05,1.84s-4,1.21-6,1.9-4.17,1.42-6.3,1.95l.08,0c-3,.74-5.91,1.72-8.9,2.48q-6.17,1.34-12.32,2.74c-2,.43-3.89.89-5.83,1.34s-3.64.93-5.46,1.38c-3,.68-5.94,1.18-8.94,1.65-1.72.26-3.43.52-5.14.83s-3.65.7-5.46,1.09a72.15,72.15,0,0,1-9.6,1.42c-3.07.23-6.15.41-9.23.36-.91,0-1.83-.07-2.74,0S239,65,238,65.1c-1.93.13-3.85.27-5.77.45-3.69.34-7.38.79-11.07,1.07-1.92.15-3.85.16-5.78.21l-5.29.11c-3.54.08-7.07.12-10.6.09-1.05,0-2.1-.06-3.15-.08l-1.52,0c-2-.06-4.07-.26-6.1-.43-2.19-.19-4.39-.31-6.59-.43-4-.23-8.1-.6-12.14-1-4.21-.37-8.38-1-12.56-1.62-2-.28-4.09-.52-6.13-.79s-3.92-.46-5.89-.58a105.16,105.16,0,0,1-12.14-1.4c-3.93-.68-7.86-1.32-11.78-2.07s-7.81-1.79-11.71-2.72-8-1.86-12-2.91c-2.65-.71-5.3-1.4-7.93-2.16-2.44-.75-4.89-1.48-7.3-2.34s-4.89-1.86-7.38-2.66-4.94-1.52-7.37-2.43c-1.17-.43-2.32-.89-3.51-1.28-1.63-.54-3.26-1-4.91-1.5l1.1.32c-1.89-.56-3.79-1.05-5.68-1.58-3.25-1.06-6.29-2.6-9.47-3.86-3.73-1.47-7.63-2.47-11.36-4-3.29-1.3-6.5-2.82-9.72-4.26l-8.93-4A4.25,4.25,0,0,0,11.9,31L21,35.13c3.4,1.52,6.79,3.14,10.27,4.47,3.82,1.45,7.82,2.42,11.58,4A74.3,74.3,0,0,0,54.34,48c.78.2,1.55.39,2.33.61l-1.1-.33c1.2.36,2.41.72,3.61,1.06,1.76.56,3.48,1.2,5.2,1.84,1.9.71,3.82,1.32,5.75,1.92,3.89,1.2,7.63,2.8,11.51,4,4.29,1.36,8.59,2.66,12.94,3.8,4,1.05,8.07,2.06,12.13,3s7.78,2,11.7,2.78,7.85,1.4,11.77,2.12a117.34,117.34,0,0,0,12.11,1.61c2,.15,4,.24,6,.46s3.88.53,5.83.76c3.3.41,6.58.94,9.88,1.38s6.73.67,10.09.92c1.67.13,3.33.32,5,.44s3.51.18,5.26.29c3.47.23,6.92.58,10.4.69h.68l2.16,0c2.1.09,4.21.13,6.31.13,1.84,0,3.67,0,5.51-.09Z"/><path class="cls-1" d="M194.77,75.34Z"/><path class="cls-1" d="M194.43,75.33h0Z"/><path class="cls-1" d="M314.37,51.72l-.26.06.26-.06Z"/><path class="cls-1" d="M337.36,148.37a4.28,4.28,0,0,0,2.83-1.51,4.15,4.15,0,0,0,.95-3.17,11.52,11.52,0,0,1-.2-2c0-.85.11-1.7.17-2.55.09-1.23.32-2.45.47-3.68.06-.53.07-1.07.14-1.6s.16-1.17.23-1.76c.13-1.32.19-2.65.22-4s.15-2.54.21-3.81c.09-1.71.05-3.41,0-5.11.1-1.94.4-3.87.54-5.81.17-2.23.35-4.44.42-6.67,0,.17,0,.33,0,.5.07-1.3.13-2.6.31-3.88s.39-2.85.54-4.28.37-2.78.44-4.18.14-2.69.18-4v.08c0-.06,0-.13,0-.19h0c.06-2.07.3-4.12.42-6.18s.25-4.31.51-6.46a73.34,73.34,0,0,1,1.72-10.63,33.21,33.21,0,0,0,.81-4.32c.1-.71.31-1.4.41-2.11s.25-1.55.33-2.33a27.46,27.46,0,0,0,.33-4.25,14.44,14.44,0,0,0-.71-4.33c-.48-1.27-1-2.51-1.5-3.76a4.25,4.25,0,1,0-7.95,3c.32.77.63,1.55.93,2.32.2.48.42,1,.59,1.47a8.77,8.77,0,0,1,.08,1.15,8.65,8.65,0,0,0,.08.89c-.07.74-.18,1.47-.25,2.2a33,33,0,0,1-.64,3.94c-.27,1.18-.36,2.4-.61,3.6-.32,1.48-.77,2.94-1,4.45s-.44,2.88-.62,4.33c-.21,1.81-.49,3.61-.63,5.43s-.22,3.75-.39,5.63-.27,3.7-.32,5.56c0,1.2-.08,2.42-.19,3.63-.12,1.47-.32,2.93-.48,4.4s-.44,3.07-.59,4.6c-.13,1.35-.19,2.71-.21,4.06-.1,2.24-.35,4.48-.53,6.71-.11,1.28-.28,2.56-.38,3.84-.11,1.58,0,3.14,0,4.71-.08,2.24-.25,4.47-.29,6.7l0-1.1c-.07,1.5-.23,3-.4,4.46s-.3,3-.51,4.46c-.18,1.31-.26,2.65-.32,4a16.8,16.8,0,0,0,.18,3.82,4.53,4.53,0,0,0,1.51,2.83,4.27,4.27,0,0,0,2.72,1,3.17,3.17,0,0,0,.44,0Z"/><path class="cls-1" d="M211.58,170.52c3.57-.29,7.14-.11,10.71-.26,4-.17,7.9-.3,11.84-.74,2.09-.23,4.17-.5,6.27-.66,1.86-.15,3.73-.15,5.6-.16s3.71-.08,5.57-.19,3.83-.13,5.74-.28l5.91-.48c2-.16,4-.43,6.08-.62,1.81-.17,3.6-.48,5.4-.76s3.6-.5,5.4-.73c3.89-.53,7.77-1.11,11.61-1.93,3.18-.68,6.27-1.72,9.38-2.66,1.61-.48,3.25-.9,4.87-1.33,1.4-.38,2.79-.82,4.19-1.19,1.14-.27,2.27-.56,3.41-.84,1.66-.36,3.32-.76,5-1.18s3.5-.86,5.25-1.3a48,48,0,0,0,4.67-1.52,33.51,33.51,0,0,0,5-2.39A30.74,30.74,0,0,0,337.8,148a4.47,4.47,0,0,0,1.74-2.81,4.26,4.26,0,0,0-6.67-4.12,36.74,36.74,0,0,1-4.66,3.49,49.85,49.85,0,0,1-9.77,3.34c-1.38.32-2.75.65-4.12,1-1.84.43-3.67.86-5.5,1.32-3.13.75-6.21,1.68-9.31,2.51-2.88.78-5.7,1.76-8.59,2.53-3.64.79-7.34,1.39-11,1.86-1.82.23-3.64.44-5.46.73s-3.57.59-5.37.79c-4,.44-8,.8-12,1.11-1.89.15-3.79.19-5.69.3s-3.73.19-5.6.21-3.51,0-5.26.11c-2,.12-4,.34-6,.58s-3.84.45-5.76.54-3.76.16-5.64.26c-3.37.17-6.75.06-10.12.19-2,.08-4.09.32-6.15.39s-3.82.12-5.74.11c-2.72-.07-5.44-.09-8.17-.13-3.72-.12-7.46-.23-11.19-.19s-7.47,0-11.21,0c-1.33-.05-2.66-.08-4-.11-4-.19-8-.41-12-.61s-8.25-.66-12.39-1c-2.1-.17-4.2-.45-6.29-.7s-4.17-.42-6.27-.52c-1.81-.09-3.63-.15-5.44-.26s-3.74-.42-5.6-.65c-2-.24-4-.42-6-.62s-3.88-.45-5.81-.66c-4.19-.47-8.41-.58-12.58-1.22-8.23-1.27-16.46-2.65-24.64-4.25-2.91-.57-5.82-1.13-8.73-1.72-1.45-.29-2.86-.73-4.29-1.11s-2.89-.78-4.33-1.19-2.62-.79-3.93-1.17c-3.83-1.17-7.67-2.2-11.59-3-2-.41-4-.83-6-1.29-1.67-.39-3.33-.87-5-1.35-1.39-.43-2.76-.9-4.13-1.39s-3-.94-4.47-1.45c-2.52-.86-5-1.88-7.42-3a4.25,4.25,0,1,0-3.49,7.75c2.49,1.1,5,2.13,7.58,3,1.57.53,3.17,1,4.74,1.54,1.9.68,3.81,1.3,5.75,1.85,3.32,1,6.67,1.84,10.06,2.49s6.55,1.41,9.77,2.34L47.91,155c2.13.66,4.28,1.24,6.43,1.84,1.95.54,3.89,1.08,5.87,1.49q6,1.23,12.08,2.32c4.35.77,8.69,1.58,13,2.31,3.91.65,7.84,1.27,11.79,1.67,2.15.23,4.31.33,6.46.54,2,.18,4,.46,5.92.68s3.88.36,5.81.57,4,.52,6,.71c3.76.38,7.55.34,11.31.72,2.12.21,4.23.5,6.36.72s4.18.36,6.26.56c3.63.36,7.25.57,10.88.78,3.9.23,7.8.42,11.71.51l-1.1,0c4.06.09,8.11.15,12.18.15,3.52,0,7,0,10.55.05l-1.1,0c3.48.09,7,.13,10.43.2,1.37,0,2.75.07,4.13.07q4.32,0,8.64-.33Z"/><path class="cls-1" d="M10.2,141.3A4.44,4.44,0,0,0,12,137.23a8.74,8.74,0,0,0,.06-1.52,5.26,5.26,0,0,0-.23-1.41,6.09,6.09,0,0,0-.1-.73c-.09-.4-.18-.79-.28-1.19s-.11-.62-.16-.94-.06-.58-.11-.86c-.11-.56-.26-1.07-.41-1.6s-.27-1.12-.41-1.68c-.05-.39-.09-.78-.11-1.17s.06-.7.07-1a16.71,16.71,0,0,0,.05-2.55c-.12-1-.2-2-.24-3l0,1.1c0-.6,0-1.19,0-1.79s.06-1.21.14-1.82a18.23,18.23,0,0,0,.07-2.22,11.76,11.76,0,0,0,0-1.19c-.18-1.65-.46-3.27-.66-4.91s-.58-3.39-.71-5.11c-.06-.92,0-1.85-.17-2.76-.05-.4-.17-.77-.23-1.16,0-.21,0-.42,0-.63,0-.65.06-1.29.08-1.94,0-.27,0-.55,0-.83v-.06c0-1.7-.07-3.4-.07-5.1.06-1,.09-1.92.12-2.89v.16c.07-1.1.18-2.21.32-3.3A35.43,35.43,0,0,0,9,80.73c0-.49,0-1,0-1.47l0,1.1,0-1.78c0-.27,0-.54,0-.81.07-1.27.24-2.54.31-3.82.07-1.54,0-3.07,0-4.61-.1-2.43-.43-4.87-.46-7.3,0,.36,0,.73,0,1.1,0-.74,0-1.48.05-2.22,0-2.05,0-4.08,0-6.12C8.92,53.54,9,52.28,9,51c0-.72,0-1.44.05-2.16a27.12,27.12,0,0,1,.63-4.2c.31-1.41.63-2.82,1-4.22l.36-1.19a38.77,38.77,0,0,1,1.8-4.13c.4-.86.78-1.74,1.24-2.58.22-.3.46-.58.71-.87a9.24,9.24,0,0,0,1.11-1.86l.07-.09c.6-.46,1.25-.87,1.88-1.27,1-.61,1.93-1.36,2.94-1.95,1.38-.72,2.72-1.49,4.08-2.25s2.66-1.66,4.05-2.4l-.28.15c2-1.08,3.89-2.32,5.86-3.45.95-.47,1.93-.89,2.88-1.35a40.54,40.54,0,0,1,3.74-1.57c1.11-.41,2.26-.7,3.37-1.09s2.13-.66,3.2-.94,2.18-.64,3.27-1,2.14-.56,3.18-1,2.2-1,3.28-1.58c1.23-.63,2.47-1.24,3.7-1.86A4.53,4.53,0,0,0,63.51,6,4.27,4.27,0,0,0,61.38.39a4.15,4.15,0,0,0-3.26-.1c-1.45.73-2.9,1.45-4.33,2.2A21.84,21.84,0,0,1,49.7,4.2c-1.36.38-2.7.79-4.06,1.19s-2.64.73-4,1.15S38.83,7.43,37.43,8s-3,1.3-4.51,2c-3,1.39-5.75,3.18-8.61,4.83-1.16.64-2.3,1.32-3.42,2S18.75,18,17.67,18.63c-.62.31-1.25.63-1.85,1s-.89.61-1.35.91-.83.58-1.26.84-.77.47-1.15.74a14.34,14.34,0,0,0-2.42,2,10,10,0,0,0-1.48,2.29l-.35.4a16.25,16.25,0,0,0-1.14,1.74,24.24,24.24,0,0,0-1.16,2.27c-.41.87-.8,1.74-1.2,2.62-.25.55-.51,1.1-.74,1.66a16.6,16.6,0,0,0-.71,2.2c-.64,2.1-1.15,4.2-1.62,6.34-.21,1-.38,2-.51,2.94a27.39,27.39,0,0,0-.11,3.51c0,.27,0,.54,0,.81C.51,52.59.39,54.31.42,56c0,1.45.07,2.91,0,4.37l0,2.12c0-.3,0-.61,0-.92-.07,3.6.47,7.17.51,10.77C.88,74.25.67,76.1.63,78l0-1.11c0,1-.05,2-.07,2.94l0-1.1c0,.84,0,1.69,0,2.54,0-.17,0-.34,0-.51,0,.83,0,1.66,0,2.49S.4,84.84.32,85.65c-.11,1-.14,2-.15,3C.1,90,0,91.31,0,92.64S.12,95,.13,96.2c0,.27,0,.54,0,.8,0,1-.14,2-.1,3,0,.74.27,1.46.32,2.2.12,1.65.22,3.28.43,4.92a81.3,81.3,0,0,1,1.08,8.34c-.05.61-.12,1.22-.14,1.83,0,1-.05,2-.06,2.92v-.14a18.73,18.73,0,0,0,.06,2c.05.49.14,1,.18,1.48a25.24,25.24,0,0,0-.13,3.36,13.07,13.07,0,0,0,.37,2.46c.07.27.15.53.22.8.11.52.23,1,.37,1.56-.08-.35-.17-.7-.25-1.05.08.36.18.72.27,1.08s.1.81.15,1.22a14.89,14.89,0,0,0,.39,1.73c0,.11,0,.21,0,.32a7.62,7.62,0,0,0,.2,1.06.29.29,0,0,0,0,.09A3.87,3.87,0,0,0,3.35,138a5.12,5.12,0,0,0,.92,2.34A4.39,4.39,0,0,0,7.08,142a4.48,4.48,0,0,0,.64.05,4.35,4.35,0,0,0,2.48-.79Zm1.56-3.22v0h0v.05Zm-.87-8.42-.12-.49v0c0,.18.09.36.13.54ZM9.08,77.18c0-.16,0-.33,0-.49,0,.16,0,.33,0,.49Zm2.17-38.57c0-.09.06-.19.08-.28,0,.09-.05.19-.08.28Z"/><path class="cls-1" d="M234.1,74a4.76,4.76,0,0,1,.66-.06c.28,0,.57,0,.85,0h.21a3.44,3.44,0,0,0,.45,0,6.44,6.44,0,0,1,.76,0c.35,0,.69,0,1,0h-.22l.35,0h.34l.06,0a25.38,25.38,0,0,0,2.52-.93c.53-.26,1.12-.42,1.67-.65s1.13-.44,1.69-.66c1.12-.43,2.2-.91,3.28-1.42s2.26-1,3.42-1.46c1.37-.55,2.7-1.17,4.09-1.68,3.7-1.35,7.2-3.19,10.81-4.77,1.93-.85,3.93-1.53,5.87-2.35s3.6-1.67,5.43-2.43c1.65-.68,3.24-1.49,4.9-2.11,1.88-.69,3.72-1.43,5.62-2.06s3.58-1.2,5.35-1.84c1.53-.55,3-1.16,4.56-1.69l5.11-1.74c1.67-.57,3.31-1.17,5-1.64l.41-.11-1.06.25a61.1,61.1,0,0,0,6.15-1.79c1.8-.64,3.62-1.18,5.47-1.67a25.13,25.13,0,0,1,5-.52H324c.75,0,1.48.07,2.22.16s1.65.12,2.47.13,1.53,0,2.3.1a7.73,7.73,0,0,1,1.43.22,15,15,0,0,1,2.1,1,4.63,4.63,0,0,1,.48.4l1.07,1.21c-.17-.19-.34-.37-.52-.55,1.36,1.54,2.45,3.29,3.67,4.94a4.25,4.25,0,0,0,6.9-5c-.84-1.14-1.62-2.31-2.45-3.46a21,21,0,0,0-1.73-2,10.89,10.89,0,0,0-2.15-2.19,22.06,22.06,0,0,0-3-1.7,13.72,13.72,0,0,0-4-1.22,31.37,31.37,0,0,0-4.23-.19c-.58,0-1.15-.11-1.73-.16-1.12-.12-2.26-.1-3.38-.12l1.1,0a29.63,29.63,0,0,0-5.16.21,51.09,51.09,0,0,0-5.3,1.28c-2.57.69-5,1.74-7.59,2.43a48.92,48.92,0,0,0-5.26,1.59c-1.61.59-3.25,1.13-4.88,1.66s-3.27,1.14-4.89,1.76-3.29,1.16-4.93,1.73c-2,.68-3.93,1.31-5.85,2.08l-2.38.92c-.87.33-1.69.78-2.54,1.15-1.73.75-3.45,1.48-5.16,2.27-2,.91-4,1.62-6,2.44s-3.83,1.69-5.75,2.56c-1.7.78-3.38,1.63-5.14,2.29-1.55.59-3.1,1.18-4.63,1.85-1.15.5-2.34.92-3.49,1.43s-2.2,1.11-3.37,1.54-2.17.89-3.28,1.29c-.87.32-1.71.72-2.6,1s-1.88.61-2.78,1l-.58.22a4.26,4.26,0,0,0-2.44,5.49,4.08,4.08,0,0,0,1.51,1.93h.79A5.65,5.65,0,0,0,234.1,74Z"/><path class="cls-1" d="M145.37,69.94c.65-.41,1.26-.86,1.92-1.25l.25-.14.78-.42-.35.19,1.58-.86-.75.41.14-.08-.17.09-.19.1c2.08-1.12,4.07-2.4,6.13-3.55l1.31-.69h0l-.54.3.85-.46,1.08-.57-.24.13.34-.18.19-.11,1-.53,2-1.12,1.88-1-.42.24.54-.3.42-.23L163,60l.62-.33-.67.36-.17.09c2.83-1.54,5.57-3.24,8.39-4.79l-1,.52c1.83-1,3.61-2.07,5.43-3.1,1.47-.77,3-1.5,4.4-2.32s2.92-1.77,4.39-2.61c1-.53,2-1.06,3-1.65s1.83-1.1,2.76-1.62c5-2.68,9.79-5.81,14.76-8.58,2.45-1.26,4.92-2.46,7.3-3.85,2.1-1.23,4.19-2.46,6.31-3.64.86-.45,1.73-.91,2.57-1.39.62-.35,1.22-.73,1.84-1.09.8-.41,1.61-.8,2.39-1.25s1.34-.84,2-1.23l.24-.13.13-.07-.1.05a20.34,20.34,0,0,0,2.86-1.82c.51-.4,1-.8,1.57-1.17a20.76,20.76,0,0,0,1.9-1.32,4.42,4.42,0,0,0,1.7-2.71A4.26,4.26,0,0,0,229,12.18c-1.05.86-2.24,1.54-3.31,2.36A21.32,21.32,0,0,1,223,16.3c-.54.29-1.08.58-1.59.9l-1,.61c-.83.42-1.66.83-2.47,1.29s-1.44.86-2.17,1.28q-2.1,1.11-4.17,2.27c-1.94,1.1-3.83,2.28-5.78,3.37-1.33.7-2.68,1.34-4,2-1.94,1-3.8,2.14-5.69,3.24-1.51.88-3,1.75-4.52,2.68-1.29.8-2.6,1.59-3.92,2.34-1,.49-1.91,1-2.85,1.53s-2,1.22-3.07,1.8c-1.53.81-3,1.64-4.51,2.56-.88.55-1.78,1.07-2.68,1.57-1.58.82-3.16,1.62-4.72,2.48-1,.58-2,1.23-3.07,1.81l.39-.21c-2.84,1.55-5.59,3.24-8.41,4.8l-.32.18-.34.18-2.43,1.31.12-.07-1.67.9-.44.24.19-.1-2.31,1.24,1-.52-.51.27c-.82.44-1.64.85-2.43,1.31-.55.31-1.07.65-1.61.95-1.06.61-2.1,1.27-3.17,1.86l-.71.39,1-.52-1.47.79,1-.53-.93.5c-.61.33-1.23.65-1.82,1s-1,.68-1.51,1a4.27,4.27,0,0,0-.94,5.93,4.1,4.1,0,0,0,3.38,1.72,4.69,4.69,0,0,0,2.55-.77Zm17.25-9.75,0,0h0l-.06,0Z"/><path class="cls-1" d="M130,60.07c1-.59,1.9-1.19,2.83-1.81s1.58-1,2.37-1.56l0,0,.8-.52c1.16-.73,2.33-1.44,3.47-2.21l3.46-2.27-.14.09.16-.1.17-.11-.16.1c1.08-.66,2.19-1.25,3.27-1.91s2.41-1.49,3.6-2.25l-.05,0,.3-.19h0l0,0,.39-.25-.17.11-.22.14.16-.1-.09.06c1.64-1,3.23-2.16,4.81-3.29l2.21-1.6c.71-.51,1.46-1,2.2-1.48a38.32,38.32,0,0,1,3.66-2c1.37-.66,2.76-1.26,4.11-1.93.69-.34,1.38-.67,2.06-1s1.37-.74,2.07-1.1c1.41-.71,2.85-1.38,4.24-2.14,1-.55,2-1.19,2.95-1.82l-.33.21.9-.57-.15.09c.91-.59,1.8-1.19,2.7-1.8.18-.12.37-.23.54-.36l.23-.15h0l-.08.06.09-.06a1.4,1.4,0,0,0,.26-.16c1.1-.67,2.23-1.31,3.3-2s2.38-1.7,3.54-2.58a1.5,1.5,0,0,0,.18-2.11,1.52,1.52,0,0,0-2.11-.18c-1.16.88-2.33,1.75-3.54,2.57-.82.51-1.65,1-2.48,1.51a8.23,8.23,0,0,0-.74.46l-.2.13a1.41,1.41,0,0,0-.35.23c-1,.64-1.92,1.3-2.89,1.94l.14-.09-.22.14-.11.06.11-.06-.55.35c-.61.38-1.2.78-1.82,1.14s-1.36.75-2.06,1.11c-1.43.71-2.86,1.41-4.26,2.16s-2.77,1.42-4.17,2.07-2.75,1.25-4.08,2a46.33,46.33,0,0,0-5.61,3.58c-1.83,1.31-3.63,2.64-5.51,3.87h0l-.59.37.05,0-.06,0-.1.07.05,0h0l.27-.17-.29.18-.37.24-.23.15h0c-1.73,1.1-3.48,2.18-5.27,3.18-1.06.6-2.06,1.29-3.07,2L137.08,52c-1.11.71-2.23,1.4-3.34,2.12l.07-.05c-1.39.9-2.77,1.83-4.15,2.73l-.9.55a1.64,1.64,0,0,0-.77.85,1.51,1.51,0,0,0,.91,1.92,1.57,1.57,0,0,0,.54.09,1.09,1.09,0,0,0,.6-.15Zm18-14.93.19-.12.15-.09-.34.21Zm0,0,.12-.07-.12.07Zm.31-.2.18-.11-.18.11Zm30.35-14.17.08-.06-.08.06Zm1.89-4.83.06,0-.06,0Zm3.55-2.18.09-.06-.09.06Zm-6.88,4.4.08,0-.08,0ZM148.66,44.76h0l-.06,0h0l0,0Zm1.46,2.6Zm-.23.15.2-.13h0l-.24.16h0l-.12.08.18-.11Zm-.18.11-.09.06.09-.06ZM143,51.71h0l0,0Z"/><path class="cls-1" d="M116.59,57.45c.41-.21.84-.37,1.23-.62s1-.67,1.46-1l2.6-1.79c.85-.58,1.68-1.2,2.53-1.79s1.68-1.15,2.53-1.7,1.75-1.1,2.62-1.67l-.32.21c1.3-.81,2.65-1.54,4-2.33.64-.39,1.29-.74,1.93-1.13s1.33-.83,2-1.25c1.41-.9,2.81-1.81,4.17-2.78S143.73,39.84,145,39s2.58-1.77,3.89-2.63c1.65-1,3.28-2.06,5-3l2.52-1.44c1-.6,2-1.22,3-1.86l-.33.21c2.57-1.63,5-3.37,7.59-5,1.48-.94,3-1.83,4.47-2.77a1.64,1.64,0,0,0,.77-.85,1.53,1.53,0,0,0-.06-1.15,1.5,1.5,0,0,0-.85-.77,1.44,1.44,0,0,0-1.15.06c-2,1.28-4.09,2.49-6.08,3.83s-3.75,2.54-5.65,3.78l-1,.62c-1.29.82-2.61,1.6-3.94,2.35s-2.63,1.52-3.92,2.33-2.72,1.71-4.05,2.62S142.52,37,141.22,38l-2.47,1.78c-.8.57-1.63,1.1-2.45,1.63l-2.07,1.31c-.76.46-1.54.9-2.31,1.36s-1.57.9-2.35,1.35-1.71,1-2.54,1.58l.32-.21c-1,.63-2,1.26-3,1.92s-1.92,1.3-2.87,2l-2.65,1.87-2.45,1.69c-.35.19-.71.34-1.07.52a1.51,1.51,0,0,0-.71,2,1.54,1.54,0,0,0,1.37.86,1.38,1.38,0,0,0,.63-.14Zm10.12-6.76.2-.12-.2.12Zm9.6-9.31.24-.16-.24.16Zm21.74-14.06.21-.13-.21.13Zm8.61-2.16.13-.08a.57.57,0,0,0-.13.08Z"/><path class="cls-1" d="M100.71,54.06c.57-.33,1.13-.69,1.69-1.05.95-.59,1.9-1.19,2.89-1.73s1.94-1,2.91-1.47a69.3,69.3,0,0,0,5.94-3.63c1.21-.78,2.44-1.52,3.68-2.27s2.46-1.51,3.68-2.3c1-.65,2.07-1.29,3.09-2l3.16-2.14q3-2.05,6.09-4.06c2-1.25,4-2.45,6-3.75s3.73-2.72,5.65-4c1-.6,2-1.17,3-1.79,1.17-.73,2.31-1.5,3.46-2.26a1.47,1.47,0,0,0,.53-1A1.5,1.5,0,0,0,151.1,19a1.6,1.6,0,0,0-1.07.35c-.67.44-1.34.9-2,1.34-.91.56-1.82,1.11-2.75,1.65s-2.14,1.31-3.16,2l-2.84,2.06c-.87.64-1.79,1.21-2.69,1.8-1.13.71-2.27,1.38-3.4,2.09-1.37.87-2.72,1.78-4.08,2.68-2.35,1.56-4.67,3.17-7,4.72-1.18.74-2.35,1.48-3.51,2.24s-2.51,1.51-3.76,2.27c-1.42.88-2.83,1.79-4.24,2.7a51.42,51.42,0,0,1-5,2.81,50.9,50.9,0,0,0-5,2.88l.1-.06-.23.15-.09.06.07,0-1,.61a1.56,1.56,0,0,0-.77.85,1.51,1.51,0,0,0,.91,1.92,1.55,1.55,0,0,0,.53.09,1.13,1.13,0,0,0,.61-.15Zm47-33.19.23-.15-.23.15Zm-47.3,29.86.13-.09-.15.1Z"/><path class="cls-1" d="M84.81,50.43c.7-.35,1.38-.73,2.07-1.1s1.3-.69,2-1c1.38-.7,2.8-1.34,4.2-2s2.69-1.27,4-2c1.47-.86,2.89-1.78,4.29-2.75,1.18-.82,2.3-1.73,3.44-2.59s2.29-1.64,3.46-2.43l4-2.79c1.11-.76,2.19-1.56,3.32-2.3,1.69-1.05,3.37-2.11,5-3.21S123.75,26,125.35,25c.94-.6,1.91-1.16,2.89-1.71,1.2-.68,2.46-1.24,3.7-1.84a1.5,1.5,0,1,0-1.29-2.71c-1.29.62-2.61,1.23-3.87,1.93s-2.46,1.44-3.65,2.23-2.27,1.55-3.39,2.35-2.24,1.5-3.37,2.23l.32-.21c-1.35.86-2.75,1.67-4.07,2.6l-4.42,3.08c-1.28.89-2.57,1.73-3.84,2.62s-2.53,1.86-3.77,2.81c-1,.81-2.14,1.55-3.25,2.27S95.17,42,94,42.52s-2.39,1.13-3.59,1.7-2.26,1.07-3.38,1.63-2.34,1.27-3.53,1.87a1.53,1.53,0,0,0-.72,2,1.56,1.56,0,0,0,1.38.86,1.35,1.35,0,0,0,.62-.15Zm12.28-9.65.18-.12-.18.12Z"/><path class="cls-1" d="M71.72,46.49c.72-.34,1.39-.78,2.08-1.19s1.3-.78,2-1.13,1.35-.63,2-1,1.33-.7,2-1.08a63.07,63.07,0,0,0,7.81-5.59c1.51-1.21,3-2.36,4.66-3.42,1.3-.8,2.62-1.56,3.94-2.33l4.17-2.45q4.26-2.5,8.34-5.27c2.36-1.61,4.63-3.33,6.94-5a1.51,1.51,0,0,0,.18-2.12,1.55,1.55,0,0,0-1-.53,1.6,1.6,0,0,0-1.07.36c-1.84,1.34-3.69,2.69-5.54,4s-3.57,2.43-5.38,3.61l.1-.06-.12.07-.21.13.16-.1c-1.28.8-2.58,1.57-3.89,2.34S96,27.44,94.56,28.27s-2.85,1.62-4.22,2.52-2.68,1.83-3.94,2.85S84,35.55,82.83,36.46s-2.19,1.59-3.32,2.34c-.67.41-1.35.82-2,1.19s-1.53.77-2.31,1.15-1.56.8-2.32,1.25-1.58,1-2.41,1.39a1.52,1.52,0,0,0-.71,2,1.49,1.49,0,0,0,1.36.85,1.45,1.45,0,0,0,.64-.14Zm7.62-7.58.08,0-.08,0Zm23.43-15.52h0l-.07,0,0,0Z"/><path class="cls-1" d="M59.15,42.1A12,12,0,0,0,61.76,41c.66-.31,1.31-.63,1.94-1,1.51-.83,3-1.76,4.38-2.71,2.63-1.75,5.21-3.59,7.82-5.37.67-.45,1.34-.89,2-1.32,1.34-.85,2.67-1.69,4-2.52l2.13-1.28c.66-.39,1.31-.81,2-1.22,2.75-1.75,5.28-3.83,8-5.62l.84-.55c.94-.59,1.88-1.16,2.85-1.7A25.29,25.29,0,0,1,101,16.33a1.5,1.5,0,0,0,.71-2,1.44,1.44,0,0,0-.85-.77,1.55,1.55,0,0,0-1.14.06c-.73.27-1.46.54-2.17.87s-1.27.66-1.89,1c-1.35.77-2.67,1.62-4,2.5-2.46,1.66-4.79,3.5-7.27,5.13-.55.35-1.1.7-1.65,1l-2.14,1.28c-1.38.85-2.75,1.72-4.12,2.58s-2.78,1.83-4.16,2.76-2.62,1.84-3.94,2.75-2.38,1.61-3.59,2.39c-1,.62-2,1.23-3.07,1.77-.51.27-1,.51-1.54.75s-1,.49-1.53.69l-.11,0a1.5,1.5,0,0,0,.29,3l.27,0Zm25.3-19a2.9,2.9,0,0,1,.29-.19l-.29.19Z"/><path class="cls-1" d="M48.67,37.06c.7-.3,1.4-.6,2.07-.94s1.35-.73,2-1.11c1.34-.76,2.66-1.58,4-2.39s2.89-1.7,4.32-2.58,2.83-1.87,4.19-2.88c2.2-1.65,4.36-3.35,6.58-5s4.41-3.21,6.67-4.74c.74-.46,1.48-.92,2.24-1.34,1-.55,2-1.06,3-1.58a1.5,1.5,0,1,0-1.28-2.71c-1.53.79-3,1.57-4.53,2.44s-2.86,1.89-4.25,2.88C71.12,19,68.55,20.84,66,22.78c-1.85,1.43-3.7,2.85-5.64,4.16-1,.65-2.09,1.29-3.16,1.91s-2.1,1.27-3.15,1.9-2.17,1.31-3.28,1.93c-.52.3-1.06.59-1.61.86s-1.2.55-1.8.81a1.5,1.5,0,0,0-.71,2,1.47,1.47,0,0,0,1.35.85,1.59,1.59,0,0,0,.64-.13ZM60.46,26.89l.22-.14-.22.14Z"/><path class="cls-1" d="M34.71,33.07c1.37-.81,2.76-1.57,4.17-2.3s2.75-1.25,4.15-1.83c.7-.3,1.4-.59,2.09-.91s1.54-.77,2.31-1.19a45.54,45.54,0,0,0,4.15-2.58c1.32-.92,2.59-1.92,3.88-2.88s2.46-1.82,3.67-2.74c2.59-2,5.14-4,7.87-5.77l.08,0c.82-.51,1.63-1,2.47-1.49s1.81-1,2.72-1.46A1.5,1.5,0,0,0,71,7.16c-1.45.76-2.9,1.51-4.29,2.38s-2.8,1.79-4.15,2.76c-2.66,1.91-5.22,3.95-7.84,5.91-1.92,1.43-3.82,2.88-5.78,4.25-1.16.73-2.33,1.42-3.54,2.08a37.88,37.88,0,0,1-4,1.83c-1.35.55-2.69,1.12-4,1.79s-2.68,1.43-4,2.2a1.6,1.6,0,0,0-.77.85,1.53,1.53,0,0,0,.06,1.15,1.61,1.61,0,0,0,1.39.87,1.21,1.21,0,0,0,.61-.16ZM49.14,22.33l.08-.06-.08.06Zm18.1-9.61a.57.57,0,0,1,.13-.08.57.57,0,0,0-.13.08Z"/><path class="cls-1" d="M72.46,80.27a16,16,0,0,0-3.07,1,13.18,13.18,0,0,0-2.71,1.65,11.88,11.88,0,0,0-2.36,2.39,43,43,0,0,0-3.24,5.16,37.07,37.07,0,0,0-2.48,5.8,42,42,0,0,0-1.68,6,32.91,32.91,0,0,0-.53,6.27,28.25,28.25,0,0,0,.68,6.14,19.48,19.48,0,0,0,2.46,5.65,11.34,11.34,0,0,0,2.08,2.55,16,16,0,0,0,2.76,2,25.24,25.24,0,0,0,5.78,2.41,22.62,22.62,0,0,0,3.47.67,14.84,14.84,0,0,0,3,.09,17.05,17.05,0,0,0,3.54-.62c1-.29,2-.7,2.9-1.08q.78-.28,1.56-.54l1-.33a10,10,0,0,0,1.17-.49,6.44,6.44,0,0,0,1.12-.82,2,2,0,0,0,.09-2.82,2,2,0,0,0-2.83-.09l-.11.1-.53.28-2.06.69c-.7.24-1.39.53-2.08.81a16.78,16.78,0,0,1-3.48.89,18.11,18.11,0,0,1-3.53-.12,26,26,0,0,1-2.9-.69,20.32,20.32,0,0,1-2.39-.92,20.09,20.09,0,0,1-3.58-2.17,12,12,0,0,1-1.26-1.4,20.75,20.75,0,0,1-1.75-3.29,19.77,19.77,0,0,1-.93-3.88,34.14,34.14,0,0,1,.16-7.89,46.06,46.06,0,0,1,3-9.45c.55-1.15,1.15-2.26,1.8-3.35a33.26,33.26,0,0,1,2.16-3.33c.29-.34.6-.66.92-1a10.77,10.77,0,0,1,.91-.76,13.48,13.48,0,0,1,2.05-1.1A14.72,14.72,0,0,1,74.14,84a12.32,12.32,0,0,1,2.19,0,12.94,12.94,0,0,1,2.34.73,12.23,12.23,0,0,1,2,1.18c.51.48,1,1,1.47,1.49s1.24,1.22,1.88,1.8a2.05,2.05,0,0,0,1.42.63A2,2,0,0,0,86.9,86.5c-.81-.74-1.59-1.5-2.35-2.29a13.77,13.77,0,0,0-2.45-2.12,16.86,16.86,0,0,0-3-1.45A11,11,0,0,0,75.62,80h-.43a16.54,16.54,0,0,0-2.73.31Zm12.43,41.22-.19.13.19-.13Z"/><path class="cls-1" d="M112.51,91.93c-.13,0-.25-.05-.38-.06-.32-.06-.64-.1-1-.13a5.28,5.28,0,0,0-1.53.16,8.61,8.61,0,0,0-1.41.46,16.72,16.72,0,0,0-1.8.76,11.29,11.29,0,0,0-2.83,2.06,16.21,16.21,0,0,0-2,2.65,25.62,25.62,0,0,0-1.5,2.46,30.85,30.85,0,0,0-1.32,3,33.58,33.58,0,0,0-1.7,6,15.8,15.8,0,0,0,.17,6.46,23.33,23.33,0,0,0,.85,2.73,12.09,12.09,0,0,0,.74,1.64,8.72,8.72,0,0,0,1.14,1.55c.64.69,1.33,1.33,2,2s1.24,1.59,1.94,2.32a10.74,10.74,0,0,0,6.72,3.06,15.45,15.45,0,0,0,2.72,0,23.65,23.65,0,0,0,3-.45,23.29,23.29,0,0,0,3.18-1.07,23,23,0,0,0,2.48-1.12,12.69,12.69,0,0,0,2.36-1.69,10.92,10.92,0,0,0,1-1,7.7,7.7,0,0,0,1.08-1.45,32.62,32.62,0,0,0,2.41-6c.34-1,.64-2.06.89-3.11a26.45,26.45,0,0,0,.55-3.4,14.77,14.77,0,0,0-.55-6.44c-.34-1-.71-2-1.13-3a7.64,7.64,0,0,0-1.91-2.91,33.82,33.82,0,0,0-2.72-2,18.55,18.55,0,0,0-2.4-1.4,38.36,38.36,0,0,0-3.8-1.62,12.7,12.7,0,0,0-4-.89h-.06a1.89,1.89,0,0,0-1.2.43Zm-1.21,3.83a18.84,18.84,0,0,1,2,.52,2,2,0,0,0,2-.52c.42.12.82.26,1.23.41.77.28,1.53.58,2.29.91s1.7.86,2.52,1.35,1.65,1.12,2.44,1.72c.2.18.39.36.57.55a13.7,13.7,0,0,1,1,2.08c.22.58.43,1.15.63,1.73a8.52,8.52,0,0,1,.4,1.8,20.54,20.54,0,0,1-.15,4.22,32,32,0,0,1-1.18,4.6c-.48,1.48-1,3-1.6,4.38a11.26,11.26,0,0,1-.89,1.45,14.76,14.76,0,0,1-1.64,1.52,17.37,17.37,0,0,1-3,1.49c-.72.26-1.45.54-2.19.73a17.48,17.48,0,0,1-2,.39,15.73,15.73,0,0,1-3.29,0,12.48,12.48,0,0,1-1.83-.55,10.9,10.9,0,0,1-1.32-.78c-.87-.82-1.55-1.8-2.34-2.7s-1.59-1.6-2.31-2.46a7.94,7.94,0,0,1-.68-1.29,19.56,19.56,0,0,1-1-3.89,15.26,15.26,0,0,1,.08-3.17,33.73,33.73,0,0,1,2.21-7.16A27.63,27.63,0,0,1,106,98.52a11.45,11.45,0,0,1,1.16-1.15,13.16,13.16,0,0,1,2.12-1.15,12.07,12.07,0,0,1,1.55-.48,4.35,4.35,0,0,1,.51,0Zm12.15,4.17.11.09-.11-.09Zm-.17,19.85-.06.14.06-.14Z"/><path class="cls-1" d="M140.39,100.63a7.71,7.71,0,0,0-.62,2.68c-.23,1.37-.52,2.74-.79,4.11-.13.72-.3,1.43-.43,2.15s-.26,1.56-.38,2.34c-.36,2.21-.68,4.43-1,6.65-.15,1.1-.31,2.2-.45,3.3s-.25,2.06-.39,3.09c-.09.57-.19,1.14-.29,1.71a2.24,2.24,0,0,0,.16,1.53,2.05,2.05,0,0,0,1.2,1,2,2,0,0,0,1.52-.17,1.85,1.85,0,0,0,1-1.19c.21-1.28.43-2.57.6-3.86.15-1.12.28-2.23.42-3.35.26-2,.54-4,.84-6l.39-2.38,0,.13c.24-1.56.57-3.09.86-4.63,0-.1,0-.21.05-.31.11.24.23.48.34.71.89,1.93,1.76,3.87,2.68,5.78a44,44,0,0,0,3.06,5.6,33.11,33.11,0,0,1,3.1,5.35c0,.08.07.17.11.27a18.7,18.7,0,0,0,1.86,4.16,9.3,9.3,0,0,0,2,2.08,3.43,3.43,0,0,0,1.23.63,2.47,2.47,0,0,0,1.77-.2,3,3,0,0,0,1.12-1.2,9.41,9.41,0,0,0,.8-2.71c.17-.84.28-1.7.38-2.55.16-1.42.33-2.83.54-4.24.2-1.2.47-2.37.71-3.56s.52-2.6.8-3.9.49-2.5.69-3.76.36-2.73.55-4.09a19.63,19.63,0,0,1,.6-2.86,2,2,0,0,0-3.84-1.13,24,24,0,0,0-.75,3.85c-.16,1.14-.29,2.29-.45,3.43-.23,1.38-.49,2.75-.78,4.12s-.58,2.86-.89,4.28-.61,3.07-.79,4.62c-.17,1.38-.32,2.78-.52,4.16,0,.14,0,.28-.07.42a11.53,11.53,0,0,1-.54-1.12c-.35-1-.7-1.91-1.1-2.85a20.85,20.85,0,0,0-1.41-2.69c-.55-.93-1.18-1.81-1.78-2.71s-1.06-1.76-1.56-2.67c-1-1.84-1.84-3.75-2.71-5.65s-1.79-3.88-2.7-5.81c-.31-.66-.62-1.32-.89-2a3.26,3.26,0,0,0-.32-.68,2.32,2.32,0,0,0-1.27-1,2.13,2.13,0,0,0-.6-.09,2.29,2.29,0,0,0-2,1.24Zm.32,1.6c0,.11.09.23.14.34h0c0-.11-.09-.23-.14-.34Zm0,.19,0,0,0,0Z"/><path class="cls-1" d="M173.88,102.36a2,2,0,0,0-.8,2.71,1.89,1.89,0,0,0,1.2,1c2.05.35,4.09.81,6.15,1.11,1.88.28,3.77.47,5.66.67s3.75.29,5.62.48c.89.09,1.8.15,2.7.18s1.81,0,2.71.1a1.91,1.91,0,0,0,1.41-.54,2.07,2.07,0,0,0,.63-1.42,2,2,0,0,0-2-2c-1.36-.15-2.73-.06-4.09-.17s-2.82-.22-4.22-.35c-2.82-.24-5.63-.52-8.43-.92-1.69-.28-3.36-.65-5-.93a3.68,3.68,0,0,0-.64-.07,1.77,1.77,0,0,0-.89.23Z"/><path class="cls-1" d="M186,105.78a63.6,63.6,0,0,0-1.71,6.14,44.86,44.86,0,0,0-.84,6.53c-.12,2-.06,4-.14,5.92s-.21,3.91-.35,5.86c0,.49-.09,1-.11,1.46,0,.2,0,.41,0,.61a3.6,3.6,0,0,0,.11,1.23,2.17,2.17,0,0,0,.88,1.22,2,2,0,0,0,1.54.24,2,2,0,0,0,1.22-.89,1.93,1.93,0,0,0,.25-1.5c0-1.34.13-2.69.24-4,.14-1.6.19-3.21.26-4.82s0-3.2.09-4.81.23-3,.45-4.56c.21-1.22.48-2.42.78-3.62s.78-2.57,1.18-3.85a2,2,0,0,0-1.36-2.48,2.09,2.09,0,0,0-.55-.08,2,2,0,0,0-1.93,1.43Zm.79,26.59s0,.08,0,.13a.32.32,0,0,1,0-.13Z"/><path class="cls-1" d="M211,105.94a4.5,4.5,0,0,0-.7.25,3.59,3.59,0,0,0-1.26,1.16c-.14.19-.27.39-.4.59-1.16,1.83-2.14,3.77-3.16,5.69a58.7,58.7,0,0,0-2.61,5.84c-.78,1.91-1.48,3.83-2.07,5.81q-1,3.28-2,6.56a2,2,0,1,0,3.83,1.13c.43-1.4.86-2.79,1.28-4.19s.75-2.68,1.2-4c.85-2.55,1.88-5,3-7.49.7-1.41,1.43-2.8,2.17-4.19.32-.59.64-1.19,1-1.78l.24.47c.47.9,1,1.76,1.43,2.68a7.73,7.73,0,0,1,.34,1.36c.08.45.14.91.2,1.36.11.84.22,1.69.4,2.52.39,1.77.83,3.54,1.39,5.27s1.17,3.19,1.57,4.85c.2.84.39,1.67.6,2.51.08.35.19.71.26,1.07a3.42,3.42,0,0,0,.74,1.8,2,2,0,0,0,3.24-2.29c-.07-.3-.12-.61-.2-.91-.12-.5-.25-1-.37-1.51-.2-.88-.4-1.78-.66-2.65s-.65-2-1-2.94-.64-2-.92-3a40.22,40.22,0,0,1-1.21-6c-.07-.54-.15-1.07-.26-1.6a8.22,8.22,0,0,0-.75-2.1c-.44-.87-.94-1.7-1.39-2.56-.2-.38-.38-.76-.57-1.15a11.43,11.43,0,0,0-.7-1.4,2.82,2.82,0,0,0-.8-.85,3.26,3.26,0,0,0-.68-.32,1.42,1.42,0,0,0-.57-.09,2.61,2.61,0,0,0-.59.06Zm1.33,3.72h0Z"/><path class="cls-1" d="M210.71,118c-.85,0-1.7,0-2.56.09-1.11.08-2.23.21-3.34.36a1.92,1.92,0,0,0-1.21.89,2,2,0,0,0-.25,1.54,2,2,0,0,0,.89,1.21,2.16,2.16,0,0,0,1.53.25l1.07-.15c1.43-.13,2.85-.18,4.28-.2s3-.12,4.49-.06a2,2,0,0,0,2-2,2,2,0,0,0-2-2l-1.18,0c-1.26,0-2.53.07-3.79.09Z"/><path class="cls-1" d="M240.22,104.05a7.41,7.41,0,0,0-1.58.43,9.24,9.24,0,0,0-1.59.75c-.49.31-1,.65-1.43,1a21.09,21.09,0,0,0-2.06,1.72,15,15,0,0,0-2.1,2.48,19.08,19.08,0,0,0-1.55,3.14,24.79,24.79,0,0,0-1.69,6.33,16.46,16.46,0,0,0,3,11.52c.19.26.37.51.58.75a6.68,6.68,0,0,0,.8.7c.29.23.6.45.91.66a8.77,8.77,0,0,0,1.27.71,29.77,29.77,0,0,0,3.14,1.32,13.19,13.19,0,0,0,1.76.52,10.7,10.7,0,0,0,3.57,0,16,16,0,0,0,3.5-1,25.63,25.63,0,0,0,2.4-1.05,8.17,8.17,0,0,0,2.25-1.56,2,2,0,0,0,.08-2.83,2,2,0,0,0-2.82-.08l-.47.43a17.62,17.62,0,0,1-2.76,1.35,16.38,16.38,0,0,1-3.22.9,9.63,9.63,0,0,1-1.61,0,19.76,19.76,0,0,1-3.41-1.21,13,13,0,0,1-2.22-1.32,4.29,4.29,0,0,1-.46-.49,16.83,16.83,0,0,1-1.56-2.86,20,20,0,0,1-.79-3.23,15.28,15.28,0,0,1,.07-3.17c.16-.9.37-1.79.62-2.68a26,26,0,0,1,1-2.84,14.66,14.66,0,0,1,1.34-2.38,20.06,20.06,0,0,1,3-2.76,12.41,12.41,0,0,1,1.73-1,8.78,8.78,0,0,1,1.25-.31,6.49,6.49,0,0,1,.76,0,18.38,18.38,0,0,1,3.27,1.07,2,2,0,0,0,1.52-.16,2,2,0,0,0,.8-2.72,2.1,2.1,0,0,0-1.19-1,18.39,18.39,0,0,0-3.06-1c-.37-.07-.76-.15-1.14-.19l-.55,0a9.3,9.3,0,0,0-1.38.12Zm-.5,4.26-.12,0,.12,0Zm-5.93,6.28-.06.12.06-.12Zm.86,14.79a1,1,0,0,0,.08.11,1,1,0,0,1-.08-.11Z"/><path class="cls-1" d="M284.83,100.5a69.83,69.83,0,0,0-7.08.54c-2.65.25-5.32.45-8,.62-1.45.1-2.88.23-4.3.4s-2.86.46-4.28.7a2,2,0,0,0-.57,3.64,2.1,2.1,0,0,0,1.53.25c1.63-.28,3.25-.57,4.89-.77,1-.1,2-.17,2.95-.24s2.11-.17,3.17-.24c2.18-.15,4.35-.34,6.53-.59,1.68-.17,3.38-.29,5.07-.31a2,2,0,0,0,.09-4Z"/><path class="cls-1" d="M274.83,103.82c-.35,1.4-.67,2.8-.95,4.21s-.48,3-.7,4.44c-.37,2.62-.67,5.26-1.05,7.89a30.61,30.61,0,0,0-.58,5.48c0,.82.11,1.64.1,2.46s-.1,1.72-.06,2.59a2.15,2.15,0,0,0,.55,1.41A2,2,0,0,0,275.6,131a16.67,16.67,0,0,1,0-1.87,17.36,17.36,0,0,0,0-2,21,21,0,0,1,.15-4.27c.31-2,.61-3.91.85-5.88s.53-4,.81-5.94.77-4,1.26-6a2,2,0,0,0-1.36-2.49,1.9,1.9,0,0,0-.54-.07,2,2,0,0,0-1.94,1.43Z"/><path class="cls-1" d="M337.53,63.49a15.31,15.31,0,0,1-2.32,2.16c-.62.35-1.28.64-1.93.93s-1.3.52-1.95.77c-1.26.48-2.52.94-3.78,1.39s-2.34.76-3.5,1.17l-1.8.66c-.64.25-1.29.46-1.93.71a1.75,1.75,0,0,0,1.45,3.19c.69-.28,1.41-.51,2.1-.78s1.48-.54,2.23-.8c1.51-.51,3-1,4.52-1.55s3-1,4.45-1.73A13.34,13.34,0,0,0,337.94,68a20.18,20.18,0,0,0,1.81-1.77,1.89,1.89,0,0,0,.63-1.21,1.75,1.75,0,0,0-.39-1.26,1.78,1.78,0,0,0-1.21-.63h-.14a1.6,1.6,0,0,0-1.11.39Z"/><path class="cls-1" d="M338.66,74.11l-2.13,1.39a22.77,22.77,0,0,1-2,1.14c-.86.42-1.73.82-2.61,1.19s-1.74.77-2.62,1.1-1.7.59-2.55.86c-1.8.55-3.61,1.08-5.42,1.61l-2.57.77-1.31.39c-.59.18-1.18.33-1.75.56a1.75,1.75,0,0,0-.86,2.32,1.78,1.78,0,0,0,2.32.86l.36-.14c3.33-1,6.67-2,10-3,.92-.28,1.86-.56,2.77-.9s1.8-.73,2.69-1.11a35.55,35.55,0,0,0,5-2.46c1-.62,2-1.26,3-1.9a1.68,1.68,0,0,0,.63-1.21,1.75,1.75,0,0,0-.39-1.26,1.78,1.78,0,0,0-1.21-.63h-.14a2,2,0,0,0-1.11.39Zm-1.85,1.22-.22.13.22-.13Z"/><path class="cls-1" d="M337.48,86.84c-1,.33-2,.64-2.92,1s-1.72.59-2.58.87c-1.15.35-2.31.66-3.45,1a1.68,1.68,0,0,0-.92,1A1.76,1.76,0,0,0,328.67,93,1.88,1.88,0,0,0,330,92.9l.55-.18c1.41-.42,2.83-.83,4.23-1.32s2.78-.9,4.16-1.38a1.63,1.63,0,0,0,.92-1,1.7,1.7,0,0,0-.05-1.31,1.76,1.76,0,0,0-1-.92,1.47,1.47,0,0,0-.54-.1,2.34,2.34,0,0,0-.77.15Zm-6.65,5.79-.25.08.25-.08Z"/><path class="cls-1" d="M336.16,100.56c-1.13.57-2.27,1.16-3.43,1.67a34.14,34.14,0,0,1-3.49,1.31l.14,0c-1,.31-2.07.64-3.12.89s-2.42.54-3.63.75l-3.31.62c-1.12.2-2.23.33-3.36.46h.15a1.74,1.74,0,0,0-1.32,2.85,1.65,1.65,0,0,0,1.21.63c.52,0,1-.08,1.56-.14s.88-.09,1.32-.16c.8-.13,1.6-.27,2.39-.43,1.73-.34,3.47-.61,5.18-1,1.88-.46,3.74-1,5.56-1.65a43.54,43.54,0,0,0,4.84-2.16l.77-.39a1.77,1.77,0,0,0,.86-2.32,1.83,1.83,0,0,0-1.62-1,1.57,1.57,0,0,0-.7.17Z"/><path class="cls-1" d="M334.66,109.27a26.9,26.9,0,0,1-2.54,1.36,21.06,21.06,0,0,1-2.32.91c-1.45.45-2.88.94-4.32,1.44a1.68,1.68,0,0,0-.92,1,1.73,1.73,0,0,0,.06,1.32,1.74,1.74,0,0,0,1,.92,1.85,1.85,0,0,0,1.31-.06c1.11-.38,2.22-.77,3.34-1.13,1-.3,1.89-.62,2.82-1a26.26,26.26,0,0,0,3-1.58,1.88,1.88,0,0,0,.92-1,1.73,1.73,0,0,0,0-1.32,1.77,1.77,0,0,0-1-.92,1.85,1.85,0,0,0-.63-.11,1.33,1.33,0,0,0-.69.17Zm-4.5,2.16-.26.08.26-.08Z"/><path class="cls-1" d="M334.78,120.12c-1.19.24-2.38.49-3.55.78s-2.29.56-3.46.74a1.75,1.75,0,0,0,.6,3.45c1.16-.18,2.31-.46,3.45-.74s2.37-.54,3.56-.78a1.75,1.75,0,0,0-.29-3.48,1.63,1.63,0,0,0-.31,0Z"/><path class="cls-1" d="M3.85,58.64a1.78,1.78,0,0,0,.93,2.3c1.44.62,2.91,1.16,4.35,1.8.69.31,1.37.65,2.06,1a20.18,20.18,0,0,0,2,.74c3.08,1,6.14,2.1,9.19,3.2a1.75,1.75,0,1,0,1.36-3.22c-3.05-1.1-6.11-2.19-9.18-3.21a35.59,35.59,0,0,1-4-1.67c-1.44-.67-2.94-1.2-4.4-1.83a1.7,1.7,0,0,0-.66-.14,1.78,1.78,0,0,0-1.63,1.07Z"/><path class="cls-1" d="M1.92,70.34a1.76,1.76,0,0,0,.93,2.29L8,75c.76.35,1.52.71,2.29,1s1.74.62,2.61.93c1.76.61,3.52,1.19,5.27,1.82a36.74,36.74,0,0,0,5.66,1.46c1.33.27,2.66.52,4,.76s2.78.39,4.17.63a1.75,1.75,0,0,0,2-1.48,1.77,1.77,0,0,0-1.48-2c-1-.17-1.93-.29-2.89-.43s-2-.32-2.94-.5c-1.87-.35-3.74-.71-5.59-1.17-1.37-.43-2.71-.94-4.07-1.41L12.54,73.1a42.8,42.8,0,0,1-4-1.72c-1.44-.65-2.87-1.32-4.32-2a1.54,1.54,0,0,0-.66-.14,1.78,1.78,0,0,0-1.63,1.07Z"/><path class="cls-1" d="M3.8,82.64a1.75,1.75,0,0,0,.93,2.29c.91.34,1.84.67,2.74,1s1.72.8,2.59,1.2,1.72.77,2.61,1.1a22.63,22.63,0,0,0,3.26.85,1.75,1.75,0,0,0,2-1.48,1.78,1.78,0,0,0-.33-1.3,1.83,1.83,0,0,0-1.15-.68c-.5-.11-1-.21-1.49-.33a30.08,30.08,0,0,1-4.17-1.69c-.74-.35-1.48-.7-2.24-1S6.91,82,6.09,81.71a1.77,1.77,0,0,0-.67-.13A1.71,1.71,0,0,0,3.8,82.64Z"/><path class="cls-1" d="M10.15,100a1.75,1.75,0,0,0-.05,3.24c2.32.8,4.66,1.54,7,2.19l-.43-.11.4.11a1.87,1.87,0,0,0,1.32,0,1.74,1.74,0,0,0,1-1,1.75,1.75,0,0,0-.93-2.29c-.42-.13-.85-.25-1.28-.36l.43.11q-3.09-.89-6.14-1.94a2.28,2.28,0,0,0-.72-.13,1.59,1.59,0,0,0-.6.11Z"/><path class="cls-1" d="M8.71,114.71a1.77,1.77,0,0,0,.93,2.3c1.74.73,3.48,1.48,5.25,2.11,1,.35,2,.6,3,.86l2.54.68q1.35.41,2.67.87a1.79,1.79,0,0,0,2.3-.93,1.77,1.77,0,0,0-.93-2.3c-2.18-.76-4.4-1.34-6.63-1.93a31.31,31.31,0,0,1-3.13-1.09c-1.23-.49-2.45-1-3.66-1.5a1.79,1.79,0,0,0-2.3.93Z"/></g></g></svg>