<svg xmlns="http://www.w3.org/2000/svg" viewBox="0 0 349.4 170.9" xmlns:v="https://vecta.io/nano"><g fill="#fff"><path d="M153 65.8c.6 0 1.2-.1 1.8-.2l1.7-.6c.7-.3 1.3-.5 1.9-.9 1.8-.9 3.5-2 5.3-3l5.6-3.5 7-4.6-.9.6 11.2-8.1L189 44c2.8-1.9 5.7-3.6 8.7-5 3.1-1.5 6.3-2.8 9.3-4.5a90.04 90.04 0 0 0 4.1-2.5c1.4-.9 2.9-1.6 4.3-2.4 3.3-1.9 6.5-4 9.6-6.4.9-.8 1.4-1.9 1.4-3s-.4-2.2-1.1-3c-.8-.8-1.9-1.3-3-1.4-1.1 0-2.2.4-3 1.1l-1.4 1c-2.6 1.8-5.2 3.4-8 4.9s-5.5 3.4-8.3 4.9-6 2.8-8.9 4.3c-3.2 1.6-6.2 3.5-9.1 5.5l.6-.4c-.9.6-1.8 1.2-2.7 1.9l.9-.6c-3 2.1-6 4.3-9 6.5l-2.5 1.7c-1.7 1.2-3.5 2.3-5.3 3.4s-3.2 2.1-4.9 3.1c-2.4 1.5-4.8 2.9-7.4 4.1-.3.1-.5.1-.8.2h.2c-.9.1-1.7.4-2.3 1-.8.8-1.3 1.9-1.4 3 0 1.1.4 2.2 1.1 3 .7.7 1.7 1.2 2.9 1.4h0zm.4-8.6h0zm29.7-19.4l.2-.2-.2.2z"/><path d="M209.4 75.4l11-.3c3.6-.2 7.4-.7 11-1h.4c1.7-.2 3.4-.3 5.1-.4s3.6-.3 5.4-.3c1.9 0 3.9.1 5.9 0l5.4-.3a49.54 49.54 0 0 0 5.4-.6c2-.3 4-.8 6-1.2l6.2-1.2c2.1-.4 4-.6 5.9-.9 1.8-.3 3.6-.6 5.4-1s3.5-.9 5.2-1.3l13.6-3.1c2.7-.6 5.4-1.1 8.1-1.8l7-2h-.1c2.2-.6 4.4-1.2 6.6-2 2-.7 4.1-1.3 6.1-2s4-1.2 6-1.8c2.4-.8 4.8-1.8 7.2-2.8 2.2-.8 3.3-3.3 2.5-5.5s-3.3-3.3-5.5-2.5c-2.2.9-4.4 1.9-6.6 2.6-2 .7-4 1.2-6 1.8s-4 1.2-6 1.9-4.2 1.4-6.3 2h.1c-3 .7-5.9 1.7-8.9 2.5l-12.3 2.7c-2 .4-3.9.9-5.8 1.3s-3.6.9-5.5 1.4c-3 .7-5.9 1.2-8.9 1.7-1.7.3-3.4.5-5.1.8s-3.6.7-5.5 1.1c-3.2.7-6.4 1.2-9.6 1.4-3.1.2-6.1.4-9.2.4-.9 0-1.8-.1-2.7 0s-1.7 0-2.7.1c-1.9.1-3.9.3-5.8.4-3.7.3-7.4.8-11.1 1.1-1.9.2-3.9.2-5.8.2l-5.3.1c-3.5.1-7.1.1-10.6.1-1.1 0-2.1-.1-3.1-.1H195c-2-.1-4.1-.3-6.1-.4-2.2-.2-4.4-.3-6.6-.4-4-.2-8.1-.6-12.1-1-4.2-.4-8.4-1-12.6-1.6-2-.3-4.1-.5-6.1-.8s-3.9-.5-5.9-.6c-4.1-.2-8.1-.7-12.1-1.4l-11.8-2.1c-3.9-.8-7.8-1.8-11.7-2.7L98 53c-2.7-.7-5.3-1.4-7.9-2.2-2.4-.8-4.9-1.5-7.3-2.3s-4.9-1.9-7.4-2.7-4.9-1.5-7.4-2.4c-1.2-.4-2.3-.9-3.5-1.3l-4.9-1.5 1.1.3c-1.9-.6-3.8-1-5.7-1.6-3.2-1.1-6.3-2.6-9.5-3.9-3.7-1.5-7.6-2.5-11.4-4-3.3-1.3-6.5-2.8-9.7-4.3l-8.9-4c-2.2-.8-4.6.4-5.4 2.6-.7 2 .2 4.1 2 5.1l9.1 4.1c3.4 1.5 6.8 3.1 10.3 4.5 3.8 1.5 7.8 2.4 11.6 4 3.7 1.8 7.5 3.3 11.5 4.4l2.3.6-1.1-.3c1.2.4 2.4.7 3.6 1.1l5.2 1.8c1.9.7 3.8 1.3 5.8 1.9 3.9 1.2 7.6 2.8 11.5 4 4.3 1.4 8.6 2.7 12.9 3.8l12.1 3c4 .9 7.8 2 11.7 2.8s7.8 1.4 11.8 2.1 8 1.3 12.1 1.6c2 .2 4 .2 6 .5l5.8.8c3.3.4 6.6.9 9.9 1.4s6.7.7 10.1.9c1.7.1 3.3.3 5 .4l5.3.3c3.5.2 6.9.6 10.4.7h2.9c2.1.1 4.2.1 6.3.1 1.5.2 3.4.2 5.2.1h0z"/><path d="M194.4 75.3h0zm120-23.6l-.3.1.3-.1zm23 96.7c1.1-.1 2.1-.7 2.8-1.5.7-.9 1.1-2 1-3.2-.1-.7-.2-1.3-.2-2 0-.9.1-1.7.2-2.6.1-1.2.3-2.4.5-3.7.1-.5.1-1.1.1-1.6s.2-1.2.2-1.8l.2-4c0-1.4.1-2.5.2-3.8.1-1.7 0-3.4 0-5.1l.5-5.8.4-6.7v.5l.3-3.9.5-4.3.4-4.2c0-1.4.1-2.7.2-4v.1-.2l.4-6.2.5-6.5c.3-3.6.9-7.1 1.7-10.6.4-1.4.6-2.9.8-4.3.1-.7.3-1.4.4-2.1l.3-2.3c.2-1.4.3-2.8.3-4.2 0-1.5-.3-2.9-.7-4.3l-1.5-3.8c-.8-2.2-3.2-3.4-5.4-2.6s-3.4 3.2-2.6 5.4c0 .1 0 .1.1.2l.9 2.3.6 1.5c.1.4.1.8.1 1.2 0 .3 0 .6.1.9-.1.7-.2 1.5-.2 2.2a26.29 26.29 0 0 1-.6 3.9c-.3 1.2-.4 2.4-.6 3.6-.3 1.5-.8 2.9-1 4.4l-.6 4.3c-.2 1.8-.5 3.6-.6 5.4s-.2 3.8-.4 5.6-.3 3.7-.3 5.6c0 1.2-.1 2.4-.2 3.6-.1 1.5-.3 2.9-.5 4.4l-.6 4.6c-.1 1.3-.2 2.7-.2 4.1-.1 2.2-.4 4.5-.5 6.7-.1 1.3-.3 2.6-.4 3.8-.1 1.6 0 3.1 0 4.7l-.3 6.7v-1.1c-.1 1.5-.2 3-.4 4.5s-.3 3-.5 4.5c-.2 1.3-.3 2.6-.3 4-.1 1.3 0 2.6.2 3.8.1 1.1.7 2.1 1.5 2.8.8.6 1.7 1 2.7 1h.4l.1.1z"/><path d="M211.6 170.5c3.6-.3 7.1-.1 10.7-.3 4-.2 7.9-.3 11.8-.7 2.1-.2 4.2-.5 6.3-.7 1.9-.1 3.7-.1 5.6-.2s3.7-.1 5.6-.2 3.8-.1 5.7-.3l5.9-.5 6.1-.6c1.8-.2 3.6-.5 5.4-.8s3.6-.5 5.4-.7c3.9-.5 7.8-1.1 11.6-1.9 3.2-.7 6.3-1.7 9.4-2.7 1.6-.5 3.2-.9 4.9-1.3l4.2-1.2c1.1-.3 2.3-.6 3.4-.8l5-1.2 5.2-1.3c1.6-.4 3.1-.9 4.7-1.5 1.7-.7 3.4-1.5 5-2.4 1.5-1 3-2.1 4.3-3.3a4.59 4.59 0 0 0 1.7-2.8c.4-2.3-1.2-4.5-3.6-4.9-1.1-.2-2.2.1-3.1.7-1.5 1.3-3 2.5-4.7 3.5-3.1 1.4-6.4 2.6-9.8 3.3-1.4.3-2.8.6-4.1 1l-5.5 1.3-9.3 2.5c-2.9.8-5.7 1.8-8.6 2.5-3.6.8-7.3 1.4-11 1.9-1.8.2-3.6.4-5.5.7s-3.6.6-5.4.8l-12 1.1-5.7.3c-1.9.1-3.7.2-5.6.2s-3.5 0-5.3.1a60.94 60.94 0 0 0-6 .6c-2 .3-3.8.4-5.8.5l-5.6.3c-3.4.2-6.8.1-10.1.2-2 .1-4.1.3-6.1.4s-3.8.1-5.7.1c-2.7-.1-5.4-.1-8.2-.1l-11.2-.2h-11.2c-1.3-.1-2.7-.1-4-.1l-12-.6c-4-.2-8.2-.7-12.4-1-2.1-.2-4.2-.4-6.3-.7s-4.2-.4-6.3-.5c-1.8-.1-3.6-.1-5.4-.3l-5.6-.6-6-.6c-2-.2-3.9-.4-5.8-.7-4.2-.5-8.4-.6-12.6-1.2l-24.6-4.2-8.7-1.7c-1.5-.3-2.9-.7-4.3-1.1l-4.3-1.2c-1.4-.4-2.6-.8-3.9-1.2-3.8-1.2-7.7-2.2-11.6-3-2-.4-4-.8-6-1.3-1.7-.4-3.3-.9-5-1.4-1.4-.4-2.8-.9-4.1-1.4s-3-.9-4.5-1.4c-2.5-.9-5-1.9-7.4-3-2.1-1-4.7-.1-5.6 2.1-1 2.1-.1 4.7 2.1 5.6h.1c2.5 1.1 5 2.1 7.6 3l4.7 1.5c1.9.7 3.8 1.3 5.8 1.9 3.3 1 6.7 1.8 10.1 2.5s6.5 1.4 9.8 2.3l3.8 1.2c2.1.7 4.3 1.2 6.4 1.8 2 .5 3.9 1.1 5.9 1.5l12.1 2.3 13 2.3c3.9.6 7.8 1.3 11.8 1.7l6.5.5c2 .2 4 .5 5.9.7l5.8.6 6 .7c3.8.4 7.5.3 11.3.7l6.4.7 6.3.6c3.6.4 7.2.6 10.9.8l11.7.5h-1.1c4.1.1 8.1.1 12.2.1l10.6.1h-1.1l10.4.2c1.4 0 2.8.1 4.1.1 2.7.2 5.5.1 8.5-.2h0z"/><path d="M10.2 141.3c1.3-.9 2-2.5 1.8-4.1.1-.5.1-1 .1-1.5s-.1-1-.2-1.4c0-.2-.1-.5-.1-.7l-.3-1.2c-.1-.4-.1-.6-.2-.9s-.1-.6-.1-.9c-.1-.6-.3-1.1-.4-1.6l-.4-1.7c-.1-.4-.1-.8-.1-1.2s.1-.7.1-1c.1-.8.1-1.7.1-2.6l-.2-3v1.1-1.8c0-.6.1-1.2.1-1.8.1-.7.1-1.5.1-2.2v-1.2l-.7-4.9-.7-5.1c-.1-.9 0-1.8-.2-2.8-.1-.4-.2-.8-.2-1.2V99c0-.7.1-1.3.1-1.9v-.9l-.1-5.1c.1-1 .1-1.9.1-2.9v.2l.3-3.3c.1-1.5.1-2.9 0-4.4v-3l.3-3.8c.1-1.5 0-3.1 0-4.6L8.9 62v1.1l.1-2.2v-6.1c-.1-1.3 0-2.5 0-3.8l.1-2.2a30.34 30.34 0 0 1 .6-4.2l1-4.2.4-1.2c.5-1.4 1.1-2.8 1.8-4.1l1.2-2.6c.2-.3.5-.6.7-.9.4-.6.8-1.2 1.1-1.9l.1-.1c.6-.5 1.2-.9 1.9-1.3 1-.6 1.9-1.4 2.9-2l4.1-2.2c1.4-.7 2.7-1.7 4-2.4l-.3.3 5.9-3.5 2.9-1.4c1.2-.6 2.5-1.1 3.7-1.6l3.4-1.1c1.1-.4 2.1-.7 3.2-.9s2.2-.6 3.3-1l3.2-1c1.1-.4 2.2-1 3.3-1.6L61.2 8c1-.3 1.8-1 2.3-2 .9-2.1 0-4.6-2.1-5.6-1-.5-2.2-.5-3.3-.1l-4.3 2.2c-1.3.7-2.7 1.3-4.1 1.7l-4.1 1.2-4 1.2L37.4 8l-4.5 2c-3 1.4-5.8 3.2-8.6 4.8-1.2.6-2.3 1.3-3.4 2s-2.1 1.2-3.2 1.8l-1.9 1c-.7.4-.9.6-1.4.9s-.8.6-1.3.8-.8.5-1.1.7c-.9.6-1.7 1.2-2.4 2-.6.7-1.1 1.5-1.5 2.3l-.3.4c-.4.6-.8 1.1-1.1 1.7l-1.2 2.3-1.2 2.6-.7 1.7c-.3.7-.5 1.5-.7 2.2l-1.6 6.3-.5 2.9c-.1 1.2-.1 2.3-.1 3.5v.8l-.2 5.1v5.6C.4 65 1 68.6 1 72.2c0 1.9-.3 3.8-.3 5.7v-1.1c0 1-.1 2-.1 2.9v-1.1 4.5c0 .8-.2 1.6-.2 2.4-.1 1-.1 2-.2 3C.1 90 0 91.3 0 92.6s.1 2.4.1 3.6v.8c0 1-.1 2-.1 3 0 .7.3 1.5.3 2.2.1 1.7.2 3.3.4 4.9.5 2.8.9 5.5 1.1 8.3 0 .6-.1 1.2-.1 1.8 0 1 0 2-.1 2.9v-.1c0 .7 0 1.3.1 2 0 .5.1 1 .2 1.5-.1 1.1-.2 2.2-.1 3.4 0 .8.2 1.7.4 2.5.1.3.2.5.2.8.1.5.2 1 .4 1.6-.1-.4-.2-.7-.2-1.1.1.4.2.7.3 1.1s.1.8.2 1.2c.1.6.2 1.2.4 1.7v.3c0 .4.1.7.2 1.1v.1c-.2.6-.2 1.2-.1 1.8a5.05 5.05 0 0 0 .9 2.3 4.59 4.59 0 0 0 2.8 1.7c.2 0 .4 0 .6.1.7-.1 1.6-.3 2.3-.8h0zm1.6-3.2h0zm-.9-8.4l-.1-.5c0 .1.1.3.1.5h0zM9.1 77.2v-.5.5zm2.1-38.6c0-.1.1-.2.1-.3 0 .1 0 .2-.1.3zM234.1 74c.2 0 .4-.1.7-.1h3.9l2.5-.9c.5-.3 1.1-.4 1.7-.7s1.1-.4 1.7-.7c1.1-.4 2.2-.9 3.3-1.4l3.4-1.5 4.1-1.7c3.7-1.3 7.2-3.2 10.8-4.8 1.9-.8 3.9-1.5 5.9-2.3s3.6-1.7 5.4-2.4c1.6-.7 3.2-1.5 4.9-2.1l5.6-2.1c1.9-.7 3.6-1.2 5.4-1.8 1.5-.5 3-1.2 4.6-1.7l5.1-1.7c1.7-.6 3.3-1.2 5-1.6l.4-.1-1.1.2c2.1-.5 4.1-1.1 6.1-1.8 1.8-.6 3.6-1.2 5.5-1.7 1.6-.3 3.3-.5 5-.5h.2c.8 0 1.5.1 2.2.2s1.6.1 2.5.1 1.5 0 2.3.1c.5 0 1 .1 1.4.2.7.3 1.4.6 2.1 1 .2.1.3.3.5.4l1.1 1.2c-.2-.2-.3-.4-.5-.5 1.4 1.5 2.5 3.3 3.7 4.9a4.18 4.18 0 0 0 5.9.9c1.9-1.4 2.3-4 1-5.9l-2.5-3.5a16.32 16.32 0 0 0-1.7-2c-.6-.8-1.3-1.6-2.1-2.2-1-.6-2-1.2-3-1.7-1.3-.6-2.6-1-4-1.2s-2.8-.2-4.2-.2c-.6 0-1.1-.1-1.7-.2-1.1-.1-2.3-.1-3.4-.1h1.1c-1.7-.1-3.4 0-5.2.2-1.8.3-3.6.8-5.3 1.3-2.6.7-5 1.7-7.6 2.4-1.8.4-3.5 1-5.3 1.6-1.6.6-3.2 1.1-4.9 1.7s-3.3 1.1-4.9 1.8-3.3 1.2-4.9 1.7c-2 .7-3.9 1.3-5.9 2.1l-2.4.9c-.9.3-1.7.8-2.5 1.2-1.7.8-3.5 1.5-5.2 2.3-2 .9-4 1.6-6 2.4s-3.8 1.7-5.8 2.6c-1.7.8-3.4 1.6-5.1 2.3l-4.6 1.8c-1.1.5-2.3.9-3.5 1.4s-2.2 1.1-3.4 1.5-2.2.9-3.3 1.3c-.9.3-1.7.7-2.6 1s-1.9.6-2.8 1l-.6.2c-2.2.8-3.3 3.3-2.4 5.5.3.8.8 1.5 1.5 1.9h.8c.3.1.7 0 1.1-.2zm-88.7-4.1l1.9-1.2.6-.3 1.6-.9-.8.4.1-.1-.4.2c2.1-1.1 4.1-2.4 6.1-3.6l1.3-.7-.5.3.9-.5 1.1-.6-.2.1.3-.2 1.2-.6 2-1.1 1.9-1-.4.2.5-.3.4-.2v.2l.6-.3-.7.4-.2.1 8.4-4.8-1 .5 5.4-3.1 4.4-2.3 4.4-2.6c1-.5 2-1.1 3-1.7l2.8-1.6c5-2.7 9.8-5.8 14.8-8.6 2.4-1.3 4.9-2.5 7.3-3.8 2.1-1.2 4.2-2.5 6.3-3.6l2.6-1.4c.6-.4 1.2-.7 1.8-1.1l2.4-1.2c.8-.4 1.3-.8 2-1.2l.2-.1.1-.1h-.1c1-.5 2-1.1 2.9-1.8.5-.4 1-.8 1.6-1.2.7-.4 1.3-.8 1.9-1.3.9-.7 1.5-1.6 1.7-2.7.4-2.3-1.2-4.5-3.6-4.9-1.1-.2-2.2.1-3.1.7-1.1.9-2.2 1.5-3.3 2.4-.9.7-1.8 1.2-2.7 1.8-.5.3-1.1.6-1.6.9l-1 .6c-.8.4-1.7.8-2.5 1.3s-1.4.9-2.2 1.3c-1.4.7-2.8 1.5-4.2 2.3l-5.8 3.4c-1.3.7-2.7 1.3-4 2-1.9 1-3.8 2.1-5.7 3.2l-4.5 2.7c-1.3.8-2.6 1.6-3.9 2.3l-2.9 1.5c-1 .5-2 1.2-3.1 1.8-1.5.8-3 1.6-4.5 2.6-.9.5-1.8 1.1-2.7 1.6-1.6.8-3.2 1.6-4.7 2.5-1 .6-2 1.2-3.1 1.8l.4-.2c-2.8 1.5-5.6 3.2-8.4 4.8l-.6.4-2.4 1.3.1-.1-1.7.9-.2.1-2.3 1.2 1-.5-.5.3c-.8.4-1.6.8-2.4 1.3-.6.3-1.1.7-1.6 1-1.1.6-2.1 1.3-3.2 1.9l-.7.4 1-.5-1.5.8 1-.5-.9.5c-.6.3-1.2.7-1.8 1s-1 .7-1.5 1a4.18 4.18 0 0 0-.9 5.9c.8 1.1 2 1.7 3.4 1.7 1-.4 1.8-.6 2.6-1.1h0zm17.2-9.7h0zm-32.6-.1l2.8-1.8 2.4-1.6.8-.5 3.5-2.2 3.5-2.3-.1.1.2-.1 3.3-1.9 3.6-2.2h-.1l.3-.2.2-.1-.2.1.2-.1-.1.1 4.8-3.3 2.2-1.6 2.2-1.5 3.7-2 4.1-1.9 2.1-1c.7-.3 1.4-.7 2.1-1.1l4.2-2.1c1-.5 2-1.2 2.9-1.8l-.3.2.9-.6-.1.1 2.7-1.8c.2-.1.4-.2.5-.4l.2-.1-.1.1.1-.1c.1 0 .2-.1.3-.2l3.3-2c1.1-.7 2.4-1.7 3.5-2.6.6-.5.7-1.5.2-2.1s-1.5-.7-2.1-.2l-3.5 2.6-2.5 1.5c-.3.1-.5.3-.7.5l-.2.1c-.1.1-.2.1-.4.2l-2.9 1.9.1-.1-.2.1-.1.1.1-.1-.6.4-1.8 1.1-2.1 1.1-4.3 2.2c-1.4.8-2.8 1.4-4.2 2.1l-4.1 2c-2 1.1-3.8 2.3-5.6 3.6l-5.5 3.9-.6.4-.1.1h.1l.3-.2-.3.2-.4.2-.2.2-5.3 3.2c-1.1.6-2.1 1.3-3.1 2l-2.5 1.5-3.3 2.1h.1l-4.1 2.7-.9.5c-.4.2-.6.5-.8.8-.3.8.1 1.6.9 1.9.2.1.4.1.5.1.2-.1.4-.1.5-.2h0zm18-15l.2-.1.1-.1-.3.2zm0 0l.1-.1-.1.1zm.3-.2l.2-.1-.2.1zm30.4-14.1h0zm1.9-4.9h0zm3.5-2.1h0zm-6.9 4.4h0zm-28.5 16.6h0zm1.2 2.7l.2-.1-.2.1zm-.2.1h0zm-6.7 4.1h0z"/><path d="M116.6 57.5l1.2-.6c.4-.2 1-.7 1.5-1l2.6-1.8 2.5-1.8 2.5-1.7 2.6-1.7-.3.2 4-2.3c.6-.4 1.3-.7 1.9-1.1l2-1.2 4.2-2.8 3.7-2.6 3.9-2.6 5-3 2.5-1.4 3-1.9-.3.2 7.6-5 4.5-2.8c.4-.2.6-.5.8-.9.1-.4.1-.8-.1-1.1-.2-.4-.5-.6-.9-.8-.4-.1-.8-.1-1.1.1l-6.1 3.8-5.6 3.8-1 .6-3.9 2.4-3.9 2.3-4.1 2.6-4 2.7-2.5 1.8c-.8.6-1.6 1.1-2.4 1.6l-2.1 1.3-2.3 1.4c-.8.5-1.6.9-2.4 1.3s-1.7 1-2.5 1.6l.3-.2-3 1.9c-1 .6-1.9 1.3-2.9 2l-2.7 1.9-2.4 1.7c-.3.2-.7.3-1.1.5-.7.4-1.1 1.3-.7 2 .3.5.8.9 1.4.9l.6-.3zm10.1-6.8l.2-.1-.2.1zm9.6-9.3l.2-.2-.2.2zm21.8-14.1l.2-.1-.2.1zm8.6-2.1l.1-.1c-.1 0-.1 0-.1.1zm-66 28.9c.6-.3 1.1-.7 1.7-1a27.55 27.55 0 0 1 2.9-1.7l2.9-1.5 5.9-3.6 7.4-4.6 3.1-2 3.2-2.1 6.1-4.1 6-3.8 5.6-4 3-1.8c1.2-.7 2.3-1.5 3.5-2.3.3-.2.5-.6.5-1 .1-.8-.6-1.5-1.4-1.6-.4 0-.8.1-1.1.4-.7.4-1.3.9-2 1.3-.9.6-1.8 1.1-2.8 1.6s-2.1 1.3-3.2 2l-2.8 2.1-2.7 1.8-3.4 2.1L129 33l-7 4.7-3.5 2.2-3.8 2.3-4.2 2.7-5 2.8-5 2.9.1-.1-.3.3h.1l-1 .6c-.4.2-.6.5-.8.8-.3.8.1 1.6.9 1.9a.9.9 0 0 0 .5.1c.3 0 .5 0 .7-.1h0zm47-33.2l.2-.1-.2.1zm-47.3 29.8h0zm-15.6-.3c.7-.3 1.4-.7 2.1-1.1s1.3-.7 2-1l4.2-2 4-2 4.3-2.8c1.2-.8 2.3-1.7 3.4-2.6s2.3-1.6 3.5-2.4l4-2.8 3.3-2.3 5-3.2 4.8-3.3a27.55 27.55 0 0 1 2.9-1.7c1.2-.7 2.5-1.2 3.7-1.8.7-.4 1.1-1.3.7-2s-1.3-1.1-2-.7l-3.9 1.9-3.7 2.2-3.4 2.4c-1.1.9-2.2 1.5-3.4 2.2l.3-.2-4.1 2.6-4.4 3.1-3.8 2.6-3.8 2.8c-1 .8-2.1 1.5-3.2 2.3S95.2 42 94 42.5l-3.6 1.7-3.4 1.6c-1.1.5-2.3 1.3-3.5 1.9-.7.4-1.1 1.2-.7 2 .3.5.8.9 1.4.9.2 0 .4-.1.6-.2h0zm12.3-9.6l.2-.1-.2.1zm-25.4 5.7c.7-.3 1.4-.8 2.1-1.2l2-1.1c.7-.3 1.3-.6 2-1l2-1.1c2.7-1.7 5.4-3.5 7.8-5.6l4.7-3.4 3.9-2.3 4.2-2.5 8.3-5.3 6.9-5c.6-.5.7-1.5.2-2.1-.3-.3-.6-.5-1-.5s-.8.1-1.1.4l-5.5 4-5.4 3.6.1-.1-.1.1-.2.1.2-.1-3.9 2.3-4.3 2.5-4.2 2.5c-1.4.9-2.7 1.8-3.9 2.8l-3.6 2.8-3.3 2.3-2 1.2-4.6 2.4-2.4 1.4c-.7.4-1.1 1.3-.7 2 .2.5.8.9 1.4.8 0 .2.3.2.4.1h0zm7.6-7.6h0zm23.5-15.5h0zM59.2 42.1c.9-.3 1.8-.6 2.6-1.1.7-.3 1.3-.6 1.9-1 1.5-.8 3-1.8 4.4-2.7l7.8-5.4 2-1.3 4-2.5 2.1-1.3 2-1.2 8-5.6.8-.5 2.8-1.7 3.3-1.4c.7-.4 1.1-1.3.7-2h0c-.2-.4-.5-.6-.8-.8-.4-.1-.8-.1-1.1.1-.7.3-1.5.5-2.2.9l-1.9 1-4 2.5-7.3 5.1c-.6.4-1.1.7-1.7 1l-2.1 1.3-4.1 2.6-4.2 2.8-3.9 2.7-3.6 2.4-3.1 1.8c-.5.3-1 .5-1.5.8s-1 .5-1.5.7h-.1c-.8.1-1.4.8-1.4 1.6s.8 1.4 1.6 1.4l.5-.2zm25.2-19c.1-.1.2-.1.3-.2l-.3.2zm-35.7 14l2.1-.9c.7-.3 1.3-.7 2-1.1l4-2.4 4.3-2.6 4.2-2.9 6.6-5 6.7-4.7c.7-.5 1.5-.9 2.2-1.3 1-.6 2-1.1 3-1.6.8-.3 1.1-1.2.8-2s-1.2-1.1-2-.8c0 0-.1 0-.1.1L78 14.3c-1.5.8-2.9 1.9-4.2 2.9l-7.7 5.7-5.6 4.2-6.4 3.8-3.3 1.9-1.6.9c-.5.3-1.2.5-1.8.8-.7.4-1.1 1.3-.7 2h0c.2.5.8.9 1.3.8.2-.1.4-.1.7-.2h0zm11.8-10.2l.2-.1-.2.1zm-25.8 6.2l4.2-2.3c1.4-.7 2.8-1.2 4.2-1.8l2.1-.9c.7-.3 1.5-.8 2.3-1.2l4.2-2.6 3.9-2.9 3.7-2.7 7.9-5.8h.1l2.5-1.5 2.7-1.5c.8-.4 1.1-1.3.7-2-.4-.8-1.3-1.1-2-.7h0l-4.3 2.4-4.2 2.8-7.8 5.9-5.8 4.2-3.5 2.1c-1.3.7-2.6 1.3-4 1.8-1.3.5-2.7 1.1-4 1.8l-4 2.2c-.4.2-.6.5-.8.9-.1.4-.1.8.1 1.1.3.5.8.9 1.4.9 0-.1.2-.1.4-.2h0zm14.4-10.8h0zm18.1-9.6l.1-.1c0 .1 0 .1-.1.1zm270.3 50.8c-.7.8-1.5 1.5-2.3 2.2l-1.9.9c-.6.3-1.3.5-2 .8l-3.8 1.4L324 70l-1.8.7-1.9.7c-.9.4-1.3 1.4-.9 2.3s1.4 1.3 2.3.9l2.1-.8c.7-.3 1.5-.5 2.2-.8l4.5-1.6 4.5-1.7c1-.4 2-1 2.9-1.6l1.8-1.8c.4-.3.6-.7.6-1.2s-.1-.9-.4-1.3-.7-.6-1.2-.6h-.1c-.4-.1-.8.1-1.1.3h0zm1.2 10.6l-2.1 1.4a12.81 12.81 0 0 1-2 1.1l-2.6 1.2-2.6 1.1-2.5.9-5.4 1.6-3.9 1.2c-.6.2-1.2.3-1.8.6-.9.4-1.3 1.4-.9 2.3s1.4 1.2 2.3.9l.4-.1 10-3 2.8-.9c.9-.3 1.8-.7 2.7-1.1 1.7-.7 3.4-1.5 5-2.5l3-1.9c.4-.3.6-.7.6-1.2s-.1-.9-.4-1.3-.7-.6-1.2-.6h-.1c-.4 0-.8.2-1.1.4l-.2-.1zm-1.9 1.2l-.2.1.2-.1zm.7 11.5l-2.9 1c-.9.4-1.7.6-2.6.9l-3.5 1c-.4.2-.8.6-.9 1-.3.9.1 1.9 1 2.3h0c.4.1.9.1 1.3-.1l.5-.2 4.2-1.3 4.2-1.4c.4-.2.8-.5.9-1 .2-.4.1-.9 0-1.3-.2-.4-.6-.8-1-.9-.2-.1-.4-.1-.5-.1-.2 0-.5 0-.7.1h0zm-6.7 5.8l-.2.1.2-.1zm5.4 8l-3.4 1.7c-1.1.5-2.3.9-3.5 1.3h.1l-3.1.9c-1 .3-2.4.5-3.6.8l-3.3.6-3.4.5h.1c-1 0-1.7.8-1.7 1.8 0 .4.1.8.4 1.1.3.4.7.6 1.2.6s1-.1 1.6-.1.9-.1 1.3-.2l2.4-.4 5.2-1 5.6-1.7c1.7-.6 3.3-1.3 4.8-2.2l.8-.4c.9-.4 1.3-1.4.9-2.3a1.78 1.78 0 0 0-1.6-1c-.4-.1-.6-.1-.8 0h0zm-1.5 8.7l-2.5 1.4c-.8.3-1.5.7-2.3.9-1.5.4-2.9.9-4.3 1.4-.4.2-.8.6-.9 1-.2.4-.1.9.1 1.3s.6.8 1 .9.9.1 1.3-.1l3.3-1.1c1-.3 1.9-.6 2.8-1l3-1.6c.4-.2.7-.6.9-1s.2-.9 0-1.3-.6-.8-1-.9c-.2-.1-.4-.1-.6-.1-.4 0-.6.1-.8.2h0zm-4.5 2.1l-.3.1.3-.1z"/><path d="M334.8 120.1c-1.2.2-2.4.5-3.5.8s-2.3.6-3.5.7c-1 .2-1.6 1.1-1.4 2s1.1 1.6 2 1.4l3.5-.7c1.2-.2 2.4-.5 3.6-.8 1-.1 1.6-1 1.5-2-.1-.9-.9-1.5-1.8-1.5-.2.1-.3.1-.4.1h0zM3.8 58.6c-.4.9 0 1.9.9 2.3L9 62.7l2.1 1c.7.3 1.3.5 2 .7l9.2 3.2c.9.4 1.9.1 2.3-.8s.1-1.9-.8-2.3c-.1 0-.1 0-.2-.1l-9.2-3.2c-1.4-.5-2.7-1-4-1.7-1.4-.7-2.9-1.2-4.4-1.8-.2-.1-.4-.1-.7-.1-.5 0-1.1.4-1.5 1h0zM1.9 70.3c-.4.9 0 1.9.9 2.3L8 75c.8.3 1.5.7 2.3 1l2.6.9 5.3 1.8c1.8.6 3.7 1.1 5.7 1.5l4 .8c1.3.3 2.8.4 4.2.6 1 .1 1.8-.5 2-1.5h0c.1-1-.5-1.9-1.5-2-1-.2-1.9-.3-2.9-.4s-2-.3-2.9-.5c-1.9-.3-3.7-.7-5.6-1.2l-4.1-1.4-4.5-1.5c-1.4-.5-2.7-1.1-4-1.7l-4.3-2c-.2-.1-.4-.1-.7-.1-.7-.1-1.4.4-1.7 1h0zm1.9 12.3c-.4.9 0 1.9.9 2.3l2.7 1c.9.3 1.7.8 2.6 1.2l2.6 1.1c1.1.4 2.2.6 3.3.8 1 .1 1.8-.5 2-1.5h0c.1-.5-.1-.9-.3-1.3-.3-.4-.7-.6-1.1-.7l-1.5-.3-4.2-1.7-2.2-1c-.7-.3-1.7-.5-2.5-.8-.2-.1-.4-.1-.7-.1a1.78 1.78 0 0 0-1.6 1zm6.3 17.4c-.9.4-1.3 1.4-1 2.3.2.4.5.8.9 1l7 2.2-.4-.1.4.1c.4.2.9.2 1.3 0a1.65 1.65 0 0 0 1-1c.4-.9 0-1.9-.9-2.3-.4-.1-.9-.2-1.3-.4l.4.1-6.1-1.9c-.2-.1-.5-.1-.7-.1-.2-.1-.4 0-.6.1h0zm-1.4 14.7c-.4.9 0 1.9.9 2.3l5.2 2.1 3 .9 2.5.7 2.7.9c.9.4 1.9-.1 2.3-.9.4-.9 0-1.9-.9-2.3-2.2-.8-4.4-1.3-6.6-1.9-1.1-.3-2.1-.7-3.1-1.1l-3.7-1.5c-.8-.5-1.9-.1-2.3.8h0z"/><path d="M80.6 112c1.7-10.5 10.9-17.3 21.3-15.6 5.1.8 8.9 3.4 11.6 6.9.3.4.3.8-.1 1.1l-3.1 2.4c-.4.3-.7.3-1.1-.1-2-2.4-4.7-4.1-8.2-4.7-7.2-1.1-13.5 3.4-14.7 10.9-1.2 7.4 3.4 13.7 10.6 14.8 3.5.6 6.5-.2 9.2-1.9.5-.3.8-.2 1.1.2l2.2 3.3c.4.4.2.8-.2 1.1-3.7 2.6-8.1 3.8-13.2 3-10.4-1.6-17.1-10.9-15.4-21.4zm34.3 10.6c.7-7.5 6.9-12.8 14.4-12 7.5.7 12.5 7.1 11.8 14.6s-6.9 12.8-14.4 12c-7.5-.7-12.5-7.1-11.8-14.6zm20.9 2.1c.5-4.9-2.6-8.5-6.9-8.9-4.4-.4-8.1 2.5-8.6 7.4s2.6 8.5 7 8.9c4.3.4 8-2.6 8.5-7.4zm9.8 12.8l1-23.9c0-.5.3-.8.8-.7l3.9.2c.5 0 .7.2.7.9l.1 3.1c1.6-2.5 4.2-4.4 8.2-4.2 5.4.2 9.1 4.1 8.8 10.8l-.7 14.9c0 .5-.3.8-.8.7l-4.1-.2c-.5 0-.7-.3-.7-.8l.6-13.8c.2-4-1.7-6.4-5.3-6.5-3.6-.2-6.2 2-6.4 6l-.6 13.8c0 .5-.3.8-.8.7l-4.2-.2c-.3-.1-.5-.4-.5-.8zm32.2-4.2v-15.1h-3.3c-.5 0-.7-.3-.7-.8v-2.9c0-.5.3-.8.7-.8h3.3v-6c0-.5.3-.8.7-.8h4.2c.5 0 .7.3.7.8v6h4.1c.5 0 .8.3.8.8v2.9c0 .5-.3.8-.8.8h-4.1v14.5c0 1.7.8 2.4 2.3 2.4.4 0 1-.1 1.6-.1.6-.1.9.2.9.7v2.8c0 1-2.3 1.3-3.8 1.3-3.8.1-6.6-1.7-6.6-6.5zm14.1-6.7c-.3-7.5 4.4-13.6 11.7-13.9 4.2-.2 7.3 1.6 9.2 4.4v-3.4c0-.5.2-.8.7-.8l3.8-.2c.5 0 .7.3.8.7l1 23.9c0 .5-.2.8-.7.8l-3.8.2c-.5 0-.7-.3-.8-.7l-.2-3.4c-1.7 3-4.6 5-8.8 5.2-7.3.4-12.6-5.2-12.9-12.8zm21-.8c-.2-4.9-3.5-8.1-8-7.9-4.6.2-7.8 3.7-7.5 8.6.2 4.9 3.7 8.1 8.3 7.9 4.4-.3 7.5-3.7 7.2-8.6zm10.6-.7c-.7-7.6 4.4-13.8 11.9-14.5 4.1-.4 7.7 1 10.1 3.5.4.4.4.7.1 1.1l-2.1 2.4c-.4.5-.9.4-1.2.1-1.6-1.4-3.4-2.2-6.1-1.9-4.8.5-7.7 4.2-7.3 8.8.4 4.7 4.1 7.9 9 7.4 2.6-.2 4.2-1.4 5.5-3 .3-.4.8-.5 1.3-.2l2.5 2c.3.3.4.6.1 1.1-1.9 2.9-5.1 4.9-9.2 5.3-7.6.7-13.9-4.5-14.6-12.1zm31.6 3.5l-2-14.9-3.2.4c-.5.1-.8-.2-.8-.7l-.4-2.9c-.1-.5.2-.8.6-.9l3.2-.4-.8-5.9c-.1-.5.2-.8.6-.9l4.2-.6c.5-.1.8.2.8.7l.8 5.9 4.1-.6c.5-.1.8.2.9.7l.4 2.9c.1.5-.2.8-.7.9l-4.1.6 2 14.3c.2 1.7 1.2 2.3 2.6 2.1.4-.1 1-.2 1.6-.3s1 .1 1 .6l.4 2.7c.1 1-2.1 1.7-3.6 1.9-3.9.5-7-.9-7.6-5.6z" enable-background="new"/></g></svg>