<?xml version="1.0" encoding="utf-8"?>
<!-- Generator: Adobe Illustrator 24.1.3, SVG Export Plug-In . SVG Version: 6.00 Build 0)  -->
<svg version="1.1" id="Layer_1" xmlns="http://www.w3.org/2000/svg" xmlns:xlink="http://www.w3.org/1999/xlink" x="0px" y="0px"
	 viewBox="0 0 349.4 170.9" style="enable-background:new 0 0 349.4 170.9;" xml:space="preserve">
<style type="text/css">
	.st0{fill:#FFFFFF;}
	.st1{fill:none;}
</style>
<path class="st0" d="M153,65.8c0.6,0,1.2-0.1,1.8-0.2c0.6-0.2,1.2-0.4,1.7-0.6c0.7-0.3,1.3-0.5,1.9-0.9c1.8-0.9,3.5-2,5.3-3
	c1.9-1.1,3.8-2.3,5.6-3.5c2.4-1.5,4.7-3,7-4.6l-0.9,0.6c3.4-2.4,6.7-4.8,10.1-7.3l1.1-0.8L189,44c2.8-1.9,5.7-3.6,8.7-5
	c3.1-1.5,6.3-2.8,9.3-4.5c1.4-0.8,2.7-1.6,4.1-2.5s2.9-1.6,4.3-2.4c3.3-1.9,6.5-4,9.6-6.4c0.9-0.8,1.4-1.9,1.4-3s-0.4-2.2-1.1-3
	c-0.8-0.8-1.9-1.3-3-1.4c-1.1,0-2.2,0.4-3,1.1l-1.4,1c-2.6,1.8-5.2,3.4-8,4.9s-5.5,3.4-8.3,4.9s-6,2.8-8.9,4.3
	c-3.2,1.6-6.2,3.5-9.1,5.5l0.6-0.4c-0.9,0.6-1.8,1.2-2.7,1.9c0.3-0.2,0.6-0.4,0.9-0.6c-3,2.1-6,4.3-9,6.5l-2.5,1.7
	c-1.7,1.2-3.5,2.3-5.3,3.4s-3.2,2.1-4.9,3.1c-2.4,1.5-4.8,2.9-7.4,4.1c-0.3,0.1-0.5,0.1-0.8,0.2h0.2c-0.9,0.1-1.7,0.4-2.3,1
	c-0.8,0.8-1.3,1.9-1.4,3c0,1.1,0.4,2.2,1.1,3C150.8,65.1,151.8,65.6,153,65.8L153,65.8z M153.4,57.2L153.4,57.2z M183.1,37.8
	l0.2-0.2L183.1,37.8z"/>
<path class="st0" d="M209.4,75.4c3.7-0.1,7.4-0.1,11-0.3s7.4-0.7,11-1l0,0c0.1,0,0.3,0,0.4,0c1.7-0.2,3.4-0.3,5.1-0.4
	s3.6-0.3,5.4-0.3c1.9,0,3.9,0.1,5.9,0c1.8-0.1,3.6-0.2,5.4-0.3s3.6-0.3,5.4-0.6c2-0.3,4-0.8,6-1.2s4.1-0.8,6.2-1.2s4-0.6,5.9-0.9
	c1.8-0.3,3.6-0.6,5.4-1s3.5-0.9,5.2-1.3c4.5-1,9.1-2,13.6-3.1c2.7-0.6,5.4-1.1,8.1-1.8c2.4-0.7,4.7-1.4,7-2h-0.1
	c2.2-0.6,4.4-1.2,6.6-2c2-0.7,4.1-1.3,6.1-2s4-1.2,6-1.8c2.4-0.8,4.8-1.8,7.2-2.8c2.2-0.8,3.3-3.3,2.5-5.5s-3.3-3.3-5.5-2.5
	c-2.2,0.9-4.4,1.9-6.6,2.6c-2,0.7-4,1.2-6,1.8s-4,1.2-6,1.9s-4.2,1.4-6.3,2h0.1c-3,0.7-5.9,1.7-8.9,2.5c-4.1,0.9-8.2,1.8-12.3,2.7
	c-2,0.4-3.9,0.9-5.8,1.3s-3.6,0.9-5.5,1.4c-3,0.7-5.9,1.2-8.9,1.7c-1.7,0.3-3.4,0.5-5.1,0.8s-3.6,0.7-5.5,1.1
	c-3.2,0.7-6.4,1.2-9.6,1.4c-3.1,0.2-6.1,0.4-9.2,0.4c-0.9,0-1.8-0.1-2.7,0s-1.7,0-2.7,0.1c-1.9,0.1-3.9,0.3-5.8,0.4
	c-3.7,0.3-7.4,0.8-11.1,1.1c-1.9,0.2-3.9,0.2-5.8,0.2l-5.3,0.1c-3.5,0.1-7.1,0.1-10.6,0.1c-1.1,0-2.1-0.1-3.1-0.1H195
	c-2-0.1-4.1-0.3-6.1-0.4c-2.2-0.2-4.4-0.3-6.6-0.4c-4-0.2-8.1-0.6-12.1-1c-4.2-0.4-8.4-1-12.6-1.6c-2-0.3-4.1-0.5-6.1-0.8
	s-3.9-0.5-5.9-0.6c-4.1-0.2-8.1-0.7-12.1-1.4c-3.9-0.7-7.9-1.3-11.8-2.1s-7.8-1.8-11.7-2.7S102,54,98,53c-2.7-0.7-5.3-1.4-7.9-2.2
	c-2.4-0.8-4.9-1.5-7.3-2.3s-4.9-1.9-7.4-2.7s-4.9-1.5-7.4-2.4c-1.2-0.4-2.3-0.9-3.5-1.3c-1.6-0.5-3.3-1-4.9-1.5l1.1,0.3
	c-1.9-0.6-3.8-1-5.7-1.6c-3.2-1.1-6.3-2.6-9.5-3.9c-3.7-1.5-7.6-2.5-11.4-4c-3.3-1.3-6.5-2.8-9.7-4.3l-8.9-4
	c-2.2-0.8-4.6,0.4-5.4,2.6c-0.7,2,0.2,4.1,2,5.1l9.1,4.1c3.4,1.5,6.8,3.1,10.3,4.5c3.8,1.5,7.8,2.4,11.6,4c3.7,1.8,7.5,3.3,11.5,4.4
	c0.8,0.2,1.5,0.4,2.3,0.6l-1.1-0.3c1.2,0.4,2.4,0.7,3.6,1.1c1.8,0.6,3.5,1.2,5.2,1.8c1.9,0.7,3.8,1.3,5.8,1.9
	c3.9,1.2,7.6,2.8,11.5,4c4.3,1.4,8.6,2.7,12.9,3.8c4,1,8.1,2.1,12.1,3s7.8,2,11.7,2.8s7.8,1.4,11.8,2.1s8,1.3,12.1,1.6
	c2,0.2,4,0.2,6,0.5s3.9,0.5,5.8,0.8c3.3,0.4,6.6,0.9,9.9,1.4s6.7,0.7,10.1,0.9c1.7,0.1,3.3,0.3,5,0.4s3.5,0.2,5.3,0.3
	c3.5,0.2,6.9,0.6,10.4,0.7h0.7h2.2c2.1,0.1,4.2,0.1,6.3,0.1C205.7,75.5,207.6,75.5,209.4,75.4L209.4,75.4z"/>
<path class="st0" d="M194.8,75.3"/>
<path class="st0" d="M194.4,75.3L194.4,75.3z"/>
<path class="st0" d="M314.4,51.7l-0.3,0.1L314.4,51.7z"/>
<path class="st0" d="M337.4,148.4c1.1-0.1,2.1-0.7,2.8-1.5c0.7-0.9,1.1-2,1-3.2c-0.1-0.7-0.2-1.3-0.2-2c0-0.9,0.1-1.7,0.2-2.6
	c0.1-1.2,0.3-2.4,0.5-3.7c0.1-0.5,0.1-1.1,0.1-1.6s0.2-1.2,0.2-1.8c0.1-1.3,0.2-2.6,0.2-4s0.1-2.5,0.2-3.8c0.1-1.7,0-3.4,0-5.1
	c0.1-1.9,0.4-3.9,0.5-5.8c0.2-2.2,0.4-4.4,0.4-6.7c0,0.2,0,0.3,0,0.5c0.1-1.3,0.1-2.6,0.3-3.9s0.4-2.8,0.5-4.3s0.4-2.8,0.4-4.2
	s0.1-2.7,0.2-4v0.1c0-0.1,0-0.1,0-0.2l0,0c0.1-2.1,0.3-4.1,0.4-6.2s0.2-4.3,0.5-6.5c0.3-3.6,0.9-7.1,1.7-10.6
	c0.4-1.4,0.6-2.9,0.8-4.3c0.1-0.7,0.3-1.4,0.4-2.1s0.2-1.5,0.3-2.3c0.2-1.4,0.3-2.8,0.3-4.2c0-1.5-0.3-2.9-0.7-4.3
	c-0.5-1.3-1-2.5-1.5-3.8c-0.8-2.2-3.2-3.4-5.4-2.6c-2.2,0.8-3.4,3.2-2.6,5.4c0,0.1,0,0.1,0.1,0.2c0.3,0.8,0.6,1.5,0.9,2.3
	c0.2,0.5,0.4,1,0.6,1.5c0.1,0.4,0.1,0.8,0.1,1.2c0,0.3,0,0.6,0.1,0.9c-0.1,0.7-0.2,1.5-0.2,2.2c-0.1,1.3-0.3,2.6-0.6,3.9
	c-0.3,1.2-0.4,2.4-0.6,3.6c-0.3,1.5-0.8,2.9-1,4.4s-0.4,2.9-0.6,4.3c-0.2,1.8-0.5,3.6-0.6,5.4s-0.2,3.8-0.4,5.6s-0.3,3.7-0.3,5.6
	c0,1.2-0.1,2.4-0.2,3.6c-0.1,1.5-0.3,2.9-0.5,4.4s-0.4,3.1-0.6,4.6c-0.1,1.3-0.2,2.7-0.2,4.1c-0.1,2.2-0.4,4.5-0.5,6.7
	c-0.1,1.3-0.3,2.6-0.4,3.8c-0.1,1.6,0,3.1,0,4.7c-0.1,2.2-0.2,4.5-0.3,6.7v-1.1c-0.1,1.5-0.2,3-0.4,4.5s-0.3,3-0.5,4.5
	c-0.2,1.3-0.3,2.6-0.3,4c-0.1,1.3,0,2.6,0.2,3.8c0.1,1.1,0.7,2.1,1.5,2.8c0.8,0.6,1.7,1,2.7,1c0.1,0,0.3,0,0.4,0L337.4,148.4z"/>
<path class="st0" d="M211.6,170.5c3.6-0.3,7.1-0.1,10.7-0.3c4-0.2,7.9-0.3,11.8-0.7c2.1-0.2,4.2-0.5,6.3-0.7
	c1.9-0.1,3.7-0.1,5.6-0.2s3.7-0.1,5.6-0.2s3.8-0.1,5.7-0.3l5.9-0.5c2-0.2,4-0.4,6.1-0.6c1.8-0.2,3.6-0.5,5.4-0.8s3.6-0.5,5.4-0.7
	c3.9-0.5,7.8-1.1,11.6-1.9c3.2-0.7,6.3-1.7,9.4-2.7c1.6-0.5,3.2-0.9,4.9-1.3c1.4-0.4,2.8-0.8,4.2-1.2c1.1-0.3,2.3-0.6,3.4-0.8
	c1.7-0.4,3.3-0.8,5-1.2s3.5-0.9,5.2-1.3c1.6-0.4,3.1-0.9,4.7-1.5c1.7-0.7,3.4-1.5,5-2.4c1.5-1,3-2.1,4.3-3.3
	c0.9-0.7,1.5-1.7,1.7-2.8c0.4-2.3-1.2-4.5-3.6-4.9c-1.1-0.2-2.2,0.1-3.1,0.7c-1.5,1.3-3,2.5-4.7,3.5c-3.1,1.4-6.4,2.6-9.8,3.3
	c-1.4,0.3-2.8,0.6-4.1,1c-1.8,0.4-3.7,0.9-5.5,1.3c-3.1,0.8-6.2,1.7-9.3,2.5c-2.9,0.8-5.7,1.8-8.6,2.5c-3.6,0.8-7.3,1.4-11,1.9
	c-1.8,0.2-3.6,0.4-5.5,0.7s-3.6,0.6-5.4,0.8c-4,0.4-8,0.8-12,1.1c-1.9,0.1-3.8,0.2-5.7,0.3s-3.7,0.2-5.6,0.2s-3.5,0-5.3,0.1
	c-2,0.1-4,0.3-6,0.6s-3.8,0.4-5.8,0.5s-3.8,0.2-5.6,0.3c-3.4,0.2-6.8,0.1-10.1,0.2c-2,0.1-4.1,0.3-6.1,0.4s-3.8,0.1-5.7,0.1
	c-2.7-0.1-5.4-0.1-8.2-0.1c-3.7-0.1-7.5-0.2-11.2-0.2s-7.5,0-11.2,0c-1.3-0.1-2.7-0.1-4-0.1c-4-0.2-8-0.4-12-0.6s-8.2-0.7-12.4-1
	c-2.1-0.2-4.2-0.4-6.3-0.7s-4.2-0.4-6.3-0.5c-1.8-0.1-3.6-0.1-5.4-0.3s-3.7-0.4-5.6-0.6c-2-0.2-4-0.4-6-0.6s-3.9-0.4-5.8-0.7
	c-4.2-0.5-8.4-0.6-12.6-1.2c-8.2-1.3-16.5-2.6-24.6-4.2c-2.9-0.6-5.8-1.1-8.7-1.7c-1.5-0.3-2.9-0.7-4.3-1.1s-2.9-0.8-4.3-1.2
	s-2.6-0.8-3.9-1.2c-3.8-1.2-7.7-2.2-11.6-3c-2-0.4-4-0.8-6-1.3c-1.7-0.4-3.3-0.9-5-1.4c-1.4-0.4-2.8-0.9-4.1-1.4s-3-0.9-4.5-1.4
	c-2.5-0.9-5-1.9-7.4-3c-2.1-1-4.7-0.1-5.6,2.1c-1,2.1-0.1,4.7,2.1,5.6h0.1c2.5,1.1,5,2.1,7.6,3c1.6,0.5,3.2,1,4.7,1.5
	c1.9,0.7,3.8,1.3,5.8,1.9c3.3,1,6.7,1.8,10.1,2.5s6.5,1.4,9.8,2.3l3.8,1.2c2.1,0.7,4.3,1.2,6.4,1.8c2,0.5,3.9,1.1,5.9,1.5
	c4,0.8,8,1.6,12.1,2.3c4.3,0.8,8.7,1.6,13,2.3c3.9,0.6,7.8,1.3,11.8,1.7c2.2,0.2,4.3,0.3,6.5,0.5c2,0.2,4,0.5,5.9,0.7
	s3.9,0.4,5.8,0.6s4,0.5,6,0.7c3.8,0.4,7.5,0.3,11.3,0.7c2.1,0.2,4.2,0.5,6.4,0.7s4.2,0.4,6.3,0.6c3.6,0.4,7.2,0.6,10.9,0.8
	c3.9,0.2,7.8,0.4,11.7,0.5h-1.1c4.1,0.1,8.1,0.1,12.2,0.1c3.5,0,7,0,10.6,0.1h-1.1c3.5,0.1,7,0.1,10.4,0.2c1.4,0,2.8,0.1,4.1,0.1
	C205.8,170.9,208.6,170.8,211.6,170.5L211.6,170.5z"/>
<path class="st0" d="M10.2,141.3c1.3-0.9,2-2.5,1.8-4.1c0.1-0.5,0.1-1,0.1-1.5s-0.1-1-0.2-1.4c0-0.2-0.1-0.5-0.1-0.7
	c-0.1-0.4-0.2-0.8-0.3-1.2s-0.1-0.6-0.2-0.9s-0.1-0.6-0.1-0.9c-0.1-0.6-0.3-1.1-0.4-1.6s-0.3-1.1-0.4-1.7c-0.1-0.4-0.1-0.8-0.1-1.2
	s0.1-0.7,0.1-1c0.1-0.8,0.1-1.7,0.1-2.6c-0.1-1-0.2-2-0.2-3v1.1c0-0.6,0-1.2,0-1.8s0.1-1.2,0.1-1.8c0.1-0.7,0.1-1.5,0.1-2.2
	c0-0.4,0-0.8,0-1.2c-0.2-1.7-0.5-3.3-0.7-4.9s-0.6-3.4-0.7-5.1c-0.1-0.9,0-1.8-0.2-2.8c-0.1-0.4-0.2-0.8-0.2-1.2c0-0.2,0-0.4,0-0.6
	c0-0.7,0.1-1.3,0.1-1.9c0-0.3,0-0.6,0-0.8v-0.1c0-1.7-0.1-3.4-0.1-5.1c0.1-1,0.1-1.9,0.1-2.9v0.2c0.1-1.1,0.2-2.2,0.3-3.3
	c0.1-1.5,0.1-2.9,0-4.4c0-0.5,0-1,0-1.5v1.1v-1.8c0-0.3,0-0.5,0-0.8c0.1-1.3,0.2-2.5,0.3-3.8c0.1-1.5,0-3.1,0-4.6
	C9.3,66.9,9,64.4,8.9,62c0,0.4,0,0.7,0,1.1c0-0.7,0-1.5,0.1-2.2c0-2,0-4.1,0-6.1c-0.1-1.3,0-2.5,0-3.8c0-0.7,0-1.4,0.1-2.2
	c0.1-1.4,0.3-2.8,0.6-4.2s0.6-2.8,1-4.2l0.4-1.2c0.5-1.4,1.1-2.8,1.8-4.1c0.4-0.9,0.8-1.7,1.2-2.6c0.2-0.3,0.5-0.6,0.7-0.9
	c0.4-0.6,0.8-1.2,1.1-1.9l0.1-0.1c0.6-0.5,1.2-0.9,1.9-1.3c1-0.6,1.9-1.4,2.9-2c1.4-0.7,2.7-1.5,4.1-2.2s2.7-1.7,4-2.4L28.6,22
	c2-1.1,3.9-2.3,5.9-3.5c1-0.5,1.9-0.9,2.9-1.4c1.2-0.6,2.5-1.1,3.7-1.6c1.1-0.4,2.3-0.7,3.4-1.1s2.1-0.7,3.2-0.9s2.2-0.6,3.3-1
	s2.1-0.6,3.2-1s2.2-1,3.3-1.6C58.7,9.3,60,8.7,61.2,8c1-0.3,1.8-1,2.3-2c0.9-2.1,0-4.6-2.1-5.6c-1-0.5-2.2-0.5-3.3-0.1
	c-1.5,0.7-2.9,1.5-4.3,2.2c-1.3,0.7-2.7,1.3-4.1,1.7C48.3,4.6,47,5,45.6,5.4s-2.6,0.7-4,1.2S38.8,7.4,37.4,8s-3,1.3-4.5,2
	c-3,1.4-5.8,3.2-8.6,4.8c-1.2,0.6-2.3,1.3-3.4,2s-2.1,1.2-3.2,1.8c-0.6,0.3-1.2,0.6-1.9,1s-0.9,0.6-1.4,0.9s-0.8,0.6-1.3,0.8
	S12.3,21.8,12,22c-0.9,0.6-1.7,1.2-2.4,2c-0.6,0.7-1.1,1.5-1.5,2.3l-0.3,0.4c-0.4,0.6-0.8,1.1-1.1,1.7c-0.4,0.7-0.8,1.5-1.2,2.3
	c-0.4,0.9-0.8,1.7-1.2,2.6c-0.2,0.5-0.5,1.1-0.7,1.7c-0.3,0.7-0.5,1.5-0.7,2.2c-0.6,2.1-1.1,4.2-1.6,6.3c-0.2,1-0.4,2-0.5,2.9
	c-0.1,1.2-0.1,2.3-0.1,3.5c0,0.3,0,0.5,0,0.8c-0.1,1.7-0.2,3.4-0.2,5.1c0,1.5,0.1,2.9,0,4.4v2.1c0-0.3,0-0.6,0-0.9
	C0.4,65,1,68.6,1,72.2c0,1.9-0.3,3.8-0.3,5.7v-1.1c0,1-0.1,2-0.1,2.9v-1.1c0,0.8,0,1.7,0,2.5c0-0.2,0-0.3,0-0.5c0,0.8,0,1.7,0,2.5
	s-0.2,1.6-0.2,2.4c-0.1,1-0.1,2-0.2,3C0.1,90,0,91.3,0,92.6s0.1,2.4,0.1,3.6c0,0.3,0,0.5,0,0.8c0,1-0.1,2-0.1,3
	c0,0.7,0.3,1.5,0.3,2.2c0.1,1.7,0.2,3.3,0.4,4.9c0.5,2.8,0.9,5.5,1.1,8.3c0,0.6-0.1,1.2-0.1,1.8c0,1,0,2-0.1,2.9V120
	c0,0.7,0,1.3,0.1,2c0,0.5,0.1,1,0.2,1.5c-0.1,1.1-0.2,2.2-0.1,3.4c0,0.8,0.2,1.7,0.4,2.5c0.1,0.3,0.2,0.5,0.2,0.8
	c0.1,0.5,0.2,1,0.4,1.6c-0.1-0.4-0.2-0.7-0.2-1.1c0.1,0.4,0.2,0.7,0.3,1.1s0.1,0.8,0.2,1.2c0.1,0.6,0.2,1.2,0.4,1.7
	c0,0.1,0,0.2,0,0.3c0,0.4,0.1,0.7,0.2,1.1v0.1c-0.2,0.6-0.2,1.2-0.1,1.8c0.1,0.8,0.4,1.6,0.9,2.3c0.7,0.9,1.7,1.5,2.8,1.7
	c0.2,0,0.4,0,0.6,0.1C8.6,142,9.5,141.8,10.2,141.3L10.2,141.3z M11.8,138.1L11.8,138.1L11.8,138.1L11.8,138.1L11.8,138.1z
	 M10.9,129.7l-0.1-0.5l0,0C10.8,129.3,10.9,129.5,10.9,129.7L10.9,129.7z M9.1,77.2c0-0.2,0-0.3,0-0.5C9.1,76.9,9.1,77,9.1,77.2z
	 M11.2,38.6c0-0.1,0.1-0.2,0.1-0.3C11.3,38.4,11.3,38.5,11.2,38.6z"/>
<path class="st0" d="M234.1,74c0.2,0,0.4-0.1,0.7-0.1s0.6,0,0.9,0h0.2c0.1,0,0.3,0,0.4,0c0.3,0,0.5,0,0.8,0c0.4,0,0.7,0,1,0h-0.2
	h0.4h0.3h0.1c0.9-0.3,1.7-0.6,2.5-0.9c0.5-0.3,1.1-0.4,1.7-0.7s1.1-0.4,1.7-0.7c1.1-0.4,2.2-0.9,3.3-1.4s2.3-1,3.4-1.5
	c1.4-0.6,2.7-1.2,4.1-1.7c3.7-1.3,7.2-3.2,10.8-4.8c1.9-0.8,3.9-1.5,5.9-2.3s3.6-1.7,5.4-2.4c1.6-0.7,3.2-1.5,4.9-2.1
	c1.9-0.7,3.7-1.4,5.6-2.1s3.6-1.2,5.4-1.8c1.5-0.5,3-1.2,4.6-1.7l5.1-1.7c1.7-0.6,3.3-1.2,5-1.6l0.4-0.1l-1.1,0.2
	c2.1-0.5,4.1-1.1,6.1-1.8c1.8-0.6,3.6-1.2,5.5-1.7c1.6-0.3,3.3-0.5,5-0.5h0.2c0.8,0,1.5,0.1,2.2,0.2s1.6,0.1,2.5,0.1s1.5,0,2.3,0.1
	c0.5,0,1,0.1,1.4,0.2c0.7,0.3,1.4,0.6,2.1,1c0.2,0.1,0.3,0.3,0.5,0.4l1.1,1.2c-0.2-0.2-0.3-0.4-0.5-0.5c1.4,1.5,2.5,3.3,3.7,4.9
	c1.4,1.9,4,2.3,5.9,0.9c1.9-1.4,2.3-4,1-5.9c-0.8-1.1-1.6-2.3-2.5-3.5c-0.5-0.7-1.1-1.4-1.7-2c-0.6-0.8-1.3-1.6-2.1-2.2
	c-1-0.6-2-1.2-3-1.7c-1.3-0.6-2.6-1-4-1.2s-2.8-0.2-4.2-0.2c-0.6,0-1.1-0.1-1.7-0.2c-1.1-0.1-2.3-0.1-3.4-0.1h1.1
	c-1.7-0.1-3.4,0-5.2,0.2c-1.8,0.3-3.6,0.8-5.3,1.3c-2.6,0.7-5,1.7-7.6,2.4c-1.8,0.4-3.5,1-5.3,1.6c-1.6,0.6-3.2,1.1-4.9,1.7
	s-3.3,1.1-4.9,1.8s-3.3,1.2-4.9,1.7c-2,0.7-3.9,1.3-5.9,2.1l-2.4,0.9c-0.9,0.3-1.7,0.8-2.5,1.2c-1.7,0.8-3.5,1.5-5.2,2.3
	c-2,0.9-4,1.6-6,2.4s-3.8,1.7-5.8,2.6c-1.7,0.8-3.4,1.6-5.1,2.3c-1.6,0.6-3.1,1.2-4.6,1.8c-1.1,0.5-2.3,0.9-3.5,1.4
	s-2.2,1.1-3.4,1.5s-2.2,0.9-3.3,1.3c-0.9,0.3-1.7,0.7-2.6,1s-1.9,0.6-2.8,1l-0.6,0.2c-2.2,0.8-3.3,3.3-2.4,5.5
	c0.3,0.8,0.8,1.5,1.5,1.9h0.8C233.3,74.3,233.7,74.2,234.1,74z"/>
<path class="st0" d="M145.4,69.9c0.6-0.4,1.3-0.9,1.9-1.2l0.2-0.1l0.8-0.4l-0.4,0.2l1.6-0.9l-0.8,0.4l0.1-0.1l-0.2,0.1l-0.2,0.1
	c2.1-1.1,4.1-2.4,6.1-3.6l1.3-0.7l0,0l-0.5,0.3l0.9-0.5l1.1-0.6l-0.2,0.1l0.3-0.2l0.2-0.1l1-0.5l2-1.1l1.9-1l-0.4,0.2l0.5-0.3
	l0.4-0.2l0,0.2l0.6-0.3l-0.7,0.4l-0.2,0.1c2.8-1.5,5.6-3.2,8.4-4.8l-1,0.5c1.8-1,3.6-2.1,5.4-3.1c1.5-0.8,3-1.5,4.4-2.3
	s2.9-1.8,4.4-2.6c1-0.5,2-1.1,3-1.7s1.8-1.1,2.8-1.6c5-2.7,9.8-5.8,14.8-8.6c2.4-1.3,4.9-2.5,7.3-3.8c2.1-1.2,4.2-2.5,6.3-3.6
	c0.9-0.5,1.7-0.9,2.6-1.4c0.6-0.4,1.2-0.7,1.8-1.1c0.8-0.4,1.6-0.8,2.4-1.2s1.3-0.8,2-1.2l0.2-0.1l0.1-0.1h-0.1c1-0.5,2-1.1,2.9-1.8
	c0.5-0.4,1-0.8,1.6-1.2c0.7-0.4,1.3-0.8,1.9-1.3c0.9-0.7,1.5-1.6,1.7-2.7c0.4-2.3-1.2-4.5-3.6-4.9c-1.1-0.2-2.2,0.1-3.1,0.7
	c-1.1,0.9-2.2,1.5-3.3,2.4c-0.9,0.7-1.8,1.2-2.7,1.8c-0.5,0.3-1.1,0.6-1.6,0.9l-1,0.6c-0.8,0.4-1.7,0.8-2.5,1.3s-1.4,0.9-2.2,1.3
	c-1.4,0.7-2.8,1.5-4.2,2.3c-1.9,1.1-3.8,2.3-5.8,3.4c-1.3,0.7-2.7,1.3-4,2c-1.9,1-3.8,2.1-5.7,3.2c-1.5,0.9-3,1.8-4.5,2.7
	c-1.3,0.8-2.6,1.6-3.9,2.3c-1,0.5-1.9,1-2.9,1.5s-2,1.2-3.1,1.8c-1.5,0.8-3,1.6-4.5,2.6c-0.9,0.5-1.8,1.1-2.7,1.6
	c-1.6,0.8-3.2,1.6-4.7,2.5c-1,0.6-2,1.2-3.1,1.8l0.4-0.2c-2.8,1.5-5.6,3.2-8.4,4.8l-0.3,0.2l-0.3,0.2l-2.4,1.3l0.1-0.1l-1.7,0.9
	l-0.4,0.2l0.2-0.1l-2.3,1.2l1-0.5l-0.5,0.3c-0.8,0.4-1.6,0.8-2.4,1.3c-0.6,0.3-1.1,0.7-1.6,1c-1.1,0.6-2.1,1.3-3.2,1.9l-0.7,0.4
	l1-0.5l-1.5,0.8l1-0.5l-0.9,0.5c-0.6,0.3-1.2,0.7-1.8,1s-1,0.7-1.5,1c-1.9,1.4-2.3,4-0.9,5.9c0.8,1.1,2,1.7,3.4,1.7
	C143.8,70.6,144.6,70.4,145.4,69.9L145.4,69.9z M162.6,60.2L162.6,60.2L162.6,60.2L162.6,60.2L162.6,60.2z"/>
<path class="st0" d="M130,60.1c1-0.6,1.9-1.2,2.8-1.8s1.6-1,2.4-1.6l0,0l0.8-0.5c1.2-0.7,2.3-1.4,3.5-2.2l3.5-2.3l-0.1,0.1l0.2-0.1
	l0.2-0.1l-0.2,0.1c1.1-0.7,2.2-1.2,3.3-1.9s2.4-1.5,3.6-2.2h-0.1l0.3-0.2l0,0l0,0l0.4-0.2l-0.2,0.1l-0.2,0.1l0.2-0.1l-0.1,0.1
	c1.6-1,3.2-2.2,4.8-3.3l2.2-1.6c0.7-0.5,1.5-1,2.2-1.5c1.2-0.7,2.4-1.4,3.7-2c1.4-0.7,2.8-1.3,4.1-1.9c0.7-0.3,1.4-0.7,2.1-1
	s1.4-0.7,2.1-1.1c1.4-0.7,2.9-1.4,4.2-2.1c1-0.5,2-1.2,2.9-1.8l-0.3,0.2l0.9-0.6l-0.1,0.1c0.9-0.6,1.8-1.2,2.7-1.8
	c0.2-0.1,0.4-0.2,0.5-0.4l0.2-0.1l0,0l-0.1,0.1l0.1-0.1c0.1,0,0.2-0.1,0.3-0.2c1.1-0.7,2.2-1.3,3.3-2s2.4-1.7,3.5-2.6
	c0.6-0.5,0.7-1.5,0.2-2.1s-1.5-0.7-2.1-0.2c-1.2,0.9-2.3,1.8-3.5,2.6c-0.8,0.5-1.6,1-2.5,1.5c-0.3,0.1-0.5,0.3-0.7,0.5l-0.2,0.1
	c-0.1,0.1-0.2,0.1-0.4,0.2c-1,0.6-1.9,1.3-2.9,1.9l0.1-0.1l-0.2,0.1l-0.1,0.1l0.1-0.1l-0.6,0.4c-0.6,0.4-1.2,0.8-1.8,1.1
	s-1.4,0.8-2.1,1.1c-1.4,0.7-2.9,1.4-4.3,2.2s-2.8,1.4-4.2,2.1s-2.8,1.2-4.1,2c-2,1.1-3.8,2.3-5.6,3.6s-3.6,2.6-5.5,3.9l0,0l-0.6,0.4
	h0.1h-0.1l-0.1,0.1h0.1l0,0l0.3-0.2l-0.3,0.2l-0.4,0.2l-0.2,0.2l0,0c-1.7,1.1-3.5,2.2-5.3,3.2c-1.1,0.6-2.1,1.3-3.1,2l-2.5,1.5
	c-1.1,0.7-2.2,1.4-3.3,2.1h0.1c-1.4,0.9-2.8,1.8-4.1,2.7l-0.9,0.5c-0.4,0.2-0.6,0.5-0.8,0.8c-0.3,0.8,0.1,1.6,0.9,1.9
	c0.2,0.1,0.4,0.1,0.5,0.1C129.7,60.2,129.9,60.2,130,60.1L130,60.1z M148,45.1l0.2-0.1l0.1-0.1L148,45.1z M148,45.1l0.1-0.1
	L148,45.1z M148.3,44.9l0.2-0.1L148.3,44.9z M178.7,30.8L178.7,30.8L178.7,30.8z M180.6,25.9L180.6,25.9L180.6,25.9z M184.1,23.8
	L184.1,23.8L184.1,23.8z M177.2,28.2L177.2,28.2L177.2,28.2z M148.7,44.8L148.7,44.8L148.7,44.8L148.7,44.8L148.7,44.8L148.7,44.8z
	 M149.9,47.5l0.2-0.1l0,0L149.9,47.5L149.9,47.5l-0.2,0.1L149.9,47.5L149.9,47.5z M149.7,47.6L149.7,47.6L149.7,47.6z M143,51.7
	L143,51.7L143,51.7z"/>
<path class="st0" d="M116.6,57.5c0.4-0.2,0.8-0.4,1.2-0.6s1-0.7,1.5-1l2.6-1.8c0.8-0.6,1.7-1.2,2.5-1.8s1.7-1.2,2.5-1.7
	s1.8-1.1,2.6-1.7l-0.3,0.2c1.3-0.8,2.6-1.5,4-2.3c0.6-0.4,1.3-0.7,1.9-1.1s1.3-0.8,2-1.2c1.4-0.9,2.8-1.8,4.2-2.8s2.4-1.8,3.7-2.6
	s2.6-1.8,3.9-2.6c1.6-1,3.3-2.1,5-3l2.5-1.4c1-0.6,2-1.2,3-1.9l-0.3,0.2c2.6-1.6,5-3.4,7.6-5c1.5-0.9,3-1.8,4.5-2.8
	c0.4-0.2,0.6-0.5,0.8-0.9c0.1-0.4,0.1-0.8-0.1-1.1c-0.2-0.4-0.5-0.6-0.9-0.8c-0.4-0.1-0.8-0.1-1.1,0.1c-2,1.3-4.1,2.5-6.1,3.8
	s-3.8,2.5-5.6,3.8l-1,0.6c-1.3,0.8-2.6,1.6-3.9,2.4s-2.6,1.5-3.9,2.3s-2.7,1.7-4.1,2.6s-2.7,1.7-4,2.7l-2.5,1.8
	c-0.8,0.6-1.6,1.1-2.4,1.6l-2.1,1.3c-0.8,0.5-1.5,0.9-2.3,1.4s-1.6,0.9-2.4,1.3s-1.7,1-2.5,1.6l0.3-0.2c-1,0.6-2,1.3-3,1.9
	s-1.9,1.3-2.9,2l-2.7,1.9l-2.4,1.7c-0.3,0.2-0.7,0.3-1.1,0.5c-0.7,0.4-1.1,1.3-0.7,2c0.3,0.5,0.8,0.9,1.4,0.9
	C116.2,57.7,116.4,57.6,116.6,57.5L116.6,57.5z M126.7,50.7l0.2-0.1L126.7,50.7z M136.3,41.4l0.2-0.2L136.3,41.4z M158.1,27.3
	l0.2-0.1L158.1,27.3z M166.7,25.2l0.1-0.1C166.7,25.1,166.7,25.1,166.7,25.2z"/>
<path class="st0" d="M100.7,54.1c0.6-0.3,1.1-0.7,1.7-1c0.9-0.6,1.9-1.2,2.9-1.7s1.9-1,2.9-1.5c2-1.1,4-2.3,5.9-3.6
	c1.2-0.8,2.4-1.5,3.7-2.3s2.5-1.5,3.7-2.3c1-0.7,2.1-1.3,3.1-2l3.2-2.1c2-1.4,4-2.7,6.1-4.1c2-1.2,4-2.5,6-3.8s3.7-2.7,5.6-4
	c1-0.6,2-1.2,3-1.8c1.2-0.7,2.3-1.5,3.5-2.3c0.3-0.2,0.5-0.6,0.5-1c0.1-0.8-0.6-1.5-1.4-1.6c-0.4,0-0.8,0.1-1.1,0.4
	c-0.7,0.4-1.3,0.9-2,1.3c-0.9,0.6-1.8,1.1-2.8,1.6s-2.1,1.3-3.2,2l-2.8,2.1c-0.9,0.6-1.8,1.2-2.7,1.8c-1.1,0.7-2.3,1.4-3.4,2.1
	c-1.4,0.9-2.7,1.8-4.1,2.7c-2.3,1.6-4.7,3.2-7,4.7c-1.2,0.7-2.3,1.5-3.5,2.2s-2.5,1.5-3.8,2.3c-1.4,0.9-2.8,1.8-4.2,2.7
	c-1.6,1-3.3,2-5,2.8c-1.7,0.9-3.4,1.8-5,2.9l0.1-0.1l-0.2,0.2l-0.1,0.1h0.1l-1,0.6c-0.4,0.2-0.6,0.5-0.8,0.8
	c-0.3,0.8,0.1,1.6,0.9,1.9c0.2,0.1,0.3,0.1,0.5,0.1C100.3,54.2,100.5,54.2,100.7,54.1L100.7,54.1z M147.7,20.9l0.2-0.1L147.7,20.9z
	 M100.4,50.7L100.4,50.7L100.4,50.7L100.4,50.7z"/>
<path class="st0" d="M84.8,50.4c0.7-0.3,1.4-0.7,2.1-1.1s1.3-0.7,2-1c1.4-0.7,2.8-1.3,4.2-2s2.7-1.3,4-2c1.5-0.9,2.9-1.8,4.3-2.8
	c1.2-0.8,2.3-1.7,3.4-2.6s2.3-1.6,3.5-2.4l4-2.8c1.1-0.8,2.2-1.6,3.3-2.3c1.7-1,3.4-2.1,5-3.2s3.2-2.3,4.8-3.3
	c0.9-0.6,1.9-1.2,2.9-1.7c1.2-0.7,2.5-1.2,3.7-1.8c0.7-0.4,1.1-1.3,0.7-2c-0.4-0.7-1.3-1.1-2-0.7c-1.3,0.6-2.6,1.2-3.9,1.9
	s-2.5,1.4-3.7,2.2s-2.3,1.5-3.4,2.4s-2.2,1.5-3.4,2.2l0.3-0.2c-1.3,0.9-2.8,1.7-4.1,2.6l-4.4,3.1c-1.3,0.9-2.6,1.7-3.8,2.6
	s-2.5,1.9-3.8,2.8c-1,0.8-2.1,1.5-3.2,2.3S95.2,42,94,42.5s-2.4,1.1-3.6,1.7s-2.3,1.1-3.4,1.6s-2.3,1.3-3.5,1.9
	c-0.7,0.4-1.1,1.2-0.7,2c0.3,0.5,0.8,0.9,1.4,0.9C84.4,50.6,84.6,50.5,84.8,50.4L84.8,50.4z M97.1,40.8l0.2-0.1L97.1,40.8z"/>
<path class="st0" d="M71.7,46.5c0.7-0.3,1.4-0.8,2.1-1.2s1.3-0.8,2-1.1s1.3-0.6,2-1s1.3-0.7,2-1.1c2.7-1.7,5.4-3.5,7.8-5.6
	c1.5-1.2,3-2.4,4.7-3.4c1.3-0.8,2.6-1.6,3.9-2.3l4.2-2.5c2.8-1.7,5.6-3.4,8.3-5.3c2.4-1.6,4.6-3.3,6.9-5c0.6-0.5,0.7-1.5,0.2-2.1
	c-0.3-0.3-0.6-0.5-1-0.5s-0.8,0.1-1.1,0.4c-1.8,1.3-3.7,2.7-5.5,4s-3.6,2.4-5.4,3.6l0.1-0.1l-0.1,0.1l-0.2,0.1l0.2-0.1
	c-1.3,0.8-2.6,1.6-3.9,2.3s-2.9,1.7-4.3,2.5s-2.8,1.6-4.2,2.5s-2.7,1.8-3.9,2.8s-2.4,1.9-3.6,2.8s-2.2,1.6-3.3,2.3
	c-0.7,0.4-1.3,0.8-2,1.2s-1.5,0.8-2.3,1.2s-1.6,0.8-2.3,1.2s-1.6,1-2.4,1.4c-0.7,0.4-1.1,1.3-0.7,2c0.2,0.5,0.8,0.9,1.4,0.8
	C71.3,46.6,71.6,46.6,71.7,46.5L71.7,46.5z M79.3,38.9L79.3,38.9L79.3,38.9z M102.8,23.4L102.8,23.4L102.8,23.4L102.8,23.4
	L102.8,23.4z"/>
<path class="st0" d="M59.2,42.1c0.9-0.3,1.8-0.6,2.6-1.1c0.7-0.3,1.3-0.6,1.9-1c1.5-0.8,3-1.8,4.4-2.7c2.6-1.8,5.2-3.6,7.8-5.4
	c0.7-0.5,1.3-0.9,2-1.3c1.3-0.9,2.7-1.7,4-2.5l2.1-1.3c0.7-0.4,1.3-0.8,2-1.2c2.8-1.8,5.3-3.8,8-5.6l0.8-0.5
	c0.9-0.6,1.9-1.2,2.8-1.7c1.1-0.5,2.2-1,3.3-1.4c0.7-0.4,1.1-1.3,0.7-2l0,0c-0.2-0.4-0.5-0.6-0.8-0.8c-0.4-0.1-0.8-0.1-1.1,0.1
	c-0.7,0.3-1.5,0.5-2.2,0.9s-1.3,0.7-1.9,1c-1.3,0.8-2.7,1.6-4,2.5c-2.5,1.7-4.8,3.5-7.3,5.1c-0.6,0.4-1.1,0.7-1.7,1l-2.1,1.3
	c-1.4,0.9-2.8,1.7-4.1,2.6s-2.8,1.8-4.2,2.8s-2.6,1.8-3.9,2.7s-2.4,1.6-3.6,2.4c-1,0.6-2,1.2-3.1,1.8c-0.5,0.3-1,0.5-1.5,0.8
	s-1,0.5-1.5,0.7h-0.1c-0.8,0.1-1.4,0.8-1.4,1.6s0.8,1.4,1.6,1.4L59.2,42.1L59.2,42.1z M84.4,23.1c0.1-0.1,0.2-0.1,0.3-0.2L84.4,23.1
	z"/>
<path class="st0" d="M48.7,37.1c0.7-0.3,1.4-0.6,2.1-0.9s1.3-0.7,2-1.1c1.3-0.8,2.7-1.6,4-2.4s2.9-1.7,4.3-2.6s2.8-1.9,4.2-2.9
	c2.2-1.6,4.4-3.4,6.6-5s4.4-3.2,6.7-4.7c0.7-0.5,1.5-0.9,2.2-1.3c1-0.6,2-1.1,3-1.6c0.8-0.3,1.1-1.2,0.8-2c-0.3-0.8-1.2-1.1-2-0.8
	c0,0-0.1,0-0.1,0.1c-1.5,0.8-3,1.6-4.5,2.4s-2.9,1.9-4.2,2.9c-2.6,1.9-5.1,3.7-7.7,5.7c-1.8,1.4-3.7,2.9-5.6,4.2
	c-1,0.6-2.1,1.3-3.2,1.9s-2.1,1.3-3.2,1.9s-2.2,1.3-3.3,1.9c-0.5,0.3-1.1,0.6-1.6,0.9s-1.2,0.5-1.8,0.8c-0.7,0.4-1.1,1.3-0.7,2l0,0
	c0.2,0.5,0.8,0.9,1.3,0.8C48.2,37.2,48.4,37.2,48.7,37.1L48.7,37.1z M60.5,26.9l0.2-0.1L60.5,26.9z"/>
<path class="st0" d="M34.7,33.1c1.4-0.8,2.8-1.6,4.2-2.3s2.8-1.2,4.2-1.8c0.7-0.3,1.4-0.6,2.1-0.9s1.5-0.8,2.3-1.2
	c1.4-0.8,2.8-1.6,4.2-2.6c1.3-0.9,2.6-1.9,3.9-2.9s2.5-1.8,3.7-2.7c2.6-2,5.1-4,7.9-5.8h0.1c0.8-0.5,1.6-1,2.5-1.5s1.8-1,2.7-1.5
	c0.8-0.4,1.1-1.3,0.7-2c-0.4-0.8-1.3-1.1-2-0.7l0,0c-1.4,0.8-2.9,1.5-4.3,2.4s-2.8,1.8-4.2,2.8c-2.7,1.9-5.2,3.9-7.8,5.9
	c-1.9,1.4-3.8,2.9-5.8,4.2c-1.2,0.7-2.3,1.4-3.5,2.1c-1.3,0.7-2.6,1.3-4,1.8c-1.3,0.5-2.7,1.1-4,1.8s-2.7,1.4-4,2.2
	c-0.4,0.2-0.6,0.5-0.8,0.9c-0.1,0.4-0.1,0.8,0.1,1.1c0.3,0.5,0.8,0.9,1.4,0.9C34.3,33.2,34.5,33.2,34.7,33.1L34.7,33.1z M49.1,22.3
	L49.1,22.3L49.1,22.3z M67.2,12.7l0.1-0.1C67.3,12.7,67.3,12.7,67.2,12.7z"/>
<path class="st0" d="M337.5,63.5c-0.7,0.8-1.5,1.5-2.3,2.2c-0.6,0.3-1.3,0.6-1.9,0.9s-1.3,0.5-2,0.8c-1.3,0.5-2.5,0.9-3.8,1.4
	s-2.3,0.8-3.5,1.2l-1.8,0.7c-0.6,0.2-1.3,0.5-1.9,0.7c-0.9,0.4-1.3,1.4-0.9,2.3s1.4,1.3,2.3,0.9c0.7-0.3,1.4-0.5,2.1-0.8
	s1.5-0.5,2.2-0.8c1.5-0.5,3-1,4.5-1.6s3-1,4.5-1.7c1-0.4,2-1,2.9-1.6c0.6-0.6,1.2-1.1,1.8-1.8c0.4-0.3,0.6-0.7,0.6-1.2
	s-0.1-0.9-0.4-1.3c-0.3-0.4-0.7-0.6-1.2-0.6h-0.1C338.2,63.1,337.8,63.3,337.5,63.5L337.5,63.5z"/>
<path class="st0" d="M338.7,74.1l-2.1,1.4c-0.6,0.4-1.3,0.8-2,1.1c-0.9,0.4-1.7,0.8-2.6,1.2s-1.7,0.8-2.6,1.1s-1.7,0.6-2.5,0.9
	c-1.8,0.6-3.6,1.1-5.4,1.6l-2.6,0.8l-1.3,0.4c-0.6,0.2-1.2,0.3-1.8,0.6c-0.9,0.4-1.3,1.4-0.9,2.3s1.4,1.2,2.3,0.9l0.4-0.1
	c3.3-1,6.7-2,10-3c0.9-0.3,1.9-0.6,2.8-0.9s1.8-0.7,2.7-1.1c1.7-0.7,3.4-1.5,5-2.5c1-0.6,2-1.3,3-1.9c0.4-0.3,0.6-0.7,0.6-1.2
	s-0.1-0.9-0.4-1.3s-0.7-0.6-1.2-0.6H340c-0.4,0-0.8,0.2-1.1,0.4L338.7,74.1z M336.8,75.3l-0.2,0.1L336.8,75.3z"/>
<path class="st0" d="M337.5,86.8c-1,0.3-2,0.6-2.9,1s-1.7,0.6-2.6,0.9c-1.1,0.3-2.3,0.7-3.5,1c-0.4,0.2-0.8,0.6-0.9,1
	c-0.3,0.9,0.1,1.9,1,2.3l0,0c0.4,0.1,0.9,0.1,1.3-0.1l0.5-0.2c1.4-0.4,2.8-0.8,4.2-1.3s2.8-0.9,4.2-1.4c0.4-0.2,0.8-0.5,0.9-1
	c0.2-0.4,0.1-0.9,0-1.3c-0.2-0.4-0.6-0.8-1-0.9c-0.2-0.1-0.4-0.1-0.5-0.1C338,86.7,337.7,86.7,337.5,86.8L337.5,86.8z M330.8,92.6
	l-0.2,0.1L330.8,92.6z"/>
<path class="st0" d="M336.2,100.6c-1.1,0.6-2.3,1.2-3.4,1.7s-2.3,0.9-3.5,1.3h0.1c-1,0.3-2.1,0.6-3.1,0.9s-2.4,0.5-3.6,0.8l-3.3,0.6
	c-1.1,0.2-2.2,0.3-3.4,0.5h0.1c-1,0-1.7,0.8-1.7,1.8c0,0.4,0.1,0.8,0.4,1.1c0.3,0.4,0.7,0.6,1.2,0.6s1-0.1,1.6-0.1s0.9-0.1,1.3-0.2
	c0.8-0.1,1.6-0.3,2.4-0.4c1.7-0.3,3.5-0.6,5.2-1c1.9-0.5,3.7-1,5.6-1.7c1.7-0.6,3.3-1.3,4.8-2.2l0.8-0.4c0.9-0.4,1.3-1.4,0.9-2.3
	c-0.3-0.6-0.9-1-1.6-1C336.6,100.5,336.4,100.5,336.2,100.6L336.2,100.6z"/>
<path class="st0" d="M334.7,109.3c-0.8,0.5-1.7,1-2.5,1.4c-0.8,0.3-1.5,0.7-2.3,0.9c-1.5,0.4-2.9,0.9-4.3,1.4
	c-0.4,0.2-0.8,0.6-0.9,1c-0.2,0.4-0.1,0.9,0.1,1.3s0.6,0.8,1,0.9s0.9,0.1,1.3-0.1c1.1-0.4,2.2-0.8,3.3-1.1c1-0.3,1.9-0.6,2.8-1
	c1-0.5,2-1,3-1.6c0.4-0.2,0.7-0.6,0.9-1c0.2-0.4,0.2-0.9,0-1.3s-0.6-0.8-1-0.9c-0.2-0.1-0.4-0.1-0.6-0.1
	C335.1,109.1,334.9,109.2,334.7,109.3L334.7,109.3z M330.2,111.4l-0.3,0.1L330.2,111.4z"/>
<path class="st0" d="M334.8,120.1c-1.2,0.2-2.4,0.5-3.5,0.8s-2.3,0.6-3.5,0.7c-1,0.2-1.6,1.1-1.4,2s1.1,1.6,2,1.4
	c1.2-0.2,2.3-0.5,3.5-0.7s2.4-0.5,3.6-0.8c1-0.1,1.6-1,1.5-2c-0.1-0.9-0.9-1.5-1.8-1.5C335,120.1,334.9,120.1,334.8,120.1
	L334.8,120.1z"/>
<path class="st0" d="M3.8,58.6c-0.4,0.9,0,1.9,0.9,2.3c1.4,0.6,2.9,1.2,4.3,1.8c0.7,0.3,1.4,0.7,2.1,1c0.7,0.3,1.3,0.5,2,0.7
	c3.1,1,6.1,2.1,9.2,3.2c0.9,0.4,1.9,0.1,2.3-0.8s0.1-1.9-0.8-2.3c-0.1,0-0.1,0-0.2-0.1c-3-1.1-6.1-2.2-9.2-3.2c-1.4-0.5-2.7-1-4-1.7
	C9,58.8,7.5,58.3,6,57.7c-0.2-0.1-0.4-0.1-0.7-0.1C4.8,57.6,4.2,58,3.8,58.6L3.8,58.6z"/>
<path class="st0" d="M1.9,70.3c-0.4,0.9,0,1.9,0.9,2.3L8,75c0.8,0.3,1.5,0.7,2.3,1s1.7,0.6,2.6,0.9c1.8,0.6,3.5,1.2,5.3,1.8
	c1.8,0.6,3.7,1.1,5.7,1.5c1.3,0.3,2.7,0.5,4,0.8s2.8,0.4,4.2,0.6c1,0.1,1.8-0.5,2-1.5l0,0c0.1-1-0.5-1.9-1.5-2
	c-1-0.2-1.9-0.3-2.9-0.4s-2-0.3-2.9-0.5c-1.9-0.3-3.7-0.7-5.6-1.2c-1.4-0.4-2.7-0.9-4.1-1.4l-4.5-1.5c-1.4-0.5-2.7-1.1-4-1.7
	c-1.4-0.7-2.9-1.3-4.3-2c-0.2-0.1-0.4-0.1-0.7-0.1C2.9,69.2,2.2,69.7,1.9,70.3L1.9,70.3z"/>
<path class="st0" d="M3.8,82.6c-0.4,0.9,0,1.9,0.9,2.3c0.9,0.3,1.8,0.7,2.7,1s1.7,0.8,2.6,1.2s1.7,0.8,2.6,1.1
	c1.1,0.4,2.2,0.6,3.3,0.8c1,0.1,1.8-0.5,2-1.5l0,0c0.1-0.5-0.1-0.9-0.3-1.3c-0.3-0.4-0.7-0.6-1.1-0.7c-0.5-0.1-1-0.2-1.5-0.3
	c-1.4-0.5-2.8-1-4.2-1.7c-0.7-0.3-1.5-0.7-2.2-1S6.9,82,6.1,81.7c-0.2-0.1-0.4-0.1-0.7-0.1C4.7,81.6,4.1,82,3.8,82.6z"/>
<path class="st0" d="M10.1,100c-0.9,0.4-1.3,1.4-1,2.3c0.2,0.4,0.5,0.8,0.9,1c2.3,0.8,4.7,1.5,7,2.2l-0.4-0.1l0.4,0.1
	c0.4,0.2,0.9,0.2,1.3,0c0.5-0.2,0.8-0.5,1-1c0.4-0.9,0-1.9-0.9-2.3c-0.4-0.1-0.9-0.2-1.3-0.4l0.4,0.1c-2.1-0.6-4.1-1.2-6.1-1.9
	c-0.2-0.1-0.5-0.1-0.7-0.1C10.5,99.8,10.3,99.9,10.1,100L10.1,100z"/>
<path class="st0" d="M8.7,114.7c-0.4,0.9,0,1.9,0.9,2.3c1.7,0.7,3.5,1.5,5.2,2.1c1,0.3,2,0.6,3,0.9l2.5,0.7c0.9,0.3,1.8,0.6,2.7,0.9
	c0.9,0.4,1.9-0.1,2.3-0.9c0.4-0.9,0-1.9-0.9-2.3c-2.2-0.8-4.4-1.3-6.6-1.9c-1.1-0.3-2.1-0.7-3.1-1.1c-1.2-0.5-2.4-1-3.7-1.5
	C10.2,113.4,9.1,113.8,8.7,114.7L8.7,114.7z"/>
<g>
	<path id="SVGID_x5F_1_x5F_" class="st1" d="M43.1,122c31.7,8,71.6,15.2,117.9,16.9c57.5,2.1,106.3-4.8,143.1-12.9"/>
	<text>	<textPath  xlink:href="#SVGID_x5F_1_x5F_" startOffset="11.084%">
<tspan  class="st0" style="font-family:'GreycliffCF-DemiBold'; font-size:52px;">Contact</tspan>	</textPath>
</text>
</g>
</svg>
