<svg xmlns="http://www.w3.org/2000/svg" width="674.95" height="559.882" viewBox="0 0 674.95 559.882">
  <defs>
    <style>
      .a {
        fill: #000000;
      }

      .b {
        fill: #fefefe;
      }
    </style>
  </defs>
  <g>
    <g>
      <path class="a" d="M260.569,12.19h-.086a41.717,41.717,0,0,0-6.3.641l-.1.015-.961.149c-1.48.161-3.071.266-4.866.32a40.429,40.429,0,0,0-5.44.684l-.694.117-.668.113c-.629.063-1.257.117-1.89.164a43.643,43.643,0,0,0-5.087.766c-.974.2-1.951.451-2.813.672l-.324.086c-1.4.366-2.569.662-3.777.871-1.063.14-2.2.3-3.328.539l-.688.152c-.726.164-1.453.324-2.187.457l-.21.024c-.993.121-1.981.242-2.966.4-.48.082-.949.176-1.426.274l-.262.05c-.441.094-.882.184-1.324.266-.492.09-.984.164-1.476.234-.559.082-1.086.16-1.606.262-.459.09-.913.191-1.364.292l-.234.052-.3.066-.3.067-1.04.246a18.019,18.019,0,0,0-1.874.527c-.38.125-.7.227-1.025.32-.94.267-1.918.454-2.92.637-1.82.339-3.6.85-5.177,1.3l-1.188.34c-1.848.512-3.821,1.132-5.864,1.844-.73.254-1.464.492-2.2.73-1.345.428-2.774.893-4.161,1.465l-.481.2a59.3,59.3,0,0,0-6.852,3.161l-.907.52c-1.459.837-3.114,1.786-4.8,2.558l-.617.265-.582.25-1,.383c-1.783.674-4,1.512-6.118,2.516-.348.168-.692.332-1.039.5l-.773.25-.265.086-.172.054c-1.642.533-3.122,1.019-4.606,1.555a121.768,121.768,0,0,0-14.833,6.1c-1.918.987-3.771,2.005-5.172,2.782-1.185.656-2.428,1.263-3.629,1.85l-.269.134q-.821.4-1.637.8A80.633,80.633,0,0,0,120.611,57.6l-.654.455c-1.782,1.236-3.538,2.5-5.293,3.772-1.5,1.08-2.98,2.15-4.476,3.2l-1.121.785c-2.4,1.672-5.377,3.753-8.215,5.9l-.09.071-.083.07-.343.258-.676.519.476-.268c-2.094,1.538-4.1,3.158-6.152,4.937-1.3,1.136-2.595,2.386-3.708,3.469-.515.5-1,.969-1.488,1.433-4.344,4.138-7.832,7.583-10.977,10.844-4,4.158-7.82,7.878-11.683,11.375-1.868,1.7-3.71,3.618-5.335,5.309l-.177.184-.074.074-1.617,1.676c-1.219,1.257-2.434,2.515-3.625,3.8a130.717,130.717,0,0,0-8.764,10.888l-.12.159-.086.109-1.5,2c-2.906,3.876-5.622,7.956-8.018,11.556l-.15.225c-2.9,4.353-5.289,8.234-7.313,11.864-.834,1.5-1.745,2.99-2.625,4.433l-.129.211-.055.09a87.51,87.51,0,0,0-4.461,7.911c-1.5,3.17-2.6,5.674-3.555,8.122L17.454,175.8q-.873,2.238-1.742,4.445c-.465,1.168-.938,2.324-1.414,3.484-1.438,3.508-3.067,7.483-4.251,11.454-.609,2.02-1.183,4.043-1.757,6.067l-.208.73-.05.184-.106.363c-.782,2.764-1.55,5.46-2.347,8.066l-.3.954-.3.964c-.578,1.807-1.228,3.835-1.7,5.9-.412,1.752-.682,3.674-.86,4.946l-.1.624c-.1.663-.2,1.325-.307,1.985a127.1,127.1,0,0,0-1.7,17.466c-.174,5.373-.206,10.847-.237,16.14v.11l0,.125v.11Q.005,272.246.008,284.563l0,6.2,0,3.989v3.984c0,2.349.125,4.886.4,7.985.046.555.085,1.113.125,1.672.062.86.125,1.719.214,2.575.106.945.223,1.886.344,2.832l.016.167.187,1.47c.513,4.148.963,7.538,1.414,10.668l.024.195c.646,4.851,1.378,10.35,2.434,15.629.607,3.089,1.117,5.8,1.558,8.3.129.75.258,1.5.383,2.254l.18,1.035c.3,1.793.6,3.582.933,5.363.284,1.575.637,3.217.946,4.634l.066.3c.246,1.129.488,2.254.719,3.387.324,1.627.745,3.276,1.117,4.731l.094.382c.226.891.453,1.786.664,2.684,1.21,5.237,2.579,10.149,4.187,15.016.687,2.088,1.311,3.893,1.907,5.52.814,2.241,1.794,4.514,2.582,6.341l.1.234c1.277,3.059,2.644,6.15,4.062,9.188.154.336.311.668.468,1l.235.5.293.613c.7,1.477,1.664,3.5,2.528,5.5,1.9,4.514,3.721,8.562,5.562,12.375.987,2.054,2.051,4.071,3.165,6,1.074,1.855,2.273,3.618,3.332,5.172.91,1.348,1.836,2.668,2.766,3.989l.137.195c1.244,1.774,2.792,3.982,4.152,6.1,1.189,1.86,2.3,3.491,3.4,4.985.882,1.188,1.8,2.313,2.911,3.661l.078.1c.539.653,1.074,1.305,1.6,1.965,1.121,1.5,2.215,3.019,3.305,4.543l.144.2.258.359.3.422c1.254,1.735,2.549,3.53,3.872,5.247l.649.847c.84,1.1,1.709,2.235,2.629,3.262s1.867,2.04,2.816,3.048c1.737,1.849,3.445,3.659,5.259,5.48.582.582,1.152,1.164,1.722,1.75,1.126,1.151,2.4,2.455,3.645,3.649,1.191,1.134,2.373,2.192,3.793,3.457.719.641,1.441,1.285,2.152,1.934.883.8,1.778,1.6,2.676,2.386l.211.184.391.348c.969.859,1.937,1.718,2.879,2.6,2.02,1.874,4.066,3.65,5.8,5.141,2.329,2,4.913,4,7.68,5.95,1.156.812,2.332,1.594,3.512,2.375l.1.066.41.278c.961.64,1.914,1.277,2.867,1.941l.515.359.114.082c3.984,2.788,8.1,5.671,12.407,8.184,2.133,1.25,4.46,2.476,7.324,3.856,3.532,1.7,6.267,3,9.314,4.184,4.973,1.948,10.15,3.716,15,5.336,5.121,1.715,10.182,3.039,15.348,4.356,4.487,1.146,9.446,2.275,15.606,3.555l1.122.23.371.074.187.036.2.042c1.852.384,3.768.782,5.634,1.223.769.184,1.539.375,2.308.567l.785.191.739.184.7.175.535.133c.758.188,1.516.375,2.277.555l1.242.3.2.05c1.837.444,4.123,1,6.328,1.364,2.963.486,6.126.9,10.255,1.332,3.4.359,6.789.758,10.179,1.156l.262.031.574.067q2.6.3,5.192.6c1.836.207,3.668.438,5.5.668l.195.024c3.3.412,7,.876,10.594,1.168,10.19.812,20.484.836,30.439.859l3.648.012h.3a101.156,101.156,0,0,0,17.6-1.7c3.378-.6,6.912-1.285,10.029-1.891l.124-.024.527-.1,1.418-.278.219-.046c1.2-.235,2.4-.469,3.6-.692,2.455-.475,4.924-1,7.77-1.64,1.5-.348,3.106-.66,4.4-.911l.257-.046.563-.106c.844-.16,1.683-.32,2.527-.488a138.364,138.364,0,0,0,14.521-3.606l2.218-.691c3.561-1.109,7.991-2.489,12.216-3.938,2.109-.723,4.342-1.608,5.973-2.254l1.351-.535c2.6-1.021,6.006-2.378,9.3-3.825,2.578-1.129,4.9-2.158,7.216-3.324,2.243-1.125,4.523-2.394,6.356-3.414l.894-.5a121.394,121.394,0,0,0,13.657-8.9c2.094-1.558,4.192-3.125,6.266-4.718l-.193.049c4.871-3.618,9.147-6.782,13.873-10.245,2.525-1.848,5.5-4.058,8.387-6.43.8-.656,1.582-1.32,2.371-1.988,1.493-1.271,2.657-2.247,3.848-3.183,4.929-3.823,8.9-7.17,12.5-10.532,1.234-1.156,2.414-2.38,3.555-3.563l.137-.137c.629-.656,1.23-1.277,1.844-1.9,1.426-1.451,2.847-2.963,3.925-4.117l1.622-1.723a138.4,138.4,0,0,0,11.145-13.075c2.863-3.894,5.857-8.076,9.422-13.161,2.816-4.012,5.606-8.346,8.782-13.637,2.951-4.892,5.587-10.031,8.136-15l.743-1.434.414-.805.117-.226c.8-1.531,1.8-3.436,2.688-5.356,1.281-2.758,2.577-5.729,4.078-9.348,1.974-4.725,3.6-9.788,4.9-13.856l.054-.168c2.314-7.248,4.935-15.689,6.751-24.15,2.072-9.7,3.6-18.452,4.671-26.739l.02-.148c.778-5.64,1.583-11.473,1.934-17.419.148-2.6.4-5.194.64-7.707.235-2.463.477-5,.629-7.543.3-5.217.348-10.307.391-14.8A125.445,125.445,0,0,0,533,271c-.388-2.979-.949-6.051-1.445-8.762l-.063-.351c-.37-2.016-.759-4.162-1.082-6.281-.156-1.281-.293-2.558-.41-3.843-.19-2.06-.48-4.194-.736-6.077l-.022-.178-.148-1.094-.055.2.035-.177v-.161c-.37-2.6-.772-5.2-1.227-7.927-.121-.7-.234-1.406-.344-2.11l-.027-.168c-.265-1.658-.56-3.512-.93-5.328l-.211-1.024c-.421-2.01-.945-4.512-1.281-6.96-.338-2.412-.8-4.972-1.426-7.825-.71-3.236-1.685-6.459-2.627-9.575l-.033-.109-.031-.109c-.418-1.379-.832-2.747-1.223-4.114a160.443,160.443,0,0,0-5.34-15.274l-1.172-2.945-.035-.1-.121-.312-.043-.109c-1.018-2.552-2.07-5.19-3.149-7.775-4.13-10.148-8.615-20.908-14.012-31.1-2.44-4.614-5.054-8.96-7.516-12.969l-.656-1.074-.184-.305c-.922-1.512-1.948-3.194-3-4.785-.88-1.359-1.8-2.7-2.824-4.2l-.2-.3-1.3-1.887c-2.864-4.208-6.18-8.177-9.387-12.015l-.13-.153-.964-1.149c-1.73-2.069-3.467-4.034-4.938-5.684-.84-.949-1.664-1.91-2.484-2.874-.758-.891-1.508-1.77-2.274-2.637a115.437,115.437,0,0,0-10.243-10.064,164.987,164.987,0,0,0-13.465-10.848c-3.522-2.5-7.207-5.23-10.953-8.117-3.574-2.749-7.268-5.194-10.087-7.016a103,103,0,0,0-11.286-6.462c-5.483-2.649-9.737-4.581-13.794-6.261-1.984-.868-4-1.8-5.824-2.637l-.417-.191-.262-.122c-2.275-1.049-4.5-2.068-6.684-3.008-.121-.05-.164-.07-.2-.089l-.539-.227-.539-.226.464.279c-2.321-1.05-4.981-2.148-8.617-3.576l-.75-.325c-2.028-.88-4.188-1.81-6.344-2.648a61.2,61.2,0,0,0-6.47-2l-.777-.211-1.105-.3c-.848-.238-1.692-.473-2.543-.672-.948-.232-1.914-.422-2.82-.6-.482-.1-.935-.185-1.388-.279-2.935-.6-5.441-1.149-7.66-1.684-1.878-.457-3.755-1.045-5.571-1.614l-.194-.061-.144-.043-1.141-.36a51.335,51.335,0,0,0-5.872-1.333l-.324-.061-1.309-.246c-2.566-.492-5.125-.989-7.687-1.508-1.129-.227-2.262-.422-3.4-.617-1.224-.208-2.49-.423-3.734-.692-1.443-.3-2.886-.665-4.281-1.018l-.222-.056-.332-.082-.105-.031-.677-.168c-.718-.184-1.429-.387-2.136-.59l-.105-.031c-1.078-.309-2.328-.666-3.533-.907a58.706,58.706,0,0,0-7.54-.9l-.879-.05-.375-.021-.52-.027c-1.263-.059-2.7-.126-4.089-.289-2.532-.34-5.264-.684-8.086-.891-2.462-.175-4.875-.22-7.774-.261-2.36-.032-4.719-.043-7.078-.051Z"/>
      <path class="a" d="M601.557,227.3a19.76,19.76,0,0,0-2.856,2.18,14.856,14.856,0,0,0-1.951,2.066,14.424,14.424,0,0,0-1.873,1.715,20.824,20.824,0,0,0-1.488,2.035,12.841,12.841,0,0,0-1.668,3.848,28.76,28.76,0,0,0-.774,6.406c-.027.953-.043,1.906-.031,2.859a17.727,17.727,0,0,0,.137,1.821,13.725,13.725,0,0,0,1.683,5.031,10.646,10.646,0,0,0,3.317,3.258,11.493,11.493,0,0,0,2.3,1.3,16.894,16.894,0,0,0,3.519,1.046,25.348,25.348,0,0,0,5.884.876,20.273,20.273,0,0,0,4.754-.469,16.029,16.029,0,0,0,5.1-2.191,10.893,10.893,0,0,0,1.325-1,19.573,19.573,0,0,0,1.914-1.746,16.376,16.376,0,0,0,3.058-4.617,19.058,19.058,0,0,0,1.172-4.469,30.629,30.629,0,0,0,.4-4.5,15.679,15.679,0,0,0-.083-1.59c-.007-.085-.016-.17-.026-.255a11.5,11.5,0,0,0-.079-1.272,18.266,18.266,0,0,0-.777-3.949,21.971,21.971,0,0,0-1.528-3.321,18.43,18.43,0,0,0-2.468-3.191,19.723,19.723,0,0,0-2.02-1.809,24.822,24.822,0,0,0-2.262-1.66,8.976,8.976,0,0,0-2.019-.871,12.2,12.2,0,0,0-2.961-.527q-.379-.027-.756-.027c-3.2,0-6.215,1.41-8.939,3.019Z"/>
      <path class="a" d="M642.326,288.759c-.879.145-1.758.277-2.625.473a18.192,18.192,0,0,0-3.605,1.422,15.045,15.045,0,0,0-2.7,1.738l-.178.136a16.024,16.024,0,0,0-2.97,1.208,16.454,16.454,0,0,0-6.188,6.3A33.9,33.9,0,0,0,621,307.115a42.775,42.775,0,0,0-1.527,6.238c-.026.149-.051.3-.074.449a52.4,52.4,0,0,0-.821,6.9,19.807,19.807,0,0,0,.645,5.77,19.016,19.016,0,0,0,.539,2.316,21.539,21.539,0,0,0,3.019,6.434,52.729,52.729,0,0,0,4.051,4.742,33.335,33.335,0,0,0,5.547,4.945,25.8,25.8,0,0,0,6.992,3.118,24.612,24.612,0,0,0,2.988.8,41.746,41.746,0,0,0,4.364.5,37.728,37.728,0,0,0,6.058-.183,33.589,33.589,0,0,0,3.785-.61,20.426,20.426,0,0,0,4.9-1.922,16.223,16.223,0,0,0,3.191-2.246,20.052,20.052,0,0,0,2.371-2.3,29.1,29.1,0,0,0,2.3-2.957,22.262,22.262,0,0,0,1.648-3.075,40.932,40.932,0,0,0,2.493-7.332c.48-2.062.961-4.152,1.25-6.25a25.483,25.483,0,0,0-.032-7.043,29.527,29.527,0,0,0-1.8-7.355,23.351,23.351,0,0,0-3.075-5.613,42.818,42.818,0,0,0-4.543-4.825c-.742-.695-1.484-1.39-2.25-2.058a33.971,33.971,0,0,0-3.453-2.59,24.216,24.216,0,0,0-6.449-2.836,36.438,36.438,0,0,0-5.852-1.277,24.075,24.075,0,0,0-3.081-.242,11.623,11.623,0,0,0-1.86.14Z"/>
      <path class="a" d="M571.643,310.761a22.546,22.546,0,0,0-8.234,5.035,14.242,14.242,0,0,0-2.617,3.629,16.58,16.58,0,0,0-.931,1.954,11.737,11.737,0,0,0-2.593,2.886,17.724,17.724,0,0,0-1.585,3.433,18.98,18.98,0,0,0-.84,2.508,15.164,15.164,0,0,0-.313,2.051q-.1.931-.14,1.876c-.036.128-.071.257-.106.385a23.619,23.619,0,0,0-.812,4.668c-.031.506-.037,1-.02,1.5q-.06.84-.059,1.675a13.419,13.419,0,0,0,.391,2.9,19.04,19.04,0,0,0,.734,2.343c.3.785.676,1.543,1.032,2.305a8.732,8.732,0,0,0,2.183,2.57,10.984,10.984,0,0,0,3.586,2.015c.218.141.439.277.661.409a16.527,16.527,0,0,0,6.066,3.049,12.253,12.253,0,0,0,2.16.351c.9.094,1.758.161,2.66.168a11.146,11.146,0,0,0,1.757-.162,26.832,26.832,0,0,0,3.931.221,31.059,31.059,0,0,0,5.132-.68,31.9,31.9,0,0,0,4.786-1.273,16.482,16.482,0,0,0,4.222-2.215,11.658,11.658,0,0,0,3.211-3.68,14.081,14.081,0,0,0,.985-2.347,18.325,18.325,0,0,0,.609-2.09,22.05,22.05,0,0,0,.379-5.758,31.54,31.54,0,0,0-.836-5.363,21.516,21.516,0,0,0-.6-2.17c-.026-.408-.066-.819-.123-1.233a24.543,24.543,0,0,0-1.394-5.429,32.709,32.709,0,0,0-4.633-8.16,18.375,18.375,0,0,0-3.395-3.485,19.724,19.724,0,0,0-4.961-2.73,17.826,17.826,0,0,0-7.488-1.489h-.062a10.149,10.149,0,0,0-2.743.329Z"/>
      <path class="a" d="M34.409,45.131A11.187,11.187,0,0,0,28.2,50.576a17.018,17.018,0,0,0-.992,2.473,20.219,20.219,0,0,0-.625,2.132,17,17,0,0,0-.418,4.77,18.477,18.477,0,0,0,.7,4.223,13.643,13.643,0,0,0,.914,2.109,9.191,9.191,0,0,0,1.453,1.894,8.048,8.048,0,0,0,1.516,1.282,21.035,21.035,0,0,0,1.933,1.3c.2.078.407.157.606.235a8.72,8.72,0,0,0,1.719.593,14.53,14.53,0,0,0,2.566.29,12.478,12.478,0,0,0,3.461-.309A8.414,8.414,0,0,0,44.5,69.955a8,8,0,0,0,1.672-1.649,13.639,13.639,0,0,0,1.218-1.925,19.6,19.6,0,0,0,1.43-4.176,13.238,13.238,0,0,0,.231-2.692,12.775,12.775,0,0,0-.246-2.168,16.248,16.248,0,0,0-.528-2.453,17.493,17.493,0,0,0-.992-2.238,12.67,12.67,0,0,0-2.438-3.246c-.167-.172-.344-.338-.53-.5A14.155,14.155,0,0,0,42.7,47.384a11.568,11.568,0,0,0-3.785-2.078,8.68,8.68,0,0,0-2.043-.355c-.3-.027-.582-.044-.862-.044a5.525,5.525,0,0,0-1.6.224Z"/>
      <path class="a" d="M67.1.064a20.811,20.811,0,0,0-8.016,2.418,17.943,17.943,0,0,0-2.867,1.864A23.635,23.635,0,0,0,53.933,6.4,15.219,15.219,0,0,0,51.96,9.127a27.081,27.081,0,0,0-3.141,9.711,30.8,30.8,0,0,0-.343,5.305,30.239,30.239,0,0,0,.773,7.035,36.757,36.757,0,0,0,1.969,6.082,46.087,46.087,0,0,0,3.269,5.957c.657,1.039,1.4,2.039,2.161,3.008a16.98,16.98,0,0,0,7.777,5.9A37.7,37.7,0,0,0,75.7,54.514c5.5.425,10.641-2.047,14.785-5.469a16.82,16.82,0,0,0,3.364-3.6A20.306,20.306,0,0,0,96,41.092a33.789,33.789,0,0,0,1.7-7.227q.111-.792.2-1.585a4.574,4.574,0,0,0,.11-.96q.1-.924.194-1.849c.09-.547.109-1.109.148-1.68.071-.941.125-1.871.137-2.813a28.587,28.587,0,0,0-.566-5.375,32.642,32.642,0,0,0-.879-3.6,18.835,18.835,0,0,0-3.945-6.84,23.768,23.768,0,0,0-5.946-4.934,24.143,24.143,0,0,0-4.035-1.7,25.234,25.234,0,0,0-3.246-.863c-1.332-.279-2.665-.517-4.01-.676C74.737.757,73.6.529,72.46.322A20.255,20.255,0,0,0,68.811,0q-.855,0-1.71.064Z"/>
    </g>
    <path class="b" d="M366.333,148.856c-1.311,0-2.661.016-4.124.049-.537.012-1.073.013-1.61.014-.59,0-1.18,0-1.77.017-.555.015-1.11.047-1.665.078-.409.023-.818.046-1.226.062-.59.026-1.181.034-1.771.034-.442,0-.883-.005-1.323-.01q-.3,0-.605,0c-.8,0-1.643.021-2.643.066l-.566.025c-.884.039-1.8.08-2.7.087-1.146.008-2.178.02-3.2.085-.9.057-1.722.084-2.521.084-.316,0-.633,0-.949-.014-.618-.018-1.217-.035-1.816-.035s-1.114.017-1.6.054c-.923.067-1.85.106-2.775.144l-.526.022c-.594.025-1.187.062-1.781.1-.56.034-1.119.069-1.679.094-1.723.076-3.476.115-5.171.151l-.781.018c-1.234.027-2.484.1-3.694.174-.534.033-1.069.065-1.6.093-.47.026-.939.058-1.409.091s-.94.065-1.41.091l-.753.038c-.72.034-1.464.07-2.193.151a1.733,1.733,0,0,0-1.477,1.173c-1.1-.02-2.217-.068-3.3-.114-.806-.034-1.612-.069-2.419-.091-.5-.013-.994-.02-1.492-.027-.539-.007-1.079-.014-1.617-.03-.575-.016-1.15-.036-1.726-.055l-1.381-.046c-.564-.016-1.127-.016-1.69-.016-.317,0-.634,0-.95,0q-1.429-.016-2.858-.021c-.58,0-1.159-.011-1.738-.019-.652-.01-1.3-.02-1.955-.02q-.592,0-1.187.013c-.352.009-.7.013-1.054.017-.492.006-.984.012-1.474.03l-.619.025c-.71.029-1.418.058-2.128.076l-.909.027c-.608.019-1.216.038-1.826.043h-.282c-.721,0-1.434-.026-2.036-.053-.857-.061-1.71-.119-2.564-.165l.123.023q-1.5-.11-3-.154c-.335-.01-.67-.013-1-.013-.425,0-.85,0-1.275.011l-.573.007-.307,0c-.418.006-.835.012-1.253.012-.438,0-.875-.007-1.313-.027l-.681-.035c-.766-.039-1.532-.079-2.3-.1-1.379-.043-2.75-.046-4.271-.046h-1.736l-1.238,0-1.52,0c-.976,0-2.262.006-3.555.053-.722.027-1.444.066-2.167.1-1.042.056-2.12.115-3.182.132-.8.012-1.6.024-2.406.024-1.143,0-2.095-.023-3-.071l-1.062-.057-1.036-.055c-.77-.052-1.541-.1-2.31-.142l-.133-.008c-.628-.044-1.253-.094-1.879-.145-1.185-.1-2.41-.2-3.618-.242-.839-.032-1.678-.051-2.517-.071-1.074-.024-2.148-.049-3.222-.1l-1.2-.07.08,0c-.664-.038-1.542-.081-2.441-.081h-.168c-.856.006-1.716.016-2.572.039l-.625.018c-.726.021-1.452.042-2.178.052l-.441,0c-.686,0-1.426-.022-2.261-.067-.95-.057-1.822-.084-2.666-.084h-.107c-.645,0-1.3.056-1.937.109-.4.033-.791.065-1.186.086-.744.037-1.488.089-2.232.14-1.149.079-2.338.16-3.512.187q-1.5.035-2.991.036-1.417,0-2.835-.038c-.565-.016-1.131-.018-1.7-.021-.4,0-.807,0-1.211-.011-.881-.011-1.826-.046-2.886-.107l-1.729-.159c-.657-.06-1.313-.12-1.97-.17-.485-.035-1-.052-1.576-.052-.761,0-1.535.03-2.283.06l-.4.016-.485.019c-1.053.041-2.106.082-3.16.1l-.437,0c-1.066,0-2.151-.048-3.165-.1-.933-.07-1.812-.158-2.688-.27a27.746,27.746,0,0,0-3.558-.232h-.165c-.872,0-1.763.076-2.625.146l-.478.038c-1.008.077-2.02.188-3.055.3-.937.106-1.941.262-3.069.478a18.3,18.3,0,0,1-3.038.277c-.214,0-.429.006-.643.007-.245,0-.49,0-.735.009a8.983,8.983,0,0,0-1.06.111l-.236.034c-.173.024-.345.052-.517.081-.241.039-.483.079-.726.106a5.7,5.7,0,0,1-.679.036c-.1,0-.205,0-.307,0-.156-.017-.314-.04-.474-.063a7.4,7.4,0,0,0-1.034-.1,2.023,2.023,0,0,0-1.242.357,1.937,1.937,0,0,0-.719,2.185,2.532,2.532,0,0,0,.1.234,5.075,5.075,0,0,0-.6,1.9,17.013,17.013,0,0,0-.015,2.81l.017.353c.016.339.036.678.056,1.016l.02.339c.014.286.011.571.009.857,0,.218,0,.436,0,.653a7.049,7.049,0,0,0,.681,3.349,1.572,1.572,0,0,0-.96.579,1.69,1.69,0,0,0,.268,2.343l.059.044,0,0a1.2,1.2,0,0,0,.224.165c.1.08.2.158.308.233a4.026,4.026,0,0,0,1.318.632,9.813,9.813,0,0,0,1.04.677,3.281,3.281,0,0,0,1.475.317c.193.007.384.03.575.053.174.021.348.042.522.051a7.094,7.094,0,0,1,1.238.179l.064.02a15.486,15.486,0,0,0,2.147.567c.239.038.479.054.72.07.164.01.328.021.49.039.255.028.507.072.759.115.229.04.459.079.69.108.363.048.737.064,1.1.079l.384.017c.3.017.606.054.909.091.337.041.675.082,1.015.1.191.009.382.015.574.022.426.015.851.029,1.273.069a11.009,11.009,0,0,1,1.733.311c.462.15.915.342,1.354.529.265.112.531.225.8.33.842.331,1.656.69,2.486,1.059.74.332,1.49.641,2.24.95.156.063.314.118.472.173.141.05.282.1.421.154a5.864,5.864,0,0,1,.6.283c.223.15.432.318.641.487l.2.158q.584.464,1.163.929l.167.136c.543.439,1.1.893,1.607,1.39a8.756,8.756,0,0,1,.646.814l.191.268c.153.212.305.425.442.646.119.249.222.5.326.759.058.14.115.281.175.421l.071.166a10.416,10.416,0,0,1,.515,1.359l.131.47c.1.357.2.715.3,1.075.069.257.153.51.237.763.07.212.14.424.2.638l.045.2a20.869,20.869,0,0,1,.427,2.244c.023.195.039.391.055.588.024.28.047.56.088.837.082.538.162,1.06.2,1.58.023.276.036.553.049.829.012.257.024.514.044.77.019.235.046.469.072.7.024.21.048.422.066.633.043.489.09.979.137,1.468s.095.978.138,1.468l.03.339c.029.341.058.682.1,1.021.044.309.1.617.152.924.046.261.092.521.131.782.09.6.128,1.227.164,1.828.025.407.05.815.09,1.221.03.3.066.589.1.883s.071.588.1.882c.042.422.064.847.086,1.272l.02.389c.018.315.032.63.047.946.036.761.073,1.549.145,2.322a24.318,24.318,0,0,1,.051,2.485c0,.331-.01.662-.009.993,0,1.169.088,2.31.22,3.663.088.9.116,1.822.143,2.711.01.308.02.617.031.925.02.5.052.992.085,1.487.047.73.1,1.484.1,2.23l-.006.33c-.027,1.423-.054,2.9.037,4.348.058.912.066,1.841.074,2.74.007.737.013,1.475.046,2.212.035.76.13,1.526.222,2.266l.032.258c.093.732.129,1.474.153,2.166.044,1.234.034,2.49.024,3.705q-.006.712-.008,1.424c-.008.348-.013.7-.018,1.046l.013-.132-.045,1.516c-.02.923-.04,1.846-.049,2.767l0,.235,0,.239c-.016.656-.039,1.334-.061,2.011-.031.937-.061,1.874-.077,2.812l.014-.085c-.024.518-.041,1.036-.057,1.555l-.032,1.038c-.031,1-.007,2.016.016,3s.1,2,.169,2.976c.079,1.052.16,2.14.173,3.212-.02.7-.062,1.407-.1,2.111-.038.633-.076,1.267-.1,1.9-.039,1.124-.034,2.265-.029,3.369l0,1.125c-.033,1.36-.074,2.484-.13,3.535a36.044,36.044,0,0,0,.018,3.9c.173,3.133.255,5.7.26,8.07-.033,1.157-.089,2.313-.146,3.469-.072,1.486-.147,3.023-.168,4.536l.013-.161c-.03,1.237-.007,2.526.057,3.941.049,1.066.075,2.21.078,3.4,0,.215-.008.43-.011.646-.013.5-.039,1.006-.064,1.51-.025.475-.049.95-.063,1.425-.019.683-.013,1.364-.007,2.045,0,.408.007.817,0,1.226-.026.74-.065,1.616-.164,2.5-.089.787-.158,1.624-.213,2.56-.067,1.231-.026,2.485.014,3.7.023.706.046,1.411.049,2.116-.037,1.163-.073,2.308-.083,3.452l.013-.075c-.016.452-.011.9-.007,1.354.006.555.011,1.109,0,1.665-.012.956,0,1.975.031,3.206.037,1.274.133,2.567.226,3.818.064.859.128,1.718.174,2.578q.081,1.565.158,3.13c.036.673.055,1.345.074,2.018.013.449.025.9.043,1.346.086,2.2.094,4.442.1,6.61l.013-.162c-.022.791-.03,1.629-.015,2.468.006.376.018.751.031,1.125s.024.745.031,1.118c-.058,1.125-.189,2.264-.316,3.367-.061.53-.121,1.059-.175,1.589l-.018.183c-.07.7-.143,1.423-.181,2.141-.045.781-.053,1.573-.06,2.339-.013.44-.03.88-.047,1.32l-.039,1.06c-.023.614-.073,1.227-.124,1.839-.037.439-.073.878-.1,1.317-.08,1.3-.086,2.612-.092,3.883l-.007,1.132a48.212,48.212,0,0,1-.441,5.411c-.141.935-.24,1.877-.327,2.757a16.21,16.21,0,0,1-.457,2.47l-.124.445-.026.095c-.1.314-.192.625-.3.934-.081.233-.184.457-.287.682l-.133.3a9.265,9.265,0,0,0-.506,1.725l-.087.384a6.1,6.1,0,0,1-.388.886c-.219.333-.406.6-.589.827a7.888,7.888,0,0,1-.76.8l-.2.195c-.272.259-.543.516-.805.784-.147.151-.288.307-.43.464-.121.134-.242.267-.367.4a6.036,6.036,0,0,1-.668.5c-.1.07-.2.141-.305.213-.128.09-.255.18-.386.265l-.259.127c-.211.1-.421.2-.625.322-.161.091-.317.189-.473.287-.12.075-.239.149-.361.221-.185.1-.371.194-.557.3l.007,0a13.548,13.548,0,0,1-1.914.67l-.1.022c-.483.109-.964.218-1.44.351-.368.1-.728.236-1.088.366l-.345.125c-.181.064-.362.125-.544.187-.268.09-.536.181-.8.28l-.284.109c-.346.134-.69.267-1.045.377-.2.039-.4.075-.595.11-.38.068-.773.138-1.154.237-.314.082-.625.18-.935.277-.24.076-.48.151-.721.219a8.406,8.406,0,0,1-.861.171,11.886,11.886,0,0,1-1.427.07q-.264-.006-.531-.006c-.154,0-.308,0-.463.006a7.37,7.37,0,0,0-.931.11l-.095.015c-.64.105-1.321.2-2.144.293-.662.075-1.371.161-2.074.286-.137.024-.273.053-.409.081-.2.041-.393.082-.593.111a5.57,5.57,0,0,1-.811.049c-.55-.022-1.1-.058-1.646-.095l-.833-.053-.1,0,0,0a1.766,1.766,0,0,0-1.048-.583,1.748,1.748,0,0,0-.237-.016,1.671,1.671,0,0,0-.6.112,1.6,1.6,0,0,0-.931.9,2.986,2.986,0,0,0-.148.742c-.016.257-.011.511,0,.766-.026.246-.062.492-.1.739a16.941,16.941,0,0,0-.161,1.905,31.922,31.922,0,0,0,.156,4.043l.023.278.029.358c.039.5.079,1.014.163,1.516.127.744.2,1.483.26,2.107.057.641.134,1.4.272,2.166.05.283.115.561.185.838.015.18.034.359.053.538l.035.344a2.445,2.445,0,0,0-.1.33,2.19,2.19,0,0,0,1.029,2.632,1.713,1.713,0,0,0,.663.132,1.775,1.775,0,0,0,.632-.116,1.567,1.567,0,0,0,.4-.227l.315-.04c.2-.026.4-.052.6-.076.576-.062,1.168-.067,1.741-.071h.135c.767-.008,1.46-.02,2.168-.073.777-.06,1.583-.15,2.4-.267.29-.042.579-.089.867-.136.32-.053.64-.105.961-.15.4-.038.831-.055,1.385-.055.262,0,.524,0,.786.008l.483.006.474,0c.352,0,.7.006,1.055.006.533,0,1.066-.007,1.6-.034.259-.013.518-.021.778-.028.23-.006.461-.013.691-.024.369-.016.737-.048,1.1-.08l.457-.039.561-.047c.714-.06,1.453-.123,2.18-.123.136,0,.271,0,.406.006.5.017,1,.027,1.505.027.625,0,1.208-.015,1.782-.045.709-.038,1.459-.056,2.36-.056.271,0,.543,0,.814,0q.309,0,.618,0c1.208,0,2.436-.037,3.624-.072.707-.021,1.413-.042,2.12-.056,2.423-.049,4.686-.189,6.921-.429a23.266,23.266,0,0,1,2.558-.144q.354,0,.709.012c.969.031,1.953.107,2.905.18l.495.038c1.18.089,2.266.136,3.318.143h0c.429,0,.817-.026,1.2-.052l.414-.026c.591-.034,1.186-.057,1.777-.075l1.791-.054c1.555-.047,3.11-.093,4.663-.156l.839-.04c.75-.037,1.526-.075,2.29-.075h.159c.587,0,1.174.008,1.761.008q.789,0,1.579-.01c.818-.014,1.635-.027,2.451-.027q.351,0,.7,0c.327,0,.654.007.982.007.19,0,.381,0,.571,0,.373,0,.75-.04,1.115-.076.191-.018.383-.037.575-.051.808-.063,1.652-.093,2.583-.093.313,0,.627,0,.941.01.457.01.912.034,1.368.058.573.031,1.147.061,1.721.064h.285c1,0,2.018-.023,3.111-.07l.389-.017c.763-.032,1.551-.066,2.327-.066.162,0,.322,0,.484,0,.354.007.706.036,1.059.066l.441.035q.923.07,1.845.119l.444.024c.914.05,1.859.1,2.791.1.6,0,1.2-.006,1.805-.011s1.2-.01,1.8-.01c1.18,0,2.136.021,3.006.067.809.042,1.607.063,2.369.063.318,0,.636,0,.954-.011.709-.018,1.416-.058,2.124-.1.4-.023.809-.046,1.214-.065q.333-.016.666-.016c.677,0,1.365.045,2.03.088l.637.039c.511.031,1.022.066,1.534.1.58.039,1.161.079,1.741.112.376.023.753.03,1.13.03.305,0,.609,0,.913-.009.324,0,.642-.009.959-.009h.217c.807.008,1.625.056,2.416.1l.917.051c1.008.053,2,.06,2.838.06l1.037,0,.949,0c.522,0,1.045,0,1.566.013l.163,0c.732.016,1.464.032,2.2.032q.453,0,.9-.009c.357-.008.715-.011,1.073-.011.715,0,1.431.012,2.146.026l.7.019c.507.014,1.016.029,1.524.029.305,0,.611-.006.916-.019.894-.042,1.8-.123,2.674-.2l.789-.069c1.867-.159,3.821-.188,5.391-.21.515-.008,1.028-.034,1.542-.06.314-.016.629-.032.945-.044.184-.007.368-.009.552-.009.729,0,1.458.045,2.136.094l.729.057c.555.046,1.109.091,1.667.107.28.008.56.011.839.014.616.007,1.254.014,1.881.077.239.023.477.049.716.075.6.064,1.215.13,1.823.158q.133.006.267.006a12.44,12.44,0,0,0,1.763-.168l.336-.048c.283-.025.567-.034.85-.034.411,0,.821.019,1.231.039l.537.024c.307.011.615.02.922.029.617.018,1.233.036,1.85.072.362.022.723.051,1.084.081.539.043,1.077.087,1.618.106l.45.013c.633.017,1.288.036,1.935.111l.244.038a17.4,17.4,0,0,0,2.633.271c.116,0,.232,0,.348-.007.3-.014.608-.049.912-.084.167-.019.334-.038.5-.054.5-.051,1.009-.084,1.514-.116l.176-.011c.642-.04,1.208-.059,1.73-.059.389,0,.778.01,1.165.035.665.044,1.342.047,2,.051.416,0,.832,0,1.248.017.515.013,1.028.055,1.542.1s1.006.082,1.511.1c.079,0,.158,0,.237,0,.4,0,.79-.029,1.222-.064l.077,0c.393-.029.787-.058,1.182-.058h.129c.454.007.9.042,1.355.077.5.039,1.011.079,1.519.079.265,0,.478,0,.692-.007s.426-.007.64-.007h.106c.5,0,1.006.048,1.5.093l.149.013c.464.041.945.083,1.42.083.181,0,.36,0,.54-.007s.361-.008.542-.008l.2,0c.432.009.87.052,1.293.094.473.047.962.1,1.446.1.227,0,.393-.009.56-.018s.335-.017.5-.017h.094c.42.007.846.058,1.258.106l.133.016c.5.056.89.084,1.259.091h.138c.2,0,.4-.009.6-.019.171-.008.342-.016.512-.018l.246,0c.24,0,.478.006.717.011l.325.007h.119a11.192,11.192,0,0,0,1.192-.076c.572-.06,1.155-.065,1.718-.07.275,0,.55,0,.826-.013.2-.006.409-.019.614-.032.223-.014.447-.028.67-.033l.286,0c.326,0,.649.012.973.024.2.008.4.013.6.013.17,0,.339,0,.51-.011s.357-.021.535-.038c.153-.013.306-.027.459-.034.07,0,.139,0,.209,0,.228,0,.457.015.686.031s.447.026.672.026c.082,0,.163,0,.245-.006l.328-.019c.149-.009.3-.019.448-.025l.113,0c.172,0,.345.016.516.031l.235.02c.155.011.31.015.465.015.2,0,.393-.006.591-.013.164,0,.33-.01.5-.012.117,0,.236,0,.356,0,.091,0,.183.006.275.006l.172,0a7.828,7.828,0,0,0,.823-.083c.194-.02.353-.032.512-.043l.36-.027c.285-.026.567-.065.849-.1l.175-.009.111-.006h.029a1.459,1.459,0,0,0,.193-.017l.067-.015v.006l.109-.015-.071,0-.081.009a1.534,1.534,0,0,0,.908-.419,1.6,1.6,0,0,0,.214-.25,1.578,1.578,0,0,0,.617.179c.042,0,.085,0,.127,0a1.694,1.694,0,0,0,1.088-.4c.1-.113.2-.224.3-.333a1.7,1.7,0,0,0,.282-.806,7.3,7.3,0,0,0,.113-1.222l.014-.346a20.585,20.585,0,0,1,.2-2.253c.079-.483.174-.963.268-1.443.057-.288.114-.577.168-.867a19.172,19.172,0,0,0,.275-2.248c.046-.66.06-1.333.073-1.983.017-.823.034-1.674.116-2.507.174-1.734.423-3.441.644-4.883l.062-.405c.1-.63.2-1.28.263-1.923.05-.486.072-.975.095-1.464.016-.346.032-.693.058-1.039.137-1.766.388-3.453.615-4.871.257-1.616.4-3.243.517-4.761q.191-2.479.418-4.96c.1-1.1.241-2.217.377-3.3.067-.531.134-1.063.2-1.594.072-.605.155-1.21.238-1.814.132-.953.267-1.939.354-2.913.029-.337.055-.674.081-1.011.04-.523.081-1.047.134-1.569.059-.571.159-1.147.255-1.7l.109-.638a21.968,21.968,0,0,0,.316-2.5c.032-.571.04-1.144.048-1.716,0-.313.009-.625.017-.937.031-1.21.1-2.184.2-3.065.086-.731.2-1.472.317-2.188q.084-.525.163-1.051a22.114,22.114,0,0,0,.255-2.939c0-.239,0-.477,0-.717,0-.294-.008-.589,0-.885a11.832,11.832,0,0,1,.156-1.512l.087-.369c.169-.718.338-1.437.486-2.162.172-.843.315-1.692.457-2.541a34,34,0,0,0,.349-4.441l.017-.484a1.8,1.8,0,0,0-.258-1,1.669,1.669,0,0,0-.155-.856,1.6,1.6,0,0,0-.967-.861,9.175,9.175,0,0,0-1.377-.233c-.111-.01-.223-.013-.335-.015l-.192-.006c-.177-.011-.353-.032-.529-.054l-.265-.032a11.731,11.731,0,0,0-1.278-.072c-.221,0-.444,0-.673.02-.272.018-.543.042-.814.066l-.414.036h-.123c-.206,0-.411-.008-.616-.017s-.411-.016-.618-.016a16.625,16.625,0,0,0-1.968.146l-.5.056c-.365.04-.729.08-1.091.133a8.864,8.864,0,0,0-1.541.416l-.341.1a8.709,8.709,0,0,0-1.955.764l-.256.156c-.212.13-.422.26-.646.371l-.207.1c-.255.123-.512.247-.757.392a5.326,5.326,0,0,0-.917.655,6.35,6.35,0,0,0-.571.626l-.211.25-.122.136-.109.123a3.044,3.044,0,0,0-.45.746c-.068.141-.118.27-.167.4l-.044.112c-.1.162-.2.322-.308.481s-.231.347-.335.526c-.265.466-.493.951-.722,1.449-.065.116-.132.232-.2.348-.083.143-.167.286-.246.432-.148.278-.283.563-.417.849l-.157.33a10.463,10.463,0,0,0-.472.948,3.031,3.031,0,0,0-.15.546l-.027.125a8.461,8.461,0,0,1-.5,1.39c-.1.221-.227.5-.351.774l-.2.446a7.147,7.147,0,0,0-.369.8,4.268,4.268,0,0,0-.172.741,11.562,11.562,0,0,1-.466,1.347c-.076.194-.152.389-.224.586-.049.134-.1.266-.157.4-.079.192-.158.384-.22.583a6.383,6.383,0,0,1-.256.713c-.127.241-.252.488-.371.734-.061.127-.115.256-.169.385l-.068.161c-.158.293-.311.589-.456.887-.076.157-.139.319-.2.481-.046.121-.093.242-.145.36.015-.021.029-.043.043-.066-.078.152-.15.307-.223.461l-.18.381a8.561,8.561,0,0,0-.8,1.709,4.33,4.33,0,0,1-.19.481c-.042.1-.085.193-.123.292-.059.147-.115.295-.172.443s-.113.3-.171.442l-.206.517c-.378.944-.768,1.921-1.074,2.9-.089.283-.188.56-.287.837a12.077,12.077,0,0,0-.476,1.554,21.139,21.139,0,0,1-.7,2.382l-.206.627c-.127.387-.253.775-.391,1.156-.113.313-.233.621-.353.93-.129.33-.257.66-.376.994-.161.454-.362.942-.615,1.492-.122.242-.24.485-.359.729l-.093.192a17.92,17.92,0,0,1-1.077,1.824c-.381.563-.768,1.124-1.155,1.684a36.378,36.378,0,0,1-2.507,3.333c-.324.36-.646.719-.965,1.085a11.534,11.534,0,0,1-1.238,1.151,18.593,18.593,0,0,0-1.594,1.452,21.827,21.827,0,0,1-2.909,2.483c-.286.165-.581.32-.876.475l-.491.259c-.534.286-1.058.607-1.565.917a11.382,11.382,0,0,1-1.53.746l-.414.177c-.185.081-.368.165-.55.248-.406.185-.826.376-1.251.536a15.263,15.263,0,0,1-1.787.363c-.389.06-.777.124-1.166.188s-.778.129-1.168.188l-.862.135c-1.077.171-2.189.347-3.293.423-1.447.07-2.621.175-3.7.33-1.326.191-2.428.315-3.47.392-.133,0-.266,0-.4,0-.278,0-.556-.006-.833-.013-.227,0-.453-.011-.68-.013-.177,0-.354,0-.532,0-.632,0-1.262.013-1.892.029l-.6.013c-.592.013-1.184.026-1.774.047s-1.2.063-1.794.1l-.55.038c-.594.029-1.187.046-1.781.063-.784.022-1.568.045-2.351.1-.71.044-1.418.094-2.126.144-.509.036-1.019.072-1.529.1-.574.031-1.147.06-1.724.083-.437.018-.874.056-1.311.094l-.579.049-.314.013c-.734.031-1.494.064-2.242.064-.147,0-.294,0-.441,0q-1.608-.031-3.218-.078c-.544-.016-1.089-.027-1.634-.038s-1.089-.022-1.634-.037q-.444-.014-.886-.013c-.785,0-1.623.029-2.562.088-.567.031-1.158.046-1.808.046l-.452,0h-.139c-.451,0-.9.013-1.355.026-.34.01-.681.02-1.022.024l-.446,0c-.662,0-1.325-.012-1.985-.025-.327-.005-.653-.017-.978-.029-.435-.016-.869-.032-1.3-.032H275.8l-.655,0c-.552,0-1.1-.006-1.653-.013l-.3,0c-.5,0-.994-.01-1.491-.01l-.6,0c-.468.007-.936.03-1.4.054-.32.016-.64.032-.961.042-.825.029-1.651.06-2.476.1q-2.325.117-4.649.277l-.124.007-.123.006c-.984.048-1.8.108-2.577.19-.281.03-.562.064-.842.1-.465.056-.93.112-1.4.152-.519.021-1.038.034-1.557.044l-.24,0c-.476,0-.959-.035-1.425-.07l-.367-.026c-.413-.029-.841-.043-1.306-.043-.852,0-1.712.049-2.451.1-.147-.034-.294-.068-.442-.1l-.1-.023a12.492,12.492,0,0,0-2.063-.327c-.07,0-.14,0-.209,0-.148,0-.3.006-.444.013l-.119,0c-.466-.091-.938-.161-1.411-.226a1.211,1.211,0,0,0-.18-.013,1.413,1.413,0,0,0-.146.008c-.218-.07-.441-.14-.662-.208l-.209-.065c-.181-.057-.362-.114-.549-.153-.263-.052-.527-.1-.79-.145a8.3,8.3,0,0,1-3.9-1.777,14.267,14.267,0,0,1-1.772-2.106c-.192-.3-.376-.6-.561-.911-.168-.278-.336-.557-.51-.831a9.38,9.38,0,0,1-.9-1.813c-.12-.4-.218-.817-.317-1.229l-.087-.364a16.818,16.818,0,0,1-.387-1.956c-.064-.494-.145-.986-.226-1.478-.124-.75-.252-1.526-.314-2.3l-.019-.4c-.024-.52-.049-1.058-.114-1.578a11.332,11.332,0,0,0-.236-1.19c-.048-.2-.095-.4-.137-.607a14.053,14.053,0,0,1-.213-1.711c-.052-.588-.1-1.112-.138-1.639-.038-.814-.032-1.643-.025-2.445,0-.386.006-.772,0-1.157-.007-1.051-.093-2.114-.178-3.142l-.066-.833-.05-.777c-.035-.54-.069-1.078-.106-1.619-.035-.48-.081-.96-.127-1.44-.028-.3-.057-.6-.084-.906a21.328,21.328,0,0,1,.016-2.185c.038-.733.029-1.442.019-2.192l0-.207c-.019-1.669.006-3.329.033-4.887.006-.372.017-.744.028-1.116.012-.456.025-.913.03-1.371l0-1.029q0-.683.007-1.366l0-.383c.011-1.512.022-3.075.166-4.613.078-.849.15-1.681.174-2.532.013-.439.014-.877.016-1.315,0-.344,0-.688.01-1.031.019-1-.028-2-.073-2.981-.029-.636-.058-1.273-.07-1.91-.01-.49-.009-.98-.009-1.47v-.884c-.006-.582-.027-1.165-.048-1.748l-.028-.811c-.02-.623-.051-1.245-.082-1.867l-.027-.545c-.027-.619-.032-1.239-.038-1.858l-.006-.62c-.019-1.785.009-3.56.039-5.062.016-.8,0-1.605-.015-2.387-.009-.453,0-.907,0-1.36,0-.34.007-.679,0-1.019,0-.741,0-1.482,0-2.223,0-.846.009-1.691,0-2.537-.007-.755-.009-1.568.029-2.39.04-.8.057-1.581.049-2.324,0-.29-.017-.579-.032-.869-.02-.379-.04-.772-.03-1.16l.018-.567c.016-.427.031-.854.023-1.282-.011-.658-.011-1.213.029-1.777a12.929,12.929,0,0,1,.2-1.482c.059-.306.119-.617.174-.926h.006c.044,0,.091,0,.14,0,.257-.018.513-.051.769-.083s.515-.065.773-.083l.524-.042c.8-.065,1.62-.131,2.431-.131.261,0,.521.006.782.022,1.531.134,3.159.2,4.837.2q1.038,0,2.076-.032c1.077-.033,2.231-.064,3.373-.064,1.106,0,2.091.029,3.009.087,1.12.111,2.043.175,2.905.2q.3.011.605.01c.321,0,.643-.007.963-.015.364-.008.713-.016,1.064-.016.912.006,1.834.062,2.7.12.407.028.814.051,1.221.075.465.028.93.055,1.4.088l.379.036c.6.056,1.2.113,1.8.154.281.017.561.024.841.024.426,0,.851-.016,1.278-.035.763-.032,1.575-.063,2.379-.063.617,0,1.173.018,1.7.056.5.049,1.006.1,1.509.158.961.105,1.955.213,2.938.28.676.046,1.353.072,2.03.1.735.027,1.47.054,2.2.108.893.09,1.8.243,2.669.39l.479.08.213.037c.5.085,1.009.174,1.519.23.6.068,1.2.148,1.8.244.939.151,1.88.393,2.79.628l.436.112c.334.086.658.194.983.3.147.049.293.1.441.144.222.07.446.133.67.195s.448.125.669.195a15.714,15.714,0,0,1,2.26.993c.7.385,1.516.849,2.323,1.381a6.223,6.223,0,0,1,.832.78,7.15,7.15,0,0,1,.666,1.1c.141.284.286.566.431.848l.262.51c.174.343.344.687.515,1.032l.131.263c.107.21.223.416.339.622.1.181.2.362.3.546a3.388,3.388,0,0,1,.129.442,1.439,1.439,0,0,0,.065.313c.012.077.026.156.04.234h0l0,.022,0-.023H299.6v-.074a6.84,6.84,0,0,0,.249,1.072c.066.2.14.406.214.608.06.164.12.328.175.493.119.352.267.7.411,1.033a10.1,10.1,0,0,1,.516,1.381c.157.6.346,1.193.528,1.772l.17.541.079.258c.073.243.146.486.236.726.135.362.3.717.456,1.049a6.978,6.978,0,0,1,.4,1.447c.049.252.1.517.154.782l.126.643c.025.165.043.331.061.5s.036.33.061.5c.062.405.148.8.234,1.195l.075.352c.015.117.026.234.038.351l.027.264c.041.366.109.732.179,1.095l.013.087a7.479,7.479,0,0,0,.221,1.113,5.584,5.584,0,0,0,.6,1.216l.118.2c.106.179.206.362.306.546s.2.367.307.546c.166.286.324.574.469.87.106.249.216.5.34.734a4.213,4.213,0,0,0,.565.779l.051.061a8.176,8.176,0,0,0,1.268,1.184,7.127,7.127,0,0,0,.886.606,5.714,5.714,0,0,0,.907.371l.166.058a5.535,5.535,0,0,0,1.362.267c.325.031.672.072,1.02.114l.472.055c.516.056,1.029.084,1.506.106.383.049.759.125,1.137.2.192.04.385.079.58.115a4.684,4.684,0,0,0,.847.069c.322,0,.643-.023.966-.046.165-.012.331-.024.5-.033l.409-.021c.519-.026,1.055-.052,1.578-.122.593-.081,1.2-.187,1.82-.317a6.854,6.854,0,0,1,1.068-.109l.134,0h0a1.476,1.476,0,0,0,1.092-.475,1.768,1.768,0,0,0,.5-1.266,1.627,1.627,0,0,0-.037-.279,1.418,1.418,0,0,0,.185-.115c.61-.417.663-1.279.705-1.971l.014-.217.028-.459c.027-.473.056-.962.117-1.438a12.592,12.592,0,0,0,.071-1.509l0-.2c0-.207.019-.413.034-.619l.023-.339c.018-.337,0-.674-.01-1.018a26.464,26.464,0,0,1,.134-3.561l.027-.319.056-.664.107-1.28a14.125,14.125,0,0,0,.01-2.072c-.025-.5-.016-1-.007-1.493.006-.374.012-.748,0-1.123-.014-.814-.051-1.682-.117-2.731-.026-.626-.027-1.251-.028-1.878v-.406c0-.481-.018-.963-.035-1.444-.011-.338-.023-.676-.029-1.014-.015-.739.009-1.49.033-2.216.029-.891.059-1.812.016-2.719q-.058-1.276-.112-2.559c-.026-.572-.042-1.144-.057-1.717l-.018-.642c-.017-.535-.023-1.07-.029-1.6l-.01-.8-.006-.3c-.014-.725-.028-1.475-.012-2.214.026-1.355,0-2.723-.021-4.008-.008-.365-.021-.73-.034-1.1s-.026-.732-.033-1.1c-.009-.409-.01-.818-.01-1.227,0-.327,0-.654-.006-.982-.018-1.429-.03-2.827.023-4.22.028-.65.053-1.346.047-2.035,0-.72-.043-1.447-.083-2.064l-.015-.218-.014-.2.013.369a43.615,43.615,0,0,1-.057-5.539c.024-.293.055-.585.086-.878.057-.541.116-1.1.125-1.656.009-.79-.054-1.589-.115-2.361q-.032-.387-.059-.775l-.015-.21-.014-.218c-.018-.306-.033-.612-.028-.921,0-.339.034-.678.064-1.017l.034-.408c.068-.951.069-1.909.063-2.637l-.008-.633c-.007-.63-.015-1.26,0-1.89.009-.72-.018-1.491-.083-2.425-.055-1-.035-2.018-.016-3l.008-.414c.015-.945-.041-1.906-.1-2.836q-.03-.508-.056-1.016c-.074-1.538-.086-2.778-.039-3.9.017-.4.051-.8.085-1.2l.043-.513a13.048,13.048,0,0,0,.015-1.732.764.764,0,0,1,0-.091,20.959,20.959,0,0,1,0-2.268,1.693,1.693,0,0,0-.779-1.511,1.664,1.664,0,0,0-.829-.982,2.108,2.108,0,0,0-.872-.2l-.125-.006a2.353,2.353,0,0,0-.25.018l-.142.013c-.2.015-.39.022-.584.022q-.18,0-.363-.009l-.2-.025a8.391,8.391,0,0,0-1.064-.091l-.13,0a6.225,6.225,0,0,0-1.172.187l-.33.073a12.455,12.455,0,0,1-1.76.124c-.286,0-.572-.01-.857-.028l-.8-.078-.8-.078a1.8,1.8,0,0,0-.361-.039l-.7-.057-.154-.015c-.661-.066-1.344-.133-2.019-.133a6.9,6.9,0,0,0-1.762.2,3.681,3.681,0,0,0-1.823,1.232,4.272,4.272,0,0,0-.33.4l-.076.1a2.08,2.08,0,0,0-.277.445c-.063.153-.117.309-.167.468-.077.2-.153.412-.223.62a9.708,9.708,0,0,0-.522,1.984c-.045.27-.1.539-.146.808s-.1.539-.147.809c-.085.506-.2,1.046-.382,1.752-.1.4-.189.8-.276,1.207-.138.635-.281,1.291-.479,1.925a8.362,8.362,0,0,0-.34,2c-.014.262-.021.524-.029.786s-.014.524-.028.787a12.926,12.926,0,0,1-.252,1.727,19.75,19.75,0,0,1-.555,1.977l-.068.183c-.131.349-.262.7-.384,1.053a5.243,5.243,0,0,0-.221,1.058,9.992,9.992,0,0,1-.286,1.309c-.071.265-.142.53-.2.8-.11.519-.176,1.058-.24,1.579a12.911,12.911,0,0,1-.414,2.257l-.073.2c-.165.447-.329.895-.521,1.333a14.739,14.739,0,0,0-.542,1.524l-.092.288a7.751,7.751,0,0,1-.713,1.31c-.344.444-.738.861-1.118,1.264l-.314.334-.093.1a23.232,23.232,0,0,1-1.646,1.662c-.281.223-.571.438-.862.655-.24.177-.48.355-.715.538a8.273,8.273,0,0,1-1.6.9,12.321,12.321,0,0,1-1.5.47c-.258.067-.486.13-.714.193s-.455.126-.684.186c-.322.084-.648.148-.974.212l-.44.089q-.277.058-.553.122c-.219.05-.439.1-.659.145-.422.059-.846.1-1.271.146-.262.027-.525.054-.787.085-.353.041-.7.1-1.056.156s-.7.114-1.054.155c-1.353.16-2.786.25-4.508.286-.492.01-.985.049-1.477.087-.264.021-.528.042-.792.058-.556.034-1.114.061-1.672.087l-.662.033c-.812.039-1.627.078-2.442.088h-.248c-.409,0-.819-.012-1.228-.023-.3-.009-.608-.018-.912-.022q-.306,0-.612,0c-.371,0-.741,0-1.111.007l-.288,0-.187,0c-.4,0-.791.007-1.187.007-.354,0-.709,0-1.064-.012q-.307-.006-.617-.006c-.412,0-.824.007-1.236.014s-.815.015-1.222.015c-.457,0-.914-.009-1.371-.038-1.528-.1-3.024-.182-4.527-.208-.27,0-.542-.007-.813-.007-.479,0-.959.008-1.437.028-.391.017-.781.047-1.171.078s-.78.061-1.171.078c-.19.008-.38.011-.569.011-.536,0-1.06-.027-1.595-.058-.486-.027-1-.04-1.619-.04l-.609,0H247.5c-.366,0-.732-.006-1.1-.012-.275,0-.549-.008-.823-.01h-.068c-.634,0-1.275.057-1.894.112l-.443.038c-.563.047-1.126.065-1.691.083l-.468.016c-.46.016-.921.048-1.382.079-.263.018-.527.036-.79.051-.475.026-.951.04-1.428.055l-.714.023q-.372.013-.743.013c-.3,0-.6,0-.9-.01l-.553-.009h-.129c-.342,0-.684.009-1.026.018s-.684.019-1.026.019c-.243,0-.487,0-.73,0,.01-.325.02-.658.028-.99.011-.41.007-.819,0-1.229,0-.351-.008-.7,0-1.053a21.843,21.843,0,0,0-.14-2.448c-.07-.734-.143-1.493-.143-2.242,0-1.09-.067-2.2-.13-3.271-.028-.465-.055-.929-.077-1.394-.051-1-.163-2.01-.272-2.988-.05-.447-.1-.894-.144-1.342-.032-.327-.061-.654-.09-.981-.043-.491-.086-.981-.141-1.472-.1-.865-.156-1.66-.171-2.429-.017-.677.007-1.369.03-2.038l.017-.5c.028-.939.037-1.655.031-2.323-.008-.712-.029-1.423-.052-2.134-.012-.393-.038-.784-.063-1.175-.025-.372-.049-.744-.062-1.117l-.024-.695c-.021-.529-.041-1.058-.041-1.586,0-.725.026-1.5.086-2.367l.034-.506q.021-.342.046-.683l-.028.188c.093-1.056.126-2.1.156-3.173.023-.786,0-1.581-.026-2.349l-.021-.738c-.019-.723-.024-1.447-.03-2.17l-.009-1.085c0-.25-.008-.5-.014-.751-.006-.292-.013-.584-.015-.876,0-.5.025-.993.065-1.583l.055-.587c.061-.647.123-1.3.169-1.946.043-.6.043-1.213.043-1.805v-.561l0-.584c0-.583,0-1.165.029-1.749l.052-1.006c.026-.5.052-1,.075-1.5.03-.639.044-1.277.059-1.916l.014-.573c.007-.34.019-.681.031-1.021.016-.433.032-.866.036-1.3l.006-.685c.008-1.235.017-2.512.088-3.768l.034-.59c.034-.552.068-1.1.077-1.658.009-.535,0-1.072-.009-1.609l-.011-.751c-.011-1.041,0-2.083.011-3.125l.012-1.288c.015-1.592.1-3.2.2-4.845.043-.777.088-1.58.073-2.373-.01-.519-.039-1.036-.069-1.554-.016-.288-.032-.577-.046-.866-.021-.46-.025-.922-.029-1.383,0-.316-.006-.632-.014-.947l-.021-.687c-.018-.534-.035-1.067-.026-1.6.006-.481.041-.959.076-1.438.018-.251.037-.5.051-.753.019-.339.023-.678.026-1.017s.007-.706.029-1.059c.044-.423.087-.875.1-1.324a4.767,4.767,0,0,0-.038-.62c-.012-.125-.025-.249-.032-.373-.016-.262-.021-.524-.021-.788.441-.056.887-.113,1.339-.152.222-.019.445-.043.667-.066.324-.035.649-.07.976-.09h.429c.622,0,1.221,0,1.821-.033.477-.029.952-.094,1.411-.157.213-.03.426-.059.64-.085.306-.037.613-.069.918-.1.495-.054.989-.107,1.483-.176.19-.026.379-.056.566-.085.411-.064.835-.131,1.264-.161.181,0,.365,0,.549.008h.172l.427,0,.271,0c.512-.009,1.023-.036,1.533-.063l.713-.035c.522-.025,1.045-.06,1.567-.095.6-.041,1.2-.082,1.8-.1.551,0,1.1-.01,1.645-.01q.519,0,1.039.007h.2c.905,0,1.819-.078,2.7-.154l.745-.062.726-.058c.789-.064,1.6-.13,2.409-.16l2.019-.073,1.01-.036c.457-.007.915-.013,1.373-.013.229,0,.457,0,.685.005.573.008,1.155.049,1.718.089l.369.025c.914.059,1.875.089,2.854.089.733,0,1.494-.017,2.263-.05l-.149-.006c.525-.008,1.049-.031,1.575-.054l.837-.036c.329-.006.658-.008.987-.008.827,0,1.655.015,2.483.03l.935.017c1.459.021,2.891.134,4.222.252.446.04.891.085,1.336.13,1.1.112,2.24.227,3.368.269.88.034,1.761.047,2.642.061.751.011,1.5.022,2.251.046l1.188.042,1.166.041c.287.01.575.015.862.019.421.006.843.012,1.264.038l.47.03c.574.037,1.149.073,1.723.082l.655.007q.649.006,1.3.016c1.1.021,2.215.08,3.3.137l.858.045c.375.019.751.041,1.127.063,1.01.059,2.053.12,3.079.12l.264,0,.561,0c1.06,0,2.1.034,3.1.1.467.031.933.074,1.4.117.679.064,1.382.129,2.076.151,1.131.036,2.281.138,3.393.237l.22.02c.266.024.531.06.8.1.34.047.681.094,1.024.114.1.006.206.008.309.008.346,0,.694-.027,1.039-.054l.247-.019c.134.008.268.021.4.034s.27.026.405.034c.112,0,.224.007.336.007.252,0,.5-.011.757-.023l.18-.008c.13,0,.256,0,.384.008.039,0,.075,0,.114,0a1.034,1.034,0,0,0,.107.049,3.741,3.741,0,0,0,.858.228c.139.02.278.036.418.049l.147.037c.337.133.693.294,1.12.5.106.054.21.11.314.166.129.069.258.138.389.2l.219.107c.115.055.23.11.344.171l.136.1c.126.1.254.2.385.286.226.154.46.293.694.431.124.074.248.147.371.223l.1.072c.146.109.293.218.444.322.226.158.457.3.688.447l.255.161c.305.227.6.487.868.734.111.1.224.2.337.3.2.175.4.351.595.541s.39.4.582.6c.161.171.322.342.487.508l.255.257c.221.222.442.444.654.674.545.662,1.049,1.373,1.536,2.06.357.5.714,1.008,1.09,1.5a16.75,16.75,0,0,1,1.225,1.824c.32.556.613,1.146.9,1.717l.046.094q.7,1.483,1.415,2.959a21.025,21.025,0,0,1,.792,2.118l.051.152.262.791.387,1.169.107.321c.46,1.38.921,2.761,1.354,4.149.272.869.513,1.655.712,2.458.094.382.18.765.266,1.149.1.439.2.877.307,1.314.2.8.372,1.618.536,2.411s.328,1.585.526,2.37c.172.672.382,1.467.636,2.261.273.866.481,1.576.654,2.232.073.28.133.563.193.847.075.351.149.7.248,1.046q.292,1.028.548,2.068a31.7,31.7,0,0,0,1.215,3.692A10.611,10.611,0,0,0,353,225.308a6.85,6.85,0,0,0,.645.852,3.275,3.275,0,0,0,.767.573l.119.072c.176.121.349.235.522.349a1.719,1.719,0,0,0,.469.188l.093.027a.675.675,0,0,1,.083.029l.18.075a9.282,9.282,0,0,0,1.923.641,5.378,5.378,0,0,0,.957.091,4.395,4.395,0,0,0,.712-.057c.563-.093,1.122-.2,1.68-.306a5.651,5.651,0,0,1,.86-.07c.133.021.266.045.4.07.248.046.5.092.747.114.219.019.435.038.651.038a2.979,2.979,0,0,0,.4-.025c.234-.031.465-.075.7-.122a6.039,6.039,0,0,1,.827-.047l.333,0,.251,0,.665,0q.333,0,.664,0a1.677,1.677,0,0,0,1.319.656l.083,0a1.686,1.686,0,0,0,1.579-1.754c-.03-.573-.057-1.183-.029-1.78.032-.561.073-1.121.117-1.682.031-.354.064-.708.1-1.062.037-.4.075-.8.108-1.207l.006-.069v0l.006-.073c.008-.091.016-.184.021-.275l.021-.29.041-.574c.041-.466.082-.931.117-1.4.008-.049.013-.13.018-.21l-.028.2c.109-1.381.119-2.786.128-4.146v-.318c.007-.683.021-1.366.035-2.049.018-.875.035-1.751.038-2.626,0-1.6-.058-3.229-.119-4.8s-.065-3.1-.011-4.635c.028-.826.038-1.652.047-2.478.01-.8.019-1.591.044-2.386.021-.633.029-1.267.036-1.9.013-1.015.025-2.064.094-3.091.165-1.758.311-3.346.431-4.979v0c.037-.469.068-.88.1-1.289l.083-.871c.041-.434.083-.868.122-1.3.073-.839.113-1.693.151-2.518l.007-.153c.025-.557.041-1.115.056-1.673.025-.891.051-1.813.116-2.716.1-1.163.225-2.325.353-3.486q.078-.714.153-1.431c.086-.814.172-1.629.27-2.441.069-.556.166-1.107.264-1.659l.091-.524c.1-.613.174-1.242.243-1.851.172-1.525.285-2.773.357-3.94l.014-.169.015-.192.053-.57c.049-.532.1-1.064.167-1.592l.071-.524c.1-.711.2-1.447.238-2.181l.028-.413a5.684,5.684,0,0,0-.181-2.38l-.026-.1a1.67,1.67,0,0,0-1.321-1.508,1.729,1.729,0,0,0-.357-.037,1.884,1.884,0,0,0-.435.05,5.231,5.231,0,0,0-1.012-.338,7.087,7.087,0,0,0-1.38-.144l-.337-.014c-.411-.021-.82-.025-1.231-.029l-.41,0c-.592-.008-1.181-.01-1.773-.01Z"/>
  </g>
</svg>
