<?xml version="1.0" encoding="utf-8"?>
<!-- Generator: Adobe Illustrator 24.1.3, SVG Export Plug-In . SVG Version: 6.00 Build 0)  -->
<svg version="1.1" id="Layer_1" xmlns="http://www.w3.org/2000/svg" xmlns:xlink="http://www.w3.org/1999/xlink" x="0px" y="0px"
	 viewBox="0 0 362.3 187.2" style="enable-background:new 0 0 362.3 187.2;" xml:space="preserve">
<style type="text/css">
	.st0{fill:#FFFFFF;}
</style>
<g id="Layer_2_1_">
	<g id="Draw_Layer">
		<path class="st0" d="M347.9,150.3c-0.2,0.1-0.5,0.3-0.7,0.4c-0.3,0.1-0.6,0.2-0.9,0.4c-0.5,0.2-1,0.5-1.5,0.8
			c-1.2,0.7-2.4,1.3-3.6,1.9s-2.4,1.1-3.6,1.8c-1.4,0.8-2.7,1.6-4.1,2.3c-3.3,1.8-6.8,3.1-10,4.9s-6.4,3.8-9.6,5.6
			c-2.4,1.3-4.9,2.5-7.4,3.5c-1,0.4-2.1,0.8-3.1,1.1l1-0.4c-2.7,1-5.3,2.2-8,3.4s-5.1,2.2-7.7,3.2c-1,0.5-1.8,1.4-2.1,2.5
			c-0.7,2.2,0.6,4.6,2.8,5.3c0,0,0,0,0,0c1.1,0.3,2.2,0.2,3.2-0.3c2.4-1,4.9-2,7.3-3.1s4.6-2.1,6.9-3l0.4-0.1
			c1.8-0.7,3.7-1.3,5.5-2.2s3.4-1.6,5.1-2.5c3.3-1.8,6.4-3.8,9.6-5.6s6.7-3.1,10-4.9c1.4-0.8,2.8-1.5,4.1-2.3
			c1.1-0.7,2.4-1.2,3.6-1.8s2.6-1.3,3.8-2c0.5-0.3,1-0.5,1.5-0.8l0.6-0.3c0.3-0.1,0.6-0.3,0.9-0.6c1.9-1.2,2.6-3.6,1.6-5.6
			c-0.7-1.4-2.2-2.2-3.8-2.2C349.2,149.8,348.5,150,347.9,150.3L347.9,150.3z"/>
		<path class="st0" d="M163.4,102.9c-2.2,0-4.4,0.2-6.5,0.2s-4.4,0.1-6.6,0c-4.1,0-8.2-0.1-12.2,0.1c-3.8,0.2-7.6,0.6-11.4,0.8
			c-0.4,0-0.8,0.1-1.2,0.1c-0.3,0-0.7,0-1,0c-1.5,0.1-3,0.2-4.6,0.3c-2.4,0.2-4.8,0.5-7.1,0.8c-4.2,0.5-8.4,1.2-12.7,1.9
			c-2.1,0.3-4.2,0.7-6.3,1c-1.9,0.3-3.9,0.6-5.8,0.9c-4.1,0.8-8.2,1.8-12.3,2.8c-2,0.5-4,1-6,1.5s-4.1,1-6.1,1.6
			c-3.9,1.2-7.8,2.5-11.6,3.8c-1.8,0.6-3.7,1.1-5.5,1.6c-2.1,0.7-4.1,1.4-6.1,2.2c-1.5,0.7-3,1.4-4.6,2.2l-4.8,2.2
			c-1.6,0.8-3.2,1.5-4.9,2.2s-3.3,1.5-5,2.3s-3.6,1.5-5.4,2.3c-1.6,0.7-3.1,1.5-4.6,2.3c-0.8,0.4-1.6,0.9-2.4,1.4s-1.4,0.8-2.1,1.2
			c-1.8,1.1-3.5,2.5-5.2,3.7c-0.3,0.2-0.6,0.5-0.8,0.9c0.1,0.2,0.2,0.5,0.2,0.7c0.2,0.6,0.4,1.1,0.6,1.7c0.1,0.3,0.2,0.5,0.3,0.8
			s0.1,0.4,0.2,0.6c0.2,0.3,0.4,0.6,0.6,0.9c0.5,0.6,0.9,1.1,1.4,1.7l0.1,0.1v0.1l0,0c1.1,0,2.2-0.4,3-1.1l2.6-2
			c1.1-0.8,2.3-1.4,3.5-2.1c1.5-0.8,3-1.7,4.5-2.4c3.2-1.5,6.5-2.7,9.7-4.2s6.5-2.9,9.7-4.4c2.9-1.3,5.7-2.8,8.6-3.9
			c3.5-1.2,7-2.1,10.5-3.3c3.8-1.3,7.6-2.7,11.5-3.7c2.1-0.5,4.2-1,6.3-1.6s4.1-1,6.2-1.5c3.9-1,7.8-1.8,11.8-2.5
			c9-1.4,18.1-3.1,27.2-4c4-0.4,8-0.5,12.1-0.8s7.7-0.5,11.6-0.6c1.8,0,3.7,0,5.5,0c2.4,0,4.9,0,7.4,0c2.2,0,4.3-0.2,6.5-0.2
			s4.1,0,6.1,0c4.1,0.1,8.3,0.1,12.4,0.2c4.1,0.1,8.3,0.4,12.4,0.7s8.3,0.5,12.4,0.8c2.1,0.2,4.2,0.4,6.3,0.7s4.2,0.4,6.2,0.7
			c3.1,0.3,6.2,0.7,9.3,1.2c4.2,0.7,8.4,1.5,12.6,2.2l2.9,0.5h0.1h0.1c4,0.7,8.1,1.5,12.1,2.4c4.2,0.9,8.3,1.8,12.4,2.9
			s8.2,2.1,12.3,3.2s8.2,2.4,12.4,3.7l19.2,5.9c2.9,0.9,5.9,1.8,8.7,2.9c1.5,0.6,2.9,1.3,4.4,1.9s2.8,1,4.1,1.6
			c0.8,0.4,1.6,0.8,2.3,1.3c1,0.6,2.1,1.1,3.1,1.8c0.8,0.5,1.4,1,2.2,1.5s1.3,0.9,1.9,1.3c2,1.6,4.3,2.7,6.3,4.3
			c0.2,0.2,0.5,0.4,0.7,0.7c0.5,0.5,1,0.9,1.6,1.3l0.3,0.3c0.4,0.4,0.8,0.7,1.3,1c1,0.6,2.1,0.8,3.2,0.6c2.3-0.5,3.7-2.8,3.2-5.1
			c-0.3-1-0.9-1.9-1.8-2.5c-0.3-0.4-0.7-0.7-1.1-1c-0.2-0.1-0.3-0.2-0.5-0.4c-0.1-0.2-0.3-0.3-0.5-0.4c-0.7-0.6-1.3-1.2-2-1.7
			s-1.7-1.2-2.6-1.8s-2-1.3-3-2c-0.5-0.3-0.9-0.7-1.4-1s-1.2-0.8-1.8-1.1c-3.3-2.4-7-4.3-10.8-5.7c-1.9-0.7-3.7-1.5-5.5-2.3
			c-1.9-0.8-3.8-1.5-5.7-2.1l-24.2-7.4c-4-1.2-8-2.5-12-3.6s-8.2-2.1-12.4-3.2c-2.1-0.6-4.2-1.1-6.4-1.5s-4.5-1-6.8-1.5
			c-4.6-0.9-9.1-1.9-13.7-2.6l-3.9-0.7c-4.5-0.8-9-1.6-13.5-2.3c-4.1-0.7-8.3-1-12.4-1.4c-4.3-0.4-8.6-0.9-12.9-1.2
			c-4-0.2-8.1-0.5-12.1-0.7c-2-0.1-4-0.2-6.1-0.3s-4.3-0.1-6.5-0.1c-3.5-0.1-7-0.2-10.5-0.2L163.4,102.9z M227.6,115.7l0.7,0.1
			L227.6,115.7z M243.4,118.4l0.7,0.1L243.4,118.4z"/>
		<path class="st0" d="M243,118.4L243,118.4z"/>
		<path class="st0" d="M3.8,41.1c-0.1,2.5,0.4,4.9,0.2,7.4c-0.1,1.2-0.3,2.3-0.3,3.5s-0.1,2.4-0.1,3.6c0,1.6,0.1,3.2,0.1,4.8
			c0,1.4-0.2,2.8-0.2,4.3c0,1.6-0.2,3.2-0.2,4.8C3.2,70.8,3,72,3,73.3c-0.2,2.8-0.2,5.6-0.5,8.4c-0.3,3.2-0.1,6.3-0.5,9.5l0.1-0.6
			c-0.2,1.3-0.4,2.7-0.6,4c0-0.2,0.1-0.4,0.1-0.7c-0.4,2.2-0.6,4.5-0.8,6.7c-0.1,1.8-0.1,3.6-0.2,5.5c-0.2,2.5-0.3,4.9-0.4,7.4
			c0,1.2-0.1,2.5-0.1,3.8c0,0.6-0.1,1.2-0.1,1.8c0,0.7,0.1,1.3,0.1,2c0,0.2,0,0.4,0.1,0.6c0.1,1.8,0.3,3.6,0.2,5.4
			c0,0.9-0.1,1.8-0.2,2.7s0,1.8,0,2.7c0.1,1.6,0.3,3.3,0.2,4.9s-0.1,3.2-0.2,4.8c0.2,0.5,0.3,1.1,0.5,1.6s0.4,1.1,0.6,1.7
			c0.1,0.3,0.2,0.5,0.3,0.8s0.1,0.3,0.2,0.4c0.7,0.5,1.5,0.8,2.4,0.9c1.1,0,2.2-0.4,3-1.1c0.8-0.8,1.3-1.9,1.4-3
			c0.2-1.9,0.2-3.9,0.2-5.8c0-1.8-0.2-3.5-0.2-5.3s0.2-3.8,0.2-5.7c0-2-0.1-3.9-0.4-5.9c0-0.5-0.1-1-0.2-1.6c0,0.4,0.1,0.7,0.1,1.1
			c-0.1-1-0.1-2.1,0-3.1c0-1.2,0.1-2.5,0.1-3.7c0.1-2.4,0.2-4.8,0.4-7.2c0.1-1.7,0.1-3.4,0.2-5.1c0.2-2,0.3-4,0.6-6
			c-0.1,0.3-0.1,0.6-0.1,0.8c0.2-1.3,0.4-2.6,0.6-3.9l-0.1,0.6c0.3-1.7,0.5-3.5,0.6-5.2c0-1.6,0.1-3.2,0.1-4.8s0.3-3.2,0.3-4.7
			c0-1.4,0.1-2.7,0.2-4.1s0.3-2.6,0.3-3.9c0-1.6,0.2-3.2,0.2-4.8c0-1.4,0.1-2.8,0.2-4.2c0-1.6,0-3.3-0.1-4.9c0-1.2,0.1-2.5,0.1-3.7
			c0-0.6,0-1.2,0.1-1.7c0.1-0.6,0.2-1.2,0.2-1.9c0.2-2.5-0.3-5-0.2-7.5c0-2.3-1.8-4.2-4.1-4.3H8C5.7,37,3.8,38.8,3.8,41.1L3.8,41.1z
			"/>
		<path class="st0" d="M165,0.2c-2.1,0.1-4.3,0.2-6.4,0.3s-4.1,0.1-6.2,0.2c-4.1,0.2-8.3,0.7-12.4,0.9c-2.9,0.2-5.8,0.5-8.8,0.8
			s-5.7,0.6-8.6,1s-5.7,0.6-8.5,1c-2.5,0.3-4.9,0.7-7.4,0.9c-2.3,0.2-4.7,0.5-7,0.8c-2.1,0.3-4.1,0.7-6.1,1.1s-3.9,0.9-5.9,1.1
			s-4,0.5-6,0.9c-4.1,0.8-8.1,1.8-12.2,2.7s-8.2,2-12.3,3c-3.9,1-7.7,2.3-11.4,3.8c-1.8,0.7-3.6,1.5-5.3,2.3c-1.6,0.7-3.2,1.4-4.9,2
			c-5,1.8-9.9,3.9-14.8,6c-2.2,0.9-4.3,2.1-6.4,3.1c-2.2,1.1-4.3,2.4-6.4,3.7c-1,0.5-1.7,1.4-2.1,2.5C5.5,40.6,6.7,43,9,43.7
			c1.1,0.3,2.3,0.2,3.3-0.3c1.9-1.3,3.9-2.5,6-3.6c2-1,3.9-2,5.9-2.9s4.3-1.8,6.4-2.7c2.4-1,4.7-2,7.2-2.9l-0.3,0.1
			c2.4-0.9,4.8-1.9,7.2-2.9s4.5-2,6.8-2.9c1.8-0.6,3.7-1.3,5.5-1.8s4-1.1,6-1.5c4.1-1,8.3-2,12.4-3c2-0.5,4-0.9,6.1-1.3
			s4-0.8,6.1-1.1s3.9-0.5,5.8-0.9s4.1-0.8,6.1-1.2c2.2-0.4,4.4-0.7,6.7-0.9c2.5-0.2,5-0.5,7.5-0.9s5.2-0.7,7.7-1
			c5-0.6,10-1.1,15-1.7c1.8-0.2,3.5-0.3,5.3-0.4c2.1-0.1,4.3-0.4,6.4-0.5c4.1-0.3,8.2-0.3,12.3-0.5s8.2-0.4,12.4-0.3
			c4.3,0.1,8.6,0.4,13,0.5c3.7,0,7.4,0.2,11.1,0.5s7.5,0.7,11.3,0.9s7.7,0.3,11.6,0.7s7.8,0.6,11.6,1.2c2.8,0.5,5.6,1,8.4,1.4
			s5.5,0.7,8.2,1.1c2.4,0.4,4.8,0.9,7.3,1.3l-1.2-0.2l4.8,0.8l-1.1-0.2c4,0.7,8,1.6,12,2.6c2.1,0.5,4.2,0.9,6.3,1.4s4,1,5.9,1.6
			s4.2,1.2,6.3,1.9c1.9,0.6,3.8,0.9,5.8,1.4c4.1,1.1,8.1,2.3,12.1,3.5c3.5,1.1,7,2.1,10.3,3.5c1.7,0.7,3.4,1.5,5.2,2.2
			c1.5,0.6,3,1.1,4.5,1.7c1.2,0.6,2.4,1.3,3.7,2c1.7,1,3.5,1.8,5.3,2.6c0.9,0.4,1.8,0.9,2.6,1.3s2,0.8,3,1.2s2,0.8,3,1.2
			s1.9,0.7,2.8,1.1l0.9,0.4l-0.5-0.2c1.3,0.6,2.6,1.4,3.8,2.2l0.6,0.5l-0.4-0.3l0.1,0.1c1.5,1.8,4.2,2,6,0.5s2-4.2,0.5-6
			c-0.1-0.1-0.2-0.2-0.2-0.3c-0.2-0.2-0.5-0.5-0.8-0.7c-0.7-0.6-1.4-1.1-2.2-1.7c-1.4-0.9-2.8-1.7-4.3-2.3l1,0.5
			c-1.1-0.5-2.2-1-3.3-1.5c-0.9-0.3-1.8-0.7-2.6-1.1c-1.6-0.7-3.3-1.3-4.9-2c-1.2-0.5-2.3-1.1-3.5-1.6c-1.7-0.9-3.3-1.9-5-2.7
			c-2.1-1-4.2-2-6.4-2.8c-3.9-1.4-7.6-3.3-11.6-4.5s-7.9-2.4-11.8-3.6c-2-0.6-4-1.2-6.1-1.7s-3.9-0.9-5.9-1.5
			c-5.1-1.5-10.1-3-15.3-4.1c-2.6-0.5-5.2-1.1-7.7-1.7c-2.9-0.7-5.8-1.2-8.7-1.7l1.1,0.2c-1.3-0.2-2.6-0.4-3.9-0.7
			c-2.8-0.5-5.7-1.1-8.5-1.4c-2.6-0.3-5.2-0.7-7.8-1.1C235,4.4,231,3.6,227,3.3c-2.1-0.2-4.3-0.4-6.4-0.6s-4-0.4-6-0.5
			c-2.2-0.1-4.5-0.2-6.7-0.3c-1.9-0.1-3.8-0.3-5.8-0.4c-4.1-0.4-8.3-0.6-12.5-0.8c-1.9-0.1-3.9-0.1-5.8-0.1
			c-2.2-0.1-4.4-0.2-6.6-0.2S173.1,0.1,171,0h-0.9C168.4,0,166.7,0.1,165,0.2L165,0.2z M350.7,48.2L350.7,48.2L350.7,48.2z"/>
		<path class="st0" d="M354,42.8c-2.3,0.6-3.7,2.8-3.2,5.1c0.8,3.3,1.5,6.6,2,10c0.3,3.5,0.3,7,0.4,10.5c0.1,1.9,0.2,3.8,0.1,5.8
			s-0.2,4-0.3,6.1c-0.1,2.2,0,4.4,0.2,6.6c0.1,1.8,0.1,3.6,0.1,5.4s0,3.8,0.1,5.8c0.1,2,0.1,4,0,6c-0.1,3.3,0.1,6.6,0.2,9.9
			c0,1.8-0.1,3.5-0.1,5.3c0,0.9,0,1.8,0,2.7c0.1,1,0.2,2,0.3,3c0,2.1-0.1,4.1-0.3,6.2c-0.2,1.7-0.2,3.3-0.5,5
			c-0.5,2.4-1.1,4.7-1.9,7c-0.5,1.5-0.9,3.1-1.4,4.6c-1.2,2-0.6,4.6,1.4,5.9c2,1.2,4.6,0.6,5.9-1.4c0.6-1,1-2.1,1.3-3.2
			c0.2-0.7,0.4-1.3,0.6-2c0.5-1.6,1-3.2,1.4-4.8c0.3-1.1,0.6-2.2,0.8-3.3c0.4-1.9,0.5-3.7,0.7-5.6c0.2-1.7,0.2-3.4,0.4-5.1
			c0.1-0.9,0.1-1.9,0.1-2.8c0-1.1-0.2-2.1-0.4-3.2c-0.1-1.6,0-3.2,0-4.9c0-1.8,0.1-3.6,0-5.4s-0.2-3.4-0.2-5.1c0-2,0.1-4,0.2-6
			s-0.2-4-0.2-6.1c0-1.8,0.1-3.5,0.1-5.3c0-2-0.3-4-0.4-6s0.1-4,0.2-6c0.1-2.7,0.2-5.4,0.1-8.1c-0.1-2.3-0.2-4.5-0.3-6.8
			c-0.1-3-0.3-6-0.8-9c-0.2-1.2-0.5-2.4-0.8-3.5c-0.3-1.3-0.6-2.7-0.9-4c-0.5-1.9-2.2-3.3-4.2-3.3C354.6,42.8,354.2,42.9,354,42.8
			L354,42.8z"/>
		<path class="st0" d="M245.5,114.2c-1.4,0.4-2.8,1-4.1,1.8c-1.3,0.6-2.6,1.2-4,1.8c-1.6,0.7-3.1,1.3-4.7,2c-2,0.9-3.9,1.9-5.8,2.8
			c-3.3,1.6-6.4,3.4-9.6,5.2c-1.7,1-3.5,1.9-5.3,2.9s-3.5,1.8-5.3,2.6c-3.6,1.6-7.2,3.4-10.7,5.1c-1.8,0.9-3.5,1.8-5.2,2.8
			c-1.6,0.9-3.2,1.6-4.8,2.5c-3.3,1.8-6.7,3.4-10,5c-2,1-4,1.9-5.9,2.9s-3.6,1.9-5.4,2.9c-1,0.6-2,1.1-3.1,1.7s-2.1,1.1-3.1,1.6
			c-2.2,1.2-4.5,2.3-6.8,3.3l-2.9,1.1c-1.2,0.4-2.4,0.9-3.5,1.4c-1.1,0.6-2.2,1.3-3.2,2.1c-0.3,0.2-0.6,0.4-0.9,0.6
			c-0.6,0.5-1,1.2-1.2,1.9c-0.3,1.1-0.2,2.2,0.3,3.2c0.4,0.7,0.9,1.3,1.6,1.7h0.1c0.5-0.2,1.1-0.4,1.6-0.4c0.6-0.1,1.2-0.1,1.8-0.1
			h-0.1c0.6,0,1.2,0,1.8-0.1c1.2-0.8,2.4-1.5,3.8-2.1l2.7-1c1.8-0.6,3.5-1.3,5.2-2.1c1.6-0.9,3.3-1.8,4.9-2.6
			c3.3-1.6,6.4-3.5,9.7-5.2c3.6-1.9,7.4-3.5,11.1-5.4l4.9-2.5c0.8-0.4,1.6-0.8,2.4-1.2s1.7-0.8,2.5-1.3l5.1-2.7
			c1.7-0.9,3.4-1.7,5.1-2.5s3.7-1.8,5.5-2.6s3.6-1.8,5.3-2.6c3.4-1.7,6.7-3.8,10.1-5.6c1.6-0.9,3.2-1.7,4.8-2.5
			c1.9-1,3.9-1.9,5.8-2.8c2.3-1.1,4.7-1.9,7-3c0.9-0.4,1.8-0.8,2.6-1.2c0.6-0.3,1.2-0.6,1.8-0.8h0.1c2.3-0.5,3.7-2.8,3.2-5
			c-0.4-2-2.2-3.4-4.3-3.3c-0.3,0-0.6,0-0.9,0.1L245.5,114.2z M150.7,170.6l-0.8,0.3L150.7,170.6z"/>
		<path class="st0" d="M114.5,107.9c-1,0.6-2,1.1-3.1,1.5c-1.4,0.6-2.8,1.2-4.1,1.9c-1.6,0.7-3.1,1.3-4.7,2.1s-3.2,1.5-4.8,2.3
			c-7,3.4-14.1,6.3-20.8,10.2c-2.9,1.7-5.9,3.3-9,4.7c-1.6,0.7-3.1,1.5-4.7,2.1s-3.3,1.4-4.9,2.2s-3.1,1.6-4.7,2.3s-3.1,1.4-4.6,2.1
			s-3.1,1.4-4.7,2.1c-1.2,0.6-2.4,1.1-3.7,1.6l-5.2,1.8c-1.7,0.6-3.5,0.9-5.2,1.4s-3.7,0.8-5.5,1.2c-1.6,0.3-3.3,0.7-4.9,0.9
			c-0.9,0.1-1.8,0-2.7-0.1c-1.6-0.4-3.1-0.9-4.6-1.5c-0.5-0.3-0.9-0.5-1.4-0.8s-1-0.5-1.4-0.8s-0.7-0.8-1.1-1.2
			c-0.7-0.7-1.3-1.5-2-2.2c-1.6-1.7-4.3-1.8-6-0.3l-0.3,0.3c0,0.1,0.1,0.2,0.1,0.3c0.2,0.6,0.4,1.2,0.6,1.7s0.4,1.1,0.6,1.7
			c0.1,0.3,0.2,0.5,0.3,0.8s0.1,0.4,0.2,0.6c0.2,0.3,0.4,0.6,0.6,0.9c0.5,0.6,0.9,1.1,1.4,1.7l0.1,0.1l0.3,0.3
			c0.9,1.1,1.9,2.2,3,3.1c0.5,0.5,1.1,0.9,1.6,1.4l0.3,0.2c1.6,0.7,3.2,1.3,4.8,1.7c1.2,0.3,2.3,0.5,3.5,0.6c1.2,0.1,2.4,0,3.6-0.2
			c1.9-0.2,3.9-0.7,5.8-1s4-0.9,6-1.3c1.9-0.4,3.7-0.9,5.5-1.6c2.2-0.8,4.4-1.5,6.6-2.3c1.5-0.6,3-1.3,4.5-2l5.7-2.6
			c3.5-1.6,6.9-3.4,10.4-4.9c3.5-1.5,7.3-3.1,10.8-5c1.7-0.9,3.3-1.8,4.9-2.7s3.4-1.9,5.2-2.8c5.8-2.8,11.7-5.5,17.5-8.3
			c1.4-0.7,2.7-1.4,4.2-2s2.7-1.2,4-1.8s2.4-1.1,3.6-1.6c0.9-0.4,1.8-0.8,2.7-1.3c1-0.5,1.7-1.4,2.1-2.5c0.3-1.1,0.2-2.2-0.3-3.2
			c-0.8-1.4-2.2-2.3-3.8-2.3C115.7,107.5,115.1,107.6,114.5,107.9L114.5,107.9z"/>
		<path class="st0" d="M126.9,104c-0.5,0.1-1,0.1-1.5,0.2c-0.4,0-0.7,0-1.1,0c-0.1,0-0.3-0.1-0.4-0.1l-0.6,0.1h-0.3
			c-0.7,0.3-1.5,0.7-2.2,1s-1.4,0.8-2.1,1.1c-0.3,0.2-0.7,0.3-1,0.4c-0.5,0.2-0.9,0.5-1.4,0.8c-1.4,0.8-3.1,1.1-4.5,1.9l-1.8,1
			c-0.7,0.4-1.5,0.7-2.2,1.1c-1.5,0.8-3.1,1.4-4.7,2.1c-1.4,0.6-2.7,1.2-4,1.9c-1,0.5-1.8,1.3-2.2,2.3c-0.9,2.1,0.1,4.6,2.3,5.5
			c1.1,0.5,2.3,0.5,3.3,0c1.3-0.7,2.6-1.4,4-1.9c1.6-0.7,3.3-1.4,4.8-2.2c0.7-0.4,1.5-0.7,2.2-1.1s1.2-0.7,1.9-1.1
			c0.8-0.4,1.6-0.7,2.5-1c0.4-0.2,0.9-0.3,1.3-0.5c0.4-0.2,0.9-0.4,1.3-0.7c0.6-0.3,1.3-0.6,1.9-0.9s1.3-0.7,2-1
			c1-0.5,2.1-1,3.2-1.4c2.1-0.9,3.1-3.4,2.2-5.6c-0.3-0.8-0.9-1.5-1.7-1.9L126.9,104L126.9,104z"/>
		<path class="st0" d="M260.2,121.5c-0.5,0.3-1,0.6-1.4,0.9c-1.2,0.8-2.5,1.5-3.7,2.2s-2.6,1.5-4,2.2c-0.7,0.3-1.4,0.7-2.1,1
			c-0.7,0.3-1.3,0.6-2,0.9c-1.4,0.7-2.7,1.4-4,2.1l-2.2,1.1c-0.6,0.3-1.3,0.6-1.9,0.9c-1.4,0.8-2.8,1.6-4.2,2.4s-2.6,1.5-3.9,2.2
			s-2.8,1.4-4.2,2.2s-2.7,1.4-4.1,2.1s-2.8,1.5-4.2,2.2l-2.1,1c-0.7,0.3-1.3,0.7-2,1c-1.4,0.6-2.8,1.3-4.2,2c-0.7,0.4-1.3,0.8-2,1.1
			s-1.4,0.7-2,1.1c-1.4,0.7-2.9,1.3-4.3,2s-2.8,1.2-4.2,1.9s-2.6,1.3-4,1.8c-2.3,0.9-4.4,2.2-6.7,3.4c-0.5,0.2-1,0.5-1.5,0.7
			s-1.2,0.5-1.8,0.8l-1.6,0.7c-0.7,0.3-1.3,0.6-2,0.9c-0.7,0.4-1,1.3-0.6,2c0.4,0.7,1.2,1,1.9,0.7c0.7-0.3,1.5-0.7,2.2-1l2.2-0.9
			c0.7-0.3,1.3-0.6,2-0.9s1.4-0.7,2-1c1.3-0.7,2.6-1.4,3.9-2.1c0.7-0.3,1.4-0.6,2.1-0.9l2.1-0.9c0.7-0.3,1.3-0.6,2-0.9
			s1.4-0.6,2.2-1c1.4-0.6,2.8-1.2,4.2-1.9c0.7-0.3,1.4-0.6,2.1-1s1.4-0.7,2-1.1c1.4-0.8,2.8-1.5,4.2-2.1c0.6-0.3,1.3-0.6,2-0.9
			l2.1-1.1c1.4-0.7,2.9-1.5,4.3-2.2c0.7-0.4,1.4-0.7,2.1-1.1s1.3-0.7,1.9-1l4.1-2.1c1.4-0.7,2.8-1.4,4.1-2.2c0.7-0.4,1.4-0.8,2-1.2
			s1.4-0.8,2-1.2c1.3-0.8,2.7-1.4,4.1-2.1s2.8-1.4,4.2-2.1c1.1-0.6,2.2-1.1,3.4-1.6s2.3-1,3.4-1.7s2.3-1.3,3.4-2s2.2-1.3,3.3-2
			l-0.1,0.1c0.3-0.2,0.5-0.3,0.8-0.5c0.7-0.4,1.1-1.3,0.7-2c0,0,0,0,0,0c-0.3-0.5-0.8-0.9-1.4-0.9c-0.2,0-0.4,0.1-0.6,0.2
			L260.2,121.5z"/>
		<path class="st0" d="M277.2,124.4c-0.4,0-0.8,0.2-1.2,0.3l-0.5,0.2l-1,0.5c-0.7,0.3-1.4,0.7-2,1c-1.4,0.7-2.8,1.4-4.1,2.3
			c-1.4,0.8-2.6,1.6-3.9,2.4s-2.7,1.5-4,2.2s-2.9,1.5-4.4,2.2s-2.7,1.4-4,2.1s-2.6,1.6-4,2.3s-2.8,1.6-4.2,2.3
			c-2.8,1.5-5.6,3-8.4,4.5c-1.4,0.7-2.7,1.5-4,2.2s-2.8,1.7-4.1,2.5s-2.7,1.5-4,2.2s-2.7,1.5-4.2,2s-2.9,1.1-4.3,1.9
			s-2.8,1.5-4.3,2.3c-0.9,0.5-1.9,0.9-2.9,1.3c-0.4,0.2-0.9,0.4-1.3,0.6c-0.5,0.2-1,0.5-1.4,0.8l0,0c-0.7,0.4-1.3,0.9-1.9,1.3
			c-0.6,0.5-0.7,1.5-0.2,2.1c0.3,0.3,0.6,0.5,1,0.5c0.4,0,0.8-0.1,1.1-0.4c0.5-0.4,1-0.7,1.5-1l0.1-0.1c1.2-0.7,2.5-1.3,3.8-1.8
			c1.5-0.6,2.9-1.5,4.3-2.2c1.3-0.7,2.7-1.4,4.2-2c0.7-0.3,1.5-0.6,2.2-0.9s1.4-0.6,2.1-1c1.4-0.7,2.9-1.5,4.2-2.2s2.7-1.5,4-2.3
			c2.7-1.6,5.5-3.2,8.3-4.7c1.3-0.7,2.7-1.5,4-2.2s2.8-1.5,4.2-2.2s2.7-1.6,4.1-2.4c0.6-0.4,1.3-0.8,2-1.1s1.3-0.7,2-1.1
			c2.8-1.5,5.6-2.8,8.4-4.4c1.4-0.8,2.8-1.6,4.1-2.4s2.6-1.6,3.9-2.3c0.9-0.5,1.8-0.9,2.7-1.4s1.8-0.9,2.7-1.3c0.1,0,0.2,0,0.3,0
			c0.4-0.1,0.8-0.3,1-0.6c0.2-0.3,0.3-0.7,0.2-1.1c-0.1-0.4-0.3-0.8-0.6-1c-0.3-0.2-0.6-0.3-0.9-0.2L277.2,124.4z M204.4,162.9
			l0.3-0.2L204.4,162.9z"/>
		<path class="st0" d="M291.3,128.5c-1.4,0.6-2.7,1.4-4.1,2.2l-1.9,1c-0.7,0.4-1.4,0.8-2.1,1.2c-1.3,0.8-2.5,1.6-3.8,2.4
			s-2.7,1.5-4,2.3s-2.5,1.4-3.8,2s-2.4,1.3-3.7,1.9s-2.5,1.3-3.8,2s-2.5,1.5-3.8,2.3c-2.6,1.6-5.4,3-8.1,4.3l-2.1,1
			c-0.7,0.3-1.3,0.7-2,1c-1.4,0.8-2.8,1.6-4.1,2.4s-2.9,1.9-4.3,2.9c-2.2,1.4-4.4,2.7-6.7,3.9c-1.1,0.6-2.3,1.1-3.5,1.6
			c-1.2,0.6-2.4,1.3-3.6,2.1c-0.4,0.2-0.6,0.5-0.8,0.9c-0.3,0.8,0.1,1.6,0.9,1.9c0.4,0.2,0.8,0.2,1.1,0l2.1-1.3
			c0.7-0.4,1.4-0.7,2.1-1c1.5-0.6,2.9-1.4,4.3-2.1s2.7-1.5,4-2.3c0.8-0.5,1.6-1,2.4-1.5c0.6-0.4,1.2-0.9,1.8-1.3
			c0.2-0.1,0.4-0.3,0.7-0.4c1.3-0.8,2.6-1.6,4-2.4s2.7-1.4,4.1-2.1c2.8-1.3,5.6-2.8,8.3-4.3c0.8-0.4,1.5-1,2.3-1.5
			c2.7-1.7,5.5-3.1,8.3-4.6c1.4-0.7,2.8-1.4,4.1-2.1s2.8-1.6,4.1-2.3c1-0.6,2.1-1.2,3.1-1.9s2-1.3,3-1.8l3.4-1.9
			c1.1-0.6,2.1-1.2,3.2-1.7c0.7-0.4,1.1-1.3,0.7-2c-0.3-0.5-0.8-0.8-1.3-0.8C291.7,128.3,291.4,128.4,291.3,128.5L291.3,128.5z
			 M263.2,147.5L263.2,147.5L263.2,147.5z M244.5,157.8l-0.2,0.1L244.5,157.8z"/>
		<path class="st0" d="M306,133.2c-1.4,0.7-2.8,1.3-4.2,2s-2.9,1.5-4.2,2.3c-2.8,1.6-5.5,3.2-8.2,4.9c-1.3,0.8-2.6,1.6-3.9,2.3
			s-2.9,1.5-4.3,2.3c-2.8,1.5-5.5,3.1-8.3,4.6c-1.4,0.8-2.8,1.5-4.2,2.2s-2.8,1.3-4.1,2c-2.8,1.5-5.5,3.2-8.4,4.7
			c-1.1,0.6-2.3,1.2-3.4,1.9s-2.3,1.2-3.5,1.8s-2.4,1.1-3.6,1.7c-1.3,0.6-2.6,1.3-3.8,2c-0.4,0.2-0.6,0.5-0.8,0.9
			c-0.3,0.8,0.1,1.6,0.9,1.9c0.4,0.1,0.8,0.1,1.1-0.1c0.7-0.4,1.4-0.9,2.2-1.3s1.4-0.7,2.1-1c1.5-0.7,3-1.4,4.4-2.1
			c1.3-0.7,2.6-1.4,3.9-2.1c1.3-0.7,2.8-1.5,4.1-2.3l4.3-2.5c1.4-0.8,2.8-1.4,4.2-2.1s2.8-1.3,4.2-2.1s2.8-1.5,4.2-2.3
			s2.8-1.6,4.2-2.3s2.7-1.4,4.1-2.2c2.8-1.5,5.6-3.1,8.3-4.8c1.1-0.7,2.3-1.4,3.5-2s2.2-1.3,3.3-2s2.4-1.3,3.6-1.9s2.4-1.2,3.6-1.7
			c0.8-0.3,1.1-1.2,0.7-2c-0.2-0.5-0.8-0.9-1.4-0.9C306.4,133.1,306.2,133.1,306,133.2L306,133.2z"/>
		<path class="st0" d="M318.7,138.3c-0.7,0.3-1.4,0.6-2.1,0.9s-1.3,0.6-1.9,1c-1.4,0.7-2.7,1.6-4,2.4c-2.7,1.6-5.3,3.3-8,4.9
			c-1.4,0.8-2.8,1.6-4.2,2.4l-4,2.1c-1.4,0.8-2.9,1.5-4.3,2.3s-2.7,1.5-4.1,2.2s-2.7,1.6-4.1,2.3s-2.7,1.5-4.1,2.3
			c-2.7,1.6-5.5,3.2-8.3,4.8c-3.3,1.7-6.5,3.7-9.6,5.8c-0.6,0.5-0.7,1.5-0.2,2.1c0.5,0.6,1.5,0.7,2.1,0.2c0.5-0.4,1.1-0.8,1.6-1.2
			c1.3-0.8,2.7-1.6,4-2.4c1.4-0.8,2.8-1.5,4.1-2.3l8.3-4.8c1.4-0.8,2.8-1.6,4.1-2.3s2.7-1.6,4.1-2.3s2.7-1.5,4.1-2.3
			s2.8-1.5,4.2-2.3s2.7-1.4,4-2.1s2.8-1.6,4.1-2.4s2.8-1.7,4.1-2.5s2.7-1.6,4-2.4c1.2-0.7,2.4-1.4,3.6-2c0.5-0.3,1-0.5,1.6-0.8
			s1.3-0.6,2-0.9c0.4-0.2,0.6-0.5,0.8-0.9c0.1-0.4,0.1-0.8-0.1-1.1c-0.2-0.4-0.5-0.6-0.9-0.8c-0.1-0.1-0.3-0.1-0.5-0.1
			c-0.2,0-0.5,0.1-0.7,0.1L318.7,138.3z"/>
		<path class="st0" d="M334.7,144c-2.8,1.2-5.4,2.7-8.1,4.1c-1.4,0.8-2.9,1.5-4.3,2.2s-2.8,1.4-4.2,2.1c-2.8,1.5-5.5,2.9-8.3,4.3
			s-5.7,2.9-8.6,4.4c-1.3,0.7-2.7,1.4-4.1,2.1s-3,1.6-4.5,2.4s-2.7,1.5-4,2.2s-2.9,1.6-4.4,2.4s-3,1.8-4.5,2.6s-3,1.6-4.6,2.3
			c-0.8,0.3-1.1,1.2-0.8,2s1.2,1.1,2,0.8c0,0,0.1,0,0.1-0.1c1.4-0.7,2.8-1.4,4.2-2.1s2.8-1.6,4.1-2.4s2.7-1.6,4.1-2.3
			s2.8-1.6,4.2-2.3c2.8-1.5,5.6-2.9,8.4-4.4l4.2-2.2c1.4-0.8,2.9-1.5,4.4-2.2s2.8-1.4,4.2-2.1s2.8-1.5,4.1-2.2s2.7-1.4,4.1-2.1
			c0.7-0.4,1.4-0.7,2-1.1l2.3-1.2c3-1.5,5.9-3.1,8.9-4.5c0.7-0.3,1.1-1.2,0.7-2c0,0,0,0,0,0c-0.2-0.5-0.8-0.9-1.4-0.9
			C335.1,143.9,334.9,143.9,334.7,144L334.7,144z"/>
		<path class="st0" d="M24.6,50.1l-3.8,1.6c-1.2,0.5-2.3,1-3.5,1.7c-1.2,0.7-2.4,1.5-3.6,2.4s-2.1,1.5-3.1,2.3
			c-0.8,0.6-1,1.6-0.4,2.4c0.6,0.8,1.6,1,2.4,0.4c0.1,0,0.1-0.1,0.2-0.1c1.8-1.4,3.6-2.8,5.6-4c1-0.6,2.1-1.2,3.2-1.6
			c1.5-0.6,3-1.2,4.4-1.8c0.9-0.4,1.3-1.4,1-2.3c-0.3-0.6-0.9-1-1.6-1C25.1,50,24.9,50,24.6,50.1L24.6,50.1z M18.3,56.8l-0.1,0.1
			L18.3,56.8z"/>
		<path class="st0" d="M40.4,57.6c-0.9,0.2-1.9,0.4-2.8,0.6c-1,0.3-2,0.6-2.9,0.9c-1.7,0.7-3.4,1.4-5,2.2s-3.4,1.6-5.1,2.4L19.7,66
			c-2,0.9-4,1.9-5.9,3c-1.8,1.1-3.5,2.2-5.2,3.5c-0.8,0.6-0.9,1.7-0.3,2.5c0.6,0.8,1.7,0.9,2.5,0.3c1.5-1.1,3-2.2,4.5-3.1
			s3.1-1.7,4.8-2.5s3.3-1.5,4.9-2.2s3.4-1.6,5.1-2.4s3.3-1.6,5.1-2.3c0.9-0.3,1.7-0.7,2.6-0.9c1-0.3,2.1-0.5,3.2-0.7
			c0.5-0.1,0.9-0.3,1.2-0.7c0.6-0.8,0.4-1.9-0.4-2.5c-0.3-0.2-0.6-0.3-1-0.3L40.4,57.6L40.4,57.6z"/>
		<path class="st0" d="M25.6,77.9l-2.1,0.9c-0.6,0.3-1.3,0.5-1.9,0.9c-1.3,0.7-2.5,1.4-3.8,2.1s-2.6,1.5-3.8,2.3s-2.3,1.5-3.4,2.3
			c-0.8,0.6-0.9,1.7-0.3,2.5c0.3,0.4,0.7,0.6,1.2,0.6c0.5,0,0.9-0.1,1.3-0.4c1.5-1,3-2,4.5-3l2.9-1.8c1-0.6,2.1-1.2,3.2-1.8
			s2.4-1,3.6-1.6c0.9-0.4,1.3-1.4,0.9-2.3c-0.3-0.6-0.9-1-1.6-1C26,77.7,25.8,77.8,25.6,77.9L25.6,77.9z M20.4,84.3l-0.1,0.1
			L20.4,84.3z M17.2,86.3L17,86.4L17.2,86.3z"/>
		<path class="st0" d="M26.3,94c-2.7,1.1-5.3,2.4-7.9,3.6c-1.3,0.6-2.6,1.2-3.8,1.9c-1.4,0.7-2.8,1.5-4.1,2.3
			c-0.8,0.6-0.9,1.7-0.3,2.5c0.3,0.4,0.7,0.6,1.2,0.6c0.5,0,0.9-0.1,1.3-0.4l0.8-0.6c1-0.6,2-1.1,3.1-1.6c1.2-0.6,2.4-1.2,3.6-1.7
			s2.4-1.1,3.6-1.7s2.6-1.2,3.9-1.7c0.9-0.4,1.2-1.5,0.8-2.3c-0.3-0.6-0.8-0.9-1.5-1C26.8,93.9,26.5,93.9,26.3,94L26.3,94z"/>
		<path class="st0" d="M336.9,54.1c-0.9,0.3-1.4,1.3-1.1,2.2c0.2,0.4,0.5,0.8,0.9,1c1.6,0.6,3.3,1.3,4.9,2s3.2,1.5,4.8,2.3
			c2.9,1.5,5.9,3.1,8.7,4.9c0.3,0.2,0.6,0.4,0.9,0.6c0.7,0.6,1.8,0.5,2.5-0.2c0.6-0.7,0.5-1.8-0.2-2.5c-1.6-1.1-3.3-2.2-5-3.1
			c-1.5-0.9-3.1-1.7-4.6-2.5s-3.2-1.7-4.9-2.5s-3.6-1.5-5.4-2.2c-0.2-0.1-0.5-0.2-0.8-0.2C337.3,54,337.1,54.1,336.9,54.1
			L336.9,54.1z"/>
		<path class="st0" d="M328.4,66.5c-0.4,0.9-0.1,1.9,0.8,2.3c1.8,0.8,3.7,1.5,5.5,2.2s3.4,1.5,5.1,2.3s3.2,1.5,4.8,2.2
			s3.3,1.6,5,2.5c1.3,0.7,2.5,1.5,3.7,2.3l0.5,0.3c0.4,0.3,0.8,0.4,1.3,0.4c0.5,0,0.9-0.3,1.2-0.6c0.3-0.3,0.4-0.8,0.4-1.2
			c0-0.5-0.3-0.9-0.6-1.2c-1.7-1.1-3.4-2.2-5.1-3.1s-3.2-1.7-4.9-2.5s-3.2-1.5-4.8-2.2s-3.4-1.6-5.1-2.3s-3.6-1.4-5.4-2.2
			c-0.2-0.1-0.5-0.2-0.8-0.2C329.3,65.5,328.7,65.9,328.4,66.5L328.4,66.5z"/>
		<path class="st0" d="M337.2,84.2c-0.4,0.9-0.1,1.9,0.8,2.3c2.4,1.1,4.9,2.1,7.2,3.4c1.1,0.6,2.2,1.3,3.4,1.9s2.2,1.2,3.2,1.9
			l0.1,0.1c0.4,0.3,0.8,0.4,1.2,0.4c0.5,0,0.9-0.3,1.2-0.6c0.3-0.3,0.4-0.8,0.4-1.2c0-0.5-0.2-0.9-0.6-1.2c-1.2-0.8-2.5-1.6-3.7-2.2
			s-2.3-1.3-3.5-2s-2.3-1.2-3.5-1.8s-2.6-1.1-3.9-1.7c-0.2-0.1-0.5-0.2-0.8-0.2C338.1,83.2,337.5,83.6,337.2,84.2L337.2,84.2z"/>
		<path class="st0" d="M333.6,98.7c-0.4,0.2-0.8,0.5-1,0.9c-0.4,0.9,0,1.9,0.8,2.3c2,0.8,4.1,1.6,6,2.6c1.8,0.9,3.5,1.8,5.2,2.9
			c1,0.7,2,1.4,3,2.1c1,0.7,1.9,1.5,2.8,2.4c0.3,0.3,0.8,0.5,1.2,0.4c1-0.1,1.7-0.9,1.6-1.8c0,0,0,0,0,0c0-0.5-0.3-0.9-0.6-1.2
			c-0.6-0.6-1.2-1.1-1.8-1.6c-0.6-0.5-1.3-1-2-1.5c-1.4-1-2.9-2-4.4-2.8s-3-1.7-4.5-2.4s-3.4-1.4-5-2.1c-0.2-0.1-0.5-0.2-0.8-0.2
			C334,98.6,333.8,98.6,333.6,98.7L333.6,98.7z"/>
		<path class="st0" d="M332.2,112.6c-0.4,0.1-0.8,0.5-1,0.9c-0.2,0.4-0.2,0.9-0.1,1.3c0.1,0.4,0.5,0.8,0.9,1
			c1.2,0.4,2.4,0.9,3.6,1.3s2.3,1,3.4,1.6s2.1,1.1,3.1,1.7s2,1.1,3,1.7c1.2,0.8,2.4,1.7,3.5,2.7c0.5,0.4,1,0.9,1.6,1.3
			s1.3,1.1,2,1.6c0.4,0.3,0.8,0.4,1.2,0.4c0.5,0,0.9-0.3,1.2-0.6c0.6-0.7,0.5-1.8-0.2-2.5c-0.8-0.6-1.5-1.2-2.2-1.8s-1.3-1.1-2-1.6
			c-1.5-1.2-3.1-2.3-4.7-3.3c-0.8-0.4-1.5-0.9-2.3-1.3s-1.6-0.9-2.4-1.3c-1.7-0.9-3.4-1.7-5.2-2.4c-0.6-0.2-1.3-0.5-2-0.7
			c-0.3-0.1-0.5-0.2-0.8-0.2C332.5,112.5,332.3,112.5,332.2,112.6L332.2,112.6z"/>
		<g>
			<path class="st0" d="M118.7,46c3,1.6,5.1,4,6.5,7.2l-5.7,0.9c-1-1.7-2.4-3-4.2-3.8c-1.8-0.8-3.9-1.1-6.2-0.7
				c-2.1,0.3-3.9,1.1-5.4,2.3c-1.5,1.2-2.6,2.8-3.3,4.8c-0.7,1.9-0.8,4.1-0.4,6.6c0.4,2.6,1.2,4.7,2.4,6.4c1.2,1.7,2.8,2.9,4.6,3.6
				c1.9,0.7,3.9,0.9,6.2,0.5c2.8-0.4,5-1.6,6.8-3.7c1.7-2,2.6-4.6,2.5-7.6l-12.3,1.9l-0.6-4l16.8-2.6l0.8,5.2c0,2.5-0.5,4.9-1.6,7.1
				c-1.1,2.2-2.6,4.1-4.7,5.6c-2.1,1.5-4.6,2.5-7.5,3c-3.3,0.5-6.2,0.2-9-0.9c-2.7-1.1-5-2.8-6.7-5.2c-1.8-2.4-2.9-5.2-3.4-8.5
				c-0.5-3.3-0.3-6.4,0.7-9.2c1-2.8,2.6-5.1,4.9-6.9c2.3-1.8,5-3,8.3-3.5C112.3,44,115.8,44.5,118.7,46z"/>
			<path class="st0" d="M131.4,39.5c0.6-0.7,1.4-1,2.5-1.1c1.1-0.1,1.9,0.1,2.6,0.7c0.7,0.5,1.1,1.3,1.2,2.2
				c0.1,0.9-0.2,1.7-0.8,2.3c-0.6,0.6-1.4,1-2.5,1.1c-1.1,0.1-1.9-0.1-2.6-0.6c-0.7-0.5-1.1-1.2-1.2-2.2
				C130.5,40.9,130.8,40.2,131.4,39.5z M137.5,49l2.3,26.4l-5.5,0.5L132,49.5L137.5,49z"/>
			<path class="st0" d="M159.1,69.5l0.2,4.7l-3.4,0.2c-2.8,0.1-5-0.5-6.5-1.7c-1.5-1.3-2.3-3.5-2.5-6.7L146.4,53l-3.8,0.2l-0.2-4.7
				l3.8-0.2l-0.3-6.6l5.5-0.3l0.3,6.6l6.4-0.3l0.2,4.7l-6.4,0.3l0.6,13c0.1,1.5,0.4,2.5,1,3.1c0.6,0.5,1.6,0.8,3,0.7L159.1,69.5z"/>
			<path class="st0" d="M191.6,40.7l-0.8,33.9l-5.5-0.1l0.3-15.2l-15.9-0.4l-0.3,15.2l-5.5-0.1l0.8-33.9l5.5,0.1l-0.3,14.2l15.9,0.4
				l0.3-14.2L191.6,40.7z"/>
			<path class="st0" d="M223.8,51.4L221,77.7l-5.5-0.6l0.6-5.7c-0.9,1.9-2.2,3.2-4,4.1c-1.8,0.9-3.8,1.2-5.9,1
				c-3.1-0.3-5.4-1.6-7-3.8c-1.6-2.2-2.2-5.1-1.9-8.7l1.7-15.3l5.4,0.6L202.8,64c-0.3,2.4,0.1,4.3,1.2,5.7c1.1,1.4,2.7,2.2,4.8,2.5
				c2.2,0.2,4-0.3,5.4-1.5c1.5-1.3,2.3-3.2,2.6-5.9l1.5-13.9L223.8,51.4z"/>
			<path class="st0" d="M252.6,57.9c1.6,1.4,2.7,3.2,3.3,5.4c0.6,2.2,0.7,4.7,0.1,7.4c-0.5,2.7-1.5,5-2.9,6.8
				c-1.4,1.8-3.1,3.1-5.1,3.8c-2,0.7-4.1,0.9-6.4,0.4c-2.4-0.5-4.3-1.4-5.7-2.9c-1.4-1.5-2.3-3.2-2.6-5.3l-1.2,6l-5.4-1l6.7-34.9
				l5.4,1l-2.9,14.9c1-1.8,2.5-3.1,4.4-3.9c1.9-0.8,4-1,6.4-0.6C249.1,55.5,251,56.5,252.6,57.9z M240,59.8
				c-1.3,0.5-2.5,1.3-3.4,2.5c-0.9,1.2-1.6,2.6-1.9,4.3c-0.3,1.7-0.3,3.3,0.2,4.7c0.4,1.4,1.2,2.6,2.2,3.5c1.1,0.9,2.3,1.6,3.8,1.8
				c2.4,0.5,4.5,0.1,6.2-1.2c1.7-1.2,2.9-3.2,3.4-5.9c0.5-2.6,0.2-4.9-1-6.7c-1.1-1.8-2.9-3-5.3-3.4C242.8,59.2,241.4,59.3,240,59.8
				z"/>
		</g>
	</g>
</g>
</svg>
