<svg xmlns="http://www.w3.org/2000/svg" viewBox="0 0 362.29 187.2"><defs><style>.cls-1{fill:#fefefe;}</style></defs><g id="Layer_2" data-name="Layer 2"><g id="Draw_Layer" data-name="Draw Layer"><path class="cls-1" d="M347.93,150.26a4.23,4.23,0,0,0-.69.44c-.29.14-.61.25-.9.39-.51.24-1,.53-1.46.8-1.18.66-2.37,1.27-3.58,1.88s-2.44,1.11-3.58,1.82c-1.35.83-2.73,1.57-4.13,2.32-3.27,1.76-6.76,3.05-10,4.85s-6.35,3.8-9.61,5.55a71.37,71.37,0,0,1-7.41,3.47c-1,.37-2.06.75-3.09,1.15l1-.39c-2.7,1-5.31,2.23-7.95,3.41s-5.11,2.16-7.66,3.25a4.06,4.06,0,0,0-2.07,2.5,4.25,4.25,0,0,0,2.81,5.32,4.49,4.49,0,0,0,3.24-.31c2.42-1,4.86-2,7.27-3.08s4.56-2.11,6.9-3l.35-.14c1.84-.68,3.69-1.33,5.47-2.17s3.42-1.57,5.09-2.46c3.27-1.75,6.38-3.75,9.62-5.56s6.73-3.09,10-4.85c1.39-.75,2.78-1.49,4.13-2.32,1.14-.7,2.39-1.2,3.58-1.82s2.57-1.27,3.8-2c.48-.28,1-.54,1.45-.77l.63-.27a4.42,4.42,0,0,0,.93-.56,4.29,4.29,0,0,0,1.59-5.65,4.21,4.21,0,0,0-3.76-2.23,4.44,4.44,0,0,0-2,.47Z"/><path class="cls-1" d="M163.41,102.88c-2.19,0-4.36.15-6.54.21s-4.4.06-6.6,0c-4.07,0-8.17-.07-12.25.11-3.82.17-7.63.55-11.45.77-.4,0-.8.1-1.21.12a4.35,4.35,0,0,1-1,0c-1.52.08-3,.16-4.55.28-2.39.2-4.77.52-7.14.82-4.24.54-8.45,1.24-12.67,1.89-2.1.32-4.19.68-6.29,1-1.94.31-3.89.56-5.81.92-4.14.75-8.23,1.76-12.3,2.78-2,.5-4,1-6,1.51s-4.09,1-6.11,1.57c-3.91,1.19-7.77,2.54-11.64,3.82-1.83.6-3.68,1.06-5.51,1.62q-3.11,1-6.09,2.24c-1.55.66-3,1.44-4.57,2.15l-4.77,2.21c-1.61.76-3.24,1.46-4.86,2.18s-3.34,1.54-5,2.27-3.62,1.47-5.41,2.26c-1.57.7-3.1,1.46-4.61,2.28-.8.42-1.58.9-2.37,1.36s-1.44.8-2.13,1.24c-1.79,1.15-3.45,2.48-5.15,3.74a2.8,2.8,0,0,0-.75.85c.08.23.16.47.25.7.2.58.43,1.15.62,1.73.09.27.23.53.33.8s.15.39.22.58a6.25,6.25,0,0,0,.58.9c.45.55.91,1.1,1.36,1.67l.07.09,0,.06h0a4.66,4.66,0,0,0,3-1.12l2.6-2c1.13-.75,2.29-1.42,3.47-2.08,1.49-.83,3-1.67,4.49-2.42,3.18-1.54,6.51-2.73,9.72-4.21s6.48-2.91,9.7-4.42c2.86-1.33,5.69-2.78,8.62-3.94,3.45-1.23,7-2.12,10.48-3.28,3.8-1.27,7.58-2.65,11.46-3.66,2.1-.54,4.22-1,6.32-1.56s4.11-1,6.15-1.54c3.9-1,7.8-1.84,11.77-2.46,9-1.41,18.06-3.07,27.16-4,4-.37,8-.48,12.07-.77s7.74-.53,11.64-.56c1.83,0,3.67,0,5.51,0,2.45,0,4.91,0,7.36,0,2.17,0,4.33-.15,6.49-.22s4.09,0,6.13,0q6.21.09,12.42.22c4.14.09,8.28.43,12.42.67s8.27.49,12.39.82c2.11.17,4.21.45,6.31.68s4.16.43,6.24.65c3.12.33,6.22.74,9.32,1.23,4.22.74,8.42,1.5,12.64,2.18l2.94.49.1,0h.07c4,.74,8.07,1.54,12.07,2.41,4.16.91,8.34,1.8,12.44,2.93s8.24,2.06,12.33,3.2,8.25,2.44,12.36,3.69l19.25,5.92c2.93.9,5.86,1.77,8.72,2.86,1.5.58,2.94,1.3,4.42,1.9s2.77,1,4.13,1.59c.79.4,1.57.84,2.34,1.27,1,.58,2.06,1.13,3.06,1.77.75.47,1.44,1,2.19,1.48s1.31.86,1.92,1.33c2,1.55,4.27,2.72,6.28,4.27.24.22.48.45.71.69a11.42,11.42,0,0,0,1.58,1.29l.26.27c.41.37.84.71,1.28,1a4.09,4.09,0,0,0,3.25.56,4.27,4.27,0,0,0,3.17-5.11,4.42,4.42,0,0,0-1.76-2.54,10.15,10.15,0,0,0-1.07-1,5.76,5.76,0,0,0-.51-.35c-.15-.16-.3-.31-.46-.45-.66-.58-1.31-1.17-2-1.69s-1.7-1.19-2.59-1.75-2-1.34-3-2c-.48-.32-.92-.69-1.4-1s-1.19-.75-1.77-1.15a49.59,49.59,0,0,0-10.78-5.74c-1.87-.69-3.68-1.48-5.5-2.27a55,55,0,0,0-5.72-2.08l-24.19-7.43c-4-1.23-8-2.46-12-3.59s-8.25-2.07-12.35-3.2c-2.11-.58-4.25-1.07-6.39-1.54s-4.5-1-6.76-1.52c-4.55-.93-9.09-1.87-13.67-2.61l-3.93-.66c-4.49-.8-9-1.59-13.49-2.31-4.12-.65-8.28-1-12.42-1.45-4.3-.44-8.59-.91-12.9-1.17-4-.24-8.05-.51-12.07-.74-2-.12-4-.24-6.05-.32s-4.33-.07-6.49-.12c-3.5-.09-7-.18-10.5-.18Zm64.17,12.84.71.11-.71-.11Zm15.77,2.71.68.11-.68-.11Z"/><path class="cls-1" d="M243,118.37h0Z"/><path class="cls-1" d="M3.75,41.07c-.09,2.46.37,4.92.19,7.39-.09,1.18-.31,2.34-.3,3.53s-.1,2.41-.1,3.61c0,1.61.11,3.22.1,4.82,0,1.42-.19,2.84-.17,4.26,0,1.6-.17,3.18-.2,4.77C3.25,70.75,3,72,3,73.32c-.17,2.81-.24,5.62-.48,8.42-.26,3.17-.07,6.35-.51,9.51l.09-.56c-.22,1.33-.39,2.67-.58,4,0-.22.07-.45.11-.67-.36,2.22-.59,4.46-.76,6.71-.13,1.82-.11,3.64-.24,5.46-.16,2.47-.34,4.92-.39,7.39,0,1.25-.09,2.5-.14,3.75,0,.58-.06,1.17-.06,1.75a17.48,17.48,0,0,0,.14,2c0,.21,0,.41.07.62.13,1.79.28,3.59.24,5.38,0,.92-.14,1.83-.19,2.74s0,1.8,0,2.69c.08,1.64.26,3.28.22,4.92s-.07,3.18-.17,4.77c.17.52.35,1.05.53,1.57s.44,1.14.63,1.73c.09.27.23.53.33.8s.12.3.17.45a4.36,4.36,0,0,0,2.39.85,4.31,4.31,0,0,0,3-1.12,4.4,4.4,0,0,0,1.37-3c.17-1.93.19-3.86.24-5.79,0-1.76-.17-3.53-.23-5.29s.22-3.77.22-5.66a57.42,57.42,0,0,0-.36-5.86c0-.53-.11-1-.16-1.58,0,.36.07.73.11,1.09a22.91,22.91,0,0,1,0-3.1c0-1.24.1-2.49.13-3.73.05-2.39.23-4.77.39-7.15.12-1.68.05-3.38.2-5.06.17-2,.29-4,.61-6-.05.28-.09.56-.14.84.21-1.3.37-2.61.56-3.92l-.09.55a36.8,36.8,0,0,0,.56-5.25c0-1.62.07-3.23.14-4.85s.27-3.15.3-4.73c0-1.37.13-2.73.21-4.1s.3-2.6.33-3.91c0-1.59.22-3.18.2-4.78,0-1.39.12-2.78.17-4.17,0-1.63,0-3.28-.1-4.91,0-1.22.07-2.45.1-3.68a14.48,14.48,0,0,1,.08-1.74c.08-.63.16-1.25.21-1.89.18-2.52-.27-5-.18-7.54A4.28,4.28,0,0,0,8.13,37H8a4.3,4.3,0,0,0-4.25,4.12Z"/><path class="cls-1" d="M165,.16c-2.13.09-4.26.22-6.4.31s-4.15.09-6.22.19c-4.14.2-8.26.66-12.39.91-2.93.18-5.84.54-8.76.84s-5.71.63-8.56,1S117,4,114.21,4.44q-3.69.52-7.39.93c-2.33.22-4.66.47-7,.81-2.06.31-4.1.72-6.14,1.13s-3.88.87-5.86,1.11-4,.54-6,.9c-4.1.75-8.13,1.75-12.18,2.72S61.47,14,57.36,15A99.28,99.28,0,0,0,46,18.77c-1.8.7-3.57,1.52-5.34,2.32-1.6.72-3.22,1.39-4.86,2-5,1.82-9.85,3.94-14.76,6-2.19.91-4.26,2.07-6.41,3.07A62.67,62.67,0,0,0,8.26,35.9a4.43,4.43,0,0,0-2.07,2.51,4.24,4.24,0,0,0,6.05,5,67.13,67.13,0,0,1,6-3.56c2-1,3.92-2,5.94-2.89s4.27-1.75,6.39-2.65c2.37-1,4.75-2,7.16-2.91l-.28.11c2.42-.92,4.82-1.88,7.2-2.91s4.52-2,6.82-2.87c1.82-.65,3.66-1.29,5.52-1.83s4-1.06,6-1.54c4.13-1,8.27-1.95,12.4-3,2-.5,4-.92,6.07-1.33s4-.79,6.07-1.07,3.88-.51,5.8-.92,4.09-.83,6.14-1.21c2.22-.4,4.44-.69,6.68-.95,2.5-.25,5-.52,7.48-.85s5.15-.74,7.74-1c5-.57,10-1.15,15-1.69,1.75-.16,3.52-.27,5.28-.39,2.14-.15,4.29-.39,6.44-.54,4.08-.29,8.18-.33,12.27-.53s8.24-.45,12.37-.33c4.32.13,8.64.44,13,.47,3.69,0,7.37.24,11.05.48s7.5.7,11.27.88,7.7.31,11.55.72,7.77.6,11.62,1.17c2.81.49,5.62,1,8.44,1.42s5.49.71,8.23,1.1c2.42.43,4.84.88,7.27,1.28L254,15.88l4.75.82-1.13-.19c4,.69,8,1.65,12,2.57,2.08.48,4.18.88,6.26,1.37s4,1,5.93,1.6,4.18,1.24,6.27,1.85c1.89.56,3.84.94,5.76,1.44,4.06,1.07,8.09,2.29,12.11,3.51,3.47,1.06,6.95,2.08,10.31,3.46,1.73.71,3.43,1.48,5.18,2.15,1.5.57,3,1.12,4.48,1.74,1.24.62,2.44,1.28,3.66,2a55.61,55.61,0,0,0,5.32,2.59c.88.43,1.75.86,2.64,1.27s2,.81,3.05,1.17,2,.83,2.95,1.25,1.87.72,2.8,1.12l.89.41-.54-.25A20.9,20.9,0,0,1,350.49,48l.63.54-.41-.34.14.13a4.25,4.25,0,1,0,6.25-5.75,7.08,7.08,0,0,0-.76-.68,23.48,23.48,0,0,0-2.17-1.66,28.23,28.23,0,0,0-4.34-2.32l1,.48c-1.09-.52-2.18-1-3.3-1.46-.88-.33-1.75-.68-2.62-1.07-1.6-.72-3.27-1.26-4.88-2-1.16-.55-2.32-1.08-3.49-1.61-1.72-.85-3.33-1.88-5.05-2.73a60.75,60.75,0,0,0-6.36-2.76c-3.9-1.42-7.64-3.26-11.61-4.5s-7.88-2.43-11.84-3.57c-2-.59-4.05-1.17-6.09-1.69s-3.94-.93-5.88-1.5c-5.08-1.5-10.15-3-15.34-4.09-2.58-.53-5.16-1.1-7.72-1.7C263.8,9.06,260.9,8.52,258,8l1.13.19c-1.28-.23-2.57-.45-3.85-.66-2.84-.5-5.66-1.09-8.52-1.45-2.61-.32-5.21-.66-7.81-1.06C235,4.37,231,3.62,227,3.27c-2.14-.18-4.27-.36-6.4-.58s-4-.42-6-.53c-2.24-.13-4.49-.19-6.73-.29-1.93-.09-3.84-.28-5.76-.44-4.15-.35-8.3-.65-12.46-.82-1.94-.07-3.88-.07-5.81-.12-2.2-.06-4.4-.17-6.6-.25S173.1.05,171,0h-.91c-1.71,0-3.41.08-5.12.16Zm185.71,48-.09-.08.09.08Z"/><path class="cls-1" d="M354,42.85a4.29,4.29,0,0,0-3.17,5.1,90.42,90.42,0,0,1,1.95,10c.28,3.49.27,7,.44,10.52.1,1.93.16,3.84.07,5.77s-.16,4-.28,6.07a49.4,49.4,0,0,0,.23,6.55c.13,1.78.1,3.56.06,5.36s0,3.84.12,5.76a52.2,52.2,0,0,1-.05,6c-.15,3.32.15,6.63.17,9.94,0,1.76-.09,3.51-.13,5.26a26,26,0,0,0,0,2.65c.07,1,.21,2,.34,3a44.55,44.55,0,0,1-.31,6.21c-.16,1.66-.23,3.34-.45,5a69.91,69.91,0,0,1-1.88,7c-.48,1.54-.92,3.1-1.42,4.63a4.25,4.25,0,0,0,7.22,4.49,12.57,12.57,0,0,0,1.26-3.17c.2-.67.41-1.34.62-2,.48-1.59,1-3.18,1.44-4.77.32-1.08.59-2.17.82-3.28.39-1.87.53-3.74.74-5.64.19-1.68.25-3.38.38-5.07a23.5,23.5,0,0,0,.1-2.79c0-1.07-.21-2.13-.35-3.2-.1-1.62,0-3.25,0-4.87.05-1.79.1-3.57,0-5.36s-.18-3.4-.19-5.1c0-2,.15-4,.17-6s-.23-4-.21-6.08c0-1.77.09-3.54.07-5.31,0-2-.3-4-.37-6s.08-4,.19-6c.15-2.72.21-5.4.09-8.12q-.15-3.39-.26-6.78a78.17,78.17,0,0,0-.76-9c-.18-1.18-.49-2.36-.75-3.53-.28-1.33-.56-2.66-.87-4a4.3,4.3,0,0,0-4.16-3.27,3.85,3.85,0,0,0-.95.11Z"/><path class="cls-1" d="M245.51,114.24a18.7,18.7,0,0,0-4.13,1.75c-1.32.6-2.63,1.24-4,1.83-1.55.68-3.14,1.26-4.68,2-2,.92-3.89,1.87-5.82,2.83-3.27,1.64-6.45,3.41-9.62,5.21-1.74,1-3.5,1.94-5.26,2.88s-3.48,1.83-5.26,2.64c-3.61,1.64-7.18,3.37-10.72,5.15-1.76.89-3.49,1.83-5.21,2.78-1.56.88-3.19,1.64-4.77,2.48-3.31,1.75-6.69,3.35-10,5-2,1-4,1.88-5.95,2.89s-3.62,1.95-5.43,2.92c-1,.55-2,1.14-3.07,1.71s-2.06,1.05-3.08,1.59a71.6,71.6,0,0,1-6.77,3.29l-2.9,1.11a30.37,30.37,0,0,0-3.48,1.45,27.28,27.28,0,0,0-3.22,2.09c-.29.22-.59.42-.89.63a4.18,4.18,0,0,0-1.18,1.88,4.29,4.29,0,0,0,.3,3.24,4.34,4.34,0,0,0,1.63,1.69h.05a7.18,7.18,0,0,1,1.65-.44c.6-.05,1.18-.11,1.78-.14h-.1q.92,0,1.83-.09a21.83,21.83,0,0,1,3.75-2.1l2.7-1a43.69,43.69,0,0,0,5.2-2.14c1.65-.85,3.27-1.76,4.93-2.6,3.27-1.65,6.41-3.53,9.66-5.22,3.63-1.89,7.41-3.5,11.05-5.38l4.95-2.54c.79-.4,1.58-.82,2.35-1.24s1.68-.81,2.5-1.26l5.07-2.72c1.68-.89,3.41-1.69,5.12-2.53s3.69-1.76,5.54-2.63,3.56-1.76,5.34-2.65c3.44-1.72,6.71-3.75,10.1-5.56,1.6-.85,3.18-1.74,4.8-2.54,1.92-1,3.85-1.88,5.77-2.83,2.28-1.11,4.67-1.94,7-3,.87-.42,1.75-.81,2.63-1.21.6-.27,1.16-.57,1.75-.84l.08,0a4.23,4.23,0,0,0-1.06-8.36,5.33,5.33,0,0,0-.88.08Zm-94.79,56.35-.76.29.76-.29Z"/><path class="cls-1" d="M114.51,107.94a21.35,21.35,0,0,1-3.12,1.51c-1.39.59-2.76,1.25-4.13,1.89-1.55.73-3.14,1.35-4.68,2.12s-3.23,1.54-4.83,2.33c-7,3.4-14.14,6.33-20.84,10.23a89.94,89.94,0,0,1-9,4.69c-1.57.69-3.12,1.46-4.72,2.11s-3.3,1.43-4.93,2.18-3.08,1.55-4.65,2.29-3.08,1.42-4.61,2.13-3.11,1.37-4.65,2.09c-1.2.56-2.42,1.1-3.65,1.59l-5.21,1.79c-1.71.58-3.47.94-5.22,1.35s-3.67.82-5.52,1.19c-1.64.33-3.28.69-4.94.92a15.68,15.68,0,0,1-2.74-.06,26.39,26.39,0,0,1-4.64-1.49c-.48-.26-.94-.54-1.42-.8s-1-.52-1.43-.81-.74-.84-1.12-1.25c-.66-.73-1.31-1.47-2-2.19a4.3,4.3,0,0,0-6-.26l-.28.28c0,.11.07.21.1.32.18.58.38,1.16.59,1.73s.43,1.14.62,1.73c.09.27.23.53.33.8s.15.38.22.58a7.24,7.24,0,0,0,.58.9c.45.55.91,1.1,1.36,1.67l.07.09.26.28a30.67,30.67,0,0,0,3,3.12c.53.46,1.08.9,1.59,1.39l.26.24A25.8,25.8,0,0,0,14,156.3a26.11,26.11,0,0,0,3.54.57,18.64,18.64,0,0,0,3.58-.17c1.93-.22,3.85-.66,5.76-1s4-.88,6-1.3a44.36,44.36,0,0,0,5.55-1.56c2.2-.76,4.4-1.49,6.56-2.33,1.54-.59,3-1.33,4.52-2l5.66-2.55c3.48-1.61,6.89-3.37,10.4-4.91s7.3-3.15,10.83-5c1.68-.87,3.32-1.77,4.95-2.74s3.43-1.92,5.19-2.78c5.81-2.85,11.72-5.48,17.55-8.3,1.38-.67,2.74-1.4,4.15-2s2.67-1.18,4-1.8,2.39-1.08,3.59-1.6a22.13,22.13,0,0,0,2.67-1.33,4.44,4.44,0,0,0,2.07-2.51,4.25,4.25,0,0,0-.31-3.24,4.48,4.48,0,0,0-3.85-2.29,3.47,3.47,0,0,0-1.89.53Z"/><path class="cls-1" d="M126.87,104c-.5.07-1,.14-1.51.17a4.13,4.13,0,0,1-1.11,0c-.14,0-.29-.06-.45-.11l-.64.06h-.27c-.74.32-1.48.65-2.2,1s-1.39.76-2.11,1.11c-.33.16-.67.3-1,.45a14.7,14.7,0,0,0-1.4.78c-1.44.76-3.07,1.09-4.5,1.89l-1.8,1c-.7.4-1.47.7-2.2,1.06-1.54.77-3.12,1.44-4.7,2.11-1.37.58-2.69,1.23-4,1.94a4.52,4.52,0,0,0-2.24,2.28A4.27,4.27,0,0,0,99,123.25a4.14,4.14,0,0,0,3.31,0c1.31-.71,2.63-1.36,4-1.94,1.64-.69,3.26-1.39,4.85-2.18.72-.36,1.47-.66,2.17-1.06s1.24-.71,1.87-1.05a19.65,19.65,0,0,1,2.46-1c.44-.16.89-.31,1.32-.5a10,10,0,0,0,1.29-.69c.61-.33,1.26-.59,1.87-.91s1.3-.71,2-1c1-.52,2.14-1,3.21-1.43a4.29,4.29,0,0,0,2.21-5.59,4.14,4.14,0,0,0-1.66-1.91l-1,.06Z"/><path class="cls-1" d="M260.2,121.49c-.49.26-1,.56-1.44.87-1.22.76-2.46,1.46-3.68,2.2s-2.61,1.51-4,2.17c-.7.34-1.42.65-2.13,1s-1.32.63-2,.94c-1.36.66-2.68,1.41-4,2.08l-2.25,1.12c-.64.31-1.3.61-1.93.94-1.43.75-2.8,1.62-4.21,2.42s-2.59,1.5-3.94,2.17-2.84,1.43-4.25,2.17-2.7,1.42-4.06,2.11-2.8,1.49-4.22,2.2l-2.07,1c-.67.34-1.33.7-2,1-1.41.64-2.8,1.3-4.16,2-.67.36-1.32.76-2,1.12s-1.35.72-2,1.05c-1.43.66-2.85,1.34-4.29,2s-2.83,1.22-4.23,1.88-2.62,1.27-4,1.79c-2.32.91-4.44,2.24-6.66,3.37-.49.25-1,.47-1.49.71s-1.2.54-1.8.8l-1.63.69c-.66.28-1.31.6-2,.9a1.5,1.5,0,0,0,1.28,2.71c.74-.34,1.48-.7,2.23-1l2.2-.92c.68-.29,1.34-.64,2-.94s1.36-.69,2-1c1.29-.69,2.55-1.45,3.89-2.05.69-.31,1.41-.55,2.1-.87l2.06-.95c.67-.3,1.34-.63,2-.94s1.44-.65,2.17-1c1.41-.6,2.79-1.25,4.19-1.89.69-.33,1.4-.64,2.08-1s1.36-.74,2-1.12c1.36-.79,2.76-1.48,4.18-2.15.65-.3,1.31-.6,2-.93l2.06-1.06q2.17-1.1,4.34-2.23c.69-.37,1.38-.72,2.08-1.08s1.28-.69,1.93-1l4.11-2.11c1.38-.7,2.76-1.38,4.09-2.16.67-.4,1.36-.79,2-1.18s1.35-.82,2-1.21c1.33-.76,2.73-1.39,4.09-2.07s2.84-1.41,4.24-2.15c1.11-.58,2.24-1.13,3.38-1.64s2.32-1,3.44-1.68,2.27-1.3,3.39-2,2.22-1.32,3.31-2l-.09.06c.27-.17.54-.32.81-.48a1.5,1.5,0,0,0,.71-2,1.56,1.56,0,0,0-1.38-.87,1.27,1.27,0,0,0-.62.16Z"/><path class="cls-1" d="M277.2,124.42a3.39,3.39,0,0,0-1.16.35l-.51.23-1,.51c-.68.34-1.35.7-2,1-1.39.73-2.78,1.45-4.13,2.26s-2.6,1.59-3.93,2.35-2.67,1.51-4,2.23-2.91,1.47-4.37,2.22-2.7,1.4-4,2.14-2.63,1.58-4,2.34-2.79,1.56-4.22,2.3c-2.83,1.46-5.63,3-8.42,4.51-1.35.73-2.69,1.46-4,2.24s-2.76,1.66-4.15,2.47-2.68,1.49-4,2.2-2.73,1.46-4.17,2-2.91,1.14-4.32,1.85-2.84,1.52-4.27,2.27c-.94.5-1.92.89-2.89,1.34-.44.19-.89.37-1.32.59a13,13,0,0,0-1.45.83h0c-.67.43-1.31.87-1.95,1.34a1.5,1.5,0,0,0,.86,2.64,1.54,1.54,0,0,0,1.07-.35c.5-.36,1-.71,1.5-1l.13-.08a30.25,30.25,0,0,1,3.77-1.79c1.47-.64,2.85-1.46,4.27-2.22a39.52,39.52,0,0,1,4.16-2c.73-.3,1.48-.58,2.2-.89s1.38-.63,2.05-1c1.43-.74,2.85-1.46,4.25-2.24s2.7-1.53,4-2.34c2.72-1.65,5.51-3.16,8.31-4.66,1.34-.72,2.68-1.47,4-2.17s2.84-1.47,4.25-2.24,2.73-1.56,4.08-2.38c.64-.39,1.3-.76,2-1.12s1.32-.73,2-1.08c2.79-1.46,5.63-2.8,8.37-4.35,1.38-.78,2.77-1.55,4.12-2.39s2.58-1.57,3.92-2.27c.89-.47,1.77-.95,2.66-1.41s1.78-.93,2.71-1.31a1.09,1.09,0,0,1,.26,0,1.42,1.42,0,0,0,1-.62,1.46,1.46,0,0,0,.24-1.13,1.55,1.55,0,0,0-.62-1,1.47,1.47,0,0,0-.87-.25Zm-72.78,38.51.32-.2-.32.2Z"/><path class="cls-1" d="M291.28,128.47c-1.41.63-2.74,1.43-4.1,2.18l-1.9,1c-.72.4-1.43.81-2.13,1.24-1.28.79-2.54,1.61-3.83,2.37s-2.66,1.53-4,2.29-2.55,1.35-3.83,2-2.44,1.29-3.67,1.91-2.55,1.32-3.8,2-2.53,1.53-3.77,2.34a91.81,91.81,0,0,1-8.15,4.31l-2.12,1c-.67.31-1.32.66-2,1-1.41.76-2.77,1.57-4.12,2.43s-2.85,1.9-4.28,2.85c-2.18,1.37-4.41,2.7-6.71,3.86q-1.71.87-3.48,1.65a33.28,33.28,0,0,0-3.57,2.05,1.57,1.57,0,0,0-.77.85,1.5,1.5,0,0,0,.91,1.91,1.44,1.44,0,0,0,1.15,0l2.15-1.31a19.52,19.52,0,0,1,2.1-1c1.46-.65,2.9-1.38,4.31-2.14s2.69-1.53,4-2.34c.8-.48,1.58-1,2.36-1.49.62-.41,1.21-.85,1.83-1.26.22-.15.43-.3.66-.44,1.3-.83,2.62-1.64,4-2.4s2.73-1.43,4.12-2.08q4.23-2,8.28-4.28c.79-.45,1.54-1,2.31-1.47,2.69-1.67,5.52-3.09,8.33-4.56,1.36-.71,2.76-1.37,4.11-2.11s2.76-1.55,4.13-2.34c1-.61,2.07-1.25,3.09-1.89s2-1.27,3-1.84l3.42-1.88c1.06-.58,2.11-1.2,3.22-1.69a1.5,1.5,0,0,0-.65-2.85,1.61,1.61,0,0,0-.64.14Zm-28.09,19.05-.09,0,.09,0Zm-18.7,10.24-.19.12.19-.12Z"/><path class="cls-1" d="M306,133.24c-1.4.67-2.81,1.3-4.18,2s-2.85,1.52-4.24,2.34c-2.75,1.64-5.5,3.25-8.25,4.88-1.29.76-2.58,1.55-3.91,2.26s-2.86,1.52-4.3,2.28c-2.8,1.47-5.53,3.06-8.31,4.57-1.41.76-2.82,1.5-4.25,2.21s-2.79,1.26-4.15,2c-2.83,1.5-5.53,3.22-8.35,4.73-1.15.61-2.28,1.25-3.42,1.88s-2.33,1.22-3.5,1.81-2.37,1.13-3.58,1.67a32.25,32.25,0,0,0-3.76,2,1.64,1.64,0,0,0-.77.85,1.51,1.51,0,0,0,.91,1.92,1.44,1.44,0,0,0,1.15-.06c.72-.45,1.45-.88,2.21-1.26s1.38-.66,2.07-1q2.25-1,4.44-2.14c1.32-.68,2.62-1.39,3.92-2.11s2.76-1.51,4.11-2.3l4.32-2.48c1.36-.75,2.76-1.4,4.17-2.07s2.8-1.34,4.18-2.08,2.79-1.51,4.17-2.28,2.82-1.57,4.24-2.34,2.73-1.44,4.08-2.17c2.83-1.5,5.58-3.13,8.31-4.78,1.15-.69,2.31-1.35,3.46-2s2.19-1.32,3.31-2,2.36-1.29,3.56-1.91,2.43-1.16,3.64-1.74a1.5,1.5,0,0,0-.65-2.86,1.39,1.39,0,0,0-.63.15Z"/><path class="cls-1" d="M318.73,138.29c-.71.26-1.4.59-2.09.91s-1.28.62-1.91,1c-1.37.74-2.69,1.57-4,2.37-2.69,1.61-5.34,3.29-8,4.87-1.4.81-2.79,1.61-4.22,2.37l-4,2.08c-1.44.75-2.86,1.52-4.26,2.33s-2.72,1.5-4.09,2.24-2.74,1.56-4.13,2.33-2.74,1.52-4.09,2.33c-2.74,1.62-5.51,3.22-8.27,4.82a94.75,94.75,0,0,0-9.63,5.78,1.5,1.5,0,0,0,1.94,2.3c.53-.41,1.08-.79,1.64-1.16q2-1.23,4-2.35c1.37-.77,2.76-1.52,4.12-2.31l8.29-4.84c1.37-.8,2.77-1.55,4.14-2.34s2.71-1.55,4.09-2.29,2.74-1.52,4.11-2.28,2.8-1.53,4.23-2.26,2.7-1.4,4.05-2.12,2.77-1.57,4.14-2.37,2.77-1.66,4.15-2.52,2.67-1.62,4-2.43c1.17-.71,2.35-1.43,3.57-2,.53-.27,1.05-.54,1.59-.78s1.32-.62,2-.87a1.43,1.43,0,0,0,.77-.85,1.46,1.46,0,0,0-.06-1.14,1.5,1.5,0,0,0-.85-.77,1.29,1.29,0,0,0-.46-.09,2.18,2.18,0,0,0-.69.14Z"/><path class="cls-1" d="M334.68,144c-2.76,1.24-5.43,2.68-8.11,4.08-1.43.75-2.86,1.48-4.28,2.23s-2.79,1.4-4.17,2.14c-2.75,1.46-5.48,2.94-8.28,4.3s-5.74,2.86-8.56,4.38c-1.34.73-2.7,1.41-4.06,2.11s-3,1.57-4.48,2.37-2.69,1.47-4,2.21-2.93,1.6-4.37,2.44-2.95,1.81-4.47,2.64-3.05,1.57-4.58,2.34a1.5,1.5,0,1,0,1.28,2.71c1.42-.71,2.84-1.4,4.23-2.15s2.77-1.61,4.14-2.43,2.73-1.57,4.11-2.32,2.78-1.56,4.18-2.31c2.8-1.5,5.63-2.94,8.44-4.42l4.24-2.25c1.44-.77,2.91-1.48,4.37-2.21s2.81-1.36,4.2-2.08,2.76-1.46,4.13-2.2,2.73-1.42,4.11-2.12c.69-.35,1.36-.72,2-1.07l2.27-1.16c3-1.53,5.89-3.15,8.93-4.52a1.49,1.49,0,0,0,.71-2,1.47,1.47,0,0,0-1.36-.85,1.55,1.55,0,0,0-.63.13Z"/><path class="cls-1" d="M73.64,43.09a12,12,0,0,0-2.75,1.54,12.8,12.8,0,0,0-2.4,2.53A24.72,24.72,0,0,0,65.36,53,22.37,22.37,0,0,0,64,59,30.47,30.47,0,0,0,64,62.35c0,1,.06,2,.15,3s.2,2.13.4,3.19.45,2,.69,3,.52,2.22.84,3.32a13.77,13.77,0,0,0,1.23,2.81,18.46,18.46,0,0,0,2,2.81c.43.5.93,1,1.4,1.43a9.18,9.18,0,0,0,1.19.95,19.25,19.25,0,0,0,6.38,3,13.12,13.12,0,0,0,1.39.27,13.66,13.66,0,0,0,1.69.08,17.29,17.29,0,0,0,3.37-.36A30.65,30.65,0,0,0,89,84.56c.64-.22,1.26-.46,1.89-.69a16,16,0,0,0,1.75-.65A15.42,15.42,0,0,0,96,80.85a21.25,21.25,0,0,0,1.63-1.52A10.33,10.33,0,0,0,99,77.5a2.16,2.16,0,0,0,.39-1.5,2,2,0,0,0-.76-1.3,2,2,0,0,0-1.51-.39,1.93,1.93,0,0,0-1.3.76,10.39,10.39,0,0,1-1.25,1.76,21.51,21.51,0,0,1-3.12,2.52,22.64,22.64,0,0,1-2.77,1.07c-1.07.39-2.14.78-3.23,1.1a19.16,19.16,0,0,1-4,.68,9.17,9.17,0,0,1-1.17-.06c-.45-.06-.9-.14-1.34-.24a11.91,11.91,0,0,1-1.65-.57c-.57-.26-1.13-.54-1.68-.85A15.55,15.55,0,0,1,73,78.56a18,18,0,0,1-2.13-2.71c-.23-.44-.46-.88-.66-1.34a11.63,11.63,0,0,1-.46-1.29c-.23-.89-.43-1.8-.65-2.69s-.49-2-.68-3a24.51,24.51,0,0,1-.32-2.83c-.07-.94-.11-1.87-.14-2.81S68,60,68.05,59a20.17,20.17,0,0,1,.47-2.78,23.88,23.88,0,0,1,2-4.86,19.64,19.64,0,0,1,2.1-2.94A10.68,10.68,0,0,1,74,47.33a16.86,16.86,0,0,1,3-1.18,9.38,9.38,0,0,1,1.67-.27,21.33,21.33,0,0,1,4.49.71,30.62,30.62,0,0,1,3.06,1,26,26,0,0,1,3,1.51L89,49l1.53.85a31.41,31.41,0,0,1,2.71,1.9,2,2,0,0,0,2.43-3.18c-.7-.53-1.4-1.05-2.12-1.54s-1.47-.86-2.21-1.26a28,28,0,0,0-5.43-2.55c-1-.33-2.11-.6-3.19-.83a23,23,0,0,0-3-.5l-.74,0a13.81,13.81,0,0,0-5.32,1.21Zm-3.2,8.4-.13.23.13-.23Z"/><path class="cls-1" d="M96.16,63.39c-.38.11-.77.2-1.16.3a17.06,17.06,0,0,1-2.54.43c-1,.08-2,.08-2.95.11a1.89,1.89,0,0,0-1.3.76,2,2,0,0,0-.39,1.51,2,2,0,0,0,.76,1.3,2.23,2.23,0,0,0,1.5.39,38.92,38.92,0,0,0,4-.23,14.43,14.43,0,0,0,1.82-.4l.17,0a23.91,23.91,0,0,0,.5,3.76c.33,1.52.78,3,1.11,4.54s.54,3.28.77,4.93c.11.76.25,1.52.38,2.27a18,18,0,0,0,.67,3.08,2,2,0,0,0,2.62,1.06,2,2,0,0,0,1.06-2.63l0-.07c-.14-.67-.24-1.35-.36-2s-.25-1.46-.37-2.19c-.23-1.59-.4-3.18-.73-4.75s-.74-3-1.09-4.48a22.64,22.64,0,0,1-.59-4.26l0-1.05a2.5,2.5,0,0,0-1.53-2.37,2.2,2.2,0,0,0-.91-.17,6.1,6.1,0,0,0-1.42.22Zm-.08,3.11v0Z"/><path class="cls-1" d="M117.13,45.33a36.68,36.68,0,0,0,.05,6.71c.23,2.08.47,4.16.66,6.24s.41,4.06.63,6.09c.11,1,.16,2,.29,3s.26,1.95.36,2.93.14,1.81.27,2.7c.06.47.15,1,.22,1.42s.08,1.07.19,1.6a2.07,2.07,0,0,0,.77,1.3,2,2,0,0,0,1.5.39,2,2,0,0,0,1.69-2.27c-.1-.47-.09-1-.17-1.44s-.17-1-.24-1.58c-.13-.92-.2-1.85-.28-2.77s-.24-2-.38-3-.18-2-.28-3c-.22-2-.44-4-.62-6s-.44-4.18-.67-6.28c-.08-.72-.13-1.44-.15-2.17,0-1.11,0-2.21.13-3.32a2,2,0,0,0-1.76-2.22h-.21a2,2,0,0,0-2,1.77Z"/><path class="cls-1" d="M175.1,40.35l-1.57.19c-1,.12-2,.25-3,.34-2,.19-3.9.27-5.85.34s-4.13.22-6.19.45-4.2.5-6.32.57c-2.92.1-5.84.46-8.76.6a1.94,1.94,0,0,0-1.3.77,2,2,0,0,0-.39,1.5,2,2,0,0,0,.76,1.3,2.14,2.14,0,0,0,1.51.39c2.23-.11,4.46-.32,6.69-.49,1-.07,1.9-.11,2.85-.14s2.1-.15,3.15-.27c2.06-.24,4.12-.48,6.18-.61s4.05-.16,6.07-.27c1.3-.08,2.6-.22,3.89-.37s2.41-.34,3.63-.4h.12a2,2,0,1,0,.46-4,5.63,5.63,0,0,0-.58,0c-.45,0-.9.05-1.34.09Zm1.25,3.89h0Z"/><path class="cls-1" d="M162.9,43.28a2,2,0,0,0-1.3.77,2.11,2.11,0,0,0-.39,1.5c0,.31,0,.62,0,.94,0,1,0,2-.15,3.06s-.3,2-.44,3a56.38,56.38,0,0,0-.58,5.8,45.91,45.91,0,0,0,.18,6.42c.1,1,.19,2,.25,3s.08,2.17.12,3.26c0,.55.07,1.1.09,1.66,0,.32,0,.64,0,1a2,2,0,0,0,4,.46,30.69,30.69,0,0,0-.07-3.59c-.07-1.17-.07-2.34-.13-3.51-.12-2-.39-4.09-.45-6.15a49.37,49.37,0,0,1,.53-7.29c.2-1.33.43-2.65.57-4a34.64,34.64,0,0,0,.08-4.67,2,2,0,0,0-.77-1.3,2,2,0,0,0-1.21-.41l-.29,0Zm-1.67,3.52V47c0-.05,0-.1,0-.16Z"/><path class="cls-1" d="M196.4,39.84a2,2,0,0,0-1.3.76,2.14,2.14,0,0,0-.39,1.51c.06,1.13.15,2.28.18,3.42,0,1.88-.08,3.77-.15,5.65s-.08,4-.21,6c-.06.91-.18,1.83-.27,2.75S194.1,62,194,63.06l-.21,3.2a16.54,16.54,0,0,0,.05,3.3c0,.28.08.56.13.84a4.72,4.72,0,0,0,.37,1.61,2.18,2.18,0,0,0,1.09,1.07,2.05,2.05,0,0,0,1.54,0A2,2,0,0,0,198.07,72a1.9,1.9,0,0,0,0-1.53l0,0a19.21,19.21,0,0,1-.27-2.39c0-.86.07-1.72.13-2.58.08-1.09.12-2.17.2-3.25.13-2,.43-4,.47-6,0-1,.08-2,.1-3s.07-2,.1-3c.06-2.14.15-4.26,0-6.4,0-.76-.09-1.52-.13-2.28a2,2,0,0,0-.76-1.3,2,2,0,0,0-1.22-.41,1.42,1.42,0,0,0-.29,0Zm1.52,30.27.05.17a.84.84,0,0,1-.05-.17Z"/><path class="cls-1" d="M196.24,57.33A2,2,0,0,0,198,59.55c1.21.12,2.42.25,3.64.35a31.8,31.8,0,0,0,3.52,0c.88,0,1.77,0,2.64.07s1.95.24,2.93.41a22.66,22.66,0,0,0,2.61.3c.56,0,1.12,0,1.68,0a8.14,8.14,0,0,0,1.64-.15,2.13,2.13,0,0,0,1.3-.77,2,2,0,0,0-.37-2.8,1.94,1.94,0,0,0-1.5-.4,6.16,6.16,0,0,1-1.36.15,29.27,29.27,0,0,1-4.75-.53,26.94,26.94,0,0,0-5.31-.25h0c-.91,0-1.82,0-2.72-.07-1.16-.09-2.31-.22-3.47-.34h-.21a2,2,0,0,0-2,1.77Zm9.3,2.6h0Zm-.9-4h0Z"/><path class="cls-1" d="M218.46,42.41a2.15,2.15,0,0,0-.76,1.35c-.3,1.68-.62,3.35-.86,5s-.4,3.06-.55,4.59-.27,3.24-.27,4.86.08,3.14.12,4.71a1.21,1.21,0,0,1,0-.19c0,.14,0,.28,0,.42v.09c0,.3,0,.6,0,.9v.12c0,.26,0,.53,0,.8,0,1.21,0,2.4-.11,3.61-.12,1.53-.16,3-.13,4.59,0-.18,0-.35,0-.52,0,.66,0,1.32.05,2a2,2,0,0,0,2.27,1.69,2.07,2.07,0,0,0,1.3-.77,2.1,2.1,0,0,0,.39-1.5l0-.48c0-.33,0-.66,0-1,0-1.4.08-2.78.19-4.17s.07-2.81,0-4.21v.2c0-.43,0-.86,0-1.28v0c0-.14,0-.27,0-.41V63c0-1.27-.07-2.54-.1-3.81a66,66,0,0,1,.45-7.17c.29-2.62.75-5.2,1.22-7.78A2,2,0,0,0,219.92,42l-.23,0a2,2,0,0,0-1.23.42Zm1.65,20.87h0Zm-3.94,1.88c0,.09,0,.19,0,.28,0-.09,0-.19,0-.28Zm3.73,8.67v0Zm-3.74-9.54v0Zm0-.7c0-.11,0-.21,0-.32v0c0,.12,0,.23,0,.35Zm0-.37Zm0,0v0Zm0,0v0Zm0,0h0v0Zm0-.08v0Zm0,.09v0Z"/><path class="cls-1" d="M236.68,46.35a2.21,2.21,0,0,0-.77,1.36A43,43,0,0,0,234.78,54c-.15,2-.27,3.92-.43,5.88-.08,1-.14,2-.18,3,0,1.21,0,2.42.06,3.63,0,1,.05,2.05.14,3.07a12,12,0,0,0,.17,1.34c.09.41.19.81.32,1.22a6,6,0,0,0,.81,1.55A10,10,0,0,0,238,76.1a8.63,8.63,0,0,0,1.49.89,9.53,9.53,0,0,0,2.11.71,5.36,5.36,0,0,0,1.6,0l.56-.09a6.62,6.62,0,0,0,1.68-.55A10.39,10.39,0,0,0,248.29,75a13.42,13.42,0,0,0,2-2.45,26.4,26.4,0,0,0,1.6-3A40.24,40.24,0,0,0,254,63.6a39.13,39.13,0,0,0,1.24-7.05c.08-1,.21-2.06.33-3.08.07-.59.14-1.18.23-1.76s.2-1.08.22-1.62a2.06,2.06,0,0,0-.4-1.46,2,2,0,0,0-3.57,1,13.45,13.45,0,0,1-.22,1.55c-.08.55-.14,1.1-.21,1.65-.12,1-.26,2-.34,3.06s-.2,2.06-.35,3.08-.38,2.08-.63,3.11a37.69,37.69,0,0,1-3,7.82,13.1,13.1,0,0,1-1.68,2.24c-.18.17-.36.35-.55.5s-.66.48-1,.71-.48.23-.74.33-.44.08-.66.1a5,5,0,0,1-.56-.07,7.89,7.89,0,0,1-1.19-.51,10.69,10.69,0,0,1-1.13-.88,8.41,8.41,0,0,1-.95-1.19,4.93,4.93,0,0,1-.22-.53,17.91,17.91,0,0,1-.32-3.1c-.05-1.09-.07-2.19-.09-3.28,0-2.54.3-5.07.46-7.61.09-1.38.15-2.76.37-4.14s.58-2.87.91-4.31a1.9,1.9,0,0,0-.41-1.45,2,2,0,0,0-1.35-.76l-.23,0a2,2,0,0,0-1.22.42Zm9.24,25.43c-.11.11-.22.21-.32.32.1-.11.21-.21.32-.32Z"/><path class="cls-1" d="M266.76,50c-.09,2.1-.32,4.19-.6,6.28-.26,1.93-.45,3.86-.72,5.78s-.61,4-.95,5.91-.71,4-.93,6c-.06.54-.11,1.08-.16,1.61s-.14,1.09-.16,1.64a2.2,2.2,0,0,0,.41,1.45,2,2,0,0,0,2.8.36,1.9,1.9,0,0,0,.77-1.35c0-.48.08-1,.13-1.42s.09-1,.14-1.47c.11-1,.23-1.94.39-2.91.31-2,.71-4,1-6s.61-4,.87-6,.48-3.88.7-5.82c.13-1.19.22-2.37.27-3.56a2.08,2.08,0,0,0-.41-1.45,2,2,0,0,0-1.35-.77h-.21a2,2,0,0,0-2,1.77Z"/><path class="cls-1" d="M272.11,48.51a21,21,0,0,0-3.91.72,2.13,2.13,0,0,0-1.3.76,2,2,0,0,0-.39,1.51,2,2,0,0,0,2.27,1.68c.68-.15,1.35-.31,2-.45a12.45,12.45,0,0,1,2.28-.27,16.05,16.05,0,0,1,3.24.27,6.52,6.52,0,0,1,.73.29,6.41,6.41,0,0,1,.52.39,9.27,9.27,0,0,1,.78,1,5.87,5.87,0,0,1,.36.81,10.33,10.33,0,0,1,.18,1.36,12.33,12.33,0,0,1-.32,2.18,11.73,11.73,0,0,1-.85,2.15,10.68,10.68,0,0,1-.63.87,9.23,9.23,0,0,1-1.3.92,13.61,13.61,0,0,1-2.19,1,12.9,12.9,0,0,1-1.39.19h-.86a4.73,4.73,0,0,0-1.75.29,2.83,2.83,0,0,0-.9.46,2.31,2.31,0,0,0-.69.89,2.22,2.22,0,0,0-.14,1.11,1.91,1.91,0,0,0,.44,1,2.13,2.13,0,0,0,1.44.79,10.47,10.47,0,0,0,2.09-.25c1-.22,2-.41,3.07-.58a25.21,25.21,0,0,1,2.58-.31,19.48,19.48,0,0,1,3.23.46c.48.15.95.31,1.41.5a10.39,10.39,0,0,1,1.38.68,11.23,11.23,0,0,1,1.35,1,6.24,6.24,0,0,1,.51.67c.09.17.16.34.23.51s0,.21,0,.32a6.42,6.42,0,0,1-.12.88,7.55,7.55,0,0,1-.39,1A10.58,10.58,0,0,1,284,74.76a12,12,0,0,1-1.61,1.31,10.77,10.77,0,0,1-1.68.69c-1,.25-1.94.47-2.91.7a17.81,17.81,0,0,1-2.87.51,35.46,35.46,0,0,1-4.08-.69c-1.34-.23-2.66-.49-4-.8a3.53,3.53,0,0,1-.46-.15,2,2,0,0,0-1.31-.28,2,2,0,0,0-1.31.76,2.09,2.09,0,0,0-.39,1.51,2,2,0,0,0,.77,1.3,4.81,4.81,0,0,0,1.39.62c.35.1.7.19,1.06.27l1.45.32c1,.2,2,.35,3,.55a21.45,21.45,0,0,0,3.07.54,11.79,11.79,0,0,0,3.45-.32c1-.22,1.91-.43,2.86-.67a15.16,15.16,0,0,0,3.09-1A11,11,0,0,0,286,78.26a12.83,12.83,0,0,0,2-2.19,8.73,8.73,0,0,0,1.45-3.42,7.46,7.46,0,0,0,.11-1,5.31,5.31,0,0,0-.95-3.33,5.43,5.43,0,0,0-.73-1,11.81,11.81,0,0,0-1.34-1.21,12.42,12.42,0,0,0-1.56-.94,12.76,12.76,0,0,0-2.63-1.14c-.58-.18-1.15-.32-1.73-.44a10.63,10.63,0,0,0,1.45-2.92,11.72,11.72,0,0,0,.46-6.37,8.37,8.37,0,0,0-2.75-4.27,6.48,6.48,0,0,0-1.52-.9,7.26,7.26,0,0,0-1.53-.44,10.41,10.41,0,0,0-1.57-.22c-.59,0-1.18,0-1.77,0l-1.36,0Zm.51,15.4h0ZM267,76.52l.14,0-.14,0Z"/><path class="cls-1" d="M24.65,50.07l-3.84,1.59a29.06,29.06,0,0,0-3.46,1.68c-1.25.74-2.44,1.53-3.62,2.37s-2.07,1.55-3.09,2.35a1.75,1.75,0,1,0,2.19,2.72c1.81-1.41,3.64-2.79,5.57-4a28.67,28.67,0,0,1,3.22-1.64c1.47-.62,2.95-1.23,4.42-1.83A1.78,1.78,0,0,0,27,51a1.76,1.76,0,0,0-1.62-1,1.79,1.79,0,0,0-.68.13Zm-6.38,6.76-.15.09.15-.09Z"/><path class="cls-1" d="M40.36,57.64c-.93.21-1.87.38-2.79.62a29.11,29.11,0,0,0-2.92.92c-1.72.65-3.38,1.4-5,2.17s-3.39,1.62-5.1,2.42L19.69,66a57.79,57.79,0,0,0-5.87,3A54.56,54.56,0,0,0,8.6,72.52a1.75,1.75,0,0,0,2.2,2.73c1.46-1.11,3-2.17,4.51-3.14s3.14-1.72,4.77-2.47S23.37,68.17,25,67.4s3.38-1.59,5.07-2.4,3.35-1.58,5.07-2.26c.86-.34,1.71-.65,2.58-.92,1.05-.27,2.11-.48,3.17-.72a1.87,1.87,0,0,0,1.16-.7,1.77,1.77,0,0,0-1.38-2.79l-.31,0Z"/><path class="cls-1" d="M25.57,77.91l-2.15.93c-.65.27-1.32.54-1.94.87-1.28.68-2.53,1.39-3.76,2.14s-2.55,1.52-3.81,2.32-2.28,1.51-3.41,2.29a1.75,1.75,0,0,0,.92,3.1,1.84,1.84,0,0,0,1.28-.38c1.49-1,3-2,4.52-3l2.91-1.76c1.05-.62,2.12-1.22,3.22-1.75s2.42-1,3.62-1.57a1.75,1.75,0,0,0-.72-3.35,1.63,1.63,0,0,0-.68.14Zm-5.19,6.37-.1.07.1-.07Zm-3.22,2-.17.1.17-.1Z"/><path class="cls-1" d="M26.29,94c-2.68,1.14-5.28,2.45-7.94,3.63-1.29.57-2.55,1.22-3.8,1.86a37.09,37.09,0,0,0-4.05,2.35,1.75,1.75,0,0,0,.91,3.1,1.88,1.88,0,0,0,1.29-.38l.84-.55c1-.59,2-1.13,3.08-1.64,1.2-.59,2.38-1.2,3.6-1.74s2.4-1.13,3.6-1.69,2.56-1.18,3.86-1.73A1.75,1.75,0,0,0,27,93.89a1.8,1.8,0,0,0-.68.14Z"/><path class="cls-1" d="M336.94,54.1a1.75,1.75,0,0,0-.19,3.23c1.64.64,3.28,1.28,4.89,2s3.19,1.51,4.76,2.33c2.94,1.54,5.86,3.13,8.69,4.86.31.2.61.42.91.64a1.78,1.78,0,0,0,2.47-.2,1.75,1.75,0,0,0-.2-2.46,43.34,43.34,0,0,0-5-3.09c-1.53-.86-3.08-1.71-4.64-2.53s-3.25-1.7-4.92-2.45-3.61-1.52-5.44-2.24a2,2,0,0,0-.79-.17,1.7,1.7,0,0,0-.54.09Z"/><path class="cls-1" d="M328.41,66.51a1.75,1.75,0,0,0,.81,2.33c1.84.76,3.67,1.51,5.52,2.24s3.39,1.49,5.07,2.29,3.2,1.47,4.79,2.21,3.33,1.63,4.95,2.53c1.27.71,2.51,1.48,3.73,2.26l.47.31a1.92,1.92,0,0,0,1.26.42,1.74,1.74,0,0,0,1.21-.61,1.79,1.79,0,0,0,.42-1.25A1.74,1.74,0,0,0,356,78c-1.66-1.1-3.35-2.17-5.09-3.14s-3.23-1.72-4.89-2.49-3.2-1.46-4.79-2.21-3.4-1.62-5.15-2.31-3.58-1.44-5.37-2.18a2,2,0,0,0-.76-.15,1.69,1.69,0,0,0-1.57,1Z"/><path class="cls-1" d="M337.23,84.21a1.76,1.76,0,0,0,.81,2.34c2.42,1.07,4.85,2.07,7.16,3.36,1.12.62,2.23,1.28,3.36,1.91s2.18,1.23,3.24,1.9l.09.06a1.91,1.91,0,0,0,1.25.42,1.78,1.78,0,0,0,1.22-.61,1.75,1.75,0,0,0,.42-1.25,1.72,1.72,0,0,0-.61-1.22c-1.21-.81-2.46-1.55-3.72-2.25s-2.34-1.34-3.52-2-2.29-1.22-3.47-1.77-2.6-1.13-3.89-1.7a1.89,1.89,0,0,0-.76-.16,1.74,1.74,0,0,0-1.58,1Z"/><path class="cls-1" d="M333.62,98.68a1.82,1.82,0,0,0-1,.89,1.76,1.76,0,0,0,.82,2.34c2,.81,4.08,1.6,6,2.6,1.76.9,3.5,1.85,5.18,2.9,1,.68,2,1.37,3,2.11a21.9,21.9,0,0,1,2.82,2.36,1.64,1.64,0,0,0,1.25.42,1.74,1.74,0,0,0,1.63-1.86,1.84,1.84,0,0,0-.61-1.22,15.61,15.61,0,0,0-1.83-1.61c-.65-.51-1.32-1-2-1.49-1.42-1-2.85-2-4.35-2.84s-3-1.66-4.53-2.42-3.35-1.43-5-2.1a2.08,2.08,0,0,0-.79-.17,1.81,1.81,0,0,0-.55.09Z"/><path class="cls-1" d="M332.16,112.58a1.72,1.72,0,0,0-1,.89,1.78,1.78,0,0,0-.08,1.34,1.69,1.69,0,0,0,.89,1c1.2.43,2.39.87,3.58,1.34s2.28,1,3.39,1.62,2.07,1.13,3.1,1.7,2,1.13,3,1.73a43.06,43.06,0,0,1,3.49,2.68c.51.43,1,.86,1.57,1.28s1.31,1.1,2,1.61a1.86,1.86,0,0,0,1.25.42,1.8,1.8,0,0,0,1.22-.61,1.76,1.76,0,0,0-.2-2.47c-.77-.57-1.48-1.21-2.24-1.8s-1.31-1.08-2-1.63a35.85,35.85,0,0,0-4.71-3.3c-.76-.45-1.54-.87-2.31-1.31s-1.61-.92-2.44-1.34a51,51,0,0,0-5.23-2.36c-.65-.25-1.31-.48-1.95-.71a2.45,2.45,0,0,0-.81-.17,1.41,1.41,0,0,0-.53.09Z"/></g></g></svg>