<svg xmlns="http://www.w3.org/2000/svg" viewBox="0 0 240.9 269.1" xmlns:v="https://vecta.io/nano"><g fill="#2c2c2c"><path d="M126.9 32h-5c-.6 0-1.1.1-1.7.1h-1.6c-.4 0-.9.1-1.3.2h-.2c-.6.1-1.3.1-1.9.1-.7 0-1.4.1-2 .2-.5.1-1 .1-1.4.1l-1.1.1-1.6.3-.7.1-.5.1-1.7.3-.6.1-.3.1-.7.2h-.4l-1.5.3h-.3l-.9.2-1.2.3c-.6.2-1.3.3-2.2.5-.3 0-.7.1-1.1.2l-1 .3h-.1l-1 .3c-.3.1-.7.2-1.1.4-.8.3-1.7.7-2.4 1.1l-1.6.9c-.5.3-1.2.5-1.8.7-.3.1-.6.3-1 .4-1 .4-1.9.8-2.9 1h-.2l-1.4.4c-.6.2-1.2.4-1.7.7l-1.4.7-1.5.7-.6.2c-.4.2-.8.3-1.1.5-.6.3-1.3.6-1.8 1l-.6.4c-.3.2-.7.4-1 .7-.4.2-.8.5-1.2.7l-.8.4c-.6.3-1.3.7-1.9 1.1l-1.8 1.7-3.1 2.5-.4.4-.7.6c-.4.3-.7.6-1 .9-.5.5-1 1-1.6 1.4-.7.5-1.3 1.1-1.9 1.7l-2.3 2.3c-.2.2-.4.4-.5.6l-.1.1-.6.8-.9 1.1c-.6.7-1.1 1.4-1.6 2.2l-.6 1-.4.6-.3.6-.6 1v.1l-.4.6-.3.5-.2.4-.9 1.5-.1.2c-.2.3-.4.6-.5.9-.2.4-.4.8-.5 1.3l-.1.2v-.1c-.1.2-.2.5-.3.7-.2.4-.3.8-.4 1.1-.1.4-.2.4-.3.6s-.3.5-.4.8l-.4 1.1c0 .1-.1.3-.1.5l-.2.6c-.1.2-.1.4-.2.6l-.6 1.4-.1.1-.4.9-.3 1-.1.2c-.1.4-.2.8-.4 1.3-.1.2-.1.5-.2.7l-.6 1.7-.1.5-.6 1.6-.4 1.1-.3 1-.6 2.2-.3 1.5c0 .3-.1.6-.1.8-.1.3-.1.6-.1 1 0 .3-.1.9-.2 1.4-.1.7-.3 1.5-.3 2.3-.2 1.6-.2 3.2-.3 4.7v.6c0 .6-.1 1.1-.1 1.7v4.3l.1 2.3v2.1c0 .6 0 1.2.1 1.9.1 1.1.3 2.3.5 3.4l.1.6v.3l.4 2.2c.1.5.2 1.1.4 1.6.1.3.1.5.2.8l.5 2.6c.1.7.3 1.4.4 2l1 4.5 1.4 4.4 1.2 2.8.1.2 1 2.2.6 1.1.5.9.6 1.3.3.7c.1.2.2.4.4.6l.2.4.5.9.1.1c.3.6.7 1.1 1.1 1.9l.6 1c.2.4.4.6.6 1l1.2 2a22.63 22.63 0 0 0 1.3 2c.6.9 1.4 1.7 2.1 2.4l.9 1c.4.4.8.9 1.1 1.3l.4.4c.5.6 1.1 1.1 1.6 1.6l1.7 1.6.1.1 1.7 1.6 1.8 1.6.8.6 1 .8c.3.3.6.5.9.8l.9.8 1.8 1.4.9.6.9.7.5.4 1.5 1.1c.5.4 1.3.8 2 1.3l2 1c.1.1.2.1.4.2l.5.3c.3.1.6.3.8.4l.3.1a11.94 11.94 0 0 1 1.6.8l.2.1 2.7 1.3c.3.2.7.3 1.1.4l.6.3 2.4.9c.3.1.7.3 1 .4.4.1.9.3 1.3.4l.7.2.4.1c.5.2 1.1.3 1.6.4a16.69 16.69 0 0 1 1.8.5l.2.1 1.6.7 1.1.5c.1 0 .2.1.3.1h.1v.1c0 .4.4.8.8.8h0c.5 0 .8-.4.8-.9l-.1-3.1v-5.4l.1-2.9V175c0-.2.1-.5.1-.7s.1-.4.1-.6v-.8c0-.2.1-.4.1-.6 0-.4-.3-.8-.7-1-.2-.1-.5-.1-.7-.1h-.2c-.4 0-.8.1-1.2.2h-.2c-.6.1-1.3.2-1.9.2h0c-.3 0-.6 0-.9.1l-.5.1-.2.1c-.2.1-.5.2-.7.2h-4.8c-.5-.1-1.1-.1-1.7-.2s-1.2-.3-1.8-.5c-.5-.2-.9-.4-1.3-.7-.8-.5-1.6-1.2-2.3-1.9l-1.5-2.3a4.67 4.67 0 0 1-.5-1c0-.1-.1-.1-.1-.2l-.6-1.3-.1-.2-1.2-2.7-.4-.8c-.1-.3-.3-.6-.4-.9s-.2-.6-.4-.8c-.1-.3-.4-.8-.6-1.1s-.3-.6-.4-.9-.2-.5-.3-.7l-1-2.2-.7-1-.2-.3-1.1-1.4c-.4-.4-.6-.7-1-1h0l-1-1c-.4-.4-.8-.7-1.2-1l-1.5-1 .2.1-.2-.1c-.2-.1-.3-.2-.5-.4.1-.3.3-.6.5-.9h.1l.2-.1h.4c.2 0 .4.1.6.1l1.1.6c.3.2.6.4.9.7s.6.5 1 .7l.3.2.5.4.6.3 2.1 1.8c.3.2.5.5.7.8l.9.9.6.7.3.3c.6.7 1.2 1.4 1.9 2l1.2 1.2 1.5 1.1 1.1.6c.4.2.9.4 1.4.6.9.4 1.9.7 2.9 1l1.2.3.8.1.7.1 1.5.3c.4 0 .8.1 1.2.1h.3c.5 0 .9.1 1.3.2h.2c.6.1 1.3.2 1.8.2l.9.1h.7c.2 0 .5-.1.7-.1.3-.1.6-.3.8-.5l.3-.3c.2-.3.4-.6.5-.9l.5-1.1.3-.6c.2-.5.5-1 .8-1.5.3-.7.7-1.3 1.1-2 .3-.3.5-.7.8-1.1.3-.5.7-.9 1.1-1.4a5.73 5.73 0 0 1 1.1-1.1c.2-.2.5-.3.8-.5h.1c.2-.1.5-.3.7-.4l.3-.2 1.6-.9h.2l.1-.1c.1-.1.3-.1.4-.2.1 0 .3 0 .4-.1.6-.2 1-.8.8-1.4v-.1c0-.1-.1-.2-.1-.3l-.3-.3a.89.89 0 0 0-.6-1l-.3-.1-1.3-.3-.9-.3-.5-.2c-.6-.2-1.1-.3-1.7-.4-.4-.1-.8-.1-1.1-.2l-.3-.1c-.4-.1-.7-.2-1.1-.2l-.5-.1c-.4-.1-.7-.1-1.1-.2s-.9-.2-1.4-.4l-1.5-.5-.9-.2-.4-.1c-.4-.1-.8-.2-1.3-.4-1-.4-1.9-.9-2.8-1.4-1-.6-2-1.3-2.9-2l-.3-.2-1.9-1.4-2.4-2-.3-.2c-.3-.2-.5-.5-.8-.7l-.4-.3c-.3-.2-.6-.5-.8-.7-.7-.6-1.3-1.3-1.9-1.9l-.6-.7a3.04 3.04 0 0 1-.5-.7c-.3-.4-.7-.8-1-1.2l-.4-.4c-.3-.3-.6-.7-.8-1l-.9-1.5-1.3-2.7c-.7-1.6-1.3-3.3-1.7-5l-1.1-4.8c-.1-.4-.1-.8-.1-1.1s0-.7-.1-1.1v-.2c-.1-.8-.1-1.7 0-2.5.1-1.1.3-2.2.6-3.2v-.1c.2-1.1.5-2.2.8-3.2.3-.7.5-1.3.6-1.9l.1-.4c.1-.5.3-1 .5-1.5.1-.3.3-.7.4-1a3.04 3.04 0 0 1 .5-.7c.4-.6.9-1.1 1.2-1.5l.3-.3c.3-.3.6-.7.9-1.1.4-.6.8-1.1 1.2-1.5l.1-.1c.3-.3.5-.6.8-.9l.4-.3.1-.1.2-.1c.3-.2.5-.4.6-.6.2-.4.3-.8.2-1.3-.1-.1-.1-.3-.2-.4l-.3-.6c-.1-.2-.1-.4-.2-.6v-.2c-.1-.5-.1-.9-.2-1.4s-.1-.8-.1-1.2l-.3-2.5v-5.4l.4-2.6.2-.8c.1-.6.3-1.2.5-1.7l.2-.7c.1-.2.1-.4.2-.6s.1-.4.2-.5.1-.3.2-.4l.6-1.1.4-.4.2-.1h1.8l1 .1c.3 0 .6.1.9.2l1.4.7c.3.2.7.3 1 .4h.2l.4.1c.2.1.3.1.5.2l.6.3h.1l1.1.6c.4.2.7.4 1.1.5l1.1.6.3.2c.3.3.7.5 1 .7l.3.2.2.1c.2.1.4.2.5.3h0c.2.1.4.3.6.4l.5.4.3.3.5.3c.2.1.4.3.6.4l.4.3c.4.3.8.7 1.1 1l.4.4c.2.2.4.3.6.3h.7c.2 0 .4-.1.5-.2h0s.1-.1.2-.1c.1-.1.3-.1.4-.2l.3-.2c.2-.1.4-.1.6-.2.5-.1.9-.1 1.3-.1h3.2c.5 0 1-.1 1.6-.2.5-.1 1-.1 1.4-.1h2.4c.6.1 1.3.1 1.9.2l2 .1h-.1c.4 0 .8 0 1.4.1s.8 0 1.1 0h2.5c.4.1.8.1 1.1.1h3.2l.6.1.4.1.3.1c.4.1.8.1 1.2.1h.2a.9.9 0 0 1 .5.1h.2c.4.1.8.1 1.1.1s.5.1.8.1l.4.2c.1.1.3.1.4.1.2 0 .4.1.7.1h.3c.2 0 .4.1.6.1l.5.1c.4.1.8.1 1.1.1h.6c.2.2.5.3.7.4h.8c.1 0 .3-.1.4-.1h.1l.4-.2h.1c.4-.3.8-.6 1.1-1l.2-.2c.1-.1.2-.3.3-.4l.3-.3c.7-.6 1.5-1.1 2.3-1.5l1.9-.7c.6-.2 1.3-.5 1.9-.8l.4-.2 1.5-.6.6-.3c.4-.2.8-.3 1.2-.4l1.1-.4h.1l1.2-.4.8-.4.3-.1c.7-.3 1.4-.5 2.2-.6l1.1-.1h1.2l.6.1h1.3l.2.1c.1.1.2.2.4.3 0 .1.1.2.1.4s.1.4.1.5l.1.2c0 .1 0 .2.1.2.1.1.1.4.2.6v.2l.2 2.3c0 .4 0 .8.1 1.1s0 1 0 1.5l.1 2.6c.1.8.1 1.6.1 2.5v.5c0 .3-.1.7-.1 1l-.1.4-.1.6c0 .3-.1.6-.1.9-.1.6-.1 1.2-.1 1.8v1.7l-.1.3v.2-.3.5c0 .2 0 .4.1.6.1.3.3.6.6.8l.8.8.9 1.3c.1.2.2.4.4.6l.6 1.1 1.2 2.4.4.9.7 1.7c.2.5.4 1.2.6 1.9l.1.3c.4 1.3.7 2.7.9 4 0 .2.1.3.1.5.1.4.1.9.2 1.3v.5c0 .4.1.8.1 1.2l.1.8c0 .3 0 .5.1.8.1.2.1.7.1 1.1.1.7.1 1.3 0 2l-.3 2.4c-.1.4-.1.7-.2 1.1v.5c-.1.4-.1.7-.2 1.1s-.3.8-.4 1.2l-.4 1.4c-.1.3-.2.6-.2 1-.1.3-.2.8-.3 1.1-.1.2-.2.5-.3.7l-.2.3-.2.4c0 .1-.1.2-.1.3-.1.2-.2.3-.3.5l-.7 1-.3.4c-.2.2-.3.5-.5.7l-.3.5c-.2.2-.3.4-.5.6s-.3.5-.5.7l-.1.1-1.3 1.7c-.3.3-.5.6-.8.9-.2.2-.4.4-.6.5l-.2.2-.8.6-.8.5-.4.2c-.4.2-.7.5-1.1.7l-.3.2-1.2.9-.5.4c-.2.2-.4.4-.7.5-.2.2-.7.5-1.1.7l-.1.1-2.9 1.5c-.4.2-.9.4-1.3.7s-.7.4-1.1.6l-.3.1-1.4.6h-.1l-.7.3-.2.1-.9.3h-.8c-.3 0-.6.1-.9.1h-.1c-.4 0-.8.1-1.1.2s-.6.2-.8.4l-.2.1-1 .3c-.3 0-.5.1-.8.1h.1l-.6.1-.3.1-.5.1-.4.1-.9.1-.5.1h-.2l-.4.1c-.1 0-.1 0-.2.1h-.6c-.3 0-.5.1-.8.2-.1 0-.2.1-.3.1h-.1a.55.55 0 0 0-.5.3c-.2 0-.4.1-.6.2-.4.2-.6.6-.6 1.1 0 .4.3.8.7 1 .1 0 .2.1.3.1l.2.1.6.6c.3.2.5.5.7.8l.2.3c.2.2.3.4.5.6l.8.8c.4.4.9.8 1.3 1.4l.2.2c.2.2.3.4.5.5l.5.5c.3.4.5.7.7 1.1l.1.2.8 1.4c.1.3.3.5.4.8l.3.5.6 1.2c.1.4.3.7.4 1.1s.3.9.4 1.3c.2.4.3.7.4 1.1l.1.4c.1.3.1.6.2.8.1.3.2.8.4 1.3.1.4.2.6.3.9l.1.2c.2.7.4 1.5.5 2.3.1.5.1 1 .2 1.6l.1.8v1.3c0 .6 0 1.1.1 1.7v3.9c0 .7 0 1.4.1 2v3.7c0 .4-.1.9-.2 1.3l-.1.5c-.1.3-.1.6-.1.9v.4c0 .2.1.5.2.7s.3.4.5.5.4.2.6.2h.1c.3 0 .6-.1.9-.3.2-.1.3-.2.5-.3l.1-.1.6-.3.5-.2.9-.3c.4-.2.8-.3 1.2-.5l.5-.2c.3-.1.7-.3 1-.4.3-.2.4-.2.7-.4.2-.1.4-.3.6-.4s.6-.3 1-.4l1-.5.7-.3c.5-.2.9-.4 1.3-.6l.6-.3c.2-.1.3-.2.5-.3l1-.5c.6-.3 1.3-.7 1.9-1.1l1.6-1 .5-.3.4-.2 1-.6c.4-.3.8-.6 1.2-.8l.8-.6.9-.6c.3-.2.6-.3.8-.5.6-.4 1.2-.9 1.7-1.3l.2-.2 2.3-2c.8-.7 1.5-1.5 2.3-2.3.7-.7 1.3-1.5 2-2.3.3-.4.7-.8 1-1.2l1-1.4c.5-.8 1.1-1.5 1.6-2.2l1.3-1.9.3-.4c.2-.3.5-.6.7-.9l.6-.8c.1-.2.3-.4.5-.6l1-1.4 2.3-3.8 1.5-3 .5-.9c.1-.2.2-.5.4-.7.2-.5.5-.9.7-1.4l.7-1.7.2-.5.8-2.3.5-1.9.7-2.6c.1-.5.3-1 .4-1.4l.4-1.6.1-.5.2-.9.3-1.1.4-1.9c0-.3.1-.6.1-.9l.1-.9c.1-.7.2-1.3.4-2l.3-1.5c.1-.5.1-1.1.2-1.6v-.4l.2-1.8v-.5c.1-.6.1-1.3.2-1.9v-.2l.1-.7c0-.2 0-.5.1-.7 0-.4.1-.9.1-1.3s.1-.9.1-1.4v-.8c0-.5 0-1.1.1-1.6V109c0-.6.1-1.1.1-1.8 0-1.5-.1-3-.3-4.4 0-.4-.1-.8-.1-1.3l-.1-1.1c0-.3-.1-.6-.1-.9s-.1-.8-.1-1.2v-1c0-.3-.1-.9-.1-1.3s-.1-.7-.1-1.1c0-.3-.1-.6-.1-.9v-.2l-.4-2.3c-.1-.2-.1-.5-.2-.7l-.1-.3v-.1c-.1-.3-.2-.6-.2-1v-.2c-.1-.6-.3-1.1-.5-1.8l-.6-1.9-.6-1.8-.1-.4c-.2-.7-.5-1.4-.9-2.3l-1.2-2.4-1.2-2.2-.6-.9-.6-1c-.5-.8-.9-1.5-1.2-2.2l-.8-.3c-.3-.6-.6-1.1-1-1.7-.4-.5-.6-.9-.9-1.3-.2-.2-.3-.4-.5-.7-.3-.4-.6-.8-.8-1.2l-.4-.6c-.5-.7-.9-1.3-1.5-1.9l-.4-.4-1-1.1-1.4-1.6-3.1-3.1c-.4-.4-.9-.8-1.3-1.3l-.2-.2-1.9-1.6-1.4-1.3-5.3-4.8c-.4-.4-.8-.7-1.1-.9-.3-.3-.9-.6-1.3-1h-.1l-2.2-1.8c-.8-.7-1.7-1.4-2.7-2-.2-.2-.5-.3-.7-.4l-.5-.3c-.4-.2-.8-.5-1.2-.8l-2.4-1.1c-.5-.2-1-.4-1.5-.7l-1.4-.8-.2-.1-3.3-1.7c-.3-.1-.7-.3-1-.4l-.6-.3c-.5-.2-1-.5-1.5-.7h-.1c-.6-.3-1.2-.5-1.9-.7l-.6-.2-1-.3c-.4-.2-.8-.4-1.2-.5l-.5-.2c-.3-.1-.6-.3-.9-.3l-.2-.1-.7-.2-.2-.1c-.5-.2-1.1-.4-1.7-.5l-3.4-.6-.5-.1c-.4-.1-.8-.2-1.1-.2-.4 0-.7-.1-1-.1h-4.1c-.4.1-.8 0-1.2-.1z"/><path d="M42.9 38.4a11.24 11.24 0 0 0-3.9 1c-.6.2-1.1.5-1.6.8-.2.1-.4.3-.6.5s-.6.5-.9.7c-.5.4-.9 1-1.3 1.5-.3.5-.6 1.1-.8 1.7-.2.5-.3 1.1-.4 1.7-.1.7-.2 1.3-.2 2a6.28 6.28 0 0 0 .3 1.9l.3 1c.2.5.5.9.8 1.3l.9 1.1c.3.4.7.7 1.1 1 .2.1.4.3.6.4.3.2.6.4 1 .5.8.3 1.6.4 2.5.4h.8c.6 0 1.2-.1 1.8-.3.7-.2 1.3-.4 1.9-.7.8-.3 1.5-.8 2-1.4.3-.3.5-.6.8-1 .2-.4.4-.7.5-1.1.3-.6.5-1.3.6-1.9a6.28 6.28 0 0 0 .3-1.9c.1-.6.1-1.2 0-1.8-.1-.7-.2-1.3-.4-2 0-.2-.1-.3-.2-.5l-.3-.8c-.2-.6-.5-1.2-.8-1.8l-.6-1c-.3-.4-.7-.8-1.1-1-.7-.4-1.4-.6-2.1-.6-.5.2-.8.2-1 .3h0zm17.3 1.4l-1.1.3c-.2.1-.4.2-.5.4-.5-.1-1 .3-1.1.7-.3.8-.5 1.7-.5 2.6 0 .3 0 .6.1.9s.2.5.4.7c.1.1.2.3.3.4a1.38 1.38 0 0 0 .4.3c.3.2.6.3.9.4h.6c.2 0 .4 0 .6-.1.4-.1.8-.2 1.1-.4.7-.3 1.2-.8 1.6-1.4.3-.5.5-1.1.5-1.7v-.4c.1-.6 0-1.3-.3-1.8-.2-.3-.5-.5-.8-.7-.4-.2-.7-.3-1.1-.3h-.4c-.2 0-.4 0-.7.1h0zm141 106.3c-.3 0-.6.1-.8.3a2.36 2.36 0 0 0-.9.8c-.2.4-.4.8-.4 1.2v1.3c0 .2.1.4.2.6s.3.5.6.6l.6.3c.3.1.6.2 1 .1.7-.1 1.3-.4 1.8-.8.1-.1.3-.2.4-.4.2-.2.3-.4.4-.6.2-.4.3-.7.3-1.1v-.6c0-.1-.1-.2-.1-.4-.2-.6-.5-1.1-1.1-1.4-.3-.1-.6-.2-1-.2l-1 .3zm.2 11.1c-.5.1-1.1.2-1.5.6-.3.2-.6.6-.9.9-.3.5-.4 1-.5 1.6-.1.2-.1.5-.1.7v1c0 .3.1.5.3.7.2.3.4.5.6.6l.3.1c.2.1.4.2.5.2.6.1 1.2.1 1.7 0l.8-.3c.6-.2 1.1-.6 1.4-1.1.2-.3.3-.5.4-.8.2-.5.3-1.1.3-1.7 0-.7-.3-1.4-.8-1.9-.2-.2-.4-.3-.6-.5-.3-.2-.7-.3-1.1-.3h0c-.2.2-.5.2-.8.2h0zm7.3-4.6c-.9.2-1.5 1-1.6 1.9v.1a1.1 1.1 0 0 0 0 .8c0 .1.1.2.1.4.1.1.2.3.3.4l.3.2c.1.1.3.1.4.2.4.1.7.1 1.1 0s.7-.3 1-.5c.3-.3.6-.7.7-1.1.1-.3.1-.6 0-.9 0-.2-.1-.3-.2-.5a1.38 1.38 0 0 0-.3-.4c-.1-.1-.2-.1-.3-.2l-.3-.1c-.2-.1-.3-.1-.5-.1h-.3c-.1-.3-.3-.3-.4-.2h0z"/></g><path d="M79.5 213.5c0-5.7 4.3-10.1 10.1-10.1 2.7 0 4.9 1 6.7 2.7a.47.47 0 0 1 .1.6l-1.1 1.3c-.2.2-.3.2-.5 0-1.4-1.2-3.1-2-5.1-2-4.2 0-7.4 3.2-7.4 7.6 0 4.3 3.2 7.5 7.5 7.5 3.9 0 6.4-2.5 6.5-5.9H90c-.3 0-.4-.1-.4-.4v-1.6c0-.3.1-.4.4-.4h8.4c.3 0 .4.2.4.4v1.1c0 5.2-3.4 9.2-9 9.2-6 .1-10.3-4.3-10.3-10zm22.3-8.8a1.54 1.54 0 0 1 1.5-1.5 1.54 1.54 0 0 1 1.5 1.5 1.47 1.47 0 0 1-1.5 1.5c-.9 0-1.5-.6-1.5-1.5zm.3 18.1v-12.9c0-.3.1-.4.4-.4h1.8c.3 0 .4.1.4.4v12.9c0 .3-.1.4-.4.4h-1.8c-.3 0-.4-.1-.4-.4zm7.5-2.5v-8.8h-1.8c-.3 0-.4-.2-.4-.4v-1.2c0-.3.2-.4.4-.4h1.8v-3.2c0-.3.1-.4.4-.4h1.8c.3 0 .4.1.4.4v3.2h2.3c.3 0 .4.1.4.4v1.2c0 .3-.1.4-.4.4h-2.3v8.5c0 1 .4 1.4 1.3 1.4.2 0 .6 0 .9-.1.4-.1.5.1.5.4v1.2c0 .5-1.1.7-1.9.7-2.1-.1-3.4-1.1-3.4-3.3zm20.3-5.6v8.1c0 .3-.1.4-.4.4h-1.8c-.3 0-.4-.1-.4-.4v-7.7c0-2.3-1.2-3.7-3.3-3.7s-3.6 1.4-3.6 3.7v7.7c0 .3-.1.4-.4.4h-1.8c-.3 0-.4-.1-.4-.4v-19.2c0-.3.1-.4.4-.4h1.8c.3 0 .4.1.4.4v8.1c.8-1.4 2.2-2.5 4.5-2.5 3-.1 5 1.9 5 5.5zm4 3.2v-8c0-.3.1-.4.4-.4h1.8c.3 0 .4.1.4.4v7.7c0 2.3 1.2 3.6 3.3 3.6s3.6-1.3 3.6-3.6v-7.7c0-.3.1-.4.4-.4h1.8c.3 0 .4.1.4.4v12.9c0 .3-.1.4-.4.4h-1.7c-.3 0-.4-.1-.4-.4l-.1-1.7c-.8 1.4-2.2 2.5-4.5 2.5-2.9-.1-5-2.1-5-5.7zm18.4 2.9l-.1 2c0 .3-.1.4-.4.4h-1.6c-.3 0-.4-.1-.4-.4v-19.2c0-.3.1-.4.4-.4h1.8c.3 0 .4.1.4.4v8.2c1-1.7 2.7-2.7 5-2.7 3.9 0 6.7 3.1 6.7 7.2s-2.7 7.2-6.7 7.2c-2.4 0-4.1-1-5.1-2.7zm9.3-4.5c0-2.9-2-4.9-4.7-4.9s-4.6 2-4.6 4.9 1.9 4.8 4.6 4.8c2.7.1 4.7-1.9 4.7-4.8z" enable-background="new"/></svg>