<svg xmlns="http://www.w3.org/2000/svg" viewBox="0 0 240.9 269.09"><defs><style>.cls-1,.cls-2{fill:#48578c;}.cls-2{opacity:0.67;}.cls-2,.cls-3{isolation:isolate;}.cls-3{fill:#d3d3d3;opacity:0.88;}.cls-4{fill:#9e9e9c;}.cls-5{fill:#2c2c2c;}</style></defs><g id="Layer_2" data-name="Layer 2"><g id="Draw_Layer" data-name="Draw Layer"><path class="cls-1" d="M.25,3.21a14.66,14.66,0,0,0-.2,3.91c0,.55.07,1.09.09,1.62s0,1.11,0,1.66c0,1,0,1.93,0,2.9s.09,2.16.08,3.25,0,2.06-.06,3.09,0,1.88,0,2.82c0,1.9,0,3.8-.05,5.71s-.1,3.64-.06,5.47c0,1,0,1.94,0,2.92s-.06,2.17,0,3.25.21,1.89.29,2.83.15,2.12.15,3.18,0,2.08,0,3.12.06,2.2.05,3.3a53.17,53.17,0,0,0,.44,7.46c.11.94.21,1.88.24,2.84,0,1.17,0,2.33,0,3.5,0,2.35.06,4.68.24,7a27.76,27.76,0,0,1,0,3.16c-.06,1.22-.1,2.44-.13,3.67-.07,2.24-.13,4.5-.12,6.75s0,4.43-.08,6.65S1.17,97.71,1,99.92s-.34,4.41-.44,6.61-.07,4.58-.11,6.86c0,1.07-.08,2.14-.12,3.2a31.68,31.68,0,0,0,0,3.23c.06,1,.08,1.91.14,2.87.06,1.11.11,2.24.09,3.35,0,2-.31,3.94-.28,5.91s.07,3.65.15,5.47.35,3.89.36,5.85c0,1.78-.08,3.55-.18,5.32a59,59,0,0,0,.23,6.09c0,1.1.12,2.2.14,3.31s0,2.06,0,3.08c0,1.29,0,2.57.07,3.85s.28,2.7.46,4a45.6,45.6,0,0,1,.3,6.18c-.05,2.34-.28,4.68-.24,7s0,4.6,0,6.89-.21,4.4-.2,6.6c0,1.55.15,3.1.21,4.65,0,.7.07,1.42.05,2.13s-.1,1.66-.2,2.5c0-.17.05-.34.07-.51a72.63,72.63,0,0,0-.7,12.93c0,1,.08,2,.15,3.07s.1,2.13.07,3.2-.1,2-.09,3A31.62,31.62,0,0,0,1.23,230v0a.13.13,0,0,1,0,.06c.17,1.22.39,2.43.59,3.64a1.89,1.89,0,0,0,.9,1.2,2,2,0,0,0,2.7-.7,2.07,2.07,0,0,0,.21-1.5c0-.34-.11-.68-.17-1h0c-.13-.74-.26-1.48-.37-2.23v-.11A37.52,37.52,0,0,1,5,223.61c0-1.31,0-2.62-.1-3.93,0-.69-.08-1.38-.1-2.07l0-.83c0-.69,0-1.38,0-2.07,0-.88,0-1.86.08-3.08,0-.74.1-1.47.16-2.19L5,208.8l0-.23c.07-.86.15-1.72.26-2.58h0c0-.1,0-.2,0-.31s0-.07,0-.11h0a22.71,22.71,0,0,0,.28-3.29c0-1.06-.06-2.24-.13-3.61-.06-1.1-.12-2.28-.13-3.43,0-.68,0-1.39.07-2.06v-.36c0-.26,0-.52,0-.78.09-2.07.08-4.18.08-6.22v-.22c0-2.42,0-4.93.12-7.39V178l0-.2c0-.14,0-.28,0-.42h0c.06-1.51.12-3.29,0-5.1,0-1.17-.12-2.11-.22-3-.06-.63-.15-1.26-.24-1.89l-.11-.77A49.73,49.73,0,0,1,5,161.46v-2.2c0-.65,0-1.31,0-2l-.06-1.4,0-.36,0-.53c0-.34,0-.68,0-1,0-.58-.07-1.16-.11-1.74s-.07-.89-.09-1.33c0-1,0-2,0-2.78l0-.67,0-.66c0-.46,0-.93.07-1.39s0-.68,0-1V144h0V142.7c0-1.07-.1-2.19-.19-3.08v-.19c-.07-.83-.14-1.69-.17-2.53l0-1.12v-.16c0-1.36-.09-2.77-.09-4.15,0-.72.06-1.48.1-2.08l0-.31c0-.22,0-.43,0-.64l0-.33c0-.9.1-1.83.09-2.74,0-1.34-.08-2.69-.15-4.07,0-.7-.08-1.41-.11-2.12-.06-1.46,0-3,.06-4.34,0-.72,0-1.43.06-2.14s0-1.53,0-2.32c0-1.5,0-3,.12-4.57,0-.78.1-1.56.16-2.34l0-.76c.08-1.14.16-2.27.22-3.4.11-1.74.14-3.56.17-5l0-1.58,0-1c0-.78,0-1.56,0-2.34,0-.57,0-1.14,0-1.72s0-1.13,0-1.7c0-2.43.07-4.64.13-6.75,0-.73.06-1.45.09-2.23l.07-1.3v-.05c0-.13,0-.27,0-.4h0a25.54,25.54,0,0,0-.1-2.84c-.17-2.26-.18-4.4-.17-7,0-1.14,0-2.38-.07-3.63,0-.91-.17-1.84-.3-2.81l-.07-.46c-.08-.76-.12-1.53-.16-2.34l0-.43c0-1-.07-2-.08-3.22l0-2.15,0-1.09c0-.58,0-1.16,0-1.74v-.29c0-.4,0-.8,0-1.2,0-.92,0-1.89-.14-3.17q-.06-.7-.15-1.41c0-.43-.1-.85-.13-1.27-.07-.9-.07-1.82-.06-2.69l0-.28v-.42h0c0-.68,0-1.36,0-2v-.83c0-2.22,0-4.5,0-6.51,0-1.55.06-3.09.06-4.63,0-.61,0-1.21,0-1.82v-1c0-.6,0-1.22,0-1.84,0-.44,0-.88,0-1.32,0-1.13,0-2.16-.06-3.15S4,11.71,4.05,10.66s0-2.05,0-3c0-.38,0-.76,0-1.14V5.64C4,5.33,4,5,4,4.72V4.56c0-.11.05-.22.08-.33A2,2,0,0,0,2.67,1.82a1.68,1.68,0,0,0-.5-.07A2,2,0,0,0,.25,3.21Zm5.09,202.5c0,.13,0,.27,0,.4C5.3,206,5.32,205.84,5.34,205.71Z"/><path class="cls-1" d="M42.8,0a12.34,12.34,0,0,0-1.71.15c-.85.09-1.69.1-2.54.12s-1.76.15-2.64.17c-.36,0-.72,0-1.08,0-.53,0-1.06,0-1.59,0-.89.06-1.77.24-2.65.38A19,19,0,0,1,28,.84a17.4,17.4,0,0,0-2.88.24c-.7.07-1.39.06-2.09.07s-1.35,0-2,0-1.38-.07-2.08-.09S17.4,1,16.65.93c-1.51-.05-3,0-4.54-.1-.34,0-.68-.06-1-.09A5.84,5.84,0,0,0,9.78.8c-.5.07-1,.17-1.49.24A15.53,15.53,0,0,1,4.75.84a1.87,1.87,0,0,0-1.38.56,2,2,0,0,0-.05,2.78l.42.33L4,4.64v0a1.91,1.91,0,0,0,.74.14L5,4.8A17.69,17.69,0,0,0,7.43,5l.5,0q.93-.07,1.86-.24l.65-.11h.24c.3,0,.61,0,.92.06l.17,0,.33,0c.64,0,1.27,0,1.9.06h2.26c.44,0,.88,0,1.32.07l.18,0,.66,0,.72,0h.24l1,0c.58,0,1.15.06,1.72.06h1.06c.44,0,.87,0,1.3,0a14.46,14.46,0,0,0,1.74-.19l.34,0c.37,0,.74,0,1.1,0h.91l.79,0h.18a17.53,17.53,0,0,0,2.6-.29l.79-.13c.52-.05,1-.05,1.38-.05h1.26A12.79,12.79,0,0,0,37,4.28a21.17,21.17,0,0,1,2.25-.1h.18A20.07,20.07,0,0,0,41.92,4c.42,0,.87-.06,1.36-.06.66,0,1.32,0,2,.07.39,0,.77.06,1.18.11s1.08.11,1.63.12h.24c.42,0,.84,0,1.26,0h.54c.43,0,.87,0,1.3.06.83.07,1.71.12,2.67.14s1.72.08,2.71.16a12.21,12.21,0,0,0,1.35.07,11.32,11.32,0,0,0,1.16-.09l.54-.07c.53-.05,1.1-.07,1.76-.07h1l.57,0c.29,0,.57,0,.87,0h.27c.51,0,1,0,1.52,0h.44c.41,0,.82,0,1.24,0s.7,0,1,0h.92l1.37,0,1.27,0c1,0,2,0,3,0l.83,0h.23l1.16,0c.34,0,.69,0,1,0L79,4.51c.36,0,.7-.07,1.06-.08h1.66c.65,0,1.3-.06,2-.12l1.1-.1c.4,0,.81,0,1.21,0,.62,0,1.23,0,1.83.06,1,0,2,.11,3,.18l.41,0c.55,0,1.11.08,1.66.09.3,0,.61,0,.92,0H95c.69,0,1.36.07,2.16.15.61.06,1.19.09,1.75.09h.53l2-.08.48,0,.39,0c.45,0,.91,0,1.36,0h.43c.37,0,.73,0,1.09.06l1.3.06H108c.34,0,.67,0,1,0l.63.11c.76.14,1.53.24,2.31.31.23,0,.45,0,.68,0,.47,0,.95,0,1.41,0l.26,0,.71,0,1.74,0h1.31c.8,0,1.64-.07,2.32-.12l1.19-.08,1.07-.06,1.72-.09,1.47,0,1.19,0h.51l1.08,0h.12l1,0c.25,0,.5,0,.75,0,1.18-.06,2.39-.15,3.59-.28l.38,0c.47,0,.93-.09,1.4-.12h1.79l1.14,0h.37c.39,0,.77,0,1.16,0l.77,0,1.46.07h.33c.25,0,.5,0,.79,0h1c.27,0,.55,0,.82,0s.55,0,.83,0,.81,0,1.22.06a7.3,7.3,0,0,0,1.14.09,4,4,0,0,0,.84-.07,3.93,3.93,0,0,0,.48-.06l.13,0h0l.22-.07.23,0,.1,0a3.82,3.82,0,0,0,1.39,0c.21,0,.42-.1.63-.15l.16,0c.45.24.89.52,1.33.78.65.38,1.35.74,2,1.17.18.16.36.32.56.48.35.29.72.56,1.1.82a9.82,9.82,0,0,1,.81.77A11.51,11.51,0,0,0,160,9.34a4.27,4.27,0,0,0,.44.3l.19.12.11.06.38.23.24.15.25.15c.24.14.47.3.71.45l.18.15h0l1,.72c.4.32.79.65,1.2,1s.91.66,1.37,1L167.83,15c.48.39,1,.78,1.45,1.16s.79.55,1.18.84c.9.73,1.77,1.51,2.62,2.31v0h0l1.61,1.53c.82.78,1.67,1.53,2.36,2.14.21.19.44.37.68.57l.4.32.42.36.09.08.53.45a40.81,40.81,0,0,1,3.93,3.62c.67.71,1.34,1.43,2,2.15l.33.36c.72.77,1.44,1.55,2.18,2.31.3.32.62.63.94.94l.13.13c.37.36.73.71,1.08,1.07l.45.48.3.32c.43.45.85.91,1.3,1.34l.65.64a18.49,18.49,0,0,1,1.67,1.76c.63.8,1.29,1.58,2,2.39,1.69,1.88,3.53,3.76,5.2,5.48,1.33,1.35,2.7,2.75,4,4.17.45.49.92,1,1.39,1.44l.21.22.38.38q.44.43.84.87l.14.14c.31.33.63.65.95,1s.46.46.68.7l.23.23c.3.31.61.63.92.93.7.69,1.41,1.4,2.09,2.13l.09.1a2.92,2.92,0,0,1,.28.32c.69.71,1.42,1.38,2.1,2.1s1.33,1.4,2,2.11,1.14,1.24,1.7,1.87,1.21,1.25,1.82,1.88a28.36,28.36,0,0,1,2.06,2.33c.15.22.32.43.48.64,1.09,1.5,2.23,3,3.44,4.37l.55.66.23.25.53.63.08.12c.27.31.54.62.82.91.56.58,1.07,1.21,1.57,1.84a1.9,1.9,0,0,0,1.41.6,2,2,0,0,0,2-2h0a2.08,2.08,0,0,0-.56-1.38c-.42-.54-.87-1.05-1.32-1.57s-.75-.8-1.1-1.22l-1-1.23c-1.11-1.33-2.2-2.67-3.25-4l-.66-.89.09.13a27.41,27.41,0,0,0-1.8-2.23c-.58-.63-1.22-1.2-1.82-1.82s-1.11-1.21-1.64-1.82-1.24-1.37-1.89-2c-.35-.35-.67-.73-1-1.08s-.86-.84-1.28-1.27c-.8-.82-1.59-1.66-2.41-2.46-1.25-1.22-2.46-2.49-3.67-3.75-1.42-1.46-2.86-2.91-4.24-4.41-.67-.73-1.39-1.4-2.07-2.11s-1.45-1.58-2.22-2.32-1.7-1.73-2.51-2.63-1.47-1.58-2.17-2.41c-.33-.4-.64-.82-1-1.22s-.82-.88-1.25-1.3c-.75-.74-1.51-1.46-2.22-2.24s-1.28-1.34-1.94-2c-.83-.82-1.66-1.66-2.46-2.51-1.38-1.46-2.68-3-4.13-4.39-1.29-1.24-2.66-2.38-4-3.53-.73-.61-1.47-1.22-2.17-1.88s-1.56-1.48-2.34-2.21-1.46-1.33-2.18-2c-.92-.82-1.94-1.49-2.92-2.23-.72-.57-1.45-1.13-2.18-1.69l-2-1.48c-.51-.41-1-.83-1.53-1.22s-.93-.72-1.42-1c-.67-.41-1.36-.8-2-1.26-.4-.35-.76-.74-1.16-1.09a10.13,10.13,0,0,0-1.12-.94l-.47-.33c-.17-.14-.33-.29-.49-.44a8.54,8.54,0,0,0-1.32-.9l-1.38-.82-1.39-.8a6.39,6.39,0,0,0-1-.47A2.23,2.23,0,0,0,153,0a1.78,1.78,0,0,0-.69.1,4,4,0,0,0-.68.12c-.11,0-.23.06-.34.09a6.17,6.17,0,0,0-.62-.11,2.89,2.89,0,0,0-1,.13,2.36,2.36,0,0,0-.45.08L149,.51a2,2,0,0,1-.24,0l-.32,0a3,3,0,0,1-.43,0A10.92,10.92,0,0,0,146.84.4l-1.37,0c-.61,0-1.22,0-1.83,0s-.95,0-1.42,0c-1,0-2-.1-3,0s-1.88,0-2.82,0-2.11.15-3.17.24-2.43.23-3.64.22l-1.52,0c-.55,0-1.1,0-1.65,0-.9,0-1.79,0-2.69.07-2.18.12-4.35.3-6.53.34-1,0-1.9,0-2.86.05a21,21,0,0,1-2.86,0,22.36,22.36,0,0,0-2.94-.41h-1c-.25,0-.49,0-.73,0-.58,0-1.15,0-1.73-.08a54.55,54.55,0,0,0-5.72.12A22.42,22.42,0,0,1,96.53.72c-.9-.07-1.8-.1-2.69-.08A26.7,26.7,0,0,1,91.16.52c-1-.07-2-.12-3-.18s-2-.08-3-.05S83,.55,81.82.53c-.42,0-.83,0-1.24,0a16.57,16.57,0,0,0-1.86.11,26.12,26.12,0,0,1-3.19,0c-2-.07-3.9-.08-5.84-.1H69c-.33,0-.65,0-1,0-.6,0-1.2-.05-1.8-.05s-1.11,0-1.67,0S63.45.49,62.9.47q-1.21-.06-2.43,0c-.39,0-.78.06-1.17.11a10.79,10.79,0,0,1-1.61.09c-.85,0-1.7-.15-2.55-.2S53.53.45,52.73.4,50.91.25,50,.24c-.5,0-1,0-1.51,0A13.64,13.64,0,0,1,46.91.22c-.84-.09-1.66-.16-2.5-.2-.52,0-1,0-1.57,0ZM153.53,3.83l-.23.09h0l.27-.1Z"/><path class="cls-1" d="M2.85,232.12a2,2,0,0,0-.05,2.79h0a2.06,2.06,0,0,0,1.41.6,28,28,0,0,0,3.3.2c.48,0,1,0,1.45,0s1-.09,1.5-.09,1.09,0,1.63.08,1.23.07,1.84.07c1.11,0,2.22-.1,3.33-.13s2.15-.05,3.22,0l3.32.14c2.16.08,4.33.09,6.5.15,1.1,0,2.2.08,3.3.1s2.14.11,3.2.16l3.39.17c1.09,0,2.18.06,3.28.1s2,.16,3,.22c1.15.07,2.29.15,3.45.17,2.32,0,4.65.23,7,.48a33.47,33.47,0,0,0,4.8.13,30.31,30.31,0,0,1,4.57.12c1.15.17,2.29.37,3.45.5s2.25.18,3.4.23,2.3.17,3.45.24a30.44,30.44,0,0,0,3.31,0c1.06,0,2.11-.12,3.18-.15s2,0,3,.06c2.18.11,4.35.15,6.53.21,1,0,2,0,3,0,1.2,0,2.4,0,3.6,0s2.32.16,3.48.21,2.28,0,3.42-.06a32.32,32.32,0,0,1,3.41,0c1.12.05,2.23.18,3.34.23,2.27.12,4.54.08,6.81.17s4.37.3,6.56.3,4.41.06,6.61.06,4.58-.12,6.87-.2,4.64-.1,7-.08,4.73.07,7.09,0c1.23,0,2.46-.12,3.69-.2,1.05-.08,2.1-.21,3.16-.29s2.35-.15,3.52-.22,2.34,0,3.51-.1c2.38-.13,4.76-.34,7.14-.45.79,0,1.59,0,2.38,0h1.19c1.16,0,2.31,0,3.46-.08,2.37-.09,4.73-.33,7.1-.41a64.75,64.75,0,0,1,7.1.3c2.33.17,4.66.27,7,.39a63.52,63.52,0,0,0,6.76,0c1.14-.06,2.29-.17,3.44-.24s2.13-.07,3.19-.12,1.95-.06,2.92-.11,1.87-.12,2.81-.15A23.91,23.91,0,0,1,225,238c1.1.11,2.2.08,3.31.13.91,0,1.8.19,2.71.21a10.38,10.38,0,0,0,1.76-.16H233a17.65,17.65,0,0,0,2.8.4c.42,0,.84,0,1.26-.06a13.53,13.53,0,0,0,1.91-.14,2,2,0,0,0,1.42-2.4,2,2,0,0,0-2.37-1.43c-.46,0-.93,0-1.39.05v0h-.84l-.68,0-.88-.17-.17,0-.14,0a5.58,5.58,0,0,0-1-.12,1.14,1.14,0,0,0-.26,0c-.22,0-.43,0-.66.08s-.66.05-1,.05a14.71,14.71,0,0,1-1.48-.1,20.43,20.43,0,0,0-2.47-.12h-.28l-.85,0c-.5,0-1-.07-1.5-.13s-.92-.1-1.38-.12c-.25,0-.51,0-.76,0-.64,0-1.27,0-1.9.06h-.26l-2.79.13-1.43,0c-.54,0-1.08,0-1.62.05-.84,0-1.67.1-2.5.16-1.57.11-3,.2-4.41.23h-.59c-1.43,0-2.9-.07-4.3-.14h-.25l-1.8-.08c-1.52-.07-3.05-.18-4.61-.3l-2.17-.16c-1.42-.1-2.55-.15-3.67-.15h-.1c-1,0-2,.05-3.38.13L185,234l-.35,0-.41,0-1.26.09c-1.16.06-2.37.1-3.7.13h-3.54c-1.15,0-2.36.08-3.33.16h-.24l-.69.05c-1.93.14-4.11.29-6.21.33-2.4,0-4.83.26-7,.46-2,.18-4.2.27-6.95.28-1.25,0-2.49,0-3.73,0h-.7l-2.77,0H144c-2,0-4.17.06-6.65.18-1.33.07-2.77.1-4.54.1h-3.33c-1.95,0-3.71,0-5.49-.1l-2.35-.12h-.11c-1.4-.07-2.85-.15-4.29-.16l-.88,0-2.43,0c-1-.05-2.07-.13-3.13-.21l-.24,0c-1.12-.09-2-.13-2.81-.13h-.55l-1.44.06h-.19c-.63,0-1.26.06-2,.07-1.06,0-2.15-.08-3.2-.14h-.17l-.2,0c-1-.06-2-.13-3-.13h-1.3c-.67,0-1.34,0-2,0h-.29c-.65,0-1.31,0-2,0l-1.19,0c-.89,0-1.77-.06-2.66-.1h-.3c-1-.05-2.14-.1-3.27-.12h-.19c-.94,0-1.88,0-2.78.1s-1.76.09-2.69.09h-.76c-.92,0-1.86-.1-2.66-.17l-.72-.05c-.55,0-1.09-.07-1.64-.09l-1.86-.1c-.53,0-1.07-.1-1.61-.17l-.58-.09-.5-.08c-.79-.13-1.62-.25-2.44-.33a19,19,0,0,0-2.13-.1c-.4,0-.81,0-1.21,0h-.61c-.6,0-1.19.05-1.78.05-.33,0-.65,0-1,0-.71,0-1.43-.1-2.15-.17l-.19,0-1.08-.1c-1.11-.1-2.3-.2-3.49-.24l-1.79-.08-1.67-.06c-.93,0-1.85-.11-2.84-.19s-2.28-.17-3.43-.2c-1.92,0-4-.14-6.72-.3-.72-.05-1.43-.07-2.14-.09l-1.19,0-.46,0L29,232c-1.39,0-2.78-.06-4.2-.1l-2.35-.06-1.36-.06c-.63,0-1.25-.06-1.88-.06h-.34c-1.08,0-1.95,0-2.74.06s-1.61.08-2.43.08h-.85c-.33,0-.66,0-1-.07s-.94-.06-1.41-.06a5.43,5.43,0,0,0-.57,0c-.89.06-1.64.1-2.4.1H7.28c-.57,0-1.17-.05-1.83-.11h0l-1.22-.11H4.12a2,2,0,0,0-1.27.56Z"/><path class="cls-1" d="M232.37,77.53a2,2,0,0,0-1.21.91,1.92,1.92,0,0,0-.21,1.5,3,3,0,0,0,.74,1.24c.11.1.21.2.31.31s.21.24.31.37l0,0a5.92,5.92,0,0,1,.33.61l.06.39a2.28,2.28,0,0,1,0,.26v0l.09.63,0,.34,0,.4.09.8,0,.19c0,.31.09.61.15.91l0,.15.08.42v.17c0,.24,0,.47.06.72l.06.35c.06.73.14,1.29.23,1.82,0,.25.06.5.09.75a14.61,14.61,0,0,1,0,1.62,10.12,10.12,0,0,0,.05,1.23c0,.24,0,.48,0,.72,0,.39,0,.78,0,1.17v.15c0,.44,0,.87,0,1.31,0,.72.11,1.43.2,2.17,0,.28.06.56.11.94l.06.42c.1.73.19,1.49.24,2.24,0,.4,0,.81.05,1.24s0,1.13.1,1.7c.07,1.1.13,2.2.18,3.29v.34c0,.16,0,.32,0,.48h0L235,111c0,.79.11,1.59.18,2.38.1,1.21.2,2.4.23,3.56,0,.65,0,1.29.05,2,0,1.14.07,2.3.09,3.44,0,1.3-.1,2.61-.2,3.88l0,.26c0,.61-.1,1.22-.13,1.82a42.13,42.13,0,0,0,.13,5.15v.14a51.54,51.54,0,0,1,0,5.83c0,.74-.12,1.47-.21,2.28l-.06.58c-.06.56-.12,1.13-.19,1.72h0l0,.4h0l-.08.89a39,39,0,0,0,0,5.62l.12,1.64c.11,1.42.22,2.9.24,4.35,0,1,.05,2.07.09,3.12v.42c0,.81.06,1.63.08,2.45,0,1.89,0,3.78,0,5.67,0,.63,0,1.27,0,1.9V171l0,.51c0,.73,0,1.47,0,2.18v.12l0,.58c0,.93,0,1.92,0,3,0,.13,0,.26,0,.4l0,0c0,.77.09,1.55.16,2.33.09,1,.17,2.1.23,3.19,0,.76,0,1.55,0,2.29V187c0,.75,0,1.5,0,2.26v1.18c0,.6,0,1.2,0,1.81,0,.37-.05.74-.08,1.11l0,.22c0,.44-.07.89-.09,1.33,0,.75,0,1.53,0,2.22l0,.55c0,.73,0,1.47,0,2.2,0,1,0,1.93,0,2.89s.06,1.64.11,2.46v.42c0,.14,0,.28,0,.41h0l0,0v1.56c0,.38,0,.76,0,1.13s0,1,0,1.54c0,.86,0,1.72,0,2.58,0,1.37,0,2.43-.07,3.42a24.36,24.36,0,0,0,0,3.31c.07,1.29.15,2.4.25,3.42.07.84.2,1.7.32,2.53l.12.86c0,.5.07,1,.1,1.49s0,1.18.12,1.77l0,.29a14.45,14.45,0,0,1,.11,3c0,.26-.08.52-.12.78l-.07.48a1.84,1.84,0,0,1-.05.25,1.94,1.94,0,0,0,.22,1.16,2,2,0,0,0,2.67.77h0a1.89,1.89,0,0,0,.94-1.2,26.53,26.53,0,0,0,.38-3.07,22,22,0,0,0-.25-2.82c-.09-.88-.09-1.76-.15-2.63s-.26-2-.4-3c-.2-1.7-.3-3.42-.37-5.14a25.61,25.61,0,0,1,.06-2.77,28.1,28.1,0,0,0,0-2.9c0-.86,0-1.72,0-2.58s0-1.78,0-2.67,0-1.61,0-2.42-.08-1.63-.11-2.45c-.06-1.7,0-3.4,0-5.1,0-.92-.06-1.84,0-2.76s.14-1.77.18-2.66,0-2,0-3,0-2.08,0-3.1,0-1.86,0-2.78-.14-2.13-.23-3.19a46.35,46.35,0,0,1-.18-5.77c0-1,.1-1.92.08-2.88s-.06-1.95-.06-2.93c0-1.89,0-3.78,0-5.67s-.15-4-.18-6-.23-4-.36-6a39.19,39.19,0,0,1,0-5.63c.16-2,.43-3.91.55-5.87a43.77,43.77,0,0,0,0-5.84,42.48,42.48,0,0,1-.13-5.29c.11-2,.38-4,.36-6,0-1.8-.09-3.61-.14-5.41-.06-2-.3-4-.41-5.94s-.16-3.7-.3-5.55c-.08-1-.07-2-.17-3.06s-.21-2-.34-3v0c0-.22,0-.43-.08-.65v0c-.09-.77-.15-1.55-.17-2.33s0-1.8-.09-2.7c-.11-1.3,0-2.61-.22-3.9,0-.11,0-.22,0-.33-.05-.38-.11-.75-.17-1.12s-.08-.84-.14-1.26a8,8,0,0,0-.14-1.29c-.06-.3-.13-.61-.18-.93,0,0,0-.08,0-.12,0-.61-.12-1.22-.21-1.82,0-.22,0-.44-.09-.65a1.57,1.57,0,0,0,0-.23,3.68,3.68,0,0,0-.06-.57,4.11,4.11,0,0,0-.29-.76c-.11-.25-.24-.49-.37-.73A8.75,8.75,0,0,0,235,79a5.32,5.32,0,0,0-.47-.48,1.85,1.85,0,0,0-.7-.74,1.92,1.92,0,0,0-1-.26,2.05,2.05,0,0,0-.49.06Zm2.4,1.42-.15-.34,0,0c0,.12.1.24.14.36Z"/><path class="cls-2" d="M172.21,36.76v0h-122l-46.19,0H.69a.22.22,0,1,0,0,.43H4.08v0h168.2l0,0h4v0a.19.19,0,0,0,.2-.2.2.2,0,0,0-.2-.2l-.12,0Z"/><path class="cls-2" d="M226.65,75.17l0,0H75.08l-69.53,0H4a.22.22,0,0,0,0,.44H5.55v0H227.78a.22.22,0,0,0,0-.44Z"/><path class="cls-2" d="M234.93,109.4H4.88a.2.2,0,1,0,0,.4H235a.22.22,0,0,0,.08-.3.22.22,0,0,0-.1-.09Z"/><path class="cls-2" d="M236.84,144h-1.91v0H72.37L4.79,144H4.36a.22.22,0,1,0,0,.43h.45v0H234.89l0,0h2.45a.22.22,0,1,0,0-.43Z"/><path class="cls-2" d="M235.43,177.36v0H77.58l-71.87,0H5.15a.22.22,0,1,0,0,.43h.56v0H235.45l0,0h.2a.22.22,0,1,0,0-.43Z"/><path class="cls-2" d="M237.32,205.59h-1.51v0H77.13l-71.79,0H5a.21.21,0,0,0-.22.21A.22.22,0,0,0,5,206H5.3v0H235.82l0,0h2.68a.22.22,0,0,0,.22-.22.21.21,0,0,0-.22-.21Z"/><path class="cls-3" d="M43.28,3.92c-.49,0-.94,0-1.36.05a18.41,18.41,0,0,1-2.46.2h-.18A21.18,21.18,0,0,0,37,4.28c-.5,0-1,.07-1.52.07H34.25c-.34,0-.86,0-1.38,0l-.8.13a16.29,16.29,0,0,1-2.6.29h-.18l-.78,0h-.92c-.36,0-.73,0-1.1,0l-.34,0a14.69,14.69,0,0,1-1.74.19l-1.3,0H22.06c-.58,0-1.15,0-1.72-.06l-1,0h-.24c-.24,0-.48,0-.72,0s-.44,0-.66,0h-.18c-.45,0-.88-.07-1.32-.07H15l-.65,0H14c-.63,0-1.27,0-1.9-.06l-.33,0-.17,0c-.32,0-.62-.06-.92-.06h-.24l-.66.1A16.29,16.29,0,0,1,7.92,5l-.5,0A17.84,17.84,0,0,1,5,4.8l-.28,0A1.92,1.92,0,0,1,4,4.62a8.69,8.69,0,0,0,0,1v.91q0,.57,0,1.14a28.87,28.87,0,0,1,0,3c0,1,0,2.07.07,2.93s.07,2,.06,3.15c0,.44,0,.87,0,1.32,0,.62,0,1.23,0,1.84l0,.71v.3c0,.61,0,1.21,0,1.82,0,1.54,0,3.09-.06,4.63,0,2-.06,4.29,0,6.51v.84c0,.68,0,1.36,0,2l46.19,0h122l-.08-.56-.11-.74c-.12-.81-.21-1.63-.31-2.44l-.08-.73,0-.18c-.07-.47-.14-.94-.2-1.4l0,.41a10.46,10.46,0,0,0-.12-1.11l0-.27c-.05-.3-.09-.6-.12-.89l-.13-1c-.11-.85-.23-1.53-.35-2.12-.16-.77-.38-1.53-.57-2.18-.23-.82-.42-1.65-.6-2.45l0-.12a13.92,13.92,0,0,0-.62-2.09l0-.14-.06-.14a6.87,6.87,0,0,0-.69-1.35,6.84,6.84,0,0,1-.59-.92c-.17-.33-.36-.66-.56-1s-.38-.41-.57-.61l-.35-.36-.36-.38-.59-.66-.63-.68-.31-.33-.13-.15c-.19-.21-.39-.42-.59-.61s-.54-.42-.8-.64l-.19-.15c-.23-.16-.47-.31-.71-.46l-.24-.14-.25-.15-.38-.23-.11-.06c-.5-.3-1-.61-1.49-.93l-.57-.4-.17-.11c-.28-.19-.56-.38-.85-.55a11.72,11.72,0,0,0-1.5-.76c-.39-.16-.78-.33-1.16-.52s-.51-.26-.77-.38L153.91,6l-.47-.15-.11,0-.6-.2-.33-.14L152,5.34,151.08,5a2.3,2.3,0,0,1-1-.68l-.12,0a2.65,2.65,0,0,1-.48.07,4,4,0,0,1-.84.07,7.3,7.3,0,0,1-1.14-.09c-.41,0-.82,0-1.23-.06l-.82,0c-.27,0-.55,0-.83,0h-1l-.79,0h-.33c-.49,0-1,0-1.46-.06-.26,0-.52,0-.77,0s-.77,0-1.16,0h-.37l-1.14,0h-.69l-.66,0h-.45c-.47,0-.93.08-1.4.12l-.37,0c-1.21.13-2.41.22-3.59.29h-1.83l-1.08,0H127l-1.18,0-1.47,0c-.58,0-1.15.06-1.72.09l-1.07.06-1.2.08c-.67,0-1.51.11-2.32.12h-3l-.71,0h-.26c-.47,0-.94.06-1.41.06q-.35,0-.69,0a22.11,22.11,0,0,1-2.31-.31l-.62-.1c-.34,0-.67,0-1,0h-1.49c-.44,0-.87,0-1.3-.07l-1.09-.06h-.43c-.46,0-.91,0-1.37,0l-.39,0-.47,0q-1,.06-2,.09h-.53c-.57,0-1.14,0-1.75-.09-.8-.08-1.48-.14-2.16-.15H93.78c-.3,0-.61,0-.92,0-.55,0-1.11,0-1.66-.09l-.4,0-3-.18c-.6,0-1.22,0-1.83,0-.41,0-.81,0-1.22,0l-1.1.1a19,19,0,0,1-2,.13H81l-.66,0h-.31c-.36,0-.71.05-1.07.09l-.65.05c-.34,0-.69,0-1,0l-1.15,0h-.24l-.83,0-3,0-1.26,0-1.38,0h-.93c-.35,0-.7,0-1,0s-.83,0-1.24,0H65.8c-.51,0-1,0-1.52,0H64c-.29,0-.58,0-.87,0l-.57,0-1,0c-.65,0-1.23,0-1.76.08l-.54.06a11.32,11.32,0,0,1-1.16.09,12.82,12.82,0,0,1-1.34-.07c-1-.09-1.88-.14-2.72-.16s-1.83-.07-2.67-.14c-.43,0-.86-.06-1.3-.06h-.53c-.42,0-.84,0-1.27,0h-.24a16,16,0,0,1-1.63-.13c-.41,0-.79-.08-1.17-.1-.66,0-1.32-.07-2-.07Z"/><path class="cls-3" d="M172.28,37.18H4.09l0,.27c0,.88,0,1.79.06,2.69,0,.42.08.85.13,1.27s.11.94.15,1.41c.1,1.28.14,2.26.14,3.17,0,.4,0,.8,0,1.2v.29c0,.59,0,1.16,0,1.75l0,1.08q0,1.08,0,2.16c0,1.2,0,2.25.09,3.21l0,.44c0,.8.08,1.58.17,2.33l.06.47c.14,1,.26,1.9.3,2.81.07,1.25.07,2.48.07,3.63,0,2.57,0,4.71.17,7a25.54,25.54,0,0,1,.1,2.84l69.54,0H226.67a16.64,16.64,0,0,0-2.15-2.13c-1-.71-1.83-1.41-2.67-2.15-.56-.49-1.12-1-1.7-1.45l-.81-.68c-.37-.28-.76-.52-1.15-.77L218,67.9l-.71-.45a27,27,0,0,1-2.14-1.65l-.1-.09-.56-.4L214,65a5.33,5.33,0,0,0-1.12-.62l-.26-.12-.14-.06a6.16,6.16,0,0,1-.82-.39l-1.14-.72-.25-.17c-.31-.2-.62-.4-1-.57s-.64-.31-1-.45l-.19-.08c-.3-.13-.59-.28-.88-.42l-.2-.1c-.32-.16-.63-.31-1-.45l-.27-.11-.16-.06-.37-.15a2.67,2.67,0,0,1-.36-.14,6.42,6.42,0,0,1-.66-.3L204.2,60l-.84-.27-.23-.06-.31-.1c-.4-.13-.78-.29-1.17-.45a8.81,8.81,0,0,0-1.24-.36,9.46,9.46,0,0,1-1.5-.51s.08,0,.09.06a11.9,11.9,0,0,0-2.73-.75,7.48,7.48,0,0,1-1.34-.32c-.36-.13-.7-.29-1-.45l-.34-.15-.59-.2-.15,0-.21-.06-.28-.1a5.26,5.26,0,0,0-.6-.18c-.31,0-.61-.06-.92-.12l-.23,0-.12,0-.25-.06a13.8,13.8,0,0,1-1.69-.26l-.57-.15c-.32-.08-.64-.17-1-.23h-.76a5.74,5.74,0,0,1-1.09.1h-.31q-.37,0-.75,0h-.25l-.1,0a10.58,10.58,0,0,1-1.26.16l-.54,0h-.64a9.07,9.07,0,0,0-1.67.55l-.9.33-.52.19-.75.33-1.07.48-.24.1a7.73,7.73,0,0,1-1.05.38l-.19,0a2.09,2.09,0,0,1-1.06.29,1.94,1.94,0,0,1-2-1.92V56l0-.15v-.2a11.92,11.92,0,0,1,.17-1.58l.07-.37c0-.16.08-.33.11-.5,0-.34,0-.66.07-1s0-.51.05-.76l.09-1,0-.23.09-.95c.06-.75.06-1.51.06-2.25,0-.46,0-.92,0-1.38,0-.67,0-1.35-.06-2s-.08-1.24-.07-1.86c0-.24,0-.48,0-.72,0-.4,0-.81,0-1.22,0-.57-.06-1.14-.13-1.73,0-.22-.07-.44-.1-.66l0-.3v0Z"/><path class="cls-3" d="M227.08,75.59H5.55l-.07,1.33c0,.78-.06,1.51-.08,2.23-.07,2.11-.11,4.32-.13,6.76v3.41c0,.78,0,1.56,0,2.34l0,1,0,1.58c0,1.47-.06,3.29-.17,5-.07,1.13-.15,2.26-.23,3.4l0,.77c0,.77-.11,1.55-.16,2.33-.1,1.52-.1,3.07-.12,4.57,0,.79,0,1.56,0,2.32s0,1.43-.07,2.14c0,1.36-.11,2.88-.06,4.35,0,.7.07,1.41.11,2.12.08,1.37.15,2.72.16,4.06,0,.91,0,1.84-.1,2.74l0,.33c0,.22,0,.43,0,.64l0,.31c0,.61-.1,1.36-.1,2.09,0,1.38,0,2.78.09,4.14v.16l0,1.12c0,.85.1,1.7.17,2.53l0,.19c.08.9.17,2,.19,3.08V144l67.58,0H234.93c.07-.58.13-1.15.19-1.72l.06-.58c.09-.8.17-1.53.21-2.27a51.71,51.71,0,0,0,0-5.84v-.14a42,42,0,0,1-.13-5.14c0-.61.08-1.22.13-1.82l0-.27a38.32,38.32,0,0,0,.2-3.88c0-1.14-.05-2.3-.09-3.44,0-.68,0-1.32-.05-2,0-1.15-.13-2.34-.23-3.56-.07-.79-.14-1.58-.18-2.38,0-.4-.05-.8-.06-1.19H4.88a.2.2,0,1,1,0-.4h230l.09,0V109c-.05-1.1-.1-2.2-.18-3.29-.05-.57-.07-1.13-.1-1.7s0-.84-.06-1.25c0-.74-.14-1.5-.23-2.23l-.06-.42c-.05-.38-.08-.66-.11-.94-.09-.74-.15-1.45-.2-2.17,0-.44,0-.87,0-1.31V95.5c0-.39,0-.78,0-1.17q0-.36-.06-.72a10.12,10.12,0,0,1-.05-1.23,14.6,14.6,0,0,0,0-1.62c0-.25-.08-.5-.1-.75-.1-.53-.16-1.09-.23-1.82l0-.35a6.25,6.25,0,0,1-.07-.72v-.18l-.08-.41,0-.15c-.05-.3-.11-.6-.15-.91l0-.19-.09-.8,0-.4-.06-.34-.08-.63v.2c0-.15,0-.29,0-.44l-.06-.39c-.1-.21-.21-.41-.33-.61a2.67,2.67,0,0,1-1-.9l-.57-.78-.21-.29-.27-.37-.44-.56-.21-.26c-.41-.52-.82-1-1.19-1.57l-.52-.63-.54-.57-.11-.11-.21-.23h0Z"/><path class="cls-3" d="M234.89,144.38H4.81c0,.35,0,.69,0,1s0,.92-.07,1.39l0,.66,0,.67c0,.76-.07,1.76,0,2.78,0,.44.06.88.09,1.33s.09,1.16.11,1.74c0,.35,0,.69,0,1l0,.52,0,.36L5,157.29c0,.66,0,1.31,0,2v2.2a49.73,49.73,0,0,0,.21,5.18l.11.77c.09.62.18,1.25.25,1.88.09.86.16,1.8.21,3,.09,1.81,0,3.59,0,5.1l71.86,0H235.43c0-1.11,0-2.1,0-3l0-.58v-.13c0-.71.06-1.45.05-2.18l0-.51v-.51c0-.63,0-1.27,0-1.9,0-1.89,0-3.78-.05-5.67,0-.82,0-1.63-.08-2.45V160c0-1-.08-2.08-.09-3.12,0-1.45-.13-2.93-.24-4.35,0-.54-.09-1.09-.12-1.64a39,39,0,0,1,0-5.62l.07-.88,0,0Z"/><path class="cls-3" d="M235.45,177.77H5.71l0,.2v.23c-.12,2.47-.12,5-.12,7.4v.24c0,2,0,4.15-.08,6.22,0,.26,0,.51,0,.77v.36c0,.68-.07,1.38-.07,2.07,0,1.15.07,2.32.13,3.42.08,1.38.12,2.56.13,3.61a21.38,21.38,0,0,1-.28,3.29l71.79,0H235.81v-.44c0-.82-.08-1.64-.11-2.46s0-1.92,0-2.88c0-.74,0-1.47,0-2.21v-.55c0-.69,0-1.47,0-2.21,0-.45.05-.89.09-1.33v-.23c0-.37.06-.74.08-1.11,0-.6,0-1.2,0-1.81,0-.39,0-.79,0-1.18,0-.75,0-1.51,0-2.25V185.6c0-.74,0-1.53,0-2.29,0-1.09-.14-2.18-.23-3.19-.07-.78-.12-1.55-.16-2.33l0,0Z"/><path class="cls-3" d="M235.82,206H5.3c-.11.87-.19,1.72-.26,2.58l0,.23,0,.64c-.07.73-.13,1.45-.17,2.19,0,1.23-.08,2.21-.08,3.08,0,.69,0,1.38,0,2.08l0,.82c0,.69.06,1.38.1,2.07.1,1.31.13,2.63.1,3.94a37.39,37.39,0,0,0,.07,5.7v.12c.12.74.24,1.49.37,2.23.66.06,1.25.09,1.82.1H7.5c.77,0,1.52,0,2.4-.1a5.52,5.52,0,0,1,.57,0c.48,0,.95,0,1.42.07s.66.05,1,.06h.85c.82,0,1.65,0,2.43-.08s1.66-.06,2.73-.06h.34c.63,0,1.26,0,1.88.06l1.36.06,2.35.06c1.43,0,2.82.08,4.2.1l2.7.08.47,0,1.18,0c.72,0,1.43,0,2.14.08,2.73.16,4.8.26,6.72.31,1.15,0,2.31.11,3.44.2,1,.07,1.9.14,2.83.18l1.68.07L52,233c1.19,0,2.38.14,3.49.24l1.08.1.2,0c.72.07,1.43.14,2.15.17l1,0c.6,0,1.2,0,1.79-.05h.6c.41,0,.81,0,1.22,0a16.88,16.88,0,0,1,2.13.1c.82.08,1.65.21,2.43.33l.51.08.58.09,1.61.17,1.86.1c.55,0,1.09,0,1.64.09l.72.05c.8.07,1.74.14,2.66.17h.76c.93,0,1.86-.05,2.69-.09s1.84-.1,2.78-.1H84c1.13,0,2.32.07,3.27.11l.3,0c.89,0,1.77.08,2.66.1l1.19,0c.65,0,1.31,0,2,0H97c1,0,2,.07,3,.14h.37c1.05.07,2.14.14,3.2.14.7,0,1.34,0,2-.06h.18l1.44-.06h.55c.83,0,1.7,0,2.81.12l.24,0c1.06.09,2.1.17,3.13.21.81,0,1.62,0,2.43.05h.88c1.44,0,2.89.09,4.3.16h.11l2.35.11c1.77.08,3.53.09,5.49.11h3.33c1.76,0,3.2,0,4.54-.09,2.48-.12,4.65-.18,6.64-.18h.16l2.77,0h.7l3.73,0c2.76,0,5-.09,7-.27,2.14-.2,4.57-.44,7-.47,2.1,0,4.28-.18,6.21-.32l.68-.05.24,0c1-.07,2.19-.15,3.34-.15h3.54c1.33,0,2.54-.07,3.7-.13l1.26-.09.41,0,.35,0,1.48-.1c1.33-.08,2.4-.12,3.38-.13h.1c1.12,0,2.25.05,3.66.15l2.17.15c1.56.12,3.09.24,4.62.3l1.8.09h.25c1.41.07,2.87.14,4.3.14h.58c1.43,0,2.84-.12,4.42-.23.83-.06,1.67-.12,2.5-.16.54,0,1.08,0,1.62-.05l1.43,0,2.79-.12h.26c.63,0,1.27-.07,1.9-.07l.76,0c.46,0,.92.07,1.38.13s1,.11,1.5.13l.85,0H227a22.71,22.71,0,0,1,2.47.13,12.29,12.29,0,0,0,1.49.09c.33,0,.66,0,1-.05s.43-.07.66-.08l.25,0a4.81,4.81,0,0,1,1,.13l.14,0,.16,0,.89.17.68,0,.65,0h.19a1.37,1.37,0,0,0,.09-.4l.08-.48.12-.78a13.8,13.8,0,0,0-.12-3l0-.3c-.06-.58-.09-1.17-.12-1.76s0-1-.09-1.49l-.13-.86c-.12-.83-.24-1.69-.32-2.54s-.18-2.12-.24-3.41a24.36,24.36,0,0,1,0-3.31c.08-1,.1-2,.08-3.42q0-1.29,0-2.58c0-.51,0-1,0-1.54s0-.75,0-1.13V207c0-.33,0-.68,0-1h0Z"/><path class="cls-4" d="M42.73,4v.07h0V4h0Z"/><path class="cls-2" d="M42.53,2.12V232.23a.21.21,0,0,0,.21.21.21.21,0,0,0,.22-.21V2.12a.22.22,0,1,0-.43,0Z"/><path class="cls-2" d="M84.54,1.37V234.43a.22.22,0,0,0,.24.2.21.21,0,0,0,.2-.2V1.37a.21.21,0,0,0-.23-.2A.22.22,0,0,0,84.54,1.37Z"/><path class="cls-2" d="M126.56,1.78V238a.22.22,0,0,0,.44,0V1.78a.22.22,0,1,0-.44,0Z"/><path class="cls-2" d="M168.81,15.14V235.59a.22.22,0,0,0,.44,0V15.14a.22.22,0,1,0-.44,0Z"/><path class="cls-2" d="M210.83,62.6V234.65a.22.22,0,0,0,.44,0V62.6a.22.22,0,0,0-.44,0Z"/><path class="cls-5" d="M66.48,251.68a4.49,4.49,0,0,1,1.65,2.16V251h2.5v12.26a6.32,6.32,0,0,1-.69,3,5.12,5.12,0,0,1-2,2.06,6.06,6.06,0,0,1-3.08.75,6.64,6.64,0,0,1-4.13-1.21,5.26,5.26,0,0,1-2-3.28h2.48a3,3,0,0,0,1.19,1.68,3.89,3.89,0,0,0,2.24.61,3.43,3.43,0,0,0,2.47-.93,3.55,3.55,0,0,0,1-2.68v-2.95a4.46,4.46,0,0,1-1.65,2.15,4.76,4.76,0,0,1-2.82.82,5.37,5.37,0,0,1-2.83-.75,5,5,0,0,1-1.94-2.16,8.07,8.07,0,0,1,0-6.62,5,5,0,0,1,1.94-2.15,5.37,5.37,0,0,1,2.83-.75A4.83,4.83,0,0,1,66.48,251.68Zm-4.72,2.46a4.81,4.81,0,0,0,0,5.87,3.47,3.47,0,0,0,2.67,1.07,3.66,3.66,0,0,0,1.89-.5,3.43,3.43,0,0,0,1.32-1.4,4.41,4.41,0,0,0,.49-2.11,4.46,4.46,0,0,0-.49-2.1,3.46,3.46,0,0,0-1.32-1.41,3.65,3.65,0,0,0-1.89-.49A3.44,3.44,0,0,0,61.76,254.14Z"/><path class="cls-5" d="M73.74,246.45A1.6,1.6,0,0,1,74.9,246a1.67,1.67,0,0,1,1.18.42,1.38,1.38,0,0,1,.45,1.05,1.33,1.33,0,0,1-.45,1,1.75,1.75,0,0,1-1.18.39,1.68,1.68,0,0,1-1.16-.39,1.32,1.32,0,0,1-.44-1A1.37,1.37,0,0,1,73.74,246.45ZM76.16,251v12.12H73.65V251Z"/><path class="cls-5" d="M85.29,261v2.17H83.75a4.17,4.17,0,0,1-2.94-.93,4.09,4.09,0,0,1-1-3.11v-5.94H78.07V251h1.74v-3h2.53v3h2.92v2.14H82.34v6a2,2,0,0,0,.38,1.43,1.84,1.84,0,0,0,1.36.4Z"/><path class="cls-5" d="M97.8,252.19a5.49,5.49,0,0,1,1.28,3.89v7.06H96.57v-6.79a3.52,3.52,0,0,0-.84-2.52,2.93,2.93,0,0,0-2.28-.89,3.16,3.16,0,0,0-2.4.95,4,4,0,0,0-.9,2.81v6.44H87.64V246.86h2.51v6.82a4.09,4.09,0,0,1,1.62-2.11,4.75,4.75,0,0,1,2.65-.75A4.42,4.42,0,0,1,97.8,252.19Z"/><path class="cls-5" d="M113.18,251v12.12h-2.53v-2.63a3.91,3.91,0,0,1-1.6,2.07,4.76,4.76,0,0,1-2.67.74A4.39,4.39,0,0,1,103,262a5.46,5.46,0,0,1-1.28-3.9v-7h2.51v6.78a3.6,3.6,0,0,0,.83,2.54,3,3,0,0,0,2.29.89,3.11,3.11,0,0,0,2.4-1,4,4,0,0,0,.9-2.81V251Z"/><path class="cls-5" d="M126,251.62a5.1,5.1,0,0,1,2,2.15,8.07,8.07,0,0,1,0,6.62,5.13,5.13,0,0,1-2,2.16,5.33,5.33,0,0,1-2.82.75,4.76,4.76,0,0,1-2.82-.82,4.25,4.25,0,0,1-1.63-2.15v2.81h-2.5V246.86h2.5v7a4.28,4.28,0,0,1,1.63-2.16,4.83,4.83,0,0,1,2.82-.81A5.33,5.33,0,0,1,126,251.62Zm-5.48,1.94a3.46,3.46,0,0,0-1.32,1.41,4.77,4.77,0,0,0,0,4.21,3.43,3.43,0,0,0,1.32,1.4,3.6,3.6,0,0,0,1.89.5,3.52,3.52,0,0,0,2.68-1.07,4.75,4.75,0,0,0,0-5.86,3.5,3.5,0,0,0-2.68-1.08A3.6,3.6,0,0,0,120.49,253.56Z"/><path class="cls-5" d="M133,260.37v2.77h-2.84v-2.77Z"/><path class="cls-5" d="M144.51,252.11a5.36,5.36,0,0,1,1.91,3.38h-2.66a2.83,2.83,0,0,0-1.07-1.79,3.33,3.33,0,0,0-2.12-.65,3.2,3.2,0,0,0-2.42,1,4.23,4.23,0,0,0-1,3,4.3,4.3,0,0,0,1,3,3.18,3.18,0,0,0,2.42,1,3.33,3.33,0,0,0,2.12-.66,2.88,2.88,0,0,0,1.07-1.8h2.66a5.41,5.41,0,0,1-1.91,3.39,6,6,0,0,1-3.89,1.25,6.32,6.32,0,0,1-3.12-.75,5.32,5.32,0,0,1-2.12-2.16,7.5,7.5,0,0,1,0-6.62,5.29,5.29,0,0,1,2.12-2.15,6.32,6.32,0,0,1,3.12-.75A6,6,0,0,1,144.51,252.11Z"/><path class="cls-5" d="M157.56,251.62a5.33,5.33,0,0,1,2.19,2.15,7.25,7.25,0,0,1,0,6.62,5.36,5.36,0,0,1-2.19,2.16,6.65,6.65,0,0,1-3.17.75,6.56,6.56,0,0,1-3.16-.75,5.47,5.47,0,0,1-2.2-2.17,7.23,7.23,0,0,1,0-6.61,5.48,5.48,0,0,1,2.2-2.15,6.56,6.56,0,0,1,3.16-.75A6.65,6.65,0,0,1,157.56,251.62Zm-4.95,1.87a3.17,3.17,0,0,0-1.31,1.35,5.27,5.27,0,0,0,0,4.48,3.2,3.2,0,0,0,1.31,1.34,3.82,3.82,0,0,0,3.56,0,3.26,3.26,0,0,0,1.31-1.34,5.36,5.36,0,0,0,0-4.48,3.22,3.22,0,0,0-1.31-1.35,3.82,3.82,0,0,0-3.56,0Z"/><path class="cls-5" d="M181.57,252.19a5.45,5.45,0,0,1,1.29,3.89v7.06h-2.51v-6.79a3.56,3.56,0,0,0-.79-2.46,2.81,2.81,0,0,0-2.18-.87A3.06,3.06,0,0,0,175,254a3.93,3.93,0,0,0-.86,2.74v6.44h-2.51v-6.79a3.56,3.56,0,0,0-.79-2.46,2.81,2.81,0,0,0-2.18-.87,3.06,3.06,0,0,0-2.35.94,3.88,3.88,0,0,0-.86,2.74v6.44H163V251h2.51v2.53a3.8,3.8,0,0,1,1.54-2,4.5,4.5,0,0,1,2.53-.71,4.56,4.56,0,0,1,2.62.75,4.21,4.21,0,0,1,1.62,2.16,4.34,4.34,0,0,1,1.7-2.13,4.61,4.61,0,0,1,2.64-.78A4.52,4.52,0,0,1,181.57,252.19Z"/><g id="Layer_2-2" data-name="Layer 2"><g id="Draw_Layer-2" data-name="Draw Layer"><path class="cls-5" d="M124.71,50.4h-.14c-.2,0-.4,0-.6,0l-.55,0h-1.31c-.46,0-.92,0-1.35,0l-.46,0c-.49,0-1,.05-1.5.05h-.86a4.18,4.18,0,0,0-.52,0,10.82,10.82,0,0,0-1.14.18l-.15,0a13.43,13.43,0,0,1-1.68.13,17.74,17.74,0,0,0-1.79.14c-.42.06-.84.09-1.25.12l-1,.09c-.48.05-1,.15-1.43.24l-.59.12-.42.06c-.49.07-1,.15-1.48.25l-.53.13-.26.07-.6.14-.32,0c-.44.11-.9.2-1.34.28l-.28,0-.83.17-.69.18-.33.1c-.56.15-1.17.28-1.92.42-.3,0-.64.12-1,.2a7.2,7.2,0,0,0-.9.28l-.12,0-.88.29c-.3.09-.64.19-1,.31a15.54,15.54,0,0,0-2.16,1c-.48.26-1,.52-1.43.76s-1.09.44-1.62.64c-.29.11-.57.23-.86.33-.86.34-1.71.67-2.59.92l-.15,0-1.12.35a13.5,13.5,0,0,0-1.52.63l-1.24.61-1.31.65-.53.22c-.34.15-.69.3-1,.46a14.42,14.42,0,0,0-1.63.91l-.57.35c-.3.2-.6.39-.92.58s-.7.4-1.06.58l-.54.3a13.27,13.27,0,0,0-1.64,1L72,66.18c-1,.72-1.9,1.41-2.76,2.12l-.39.32-.64.53c-.31.25-.6.53-.87.79-.44.43-.92.86-1.41,1.28a19.48,19.48,0,0,0-1.66,1.48c-.51.53-.94,1-1.4,1.4l-.28.28-.35.34a6.3,6.3,0,0,0-.48.55l-.09.11-.52.69c-.26.33-.53.69-.8,1A23.07,23.07,0,0,0,58.9,79a9.71,9.71,0,0,0-.55.92l-.29.49-.29.5-.51.86,0,.09-.32.54-.26.45-.19.32c-.26.46-.53.92-.81,1.36l-.08.14a8.06,8.06,0,0,0-.48.8,8.84,8.84,0,0,0-.44,1.11l-.08.2,0-.07c-.07.21-.15.42-.23.63-.14.38-.26.69-.38,1s-.17.35-.25.53-.23.48-.33.72-.26.69-.38,1c0,.13-.08.27-.13.4l-.18.56c-.06.19-.12.38-.19.57-.17.44-.37.86-.57,1.27l-.06.12c-.15.32-.27.57-.36.81s-.19.57-.29.85l-.07.18c-.12.37-.21.75-.31,1.12-.05.21-.1.42-.16.62-.14.53-.32,1-.49,1.52l-.14.39c-.18.47-.36,1-.53,1.45s-.23.69-.33,1-.18.56-.28.84a15.27,15.27,0,0,0-.49,1.91c-.08.43-.15.87-.23,1.3,0,.24-.07.49-.12.73s-.09.56-.13.84-.13.81-.21,1.21c-.12.66-.23,1.34-.29,2-.14,1.38-.22,2.8-.29,4.17V115c0,.51-.06,1-.07,1.54s0,1.22,0,1.93c0,.42,0,.85,0,1.26l0,.62c0,.69.05,1.38.05,2,0,.33,0,.67,0,1s0,.59,0,.89c0,.55,0,1.1.1,1.65.12,1,.3,2,.46,3l.1.57,0,.26c.1.63.19,1.27.33,1.9.1.46.21.94.32,1.4.06.23.11.46.16.69.19.76.34,1.55.48,2.31.12.59.23,1.2.37,1.8.32,1.5.59,2.75.91,4a28.1,28.1,0,0,0,1.22,3.91c.4,1,.74,1.77,1.06,2.49h0v0l.07.15c.31.69.61,1.3.91,1.9.19.34.37.69.56,1l.43.79c.2.37.39.76.57,1.13l.29.59c.1.19.2.38.31.57l.17.32.44.8.07.12c.27.5.58,1,1,1.7l.56.91c.19.31.37.56.53.84.28.45.55.9.81,1.36l.26.44a20.18,20.18,0,0,0,1.14,1.75c.56.76,1.21,1.47,1.83,2.16l.8.88c.34.39.69.76,1,1.12l.35.37c.48.51,1,1,1.42,1.44L67.7,170l.12.12c.44.46.92.9,1.52,1.42s1.1,1,1.61,1.38l.69.57.85.69c.29.23.52.44.78.67l.81.69c.54.44,1.09.85,1.55,1.2.26.18.51.38.76.57l.8.61.48.35c.43.33.87.65,1.33,1s1.15.74,1.81,1.11l.87.46.86.46c.11.05.21.12.32.18l.47.26c.24.13.5.23.74.34l.28.12c.48.21.94.46,1.4.69l.21.11c.69.37,1.45.73,2.36,1.15.3.14.62.26.93.38l.57.23c.43.17.88.34,1.38.51.23.09.46.18.7.29s.61.26.92.37.76.23,1.13.34l.6.16.36.1c.46.14,1,.28,1.44.38s1.07.29,1.58.46l.18.06c.48.18,1,.4,1.42.61l1,.46a.87.87,0,0,0,.28.05h.1v.1a.75.75,0,0,0,.74.71h0a.74.74,0,0,0,.7-.77c0-1-.06-1.91-.06-2.73v-1.22c0-.17,0-.35,0-.53s0-.46,0-.68v-1.6c0-.29,0-.58,0-.86,0-.92.07-1.74.07-2.57v-.15c0-.49,0-1,0-1.5,0-.21.06-.42.08-.63s.05-.34.07-.51a2.48,2.48,0,0,1,0-.27l0-.3c0-.1,0-.13,0-.2a2.67,2.67,0,0,0,.06-.56,1,1,0,0,0-.62-.85,1.39,1.39,0,0,0-.63-.12h-.21a7.51,7.51,0,0,0-1.06.15l-.17,0a15.17,15.17,0,0,1-1.68.19h0a4.78,4.78,0,0,0-.76.09l-.45.12-.18.06c-.22.07-.43.14-.66.19a4.08,4.08,0,0,1-.61,0h-.29l-.44,0-.75,0H94a6.3,6.3,0,0,0-.75,0l-.37,0-.32,0c-.23,0-.45,0-.66,0h-.09c-.48-.06-1-.11-1.47-.22a14.72,14.72,0,0,1-1.58-.42,6.15,6.15,0,0,1-1.15-.64,12,12,0,0,1-2-1.68,18.64,18.64,0,0,1-1.29-2c-.16-.29-.32-.6-.48-.91a.76.76,0,0,0-.09-.18c-.17-.34-.35-.71-.54-1.12l-.08-.19c-.23-.52-.46-1.05-.7-1.58l-.39-.79-.35-.74a6.6,6.6,0,0,1-.33-.77c-.1-.26-.21-.5-.32-.74s-.33-.69-.5-1-.27-.52-.39-.78-.19-.44-.28-.66a12.17,12.17,0,0,0-.89-1.9,9.67,9.67,0,0,0-.65-.89l-.2-.27c-.35-.46-.67-.84-1-1.2s-.55-.62-.84-.92l0,0c-.29-.3-.58-.61-.89-.89a12.82,12.82,0,0,0-1.07-.88l-.76-.53-.51-.34.16.11-.14-.1a3,3,0,0,1-.42-.31,7.37,7.37,0,0,1,.41-.79v0l.09,0,.14-.05h.39a4.76,4.76,0,0,1,.52.1,7.55,7.55,0,0,1,1,.52c.26.19.49.39.76.62a9.05,9.05,0,0,0,.87.66l.23.16.45.33.34.22.19.12a20.49,20.49,0,0,1,1.89,1.6,8.05,8.05,0,0,1,.63.68l.31.35.4.42.54.58.26.3c.52.6,1.07,1.22,1.64,1.8.36.36.7.72,1.07,1.05a7.68,7.68,0,0,0,1.31.95,9.94,9.94,0,0,0,1,.54c.33.16.77.36,1.23.55a21.53,21.53,0,0,0,2.57.86c.4.11.76.19,1.09.25l.73.1.58.08.41.07.92.14c.36,0,.73.06,1.08.08h.3c.4,0,.79.11,1.18.18l.2,0c.57.09,1.15.15,1.62.19l.77.07H100a3,3,0,0,0,.42,0c.2,0,.4-.06.6-.1a1.73,1.73,0,0,0,.73-.45,1.79,1.79,0,0,0,.23-.25,2.9,2.9,0,0,0,.44-.81c.15-.36.32-.7.46-1l.27-.56c.22-.46.44-.92.68-1.36a18.75,18.75,0,0,1,1-1.75c.23-.3.46-.63.73-1a14.79,14.79,0,0,1,.95-1.21,10.89,10.89,0,0,1,.93-1,6.68,6.68,0,0,1,.67-.41l.07,0a6.17,6.17,0,0,0,.6-.39l.27-.19a14.88,14.88,0,0,1,1.4-.8l.14,0,.13-.06h0a2.46,2.46,0,0,1,.38-.14,1.3,1.3,0,0,0,.33-.07,1,1,0,0,0,.68-1.3,1.22,1.22,0,0,0-.1-.24l-.09-.1-.09-.11-.07-.06a.72.72,0,0,0-.53-.85l-.26-.05-1.12-.25-.82-.25-.48-.15a12.71,12.71,0,0,0-1.49-.31c-.35-.06-.71-.12-1-.2l-.23-.05c-.31-.08-.62-.15-.94-.21l-.43-.07q-.48-.07-1-.18c-.37-.08-.78-.19-1.28-.34l-.54-.18c-.26-.08-.53-.17-.81-.24l-.8-.19-.31-.06c-.38-.09-.75-.19-1.12-.31a26.4,26.4,0,0,1-2.5-1.24A26.29,26.29,0,0,1,93.53,144l-.27-.2c-.55-.39-1.12-.8-1.66-1.24-.74-.59-1.45-1.24-2.08-1.81l-.23-.21c-.23-.22-.48-.44-.74-.65l-.35-.28c-.24-.2-.5-.4-.73-.61a18.17,18.17,0,0,1-1.68-1.72l-.5-.64c-.15-.21-.31-.41-.47-.61-.29-.38-.6-.74-.9-1.09l-.33-.38c-.23-.3-.49-.6-.71-.92a15.44,15.44,0,0,1-.8-1.35c-.39-.75-.75-1.5-1.16-2.41a26.34,26.34,0,0,1-1.5-4.41c-.39-1.58-.7-2.91-1-4.27-.06-.39-.1-.71-.13-1s0-.66-.07-1V119a17.78,17.78,0,0,1,0-2.19,25,25,0,0,1,.51-2.85l0-.1c.22-1,.44-1.93.75-2.86.23-.62.41-1.13.57-1.68l.1-.36c.13-.45.26-.91.41-1.35a7.61,7.61,0,0,1,.39-.88c.12-.22.26-.44.4-.65.36-.49.76-1,1.1-1.34l.23-.28c.27-.3.54-.61.79-.94.37-.51.72-1,1.06-1.36l.08-.11a8.28,8.28,0,0,1,.75-.82l.35-.23.11-.07.21-.13a1.79,1.79,0,0,0,.56-.57,1.32,1.32,0,0,0,.14-1.11,4,4,0,0,0-.17-.36l-.08-.15-.15-.34a3.18,3.18,0,0,1-.14-.53l0-.08v-.08c-.06-.41-.11-.83-.16-1.23s-.08-.71-.13-1.07c-.13-.88-.21-1.57-.25-2.21,0-.42,0-.85,0-1.27v-1c0-.32,0-.65,0-1l0-.25a9.33,9.33,0,0,1,0-1.18v-.18c.08-.77.23-1.53.37-2.28l.15-.75a11,11,0,0,1,.41-1.52l.18-.63c.06-.21.1-.37.16-.55A3.59,3.59,0,0,1,87.1,82a3.78,3.78,0,0,0,.17-.35,7.85,7.85,0,0,1,.51-1,3.73,3.73,0,0,1,.35-.34l.19-.13h.4a2.33,2.33,0,0,0,.38,0h.12a4.48,4.48,0,0,1,.64,0h.07l.9.13a6,6,0,0,1,.82.18l.54.23.39.22.35.19a4.67,4.67,0,0,0,.88.33l.16,0,.39.11a2.34,2.34,0,0,1,.44.19l.35.18.2.11.1,0c.32.17.63.33.93.52a6.41,6.41,0,0,0,1,.46,6.63,6.63,0,0,1,1,.54l.25.18a6.57,6.57,0,0,0,.92.64l.29.15.21.1a4.71,4.71,0,0,1,.48.29l0,0c.16.11.32.23.49.33l.46.31.28.23.4.3c.17.12.36.23.53.34l.37.23a12.65,12.65,0,0,1,1,.89l.27.25.1.1a1.34,1.34,0,0,0,.57.29l.26,0a1.47,1.47,0,0,0,.36,0,1.08,1.08,0,0,0,.45-.2l0,0a.55.55,0,0,1,.14-.09c.13-.06.25-.13.37-.2l.26-.15a4.84,4.84,0,0,1,.51-.14c.42-.06.83-.08,1.18-.11h.55c.26,0,.54,0,.86,0a7.41,7.41,0,0,0,.78,0,5.52,5.52,0,0,0,.58,0c.46,0,.92-.1,1.37-.18a11.13,11.13,0,0,1,1.28-.08h.32c.2,0,.4,0,.6,0l.8,0h.37a15.06,15.06,0,0,0,1.66.14l1.73.1h-.09c.37,0,.75,0,1.25.06s.71,0,1,0h.2c.28,0,.57,0,.85,0h1l.17,0a8.14,8.14,0,0,0,1,.09h0a2.73,2.73,0,0,0,.41,0l.46,0h0c.23,0,.44,0,.66,0l.46,0h.43l.46,0,.49.07.33.07.3.06a7.47,7.47,0,0,0,1.06.11h.15c.14,0,.28,0,.42.06l.15,0a8.67,8.67,0,0,0,1,.1,3.78,3.78,0,0,1,.67.13l.2.08.21.07h0a2.78,2.78,0,0,0,.38.12,5.77,5.77,0,0,0,.58.08l.29,0a4.59,4.59,0,0,1,.51.1l.4.09a7.93,7.93,0,0,0,1,.07H136l.18,0,.19,0A2.78,2.78,0,0,0,137,89h.25a2.33,2.33,0,0,0,.37,0h.05a1.48,1.48,0,0,0,.35-.13l.1,0,.16-.1.19-.13.07,0a5.51,5.51,0,0,0,1-.89l.15-.17c.1-.11.2-.23.3-.32l.28-.26a12.45,12.45,0,0,1,2-1.33c.54-.22,1.1-.42,1.66-.59a12.36,12.36,0,0,0,1.67-.72l.34-.17.44-.17.46-.18.4-.18.53-.23c.36-.14.74-.26,1.08-.37l1-.35.11,0,.26-.1.77-.29.71-.31.29-.13a8.62,8.62,0,0,1,1.92-.5l1-.1H155a7,7,0,0,1,.8,0h0l.21,0,.53.06h.5l.16,0,.18,0,.19,0a.25.25,0,0,1,.12,0l.17.09a3.88,3.88,0,0,1,.31.26c0,.1.05.21.07.31a3.41,3.41,0,0,0,.1.46l.05.17c0,.06,0,.14.06.21s.11.38.15.57l0,.09,0,.1a16.68,16.68,0,0,1,.16,2c0,.34,0,.69.05,1s0,.86,0,1.29c0,.72,0,1.44.09,2.28a19.71,19.71,0,0,1,.05,2.17c0,.14,0,.27,0,.4,0,.3-.07.6-.11.88l-.06.38-.06.51c0,.26-.07.53-.11.8a8.09,8.09,0,0,0-.11,1.55q0,.61,0,1.23a2.5,2.5,0,0,0,0,.29l-.06.27c0,.1,0,.15,0,.22l0,.14c0,.13,0,.25,0,.37a.1.1,0,0,1,0,.07,2,2,0,0,0,0,.42,1.32,1.32,0,0,0,.07.49,2.08,2.08,0,0,0,.49.75,4.51,4.51,0,0,0,.39.37c.13.12.25.23.37.36a11.55,11.55,0,0,1,.79,1.18c.1.17.2.34.31.51s.39.66.57,1,.44.85.63,1.28l.15.31c.09.19.18.37.26.55l.37.76c.21.48.41,1,.58,1.47s.33,1.1.49,1.64l.08.25a35.68,35.68,0,0,1,.79,3.55c0,.14.05.28.07.42.06.39.1.79.14,1.17,0,.14,0,.28,0,.42,0,.37.07.73.11,1.09l.06.7c0,.24,0,.46.07.68s.07.66.1,1a10.58,10.58,0,0,1,0,1.78c-.08.82-.17,1.5-.27,2.14-.06.32-.12.65-.19,1l0,.23,0,.21c-.06.31-.13.64-.22.95s-.23.72-.34,1.07-.28.83-.39,1.25c-.08.27-.15.56-.21.84s-.16.68-.27,1c-.09.2-.2.4-.3.59l-.15.26-.15.31a1.78,1.78,0,0,1-.12.24,3.7,3.7,0,0,1-.25.43l-.62.88-.23.34c-.14.2-.27.4-.4.6l-.28.44c-.14.19-.28.37-.43.55s-.3.42-.44.63l-.1.13c-.33.46-.71.94-1.19,1.49a10,10,0,0,1-.71.77,5.23,5.23,0,0,1-.49.45l-.18.16-.75.57-.72.45-.35.2c-.32.2-.64.43-.94.65l-.23.16-.74.54-.38.29-.4.31c-.2.15-.39.31-.6.46s-.65.41-1,.6l-.1.05c-.77.46-1.61.89-2.55,1.34-.39.18-.77.39-1.13.6s-.66.38-1,.55l-.28.13c-.46.2-.87.38-1.23.57l-.11,0-.6.3-.16.08a5,5,0,0,1-.82.28l-.59,0h-.08a4.4,4.4,0,0,0-.8.11l-.11,0a7.35,7.35,0,0,0-1,.2,3.82,3.82,0,0,0-.72.31l-.15.07a4.72,4.72,0,0,1-.89.25c-.23,0-.46.08-.68.12h.05l-.53.11-.3.06-.41.1-.34.09-.8.13-.44.11-.18,0-.37.06a.85.85,0,0,0-.17.06l-.11,0-.12,0a2.11,2.11,0,0,0-.69.18,1.61,1.61,0,0,1-.29.09l-.09,0a.85.85,0,0,0-.43.25,1,1,0,0,0-.53.18,1,1,0,0,0-.5.95,1.06,1.06,0,0,0,.58.92,1.33,1.33,0,0,0,.28.1l.15.08.42.4.13.13a7.1,7.1,0,0,1,.62.68l.2.23c.14.17.28.35.44.51s.31.31.47.46l.27.25c.33.32.77.74,1.19,1.21l.15.18c.14.16.28.32.44.48s.32.33.45.48a9.35,9.35,0,0,1,.63,1l.1.17.69,1.2c.13.23.25.47.37.71l.23.44.56,1.07c.12.31.23.62.32.94s.24.79.38,1.16a9.25,9.25,0,0,1,.37,1l.1.38c.06.25.13.5.2.75s.21.72.34,1.11.16.51.23.77l.05.17c.17.63.34,1.31.46,2,.06.46.13.92.19,1.39l.09.74v.15c0,.23,0,.46,0,.67v.29c0,.49,0,1,.05,1.49,0,.19,0,.39,0,.59,0,.37,0,.76,0,1.14s0,.62,0,.92v.76c0,.64,0,1.26.08,1.78a11,11,0,0,1,0,1.15c0,.14,0,.27,0,.41v.65c0,.34,0,.7,0,1.05s-.13.79-.21,1.17l-.09.46a7.53,7.53,0,0,0-.11.83,2.16,2.16,0,0,0,0,.36,1.77,1.77,0,0,0,.19.63,1.27,1.27,0,0,0,.45.41,1.21,1.21,0,0,0,.56.16h.07a2.22,2.22,0,0,0,.83-.25,2.47,2.47,0,0,0,.42-.3l.09-.07a2.8,2.8,0,0,1,.49-.3l.41-.18.52-.19.3-.12c.38-.14.74-.3,1.09-.45l.44-.2c.3-.12.6-.25.89-.39s.39-.22.58-.33.37-.23.56-.32.57-.25.84-.39l.31-.18c.16-.1.33-.2.51-.29l.64-.25,0,0a9.26,9.26,0,0,0,1.19-.57l.32-.2.14-.08a4,4,0,0,1,.46-.23l.31-.15.56-.27a14.35,14.35,0,0,0,1.64-1c.46-.3.95-.61,1.45-.88l.43-.23.34-.17a8.85,8.85,0,0,0,.84-.5c.36-.23.71-.5,1.06-.75s.48-.36.73-.53.55-.35.83-.51a8.77,8.77,0,0,0,.75-.46,16.9,16.9,0,0,0,1.5-1.18l.19-.16c.69-.58,1.33-1.17,2-1.78a27.94,27.94,0,0,0,2-2c.59-.64,1.19-1.3,1.76-2,.27-.31.59-.69.9-1.09s.64-.86.92-1.27c.48-.67,1-1.33,1.45-1.95s.81-1.12,1.19-1.67l.23-.35c.2-.28.41-.55.62-.83l.51-.67c.13-.19.27-.37.41-.55.29-.39.6-.8.88-1.21a35.35,35.35,0,0,0,2-3.38c.46-.87.92-1.76,1.36-2.63l.41-.81c.11-.21.22-.41.32-.62.22-.4.44-.82.64-1.25s.44-1,.63-1.49l.17-.43c.26-.67.49-1.36.69-2s.32-1.12.45-1.68c.19-.78.43-1.57.66-2.33.13-.43.26-.85.38-1.28s.25-1,.36-1.43l.1-.45.21-.83c.09-.33.17-.65.25-1s.25-1.09.34-1.72c0-.27.06-.55.09-.83l.09-.83c.09-.58.2-1.17.32-1.73s.17-.88.25-1.33.12-.93.16-1.38l0-.33v0l.15-1.59,0-.43c.06-.55.12-1.12.16-1.68l0-.21.06-.65c0-.21,0-.42.07-.62,0-.38.08-.78.11-1.16s.05-.81.07-1.2c0-.23,0-.46,0-.71,0-.47,0-.94.07-1.41l0-.59,0-.46c0-.52.06-1,.06-1.57a34.25,34.25,0,0,0-.26-3.92c0-.37-.07-.74-.11-1.11l-.09-1c0-.28-.07-.55-.11-.83s-.1-.73-.13-1.09,0-.59,0-.88-.05-.78-.08-1.17-.07-.63-.11-.93-.08-.52-.12-.78l0-.2c-.14-.81-.26-1.43-.39-2-.05-.22-.12-.43-.18-.64l-.09-.3,0-.07c-.08-.28-.16-.56-.22-.85l0-.14c-.13-.51-.27-1-.42-1.56s-.35-1.14-.53-1.7-.35-1.06-.53-1.57l-.11-.34c-.21-.6-.46-1.24-.76-2s-.69-1.42-1.08-2.11-.71-1.27-1.1-1.92c-.17-.28-.35-.55-.53-.83s-.36-.56-.54-.85c-.44-.73-.79-1.34-1.1-1.91l-.21-.39c-.26-.49-.54-1-.85-1.47s-.53-.78-.81-1.15c-.14-.19-.29-.38-.43-.58-.25-.35-.49-.69-.72-1.05l-.38-.55A16.5,16.5,0,0,0,176,79.26l-.32-.36-.87-1c-.38-.46-.8-.92-1.28-1.4l-.74-.72-.66-.65c-.41-.41-.81-.83-1.21-1.24l-.17-.18c-.37-.38-.77-.75-1.16-1.11l-.16-.15L167.79,71l-1.23-1.15c-1.5-1.39-3.06-2.84-4.64-4.2-.39-.34-.7-.59-1-.82s-.77-.57-1.16-.84l-.06,0c-.69-.51-1.36-1.07-1.94-1.56a18.09,18.09,0,0,0-2.36-1.73c-.21-.14-.44-.26-.65-.39l-.43-.24c-.35-.21-.71-.42-1.1-.67a11.12,11.12,0,0,0-2.15-.94h0a12.32,12.32,0,0,1-1.33-.61l-1.24-.69-.21-.11a30.22,30.22,0,0,0-2.88-1.5c-.29-.13-.58-.24-.87-.36l-.55-.23c-.44-.19-.88-.4-1.3-.61l-.1,0a10.05,10.05,0,0,0-1.65-.64l-.5-.14-.9-.26c-.37-.15-.74-.32-1.1-.48l-.44-.2a4.79,4.79,0,0,0-.76-.3l-.15-.05-.58-.2-.2-.08a15,15,0,0,0-1.48-.45,11.35,11.35,0,0,0-1.53-.25,12.87,12.87,0,0,1-1.53-.27l-.46-.12a7.79,7.79,0,0,0-1-.2c-.31,0-.61-.06-.92-.07h-1.74c-.3,0-.6,0-.88,0l-.76,0h-.18A10,10,0,0,0,124.71,50.4Z"/><path class="cls-5" d="M50.52,56.08a9.81,9.81,0,0,0-3.41.86,10.45,10.45,0,0,0-1.42.71c-.2.12-.38.26-.57.4s-.53.41-.78.62A7.28,7.28,0,0,0,43.19,60a7.36,7.36,0,0,0-.74,1.52A9.25,9.25,0,0,0,42.06,63a8.66,8.66,0,0,0-.15,1.76,10.85,10.85,0,0,0,.23,1.7,6.22,6.22,0,0,0,.25.87,6.06,6.06,0,0,0,.67,1.19,12,12,0,0,0,.77,1,6.4,6.4,0,0,0,1,.89c.16.13.33.25.5.37a4.09,4.09,0,0,0,.88.46,5.72,5.72,0,0,0,2.17.36c.23,0,.46,0,.7,0a12.63,12.63,0,0,0,1.62-.23,11.35,11.35,0,0,0,1.7-.58,4.81,4.81,0,0,0,1.78-1.24,8.35,8.35,0,0,0,.69-.88,6.14,6.14,0,0,0,.48-1,11.78,11.78,0,0,0,.56-1.71,10.52,10.52,0,0,0,.28-1.68,8.92,8.92,0,0,0,0-1.55A10,10,0,0,0,55.81,61c0-.15-.09-.29-.14-.43a6.34,6.34,0,0,0-.23-.74,11.14,11.14,0,0,0-.72-1.57,5.94,5.94,0,0,0-.56-.85,3.56,3.56,0,0,0-1-.92A3.69,3.69,0,0,0,51.27,56a6.28,6.28,0,0,0-.75,0Z"/><path class="cls-5" d="M65.88,57.27a3.87,3.87,0,0,0-.95.29,1.5,1.5,0,0,0-.46.33.94.94,0,0,0-1,.66A8.24,8.24,0,0,0,63,60.8a2.72,2.72,0,0,0,.12.8,2.24,2.24,0,0,0,.32.66,3,3,0,0,0,.28.33,1.64,1.64,0,0,0,.33.26,1.91,1.91,0,0,0,.82.31,4.55,4.55,0,0,0,.52,0,3.43,3.43,0,0,0,.56-.07,3.39,3.39,0,0,0,1-.31,3.25,3.25,0,0,0,1.41-1.26,2.89,2.89,0,0,0,.4-1.46,2.22,2.22,0,0,0,0-.37v0a2.27,2.27,0,0,0-.29-1.61,1.71,1.71,0,0,0-.67-.58,2.84,2.84,0,0,0-1-.25,1.67,1.67,0,0,0-.32,0,5.09,5.09,0,0,0-.56,0Z"/><path class="cls-5" d="M190.34,151.14a2.09,2.09,0,0,0-.72.23,2.24,2.24,0,0,0-.79.74,2,2,0,0,0-.36,1.07,1.21,1.21,0,0,0,0,.38v.09a3,3,0,0,0,0,.73,2.25,2.25,0,0,0,.19.57,1.58,1.58,0,0,0,.52.54,2,2,0,0,0,.56.28,2.18,2.18,0,0,0,.84.13,3.06,3.06,0,0,0,1.57-.69,2.5,2.5,0,0,0,.33-.32,3.12,3.12,0,0,0,.39-.56,2.41,2.41,0,0,0,.23-1,2,2,0,0,0,0-.55,1.92,1.92,0,0,0-.09-.32,2.3,2.3,0,0,0-.93-1.27,2,2,0,0,0-.87-.18,6.11,6.11,0,0,0-.85.08Z"/><path class="cls-5" d="M190.54,161a2.79,2.79,0,0,0-1.34.5,2.83,2.83,0,0,0-.77.81,3.51,3.51,0,0,0-.41,1.37,3.21,3.21,0,0,0-.09.61,3.77,3.77,0,0,0,0,.89,1.74,1.74,0,0,0,.26.65,2,2,0,0,0,.57.56l.23.11a3.12,3.12,0,0,0,.48.18,3.17,3.17,0,0,0,1.53,0,4,4,0,0,0,.69-.23,2.84,2.84,0,0,0,1.25-1,3.05,3.05,0,0,0,.38-.74,4.91,4.91,0,0,0,.23-1.47,2.34,2.34,0,0,0-.7-1.65,4,4,0,0,0-.52-.4,2.06,2.06,0,0,0-1-.27h0a6.46,6.46,0,0,0-.78.07Z"/><path class="cls-5" d="M196.94,156.87a1.83,1.83,0,0,0-1.41,1.65v.06a1.42,1.42,0,0,0,0,.71,1.75,1.75,0,0,0,.12.32,1.3,1.3,0,0,0,.23.33l.26.21a2.54,2.54,0,0,0,.38.16,2.48,2.48,0,0,0,.94,0,2.07,2.07,0,0,0,.88-.46,1.94,1.94,0,0,0,.63-1,2.26,2.26,0,0,0,0-.82,1.36,1.36,0,0,0-.14-.43,1,1,0,0,0-.3-.38.73.73,0,0,0-.23-.16l-.24-.11a1.64,1.64,0,0,0-.44-.09h-.29a2.31,2.31,0,0,0-.37,0Z"/></g></g></g></g></svg>