<svg xmlns="http://www.w3.org/2000/svg" viewBox="0 0 403.26 452.5" xmlns:v="https://vecta.io/nano"><path d="M306.34 450.5l.9-5.1.07-4.6V438c.05-.6.05-1.18.05-1.77a46.33 46.33 0 0 0 0-5l-.38-7.75v-3.32l-.05-4-.2-5-.13-2.56-.23-6.5v-1.23l-.14-2.92-.07-.65-.4-3.24q-.4-3.06-.83-6.06c-.5-2.93-1.26-5.87-2-8.6l-.2-.77-1-3.34-1.5-4.82-.86-3.28-.43-1.67a41.6 41.6 0 0 0-1.6-4.33l-1.68-5.05a36.77 36.77 0 0 0-1.39-4.11l-3.43-6.6-1.62-3.08-3.43-5.98a41.31 41.31 0 0 0-2.73-4.32l-2-2.12-1.9-2.1-.66-.76c-1.8-2.05-3.73-3.9-5.2-5.3l-1.15-1.07-2.06-2-1.92-2.22-.84-1a37.33 37.33 0 0 0-2.71-3l-.6-.6-1.83-1.74-.63-.33a6.9 6.9 0 0 1-1.25-.45 4.67 4.67 0 0 1-2.52-4 4.73 4.73 0 0 1 2.19-4.15 4.62 4.62 0 0 1 2.3-.78 3.87 3.87 0 0 1 1.88-1.1l.38-.1a9.76 9.76 0 0 0 1.28-.36 6.72 6.72 0 0 1 1.46-.54c.5-.12 1-.2 1.56-.27l.5-.1.46-.17a5.32 5.32 0 0 1 .77-.25c.53-.12 1.05-.2 1.58-.27l.8-.2 1.92-.48 3.5-.6 1.5-.38 1.75-.43 1.32-.28 2.32-.48H285l2.94-.5a20.69 20.69 0 0 0 3.88-1.09l.67-.33a18.74 18.74 0 0 1 3.13-1.33 35.36 35.36 0 0 1 4.45-.88l.48-.1a22.9 22.9 0 0 1 3.49-.49h.32c.9 0 1.73-.05 2.6-.15a22.36 22.36 0 0 0 3.56-1.23 4.37 4.37 0 0 1 .69-.33l2.62-1.3.47-.24 5.36-2.48 1.22-.55 4.35-2.38 4.92-2.65a124.1 124.1 0 0 0 11.13-5.81l.42-.24 4.24-2.6 4.35-3.36 1.66-1.23 3.23-2.38 1-.7c1.3-1 2.68-1.94 4.08-2.8l1.5-.9 3.14-1.95 3.27-2.46.8-.72 2.14-1.94 3.06-3.35 5.2-6.48.4-.6 1.94-2.72 1.85-2.4 1.24-1.93 1.72-2.6 1-1.47 2.7-3.85a17.64 17.64 0 0 0 1.12-1.86l.5-1.05.67-1.36.62-1.13 1.33-2.57 1.16-4.55.9-3.66 1.7-5.4 1.5-4.67c.4-1.36.68-2.77.94-4.14l.38-1.9.8-4.22 1.18-9.32a49.74 49.74 0 0 0 0-7.72l-.43-4.33-.3-3-.28-3.06-.45-4.72-.2-1.84-.6-5.12-.3-1.83a153.91 153.91 0 0 0-3.47-15.45l-.32-1.1-2.16-7.12a64.31 64.31 0 0 0-2.53-6.42l-2.72-5.7-.64-1.37-2.75-5.57-2.5-4.3-1.33-2.22a51 51 0 0 0-3.44-5.17c-.5-.54-1-1-1.62-1.54l-1.7-1.6a9.32 9.32 0 0 1-2.12-3.27 5.72 5.72 0 0 1-.32-2.13 8.11 8.11 0 0 1 .2-1.84.48.48 0 0 0 .07-.3 14.24 14.24 0 0 1 .18-1.6l.12-.62.18-1 .24-1.2.24-1.26a52.64 52.64 0 0 0 0-5.33 33.92 33.92 0 0 1 .47-6.75l.47-3.52.28-2.2.24-1.64.5-3.84.16-1.73a80.74 80.74 0 0 0-.19-9.46l-.38-9.93-.24-5.64-.2-4.42a67.17 67.17 0 0 0-.72-8.73l-.07-.43-.08-.4a20.58 20.58 0 0 0-.66-2.45l-.27-.92-.2-.74a15.15 15.15 0 0 1-.43-2 10.84 10.84 0 0 0-.31-1.37l-1.36-1.1-.75-.42a.93.93 0 0 0-.49-.09l-.85.02-.8-.1q-.35 0-.7-.12h-2.17l-2.3-.28-.9-.1h-.2c-1.16 0-2.35.1-3.5.22H358l-4.22.47a36.78 36.78 0 0 0-8.38 2.17l-1.28.57-3.07 1.32-3.36 1.3-1.12.42-.5.18-4.32 1.53-4.68 1.62-4.06 1.76-2 .78-1.9.74-1.5.74a49 49 0 0 1-7.25 3.14 74.11 74.11 0 0 0-7.23 2.6 52.68 52.68 0 0 0-8.83 5.79l-1.22 1.1c-.47.42-.9.94-1.34 1.42l-.66.72a21.58 21.58 0 0 1-4.52 3.9l-.3.18a6.22 6.22 0 0 0-.84.53 4.64 4.64 0 0 1-.7.45l-.42.2a5.84 5.84 0 0 1-1.51.56l-.23.05a8.84 8.84 0 0 1-1.62.19h-1.1a16.17 16.17 0 0 1-2.5-.25l-.84-.2-.8-.18h-.3a30.73 30.73 0 0 1-4.29-.31l-1.73-.38a21.06 21.06 0 0 0-2.21-.44l-1.25-.13a24 24 0 0 1-2.53-.34 12.22 12.22 0 0 1-1.66-.51l-.15-.06-.88-.3-.88-.32a16.34 16.34 0 0 0-2.93-.58l-4.15-.43-.66-.1-1.82-.28h-.65a32.68 32.68 0 0 1-4.63-.44l-1.28-.27-1.44-.3c-.7-.14-1.42-.22-2.14-.3l-2-.08c-.63 0-1.2 0-1.88-.07l-2-.15-2.88-.18h-.1c-.64 0-1.4.07-2 .13l-1.8.1h-.16c-1.4 0-2.8-.18-4.2-.37l-.76-.1q-1.17-.06-2.34-.06h-2.24c-1.23 0-2.48-.1-3.7-.2l-.86-.06-4.5-.2-5.45-.28h.38l-7.54-.42c-2.42-.06-4.85-.34-7.2-.6l-.6-.07h-1l-3.48.15-2.63.13h-1.38a43.27 43.27 0 0 0-5.57.34 55 55 0 0 1-6 .78c-.82.08-1.64.08-2.5.08a30.13 30.13 0 0 1-3.42-.12 35.51 35.51 0 0 0-3.73-.14l-2.4.07-5.12.46a21.4 21.4 0 0 0-2.22.6l-1.15.65-1.6.88a3.06 3.06 0 0 0-.61.4l-.17.12a5.09 5.09 0 0 1-2 .89 8.1 8.1 0 0 1-1.55.18 7.08 7.08 0 0 1-1.13-.1 5.53 5.53 0 0 1-2.47-1.29l-.46-.42-1.15-1.07a59.15 59.15 0 0 0-4.48-3.89l-1.62-1-2.3-1.48-1.73-1.33-1.24-1-2-1.32-2.15-1.46.1.1a19.8 19.8 0 0 0-2.11-1.3l-.9-.45-1.28-.65a34.24 34.24 0 0 1-4-2.76l-1.08-.8a27.66 27.66 0 0 0-4.44-2.34 27.69 27.69 0 0 1-4.14-2c-1.3-.84-2.65-1.54-4.06-2.27l-.44-.23-.85-.47-1.52-.8a15.4 15.4 0 0 0-1.92-.84l-1.7-.46-.66-.18a18.94 18.94 0 0 1-3.85-1.42c-.53-.26-1-.52-1.53-.85l-1.7-.94-2.35-1A25.72 25.72 0 0 0 79 .57L75.1 0h-.33A21.08 21.08 0 0 0 72 .21l-.53.07a11.56 11.56 0 0 1-1.67.19H68l-.8.54a17.83 17.83 0 0 0-1.54 1.47 33.82 33.82 0 0 0-2.22 4.16l-.73 1.53a17.72 17.72 0 0 0-1.06 2.3l-.7 2.38-.8 2.74a52.27 52.27 0 0 0-1.78 6.63l-.62 3.3c-.62 3.24-1.27 6.58-1.62 9.9v.8a38.35 38.35 0 0 0-.08 5.14l.06 1.06c.1 1.42.22 2.83.22 4.26V51c0 1.82 0 3.7.1 5.55.18 2.8.5 5.77 1.07 9.63.22 1.54.4 3.1.58 4.64l.7 5.37.12.7a14.05 14.05 0 0 0 .62 2.31l.66 1.45.33.66a13.34 13.34 0 0 1 .74 1.58 5.54 5.54 0 0 1-.6 4.83 7.64 7.64 0 0 1-2.43 2.47c-.3.2-.6.4-.9.58l-.5.3-1.53 1a37.9 37.9 0 0 0-3.24 3.59l-.37.45c-1.47 1.76-3 3.7-4.62 5.93-1.06 1.45-2.27 2.8-3.44 4.12l-1 1.2c-1.48 1.7-3.2 3.7-4.78 5.83a32.06 32.06 0 0 0-1.71 2.81 30.92 30.92 0 0 0-1.7 3.81c-.67 1.94-1.24 3.94-1.8 5.88l-.44 1.56c-.7 2.4-1.48 4.64-2.48 7.33-1.35 4.06-2.32 8.32-3.26 12.44l-.1.46a109.25 109.25 0 0 0-2.2 12.43 77.38 77.38 0 0 0 .07 9.51l.06.93c.08 1.4.16 2.86.3 4.3.13 1.27.3 2.66.57 4.38 1.06 5.9 2.42 11.7 4.13 18.6a116.32 116.32 0 0 0 6.52 19.22c1.8 3.93 3.34 7.22 5 10.47a59.14 59.14 0 0 0 3.5 5.88c1 1.4 2.08 2.73 3.08 4l1.42 1.67c1.3 1.53 2.67 3.1 3.94 4.73l2.06 2.66L57 249a74.82 74.82 0 0 0 7.29 7.5c1 .92 2.14 1.8 3.2 2.65l1.52 1.22c1.1.9 2.23 1.9 3.23 2.85l1 .9c2.73 2.48 5.83 5.3 9 7.9 2.34 1.9 4.82 3.68 7.22 5.4l1.2.87a116.73 116.73 0 0 0 11.17 6.44 111.64 111.64 0 0 0 10.91 5.4 48.71 48.71 0 0 0 4.87 1.33l1.35.3c1.15.24 2.3.48 3.5.8s2.37.7 3.5 1.08l2.35.76c2.18.65 4 1.13 5.58 1.5 1.38.3 2.8.55 4.17.77l1.9.33c1.37.24 2.74.56 4.06.88l1 .23c1.52.35 3.1.62 4.6.87a52.58 52.58 0 0 1 6.46 1.36l2.1.65c1.16.37 2.36.75 3.57 1.07 1.6.42 3.28.77 4.9 1.1l1.12.24a3 3 0 0 1 1.9 1.32 3.1 3.1 0 0 1 .43 2.39l.28.24.38.46.4.47a4.8 4.8 0 0 1 .47 1 4.55 4.55 0 0 1-3 5.68 7.13 7.13 0 0 1-1.45.27 15.37 15.37 0 0 0-1.64.62l-.13.06-.58.24-.6.25a60.45 60.45 0 0 0-6.11 3.48l-1.17.8c-.84.6-1.7 1.18-2.6 1.7l-.33.2a29.48 29.48 0 0 0-2.89 1.78 48.6 48.6 0 0 0-4.05 4.32 56.75 56.75 0 0 0-4.15 5.28c-1.16 1.74-2.16 3.16-3.16 4.47a81.33 81.33 0 0 0-4.33 7.6c-1 1.94-2 3.94-2.95 5.94l-1.2 2.44c-.6 1.32-1.34 2.8-2 4.37a13.41 13.41 0 0 1-1.9 3.51 8.8 8.8 0 0 1-1 1.11 8.08 8.08 0 0 1-3.19 1.94 21.51 21.51 0 0 1-2.63.43 13.65 13.65 0 0 1-1.81.13h-.75l-3.35-.3c-2.05-.18-4.56-.42-7.05-.85l-.87-.15c-1.7-.3-3.43-.6-5.16-.78l-1.3-.07c-1.54-.08-3.13-.17-4.7-.34-1.33-.16-2.7-.4-4-.6l-1.8-.3a71.94 71.94 0 0 0-2.51-.34c-1-.13-2.12-.26-3.18-.45-1.46-.26-3-.62-4.77-1.1a95.58 95.58 0 0 1-11.2-3.75c-2-.82-3.92-1.7-5.37-2.4a45.63 45.63 0 0 1-4.43-2.34 36.91 36.91 0 0 1-5.7-4.15c-1.6-1.44-3.1-3-4.66-4.56-2.5-2.53-4.86-5.23-7.15-7.85l-1.13-1.3c-.76-.87-1.57-1.7-2.36-2.53l-1.74-1.85c-.45-.5-.9-1-1.32-1.5-.88-1-1.77-2.07-2.77-3a83.79 83.79 0 0 0-8.23-6.93l-.8-.52c-.5-.32-1-.65-1.5-1-.66-.45-1.3-.93-1.95-1.4l-1-.72a44.16 44.16 0 0 1-3.72-2.83c-1.15-1-2.2-1.88-3.3-2.72a30.7 30.7 0 0 0-4.24-2.25 14.5 14.5 0 0 0-2.26-.42H4a11.61 11.61 0 0 0-1.18 0 6.32 6.32 0 0 0-.62.18c-.13.07-.25.15-.37.23l-.06.08A36.82 36.82 0 0 0 0 310.61c.6.5 1.24.93 1.86 1.35l.6.43-.7-.5c.74.52 1.5 1 2.23 1.52l3.3 2.28a55.6 55.6 0 0 1 4.7 3.86c1.34 1.22 2.6 2.57 3.84 3.87l.13.13c1.27 1.3 2.5 2.66 3.7 4a81.5 81.5 0 0 1 4.29 5.24l.9 1.14a41.4 41.4 0 0 1 2.82 3.89 56.27 56.27 0 0 1 3.89 8.28l1.2 2.88c.54 1.14 1.13 2.3 1.7 3.4.74 1.43 1.5 2.92 2.18 4.43.47 1.08.95 2.1 1.4 3.24s.9 2.3 1.44 3.37 1 2.07 1.55 3.2l1.66 3.45c1.06 2.28 2.06 4.62 3.06 6.88l.36.83 2.35 4.88a3.83 3.83 0 0 1 .39.75c.68 1.36 1.4 2.7 2.1 4a77 77 0 0 0 5.6 8.91 54.84 54.84 0 0 0 8.46 7.32 27.47 27.47 0 0 0 5 2.78 65.75 65.75 0 0 0 6.91 1.85c2.1.44 4.28.7 6.4.94h.37c.9.1 1.9.16 2.9.16.46 0 .83 0 1.37-.06l1.62-.17a30 30 0 0 1 3.28-.25h.6c1.1.05 2.2.13 3.28.22l1.9.15h1.28a20 20 0 0 0 2.67-.18c1-.23 1.92-.53 2.85-.82l.8-.25c.77-.24 1.38-.4 2-.53a20.36 20.36 0 0 1 3.3-.39h.24c2.3-.15 4.73-.42 7.3-.83l.74-.14a34.43 34.43 0 0 1 4.63-.67h.9a6.17 6.17 0 0 1 2.69.56 4.3 4.3 0 0 1 2.67 3.68 12.66 12.66 0 0 1-.23 2.46c0 .3-.07.43-.13.86a37.33 37.33 0 0 0-.15 1.3 11.82 11.82 0 0 0-.13 1.18l-.3 2.24-.35 2.75c-.12 2.17-.12 4.38-.12 6.52v.65c0 3.6-.1 7.18-.27 11.18-.07 1.25-.07 2.5-.07 3.77v6.94c0 1 .1 2 .1 3H306c.07-.73.2-1.4.34-2.04z" fill="#fff"/></svg>