<?xml version="1.0" encoding="utf-8"?>
<!-- Generator: Adobe Illustrator 24.2.0, SVG Export Plug-In . SVG Version: 6.00 Build 0)  -->
<svg version="1.1" id="Layer_1" xmlns="http://www.w3.org/2000/svg" xmlns:xlink="http://www.w3.org/1999/xlink" x="0px" y="0px"
	 viewBox="0 0 240.9 269.1" style="enable-background:new 0 0 240.9 269.1;" xml:space="preserve">
<style type="text/css">
	.st0{fill:#2C2C2C;}
	.st1{enable-background:new    ;}
</style>
<g id="Draw_Layer-2">
	<path class="st0" d="M126.9,32h-0.2c-0.2,0-0.5,0-0.7,0h-0.6h-1.5c-0.5,0-1,0-1.5,0h-0.5c-0.6,0-1.1,0.1-1.7,0.1h-1
		c-0.2,0-0.4,0-0.6,0c-0.4,0-0.9,0.1-1.3,0.2h-0.2c-0.6,0.1-1.3,0.1-1.9,0.1c-0.7,0-1.4,0.1-2,0.2c-0.5,0.1-1,0.1-1.4,0.1l-1.1,0.1
		c-0.5,0.1-1.1,0.2-1.6,0.3l-0.7,0.1l-0.5,0.1c-0.6,0.1-1.1,0.2-1.7,0.3l-0.6,0.1l-0.3,0.1l-0.7,0.2h-0.4c-0.5,0.1-1,0.2-1.5,0.3
		h-0.3l-0.9,0.2l-0.8,0.2l-0.4,0.1c-0.6,0.2-1.3,0.3-2.2,0.5c-0.3,0-0.7,0.1-1.1,0.2c-0.3,0.1-0.7,0.2-1,0.3h-0.1l-1,0.3
		c-0.3,0.1-0.7,0.2-1.1,0.4c-0.8,0.3-1.7,0.7-2.4,1.1c-0.5,0.3-1.1,0.6-1.6,0.9S88.6,39,88,39.2c-0.3,0.1-0.6,0.3-1,0.4
		c-1,0.4-1.9,0.8-2.9,1h-0.2L82.5,41c-0.6,0.2-1.2,0.4-1.7,0.7l-1.4,0.7l-1.5,0.7l-0.6,0.2c-0.4,0.2-0.8,0.3-1.1,0.5
		c-0.6,0.3-1.3,0.6-1.8,1l-0.6,0.4c-0.3,0.2-0.7,0.4-1,0.7c-0.4,0.2-0.8,0.5-1.2,0.7L70.8,47c-0.6,0.3-1.3,0.7-1.9,1.1l-1.8,1.7
		C66,50.7,65,51.5,64,52.3l-0.4,0.4l-0.7,0.6c-0.4,0.3-0.7,0.6-1,0.9c-0.5,0.5-1,1-1.6,1.4c-0.7,0.5-1.3,1.1-1.9,1.7
		c-0.6,0.6-1.1,1.1-1.6,1.6l-0.3,0.3l-0.4,0.4c-0.2,0.2-0.4,0.4-0.5,0.6l-0.1,0.1l-0.6,0.8c-0.3,0.4-0.6,0.8-0.9,1.1
		c-0.6,0.7-1.1,1.4-1.6,2.2c-0.2,0.3-0.4,0.7-0.6,1L51.4,66l-0.3,0.6l-0.6,1v0.1l-0.4,0.6l-0.3,0.5l-0.2,0.4c-0.3,0.5-0.6,1-0.9,1.5
		l-0.1,0.2c-0.2,0.3-0.4,0.6-0.5,0.9c-0.2,0.4-0.4,0.8-0.5,1.3l-0.1,0.2v-0.1c-0.1,0.2-0.2,0.5-0.3,0.7c-0.2,0.4-0.3,0.8-0.4,1.1
		c-0.1,0.4-0.2,0.4-0.3,0.6s-0.3,0.5-0.4,0.8s-0.3,0.8-0.4,1.1c0,0.1-0.1,0.3-0.1,0.5l-0.2,0.6c-0.1,0.2-0.1,0.4-0.2,0.6
		c-0.2,0.5-0.4,1-0.6,1.4l-0.1,0.1c-0.2,0.4-0.3,0.6-0.4,0.9c-0.1,0.3-0.2,0.6-0.3,1l-0.1,0.2c-0.1,0.4-0.2,0.8-0.4,1.3
		c-0.1,0.2-0.1,0.5-0.2,0.7c-0.2,0.6-0.4,1.1-0.6,1.7L42.4,87c-0.2,0.5-0.4,1.1-0.6,1.6c-0.2,0.5-0.3,0.8-0.4,1.1
		c-0.1,0.4-0.2,0.6-0.3,1c-0.2,0.7-0.4,1.4-0.6,2.2c-0.1,0.5-0.2,1-0.3,1.5c0,0.3-0.1,0.6-0.1,0.8c-0.1,0.3-0.1,0.6-0.1,1
		c0,0.3-0.1,0.9-0.2,1.4c-0.1,0.7-0.3,1.5-0.3,2.3c-0.2,1.6-0.2,3.2-0.3,4.7v0.6c0,0.6-0.1,1.1-0.1,1.7s0,1.4,0,2.2c0,0.5,0,1,0,1.4
		v0.7c0,0.8,0.1,1.6,0.1,2.3c0,0.4,0,0.8,0,1.1s0,0.7,0,1c0,0.6,0,1.2,0.1,1.9c0.1,1.1,0.3,2.3,0.5,3.4l0.1,0.6v0.3
		c0.1,0.7,0.2,1.4,0.4,2.2c0.1,0.5,0.2,1.1,0.4,1.6c0.1,0.3,0.1,0.5,0.2,0.8c0.2,0.9,0.4,1.8,0.5,2.6c0.1,0.7,0.3,1.4,0.4,2
		c0.4,1.7,0.7,3.1,1,4.5c0.4,1.5,0.8,3,1.4,4.4c0.5,1.1,0.8,2,1.2,2.8l0,0l0,0l0.1,0.2c0.4,0.8,0.7,1.5,1,2.2
		c0.2,0.4,0.4,0.8,0.6,1.1l0.5,0.9c0.2,0.4,0.4,0.9,0.6,1.3l0.3,0.7c0.1,0.2,0.2,0.4,0.4,0.6l0.2,0.4l0.5,0.9l0.1,0.1
		c0.3,0.6,0.7,1.1,1.1,1.9l0.6,1c0.2,0.4,0.4,0.6,0.6,1c0.3,0.5,0.6,1,0.9,1.5l0.3,0.5c0.4,0.7,0.8,1.3,1.3,2
		c0.6,0.9,1.4,1.7,2.1,2.4l0.9,1c0.4,0.4,0.8,0.9,1.1,1.3l0.4,0.4c0.5,0.6,1.1,1.1,1.6,1.6l1.7,1.6l0.1,0.1c0.5,0.5,1,1,1.7,1.6
		s1.2,1.1,1.8,1.6l0.8,0.6l1,0.8c0.3,0.3,0.6,0.5,0.9,0.8l0.9,0.8c0.6,0.5,1.2,1,1.8,1.4c0.3,0.2,0.6,0.4,0.9,0.6l0.9,0.7l0.5,0.4
		c0.5,0.4,1,0.7,1.5,1.1c0.5,0.4,1.3,0.8,2,1.3l1,0.5l1,0.5c0.1,0.1,0.2,0.1,0.4,0.2l0.5,0.3c0.3,0.1,0.6,0.3,0.8,0.4l0.3,0.1
		c0.5,0.2,1.1,0.5,1.6,0.8l0.2,0.1c0.8,0.4,1.6,0.8,2.7,1.3c0.3,0.2,0.7,0.3,1.1,0.4l0.6,0.3c0.5,0.2,1,0.4,1.6,0.6
		c0.3,0.1,0.5,0.2,0.8,0.3s0.7,0.3,1,0.4c0.4,0.1,0.9,0.3,1.3,0.4l0.7,0.2l0.4,0.1c0.5,0.2,1.1,0.3,1.6,0.4c0.5,0.1,1.2,0.3,1.8,0.5
		l0.2,0.1c0.5,0.2,1.1,0.5,1.6,0.7l1.1,0.5c0.1,0,0.2,0.1,0.3,0.1h0.1v0.1c0,0.4,0.4,0.8,0.8,0.8l0,0c0.5,0,0.8-0.4,0.8-0.9
		c0-1.1-0.1-2.2-0.1-3.1V184c0-0.2,0-0.4,0-0.6s0-0.5,0-0.8v-1.8c0-0.3,0-0.7,0-1c0-1,0.1-2,0.1-2.9v-0.2c0-0.6,0-1.1,0-1.7
		c0-0.2,0.1-0.5,0.1-0.7s0.1-0.4,0.1-0.6c0-0.1,0-0.2,0-0.3v-0.3c0-0.1,0-0.1,0-0.2c0-0.2,0.1-0.4,0.1-0.6c0-0.4-0.3-0.8-0.7-1
		c-0.2-0.1-0.5-0.1-0.7-0.1h-0.2c-0.4,0-0.8,0.1-1.2,0.2h-0.2c-0.6,0.1-1.3,0.2-1.9,0.2l0,0c-0.3,0-0.6,0-0.9,0.1l-0.5,0.1l-0.2,0.1
		c-0.2,0.1-0.5,0.2-0.7,0.2s-0.5,0-0.7,0h-0.3H93h-0.8h-0.1c-0.3,0-0.6,0-0.8,0h-0.4h-0.4c-0.3,0-0.5,0-0.7,0h-0.1
		c-0.5-0.1-1.1-0.1-1.7-0.2c-0.6-0.1-1.2-0.3-1.8-0.5c-0.5-0.2-0.9-0.4-1.3-0.7c-0.8-0.5-1.6-1.2-2.3-1.9c-0.5-0.7-1-1.5-1.5-2.3
		c-0.2-0.3-0.4-0.7-0.5-1c0-0.1-0.1-0.1-0.1-0.2c-0.2-0.4-0.4-0.8-0.6-1.3l-0.1-0.2c-0.3-0.6-0.5-1.2-0.8-1.8l-0.4-0.9l-0.4-0.8
		c-0.1-0.3-0.3-0.6-0.4-0.9c-0.1-0.3-0.2-0.6-0.4-0.8c-0.1-0.3-0.4-0.8-0.6-1.1s-0.3-0.6-0.4-0.9c-0.1-0.3-0.2-0.5-0.3-0.7
		c-0.3-0.7-0.6-1.5-1-2.2c-0.2-0.3-0.5-0.7-0.7-1l-0.2-0.3c-0.4-0.5-0.8-1-1.1-1.4c-0.4-0.4-0.6-0.7-1-1l0,0c-0.3-0.3-0.7-0.7-1-1
		c-0.4-0.4-0.8-0.7-1.2-1l-0.9-0.6l-0.6-0.4l0.2,0.1l-0.2-0.1c-0.2-0.1-0.3-0.2-0.5-0.4c0.1-0.3,0.3-0.6,0.5-0.9l0,0h0.1l0.2-0.1
		h0.4c0.2,0,0.4,0.1,0.6,0.1c0.4,0.2,0.8,0.4,1.1,0.6c0.3,0.2,0.6,0.4,0.9,0.7s0.6,0.5,1,0.7l0.3,0.2l0.5,0.4l0.4,0.2l0.2,0.1
		c0.7,0.6,1.5,1.2,2.1,1.8c0.3,0.2,0.5,0.5,0.7,0.8l0.4,0.4l0.5,0.5l0.6,0.7l0.3,0.3c0.6,0.7,1.2,1.4,1.9,2c0.4,0.4,0.8,0.8,1.2,1.2
		c0.5,0.4,1,0.8,1.5,1.1c0.4,0.2,0.7,0.4,1.1,0.6c0.4,0.2,0.9,0.4,1.4,0.6c0.9,0.4,1.9,0.7,2.9,1c0.5,0.1,0.9,0.2,1.2,0.3l0.8,0.1
		l0.7,0.1l0.5,0.1l1,0.2c0.4,0,0.8,0.1,1.2,0.1h0.3c0.5,0,0.9,0.1,1.3,0.2h0.2c0.6,0.1,1.3,0.2,1.8,0.2l0.9,0.1h0.2
		c0.2,0,0.3,0,0.5,0s0.5-0.1,0.7-0.1c0.3-0.1,0.6-0.3,0.8-0.5c0.1-0.1,0.2-0.2,0.3-0.3c0.2-0.3,0.4-0.6,0.5-0.9
		c0.2-0.4,0.4-0.8,0.5-1.1l0.3-0.6c0.2-0.5,0.5-1,0.8-1.5c0.3-0.7,0.7-1.3,1.1-2c0.3-0.3,0.5-0.7,0.8-1.1c0.3-0.5,0.7-0.9,1.1-1.4
		c0.3-0.4,0.7-0.8,1.1-1.1c0.2-0.2,0.5-0.3,0.8-0.5h0.1c0.2-0.1,0.5-0.3,0.7-0.4l0.3-0.2c0.5-0.3,1-0.6,1.6-0.9h0.2l0.1-0.1l0,0
		c0.1-0.1,0.3-0.1,0.4-0.2c0.1,0,0.3,0,0.4-0.1c0.6-0.2,1-0.8,0.8-1.4v-0.1c0-0.1-0.1-0.2-0.1-0.3l-0.1-0.1l-0.1-0.1l-0.1-0.1
		c0.1-0.4-0.2-0.9-0.6-1l-0.3-0.1l-1.3-0.3l-0.9-0.3l-0.5-0.2c-0.6-0.2-1.1-0.3-1.7-0.4c-0.4-0.1-0.8-0.1-1.1-0.2l-0.3-0.1
		c-0.4-0.1-0.7-0.2-1.1-0.2L104,143c-0.4-0.1-0.7-0.1-1.1-0.2c-0.4-0.1-0.9-0.2-1.4-0.4l-0.6-0.2c-0.3-0.1-0.6-0.2-0.9-0.3l-0.9-0.2
		l-0.4-0.1c-0.4-0.1-0.8-0.2-1.3-0.4c-1-0.4-1.9-0.9-2.8-1.4c-1-0.6-2-1.3-2.9-2l-0.3-0.2c-0.6-0.4-1.3-0.9-1.9-1.4
		c-0.8-0.7-1.6-1.4-2.4-2l-0.3-0.2c-0.3-0.2-0.5-0.5-0.8-0.7l-0.4-0.3c-0.3-0.2-0.6-0.5-0.8-0.7c-0.7-0.6-1.3-1.3-1.9-1.9l-0.6-0.7
		c-0.2-0.2-0.4-0.5-0.5-0.7c-0.3-0.4-0.7-0.8-1-1.2l-0.4-0.4c-0.3-0.3-0.6-0.7-0.8-1c-0.3-0.5-0.6-1-0.9-1.5
		c-0.4-0.8-0.8-1.7-1.3-2.7c-0.7-1.6-1.3-3.3-1.7-5c-0.4-1.8-0.8-3.3-1.1-4.8c-0.1-0.4-0.1-0.8-0.1-1.1s0-0.7-0.1-1.1V110
		c-0.1-0.8-0.1-1.7,0-2.5c0.1-1.1,0.3-2.2,0.6-3.2v-0.1c0.2-1.1,0.5-2.2,0.8-3.2c0.3-0.7,0.5-1.3,0.6-1.9l0.1-0.4
		c0.1-0.5,0.3-1,0.5-1.5c0.1-0.3,0.3-0.7,0.4-1c0.1-0.2,0.3-0.5,0.5-0.7c0.4-0.6,0.9-1.1,1.2-1.5l0.3-0.3c0.3-0.3,0.6-0.7,0.9-1.1
		c0.4-0.6,0.8-1.1,1.2-1.5l0.1-0.1c0.3-0.3,0.5-0.6,0.8-0.9l0.4-0.3l0.1-0.1l0.2-0.1c0.3-0.2,0.5-0.4,0.6-0.6
		c0.2-0.4,0.3-0.8,0.2-1.3c-0.1-0.1-0.1-0.3-0.2-0.4l-0.1-0.2l-0.2-0.4c-0.1-0.2-0.1-0.4-0.2-0.6V86v-0.1c-0.1-0.5-0.1-0.9-0.2-1.4
		s-0.1-0.8-0.1-1.2c-0.1-1-0.2-1.8-0.3-2.5c0-0.5,0-1,0-1.4v-1.1c0-0.4,0-0.7,0-1.1v-0.3c0-0.4,0-0.9,0-1.3v-0.2
		c0.1-0.9,0.3-1.7,0.4-2.6l0.2-0.8c0.1-0.6,0.3-1.2,0.5-1.7l0.2-0.7c0.1-0.2,0.1-0.4,0.2-0.6s0.1-0.4,0.2-0.5s0.1-0.3,0.2-0.4
		c0.2-0.4,0.4-0.8,0.6-1.1c0.1-0.1,0.3-0.3,0.4-0.4l0.2-0.1h0.5c0.1,0,0.3,0,0.4,0h0.1c0.2,0,0.5,0,0.7,0h0.1l1,0.1
		c0.3,0,0.6,0.1,0.9,0.2l0.6,0.3l0.4,0.2l0.4,0.2c0.3,0.2,0.7,0.3,1,0.4H92l0.4,0.1c0.2,0.1,0.3,0.1,0.5,0.2l0.4,0.2l0.2,0.1h0.1
		c0.4,0.2,0.7,0.4,1.1,0.6s0.7,0.4,1.1,0.5c0.4,0.2,0.8,0.4,1.1,0.6l0.3,0.2c0.3,0.3,0.7,0.5,1,0.7l0.3,0.2l0.2,0.1
		c0.2,0.1,0.4,0.2,0.5,0.3l0,0c0.2,0.1,0.4,0.3,0.6,0.4l0.5,0.4l0.3,0.3l0.5,0.3c0.2,0.1,0.4,0.3,0.6,0.4l0.4,0.3
		c0.4,0.3,0.8,0.7,1.1,1l0.3,0.3l0.1,0.1c0.2,0.2,0.4,0.3,0.6,0.3h0.3c0.1,0,0.3,0,0.4,0c0.2,0,0.4-0.1,0.5-0.2l0,0
		c0,0,0.1-0.1,0.2-0.1c0.1-0.1,0.3-0.1,0.4-0.2l0.3-0.2c0.2-0.1,0.4-0.1,0.6-0.2c0.5-0.1,0.9-0.1,1.3-0.1h0.6c0.3,0,0.6,0,1,0
		c0.3,0,0.6,0,0.9,0c0.2,0,0.4,0,0.7,0c0.5,0,1-0.1,1.6-0.2c0.5-0.1,1-0.1,1.4-0.1h0.4c0.2,0,0.5,0,0.7,0h0.9h0.4
		c0.6,0.1,1.3,0.1,1.9,0.2l2,0.1h-0.1c0.4,0,0.8,0,1.4,0.1s0.8,0,1.1,0h0.2c0.3,0,0.6,0,1,0h1.1h0.2c0.4,0.1,0.8,0.1,1.1,0.1l0,0
		c0.2,0,0.3,0,0.5,0h0.5l0,0c0.3,0,0.5,0,0.7,0h0.5h0.5h0.5l0.6,0.1l0.4,0.1l0.3,0.1c0.4,0.1,0.8,0.1,1.2,0.1h0.2
		c0.2,0,0.3,0,0.5,0.1h0.2c0.4,0.1,0.8,0.1,1.1,0.1s0.5,0.1,0.8,0.1l0.2,0.1l0.2,0.1l0,0c0.1,0.1,0.3,0.1,0.4,0.1
		c0.2,0,0.4,0.1,0.7,0.1h0.3c0.2,0,0.4,0.1,0.6,0.1l0.5,0.1c0.4,0.1,0.8,0.1,1.1,0.1h0.2h0.2h0.2c0.2,0.2,0.5,0.3,0.7,0.4h0.3
		c0.1,0,0.3,0,0.4,0h0.1c0.1,0,0.3-0.1,0.4-0.1h0.1l0.2-0.1l0.2-0.1h0.1c0.4-0.3,0.8-0.6,1.1-1l0.2-0.2c0.1-0.1,0.2-0.3,0.3-0.4
		l0.3-0.3c0.7-0.6,1.5-1.1,2.3-1.5c0.6-0.2,1.2-0.5,1.9-0.7c0.6-0.2,1.3-0.5,1.9-0.8l0.4-0.2l0.5-0.2l0.5-0.2l0.5-0.2l0.6-0.3
		c0.4-0.2,0.8-0.3,1.2-0.4l1.1-0.4h0.1l0.3-0.1l0.9-0.3l0.8-0.4l0.3-0.1c0.7-0.3,1.4-0.5,2.2-0.6l1.1-0.1h0.1c0.3,0,0.6,0,0.9,0l0,0
		h0.2l0.6,0.1h0.6h0.2h0.2h0.2h0.1l0.2,0.1c0.1,0.1,0.2,0.2,0.4,0.3c0,0.1,0.1,0.2,0.1,0.4c0,0.2,0.1,0.4,0.1,0.5l0.1,0.2
		c0,0.1,0,0.2,0.1,0.2c0.1,0.1,0.1,0.4,0.2,0.6v0.1v0.1c0.1,0.8,0.2,1.5,0.2,2.3c0,0.4,0,0.8,0.1,1.1s0,1,0,1.5c0,0.8,0,1.6,0.1,2.6
		c0.1,0.8,0.1,1.6,0.1,2.5c0,0.2,0,0.3,0,0.5c0,0.3-0.1,0.7-0.1,1l-0.1,0.4l-0.1,0.6c0,0.3-0.1,0.6-0.1,0.9
		c-0.1,0.6-0.1,1.2-0.1,1.8c0,0.5,0,0.9,0,1.4c0,0.1,0,0.2,0,0.3l-0.1,0.3c0,0.1,0,0.2,0,0.2V87c0,0.1,0,0.3,0,0.4v0.1
		c0,0.2,0,0.3,0,0.5s0,0.4,0.1,0.6c0.1,0.3,0.3,0.6,0.6,0.8c0.1,0.1,0.3,0.3,0.4,0.4c0.1,0.1,0.3,0.3,0.4,0.4
		c0.3,0.4,0.6,0.9,0.9,1.3c0.1,0.2,0.2,0.4,0.4,0.6c0.1,0.2,0.4,0.7,0.6,1.1s0.5,1,0.7,1.4l0.2,0.4c0.1,0.2,0.2,0.4,0.3,0.6l0.4,0.9
		c0.2,0.5,0.5,1.1,0.7,1.7c0.2,0.5,0.4,1.2,0.6,1.9l0.1,0.3c0.4,1.3,0.7,2.7,0.9,4c0,0.2,0.1,0.3,0.1,0.5c0.1,0.4,0.1,0.9,0.2,1.3
		c0,0.2,0,0.3,0,0.5c0,0.4,0.1,0.8,0.1,1.2l0.1,0.8c0,0.3,0,0.5,0.1,0.8c0.1,0.2,0.1,0.7,0.1,1.1c0.1,0.7,0.1,1.3,0,2
		c-0.1,0.9-0.2,1.7-0.3,2.4c-0.1,0.4-0.1,0.7-0.2,1.1v0.3v0.2c-0.1,0.4-0.1,0.7-0.2,1.1s-0.3,0.8-0.4,1.2c-0.1,0.4-0.3,0.9-0.4,1.4
		c-0.1,0.3-0.2,0.6-0.2,1c-0.1,0.3-0.2,0.8-0.3,1.1c-0.1,0.2-0.2,0.5-0.3,0.7l-0.2,0.3l-0.2,0.4c0,0.1-0.1,0.2-0.1,0.3
		c-0.1,0.2-0.2,0.3-0.3,0.5l-0.7,1l-0.3,0.4c-0.2,0.2-0.3,0.5-0.5,0.7l-0.3,0.5c-0.2,0.2-0.3,0.4-0.5,0.6c-0.2,0.2-0.3,0.5-0.5,0.7
		l-0.1,0.1c-0.4,0.5-0.8,1.1-1.3,1.7c-0.3,0.3-0.5,0.6-0.8,0.9c-0.2,0.2-0.4,0.4-0.6,0.5l-0.2,0.2l-0.8,0.6l-0.8,0.5l-0.4,0.2
		c-0.4,0.2-0.7,0.5-1.1,0.7l-0.3,0.2l-0.8,0.6l-0.4,0.3l-0.5,0.4c-0.2,0.2-0.4,0.4-0.7,0.5c-0.2,0.2-0.7,0.5-1.1,0.7l-0.1,0.1
		c-0.9,0.5-1.8,1-2.9,1.5c-0.4,0.2-0.9,0.4-1.3,0.7s-0.7,0.4-1.1,0.6l-0.3,0.1c-0.5,0.2-1,0.4-1.4,0.6H150l-0.7,0.3l-0.2,0.1
		c-0.3,0.1-0.6,0.2-0.9,0.3h-0.7h-0.1c-0.3,0-0.6,0.1-0.9,0.1h-0.1c-0.4,0-0.8,0.1-1.1,0.2c-0.3,0.1-0.6,0.2-0.8,0.4l-0.2,0.1
		c-0.3,0.1-0.7,0.2-1,0.3c-0.3,0-0.5,0.1-0.8,0.1h0.1l-0.6,0.1l-0.3,0.1l-0.5,0.1l-0.4,0.1l-0.9,0.1l-0.5,0.1h-0.2l-0.4,0.1
		c-0.1,0-0.1,0-0.2,0.1h-0.1H138c-0.3,0-0.5,0.1-0.8,0.2c-0.1,0-0.2,0.1-0.3,0.1h-0.1c-0.2,0-0.4,0.1-0.5,0.3
		c-0.2,0-0.4,0.1-0.6,0.2c-0.4,0.2-0.6,0.6-0.6,1.1c0,0.4,0.3,0.8,0.7,1c0.1,0,0.2,0.1,0.3,0.1l0.2,0.1l0.5,0.5l0.1,0.1
		c0.3,0.2,0.5,0.5,0.7,0.8l0.2,0.3c0.2,0.2,0.3,0.4,0.5,0.6c0.2,0.2,0.4,0.4,0.5,0.5l0.3,0.3c0.4,0.4,0.9,0.8,1.3,1.4l0.2,0.2
		c0.2,0.2,0.3,0.4,0.5,0.5c0.2,0.2,0.4,0.4,0.5,0.5c0.3,0.4,0.5,0.7,0.7,1.1l0.1,0.2l0.8,1.4c0.1,0.3,0.3,0.5,0.4,0.8l0.3,0.5
		l0.6,1.2c0.1,0.4,0.3,0.7,0.4,1.1c0.1,0.4,0.3,0.9,0.4,1.3c0.2,0.4,0.3,0.7,0.4,1.1l0.1,0.4c0.1,0.3,0.1,0.6,0.2,0.8
		c0.1,0.3,0.2,0.8,0.4,1.3c0.1,0.4,0.2,0.6,0.3,0.9l0.1,0.2c0.2,0.7,0.4,1.5,0.5,2.3c0.1,0.5,0.1,1,0.2,1.6l0.1,0.8v0.2
		c0,0.3,0,0.5,0,0.8v0.3c0,0.6,0,1.1,0.1,1.7c0,0.2,0,0.4,0,0.7c0,0.4,0,0.9,0,1.3c0,0.4,0,0.7,0,1v0.9c0,0.7,0,1.4,0.1,2
		c0,0.4,0,0.9,0,1.3c0,0.2,0,0.3,0,0.5v0.7c0,0.4,0,0.8,0,1.2s-0.1,0.9-0.2,1.3l-0.1,0.5c-0.1,0.3-0.1,0.6-0.1,0.9
		c0,0.1,0,0.3,0,0.4c0,0.2,0.1,0.5,0.2,0.7c0.1,0.2,0.3,0.4,0.5,0.5s0.4,0.2,0.6,0.2h0.1c0.3,0,0.6-0.1,0.9-0.3
		c0.2-0.1,0.3-0.2,0.5-0.3l0.1-0.1c0.2-0.1,0.4-0.2,0.6-0.3l0.5-0.2l0.6-0.2l0.3-0.1c0.4-0.2,0.8-0.3,1.2-0.5l0.5-0.2
		c0.3-0.1,0.7-0.3,1-0.4c0.3-0.2,0.4-0.2,0.7-0.4c0.2-0.1,0.4-0.3,0.6-0.4c0.2-0.1,0.6-0.3,1-0.4l0.4-0.2c0.2-0.1,0.4-0.2,0.6-0.3
		l0.7-0.3l0,0c0.5-0.2,0.9-0.4,1.3-0.6l0.4-0.2l0.2-0.1c0.2-0.1,0.3-0.2,0.5-0.3l0.4-0.2l0.6-0.3c0.6-0.3,1.3-0.7,1.9-1.1
		c0.5-0.3,1.1-0.7,1.6-1l0.5-0.3l0.4-0.2c0.3-0.2,0.6-0.4,1-0.6c0.4-0.3,0.8-0.6,1.2-0.8c0.4-0.3,0.5-0.4,0.8-0.6
		c0.3-0.2,0.6-0.4,0.9-0.6c0.3-0.2,0.6-0.3,0.8-0.5c0.6-0.4,1.2-0.9,1.7-1.3l0.2-0.2c0.8-0.7,1.5-1.3,2.3-2s1.5-1.5,2.3-2.3
		c0.7-0.7,1.3-1.5,2-2.3c0.3-0.4,0.7-0.8,1-1.2s0.7-1,1-1.4c0.5-0.8,1.1-1.5,1.6-2.2s0.9-1.3,1.3-1.9l0.3-0.4
		c0.2-0.3,0.5-0.6,0.7-0.9l0.6-0.8c0.1-0.2,0.3-0.4,0.5-0.6c0.3-0.4,0.7-0.9,1-1.4c0.8-1.2,1.6-2.5,2.3-3.8c0.5-1,1-2,1.5-3l0.5-0.9
		c0.1-0.2,0.2-0.5,0.4-0.7c0.2-0.5,0.5-0.9,0.7-1.4s0.5-1.1,0.7-1.7l0.2-0.5c0.3-0.8,0.6-1.5,0.8-2.3c0.2-0.7,0.4-1.3,0.5-1.9
		c0.2-0.9,0.5-1.8,0.7-2.6c0.1-0.5,0.3-1,0.4-1.4c0.1-0.5,0.3-1.1,0.4-1.6l0.1-0.5l0.2-0.9c0.1-0.4,0.2-0.7,0.3-1.1s0.3-1.2,0.4-1.9
		c0-0.3,0.1-0.6,0.1-0.9l0.1-0.9c0.1-0.7,0.2-1.3,0.4-2c0.1-0.6,0.2-1,0.3-1.5s0.1-1.1,0.2-1.6v-0.4l0,0l0.2-1.8v-0.5
		c0.1-0.6,0.1-1.3,0.2-1.9V117l0.1-0.7c0-0.2,0-0.5,0.1-0.7c0-0.4,0.1-0.9,0.1-1.3s0.1-0.9,0.1-1.4c0-0.3,0-0.5,0-0.8
		c0-0.5,0-1.1,0.1-1.6v-0.7V109c0-0.6,0.1-1.1,0.1-1.8c0-1.5-0.1-3-0.3-4.4c0-0.4-0.1-0.8-0.1-1.3l-0.1-1.1c0-0.3-0.1-0.6-0.1-0.9
		s-0.1-0.8-0.1-1.2c0-0.4,0-0.7,0-1s-0.1-0.9-0.1-1.3s-0.1-0.7-0.1-1.1c0-0.3-0.1-0.6-0.1-0.9v-0.2c-0.2-0.9-0.3-1.6-0.4-2.3
		c-0.1-0.2-0.1-0.5-0.2-0.7l-0.1-0.3v-0.1c-0.1-0.3-0.2-0.6-0.2-1v-0.2c-0.1-0.6-0.3-1.1-0.5-1.8c-0.2-0.6-0.4-1.3-0.6-1.9
		s-0.4-1.2-0.6-1.8l-0.1-0.4c-0.2-0.7-0.5-1.4-0.9-2.3s-0.8-1.6-1.2-2.4s-0.8-1.4-1.2-2.2c-0.2-0.3-0.4-0.6-0.6-0.9
		c-0.2-0.3-0.4-0.6-0.6-1c-0.5-0.8-0.9-1.5-1.2-2.2L190,72c-0.3-0.6-0.6-1.1-1-1.7c-0.4-0.5-0.6-0.9-0.9-1.3
		c-0.2-0.2-0.3-0.4-0.5-0.7c-0.3-0.4-0.6-0.8-0.8-1.2l-0.4-0.6c-0.5-0.7-0.9-1.3-1.5-1.9l-0.4-0.4l-1-1.1c-0.4-0.5-0.9-1-1.4-1.6
		l-0.8-0.8l-0.7-0.7c-0.5-0.5-0.9-0.9-1.4-1.4l-0.2-0.2c-0.4-0.4-0.9-0.8-1.3-1.3l-0.2-0.2l-1.9-1.6l-1.4-1.3
		c-1.7-1.6-3.5-3.2-5.3-4.8c-0.4-0.4-0.8-0.7-1.1-0.9c-0.3-0.3-0.9-0.6-1.3-1h-0.1c-0.8-0.6-1.5-1.2-2.2-1.8c-0.8-0.7-1.7-1.4-2.7-2
		c-0.2-0.2-0.5-0.3-0.7-0.4l-0.5-0.3c-0.4-0.2-0.8-0.5-1.2-0.8c-0.8-0.4-1.6-0.8-2.4-1.1l0,0c-0.5-0.2-1-0.4-1.5-0.7l-1.4-0.8
		l-0.2-0.1c-1.1-0.6-2.1-1.2-3.3-1.7c-0.3-0.1-0.7-0.3-1-0.4l-0.6-0.3c-0.5-0.2-1-0.5-1.5-0.7h-0.1c-0.6-0.3-1.2-0.5-1.9-0.7
		l-0.6-0.2l-1-0.3c-0.4-0.2-0.8-0.4-1.2-0.5l-0.5-0.2c-0.3-0.1-0.6-0.3-0.9-0.3l-0.2-0.1l-0.7-0.2l-0.2-0.1
		c-0.5-0.2-1.1-0.4-1.7-0.5c-0.6-0.1-1.1-0.2-1.7-0.3c-0.6-0.1-1.2-0.2-1.7-0.3l-0.5-0.1c-0.4-0.1-0.8-0.2-1.1-0.2
		c-0.4,0-0.7-0.1-1-0.1h-2c-0.3,0-0.7,0-1,0h-0.9h-0.2C127.7,32.2,127.3,32.1,126.9,32z"/>
	<path class="st0" d="M42.9,38.4c-1.3,0.1-2.6,0.4-3.9,1c-0.6,0.2-1.1,0.5-1.6,0.8c-0.2,0.1-0.4,0.3-0.6,0.5
		c-0.2,0.2-0.6,0.5-0.9,0.7c-0.5,0.4-0.9,1-1.3,1.5c-0.3,0.5-0.6,1.1-0.8,1.7c-0.2,0.5-0.3,1.1-0.4,1.7c-0.1,0.7-0.2,1.3-0.2,2
		c0,0.6,0.1,1.3,0.3,1.9c0.1,0.3,0.2,0.7,0.3,1c0.2,0.5,0.5,0.9,0.8,1.3c0.3,0.4,0.6,0.8,0.9,1.1c0.3,0.4,0.7,0.7,1.1,1
		c0.2,0.1,0.4,0.3,0.6,0.4c0.3,0.2,0.6,0.4,1,0.5c0.8,0.3,1.6,0.4,2.5,0.4c0.3,0,0.5,0,0.8,0c0.6,0,1.2-0.1,1.8-0.3
		c0.7-0.2,1.3-0.4,1.9-0.7c0.8-0.3,1.5-0.8,2-1.4c0.3-0.3,0.5-0.6,0.8-1c0.2-0.4,0.4-0.7,0.5-1.1c0.3-0.6,0.5-1.3,0.6-1.9
		c0.2-0.6,0.3-1.3,0.3-1.9c0.1-0.6,0.1-1.2,0-1.8c-0.1-0.7-0.2-1.3-0.4-2c0-0.2-0.1-0.3-0.2-0.5c-0.1-0.3-0.2-0.6-0.3-0.8
		c-0.2-0.6-0.5-1.2-0.8-1.8c-0.2-0.3-0.4-0.7-0.6-1c-0.3-0.4-0.7-0.8-1.1-1c-0.7-0.4-1.4-0.6-2.1-0.6C43.4,38.3,43.1,38.3,42.9,38.4
		L42.9,38.4z"/>
	<path class="st0" d="M60.2,39.8c-0.4,0.1-0.7,0.2-1.1,0.3c-0.2,0.1-0.4,0.2-0.5,0.4c-0.5-0.1-1,0.3-1.1,0.7
		C57.2,42,57,42.9,57,43.8c0,0.3,0,0.6,0.1,0.9c0.1,0.3,0.2,0.5,0.4,0.7c0.1,0.1,0.2,0.3,0.3,0.4c0.1,0.1,0.2,0.2,0.4,0.3
		c0.3,0.2,0.6,0.3,0.9,0.4c0.2,0,0.4,0,0.6,0c0.2,0,0.4,0,0.6-0.1c0.4-0.1,0.8-0.2,1.1-0.4c0.7-0.3,1.2-0.8,1.6-1.4
		c0.3-0.5,0.5-1.1,0.5-1.7c0-0.1,0-0.3,0-0.4l0,0c0.1-0.6,0-1.3-0.3-1.8c-0.2-0.3-0.5-0.5-0.8-0.7c-0.4-0.2-0.7-0.3-1.1-0.3
		c-0.1,0-0.2,0-0.4,0C60.7,39.7,60.5,39.7,60.2,39.8L60.2,39.8z"/>
	<path class="st0" d="M201.2,146.1c-0.3,0-0.6,0.1-0.8,0.3c-0.4,0.2-0.7,0.5-0.9,0.8c-0.2,0.4-0.4,0.8-0.4,1.2c0,0.1,0,0.3,0,0.4
		v0.1c0,0.3,0,0.6,0,0.8s0.1,0.4,0.2,0.6c0.1,0.2,0.3,0.5,0.6,0.6c0.2,0.1,0.4,0.2,0.6,0.3c0.3,0.1,0.6,0.2,1,0.1
		c0.7-0.1,1.3-0.4,1.8-0.8c0.1-0.1,0.3-0.2,0.4-0.4c0.2-0.2,0.3-0.4,0.4-0.6c0.2-0.4,0.3-0.7,0.3-1.1c0-0.2,0-0.4,0-0.6
		c0-0.1-0.1-0.2-0.1-0.4c-0.2-0.6-0.5-1.1-1.1-1.4c-0.3-0.1-0.6-0.2-1-0.2C201.8,145.9,201.5,146,201.2,146.1L201.2,146.1z"/>
	<path class="st0" d="M201.4,157.2c-0.5,0.1-1.1,0.2-1.5,0.6c-0.3,0.2-0.6,0.6-0.9,0.9c-0.3,0.5-0.4,1-0.5,1.6
		c-0.1,0.2-0.1,0.5-0.1,0.7c0,0.3,0,0.7,0,1s0.1,0.5,0.3,0.7c0.2,0.3,0.4,0.5,0.6,0.6l0.3,0.1c0.2,0.1,0.4,0.2,0.5,0.2
		c0.6,0.1,1.2,0.1,1.7,0c0.3-0.1,0.5-0.2,0.8-0.3c0.6-0.2,1.1-0.6,1.4-1.1c0.2-0.3,0.3-0.5,0.4-0.8c0.2-0.5,0.3-1.1,0.3-1.7
		c0-0.7-0.3-1.4-0.8-1.9c-0.2-0.2-0.4-0.3-0.6-0.5c-0.3-0.2-0.7-0.3-1.1-0.3l0,0C202,157.2,201.7,157.2,201.4,157.2L201.4,157.2z"/>
	<path class="st0" d="M208.7,152.6c-0.9,0.2-1.5,1-1.6,1.9v0.1c-0.1,0.3-0.1,0.5,0,0.8c0,0.1,0.1,0.2,0.1,0.4
		c0.1,0.1,0.2,0.3,0.3,0.4l0.3,0.2c0.1,0.1,0.3,0.1,0.4,0.2c0.4,0.1,0.7,0.1,1.1,0c0.4-0.1,0.7-0.3,1-0.5c0.3-0.3,0.6-0.7,0.7-1.1
		c0.1-0.3,0.1-0.6,0-0.9c0-0.2-0.1-0.3-0.2-0.5c-0.1-0.2-0.2-0.3-0.3-0.4c-0.1-0.1-0.2-0.1-0.3-0.2l-0.3-0.1
		c-0.2-0.1-0.3-0.1-0.5-0.1h-0.3C209,152.5,208.8,152.5,208.7,152.6L208.7,152.6z"/>
</g>
<g class="st1">
	<path d="M79.5,213.5c0-5.7,4.3-10.1,10.1-10.1c2.7,0,4.9,1,6.7,2.7c0.2,0.2,0.2,0.4,0.1,0.6l-1.1,1.3c-0.2,0.2-0.3,0.2-0.5,0
		c-1.4-1.2-3.1-2-5.1-2c-4.2,0-7.4,3.2-7.4,7.6c0,4.3,3.2,7.5,7.5,7.5c3.9,0,6.4-2.5,6.5-5.9h-6.3c-0.3,0-0.4-0.1-0.4-0.4v-1.6
		c0-0.3,0.1-0.4,0.4-0.4h8.4c0.3,0,0.4,0.2,0.4,0.4v1.1c0,5.2-3.4,9.2-9,9.2C83.8,223.6,79.5,219.2,79.5,213.5z"/>
	<path d="M101.8,204.7c0-0.8,0.7-1.5,1.5-1.5s1.5,0.7,1.5,1.5c0,0.8-0.6,1.5-1.5,1.5S101.8,205.6,101.8,204.7z M102.1,222.8v-12.9
		c0-0.3,0.1-0.4,0.4-0.4h1.8c0.3,0,0.4,0.1,0.4,0.4v12.9c0,0.3-0.1,0.4-0.4,0.4h-1.8C102.2,223.2,102.1,223.1,102.1,222.8z"/>
	<path d="M109.6,220.3v-8.8h-1.8c-0.3,0-0.4-0.2-0.4-0.4v-1.2c0-0.3,0.2-0.4,0.4-0.4h1.8v-3.2c0-0.3,0.1-0.4,0.4-0.4h1.8
		c0.3,0,0.4,0.1,0.4,0.4v3.2h2.3c0.3,0,0.4,0.1,0.4,0.4v1.2c0,0.3-0.1,0.4-0.4,0.4h-2.3v8.5c0,1,0.4,1.4,1.3,1.4
		c0.2,0,0.6,0,0.9-0.1c0.4-0.1,0.5,0.1,0.5,0.4v1.2c0,0.5-1.1,0.7-1.9,0.7C110.9,223.5,109.6,222.5,109.6,220.3z"/>
	<path d="M129.9,214.7v8.1c0,0.3-0.1,0.4-0.4,0.4h-1.8c-0.3,0-0.4-0.1-0.4-0.4v-7.7c0-2.3-1.2-3.7-3.3-3.7c-2.1,0-3.6,1.4-3.6,3.7
		v7.7c0,0.3-0.1,0.4-0.4,0.4h-1.8c-0.3,0-0.4-0.1-0.4-0.4v-19.2c0-0.3,0.1-0.4,0.4-0.4h1.8c0.3,0,0.4,0.1,0.4,0.4v8.1
		c0.8-1.4,2.2-2.5,4.5-2.5C127.9,209.1,129.9,211.1,129.9,214.7z"/>
	<path d="M133.9,217.9v-8c0-0.3,0.1-0.4,0.4-0.4h1.8c0.3,0,0.4,0.1,0.4,0.4v7.7c0,2.3,1.2,3.6,3.3,3.6s3.6-1.3,3.6-3.6v-7.7
		c0-0.3,0.1-0.4,0.4-0.4h1.8c0.3,0,0.4,0.1,0.4,0.4v12.9c0,0.3-0.1,0.4-0.4,0.4h-1.7c-0.3,0-0.4-0.1-0.4-0.4l-0.1-1.7
		c-0.8,1.4-2.2,2.5-4.5,2.5C136,223.5,133.9,221.5,133.9,217.9z"/>
	<path d="M152.3,220.8l-0.1,2c0,0.3-0.1,0.4-0.4,0.4h-1.6c-0.3,0-0.4-0.1-0.4-0.4v-19.2c0-0.3,0.1-0.4,0.4-0.4h1.8
		c0.3,0,0.4,0.1,0.4,0.4v8.2c1-1.7,2.7-2.7,5-2.7c3.9,0,6.7,3.1,6.7,7.2c0,4.1-2.7,7.2-6.7,7.2C155,223.5,153.3,222.5,152.3,220.8z
		 M161.6,216.3c0-2.9-2-4.9-4.7-4.9c-2.7,0-4.6,2-4.6,4.9s1.9,4.8,4.6,4.8C159.6,221.2,161.6,219.2,161.6,216.3z"/>
</g>
</svg>
