<svg xmlns="http://www.w3.org/2000/svg" viewBox="0 0 362.3 187.2" fill="#fff" xmlns:v="https://vecta.io/nano"><path d="M347.9 150.3c-.2.1-.5.3-.7.4-.3.1-.6.2-.9.4-.5.2-1 .5-1.5.8l-3.6 1.9-3.6 1.8-4.1 2.3c-3.3 1.8-6.8 3.1-10 4.9s-6.4 3.8-9.6 5.6c-2.4 1.3-4.9 2.5-7.4 3.5-1 .4-2.1.8-3.1 1.1l1-.4c-2.7 1-5.3 2.2-8 3.4a158.4 158.4 0 0 1-7.7 3.2c-1 .5-1.8 1.4-2.1 2.5-.7 2.2.6 4.6 2.8 5.3h0c1.1.3 2.2.2 3.2-.3l7.3-3.1c2.4-1.1 4.6-2.1 6.9-3l.4-.1c1.8-.7 3.7-1.3 5.5-2.2s3.4-1.6 5.1-2.5c3.3-1.8 6.4-3.8 9.6-5.6s6.7-3.1 10-4.9c1.4-.8 2.8-1.5 4.1-2.3 1.1-.7 2.4-1.2 3.6-1.8s2.6-1.3 3.8-2c.5-.3 1-.5 1.5-.8l.6-.3c.3-.1.6-.3.9-.6 1.9-1.2 2.6-3.6 1.6-5.6-.7-1.4-2.2-2.2-3.8-2.2a7.59 7.59 0 0 0-1.8.6h0z"/><path d="M163.4 102.9l-6.5.2h-6.6c-4.1 0-8.2-.1-12.2.1-3.8.2-7.6.6-11.4.8-.4 0-.8.1-1.2.1h-1l-4.6.3c-2.4.2-4.8.5-7.1.8-4.2.5-8.4 1.2-12.7 1.9-2.1.3-4.2.7-6.3 1l-5.8.9c-4.1.8-8.2 1.8-12.3 2.8l-6 1.5c-2 .5-4.1 1-6.1 1.6-3.9 1.2-7.8 2.5-11.6 3.8-1.8.6-3.7 1.1-5.5 1.6-2.1.7-4.1 1.4-6.1 2.2l-4.6 2.2-4.8 2.2c-1.6.8-3.2 1.5-4.9 2.2s-3.3 1.5-5 2.3-3.6 1.5-5.4 2.3c-1.6.7-3.1 1.5-4.6 2.3-.8.4-1.6.9-2.4 1.4s-1.4.8-2.1 1.2c-1.8 1.1-3.5 2.5-5.2 3.7a2.36 2.36 0 0 0-.8.9c.1.2.2.5.2.7.2.6.4 1.1.6 1.7.1.3.2.5.3.8s.1.4.2.6l.6.9 1.4 1.7.1.1v.1c1.1 0 2.2-.4 3-1.1l2.6-2c1.1-.8 2.3-1.4 3.5-2.1 1.5-.8 3-1.7 4.5-2.4 3.2-1.5 6.5-2.7 9.7-4.2l9.7-4.4c2.9-1.3 5.7-2.8 8.6-3.9 3.5-1.2 7-2.1 10.5-3.3 3.8-1.3 7.6-2.7 11.5-3.7l6.3-1.6c2.1-.6 4.1-1 6.2-1.5 3.9-1 7.8-1.8 11.8-2.5 9-1.4 18.1-3.1 27.2-4 4-.4 8-.5 12.1-.8s7.7-.5 11.6-.6h12.9c2.2 0 4.3-.2 6.5-.2h6.1l12.4.2c4.1.1 8.3.4 12.4.7l12.4.8c2.1.2 4.2.4 6.3.7s4.2.4 6.2.7a147.8 147.8 0 0 1 9.3 1.2l12.6 2.2 2.9.5h.2c4 .7 8.1 1.5 12.1 2.4 4.2.9 8.3 1.8 12.4 2.9l12.3 3.2c4.1 1.1 8.2 2.4 12.4 3.7l19.2 5.9c2.9.9 5.9 1.8 8.7 2.9 1.5.6 2.9 1.3 4.4 1.9s2.8 1 4.1 1.6c.8.4 1.6.8 2.3 1.3 1 .6 2.1 1.1 3.1 1.8.8.5 1.4 1 2.2 1.5s1.3.9 1.9 1.3c2 1.6 4.3 2.7 6.3 4.3.2.2.5.4.7.7.5.5 1 .9 1.6 1.3l.3.3a6.42 6.42 0 0 0 1.3 1 4.54 4.54 0 0 0 3.2.6c2.3-.5 3.7-2.8 3.2-5.1-.3-1-.9-1.9-1.8-2.5-.3-.4-.7-.7-1.1-1-.2-.1-.3-.2-.5-.4-.1-.2-.3-.3-.5-.4-.7-.6-1.3-1.2-2-1.7s-1.7-1.2-2.6-1.8l-3-2c-.5-.3-.9-.7-1.4-1s-1.2-.8-1.8-1.1c-3.3-2.4-7-4.3-10.8-5.7-1.9-.7-3.7-1.5-5.5-2.3a65.57 65.57 0 0 0-5.7-2.1l-24.2-7.4-12-3.6c-4-1.1-8.2-2.1-12.4-3.2-2.1-.6-4.2-1.1-6.4-1.5s-4.5-1-6.8-1.5c-4.6-.9-9.1-1.9-13.7-2.6l-3.9-.7-13.5-2.3c-4.1-.7-8.3-1-12.4-1.4l-12.9-1.2-12.1-.7-6.1-.3c-2.1-.1-4.3-.1-6.5-.1l-10.5-.2-1.2-.4zm64.2 12.8l.7.1-.7-.1zm15.8 2.7l.7.1-.7-.1z"/><path d="M243 118.4h0zM3.8 41.1c-.1 2.5.4 4.9.2 7.4L3.7 52l-.1 3.6.1 4.8-.2 4.3-.2 4.8-.3 3.8-.5 8.4-.5 9.5.1-.6-.6 4c0-.2.1-.4.1-.7-.4 2.2-.6 4.5-.8 6.7l-.2 5.5-.4 7.4-.1 3.8c0 .6-.1 1.2-.1 1.8 0 .7.1 1.3.1 2 0 .2 0 .4.1.6l.2 5.4c0 .9-.1 1.8-.2 2.7s0 1.8 0 2.7c.1 1.6.3 3.3.2 4.9l-.2 4.8c.2.5.3 1.1.5 1.6l.6 1.7.3.8c.1.3.1.3.2.4.7.5 1.5.8 2.4.9 1.1 0 2.2-.4 3-1.1.8-.8 1.3-1.9 1.4-3 .2-1.9.2-3.9.2-5.8l-.2-5.3.2-5.7c0-2-.1-3.9-.4-5.9 0-.5-.1-1-.2-1.6 0 .4.1.7.1 1.1-.1-1-.1-2.1 0-3.1l.1-3.7.4-7.2.2-5.1.6-6c-.1.3-.1.6-.1.8l.6-3.9-.1.6c.3-1.7.5-3.5.6-5.2l.1-4.8c0-1.6.3-3.2.3-4.7l.2-4.1.3-3.9.2-4.8.2-4.2-.1-4.9.1-3.7c0-.6 0-1.2.1-1.7.1-.6.2-1.2.2-1.9.2-2.5-.3-5-.2-7.5 0-2.3-1.8-4.2-4.1-4.3H8c-2.3 0-4.2 1.8-4.2 4.1h0z"/><path d="M165 .2l-6.4.3-6.2.2c-4.1.2-8.3.7-12.4.9-2.9.2-5.8.5-8.8.8s-5.7.6-8.6 1-5.7.6-8.5 1c-2.5.3-4.9.7-7.4.9-2.3.2-4.7.5-7 .8-2.1.3-4.1.7-6.1 1.1s-3.9.9-5.9 1.1-4 .5-6 .9c-4.1.8-8.1 1.8-12.2 2.7s-8.2 2-12.3 3c-3.9 1-7.7 2.3-11.4 3.8-1.8.7-3.6 1.5-5.3 2.3-1.6.7-3.2 1.4-4.9 2-5 1.8-9.9 3.9-14.8 6-2.2.9-4.3 2.1-6.4 3.1-2.2 1.1-4.3 2.4-6.4 3.7-1 .5-1.7 1.4-2.1 2.5-.4 2.3.8 4.7 3.1 5.4 1.1.3 2.3.2 3.3-.3 1.9-1.3 3.9-2.5 6-3.6 2-1 3.9-2 5.9-2.9s4.3-1.8 6.4-2.7c2.4-1 4.7-2 7.2-2.9l-.3.1c2.4-.9 4.8-1.9 7.2-2.9l6.8-2.9c1.8-.6 3.7-1.3 5.5-1.8s4-1.1 6-1.5l12.4-3c2-.5 4-.9 6.1-1.3s4-.8 6.1-1.1 3.9-.5 5.8-.9l6.1-1.2a72.05 72.05 0 0 1 6.7-.9 95.82 95.82 0 0 0 7.5-.9c2.5-.4 5.2-.7 7.7-1l15-1.7c1.8-.2 3.5-.3 5.3-.4 2.1-.1 4.3-.4 6.4-.5 4.1-.3 8.2-.3 12.3-.5s8.2-.4 12.4-.3c4.3.1 8.6.4 13 .5 3.7 0 7.4.2 11.1.5l11.3.9c3.8.2 7.7.3 11.6.7s7.8.6 11.6 1.2l8.4 1.4 8.2 1.1 7.3 1.3-1.2-.2 4.8.8-1.1-.2c4 .7 8 1.6 12 2.6 2.1.5 4.2.9 6.3 1.4s4 1 5.9 1.6l6.3 1.9c1.9.6 3.8.9 5.8 1.4 4.1 1.1 8.1 2.3 12.1 3.5 3.5 1.1 7 2.1 10.3 3.5l5.2 2.2c1.5.6 3 1.1 4.5 1.7 1.2.6 2.4 1.3 3.7 2 1.7 1 3.5 1.8 5.3 2.6.9.4 1.8.9 2.6 1.3s2 .8 3 1.2l3 1.2c1 .4 1.9.7 2.8 1.1l.9.4-.5-.2c1.3.6 2.6 1.4 3.8 2.2l.6.5-.4-.3.1.1c1.5 1.8 4.2 2 6 .5s2-4.2.5-6c-.1-.1-.2-.2-.2-.3-.2-.2-.5-.5-.8-.7-.7-.6-1.4-1.1-2.2-1.7-1.4-.9-2.8-1.7-4.3-2.3l1 .5-3.3-1.5c-.9-.3-1.8-.7-2.6-1.1-1.6-.7-3.3-1.3-4.9-2-1.2-.5-2.3-1.1-3.5-1.6-1.7-.9-3.3-1.9-5-2.7-2.1-1-4.2-2-6.4-2.8-3.9-1.4-7.6-3.3-11.6-4.5L302 18.7c-2-.6-4-1.2-6.1-1.7s-3.9-.9-5.9-1.5c-5.1-1.5-10.1-3-15.3-4.1-2.6-.5-5.2-1.1-7.7-1.7-2.9-.7-5.8-1.2-8.7-1.7l1.1.2c-1.3-.2-2.6-.4-3.9-.7-2.8-.5-5.7-1.1-8.5-1.4-2.6-.3-5.2-.7-7.8-1.1-4.2-.6-8.2-1.4-12.2-1.7l-6.4-.6c-2.1-.2-4-.4-6-.5l-6.7-.3c-1.9-.1-3.8-.3-5.8-.4-4.1-.4-8.3-.6-12.5-.8-1.9-.1-3.9-.1-5.8-.1-2.2-.1-4.4-.2-6.6-.2S173.1.1 171 0h-.9c-1.7 0-3.4.1-5.1.2h0zm185.7 48h0z"/><path d="M354 42.8c-2.3.6-3.7 2.8-3.2 5.1.8 3.3 1.5 6.6 2 10 .3 3.5.3 7 .4 10.5.1 1.9.2 3.8.1 5.8l-.3 6.1c-.1 2.2 0 4.4.2 6.6.1 1.8.1 3.6.1 5.4s0 3.8.1 5.8.1 4 0 6c-.1 3.3.1 6.6.2 9.9 0 1.8-.1 3.5-.1 5.3v2.7l.3 3a64.33 64.33 0 0 1-.3 6.2c-.2 1.7-.2 3.3-.5 5-.5 2.4-1.1 4.7-1.9 7-.5 1.5-.9 3.1-1.4 4.6-1.2 2-.6 4.6 1.4 5.9 2 1.2 4.6.6 5.9-1.4.6-1 1-2.1 1.3-3.2l.6-2c.5-1.6 1-3.2 1.4-4.8.3-1.1.6-2.2.8-3.3.4-1.9.5-3.7.7-5.6.2-1.7.2-3.4.4-5.1.1-.9.1-1.9.1-2.8 0-1.1-.2-2.1-.4-3.2-.1-1.6 0-3.2 0-4.9 0-1.8.1-3.6 0-5.4s-.2-3.4-.2-5.1c0-2 .1-4 .2-6s-.2-4-.2-6.1c0-1.8.1-3.5.1-5.3 0-2-.3-4-.4-6s.1-4 .2-6c.1-2.7.2-5.4.1-8.1l-.3-6.8c-.1-3-.3-6-.8-9-.2-1.2-.5-2.4-.8-3.5l-.9-4c-.5-1.9-2.2-3.3-4.2-3.3-.1 0-.5.1-.7 0h0zm-108.5 71.4c-1.4.4-2.8 1-4.1 1.8l-4 1.8-4.7 2-5.8 2.8c-3.3 1.6-6.4 3.4-9.6 5.2-1.7 1-3.5 1.9-5.3 2.9s-3.5 1.8-5.3 2.6c-3.6 1.6-7.2 3.4-10.7 5.1-1.8.9-3.5 1.8-5.2 2.8-1.6.9-3.2 1.6-4.8 2.5-3.3 1.8-6.7 3.4-10 5l-5.9 2.9-5.4 2.9c-1 .6-2 1.1-3.1 1.7s-2.1 1.1-3.1 1.6c-2.2 1.2-4.5 2.3-6.8 3.3l-2.9 1.1c-1.2.4-2.4.9-3.5 1.4-1.1.6-2.2 1.3-3.2 2.1l-.9.6c-.6.5-1 1.2-1.2 1.9-.3 1.1-.2 2.2.3 3.2.4.7.9 1.3 1.6 1.7h.1c.5-.2 1.1-.4 1.6-.4.6-.1 1.2-.1 1.8-.1h-.1c.6 0 1.2 0 1.8-.1 1.2-.8 2.4-1.5 3.8-2.1l2.7-1c1.8-.6 3.5-1.3 5.2-2.1 1.6-.9 3.3-1.8 4.9-2.6 3.3-1.6 6.4-3.5 9.7-5.2 3.6-1.9 7.4-3.5 11.1-5.4l4.9-2.5 2.4-1.2c.8-.4 1.7-.8 2.5-1.3l5.1-2.7c1.7-.9 3.4-1.7 5.1-2.5l5.5-2.6c1.8-.8 3.6-1.8 5.3-2.6 3.4-1.7 6.7-3.8 10.1-5.6 1.6-.9 3.2-1.7 4.8-2.5 1.9-1 3.9-1.9 5.8-2.8 2.3-1.1 4.7-1.9 7-3l2.6-1.2c.6-.3 1.2-.6 1.8-.8h.1c2.3-.5 3.7-2.8 3.2-5-.4-2-2.2-3.4-4.3-3.3-.3 0-.6 0-.9.1v-.4zm-94.8 56.4l-.8.3.8-.3zm-36.2-62.7c-1 .6-2 1.1-3.1 1.5l-4.1 1.9-4.7 2.1-4.8 2.3c-7 3.4-14.1 6.3-20.8 10.2-2.9 1.7-5.9 3.3-9 4.7-1.6.7-3.1 1.5-4.7 2.1s-3.3 1.4-4.9 2.2-3.1 1.6-4.7 2.3-3.1 1.4-4.6 2.1-3.1 1.4-4.7 2.1c-1.2.6-2.4 1.1-3.7 1.6l-5.2 1.8c-1.7.6-3.5.9-5.2 1.4s-3.7.8-5.5 1.2c-1.6.3-3.3.7-4.9.9-.9.1-1.8 0-2.7-.1-1.6-.4-3.1-.9-4.6-1.5-.5-.3-.9-.5-1.4-.8s-1-.5-1.4-.8-.7-.8-1.1-1.2c-.7-.7-1.3-1.5-2-2.2-1.6-1.7-4.3-1.8-6-.3l-.3.3c0 .1.1.2.1.3.2.6.4 1.2.6 1.7s.4 1.1.6 1.7c.1.3.2.5.3.8s.1.4.2.6l.6.9 1.4 1.7.4.4c.9 1.1 1.9 2.2 3 3.1.5.5 1.1.9 1.6 1.4l.3.2c1.6.7 3.2 1.3 4.8 1.7 1.2.3 2.3.5 3.5.6s2.4 0 3.6-.2c1.9-.2 3.9-.7 5.8-1s4-.9 6-1.3c1.9-.4 3.7-.9 5.5-1.6l6.6-2.3c1.5-.6 3-1.3 4.5-2l5.7-2.6c3.5-1.6 6.9-3.4 10.4-4.9s7.3-3.1 10.8-5c1.7-.9 3.3-1.8 4.9-2.7s3.4-1.9 5.2-2.8l17.5-8.3c1.4-.7 2.7-1.4 4.2-2s2.7-1.2 4-1.8l3.6-1.6c.9-.4 1.8-.8 2.7-1.3 1-.5 1.7-1.4 2.1-2.5.3-1.1.2-2.2-.3-3.2-.8-1.4-2.2-2.3-3.8-2.3-1.1.1-1.7.2-2.3.5h0z"/><path d="M126.9 104c-.5.1-1 .1-1.5.2h-1.1c-.1 0-.3-.1-.4-.1l-.6.1h-.3l-2.2 1c-.7.3-1.4.8-2.1 1.1-.3.2-.7.3-1 .4-.5.2-.9.5-1.4.8-1.4.8-3.1 1.1-4.5 1.9l-1.8 1c-.7.4-1.5.7-2.2 1.1-1.5.8-3.1 1.4-4.7 2.1l-4 1.9c-1 .5-1.8 1.3-2.2 2.3-.9 2.1.1 4.6 2.3 5.5 1.1.5 2.3.5 3.3 0 1.3-.7 2.6-1.4 4-1.9l4.8-2.2c.7-.4 1.5-.7 2.2-1.1l1.9-1.1c.8-.4 1.6-.7 2.5-1 .4-.2.9-.3 1.3-.5s.9-.4 1.3-.7l1.9-.9 2-1a30.9 30.9 0 0 1 3.2-1.4c2.1-.9 3.1-3.4 2.2-5.6a3.51 3.51 0 0 0-1.7-1.9h-1.2zm133.3 17.5l-1.4.9c-1.2.8-2.5 1.5-3.7 2.2l-4 2.2-2.1 1-2 .9-4 2.1-2.2 1.1-1.9.9-4.2 2.4-3.9 2.2-4.2 2.2-4.1 2.1-4.2 2.2-2.1 1c-.7.3-1.3.7-2 1l-4.2 2-2 1.1a12.81 12.81 0 0 0-2 1.1l-4.3 2-4.2 1.9-4 1.8c-2.3.9-4.4 2.2-6.7 3.4-.5.2-1 .5-1.5.7l-1.8.8-1.6.7-2 .9c-.7.4-1 1.3-.6 2s1.2 1 1.9.7l2.2-1 2.2-.9 2-.9c.7-.3 1.4-.7 2-1l3.9-2.1 4.2-1.8 2-.9 2.2-1 4.2-1.9 2.1-1 2-1.1c1.4-.8 2.8-1.5 4.2-2.1l2-.9 2.1-1.1 4.3-2.2 4-2.1 4.1-2.1 4.1-2.2 4-2.4c1.3-.8 2.7-1.4 4.1-2.1l4.2-2.1c1.1-.6 2.2-1.1 3.4-1.6s2.3-1 3.4-1.7l3.4-2 3.3-2-.1.1.8-.5c.7-.4 1.1-1.3.7-2h0c-.3-.5-.8-.9-1.4-.9-.2 0-.4.1-.6.2v-.2zm17 2.9c-.4 0-.8.2-1.2.3l-.5.2-1 .5c-.7.3-1.4.7-2 1l-4.1 2.3-3.9 2.4-4 2.2-4.4 2.2-4 2.1-4 2.3-4.2 2.3-8.4 4.5-4 2.2c-1.3.7-2.8 1.7-4.1 2.5l-4 2.2c-1.3.7-2.7 1.5-4.2 2s-2.9 1.1-4.3 1.9l-4.3 2.3c-.9.5-1.9.9-2.9 1.3l-1.3.6c-.5.2-1 .5-1.4.8h0c-.7.4-1.3.9-1.9 1.3-.6.5-.7 1.5-.2 2.1.3.3.6.5 1 .5s.8-.1 1.1-.4c.5-.4 1-.7 1.5-1l.1-.1c1.2-.7 2.5-1.3 3.8-1.8 1.5-.6 2.9-1.5 4.3-2.2l4.2-2 2.2-.9 2.1-1 4.2-2.2 4-2.3 8.3-4.7 4-2.2 4.2-2.2c1.4-.7 2.7-1.6 4.1-2.4a12.81 12.81 0 0 1 2-1.1c.7-.3 1.3-.7 2-1.1l8.4-4.4 4.1-2.4 3.9-2.3 2.7-1.4c.9-.5 1.8-.9 2.7-1.3h.3c.4-.1.8-.3 1-.6a1.39 1.39 0 0 0 .2-1.1c-.1-.4-.3-.8-.6-1s-.6-.3-.9-.2l-.6.3zm-72.8 38.5l.3-.2-.3.2zm86.9-34.4c-1.4.6-2.7 1.4-4.1 2.2l-1.9 1-2.1 1.2-3.8 2.4-4 2.3c-1.3.8-2.5 1.4-3.8 2l-3.7 1.9c-1.3.6-2.5 1.3-3.8 2s-2.5 1.5-3.8 2.3c-2.6 1.6-5.4 3-8.1 4.3l-2.1 1c-.7.3-1.3.7-2 1l-4.1 2.4-4.3 2.9-6.7 3.9c-1.1.6-2.3 1.1-3.5 1.6-1.2.6-2.4 1.3-3.6 2.1-.4.2-.6.5-.8.9-.3.8.1 1.6.9 1.9.4.2.8.2 1.1 0l2.1-1.3c.7-.4 1.4-.7 2.1-1 1.5-.6 2.9-1.4 4.3-2.1s2.7-1.5 4-2.3l2.4-1.5 1.8-1.3c.2-.1.4-.3.7-.4l4-2.4 4.1-2.1 8.3-4.3c.8-.4 1.5-1 2.3-1.5 2.7-1.7 5.5-3.1 8.3-4.6l4.1-2.1 4.1-2.3 3.1-1.9a23.81 23.81 0 0 1 3-1.8l3.4-1.9 3.2-1.7c.7-.4 1.1-1.3.7-2-.3-.5-.8-.8-1.3-.8-.1-.2-.4-.1-.5 0h0zm-28.1 19h0zm-18.7 10.3l-.2.1.2-.1zm61.5-24.6l-4.2 2-4.2 2.3-8.2 4.9-3.9 2.3-4.3 2.3-8.3 4.6-4.2 2.2-4.1 2-8.4 4.7-3.4 1.9c-1.1.7-2.3 1.2-3.5 1.8l-3.6 1.7c-1.3.6-2.6 1.3-3.8 2-.4.2-.6.5-.8.9-.3.8.1 1.6.9 1.9.4.1.8.1 1.1-.1l2.2-1.3 2.1-1 4.4-2.1 3.9-2.1 4.1-2.3 4.3-2.5c1.4-.8 2.8-1.4 4.2-2.1l4.2-2.1 8.4-4.6 4.1-2.2 8.3-4.8 3.5-2c1.2-.6 2.2-1.3 3.3-2s2.4-1.3 3.6-1.9l3.6-1.7c.8-.3 1.1-1.2.7-2-.2-.5-.8-.9-1.4-.9-.2.1-.4.1-.6.2h0z"/><path d="M318.7 138.3l-2.1.9c-.7.3-1.3.6-1.9 1-1.4.7-2.7 1.6-4 2.4l-8 4.9-4.2 2.4-4 2.1-8.4 4.5-8.2 4.6-8.3 4.8c-3.3 1.7-6.5 3.7-9.6 5.8-.6.5-.7 1.5-.2 2.1s1.5.7 2.1.2c.5-.4 1.1-.8 1.6-1.2l4-2.4c1.4-.8 2.8-1.5 4.1-2.3l8.3-4.8 4.1-2.3c1.3-.7 2.7-1.6 4.1-2.3s2.7-1.5 4.1-2.3 2.8-1.5 4.2-2.3 2.7-1.4 4-2.1 2.8-1.6 4.1-2.4l4.1-2.5 4-2.4c1.2-.7 2.4-1.4 3.6-2 .5-.3 1-.5 1.6-.8s1.3-.6 2-.9c.4-.2.6-.5.8-.9.1-.4.1-.8-.1-1.1-.2-.4-.5-.6-.9-.8-.1-.1-.3-.1-.5-.1s-.5.1-.7.1l.3.1zm16 5.7c-2.8 1.2-5.4 2.7-8.1 4.1l-4.3 2.2-4.2 2.1-8.3 4.3-12.7 6.5-4.5 2.4-4 2.2-4.4 2.4-4.5 2.6-4.6 2.3c-.8.3-1.1 1.2-.8 2s1.2 1.1 2 .8c0 0 .1 0 .1-.1l4.2-2.1c1.4-.7 2.8-1.6 4.1-2.4l4.1-2.3 4.2-2.3 12.6-6.6c1.4-.8 2.9-1.5 4.4-2.2l4.2-2.1 4.1-2.2 4.1-2.1 2-1.1 2.3-1.2 8.9-4.5a1.47 1.47 0 0 0 .7-2h0c-.2-.5-.8-.9-1.4-.9.2.1 0 .1-.2.2h0zM24.6 50.1l-3.8 1.6c-1.2.5-2.3 1-3.5 1.7s-2.4 1.5-3.6 2.4l-3.1 2.3c-.8.6-1 1.6-.4 2.4s1.6 1 2.4.4c.1 0 .1-.1.2-.1l5.6-4c1-.6 2.1-1.2 3.2-1.6l4.4-1.8c.9-.4 1.3-1.4 1-2.3a1.78 1.78 0 0 0-1.6-1 1.1 1.1 0 0 0-.8 0h0zm-6.3 6.7l-.1.1.1-.1zm22.1.8l-2.8.6-2.9.9-5 2.2-10 4.7-5.9 3-5.2 3.5c-.8.6-.9 1.7-.3 2.5s1.7.9 2.5.3l4.5-3.1c1.5-.9 3.1-1.7 4.8-2.5l4.9-2.2 5.1-2.4 5.1-2.3c.9-.3 1.7-.7 2.6-.9 1-.3 2.1-.5 3.2-.7.5-.1.9-.3 1.2-.7.6-.8.4-1.9-.4-2.5a1.69 1.69 0 0 0-1-.3l-.4-.1z"/><path d="M25.6 77.9l-2.1.9c-.6.3-1.3.5-1.9.9l-3.8 2.1c-1.3.7-2.6 1.5-3.8 2.3l-3.4 2.3c-.8.6-.9 1.7-.3 2.5.3.4.7.6 1.2.6s.9-.1 1.3-.4l4.5-3 2.9-1.8 3.2-1.8c1.1-.6 2.4-1 3.6-1.6.9-.4 1.3-1.4.9-2.3a1.78 1.78 0 0 0-1.6-1c-.3.1-.5.2-.7.3h0zm-5.2 6.4l-.1.1.1-.1zm-3.2 2l-.2.1.2-.1zm9.1 7.7l-7.9 3.6-3.8 1.9-4.1 2.3c-.8.6-.9 1.7-.3 2.5.3.4.7.6 1.2.6s.9-.1 1.3-.4l.8-.6c1-.6 2-1.1 3.1-1.6l7.2-3.4c1.2-.6 2.6-1.2 3.9-1.7.9-.4 1.2-1.5.8-2.3-.3-.6-.8-.9-1.5-1-.2 0-.5 0-.7.1h0zm310.6-39.9c-.9.3-1.4 1.3-1.1 2.2.2.4.5.8.9 1l4.9 2 4.8 2.3 8.7 4.9.9.6c.7.6 1.8.5 2.5-.2.6-.7.5-1.8-.2-2.5l-5-3.1-4.6-2.5-4.9-2.5c-1.7-.8-3.6-1.5-5.4-2.2-.2-.1-.5-.2-.8-.2-.3.1-.5.2-.7.2h0zm-8.5 12.4c-.4.9-.1 1.9.8 2.3l5.5 2.2c1.8.7 3.4 1.5 5.1 2.3l4.8 2.2c1.6.7 3.3 1.6 5 2.5 1.3.7 2.5 1.5 3.7 2.3l.5.3c.4.3.8.4 1.3.4s.9-.3 1.2-.6.4-.8.4-1.2c0-.5-.3-.9-.6-1.2l-5.1-3.1-4.9-2.5-4.8-2.2-5.1-2.3-5.4-2.2c-.2-.1-.5-.2-.8-.2a1.78 1.78 0 0 0-1.6 1h0zm8.8 17.7c-.4.9-.1 1.9.8 2.3l7.2 3.4 3.4 1.9c1.2.6 2.2 1.2 3.2 1.9l.1.1a1.92 1.92 0 0 0 1.2.4c.5 0 .9-.3 1.2-.6s.4-.8.4-1.2c0-.5-.2-.9-.6-1.2-1.2-.8-2.5-1.6-3.7-2.2s-2.3-1.3-3.5-2-2.3-1.2-3.5-1.8-2.6-1.1-3.9-1.7c-.2-.1-.5-.2-.8-.2-.6-.1-1.2.3-1.5.9h0zm-3.6 14.5c-.4.2-.8.5-1 .9-.4.9 0 1.9.8 2.3l6 2.6 5.2 2.9 3 2.1c1 .7 1.9 1.5 2.8 2.4.3.3.8.5 1.2.4 1-.1 1.7-.9 1.6-1.8h0c0-.5-.3-.9-.6-1.2-.6-.6-1.2-1.1-1.8-1.6s-1.3-1-2-1.5c-1.4-1-2.9-2-4.4-2.8l-4.5-2.4-5-2.1c-.2-.1-.5-.2-.8-.2-.1-.1-.3-.1-.5 0h0zm-1.4 13.9c-.4.1-.8.5-1 .9s-.2.9-.1 1.3.5.8.9 1l3.6 1.3c1.2.4 2.3 1 3.4 1.6l3.1 1.7 3 1.7c1.2.8 2.4 1.7 3.5 2.7.5.4 1 .9 1.6 1.3s1.3 1.1 2 1.6a1.92 1.92 0 0 0 1.2.4c.5 0 .9-.3 1.2-.6.6-.7.5-1.8-.2-2.5l-2.2-1.8-2-1.6c-1.5-1.2-3.1-2.3-4.7-3.3-.8-.4-1.5-.9-2.3-1.3l-2.4-1.3c-1.7-.9-3.4-1.7-5.2-2.4l-2-.7c-.3-.1-.5-.2-.8-.2-.3.1-.5.1-.6.2h0z"/><path d="M99.7 63.7c-1.1-10.5 6.1-19.5 16.6-20.7 5.1-.5 9.4.8 12.9 3.7.5.3.5.7.2 1.1l-2.3 3.1c-.3.4-.6.4-1 .2-2.7-1.9-5.7-2.8-9.2-2.4-7.2.8-12.1 6.9-11.3 14.3s6.9 12.3 14.4 11.5c6.6-.7 10.4-5.3 9.9-10.7L119.1 65c-.5 0-.8-.2-.8-.6l-.4-3.7c0-.5.2-.8.6-.8l15.5-1.7c.5-.1.8.2.9.7l.3 2.5c1 9.6-4.5 17.8-14.8 18.9-10.6 1.2-19.5-6-20.7-16.6zm41.6-19.9c-.1-1.8 1.3-3.3 3.2-3.3 1.8-.1 3.3 1.3 3.3 3.1.1 1.8-1.3 3.3-3.1 3.4a3.33 3.33 0 0 1-3.4-3.2zm1.6 33.4l-.8-23.9c0-.5.2-.8.7-.8l4.2-.1c.5 0 .7.3.8.8l.8 23.9c0 .5-.2.8-.7.8l-4.2.1c-.5 0-.8-.3-.8-.8zm15.2-5.5l.1-15.1h-3.3c-.5 0-.7-.3-.7-.8v-2.9c0-.5.3-.8.7-.8h3.3v-6c0-.5.3-.8.7-.8h4.2c.5 0 .7.3.7.8v6h4.1c.5 0 .8.3.8.8v2.9c0 .5-.3.8-.8.8h-4.1l-.1 14.5c0 1.7.8 2.5 2.3 2.5.4 0 1 0 1.6-.1.6 0 .9.2.9.7V77c0 1-2.3 1.3-3.9 1.3-3.7 0-6.6-1.8-6.5-6.6zm39.8-7.8l-1.1 14.8c0 .5-.4.8-.8.7l-4.1-.3c-.5 0-.7-.4-.7-.8l1-13.8c.3-4-1.5-6.4-5.1-6.7s-6.2 1.8-6.5 5.8l-1 13.8c0 .5-.3.8-.8.7l-4.1-.3c-.5 0-.7-.4-.7-.8l2.6-35.5c0-.5.3-.8.8-.7l4.1.3c.5 0 .7.4.7.8l-1.1 14.8c1.6-2.5 4.3-4.3 8.3-4 5.5.4 9 4.5 8.5 11.2zm7.3 6.6l2.3-14.7c.1-.5.4-.7.8-.7l4.1.6c.5.1.7.4.6.9l-2.1 13.7c-.6 4 1 6.5 4.5 7.1 3.5.5 6.4-1.3 7-5.3l2.1-13.7c.1-.5.4-.7.8-.7l4.1.6c.5.1.7.4.7.9L226.4 83c-.1.5-.4.7-.9.7l-3.9-.6c-.5-.1-.7-.3-.6-.9l.3-3.1c-1.8 2.3-4.7 3.9-8.7 3.3-5.3-1-8.4-5.2-7.4-11.9zm34.1 11.7l-.9 3.3c-.1.5-.4.7-.9.6l-3.7-.9c-.5-.1-.6-.5-.5-.9l8.3-34.6c.1-.5.4-.7.9-.6l4 1c.5.1.6.5.5.9l-3.4 14.3c2.4-2.3 5.7-3.2 9.5-2.3 7.1 1.7 10.6 8.5 8.8 15.9s-8 11.8-15.1 10.1c-3.9-1-6.4-3.5-7.5-6.8zm17.4-4.6c1.1-4.8-1.3-8.8-5.8-9.8-4.4-1.1-8.3 1.4-9.4 6.2s1.2 8.7 5.6 9.7c4.4 1.1 8.4-1.3 9.6-6.1z" enable-background="new"/></svg>