<svg xmlns="http://www.w3.org/2000/svg" viewBox="0 0 240.9 275.5"><defs><style>.cls-1,.cls-2{fill:#48578c;}.cls-2{opacity:0.67;}.cls-2,.cls-3{isolation:isolate;}.cls-3{fill:#d3d3d3;opacity:0.88;}.cls-4{fill:#9e9e9c;}.cls-5{fill:#2c2c2c;}</style></defs><g id="Layer_2" data-name="Layer 2"><g id="Draw_Layer" data-name="Draw Layer"><path class="cls-1" d="M.25,3.21a14.66,14.66,0,0,0-.2,3.91c0,.55.07,1.09.09,1.62s0,1.11,0,1.66c0,1,0,1.93,0,2.9s.09,2.16.08,3.25,0,2.06-.06,3.09,0,1.88,0,2.82c0,1.9,0,3.8-.05,5.71s-.1,3.64-.06,5.47c0,1,0,1.94,0,2.92s-.06,2.17,0,3.25.21,1.89.29,2.83.15,2.12.15,3.18,0,2.08,0,3.12.06,2.2.05,3.3a53.17,53.17,0,0,0,.44,7.46c.11.94.21,1.88.24,2.84,0,1.17,0,2.33,0,3.5,0,2.35.06,4.68.24,7a27.76,27.76,0,0,1,0,3.16c-.06,1.22-.1,2.44-.13,3.67-.07,2.24-.13,4.5-.12,6.75s0,4.43-.08,6.65S1.17,97.71,1,99.92s-.34,4.41-.44,6.61-.07,4.58-.11,6.86c0,1.07-.08,2.14-.12,3.2a31.68,31.68,0,0,0,0,3.23c.06,1,.08,1.91.14,2.87.06,1.11.11,2.24.09,3.35,0,2-.31,3.94-.28,5.91s.07,3.65.15,5.47.35,3.89.36,5.85c0,1.78-.08,3.55-.18,5.32a59,59,0,0,0,.23,6.09c0,1.1.12,2.2.14,3.31s0,2.06,0,3.08c0,1.29,0,2.57.07,3.85s.28,2.7.46,4a45.6,45.6,0,0,1,.3,6.18c-.05,2.34-.28,4.68-.24,7s0,4.6,0,6.89-.21,4.4-.2,6.6c0,1.55.15,3.1.21,4.65,0,.7.07,1.42.05,2.13s-.1,1.66-.2,2.5c0-.17.05-.34.07-.51a72.63,72.63,0,0,0-.7,12.93c0,1,.08,2,.15,3.07s.1,2.13.07,3.2-.1,2-.09,3A31.62,31.62,0,0,0,1.23,230v0a.13.13,0,0,1,0,.06c.17,1.22.39,2.43.59,3.64a1.89,1.89,0,0,0,.9,1.2,2,2,0,0,0,2.7-.7,2.07,2.07,0,0,0,.21-1.5c0-.34-.11-.68-.17-1h0c-.13-.74-.26-1.48-.37-2.23v-.11A37.52,37.52,0,0,1,5,223.61c0-1.31,0-2.62-.1-3.93,0-.69-.08-1.38-.1-2.07l0-.83c0-.69,0-1.38,0-2.07,0-.88,0-1.86.08-3.08,0-.74.1-1.47.16-2.19L5,208.8l0-.23c.07-.86.15-1.72.26-2.58h0c0-.1,0-.2,0-.31s0-.07,0-.11h0a22.71,22.71,0,0,0,.28-3.29c0-1.06-.06-2.24-.13-3.61-.06-1.1-.12-2.28-.13-3.43,0-.68,0-1.39.07-2.06v-.36c0-.26,0-.52,0-.78.09-2.07.08-4.18.08-6.22v-.22c0-2.42,0-4.93.12-7.39V178l0-.2c0-.14,0-.28,0-.42h0c.06-1.51.12-3.29,0-5.1,0-1.17-.12-2.11-.22-3-.06-.63-.15-1.26-.24-1.89l-.11-.77A49.73,49.73,0,0,1,5,161.46v-2.2c0-.65,0-1.31,0-2l-.06-1.4,0-.36,0-.53c0-.34,0-.68,0-1,0-.58-.07-1.16-.11-1.74s-.07-.89-.09-1.33c0-1,0-2,0-2.78l0-.67,0-.66c0-.46,0-.93.07-1.39s0-.68,0-1V144h0V142.7c0-1.07-.1-2.19-.19-3.08v-.19c-.07-.83-.14-1.69-.17-2.53l0-1.12v-.16c0-1.36-.09-2.77-.09-4.15,0-.72.06-1.48.1-2.08l0-.31c0-.22,0-.43,0-.64l0-.33c0-.9.1-1.83.09-2.74,0-1.34-.08-2.69-.15-4.07,0-.7-.08-1.41-.11-2.12-.06-1.46,0-3,.06-4.34,0-.72,0-1.43.06-2.14s0-1.53,0-2.32c0-1.5,0-3,.12-4.57,0-.78.1-1.56.16-2.34l0-.76c.08-1.14.16-2.27.22-3.4.11-1.74.14-3.56.17-5l0-1.58,0-1c0-.78,0-1.56,0-2.34,0-.57,0-1.14,0-1.72s0-1.13,0-1.7c0-2.43.07-4.64.13-6.75,0-.73.06-1.45.09-2.23l.07-1.3v-.05c0-.13,0-.27,0-.4h0a25.54,25.54,0,0,0-.1-2.84c-.17-2.26-.18-4.4-.17-7,0-1.14,0-2.38-.07-3.63,0-.91-.17-1.84-.3-2.81l-.07-.46c-.08-.76-.12-1.53-.16-2.34l0-.43c0-1-.07-2-.08-3.22l0-2.15,0-1.09c0-.58,0-1.16,0-1.74v-.29c0-.4,0-.8,0-1.2,0-.92,0-1.89-.14-3.17q-.06-.7-.15-1.41c0-.43-.1-.85-.13-1.27-.07-.9-.07-1.82-.06-2.69l0-.28v-.42h0c0-.68,0-1.36,0-2v-.83c0-2.22,0-4.5,0-6.51,0-1.55.06-3.09.06-4.63,0-.61,0-1.21,0-1.82v-1c0-.6,0-1.22,0-1.84,0-.44,0-.88,0-1.32,0-1.13,0-2.16-.06-3.15S4,11.71,4.05,10.66s0-2.05,0-3c0-.38,0-.76,0-1.14V5.64C4,5.33,4,5,4,4.72V4.56c0-.11.05-.22.08-.33A2,2,0,0,0,2.67,1.82a1.68,1.68,0,0,0-.5-.07A2,2,0,0,0,.25,3.21Zm5.09,202.5c0,.13,0,.27,0,.4C5.3,206,5.32,205.84,5.34,205.71Z"/><path class="cls-1" d="M42.8,0a12.34,12.34,0,0,0-1.71.15c-.85.09-1.69.1-2.54.12s-1.76.15-2.64.17c-.36,0-.72,0-1.08,0-.53,0-1.06,0-1.59,0-.89.06-1.77.24-2.65.38A19,19,0,0,1,28,.84a17.4,17.4,0,0,0-2.88.24c-.7.07-1.39.06-2.09.07s-1.35,0-2,0-1.38-.07-2.08-.09S17.4,1,16.65.93c-1.51-.05-3,0-4.54-.1-.34,0-.68-.06-1-.09A5.84,5.84,0,0,0,9.78.8c-.5.07-1,.17-1.49.24A15.53,15.53,0,0,1,4.75.84a1.87,1.87,0,0,0-1.38.56,2,2,0,0,0-.05,2.78l.42.33L4,4.64v0a1.91,1.91,0,0,0,.74.14L5,4.8A17.69,17.69,0,0,0,7.43,5l.5,0q.93-.07,1.86-.24l.65-.11h.24c.3,0,.61,0,.92.06l.17,0,.33,0c.64,0,1.27,0,1.9.06h2.26c.44,0,.88,0,1.32.07l.18,0,.66,0,.72,0h.24l1,0c.58,0,1.15.06,1.72.06h1.06c.44,0,.87,0,1.3,0a14.46,14.46,0,0,0,1.74-.19l.34,0c.37,0,.74,0,1.1,0h.91l.79,0h.18a17.53,17.53,0,0,0,2.6-.29l.79-.13c.52-.05,1-.05,1.38-.05h1.26A12.79,12.79,0,0,0,37,4.28a21.17,21.17,0,0,1,2.25-.1h.18A20.07,20.07,0,0,0,41.92,4c.42,0,.87-.06,1.36-.06.66,0,1.32,0,2,.07.39,0,.77.06,1.18.11s1.08.11,1.63.12h.24c.42,0,.84,0,1.26,0h.54c.43,0,.87,0,1.3.06.83.07,1.71.12,2.67.14s1.72.08,2.71.16a12.21,12.21,0,0,0,1.35.07,11.32,11.32,0,0,0,1.16-.09l.54-.07c.53-.05,1.1-.07,1.76-.07h1l.57,0c.29,0,.57,0,.87,0h.27c.51,0,1,0,1.52,0h.44c.41,0,.82,0,1.24,0s.7,0,1,0h.92l1.37,0,1.27,0c1,0,2,0,3,0l.83,0h.23l1.16,0c.34,0,.69,0,1,0L79,4.51c.36,0,.7-.07,1.06-.08h1.66c.65,0,1.3-.06,2-.12l1.1-.1c.4,0,.81,0,1.21,0,.62,0,1.23,0,1.83.06,1,0,2,.11,3,.18l.41,0c.55,0,1.11.08,1.66.09.3,0,.61,0,.92,0H95c.69,0,1.36.07,2.16.15.61.06,1.19.09,1.75.09h.53l2-.08.48,0,.39,0c.45,0,.91,0,1.36,0h.43c.37,0,.73,0,1.09.06l1.3.06H108c.34,0,.67,0,1,0l.63.11c.76.14,1.53.24,2.31.31.23,0,.45,0,.68,0,.47,0,.95,0,1.41,0l.26,0,.71,0,1.74,0h1.31c.8,0,1.64-.07,2.32-.12l1.19-.08,1.07-.06,1.72-.09,1.47,0,1.19,0h.51l1.08,0h.12l1,0c.25,0,.5,0,.75,0,1.18-.06,2.39-.15,3.59-.28l.38,0c.47,0,.93-.09,1.4-.12h1.79l1.14,0h.37c.39,0,.77,0,1.16,0l.77,0,1.46.07h.33c.25,0,.5,0,.79,0h1c.27,0,.55,0,.82,0s.55,0,.83,0,.81,0,1.22.06a7.3,7.3,0,0,0,1.14.09,4,4,0,0,0,.84-.07,3.93,3.93,0,0,0,.48-.06l.13,0h0l.22-.07.23,0,.1,0a3.82,3.82,0,0,0,1.39,0c.21,0,.42-.1.63-.15l.16,0c.45.24.89.52,1.33.78.65.38,1.35.74,2,1.17.18.16.36.32.56.48.35.29.72.56,1.1.82a9.82,9.82,0,0,1,.81.77A11.51,11.51,0,0,0,160,9.34a4.27,4.27,0,0,0,.44.3l.19.12.11.06.38.23.24.15.25.15c.24.14.47.3.71.45l.18.15h0l1,.72c.4.32.79.65,1.2,1s.91.66,1.37,1L167.83,15c.48.39,1,.78,1.45,1.16s.79.55,1.18.84c.9.73,1.77,1.51,2.62,2.31v0h0l1.61,1.53c.82.78,1.67,1.53,2.36,2.14.21.19.44.37.68.57l.4.32.42.36.09.08.53.45a40.81,40.81,0,0,1,3.93,3.62c.67.71,1.34,1.43,2,2.15l.33.36c.72.77,1.44,1.55,2.18,2.31.3.32.62.63.94.94l.13.13c.37.36.73.71,1.08,1.07l.45.48.3.32c.43.45.85.91,1.3,1.34l.65.64a18.49,18.49,0,0,1,1.67,1.76c.63.8,1.29,1.58,2,2.39,1.69,1.88,3.53,3.76,5.2,5.48,1.33,1.35,2.7,2.75,4,4.17.45.49.92,1,1.39,1.44l.21.22.38.38q.44.43.84.87l.14.14c.31.33.63.65.95,1s.46.46.68.7l.23.23c.3.31.61.63.92.93.7.69,1.41,1.4,2.09,2.13l.09.1a2.92,2.92,0,0,1,.28.32c.69.71,1.42,1.38,2.1,2.1s1.33,1.4,2,2.11,1.14,1.24,1.7,1.87,1.21,1.25,1.82,1.88a28.36,28.36,0,0,1,2.06,2.33c.15.22.32.43.48.64,1.09,1.5,2.23,3,3.44,4.37l.55.66.23.25.53.63.08.12c.27.31.54.62.82.91.56.58,1.07,1.21,1.57,1.84a1.9,1.9,0,0,0,1.41.6,2,2,0,0,0,2-2h0a2.08,2.08,0,0,0-.56-1.38c-.42-.54-.87-1.05-1.32-1.57s-.75-.8-1.1-1.22l-1-1.23c-1.11-1.33-2.2-2.67-3.25-4l-.66-.89.09.13a27.41,27.41,0,0,0-1.8-2.23c-.58-.63-1.22-1.2-1.82-1.82s-1.11-1.21-1.64-1.82-1.24-1.37-1.89-2c-.35-.35-.67-.73-1-1.08s-.86-.84-1.28-1.27c-.8-.82-1.59-1.66-2.41-2.46-1.25-1.22-2.46-2.49-3.67-3.75-1.42-1.46-2.86-2.91-4.24-4.41-.67-.73-1.39-1.4-2.07-2.11s-1.45-1.58-2.22-2.32-1.7-1.73-2.51-2.63-1.47-1.58-2.17-2.41c-.33-.4-.64-.82-1-1.22s-.82-.88-1.25-1.3c-.75-.74-1.51-1.46-2.22-2.24s-1.28-1.34-1.94-2c-.83-.82-1.66-1.66-2.46-2.51-1.38-1.46-2.68-3-4.13-4.39-1.29-1.24-2.66-2.38-4-3.53-.73-.61-1.47-1.22-2.17-1.88s-1.56-1.48-2.34-2.21-1.46-1.33-2.18-2c-.92-.82-1.94-1.49-2.92-2.23-.72-.57-1.45-1.13-2.18-1.69l-2-1.48c-.51-.41-1-.83-1.53-1.22s-.93-.72-1.42-1c-.67-.41-1.36-.8-2-1.26-.4-.35-.76-.74-1.16-1.09a10.13,10.13,0,0,0-1.12-.94l-.47-.33c-.17-.14-.33-.29-.49-.44a8.54,8.54,0,0,0-1.32-.9l-1.38-.82-1.39-.8a6.39,6.39,0,0,0-1-.47A2.23,2.23,0,0,0,153,0a1.78,1.78,0,0,0-.69.1,4,4,0,0,0-.68.12c-.11,0-.23.06-.34.09a6.17,6.17,0,0,0-.62-.11,2.89,2.89,0,0,0-1,.13,2.36,2.36,0,0,0-.45.08L149,.51a2,2,0,0,1-.24,0l-.32,0a3,3,0,0,1-.43,0A10.92,10.92,0,0,0,146.84.4l-1.37,0c-.61,0-1.22,0-1.83,0s-.95,0-1.42,0c-1,0-2-.1-3,0s-1.88,0-2.82,0-2.11.15-3.17.24-2.43.23-3.64.22l-1.52,0c-.55,0-1.1,0-1.65,0-.9,0-1.79,0-2.69.07-2.18.12-4.35.3-6.53.34-1,0-1.9,0-2.86.05a21,21,0,0,1-2.86,0,22.36,22.36,0,0,0-2.94-.41h-1c-.25,0-.49,0-.73,0-.58,0-1.15,0-1.73-.08a54.55,54.55,0,0,0-5.72.12A22.42,22.42,0,0,1,96.53.72c-.9-.07-1.8-.1-2.69-.08A26.7,26.7,0,0,1,91.16.52c-1-.07-2-.12-3-.18s-2-.08-3-.05S83,.55,81.82.53c-.42,0-.83,0-1.24,0a16.57,16.57,0,0,0-1.86.11,26.12,26.12,0,0,1-3.19,0c-2-.07-3.9-.08-5.84-.1H69c-.33,0-.65,0-1,0-.6,0-1.2-.05-1.8-.05s-1.11,0-1.67,0S63.45.49,62.9.47q-1.21-.06-2.43,0c-.39,0-.78.06-1.17.11a10.79,10.79,0,0,1-1.61.09c-.85,0-1.7-.15-2.55-.2S53.53.45,52.73.4,50.91.25,50,.24c-.5,0-1,0-1.51,0A13.64,13.64,0,0,1,46.91.22c-.84-.09-1.66-.16-2.5-.2-.52,0-1,0-1.57,0ZM153.53,3.83l-.23.09h0l.27-.1Z"/><path class="cls-1" d="M2.85,232.12a2,2,0,0,0-.05,2.79h0a2.06,2.06,0,0,0,1.41.6,28,28,0,0,0,3.3.2c.48,0,1,0,1.45,0s1-.09,1.5-.09,1.09,0,1.63.08,1.23.07,1.84.07c1.11,0,2.22-.1,3.33-.13s2.15-.05,3.22,0l3.32.14c2.16.08,4.33.09,6.5.15,1.1,0,2.2.08,3.3.1s2.14.11,3.2.16l3.39.17c1.09,0,2.18.06,3.28.1s2,.16,3,.22c1.15.07,2.29.15,3.45.17,2.32,0,4.65.23,7,.48a33.47,33.47,0,0,0,4.8.13,30.31,30.31,0,0,1,4.57.12c1.15.17,2.29.37,3.45.5s2.25.18,3.4.23,2.3.17,3.45.24a30.44,30.44,0,0,0,3.31,0c1.06,0,2.11-.12,3.18-.15s2,0,3,.06c2.18.11,4.35.15,6.53.21,1,0,2,0,3,0,1.2,0,2.4,0,3.6,0s2.32.16,3.48.21,2.28,0,3.42-.06a32.32,32.32,0,0,1,3.41,0c1.12.05,2.23.18,3.34.23,2.27.12,4.54.08,6.81.17s4.37.3,6.56.3,4.41.06,6.61.06,4.58-.12,6.87-.2,4.64-.1,7-.08,4.73.07,7.09,0c1.23,0,2.46-.12,3.69-.2,1.05-.08,2.1-.21,3.16-.29s2.35-.15,3.52-.22,2.34,0,3.51-.1c2.38-.13,4.76-.34,7.14-.45.79,0,1.59,0,2.38,0h1.19c1.16,0,2.31,0,3.46-.08,2.37-.09,4.73-.33,7.1-.41a64.75,64.75,0,0,1,7.1.3c2.33.17,4.66.27,7,.39a63.52,63.52,0,0,0,6.76,0c1.14-.06,2.29-.17,3.44-.24s2.13-.07,3.19-.12,1.95-.06,2.92-.11,1.87-.12,2.81-.15A23.91,23.91,0,0,1,225,238c1.1.11,2.2.08,3.31.13.91,0,1.8.19,2.71.21a10.38,10.38,0,0,0,1.76-.16H233a17.65,17.65,0,0,0,2.8.4c.42,0,.84,0,1.26-.06a13.53,13.53,0,0,0,1.91-.14,2,2,0,0,0,1.42-2.4,2,2,0,0,0-2.37-1.43c-.46,0-.93,0-1.39.05v0h-.84l-.68,0-.88-.17-.17,0-.14,0a5.58,5.58,0,0,0-1-.12,1.14,1.14,0,0,0-.26,0c-.22,0-.43,0-.66.08s-.66.05-1,.05a14.71,14.71,0,0,1-1.48-.1,20.43,20.43,0,0,0-2.47-.12h-.28l-.85,0c-.5,0-1-.07-1.5-.13s-.92-.1-1.38-.12c-.25,0-.51,0-.76,0-.64,0-1.27,0-1.9.06h-.26l-2.79.13-1.43,0c-.54,0-1.08,0-1.62.05-.84,0-1.67.1-2.5.16-1.57.11-3,.2-4.41.23h-.59c-1.43,0-2.9-.07-4.3-.14h-.25l-1.8-.08c-1.52-.07-3.05-.18-4.61-.3l-2.17-.16c-1.42-.1-2.55-.15-3.67-.15h-.1c-1,0-2,.05-3.38.13L185,234l-.35,0-.41,0-1.26.09c-1.16.06-2.37.1-3.7.13h-3.54c-1.15,0-2.36.08-3.33.16h-.24l-.69.05c-1.93.14-4.11.29-6.21.33-2.4,0-4.83.26-7,.46-2,.18-4.2.27-6.95.28-1.25,0-2.49,0-3.73,0h-.7l-2.77,0H144c-2,0-4.17.06-6.65.18-1.33.07-2.77.1-4.54.1h-3.33c-1.95,0-3.71,0-5.49-.1l-2.35-.12h-.11c-1.4-.07-2.85-.15-4.29-.16l-.88,0-2.43,0c-1-.05-2.07-.13-3.13-.21l-.24,0c-1.12-.09-2-.13-2.81-.13h-.55l-1.44.06h-.19c-.63,0-1.26.06-2,.07-1.06,0-2.15-.08-3.2-.14h-.17l-.2,0c-1-.06-2-.13-3-.13h-1.3c-.67,0-1.34,0-2,0h-.29c-.65,0-1.31,0-2,0l-1.19,0c-.89,0-1.77-.06-2.66-.1h-.3c-1-.05-2.14-.1-3.27-.12h-.19c-.94,0-1.88,0-2.78.1s-1.76.09-2.69.09h-.76c-.92,0-1.86-.1-2.66-.17l-.72-.05c-.55,0-1.09-.07-1.64-.09l-1.86-.1c-.53,0-1.07-.1-1.61-.17l-.58-.09-.5-.08c-.79-.13-1.62-.25-2.44-.33a19,19,0,0,0-2.13-.1c-.4,0-.81,0-1.21,0h-.61c-.6,0-1.19.05-1.78.05-.33,0-.65,0-1,0-.71,0-1.43-.1-2.15-.17l-.19,0-1.08-.1c-1.11-.1-2.3-.2-3.49-.24l-1.79-.08-1.67-.06c-.93,0-1.85-.11-2.84-.19s-2.28-.17-3.43-.2c-1.92,0-4-.14-6.72-.3-.72-.05-1.43-.07-2.14-.09l-1.19,0-.46,0L29,232c-1.39,0-2.78-.06-4.2-.1l-2.35-.06-1.36-.06c-.63,0-1.25-.06-1.88-.06h-.34c-1.08,0-1.95,0-2.74.06s-1.61.08-2.43.08h-.85c-.33,0-.66,0-1-.07s-.94-.06-1.41-.06a5.43,5.43,0,0,0-.57,0c-.89.06-1.64.1-2.4.1H7.28c-.57,0-1.17-.05-1.83-.11h0l-1.22-.11H4.12a2,2,0,0,0-1.27.56Z"/><path class="cls-1" d="M232.37,77.53a2,2,0,0,0-1.21.91,1.92,1.92,0,0,0-.21,1.5,3,3,0,0,0,.74,1.24c.11.1.21.2.31.31s.21.24.31.37l0,0a5.92,5.92,0,0,1,.33.61l.06.39a2.28,2.28,0,0,1,0,.26v0l.09.63,0,.34,0,.4.09.8,0,.19c0,.31.09.61.15.91l0,.15.08.42v.17c0,.24,0,.47.06.72l.06.35c.06.73.14,1.29.23,1.82,0,.25.06.5.09.75a14.61,14.61,0,0,1,0,1.62,10.12,10.12,0,0,0,.05,1.23c0,.24,0,.48,0,.72,0,.39,0,.78,0,1.17v.15c0,.44,0,.87,0,1.31,0,.72.11,1.43.2,2.17,0,.28.06.56.11.94l.06.42c.1.73.19,1.49.24,2.24,0,.4,0,.81.05,1.24s0,1.13.1,1.7c.07,1.1.13,2.2.18,3.29v.34c0,.16,0,.32,0,.48h0L235,111c0,.79.11,1.59.18,2.38.1,1.21.2,2.4.23,3.56,0,.65,0,1.29.05,2,0,1.14.07,2.3.09,3.44,0,1.3-.1,2.61-.2,3.88l0,.26c0,.61-.1,1.22-.13,1.82a42.13,42.13,0,0,0,.13,5.15v.14a51.54,51.54,0,0,1,0,5.83c0,.74-.12,1.47-.21,2.28l-.06.58c-.06.56-.12,1.13-.19,1.72h0l0,.4h0l-.08.89a39,39,0,0,0,0,5.62l.12,1.64c.11,1.42.22,2.9.24,4.35,0,1,.05,2.07.09,3.12v.42c0,.81.06,1.63.08,2.45,0,1.89,0,3.78,0,5.67,0,.63,0,1.27,0,1.9V171l0,.51c0,.73,0,1.47,0,2.18v.12l0,.58c0,.93,0,1.92,0,3,0,.13,0,.26,0,.4l0,0c0,.77.09,1.55.16,2.33.09,1,.17,2.1.23,3.19,0,.76,0,1.55,0,2.29V187c0,.75,0,1.5,0,2.26v1.18c0,.6,0,1.2,0,1.81,0,.37-.05.74-.08,1.11l0,.22c0,.44-.07.89-.09,1.33,0,.75,0,1.53,0,2.22l0,.55c0,.73,0,1.47,0,2.2,0,1,0,1.93,0,2.89s.06,1.64.11,2.46v.42c0,.14,0,.28,0,.41h0l0,0v1.56c0,.38,0,.76,0,1.13s0,1,0,1.54c0,.86,0,1.72,0,2.58,0,1.37,0,2.43-.07,3.42a24.36,24.36,0,0,0,0,3.31c.07,1.29.15,2.4.25,3.42.07.84.2,1.7.32,2.53l.12.86c0,.5.07,1,.1,1.49s0,1.18.12,1.77l0,.29a14.45,14.45,0,0,1,.11,3c0,.26-.08.52-.12.78l-.07.48a1.84,1.84,0,0,1-.05.25,1.94,1.94,0,0,0,.22,1.16,2,2,0,0,0,2.67.77h0a1.89,1.89,0,0,0,.94-1.2,26.53,26.53,0,0,0,.38-3.07,22,22,0,0,0-.25-2.82c-.09-.88-.09-1.76-.15-2.63s-.26-2-.4-3c-.2-1.7-.3-3.42-.37-5.14a25.61,25.61,0,0,1,.06-2.77,28.1,28.1,0,0,0,0-2.9c0-.86,0-1.72,0-2.58s0-1.78,0-2.67,0-1.61,0-2.42-.08-1.63-.11-2.45c-.06-1.7,0-3.4,0-5.1,0-.92-.06-1.84,0-2.76s.14-1.77.18-2.66,0-2,0-3,0-2.08,0-3.1,0-1.86,0-2.78-.14-2.13-.23-3.19a46.35,46.35,0,0,1-.18-5.77c0-1,.1-1.92.08-2.88s-.06-1.95-.06-2.93c0-1.89,0-3.78,0-5.67s-.15-4-.18-6-.23-4-.36-6a39.19,39.19,0,0,1,0-5.63c.16-2,.43-3.91.55-5.87a43.77,43.77,0,0,0,0-5.84,42.48,42.48,0,0,1-.13-5.29c.11-2,.38-4,.36-6,0-1.8-.09-3.61-.14-5.41-.06-2-.3-4-.41-5.94s-.16-3.7-.3-5.55c-.08-1-.07-2-.17-3.06s-.21-2-.34-3v0c0-.22,0-.43-.08-.65v0c-.09-.77-.15-1.55-.17-2.33s0-1.8-.09-2.7c-.11-1.3,0-2.61-.22-3.9,0-.11,0-.22,0-.33-.05-.38-.11-.75-.17-1.12s-.08-.84-.14-1.26a8,8,0,0,0-.14-1.29c-.06-.3-.13-.61-.18-.93,0,0,0-.08,0-.12,0-.61-.12-1.22-.21-1.82,0-.22,0-.44-.09-.65a1.57,1.57,0,0,0,0-.23,3.68,3.68,0,0,0-.06-.57,4.11,4.11,0,0,0-.29-.76c-.11-.25-.24-.49-.37-.73A8.75,8.75,0,0,0,235,79a5.32,5.32,0,0,0-.47-.48,1.85,1.85,0,0,0-.7-.74,1.92,1.92,0,0,0-1-.26,2.05,2.05,0,0,0-.49.06Zm2.4,1.42-.15-.34,0,0c0,.12.1.24.14.36Z"/><path class="cls-2" d="M172.21,36.76v0h-122l-46.19,0H.69a.22.22,0,1,0,0,.43H4.08v0h168.2l0,0h4v0a.19.19,0,0,0,.2-.2.2.2,0,0,0-.2-.2l-.12,0Z"/><path class="cls-2" d="M226.65,75.17l0,0H75.08l-69.53,0H4a.22.22,0,0,0,0,.44H5.55v0H227.78a.22.22,0,0,0,0-.44Z"/><path class="cls-2" d="M234.93,109.4H4.88a.2.2,0,1,0,0,.4H235a.22.22,0,0,0,.08-.3.22.22,0,0,0-.1-.09Z"/><path class="cls-2" d="M236.84,144h-1.91v0H72.37L4.79,144H4.36a.22.22,0,1,0,0,.43h.45v0H234.89l0,0h2.45a.22.22,0,1,0,0-.43Z"/><path class="cls-2" d="M235.43,177.36v0H77.58l-71.87,0H5.15a.22.22,0,1,0,0,.43h.56v0H235.45l0,0h.2a.22.22,0,1,0,0-.43Z"/><path class="cls-2" d="M237.32,205.59h-1.51v0H77.13l-71.79,0H5a.21.21,0,0,0-.22.21A.22.22,0,0,0,5,206H5.3v0H235.82l0,0h2.68a.22.22,0,0,0,.22-.22.21.21,0,0,0-.22-.21Z"/><path class="cls-3" d="M43.28,3.92c-.49,0-.94,0-1.36.05a18.41,18.41,0,0,1-2.46.2h-.18A21.18,21.18,0,0,0,37,4.28c-.5,0-1,.07-1.52.07H34.25c-.34,0-.86,0-1.38,0l-.8.13a16.29,16.29,0,0,1-2.6.29h-.18l-.78,0h-.92c-.36,0-.73,0-1.1,0l-.34,0a14.69,14.69,0,0,1-1.74.19l-1.3,0H22.06c-.58,0-1.15,0-1.72-.06l-1,0h-.24c-.24,0-.48,0-.72,0s-.44,0-.66,0h-.18c-.45,0-.88-.07-1.32-.07H15l-.65,0H14c-.63,0-1.27,0-1.9-.06l-.33,0-.17,0c-.32,0-.62-.06-.92-.06h-.24l-.66.1A16.29,16.29,0,0,1,7.92,5l-.5,0A17.84,17.84,0,0,1,5,4.8l-.28,0A1.92,1.92,0,0,1,4,4.62a8.69,8.69,0,0,0,0,1v.91q0,.57,0,1.14a28.87,28.87,0,0,1,0,3c0,1,0,2.07.07,2.93s.07,2,.06,3.15c0,.44,0,.87,0,1.32,0,.62,0,1.23,0,1.84l0,.71v.3c0,.61,0,1.21,0,1.82,0,1.54,0,3.09-.06,4.63,0,2-.06,4.29,0,6.51v.84c0,.68,0,1.36,0,2l46.19,0h122l-.08-.56-.11-.74c-.12-.81-.21-1.63-.31-2.44l-.08-.73,0-.18c-.07-.47-.14-.94-.2-1.4l0,.41a10.46,10.46,0,0,0-.12-1.11l0-.27c-.05-.3-.09-.6-.12-.89l-.13-1c-.11-.85-.23-1.53-.35-2.12-.16-.77-.38-1.53-.57-2.18-.23-.82-.42-1.65-.6-2.45l0-.12a13.92,13.92,0,0,0-.62-2.09l0-.14-.06-.14a6.87,6.87,0,0,0-.69-1.35,6.84,6.84,0,0,1-.59-.92c-.17-.33-.36-.66-.56-1s-.38-.41-.57-.61l-.35-.36-.36-.38-.59-.66-.63-.68-.31-.33-.13-.15c-.19-.21-.39-.42-.59-.61s-.54-.42-.8-.64l-.19-.15c-.23-.16-.47-.31-.71-.46l-.24-.14-.25-.15-.38-.23-.11-.06c-.5-.3-1-.61-1.49-.93l-.57-.4-.17-.11c-.28-.19-.56-.38-.85-.55a11.72,11.72,0,0,0-1.5-.76c-.39-.16-.78-.33-1.16-.52s-.51-.26-.77-.38L153.91,6l-.47-.15-.11,0-.6-.2-.33-.14L152,5.34,151.08,5a2.3,2.3,0,0,1-1-.68l-.12,0a2.65,2.65,0,0,1-.48.07,4,4,0,0,1-.84.07,7.3,7.3,0,0,1-1.14-.09c-.41,0-.82,0-1.23-.06l-.82,0c-.27,0-.55,0-.83,0h-1l-.79,0h-.33c-.49,0-1,0-1.46-.06-.26,0-.52,0-.77,0s-.77,0-1.16,0h-.37l-1.14,0h-.69l-.66,0h-.45c-.47,0-.93.08-1.4.12l-.37,0c-1.21.13-2.41.22-3.59.29h-1.83l-1.08,0H127l-1.18,0-1.47,0c-.58,0-1.15.06-1.72.09l-1.07.06-1.2.08c-.67,0-1.51.11-2.32.12h-3l-.71,0h-.26c-.47,0-.94.06-1.41.06q-.35,0-.69,0a22.11,22.11,0,0,1-2.31-.31l-.62-.1c-.34,0-.67,0-1,0h-1.49c-.44,0-.87,0-1.3-.07l-1.09-.06h-.43c-.46,0-.91,0-1.37,0l-.39,0-.47,0q-1,.06-2,.09h-.53c-.57,0-1.14,0-1.75-.09-.8-.08-1.48-.14-2.16-.15H93.78c-.3,0-.61,0-.92,0-.55,0-1.11,0-1.66-.09l-.4,0-3-.18c-.6,0-1.22,0-1.83,0-.41,0-.81,0-1.22,0l-1.1.1a19,19,0,0,1-2,.13H81l-.66,0h-.31c-.36,0-.71.05-1.07.09l-.65.05c-.34,0-.69,0-1,0l-1.15,0h-.24l-.83,0-3,0-1.26,0-1.38,0h-.93c-.35,0-.7,0-1,0s-.83,0-1.24,0H65.8c-.51,0-1,0-1.52,0H64c-.29,0-.58,0-.87,0l-.57,0-1,0c-.65,0-1.23,0-1.76.08l-.54.06a11.32,11.32,0,0,1-1.16.09,12.82,12.82,0,0,1-1.34-.07c-1-.09-1.88-.14-2.72-.16s-1.83-.07-2.67-.14c-.43,0-.86-.06-1.3-.06h-.53c-.42,0-.84,0-1.27,0h-.24a16,16,0,0,1-1.63-.13c-.41,0-.79-.08-1.17-.1-.66,0-1.32-.07-2-.07Z"/><path class="cls-3" d="M172.28,37.18H4.09l0,.27c0,.88,0,1.79.06,2.69,0,.42.08.85.13,1.27s.11.94.15,1.41c.1,1.28.14,2.26.14,3.17,0,.4,0,.8,0,1.2v.29c0,.59,0,1.16,0,1.75l0,1.08q0,1.08,0,2.16c0,1.2,0,2.25.09,3.21l0,.44c0,.8.08,1.58.17,2.33l.06.47c.14,1,.26,1.9.3,2.81.07,1.25.07,2.48.07,3.63,0,2.57,0,4.71.17,7a25.54,25.54,0,0,1,.1,2.84l69.54,0H226.67a16.64,16.64,0,0,0-2.15-2.13c-1-.71-1.83-1.41-2.67-2.15-.56-.49-1.12-1-1.7-1.45l-.81-.68c-.37-.28-.76-.52-1.15-.77L218,67.9l-.71-.45a27,27,0,0,1-2.14-1.65l-.1-.09-.56-.4L214,65a5.33,5.33,0,0,0-1.12-.62l-.26-.12-.14-.06a6.16,6.16,0,0,1-.82-.39l-1.14-.72-.25-.17c-.31-.2-.62-.4-1-.57s-.64-.31-1-.45l-.19-.08c-.3-.13-.59-.28-.88-.42l-.2-.1c-.32-.16-.63-.31-1-.45l-.27-.11-.16-.06-.37-.15a2.67,2.67,0,0,1-.36-.14,6.42,6.42,0,0,1-.66-.3L204.2,60l-.84-.27-.23-.06-.31-.1c-.4-.13-.78-.29-1.17-.45a8.81,8.81,0,0,0-1.24-.36,9.46,9.46,0,0,1-1.5-.51s.08,0,.09.06a11.9,11.9,0,0,0-2.73-.75,7.48,7.48,0,0,1-1.34-.32c-.36-.13-.7-.29-1-.45l-.34-.15-.59-.2-.15,0-.21-.06-.28-.1a5.26,5.26,0,0,0-.6-.18c-.31,0-.61-.06-.92-.12l-.23,0-.12,0-.25-.06a13.8,13.8,0,0,1-1.69-.26l-.57-.15c-.32-.08-.64-.17-1-.23h-.76a5.74,5.74,0,0,1-1.09.1h-.31q-.37,0-.75,0h-.25l-.1,0a10.58,10.58,0,0,1-1.26.16l-.54,0h-.64a9.07,9.07,0,0,0-1.67.55l-.9.33-.52.19-.75.33-1.07.48-.24.1a7.73,7.73,0,0,1-1.05.38l-.19,0a2.09,2.09,0,0,1-1.06.29,1.94,1.94,0,0,1-2-1.92V56l0-.15v-.2a11.92,11.92,0,0,1,.17-1.58l.07-.37c0-.16.08-.33.11-.5,0-.34,0-.66.07-1s0-.51.05-.76l.09-1,0-.23.09-.95c.06-.75.06-1.51.06-2.25,0-.46,0-.92,0-1.38,0-.67,0-1.35-.06-2s-.08-1.24-.07-1.86c0-.24,0-.48,0-.72,0-.4,0-.81,0-1.22,0-.57-.06-1.14-.13-1.73,0-.22-.07-.44-.1-.66l0-.3v0Z"/><path class="cls-3" d="M227.08,75.59H5.55l-.07,1.33c0,.78-.06,1.51-.08,2.23-.07,2.11-.11,4.32-.13,6.76v3.41c0,.78,0,1.56,0,2.34l0,1,0,1.58c0,1.47-.06,3.29-.17,5-.07,1.13-.15,2.26-.23,3.4l0,.77c0,.77-.11,1.55-.16,2.33-.1,1.52-.1,3.07-.12,4.57,0,.79,0,1.56,0,2.32s0,1.43-.07,2.14c0,1.36-.11,2.88-.06,4.35,0,.7.07,1.41.11,2.12.08,1.37.15,2.72.16,4.06,0,.91,0,1.84-.1,2.74l0,.33c0,.22,0,.43,0,.64l0,.31c0,.61-.1,1.36-.1,2.09,0,1.38,0,2.78.09,4.14v.16l0,1.12c0,.85.1,1.7.17,2.53l0,.19c.08.9.17,2,.19,3.08V144l67.58,0H234.93c.07-.58.13-1.15.19-1.72l.06-.58c.09-.8.17-1.53.21-2.27a51.71,51.71,0,0,0,0-5.84v-.14a42,42,0,0,1-.13-5.14c0-.61.08-1.22.13-1.82l0-.27a38.32,38.32,0,0,0,.2-3.88c0-1.14-.05-2.3-.09-3.44,0-.68,0-1.32-.05-2,0-1.15-.13-2.34-.23-3.56-.07-.79-.14-1.58-.18-2.38,0-.4-.05-.8-.06-1.19H4.88a.2.2,0,1,1,0-.4h230l.09,0V109c-.05-1.1-.1-2.2-.18-3.29-.05-.57-.07-1.13-.1-1.7s0-.84-.06-1.25c0-.74-.14-1.5-.23-2.23l-.06-.42c-.05-.38-.08-.66-.11-.94-.09-.74-.15-1.45-.2-2.17,0-.44,0-.87,0-1.31V95.5c0-.39,0-.78,0-1.17q0-.36-.06-.72a10.12,10.12,0,0,1-.05-1.23,14.6,14.6,0,0,0,0-1.62c0-.25-.08-.5-.1-.75-.1-.53-.16-1.09-.23-1.82l0-.35a6.25,6.25,0,0,1-.07-.72v-.18l-.08-.41,0-.15c-.05-.3-.11-.6-.15-.91l0-.19-.09-.8,0-.4-.06-.34-.08-.63v.2c0-.15,0-.29,0-.44l-.06-.39c-.1-.21-.21-.41-.33-.61a2.67,2.67,0,0,1-1-.9l-.57-.78-.21-.29-.27-.37-.44-.56-.21-.26c-.41-.52-.82-1-1.19-1.57l-.52-.63-.54-.57-.11-.11-.21-.23h0Z"/><path class="cls-3" d="M234.89,144.38H4.81c0,.35,0,.69,0,1s0,.92-.07,1.39l0,.66,0,.67c0,.76-.07,1.76,0,2.78,0,.44.06.88.09,1.33s.09,1.16.11,1.74c0,.35,0,.69,0,1l0,.52,0,.36L5,157.29c0,.66,0,1.31,0,2v2.2a49.73,49.73,0,0,0,.21,5.18l.11.77c.09.62.18,1.25.25,1.88.09.86.16,1.8.21,3,.09,1.81,0,3.59,0,5.1l71.86,0H235.43c0-1.11,0-2.1,0-3l0-.58v-.13c0-.71.06-1.45.05-2.18l0-.51v-.51c0-.63,0-1.27,0-1.9,0-1.89,0-3.78-.05-5.67,0-.82,0-1.63-.08-2.45V160c0-1-.08-2.08-.09-3.12,0-1.45-.13-2.93-.24-4.35,0-.54-.09-1.09-.12-1.64a39,39,0,0,1,0-5.62l.07-.88,0,0Z"/><path class="cls-3" d="M235.45,177.77H5.71l0,.2v.23c-.12,2.47-.12,5-.12,7.4v.24c0,2,0,4.15-.08,6.22,0,.26,0,.51,0,.77v.36c0,.68-.07,1.38-.07,2.07,0,1.15.07,2.32.13,3.42.08,1.38.12,2.56.13,3.61a21.38,21.38,0,0,1-.28,3.29l71.79,0H235.81v-.44c0-.82-.08-1.64-.11-2.46s0-1.92,0-2.88c0-.74,0-1.47,0-2.21v-.55c0-.69,0-1.47,0-2.21,0-.45.05-.89.09-1.33v-.23c0-.37.06-.74.08-1.11,0-.6,0-1.2,0-1.81,0-.39,0-.79,0-1.18,0-.75,0-1.51,0-2.25V185.6c0-.74,0-1.53,0-2.29,0-1.09-.14-2.18-.23-3.19-.07-.78-.12-1.55-.16-2.33l0,0Z"/><path class="cls-3" d="M235.82,206H5.3c-.11.87-.19,1.72-.26,2.58l0,.23,0,.64c-.07.73-.13,1.45-.17,2.19,0,1.23-.08,2.21-.08,3.08,0,.69,0,1.38,0,2.08l0,.82c0,.69.06,1.38.1,2.07.1,1.31.13,2.63.1,3.94a37.39,37.39,0,0,0,.07,5.7v.12c.12.74.24,1.49.37,2.23.66.06,1.25.09,1.82.1H7.5c.77,0,1.52,0,2.4-.1a5.52,5.52,0,0,1,.57,0c.48,0,.95,0,1.42.07s.66.05,1,.06h.85c.82,0,1.65,0,2.43-.08s1.66-.06,2.73-.06h.34c.63,0,1.26,0,1.88.06l1.36.06,2.35.06c1.43,0,2.82.08,4.2.1l2.7.08.47,0,1.18,0c.72,0,1.43,0,2.14.08,2.73.16,4.8.26,6.72.31,1.15,0,2.31.11,3.44.2,1,.07,1.9.14,2.83.18l1.68.07L52,233c1.19,0,2.38.14,3.49.24l1.08.1.2,0c.72.07,1.43.14,2.15.17l1,0c.6,0,1.2,0,1.79-.05h.6c.41,0,.81,0,1.22,0a16.88,16.88,0,0,1,2.13.1c.82.08,1.65.21,2.43.33l.51.08.58.09,1.61.17,1.86.1c.55,0,1.09,0,1.64.09l.72.05c.8.07,1.74.14,2.66.17h.76c.93,0,1.86-.05,2.69-.09s1.84-.1,2.78-.1H84c1.13,0,2.32.07,3.27.11l.3,0c.89,0,1.77.08,2.66.1l1.19,0c.65,0,1.31,0,2,0H97c1,0,2,.07,3,.14h.37c1.05.07,2.14.14,3.2.14.7,0,1.34,0,2-.06h.18l1.44-.06h.55c.83,0,1.7,0,2.81.12l.24,0c1.06.09,2.1.17,3.13.21.81,0,1.62,0,2.43.05h.88c1.44,0,2.89.09,4.3.16h.11l2.35.11c1.77.08,3.53.09,5.49.11h3.33c1.76,0,3.2,0,4.54-.09,2.48-.12,4.65-.18,6.64-.18h.16l2.77,0h.7l3.73,0c2.76,0,5-.09,7-.27,2.14-.2,4.57-.44,7-.47,2.1,0,4.28-.18,6.21-.32l.68-.05.24,0c1-.07,2.19-.15,3.34-.15h3.54c1.33,0,2.54-.07,3.7-.13l1.26-.09.41,0,.35,0,1.48-.1c1.33-.08,2.4-.12,3.38-.13h.1c1.12,0,2.25.05,3.66.15l2.17.15c1.56.12,3.09.24,4.62.3l1.8.09h.25c1.41.07,2.87.14,4.3.14h.58c1.43,0,2.84-.12,4.42-.23.83-.06,1.67-.12,2.5-.16.54,0,1.08,0,1.62-.05l1.43,0,2.79-.12h.26c.63,0,1.27-.07,1.9-.07l.76,0c.46,0,.92.07,1.38.13s1,.11,1.5.13l.85,0H227a22.71,22.71,0,0,1,2.47.13,12.29,12.29,0,0,0,1.49.09c.33,0,.66,0,1-.05s.43-.07.66-.08l.25,0a4.81,4.81,0,0,1,1,.13l.14,0,.16,0,.89.17.68,0,.65,0h.19a1.37,1.37,0,0,0,.09-.4l.08-.48.12-.78a13.8,13.8,0,0,0-.12-3l0-.3c-.06-.58-.09-1.17-.12-1.76s0-1-.09-1.49l-.13-.86c-.12-.83-.24-1.69-.32-2.54s-.18-2.12-.24-3.41a24.36,24.36,0,0,1,0-3.31c.08-1,.1-2,.08-3.42q0-1.29,0-2.58c0-.51,0-1,0-1.54s0-.75,0-1.13V207c0-.33,0-.68,0-1h0Z"/><path class="cls-4" d="M42.73,4v.07h0V4h0Z"/><path class="cls-2" d="M42.53,2.12V232.23a.21.21,0,0,0,.21.21.21.21,0,0,0,.22-.21V2.12a.22.22,0,1,0-.43,0Z"/><path class="cls-2" d="M84.54,1.37V234.43a.22.22,0,0,0,.24.2.21.21,0,0,0,.2-.2V1.37a.21.21,0,0,0-.23-.2A.22.22,0,0,0,84.54,1.37Z"/><path class="cls-2" d="M126.56,1.78V238a.22.22,0,0,0,.44,0V1.78a.22.22,0,1,0-.44,0Z"/><path class="cls-2" d="M168.81,15.14V235.59a.22.22,0,0,0,.44,0V15.14a.22.22,0,1,0-.44,0Z"/><path class="cls-2" d="M210.83,62.6V234.65a.22.22,0,0,0,.44,0V62.6a.22.22,0,0,0-.44,0Z"/><path class="cls-5" d="M41.05,252.86a1.63,1.63,0,0,1,1.17-.42,1.69,1.69,0,0,1,1.18.42,1.38,1.38,0,0,1,.45,1.06,1.31,1.31,0,0,1-.45,1,1.72,1.72,0,0,1-1.18.4,1.66,1.66,0,0,1-1.17-.4,1.33,1.33,0,0,1-.44-1A1.41,1.41,0,0,1,41.05,252.86Zm2.42,4.58v12.12H41V257.44Z"/><path class="cls-5" d="M56.67,258.6A5.5,5.5,0,0,1,58,262.5v7.06H55.44v-6.8a3.55,3.55,0,0,0-.84-2.52,3,3,0,0,0-2.28-.89,3.13,3.13,0,0,0-2.4,1,3.94,3.94,0,0,0-.9,2.8v6.45H46.51V257.44H49v2.66A4.05,4.05,0,0,1,50.64,258a4.74,4.74,0,0,1,2.64-.75A4.42,4.42,0,0,1,56.67,258.6Z"/><path class="cls-5" d="M68.28,258.37a4.61,4.61,0,0,1,1.57,2.92H67.47a2.58,2.58,0,0,0-.84-1.6,2.72,2.72,0,0,0-1.84-.6,2.14,2.14,0,0,0-1.46.45,1.52,1.52,0,0,0-.52,1.22,1.19,1.19,0,0,0,.37.92,2.57,2.57,0,0,0,.94.55,13.46,13.46,0,0,0,1.59.44,17,17,0,0,1,2.22.64,3.63,3.63,0,0,1,1.45,1.05,2.9,2.9,0,0,1,.6,1.94,3,3,0,0,1-1.15,2.47,4.78,4.78,0,0,1-3.12.94,5.93,5.93,0,0,1-3.66-1,4.37,4.37,0,0,1-1.68-3h2.44a2.31,2.31,0,0,0,.88,1.61,3.14,3.14,0,0,0,2,.61,2,2,0,0,0,1.42-.47,1.55,1.55,0,0,0,.52-1.2,1.3,1.3,0,0,0-.4-1,2.55,2.55,0,0,0-1-.58,12,12,0,0,0-1.62-.43,18.06,18.06,0,0,1-2.15-.62,3.41,3.41,0,0,1-1.41-1,2.82,2.82,0,0,1-.58-1.88,3.1,3.1,0,0,1,1.16-2.5,4.85,4.85,0,0,1,3.2-1A5.16,5.16,0,0,1,68.28,258.37Z"/><path class="cls-5" d="M78.58,267.38v2.18H77a3.46,3.46,0,0,1-3.93-4.05v-5.94H71.37v-2.13h1.74v-3h2.53v3h2.92v2.13H75.64v6A2,2,0,0,0,76,267a1.88,1.88,0,0,0,1.35.39Z"/><path class="cls-5" d="M88.62,258.1a4.46,4.46,0,0,1,1.65,2.15v-2.81h2.5v12.12h-2.5v-2.82a4.44,4.44,0,0,1-1.65,2.16,4.83,4.83,0,0,1-2.82.81A5.46,5.46,0,0,1,83,269,5.1,5.1,0,0,1,81,266.81a8.07,8.07,0,0,1,0-6.62A5.1,5.1,0,0,1,83,258a5.37,5.37,0,0,1,2.83-.75A4.84,4.84,0,0,1,88.62,258.1Zm-4.72,2.45a4.82,4.82,0,0,0,0,5.88,3.48,3.48,0,0,0,2.67,1.06,3.65,3.65,0,0,0,1.89-.49,3.5,3.5,0,0,0,1.32-1.4,4.77,4.77,0,0,0,0-4.21A3.46,3.46,0,0,0,88.46,260a3.66,3.66,0,0,0-1.89-.5A3.49,3.49,0,0,0,83.9,260.55Z"/><path class="cls-5" d="M103.47,258.1a4.46,4.46,0,0,1,1.65,2.15v-2.81h2.5v12.25a6.32,6.32,0,0,1-.69,3,5,5,0,0,1-2,2.06,6.06,6.06,0,0,1-3.08.75,6.58,6.58,0,0,1-4.13-1.21,5.24,5.24,0,0,1-2-3.28h2.48a3,3,0,0,0,1.19,1.68,3.82,3.82,0,0,0,2.24.61,3.46,3.46,0,0,0,2.47-.92,3.57,3.57,0,0,0,1-2.69v-2.95a4.44,4.44,0,0,1-1.65,2.16,4.83,4.83,0,0,1-2.82.81,5.46,5.46,0,0,1-2.83-.74,5.1,5.1,0,0,1-1.94-2.16,8.07,8.07,0,0,1,0-6.62A5.1,5.1,0,0,1,97.82,258a5.37,5.37,0,0,1,2.83-.75A4.84,4.84,0,0,1,103.47,258.1Zm-4.72,2.45a4.82,4.82,0,0,0,0,5.88,3.48,3.48,0,0,0,2.67,1.06,3.65,3.65,0,0,0,1.89-.49,3.5,3.5,0,0,0,1.32-1.4,4.77,4.77,0,0,0,0-4.21,3.46,3.46,0,0,0-1.32-1.41,3.66,3.66,0,0,0-1.89-.5A3.49,3.49,0,0,0,98.75,260.55Z"/><path class="cls-5" d="M114.91,257.93a5,5,0,0,1,2.64-.69V260h-.75a4.12,4.12,0,0,0-2.65.8,3.2,3.2,0,0,0-1,2.65v6.14h-2.51V257.44h2.51v2.37A4.62,4.62,0,0,1,114.91,257.93Z"/><path class="cls-5" d="M127.09,258.1a4.34,4.34,0,0,1,1.65,2.15v-2.81h2.51v12.12h-2.51v-2.82a4.33,4.33,0,0,1-1.65,2.16,4.78,4.78,0,0,1-2.81.81,5.46,5.46,0,0,1-2.83-.74,5.13,5.13,0,0,1-2-2.16,8.18,8.18,0,0,1,0-6.62,5.13,5.13,0,0,1,2-2.16,5.37,5.37,0,0,1,2.83-.75A4.78,4.78,0,0,1,127.09,258.1Zm-4.72,2.45a4.82,4.82,0,0,0,0,5.88,3.5,3.5,0,0,0,2.68,1.06,3.65,3.65,0,0,0,1.89-.49,3.5,3.5,0,0,0,1.32-1.4,4.86,4.86,0,0,0,0-4.21,3.46,3.46,0,0,0-1.32-1.41,3.66,3.66,0,0,0-1.89-.5A3.51,3.51,0,0,0,122.37,260.55Z"/><path class="cls-5" d="M152.87,258.6a5.5,5.5,0,0,1,1.28,3.9v7.06h-2.5v-6.8a3.51,3.51,0,0,0-.8-2.45,2.77,2.77,0,0,0-2.17-.87,3,3,0,0,0-2.35.94,3.86,3.86,0,0,0-.87,2.73v6.45H143v-6.8a3.51,3.51,0,0,0-.8-2.45,2.77,2.77,0,0,0-2.17-.87,3,3,0,0,0-2.35.94,3.86,3.86,0,0,0-.87,2.73v6.45h-2.51V257.44h2.51V260a3.92,3.92,0,0,1,1.54-2,4.62,4.62,0,0,1,2.53-.7,4.57,4.57,0,0,1,2.63.75,4.28,4.28,0,0,1,1.62,2.15,4.37,4.37,0,0,1,1.69-2.13,4.72,4.72,0,0,1,2.64-.77A4.52,4.52,0,0,1,152.87,258.6Z"/><path class="cls-5" d="M159.06,266.79v2.77h-2.84v-2.77Z"/><path class="cls-5" d="M170.54,258.53a5.35,5.35,0,0,1,1.92,3.37h-2.67a2.82,2.82,0,0,0-1.06-1.79,3.42,3.42,0,0,0-2.13-.65,3.22,3.22,0,0,0-2.42,1,5.2,5.2,0,0,0,0,6,3.2,3.2,0,0,0,2.42,1,3.36,3.36,0,0,0,2.13-.66,2.89,2.89,0,0,0,1.06-1.81h2.67a5.42,5.42,0,0,1-1.92,3.39,5.92,5.92,0,0,1-3.89,1.25,6.38,6.38,0,0,1-3.11-.74,5.34,5.34,0,0,1-2.13-2.16,7.5,7.5,0,0,1,0-6.62,5.34,5.34,0,0,1,2.13-2.16,6.28,6.28,0,0,1,3.11-.75A6,6,0,0,1,170.54,258.53Z"/><path class="cls-5" d="M183.59,258a5.38,5.38,0,0,1,2.2,2.16,7.33,7.33,0,0,1,0,6.62,5.38,5.38,0,0,1-2.2,2.16,6.77,6.77,0,0,1-3.17.74,6.7,6.7,0,0,1-3.16-.74,5.53,5.53,0,0,1-2.2-2.17,7.23,7.23,0,0,1,0-6.61,5.51,5.51,0,0,1,2.2-2.16,6.59,6.59,0,0,1,3.16-.75A6.65,6.65,0,0,1,183.59,258Zm-5,1.87a3.31,3.31,0,0,0-1.31,1.36,5.25,5.25,0,0,0,0,4.47,3.26,3.26,0,0,0,1.31,1.34,3.82,3.82,0,0,0,3.56,0,3.2,3.2,0,0,0,1.31-1.34,5.25,5.25,0,0,0,0-4.47,3.25,3.25,0,0,0-1.31-1.36,3.82,3.82,0,0,0-3.56,0Z"/><path class="cls-5" d="M207.6,258.6a5.46,5.46,0,0,1,1.29,3.9v7.06h-2.51v-6.8a3.51,3.51,0,0,0-.79-2.45,2.81,2.81,0,0,0-2.18-.87,3,3,0,0,0-2.34.94,3.86,3.86,0,0,0-.87,2.73v6.45h-2.51v-6.8a3.51,3.51,0,0,0-.79-2.45,2.81,2.81,0,0,0-2.18-.87,3,3,0,0,0-2.34.94,3.86,3.86,0,0,0-.87,2.73v6.45H189V257.44h2.51V260a3.87,3.87,0,0,1,1.54-2,5,5,0,0,1,5.16.05,4.21,4.21,0,0,1,1.61,2.15,4.39,4.39,0,0,1,1.7-2.13,4.72,4.72,0,0,1,2.64-.77A4.5,4.5,0,0,1,207.6,258.6Z"/><g id="Layer_2-2" data-name="Layer 2"><g id="Draw_Layer-2" data-name="Draw Layer"><path class="cls-5" d="M122.25,58.75c-.2,0-.41,0-.61,0h-.14l-1.37,0h-.44a6.15,6.15,0,0,0-.75.06h-.21l-.28,0-.71,0-.45,0-.42,0c-.44,0-.88.11-1.3.17a6,6,0,0,1-.61.09l-.38.05c-.36,0-.72.12-1,.18-.63.12-1.34.26-2,.34a34.23,34.23,0,0,0-3.89.75l-2.35.58c-.58.07-1.06.15-1.51.23-.7.12-1.41.28-2,.42l-2.06.48c-.62.15-1.25.33-2,.55l-1.77.59-.2.07-.9.33c-.37.13-.73.27-1.1.39s-.75.24-1.12.35l-.85.26a22,22,0,0,0-2.09.8l-1,.47c-.22.11-.45.23-.68.33-.51.24-1,.46-1.53.68h0l-.31.13c-.53.21-1.08.43-1.61.66s-1.12.54-1.84,1c-1.12.64-2.18,1.34-3.43,2.21l-.3.21c-1,.69-2,1.4-3,2.11-.56.41-1.11.85-1.64,1.28l-.12.09c-.48.39-1,.81-1.61,1.35-1.05.91-2.15,1.86-3.18,2.88L68.2,80.15c-.59.56-1.2,1.15-1.78,1.74-.38.38-.73.79-1.08,1.19l-.38.44c-.54.61-.95,1.07-1.35,1.5s-1,1.07-1.4,1.55-.91,1.11-1.33,1.67l-.13.16-.31.41-.94,1.25c-.34.48-.7,1-1.09,1.67s-.69,1.16-1,1.75c-.19.35-.37.72-.55,1.08l-.35.7c-.18.35-.37.69-.56,1s-.25.44-.36.66l-1,1.82a17.11,17.11,0,0,0-.91,1.88c-.12.28-.23.55-.34.83s-.21.55-.32.82c-.27.61-.56,1.23-.83,1.81s-.58,1.34-.88,2.13c-.13.32-.25.65-.37,1s-.25.69-.38,1c-.26.64-.48,1.3-.67,1.87s-.39,1.16-.63,1.91c-.14.43-.26.85-.39,1.28l-.2.7c-.2.65-.36,1.33-.49,2s-.21,1.29-.3,1.92l0,.37,0,.33,0,.29v0l-.06.39c-.11.78-.19,1.39-.24,2s-.12,1.28-.19,1.93-.14,1.25-.23,1.92a20.93,20.93,0,0,0-.21,2.11,32.21,32.21,0,0,0,.08,4c.09,1.22.25,2.46.43,3.66l.1.68.1.74c.14,1.09.3,2.22.51,3.33.07.42.15.84.23,1.27.16.91.34,1.84.49,2.76,0,.35.11.7.16,1,.16,1,.32,2,.53,3,.15.71.35,1.4.53,2,.23.77.4,1.4.54,2l.21,1c.1.4.19.81.28,1.21l.11.45c.11.47.22,1,.36,1.44a25.9,25.9,0,0,0,1.47,4c.23.48.51.95.77,1.41l.2.35c.3.54.65,1.17,1,1.81.13.26.26.5.37.75l.51,1,0,.07c.14.26.28.54.44.8s.39.63.59.93a8.47,8.47,0,0,0,.64.84l.09.12c.23.29.47.56.66.77.38.44.79.92,1.25,1.48l.54.67c.62.77,1.26,1.56,1.94,2.3s1.45,1.51,2.17,2.23l.64.66c.47.47.93,1,1.35,1.43a13.84,13.84,0,0,0,1.34,1.31c.56.46,1.14.86,1.75,1.27s1,.68,1.42,1,.73.62,1.14,1a17.36,17.36,0,0,0,1.36,1.12L75,184.53l.51.39.48.39c.38.31.77.63,1.18.92a20,20,0,0,0,1.66,1.11c.58.35,1.17.68,1.9,1.06l.08,0c.54.28,1.1.58,1.63.92.7.45,1.24.8,1.74,1.15l.09.07c.2.14.41.29.62.42l.91.51c.36.18.73.35,1.09.51l.7.32c.38.18.75.39,1.1.6s.43.26.65.37c.44.23.94.51,1.46.73a11.07,11.07,0,0,0,1.76.6l.51.13,1,.28c.51.14,1,.31,1.62.51a23.47,23.47,0,0,0,3.19.86c.74.13,1.5.21,2.24.28l1.32.13.93.16c1,.18,2.05.32,3.09.4l.71.05,1.27.07c.53.05,1.07.11,1.59.18l.43.05c.71.08,1.41.15,2.08.2s1.36.08,2,.08h1.16c.76,0,1.78,0,2.8,0h.33l1.09,0h.25a15.9,15.9,0,0,0,2.18-.19c.6-.08,1.19-.2,1.84-.33s1.19-.22,1.76-.3l.91-.08c.31,0,.66,0,1-.09.73-.08,1.49-.2,2.4-.37,1.35-.25,2.69-.59,4-.92l.09,0,.76-.2c1.1-.27,2.24-.55,3.32-.9a31.5,31.5,0,0,0,4-1.62l2.12-1,.77-.38c.89-.45,1.82-.88,2.86-1.32l1.17-.45c.87-.33,1.76-.67,2.62-1.05.62-.28,1.22-.59,1.78-.89s1.25-.69,1.82-1c1.22-.74,2.38-1.56,3.46-2.35.55-.4,1.18-.86,1.78-1.34l.06,0c.26-.21.53-.42.78-.64l.58-.51.24-.22c.53-.49,1-1,1.51-1.56s.85-1,1.3-1.53,1-1.25,1.47-1.9l.37-.51c.29-.39.58-.79.86-1.2,1.62-2.42,3.21-4.9,4.7-7.23.4-.62.81-1.24,1.22-1.85.79-1.18,1.62-2.41,2.31-3.68a67,67,0,0,0,2.95-6.14c.58-1.32,1.14-2.67,1.67-4l.05-.14c.24-.59.48-1.2.67-1.81.12-.39.23-.78.34-1.16l.21-.79.43-1.45c.26-.86.51-1.74.77-2.62s.45-2,.63-2.93l.18-1,.05-.22c.12-.63.25-1.27.33-1.92s.15-1.24.21-2,.1-1.37.16-2.06.07-1.16.09-1.94a30.09,30.09,0,0,0-.26-3.91v-.11c0-.22,0-.43-.07-.65-.05-.44-.1-.88-.14-1.32s-.11-1.24-.19-1.93-.23-1.65-.36-2.41l-.06-.36c-.09-.59-.19-1.2-.31-1.78-.21-1.12-.49-2.24-.76-3.32l-.11-.42c-.11-.49-.21-1-.31-1.47,0-.21-.08-.41-.13-.62-.12-.59-.26-1.24-.45-2-.29-1.24-.62-2.64-1-4-.3-1-.67-2-1-2.91-.1-.28-.21-.57-.32-.86s-.21-.58-.32-.86-.25-.67-.37-1c-.22-.62-.48-1.28-.81-2-.19-.45-.4-.9-.62-1.33l-.19-.4c-.29-.59-.57-1.16-.85-1.69s-.48-.89-.72-1.32l-.26-.47-.18-.33c-.25-.46-.53-1-.81-1.41s-.54-.88-.86-1.31c-.15-.22-.31-.43-.47-.65l-.42-.57,0,0c-.31-.44-.64-.89-1-1.32l-.51-.62-.34-.41c-.36-.49-.68-1-1-1.52A15,15,0,0,0,168.22,85c-.27-.32-.55-.62-.83-.92l-.43-.47c-.44-.48-.85-1-1.2-1.43a19.1,19.1,0,0,0-1.25-1.45c-.4-.41-.83-.83-1.35-1.32l-.68-.62-.74-.68c-.56-.52-1.09-1-1.63-1.4h0l0,0,0,0h0l0,0,0,0h0l-.86-.65c-.63-.51-1.22-1-1.67-1.43-.65-.57-1.35-1.11-2-1.63l-.23-.17c-.12-.1-.26-.19-.37-.29h0l0,0,0,0c-.94-.73-1.93-1.43-2.9-2.1l-.08-.06c-.53-.37-1.11-.77-1.72-1.13-.39-.23-.81-.44-1.21-.65l-.52-.27c-.37-.19-.73-.42-1.07-.64l-.35-.22c-.29-.17-.57-.36-.85-.54l-.63-.4-.1-.06c-.53-.33-1.07-.68-1.62-1l-1.77-1c-.8-.42-1.42-.74-2-1s-1.05-.46-1.57-.67c-.2-.09-.39-.16-.59-.26-.62-.27-1.28-.55-1.94-.8-.41-.15-.83-.29-1.24-.41l-.51-.16c-.6-.19-1.23-.39-1.88-.55-.5-.13-1-.24-1.49-.34l-.29-.06-.37-.1-.51-.1-.62-.16-.26-.06c-.51-.13-1-.26-1.54-.37l-.22,0c-.69-.15-1.33-.28-2-.37a9.66,9.66,0,0,0-1.2-.07h-.51l-.37,0-.46,0h-.15ZM94.49,97.1c.51-.08.94-.17,1.34-.26s.74-.16,1.23-.24c1.12-.14,2-.23,2.76-.27l1,0h.51a12.1,12.1,0,0,0,1.53-.11c.94-.11,1.89-.15,2.94-.19l.72,0c.65,0,1.31-.06,2-.06h1.13c.67,0,1.35,0,2,0H112l1.15,0h4.17c.58,0,1.16,0,1.73.07q.56,0,1.11.06h1.65c.34,0,.71,0,1.06,0h.11c.51,0,1,0,1.41.08s1,.07,1.53.09c1.12,0,2,0,2.78,0h.21c.93,0,1.87.06,2.8.16h0c.42.06.85.14,1.26.21l1.26.23a20.27,20.27,0,0,1,2.67.51c.2,0,.4.12.6.18l.51.17c.34.1.69.18,1,.25l.15,0c.43.1.88.2,1.31.28a8.25,8.25,0,0,1,1.2.35,3.77,3.77,0,0,1,.7.41l.2.18.31.28c.19.16.39.3.58.44l.22.16a5.37,5.37,0,0,1,.51.44c.16.17.31.35.49.57a10.92,10.92,0,0,1,1.09,2,3.53,3.53,0,0,1,.16.41c.08.26.14.49.19.73s.2.71.31,1.06l.06.19a9.26,9.26,0,0,1,.27,1.27l0,.14c0,.24.1.48.15.71l.12.55a5.65,5.65,0,0,1,0,.59c0,.19,0,.36,0,.54s0,.32.05.49.06.49.07.74,0,.33,0,.5,0,.52.05.79.06.51.1.77.05.36.07.54l.07.53c0,.3.08.59.11.89s.06.78.08,1.17l0,.25c0,.48,0,1,0,1.42s0,1,0,1.47l0,.62c0,.74.1,1.51.11,2.27l0,.47c0,.35,0,.7,0,1.06s0,1,0,1.5c0,.21,0,.43.06.64s.05.54.06.81a9.23,9.23,0,0,1,0,1l0,.28a10,10,0,0,0,0,1.45,13,13,0,0,1,.06,1.53c0,.58,0,1.06,0,1.5,0,.16,0,.32,0,.48s0,.58.05.87v1.38c0,.27,0,.49.06.72s0,.41.07.62a9.32,9.32,0,0,1,0,1.4,10.75,10.75,0,0,0,0,1.39c0,.5.08,1.07.06,1.62,0,.28,0,.56,0,.83l0,.66c0,.35,0,.71,0,1.06v.54a14.72,14.72,0,0,1-.07,1.49l0,.26c0,.25-.08.51-.11.78s0,.55,0,.89c0,.51,0,1.06-.07,1.59,0,.33-.1.68-.17,1s-.16.74-.28,1.17c-.19.63-.43,1.47-.75,2.29l-.15.33-.17.39,0,0c-.12.28-.24.57-.38.84s-.27.45-.42.67l-.07.11c-.12.19-.25.38-.41.59l-.68.76,0,0c-.27.29-.53.54-.78.78l-.51.45c-.32.3-.65.6-1,.88s-.65.44-1,.64l-.31.19a10,10,0,0,1-1.23.7l-.77.3-.49.18a10.81,10.81,0,0,1-1.48.41c-.41.09-.84.15-1.26.22l-.56.08-.66.11-1,.16a26.7,26.7,0,0,1-2.7.28l-1.48.07-1.56.08h-.28c-.38,0-.77,0-1.15.06h-.13l-1.25.11c-.37,0-.76,0-1.16,0s-1.08,0-1.69-.07c-.81-.06-1.67-.1-2.79-.11-.92,0-1.85,0-2.77-.11l-.27,0c-.4,0-.82-.06-1.23-.07h-1.51c-.62,0-1.24-.05-1.85-.09l-.9-.06-.8,0c-.64,0-1.31-.06-2-.13l-.77-.11c-.38-.06-.76-.12-1.16-.16-.8-.1-1.42-.16-2-.19-.33,0-.67,0-1,0l-1,0c-1.35-.06-2.68-.2-4-.36l-.27,0c-.8-.1-1.64-.21-2.44-.38a17.22,17.22,0,0,1-3-.88l-.73-.3a7,7,0,0,1-.73-.35l-.31-.2-.55-.33a10.32,10.32,0,0,0-1-.48l0,0a3.73,3.73,0,0,1-.75-.43l-.75-.65-.07-.07-.85-.79a13.29,13.29,0,0,1-1.39-1.6,6.3,6.3,0,0,1-.55-1c-.08-.18-.17-.36-.26-.53s-.16-.32-.23-.48-.18-.57-.26-.86-.08-.3-.12-.46l-.24-.79-.21-.7c-.16-.54-.31-1-.47-1.47a7.52,7.52,0,0,1-.3-1.31c0-.38-.09-.77-.11-1.16,0-.17,0-.32,0-.48,0-.34,0-.68-.07-1l0-.2c0-.38-.09-.78-.11-1.18,0-.23,0-.46,0-.69s0-.52,0-.79A13.38,13.38,0,0,1,82,140v-1.45c0-.41,0-.83.07-1.23l0-.21c0-.41.07-1,.08-1.5s.05-1,.09-1.46c0-.19,0-.38,0-.57,0-.36,0-.73,0-1.09s0-.56,0-.84a5.27,5.27,0,0,1,0-.56c0-.18,0-.29,0-.43a6.76,6.76,0,0,0,0-.9v-.2a15.68,15.68,0,0,1,.15-1.93v-.12c0-.24.06-.49.08-.73s0-.45,0-.67V126c0-.42,0-.87.06-1.42V123.1c0-.27,0-.61,0-.91s0-.48,0-.72,0-.34,0-.51c0-.36,0-.71.05-1.07s0-.65,0-1c0-.17,0-.35,0-.53,0-.59,0-1.18.06-1.76,0-.33,0-.67,0-1s0-1,.11-1.6l0-.25c0-.49.09-1,.14-1.45v.08c0-.27.07-.54.1-.81l.27-1.84,0-.23c.08-.57.22-1.14.35-1.69.06-.27.13-.54.18-.81s.11-.54.17-.82l.09-.51a10.68,10.68,0,0,1,.34-1.23l.1-.32c.09-.29.19-.58.27-.88a11.31,11.31,0,0,1,.43-1.28c.09-.21.17-.38.26-.56a4.83,4.83,0,0,1,.36-.56l.32-.37.75-.51.09,0c.22-.15.45-.31.68-.44a5.6,5.6,0,0,1,.6-.29l.13-.06a12.28,12.28,0,0,0,1.43-.65l.38-.21c.28-.16.57-.33.87-.47a12.11,12.11,0,0,1,2.29-.62l.58-.08.14,0h0Z"/><path class="cls-5" d="M116.65,117.37H116c-.22,0-.49,0-.74,0h-.69a7.93,7.93,0,0,0-1.54.21,7.08,7.08,0,0,0-.73.18l-.58.14-.41.08a7.16,7.16,0,0,0-.8.19,5.25,5.25,0,0,0-1.4.7,9,9,0,0,0-1.26,1.05c-.27.28-.55.6-.86,1s-.65.77-.94,1.18-.46.69-.65,1l-.07.13a7.64,7.64,0,0,0-1,2.42c-.13.49-.24,1-.32,1.47a6.59,6.59,0,0,0-.12,1.54,12.87,12.87,0,0,0,.25,1.65c.09.43.17.86.25,1.29a5.54,5.54,0,0,0,.26.88l.07.2.08.23a10.3,10.3,0,0,0,.51,1.3,4.37,4.37,0,0,0,.49.77,5.47,5.47,0,0,0,.45.51,11.62,11.62,0,0,0,1.28,1l.57.39.62.42,1.18.82a9.28,9.28,0,0,0,2.18,1l.54.19.12,0c.34.13.69.26,1,.37a9.75,9.75,0,0,0,1.53.24l.43,0a8.91,8.91,0,0,0,2.51-.47,15.57,15.57,0,0,0,2.64-1.08,8.81,8.81,0,0,0,1.17-.73l.77-.59.08-.07a3.52,3.52,0,0,0,.41-.36,8.75,8.75,0,0,0,.72-.89c.09-.13.18-.26.27-.37l.16-.2a8.31,8.31,0,0,0,.63-.92c.25-.48.46-.87.62-1.23a15.25,15.25,0,0,0,.6-1.59,7,7,0,0,0,.27-1.29c.08-.6.14-1.09.19-1.53a8.57,8.57,0,0,0,0-1.24c0-.39-.07-.77-.12-1.14a7.87,7.87,0,0,0-.23-1.27c0-.15-.09-.29-.13-.43s-.1-.32-.14-.49a7.7,7.7,0,0,0-.45-1.12l0,0a5.28,5.28,0,0,0-.73-1.2,5.79,5.79,0,0,0-.54-.57l-.21-.22c-.28-.28-.56-.58-.82-.89l-.09-.12-.33-.44a3.11,3.11,0,0,0-.54-.49l-.12-.08,0,0,0,0h0a7.25,7.25,0,0,0-.67-.46l-.25-.14-.16-.08,0,0a3.18,3.18,0,0,0-.32-.16l-.24-.1a1.07,1.07,0,0,0-.25,0,1.09,1.09,0,0,0-.26,0,1,1,0,0,0-.27.13,11.71,11.71,0,0,0-2.32-.63,6.51,6.51,0,0,0-.88-.06Z"/><path class="cls-5" d="M141.09,121.88a1.67,1.67,0,0,0-.32,0h-.19c-.44,0-.85,0-1.28.09-.21,0-.42,0-.66,0s-.43,0-.68,0l-.45,0a7.57,7.57,0,0,0-.95.06,19,19,0,0,1-2.13.1h-.57c-.71,0-1.76,0-2,.9a2.35,2.35,0,0,0,.08,1c0,.1.05.21.07.31l0,.17a2.42,2.42,0,0,0,.06.46,2.64,2.64,0,0,0,.2.62,5.3,5.3,0,0,1,.23.67c0,.15.06.3.09.49l0,.23c0,.32.08.64.11,1a4.68,4.68,0,0,1,0,1c0,.26-.08.49-.12.74l0,.24c-.05.3-.08.6-.11.9l0,.25a8.4,8.4,0,0,0-.08.85v.13a3.54,3.54,0,0,1,0,.46A13.59,13.59,0,0,1,132,134l0,.08c-.21.69-.4,1.26-.61,1.79h0l0,.11-.21.53a9.76,9.76,0,0,1-.94,1.7c-.35.43-.74.84-1.11,1.24s-.62.67-.92,1-.35.42-.51.64-.36.45-.54.67A8.63,8.63,0,0,1,126,142.8l-.65.49-.48.34c-.3.23-.59.47-.87.71l-.46.38a11.15,11.15,0,0,1-1.81,1.09l-.73.26-1.19.37a16.23,16.23,0,0,1-2.15.48,17,17,0,0,1-2.13.16,8,8,0,0,1-.86,0,8.85,8.85,0,0,1-1.24-.27c-.26-.07-.53-.16-.79-.25l-.6-.2-.75-.21c-.24-.07-.48-.13-.71-.21-.48-.14-.94-.3-1.38-.46s-1.09-.51-1.68-.81a13.09,13.09,0,0,1-1.77-1c-.23-.19-.45-.38-.65-.57l-.46-.43-.41-.41-.45-.41a14,14,0,0,1-1.17-1.14c-.25-.35-.51-.71-.73-1.06l-.07-.1-.22-.34-.23-.34c-.07-.11-.18-.25-.28-.38a3.07,3.07,0,0,1-.2-.28,15.45,15.45,0,0,1-1.46-2.6,11.84,11.84,0,0,1-.55-2c-.11-.59-.2-1.12-.28-1.63a13.59,13.59,0,0,1-.11-1.7,14.27,14.27,0,0,1,.07-2c.09-.65.23-1.31.36-2l0-.15c.06-.28.11-.58.15-.86l0-.14a3.79,3.79,0,0,1,.21-.75,1.65,1.65,0,0,0,.17-.72,1,1,0,0,0-.15-.53,1,1,0,0,0-.35-.37l0,0a1.23,1.23,0,0,0-.68-.17l-.38,0-.28,0h-.14c-.19,0-.37,0-.54,0-.48,0-.95-.08-1.42-.13h-.17a5.79,5.79,0,0,0-.61,0h-.2a6,6,0,0,0-.73.08h-.08a13.37,13.37,0,0,1-1.79.15,5.72,5.72,0,0,1-.59,0l-.42-.06-.35-.06-1.11-.14h-.13a.87.87,0,0,0-.77.77,1.06,1.06,0,0,0-.25.48,2.22,2.22,0,0,0-.07.63v.26c0,.23-.06.43-.08.61s0,.18,0,.28l0,.29c0,.25,0,.49-.06.74s0,.37,0,.56v.83c0,.16,0,.34,0,.51l0,.16a8.06,8.06,0,0,1,0,1.3,12.34,12.34,0,0,0,0,1.49,6,6,0,0,1,0,.85c0,.17,0,.35,0,.53a5.9,5.9,0,0,0,.06.83c0,.15,0,.31,0,.47s0,.6,0,.89v1.93c0,.32,0,.65,0,1l0,1a8,8,0,0,0,0,1.07c0,.1,0,.2,0,.3,0,.25.05.49.06.74v.36c0,.23,0,.45,0,.68s.05.61.09.91v0c0,.22,0,.44,0,.65s0,.21,0,.31a10.83,10.83,0,0,0,.2,1.25,7.22,7.22,0,0,1,0,.79v.42c0,.43.05.86.08,1.28l0,.15a6.88,6.88,0,0,0,.13.91c0,.13.07.26.1.39s.07.21.1.32,0,.2.06.3,0,.21.07.31a3.91,3.91,0,0,0,.24.65l.15.4a6.38,6.38,0,0,0,.33.82,5.82,5.82,0,0,0,.62,1l.41.45c.14.15.26.25.37.39a9.1,9.1,0,0,0,.91,1,5.32,5.32,0,0,0,2.91,1l1,.09.67.05.47,0c.28,0,.56.07.85.09h.32c.2,0,.4,0,.6,0H101c.44,0,.87,0,1.31,0h1.58l.76,0,.76,0H107c1.12,0,2.2.11,3,.19.59.06,1.12.1,1.62.11l.63,0c.26,0,.52,0,.79,0s.8,0,1.19.07c.55,0,1.12.08,1.68.09h.18c.39,0,.78,0,1.17,0h.4c.46,0,.91,0,1.35.06l.57,0,.91.07c.49,0,1,0,1.57,0,.41,0,.82,0,1.23,0s.76,0,1.16,0h.63c.65,0,1.34,0,2,0l.73,0c.62,0,1.26.07,1.89.09h.25l.64,0h.42c.45,0,.88-.09,1.24-.15l.68-.07.73-.07a15.09,15.09,0,0,0,1.78-.33l.33-.09a9.76,9.76,0,0,0,1.4-.41c.36-.14.72-.3,1.06-.46l.56-.26.58-.25h0a6.48,6.48,0,0,0,.8-.38,5.07,5.07,0,0,0,.46-.35l0,0a2.43,2.43,0,0,0,.41-.5l.06-.09a3.2,3.2,0,0,0,.29-.51l.07-.12c.13-.26.23-.47.32-.67a7.33,7.33,0,0,0,.47-1.53c.1-.47.16-.94.23-1.51.05-.37.1-.86.14-1.37,0-.18,0-.37,0-.55s.05-.49.06-.73,0-.43,0-.65,0-.44,0-.65,0-.36,0-.53,0-.54,0-.8,0-.47,0-.7,0-.36,0-.54V140c0-.27,0-.51,0-.77s0-.41,0-.62v-.4a6.87,6.87,0,0,0,0-.78,9.34,9.34,0,0,1,0-1.15c0-.14,0-.27,0-.41s0-.49,0-.73a2.64,2.64,0,0,0,0-.28,3.22,3.22,0,0,1,0-.43,5.72,5.72,0,0,1,0-.59l0-.26c0-.33,0-.66,0-1v-.16c0-.37,0-.76,0-1.13,0-.19,0-.38,0-.57s0-.47,0-.71,0-.65.05-1,.12-.89.14-1.36l0-.19c0-.35,0-.72,0-1.08a9.61,9.61,0,0,0-.2-1.78c0-.18-.05-.33-.08-.48s-.1-.6-.17-.9a1.73,1.73,0,0,0-.44-.82,1.64,1.64,0,0,0-.72-.44,1.52,1.52,0,0,0-.42-.06Z"/><path class="cls-5" d="M134.06,102.12c-.29,0-.59,0-.88,0h-.06c-.32,0-.64,0-1,.06l-.45,0-.59,0c-.3,0-.62,0-.92.06a1.12,1.12,0,0,0-.73.31,1,1,0,0,0,0,1.47,1.07,1.07,0,0,0,.68.31.68.68,0,0,0,0,.14c0,.28,0,.56,0,.84s0,.41,0,.61,0,.59-.07.87l-.06.6c0,.19,0,.37-.05.56s-.06.51-.07.75v.31c0,.31,0,.62-.06.93s-.06.37-.1.55-.07.41-.1.61-.06.52-.08.79v.25c0,.15,0,.3,0,.44a2.49,2.49,0,0,1-.09.46v.06a1.73,1.73,0,0,0,0,.93,1.17,1.17,0,0,0,.26.46,2.37,2.37,0,0,0,.3.23,1.67,1.67,0,0,0,.58.2l.25,0,.37.07a13.54,13.54,0,0,0,1.53.25l.84.07.46,0,.41,0c.67.06,1.37.12,2.06.13h.1l.88,0h.41c.2,0,.4,0,.59,0s.26,0,.39,0h.09a3.72,3.72,0,0,0,.66-.08l.1,0a2.18,2.18,0,0,0,.69-.24,1.59,1.59,0,0,0,.33-.25,1.66,1.66,0,0,0,.34-.57,2.6,2.6,0,0,0,.14-.66v0c0-.12,0-.26,0-.37s.06-.34.08-.51a8.68,8.68,0,0,0,.06-1.44,3.4,3.4,0,0,0,0-.45q0-.31,0-.63a9.45,9.45,0,0,1,.08-1l0-.15c0-.29.06-.59.07-.88v-1.08c0-.34,0-.67,0-1v-.07a6.33,6.33,0,0,1,0-.87c0-.13.05-.26.07-.39s0-.18,0-.26,0-.29.06-.43v-.09a1.22,1.22,0,0,0,0-.27,1.12,1.12,0,0,0-.15-.51l0,0a.92.92,0,0,0-.31-.31,1,1,0,0,0-.33-.13l-.21,0-.16,0-.21,0-.53-.12a17.55,17.55,0,0,0-2.17-.23c-.41,0-.83-.05-1.25-.1h-.12c-.47-.06-.95-.13-1.43-.17l-.62,0Z"/><path class="cls-5" d="M166.57,186.75c-.25,0-.49,0-.74,0a5.5,5.5,0,0,0-1.33.26,4.49,4.49,0,0,0-.71.31,6.11,6.11,0,0,0-.91.58,5.21,5.21,0,0,0-.59.56,3.89,3.89,0,0,0-.51.76,5.66,5.66,0,0,0-.45,1.25,4.06,4.06,0,0,0-.08,1.7,3.07,3.07,0,0,0,.3.93,4.94,4.94,0,0,0,.3.49,3.8,3.8,0,0,0,1.15,1,4.35,4.35,0,0,0,1.39.87,6,6,0,0,0,.71.26,7.74,7.74,0,0,0,1,.28,5.67,5.67,0,0,0,1.3.06,3.82,3.82,0,0,0,1.7-.6q.36-.24.69-.51a6.2,6.2,0,0,0,1-1.11,9.06,9.06,0,0,0,.61-1,3.75,3.75,0,0,0,.36-1.92,3.06,3.06,0,0,0-.11-.59c0-.2-.1-.39-.17-.59a3.8,3.8,0,0,0-.61-1.14,7.48,7.48,0,0,0-.76-.83,5,5,0,0,0-.89-.64,3.65,3.65,0,0,0-1.44-.47l-.46,0-.76,0Z"/><path class="cls-5" d="M185,181.58a9.52,9.52,0,0,0-1.83.34,5.89,5.89,0,0,0-2.17,1,5,5,0,0,0-1.28,1.71c-.11.24-.2.51-.3.75s-.23.7-.33,1.06a9.82,9.82,0,0,0-.38,1.16,6.18,6.18,0,0,0-.2,1.76,7.32,7.32,0,0,0,.33,1.75,8.07,8.07,0,0,0,.84,1.84,4.69,4.69,0,0,0,2.48,1.83,13.18,13.18,0,0,0,3.34.77,7.8,7.8,0,0,0,2.21-.11,12.23,12.23,0,0,0,1.7-.48,8.66,8.66,0,0,0,3-1.94,4.69,4.69,0,0,0,.51-.59,5.86,5.86,0,0,0,.57-.92,4.45,4.45,0,0,0,.37-1c0-.11.07-.22.1-.33s.11-.49.15-.74a8.31,8.31,0,0,0-.45-3.7,6.24,6.24,0,0,0-.86-1.66,4.58,4.58,0,0,0-.72-.74,5.43,5.43,0,0,0-.85-.56,5.6,5.6,0,0,0-.74-.35,18.72,18.72,0,0,0-3.21-.76,9.1,9.1,0,0,0-1.64-.15,4.57,4.57,0,0,0-.64,0Z"/><path class="cls-5" d="M176.34,170.84a2.42,2.42,0,0,0-1.23.93,2.73,2.73,0,0,0-.37.67,2.42,2.42,0,0,0-.11.88l0,.19a1.33,1.33,0,0,0,0,.34,1.92,1.92,0,0,0,.11.79,1.79,1.79,0,0,0,.45.6,1.69,1.69,0,0,0,.55.32,2,2,0,0,0,.78.1,2.67,2.67,0,0,0,.73-.13,2.46,2.46,0,0,0,.68-.31,2.74,2.74,0,0,0,.86-1,2.46,2.46,0,0,0,.19-.4,2.86,2.86,0,0,0,.23-1,1.74,1.74,0,0,0-.46-1.17,2.69,2.69,0,0,0-1.86-.86,1.89,1.89,0,0,0-.53.08Zm1.12,2.16s0,0,0,.05Z"/><path class="cls-5" d="M91.85,53a1.86,1.86,0,0,0-.34,0q-.29.06-.57.15a3.07,3.07,0,0,0-.59.25,3.86,3.86,0,0,0-.57.3,2.64,2.64,0,0,0-.81.82,3.16,3.16,0,0,0-.51,1.28,2.51,2.51,0,0,0,0,.67c0,.16.07.32.12.48a2.19,2.19,0,0,0,.12.33,2.8,2.8,0,0,0,1,1.16l.07.08a2.15,2.15,0,0,0,2.11.68A3.75,3.75,0,0,0,92.6,59l.47-.26a3.4,3.4,0,0,0,1.07-1.13,4.69,4.69,0,0,0,.33-.72,6.45,6.45,0,0,0,.21-.62,2.47,2.47,0,0,0,0-.54,1.56,1.56,0,0,0,0-.37c0-.13-.06-.26-.1-.39a3.6,3.6,0,0,0-.4-.84,3,3,0,0,0-.54-.64,2.09,2.09,0,0,0-.47-.3,2.15,2.15,0,0,0-.71-.2h-.26l-.38,0Z"/><path class="cls-5" d="M105.35,41.73a10,10,0,0,0-1,.25,4.26,4.26,0,0,0-.81.38,3.46,3.46,0,0,0-.47.31,6.24,6.24,0,0,0-1.29,1.42l-.16.16a4.47,4.47,0,0,0-.81,1.32,5,5,0,0,0-.3.92,5.5,5.5,0,0,0-.14,1.85,3.73,3.73,0,0,0,.54,1.55,3,3,0,0,0,.55.71,4.51,4.51,0,0,0,.88.62,4.43,4.43,0,0,0,1.32.47,4.7,4.7,0,0,0,1.12.08,4.63,4.63,0,0,0,1.33-.22,5.77,5.77,0,0,0,1-.46,10.08,10.08,0,0,0,1.6-1,5.23,5.23,0,0,0,.61-.54,4.2,4.2,0,0,0,.53-.77,5.23,5.23,0,0,0,.35-.8,7.09,7.09,0,0,0,.39-1.77,4.73,4.73,0,0,0-.47-2.48,4.48,4.48,0,0,0-.35-.6,3.82,3.82,0,0,0-.48-.51,3.76,3.76,0,0,0-.71-.46,4.66,4.66,0,0,0-.73-.3c-.19-.07-.39-.12-.58-.17a5.33,5.33,0,0,0-1-.09h-.05A5.28,5.28,0,0,0,105.35,41.73Zm.7,4.68Z"/><path class="cls-5" d="M82.89,45.36l-.54.27a4.49,4.49,0,0,0-.45.26,3.28,3.28,0,0,0-.71.58,1.8,1.8,0,0,0-.35.58,2.14,2.14,0,0,0-.14,1c0,.14.07.28.11.41l.08.14a1.15,1.15,0,0,0,.22.35,1.57,1.57,0,0,0,.51.42,2.3,2.3,0,0,0,.5.18,1.11,1.11,0,0,0,.51-.06,1,1,0,0,0,.56-1.28.88.88,0,0,0-.3-.39l.21-.14.57-.28a1.15,1.15,0,0,0,.59-.56,1.08,1.08,0,0,0-.53-1.43h0a1.28,1.28,0,0,0-.47-.1A1,1,0,0,0,82.89,45.36Zm-.18,2.21,0,.08Zm.1,0v.1h0v-.1Zm0,.25v.06S82.83,47.88,82.83,47.86Z"/><path class="cls-5" d="M84.25,44.91a2.79,2.79,0,0,0-.81.17,3.79,3.79,0,0,0-.58.05,2.93,2.93,0,0,0-1.29.53,2.28,2.28,0,0,0-.47.51,1.85,1.85,0,0,0-.31.63c0,.11-.07.21-.1.32a2.19,2.19,0,0,0,0,.51,2.09,2.09,0,0,0,.1.6,1.76,1.76,0,0,0,0,.51,2.45,2.45,0,0,0,.39.89,2.19,2.19,0,0,0,.5.46,2,2,0,0,0,.76.36,2.76,2.76,0,0,0,1.34,0,3.52,3.52,0,0,0,1.85-1l.1-.12.18-.15a3.58,3.58,0,0,0,.61-.62A2.87,2.87,0,0,0,87,47.39a2,2,0,0,0-.62-1.82,3.15,3.15,0,0,0-.71-.45l-.19-.06a3.18,3.18,0,0,0-.51-.13,1.53,1.53,0,0,0-.37,0h-.39Z"/></g></g></g></g></svg>