<svg xmlns="http://www.w3.org/2000/svg" viewBox="0 0 240.9 275.5" xmlns:v="https://vecta.io/nano"><path d="M42.7 4h0z" fill="#9e9e9c"/><g fill="#2c2c2c"><path d="M121.7 41.3h-2.9c-.3 0-.6 0-.8.1h-2.3c-.5 0-1 .1-1.5.2-.2 0-.5.1-.7.1l-.4.1c-.4 0-.8.1-1.1.2l-2.3.4-4.4.8-2.6.7-1.7.3c-.8.1-1.6.3-2.3.5l-2.3.5-2.3.6-2 .7-.2.1-1 .4c-.4.1-.8.3-1.2.4s-.8.3-1.3.4l-1 .3-2.4.9-1 .4c-.2.1-.5.3-.8.4l-1.7.8-.3.1-1.8.7c-.6.2-1.3.6-2.1 1.1-1.3.7-2.5 1.5-3.9 2.5l-.3.2-3.4 2.4-1.8 1.4-.1.1-1.8 1.5-3.6 3.2-1.5 1.5c-.7.6-1.4 1.3-2 2l-1.2 1.3-.4.5-1.5 1.7-1.6 1.7c-.5.5-1 1.2-1.5 1.9l-.1.2-.3.5-1.1 1.4c-.4.5-.8 1.1-1.2 1.9l-1.1 2-1 2-.6 1.1c-.2.3-.3.5-.4.7l-1.1 2c-.4.7-.7 1.4-1 2.1-.1.3-.3.6-.4.9s-.2.6-.4.9l-.9 2c-.3.6-.7 1.5-1 2.4-.1.4-.3.7-.4 1.1s-.3.8-.4 1.1l-.8 2.1-.7 2.1c-.2.5-.3 1-.4 1.4l-.2.8-.6 2.3-.3 2.2v1.1l-.1.4-.3 2.3c-.1.7-.1 1.4-.2 2.2l-.3 2.2-.2 2.4c-.1 1.5 0 3 .1 4.5.1 1.4.3 2.8.5 4.1l.2 1.6.6 3.7.3 1.4.6 3.1c0 .4.1.8.2 1.1l.6 3.4.6 2.3c.3.9.5 1.6.6 2.3l.2 1.1.3 1.4.1.5c.1.5.2 1.1.4 1.6.4 1.5 1 3 1.7 4.5l.9 1.6-.1.6 1.1 2c.1.3.3.6.4.8l.6 1.1v.1c.2.3.3.6.5.9s.4.7.7 1c.2.3.5.6.7.9l.1.1c.3.3.5.6.7.9l1.4 1.7.6.8 2.2 2.6 2.4 2.5.7.7 1.5 1.6 1.5 1.5a14.29 14.29 0 0 0 2 1.4l1.6 1.1 1.3 1.1 1.5 1.3 2 1.6.6.4.5.4 1.3 1c.6.4 1.2.9 1.9 1.2l2.1 1.2h.1l1.8 1 2 1.3.1.1c.2.2.5.3.7.5l1 .6 2 1c.4.2.8.4 1.2.7s.5.3.7.4a11.94 11.94 0 0 0 1.6.8c.6.3 1.3.5 2 .7l.6.1 1.1.3c.6.2 1.1.3 1.8.6 1.2.4 2.4.7 3.6 1l2.5.3 1.5.1 1 .2 3.5.5.8.1 1.4.1c.6.1 1.2.1 1.8.2l.5.1 2.3.2c.8.1 1.5.1 2.3.1h6.4c.8 0 1.6-.1 2.5-.2l2.1-.4 2-.3 1-.1c.3 0 .7 0 1.1-.1l2.7-.4 4.5-1h.1l.9-.2 3.7-1c1.5-.5 3-1.1 4.5-1.8l2.4-1.1.9-.4 3.2-1.5 1.3-.5 2.9-1.2c.7-.3 1.4-.7 2-1l2-1.1c1.4-.8 2.7-1.8 3.9-2.6.6-.5 1.3-1 2-1.5h.1c.3-.2.6-.5.9-.7l.7-.6.3-.2 1.7-1.8c.6-.6 1-1.1 1.5-1.7l1.7-2.1.4-.6 1-1.4 5.3-8.1 1.4-2.1 2.6-4.1c1.2-2.2 2.3-4.6 3.3-6.9l1.9-4.5.1-.2.8-2c.1-.4.3-.9.4-1.3l.2-.9.5-1.6.9-2.9c.3-1 .5-2.3.7-3.3l.2-1.1.1-.2.4-2.2c.1-.8.2-1.4.2-2.3l.2-2.3c.1-.8.1-1.3.1-2.2a32.53 32.53 0 0 0-.3-4.4v-.1c0-.2 0-.5-.1-.7-.1-.5-.1-1-.2-1.5 0-.5-.1-1.4-.2-2.2l-.4-2.7-.1-.4-.3-2c-.2-1.3-.6-2.5-.9-3.7l-.1-.5-.3-1.7c0-.2-.1-.5-.1-.7-.1-.7-.3-1.4-.5-2.3l-1.1-4.5c-.3-1.1-.8-2.3-1.1-3.3-.1-.3-.2-.6-.4-1-.1-.3-.2-.7-.4-1l-.4-1.1c-.2-.7-.5-1.4-.9-2.3-.2-.5-.5-1-.7-1.5l-.2-.5c-.3-.7-.6-1.3-1-1.9s-.5-1-.8-1.5l-.3-.5-.2-.4-.9-1.6-1-1.5c-.2-.2-.3-.5-.5-.7l-.5-.6c-.3-.5-.7-1-1.1-1.5l-.6-.7-.4-.5c-.4-.6-.8-1.1-1.1-1.7-.5-.8-1.1-1.5-1.7-2.1-.3-.4-.6-.7-.9-1l-.5-.5c-.5-.5-1-1.1-1.4-1.6-.4-.6-.9-1.1-1.4-1.6l-1.5-1.5-.8-.7-.8-.8c-.6-.6-1.2-1.1-1.8-1.6h0l-1-.7-1.9-1.6-2.3-1.8-.3-.2c-.1-.1-.3-.2-.4-.3h0l-3.3-2.4-.1-.1-1.9-1.3c-.4-.3-.9-.5-1.4-.7l-.6-.3c-.4-.2-.8-.5-1.2-.7l-.4-.2-1-.6-.7-.5-.1-.1-1.8-1.1-2-1.1c-.9-.5-1.6-.8-2.3-1.1l-1.8-.8c-.2-.1-.4-.2-.7-.3l-2.2-.9-1.4-.5-.6-.2-2.1-.6c-.6-.1-1.1-.3-1.7-.4l-.3-.1-.4-.1-.6-.1-.7-.2-.3-.1c-.6-.1-1.1-.3-1.7-.4h-.2c-.8-.2-1.5-.3-2.3-.4-.4-.1-.9-.1-1.4-.1h-1.6l-.2-.3zM90.5 84.5l1.5-.3 1.4-.3c1.3-.2 2.3-.3 3.1-.3h1.7c.6 0 1.2 0 1.7-.1l3.3-.2h.8l2.3-.1h10c.7 0 1.3 0 1.9.1.4 0 .8 0 1.2.1h3.2c.6 0 1.1 0 1.6.1s1.1.1 1.7.1h3.3c1 0 2.1.1 3.2.2h0c.5.1 1 .2 1.4.2l1.4.3c1 .1 2 .3 3 .6.2 0 .5.1.7.2l.6.2 1.1.3h.2l1.5.3c.5.1.9.2 1.4.4.3.1.5.3.8.5l.5.5c.2.2.4.3.7.5l.2.2c.2.2.4.3.6.5s.3.4.6.6c.5.7.9 1.5 1.2 2.3.1.1.1.3.2.5.1.3.2.6.2.8.1.3.2.8.3 1.2l.1.2.3 1.4v.2c0 .3.1.5.2.8l.1.6v1.3c0 .2 0 .4.1.6s.1.6.1.8v.6c0 .2 0 .6.1.9s.1.6.1.9.1.4.1.6l.1.6c0 .3.1.7.1 1s.1.9.1 1.3v4.3l.1 2.6v3.4c0 .2 0 .5.1.7s.1.6.1.9v3c.1.6.1 1.1.1 1.7v2.2c0 .1 0 .7.1 1v1.6c0 .3 0 .6.1.8.1.3 0 .5.1.7v3.2c0 .6.1 1.2.1 1.8v3.4c0 .6 0 1.1-.1 1.7v.3c0 .3-.1.6-.1.9v1c0 .6 0 1.2-.1 1.8 0 .4-.1.8-.2 1.1l-.3 1.3-.8 2.6-.4.8c-.1.3-.3.6-.4.9s-.3.5-.5.8l-.1.1c-.1.2-.3.4-.5.7l-.8.9-.9.9-.6.5c-.4.3-.7.7-1.1 1s-.7.5-1.1.7l-.3.2c-.4.3-.9.6-1.4.8l-1.5.5c-.5.2-1.1.3-1.7.5-.5.1-.9.2-1.4.2l-.6.1-.7.1-1.1.2c-1 .2-2 .3-3 .3l-1.7.1-1.8.1h-.3c-.4 0-.9 0-1.3.1h-.5l-1.4.1h-1.3c-.5 0-1.2 0-1.9-.1-.9-.1-1.9-.1-3.1-.1-1 0-2.1 0-3.1-.1h-.3c-.5 0-.9-.1-1.4-.1h-1.7c-.7 0-1.4-.1-2.1-.1l-1-.1h-.9c-.7 0-1.5-.1-2.3-.1l-.9-.1c-.4-.1-.9-.1-1.3-.2l-2.3-.2h-2.2l-4.5-.4H94l-2.7-.4c-1.2-.2-2.3-.6-3.4-1l-.8-.3c-.3-.1-.6-.2-.8-.4l-.9-.6c-.4-.2-.7-.4-1.1-.5h0c-.3-.1-.6-.3-.8-.5l-.8-.7-.1-.1-1-.9c-.6-.6-1.1-1.2-1.6-1.8l-.6-1.1-.3-.6c-.1-.2-.2-.4-.3-.5-.1-.2-.2-.6-.3-1s-.1-.3-.1-.5l-.3-.9-.2-.8-.5-1.7c-.2-.5-.3-1-.3-1.5 0-.4-.1-.9-.1-1.3v-.5c0-.4 0-.8-.1-1.1v-.2c0-.4-.1-.9-.1-1.3v-1.7c-.1-.5-.1-1-.2-1.6v-1.6c0-.5 0-.9.1-1.4v-.2c0-.5.1-1.1.1-1.7s.1-1.1.1-1.6V121c0-.7.1-1.5.2-2.2v-.1c0-.3.1-.6.1-.8v-.9c0-.5 0-1 .1-1.6v-4.1c0-.4 0-.8.1-1.2s0-.7 0-1.1v-.6c0-.7 0-1.3.1-2v-1.1c0-.3 0-1.1.1-1.8v-.3c0-.6.1-1.1.2-1.6v.1c0-.3.1-.6.1-.9l.3-2.1v-.3c.1-.6.2-1.3.4-1.9.1-.3.1-.6.2-.9s.1-.6.2-.9l.1-.6c.1-.5.2-.9.4-1.4l.1-.4.3-1c.1-.5.3-1 .5-1.4l.3-.6c.1-.2.3-.4.4-.6l.4-.4.8-.6H82c.2-.2.5-.3.8-.5.2-.1.4-.2.7-.3l.1-.1c.6-.2 1.1-.5 1.6-.7l.4-.2c.3-.2.6-.4 1-.5.8-.3 1.7-.6 2.6-.7l.7-.1h.1l.5-.1zm24.9 22.8h-2.3c-.6 0-1.2.1-1.7.2-.3.1-.6.1-.8.2l-.7.2-.5.1c-.3.1-.6.1-.9.2-.6.2-1.1.4-1.6.8-.5.3-1 .7-1.4 1.2l-1 1.1c-.3.5-.7.9-1.1 1.3l-.7 1.1-.1.1a9.04 9.04 0 0 0-1.1 2.7c-.1.6-.3 1.1-.4 1.7s-.2 1.2-.1 1.7c.1.6.1 1.2.3 1.9l.3 1.5.3 1 .1.2.1.3c.2.5.3 1 .6 1.5.2.3.3.6.6.9.2.2.3.4.5.6.5.4.9.8 1.4 1.1l.6.4.7.5 1.3.9c.8.5 1.6.9 2.5 1.1l.6.2h.1c.4.1.8.3 1.1.4l1.7.3h.5c1 0 1.9-.2 2.8-.5a18.77 18.77 0 0 0 3-1.2c.5-.2.9-.5 1.3-.8l.9-.7.1-.1c.2-.1.3-.3.5-.4.3-.3.6-.7.8-1 .1-.1.2-.3.3-.4l.2-.2c.3-.3.5-.7.7-1 .3-.5.5-1 .7-1.4.3-.6.5-1.2.7-1.8l.3-1.5.2-1.7v-1.4c0-.4-.1-.9-.1-1.3 0-.5-.1-1-.3-1.4 0-.2-.1-.3-.1-.5s-.1-.4-.2-.6c-.1-.4-.3-.9-.5-1.3h0c-.2-.5-.5-.9-.8-1.4l-.8-.8c-.3-.3-.6-.7-.9-1l-.1-.1-.4-.5-.7-.7c-.2-.2-.5-.4-.8-.5l-.3-.2-.2-.1c-.1-.1-.2-.1-.4-.2l-.3-.1h-.6c-.1 0-.2.1-.3.1-.8-.3-1.7-.6-2.6-.7h-1z"/><path d="M142.9 112.3h-.6c-.5 0-1 0-1.4.1h-2c-.4 0-.7 0-1.1.1-.8.1-1.6.1-2.4.1h-.6c-.8 0-2 0-2.3 1-.1.4 0 .8.1 1.1 0 .1.1.2.1.3v.2a.9.9 0 0 0 .1.5c0 .2.1.5.2.7s.2.5.3.8c0 .2.1.3.1.6v.3c0 .4.1.7.1 1.1v1.1c0 .3-.1.6-.1.8v.3c-.1.3-.1.7-.1 1v.3c0 .3-.1.6-.1 1v.6c-.1.6-.3 1.1-.4 1.6v.1c-.2.8-.5 1.4-.7 2h0v.1l-.2.6c-.3.7-.6 1.3-1.1 1.9l-1.2 1.4c-.4.5-.7.8-1 1.1-.3.4-.4.5-.6.7s-.4.5-.6.8l-1.3 1.2-.7.6-.5.4c-.3.3-.7.5-1 .8l-.5.4c-.6.5-1.3.9-2 1.2l-.8.3-1.6.5-2.4.5-2.4.2h-1l-1.4-.3-.9-.3-.7-.2-.8-.2c-.3-.1-.5-.1-.8-.2-.5-.2-1.1-.3-1.6-.5s-1.2-.6-1.9-.9a12.81 12.81 0 0 1-2-1.1c-.3-.2-.5-.4-.7-.6l-1.5-1.5c-.5-.4-.9-.8-1.3-1.3-.3-.4-.6-.8-.8-1.2l-.1-.1-.2-.4-.3-.4c-.1-.1-.2-.3-.3-.4s-.2-.2-.2-.3c-.6-.9-1.2-1.9-1.6-2.9-.3-.7-.5-1.5-.6-2.3l-.3-1.8c-.1-.6-.1-1.3-.1-1.9l.1-2.3.4-2.3v-.2c.1-.3.1-.7.2-1v-.1c0-.3.1-.6.2-.8.1-.3.2-.5.2-.8 0-.2-.1-.4-.2-.6a.78.78 0 0 0-.4-.4h0c-.2-.1-.5-.2-.8-.2h-1.6c-.5 0-1.1-.1-1.6-.1h-1.1c-.3 0-.5 0-.8.1h-.1c-.7.1-1.3.2-2 .2h-.7l-.5-.1-.4-.1-1.2-.2h-.1c-.5.1-.8.4-.9.9-.1.2-.2.3-.3.5s-.1.5-.1.7v.3c0 .3-.1.5-.1.7v.6c0 .3 0 .6-.1.8-.1.3 0 .4 0 .6v6.5c0 .3 0 .6.1.9v7.4c0 .3.1.6.1.8v1.2c0 .3.1.7.1 1h0v1c0 .5.1.9.2 1.4v1.4c0 .5.1 1 .1 1.4v.2c0 .3.1.7.1 1 0 .1.1.3.1.4s.1.2.1.4c0 .1 0 .2.1.3s0 .2.1.3c.1.3.2.5.3.7l.2.5c.1.3.2.6.4.9.2.4.4.8.7 1.1l.9.9c.3.4.7.8 1 1.1 1 .7 2.1 1.1 3.3 1.1l1.1.1.8.1h.5c.3 0 .6.1 1 .1h10.4c1.3 0 2.5.1 3.4.2.7.1 1.3.1 1.8.1h1.6c.3 0 .9 0 1.3.1.6 0 1.3.1 1.9.1h2c.5 0 1 0 1.5.1h.6l1 .1h8.3l2.1.1h1.5c.5 0 1-.1 1.4-.2l1.6-.2c.7-.1 1.3-.2 2-.4l.4-.1a9.83 9.83 0 0 0 1.6-.5c.4-.2.8-.3 1.2-.5l.6-.3.7-.3c.3-.1.6-.3.9-.4.2-.1.4-.3.5-.4h0c.2-.2.3-.4.5-.6l.1-.1.3-.6.1-.1c.1-.3.3-.5.4-.8.2-.6.4-1.1.5-1.7l.3-1.7c.1-.4.1-1 .2-1.5v-.6c0-.2.1-.6.1-.8V121c0-.3 0-.7.1-1.1s.1-1 .2-1.5V117c0-.7-.1-1.3-.2-2 0-.2-.1-.4-.1-.5 0-.2-.1-.7-.2-1s-.2-.7-.5-.9c-.2-.2-.5-.4-.8-.5-.2 0-.3-.1-.5-.1l-.4.3zM135 90.1h-1.1c-.4 0-.7 0-1.1.1h-1.2c-.3 0-.7 0-1 .1-.3 0-.6.1-.8.3-.5.4-.5 1.1-.1 1.6l.1.1c.2.2.5.3.8.3v1.8c0 .2 0 .7-.1 1l-.1.7c0 .2 0 .4-.1.6s-.1.6-.1.8v.3c0 .3 0 .7-.1 1s-.1.4-.1.6-.1.5-.1.7-.1.6-.1.9v.8c0 .2-.1.3-.1.5v.1c-.1.3-.1.7 0 1 .1.2.2.4.3.5l.3.3c.2.1.4.2.7.2h.3l.4.1 1.7.3.9.1h1c.8.1 1.5.1 2.3.1h2.8c.2 0 .5 0 .7-.1h.1c.3 0 .5-.1.8-.3.1-.1.3-.2.4-.3.2-.2.3-.4.4-.6s.1-.5.2-.7h0v-.4c0-.1.1-.4.1-.6.1-.5.1-1.1.1-1.6v-1.2c0-.4 0-.8.1-1.1v-.2c0-.3.1-.7.1-1v-3.4c0-.1.1-.3.1-.4v-.3c0-.1 0-.3.1-.5v-.4c0-.2-.1-.4-.2-.6h0c-.1-.1-.2-.3-.3-.3-.1-.1-.2-.1-.4-.1h-.7l-.6-.1-2.4-.3c-.5 0-.9-.1-1.4-.1h-.1c-.5-.1-1.1-.1-1.6-.2l-.9-.1zm36.6 95.2h-.8c-.5 0-1 .1-1.5.3l-.8.3c-.4.2-.7.4-1 .7-.2.2-.5.4-.7.6-.2.3-.4.5-.6.9s-.4.9-.5 1.4c-.2.6-.2 1.3-.1 1.9l.3 1 .3.6c.4.5.8.8 1.3 1.1.5.4 1 .8 1.6 1l.8.3 1.1.3c.5.1 1 .1 1.5.1.7-.1 1.3-.3 1.9-.7.3-.2.5-.4.8-.6l1.1-1.2c.3-.4.5-.7.7-1.1.3-.7.5-1.4.4-2.2 0-.2-.1-.4-.1-.7 0-.2-.1-.4-.2-.7-.2-.5-.4-.9-.7-1.3-.3-.3-.5-.6-.9-.9-.3-.3-.6-.5-1-.7-.5-.3-1-.5-1.6-.5h-.5l-.8.1zm20.7-5.8l-2.1.4c-.9.2-1.7.6-2.4 1.1-.6.5-1.1 1.2-1.4 1.9l-.3.8-.4 1.2c-.2.4-.3.9-.4 1.3-.2.6-.2 1.3-.2 2s.2 1.3.4 2 .5 1.4.9 2.1c.7 1 1.7 1.7 2.8 2.1 1.2.5 2.5.7 3.8.9.8.1 1.7 0 2.5-.1.6-.1 1.3-.3 1.9-.5a9.49 9.49 0 0 0 3.4-2.2c.2-.2.4-.4.6-.7s.5-.7.6-1c.2-.4.3-.7.4-1.1 0-.1.1-.2.1-.4 0-.1.1-.6.2-.8.1-1.4 0-2.8-.5-4.2-.2-.7-.6-1.3-1-1.9-.2-.3-.5-.6-.8-.8s-.6-.5-1-.6c-.3-.2-.5-.3-.8-.4a23.69 23.69 0 0 0-3.6-.9c-.6-.1-1.2-.2-1.8-.2-.4-.1-.6-.1-.9 0h0zm-9.7-12.1c-.6.2-1 .6-1.4 1-.2.2-.3.5-.4.8s-.1.7-.1 1v.6c0 .3 0 .6.1.9s.3.5.5.7.4.3.6.4c.3.1.6.1.9.1s.6-.1.8-.1l.8-.3c.4-.3.7-.7 1-1.1.1-.1.2-.3.2-.5.2-.4.2-.7.3-1.1 0-.5-.2-1-.5-1.3-.5-.6-1.3-.9-2.1-1-.3-.1-.5-.1-.7-.1h0zm1.2 2.5h0zM87.5 34.8h-.4c-.2 0-.4.1-.6.2s-.5.2-.7.3l-.6.3c-.4.2-.7.6-.9.9-.3.5-.5 1-.6 1.5v.8c0 .2.1.4.1.5s.1.3.1.4c.2.5.6 1 1.1 1.3l.1.1c.6.7 1.5 1 2.4.8.3 0 .5-.1.8-.2l.5-.3c.5-.3.9-.8 1.2-1.3.1-.3.3-.5.4-.8.1-.2.2-.5.2-.7v-1c0-.1-.1-.3-.1-.4-.1-.3-.3-.7-.5-.9-.2-.3-.4-.5-.6-.7-.2-.1-.3-.2-.5-.3-.3-.1-.5-.2-.8-.2h-.3l-.3-.3zm15.2-12.7l-1.1.3c-.3.1-.6.3-.9.4-.2.1-.4.2-.5.3-.6.5-1.1 1-1.5 1.6l-.2.3c-.4.4-.7.9-.9 1.5-.1.3-.3.7-.3 1-.2.7-.2 1.4-.2 2.1.1.6.3 1.2.6 1.7.2.3.4.6.6.8.3.3.6.5 1 .7.5.3 1 .4 1.5.5.4.1.8.1 1.3.1s1-.1 1.5-.2c.4-.1.8-.3 1.1-.5.6-.3 1.2-.7 1.8-1.1.2-.2.5-.4.7-.6l.6-.9c.2-.3.3-.6.4-.9.2-.6.4-1.3.4-2 .1-1-.1-1.9-.5-2.8-.1-.2-.2-.5-.4-.7s-.3-.4-.5-.6-.5-.4-.8-.5l-.8-.3c-.2-.1-.4-.1-.7-.2-.4-.1-.7-.1-1.1-.1h-.1c-.4 0-.7.1-1 .1zm-25.3 4.1l-.6.3c-.2.1-.3.2-.5.3-.3.2-.6.4-.8.7-.2.2-.3.4-.4.7-.1.4-.2.7-.2 1.1 0 .2.1.3.1.5l.1.2c.1.1.1.3.2.4.2.2.4.4.6.5s.4.2.6.2.4 0 .6-.1c.6-.2.8-.9.6-1.4-.1-.2-.2-.3-.3-.4l.2-.2.6-.3c.3-.1.5-.3.7-.6.3-.6 0-1.3-.6-1.6h0c-.2-.1-.3-.1-.5-.1-.1-.2-.2-.2-.4-.2zm-.2 2.5h0zm.1 0v.1-.1zm0 .3h0c0 .1.1.1 0 0h0z"/><path d="M78.9 25.7c-.3 0-.6.1-.9.2-.2 0-.4 0-.7.1-.5.1-1 .3-1.5.6-.2.2-.4.4-.5.6a1.08 1.08 0 0 0-.3.7c0 .1-.1.2-.1.4v.6c0 .2 0 .5.1.7v.6c.1.4.2.7.4 1 .2.2.3.4.6.5a2.47 2.47 0 0 0 .9.4c.5.1 1 .1 1.5 0 .8-.2 1.5-.5 2.1-1.1l.3-.3c.3-.2.5-.4.7-.7.3-.4.5-.8.5-1.3.1-.8-.1-1.5-.7-2-.2-.2-.5-.4-.8-.5l-.2-.1c-.2-.1-.4-.1-.6-.1h-.4l-.4-.3z"/></g><path d="M57.9 234.4v-18.8c0-.3.2-.4.4-.4h1.8c.3 0 .4.1.4.4v18.8c0 .3-.1.4-.4.4h-1.8c-.2 0-.4-.2-.4-.4zm6.9 0v-12.9c0-.3.1-.4.4-.4h1.7c.3 0 .4.1.4.4l.1 1.7c.8-1.4 2.2-2.5 4.5-2.5 2.9 0 5 2 5 5.6v8.1c0 .3-.1.4-.4.4h-1.8c-.3 0-.4-.1-.4-.4v-7.7c0-2.3-1.2-3.7-3.3-3.7s-3.6 1.4-3.6 3.7v7.7c0 .3-.1.4-.4.4h-1.8c-.2 0-.4-.2-.4-.4zm15.5-1.4c-.2-.2-.2-.4 0-.7l.6-.8c.2-.3.4-.3.7 0 .9.9 1.9 1.5 3.3 1.5s2.4-.6 2.4-1.9c0-1.1-.8-1.7-2-2.2l-1.7-.7c-1.7-.7-3.1-1.7-3.1-3.7 0-2.4 2-3.8 4.4-3.8 1.6 0 3.1.7 4.2 2 .2.2.1.4 0 .6l-.7.8c-.2.3-.4.3-.7 0-.9-.9-1.7-1.3-2.7-1.3-1.1 0-2.1.6-2.1 1.7s.8 1.6 2.1 2.1l1.5.6c1.8.7 3.2 1.8 3.2 3.9 0 2.6-2.2 4-4.8 4-2.1 0-3.7-1.1-4.6-2.1zm13.7-1.1v-8.8h-1.8c-.3 0-.4-.2-.4-.4v-1.2c0-.3.2-.4.4-.4H94v-3.2c0-.3.1-.4.4-.4h1.8c.3 0 .4.1.4.4v3.2h2.3c.3 0 .4.1.4.4v1.2c0 .3-.1.4-.4.4h-2.3v8.5c0 1 .4 1.4 1.3 1.4.2 0 .6 0 .9-.1.4-.1.5.1.5.4v1.2c0 .5-1.1.7-1.9.7-2.1-.1-3.4-1.1-3.4-3.3zm7.5-4c0-4.1 2.7-7.2 6.7-7.2 2.4 0 4.1 1.1 5.1 2.8l.1-2.1c0-.3.1-.4.4-.4h1.6c.3 0 .4.1.4.4v12.9c0 .3-.1.4-.4.4h-1.6c-.3 0-.4-.1-.4-.4l-.1-2c-1 1.7-2.7 2.8-5.1 2.8-3.9 0-6.7-3.1-6.7-7.2zm11.7 0c0-2.9-1.9-4.9-4.6-4.9s-4.7 2-4.7 4.9 2 4.9 4.7 4.9 4.6-1.9 4.6-4.9zm7.8 11.2c-.3-.2-.3-.4-.2-.6l.5-1c.1-.2.3-.3.6-.2 1.2.7 2.5 1.1 3.9 1.1 2.5 0 4.8-1.1 4.8-4.3V232c-1 1.6-2.6 2.6-4.9 2.6-3.9 0-6.6-2.9-6.6-6.9s2.7-6.9 6.6-6.9c2.3 0 4 1 5 2.6v-1.9c0-.3.1-.4.4-.4h1.6c.3 0 .4.1.4.4v12.7c0 4.6-3.6 6.3-7.1 6.3-2.1 0-3.9-.5-5-1.4zm9.5-11.4c0-2.9-1.8-4.7-4.5-4.7-2.6 0-4.6 1.8-4.6 4.6 0 2.9 2 4.6 4.6 4.6 2.6.1 4.5-1.7 4.5-4.5zm6.5 6.7v-12.9c0-.3.1-.4.4-.4h1.7c.3 0 .4.1.4.4l.1 1.6c.5-1.3 1.4-2.4 3.1-2.4.6 0 1 .1 1.3.3.2.1.2.3.2.5v1.4c0 .3-.2.4-.5.3-.4-.1-.7-.1-1-.1-2.3 0-3.1 2-3.1 3.6v7.8c0 .3-.1.4-.4.4h-1.8c-.3-.1-.4-.3-.4-.5zm8.8-6.5c0-4.1 2.7-7.2 6.7-7.2 2.4 0 4.1 1.1 5.1 2.8l.1-2.1c0-.3.1-.4.4-.4h1.6c.3 0 .4.1.4.4v12.9c0 .3-.1.4-.4.4H158c-.3 0-.4-.1-.4-.4l-.1-2c-1 1.7-2.7 2.8-5.1 2.8-3.9 0-6.6-3.1-6.6-7.2zm11.7 0c0-2.9-1.9-4.9-4.6-4.9s-4.7 2-4.7 4.9 2 4.9 4.7 4.9 4.6-1.9 4.6-4.9zm6.5 6.5v-12.9c0-.3.1-.4.4-.4h1.7c.3 0 .4.1.4.4l.1 1.5c.7-1.3 1.9-2.3 3.9-2.3 1.9 0 3.3.9 4 2.6.7-1.5 2-2.6 4.3-2.6 2.9 0 4.6 1.9 4.6 5.5v8.2c0 .3-.1.4-.4.4h-1.8c-.3 0-.4-.1-.4-.4v-7.8c0-2.3-.9-3.6-2.8-3.6-1.8 0-3.1 1.3-3.1 3.6v7.8c0 .3-.1.4-.4.4h-1.8c-.3 0-.4-.1-.4-.4v-7.8c0-2.3-1-3.6-2.9-3.6s-3 1.3-3 3.6v7.8c0 .3-.1.4-.4.4h-1.8c-.1 0-.2-.2-.2-.4z" enable-background="new"/></svg>