<svg xmlns="http://www.w3.org/2000/svg" viewBox="0 0 349.4 170.9" fill="#fff" xmlns:v="https://vecta.io/nano"><path d="M196.3 105.1c-.6 0-1.2.1-1.8.2l-1.7.6c-.7.3-1.3.5-1.9.9-1.8.9-3.5 2-5.3 3s-3.8 2.3-5.6 3.5l-7 4.6.9-.6-10.1 7.3-1.1.8c-.8.5-1.5 1-2.2 1.6-2.8 1.9-5.7 3.6-8.7 5-3.1 1.5-6.3 2.8-9.2 4.5a90.04 90.04 0 0 0-4.1 2.5c-1.4.9-2.9 1.6-4.3 2.4-3.3 1.9-6.6 4-9.6 6.4-.9.8-1.4 1.9-1.4 3s.4 2.2 1.1 3c.8.8 1.9 1.3 3 1.4 1.1 0 2.2-.4 3-1.1l1.5-1.1c2.6-1.8 5.3-3.4 8-4.9 2.8-1.5 5.5-3.4 8.3-4.9s6-2.8 8.9-4.2c3.2-1.6 6.2-3.5 9.1-5.5l-.6.4c.9-.6 1.8-1.2 2.7-1.9l-.9.6 9-6.5 2.5-1.7c1.7-1.2 3.5-2.3 5.3-3.4s3.2-2.1 4.9-3.1c2.4-1.5 4.8-2.9 7.4-4.1.3-.1.5-.1.8-.2h-.2c.9-.1 1.7-.4 2.3-1 .8-.8 1.3-1.9 1.4-3 0-1.1-.4-2.2-1.1-3s-1.7-1.3-2.8-1.4l-.5-.1zm-.4 8.5h0zm-29.7 19.5l-.2.2.2-.2z"/><path d="M139.9 95.4l-11.1.3c-3.7.2-7.4.7-11 1h0-.4c-1.7.2-3.4.3-5.1.4s-3.6.3-5.4.3c-2 0-3.9-.1-5.9 0l-5.4.3a49.54 49.54 0 0 0-5.4.6c-2 .3-4 .8-6 1.2l-6.2 1.2c-2.1.4-4 .6-5.9.9-1.8.3-3.6.6-5.4 1s-3.5.9-5.2 1.3L47.9 107c-2.7.6-5.4 1.1-8.1 1.8l-7 2h.1c-2.2.6-4.4 1.2-6.6 2s-4.1 1.3-6.1 2-4 1.2-6 1.8c-2.4.8-4.8 1.8-7.2 2.8-2.2.8-3.4 3.2-2.6 5.4s3.2 3.4 5.4 2.6c.1 0 .1 0 .2-.1 2.2-.9 4.4-1.9 6.6-2.7 2-.7 4-1.2 6-1.8s4-1.2 6-1.9 4.2-1.4 6.3-1.9h-.1c3-.7 5.9-1.7 8.9-2.5l12.3-2.7c2-.4 3.9-.9 5.8-1.3s3.6-.9 5.5-1.4c3-.7 6-1.2 8.9-1.6 1.7-.3 3.4-.5 5.1-.8a133.66 133.66 0 0 0 5.5-1.1c3.2-.7 6.4-1.2 9.6-1.4 3.1-.2 6.2-.4 9.2-.4.9 0 1.8.1 2.7.1s1.9-.1 2.8-.2c1.9-.1 3.8-.3 5.8-.4 3.7-.3 7.4-.8 11.1-1.1 1.9-.2 3.9-.2 5.8-.2 1.8 0 3.5-.1 5.3-.1 3.5-.1 7.1-.1 10.6-.1l3.1.1h1.5c2 .1 4.1.3 6.1.4 2.2.2 4.4.3 6.6.4 4.1.2 8.1.6 12.1 1 4.2.4 8.4 1 12.6 1.6 2 .3 4.1.5 6.1.8s3.9.4 5.9.6c4.1.2 8.1.7 12.1 1.4l11.8 2.1c3.9.8 7.8 1.8 11.7 2.7s8 1.8 12 2.9l7.9 2.2c2.4.8 4.9 1.5 7.3 2.3s4.9 1.9 7.4 2.7 5 1.5 7.4 2.4c1.2.4 2.3.9 3.5 1.3l4.9 1.5-1.1-.3c1.9.6 3.8 1.1 5.7 1.6 3.2 1.1 6.3 2.6 9.5 3.9 3.7 1.5 7.6 2.5 11.4 4 3.3 1.3 6.5 2.8 9.7 4.3l8.9 4c2.1.9 4.7 0 5.6-2.2.9-2.1 0-4.6-2.1-5.6l-9.1-4.1c-3.4-1.5-6.8-3.1-10.3-4.5-3.8-1.5-7.8-2.4-11.6-4.1-3.7-1.8-7.6-3.2-11.6-4.4l-2.3-.6 1.1.3-3.6-1.1-5.2-1.8c-1.9-.7-3.8-1.3-5.8-1.9-3.9-1.2-7.6-2.8-11.5-4-4.3-1.3-8.6-2.7-13-3.8-4-1.1-8-2.1-12.1-3-3.9-.9-7.8-2-11.7-2.8s-7.8-1.4-11.8-2.1c-4-.8-8-1.3-12.1-1.6-2-.2-4-.2-6-.5l-5.8-.8c-3.3-.4-6.6-.9-9.9-1.4s-6.7-.7-10.1-.9c-1.7-.1-3.3-.3-5-.4l-5.2-.3c-3.5-.2-6.9-.6-10.4-.7h-2.8c-2.1-.1-4.2-.1-6.3-.1-1.6.1-3.5.1-5.3.1h0zm15 .1h0z"/><path d="M35 119.1l.2-.1-.2.1zM12 22.5c-1.1.1-2.1.7-2.8 1.5-.7.9-1.1 2-.9 3.2.1.7.2 1.3.2 2l-.2 2.5c-.1 1.2-.3 2.5-.5 3.7-.1.5-.1 1.1-.1 1.6s-.2 1.2-.2 1.8l-.2 4c0 1.3-.3 2.5-.3 3.7-.1 1.7 0 3.4 0 5.1l-.5 5.8-.4 6.7v-.5l-.3 3.9-.5 4.3c-.1 1.5-.5 2.8-.6 4.2l-.2 4v.1l-.4 6.2-.5 6.4c-.3 3.6-.9 7.2-1.7 10.7-.4 1.4-.6 2.9-.8 4.3-.1.7-.3 1.4-.4 2.1l-.3 2.3c-.3 1.5-.4 2.9-.4 4.3 0 1.5.2 2.9.7 4.3l1.5 3.8c.8 2.2 3.3 3.3 5.5 2.5s3.3-3.3 2.5-5.5l-.9-2.3-.6-1.5c-.1-.4-.1-.8-.1-1.2 0-.3 0-.6-.1-.9.1-.7.2-1.5.2-2.2a26.29 26.29 0 0 1 .6-3.9c.3-1.2.4-2.4.6-3.6.3-1.5.8-3 1-4.4l.6-4.3c.2-1.8.5-3.6.6-5.4s.2-3.8.4-5.6.3-3.7.3-5.6c0-1.2.1-2.4.2-3.6.1-1.5.3-2.9.5-4.4l.6-4.6c.1-1.3.2-2.7.2-4 .1-2.2.3-4.5.5-6.7.1-1.3.3-2.6.4-3.8.1-1.6 0-3.1 0-4.7l.3-6.7v.9c.1-1.5.2-3 .4-4.5s.3-3 .5-4.5c.2-1.3.3-2.6.3-4 .1-1.3 0-2.6-.2-3.8-.1-1.1-.7-2.1-1.5-2.8-.8-.6-1.7-1-2.7-1l-.3.1z"/><path d="M137.8.3c-3.6.3-7.1.1-10.7.3-4 .2-7.9.3-11.8.7-2.1.2-4.2.5-6.3.7-1.9.1-3.7.1-5.6.2s-3.7.1-5.6.2-3.8.1-5.8.2-3.9.3-5.9.5l-6.1.6c-1.8.2-3.6.5-5.4.8s-3.6.5-5.4.7c-3.9.5-7.8 1.1-11.6 1.9-3.2.7-6.3 1.7-9.4 2.6-1.6.5-3.2.9-4.9 1.3l-4.2 1.2-3.4.8-5 1.2-5.2 1.3c-1.6.4-3.1.9-4.7 1.5-1.7.7-3.4 1.5-5 2.4-1.6 1-3 2.1-4.4 3.3a4.59 4.59 0 0 0-1.7 2.8c-.2 1.1.1 2.2.8 3.1 1.4 1.9 4 2.4 5.9 1 1.5-1.3 3-2.4 4.7-3.5 3.2-1.4 6.5-2.6 9.9-3.3 1.4-.3 2.8-.6 4.1-1l5.5-1.3 9.3-2.5c2.9-.8 5.7-1.8 8.6-2.5 3.6-.8 7.3-1.4 11-1.9 1.8-.2 3.6-.4 5.4-.7s3.6-.6 5.4-.8l12-1.1 5.7-.3c1.9-.1 3.7-.2 5.6-.2s3.5 0 5.2-.1a60.94 60.94 0 0 0 6-.6c2-.3 3.8-.4 5.8-.5s3.8-.2 5.6-.2c3.4-.2 6.8-.1 10.1-.2 2-.1 4.1-.3 6.1-.4s3.8-.1 5.7-.1c2.7.1 5.4.1 8.2.1l11.2.2h11.2l4 .1 12 .6c4 .2 8.3.7 12.4 1 2.1.2 4.2.4 6.3.7s4.2.4 6.3.5c1.8.1 3.6.1 5.4.3l5.6.6 6.1.6c2.1.2 3.9.5 5.8.7 4.2.5 8.4.6 12.6 1.2 8.2 1.3 16.5 2.7 24.6 4.3l8.7 1.7c1.5.3 2.9.7 4.3 1.1l4.3 1.2 3.9 1.2c3.8 1.2 7.7 2.2 11.6 3 2 .4 4 .8 6 1.3 1.7.4 3.3.9 5 1.3 1.4.4 2.8.9 4.1 1.4 1.4.5 3 .9 4.5 1.5 2.5.8 5 1.9 7.4 2.9 2.1 1 4.7.1 5.6-2.1 1-2.1.1-4.7-2.1-5.6h-.1c-2.5-1.1-5-2.1-7.6-3l-4.7-1.5c-1.9-.7-3.8-1.3-5.8-1.9-3.3-1-6.7-1.8-10.1-2.5s-6.5-1.4-9.7-2.4l-4-1.2c-2.1-.7-4.3-1.2-6.4-1.9-2-.5-3.9-1.1-5.9-1.5L276.7 10l-13-2.3c-3.9-.7-7.8-1.3-11.8-1.7-2.1-.2-4.3-.3-6.5-.5-2-.2-3.9-.5-5.9-.7s-3.5-.2-5.5-.4-4-.5-6-.7c-3.8-.4-7.6-.3-11.3-.7l-6.4-.7-6.3-.6c-3.6-.4-7.2-.6-10.9-.8L181.4.4h1.1L170.3.2h-9.5L150.4 0c-1.4 0-2.8-.1-4.1-.1l-8.5.4z"/><path d="M339.1 29.5c-1.3 1-1.9 2.5-1.8 4.1-.1.5-.1 1-.1 1.5s.1.9.2 1.4c0 .2 0 .5.1.7l.3 1.2c.1.4.1.6.2.9s.1.6.1.9l.4 1.6.4 1.7c0 .4.1.8.1 1.2s0 .7-.1 1c-.1.8-.1 1.7 0 2.5l.2 3v-1.1 1.8c0 .6 0 1.2-.1 1.8-.1.7-.1 1.5-.1 2.2v1.2l.7 4.9.7 5.1c.1.9 0 1.8.2 2.8.1.4.2.8.2 1.2v.6c0 .6-.1 1.3-.1 1.9v.9l.1 5.1c-.1 1-.1 1.9-.1 2.9v-.2l-.3 3.3-.1 4.4v3l-.3 3.8c-.1 1.6 0 3.1 0 4.6l.5 7.3v-1.1 8.3l-.1 3.8v2.2a30.34 30.34 0 0 1-.6 4.2l-1 4.2-.4 1.2c-.5 1.4-1.1 2.8-1.8 4.1l-1.2 2.6c-.2.3-.5.6-.7.9-.4.6-.8 1.2-1.1 1.9l-.1.1-1.9 1.3c-1 .6-1.9 1.4-2.9 2l-4.1 2.2c-1.4.7-2.7 1.7-4 2.4l.3-.1-5.9 3.4-2.9 1.4c-1.2.6-2.5 1.1-3.7 1.6l-3.4 1.1-3.2 1-3.3 1-3.2 1c-1.1.4-2.2 1-3.3 1.6l-3.7 1.9c-1 .4-1.9 1.2-2.4 2.2-1 2.1 0 4.6 2.1 5.6 1 .5 2.2.5 3.3.1l4.3-2.2c1.3-.7 2.7-1.3 4.1-1.7l4.1-1.2 4-1.1 4.3-1.4c1.4-.5 3-1.3 4.5-2 3-1.4 5.8-3.2 8.6-4.8 1.2-.6 2.3-1.3 3.4-2s2.1-1.2 3.2-1.8l1.9-1c.7-.4.9-.6 1.4-.9s.8-.6 1.3-.8.8-.5 1.1-.7c.9-.6 1.7-1.2 2.4-2 .6-.7 1.1-1.5 1.5-2.3.1-.1.2-.3.4-.4.4-.6.8-1.1 1.1-1.7l1.2-2.3 1.2-2.6c.2-.6.5-1.1.8-1.7.3-.7.5-1.5.7-2.2l1.6-6.3.5-2.9c.1-1.2.1-2.3.1-3.5v-.8l.2-5.2-.1-4.4v-1.2c.1-3.6-.5-7.2-.5-10.8.1-1.9.3-3.7.3-5.6v1.1c0-1 .1-2 .1-2.9v1.1-7.1c.1-1 .1-2 .1-3 .1-1.3.2-2.7.1-4s-.1-2.4-.1-3.6v-.8c0-1 .1-2 .1-3 0-.7-.3-1.4-.3-2.2-.1-1.7-.2-3.3-.4-4.9-.5-2.8-.9-5.5-1.1-8.3 0-.6.1-1.2.1-1.8 0-1 .1-1.9.1-2.9v.1c0-.7 0-1.3-.1-2 0-.5-.1-1-.2-1.5.1-1.1.2-2.2.1-3.4 0-.8-.2-1.7-.4-2.5-.1-.3-.1-.5-.2-.8-.1-.5-.2-1-.4-1.6.1.3.2.7.2 1.1-.1-.4-.2-.7-.3-1.1s-.1-.8-.1-1.2c-.1-.6-.2-1.2-.4-1.7v-.3c0-.4-.1-.7-.2-1.1v-.1c.2-.6.2-1.2.1-1.8a5.05 5.05 0 0 0-.9-2.3 4.59 4.59 0 0 0-2.8-1.7h-.6c-.6-.3-1.5 0-2.2.4h0zm-1.5 3.3h0zm.9 8.4l.1.5v.1c0-.2-.1-.4-.1-.6h0zm1.8 52.5v.5-.5zm-2.2 38.5l-.1.3.1-.3zM115.3 96.9c-.2 0-.4.1-.7.1h-3.7l-2.5.9c-.5.3-1.1.4-1.7.6a12.2 12.2 0 0 0-1.7.7c-1.1.4-2.2.9-3.3 1.4l-3.4 1.5-4.1 1.7c-3.7 1.4-7.2 3.2-10.8 4.8-1.9.8-3.9 1.5-5.9 2.3s-3.6 1.7-5.4 2.4c-1.7.7-3.2 1.5-4.9 2.1l-5.6 2.1c-1.9.7-3.6 1.2-5.3 1.8-1.5.6-3 1.2-4.6 1.7l-5.2 2c-1.7.6-3.3 1.2-5 1.6l-.4.1 1.1-.3c-2.1.5-4.1 1.1-6.2 1.8-1.8.7-3.6 1.2-5.5 1.7-1.6.3-3.3.5-5 .5h-.1c-.7 0-1.5-.1-2.2-.2s-1.6-.1-2.5-.1-1.5-.1-2.3-.1c-.5 0-1-.1-1.4-.2-.7-.3-1.4-.6-2.1-1-.2-.1-.3-.3-.5-.4-.4-.4-.7-.8-1.1-1.2l.5.6c-1.4-1.6-2.4-3.3-3.7-4.9-1.4-1.9-4-2.3-6-.9a4.18 4.18 0 0 0-.9 5.9l2.5 3.5a16.32 16.32 0 0 0 1.7 2c.6.8 1.3 1.6 2.2 2.2 1 .6 2 1.2 3 1.7 1.3.6 2.6 1 4 1.2s2.8.2 4.2.2c.6 0 1.2.1 1.7.2 1.1.1 2.3.1 3.4.1h-1.1c1.7.1 3.5 0 5.2-.2 1.8-.3 3.6-.8 5.3-1.3 2.6-.7 5-1.8 7.6-2.4 1.8-.4 3.5-1 5.2-1.6 1.6-.6 3.2-1.1 4.9-1.7s3.3-1.1 4.9-1.8 3.3-1.2 4.9-1.7c2-.7 3.9-1.3 5.8-2.1l2.4-.9c.8-.3 1.7-.8 2.6-1.2 1.7-.8 3.4-1.5 5.2-2.3 2-.9 4-1.6 6-2.4s3.8-1.7 5.8-2.6c1.7-.8 3.4-1.6 5.1-2.3l4.6-1.8 3.5-1.4c1.2-.5 2.2-1.1 3.4-1.5s2.2-.9 3.3-1.3c.9-.3 1.7-.7 2.6-1s1.9-.6 2.8-1c.2-.1.4-.2.6-.2 2.2-.9 3.3-3.3 2.4-5.5-.3-.8-.8-1.5-1.5-1.9h-.8c-.5-.1-.9 0-1.3 0h0zm88.7 4l-1.9 1.2-.3.1c-.2.2-.5.3-.8.4l.4-.2-1.6.9.8-.4-.1.1.4-.2c-2.1 1.1-4.1 2.4-6.1 3.6-.4.2-.9.4-1.3.7h0l.5-.3-.9.5-1.1.6.2-.1-1.6.8-2 1.1-1.9 1 .4-.2-1.4.7.7-.4.2-.1-8.4 4.8 1-.5-5.4 3.1-4.4 2.3-4.4 2.6-3 1.6c-1 .5-1.8 1.1-2.8 1.6-5 2.7-9.8 5.8-14.8 8.6-2.4 1.3-4.9 2.5-7.3 3.9-2.1 1.2-4.2 2.5-6.3 3.6-.9.4-1.7.9-2.6 1.4-.6.4-1.2.7-1.8 1.1-.8.4-1.6.8-2.4 1.3a52.77 52.77 0 0 1-2 1.2l-.2.1-.1.1.1-.1c-1 .5-2 1.1-2.9 1.8-.5.4-1 .8-1.6 1.2s-1.3.8-1.9 1.3c-.9.7-1.5 1.6-1.7 2.7a4.11 4.11 0 0 0 .8 3.2 4.18 4.18 0 0 0 5.9.9c1-.9 2.2-1.5 3.3-2.4.8-.7 1.7-1.2 2.7-1.8.5-.3 1.1-.6 1.6-.9.3-.2.6-.4 1-.6.8-.4 1.7-.8 2.5-1.3s1.4-.9 2.2-1.3c1.4-.7 2.8-1.5 4.2-2.3l5.8-3.4c1.3-.7 2.7-1.3 4-2 1.9-1 3.8-2.1 5.7-3.2l4.5-2.7c1.3-.8 2.6-1.6 3.9-2.3 1-.5 1.9-1 2.8-1.5s2-1.2 3.1-1.8c1.5-.8 3-1.6 4.5-2.6.9-.6 1.8-1.1 2.7-1.6 1.6-.8 3.2-1.6 4.7-2.5 1.1-.6 2-1.2 3.1-1.8l-.4.2c2.8-1.5 5.6-3.2 8.4-4.8l.6-.4c.8-.4 1.6-.9 2.4-1.3l-.1.1c.6-.3 1.1-.6 1.7-.9l.2-.1 2.3-1.2-1 .5.5-.3c.8-.4 1.6-.8 2.4-1.3.5-.3 1.1-.7 1.6-1 1.1-.6 2.1-1.3 3.2-1.9l.7-.4-1 .5c.5-.3 1-.5 1.5-.8l-1 .5.9-.5c.6-.3 1.2-.7 1.8-1s1-.7 1.5-1a4.18 4.18 0 0 0 .9-5.9c-.8-1.1-2-1.7-3.4-1.7-.7.4-1.5.6-2.4 1.1h0zm-17.2 9.8h0z"/><path d="M219.3 110.8l-2.8 1.8-2.4 1.6-.8.5-3.5 2.2-3.5 2.3.1-.1-.1.1-.2.1.1-.1-3.3 1.9-3.6 2.3-.3.2-.1.1h.1l-4.8 3.3-2.2 1.6-2.2 1.5-3.7 2-4.1 1.9c-.7.3-1.4.7-2 1l-2.1 1.1-4.2 2.1-3 1.8.3-.2-.9.6.1-.1-2.7 1.8c-.2.1-.4.2-.5.4l-.2.1.1-.1-.1.1c-.1 0-.2.1-.2.1l-3.3 2c-1.1.7-2.4 1.7-3.5 2.6-.6.5-.7 1.5-.2 2.1s1.5.7 2.1.2l3.5-2.6 2.5-1.5c.3-.1.5-.3.7-.5l.2-.1c.1-.1.2-.1.4-.2l2.9-1.9-.1.1.2-.1.1-.1-.1.1.6-.4 1.8-1.1 6.3-3.3c1.3-.8 2.8-1.4 4.2-2.1l4.1-2c2-1.1 3.8-2.3 5.6-3.6l5.5-3.9.6-.4h-.1.1l.1-.1h-.1l-.3.2.3-.2.6-.3 5.3-3.2c1.1-.6 2.1-1.3 3.1-1.9l2.6-1.7 3.4-2.1h-.1l4.2-2.7.9-.6c.4-.2.6-.5.8-.8.1-.4.1-.8-.1-1.2s-.5-.6-.9-.8c-.2-.1-.4-.1-.6-.1s-.4 0-.6.3h0zm-18 14.9l-.2.1-.1.1.3-.2zm0 0l-.1.1.1-.1zm-.3.2l-.2.1.2-.1zm-30.4 14.2h0zm-1.8 4.8h0zm-3.6 2.2h0zm6.9-4.4h0zm28.6-16.6h0zm-1.4-2.6h0zm.2-.2l-.2.1.2-.1zm.2-.1h0zm6.7-4.1h0zm26.4-5.7l-1.2.6c-.4.2-1 .7-1.4 1l-2.6 1.8-2.5 1.8-2.5 1.7-2.6 1.7.3-.2-4 2.3c-.6.4-1.3.7-1.9 1.1l-2 1.2-4.2 2.8-3.6 2.6-3.9 2.6-5 3-2.5 1.4-3 1.9.3-.2-7.6 5-4.5 2.8c-.4.2-.6.5-.8.9-.3.8.1 1.6.9 1.9.4.2.8.2 1.1 0l6.1-3.8 5.7-3.8 1-.6 7.8-4.6 4.1-2.6 3.9-2.7 2.5-1.8c.8-.6 1.6-1.1 2.5-1.6l2.1-1.3 2.3-1.4 2.4-1.4 2.5-1.6-.3.2 3-1.9c1-.6 1.9-1.3 2.9-2l2.6-1.9 2.4-1.7 1.1-.5c.8-.3 1.1-1.2.7-2-.3-.5-.8-.9-1.4-.9-.4 0-.6.1-.7.2h0zm-10.2 6.8l-.2.1.2-.1zm-9.6 9.3l-.2.1.2-.1zm-21.7 14l-.2.1.2-.1zm-8.6 2.2l-.1.1.1-.1zm65.9-28.9c-.6.3-1.1.7-1.7 1.1l-2.9 1.7-2.9 1.5-5.9 3.6-7.4 4.6-3.1 2-3.2 2.1-6.1 4.1-6 3.8-5.6 4-3 1.8-3.4 2.2c-.3.2-.5.6-.5 1s.1.8.4 1.1.6.5 1 .5.8-.1 1.1-.4l2-1.3c.9-.6 1.8-1.1 2.8-1.6 1.1-.6 2.1-1.3 3.2-2s1.9-1.4 2.8-2.1 1.8-1.2 2.7-1.8l3.4-2.1 4.1-2.7 7-4.7 3.5-2.2 3.8-2.3 4.2-2.7 5-2.8 5-2.9-.1.1.2-.2 1-.6c.4-.2.6-.5.8-.8.1-.4.1-.8-.1-1.2s-.5-.6-.9-.8c-.2-.1-.4-.1-.5-.1-.3 0-.5 0-.7.1h0zm-47 33.2c-.1.1-.1.1-.2.1l.2-.1zm47.3-29.9l-.1.1.1-.1zm15.6.3c-.7.3-1.4.7-2.1 1.1s-1.3.7-2 1l-4.2 2c-1.4.6-2.7 1.3-4 2l-4.3 2.8c-1.2.8-2.3 1.7-3.4 2.6s-2.3 1.6-3.5 2.4l-4.1 2.8-3.3 2.3-5 3.2-4.8 3.3a27.55 27.55 0 0 1-2.9 1.7c-1.2.7-2.5 1.2-3.7 1.8-.7.4-1.1 1.3-.7 2s1.3 1.1 2 .7l3.9-1.9 3.7-2.2 3.4-2.4c1.1-.8 2.2-1.5 3.4-2.2-.1.1-.2.1-.3.2l4.1-2.6 4.4-3.1 3.8-2.6 3.8-2.8 3.2-2.3c1.1-.8 2.2-1.3 3.3-1.9s2.4-1.1 3.6-1.7l3.4-1.6c1.1-.5 2.3-1.3 3.5-1.9.7-.4 1.1-1.2.7-2-.3-.5-.8-.9-1.4-.9-.1 0-.3.1-.5.2h0zm-12.2 9.7l-.2.1.2-.1z"/><path d="M277.6 124.3c-.7.3-1.4.8-2.1 1.2l-2 1.1c-.7.3-1.4.6-2 1s-1.3.7-2 1.1c-2.7 1.7-5.4 3.5-7.8 5.6l-4.7 3.4-3.9 2.3-4.2 2.5-8.3 5.3-6.9 5c-.6.5-.7 1.5-.2 2.1.3.3.6.5 1.1.5.4 0 .8-.1 1.1-.4l5.5-4 5.4-3.6-.1.1.1-.1.2-.1-.2.1 3.9-2.3 4.3-2.5 4.2-2.5c1.3-.9 2.7-1.8 3.9-2.9s2.4-1.9 3.6-2.8l3.3-2.3 2-1.2c.7-.4 1.5-.8 2.3-1.1l2.3-1.3 2.4-1.4c.8-.4 1.1-1.2.7-2s-1.2-1.1-1.9-.8h0zm-7.6 7.6h0zm-23.4 15.5h0zM25.1 39.5l-7.4 2.1-3.8 1.3c-1.1.5-2.2 1.2-3.3 1.8-.8.5-1.1 1.6-.6 2.4s1.6 1.1 2.4.6c.6-.3 1.2-.7 1.9-1.1l1.5-.8c1.6-.6 3.2-1.1 4.8-1.5l5.4-1.5c.9-.2 1.5-1.2 1.2-2.1-.2-.8-.9-1.3-1.7-1.3-.1.1-.2.1-.4.1h0zm8.7 7.9l-2.8.7-2.7.9-5.4 2.2c-1.8.8-3.3 1.6-4.9 2.5l-4.6 2.9c-.6.4-1.1.9-1.6 1.4-.7.7-.6 1.8.1 2.5a1.75 1.75 0 0 0 2.5 0l.7-.6a36.56 36.56 0 0 1 4.9-3.1l5.7-2.9 4.2-1.7c1.6-.6 3.3-1 5-1.4.9-.3 1.5-1.2 1.2-2.2-.2-.8-.9-1.3-1.7-1.3-.2 0-.3 0-.6.1h0zm-8.2 6.5l-.4.1.4-.1zm2.5 9.7a34.69 34.69 0 0 0-4.5.6c-.9.3-1.8.6-2.6 1.1l-1.8.9L12 70c-.8.5-1.1 1.6-.6 2.4s1.6 1.1 2.4.6l2.4-1.4 7.5-3.9c.6-.2 1.1-.4 1.7-.4L28 67c.5 0 .9-.2 1.2-.6a1.75 1.75 0 0 0 0-2.5c-.3-.3-.7-.5-1.2-.5l.1.2zm-2.8 3.9h0zm6.6 9.8a171.69 171.69 0 0 1-10.8 3.9L16 83.1s-3.2 1.6-4.6 2.7a28.48 28.48 0 0 0-2.6 2.3c-.7.7-.6 1.8.1 2.5s1.8.6 2.5-.1c.5-.6 1.1-1.1 1.7-1.6.7-.6 1.5-1.1 2.3-1.6l2.3-1.1c2.4-1 4.9-1.8 7.4-2.6 1.3-.4 2.5-.9 3.8-1.4l4-1.5c.4-.2.8-.4 1-.8.5-.8.2-1.9-.7-2.4h0c-.3-.1-.6-.2-.9-.2-.2-.1-.3-.1-.4 0h0zm294.7-15.4c0 1 .8 1.7 1.8 1.7s1.9.1 2.9.2l4.3.6 5 1.1c.9.2 1.9-.3 2.1-1.3.2-.9-.3-1.9-1.3-2.1h0l-6.3-1.4c-1-.2-2-.3-3-.4a23.08 23.08 0 0 0-3.7-.3h0c-1 .1-1.8.9-1.8 1.9h0zm4.3 1.9h0zm-5.4 8.3c-.4.2-.7.6-.8 1.1-.2.9.3 1.9 1.3 2.1h0l4 .7 3.7.6 3.8.9c1.3.3 2.7.8 4 1.2.9.3 1.9-.3 2.2-1.2s-.3-1.9-1.2-2.2h-.1l-4-1.2c-1.3-.4-2.5-.6-3.7-.9s-2.5-.4-3.8-.6l-4-.7h-.5c-.3 0-.6.1-.9.2h0zm-8.2-25.9c-.3.3-.5.8-.5 1.2 0 .5.2.9.5 1.2s.6.4 1 .5h.4l2.6.2c3.1.4 6.1.9 9.1 1.7l4.7 1.2c1.5.4 3.3 1.1 4.9 1.7.5.1.9 0 1.3-.2s.7-.6.8-1.1 0-.9-.2-1.3-.6-.7-1.1-.8l-5.5-1.9-5-1.3c-1.6-.4-3.5-.7-5.3-1l-5.4-.7h-.4l-.8-.1h-.1c-.3.2-.7.4-1 .7h0zm1.8-.5h0zM331.2 96c-.2.9.3 1.9 1.3 2.1 2 .5 3.9 1.2 5.8 1.8.9.2 1.9-.3 2.1-1.3.2-.9-.3-1.9-1.3-2.1l-5.8-1.8h-.4c-.7 0-1.4.5-1.7 1.3zm-22.7 12c0 .5.2.9.5 1.2s.8.5 1.2.5l.8.1h.3l3.2.6 3.6.8c2.2.5 4.4 1.3 6.5 2.1l5 2.1 2.4 1 2.7 1 1.7.6 2.3.7c.9.3 1.9-.3 2.2-1.2s-.3-1.9-1.2-2.2h-.1l-3.3-1-2.6-1-10.2-4.2-2.4-.8-2.5-.7-5.1-1.1-1.7-.3h-.4c-.4 0-.8-.1-1.2-.1h-.1c-.9.1-1.6.9-1.6 1.9h0zm2.1 1.8h0zm23.8 7.6l.1.1-.1-.1zm-22.9-11h.3l-.4-.1.1.1z"/><path d="M73.5 82.1l-8.9-33.6c-.1-.5.1-.8.5-.9l4.1-1.1c.5-.1.8.2.9.5L79 80.7c.1.5-.1.8-.5.9l-4.1 1.1c-.5.1-.8-.1-.9-.6zm12.8-3.4l-4.7-23.5c-.1-.5.1-.8.5-.9l3.9-.8c.5-.1.8.1.8.7l.8 3.1c.9-2.9 3-5.3 7-6.1 5.3-1.1 9.8 1.8 11.1 8.4l2.9 14.6c.1.5-.2.8-.6.9l-4.1.8c-.5.1-.8-.2-.8-.7l-2.8-13.6c-.8-4-3.1-5.8-6.7-5-3.6.6-5.6 3.4-4.8 7.3l2.8 13.6c.1.5-.1.8-.5.9l-4.1.8c-.3.3-.6 0-.7-.5zm28.2-8c-.3-.3-.5-.9-.1-1.4l1.1-2.1c.3-.5.8-.5 1.2-.3 2.1 1.4 4 2.2 6.3 1.9s3.7-1.5 3.5-3.5c-.2-1.8-1.5-2.5-3.7-3.1l-3.3-.8c-3.4-.9-6.1-2.6-6.5-6.1-.6-4.6 3-7.7 7.4-8.3 3.1-.4 6.1.5 8.5 2.7.3.3.3.8.1 1.1l-1.4 2.1c-.4.5-.7.5-1.2.2-1.8-1.3-3.4-1.8-5.1-1.6-2 .2-3.2 1.4-2.9 3.1.2 1.8 1.6 2.4 3.8 2.9l3.2.8c3.5.9 6.3 2.6 6.8 6.4.6 5-3.3 8.1-8.1 8.7-4.3.7-7.6-.9-9.6-2.7zm26.3-5.6L139.7 50l-3.3.2c-.5 0-.7-.3-.7-.8l-.2-2.9c0-.5.2-.8.7-.8l3.3-.2-.4-6c0-.5.2-.8.7-.8l4.2-.3c.5 0 .7.3.7.8l.4 6 4.1-.3c.5 0 .8.3.8.8l.2 2.9c0 .5-.3.8-.8.8l-4.1.3 1 14.5c.1 1.7 1 2.3 2.4 2.3.4 0 1-.2 1.6-.2.6-.1.9.1.9.6l.2 2.8c.1 1-2.2 1.5-3.7 1.6-3.5.2-6.5-1.4-6.9-6.2zm15.1-7.9c0-7.5 4.9-13.4 12.3-13.4 4.2 0 7.2 1.9 9 4.8l.1-3.4c0-.5.3-.8.8-.7h3.8c.5 0 .7.4.7.8l.1 23.9c0 .5-.3.8-.8.7h-3.8c-.5 0-.7-.4-.7-.8l-.1-3.4c-1.8 3-4.8 4.8-8.9 4.8-7.6 0-12.5-5.7-12.5-13.3zm21 0c0-4.9-3.2-8.2-7.7-8.3-4.6 0-7.9 3.4-7.8 8.3 0 4.9 3.4 8.2 7.9 8.2s7.6-3.3 7.6-8.2zM191 78.3c-.4-.4-.5-.9-.3-1.3l1.4-2.1c.3-.4.8-.5 1.2-.2 2.1 1.5 4.4 2.3 6.9 2.5 4.2.4 8.4-1.2 8.9-6.6l.3-3.4c-2 2.5-5 4-9 3.6-7.2-.6-11.7-6.3-11-13.8.7-7.6 6-12.4 13.1-11.8 4.1.4 6.9 2.2 8.4 5.2l.3-3c.1-.5.4-.7.8-.7l3.7.1c.5.1.7.4.7.9l-2 23.5c-.7 8.7-7.8 11.3-14.2 10.7-3.7-.4-7.1-1.7-9.2-3.6zm18.9-19.6c.4-4.7-2.5-8.1-6.9-8.4-4.3-.4-7.9 2.4-8.3 7.1s2.7 8 7 8.4c4.5.2 7.8-2.5 8.2-7.1zm11.4 13.9L225 49c.1-.5.4-.7.9-.7l3.9.6c.5.1.7.4.6 1l-.3 3c1.3-2.4 3.3-4.1 6.3-3.6 1.1.1 1.8.6 2.3.9.3.3.3.6.4 1.1l-.5 3.2c-.1.6-.5.6-1.1.5-.6-.3-1.1-.4-1.8-.5-3.9-.6-6 2.3-6.5 5.6l-2.1 13.5c-.1.5-.4.7-.9.7l-4.1-.7c-.6-.3-.8-.5-.8-1zm20.6-9c1.7-7.3 7.8-12 14.9-10.4 4.1 1 6.6 3.4 7.7 6.7l.8-3.4c.1-.4.5-.7.9-.6l3.7.8c.4.1.6.5.6.9L265.1 81c-.1.5-.5.7-.9.6l-3.7-.8c-.5-.1-.6-.5-.6-1l.6-3.3c-2.5 2.4-5.8 3.6-9.9 2.7-6.8-1.5-10.4-8.2-8.7-15.6zm20.6 4.7c1.1-4.9-1.3-8.7-5.7-9.8-4.5-1-8.4 1.5-9.6 6.3-1.1 4.8 1.4 8.7 5.9 9.8 4.5.9 8.2-1.5 9.4-6.3zm9.6 14.5l7.6-22.7a1 1 0 0 1 1-.6l3.8 1.3c.4.2.6.5.5 1l-.7 2.6c2-1.8 4.7-2.9 8.1-1.7 3.2 1.1 5.2 3.4 5.4 6.8 2.2-2 5.1-3.3 9-1.9 5.1 1.7 7.1 6.1 4.9 12.5l-4.8 14.3a1 1 0 0 1-1 .6l-4-1.3c-.4-.2-.6-.6-.5-1l4.4-13.3c1.3-3.8.5-6.3-2.5-7.4-3-1-5.7.4-6.9 4.2L292 89.6a1 1 0 0 1-1 .6l-3.9-1.3c-.5-.2-.6-.6-.5-1l4.4-13.3c1.3-3.8.3-6.3-2.6-7.4-3-1-5.5.5-6.8 4.2l-4.4 13.3a1 1 0 0 1-1 .6l-4-1.3c0-.4-.3-.8-.1-1.2z" enable-background="new"/></svg>