<svg xmlns="http://www.w3.org/2000/svg" viewBox="0 0 260.67 261.95"><defs><style>.cls-1{fill:#fff;}</style></defs><g id="Layer_2" data-name="Layer 2"><g id="Layer_1-2" data-name="Layer 1"><path class="cls-1" d="M260.62,158c-.06-.8-.15-1.48-.25-2.41a24.07,24.07,0,0,1-.27-2.83v-5.41c0-1.14-.1-2.29-.18-3.41,0-.63-.12-1.27-.12-1.9-.07-1.72-.12-3.59-.07-5.89a52.24,52.24,0,0,0-.22-6,33.78,33.78,0,0,1,.07-5.69l.08-1.1a35.32,35.32,0,0,0,.18-4.11c0-1.06-.14-2.17-.25-3.17-.09-.84-.18-1.68-.23-2.52-.13-2-.13-4-.13-5.89,0-1.39-.07-2.77-.07-4.15l-.05-1.85c-.05-3-.25-6-.44-8.9l-.15-2.43c-.15-1.91-.13-3.91-.15-5.74s0-3.71-.14-5.57l-.06-1c-.08-1.51-.16-3.07-.33-4.59-.13-1.16-.28-2.31-.43-3.47l-.27-2.08c-.08-.71-.18-1.42-.28-2.12-.14-1-.28-2-.38-3s-.16-2.1-.21-3.1c0-.64-.11-1.29-.11-1.94-.06-1-.18-1.92-.28-2.92-.08-.64-.14-1.21-.21-1.92s-.11-1.36-.15-2.12a17,17,0,0,0-.16-2.28c-.14-.72-.3-1.44-.46-2.16-.2-.92-.41-1.86-.57-2.8l-.09-.53a37.07,37.07,0,0,0-1.07-5l-.23-.76c-.43-1.35-.87-2.76-1.2-4.16-.22-.91-.45-1.83-.76-2.83a16.39,16.39,0,0,0-.63-1.64,43.15,43.15,0,0,0-4.26-7.92c-.7-.87-1.31-1.57-1.94-2.23a21.73,21.73,0,0,0-2-1.71l-.86-.64c-.76-.55-1.53-1.11-2.26-1.71-.43-.35-1-.86-1.23-1.1s-.52-.48-.79-.71a17.84,17.84,0,0,0-2.73-1.62,32.06,32.06,0,0,0-4.71-1.35c-1.69-.35-3.44-.71-5.15-1.12l-.59-.14c-1.29-.29-2.66-.62-4-1-.65-.2-1.22-.4-2-.65s-1.56-.51-2.36-.73A85.83,85.83,0,0,0,205,3.9c-1.66-.25-3.33-.57-4.95-.87s-3.29-.61-4.94-.85H195a106.39,106.39,0,0,0-11-.61h-.8c-3.14,0-6.5-.07-10.9-.22-2.13-.08-4.1-.19-6-.35-1.53-.13-3.53-.3-5.53-.3h-.44c-1.39,0-2.84,0-4.17.07s-2.67.06-4,.06h-2.48c-1.45-.06-2.9-.15-4.35-.24C143.08.45,140.79.3,138.54.3H122.16l-4.5-.17h-1.1C113.91,0,111.22,0,108.62,0h-4.45C101.6,0,99,.12,96.46.24L93.6.37c-4.11.17-7.81.34-11.51.77a52.88,52.88,0,0,1-6,.43h-2c-1.29,0-2.66,0-4,.11-3.11.17-6.44.5-10.82,1.07-1.94.3-3.43.59-4.84.94s-3.23.7-5.23,1l-.09-.07-.57.08L46.28,5a45.18,45.18,0,0,0-9,2.43C36.11,8,35,8.65,33.89,9.28l-1.5.85a52,52,0,0,1-5.59,2.53l-.53.22c-.88.39-1.61.74-2.33,1.14-.93.53-1.83,1.14-2.7,1.73l-.33.22L18,18c-.41.44-.83.92-1.24,1.44a15.52,15.52,0,0,0-1.44,2.21,22.8,22.8,0,0,0-1,2.19,43.86,43.86,0,0,0-1.69,5c-.32,1.17-.7,2.34-1.06,3.47l-.4,1.25a44.77,44.77,0,0,0-1.32,4.83c-.13.69-.26,1.34-.38,2-.2,1.07-.4,2.14-.63,3.2s-.48,2.11-.73,3.17c-.51,2.17-1,4.41-1.38,6.65l-.13.9c-.36,2.37-.74,4.82-1.06,7.23q-.18,1.58-.39,3.15v-.3c-.2,1.89-.38,3.78-.56,5.68l-.1,1c-.23,2.4-.37,4.38-.43,6.24,0,1.35-.12,2.68-.2,4-.14,2.25-.23,4.58-.23,6.87,0,.71.06,1.41.06,2.11.06,1.26.09,2.44.06,3.84s-.1,2.79-.18,4.19c0,.67-.1,1.33-.1,2,0,.94-.09,1.87-.14,2.81-.06,1.19-.17,2.53-.17,3.58v5.81c-.05,2.14-.12,3.91-.21,5.58v.57c0,.87-.07,1.67-.15,2.62s-.2,1.91-.32,2.86l0,.47a58.66,58.66,0,0,0-.59,7.6v.75a32.16,32.16,0,0,1,0,3.54c0,.57-.08,1-.13,1.71s-.14,1.44-.14,2.16c-.07,1.11-.13,2.22-.13,3.33,0,1.39-.08,2.84-.19,4.26-.05.74-.11,1.49-.17,2.23C.88,152.05.7,154,.7,155.92c0,2.14-.19,4.25-.32,5.85l-.07.83c-.13,1.58-.28,3.21-.28,4.82v5.69c-.06,2.15,0,3.95.09,5.67.07,1,.11,2.19.14,3.09s.11,1.8.11,2.7c.09,1.56.26,3.13.43,4.65l.08.75c.15,1.36.22,2.7.29,4,0,.63.11,1.25.11,1.88.1,1.55.24,3.08.43,4.55a29.05,29.05,0,0,0,1.19,5.14c.62,1.78,1.21,3.68,1.83,5.78.27.91.51,1.69.83,2.73s.64,2.08.94,3.13c.18.6.34,1.2.49,1.81.3,1.11.6,2.25,1,3.35.29.63.59,1.19.92,1.88s.68,1.39,1,2.09a23.49,23.49,0,0,0,2.17,3.85,53.34,53.34,0,0,0,5.45,6.28c1.1,1.05,2.21,2.07,3.33,3.08l.29.26c.93.86,1.93,1.75,2.93,2.57a15.94,15.94,0,0,0,2.94,1.7l.21.09c1.31.58,2.65,1.19,3.93,1.89.74.4,1.46.86,2.16,1.3l1.25.78a27.46,27.46,0,0,0,2.83,1.39c1,.39,1.94.77,2.86,1.15A67.93,67.93,0,0,0,52,254.12c3.17.66,6.44,1.08,9.6,1.5l1.06.14c5.32.61,10.53,1.18,15.81,1.42,1.36.06,2.64.09,4,.12s2.68.05,4,.11c2.3.11,4.73.34,7.87.73,1.56.19,3,.41,4.56.64l3,.43c2.57.27,5.18.39,7.71.51l3.12.16q1.77.11,3.54.24c2.37.17,4.83.35,7.25.35h5.91c1.62,0,3.25.15,4.83.27l1.05.07c3.61.27,7.26.45,10.86.45,4.4,0,7.77.17,11,.41,2.39.19,4.56.28,6.63.28,1.56,0,3.1-.05,4.56-.16,1.64-.12,3.28-.27,4.91-.42h.49c1.52-.14,3-.19,4.52-.24h1.1c2-.08,4.2-.19,6.13-.3s3.86-.22,5.79-.29c3.67-.15,7.4-.64,10.6-1.08,1.32-.2,2.63-.42,4-.64l2.59-.43,2.21-.33c1.63-.24,3.31-.48,4.94-.84a43.58,43.58,0,0,0,5.81-1.63c.64-.25,1.28-.48,1.92-.71,1-.37,2-.74,3-1.14a43.94,43.94,0,0,0,4.85-2.77l1.19-.74c1.27-.79,2.59-1.61,3.83-2.51,1.34-1.09,2.64-2.28,3.89-3.44.69-.6,1.34-1.21,2-1.79,1-.91,2-1.91,3.09-3.05l.09-.11c.9-1,1.83-2,2.67-3,.62-.82,1.14-1.56,1.62-2.28l.29-.45a27.3,27.3,0,0,0,1.62-2.63c.56-1.07,1-2.19,1.49-3.28l.1-.22.66-1.53.57-1.28c1.26-3.22,2.23-6.5,2.94-9,.48-1.68.86-3.2,1.13-4.57s.47-2.75.64-4.05c.21-2.08.29-4.22.29-6.22,0-1.33.1-2.44.21-3.5s.27-2.06.42-3.06l.16-1a52.3,52.3,0,0,0,.26-5.87v-2.12c0-1.36-.05-2.76,0-4.14,0-.86.08-1.72.14-2.58.06-1.07.15-2.19.15-3.28,0-2.16-.11-4.38-.25-6.33a38.27,38.27,0,0,1,.14-5.46A37.53,37.53,0,0,0,260.62,158ZM186.4,26.45a4.39,4.39,0,0,1,2.85-1.19c1.19-.13,2.42-.19,3.61-.25.76,0,1.53-.07,2.29-.13l1.77-.13c1.26-.1,2.52-.2,3.77-.26h.24c1.13,0,2.3-.11,3.46-.11l.09,0c.85,0,1.64,0,2.4.1,1.89.16,3.79.41,5.64.65l.46.06c1.63.17,3.29.28,4.9.38a69.55,69.55,0,0,1,8.52.92c.7.13,1.39.29,2.08.45l.82.19.63.13.82.18A5,5,0,0,1,232,28a4.14,4.14,0,0,1,1.22,1.21l.12.16a4.53,4.53,0,0,1,.57,2,4.87,4.87,0,0,1,0,1.08v.34c-.06.57-.12,1.13-.23,1.69-.06.33-.12.66-.19,1-.1.54-.2,1-.28,1.54a22.83,22.83,0,0,0-.14,3.41v.29c.06,1.28.13,2.59.13,3.9V45.7c0,1,0,2,0,3.15s-.14,2.33-.27,3.46l-.06.59A38.82,38.82,0,0,0,232.6,57a20.25,20.25,0,0,0,.11,2.46,17.15,17.15,0,0,1,.12,1.76,35.46,35.46,0,0,1-.26,5.64c-.08.66-.19,1.33-.29,2-.07.45-.15,1-.22,1.45v.11a9.19,9.19,0,0,1-.53,2.59,6,6,0,0,1-1.34,2.24,6.06,6.06,0,0,1-1.31,1,8,8,0,0,1-2.67.94l-.41.07a15.25,15.25,0,0,1-2.6.31h-.34c-.53,0-1-.1-1.53-.1-.76-.07-1.54-.13-2.32-.13h-1.6c-1.14.05-2.32.1-3.47.1h-.38c-2.7,0-5.44-.25-8.09-.48l-1.61-.13-1.79-.14c-1.1-.09-2.2-.17-3.29-.28a52.88,52.88,0,0,1-6-1l-1.45-.27-1-.18a6.35,6.35,0,0,1-2.27-.8,7.86,7.86,0,0,1-1.15-.92,4.8,4.8,0,0,1-1-1.78,6.64,6.64,0,0,1,.1-3.67v-.2a13.41,13.41,0,0,0,.35-1.81c.05-.58.05-1.15.05-1.73v-1c0-1,.15-2.06.3-3.08.11-.8.27-1.67.4-2.39s.26-1.44.37-2.16c.11-1.22.17-2.45.23-3.65l.06-1.22c.05-.94.16-1.94.26-2.94.08-.73.16-1.47.22-2.21s.13-1.56.21-2.34c.11-1.12.23-2.27.28-3.41,0-.79.1-1.59.1-2.38,0-1.11.07-2.21.14-3.31a3.31,3.31,0,0,1,.08-.55,4.09,4.09,0,0,1-2.61-7ZM86.35,122.31c.33-1.88.76-3.81,1.27-5.74a33.57,33.57,0,0,1,2.06-5.93,38.16,38.16,0,0,1,2-3.59l.3-.48c.72-1.19,1.59-2.59,2.53-3.9,1.16-1.61,2.45-3.15,3.68-4.61s2.34-2.72,3.41-3.83a32.67,32.67,0,0,1,4.92-4.09,20.25,20.25,0,0,1,5.5-2.75,24.12,24.12,0,0,1,3.13-.74c.54-.1,1.09-.2,1.62-.32.76-.17,1.5-.37,2.25-.57.93-.25,1.86-.51,2.86-.7a33.46,33.46,0,0,1,6.06-.82h2.7c1,0,2.06.05,2.91,0s1.7,0,2.54,0l0,0a23.42,23.42,0,0,1,3.45.22,47.62,47.62,0,0,1,9.1,2.46,3.81,3.81,0,0,1,2.06-.62,3.76,3.76,0,0,1,1,.13l.95.39a12.12,12.12,0,0,1,1.24.64l.18.1.59.33a9.33,9.33,0,0,1,1,.53,27.57,27.57,0,0,1,2.61,1.81l.16.13-.14-.14.45.34a11.58,11.58,0,0,1,2.12,1.9c.45.56.88,1.14,1.31,1.72l.36.48c1,1.22,2.1,2.4,3.19,3.51l.84.84c.73.72,1.48,1.47,2.14,2.26a20.93,20.93,0,0,1,2.85,4.68l.1.21a28,28,0,0,1,1.76,4.41c.18.64.4,1.33.57,1.89s.35,1.12.51,1.69a36.64,36.64,0,0,1,.91,5c.18,1.45.37,2.94.44,4.45a33.14,33.14,0,0,1-.18,4.88c-.19,1.73-.42,3.65-.73,6a29.09,29.09,0,0,1-1.07,5.05,63.29,63.29,0,0,1-2.34,6.24c-.64,1.43-1.46,3-2.46,4.84a29.19,29.19,0,0,1-2.47,3.58l-.6.79c-.36.46-.71,1-1.07,1.46a35.29,35.29,0,0,1-2.84,3.5,18.92,18.92,0,0,1-1.58,1.39l-.35.28c-1,.8-2,1.58-3,2.31a34.6,34.6,0,0,1-4.58,2.89A60.15,60.15,0,0,1,142.26,171a34.4,34.4,0,0,1-9.84,1.85,16,16,0,0,1-1.7-.08,33,33,0,0,1-6-.95c-1.4-.42-2.79-.92-4.13-1.42l-.47-.17-2.1-.75a36.7,36.7,0,0,1-8.55-3.84c-1.56-1-3.1-2.13-4.63-3.21-.8-.56-1.61-1.11-2.42-1.65l-2.26-1.55a40.58,40.58,0,0,1-5-4.07,19.67,19.67,0,0,1-1.76-2,17.28,17.28,0,0,1-1.94-3,49.79,49.79,0,0,1-2-5.12l-.31-.88-.29-.8a23.06,23.06,0,0,1-1-3.45q-.47-2.53-1-5.05a45.81,45.81,0,0,1-1-6.48A25.12,25.12,0,0,1,86.35,122.31Zm153.48,1.3-.05.76c-.11,1.83-.34,3.63-.56,5.32-.14,1.38-.21,2.76-.21,3.93,0,.93-.09,1.86-.15,2.79,0,.74-.12,1.48-.12,2.23-.09,1.44,0,3,0,4.44v.63c0,1.31,0,2.62-.13,3.92l-.06,1c-.07.77-.07,1.54-.07,2.31a16,16,0,0,0,.1,1.7c0,.37.08.74.08,1.11.09.95,0,1.92,0,2.85,0,.54,0,1.08,0,1.61,0,1.37,0,2.81.17,4.52a26.35,26.35,0,0,1,.12,3.05v1.57c0,.81.1,1.63.17,2.44.08,1,.17,2,.17,3v10.36c0,.71.08,1.42.08,2.12a24.24,24.24,0,0,1,.08,2.75c0,1-.08,2.13-.14,3.13,0,.69-.12,1.39-.12,2.08-.08.85-.06,1.71-.08,2.56s-.05,1.59-.08,2.55-.13,1.92-.22,2.86c-.07.72-.18,1.44-.18,2.16-.14,2-.36,3.92-.55,5.38-.27,2.21-.52,4.06-.88,5.92a28.78,28.78,0,0,1-1.87,6c-.34.77-.72,1.62-1.26,2.62l-.25.48a17.1,17.1,0,0,1-1.13,2l-.24.35a9.1,9.1,0,0,1-1.6,1.95l-.14.13a15.84,15.84,0,0,1-1.81,1.36,23.16,23.16,0,0,1-3.14,1.5h-.1l-2.3,1-2.17,1c-1.36.61-2.76,1.25-4.17,1.81a40.45,40.45,0,0,1-5.48,1.61l-1.29.33a57.15,57.15,0,0,1-7,1.31c-.95.12-2,.21-2.85.29s-1.78.16-2.66.27c-1.43.22-3.13.46-4.88.57h-1.66c-.83,0-1.66-.06-2.48-.06h-1c-2.47-.08-5-.23-7.4-.37l-2.89-.17c-2.71-.18-5.45-.18-8-.18h-2.47c-1.55,0-2.95.07-4.55,0s-3.19-.07-4.79-.07c-2.24,0-4.26,0-6.19-.17-1.19-.06-2.37-.17-3.55-.27l-2.26-.18c-1.69-.13-3.49-.24-5.28-.24h-1.58c-1.53.07-3.05.07-4.58.07h-.69c-2.2,0-4.44-.19-6.59-.34-1.54-.11-3.13-.23-4.69-.29-1-.08-2.08-.08-3.08-.08l-2.46-.06c-2-.06-4-.21-6.36-.44a116.2,116.2,0,0,0-11.85-.75H92.07c-1,0-2,0-3-.1s-2-.11-3-.11H79.9c-1.73-.08-3.44-.08-5.16-.08H68.48l-1.78.06c-.78.06-1.56.06-2.34.06H63.09c-1.11-.06-2.24-.2-3.32-.33l-1.83-.2c-.87-.09-1.75-.16-2.63-.22-1.22-.1-2.49-.19-3.74-.35-4.12-.53-8.4-1.39-11.4-4.1a37,37,0,0,1-3.59-3.71A19.85,19.85,0,0,0,35.15,225c-.55-.57-1.12-1.16-1.63-1.78a20.94,20.94,0,0,1-2.42-3.94,31.18,31.18,0,0,1-1.31-3.23c-.18-.56-.37-1.05-.57-1.56a17.75,17.75,0,0,1-.95-2.55c-.1-.41-.2-.84-.27-1.23s-.14-.75-.25-1.17-.22-.76-.36-1.26-.29-1-.41-1.5a26.92,26.92,0,0,1-.51-3.57l-.06-.61c-.14-1.64-.29-3.34-.34-5V196c0-1,0-2-.12-3.12a42.33,42.33,0,0,1-.77-4.88c0-.41-.08-.82-.08-1.22-.05-.84-.11-1.7-.21-2.55V184c-.14-1.17-.29-2.38-.35-3.58-.07-.88-.07-1.77-.07-2.66v-1.4c0-1-.13-1.92-.22-2.92a11.11,11.11,0,0,1-.11-1.16,35.88,35.88,0,0,1-.17-4.19l.13-4c0-1.28,0-2.58.07-3.83v-7.59c0-1.14.08-2.32,0-3.47,0-.63-.11-1.25-.18-1.86a29.6,29.6,0,0,1-.24-3.26c0-.69.07-1.38.07-2.06a26.27,26.27,0,0,0,0-3.32,43.92,43.92,0,0,1,0-5.85,33.53,33.53,0,0,0,.06-5.11l-.06-.64a19,19,0,0,1-.14-2v-3.24c0-.73.08-1.46.08-2.19a28.56,28.56,0,0,1,.25-2.91c0-.39.07-.8.09-1.16s.07-.71.07-1.07c.07-.72.16-1.5.3-2.42v-1a9.5,9.5,0,0,1,.26-2.49,4.41,4.41,0,0,1,1-1.87,3.29,3.29,0,0,1,.94-2,3.19,3.19,0,0,1,2.08-1h.5c1.43.16,2.91.32,4.35.53l1.39.22,1.63.25a17.63,17.63,0,0,0,2.33.1,53,53,0,0,0,7-.59l.33-.05a23,23,0,0,1,2.86-.33h.8c.84,0,1.62,0,2.37.11l.67.07c1.83.18,3.71.37,5.57.5.66,0,1.39.1,2.11.1h.58c.36,0,.72-.09,1.09-.09a14.71,14.71,0,0,1,1.49-.1,4.57,4.57,0,0,1,2.67.69l.13.1A4,4,0,0,1,68,106.7a4.35,4.35,0,0,1,.59,2.11,6.8,6.8,0,0,1-.69,2.8,15.79,15.79,0,0,0-.8,2.94l-.09.55c-.17,1.12-.36,2.27-.59,3.4l-.12.59c-.52,2.49-1,5.07-1.43,7.64a63.52,63.52,0,0,0-.26,7.68,54,54,0,0,0,.44,6.66c.3,2,.66,4.08,1.09,6.39a45.27,45.27,0,0,0,2.16,7.92A58.84,58.84,0,0,0,74,165.6c.26.37.44.6.81,1.09s.8,1.05,1.09,1.49.59.88.88,1.33l.88,1.33.27.39c.88,1.38,1.88,2.81,2.88,4.17a57,57,0,0,0,4.58,4.48l1.74,1.61c.56.52,1,1,1.64,1.59s1.17,1.15,1.77,1.7c.79.74,1.65,1.49,2.57,2.22a53.23,53.23,0,0,0,6.93,4.13c2.31,1.16,4.4,2.21,6.6,3.16,1.72.65,3.54,1.27,5.4,1.83.93.28,1.85.53,2.8.8s2,.54,3,.84c.79.24,1.57.5,2.36.76,1,.36,2.08.71,3.08,1a40.38,40.38,0,0,0,4.88,1.06c1.08.1,2.18.15,3.36.15a68.7,68.7,0,0,0,8.35-.63,65.24,65.24,0,0,0,8.42-1.88q2.35-.71,4.68-1.46c.86-.31,1.86-.63,2.86-1a43.81,43.81,0,0,0,7.1-4.29l1.81-1.5c1.1-.92,2.24-1.88,3.42-2.76l1.86-1.36,2.56-1.89a32.69,32.69,0,0,0,4.42-4.14c.74-.86,1.5-1.8,2.14-2.64s1.3-1.68,2-2.49c1.16-1.39,2.4-2.72,3.6-4,1.46-1.57,3-3.19,4.37-4.88a36,36,0,0,0,3.66-6.67l.83-2,.18-.45c.82-2.09,1.57-4.31,2.36-7l.09-.32a51.49,51.49,0,0,0,1.4-5.6,14.09,14.09,0,0,0,.08-1.84v-.49c0-1.1.19-2.2.34-3.32l.1-1c.12-1.16.24-2.36.43-3.53l.16-.95c.17-1,.33-1.88.47-2.88a17.64,17.64,0,0,0,.1-3.91c-.13-1.26-.29-2.52-.44-3.77l-.12-.93c-.11-.72-.22-1.32-.37-1.92a20.11,20.11,0,0,0-.9-2.61,12.32,12.32,0,0,1-.79-2.43,10.28,10.28,0,0,1-.22-1.82l-.07-.68c-.08-.39-.18-.79-.27-1.19a8.48,8.48,0,0,1-.31-4c.87-3.4,5-3.48,7.8-3.53h2.22a77.84,77.84,0,0,0,8.36-.39,31.16,31.16,0,0,1,3.74-.23c.58,0,1.16,0,1.75,0a24,24,0,0,0,2.66.1c.93,0,1.79,0,2.61-.12,1.67-.17,3.3-.29,5-.37h.74a9.07,9.07,0,0,1,1.28-.06l.08-.09a4.93,4.93,0,0,1,1.62.23,6.46,6.46,0,0,1,2.85,1.73,7.45,7.45,0,0,1,1.73,3.21c.27,1.17.46,2.38.65,3.55.1.59.19,1.18.31,1.86a39.2,39.2,0,0,1,.8,7C240,120.8,239.91,122.23,239.83,123.61Z"/></g></g></svg>