<?xml version="1.0" encoding="utf-8"?>
<!-- Generator: Adobe Illustrator 24.1.3, SVG Export Plug-In . SVG Version: 6.00 Build 0)  -->
<svg version="1.1" id="Layer_1" xmlns="http://www.w3.org/2000/svg" xmlns:xlink="http://www.w3.org/1999/xlink" x="0px" y="0px"
	 viewBox="0 0 240.9 275.5" style="enable-background:new 0 0 240.9 275.5;" xml:space="preserve">
<style type="text/css">
	.st0{fill:#9E9E9C;}
	.st1{fill:#2C2C2C;}
	.st2{font-family:'GreycliffCF-Medium';}
	.st3{font-size:28px;}
</style>
<path class="st0" d="M42.7,4L42.7,4L42.7,4L42.7,4L42.7,4z"/>
<g id="Draw_Layer-2">
	<path class="st1" d="M121.7,41.3c-0.2,0-0.5,0-0.7,0h-0.2h-1.5h-0.5c-0.3,0-0.6,0-0.8,0.1h-0.2h-0.3h-0.8h-0.5h-0.5
		c-0.5,0-1,0.1-1.5,0.2c-0.2,0-0.5,0.1-0.7,0.1l-0.4,0.1c-0.4,0-0.8,0.1-1.1,0.2c-0.7,0.1-1.5,0.3-2.3,0.4c-1.5,0.2-2.9,0.5-4.4,0.8
		l-2.6,0.7c-0.7,0.1-1.2,0.2-1.7,0.3c-0.8,0.1-1.6,0.3-2.3,0.5l-2.3,0.5c-0.7,0.2-1.4,0.4-2.3,0.6l-2,0.7l-0.2,0.1l-1,0.4
		c-0.4,0.1-0.8,0.3-1.2,0.4s-0.8,0.3-1.3,0.4l-1,0.3c-0.8,0.3-1.6,0.6-2.4,0.9L84,49.4c-0.2,0.1-0.5,0.3-0.8,0.4
		c-0.6,0.3-1.1,0.5-1.7,0.8l0,0l-0.3,0.1c-0.6,0.2-1.2,0.5-1.8,0.7s-1.3,0.6-2.1,1.1C76,53.2,74.8,54,73.4,55l-0.3,0.2
		c-1.1,0.8-2.3,1.6-3.4,2.4c-0.6,0.5-1.2,1-1.8,1.4l-0.1,0.1c-0.5,0.4-1.1,0.9-1.8,1.5c-1.2,1-2.4,2.1-3.6,3.2l-1.5,1.5
		c-0.7,0.6-1.4,1.3-2,2c-0.4,0.4-0.8,0.9-1.2,1.3l-0.4,0.5c-0.6,0.7-1.1,1.2-1.5,1.7c-0.5,0.5-1.1,1.2-1.6,1.7
		c-0.5,0.5-1,1.2-1.5,1.9l-0.1,0.2l-0.3,0.5l-1.1,1.4c-0.4,0.5-0.8,1.1-1.2,1.9s-0.8,1.3-1.1,2c-0.2,0.4-0.4,0.8-0.6,1.2l-0.4,0.8
		c-0.2,0.4-0.4,0.8-0.6,1.1c-0.2,0.3-0.3,0.5-0.4,0.7l-1.1,2c-0.4,0.7-0.7,1.4-1,2.1c-0.1,0.3-0.3,0.6-0.4,0.9s-0.2,0.6-0.4,0.9
		c-0.3,0.7-0.6,1.4-0.9,2s-0.7,1.5-1,2.4c-0.1,0.4-0.3,0.7-0.4,1.1c-0.1,0.4-0.3,0.8-0.4,1.1c-0.3,0.7-0.5,1.5-0.8,2.1
		c-0.2,0.6-0.4,1.3-0.7,2.1c-0.2,0.5-0.3,1-0.4,1.4l-0.2,0.8c-0.2,0.7-0.4,1.5-0.6,2.3c-0.1,0.8-0.2,1.5-0.3,2.2v0.4v0.4v0.3l0,0
		l-0.1,0.4c-0.1,0.9-0.2,1.6-0.3,2.3c-0.1,0.7-0.1,1.4-0.2,2.2s-0.2,1.4-0.3,2.2c-0.1,0.8-0.2,1.6-0.2,2.4c-0.1,1.5,0,3,0.1,4.5
		c0.1,1.4,0.3,2.8,0.5,4.1l0.1,0.8l0.1,0.8c0.2,1.2,0.3,2.5,0.6,3.7c0.1,0.5,0.2,0.9,0.3,1.4c0.2,1,0.4,2.1,0.6,3.1
		c0,0.4,0.1,0.8,0.2,1.1c0.2,1.1,0.4,2.3,0.6,3.4c0.2,0.8,0.4,1.6,0.6,2.3c0.3,0.9,0.5,1.6,0.6,2.3l0.2,1.1c0.1,0.5,0.2,0.9,0.3,1.4
		l0.1,0.5c0.1,0.5,0.2,1.1,0.4,1.6c0.4,1.5,1,3,1.7,4.5c0.3,0.5,0.6,1.1,0.9,1.6L45,157c0.3,0.6,0.7,1.3,1.1,2
		c0.1,0.3,0.3,0.6,0.4,0.8l0.6,1.1v0.1c0.2,0.3,0.3,0.6,0.5,0.9s0.4,0.7,0.7,1c0.2,0.3,0.5,0.6,0.7,0.9l0.1,0.1
		c0.3,0.3,0.5,0.6,0.7,0.9c0.4,0.5,0.9,1,1.4,1.7l0.6,0.8c0.7,0.9,1.4,1.8,2.2,2.6s1.6,1.7,2.4,2.5l0.7,0.7c0.5,0.5,1,1.1,1.5,1.6
		c0.5,0.5,1,1,1.5,1.5c0.6,0.5,1.3,1,2,1.4c0.7,0.5,1.1,0.8,1.6,1.1c0.5,0.4,0.8,0.7,1.3,1.1c0.5,0.4,1,0.9,1.5,1.3l2,1.6l0.6,0.4
		l0.5,0.4c0.4,0.3,0.9,0.7,1.3,1c0.6,0.4,1.2,0.9,1.9,1.2c0.7,0.4,1.3,0.8,2.1,1.2h0.1c0.6,0.3,1.2,0.7,1.8,1c0.8,0.5,1.4,0.9,2,1.3
		l0.1,0.1c0.2,0.2,0.5,0.3,0.7,0.5l1,0.6c0.4,0.2,0.8,0.4,1.2,0.6l0.8,0.4c0.4,0.2,0.8,0.4,1.2,0.7s0.5,0.3,0.7,0.4
		c0.5,0.3,1.1,0.6,1.6,0.8c0.6,0.3,1.3,0.5,2,0.7l0.6,0.1l1.1,0.3c0.6,0.2,1.1,0.3,1.8,0.6c1.2,0.4,2.4,0.7,3.6,1
		c0.8,0.1,1.7,0.2,2.5,0.3l1.5,0.1l1,0.2c1.1,0.2,2.3,0.4,3.5,0.5l0.8,0.1l1.4,0.1c0.6,0.1,1.2,0.1,1.8,0.2l0.5,0.1
		c0.8,0.1,1.6,0.2,2.3,0.2c0.8,0.1,1.5,0.1,2.3,0.1h1.3c0.9,0,2,0,3.2,0h0.4h1.2h0.3c0.8,0,1.6-0.1,2.5-0.2c0.7-0.1,1.3-0.2,2.1-0.4
		c0.7-0.1,1.3-0.2,2-0.3l1-0.1c0.3,0,0.7,0,1.1-0.1c0.8-0.1,1.7-0.2,2.7-0.4c1.5-0.3,3-0.7,4.5-1h0.1l0.9-0.2c1.2-0.3,2.5-0.6,3.7-1
		c1.5-0.5,3-1.1,4.5-1.8l2.4-1.1l0.9-0.4c1-0.5,2-1,3.2-1.5l1.3-0.5c1-0.4,2-0.8,2.9-1.2c0.7-0.3,1.4-0.7,2-1c0.6-0.3,1.4-0.8,2-1.1
		c1.4-0.8,2.7-1.8,3.9-2.6c0.6-0.5,1.3-1,2-1.5h0.1c0.3-0.2,0.6-0.5,0.9-0.7l0.7-0.6l0.3-0.2c0.6-0.6,1.1-1.1,1.7-1.8
		c0.6-0.6,1-1.1,1.5-1.7c0.5-0.6,1.1-1.4,1.7-2.1l0.4-0.6c0.3-0.4,0.7-0.9,1-1.4c1.8-2.7,3.6-5.5,5.3-8.1c0.5-0.7,0.9-1.4,1.4-2.1
		c0.9-1.3,1.8-2.7,2.6-4.1c1.2-2.2,2.3-4.6,3.3-6.9c0.7-1.5,1.3-3,1.9-4.5l0.1-0.2c0.3-0.7,0.5-1.4,0.8-2c0.1-0.4,0.3-0.9,0.4-1.3
		l0.2-0.9l0.5-1.6c0.3-1,0.6-2,0.9-2.9c0.3-1,0.5-2.3,0.7-3.3l0.2-1.1l0.1-0.2c0.1-0.7,0.3-1.4,0.4-2.2s0.2-1.4,0.2-2.3
		c0.1-0.9,0.1-1.5,0.2-2.3s0.1-1.3,0.1-2.2c0-1.5-0.1-2.9-0.3-4.4v-0.1c0-0.2,0-0.5-0.1-0.7c-0.1-0.5-0.1-1-0.2-1.5
		c0-0.5-0.1-1.4-0.2-2.2c-0.1-0.8-0.3-1.9-0.4-2.7l-0.1-0.4c-0.1-0.7-0.2-1.4-0.3-2c-0.2-1.3-0.6-2.5-0.9-3.7l-0.1-0.5
		c-0.1-0.6-0.2-1.1-0.3-1.7c0-0.2-0.1-0.5-0.1-0.7c-0.1-0.7-0.3-1.4-0.5-2.3c-0.3-1.4-0.7-3-1.1-4.5c-0.3-1.1-0.8-2.3-1.1-3.3
		c-0.1-0.3-0.2-0.6-0.4-1c-0.1-0.3-0.2-0.7-0.4-1c-0.1-0.3-0.3-0.8-0.4-1.1c-0.2-0.7-0.5-1.4-0.9-2.3c-0.2-0.5-0.5-1-0.7-1.5
		l-0.2-0.5c-0.3-0.7-0.6-1.3-1-1.9s-0.5-1-0.8-1.5l-0.3-0.5l-0.2-0.4c-0.3-0.5-0.6-1.1-0.9-1.6c-0.3-0.5-0.6-1-1-1.5
		c-0.2-0.2-0.3-0.5-0.5-0.7l-0.5-0.6l0,0c-0.3-0.5-0.7-1-1.1-1.5l-0.6-0.7l-0.4-0.5c-0.4-0.6-0.8-1.1-1.1-1.7
		c-0.5-0.8-1.1-1.5-1.7-2.1c-0.3-0.4-0.6-0.7-0.9-1l-0.5-0.5c-0.5-0.5-1-1.1-1.4-1.6c-0.4-0.6-0.9-1.1-1.4-1.6
		c-0.5-0.5-0.9-0.9-1.5-1.5l-0.8-0.7l-0.8-0.8c-0.6-0.6-1.2-1.1-1.8-1.6l0,0l0,0l0,0l0,0l0,0l0,0l0,0l-1-0.7
		c-0.7-0.6-1.4-1.1-1.9-1.6c-0.7-0.6-1.5-1.2-2.3-1.8l-0.3-0.2c-0.1-0.1-0.3-0.2-0.4-0.3l0,0l0,0l0,0c-1.1-0.8-2.2-1.6-3.3-2.4
		l-0.1-0.1c-0.6-0.4-1.2-0.9-1.9-1.3c-0.4-0.3-0.9-0.5-1.4-0.7l-0.6-0.3c-0.4-0.2-0.8-0.5-1.2-0.7l-0.4-0.2c-0.3-0.2-0.6-0.4-1-0.6
		l-0.7-0.5l-0.1-0.1c-0.6-0.4-1.2-0.8-1.8-1.1l-2-1.1c-0.9-0.5-1.6-0.8-2.3-1.1c-0.7-0.3-1.2-0.5-1.8-0.8c-0.2-0.1-0.4-0.2-0.7-0.3
		c-0.7-0.3-1.4-0.6-2.2-0.9c-0.5-0.2-0.9-0.3-1.4-0.5l-0.6-0.2c-0.7-0.2-1.4-0.4-2.1-0.6c-0.6-0.1-1.1-0.3-1.7-0.4l-0.3-0.1
		l-0.4-0.1l-0.6-0.1l-0.7-0.2l-0.3-0.1c-0.6-0.1-1.1-0.3-1.7-0.4h-0.2c-0.8-0.2-1.5-0.3-2.3-0.4c-0.4-0.1-0.9-0.1-1.4-0.1H123h-0.4
		h-0.5h-0.2L121.7,41.3z M90.5,84.5c0.6-0.1,1.1-0.2,1.5-0.3c0.5-0.1,0.8-0.2,1.4-0.3c1.3-0.2,2.3-0.3,3.1-0.3h1.1h0.6
		c0.6,0,1.2,0,1.7-0.1c1.1-0.1,2.1-0.2,3.3-0.2h0.8c0.7,0,1.5-0.1,2.3-0.1h1.3c0.8,0,1.5,0,2.3,0h0.4h1.3h4.7c0.7,0,1.3,0,1.9,0.1
		c0.4,0,0.8,0,1.2,0.1h1.9c0.4,0,0.8,0,1.2,0h0.1c0.6,0,1.1,0,1.6,0.1c0.5,0.1,1.1,0.1,1.7,0.1c1.3,0,2.3,0,3.1,0h0.2
		c1,0,2.1,0.1,3.2,0.2l0,0c0.5,0.1,1,0.2,1.4,0.2l1.4,0.3c1,0.1,2,0.3,3,0.6c0.2,0,0.5,0.1,0.7,0.2l0.6,0.2c0.4,0.1,0.8,0.2,1.1,0.3
		h0.2c0.5,0.1,1,0.2,1.5,0.3c0.5,0.1,0.9,0.2,1.4,0.4c0.3,0.1,0.5,0.3,0.8,0.5l0.2,0.2l0.3,0.3c0.2,0.2,0.4,0.3,0.7,0.5l0.2,0.2
		c0.2,0.2,0.4,0.3,0.6,0.5c0.2,0.2,0.3,0.4,0.6,0.6c0.5,0.7,0.9,1.5,1.2,2.3c0.1,0.1,0.1,0.3,0.2,0.5c0.1,0.3,0.2,0.6,0.2,0.8
		c0.1,0.3,0.2,0.8,0.3,1.2l0.1,0.2c0.1,0.5,0.2,0.9,0.3,1.4v0.2c0,0.3,0.1,0.5,0.2,0.8l0.1,0.6c0,0.2,0,0.4,0,0.7c0,0.2,0,0.4,0,0.6
		s0,0.4,0.1,0.6c0.1,0.2,0.1,0.6,0.1,0.8s0,0.4,0,0.6s0,0.6,0.1,0.9c0.1,0.3,0.1,0.6,0.1,0.9c0,0.3,0.1,0.4,0.1,0.6l0.1,0.6
		c0,0.3,0.1,0.7,0.1,1c0,0.3,0.1,0.9,0.1,1.3v0.3c0,0.5,0,1.1,0,1.6c0,0.5,0,1.1,0,1.7v0.7c0,0.8,0.1,1.7,0.1,2.6v0.5
		c0,0.4,0,0.8,0,1.2s0,1.1,0,1.7c0,0.2,0,0.5,0.1,0.7c0.1,0.2,0.1,0.6,0.1,0.9c0,0.4,0,0.8,0,1.1v0.3c0,0.5,0,1.1,0,1.6
		c0.1,0.6,0.1,1.1,0.1,1.7c0,0.7,0,1.2,0,1.7c0,0.2,0,0.4,0,0.5s0,0.7,0.1,1v1.6c0,0.3,0,0.6,0.1,0.8c0.1,0.3,0,0.5,0.1,0.7
		c0,0.5,0,1.1,0,1.6c0,0.5,0,1,0,1.6c0,0.6,0.1,1.2,0.1,1.8c0,0.3,0,0.6,0,0.9v0.7c0,0.4,0,0.8,0,1.2v0.6c0,0.6,0,1.1-0.1,1.7v0.3
		c0,0.3-0.1,0.6-0.1,0.9c0,0.3,0,0.6,0,1c0,0.6,0,1.2-0.1,1.8c0,0.4-0.1,0.8-0.2,1.1c-0.1,0.4-0.2,0.8-0.3,1.3
		c-0.2,0.7-0.5,1.7-0.8,2.6l-0.2,0.4l-0.2,0.4l0,0c-0.1,0.3-0.3,0.6-0.4,0.9s-0.3,0.5-0.5,0.8l-0.1,0.1c-0.1,0.2-0.3,0.4-0.5,0.7
		l-0.8,0.9l0,0c-0.3,0.3-0.6,0.6-0.9,0.9l-0.6,0.5c-0.4,0.3-0.7,0.7-1.1,1s-0.7,0.5-1.1,0.7l-0.3,0.2c-0.4,0.3-0.9,0.6-1.4,0.8
		l-0.9,0.3l-0.6,0.2c-0.5,0.2-1.1,0.3-1.7,0.5c-0.5,0.1-0.9,0.2-1.4,0.2l-0.6,0.1l-0.7,0.1l-1.1,0.2c-1,0.2-2,0.3-3,0.3l-1.7,0.1
		l-1.8,0.1h-0.3c-0.4,0-0.9,0-1.3,0.1H126l-1.4,0.1c-0.4,0-0.9,0-1.3,0c-0.5,0-1.2,0-1.9-0.1c-0.9-0.1-1.9-0.1-3.1-0.1
		c-1,0-2.1,0-3.1-0.1h-0.3c-0.5,0-0.9-0.1-1.4-0.1h-1.7c-0.7,0-1.4-0.1-2.1-0.1l-1-0.1h-0.9c-0.7,0-1.5-0.1-2.3-0.1l-0.9-0.1
		c-0.4-0.1-0.9-0.1-1.3-0.2c-0.9-0.1-1.6-0.2-2.3-0.2c-0.4,0-0.8,0-1.1,0h-1.1c-1.5-0.1-3-0.2-4.5-0.4H94c-0.9-0.1-1.8-0.2-2.7-0.4
		c-1.2-0.2-2.3-0.6-3.4-1l-0.8-0.3c-0.3-0.1-0.6-0.2-0.8-0.4l-0.3-0.2l-0.6-0.4c-0.4-0.2-0.7-0.4-1.1-0.5l0,0
		c-0.3-0.1-0.6-0.3-0.8-0.5l-0.8-0.7l-0.1-0.1l-1-0.9c-0.6-0.6-1.1-1.2-1.6-1.8c-0.2-0.4-0.4-0.7-0.6-1.1c-0.1-0.2-0.2-0.4-0.3-0.6
		s-0.2-0.4-0.3-0.5c-0.1-0.2-0.2-0.6-0.3-1s-0.1-0.3-0.1-0.5l-0.3-0.9l-0.2-0.8c-0.2-0.6-0.3-1.1-0.5-1.7c-0.2-0.5-0.3-1-0.3-1.5
		c0-0.4-0.1-0.9-0.1-1.3c0-0.2,0-0.4,0-0.5c0-0.4,0-0.8-0.1-1.1v-0.2c0-0.4-0.1-0.9-0.1-1.3c0-0.3,0-0.5,0-0.8c0-0.3,0-0.6,0-0.9
		c-0.1-0.5-0.1-1-0.2-1.6v-1.6c0-0.5,0-0.9,0.1-1.4v-0.2c0-0.5,0.1-1.1,0.1-1.7c0-0.6,0.1-1.1,0.1-1.6c0-0.2,0-0.4,0-0.6
		c0-0.4,0-0.8,0-1.2s0-0.6,0-0.9c0-0.2,0-0.4,0-0.6c0-0.2,0-0.3,0-0.5c0-0.3,0-0.7,0-1V121c0-0.7,0.1-1.5,0.2-2.2v-0.1
		c0-0.3,0.1-0.6,0.1-0.8c0-0.3,0-0.5,0-0.8V117c0-0.5,0-1,0.1-1.6v-1.7c0-0.3,0-0.7,0-1c0-0.3,0-0.5,0-0.8c0-0.3,0-0.4,0-0.6
		c0-0.4,0-0.8,0.1-1.2c0.1-0.4,0-0.7,0-1.1c0-0.2,0-0.4,0-0.6c0-0.7,0-1.3,0.1-2c0-0.4,0-0.8,0-1.1s0-1.1,0.1-1.8v-0.3
		c0-0.6,0.1-1.1,0.2-1.6v0.1c0-0.3,0.1-0.6,0.1-0.9l0.3-2.1v-0.3c0.1-0.6,0.2-1.3,0.4-1.9c0.1-0.3,0.1-0.6,0.2-0.9
		c0.1-0.3,0.1-0.6,0.2-0.9l0.1-0.6c0.1-0.5,0.2-0.9,0.4-1.4l0.1-0.4c0.1-0.3,0.2-0.7,0.3-1c0.1-0.5,0.3-1,0.5-1.4
		c0.1-0.2,0.2-0.4,0.3-0.6c0.1-0.2,0.3-0.4,0.4-0.6l0.4-0.4l0.8-0.6H82c0.2-0.2,0.5-0.3,0.8-0.5c0.2-0.1,0.4-0.2,0.7-0.3l0.1-0.1
		c0.6-0.2,1.1-0.5,1.6-0.7l0.4-0.2c0.3-0.2,0.6-0.4,1-0.5c0.8-0.3,1.7-0.6,2.6-0.7l0.7-0.1H90l0,0L90.5,84.5z"/>
	<path class="st1" d="M115.4,107.3h-0.7c-0.2,0-0.6,0-0.8,0h-0.8c-0.6,0-1.2,0.1-1.7,0.2c-0.3,0.1-0.6,0.1-0.8,0.2l-0.7,0.2
		l-0.5,0.1c-0.3,0.1-0.6,0.1-0.9,0.2c-0.6,0.2-1.1,0.4-1.6,0.8c-0.5,0.3-1,0.7-1.4,1.2c-0.3,0.3-0.6,0.7-1,1.1
		c-0.3,0.5-0.7,0.9-1.1,1.3c-0.3,0.5-0.5,0.8-0.7,1.1l-0.1,0.1c-0.5,0.8-0.9,1.8-1.1,2.7c-0.1,0.6-0.3,1.1-0.4,1.7
		c-0.1,0.6-0.2,1.2-0.1,1.7c0.1,0.6,0.1,1.2,0.3,1.9c0.1,0.5,0.2,1,0.3,1.5c0.1,0.3,0.2,0.7,0.3,1l0.1,0.2l0.1,0.3
		c0.2,0.5,0.3,1,0.6,1.5c0.2,0.3,0.3,0.6,0.6,0.9c0.2,0.2,0.3,0.4,0.5,0.6c0.5,0.4,0.9,0.8,1.4,1.1l0.6,0.4l0.7,0.5l1.3,0.9
		c0.8,0.5,1.6,0.9,2.5,1.1l0.6,0.2h0.1c0.4,0.1,0.8,0.3,1.1,0.4c0.6,0.1,1.1,0.2,1.7,0.3h0.5c1,0,1.9-0.2,2.8-0.5c1-0.3,2-0.7,3-1.2
		c0.5-0.2,0.9-0.5,1.3-0.8l0.9-0.7l0.1-0.1c0.2-0.1,0.3-0.3,0.5-0.4c0.3-0.3,0.6-0.7,0.8-1c0.1-0.1,0.2-0.3,0.3-0.4l0.2-0.2
		c0.3-0.3,0.5-0.7,0.7-1c0.3-0.5,0.5-1,0.7-1.4c0.3-0.6,0.5-1.2,0.7-1.8c0.1-0.5,0.2-1,0.3-1.5c0.1-0.7,0.2-1.2,0.2-1.7
		c0-0.5,0-0.9,0-1.4c0-0.4-0.1-0.9-0.1-1.3c0-0.5-0.1-1-0.3-1.4c0-0.2-0.1-0.3-0.1-0.5s-0.1-0.4-0.2-0.6c-0.1-0.4-0.3-0.9-0.5-1.3
		l0,0c-0.2-0.5-0.5-0.9-0.8-1.4c-0.2-0.2-0.4-0.4-0.6-0.6l-0.2-0.2c-0.3-0.3-0.6-0.7-0.9-1l-0.1-0.1l-0.4-0.5
		c-0.2-0.2-0.4-0.4-0.6-0.6l-0.1-0.1l0,0l0,0l0,0c-0.2-0.2-0.5-0.4-0.8-0.5l-0.3-0.2l-0.2-0.1l0,0c-0.1-0.1-0.2-0.1-0.4-0.2
		l-0.3-0.1c-0.1,0-0.2,0-0.3,0c-0.1,0-0.2,0-0.3,0c-0.1,0-0.2,0.1-0.3,0.1c-0.8-0.3-1.7-0.6-2.6-0.7
		C116.1,107.3,115.8,107.3,115.4,107.3L115.4,107.3z"/>
	<path class="st1" d="M142.9,112.3c-0.1,0-0.2,0-0.4,0h-0.2c-0.5,0-1,0-1.4,0.1c-0.2,0-0.5,0-0.7,0s-0.5,0-0.8,0h-0.5
		c-0.4,0-0.7,0-1.1,0.1c-0.8,0.1-1.6,0.1-2.4,0.1h-0.6c-0.8,0-2,0-2.3,1c-0.1,0.4,0,0.8,0.1,1.1c0,0.1,0.1,0.2,0.1,0.3v0.2
		c0,0.2,0,0.3,0.1,0.5c0,0.2,0.1,0.5,0.2,0.7c0.1,0.2,0.2,0.5,0.3,0.8c0,0.2,0.1,0.3,0.1,0.6v0.3c0,0.4,0.1,0.7,0.1,1.1
		c0,0.4,0,0.8,0,1.1c0,0.3-0.1,0.6-0.1,0.8v0.3c-0.1,0.3-0.1,0.7-0.1,1v0.3c0,0.3-0.1,0.6-0.1,1v0.1c0,0.2,0,0.3,0,0.5
		c-0.1,0.6-0.3,1.1-0.4,1.6v0.1c-0.2,0.8-0.5,1.4-0.7,2l0,0v0.1l-0.2,0.6c-0.3,0.7-0.6,1.3-1.1,1.9c-0.4,0.5-0.8,0.9-1.2,1.4
		s-0.7,0.8-1,1.1c-0.3,0.4-0.4,0.5-0.6,0.7c-0.2,0.2-0.4,0.5-0.6,0.8c-0.4,0.4-0.8,0.8-1.3,1.2l-0.7,0.6l-0.5,0.4
		c-0.3,0.3-0.7,0.5-1,0.8l-0.5,0.4c-0.6,0.5-1.3,0.9-2,1.2l-0.8,0.3L119,140c-0.8,0.2-1.6,0.4-2.4,0.5c-0.8,0.1-1.6,0.2-2.4,0.2
		c-0.3,0-0.6,0-1,0c-0.5-0.1-0.9-0.2-1.4-0.3c-0.3-0.1-0.6-0.2-0.9-0.3l-0.7-0.2l-0.8-0.2c-0.3-0.1-0.5-0.1-0.8-0.2
		c-0.5-0.2-1.1-0.3-1.6-0.5c-0.5-0.2-1.2-0.6-1.9-0.9c-0.7-0.3-1.4-0.7-2-1.1c-0.3-0.2-0.5-0.4-0.7-0.6l-0.5-0.5l-0.5-0.5l-0.5-0.5
		c-0.5-0.4-0.9-0.8-1.3-1.3c-0.3-0.4-0.6-0.8-0.8-1.2l-0.1-0.1l-0.2-0.4l-0.3-0.4c-0.1-0.1-0.2-0.3-0.3-0.4
		c-0.1-0.1-0.2-0.2-0.2-0.3c-0.6-0.9-1.2-1.9-1.6-2.9c-0.3-0.7-0.5-1.5-0.6-2.3c-0.1-0.7-0.2-1.3-0.3-1.8c-0.1-0.6-0.1-1.3-0.1-1.9
		c0-0.8,0-1.5,0.1-2.3c0.1-0.7,0.3-1.5,0.4-2.3v-0.2c0.1-0.3,0.1-0.7,0.2-1V116c0-0.3,0.1-0.6,0.2-0.8c0.1-0.3,0.2-0.5,0.2-0.8
		c0-0.2-0.1-0.4-0.2-0.6c-0.1-0.2-0.2-0.3-0.4-0.4l0,0c-0.2-0.1-0.5-0.2-0.8-0.2h-0.4H94h-0.2c-0.2,0-0.4,0-0.6,0
		c-0.5,0-1.1-0.1-1.6-0.1h-0.2c-0.2,0-0.5,0-0.7,0h-0.2c-0.3,0-0.5,0-0.8,0.1h-0.1c-0.7,0.1-1.3,0.2-2,0.2c-0.2,0-0.4,0-0.7,0
		l-0.5-0.1l-0.4-0.1l-1.2-0.2h-0.1c-0.5,0.1-0.8,0.4-0.9,0.9c-0.1,0.2-0.2,0.3-0.3,0.5c-0.1,0.2-0.1,0.5-0.1,0.7v0.3
		c0,0.3-0.1,0.5-0.1,0.7s0,0.2,0,0.3v0.3c0,0.3,0,0.6-0.1,0.8c-0.1,0.3,0,0.4,0,0.6v0.9c0,0.2,0,0.4,0,0.6v0.2c0,0.5,0,1,0,1.5
		c0,0.6,0,1.1,0,1.7c0,0.3,0,0.6,0,1c0,0.2,0,0.4,0,0.6c0,0.3,0,0.6,0.1,0.9c0,0.2,0,0.3,0,0.5s0,0.7,0,1v2.2c0,0.4,0,0.7,0,1.1v1.1
		c0,0.4,0,0.8,0,1.2c0,0.1,0,0.2,0,0.3c0,0.3,0.1,0.6,0.1,0.8v0.4c0,0.3,0,0.5,0,0.8c0,0.3,0.1,0.7,0.1,1l0,0c0,0.2,0,0.5,0,0.7
		s0,0.2,0,0.3c0,0.5,0.1,0.9,0.2,1.4c0,0.3,0,0.6,0,0.9v0.5c0,0.5,0.1,1,0.1,1.4v0.2c0,0.3,0.1,0.7,0.1,1c0,0.1,0.1,0.3,0.1,0.4
		c0,0.1,0.1,0.2,0.1,0.4c0,0.1,0,0.2,0.1,0.3c0.1,0.1,0,0.2,0.1,0.3c0.1,0.3,0.2,0.5,0.3,0.7l0.2,0.5c0.1,0.3,0.2,0.6,0.4,0.9
		c0.2,0.4,0.4,0.8,0.7,1.1l0.5,0.5c0.2,0.2,0.3,0.3,0.4,0.4c0.3,0.4,0.7,0.8,1,1.1c1,0.7,2.1,1.1,3.3,1.1l1.1,0.1l0.8,0.1h0.5
		c0.3,0,0.6,0.1,1,0.1h0.4c0.2,0,0.5,0,0.7,0h2.4c0.5,0,1,0,1.5,0h1.8h0.9h0.9h1.8c1.3,0,2.5,0.1,3.4,0.2c0.7,0.1,1.3,0.1,1.8,0.1
		h0.7c0.3,0,0.6,0,0.9,0c0.3,0,0.9,0,1.3,0.1c0.6,0,1.3,0.1,1.9,0.1h0.2c0.4,0,0.9,0,1.3,0h0.5c0.5,0,1,0,1.5,0.1h0.6l1,0.1
		c0.6,0,1.1,0,1.8,0c0.5,0,0.9,0,1.4,0c0.5,0,0.9,0,1.3,0h0.7c0.7,0,1.5,0,2.3,0h0.8c0.7,0,1.4,0.1,2.1,0.1h0.3h0.7h0.5
		c0.5,0,1-0.1,1.4-0.2l0.8-0.1l0.8-0.1c0.7-0.1,1.3-0.2,2-0.4l0.4-0.1c0.5-0.1,1.1-0.3,1.6-0.5c0.4-0.2,0.8-0.3,1.2-0.5l0.6-0.3
		l0.7-0.3l0,0c0.3-0.1,0.6-0.3,0.9-0.4c0.2-0.1,0.4-0.3,0.5-0.4l0,0c0.2-0.2,0.3-0.4,0.5-0.6l0.1-0.1c0.1-0.2,0.2-0.4,0.3-0.6
		l0.1-0.1c0.1-0.3,0.3-0.5,0.4-0.8c0.2-0.6,0.4-1.1,0.5-1.7c0.1-0.5,0.2-1.1,0.3-1.7c0.1-0.4,0.1-1,0.2-1.5c0-0.2,0-0.4,0-0.6
		c0-0.2,0.1-0.6,0.1-0.8s0-0.5,0-0.7s0-0.5,0-0.7s0-0.4,0-0.6c0-0.2,0-0.6,0-0.9c0-0.3,0-0.5,0-0.8s0-0.4,0-0.6v-2.6
		c0-0.3,0-0.6,0-0.9s0-0.5,0-0.7v-0.5c0-0.3,0-0.6,0-0.9c0-0.4,0-0.9,0-1.3c0-0.2,0-0.3,0-0.5s0-0.6,0-0.8c0-0.1,0-0.2,0-0.3
		c0-0.2,0-0.3,0-0.5c0-0.2,0-0.4,0-0.7v-0.3c0-0.4,0-0.7,0-1.1v-0.2c0-0.4,0-0.9,0-1.3c0-0.2,0-0.4,0-0.6c0-0.2,0-0.5,0-0.8
		s0-0.7,0.1-1.1c0.1-0.4,0.1-1,0.2-1.5v-0.2c0-0.4,0-0.8,0-1.2c0-0.7-0.1-1.3-0.2-2c0-0.2-0.1-0.4-0.1-0.5c0-0.2-0.1-0.7-0.2-1
		c-0.1-0.3-0.2-0.7-0.5-0.9c-0.2-0.2-0.5-0.4-0.8-0.5c-0.2,0-0.3-0.1-0.5-0.1L142.9,112.3z"/>
	<path class="st1" d="M135,90.1c-0.3,0-0.7,0-1,0h-0.1c-0.4,0-0.7,0-1.1,0.1h-0.5h-0.7c-0.3,0-0.7,0-1,0.1c-0.3,0-0.6,0.1-0.8,0.3
		c-0.5,0.4-0.5,1.1-0.1,1.6c0,0,0,0,0.1,0.1c0.2,0.2,0.5,0.3,0.8,0.3c0,0.1,0,0.1,0,0.2c0,0.3,0,0.6,0,0.9c0,0.3,0,0.5,0,0.7
		c0,0.2,0,0.7-0.1,1l-0.1,0.7c0,0.2,0,0.4-0.1,0.6c-0.1,0.2-0.1,0.6-0.1,0.8v0.3c0,0.3,0,0.7-0.1,1c-0.1,0.3-0.1,0.4-0.1,0.6
		s-0.1,0.5-0.1,0.7c0,0.2-0.1,0.6-0.1,0.9v0.3c0,0.2,0,0.3,0,0.5c0,0.2-0.1,0.3-0.1,0.5v0.1c-0.1,0.3-0.1,0.7,0,1
		c0.1,0.2,0.2,0.4,0.3,0.5c0.1,0.1,0.2,0.2,0.3,0.3c0.2,0.1,0.4,0.2,0.7,0.2h0.3l0.4,0.1c0.6,0.1,1.1,0.2,1.7,0.3l0.9,0.1h0.5h0.5
		c0.8,0.1,1.5,0.1,2.3,0.1h0.1h1h0.5c0.2,0,0.5,0,0.7,0c0.2,0,0.3,0,0.4,0h0.1c0.2,0,0.5,0,0.7-0.1h0.1c0.3,0,0.5-0.1,0.8-0.3
		c0.1-0.1,0.3-0.2,0.4-0.3c0.2-0.2,0.3-0.4,0.4-0.6c0.1-0.2,0.1-0.5,0.2-0.7l0,0c0-0.1,0-0.3,0-0.4s0.1-0.4,0.1-0.6
		c0.1-0.5,0.1-1.1,0.1-1.6c0-0.2,0-0.3,0-0.5c0-0.2,0-0.5,0-0.7c0-0.4,0-0.8,0.1-1.1v-0.2c0-0.3,0.1-0.7,0.1-1v-1.2
		c0-0.4,0-0.8,0-1.1v-0.1c0-0.3,0-0.7,0-1c0-0.1,0.1-0.3,0.1-0.4s0-0.2,0-0.3c0-0.1,0-0.3,0.1-0.5v-0.1c0-0.1,0-0.2,0-0.3
		c0-0.2-0.1-0.4-0.2-0.6l0,0c-0.1-0.1-0.2-0.3-0.3-0.3c-0.1-0.1-0.2-0.1-0.4-0.1h-0.2h-0.2H142l-0.6-0.1c-0.8-0.1-1.6-0.2-2.4-0.3
		c-0.5,0-0.9-0.1-1.4-0.1h-0.1c-0.5-0.1-1.1-0.1-1.6-0.2L135,90.1L135,90.1z"/>
	<path class="st1" d="M171.6,185.3c-0.3,0-0.6,0-0.8,0c-0.5,0-1,0.1-1.5,0.3c-0.3,0.1-0.5,0.2-0.8,0.3c-0.4,0.2-0.7,0.4-1,0.7
		c-0.2,0.2-0.5,0.4-0.7,0.6c-0.2,0.3-0.4,0.5-0.6,0.9c-0.2,0.4-0.4,0.9-0.5,1.4c-0.2,0.6-0.2,1.3-0.1,1.9c0.1,0.4,0.2,0.7,0.3,1
		c0.1,0.2,0.2,0.4,0.3,0.6c0.4,0.5,0.8,0.8,1.3,1.1c0.5,0.4,1,0.8,1.6,1c0.3,0.1,0.5,0.2,0.8,0.3c0.4,0.1,0.7,0.2,1.1,0.3
		c0.5,0.1,1,0.1,1.5,0.1c0.7-0.1,1.3-0.3,1.9-0.7c0.3-0.2,0.5-0.4,0.8-0.6c0.4-0.4,0.8-0.8,1.1-1.2c0.3-0.4,0.5-0.7,0.7-1.1
		c0.3-0.7,0.5-1.4,0.4-2.2c0-0.2-0.1-0.4-0.1-0.7c0-0.2-0.1-0.4-0.2-0.7c-0.2-0.5-0.4-0.9-0.7-1.3c-0.3-0.3-0.5-0.6-0.9-0.9
		c-0.3-0.3-0.6-0.5-1-0.7c-0.5-0.3-1-0.5-1.6-0.5h-0.5h-0.9L171.6,185.3z"/>
	<path class="st1" d="M192.3,179.5c-0.7,0.1-1.4,0.2-2.1,0.4c-0.9,0.2-1.7,0.6-2.4,1.1c-0.6,0.5-1.1,1.2-1.4,1.9
		c-0.1,0.3-0.2,0.6-0.3,0.8c-0.1,0.3-0.3,0.8-0.4,1.2c-0.2,0.4-0.3,0.9-0.4,1.3c-0.2,0.6-0.2,1.3-0.2,2c0,0.7,0.2,1.3,0.4,2
		c0.2,0.7,0.5,1.4,0.9,2.1c0.7,1,1.7,1.7,2.8,2.1c1.2,0.5,2.5,0.7,3.8,0.9c0.8,0.1,1.7,0,2.5-0.1c0.6-0.1,1.3-0.3,1.9-0.5
		c1.3-0.5,2.4-1.2,3.4-2.2c0.2-0.2,0.4-0.4,0.6-0.7c0.2-0.3,0.5-0.7,0.6-1c0.2-0.4,0.3-0.7,0.4-1.1c0-0.1,0.1-0.2,0.1-0.4
		c0-0.1,0.1-0.6,0.2-0.8c0.1-1.4,0-2.8-0.5-4.2c-0.2-0.7-0.6-1.3-1-1.9c-0.2-0.3-0.5-0.6-0.8-0.8c-0.3-0.2-0.6-0.5-1-0.6
		c-0.3-0.2-0.5-0.3-0.8-0.4c-1.2-0.4-2.4-0.7-3.6-0.9c-0.6-0.1-1.2-0.2-1.8-0.2C192.8,179.4,192.6,179.4,192.3,179.5L192.3,179.5z"
		/>
	<path class="st1" d="M182.6,167.4c-0.6,0.2-1,0.6-1.4,1c-0.2,0.2-0.3,0.5-0.4,0.8c-0.1,0.3-0.1,0.7-0.1,1v0.2c0,0.1,0,0.3,0,0.4
		c0,0.3,0,0.6,0.1,0.9c0.1,0.3,0.3,0.5,0.5,0.7c0.2,0.2,0.4,0.3,0.6,0.4c0.3,0.1,0.6,0.1,0.9,0.1c0.3,0,0.6-0.1,0.8-0.1
		c0.3-0.1,0.5-0.2,0.8-0.3c0.4-0.3,0.7-0.7,1-1.1c0.1-0.1,0.2-0.3,0.2-0.5c0.2-0.4,0.2-0.7,0.3-1.1c0-0.5-0.2-1-0.5-1.3
		c-0.5-0.6-1.3-0.9-2.1-1C183,167.4,182.8,167.4,182.6,167.4L182.6,167.4z M183.8,169.9C183.8,169.9,183.8,169.9,183.8,169.9
		L183.8,169.9z"/>
	<path class="st1" d="M87.5,34.8c-0.1,0-0.3,0-0.4,0c-0.2,0-0.4,0.1-0.6,0.2c-0.2,0.1-0.5,0.2-0.7,0.3c-0.2,0.1-0.4,0.2-0.6,0.3
		c-0.4,0.2-0.7,0.6-0.9,0.9C84,37,83.8,37.5,83.7,38c0,0.3,0,0.5,0,0.8c0,0.2,0.1,0.4,0.1,0.5c0,0.1,0.1,0.3,0.1,0.4
		c0.2,0.5,0.6,1,1.1,1.3l0.1,0.1c0.6,0.7,1.5,1,2.4,0.8c0.3,0,0.5-0.1,0.8-0.2l0.5-0.3c0.5-0.3,0.9-0.8,1.2-1.3
		c0.1-0.3,0.3-0.5,0.4-0.8c0.1-0.2,0.2-0.5,0.2-0.7c0-0.2,0-0.4,0-0.6c0-0.1,0-0.3,0-0.4c0-0.1-0.1-0.3-0.1-0.4
		c-0.1-0.3-0.3-0.7-0.5-0.9c-0.2-0.3-0.4-0.5-0.6-0.7c-0.2-0.1-0.3-0.2-0.5-0.3c-0.3-0.1-0.5-0.2-0.8-0.2h-0.3L87.5,34.8L87.5,34.8z
		"/>
	<path class="st1" d="M102.7,22.1c-0.4,0.1-0.8,0.2-1.1,0.3c-0.3,0.1-0.6,0.3-0.9,0.4c-0.2,0.1-0.4,0.2-0.5,0.3
		c-0.6,0.5-1.1,1-1.5,1.6L98.5,25c-0.4,0.4-0.7,0.9-0.9,1.5c-0.1,0.3-0.3,0.7-0.3,1c-0.2,0.7-0.2,1.4-0.2,2.1
		c0.1,0.6,0.3,1.2,0.6,1.7c0.2,0.3,0.4,0.6,0.6,0.8c0.3,0.3,0.6,0.5,1,0.7c0.5,0.3,1,0.4,1.5,0.5c0.4,0.1,0.8,0.1,1.3,0.1
		c0.5,0,1-0.1,1.5-0.2c0.4-0.1,0.8-0.3,1.1-0.5c0.6-0.3,1.2-0.7,1.8-1.1c0.2-0.2,0.5-0.4,0.7-0.6c0.2-0.3,0.4-0.6,0.6-0.9
		c0.2-0.3,0.3-0.6,0.4-0.9c0.2-0.6,0.4-1.3,0.4-2c0.1-1-0.1-1.9-0.5-2.8c-0.1-0.2-0.2-0.5-0.4-0.7c-0.2-0.2-0.3-0.4-0.5-0.6
		c-0.2-0.2-0.5-0.4-0.8-0.5c-0.3-0.1-0.5-0.2-0.8-0.3c-0.2-0.1-0.4-0.1-0.7-0.2c-0.4-0.1-0.7-0.1-1.1-0.1h-0.1
		C103.3,22,103,22.1,102.7,22.1z"/>
	<path class="st1" d="M77.4,26.2l-0.6,0.3c-0.2,0.1-0.3,0.2-0.5,0.3c-0.3,0.2-0.6,0.4-0.8,0.7c-0.2,0.2-0.3,0.4-0.4,0.7
		c-0.1,0.4-0.2,0.7-0.2,1.1c0,0.2,0.1,0.3,0.1,0.5l0.1,0.2c0.1,0.1,0.1,0.3,0.2,0.4c0.2,0.2,0.4,0.4,0.6,0.5
		c0.2,0.1,0.4,0.2,0.6,0.2c0.2,0,0.4,0,0.6-0.1c0.6-0.2,0.8-0.9,0.6-1.4c-0.1-0.2-0.2-0.3-0.3-0.4l0.2-0.2l0.6-0.3
		c0.3-0.1,0.5-0.3,0.7-0.6c0.3-0.6,0-1.3-0.6-1.6l0,0c-0.2-0.1-0.3-0.1-0.5-0.1C77.7,26.2,77.6,26.2,77.4,26.2z M77.2,28.7
		L77.2,28.7L77.2,28.7z M77.3,28.7v0.1l0,0V28.7z M77.3,29L77.3,29C77.3,29.1,77.4,29.1,77.3,29L77.3,29z"/>
	<path class="st1" d="M78.9,25.7c-0.3,0-0.6,0.1-0.9,0.2c-0.2,0-0.4,0-0.7,0.1c-0.5,0.1-1,0.3-1.5,0.6c-0.2,0.2-0.4,0.4-0.5,0.6
		c-0.2,0.2-0.3,0.5-0.3,0.7c0,0.1-0.1,0.2-0.1,0.4c0,0.2,0,0.4,0,0.6c0,0.2,0,0.5,0.1,0.7c0,0.2,0,0.4,0,0.6c0.1,0.4,0.2,0.7,0.4,1
		c0.2,0.2,0.3,0.4,0.6,0.5c0.3,0.2,0.5,0.3,0.9,0.4c0.5,0.1,1,0.1,1.5,0c0.8-0.2,1.5-0.5,2.1-1.1l0.1-0.1l0.2-0.2
		c0.3-0.2,0.5-0.4,0.7-0.7c0.3-0.4,0.5-0.8,0.5-1.3c0.1-0.8-0.1-1.5-0.7-2c-0.2-0.2-0.5-0.4-0.8-0.5l-0.2-0.1
		c-0.2-0.1-0.4-0.1-0.6-0.1c-0.1,0-0.3,0-0.4,0L78.9,25.7L78.9,25.7z"/>
</g>
<text transform="matrix(1 0 0 1 55.6808 234.7703)" class="st2 st3">Instagram</text>
</svg>
