<?xml version="1.0" encoding="utf-8"?>
<!-- Generator: Adobe Illustrator 24.1.3, SVG Export Plug-In . SVG Version: 6.00 Build 0)  -->
<svg version="1.1" id="Layer_1" xmlns="http://www.w3.org/2000/svg" xmlns:xlink="http://www.w3.org/1999/xlink" x="0px" y="0px"
	 viewBox="0 0 349.4 170.9" style="enable-background:new 0 0 349.4 170.9;" xml:space="preserve">
<style type="text/css">
	.st0{fill:#FFFFFF;}
	.st1{fill:none;}
</style>
<path class="st0" d="M196.3,105.1c-0.6,0-1.2,0.1-1.8,0.2c-0.6,0.2-1.2,0.4-1.7,0.6c-0.7,0.3-1.3,0.5-1.9,0.9c-1.8,0.9-3.5,2-5.3,3
	s-3.8,2.3-5.6,3.5c-2.4,1.5-4.7,3-7,4.6l0.9-0.6c-3.4,2.4-6.7,4.8-10.1,7.3l-1.1,0.8c-0.8,0.5-1.5,1-2.2,1.6c-2.8,1.9-5.7,3.6-8.7,5
	c-3.1,1.5-6.3,2.8-9.2,4.5c-1.4,0.8-2.7,1.6-4.1,2.5s-2.9,1.6-4.3,2.4c-3.3,1.9-6.6,4-9.6,6.4c-0.9,0.8-1.4,1.9-1.4,3s0.4,2.2,1.1,3
	c0.8,0.8,1.9,1.3,3,1.4c1.1,0,2.2-0.4,3-1.1l1.5-1.1c2.6-1.8,5.3-3.4,8-4.9c2.8-1.5,5.5-3.4,8.3-4.9s6-2.8,8.9-4.2
	c3.2-1.6,6.2-3.5,9.1-5.5l-0.6,0.4c0.9-0.6,1.8-1.2,2.7-1.9l-0.9,0.6c3-2.1,6-4.3,9-6.5l2.5-1.7c1.7-1.2,3.5-2.3,5.3-3.4
	s3.2-2.1,4.9-3.1c2.4-1.5,4.8-2.9,7.4-4.1c0.3-0.1,0.5-0.1,0.8-0.2H197c0.9-0.1,1.7-0.4,2.3-1c0.8-0.8,1.3-1.9,1.4-3
	c0-1.1-0.4-2.2-1.1-3c-0.7-0.8-1.7-1.3-2.8-1.4L196.3,105.1z M195.9,113.6L195.9,113.6z M166.2,133.1l-0.2,0.2L166.2,133.1z"/>
<path class="st0" d="M139.9,95.4c-3.7,0.1-7.4,0.1-11.1,0.3s-7.4,0.7-11,1l0,0c-0.1,0-0.3,0-0.4,0c-1.7,0.2-3.4,0.3-5.1,0.4
	s-3.6,0.3-5.4,0.3c-2,0-3.9-0.1-5.9,0c-1.8,0.1-3.6,0.2-5.4,0.3S92,98,90.2,98.3c-2,0.3-4,0.8-6,1.2s-4.1,0.8-6.2,1.2
	s-4,0.6-5.9,0.9c-1.8,0.3-3.6,0.6-5.4,1s-3.5,0.9-5.2,1.3c-4.5,1-9.1,2-13.6,3.1c-2.7,0.6-5.4,1.1-8.1,1.8c-2.4,0.7-4.7,1.4-7,2h0.1
	c-2.2,0.6-4.4,1.2-6.6,2s-4.1,1.3-6.1,2s-4,1.2-6,1.8c-2.4,0.8-4.8,1.8-7.2,2.8c-2.2,0.8-3.4,3.2-2.6,5.4s3.2,3.4,5.4,2.6
	c0.1,0,0.1,0,0.2-0.1c2.2-0.9,4.4-1.9,6.6-2.7c2-0.7,4-1.2,6-1.8s4-1.2,6-1.9s4.2-1.4,6.3-1.9h-0.1c3-0.7,5.9-1.7,8.9-2.5
	c4.1-0.9,8.2-1.8,12.3-2.7c2-0.4,3.9-0.9,5.8-1.3s3.6-0.9,5.5-1.4c3-0.7,6-1.2,8.9-1.6c1.7-0.3,3.4-0.5,5.1-0.8s3.7-0.7,5.5-1.1
	c3.2-0.7,6.4-1.2,9.6-1.4c3.1-0.2,6.2-0.4,9.2-0.4c0.9,0,1.8,0.1,2.7,0.1s1.9-0.1,2.8-0.2c1.9-0.1,3.8-0.3,5.8-0.4
	c3.7-0.3,7.4-0.8,11.1-1.1c1.9-0.2,3.9-0.2,5.8-0.2c1.8,0,3.5-0.1,5.3-0.1c3.5-0.1,7.1-0.1,10.6-0.1l3.1,0.1c0.5,0,1,0,1.5,0
	c2,0.1,4.1,0.3,6.1,0.4c2.2,0.2,4.4,0.3,6.6,0.4c4.1,0.2,8.1,0.6,12.1,1c4.2,0.4,8.4,1,12.6,1.6c2,0.3,4.1,0.5,6.1,0.8
	s3.9,0.4,5.9,0.6c4.1,0.2,8.1,0.7,12.1,1.4c3.9,0.7,7.9,1.3,11.8,2.1s7.8,1.8,11.7,2.7s8,1.8,12,2.9c2.6,0.7,5.3,1.4,7.9,2.2
	c2.4,0.8,4.9,1.5,7.3,2.3s4.9,1.9,7.4,2.7s5,1.5,7.4,2.4c1.2,0.4,2.3,0.9,3.5,1.3c1.6,0.5,3.3,1,4.9,1.5l-1.1-0.3
	c1.9,0.6,3.8,1.1,5.7,1.6c3.2,1.1,6.3,2.6,9.5,3.9c3.7,1.5,7.6,2.5,11.4,4c3.3,1.3,6.5,2.8,9.7,4.3l8.9,4c2.1,0.9,4.7,0,5.6-2.2
	c0.9-2.1,0-4.6-2.1-5.6l-9.1-4.1c-3.4-1.5-6.8-3.1-10.3-4.5c-3.8-1.5-7.8-2.4-11.6-4.1c-3.7-1.8-7.6-3.2-11.6-4.4l-2.3-0.6l1.1,0.3
	l-3.6-1.1c-1.8-0.6-3.5-1.2-5.2-1.8c-1.9-0.7-3.8-1.3-5.8-1.9c-3.9-1.2-7.6-2.8-11.5-4c-4.3-1.3-8.6-2.7-13-3.8c-4-1.1-8-2.1-12.1-3
	c-3.9-0.9-7.8-2-11.7-2.8s-7.8-1.4-11.8-2.1c-4-0.8-8-1.3-12.1-1.6c-2-0.2-4-0.2-6-0.5s-3.9-0.5-5.8-0.8c-3.3-0.4-6.6-0.9-9.9-1.4
	s-6.7-0.7-10.1-0.9c-1.7-0.1-3.3-0.3-5-0.4s-3.5-0.2-5.2-0.3c-3.5-0.2-6.9-0.6-10.4-0.7h-0.2h-0.6h0.1h-2.1
	c-2.1-0.1-4.2-0.1-6.3-0.1C143.6,95.4,141.7,95.4,139.9,95.4L139.9,95.4z"/>
<path class="st0" d="M154.6,95.5"/>
<path class="st0" d="M154.9,95.5L154.9,95.5z"/>
<path class="st0" d="M35,119.1l0.2-0.1L35,119.1z"/>
<path class="st0" d="M12,22.5c-1.1,0.1-2.1,0.7-2.8,1.5c-0.7,0.9-1.1,2-0.9,3.2c0.1,0.7,0.2,1.3,0.2,2c-0.1,0.8-0.1,1.7-0.2,2.5
	c-0.1,1.2-0.3,2.5-0.5,3.7c-0.1,0.5-0.1,1.1-0.1,1.6s-0.2,1.2-0.2,1.8c-0.1,1.3-0.2,2.7-0.2,4S7,45.3,7,46.5c-0.1,1.7,0,3.4,0,5.1
	c-0.1,1.9-0.4,3.9-0.5,5.8c-0.2,2.2-0.3,4.4-0.4,6.7c0-0.2,0-0.3,0-0.5C6,64.9,6,66.2,5.8,67.5s-0.4,2.8-0.5,4.3S4.8,74.6,4.7,76
	s-0.1,2.7-0.2,4v0.1l0,0c-0.1,2.1-0.3,4.1-0.4,6.2s-0.2,4.3-0.5,6.4c-0.3,3.6-0.9,7.2-1.7,10.7c-0.4,1.4-0.6,2.9-0.8,4.3
	c-0.1,0.7-0.3,1.4-0.4,2.1s-0.2,1.6-0.3,2.3C0.1,113.6,0,115,0,116.4c0,1.5,0.2,2.9,0.7,4.3c0.5,1.3,1,2.5,1.5,3.8
	c0.8,2.2,3.3,3.3,5.5,2.5s3.3-3.3,2.5-5.5l-0.9-2.3c-0.2-0.5-0.4-1-0.6-1.5c-0.1-0.4-0.1-0.8-0.1-1.2c0-0.3,0-0.6-0.1-0.9
	c0.1-0.7,0.2-1.5,0.2-2.2c0.1-1.3,0.3-2.6,0.6-3.9c0.3-1.2,0.4-2.4,0.6-3.6c0.3-1.5,0.8-3,1-4.4s0.4-2.9,0.6-4.3
	c0.2-1.8,0.5-3.6,0.6-5.4s0.2-3.8,0.4-5.6s0.3-3.7,0.3-5.6c0-1.2,0.1-2.4,0.2-3.6c0.1-1.5,0.3-2.9,0.5-4.4s0.4-3.1,0.6-4.6
	c0.1-1.3,0.2-2.7,0.2-4c0.1-2.2,0.3-4.5,0.5-6.7c0.1-1.3,0.3-2.6,0.4-3.8c0.1-1.6,0-3.1,0-4.7c0.1-2.2,0.2-4.5,0.3-6.7V43
	c0.1-1.5,0.2-3,0.4-4.5c0.2-1.5,0.3-3,0.5-4.5c0.2-1.3,0.3-2.6,0.3-4c0.1-1.3,0-2.6-0.2-3.8c-0.1-1.1-0.7-2.1-1.5-2.8
	c-0.8-0.6-1.7-1-2.7-1L12,22.5L12,22.5z"/>
<path class="st0" d="M137.8,0.3c-3.6,0.3-7.1,0.1-10.7,0.3c-4,0.2-7.9,0.3-11.8,0.7c-2.1,0.2-4.2,0.5-6.3,0.7
	c-1.9,0.1-3.7,0.1-5.6,0.2s-3.7,0.1-5.6,0.2S94,2.5,92,2.6s-3.9,0.3-5.9,0.5s-4,0.4-6.1,0.6c-1.8,0.2-3.6,0.5-5.4,0.8S71,5,69.2,5.2
	c-3.9,0.5-7.8,1.1-11.6,1.9c-3.2,0.7-6.3,1.7-9.4,2.6c-1.6,0.5-3.2,0.9-4.9,1.3c-1.4,0.4-2.8,0.8-4.2,1.2L35.7,13
	c-1.7,0.4-3.3,0.8-5,1.2s-3.5,0.9-5.2,1.3c-1.6,0.4-3.1,0.9-4.7,1.5c-1.7,0.7-3.4,1.5-5,2.4c-1.6,1-3,2.1-4.4,3.3
	c-0.9,0.7-1.5,1.7-1.7,2.8c-0.2,1.1,0.1,2.2,0.8,3.1c1.4,1.9,4,2.4,5.9,1c1.5-1.3,3-2.4,4.7-3.5c3.2-1.4,6.5-2.6,9.9-3.3
	c1.4-0.3,2.8-0.6,4.1-1c1.8-0.4,3.7-0.9,5.5-1.3c3.1-0.8,6.2-1.7,9.3-2.5c2.9-0.8,5.7-1.8,8.6-2.5c3.6-0.8,7.3-1.4,11-1.9
	c1.8-0.2,3.6-0.4,5.4-0.7s3.6-0.6,5.4-0.8c4-0.4,8-0.8,12-1.1c1.9-0.1,3.8-0.2,5.7-0.3s3.7-0.2,5.6-0.2s3.5,0,5.2-0.1
	c2-0.1,4-0.3,6-0.6s3.8-0.4,5.8-0.5s3.8-0.2,5.6-0.2c3.4-0.2,6.8-0.1,10.1-0.2c2-0.1,4.1-0.3,6.1-0.4s3.8-0.1,5.7-0.1
	c2.7,0.1,5.4,0.1,8.2,0.1c3.7,0.1,7.5,0.2,11.2,0.2s7.5-0.1,11.2,0l4,0.1c4,0.2,8,0.4,12,0.6s8.3,0.7,12.4,1
	c2.1,0.2,4.2,0.4,6.3,0.7s4.2,0.4,6.3,0.5c1.8,0.1,3.6,0.1,5.4,0.3s3.7,0.4,5.6,0.6c2,0.2,4,0.4,6.1,0.6s3.9,0.5,5.8,0.7
	c4.2,0.5,8.4,0.6,12.6,1.2c8.2,1.3,16.5,2.7,24.6,4.3c2.9,0.6,5.8,1.1,8.7,1.7c1.5,0.3,2.9,0.7,4.3,1.1s2.9,0.8,4.3,1.2l3.9,1.2
	c3.8,1.2,7.7,2.2,11.6,3c2,0.4,4,0.8,6,1.3c1.7,0.4,3.3,0.9,5,1.3c1.4,0.4,2.8,0.9,4.1,1.4c1.4,0.5,3,0.9,4.5,1.5
	c2.5,0.8,5,1.9,7.4,2.9c2.1,1,4.7,0.1,5.6-2.1c1-2.1,0.1-4.7-2.1-5.6H343c-2.5-1.1-5-2.1-7.6-3c-1.6-0.5-3.2-1-4.7-1.5
	c-1.9-0.7-3.8-1.3-5.8-1.9c-3.3-1-6.7-1.8-10.1-2.5s-6.5-1.4-9.7-2.4c-1.3-0.4-2.6-0.8-4-1.2c-2.1-0.7-4.3-1.2-6.4-1.9
	c-2-0.5-3.9-1.1-5.9-1.5c-4-0.8-8-1.6-12.1-2.3c-4.4-0.8-8.7-1.6-13-2.3c-3.9-0.7-7.8-1.3-11.8-1.7c-2.1-0.2-4.3-0.3-6.5-0.5
	c-2-0.2-3.9-0.5-5.9-0.7S236,4.6,234,4.4s-4-0.5-6-0.7c-3.8-0.4-7.6-0.3-11.3-0.7c-2.1-0.2-4.2-0.5-6.4-0.7s-4.2-0.4-6.3-0.6
	c-3.6-0.4-7.2-0.6-10.9-0.8c-3.9-0.2-7.8-0.4-11.7-0.5h1.1c-4.1-0.1-8.1-0.2-12.2-0.2c-3.5,0-7,0-10.6,0h1.1
	c-3.5-0.1-6.9-0.1-10.4-0.2c-1.4,0-2.8-0.1-4.1-0.1C143.5,0,140.6,0.1,137.8,0.3z"/>
<path class="st0" d="M339.1,29.5c-1.3,1-1.9,2.5-1.8,4.1c-0.1,0.5-0.1,1-0.1,1.5s0.1,0.9,0.2,1.4c0,0.2,0,0.5,0.1,0.7
	c0.1,0.4,0.2,0.8,0.3,1.2s0.1,0.6,0.2,0.9s0.1,0.6,0.1,0.9c0.1,0.5,0.3,1.1,0.4,1.6s0.3,1.1,0.4,1.7c0,0.4,0.1,0.8,0.1,1.2
	s0,0.7-0.1,1c-0.1,0.8-0.1,1.7,0,2.5c0.1,1,0.2,2,0.2,3v-1.1c0,0.6,0,1.2,0,1.8s0,1.2-0.1,1.8c-0.1,0.7-0.1,1.5-0.1,2.2
	c0,0.4,0,0.8,0,1.2c0.2,1.6,0.5,3.3,0.7,4.9s0.6,3.4,0.7,5.1c0.1,0.9,0,1.8,0.2,2.8c0.1,0.4,0.2,0.8,0.2,1.2c0,0.2,0,0.4,0,0.6
	c0,0.6-0.1,1.3-0.1,1.9c0,0.3,0,0.6,0,0.8v0.1c0,1.7,0.1,3.4,0.1,5.1c-0.1,1-0.1,1.9-0.1,2.9v-0.2c-0.1,1.1-0.2,2.2-0.3,3.3
	c-0.1,1.4-0.2,2.9-0.1,4.4c0,0.5,0,1,0,1.5v-1.1c0,0.6,0,1.2,0,1.8c0,0.3,0,0.5,0,0.8c-0.1,1.3-0.2,2.6-0.3,3.8
	c-0.1,1.6,0,3.1,0,4.6c0.1,2.4,0.4,4.9,0.5,7.3v-1.1c0,0.7,0,1.5,0,2.2c0,2,0,4.1,0,6.1c0,1.2-0.1,2.5-0.1,3.8c0,0.7,0,1.4,0,2.2
	c-0.1,1.4-0.3,2.8-0.6,4.2c-0.3,1.4-0.6,2.8-1,4.2l-0.4,1.2c-0.5,1.4-1.1,2.8-1.8,4.1c-0.4,0.9-0.8,1.7-1.2,2.6
	c-0.2,0.3-0.5,0.6-0.7,0.9c-0.4,0.6-0.8,1.2-1.1,1.9l-0.1,0.1c-0.6,0.4-1.2,0.9-1.9,1.3c-1,0.6-1.9,1.4-2.9,2
	c-1.4,0.7-2.7,1.5-4.1,2.2s-2.7,1.7-4,2.4l0.3-0.1c-2,1.1-3.9,2.3-5.9,3.4c-1,0.5-1.9,0.9-2.9,1.4c-1.2,0.6-2.5,1.1-3.7,1.6
	c-1.1,0.4-2.2,0.7-3.4,1.1s-2.1,0.7-3.2,1s-2.2,0.6-3.3,1s-2.1,0.6-3.2,1s-2.2,1-3.3,1.6s-2.5,1.2-3.7,1.9c-1,0.4-1.9,1.2-2.4,2.2
	c-1,2.1,0,4.6,2.1,5.6c1,0.5,2.2,0.5,3.3,0.1c1.5-0.7,2.9-1.4,4.3-2.2c1.3-0.7,2.7-1.3,4.1-1.7s2.7-0.8,4.1-1.2s2.6-0.7,4-1.1
	s2.9-0.9,4.3-1.4s3-1.3,4.5-2c3-1.4,5.8-3.2,8.6-4.8c1.2-0.6,2.3-1.3,3.4-2s2.1-1.2,3.2-1.8c0.6-0.3,1.2-0.6,1.9-1s0.9-0.6,1.4-0.9
	s0.8-0.6,1.3-0.8s0.8-0.5,1.1-0.7c0.9-0.6,1.7-1.2,2.4-2c0.6-0.7,1.1-1.5,1.5-2.3c0.1-0.1,0.2-0.3,0.4-0.4c0.4-0.6,0.8-1.1,1.1-1.7
	c0.4-0.7,0.8-1.5,1.2-2.3s0.8-1.8,1.2-2.6c0.2-0.6,0.5-1.1,0.8-1.7c0.3-0.7,0.5-1.5,0.7-2.2c0.6-2.1,1.1-4.2,1.6-6.3
	c0.2-1,0.4-1.9,0.5-2.9c0.1-1.2,0.1-2.3,0.1-3.5c0-0.3,0-0.5,0-0.8c0.1-1.7,0.2-3.4,0.2-5.2c0-1.5-0.1-2.9-0.1-4.4
	c0-0.7,0-1.4,0-2.1v0.9c0.1-3.6-0.5-7.2-0.5-10.8c0.1-1.9,0.3-3.7,0.3-5.6v1.1c0-1,0.1-2,0.1-2.9v1.1c0-0.8,0-1.7,0-2.5
	c0,0.2,0,0.3,0,0.5c0-0.8,0-1.7,0-2.5s0-1.8,0-2.6c0.1-1,0.1-2,0.1-3c0.1-1.3,0.2-2.7,0.1-4s-0.1-2.4-0.1-3.6c0-0.3,0-0.5,0-0.8
	c0-1,0.1-2,0.1-3c0-0.7-0.3-1.4-0.3-2.2c-0.1-1.7-0.2-3.3-0.4-4.9c-0.5-2.8-0.9-5.5-1.1-8.3c0-0.6,0.1-1.2,0.1-1.8
	c0-1,0.1-1.9,0.1-2.9v0.1c0-0.7,0-1.3-0.1-2c0-0.5-0.1-1-0.2-1.5c0.1-1.1,0.2-2.2,0.1-3.4c0-0.8-0.2-1.7-0.4-2.5
	c-0.1-0.3-0.1-0.5-0.2-0.8c-0.1-0.5-0.2-1-0.4-1.6c0.1,0.3,0.2,0.7,0.2,1.1c-0.1-0.4-0.2-0.7-0.3-1.1c-0.1-0.4-0.1-0.8-0.1-1.2
	c-0.1-0.6-0.2-1.2-0.4-1.7c0-0.1,0-0.2,0-0.3c0-0.4-0.1-0.7-0.2-1.1v-0.1c0.2-0.6,0.2-1.2,0.1-1.8c-0.1-0.8-0.4-1.6-0.9-2.3
	c-0.7-0.9-1.7-1.5-2.8-1.7c-0.2,0-0.4,0-0.6,0C340.7,28.8,339.8,29.1,339.1,29.5L339.1,29.5z M337.6,32.8L337.6,32.8L337.6,32.8
	L337.6,32.8z M338.5,41.2l0.1,0.5v0.1C338.6,41.6,338.5,41.4,338.5,41.2L338.5,41.2z M340.3,93.7c0,0.2,0,0.3,0,0.5
	C340.3,94,340.3,93.8,340.3,93.7z M338.1,132.2l-0.1,0.3L338.1,132.2z"/>
<path class="st0" d="M115.3,96.9c-0.2,0-0.4,0.1-0.7,0.1c-0.3,0-0.6,0-0.8,0h-0.2h-0.4c-0.3,0-0.5,0-0.8,0s-0.7,0-1,0h0.2h-0.3H111
	h-0.1c-0.9,0.3-1.7,0.6-2.5,0.9c-0.5,0.3-1.1,0.4-1.7,0.6s-1.1,0.4-1.7,0.7c-1.1,0.4-2.2,0.9-3.3,1.4s-2.3,1-3.4,1.5
	c-1.4,0.5-2.7,1.2-4.1,1.7c-3.7,1.4-7.2,3.2-10.8,4.8c-1.9,0.8-3.9,1.5-5.9,2.3s-3.6,1.7-5.4,2.4c-1.7,0.7-3.2,1.5-4.9,2.1
	c-1.9,0.7-3.7,1.4-5.6,2.1s-3.6,1.2-5.3,1.8c-1.5,0.6-3,1.2-4.6,1.7l-5.2,2c-1.7,0.6-3.3,1.2-5,1.6l-0.4,0.1l1.1-0.3
	c-2.1,0.5-4.1,1.1-6.2,1.8c-1.8,0.7-3.6,1.2-5.5,1.7c-1.6,0.3-3.3,0.5-5,0.5h-0.1c-0.7,0-1.5-0.1-2.2-0.2s-1.6-0.1-2.5-0.1
	s-1.5-0.1-2.3-0.1c-0.5,0-1-0.1-1.4-0.2c-0.7-0.3-1.4-0.6-2.1-1c-0.2-0.1-0.3-0.3-0.5-0.4c-0.4-0.4-0.7-0.8-1.1-1.2l0.5,0.6
	c-1.4-1.6-2.4-3.3-3.7-4.9c-1.4-1.9-4-2.3-6-0.9c-1.9,1.4-2.3,4-0.9,5.9c0.8,1.1,1.6,2.3,2.5,3.5c0.5,0.7,1.1,1.4,1.7,2
	c0.6,0.8,1.3,1.6,2.2,2.2c1,0.6,2,1.2,3,1.7c1.3,0.6,2.6,1,4,1.2s2.8,0.2,4.2,0.2c0.6,0,1.2,0.1,1.7,0.2c1.1,0.1,2.3,0.1,3.4,0.1
	h-1.1c1.7,0.1,3.5,0,5.2-0.2c1.8-0.3,3.6-0.8,5.3-1.3c2.6-0.7,5-1.8,7.6-2.4c1.8-0.4,3.5-1,5.2-1.6c1.6-0.6,3.2-1.1,4.9-1.7
	s3.3-1.1,4.9-1.8s3.3-1.2,4.9-1.7c2-0.7,3.9-1.3,5.8-2.1c0.8-0.3,1.6-0.6,2.4-0.9s1.7-0.8,2.6-1.2c1.7-0.8,3.4-1.5,5.2-2.3
	c2-0.9,4-1.6,6-2.4s3.8-1.7,5.8-2.6c1.7-0.8,3.4-1.6,5.1-2.3c1.6-0.6,3.1-1.2,4.6-1.8c1.2-0.5,2.3-0.9,3.5-1.4s2.2-1.1,3.4-1.5
	s2.2-0.9,3.3-1.3c0.9-0.3,1.7-0.7,2.6-1s1.9-0.6,2.8-1c0.2-0.1,0.4-0.2,0.6-0.2c2.2-0.9,3.3-3.3,2.4-5.5c-0.3-0.8-0.8-1.5-1.5-1.9
	h-0.2h-0.6C116.1,96.8,115.7,96.9,115.3,96.9L115.3,96.9z"/>
<path class="st0" d="M204,100.9c-0.6,0.4-1.3,0.9-1.9,1.2l-0.3,0.1c-0.2,0.2-0.5,0.3-0.8,0.4l0.4-0.2c-0.5,0.3-1,0.6-1.6,0.9
	l0.8-0.4l-0.1,0.1l0.2-0.1l0.2-0.1c-2.1,1.1-4.1,2.4-6.1,3.6c-0.4,0.2-0.9,0.4-1.3,0.7l0,0l0.5-0.3l-0.9,0.5l-1.1,0.6l0.2-0.1
	l-0.4,0.2l-0.2,0.1l-1,0.5c-0.7,0.4-1.4,0.7-2,1.1l-1.9,1l0.4-0.2l-0.6,0.3l-0.4,0.2l0.2-0.1l-0.6,0.3l0.7-0.4l0.2-0.1
	c-2.8,1.6-5.6,3.2-8.4,4.8l1-0.5c-1.8,1-3.6,2.1-5.4,3.1c-1.5,0.8-3,1.5-4.4,2.3s-2.9,1.8-4.4,2.6c-1,0.5-2,1.1-3,1.6
	s-1.8,1.1-2.8,1.6c-5,2.7-9.8,5.8-14.8,8.6c-2.4,1.3-4.9,2.5-7.3,3.9c-2.1,1.2-4.2,2.5-6.3,3.6c-0.9,0.4-1.7,0.9-2.6,1.4
	c-0.6,0.4-1.2,0.7-1.8,1.1c-0.8,0.4-1.6,0.8-2.4,1.3s-1.3,0.8-2,1.2l-0.2,0.1l-0.1,0.1l0.1-0.1c-1,0.5-2,1.1-2.9,1.8
	c-0.5,0.4-1,0.8-1.6,1.2s-1.3,0.8-1.9,1.3c-0.9,0.7-1.5,1.6-1.7,2.7c-0.2,1.1,0.1,2.3,0.8,3.2c1.4,1.9,4,2.3,5.9,0.9
	c1-0.9,2.2-1.5,3.3-2.4c0.8-0.7,1.7-1.2,2.7-1.8c0.5-0.3,1.1-0.6,1.6-0.9c0.3-0.2,0.6-0.4,1-0.6c0.8-0.4,1.7-0.8,2.5-1.3
	s1.4-0.9,2.2-1.3c1.4-0.7,2.8-1.5,4.2-2.3c1.9-1.1,3.8-2.3,5.8-3.4c1.3-0.7,2.7-1.3,4-2c1.9-1,3.8-2.1,5.7-3.2
	c1.5-0.9,3-1.8,4.5-2.7c1.3-0.8,2.6-1.6,3.9-2.3c1-0.5,1.9-1,2.8-1.5s2-1.2,3.1-1.8c1.5-0.8,3-1.6,4.5-2.6c0.9-0.6,1.8-1.1,2.7-1.6
	c1.6-0.8,3.2-1.6,4.7-2.5c1.1-0.6,2-1.2,3.1-1.8l-0.4,0.2c2.8-1.5,5.6-3.2,8.4-4.8l0.3-0.2l0.3-0.2c0.8-0.4,1.6-0.9,2.4-1.3
	l-0.1,0.1c0.6-0.3,1.1-0.6,1.7-0.9l0.4-0.2l-0.2,0.1l2.3-1.2l-1,0.5l0.5-0.3c0.8-0.4,1.6-0.8,2.4-1.3c0.5-0.3,1.1-0.7,1.6-1
	c1.1-0.6,2.1-1.3,3.2-1.9l0.7-0.4l-1,0.5c0.5-0.3,1-0.5,1.5-0.8l-1,0.5l0.9-0.5c0.6-0.3,1.2-0.7,1.8-1s1-0.7,1.5-1
	c1.9-1.4,2.3-4,0.9-5.9c-0.8-1.1-2-1.7-3.4-1.7C205.7,100.2,204.9,100.4,204,100.9L204,100.9z M186.8,110.7L186.8,110.7L186.8,110.7
	L186.8,110.7L186.8,110.7z"/>
<path class="st0" d="M219.3,110.8l-2.8,1.8l-2.4,1.6l0,0l-0.8,0.5c-1.2,0.7-2.3,1.4-3.5,2.2s-2.3,1.5-3.5,2.3l0.1-0.1l-0.1,0.1
	l-0.2,0.1l0.1-0.1c-1.1,0.7-2.2,1.2-3.3,1.9s-2.4,1.5-3.6,2.3l0,0l-0.3,0.2l0,0l0,0l0,0l-0.4,0.2l0.2-0.1l0.2-0.1l-0.1,0.1h0.1
	c-1.6,1-3.2,2.2-4.8,3.3l-2.2,1.6c-0.7,0.5-1.5,1-2.2,1.5c-1.2,0.7-2.4,1.4-3.7,2c-1.4,0.6-2.8,1.2-4.1,1.9c-0.7,0.3-1.4,0.7-2,1
	s-1.4,0.7-2.1,1.1c-1.4,0.7-2.9,1.4-4.2,2.1c-1,0.6-2,1.2-3,1.8l0.3-0.2l-0.9,0.6l0.1-0.1c-0.9,0.6-1.8,1.2-2.7,1.8
	c-0.2,0.1-0.4,0.2-0.5,0.4l-0.2,0.1l0,0l0.1-0.1l-0.1,0.1c-0.1,0-0.2,0.1-0.2,0.1c-1.1,0.7-2.2,1.3-3.3,2s-2.4,1.7-3.5,2.6
	c-0.6,0.5-0.7,1.5-0.2,2.1s1.5,0.7,2.1,0.2c1.2-0.9,2.3-1.8,3.5-2.6c0.8-0.5,1.6-1,2.5-1.5c0.3-0.1,0.5-0.3,0.7-0.5l0.2-0.1
	c0.1-0.1,0.2-0.1,0.4-0.2c1-0.6,1.9-1.3,2.9-1.9l-0.1,0.1l0.2-0.1l0.1-0.1l-0.1,0.1l0.6-0.4c0.6-0.4,1.2-0.8,1.8-1.1
	s1.4-0.8,2.1-1.1c1.4-0.7,2.9-1.4,4.2-2.2s2.8-1.4,4.2-2.1s2.7-1.3,4.1-2c2-1.1,3.8-2.3,5.6-3.6s3.6-2.6,5.5-3.9l0,0l0.6-0.4h-0.1
	h0.1l0.1-0.1h-0.1l0,0l-0.3,0.2l0.3-0.2l0.4-0.2l0.2-0.1l0,0c1.7-1.1,3.5-2.2,5.3-3.2c1.1-0.6,2.1-1.3,3.1-1.9l2.6-1.7l3.4-2.1h-0.1
	c1.4-0.9,2.8-1.8,4.2-2.7l0.9-0.6c0.4-0.2,0.6-0.5,0.8-0.8c0.1-0.4,0.1-0.8-0.1-1.2c-0.2-0.4-0.5-0.6-0.9-0.8
	c-0.2-0.1-0.4-0.1-0.6-0.1C219.7,110.5,219.5,110.5,219.3,110.8L219.3,110.8z M201.3,125.7l-0.2,0.1l-0.1,0.1L201.3,125.7
	L201.3,125.7z M201.3,125.7l-0.1,0.1L201.3,125.7z M201,125.9l-0.2,0.1L201,125.9z M170.6,140.1L170.6,140.1L170.6,140.1z
	 M168.8,144.9L168.8,144.9L168.8,144.9L168.8,144.9z M165.2,147.1L165.2,147.1L165.2,147.1z M172.1,142.7L172.1,142.7L172.1,142.7
	L172.1,142.7z M200.7,126.1L200.7,126.1L200.7,126.1L200.7,126.1L200.7,126.1L200.7,126.1z M199.3,123.5L199.3,123.5L199.3,123.5
	L199.3,123.5z M199.5,123.3l-0.2,0.1l0,0L199.5,123.3L199.5,123.3l0.2-0.1L199.5,123.3L199.5,123.3z M199.7,123.2L199.7,123.2
	L199.7,123.2z M206.4,119.1L206.4,119.1L206.4,119.1z"/>
<path class="st0" d="M232.8,113.4c-0.4,0.2-0.8,0.4-1.2,0.6s-1,0.7-1.4,1l-2.6,1.8c-0.9,0.6-1.7,1.2-2.5,1.8s-1.7,1.1-2.5,1.7
	L220,122l0.3-0.2c-1.3,0.8-2.6,1.6-4,2.3c-0.6,0.4-1.3,0.7-1.9,1.1s-1.3,0.8-2,1.2c-1.4,0.9-2.8,1.8-4.2,2.8s-2.4,1.8-3.6,2.6
	s-2.6,1.8-3.9,2.6c-1.6,1-3.3,2.1-5,3c-0.8,0.5-1.7,0.9-2.5,1.4c-1,0.6-2,1.2-3,1.9l0.3-0.2c-2.6,1.6-5.1,3.4-7.6,5
	c-1.5,0.9-3,1.8-4.5,2.8c-0.4,0.2-0.6,0.5-0.8,0.9c-0.3,0.8,0.1,1.6,0.9,1.9c0.4,0.2,0.8,0.2,1.1,0c2-1.3,4.1-2.5,6.1-3.8
	s3.8-2.5,5.7-3.8l1-0.6c1.3-0.8,2.6-1.6,3.9-2.3c1.3-0.7,2.6-1.5,3.9-2.3s2.7-1.7,4.1-2.6s2.6-1.8,3.9-2.7l2.5-1.8
	c0.8-0.6,1.6-1.1,2.5-1.6c0.7-0.4,1.4-0.9,2.1-1.3s1.5-0.9,2.3-1.4s1.6-0.9,2.4-1.4s1.7-1,2.5-1.6l-0.3,0.2c1-0.6,2-1.3,3-1.9
	s1.9-1.3,2.9-2s1.8-1.3,2.6-1.9s1.6-1.1,2.4-1.7c0.4-0.2,0.7-0.3,1.1-0.5c0.8-0.3,1.1-1.2,0.7-2c-0.3-0.5-0.8-0.9-1.4-0.9
	C233.1,113.2,232.9,113.3,232.8,113.4L232.8,113.4z M222.6,120.2l-0.2,0.1L222.6,120.2z M213,129.5l-0.2,0.1L213,129.5z
	 M191.3,143.5l-0.2,0.1L191.3,143.5z M182.7,145.7l-0.1,0.1L182.7,145.7z"/>
<path class="st0" d="M248.6,116.8c-0.6,0.3-1.1,0.7-1.7,1.1c-1,0.6-1.9,1.2-2.9,1.7s-1.9,1-2.9,1.5c-2,1.1-4,2.3-5.9,3.6
	c-1.2,0.8-2.4,1.5-3.7,2.3s-2.5,1.5-3.7,2.3c-1,0.6-2.1,1.3-3.1,2s-2.1,1.4-3.2,2.1c-2,1.3-4,2.7-6.1,4.1c-2,1.3-4,2.5-6,3.8
	s-3.7,2.7-5.6,4c-1,0.6-2,1.2-3,1.8c-1.2,0.7-2.3,1.5-3.4,2.2c-0.3,0.2-0.5,0.6-0.5,1s0.1,0.8,0.4,1.1c0.3,0.3,0.6,0.5,1,0.5
	s0.8-0.1,1.1-0.4l2-1.3c0.9-0.6,1.8-1.1,2.8-1.6c1.1-0.6,2.1-1.3,3.2-2s1.9-1.4,2.8-2.1s1.8-1.2,2.7-1.8c1.1-0.7,2.3-1.4,3.4-2.1
	c1.4-0.9,2.7-1.8,4.1-2.7c2.4-1.6,4.7-3.2,7-4.7c1.2-0.7,2.4-1.5,3.5-2.2s2.5-1.5,3.8-2.3c1.4-0.9,2.8-1.8,4.2-2.7
	c1.6-1,3.3-2,5-2.8c1.7-0.9,3.4-1.8,5-2.9l-0.1,0.1l0.2-0.2h0.1H249c0.3-0.2,0.7-0.4,1-0.6c0.4-0.2,0.6-0.5,0.8-0.8
	c0.1-0.4,0.1-0.8-0.1-1.2c-0.2-0.4-0.5-0.6-0.9-0.8c-0.2-0.1-0.4-0.1-0.5-0.1C249,116.7,248.8,116.7,248.6,116.8L248.6,116.8z
	 M201.6,150c-0.1,0.1-0.1,0.1-0.2,0.1L201.6,150z M248.9,120.1l-0.1,0.1L248.9,120.1L248.9,120.1z"/>
<path class="st0" d="M264.5,120.4c-0.7,0.3-1.4,0.7-2.1,1.1s-1.3,0.7-2,1c-1.4,0.7-2.8,1.3-4.2,2c-1.4,0.6-2.7,1.3-4,2
	c-1.5,0.9-2.9,1.8-4.3,2.8c-1.2,0.8-2.3,1.7-3.4,2.6s-2.3,1.6-3.5,2.4c-1.3,0.9-2.7,1.8-4.1,2.8c-1.1,0.8-2.2,1.6-3.3,2.3
	c-1.7,1.1-3.4,2.1-5,3.2s-3.1,2.2-4.8,3.3c-0.9,0.6-1.9,1.2-2.9,1.7c-1.2,0.7-2.5,1.2-3.7,1.8c-0.7,0.4-1.1,1.3-0.7,2s1.3,1.1,2,0.7
	c1.3-0.6,2.6-1.2,3.9-1.9s2.5-1.4,3.7-2.2s2.3-1.6,3.4-2.4s2.2-1.5,3.4-2.2c-0.1,0.1-0.2,0.1-0.3,0.2c1.4-0.9,2.8-1.7,4.1-2.6
	c1.5-1,3-2.1,4.4-3.1c1.3-0.9,2.6-1.7,3.8-2.6s2.5-1.9,3.8-2.8c1.1-0.8,2.1-1.5,3.2-2.3s2.2-1.3,3.3-1.9c1.1-0.6,2.4-1.1,3.6-1.7
	s2.3-1.1,3.4-1.6s2.3-1.3,3.5-1.9c0.7-0.4,1.1-1.2,0.7-2c-0.3-0.5-0.8-0.9-1.4-0.9C264.9,120.2,264.7,120.3,264.5,120.4L264.5,120.4
	z M252.3,130.1l-0.2,0.1L252.3,130.1z"/>
<path class="st0" d="M277.6,124.3c-0.7,0.3-1.4,0.8-2.1,1.2s-1.3,0.8-2,1.1s-1.4,0.6-2,1s-1.3,0.7-2,1.1c-2.7,1.7-5.4,3.5-7.8,5.6
	c-1.5,1.2-3.1,2.4-4.7,3.4c-1.3,0.8-2.6,1.6-3.9,2.3c-1.4,0.8-2.8,1.6-4.2,2.5c-2.8,1.7-5.6,3.4-8.3,5.3c-2.4,1.6-4.6,3.3-6.9,5
	c-0.6,0.5-0.7,1.5-0.2,2.1c0.3,0.3,0.6,0.5,1.1,0.5c0.4,0,0.8-0.1,1.1-0.4l5.5-4c1.8-1.3,3.6-2.4,5.4-3.6l-0.1,0.1l0.1-0.1l0.2-0.1
	l-0.2,0.1c1.3-0.8,2.6-1.6,3.9-2.3s2.8-1.7,4.3-2.5c1.4-0.8,2.9-1.6,4.2-2.5s2.7-1.8,3.9-2.9s2.4-1.9,3.6-2.8s2.2-1.6,3.3-2.3
	c0.7-0.4,1.3-0.8,2-1.2s1.5-0.8,2.3-1.1c0.8-0.4,1.6-0.8,2.3-1.3c0.8-0.5,1.6-1,2.4-1.4s1.1-1.2,0.7-2S278.3,124,277.6,124.3
	L277.6,124.3z M270,131.9L270,131.9L270,131.9z M246.6,147.4L246.6,147.4L246.6,147.4L246.6,147.4L246.6,147.4z"/>
<path class="st0" d="M25.1,39.5l-7.4,2.1c-1.3,0.4-2.5,0.8-3.8,1.3c-1.1,0.5-2.2,1.2-3.3,1.8c-0.8,0.5-1.1,1.6-0.6,2.4
	c0.5,0.8,1.6,1.1,2.4,0.6c0.6-0.3,1.2-0.7,1.9-1.1s1-0.5,1.5-0.8c1.6-0.6,3.2-1.1,4.8-1.5l5.4-1.5c0.9-0.2,1.5-1.2,1.2-2.1
	c-0.2-0.8-0.9-1.3-1.7-1.3C25.4,39.5,25.3,39.5,25.1,39.5L25.1,39.5z"/>
<path class="st0" d="M33.8,47.4L31,48.1c-0.9,0.3-1.8,0.6-2.7,0.9c-1.8,0.7-3.6,1.4-5.4,2.2s-3.3,1.6-4.9,2.5s-3.1,1.8-4.6,2.9
	c-0.6,0.4-1.1,0.9-1.6,1.4c-0.7,0.7-0.6,1.8,0.1,2.5c0.7,0.7,1.8,0.7,2.5,0l0.7-0.6c1.6-1.2,3.2-2.2,4.9-3.1c1.9-1,3.8-2,5.7-2.9
	c1.4-0.6,2.8-1.2,4.2-1.7c1.6-0.6,3.3-1,5-1.4c0.9-0.3,1.5-1.2,1.2-2.2c-0.2-0.8-0.9-1.3-1.7-1.3C34.2,47.3,34.1,47.3,33.8,47.4
	L33.8,47.4z M25.6,53.9L25.2,54L25.6,53.9z"/>
<path class="st0" d="M28.1,63.6c-1.5,0.1-3,0.3-4.5,0.6c-0.9,0.3-1.8,0.6-2.6,1.1c-0.6,0.3-1.2,0.6-1.8,0.9
	c-1.2,0.7-2.4,1.3-3.6,1.9S13.2,69.3,12,70c-0.8,0.5-1.1,1.6-0.6,2.4s1.6,1.1,2.4,0.6c0.8-0.5,1.6-0.9,2.4-1.4
	c0.8-0.4,1.6-0.8,2.5-1.3c1.7-0.9,3.3-1.8,5-2.6c0.6-0.2,1.1-0.4,1.7-0.4c0.9-0.1,1.8-0.2,2.6-0.3c0.5,0,0.9-0.2,1.2-0.6
	c0.7-0.7,0.7-1.8,0-2.5c-0.3-0.3-0.7-0.5-1.2-0.5L28.1,63.6z M25.3,67.5L25.3,67.5z"/>
<path class="st0" d="M31.9,77.3c-3.5,1.4-7.1,2.7-10.8,3.9c-1.7,0.6-3.5,1.2-5.1,1.9c-1.6,0.7-3.2,1.6-4.6,2.7
	c-0.9,0.7-1.8,1.5-2.6,2.3c-0.7,0.7-0.6,1.8,0.1,2.5c0.7,0.7,1.8,0.6,2.5-0.1c0.5-0.6,1.1-1.1,1.7-1.6c0.7-0.6,1.5-1.1,2.3-1.6
	c0.8-0.4,1.5-0.8,2.3-1.1c2.4-1,4.9-1.8,7.4-2.6c1.3-0.4,2.5-0.9,3.8-1.4s2.7-1,4-1.5c0.4-0.2,0.8-0.4,1-0.8
	c0.5-0.8,0.2-1.9-0.7-2.4l0,0c-0.3-0.1-0.6-0.2-0.9-0.2C32.1,77.2,32,77.2,31.9,77.3L31.9,77.3z"/>
<path class="st0" d="M326.6,61.9c0,1,0.8,1.7,1.8,1.7s1.9,0.1,2.9,0.2c1.4,0.2,2.9,0.4,4.3,0.6c1.7,0.3,3.3,0.7,5,1.1
	c0.9,0.2,1.9-0.3,2.1-1.3c0.2-0.9-0.3-1.9-1.3-2.1l0,0c-2.1-0.5-4.2-1-6.3-1.4c-1-0.2-2-0.3-3-0.4c-1.2-0.2-2.5-0.3-3.7-0.3l0,0
	C327.4,60.1,326.6,60.9,326.6,61.9L326.6,61.9z M330.9,63.8h0.1H330.9z"/>
<path class="st0" d="M325.5,72.1c-0.4,0.2-0.7,0.6-0.8,1.1c-0.2,0.9,0.3,1.9,1.3,2.1l0,0l4,0.7c1.2,0.2,2.5,0.3,3.7,0.6
	s2.5,0.6,3.8,0.9s2.7,0.8,4,1.2c0.9,0.3,1.9-0.3,2.2-1.2c0.3-0.9-0.3-1.9-1.2-2.2h-0.1c-1.3-0.4-2.7-0.8-4-1.2s-2.5-0.6-3.7-0.9
	s-2.5-0.4-3.8-0.6s-2.7-0.5-4-0.7c-0.1,0-0.3,0-0.5,0C326.1,71.9,325.8,72,325.5,72.1L325.5,72.1z"/>
<path class="st0" d="M317.3,46.2c-0.3,0.3-0.5,0.8-0.5,1.2c0,0.5,0.2,0.9,0.5,1.2s0.6,0.4,1,0.5l0,0h0.3h0.1
	c0.9,0.1,1.7,0.2,2.6,0.2c3.1,0.4,6.1,0.9,9.1,1.7c1.6,0.4,3.2,0.8,4.7,1.2s3.3,1.1,4.9,1.7c0.5,0.1,0.9,0,1.3-0.2s0.7-0.6,0.8-1.1
	c0.1-0.5,0-0.9-0.2-1.3c-0.2-0.4-0.6-0.7-1.1-0.8c-1.8-0.7-3.6-1.3-5.5-1.9c-1.6-0.5-3.4-0.9-5-1.3s-3.5-0.7-5.3-1s-3.6-0.5-5.4-0.7
	h-0.4l-0.8-0.1h-0.1C318,45.7,317.6,45.9,317.3,46.2L317.3,46.2z M319.1,45.7h0.2H319.1z"/>
<path class="st0" d="M331.2,96c-0.2,0.9,0.3,1.9,1.3,2.1c2,0.5,3.9,1.2,5.8,1.8c0.9,0.2,1.9-0.3,2.1-1.3c0.2-0.9-0.3-1.9-1.3-2.1
	c-1.9-0.6-3.8-1.3-5.8-1.8c-0.1,0-0.3,0-0.4,0C332.2,94.7,331.5,95.2,331.2,96z"/>
<path class="st0" d="M308.5,108c0,0.5,0.2,0.9,0.5,1.2c0.3,0.3,0.8,0.5,1.2,0.5l0.8,0.1h0.3c1.1,0.2,2.2,0.4,3.2,0.6
	s2.4,0.6,3.6,0.8c2.2,0.5,4.4,1.3,6.5,2.1c1.7,0.7,3.3,1.4,5,2.1c0.8,0.3,1.6,0.7,2.4,1s1.8,0.7,2.7,1l0,0c0.6,0.2,1.1,0.4,1.7,0.6
	c0.8,0.2,1.5,0.4,2.3,0.7c0.9,0.3,1.9-0.3,2.2-1.2c0.3-0.9-0.3-1.9-1.2-2.2h-0.1c-1.1-0.3-2.2-0.6-3.3-1c-0.9-0.3-1.7-0.7-2.6-1
	c-3.4-1.4-6.8-2.9-10.2-4.2c-0.8-0.3-1.6-0.6-2.4-0.8s-1.7-0.5-2.5-0.7c-1.7-0.4-3.4-0.8-5.1-1.1c-0.6-0.1-1.1-0.2-1.7-0.3h-0.3
	h-0.1l0,0c-0.4,0-0.8-0.1-1.2-0.1h-0.1C309.2,106.2,308.5,107,308.5,108L308.5,108z M310.6,109.8h0.1H310.6z M334.4,117.4l0.1,0.1
	L334.4,117.4z M311.5,106.4h0.3l0,0l-0.4-0.1L311.5,106.4z"/>
<g>
	<path id="SVGID_x5F_1_x5F_" class="st1" d="M44.9,84c27.4-8.1,67-16.3,115-15c63.7,1.8,113.4,19.6,143,33"/>
	<text>	<textPath  xlink:href="#SVGID_x5F_1_x5F_" startOffset="8.2031%">
<tspan  class="st0" style="font-family:'GreycliffCF-DemiBold'; font-size:52px;">Instagram</tspan>	</textPath>
</text>
</g>
</svg>
