<svg xmlns="http://www.w3.org/2000/svg" viewBox="0 0 260.67 261.95" xmlns:v="https://vecta.io/nano"><path d="M260.62 158l-.25-2.4a24.07 24.07 0 0 1-.27-2.83v-5.4c0-1.14-.1-2.3-.18-3.4 0-.63-.12-1.27-.12-1.9l-.07-5.9a52.24 52.24 0 0 0-.22-6 33.78 33.78 0 0 1 .07-5.69l.08-1.1a35.32 35.32 0 0 0 .18-4.11c0-1.06-.14-2.17-.25-3.17l-.23-2.52-.13-5.9-.07-4.15-.05-1.85-.44-8.9-.15-2.43c-.15-1.9-.13-3.9-.15-5.74l-.14-5.57-.06-1-.33-4.6-.43-3.47-.27-2.08-.28-2.12-.38-3-.2-3.1c0-.64-.1-1.3-.1-1.94l-.28-2.92-.2-1.92-.15-2.12a17 17 0 0 0-.16-2.28l-.46-2.16-.57-2.8-.1-.53a37.07 37.07 0 0 0-1.07-5l-.23-.76-1.2-4.16-.76-2.83a16.39 16.39 0 0 0-.63-1.64 43.15 43.15 0 0 0-4.26-7.92l-1.94-2.23a21.73 21.73 0 0 0-2-1.71l-.86-.64-2.26-1.7-1.23-1.1c-.23-.24-.52-.48-.8-.7a17.84 17.84 0 0 0-2.73-1.62 32.06 32.06 0 0 0-4.71-1.35l-5.15-1.12-.6-.14-4-1-2-.65-2.36-.73A85.83 85.83 0 0 0 205 3.9l-4.95-.87-4.94-.85h-.1a106.39 106.39 0 0 0-11-.61h-.8c-3.14 0-6.5-.07-10.9-.22-2.13-.08-4.1-.2-6-.35-1.53-.13-3.53-.3-5.53-.3h-.44c-1.4 0-2.84 0-4.17.07s-2.67.06-4 .06h-2.48L145.33.6c-2.25-.14-4.54-.3-6.8-.3h-16.38l-4.5-.17h-1.1C113.9 0 111.22 0 108.62 0h-4.45c-2.57 0-5.17.12-7.7.24L93.6.37c-4.1.17-7.8.34-11.5.77a52.88 52.88 0 0 1-6 .43h-2c-1.3 0-2.66 0-4 .1-3.1.17-6.44.5-10.82 1.07-1.94.3-3.43.6-4.84.94s-3.23.7-5.23 1l-.1-.07-.57.08-2.26.3a45.18 45.18 0 0 0-9 2.43C36.1 8 35 8.65 33.9 9.28l-1.5.85a52 52 0 0 1-5.59 2.53l-.53.22c-.88.4-1.6.74-2.33 1.14-.93.53-1.83 1.14-2.7 1.73l-.33.22L18 18c-.4.44-.83.92-1.24 1.44a15.52 15.52 0 0 0-1.44 2.21 22.8 22.8 0 0 0-1 2.19 43.86 43.86 0 0 0-1.69 5c-.32 1.17-.7 2.34-1.06 3.47l-.4 1.25a44.77 44.77 0 0 0-1.32 4.83l-.38 2-.63 3.2-.73 3.17c-.5 2.17-1 4.4-1.38 6.65l-.13.9-1.06 7.23q-.18 1.58-.4 3.15v-.3l-.66 6.68c-.23 2.4-.37 4.38-.43 6.24 0 1.35-.12 2.68-.2 4a111.52 111.52 0 0 0-.23 6.87c0 .7.06 1.4.06 2.1.06 1.26.1 2.44.06 3.84s-.1 2.8-.18 4.2c0 .67-.1 1.33-.1 2 0 .94-.1 1.87-.14 2.8-.06 1.2-.17 2.53-.17 3.58v5.8l-.2 5.58v.57c0 .87-.07 1.67-.15 2.62s-.2 1.9-.32 2.86v.47a58.66 58.66 0 0 0-.59 7.6v.75a32.16 32.16 0 0 1 0 3.54c0 .57-.08 1-.13 1.7s-.14 1.44-.14 2.16c-.07 1.1-.13 2.22-.13 3.33 0 1.4-.08 2.84-.2 4.26l-.17 2.23c-.25 1.85-.43 3.8-.43 5.72 0 2.14-.2 4.25-.32 5.85l-.07.83c-.13 1.58-.28 3.2-.28 4.82v5.7c-.06 2.15 0 3.95.1 5.67a89.96 89.96 0 0 1 .14 3.09c.03.9.1 1.8.1 2.7.1 1.56.26 3.13.43 4.65l.08.75c.15 1.36.22 2.7.3 4 0 .63.1 1.25.1 1.88.1 1.55.24 3.08.43 4.55a29.05 29.05 0 0 0 1.19 5.14c.62 1.78 1.2 3.68 1.83 5.78l.83 2.73.94 3.13a37.13 37.13 0 0 1 .49 1.81c.3 1.1.6 2.25 1 3.35.3.63.6 1.2.92 1.88l1 2.1a23.49 23.49 0 0 0 2.17 3.85 53.34 53.34 0 0 0 5.45 6.28 159.71 159.71 0 0 0 3.33 3.08l.3.26c.93.86 1.93 1.75 2.93 2.57a15.94 15.94 0 0 0 2.94 1.7l.2.1c1.3.58 2.65 1.2 3.93 1.9.74.4 1.46.86 2.16 1.3l1.25.78a27.46 27.46 0 0 0 2.83 1.39l2.86 1.15A67.93 67.93 0 0 0 52 254.12c3.17.66 6.44 1.08 9.6 1.5l1.06.14c5.32.6 10.53 1.18 15.8 1.42l4 .12 4 .1c2.3.1 4.73.34 7.87.73 1.56.2 3 .4 4.56.64l3 .43c2.57.27 5.18.4 7.7.5l3.12.16q1.77.1 3.54.24c2.37.17 4.83.35 7.25.35h5.9c1.62 0 3.25.15 4.83.27l1.05.07c3.6.27 7.26.45 10.86.45 4.4 0 7.77.17 11 .4 2.4.2 4.56.28 6.63.28 1.56 0 3.1-.05 4.56-.16l4.9-.42h.5c1.52-.14 3-.2 4.52-.24h1.1l11.92-.6c3.67-.15 7.4-.64 10.6-1.08l4-.64 2.6-.43 2.2-.33c1.63-.24 3.3-.48 4.94-.84a43.58 43.58 0 0 0 5.81-1.63c.64-.25 1.28-.48 1.92-.7l3-1.14a43.94 43.94 0 0 0 4.85-2.77l1.2-.74c1.27-.8 2.6-1.6 3.83-2.5 1.34-1.1 2.64-2.28 3.9-3.44l2-1.8c1-.9 2-1.9 3.1-3.05l.1-.1 2.67-3c.62-.82 1.14-1.56 1.62-2.28l.3-.45a27.3 27.3 0 0 0 1.62-2.63c.56-1.07 1-2.2 1.5-3.28l.1-.22.66-1.53.57-1.28c1.26-3.22 2.23-6.5 2.94-9 .48-1.68.86-3.2 1.13-4.57s.47-2.75.64-4.05c.2-2.08.3-4.22.3-6.22 0-1.33.1-2.44.2-3.5s.27-2.06.42-3.06l.16-1a52.3 52.3 0 0 0 .26-5.87v-2.12c0-1.36-.05-2.76 0-4.14 0-.86.08-1.72.14-2.58.06-1.07.15-2.2.15-3.28 0-2.16-.1-4.38-.25-6.33a38.27 38.27 0 0 1 .14-5.46 37.53 37.53 0 0 0 .06-5.48zM186.4 26.45a4.39 4.39 0 0 1 2.85-1.19c1.2-.13 2.42-.2 3.6-.25.76 0 1.53-.07 2.3-.13l1.77-.13 3.77-.26h.24c1.13 0 2.3-.1 3.46-.1h.1c.85 0 1.64 0 2.4.1 1.9.16 3.8.4 5.64.65l.46.06c1.63.17 3.3.28 4.9.38a69.55 69.55 0 0 1 8.52.92c.7.13 1.4.3 2.08.45l.82.2.63.13.82.18A5 5 0 0 1 232 28a4.14 4.14 0 0 1 1.22 1.21l.12.16a4.53 4.53 0 0 1 .57 2 4.87 4.87 0 0 1 0 1.08v.34c-.06.57-.12 1.13-.23 1.7l-.2 1c-.1.54-.2 1-.28 1.54a22.83 22.83 0 0 0-.14 3.41v.3c.06 1.28.13 2.6.13 3.9v4.23c0 1.15-.14 2.33-.27 3.46l-.06.6a38.82 38.82 0 0 0-.27 4.1 20.25 20.25 0 0 0 .11 2.46 17.15 17.15 0 0 1 .12 1.76 35.46 35.46 0 0 1-.26 5.64c-.08.66-.2 1.33-.3 2l-.22 1.45v.1a9.19 9.19 0 0 1-.53 2.59 6 6 0 0 1-1.34 2.24 6.06 6.06 0 0 1-1.31 1 8 8 0 0 1-2.67.94l-.4.07a15.25 15.25 0 0 1-2.6.31h-.34c-.53 0-1-.1-1.53-.1-.76-.07-1.54-.13-2.32-.13h-1.6c-1.14.05-2.32.1-3.47.1h-.38c-2.7 0-5.44-.25-8.1-.48l-1.6-.13-1.8-.14-3.3-.28a52.88 52.88 0 0 1-6-1l-1.45-.27-1-.18a6.35 6.35 0 0 1-2.27-.8 7.86 7.86 0 0 1-1.15-.92 4.8 4.8 0 0 1-1-1.78 6.64 6.64 0 0 1 .1-3.67v-.2a13.41 13.41 0 0 0 .35-1.81c.05-.58.05-1.15.05-1.73v-1c0-1 .15-2.06.3-3.08.1-.8.27-1.67.4-2.4l.37-2.16c.1-1.22.17-2.45.23-3.65l.06-1.22c.05-.94.16-1.94.26-2.94l.22-2.2.2-2.34c.1-1.12.23-2.27.28-3.4 0-.8.1-1.6.1-2.38 0-1.1.07-2.2.14-3.3a3.31 3.31 0 0 1 .08-.55 4.09 4.09 0 0 1-2.61-7zM86.35 122.3c.33-1.88.76-3.8 1.27-5.74a33.57 33.57 0 0 1 2.06-5.93 38.16 38.16 0 0 1 2-3.59l.3-.48c.72-1.2 1.6-2.6 2.53-3.9 1.16-1.6 2.45-3.15 3.68-4.6s2.34-2.72 3.4-3.83a32.67 32.67 0 0 1 4.92-4.09 20.25 20.25 0 0 1 5.5-2.75 24.12 24.12 0 0 1 3.13-.74l1.62-.32c.76-.17 1.5-.37 2.25-.57.93-.25 1.86-.5 2.86-.7a33.46 33.46 0 0 1 6.06-.82h2.7c1 0 2.06.05 2.9 0s1.7 0 2.54 0h0a23.42 23.42 0 0 1 3.45.22 47.62 47.62 0 0 1 9.1 2.46 3.81 3.81 0 0 1 2.06-.62 3.76 3.76 0 0 1 1 .13l.95.4a12.12 12.12 0 0 1 1.24.64l.18.1.6.33a9.33 9.33 0 0 1 1 .53 27.57 27.57 0 0 1 2.61 1.81l.16.13-.14-.14.45.34a11.58 11.58 0 0 1 2.12 1.9c.45.56.88 1.14 1.3 1.72l.36.48c1 1.22 2.1 2.4 3.2 3.5l.84.84c.73.72 1.48 1.47 2.14 2.26a20.93 20.93 0 0 1 2.85 4.68l.1.2a28 28 0 0 1 1.76 4.41c.18.64.4 1.33.57 1.9l.5 1.7a36.64 36.64 0 0 1 .91 5c.18 1.45.37 2.94.44 4.45a33.14 33.14 0 0 1-.18 4.88l-.73 6a29.09 29.09 0 0 1-1.07 5.05 63.29 63.29 0 0 1-2.34 6.24c-.64 1.43-1.46 3-2.46 4.84a29.19 29.19 0 0 1-2.47 3.58l-.6.8c-.36.46-.7 1-1.07 1.46a35.29 35.29 0 0 1-2.84 3.5 18.92 18.92 0 0 1-1.58 1.39l-.35.28c-1 .8-2 1.58-3 2.3a34.6 34.6 0 0 1-4.58 2.89 60.15 60.15 0 0 1-10.31 4.19 34.4 34.4 0 0 1-9.84 1.85 16 16 0 0 1-1.7-.08 33 33 0 0 1-6-.95c-1.4-.42-2.8-.92-4.13-1.42l-.47-.17-2.1-.75a36.7 36.7 0 0 1-8.55-3.84c-1.56-1-3.1-2.13-4.63-3.2l-2.42-1.65-2.26-1.55a40.58 40.58 0 0 1-5-4.07 19.67 19.67 0 0 1-1.76-2 17.28 17.28 0 0 1-1.94-3 49.79 49.79 0 0 1-2-5.12l-.3-.88-.3-.8a23.06 23.06 0 0 1-1-3.45q-.47-2.53-1-5.05a45.81 45.81 0 0 1-1-6.48 25.12 25.12 0 0 1 .49-6.07zm153.48 1.3l-.05.76c-.1 1.83-.34 3.63-.56 5.32-.14 1.38-.2 2.76-.2 3.93 0 .93-.1 1.86-.15 2.8 0 .74-.12 1.48-.12 2.23-.1 1.44 0 3 0 4.44v.63c0 1.3 0 2.62-.13 3.92l-.06 1c-.07.77-.07 1.54-.07 2.3a16 16 0 0 0 .1 1.7c0 .37.08.74.08 1.1.1.95 0 1.92 0 2.85v1.6c0 1.37 0 2.8.17 4.52a26.35 26.35 0 0 1 .12 3.05v1.57c0 .8.1 1.63.17 2.44.08 1 .17 2 .17 3v10.36c0 .7.08 1.42.08 2.12a24.24 24.24 0 0 1 .08 2.75c0 1-.08 2.13-.14 3.13 0 .7-.12 1.4-.12 2.08-.08.85-.06 1.7-.08 2.56l-.08 2.55c-.03.96-.13 1.92-.22 2.86-.07.72-.18 1.44-.18 2.16-.14 2-.36 3.92-.55 5.38-.27 2.2-.52 4.06-.88 5.92a28.78 28.78 0 0 1-1.87 6c-.34.77-.72 1.62-1.26 2.62l-.25.48a17.1 17.1 0 0 1-1.13 2l-.24.35a9.1 9.1 0 0 1-1.6 1.95l-.14.13a15.84 15.84 0 0 1-1.81 1.36 23.16 23.16 0 0 1-3.14 1.5h-.1l-2.3 1-2.17 1c-1.36.6-2.76 1.25-4.17 1.8a40.45 40.45 0 0 1-5.48 1.61l-1.3.33a57.15 57.15 0 0 1-7 1.31c-.95.12-2 .2-2.85.3l-2.66.27c-1.43.22-3.13.46-4.88.57h-1.66c-.83 0-1.66-.06-2.48-.06h-1c-2.47-.08-5-.23-7.4-.37l-2.9-.17c-2.7-.18-5.45-.18-8-.18h-2.47c-1.55 0-2.95.07-4.55 0s-3.2-.07-4.8-.07c-2.24 0-4.26 0-6.2-.17-1.2-.06-2.37-.17-3.55-.27l-2.26-.18c-1.7-.13-3.5-.24-5.28-.24h-1.58c-1.53.07-3.05.07-4.58.07h-.7c-2.2 0-4.44-.2-6.6-.34l-4.7-.3c-1-.08-2.08-.08-3.08-.08l-2.46-.06c-2-.06-4-.2-6.36-.44a116.2 116.2 0 0 0-11.85-.75h-6.4c-1 0-2 0-3-.1s-2-.1-3-.1H79.9c-1.73-.08-3.44-.08-5.16-.08h-6.26l-1.78.06c-.78.06-1.56.06-2.34.06H63.1c-1.1-.06-2.24-.2-3.32-.33l-1.83-.2a75.56 75.56 0 0 0-2.63-.22c-1.22-.1-2.5-.2-3.74-.35-4.12-.53-8.4-1.4-11.4-4.1a37 37 0 0 1-3.59-3.71 19.85 19.85 0 0 0-1.43-1.56c-.55-.57-1.12-1.16-1.63-1.78a20.94 20.94 0 0 1-2.42-3.94 31.18 31.18 0 0 1-1.31-3.23 25.58 25.58 0 0 0-.57-1.56 17.75 17.75 0 0 1-.95-2.55c-.1-.4-.2-.84-.27-1.23s-.14-.75-.25-1.17-.22-.76-.36-1.26l-.4-1.5a26.92 26.92 0 0 1-.51-3.57l-.06-.6c-.14-1.64-.3-3.34-.34-5V196c0-1 0-2-.12-3.12a42.33 42.33 0 0 1-.77-4.88c0-.4-.08-.82-.08-1.22-.05-.84-.1-1.7-.2-2.55V184c-.14-1.17-.3-2.38-.35-3.58-.07-.88-.07-1.77-.07-2.66v-1.4c0-1-.13-1.92-.22-2.92a11.11 11.11 0 0 1-.11-1.16 35.88 35.88 0 0 1-.17-4.19l.13-4c0-1.28 0-2.58.07-3.83v-7.6c0-1.14.08-2.32 0-3.47 0-.63-.1-1.25-.18-1.86a29.6 29.6 0 0 1-.24-3.26c0-.7.07-1.38.07-2.06a26.27 26.27 0 0 0 0-3.32 43.92 43.92 0 0 1 0-5.85 33.53 33.53 0 0 0 .06-5.11l-.06-.64a19 19 0 0 1-.14-2v-3.24c0-.73.08-1.46.08-2.2a28.56 28.56 0 0 1 .25-2.91c0-.4.07-.8.1-1.16s.07-.7.07-1.07a44.01 44.01 0 0 1 .3-2.42v-1a9.5 9.5 0 0 1 .26-2.49 4.41 4.41 0 0 1 1-1.87 3.29 3.29 0 0 1 .94-2 3.19 3.19 0 0 1 2.08-1h.5l4.35.53 1.4.22 1.63.25a17.63 17.63 0 0 0 2.33.1 53 53 0 0 0 7-.59l.33-.05a23 23 0 0 1 2.86-.33h.8c.84 0 1.62 0 2.37.1l.67.07 5.57.5c.66 0 1.4.1 2.1.1h.58c.36 0 .72-.1 1.1-.1a14.71 14.71 0 0 1 1.49-.1 4.57 4.57 0 0 1 2.67.69l.13.1A4 4 0 0 1 68 106.7a4.35 4.35 0 0 1 .59 2.11 6.8 6.8 0 0 1-.69 2.8 15.79 15.79 0 0 0-.8 2.94l-.1.55c-.17 1.12-.36 2.27-.6 3.4l-.12.6c-.52 2.5-1 5.07-1.43 7.64a63.52 63.52 0 0 0-.26 7.68 54 54 0 0 0 .44 6.66c.3 2 .66 4.08 1.1 6.4a45.27 45.27 0 0 0 2.16 7.92A58.84 58.84 0 0 0 74 165.6c.26.37.44.6.8 1.1s.8 1.05 1.1 1.5l1.76 2.66.27.4a77.77 77.77 0 0 0 2.88 4.17 57 57 0 0 0 4.58 4.48l1.74 1.6c.56.52 1 1 1.64 1.6s1.17 1.15 1.77 1.7a41.54 41.54 0 0 0 2.57 2.22 53.23 53.23 0 0 0 6.93 4.13c2.3 1.16 4.4 2.2 6.6 3.16 1.72.65 3.54 1.27 5.4 1.83l2.8.8 3 .84c.8.24 1.57.5 2.36.76 1 .36 2.08.7 3.08 1a40.38 40.38 0 0 0 4.88 1.06c1.08.1 2.18.15 3.36.15a68.7 68.7 0 0 0 8.35-.63 65.24 65.24 0 0 0 8.42-1.88q2.35-.7 4.68-1.46l2.86-1a43.81 43.81 0 0 0 7.1-4.29l1.8-1.5c1.1-.92 2.24-1.88 3.42-2.76l1.86-1.36 2.56-1.9a32.69 32.69 0 0 0 4.42-4.14 59.14 59.14 0 0 0 2.14-2.64c.64-.84 1.3-1.68 2-2.5 1.16-1.4 2.4-2.72 3.6-4 1.46-1.57 3-3.2 4.37-4.88a36 36 0 0 0 3.66-6.67l.83-2 .18-.45c.82-2.1 1.57-4.3 2.36-7l.1-.32a51.49 51.49 0 0 0 1.4-5.6 14.09 14.09 0 0 0 .08-1.84v-.5c0-1.1.2-2.2.34-3.32l.1-1c.12-1.16.24-2.36.43-3.53l.16-.95.47-2.88a17.64 17.64 0 0 0 .1-3.91l-.44-3.77-.12-.93c-.1-.72-.22-1.32-.37-1.92a20.11 20.11 0 0 0-.9-2.61 12.32 12.32 0 0 1-.79-2.43 10.28 10.28 0 0 1-.22-1.82l-.07-.68c-.08-.4-.18-.8-.27-1.2a8.48 8.48 0 0 1-.31-4c.87-3.4 5-3.48 7.8-3.53h2.22a77.84 77.84 0 0 0 8.36-.39 31.16 31.16 0 0 1 3.74-.23h1.75a24 24 0 0 0 2.66.1c.93 0 1.8 0 2.6-.12 1.67-.17 3.3-.3 5-.37h.74a9.07 9.07 0 0 1 1.28-.06l.08-.1a4.93 4.93 0 0 1 1.62.23 6.46 6.46 0 0 1 2.85 1.73 7.45 7.45 0 0 1 1.73 3.21c.27 1.17.46 2.38.65 3.55l.3 1.86a39.2 39.2 0 0 1 .8 7c-.02 1.4-.1 2.84-.2 4.22z" fill="#fff"/></svg>