<svg xmlns="http://www.w3.org/2000/svg" viewBox="0 0 283.92 285.19" fill="#fff" xmlns:v="https://vecta.io/nano"><path d="M54.85 17l-.16-.24-1.76-2.67c-.28-.4-.58-1-.8-1.4l-.72-1.27A13.93 13.93 0 0 0 50 9.89a9.38 9.38 0 0 0-1.26-1l-1.5-.82L45.16 7A19.74 19.74 0 0 0 43 6.14a10.51 10.51 0 0 1-1.42-.52A22.81 22.81 0 0 1 39 4.22l-.1-.06-1.06-.66a16.27 16.27 0 0 0-2-.65l-.3-.08A4.19 4.19 0 0 1 33 .63a3.41 3.41 0 0 1-.21-.63 42.21 42.21 0 0 0-5.44 1.19L24.8 2.3l-3.25 1.4-1.14.4-1.8.67A15.46 15.46 0 0 0 16.4 6 24.75 24.75 0 0 0 13 8.88a53.62 53.62 0 0 0-3.77 5.31l-.94 1.46-2.4 3.9c-.6 1.08-1.1 2.2-1.6 3.33a21.08 21.08 0 0 0-1.18 3.63 48.7 48.7 0 0 0-.88 9.09A20.38 20.38 0 0 0 3 39.31a40 40 0 0 0 3.44 6.62 25.17 25.17 0 0 0 3.43 4 13.54 13.54 0 0 0 1.87 1.42q.76.46 1.56.9a42.27 42.27 0 0 0 5.66 2l1 .3 3.9 1.06a43.56 43.56 0 0 0 7.56.69l-.05.06h1.34a50.42 50.42 0 0 0 8.75-2A23.5 23.5 0 0 0 45 52.63a40.78 40.78 0 0 0 5-4.28 28.88 28.88 0 0 0 3.16-4.88l1.2-2.67 1.7-3.72a29 29 0 0 0 2.15-5.62 21.58 21.58 0 0 0 .24-3.21 38.87 38.87 0 0 0-1.63-7.06A24.57 24.57 0 0 0 54.85 17zm-.15 153.93l-.1-2.6-.07-2.07-.2-9.38c.02-3.04 0-6.62-.17-10.26a99.63 99.63 0 0 1-.64-11.32c.06-3.7.27-7.36.5-10.77a87.23 87.23 0 0 0 .2-10.6c-.13-1.9-.13-3.6-.13-5.17v-4c0-.42-.12-.83-.2-1.25s-.2-1.15-.26-1.73a28.53 28.53 0 0 1-.21-2.87H52.2c-1.64.15-3.35.36-5 .56l-1.83.22c-2.86.34-5.73.54-8.54.6H35.6c-1.24 0-2.47-.06-3.7-.06-.87-.06-1.75-.06-2.62-.06h-2c-1.86 0-3.57 0-5.23.12-3.53.3-6.24.57-8.77.9l-2 .27a76.39 76.39 0 0 1-8.13.68 3.92 3.92 0 0 1-2.68-1.35 2.73 2.73 0 0 1-.21-.3v1.7c.2 2.86.36 5.23.7 7.67.22 1.68.47 3.34.73 5 .1.67.22 1.34.33 2l.5 3.1c.16 1.1.28 2.24.4 3.36l.2 1.68a50.62 50.62 0 0 1 .42 6.13c.1 3.56 0 7.15-.2 10.83 0 .56-.08 1.12-.08 1.68-.07 1.22-.13 2.5-.13 3.73 0 1.44 0 3.1.1 4.75v.6c.2 2.77.44 5.62.44 8.44a259.78 259.78 0 0 1-.17 9l-.3 8.36c-.08 1.7 0 3.37 0 5v3.23c-.06 8.07-.56 16.2-1 23.37l-.7 10.8-.1 2.1c-.2 2.8-.36 5.67-.36 8.5v5.65c0 .83 0 1.57.08 2.48s.1 1.8.1 2.72c.05 3.5-.1 6.93-.33 11l-.7 11a78.19 78.19 0 0 0-.19 5.37v1.62c0 1.1 0 2.26.1 3.4a178.03 178.03 0 0 1 .31 7 8.52 8.52 0 0 0 .23 1v.26H.8a23.14 23.14 0 0 0 3 .2H5c2.1-.18 4.1-.35 6.1-.42h2.32c.87 0 1.75-.06 2.62-.06a34.55 34.55 0 0 0 3.51-.53c.62-.12 1.25-.27 1.87-.4l1.67-.37a47.46 47.46 0 0 1 7.13-.81 16.17 16.17 0 0 0 2.93-.5l1.4-.4a33.95 33.95 0 0 1 1.94-.55l1.87-.43a18.77 18.77 0 0 1 2.48-.25h3c.67-.1 1.33-.2 2-.33l.75-.13h.12l-.12-2.2a69.91 69.91 0 0 1-.25-9.92c.2-3.25.65-6.4 1-9.05l.2-1.33.53-3.4.22-1.27.57-3.38c.47-3 .86-6.14 1.17-9.4.65-7 1.16-14.18 1.65-21.1l.16-2.3.1-1.36.35-4.3.7-5.78.65-5.62.17-1.58c.16-1.35.32-2.75.4-4.12.16-2.38.23-4.8.3-7.15 0-1.52.1-3 .16-4.52v-.4c.1-1.8.16-3.64.1-5.45-.01-1.17-.06-2.3-.1-3.4zm228.95 7.87l-.4-5.87a143.89 143.89 0 0 0-1-10.2c-.22-1.6-.36-3.26-.5-4.85-.16-1.94-.33-3.94-.65-5.94l-.75-5.18-.06-.44a48.62 48.62 0 0 0-1-5.62 46.22 46.22 0 0 0-.75-2.57c-.23-.72-.45-1.44-.65-2.16l-.07-.26-1.13-3.9c-.67-1.75-1.44-3.43-2.3-5.28a55.39 55.39 0 0 0-3-5.71l-1.84-2.73a33.51 33.51 0 0 0-4.29-5 41.1 41.1 0 0 0-6.23-4.5l-.24-.15a80.01 80.01 0 0 1-3-1.82l-1-.68c-.73-.48-1.48-1-2.24-1.42s-1.26-.56-1.9-.83l-.56-.24c-1.5-.64-2.87-1.28-4.18-1.95a28.8 28.8 0 0 1-2.71-1.65c-.7-.45-1.4-.93-2.13-1.34l-6-2.66a70.55 70.55 0 0 0-3.45-1.46c-1.17-.46-2.15-.63-3.25-.87-2.67-.5-5.53-.88-9.26-1.25-2.7-.26-5-.4-7.13-.4h-1.83a55.5 55.5 0 0 0-8 1.37 37.41 37.41 0 0 1-3.92.83 28.43 28.43 0 0 0-3.76.86 32.72 32.72 0 0 0-3.14 1.37l-1.62.73a35 35 0 0 0-5 2.72l-.68.46-1.26.86-2.4 1.64v.27l-.22.15q-2.85 1.9-5.5 4.08l-.5.4c-.64.53-1.3 1.07-1.9 1.66l-.2.22-1.7 1.74c-.83 1-1.48 1.85-2.06 2.68l-.3.45a23.77 23.77 0 0 0-1.55 2.38c-.36.77-.76 1.5-1.2 2.24a14.65 14.65 0 0 1-1.82 2.26l.06-.06-.68.73-.34.35a12.28 12.28 0 0 1-.68.76 4.36 4.36 0 0 1-2.15 1.16 4.53 4.53 0 0 1-.74.07A4 4 0 0 1 156 123a4.19 4.19 0 0 1-.94-3 5.11 5.11 0 0 1 .07-.93 5.35 5.35 0 0 0 .07-1.06c.05-.6 0-1.2 0-1.82-.05-1.36-.05-2.82-.05-4v-3.54c-.13-1.38-.3-2.75-.47-4.12l-.72-6.2-.3-2.7a27.44 27.44 0 0 1-3 .29c-1.1.07-2.24.07-3.34.07h-2.76l-2 .1c-1.36.07-2.72.17-4.1.17h-2.2c-1 0-1.92-.08-2.92 0s-2 .2-3 .3c-1.37.14-2.78.3-4.18.38-.94.06-1.94.06-2.94.06h-4.4c-1.8.1-3.65.2-5.48.2H113c-.76 0-1.44 0-2.3-.06s-1.73-.06-2.6-.06h-.94l-1 .1-1.62.14h-.63c-.38 0-.77.08-1.16.08l-.3 5.2c-.07 1.75-.08 3.63 0 5.9.1 1.84.1 3.76.1 5.76v5.68l.07 11.73c-.06 3.73.1 7.65.25 11s.14 7 0 11.67v.44c-.1 3.62-.2 7.34 0 11 .23 4.56.23 8.06.23 11.33-.06 3.88-.24 7.82-.4 11.3v5.16l-.06 5.62-.2 5.44c-.1 2.08-.24 4.24-.24 6.37-.07 3.64.06 7.35.18 10.93v3.4l.28 9.3v3.6c0 2.32 0 4.7.12 7.07a147.08 147.08 0 0 0 .52 5c.14 1.16.23 2.35.32 3.5l.2 2.48.36 4.76c.1.85.06 1.55.1 2.55l.13 3c0 .9.15 1.77.15 2.65 0 .6.1 1.2.16 1.8.2 2.12.4 4.32.4 6.5 0 1.36-.08 2.62-.08 3.85v.93l-.06 1.54a78.68 78.68 0 0 0 9.21.45c1.17.05 2.35.05 3.52.05l5 .22c2.37.12 4.82.24 7.22.24h2.3l1.62-.1 2.83-.2 3.68-.15c1.13-.1 2.3-.27 3.37-.42l3.18-.4c1.65-.15 3-.25 4.25-.25a1.93 1.93 0 0 1 .34 0c-.12-1.65-.3-3.4-.3-5.15-.08-2.68 0-5.3.12-8 0-1.06.1-2.06.14-3.06l.27-8.6c0-1.47-.08-3-.08-4.42v-7.67c0-3.73 0-7.56-.23-11.38-.18-3.66-.2-7.56-.07-11.93.1-3.4.25-7.4.57-11.32.16-2 .4-4 .63-6l.55-5.2.92-11.43.17-2.5c.2-3 .4-6.14.77-9.2a86.42 86.42 0 0 1 2.51-12c.18-.65.34-1.33.5-2 .25-1 .5-2.08.8-3.08a34.58 34.58 0 0 1 2.06-5.28 52.67 52.67 0 0 1 3.06-5.62 36.75 36.75 0 0 1 3.87-4.92 32.84 32.84 0 0 1 9.78-7.24 48 48 0 0 1 4.9-2.08 44.78 44.78 0 0 1 6.21-1.86 39.77 39.77 0 0 1 6.62-.71h2.16a20 20 0 0 1 3.37.23 27.1 27.1 0 0 1 6.76 2 35.49 35.49 0 0 1 6 3.18 26.92 26.92 0 0 1 4.72 4.33l.3.33 1.38 1.58.56.63c.32.4.68.78 1 1.2a26.16 26.16 0 0 1 3.2 5.39l1 2.4a73.47 73.47 0 0 0 1 2.44l.27.63c.28.63.55 1.26.8 1.9a37.05 37.05 0 0 1 1.11 3.58 42.76 42.76 0 0 1 .84 4.49l.38 2.37.53 3.52a63.34 63.34 0 0 1 .39 6.75v4.24l.08 6.63q.54 7.86 1.43 15.24c.32 2.73.52 5.6.6 8.8v1.5c0 1.8.1 3.68.18 5.53.2 4 .3 7.07.2 10-.1 2.44-.28 4.9-.46 7.3l-.16 2-.58 9.06a80.55 80.55 0 0 0-.16 8.65l.48 8.22.15 3c.08 1.15.2 2.6.4 3.94l.2 1.3.45 3.18.32 2 .3 2a12 12 0 0 1 .15 1.48v.4h2.64c1.05 0 2.14.1 3.2.24l1.86.3 2.2.33a22 22 0 0 0 2.69.17h.68c1-.1 1.92-.24 2.92-.4l1.35-.2c1.6-.22 3.2-.3 4.83-.37l.82-.06c1.54-.12 3.14-.28 4.7-.28h2.06c1.2 0 2.5 0 3.46.08s1.95.1 2.95.2h.23c.6 0 1.22.1 1.83.1h.76c.7 0 1.4-.1 2.12-.1h2c.25-1.7.4-3.44.57-5.12v-.42l.24-2.48.54-5.72.18-2.2c.08-1.2.17-2.4.3-3.58.18-1.7.42-3.37.66-5l.14-1a47 47 0 0 0 .33-4.74v-.7l.25-5.73.38-7.43q.4-7.42.73-14.85l.26-5.58.9-18.37.3-5.12q.18-2.88.33-5.76a97.54 97.54 0 0 0-.11-10.54z"/></svg>