<?xml version="1.0" encoding="utf-8"?>
<!-- Generator: Adobe Illustrator 24.1.3, SVG Export Plug-In . SVG Version: 6.00 Build 0)  -->
<svg version="1.1" id="Layer_1" xmlns="http://www.w3.org/2000/svg" xmlns:xlink="http://www.w3.org/1999/xlink" x="0px" y="0px"
	 viewBox="0 0 382.6 210.2" style="enable-background:new 0 0 382.6 210.2;" xml:space="preserve">
<style type="text/css">
	.st0{fill:#FFFFFF;}
</style>
<path class="st0" d="M368.2,156.3c-0.8-1.3-2.2-2.1-3.7-2.1c-0.7,0-1.5,0.2-2.1,0.6c-1.3,0.7-2,2-2.1,3.5c-0.1,0.4-0.2,0.8-0.4,1.2
	c-0.1,0.2-0.2,0.4-0.3,0.5c-0.1,0.2-0.2,0.4-0.3,0.5c-0.2,0.4-0.4,0.8-0.6,1.2c-0.2,0.4-0.4,0.8-0.7,1.2c-0.3,0.4-0.5,0.8-0.8,1.2
	c-0.7,0.7-1.5,1.4-2.2,2.1c-0.4,0.4-0.8,0.7-1.2,1s-0.6,0.6-0.9,0.9c-0.8,0.6-1.6,1-2.5,1.5c-2,0.7-4.1,1.1-6.2,1.7s-4,0.9-6.1,1.2
	c-3.9,0.4-7.9,0.6-11.8,0.8c-4.1,0.1-8.2,0.2-12.4,0.4c-2,0.1-3.9,0.2-5.9,0.2c-2.2,0-4.4,0-6.6-0.1c-3.9-0.2-7.8-0.5-11.8-0.8
	c-4.2-0.3-8.4-0.6-12.6-1.1s-8.5-0.6-12.7-1l-6.2-0.6c-2-0.2-4.1-0.3-6.2-0.4l-12.7-0.5c-4.1-0.2-8.2-0.5-12.3-0.7
	c-4.4-0.2-8.7-0.4-13.1-0.7c-2.2-0.2-4.4-0.4-6.5-0.5s-4.2-0.2-6.4-0.3c-4.4-0.2-8.8-0.2-13.2-0.2c-4-0.1-7.9-0.1-11.9-0.2l-6.3-0.1
	c-2.1,0-4.3-0.1-6.4-0.1c-4.3,0-8.5,0.4-12.8,0.6c-2.1,0.1-4.2,0.3-6.4,0.3s-4.1,0.1-6.1,0.1c-4.2,0.2-8.4,0.6-12.6,0.8
	s-8.2,0.2-12.3,0.5c-4.5,0.4-8.9,1-13.4,1.8c-2,0.4-4.1,0.7-6.1,1.2s-4.2,0.9-6.3,1.3c-8.2,1.6-16.1,4.2-24.1,6.4
	c-4,1.1-8.1,2-12.1,3.1s-8.1,2.3-12.2,3.5c-2.4,0.7-4.7,1.4-7.1,2.1s-4.4,1.6-6.6,2.5c-2.4,0.9-4.9,1.8-7.3,2.8
	c-2.1,0.9-4.1,1.8-6.2,2.7c-3.7,1.5-7.5,2.9-11.2,4.5L0,200.8v9.4c2.2-1.1,4.3-2.1,6.6-3.1c2.4-0.9,4.8-1.9,7.2-2.8
	c2.6-1,5.2-2.2,7.8-3.3c1.8-0.7,3.5-1.3,5.3-2s3.8-1.5,5.7-2.2s4-1.3,6.1-1.9s4.1-1.2,6.1-1.8c4.1-1.2,8.3-2.4,12.5-3.4
	s8.1-2,12.1-3.1c6.4-1.8,12.8-3.9,19.3-5.1c3.2-0.6,6.5-1.4,9.7-2s6.5-1.2,9.7-1.6c1.9-0.2,3.8-0.5,5.7-0.6s4.1-0.2,6.1-0.3
	c4.3-0.2,8.6-0.3,12.8-0.7c2-0.2,4-0.3,6-0.4c2.1-0.1,4.2,0,6.3-0.1c4.3-0.2,8.6-0.5,12.9-0.7c2-0.1,4.1-0.2,6.1-0.2
	s4.3,0.1,6.5,0.1c4.1,0.1,8.3,0.2,12.4,0.2s8.4,0,12.6,0.1s8.6,0.3,12.9,0.6c2.2,0.1,4.4,0.4,6.6,0.5s4.4,0.3,6.6,0.4
	s4.4,0.2,6.5,0.3s4.1,0.3,6.2,0.4c4.1,0.2,8.3,0.3,12.4,0.5s8.4,0.2,12.6,0.7c2,0.2,4,0.4,6,0.6c2.2,0.2,4.3,0.3,6.5,0.4
	c4.2,0.3,8.5,0.8,12.7,1.1c4.1,0.3,8.1,0.6,12.2,0.9c4.1,0.3,8.2,0.5,12.3,0.4c2,0,4-0.2,5.9-0.3s4.1-0.1,6.1-0.2
	c4.2-0.2,8.4-0.2,12.6-0.6c4-0.2,7.9-0.8,11.8-1.6c1.8-0.4,3.6-0.9,5.3-1.4c1.9-0.5,3.6-1.2,5.3-2.2c1.3-0.8,2.5-1.7,3.7-2.7
	c0.5-0.4,0.9-0.8,1.4-1.2s0.8-0.8,1.2-1.2c0.5-0.4,1-0.9,1.4-1.4l0.2-0.3c0.1-0.1,0.1-0.1,0.2-0.2c0.1-0.2,0.2-0.4,0.4-0.6
	c0.3-0.6,0.5-1.2,0.8-1.7s0.5-1.2,0.8-1.8c0.1-0.4,0.2-0.7,0.4-1.1s0.3-0.6,0.4-0.9c0.2-0.6,0.5-1.1,0.6-1.7c0-0.1,0.1-0.3,0.1-0.4
	v-0.1l0,0l0,0l0.1-0.3l-0.1,0.3l0,0l0,0v0.1v0c0.1-0.3,0.2-0.6,0.2-0.9c0,0,0-0.1,0-0.1c0.1-0.2,0.1-0.5,0.2-0.7
	c0.1-0.2,0.1-0.5,0.1-0.8c0.1-0.4,0.2-0.9,0.3-1.3v-0.1c0-0.1,0.1-0.2,0.1-0.3S368.3,156.4,368.2,156.3z"/>
<path class="st0" d="M7.4,206.8L7,207L7.4,206.8z"/>
<path class="st0" d="M368.3,157.1L368.3,157.1L368.3,157.1z"/>
<path class="st0" d="M368.3,157.2c0,0,0,0.1,0,0.1C368.3,157.2,368.3,157.2,368.3,157.2L368.3,157.2z"/>
<path class="st0" d="M378,57.4c-1.1,0-2.2,0.4-3,1.2c-0.3,0.3-0.6,0.7-0.9,1.2c0,0.1,0,0.2,0,0.2c0.2,1.2,0.3,2.5,0.3,3.8
	c0,1.5-0.1,3.1-0.4,4.6l0,0c0,0.5,0,0.9-0.1,1.4c-0.2,1.3-0.3,2.6-0.4,3.9v-0.2c-0.2,2-0.3,4-0.5,6c-0.1,0.8-0.2,1.6-0.3,2.4
	c-0.1,0.5-0.2,1-0.3,1.5s0,0.7,0,1.1c0,0.6-0.1,1.1-0.2,1.6c0,0.4-0.1,0.7-0.1,1.1c-0.1,0.4-0.1,0.8-0.2,1.2c-0.1,1.3-0.3,2.7-0.4,4
	c-0.1,0.9-0.2,1.9-0.3,2.8s-0.3,1.7-0.5,2.5c-0.3,1.6-0.6,3.2-0.9,4.8c-0.1,1-0.3,2.1-0.5,3.2c-0.2,1.4-0.5,2.7-0.7,4
	s-0.4,2.7-0.7,4s-0.6,2.6-1,3.9c-0.1,0.2-0.1,0.4-0.2,0.6c-0.1,0.9-0.3,1.7-0.5,2.6c-0.1,0.4-0.2,0.9-0.3,1.4
	c-0.1,1.1-0.3,2.2-0.5,3.2s-0.4,2-0.6,3c-0.1,0.7-0.1,1.4-0.3,2.1s-0.3,1.4-0.5,2c-0.1,0.2-0.1,0.4-0.1,0.5s-0.1,0.6-0.1,0.9
	c-0.1,0.9-0.4,1.8-0.5,2.7c-0.2,1.2-0.3,2.5-0.4,3.7c0,0.4-0.1,0.8-0.2,1.2c-0.2,1.2-0.6,2.4-0.9,3.6c-0.3,1.4-0.5,2.7-0.6,4.1
	c-0.2,1-0.5,1.9-0.8,2.8c-0.5,1.6-1,3.2-1.5,4.9c-0.6,2.3,0.8,4.6,3.1,5.1c2.2,0.5,4.5-0.7,5.1-2.9c0.5-1.6,1-3.1,1.4-4.7
	c0.1-0.5,0.2-1,0.2-1.5c0.1-0.7,0.3-1.5,0.5-2.2v-0.1v0.1l0,0c0.2-0.6,0.3-1.2,0.4-1.8c0-0.3,0.1-0.7,0.1-1s0-0.7,0.1-1.1
	c0.3-1.4,0.5-2.8,0.8-4.1c0.1-0.6,0.3-1.2,0.4-1.9c0.1-0.3,0.1-0.6,0.2-0.9c0-0.1,0-0.2,0.1-0.3c0-0.3,0.1-0.7,0.1-1
	c0.1-0.7,0.2-1.3,0.4-2c0.2-0.9,0.3-1.9,0.4-2.9c0.3-1.9,0.8-3.6,1.2-5.5c0.3-1.2,0.4-2.5,0.7-3.8s0.5-2.3,0.7-3.5s0.3-2.1,0.5-3.2
	c0.2-0.9,0.4-1.8,0.5-2.8c0.2-1.2,0.4-2.4,0.6-3.5s0.4-2.4,0.5-3.6c0.1-0.9,0.3-1.7,0.4-2.6c0.1-0.5,0.1-1.1,0.1-1.6
	c0.3-2,0.8-4,1.4-5.9c0.3-1.4,0.6-2.8,0.7-4.2c0.1-1,0.1-2,0.2-3l-0.1,1.1c0.2-1.3,0.3-2.7,0.4-4.1c0.1-0.9,0.4-1.8,0.6-2.7
	c0.2-1.1,0.4-2.2,0.5-3.2c0.1-0.7,0.2-1.4,0.3-2.2s0.1-1.2,0.1-1.8c0.1-1.1,0.1-2.3,0.2-3.4l-0.1,0.4c0.1-1.1,0.2-2.2,0.4-3.2
	s0.3-2.1,0.3-3.1c0-1-0.1-2-0.3-3c0-0.3-0.1-0.6-0.1-0.8c-0.1-1,0.1-1.9,0-2.9c0-1.1-0.4-2.2-1.2-3c-0.8-0.8-1.9-1.3-3-1.3L378,57.4
	z"/>
<path class="st0" d="M143.9,90c-2.2,0.1-4.4,0.1-6.6,0.2s-4.2,0.2-6.3,0.4c-4.1,0.2-8.2,0.7-12.3,1.1c-4.3,0.4-8.7,1.1-13,1.9
	c-1.9,0.3-3.8,0.7-5.8,1c-1.6,0.3-3.3,0.5-4.9,0.8c-4,0.8-8.1,1.7-12,2.8s-7.8,2.4-11.7,3.6c-3.3,1-6.7,1.9-10.1,2.8
	c-3.6,1-7.1,2.3-10.7,3.4c-1.5,0.5-2.9,0.9-4.4,1.3c-1.6,0.5-3.2,1.1-4.8,1.6c-0.8,0.3-1.6,0.5-2.4,0.7c-1.2,0.3-2.3,0.8-3.5,1.2
	c-1.9,0.7-3.7,1.6-5.5,2.4c-2.1,1.1-2.9,3.7-1.8,5.7c0.5,1,1.4,1.7,2.5,2.1c1.1,0.3,2.2,0.2,3.2-0.3c1.8-0.8,3.6-1.7,5.4-2.4
	c1.7-0.6,3.4-1,5-1.6s3.2-1.1,4.9-1.6l4.8-1.4c2-0.6,4-1.4,6.1-2c3.6-1.1,7.3-2.1,11-3.1c3.9-1.1,7.7-2.4,11.6-3.6
	c3-0.9,6.1-1.6,9.2-2.3c2.9-0.6,5.7-1.3,8.6-1.7s5.9-1.1,8.8-1.5c3.2-0.5,6.3-1,9.5-1.4c3.8-0.4,7.6-0.7,11.4-1
	c4.4-0.3,8.7-0.4,13.1-0.6c2.7-0.1,5.3-0.2,8-0.3h0.4c0.4,0,0.7,0,1.1,0h0.4c0.6,0,1.2,0,1.8,0c0.4,0,0.9,0,1.3,0h1.1h1
	c0.8,0.1,1.6,0.2,2.4,0.3c0.2,0,0.5,0.1,0.7,0.2h0.1c2.1,0.1,4.2,0.2,6.4,0.4c4.3,0.3,8.6,0.4,12.9,0.7c4,0.3,8,0.7,12,1.2
	c8.4,1,16.7,1.9,25,3.1c3.9,0.7,7.8,1.5,11.7,2.5c4.1,1.1,8.2,2.4,12.3,3.6c8.3,2.5,16.5,5.1,24.8,7.6l4.9,1.5
	c1.6,0.5,3.2,1.1,4.8,1.7s3.4,1.2,5,1.9c1.5,0.6,2.9,1.2,4.4,1.9c2.4,1.1,4.7,2.3,7,3.6c2.3,1.3,4.6,2.4,6.9,3.6
	c4.2,2.2,8.3,4.4,12.5,6.4c1.3,0.6,2.7,1.3,4,1.9c1.6,0.8,3.1,1.5,4.8,2.2s3.2,1.3,4.9,2.1l-1-0.5c1.7,0.8,3.4,1.5,5.1,2.3
	s3.3,1.7,4.9,2.5c0.9,0.5,1.8,0.9,2.6,1.4s1.7,1.1,2.6,1.7c2,1.4,4.2,2.5,6.2,3.9c1.6,1,3.2,1.9,4.6,3.1c0.7,0.7,1.4,1.4,2.1,2.2
	c0.5,0.8,1,1.6,1.4,2.4c0.1,0.3,0.2,0.7,0.3,1c0,0.2,0,0.4,0,0.6c-0.1,0.4-0.2,0.8-0.3,1.2c-0.7,2.2,0.6,4.6,2.8,5.3
	s4.6-0.6,5.3-2.8c0.3-1.2,0.6-2.4,0.7-3.7c0-1.8-0.3-3.5-1-5.2c-0.3-0.6-0.6-1.2-0.9-1.8c-0.3-0.5-0.6-1-0.9-1.5
	c-0.9-1.3-1.9-2.6-3.1-3.6c-1.6-1.4-3.3-2.7-5.1-3.8c-1.9-1.2-3.9-2.4-5.8-3.6c-1.7-1-3.2-2.3-4.9-3.2s-3.4-1.7-5-2.6
	c-2.4-1.2-4.9-2.2-7.3-3.3l1,0.5c-1.5-0.7-3.1-1.4-4.6-2.1c-1.2-0.5-2.5-1-3.6-1.5s-2.2-1-3.3-1.5c-1.4-0.7-2.9-1.4-4.3-2l1,0.5
	c-3.4-1.6-6.7-3.4-10-5.2c-1.8-0.9-3.5-1.8-5.3-2.8l-5.8-3c-2.2-1.2-4.5-2.2-6.8-3.2c-2-0.9-4-1.8-6-2.5l-5.8-2.1
	c-2-0.7-4.1-1.3-6.2-1.9c-8.2-2.5-16.5-5.1-24.7-7.6c-4-1.2-8.1-2.5-12.2-3.6c-4.2-1.1-8.5-2-12.8-2.7c-4.6-0.8-9.2-1.3-13.9-1.9
	l-12-1.4c-4-0.5-8-0.9-12-1.2c-4.4-0.4-8.9-0.5-13.3-0.8c-2.1-0.1-4.1-0.2-6.2-0.3s-4.3-0.4-6.4-0.5c-1.2-0.1-2.4-0.1-3.6-0.1
	C149.6,89.7,146.7,89.9,143.9,90L143.9,90z"/>
<path class="st0" d="M31,22.9L31,22.9l0.2-0.1l0,0l0.2-0.1L31,22.9l-0.5,0.4c-0.2,0.1-0.4,0.4-0.6,0.5c-0.5,0.3-1,0.6-1.6,0.9
	c-0.3,0.2-0.5,0.4-0.8,0.6c-0.2,0.5-0.3,1-0.3,1.5c0,0.2,0,0.3,0,0.5c-0.1,0.5-0.2,0.9-0.3,1.4c-0.2,1-0.3,2-0.5,3.1
	c-0.1,1.1-0.4,1.7-0.5,2.6c-0.1,0.5,0,1-0.1,1.4c-0.1,0.7-0.3,1.4-0.3,2.2s0,1.2-0.1,1.8s0,1.3,0,2c0,0.9-0.1,1.8-0.2,2.6
	c-0.1,0.7-0.1,1.4-0.1,2.2s0,1.4,0,2c0.1,1.4,0.1,2.9,0,4.3c-0.3,1.8-0.4,3.6-0.4,5.4c0.1,1.5,0,2.9-0.1,4.4c0,1.1,0,2.3,0.1,3.4
	c0.1,1.4,0.1,2.8,0,4.2c-0.1,1.8-0.2,3.6-0.5,5.4c-0.1,1.5,0,3,0.2,4.5c0.1,1.4,0.1,2.9,0.1,4.3c-0.1,3,0.1,6.1-0.2,9.1
	c-0.1,1.9-0.1,3.8,0.1,5.6c0,1,0,1.9,0.1,2.9c0,1.1,0.2,2.3,0.4,3.4c0.1,0.3,0.1,0.6,0.2,1c0.1,2,0.3,4,0.4,5.9
	c0,2.4-0.1,4.8-0.3,7.2c-0.1,2.3,1.8,4.3,4.1,4.4c1.1,0,2.2-0.4,3-1.1c0.8-0.8,1.3-1.9,1.4-3c0.3-3,0.4-6,0.3-9
	c-0.1-1.4-0.2-2.8-0.3-4.2s-0.4-2.7-0.5-4c0-0.8,0-1.6,0-2.4S33,98.4,33,97.6c0-1.7,0-3.5,0.1-5.2c0.1-2.9,0.1-5.7,0.1-8.6
	c0-1.4-0.1-2.8-0.2-4.2c-0.1-1.5-0.1-2.9,0-4.4c0.2-1.7,0.3-3.5,0.4-5.2c0.1-1.7,0-3.3-0.2-5c0,0.4,0.1,0.7,0.1,1.1
	c-0.2-2.5,0-4.9,0-7.3c-0.1-1.6,0-3.3,0.3-4.9l0,0c0.1-0.6,0.2-1.2,0.2-1.9s0-1.4,0-2.1c0-1.4-0.1-2.7,0-4c0.1-1.6,0.3-3.1,0.2-4.7
	c0-0.6,0-1.1,0.1-1.7s0-1.1,0.1-1.6c0.1-0.7,0.2-1.3,0.3-2c0-0.4,0-0.8,0-1.1c0.1-0.7,0.3-1.3,0.4-2c0.1-0.5,0.1-1,0.2-1.5
	s0.2-0.8,0.3-1.2l0.2-0.6c0.1-0.5,0.2-0.9,0.3-1.4c0-0.3,0-0.6,0-0.9c0.1-2.3-1.8-4.3-4.1-4.4c0,0,0,0,0,0h-0.1L31,22.9L31,22.9z
	 M24.9,66.1c0,0.1,0,0.1,0,0.2C24.9,66.2,24.9,66.2,24.9,66.1z"/>
<path class="st0" d="M175,0.1c-2,0.1-4,0.1-6,0.2c-3.7,0.2-7.3,0.4-11,0.7c-1.6,0.1-3.2,0.2-4.8,0.4H153l-1.1,0.1
	c-1.7,0.2-3.4,0.3-5.1,0.3s-3.6,0.2-5.4,0.4c-3.9,0.3-7.7,0.5-11.6,0.8c-4.2,0.3-8.5,0.9-12.7,1.5c-1.8,0.2-3.5,0.4-5.2,0.7
	c-2,0.3-4,0.7-5.9,1c-3.5,0.5-7,1-10.5,1.4c-0.9,0.1-1.8,0.2-2.7,0.3l-3,0.3h-0.1l0,0c-0.2,0-0.4,0.1-0.5,0.1l-0.4,0.1l-0.3,0.1
	l-0.2,0.1h0.1c-0.9,0.3-1.8,0.5-2.7,0.6H86h-0.7h-0.6c-0.2,0-0.5,0-0.8,0.1c-0.5,0.1-0.9,0.1-1.4,0.2l-0.7,0.1l-0.5,0.1h-0.1
	c-1,0.2-1.9,0.4-2.9,0.6l-1.1,0.2l-0.9,0.2c-0.4,0.1-0.8,0.2-1.2,0.3L74.5,11c-1.4,0.3-2.7,0.6-4.1,0.8c-1.8,0.3-3.5,0.5-5.3,0.8
	s-3.3,0.6-5,1c-2,0.5-4,1.1-6,1.6s-3.9,1-5.9,1.4c-1.6,0.4-3.1,0.6-4.7,0.9L41.8,18c-0.5,0.2-0.9,0.4-1.3,0.5
	c-0.7,0.3-1.5,0.6-2.3,0.9s-1.4,0.6-2.2,0.9c-0.6,0.3-1.2,0.6-1.8,0.9c-0.3,0.2-0.7,0.3-1,0.5s-0.6,0.2-0.9,0.4s-0.8,0.5-1.2,0.8
	l0,0l0.1-0.1l0,0l0.2-0.1l-0.3,0.2l-0.5,0.3c-0.7,1.2-0.7,2.7-0.1,4c1.1,2.1,3.7,2.8,5.7,1.8c1.3-0.7,2.5-1.6,3.9-2.2
	c1.4-0.4,2.8-0.6,4.3-0.9c1.8-0.4,3.6-0.7,5.4-1c2-0.4,4-0.9,5.9-1.4s4-1.1,6-1.6c1.7-0.4,3.4-0.7,5.1-1s3.4-0.5,5.1-0.8
	c3.3-0.6,6.6-1.4,10-2c1.4-0.2,2.8-0.5,4.1-0.8c1.7-0.3,3.3-0.6,5-0.8c3.2-0.3,6.5-0.7,9.7-1.1c2.8-0.4,5.7-0.7,8.5-1.2
	c3.2-0.6,6.3-1,9.5-1.4s6.1-0.8,9.1-1.1c4.8-0.5,9.6-0.6,14.5-1.1c1.8-0.1,3.5-0.2,5.3-0.3c2.2-0.1,4.4-0.3,6.6-0.6l-1.1,0.1
	l1.2-0.1l0,0c1.8-0.2,3.6-0.3,5.3-0.4s3.8-0.3,5.6-0.4c3.9-0.2,7.8-0.3,11.7-0.4s7.5,0,11.2,0.1c0.9,0,1.8,0,2.6,0
	c1.1,0,2.1,0,3.1,0c2,0,4,0.2,6.1,0.2c3.9,0.1,7.7,0.3,11.6,0.7c4.1,0.5,8.2,0.9,12.4,1.3c3.9,0.3,7.9,0.8,11.8,1.2
	c2.1,0.2,4.2,0.5,6.4,0.8s4,0.5,6,0.7c0.9,0.1,1.8,0.2,2.7,0.4l-1.1-0.2l4.1,0.6c2.5,0.4,4.9,0.9,7.4,1.2c2,0.4,4,0.8,6,1.2
	s4,0.9,6,1.4c4,1.1,8.1,1.8,12.2,2.8s7.8,2.1,11.6,3.3c4,1.2,8,2.5,12.1,3.7l5.9,1.8c1.7,0.5,3.4,1.2,5,1.9s3.2,1.1,4.8,1.7
	s3.3,1.4,5,2.1c1.9,0.8,3.9,1.5,5.9,2.2s3.8,1.5,5.7,2.2s3.7,1.2,5.4,2c1.5,0.7,3.1,1.3,4.7,1.8c0.7,0.2,1.4,0.4,2.1,0.7
	s1.5,0.7,2.2,1.1c1.1,0.5,2.2,1.1,3.4,1.6c0.9,0.4,1.8,0.6,2.6,1l2,1l-1-0.5c0.7,0.3,1.2,0.8,1.9,1.1c0.3,0.1,0.7,0.3,1,0.5
	c0.2,0.2,0.5,0.3,0.7,0.5c0.5,0.3,1,0.8,1.6,1.1c0.5,0.3,0.9,0.6,1.3,0.9c0.5,0.5,1,0.9,1.6,1.4c0.2,0.1,0.4,0.3,0.5,0.4
	s0.4,0.4,0.6,0.7l0.3,0.5l0.1,0.2l0,0l0,0.1c0.3,0.4,0.6,0.8,0.8,1.2c0.5,0.9,0.8,2,0.9,3c0.2,1.2,0.3,2.5,0.3,3.8
	c0,0.6,0,1.1-0.1,1.7c0.4,0.4,0.9,0.6,1.5,0.8c1.1,0.3,2.2,0.2,3.2-0.3c1-0.5,1.8-1.4,2.1-2.5c0.2-0.7,0.3-1.4,0.3-2.1
	c0-0.3,0-0.6,0-0.9c0-0.3,0-0.6,0-0.8c0-0.4-0.1-0.7-0.1-1.1c0.1-0.7,0-1.3-0.1-2c-0.1-0.4-0.2-0.9-0.3-1.3c0-0.2,0-0.4-0.1-0.7
	c0-0.1,0-0.2-0.1-0.3c0-0.3-0.1-0.7-0.2-1c-0.2-0.7-0.6-1.4-1-2c-0.2-0.3-0.4-0.6-0.6-0.9c-0.4-0.6-0.8-1.1-1.3-1.6
	c-0.5-0.5-1.1-0.9-1.7-1.4l-0.4-0.3c-0.4-0.3-0.7-0.6-1.1-1l0.4,0.4c-0.7-0.7-1.5-1.3-2.3-1.8c-0.6-0.3-1.2-0.8-1.8-1.2
	c-0.2-0.2-0.5-0.3-0.7-0.5c-0.4-0.2-0.7-0.4-1.1-0.6c-0.3-0.2-0.6-0.4-1-0.6c-0.5-0.3-0.9-0.5-1.4-0.7c-1.1-0.5-2.1-1-3.2-1.4
	c-0.7-0.2-1.3-0.5-2-0.7l-1.1-0.6c-0.6-0.3-1.2-0.6-1.9-0.9c-0.4-0.2-0.8-0.4-1.2-0.6c-1-0.4-2-0.8-3-1.1c-1.6-0.5-3.2-1.1-4.7-1.8
	c-1.8-0.8-3.6-1.4-5.4-2s-3.8-1.5-5.8-2.2s-3.9-1.4-5.8-2.2c-1.7-0.7-3.3-1.4-5-2.1s-3.2-1.1-4.8-1.7s-3.4-1.4-5.1-1.9
	c-7.8-2.5-15.7-4.9-23.6-7.2c-1.9-0.6-3.8-1.1-5.8-1.6s-4.1-0.9-6.2-1.4s-4-0.9-5.9-1.4l-2.1-0.6c-0.4-0.1-0.7-0.1-1-0.2
	c-0.5-0.1-1-0.2-1.4-0.4c-0.5-0.1-1-0.2-1.5-0.3c-1.7-0.3-3.3-0.7-5-1.1s-3.3-0.6-5-0.8c-2.8-0.5-5.6-1-8.4-1.4l1.1,0.2
	c-2.2-0.4-4.4-0.7-6.6-0.9s-4.3-0.6-6.4-0.8c-4-0.5-8-0.9-12-1.3s-8-0.7-12-1.2c-2-0.2-4-0.5-6.1-0.6s-3.8-0.3-5.7-0.3
	c-4-0.2-8-0.4-12-0.4c-1.9,0-3.8,0-5.7,0S183,0,181.2,0h-0.9C178.5,0,176.8,0.1,175,0.1L175,0.1z M141.4,2.2L141.4,2.2z M155.5,9.6
	h-0.4H155.5z M381.4,58.7C381.4,58.7,381.4,58.8,381.4,58.7C381.4,58.8,381.4,58.7,381.4,58.7z M381.4,58.7
	C381.4,58.7,381.4,58.7,381.4,58.7c0,0.2-0.1,0.5-0.1,0.6C381.3,59.1,381.4,58.9,381.4,58.7L381.4,58.7z M381.4,58.8
	C381.4,58.8,381.4,58.8,381.4,58.8C381.4,58.8,381.4,58.8,381.4,58.8z"/>
<path class="st0" d="M145.5,92.7c-0.8,0.3-1.6,0.5-2.4,0.7c-0.9,0.2-1.7,0.5-2.6,0.8c-0.4,0.1-0.7,0.2-1.1,0.3
	c-0.6,0.2-1.2,0.4-1.8,0.6c-0.4,0.1-0.7,0.3-1.1,0.4c-0.4,0.2-0.9,0.3-1.4,0.4c-0.7,0.1-1.4,0.3-2,0.4c-1,0.2-1.9,0.5-2.9,0.9
	c-0.9,0.3-1.7,0.7-2.5,1.1c-1.7,0.8-3.4,1.6-5.1,2.4c-1.1,0.5-2.2,1-3.2,1.5s-2.1,0.9-3.2,1.3l-2.4,0.9l0.1-0.1l-0.2,0.1l-0.2,0.1
	c-1.4,0.5-2.7,1-4.1,1.4c-1,0.3-1.9,0.5-2.9,0.8s-2.1,0.7-3.2,1.1c-2,0.8-4,1.4-6.1,2.2c-1.6,0.6-3.2,1.3-4.9,2
	c-5.4,2-11,3.7-16.7,5c-2.7,0.6-5.4,1.3-8.1,2c-1.6,0.4-3.1,0.8-4.7,1.2s-3.1,0.6-4.7,0.8s-3,0.2-4.5,0.2c-1.8,0-3.5,0.2-5.3,0.3
	s-3.6-0.2-5.4-0.2c-1.3,0-2.7-0.1-4.1-0.3c-0.7-0.2-1.4-0.3-2.1-0.5c-0.9-0.2-1.8-0.4-2.6-0.8c-0.8-0.4-1.6-0.8-2.4-1.2
	c-1-0.6-2.1-0.8-3.2-0.6c-1.1,0.3-2,0.9-2.6,1.9c-0.6,1-0.8,2.1-0.5,3.3c0.2,1.1,0.9,2,1.9,2.6c2,1.2,4.1,2.1,6.3,2.7
	c1.9,0.5,3.9,0.9,5.9,1.1c3.9,0.4,7.8,0.5,11.8,0.3c2-0.2,3.9-0.1,5.8-0.2c2.5-0.1,5.1-0.5,7.6-1c2.1-0.5,4.1-1,6.2-1.5
	c1.8-0.4,3.5-0.9,5.3-1.3c2-0.5,4-0.9,5.9-1.4c2.1-0.6,4.2-1.2,6.3-1.9s4.1-1.4,6.1-2.1s4.2-1.7,6.3-2.5s4.1-1.5,6.1-2.2
	c1.6-0.6,3.3-1.1,5-1.5s3.3-1.1,4.9-1.8c3.6-1.3,7.1-2.7,10.5-4.3c2.1-1,4.1-2,6.2-2.9c0.8-0.2,1.6-0.4,2.4-0.6
	c0.5-0.3,1-0.5,1.5-0.8c0.7-0.4,1.6-0.7,2.3-1.1c1.7-0.9,3.4-1.6,5.2-2.2l0,0c0.4-0.2,0.8-0.3,1.3-0.4l0.6-0.2l1.1-0.4l-0.3,0.1
	c0.6-0.2,1.1-0.4,1.7-0.6l1.1-0.3c0.8-1.9,0.2-4.1-1.6-5.3c-0.7-0.4-1.5-0.7-2.3-0.7C146.2,92.5,145.9,92.6,145.5,92.7L145.5,92.7z
	 M103.7,107.7l-0.3,0.1L103.7,107.7z"/>
<path class="st0" d="M113.6,104.3L113.6,104.3h0.2H113.6L113.6,104.3z"/>
<path class="st0" d="M82.5,9.4c-0.5,0.1-0.9,0.1-1.4,0.2c-1,0.2-1.9,0.4-2.9,0.6c-0.6,0.1-1.1,0.2-1.7,0.3s-1.1,0.3-1.7,0.4
	c-1,0.2-2.1,0.2-3.1,0.4c-0.6,0.1-1.2,0.2-1.9,0.3l-2,0.3c-1.1,0.2-2.3,0.4-3.4,0.6c-0.5,0.1-1.1,0.2-1.6,0.4S62,13,61.4,13.1
	c-1,0.2-2.1,0.3-3.1,0.6c-0.8,0.3-1.6,0.5-2.4,0.6c-0.8,0.2-1.6,0.3-2.4,0.6c-1.5,0.4-3,0.6-4.5,1L48.7,16L48.4,16l0.2-0.1l0.2-0.1
	c-0.5,0.2-1.1,0.3-1.7,0.5l-0.7,0.2l0,0h0.1l0,0l0,0h-0.1h-0.1l-0.2,0.1h0.2l-0.4,0.1c-0.5,0.1-0.9,0.3-1.4,0.4l-0.8,0.2
	c-0.7,0.2-1.3,0.4-2,0.6c-0.5,0.2-0.9,0.4-1.3,0.5c-0.7,0.3-1.5,0.6-2.3,0.9s-1.4,0.6-2.2,0.9c-0.6,0.3-1.2,0.6-1.8,0.9l-0.1,0
	l-0.5,0.3c-0.6,0.5-1,1.2-1.2,1.9c-0.7,2.2,0.6,4.6,2.8,5.3c1.1,0.4,2.3,0.3,3.2-0.3c1.5-1.1,3-2.1,4.7-3c1.3-0.7,2.8-1.2,4.2-1.8
	c1.7-0.6,3.3-1.1,4.9-1.8c2-0.8,3.9-1.6,5.8-2.5c1.6-0.8,3.2-1.5,4.7-2.3s3.3-1.7,5.1-2.4s3.4-1.2,5.2-1.9c2.1-0.7,4.2-1.4,6.3-2.2
	c1.1-0.4,2.2-0.9,3.3-1.4L82.5,9.4L82.5,9.4z"/>
<path class="st0" d="M151,92c-0.3,0.2-0.6,0.3-0.9,0.4c-0.8,0.3-1.7,0.5-2.5,0.8c-1.1,0.3-2.1,0.6-3.2,0.8c-1.1,0.1-2.1,0.3-3.2,0.6
	c-1.4,0.4-2.8,0.8-4.2,1.3c-1.1,0.3-2,0.9-2.6,1.9c-1.3,2-0.7,4.6,1.3,5.9c0.3,0.2,0.6,0.3,0.9,0.4l0.9-0.5c0.7-0.4,1.6-0.7,2.3-1.1
	c1.7-0.9,3.5-1.6,5.3-2.3h-0.1h-0.1h0.1c0.4-0.1,0.8-0.3,1.2-0.4l0.6-0.2l1.1-0.4l-0.3,0.1c0.6-0.2,1.1-0.4,1.7-0.6
	c0.4-0.1,0.9-0.2,1.3-0.4c0.4-0.1,0.8-0.2,1.2-0.3c0.4,0,0.7,0,1.1,0h0.4c0.6,0,1.2,0,1.8,0c0.4,0,0.9,0,1.3,0h0.1
	c0.9-1.3,1-3,0.3-4.4c-0.7-1.4-2.2-2.2-3.7-2.2C152.3,91.5,151.6,91.7,151,92L151,92z"/>
<path class="st0" d="M371.9,89.3c-0.1,1-0.2,2.1-0.4,3.1s-0.2,1.9-0.3,2.8s-0.3,1.7-0.5,2.5c-0.1,0.4-0.2,0.9-0.3,1.3
	c1.7-0.7,3.4-1.4,5.1-2.1c1-0.5,1.8-1.4,2.1-2.5c0.3-1.1,0.2-2.2-0.3-3.2c-0.5-1-1.4-1.7-2.5-2.1c-0.4-0.1-0.8-0.2-1.2-0.2
	C373.1,88.9,372.5,89,371.9,89.3L371.9,89.3z"/>
<path class="st0" d="M29,104.2c-0.3-1.1-1-2-2-2.6c-0.7-0.4-1.4-0.6-2.2-0.6c-0.3,0-0.7,0.1-1,0.2c-1,0.4-2.1,0.8-3.2,1.2
	c-1.4,0.6-2.8,1.1-4.1,1.8c-1.9,0.9-3.7,1.8-5.6,2.6c-3.6,1.4-7.1,3.3-10.3,5.5L0,112.5v10l0.6-0.3c1.3-0.7,2.5-1.5,3.7-2.3
	c2.7-1.9,5.6-3.6,8.7-5c1.6-0.7,3.2-1.3,4.8-2.1s3-1.4,4.5-2.1c1.2-0.5,2.5-0.9,3.8-1.4l1.1-0.4C28.7,107.9,29.6,105.9,29,104.2
	L29,104.2z"/>
<path class="st0" d="M10.6,106.8l-0.4,0.2L10.6,106.8z"/>
<path class="st0" d="M353.6,163.6c-0.3-0.8-1.1-1.2-1.9-0.9c-0.1,0-0.3,0.1-0.4,0.1l-0.4,0.1c-0.7,0.1-1.5,0.3-2.2,0.6
	c-0.4,0.1-0.8,0.3-1.2,0.4s-0.9,0.3-1.3,0.4s-1.1,0.1-1.7,0.2s-1.3,0.2-2,0.2s-1.4,0.1-2.1,0.1l-2,0.1c-0.7,0.1-1.4,0.1-2,0.1
	s-1.4,0-2.1,0c-1.3,0-2.5,0-3.8,0s-2.4-0.1-3.6-0.1l-1-0.1h0.2h-0.2l0,0l-1.5-0.1h0.4c-2-0.1-3.9-0.2-5.9-0.1s-3.9,0-5.8,0
	c-1.1-0.1-2.3-0.1-3.4-0.2s-2.4-0.1-3.7-0.1h-1l-1.3-0.1c-1-0.1-1.9-0.2-2.9-0.3s-1.8-0.2-2.8-0.3s-1.9-0.2-2.8-0.3
	s-1.6-0.1-2.5-0.1l-2.2-0.1h-0.1h-0.5h0.1c-1.1-0.1-2.2-0.1-3.3-0.1c-1.5-0.1-3-0.2-4.4-0.4s-3-0.3-4.5-0.4l-1.6-0.1
	c-1.6-0.1-3.2-0.2-4.8-0.4c-0.9-0.1-1.7-0.1-2.5-0.2s-1.8-0.1-2.7-0.1c-1.7-0.1-3.5-0.3-5.2-0.4c-0.9-0.1-1.8-0.1-2.7-0.1
	s-1.7-0.1-2.5-0.1l-1.8-0.1c-2.1-0.1-4.1-0.4-6.2-0.5s-4.4-0.3-6.6-0.4c-1.7-0.1-3.3-0.2-5-0.3h0.3l-2.9-0.1h0.4l-1.3-0.1h0.4h-0.9
	c-1.9-0.1-3.8-0.3-5.6-0.5c-0.9-0.1-1.9-0.1-2.8-0.2s-2.1,0-3.2-0.1l-1.6-0.1c-1.5-0.1-3-0.2-4.5-0.3c-1.8-0.1-3.6-0.3-5.4-0.4
	l-4.8-0.3c-1.7-0.1-3.4-0.1-5.2-0.2c-3-0.1-6.1-0.1-9.1-0.2c-0.8,0-1.5,0-2.3,0s-1.6,0-2.4,0c-1.5,0-2.9,0-4.4-0.1l-1.3-0.1h0.4
	l-2.5-0.1h-0.2c-1.6-0.1-3.2-0.1-4.8-0.1c-1.8,0-3.5,0-5.3,0h-0.3c-0.8,0-1.5,0-2.3,0H162c-1.6,0-3.2,0-4.8,0.1
	c-0.8,0-1.5,0.1-2.3,0.1l-2.8,0.1c-1.7,0.1-3.3,0.2-5,0.3s-3.4,0.2-5.1,0.3s-3.5,0.3-5.2,0.5c-2.9,0.3-5.8,0.5-8.6,1
	c-0.8,0.1-1.5,0.2-2.3,0.3s-1.4,0.2-2,0.3c-1.5,0.2-3,0.4-4.5,0.6s-3,0.6-4.5,0.7s-2.9,0.4-4.4,0.5c-3,0.4-6,0.7-9,1.4l0,0h-0.1l0,0
	l-2.3,0.5l-1.6,0.3c-0.9,0.2-1.8,0.4-2.7,0.5c-1.1,0.2-2.1,0.4-3.1,0.7s-1.8,0.4-2.7,0.5s-1.7,0.3-2.5,0.4c-1.9,0.4-3.8,0.9-5.7,1.4
	c-1.7,0.4-3.5,0.9-5.2,1.3s-3.5,1-5.3,1.4c-1,0.2-1.9,0.4-2.9,0.6c-0.7,0.1-1.4,0.3-2.1,0.5s-1.5,0.4-2.2,0.6s-1.2,0.4-1.8,0.6
	s-1.4,0.4-2.2,0.6c-1.5,0.5-3.1,0.9-4.6,1.3s-3.2,0.8-4.8,1.2s-3,0.9-4.5,1.4c-0.7,0.2-1.4,0.4-2.2,0.7s-1.5,0.5-2.3,0.8
	c-1.3,0.4-2.7,0.8-4,1.1s-2.7,0.9-4.1,1.3c-0.8,0.2-1.5,0.4-2.3,0.7s-1.6,0.5-2.4,0.8c-1.4,0.5-2.9,0.9-4.3,1.5
	c-0.6,0.2-1.1,0.4-1.7,0.7s-1.4,0.6-2.1,0.9s-1.3,0.6-2,0.9s-1.4,0.5-2.1,0.8c-2.9,1.3-5.9,2.5-8.9,3.5c-0.8,0.2-1.5,0.5-2.3,0.7
	c-0.9,0.3-1.7,0.6-2.5,1c-0.7,0.3-1.4,0.6-2.1,0.9v3.3l1.3-0.7c0.8-0.3,1.6-0.6,2.3-1c0.8-0.3,1.6-0.6,2.4-0.8
	c0.8-0.3,1.6-0.5,2.4-0.8c1.6-0.5,3.1-1.1,4.7-1.7s2.8-1.2,4.2-1.8l1.9-0.8c0.7-0.3,1.5-0.7,2.2-1c1.2-0.6,2.5-1.1,3.7-1.5
	c1.5-0.5,3-1,4.4-1.5c0.7-0.2,1.5-0.5,2.2-0.7s1.7-0.5,2.5-0.7c1.3-0.4,2.6-0.9,4-1.2s2.8-0.8,4.1-1.2s3-1,4.5-1.4
	c0.7-0.2,1.5-0.5,2.2-0.7s1.6-0.5,2.4-0.7c1.6-0.4,3.2-0.8,4.8-1.2s3.1-0.9,4.6-1.3c0.7-0.2,1.3-0.4,2-0.6s1.3-0.5,2-0.7
	c0.8-0.3,1.7-0.5,2.6-0.7h-0.1l2.7-0.6c1.4-0.3,2.8-0.6,4.1-0.9s2.8-0.8,4.2-1.1c2.7-0.7,5.4-1.4,8.1-2.1c1.1-0.2,2.3-0.4,3.4-0.6
	c1.4-0.3,2.8-0.5,4.2-0.8c1.7-0.3,3.3-0.6,5-1h0.2h0.2h-0.1l2.7-0.7l-0.4,0.1l1-0.2c1.6-0.3,3.2-0.6,4.9-0.8s3.3-0.4,5-0.6
	s3.4-0.4,5.1-0.7c0.8-0.1,1.6-0.3,2.4-0.4s1.7-0.2,2.6-0.3c1.7-0.2,3.3-0.4,5-0.6c0.8-0.1,1.6-0.2,2.4-0.3s1.6-0.2,2.4-0.3l5.1-0.5
	c1.7-0.2,3.5-0.4,5.2-0.5c1.4-0.1,2.7-0.1,4.1-0.2s2.9-0.2,4.4-0.3c2.7-0.1,5.4-0.4,8.2-0.4c1.3,0,2.5,0,3.8-0.1h2
	c0.8,0,1.6,0,2.4,0c2.9,0,5.8,0,8.7,0.1l1.8,0.1l2.2,0.1h-0.1c1.9,0.1,3.7,0.1,5.6,0.1c1,0,2,0,3.1,0s1.9,0,2.9,0l5.5,0.1
	c1.9,0,3.9,0.1,5.8,0.1c5.7,0.4,11.3,0.9,17,1.1c0.9,0,1.8,0.1,2.7,0.1c0.7,0,1.4,0.1,2.1,0.1c1.2,0.1,2.4,0.2,3.7,0.4
	s2.4,0.2,3.6,0.3h0.9l2.3,0.1h-0.4c0.6,0,1.2,0.1,1.7,0.1h-0.1c1.7,0.1,3.4,0.2,5.1,0.3c2,0.1,4,0.3,6,0.4c1.1,0.1,2.2,0.2,3.3,0.3
	s2.2,0.2,3.3,0.2h-0.4c1.1,0.1,2.3,0.1,3.4,0.2s2.2,0,3.3,0.1c2,0.1,3.9,0.3,5.9,0.4h-0.1c3.6,0.2,7.2,0.6,10.8,0.8h-0.4l0.8,0.1
	c0.9,0.1,1.8,0.2,2.7,0.2s1.9,0.1,2.8,0.2c2,0.2,4,0.3,6,0.3h0.4h-0.1h0.3h0.1h0.7c1,0.1,1.9,0.1,2.9,0.2c3.4,0.2,6.7,0.7,10.1,0.9
	l2,0.1h-0.4c1.4,0.1,2.7,0.1,4.1,0.1h-0.4c2.5,0.1,5,0.3,7.6,0.3c1.3,0,2.5,0,3.8-0.1s2.5,0,3.8,0.1h-0.4l1.5,0.1l1,0.1
	c1.1,0.1,2.2,0.1,3.3,0.1s1.9,0.1,2.9,0.1c0.5,0,1.1,0,1.6,0h1.3c2.1,0,4.2-0.2,6.3-0.3c1,0,2-0.2,3-0.3c1-0.1,2-0.3,3-0.5
	c0.7-0.2,1.4-0.5,2.2-0.7s1.3-0.4,1.9-0.5l0,0c0.2,0,0.4-0.1,0.5-0.1c0.2-0.1,0.4-0.1,0.5-0.1c0.4-0.1,0.7-0.4,0.9-0.8
	C353.7,164.5,353.7,164,353.6,163.6z"/>
<path class="st0" d="M180.8,157.1h0.4H180.8z"/>
<path class="st0" d="M220.4,158.6h0.3H220.4z"/>
<path class="st0" d="M178.1,160L178.1,160z"/>
<path class="st0" d="M219.8,161.6h0.2H219.8z"/>
<path class="st0" d="M232,162.3L232,162.3z"/>
<path class="st0" d="M241.8,162.9L241.8,162.9z"/>
<path class="st0" d="M303.1,164.2h0.4H303.1z"/>
<path class="st0" d="M326.7,164.9h0.3H326.7z"/>
<path class="st0" d="M277.8,165.2h0.4H277.8z"/>
<path class="st0" d="M325,167.8L325,167.8z"/>
<path class="st0" d="M326,167.8L326,167.8z"/>
<path class="st0" d="M67.8,170.7l-0.3,0.1L67.8,170.7z"/>
<path class="st0" d="M70.2,173.2l-0.2,0.1L70.2,173.2z"/>
<path class="st0" d="M69.9,173.2h-0.2H69.9z"/>
<path class="st0" d="M99.1,166.6L99.1,166.6L99.1,166.6L99.1,166.6z"/>
<path class="st0" d="M325.7,164.8"/>
<path class="st0" d="M290.3,163.1L290.3,163.1z"/>
<path class="st0" d="M289.8,163.1h-0.3H289.8z"/>
<path class="st0" d="M101.5,163.1L101.5,163.1L101.5,163.1z"/>
<path class="st0" d="M236.7,162.6h-0.2H236.7z"/>
<path class="st0" d="M233,162.4L233,162.4z"/>
<path class="st0" d="M236.5,159.6L236.5,159.6z"/>
<path class="st0" d="M177.4,156.9L177.4,156.9z"/>
<path class="st0" d="M343.3,156.6c-0.5,0-0.9,0-1.4,0.2l-0.4,0.1c-0.3,0-0.5,0.1-0.8,0.2c-0.9,0.1-1.9,0.2-2.8,0.3
	c-1.4,0.1-2.9,0.3-4.3,0.3l-5,0.1c-1.7,0-3.3,0.1-5,0h0.4l-1.2-0.1h0.2c-1.3-0.1-2.5-0.2-3.8-0.3c-1.5-0.1-3-0.3-4.4-0.5
	c-2.7-0.4-5.4-0.4-8.1-0.8c-1.5-0.2-3.1-0.3-4.6-0.5c-0.8-0.1-1.5-0.1-2.3-0.2l-2.4-0.3c-1.5-0.2-3-0.3-4.4-0.4s-3.1-0.2-4.7-0.4
	c-1.2-0.1-2.4-0.2-3.6-0.4s-2.5-0.3-3.8-0.4c-2.5-0.3-4.9-0.6-7.4-0.7h0.4c-1.7-0.1-3.5-0.2-5.2-0.4s-3.4-0.4-5.1-0.6
	c-1.9-0.2-3.8-0.3-5.7-0.4s-3.6-0.3-5.4-0.4h0.1c-1.8-0.1-3.6-0.4-5.4-0.5s-3.9-0.3-5.8-0.4h0.1h-0.6l-2.7-0.2l0,0l-2.9-0.1
	c-2.3-0.1-4.6-0.4-6.9-0.7c-1.1-0.1-2.1-0.2-3.2-0.3s-2.2-0.2-3.3-0.2c-2.4-0.2-4.8-0.4-7.2-0.6s-4.8-0.1-7.2-0.2
	c-0.9-0.1-1.7-0.1-2.6-0.1h0.4c-1.6-0.1-3.2-0.2-4.8-0.2s-3,0-4.5-0.1s-3.2-0.1-4.9-0.1s-3.2-0.1-4.8-0.1s-3.4,0-5-0.1h-2
	c-1,0-2,0-2.9,0.1c-1.6,0.1-3.2,0.1-4.8,0.2c-1.8,0-3.6,0.1-5.5,0.1c-1.6,0.1-3.1,0.1-4.7,0.1s-2.9,0.1-4.3,0.2s-3.2,0-4.7,0.1
	s-3.3,0.2-4.9,0.3l-2.1,0.1l-2.4,0.2c-0.8,0.1-1.5,0.2-2.3,0.2l-2.6,0.2c-3.1,0.3-6.3,0.6-9.4,1c-1.5,0.1-3,0.4-4.5,0.7
	c-1.8,0.3-3.7,0.6-5.5,0.9c-1.6,0.3-3.2,0.5-4.9,0.7s-3.2,0.6-4.9,0.9l-4.8,1c-0.9,0.2-1.7,0.3-2.6,0.4s-1.5,0.3-2.3,0.4
	s-1.7,0.3-2.5,0.6c-1.3,0.4-2.6,0.6-3.9,0.9c-2.9,0.7-5.7,1.4-8.6,2l0.3-0.1l-1.8,0.4c-0.6,0.1-1.2,0.2-1.9,0.4s-1.4,0.3-2.1,0.4
	l-1,0.2c-0.1,0-0.2,0-0.3,0.1l-3.1,0.7c-0.8,0.1-1.5,0.3-2.3,0.4s-1.6,0.4-2.5,0.6c-1.6,0.4-3.2,0.9-4.8,1.3s-3.1,0.9-4.6,1.3
	s-2.8,0.8-4.2,1.2c-0.8,0.2-1.6,0.4-2.4,0.6s-1.5,0.4-2.2,0.6c-1.5,0.4-3,0.9-4.5,1.4c-1.5,0.5-3,1.1-4.6,1.5s-3.1,1-4.6,1.4
	s-3,0.8-4.6,1.2s-2.9,0.9-4.4,1.4s-2.9,1-4.3,1.4s-3,0.9-4.5,1.4c-0.8,0.2-1.5,0.5-2.3,0.7s-1.6,0.5-2.4,0.8
	c-1.4,0.5-2.8,0.9-4.2,1.4c-0.7,0.3-1.4,0.6-2.1,0.9l-2.2,1c-1.5,0.6-3,1.2-4.6,1.7L0,183.2v3.2l1-0.3c1.5-0.5,2.9-1,4.4-1.5
	s3-1.2,4.5-1.8c0.7-0.3,1.4-0.6,2.1-0.8c0.7-0.2,1.5-0.5,2.2-0.7s1.4-0.4,2-0.6c0.8-0.3,1.7-0.5,2.5-0.7s1.5-0.5,2.3-0.7l2.4-0.7
	c1.5-0.4,2.9-0.9,4.4-1.4s2.8-0.9,4.2-1.4c1.6-0.5,3.2-1,4.8-1.4c1.4-0.4,2.8-0.8,4.3-1.2s3.1-0.9,4.6-1.5s3.1-1.1,4.7-1.6
	s2.9-0.8,4.3-1.1c0.8-0.2,1.6-0.4,2.4-0.6s1.4-0.4,2.2-0.6c1.5-0.4,3-0.8,4.6-1.2c3.1-0.9,6.2-1.8,9.4-2.5c1-0.2,2-0.4,3.1-0.6
	l1.5-0.3h0.1c0.2,0,0.3-0.1,0.5-0.1l0.7-0.1l1.6-0.3l1.6-0.4l2.3-0.5h-0.3c2.5-0.5,5-1.1,7.6-1.7l4.1-0.9c0.9-0.2,1.7-0.4,2.6-0.6
	l1.3-0.3l0,0l0.4-0.1H100c1.2-0.2,2.3-0.4,3.5-0.6s2.6-0.6,3.9-0.9h-0.2l3.4-0.7c3-0.6,6-1,9.1-1.5c1.7-0.3,3.4-0.5,5.1-0.8
	c1.4-0.3,2.8-0.5,4.3-0.6c3.2-0.3,6.3-0.7,9.5-1c1.6-0.1,3.3-0.3,4.9-0.4s3.1-0.2,4.7-0.3s3.2-0.2,4.9-0.2s3.1,0,4.7-0.1
	s2.9-0.2,4.4-0.2s3.2-0.1,4.8-0.2l5.3-0.1c1.7,0,3.3-0.1,5-0.2c3.3-0.1,6.6,0,9.9,0c1.3,0,2.7,0.1,4,0.1l4.4,0.1
	c2.6,0.1,5.2,0,7.8,0.2c0.8,0.1,1.5,0.1,2.3,0.1c1.1,0.1,2.2,0.1,3.3,0.2c1.4,0,2.8,0,4.1,0.1c2,0.1,4,0.3,6.1,0.5s3.9,0.2,5.8,0.4
	c0.9,0.1,1.7,0.1,2.6,0.2s1.9,0.3,2.9,0.4s2.1,0.2,3.2,0.3s2.1,0.1,3.1,0.2l1.4,0.1c1,0.1,2.1,0.1,3.1,0.2h-0.4c0.4,0,0.8,0,1.2,0.1
	h-0.3c1.9,0.1,3.7,0.2,5.6,0.4c0.8,0.1,1.6,0.2,2.4,0.3c1,0.1,2.1,0.2,3.1,0.2h-0.4c1.8,0.1,3.6,0.3,5.3,0.4
	c1.9,0.1,3.8,0.3,5.7,0.5c1.7,0.2,3.4,0.4,5.1,0.6s3.7,0.3,5.5,0.4h-0.4c0.8,0,1.5,0.1,2.3,0.2s1.5,0.1,2.3,0.2
	c1.7,0.2,3.3,0.4,5,0.6c3.1,0.4,6.3,0.6,9.4,0.8c1.5,0.1,3,0.2,4.4,0.4l2.2,0.3c0.8,0.1,1.6,0.2,2.5,0.3c1.5,0.2,3.1,0.3,4.6,0.5
	c1.3,0.2,2.7,0.3,4,0.4c0.5,0,1,0.1,1.4,0.1s1.1,0.1,1.6,0.2c1.2,0.1,2.3,0.3,3.5,0.4s2.2,0.2,3.4,0.3c1,0.1,1.9,0.1,2.9,0.2h0h0.3
	l0,0c1.7,0.1,3.5,0,5.2,0c0.9,0,1.9,0,2.8-0.1s1.8,0,2.6-0.1c1.5,0,3-0.2,4.5-0.3c0.6,0,1.2-0.1,1.8-0.2c0.5-0.1,1-0.1,1.4-0.3
	c0.2,0,0.4,0,0.6-0.1l0.7-0.1h0.1c0.8-0.1,1.4-0.8,1.4-1.6l0,0C344.4,157.2,344,156.7,343.3,156.6z"/>
<path class="st0" d="M207.2,147.6L207.2,147.6z"/>
<path class="st0" d="M203.2,150.3L203.2,150.3z"/>
<path class="st0" d="M98.9,154.9l-0.3,0.1L98.9,154.9z"/>
<path class="st0" d="M111,155.6l-0.3,0.1L111,155.6z"/>
<path class="st0" d="M110.7,155.6L110.7,155.6L110.7,155.6z"/>
<path class="st0" d="M98.5,158l-0.3,0.1L98.5,158z"/>
<path class="st0" d="M82.2,161.8L82.2,161.8z"/>
<path class="st0" d="M99.8,157.8L99.8,157.8h0.2H99.8L99.8,157.8z"/>
<path class="st0" d="M241.7,150h-0.2H241.7z"/>
<path class="st0" d="M321.8,146.8c-0.6-0.1-1.2-0.2-1.8-0.1l-1.2-0.1c-0.7,0-1.5-0.1-2.2-0.1c-2.2-0.1-4.3,0-6.5-0.1l0,0h-0.7
	c-2-0.1-4-0.3-6-0.4l-1.7-0.1h0.2h-0.3l0,0h-0.6h0.1c-1.2-0.1-2.5-0.2-3.7-0.4s-2.4-0.2-3.6-0.3s-2.5-0.3-3.8-0.6s-2.7-0.4-4-0.6
	c-0.7-0.1-1.4-0.2-2.2-0.3c-0.9-0.1-1.7-0.3-2.6-0.4c-1.6-0.2-3.2-0.3-4.8-0.5s-3.3-0.5-4.9-0.7s-3-0.4-4.5-0.5s-2.8-0.2-4.2-0.3
	l-0.8-0.1l0,0c-2.4-0.2-4.7-0.4-7.1-0.6c-1.3-0.1-2.6-0.2-3.9-0.3s-2.7-0.1-4-0.2l0,0l-0.9-0.1c-1-0.1-2-0.1-3-0.2s-1.9-0.2-2.8-0.3
	c-2.1-0.1-4.2-0.2-6.2-0.3h0.4l-2.8-0.2h0.4l-2.1-0.1c-1.2-0.1-2.4-0.2-3.6-0.3c-1.4-0.1-2.7-0.2-4.1-0.4c-2.9-0.3-5.8-0.3-8.6-0.4
	c-1.4-0.1-2.8-0.2-4.2-0.3s-2.8-0.1-4.1-0.1c-2.5-0.1-4.9-0.1-7.4-0.2c-1.6-0.1-3.1-0.2-4.7-0.2s-2.9,0-4.4,0s-2.7-0.1-4-0.1h-2.1
	c-0.7,0-1.4,0-2,0c-1.6,0.1-3.1,0.1-4.7,0.2c-0.7,0-1.4,0-2.1,0s-1.6,0-2.3,0l-4.7,0.1c-1.4,0-2.8,0.1-4.1,0.3
	c-0.7,0.1-1.4,0.1-2.1,0.2l-2.6,0.1c-1.7,0.1-3.4,0.1-5,0.2c-1.5,0.1-3,0.1-4.6,0.2c-0.7,0.1-1.3,0.1-2,0.2s-1.6,0.2-2.3,0.2
	c-1.7,0.2-3.4,0.3-5.1,0.5c-0.8,0.1-1.6,0.1-2.4,0.2s-1.5,0.1-2.3,0.2c-1.4,0.1-2.8,0.3-4.1,0.5c-0.7,0.1-1.3,0.2-2,0.3
	s-1.4,0.2-2.1,0.3s-1.1,0.2-1.7,0.3c-1.6,0.3-3.1,0.6-4.7,0.8l-2.6,0.3c-0.8,0.1-1.6,0.2-2.4,0.4s-1.6,0.2-2.3,0.3l-2.3,0.4
	c-1.5,0.3-3,0.7-4.5,1l-0.5,0.1h0.1H105h-0.2h0.2l-1.8,0.4l-2.2,0.4c-0.1,0-0.2,0-0.3,0.1c-1.2,0.2-2.4,0.5-3.6,0.8l-1.5,0.3
	c-1,0.2-2.1,0.4-3.2,0.6s-2,0.5-2.9,0.7l0,0c-1.2,0.2-2.3,0.5-3.5,0.8l-0.7,0.1h0.1h-0.1h-0.1c-1.4,0.3-2.7,0.6-4.1,0.9l-1.1,0.2
	l-2.1,0.4l0,0l-0.6,0.1l-3.6,0.8c-1.1,0.2-2.2,0.5-3.2,0.8c-2.4,0.7-4.8,1.3-7.3,1.8c-2.9,0.5-5.8,1.2-8.7,2
	c-1.4,0.4-2.8,0.9-4.2,1.4c-0.6,0.2-1.3,0.5-1.9,0.7s-1.4,0.4-2.2,0.7l-4.3,1.3c-1.4,0.4-2.9,0.8-4.3,1.2c-2.8,0.7-5.5,1.9-8.2,2.6
	c-0.7,0.2-1.4,0.4-2.1,0.5c-0.8,0.2-1.6,0.5-2.4,0.7c-1.5,0.4-3,0.8-4.5,1.2s-2.9,0.8-4.4,1.3c-0.6,0.2-1.3,0.4-1.9,0.7
	s-1.3,0.5-1.9,0.8c-1.2,0.5-2.4,1.1-3.7,1.6c-1.3,0.5-2.6,1-4,1.4c-1.5,0.4-2.9,0.9-4.4,1.4l-0.2,0.1v3.2l1.7-0.6l2.1-0.7
	c0.8-0.3,1.6-0.5,2.4-0.7c1.4-0.5,2.7-0.9,4.1-1.5c1.2-0.5,2.3-1,3.5-1.5l1.8-0.7c0.7-0.3,1.4-0.5,2.1-0.7s1.3-0.4,2-0.6
	s1.6-0.5,2.5-0.7l2.2-0.6c0.8-0.2,1.5-0.4,2.3-0.7c1.5-0.5,3-0.8,4.5-1.2s2.8-0.9,4.1-1.4l1.8-0.6c0.8-0.2,1.6-0.4,2.3-0.6
	c1.5-0.4,2.9-0.8,4.4-1.2s2.8-0.9,4.2-1.3c0.7-0.2,1.3-0.4,2-0.6s1.4-0.5,2.1-0.8c1.4-0.5,2.7-1,4.1-1.4s2.9-0.8,4.4-1.1l0.5-0.1
	c1.2-0.2,2.4-0.5,3.6-0.8s2.7-0.6,4.1-1s2.6-0.8,4-1.1c1.1-0.3,2.1-0.5,3.2-0.7h-0.1h0.2h0.2h-0.1l2-0.4l0,0l2.2-0.5l0.7-0.1
	c1.3-0.3,2.6-0.6,4-0.9l1-0.2h0.2h-0.2h0.1c1.2-0.3,2.4-0.6,3.6-0.8h-0.1c1.4-0.3,2.8-0.6,4.2-1l3.2-0.6l0,0
	c1.1-0.2,2.3-0.5,3.4-0.7c0.3-0.1,0.6-0.1,0.9-0.2c0.2,0,0.4-0.1,0.6-0.1l3-0.6l0,0l1.1-0.2h-0.1c1.1-0.2,2.2-0.5,3.4-0.8
	s2.5-0.4,3.8-0.6c0.7-0.1,1.3-0.2,2-0.3s1.5-0.2,2.2-0.4l2.2-0.3c0.8-0.1,1.6-0.2,2.4-0.4c1.4-0.2,2.7-0.5,4-0.8
	c0.6-0.1,1.2-0.2,1.8-0.3s1.4-0.2,2.1-0.3c1.4-0.2,2.8-0.4,4.1-0.6l2.1-0.2c0.8-0.1,1.7-0.1,2.5-0.2c1.7-0.2,3.4-0.3,5.1-0.5
	c1.5-0.1,2.9-0.3,4.4-0.5s3-0.1,4.4-0.2c1.7-0.1,3.3-0.1,5-0.2l2.4-0.1c0.8,0,1.6-0.1,2.4-0.2c1.3-0.1,2.6-0.3,3.8-0.3
	c1.4-0.1,2.8-0.1,4.2-0.1s3.1,0,4.6,0c1.3,0,2.7,0,4-0.1c0.8,0,1.6-0.1,2.3-0.1s1.3,0,2,0c1.2,0,2.5,0,3.8,0c1.5,0,2.9,0,4.4,0.1
	c1.1,0,2.3,0,3.4,0.1c1.3,0.1,2.5,0.2,3.8,0.2s2.4,0.1,3.5,0.1s2.1,0,3.2,0.1s2.3,0.1,3.4,0.1c1.6,0.1,3.2,0.2,4.9,0.3
	s3.1,0.1,4.7,0.1c2.1,0.1,4.1,0.3,6.2,0.5s4,0.4,6,0.4h-0.4l2,0.1h-0.4c2.7,0.2,5.5,0.3,8.2,0.4c0.9,0.1,1.9,0.2,2.8,0.3
	c1.2,0.1,2.3,0.2,3.5,0.2l0,0c1,0.1,1.9,0.1,2.9,0.1c2.1,0.1,4.2,0.3,6.2,0.5c2.1,0.2,4.4,0.5,6.6,0.6H262l1.1,0.1
	c3.1,0.2,6.1,0.5,9.1,0.9c1.7,0.2,3.3,0.5,5,0.6s3.2,0.3,4.9,0.6l4.5,0.6c1.3,0.2,2.6,0.4,3.9,0.6s2.5,0.4,3.8,0.5
	c1.1,0.1,2.3,0.2,3.4,0.3s2.3,0.2,3.5,0.3h0.2l1.6,0.1h1c1.9,0.1,3.8,0.3,5.7,0.4c1.2,0.1,2.4,0.1,3.6,0.1c1,0,2,0,3,0.1h-0.1h1.3
	c0.6,0,1.2,0.1,1.8,0.1l1.1,0.1c0.3,0,0.5,0.1,0.8,0.1c0.8,0.1,1.6-0.4,1.8-1.2C323.1,147.6,322.6,147,321.8,146.8z"/>
<path class="st0" d="M229.8,139.2L229.8,139.2z"/>
<path class="st0" d="M245.7,140.1h0.3H245.7z"/>
<path class="st0" d="M239.7,142.6L239.7,142.6z"/>
<path class="st0" d="M263.2,144.4L263.2,144.4z"/>
<path class="st0" d="M101.2,145.4H101l0,0H101.2z"/>
<path class="st0" d="M100.9,145.5h-0.1H100.9z"/>
<polygon class="st0" points="100.7,145.5 100.7,145.5 100.7,145.5 100.7,145.5 100.7,145.5 "/>
<path class="st0" d="M316.9,146.5L316.9,146.5z"/>
<path class="st0" d="M109.8,146.6L109.8,146.6L109.8,146.6z"/>
<path class="st0" d="M95.5,146.6h-0.2H95.5z"/>
<path class="st0" d="M100.8,148.5h-0.2H100.8z"/>
<path class="st0" d="M320.6,149.7L320.6,149.7z"/>
<path class="st0" d="M61.1,157.5l-0.3,0.1L61.1,157.5z"/>
<path class="st0" d="M76.1,153.9H76H76.1L76.1,153.9z"/>
<path class="st0" d="M78.1,153.5l0.4-0.1L78.1,153.5z"/>
<path class="st0" d="M86.2,151.8L86.2,151.8L86.2,151.8L86.2,151.8L86.2,151.8z"/>
<path class="st0" d="M316.6,149.5L316.6,149.5z"/>
<path class="st0" d="M85.2,148.9L85.2,148.9L85.2,148.9z"/>
<path class="st0" d="M301.5,148.8h-0.4H301.5z"/>
<path class="st0" d="M301.7,145.9L301.7,145.9z"/>
<path class="st0" d="M105,144.6L105,144.6L105,144.6L105,144.6L105,144.6z"/>
<path class="st0" d="M262.1,144.3h-0.3H262.1z"/>
<path class="st0" d="M246.4,143.2"/>
<path class="st0" d="M246.9,140.2L246.9,140.2z"/>
<path class="st0" d="M296.4,133.7c-0.2-0.3-0.6-0.6-1-0.6c-0.3-0.1-0.7-0.1-1-0.1c-0.3,0-0.5,0-0.8,0h-1.3c-0.8-0.1-1.7-0.1-2.5-0.2
	s-1.7,0-2.6-0.1h0.4l-1.3-0.1c-1.6-0.1-3.1-0.2-4.7-0.3l-2.4-0.1h0.4h-0.8h0.2c-2.6-0.2-5.2-0.5-7.8-0.7h0.2c-2.5-0.1-5-0.3-7.4-0.6
	c-1.3-0.1-2.6-0.3-4-0.4c-0.8-0.1-1.5-0.1-2.3-0.2l-2.3-0.1c-1.5-0.1-2.9-0.2-4.4-0.2l-3.2-0.1c-1.8-0.1-3.5-0.1-5.3-0.2
	s-3.4-0.1-5.1-0.2c-1.9,0-3.8,0-5.7-0.1c-1.6-0.1-3.3-0.1-4.9-0.1h-0.1c-3-0.2-5.9-0.2-8.9-0.3l-2.2-0.1c-2.4-0.1-4.7-0.2-7.1-0.2
	c-1.1,0-2.2,0-3.4,0c-1.3,0-2.6,0-3.8-0.1s-2.4-0.2-3.7-0.3s-2.6,0-4-0.1l-1.8-0.1h-2.1c-1.3,0-2.5,0-3.8,0s-2.3,0-3.4,0
	c-0.7,0-1.4,0-2.1,0s-1.3,0-1.9,0c-1.1,0-2.2-0.1-3.4-0.1h-0.5c-1.3,0-2.5,0.1-3.8,0.1s-2.3,0.1-3.4,0.2l-1.8,0.1
	c-0.8,0.1-1.5,0.1-2.2,0.1c-2.8,0.1-5.5,0.3-8.3,0.4c-0.7,0-1.5,0-2.2,0s-1.6,0.1-2.4,0.1c-1.5,0.1-3,0.2-4.5,0.3l-3.9,0.4
	c-1.5,0.1-3,0.3-4.5,0.4c-1.9,0.2-3.8,0.5-5.7,0.7s-4.1,0.6-6.2,0.8c-1,0.1-2.1,0.2-3.1,0.3l-3.2,0.4c-1,0.1-2,0.3-3,0.5
	c-0.8,0.2-1.7,0.3-2.6,0.5h0.2h-0.2h-0.1h0.1c-2.6,0.5-5.3,0.9-7.9,1.4c-1.2,0.2-2.4,0.4-3.5,0.6c-0.6,0.1-1.2,0.2-1.8,0.3
	c-0.8,0.1-1.6,0.3-2.3,0.5l-2.2,0.5c-1,0.2-1.9,0.4-2.9,0.6c-0.8,0.2-1.5,0.4-2.2,0.6c-1.5,0.4-3,0.8-4.5,1.1
	c-2.7,0.5-5.4,1.2-8.1,1.9c-0.7,0.2-1.4,0.4-2.2,0.6s-1.5,0.4-2.3,0.6c-1.5,0.3-3,0.7-4.5,1.1s-3,0.7-4.5,1.1
	c-1.2,0.3-2.5,0.7-3.7,1.1s-2.8,0.9-4.1,1.4s-2.9,0.9-4.3,1.3s-3,0.9-4.5,1.4l-1.7,0.5c-0.7,0.2-1.5,0.4-2.2,0.6
	c-1.4,0.4-2.8,0.7-4.1,1.1s-2.5,0.8-3.8,1.2c-2.6,0.9-5.2,1.6-7.8,2.6c-1.3,0.5-2.6,1-3.9,1.4c-0.6,0.2-1.2,0.4-1.8,0.6
	c-0.8,0.2-1.6,0.4-2.4,0.7c-1.2,0.4-2.3,0.8-3.5,1.2s-2.3,0.9-3.5,1.3c-0.6,0.2-1.2,0.4-1.9,0.5c-0.6,0.2-1.2,0.4-1.8,0.6
	c-1.2,0.4-2.3,1-3.5,1.5s-2.2,0.9-3.3,1.3s-2,0.7-3.1,1v3.2c0.9-0.3,1.8-0.6,2.7-0.9c1.3-0.4,2.5-0.9,3.7-1.4s2.4-1,3.6-1.5
	c0.6-0.2,1.1-0.4,1.7-0.6s1.4-0.4,2.1-0.6c1.3-0.4,2.6-0.8,3.9-1.4c1.2-0.5,2.5-1,3.8-1.4c0.7-0.2,1.5-0.4,2.2-0.6l2-0.6
	c1.3-0.4,2.6-0.9,3.9-1.4c2.6-0.9,5.2-1.6,7.8-2.6c1.3-0.4,2.5-0.9,3.8-1.3s2.8-0.8,4.1-1.1c0.7-0.2,1.4-0.4,2.1-0.6
	s1.2-0.4,1.8-0.5c1.5-0.5,3-0.9,4.5-1.4s2.9-0.8,4.3-1.3s2.8-1,4.2-1.4c4.1-1.3,8.3-2.1,12.4-3.1l1.7-0.4c0.5-0.1,1.1-0.3,1.6-0.4
	c1.1-0.3,2.1-0.6,3.2-0.9c1.9-0.5,3.9-0.9,5.8-1.3l-0.4,0.1c1.6-0.3,3.2-0.7,4.7-1.1l2.3-0.7c0.8-0.2,1.6-0.4,2.3-0.6
	s1.8-0.4,2.7-0.6l1.6-0.3c1.2-0.2,2.4-0.4,3.7-0.6s2.5-0.4,3.8-0.6s2.6-0.4,3.8-0.6c1.4-0.2,2.8-0.5,4.2-0.8s2.6-0.5,3.9-0.7
	l2.2-0.2c0.8-0.1,1.7-0.2,2.5-0.3c1.5-0.1,3.1-0.3,4.6-0.5c1.5-0.2,3-0.4,4.6-0.6s2.8-0.4,4.3-0.6s3.1-0.3,4.6-0.4l4-0.4
	c1.4-0.1,2.9-0.2,4.3-0.3l2.2-0.1c0.6,0,1.2,0,1.8,0h0.6c1.5,0,2.9-0.1,4.4-0.1c1.3,0,2.6-0.1,3.9-0.2c0.7,0,1.5,0,2.2-0.1
	s1.3-0.1,1.9-0.1c1.2-0.1,2.3-0.1,3.5-0.2s2.4-0.1,3.7-0.1c0.6,0,1.3,0,1.9,0s1.3,0,1.9,0h1.7h2.3c1.2,0,2.4,0,3.6,0s2.6,0,3.9,0
	s2.8,0.1,4.1,0.1s2.6,0,3.9,0.1s2.7,0.2,4.1,0.3s2.9,0,4.3,0.1c2.6,0,5.3,0,8,0.1l1.9,0.1c3,0.2,6,0.2,9,0.3
	c3.7,0.2,7.5,0.3,11.2,0.3c1.8,0,3.5,0.1,5.3,0.1s3.5,0.1,5.3,0.2h-0.2h0.2l0,0c1.6,0.1,3.3,0.1,4.9,0.2c1.1,0.1,2.1,0.1,3.2,0.2
	c1.5,0.1,3.1,0.2,4.6,0.3c1.3,0.1,2.7,0.3,4,0.4c1.1,0.1,2.3,0.2,3.4,0.3c1.4,0.1,2.8,0.2,4.1,0.3h-0.2c2.5,0.1,5,0.5,7.6,0.7h-0.1
	l1.7,0.1h-0.4l2.3,0.1l0,0c1.5,0.1,3,0.2,4.5,0.3h-0.1c1.1,0.1,2.3,0.1,3.4,0.1c0.9,0.1,1.8,0.1,2.7,0.2h1.9
	c0.8,0.2,1.6-0.4,1.7-1.2C296.7,134.4,296.6,134,296.4,133.7L296.4,133.7z"/>
<path class="st0" d="M215.6,128.9L215.6,128.9z"/>
<path class="st0" d="M218.1,129.1L218.1,129.1z"/>
<path class="st0" d="M198.3,131.4L198.3,131.4z"/>
<path class="st0" d="M214.4,131.8h0.2H214.4z"/>
<path class="st0" d="M214.6,131.9L214.6,131.9z"/>
<polygon class="st0" points="216.5,131.9 216.5,131.9 216.5,131.9 216.5,131.9 "/>
<path class="st0" d="M225.2,132.3L225.2,132.3z"/>
<path class="st0" d="M255.4,133.3L255.4,133.3z"/>
<path class="st0" d="M98.7,136.2l-0.2,0.1L98.7,136.2z"/>
<path class="st0" d="M98.5,139.3h-0.2H98.5z"/>
<path class="st0" d="M287.3,135.7L287.3,135.7z"/>
<path class="st0" d="M114,133.6L114,133.6L114,133.6z"/>
<path class="st0" d="M247.4,132.9L247.4,132.9z"/>
<path class="st0" d="M226.9,129.4L226.9,129.4z"/>
<path class="st0" d="M270,123.3c-0.3-0.3-0.7-0.4-1.1-0.4c-0.9,0-1.9,0-2.8,0s-1.9,0-2.9,0l-1.6-0.1c-0.9-0.1-1.9-0.1-2.8-0.1
	c-1.7,0-3.4-0.1-5-0.1c-1.1-0.1-2.3-0.2-3.4-0.3c-0.9-0.1-1.7-0.1-2.6-0.1c-1.2-0.1-2.3-0.1-3.5-0.1l0,0h-0.8l-1.2-0.1h-0.7h-0.3
	c-1.4-0.1-2.8-0.1-4.2-0.1l-1.1-0.1c-1.6-0.1-3.2-0.3-4.8-0.5s-3.4-0.2-5-0.2h0.4c-2.1-0.1-4.3-0.2-6.4-0.3s-4.1,0-6.2-0.1l-1.9-0.1
	h0.2h-0.3l0,0c-1.4-0.1-2.9-0.2-4.3-0.2s-2.9,0-4.3,0l-4.6-0.2c-1.4-0.1-2.8-0.1-4.1-0.1c-1-0.1-2-0.1-2.9-0.1h-0.6l-3.6,0.1
	c-1.4,0-2.8,0.1-4.2,0c-1.2,0-2.5-0.1-3.7-0.1c-2.7,0-5.3,0.2-8,0.3c-1.3,0.1-2.6,0.2-3.8,0.2s-2.4,0.1-3.6,0.2c-0.6,0-1.3,0-1.9,0
	s-1.5,0-2.2,0.1c-1.2,0.1-2.4,0.2-3.5,0.3s-2.3,0.3-3.5,0.4l-3.6,0.3l-3.5,0.3l-1.8,0.1c-0.6,0-1.1,0.1-1.6,0.2
	c-2.5,0.3-5,0.4-7.5,0.8c-1.2,0.2-2.4,0.3-3.6,0.5s-2.6,0.3-3.8,0.4c-2.4,0.2-4.8,0.5-7.2,0.9c-1.3,0.2-2.6,0.3-3.9,0.4
	c-1.1,0.1-2.2,0.1-3.3,0.2s-2.5,0.3-3.7,0.4s-2.5,0.3-3.7,0.5c-2.3,0.3-4.5,0.8-6.8,1.2c-1.1,0.2-2.2,0.3-3.3,0.5s-2.4,0.4-3.6,0.7
	l0.4-0.1c-1.5,0.3-3,0.7-4.5,1l0,0l-1.8,0.4l0.4-0.1c-1.2,0.2-2.3,0.4-3.5,0.6s-2.5,0.4-3.7,0.8c-2.1,0.6-4.2,1.2-6.4,1.6l0.4-0.1
	c-0.9,0.2-1.8,0.4-2.7,0.6s-1.8,0.5-2.8,0.7h-0.1c-0.1,0-0.2,0-0.3,0.1h-0.1c-1.1,0.2-2.2,0.5-3.2,0.7s-2.4,0.7-3.5,1
	s-2.6,0.7-3.8,1s-2.5,0.7-3.8,1s-2.5,0.6-3.8,0.9s-2.4,0.6-3.6,1s-2.4,0.8-3.7,1.1s-2.4,0.7-3.7,1.1c-1.4,0.4-2.8,0.8-4.2,1.2l0,0
	l-0.9,0.2l0,0h-0.1h-0.2l0,0c-1.3,0.3-2.6,0.6-3.9,1c-1.2,0.4-2.5,0.6-3.7,1s-2.2,0.8-3.3,1.1c-0.6,0.2-1.2,0.4-1.9,0.6
	s-1.2,0.4-1.9,0.6c-1.1,0.4-2.2,0.8-3.3,1.2s-2.1,0.9-3.1,1.2s-2.3,0.9-3.4,1.3c-0.6,0.2-1.2,0.4-1.8,0.6s-1.2,0.5-1.8,0.8
	s-1,0.5-1.5,0.7c-0.9,0.4-1.9,0.9-2.8,1.3c-0.2,0.1-0.3,0.1-0.5,0.2v3.2c0.5-0.2,1-0.4,1.5-0.6c1.4-0.6,2.8-1.2,4.1-1.9
	c0.5-0.2,1-0.5,1.5-0.7s1.2-0.5,1.9-0.7c1.1-0.4,2.3-0.9,3.4-1.3c2.1-0.8,4.2-1.7,6.4-2.4l1.8-0.6l1.9-0.6c1.1-0.4,2.3-0.8,3.4-1.2
	s2.5-0.6,3.7-1s2.5-0.7,3.7-1h0.1l0,0h0.2h0.1h-0.1h0.2c2.5-0.5,4.9-1.3,7.4-2c1.2-0.4,2.4-0.7,3.6-1.1s2.5-0.8,3.7-1.1
	s2.5-0.6,3.8-0.9s2.5-0.6,3.7-0.9s2.6-0.7,3.9-1s2.3-0.7,3.5-1c1.4-0.4,2.9-0.8,4.4-1.1l0,0l0.3-0.1l0,0l-0.2,0.1l0.6-0.1l0,0
	l0.5-0.1c1.5-0.4,3.1-0.8,4.6-1.1l0,0c2.8-0.6,5.5-1.5,8.2-2.1c0.9-0.2,1.9-0.3,2.8-0.5s2.1-0.4,3.2-0.6l2.3-0.5
	c0.9-0.2,1.7-0.4,2.6-0.6h-0.2l1.8-0.4c1-0.2,2.1-0.3,3.1-0.5c1.2-0.2,2.5-0.4,3.7-0.6c2.4-0.4,4.7-0.9,7.1-1.2s4.9-0.6,7.4-0.8
	s4.9-0.5,7.4-0.8c1.2-0.2,2.4-0.3,3.6-0.4s2.3-0.2,3.5-0.3c2.6-0.3,5.2-0.7,7.8-0.9c1.2-0.1,2.4-0.2,3.6-0.3s2.2-0.3,3.3-0.4
	s2.5-0.2,3.7-0.3s2.2-0.2,3.3-0.3s2.5-0.2,3.7-0.3s2.3-0.3,3.4-0.4c1.3-0.1,2.7-0.2,4-0.2c1.2,0,2.4,0,3.6-0.1l3.9-0.2
	c1.4-0.1,2.8-0.2,4.3-0.3s2.6-0.1,3.9-0.2s2.4,0,3.6,0c1,0,2,0.1,2.9,0.1s2,0,3,0c1.8,0,3.6-0.1,5.4-0.1c2.7,0.1,5.5,0.2,8.2,0.3
	c1.4,0.1,2.8,0.1,4.2,0.1c0.3,0,0.7,0,1,0c1,0,2,0,3,0l2.7,0.1c1.1,0.1,2.1,0.1,3.2,0.2h3.2c1,0,2.1,0.1,3.1,0.1s2,0.1,3,0.1
	c1.5,0.1,2.9,0.1,4.4,0.2c1.2,0.1,2.3,0.2,3.5,0.3s2.3,0.2,3.5,0.3c1.6,0.1,3.1,0.1,4.7,0.2h0.6l0,0h0.6l0,0l1.5,0.1
	c1,0,1.9,0.1,2.9,0.1l2.8,0.1h0.9c0.8,0.1,1.6,0.2,2.4,0.2c1,0.1,2,0.1,3,0.1c0.9,0,1.7,0,2.6,0.1s1.7,0,2.5,0
	c1.3,0.1,2.5,0.2,3.8,0.2s2.9-0.1,4.3-0.1c0.8-0.1,1.4-0.8,1.4-1.6c0-0.4-0.2-0.8-0.5-1L270,123.3z"/>
<path class="st0" d="M194.6,120.2L194.6,120.2z"/>
<path class="st0" d="M194.8,120.2L194.8,120.2z"/>
<path class="st0" d="M242.1,122L242.1,122z"/>
<path class="st0" d="M242.4,122L242.4,122z"/>
<path class="st0" d="M243.3,122.1L243.3,122.1z"/>
<path class="st0" d="M250.1,122.3h0.4H250.1z"/>
<path class="st0" d="M193.1,123.1L193.1,123.1z"/>
<path class="st0" d="M250.6,125.4L250.6,125.4z"/>
<path class="st0" d="M33.4,146.8h-0.1h-0.1H33.4z"/>
<path class="st0" d="M32.5,144l0.3-0.1L32.5,144z"/>
<path class="st0" d="M32.8,143.9L32.8,143.9L32.8,143.9L32.8,143.9z"/>
<path class="st0" d="M32.8,143.9L32.8,143.9h0.2C32.9,143.9,32.8,143.9,32.8,143.9z"/>
<path class="st0" d="M32.9,143.9h0.2l0,0H32.9L32.9,143.9z"/>
<path class="st0" d="M67.8,137.6L67.8,137.6z"/>
<path class="st0" d="M241.8,125L241.8,125z"/>
<path class="st0" d="M212.1,120.6L212.1,120.6z"/>
<path class="st0" d="M44.4,132.1L44.4,132.1c-0.4,0-0.9,0.1-1.3,0.3c-0.4,0.1-0.7,0.2-1.1,0.4l-2,0.7c-1.4,0.5-2.8,0.9-4.2,1.4
	c-2.7,0.9-5.4,1.8-8.1,2.7c-1.3,0.4-2.6,0.9-4,1.3l-1.9,0.6c-0.6,0.2-1.3,0.4-1.9,0.6s-1.3,0.4-2,0.7s-1.3,0.5-1.9,0.8
	s-1.3,0.5-2,0.7s-1.4,0.5-2.2,0.8s-1.3,0.5-1.9,0.8L8,144.4c-1.2,0.5-2.4,1-3.7,1.5s-2.4,1-3.5,1.5L0,147.8v3.3l0.7-0.3
	c1.3-0.6,2.5-1.1,3.8-1.7s2.9-1.1,4.3-1.8l2.2-1c0.7-0.3,1.4-0.6,2.2-0.9c1.4-0.5,2.8-0.9,4.1-1.5c0.6-0.2,1.3-0.5,1.9-0.8
	s1.3-0.4,1.9-0.6s1.3-0.4,1.9-0.6s1.3-0.4,1.9-0.6l4-1.2l1.9-0.6l2-0.6c2-0.6,4-1.4,6-2c0.9-0.3,1.9-0.6,2.8-0.9
	c0.9-0.4,1.8-0.7,2.7-0.9h0.1c0.8-0.1,1.4-0.8,1.4-1.6C45.9,132.7,45.2,132.1,44.4,132.1z"/>
<path class="st0" d="M44.3,135.1L44.3,135.1L44.3,135.1z"/>
<path class="st0" d="M196.4,113.6c-2.9,0.2-5.9,0.3-8.8,0.2h0.4c-3.2-0.2-6.5-0.3-9.7-0.4c-1.6,0-3.2,0.1-4.8,0.2s-2.9,0.2-4.4,0.2
	s-2.9,0-4.3,0c-1.7,0-3.4,0-5.1,0c-1.5,0.1-3,0.1-4.5,0.1s-3.1,0-4.6,0.1s-3.1,0-4.6,0.1c-0.8,0-1.6,0.1-2.3,0.1s-1.6,0.2-2.3,0.3
	c-1.5,0.2-3,0.4-4.5,0.6s-3.1,0.3-4.7,0.4c-2.2,0.2-4.4,0.5-6.6,0.6c-1.1,0-2.3,0.1-3.4,0.4l-3.3,0.7c-0.4,0.1-0.7,0.4-0.9,0.8
	c-0.4,0.7-0.1,1.6,0.7,2c0,0,0,0,0,0c0.4,0.2,0.8,0.2,1.2,0.1l3-0.7c1.4-0.2,2.9-0.2,4.3-0.3s3.1-0.2,4.6-0.4s3.1-0.3,4.7-0.4
	c0.8-0.1,1.6-0.2,2.4-0.3s1.4-0.2,2.2-0.3c1.6-0.2,3.1-0.4,4.6-0.5s3.1,0,4.6-0.1s3.1-0.1,4.7-0.1s3,0,4.4-0.1s3.1-0.1,4.7,0
	s3.2,0,4.8,0c3.1,0,6.1-0.4,9.2-0.4c1.2,0,2.5,0,3.7,0.1s2.4,0.1,3.6,0.1H185c1.6,0.1,3.3,0.2,5,0.2s3.1-0.1,4.7-0.2s3-0.2,4.6-0.3
	s3,0,4.5,0h0.5c2.3,0.1,4.5,0.2,6.8,0.2h3c1.1,0,2.2,0,3.2,0.1s2.4,0.2,3.6,0.3c0.8,0,1.7,0.1,2.5,0.1c0.7,0,1.3,0,2,0h0.9
	c0.9,0.1,1.7,0.2,2.6,0.2c0.4,0,0.8,0.1,1.2,0.1c0.6,0,1.1,0.1,1.7,0.1l0,0c0.8,0,1.6,0,2.4,0c0.4,0,0.7-0.2,1-0.5
	c0.3-0.3,0.4-0.7,0.4-1.1c0-0.4-0.2-0.7-0.5-1c-0.3-0.3-0.7-0.4-1.1-0.4c-0.7,0-1.4,0-2.1,0h-0.7c-1.9-0.1-3.7-0.3-5.5-0.4h0.3
	c-1.3-0.1-2.6-0.1-3.8-0.1s-2.5-0.2-3.8-0.3c-1.6-0.1-3.2-0.2-4.8-0.2c-1.3,0-2.7,0-4,0s-2.9-0.1-4.4-0.1s-2.9-0.1-4.4-0.1h-0.2
	c-1.4,0-2.7,0.1-4.1,0.2L196.4,113.6z M222.1,114.2h0.2H222.1z M231.9,114.7L231.9,114.7z M216.9,116.7L216.9,116.7z M217.2,116.7
	L217.2,116.7z M225.3,117.2L225.3,117.2z M226.2,117.2h0.3H226.2z M226,114.2L226,114.2z"/>
<path class="st0" d="M164.9,106.2c-1.6,0.1-3.2,0.3-4.7,0.5s-3.1,0.3-4.7,0.4s-3.2,0.2-4.8,0.3c-0.8,0.1-1.5,0.1-2.3,0.2
	s-1.4,0.1-2.1,0.1c-1,0.1-1.9,0.2-2.8,0.2c-0.8,0.1-1.4,0.8-1.4,1.6c0.1,0.8,0.8,1.4,1.6,1.4l0,0c1.5-0.2,3-0.2,4.6-0.3
	s3.1-0.2,4.7-0.3c0.8,0,1.6-0.1,2.3-0.1l2.3-0.2c1.6-0.1,3.2-0.3,4.8-0.5c1.5-0.2,3.1-0.3,4.7-0.3c1.5,0,3,0.1,4.5,0.2s3,0.1,4.5,0
	h2.2c0.7,0,1.4,0,2.1,0h0.8l1,0.1h0.6h0.2c0.2,0,0.3,0,0.5,0c0.1,0,0.2,0,0.3,0h0.1c0.8,0.1,1.7,0.1,2.5,0.1c2.5,0.2,5,0.3,7.5,0.2
	c2.3-0.1,4.5-0.1,6.8,0h1.1h-0.4c0.6,0,1.3,0.1,1.9,0.1h1.4l2.6,0.1c0.5,0,1,0.1,1.5,0.1c0.8-0.1,1.4-0.8,1.4-1.6
	c-0.1-0.8-0.8-1.4-1.6-1.4h-0.5c-1-0.1-2-0.1-3-0.1s-1.7,0-2.6-0.1l-1.3,0c-1.1-0.1-2.2-0.1-3.3-0.1c-1.1,0-2.2,0-3.3,0.1
	s-2.1,0.1-3.2,0.1s-2-0.1-3-0.1l0,0c-1.3-0.1-2.6-0.1-3.9-0.2l0,0c-0.3,0-0.6-0.1-1,0h-0.1c-0.1,0-0.2,0-0.3,0
	c-0.8-0.1-1.6-0.1-2.4-0.2s-1.4,0-2.2,0c-1.5,0-3,0-4.4,0s-3.1,0-4.6-0.1c-0.9,0-1.7-0.1-2.6-0.1C166,106.2,165.4,106.2,164.9,106.2
	L164.9,106.2z M201.2,106.8L201.2,106.8z M202,106.8L202,106.8z"/>
<path class="st0" d="M27.4,131.4c-0.2-0.6-0.8-1-1.4-1c-0.2,0-0.3,0-0.5,0.1c-0.3,0.1-0.6,0.2-0.9,0.2c-0.3,0.1-0.6,0.2-0.9,0.2
	l-1.1,0.2h0h-0.2l0,0l-1.4,0.3c-1.5,0.3-3,0.6-4.4,1c-1.4,0.4-2.8,1-4.2,1.6c-1.4,0.6-2.7,1.2-4.1,1.7c-0.7,0.3-1.4,0.6-2.1,0.9
	s-1.5,0.7-2.2,1c-0.5,0.2-0.9,0.5-1.4,0.7l-1.4,0.6c-0.4,0.2-0.8,0.4-1.2,0.5v3.3l0.2-0.1c1.4-0.6,2.9-1.2,4.3-1.9s2.8-1.4,4.3-1.9
	s2.7-1.1,4.1-1.7c2-0.9,4.1-1.7,6.2-2.2c1.3-0.2,2.5-0.5,3.8-0.8l0.3-0.1c0.6-0.1,1.1-0.2,1.7-0.4s1-0.2,1.5-0.4
	C27.3,133,27.7,132.2,27.4,131.4z"/>
<path class="st0" d="M22.3,131.3h0.1l0,0H22.3L22.3,131.3z"/>
<path class="st0" d="M19.2,123.5c-0.1-0.4-0.4-0.7-0.8-0.9c-0.2-0.1-0.5-0.1-0.7-0.2c-0.2,0-0.3,0-0.5,0.1c-1.2,0.6-2.4,1.2-3.6,1.8
	c-2.7,1.3-5.5,2.3-8.3,3.6L0,130.5v3.3l4-1.9c1.4-0.6,2.8-1.3,4.2-1.9s2.8-1.1,4.2-1.7c1.1-0.5,2.1-1,3.2-1.5
	c0.9-0.4,1.7-0.9,2.6-1.3l0.2-0.1c0.4-0.1,0.7-0.4,0.9-0.8C19.3,124.3,19.4,123.9,19.2,123.5z"/>
<path class="st0" d="M18.4,125.4l-0.2,0.1L18.4,125.4z"/>
<path class="st0" d="M352.6,60.7c-0.4,0.3-0.6,0.7-0.6,1.2c0,0.5,0.1,0.9,0.4,1.3c0.3,0.3,0.7,0.6,1.2,0.6l1,0.2
	c0.8,0.2,1.7,0.4,2.5,0.7c0.8,0.3,1.6,0.7,2.4,1.1l1.8,0.9c2.4,1.2,4.7,2.6,7,3.9c1.1,0.7,2.3,1.3,3.4,2.1c1,0.6,2,1.3,3,2.1
	c0.1,0.1,0.1,0.1,0.2,0.2c0.6,0.7,1.7,0.8,2.5,0.2c0.7-0.6,0.8-1.7,0.2-2.5c-0.6-0.7-1.3-1.2-2-1.7c-0.6-0.4-1.2-0.8-1.8-1.2
	c-1.3-0.8-2.5-1.6-3.8-2.3s-2.6-1.5-3.9-2.2s-2.6-1.4-4-2.1s-2.4-1.2-3.6-1.7c-1.4-0.5-2.9-0.9-4.4-1.1h-0.2
	C353.4,60.3,353,60.4,352.6,60.7L352.6,60.7z M361.3,66.7l0.3,0.2L361.3,66.7z"/>
<path class="st0" d="M340.8,71.3c-0.3,0.9,0.2,1.9,1.1,2.2l3.8,1.3c0.6,0.2,1.2,0.4,1.8,0.7s1.1,0.5,1.6,0.8c2.1,1.1,4.3,2,6.5,3.1
	l5,2.5c1.5,0.8,3,1.7,4.4,2.6c1.4,1,2.9,2,4.3,3c0.8,0.6,1.9,0.4,2.4-0.4c0.6-0.8,0.4-1.9-0.4-2.4c-0.8-0.6-1.6-1.1-2.5-1.7
	s-1.6-1.1-2.4-1.7c-1.7-1.1-3.4-2.1-5.3-3c-1.4-0.7-2.9-1.5-4.3-2.2s-3-1.4-4.5-2.1c-0.8-0.4-1.5-0.7-2.3-1.1
	c-0.7-0.3-1.4-0.7-2.1-1c-1.6-0.6-3.3-1.2-5-1.8C342.1,69.9,341.1,70.4,340.8,71.3C340.8,71.3,340.8,71.3,340.8,71.3L340.8,71.3z
	 M361.1,78.4l0.2,0.1L361.1,78.4z M360.7,82.1l0.1,0.1L360.7,82.1z"/>
<path class="st0" d="M354.1,89.8c-0.5,0.8-0.3,1.9,0.5,2.4c2.2,1.3,4.4,2.5,6.5,3.8c2,1.2,3.8,2.7,5.8,3.9c0.4,0.3,0.8,0.4,1.3,0.3
	c0.5-0.1,0.9-0.3,1.1-0.7c0.5-0.8,0.3-1.9-0.5-2.4c-2-1.1-3.8-2.6-5.7-3.8c-2.2-1.4-4.4-2.6-6.6-3.9c-0.3-0.2-0.6-0.3-1-0.3
	C354.9,89.1,354.4,89.3,354.1,89.8L354.1,89.8z"/>
<path class="st0" d="M355.6,110.3c-0.5,0.1-0.9,0.4-1.1,0.8c-0.5,0.8-0.3,1.9,0.4,2.4c0,0,0,0,0,0c3.3,1.7,6.5,3.7,9.5,5.8
	c0.8,0.6,1.9,0.4,2.5-0.5c0.6-0.8,0.4-1.9-0.5-2.4c-3-2.2-6.2-4.1-9.5-5.8c-0.3-0.2-0.6-0.3-1-0.3L355.6,110.3L355.6,110.3z"/>
<path class="st0" d="M47.5,43.8c-1.4,0.1-2.9,0.3-4.3,0.5s-2.9,0.5-4.4,0.8c-3,0.9-5.9,2.1-8.6,3.7c-0.9,0.4-1.3,1.5-0.9,2.3
	c0.4,0.9,1.5,1.3,2.4,0.9l0,0c2.2-1.2,4.5-2.2,6.9-3.1c1.5-0.4,3-0.8,4.6-1c1.7-0.3,3.3-0.5,5-0.6c0.5-0.1,0.9-0.3,1.1-0.7
	c0.3-0.4,0.3-0.8,0.3-1.3c-0.1-0.5-0.3-0.9-0.7-1.1c-0.3-0.2-0.6-0.3-1-0.3L47.5,43.8z"/>
<path class="st0" d="M42.1,54.8c-0.8,0.2-1.5,0.4-2.2,0.6s-1.4,0.4-2.2,0.6c-1.6,0.5-3.2,1-4.8,1.5c-1.1,0.3-2.2,0.6-3.3,0.9
	c-0.5,0.1-0.9,0.4-1.1,0.7c-0.5,0.8-0.3,1.9,0.4,2.4c0,0,0,0,0,0c0.4,0.3,0.8,0.4,1.3,0.3c1.2-0.3,2.4-0.7,3.6-1s2.2-0.7,3.2-1.1
	c2.1-0.7,4.3-1.2,6.5-1.7c2.2-0.5,4.4-0.8,6.6-1c0.5,0,1,0,1.6,0c1,0.1,1.9-0.6,1.9-1.6S53,53.7,52,53.6h-0.8
	C48.1,53.7,45.1,54.1,42.1,54.8L42.1,54.8z"/>
<path class="st0" d="M37.5,71.3c-1.5,0.4-2.9,1-4.2,1.7c-1.2,0.7-2.4,1.3-3.6,2c-0.9,0.4-1.2,1.5-0.9,2.3c0.4,0.9,1.5,1.2,2.3,0.8
	c2.2-1.3,4.6-2.5,7-3.4c0.5-0.1,0.9-0.4,1.1-0.7c0.5-0.8,0.3-1.9-0.4-2.4c0,0,0,0,0,0c-0.3-0.2-0.6-0.3-1-0.3
	C37.6,71.3,37.5,71.3,37.5,71.3L37.5,71.3z M37.9,74.9h-0.1H37.9z"/>
<path class="st0" d="M39.1,90.7c-2.5,1-4.8,2.2-7.3,3.4c-0.9,0.4-1.3,1.4-0.9,2.3c0.4,0.9,1.4,1.3,2.3,0.9c0,0,0.1,0,0.1,0
	c2.4-1.1,4.8-2.4,7.2-3.3c0.9-0.4,1.2-1.5,0.8-2.3c-0.3-0.6-0.9-1-1.6-1C39.6,90.5,39.3,90.6,39.1,90.7L39.1,90.7z"/>
<g>
	<path class="st0" d="M111.1,66.1l11.6-1.6l0.6,4.2l-17,2.4l-4.7-33.6l5.4-0.8L111.1,66.1z"/>
	<path class="st0" d="M123.9,32.2c0.6-0.7,1.4-1,2.4-1.1c1.1-0.1,1.9,0.1,2.6,0.7c0.7,0.5,1.1,1.3,1.2,2.2c0.1,0.9-0.2,1.7-0.8,2.3
		c-0.6,0.6-1.4,1-2.5,1.1c-1.1,0.1-1.9-0.1-2.6-0.6c-0.7-0.5-1.1-1.2-1.2-2.2C123.1,33.6,123.3,32.8,123.9,32.2z M130.1,41.6
		l2.5,26.3l-5.4,0.5l-2.5-26.3L130.1,41.6z"/>
	<path class="st0" d="M160,42.5c1.9,1.9,3,4.7,3.1,8.4l0.6,15.4l-5.5,0.2l-0.6-14.8c-0.1-2.4-0.8-4.2-2-5.4c-1.3-1.2-3-1.8-5.1-1.8
		c-2.2,0.1-3.9,0.8-5.2,2.3s-1.8,3.5-1.7,6.2l0.5,14.1l-5.5,0.2l-1-26.4l5.5-0.2l0.2,5.8c0.6-2,1.8-3.6,3.4-4.7
		c1.6-1.1,3.5-1.8,5.7-1.8C155.6,39.7,158.1,40.6,160,42.5z"/>
	<path class="st0" d="M184.4,67l-9.1-12.1l-0.4,11.8l-5.5-0.2l1.3-35.5l5.5,0.2l-0.8,20.3l9.8-10.9l6.6,0.2l-12,12.7l11.3,13.7
		L184.4,67z"/>
	<path class="st0" d="M219.7,58.1l-20.2-2.2c-0.2,2.7,0.3,4.8,1.6,6.3c1.3,1.5,2.9,2.3,5,2.5c1.8,0.2,3.4-0.1,4.8-0.9
		c1.4-0.8,2.3-1.9,2.7-3.4l5.8,0.6c-0.6,1.8-1.5,3.4-2.7,4.7c-1.3,1.3-2.8,2.3-4.7,2.9c-1.9,0.6-3.9,0.8-6.1,0.6
		c-2.5-0.3-4.7-1.1-6.6-2.4s-3.2-3-4.1-5.2c-0.9-2.2-1.2-4.6-0.9-7.4c0.3-2.7,1.1-5.1,2.5-7c1.3-1.9,3-3.3,5.1-4.2
		c2.1-0.9,4.4-1.2,6.9-0.9c2.6,0.3,4.8,1.1,6.6,2.3c1.8,1.3,3.1,2.9,4,4.9c0.8,2,1.1,4.1,0.9,6.4C220.1,56.7,219.9,57.4,219.7,58.1z
		 M214.3,50.6c-0.5-1.2-1.3-2.2-2.4-2.9c-1.1-0.7-2.3-1.1-3.6-1.2c-2.1-0.2-4,0.2-5.6,1.4s-2.6,3-3,5.5l14.9,1.6
		C215,53.3,214.8,51.8,214.3,50.6z"/>
	<path class="st0" d="M244.4,49.5c1.4,1.5,2.3,3.3,2.6,5.3l2.9-14.9l5.4,1.1l-6.8,34.9l-5.4-1.1l1.2-6c-1,1.8-2.5,3.1-4.4,3.9
		c-1.9,0.8-4,1-6.4,0.6c-2.3-0.4-4.2-1.4-5.7-2.8c-1.6-1.4-2.7-3.2-3.3-5.4c-0.6-2.2-0.7-4.7-0.1-7.4c0.5-2.7,1.5-5,2.9-6.8
		c1.4-1.8,3.1-3.1,5.1-3.8c2-0.7,4.1-0.9,6.4-0.4C241,47.1,242.9,48,244.4,49.5z M233.2,52.8c-1.7,1.2-2.8,3.2-3.4,5.9
		c-0.5,2.7-0.2,4.9,0.9,6.7c1.1,1.8,2.9,2.9,5.3,3.4c1.5,0.3,2.9,0.2,4.3-0.3c1.3-0.5,2.5-1.3,3.4-2.4c0.9-1.2,1.6-2.6,1.9-4.3
		c0.3-1.7,0.3-3.3-0.2-4.7c-0.4-1.4-1.2-2.6-2.2-3.6c-1.1-0.9-2.3-1.6-3.8-1.8C237,51.2,235,51.6,233.2,52.8z"/>
	<path class="st0" d="M268.1,46l-8.4,32.8l-5.3-1.4l8.4-32.8L268.1,46z"/>
	<path class="st0" d="M294,64.1c1.2,2.5,1.2,5.4,0.1,8.9l-4.7,14.7l-5.2-1.7l4.5-14.1c0.7-2.3,0.7-4.2-0.1-5.8
		c-0.8-1.6-2.2-2.7-4.2-3.4c-2.1-0.7-3.9-0.5-5.6,0.4c-1.7,0.9-2.9,2.7-3.7,5.2l-4.2,13.4l-5.2-1.7l8-25.2l5.2,1.7l-1.8,5.5
		c1.3-1.7,2.9-2.8,4.8-3.3c1.9-0.5,3.9-0.5,6,0.2C290.8,60,292.9,61.7,294,64.1z"/>
</g>
</svg>
