<?xml version="1.0" encoding="utf-8"?>
<!-- Generator: Adobe Illustrator 24.1.3, SVG Export Plug-In . SVG Version: 6.00 Build 0)  -->
<svg version="1.1" id="Layer_1" xmlns="http://www.w3.org/2000/svg" xmlns:xlink="http://www.w3.org/1999/xlink" x="0px" y="0px"
	 viewBox="0 0 240.9 263.2" style="enable-background:new 0 0 240.9 263.2;" xml:space="preserve">
<style type="text/css">
	.st0{fill:#2C2C2C;}
	.st1{font-family:'GreycliffCF-Medium';}
	.st2{font-size:28px;}
</style>
<g id="Layer_2_1_">
	<g id="Draw_Layer">
		<g id="Layer_2-2">
			<g id="Draw_Layer-2">
				<path class="st0" d="M114.2,43.5c-0.3,0-0.7,0-1,0.1c-0.6,0.1-1.1,0.1-1.6,0.2l-0.4,0.1c-1.2,0.2-2.4,0.4-3.8,0.7
					c-0.6,0.1-1.3,0.2-1.9,0.3s-1.4,0.2-2.2,0.4c-1,0.2-2.1,0.5-3.1,0.8l-0.8,0.3c-0.9,0.3-1.8,0.6-2.7,1l-1.3,0.5
					c-0.6,0.2-1.1,0.3-1.6,0.5l-0.2,0.1c-0.6,0.2-1.2,0.3-1.7,0.5s-1.1,0.4-1.6,0.6s-1,0.4-1.5,0.6l-0.4,0.2
					c-0.4,0.1-0.8,0.2-1.2,0.4L86.3,51l-0.9,0.3l0,0h-0.1h-0.1c-1.5,0.5-2.9,1-4.3,1.7l-1,0.5c-0.4,0.2-0.8,0.4-1.2,0.5l-0.5,0.2
					c-0.5,0.2-1.1,0.5-1.7,0.7s-1.3,0.7-2.1,1.2l-0.3,0.2c-0.2,0.2-0.5,0.3-0.7,0.4l-1.2,0.6L72,57.5c-0.6,0.3-1.1,0.6-1.7,0.9
					c-0.3,0.2-0.7,0.4-1,0.7l-0.2,0.1l-1,0.5c-0.7,0.4-1.3,0.8-1.9,1.3L66,61.1l-0.5,0.4l-1.4,1c-0.7,0.5-1.2,0.9-1.7,1.3
					c-0.7,0.5-1.3,1.1-1.8,1.6c-0.2,0.2-0.4,0.4-0.6,0.5c-0.3,0.3-0.7,0.7-1.1,1c-0.5,0.5-1,1.1-1.5,1.6l-0.2,0.2
					c-0.5,0.6-1,1.2-1.5,1.8s-0.9,1.1-1.4,1.7s-1,1.2-1.4,1.7s-1,1.4-1.4,2s-0.7,1.1-1.2,1.8l-0.1,0.1c-0.4,0.7-0.8,1.3-1.2,2
					c-0.3,0.6-0.6,1.1-0.9,1.6c-0.1,0.2-0.3,0.5-0.4,0.7c-0.4,0.8-0.8,1.5-1.3,2.4s-0.9,1.8-1.3,2.7c-0.3,0.6-0.6,1.3-0.9,1.9
					c-0.2,0.3-0.3,0.6-0.5,0.9c-0.5,0.9-1,1.9-1.4,2.8c-0.2,0.6-0.5,1.2-0.8,1.9c-0.1,0.4-0.3,0.7-0.4,1.1l-0.4,0.9
					c0,0.1-0.1,0.2-0.1,0.3s-0.2,0.5-0.3,0.8c-0.2,0.4-0.3,0.8-0.4,1.2s-0.3,1-0.5,1.5l-0.2,0.6c-0.2,0.7-0.4,1.5-0.5,2.2
					c0,0.2-0.1,0.3-0.1,0.5c0,0.1,0,0.3-0.1,0.4s-0.1,0.4-0.1,0.5s-0.1,0.3-0.1,0.5c-0.1,0.6-0.2,1.2-0.3,1.7s-0.2,1.2-0.3,1.7
					c-0.3,1.3-0.5,2.6-0.7,3.9c-0.2,1.4-0.3,2.6-0.3,3.8c0,0.5,0,1,0,1.5c0,0.8,0,1.7-0.1,2.5c0,1.3,0,2.6,0,3.9l0,0
					c0,0.6,0,1.3,0,2c0,0.4,0,0.8,0,1.2v1c0,1,0,1.7,0.1,2.4v0.3c0,0.7,0.1,1.5,0.2,2.2c0.1,0.7,0.2,1.3,0.3,2
					c0.1,0.5,0.2,1,0.4,1.5l0.2,0.9c0.2,0.6,0.3,1.2,0.4,1.8l0.1,0.4c0.1,0.7,0.3,1.4,0.5,2.2s0.3,1.5,0.6,2.3s0.5,1.5,0.7,2.2
					l0.4,1.1c0.1,0.3,0.2,0.6,0.3,0.8c0.3,0.8,0.6,1.6,1,2.3c0.1,0.2,0.3,0.5,0.4,0.7l0.2,0.3l0.3,0.6l0.3,0.5
					c0.4,0.8,0.8,1.5,1.1,2.1s0.5,1.1,0.8,1.7s0.6,1.3,1,2c0.7,1.4,1.5,2.7,2.4,3.9c0.4,0.5,0.8,1,1.4,1.6c0.5,0.5,1,1,1.4,1.5
					c0.2,0.3,0.4,0.6,0.6,0.9s0.3,0.5,0.4,0.7l0.3,0.5c0.5,0.9,1,1.7,1.6,2.5c0.3,0.4,0.6,0.7,0.9,1c0.4,0.4,0.8,0.7,1.3,1.1
					c0.7,0.6,1.5,1.1,2.3,1.8c0.5,0.4,1,0.9,1.4,1.4s1.2,1.1,1.7,1.6s1.3,1.1,1.9,1.7h0.1c0.3,0.2,0.5,0.5,0.8,0.7l1,0.8
					c0.4,0.3,0.8,0.6,1.3,0.9l0.7,0.5c0.7,0.5,1.3,0.9,1.9,1.4c0.2,0.1,0.4,0.3,0.6,0.5c0.4,0.3,0.8,0.6,1.1,0.9
					c0.6,0.4,1.2,0.8,1.9,1.2c0.7,0.4,1.3,0.8,1.9,1.1c0.3,0.2,0.7,0.5,1,0.7s0.6,0.5,1,0.7c1.1,0.7,2.2,1.4,3.4,2l0.1,0.1l0.3,0.2
					l1,0.5l0.3,0.1c0.2,0.1,0.4,0.2,0.7,0.3c0.6,0.3,1.3,0.5,2,0.7l0.8,0.2c0.5,0.1,0.9,0.3,1.4,0.4c0.3,0.1,0.5,0.2,0.8,0.3h0.2
					l0.8,0.2l0.3,0.1c0.9,0.2,1.8,0.5,2.8,0.7c0.5,0.1,1,0.2,1.5,0.3c0.8,0.2,1.4,0.4,2.1,0.5c0.4,0.1,0.9,0.1,1.3,0.2l0.8,0.1
					c0.7,0.1,1.2,0.2,1.8,0.3s1.2,0.3,1.8,0.4s1.4,0.3,2.1,0.5c1,0.2,1.8,0.4,2.6,0.4s1.6,0.2,2.3,0.2c1.4,0.1,2.8,0.2,4.2,0.3h0.4
					h0.6l1.8,0.1c0.2,0,0.5,0,0.9,0h1.3c0.4,0,0.9,0,1.3,0c0.3,0,0.5,0,0.8,0h0.6h0.7c0.3,0,0.7,0,1-0.1h0.3h0.3l1.5-0.1h0.5
					c0.4,0,0.8-0.1,1.2-0.1c0.5-0.1,1-0.2,1.6-0.3c0.4-0.1,0.8-0.2,1.3-0.2c0.7,0,1.2-0.1,1.7-0.1c0.6-0.1,1.1-0.2,1.7-0.4l0,0
					l0.6-0.1c0.3-0.1,0.7-0.2,1-0.2c0.2,0,0.4-0.1,0.7-0.1h0.1c0.2,0,0.3,0,0.5-0.1h0.4c0.2,0,0.4,0,0.6-0.1s0.6,0,0.8-0.1
					c0.5-0.1,1-0.1,1.4-0.2c0.5-0.1,0.9-0.2,1.3-0.4l0.2-0.1l0.7-0.2l0.7-0.2l0.7-0.2c0.9-0.3,1.7-0.6,2.6-0.9l1.5-0.6
					c0.7-0.3,1.4-0.6,2-0.8l0.2-0.1c0.9-0.3,1.7-0.6,2.6-1c0.7-0.3,1.3-0.7,2-1l0.6-0.3c0.8-0.4,1.6-0.9,2.3-1.2l0.9-0.5l0.4-0.2
					c0.5-0.3,0.9-0.6,1.3-0.8l0.1-0.1l0.1-0.1h-0.1l-0.1,0.1c1.2-0.8,2.4-1.7,3.5-2.7c1.2-1,2.4-1.9,3.6-2.8s2.3-1.7,3.5-2.7
					l0.4-0.4c1-0.8,2-1.6,2.9-2.5c0.5-0.5,0.9-0.9,1.4-1.4l0.3-0.2c0.3-0.3,0.6-0.6,0.9-0.9s0.5-0.6,0.8-0.8
					c1.1-1.1,2.2-2.3,3.2-3.5c0.7-0.9,1.4-1.8,2.1-2.7l0.5-0.6c0.5-0.6,1-1.3,1.5-2.1c0.2-0.2,0.3-0.5,0.5-0.7
					c0.3-0.4,0.6-0.9,0.8-1.3c0.6-1,1.1-2,1.7-3c0.2-0.4,0.5-0.9,0.7-1.3c0.7-1.3,1.4-2.7,2-4.1c0.5-1.3,1.1-2.5,1.6-3.8
					c0.3-0.7,0.6-1.4,0.9-2.1c0.2-0.5,0.3-1,0.5-1.5l0.1-0.5c0.4-1.1,0.7-2.2,1-3.3l0.1-0.5c0.1-0.3,0.2-0.7,0.2-1s0.2-0.9,0.3-1.3
					l0.1-0.6v0.1c0.1-0.6,0.2-1.1,0.3-1.7l0.1-0.6l0.1-0.4c0.1-0.6,0.2-1.2,0.3-1.8c0.1-0.8,0.2-1.6,0.3-2.4
					c0.1-0.6,0.1-1.1,0.2-1.6l0.1-0.7c0.2-1.2,0.3-2.6,0.5-4.4c0.1-0.9,0.1-1.6,0.1-2.3v-2c0-0.3,0-0.6,0-0.8v-0.2
					c0-0.4,0-0.9,0-1.3l0,0c0-0.3,0-0.7,0-1.1v-1.1c0-0.3,0-0.5,0-0.8c0-0.4,0-0.9,0-1.4c0-0.8-0.1-1.6-0.2-2.4
					c-0.2-1.7-0.4-3.3-0.6-4.9c-0.1-0.6-0.2-1.3-0.3-1.9l-0.1-0.4c0-0.2-0.1-0.4-0.1-0.6s-0.1-0.3-0.1-0.5v-0.1
					c-0.1-0.3-0.1-0.7-0.2-1c-0.2-0.7-0.4-1.3-0.7-1.9c-0.2-0.4-0.4-0.8-0.6-1.2l-0.1-0.3c-0.2-0.5-0.5-1-0.7-1.4s-0.5-1.2-0.8-1.7
					c-0.2-0.4-0.4-0.7-0.7-1.1l-0.4-0.7l-0.6-1.1l-0.4-0.8c-0.1-0.3-0.3-0.5-0.4-0.8s-0.4-0.7-0.6-1s-0.6-0.9-0.9-1.4l-0.2-0.3
					c-0.4-0.6-0.8-1.3-1.1-1.9s-0.6-1-0.9-1.6l-0.1-0.2c-0.4-0.7-0.8-1.4-1.2-2l-0.4-0.6c-0.3-0.4-0.6-0.9-0.8-1.3l-0.7-1.1
					c-0.2-0.2-0.3-0.5-0.5-0.7l-0.5-0.8c-0.2-0.4-0.5-0.8-0.8-1.2c-0.6-0.8-1.1-1.5-1.6-2.2c-0.3-0.4-0.6-0.8-1-1.1l-0.6-0.6
					l-0.1-0.1c-0.2-0.2-0.4-0.4-0.5-0.7s-0.5-0.6-0.6-0.9l-0.4-0.5l-0.2-0.3c-0.2-0.2-0.4-0.5-0.6-0.7l-0.1-0.1
					c-0.5-0.6-1-1.2-1.5-1.8c-0.3-0.3-0.6-0.7-0.8-1l-0.7-0.8c-0.4-0.5-0.9-1.1-1.4-1.6s-1-1-1.4-1.4l-0.8-0.9L166,62
					c-0.5-0.5-1-1-1.6-1.5l-0.6-0.5l-0.2-0.2l-0.6-0.4l-0.3-0.2l-0.5-0.4c-0.3-0.3-0.7-0.5-1-0.8l-0.4-0.4l-0.6-0.6l0,0h-0.1l0,0
					l0,0c-0.5-0.5-1.1-0.9-1.7-1.3l-1.1-0.7l-0.7-0.4c-1.1-0.7-2.2-1.3-3.3-1.9l-0.3-0.2c-0.8-0.5-1.6-0.9-2.4-1.2l-0.6-0.3
					l-0.4-0.2l-0.4-0.2c-0.2-0.1-0.5-0.2-0.7-0.3l-0.3-0.1c-0.6-0.3-1.2-0.5-1.9-0.8s-1.5-0.5-2.3-0.8l-0.2-0.1
					c-0.4-0.1-0.8-0.2-1.2-0.3l-0.4-0.1c-0.3-0.1-0.6-0.2-0.9-0.3l-0.7-0.2l-0.6-0.2c-0.5-0.1-0.9-0.2-1.5-0.3l-0.4-0.1l-0.3-0.1
					l-0.3-0.1l-0.6-0.2c-0.5-0.1-0.9-0.2-1.4-0.3l-0.5-0.1h-0.3L134,46c-0.9-0.2-1.8-0.5-2.8-0.6c-0.7-0.1-1.3-0.2-2-0.3
					c-0.3-0.1-0.6-0.1-0.9-0.2l-0.8-0.1c-0.7-0.1-1.4-0.3-2.1-0.4s-1.3-0.2-1.9-0.2c-1.1-0.1-2.2-0.2-3.2-0.2l-0.7-0.1l-4.1-0.3
					h-0.3h-0.8h-0.3L114.2,43.5z M87.1,93.7c-0.7,0-1.4-0.1-2.1-0.2c-0.3-0.1-0.7-0.2-1.1-0.3l-0.3-0.1c-0.5-0.1-1-0.3-1.5-0.6
					l-0.4-0.2c-0.2-0.1-0.4-0.2-0.5-0.4c-0.3-0.3-0.7-0.7-0.9-1.1c-0.4-0.6-0.7-1.2-0.9-1.8c-0.1-0.3-0.2-0.7-0.2-1
					c0-0.8,0.1-1.7,0.2-2.5c0.1-0.3,0.2-0.7,0.3-1c0.1-0.3,0.3-0.6,0.4-0.9s0.4-0.7,0.7-1.1l0.3-0.4c0.3-0.5,0.6-1,1-1.4
					c0.3-0.3,0.6-0.5,1-0.8c0.2-0.1,0.4-0.2,0.6-0.3c0.2-0.1,0.3-0.1,0.5-0.2l0.3-0.1c0.3-0.1,0.6-0.2,0.9-0.4l0.7-0.3
					c0.5-0.1,1-0.2,1.5-0.3c0,0.1,0,0.1,0.1,0.2c0.1,0.3,0.4,0.5,0.7,0.6h0.1c0.2,0,0.4,0.1,0.6,0.2l0.3,0.2l0,0
					c0.2,0.1,0.5,0.3,0.7,0.4l0.4,0.1c0.2,0.1,0.4,0.1,0.6,0.2l0.6,0.3l0.4,0.2c0.1,0.1,0.2,0.2,0.3,0.3c0.1,0.1,0.3,0.3,0.4,0.4
					c0.1,0.1,0.1,0.2,0.2,0.3c0.1,0.1,0.1,0.3,0.2,0.4c0.2,0.2,0.3,0.5,0.5,0.7V83c0.2,0.4,0.4,0.7,0.6,1.2c0.2,0.6,0.4,1.3,0.4,1.9
					c0,0.3,0,0.6-0.1,0.9c-0.1,0.5-0.3,1-0.6,1.5c-0.2,0.3-0.3,0.7-0.5,1S93.1,90,93,90.2c-0.2,0.5-0.5,0.9-0.9,1.3
					c-0.4,0.4-0.9,0.8-1.4,1.2c-0.3,0.2-0.7,0.3-1,0.5c-0.8,0.2-1.6,0.4-2.4,0.6L87.1,93.7L87.1,93.7z M127.7,106.4l0.7-0.4l0.3-0.2
					l0.2-0.1c0.4-0.3,0.9-0.5,1.4-0.7l0.4-0.2c0.3-0.1,0.6-0.3,0.9-0.4c0.3-0.1,0.7-0.2,1-0.2c0.4-0.1,0.7-0.1,1.1-0.2
					c0.7-0.2,1.4-0.3,2.2-0.4h0.5c0.6,0,1.2,0,1.9,0.1c1,0.1,1.8,0.2,2.5,0.3c0.3,0.1,0.6,0.2,0.9,0.2s0.6,0.2,0.9,0.4l0.8,0.4
					l0.8,0.4c0.2,0.1,0.4,0.2,0.6,0.4s0.5,0.3,0.7,0.4s0.7,0.4,1.1,0.5l0.1,0.1l0.5,0.2c0.2,0.1,0.4,0.3,0.6,0.4l0.3,0.2
					c0.3,0.2,0.5,0.3,0.8,0.5h0.1c0.6,0.4,1.2,0.8,1.7,1.2c0.4,0.4,0.8,0.9,1.2,1.4l0.5,0.8c0.3,0.5,0.6,1,0.8,1.6
					c0.2,0.5,0.4,1,0.6,1.4s0.2,0.7,0.3,1.1v0.1l0.2,0.6c0.1,0.2,0.1,0.5,0.2,0.7c0.1,0.5,0.2,1,0.3,1.5v0.1l0.2,1.4
					c0.1,0.6,0.1,1.1,0.2,1.6s0.1,0.9,0.1,1.3c0.1,0.9,0.2,1.8,0.3,2.8c0,0.5,0.1,1.1,0.1,1.6v0.3c0,1,0,1.9,0,2.9l-0.1,1.6
					c0,0.5,0,0.9-0.1,1.4c-0.1,1.7-0.2,3.4-0.2,5l-0.1,1.5c-0.1,1.4-0.1,2.7-0.2,4.1l-0.1,2c0,0.5,0,1-0.1,1.6v0.2
					c0,0.4,0,0.9-0.1,1.3v0.3c-0.1,0.4-0.1,0.9-0.2,1.4s-0.1,0.6-0.1,1s0,0.4,0,0.6l-0.1,1.6l-0.1,0.7v0.1c-0.1,0.5-0.1,0.9-0.2,1.4
					h-0.5h-0.6H153c-0.2,0-0.3,0-0.5,0h-0.1l-0.8-0.1h-0.9h-0.6c-0.4,0-0.9,0-1.3,0.1h-0.2c-0.4,0-0.9,0-1.3,0.1l-0.4,0.1
					c-0.3,0-0.5,0.1-0.8,0.1H146c-0.2,0-0.5,0-0.7,0l-0.6-0.1l-0.5-0.1c-0.3,0-0.6,0-0.9-0.1h-0.7v-0.1c0-0.1,0-0.3,0-0.4l-0.1-0.6
					c0-0.2-0.1-0.4-0.1-0.5s-0.1-0.6-0.1-0.9V153c-0.1-0.4-0.1-0.8-0.1-1.1v-0.8c0-0.7-0.1-1.5-0.1-2.2c0-0.8,0-1.6,0-2.4v-0.3
					c0-0.7,0.1-1.5,0.1-2.2l0.1-0.6c0.1-0.6,0.1-1.3,0.1-2s0-1.6-0.1-2.7c0-0.5,0-1,0-1.5v-0.4c0-0.9-0.1-1.7-0.2-2.4
					c-0.2-1.3-0.3-2.7-0.4-4.2c0-0.6,0-1.2,0-1.8v-1.2c0-0.6,0-1.2-0.1-1.8c0-0.3-0.1-0.6-0.1-1c0-0.2-0.1-0.3-0.1-0.4v-0.2
					c-0.1-0.4-0.1-0.8-0.2-1.2c-0.1-0.3-0.2-0.7-0.3-1c-0.1-0.2-0.1-0.3-0.2-0.5l-0.1-0.2l-0.3-0.7c-0.1-0.2-0.2-0.4-0.3-0.7
					c-0.2-0.5-0.5-1-0.9-1.5c-0.1-0.1-0.2-0.2-0.3-0.3l-0.1-0.2l-0.4-0.4l-0.1-0.1c-0.4-0.4-0.8-0.8-1.3-1.2
					c-0.5-0.3-1.1-0.6-1.6-0.9c-0.6-0.3-1.2-0.4-1.8-0.5c-0.3,0-0.6-0.1-0.9-0.1H132c-0.6,0-1.2,0.1-1.8,0.2
					c-0.6,0.1-1.1,0.3-1.7,0.5c-0.5,0.2-0.9,0.3-1.3,0.6c-1,0.5-1.9,1.2-2.7,2c-0.4,0.4-0.7,0.9-1.1,1.3c-0.3,0.5-0.6,1-0.8,1.5
					c-0.2,0.5-0.4,0.9-0.6,1.4c-0.1,0.3-0.2,0.6-0.2,0.8s-0.1,0.4-0.1,0.6c-0.3,1.1-0.5,2.2-0.7,3.3c-0.1,0.8-0.2,1.7-0.2,2.5v0.7
					c-0.1,1-0.2,2-0.3,3.1c0,0.5-0.1,0.9-0.2,1.4c-0.1,0.6-0.1,1.1-0.2,1.6c-0.1,1.1-0.1,2.2-0.2,3.1c0,1.2,0,2.2,0,3.2
					s0.1,2.1,0.1,3.1v2.1c0,0.4,0,0.8,0,1.2c0,0.8,0,1.6-0.1,2.3c0,0.3,0,0.6,0,0.8c0,0.7,0,1.4,0,2.2c0,0.5,0.1,1,0.1,1.4H120
					c-0.3,0-0.7,0-1.2,0.1c-0.3,0-0.6,0-0.9,0.1l-0.9,0.1h-0.3h-0.7L115,156h-0.4h-0.6c-0.7,0-1.3,0-2-0.1l-1.4-0.1h-1
					c-0.8,0-1.7,0-2.5-0.1v-0.4v-0.3c0-0.3,0-0.7,0-1c0-0.6,0-1.2-0.1-1.8c0-0.2,0-0.3,0-0.5s0-0.5,0-0.7s0-0.6,0-0.8s0-0.5,0-0.7
					c0-0.4-0.1-0.9-0.1-1.3V148v-0.4c0-0.3,0-0.7-0.1-1c-0.1-0.5-0.1-1-0.1-1.4c0-0.6,0-1.3,0-1.9v-1c0-0.8,0-1.7-0.1-2.5v-0.9
					c0-1-0.1-2-0.1-3c0-0.6,0-1.2,0.1-1.7s0-1,0.1-1.5s0-1,0-1.5v-1.4c0-0.9,0.1-2,0.1-3.1s0-1.8-0.1-3.1c0-1,0-2,0-3v-0.1
					c0-1.3,0-2.3,0-3.2s-0.1-2-0.1-3s0-2,0-3.2v-1.6c0-0.5,0-1.1,0-1.6s0-1.1,0-1.6s0.1-0.9,0.1-1.4c0.1,0,0.2,0,0.3,0h0h0.4h0.3
					h0.3c0.2,0,0.5,0,0.7,0h0.8c0.5,0,1,0,1.5,0h1.2c0.3,0,0.6,0,0.8,0s0.8-0.1,1.1-0.1l0.8-0.1c0.3,0,0.5,0,0.8,0h0.6
					c0.4,0,0.7,0,1.1,0h0.6h0.8c0.3,0,0.6,0,0.9,0c0.3,0,0.5,0,0.8-0.1c0,0.2,0,0.5,0.1,0.7s0.1,0.5,0.1,0.7s0.1,0.6,0.1,1
					s0.1,0.8,0.1,1.1v1c0,0.3,0,0.7,0,1.1c0,0.2,0,0.3,0,0.5c0,0.1,0,0.2,0,0.3c-0.1,0.4,0,0.8,0.2,1.1c0.2,0.2,0.5,0.4,0.8,0.4
					c0.1,0,0.1,0,0.2,0c0.2,0,0.4-0.1,0.6-0.3l0.2-0.2l0.1-0.1l0.2-0.2l0,0c0.2-0.2,0.3-0.4,0.5-0.6l0.3-0.6
					c0.1-0.2,0.3-0.4,0.4-0.7l0.1-0.1c0.2-0.2,0.3-0.5,0.6-0.7s0.3-0.3,0.5-0.5l0.1-0.1c0.2-0.2,0.3-0.3,0.5-0.4l0.1-0.1
					c0.5-0.4,1-0.8,1.5-1.1l0,0h0.1l0,0L127.7,106.4z M88.2,105.7h0.4c0.8,0,1.6-0.1,2.3-0.2l0.5-0.1c0.4-0.1,0.9-0.1,1.4-0.2h0.3
					c0,0.3,0,0.5,0.1,0.8c0,0.2,0,0.3,0.1,0.5s0,0.2,0,0.3v1.1c0,0.4,0,0.9,0,1.4c0,1,0,1.9-0.1,2.9c-0.1,0.9-0.1,1.9-0.1,2.9
					c0,1,0.1,2.1,0.2,3.1c0,1,0,2,0,2.8s0,1.7,0.1,2.6v0.6c0,0.2,0,0.5,0,0.7s0,0.6,0,0.9c0,0.5,0,1,0,1.5v0.1c0,0.4,0,0.8,0,1.2
					c0,0.6,0,1.3-0.1,1.9c0,0.4-0.1,0.8-0.1,1.1c0,0.1,0,0.3,0,0.4l-0.1,1.5l-0.1,0.7c0,0.3-0.1,0.6-0.1,0.9s-0.1,0.8-0.1,1.2v0.4
					l-0.1,0.6c-0.1,1.9-0.3,3.9-0.4,5.8c-0.1,0.9-0.2,1.8-0.3,2.6c0,0.3-0.1,0.6-0.2,0.9l-0.1,0.4c-0.1,0.3-0.1,0.6-0.2,0.9v0.4
					c-0.1,0.7-0.2,1.6-0.3,2.5c0,0.9,0,1.8,0.1,2.7v0.3v0.3l0,0h-0.2l-0.6,0.1h-0.8c-0.2,0-0.4,0-0.7,0.1l-0.5,0.1l-0.5,0.1
					l-0.4,0.1c-0.3,0.1-0.5,0.1-0.8,0.1c-0.7,0-1.3,0.1-1.9,0.2l-0.5,0.1l-0.5,0.1c-0.3,0.1-0.6,0.1-1,0.1h-0.7h-0.6
					c-0.6,0-1.1,0.1-1.7,0.1h-0.3c-0.3,0-0.5,0-0.8-0.1l0,0v-0.1c0-0.1-0.1-0.2-0.1-0.3c0-0.6-0.1-1.2-0.1-1.9c0-0.3,0-0.6,0-0.9
					v-0.4c0-0.5,0-1,0.1-1.5c0.1-1,0.1-2,0.2-3s0.1-2,0.1-3c0-0.2,0-0.5,0-0.7s0-0.4,0-0.7v-1.5c0-0.8,0.1-1.6,0.1-2.3v-0.6l0.2-3
					c0.1-1.9,0.2-4.2,0.3-6.4c0-0.3,0-0.6,0-0.9c0-0.4,0-0.9,0-1.4c0-0.8,0-1.5,0.1-2.3s0.1-1.6,0-2.5s-0.1-1.6-0.1-2.3v-0.2
					c0-0.4,0-0.9,0-1.3s0-0.7,0-1c0-0.2,0-0.3,0-0.5c0-1,0.1-2,0-3c0-0.6,0-1.1-0.1-1.7c0-0.2,0-0.3,0-0.5s-0.1-0.6-0.1-0.9
					s-0.1-0.6-0.1-0.8l-0.1-0.5c-0.1-0.4-0.1-0.9-0.2-1.4c-0.1-0.7-0.1-1.3-0.2-2.1v-0.5l0.1,0.1c0.2,0.2,0.4,0.4,0.7,0.4
					c0.7,0,1.5-0.1,2.2-0.2l0.5-0.1c0.7-0.1,1.4-0.2,2.4-0.2c0.5,0,0.9,0,1.4,0h0.6c0.2,0,0.5,0,0.7,0h1L88.2,105.7z"/>
				<path class="st0" d="M45.8,54.6c-0.3,0.1-0.6,0.3-0.9,0.6c-0.4,0.3-0.7,0.7-1,1.1c-0.3,0.4-0.5,0.8-0.7,1.3
					c-0.2,0.5-0.3,1.1-0.4,1.6c0,0.2,0,0.4,0,0.6c0,0.3,0,0.5,0.1,0.8c0.1,0.3,0.2,0.6,0.3,0.9c0.3,0.5,0.6,1,1.1,1.3
					c0.3,0.2,0.5,0.3,0.8,0.5c0.4,0.2,0.8,0.3,1.2,0.4c0.3,0.1,0.6,0.1,0.9,0.2c0.4,0.1,0.9,0.1,1.3,0c0.3-0.1,0.6-0.1,0.9-0.3
					c0.3-0.1,0.5-0.3,0.7-0.4c0.1-0.1,0.2-0.1,0.3-0.2c0.2-0.2,0.4-0.4,0.6-0.6c0.1-0.1,0.2-0.3,0.3-0.4c0.6-0.7,1.1-1.5,1.4-2.4
					l0.2-0.7c0-0.2,0.1-0.3,0.1-0.5c0-0.3,0-0.6,0-0.9c-0.1-0.5-0.3-0.9-0.6-1.3c-0.3-0.3-0.6-0.6-0.9-0.8c-0.4-0.3-0.9-0.5-1.4-0.7
					c-0.5-0.1-1-0.2-1.5-0.3c-0.4-0.1-0.8-0.1-1.2-0.2h-0.2C46.6,54.3,46.2,54.4,45.8,54.6L45.8,54.6z"/>
				<path class="st0" d="M64,41.7c-0.7,0.1-1.3,0.2-1.9,0.5c-0.5,0.2-1,0.4-1.4,0.7c-0.3,0.2-0.6,0.4-0.8,0.6
					c-0.3,0.2-0.5,0.5-0.7,0.8l-0.4,0.6c-0.2,0.3-0.3,0.6-0.4,0.9c-0.4,1-0.6,2.1-0.6,3.2c0,0.6,0.1,1.2,0.3,1.8
					c0.1,0.3,0.3,0.6,0.5,0.9c0.2,0.3,0.4,0.6,0.6,0.8c0.2,0.2,0.4,0.4,0.6,0.6c0.2,0.1,0.4,0.3,0.5,0.3c0.4,0.2,0.8,0.4,1.2,0.6
					c0.2,0.2,0.4,0.3,0.6,0.4c0.5,0.3,1.1,0.5,1.7,0.7c0.6,0.2,1.2,0.3,1.9,0.3c0.4,0,0.7,0,1.1-0.1c0.4-0.1,0.7-0.2,1.1-0.3
					l0.7-0.3c0.3-0.2,0.6-0.3,0.9-0.5c0.5-0.3,0.9-0.7,1.2-1.2c0.1-0.2,0.3-0.3,0.4-0.5c0.2-0.3,0.4-0.6,0.5-0.9
					c0.1-0.2,0.2-0.4,0.2-0.7c0.1-0.4,0.2-0.8,0.2-1.1c0.1-0.5,0.2-1,0.2-1.5c0-0.3,0-0.7,0-1c0-0.3-0.1-0.5-0.1-0.8
					c-0.1-0.6-0.3-1.1-0.5-1.6c-0.2-0.4-0.4-0.8-0.7-1.2c-0.2-0.3-0.5-0.5-0.8-0.7c-0.3-0.2-0.6-0.4-0.9-0.5c-0.5-0.2-1-0.4-1.5-0.5
					c-0.6-0.1-1.2-0.2-1.8-0.3c-0.3,0-0.7-0.1-1-0.1C64.6,41.6,64.3,41.7,64,41.7z M66.2,48.7L66.2,48.7z M66.2,48.7L66.2,48.7
					L66.2,48.7z M66.1,49.1L66.1,49.1L66.1,49.1L66.1,49.1z"/>
				<path class="st0" d="M199.2,151.4c-0.5,0.1-0.9,0.3-1.2,0.6c-0.4,0.3-0.7,0.6-0.9,0.9c-0.3,0.3-0.6,0.7-0.9,1.1
					c-0.2,0.3-0.4,0.7-0.5,1.1c-0.1,0.3-0.1,0.7-0.1,1c-0.1,0.8,0.2,1.6,0.8,2.1c0.2,0.2,0.5,0.4,0.8,0.6c0.1,0.1,0.3,0.2,0.4,0.2
					c0.2,0.1,0.4,0.2,0.6,0.3c0.2,0.1,0.5,0.1,0.7,0.1c0.3,0,0.7,0,1-0.1c0.2,0,0.3-0.1,0.5-0.1c0.3-0.1,0.7-0.2,1-0.3
					c0.5-0.2,0.9-0.5,1.2-0.8c0.5-0.4,0.9-0.9,1.2-1.4c0.1-0.2,0.3-0.5,0.4-0.7c0.1-0.2,0.1-0.4,0.1-0.6c0-0.2,0-0.4,0-0.6
					c0-0.4-0.1-0.8-0.3-1.1c-0.2-0.6-0.6-1.1-1-1.4c-0.3-0.3-0.6-0.5-1-0.6c-0.6-0.3-1.2-0.4-1.8-0.4c-0.3,0-0.5,0-0.8,0.1
					L199.2,151.4z M200.4,155.3l0.1,0.1C200.4,155.4,200.4,155.3,200.4,155.3L200.4,155.3z M200.4,155.4L200.4,155.4z"/>
			</g>
		</g>
		<text transform="matrix(1 0 0 1 60.1552 235.2866)" class="st1 st2">LinkedIn</text>
	</g>
</g>
</svg>
