<svg xmlns="http://www.w3.org/2000/svg" viewBox="0 0 450.56 283.83"><defs><style>.cls-1{fill:#fefefe;}</style></defs><g id="Layer_2" data-name="Layer 2"><g id="Draw_Layer" data-name="Draw Layer"><path class="cls-1" d="M430.33,154.7a4.2,4.2,0,0,0-2.11,3.46c-.11.41-.25.81-.39,1.21-.1.19-.2.36-.3.54s-.23.35-.33.52a6.55,6.55,0,0,0-.58,1.19,8,8,0,0,1-.68,1.16c-.28.41-.55.84-.83,1.25-.67.73-1.44,1.38-2.15,2.06-.4.38-.84.7-1.25,1s-.62.59-.94.87a18.59,18.59,0,0,1-2.46,1.47c-2,.72-4.12,1.15-6.18,1.68s-4,.91-6.08,1.22c-3.92.44-7.87.63-11.8.76-4.13.13-8.25.24-12.36.41-2,.07-3.92.21-5.88.24-2.2,0-4.39,0-6.58-.13-3.92-.19-7.84-.46-11.75-.76-4.22-.33-8.44-.64-12.65-1.09s-8.48-.59-12.71-1l-6.23-.62c-2-.21-4.13-.27-6.19-.35l-12.66-.52c-4.11-.18-8.21-.46-12.31-.69-4.36-.25-8.72-.38-13.07-.71-2.17-.16-4.34-.37-6.52-.5s-4.24-.22-6.36-.31c-4.41-.18-8.82-.19-13.23-.25-4-.05-7.93-.08-11.89-.18l-6.29-.12c-2.14,0-4.27-.15-6.41-.14-4.26,0-8.53.42-12.79.64-2.12.12-4.25.26-6.37.33s-4.09.05-6.13.15c-4.21.21-8.4.59-12.61.79s-8.23.2-12.33.5a120.65,120.65,0,0,0-13.37,1.83c-2,.39-4.1.74-6.13,1.17s-4.2.92-6.31,1.32C147,174.7,139,177.33,131,179.5c-4,1.08-8.1,2-12.14,3.11s-8.13,2.29-12.19,3.46c-2.35.68-4.71,1.35-7,2.08s-4.39,1.65-6.58,2.48c-2.44.93-4.9,1.84-7.31,2.84-2.07.87-4.13,1.8-6.19,2.69-3.74,1.5-7.54,2.83-11.22,4.47s-7.5,3.64-11.18,5.6S50,210.11,46.34,212c-1.88.94-3.77,1.89-5.57,3s-3.31,2.07-4.93,3.16c-3,2-5.9,4.23-8.77,6.47-.75.56-1.5,1.12-2.25,1.7q-4,3-8,6.14a56.37,56.37,0,0,0-7.6,6.79A42.87,42.87,0,0,0,5,244.93a38.24,38.24,0,0,0-3,6.3,35.52,35.52,0,0,0-1.47,5.58A26.38,26.38,0,0,0,0,260.47a23.05,23.05,0,0,0,.14,3.32,24.54,24.54,0,0,0,1.38,6.84,22.94,22.94,0,0,0,4.21,6.85C8.8,281,13.56,282.36,18,283.12a44.94,44.94,0,0,0,7.23.7,35.61,35.61,0,0,0,6.9-.6,32.31,32.31,0,0,0,5.08-1.54,53.21,53.21,0,0,0,6.4-2.76c2.2-1.13,4.35-2.34,6.49-3.57,1.14-.65,2.33-1.18,3.5-1.76s2.22-1.15,3.3-1.77c1.85-1.06,3.71-2.08,5.49-3.27,1.2-.8,2.36-1.7,3.49-2.62a40.43,40.43,0,0,0,3-2.85,4.25,4.25,0,1,0-6-6.06,47.29,47.29,0,0,1-3.61,3.33,43.67,43.67,0,0,1-4.57,2.92c-1.94,1.07-3.85,2.2-5.84,3.17-4.17,2-8.08,4.59-12.34,6.45a39.5,39.5,0,0,1-7.28,2.23,36.88,36.88,0,0,1-7.86,0,35,35,0,0,1-6.76-1.61,15.48,15.48,0,0,1-1.9-1.08,15.61,15.61,0,0,1-1.57-1.68,20.76,20.76,0,0,1-1.6-2.83,18.63,18.63,0,0,1-.81-3.21,24.55,24.55,0,0,1-.16-4.92c.2-1.19.45-2.38.75-3.56a30.48,30.48,0,0,1,1.28-3.85,33.41,33.41,0,0,1,3.5-5.79,39.91,39.91,0,0,1,3.35-3.65c1.15-1.08,2.37-2.08,3.61-3.06,2.26-1.79,4.51-3.62,6.81-5.38,1.06-.78,2.12-1.58,3.17-2.38,1.54-1.16,3.05-2.35,4.58-3.53q4.11-3,8.43-5.72c3.22-2,6.7-3.55,10-5.33,6.73-3.58,13.35-7.35,20.36-10.34q3.61-1.42,7.26-2.8c2.63-1,5.18-2.24,7.77-3.34,1.75-.69,3.53-1.3,5.27-2s3.76-1.51,5.66-2.19,4-1.26,6.08-1.87,4.08-1.19,6.13-1.77c4.14-1.17,8.26-2.41,12.45-3.42s8.09-2,12.1-3.15c6.42-1.78,12.75-3.85,19.3-5.12,3.24-.63,6.46-1.37,9.71-2s6.46-1.18,9.72-1.65c1.9-.24,3.81-.46,5.74-.58s4-.19,6.07-.27c4.28-.16,8.56-.32,12.84-.66,2-.16,4-.28,6-.35s4.19,0,6.28-.15c4.28-.2,8.57-.48,12.85-.73,2-.13,4.06-.23,6.09-.2s4.33.11,6.49.14c4.15.07,8.3.2,12.46.25s8.36,0,12.54.1,8.62.3,12.92.55c2.2.13,4.41.36,6.61.52s4.37.3,6.55.4,4.36.17,6.54.29,4.11.28,6.16.4c4.15.23,8.29.34,12.44.53s8.39.25,12.56.68c2,.2,4,.41,6,.58,2.16.19,4.32.29,6.49.44,4.24.27,8.46.81,12.69,1.15q6.12.49,12.23.88c4.11.26,8.19.5,12.3.43,2,0,3.95-.18,5.92-.27s4.1-.11,6.14-.18c4.2-.16,8.4-.25,12.59-.55a75,75,0,0,0,11.75-1.62c1.79-.42,3.56-.89,5.33-1.35a19.77,19.77,0,0,0,5.28-2.16,22.27,22.27,0,0,0,3.67-2.73c.44-.41.93-.76,1.38-1.16s.82-.78,1.22-1.17a15.31,15.31,0,0,0,1.39-1.4c.07-.09.15-.18.22-.28l.15-.23.37-.65c.31-.56.53-1.16.78-1.74s.54-1.17.79-1.76c.14-.35.24-.73.37-1.09s.29-.6.41-.91c.21-.56.45-1.11.63-1.67l.12-.41v-.06h0v0l0-.14,0,.14.09-.33-.1.33v0h0l0,.08,0,.06.25-.88c0-.05,0-.1.05-.15l.21-.73a7.11,7.11,0,0,0,.15-.75,12.35,12.35,0,0,1,.34-1.33v0l0-.06a1.13,1.13,0,0,1,0-.15,1.13,1.13,0,0,0,0,.15l.09-.33a3.49,3.49,0,0,0-.23-.48,4.23,4.23,0,0,0-3.71-2.12,4.11,4.11,0,0,0-2.09.55Zm-355,52.14L75,207l.32-.14Z"/><path class="cls-1" d="M436.25,157.14h0l0-.06,0,0Z"/><path class="cls-1" d="M436.25,157.16a.57.57,0,0,0,0,.14.83.83,0,0,1,0-.15Z"/><path class="cls-1" d="M445.88,57.4a4.34,4.34,0,0,0-3.82,2.39,2,2,0,0,1,.05.24,17.74,17.74,0,0,1,.28,3.78,41.88,41.88,0,0,1-.36,4.62v0c0,.46,0,.92,0,1.38-.18,1.29-.29,2.57-.42,3.86a1.49,1.49,0,0,1,0-.21c-.23,2-.28,4-.47,6-.12.8-.22,1.6-.32,2.41-.09.52-.21,1-.33,1.54s0,.74,0,1.1c0,.55-.13,1.09-.21,1.64-.05.36-.08.72-.12,1.07a11.68,11.68,0,0,1-.22,1.18c-.09,1.33-.27,2.66-.42,4-.1.94-.17,1.87-.31,2.8s-.31,1.66-.47,2.48c-.32,1.61-.6,3.22-.84,4.84-.14,1-.32,2.1-.48,3.16-.19,1.36-.45,2.7-.66,4s-.41,2.7-.7,4-.59,2.58-1,3.86l-.18.64c-.13.87-.27,1.73-.46,2.6-.1.45-.2.91-.29,1.37-.15,1.08-.3,2.16-.53,3.24s-.43,2-.59,3c-.09.71-.15,1.42-.28,2.12s-.34,1.36-.52,2l-.15.52c0,.3-.07.59-.11.88-.15.91-.36,1.82-.49,2.73-.17,1.24-.27,2.46-.38,3.69-.05.41-.11.82-.16,1.22-.2,1.19-.59,2.37-.86,3.55a38.06,38.06,0,0,0-.61,4.11c-.19,1-.52,1.9-.79,2.83-.46,1.63-1,3.24-1.46,4.86a4.25,4.25,0,0,0,8.2,2.23c.49-1.58,1-3.15,1.43-4.73.07-.5.16-1,.22-1.48a15.22,15.22,0,0,1,.46-2.21s0,0,0-.05v.08a14.73,14.73,0,0,0,.41-1.81l.12-1c.05-.37.06-.74.13-1.11.28-1.37.53-2.75.8-4.12.13-.62.27-1.24.4-1.86.06-.3.11-.61.18-.91,0-.11,0-.22.07-.33,0-.34.07-.68.11-1,.1-.67.23-1.34.36-2,.19-.94.28-1.9.39-2.86.3-1.85.79-3.64,1.17-5.48.26-1.25.42-2.51.67-3.76s.52-2.34.71-3.52.29-2.14.51-3.2c.19-.91.39-1.83.54-2.75.19-1.18.35-2.36.58-3.54s.4-2.4.55-3.61c.13-.88.26-1.74.36-2.62.05-.54.08-1.09.13-1.63a60.94,60.94,0,0,1,1.36-5.95,33,33,0,0,0,.7-4.21c.12-1,.12-2,.25-3l-.15,1.13c.18-1.35.26-2.71.39-4.06.16-.89.36-1.77.57-2.65a29.65,29.65,0,0,0,.5-3.25c.11-.72.22-1.45.3-2.18s.07-1.19.13-1.78c.12-1.14.09-2.29.22-3.43,0,.14,0,.28,0,.42.13-1.07.22-2.15.34-3.23s.26-2.07.3-3.13a14.44,14.44,0,0,0-.3-3c0-.28-.07-.56-.1-.85-.1-1,.07-1.92,0-2.88a4.53,4.53,0,0,0-1.22-3,4.3,4.3,0,0,0-3-1.27Z"/><path class="cls-1" d="M211.82,90c-2.2.11-4.4.14-6.6.2s-4.2.25-6.29.37c-4.09.25-8.19.68-12.26,1.07-4.36.42-8.68,1.12-13,1.87-1.92.32-3.83.69-5.75,1-1.64.29-3.28.49-4.92.81-4,.76-8.07,1.67-12,2.75s-7.81,2.42-11.73,3.6c-3.34,1-6.72,1.9-10.08,2.83-3.6,1-7.11,2.28-10.67,3.4-1.45.46-2.93.86-4.38,1.33-1.63.51-3.23,1.09-4.84,1.63-.78.27-1.59.48-2.38.71-1.19.34-2.33.77-3.48,1.21-1.89.72-3.72,1.58-5.55,2.43a4.25,4.25,0,0,0,.74,7.82,4.4,4.4,0,0,0,3.24-.31c1.8-.83,3.6-1.65,5.44-2.38,1.67-.58,3.38-1,5-1.58s3.23-1.11,4.87-1.61l4.75-1.45c2.05-.64,4.05-1.38,6.09-2,3.64-1.14,7.35-2.06,11-3.11,3.88-1.11,7.71-2.38,11.56-3.57,3-.94,6.11-1.63,9.2-2.31,2.87-.64,5.73-1.28,8.65-1.68s5.88-1.07,8.84-1.52c3.15-.48,6.28-1,9.45-1.39,3.81-.37,7.63-.74,11.44-1,4.36-.3,8.72-.45,13.08-.6,2.67-.09,5.34-.24,8-.28l.38,0a7.53,7.53,0,0,1,1.06,0h.4c.61,0,1.21,0,1.81,0,.45,0,.89,0,1.34,0l1.14,0c.35,0,.69,0,1,0,.8.06,1.57.25,2.37.34a2.18,2.18,0,0,1,.71.22h.09c2.13.13,4.26.23,6.38.36,4.31.28,8.63.38,12.93.73,4,.33,8,.7,12,1.16,8.34,1,16.7,1.87,25,3.13,3.92.67,7.82,1.46,11.66,2.49,4.11,1.11,8.19,2.36,12.27,3.6q12.4,3.8,24.79,7.62l4.91,1.51c1.62.5,3.2,1.11,4.79,1.69s3.35,1.22,5,1.88c1.48.6,2.93,1.25,4.38,1.91,2.38,1.12,4.7,2.35,7,3.6s4.62,2.4,6.93,3.6c4.18,2.17,8.28,4.45,12.55,6.42,1.34.63,2.67,1.26,4,1.87,1.58.75,3.16,1.51,4.78,2.16s3.25,1.34,4.86,2.06l-1-.48c1.71.79,3.43,1.53,5.14,2.28s3.3,1.67,4.94,2.53c.89.46,1.79.89,2.65,1.39s1.72,1.15,2.56,1.73c2,1.37,4.16,2.52,6.21,3.85,1.56,1,3.16,1.95,4.63,3.08a12.46,12.46,0,0,1,3.43,4.69c.1.35.2.7.27,1a5.83,5.83,0,0,1,0,.59c-.08.39-.18.78-.29,1.17a4.25,4.25,0,0,0,8.12,2.5,19.85,19.85,0,0,0,.69-3.66,12,12,0,0,0-1-5.17,11.2,11.2,0,0,0-.91-1.75c-.3-.51-.58-1-.9-1.54a20.62,20.62,0,0,0-3.08-3.64,33.06,33.06,0,0,0-5.13-3.75c-1.91-1.25-3.89-2.35-5.82-3.55-1.68-1-3.2-2.29-4.94-3.23s-3.36-1.73-5-2.61c-2.36-1.25-4.86-2.2-7.28-3.31l1,.47c-1.53-.7-3.08-1.38-4.63-2.05-1.21-.53-2.44-1-3.65-1.52s-2.21-1-3.33-1.54c-1.44-.68-2.88-1.36-4.33-2l1,.47c-3.38-1.62-6.7-3.38-10-5.17-1.74-.95-3.52-1.83-5.28-2.76l-5.74-3c-2.22-1.16-4.48-2.21-6.77-3.22-2-.88-4-1.79-6-2.52l-5.82-2.11c-2-.73-4.14-1.31-6.21-1.94Q325,106,312.62,102.18c-4-1.23-8.07-2.48-12.15-3.58-4.24-1.14-8.53-2-12.85-2.74-4.6-.77-9.23-1.34-13.86-1.89l-12-1.4c-4-.46-7.95-.85-11.95-1.18-4.41-.36-8.84-.49-13.27-.76-2.06-.12-4.13-.22-6.19-.35s-4.28-.36-6.42-.48c-1.19-.07-2.38-.1-3.56-.1-2.86,0-5.72.16-8.57.3Z"/><path class="cls-1" d="M98.92,22.94l.1-.05.08-.06h0l.22-.13-.32.2-.61.4c-.23.15-.41.35-.63.5-.5.33-1,.57-1.56.85-.26.19-.49.4-.75.6a3.65,3.65,0,0,0-.28,1.48l0,.52c-.12.45-.23.9-.32,1.35-.22,1-.33,2-.46,3.06s-.37,1.73-.49,2.62c-.07.47-.05,1-.08,1.44-.14.72-.27,1.44-.34,2.17s0,1.23-.1,1.84,0,1.33,0,2a25.43,25.43,0,0,1-.18,2.61c-.08.71-.1,1.44-.14,2.16s0,1.37,0,2a40.72,40.72,0,0,1,0,4.28,26.83,26.83,0,0,0-.39,5.44c.06,1.47,0,2.94-.06,4.41a27.87,27.87,0,0,0,.15,3.42,37.48,37.48,0,0,1,0,4.24c-.08,1.79-.25,3.6-.44,5.38a28.73,28.73,0,0,0,.17,4.54c.08,1.43.12,2.86.09,4.29-.08,3,.08,6.09-.19,9.13a39.33,39.33,0,0,0,.07,5.64c0,1,0,1.91.06,2.86a20.26,20.26,0,0,0,.41,3.39c.07.32.12.64.16,1,.14,2,.32,4,.35,5.94,0,2.39-.1,4.79-.3,7.17a4.25,4.25,0,0,0,7.12,3.25,4.39,4.39,0,0,0,1.38-3,67.66,67.66,0,0,0,.26-9c-.07-1.42-.22-2.83-.32-4.24s-.36-2.67-.55-4c0-.79,0-1.59,0-2.38s-.1-1.81-.16-2.71c-.11-1.74.09-3.47.15-5.2.1-2.86.1-5.71.12-8.57,0-1.41-.06-2.82-.18-4.22a24.53,24.53,0,0,1,0-4.37c.16-1.73.32-3.46.39-5.2a32.68,32.68,0,0,0-.19-5c0,.37.08.73.11,1.1-.23-2.45,0-4.89,0-7.34a26.21,26.21,0,0,1,.26-4.93s0,0,0,0c.09-.63.17-1.25.2-1.88a20.42,20.42,0,0,0,0-2.07c0-1.36-.08-2.7,0-4,.08-1.57.29-3.14.24-4.72,0-.56,0-1.11.07-1.68s0-1.08.09-1.62a17.32,17.32,0,0,0,.32-2c0-.38,0-.76,0-1.14.13-.65.28-1.3.39-2,.08-.51.12-1,.18-1.53s.17-.79.28-1.19c0-.21.11-.43.17-.64a8.22,8.22,0,0,0,.27-1.43,4,4,0,0,0,0-.92,4.44,4.44,0,0,0-1.12-3,4.34,4.34,0,0,0-3-1.37h-.09l-.54.34ZM92.79,66.1c0,.07,0,.14,0,.2a1.23,1.23,0,0,1,0-.2Z"/><path class="cls-1" d="M242.9.14c-2,.06-4,.09-6,.18-3.65.15-7.28.42-10.93.65-1.6.1-3.2.24-4.8.4h-.25l-1.15.12c-1.7.16-3.39.26-5.09.33s-3.62.21-5.42.39c-3.86.3-7.72.52-11.57.83-4.24.35-8.46.94-12.67,1.47-1.76.22-3.5.42-5.25.68-2,.31-3.94.68-5.92,1-3.48.53-7,1-10.48,1.44-.88.12-1.77.23-2.65.32l-3,.29-.09,0h0a4.15,4.15,0,0,1-.53.1,2.57,2.57,0,0,0-.4.06l-.29.09-.2.06.1,0a10.53,10.53,0,0,1-2.71.55l.3,0c-.23,0-.47,0-.7,0l-.57,0c-.25,0-.5,0-.74.07-.46.06-.93.15-1.38.22l-.69.11-.54.11-.13,0c-1,.25-1.94.4-2.92.57l-1.11.19-.94.2c-.41.09-.83.2-1.25.28l-.55.09c-1.36.28-2.72.55-4.09.8-1.75.32-3.51.52-5.27.82s-3.31.59-4.95,1c-2,.46-4,1.08-6,1.59s-3.94,1-5.92,1.41c-1.56.35-3.14.62-4.72.9l-1.67.53c-.46.16-.9.36-1.35.55-.74.33-1.51.59-2.26.88s-1.43.65-2.17.91a18,18,0,0,0-1.81.91c-.34.16-.68.33-1,.48s-.6.22-.88.36-.78.54-1.19.79h0l.09-.06h0l.21-.13-.33.2-.51.34a4.2,4.2,0,0,0-.06,4A4.27,4.27,0,0,0,104.16,29c1.29-.73,2.55-1.56,3.9-2.16,1.41-.43,2.85-.65,4.3-.94,1.81-.36,3.63-.66,5.44-1,2-.4,3.94-.89,5.89-1.39s4-1.12,6-1.59c1.68-.39,3.38-.69,5.07-1s3.43-.48,5.13-.79c3.34-.6,6.63-1.38,10-2,1.39-.24,2.75-.54,4.13-.82,1.67-.34,3.34-.57,5-.77,3.24-.32,6.48-.67,9.71-1.15,2.84-.42,5.69-.71,8.51-1.21,3.16-.56,6.33-1,9.51-1.39s6.11-.8,9.17-1.14c4.82-.46,9.65-.64,14.48-1.11,1.74-.14,3.5-.23,5.25-.28,2.19-.07,4.38-.33,6.55-.57l-1.09.11,1.24-.13h0c1.78-.17,3.56-.26,5.34-.38s3.74-.28,5.61-.38c3.89-.22,7.77-.3,11.66-.41s7.5,0,11.25.07c.88,0,1.75,0,2.63,0,1.05,0,2.1,0,3.15,0,2,0,4,.17,6,.24,3.87.13,7.74.26,11.58.7,4.11.46,8.23.93,12.36,1.27,3.93.32,7.86.76,11.78,1.18,2.13.23,4.25.51,6.37.82,2,.28,4,.46,5.95.7q1.35.18,2.7.39l-1.13-.18,4.1.65q3.67.64,7.37,1.25c2,.35,4,.84,6,1.23s4.05.89,6.06,1.42c4,1.07,8.12,1.81,12.17,2.77s7.76,2.15,11.6,3.32q6,1.83,12.07,3.7l5.87,1.81c1.71.52,3.35,1.22,5,1.85s3.25,1.09,4.84,1.72,3.33,1.38,5,2.09c1.93.84,3.89,1.55,5.87,2.24s3.8,1.49,5.71,2.2,3.66,1.22,5.42,2a50.28,50.28,0,0,0,4.73,1.84c.69.23,1.4.42,2.08.68s1.46.72,2.21,1.06c1.12.55,2.21,1.14,3.37,1.62.86.36,1.76.61,2.63.95l2.05,1-1-.48c.65.31,1.23.75,1.87,1.08a7,7,0,0,1,1,.51c.24.15.45.33.68.49.52.35,1,.75,1.57,1.06a10.84,10.84,0,0,1,1.31.9q.78.71,1.59,1.38c.17.14.35.26.53.39s.42.43.61.65l.33.47a1.3,1.3,0,0,1,.1.15s0,0,0,0l.05.06a12.62,12.62,0,0,1,.83,1.23,9.58,9.58,0,0,1,.93,3,17.74,17.74,0,0,1,.28,3.78c0,.56,0,1.12-.07,1.68a4.3,4.3,0,0,0,1.47.8A4.25,4.25,0,0,0,447,66a4.06,4.06,0,0,0,2.07-2.5,11.83,11.83,0,0,0,.33-2.12,8.85,8.85,0,0,0-.05-.89,2.9,2.9,0,0,0,.05-.83c0-.36-.06-.72-.11-1.07a5.59,5.59,0,0,0-.14-2c-.1-.44-.24-.87-.34-1.31,0-.22,0-.44-.07-.66a2.25,2.25,0,0,0-.09-.35,5.27,5.27,0,0,0-.18-1,6.27,6.27,0,0,0-1-2c-.2-.31-.4-.61-.63-.9a8.63,8.63,0,0,0-1.32-1.64,19.37,19.37,0,0,0-1.61-1.37l-.38-.27-1.1-1,.43.36a15.28,15.28,0,0,0-2.31-1.78c-.62-.35-1.16-.79-1.75-1.18-.23-.15-.44-.33-.67-.48a11.29,11.29,0,0,0-1.09-.57,10,10,0,0,1-.95-.57,11,11,0,0,0-1.45-.74,27.68,27.68,0,0,0-3.25-1.44c-.67-.22-1.34-.47-2-.74l-1.1-.57c-.6-.33-1.23-.6-1.86-.87-.39-.2-.77-.41-1.16-.59a24.68,24.68,0,0,0-3-1.14A44,44,0,0,1,417.57,34c-1.75-.79-3.57-1.36-5.37-2s-3.84-1.51-5.77-2.23-3.89-1.38-5.79-2.17c-1.67-.71-3.34-1.43-5-2.12s-3.23-1.13-4.83-1.73-3.36-1.36-5.09-1.91q-11.74-3.7-23.56-7.2c-1.92-.57-3.85-1.12-5.79-1.6s-4.13-.92-6.2-1.36-4-.86-5.92-1.38l-2.07-.55c-.35-.05-.69-.13-1.05-.2a11.65,11.65,0,0,1-1.43-.4c-.5-.11-1-.22-1.5-.31-1.67-.33-3.32-.73-5-1.07s-3.31-.57-5-.83c-2.79-.49-5.57-1-8.36-1.4l1.13.18c-2.22-.37-4.42-.66-6.65-.93s-4.3-.56-6.44-.85c-4-.54-8-.87-12-1.28s-8-.73-12-1.18c-2-.22-4-.49-6.07-.65s-3.81-.27-5.71-.34c-4-.17-8-.41-12-.39-1.91,0-3.82,0-5.73,0S250.87,0,249.07,0h-.87c-1.77,0-3.54.08-5.3.14ZM209.35,2.22h0Zm14.09,7.39-.36,0,.36,0Zm225.89,49.1s0,.06,0,.08,0,0,0-.08Zm0,0v.06l-.09.58.09-.64Zm0,.09a.13.13,0,0,1,0,.06s0,0,0-.06Z"/><path class="cls-1" d="M213.37,92.66a17.8,17.8,0,0,1-2.37.68,18.39,18.39,0,0,0-2.59.79c-.37.12-.73.22-1.1.31a12.61,12.61,0,0,0-1.85.63c-.37.13-.73.27-1.1.42a9,9,0,0,1-1.35.36c-.69.13-1.37.27-2,.43a19.89,19.89,0,0,0-2.88.88c-.85.32-1.66.72-2.49,1.09-1.71.76-3.38,1.61-5.09,2.39-1.08.48-2.15,1-3.24,1.47s-2.14.88-3.21,1.3l-2.41.88.13-.05-.22.08-.22.09c-1.37.5-2.74,1-4.13,1.4-.95.28-1.92.52-2.86.84s-2.11.74-3.15,1.13c-2,.75-4.06,1.44-6.07,2.2-1.64.62-3.24,1.33-4.87,2A129.25,129.25,0,0,1,143.61,117c-2.72.59-5.41,1.32-8.12,2-1.57.38-3.13.81-4.71,1.16s-3.12.58-4.69.78-3,.18-4.48.2c-1.76,0-3.5.21-5.26.27s-3.63-.17-5.44-.24c-1.34,0-2.71-.13-4-.31-.71-.15-1.41-.33-2.11-.49a18.65,18.65,0,0,1-2.65-.76c-.79-.38-1.57-.79-2.35-1.19a4.49,4.49,0,0,0-3.26-.56A4.24,4.24,0,0,0,93.32,123a4.12,4.12,0,0,0,1.86,2.61,27.73,27.73,0,0,0,6.25,2.72,38.16,38.16,0,0,0,5.88,1.14,76.86,76.86,0,0,0,11.75.3c1.94-.16,3.9-.11,5.85-.22a49.41,49.41,0,0,0,7.56-1c2.08-.46,4.14-1,6.21-1.53,1.77-.42,3.52-.92,5.3-1.33,2-.46,4-.91,5.91-1.45,2.13-.6,4.25-1.21,6.36-1.89s4.07-1.39,6.08-2.14,4.18-1.69,6.28-2.5,4.09-1.46,6.11-2.22c1.64-.59,3.31-1.06,5-1.54s3.32-1.13,4.95-1.76c3.55-1.29,7.06-2.68,10.48-4.32,2.05-1,4.11-2,6.22-2.9.78-.22,1.57-.4,2.37-.57.52-.26,1-.52,1.54-.82.74-.44,1.56-.7,2.32-1.08a41.72,41.72,0,0,1,5.2-2.23l0,0c.42-.15.84-.28,1.27-.41l.58-.18,1.11-.38-.3.09c.57-.19,1.13-.4,1.71-.58l1.12-.31a4.24,4.24,0,0,0-1.61-5.27,4.53,4.53,0,0,0-2.34-.7,3.1,3.1,0,0,0-.92.14Zm-41.75,15-.28.1.28-.1Z"/><path class="cls-1" d="M181.46,104.35l.09,0,.09,0-.18.06Z"/><path class="cls-1" d="M150.46,9.43a12.08,12.08,0,0,0-1.36.25c-1,.25-1.94.4-2.92.57-.55.1-1.1.18-1.65.3s-1.09.27-1.65.37c-1,.19-2.09.24-3.14.36-.62.08-1.24.2-1.86.28l-1.93.25c-1.13.17-2.26.35-3.38.57-.53.11-1,.25-1.59.37s-1.07.21-1.61.31c-1,.18-2.07.34-3.08.62a22.86,22.86,0,0,1-2.43.64c-.82.16-1.64.34-2.45.57-1.49.43-3,.58-4.55,1l-.25.07-.25.08.25-.08.23-.07c-.55.17-1.11.31-1.66.46l-.7.23h0l.1,0,0,0,0,0-.1,0-.1,0-.24.07.16,0-.43.13c-.45.15-.91.31-1.37.43l-.83.22c-.68.21-1.35.44-2,.64-.46.16-.9.36-1.35.55-.74.33-1.51.59-2.27.88s-1.42.65-2.16.91a18,18,0,0,0-1.81.91l-.1.05-.49.34a4.25,4.25,0,0,0,1.63,7.19,4,4,0,0,0,3.24-.3,37.16,37.16,0,0,1,4.67-3c1.35-.68,2.77-1.2,4.18-1.75,1.65-.59,3.31-1.14,4.94-1.79,2-.79,3.95-1.59,5.85-2.53,1.58-.77,3.18-1.5,4.75-2.29s3.32-1.7,5.05-2.41S139.25,13.57,141,13c2.11-.72,4.24-1.39,6.33-2.2,1.11-.42,2.22-.88,3.31-1.37l-.17,0Z"/><path class="cls-1" d="M218.91,92c-.31.16-.62.3-.93.44-.83.28-1.66.52-2.51.75-1.07.29-2.14.64-3.23.84a32.11,32.11,0,0,0-3.2.59c-1.41.39-2.81.82-4.2,1.28a4.55,4.55,0,0,0-2.62,1.86,4.31,4.31,0,0,0-.55,3.25,4.24,4.24,0,0,0,1.86,2.61,4.32,4.32,0,0,0,.86.43l.88-.49c.74-.44,1.56-.7,2.32-1.08a39.5,39.5,0,0,1,5.32-2.26l-.11,0-.05,0,.05,0c.41-.14.81-.27,1.22-.39l.58-.19,1.11-.37-.3.09c.57-.19,1.13-.4,1.71-.57s.89-.25,1.33-.37a7.37,7.37,0,0,1,1.22-.26,9.42,9.42,0,0,1,1.06,0h.4c.61,0,1.21,0,1.81,0,.44,0,.89,0,1.34,0h.12a4.38,4.38,0,0,0,.25-4.41,4.22,4.22,0,0,0-3.76-2.24,4.5,4.5,0,0,0-2,.47Z"/><path class="cls-1" d="M439.83,89.28c-.1,1-.23,2.08-.35,3.12s-.17,1.87-.31,2.8-.31,1.66-.47,2.48c-.09.44-.17.87-.25,1.31,1.71-.68,3.41-1.39,5.11-2.1a4.06,4.06,0,0,0,2.07-2.5,4.29,4.29,0,0,0-.3-3.24,4.35,4.35,0,0,0-2.51-2.08,4,4,0,0,0-1.16-.18,5.18,5.18,0,0,0-1.83.39Z"/><path class="cls-1" d="M91.75,101.14c-1,.41-2.12.75-3.16,1.16-1.4.55-2.78,1.12-4.14,1.75-1.88.87-3.72,1.77-5.62,2.59a51.89,51.89,0,0,0-10.34,5.46c-1.31.91-2.59,1.84-4,2.63-1.72,1-3.54,1.83-5.33,2.69a4.13,4.13,0,0,0-2,2.53,4.25,4.25,0,0,0,3,5.24,4.51,4.51,0,0,0,3.28-.43c1.68-.81,3.37-1.63,5-2.52a37.63,37.63,0,0,0,3.64-2.35,51,51,0,0,1,8.67-5c1.63-.67,3.26-1.33,4.85-2.07s3-1.44,4.52-2.11c1.25-.49,2.52-.91,3.76-1.4l1.06-.44a4.26,4.26,0,0,0,0-7.35,4.64,4.64,0,0,0-2.21-.6,2.84,2.84,0,0,0-1,.17Zm-13.27,5.65-.35.15.35-.15Z"/><path class="cls-1" d="M232.44,156.82h-2.5c-1.6,0-3.2,0-4.8.11-.76,0-1.52.09-2.27.14-.93.06-1.85.09-2.77.15-1.66.1-3.32.17-5,.3s-3.41.16-5.12.29-3.47.3-5.2.49c-2.88.31-5.77.54-8.64,1-.75.12-1.52.18-2.29.27s-1.37.17-2.05.27c-1.49.21-3,.37-4.47.61s-3,.55-4.51.74-2.92.37-4.38.54c-3,.35-6,.74-8.94,1.36h0l-.07,0-.09,0h.05l-2.31.5-1.62.34c-.9.18-1.82.35-2.73.51s-2.09.43-3.14.66l-2.7.51c-.84.15-1.68.28-2.51.44-1.9.39-3.77.89-5.65,1.38-1.73.44-3.46.86-5.18,1.34s-3.53,1-5.32,1.35c-1,.19-1.92.39-2.87.61-.7.14-1.4.28-2.09.46s-1.47.42-2.19.65-1.23.43-1.85.63-1.43.42-2.15.64c-1.53.48-3.08.91-4.62,1.33s-3.22.8-4.82,1.24-3,.92-4.53,1.4c-.72.22-1.45.44-2.16.69s-1.54.52-2.31.76c-1.34.41-2.68.79-4,1.14s-2.74.89-4.11,1.31c-.75.24-1.52.43-2.28.68s-1.6.54-2.4.82c-1.43.48-2.87.94-4.28,1.48-.57.22-1.15.43-1.71.67s-1.4.62-2.1.94-1.32.61-2,.88-1.37.54-2,.83c-2.94,1.26-5.88,2.49-8.92,3.47-.77.25-1.54.5-2.31.73a24.32,24.32,0,0,0-2.5,1c-.72.31-1.45.58-2.17.89l-2.46,1c-1.23.5-2.45,1-3.62,1.58s-2.36,1.29-3.52,2a1.5,1.5,0,1,0,1.66,2.49c1.16-.67,2.32-1.34,3.51-1.95.44-.22.89-.43,1.35-.61l2.19-.89c.75-.31,1.49-.64,2.24-1s1.56-.63,2.33-1a22.57,22.57,0,0,1,2.39-.84c.81-.27,1.63-.51,2.45-.79,1.57-.53,3.13-1.08,4.66-1.72s2.78-1.2,4.18-1.76l1.9-.76c.74-.3,1.46-.66,2.18-1,1.23-.56,2.46-1.08,3.73-1.53,1.47-.53,3-1,4.44-1.53.73-.25,1.45-.52,2.18-.73s1.66-.47,2.48-.74c1.32-.43,2.63-.89,4-1.25s2.77-.77,4.13-1.2,3-1,4.49-1.45c.72-.22,1.44-.46,2.16-.7s1.57-.46,2.36-.68c1.6-.45,3.22-.78,4.81-1.23s3.08-.88,4.62-1.34c.65-.2,1.3-.38,2-.59l2-.68c.85-.27,1.72-.51,2.6-.71h-.07l2.73-.58c1.38-.27,2.75-.57,4.11-.93s2.83-.77,4.25-1.13c2.69-.69,5.37-1.45,8.08-2.06,1.14-.22,2.28-.4,3.42-.62,1.38-.27,2.77-.53,4.15-.83,1.71-.35,3.42-.65,5.12-1l-.15,0,.23,0,.15,0-.12,0,2.83-.62-.37.09,1-.22c1.62-.32,3.26-.55,4.88-.78s3.34-.42,5-.62,3.43-.41,5.12-.72c.81-.14,1.61-.29,2.42-.41s1.72-.23,2.59-.34c1.65-.22,3.31-.45,5-.64.8-.08,1.59-.23,2.39-.34s1.61-.19,2.41-.27l5.09-.52c1.73-.19,3.46-.37,5.2-.48,1.36-.08,2.72-.13,4.08-.22s2.92-.21,4.38-.27c2.73-.11,5.45-.36,8.18-.44,1.26,0,2.53,0,3.79-.05h2c.8,0,1.6,0,2.4,0,2.89,0,5.77,0,8.66.07l1.81.1,2.22.12h-.08c1.87.12,3.74.08,5.61.12,1,0,2,0,3.06,0s1.92,0,2.89,0c1.85,0,3.69.08,5.54.12s3.87.06,5.8.14c5.7.36,11.38.89,17.08,1.15H288c.9,0,1.8.06,2.71.06.7,0,1.41.05,2.12.08,1.23.1,2.45.24,3.68.37s2.41.21,3.61.27l1,.05h-.16l2.46.11-.39,0c.58,0,1.16.07,1.74.09h-.15c1.71.09,3.41.23,5.12.31,2,.12,4,.29,6,.41,1.09.07,2.18.17,3.27.29s2.19.18,3.29.24l-.39,0c1.14.07,2.28.14,3.42.18s2.24,0,3.36.08l-.39,0c2.06.12,4.11.31,6.17.42h-.07c3.61.21,7.21.63,10.82.78l-.39,0,.83.05c.91.06,1.81.17,2.71.24s1.87.15,2.81.24c2,.2,4,.27,6.06.34l.39,0h-.06l.3,0h.05l.7,0c.94.07,1.9.11,2.84.16,3.41.21,6.79.72,10.19.9l-.38,0,2.26.12-.39,0c1.37.08,2.73.08,4.09.13l-.39,0c2.52.15,5,.34,7.56.33,1.27,0,2.53,0,3.8-.06s2.51,0,3.76.09l-.39,0,1.51.07,1,.05c1.09.06,2.18.07,3.27.12s1.95.1,2.92.12c.54,0,1.08,0,1.62,0h1.27c2.11,0,4.2-.23,6.31-.31,1,0,2-.16,3-.26a18.92,18.92,0,0,0,3-.5c.73-.2,1.43-.47,2.16-.68s1.27-.35,1.91-.48h0a3.75,3.75,0,0,0,.55-.15c.17-.06.38-.07.55-.14a1.58,1.58,0,0,0,.85-.76,1.48,1.48,0,0,0,.07-1.15,1.51,1.51,0,0,0-1.91-.93,2.88,2.88,0,0,1-.42.11l-.43.14c-.74.15-1.48.33-2.21.55-.42.12-.82.29-1.24.42s-.88.26-1.33.36-1.15.15-1.73.21-1.33.16-2,.22-1.39.06-2.08.1l-1.95.13c-.68.05-1.37.1-2.05.12s-1.4,0-2.1,0c-1.28,0-2.55,0-3.83,0s-2.43-.1-3.64-.15l-1-.05.18,0-.19,0h0l-1.53-.07.38,0c-1.95-.1-3.92-.16-5.88-.09s-3.85,0-5.77,0c-1.13-.06-2.26-.15-3.39-.21s-2.44-.06-3.66-.11l-1,0-1.3-.07c-1-.06-1.93-.16-2.89-.26s-1.84-.16-2.76-.26-1.85-.21-2.78-.28-1.8-.1-2.71-.15l.26,0c-.74-.05-1.49-.1-2.23-.13h-.12l-.5,0h.1c-1.1-.06-2.2-.09-3.3-.13-1.48-.09-3-.24-4.42-.37s-3.11-.28-4.66-.36l.38,0-1.76-.08c-1.59-.09-3.17-.25-4.75-.37-.85-.06-1.71-.15-2.56-.22s-1.79-.11-2.69-.15c-1.73-.12-3.45-.27-5.17-.37-.9-.05-1.79-.05-2.68-.07s-1.68-.06-2.52-.1l-1.83-.1c-2.06-.14-4.11-.38-6.17-.51s-4.39-.34-6.59-.43c-1.66-.09-3.32-.22-5-.31h.28l-2.91-.14.39,0-1.28-.07.38,0-.95,0c-1.88-.11-3.76-.34-5.64-.51-.93-.09-1.86-.14-2.8-.18s-2.12,0-3.18-.06l-1.6-.08c-1.49-.08-3-.2-4.46-.28-1.81-.11-3.6-.31-5.4-.42-1.61-.1-3.2-.22-4.8-.33s-3.46-.14-5.18-.18l-9.08-.18c-.78,0-1.55,0-2.32,0s-1.6,0-2.39,0c-1.46,0-2.93,0-4.39-.06l-1.32-.07.39,0-2.5-.13h0c-1.64-.1-3.29-.14-4.94-.13s-3.52,0-5.29,0h-.32l-2.27,0Zm16.29.3.39,0-.39,0Zm39.62,1.49.33,0-.33,0ZM246,160h0Zm41.69,1.6.23,0-.23,0Zm12.25.79h0Zm9.79.54h0Zm61.3,1.3.37,0-.37,0Zm23.55.69.29,0-.29,0Zm-48.91.37.35,0-.35,0Zm47.19,2.53h0Zm1.1,0h0Zm-258.23,2.84-.29.06.29-.06Zm2.34,2.53-.2.05.2-.05Zm-.24.05-.14,0,.14,0ZM63.31,198.51l-.24.11.24-.11Zm103.75-31.86H167l.11,0Zm226.52-1.83h0Zm-35.34-1.68h0Zm-.57,0-.29,0,.29,0Zm-188.23,0h.08l-.08,0Zm135.16-.52-.24,0,.24,0Zm-3.66-.18h0Zm3.51-2.81h0Zm-59.16-2.64h0Z"/><path class="cls-1" d="M244.22,147c-1.6.07-3.2.15-4.8.19-1.83,0-3.66.06-5.49.13-1.57.06-3.13.13-4.7.15s-2.9.15-4.35.22-3.16,0-4.74.08-3.28.16-4.92.27l-2.13.13-2.44.2c-.77.06-1.54.16-2.31.22l-2.61.23c-3.14.29-6.28.65-9.41,1-1.52.15-3,.43-4.52.69-1.82.33-3.65.58-5.48.89-1.62.26-3.24.48-4.86.74s-3.46.6-5.18,1l.38-.08-4.93,1.05c-.86.16-1.72.3-2.59.43s-1.54.28-2.31.44-1.67.33-2.49.55c-1.29.35-2.6.61-3.89.92-2.88.66-5.74,1.37-8.63,2l.27-.06-1.78.39c-.63.12-1.25.25-1.87.39s-1.39.28-2.09.44l-1,.21a1.94,1.94,0,0,0-.33.07l-3.11.68c-.75.14-1.51.27-2.26.45s-1.65.37-2.46.58c-1.62.41-3.23.88-4.82,1.34s-3.09.85-4.63,1.26-2.77.83-4.16,1.21c-.8.21-1.61.38-2.41.57l-2.23.57a43.83,43.83,0,0,0-4.47,1.43c-1.51.54-3,1.07-4.56,1.54s-3.07,1-4.61,1.42-3,.78-4.56,1.23-2.9.95-4.35,1.43-2.88,1-4.34,1.42-3,.92-4.54,1.4c-.75.24-1.5.5-2.27.71s-1.64.47-2.45.75c-1.4.49-2.83.85-4.23,1.35-.72.26-1.41.58-2.11.87l-2.25.91c-1.51.63-3,1.16-4.59,1.68-.78.26-1.56.56-2.35.81s-1.61.48-2.4.77c-1.71.62-3.4,1.34-5,2.12a1.6,1.6,0,0,0-.86.76,1.53,1.53,0,0,0-.07,1.15,1.57,1.57,0,0,0,.76.86,1.48,1.48,0,0,0,1.15.06c1.37-.65,2.78-1.22,4.18-1.79s2.64-.86,4-1.32,2.91-1,4.36-1.52,3-1.18,4.5-1.81a22.16,22.16,0,0,1,2.09-.83c.74-.24,1.47-.48,2.21-.7s1.35-.42,2-.65,1.66-.51,2.49-.74,1.54-.49,2.3-.74l2.36-.73c1.47-.44,2.94-.91,4.4-1.4s2.77-.93,4.16-1.38c1.58-.52,3.17-1,4.78-1.38,1.44-.36,2.85-.81,4.27-1.25s3.09-.95,4.61-1.49,3.09-1.13,4.66-1.62,2.89-.79,4.34-1.13c.81-.19,1.61-.36,2.4-.59s1.44-.43,2.17-.65c1.5-.45,3-.81,4.56-1.24,3.12-.87,6.23-1.8,9.4-2.49,1-.21,2.06-.4,3.08-.63.49-.12,1-.23,1.49-.33l.12,0c.17,0,.34-.07.51-.1l.73-.15,1.59-.34,1.62-.35c.78-.15,1.55-.31,2.32-.48l-.26,0c2.52-.53,5-1.15,7.55-1.74l4-.94c.87-.2,1.74-.44,2.61-.63l1.33-.27h0l.36-.08-.16,0c1.17-.23,2.36-.38,3.53-.59s2.63-.57,3.94-.85l-.19,0,3.42-.72c3-.58,6.05-1,9.07-1.46,1.69-.26,3.39-.52,5.08-.83,1.43-.26,2.85-.47,4.29-.61,3.16-.32,6.32-.67,9.48-1,1.64-.15,3.27-.31,4.9-.44s3.12-.23,4.68-.34,3.25-.2,4.87-.23,3.11,0,4.66-.1,2.9-.18,4.36-.2c1.62,0,3.23-.11,4.84-.16l5.26-.12c1.67,0,3.33-.15,5-.2,3.29-.1,6.58,0,9.87,0,1.33,0,2.66.08,4,.1l4.35.08c2.58.05,5.17,0,7.76.16.76.06,1.53.1,2.3.14,1.11.07,2.22.14,3.33.17,1.38,0,2.76,0,4.14.07,2,.11,4,.34,6.06.48s3.88.25,5.81.42c.88.08,1.75.12,2.61.23s2,.28,2.93.39,2.12.21,3.18.31,2.07.12,3.1.16l1.34.08c1.05.05,2.09.13,3.13.18l-.39,0c.39,0,.78,0,1.18.06h-.25c1.86.11,3.71.24,5.56.42.81.08,1.61.19,2.41.28,1,.11,2.06.18,3.1.23l-.39,0c1.78.1,3.55.26,5.32.37,1.92.14,3.83.28,5.74.47,1.72.17,3.43.4,5.14.6s3.7.31,5.55.41l-.39,0c.75,0,1.5.13,2.25.2s1.52.13,2.27.23q2.5.33,5,.6c3.12.35,6.26.61,9.4.82q2.24.15,4.44.42l2.23.3c.82.11,1.64.17,2.46.27,1.53.17,3.06.29,4.58.51,1.33.19,2.67.27,4,.39.48,0,1,.07,1.44.11s1.09.12,1.64.17c1.18.13,2.34.32,3.52.45s2.24.21,3.37.3c1,.08,1.93.14,2.9.19h-.05l.33,0h0c1.73.08,3.45,0,5.18,0,.93,0,1.87,0,2.8-.05s1.76,0,2.64-.07c1.51,0,3-.24,4.5-.32.6,0,1.2-.12,1.79-.19a8.91,8.91,0,0,0,1.42-.28,5.14,5.14,0,0,0,.55-.06c.23,0,.44-.1.66-.15h.13a1.51,1.51,0,0,0,1.38-1.61v0a1.52,1.52,0,0,0-1.22-1.36,3,3,0,0,0-1.39.2l-.44.05a4.3,4.3,0,0,0-.79.18c-.92.15-1.85.22-2.78.3-1.44.13-2.88.27-4.33.29l-5,.11c-1.67,0-3.33.1-5,0l.39,0-1.17-.06H391c-1.27-.1-2.54-.21-3.81-.29-1.47-.1-3-.31-4.41-.52-2.7-.38-5.43-.41-8.13-.79-1.52-.22-3.07-.34-4.6-.52-.75-.08-1.52-.14-2.28-.24l-2.41-.32c-1.47-.19-2.94-.31-4.42-.41s-3.13-.25-4.7-.36c-1.2-.08-2.4-.23-3.6-.36s-2.55-.27-3.82-.43c-2.46-.32-4.94-.61-7.42-.73l.4,0c-1.74-.11-3.48-.21-5.21-.42s-3.42-.41-5.14-.6c-1.9-.2-3.83-.31-5.74-.44s-3.61-.28-5.41-.38h.07c-1.79-.12-3.57-.36-5.36-.53s-3.85-.31-5.78-.4h.16l-.63,0L306,149.8h0l-2.92-.14c-2.3-.13-4.58-.41-6.86-.72-1.05-.15-2.12-.21-3.18-.3s-2.22-.16-3.33-.24c-2.4-.17-4.81-.41-7.22-.58s-4.81-.11-7.21-.21q-1.29-.09-2.58-.15l.39,0c-1.6-.09-3.2-.18-4.8-.22s-3,0-4.47-.07L259,147.1c-1.6,0-3.19-.09-4.79-.1s-3.37,0-5-.05l-2,0c-1,0-2,0-2.95.06Zm30.86.61h0Zm-3.95,2.74h0Zm-104.34,4.59-.27.06.27-.06Zm12.12.62-.28.06.28-.06Zm-.28.06-.1,0,.1,0ZM166.37,158l-.26.06.26-.06Zm-16.31,3.76h0Zm17.67-4h0l.21,0-.2,0ZM309.59,150l-.23,0,.23,0Z"/><path class="cls-1" d="M248.46,137.14c-1.56.08-3.12.15-4.69.18-.71,0-1.43,0-2.14,0s-1.56,0-2.33,0l-4.67.09c-1.37,0-2.75.15-4.12.3-.71.07-1.43.15-2.14.2-.86.05-1.73.08-2.6.12-1.67.09-3.35.13-5,.22-1.52.08-3,.11-4.55.22-.67.05-1.33.14-2,.22s-1.55.17-2.33.24c-1.68.16-3.36.29-5,.46-.79.09-1.57.13-2.36.18s-1.54.13-2.31.2c-1.38.12-2.75.29-4.13.51-.65.1-1.3.23-2,.32s-1.38.17-2.07.3-1.1.22-1.65.34c-1.57.3-3.14.6-4.72.81l-2.59.34c-.79.1-1.58.25-2.37.38s-1.55.22-2.32.34l-2.32.4c-1.53.27-3,.66-4.54,1l-.5.1.09,0-.16,0-.21,0,.15,0-1.81.38c-.72.14-1.43.27-2.14.42a1.21,1.21,0,0,0-.33.07c-1.19.24-2.37.52-3.56.78l-1.52.32c-1,.2-2.11.4-3.15.64s-2,.48-2.93.7h0c-1.16.25-2.32.54-3.49.8l-.73.15h.06l-.08,0-.29.06.22-.05c-1.4.28-2.78.65-4.18,1l-1.05.22-2.07.44h0l-.56.12-3.63.75c-1.09.24-2.17.52-3.25.82-2.41.69-4.84,1.31-7.29,1.83a78.11,78.11,0,0,0-8.68,2c-1.4.44-2.77.94-4.15,1.42-.65.22-1.28.46-1.92.69s-1.43.44-2.15.66L110,160.15c-1.42.45-2.87.82-4.32,1.19-2.81.69-5.47,1.89-8.26,2.65-.71.19-1.41.37-2.13.54s-1.62.46-2.42.7c-1.49.45-3,.82-4.49,1.24s-2.92.84-4.38,1.28c-.64.19-1.26.44-1.88.69s-1.28.5-1.91.77c-1.23.52-2.45,1.08-3.69,1.57a40.54,40.54,0,0,1-4,1.41c-1.48.43-2.94.9-4.39,1.38-1.09.35-2.15.75-3.23,1.11a21.41,21.41,0,0,0-3.54,1.37,15.94,15.94,0,0,0-3.3,2.61,1.49,1.49,0,0,0-.36,1.11,1.49,1.49,0,0,0,1.61,1.38,1.62,1.62,0,0,0,1-.51c.31-.29.61-.58.93-.86A11.18,11.18,0,0,1,63,178.56a34.17,34.17,0,0,1,3.43-1.24c1.07-.36,2.14-.75,3.23-1.1l2.09-.66c.81-.26,1.63-.47,2.43-.74,1.37-.47,2.73-.95,4.07-1.5,1.19-.48,2.34-1,3.52-1.52l1.79-.71c.69-.27,1.38-.49,2.08-.7s1.35-.37,2-.58c.82-.24,1.64-.49,2.47-.72s1.45-.37,2.17-.57,1.53-.44,2.3-.67c1.49-.46,3-.82,4.53-1.22s2.74-.91,4.1-1.39l1.83-.62c.77-.25,1.56-.43,2.34-.63,1.47-.38,2.93-.79,4.38-1.25s2.8-.87,4.21-1.28c.65-.19,1.31-.39,1.95-.62s1.42-.52,2.13-.76c1.37-.46,2.72-1,4.11-1.38s2.92-.78,4.39-1.09l.55-.12c1.21-.25,2.42-.48,3.63-.75,1.36-.3,2.72-.62,4.07-1s2.63-.76,4-1.1c1.06-.27,2.13-.52,3.2-.74h-.08l.19,0,.18,0-.11,0,2-.38h0l2.23-.48.85-.18-.38.08c1.4-.28,2.8-.62,4.2-.95l1-.2.14,0h0l.11,0c1.21-.26,2.4-.55,3.61-.82h-.07c1.4-.3,2.78-.65,4.17-1l3.2-.65h0c1.13-.23,2.26-.5,3.39-.74.31-.06.64-.1.95-.19s.39-.08.58-.13l3-.62h0l1.11-.23H174c1.13-.24,2.25-.53,3.38-.77s2.5-.45,3.75-.65c.65-.11,1.31-.18,2-.29s1.47-.25,2.2-.35l2.18-.29c.8-.1,1.59-.23,2.39-.36,1.35-.21,2.7-.48,4-.78.6-.11,1.2-.2,1.8-.28s1.4-.21,2.09-.32c1.38-.22,2.76-.42,4.15-.55l2.05-.19c.83-.06,1.66-.08,2.49-.17,1.69-.16,3.39-.29,5.09-.46,1.46-.14,2.92-.33,4.39-.47s3-.15,4.44-.24c1.67-.1,3.34-.11,5-.21l2.43-.12c.82,0,1.63-.12,2.45-.19,1.27-.13,2.54-.26,3.82-.32s2.83-.05,4.24-.09,3.09,0,4.64,0c1.34,0,2.68,0,4-.08.78,0,1.56-.11,2.34-.13s1.33,0,2,0c1.25,0,2.5,0,3.76,0,1.45,0,2.91,0,4.37.06,1.13,0,2.25,0,3.37.06s2.53.19,3.8.23,2.35.07,3.53.1,2.13,0,3.2.07,2.29.08,3.44.1c1.63.11,3.25.24,4.88.32s3.13.08,4.68.14c2.07.13,4.13.34,6.19.53s4,.35,6,.45l-.39,0,2,.11-.39,0q4.09.24,8.19.38c.95.07,1.89.18,2.83.27,1.16.11,2.32.19,3.48.25h0c1,.05,2,.06,3,.1l-.39,0q3.29.2,6.55.52c2.19.23,4.38.46,6.58.56H330l1.1.06c3.05.2,6.09.54,9.13.92,1.66.21,3.31.5,5,.65s3.25.33,4.86.56l4.51.64c1.28.19,2.57.35,3.85.56s2.55.39,3.84.52,2.28.16,3.42.27,2.32.25,3.49.32h.25l1.64.08,1,0c1.9.13,3.8.28,5.7.38,1.19.06,2.39.12,3.59.09,1,0,2,0,3,.05h-.13l1.3,0c.6,0,1.2.08,1.8.1l1.14.06a5.36,5.36,0,0,1,.79.11,1.5,1.5,0,0,0,1.75-1.2,1.53,1.53,0,0,0-1.2-1.75,7.48,7.48,0,0,0-1.77-.15l-1.21-.07c-.73,0-1.46-.09-2.2-.1-2.16-.1-4.32,0-6.48-.14h0l-.72,0c-2-.15-4-.29-6-.4l.39,0c-.67,0-1.35-.07-2-.09h.19l-.3,0h0l-.62,0h0c-1.23-.1-2.47-.23-3.7-.36s-2.38-.17-3.57-.32-2.53-.34-3.79-.55-2.65-.36-4-.56q-1.08-.17-2.16-.3c-.87-.12-1.74-.28-2.61-.37-1.61-.19-3.23-.31-4.83-.52s-3.28-.47-4.92-.66-3-.37-4.56-.49-2.92-.26-4.39-.33l.39,0-1.06-.06h0c-2.37-.17-4.75-.39-7.11-.64-1.3-.14-2.6-.2-3.91-.31s-2.66-.11-4-.16h0l-.88-.05c-1-.08-2-.14-3-.23s-1.87-.21-2.8-.26c-2.09-.11-4.17-.16-6.26-.26l.39,0-2.77-.17.39,0-2.11-.12c-1.21-.07-2.42-.17-3.63-.28-1.37-.12-2.75-.23-4.12-.38-2.87-.32-5.76-.31-8.64-.43-1.4-.09-2.79-.2-4.19-.28s-2.76-.09-4.14-.14c-2.46-.09-4.93-.08-7.39-.2-1.57-.1-3.13-.23-4.71-.25s-2.91,0-4.37,0-2.68-.08-4-.08h-2.13c-.68,0-1.36,0-2,0Zm49.25,2h0Zm15.9,1,.29,0-.29,0Zm-6,2.48h0Zm23.5,1.75h0Zm-162,1-.17,0h0l.17,0Zm-.24.05-.13,0,.13,0Zm-.27,0Zm216.25,1h0Zm-207.16.09-.1,0,.1,0Zm-14.22,0-.21,0,.21,0Zm5.21,1.91-.17,0,.17,0Zm219.83,1.13h0Zm-259.44,7.83-.27.06.27-.06Zm15-3.58-.11,0,.18,0Zm2-.39.37-.08-.37.08Zm8.08-1.77h-.07l.13,0-.06,0Zm230.42-2.27h0Zm-231.41-.57h.09l-.09,0Zm216.3-.09h-.34l.34,0Zm.2-3h0Zm-196.77-1.21h.06l.07,0-.13,0ZM330,144.31l-.33,0,.33,0Zm-15.69-1.15h0Zm.52-2.95h0Z"/><path class="cls-1" d="M242.76,128.19c-1.27,0-2.54.06-3.81.14s-2.26.11-3.4.19l-1.81.15c-.75.06-1.51.06-2.26.09-2.75.1-5.5.34-8.27.35-.74,0-1.48,0-2.21,0s-1.58.1-2.37.15c-1.49.07-3,.2-4.46.34-1.3.12-2.61.23-3.91.36-1.51.14-3,.31-4.53.44-1.92.16-3.82.48-5.72.74-2.06.28-4.11.59-6.17.79-1,.1-2.08.19-3.11.31l-3.2.37c-1,.11-2,.29-3,.49s-1.7.32-2.54.5l.19,0-.24,0-.14,0,.13,0c-2.63.52-5.29.87-7.92,1.36-1.18.22-2.36.36-3.54.55-.6.09-1.19.19-1.79.27-.79.12-1.56.29-2.33.47l-2.24.47c-1,.19-1.91.39-2.86.62-.75.18-1.49.41-2.24.63-1.49.43-3,.81-4.51,1.14-2.72.54-5.42,1.18-8.1,1.9-.72.19-1.44.43-2.16.62s-1.55.4-2.33.58c-1.52.34-3,.71-4.54,1.06s-3,.68-4.53,1.07c-1.26.33-2.5.68-3.73,1.06-1.4.43-2.77.94-4.15,1.44s-2.88.92-4.33,1.31-3,.9-4.53,1.36l-1.71.52c-.74.21-1.49.38-2.22.59-1.37.38-2.75.74-4.12,1.15s-2.53.81-3.79,1.25c-2.59.92-5.25,1.63-7.83,2.56-1.29.47-2.57,1-3.87,1.38-.61.2-1.22.4-1.84.58-.78.23-1.57.45-2.35.7-1.16.37-2.32.79-3.45,1.25s-2.33.91-3.53,1.28c-.62.19-1.24.35-1.86.52a18.73,18.73,0,0,0-1.79.59c-1.17.45-2.31,1-3.48,1.46L71,164.68c-1.28.5-2.59.88-3.89,1.31a19.2,19.2,0,0,0-3.48,1.67,36,36,0,0,0-3.46,2.26,1.5,1.5,0,1,0,1.67,2.49c.88-.63,1.76-1.25,2.68-1.81.69-.42,1.4-.82,2.12-1.19a34,34,0,0,1,4-1.4c1.26-.39,2.47-.95,3.7-1.43s2.38-1,3.59-1.49c.56-.22,1.1-.45,1.66-.63.71-.24,1.43-.43,2.15-.63a31.38,31.38,0,0,0,3.89-1.35c1.23-.51,2.49-1,3.75-1.37.73-.24,1.46-.42,2.19-.64l2-.64c1.3-.42,2.58-.91,3.87-1.37,2.59-.94,5.24-1.65,7.84-2.56,1.25-.44,2.51-.87,3.78-1.26s2.75-.75,4.12-1.15c.7-.2,1.41-.36,2.11-.56s1.22-.35,1.82-.54c1.5-.48,3-.94,4.54-1.36s2.9-.82,4.32-1.31,2.75-1,4.15-1.44c4.08-1.27,8.27-2.12,12.42-3.11l1.66-.37c.53-.13,1.06-.29,1.59-.44,1.07-.3,2.14-.62,3.21-.9,1.92-.52,3.87-.93,5.81-1.34l-.38.09c1.6-.32,3.19-.67,4.75-1.12l2.29-.67c.77-.22,1.56-.39,2.35-.56s1.76-.36,2.64-.55L168,139c1.21-.23,2.44-.4,3.67-.58s2.52-.39,3.78-.62,2.54-.43,3.82-.64,2.83-.5,4.24-.79,2.57-.52,3.87-.68l2.25-.25c.83-.11,1.67-.21,2.51-.29,1.54-.15,3.07-.3,4.61-.49s3-.41,4.56-.62,2.84-.45,4.27-.57,3.07-.29,4.6-.44l4-.37c1.43-.14,2.86-.25,4.3-.34l2.2-.15c.6,0,1.21,0,1.83,0h.55c1.47,0,2.93-.07,4.4-.12,1.29,0,2.58-.15,3.87-.21.73,0,1.46,0,2.2-.08s1.28-.1,1.92-.15c1.17-.09,2.34-.14,3.51-.21s2.45-.14,3.67-.15c.63,0,1.26,0,1.89,0s1.31,0,2,0l1.72,0c.79,0,1.56,0,2.34,0,1.22,0,2.42,0,3.63,0s2.6,0,3.89,0,2.75.05,4.13.08,2.59,0,3.89.07,2.74.23,4.11.28,2.89,0,4.34.07c2.66,0,5.32,0,8,.12l1.89.1c3,.17,6,.21,9,.34,3.74.2,7.49.28,11.23.31,1.77,0,3.54.09,5.31.15s3.55.11,5.32.19l-.2,0,.21,0h0c1.64.09,3.28.09,4.91.16,1.06.07,2.11.15,3.16.2,1.54.09,3.08.19,4.61.33,1.33.12,2.65.29,4,.43,1.14.11,2.27.21,3.41.29,1.38.09,2.77.2,4.15.27h-.19c2.54.15,5.06.51,7.59.66h-.12l1.68.08-.38,0,2.33.11h0c1.52.11,3,.22,4.56.29h-.14c1.14.06,2.27.05,3.4.09.9.06,1.81.13,2.71.17h1.89a1.5,1.5,0,0,0,1.75-1.2,1.55,1.55,0,0,0-.23-1.11,1.61,1.61,0,0,0-1-.64,3.93,3.93,0,0,0-1-.06c-.26,0-.53,0-.79,0l-1.25,0c-.84-.06-1.69-.14-2.53-.16s-1.72,0-2.58-.05l.39,0-1.31-.05c-1.57-.1-3.14-.22-4.71-.3l-2.36-.12.39,0-.78,0H347c-2.6-.2-5.18-.54-7.78-.67h.26c-2.49-.15-5-.32-7.44-.58-1.32-.14-2.63-.3-3.95-.42-.78-.07-1.56-.11-2.34-.16s-1.53-.11-2.3-.15c-1.47-.1-2.93-.2-4.4-.25-1.07,0-2.15-.05-3.23-.09-1.75-.1-3.52-.13-5.27-.2s-3.4-.15-5.1-.18c-1.91,0-3.82,0-5.72-.08-1.64-.05-3.28-.07-4.92-.14h-.15c-2.95-.17-5.9-.21-8.86-.33l-2.18-.12c-2.36-.14-4.73-.16-7.09-.17-1.11,0-2.23,0-3.35,0s-2.55,0-3.82-.08-2.44-.21-3.66-.26-2.65,0-4-.08l-1.83-.05-2.08,0c-1.26,0-2.52,0-3.78,0s-2.29,0-3.44,0c-.71,0-1.42,0-2.14,0s-1.26,0-1.89,0c-1.12,0-2.23-.05-3.35-.05Zm40.72.73h0Zm2.53.13h0Zm-19.84,2.34h0Zm16.11.44.23,0-.23,0Zm.24,0h0Zm1.9.1h0Zm8.7.32h0Zm30.24,1h0Zm-156.74,2.93-.21.05.21-.05Zm-.24,3.09-.2,0,.2,0Zm-99.47,30-.09,0,.09,0ZM355.2,135.74h0Zm-173.28-2.1H182l-.06,0Zm133.36-.7Zm-20.49-3.56h0Z"/><path class="cls-1" d="M259.11,120.07l-3.6.08c-1.4,0-2.81.07-4.21,0-1.24,0-2.48-.06-3.72-.07-2.66,0-5.31.15-8,.33-1.28.08-2.55.15-3.83.19s-2.42.13-3.64.15c-.63,0-1.26,0-1.89,0s-1.46,0-2.2.06c-1.17.07-2.34.19-3.51.35s-2.31.31-3.47.4l-3.62.31-3.49.32-1.8.14c-.54,0-1.09.13-1.63.19-2.49.3-5,.43-7.49.75-1.22.15-2.43.34-3.65.48s-2.55.29-3.84.39c-2.4.18-4.78.54-7.16.86-1.29.17-2.58.32-3.88.43-1.12.09-2.23.12-3.35.22s-2.5.26-3.74.42-2.49.3-3.73.49c-2.28.34-4.54.81-6.81,1.2-1.1.19-2.2.33-3.31.51s-2.4.44-3.6.7l.38-.07c-1.51.31-3,.67-4.51,1h0l-1.82.38.37-.08c-1.16.24-2.32.45-3.49.65s-2.51.45-3.74.77c-2.12.56-4.24,1.16-6.37,1.65l.38-.08c-.89.18-1.77.4-2.66.6s-1.84.48-2.77.71l-.08,0a1.55,1.55,0,0,0-.36.08h-.08c-1.08.23-2.17.46-3.24.72s-2.36.67-3.54,1-2.56.71-3.84,1-2.51.72-3.78,1-2.5.6-3.75.88-2.42.63-3.63,1-2.43.78-3.65,1.15-2.44.72-3.66,1.07c-1.42.41-2.83.82-4.26,1.16h0l-.93.19h0l-.06,0-.23,0h0a39.87,39.87,0,0,0-3.86,1c-1.21.38-2.47.62-3.69,1s-2.21.76-3.32,1.14c-.61.21-1.23.39-1.85.57s-1.24.42-1.86.62c-1.12.38-2.23.78-3.32,1.24s-2.08.86-3.15,1.24-2.27.85-3.4,1.28c-.58.23-1.17.44-1.76.65s-1.23.53-1.84.81-1,.48-1.45.73c-.94.45-1.89.89-2.85,1.31s-2,.72-3,1.14a22.42,22.42,0,0,0-3,1.55c-.49.31-1,.67-1.43,1l-1.39,1a1.5,1.5,0,1,0,1.67,2.49c.78-.54,1.55-1.1,2.33-1.65a17.58,17.58,0,0,1,2.14-1.25c.54-.26,1.07-.48,1.62-.69s1.32-.45,2-.73c1.38-.61,2.75-1.25,4.09-1.94.5-.24,1-.47,1.51-.69s1.24-.47,1.86-.71c1.16-.43,2.3-.9,3.46-1.31,2.14-.76,4.2-1.72,6.36-2.45l1.8-.61,1.91-.58c1.13-.35,2.25-.78,3.38-1.16s2.45-.64,3.66-1,2.48-.74,3.75-1l.1,0h0l.19,0,.09,0h-.07l.31-.07-.15,0c2.53-.51,5-1.27,7.46-2,1.21-.36,2.42-.71,3.63-1.11s2.47-.78,3.73-1.11,2.49-.61,3.74-.89,2.47-.62,3.69-.95,2.63-.66,3.93-1,2.32-.68,3.48-1c1.43-.43,2.91-.75,4.38-1.06h0l.3-.06h0l-.25.05.56-.11h0l.5-.11c1.53-.38,3.05-.81,4.6-1.13h0c2.77-.59,5.47-1.46,8.23-2.08.94-.17,1.88-.31,2.8-.48s2.11-.41,3.16-.63l2.3-.49c.87-.19,1.74-.41,2.61-.59l-.18,0,1.79-.39c1-.2,2.07-.34,3.11-.5,1.24-.19,2.48-.4,3.71-.62,2.38-.44,4.75-.87,7.15-1.17s4.94-.63,7.43-.77,4.94-.48,7.4-.81c1.18-.17,2.36-.31,3.55-.44s2.31-.19,3.47-.32c2.61-.27,5.21-.71,7.83-.92,1.21-.09,2.42-.2,3.62-.33s2.22-.3,3.33-.38,2.48-.19,3.72-.3,2.2-.25,3.3-.32,2.49-.18,3.72-.34,2.29-.32,3.43-.43a35.31,35.31,0,0,1,4-.16c1.19,0,2.37,0,3.55-.07l3.9-.17c1.43-.06,2.84-.22,4.27-.27s2.58-.14,3.87-.15,2.41,0,3.62,0c1,0,2,.06,2.94.05s2,0,3,0c1.81,0,3.61-.14,5.41-.07,2.73.14,5.47.15,8.2.27,1.41.06,2.81.12,4.22.12.34,0,.7,0,1,0,1,0,2,0,3,0l2.65.14c1.08.07,2.16.14,3.24.15H287c1,0,2.07.06,3.1.09s2,.05,3,.1c1.47.08,2.94.14,4.42.2,1.15.08,2.3.21,3.46.31s2.53.23,3.8.3l-.38,0c1.58.1,3.18.12,4.78.18l.6,0h0l.58,0h0l1.88.1-.39,0c1,0,2,.06,2.94.1s1.88.08,2.82.12l1,0c.81.06,1.61.16,2.42.21,1,.07,2,.11,3,.13.85,0,1.71,0,2.57.06s1.67,0,2.51,0c1.28.08,2.54.2,3.82.19s2.85-.08,4.27-.08a1.49,1.49,0,0,0,1.38-1.61,1.47,1.47,0,0,0-.5-1,1.59,1.59,0,0,0-1.11-.37c-.92,0-1.85,0-2.77,0s-1.91,0-2.87,0l-1.64-.13c-.94-.08-1.88-.06-2.81-.07-1.68,0-3.37-.06-5.05-.14-1.13-.08-2.26-.2-3.39-.26-.86-.05-1.72-.08-2.58-.11-1.17-.06-2.33-.09-3.49-.13h0l-.82,0-1.17-.07-.66,0h-.31c-1.41-.06-2.82-.08-4.23-.14l-1.1-.06c-1.61-.11-3.2-.33-4.81-.46s-3.35-.16-5-.25l.39,0c-2.14-.14-4.27-.19-6.4-.26s-4.13,0-6.19-.1l-1.91-.1.22,0-.28,0h0c-1.43-.08-2.86-.16-4.3-.16s-2.86,0-4.28,0l-4.6-.17c-1.38-.05-2.75-.05-4.13-.1q-1.47-.09-2.94-.09Zm3.38.08h0Zm.19,0h0ZM310,122h0Zm.29,0h0Zm.86,0h0Zm6.79.27.35,0-.35,0Zm-56.92.7h0Zm57.48,2.31h0ZM101.35,146.79l-.12,0h0l.17,0Zm-1-2.84.27-.06-.27.06Zm.33-.07h0l.08,0Zm-.06,0h.06l.11,0-.17,0Zm.17,0,.15,0h0l-.17,0Zm34.85-6.29Zm174-12.6h0ZM280,120.63h0Z"/><path class="cls-1" d="M112.23,132.08a6.53,6.53,0,0,0-1.3.27,10.52,10.52,0,0,0-1.08.36c-.64.24-1.29.47-1.94.69-1.41.47-2.82.9-4.22,1.37-2.71.93-5.44,1.81-8.15,2.72-1.33.44-2.65.88-4,1.28l-1.88.56c-.64.2-1.28.36-1.92.57s-1.32.43-2,.68-1.25.51-1.89.76-1.32.46-2,.68-1.45.5-2.16.77-1.26.49-1.88.77l-1.88.82c-1.21.52-2.44,1-3.66,1.49s-2.37,1-3.53,1.51-2.36,1.16-3.54,1.76c-.72.35-1.47.68-2.2,1a28.51,28.51,0,0,0-2.6,1.53,1.5,1.5,0,1,0,1.68,2.49,24.66,24.66,0,0,1,2.22-1.34c.63-.3,1.27-.58,1.89-.89.79-.39,1.56-.8,2.34-1.19,1.27-.6,2.54-1.15,3.83-1.71s2.89-1.15,4.32-1.76l2.23-1c.71-.32,1.44-.6,2.17-.87,1.38-.5,2.79-.9,4.14-1.46.64-.25,1.27-.52,1.92-.76s1.27-.42,1.91-.63,1.28-.38,1.92-.56,1.29-.38,1.93-.58l3.93-1.28c.64-.21,1.28-.41,1.91-.63l2-.65c2-.65,4-1.38,6-2,1-.3,1.9-.57,2.84-.91a26.13,26.13,0,0,1,2.71-.91h.13a1.5,1.5,0,0,0-.17-3Zm0,3-.09,0,.09,0Z"/><path class="cls-1" d="M264.35,113.61a86.91,86.91,0,0,1-8.84.25l.39,0c-3.23-.18-6.47-.35-9.71-.36-1.6,0-3.19.13-4.78.23s-2.92.17-4.38.2-2.87,0-4.3,0c-1.72,0-3.43,0-5.15,0-1.48.06-3,.07-4.45.09s-3.09,0-4.64.1-3.06,0-4.59.06c-.77,0-1.55.07-2.33.13s-1.56.19-2.34.28c-1.51.18-3,.42-4.51.56s-3.12.27-4.68.44c-2.19.24-4.37.5-6.57.58a19.65,19.65,0,0,0-3.42.36l-3.27.74a1.44,1.44,0,0,0-.86.76,1.53,1.53,0,0,0-.07,1.15,1.5,1.5,0,0,0,.77.85,1.6,1.6,0,0,0,1.14.08l3-.68c1.41-.24,2.85-.24,4.28-.34s3.08-.25,4.61-.44,3.13-.29,4.7-.45c.8-.08,1.59-.15,2.39-.26s1.44-.19,2.16-.28c1.55-.21,3.09-.39,4.66-.47s3,0,4.56-.07,3.11-.09,4.67-.1,3,0,4.44-.08,3.12-.09,4.67,0,3.2,0,4.81,0c3.07,0,6.13-.37,9.21-.44,1.24,0,2.48,0,3.72.07s2.42.07,3.63.13l-.39,0c1.65.09,3.3.23,4.95.21s3.11-.07,4.66-.16,3-.19,4.55-.27,3,0,4.48,0l.54,0c2.26.13,4.53.21,6.79.2h3c1.08,0,2.17,0,3.25.08s2.4.22,3.61.29c.84,0,1.68.09,2.52.11.66,0,1.32,0,2,0l.95,0c.86.06,1.73.18,2.6.23.39,0,.79.07,1.18.11.57,0,1.14.07,1.71.1h0c.82,0,1.64,0,2.45,0a1.49,1.49,0,0,0,1-.5,1.56,1.56,0,0,0,.37-1.11,1.5,1.5,0,0,0-.51-1,1.61,1.61,0,0,0-1.11-.37c-.69,0-1.37,0-2.06,0l-.68,0c-1.85-.12-3.68-.35-5.53-.44l.28,0c-1.27-.08-2.55-.08-3.82-.13s-2.52-.2-3.78-.29c-1.58-.11-3.18-.16-4.77-.16-1.33,0-2.66,0-4,0s-2.94-.07-4.42-.13-2.92-.13-4.39-.13h-.17c-1.37,0-2.74.09-4.11.16Zm25.7.54.2,0-.2,0Zm9.76.59h0Zm-15,2h0Zm.28,0h0Zm8.09.45h0Zm.94,0,.34,0-.34,0Zm-.21-3h0Z"/><path class="cls-1" d="M232.77,106.2c-1.59.1-3.16.32-4.74.51s-3.12.27-4.67.38-3.23.18-4.84.29c-.76.06-1.51.13-2.27.18s-1.42.07-2.13.11c-.94.06-1.88.15-2.82.25a1.5,1.5,0,1,0,.23,3c1.52-.16,3-.25,4.57-.34s3.15-.23,4.73-.33c.78,0,1.55-.07,2.33-.13l2.32-.17c1.6-.11,3.18-.27,4.76-.47a40.23,40.23,0,0,1,4.66-.33c1.52,0,3,.09,4.54.15s3,.06,4.51,0l2.18,0c.7,0,1.4,0,2.1,0l.75,0,1,.07.59,0h.17a4.07,4.07,0,0,0,.5,0,.94.94,0,0,0,.29,0h0c.83.05,1.66.08,2.49.12a67.62,67.62,0,0,0,7.53.2c2.26-.11,4.52-.14,6.78,0l1.08,0-.38,0c.63,0,1.26.08,1.9.1h1.41l2.63.1a12.7,12.7,0,0,0,1.51.05,1.5,1.5,0,1,0-.24-3h-.47c-1-.08-2-.09-3-.13l-2.6-.06L269,106.8c-1.1-.06-2.18-.1-3.27-.12s-2.21,0-3.31.06-2.13.1-3.2.1-2-.06-3-.11h0l-3.93-.21h0c-.31,0-.64-.07-1,0h-.15a1.69,1.69,0,0,0-.32,0c-.79-.06-1.59-.11-2.38-.15s-1.43,0-2.15,0c-1.49,0-3,0-4.46,0s-3.09,0-4.64-.12c-.86,0-1.72-.07-2.58-.07-.61,0-1.23,0-1.84,0Zm36.29.61h0Zm.89,0h0Z"/><path class="cls-1" d="M93.43,130.49c-.29.1-.6.17-.89.24s-.61.17-.93.24l-1.07.21h-.05l-.17,0h0l-1.44.32a43.6,43.6,0,0,0-4.43,1,35.84,35.84,0,0,0-4.16,1.56c-1.34.6-2.7,1.16-4.07,1.71-.7.28-1.4.55-2.09.85s-1.46.67-2.17,1c-.46.22-.91.46-1.37.66l-1.44.62-2.65,1.15c-.86.36-1.72.75-2.59,1.1s-1.66.81-2.48,1.24l-1.18.58a1.6,1.6,0,0,0-.86.76,1.5,1.5,0,0,0,.69,2,1.44,1.44,0,0,0,1.15.07c.65-.31,1.3-.61,1.93-1l1.11-.59c.62-.29,1.26-.53,1.89-.81l2-.85c1.43-.64,2.9-1.21,4.31-1.91s2.81-1.36,4.28-1.93,2.73-1.07,4.06-1.68a32.36,32.36,0,0,1,6.25-2.17c1.27-.25,2.54-.49,3.8-.78l.33-.07c.57-.11,1.15-.21,1.72-.36s1-.23,1.51-.4a1.5,1.5,0,0,0-.5-2.92,1.56,1.56,0,0,0-.48.08Zm-3.25.77.14,0h0l-.14,0Z"/><path class="cls-1" d="M85.23,122.59c-1.21.58-2.38,1.22-3.58,1.83-2.7,1.32-5.53,2.34-8.27,3.57l-8.1,3.72c-1,.46-2,.91-2.92,1.43s-2,1.17-3,1.75A1.5,1.5,0,0,0,59,137a1.52,1.52,0,0,0,2.08.42c1.06-.63,2.11-1.3,3.21-1.88,2.54-1.23,5.11-2.43,7.69-3.59,1.4-.64,2.8-1.28,4.21-1.89s2.78-1.12,4.15-1.72c1.07-.46,2.13-1,3.17-1.48.86-.43,1.71-.89,2.57-1.33l.17-.08a1.64,1.64,0,0,0,.86-.76,1.53,1.53,0,0,0,.06-1.15,1.49,1.49,0,0,0-.76-.86,1.7,1.7,0,0,0-.69-.15,1,1,0,0,0-.46.09Zm1.09,2.78-.15.07.15-.07Z"/><path class="cls-1" d="M142.88,48.43a2,2,0,0,0-1.95,2c.18,2,.4,4,.52,6.06s.24,3.88.37,5.82,0,3.88.12,5.81a10.49,10.49,0,0,0,.78,3.84,5.36,5.36,0,0,0,1.14,1.61,3.2,3.2,0,0,0,1.38.77,3.33,3.33,0,0,0,1.82-.15l.54-.17c.65-.07,1.32-.1,2-.16s1.48-.2,2.22-.28l2.48-.25c.86-.09,1.72-.22,2.57-.36a19,19,0,0,1,2-.24,18.38,18.38,0,0,0,2-.1,2.12,2.12,0,0,0,1.38-.6,2,2,0,0,0,0-2.83,2,2,0,0,0-1.45-.57c-.77.12-1.56.06-2.34.13a24.26,24.26,0,0,0-2.52.36c-1.66.23-3.32.33-5,.56-.81.11-1.62.2-2.44.27-.38,0-.77,0-1.14.1s-.63.09-.94.17l-.06-.11a5.09,5.09,0,0,1-.18-.67,33.63,33.63,0,0,1-.18-4.38c0-1.64-.11-3.27-.22-4.9s-.19-3.15-.29-4.72-.31-3.41-.46-5.11a2,2,0,0,0-2-2Zm2.79,22h0Z"/><path class="cls-1" d="M174.77,44.27a2,2,0,0,0-2,2c.08,1,.16,2,.27,3s.17,2,.23,3,.09,2,.17,2.94l.24,3c.14,2,.12,3.95.2,5.93,0,.94.14,1.87.21,2.81s.09,1.82.11,2.72a13.66,13.66,0,0,0,.21,2.3,1.92,1.92,0,0,0,.94,1.18,2,2,0,0,0,2.72-.76,2.1,2.1,0,0,0,.2-1.45c-.09-.82-.07-1.65-.1-2.47s-.08-1.74-.15-2.61-.16-2-.18-3,0-2.08-.06-3.11c-.1-2-.33-3.94-.42-5.91,0-1-.11-1.93-.16-2.9s-.19-1.94-.28-2.91l-.15-1.93a2,2,0,0,0-2-1.94Z"/><path class="cls-1" d="M218.09,44.53a1.88,1.88,0,0,0-1.18.94c-.37.89-.78,1.77-1.12,2.68s-.62,1.77-.91,2.66c-.57,1.73-1,3.53-1.46,5.29-.27.94-.55,1.88-.84,2.81s-.54,1.63-.75,2.45-.43,1.75-.66,2.62l-.59-.55c-.5-.44-1-.84-1.5-1.29a13.32,13.32,0,0,1-1.29-1.41,43.59,43.59,0,0,1-3.28-4.79c-.46-.79-.91-1.58-1.34-2.38s-.82-1.7-1.29-2.52a26.46,26.46,0,0,0-1.45-2.32l-.4-.53a3.76,3.76,0,0,0-.71-.83,2.38,2.38,0,0,0-1-.54,2.69,2.69,0,0,0-1.13,0,2.51,2.51,0,0,0-1.54,1.2,7.82,7.82,0,0,0-.62,1.88l-.33,1.42q-.33,1.43-.63,2.85c-.31,1.48-.59,3-.76,4.46s-.28,3-.4,4.49c-.13.92-.31,1.83-.49,2.75a2,2,0,0,0,3.88,1,31,31,0,0,0,.61-3.84c.09-1.08.16-2.17.26-3.25.21-1.69.51-3.36.87-5,.12-.56.25-1.12.37-1.68.32.58.61,1.17.91,1.76a49.84,49.84,0,0,0,2.93,5.05c.56.84,1.15,1.65,1.74,2.46a18.25,18.25,0,0,0,2.12,2.52c.68.67,1.44,1.25,2.14,1.89.31.29.62.6.92.91s.51.6.8.87a2.71,2.71,0,0,0,2,.87,2.32,2.32,0,0,0,1.63-.78,4.15,4.15,0,0,0,.76-1.4,23.44,23.44,0,0,0,.72-2.34c.23-.84.43-1.68.65-2.52s.5-1.65.76-2.46c1.09-3.53,1.86-7.17,3.15-10.64l.78-1.8a2.19,2.19,0,0,0,.17-1.55,2,2,0,0,0-.94-1.18,2.1,2.1,0,0,0-1-.25,1.77,1.77,0,0,0-.56.08Zm-10.47,16,.1.12-.1-.12Z"/><path class="cls-1" d="M234.75,42.13a2,2,0,0,0-1.95,2,47.19,47.19,0,0,1,.3,5.58c0,1.91-.11,3.82-.16,5.73-.06,1.74-.17,3.49-.17,5.24,0,.85,0,1.69.08,2.53,0,.46.07.92.09,1.37a9.89,9.89,0,0,0,.13,1.72,2,2,0,0,0,2.48,1.35A2,2,0,0,0,237,65.55c0-.82-.06-1.64-.11-2.45s-.08-1.7-.08-2.55c0-1.74.11-3.48.17-5.22s.1-3.79.16-5.68a41.5,41.5,0,0,0-.3-5.57,2.13,2.13,0,0,0-.6-1.38,2,2,0,0,0-1.4-.57Z"/><path class="cls-1" d="M247.45,44.92c-1,1.07-2.07,2.14-3.21,3.1-.73.55-1.49,1-2.24,1.57s-1.59,1.08-2.4,1.6c-.48.31-1,.59-1.42.93a7.63,7.63,0,0,0-1.7,1.75,3.33,3.33,0,0,0-.42.87,4.16,4.16,0,0,0-.13.86,2.54,2.54,0,0,0,.32,1.11,2.29,2.29,0,0,0,.89.91,10.29,10.29,0,0,0,1.78.66l.17.1c1.26,1,2.15,2.46,3.35,3.58a32.08,32.08,0,0,0,3.77,2.67,18,18,0,0,1,2.13,2.06,7.92,7.92,0,0,0,1.41,1.3,2.88,2.88,0,0,0,3.15.13,2,2,0,0,0-1.22-3.7c-.32-.3-.6-.64-.9-1a14.87,14.87,0,0,0-1.38-1.37A35.78,35.78,0,0,0,246,59.71a12.87,12.87,0,0,1-1-.91c-.47-.49-.9-1-1.33-1.52s-.89-1-1.36-1.48a5.53,5.53,0,0,0-1.1-.84l.45-.29,1.16-.76c.86-.56,1.7-1.15,2.54-1.72a22.24,22.24,0,0,0,2.64-2.09c.83-.77,1.61-1.58,2.39-2.38a2,2,0,0,0,0-2.83,2,2,0,0,0-1.39-.56,2,2,0,0,0-1.44.59Zm4.42,19.68h0Zm-.9,0Z"/><path class="cls-1" d="M268.56,45.15a2.09,2.09,0,0,0-1.39.61,2.11,2.11,0,0,0-.56,1.44c-.05.61-.1,1.21-.16,1.81-.18,1.48-.41,3-.6,4.44-.22,1.75-.32,3.5-.41,5.27a39.06,39.06,0,0,0,.06,4.59,7.11,7.11,0,0,0,.68,2.87,3.71,3.71,0,0,0,1.27,1.25,3.46,3.46,0,0,0,.73.33c.72.33,1.44.65,2.19.91s1.46.44,2.19.63a15,15,0,0,0,2.08.49,6.83,6.83,0,0,0,2.21,0,6.16,6.16,0,0,0,1.49-.53,2,2,0,0,0,.68-2.75,2,2,0,0,0-2.65-.73l-.34.1a4.34,4.34,0,0,1-.51,0,22.81,22.81,0,0,1-2.31-.55c-.81-.22-1.6-.45-2.38-.73-.41-.18-.8-.38-1.21-.55h0l.22.09-.23-.1a2.38,2.38,0,0,1-.05-.26,27.51,27.51,0,0,1-.14-4.16c0-1.54.11-3.09.24-4.64.14-1.1.29-2.2.44-3.3.21-1.53.38-3,.51-4.59a1.92,1.92,0,0,0-.61-1.38,2,2,0,0,0-1.4-.57Zm.95,18.36v0Zm0,.5h0Z"/><path class="cls-1" d="M277.88,53.9c-1.24.06-2.48.15-3.72.19a38.08,38.08,0,0,1-4.89-.28,1.94,1.94,0,0,0-1.38.61,2,2,0,0,0-.57,1.45,2.06,2.06,0,0,0,.61,1.38,2.16,2.16,0,0,0,1.45.56,40.52,40.52,0,0,0,5.28.27c.75,0,1.51,0,2.26-.11.38,0,.76-.07,1.14-.08a6.13,6.13,0,0,0,.85-.09,2.43,2.43,0,0,0,1.22-.7,2,2,0,0,0,0-2.83,1.94,1.94,0,0,0-1.37-.55,2.09,2.09,0,0,0-.85.18Z"/><path class="cls-1" d="M268,44.57a2,2,0,0,0,0,2.83,2.1,2.1,0,0,0,1.45.57l1.76.15c1.28.16,2.55.38,3.82.66.65.14,1.28.3,1.93.41s1.48.21,2.22.31a2.12,2.12,0,0,0,1.52-.23,2,2,0,0,0,.91-1.23,2,2,0,0,0-.23-1.51,1.92,1.92,0,0,0-1.23-.91c-.86-.12-1.72-.21-2.57-.37s-1.56-.35-2.33-.51a43.64,43.64,0,0,0-5.91-.77h-.08a2,2,0,0,0-1.3.6Z"/><path class="cls-1" d="M293.8,47.72a2,2,0,0,0-1.95,2.05c0,1.08.06,2.16.06,3.23a23.91,23.91,0,0,1-.17,2.55c-.25,1.84-.52,3.67-.77,5.5s-.47,3.9-.69,5.85l.06-.54-.18,1.55c0,.22-.05.43-.08.65a2.65,2.65,0,0,0,.22,1.81,2,2,0,0,0,2.74.69,2,2,0,0,0,1-1.8h0v-.06c.15-1.22.28-2.44.42-3.65.3-2.62.66-5.23,1-7.83a39.6,39.6,0,0,0,.44-4.2c.05-1.29,0-2.57,0-3.86a2,2,0,0,0-2-2ZM294,69v.09s0-.06,0-.09Z"/><path class="cls-1" d="M296.55,48.25a11.52,11.52,0,0,0-3.63,1,2.18,2.18,0,0,0-1.18.93,2,2,0,0,0-.17,1.55,2,2,0,0,0,.93,1.18,1.92,1.92,0,0,0,1.55.17,13.9,13.9,0,0,1,2.42-.85,9.21,9.21,0,0,1,1.39,0,19.75,19.75,0,0,1,2.62.57c.79.23,1.56.5,2.32.8a14,14,0,0,1,2.14,1.12A9.12,9.12,0,0,1,306,55.81a8.24,8.24,0,0,1,.54.9,16.94,16.94,0,0,1,.81,3.13,16.46,16.46,0,0,1,.09,2.43,10.13,10.13,0,0,1-.41,1.71,10,10,0,0,1-.8,1.43,11,11,0,0,1-1.3,1.34,12.73,12.73,0,0,1-1.45.88,8.38,8.38,0,0,1-1.21.35,23,23,0,0,1-3.32.13c-1.17,0-2.33,0-3.5-.13l-.84-.12a2.12,2.12,0,0,0-1.52.23,2,2,0,0,0-.68,2.74,1.92,1.92,0,0,0,1.23.91,40.4,40.4,0,0,0,6.12.38,19.85,19.85,0,0,0,2.89-.18,8.6,8.6,0,0,0,2-.49,12,12,0,0,0,1.61-.78,11.06,11.06,0,0,0,2.38-1.93,10.29,10.29,0,0,0,2.69-5.55,17,17,0,0,0,.13-1.74c0-.53-.05-1.05-.09-1.57a19.43,19.43,0,0,0-.61-3.11,8.5,8.5,0,0,0-1.31-3,10.35,10.35,0,0,0-2-2.06A11.45,11.45,0,0,0,305,50.23a24.67,24.67,0,0,0-5.48-1.76,16,16,0,0,0-2.38-.24,5,5,0,0,0-.55,0ZM307,64.2s0,.09-.05.13,0-.09.05-.13Z"/><path class="cls-1" d="M328.76,54.27c-.29,1.72-.59,3.42-1,5.12s-.72,3.12-1.09,4.67-.81,3.14-1.14,4.73c-.17.79-.29,1.6-.43,2.4a15.7,15.7,0,0,0-.31,2.81,2,2,0,1,0,4-.1,7.32,7.32,0,0,1,0-.81,85.77,85.77,0,0,1,1.8-8.39c.36-1.5.72-3,1-4.48.36-1.66.65-3.32.93-5a2.09,2.09,0,0,0-.23-1.51,2.05,2.05,0,0,0-1.23-.91,1.73,1.73,0,0,0-.45-.05,2,2,0,0,0-2,1.51Z"/><path class="cls-1" d="M346.8,57.52a3,3,0,0,0-1.23.72,6.93,6.93,0,0,0-1.07,1.28,45.17,45.17,0,0,0-2.93,4.55c-.58,1-1.06,2.11-1.54,3.18s-.92,2.06-1.37,3.09c-1,2.24-2.06,4.42-3.22,6.58a2,2,0,0,0,3.49,2c.84-1.57,1.63-3.15,2.41-4.75.35-.73.66-1.48,1-2.23s.73-1.63,1.09-2.45a38.89,38.89,0,0,1,2.17-4.33c.38-.63.78-1.26,1.19-1.88.08.45.15.91.23,1.36.27,1.45.55,2.9.92,4.34a32.25,32.25,0,0,0,1.32,4.15c.56,1.4,1.31,2.71,1.95,4.08s.94,2.76,1.43,4.14c.29.79.6,1.57,1,2.33.15.33.3.65.47,1s.33.54.47.81a2.34,2.34,0,0,0,.54.82,2.14,2.14,0,0,0,2.09.57A2.93,2.93,0,0,0,358.87,85c.39-.83.72-1.69,1.05-2.54.72-1.81,1.39-3.64,2.1-5.45,0-.12.09-.24.14-.37a57.64,57.64,0,0,1,2.93-5.89c1-1.84,2-3.67,2.94-5.56a2,2,0,0,0-3.49-2c-1,1.94-2,3.82-3,5.72-.57,1-1.14,2.08-1.66,3.14s-1,2.19-1.46,3.31c-.65,1.63-1.26,3.27-1.89,4.91-.39-1.12-.71-2.26-1.12-3.37-.62-1.67-1.47-3.21-2.23-4.81a31.5,31.5,0,0,1-1.65-5.35c-.21-1-.4-2-.59-2.92s-.31-1.87-.5-2.79a7.87,7.87,0,0,0-.39-1.25,4,4,0,0,0-1.43-2,2.1,2.1,0,0,0-1.17-.34,2.16,2.16,0,0,0-.62.09Zm11.25,26.06,0,0s0,0,0,0Zm0,.09h0l.1.22c0-.08-.07-.16-.11-.23Zm.05,0,0,0a.1.1,0,0,1,0,0Zm.08-7.87c.05-.15.11-.29.17-.44-.06.15-.12.3-.17.44Zm.17-.44v0l0,0,0,.06Z"/><path class="cls-1" d="M420.55,60.67a1.76,1.76,0,0,0-.19,2.46,1.82,1.82,0,0,0,1.19.61l1,.2a21.2,21.2,0,0,1,2.47.73,25,25,0,0,1,2.36,1.06l1.82.91c2.39,1.24,4.73,2.57,7.05,3.93,1.15.67,2.28,1.35,3.4,2.05a26.74,26.74,0,0,1,3,2.06,2.11,2.11,0,0,1,.19.23,1.75,1.75,0,1,0,2.67-2.27,10,10,0,0,0-2-1.7c-.6-.43-1.22-.82-1.84-1.21-1.26-.79-2.54-1.55-3.82-2.31s-2.63-1.5-3.94-2.23-2.64-1.42-4-2.09c-1.19-.61-2.39-1.21-3.63-1.71a25.76,25.76,0,0,0-4.39-1.14l-.2,0a1.77,1.77,0,0,0-1.08.44Zm8.64,6,.33.16-.33-.16Z"/><path class="cls-1" d="M408.68,71.34a1.76,1.76,0,0,0,1.07,2.23l3.82,1.34c.59.22,1.17.43,1.74.68s1.08.52,1.62.79c2.14,1.07,4.33,2,6.47,3.08l5,2.54a35,35,0,0,1,4.45,2.64c1.43,1,2.92,2,4.34,3a1.75,1.75,0,1,0,2-2.89c-.8-.6-1.65-1.12-2.46-1.69s-1.59-1.11-2.38-1.65a41.23,41.23,0,0,0-5.27-3c-1.43-.74-2.86-1.49-4.3-2.21s-3-1.4-4.46-2.11c-.77-.36-1.53-.73-2.29-1.11s-1.37-.7-2.09-1c-1.64-.64-3.32-1.19-5-1.78a1.89,1.89,0,0,0-.56-.1,1.79,1.79,0,0,0-1.67,1.18ZM429,78.45l.2.11-.2-.11Zm-.44,3.67.16.07-.16-.07Z"/><path class="cls-1" d="M422,89.82a1.76,1.76,0,0,0,.46,2.43c2.16,1.28,4.37,2.5,6.49,3.84s3.78,2.73,5.79,3.89a1.85,1.85,0,0,0,1.29.28,1.75,1.75,0,0,0,.68-3.17c-2-1.14-3.74-2.61-5.67-3.82-2.17-1.37-4.41-2.61-6.61-3.92a2,2,0,0,0-1-.28,1.67,1.67,0,0,0-1.42.75Z"/><path class="cls-1" d="M423.52,110.32a1.79,1.79,0,0,0-1.14.75,1.76,1.76,0,0,0,.46,2.43,80.22,80.22,0,0,1,9.48,5.85,1.75,1.75,0,0,0,2-2.9,83.83,83.83,0,0,0-9.48-5.85,2.07,2.07,0,0,0-1-.3l-.29,0Z"/><path class="cls-1" d="M115.38,43.79c-1.44.09-2.87.27-4.3.49s-2.93.48-4.37.84a42.14,42.14,0,0,0-8.65,3.66A1.75,1.75,0,0,0,99.54,52a57.17,57.17,0,0,1,6.86-3.13,39.56,39.56,0,0,1,4.57-1,47.06,47.06,0,0,1,5-.59,1.7,1.7,0,0,0,1.14-.74,1.74,1.74,0,0,0-.46-2.43,1.69,1.69,0,0,0-1-.29Z"/><path class="cls-1" d="M110,54.83c-.75.16-1.5.37-2.24.57s-1.45.36-2.17.57c-1.61.46-3.2,1-4.8,1.53-1.08.34-2.18.64-3.27.94a1.84,1.84,0,0,0-1.14.74,1.74,1.74,0,0,0,.46,2.43,1.66,1.66,0,0,0,1.29.28c1.19-.33,2.38-.66,3.56-1s2.15-.71,3.23-1.06c2.13-.64,4.3-1.21,6.47-1.7a46.36,46.36,0,0,1,6.61-1c.52,0,1,0,1.57,0a1.75,1.75,0,0,0,.28-3.49l-.83,0a41.05,41.05,0,0,0-9,1.28Z"/><path class="cls-1" d="M105.36,71.35a23.59,23.59,0,0,0-4.24,1.73c-1.21.65-2.41,1.31-3.62,2A1.75,1.75,0,0,0,99,78.21a44.47,44.47,0,0,1,7-3.41,1.91,1.91,0,0,0,1.14-.74,1.77,1.77,0,0,0-.46-2.43,1.91,1.91,0,0,0-1-.32,1.06,1.06,0,0,0-.31,0Zm.43,3.51-.13,0,.13,0Z"/><path class="cls-1" d="M107,90.68c-2.48,1-4.85,2.23-7.26,3.36a1.75,1.75,0,0,0,1.48,3.17c2.41-1.13,4.78-2.38,7.26-3.35a1.76,1.76,0,0,0,.84-2.33,1.68,1.68,0,0,0-1.58-1,2.11,2.11,0,0,0-.74.14Z"/></g></g></svg>