<svg xmlns="http://www.w3.org/2000/svg" viewBox="0 0 382.6 210.2" fill="#fff" xmlns:v="https://vecta.io/nano"><path d="M368.2 156.3c-.8-1.3-2.2-2.1-3.7-2.1-.7 0-1.5.2-2.1.6-1.3.7-2 2-2.1 3.5-.1.4-.2.8-.4 1.2-.1.2-.2.4-.3.5-.1.2-.2.4-.3.5l-.6 1.2c-.2.4-.4.8-.7 1.2s-.5.8-.8 1.2l-2.2 2.1c-.4.4-.8.7-1.2 1s-.6.6-.9.9c-.8.6-1.6 1-2.5 1.5-2 .7-4.1 1.1-6.2 1.7s-4 .9-6.1 1.2c-3.9.4-7.9.6-11.8.8l-12.4.4c-2 .1-3.9.2-5.9.2-2.2 0-4.4 0-6.6-.1-3.9-.2-7.8-.5-11.8-.8l-12.6-1.1c-4.2-.5-8.5-.6-12.7-1l-6.2-.6c-2-.2-4.1-.3-6.2-.4l-12.7-.5-12.3-.7-13.1-.7-6.5-.5-6.4-.3c-4.4-.2-8.8-.2-13.2-.2l-18.2-.3c-2.1 0-4.3-.1-6.4-.1-4.3 0-8.5.4-12.8.6-2.1.1-4.2.3-6.4.3s-4.1.1-6.1.1c-4.2.2-8.4.6-12.6.8s-8.2.2-12.3.5c-4.5.4-8.9 1-13.4 1.8-2 .4-4.1.7-6.1 1.2s-4.2.9-6.3 1.3c-8.2 1.6-16.1 4.2-24.1 6.4-4 1.1-8.1 2-12.1 3.1l-12.2 3.5-7.1 2.1c-2.4.7-4.4 1.6-6.6 2.5-2.4.9-4.9 1.8-7.3 2.8l-6.2 2.7-11.2 4.5H0v9.4c2.2-1.1 4.3-2.1 6.6-3.1l7.2-2.8c2.6-1 5.2-2.2 7.8-3.3l5.3-2 5.7-2.2c1.9-.7 4-1.3 6.1-1.9l6.1-1.8c4.1-1.2 8.3-2.4 12.5-3.4s8.1-2 12.1-3.1c6.4-1.8 12.8-3.9 19.3-5.1 3.2-.6 6.5-1.4 9.7-2s6.5-1.2 9.7-1.6c1.9-.2 3.8-.5 5.7-.6l6.1-.3c4.3-.2 8.6-.3 12.8-.7 2-.2 4-.3 6-.4 2.1-.1 4.2 0 6.3-.1l12.9-.7c2-.1 4.1-.2 6.1-.2s4.3.1 6.5.1l12.4.2 12.6.1a284.9 284.9 0 0 1 12.9.6c2.2.1 4.4.4 6.6.5s4.4.3 6.6.4l6.5.3c2.1.1 4.1.3 6.2.4l12.4.5c4.1.2 8.4.2 12.6.7l6 .6c2.2.2 4.3.3 6.5.4 4.2.3 8.5.8 12.7 1.1l12.2.9c4.1.3 8.2.5 12.3.4 2 0 4-.2 5.9-.3s4.1-.1 6.1-.2c4.2-.2 8.4-.2 12.6-.6 4-.2 7.9-.8 11.8-1.6 1.8-.4 3.6-.9 5.3-1.4 1.9-.5 3.6-1.2 5.3-2.2 1.3-.8 2.5-1.7 3.7-2.7.5-.4.9-.8 1.4-1.2s.8-.8 1.2-1.2c.5-.4 1-.9 1.4-1.4l.2-.3.2-.2c.1-.2.2-.4.4-.6.3-.6.5-1.2.8-1.7s.5-1.2.8-1.8c.1-.4.2-.7.4-1.1s.3-.6.4-.9c.2-.6.5-1.1.6-1.7 0-.1.1-.3.1-.4v-.1l.1-.3-.1.3v.1c.1-.3.2-.6.2-.9v-.1c.1-.2.1-.5.2-.7s.1-.5.1-.8c.1-.4.2-.9.3-1.3v-.1c0-.1.1-.2.1-.3s-.2 0-.3-.1zM7.4 206.8l-.4.2.4-.2z"/><path d="M368.3 157.1h0zm0 .1v.1-.1zm9.7-99.8c-1.1 0-2.2.4-3 1.2-.3.3-.6.7-.9 1.2v.2c.2 1.2.3 2.5.3 3.8 0 1.5-.1 3.1-.4 4.6h0c0 .5 0 .9-.1 1.4-.2 1.3-.3 2.6-.4 3.9v-.2l-.5 6-.3 2.4-.3 1.5c-.1.5 0 .7 0 1.1 0 .6-.1 1.1-.2 1.6 0 .4-.1.7-.1 1.1-.1.4-.1.8-.2 1.2l-.4 4-.3 2.8c-.1.9-.3 1.7-.5 2.5l-.9 4.8c-.1 1-.3 2.1-.5 3.2l-1.4 8-1 3.9c-.1.2-.1.4-.2.6-.1.9-.3 1.7-.5 2.6l-.3 1.4c-.1 1.1-.3 2.2-.5 3.2l-.6 3c-.1.7-.1 1.4-.3 2.1l-.5 2c-.1.2-.1.4-.1.5s-.1.6-.1.9c-.1.9-.4 1.8-.5 2.7-.2 1.2-.3 2.5-.4 3.7 0 .4-.1.8-.2 1.2-.2 1.2-.6 2.4-.9 3.6-.3 1.4-.5 2.7-.6 4.1-.2 1-.5 1.9-.8 2.8l-1.5 4.9c-.6 2.3.8 4.6 3.1 5.1 2.2.5 4.5-.7 5.1-2.9l1.4-4.7c.1-.5.2-1 .2-1.5.1-.7.3-1.5.5-2.2v-.1.1c.2-.6.3-1.2.4-1.8 0-.3.1-.7.1-1s0-.7.1-1.1l.8-4.1.4-1.9c.1-.3.1-.6.2-.9 0-.1 0-.2.1-.3 0-.3.1-.7.1-1 .1-.7.2-1.3.4-2 .2-.9.3-1.9.4-2.9.3-1.9.8-3.6 1.2-5.5.3-1.2.4-2.5.7-3.8l.7-3.5.5-3.2.5-2.8.6-3.5.5-3.6.4-2.6c.1-.5.1-1.1.1-1.6.3-2 .8-4 1.4-5.9l.7-4.2.2-3-.1 1.1c.2-1.3.3-2.7.4-4.1.1-.9.4-1.8.6-2.7l.5-3.2.3-2.2c.1-.8.1-1.2.1-1.8l.2-3.4-.1.4.4-3.2a16.28 16.28 0 0 0 .3-3.1c0-1-.1-2-.3-3 0-.3-.1-.6-.1-.8-.1-1 .1-1.9 0-2.9 0-1.1-.4-2.2-1.2-3s-1.9-1.3-3-1.3l.3.1z"/><path d="M143.9 90l-6.6.2-6.3.4c-4.1.2-8.2.7-12.3 1.1-4.3.4-8.7 1.1-13 1.9l-5.8 1c-1.6.3-3.3.5-4.9.8-4 .8-8.1 1.7-12 2.8s-7.8 2.4-11.7 3.6c-3.3 1-6.7 1.9-10.1 2.8-3.6 1-7.1 2.3-10.7 3.4-1.5.5-2.9.9-4.4 1.3-1.6.5-3.2 1.1-4.8 1.6-.8.3-1.6.5-2.4.7-1.2.3-2.3.8-3.5 1.2-1.9.7-3.7 1.6-5.5 2.4-2.1 1.1-2.9 3.7-1.8 5.7.5 1 1.4 1.7 2.5 2.1 1.1.3 2.2.2 3.2-.3 1.8-.8 3.6-1.7 5.4-2.4 1.7-.6 3.4-1 5-1.6s3.2-1.1 4.9-1.6l4.8-1.4c2-.6 4-1.4 6.1-2 3.6-1.1 7.3-2.1 11-3.1 3.9-1.1 7.7-2.4 11.6-3.6 3-.9 6.1-1.6 9.2-2.3 2.9-.6 5.7-1.3 8.6-1.7s5.9-1.1 8.8-1.5l9.5-1.4c3.8-.4 7.6-.7 11.4-1 4.4-.3 8.7-.4 13.1-.6l8-.3h7.1l2.4.3c.2 0 .5.1.7.2h.1l6.4.4c4.3.3 8.6.4 12.9.7 4 .3 8 .7 12 1.2l25 3.1c3.9.7 7.8 1.5 11.7 2.5 4.1 1.1 8.2 2.4 12.3 3.6l29.7 9.1c1.6.5 3.2 1.1 4.8 1.7s3.4 1.2 5 1.9c1.5.6 2.9 1.2 4.4 1.9 2.4 1.1 4.7 2.3 7 3.6s4.6 2.4 6.9 3.6l12.5 6.4 4 1.9c1.6.8 3.1 1.5 4.8 2.2s3.2 1.3 4.9 2.1l-1-.5c1.7.8 3.4 1.5 5.1 2.3s3.3 1.7 4.9 2.5c.9.5 1.8.9 2.6 1.4s1.7 1.1 2.6 1.7c2 1.4 4.2 2.5 6.2 3.9 1.6 1 3.2 1.9 4.6 3.1.7.7 1.4 1.4 2.1 2.2.5.8 1 1.6 1.4 2.4.1.3.2.7.3 1v.6l-.3 1.2c-.7 2.2.6 4.6 2.8 5.3s4.6-.6 5.3-2.8c.3-1.2.6-2.4.7-3.7 0-1.8-.3-3.5-1-5.2l-.9-1.8-.9-1.5c-.9-1.3-1.9-2.6-3.1-3.6-1.6-1.4-3.3-2.7-5.1-3.8l-5.8-3.6c-1.7-1-3.2-2.3-4.9-3.2s-3.4-1.7-5-2.6c-2.4-1.2-4.9-2.2-7.3-3.3l1 .5-4.6-2.1-3.6-1.5-3.3-1.5c-1.4-.7-2.9-1.4-4.3-2l1 .5c-3.4-1.6-6.7-3.4-10-5.2-1.8-.9-3.5-1.8-5.3-2.8l-5.8-3c-2.2-1.2-4.5-2.2-6.8-3.2-2-.9-4-1.8-6-2.5l-5.8-2.1c-2-.7-4.1-1.3-6.2-1.9l-24.7-7.6-12.2-3.6c-4.2-1.1-8.5-2-12.8-2.7-4.6-.8-9.2-1.3-13.9-1.9l-12-1.4c-4-.5-8-.9-12-1.2-4.4-.4-8.9-.5-13.3-.8l-6.2-.3c-2.1-.1-4.3-.4-6.4-.5-1.2-.1-2.4-.1-3.6-.1-2.7 0-5.6.2-8.4.3h0z"/><path d="M31 22.9h0l.4-.2-.4.2-.5.4c-.2.1-.4.4-.6.5l-1.6.9c-.3.2-.5.4-.8.6-.2.5-.3 1-.3 1.5v.5l-.3 1.4-.5 3.1c-.1 1.1-.4 1.7-.5 2.6-.1.5 0 1-.1 1.4-.1.7-.3 1.4-.3 2.2s0 1.2-.1 1.8 0 1.3 0 2c0 .9-.1 1.8-.2 2.6-.1.7-.1 1.4-.1 2.2v2c.1 1.4.1 2.9 0 4.3-.3 1.8-.4 3.6-.4 5.4.1 1.5 0 2.9-.1 4.4l.1 3.4c.1 1.4.1 2.8 0 4.2l-.5 5.4c-.1 1.5 0 3 .2 4.5l.1 4.3-.2 9.1c-.1 1.9-.1 3.8.1 5.6l.1 2.9c0 1.1.2 2.3.4 3.4.1.3.1.6.2 1l.4 5.9-.3 7.2c-.1 2.3 1.8 4.3 4.1 4.4 1.1 0 2.2-.4 3-1.1.8-.8 1.3-1.9 1.4-3 .3-3 .4-6 .3-9l-.3-4.2c-.1-1.4-.4-2.7-.5-4v-2.4c0-.8-.2-1.9-.2-2.7l.1-5.2.1-8.6-.2-4.2c-.1-1.5-.1-2.9 0-4.4l.4-5.2c.1-1.7 0-3.3-.2-5 0 .4.1.7.1 1.1-.2-2.5 0-4.9 0-7.3-.1-1.6 0-3.3.3-4.9h0c.1-.6.2-1.2.2-1.9v-6.1c.1-1.6.3-3.1.2-4.7 0-.6 0-1.1.1-1.7s0-1.1.1-1.6l.3-2v-1.1c.1-.7.3-1.3.4-2 .1-.5.1-1 .2-1.5l.3-1.2.2-.6.3-1.4v-.9c.1-2.3-1.8-4.3-4.1-4.4h0-.1l-.7.1zm-6.1 43.2v.2-.2z"/><path d="M175 .1l-6 .2-11 .7-4.8.4h-.2l-1.1.1c-1.7.2-3.4.3-5.1.3s-3.6.2-5.4.4l-11.6.8c-4.2.3-8.5.9-12.7 1.5-1.8.2-3.5.4-5.2.7-2 .3-4 .7-5.9 1L95.5 7.6l-2.7.3-3 .3h-.1c-.2 0-.4.1-.5.1l-.4.1-.3.1-.2.1h.1c-.9.3-1.8.5-2.7.6h.3-1.3c-.2 0-.5 0-.8.1-.5.1-.9.1-1.4.2l-.7.1-.5.1h-.1l-2.9.6-1.1.2-.9.2-1.2.3h-.6c-1.4.3-2.7.6-4.1.8-1.8.3-3.5.5-5.3.8s-3.3.6-5 1c-2 .5-4 1.1-6 1.6s-3.9 1-5.9 1.4c-1.6.4-3.1.6-4.7.9l-1.7.5c-.5.2-.9.4-1.3.5-.7.3-1.5.6-2.3.9s-1.4.6-2.2.9l-1.8.9c-.3.2-.7.3-1 .5s-.6.2-.9.4-.8.5-1.2.8h0l.1-.1.2-.1-.3.2-.5.3c-.7 1.2-.7 2.7-.1 4 1.1 2.1 3.7 2.8 5.7 1.8 1.3-.7 2.5-1.6 3.9-2.2 1.4-.4 2.8-.6 4.3-.9 1.8-.4 3.6-.7 5.4-1 2-.4 4-.9 5.9-1.4l6-1.6c1.7-.4 3.4-.7 5.1-1s3.4-.5 5.1-.8c3.3-.6 6.6-1.4 10-2 1.4-.2 2.8-.5 4.1-.8 1.7-.3 3.3-.6 5-.8 3.2-.3 6.5-.7 9.7-1.1 2.8-.4 5.7-.7 8.5-1.2 3.2-.6 6.3-1 9.5-1.4l9.1-1.1c4.8-.5 9.6-.6 14.5-1.1l5.3-.3a73.54 73.54 0 0 0 6.6-.6l-1.1.1 1.2-.1c1.8-.2 3.6-.3 5.3-.4l5.6-.4c3.9-.2 7.8-.3 11.7-.4s7.5 0 11.2.1h5.7c2 0 4 .2 6.1.2 3.9.1 7.7.3 11.6.7 4.1.5 8.2.9 12.4 1.3 3.9.3 7.9.8 11.8 1.2 2.1.2 4.2.5 6.4.8s4 .5 6 .7c.9.1 1.8.2 2.7.4l-1.1-.2 4.1.6c2.5.4 4.9.9 7.4 1.2l6 1.2c2 .4 4 .9 6 1.4 4 1.1 8.1 1.8 12.2 2.8s7.8 2.1 11.6 3.3l18 5.5c1.7.5 3.4 1.2 5 1.9s3.2 1.1 4.8 1.7 3.3 1.4 5 2.1c1.9.8 3.9 1.5 5.9 2.2s3.8 1.5 5.7 2.2 3.7 1.2 5.4 2c1.5.7 3.1 1.3 4.7 1.8.7.2 1.4.4 2.1.7a22.56 22.56 0 0 1 2.2 1.1c1.1.5 2.2 1.1 3.4 1.6.9.4 1.8.6 2.6 1l1 .5c.7.3 1.2.8 1.9 1.1a4.67 4.67 0 0 1 1 .5c.2.2.5.3.7.5.5.3 1 .8 1.6 1.1.5.3.9.6 1.3.9.5.5 1 .9 1.6 1.4.2.1.4.3.5.4s.4.4.6.7l.3.5.1.2v.1c.3.4.6.8.8 1.2.5.9.8 2 .9 3 .2 1.2.3 2.5.3 3.8 0 .6 0 1.1-.1 1.7.4.4.9.6 1.5.8 1.1.3 2.2.2 3.2-.3s1.8-1.4 2.1-2.5c.2-.7.3-1.4.3-2.1v-1.7c0-.4-.1-.7-.1-1.1.1-.7 0-1.3-.1-2-.1-.4-.2-.9-.3-1.3 0-.2 0-.4-.1-.7 0-.1 0-.2-.1-.3 0-.3-.1-.7-.2-1-.2-.7-.6-1.4-1-2l-.6-.9c-.4-.6-.8-1.1-1.3-1.6s-1.1-.9-1.7-1.4l-.4-.3c-.4-.3-.7-.6-1.1-1l.4.4c-.7-.7-1.5-1.3-2.3-1.8-.6-.3-1.2-.8-1.8-1.2-.2-.2-.5-.3-.7-.5-.4-.2-.7-.4-1.1-.6-.3-.2-.6-.4-1-.6-.5-.3-.9-.5-1.4-.7-1.1-.5-2.1-1-3.2-1.4-.7-.2-1.3-.5-2-.7l-1.1-.6c-.6-.3-1.2-.6-1.9-.9l-1.2-.6c-1-.4-2-.8-3-1.1-1.6-.5-3.2-1.1-4.7-1.8-1.8-.8-3.6-1.4-5.4-2s-3.8-1.5-5.8-2.2-3.9-1.4-5.8-2.2l-5-2.1c-1.7-.7-3.2-1.1-4.8-1.7s-3.4-1.4-5.1-1.9l-23.6-7.2c-1.9-.6-3.8-1.1-5.8-1.6s-4.1-.9-6.2-1.4l-5.9-1.4-2.1-.6c-.4-.1-.7-.1-1-.2-.5-.1-1-.2-1.4-.4l-1.5-.3c-1.7-.3-3.3-.7-5-1.1s-3.3-.6-5-.8l-8.4-1.4 1.1.2a74.67 74.67 0 0 0-6.6-.9c-2.2-.2-4.3-.6-6.4-.8-4-.5-8-.9-12-1.3l-12-1.2c-2-.2-4-.5-6.1-.6s-3.8-.3-5.7-.3c-4-.2-8-.4-12-.4h-5.7c-1.9 0-3.2-.3-5-.3h-.9c-1.8 0-3.5.1-5.3.1h0zm-33.6 2.1h0zm14.1 7.4h-.4.4zm225.9 49.1s0 .1 0 0c0 .1 0 0 0 0zm0 0h0c0 .2-.1.5-.1.6 0-.2.1-.4.1-.6h0zm0 .1h0zM145.5 92.7c-.8.3-1.6.5-2.4.7-.9.2-1.7.5-2.6.8l-1.1.3-1.8.6c-.4.1-.7.3-1.1.4-.4.2-.9.3-1.4.4-.7.1-1.4.3-2 .4-1 .2-1.9.5-2.9.9-.9.3-1.7.7-2.5 1.1l-8.3 3.9c-1 .5-2.1.9-3.2 1.3l-2.4.9.1-.1-.4.2-4.1 1.4-2.9.8-3.2 1.1-6.1 2.2-4.9 2c-5.4 2-11 3.7-16.7 5-2.7.6-5.4 1.3-8.1 2l-4.7 1.2c-1.6.4-3.1.6-4.7.8s-3 .2-4.5.2c-1.8 0-3.5.2-5.3.3s-3.6-.2-5.4-.2c-1.3 0-2.7-.1-4.1-.3-.7-.2-1.4-.3-2.1-.5-.9-.2-1.8-.4-2.6-.8l-2.4-1.2a4.54 4.54 0 0 0-3.2-.6c-1.1.3-2 .9-2.6 1.9s-.8 2.1-.5 3.3c.2 1.1.9 2 1.9 2.6 2 1.2 4.1 2.1 6.3 2.7 1.9.5 3.9.9 5.9 1.1 3.9.4 7.8.5 11.8.3 2-.2 3.9-.1 5.8-.2 2.5-.1 5.1-.5 7.6-1l6.2-1.5c1.8-.4 3.5-.9 5.3-1.3l5.9-1.4 6.3-1.9 6.1-2.1c2-.7 4.2-1.7 6.3-2.5s4.1-1.5 6.1-2.2c1.6-.6 3.3-1.1 5-1.5s3.3-1.1 4.9-1.8c3.6-1.3 7.1-2.7 10.5-4.3 2.1-1 4.1-2 6.2-2.9l2.4-.6c.5-.3 1-.5 1.5-.8.7-.4 1.6-.7 2.3-1.1 1.7-.9 3.4-1.6 5.2-2.2h0c.4-.2.8-.3 1.3-.4l.6-.2 1.1-.4-.3.1c.6-.2 1.1-.4 1.7-.6l1.1-.3a4.3 4.3 0 0 0-1.6-5.3c-.7-.4-1.5-.7-2.3-.7-.3-.2-.6-.1-1 0h0zm-41.8 15l-.3.1.3-.1z"/><path d="M113.6 104.3h0zM82.5 9.4c-.5.1-.9.1-1.4.2l-2.9.6-1.7.3c-.6.1-1.1.3-1.7.4-1 .2-2.1.2-3.1.4l-1.9.3-2 .3-3.4.6c-.5.1-1.1.2-1.6.4s-.8.1-1.4.2l-3.1.6c-.8.3-1.6.5-2.4.6-.8.2-1.6.3-2.4.6l-4.5 1-.3.1h-.3l.4-.2c-.5.2-1.1.3-1.7.5l-.7.2h-.1l-.2.1h.2l-.4.1c-.5.1-.9.3-1.4.4l-.8.2-2 .6c-.5.2-.9.4-1.3.5l-2.3.9-2.2.9-1.8.9H34l-.5.3c-.6.5-1 1.2-1.2 1.9-.7 2.2.6 4.6 2.8 5.3 1.1.4 2.3.3 3.2-.3 1.5-1.1 3-2.1 4.7-3 1.3-.7 2.8-1.2 4.2-1.8l4.9-1.8 5.8-2.5 4.7-2.3 5.1-2.4 5.2-1.9 6.3-2.2c1.1-.4 2.2-.9 3.3-1.4v.4zM151 92c-.3.2-.6.3-.9.4l-2.5.8-3.2.8c-1.1.1-2.1.3-3.2.6l-4.2 1.3c-1.1.3-2 .9-2.6 1.9-1.3 2-.7 4.6 1.3 5.9.3.2.6.3.9.4l.9-.5c.7-.4 1.6-.7 2.3-1.1 1.7-.9 3.5-1.6 5.3-2.3h-.1c.4-.1.8-.3 1.2-.4l.6-.2 1.1-.4-.3.1 1.7-.6c.4-.1.9-.2 1.3-.4l1.2-.3h4.7c.9-1.3 1-3 .3-4.4s-2.2-2.2-3.7-2.2c-.8.1-1.5.3-2.1.6h0zm220.9-2.7l-.4 3.1c-.2 1-.2 1.9-.3 2.8s-.3 1.7-.5 2.5l-.3 1.3 5.1-2.1c1-.5 1.8-1.4 2.1-2.5s.2-2.2-.3-3.2-1.4-1.7-2.5-2.1c-.4-.1-.8-.2-1.2-.2a3.81 3.81 0 0 0-1.7.4h0zM29 104.2c-.3-1.1-1-2-2-2.6-.7-.4-1.4-.6-2.2-.6-.3 0-.7.1-1 .2l-3.2 1.2-4.1 1.8-5.6 2.6c-3.6 1.4-7.1 3.3-10.3 5.5l-.6.2v10l.6-.3c1.3-.7 2.5-1.5 3.7-2.3 2.7-1.9 5.6-3.6 8.7-5 1.6-.7 3.2-1.3 4.8-2.1s3-1.4 4.5-2.1c1.2-.5 2.5-.9 3.8-1.4l1.1-.4c1.5-1 2.4-3 1.8-4.7h0zm-18.4 2.6l-.4.2.4-.2zm343 56.8c-.3-.8-1.1-1.2-1.9-.9-.1 0-.3.1-.4.1l-.4.1c-.7.1-1.5.3-2.2.6-.4.1-.8.3-1.2.4s-.9.3-1.3.4-1.1.1-1.7.2-1.3.2-2 .2l-2.1.1-2 .1c-.7.1-1.4.1-2 .1h-5.9c-1.3 0-2.4-.1-3.6-.1l-1-.1-1.5-.1h.4l-5.9-.1h-5.8l-3.4-.2c-1.1-.1-2.4-.1-3.7-.1h-1l-1.3-.1-2.9-.3-5.6-.6c-.9-.1-1.6-.1-2.5-.1l-2.2-.1h-.5c-1.1-.1-2.2-.1-3.3-.1l-4.4-.4c-1.4-.2-3-.3-4.5-.4l-1.6-.1-4.8-.4-2.5-.2c-.8-.1-1.8-.1-2.7-.1l-5.2-.4c-.9-.1-1.8-.1-2.7-.1s-1.7-.1-2.5-.1l-1.8-.1-6.2-.5-11.6-.7h.3l-2.9-.1h.4l-1.3-.1h.4-.9l-5.6-.5-2.8-.2c-.9-.1-2.1 0-3.2-.1l-1.6-.1-4.5-.3-5.4-.4-4.8-.3-5.2-.2-9.1-.2h-4.7c-1.5 0-2.9 0-4.4-.1l-1.3-.1h.4l-2.5-.1h-.2l-4.8-.1H162l-4.8.1-2.3.1-2.8.1-10.1.6-5.2.5-8.6 1-2.3.3-2 .3-4.5.6-4.5.7-4.4.5-9 1.4h-.1l-2.3.5-1.6.3-2.7.5-3.1.7c-1 .3-1.8.4-2.7.5l-2.5.4-5.7 1.4-5.2 1.3-5.3 1.4-2.9.6c-.7.1-1.4.3-2.1.5l-2.2.6-1.8.6c-.6.2-1.4.4-2.2.6l-4.6 1.3-4.8 1.2c-1.6.4-3 .9-4.5 1.4l-2.2.7-2.3.8-4 1.1c-1.3.3-2.7.9-4.1 1.3-.8.2-1.5.4-2.3.7l-2.4.8-4.3 1.5a12.2 12.2 0 0 0-1.7.7c-.6.3-1.4.6-2.1.9l-2 .9-2.1.8-8.9 3.5c-.8.2-1.5.5-2.3.7-.9.3-1.7.6-2.5 1l-2.1.9v3.3l1.3-.7c.8-.3 1.6-.6 2.3-1l4.8-1.6 4.7-1.7 4.2-1.8 1.9-.8 2.2-1c1.2-.6 2.5-1.1 3.7-1.5l4.4-1.5 2.2-.7 2.5-.7 4-1.2c1.4-.3 2.8-.8 4.1-1.2l4.5-1.4 2.2-.7 2.4-.7 4.8-1.2 4.6-1.3 2-.6c.7-.2 1.3-.5 2-.7.8-.3 1.7-.5 2.6-.7h-.1l2.7-.6 4.1-.9 4.2-1.1 8.1-2.1 3.4-.6 4.2-.8 5-1h.3l2.7-.7-.4.1 1-.2 4.9-.8 5-.6 5.1-.7 2.4-.4 2.6-.3 5-.6 4.8-.6 5.1-.5 5.2-.5 4.1-.2 4.4-.3 8.2-.4 3.8-.1h4.4l8.7.1 1.8.1 2.2.1h-.1l5.6.1h6l11.3.2 17 1.1 2.7.1 2.1.1 3.7.4 3.6.3h.9l2.3.1h-.4c.6 0 1.2.1 1.7.1h-.1l5.1.3 6 .4 3.3.3 3.3.2h-.4l3.4.2s2.2 0 3.3.1l5.9.4h-.1c3.6.2 7.2.6 10.8.8h-.4l.8.1c.9.1 1.8.2 2.7.2s1.9.1 2.8.2c2 .2 4 .3 6 .3h1.4c1 .1 1.9.1 2.9.2 3.4.2 6.7.7 10.1.9l2 .1h-.4c1.4.1 2.7.1 4.1.1h-.4c2.5.1 5 .3 7.6.3 1.3 0 2.5 0 3.8-.1s2.5 0 3.8.1h-.4l1.5.1 1 .1c1.1.1 2.2.1 3.3.1s1.9.1 2.9.1h2.9c2.1 0 4.2-.2 6.3-.3 1 0 2-.2 3-.3s2-.3 3-.5c.7-.2 1.4-.5 2.2-.7s1.3-.4 1.9-.5h0c.2 0 .4-.1.5-.1.2-.1.4-.1.5-.1.4-.1.7-.4.9-.8.3-.1.3-.6.2-1z"/><path d="M180.8 157.1h0zm39.6 1.5h0zm-42.3 1.4h0zm41.7 1.6h0zm12.2.7h0zm9.8.6h0zm61.3 1.3h0zm23.6.7h0zm-48.9.3h0zm47.2 2.6h0zm1 0h0zm-258.2 2.9l-.3.1.3-.1zm2.4 2.5l-.2.1.2-.1zm-.3 0h-.2.2zm29.2-6.6h0zm191.2-3.5h0zm-.5 0h-.3.3zm-188.3 0h0zm135.2-.5h-.2.2zm-3.7-.2h0zm3.5-2.8h0zm-59.1-2.7h0zm165.9-.3c-.5 0-.9 0-1.4.2l-.4.1c-.3 0-.5.1-.8.2l-2.8.3-4.3.3-5 .1H324l-1.2-.1h.2l-3.8-.3-4.4-.5-8.1-.8-4.6-.5-2.3-.2-2.4-.3-4.4-.4-4.7-.4-3.6-.4c-1.2-.2-2.5-.3-3.8-.4l-7.4-.7h.4l-5.2-.4-5.1-.6-5.7-.4-5.4-.4h.1l-5.4-.5-5.8-.4h.1-.6l-2.7-.2-2.9-.1c-2.3-.1-4.6-.4-6.9-.7l-3.2-.3-3.3-.2-7.2-.6c-2.4-.2-4.8-.1-7.2-.2-.9-.1-1.7-.1-2.6-.1h.4l-4.8-.2c-1.6 0-3 0-4.5-.1l-4.9-.1c-1.7 0-3.2-.1-4.8-.1s-3.4 0-5-.1h-2l-2.9.1-4.8.2-5.5.1-4.7.1-4.3.2c-1.4.1-3.2 0-4.7.1l-4.9.3-2.1.1-2.4.2-2.3.2-2.6.2-9.4 1c-1.5.1-3 .4-4.5.7l-5.5.9-4.9.7c-1.7.2-3.2.6-4.9.9l-4.8 1c-.9.2-1.7.3-2.6.4s-1.5.3-2.3.4-1.7.3-2.5.6c-1.3.4-2.6.6-3.9.9l-8.6 2 .3-.1-1.8.4-1.9.4c-.7.2-1.4.3-2.1.4l-1 .2c-.1 0-.2 0-.3.1l-3.1.7-2.3.4c-.8.1-1.6.4-2.5.6l-4.8 1.3-4.6 1.3-4.2 1.2-2.4.6-2.2.6-4.5 1.4-4.6 1.5c-1.6.4-3.1 1-4.6 1.4L33 172c-1.6.4-2.9.9-4.4 1.4l-4.3 1.4-4.5 1.4c-.8.2-1.5.5-2.3.7s-1.6.5-2.4.8l-4.2 1.4-2.1.9-2.2 1-4.6 1.7-2 .5v3.2l1-.3 4.4-1.5c1.5-.5 3-1.2 4.5-1.8l2.1-.8 2.2-.7 2-.6c.8-.3 1.7-.5 2.5-.7l2.3-.7 2.4-.7 4.4-1.4 4.2-1.4 4.8-1.4 4.3-1.2c1.5-.4 3.1-.9 4.6-1.5s3.1-1.1 4.7-1.6 2.9-.8 4.3-1.1l2.4-.6 2.2-.6 4.6-1.2 9.4-2.5 3.1-.6 1.5-.3h.1c.2 0 .3-.1.5-.1l.7-.1 1.6-.3 1.6-.4 2.3-.5h-.3l7.6-1.7 4.1-.9 3.9-.9.4-.1h-.4l3.5-.6c1.2-.2 2.6-.6 3.9-.9h-.2l3.4-.7 9.1-1.5 5.1-.8c1.4-.3 2.8-.5 4.3-.6l9.5-1 4.9-.4 4.7-.3 4.9-.2 4.7-.1 4.4-.2 4.8-.2 5.3-.1 5-.2h9.9l4 .1 4.4.1 7.8.2c.8.1 1.5.1 2.3.1l3.3.2 4.1.1 6.1.5 5.8.4 2.6.2 2.9.4 3.2.3 3.1.2 1.4.1 3.1.2h-.4c.4 0 .8 0 1.2.1h-.3l5.6.4 2.4.3 3.1.2h-.4l5.3.4 5.7.5 5.1.6 5.5.4h-.4c.8 0 1.5.1 2.3.2l2.3.2 5 .6 9.4.8 4.4.4 2.2.3 2.5.3 4.6.5c1.3.2 2.7.3 4 .4.5 0 1 .1 1.4.1s1.1.1 1.6.2l3.5.4 3.4.3 2.9.2h.3c1.7.1 3.5 0 5.2 0l2.8-.1c.9-.1 1.8 0 2.6-.1 1.5 0 3-.2 4.5-.3.6 0 1.2-.1 1.8-.2.5-.1 1-.1 1.4-.3.2 0 .4 0 .6-.1l.7-.1h.1c.8-.1 1.4-.8 1.4-1.6h0c-.2-1.3-.6-1.8-1.3-1.9zm-136.1-9h0z"/><path d="M203.2 150.3h0zm-104.3 4.6l-.3.1.3-.1zm12.1.7l-.3.1.3-.1zm-.3 0h0zM98.5 158l-.3.1.3-.1zm-16.3 3.8h0zm17.6-4h0zm141.9-7.8h-.2.2zm80.1-3.2c-.6-.1-1.2-.2-1.8-.1l-1.2-.1c-.7 0-1.5-.1-2.2-.1-2.2-.1-4.3 0-6.5-.1h0-.7l-6-.4-1.7-.1h.2-.8l-3.7-.4c-1.2-.2-2.4-.2-3.6-.3a27.13 27.13 0 0 1-3.8-.6c-1.3-.3-2.7-.4-4-.6l-2.2-.3-2.6-.4-4.8-.5-4.9-.7-4.5-.5-4.2-.3-.8-.1-7.1-.6-3.9-.3-4-.2-.9-.1-3-.2-2.8-.3-6.2-.3h.4l-2.8-.2h.4l-2.1-.1-3.6-.3-4.1-.4c-2.9-.3-5.8-.3-8.6-.4l-4.2-.3-4.1-.1-7.4-.2-4.7-.2h-4.4c-1.5 0-2.7-.1-4-.1h-4.1l-4.7.2h-4.4l-4.7.1c-1.4 0-2.8.1-4.1.3l-2.1.2-2.6.1-5 .2-4.6.2-2 .2c-.7.1-1.6.2-2.3.2l-5.1.5-2.4.2-2.3.2-4.1.5-2 .3-2.1.3-1.7.3-4.7.8-2.6.3-2.4.4c-.8.2-1.6.2-2.3.3l-2.3.4-4.5 1-.5.1h.1-.4l-1.8.4-2.2.4c-.1 0-.2 0-.3.1-1.2.2-2.4.5-3.6.8l-1.5.3-3.2.6c-1.1.2-2 .5-2.9.7h0c-1.2.2-2.3.5-3.5.8l-.7.1h-.1l-4.1.9-1.1.2-2.1.4-.6.1-3.6.8c-1.1.2-2.2.5-3.2.8l-7.3 1.8c-2.9.5-5.8 1.2-8.7 2l-4.2 1.4-1.9.7-2.2.7-4.3 1.3-4.3 1.2c-2.8.7-5.5 1.9-8.2 2.6l-2.1.5-2.4.7-4.5 1.2L16 167c-.6.2-1.3.4-1.9.7s-1.3.5-1.9.8l-3.7 1.6-4 1.4-4.4 1.4-.2.1v3.2l1.7-.6 2.1-.7c.8-.3 1.6-.5 2.4-.7l4.1-1.5 3.5-1.5 1.8-.7c.7-.3 1.4-.5 2.1-.7l2-.6 2.5-.7 2.2-.6 2.3-.7c1.5-.5 3-.8 4.5-1.2s2.8-.9 4.1-1.4l1.8-.6 2.3-.6 4.4-1.2 4.2-1.3 2-.6c.7-.2 1.4-.5 2.1-.8l4.1-1.4 4.4-1.1.5-.1c1.2-.2 2.4-.5 3.6-.8l4.1-1 4-1.1c1.1-.3 2.1-.5 3.2-.7h-.1.3l2-.4 2.2-.5.7-.1 4-.9 1-.2h.1l3.6-.8h-.1l4.2-1 3.2-.6 3.4-.7c.3-.1.6-.1.9-.2.2 0 .4-.1.6-.1l3-.6 1.1-.2h-.1c1.1-.2 2.2-.5 3.4-.8s2.5-.4 3.8-.6l2-.3 2.2-.4 2.2-.3 2.4-.4c1.4-.2 2.7-.5 4-.8l1.8-.3 2.1-.3 4.1-.6 2.1-.2 2.5-.2 5.1-.5 4.4-.5c1.5-.2 3-.1 4.4-.2l5-.2 2.4-.1c.8 0 1.6-.1 2.4-.2l3.8-.3 4.2-.1h4.6l4-.1 2.3-.1h5.8l4.4.1 3.4.1 3.8.2 3.5.1 3.2.1c1.1.1 2.3.1 3.4.1l4.9.3 4.7.1 6.2.5 6 .4h-.4l2 .1h-.4l8.2.4 2.8.3 3.5.2c1 .1 1.9.1 2.9.1l6.2.5 6.6.6h.2l1.1.1 9.1.9 5 .6c1.7.1 3.2.3 4.9.6l4.5.6 3.9.6 3.8.5 3.4.3 3.5.3h.2l1.6.1h1l5.7.4c1.2.1 2.4.1 3.6.1l3 .1h-.1 1.3c.6 0 1.2.1 1.8.1l1.1.1c.3 0 .5.1.8.1.8.1 1.6-.4 1.8-1.2.1-.4-.4-1-1.2-1.2z"/><path d="M229.8 139.2h0zm15.9.9h0zm-6 2.5h0zm23.5 1.8h0zm-162 1h-.2.2zm-.3.1h0zm-.2 0h0zm216.2 1h0zm-207.1.1h0zm-14.3 0h-.2.2zm5.3 1.9h-.2.2zm219.8 1.2h0zm-259.5 7.8l-.3.1.3-.1zm15-3.6h0zm2-.4l.4-.1-.4.1zm8.1-1.7h0zm230.4-2.3h0zm-231.4-.6h0zm216.3-.1h-.4.4zm.2-2.9h0zM105 144.6h0zm157.1-.3h-.3.3zm-15.2-4.1h0zm49.5-6.5c-.2-.3-.6-.6-1-.6-.3-.1-.7-.1-1-.1h-2.1l-2.5-.2c-.8-.1-1.7 0-2.6-.1h.4l-1.3-.1-4.7-.3-2.4-.1h.4-.6l-7.8-.7h.2l-7.4-.6-4-.4-2.3-.2-2.3-.1-4.4-.2-3.2-.1-5.3-.2-5.1-.2c-1.9 0-3.8 0-5.7-.1l-4.9-.1h-.1l-8.9-.3-2.2-.1-7.1-.2h-3.4c-1.3 0-2.6 0-3.8-.1l-3.7-.3c-1.3-.1-2.6 0-4-.1l-1.8-.1h-13.3c-1.1 0-2.2-.1-3.4-.1h-.5l-3.8.1c-1.3 0-2.3.1-3.4.2l-1.8.1c-.8.1-1.5.1-2.2.1l-8.3.4h-2.2l-2.4.1-4.5.3-3.9.4-4.5.4-5.7.7-6.2.8-3.1.3-3.2.4c-1 .1-2 .3-3 .5-.8.2-1.7.3-2.6.5h0-.1.1l-7.9 1.4-3.5.6-1.8.3c-.8.1-1.6.3-2.3.5l-2.2.5-2.9.6-2.2.6-4.5 1.1-8.1 1.9-2.2.6-2.3.6-9 2.2-3.7 1.1-4.1 1.4c-1.3.5-2.9.9-4.3 1.3l-4.5 1.4-1.7.5-2.2.6-4.1 1.1-3.8 1.2-7.8 2.6-3.9 1.4-1.8.6-2.4.7-3.5 1.2-3.5 1.3c-.6.2-1.2.4-1.9.5l-1.8.6c-1.2.4-2.3 1-3.5 1.5l-3.3 1.3-3.1 1v3.2l2.7-.9c1.3-.4 2.5-.9 3.7-1.4l3.6-1.5 1.7-.6 2.1-.6 3.9-1.4 3.8-1.4 2.2-.6 2-.6 3.9-1.4 7.8-2.6 3.8-1.3 4.1-1.1 2.1-.6c.7-.2 1.2-.4 1.8-.5l4.5-1.4 4.3-1.3 4.2-1.4c4.1-1.3 8.3-2.1 12.4-3.1l1.7-.4c.5-.1 1.1-.3 1.6-.4l3.2-.9c1.9-.5 3.9-.9 5.8-1.3l-.4.1c1.6-.3 3.2-.7 4.7-1.1l2.3-.7 2.3-.6c.7-.2 1.8-.4 2.7-.6l1.6-.3 3.7-.6 7.6-1.2c1.4-.2 2.8-.5 4.2-.8s2.6-.5 3.9-.7l2.2-.2 2.5-.3c1.5-.1 3.1-.3 4.6-.5l4.6-.6c1.6-.2 2.8-.4 4.3-.6s3.1-.3 4.6-.4l4-.4 4.3-.3 2.2-.1h2.4c1.5 0 2.9-.1 4.4-.1 1.3 0 2.6-.1 3.9-.2.7 0 1.5 0 2.2-.1s1.3-.1 1.9-.1c1.2-.1 2.3-.1 3.5-.2s2.4-.1 3.7-.1h15.3c1.3 0 2.8.1 4.1.1s2.6 0 3.9.1l4.1.3c1.4.1 2.9 0 4.3.1l8 .1 1.9.1c3 .2 6 .2 9 .3a209.33 209.33 0 0 0 11.2.3c1.8 0 3.5.1 5.3.1s3.5.1 5.3.2h-.2.2c1.6.1 3.3.1 4.9.2 1.1.1 2.1.1 3.2.2l4.6.3c1.3.1 2.7.3 4 .4l3.4.3 4.1.3h-.2c2.5.1 5 .5 7.6.7h-.1l1.7.1h-.4l2.3.1 4.5.3h-.1c1.1.1 2.3.1 3.4.1.9.1 1.8.1 2.7.2h1.9c.8.2 1.6-.4 1.7-1.2.3-.6.2-1 0-1.3h0z"/><path d="M215.6 128.9h0zm2.5.2h0zm-19.8 2.3h0zm16.1.4h0zm.2.1h0zm1.9 0h0zm8.7.4h0zm30.2 1h0zm-156.7 2.9l-.2.1.2-.1zm-.2 3.1h-.2.2zm188.8-3.6h0zM114 133.6h0zm133.4-.7h0zm-20.5-3.5h0zm43.1-6.1c-.3-.3-.7-.4-1.1-.4h-5.7l-1.6-.1c-.9-.1-1.9-.1-2.8-.1-1.7 0-3.4-.1-5-.1l-3.4-.3c-.9-.1-1.7-.1-2.6-.1-1.2-.1-2.3-.1-3.5-.1h0-.8l-1.2-.1h-1l-4.2-.1-1.1-.1-4.8-.5c-1.6-.2-3.4-.2-5-.2h.4l-6.4-.3c-2.1-.1-4.1 0-6.2-.1l-1.9-.1h.2-.3l-4.3-.2h-4.3l-4.6-.2-4.1-.1c-1-.1-2-.1-2.9-.1h-.6l-3.6.1h-4.2c-1.2 0-2.5-.1-3.7-.1l-8 .3-3.8.2c-1.2 0-2.4.1-3.6.2h-1.9l-2.2.1-3.5.3-3.5.4-3.6.3-3.5.3-1.8.1c-.6 0-1.1.1-1.6.2l-7.5.8-3.6.5c-1.2.2-2.6.3-3.8.4l-7.2.9c-1.3.2-2.6.3-3.9.4l-3.3.2-3.7.4c-1.2.1-2.5.3-3.7.5l-6.8 1.2-3.3.5-3.6.7.4-.1-6.3 1.4.4-.1-3.5.6c-1.2.2-2.5.4-3.7.8l-6 1.5-2.7.6-2.8.7H68c-.1 0-.2 0-.3.1h-.1l-3.2.7c-1 .2-2.4.7-3.5 1l-7.6 2-3.8.9-3.6 1-3.7 1.1c-1.3.3-2.4.7-3.7 1.1l-4.2 1.2-.9.2h-.3l-3.9 1c-1.2.4-2.5.6-3.7 1l-3.3 1.1-3.8 1.2-3.3 1.2-3.1 1.2c-1 .3-2.3.9-3.4 1.3l-1.8.6c-.6.2-1.2.5-1.8.8l-1.5.7L.7 155c-.2.1-.3.1-.5.2v3.2l1.5-.6 4.1-1.9c.5-.2 1-.5 1.5-.7l1.9-.7 3.4-1.3 6.4-2.4 1.8-.6 1.9-.6 3.4-1.2c1.1-.4 2.5-.6 3.7-1s2.5-.7 3.7-1h.5c2.5-.5 4.9-1.3 7.4-2l3.6-1.1 3.7-1.1 3.8-.9 3.7-.9 3.9-1c1.3-.3 2.3-.7 3.5-1l4.4-1.1.3-.1-.2.1.6-.1.5-.1 4.6-1.1 8.2-2.1 2.8-.5 3.2-.6 2.3-.5 2.6-.6h-.2l1.8-.4 6.8-1.1 7.1-1.2 14.8-1.6c1.2-.2 2.4-.3 3.6-.4l3.5-.3 7.8-.9 3.6-.3 3.3-.4 3.7-.3 3.3-.3 3.7-.3 3.4-.4 4-.2 3.6-.1 3.9-.2 4.3-.3 3.9-.2c1.3-.1 2.4 0 3.6 0l2.9.1h3l5.4-.1 8.2.3 4.2.1h4l2.7.1 3.2.2h3.2l3.1.1 3 .1 4.4.2 7 .6 4.7.2h1.2l1.5.1 2.9.1 2.8.1h.9l2.4.2c1 .1 2 .1 3 .1l2.6.1c.9.1 1.7 0 2.5 0l3.8.2 4.3-.1c.8-.1 1.4-.8 1.4-1.6 0-.4-.2-.8-.5-1l-.2.4zm-75.4-3.1h0z"/><path d="M194.8 120.2h0zm47.3 1.8h0zm.3 0h0zm.9.1h0zm6.8.2h0zm-57 .8h0zm57.5 2.3h0zM33.4 146.8h0-.2.2zm-.9-2.8l.3-.1-.3.1z"/><path d="M32.8 143.9h0zm.1 0h0zm34.9-6.3h0zm174-12.6h0zm-29.7-4.4h0zM44.4 132.1h0a3.08 3.08 0 0 0-1.3.3c-.4.1-.7.2-1.1.4l-2 .7-12.3 4.1-4 1.3-3.8 1.2-2 .7-1.9.8c-.6.3-1.3.5-2 .7s-1.4.5-2.2.8l-1.9.8-1.9.5-3.7 1.5-3.5 1.5-.8.4v3.3l.7-.3 3.8-1.7 4.3-1.8 2.2-1 2.2-.9 4.1-1.5c.6-.2 1.3-.5 1.9-.8s1.3-.4 1.9-.6l3.8-1.2 4-1.2 1.9-.6 2-.6 6-2 2.8-.9c.9-.4 1.8-.7 2.7-.9h.1c.8-.1 1.4-.8 1.4-1.6.1-.8-.6-1.4-1.4-1.4z"/><path d="M44.3 135.1h0zm152.1-21.5l-8.8.2h.4l-9.7-.4-4.8.2-4.4.2h-9.4l-4.5.1-9.2.2-2.3.1c-.7 0-1.6.2-2.3.3l-4.5.6-4.7.4-6.6.6c-1.1 0-2.3.1-3.4.4l-3.3.7c-.4.1-.7.4-.9.8-.4.7-.1 1.6.7 2h0c.4.2.8.2 1.2.1l3-.7c1.4-.2 2.9-.2 4.3-.3l4.6-.4 4.7-.4 2.4-.3 2.2-.3 4.6-.5 13.7-.3c1.4-.1 3.1-.1 4.7 0s3.2 0 4.8 0l9.2-.4 3.7.1c1.2.1 2.4.1 3.6.1h-.4l5 .2 4.7-.2 4.6-.3c1.6-.1 3 0 4.5 0h.5l6.8.2h3l3.2.1 3.6.3 2.5.1h2.9l2.6.2c.4 0 .8.1 1.2.1.6 0 1.1.1 1.7.1h2.4c.4 0 .7-.2 1-.5s.4-.7.4-1.1-.2-.7-.5-1-.7-.4-1.1-.4h-2.8l-5.5-.4h.3c-1.3-.1-2.6-.1-3.8-.1s-2.5-.2-3.8-.3l-4.8-.2h-4c-1.3 0-2.9-.1-4.4-.1s-2.9-.1-4.4-.1h-.2l-4.1.2-.1.1zm25.7.6h0zm9.8.5h0zm-15 2h0zm.3 0h0zm8.1.5h0zm.9 0h0zm-.2-3h0zm-61.1-8l-4.7.5-4.7.4-4.8.3-2.3.2c-.8.1-1.4.1-2.1.1l-2.8.2c-.8.1-1.4.8-1.4 1.6.1.8.8 1.4 1.6 1.4h0c1.5-.2 3-.2 4.6-.3l4.7-.3 2.3-.1 2.3-.2 4.8-.5c1.5-.2 3.1-.3 4.7-.3l4.5.2c1.5.1 3 .1 4.5 0h5.1l1 .1h1.7c.8.1 1.7.1 2.5.1 2.5.2 5 .3 7.5.2h7.5c.6 0 1.3.1 1.9.1h1.4l2.6.1c.5 0 1 .1 1.5.1.8-.1 1.4-.8 1.4-1.6-.1-.8-.8-1.4-1.6-1.4h-.5c-1-.1-2-.1-3-.1s-1.7 0-2.6-.1h-1.3c-1.1-.1-2.2-.1-3.3-.1l-3.3.1c-1.1.1-2.1.1-3.2.1s-2-.1-3-.1h0l-3.9-.2c-.3 0-.6-.1-1 0h-.4l-2.4-.2c-.8-.1-1.4 0-2.2 0h-4.4c-1.4 0-3.1 0-4.6-.1-.9 0-1.7-.1-2.6-.1-.9-.1-1.5-.1-2-.1h0zm36.3.6h0zm.8 0h0zM27.4 131.4c-.2-.6-.8-1-1.4-1-.2 0-.3 0-.5.1-.3.1-.6.2-.9.2-.3.1-.6.2-.9.2l-1.1.2h-.2l-1.4.3-4.4 1c-1.4.4-2.8 1-4.2 1.6l-4.1 1.7-2.1.9-2.2 1c-.5.2-.9.5-1.4.7l-1.4.6c-.4.2-.8.4-1.2.5v3.3l.2-.1 8.6-3.8c1.5-.5 2.7-1.1 4.1-1.7 2-.9 4.1-1.7 6.2-2.2 1.3-.2 2.5-.5 3.8-.8l.3-.1c.6-.1 1.1-.2 1.7-.4s1-.2 1.5-.4c.9-.2 1.3-1 1-1.8z"/><path d="M22.3 131.3h0zm-3.1-7.8c-.1-.4-.4-.7-.8-.9-.2-.1-.5-.1-.7-.2-.2 0-.3 0-.5.1l-3.6 1.8-8.3 3.6-5.3 2.6v3.3l4-1.9 4.2-1.9 4.2-1.7 3.2-1.5 2.8-1.4c.4-.1.7-.4.9-.8 0-.3.1-.7-.1-1.1z"/><path d="M18.4 125.4l-.2.1.2-.1zm334.2-64.7c-.4.3-.6.7-.6 1.2s.1.9.4 1.3c.3.3.7.6 1.2.6l1 .2 2.5.7c.8.3 1.6.7 2.4 1.1l1.8.9 7 3.9 3.4 2.1c1 .6 2 1.3 3 2.1l.2.2c.6.7 1.7.8 2.5.2.7-.6.8-1.7.2-2.5-.6-.7-1.3-1.2-2-1.7l-1.8-1.2-3.8-2.3-3.9-2.2-4-2.1-3.6-1.7c-1.4-.5-2.9-.9-4.4-1.1h-.2c-.5-.1-.9 0-1.3.3h0zm8.7 6l.3.2-.3-.2z"/><path d="M340.8 71.3c-.3.9.2 1.9 1.1 2.2l3.8 1.3 1.8.7 1.6.8 6.5 3.1 5 2.5 4.4 2.6 4.3 3c.8.6 1.9.4 2.4-.4.6-.8.4-1.9-.4-2.4l-2.5-1.7-2.4-1.7c-1.7-1.1-3.4-2.1-5.3-3l-4.3-2.2-4.5-2.1-2.3-1.1-2.1-1-5-1.8c-.8-.2-1.8.3-2.1 1.2h0zm20.3 7.1l.2.1-.2-.1zm-.4 3.7l.1.1-.1-.1zm-6.6 7.7c-.5.8-.3 1.9.5 2.4l6.5 3.8c2 1.2 3.8 2.7 5.8 3.9.4.3.8.4 1.3.3s.9-.3 1.1-.7c.5-.8.3-1.9-.5-2.4-2-1.1-3.8-2.6-5.7-3.8l-6.6-3.9a1.69 1.69 0 0 0-1-.3c-.6 0-1.1.2-1.4.7h0z"/><path d="M355.6 110.3c-.5.1-.9.4-1.1.8-.5.8-.3 1.9.4 2.4h0c3.3 1.7 6.5 3.7 9.5 5.8.8.6 1.9.4 2.5-.5.6-.8.4-1.9-.5-2.4-3-2.2-6.2-4.1-9.5-5.8a1.69 1.69 0 0 0-1-.3h-.3zM47.5 43.8l-4.3.5-4.4.8c-3 .9-5.9 2.1-8.6 3.7-.9.4-1.3 1.5-.9 2.3.4.9 1.5 1.3 2.4.9h0c2.2-1.2 4.5-2.2 6.9-3.1l4.6-1c1.7-.3 3.3-.5 5-.6.5-.1.9-.3 1.1-.7.3-.4.3-.8.3-1.3-.1-.5-.3-.9-.7-1.1a1.69 1.69 0 0 0-1-.3l-.4-.1zm-5.4 11L37.7 56l-4.8 1.5-3.3.9c-.5.1-.9.4-1.1.7-.5.8-.3 1.9.4 2.4h0c.4.3.8.4 1.3.3l3.6-1c1.2-.3 2.2-.7 3.2-1.1 2.1-.7 4.3-1.2 6.5-1.7s4.4-.8 6.6-1h1.6c1 .1 1.9-.6 1.9-1.6s-.6-1.7-1.6-1.8h-.8a46.31 46.31 0 0 0-9.1 1.2h0zm-4.6 16.5c-1.5.4-2.9 1-4.2 1.7l-3.6 2c-.9.4-1.2 1.5-.9 2.3.4.9 1.5 1.2 2.3.8 2.2-1.3 4.6-2.5 7-3.4.5-.1.9-.4 1.1-.7.5-.8.3-1.9-.4-2.4h0a1.69 1.69 0 0 0-1-.3h-.3zm.4 3.6h0zm1.2 15.8c-2.5 1-4.8 2.2-7.3 3.4-.9.4-1.3 1.4-.9 2.3s1.4 1.3 2.3.9h.1l7.2-3.3c.9-.4 1.2-1.5.8-2.3a1.78 1.78 0 0 0-1.6-1c-.1-.2-.4-.1-.6 0h0z"/><path d="M127.6 70.5l.4 3.6c0 .5-.2.8-.7.9l-17.1 1.8c-.5 0-.8-.2-.8-.7l-3.7-34.6c0-.5.2-.8.6-.9l4.3-.5c.5 0 .8.2.9.7l3.2 30.3 12-1.3c.5-.1.9.2.9.7zm4.1-30.1c-.1-1.8 1.2-3.3 3.1-3.4 1.8-.1 3.3 1.3 3.4 3 .1 1.8-1.2 3.3-3 3.4-2 .2-3.4-1.2-3.5-3zm2.2 33.4l-1.3-23.9c0-.5.2-.8.7-.8l4.2-.2c.5 0 .7.3.8.7l1.3 23.9c0 .5-.2.8-.7.8l-4.2.2c-.5 0-.8-.3-.8-.7zm12.7-.8l.1-23.9c0-.5.3-.8.7-.8h4c.5 0 .7.2.7.8l.2 3.1c1.5-2.6 4-4.6 8-4.6 5.4 0 9.2 3.8 9.2 10.5V73c0 .5-.3.8-.8.8h-4.1c-.5 0-.7-.3-.7-.8V59.2c0-4-2-6.3-5.5-6.3-3.6 0-6.1 2.3-6.1 6.3V73c0 .5-.3.8-.7.8h-4.2c-.6 0-.8-.3-.8-.8zm29.8.4l2.9-35.5c0-.5.3-.8.8-.7l4.1.3c.5 0 .7.4.7.8L183.1 61 194 50.5c.3-.3.6-.4.9-.3l4.9.4c.6.1.7.5.2.9l-9.8 9.2 9.2 14.6c.3.5.1.9-.5.8l-4.5-.4c-.4 0-.7-.2-.9-.5l-7-11-4.1 3.8-.5 5.9c0 .5-.3.8-.8.7l-4.1-.3c-.4-.1-.6-.4-.6-.9zm29.1-9.5c1.2-7.4 7.2-12.3 14.9-11 7.5 1.2 11 7.6 10 13.9-.4 2.2-1 3.2-2.9 2.9L210.6 67c0 4.1 2.6 7.3 7.6 8.1 2.5.4 4.6.1 6.8-.9.3-.2.6-.1.8.3l1.1 2.2c.2.5.1.8-.4 1.1-2.6 1.8-6 2.3-9.5 1.7-8.3-1.4-12.7-8.1-11.5-15.6zm20 1.3c.4-4.2-2-7.1-5.9-7.7-4-.6-7.3 1.3-8.5 5.4l14.4 2.3zm10 3.8c1.8-7.3 8.1-11.8 15.1-10 3.9 1 6.3 3.3 7.4 6.4l3.5-14.3c.1-.5.4-.7.9-.6l4 1c.5.1.6.5.5.9L258.5 87c-.1.5-.4.7-.9.6l-3.7-.9c-.5-.1-.6-.5-.5-.9l.7-3.3c-2.5 2.4-5.8 3.5-9.9 2.5-7.1-1.8-10.5-8.6-8.7-16zm20.4 5.1c1.2-4.8-1.1-8.8-5.5-9.9s-8.5 1.3-9.6 6.1c-1.2 4.8 1.3 8.8 5.7 9.9s8.2-1.4 9.4-6.1zm9.7 15.2L276 56.1c.1-.4.5-.7.9-.5l4.1 1.3c.4.1.7.5.5 1l-10.4 33.2c-.1.4-.5.7-1 .5l-4.1-1.3c-.4-.2-.5-.5-.4-1zm12.8 4l8.5-22.4c.2-.4.5-.6 1-.5l3.7 1.4c.4.2.6.5.4 1l-.9 3c2.3-1.9 5.4-2.9 9.1-1.4 5.1 1.9 7.3 6.8 4.9 13.1l-5.3 13.9c-.2.4-.6.6-1 .5l-3.8-1.5c-.4-.2-.6-.5-.4-1l4.9-12.9c1.4-3.7.4-6.6-3-7.9s-6.5 0-7.9 3.7l-4.9 12.9c-.2.4-.5.6-1 .5l-3.9-1.5c-.4-.1-.6-.5-.4-.9z" enable-background="new"/></svg>