<svg xmlns="http://www.w3.org/2000/svg" viewBox="0 0 240.9 263.2" xmlns:v="https://vecta.io/nano"><path d="M114.2 43.5c-.3 0-.7 0-1 .1l-1.6.2-.4.1-3.8.7-1.9.3-2.2.4c-1 .2-2.1.5-3.1.8l-.8.3-2.7 1-1.3.5-1.6.5-.2.1-1.7.5-1.6.6-1.5.6-.4.2c-.4.1-.8.2-1.2.4l-.9.2-.9.3h-.2c-1.5.5-2.9 1-4.3 1.7l-1 .5c-.4.2-.8.4-1.2.5l-.5.2-1.7.7c-.6.2-1.3.7-2.1 1.2l-.3.2c-.2.2-.5.3-.7.4l-1.2.6-.2.2-1.7.9c-.3.2-.7.4-1 .7l-1.2.6c-.7.4-1.3.8-1.9 1.3l-.2.1-.5.4-1.4 1-1.7 1.3c-.7.5-1.3 1.1-1.8 1.6-.2.2-.4.4-.6.5l-1.1 1-1.5 1.6-.2.2-1.5 1.8-2.8 3.4c-.4.5-1 1.4-1.4 2l-1.2 1.8-.1.1-1.2 2-.9 1.6c-.1.2-.3.5-.4.7l-1.3 2.4c-.5.9-.9 1.8-1.3 2.7l-.9 1.9c-.2.3-.3.6-.5.9l-1.4 2.8c-.2.6-.5 1.2-.8 1.9-.1.4-.3.7-.4 1.1l-.4.9c0 .1-.1.2-.1.3s-.2.5-.3.8c-.2.4-.3.8-.4 1.2a13.14 13.14 0 0 1-.5 1.5l-.2.6c-.2.7-.4 1.5-.5 2.2 0 .2-.1.3-.1.5 0 .1 0 .3-.1.4s-.1.4-.1.5-.1.3-.1.5l-.6 3.4c-.3 1.3-.5 2.6-.7 3.9-.2 1.4-.3 2.6-.3 3.8v1.5l-.1 2.5v8.1l.1 2.4v.3c0 .7.1 1.5.2 2.2l.3 2c.1.5.2 1 .4 1.5l.2.9c.2.6.3 1.2.4 1.8l.1.4c.1.7.3 1.4.5 2.2s.3 1.5.6 2.3.5 1.5.7 2.2l.4 1.1.3.8c.3.8.6 1.6 1 2.3.1.2.3.5.4.7l.2.3.3.6.3.5 1.1 2.1.8 1.7 1 2c.7 1.4 1.5 2.7 2.4 3.9l1.4 1.6 1.4 1.5.6.9c.2.3.3.5.4.7l.3.5c.5.9 1 1.7 1.6 2.5.3.4.6.7.9 1 .4.4.8.7 1.3 1.1l2.3 1.8c.5.4 1 .9 1.4 1.4s1.2 1.1 1.7 1.6 1.3 1.1 1.9 1.7h.1c.3.2.5.5.8.7l1 .8 1.3.9.7.5 1.9 1.4c.2.1.4.3.6.5l1.1.9 1.9 1.2 1.9 1.1 1 .7c.3.2.6.5 1 .7l3.4 2 .1.1.3.2 1 .5.3.1c.2.1.4.2.7.3.6.3 1.3.5 2 .7l.8.2c.5.1.9.3 1.4.4l.8.3h.2l.8.2.3.1 2.8.7 1.5.3 2.1.5c.4.1.9.1 1.3.2l.8.1 1.8.3c.6.1 1.2.3 1.8.4s1.4.3 2.1.5c1 .2 1.8.4 2.6.4s1.6.2 2.3.2l4.2.3h1l1.8.1h5.6c.3 0 .7 0 1-.1h.6l1.5-.1h.5c.4 0 .8-.1 1.2-.1l1.6-.3c.4-.1.8-.2 1.3-.2.7 0 1.2-.1 1.7-.1.6-.1 1.1-.2 1.7-.4h0l.6-.1c.3-.1.7-.2 1-.2.2 0 .4-.1.7-.1h.1c.2 0 .3 0 .5-.1h.4c.2 0 .4 0 .6-.1s.6 0 .8-.1c.5-.1 1-.1 1.4-.2.5-.1.9-.2 1.3-.4l.2-.1 2.1-.6 2.6-.9 3.5-1.4.2-.1 2.6-1c.7-.3 1.3-.7 2-1l.6-.3 2.3-1.2.9-.5.4-.2 1.3-.8.2-.2h-.1l-.1.1c1.2-.8 2.4-1.7 3.5-2.7l3.6-2.8 3.5-2.7.4-.4 2.9-2.5 1.4-1.4.3-.2.9-.9c.3-.3.5-.6.8-.8l3.2-3.5 2.1-2.7.5-.6c.5-.6 1-1.3 1.5-2.1.2-.2.3-.5.5-.7a9.13 9.13 0 0 0 .8-1.3l1.7-3 .7-1.3 2-4.1 1.6-3.8.9-2.1c.2-.5.3-1 .5-1.5l.1-.5c.4-1.1.7-2.2 1-3.3l.1-.5c.1-.3.2-.7.2-1s.2-.9.3-1.3l.1-.6v.1l.3-1.7.1-.6.1-.4.3-1.8.5-4 .1-.7c.2-1.2.3-2.6.5-4.4.1-.9.1-1.6.1-2.3v-8.7c0-.8-.1-1.6-.2-2.4l-.6-4.9-.3-1.9-.1-.4c0-.2-.1-.4-.1-.6s-.1-.3-.1-.5v-.1c-.1-.3-.1-.7-.2-1-.2-.7-.4-1.3-.7-1.9l-.6-1.2-.1-.3c-.2-.5-.5-1-.7-1.4l-.8-1.7c-.2-.4-.4-.7-.7-1.1l-.4-.7-.6-1.1-.4-.8c-.1-.3-.3-.5-.4-.8s-.4-.7-.6-1l-.9-1.4-.2-.3c-.4-.6-.8-1.3-1.1-1.9l-.9-1.6-.1-.2-1.2-2-.4-.6a9.13 9.13 0 0 1-.8-1.3l-.7-1.1c-.2-.2-.3-.5-.5-.7l-.5-.8c-.2-.4-.5-.8-.8-1.2l-1.6-2.2c-.3-.4-.6-.8-1-1.1l-.7-.7c-.2-.2-.4-.4-.5-.7s-.5-.6-.6-.9l-.4-.5-.2-.3c-.2-.2-.4-.5-.6-.7l-.1-.1-1.5-1.8c-.3-.3-.6-.7-.8-1l-2.1-2.4-1.4-1.4-.8-.9-.9-.2-1.6-1.5-.6-.5-.2-.2-.9-.6-.5-.4c-.3-.3-.7-.5-1-.8l-1-1h-.1c-.5-.5-1.1-.9-1.7-1.3l-1.1-.7-.7-.4-3.3-1.9-.3-.2c-.8-.5-1.6-.9-2.4-1.2l-1.4-.7c-.2-.1-.5-.2-.7-.3l-.3-.1c-.6-.3-1.2-.5-1.9-.8s-1.5-.5-2.3-.8l-.2-.1-1.6-.4-.9-.3-.7-.2-.6-.2-1.5-.3-.4-.1-1.2-.4-1.4-.3-.5-.1h-.3l-.7-.2c-.9-.2-1.8-.5-2.8-.6l-2-.3c-.3-.1-.6-.1-.9-.2l-.8-.1-2.1-.4-1.9-.2-3.2-.2-.7-.1-4.1-.3h-1.4l.1-.1zM87.1 93.7c-.7 0-1.4-.1-2.1-.2-.3-.1-.7-.2-1.1-.3l-.3-.1c-.5-.1-1-.3-1.5-.6l-.4-.2c-.2-.1-.4-.2-.5-.4-.3-.3-.7-.7-.9-1.1-.4-.6-.7-1.2-.9-1.8-.1-.3-.2-.7-.2-1 0-.8.1-1.7.2-2.5l.3-1c.1-.3.3-.6.4-.9s.4-.7.7-1.1l.3-.4c.3-.5.6-1 1-1.4.3-.3.6-.5 1-.8l.6-.3c.2-.1.3-.1.5-.2l.3-.1c.3-.1.6-.2.9-.4l.7-.3 1.5-.3c0 .1 0 .1.1.2.1.3.4.5.7.6h.1c.2 0 .4.1.6.2l.3.2c.2.1.5.3.7.4l.4.1c.2.1.4.1.6.2l1 .5.7.7c.1.1.1.2.2.3s.1.3.2.4c.2.2.3.5.5.7v.2c.2.4.4.7.6 1.2.2.6.4 1.3.4 1.9 0 .3 0 .6-.1.9-.1.5-.3 1-.6 1.5-.2.3-.3.7-.5 1s-.4.5-.5.7c-.2.5-.5.9-.9 1.3s-.9.8-1.4 1.2c-.3.2-.7.3-1 .5l-2.4.6-.2-.1zm40.6 12.7l.7-.4.3-.2.2-.1c.4-.3.9-.5 1.4-.7l.4-.2c.3-.1.6-.3.9-.4s.7-.2 1-.2c.4-.1.7-.1 1.1-.2.7-.2 1.4-.3 2.2-.4h.5c.6 0 1.2 0 1.9.1l2.5.3c.3.1.6.2.9.2s.6.2.9.4l1.6.8c.2.1.4.2.6.4s.5.3.7.4.7.4 1.1.5l.1.1.5.2c.2.1.4.3.6.4l.3.2.8.5h.1l1.7 1.2c.4.4.8.9 1.2 1.4l.5.8c.3.5.6 1 .8 1.6l.6 1.4c.2.4.2.7.3 1.1v.1l.2.6c.1.2.1.5.2.7l.3 1.5v.1l.2 1.4.2 1.6c.1.5.1.9.1 1.3l.3 2.8c0 .5.1 1.1.1 1.6v3.2l-.1 1.6c0 .5 0 .9-.1 1.4l-.2 5-.1 1.5-.3 6.1c0 .5 0 1-.1 1.6v.2c0 .4 0 .9-.1 1.3v.3c-.1.4-.1.9-.2 1.4s-.1.6-.1 1v.6l-.1 1.6-.1.7v.1c-.1.5-.1.9-.2 1.4h-1.6l-.8-.1h-1.5c-.4 0-.9 0-1.3.1h-.2c-.4 0-.9 0-1.3.1l-.4.1c-.3 0-.5.1-.8.1h-.8l-.6-.1-.5-.1c-.3 0-.6 0-.9-.1h-.7v-.5l-.1-.6c0-.2-.1-.4-.1-.5s-.1-.6-.1-.9v-.8c-.1-.4-.1-.8-.1-1.1v-.8l-.1-2.2v-2.7l.1-2.2.1-.6c.1-.6.1-1.3.1-2l-.1-2.7v-1.9c0-.9-.1-1.7-.2-2.4-.2-1.3-.3-2.7-.4-4.2v-3c0-.6 0-1.2-.1-1.8 0-.3-.1-.6-.1-1 0-.2-.1-.3-.1-.4v-.2c-.1-.4-.1-.8-.2-1.2l-.3-1c-.1-.2-.1-.3-.2-.5l-.1-.2-.3-.7c-.1-.2-.2-.4-.3-.7-.2-.5-.5-1-.9-1.5l-.3-.3-.1-.2-.5-.5-1.3-1.2-1.6-.9c-.6-.3-1.2-.4-1.8-.5-.3 0-.6-.1-.9-.1h-.6c-.6 0-1.2.1-1.8.2s-1.1.3-1.7.5c-.5.2-.9.3-1.3.6-1 .5-1.9 1.2-2.7 2-.4.4-.7.9-1.1 1.3-.3.5-.6 1-.8 1.5l-.6 1.4c-.1.3-.2.6-.2.8s-.1.4-.1.6c-.3 1.1-.5 2.2-.7 3.3l-.2 2.5v.7l-.3 3.1c0 .5-.1.9-.2 1.4l-.2 1.6-.2 3.1v3.2l.1 3.1v3.3l-.1 2.3v3c0 .5.1 1 .1 1.4h0c-.3 0-.7 0-1.2.1-.3 0-.6 0-.9.1l-.9.1h-1l-1 .5h-1c-.7 0-1.3 0-2-.1l-1.4-.1h-1c-.8 0-1.7 0-2.5-.1V154c0-.6 0-1.2-.1-1.8v-2.7c0-.4-.1-.9-.1-1.3v-.6c0-.3 0-.7-.1-1-.1-.5-.1-1-.1-1.4v-2.9l-.1-2.5v-.9l-.1-3c0-.6 0-1.2.1-1.7s0-1 .1-1.5 0-1 0-1.5v-1.4l.1-3.1-.1-3.1v-6.3l-.1-3v-8c0-.5.1-.9.1-1.4h6.3c.2 0 .8-.1 1.1-.1l.8-.1h4.8c.3 0 .5 0 .8-.1 0 .2 0 .5.1.7s.1.5.1.7.1.6.1 1 .1.8.1 1.1v2.9a1.39 1.39 0 0 0 .2 1.1c.2.2.5.4.8.4h.2c.2 0 .4-.1.6-.3l.5-.5c.2-.2.3-.4.5-.6l.3-.6c.1-.2.3-.4.4-.7l.1-.1c.2-.2.3-.5.6-.7s.3-.3.5-.5l.1-.1c.2-.2.3-.3.5-.4l.1-.1 1.5-1.1h.1l-.2-.4zm-39.5-.7h.4c.8 0 1.6-.1 2.3-.2l.5-.1c.4-.1.9-.1 1.4-.2h.3c0 .3 0 .5.1.8a.9.9 0 0 0 .1.5c.1.2 0 .2 0 .3v2.5l-.1 2.9c-.1.9-.1 1.9-.1 2.9s.1 2.1.2 3.1v2.8l.1 2.6v5c0 .6 0 1.3-.1 1.9 0 .4-.1.8-.1 1.1v.4l-.1 1.5-.1.7c0 .3-.1.6-.1.9s-.1.8-.1 1.2v.4l-.1.6-.4 5.8-.3 2.6c0 .3-.1.6-.2.9l-.1.4c-.1.3-.1.6-.2.9v.4l-.3 2.5.1 2.7v.6h-.2l-.6.1h-.8c-.2 0-.4 0-.7.1l-1 .2-.4.1c-.3.1-.5.1-.8.1-.7 0-1.3.1-1.9.2l-1 .2c-.3.1-.6.1-1 .1h-1.3c-.6 0-1.1.1-1.7.1h-.3c-.3 0-.5 0-.8-.1h0v-.1c0-.1-.1-.2-.1-.3 0-.6-.1-1.2-.1-1.9v-1.3c0-.5 0-1 .1-1.5l.2-3c.1-1 .1-2 .1-3v-2.9l.1-2.3v-.6l.2-3 .3-6.4v-2.3l.1-2.3c.1-.8.1-1.6 0-2.5s-.1-1.6-.1-2.3v-3c0-1 .1-2 0-3 0-.6 0-1.1-.1-1.7v-.5c0-.2-.1-.6-.1-.9s-.1-.6-.1-.8l-.1-.5c-.1-.4-.1-.9-.2-1.4l-.2-2.1v-.5l.1.1c.2.2.4.4.7.4.7 0 1.5-.1 2.2-.2l.5-.1c.7-.1 1.4-.2 2.4-.2h3.7l-.2.6zM45.8 54.6c-.3.1-.6.3-.9.6-.4.3-.7.7-1 1.1s-.5.8-.7 1.3-.3 1.1-.4 1.6v.6c0 .3 0 .5.1.8l.3.9c.3.5.6 1 1.1 1.3l.8.5c.4.2.8.3 1.2.4.3.1.6.1.9.2.4.1.9.1 1.3 0 .3-.1.6-.1.9-.3.3-.1.5-.3.7-.4.1-.1.2-.1.3-.2l.6-.6c.1-.1.2-.3.3-.4.6-.7 1.1-1.5 1.4-2.4l.2-.7c0-.2.1-.3.1-.5v-.9c-.1-.5-.3-.9-.6-1.3-.3-.3-.6-.6-.9-.8-.4-.3-.9-.5-1.4-.7l-1.5-.3c-.4-.1-.8-.1-1.2-.2h-.2c-.6.1-1 .2-1.4.4h0zM64 41.7c-.7.1-1.3.2-1.9.5-.5.2-1 .4-1.4.7-.3.2-.6.4-.8.6-.3.2-.5.5-.7.8l-.4.6c-.2.3-.3.6-.4.9-.4 1-.6 2.1-.6 3.2 0 .6.1 1.2.3 1.8.1.3.3.6.5.9s.4.6.6.8l.6.6c.2.1.4.3.5.3l1.2.6c.2.2.4.3.6.4.5.3 1.1.5 1.7.7s1.2.3 1.9.3c.4 0 .7 0 1.1-.1l1.1-.3.7-.3c.3-.2.6-.3.9-.5.5-.3.9-.7 1.2-1.2.1-.2.3-.3.4-.5.2-.3.4-.6.5-.9.1-.2.2-.4.2-.7.1-.4.2-.8.2-1.1.1-.5.2-1 .2-1.5v-1c0-.3-.1-.5-.1-.8-.1-.6-.3-1.1-.5-1.6-.2-.4-.4-.8-.7-1.2-.2-.3-.5-.5-.8-.7s-.6-.4-.9-.5c-.5-.2-1-.4-1.5-.5l-1.8-.3c-.3 0-.7-.1-1-.1s-.6.1-.9.1zm2.2 7h0zm0 0h0zm-.1.4h0zm133.1 102.3c-.5.1-.9.3-1.2.6-.4.3-.7.6-.9.9-.3.3-.6.7-.9 1.1-.2.3-.4.7-.5 1.1-.1.3-.1.7-.1 1-.1.8.2 1.6.8 2.1.2.2.5.4.8.6a.76.76 0 0 0 .4.2l.6.3c.2.1.5.1.7.1.3 0 .7 0 1-.1.2 0 .3-.1.5-.1l1-.3c.5-.2.9-.5 1.2-.8.5-.4.9-.9 1.2-1.4.1-.2.3-.5.4-.7s.1-.4.1-.6v-.6c0-.4-.1-.8-.3-1.1a2.98 2.98 0 0 0-1-1.4c-.3-.3-.6-.5-1-.6-.6-.3-1.2-.4-1.8-.4-.3 0-.5 0-.8.1h-.2zm1.2 3.9l.1.1c-.1 0-.1-.1-.1-.1h0zm0 .1h0z" fill="#2c2c2c"/><path d="M72.3 233.4v1.5c0 .3-.2.4-.4.4h-9c-.3 0-.4-.1-.4-.4v-18.8c0-.3.2-.4.4-.4h1.8c.3 0 .4.1.4.4V233h6.8c.2-.1.4.1.4.4zm3.2-16.6a1.54 1.54 0 0 1 1.5-1.5 1.54 1.54 0 0 1 1.5 1.5 1.5 1.5 0 1 1-3 0zm.2 18.1V222c0-.3.1-.4.4-.4h1.8c.3 0 .4.1.4.4v12.9c0 .3-.1.4-.4.4h-1.8c-.3 0-.4-.2-.4-.4zm6.5 0V222c0-.3.1-.4.4-.4h1.7c.3 0 .4.1.4.4l.1 1.7c.8-1.4 2.2-2.5 4.5-2.5 2.9 0 5 2 5 5.6v8.1c0 .3-.1.4-.4.4H92c-.3 0-.4-.1-.4-.4v-7.7c0-2.3-1.2-3.7-3.3-3.7s-3.6 1.4-3.6 3.7v7.7c0 .3-.1.4-.4.4h-1.8c-.1 0-.3-.2-.3-.4zm15.9 0v-19.2c0-.3.1-.4.4-.4h1.8c.3 0 .4.1.4.4v12.7l5.9-6.6c.1-.2.3-.2.5-.2h2.1c.3 0 .4.2.2.4l-5 5.4 5.7 7.4c.2.3.1.5-.3.5H108a.55.55 0 0 1-.5-.3l-4.6-5.9-2.2 2.4v3.4c0 .3-.1.4-.4.4h-1.8c-.2 0-.4-.2-.4-.4zm13.2-6.5c0-4 2.8-7.1 6.9-7.1s6.5 3.1 6.5 6.5c0 1.1-.2 1.6-1.1 1.6h-9.8c.3 2.5 2.1 4.2 5.1 4.2 1.5 0 2.7-.4 3.7-1.2.2-.1.3-.1.4 0l.6.9c.2.2.1.4-.1.6-1.2 1.2-3 1.8-4.9 1.8-4.5-.1-7.3-3.3-7.3-7.3zm11.1-.9c-.1-2.5-1.8-4.1-4.2-4.1s-4.2 1.5-4.5 4.1h8.7zm4.8.9c0-4.1 2.7-7.2 6.7-7.2 2.3 0 4 1 5 2.7v-8.2c0-.3.1-.4.4-.4h1.8c.3 0 .4.1.4.4v19.2c0 .3-.1.4-.4.4h-1.6c-.3 0-.4-.1-.4-.4l-.1-2c-1 1.7-2.7 2.8-5.1 2.8-3.9-.1-6.7-3.2-6.7-7.3zm11.7.1c0-2.9-1.9-4.9-4.6-4.9s-4.7 2-4.7 4.9 2 4.9 4.7 4.9c2.8-.1 4.6-2 4.6-4.9zm6.8 6.4v-18.8c0-.3.2-.4.4-.4h1.8c.3 0 .4.1.4.4v18.8c0 .3-.1.4-.4.4h-1.8c-.2 0-.4-.2-.4-.4zm6.9 0V222c0-.3.1-.4.4-.4h1.7c.3 0 .4.1.4.4l.1 1.7c.8-1.4 2.2-2.5 4.5-2.5 2.9 0 5 2 5 5.6v8.1c0 .3-.1.4-.4.4h-1.8c-.3 0-.4-.1-.4-.4v-7.7c0-2.3-1.2-3.7-3.3-3.7s-3.6 1.4-3.6 3.7v7.7c0 .3-.1.4-.4.4H153c-.3 0-.4-.2-.4-.4z" enable-background="new"/></svg>