<?xml version="1.0" encoding="utf-8"?>
<!-- Generator: Adobe Illustrator 24.2.0, SVG Export Plug-In . SVG Version: 6.00 Build 0)  -->
<svg version="1.1" id="Layer_1" xmlns="http://www.w3.org/2000/svg" xmlns:xlink="http://www.w3.org/1999/xlink" x="0px" y="0px"
	 viewBox="0 0 723.6 283.8" style="enable-background:new 0 0 723.6 283.8;" xml:space="preserve">
<style type="text/css">
	.st0{fill:#FFFFFF;}
	.st1{enable-background:new    ;}
	.st2{font-family:'ArialMT';}
	.st3{font-size:12px;}
</style>
<path class="st0" d="M548.5,11.5c-2.4,0.1-4.8,0.3-7.3,0.5c-4.2,0.3-8.4,0.7-12.6,1.2c-2,0.2-4,0.4-5.9,0.5
	c-2.2,0.2-4.3,0.4-6.5,0.7c-4.2,0.5-8.5,1-12.7,1.6c-3.8,0.5-7.5,1.1-11.3,1.6c-7.5,0.8-15,1.7-22.4,2.7c-4.8,0.6-9.6,1.3-14.4,2.2
	c-2.5,0.5-4.9,1-7.3,1.6c-2.3,0.5-4.6,1.2-6.8,1.9c-2.5,0.7-4.9,1.4-7.4,2.1c-2.2,0.6-4.3,1.4-6.5,2.1c-4.9,1.6-9.7,3.3-14.6,4.8
	c-2.4,0.7-4.7,1.5-7.1,2.3s-4.8,1.4-7.2,2.1c-4.6,1.4-9.2,2.6-13.8,4c-2.3,0.7-4.6,1.5-6.9,2.2c-2.5,0.8-5,1.8-7.5,2.8
	c-4.8,1.9-9.6,3.9-14.3,6c-10.9,4.8-21.5,10.2-32.4,14.8c-4.7,1.8-9.4,3.5-14.1,5.1s-9.4,3.2-14.1,4.6c-2.4,0.7-4.8,1.3-7.3,1.8
	s-5,1-7.4,1.5c-5.2,1.1-10.3,2.3-15.5,3.4c-3,0.7-6.1,1.4-9.1,2s-6.1,1.1-9.1,1.5c-6.2,0.6-12.5,0.7-18.7,0.3
	c-3.4-0.2-6.7-0.6-10.1-0.9c-3.2-0.3-6.4-0.5-9.5-0.9h0.2c-1.5-0.2-3-0.4-4.6-0.6c-2.5-0.3-5.1-0.7-7.7-0.9
	c-2.2-0.2-4.5-0.4-6.7-0.6c-1-0.2-2.1-0.3-3.1-0.3c-0.8,0-1.5,0.1-2.3,0.2c-0.6,0-1.3,0.1-1.9,0.3c-1,0.3-1.9,1-2.4,1.9
	c-1.1,1.9-0.5,4.4,1.4,5.5l0,0c0.9,0.5,2,0.7,3,0.4c0.1,0,0.1-0.1,0.2-0.1c0.2,0,0.4,0,0.6-0.1c0.7-0.1,1.5-0.1,2.2,0
	c2.2,0.3,4.5,0.5,6.7,0.7c2.3,0.2,4.5,0.5,6.8,0.7c1.9,0.3,3.7,0.5,5.6,0.7l-0.4-0.1c5,0.6,10,1,15,1.4c2.5,0.2,5.1,0.5,7.6,0.6
	c2.4,0.2,4.9,0.2,7.4,0.2c5,0,10.1-0.3,15-1.1c5-0.8,10-1.8,15-3c4.7-1.1,9.5-2.2,14.3-3.2c2.5-0.5,5-1,7.5-1.5
	c2.4-0.5,4.9-1,7.3-1.7c5-1.4,9.9-3.1,14.8-4.7s9.7-3.4,14.5-5.2c3.9-1.5,7.8-3.2,11.6-5c3.6-1.6,7.2-3.3,10.8-5
	c7.4-3.5,14.8-6.9,22.4-10c2-0.8,3.9-1.6,5.9-2.4c2.4-0.9,4.9-1.7,7.4-2.6c4.6-1.5,9.2-2.8,13.8-4.1c2.4-0.7,4.7-1.4,7-2.1
	s4.7-1.4,7-2.1c2.3-0.7,4.6-1.4,6.9-2.2c2.4-0.8,4.7-1.6,7.1-2.4c3.7-1.2,7.4-2.4,11.1-3.6c3.3-1,6.7-2,10.1-2.9
	c3.7-1,7.3-1.9,11.1-2.6c3.6-0.7,7.1-1.3,10.7-1.8c3-0.4,5.9-0.8,8.9-1.2c2.7-0.3,5.3-0.6,8-0.9c3.1-0.4,6.3-0.7,9.4-1.1
	c5.6-0.8,11.2-1.6,16.8-2.4c5-0.6,10-1.1,15-1.6c2.3-0.2,4.5-0.5,6.8-0.7c2.7-0.3,5.3-0.5,8-0.7c4.8-0.4,9.6-0.8,14.5-0.7
	c2.5,0,5,0.1,7.5,0.2c2.4,0.1,4.8,0.5,7.2,0.7c2.9,0.2,5.8,0.5,8.6,0.8c3,0.3,6,0.7,9.1,0.9c5.5,0.4,11,0.9,16.5,1.6
	c4.4,0.6,8.7,1.4,13.1,2.2c4.3,0.8,8.6,1.6,13,2.4c4.2,0.8,8.5,1.6,12.7,2.5c4.6,1,9.2,2,13.8,3c2.1,0.6,4.3-0.7,4.9-2.8
	c0.6-2.1-0.7-4.3-2.8-4.9c-5.1-1.1-10.1-2.2-15.2-3.3c-4.4-1-8.9-1.7-13.3-2.5c-4.9-0.9-9.8-1.8-14.8-2.8s-10.1-1.7-15.1-2.2
	c-4.8-0.5-9.7-0.8-14.6-1.3c-4.9-0.5-9.8-1-14.8-1.4c-2.6-0.2-5.1-0.5-7.7-0.8c-2.3-0.2-4.7-0.3-7-0.3c-0.7,0-1.4,0-2.1,0
	C552.1,11.3,550.3,11.4,548.5,11.5L548.5,11.5z M603.7,23.6l0.6,0.1L603.7,23.6z M185.2,93.3H185C185.1,93.4,185.1,93.3,185.2,93.3z
	"/>
<path class="st0" d="M180,89.7c-1,0.3-1.9,0.9-2.4,1.9c-0.5,0.9-0.7,2-0.4,3c0.4,2.2,0.8,4.3,1.2,6.5c0.4,2.1,0.9,4.1,1.3,6.1
	c0.3,1.8,0.6,3.6,0.9,5.3c0.2,1,0.4,1.9,0.7,2.8c0.3,1,0.7,2,1.1,3.1c0.6,1.8,1.1,3.7,1.7,5.5c0.5,1.8,1.1,3.6,1.7,5.4
	c0.6,1.9,1.1,3.8,1.7,5.7c0.5,1.7,0.9,3.4,1.2,5.2c0.2,1.9,0.3,3.8,0.4,5.7c0.1,2.1,0.1,4.2,0.2,6.3c0.2,4.1,0.3,8.2,0.4,12.3
	c0.1,4,0.2,8.1,0.2,12.1c0,2.1,0.1,4.3,0,6.4c-0.1,1.9-0.2,3.7-0.3,5.6c-0.2,4.2-0.5,8.5-0.5,12.7c0,2.1,0.2,4.2,0.4,6.2
	c0.1,2,0.3,4,0.4,6c0.1,4.1,0.1,8.1-0.2,12.2c-0.1,2.1-0.2,4.2-0.1,6.4s0.2,4.2,0.3,6.4c0.1,3.3,0.1,6.7,0,10
	c-0.1,1.5-0.3,3-0.4,4.5c-0.2,1.6-0.3,3.2-0.5,4.9c0-0.1,0-0.2,0-0.2c-0.2,1.6-0.3,3.2-0.4,4.8c-0.1,1.5,0.2,3,0.1,4.5
	c0,0.3-0.1,0.6-0.1,0.8c0,0.8,0.2,1.7,0.7,2.4c1.1,1.9,3.5,2.6,5.5,1.5c1.5-0.9,2.3-2.6,1.9-4.4c0-0.2,0-0.4,0.1-0.6
	c0-0.5,0-1-0.1-1.4c0-0.7-0.1-1.4-0.1-2.1c0-1.5,0.1-3,0.3-4.5c0.2-1.9,0.4-3.8,0.6-5.8c0.1-0.9,0.2-1.9,0.3-2.8
	c0.1-0.9,0.2-1.9,0.2-2.8c0.1-4.3,0.1-8.5-0.2-12.8c-0.2-4.1,0-8.3,0.2-12.4c0.1-2.1,0.1-4.2,0.1-6.3c0-2-0.2-4-0.3-6.1
	c-0.1-2-0.3-3.9-0.4-5.9c-0.1-2.1-0.1-4.2-0.1-6.3c0.1-4.1,0.4-8.2,0.6-12.3c0.3-4.2,0.1-8.3,0.1-12.5c0-3.9-0.1-7.9-0.2-11.8
	c-0.1-4.2-0.4-8.3-0.5-12.5c0-4.4-0.4-8.7-1.3-13c-0.9-3.8-2.1-7.5-3.3-11.2c-0.6-1.8-1.1-3.6-1.7-5.4c-0.3-1-0.6-1.9-0.9-2.9
	s-0.7-1.9-1-2.9c-0.9-3.2-1.2-6.5-1.8-9.8c-0.3-1.6-0.7-3.3-1-4.9c-0.4-1.9-0.7-3.8-1.1-5.8c-0.5-1.8-2.1-3-3.9-3
	C180.7,89.6,180.4,89.7,180,89.7L180,89.7z"/>
<path class="st0" d="M581.1,190.2c-2.2,0.1-4.4,0.2-6.6,0.4c-5,0.4-9.9,0.8-14.9,1.4c-4.5,0.5-8.9,0.8-13.4,1.3
	c-5,0.6-10.1,1.2-15.1,1.7c-4.6,0.5-9.3,0.8-13.9,1.4c-5.1,0.6-10.2,1.5-15.2,2.6c-4.8,1-9.5,2.4-14.1,3.9s-9.3,2.8-14,4.3
	c-2.9,0.9-5.9,1.9-8.8,2.8c-2.8,0.9-5.6,2-8.3,3c-2.8,1.1-5.7,2.2-8.5,3.2c-2.9,1.1-5.7,2.2-8.5,3.4c-6.6,2.6-13.2,5-19.8,7.6
	c-3.4,1.4-6.8,2.9-10.1,4.6c-1.6,0.8-3.1,1.6-4.7,2.4c-1.3,0.6-2.7,1.2-4,1.8c-2.7,1.1-5.4,2.1-8.1,3.1c-3.2,1.2-6.4,2.5-9.6,3.8
	c-2,0.8-4.1,1.6-6.1,2.5c-2.2,0.9-4.4,1.6-6.6,2.4c-4.6,1.6-9.2,3.1-13.9,4.5s-9.3,3-13.9,4.4c-4.4,1.3-8.9,2.6-13.3,3.8
	c-2,0.6-3.9,1.1-5.9,1.5c-2.3,0.5-4.6,0.9-6.8,1.2c-4,0.7-7.9,1.8-11.9,2.5c-3.9,0.7-7.8,1.2-11.7,1.8c-2.1,0.3-4.1,0.7-6.2,1
	c-2.2,0.3-4.4,0.6-6.6,0.9c-1.2,0.1-2.3,0.3-3.5,0.5c-3.2,0.4-6.3,0.7-9.5,0.8c-1.8,0-3.6,0-5.5,0c-1.5,0-3-0.1-4.4,0
	c-3.3,0-6.6,0.2-9.8,0.1c-2.9-0.1-5.9-0.3-8.8-0.7c-3.5-0.5-7.1-1.1-10.6-1.5c-1.7-0.2-3.3-0.3-5-0.4s-3.3-0.3-5-0.5
	c-1.9-0.2-3.7-0.3-5.6-0.4c-1.5-0.1-3.1-0.1-4.6-0.1c-1.8,0-3.6,0.2-5.4,0.2c-2,0.1-3.9,0.2-5.9,0.2c-2.2,0-4,1.8-4,4s1.8,4,4,4
	c2.9-0.1,5.9-0.2,8.8-0.4c2.6-0.1,5.3-0.1,7.9,0.1c1.3,0.1,2.6,0.1,3.9,0.3c1.5,0.2,2.9,0.3,4.4,0.5c1.3,0.1,2.6,0.2,3.9,0.2
	c1.1,0.1,2.2,0.2,3.3,0.3c4.2,0.6,8.3,1.3,12.5,1.8c4.2,0.4,8.3,0.5,12.5,0.3c2-0.1,3.9-0.1,5.9,0c2.1,0,4.3,0.1,6.4,0.1
	c4.3-0.1,8.6-0.5,12.9-1.1c4.9-0.6,9.7-1.3,14.5-2.1c4.3-0.8,8.7-1.3,13.1-2.1c2.2-0.4,4.3-0.9,6.5-1.4s4.5-0.9,6.8-1.3
	c2.4-0.4,4.8-0.9,7.2-1.4c2.2-0.5,4.5-1.2,6.7-1.8c4.5-1.3,8.9-2.5,13.4-3.9c4.6-1.5,9.2-3,13.9-4.4c4.7-1.4,9.4-3,14-4.7
	c4.6-1.6,9.2-3.5,13.7-5.4l1.1-0.5c2.5-1,5.1-2,7.6-3c3-1.1,6-2.2,8.9-3.5c2.8-1.2,5.4-2.6,8.1-4c2.4-1.2,4.9-2.3,7.4-3.4
	c3.8-1.5,7.7-2.9,11.6-4.4c4.3-1.6,8.5-3.3,12.8-5.1c4.3-1.7,8.6-3.2,12.8-4.9c2.4-0.9,4.9-1.9,7.3-2.7c2.2-0.8,4.5-1.4,6.7-2.2
	c4.7-1.5,9.4-2.9,14.1-4.4c2.3-0.7,4.6-1.5,7-2.2c2.3-0.7,4.5-1.2,6.8-1.8c5.2-1.3,10.4-2.3,15.7-3c4.5-0.6,9.1-0.9,13.7-1.3
	c4.8-0.5,9.6-1.1,14.3-1.6c9.5-1.1,18.9-1.9,28.4-2.7c3.8-0.3,7.7-0.6,11.5-0.8c4.1-0.2,8.2,0,12.3,0.1c4.2,0.1,8.4,0.4,12.5,0.8
	c3.9,0.3,7.7,0.7,11.5,1.1c4.2,0.6,8.3,1.2,12.4,2.1c2,0.4,4,0.9,6,1.2c2.3,0.4,4.7,0.7,7,1c1.2,0.2,2.5,0.4,3.7,0.7
	c1.3,0.3,2.5,0.8,3.7,1.3s2.5,0.8,3.7,1.2c1.5,0.5,3,1.1,4.5,1.6c1,0.3,2.1,0.1,3-0.4c1.9-1.1,2.6-3.5,1.5-5.4l0,0
	c-0.6-0.9-1.4-1.6-2.5-1.9c-1.6-0.6-3.3-1.2-4.9-1.8c-1.5-0.5-3.1-1-4.6-1.5c-3.2-1-6.6-1.7-10-1.9c-2.2-0.4-4.4-0.7-6.6-1.2
	c-2.3-0.5-4.6-1-7-1.4c-4.8-0.8-9.5-1.6-14.3-2s-9.6-0.8-14.3-1.2c-4.9-0.3-9.9-0.4-14.8-0.4h-0.3
	C585.2,189.9,583.1,190.1,581.1,190.2L581.1,190.2z M439.5,219.8l-0.7,0.3L439.5,219.8z"/>
<path class="st0" d="M312.6,26.8c-0.5,0.3-1,0.6-1.5,1c-1.1,0.8-2.3,1.5-3.4,2.4c-0.6,0.4-1.2,0.8-1.8,1.1c-0.8,0.5-1.6,1.1-2.4,1.6
	s-1.6,0.9-2.3,1.4c-0.9,0.5-1.8,1.2-2.6,1.8c-1.6,1.1-3.3,2.2-5,3.1c-1.9,1-3.8,2-5.7,2.9c-1.7,0.8-3.5,1.6-5.2,2.3
	c-1.8,0.8-3.6,1.5-5.4,2.3c-3.6,1.5-7.2,3.2-10.9,4.7c-4.4,1.9-8.7,3.8-13.1,5.7c-2,0.7-4,1.4-6,2.1c-1.8,0.6-3.7,1.1-5.5,1.6
	c-3.9,1.1-7.7,2.3-11.5,3.7c-3.7,1.4-7.5,2.6-11.3,3.5c-2,0.5-4,0.9-6,1.4c-1.8,0.4-3.5,0.9-5.3,1.4c-4.1,1.1-8.2,2-12.2,3.1
	c-2.5,0.7-4.9,1.7-7.2,3c-2.3,1.1-4.5,2.3-6.8,3.4c-1.9,1.1-2.6,3.5-1.5,5.4c0.5,0.9,1.4,1.6,2.5,1.9c1,0.3,2.1,0.1,3-0.4
	c3.3-1.6,6.5-3.4,9.8-4.9c3.7-1.3,7.5-2.1,11.3-3.1c3.6-0.9,7.1-1.9,10.7-2.7c2-0.5,4-0.9,6-1.4s4-1.2,6-1.9
	c3.8-1.3,7.5-2.6,11.3-3.8c1.8-0.6,3.6-1.1,5.5-1.6c2-0.5,3.9-1.2,5.8-1.9c2.3-0.8,4.5-1.6,6.7-2.6c1.9-0.8,3.8-1.6,5.7-2.5
	c3.6-1.6,7.2-3.1,10.8-4.7c3.5-1.6,7-3,10.5-4.5c2.4-1,4.9-2.1,7.2-3.2c2.4-1.2,4.8-2.4,7.1-3.8c2.2-1.4,4.3-3,6.6-4.3
	c0.6-0.3,1.2-0.7,1.7-1.1s1.1-0.8,1.7-1.1c1-0.6,2-1.3,3-2c0.3-0.2,0.5-0.4,0.8-0.6c0.2,1,0.5,1.9,0.6,2.9c0.1,1.2,0.1,2.5,0.1,3.7
	c0,1.5,0.1,3,0.1,4.4c0,1.3-0.1,2.7-0.1,4c-0.1,1.1-0.1,2.2-0.2,3.3c-0.3,1.7-0.7,3.4-0.8,5.2c-0.1,1.8,0,3.7-0.1,5.5
	c-0.1,1.7-0.1,3.3,0,5c0,0.7,0.2,1.3,0.2,2c0,0.5,0,0.9,0,1.4c0,0.7,0.1,1.4,0.2,2c0,0.2,0,0.4,0,0.6c0,1,0.4,2,1.1,2.8
	c1.5,1.6,4.1,1.6,5.7,0.1c0.8-0.8,1.2-1.8,1.2-2.9c-0.1-0.8-0.1-1.5-0.3-2.3c0-0.6,0-1.2,0-1.8c0-0.5,0-0.9-0.1-1.4
	c-0.1-1.1-0.2-2.2-0.1-3.4c0-1.3,0.1-2.6,0.1-3.9c0-1.2,0-2.4,0.1-3.6c0.2-1.1,0.4-2.1,0.5-3.2c0.2-1.6,0.4-3.2,0.4-4.9
	c0.1-1.3,0.1-2.6,0.2-3.8c0.1-1.6,0-3.1-0.1-4.7c-0.1-1.5,0-3-0.2-4.6c-0.1-0.9-0.2-1.9-0.4-2.8c-0.1-0.6-0.3-1.2-0.4-1.8
	c-0.2-1.3-0.6-2.5-1-3.7c-0.3-0.9-0.7-1.8-1.4-2.5c-0.9-0.9-2.1-1.5-3.4-1.5h-0.1C314.4,26.1,313.4,26.3,312.6,26.8L312.6,26.8z"/>
<path class="st0" d="M249.5,6.3c-2.1,0-4.2,0-6.2,0.2c-2.3,0.1-4.7,0.5-7,0.8c-4,0.6-8,1.6-12,2.5c-2,0.4-4,0.9-6.1,1.3
	c-1.9,0.4-3.9,0.7-5.9,1.1c-4.2,0.8-8.3,1.6-12.5,2.3c-2.1,0.4-4.2,0.6-6.4,1c-2,0.3-4,0.7-6,0.9c-4.2,0.6-8.3,1.2-12.5,2
	c-4,0.7-8,1.2-11.9,1.8c-4.3,0.6-8.6,1.5-12.9,2.5c-2,0.5-4,1-6,1.5s-4,1-6.1,1.5c-2,0.5-4,1-6,1.5s-4.1,0.8-6.2,1.2
	c-4.6,0.8-9.2,1.7-13.9,2.4c-8.2,1-16.4,1.9-24.6,2.2c-4.1,0.2-8.3-0.1-12.4-0.3c-2-0.1-4-0.3-5.9-0.3c-2.2-0.1-4.3-0.1-6.5-0.2
	c-3.5-0.1-7-0.5-10.4-0.7c-3.2-0.2-6.3-0.5-9.5-0.8c-1.9-0.3-3.8-0.7-5.6-1.3c-1.8-0.5-3.6-1.2-5.4-1.9c-2-0.9-3.9-1.8-5.9-2.7
	c-1.1-0.5-2.1-1.1-3.2-1.6c-0.6-0.3-1.1-0.6-1.7-0.9c-1.2-0.8-2.7-1.3-4.1-1.4c-0.5,0-1,0.1-1.5,0.2c-0.7,0.2-1.3,0.5-1.8,1
	c-0.3,0.3-0.5,0.6-0.8,1c-0.6,1-0.7,2.1-0.4,3.2c0.3,0.8,0.7,1.6,1.3,2.2c0.2,0.3,0.5,0.5,0.8,0.7c0.5,0.4,0.9,0.7,1.4,1.1
	c0.5,0.3,0.9,0.6,1.4,0.9c1.9,1.2,3.8,2.3,5.6,3.6c1.6,1.4,3.1,2.9,4.6,4.3c1.8,1.6,3.5,3.4,5.2,5.1c0.8,0.8,1.7,1.6,2.5,2.5
	c0.9,0.9,1.8,1.8,2.7,2.7c2.1,2,4.3,3.9,6.7,5.6c-0.3-0.2-0.6-0.4-0.8-0.7c1.7,1.4,3.4,2.7,5.1,4.1c1.8,1.4,3.6,2.7,5.4,4.1
	c3.3,2.6,6.5,5.1,9.9,7.5c3.5,2.5,7.1,4.8,10.9,6.8c2,1,4.1,1.8,6.2,2.6c1,0.4,2,0.6,2.9,0.9s2,0.6,2.9,0.8c2,0.5,4,0.9,6,1.4
	c1.4,0.4,2.7,0.8,4,1.3c-0.6,0.5-1.2,1.1-1.8,1.6c-1.4,1.2-2.8,2.4-4.2,3.7c-3,2.7-5.9,5.6-8.8,8.5c-3,2.9-6.1,5.6-9.3,8.3
	c-2.8,2.3-5.5,4.6-8.4,6.8c-3.2,2.2-6.3,4.5-9.5,6.6c-3.1,2.1-6.3,4-9.6,5.5c-2.4,0.9-4.8,1.6-7.3,2.4c-1.4,0.4-2.7,0.9-4.1,1.3
	c-1.2,0.4-2.5,0.7-3.8,0.9c-3,0.2-6,0.3-9,0.1c-1.5,0-3,0-4.6,0.1h-0.7c-0.6-0.1-1.3-0.3-1.9-0.4c-0.9-0.2-1.8-0.2-2.7-0.3
	c-1.7,0-3.3,0.9-4.2,2.4c-0.9,1.6-0.6,3.6,0.6,5c1.1,1,2.6,1.5,4.1,1.5c1,0.1,2,0,2.9-0.1h0.5c1,0.2,1.9,0.5,2.9,0.8
	c1.8,0.5,3.6,1.2,5.4,1.9c0,0,0.1,0,0.1,0.1h0.1c0.2,0.1,0.4,0.2,0.6,0.3l0.3,0.1c3.6,1.5,7.1,3.4,10.5,5.3
	c3.8,2.1,7.6,4.2,11.3,6.4c3.4,2.1,7,4.1,10.6,5.8c4.1,1.8,8.4,3.4,12.7,4.7c4.9,1.4,9.8,2.8,14.8,4.2c2.3,0.7,4.7,1.3,7.1,1.8
	c2.8,0.6,5.5,0.9,8.3,1.3c2,0.3,3.9,0.5,5.9,0.8c-0.3,0-0.7-0.1-1-0.1c2.1,0.3,4.1,0.5,6.2,0.8c1.9,0.2,3.7,0.5,5.6,0.7
	c2.1,0.3,4.2,0.5,6.2,0.7s4,0.3,6.1,0.3s4.1-0.2,6.2-0.3s4.1-0.3,6.2-0.6c4.2-0.5,8.4-0.9,12.6-1c3.8-0.1,7.7-0.5,11.5-0.9
	c1.5-0.2,3-0.4,4.5-0.6c1.4-0.2,2.7-0.5,4.1-0.7c0.7-0.1,1.3-0.2,2-0.4c0.6-0.1,1.2-0.3,1.8-0.5c1.5-0.4,2.9-1,4.4-1.3
	c2.1-0.5,3.4-2.7,2.9-4.9c-0.5-2.1-2.7-3.4-4.9-2.9H180c-2.5,0.6-4.8,1.6-7.3,2c-1.2,0.2-2.5,0.5-3.7,0.7c-1,0.2-2,0.3-3,0.4
	c-3.6,0.4-7.1,0.8-10.7,0.9c-4.1,0.2-8.1,0.4-12.2,0.9c-4.3,0.5-8.6,0.9-12.9,1.1c-3.9,0-7.8-0.2-11.7-0.7c-1.2-0.2-2.5-0.3-3.7-0.5
	c-2.5-0.3-4.9-0.6-7.4-0.9c-1.2-0.2-2.4-0.3-3.6-0.5c-2-0.3-4.1-0.5-6.1-0.8c-2.9-0.5-5.8-1.1-8.7-1.8c-3.1-0.8-6.1-1.7-9.1-2.6
	c-6-1.6-11.9-3.4-17.7-5.6c-1.7-0.8-3.4-1.6-5-2.5c-1.8-1-3.7-2.1-5.5-3.2c-3.8-2.2-7.6-4.4-11.4-6.5c-2-1.1-4-2.2-6-3.3
	c1.7-0.4,3.4-1,5.1-1.6c2.1-0.7,4.2-1.3,6.2-2c1.2-0.4,2.4-0.8,3.6-1.4c1-0.4,1.9-0.9,2.9-1.4c3.6-2,7.1-4.2,10.4-6.7
	c1.6-1.1,3.2-2.3,4.9-3.4c1.8-1.3,3.5-2.6,5.3-4c3.4-2.6,6.6-5.4,9.8-8.3s6.2-5.9,9.2-8.9c2.8-2.8,5.7-5.4,8.7-7.9
	c0.7-0.6,1.5-1.3,2.2-1.9c0.9-0.7,1.7-1.4,2.4-2.2c0.9-0.9,1.5-2.1,1.8-3.3c0-0.3,0.1-0.7,0.1-1c0-0.4-0.1-0.9-0.2-1.3
	c-0.2-0.8-0.6-1.5-1.2-2.1c-0.4-0.4-0.9-0.8-1.5-1.1c-0.2-0.1-0.4-0.2-0.6-0.3c-0.5-0.2-0.9-0.4-1.4-0.6c-2-0.9-4.1-1.7-6.2-2.3
	c-1.9-0.6-3.8-1-5.8-1.4c-1.7-0.4-3.4-0.8-5-1.3c-1.5-0.5-3-1-4.5-1.6c-6.7-3-12.8-7.5-18.6-12c-2.8-2.2-5.6-4.3-8.4-6.4
	c-2.2-1.7-4.4-3.5-6.6-5.3c0.3,0.2,0.6,0.4,0.8,0.7c-1.2-1-2.5-2-3.6-3c-1.2-1.1-2.3-2.3-3.4-3.4s-2.3-2.2-3.4-3.4l-0.1-0.1
	c0.5,0.1,0.9,0.2,1.4,0.3c2.3,0.4,4.6,0.7,6.9,0.9c2.1,0.2,4.1,0.3,6.2,0.5c4,0.3,8,0.7,12,0.8c8.4,0.2,16.7,1,25.1,0.7
	c4.3-0.2,8.6-0.5,13-1c4.3-0.4,8.7-0.9,13-1.6c4.2-0.7,8.4-1.4,12.5-2.2c2.1-0.4,4.2-0.8,6.4-1.2c1.9-0.4,3.9-0.9,5.8-1.4
	c8.2-2.3,16.6-4.1,25-5.5c4-0.6,8.1-1.2,12.1-1.8c2.1-0.3,4.1-0.7,6.2-1.1c2-0.3,4.1-0.6,6.1-0.9s3.9-0.6,5.9-0.9
	c2.1-0.3,4.2-0.6,6.3-1c4.2-0.7,8.3-1.5,12.5-2.3c2.2-0.4,4.3-0.7,6.5-1.2c2.3-0.5,4.6-1,6.8-1.5s4.3-1,6.5-1.4s4.3-0.8,6.5-1.1
	c4.4-0.4,8.8-0.5,13.1-0.4c4.1,0.1,8.2,0.6,12.2,1.1c3.6,0.5,7.1,1,10.7,1.4c3.3,0.4,6.7,0.5,10,0.8c4.3,0.7,8.5,1.8,12.5,3.2
	c1,0.4,1.9,0.9,2.8,1.4c1.1,0.7,2.2,1.4,3.2,2.2c2.5,1.8,4.8,3.7,7.3,5.5c0.9,0.6,2,0.7,3,0.4c2.1-0.6,3.4-2.7,2.8-4.9l0,0
	c-0.1-0.3-0.3-0.6-0.4-0.9c-0.3-0.6-0.9-1.1-1.5-1.5c-3.1-2.4-6.2-4.9-9.5-7.1c-3.3-2.1-7-3.6-10.8-4.5c-1.6-0.5-3.3-0.9-5-1.2
	c-2.1-0.4-4.3-0.7-6.5-0.9c-3.7-0.3-7.4-0.6-11.1-1c-4-0.5-8-1.1-12-1.6c-3.7-0.4-7.5-0.6-11.2-0.7C250,6.2,249.7,6.2,249.5,6.3
	L249.5,6.3z M15.8,28.5c0.1,0,0.1,0,0.2,0H15.8z M112.9,30.5h-0.4H112.9z"/>
<path class="st0" d="M96.3,82c-0.9,0.8-1.8,1.5-2.7,2.4c0.3-0.2,0.5-0.5,0.8-0.7c-0.7,0.7-1.5,1.2-2.2,1.9c-0.8,0.7-1.6,1.4-2.4,2.1
	c-1,0.8-2,1.7-3,2.5c-1.3,1.1-2.5,2.3-3.7,3.4c-2.1,1.9-4.4,3.6-6.5,5.5c0.3-0.2,0.5-0.5,0.8-0.7c-0.2,0.2-0.4,0.4-0.6,0.6
	c-3.9,3.5-8.7,6-12.8,9.3c-2.3,1.8-4.6,3.6-6.9,5.3c-1,0.7-2.1,1.4-3.1,2.1c-1.2,0.7-2.3,1.5-3.5,2.2c-0.9,0.4-1.8,0.9-2.8,1.3
	c-1.2,0.5-2.3,1.1-3.5,1.6c-2.2,0.9-4.5,1.7-6.9,2.2c-1.4,0.3-2.8,0.5-4.3,0.8c-2,0.3-4,0.5-6,0.6c-1.8,0.1-3.6,0.2-5.4,0.3
	c-1.8,0.1-3.6,0.1-5.3,0.1c-1.9,0.1-3.8,0.1-5.7,0.4c-1.8,0.2-3.6,0.4-5.3,0.8c-0.5,0.1-1,0.3-1.4,0.5c-1,0.4-2,1-2.7,1.9
	c-0.6,0.7-0.9,1.5-1,2.3c-0.1,0.4-0.1,0.9,0,1.3c0.1,0.8,0.3,1.5,0.8,2.1c0.2,0.3,0.4,0.6,0.6,0.9c1.2,1.4,2.7,2.5,4.3,3.4l-0.5-0.3
	c1.5,1,3.1,1.8,4.7,2.6c1.6,0.7,3.3,1.5,4.9,2.3c3.2,1.8,6.6,3.3,9.9,4.8c3.5,1.6,7,3.2,10.5,4.7c1.8,0.8,3.6,1.6,5.5,2.3
	c0.9,0.4,1.7,0.7,2.6,1c1,0.4,2,0.8,2.9,1.2c1,0.4,2.1,0.8,3.1,1.3c0.9,0.4,1.9,0.8,2.8,1.3c2.2,1,4.4,1.8,6.7,2.6
	c1.1,0.4,2.2,0.8,3.3,1.2s2.1,0.9,3.2,1.3c2.6,1,5.2,1.8,7.8,2.6l-0.6-0.2c1.9,0.6,3.8,1.1,5.8,1.6c1.6,0.3,3.2,0.6,4.8,0.9
	c1.8,0.3,3.6,0.5,5.4,0.8c1.7,0.3,3.4,0.8,5.1,1.3s3.4,1,5.1,1.4s3.5,0.7,5.2,0.8c1.7,0.2,3.4,0.3,5.2,0.4c2.3,0.2,4.5,0.2,6.8,0.3
	c0.5,0,1,0,1.5,0.1c2.1,0.2,4.1,0.4,6.2,0.4c1.7,0,3.3-0.1,5-0.1c1.6,0,3.2,0,4.8,0.1s3.2,0.1,4.7,0.1c3.8,0,7.6-0.2,11.4-0.2
	c1.1,0,2.1,0,3.2,0.1c2.1,0.1,4.3,0.1,6.4-0.1c2.3-0.2,4.7-0.5,7-0.9c2.9-0.5,5.7-1.1,8.6-1.7l-0.4,0.1c3.2-0.6,6.3-1.4,9.3-2.5
	c1.6-0.6,3.3-1.2,4.9-1.8c2-0.9,3.9-1.9,5.8-3.1c1.8-1.3,2.3-3.8,1-5.6c-0.6-0.9-1.5-1.4-2.5-1.6c-1.1-0.2-2.1,0-3,0.6
	c-0.9,0.5-1.7,1-2.6,1.5c-2.3,1-4.6,1.9-7,2.7c-1.1,0.4-2.2,0.6-3.3,1s-2.2,0.6-3.3,0.8c-0.7,0.1-1.4,0.3-2.1,0.4
	c-1.6,0.3-3.1,0.6-4.7,0.9c-1.6,0.3-3.3,0.6-4.9,0.8c-1.5,0.2-3.1,0.3-4.6,0.4c-1.6,0.1-3.2,0-4.8,0c-1.7,0-3.3-0.1-5-0.1
	c-1.8,0-3.5,0.1-5.3,0.2c-3.5,0.1-7,0.1-10.5-0.1c-1.7,0-3.3-0.1-5-0.1s-3.5,0.1-5.2,0c-1.8-0.1-3.5-0.3-5.3-0.4
	c-1.7-0.1-3.3-0.1-5-0.2c-3-0.2-5.9-0.5-8.9-0.9c-1.5-0.3-2.9-0.6-4.3-1c-1.5-0.4-3-0.9-4.6-1.4c-1.5-0.4-3-0.8-4.5-1
	c-1.5-0.3-3-0.4-4.6-0.7c-3.1-0.5-6.1-1.1-9-2h0.1c-0.4-0.1-0.8-0.3-1.2-0.4c-1.7-0.6-3.4-1.1-5-1.7c-1.8-0.7-3.5-1.4-5.3-2.1
	c-1.7-0.6-3.5-1.2-5.2-1.9c-1.6-0.6-3.2-1.3-4.8-2.1c-3.4-1.5-6.9-2.8-10.3-4.3c-3.5-1.5-7-3.1-10.5-4.6c-2-0.9-4.1-1.8-6.1-2.8
	c-2.1-0.9-4.2-1.9-6.2-3c-1.9-1-3.8-2.1-5.7-3c-0.8-0.4-1.7-0.7-2.5-1.1l0,0c1.9-0.2,3.8-0.2,5.6-0.2c1.8-0.1,3.6-0.1,5.4-0.2
	c1.8-0.1,3.7-0.2,5.5-0.3c1.9-0.1,3.8-0.4,5.7-0.7s3.8-0.7,5.7-1.1c1.8-0.4,3.5-0.9,5.2-1.6c1.6-0.6,3.2-1.4,4.8-2.1
	s3.1-1.4,4.6-2.2s2.9-1.8,4.3-2.7c2.7-1.7,5.2-3.7,7.7-5.7c1.2-0.9,2.4-1.8,3.6-2.7c1.3-1,2.7-1.8,4-2.7c1.2-0.8,2.4-1.7,3.7-2.5
	c1.3-1,2.6-2,3.7-3.1l-0.4,0.4c0.2-0.2,0.4-0.4,0.6-0.6c1.3-1.2,2.8-2.2,4.1-3.4c1.6-1.3,3-2.7,4.5-4.1c3-2.6,6.2-5,9.1-7.7
	c-0.3,0.2-0.5,0.5-0.8,0.7c1-0.9,2.2-1.7,3.1-2.6c1.4-1.7,1.2-4.2-0.5-5.6c-0.7-0.6-1.6-0.9-2.5-0.9C98.1,80.8,97.1,81.3,96.3,82z
	 M76.5,98.9l-0.6,0.6C76.1,99.3,76.3,99.1,76.5,98.9z M82.9,103.9l-0.4,0.4L82.9,103.9z"/>
<path class="st0" d="M19.9,133.8c-1.4,1.7-1.2,4.2,0.5,5.6c0.8,0.6,1.6,1.1,2.4,1.5c0.6,0.4,1.3,0.7,1.9,1c1.4,0.7,2.7,1.3,4.1,1.9
	c2.8,1.2,5.5,2.6,8.3,3.8s5.6,2.6,8.4,3.7c1.5,0.6,2.9,1.2,4.3,1.7c1.6,0.6,3.2,1.2,4.9,1.7c1.4,0.5,2.8,1,4.1,1.6
	c1.7,0.7,3.4,1.3,5.2,2c3.8,1.4,7.6,2.6,11.4,3.8c1.6,0.5,3.3,0.9,4.9,1.3c1.7,0.5,3.4,0.9,5.2,1.3c2,0.5,4,0.9,6,1.2
	c1.7,0.3,3.3,0.6,5,0.9c4.3,0.9,8.5,2,12.9,2.7c4.2,0.6,8.4,1.1,12.6,1.3h-0.6c3.9,0.2,7.8,0.6,11.7,0.5c3.3,0,6.6-0.1,10,0
	s6.9,0.2,10.4,0c1.7-0.1,3.4-0.3,5.1-0.4c1.9-0.2,3.8-0.3,5.7-0.6c2-0.3,4.1-0.6,6.1-1c2.4-0.5,4.9-0.9,7.3-1.4
	c1.9-0.4,3.9-1,5.8-1.5c1.7-0.5,3.4-1.2,4.9-2.1c0.7-0.3,1.3-0.5,2-0.7c1.1-0.4,2.3-0.8,3.4-1.2c2.1-0.8,3.1-3.1,2.4-5.1
	c-0.7-2-3-3.1-5.1-2.4c-1.3,0.5-2.6,0.9-3.9,1.4c-0.4,0.2-0.9,0.3-1.3,0.5c-0.5,0.2-1,0.5-1.5,0.8c-1.5,0.7-3,1.3-4.5,1.6
	c-1.9,0.5-3.7,1-5.6,1.4c-3.2,0.7-6.5,1.3-9.8,1.7c-3.6,0.5-7.2,0.8-10.8,1.1c-1.7,0.1-3.4,0.1-5.2,0.1s-3.4,0-5.2-0.1
	c-3.3-0.1-6.7-0.1-10,0c-2,0-4,0-6-0.1c-1.9-0.1-3.9-0.3-5.8-0.4l1,0.1c-1.5-0.1-3-0.3-4.5-0.4c-1.7-0.2-3.4-0.3-5.1-0.6
	c-3.5-0.5-7-1.2-10.5-2c-1.6-0.4-3.2-0.7-4.7-1c-1.7-0.4-3.4-0.6-5.1-0.9c-3.7-0.7-7.4-1.6-11-2.6c-1.3-0.4-2.7-0.7-4-1.1
	c-1.1-0.3-2.3-0.7-3.4-1.1c-3.1-1-6.1-2.1-9.1-3.2c-1.6-0.6-3.1-1.3-4.6-1.9s-3.2-1.1-4.7-1.6c-1.2-0.4-2.4-0.9-3.5-1.4
	c-1.3-0.5-2.6-1-3.9-1.6c-2.7-1.1-5.3-2.4-7.9-3.6c-2.6-1.1-5.1-2.5-7.7-3.6c-2.3-1-4.6-2.1-6.8-3.4c-0.7-0.6-1.6-0.9-2.6-0.9
	C21.8,132.4,20.6,132.9,19.9,133.8L19.9,133.8z"/>
<path class="st0" d="M259.9,0c-1.8,0-3.6,0.2-5.4,0.3c-2.1,0.1-4.1,0.1-6.2,0.3c-2.7,0.2-5.4,0.4-8.1,0.7c-2.5,0.3-5,0.6-7.6,1
	c-2.5,0.3-5,0.6-7.5,0.9c-2.9,0.4-5.8,1-8.7,1.6c-6.3,1.3-12.7,2.1-19,3.4l1.1-0.2c-1.2,0.2-2.4,0.5-3.6,0.7
	c-0.4,0.1-0.8,0.2-1.2,0.3c-0.1,0-0.2,0-0.3,0.1c-0.2,0-0.4,0.1-0.5,0.1s-0.2,0.1-0.3,0.1c-0.6,0.1-1.2,0.3-1.8,0.4
	c-2.1,0.5-4.2,0.9-6.3,1.5c-2,0.5-4.1,1.1-6.1,1.5c-0.9,0.2-1.9,0.4-2.8,0.6c-1.7,0.3-3.3,0.7-5,1l0.5-0.1c-2.2,0.5-4.4,1-6.7,1.5
	c-1.4,0.3-2.8,0.6-4.2,0.9l1-0.2c-0.9,0.2-1.8,0.4-2.6,0.6c-2,0.4-3.9,0.8-5.9,1.3c-1.8,0.5-3.6,0.9-5.4,1.3
	c-3.5,0.7-6.9,1.3-10.4,1.8c-1.8,0.3-3.6,0.6-5.5,0.9s-3.6,0.7-5.4,1c-3.4,0.6-6.8,1-10.2,1.5c-3.1,0.4-6.2,0.7-9.3,1
	c-3.1,0.2-6.3,0.4-9.4,0.7c-1.8,0.1-3.6,0.2-5.3,0.3c-1,0-1.9,0-2.9,0.1c-1.1,0-2.2,0.2-3.3,0.2c-1.9,0-3.8,0-5.8,0
	c-1.7,0-3.5,0.1-5.2,0.2c-3.8,0.2-7.6,0.2-11.4,0.5c-1.9,0.1-3.9,0.2-5.8,0.2c-2.8-0.2-5.7-0.6-8.5-1c-1.4-0.2-2.8-0.5-4.1-0.8
	c-1.3-0.2-2.6-0.5-3.9-0.9c-1.4-0.5-2.8-1-4.2-1.5c-1.1-0.3-2.1-0.7-3.2-1c-2.5-0.9-4.8-2.1-7.3-3c-1.6-0.6-3.3-1-5-1.3
	c-0.6-0.1-1.2-0.2-1.8-0.3c-1-0.1-2-0.2-3-0.1c-2.3,0.3-4.7,1.6-5.6,3.8c-0.4,0.9-0.6,1.9-0.6,2.8c0,0.8,0.2,1.5,0.6,2.2
	c0.5,1.3,1.2,2.5,2,3.7c0.9,1.2,1.9,2.4,2.8,3.6c0.9,1.2,1.8,2.2,2.8,3.2s2,1.9,3,2.8c2.2,2.1,4.4,4,6.5,6.2
	c1.1,1.1,2.2,2.2,3.4,3.2c1.1,0.9,2.2,1.8,3.3,2.7c1.1,0.9,2.2,1.9,3.4,2.8c1.3,0.9,2.6,1.8,3.9,2.6c1.4,0.9,2.6,1.9,3.9,2.9
	c1.3,1.2,2.6,2.3,4,3.4c1.2,1,2.5,1.8,3.8,2.6c1.5,1,3,1.9,4.5,2.8c4,2.5,8.2,4.6,12.2,7c2.2,1.4,4.3,2.9,6.5,4.2
	c1.2,0.7,2.4,1.2,3.6,1.7c1.1,0.4,2.1,0.9,3.2,1.4c2.3,0.9,4.6,2,7,2.8c1.3,0.4,2.7,0.7,4.1,0.8c1.3,0,2.6-0.1,3.9-0.4
	c1.1-0.1,2.1-0.6,2.8-1.4c1.4-1.7,1.2-4.2-0.5-5.6l0,0c-0.8-0.7-1.8-1-2.9-0.9c-1.1,0.2-2.2,0.4-3.3,0.4c-0.7-0.1-1.4-0.3-2.1-0.5
	c-2.3-0.8-4.5-1.8-6.7-2.8c-1.3-0.6-2.6-1.1-3.9-1.6c-1.3-0.6-2.5-1.3-3.7-2.1c-1.2-0.8-2.5-1.7-3.7-2.5c-1.5-0.9-2.9-1.8-4.5-2.6
	c-1.3-0.7-2.6-1.5-4-2.2c-1.4-0.8-2.9-1.5-4.2-2.4c-0.8-0.5-1.7-1.1-2.6-1.6c-2.3-1.5-4.6-3.1-6.7-4.9c-1.2-1-2.2-2.1-3.4-3
	c-1.3-1-2.6-1.8-3.9-2.7c-0.9-0.6-1.8-1.3-2.7-2c-1-0.8-2-1.7-3-2.5c-1.9-1.6-3.8-3.1-5.6-4.9c-1.8-1.8-3.7-3.6-5.5-5.3
	c-0.9-0.9-1.8-1.7-2.8-2.6c-0.7-0.7-1.5-1.3-2.2-2c-0.4-0.5-0.8-0.9-1.2-1.4c-0.6-0.7-1.1-1.4-1.6-2.2c-0.4-0.5-0.9-1.1-1.3-1.6
	c0.2,0,0.5,0.1,0.7,0.1c0.8,0.2,1.7,0.4,2.5,0.6c0.6,0.2,1.3,0.5,1.9,0.8c0.9,0.4,1.7,0.8,2.6,1.2c1,0.4,2,0.8,3,1.2
	c1.3,0.4,2.6,0.8,3.9,1.2l0.4,0.1c2,0.7,3.9,1.4,5.9,2c1.9,0.5,3.8,0.8,5.7,1.1c2.1,0.4,4.1,0.7,6.2,0.9c2.3,0.2,4.6,0.5,6.8,0.5
	c2,0.1,4.1-0.2,6.2-0.3c1.9-0.1,3.8-0.2,5.7-0.2c3.7-0.1,7.3-0.4,11-0.3c1.9,0,3.8,0.1,5.7-0.1c2-0.1,4-0.2,6-0.2
	c3.3-0.1,6.6-0.5,9.8-0.7c3.1-0.2,6.3-0.5,9.4-0.8c3.2-0.3,6.4-0.8,9.7-1.3c2.8-0.4,5.6-0.9,8.3-1.4c3-0.5,5.9-0.9,8.9-1.4
	c2.9-0.5,5.7-1,8.6-1.5c1.8-0.4,3.6-0.8,5.3-1.3c1.5-0.4,2.9-0.7,4.4-1c1.1-0.2,2.2-0.5,3.4-0.7c0.7-0.1,1.4-0.3,2.1-0.4
	c2.9-0.6,5.7-1.3,8.6-1.9c1-0.2,2-0.4,2.9-0.6c1.3-0.3,2.6-0.6,4-0.8h0.2l0.5-0.1h-0.2c1.9-0.4,3.8-0.9,5.7-1.4c2-0.5,4-0.9,6-1.4
	c0.9-0.2,1.8-0.4,2.8-0.6l0.8-0.2c0.3,0,0.7-0.1,1-0.2l0,0l0.6-0.1c0.4-0.1,0.8-0.2,1.2-0.3c0.8-0.2,1.5-0.3,2.3-0.5h-0.1
	c6.3-1.2,12.6-2.1,18.9-3.4c3.3-0.7,6.6-1.3,10-1.7c3.2-0.4,6.5-0.8,9.7-1.2c3.3-0.4,6.7-0.7,10.1-1c2.1-0.1,4.1-0.2,6.2-0.3
	c1.8-0.1,3.7-0.2,5.5-0.3c0.9,0,1.8,0,2.7,0c0.7,0,1.4,0,2.1,0c1.5,0,2.9,0,4.3,0.1c1.5,0.1,3,0.3,4.5,0.5c1.7,0.2,3.3,0.6,5,0.8
	c1.5,0.2,2.9,0.5,4.4,0.9s2.9,0.6,4.4,1c0.9,0.3,1.8,0.7,2.7,0.9c1,0.3,2,0.6,3.1,0.9c1.9,0.5,3.7,0.9,5.6,1.5
	c1.4,0.5,2.7,1.2,3.9,1.9c1.2,0.8,2.2,1.7,3.3,2.6c1.1,0.9,2.3,1.6,3.6,2.4c0.1,0.1,0.2,0.2,0.4,0.3c0.6,0.7,1,1.6,1.6,2.3
	c0.6,0.9,1.3,1.7,1.8,2.7c0.8,1.7,1.4,3.4,2.1,5.1c0.6,1.5,1.2,3.1,1.6,4.7c0.1,0.6,0.2,1.2,0.2,1.8c0.1,0.9,0.3,1.9,0.5,2.8
	c0.4,1.9,0.6,3.8,1,5.6c-0.1-0.3-0.1-0.7-0.2-1.1c0.3,1.3,0.4,2.5,0.5,3.8c0.1,1,0.1,2,0,3c-0.1,1.4-0.4,2.8-0.6,4.1
	c-0.2,1.4-0.2,2.9-0.2,4.3c0,1.1,0.1,2.2,0.1,3.3c0,0.8,0,1.7-0.1,2.5c0,0.1,0,0.1,0,0.2l0,0c-0.5,1-0.5,2.1-0.2,3.1
	c0.1,0.4,0.3,0.8,0.6,1.1c0.2,0.3,0.5,0.5,0.7,0.8c1.1,0.9,2.6,1.2,4,0.7c0.7-0.3,1.3-0.7,1.8-1.2c1-1,1-2.5,1-3.9
	c0.1-1.5,0.1-3,0.1-4.5s-0.1-3.1-0.1-4.6c0.2-2.2,0.7-4.4,0.7-6.7c0-1.2,0-2.4-0.1-3.5c-0.1-1.2-0.3-2.4-0.6-3.6l0,0
	c-0.4-1.8-0.6-3.7-1-5.5l0.1,0.6c-0.2-1.1-0.3-2.2-0.4-3.3c-0.2-1.5-0.5-2.9-1-4.3c-0.8-2.2-1.6-4.4-2.4-6.5
	c-0.6-1.4-1.3-2.8-2.1-4.2c-0.6-1-1.4-2-2.1-3c-0.3-0.4-0.6-0.9-0.9-1.3c-0.5-0.7-1-1.3-1.7-1.8c-0.9-0.7-1.8-1.3-2.8-1.8
	c-1.4-1-2.7-2.2-4.1-3.1c-1.7-1.2-3.6-2.3-5.6-3.1c-1.9-0.7-3.8-1.2-5.7-1.7c-1.6-0.4-3.1-0.8-4.7-1.3c-1.5-0.6-3.1-1.1-4.6-1.5
	c-0.8-0.2-1.7-0.3-2.5-0.5s-1.7-0.4-2.5-0.6c-1.6-0.3-3.3-0.6-5-0.9c-1.8-0.3-3.5-0.5-5.3-0.7C270,0.1,267.8,0,265.6,0
	c-0.8,0-1.6,0-2.4,0s-1.5,0-2.3,0C260.6,0,260.2,0,259.9,0z M325.2,66.7L325.2,66.7L325.2,66.7L325.2,66.7L325.2,66.7z M37.2,23.7
	l-0.4-0.1L37.2,23.7z M36.6,23.5l0.2,0.1l-0.6-0.2L36.6,23.5L36.6,23.5z"/>
<path class="st0" d="M310.5,22.2c-1,0.4-1.8,1.1-2.3,2.1c-0.1,0.2-0.2,0.4-0.4,0.6c-0.4,0.6-0.9,1.2-1.4,1.8
	c-1.1,0.9-2.3,1.7-3.5,2.5c-1.7,1.1-3.5,2.2-5.3,3.1c0.3-0.2,0.6-0.3,1-0.5c-2.5,1.3-5,2.7-7.5,4.1c-2.4,1.4-4.8,2.6-7.2,4
	c-2.3,1.3-4.5,2.7-6.8,4.1c-2.3,1.4-4.7,2.7-7.1,3.9c-3.3,1.7-6.7,3.2-10.1,4.5c-3.5,1.4-6.9,3.1-10.5,4.5
	c-3.6,1.5-7.3,2.8-10.9,4.1s-7.3,2.6-11,3.9c-3.5,1.2-6.9,2.4-10.3,3.7c-1.7,0.6-3.3,1.2-5,1.7c-1.9,0.6-3.8,1.1-5.7,1.7
	c-3.5,1.1-6.9,2.3-10.3,3.5c-0.8,0.3-1.7,0.6-2.5,0.9c-1,0.3-2,0.5-2.9,0.8c-1.9,0.5-3.8,1.1-5.6,1.9c-1.5,0.6-3,1.5-4.3,2.5
	c-0.6,0.5-1.2,1-1.8,1.6c-0.3,0.3-0.5,0.6-0.8,0.9c-0.4,0.6-0.8,1.2-1.1,1.8c-0.2,0.3-0.3,0.6-0.4,0.9c-0.5,1-0.7,2.1-0.6,3.2
	c0.1,0.7,0.3,1.3,0.5,1.9c0.7,2.1,3,3.2,5.1,2.4c2-0.7,3.1-2.8,2.5-4.8c0.1-0.1,0.1-0.2,0.2-0.3c0.3-0.4,0.6-0.8,1-1.1
	c0.5-0.4,1.1-0.8,1.6-1.1c1.7-0.7,3.4-1.3,5.1-1.9c1.9-0.6,3.8-1,5.7-1.7c3.3-1.2,6.7-2.4,10.1-3.5c1.8-0.6,3.7-1.1,5.5-1.7
	c1.8-0.5,3.5-1.1,5.3-1.8c3.5-1.2,6.9-2.5,10.4-3.7c7.2-2.6,14.5-5.1,21.7-7.9c1.8-0.7,3.6-1.5,5.4-2.3c1.7-0.8,3.5-1.5,5.3-2.3
	c1.9-0.8,3.8-1.5,5.6-2.3c1.7-0.7,3.3-1.6,4.9-2.4c1.5-0.7,3-1.6,4.5-2.3c1.4-0.7,2.8-1.4,4.1-2.2c2.4-1.4,4.6-2.9,7-4.2
	c2.4-1.4,4.9-2.7,7.3-4.1c2.3-1.3,4.6-2.6,7-3.9l-0.6,0.3c2.8-1.4,5.4-3,8-4.7c1.2-0.8,2.3-1.7,3.3-2.7c1.2-1.3,2.2-2.7,3-4.2
	c0.5-1,0.5-2.1,0.2-3.1C314.9,22.6,312.6,21.5,310.5,22.2L310.5,22.2z"/>
<path class="st0" d="M180.6,81.4c-0.4,0.1-0.8,0.2-1.1,0.4c-0.8,0.2-1.5,0.6-2.1,1c-0.4,0.3-0.9,0.7-1.2,1c-0.4,0.4-0.7,0.9-1.1,1.3
	c-0.5,0.8-1,1.6-1.3,2.6c-0.5,1.5-0.8,3-0.8,4.6c0,0.5,0,1,0,1.5c0,0.6-0.1,1.1-0.1,1.7c-0.1,1.3-0.1,2.7-0.1,4
	c0,2.8,0.3,5.6,0.7,8.3c0.1,1,0.2,2,0.4,3s0.4,2.1,0.5,3.1c0,0.1,0,0.3,0,0.4s0,0.1,0,0.2s0,0.2,0,0.4c0.2,1.7,0.4,3.3,0.7,5
	c0.3,1.5,0.7,2.9,0.9,4.4c0.3,1.4,0.4,2.9,0.7,4.3c0.2,1.4,0.5,2.8,0.7,4.3c0.1,1.2,0.3,2.4,0.5,3.6c0.2,1.7,0.3,3.4,0.6,5
	c0.3,1.7,0.7,3.4,1.1,5c0.8,3.3,1.5,6.6,2,10c0.2,1.3,0.3,2.6,0.5,3.9l-0.1-1.1c0.2,1.9,0.5,3.8,0.7,5.7c0,0.3,0.1,0.6,0.1,0.9
	c0,0.2,0,0.4,0.1,0.6c0,0.1,0,0.3,0,0.4c0,0.2,0,0.3,0.1,0.5c0,0.2,0.1,0.4,0.1,0.6c0.1,0.4,0.1,0.7,0.1,1.1c0.2,1.7,0.4,3.3,0.6,5
	c0.2,1.7,0.4,3.3,0.4,5c0.1,2,0.2,4,0.4,5.9c0.4,4,0.5,7.9,0.8,11.9c0.3,3.9,0.3,7.8,0.4,11.6c0.1,3.8,0.4,7.5,0.5,11.3
	c0.1,3.5,0.1,7.1,0,10.6c-0.1,3.4-0.5,6.8-0.8,10.1c-0.2,1.7-0.3,3.4-0.5,5.2s-0.4,3.4-0.6,5.1c-0.2,1.5-0.2,2.9-0.4,4.4
	s-0.3,3-0.5,4.4c0,0.2-0.1,0.4-0.1,0.7c-0.3,1.6-0.4,3.2-0.4,4.8c0,0.8,0,1.6,0,2.4c0.1,1,0.2,2.1,0.5,3.1c0.4,1.5,1,3.3,2.3,4.4
	c0.7,0.6,1.6,1.1,2.4,1.4c0.3,0.1,0.5,0.1,0.8,0.2c0.8,0.2,1.6,0.3,2.4,0.4c0.9,0.2,1.9,0.3,2.8,0.4h0.1h-0.1h0.3
	c0.2,0,0.4,0.1,0.6,0.1c0.3,0.1,0.7,0.1,1,0.1c2.2,0,4-1.7,4.1-3.9c0-0.7-0.2-1.4-0.5-2.1c-0.5-0.9-1.4-1.6-2.4-1.9
	c-0.7-0.1-1.4-0.2-2.1-0.3c-1.2-0.2-2.3-0.4-3.5-0.5c-0.2,0-0.3-0.1-0.5-0.1c-0.1-0.4-0.2-0.8-0.3-1.2c0-0.4,0-0.9,0-1.3
	c0-0.8-0.1-1.6,0-2.5c0-0.7,0.1-1.5,0.2-2.2c0-0.2,0-0.3,0.1-0.5c0.1-0.3,0.1-0.6,0.1-1c0.1-0.5,0.1-1.1,0.2-1.6
	c0.2-1.7,0.4-3.5,0.6-5.2c0.4-3.7,0.9-7.3,1.2-11c0.2-1.9,0.4-3.8,0.6-5.7c0.2-1.9,0.3-3.9,0.4-5.8c0.3-7.6-0.2-15.2-0.5-22.8
	c-0.2-3.9-0.1-7.9-0.4-11.8c-0.3-4-0.4-7.9-0.8-11.9c-0.2-2.1-0.3-4.3-0.4-6.4c-0.1-2.3-0.4-4.6-0.7-6.8c-0.2-1.6-0.3-3.2-0.6-4.8
	c0-0.3,0-0.5-0.1-0.8c0-0.2,0-0.5-0.1-0.7c0.6-0.7,0.9-1.5,0.9-2.4c-0.2-2.2-0.3-4.4-0.4-6.6c-0.1-2,0-3.9,0.1-5.9
	c0.1-1.9,0.4-3.9,0.4-5.8c0-2.1,0-4.1-0.1-6.2c0-1-0.2-2-0.3-3s-0.2-2.1-0.3-3.1c-0.2-2-0.3-3.9-0.5-5.9c-0.2-2.2-0.5-4.4-0.9-6.6
	c-0.4-1.9-0.9-3.9-1.2-5.8c-0.2-1.2-0.4-2.3-0.5-3.5c-0.2-1.8-0.3-3.7-0.5-5.5c-0.2-1.9-0.4-3.9-0.5-5.8c-0.1-2-0.2-3.9-0.2-5.9
	c0-1.8,0.3-3.7,0.1-5.5c-0.1-0.7-0.1-1.4-0.3-2.1c-0.1-0.7-0.4-1.3-0.7-1.9c-0.6-1-1.5-1.8-2.6-2.1c-0.4-0.2-0.9-0.2-1.3-0.2
	C181.4,81.2,181,81.3,180.6,81.4L180.6,81.4z M183.5,259.2c0,0.1,0,0.2,0,0.3l0,0C183.5,259.4,183.5,259.3,183.5,259.2L183.5,259.2z
	 M194.3,277.4L194.3,277.4H194H194.3L194.3,277.4z"/>
<path class="st0" d="M589.3,196.1c-1.4,0.1-2.7,0.1-4.1,0.1c-4.4-0.1-8.8-0.1-13.2,0c-4.5,0.1-9,0.3-13.5,0.5
	c-2.3,0.1-4.7,0.2-7,0.3c-2.1,0.1-4.2,0.4-6.3,0.7c-2.3,0.3-4.6,0.6-6.8,0.9c-2.4,0.4-4.7,0.8-7,1.3c-2.2,0.5-4.4,1-6.6,1.4
	s-4.4,0.7-6.6,1.1c-2.3,0.4-4.6,0.7-6.9,1.1c-2.3,0.4-4.5,1-6.8,1.5c-8.7,1.9-17.7,3.2-26,6.5c-2,0.8-4,1.7-6,2.5
	c-2.1,0.9-4.1,1.7-6.2,2.6c-3.8,1.6-7.6,2.9-11.3,4.7c-1.8,0.8-3.6,1.6-5.5,2.3c-0.9,0.3-1.8,0.6-2.6,0.9c-0.9,0.3-1.8,0.7-2.8,1
	c-3.9,1.4-7.7,2.9-11.4,4.5c-1.9,0.9-3.8,1.7-5.8,2.4c-1.8,0.7-3.7,1.4-5.5,2.2c-4.1,1.8-8.3,3.3-12.5,4.9c-2.1,0.8-4.3,1.5-6.5,2.4
	c-2.3,0.9-4.6,1.7-6.9,2.5c-2.2,0.7-4.3,1.5-6.4,2.3c-2,0.7-4,1.4-6,2.1c-4,1.5-8,3.2-12,4.7c-2,0.7-4,1.6-6,2.3
	c-2.1,0.8-4.4,1.3-6.5,1.9c-3.7,1-7.3,2.2-11,3.3c-3.8,1-7.6,2.1-11.4,3.1c-1.6,0.4-3.3,0.7-4.9,1.1s-3.1,0.9-4.6,1.4
	s-3.1,1-4.6,1.5s-3,0.9-4.5,1.3c-2.5,0.6-5,1.1-7.5,1.7c-2.8,0.6-5.7,1.2-8.5,1.6c-2.7,0.4-5.4,0.9-8.2,1.2
	c-1.4,0.1-2.8,0.2-4.1,0.2c-1.7,0-3.3,0.1-5,0.1c-1.1,0-2.3,0-3.4,0c-1.3,0.1-2.6,0.2-3.9,0.3c-2.5,0.3-5,0.1-7.6,0.3
	c-2.7,0.2-5.4,0.5-8.1,0.7s-5.5,0.3-8.2,0.3c-1.3,0-2.5,0-3.8,0c-1.2,0-2.5,0-3.7,0.1c-0.8,0-1.6-0.1-2.4-0.2
	c-1.1-0.1-2.3-0.3-3.4-0.4c-2.4-0.3-4.8-0.5-7.1-0.9c-3.8-0.7-7.7-0.7-11.6-1.2c-1-0.1-2-0.3-3-0.4c-1.1-0.1-2.2-0.1-3.3-0.1
	c-2-0.1-4-0.4-6-0.8c-1.1-0.2-2.2-0.5-3.3-0.6c-1-0.2-2.1-0.3-3.1-0.4c-1.1-0.2-2.1-0.4-3.2-0.6c-1.2-0.2-2.5-0.3-3.8-0.4
	c-1-0.1-2.1,0.1-3,0.8c-1.8,1.3-2.1,3.8-0.8,5.6c0.6,0.9,1.6,1.4,2.6,1.6c1.2,0.1,2.4,0.2,3.6,0.4c1.2,0.1,2.3,0.4,3.4,0.6
	c1,0.2,2.1,0.3,3.1,0.4c1.2,0.2,2.4,0.4,3.6,0.7c2,0.4,4,0.7,6,0.7c1.1,0,2.2,0.1,3.2,0.1c1.1,0.1,2.2,0.3,3.3,0.4
	c2,0.2,4,0.3,6,0.4c1.9,0.1,3.8,0.4,5.7,0.8c2.4,0.4,4.9,0.6,7.3,0.9c1.1,0.1,2.3,0.3,3.4,0.4c1.3,0.1,2.7,0.1,4,0.1
	c1.6,0,3.1-0.1,4.7-0.1l0,0c1.3,0,2.6,0,3.9,0.1c1.5,0,2.9-0.1,4.4-0.2c2.8-0.1,5.5-0.4,8.3-0.6c2.6-0.3,5.1-0.3,7.7-0.3
	c1.3,0,2.7-0.2,4-0.3c1.3-0.1,2.6-0.2,3.9-0.2c4.4,0.2,8.7,0,13.1-0.6c4.2-0.6,8.5-1.2,12.7-2.1c2.1-0.5,4.2-0.9,6.4-1.4
	c2.2-0.5,4.5-1,6.7-1.6c3.9-1.2,7.6-2.6,11.5-3.6c2.2-0.5,4.4-1,6.6-1.6c2.1-0.5,4.1-1.1,6.1-1.7c4.1-1.1,8.2-2.4,12.3-3.6
	c2.3-0.7,4.6-1.2,6.8-1.9c2.4-0.7,4.7-1.6,7-2.6c2.1-0.8,4.3-1.7,6.4-2.5c2.2-0.9,4.4-1.8,6.6-2.6c2.1-0.7,4.1-1.4,6.2-2.2
	s4.2-1.6,6.4-2.3c2.3-0.7,4.5-1.6,6.8-2.4c2.2-0.8,4.4-1.6,6.7-2.4c4.2-1.6,8.4-3,12.4-4.8c3.8-1.7,7.7-2.9,11.4-4.7
	c1.8-0.9,3.8-1.7,5.7-2.4c1.9-0.7,3.8-1.5,5.8-2.2c1.8-0.6,3.6-1.3,5.4-1.9c0.9-0.3,1.7-0.7,2.6-1c0.9-0.4,1.8-0.8,2.7-1.2
	c1.7-0.8,3.5-1.6,5.2-2.3c2-0.9,4.1-1.6,6.2-2.4c2-0.9,4-1.6,6-2.5c2.1-0.9,4.1-1.8,6.2-2.6c2.9-1.1,5.8-2,8.8-2.8
	c4.3-1,8.6-1.8,12.9-2.7c4.5-1,8.9-2.1,13.4-2.8s9-1.3,13.4-2.3c4.5-1.1,9.1-1.9,13.8-2.4c3.2-0.4,6.4-0.9,9.7-1.1
	c1.7-0.1,3.3-0.2,5-0.2s3.4-0.1,5-0.2c3.4-0.2,6.9-0.3,10.3-0.4c3-0.1,6.1-0.1,9.2-0.1c2.1,0.1,4.3,0.1,6.4,0.1c1.7,0,3.3-0.2,5-0.2
	c1.6,0.1,3.3,0.3,4.9,0.4c1.9,0.2,3.9,0.2,5.8,0.2c4.2,0.1,8.5,0.4,12.7,0.7c4.3,0.3,8.6,0.9,12.8,1.5c2.1,0.3,4.1,0.5,6.2,0.9
	c2.2,0.4,4.4,0.9,6.6,1.3c1.8,0.4,3.7,0.7,5.5,1.1c2,0.4,4,0.9,6,1.3c1.7,0.4,3.4,0.7,5.1,0.9c0.6,0.1,1.3,0.1,1.9,0.3
	c0.5,0.1,1,0.2,1.5,0.4c1.3,0.4,2.6,1,3.9,1.7c1,0.4,2,0.4,3,0c2.1-0.8,3.1-3.1,2.3-5.2l0,0c-0.4-1-1.2-1.8-2.2-2.2
	c-0.5-0.3-1.1-0.5-1.6-0.8c-1.4-0.6-2.9-1.1-4.5-1.5c-0.9-0.2-1.7-0.4-2.5-0.5c-4.2-0.6-8.4-1.4-12.5-2.4c-1.8-0.4-3.7-0.7-5.5-1.1
	c-2.2-0.4-4.4-0.9-6.7-1.4c-2-0.4-4-0.5-6.1-0.8c-2.2-0.3-4.3-0.6-6.5-0.9c-3.7-0.5-7.5-0.6-11.2-0.8c-1.9-0.1-3.8-0.2-5.8-0.3
	c-1.7-0.1-3.3-0.1-5-0.1c-2.9-0.2-5.7-0.6-8.6-0.6h-0.2C591.9,195.9,590.6,196,589.3,196.1L589.3,196.1z M253.5,275.8h0.3H253.5z
	 M250.2,283.7h0.5H250.2z"/>
<path class="st0" d="M533,13.6c-2.4,0-4.7,0.2-7.1,0.4c-2.3,0.1-4.5,0.4-6.7,0.7c-2.4,0.3-4.9,0.7-7.3,1c-4.9,0.5-9.8,1.2-14.7,2.1
	c-1.8,0.3-3.5,0.7-5.2,1.1l0.3-0.1l-0.4,0.1l0,0c-2.2,0.5-4.4,1-6.6,1.5c-2.5,0.5-5,1.1-7.5,1.6s-5,0.8-7.6,1.2
	c-2.4,0.4-4.8,1-7.1,1.6c-2.7,0.6-5.5,1.2-8.1,2.1c-2.4,0.7-4.8,1.4-7.2,2.1s-4.8,1.3-7.2,2.1c-1.1,0.4-2.2,0.8-3.3,1.2
	c-1.1,0.4-2.3,0.8-3.4,1.1c-2.4,0.8-4.8,1.5-7.1,2.4c-2.1,0.8-4.2,1.5-6.4,2.3c-2.2,0.8-4.3,1.5-6.5,2.3c-2.2,0.9-4.4,1.8-6.7,2.6
	c-4.9,1.7-9.7,3.6-14.6,5.2c-2.3,0.8-4.6,1.7-6.8,2.8c-1.1,0.5-2.2,0.9-3.3,1.4s-2.2,1-3.3,1.5c-1,0.4-2.1,0.9-3.1,1.4
	c-1.3,0.5-2.6,0.9-3.9,1.4c-2.4,0.8-4.6,1.8-6.9,2.8c-1.1,0.5-2.2,0.8-3.3,1.2c-1.2,0.4-2.4,0.9-3.6,1.3c-2.4,0.8-4.8,1.8-7.1,2.8
	c-2.2,1-4.3,2.1-6.6,2.9c-2.2,0.8-4.4,1.6-6.7,2.4c-1.1,0.4-2.3,0.8-3.4,1.3s-2.3,1-3.4,1.5c-2.2,0.9-4.5,1.8-6.7,2.7
	c-4.9,2-9.8,4.1-14.8,5.8c-2.9,1-5.8,1.8-8.6,2.8s-5.7,1.9-8.6,2.7c-2.6,0.6-5.2,1.2-7.8,1.8c-3.2,0.8-6.4,1.7-9.6,2.5
	c-3,0.7-6.1,1.2-9.2,1.8c-3,0.5-6.1,1.2-9.1,1.6s-6.1,0.9-9.2,1.1c-2.8,0.2-5.6,0.2-8.3,0.2c-1.4,0-2.8-0.1-4.3-0.1
	c-3.3-0.1-6.5-0.3-9.8-0.4c-3.2-0.1-6.3-0.6-9.4-0.8c-1.6-0.1-3.1-0.2-4.6-0.5c-1.5-0.2-3-0.6-4.5-1c-2.8-0.7-5.7-0.7-8.5-1.4
	c-1.5-0.5-3-1-4.5-1.5c-1.3-0.4-2.6-0.8-3.9-1.1c-1.1-0.2-2.2-0.4-3.2-0.7c-1.8-0.5-3.6-1.1-5.4-1.6c-0.3-0.1-0.7-0.2-1-0.3
	c-2.2-0.3-4.2,1.2-4.5,3.4c-0.1,0.7,0,1.4,0.2,2c0.4,1,1.2,1.8,2.2,2.2c1.9,0.6,3.8,1.2,5.7,1.7c2.2,0.6,4.4,1,6.5,1.5
	c1.6,0.5,3.1,1.1,4.7,1.5c1.2,0.4,2.3,0.7,3.5,0.9c0.9,0.2,1.9,0.3,2.8,0.4c1.7,0.2,3.4,0.5,5,0.9c1.8,0.5,3.7,0.8,5.6,1
	c1.7,0.2,3.4,0.3,5.1,0.4c2,0.2,3.9,0.4,5.9,0.5c4.1,0.2,8.2,0.4,12.4,0.5c2,0,4.1,0.1,6.1,0.1c1.9,0,3.9,0,5.8-0.1
	c4.1-0.3,8.2-0.8,12.2-1.5c2-0.3,4.1-0.8,6.1-1.1c2.2-0.4,4.4-0.8,6.6-1.2c4.7-0.8,9.2-2.2,13.8-3.3c4.6-1.1,9.3-2.1,13.8-3.5
	c2.4-0.8,4.9-1.7,7.3-2.4c2.5-0.8,4.9-1.6,7.4-2.4c4.1-1.5,8.1-3.1,12.1-4.8c2.1-0.9,4.3-1.8,6.4-2.6c2.3-0.9,4.6-2,6.9-2.9
	c2.3-0.8,4.6-1.6,6.8-2.4c2.1-0.8,4.2-1.7,6.3-2.7c2.3-1.1,4.6-2.1,7-2.9s4.8-1.7,7.1-2.5c2.3-0.8,4.5-1.9,6.8-2.8
	c1.2-0.4,2.4-0.8,3.5-1.2s2.3-0.9,3.5-1.4c2.2-1,4.4-2,6.6-2.9c2.3-1,4.4-2,6.7-2.8c2.4-0.9,4.8-1.6,7.2-2.5
	c2.4-0.9,4.8-1.8,7.2-2.6c2.4-0.8,4.7-1.7,7.1-2.7c2.1-0.8,4.2-1.6,6.4-2.3c4.5-1.6,8.9-3.3,13.3-4.7c2.3-0.7,4.6-1.5,6.9-2.3
	c2.4-0.8,4.8-1.5,7.2-2.2c2-0.5,3.9-1.1,5.9-1.6c1.9-0.6,3.8-1.1,5.8-1.6c2.5-0.6,5-1.2,7.4-1.7c2.9-0.6,5.9-1,8.8-1.5
	s5.8-1.2,8.7-1.9c2.7-0.6,5.3-1.2,8-1.8c1.8-0.4,3.6-0.7,5.4-1c1.9-0.3,3.8-0.7,5.7-1c1.9-0.3,3.7-0.5,5.6-0.7s3.7-0.4,5.6-0.6
	c3.5-0.5,7-1,10.5-1.2c1.8-0.1,3.6-0.2,5.4-0.3c1.7-0.1,3.5-0.1,5.2,0c3,0.1,6,0.4,8.9,0.5c3.3,0.2,6.6,0.3,9.9,0.3
	c3.1,0,6.2-0.1,9.2-0.3c3-0.2,6-0.4,9-0.4c2.3,0.2,4.6,0.5,6.8,0.9c2.3,0.4,4.6,0.7,6.9,1c4.7,0.6,9.5,1.3,14.2,1.9
	c2.4,0.3,4.8,0.6,7.2,0.8c2.2,0.2,4.4,0.3,6.6,0.6c4.8,0.5,9.6,1.2,14.4,2.2c0.9,0.2,1.8,0.5,2.8,0.7c-0.3-0.1-0.7-0.2-1-0.3
	c0.9,0.2,1.8,0.5,2.7,0.7c2.7,0.8,5.4,1.6,8.1,2.2c2.4,0.6,4.8,1,7.3,1.5c2.6,0.5,5.2,1.1,7.9,1.6c2.1,0.4,4.2,0.8,6.3,1.3
	c0.1,0,0.1,0,0.2,0.1l0,0c0.8,0.7,1.9,1,2.9,0.8c2.2-0.2,3.8-2.2,3.5-4.4l0,0l-0.2-1c-0.3-0.7-0.7-1.3-1.3-1.7
	c-0.7-0.6-1.6-1.1-2.5-1.3c-0.9-0.3-1.8-0.5-2.7-0.7c-1-0.2-1.9-0.4-2.9-0.6c-2.5-0.4-4.9-0.9-7.4-1.4c-2.4-0.5-4.7-0.9-7.1-1.4
	s-4.7-1.1-7-1.7c-1.3-0.4-2.7-0.8-4-1.2c-2.3-0.6-4.6-1.3-6.9-1.7c-2.4-0.5-4.9-0.8-7.3-1.2c-4.6-0.7-9.3-0.8-14-1.4
	c-4.6-0.5-9.2-1.2-13.8-1.8c-4.8-0.6-9.7-1.3-14.5-2c-2.3-0.4-4.6-0.5-6.9-0.5c-2,0-3.9,0.1-5.9,0.3c-4.2,0.3-8.4,0.5-12.6,0.4
	c-2.1-0.1-4.2-0.1-6.3-0.3c-1-0.1-2.1-0.1-3.2-0.2c-1.3-0.1-2.5-0.2-3.8-0.3c-2.1-0.1-4.3-0.2-6.4-0.2
	C534.1,13.6,533.6,13.6,533,13.6L533,13.6z"/>
<path class="st0" d="M535.7,4.7c-1.9,0.1-3.7,0.1-5.6,0.2c-2,0.1-3.9,0.3-5.9,0.5c-1.8,0.2-3.6,0.4-5.4,0.5
	c-1.7,0.1-3.4,0.4-5.1,0.6c-3.6,0.5-7.3,1.1-10.9,1.8c-2,0.4-4.1,0.7-6.1,1.1c-2.1,0.4-4.2,0.8-6.4,1.2c-2.2,0.4-4.4,0.8-6.6,1.3
	c-2.3,0.5-4.5,1.1-6.8,1.7c-3.6,0.8-7.3,1.4-11,2.2c-4.1,0.9-8.2,2-12.2,3.3c-3.7,1.2-7.5,2.4-11.3,3.5s-7.6,2.2-11.4,3.6
	c-3.9,1.4-7.7,2.9-11.6,4.3c-3.6,1.3-7.3,2.6-10.8,4.1s-7.1,2.9-10.6,4.3c-3.7,1.4-7.5,2.8-11.2,4.2c-1.7,0.7-3.5,1.3-5.2,2
	c-1.9,0.8-3.8,1.6-5.7,2.5c-3.7,1.8-7.4,3.6-11.2,5.3c-3.4,1.5-6.9,2.7-10.3,4.2c-3.6,1.7-7.2,3.5-10.8,5.3
	c-2.9,1.5-5.9,2.8-8.7,4.4l-0.9,0.5c-0.6,0.4-1,1-1.3,1.6c-0.9,2,0.1,4.4,2.1,5.2l0,0c1,0.4,2,0.4,3,0c3.7-2,7.5-3.8,11.2-5.7
	c3.6-1.8,7.2-3.6,10.9-5.2c3.5-1.4,6.9-2.7,10.3-4.3c1.8-0.8,3.6-1.7,5.4-2.6c1.8-0.9,3.7-1.8,5.6-2.6c3.6-1.5,7.3-2.9,11-4.3
	c3.8-1.5,7.6-2.8,11.4-4.3c3.5-1.4,6.9-2.8,10.3-4.2c3.6-1.4,7.3-2.7,11-4c3.3-1.2,6.7-2.5,10-3.7c3.2-1.2,6.5-2.1,9.8-3
	s6.6-1.9,9.8-3c1.6-0.5,3.2-1.1,4.9-1.5c1.6-0.5,3.2-0.9,4.8-1.3c2.8-0.6,5.5-1.2,8.3-1.7c3.5-0.6,6.8-1.4,10.2-2.3l-1,0.2
	c1.9-0.5,3.8-0.9,5.7-1.3c2-0.4,4-0.7,6-1c1.9-0.3,3.9-0.8,5.8-1.1c1.8-0.3,3.5-0.6,5.3-0.9c3.6-0.7,7.3-1.2,10.9-1.7
	c1.7-0.2,3.4-0.4,5.1-0.6c1.8-0.1,3.7-0.4,5.5-0.6c3.2-0.3,6.4-0.5,9.6-0.6c3.3,0,6.5-0.2,9.8-0.2c1.2,0,2.4,0.1,3.5,0.1
	c2.1,0,4.2,0.1,6.3,0.1c-0.3,0-0.7,0-1,0c4,0.1,8,0.4,12.1,0.7c1.9,0.1,3.8,0.2,5.7,0.4s3.9,0.4,5.8,0.7c2,0.2,4.1,0.4,6.1,0.7
	c1.8,0.2,3.6,0.5,5.5,0.8c3.9,0.6,7.7,1.3,11.5,2c2.3,0.5,4.7,0.9,7,1.4c2.1,0.5,4.3,0.9,6.4,1.4c2,0.4,4.1,0.7,6.1,1.1
	c2.3,0.4,4.5,1,6.8,1.6c1.7,0.5,3.4,1,5.2,1.4c1.5,0.4,2.9,0.7,4.4,1c2.5,0.8,5,1.5,7.4,2.2c0,0.2,0,0.4,0,0.6
	c0.1,1.1,0.7,2,1.5,2.7c0.8,0.6,1.9,0.9,2.9,0.8c0.9,0,1.7,0,2.5,0c1.1,0,2.3,0.1,3.4,0.2c1.3,0.2,2.7,0.6,4,0.9
	c1.3,0.3,2.6,0.4,3.9,0.7c1,0.2,2.1,0.5,3.1,0.8c1.2,0.3,2.3,0.7,3.5,1.1c0.5,0.2,1,0.4,1.5,0.7s1,0.4,1.5,0.5
	c1.1,0.2,2.2-0.1,3.1-0.8c1.8-1.4,2.1-4,0.8-5.8l-0.1-0.1c-1-1.1-2.2-1.9-3.6-2.4c-1.4-0.5-2.8-0.9-4.2-1.3
	c-2.5-0.7-4.9-1.6-7.4-2.4c-3.1-1-6.4-1.7-9.6-2.6c-3.1-0.9-6.2-1.7-9.2-2.7c-3.8-1.2-7.7-2-11.5-3c-4-1.1-8.1-2-12.2-2.7
	c-3.7-0.6-7.3-1.6-11-2.3c-2-0.4-4.1-0.8-6.1-1.1c-1.8-0.3-3.6-0.7-5.5-1c-3.8-0.6-7.7-1.3-11.5-1.7c-5.2-0.6-10.4-1.3-15.6-1.5
	c-2.6-0.1-5.1-0.4-7.7-0.5c-2.7-0.2-5.5-0.2-8.2-0.3c-1.6,0-3.2-0.1-4.7-0.1h0.1h-0.4h-0.2h0.1c-1.3,0-2.6,0-3.9,0
	C541,4.6,538.3,4.6,535.7,4.7L535.7,4.7z M548.4,12.5h0.3C548.6,12.5,548.5,12.5,548.4,12.5z M548.4,4.6h-0.3H548.4z"/>
<path class="st0" d="M503.1,11.9c-2.6,0.6-5.2,1.3-7.8,2.1c-2.3,0.9-4.6,2-6.8,3.2c-1,0.4-1.8,1.2-2.2,2.2c-0.9,2,0.1,4.4,2.1,5.2
	l0,0c1,0.4,2,0.4,3,0c1.8-0.9,3.6-1.8,5.4-2.6c1.7-0.7,3.5-1.3,5.4-1.8c2-0.5,4-1,6-1.4c2.5-0.4,5-0.8,7.6-1.2
	c4.4-0.5,8.9-0.7,13.3-0.7c3.9,0.2,7.9,0.5,11.8,0.7c3.9,0.3,7.8,0.4,11.7,0.9c2.2,0.3,4.2-1.3,4.5-3.5c0.3-2.1-1.2-4.1-3.3-4.4
	c-4.2-0.5-8.5-0.6-12.7-0.9c-4.5-0.3-8.9-0.7-13.4-0.7c-0.3,0-0.7,0-1,0C518.6,9.1,510.8,10,503.1,11.9L503.1,11.9z"/>
<path class="st0" d="M723.6,51c-0.6-0.4-1.3-0.8-2-1.1s-1.5-0.7-2.2-1.1c-0.7-0.4-1.3-0.8-1.9-1.3c-1.7-1.1-3.5-2-5.3-2.8
	c-1.7-0.8-3.4-1.7-5.1-2.6c-1.5-0.8-3-1.7-4.6-2.5c-1.5-0.7-3-1.5-4.5-2.3s-2.9-1.5-4.4-2.3s-3-1.6-4.5-2.3
	c-3.5-1.7-7.1-3.2-10.8-4.5c-3.2-1.1-6.3-2.5-9.5-3.5c-1.5-0.4-3.1-0.7-4.6-1.1c-1.6-0.4-3.1-0.9-4.6-1.5s-3-1-4.5-1.3
	c-2.1-0.4-4.2-0.9-6.2-1.4c-0.3-0.1-0.7-0.1-1-0.1c-2.2,0-4,1.7-4.1,3.9c0,1.8,1.2,3.4,3,3.9c1.7,0.4,3.4,0.8,5.1,1.2
	c1.4,0.3,2.8,0.6,4.1,1c1.2,0.4,2.3,0.9,3.4,1.3c1.3,0.5,2.6,0.8,4,1.1c1.3,0.3,2.6,0.6,3.8,1s2.5,0.9,3.7,1.4
	c1.3,0.5,2.7,1.1,4.1,1.6c1.5,0.6,3.1,1,4.6,1.6c2.9,1.2,5.8,2.6,8.6,4.1c3,1.6,5.9,3.1,8.9,4.6c3.1,1.6,6.2,3.3,9.3,4.9
	c0.9,0.5,1.9,0.9,2.8,1.3c1,0.5,2,1,3,1.5c1.4,0.8,2.5,1.8,4,2.4c1.1,0.5,2.1,1,3.2,1.6c0.2,0.2,0.4,0.4,0.7,0.6
	c0.3,0.3,0.7,0.6,1.2,0.8c0.7,0.5,1.5,0.8,2.4,0.8L723.6,51z"/>
<path class="st0" d="M723.6,52c-0.6-1-1.2-2-2-2.9c-1.3-1.5-2.8-2.7-4.4-3.8c-3.2-2.2-6.6-4-10.2-5.5c-3.7-1.7-7.5-3.4-11.1-5.3
	c-1.9-1-3.7-2-5.6-3.1c-1.6-0.9-3.1-1.8-4.7-2.7c-1.8-0.9-3.7-1.7-5.7-2.4c-1.5-0.5-3-0.9-4.6-1.4s-3.2-1-4.8-1.5
	c-1.6-0.4-3.2-0.7-4.8-1.1c-3.6-0.9-7.1-2-10.5-3.3c-3.3-1.1-6.6-1.9-9.9-2.8c-1.1-0.3-2.2-0.4-3.3-0.5c-1-0.1-2-0.2-3-0.3
	c-1.9-0.1-3.8-0.2-5.6-0.5c-3.6-0.4-7.2-0.7-10.8-1.1c-3.6-0.5-7.3-0.9-10.9-1.3c-3.9-0.4-7.7-0.6-11.6-0.7
	c-1.8-0.1-3.7-0.2-5.5-0.2c-0.9,0-1.7-0.1-2.6-0.1c-0.6,0-1.2,0-1.8,0c-0.5,0-1.1,0-1.6,0.2c-1.7,0.5-3,2-3,3.8c0,0.7,0.2,1.4,0.5,2
	c0.5,0.9,1.4,1.6,2.4,1.9c0.3,0.1,0.6,0.1,0.9,0.2c0.5,0.1,1.1,0.2,1.6,0.2s0.9,0.1,1.4,0.1c1.7,0.2,3.4,0.6,5.1,1.1
	c2,0.6,4,1.2,6,1.8c3.9,1.2,7.8,2.3,11.7,3.4s7.8,2,11.7,3.1c1.9,0.5,3.8,1.1,5.7,1.7s3.9,1.4,5.8,2.1c6.3,2.3,12.9,3.6,19.4,5.5
	c3.1,0.9,6.2,2.2,9.2,3.4c3.1,1.3,6.3,2.4,9.4,3.7l-0.2-0.1c1.3,0.5,2.5,1,3.8,1.5c1.8,0.8,3.5,1.6,5.3,2.4c2,0.9,4,1.6,5.9,2.4
	c3.6,1.6,7.2,3.4,10.6,5.5c1.6,0.9,3.1,1.9,4.7,2.9c1.6,1,3.3,1.9,5,2.8s3.5,1.7,5.2,2.7s3.4,1.9,5,3c0.6,0.4,1.1,0.7,1.7,1.1
	L723.6,52z M651.2,28.7c-1.8-0.5-3.5-0.9-5.2-1.5c-2-0.6-4-1.3-6-2c-1.9-0.7-3.7-1.4-5.6-2c-0.2-0.1-0.5-0.2-0.7-0.2
	c2.7,0.3,5.5,0.4,8.2,0.7c1.5,0.3,3,0.6,4.4,1.1c1.6,0.4,3.2,0.8,4.8,1.3c0.3,0.1,0.6,0.2,0.9,0.3C651.4,27,651.1,27.9,651.2,28.7
	L651.2,28.7z"/>
<path class="st0" d="M723.6,224.7c-0.3-0.2-0.6-0.3-0.9-0.5c-3.4-1.9-6.6-4-10.1-5.8s-6.9-3.4-10.4-5.1c-3.7-1.8-7.5-3.4-11.4-4.9
	c-3.8-1.5-7.7-2.7-11.5-3.9c-1.8-0.5-3.6-1-5.4-1.6c-1.7-0.6-3.5-1.2-5.3-1.8s-3.6-1-5.5-1.4c-1.7-0.4-3.3-0.7-5-1
	c-2.2-0.5-4.5-1-6.8-1.3c-0.3,0-0.7-0.1-1-0.1c-1.2-0.3-2.4-0.7-3.6-1c-2-0.5-4-1.1-6-1.5c-1.2-0.3-2.4-0.4-3.6-0.6
	c-0.8-0.1-1.7-0.2-2.6-0.2c-0.1,0-0.2,0-0.3,0c-0.8,0-1.7,0.1-2.5,0.3c-1.5,0.4-2.6,1.5-3.1,3c-0.2,0.7-0.2,1.4,0,2.1
	c0.2,0.7,0.6,1.4,1.1,2c0.7,0.7,1.6,1.2,2.5,1.4c0.5,0.1,1,0.2,1.5,0.4c0.7,0.2,1.4,0.5,2.1,0.7c3.5,1.1,6.9,2.5,10.3,3.9l-0.9-0.4
	c1.8,0.7,3.6,1.5,5.4,2.1c3.4,1.6,6.9,3,10.5,4.2c1.9,0.6,3.7,1.2,5.6,1.7c1.6,0.4,3.2,0.9,4.7,1.4c0.2,0.1,0.5,0.2,0.7,0.3
	c3.4,1.6,6.7,3.2,10,5.1c3.5,1.9,6.9,3.9,10.5,5.6c3.6,1.7,7.4,3.3,11,5.1c1.8,0.9,3.5,1.8,5.2,2.7s3.3,2,4.9,3.1
	c3.2,2.2,6.4,4.4,9.6,6.6L723.6,224.7z"/>
<path class="st0" d="M634.8,195.1L634.8,195.1L634.8,195.1L634.8,195.1L634.8,195.1z"/>
<path class="st0" d="M672.7,217.1l0.4,0.2L672.7,217.1z"/>
<path class="st0" d="M193,236.9c-0.1,0.7,0.4,1.3,1.1,1.4c1.4,0.1,2.8,0.1,4.1,0.3c0.6,0.1,1.2,0.2,1.8,0.3s1.3,0.3,1.9,0.4
	c2.6,0.5,5.1,1.2,7.7,1.6c0.6,0.1,1.2,0.1,1.8,0.2c0.7,0.1,1.4,0.1,2.1,0.2c0.7,0.1,1.3-0.4,1.4-1.1s-0.4-1.3-1.1-1.4
	c-0.7-0.1-1.4-0.1-2.1-0.2c-0.6-0.1-1.3-0.1-1.9-0.2c-1.3-0.2-2.5-0.5-3.8-0.7c-1.3-0.3-2.6-0.6-3.8-0.9c-0.6-0.1-1.3-0.3-1.9-0.4
	c-0.6-0.1-1.2-0.2-1.8-0.3c-1.3-0.2-2.7-0.2-4-0.3h-0.1C193.6,235.8,193,236.3,193,236.9L193,236.9z"/>
<path class="st0" d="M192.6,241.6c-0.3,0.6,0.1,1.4,0.7,1.6c1.3,0.6,2.6,1.1,3.9,1.5c1.3,0.4,2.6,0.6,4,0.8c1.3,0.2,2.5,0.3,3.8,0.5
	s2.7,0.3,4,0.4c2.4,0.3,4.9,0.6,7.3,0.9c1.4,0.2,2.7,0.2,4.1,0.2c1.3,0,2.6-0.1,3.9-0.1c0.6,0,1.3,0,1.9,0H226c1.7,0,3.3-0.1,5-0.1
	c0.5,0,1,0,1.4,0.1c0.6,0.2,1.3-0.1,1.5-0.7c0.1-0.3,0.1-0.7,0-1s-0.4-0.5-0.7-0.7c-0.3-0.1-0.6-0.1-0.9-0.2c-0.1,0-0.3,0-0.5,0
	s-0.5,0-0.8,0c-0.6,0-1.2,0-1.8,0c-1,0-2,0.1-3,0.1c-1.3,0-2.5,0-3.8,0c-1.2,0-2.3,0.1-3.5,0.1c-0.6,0-1.2,0-1.9-0.1
	s-1.2-0.1-1.8-0.2c-1.3-0.2-2.6-0.3-3.8-0.5c-2.5-0.3-5.1-0.6-7.6-0.9c-1-0.1-2-0.2-2.9-0.4c-0.9-0.1-1.9-0.3-2.8-0.5
	c-1.4-0.4-2.8-1-4.1-1.6c-0.1-0.1-0.3-0.1-0.5-0.1C193.2,240.9,192.8,241.2,192.6,241.6L192.6,241.6z"/>
<path class="st0" d="M193.7,250c-0.5,0.4-0.6,1.2-0.2,1.8c0.2,0.3,0.5,0.4,0.8,0.5c0.7,0,1.4,0,2.1,0s1.4,0.1,2.1,0.2
	c1.3,0.1,2.7,0.3,4,0.4c1.2,0.1,2.5,0.2,3.7,0.3c0.6,0,1.2,0.1,1.8,0.1s1.2,0.1,1.8,0.2c2.6,0.3,5.3,0.4,7.9,0.6
	c1.3,0.1,2.5,0.1,3.8,0.2c1.4,0,2.8,0,4.2-0.1c1.5-0.1,3.1,0,4.6-0.1c1.4,0,2.8-0.1,4.2-0.1c1.7,0,3.5-0.1,5.2-0.1
	c0.2,0,0.3,0,0.5,0c0.7,0.1,1.3-0.4,1.4-1.1c0.1-0.7-0.4-1.3-1.1-1.4c-0.9-0.1-1.9,0-2.8,0c-0.9,0-1.8,0.1-2.6,0.1
	c-2.2,0-4.5,0.1-6.7,0.1s-4.4,0.1-6.6,0.1c-2.5,0-5.1-0.2-7.6-0.4s-5-0.5-7.5-0.7c-1.9-0.1-3.8-0.3-5.7-0.5
	c-1.1-0.1-2.2-0.2-3.3-0.3c-1-0.1-2-0.1-3-0.1l0,0C194.3,249.8,194,249.9,193.7,250L193.7,250z"/>
<path class="st0" d="M193.4,256.3c-0.1,0.7,0.4,1.3,1.1,1.4c1.4,0.2,2.8,0.4,4.1,0.5c0.7,0.1,1.3,0.2,2,0.3c0.6,0.1,1.2,0.2,1.7,0.2
	c1.3,0.2,2.6,0.4,3.9,0.6c1.3,0.2,2.5,0.3,3.8,0.5c1.5,0.2,2.9,0.3,4.4,0.4c0.8,0.1,1.6,0.1,2.4,0.2c0.7,0,1.5,0,2.2,0
	c1.5,0,3,0.1,4.6,0c1.4,0,2.9-0.1,4.3-0.1c1.3,0,2.5,0,3.8,0s2.6-0.1,3.9-0.2c1.3-0.1,2.5-0.1,3.8-0.2c1.2-0.1,2.5-0.1,3.8-0.3
	c0.3,0,0.7-0.1,1-0.2c0.4-0.1,0.8-0.2,1.2-0.3c0.3,0,0.6-0.1,0.8-0.3c0.5-0.4,0.6-1.2,0.2-1.8c-0.2-0.3-0.5-0.4-0.8-0.5
	c-0.3,0-0.6,0-0.9,0.1c-0.1,0-0.2,0.1-0.4,0.1c-0.3,0.1-0.6,0.1-0.9,0.2c-0.6,0.1-1.1,0.1-1.7,0.2c-0.6,0-1.3,0.1-1.9,0.1
	c-0.7,0-1.3,0.1-2,0.1c-0.6,0-1.2,0.1-1.8,0.1s-1.3,0.1-1.9,0.1c-1.2,0.1-2.4,0.1-3.6,0.2c-1.3,0-2.6,0-3.9,0s-2.6,0.1-3.8,0.1
	c-1.4,0-2.8,0-4.2,0c-2.6,0-5.1-0.2-7.7-0.5c-1.3-0.1-2.6-0.3-3.9-0.5c-1.3-0.2-2.5-0.4-3.8-0.6c-0.6-0.1-1.3-0.2-1.9-0.3
	c-0.7-0.1-1.4-0.2-2.1-0.3c-1.5-0.2-3-0.4-4.6-0.6c-0.1,0-0.1,0-0.2,0C194,255.2,193.5,255.7,193.4,256.3L193.4,256.3z"/>
<path class="st0" d="M184.7,108.4c-0.2,0.6,0.1,1.4,0.7,1.6c0.7,0.3,1.4,0.7,2.1,0.9c0.6,0.3,1.3,0.5,1.9,0.8
	c0.6,0.2,1.2,0.4,1.9,0.6c0.6,0.2,1.2,0.4,1.7,0.6c0.6,0.2,1.3,0.5,1.9,0.6c0.7,0.2,1.3,0.3,2,0.5c0.6,0.1,1.3,0.2,1.9,0.2
	c0.7,0,1.3,0.1,2,0.2c0.6,0.1,1.2,0.2,1.8,0.3c0.6,0.1,1.2,0.2,1.9,0.3c1.3,0.2,2.6,0.3,3.8,0.3c1.2,0.1,2.4,0.3,3.5,0.4
	c1.2,0.1,2.5,0.3,3.8,0.4c0.7,0.1,1.3-0.4,1.4-1.1c0.1-0.7-0.4-1.3-1.1-1.4l0,0c-1.3-0.1-2.6-0.3-3.9-0.4c-1.2-0.1-2.4-0.3-3.7-0.4
	s-2.6-0.2-3.8-0.4c-0.7-0.1-1.3-0.2-2-0.4c-0.6-0.1-1.3-0.2-1.9-0.3c-0.9-0.1-1.8-0.1-2.7-0.2c-0.8-0.1-1.5-0.2-2.3-0.4
	c-0.8-0.2-1.5-0.5-2.3-0.8s-1.5-0.5-2.2-0.7c-0.8-0.2-1.6-0.5-2.4-0.8c-0.9-0.3-1.7-0.8-2.6-1.2c-0.1-0.1-0.3-0.1-0.5-0.1
	C185.4,107.6,184.9,107.9,184.7,108.4L184.7,108.4z"/>
<path class="st0" d="M184.8,116.9c-0.1,0.7,0.4,1.3,1.1,1.4c1.4,0.2,2.8,0.4,4.2,0.7c0.7,0.1,1.3,0.2,2,0.3c0.6,0.1,1.2,0.1,1.7,0.2
	c1.2,0.2,2.5,0.5,3.7,0.6c1.3,0.1,2.7,0.2,4,0.1c0.2,0,0.4,0,0.5,0l0,0c0.3,0,0.7,0,1,0.1c0.3,0,0.7,0,0.9-0.3
	c0.5-0.4,0.6-1.2,0.2-1.7l0,0c-0.2-0.2-0.5-0.4-0.8-0.5c-0.5-0.1-1-0.1-1.6-0.1h0.3c-0.6,0-1.2,0-1.8,0c-1.1,0-2.3-0.1-3.4-0.2
	c-1.1-0.2-2.2-0.4-3.3-0.5c-0.6-0.1-1.2-0.1-1.8-0.2s-1.2-0.2-1.9-0.3c-1.3-0.2-2.5-0.4-3.8-0.6c-0.1,0-0.1,0-0.2,0
	C185.4,115.8,184.9,116.3,184.8,116.9L184.8,116.9z M201.8,120.2L201.8,120.2z"/>
<path class="st0" d="M188.5,121.7c-0.5,0.4-0.6,1.2-0.2,1.8c0.2,0.2,0.5,0.4,0.8,0.5c1,0.2,2,0.5,3,0.7c0.8,0.2,1.7,0.2,2.5,0.3
	s1.7,0.2,2.5,0.2c1,0.1,2,0.2,3,0.1c0.3,0,0.6-0.2,0.8-0.5s0.3-0.6,0.2-0.9c0-0.3-0.2-0.6-0.5-0.8c-0.3-0.2-0.6-0.3-0.9-0.2l0,0
	c-0.8,0-1.6-0.1-2.4-0.2c-0.8-0.1-1.7-0.1-2.5-0.2s-1.6-0.2-2.4-0.3c-1-0.2-2-0.4-3-0.7c-0.1,0-0.1,0-0.2,0
	C188.9,121.5,188.7,121.6,188.5,121.7L188.5,121.7z"/>
<path class="st0" d="M196.1,169.5c-0.3,0-0.6,0.2-0.8,0.5c-0.4,0.6-0.3,1.3,0.3,1.7l0,0c0.3,0.2,0.6,0.3,0.9,0.2h1.4
	c2.5,0,5,0.1,7.5,0.2c1.3,0.1,2.6,0.2,3.9,0.3c0.6,0.1,1.3,0.1,1.9,0.2c0.7,0.1,1.3,0.1,2,0.1c0.6,0,1.3,0,1.9,0.1
	c0.3,0,0.7,0,0.9-0.3c0.3-0.2,0.4-0.5,0.5-0.8c0-0.3-0.1-0.7-0.3-0.9s-0.5-0.4-0.8-0.5c-0.4-0.1-0.7-0.1-1.1-0.1c-0.3,0-0.7,0-1-0.1
	c-0.6,0-1.3-0.1-1.9-0.1c-1.2-0.1-2.5-0.3-3.7-0.4c-1.3-0.1-2.6-0.1-3.9-0.2s-2.6-0.1-3.9-0.1c-0.5,0-1,0-1.6,0
	C197.4,169.5,196.7,169.5,196.1,169.5L196.1,169.5z"/>
<path class="st0" d="M199.9,176.4c-0.8,0-1.6,0-2.4,0.1c-0.9,0-1.8,0.1-2.7,0.2c-0.7,0.1-1.2,0.7-1.1,1.4c0.1,0.7,0.7,1.2,1.4,1.1
	c1.3-0.1,2.6-0.2,3.9-0.2c1.1,0,2.2,0,3.3,0c5.3,0.1,10.6,0.5,15.9,0.7c0.9,0,1.7,0.1,2.6,0.1c1,0,2,0,3,0c1.7,0,3.4-0.1,5.1-0.1
	c0.6,0,1.1,0,1.7,0.1c0.7,0.1,1.3-0.4,1.4-1.1c0.1-0.7-0.4-1.3-1.1-1.4c-0.5-0.1-1-0.1-1.4-0.1c-0.5,0-0.9,0-1.4,0
	c-0.8,0-1.6,0-2.4,0c-1.5,0-3.1,0.1-4.6,0.1c-2.7,0-5.3-0.2-8-0.4s-5.3-0.3-7.9-0.4c-1.2,0-2.3-0.1-3.5-0.1
	C201.1,176.4,200.5,176.4,199.9,176.4L199.9,176.4z"/>
<path class="st0" d="M193.9,183.8c-0.5,0.4-0.6,1.2-0.2,1.8c0.2,0.2,0.5,0.4,0.8,0.5c1.4,0.3,2.7,0.6,4.1,0.8
	c0.6,0.1,1.3,0.2,1.9,0.2c0.6,0.1,1.2,0.2,1.9,0.3c2.7,0.3,5.4,0.3,8.1,0.1c0.5,0,1-0.1,1.5-0.1c0.3,0,0.6-0.2,0.8-0.5
	s0.3-0.6,0.2-0.9c0-0.3-0.2-0.6-0.5-0.8s-0.6-0.3-0.9-0.2c-1,0-2.1,0.1-3.1,0.2c-0.9,0-1.7,0.1-2.6,0.1c-0.9,0-1.8-0.1-2.7-0.2
	c-0.4,0-0.9-0.1-1.3-0.2c-0.5-0.1-1-0.1-1.5-0.2c-0.9-0.1-1.8-0.2-2.6-0.4c-1-0.2-2-0.4-2.9-0.6c-0.1,0-0.1,0-0.2,0
	C194.4,183.5,194.1,183.6,193.9,183.8L193.9,183.8z"/>
<path class="st0" d="M313.2,43.7c-1.3,0.7-2.6,1.5-3.8,2.2c-0.7,0.4-1.3,0.7-2,1.1h0.1c-0.5,0.3-1,0.6-1.6,0.9l0,0
	c-1.1,0.6-2.1,1.3-3.2,1.9c-0.5,0.3-1.1,0.6-1.6,0.9c-0.6,0.3-1.2,0.6-1.8,0.9c-1.1,0.6-2.3,1.1-3.5,1.6c-2.4,1-4.8,2-7.2,3
	c-2.4,1-4.9,2.1-7.4,3.1c-2.4,1-4.8,2-7.3,2.9c-0.6,0.2-1.2,0.4-1.9,0.6c-0.6,0.2-1.3,0.5-1.9,0.7c-1.2,0.5-2.4,1-3.6,1.5
	c-2.5,1-5.1,1.9-7.7,2.8c-1.2,0.5-2.4,0.9-3.6,1.4c-1.3,0.5-2.6,1-3.9,1.4c-1.2,0.4-2.5,0.8-3.7,1.2s-2.5,0.8-3.8,1.1
	c-2.5,0.8-5,1.7-7.4,2.6c-2.5,0.9-4.8,1.9-7.3,2.8c-1.3,0.5-2.6,0.9-3.9,1.3c-1.2,0.4-2.5,0.8-3.7,1.2c-1.2,0.3-2.3,0.6-3.5,0.9
	c-1.3,0.3-2.5,0.4-3.8,0.7c-1.3,0.3-2.6,0.6-3.9,1c-1.3,0.3-2.6,0.7-3.9,0.9c-0.7,0.1-1.3,0.2-2,0.3s-1.3,0.2-1.9,0.4
	c-1.5,0.4-3,0.8-4.4,1.3c-0.3,0.1-0.6,0.4-0.7,0.7c-0.3,0.6,0,1.4,0.7,1.6c0.3,0.1,0.6,0.1,1,0c0.9-0.3,1.8-0.6,2.7-0.8
	c0.5-0.1,1.1-0.3,1.6-0.4c0.6-0.1,1.2-0.2,1.8-0.3c0.6-0.1,1.3-0.2,1.9-0.3s1.2-0.3,1.9-0.4c2.6-0.6,5.1-1.4,7.7-1.8
	c0.6-0.1,1.3-0.2,1.9-0.4c0.6-0.1,1.2-0.3,1.8-0.4c1.3-0.3,2.7-0.7,4-1.1s2.6-0.8,4-1.2c1.3-0.4,2.5-0.9,3.8-1.4
	c1.2-0.5,2.4-1,3.7-1.5c1.2-0.5,2.4-0.8,3.6-1.3c1.2-0.5,2.5-0.9,3.7-1.4c0.6-0.2,1.2-0.4,1.9-0.6s1.3-0.4,2-0.6
	c1.2-0.4,2.4-0.8,3.6-1.2c1.3-0.4,2.6-0.8,3.9-1.3c1.2-0.4,2.5-0.9,3.7-1.4c1.3-0.5,2.6-1,4-1.5c2.4-0.9,4.9-1.8,7.3-2.8
	c1.2-0.5,2.5-1.1,3.7-1.5s2.4-0.8,3.6-1.3c2.5-0.9,4.9-1.9,7.3-3c2.5-1,5-2.1,7.5-3.1c2.4-1,4.7-2,7.1-3c1.2-0.5,2.3-1.1,3.5-1.7
	c1.2-0.7,2.4-1.4,3.6-2.1l0.1-0.1h-0.1c0.9-0.5,1.8-1,2.7-1.6h-0.1h0.1l0.1-0.1l0,0l0.1-0.1l-0.1,0.1l0,0c0.7-0.4,1.5-0.8,2.2-1.3
	c0.6-0.4,1.2-0.8,1.8-1.1c0.5-0.3,1-0.6,1.5-0.9c0.3-0.1,0.5-0.4,0.7-0.7c0.3-0.6,0-1.4-0.7-1.6c-0.2-0.1-0.3-0.1-0.5-0.1
	C313.5,43.6,313.4,43.6,313.2,43.7L313.2,43.7z M308.6,49.3L308.6,49.3L308.6,49.3L308.6,49.3L308.6,49.3z M308.6,49.3L308.6,49.3
	L308.6,49.3L308.6,49.3L308.6,49.3z M308.6,49.3l-0.2,0.1L308.6,49.3L308.6,49.3z M308.6,49.3L308.6,49.3L308.6,49.3L308.6,49.3z"/>
<path class="st0" d="M314.6,51.9c-0.8,0.3-1.5,0.6-2.2,1c-0.6,0.3-1.1,0.6-1.7,0.9c-1.1,0.6-2.3,1.3-3.5,1.8
	c-1.2,0.6-2.5,1.2-3.7,1.7c-1.2,0.6-2.3,1.1-3.5,1.6s-2.4,0.9-3.6,1.3c-1.3,0.4-2.5,0.9-3.7,1.4s-2.5,1-3.7,1.4s-2.4,0.8-3.6,1.3
	s-2.4,0.9-3.6,1.4s-2.4,0.9-3.6,1.3c-1.3,0.4-2.5,1-3.7,1.5s-2.4,1-3.6,1.4s-2.5,0.7-3.7,1.1c-0.6,0.2-1.2,0.4-1.9,0.6
	c-0.6,0.2-1.2,0.4-1.7,0.6c-1.2,0.5-2.5,0.9-3.7,1.3c-0.6,0.2-1.2,0.4-1.9,0.6c-0.6,0.2-1.2,0.5-1.8,0.7c-1,0.4-2,0.7-3,1
	s-2,0.8-2.9,1.1c-1.9,0.8-3.9,1.5-5.9,2.1c-0.7,0.2-1.3,0.4-2,0.5c-0.6,0.2-1.2,0.4-1.8,0.6c-1.3,0.4-2.5,1-3.8,1.5
	c-1.2,0.5-2.3,0.9-3.5,1.3s-2.5,0.8-3.8,1.2c-1.2,0.4-2.3,0.8-3.5,1.1c-1.2,0.4-2.5,0.8-3.7,1.1c-2.6,0.7-5.1,1.6-7.6,2.4
	c-0.6,0.3-0.9,1-0.7,1.6c0.1,0.3,0.4,0.5,0.7,0.7c0.3,0.1,0.7,0.1,1,0c1.3-0.4,2.7-0.9,4-1.3s2.6-0.8,3.9-1.2
	c0.7-0.2,1.4-0.4,2.1-0.6c0.6-0.2,1.2-0.4,1.8-0.5c1.3-0.4,2.5-0.8,3.8-1.3c1.1-0.3,2.1-0.6,3.2-1s2.1-0.8,3.1-1.2
	c1.1-0.4,2.2-0.9,3.2-1.3s2-0.7,3-1c1.2-0.3,2.5-0.7,3.7-1.1s2.4-0.9,3.6-1.4c1.2-0.5,2.4-1,3.6-1.4s2.4-0.8,3.6-1.3
	c1.2-0.5,2.5-0.9,3.8-1.3c1.2-0.4,2.4-0.9,3.6-1.3s2.4-0.8,3.6-1.1c1.3-0.4,2.5-0.8,3.8-1.2c1.3-0.5,2.5-1,3.7-1.5
	c0.6-0.3,1.2-0.5,1.9-0.8c0.6-0.2,1.2-0.4,1.8-0.6c1.2-0.4,2.4-0.8,3.6-1.3c1.2-0.4,2.3-0.9,3.5-1.3c1.3-0.4,2.6-0.9,3.8-1.3
	c1.2-0.5,2.4-1,3.6-1.4c2.4-1,4.9-1.6,7.2-2.7c1.1-0.5,2.2-1,3.3-1.5c1.1-0.5,2.2-1,3.3-1.6c1-0.5,2.1-1.1,3.1-1.6
	c0.5-0.3,1.1-0.6,1.6-0.9c0.6-0.4,1.3-0.7,2-0.9c0.3-0.1,0.6-0.4,0.7-0.7c0.3-0.6,0-1.4-0.7-1.6c-0.1-0.1-0.3-0.1-0.4-0.1
	C315,51.8,314.8,51.9,314.6,51.9L314.6,51.9z"/>
<path class="st0" d="M316,57.1c-1.2,0.6-2.4,1.2-3.6,1.8c-1.1,0.6-2.3,1.1-3.5,1.6c-2.5,1.1-5,2.1-7.4,3.2c-2.4,1.1-4.9,2.1-7.3,3.3
	c-1.2,0.6-2.3,1.2-3.5,1.8c-1.2,0.6-2.4,1.1-3.6,1.7s-2.3,1.2-3.5,1.7c-1.1,0.5-2.3,1-3.5,1.5c-2.4,1-4.9,2-7.4,2.8
	c-1.3,0.4-2.5,0.8-3.8,1.3c-1.2,0.4-2.4,0.8-3.6,1.2s-2.4,0.9-3.6,1.3c-1.3,0.4-2.6,0.9-3.8,1.4c-1.8,0.7-3.6,1.3-5.5,1.9
	c-0.9,0.2-1.8,0.5-2.7,0.7c-1.1,0.3-2.3,0.6-3.4,0.9l0,0L246,85h0.1l-0.8,0.2l0,0h0.1h-0.1c-0.1,0-0.1,0-0.2,0.1l-0.3,0.1
	c-0.3,0.1-0.7,0.2-1,0.3c-0.4,0.1-0.8,0.2-1.2,0.3c0.1,0,0.2-0.1,0.3-0.1c-0.8,0.2-1.7,0.5-2.5,0.7c-0.7,0.2-1.4,0.5-2.1,0.7
	c-0.7,0.2-1.5,0.4-2.2,0.7c-0.8,0.3-1.5,0.6-2.3,0.9c-0.6,0.3-0.9,1-0.7,1.6s1,0.9,1.6,0.7c0.7-0.3,1.4-0.5,2.2-0.8
	c0.6-0.2,1.3-0.4,2-0.6s1.3-0.4,1.9-0.6s1.3-0.4,1.9-0.6c0.8-0.2,1.6-0.4,2.4-0.7l0,0h0.1c0.2,0,0.4-0.1,0.6-0.2
	c0.3-0.1,0.6-0.1,0.8-0.2c-0.1,0-0.2,0.1-0.3,0.1c0.5-0.1,0.9-0.3,1.4-0.4c1.3-0.3,2.6-0.6,3.8-1c1.2-0.3,2.4-0.6,3.6-1
	c1.3-0.4,2.6-0.9,3.9-1.4c1.2-0.5,2.4-0.9,3.6-1.3c1.3-0.5,2.5-0.9,3.8-1.3c1.2-0.4,2.4-0.8,3.6-1.2c1.3-0.5,2.6-0.9,3.8-1.3
	c2.4-0.8,4.8-1.8,7.2-2.7c1.2-0.5,2.5-1,3.7-1.5s2.3-1.1,3.5-1.7s2.4-1.1,3.5-1.6c1.2-0.6,2.4-1.3,3.7-1.9c2.4-1.1,4.8-2.2,7.2-3.2
	c2.4-1,4.9-2.1,7.4-3.1c1.2-0.5,2.3-1,3.4-1.6c1.2-0.6,2.3-1.2,3.5-1.7c0.6-0.3,0.9-1,0.7-1.6c-0.2-0.5-0.7-0.8-1.2-0.8
	C316.3,56.9,316.1,57,316,57.1L316,57.1z M249.6,84.1h-0.1H249.6z M246.7,84.8L246.7,84.8L246.7,84.8z M246.1,87.6h-0.2l0,0H246.1
	L246.1,87.6z"/>
<path class="st0" d="M313,64.5c-0.6,0.3-1.2,0.7-1.8,1c-0.6,0.3-1.2,0.5-1.7,0.8c-1.2,0.6-2.3,1.1-3.5,1.7s-2.3,1.2-3.5,1.8
	s-2.3,1.2-3.5,1.7s-2.3,1-3.5,1.5c-1.1,0.5-2.2,1-3.3,1.5c-1.2,0.6-2.4,1.2-3.6,1.8c-1.2,0.6-2.4,1.1-3.7,1.6c-2.4,1-4.9,2-7.4,3
	c-1.2,0.4-2.4,0.8-3.6,1.2c-0.6,0.2-1.2,0.4-1.7,0.7c-0.6,0.2-1.3,0.5-1.9,0.7c-0.1,0-0.2,0.1-0.4,0.1c-0.6,0.3-0.9,1.1-0.6,1.7
	s0.9,0.8,1.5,0.6c1.3-0.5,2.6-1,3.9-1.5c1.2-0.4,2.4-0.8,3.6-1.2c2.4-0.9,4.8-1.9,7.2-2.9c1.2-0.5,2.5-1,3.7-1.6s2.5-1.2,3.7-1.8
	c1.1-0.6,2.3-1.1,3.5-1.6c1.1-0.5,2.3-1,3.4-1.5c1.2-0.6,2.3-1.2,3.5-1.7c1.2-0.6,2.4-1.2,3.6-1.8c1.1-0.6,2.3-1.2,3.4-1.7
	c0.6-0.3,1.1-0.5,1.7-0.8s1.1-0.6,1.7-0.9c0.1-0.1,0.2-0.1,0.3-0.2c0.3-0.1,0.5-0.4,0.7-0.7c0.3-0.6,0-1.4-0.7-1.6
	c-0.2-0.1-0.3-0.1-0.5-0.1C313.3,64.3,313.1,64.4,313,64.5L313,64.5z"/>
<path class="st0" d="M34.9,34.5c-0.4,0.6-0.2,1.3,0.3,1.7c1.6,1.1,3.3,2.1,5.1,3.1c0.9,0.5,1.9,0.9,2.8,1.3c0.8,0.4,1.7,0.8,2.5,1.2
	c-0.1,0-0.2-0.1-0.3-0.1c0.1,0.1,0.3,0.1,0.4,0.2l0,0l0.8,0.4h-0.1l0.2,0.1h0.1l0,0c0.9,0.5,1.8,0.9,2.7,1.3
	c0.4,0.2,0.7,0.4,1.1,0.6l0,0l0,0l0.1,0.1l0,0l0.4,0.2h-0.1c0.6,0.3,1.1,0.5,1.7,0.8c0.6,0.3,1.2,0.5,1.9,0.7
	c1.2,0.4,2.4,0.8,3.7,1.2s2.6,0.7,3.9,1.1c1.2,0.3,2.4,0.6,3.6,0.9c1.7,0.4,3.5,0.8,5.2,1.2c1.8,0.4,3.6,0.8,5.5,1.1
	c0.8,0.2,1.6,0.4,2.4,0.5c0.9,0.2,1.9,0.4,2.8,0.5c1.7,0.3,3.5,0.6,5.2,1c2.7,0.6,5.3,1.1,8,1.6c0.7,0.1,1.3,0.2,2,0.3
	s1.3,0.1,2,0.2c1.4,0.1,2.8,0.2,4.1,0.2c1.4,0.1,2.8,0.1,4.3,0.2c0.7,0,1.4,0.1,2.1,0.2c0.7,0.1,1.5,0.1,2.2,0.2l0,0
	c0.3,0.1,0.7,0.1,1-0.1c0.6-0.3,0.9-1.1,0.6-1.7c-0.1-0.3-0.4-0.5-0.7-0.6c-0.8-0.2-1.7-0.3-2.6-0.3c-0.7-0.1-1.4-0.1-2-0.2
	c-1.3-0.1-2.6-0.2-3.9-0.2c-1.3-0.1-2.7-0.1-4-0.2c-1.4-0.1-2.7-0.2-4-0.4c-2.4-0.4-4.7-0.9-7.1-1.3c-1.6-0.3-3.2-0.7-4.7-1
	s-3-0.5-4.5-0.8c-2-0.4-4-0.8-6.1-1.3c-1.2-0.3-2.5-0.6-3.7-0.8s-2.5-0.5-3.7-0.9s-2.5-0.6-3.7-0.9c-1.3-0.3-2.6-0.7-3.9-1.1
	c-1-0.3-2-0.6-3-1c-0.5-0.2-1.1-0.4-1.6-0.6c-0.5-0.2-1-0.4-1.4-0.7l0.1,0.1L52,42.2l0.1,0.1L51.5,42l0.2,0.1c-1-0.5-2-1-2.9-1.5
	l0.3,0.1c-0.7-0.3-1.3-0.7-2-1l0,0l-0.3-0.2l0,0c-1.8-0.9-3.5-1.7-5.3-2.5c-1.7-0.9-3.3-1.9-4.8-2.9C36.4,34,36.2,34,36,34
	C35.5,34,35.2,34.2,34.9,34.5L34.9,34.5z M41.5,37.1c0.1,0,0.2,0.1,0.2,0.1C41.7,37.2,41.6,37.2,41.5,37.1z M50.5,44.2L50.5,44.2
	L50.5,44.2z M88.8,51.4L88.8,51.4L88.8,51.4z M50.6,44.3L50.6,44.3L50.6,44.3z M46.7,42.4L46.7,42.4l-0.2-0.1L46.7,42.4z M52,42.3
	L52,42.3L52,42.3z M51.5,42L51.5,42L51.5,42z M46,42l-0.3-0.1C45.8,41.9,45.9,42,46,42z M47,39.7C47,39.7,46.9,39.7,47,39.7L47,39.7
	z M46.8,39.6c-0.1,0-0.2-0.1-0.2-0.1S46.7,39.6,46.8,39.6z"/>
<path class="st0" d="M37.1,39.8c-0.4,0.6-0.2,1.3,0.3,1.7c1.1,0.8,2.2,1.6,3.3,2.3c0.5,0.3,1,0.6,1.5,0.9c0.6,0.3,1.1,0.6,1.7,0.9
	h-0.1h0.1l0.2,0.1H44c1.2,0.6,2.4,1.1,3.6,1.6s2.4,1,3.7,1.4c1.2,0.4,2.4,0.8,3.6,1.2s2.4,0.9,3.6,1.3c2.5,0.9,5,1.6,7.5,2.3
	c1.3,0.4,2.5,0.7,3.8,1.1c1.2,0.4,2.4,0.7,3.6,1.1c1.3,0.4,2.6,0.8,3.8,1.2c1.2,0.4,2.4,0.8,3.6,1.1c1.2,0.4,2.4,0.8,3.7,1.1
	s2.5,0.5,3.7,0.9h0.1c0.3,0.1,0.7,0.1,1-0.1c0.6-0.3,0.9-1.1,0.6-1.7c-0.1-0.3-0.4-0.5-0.7-0.6c-1.2-0.3-2.5-0.5-3.8-0.9
	s-2.5-0.7-3.7-1.1c-1.2-0.4-2.4-0.8-3.6-1.2c-1.3-0.4-2.5-0.9-3.8-1.2c-1.2-0.4-2.4-0.7-3.6-1.1c-1.3-0.4-2.5-0.7-3.8-1.1
	c-2.5-0.7-5-1.4-7.5-2.3c-1.1-0.4-2.3-0.9-3.4-1.3c-1.2-0.4-2.4-0.8-3.5-1.2c-1.2-0.4-2.4-0.9-3.6-1.4c-1.1-0.5-2.3-0.9-3.4-1.5
	l-0.2-0.1l0,0c-1-0.6-2.1-1.1-3.1-1.8c-1.1-0.7-2.2-1.5-3.3-2.3c-0.2-0.1-0.4-0.2-0.7-0.2C37.7,39.2,37.3,39.4,37.1,39.8L37.1,39.8z
	 M44.9,43.3L44.9,43.3L44.9,43.3z M45.4,43.6l0.2,0.1L45.4,43.6z"/>
<path class="st0" d="M38.1,37.2c0,0.7,0.5,1.3,1.2,1.3c1.2,0.2,2.4,0.3,3.6,0.6c2.1,0.5,4.1,1.2,6.2,1.7c2.1,0.5,4.2,1,6.4,1.4
	c-0.1,0-0.2,0-0.3-0.1c1.4,0.3,2.8,0.6,4.1,0.8s2.6,0.4,3.9,0.5c2.6,0.3,5.2,0.4,7.8,0.9l1.3,0.2l0.5,0.1h-0.1l0.6,0.1l0,0
	c1.4,0.3,2.8,0.6,4.2,0.8c1.3,0.2,2.6,0.3,3.9,0.4c2.7,0.3,5.4,0.6,8.1,0.6c0.2,0,0.3,0,0.5,0c0.7,0,1.4,0,2,0.1
	c0.7,0,1.3-0.5,1.3-1.2c0-0.3-0.1-0.7-0.3-0.9c-0.2-0.2-0.5-0.4-0.8-0.4C91.5,44,90.8,44,90.1,44s-1.3,0-2,0
	c-1.3-0.1-2.6-0.2-3.9-0.3c-2.7-0.3-5.3-0.5-8-1c-0.8-0.1-1.6-0.3-2.3-0.4H74l-0.3-0.1l0,0h-0.1l-0.3-0.1l0,0h-0.1h0.1h0.1l0,0
	c-1.4-0.3-2.7-0.5-4.1-0.7c-1.3-0.2-2.6-0.3-3.9-0.4s-2.6-0.2-3.9-0.4s-2.6-0.4-3.9-0.7c-0.2,0-0.4-0.1-0.5-0.1c0.1,0,0.1,0,0.2,0
	c-0.9-0.2-1.8-0.4-2.7-0.6h0.2h-0.2h-0.1h0.1c-2.3-0.5-4.6-1-6.9-1.7c-1.2-0.3-2.4-0.7-3.7-1c-1.4-0.3-2.9-0.6-4.3-0.7h-0.1
	C38.6,36.1,38.1,36.6,38.1,37.2L38.1,37.2z M71.8,44.5l0.3,0.1C72,44.6,71.9,44.6,71.8,44.5z M73.4,44.9l-0.3-0.1
	C73.2,44.8,73.3,44.9,73.4,44.9z M72.8,44.8h-0.2H72.8z M73.3,42.3L73.3,42.3L73.3,42.3h-0.2C73.2,42.3,73.3,42.3,73.3,42.3
	L73.3,42.3z M73.2,42.3L73.2,42.3L73.2,42.3z M73.2,42.3L73.2,42.3L73.2,42.3L73.2,42.3L73.2,42.3z M54.4,39.5L54.4,39.5L54.4,39.5
	L54.4,39.5z"/>
<path class="st0" d="M48.3,50.7c-0.1,0.3-0.1,0.7,0.1,1c0.2,0.3,0.4,0.5,0.7,0.6c1.8,0.8,3.6,1.5,5.4,2.3c0.5,0.3,1,0.6,1.5,0.8
	c0.6,0.3,1.2,0.7,1.8,1s1.1,0.6,1.7,0.8c0.6,0.3,1.2,0.5,1.8,0.7c1.2,0.5,2.4,0.9,3.6,1.3c1.2,0.4,2.4,0.9,3.6,1.4s2.4,0.9,3.6,1.4
	c1.1,0.5,2.3,0.9,3.4,1.3c1.2,0.4,2.4,0.7,3.6,1.1c2.5,0.7,5,1.5,7.5,2c1.7,0.4,3.5,0.7,5.2,1c0.8,0.1,1.6,0.2,2.3,0.4
	s1.6,0.2,2.3,0.3c0.2,0.1,0.5,0.1,0.7,0.2c0.7,0.2,1.4-0.1,1.6-0.8c0.2-0.7-0.1-1.4-0.8-1.6c-0.5-0.1-1.1-0.3-1.6-0.4
	c-0.4-0.1-0.8-0.1-1.2-0.2c-0.9-0.1-1.7-0.2-2.6-0.4c-1.6-0.2-3.2-0.6-4.8-0.9c-2.5-0.5-5-1.2-7.4-2c-1.2-0.4-2.4-0.7-3.6-1.1
	s-2.3-0.9-3.5-1.3c-2.2-0.9-4.5-1.8-6.8-2.6s-4.6-1.5-6.7-2.6c-0.5-0.3-1.1-0.6-1.6-0.8l0.3,0.1c-0.6-0.3-1.2-0.7-1.9-1
	c-0.7-0.4-1.5-0.8-2.2-1.1s-1.3-0.5-2-0.8c-0.8-0.3-1.7-0.7-2.5-1.1c-0.1-0.1-0.3-0.1-0.4-0.1C49,49.8,48.5,50.2,48.3,50.7
	L48.3,50.7z M59.6,54.5L59.6,54.5L59.6,54.5z M57.6,56.3l0.2,0.1L57.6,56.3z"/>
<path class="st0" d="M87.5,114.7c-0.6,0-1.1,0.1-1.7,0.2c-1.1,0.1-2.1,0.2-3.2,0.3c-1.1,0.1-2.2,0.2-3.3,0.4
	c-1.1,0.1-2.1,0.2-3.2,0.3H76l0,0h-0.1h-0.5h0.1c-1.1,0.1-2.2,0.1-3.2,0.2c-1.1,0.1-2.2,0.2-3.3,0.3c-1,0.1-2.1,0.2-3.1,0.4
	c-1.1,0.2-2.2,0.4-3.4,0.6c-0.7,0.1-1.1,0.8-1,1.5s0.8,1.1,1.5,1l0,0c1-0.2,2.1-0.4,3.1-0.6s2-0.3,3-0.4s1.9-0.2,2.9-0.3
	c0.9-0.1,1.9-0.2,2.8-0.2c0.3,0,0.6,0,0.9-0.1h-0.1H76h-0.1h0.2h0.2h-0.1c1-0.1,2-0.2,3.1-0.3c1-0.1,1.9-0.2,2.9-0.4l3.2-0.3
	c0.9-0.1,1.9-0.2,2.8-0.3c0.5,0,0.9,0,1.4,0.1c0.3,0,0.7-0.1,0.9-0.3c0.2-0.2,0.4-0.5,0.4-0.8s-0.1-0.7-0.3-0.9
	c-0.2-0.2-0.5-0.4-0.8-0.4c-0.3-0.1-0.7-0.1-1-0.1C88.4,114.6,87.9,114.6,87.5,114.7L87.5,114.7z M76.2,115.9L76.2,115.9L76.2,115.9
	z M76.1,115.9L76.1,115.9z M74.8,118.4h-0.2H74.8z M75.3,115.9h0.2H75.3z M75.8,115.9L75.8,115.9H76H75.8L75.8,115.9z"/>
<path class="st0" d="M93.1,119.2c-1,0.2-2,0.3-3,0.5c-1.9,0.3-3.8,0.5-5.8,0.7c-1.3,0.1-2.6,0.1-3.9,0.2c-1.4,0.1-2.8,0.2-4.1,0.3
	c-2.6,0.2-5.2,0.6-7.8,1c-2.3,0.4-4.7,0.7-7,1c-2.5,0.3-5,0.7-7.5,1c-0.7,0.1-1.1,0.8-1,1.5c0.1,0.3,0.3,0.6,0.5,0.8
	c0.3,0.2,0.6,0.2,0.9,0.2c1.4-0.2,2.9-0.3,4.3-0.6c1.3-0.2,2.6-0.3,3.9-0.5c1.4-0.2,2.7-0.4,4.1-0.6c1.3-0.2,2.6-0.4,3.9-0.6
	c1.7-0.2,3.4-0.5,5.1-0.6c1.8-0.2,3.5-0.3,5.3-0.4c1.3-0.1,2.6-0.1,3.9-0.2c1.2-0.1,2.4-0.2,3.7-0.4c1.2-0.2,2.5-0.3,3.7-0.5
	s2.4-0.4,3.6-0.5c0.2,0,0.3,0,0.5,0c0.7,0.1,1.3-0.4,1.4-1.1s-0.4-1.3-1.1-1.4c0,0,0,0-0.1,0h-0.1C95.3,118.9,94.2,119,93.1,119.2
	L93.1,119.2z M81.1,123c-0.1,0-0.2,0-0.2,0H81.1z"/>
<path class="st0" d="M98,124.8c-0.5,0-1.1,0.1-1.6,0.1h0.1h-0.3l0,0c-1.3,0.1-2.5,0.1-3.8,0.3c-1.3,0.2-2.7,0.3-4,0.6
	c-2.6,0.5-5.3,0.9-7.9,1.3c-2.6,0.3-5.2,0.6-7.8,0.8c-1.3,0.1-2.6,0.2-3.9,0.3c-1.2,0.1-2.4,0.2-3.6,0.3h0.1h-0.2h-0.2h0.2
	c-2.4,0.1-4.9,0.3-7.3,0.5c-2.5,0.2-5.1,0.5-7.6,0.7h0.3c-0.7,0-1.5,0.1-2.2,0.1c-1.7,0.1-3.3,0.1-5,0.1c-1.9,0-3.7,0.1-5.6,0.2
	c-0.3,0-0.7,0.1-0.9,0.3c-0.5,0.5-0.6,1.2-0.1,1.8l0,0c0.2,0.2,0.5,0.4,0.8,0.4c1,0,2.1-0.1,3.1-0.2c1,0,1.9,0,2.9,0
	c2,0,4.1-0.1,6.1-0.2l0,0c1.1-0.1,2.3-0.1,3.4-0.2c1.1-0.1,2.2-0.2,3.4-0.3c2.2-0.2,4.5-0.4,6.7-0.5c2.7-0.1,5.3-0.3,8-0.5
	c1.4-0.1,2.8-0.3,4.2-0.4c1.4-0.1,2.8-0.3,4.2-0.4c2.7-0.3,5.3-0.7,7.9-1.2c1.3-0.2,2.6-0.4,3.9-0.6c1.4-0.2,2.7-0.3,4.1-0.4
	c0.2,0,0.3,0,0.5,0h-0.1h0.3l0,0c0.5,0,1-0.1,1.5-0.1h0.3c0.3,0,0.7-0.1,0.9-0.3c0.5-0.5,0.6-1.2,0.1-1.8l0,0
	C98.6,125,98.3,124.8,98,124.8L98,124.8z M65.1,128.5L65.1,128.5L65.1,128.5L65.1,128.5z M96,127.4h-0.2H96L96,127.4z M96.2,124.9
	L96.2,124.9h0.2H96.2L96.2,124.9z"/>
<path class="st0" d="M99.2,131.3l-1,0.1c-0.6,0.1-1.3,0.1-1.9,0.2c-1.3,0.1-2.6,0.3-3.9,0.4c-1.3,0.2-2.7,0.4-4,0.5
	c-1.3,0.2-2.6,0.3-4,0.4c-1.4,0.1-2.7,0.4-4.1,0.5s-2.7,0.4-4,0.7c-2.7,0.5-5.4,0.9-8.1,1.2c-1,0.1-2.1,0.2-3.1,0.3
	c-1.3,0.1-2.7,0.1-4,0.2c-1.4,0.1-2.7,0.1-4.1,0.1c-1.3,0-2.7,0-4,0s-2.7,0.1-4,0.1c-2.6,0.1-5.2,0.2-7.8,0.3
	c-1.3,0.1-2.7,0.1-4,0.1c-1.4-0.1-2.8-0.2-4.2-0.4c-0.7-0.1-1.3,0.5-1.3,1.2c-0.1,0.7,0.5,1.3,1.2,1.3c1.4,0.1,2.9,0.3,4.3,0.4
	c1.3,0,2.6,0,3.9-0.1c2.7-0.1,5.5-0.3,8.2-0.3c1.3,0,2.6-0.1,4-0.1s2.7,0,4-0.1c2.7,0,5.5-0.1,8.2-0.3s5.4-0.5,8.1-1
	c2.7-0.4,5.4-1,8.1-1.3c1.3-0.2,2.7-0.4,4-0.5s2.7-0.3,4-0.4c1.2-0.2,2.5-0.4,3.8-0.5c1.3-0.2,2.7-0.3,4-0.4
	c0.9-0.1,1.9-0.2,2.8-0.3h0.1c0.7,0.1,1.3-0.4,1.4-1.1c0.1-0.7-0.4-1.3-1.1-1.4c0,0,0,0-0.1,0s-0.1,0-0.2,0
	C100,131.2,99.6,131.3,99.2,131.3L99.2,131.3z M100.2,133.7L100.2,133.7L100.2,133.7z"/>
<path class="st0" d="M84.8,141c-2,0.3-4,0.7-6,0.9s-4,0.4-6,0.6c-2.7,0.1-5.4,0.3-8.1,0.6c-1.3,0.2-2.6,0.3-4,0.5s-2.7,0.2-4,0.4
	c-1,0.1-1.9,0.2-2.9,0.3c0.1,0,0.2,0,0.2,0h-0.3l0,0c-0.8,0.1-1.7,0.1-2.5,0.2c-1.1,0.1-2.1,0.2-3.2,0.2c-0.3,0.1-0.6,0.2-0.8,0.5
	c-0.4,0.6-0.2,1.4,0.3,1.7c0.3,0.2,0.6,0.2,0.9,0.2c0.9-0.1,1.8-0.1,2.6-0.2c0.8-0.1,1.6-0.1,2.4-0.2c1.3-0.1,2.6-0.2,3.9-0.3
	c1.4-0.2,2.7-0.3,4.1-0.4c1.3-0.1,2.5-0.3,3.8-0.5c1.4-0.2,2.9-0.3,4.3-0.4c0.7-0.1,1.5-0.1,2.2-0.2h-0.1h0.2h0.1h-0.1
	c2.2-0.1,4.3-0.3,6.5-0.6c2.3-0.3,4.5-0.6,6.8-1c0.7-0.1,1.1-0.8,1-1.5C86.1,141.3,85.5,140.9,84.8,141L84.8,141z M53.6,146.8
	c-0.1,0-0.2,0-0.3,0H53.6z M71.9,145L71.9,145L71.9,145L71.9,145L71.9,145z M53.8,144.3L53.8,144.3L53.8,144.3L53.8,144.3
	L53.8,144.3z"/>
<path class="st0" d="M84.8,149.1c-1.3,0.1-2.7,0.2-4,0.4c-1.2,0.1-2.4,0.3-3.6,0.4c-0.6,0.1-1.3,0.1-1.9,0.2
	c-0.6,0.1-1.1,0.2-1.7,0.2c-1.5,0.2-2.9,0.4-4.4,0.5c-0.7,0.1-1.1,0.8-1,1.5c0.1,0.3,0.3,0.6,0.5,0.8c0.3,0.2,0.6,0.2,0.9,0.2
	c1.4-0.2,2.9-0.3,4.3-0.5c1.2-0.2,2.4-0.3,3.7-0.4c1.2-0.1,2.3-0.3,3.5-0.4c1.4-0.1,2.7-0.3,4.1-0.4c0.3-0.1,0.6-0.2,0.8-0.5
	c0.2-0.3,0.2-0.6,0.2-0.9c-0.1-0.3-0.3-0.6-0.5-0.8c-0.2-0.1-0.5-0.2-0.7-0.2C85,149.1,84.9,149.1,84.8,149.1L84.8,149.1z"/>
<g class="st1">
	<path class="st0" d="M291.6,202.1c-0.4-0.4-0.5-0.9-0.2-1.5l2.1-3.9c0.4-0.7,1-0.8,1.5-0.4c3.5,2.6,6.8,3.8,11.3,2.8
		c4.9-1.1,7.5-4.1,6.6-8.3c-0.9-4.1-4.2-5-8.7-6l-6.4-1.4c-5.5-1.3-10.3-4-11.7-10.3c-1.8-8,3.4-14,11.2-15.8
		c5.6-1.2,10.4,0.1,14.7,3.2c0.7,0.4,0.7,0.9,0.3,1.6l-2,3.9c-0.3,0.7-0.9,0.8-1.5,0.5c-3.4-2.2-6.3-3-9.7-2.3
		c-4,0.9-6.4,3.5-5.6,7.2c0.7,3.1,2.9,4.3,7.3,5.3l5.8,1.3c5.9,1.4,12,3.5,13.7,11.3c2,8.9-4.1,15-12.3,16.9
		C300.9,207.6,295.2,205.3,291.6,202.1z"/>
</g>
<g class="st1">
	<path class="st0" d="M331.4,198.7l-14-44.3c-0.2-0.6,0-1.1,0.6-1.3l5.5-1.7c0.6-0.2,1.1,0.1,1.3,0.7l6.1,19.2l19.2-6.1L344,146
		c-0.2-0.6,0.1-1.1,0.7-1.3l5.5-1.7c0.6-0.2,1.1,0.1,1.2,0.7l14,44.3c0.2,0.6,0,1.1-0.6,1.3l-5.5,1.7c-0.6,0.2-1.1-0.1-1.3-0.7
		l-5.9-18.6l-19.2,6.1l5.9,18.6c0.2,0.6-0.1,1.1-0.7,1.3l-5.5,1.7C332,199.6,331.5,199.3,331.4,198.7z"/>
</g>
<g class="st1">
	<path class="st0" d="M364.7,163.3c-5.6-12.9,0.2-27.4,12.9-32.9c12.7-5.5,27.2,0.2,32.8,13.1c5.6,12.9-0.2,27.3-12.9,32.8
		C384.8,181.9,370.3,176.2,364.7,163.3z M403.2,146.7c-4-9.2-13.6-13.1-22.5-9.2c-8.9,3.9-12.7,13.6-8.8,22.8
		c3.9,9.1,13.6,13,22.6,9.1S407.1,155.8,403.2,146.7z"/>
</g>
<g class="st1">
	<path class="st0" d="M458.3,151.6l-5.7,2.1c-0.5,0.2-1,0.1-1.4-0.2l-16.1-12.1l-5.1,1.9l5.7,15.6c0.2,0.6,0,1.1-0.6,1.3l-5.4,2
		c-0.6,0.2-1.1-0.1-1.3-0.6l-16.1-43.6c-0.2-0.6,0-1.1,0.6-1.3l13.1-4.9c10.3-3.8,17.8,0.2,20.9,8.8c2.5,6.8,1.1,13.2-4.9,17.5
		l16.5,12.2C459.3,150.8,459.1,151.3,458.3,151.6z M427.6,136.8l6.4-2.4c4.8-1.8,8.2-5.2,5.9-11.3c-2.3-6.1-7-6.5-11.8-4.7l-6.4,2.4
		L427.6,136.8z"/>
</g>
<g class="st1">
	<path class="st0" d="M476,144.5l-12.2-38.7l-9.5,3c-0.6,0.2-1.1-0.1-1.2-0.7l-1.5-4.6c-0.2-0.6,0-1.1,0.6-1.3l26.3-8.3
		c0.6-0.2,1.1,0.1,1.3,0.7l1.5,4.6c0.2,0.6-0.1,1.1-0.7,1.3l-9.4,3l12.2,38.7c0.2,0.6-0.1,1.1-0.7,1.3l-5.5,1.7
		C476.7,145.4,476.2,145.1,476,144.5z"/>
</g>
<g class="st1">
	<path class="st0" d="M497.8,113.8c-2.3-14,6.5-26.5,20.4-28.8c6.8-1.1,12.7,0.5,17.6,3.8c0.6,0.4,0.7,0.9,0.3,1.5l-2.9,4.3
		c-0.3,0.5-0.8,0.6-1.4,0.3c-3.6-2.2-7.6-3.2-12.3-2.4c-9.6,1.6-15.6,10.1-14,20s10.1,15.9,19.7,14.3c4.7-0.8,8.1-3.1,10.8-6.3
		c0.5-0.6,1-0.6,1.4-0.2l4.1,3.2c0.6,0.4,0.6,0.9,0.2,1.4c-3.6,4.8-8.6,8.3-15.4,9.4C512.5,136.7,500.1,127.8,497.8,113.8z"/>
</g>
<g class="st1">
	<path class="st0" d="M551.3,112.7l-0.9-30.2c0-0.6,0.3-1.1,0.9-1.1l5.8-0.2c0.6,0,1.1,0.4,1.1,1l0.9,29.8
		c0.2,7.4,4.1,10.8,9.9,10.7s9.5-3.9,9.2-11.2l-0.9-29.8c0-0.6,0.4-1.1,1-1.1l5.8-0.2c0.6,0,1.1,0.4,1.1,1l0.9,30.2
		c0.4,11.9-6.6,18.5-16.9,18.8C559,130.7,551.6,124.6,551.3,112.7z"/>
</g>
<g class="st1">
	<path class="st0" d="M606.4,129.4l3.8-40.4l-9.9-0.9c-0.6-0.1-0.9-0.5-0.9-1.1l0.5-4.8c0.1-0.6,0.4-1,1.1-0.9l27.4,2.6
		c0.6,0.1,1,0.5,0.9,1.1l-0.5,4.8c-0.1,0.6-0.5,1-1.1,0.9l-9.8-0.9l-3.8,40.4c-0.1,0.6-0.5,1-1.1,0.9l-5.7-0.5
		C606.7,130.5,606.3,130,606.4,129.4z"/>
</g>
<g class="st1">
	<path class="st0" d="M633.9,126.9c-0.2-0.5-0.1-1,0.5-1.5l3.5-2.6c0.7-0.5,1.2-0.3,1.6,0.3c2.1,3.8,4.6,6.3,9.1,7.3
		c5,1.1,8.5-0.7,9.4-4.8c0.9-4.1-1.8-6.3-5.4-9.1l-5.2-4c-4.5-3.5-7.7-7.9-6.4-14.3c1.7-8,9-11.3,16.7-9.7c5.6,1.2,9.4,4.4,12,9
		c0.4,0.7,0.3,1.1-0.3,1.6l-3.5,2.7c-0.6,0.5-1.1,0.4-1.6-0.2c-2.2-3.4-4.5-5.4-7.9-6.1c-4-0.9-7.3,0.6-8.1,4.2
		c-0.7,3.1,0.9,5.1,4.4,7.8l4.7,3.6c4.8,3.7,9.5,8.1,7.8,15.9c-1.9,8.9-9.9,12-18.2,10.2C640,135.8,635.8,131.3,633.9,126.9z"/>
</g>
<text class="st0 st2 st3"> </text>
</svg>
