<svg xmlns="http://www.w3.org/2000/svg" viewBox="0 0 723.6 283.8" xmlns:v="https://vecta.io/nano"><g fill="#fff"><path d="M548.5 11.5l-7.3.5c-4.2.3-8.4.7-12.6 1.2-2 .2-4 .4-5.9.5-2.2.2-4.3.4-6.5.7L503.5 16l-11.3 1.6-22.4 2.7c-4.8.6-9.6 1.3-14.4 2.2-2.5.5-4.9 1-7.3 1.6-2.3.5-4.6 1.2-6.8 1.9l-7.4 2.1c-2.2.6-4.3 1.4-6.5 2.1L412.8 35c-2.4.7-4.7 1.5-7.1 2.3s-4.8 1.4-7.2 2.1l-13.8 4-6.9 2.2c-2.5.8-5 1.8-7.5 2.8-4.8 1.9-9.6 3.9-14.3 6l-32.4 14.8a398.49 398.49 0 0 1-14.1 5.1l-14.1 4.6c-2.4.7-4.8 1.3-7.3 1.8l-7.4 1.5-24.6 5.4c-3 .6-6.1 1.1-9.1 1.5-6.2.6-12.5.7-18.7.3-3.4-.2-6.7-.6-10.1-.9-3.2-.3-6.4-.5-9.5-.9h.2l-4.6-.6c-2.5-.3-5.1-.7-7.7-.9l-6.7-.6a16.28 16.28 0 0 0-3.1-.3c-.8 0-1.5.1-2.3.2a6.28 6.28 0 0 0-1.9.3c-1 .3-1.9 1-2.4 1.9-1.1 1.9-.5 4.4 1.4 5.5h0c.9.5 2 .7 3 .4.1 0 .1-.1.2-.1.2 0 .4 0 .6-.1.7-.1 1.5-.1 2.2 0 2.2.3 4.5.5 6.7.7 2.3.2 4.5.5 6.8.7 1.9.3 3.7.5 5.6.7l-.4-.1c5 .6 10 1 15 1.4 2.5.2 5.1.5 7.6.6 2.4.2 4.9.2 7.4.2 5 0 10.1-.3 15-1.1 5-.8 10-1.8 15-3l14.3-3.2 7.5-1.5c2.4-.5 4.9-1 7.3-1.7 5-1.4 9.9-3.1 14.8-4.7s9.7-3.4 14.5-5.2c3.9-1.5 7.8-3.2 11.6-5 3.6-1.6 7.2-3.3 10.8-5 7.4-3.5 14.8-6.9 22.4-10l5.9-2.4c2.4-.9 4.9-1.7 7.4-2.6 4.6-1.5 9.2-2.8 13.8-4.1l14-4.2 6.9-2.2 7.1-2.4 11.1-3.6 10.1-2.9c3.7-1 7.3-1.9 11.1-2.6a199.01 199.01 0 0 1 10.7-1.8l8.9-1.2 8-.9 9.4-1.1 16.8-2.4 15-1.6c2.3-.2 4.5-.5 6.8-.7 2.7-.3 5.3-.5 8-.7 4.8-.4 9.6-.8 14.5-.7 2.5 0 5 .1 7.5.2 2.4.1 4.8.5 7.2.7 2.9.2 5.8.5 8.6.8 3 .3 6 .7 9.1.9 5.5.4 11 .9 16.5 1.6 4.4.6 8.7 1.4 13.1 2.2l13 2.4 12.7 2.5 13.8 3c2.1.6 4.3-.7 4.9-2.8s-.7-4.3-2.8-4.9l-15.2-3.3c-4.4-1-8.9-1.7-13.3-2.5L615.3 17c-5-1-10.1-1.7-15.1-2.2-4.8-.5-9.7-.8-14.6-1.3l-14.8-1.4c-2.6-.2-5.1-.5-7.7-.8a81.93 81.93 0 0 0-7-.3H554c-1.9.3-3.7.4-5.5.5h0zm55.2 12.1l.6.1-.6-.1zM185.2 93.3h-.2c.1.1.1 0 .2 0z"/><path d="M180 89.7c-1 .3-1.9.9-2.4 1.9-.5.9-.7 2-.4 3l1.2 6.5 1.3 6.1.9 5.3.7 2.8 1.1 3.1 1.7 5.5 1.7 5.4 1.7 5.7c.5 1.7.9 3.4 1.2 5.2l.4 5.7.2 6.3c.2 4.1.3 8.2.4 12.3l.2 12.1c0 2.1.1 4.3 0 6.4l-.3 5.6c-.2 4.2-.5 8.5-.5 12.7 0 2.1.2 4.2.4 6.2.1 2 .3 4 .4 6 .1 4.1.1 8.1-.2 12.2-.1 2.1-.2 4.2-.1 6.4l.3 6.4c.1 3.3.1 6.7 0 10-.1 1.5-.3 3-.4 4.5-.2 1.6-.3 3.2-.5 4.9v-.2c-.2 1.6-.3 3.2-.4 4.8-.1 1.5.2 3 .1 4.5 0 .3-.1.6-.1.8 0 .8.2 1.7.7 2.4 1.1 1.9 3.5 2.6 5.5 1.5 1.5-.9 2.3-2.6 1.9-4.4 0-.2 0-.4.1-.6 0-.5 0-1-.1-1.4 0-.7-.1-1.4-.1-2.1 0-1.5.1-3 .3-4.5l.6-5.8.3-2.8c.1-.9.2-1.9.2-2.8.1-4.3.1-8.5-.2-12.8-.2-4.1 0-8.3.2-12.4.1-2.1.1-4.2.1-6.3 0-2-.2-4-.3-6.1-.1-2-.3-3.9-.4-5.9-.1-2.1-.1-4.2-.1-6.3.1-4.1.4-8.2.6-12.3.3-4.2.1-8.3.1-12.5 0-3.9-.1-7.9-.2-11.8-.1-4.2-.4-8.3-.5-12.5 0-4.4-.4-8.7-1.3-13-.9-3.8-2.1-7.5-3.3-11.2-.6-1.8-1.1-3.6-1.7-5.4l-.9-2.9c-.3-1-.7-1.9-1-2.9-.9-3.2-1.2-6.5-1.8-9.8-.3-1.6-.7-3.3-1-4.9-.4-1.9-.7-3.8-1.1-5.8-.5-1.8-2.1-3-3.9-3-.6.1-.9.2-1.3.2h0z"/><path d="M581.1 190.2l-6.6.4-14.9 1.4-13.4 1.3-15.1 1.7c-4.6.5-9.3.8-13.9 1.4-5.1.6-10.2 1.5-15.2 2.6-4.8 1-9.5 2.4-14.1 3.9s-9.3 2.8-14 4.3l-8.8 2.8c-2.8.9-5.6 2-8.3 3-2.8 1.1-5.7 2.2-8.5 3.2-2.9 1.1-5.7 2.2-8.5 3.4l-19.8 7.6c-3.4 1.4-6.8 2.9-10.1 4.6l-4.7 2.4-4 1.8c-2.7 1.1-5.4 2.1-8.1 3.1-3.2 1.2-6.4 2.5-9.6 3.8-2 .8-4.1 1.6-6.1 2.5-2.2.9-4.4 1.6-6.6 2.4-4.6 1.6-9.2 3.1-13.9 4.5s-9.3 3-13.9 4.4l-13.3 3.8c-2 .6-3.9 1.1-5.9 1.5a88.52 88.52 0 0 1-6.8 1.2c-4 .7-7.9 1.8-11.9 2.5-3.9.7-7.8 1.2-11.7 1.8-2.1.3-4.1.7-6.2 1l-6.6.9c-1.2.1-2.3.3-3.5.5-3.2.4-6.3.7-9.5.8h-5.5c-1.5 0-3-.1-4.4 0-3.3 0-6.6.2-9.8.1-2.9-.1-5.9-.3-8.8-.7l-10.6-1.5c-1.7-.2-3.3-.3-5-.4s-3.3-.3-5-.5c-1.9-.2-3.7-.3-5.6-.4-1.5-.1-3.1-.1-4.6-.1-1.8 0-3.6.2-5.4.2-2 .1-3.9.2-5.9.2-2.2 0-4 1.8-4 4s1.8 4 4 4l8.8-.4c2.6-.1 5.3-.1 7.9.1 1.3.1 2.6.1 3.9.3 1.5.2 2.9.3 4.4.5 1.3.1 2.6.2 3.9.2l3.3.3 12.5 1.8c4.2.4 8.3.5 12.5.3 2-.1 3.9-.1 5.9 0 2.1 0 4.3.1 6.4.1 4.3-.1 8.6-.5 12.9-1.1 4.9-.6 9.7-1.3 14.5-2.1 4.3-.8 8.7-1.3 13.1-2.1 2.2-.4 4.3-.9 6.5-1.4s4.5-.9 6.8-1.3c2.4-.4 4.8-.9 7.2-1.4 2.2-.5 4.5-1.2 6.7-1.8l13.4-3.9 13.9-4.4c4.7-1.4 9.4-3 14-4.7 4.6-1.6 9.2-3.5 13.7-5.4l1.1-.5 7.6-3c3-1.1 6-2.2 8.9-3.5 2.8-1.2 5.4-2.6 8.1-4 2.4-1.2 4.9-2.3 7.4-3.4l11.6-4.4c4.3-1.6 8.5-3.3 12.8-5.1l12.8-4.9c2.4-.9 4.9-1.9 7.3-2.7 2.2-.8 4.5-1.4 6.7-2.2l14.1-4.4 7-2.2c2.3-.7 4.5-1.2 6.8-1.8a140.16 140.16 0 0 1 15.7-3c4.5-.6 9.1-.9 13.7-1.3l14.3-1.6c9.5-1.1 18.9-1.9 28.4-2.7l11.5-.8c4.1-.2 8.2 0 12.3.1 4.2.1 8.4.4 12.5.8 3.9.3 7.7.7 11.5 1.1 4.2.6 8.3 1.2 12.4 2.1 2 .4 4 .9 6 1.2 2.3.4 4.7.7 7 1 1.2.2 2.5.4 3.7.7 1.3.3 2.5.8 3.7 1.3s2.5.8 3.7 1.2c1.5.5 3 1.1 4.5 1.6 1 .3 2.1.1 3-.4 1.9-1.1 2.6-3.5 1.5-5.4h0c-.6-.9-1.4-1.6-2.5-1.9l-4.9-1.8-4.6-1.5c-3.2-1-6.6-1.7-10-1.9-2.2-.4-4.4-.7-6.6-1.2-2.3-.5-4.6-1-7-1.4-4.8-.8-9.5-1.6-14.3-2l-14.3-1.2c-4.9-.3-9.9-.4-14.8-.4h-.3l-6.4.5zm-141.6 29.6l-.7.3.7-.3zm-126.9-193l-1.5 1-3.4 2.4-1.8 1.1-2.4 1.6-2.3 1.4c-.9.5-1.8 1.2-2.6 1.8l-5 3.1-5.7 2.9-5.2 2.3-5.4 2.3-10.9 4.7-13.1 5.7-6 2.1-5.5 1.6c-3.9 1.1-7.7 2.3-11.5 3.7-3.7 1.4-7.5 2.6-11.3 3.5-2 .5-4 .9-6 1.4-1.8.4-3.5.9-5.3 1.4l-12.2 3.1a32.27 32.27 0 0 0-7.2 3c-2.3 1.1-4.5 2.3-6.8 3.4-1.9 1.1-2.6 3.5-1.5 5.4.5.9 1.4 1.6 2.5 1.9 1 .3 2.1.1 3-.4 3.3-1.6 6.5-3.4 9.8-4.9 3.7-1.3 7.5-2.1 11.3-3.1l10.7-2.7c2-.5 4-.9 6-1.4s4-1.2 6-1.9l11.3-3.8c1.8-.6 3.6-1.1 5.5-1.6 2-.5 3.9-1.2 5.8-1.9 2.3-.8 4.5-1.6 6.7-2.6l5.7-2.5 10.8-4.7c3.5-1.6 7-3 10.5-4.5 2.4-1 4.9-2.1 7.2-3.2 2.4-1.2 4.8-2.4 7.1-3.8 2.2-1.4 4.3-3 6.6-4.3.6-.3 1.2-.7 1.7-1.1s1.1-.8 1.7-1.1c1-.6 2-1.3 3-2 .3-.2.5-.4.8-.6.2 1 .5 1.9.6 2.9.1 1.2.1 2.5.1 3.7 0 1.5.1 3 .1 4.4 0 1.3-.1 2.7-.1 4-.1 1.1-.1 2.2-.2 3.3-.3 1.7-.7 3.4-.8 5.2s0 3.7-.1 5.5c-.1 1.7-.1 3.3 0 5 0 .7.2 1.3.2 2v1.4c0 .7.1 1.4.2 2v.6c0 1 .4 2 1.1 2.8 1.5 1.6 4.1 1.6 5.7.1.8-.8 1.2-1.8 1.2-2.9-.1-.8-.1-1.5-.3-2.3v-1.8c0-.5 0-.9-.1-1.4-.1-1.1-.2-2.2-.1-3.4 0-1.3.1-2.6.1-3.9 0-1.2 0-2.4.1-3.6.2-1.1.4-2.1.5-3.2.2-1.6.4-3.2.4-4.9.1-1.3.1-2.6.2-3.8.1-1.6 0-3.1-.1-4.7-.1-1.5 0-3-.2-4.6-.1-.9-.2-1.9-.4-2.8-.1-.6-.3-1.2-.4-1.8-.2-1.3-.6-2.5-1-3.7-.3-.9-.7-1.8-1.4-2.5-.9-.9-2.1-1.5-3.4-1.5h-.1c-1.1.5-2.1.7-2.9 1.2h0z"/><path d="M249.5 6.3l-6.2.2c-2.3.1-4.7.5-7 .8-4 .6-8 1.6-12 2.5l-6.1 1.3c-1.9.4-3.9.7-5.9 1.1l-12.5 2.3c-2.1.4-4.2.6-6.4 1-2 .3-4 .7-6 .9-4.2.6-8.3 1.2-12.5 2-4 .7-8 1.2-11.9 1.8-4.3.6-8.6 1.5-12.9 2.5l-6 1.5-6.1 1.5-6 1.5c-2 .5-4.1.8-6.2 1.2l-13.9 2.4c-8.2 1-16.4 1.9-24.6 2.2-4.1.2-8.3-.1-12.4-.3-2-.1-4-.3-5.9-.3-2.2-.1-4.3-.1-6.5-.2-3.5-.1-7-.5-10.4-.7-3.2-.2-6.3-.5-9.5-.8-1.9-.3-3.8-.7-5.6-1.3-1.8-.5-3.6-1.2-5.4-1.9l-5.9-2.7c-1.1-.5-2.1-1.1-3.2-1.6-.6-.3-1.1-.6-1.7-.9-1.2-.8-2.7-1.3-4.1-1.4-.5 0-1 .1-1.5.2-.7.2-1.3.5-1.8 1-.3.3-.5.6-.8 1-.6 1-.7 2.1-.4 3.2.3.8.7 1.6 1.3 2.2.2.3.5.5.8.7l1.4 1.1c.5.3.9.6 1.4.9 1.9 1.2 3.8 2.3 5.6 3.6 1.6 1.4 3.1 2.9 4.6 4.3 1.8 1.6 3.5 3.4 5.2 5.1.8.8 1.7 1.6 2.5 2.5l2.7 2.7c2.1 2 4.3 3.9 6.7 5.6-.3-.2-.6-.4-.8-.7l5.1 4.1 5.4 4.1c3.3 2.6 6.5 5.1 9.9 7.5 3.5 2.5 7.1 4.8 10.9 6.8 2 1 4.1 1.8 6.2 2.6 1 .4 2 .6 2.9.9a31.31 31.31 0 0 0 2.9.8c2 .5 4 .9 6 1.4 1.4.4 2.7.8 4 1.3-.6.5-1.2 1.1-1.8 1.6l-4.2 3.7c-3 2.7-5.9 5.6-8.8 8.5-3 2.9-6.1 5.6-9.3 8.3-2.8 2.3-5.5 4.6-8.4 6.8l-9.5 6.6c-3.1 2.1-6.3 4-9.6 5.5-2.4.9-4.8 1.6-7.3 2.4-1.4.4-2.7.9-4.1 1.3-1.2.4-2.5.7-3.8.9-3 .2-6 .3-9 .1-1.5 0-3 0-4.6.1h-.7c-.6-.1-1.3-.3-1.9-.4-.9-.2-1.8-.2-2.7-.3-1.7 0-3.3.9-4.2 2.4-.9 1.6-.6 3.6.6 5 1.1 1 2.6 1.5 4.1 1.5 1 .1 2 0 2.9-.1h.5c1 .2 1.9.5 2.9.8 1.8.5 3.6 1.2 5.4 1.9 0 0 .1 0 .1.1h.1l.6.3.3.1c3.6 1.5 7.1 3.4 10.5 5.3l11.3 6.4c3.4 2.1 7 4.1 10.6 5.8a113.65 113.65 0 0 0 12.7 4.7l14.8 4.2c2.3.7 4.7 1.3 7.1 1.8 2.8.6 5.5.9 8.3 1.3l5.9.8c-.3 0-.7-.1-1-.1l6.2.8c1.9.2 3.7.5 5.6.7 2.1.3 4.2.5 6.2.7a60.78 60.78 0 0 0 6.1.3c2.1 0 4.1-.2 6.2-.3s4.1-.3 6.2-.6c4.2-.5 8.4-.9 12.6-1 3.8-.1 7.7-.5 11.5-.9l4.5-.6c1.4-.2 2.7-.5 4.1-.7.7-.1 1.3-.2 2-.4.6-.1 1.2-.3 1.8-.5 1.5-.4 2.9-1 4.4-1.3 2.1-.5 3.4-2.7 2.9-4.9-.5-2.1-2.7-3.4-4.9-2.9h-.1c-2.5.6-4.8 1.6-7.3 2-1.2.2-2.5.5-3.7.7-1 .2-2 .3-3 .4-3.6.4-7.1.8-10.7.9-4.1.2-8.1.4-12.2.9-4.3.5-8.6.9-12.9 1.1-3.9 0-7.8-.2-11.7-.7-1.2-.2-2.5-.3-3.7-.5l-7.4-.9c-1.2-.2-2.4-.3-3.6-.5-2-.3-4.1-.5-6.1-.8a134.37 134.37 0 0 1-8.7-1.8c-3.1-.8-6.1-1.7-9.1-2.6-6-1.6-11.9-3.4-17.7-5.6-1.7-.8-3.4-1.6-5-2.5a156.16 156.16 0 0 1-5.5-3.2l-11.4-6.5-6-3.3c1.7-.4 3.4-1 5.1-1.6l6.2-2c1.2-.4 2.4-.8 3.6-1.4 1-.4 1.9-.9 2.9-1.4 3.6-2 7.1-4.2 10.4-6.7 1.6-1.1 3.2-2.3 4.9-3.4 1.8-1.3 3.5-2.6 5.3-4 3.4-2.6 6.6-5.4 9.8-8.3s6.2-5.9 9.2-8.9c2.8-2.8 5.7-5.4 8.7-7.9l2.2-1.9c.9-.7 1.7-1.4 2.4-2.2.9-.9 1.5-2.1 1.8-3.3 0-.3.1-.7.1-1 0-.4-.1-.9-.2-1.3a4.45 4.45 0 0 0-1.2-2.1c-.4-.4-.9-.8-1.5-1.1l-.6-.3c-.5-.2-.9-.4-1.4-.6-2-.9-4.1-1.7-6.2-2.3-1.9-.6-3.8-1-5.8-1.4-1.7-.4-3.4-.8-5-1.3-1.5-.5-3-1-4.5-1.6-6.7-3-12.8-7.5-18.6-12-2.8-2.2-5.6-4.3-8.4-6.4-2.2-1.7-4.4-3.5-6.6-5.3.3.2.6.4.8.7-1.2-1-2.5-2-3.6-3-1.2-1.1-2.3-2.3-3.4-3.4s-2.3-2.2-3.4-3.4l-.1-.1 1.4.3a81.42 81.42 0 0 0 6.9.9c2.1.2 4.1.3 6.2.5 4 .3 8 .7 12 .8 8.4.2 16.7 1 25.1.7 4.3-.2 8.6-.5 13-1 4.3-.4 8.7-.9 13-1.6l12.5-2.2 6.4-1.2c1.9-.4 3.9-.9 5.8-1.4 8.2-2.3 16.6-4.1 25-5.5l12.1-1.8c2.1-.3 4.1-.7 6.2-1.1l6.1-.9 5.9-.9c2.1-.3 4.2-.6 6.3-1 4.2-.7 8.3-1.5 12.5-2.3 2.2-.4 4.3-.7 6.5-1.2l6.8-1.5c2.2-.5 4.3-1 6.5-1.4s4.3-.8 6.5-1.1c4.4-.4 8.8-.5 13.1-.4 4.1.1 8.2.6 12.2 1.1l10.7 1.4c3.3.4 6.7.5 10 .8 4.3.7 8.5 1.8 12.5 3.2 1 .4 1.9.9 2.8 1.4 1.1.7 2.2 1.4 3.2 2.2 2.5 1.8 4.8 3.7 7.3 5.5.9.6 2 .7 3 .4 2.1-.6 3.4-2.7 2.8-4.9h0c-.1-.3-.3-.6-.4-.9-.3-.6-.9-1.1-1.5-1.5-3.1-2.4-6.2-4.9-9.5-7.1-3.3-2.1-7-3.6-10.8-4.5-1.6-.5-3.3-.9-5-1.2-2.1-.4-4.3-.7-6.5-.9l-11.1-1-12-1.6c-3.7-.4-7.5-.6-11.2-.7.5.1.2.1 0 .2h0zM15.8 28.5h0zm97.1 2h-.4.4z"/><path d="M96.3 82l-2.7 2.4c.3-.2.5-.5.8-.7-.7.7-1.5 1.2-2.2 1.9l-2.4 2.1-3 2.5-3.7 3.4-6.5 5.5c.3-.2.5-.5.8-.7l-.6.6c-3.9 3.5-8.7 6-12.8 9.3l-6.9 5.3-3.1 2.1c-1.2.7-2.3 1.5-3.5 2.2-.9.4-1.8.9-2.8 1.3-1.2.5-2.3 1.1-3.5 1.6-2.2.9-4.5 1.7-6.9 2.2-1.4.3-2.8.5-4.3.8a60.94 60.94 0 0 1-6 .6l-5.4.3c-1.8.1-3.6.1-5.3.1-1.9.1-3.8.1-5.7.4-1.8.2-3.6.4-5.3.8-.5.1-1 .3-1.4.5-1 .4-2 1-2.7 1.9-.6.7-.9 1.5-1 2.3-.1.4-.1.9 0 1.3.1.8.3 1.5.8 2.1l.6.9c1.2 1.4 2.7 2.5 4.3 3.4l-.5-.3c1.5 1 3.1 1.8 4.7 2.6 1.6.7 3.3 1.5 4.9 2.3 3.2 1.8 6.6 3.3 9.9 4.8l10.5 4.7c1.8.8 3.6 1.6 5.5 2.3a27.73 27.73 0 0 0 2.6 1l2.9 1.2c1 .4 2.1.8 3.1 1.3.9.4 1.9.8 2.8 1.3 2.2 1 4.4 1.8 6.7 2.6l3.3 1.2c1.1.4 2.1.9 3.2 1.3 2.6 1 5.2 1.8 7.8 2.6l-.6-.2c1.9.6 3.8 1.1 5.8 1.6l4.8.9c1.8.3 3.6.5 5.4.8 1.7.3 3.4.8 5.1 1.3s3.4 1 5.1 1.4 3.5.7 5.2.8c1.7.2 3.4.3 5.2.4 2.3.2 4.5.2 6.8.3.5 0 1 0 1.5.1 2.1.2 4.1.4 6.2.4 1.7 0 3.3-.1 5-.1 1.6 0 3.2 0 4.8.1s3.2.1 4.7.1c3.8 0 7.6-.2 11.4-.2 1.1 0 2.1 0 3.2.1 2.1.1 4.3.1 6.4-.1 2.3-.2 4.7-.5 7-.9 2.9-.5 5.7-1.1 8.6-1.7l-.4.1c3.2-.6 6.3-1.4 9.3-2.5l4.9-1.8c2-.9 3.9-1.9 5.8-3.1 1.8-1.3 2.3-3.8 1-5.6-.6-.9-1.5-1.4-2.5-1.6a3.94 3.94 0 0 0-3 .6c-.9.5-1.7 1-2.6 1.5-2.3 1-4.6 1.9-7 2.7-1.1.4-2.2.6-3.3 1s-2.2.6-3.3.8c-.7.1-1.4.3-2.1.4l-4.7.9c-1.6.3-3.3.6-4.9.8-1.5.2-3.1.3-4.6.4-1.6.1-3.2 0-4.8 0-1.7 0-3.3-.1-5-.1-1.8 0-3.5.1-5.3.2-3.5.1-7 .1-10.5-.1-1.7 0-3.3-.1-5-.1s-3.5.1-5.2 0c-1.8-.1-3.5-.3-5.3-.4-1.7-.1-3.3-.1-5-.2-3-.2-5.9-.5-8.9-.9-1.5-.3-2.9-.6-4.3-1-1.5-.4-3-.9-4.6-1.4-1.5-.4-3-.8-4.5-1-1.5-.3-3-.4-4.6-.7-3.1-.5-6.1-1.1-9-2h.1c-.4-.1-.8-.3-1.2-.4-1.7-.6-3.4-1.1-5-1.7l-5.3-2.1c-1.7-.6-3.5-1.2-5.2-1.9-1.6-.6-3.2-1.3-4.8-2.1-3.4-1.5-6.9-2.8-10.3-4.3l-10.5-4.6c-2-.9-4.1-1.8-6.1-2.8-2.1-.9-4.2-1.9-6.2-3-1.9-1-3.8-2.1-5.7-3-.8-.4-1.7-.7-2.5-1.1h0c1.9-.2 3.8-.2 5.6-.2 1.8-.1 3.6-.1 5.4-.2l5.5-.3c1.9-.1 3.8-.4 5.7-.7s3.8-.7 5.7-1.1c1.8-.4 3.5-.9 5.2-1.6 1.6-.6 3.2-1.4 4.8-2.1s3.1-1.4 4.6-2.2 2.9-1.8 4.3-2.7c2.7-1.7 5.2-3.7 7.7-5.7l3.6-2.7c1.3-1 2.7-1.8 4-2.7 1.2-.8 2.4-1.7 3.7-2.5 1.3-1 2.6-2 3.7-3.1l-.4.4.6-.6c1.3-1.2 2.8-2.2 4.1-3.4 1.6-1.3 3-2.7 4.5-4.1 3-2.6 6.2-5 9.1-7.7-.3.2-.5.5-.8.7 1-.9 2.2-1.7 3.1-2.6 1.4-1.7 1.2-4.2-.5-5.6-.7-.6-1.6-.9-2.5-.9-1.4.1-2.4.6-3.2 1.3zM76.5 98.9l-.6.6.6-.6zm6.4 5l-.4.4.4-.4z"/><path d="M19.9 133.8c-1.4 1.7-1.2 4.2.5 5.6.8.6 1.6 1.1 2.4 1.5.6.4 1.3.7 1.9 1l4.1 1.9 8.3 3.8 8.4 3.7 4.3 1.7 4.9 1.7 4.1 1.6 5.2 2c3.8 1.4 7.6 2.6 11.4 3.8 1.6.5 3.3.9 4.9 1.3 1.7.5 3.4.9 5.2 1.3a63.67 63.67 0 0 0 6 1.2l5 .9c4.3.9 8.5 2 12.9 2.7 4.2.6 8.4 1.1 12.6 1.3h-.6c3.9.2 7.8.6 11.7.5 3.3 0 6.6-.1 10 0s6.9.2 10.4 0c1.7-.1 3.4-.3 5.1-.4 1.9-.2 3.8-.3 5.7-.6 2-.3 4.1-.6 6.1-1 2.4-.5 4.9-.9 7.3-1.4 1.9-.4 3.9-1 5.8-1.5 1.7-.5 3.4-1.2 4.9-2.1.7-.3 1.3-.5 2-.7l3.4-1.2a4.05 4.05 0 0 0 2.4-5.1c-.7-2-3-3.1-5.1-2.4-1.3.5-2.6.9-3.9 1.4-.4.2-.9.3-1.3.5-.5.2-1 .5-1.5.8-1.5.7-3 1.3-4.5 1.6-1.9.5-3.7 1-5.6 1.4-3.2.7-6.5 1.3-9.8 1.7-3.6.5-7.2.8-10.8 1.1-1.7.1-3.4.1-5.2.1s-3.4 0-5.2-.1c-3.3-.1-6.7-.1-10 0-2 0-4 0-6-.1-1.9-.1-3.9-.3-5.8-.4l1 .1c-1.5-.1-3-.3-4.5-.4-1.7-.2-3.4-.3-5.1-.6-3.5-.5-7-1.2-10.5-2-1.6-.4-3.2-.7-4.7-1-1.7-.4-3.4-.6-5.1-.9-3.7-.7-7.4-1.6-11-2.6-1.3-.4-2.7-.7-4-1.1-1.1-.3-2.3-.7-3.4-1.1-3.1-1-6.1-2.1-9.1-3.2-1.6-.6-3.1-1.3-4.6-1.9s-3.2-1.1-4.7-1.6c-1.2-.4-2.4-.9-3.5-1.4-1.3-.5-2.6-1-3.9-1.6-2.7-1.1-5.3-2.4-7.9-3.6-2.6-1.1-5.1-2.5-7.7-3.6-2.3-1-4.6-2.1-6.8-3.4-.7-.6-1.6-.9-2.6-.9-1.6.3-2.8.8-3.5 1.7h0zM259.9 0c-1.8 0-3.6.2-5.4.3l-6.2.3-8.1.7-7.6 1-7.5.9-8.7 1.6c-6.3 1.3-12.7 2.1-19 3.4l1.1-.2c-1.2.2-2.4.5-3.6.7l-1.2.3c-.1 0-.2 0-.3.1-.2 0-.4.1-.5.1s-.2.1-.3.1c-.6.1-1.2.3-1.8.4-2.1.5-4.2.9-6.3 1.5-2 .5-4.1 1.1-6.1 1.5l-2.8.6c-1.7.3-3.3.7-5 1l.5-.1-6.7 1.5-4.2.9 1-.2-2.6.6c-2 .4-3.9.8-5.9 1.3-1.8.5-3.6.9-5.4 1.3-3.5.7-6.9 1.3-10.4 1.8l-5.5.9c-1.9.3-3.6.7-5.4 1-3.4.6-6.8 1-10.2 1.5-3.1.4-6.2.7-9.3 1l-9.4.7-5.3.3c-1 0-1.9 0-2.9.1-1.1 0-2.2.2-3.3.2h-5.8c-1.7 0-3.5.1-5.2.2-3.8.2-7.6.2-11.4.5-1.9.1-3.9.2-5.8.2-2.8-.2-5.7-.6-8.5-1-1.4-.2-2.8-.5-4.1-.8-1.3-.2-2.6-.5-3.9-.9l-4.2-1.5c-1.1-.3-2.1-.7-3.2-1-2.5-.9-4.8-2.1-7.3-3-1.6-.6-3.3-1-5-1.3l-1.8-.3c-1-.1-2-.2-3-.1-2.3.3-4.7 1.6-5.6 3.8a7.06 7.06 0 0 0-.6 2.8c0 .8.2 1.5.6 2.2.5 1.3 1.2 2.5 2 3.7.9 1.2 1.9 2.4 2.8 3.6s1.8 2.2 2.8 3.2 2 1.9 3 2.8c2.2 2.1 4.4 4 6.5 6.2 1.1 1.1 2.2 2.2 3.4 3.2l3.3 2.7c1.1.9 2.2 1.9 3.4 2.8 1.3.9 2.6 1.8 3.9 2.6 1.4.9 2.6 1.9 3.9 2.9a65.2 65.2 0 0 0 4 3.4c1.2 1 2.5 1.8 3.8 2.6 1.5 1 3 1.9 4.5 2.8 4 2.5 8.2 4.6 12.2 7 2.2 1.4 4.3 2.9 6.5 4.2 1.2.7 2.4 1.2 3.6 1.7 1.1.4 2.1.9 3.2 1.4 2.3.9 4.6 2 7 2.8 1.3.4 2.7.7 4.1.8 1.3 0 2.6-.1 3.9-.4 1.1-.1 2.1-.6 2.8-1.4 1.4-1.7 1.2-4.2-.5-5.6h0c-.8-.7-1.8-1-2.9-.9-1.1.2-2.2.4-3.3.4-.7-.1-1.4-.3-2.1-.5-2.3-.8-4.5-1.8-6.7-2.8-1.3-.6-2.6-1.1-3.9-1.6-1.3-.6-2.5-1.3-3.7-2.1l-3.7-2.5c-1.5-.9-2.9-1.8-4.5-2.6-1.3-.7-2.6-1.5-4-2.2-1.4-.8-2.9-1.5-4.2-2.4-.8-.5-1.7-1.1-2.6-1.6-2.3-1.5-4.6-3.1-6.7-4.9-1.2-1-2.2-2.1-3.4-3-1.3-1-2.6-1.8-3.9-2.7-.9-.6-1.8-1.3-2.7-2-1-.8-2-1.7-3-2.5-1.9-1.6-3.8-3.1-5.6-4.9s-3.7-3.6-5.5-5.3c-.9-.9-1.8-1.7-2.8-2.6-.7-.7-1.5-1.3-2.2-2-.4-.5-.8-.9-1.2-1.4-.6-.7-1.1-1.4-1.6-2.2L19.4 26c.2 0 .5.1.7.1l2.5.6c.6.2 1.3.5 1.9.8l2.6 1.2 3 1.2 3.9 1.2.4.1c2 .7 3.9 1.4 5.9 2 1.9.5 3.8.8 5.7 1.1 2.1.4 4.1.7 6.2.9 2.3.2 4.6.5 6.8.5 2 .1 4.1-.2 6.2-.3 1.9-.1 3.8-.2 5.7-.2 3.7-.1 7.3-.4 11-.3 1.9 0 3.8.1 5.7-.1 2-.1 4-.2 6-.2 3.3-.1 6.6-.5 9.8-.7 3.1-.2 6.3-.5 9.4-.8 3.2-.3 6.4-.8 9.7-1.3 2.8-.4 5.6-.9 8.3-1.4l8.9-1.4 8.6-1.5c1.8-.4 3.6-.8 5.3-1.3 1.5-.4 2.9-.7 4.4-1 1.1-.2 2.2-.5 3.4-.7.7-.1 1.4-.3 2.1-.4l8.6-1.9 2.9-.6c1.3-.3 2.6-.6 4-.8h.2l.5-.1h-.2c1.9-.4 3.8-.9 5.7-1.4 2-.5 4-.9 6-1.4l2.8-.6.8-.2c.3 0 .7-.1 1-.2h0l.6-.1 1.2-.3c.8-.2 1.5-.3 2.3-.5h-.1l18.9-3.4c3.3-.7 6.6-1.3 10-1.7l9.7-1.2c3.3-.4 6.7-.7 10.1-1l6.2-.3 5.5-.3h4.8c1.5 0 2.9 0 4.3.1 1.5.1 3 .3 4.5.5 1.7.2 3.3.6 5 .8 1.5.2 2.9.5 4.4.9s2.9.6 4.4 1c.9.3 1.8.7 2.7.9l3.1.9c1.9.5 3.7.9 5.6 1.5 1.4.5 2.7 1.2 3.9 1.9 1.2.8 2.2 1.7 3.3 2.6s2.3 1.6 3.6 2.4c.1.1.2.2.4.3.6.7 1 1.6 1.6 2.3.6.9 1.3 1.7 1.8 2.7.8 1.7 1.4 3.4 2.1 5.1.6 1.5 1.2 3.1 1.6 4.7.1.6.2 1.2.2 1.8.1.9.3 1.9.5 2.8.4 1.9.6 3.8 1 5.6-.1-.3-.1-.7-.2-1.1.3 1.3.4 2.5.5 3.8.1 1 .1 2 0 3-.1 1.4-.4 2.8-.6 4.1-.2 1.4-.2 2.9-.2 4.3 0 1.1.1 2.2.1 3.3 0 .8 0 1.7-.1 2.5v.2c-.5 1-.5 2.1-.2 3.1.1.4.3.8.6 1.1.2.3.5.5.7.8a4.11 4.11 0 0 0 4 .7c.7-.3 1.3-.7 1.8-1.2 1-1 1-2.5 1-3.9.1-1.5.1-3 .1-4.5s-.1-3.1-.1-4.6c.2-2.2.7-4.4.7-6.7 0-1.2 0-2.4-.1-3.5-.1-1.2-.3-2.4-.6-3.6h0c-.4-1.8-.6-3.7-1-5.5l.1.6c-.2-1.1-.3-2.2-.4-3.3-.2-1.5-.5-2.9-1-4.3l-2.4-6.5c-.6-1.4-1.3-2.8-2.1-4.2-.6-1-1.4-2-2.1-3-.3-.4-.6-.9-.9-1.3-.5-.7-1-1.3-1.7-1.8-.9-.7-1.8-1.3-2.8-1.8-1.4-1-2.7-2.2-4.1-3.1-1.7-1.2-3.6-2.3-5.6-3.1-1.9-.7-3.8-1.2-5.7-1.7a82.26 82.26 0 0 1-4.7-1.3c-1.5-.6-3.1-1.1-4.6-1.5-.8-.2-1.7-.3-2.5-.5l-2.5-.6-5-.9c-1.8-.3-3.5-.5-5.3-.7-2.1-.1-4.3-.2-6.5-.2h-5.7zm65.3 66.7h0zm-288-43l-.4-.1.4.1zm-.6-.2l.2.1-.6-.2.4.1z"/><path d="M310.5 22.2a4.29 4.29 0 0 0-2.3 2.1c-.1.2-.2.4-.4.6-.4.6-.9 1.2-1.4 1.8-1.1.9-2.3 1.7-3.5 2.5l-5.3 3.1c.3-.2.6-.3 1-.5l-7.5 4.1-7.2 4-6.8 4.1-7.1 3.9c-3.3 1.7-6.7 3.2-10.1 4.5-3.5 1.4-6.9 3.1-10.5 4.5-3.6 1.5-7.3 2.8-10.9 4.1l-11 3.9-10.3 3.7c-1.7.6-3.3 1.2-5 1.7-1.9.6-3.8 1.1-5.7 1.7-3.5 1.1-6.9 2.3-10.3 3.5l-2.5.9c-1 .3-2 .5-2.9.8-1.9.5-3.8 1.1-5.6 1.9-1.5.6-3 1.5-4.3 2.5-.6.5-1.2 1-1.8 1.6-.3.3-.5.6-.8.9-.4.6-.8 1.2-1.1 1.8-.2.3-.3.6-.4.9-.5 1-.7 2.1-.6 3.2.1.7.3 1.3.5 1.9.7 2.1 3 3.2 5.1 2.4 2-.7 3.1-2.8 2.5-4.8.1-.1.1-.2.2-.3.3-.4.6-.8 1-1.1a15.26 15.26 0 0 1 1.6-1.1c1.7-.7 3.4-1.3 5.1-1.9 1.9-.6 3.8-1 5.7-1.7l10.1-3.5c1.8-.6 3.7-1.1 5.5-1.7 1.8-.5 3.5-1.1 5.3-1.8l10.4-3.7 21.7-7.9c1.8-.7 3.6-1.5 5.4-2.3 1.7-.8 3.5-1.5 5.3-2.3l5.6-2.3c1.7-.7 3.3-1.6 4.9-2.4 1.5-.7 3-1.6 4.5-2.3 1.4-.7 2.8-1.4 4.1-2.2 2.4-1.4 4.6-2.9 7-4.2 2.4-1.4 4.9-2.7 7.3-4.1l7-3.9-.6.3c2.8-1.4 5.4-3 8-4.7 1.2-.8 2.3-1.7 3.3-2.7 1.2-1.3 2.2-2.7 3-4.2.5-1 .5-2.1.2-3.1-1-1.8-3.3-2.9-5.4-2.2h0z"/><path d="M180.6 81.4c-.4.1-.8.2-1.1.4-.8.2-1.5.6-2.1 1-.4.3-.9.7-1.2 1-.4.4-.7.9-1.1 1.3-.5.8-1 1.6-1.3 2.6-.5 1.5-.8 3-.8 4.6v1.5c0 .6-.1 1.1-.1 1.7-.1 1.3-.1 2.7-.1 4 0 2.8.3 5.6.7 8.3l.4 3 .5 3.1v1l.7 5 .9 4.4 1.4 8.6c.1 1.2.3 2.4.5 3.6l.6 5 1.1 5c.8 3.3 1.5 6.6 2 10 .2 1.3.3 2.6.5 3.9l-.1-1.1c.2 1.9.5 3.8.7 5.7 0 .3.1.6.1.9 0 .2 0 .4.1.6v.4a.9.9 0 0 0 .1.5c0 .2.1.4.1.6.1.4.1.7.1 1.1l.6 5c.2 1.7.4 3.3.4 5 .1 2 .2 4 .4 5.9.4 4 .5 7.9.8 11.9.3 3.9.3 7.8.4 11.6s.4 7.5.5 11.3c.1 3.5.1 7.1 0 10.6-.1 3.4-.5 6.8-.8 10.1-.2 1.7-.3 3.4-.5 5.2l-.6 5.1c-.2 1.5-.2 2.9-.4 4.4s-.3 3-.5 4.4c0 .2-.1.4-.1.7-.3 1.6-.4 3.2-.4 4.8v2.4c.1 1 .2 2.1.5 3.1.4 1.5 1 3.3 2.3 4.4a8.37 8.37 0 0 0 2.4 1.4c.3.1.5.1.8.2.8.2 1.6.3 2.4.4.9.2 1.9.3 2.8.4h.3c.2 0 .4.1.6.1.3.1.7.1 1 .1a4.08 4.08 0 0 0 4.1-3.9c0-.7-.2-1.4-.5-2.1-.5-.9-1.4-1.6-2.4-1.9l-2.1-.3c-1.2-.2-2.3-.4-3.5-.5-.2 0-.3-.1-.5-.1l-.3-1.2v-1.3c0-.8-.1-1.6 0-2.5 0-.7.1-1.5.2-2.2 0-.2 0-.3.1-.5.1-.3.1-.6.1-1 .1-.5.1-1.1.2-1.6l.6-5.2 1.2-11 .6-5.7c.2-1.9.3-3.9.4-5.8.3-7.6-.2-15.2-.5-22.8-.2-3.9-.1-7.9-.4-11.8-.3-4-.4-7.9-.8-11.9-.2-2.1-.3-4.3-.4-6.4-.1-2.3-.4-4.6-.7-6.8-.2-1.6-.3-3.2-.6-4.8 0-.3 0-.5-.1-.8 0-.2 0-.5-.1-.7.6-.7.9-1.5.9-2.4-.2-2.2-.3-4.4-.4-6.6-.1-2 0-3.9.1-5.9.1-1.9.4-3.9.4-5.8 0-2.1 0-4.1-.1-6.2 0-1-.2-2-.3-3l-.3-3.1-.5-5.9a74.67 74.67 0 0 0-.9-6.6c-.4-1.9-.9-3.9-1.2-5.8-.2-1.2-.4-2.3-.5-3.5-.2-1.8-.3-3.7-.5-5.5-.2-1.9-.4-3.9-.5-5.8-.1-2-.2-3.9-.2-5.9 0-1.8.3-3.7.1-5.5-.1-.7-.1-1.4-.3-2.1-.1-.7-.4-1.3-.7-1.9-.6-1-1.5-1.8-2.6-2.1-.4-.2-.9-.2-1.3-.2-.5.2-.9.3-1.3.4h0zm2.9 177.8v.3-.3zm10.8 18.2h0-.3.3z"/><path d="M589.3 196.1l-4.1.1c-4.4-.1-8.8-.1-13.2 0l-13.5.5-7 .3c-2.1.1-4.2.4-6.3.7l-6.8.9c-2.4.4-4.7.8-7 1.3l-6.6 1.4-6.6 1.1c-2.3.4-4.6.7-6.9 1.1s-4.5 1-6.8 1.5c-8.7 1.9-17.7 3.2-26 6.5l-6 2.5-6.2 2.6c-3.8 1.6-7.6 2.9-11.3 4.7-1.8.8-3.6 1.6-5.5 2.3l-2.6.9c-.9.3-1.8.7-2.8 1-3.9 1.4-7.7 2.9-11.4 4.5-1.9.9-3.8 1.7-5.8 2.4-1.8.7-3.7 1.4-5.5 2.2-4.1 1.8-8.3 3.3-12.5 4.9-2.1.8-4.3 1.5-6.5 2.4-2.3.9-4.6 1.7-6.9 2.5-2.2.7-4.3 1.5-6.4 2.3l-6 2.1c-4 1.5-8 3.2-12 4.7-2 .7-4 1.6-6 2.3-2.1.8-4.4 1.3-6.5 1.9-3.7 1-7.3 2.2-11 3.3l-11.4 3.1c-1.6.4-3.3.7-4.9 1.1s-3.1.9-4.6 1.4l-4.6 1.5c-1.5.5-3 .9-4.5 1.3l-7.5 1.7c-2.8.6-5.7 1.2-8.5 1.6-2.7.4-5.4.9-8.2 1.2-1.4.1-2.8.2-4.1.2-1.7 0-3.3.1-5 .1h-3.4l-3.9.3c-2.5.3-5 .1-7.6.3l-8.1.7a112.33 112.33 0 0 1-8.2.3h-3.8c-1.2 0-2.5 0-3.7.1-.8 0-1.6-.1-2.4-.2-1.1-.1-2.3-.3-3.4-.4-2.4-.3-4.8-.5-7.1-.9-3.8-.7-7.7-.7-11.6-1.2-1-.1-2-.3-3-.4-1.1-.1-2.2-.1-3.3-.1-2-.1-4-.4-6-.8-1.1-.2-2.2-.5-3.3-.6-1-.2-2.1-.3-3.1-.4l-3.2-.6c-1.2-.2-2.5-.3-3.8-.4-1-.1-2.1.1-3 .8-1.8 1.3-2.1 3.8-.8 5.6.6.9 1.6 1.4 2.6 1.6 1.2.1 2.4.2 3.6.4 1.2.1 2.3.4 3.4.6 1 .2 2.1.3 3.1.4 1.2.2 2.4.4 3.6.7 2 .4 4 .7 6 .7 1.1 0 2.2.1 3.2.1 1.1.1 2.2.3 3.3.4 2 .2 4 .3 6 .4 1.9.1 3.8.4 5.7.8 2.4.4 4.9.6 7.3.9 1.1.1 2.3.3 3.4.4 1.3.1 2.7.1 4 .1 1.6 0 3.1-.1 4.7-.1h0c1.3 0 2.6 0 3.9.1 1.5 0 2.9-.1 4.4-.2 2.8-.1 5.5-.4 8.3-.6 2.6-.3 5.1-.3 7.7-.3 1.3 0 2.7-.2 4-.3s2.6-.2 3.9-.2c4.4.2 8.7 0 13.1-.6 4.2-.6 8.5-1.2 12.7-2.1 2.1-.5 4.2-.9 6.4-1.4s4.5-1 6.7-1.6c3.9-1.2 7.6-2.6 11.5-3.6l6.6-1.6c2.1-.5 4.1-1.1 6.1-1.7 4.1-1.1 8.2-2.4 12.3-3.6 2.3-.7 4.6-1.2 6.8-1.9 2.4-.7 4.7-1.6 7-2.6l6.4-2.5 6.6-2.6c2.1-.7 4.1-1.4 6.2-2.2s4.2-1.6 6.4-2.3c2.3-.7 4.5-1.6 6.8-2.4l6.7-2.4c4.2-1.6 8.4-3 12.4-4.8 3.8-1.7 7.7-2.9 11.4-4.7 1.8-.9 3.8-1.7 5.7-2.4l5.8-2.2c1.8-.6 3.6-1.3 5.4-1.9.9-.3 1.7-.7 2.6-1l2.7-1.2a117.85 117.85 0 0 1 5.2-2.3c2-.9 4.1-1.6 6.2-2.4 2-.9 4-1.6 6-2.5 2.1-.9 4.1-1.8 6.2-2.6 2.9-1.1 5.8-2 8.8-2.8 4.3-1 8.6-1.8 12.9-2.7 4.5-1 8.9-2.1 13.4-2.8s9-1.3 13.4-2.3a104.69 104.69 0 0 1 13.8-2.4c3.2-.4 6.4-.9 9.7-1.1 1.7-.1 3.3-.2 5-.2s3.4-.1 5-.2c3.4-.2 6.9-.3 10.3-.4 3-.1 6.1-.1 9.2-.1 2.1.1 4.3.1 6.4.1 1.7 0 3.3-.2 5-.2 1.6.1 3.3.3 4.9.4 1.9.2 3.9.2 5.8.2 4.2.1 8.5.4 12.7.7 4.3.3 8.6.9 12.8 1.5 2.1.3 4.1.5 6.2.9l6.6 1.3c1.8.4 3.7.7 5.5 1.1 2 .4 4 .9 6 1.3 1.7.4 3.4.7 5.1.9.6.1 1.3.1 1.9.3.5.1 1 .2 1.5.4 1.3.4 2.6 1 3.9 1.7a3.9 3.9 0 0 0 3 0c2.1-.8 3.1-3.1 2.3-5.2h0a3.96 3.96 0 0 0-2.2-2.2c-.5-.3-1.1-.5-1.6-.8-1.4-.6-2.9-1.1-4.5-1.5-.9-.2-1.7-.4-2.5-.5-4.2-.6-8.4-1.4-12.5-2.4-1.8-.4-3.7-.7-5.5-1.1-2.2-.4-4.4-.9-6.7-1.4-2-.4-4-.5-6.1-.8l-6.5-.9c-3.7-.5-7.5-.6-11.2-.8l-5.8-.3c-1.7-.1-3.3-.1-5-.1-2.9-.2-5.7-.6-8.6-.6h-.2c-1.9-.2-3.2-.1-4.5 0h0zm-335.8 79.7h0zm-3.3 7.9h0zM533 13.6c-2.4 0-4.7.2-7.1.4-2.3.1-4.5.4-6.7.7l-7.3 1a185.69 185.69 0 0 0-14.7 2.1l-5.2 1.1.3-.1-.4.1-6.6 1.5-7.5 1.6-7.6 1.2c-2.4.4-4.8 1-7.1 1.6l-8.1 2.1-14.4 4.2-3.3 1.2-3.4 1.1-7.1 2.4-6.4 2.3-6.5 2.3-6.7 2.6-14.6 5.2c-2.3.8-4.6 1.7-6.8 2.8l-3.3 1.4-3.3 1.5a42.33 42.33 0 0 0-3.1 1.4l-3.9 1.4c-2.4.8-4.6 1.8-6.9 2.8-1.1.5-2.2.8-3.3 1.2l-3.6 1.3c-2.4.8-4.8 1.8-7.1 2.8l-6.6 2.9-6.7 2.4-3.4 1.3-3.4 1.5-6.7 2.7c-4.9 2-9.8 4.1-14.8 5.8-2.9 1-5.8 1.8-8.6 2.8s-5.7 1.9-8.6 2.7l-7.8 1.8-9.6 2.5c-3 .7-6.1 1.2-9.2 1.8-3 .5-6.1 1.2-9.1 1.6s-6.1.9-9.2 1.1c-2.8.2-5.6.2-8.3.2-1.4 0-2.8-.1-4.3-.1l-9.8-.4c-3.2-.1-6.3-.6-9.4-.8-1.6-.1-3.1-.2-4.6-.5-1.5-.2-3-.6-4.5-1-2.8-.7-5.7-.7-8.5-1.4l-4.5-1.5c-1.3-.4-2.6-.8-3.9-1.1-1.1-.2-2.2-.4-3.2-.7-1.8-.5-3.6-1.1-5.4-1.6-.3-.1-.7-.2-1-.3-2.2-.3-4.2 1.2-4.5 3.4-.1.7 0 1.4.2 2a3.96 3.96 0 0 0 2.2 2.2c1.9.6 3.8 1.2 5.7 1.7 2.2.6 4.4 1 6.5 1.5 1.6.5 3.1 1.1 4.7 1.5 1.2.4 2.3.7 3.5.9.9.2 1.9.3 2.8.4 1.7.2 3.4.5 5 .9 1.8.5 3.7.8 5.6 1 1.7.2 3.4.3 5.1.4 2 .2 3.9.4 5.9.5l12.4.5c2 0 4.1.1 6.1.1 1.9 0 3.9 0 5.8-.1a123.15 123.15 0 0 0 12.2-1.5c2-.3 4.1-.8 6.1-1.1l6.6-1.2c4.7-.8 9.2-2.2 13.8-3.3s9.3-2.1 13.8-3.5c2.4-.8 4.9-1.7 7.3-2.4l7.4-2.4a253.58 253.58 0 0 0 12.1-4.8c2.1-.9 4.3-1.8 6.4-2.6 2.3-.9 4.6-2 6.9-2.9l6.8-2.4c2.1-.8 4.2-1.7 6.3-2.7 2.3-1.1 4.6-2.1 7-2.9s4.8-1.7 7.1-2.5 4.5-1.9 6.8-2.8l3.5-1.2c1.1-.4 2.3-.9 3.5-1.4l6.6-2.9c2.3-1 4.4-2 6.7-2.8 2.4-.9 4.8-1.6 7.2-2.5l7.2-2.6c2.4-.8 4.7-1.7 7.1-2.7 2.1-.8 4.2-1.6 6.4-2.3l13.3-4.7c2.3-.7 4.6-1.5 6.9-2.3 2.4-.8 4.8-1.5 7.2-2.2 2-.5 3.9-1.1 5.9-1.6 1.9-.6 3.8-1.1 5.8-1.6l7.4-1.7c2.9-.6 5.9-1 8.8-1.5s5.8-1.2 8.7-1.9l8-1.8c1.8-.4 3.6-.7 5.4-1 1.9-.3 3.8-.7 5.7-1s3.7-.5 5.6-.7l5.6-.6c3.5-.5 7-1 10.5-1.2l5.4-.3c1.7-.1 3.5-.1 5.2 0 3 .1 6 .4 8.9.5 3.3.2 6.6.3 9.9.3 3.1 0 6.2-.1 9.2-.3s6-.4 9-.4c2.3.2 4.6.5 6.8.9 2.3.4 4.6.7 6.9 1l14.2 1.9 7.2.8c2.2.2 4.4.3 6.6.6 4.8.5 9.6 1.2 14.4 2.2.9.2 1.8.5 2.8.7-.3-.1-.7-.2-1-.3.9.2 1.8.5 2.7.7 2.7.8 5.4 1.6 8.1 2.2 2.4.6 4.8 1 7.3 1.5l7.9 1.6c2.1.4 4.2.8 6.3 1.3.1 0 .1 0 .2.1h0c.8.7 1.9 1 2.9.8 2.2-.2 3.8-2.2 3.5-4.4h0l-.2-1c-.3-.7-.7-1.3-1.3-1.7-.7-.6-1.6-1.1-2.5-1.3-.9-.3-1.8-.5-2.7-.7l-2.9-.6c-2.5-.4-4.9-.9-7.4-1.4l-7.1-1.4c-2.4-.5-4.7-1.1-7-1.7l-4-1.2c-2.3-.6-4.6-1.3-6.9-1.7-2.4-.5-4.9-.8-7.3-1.2-4.6-.7-9.3-.8-14-1.4-4.6-.5-9.2-1.2-13.8-1.8l-14.5-2c-2.3-.4-4.6-.5-6.9-.5a58.28 58.28 0 0 0-5.9.3c-4.2.3-8.4.5-12.6.4-2.1-.1-4.2-.1-6.3-.3-1-.1-2.1-.1-3.2-.2l-3.8-.3c-2.1-.1-4.3-.2-6.4-.2-.4-.1-.9-.1-1.5-.1h0z"/><path d="M535.7 4.7l-5.6.2-5.9.5-5.4.5c-1.7.1-3.4.4-5.1.6-3.6.5-7.3 1.1-10.9 1.8-2 .4-4.1.7-6.1 1.1l-6.4 1.2c-2.2.4-4.4.8-6.6 1.3-2.3.5-4.5 1.1-6.8 1.7-3.6.8-7.3 1.4-11 2.2-4.1.9-8.2 2-12.2 3.3l-11.3 3.5c-3.8 1.1-7.6 2.2-11.4 3.6l-11.6 4.3c-3.6 1.3-7.3 2.6-10.8 4.1s-7.1 2.9-10.6 4.3l-11.2 4.2c-1.7.7-3.5 1.3-5.2 2l-5.7 2.5-11.2 5.3c-3.4 1.5-6.9 2.7-10.3 4.2-3.6 1.7-7.2 3.5-10.8 5.3-2.9 1.5-5.9 2.8-8.7 4.4l-.9.5c-.6.4-1 1-1.3 1.6-.9 2 .1 4.4 2.1 5.2h0a3.9 3.9 0 0 0 3 0c3.7-2 7.5-3.8 11.2-5.7 3.6-1.8 7.2-3.6 10.9-5.2 3.5-1.4 6.9-2.7 10.3-4.3 1.8-.8 3.6-1.7 5.4-2.6s3.7-1.8 5.6-2.6c3.6-1.5 7.3-2.9 11-4.3 3.8-1.5 7.6-2.8 11.4-4.3l10.3-4.2c3.6-1.4 7.3-2.7 11-4l10-3.7c3.2-1.2 6.5-2.1 9.8-3s6.6-1.9 9.8-3c1.6-.5 3.2-1.1 4.9-1.5 1.6-.5 3.2-.9 4.8-1.3l8.3-1.7c3.5-.6 6.8-1.4 10.2-2.3l-1 .2c1.9-.5 3.8-.9 5.7-1.3 2-.4 4-.7 6-1 1.9-.3 3.9-.8 5.8-1.1l5.3-.9c3.6-.7 7.3-1.2 10.9-1.7l5.1-.6c1.8-.1 3.7-.4 5.5-.6a154.54 154.54 0 0 1 9.6-.6c3.3 0 6.5-.2 9.8-.2 1.2 0 2.4.1 3.5.1 2.1 0 4.2.1 6.3.1h-1c4 .1 8 .4 12.1.7 1.9.1 3.8.2 5.7.4s3.9.4 5.8.7c2 .2 4.1.4 6.1.7 1.8.2 3.6.5 5.5.8 3.9.6 7.7 1.3 11.5 2 2.3.5 4.7.9 7 1.4 2.1.5 4.3.9 6.4 1.4 2 .4 4.1.7 6.1 1.1 2.3.4 4.5 1 6.8 1.6 1.7.5 3.4 1 5.2 1.4 1.5.4 2.9.7 4.4 1 2.5.8 5 1.5 7.4 2.2v.6c.1 1.1.7 2 1.5 2.7.8.6 1.9.9 2.9.8h2.5c1.1 0 2.3.1 3.4.2 1.3.2 2.7.6 4 .9s2.6.4 3.9.7c1 .2 2.1.5 3.1.8 1.2.3 2.3.7 3.5 1.1.5.2 1 .4 1.5.7s1 .4 1.5.5c1.1.2 2.2-.1 3.1-.8 1.8-1.4 2.1-4 .8-5.8l-.1-.1a8.79 8.79 0 0 0-3.6-2.4c-1.4-.5-2.8-.9-4.2-1.3-2.5-.7-4.9-1.6-7.4-2.4-3.1-1-6.4-1.7-9.6-2.6-3.1-.9-6.2-1.7-9.2-2.7-3.8-1.2-7.7-2-11.5-3-4-1.1-8.1-2-12.2-2.7-3.7-.6-7.3-1.6-11-2.3-2-.4-4.1-.8-6.1-1.1l-5.5-1c-3.8-.6-7.7-1.3-11.5-1.7-5.2-.6-10.4-1.3-15.6-1.5-2.6-.1-5.1-.4-7.7-.5-2.7-.2-5.5-.2-8.2-.3-1.6 0-3.2-.1-4.7-.1h.1-4.4c-2.5-.3-5.2-.3-7.8-.2h0zm12.7 7.8h0zm0-7.9h-.3.3z"/><path d="M503.1 11.9l-7.8 2.1c-2.3.9-4.6 2-6.8 3.2a3.96 3.96 0 0 0-2.2 2.2c-.9 2 .1 4.4 2.1 5.2h0a3.9 3.9 0 0 0 3 0l5.4-2.6c1.7-.7 3.5-1.3 5.4-1.8l6-1.4 7.6-1.2c4.4-.5 8.9-.7 13.3-.7l11.8.7c3.9.3 7.8.4 11.7.9 2.2.3 4.2-1.3 4.5-3.5.3-2.1-1.2-4.1-3.3-4.4-4.2-.5-8.5-.6-12.7-.9-4.5-.3-8.9-.7-13.4-.7h-1c-8.1.1-15.9 1-23.6 2.9h0zM723.6 51a12.81 12.81 0 0 0-2-1.1 22.56 22.56 0 0 1-2.2-1.1c-.7-.4-1.3-.8-1.9-1.3-1.7-1.1-3.5-2-5.3-2.8l-5.1-2.6-4.6-2.5-4.5-2.3-4.4-2.3-4.5-2.3c-3.5-1.7-7.1-3.2-10.8-4.5-3.2-1.1-6.3-2.5-9.5-3.5-1.5-.4-3.1-.7-4.6-1.1-1.6-.4-3.1-.9-4.6-1.5s-3-1-4.5-1.3c-2.1-.4-4.2-.9-6.2-1.4-.3-.1-.7-.1-1-.1a4.08 4.08 0 0 0-4.1 3.9c0 1.8 1.2 3.4 3 3.9l5.1 1.2c1.4.3 2.8.6 4.1 1 1.2.4 2.3.9 3.4 1.3 1.3.5 2.6.8 4 1.1 1.3.3 2.6.6 3.8 1s2.5.9 3.7 1.4c1.3.5 2.7 1.1 4.1 1.6 1.5.6 3.1 1 4.6 1.6 2.9 1.2 5.8 2.6 8.6 4.1l8.9 4.6 9.3 4.9c.9.5 1.9.9 2.8 1.3l3 1.5c1.4.8 2.5 1.8 4 2.4 1.1.5 2.1 1 3.2 1.6.2.2.4.4.7.6.3.3.7.6 1.2.8.7.5 1.5.8 2.4.8l-.1-8.9z"/><path d="M723.6 52c-.6-1-1.2-2-2-2.9-1.3-1.5-2.8-2.7-4.4-3.8-3.2-2.2-6.6-4-10.2-5.5-3.7-1.7-7.5-3.4-11.1-5.3-1.9-1-3.7-2-5.6-3.1l-4.7-2.7c-1.8-.9-3.7-1.7-5.7-2.4-1.5-.5-3-.9-4.6-1.4l-4.8-1.5c-1.6-.4-3.2-.7-4.8-1.1a91.53 91.53 0 0 1-10.5-3.3c-3.3-1.1-6.6-1.9-9.9-2.8-1.1-.3-2.2-.4-3.3-.5l-3-.3c-1.9-.1-3.8-.2-5.6-.5l-10.8-1.1c-3.6-.5-7.3-.9-10.9-1.3-3.9-.4-7.7-.6-11.6-.7-1.8-.1-3.7-.2-5.5-.2-.9 0-1.7-.1-2.6-.1h-1.8c-.5 0-1.1 0-1.6.2-1.7.5-3 2-3 3.8 0 .7.2 1.4.5 2 .5.9 1.4 1.6 2.4 1.9.3.1.6.1.9.2.5.1 1.1.2 1.6.2s.9.1 1.4.1c1.7.2 3.4.6 5.1 1.1l6 1.8c3.9 1.2 7.8 2.3 11.7 3.4s7.8 2 11.7 3.1c1.9.5 3.8 1.1 5.7 1.7s3.9 1.4 5.8 2.1c6.3 2.3 12.9 3.6 19.4 5.5 3.1.9 6.2 2.2 9.2 3.4 3.1 1.3 6.3 2.4 9.4 3.7l-.2-.1 3.8 1.5 5.3 2.4c2 .9 4 1.6 5.9 2.4 3.6 1.6 7.2 3.4 10.6 5.5 1.6.9 3.1 1.9 4.7 2.9s3.3 1.9 5 2.8 3.5 1.7 5.2 2.7 3.4 1.9 5 3l1.7 1.1.2-17.9zm-72.4-23.3c-1.8-.5-3.5-.9-5.2-1.5-2-.6-4-1.3-6-2-1.9-.7-3.7-1.4-5.6-2-.2-.1-.5-.2-.7-.2 2.7.3 5.5.4 8.2.7 1.5.3 3 .6 4.4 1.1 1.6.4 3.2.8 4.8 1.3l.9.3c-.6.6-.9 1.5-.8 2.3h0zm72.4 196c-.3-.2-.6-.3-.9-.5-3.4-1.9-6.6-4-10.1-5.8s-6.9-3.4-10.4-5.1c-3.7-1.8-7.5-3.4-11.4-4.9-3.8-1.5-7.7-2.7-11.5-3.9-1.8-.5-3.6-1-5.4-1.6l-5.3-1.8c-1.8-.6-3.6-1-5.5-1.4-1.7-.4-3.3-.7-5-1-2.2-.5-4.5-1-6.8-1.3-.3 0-.7-.1-1-.1-1.2-.3-2.4-.7-3.6-1-2-.5-4-1.1-6-1.5-1.2-.3-2.4-.4-3.6-.6-.8-.1-1.7-.2-2.6-.2h-.3a10.68 10.68 0 0 0-2.5.3c-1.5.4-2.6 1.5-3.1 3a3.75 3.75 0 0 0 0 2.1c.2.7.6 1.4 1.1 2 .7.7 1.6 1.2 2.5 1.4.5.1 1 .2 1.5.4.7.2 1.4.5 2.1.7 3.5 1.1 6.9 2.5 10.3 3.9l-.9-.4c1.8.7 3.6 1.5 5.4 2.1 3.4 1.6 6.9 3 10.5 4.2 1.9.6 3.7 1.2 5.6 1.7 1.6.4 3.2.9 4.7 1.4.2.1.5.2.7.3 3.4 1.6 6.7 3.2 10 5.1 3.5 1.9 6.9 3.9 10.5 5.6s7.4 3.3 11 5.1l5.2 2.7c1.7.9 3.3 2 4.9 3.1l9.6 6.6.3-20.6z"/><path d="M634.8 195.1h0zm37.9 22l.4.2-.4-.2zM193 236.9c-.1.7.4 1.3 1.1 1.4l4.1.3 1.8.3 1.9.4 7.7 1.6c.6.1 1.2.1 1.8.2l2.1.2c.7.1 1.3-.4 1.4-1.1s-.4-1.3-1.1-1.4l-2.1-.2c-.6-.1-1.3-.1-1.9-.2l-3.8-.7-3.8-.9-1.9-.4-1.8-.3c-1.3-.2-2.7-.2-4-.3h-.1c-.8 0-1.4.5-1.4 1.1h0zm-.4 4.7c-.3.6.1 1.4.7 1.6 1.3.6 2.6 1.1 3.9 1.5s2.6.6 4 .8l3.8.5c1.3.2 2.7.3 4 .4l7.3.9c1.4.2 2.7.2 4.1.2l3.9-.1h1.7l5-.1c.5 0 1 0 1.4.1.6.2 1.3-.1 1.5-.7.1-.3.1-.7 0-1s-.4-.5-.7-.7c-.3-.1-.6-.1-.9-.2h-3.1l-3 .1h-3.8l-3.5.1c-.6 0-1.2 0-1.9-.1l-1.8-.2-3.8-.5-7.6-.9-2.9-.4c-.9-.1-1.9-.3-2.8-.5-1.4-.4-2.8-1-4.1-1.6-.1-.1-.3-.1-.5-.1-.3.2-.7.5-.9.9h0z"/><path d="M193.7 250c-.5.4-.6 1.2-.2 1.8.2.3.5.4.8.5h2.1c.7 0 1.4.1 2.1.2l4 .4 3.7.3c.6 0 1.2.1 1.8.1s1.2.1 1.8.2l7.9.6 3.8.2 4.2-.1 4.6-.1 4.2-.1 5.2-.1h.5c.7.1 1.3-.4 1.4-1.1s-.4-1.3-1.1-1.4c-.9-.1-1.9 0-2.8 0l-2.6.1-13.3.2c-2.5 0-5.1-.2-7.6-.4l-7.5-.7-5.7-.5-3.3-.3c-1-.1-2-.1-3-.1h0l-1 .3zm-.3 6.3c-.1.7.4 1.3 1.1 1.4l4.1.5 2 .3 1.7.2 3.9.6 3.8.5 4.4.4 2.4.2h6.8l4.3-.1h3.8c1.3 0 2.6-.1 3.9-.2l3.8-.2 3.8-.3c.3 0 .7-.1 1-.2l1.2-.3c.3 0 .6-.1.8-.3.5-.4.6-1.2.2-1.8-.2-.3-.5-.4-.8-.5-.3 0-.6 0-.9.1-.1 0-.2.1-.4.1-.3.1-.6.1-.9.2l-1.7.2c-.6 0-1.3.1-1.9.1l-2 .1c-.6 0-1.2.1-1.8.1s-1.3.1-1.9.1l-3.6.2h-3.9l-3.8.1h-4.2c-2.6 0-5.1-.2-7.7-.5-1.3-.1-2.6-.3-3.9-.5l-5.7-.9-2.1-.3-4.6-.6h-.2c-.4.2-.9.7-1 1.3h0zm-8.7-147.9c-.2.6.1 1.4.7 1.6.7.3 1.4.7 2.1.9.6.3 1.3.5 1.9.8l1.9.6 1.7.6c.6.2 1.3.5 1.9.6l2 .5c.6.1 1.3.2 1.9.2.7 0 1.3.1 2 .2l1.8.3 1.9.3c1.3.2 2.6.3 3.8.3l3.5.4 3.8.4c.7.1 1.3-.4 1.4-1.1s-.4-1.3-1.1-1.4h0l-3.9-.4-3.7-.4-3.8-.4c-.7-.1-1.3-.2-2-.4l-1.9-.3-2.7-.2-2.3-.4c-.8-.2-1.5-.5-2.3-.8s-1.5-.5-2.2-.7c-.8-.2-1.6-.5-2.4-.8-.9-.3-1.7-.8-2.6-1.2-.1-.1-.3-.1-.5-.1-.2.1-.7.4-.9.9h0zm.1 8.5c-.1.7.4 1.3 1.1 1.4l4.2.7 2 .3 1.7.2 3.7.6c1.3.1 2.7.2 4 .1h.5c.3 0 .7 0 1 .1.3 0 .7 0 .9-.3.5-.4.6-1.2.2-1.7h0c-.2-.2-.5-.4-.8-.5-.5-.1-1-.1-1.6-.1h.3-1.8c-1.1 0-2.3-.1-3.4-.2l-3.3-.5c-.6-.1-1.2-.1-1.8-.2l-5.7-.9h-.2c-.4-.1-.9.4-1 1h0zm17 3.3h0zm-13.3 1.5c-.5.4-.6 1.2-.2 1.8.2.2.5.4.8.5l3 .7c.8.2 1.7.2 2.5.3l2.5.2c1 .1 2 .2 3 .1.3 0 .6-.2.8-.5s.3-.6.2-.9c0-.3-.2-.6-.5-.8s-.6-.3-.9-.2h0c-.8 0-1.6-.1-2.4-.2l-2.5-.2-2.4-.3-3-.7h-.2c-.3 0-.5.1-.7.2h0zm7.6 47.8c-.3 0-.6.2-.8.5-.4.6-.3 1.3.3 1.7h0c.3.2.6.3.9.2h1.4l7.5.2 3.9.3c.6.1 1.3.1 1.9.2.7.1 1.3.1 2 .1.6 0 1.3 0 1.9.1.3 0 .7 0 .9-.3.3-.2.4-.5.5-.8 0-.3-.1-.7-.3-.9s-.5-.4-.8-.5c-.4-.1-.7-.1-1.1-.1-.3 0-.7 0-1-.1-.6 0-1.3-.1-1.9-.1l-3.7-.4-3.9-.2c-1.3-.1-2.6-.1-3.9-.1h-1.6c-.9.2-1.6.2-2.2.2h0zm3.8 6.9l-2.4.1c-.9 0-1.8.1-2.7.2-.7.1-1.2.7-1.1 1.4s.7 1.2 1.4 1.1l3.9-.2h3.3c5.3.1 10.6.5 15.9.7.9 0 1.7.1 2.6.1h3c1.7 0 3.4-.1 5.1-.1.6 0 1.1 0 1.7.1.7.1 1.3-.4 1.4-1.1s-.4-1.3-1.1-1.4c-.5-.1-1-.1-1.4-.1h-3.8c-1.5 0-3.1.1-4.6.1-2.7 0-5.3-.2-8-.4s-5.3-.3-7.9-.4c-1.2 0-2.3-.1-3.5-.1h-1.8zm-6 7.4c-.5.4-.6 1.2-.2 1.8.2.2.5.4.8.5l4.1.8c.6.1 1.3.2 1.9.2l1.9.3c2.7.3 5.4.3 8.1.1.5 0 1-.1 1.5-.1.3 0 .6-.2.8-.5s.3-.6.2-.9c0-.3-.2-.6-.5-.8s-.6-.3-.9-.2c-1 0-2.1.1-3.1.2l-2.6.1c-.9 0-1.8-.1-2.7-.2-.4 0-.9-.1-1.3-.2-.5-.1-1-.1-1.5-.2l-2.6-.4-2.9-.6h-.2c-.3-.2-.6-.1-.8.1h0zM313.2 43.7l-3.8 2.2-2 1.1h.1l-1.6.9-3.2 1.9-1.6.9-1.8.9c-1.1.6-2.3 1.1-3.5 1.6l-7.2 3-7.4 3.1-7.3 2.9-1.9.6-1.9.7-3.6 1.5-7.7 2.8-3.6 1.4-3.9 1.4-3.7 1.2-3.8 1.1-7.4 2.6-7.3 2.8-3.9 1.3-3.7 1.2-3.5.9-3.8.7-3.9 1-3.9.9-2 .3c-.7.1-1.3.2-1.9.4l-4.4 1.3a1.21 1.21 0 0 0-.7.7c-.3.6 0 1.4.7 1.6.3.1.6.1 1 0l2.7-.8 1.6-.4 1.8-.3 1.9-.3 1.9-.4 7.7-1.8c.6-.1 1.3-.2 1.9-.4.6-.1 1.2-.3 1.8-.4l4-1.1 4-1.2c1.3-.4 2.5-.9 3.8-1.4l3.7-1.5 3.6-1.3 3.7-1.4 1.9-.6 2-.6 7.5-2.5 3.7-1.4 4-1.5 7.3-2.8 3.7-1.5 3.6-1.3 7.3-3 7.5-3.1 7.1-3c1.2-.5 2.3-1.1 3.5-1.7l3.6-2.1.1-.1h-.1l2.7-1.6h-.1.1l.1-.1 2.2-1.3 1.8-1.1 1.5-.9c.3-.1.5-.4.7-.7.3-.6 0-1.4-.7-1.6-.2-.1-.3-.1-.5-.1-.2.3-.3.3-.5.4h0zm-4.6 5.6h0zm0 0h0zm0 0l-.2.1.2-.1zm0 0h0zm6 2.6c-.8.3-1.5.6-2.2 1l-1.7.9-3.5 1.8-3.7 1.7-3.5 1.6-3.6 1.3c-1.3.4-2.5.9-3.7 1.4L289 63l-3.6 1.3-3.6 1.4-3.6 1.3c-1.3.4-2.5 1-3.7 1.5l-3.6 1.4-3.7 1.1-1.9.6-1.7.6c-1.2.5-2.5.9-3.7 1.3l-1.9.6-1.8.7c-1 .4-2 .7-3 1s-2 .8-2.9 1.1c-1.9.8-3.9 1.5-5.9 2.1-.7.2-1.3.4-2 .5l-1.8.6c-1.3.4-2.5 1-3.8 1.5l-3.5 1.3-7.3 2.3-3.7 1.1-7.6 2.4c-.6.3-.9 1-.7 1.6.1.3.4.5.7.7.3.1.7.1 1 0l4-1.3 3.9-1.2 2.1-.6c.6-.2 1.2-.4 1.8-.5l3.8-1.3 3.2-1 3.1-1.2 3.2-1.3c1-.4 2-.7 3-1l3.7-1.1 7.2-2.8 3.6-1.3c1.2-.5 2.5-.9 3.8-1.3l3.6-1.3 3.6-1.1 3.8-1.2 3.7-1.5c.6-.3 1.2-.5 1.9-.8l1.8-.6 3.6-1.3 3.5-1.3 3.8-1.3 3.6-1.4 7.2-2.7 3.3-1.5 3.3-1.6 3.1-1.6 1.6-.9c.6-.4 1.3-.7 2-.9a1.21 1.21 0 0 0 .7-.7c.3-.6 0-1.4-.7-1.6-.1-.1-.3-.1-.4-.1-.1.1-.3.2-.5.2h0z"/><path d="M316 57.1l-3.6 1.8c-1.1.6-2.3 1.1-3.5 1.6l-7.4 3.2-7.3 3.3-3.5 1.8-3.6 1.7-3.5 1.7-3.5 1.5-7.4 2.8-3.8 1.3-3.6 1.2-3.6 1.3c-1.3.4-2.6.9-3.8 1.4l-5.5 1.9-2.7.7-3.4.9-.3-.2h.1l-.8.2c-.1 0-.1 0-.2.1l-.3.1-1 .3-1.2.3c.1 0 .2-.1.3-.1l-2.5.7-2.1.7-2.2.7-2.3.9c-.6.3-.9 1-.7 1.6s1 .9 1.6.7c.7-.3 1.4-.5 2.2-.8l2-.6 3.8-1.2 2.4-.7h.1c.2 0 .4-.1.6-.2.3-.1.6-.1.8-.2-.1 0-.2.1-.3.1.5-.1.9-.3 1.4-.4l3.8-1 3.6-1 3.9-1.4 3.6-1.3 3.8-1.3L270 80l3.8-1.3L281 76l3.7-1.5c1.2-.5 2.3-1.1 3.5-1.7l3.5-1.6 3.7-1.9 7.2-3.2L310 63l3.4-1.6 3.5-1.7c.6-.3.9-1 .7-1.6a1.3 1.3 0 0 0-1.2-.8c-.1-.4-.3-.3-.4-.2h0zm-66.4 27h-.1.1zm-2.9.7h0zm-.6 2.8h-.2.2zM313 64.5l-1.8 1-1.7.8L306 68l-3.5 1.8-3.5 1.7-3.5 1.5-3.3 1.5-3.6 1.8c-1.2.6-2.4 1.1-3.7 1.6l-7.4 3-3.6 1.2c-.6.2-1.2.4-1.7.7l-1.9.7c-.1 0-.2.1-.4.1-.6.3-.9 1.1-.6 1.7s.9.8 1.5.6l3.9-1.5 3.6-1.2 7.2-2.9 3.7-1.6 3.7-1.8c1.1-.6 2.3-1.1 3.5-1.6l3.4-1.5 3.5-1.7 7-3.5 1.7-.8 1.7-.9c.1-.1.2-.1.3-.2.3-.1.5-.4.7-.7.3-.6 0-1.4-.7-1.6-.2-.1-.3-.1-.5-.1s-.4.1-.5.2h0zm-278.1-30c-.4.6-.2 1.3.3 1.7 1.6 1.1 3.3 2.1 5.1 3.1.9.5 1.9.9 2.8 1.3l2.5 1.2c-.1 0-.2-.1-.3-.1.1.1.3.1.4.2h0l.8.4h-.1l.2.1h.1c.9.5 1.8.9 2.7 1.3l1.1.6.1.1.4.2h-.1l1.7.8c.6.3 1.2.5 1.9.7l3.7 1.2 3.9 1.1 3.6.9 5.2 1.2 5.5 1.1 2.4.5 2.8.5 5.2 1 8 1.6 2 .3 2 .2 4.1.2 4.3.2c.7 0 1.4.1 2.1.2s1.5.1 2.2.2h0c.3.1.7.1 1-.1.6-.3.9-1.1.6-1.7-.1-.3-.4-.5-.7-.6a10.9 10.9 0 0 0-2.6-.3l-2-.2-3.9-.2-4-.2-4-.4-7.1-1.3-4.7-1-4.5-.8-6.1-1.3-3.7-.8c-1.2-.2-2.5-.5-3.7-.9s-2.5-.6-3.7-.9l-3.9-1.1-3-1-1.6-.6c-.5-.2-1-.4-1.4-.7l.1.1-.6-.3.1.1-.4-.2-2.9-1.5.3.1c-.7-.3-1.3-.7-2-1h0l-.3-.2-5.3-2.5c-1.7-.9-3.3-1.9-4.8-2.9-.3-.1-.5-.1-.7-.1-.5 0-.8.2-1.1.5h0zm6.6 2.6c.1 0 .2.1.2.1s-.1 0-.2-.1zm9 7.1h0zm38.3 7.2h0zm-38.2-7.1h0zm-3.9-1.9h0l-.2-.1.2.1zm5.3-.1h0zm-.5-.3h0zM46 42l-.3-.1c.1 0 .2.1.3.1zm1-2.3s-.1 0 0 0h0zm-.2-.1c-.1 0-.2-.1-.2-.1s.1.1.2.1zm-9.7.2c-.4.6-.2 1.3.3 1.7l3.3 2.3 1.5.9 1.7.9h-.1.1l.2.1H44l3.6 1.6 3.7 1.4 3.6 1.2 3.6 1.3 7.5 2.3 3.8 1.1 3.6 1.1 3.8 1.2 3.6 1.1 3.7 1.1 3.7.9h.1c.3.1.7.1 1-.1.6-.3.9-1.1.6-1.7-.1-.3-.4-.5-.7-.6l-3.8-.9-3.7-1.1-3.6-1.2-3.8-1.2-3.6-1.1-3.8-1.1-7.5-2.3-3.4-1.3-3.5-1.2-3.6-1.4-3.4-1.5-.2-.1-3.1-1.8-3.3-2.3c-.2-.1-.4-.2-.7-.2-.5.3-.9.5-1.1.9h0zm7.8 3.5h0zm.5.3l.2.1-.2-.1z"/><path d="M38.1 37.2c0 .7.5 1.3 1.2 1.3l3.6.6 6.2 1.7 6.4 1.4c-.1 0-.2 0-.3-.1l4.1.8 3.9.5 7.8.9 1.3.2.5.1h-.1l.6.1 4.2.8c1.3.2 2.6.3 3.9.4l8.1.6h.5c.7 0 1.4 0 2 .1.7 0 1.3-.5 1.3-1.2 0-.3-.1-.7-.3-.9s-.5-.4-.8-.4c-.7-.1-1.4-.1-2.1-.1h-2l-3.9-.3-8-1-2.3-.4h.1l-.3-.1h-.1l-.3-.1h-.1.2l-4.1-.7c-1.3-.2-2.6-.3-3.9-.4l-3.9-.4-3.9-.7c-.2 0-.4-.1-.5-.1h.2l-2.7-.6h-.1.1l-6.9-1.7-3.7-1-4.3-.7h-.1c-1 .3-1.5.8-1.5 1.4h0zm33.7 7.3l.3.1c-.1 0-.2 0-.3-.1zm1.6.4l-.3-.1c.1 0 .2.1.3.1zm-.6-.1h-.2.2zm.5-2.5h0-.2.2zm-.1 0h0zm0 0h0zm-18.8-2.8h0zm-6.1 11.2c-.1.3-.1.7.1 1s.4.5.7.6l5.4 2.3c.5.3 1 .6 1.5.8l1.8 1c.6.3 1.1.6 1.7.8.6.3 1.2.5 1.8.7l3.6 1.3 7.2 2.8c1.1.5 2.3.9 3.4 1.3l3.6 1.1 7.5 2 5.2 1 2.3.4c.7.2 1.6.2 2.3.3.2.1.5.1.7.2.7.2 1.4-.1 1.6-.8s-.1-1.4-.8-1.6l-1.6-.4c-.4-.1-.8-.1-1.2-.2l-2.6-.4c-1.6-.2-3.2-.6-4.8-.9-2.5-.5-5-1.2-7.4-2l-3.6-1.1-3.5-1.3-6.8-2.6c-2.3-.8-4.6-1.5-6.7-2.6a11.94 11.94 0 0 0-1.6-.8l.3.1-1.9-1a22.56 22.56 0 0 0-2.2-1.1l-2-.8a27.18 27.18 0 0 1-2.5-1.1c-.1-.1-.3-.1-.4-.1-.4.2-.9.6-1.1 1.1h0zm11.3 3.8h0zm-2 1.8l.2.1-.2-.1zm29.9 58.4c-.6 0-1.1.1-1.7.2l-3.2.3-3.3.4-3.2.3h-.6l-3.2.2-3.3.3-3.1.4-3.4.6c-.7.1-1.1.8-1 1.5s.8 1.1 1.5 1h0l3.1-.6c1-.2 2-.3 3-.4l2.9-.3 2.8-.2c.3 0 .6 0 .9-.1h-.1.6l3.1-.3 2.9-.4 3.2-.3 2.8-.3c.5 0 .9 0 1.4.1.3 0 .7-.1.9-.3s.4-.5.4-.8-.1-.7-.3-.9-.5-.4-.8-.4c-.3-.1-.7-.1-1-.1-.4 0-.9 0-1.3.1h0zm-11.3 1.2h0zm-.1 0h0zm-1.3 2.5h-.2.2zm.5-2.5h0zm.5 0h0zm17.3 3.3l-3 .5-5.8.7-3.9.2-4.1.3c-2.6.2-5.2.6-7.8 1l-7 1-7.5 1c-.7.1-1.1.8-1 1.5.1.3.3.6.5.8.3.2.6.2.9.2l4.3-.6 3.9-.5 4.1-.6 3.9-.6 5.1-.6 5.3-.4 3.9-.2 3.7-.4 3.7-.5 3.6-.5h.5c.7.1 1.3-.4 1.4-1.1s-.4-1.3-1.1-1.4h-.2c-1.2-.1-2.3 0-3.4.2h0zm-12 3.8h-.2.2z"/><path d="M98 124.8c-.5 0-1.1.1-1.6.1h.1-.3l-3.8.3-4 .6-7.9 1.3-7.8.8-3.9.3-3.6.3h.1-.2l-7.3.5-7.6.7h.3l-2.2.1-5 .1-5.6.2c-.3 0-.7.1-.9.3-.5.5-.6 1.2-.1 1.8h0c.2.2.5.4.8.4 1 0 2.1-.1 3.1-.2h2.9l6.1-.2 3.4-.2 3.4-.3 6.7-.5 8-.5 8.4-.8 11.8-1.8 4.1-.4h.7c.5 0 1-.1 1.5-.1h.3c.3 0 .7-.1.9-.3.5-.5.6-1.2.1-1.8h0c-.3-.5-.6-.7-.9-.7h0zm-32.9 3.7h0zm30.9-1.1h-.2.2zm.2-2.5h0zm3 6.4l-1 .1c-.6.1-1.3.1-1.9.2l-3.9.4-4 .5c-1.3.2-2.6.3-4 .4l-4.1.5c-1.4.1-2.7.4-4 .7l-8.1 1.2-3.1.3-4 .2-4.1.1h-4l-4 .1-7.8.3c-1.3.1-2.7.1-4 .1L33 136c-.7-.1-1.3.5-1.3 1.2-.1.7.5 1.3 1.2 1.3l4.3.4 3.9-.1 8.2-.3 8-.2 8.2-.3 8.1-1 8.1-1.3 4-.5 4-.4 3.8-.5c1.3-.2 2.7-.3 4-.4l2.8-.3h.1c.7.1 1.3-.4 1.4-1.1s-.4-1.3-1.1-1.4h-.3c-.4.1-.8.2-1.2.2h0zm1 2.4h0zM84.8 141l-6 .9-6 .6-8.1.6-4 .5-4 .4-2.9.3h.2-.3l-2.5.2-3.2.2c-.3.1-.6.2-.8.5-.4.6-.2 1.4.3 1.7.3.2.6.2.9.2l2.6-.2 2.4-.2 3.9-.3 4.1-.4c1.3-.1 2.5-.3 3.8-.5l4.3-.4c.7-.1 1.5-.1 2.2-.2h-.1.2l6.5-.6 6.8-1c.7-.1 1.1-.8 1-1.5 0-.5-.6-.9-1.3-.8h0zm-31.2 5.8h-.3.3zm18.3-1.8h0zm-18.1-.7h0zm31 4.8l-4 .4-3.6.4c-.6.1-1.3.1-1.9.2s-1.1.2-1.7.2l-4.4.5c-.7.1-1.1.8-1 1.5.1.3.3.6.5.8.3.2.6.2.9.2l4.3-.5c1.2-.2 2.4-.3 3.7-.4l3.5-.4 4.1-.4c.3-.1.6-.2.8-.5s.2-.6.2-.9c-.1-.3-.3-.6-.5-.8-.2-.1-.5-.2-.7-.2 0-.1-.1-.1-.2-.1h0z"/><path d="M291.6 202.1c-.4-.4-.5-.9-.2-1.5l2.1-3.9c.4-.7 1-.8 1.5-.4 3.5 2.6 6.8 3.8 11.3 2.8 4.9-1.1 7.5-4.1 6.6-8.3-.9-4.1-4.2-5-8.7-6l-6.4-1.4c-5.5-1.3-10.3-4-11.7-10.3-1.8-8 3.4-14 11.2-15.8 5.6-1.2 10.4.1 14.7 3.2.7.4.7.9.3 1.6l-2 3.9c-.3.7-.9.8-1.5.5-3.4-2.2-6.3-3-9.7-2.3-4 .9-6.4 3.5-5.6 7.2.7 3.1 2.9 4.3 7.3 5.3l5.8 1.3c5.9 1.4 12 3.5 13.7 11.3 2 8.9-4.1 15-12.3 16.9-7.1 1.4-12.8-.9-16.4-4.1zm39.8-3.4l-14-44.3c-.2-.6 0-1.1.6-1.3l5.5-1.7c.6-.2 1.1.1 1.3.7l6.1 19.2 19.2-6.1L344 146c-.2-.6.1-1.1.7-1.3l5.5-1.7c.6-.2 1.1.1 1.2.7l14 44.3c.2.6 0 1.1-.6 1.3l-5.5 1.7c-.6.2-1.1-.1-1.3-.7l-5.9-18.6-19.2 6.1 5.9 18.6c.2.6-.1 1.1-.7 1.3l-5.5 1.7c-.6.2-1.1-.1-1.2-.7zm33.3-35.4c-5.6-12.9.2-27.4 12.9-32.9s27.2.2 32.8 13.1-.2 27.3-12.9 32.8c-12.7 5.6-27.2-.1-32.8-13zm38.5-16.6c-4-9.2-13.6-13.1-22.5-9.2s-12.7 13.6-8.8 22.8c3.9 9.1 13.6 13 22.6 9.1s12.6-13.6 8.7-22.7zm55.1 4.9l-5.7 2.1c-.5.2-1 .1-1.4-.2l-16.1-12.1-5.1 1.9 5.7 15.6c.2.6 0 1.1-.6 1.3l-5.4 2c-.6.2-1.1-.1-1.3-.6L412.3 118c-.2-.6 0-1.1.6-1.3l13.1-4.9c10.3-3.8 17.8.2 20.9 8.8 2.5 6.8 1.1 13.2-4.9 17.5l16.5 12.2c.8.5.6 1-.2 1.3zm-30.7-14.8l6.4-2.4c4.8-1.8 8.2-5.2 5.9-11.3s-7-6.5-11.8-4.7l-6.4 2.4 5.9 16zm48.4 7.7l-12.2-38.7-9.5 3c-.6.2-1.1-.1-1.2-.7l-1.5-4.6c-.2-.6 0-1.1.6-1.3l26.3-8.3c.6-.2 1.1.1 1.3.7l1.5 4.6c.2.6-.1 1.1-.7 1.3l-9.4 3 12.2 38.7c.2.6-.1 1.1-.7 1.3l-5.5 1.7c-.5.2-1-.1-1.2-.7zm21.8-30.7c-2.3-14 6.5-26.5 20.4-28.8 6.8-1.1 12.7.5 17.6 3.8.6.4.7.9.3 1.5l-2.9 4.3c-.3.5-.8.6-1.4.3-3.6-2.2-7.6-3.2-12.3-2.4-9.6 1.6-15.6 10.1-14 20s10.1 15.9 19.7 14.3c4.7-.8 8.1-3.1 10.8-6.3.5-.6 1-.6 1.4-.2l4.1 3.2c.6.4.6.9.2 1.4-3.6 4.8-8.6 8.3-15.4 9.4-13.8 2.4-26.2-6.5-28.5-20.5zm53.5-1.1l-.9-30.2c0-.6.3-1.1.9-1.1l5.8-.2c.6 0 1.1.4 1.1 1l.9 29.8c.2 7.4 4.1 10.8 9.9 10.7s9.5-3.9 9.2-11.2l-.9-29.8c0-.6.4-1.1 1-1.1l5.8-.2c.6 0 1.1.4 1.1 1l.9 30.2c.4 11.9-6.6 18.5-16.9 18.8-10.2.3-17.6-5.8-17.9-17.7zm55.1 16.7l3.8-40.4-9.9-.9c-.6-.1-.9-.5-.9-1.1l.5-4.8c.1-.6.4-1 1.1-.9l27.4 2.6c.6.1 1 .5.9 1.1l-.5 4.8c-.1.6-.5 1-1.1.9l-9.8-.9-3.8 40.4c-.1.6-.5 1-1.1.9l-5.7-.5c-.6-.1-1-.6-.9-1.2zm27.5-2.5c-.2-.5-.1-1 .5-1.5l3.5-2.6c.7-.5 1.2-.3 1.6.3 2.1 3.8 4.6 6.3 9.1 7.3 5 1.1 8.5-.7 9.4-4.8s-1.8-6.3-5.4-9.1l-5.2-4c-4.5-3.5-7.7-7.9-6.4-14.3 1.7-8 9-11.3 16.7-9.7 5.6 1.2 9.4 4.4 12 9 .4.7.3 1.1-.3 1.6l-3.5 2.7c-.6.5-1.1.4-1.6-.2-2.2-3.4-4.5-5.4-7.9-6.1-4-.9-7.3.6-8.1 4.2-.7 3.1.9 5.1 4.4 7.8l4.7 3.6c4.8 3.7 9.5 8.1 7.8 15.9-1.9 8.9-9.9 12-18.2 10.2-7-1.4-11.2-5.9-13.1-10.3z" enable-background="new"/></g></svg>