<?xml version="1.0" encoding="utf-8"?>
<!-- Generator: Adobe Illustrator 24.1.3, SVG Export Plug-In . SVG Version: 6.00 Build 0)  -->
<svg version="1.1" id="Layer_1" xmlns="http://www.w3.org/2000/svg" xmlns:xlink="http://www.w3.org/1999/xlink" x="0px" y="0px"
	 viewBox="0 0 724.8 283.8" style="enable-background:new 0 0 724.8 283.8;" xml:space="preserve">
<style type="text/css">
	.st0{fill:#FEFEFE;}
</style>
<path class="st0" d="M176.3,11.5c2.4,0.1,4.8,0.3,7.3,0.5c4.2,0.3,8.4,0.7,12.6,1.2c2,0.2,4,0.4,5.9,0.5c2.2,0.2,4.3,0.4,6.5,0.7
	c4.2,0.5,8.5,1,12.7,1.6c3.8,0.5,7.5,1.1,11.3,1.6c7.5,0.8,15,1.7,22.4,2.7c4.8,0.6,9.6,1.3,14.4,2.2c2.5,0.5,4.9,1,7.3,1.6
	c2.3,0.5,4.6,1.2,6.8,1.9c2.5,0.7,4.9,1.4,7.4,2.1c2.2,0.6,4.3,1.4,6.5,2.1c4.9,1.6,9.7,3.3,14.6,4.8c2.4,0.7,4.7,1.5,7.1,2.3
	c2.4,0.7,4.8,1.4,7.2,2.1c4.6,1.4,9.2,2.6,13.8,4c2.3,0.7,4.6,1.5,6.9,2.2c2.5,0.8,5,1.8,7.5,2.8c4.8,1.9,9.6,3.9,14.3,6
	c10.9,4.8,21.5,10.2,32.4,14.8c4.7,1.8,9.4,3.5,14.1,5.1c4.7,1.6,9.4,3.2,14.1,4.6c2.4,0.7,4.8,1.3,7.3,1.8c2.5,0.5,5,1,7.4,1.5
	c5.2,1.1,10.3,2.3,15.5,3.4c3,0.7,6.1,1.4,9.1,2c3,0.6,6.1,1.1,9.1,1.5c6.2,0.6,12.5,0.7,18.7,0.3c3.4-0.2,6.7-0.6,10.1-0.9
	c3.2-0.3,6.4-0.5,9.5-0.9l-0.2,0c1.5-0.2,3-0.4,4.6-0.6c2.5-0.3,5.1-0.7,7.7-0.9c2.2-0.2,4.5-0.4,6.7-0.6c1-0.2,2.1-0.3,3.1-0.3
	c0.8,0,1.5,0.1,2.3,0.2c0.6,0,1.3,0.1,1.9,0.3c1,0.3,1.9,1,2.4,1.9c1.1,1.9,0.5,4.4-1.4,5.5c-0.9,0.5-2,0.7-3,0.4
	c-0.1,0-0.1-0.1-0.2-0.1c-0.2,0-0.4,0-0.6-0.1c-0.7-0.1-1.5-0.1-2.2,0c-2.2,0.3-4.5,0.5-6.7,0.7c-2.3,0.2-4.5,0.5-6.8,0.7
	c-1.9,0.3-3.7,0.5-5.6,0.7l0.4-0.1c-5,0.6-10,1-15,1.4c-2.5,0.2-5.1,0.5-7.6,0.6c-2.4,0.2-4.9,0.2-7.4,0.2c-5,0-10.1-0.3-15-1.1
	c-5-0.8-10-1.8-15-3c-4.7-1.1-9.5-2.2-14.3-3.2c-2.5-0.5-5-1-7.5-1.5c-2.4-0.5-4.9-1-7.3-1.7c-5-1.4-9.9-3.1-14.8-4.7
	c-4.9-1.6-9.7-3.4-14.5-5.2c-3.9-1.5-7.8-3.2-11.6-5c-3.6-1.6-7.2-3.3-10.8-5c-7.4-3.5-14.8-6.9-22.4-10c-2-0.8-3.9-1.6-5.9-2.4
	c-2.4-0.9-4.9-1.7-7.4-2.6c-4.6-1.5-9.2-2.8-13.8-4.1c-2.4-0.7-4.7-1.4-7-2.1s-4.7-1.4-7-2.1c-2.3-0.7-4.6-1.4-6.9-2.2
	c-2.4-0.8-4.7-1.6-7.1-2.4c-3.7-1.2-7.4-2.4-11.1-3.6c-3.3-1-6.7-2-10.1-2.9c-3.7-1-7.3-1.9-11.1-2.6c-3.6-0.7-7.1-1.3-10.7-1.8
	c-3-0.4-5.9-0.8-8.9-1.2c-2.7-0.3-5.3-0.6-8-0.9c-3.1-0.4-6.3-0.7-9.4-1.1c-5.6-0.8-11.2-1.6-16.8-2.4c-5-0.6-10-1.1-15-1.6
	c-2.3-0.2-4.5-0.5-6.8-0.7c-2.7-0.3-5.3-0.5-8-0.7c-4.8-0.4-9.6-0.8-14.5-0.7c-2.5,0-5,0.1-7.5,0.2c-2.4,0.1-4.8,0.5-7.2,0.7
	c-2.9,0.2-5.8,0.5-8.6,0.8c-3,0.3-6,0.7-9.1,0.9c-5.5,0.4-11,0.9-16.5,1.6c-4.4,0.6-8.7,1.4-13.1,2.2c-4.3,0.8-8.6,1.6-13,2.4
	c-4.2,0.8-8.5,1.6-12.7,2.5c-4.6,1-9.2,2-13.8,3c-2.1,0.6-4.3-0.7-4.9-2.8c-0.6-2.1,0.7-4.3,2.8-4.9c5.1-1.1,10.1-2.2,15.2-3.3
	c4.4-0.9,8.9-1.7,13.3-2.5c4.9-0.9,9.8-1.8,14.8-2.8c5-1,10.1-1.7,15.1-2.2c4.8-0.5,9.7-0.8,14.6-1.3c4.9-0.5,9.8-1,14.8-1.4
	c2.6-0.2,5.1-0.5,7.7-0.8c2.3-0.2,4.7-0.3,7-0.3c0.7,0,1.4,0,2.1,0C172.8,11.4,174.5,11.4,176.3,11.5z M121.1,23.6l-0.6,0.1
	L121.1,23.6z M539.6,93.3l0.2,0C539.7,93.4,539.7,93.3,539.6,93.3z"/>
<path class="st0" d="M544.8,89.7c1,0.3,1.9,0.9,2.4,1.9c0.5,0.9,0.7,2,0.4,3c-0.4,2.2-0.8,4.3-1.2,6.5c-0.4,2.1-0.9,4.1-1.3,6.1
	c-0.3,1.8-0.5,3.6-0.9,5.3c-0.2,1-0.4,1.9-0.7,2.8c-0.3,1-0.7,2-1.1,3.1c-0.6,1.8-1.1,3.7-1.7,5.5c-0.5,1.8-1.1,3.6-1.7,5.4
	c-0.6,1.9-1.1,3.8-1.7,5.7c-0.5,1.7-0.9,3.4-1.2,5.2c-0.2,1.9-0.3,3.8-0.4,5.7c-0.1,2.1-0.1,4.2-0.2,6.3c-0.2,4.1-0.3,8.2-0.4,12.3
	c-0.1,4-0.2,8.1-0.2,12.1c0,2.1-0.1,4.3,0,6.4c0.1,1.9,0.2,3.7,0.3,5.6c0.2,4.2,0.5,8.5,0.5,12.7c0,2.1-0.2,4.2-0.4,6.2
	c-0.1,2-0.3,4-0.4,6c-0.1,4.1-0.1,8.1,0.2,12.2c0.1,2.1,0.2,4.2,0.1,6.4s-0.2,4.2-0.3,6.4c-0.1,3.3-0.1,6.7,0,10
	c0.1,1.5,0.3,3,0.4,4.5c0.2,1.6,0.3,3.2,0.5,4.9c0-0.1,0-0.2,0-0.2c0.2,1.6,0.3,3.2,0.4,4.8c0.1,1.5-0.2,3-0.1,4.5
	c0,0.3,0.1,0.6,0.1,0.8c0,0.8-0.2,1.7-0.7,2.4c-1.1,1.9-3.5,2.6-5.4,1.5c-1.5-0.9-2.3-2.7-1.9-4.4c0-0.2,0-0.4-0.1-0.6
	c0-0.5,0-1,0.1-1.4c0-0.7,0.1-1.4,0.1-2.1c0-1.5-0.1-3-0.3-4.5c-0.2-1.9-0.4-3.8-0.6-5.8c-0.1-0.9-0.2-1.9-0.3-2.8
	c-0.1-0.9-0.2-1.9-0.2-2.8c-0.1-4.3-0.1-8.5,0.2-12.8c0.2-4.1,0-8.3-0.2-12.4c-0.1-2.1-0.1-4.2-0.1-6.3c0-2,0.2-4,0.3-6.1
	c0.1-2,0.3-3.9,0.4-5.9c0.1-2.1,0.1-4.2,0.1-6.3c-0.1-4.1-0.4-8.2-0.6-12.3c-0.3-4.2-0.1-8.3-0.1-12.5c0-3.9,0.1-7.9,0.2-11.8
	c0.1-4.2,0.4-8.3,0.5-12.5c0-4.4,0.4-8.7,1.3-13c0.9-3.8,2.1-7.5,3.3-11.2c0.6-1.8,1.1-3.6,1.7-5.4c0.3-1,0.6-1.9,0.9-2.9
	s0.7-1.9,1-2.9c0.9-3.2,1.2-6.5,1.8-9.8c0.3-1.6,0.7-3.3,1-4.9c0.4-1.9,0.7-3.8,1.1-5.8c0.5-1.8,2.1-3,3.9-3
	C544.1,89.6,544.5,89.7,544.8,89.7L544.8,89.7z"/>
<path class="st0" d="M143.7,190.2c2.2,0.1,4.4,0.2,6.6,0.4c5,0.4,9.9,0.8,14.9,1.4c4.5,0.5,8.9,0.8,13.4,1.3
	c5,0.6,10.1,1.2,15.1,1.7c4.6,0.5,9.3,0.8,13.9,1.4c5.1,0.6,10.2,1.5,15.2,2.6c4.8,1,9.5,2.4,14.1,3.9c4.6,1.5,9.3,2.8,14,4.3
	c2.9,0.9,5.9,1.9,8.8,2.8c2.8,0.9,5.6,2,8.3,3c2.8,1.1,5.7,2.2,8.5,3.2c2.9,1.1,5.7,2.2,8.5,3.4c6.6,2.6,13.2,5,19.8,7.6
	c3.4,1.4,6.8,2.9,10.1,4.6c1.6,0.8,3.1,1.6,4.7,2.4c1.3,0.6,2.7,1.2,4,1.8c2.7,1.1,5.4,2.1,8.1,3.1c3.2,1.2,6.4,2.5,9.6,3.8
	c2,0.8,4.1,1.6,6.1,2.5c2.2,0.9,4.4,1.6,6.6,2.4c4.6,1.6,9.2,3.1,13.9,4.5s9.3,3,13.9,4.4c4.4,1.3,8.9,2.6,13.3,3.8
	c2,0.6,3.9,1.1,5.9,1.5c2.3,0.5,4.6,0.9,6.8,1.2c4,0.7,7.9,1.8,11.9,2.5c3.9,0.7,7.8,1.2,11.7,1.8c2.1,0.3,4.1,0.7,6.2,1
	c2.2,0.3,4.4,0.6,6.6,0.9c1.2,0.1,2.3,0.3,3.5,0.5c3.2,0.4,6.3,0.7,9.5,0.8c1.8,0,3.6,0,5.5,0c1.5,0,3-0.1,4.4,0
	c3.3,0,6.6,0.2,9.8,0.1c2.9-0.1,5.9-0.3,8.8-0.7c3.5-0.5,7.1-1.1,10.6-1.5c1.7-0.2,3.3-0.3,5-0.4s3.3-0.3,5-0.5
	c1.9-0.2,3.7-0.3,5.6-0.4c1.5-0.1,3.1-0.1,4.6-0.1c1.8,0,3.6,0.2,5.4,0.2c2,0.1,3.9,0.2,5.9,0.2c2.2,0,4,1.8,4,4s-1.8,4-4,4
	c-2.9-0.1-5.9-0.2-8.8-0.4c-2.6-0.1-5.3-0.1-7.9,0.1c-1.3,0.1-2.6,0.1-3.9,0.3c-1.5,0.2-2.9,0.4-4.4,0.5c-1.3,0.1-2.6,0.2-3.9,0.2
	c-1.1,0.1-2.2,0.2-3.3,0.3c-4.2,0.6-8.3,1.3-12.5,1.8c-4.2,0.4-8.3,0.5-12.5,0.3c-2-0.1-3.9-0.1-5.9,0c-2.1,0-4.3,0.1-6.4,0.1
	c-4.3-0.1-8.6-0.5-12.9-1.1c-4.9-0.6-9.7-1.3-14.5-2.1c-4.3-0.8-8.7-1.3-13.1-2.1c-2.2-0.4-4.3-0.9-6.5-1.4
	c-2.2-0.5-4.5-0.9-6.8-1.3c-2.4-0.4-4.8-0.9-7.2-1.4c-2.2-0.5-4.4-1.2-6.7-1.8c-4.5-1.3-8.9-2.5-13.4-3.9c-4.6-1.5-9.2-3-13.9-4.4
	c-4.7-1.4-9.4-3-14-4.7c-4.6-1.6-9.2-3.5-13.7-5.4l-1.1-0.5c-2.5-1-5.1-2-7.6-3c-3-1.1-6-2.2-8.9-3.5c-2.8-1.2-5.4-2.6-8.1-4
	c-2.4-1.2-4.9-2.3-7.4-3.4c-3.8-1.5-7.7-2.9-11.6-4.4c-4.3-1.6-8.5-3.3-12.8-5.1c-4.3-1.7-8.6-3.2-12.8-4.9
	c-2.4-0.9-4.9-1.9-7.3-2.7c-2.2-0.8-4.5-1.4-6.7-2.2c-4.7-1.5-9.4-2.9-14.1-4.4c-2.3-0.7-4.6-1.5-7-2.2c-2.3-0.7-4.5-1.2-6.8-1.8
	c-5.2-1.3-10.4-2.3-15.7-3c-4.6-0.6-9.1-0.9-13.7-1.3c-4.8-0.5-9.6-1.1-14.3-1.6c-9.5-1.1-18.9-1.9-28.4-2.7
	c-3.8-0.3-7.7-0.6-11.5-0.8c-4.1-0.2-8.2,0-12.3,0.1c-4.2,0.1-8.4,0.4-12.5,0.8c-3.9,0.3-7.7,0.7-11.5,1.1
	c-4.2,0.6-8.3,1.2-12.4,2.1c-2,0.4-4,0.9-6,1.2c-2.3,0.4-4.7,0.7-7,1c-1.2,0.2-2.5,0.4-3.7,0.7c-1.3,0.3-2.5,0.8-3.7,1.3
	c-1.2,0.5-2.5,0.8-3.7,1.2c-1.5,0.5-3,1.1-4.5,1.6c-1,0.3-2.1,0.1-3-0.4c-1.9-1.1-2.6-3.5-1.5-5.4c0,0,0,0,0,0
	c0.6-0.9,1.4-1.6,2.5-1.9c1.6-0.6,3.3-1.2,4.9-1.8c1.5-0.5,3.1-1,4.6-1.5c3.2-1,6.6-1.7,10-1.9c2.2-0.4,4.4-0.7,6.6-1.2
	c2.3-0.5,4.6-1,7-1.4c4.8-0.8,9.5-1.6,14.3-2c4.8-0.4,9.6-0.8,14.3-1.2c4.9-0.3,9.9-0.4,14.8-0.4h0.3
	C139.6,189.9,141.7,190.1,143.7,190.2L143.7,190.2z M285.3,219.8l0.7,0.3L285.3,219.8z"/>
<path class="st0" d="M412.2,26.8c0.5,0.3,1,0.6,1.5,1c1.1,0.8,2.3,1.5,3.4,2.4c0.6,0.4,1.2,0.8,1.8,1.1c0.8,0.5,1.6,1.1,2.4,1.6
	c0.8,0.5,1.6,0.9,2.3,1.4c0.9,0.5,1.8,1.2,2.6,1.8c1.6,1.1,3.3,2.2,5,3.1c1.9,1,3.8,2,5.7,2.9c1.7,0.8,3.5,1.6,5.2,2.3
	c1.8,0.8,3.6,1.5,5.4,2.3c3.6,1.5,7.2,3.2,10.9,4.7c4.4,1.9,8.7,3.8,13.1,5.7c2,0.7,4,1.4,6,2.1c1.8,0.6,3.7,1.1,5.5,1.6
	c3.9,1.1,7.7,2.3,11.5,3.7c3.7,1.4,7.5,2.6,11.3,3.5c2,0.5,4,0.9,6,1.4c1.8,0.4,3.5,0.9,5.3,1.4c4.1,1.1,8.2,2,12.2,3.1
	c2.5,0.7,4.9,1.7,7.2,3c2.3,1.1,4.5,2.3,6.8,3.4c1.9,1.1,2.6,3.5,1.5,5.4c-0.5,0.9-1.4,1.6-2.5,1.9c-1,0.3-2.1,0.1-3-0.4
	c-3.3-1.6-6.5-3.4-9.8-4.9c-3.7-1.3-7.5-2.1-11.3-3.1c-3.6-0.9-7.1-1.9-10.7-2.7c-2-0.5-4-0.9-6-1.4c-2-0.5-4-1.2-6-1.9
	c-3.8-1.3-7.5-2.6-11.3-3.8c-1.8-0.6-3.6-1.1-5.5-1.6c-2-0.5-3.9-1.2-5.8-1.9c-2.3-0.8-4.5-1.6-6.7-2.6c-1.9-0.8-3.8-1.6-5.7-2.5
	c-3.6-1.6-7.2-3.1-10.8-4.7c-3.5-1.6-7-3-10.5-4.5c-2.4-1-4.9-2.1-7.2-3.2c-2.4-1.2-4.8-2.4-7.1-3.8c-2.2-1.4-4.3-3-6.6-4.3
	c-0.6-0.3-1.2-0.7-1.7-1.1s-1.1-0.8-1.7-1.1c-1-0.6-2-1.3-3-2c-0.3-0.2-0.5-0.4-0.8-0.6c-0.2,1-0.5,1.9-0.6,2.9
	c-0.1,1.2-0.1,2.5-0.1,3.7c0,1.5-0.1,3-0.1,4.4c0,1.3,0.1,2.7,0.1,4c0.1,1.1,0.1,2.2,0.2,3.3c0.3,1.7,0.7,3.4,0.8,5.2
	c0.1,1.8,0,3.7,0.1,5.5c0.1,1.7,0.1,3.3,0,5c-0.1,0.7-0.2,1.3-0.2,2c0,0.5,0,0.9,0,1.4c0,0.7-0.1,1.4-0.2,2c0,0.2,0,0.4,0,0.6
	c0,1-0.4,2-1.1,2.8c-1.5,1.6-4.1,1.6-5.7,0.1c-0.8-0.8-1.2-1.8-1.2-2.9c0.1-0.8,0.1-1.5,0.3-2.3c0-0.6,0-1.2,0-1.8
	c0-0.5,0-0.9,0.1-1.4c0.1-1.1,0.2-2.2,0.1-3.4c0-1.3-0.1-2.6-0.1-3.9c0-1.2,0-2.4-0.1-3.6c-0.2-1.1-0.4-2.1-0.5-3.2
	c-0.2-1.6-0.4-3.2-0.4-4.9c-0.1-1.3-0.1-2.6-0.2-3.8c-0.1-1.6,0-3.1,0.1-4.7c0.1-1.5,0-3,0.2-4.6c0.1-0.9,0.2-1.9,0.4-2.8
	c0.1-0.6,0.3-1.2,0.4-1.8c0.2-1.3,0.6-2.5,1-3.7c0.3-0.9,0.7-1.8,1.4-2.5c0.9-0.9,2.1-1.5,3.4-1.5h0.1
	C410.4,26.1,411.4,26.3,412.2,26.8L412.2,26.8z"/>
<path class="st0" d="M475.4,6.3c2.1,0,4.2,0,6.2,0.2c2.3,0.1,4.7,0.5,7,0.8c4,0.6,8,1.6,12,2.5c2,0.4,4,0.9,6.1,1.3
	c1.9,0.4,3.9,0.7,5.9,1.1c4.2,0.8,8.3,1.6,12.5,2.3c2.1,0.4,4.2,0.6,6.4,1c2,0.3,4,0.7,6,0.9c4.2,0.6,8.3,1.2,12.5,2
	c4,0.7,8,1.2,11.9,1.8c4.3,0.6,8.6,1.5,12.9,2.5c2,0.5,4,1,6,1.5c2,0.5,4,1,6.1,1.5c2,0.5,4,1,6,1.5c2,0.5,4.1,0.8,6.2,1.2
	c4.6,0.8,9.2,1.7,13.9,2.4c8.2,1,16.4,1.9,24.6,2.2c4.1,0.2,8.3-0.1,12.4-0.3c2-0.1,4-0.3,5.9-0.3c2.2-0.1,4.3-0.1,6.5-0.2
	c3.5-0.1,7-0.5,10.4-0.7c3.2-0.2,6.3-0.5,9.5-0.8c1.9-0.3,3.8-0.7,5.6-1.3c1.8-0.5,3.6-1.2,5.4-1.9c2-0.9,3.9-1.8,5.9-2.7
	c1.1-0.5,2.1-1.1,3.2-1.6c0.6-0.3,1.1-0.6,1.7-0.9c1.2-0.8,2.7-1.3,4.1-1.4c0.5,0,1,0.1,1.5,0.2c0.7,0.2,1.3,0.5,1.8,1
	c0.3,0.3,0.5,0.6,0.8,1c0.6,1,0.7,2.1,0.4,3.2c-0.3,0.8-0.7,1.6-1.3,2.2c-0.2,0.3-0.5,0.5-0.8,0.7c-0.5,0.4-0.9,0.7-1.4,1.1
	c-0.5,0.3-0.9,0.6-1.4,0.9c-1.9,1.2-3.8,2.3-5.6,3.6c-1.6,1.4-3.1,2.9-4.6,4.3c-1.8,1.6-3.5,3.4-5.2,5.1c-0.8,0.8-1.7,1.6-2.5,2.5
	c-0.9,0.9-1.8,1.8-2.7,2.7c-2.1,2-4.3,3.9-6.7,5.6c0.3-0.2,0.6-0.4,0.8-0.7c-1.7,1.4-3.4,2.7-5.1,4.1c-1.8,1.4-3.6,2.7-5.4,4.1
	c-3.3,2.6-6.5,5.1-9.9,7.5c-3.5,2.5-7.1,4.8-10.9,6.8c-2,1-4.1,1.8-6.2,2.6c-1,0.4-2,0.6-2.9,0.9s-2,0.6-2.9,0.8c-2,0.5-4,0.9-6,1.4
	c-1.4,0.4-2.7,0.8-4,1.3c0.6,0.5,1.2,1.1,1.8,1.6c1.4,1.2,2.8,2.4,4.2,3.7c3,2.7,5.9,5.6,8.8,8.5c3,2.9,6.1,5.6,9.3,8.3
	c2.8,2.3,5.5,4.6,8.4,6.8c3.2,2.2,6.3,4.5,9.5,6.6c3.1,2.1,6.3,4,9.6,5.5c2.4,0.9,4.8,1.6,7.3,2.4c1.4,0.4,2.7,0.9,4.1,1.3
	c1.2,0.4,2.5,0.7,3.8,0.9c3,0.2,6,0.3,9,0.1c1.5,0,3,0,4.6,0.1l0.7,0c0.6-0.1,1.3-0.3,1.9-0.4c0.9-0.2,1.8-0.2,2.7-0.3
	c1.7,0,3.3,0.9,4.2,2.4c0.9,1.6,0.6,3.6-0.6,5c-1.1,1-2.6,1.5-4.1,1.5c-1,0.1-2,0-2.9-0.1l-0.5,0c-1,0.2-1.9,0.5-2.9,0.8
	c-1.8,0.5-3.6,1.2-5.4,1.9c0,0-0.1,0-0.1,0.1l-0.1,0c-0.2,0.1-0.4,0.2-0.6,0.3l-0.3,0.1c-3.6,1.5-7.1,3.4-10.5,5.3
	c-3.8,2.1-7.6,4.2-11.3,6.4c-3.4,2.1-7,4.1-10.6,5.8c-4.1,1.8-8.4,3.4-12.7,4.7c-4.9,1.4-9.8,2.8-14.8,4.2c-2.3,0.7-4.7,1.3-7.1,1.8
	c-2.8,0.6-5.5,0.9-8.3,1.3c-2,0.3-3.9,0.5-5.9,0.8c0.3,0,0.7-0.1,1-0.1c-2.1,0.3-4.1,0.5-6.2,0.8c-1.9,0.2-3.7,0.5-5.6,0.7
	c-2.1,0.3-4.2,0.5-6.2,0.7c-2,0.2-4,0.3-6.1,0.3c-2.1,0-4.1-0.2-6.2-0.3s-4.1-0.3-6.2-0.6c-4.2-0.5-8.4-0.9-12.6-1
	c-3.8-0.1-7.7-0.5-11.5-0.9c-1.5-0.2-3-0.4-4.5-0.6c-1.4-0.2-2.7-0.5-4.1-0.7c-0.7-0.1-1.3-0.2-2-0.4c-0.6-0.1-1.2-0.3-1.8-0.5
	c-1.5-0.4-2.9-1-4.4-1.3c-2.1-0.5-3.4-2.7-2.9-4.9s2.7-3.4,4.9-2.9c0,0,0.1,0,0.1,0c2.5,0.6,4.8,1.6,7.3,2c1.2,0.2,2.5,0.5,3.7,0.7
	c1,0.2,2,0.3,3,0.4c3.6,0.4,7.1,0.8,10.7,0.9c4.1,0.2,8.1,0.4,12.2,0.9c4.3,0.5,8.6,0.9,12.9,1.1c3.9,0,7.8-0.2,11.7-0.7
	c1.2-0.2,2.5-0.3,3.7-0.5c2.5-0.4,4.9-0.6,7.4-0.9c1.2-0.2,2.4-0.3,3.6-0.5c2-0.3,4.1-0.5,6.1-0.8c2.9-0.5,5.8-1.1,8.7-1.8
	c3.1-0.8,6.1-1.7,9.1-2.6c6-1.6,11.9-3.4,17.7-5.6c1.7-0.8,3.4-1.6,5-2.5c1.8-1,3.7-2.1,5.5-3.2c3.8-2.2,7.6-4.4,11.4-6.5
	c2-1.1,4-2.2,6-3.3c-1.7-0.4-3.4-1-5.1-1.6c-2.1-0.7-4.2-1.3-6.2-2c-1.2-0.4-2.4-0.8-3.6-1.4c-1-0.4-1.9-0.9-2.9-1.4
	c-3.6-2-7.1-4.2-10.5-6.7c-1.6-1.1-3.2-2.3-4.9-3.4c-1.8-1.3-3.5-2.6-5.3-4c-3.4-2.6-6.6-5.4-9.8-8.3s-6.2-5.9-9.2-8.9
	c-2.8-2.8-5.7-5.4-8.7-7.9c-0.7-0.6-1.5-1.3-2.2-1.9c-0.9-0.7-1.7-1.4-2.4-2.2c-0.9-0.9-1.5-2.1-1.8-3.3c0-0.3-0.1-0.7-0.1-1
	c0-0.4,0.1-0.9,0.2-1.3c0.2-0.8,0.6-1.5,1.2-2.1c0.4-0.4,0.9-0.8,1.5-1.1c0.2-0.1,0.4-0.2,0.5-0.3c0.5-0.2,0.9-0.4,1.4-0.6
	c2-0.9,4.1-1.7,6.2-2.3c1.9-0.6,3.8-1,5.8-1.4c1.7-0.4,3.4-0.8,5-1.3c1.5-0.5,3-1,4.5-1.6c6.7-3,12.8-7.5,18.6-12
	c2.8-2.2,5.6-4.3,8.4-6.4c2.2-1.7,4.4-3.5,6.6-5.3c-0.3,0.2-0.6,0.4-0.8,0.7c1.2-1,2.5-2,3.6-3c1.2-1.1,2.3-2.3,3.4-3.4
	s2.3-2.2,3.4-3.4l0.1-0.1c-0.5,0.1-0.9,0.2-1.4,0.3c-2.3,0.4-4.6,0.7-6.9,0.9c-2.1,0.2-4.1,0.3-6.2,0.5c-4,0.3-8,0.7-12,0.8
	c-8.4,0.2-16.7,1-25.1,0.7c-4.3-0.2-8.6-0.5-13-1c-4.3-0.4-8.7-0.9-13-1.6c-4.2-0.7-8.4-1.4-12.5-2.2c-2.1-0.4-4.2-0.8-6.4-1.2
	c-1.9-0.4-3.9-0.9-5.8-1.4c-8.2-2.3-16.6-4.1-25-5.5c-4-0.6-8.1-1.2-12.1-1.8c-2.1-0.3-4.1-0.7-6.2-1.1c-2-0.3-4.1-0.6-6.1-0.9
	c-2-0.3-3.9-0.6-5.9-0.9c-2.1-0.3-4.2-0.6-6.3-1c-4.2-0.7-8.3-1.5-12.5-2.3c-2.2-0.4-4.3-0.7-6.5-1.2c-2.3-0.5-4.6-1-6.8-1.5
	c-2.2-0.5-4.3-1-6.5-1.4s-4.3-0.8-6.5-1.1c-4.4-0.4-8.8-0.5-13.1-0.4c-4.1,0.1-8.2,0.6-12.2,1.1c-3.6,0.5-7.1,1-10.7,1.4
	c-3.3,0.4-6.7,0.5-10,0.8c-4.3,0.7-8.5,1.8-12.5,3.2c-1,0.4-1.9,0.9-2.8,1.4c-1.1,0.7-2.2,1.4-3.2,2.2c-2.5,1.8-4.8,3.7-7.3,5.5
	c-0.9,0.6-2,0.7-3,0.4c-2.1-0.6-3.4-2.7-2.8-4.9c0,0,0,0,0,0c0.1-0.3,0.3-0.6,0.4-0.9c0.3-0.6,0.9-1.1,1.5-1.5
	c3.1-2.4,6.2-4.9,9.5-7.1c3.3-2.1,7-3.6,10.8-4.5c1.6-0.5,3.3-0.9,5-1.2c2.1-0.4,4.3-0.7,6.5-0.9c3.7-0.3,7.4-0.6,11.1-1
	c4-0.5,8-1.1,12-1.6c3.7-0.4,7.5-0.6,11.2-0.7C474.8,6.2,475.1,6.2,475.4,6.3L475.4,6.3z M709,28.5c-0.1,0-0.1,0-0.2,0L709,28.5z
	 M611.9,30.5l0.4,0L611.9,30.5z"/>
<path class="st0" d="M628.5,82c0.9,0.8,1.8,1.5,2.7,2.4c-0.3-0.2-0.5-0.5-0.8-0.7c0.7,0.7,1.5,1.2,2.2,1.9c0.8,0.7,1.6,1.4,2.4,2.1
	c1,0.8,2,1.7,3,2.5c1.3,1.1,2.5,2.3,3.7,3.4c2.1,1.9,4.4,3.6,6.5,5.5c-0.3-0.2-0.5-0.5-0.8-0.7c0.2,0.2,0.4,0.4,0.6,0.6
	c3.9,3.5,8.7,6,12.8,9.3c2.3,1.8,4.6,3.6,6.9,5.3c1,0.7,2.1,1.4,3.1,2.1c1.2,0.7,2.3,1.5,3.5,2.2c0.9,0.4,1.8,0.9,2.8,1.3
	c1.2,0.5,2.3,1.1,3.5,1.6c2.2,0.9,4.6,1.7,6.9,2.2c1.4,0.3,2.8,0.5,4.3,0.8c2,0.3,4,0.5,6,0.6c1.8,0.1,3.6,0.2,5.4,0.3
	c1.8,0.1,3.6,0.1,5.3,0.1c1.9,0.1,3.8,0.1,5.7,0.4c1.8,0.2,3.6,0.4,5.3,0.8c0.5,0.1,1,0.3,1.4,0.5c1,0.4,2,1,2.7,1.9
	c0.6,0.7,0.9,1.5,1,2.3c0.1,0.4,0.1,0.9,0,1.3c-0.1,0.8-0.3,1.5-0.8,2.1c-0.2,0.3-0.4,0.6-0.6,0.9c-1.2,1.4-2.7,2.5-4.3,3.4
	c0.2-0.1,0.4-0.2,0.5-0.3c-1.5,1-3.1,1.8-4.7,2.6c-1.6,0.7-3.3,1.5-4.9,2.3c-3.2,1.8-6.6,3.3-9.9,4.8c-3.5,1.6-7,3.2-10.5,4.7
	c-1.8,0.8-3.6,1.6-5.5,2.3c-0.9,0.4-1.7,0.7-2.6,1c-1,0.4-2,0.8-2.9,1.2c-1,0.4-2.1,0.8-3.1,1.3c-0.9,0.4-1.9,0.8-2.8,1.3
	c-2.2,1-4.4,1.8-6.7,2.6c-1.1,0.4-2.2,0.8-3.3,1.2c-1.1,0.4-2.1,0.9-3.2,1.3c-2.6,1-5.2,1.8-7.8,2.6l0.6-0.2
	c-1.9,0.6-3.8,1.1-5.8,1.6c-1.6,0.3-3.2,0.6-4.8,0.9c-1.8,0.3-3.6,0.5-5.4,0.8c-1.7,0.3-3.4,0.8-5.1,1.3s-3.4,1-5.1,1.4
	c-1.7,0.4-3.5,0.7-5.2,0.8c-1.7,0.2-3.4,0.3-5.2,0.4c-2.3,0.2-4.5,0.2-6.8,0.3c-0.5,0-1,0-1.5,0.1c-2.1,0.2-4.1,0.4-6.2,0.4
	c-1.7,0-3.3-0.1-5-0.1c-1.6,0-3.2,0-4.8,0.1c-1.6,0.1-3.2,0.1-4.7,0.1c-3.8,0-7.6-0.2-11.4-0.2c-1.1,0-2.1,0-3.2,0.1
	c-2.1,0.1-4.3,0.1-6.4-0.1c-2.3-0.2-4.7-0.5-7-0.9c-2.9-0.5-5.7-1.1-8.6-1.7l0.4,0.1c-3.2-0.6-6.3-1.4-9.3-2.5
	c-1.6-0.6-3.3-1.2-4.9-1.8c-2-0.9-3.9-1.9-5.8-3.1c-1.8-1.3-2.3-3.8-1-5.6c0.6-0.9,1.5-1.4,2.5-1.6c1.1-0.2,2.1,0,3,0.6
	c0.9,0.5,1.7,1,2.6,1.5c2.3,1,4.6,1.9,7,2.7c1.1,0.4,2.2,0.6,3.3,1s2.2,0.6,3.3,0.8c0.7,0.1,1.4,0.3,2.1,0.4
	c1.6,0.3,3.1,0.6,4.7,0.9c1.6,0.3,3.3,0.6,4.9,0.8c1.5,0.2,3.1,0.3,4.6,0.4c1.6,0.1,3.2,0,4.8,0c1.7,0,3.3-0.1,5-0.1
	c1.8,0,3.5,0.1,5.3,0.2c3.5,0.1,7,0.1,10.5-0.1c1.7,0,3.3-0.1,5-0.1c1.7,0,3.5,0.1,5.2,0c1.8-0.1,3.5-0.3,5.3-0.4
	c1.7-0.1,3.3-0.1,5-0.2c3-0.2,5.9-0.5,8.9-0.9c1.5-0.3,2.9-0.6,4.3-1c1.5-0.4,3-0.9,4.6-1.4c1.5-0.4,3-0.8,4.5-1
	c1.5-0.3,3-0.4,4.6-0.7c3.1-0.5,6.1-1.1,9-2l-0.1,0c0.4-0.1,0.8-0.3,1.2-0.4c1.7-0.6,3.4-1.1,5-1.7c1.8-0.7,3.5-1.4,5.3-2.1
	c1.7-0.6,3.5-1.2,5.2-1.9c1.6-0.6,3.2-1.3,4.8-2.1c3.4-1.5,6.9-2.8,10.3-4.3c3.5-1.5,7-3.1,10.5-4.6c2-0.9,4.1-1.8,6.1-2.8
	c2.1-0.9,4.2-1.9,6.2-3c1.9-1,3.8-2.1,5.7-3c0.8-0.4,1.7-0.7,2.5-1.1h0c-1.9-0.2-3.8-0.2-5.6-0.2c-1.8-0.1-3.6-0.1-5.4-0.2
	c-1.8-0.1-3.7-0.2-5.5-0.3c-1.9-0.1-3.8-0.4-5.7-0.7c-1.9-0.3-3.8-0.7-5.7-1.1c-1.8-0.4-3.5-0.9-5.2-1.6c-1.6-0.6-3.2-1.4-4.8-2.1
	c-1.6-0.7-3.1-1.4-4.6-2.2s-2.9-1.8-4.3-2.7c-2.7-1.7-5.2-3.7-7.7-5.7c-1.2-0.9-2.4-1.8-3.5-2.7c-1.3-1-2.7-1.8-4-2.7
	c-1.2-0.8-2.4-1.7-3.7-2.5c-1.3-1-2.6-2-3.7-3.1c0.1,0.1,0.3,0.3,0.4,0.4c-0.2-0.2-0.4-0.4-0.6-0.6c-1.3-1.2-2.8-2.2-4.1-3.4
	c-1.6-1.3-3-2.7-4.5-4.1c-3-2.6-6.2-5-9.1-7.7c0.3,0.2,0.5,0.5,0.8,0.7c-1-0.9-2.2-1.7-3.1-2.6c-1.4-1.7-1.2-4.2,0.5-5.6
	c0.7-0.6,1.6-0.9,2.5-0.9C626.7,80.8,627.7,81.2,628.5,82L628.5,82z M648.3,98.9l0.6,0.6C648.7,99.3,648.5,99.1,648.3,98.9z
	 M642,103.9c0.1,0.1,0.3,0.3,0.4,0.4L642,103.9z"/>
<path class="st0" d="M704.9,133.8c1.4,1.7,1.2,4.2-0.5,5.6c-0.8,0.6-1.6,1.1-2.4,1.5c-0.6,0.4-1.3,0.7-1.9,1
	c-1.4,0.7-2.7,1.3-4.1,1.9c-2.8,1.2-5.5,2.6-8.3,3.8c-2.8,1.2-5.6,2.6-8.4,3.7c-1.4,0.6-2.9,1.2-4.3,1.7c-1.6,0.6-3.2,1.2-4.9,1.7
	c-1.4,0.5-2.8,1-4.1,1.6c-1.7,0.7-3.4,1.3-5.2,2c-3.8,1.4-7.6,2.6-11.4,3.8c-1.6,0.5-3.3,0.9-4.9,1.3c-1.7,0.5-3.4,0.9-5.2,1.3
	c-2,0.5-4,0.9-6,1.2c-1.7,0.3-3.3,0.6-5,0.9c-4.3,0.9-8.5,2-12.9,2.7c-4.2,0.6-8.4,1.1-12.6,1.3l0.6,0c-3.9,0.2-7.8,0.6-11.7,0.5
	c-3.3,0-6.6-0.1-10,0c-3.5,0.1-6.9,0.2-10.4,0c-1.7-0.1-3.4-0.3-5.1-0.4c-1.9-0.2-3.8-0.3-5.7-0.6c-2-0.3-4.1-0.6-6.1-1
	c-2.4-0.5-4.9-0.9-7.3-1.4c-1.9-0.4-3.9-1-5.8-1.5c-1.7-0.5-3.4-1.2-4.9-2.1c-0.7-0.3-1.3-0.5-2-0.7c-1.1-0.4-2.3-0.8-3.4-1.2
	c-2.1-0.8-3.2-3-2.4-5.1c0.7-2.1,3-3.1,5.1-2.4c1.3,0.5,2.6,0.9,3.9,1.4c0.4,0.2,0.9,0.3,1.3,0.5c0.5,0.2,1,0.5,1.5,0.8
	c1.5,0.7,3,1.3,4.5,1.6c1.9,0.5,3.7,1,5.6,1.4c3.2,0.7,6.5,1.3,9.8,1.7c3.6,0.5,7.2,0.8,10.8,1.1c1.7,0.1,3.4,0.1,5.2,0.1
	s3.4,0,5.2-0.1c3.3-0.1,6.7-0.1,10,0c2,0,4,0,6-0.1c1.9-0.1,3.9-0.3,5.8-0.4l-1,0.1c1.5-0.1,3-0.3,4.5-0.4c1.7-0.2,3.4-0.3,5.1-0.6
	c3.5-0.5,7-1.2,10.5-2c1.6-0.4,3.2-0.7,4.7-1c1.7-0.4,3.4-0.6,5.1-0.9c3.7-0.7,7.4-1.6,11-2.6c1.3-0.4,2.7-0.7,4-1.1
	c1.1-0.3,2.3-0.7,3.4-1.1c3.1-1,6.1-2.1,9.1-3.2c1.6-0.6,3.1-1.3,4.6-1.9s3.2-1.1,4.7-1.6c1.2-0.4,2.4-0.9,3.5-1.4
	c1.3-0.5,2.6-1,3.9-1.6c2.7-1.1,5.3-2.4,7.9-3.6c2.6-1.1,5.1-2.5,7.7-3.6c2.3-1,4.6-2.1,6.8-3.4c0.7-0.6,1.6-0.9,2.6-0.9
	C703,132.4,704.2,132.9,704.9,133.8L704.9,133.8z"/>
<path class="st0" d="M464.9,0c1.8,0,3.6,0.2,5.4,0.3c2.1,0.1,4.1,0.1,6.2,0.3c2.7,0.2,5.4,0.4,8.1,0.7c2.5,0.3,5,0.6,7.6,1
	c2.5,0.3,5,0.6,7.5,0.9c2.9,0.4,5.8,1,8.7,1.6c6.3,1.3,12.7,2.1,19,3.4L526.2,8c1.2,0.2,2.4,0.5,3.6,0.7c0.4,0.1,0.8,0.2,1.2,0.3
	c0.1,0,0.2,0,0.3,0.1c0.2,0,0.4,0.1,0.5,0.1c0.1,0,0.2,0.1,0.3,0.1c0.6,0.1,1.2,0.3,1.8,0.4c2.1,0.5,4.2,0.9,6.3,1.5
	c2,0.5,4,1.1,6.1,1.5c0.9,0.2,1.9,0.4,2.8,0.6c1.7,0.3,3.3,0.7,5,1l-0.5-0.1c2.2,0.5,4.4,1,6.7,1.5c1.4,0.3,2.8,0.6,4.2,0.9l-1-0.2
	c0.9,0.2,1.8,0.4,2.6,0.6c2,0.4,3.9,0.8,5.9,1.3c1.8,0.5,3.6,0.9,5.4,1.3c3.5,0.7,6.9,1.3,10.4,1.8c1.8,0.3,3.6,0.6,5.5,0.9
	s3.6,0.7,5.4,1c3.4,0.6,6.8,1,10.2,1.5c3.1,0.4,6.2,0.7,9.3,1c3.1,0.2,6.3,0.4,9.4,0.7c1.8,0.1,3.6,0.2,5.3,0.3c1,0,1.9,0,2.9,0.1
	c1.1,0,2.2,0.2,3.3,0.2c1.9,0,3.8,0,5.8,0c1.7,0,3.5,0.1,5.2,0.2c3.8,0.2,7.6,0.2,11.4,0.5c1.9,0.1,3.9,0.2,5.8,0.2
	c2.8-0.2,5.7-0.6,8.5-1c1.4-0.2,2.8-0.5,4.1-0.8c1.3-0.2,2.6-0.5,3.9-0.9c1.4-0.5,2.8-1,4.2-1.5c1.1-0.3,2.1-0.7,3.2-1
	c2.5-0.9,4.8-2.1,7.3-3c1.6-0.6,3.3-1,5-1.3c0.6-0.1,1.2-0.2,1.8-0.3c1-0.1,2-0.2,3-0.1c2.3,0.3,4.7,1.6,5.6,3.8
	c0.4,0.9,0.6,1.9,0.6,2.8c0,0.8-0.2,1.5-0.6,2.2c-0.5,1.3-1.2,2.5-2,3.7c-0.9,1.2-1.9,2.4-2.8,3.6c-0.9,1.2-1.8,2.2-2.8,3.2
	c-1,1-2,1.9-3,2.8c-2.2,2.1-4.4,4-6.5,6.2c-1.1,1.1-2.2,2.2-3.4,3.2c-1.1,0.9-2.2,1.8-3.3,2.7c-1.1,0.9-2.2,1.9-3.4,2.8
	c-1.3,0.9-2.6,1.8-3.9,2.6c-1.4,0.9-2.6,1.9-3.9,2.9c-1.3,1.2-2.6,2.3-4,3.4c-1.2,1-2.5,1.8-3.8,2.6c-1.5,1-3,1.9-4.5,2.8
	c-4,2.5-8.2,4.6-12.2,7c-2.2,1.4-4.3,2.9-6.5,4.2c-1.2,0.6-2.4,1.2-3.6,1.7c-1.1,0.4-2.1,0.9-3.2,1.4c-2.3,0.9-4.6,2-7,2.8
	c-1.3,0.4-2.7,0.7-4.1,0.8c-1.3,0-2.6-0.1-3.9-0.4c-1.1-0.1-2.1-0.6-2.8-1.4c-1.4-1.7-1.2-4.2,0.5-5.6c0.8-0.7,1.8-1,2.9-0.9
	c1.1,0.2,2.2,0.4,3.3,0.4c0.7-0.1,1.4-0.3,2.1-0.5c2.3-0.8,4.5-1.8,6.7-2.8c1.3-0.6,2.6-1.1,3.9-1.6c1.3-0.6,2.5-1.3,3.7-2.1
	c1.2-0.8,2.5-1.7,3.7-2.5c1.5-0.9,2.9-1.8,4.5-2.6c1.3-0.7,2.6-1.5,4-2.2c1.4-0.8,2.9-1.5,4.2-2.4c0.8-0.5,1.7-1.1,2.6-1.6
	c2.3-1.5,4.6-3.1,6.7-4.9c1.2-1,2.2-2.1,3.4-3c1.3-1,2.6-1.8,3.9-2.7c0.9-0.6,1.8-1.3,2.7-2c1-0.8,2-1.7,3-2.5
	c1.9-1.6,3.8-3.1,5.6-4.9c1.8-1.8,3.7-3.6,5.5-5.3c0.9-0.9,1.8-1.7,2.8-2.6c0.7-0.7,1.5-1.3,2.2-2c0.4-0.5,0.8-0.9,1.2-1.4
	c0.6-0.7,1.1-1.4,1.6-2.2c0.4-0.5,0.9-1.1,1.3-1.6c-0.2,0-0.5,0.1-0.7,0.1c-0.8,0.2-1.7,0.4-2.5,0.6c-0.6,0.2-1.3,0.5-1.9,0.8
	c-0.9,0.4-1.7,0.8-2.6,1.2c-1,0.4-2,0.8-3,1.2c-1.3,0.4-2.6,0.8-3.9,1.2l-0.4,0.1c-2,0.7-3.9,1.4-5.9,2c-1.9,0.5-3.8,0.8-5.7,1.1
	c-2.1,0.4-4.1,0.7-6.2,0.9c-2.3,0.2-4.5,0.5-6.8,0.5c-2,0.1-4.1-0.2-6.2-0.3c-1.9-0.1-3.8-0.2-5.7-0.2c-3.7-0.1-7.3-0.4-11-0.3
	c-1.9,0-3.8,0.1-5.7-0.1c-2-0.1-4-0.2-6-0.2c-3.3-0.1-6.6-0.5-9.8-0.7c-3.1-0.2-6.3-0.5-9.4-0.8c-3.2-0.3-6.4-0.8-9.7-1.3
	c-2.8-0.4-5.6-0.9-8.3-1.4c-3-0.5-5.9-0.9-8.9-1.4c-2.9-0.5-5.7-1-8.6-1.5c-1.8-0.4-3.6-0.8-5.3-1.3c-1.5-0.4-2.9-0.7-4.4-1
	c-1.1-0.2-2.2-0.5-3.4-0.7c-0.7-0.1-1.4-0.3-2.1-0.4c-2.9-0.6-5.7-1.3-8.6-1.9c-1-0.2-2-0.4-2.9-0.6c-1.3-0.3-2.6-0.6-4-0.8l-0.2,0
	l-0.5-0.1l0.2,0c-1.9-0.4-3.8-0.9-5.7-1.4c-2-0.5-4-0.9-6-1.4c-0.9-0.2-1.8-0.4-2.8-0.6l-0.8-0.2c-0.3,0-0.7-0.1-1-0.2l0,0l-0.6-0.1
	c-0.4-0.1-0.8-0.2-1.2-0.3c-0.8-0.2-1.5-0.3-2.3-0.5l0.1,0c-6.3-1.2-12.6-2.1-18.9-3.4c-3.3-0.7-6.6-1.3-10-1.7
	c-3.2-0.4-6.5-0.8-9.7-1.2c-3.3-0.4-6.7-0.7-10.1-1c-2.1-0.1-4.1-0.2-6.2-0.3c-1.8-0.1-3.7-0.2-5.5-0.3c-0.9,0-1.8,0-2.7,0
	c-0.7,0-1.4,0-2.1,0c-1.5,0-2.9,0-4.3,0.1c-1.5,0.1-3,0.3-4.5,0.5c-1.7,0.2-3.3,0.6-5,0.8c-1.5,0.2-2.9,0.5-4.4,0.9s-2.9,0.6-4.4,1
	c-0.9,0.3-1.8,0.7-2.7,0.9c-1,0.3-2,0.6-3.1,0.9c-1.9,0.5-3.7,0.9-5.6,1.5c-1.4,0.5-2.7,1.2-3.9,1.9c-1.2,0.8-2.2,1.7-3.3,2.6
	c-1.1,0.9-2.3,1.6-3.6,2.4c-0.1,0.1-0.3,0.2-0.4,0.3c-0.6,0.7-1,1.6-1.6,2.3c-0.6,0.9-1.3,1.7-1.8,2.7c-0.8,1.7-1.4,3.4-2.1,5.1
	c-0.6,1.5-1.2,3.1-1.6,4.7c-0.1,0.6-0.2,1.2-0.2,1.8c-0.1,0.9-0.3,1.9-0.5,2.8c-0.4,1.9-0.6,3.8-1,5.6c0.1-0.3,0.1-0.7,0.2-1.1
	c-0.3,1.3-0.4,2.5-0.5,3.8c-0.1,1-0.1,2,0,3c0.1,1.4,0.4,2.8,0.6,4.1c0.2,1.4,0.2,2.9,0.2,4.3c0,1.1-0.1,2.2-0.1,3.3
	c0,0.8,0,1.7,0.1,2.5l0,0.2l0,0c0.5,1,0.5,2.1,0.2,3.1c-0.1,0.4-0.3,0.8-0.6,1.1c-0.2,0.3-0.5,0.5-0.7,0.8c-1.1,0.9-2.6,1.2-4,0.7
	c-0.7-0.3-1.3-0.7-1.8-1.2c-1-1-1-2.5-1-3.9c-0.1-1.5-0.1-3-0.1-4.5c0-1.5,0.1-3.1,0.1-4.6c-0.2-2.2-0.7-4.4-0.7-6.7
	c0-1.2,0-2.4,0.1-3.5c0.1-1.2,0.3-2.4,0.6-3.6l0,0c0.4-1.8,0.6-3.7,1-5.5l-0.1,0.6c0.2-1.1,0.3-2.2,0.4-3.3c0.2-1.5,0.5-2.9,1-4.3
	c0.8-2.2,1.6-4.4,2.4-6.5c0.6-1.4,1.3-2.8,2.1-4.2c0.6-1,1.4-2,2.1-3c0.3-0.4,0.6-0.9,0.9-1.3c0.5-0.7,1-1.3,1.7-1.8
	c0.9-0.7,1.8-1.3,2.8-1.8c1.4-1,2.7-2.2,4.1-3.1c1.7-1.2,3.6-2.3,5.6-3.1c1.9-0.7,3.8-1.2,5.7-1.7c1.6-0.4,3.1-0.8,4.7-1.3
	c1.5-0.6,3.1-1.1,4.6-1.5c0.8-0.2,1.7-0.3,2.5-0.5s1.7-0.4,2.5-0.6c1.6-0.3,3.3-0.6,5-0.9c1.8-0.3,3.5-0.5,5.3-0.7
	c2.2-0.2,4.4-0.4,6.6-0.3c0.8,0,1.6,0,2.4,0c0.8,0,1.5,0,2.3,0C464.2,0,464.6,0,464.9,0L464.9,0z M399.6,66.7L399.6,66.7L399.6,66.7
	L399.6,66.7L399.6,66.7z M687.7,23.7l0.4-0.1L687.7,23.7z M688.2,23.5l-0.2,0.1l0.6-0.2L688.2,23.5L688.2,23.5z"/>
<path class="st0" d="M414.3,22.2c1,0.4,1.8,1.1,2.3,2.1c0.1,0.2,0.2,0.4,0.4,0.6c0.4,0.6,0.9,1.2,1.4,1.8c1.1,0.9,2.3,1.7,3.5,2.5
	c1.7,1.1,3.5,2.2,5.3,3.1c-0.3-0.2-0.6-0.3-1-0.5c2.5,1.3,5,2.7,7.5,4.1c2.4,1.4,4.8,2.6,7.2,4c2.3,1.3,4.5,2.7,6.8,4.1
	c2.3,1.4,4.7,2.7,7.1,3.9c3.3,1.7,6.7,3.2,10.1,4.5c3.5,1.4,6.9,3.1,10.5,4.5c3.6,1.5,7.3,2.8,10.9,4.1s7.3,2.6,11,3.9
	c3.4,1.2,6.9,2.4,10.3,3.7c1.7,0.6,3.3,1.2,5,1.7c1.9,0.6,3.8,1.1,5.7,1.7c3.5,1.1,6.9,2.3,10.3,3.5c0.8,0.3,1.7,0.6,2.5,0.9
	c1,0.3,2,0.5,2.9,0.8c1.9,0.5,3.8,1.1,5.6,1.9c1.5,0.6,3,1.5,4.3,2.5c0.6,0.5,1.2,1,1.8,1.6c0.3,0.3,0.5,0.6,0.8,0.9
	c0.4,0.6,0.8,1.2,1.1,1.8c0.2,0.3,0.3,0.6,0.4,0.9c0.5,1,0.7,2.1,0.5,3.2c-0.1,0.7-0.3,1.3-0.5,1.9c-0.7,2.1-3,3.2-5.1,2.5
	c-2-0.7-3.1-2.8-2.5-4.8c-0.1-0.1-0.1-0.2-0.2-0.3c-0.3-0.4-0.6-0.8-1-1.1c-0.5-0.4-1.1-0.8-1.6-1.1c-1.7-0.7-3.4-1.3-5.1-1.9
	c-1.9-0.6-3.8-1-5.7-1.7c-3.3-1.2-6.7-2.4-10.1-3.5c-1.8-0.6-3.7-1.1-5.5-1.7c-1.8-0.5-3.5-1.1-5.3-1.8c-3.5-1.2-6.9-2.5-10.4-3.7
	c-7.2-2.6-14.5-5.1-21.7-7.9c-1.8-0.7-3.6-1.5-5.4-2.3c-1.7-0.8-3.5-1.5-5.3-2.3c-1.9-0.8-3.8-1.5-5.6-2.3c-1.7-0.7-3.3-1.6-4.9-2.4
	c-1.5-0.7-3-1.6-4.5-2.3c-1.4-0.7-2.8-1.4-4.1-2.2c-2.4-1.4-4.6-2.9-7-4.2c-2.4-1.4-4.9-2.7-7.3-4.1c-2.3-1.3-4.6-2.6-7-3.9l0.6,0.3
	c-2.8-1.4-5.4-3-8-4.7c-1.2-0.8-2.3-1.7-3.3-2.7c-1.2-1.3-2.2-2.7-3-4.2c-0.5-1-0.5-2.1-0.2-3.1C409.9,22.6,412.2,21.5,414.3,22.2
	L414.3,22.2z"/>
<path class="st0" d="M544.3,81.4c0.4,0.1,0.8,0.2,1.1,0.4c0.8,0.2,1.5,0.6,2.1,1c0.4,0.3,0.9,0.7,1.2,1c0.4,0.4,0.7,0.9,1.1,1.3
	c0.5,0.8,1,1.6,1.3,2.6c0.5,1.5,0.8,3,0.8,4.6c0,0.5,0,1,0,1.5c0,0.6,0.1,1.1,0.1,1.7c0.1,1.3,0.1,2.7,0.1,4c0,2.8-0.3,5.6-0.7,8.3
	c-0.1,1-0.2,2-0.4,3c-0.2,1-0.4,2.1-0.5,3.1c0,0.1,0,0.3,0,0.4c0,0.1,0,0.1,0,0.2c0,0.1,0,0.2,0,0.4c-0.2,1.7-0.4,3.3-0.7,5
	c-0.3,1.5-0.7,2.9-0.9,4.4c-0.3,1.4-0.4,2.9-0.7,4.3c-0.2,1.4-0.5,2.8-0.7,4.3c-0.1,1.2-0.3,2.4-0.5,3.6c-0.2,1.7-0.3,3.4-0.6,5
	c-0.3,1.7-0.7,3.4-1.1,5c-0.8,3.3-1.5,6.6-2,10c-0.2,1.3-0.3,2.6-0.5,3.9l0.1-1.1c-0.2,1.9-0.5,3.8-0.7,5.7c0,0.3-0.1,0.6-0.1,0.9
	c0,0.2,0,0.4-0.1,0.6c0,0.1,0,0.3,0,0.4c0,0.2,0,0.3-0.1,0.5c0,0.2-0.1,0.4-0.1,0.6c-0.1,0.4-0.1,0.7-0.2,1.1
	c-0.2,1.7-0.4,3.3-0.6,5c-0.2,1.7-0.4,3.3-0.4,5c-0.1,2-0.2,4-0.4,5.9c-0.4,4-0.5,7.9-0.8,11.9c-0.3,3.9-0.3,7.8-0.4,11.6
	c-0.1,3.8-0.4,7.5-0.5,11.3c-0.1,3.5-0.1,7.1,0,10.6c0.1,3.4,0.5,6.8,0.8,10.1c0.2,1.7,0.3,3.4,0.5,5.2s0.4,3.4,0.6,5.1
	c0.2,1.5,0.2,2.9,0.4,4.4s0.3,3,0.5,4.4c0,0.2,0.1,0.4,0.1,0.7c0.3,1.6,0.4,3.2,0.4,4.8c0,0.8,0,1.6,0,2.4c-0.1,1-0.2,2.1-0.5,3.1
	c-0.4,1.5-1,3.3-2.3,4.4c-0.7,0.6-1.6,1.1-2.4,1.4c-0.3,0.1-0.5,0.1-0.8,0.2c-0.8,0.2-1.6,0.3-2.4,0.4c-0.9,0.2-1.9,0.3-2.8,0.4
	l-0.1,0l0.1,0l-0.3,0l-0.6,0.1c-0.3,0.1-0.7,0.1-1,0.1c-2.2,0-4-1.7-4.1-3.9c0-0.7,0.2-1.4,0.5-2.1c0.5-0.9,1.4-1.6,2.4-1.9
	c0.7-0.1,1.4-0.2,2.1-0.3c1.2-0.2,2.3-0.4,3.5-0.5c0.2,0,0.3-0.1,0.5-0.1c0.1-0.4,0.2-0.8,0.3-1.2c0-0.4,0-0.9,0-1.3
	c0-0.8,0.1-1.6,0-2.5c0-0.7-0.1-1.5-0.2-2.2c0-0.2,0-0.3-0.1-0.5c-0.1-0.3-0.1-0.6-0.1-1c-0.1-0.5-0.1-1.1-0.2-1.6
	c-0.2-1.7-0.4-3.5-0.6-5.2c-0.4-3.7-0.9-7.3-1.2-11c-0.2-1.9-0.4-3.8-0.6-5.7c-0.2-1.9-0.3-3.9-0.4-5.8c-0.3-7.6,0.2-15.2,0.5-22.8
	c0.2-3.9,0.1-7.9,0.4-11.8c0.3-4,0.4-7.9,0.8-11.9c0.2-2.1,0.3-4.3,0.4-6.4c0.1-2.3,0.4-4.6,0.7-6.8c0.2-1.6,0.3-3.2,0.6-4.8
	c0-0.3,0-0.5,0.1-0.8c0-0.2,0-0.5,0.1-0.7c-0.6-0.7-0.9-1.5-0.9-2.4c0.2-2.2,0.3-4.4,0.4-6.6c0.1-2,0-3.9-0.1-5.9
	c-0.1-1.9-0.4-3.9-0.4-5.8c0-2.1,0-4.1,0.1-6.2c0-1,0.2-2,0.3-3c0.1-1,0.2-2.1,0.3-3.1c0.2-2,0.3-3.9,0.5-5.9
	c0.2-2.2,0.5-4.4,0.9-6.6c0.4-1.9,0.9-3.9,1.2-5.8c0.2-1.2,0.4-2.3,0.5-3.5c0.2-1.8,0.3-3.7,0.5-5.5c0.2-1.9,0.4-3.9,0.5-5.8
	c0.1-2,0.2-3.9,0.2-5.9c0-1.8-0.3-3.7-0.1-5.5c0-0.7,0.1-1.4,0.3-2.1c0.1-0.7,0.4-1.3,0.7-1.9c0.6-1,1.5-1.8,2.6-2.1
	c0.4-0.2,0.9-0.2,1.3-0.2C543.4,81.3,543.8,81.3,544.3,81.4L544.3,81.4z M541.3,259.2c0,0.1,0,0.2,0,0.3l0,0L541.3,259.2
	L541.3,259.2z M530.5,277.4L530.5,277.4l0.3,0L530.5,277.4z"/>
<path class="st0" d="M135.5,196.1c1.4,0.1,2.7,0.1,4.1,0.1c4.4-0.1,8.8-0.1,13.2,0c4.5,0.1,9,0.3,13.5,0.5c2.3,0.1,4.7,0.2,7,0.3
	c2.1,0.1,4.2,0.4,6.3,0.7c2.3,0.3,4.6,0.6,6.8,0.9c2.4,0.4,4.7,0.8,7,1.3c2.2,0.5,4.4,1,6.6,1.4s4.4,0.7,6.6,1.1
	c2.3,0.4,4.6,0.7,6.9,1.1c2.3,0.4,4.5,1,6.8,1.5c8.7,1.9,17.7,3.2,26,6.5c2,0.8,4,1.7,6,2.5c2.1,0.9,4.1,1.7,6.2,2.6
	c3.8,1.6,7.6,2.9,11.3,4.7c1.8,0.8,3.6,1.6,5.5,2.3c0.9,0.3,1.8,0.6,2.6,0.9c0.9,0.3,1.8,0.7,2.8,1c3.9,1.4,7.7,2.9,11.4,4.5
	c1.9,0.9,3.8,1.7,5.8,2.4c1.8,0.7,3.7,1.4,5.5,2.2c4.1,1.8,8.3,3.3,12.5,4.9c2.1,0.8,4.3,1.5,6.5,2.4c2.3,0.9,4.6,1.7,6.9,2.5
	c2.2,0.7,4.3,1.5,6.4,2.3c2,0.7,4,1.4,6,2.1c4,1.5,8,3.2,12,4.7c2,0.7,4,1.6,6,2.3c2.1,0.8,4.4,1.3,6.5,1.9c3.7,1,7.3,2.2,11,3.3
	c3.8,1,7.6,2.1,11.4,3.1c1.6,0.4,3.3,0.7,4.9,1.1c1.6,0.4,3.1,0.9,4.6,1.4s3.1,1,4.6,1.5c1.5,0.5,3,0.9,4.5,1.3
	c2.5,0.6,5,1.1,7.5,1.7c2.8,0.6,5.7,1.2,8.5,1.6c2.7,0.4,5.4,0.9,8.2,1.2c1.4,0.1,2.8,0.2,4.1,0.2c1.7,0,3.3,0.1,5,0.1
	c1.1,0,2.3,0,3.4,0c1.3,0.1,2.6,0.2,3.9,0.3c2.5,0.3,5,0.1,7.6,0.3c2.7,0.2,5.4,0.5,8.1,0.7c2.7,0.2,5.5,0.3,8.2,0.3
	c1.3,0,2.5,0,3.8,0c1.2,0,2.5,0,3.7,0.1c0.8,0,1.6-0.1,2.4-0.2c1.1-0.1,2.3-0.3,3.4-0.4c2.4-0.3,4.8-0.5,7.1-0.9
	c3.8-0.7,7.7-0.7,11.6-1.2c1-0.1,2-0.3,3-0.4c1.1-0.1,2.2-0.1,3.3-0.1c2-0.1,4-0.3,6-0.8c1.1-0.2,2.2-0.5,3.3-0.6
	c1-0.2,2.1-0.3,3.1-0.4c1.1-0.2,2.1-0.4,3.2-0.6c1.2-0.2,2.5-0.3,3.8-0.4c1-0.1,2.1,0.1,3,0.8c1.8,1.3,2.1,3.8,0.8,5.6
	c-0.6,0.9-1.6,1.4-2.6,1.6c-1.2,0.1-2.4,0.2-3.6,0.4c-1.2,0.1-2.3,0.4-3.4,0.6c-1,0.2-2.1,0.3-3.1,0.4c-1.2,0.2-2.4,0.4-3.6,0.7
	c-2,0.4-4,0.7-6,0.7c-1.1,0-2.2,0.1-3.2,0.1c-1.1,0.1-2.2,0.3-3.3,0.4c-2,0.2-4,0.3-6,0.4c-1.9,0.1-3.8,0.4-5.7,0.8
	c-2.4,0.4-4.9,0.6-7.3,0.9c-1.1,0.1-2.3,0.3-3.4,0.4c-1.3,0.1-2.7,0.1-4,0.1c-1.6,0-3.1-0.1-4.7-0.1h0c-1.3,0-2.6,0-3.9,0.1
	c-1.5,0-2.9-0.1-4.4-0.2c-2.8-0.1-5.6-0.4-8.3-0.6c-2.6-0.3-5.1-0.3-7.7-0.3c-1.3,0-2.7-0.2-4-0.3c-1.3-0.1-2.6-0.2-3.9-0.2
	c-4.4,0.2-8.7,0-13.1-0.6c-4.2-0.6-8.5-1.2-12.7-2.1c-2.1-0.5-4.2-0.9-6.4-1.4c-2.2-0.5-4.5-1-6.7-1.6c-3.9-1.2-7.6-2.6-11.5-3.6
	c-2.2-0.5-4.4-1-6.6-1.6c-2.1-0.5-4.1-1.1-6.1-1.7c-4.1-1.1-8.2-2.4-12.3-3.6c-2.3-0.7-4.6-1.2-6.8-1.9c-2.4-0.7-4.7-1.6-7-2.6
	c-2.1-0.8-4.3-1.7-6.4-2.5c-2.2-0.9-4.4-1.8-6.6-2.6c-2.1-0.7-4.1-1.4-6.2-2.2c-2.1-0.8-4.2-1.6-6.4-2.3c-2.3-0.7-4.5-1.6-6.8-2.4
	c-2.2-0.8-4.4-1.6-6.7-2.4c-4.2-1.6-8.4-3-12.4-4.8c-3.8-1.7-7.7-2.9-11.4-4.7c-1.8-0.9-3.8-1.7-5.7-2.4c-1.9-0.7-3.8-1.5-5.8-2.2
	c-1.8-0.6-3.6-1.3-5.4-1.9c-0.9-0.3-1.7-0.7-2.6-1c-0.9-0.4-1.8-0.8-2.7-1.2c-1.7-0.8-3.5-1.6-5.2-2.3c-2-0.9-4.1-1.6-6.2-2.4
	c-2-0.9-4-1.6-6-2.5c-2.1-0.9-4.1-1.8-6.2-2.6c-2.9-1.1-5.8-2-8.8-2.8c-4.3-1-8.6-1.8-12.9-2.7c-4.5-1-8.9-2.1-13.4-2.8
	c-4.5-0.7-9-1.3-13.4-2.3c-4.5-1.1-9.1-1.9-13.8-2.4c-3.2-0.4-6.4-0.9-9.7-1.1c-1.7-0.1-3.3-0.2-5-0.2s-3.4-0.1-5-0.2
	c-3.4-0.2-6.9-0.3-10.3-0.4c-3-0.1-6.1-0.1-9.2-0.1c-2.1,0.1-4.3,0.1-6.4,0.1c-1.7,0-3.3-0.2-5-0.2c-1.6,0.1-3.3,0.3-4.9,0.4
	c-1.9,0.2-3.9,0.2-5.8,0.2c-4.2,0.1-8.5,0.4-12.7,0.7c-4.3,0.3-8.6,0.9-12.8,1.5c-2.1,0.3-4.1,0.5-6.2,0.9c-2.2,0.4-4.4,0.9-6.6,1.3
	c-1.8,0.4-3.7,0.7-5.5,1.1c-2,0.4-4,0.9-6,1.3c-1.7,0.4-3.4,0.7-5.1,0.9c-0.6,0.1-1.3,0.1-1.9,0.3c-0.5,0.1-1,0.2-1.5,0.4
	c-1.3,0.4-2.6,1-3.9,1.7c-1,0.4-2,0.4-3,0c-2.1-0.8-3.1-3.1-2.3-5.2c0,0,0,0,0,0c0.4-1,1.2-1.8,2.2-2.2c0.5-0.3,1-0.5,1.6-0.8
	c0.5-0.3,1.1-0.5,1.6-0.7c0.9-0.4,1.9-0.6,2.8-0.8c0.9-0.2,1.7-0.4,2.5-0.5c4.2-0.6,8.4-1.4,12.5-2.4c1.8-0.4,3.7-0.7,5.5-1.1
	c2.2-0.4,4.4-0.9,6.7-1.4c2-0.4,4-0.5,6.1-0.8c2.2-0.3,4.3-0.6,6.5-0.9c3.7-0.5,7.5-0.6,11.2-0.8c1.9-0.1,3.8-0.2,5.8-0.3
	c1.7-0.1,3.3-0.1,5-0.1c2.9-0.2,5.7-0.6,8.6-0.6h0.2C132.9,195.9,134.2,196,135.5,196.1L135.5,196.1z M471.4,275.8h-0.3H471.4z
	 M474.6,283.7l-0.5,0L474.6,283.7z"/>
<path class="st0" d="M191.8,13.6c2.4,0,4.7,0.2,7.1,0.4c2.3,0.1,4.5,0.4,6.7,0.7c2.4,0.3,4.9,0.7,7.3,1c4.9,0.5,9.8,1.2,14.7,2.1
	c1.8,0.3,3.5,0.7,5.2,1.1l-0.3-0.1l0.4,0.1h0c2.2,0.5,4.4,1,6.6,1.5c2.5,0.5,5,1.1,7.5,1.6s5,0.8,7.6,1.2c2.4,0.4,4.8,1,7.1,1.6
	c2.7,0.6,5.5,1.2,8.1,2.1c2.4,0.7,4.8,1.4,7.2,2.1s4.8,1.3,7.2,2.1c1.1,0.4,2.2,0.8,3.3,1.2c1.1,0.4,2.3,0.8,3.4,1.1
	c2.4,0.8,4.8,1.5,7.1,2.4c2.1,0.8,4.2,1.5,6.4,2.3c2.2,0.8,4.3,1.5,6.5,2.3c2.2,0.9,4.4,1.8,6.7,2.6c4.9,1.7,9.7,3.6,14.6,5.2
	c2.3,0.8,4.6,1.7,6.8,2.8c1.1,0.5,2.2,0.9,3.3,1.4c1.1,0.5,2.2,1,3.3,1.5c1,0.4,2.1,0.9,3.1,1.4c1.3,0.5,2.6,0.9,3.9,1.4
	c2.4,0.8,4.6,1.8,6.9,2.8c1.1,0.5,2.2,0.8,3.3,1.2c1.2,0.4,2.4,0.9,3.6,1.3c2.4,0.8,4.8,1.8,7.1,2.8c2.2,1,4.3,2.1,6.6,2.9
	c2.2,0.8,4.4,1.6,6.7,2.4c1.1,0.4,2.3,0.8,3.4,1.3c1.1,0.5,2.3,1,3.4,1.5c2.2,0.9,4.5,1.8,6.7,2.7c4.9,2,9.8,4.1,14.8,5.8
	c2.9,1,5.8,1.8,8.6,2.8s5.7,1.9,8.6,2.7c2.6,0.6,5.2,1.2,7.8,1.8c3.2,0.8,6.4,1.7,9.6,2.5c3,0.7,6.1,1.2,9.2,1.8
	c3,0.5,6.1,1.2,9.1,1.6s6.1,0.9,9.2,1.1c2.8,0.2,5.6,0.2,8.3,0.2c1.4,0,2.8-0.1,4.3-0.1c3.3-0.1,6.5-0.3,9.8-0.4
	c3.2-0.1,6.3-0.6,9.4-0.8c1.6-0.1,3.1-0.2,4.6-0.5c1.5-0.2,3-0.6,4.5-1c2.8-0.7,5.7-0.7,8.5-1.4c1.5-0.5,3-1,4.5-1.5
	c1.3-0.4,2.6-0.8,3.9-1.1c1.1-0.2,2.2-0.4,3.2-0.7c1.8-0.5,3.6-1.1,5.4-1.6c0.3-0.1,0.7-0.2,1-0.3c2.2-0.3,4.2,1.2,4.5,3.4
	c0.1,0.7,0,1.4-0.2,2c-0.4,1-1.2,1.8-2.2,2.2c-1.9,0.6-3.8,1.2-5.7,1.7c-2.2,0.6-4.4,1-6.5,1.5c-1.6,0.5-3.1,1.1-4.7,1.5
	c-1.2,0.4-2.3,0.7-3.5,0.9c-0.9,0.2-1.9,0.3-2.8,0.4c-1.7,0.2-3.4,0.5-5,0.9c-1.8,0.5-3.7,0.8-5.6,1c-1.7,0.2-3.4,0.3-5.1,0.4
	c-2,0.2-3.9,0.4-5.9,0.5c-4.1,0.2-8.2,0.4-12.4,0.5c-2,0-4.1,0.1-6.1,0.1c-1.9,0-3.9,0-5.8-0.1c-4.1-0.3-8.2-0.8-12.2-1.5
	c-2-0.3-4.1-0.8-6.1-1.1c-2.2-0.4-4.4-0.8-6.6-1.2c-4.7-0.8-9.2-2.2-13.8-3.3c-4.6-1.1-9.3-2.1-13.8-3.5c-2.4-0.8-4.9-1.7-7.3-2.4
	c-2.5-0.8-4.9-1.6-7.4-2.4c-4.1-1.5-8.1-3.1-12.1-4.8c-2.1-0.9-4.3-1.8-6.5-2.6c-2.3-0.9-4.6-2-6.9-2.9c-2.3-0.8-4.6-1.6-6.8-2.4
	c-2.1-0.8-4.2-1.7-6.3-2.7c-2.3-1.1-4.6-2.1-7-2.9c-2.4-0.8-4.8-1.7-7.1-2.5c-2.3-0.8-4.5-1.9-6.8-2.8c-1.2-0.4-2.4-0.8-3.5-1.2
	s-2.3-0.9-3.5-1.4c-2.2-1-4.4-2-6.6-2.9c-2.3-1-4.4-2-6.7-2.8c-2.4-0.9-4.8-1.6-7.2-2.5c-2.4-0.9-4.8-1.8-7.2-2.6
	c-2.4-0.8-4.7-1.7-7.1-2.7c-2.1-0.8-4.2-1.6-6.4-2.3c-4.5-1.6-8.9-3.3-13.3-4.7c-2.3-0.7-4.6-1.5-6.9-2.3c-2.4-0.8-4.8-1.5-7.2-2.2
	c-2-0.5-3.9-1.1-5.9-1.6c-1.9-0.6-3.8-1.1-5.8-1.6c-2.5-0.6-5-1.2-7.4-1.7c-2.9-0.6-5.9-1-8.8-1.5s-5.8-1.2-8.7-1.9
	c-2.7-0.6-5.3-1.2-8-1.8c-1.8-0.4-3.6-0.7-5.4-1c-1.9-0.3-3.8-0.7-5.7-1c-1.9-0.3-3.7-0.5-5.6-0.7c-1.9-0.2-3.7-0.4-5.6-0.6
	c-3.5-0.5-7-1-10.5-1.2c-1.8-0.1-3.6-0.2-5.4-0.3c-1.7-0.1-3.5-0.1-5.2,0c-3,0.1-6,0.4-8.9,0.5c-3.3,0.2-6.6,0.3-9.9,0.3
	c-3.1,0-6.2-0.1-9.2-0.3c-3-0.2-6-0.4-9-0.4c-2.3,0.2-4.6,0.5-6.8,0.9c-2.3,0.4-4.6,0.7-6.9,1c-4.7,0.6-9.5,1.3-14.2,1.9
	c-2.4,0.3-4.8,0.6-7.2,0.8c-2.2,0.2-4.4,0.3-6.6,0.6c-4.8,0.5-9.6,1.2-14.4,2.3c-0.9,0.2-1.8,0.5-2.8,0.7c0.3-0.1,0.7-0.2,1-0.3
	c-0.9,0.2-1.8,0.5-2.7,0.7c-2.7,0.8-5.4,1.6-8.1,2.2c-2.4,0.6-4.8,1-7.3,1.5c-2.6,0.5-5.2,1.1-7.9,1.6c-2.1,0.4-4.2,0.8-6.3,1.3
	c-0.1,0-0.1,0-0.2,0.1l0,0c-0.8,0.7-1.9,1-2.9,0.8c-2.2-0.2-3.8-2.2-3.5-4.4c0,0,0,0,0,0l0.2-1c0.3-0.7,0.7-1.3,1.3-1.7
	c0.7-0.6,1.6-1.1,2.5-1.3c0.9-0.3,1.8-0.5,2.7-0.7c1-0.2,1.9-0.4,2.9-0.6c2.5-0.4,4.9-0.9,7.4-1.4c2.4-0.5,4.7-0.9,7.1-1.4
	s4.7-1.1,7-1.7c1.3-0.4,2.7-0.8,4.1-1.2c2.3-0.6,4.6-1.3,6.9-1.7c2.4-0.5,4.9-0.8,7.3-1.2c4.6-0.7,9.3-0.8,14-1.4
	c4.6-0.5,9.2-1.2,13.8-1.8c4.8-0.6,9.7-1.3,14.5-2c2.3-0.4,4.6-0.5,6.9-0.5c2,0,3.9,0.1,5.9,0.3c4.2,0.3,8.4,0.5,12.6,0.4
	c2.1-0.1,4.2-0.1,6.3-0.3c1.1-0.1,2.1-0.1,3.2-0.2c1.3-0.1,2.5-0.2,3.8-0.3c2.1-0.1,4.3-0.2,6.4-0.2
	C190.7,13.6,191.2,13.6,191.8,13.6L191.8,13.6z"/>
<path class="st0" d="M189.1,4.7c1.9,0.1,3.7,0.1,5.6,0.2c2,0.1,3.9,0.3,5.9,0.5c1.8,0.2,3.6,0.4,5.4,0.5c1.7,0.1,3.4,0.4,5.1,0.6
	c3.6,0.5,7.3,1.1,10.9,1.8c2,0.4,4.1,0.7,6.1,1.1c2.1,0.4,4.2,0.8,6.4,1.2c2.2,0.4,4.4,0.8,6.6,1.3c2.3,0.5,4.5,1.1,6.8,1.7
	c3.6,0.8,7.3,1.4,11,2.2c4.1,0.9,8.2,2,12.2,3.3c3.7,1.2,7.5,2.4,11.3,3.5c3.8,1.1,7.6,2.2,11.4,3.6c3.9,1.4,7.7,2.9,11.6,4.3
	c3.6,1.3,7.3,2.6,10.8,4.1c3.5,1.5,7.1,2.9,10.6,4.3c3.7,1.4,7.5,2.8,11.2,4.2c1.7,0.7,3.5,1.3,5.2,2c1.9,0.8,3.8,1.6,5.7,2.5
	c3.7,1.8,7.4,3.6,11.2,5.3c3.4,1.5,6.9,2.7,10.3,4.2c3.6,1.7,7.2,3.5,10.8,5.3c2.9,1.5,5.9,2.8,8.7,4.4l0.9,0.5c0.6,0.4,1,1,1.3,1.6
	c0.9,2-0.1,4.4-2.1,5.2c0,0,0,0,0,0c-1,0.4-2,0.4-3,0c-3.7-2-7.5-3.8-11.2-5.7c-3.6-1.8-7.2-3.6-10.9-5.2c-3.5-1.4-6.9-2.7-10.3-4.3
	c-1.8-0.8-3.6-1.7-5.4-2.6c-1.8-0.9-3.7-1.8-5.6-2.6c-3.6-1.5-7.3-2.9-11-4.3c-3.8-1.5-7.6-2.8-11.4-4.3c-3.5-1.4-6.9-2.8-10.3-4.2
	c-3.6-1.4-7.3-2.7-11-4c-3.3-1.2-6.7-2.5-10-3.7c-3.2-1.2-6.5-2.1-9.8-3s-6.6-1.9-9.8-3c-1.6-0.5-3.2-1.1-4.9-1.5
	c-1.6-0.5-3.2-0.9-4.8-1.3c-2.8-0.6-5.5-1.2-8.3-1.7c-3.4-0.6-6.8-1.4-10.2-2.3l1,0.2c-1.9-0.5-3.8-0.9-5.7-1.3c-2-0.4-4-0.7-6-1
	c-1.9-0.3-3.9-0.8-5.8-1.1c-1.8-0.3-3.5-0.6-5.3-0.9c-3.6-0.7-7.3-1.2-10.9-1.7c-1.7-0.2-3.4-0.4-5.1-0.6c-1.8-0.1-3.7-0.4-5.5-0.6
	c-3.2-0.3-6.4-0.5-9.6-0.6c-3.3,0-6.5-0.2-9.8-0.2c-1.2,0-2.4,0.1-3.6,0.1c-2.1,0-4.2,0.1-6.3,0.1c0.3,0,0.7,0,1,0
	c-4,0.1-8,0.4-12.1,0.7c-1.9,0.1-3.8,0.2-5.7,0.4c-1.9,0.2-3.9,0.4-5.8,0.7c-2,0.2-4.1,0.4-6.1,0.7c-1.8,0.2-3.6,0.5-5.5,0.8
	c-3.9,0.6-7.7,1.3-11.5,2c-2.3,0.5-4.7,0.9-7,1.4c-2.1,0.5-4.3,0.9-6.4,1.4c-2,0.4-4.1,0.7-6.1,1.1c-2.3,0.4-4.5,1-6.8,1.6
	c-1.7,0.5-3.4,1-5.2,1.4c-1.5,0.4-2.9,0.7-4.4,1c-2.5,0.8-5,1.5-7.4,2.2c0,0.2,0,0.4,0,0.6c-0.1,1.1-0.7,2-1.5,2.7
	c-0.8,0.6-1.9,0.9-2.9,0.8c-0.9,0-1.7,0-2.6,0c-1.1,0-2.3,0.1-3.4,0.2c-1.3,0.2-2.7,0.6-4,0.9c-1.3,0.3-2.6,0.4-3.9,0.7
	c-1,0.2-2.1,0.5-3.1,0.8c-1.2,0.3-2.3,0.7-3.5,1.1c-0.5,0.2-1,0.4-1.5,0.7c-0.5,0.3-1,0.4-1.5,0.5c-1.1,0.2-2.2-0.1-3.1-0.8
	c-1.8-1.4-2.1-4-0.7-5.8c0,0,0.1-0.1,0.1-0.1c1-1.1,2.2-1.9,3.6-2.4c1.4-0.5,2.8-0.9,4.2-1.3c2.5-0.7,4.9-1.6,7.4-2.4
	c3.1-1,6.4-1.7,9.6-2.6c3.1-0.9,6.2-1.7,9.2-2.7c3.8-1.2,7.7-2,11.5-3c4-1.1,8.1-2,12.2-2.7c3.7-0.6,7.3-1.6,11-2.3
	c2-0.4,4.1-0.8,6.1-1.1c1.8-0.3,3.6-0.7,5.5-1c3.8-0.6,7.7-1.3,11.5-1.7c5.2-0.6,10.4-1.3,15.6-1.5c2.6-0.1,5.1-0.4,7.7-0.5
	c2.7-0.2,5.5-0.2,8.2-0.3c1.6,0,3.2-0.1,4.7-0.1h-0.1l0.4,0h0.2h-0.1c1.3,0,2.6,0,3.9,0C183.8,4.6,186.5,4.6,189.1,4.7L189.1,4.7z
	 M176.4,12.5l-0.3,0C176.2,12.5,176.3,12.5,176.4,12.5z M176.4,4.6l0.3,0L176.4,4.6z"/>
<path class="st0" d="M221.7,11.9c2.6,0.6,5.2,1.3,7.8,2.1c2.3,0.9,4.6,2,6.8,3.2c1,0.4,1.8,1.2,2.2,2.2c0.9,2-0.1,4.4-2.1,5.2
	c0,0,0,0,0,0c-1,0.4-2,0.4-3,0c-1.8-0.9-3.6-1.8-5.4-2.6c-1.7-0.7-3.5-1.3-5.4-1.8c-2-0.5-4-1-6-1.4c-2.5-0.4-5-0.8-7.6-1.2
	c-4.4-0.5-8.9-0.7-13.3-0.7c-3.9,0.2-7.9,0.5-11.8,0.7c-3.9,0.3-7.8,0.4-11.7,0.9c-2.2,0.3-4.2-1.3-4.5-3.5
	c-0.3-2.1,1.2-4.1,3.3-4.4c4.2-0.5,8.5-0.6,12.7-0.9c4.5-0.3,8.9-0.7,13.4-0.7c0.3,0,0.7,0,1,0C206.2,9.1,214,10,221.7,11.9
	L221.7,11.9z"/>
<path class="st0" d="M80.8,22.3c-0.5-1.8-2.1-3-3.9-2.9c-0.3,0-0.7,0-1,0.1c-2.1,0.5-4.1,1-6.2,1.4c-1.5,0.3-3,0.7-4.5,1.3
	c-1.5,0.6-3,1.1-4.6,1.5c-1.5,0.4-3.1,0.7-4.6,1.1c-3.2,1-6.3,2.4-9.5,3.5c-3.7,1.3-7.3,2.8-10.8,4.5c-1.5,0.7-3,1.5-4.5,2.3
	s-3,1.5-4.4,2.3c-1.5,0.8-3,1.6-4.5,2.3c-1.6,0.8-3.1,1.6-4.6,2.5c-1.7,0.9-3.4,1.8-5.1,2.6c-1.9,0.8-3.6,1.7-5.3,2.8
	c-0.6,0.5-1.3,0.9-1.9,1.3c-0.7,0.4-1.4,0.7-2.2,1.1c-0.8,0.3-1.5,0.7-2.2,1.2c-0.3,0.3-0.7,0.5-1,0.8v8c0.4,0.1,0.8,0.2,1.2,0.2
	c0.9,0,1.7-0.3,2.4-0.8c0.4-0.2,0.8-0.5,1.2-0.8c0.2-0.2,0.4-0.4,0.7-0.6c1-0.6,2.1-1.2,3.2-1.6c1.4-0.7,2.6-1.7,4-2.4
	c1-0.5,1.9-1.1,3-1.5c0.9-0.4,1.9-0.8,2.8-1.3c3.1-1.6,6.2-3.3,9.3-4.9c3-1.5,5.9-3.1,8.9-4.6c2.8-1.5,5.7-2.9,8.6-4.1
	c1.5-0.6,3-1.1,4.6-1.6c1.4-0.5,2.7-1,4.1-1.6c1.2-0.5,2.5-1,3.7-1.4s2.5-0.7,3.8-1c1.3-0.3,2.7-0.7,4-1.1c1.2-0.4,2.3-0.9,3.4-1.3
	c1.4-0.4,2.7-0.7,4.1-1c1.7-0.3,3.4-0.8,5.1-1.2C80.1,26.6,81.3,24.4,80.8,22.3z"/>
<path class="st0" d="M136.1,11.7c-0.5-0.1-1.1-0.2-1.6-0.2c-0.6,0-1.2,0-1.8,0c-0.9,0-1.7,0-2.6,0.1c-1.8,0.1-3.7,0.2-5.5,0.2
	c-3.9,0.1-7.7,0.3-11.6,0.7c-3.6,0.4-7.3,0.8-10.9,1.3c-3.6,0.5-7.2,0.7-10.8,1.1c-1.9,0.2-3.7,0.4-5.6,0.5c-1,0.1-2,0.2-3,0.3
	c-1.1,0.1-2.2,0.3-3.3,0.5c-3.3,0.9-6.7,1.7-9.9,2.8c-3.4,1.3-7,2.4-10.5,3.3c-1.6,0.4-3.2,0.7-4.8,1.1c-1.6,0.4-3.2,1-4.8,1.5
	c-1.5,0.4-3.1,0.9-4.6,1.4c-2,0.6-3.9,1.4-5.7,2.4c-1.6,0.8-3.2,1.8-4.7,2.7c-1.9,1-3.7,2-5.6,3.1c-3.6,2-7.4,3.6-11.1,5.3
	c-3.6,1.5-7,3.3-10.2,5.5c-1.6,1.1-3.1,2.4-4.4,3.8c-1.2,1.6-2.3,3.3-3.2,5V71c1-0.6,1.9-1.2,2.9-1.9c1.6-1,3.3-2,5-3
	s3.5-1.8,5.2-2.7c1.7-0.9,3.3-1.8,5-2.8c1.6-1,3.1-2,4.7-2.9c3.4-2.1,6.9-3.9,10.6-5.5c2-0.8,4-1.6,5.9-2.4c1.8-0.8,3.5-1.6,5.3-2.4
	c1.3-0.5,2.5-1,3.8-1.5l-0.2,0.1c3.1-1.3,6.3-2.4,9.4-3.7c3-1.2,6.1-2.4,9.2-3.4c6.4-1.9,13.1-3.2,19.4-5.5c1.9-0.7,3.8-1.5,5.8-2.1
	c1.9-0.6,3.8-1.2,5.7-1.7c3.9-1.1,7.8-2.1,11.7-3.1c3.9-1.1,7.8-2.2,11.7-3.4c2-0.6,4-1.2,6-1.8c1.7-0.5,3.4-0.9,5.1-1.1
	c0.5-0.1,0.9-0.1,1.4-0.1c0.5-0.1,1.1-0.1,1.6-0.2c0.3,0,0.6-0.1,0.9-0.2c1-0.3,1.9-1,2.4-1.9c0.4-0.6,0.5-1.3,0.5-2
	C139,13.7,137.8,12.2,136.1,11.7z M90.5,23.2c-1.9,0.6-3.8,1.3-5.6,2c-2,0.7-4,1.4-6,2c-1.7,0.5-3.5,1-5.2,1.5
	c0-0.8-0.2-1.7-0.7-2.4c0.3-0.1,0.6-0.2,0.9-0.3c1.6-0.4,3.2-0.8,4.8-1.3c1.4-0.4,2.9-0.8,4.4-1.1c2.7-0.3,5.5-0.4,8.2-0.7
	C91,23.1,90.8,23.2,90.5,23.2z"/>
<path class="st0" d="M95.9,197.3c-0.4-1.5-1.6-2.6-3.1-3c-0.8-0.2-1.7-0.3-2.5-0.3c-0.1,0-0.2,0-0.3,0c-0.9,0-1.7,0.1-2.6,0.2
	c-1.2,0.2-2.4,0.3-3.6,0.6c-2,0.4-4,0.9-6,1.5c-1.2,0.3-2.4,0.6-3.6,1c-0.3,0-0.7,0.1-1,0.1c-2.3,0.3-4.5,0.8-6.8,1.3
	c-1.7,0.4-3.3,0.7-5,1c-1.8,0.4-3.7,0.9-5.5,1.4c-1.8,0.5-3.5,1.2-5.3,1.8c-1.8,0.6-3.6,1.1-5.4,1.6c-3.9,1.1-7.8,2.4-11.5,3.9
	c-3.8,1.5-7.6,3.2-11.4,4.9c-3.5,1.6-7,3.3-10.4,5.1s-6.7,3.9-10.1,5.8c-0.7,0.4-1.4,0.7-2.1,1.1v20.8c3.6-2.5,7.2-4.9,10.8-7.4
	c1.6-1.1,3.2-2.2,4.9-3.1c1.7-1,3.5-1.9,5.2-2.7c3.6-1.8,7.3-3.4,11-5.1c3.6-1.7,7.1-3.7,10.5-5.6c3.3-1.8,6.6-3.5,10-5.1
	c0.2-0.1,0.5-0.2,0.7-0.3c1.5-0.6,3.1-1,4.7-1.4c1.9-0.5,3.8-1.1,5.6-1.7c3.6-1.2,7.1-2.6,10.5-4.2c1.8-0.7,3.6-1.4,5.4-2.1
	l-0.9,0.4c3.4-1.4,6.8-2.8,10.3-3.9c0.7-0.2,1.4-0.5,2.1-0.7c0.5-0.1,1-0.2,1.5-0.4c1-0.2,1.8-0.7,2.5-1.4c0.6-0.5,0.9-1.2,1.1-1.9
	C96.1,198.7,96.1,198,95.9,197.3z"/>
<path class="st0" d="M90,195.1L90,195.1L90,195.1L90,195.1L90,195.1z"/>
<path class="st0" d="M52.1,217.1l-0.4,0.2L52.1,217.1z"/>
<path class="st0" d="M531.9,236.9c0.1,0.7-0.4,1.3-1.1,1.4c-1.4,0.1-2.8,0.1-4.1,0.3c-0.6,0.1-1.2,0.2-1.8,0.3
	c-0.6,0.1-1.3,0.3-1.9,0.4c-2.6,0.5-5.1,1.2-7.7,1.6c-0.6,0.1-1.2,0.1-1.8,0.2c-0.7,0.1-1.4,0.1-2.1,0.2c-0.7,0.1-1.3-0.4-1.4-1.1
	c-0.1-0.7,0.4-1.3,1.1-1.4c0.7-0.1,1.4-0.1,2.1-0.2c0.6-0.1,1.3-0.1,1.9-0.2c1.3-0.2,2.5-0.5,3.8-0.7c1.3-0.3,2.6-0.6,3.8-0.9
	c0.6-0.1,1.3-0.3,1.9-0.4c0.6-0.1,1.2-0.2,1.8-0.3c1.3-0.2,2.7-0.2,4-0.3c0,0,0.1,0,0.1,0C531.2,235.8,531.8,236.3,531.9,236.9
	L531.9,236.9z"/>
<path class="st0" d="M532.2,241.6c0.3,0.6-0.1,1.4-0.7,1.6c-1.3,0.6-2.6,1.1-3.9,1.5c-1.3,0.4-2.6,0.6-4,0.8
	c-1.3,0.2-2.5,0.3-3.8,0.5c-1.3,0.2-2.7,0.3-4,0.4c-2.4,0.3-4.9,0.6-7.3,0.9c-1.4,0.2-2.7,0.2-4.1,0.2c-1.3,0-2.6-0.1-3.9-0.1
	c-0.6,0-1.3,0-1.9,0h0.2c-1.7,0-3.3-0.1-5-0.1c-0.5,0-1,0-1.4,0.1c-0.6,0.2-1.3-0.1-1.5-0.7c-0.1-0.3-0.1-0.7,0-1
	c0.1-0.3,0.4-0.6,0.7-0.7c0.3-0.1,0.6-0.1,0.9-0.2c0.1,0,0.3,0,0.5,0c0.2,0,0.5,0,0.8,0c0.6,0,1.2,0,1.8,0c1,0,2,0.1,3,0.1
	c1.3,0,2.5,0,3.8,0c1.2,0,2.3,0.1,3.5,0.1c0.6,0,1.2,0,1.9-0.1s1.2-0.1,1.8-0.2c1.3-0.2,2.6-0.3,3.8-0.5c2.5-0.3,5.1-0.6,7.6-0.9
	c1-0.1,2-0.2,2.9-0.4c0.9-0.1,1.9-0.3,2.8-0.5c1.4-0.4,2.8-1,4.1-1.6c0.1-0.1,0.3-0.1,0.5-0.1C531.6,240.9,532,241.2,532.2,241.6
	L532.2,241.6z"/>
<path class="st0" d="M531.1,250c0.5,0.4,0.6,1.2,0.2,1.8c-0.2,0.3-0.5,0.4-0.8,0.5c-0.7,0-1.4,0-2.1,0s-1.4,0.1-2.1,0.2
	c-1.3,0.1-2.7,0.3-4,0.4c-1.2,0.1-2.5,0.2-3.7,0.3c-0.6,0-1.2,0.1-1.8,0.1s-1.2,0.1-1.8,0.2c-2.6,0.3-5.3,0.4-7.9,0.6
	c-1.3,0.1-2.5,0.1-3.8,0.2c-1.4,0-2.8,0-4.2-0.1c-1.5-0.1-3.1,0-4.6-0.1c-1.4,0-2.8-0.1-4.2-0.1c-1.7,0-3.5-0.1-5.2-0.1
	c-0.2,0-0.3,0-0.5,0c-0.7,0.1-1.3-0.4-1.4-1.1c-0.1-0.7,0.4-1.3,1.1-1.4c0.9-0.1,1.9,0,2.8,0c0.9,0,1.8,0.1,2.6,0.1
	c2.2,0,4.5,0.1,6.7,0.1c2.2,0,4.4,0.1,6.6,0.1c2.5,0,5.1-0.2,7.6-0.4c2.5-0.2,5-0.5,7.5-0.7c1.9-0.1,3.8-0.3,5.7-0.5
	c1.1-0.1,2.2-0.2,3.3-0.3c1-0.1,2-0.1,3-0.1h0C530.5,249.8,530.8,249.9,531.1,250L531.1,250z"/>
<path class="st0" d="M531.4,256.3c0.1,0.7-0.4,1.3-1.1,1.4c-1.4,0.2-2.8,0.4-4.1,0.5c-0.7,0.1-1.3,0.2-2,0.3
	c-0.6,0.1-1.2,0.2-1.7,0.2c-1.3,0.2-2.6,0.4-3.9,0.6c-1.3,0.2-2.5,0.3-3.8,0.5c-1.5,0.2-2.9,0.3-4.4,0.4c-0.8,0.1-1.6,0.1-2.4,0.2
	c-0.7,0-1.5,0-2.2,0c-1.5,0-3,0.1-4.6,0c-1.4,0-2.9-0.1-4.3-0.1c-1.3,0-2.5,0-3.8,0c-1.3,0-2.6-0.1-3.9-0.2
	c-1.3-0.1-2.5-0.1-3.8-0.2c-1.2-0.1-2.5-0.1-3.8-0.3c-0.3,0-0.7-0.1-1-0.2c-0.4-0.1-0.8-0.2-1.2-0.3c-0.6,0-1.2-0.4-1.3-1.1
	c0-0.3,0.1-0.7,0.3-0.9c0.2-0.3,0.5-0.4,0.8-0.5c0.3,0,0.6,0,0.9,0.1c0.1,0,0.2,0.1,0.4,0.1c0.3,0.1,0.6,0.1,0.9,0.2
	c0.6,0.1,1.1,0.1,1.7,0.2c0.6,0,1.3,0.1,1.9,0.1c0.7,0,1.3,0.1,2,0.1c0.6,0,1.2,0.1,1.8,0.1c0.6,0,1.3,0.1,1.9,0.1
	c1.2,0.1,2.4,0.1,3.6,0.2c1.3,0,2.6,0,3.9,0s2.6,0.1,3.8,0.1c1.4,0,2.8,0,4.2,0c2.6,0,5.1-0.2,7.7-0.5c1.3-0.1,2.6-0.3,3.9-0.5
	c1.3-0.2,2.5-0.4,3.8-0.6c0.6-0.1,1.3-0.2,1.9-0.3c0.7-0.1,1.4-0.2,2.1-0.3c1.5-0.2,3-0.4,4.6-0.6c0.1,0,0.1,0,0.2,0
	C530.8,255.2,531.3,255.7,531.4,256.3L531.4,256.3z"/>
<path class="st0" d="M540.1,108.4c0.2,0.6-0.1,1.4-0.7,1.6c-0.7,0.3-1.4,0.7-2.1,0.9c-0.6,0.3-1.3,0.5-1.9,0.8
	c-0.6,0.2-1.2,0.4-1.9,0.6c-0.6,0.2-1.2,0.4-1.7,0.6c-0.6,0.2-1.3,0.5-1.9,0.6c-0.7,0.2-1.3,0.3-2,0.5c-0.6,0.1-1.3,0.2-1.9,0.2
	c-0.7,0-1.3,0.1-2,0.2c-0.6,0.1-1.2,0.2-1.8,0.3c-0.6,0.1-1.2,0.2-1.9,0.3c-1.3,0.2-2.5,0.3-3.8,0.3c-1.2,0.1-2.4,0.3-3.5,0.4
	c-1.2,0.1-2.5,0.3-3.8,0.4c-0.7,0.1-1.3-0.4-1.4-1.1c-0.1-0.7,0.4-1.3,1.1-1.4c0,0,0,0,0,0c1.3-0.1,2.6-0.3,3.9-0.4
	c1.2-0.1,2.4-0.3,3.7-0.4c1.3-0.1,2.6-0.2,3.8-0.4c0.7-0.1,1.3-0.2,2-0.4c0.6-0.1,1.3-0.2,1.9-0.3c0.9-0.1,1.8-0.1,2.7-0.2
	c0.8-0.1,1.5-0.2,2.3-0.4c0.8-0.2,1.5-0.5,2.2-0.8s1.5-0.5,2.2-0.7c0.8-0.2,1.6-0.5,2.4-0.8c0.9-0.3,1.7-0.8,2.6-1.2
	c0.1-0.1,0.3-0.1,0.5-0.1C539.4,107.6,539.9,107.9,540.1,108.4L540.1,108.4z"/>
<path class="st0" d="M540,116.9c0.1,0.7-0.4,1.3-1.1,1.4c-1.4,0.2-2.8,0.4-4.2,0.7c-0.7,0.1-1.3,0.2-2,0.3c-0.6,0.1-1.2,0.1-1.7,0.2
	c-1.2,0.2-2.5,0.5-3.7,0.6c-1.3,0.1-2.7,0.2-4,0.1c-0.2,0-0.4,0-0.5,0h0c-0.3,0-0.7,0-1,0.1c-0.3,0-0.7,0-0.9-0.3
	c-0.5-0.4-0.6-1.2-0.2-1.7c0,0,0,0,0,0c0.2-0.2,0.5-0.4,0.8-0.5c0.5-0.1,1-0.1,1.6-0.1h-0.3c0.6,0,1.2,0,1.8,0
	c1.1,0,2.3-0.1,3.4-0.2c1.1-0.2,2.2-0.4,3.3-0.5c0.6-0.1,1.2-0.1,1.8-0.2c0.6-0.1,1.2-0.2,1.9-0.3c1.3-0.2,2.5-0.4,3.8-0.6
	c0.1,0,0.1,0,0.2,0C539.4,115.8,539.9,116.3,540,116.9L540,116.9z M523,120.2L523,120.2z"/>
<path class="st0" d="M536.4,121.7c0.3,0.2,0.4,0.5,0.5,0.8c0,0.3,0,0.7-0.3,0.9c-0.2,0.2-0.5,0.4-0.8,0.5c-1,0.2-2,0.5-3,0.7
	c-0.8,0.2-1.7,0.2-2.5,0.3s-1.7,0.2-2.5,0.2c-1,0.1-2,0.2-3,0.1c-0.3,0-0.6-0.2-0.8-0.5c-0.2-0.3-0.3-0.6-0.2-0.9
	c0-0.3,0.2-0.6,0.5-0.8c0.3-0.2,0.6-0.3,0.9-0.2h0c0.8,0,1.6-0.1,2.4-0.2c0.8-0.1,1.7-0.1,2.5-0.2c0.8-0.1,1.6-0.2,2.4-0.3
	c1-0.2,2-0.4,3-0.7c0.1,0,0.1,0,0.2,0C535.9,121.5,536.1,121.6,536.4,121.7L536.4,121.7z"/>
<path class="st0" d="M528.7,169.5c0.3,0,0.6,0.2,0.8,0.5c0.4,0.6,0.3,1.3-0.3,1.7c0,0,0,0,0,0c-0.3,0.2-0.6,0.3-0.9,0.2l-1.4,0
	c-2.5,0-5,0.1-7.5,0.2c-1.3,0.1-2.6,0.2-3.9,0.3c-0.6,0.1-1.3,0.1-1.9,0.2c-0.7,0.1-1.3,0.1-2,0.1c-0.6,0-1.3,0-1.9,0.1
	c-0.3,0-0.7,0-0.9-0.3c-0.5-0.4-0.6-1.2-0.2-1.8c0.2-0.2,0.5-0.4,0.8-0.5c0.4-0.1,0.7-0.1,1.1-0.1c0.3,0,0.7,0,1-0.1
	c0.6,0,1.3-0.1,1.9-0.1c1.2-0.1,2.5-0.3,3.7-0.4c1.3-0.1,2.6-0.1,3.9-0.2s2.6-0.1,3.9-0.1c0.5,0,1,0,1.6,0
	C527.4,169.5,528.1,169.5,528.7,169.5L528.7,169.5z"/>
<path class="st0" d="M525,176.4c0.8,0,1.6,0,2.4,0.1c0.9,0,1.8,0.1,2.7,0.2c0.7,0.1,1.2,0.7,1.1,1.4c-0.1,0.7-0.7,1.2-1.4,1.1
	c-1.3-0.1-2.6-0.2-3.9-0.2c-1.1,0-2.2,0-3.3,0c-5.3,0.1-10.6,0.5-15.9,0.7c-0.9,0-1.7,0.1-2.6,0.1c-1,0-2,0-3,0
	c-1.7,0-3.4-0.1-5.1-0.1c-0.6,0-1.1,0-1.7,0.1c-0.7,0.1-1.3-0.4-1.4-1.1c-0.1-0.7,0.4-1.3,1.1-1.4c0.5-0.1,1-0.1,1.4-0.1
	c0.5,0,0.9,0,1.4,0c0.8,0,1.6,0,2.4,0c1.5,0,3.1,0.1,4.6,0.1c2.7,0,5.3-0.2,8-0.4s5.3-0.3,7.9-0.4c1.2,0,2.3-0.1,3.5-0.1
	C523.8,176.4,524.4,176.4,525,176.4L525,176.4z"/>
<path class="st0" d="M530.9,183.8c0.5,0.4,0.6,1.2,0.2,1.8c-0.2,0.2-0.5,0.4-0.8,0.5c-1.4,0.3-2.7,0.6-4.1,0.8
	c-0.6,0.1-1.3,0.2-1.9,0.2c-0.6,0.1-1.2,0.2-1.9,0.3c-2.7,0.3-5.4,0.3-8.1,0.1c-0.5,0-1-0.1-1.5-0.1c-0.3,0-0.6-0.2-0.8-0.5
	c-0.4-0.6-0.3-1.3,0.3-1.7c0,0,0,0,0,0c0.3-0.2,0.6-0.3,0.9-0.2c1,0,2.1,0.1,3.1,0.2c0.9,0,1.7,0.1,2.6,0.1c0.9,0,1.8-0.1,2.7-0.2
	c0.4,0,0.9-0.1,1.3-0.2c0.5-0.1,1-0.1,1.5-0.2c0.9-0.1,1.8-0.2,2.6-0.4c1-0.2,2-0.4,2.9-0.6c0.1,0,0.1,0,0.2,0
	C530.4,183.5,530.7,183.6,530.9,183.8L530.9,183.8z"/>
<path class="st0" d="M411.6,43.7c1.3,0.7,2.6,1.5,3.8,2.2c0.7,0.4,1.3,0.7,2,1.1l-0.1,0c0.5,0.3,1.1,0.6,1.6,0.9l0,0
	c1.1,0.6,2.1,1.3,3.2,1.9c0.5,0.3,1.1,0.6,1.6,0.9c0.6,0.3,1.2,0.6,1.8,0.9c1.1,0.6,2.3,1.1,3.5,1.6c2.4,1,4.8,2,7.2,3
	c2.4,1,4.9,2.1,7.4,3.1c2.4,1,4.8,2,7.3,2.9c0.6,0.2,1.2,0.4,1.9,0.6c0.6,0.2,1.3,0.5,1.9,0.7c1.2,0.5,2.4,1,3.6,1.5
	c2.5,1,5.1,1.9,7.7,2.8c1.2,0.5,2.4,0.9,3.6,1.4c1.3,0.5,2.6,1,3.9,1.4c1.2,0.4,2.5,0.8,3.7,1.2s2.5,0.8,3.8,1.1
	c2.5,0.8,5,1.7,7.4,2.6c2.5,0.9,4.8,1.9,7.3,2.8c1.3,0.5,2.6,0.9,3.9,1.3c1.2,0.4,2.5,0.8,3.7,1.2c1.2,0.3,2.3,0.6,3.5,0.9
	c1.3,0.3,2.5,0.4,3.8,0.7c1.3,0.3,2.6,0.6,3.9,1c1.3,0.3,2.6,0.7,3.9,0.9c0.7,0.1,1.3,0.2,2,0.3s1.3,0.2,1.9,0.4
	c1.5,0.4,3,0.8,4.4,1.3c0.3,0.1,0.6,0.4,0.7,0.7c0.3,0.6,0,1.4-0.7,1.6c-0.3,0.1-0.6,0.1-1,0c-0.9-0.3-1.8-0.6-2.7-0.8
	c-0.5-0.1-1.1-0.3-1.6-0.4c-0.6-0.1-1.2-0.2-1.8-0.3c-0.6-0.1-1.3-0.2-1.9-0.3s-1.2-0.3-1.9-0.4c-2.6-0.6-5.1-1.4-7.7-1.8
	c-0.6-0.1-1.3-0.2-1.9-0.4c-0.6-0.1-1.2-0.3-1.8-0.4c-1.3-0.3-2.7-0.7-4-1.1s-2.6-0.8-4-1.2c-1.3-0.4-2.5-0.9-3.8-1.4
	c-1.2-0.5-2.4-1-3.7-1.5c-1.2-0.5-2.4-0.8-3.6-1.3c-1.2-0.5-2.5-0.9-3.7-1.4c-0.6-0.2-1.2-0.4-1.9-0.6c-0.7-0.2-1.3-0.4-2-0.6
	c-1.2-0.4-2.4-0.8-3.6-1.2c-1.3-0.4-2.6-0.8-3.9-1.3c-1.2-0.4-2.5-0.9-3.7-1.4c-1.3-0.5-2.6-1-4-1.5c-2.4-0.9-4.9-1.8-7.3-2.8
	c-1.2-0.5-2.5-1.1-3.7-1.5c-1.2-0.4-2.4-0.8-3.6-1.3c-2.5-0.9-4.9-1.9-7.3-3c-2.5-1-5-2.1-7.5-3.1c-2.4-1-4.7-2-7.1-3
	c-1.2-0.5-2.3-1.1-3.5-1.7c-1.2-0.7-2.4-1.4-3.6-2.1l-0.1-0.1l0.1,0c-0.9-0.5-1.8-1-2.7-1.6l0.1,0l-0.1,0l-0.1-0.1l0,0l-0.1-0.1
	l0.1,0.1l0,0c-0.7-0.4-1.5-0.8-2.2-1.3c-0.6-0.4-1.2-0.8-1.8-1.1c-0.5-0.3-1-0.6-1.5-0.9c-0.3-0.1-0.5-0.4-0.7-0.7
	c-0.3-0.6,0-1.4,0.7-1.6c0.2-0.1,0.3-0.1,0.5-0.1C411.3,43.6,411.4,43.6,411.6,43.7L411.6,43.7z M416.2,49.3L416.2,49.3L416.2,49.3
	L416.2,49.3L416.2,49.3z M416.2,49.3L416.2,49.3L416.2,49.3L416.2,49.3L416.2,49.3z M416.2,49.3l0.2,0.1L416.2,49.3L416.2,49.3
	L416.2,49.3z M416.2,49.3L416.2,49.3L416.2,49.3L416.2,49.3z"/>
<path class="st0" d="M410.2,51.9c0.8,0.3,1.5,0.6,2.2,1c0.6,0.3,1.1,0.6,1.7,0.9c1.1,0.6,2.3,1.3,3.5,1.8c1.2,0.6,2.5,1.2,3.7,1.7
	c1.2,0.6,2.3,1.1,3.5,1.6c1.2,0.5,2.4,0.9,3.6,1.3c1.3,0.4,2.5,0.9,3.7,1.4s2.5,1,3.7,1.4c1.2,0.4,2.4,0.8,3.6,1.3
	c1.2,0.5,2.4,0.9,3.6,1.4s2.4,0.9,3.6,1.3c1.3,0.4,2.5,1,3.7,1.5c1.2,0.5,2.4,1,3.6,1.4s2.5,0.7,3.7,1.1c0.6,0.2,1.2,0.4,1.9,0.6
	c0.6,0.2,1.2,0.4,1.7,0.6c1.2,0.5,2.5,0.9,3.7,1.3c0.6,0.2,1.2,0.4,1.9,0.6c0.6,0.2,1.2,0.5,1.8,0.7c1,0.4,2,0.7,3,1s2,0.8,2.9,1.1
	c1.9,0.8,3.9,1.5,5.9,2.1c0.7,0.2,1.3,0.4,2,0.5c0.6,0.2,1.2,0.4,1.8,0.6c1.3,0.4,2.5,1,3.8,1.5c1.2,0.5,2.3,0.9,3.5,1.3
	c1.2,0.4,2.5,0.8,3.8,1.2c1.2,0.4,2.3,0.8,3.5,1.1c1.2,0.4,2.5,0.8,3.7,1.1c2.6,0.7,5.1,1.6,7.6,2.4c0.6,0.3,0.9,1,0.7,1.6
	c-0.1,0.3-0.4,0.5-0.7,0.7c-0.3,0.1-0.7,0.1-1,0c-1.3-0.4-2.7-0.9-4-1.3c-1.3-0.4-2.6-0.8-3.9-1.2c-0.7-0.2-1.4-0.4-2.1-0.6
	c-0.6-0.2-1.2-0.4-1.8-0.5c-1.3-0.4-2.5-0.8-3.8-1.3c-1.1-0.3-2.1-0.6-3.2-1s-2.1-0.8-3.1-1.2c-1.1-0.4-2.2-0.9-3.2-1.3
	c-1-0.4-2-0.7-3-1c-1.2-0.3-2.5-0.7-3.7-1.1s-2.4-0.9-3.6-1.4s-2.4-1-3.6-1.4s-2.4-0.8-3.6-1.3c-1.2-0.5-2.5-0.9-3.8-1.3
	c-1.2-0.4-2.4-0.9-3.6-1.3c-1.2-0.4-2.4-0.8-3.6-1.1c-1.3-0.4-2.5-0.8-3.8-1.2c-1.3-0.5-2.5-1-3.7-1.5c-0.6-0.3-1.2-0.5-1.9-0.8
	c-0.6-0.2-1.2-0.4-1.8-0.6c-1.2-0.4-2.4-0.8-3.6-1.3c-1.2-0.4-2.3-0.9-3.5-1.3c-1.3-0.4-2.6-0.9-3.8-1.3c-1.2-0.5-2.4-1-3.6-1.4
	c-2.4-1-4.9-1.6-7.2-2.7c-1.1-0.5-2.2-1-3.3-1.5c-1.1-0.5-2.2-1-3.3-1.6c-1-0.5-2.1-1.1-3.1-1.6c-0.5-0.3-1.1-0.6-1.6-0.9
	c-0.6-0.4-1.3-0.7-2-0.9c-0.3-0.1-0.6-0.4-0.7-0.7c-0.3-0.6,0-1.4,0.7-1.6c0,0,0,0,0,0c0.1-0.1,0.3-0.1,0.4-0.1
	C409.8,51.8,410,51.9,410.2,51.9L410.2,51.9z"/>
<path class="st0" d="M408.8,57.1c1.2,0.6,2.4,1.2,3.6,1.8c1.1,0.6,2.3,1.1,3.5,1.6c2.5,1.1,5,2.1,7.4,3.2c2.4,1.1,4.9,2.1,7.3,3.3
	c1.2,0.6,2.3,1.2,3.5,1.8c1.2,0.6,2.4,1.1,3.6,1.7c1.2,0.6,2.3,1.2,3.5,1.7c1.1,0.5,2.3,1,3.5,1.5c2.4,1,4.9,2,7.4,2.8
	c1.3,0.4,2.5,0.8,3.8,1.3c1.2,0.4,2.4,0.8,3.6,1.2s2.4,0.9,3.6,1.3c1.3,0.4,2.6,0.9,3.8,1.4c1.8,0.7,3.6,1.3,5.5,1.9
	c0.9,0.2,1.8,0.5,2.7,0.7c1.1,0.3,2.3,0.6,3.4,0.9l0,0l0.4,0.1l-0.1,0l0.8,0.2h0l-0.1,0l0.1,0c0.1,0,0.1,0,0.2,0.1l0.3,0.1
	c0.3,0.1,0.7,0.2,1,0.3c0.4,0.1,0.8,0.2,1.2,0.3c-0.1,0-0.2-0.1-0.3-0.1c0.8,0.2,1.7,0.5,2.5,0.7c0.7,0.2,1.4,0.5,2.1,0.7
	c0.7,0.2,1.5,0.4,2.2,0.7c0.8,0.3,1.5,0.6,2.3,0.9c0.6,0.3,0.9,1,0.7,1.6c-0.3,0.6-1,0.9-1.6,0.7c-0.7-0.3-1.4-0.5-2.2-0.8
	c-0.6-0.2-1.3-0.4-2-0.6c-0.7-0.2-1.3-0.4-1.9-0.6s-1.3-0.4-1.9-0.6c-0.8-0.2-1.6-0.4-2.4-0.7h0c0,0-0.1,0-0.1,0
	c-0.2,0-0.4-0.1-0.6-0.2c-0.3-0.1-0.6-0.1-0.8-0.2c0.1,0,0.2,0.1,0.3,0.1c-0.5-0.1-0.9-0.3-1.4-0.4c-1.3-0.3-2.6-0.6-3.8-1
	c-1.2-0.3-2.4-0.6-3.6-1c-1.3-0.4-2.6-0.9-3.9-1.4c-1.2-0.5-2.4-0.9-3.6-1.3c-1.3-0.5-2.5-0.9-3.8-1.3c-1.2-0.4-2.4-0.8-3.6-1.2
	c-1.3-0.5-2.6-0.9-3.8-1.3c-2.4-0.8-4.8-1.8-7.2-2.7c-1.2-0.5-2.5-1-3.7-1.5c-1.2-0.5-2.3-1.1-3.5-1.7s-2.4-1.1-3.5-1.6
	c-1.2-0.6-2.4-1.3-3.7-1.9c-2.4-1.1-4.8-2.2-7.2-3.2c-2.4-1-4.9-2.1-7.4-3.1c-1.2-0.5-2.3-1-3.4-1.6c-1.2-0.6-2.3-1.2-3.5-1.7
	c-0.6-0.3-0.9-1-0.7-1.6c0.2-0.5,0.7-0.8,1.2-0.8C408.5,57,408.7,57,408.8,57.1L408.8,57.1z M475.2,84.1l0.1,0L475.2,84.1z
	 M478.1,84.8L478.1,84.8L478.1,84.8z M478.7,87.6l0.2,0h0L478.7,87.6L478.7,87.6z"/>
<path class="st0" d="M411.8,64.5c0.6,0.3,1.2,0.7,1.8,1c0.6,0.3,1.2,0.5,1.7,0.8c1.2,0.6,2.3,1.1,3.5,1.7s2.3,1.2,3.5,1.8
	s2.3,1.2,3.5,1.7c1.2,0.5,2.3,1,3.5,1.5c1.1,0.5,2.2,1,3.3,1.5c1.2,0.6,2.4,1.2,3.6,1.8s2.4,1.1,3.7,1.6c2.4,1,4.9,2,7.4,3
	c1.2,0.4,2.4,0.8,3.6,1.2c0.6,0.2,1.2,0.4,1.7,0.7c0.6,0.2,1.3,0.5,1.9,0.7l0.4,0.1c0.6,0.3,0.9,1.1,0.6,1.7
	c-0.3,0.6-0.9,0.8-1.5,0.6c-1.3-0.5-2.6-1-3.9-1.5c-1.2-0.4-2.4-0.8-3.6-1.2c-2.4-0.9-4.8-1.9-7.2-2.9c-1.2-0.5-2.5-1-3.7-1.6
	c-1.2-0.6-2.5-1.2-3.7-1.8c-1.1-0.6-2.3-1.1-3.5-1.6c-1.1-0.5-2.3-1-3.4-1.5c-1.2-0.6-2.3-1.2-3.5-1.7c-1.2-0.6-2.4-1.2-3.6-1.8
	c-1.1-0.6-2.3-1.2-3.4-1.7c-0.6-0.3-1.1-0.5-1.7-0.8c-0.6-0.3-1.1-0.6-1.7-0.9c-0.1-0.1-0.2-0.1-0.3-0.2c-0.3-0.1-0.5-0.4-0.7-0.7
	c-0.3-0.6,0-1.4,0.7-1.6c0.2-0.1,0.3-0.1,0.5-0.1C411.5,64.3,411.7,64.4,411.8,64.5L411.8,64.5z"/>
<path class="st0" d="M689.9,34.5c0.4,0.6,0.2,1.3-0.3,1.7c-1.6,1.1-3.3,2.1-5.1,3.1c-0.9,0.5-1.9,0.9-2.8,1.3
	c-0.8,0.4-1.7,0.8-2.5,1.2c0.1,0,0.2-0.1,0.3-0.1c-0.1,0.1-0.3,0.1-0.4,0.2l0,0c-0.3,0.1-0.6,0.3-0.8,0.4l0.1,0l-0.2,0.1l-0.1,0l0,0
	c-0.9,0.5-1.8,0.9-2.7,1.3c-0.4,0.2-0.7,0.4-1.1,0.6h0h0l-0.1,0.1l0,0l-0.4,0.2l0.1,0c-0.6,0.3-1.1,0.5-1.7,0.8
	c-0.6,0.3-1.2,0.5-1.9,0.7c-1.2,0.4-2.4,0.8-3.7,1.2c-1.3,0.4-2.6,0.7-3.9,1.1c-1.2,0.3-2.4,0.6-3.6,0.9c-1.7,0.4-3.5,0.8-5.2,1.2
	c-1.8,0.4-3.6,0.8-5.5,1.1c-0.8,0.2-1.6,0.4-2.4,0.5c-0.9,0.2-1.9,0.4-2.8,0.5c-1.7,0.3-3.5,0.6-5.2,1c-2.7,0.6-5.3,1.1-8,1.6
	c-0.7,0.1-1.3,0.2-2,0.3c-0.7,0.1-1.3,0.1-2,0.2c-1.4,0.1-2.8,0.2-4.1,0.2c-1.4,0.1-2.8,0.1-4.3,0.2c-0.7,0-1.4,0.1-2.1,0.2
	c-0.7,0.1-1.5,0.1-2.2,0.2l0,0c-0.3,0.1-0.7,0.1-1-0.1c-0.6-0.3-0.9-1.1-0.6-1.7c0.1-0.3,0.4-0.5,0.7-0.6c0.8-0.2,1.7-0.3,2.6-0.3
	c0.7-0.1,1.4-0.1,2-0.2c1.3-0.1,2.6-0.2,3.9-0.2c1.3-0.1,2.7-0.1,4-0.2c1.4-0.1,2.7-0.2,4-0.4c2.4-0.4,4.7-0.9,7.1-1.3
	c1.6-0.3,3.2-0.7,4.7-1c1.5-0.3,3-0.5,4.5-0.8c2-0.4,4-0.8,6.1-1.3c1.2-0.3,2.5-0.6,3.7-0.8s2.5-0.5,3.7-0.9s2.5-0.6,3.7-0.9
	c1.3-0.3,2.6-0.7,3.9-1.1c1-0.3,2-0.6,3-1c0.5-0.2,1.1-0.4,1.6-0.6c0.5-0.2,1-0.4,1.5-0.7l-0.1,0.1c0.2-0.1,0.4-0.2,0.6-0.3
	l-0.1,0.1l0.4-0.2l-0.2,0.1c1-0.5,2-1,2.9-1.5c-0.1,0-0.2,0.1-0.3,0.1c0.7-0.3,1.3-0.7,2-1l0,0l0.3-0.2l0,0c1.8-0.9,3.5-1.7,5.3-2.5
	c1.7-0.9,3.3-1.9,4.8-2.9c0.2-0.1,0.5-0.2,0.7-0.2C689.3,34,689.7,34.2,689.9,34.5L689.9,34.5z M683.3,37.1c-0.1,0-0.2,0.1-0.2,0.1
	L683.3,37.1z M674.3,44.2L674.3,44.2L674.3,44.2z M636,51.4L636,51.4L636,51.4z M674.2,44.3L674.2,44.3L674.2,44.3z M678.1,42.4
	L678.1,42.4l0.2-0.1C678.2,42.3,678.1,42.3,678.1,42.4L678.1,42.4z M672.8,42.2L672.8,42.2L672.8,42.2z M673.3,42l0.1-0.1L673.3,42z
	 M678.8,42l0.3-0.1C679,41.9,678.9,42,678.8,42z M677.8,39.7c0,0,0.1,0,0.1-0.1L677.8,39.7z M678,39.6c0.1,0,0.2-0.1,0.2-0.1
	L678,39.6z"/>
<path class="st0" d="M687.7,39.8c0.4,0.6,0.2,1.3-0.3,1.7c-1.1,0.8-2.2,1.6-3.3,2.3c-0.5,0.3-1,0.6-1.5,0.9
	c-0.6,0.3-1.1,0.6-1.7,0.9l0.1,0l-0.1,0l-0.2,0.1c0,0,0.1,0,0.1-0.1c-1.2,0.6-2.4,1.1-3.6,1.6s-2.4,1-3.7,1.4
	c-1.2,0.4-2.4,0.8-3.6,1.2s-2.4,0.9-3.6,1.3c-2.5,0.9-5,1.6-7.5,2.3c-1.3,0.4-2.5,0.7-3.8,1.1c-1.2,0.4-2.4,0.7-3.6,1.1
	c-1.3,0.4-2.6,0.8-3.8,1.2c-1.2,0.4-2.4,0.8-3.6,1.1c-1.2,0.4-2.4,0.8-3.7,1.1s-2.5,0.5-3.7,0.9l-0.1,0c-0.3,0.1-0.7,0.1-1-0.1
	c-0.6-0.3-0.9-1.1-0.6-1.7c0.1-0.3,0.4-0.5,0.7-0.6c1.2-0.3,2.5-0.5,3.8-0.9s2.5-0.7,3.7-1.1c1.2-0.4,2.4-0.8,3.6-1.2
	c1.3-0.4,2.5-0.9,3.8-1.2c1.2-0.4,2.4-0.7,3.6-1.1c1.3-0.4,2.5-0.7,3.8-1.1c2.5-0.7,5-1.4,7.5-2.3c1.1-0.4,2.3-0.9,3.4-1.3
	c1.2-0.4,2.4-0.8,3.5-1.2c1.2-0.4,2.4-0.9,3.6-1.4c1.1-0.5,2.3-0.9,3.4-1.5l0.2-0.1l0,0c1-0.6,2.1-1.1,3.1-1.8
	c1.1-0.7,2.2-1.5,3.3-2.3c0.2-0.1,0.4-0.2,0.7-0.2C687.1,39.2,687.5,39.4,687.7,39.8L687.7,39.8z M679.9,43.3l-0.1,0.1L679.9,43.3z
	 M679.4,43.6l-0.2,0.1L679.4,43.6z"/>
<path class="st0" d="M686.7,37.2c0,0.7-0.5,1.3-1.2,1.3c-1.2,0.2-2.4,0.3-3.6,0.6c-2.1,0.5-4.1,1.2-6.2,1.7c-2.1,0.5-4.2,1-6.4,1.4
	c0.1,0,0.2,0,0.3-0.1c-1.4,0.3-2.8,0.6-4.1,0.8c-1.3,0.2-2.6,0.4-3.9,0.5c-2.6,0.3-5.2,0.4-7.8,0.9l-1.3,0.2l-0.5,0.1l0.1,0
	l-0.6,0.1l0,0c-1.4,0.3-2.8,0.6-4.2,0.8c-1.3,0.2-2.6,0.3-3.9,0.4c-2.7,0.3-5.4,0.6-8.1,0.6c-0.2,0-0.3,0-0.5,0c-0.7,0-1.4,0-2,0.1
	c-0.7,0-1.3-0.5-1.3-1.2c0-0.3,0.1-0.7,0.3-0.9c0.2-0.2,0.5-0.4,0.8-0.4c0.7-0.1,1.4-0.1,2.1-0.1c0.7,0,1.3,0,2,0
	c1.3-0.1,2.6-0.2,3.9-0.3c2.7-0.3,5.3-0.5,8-1c0.8-0.1,1.6-0.3,2.3-0.4l-0.1,0l0.3-0.1l0,0l0,0l0.3-0.1l0,0l0.1,0l-0.1,0l-0.1,0l0,0
	c1.4-0.3,2.7-0.5,4.1-0.7c1.3-0.2,2.6-0.3,3.9-0.4s2.6-0.2,3.9-0.4s2.6-0.4,3.9-0.7c0.2,0,0.4-0.1,0.5-0.1c-0.1,0-0.1,0-0.2,0
	c0.9-0.2,1.8-0.4,2.7-0.6l-0.2,0l0.2,0l0.1,0l-0.1,0c2.3-0.5,4.6-1,6.9-1.7c1.2-0.3,2.4-0.7,3.7-1c1.4-0.3,2.9-0.6,4.3-0.7
	c0,0,0.1,0,0.1,0C686.2,36.1,686.7,36.6,686.7,37.2L686.7,37.2z M653,44.5l-0.3,0.1C652.8,44.6,652.9,44.6,653,44.5z M651.4,44.9
	l0.3-0.1C651.6,44.8,651.5,44.9,651.4,44.9z M652,44.8l0.2,0L652,44.8z M651.5,42.3L651.5,42.3L651.5,42.3l0.2,0L651.5,42.3
	L651.5,42.3z M651.6,42.3L651.6,42.3L651.6,42.3z M651.6,42.3L651.6,42.3L651.6,42.3L651.6,42.3L651.6,42.3z M670.4,39.5L670.4,39.5
	L670.4,39.5L670.4,39.5z"/>
<path class="st0" d="M676.5,50.7c0.1,0.3,0.1,0.7-0.1,1c-0.2,0.3-0.4,0.5-0.7,0.6c-1.8,0.8-3.6,1.5-5.4,2.3c-0.5,0.3-1,0.6-1.5,0.8
	c-0.6,0.3-1.2,0.7-1.8,1c-0.6,0.3-1.1,0.6-1.7,0.8c-0.6,0.3-1.2,0.5-1.8,0.7c-1.2,0.5-2.4,0.9-3.6,1.3s-2.4,0.9-3.6,1.4
	c-1.2,0.5-2.4,0.9-3.6,1.4c-1.1,0.5-2.3,0.9-3.4,1.3c-1.2,0.4-2.4,0.7-3.6,1.1c-2.5,0.7-5,1.5-7.5,2c-1.7,0.4-3.5,0.7-5.2,1
	c-0.8,0.1-1.6,0.2-2.3,0.4s-1.6,0.2-2.3,0.3c-0.2,0.1-0.5,0.1-0.7,0.2c-0.7,0.2-1.4-0.1-1.6-0.8c-0.2-0.7,0.1-1.4,0.8-1.6
	c0.5-0.1,1.1-0.3,1.6-0.4c0.4-0.1,0.8-0.1,1.2-0.2c0.9-0.1,1.7-0.2,2.6-0.4c1.6-0.2,3.2-0.6,4.8-0.9c2.5-0.5,5-1.2,7.4-2
	c1.2-0.4,2.4-0.7,3.6-1.1s2.3-0.9,3.5-1.3c2.2-0.9,4.5-1.8,6.8-2.6s4.6-1.5,6.7-2.6c0.5-0.3,1.1-0.6,1.6-0.8l-0.3,0.1
	c0.6-0.3,1.2-0.7,1.9-1c0.7-0.4,1.5-0.8,2.2-1.1c0.7-0.3,1.3-0.5,2-0.8c0.8-0.3,1.7-0.7,2.5-1.1c0.1-0.1,0.3-0.1,0.4-0.1
	C675.8,49.8,676.3,50.2,676.5,50.7L676.5,50.7z M665.2,54.5l-0.1,0.1L665.2,54.5z M667.2,56.3l-0.2,0.1L667.2,56.3z"/>
<path class="st0" d="M637.3,114.7c0.6,0,1.1,0.1,1.7,0.2c1.1,0.1,2.1,0.2,3.2,0.3c1.1,0.1,2.2,0.2,3.3,0.4c1.1,0.1,2.1,0.2,3.2,0.3
	l0.1,0h0l0.1,0l0.5,0h-0.1c1.1,0.1,2.2,0.1,3.2,0.2c1.1,0.1,2.2,0.2,3.3,0.3c1,0.1,2.1,0.2,3.1,0.4c1.1,0.2,2.2,0.4,3.4,0.6
	c0.7,0.1,1.1,0.8,1,1.5s-0.8,1.1-1.5,1l0,0c-1-0.2-2.1-0.4-3.1-0.6c-1-0.2-2-0.3-3-0.4c-1-0.1-1.9-0.2-2.9-0.3
	c-0.9-0.1-1.9-0.2-2.8-0.2c-0.3,0-0.6,0-0.9-0.1h0.1l-0.4,0l0.1,0l-0.2,0l-0.2,0h0.1c-1-0.1-2-0.2-3.1-0.3c-1-0.1-1.9-0.2-2.9-0.4
	l-3.2-0.3c-0.9-0.1-1.9-0.2-2.8-0.3c-0.5,0-0.9,0-1.4,0.1c-0.3,0-0.7-0.1-0.9-0.3c-0.2-0.2-0.4-0.5-0.4-0.8c0-0.3,0.1-0.7,0.3-0.9
	c0.2-0.2,0.5-0.4,0.8-0.4c0.3-0.1,0.7-0.1,1-0.1C636.4,114.6,636.9,114.6,637.3,114.7L637.3,114.7z M648.6,115.9L648.6,115.9
	L648.6,115.9z M648.7,115.9L648.7,115.9z M650,118.4l0.2,0L650,118.4z M649.5,115.9l-0.2,0C649.4,115.9,649.5,115.9,649.5,115.9z
	 M649,115.9l-0.1,0h-0.1L649,115.9L649,115.9z"/>
<path class="st0" d="M631.7,119.2c1,0.2,2,0.3,3,0.5c1.9,0.3,3.8,0.5,5.8,0.7c1.3,0.1,2.6,0.1,3.9,0.2c1.4,0.1,2.8,0.2,4.1,0.3
	c2.6,0.2,5.2,0.6,7.8,1c2.3,0.4,4.7,0.7,7,1c2.5,0.3,5,0.7,7.5,1c0.7,0.1,1.1,0.8,1,1.5c-0.1,0.3-0.3,0.6-0.5,0.8
	c-0.3,0.2-0.6,0.2-0.9,0.2c-1.4-0.2-2.9-0.3-4.3-0.6c-1.3-0.2-2.6-0.3-3.9-0.5c-1.4-0.2-2.7-0.4-4.1-0.6c-1.3-0.2-2.6-0.4-3.9-0.6
	c-1.7-0.2-3.4-0.5-5.1-0.6c-1.8-0.2-3.5-0.3-5.3-0.4c-1.3-0.1-2.6-0.1-3.9-0.2c-1.2-0.1-2.5-0.2-3.7-0.4c-1.2-0.2-2.5-0.3-3.7-0.5
	c-1.2-0.2-2.4-0.4-3.6-0.5c-0.2,0-0.3,0-0.5,0c-0.7,0-1.3-0.5-1.3-1.2c0-0.7,0.5-1.2,1.1-1.3h0.1C629.5,118.9,630.6,119,631.7,119.2
	L631.7,119.2z M643.7,123c0.1,0,0.2,0,0.2,0L643.7,123z"/>
<path class="st0" d="M626.8,124.8c0.5,0,1.1,0.1,1.6,0.1c0,0-0.1,0-0.1,0l0.3,0l0,0c1.3,0.1,2.5,0.1,3.8,0.3c1.3,0.2,2.7,0.3,4,0.6
	c2.6,0.5,5.3,0.9,7.9,1.3c2.6,0.3,5.2,0.6,7.8,0.8c1.3,0.1,2.6,0.2,3.9,0.3c1.2,0.1,2.4,0.2,3.6,0.3c0,0-0.1,0-0.1,0l0.2,0l0.2,0
	l-0.2,0c2.4,0.1,4.9,0.3,7.3,0.5c2.5,0.2,5.1,0.5,7.6,0.7l-0.3,0c0.7,0,1.5,0.1,2.3,0.1c1.7,0.1,3.3,0.1,5,0.1
	c1.9,0,3.7,0.1,5.6,0.2c0.3,0,0.7,0.1,0.9,0.3c0.5,0.5,0.6,1.2,0.1,1.8c0,0,0,0,0,0c-0.2,0.2-0.5,0.4-0.8,0.4c-1,0-2.1-0.1-3.1-0.2
	c-1,0-1.9,0-2.9,0c-2,0-4.1-0.1-6.1-0.2h0c-1.1-0.1-2.3-0.1-3.4-0.2c-1.1-0.1-2.2-0.2-3.4-0.3c-2.2-0.2-4.5-0.4-6.7-0.5
	c-2.7-0.1-5.3-0.3-8-0.5c-1.4-0.1-2.8-0.3-4.2-0.4c-1.4-0.1-2.8-0.3-4.2-0.4c-2.7-0.3-5.3-0.7-7.9-1.2c-1.3-0.2-2.6-0.4-3.9-0.6
	c-1.4-0.2-2.7-0.3-4.1-0.4c-0.2,0-0.3,0-0.5,0h0.1l-0.3,0l0,0c-0.5,0-1-0.1-1.5-0.1l-0.3,0c-0.3,0-0.7-0.1-0.9-0.3
	c-0.5-0.5-0.6-1.2-0.1-1.8c0,0,0,0,0,0C626.2,125,626.5,124.8,626.8,124.8L626.8,124.8z M659.7,128.5L659.7,128.5L659.7,128.5
	L659.7,128.5z M628.8,127.4l0.2,0L628.8,127.4L628.8,127.4z M628.6,124.9L628.6,124.9l-0.2,0L628.6,124.9L628.6,124.9z"/>
<path class="st0" d="M625.6,131.3l1,0.1c0.6,0.1,1.3,0.1,1.9,0.2c1.3,0.1,2.6,0.3,3.9,0.4c1.3,0.2,2.7,0.4,4,0.5
	c1.3,0.2,2.6,0.3,4,0.4c1.4,0.1,2.7,0.4,4.1,0.5s2.7,0.4,4,0.7c2.7,0.5,5.4,0.9,8.1,1.2c1,0.1,2.1,0.2,3.1,0.3
	c1.3,0.1,2.7,0.1,4,0.2c1.4,0.1,2.7,0.1,4.1,0.1c1.3,0,2.7,0,4,0s2.7,0.1,4,0.1c2.6,0.1,5.2,0.2,7.8,0.3c1.3,0.1,2.7,0.1,4,0.1
	c1.4-0.1,2.8-0.2,4.2-0.4c0.7-0.1,1.3,0.5,1.3,1.2s-0.5,1.3-1.2,1.3c-1.4,0.1-2.9,0.3-4.3,0.4c-1.3,0-2.6,0-3.9-0.1
	c-2.7-0.1-5.5-0.3-8.2-0.3c-1.3,0-2.6-0.1-4-0.1s-2.7,0-4-0.1c-2.7,0-5.5-0.1-8.2-0.3s-5.4-0.5-8.1-1c-2.7-0.4-5.4-1-8.1-1.3
	c-1.3-0.2-2.7-0.4-4-0.5c-1.3-0.1-2.7-0.3-4-0.4c-1.2-0.2-2.5-0.4-3.8-0.5c-1.3-0.2-2.7-0.3-4-0.4c-0.9-0.1-1.9-0.2-2.8-0.3
	c0,0-0.1,0-0.1,0c-0.7,0-1.3-0.5-1.3-1.2c0-0.7,0.5-1.2,1.1-1.3c0.1,0,0.1,0,0.2,0C624.8,131.2,625.2,131.3,625.6,131.3L625.6,131.3
	z M624.6,133.7l0.1,0C624.7,133.7,624.6,133.7,624.6,133.7z"/>
<path class="st0" d="M640,141c2,0.3,4,0.7,6,0.9s4,0.4,6,0.6c2.7,0.1,5.4,0.3,8.1,0.6c1.3,0.2,2.6,0.3,4,0.5s2.7,0.2,4,0.4
	c1,0.1,1.9,0.2,2.9,0.3c-0.1,0-0.2,0-0.2,0l0.3,0l0,0c0.8,0.1,1.7,0.1,2.5,0.2c1.1,0.1,2.1,0.2,3.2,0.2c0.3,0.1,0.6,0.2,0.8,0.5
	c0.4,0.6,0.2,1.4-0.3,1.7c-0.3,0.2-0.6,0.2-0.9,0.2c-0.9-0.1-1.8-0.1-2.6-0.2c-0.8-0.1-1.6-0.1-2.4-0.2c-1.3-0.1-2.6-0.2-3.9-0.3
	c-1.4-0.2-2.7-0.3-4.1-0.4c-1.3-0.1-2.5-0.3-3.8-0.5c-1.4-0.2-2.9-0.3-4.3-0.4c-0.7-0.1-1.5-0.1-2.2-0.2h0.1l-0.2,0l-0.1,0l0.1,0
	c-2.2-0.1-4.3-0.3-6.5-0.6c-2.3-0.3-4.5-0.6-6.8-1c-0.7-0.1-1.1-0.8-1-1.5C638.7,141.3,639.3,140.9,640,141L640,141z M671.2,146.8
	c0.1,0,0.2,0,0.3,0L671.2,146.8z M652.9,145L652.9,145L652.9,145L652.9,145L652.9,145z M671,144.3L671,144.3L671,144.3L671,144.3z"
	/>
<path class="st0" d="M640,149.1c1.3,0.1,2.7,0.2,4,0.4c1.2,0.1,2.4,0.3,3.6,0.4c0.6,0.1,1.3,0.1,1.9,0.2c0.6,0.1,1.1,0.2,1.7,0.2
	c1.5,0.2,2.9,0.4,4.4,0.5c0.7,0.1,1.1,0.8,1,1.5c-0.1,0.3-0.3,0.6-0.5,0.8c-0.3,0.2-0.6,0.2-0.9,0.2c-1.4-0.2-2.9-0.3-4.3-0.5
	c-1.2-0.2-2.5-0.3-3.7-0.4c-1.2-0.1-2.3-0.3-3.5-0.4c-1.4-0.1-2.7-0.3-4.1-0.4c-0.3-0.1-0.6-0.2-0.8-0.5c-0.2-0.3-0.3-0.6-0.2-0.9
	c0.1-0.3,0.3-0.6,0.5-0.8c0.2-0.1,0.5-0.2,0.7-0.2C639.8,149.1,639.9,149.1,640,149.1L640,149.1z"/>
<path class="st0" d="M94.6,66.6c-2.3,0-4.6,0.4-6.7,1.2c-2,0.7-3.8,1.7-5.4,3c-2,1.7-3.6,3.8-4.8,6.1c-1,1.8-1.6,3.9-1.8,5.9
	c-0.2,1.3-0.1,2.6-0.2,3.9c-0.1,1.6-0.1,3.1,0.1,4.7c0.3,1.6,0.7,3.1,1.2,4.6c0.5,1.2,1,2.4,1.7,3.6c0.8,1.5,1.9,2.9,3.1,4.2
	c0.8,0.8,1.8,1.6,2.7,2.2c1.1,0.7,2.3,1.2,3.6,1.6c1.5,0.5,3.1,0.8,4.7,0.9c1.2,0.1,2.3,0.1,3.4,0.3c3.3,0.8,6.6,2,9.6,3.5
	c0.8,0.5,1.6,1,2.3,1.7c0.7,0.7,1.2,1.5,1.8,2.4c1.2,2,2.2,4.1,3,6.3c0.3,1.3,0.5,2.7,0.6,4.1c0,1.2-0.2,2.3-0.4,3.5
	c-0.3,1.1-0.7,2.1-1.2,3.1c-0.6,1.3-1.2,2.5-1.8,3.8c-0.7,1.3-1.6,2.6-2.6,3.8c-0.7,0.6-1.4,1.2-2.2,1.7c-0.9,0.5-1.8,0.8-2.7,1.1
	c-1.1,0.3-2.3,0.6-3.5,0.7c-0.4,0-0.7-0.1-1.1-0.1c-1.8-0.6-3.6-1.3-5.3-2.2c-1.8-1-3.5-2.1-5-3.4c-1-1.1-1.9-2.2-2.7-3.4
	c-0.5-0.9-0.9-1.9-1.3-2.9c-0.3-1.4-0.5-2.9-0.5-4.3c-0.2-1.1-0.8-2.1-1.7-2.8c-1.9-1.4-4.6-1-5.9,0.9c0,0,0,0,0,0l-0.5,1
	c-0.3,0.7-0.3,1.4-0.2,2.2c0,1,0.1,2,0.3,3c0.2,1.2,0.5,2.3,0.9,3.5c0.8,2.1,1.9,4.1,3.2,5.9c3,4.1,7.4,6.9,11.9,9
	c2.3,1.2,4.9,2,7.5,2.2c1.4,0,2.7-0.1,4-0.5c1.4-0.3,2.7-0.7,4-1.1c2.2-0.8,4.3-2.1,6-3.7c1-0.9,1.9-1.9,2.7-3
	c0.6-0.9,1.2-1.8,1.7-2.7c1.2-2.2,2.3-4.5,3.4-6.8c0.5-1.2,0.9-2.4,1.1-3.6c0.2-0.9,0.4-1.8,0.4-2.7c0.3-4.2-0.5-8.3-2.3-12.1
	c-0.9-2-2-3.9-3.2-5.8c-1.2-1.9-2.7-3.5-4.5-4.8c-1.8-1.2-3.8-2.3-5.8-3c-1.9-0.7-3.7-1.4-5.7-2c-1.6-0.5-3.3-0.9-5-1
	c-1.3-0.1-2.5-0.2-3.7-0.4c-0.9-0.2-1.7-0.5-2.6-0.9c-0.4-0.3-0.8-0.6-1.2-0.9c-0.6-0.7-1.2-1.4-1.7-2.2c-0.7-1.2-1.3-2.5-1.7-3.9
	c-0.2-0.8-0.3-1.6-0.4-2.4c0-1.2,0-2.3,0.1-3.5c0-1.2,0.1-2.3,0.3-3.5c0.2-0.7,0.5-1.4,0.8-2.1c0.5-0.8,1-1.5,1.6-2.2
	c0.6-0.6,1.3-1.2,2.1-1.7c0.8-0.4,1.7-0.8,2.5-1.1c0.9-0.2,1.9-0.4,2.9-0.4c0.7,0,1.4,0.1,2,0.2c0.6,0.2,1.2,0.4,1.8,0.6
	c0.9,0.6,1.7,1.2,2.5,1.9c3.2,3.2,5.8,6.9,8.7,10.3c1.5,1.8,4.1,2.1,6,0.7c1.8-1.5,2.1-4.1,0.7-6c-2.9-3.4-5.5-7-8.6-10.2
	c-1-1-2-1.9-3-2.8c-1.1-0.8-2.2-1.5-3.4-2c-1.1-0.5-2.3-0.8-3.4-1c-0.8-0.2-1.7-0.3-2.5-0.3C94.9,66.6,94.8,66.6,94.6,66.6
	L94.6,66.6z M110.4,136.4l-0.1,0.2L110.4,136.4z"/>
<path class="st0" d="M157.2,69.3c-1.1,0.1-2.2,0.2-3.4,0.4c-1.7,0.2-3.3,0.7-4.8,1.4c-2,1-3.9,2.2-5.6,3.6c-1.8,1.5-3.4,3.2-4.8,5.1
	c-1.2,1.5-2.3,3.1-3.3,4.9c-1.1,1.9-1.9,3.8-2.7,5.8c-0.8,2.2-1.4,4.5-1.8,6.8c-0.5,2.1-0.9,4.1-1,6.2c-0.1,2.3-0.1,4.7,0.1,7
	c0.1,1.5,0.3,3,0.4,4.5c0.2,1.8,0.5,3.7,0.9,5.5c0.9,3.7,2.4,7.2,4.4,10.4c2.1,3.1,4.7,5.9,7.7,8.3c1.3,1.1,2.6,2.1,4.1,2.9
	c1.1,0.6,2.3,1.2,3.5,1.6c0.8,0.3,1.7,0.5,2.6,0.7c1.9,0.5,3.7,1,5.6,1.2c1.6,0.2,3.2,0.1,4.8-0.2c1.3-0.3,2.6-0.7,3.9-1.3
	c1.2-0.6,2.4-1.3,3.5-2.2c0.9-0.7,1.8-1.3,2.7-2c0.9-0.8,1.8-1.7,2.6-2.6c0.7-0.7,1.3-1.4,1.8-2.2c1.3-1.7,2.3-3.6,3.2-5.6
	c0.9-2.3,1.6-4.7,2-7.2c0.4-1.8,0.6-3.5,0.8-5.3c0.1-1.8,0.1-3.7,0-5.5c0-2.5-0.3-4.9-0.4-7.3c-0.2-2.7-0.7-5.4-1.4-8
	c-0.7-2.7-1.6-5.4-2.9-7.9c-0.6-1.3-1.3-2.5-1.9-3.8c-0.5-1.2-1.1-2.2-1.8-3.3l0.1,0.2l-0.1-0.2c-0.1-0.2-0.3-0.5-0.4-0.7
	c0.1,0.1,0.2,0.3,0.2,0.4c-1.1-2-2.5-3.8-3.9-5.6c-1-1.1-2.1-2.1-3.3-3c-1.4-1.1-2.9-1.9-4.6-2.4c-1-0.4-2.2-0.3-3.2,0.1
	c-0.1,0.1-0.3,0.1-0.4,0.2c-0.7-0.5-1.6-0.8-2.5-0.8C157.6,69.3,157.4,69.3,157.2,69.3L157.2,69.3z M158.6,77.7c0.5,0,1-0.2,1.4-0.5
	c0.3,0.2,0.6,0.4,1,0.5c0.5,0.1,0.9,0.3,1.4,0.5c0.8,0.6,1.7,1.2,2.4,1.8c1.5,1.6,2.7,3.3,3.8,5.1c0-0.1-0.1-0.2-0.1-0.2l0.3,0.5
	c1,1.9,1.9,3.8,2.9,5.8c0.9,1.8,1.7,3.7,2.3,5.6c1.2,4.7,1.8,9.4,1.9,14.2c0.1,2,0,4-0.1,6c-0.2,2-0.5,4-1,6c-0.4,1.6-1,3.1-1.8,4.6
	c-0.9,1.5-1.9,3-3,4.3c-1.6,1.5-3.2,2.8-5,4c-0.7,0.4-1.5,0.7-2.3,1c-0.6,0.1-1.2,0.2-1.8,0.3c-0.9,0-1.7-0.2-2.6-0.3
	c-1.1-0.3-2.1-0.5-3.2-0.8c-1-0.3-2-0.6-3-1c-2.1-1.3-4.1-2.8-5.9-4.6c-1.4-1.4-2.7-2.9-3.8-4.6c-1.1-2.1-2.1-4.2-2.8-6.4
	c-0.8-3.6-1.3-7.3-1.5-11.1c-0.1-1.7,0-3.4,0.1-5.1c0.2-1.9,0.5-3.7,1-5.5c0.7-3,1.7-5.9,3.1-8.7c1.4-2.4,3-4.6,4.9-6.7
	c1.3-1.2,2.7-2.3,4.1-3.3c0.7-0.4,1.4-0.7,2.2-1C155.2,78,156.9,77.8,158.6,77.7L158.6,77.7z"/>
<path class="st0" d="M217.7,72.6c-1.7,0.2-3.3,0.7-4.8,1.4c-1.2,0.5-2.3,1.2-3.4,2c-1.6,1.2-3.2,2.5-4.6,3.9
	c-1.7,1.7-3.2,3.6-4.6,5.5c-2.6,3.6-4.6,7.5-6,11.7c-0.2,0.8-0.5,1.5-0.6,2.3c-0.5,2.4-0.9,4.8-1.2,7.2c-0.1,1.1-0.3,2.1-0.4,3.2
	c-0.2,1-0.3,2-0.4,2.9c-0.1,2.4,0,4.7,0.3,7.1c0.3,2.3,0.8,4.6,1.5,6.9c-0.1-0.3-0.2-0.7-0.3-1c1.1,4.2,2.9,8.1,5.3,11.7
	c1.4,1.9,3,3.6,4.9,5c1.8,1.6,3.9,2.9,6,3.9c2.1,1,4.5,1.6,6.8,1.7c2.1,0.1,4.3,0,6.4-0.3c2.1-0.2,4.2-0.7,6.2-1.5
	c1.1-0.5,2.2-1.1,3.2-1.9c0.8-0.6,1.7-1.2,2.4-1.8c0.8-0.7,1.6-1.4,2.3-2.1c0.9-0.7,1.4-1.8,1.6-2.9c0.2-2.3-1.5-4.4-3.8-4.6
	c0,0,0,0,0,0c-1.1-0.1-2.2,0.2-3.1,0.9c-1.6,1.6-3.3,2.9-5.2,4.2c-0.6,0.3-1.3,0.6-2,0.9c-2,0.4-4,0.7-6,0.8c-1.1,0-2.2-0.1-3.2-0.2
	c-1-0.3-1.9-0.6-2.8-1.1c-1.7-1-3.3-2.3-4.8-3.6c-0.9-0.9-1.8-1.9-2.5-3c-1.4-2.4-2.5-4.9-3.3-7.5c-0.1-0.2-0.1-0.4-0.2-0.6
	c-0.7-2.8-1.2-5.7-1.3-8.6c0.1-2.1,0.3-4.3,0.7-6.4c0.3-2.3,0.6-4.6,1-6.8c0.7-2.4,1.6-4.8,2.7-7c0.9-1.5,1.8-3,2.7-4.4
	c1.1-1.5,2.2-3,3.5-4.4c0.7-0.7,1.3-1.3,2-1.9c0.8-0.7,1.7-1.3,2.5-1.9c0.8-0.4,1.6-0.7,2.4-1c0.7-0.1,1.4-0.2,2.2-0.3
	c0.8,0,1.6,0.1,2.4,0.3c0.9,0.3,1.8,0.6,2.7,1c2.5,1.6,4.8,3.4,7.1,5.3c1.9,1.3,4.6,0.9,5.9-1c1.3-1.9,0.9-4.5-0.9-5.8
	c-1.8-1.4-3.5-2.8-5.3-4.2c-1-0.7-2.1-1.4-3.2-2c-1-0.5-2-0.9-3-1.3c-1.3-0.4-2.7-0.6-4-0.8c-0.4,0-0.7,0-1.1,0
	C219.5,72.4,218.6,72.5,217.7,72.6L217.7,72.6z M202.1,101.1l-0.1,0.4l0-0.1C202,101.3,202,101.2,202.1,101.1L202.1,101.1z
	 M201.9,101.7c0,0.2-0.1,0.4-0.1,0.6C201.8,102.1,201.9,101.9,201.9,101.7z M193.7,100.1c0.1-0.2,0.1-0.4,0.2-0.7
	c0-0.1,0.1-0.3,0.1-0.4C193.8,99.3,193.7,99.7,193.7,100.1L193.7,100.1z"/>
<path class="st0" d="M259.3,94c-0.4,3.2-0.8,6.3-1.5,9.5c-0.6,3-1.2,5.9-1.9,8.9c-0.3,1.3-0.6,2.6-0.8,3.9c-0.2,1.3-0.5,2.7-0.7,4
	c-0.5,2.2-1.2,4.3-1.8,6.5c-0.6,2.3-1.2,4.6-1.8,6.9c-0.6,2.2-1.2,4.5-1.8,6.7c-0.8,2.5-1.4,5-1.9,7.6c-0.3,2.3,1.4,4.4,3.8,4.7
	c2.3,0.3,4.4-1.4,4.7-3.8c0,0,0-0.1,0-0.1c0-0.3,0.1-0.6,0.2-1c0.6-2.4,1.4-4.9,2-7.3c0.7-2.7,1.4-5.4,2.1-8.1
	c0.4-1.4,0.7-2.9,1.1-4.3c0.4-1.5,0.9-3.1,1.3-4.6c0.7-3,1.2-6.1,1.8-9.2c0.7-3.2,1.4-6.3,2.1-9.5c0.7-3.3,1.1-6.7,1.6-10
	c0.2-2.3-1.5-4.4-3.8-4.6c-0.1,0-0.3,0-0.4,0C261.3,90.2,259.5,91.9,259.3,94L259.3,94z M256.1,111.4l-0.1,0.4
	C256.1,111.7,256.1,111.6,256.1,111.4z"/>
<path class="st0" d="M304.6,96.4c-0.5,0-1,0.1-1.4,0.3c-1,0.2-1.9,0.6-2.8,1.1c-1,0.6-2,1.3-2.9,2.1c-0.9,0.9-1.8,1.9-2.5,2.9
	c-1.1,1.6-2.1,3.4-3.1,5.1c-1.2,1.9-2.4,3.6-3.5,5.5c-1.2,2-2.2,4-3.2,6.1c-1.2,2.7-2.5,5.3-3.7,8c-1.2,2.7-2.3,5.5-3.5,8.3
	c-1.1,2.8-2.3,5.5-3.2,8.3c-1,3-2,6-2.9,9c-0.4,1-0.3,2.2,0.1,3.2c0.9,2.1,3.5,3.1,5.6,2.2c1-0.5,1.9-1.3,2.3-2.4
	c1-3.3,2.1-6.6,3.2-9.9c1.1-3.1,2.4-6.2,3.7-9.2c1.2-3,2.5-6,3.8-8.9c1.3-2.8,2.5-5.6,3.9-8.3c1.3-2.3,2.8-4.4,4.2-6.6
	c1.3-2.3,2.7-4.5,4.2-6.6c0.4-0.4,0.9-0.8,1.4-1.1c0.3-0.2,0.6-0.3,0.9-0.4c0.2,0,0.4-0.1,0.6-0.1c0.2,0,0.5,0,0.7,0.1l0,0
	c0.1,0.2,0.2,0.4,0.3,0.6c0.4,2.2,0.7,4.4,0.7,6.6c0,1.7,0.1,3.5,0.1,5.2c0,1.9,0.1,3.9,0,5.9c-0.1,1.8-0.2,3.7-0.3,5.5
	s-0.1,3.7-0.3,5.5c-0.5,3.9-0.8,7.8-0.9,11.8c0.1,1.9,0,3.9-0.2,5.8c-0.3,2.2-0.7,4.3-1.1,6.5c-0.4,2-0.7,3.9-0.7,5.9
	c-0.1,1.1,0.2,2.2,0.9,3.1c1.5,1.8,4.1,2.1,6,0.7c0,0,0,0,0,0c0.9-0.7,1.5-1.8,1.6-2.9c0.1-4.1,1.3-8,1.8-12.1c0.2-2,0.3-4,0.2-6
	c0-1.9,0.1-3.8,0.2-5.7c0.2-2,0.4-3.9,0.6-5.9c0.2-1.9,0.3-3.8,0.4-5.7c0.1-1.8,0.2-3.7,0.3-5.5c0.1-1.9,0-3.8,0-5.7
	c0.1-4-0.1-8-0.5-12c-0.1-0.8-0.2-1.7-0.4-2.5c-0.3-1.4-0.8-2.6-1.6-3.8c-0.4-0.6-0.9-1.2-1.5-1.7c-1.2-1.1-2.7-1.7-4.2-1.9
	c-0.2,0-0.4-0.1-0.6-0.1c-0.4,0-0.8-0.1-1.2-0.1C305.4,96.3,305,96.3,304.6,96.4L304.6,96.4z M306.6,105c0.1,0.1,0.2,0.2,0.3,0.3
	C306.8,105.2,306.7,105.1,306.6,105z"/>
<path class="st0" d="M288.7,124c-1.8,1.5-2.1,4.1-0.7,6c0.7,0.9,1.8,1.4,2.9,1.6c1,0.2,2,0.4,3,0.6c2.4,0.6,4.8,1.4,7.2,2
	c1.1,0.3,2.3,0.6,3.4,1c0.5,0.2,1,0.4,1.5,0.6c1,0.3,2.1,0.6,3.1,0.8c1.1,0.1,2.2-0.2,3.1-0.9c1.8-1.5,2.1-4.1,0.7-6
	c-0.3-0.3-0.6-0.5-0.8-0.8c-0.6-0.4-1.2-0.7-1.9-0.8c-1.2-0.3-2.3-0.8-3.4-1.2c-1.5-0.5-3.1-0.8-4.6-1.2c-1.5-0.4-3-0.9-4.5-1.3
	c-1.9-0.5-3.9-0.9-5.9-1.3c-0.2,0-0.3,0-0.5,0C290.3,123.1,289.4,123.5,288.7,124L288.7,124z M310,128.1L310,128.1z"/>
<path class="st0" d="M346.1,109.7c-0.7,2.1-1.5,4.1-2.3,6.2c-0.7,1.9-1.3,3.9-1.9,5.8c-0.6,1.9-1.3,3.8-2,5.6c-0.7,2-1.5,4-2.2,6
	c-1.5,3.6-2.9,7.2-4.4,10.9c-0.8,2-1.5,4-2.3,6s-1.6,3.9-2.3,5.9c-0.5,1.3-1,2.6-1.5,3.9c-0.5,1.2-0.9,2.5-1.3,3.7
	c-0.8,1.8-1.1,3.7-0.9,5.7c0.4,1.9,1.7,3.5,3.5,4.2c0.6,0.3,1.1,0.5,1.7,0.7c2.3,0.8,4.6,1.8,6.9,2.5c2.6,0.7,5.2,1.1,7.8,1.6
	c1.9,0.5,3.8,1.1,5.7,1.7c2.3,0.7,4.7,1.2,7.1,1.5c1.1,0.1,2.2-0.2,3.1-0.9c1.8-1.5,2.1-4.1,0.7-6c0,0,0,0,0,0
	c-0.7-0.9-1.8-1.4-2.9-1.6c-1.3-0.2-2.5-0.4-3.8-0.7c-2.1-0.6-4.2-1.4-6.3-1.9c-2.4-0.6-4.8-1-7.2-1.5c-1.5-0.4-3-0.9-4.5-1.4
	c-0.9-0.3-1.9-0.7-2.8-1c0.3-0.9,0.6-1.9,1-2.8c0.7-1.9,1.4-3.8,2.2-5.6c1.6-4,3.1-8,4.6-12c1.4-3.7,3-7.2,4.4-10.9
	c1.5-3.8,2.9-7.6,4.1-11.5c0.6-1.8,1.2-3.6,1.8-5.4c0.7-1.9,1.4-3.8,2.1-5.7c0.8-2.2-0.3-4.6-2.5-5.5c-0.5-0.2-1-0.3-1.4-0.3
	C348.4,106.9,346.8,108,346.1,109.7L346.1,109.7z"/>
<path class="st0" d="M405.7,117.7c-2.4,0.1-4.8,0.4-7.2,1.1c-4.3,1.2-8.5,3.6-10.7,7.6c-1,1.6-1.6,3.5-1.9,5.4
	c-0.1,2,0.4,4.1,1.4,5.8c1.1,2,2.5,3.9,4.1,5.6c2.5,2.5,5.3,4.9,8.2,6.9c2.7,2,5.6,3.9,8.1,6.1c0.8,0.8,1.5,1.6,2.2,2.5
	c0.5,0.7,1.1,1.5,1.5,2.2c1.1,2,2,4,2.7,6.1c0.3,1.4,0.5,2.9,0.6,4.4c-0.1,2.1-0.3,4.3-0.8,6.3c-0.3,1.1-0.7,2.1-1.2,3.2
	c-0.7,1.3-1.6,2.4-2.5,3.6c-0.6,0.6-1.3,1.2-2,1.7c-1.7,0.8-3.4,1.5-5.2,2c-1,0.3-2,0.5-3.1,0.7c-0.6,0-1.3-0.1-1.9-0.3
	c-1.2-0.4-2.4-0.9-3.6-1.4c-2.1-1.1-4.1-2.5-5.9-4c-0.8-0.8-1.4-1.7-2-2.6c-0.7-1.2-1.2-2.5-1.7-3.8c-0.3-1-0.5-2.1-0.6-3.1
	c-0.4-2.3-2.6-3.9-4.9-3.5c-1.1,0.2-2.1,0.8-2.8,1.7c-0.6,0.9-0.9,2.1-0.8,3.2c0.5,4.4,2.2,8.5,4.9,12.1c1.5,1.8,3.2,3.4,5.2,4.7
	c1.8,1.2,3.7,2.3,5.6,3.3c2.1,1.1,4.4,1.8,6.7,2.1c2.8,0.5,5.7-0.5,8.4-1.3c1.7-0.5,3.3-1.1,4.9-1.9c1-0.5,2-1.1,2.9-1.9
	c1.1-0.9,2-1.9,2.9-2.9c1.4-1.7,2.6-3.5,3.5-5.5c0.9-2.1,1.6-4.3,1.9-6.5c0.4-2.1,0.6-4.2,0.5-6.3c0-1.7-0.3-3.4-0.7-5.1
	c-0.5-1.9-1.2-3.7-2-5.5c-0.9-1.8-1.9-3.6-3-5.3c-1-1.5-2.1-2.9-3.4-4.2c-1-0.9-2-1.8-3-2.7c-0.8-0.7-1.7-1.2-2.6-1.9
	c-3.5-2.4-6.8-5-9.9-7.7c-1.3-1.3-2.4-2.7-3.5-4.3c-0.3-0.5-0.5-1-0.7-1.6c0,0,0-0.1,0-0.1c0-0.2,0-0.3,0-0.4
	c0.1-0.4,0.3-0.7,0.5-1.1c0.3-0.5,0.6-0.9,0.9-1.3c0.6-0.5,1.2-1,1.9-1.5c0.9-0.5,1.8-0.9,2.8-1.2c1.7-0.4,3.4-0.7,5.1-0.9
	c1.3,0,2.6,0.1,3.8,0.3c1.5,0.4,3,1,4.4,1.7c0.6,0.3,1.1,0.7,1.6,1.1c1,1.1,2,2.4,2.8,3.6c1.5,1.8,4.1,2.1,6,0.7
	c0.9-0.7,1.5-1.8,1.6-2.9c0.1-1.1-0.2-2.2-0.9-3.1c-0.7-0.9-1.4-1.9-2.1-2.8c-1-1.3-2.3-2.4-3.7-3.3c-1.2-0.7-2.4-1.4-3.7-1.9
	c-1-0.4-2-0.8-3-1c-1.9-0.5-4-0.8-6-0.8C406.1,117.7,405.9,117.7,405.7,117.7L405.7,117.7z M394.5,133.3L394.5,133.3L394.5,133.3z"
	/>
</svg>
