<svg xmlns="http://www.w3.org/2000/svg" viewBox="0 0 362.3 187.2" fill="#fff" xmlns:v="https://vecta.io/nano"><path d="M14.4 36.9c.2-.1.4-.3.6-.4.3-.2.6-.3.9-.4.5-.2 1-.5 1.5-.8l3.6-1.9 3.6-1.8 4.1-2.3c3.3-1.8 6.8-3 10-4.9s6.3-3.8 9.6-5.5c2.4-1.3 4.9-2.4 7.4-3.5 1-.4 2.1-.8 3.1-1.1l-1 .4c2.7-1 5.3-2.2 8-3.4L73.4 8c1-.5 1.7-1.4 2.1-2.5.7-2.2-.6-4.6-2.8-5.3h0c-1.1-.3-2.2-.2-3.2.3l-7.3 3.1c-2.4 1.1-4.6 2.1-6.9 3l-.3.1c-2 .7-3.8 1.3-5.6 2.2s-3.4 1.6-5.1 2.5c-3.3 1.8-6.4 3.8-9.6 5.6s-6.7 3.1-10 4.9c-1.4.8-2.8 1.5-4.1 2.3-1.1.7-2.4 1.2-3.6 1.8s-2.6 1.3-3.8 2c-.5.3-1 .5-1.4.8l-.6.3c-.3.1-.7.3-.9.6a4.45 4.45 0 0 0-1.6 5.7c.7 1.4 2.2 2.2 3.8 2.2.6-.2 1.2-.4 1.9-.7h0z"/><path d="M198.9 84.3l6.5-.2h6.6c4.1.1 8.2.1 12.2-.1 3.8-.2 7.6-.6 11.5-.8.4 0 .8-.1 1.2-.1h1l4.5-.3c2.4-.2 4.8-.5 7.1-.8 4.2-.5 8.4-1.2 12.7-1.9 2.1-.3 4.2-.7 6.3-1l5.8-.9c4.1-.8 8.2-1.8 12.3-2.8l6-1.5c2-.5 4.1-1 6.1-1.6 3.9-1.2 7.8-2.6 11.6-3.8 1.8-.6 3.7-1.1 5.5-1.6 2.1-.7 4.1-1.4 6.1-2.3l4.6-2.1c1.6-.7 3.2-1.5 4.8-2.2s3.2-1.5 4.9-2.2 3.3-1.5 5-2.3 3.6-1.5 5.4-2.3c1.6-.7 3.1-1.5 4.6-2.3.8-.4 1.6-.9 2.4-1.4s1.4-.8 2.1-1.2c1.8-1.2 3.4-2.5 5.1-3.7.3-.2.6-.5.8-.8-.1-.2-.2-.5-.2-.7-.2-.6-.4-1.1-.6-1.7-.1-.3-.2-.5-.3-.8s-.1-.4-.2-.6l-.6-.9c-.5-.5-.9-1.1-1.4-1.7l-.1-.1v-.1c-1.1 0-2.2.4-3 1.1l-2.6 2c-1.1.7-2.3 1.4-3.5 2.1-1.5.8-3 1.7-4.5 2.4-3.2 1.5-6.5 2.7-9.7 4.2l-9.7 4.4c-2.9 1.3-5.7 2.8-8.6 3.9-3.4 1.2-7 2.1-10.5 3.3-3.8 1.3-7.6 2.6-11.5 3.7-2.1.6-4.2 1-6.3 1.6s-4.1 1-6.1 1.5c-3.9 1-7.8 1.8-11.8 2.5-9 1.4-18.1 3.1-27.2 4-4 .4-8 .5-12.1.8s-7.8.5-11.6.6h-12.9c-2.2 0-4.3.2-6.5.2H194l-12.4-.2c-4.1-.1-8.3-.4-12.4-.7l-12.4-.8c-2.1-.2-4.2-.4-6.3-.7s-4.1-.4-6.2-.7c-3.1-.3-6.2-.8-9.3-1.2l-15.5-2.7h-.2c-4-.7-8.1-1.5-12.1-2.4s-8.3-1.8-12.4-2.9-8.2-2-12.3-3.2l-12.3-3.7L51 50.7c-2.9-.9-5.9-1.8-8.7-2.9-1.5-.6-2.9-1.3-4.4-1.9s-2.8-1-4.1-1.6c-.8-.4-1.6-.8-2.3-1.3-1-.6-2.1-1.1-3.1-1.8-.7-.5-1.4-1-2.2-1.5-.7-.4-1.3-.9-1.9-1.3-2-1.5-4.3-2.7-6.3-4.3-.2-.2-.5-.4-.7-.7-.5-.5-1-.9-1.6-1.3-.1-.1-.2-.2-.2-.3a6.42 6.42 0 0 0-1.3-1c-1-.6-2.1-.8-3.3-.5-2.3.5-3.7 2.8-3.2 5.1h0c.3 1 .9 1.9 1.7 2.5.3.3.6.7 1.1 1 .2.1.3.2.5.3s.3.3.5.5c.7.6 1.3 1.2 2 1.7s1.8 1.2 2.6 1.7a77.87 77.87 0 0 1 3 2c.5.3.9.7 1.4 1s1.2.8 1.8 1.2c3.3 2.3 7 4.3 10.8 5.7 1.9.7 3.7 1.5 5.5 2.3a65.57 65.57 0 0 0 5.7 2.1l24.2 7.4 12 3.6c4 1.2 8.2 2.1 12.3 3.2 2.1.6 4.2 1.1 6.4 1.6l6.8 1.5c4.5.9 9.1 1.9 13.7 2.6l3.9.7 13.5 2.3c4.1.7 8.3 1 12.4 1.4l12.9 1.2c4 .2 8 .5 12.1.8l6 .3c2.2.1 4.3.1 6.5.1l10.5.2h1.4zm-64.2-12.8l-.7-.1.7.1zm-15.8-2.7l-.7-.1.7.1z"/><path d="M119.3 68.8h0zm239.2 77.3c.1-2.5-.4-4.9-.2-7.4l.3-3.5.1-3.6-.1-4.8.2-4.2.2-4.8c0-1.3.2-2.6.3-3.9l.5-8.4.5-9.5-.1.6.6-4-.1.7c.4-2.2.6-4.5.8-6.7l.2-5.4.4-7.4.1-3.7v-1.8c0-.7-.1-1.3-.1-2l-.1-.6-.2-5.4c0-.9.1-1.8.2-2.7v-2.7l-.2-4.9.2-4.8c-.2-.5-.3-1-.5-1.6l-.6-1.7-.3-.8-.2-.5c-.7-.5-1.5-.8-2.4-.8-1.1 0-2.2.4-3 1.1-.8.8-1.3 1.9-1.4 3-.2 1.9-.2 3.9-.2 5.8l.2 5.3-.2 5.7c0 2 .1 3.9.4 5.8 0 .5.1 1.1.2 1.6l-.1-1.1c.1 1 .1 2.1 0 3.1-.1 1.2-.1 2.5-.1 3.7l-.4 7.2-.2 5-.6 6c0-.3.1-.6.1-.8l-.6 3.9.1-.6c-.3 1.7-.5 3.5-.5 5.2l-.1 4.9-.3 4.7-.2 4.1-.3 3.9-.2 4.8-.2 4.2.1 4.9-.1 3.7c0 .6 0 1.2-.1 1.8s-.2 1.2-.2 1.9c-.2 2.5.3 5 .2 7.5 0 2.3 1.8 4.3 4.1 4.4h.1c2-.3 3.9-2.1 4-4.4h0z"/><path d="M197.3 187l6.4-.3 6.2-.2c4.1-.2 8.2-.7 12.4-.9 2.9-.2 5.9-.5 8.8-.8l8.6-1 8.4-1.1c2.5-.3 4.9-.7 7.4-.9 2.3-.2 4.7-.5 7-.8 2-.3 4.1-.7 6.1-1.1s3.9-.9 5.9-1.1 4-.5 6-.9c4.1-.8 8.1-1.7 12.2-2.7l12.3-3c3.9-1 7.6-2.3 11.4-3.8 1.8-.7 3.6-1.5 5.3-2.3 1.6-.7 3.2-1.4 4.9-2 5-1.8 9.9-3.9 14.8-6 2.2-.9 4.3-2.1 6.4-3.1 2.2-1.1 4.3-2.4 6.4-3.8 1-.5 1.7-1.4 2.1-2.5.7-2.2-.6-4.6-2.8-5.3-1.1-.3-2.2-.2-3.2.3-1.9 1.3-3.9 2.5-6 3.6-2 1-3.9 2-5.9 2.9s-4.3 1.8-6.4 2.6c-2.4 1-4.7 2-7.2 2.9l.3-.1c-2.4.9-4.8 1.9-7.2 2.9s-4.5 2-6.8 2.9c-1.8.7-3.7 1.3-5.5 1.8s-4 1.1-6 1.5l-12.4 3c-2 .5-4 .9-6.1 1.3s-4 .8-6.1 1.1-3.9.5-5.8.9l-6.1 1.2c-2.2.4-4.5.7-6.7.9a95.82 95.82 0 0 0-7.5.9c-2.5.4-5.1.7-7.7 1l-14.9 1.7c-1.8.1-3.5.3-5.3.4-2.1.1-4.3.4-6.4.5-4.1.3-8.2.3-12.3.5s-8.2.5-12.4.3l-13-.5c-3.7 0-7.4-.2-11.1-.5l-11.3-.9c-3.8-.2-7.7-.3-11.6-.7s-7.8-.6-11.6-1.2l-8.4-1.4-8.2-1.1-7.3-1.3 1.1.2c-1.6-.3-3.2-.6-4.7-.8l1.1.2c-4-.7-8-1.6-12-2.6-2.1-.5-4.2-.9-6.3-1.4s-4-1-5.9-1.6l-6.3-1.9c-1.9-.6-3.8-.9-5.8-1.4-4.1-1.1-8.1-2.3-12.1-3.5-3.5-1.1-7-2.1-10.3-3.4-1.7-.7-3.4-1.5-5.2-2.1-1.5-.6-3-1.1-4.5-1.8a67.04 67.04 0 0 1-3.7-2c-1.7-1-3.5-1.8-5.3-2.6-.9-.4-1.8-.9-2.6-1.3s-2-.8-3-1.2l-3-1.2c-1-.4-1.9-.6-2.8-1l-.9-.4.5.2c-1.3-.6-2.6-1.4-3.8-2.2l-.3-.3a4.26 4.26 0 0 0-6-.2c-1.7 1.6-1.8 4.3-.3 6h0c.2.2.5.5.8.7.7.6 1.4 1.2 2.1 1.7 1.4.9 2.8 1.7 4.3 2.3l-1-.5c1.1.5 2.2 1 3.3 1.4.9.3 1.8.7 2.6 1.1 1.6.7 3.3 1.2 4.9 2l3.5 1.6c1.7.8 3.3 1.9 5 2.7 2.1 1 4.2 2 6.4 2.8 3.9 1.4 7.6 3.2 11.6 4.5s7.9 2.4 11.8 3.6c2 .6 4 1.2 6.1 1.7s3.9.9 5.9 1.5c5.1 1.5 10.2 3 15.3 4.1 2.6.5 5.2 1.1 7.7 1.7 2.9.7 5.8 1.2 8.7 1.7l-1.2-.2c1.3.2 2.6.4 3.8.7 2.8.5 5.7 1.1 8.5 1.4 2.6.3 5.2.7 7.8 1.1 4 .7 7.9 1.4 11.9 1.8l6.4.6c2.1.2 4 .4 6 .5l6.7.3c1.9.1 3.8.3 5.8.4 4.1.4 8.3.6 12.5.8 1.9.1 3.9.1 5.8.1 2.2.1 4.4.2 6.6.2s4.1.2 6.2.2h.9c1.9.2 3.6.1 5.3 0h0zM11.6 139l.1.1-.1-.1z"/><path d="M8.3 144.4c2.3-.6 3.7-2.8 3.2-5.1-.8-3.3-1.5-6.6-1.9-10-.3-3.5-.3-7-.4-10.5-.2-2-.3-3.9-.2-5.8s.1-4 .3-6.1c.1-2.2 0-4.4-.2-6.6-.2-1.8-.1-3.5-.1-5.3s0-3.8-.1-5.8-.1-4 .1-6c.2-3.3-.1-6.6-.2-9.9 0-1.8.1-3.5.1-5.2v-2.7c0-.9-.2-2-.3-3-.1-2.1.1-4.2.3-6.2.2-1.7.2-3.3.4-5 .5-2.3 1.1-4.7 1.9-6.9.5-1.5.9-3.1 1.4-4.6 1.2-2 .6-4.6-1.4-5.9s-4.6-.6-5.9 1.4c-.6 1-1 2.1-1.3 3.2l-.6 2c-.4 1.5-.9 3-1.4 4.6-.3 1.1-.6 2.2-.8 3.3C.9 50.2.7 52.1.5 54c-.2 1.6-.2 3.3-.4 5-.1.9-.1 1.9-.1 2.8.1 1.1.2 2.1.4 3.2.1 1.6 0 3.2 0 4.9-.1 1.8-.1 3.6 0 5.4s.2 3.4.2 5.1c0 2-.2 4-.2 6s.2 4 .2 6.1c0 1.8-.1 3.5-.1 5.3 0 2 .3 4 .4 6s-.1 4-.2 6c-.2 2.7-.2 5.4-.1 8.1l.3 6.8c.1 3 .3 6 .8 9 .2 1.2.5 2.4.7 3.5l.9 4c.5 1.9 2.2 3.3 4.2 3.3.2-.1.5-.1.8-.1h0zM116.8 73c1.4-.4 2.8-1 4.1-1.7l4-1.8 4.7-2 5.8-2.8c3.3-1.6 6.4-3.4 9.6-5.2 1.7-1 3.5-1.9 5.3-2.9s3.5-1.8 5.3-2.6l10.7-5.2c1.8-.9 3.5-1.8 5.2-2.8 1.6-.9 3.2-1.6 4.8-2.5 3.3-1.8 6.7-3.4 10-5l5.9-2.9 5.4-2.9c1-.5 2-1.1 3.1-1.7s2.1-1 3.1-1.6c2.2-1.2 4.4-2.4 6.8-3.3l2.9-1.1c1.2-.4 2.4-.9 3.5-1.5s2.2-1.3 3.2-2.1l.9-.6c.6-.5 1-1.2 1.2-1.9.3-1.1.2-2.2-.3-3.2-.4-.7-.9-1.3-1.6-1.7h0c-.5.2-1.1.4-1.7.4-.6.1-1.2.1-1.8.1h.1c-.6 0-1.2.1-1.8.1-1.2.8-2.4 1.5-3.8 2.1-.9.3-1.8.7-2.7 1-1.8.6-3.5 1.3-5.2 2.1-1.6.9-3.3 1.8-4.9 2.6-3.3 1.6-6.4 3.5-9.7 5.2-3.6 1.9-7.4 3.5-11.1 5.4l-4.9 2.5-2.4 1.2c-.8.4-1.7.8-2.5 1.2l-5.1 2.7c-1.7.9-3.4 1.7-5.1 2.5l-5.5 2.6c-1.8.8-3.6 1.8-5.3 2.7-3.4 1.7-6.7 3.7-10.1 5.6-1.6.8-3.2 1.7-4.8 2.5-1.9 1-3.9 1.9-5.8 2.8-2.3 1.1-4.7 1.9-6.9 3l-2.6 1.2c-.6.3-1.2.6-1.7.8h-.1c-2.3.5-3.7 2.8-3.2 5.1.5 1.9 2.2 3.3 4.2 3.3.2.3.5.3.8.3h0zm94.8-56.3l.8-.3-.8.3zm36.2 62.6c1-.6 2-1.1 3.1-1.5l4.1-1.9 4.7-2.1 4.8-2.3c7-3.4 14.1-6.3 20.8-10.2 2.9-1.7 5.9-3.3 9-4.7 1.6-.7 3.1-1.5 4.7-2.1s3.3-1.4 4.9-2.2l4.6-2.3 9.2-4.2c1.2-.6 2.4-1.1 3.7-1.6l5.2-1.8c1.7-.5 3.5-1 5.3-1.3l5.5-1.2c1.6-.3 3.3-.7 4.9-.9.9-.1 1.8 0 2.7.1 1.6.3 3.2.8 4.6 1.5.5.2.9.5 1.4.8s1 .5 1.4.8.7.8 1.1 1.2c.7.7 1.3 1.5 2 2.2a4.26 4.26 0 0 0 6 .2l.3-.3-.1-.3c-.2-.6-.4-1.2-.6-1.7s-.4-1.2-.6-1.7c-.1-.3-.2-.5-.3-.8s-.1-.4-.2-.6l-.6-.9-1.4-1.7-.1-.1-.2-.3c-.9-1.1-1.9-2.1-3-3.1-.5-.5-1.1-.9-1.6-1.4l-.3-.2c-1.6-.7-3.2-1.3-4.8-1.7-1.2-.3-2.3-.5-3.5-.6s-2.4 0-3.6.2c-1.9.2-3.9.6-5.8 1l-6 1.3c-1.9.4-3.7.9-5.5 1.5l-6.6 2.3c-1.5.6-3 1.3-4.5 2-1.9.9-3.8 1.7-5.7 2.6-3.5 1.6-6.9 3.4-10.4 4.9s-7.3 3.1-10.8 5c-1.7.9-3.3 1.8-4.9 2.7s-3.4 1.9-5.2 2.8L257.9 65c-1.4.7-2.7 1.4-4.1 2s-2.7 1.2-4 1.8l-3.6 1.6c-.9.4-1.8.8-2.7 1.3-1 .5-1.7 1.4-2.1 2.5-.3 1.1-.2 2.2.3 3.2.8 1.4 2.3 2.3 3.9 2.3a3.79 3.79 0 0 0 2.2-.4h0z"/><path d="M235.4 83.2c.5-.1 1-.1 1.5-.2.4-.1.7-.1 1.1 0l.5.1c.2 0 .4 0 .6-.1h.3l2.2-1 2.1-1.1 1-.5c.5-.2 1-.5 1.4-.8 1.4-.8 3.1-1.1 4.5-1.9l1.8-1c.7-.4 1.5-.7 2.2-1.1l4.7-2.1 4-1.9c1-.5 1.8-1.3 2.2-2.3.9-2.2-.1-4.7-2.3-5.5h0c-1.1-.5-2.2-.5-3.3 0l-4 1.9-4.9 2.2c-.7.4-1.5.7-2.2 1.1l-1.9 1c-.8.4-1.6.7-2.5 1-.4.2-.9.3-1.3.5s-.9.4-1.3.7l-1.9.9c-.7.3-1.3.7-2 1a30.9 30.9 0 0 1-3.2 1.4c-2.1 1-3.1 3.4-2.2 5.6.4.8.9 1.5 1.7 1.9.3 0 .7-.1 1-.1l.2.3zM102.1 65.7l1.4-.9c1.2-.8 2.4-1.5 3.7-2.2l4-2.2 2.1-1c.7-.3 1.3-.6 2-1l4-2.1 2.2-1.1 1.9-.9 4.2-2.4 3.9-2.2 8.4-4.3 4.2-2.2 2.1-1c.7-.3 1.3-.7 2-1l4.2-2c.7-.3 1.3-.8 2-1.1s1.4-.7 2-1l4.3-2 4.2-1.9 4-1.8c2.3-.9 4.4-2.2 6.6-3.4.5-.2 1-.5 1.5-.7l1.8-.8c.6-.3 1.1-.5 1.6-.7l2-.9c.7-.4 1.1-1.3.7-2s-1.3-1.1-2-.7-1.5.7-2.2 1l-2.2.9-2 .9c-.7.3-1.4.7-2 1-1.3.7-2.6 1.5-3.9 2-.7.3-1.4.5-2.1.9l-2.1 1-2 1-2.2 1-4.2 1.9-2.1 1-2 1.1c-1.4.8-2.8 1.5-4.2 2.1l-1.9.9-2.1 1-4.3 2.2-2.1 1.1-1.9 1-4.1 2.1-4.1 2.2-4 2.4c-1.3.8-2.7 1.4-4.1 2.1l-4.2 2.2-3.4 1.7c-1.2.6-2.3 1-3.4 1.7l-3.4 2-3.3 2 .1-.1-.7.5c-.7.4-1.1 1.2-.7 2 .3.5.8.8 1.4.9.2 0 .4 0 .6-.2h-.2zm-17-2.9c.4 0 .8-.2 1.2-.3l.5-.2 1-.5c.7-.3 1.3-.7 2-1.1l4.1-2.2 3.9-2.3 4-2.2 4.4-2.2 4-2.1 4-2.3 4.2-2.3 8.4-4.5 4-2.2 4.2-2.5 4-2.2c1.3-.7 2.7-1.5 4.2-2s2.9-1.1 4.3-1.9l4.3-2.3 2.9-1.3 1.3-.6c.5-.2 1-.5 1.4-.8h0c.7-.4 1.3-.9 1.9-1.3.6-.5.7-1.5.2-2.1-.3-.3-.6-.5-1.1-.5-.4 0-.8.1-1.1.3-.5.4-1 .7-1.5 1l-.1.1c-1.2.7-2.5 1.3-3.8 1.8-1.5.6-2.9 1.5-4.3 2.2l-4.2 2-2.2.9-2.1 1-4.2 2.3-4 2.3-8.3 4.7-4 2.2-4.2 2.2c-1.4.7-2.7 1.6-4.1 2.4a12.81 12.81 0 0 1-2 1.1c-.7.3-1.3.7-2 1.1l-8.4 4.3-4.1 2.4-3.9 2.3-2.7 1.4c-.9.5-1.8.9-2.7 1.3h-.3c-.4.1-.8.3-1 .6-.4.7-.2 1.6.6 2.1h0c.3.2.6.3.9.2l.4-.3zm72.8-38.5l-.3.2.3-.2zM71 58.7c1.4-.6 2.8-1.4 4.1-2.2l1.9-1c.6-.3 1.4-.8 2.1-1.2l3.8-2.4 4-2.3c1.3-.8 2.5-1.3 3.8-2l3.7-1.9c1.3-.6 2.6-1.3 3.8-2l3.8-2.3c2.6-1.6 5.4-3 8.2-4.3l2.1-1c.7-.3 1.3-.7 2-1l4.1-2.4 4.3-2.9 6.7-3.9c1.1-.6 2.3-1.1 3.5-1.6l3.6-2a2.36 2.36 0 0 0 .8-.9c.1-.4.1-.8-.1-1.1-.2-.4-.5-.6-.9-.8-.4-.1-.8-.1-1.1.1l-2.2 1.1c-.7.4-1.4.7-2.1 1-1.5.6-2.9 1.4-4.3 2.1s-2.7 1.5-4 2.4l-2.3 1.5-1.8 1.3-.7.4-4 2.4-4.1 2.2-8.3 4.3-2.3 1.5c-2.7 1.7-5.5 3.1-8.3 4.6l-4.1 2.1-4.1 2.3-3.1 1.9a23.81 23.81 0 0 1-3 1.8L73 54.3 69.8 56c-.8.3-1.1 1.2-.8 2 .2.5.8.9 1.4.8.2 0 .4 0 .6-.1h0zm28.1-19h0zm18.7-10.3l.2-.1-.2.1zM56.3 54l4.2-2 4.2-2.3 8.2-4.9 3.9-2.3c1.3-.8 2.9-1.5 4.3-2.3l8.3-4.6 4.2-2.2 4.1-2 11.8-6.6c1.1-.7 2.4-1.3 3.5-1.9s2.4-1.1 3.6-1.7c1.3-.6 2.6-1.2 3.8-2 .4-.2.6-.5.8-.9.1-.4.1-.8-.1-1.1-.2-.4-.5-.6-.8-.8-.4-.1-.8-.1-1.2.1l-2.2 1.3c-.7.4-1.4.7-2.1 1l-4.4 2.1-3.9 2.1-4.1 2.3-4.3 2.5c-1.4.8-2.8 1.4-4.2 2.1L89.7 32l-8.4 4.6-4.1 2.2-8.3 4.8-3.4 2-3.3 1.9-3.6 1.9-3.7 1.8c-.7.4-1.1 1.3-.7 2 .3.5.8.8 1.4.8.3.1.5.1.7 0h0zm-12.8-5.1l2.1-.9c.7-.3 1.3-.6 1.9-1 1.4-.7 2.7-1.6 4-2.4l8-4.9 4.2-2.4 4-2.1 4.3-2.3 4.1-2.2 8.2-4.6 8.3-4.8c3.3-1.7 6.5-3.7 9.6-5.8.6-.5.7-1.5.2-2.1s-1.5-.7-2.1-.2c-.5.4-1.1.8-1.6 1.2l-4 2.4c-1.4.8-2.7 1.6-4 2.4L82.4 24c-1.4.8-2.8 1.5-4.2 2.3l-4.1 2.3c-1.4.8-2.7 1.4-4.1 2.2s-2.8 1.5-4.2 2.3-2.7 1.4-4.1 2.1-2.8 1.6-4.1 2.4l-4.1 2.5-4 2.4c-1.2.7-2.3 1.4-3.6 2-.5.3-1.1.5-1.6.8s-1.3.6-2 .9c-.8.3-1.2 1.1-.9 1.9.2.5.5.8 1 .9a.9.9 0 0 0 .5.1c.2 0 .4-.1.6-.2h0zm-15.9-5.7c2.8-1.2 5.4-2.7 8.1-4.1l4.3-2.2 4.2-2.1L61 26.1l4.1-2.1 4.5-2.4 4-2.2L78 17l4.5-2.6 4.6-2.3c.7-.4 1.1-1.3.7-2s-1.3-1.1-2-.7l-4.2 2.1c-1.4.7-2.7 1.6-4.1 2.4l-4.1 2.3-4.2 2.3-12.6 6.6-8.6 4.3-4.1 2.2-4.1 2.1c-.7.3-1.3.7-2 1.1L35.3 36l-8.9 4.5c-.7.4-1 1.3-.6 2 .3.5.7.8 1.3.8.1 0 .3 0 .5-.1h0zm324 23c-.5.2-1 .5-1.5.7s-1 .5-1.5.6l-1.4.5-1.8.7-3.3 1.5-1.6.7c-.7.2-1.3.5-2 .7-.4.2-.8.6-.9 1-.3.9.2 1.9 1.1 2.2.4.1.9.1 1.3-.1.6-.2 1.3-.4 1.9-.7s1-.4 1.5-.6l3.4-1.5 3.2-1.3 1.5-.6c.5-.2 1-.5 1.6-.8.9-.4 1.3-1.4.9-2.3a1.78 1.78 0 0 0-1.6-1l-.8.3zm2.7 9.8l-2.9 1.9c-1.5.9-3 1.6-4.5 2.4a12.81 12.81 0 0 0-2 1.1c-.6.4-1.4.8-2.1 1.2-1.6.8-3.2 1.5-4.8 2.1l-2.5 1c-.4.2-.7.3-1.1.4a3.79 3.79 0 0 0-1.3.6c-.4.2-.7.6-.9 1-.3.9.2 1.9 1.1 2.2.4.2.9.2 1.3 0s.8-.4 1.2-.5l1.2-.4 2.5-1 4.8-2.1 4.2-2.4 4.9-2.7 3.1-2c.4-.3.6-.7.6-1.2s-.1-.9-.4-1.3-.7-.6-1.2-.6h-.1c-.4 0-.8.1-1.1.3h0zm-.7 14l-2.7.8-.4.1-2.8 1-1.5.6c-.5.2-1 .4-1.5.7-.9.4-1.3 1.4-.9 2.3s1.4 1.3 2.3.9l1.3-.6 1.2-.5c.9-.3 1.7-.7 2.6-.9l.9-.3 1.9-.6c.4-.1.8-.3 1.1-.7s.4-.9.3-1.3c-.1-.5-.3-.9-.7-1.1-.3-.2-.6-.3-1.1-.4h0zm-1 14.5l-5.2 2.2-2.5 1-2.5.9-2.1.6-3.1.8c-1 .2-2.2.3-3.3.7-.5.1-.9.3-1.1.7-.3.4-.4.9-.3 1.3.1.5.3.9.7 1.1.4.3.9.4 1.3.3 1.3-.4 2.6-.5 3.9-.8 1.4-.3 2.7-.7 4-1.1l3-1 2.9-1 6-2.5c.9-.4 1.3-1.4.9-2.3a1.78 1.78 0 0 0-1.6-1c-.2 0-.5.1-.7.2l-.3-.1zm-12.5 4.7l-.2.1.2-.1zm2.4 3h-.1.1zm5.5 6.5l-3.3 1.3-2.9 1.2c-.4.2-.8.6-.9 1-.2.4-.1.9.1 1.3s.6.8 1 .9.9.1 1.3-.1c.9-.3 1.9-.7 2.8-1.1l3.5-1.4c.9-.4 1.3-1.4.9-2.3a1.78 1.78 0 0 0-1.6-1c-.4 0-.7.1-.9.2h0zM4.5 63.7c-.5.8-.3 1.9.5 2.5l3.4 2.4c1.3.8 2.7 1.5 4.1 2l4 1.5c1.4.5 2.7.8 4 1.2.9.3 1.9-.2 2.2-1.1s-.1-1.9-1-2.2l-2.7-.8-2.9-1-5-2c-1.6-.9-2.9-1.9-4.2-2.9-.2-.2-.5-.3-.9-.3-.6 0-1.1.3-1.5.7h0zm.7 11.6c-.5.8-.4 1.9.4 2.4l2.5 1.5 2.1 1.2c1.6.9 3.3 1.7 5 2.4 1.6.6 3.2 1.1 4.9 1.5 1.8.4 3.7.6 5.6.9l3.3.6 1.9.5c.9.4 1.9 0 2.3-.9s0-1.9-.9-2.3c-.1 0-.1 0-.2-.1-3.6-1.2-7.4-1.3-11-2-2.7-.7-5.3-1.6-7.8-2.9-1.9-1-3.8-2.1-5.7-3.3a1.69 1.69 0 0 0-1-.3c-.5.1-1 .4-1.4.8h0zM5.9 90c-.9.4-1.3 1.4-.9 2.3.2.4.6.7 1 .9 1.1.6 2.3 1.1 3.5 1.5 1.1.4 2.3.8 3.5 1 1.3.3 2.7.5 4 .7l1.9.3 1.8.1c1 .1 1.8-.6 1.9-1.6s-.6-1.8-1.6-1.9l-3.5-.4-3.5-.6-3.3-1-3.5-1.5c-.2-.1-.4-.1-.5-.1l-.8.3zm0 13.1c-.5.8-.4 1.9.4 2.4.9.7 1.9 1.3 2.9 1.8l2.7 1.1c.9.4 1.9-.1 2.3-1s-.1-1.9-1-2.3h-.1l-2.4-1-2.4-1.5a1.69 1.69 0 0 0-1-.3c-.5 0-1 .3-1.4.8h0zm3.6 16.8c-.5.1-.9.3-1.1.7-.3.4-.4.9-.3 1.4s.3.9.7 1.1l1.9 1.1c.7.4 1.4.7 2.1 1 1.5.5 3 .9 4.6 1 1 .1 1.8-.6 1.9-1.6s-.6-1.8-1.6-1.9c-.6 0-1.2-.1-1.7-.2-1-.2-2-.6-3-1.1l-2.2-1.2a1.69 1.69 0 0 0-1-.3h-.3z"/><path d="M123.1 135.9c-.2-.4-.2-.8.3-1.1l2.5-2.2c.5-.4.9-.3 1.2.1 1.8 2.7 3.8 4.5 7.2 5 3.8.5 6.3-.9 6.8-4.1.4-3.1-1.6-4.7-4.5-6.5l-4.1-2.7c-3.5-2.4-6.2-5.5-5.5-10.4.9-6.1 6.1-8.9 12-8.1 4.2.6 7.3 2.8 9.5 6.2.4.5.2.8-.2 1.2l-2.5 2.2c-.4.4-.8.4-1.2-.1-1.8-2.4-3.6-3.8-6.2-4.2-3-.4-5.4.8-5.8 3.6-.3 2.4.9 3.8 3.7 5.6l3.7 2.4c3.8 2.5 7.5 5.6 6.6 11.5-1 6.7-6.8 9.5-13.1 8.5-5.4-.6-8.8-3.7-10.4-6.9zm31.1 3l1.2-15-3.3-.3c-.5 0-.7-.4-.7-.8l.2-2.9c0-.5.3-.8.8-.7l3.3.3.5-6c0-.5.3-.8.8-.7l4.2.3c.5 0 .7.4.7.8l-.5 6 4.1.3c.5 0 .8.4.7.8l-.2 2.9c0 .5-.4.8-.8.7l-4.1-.3-1.1 14.4c-.1 1.7.6 2.5 2.1 2.6h1.6c.6 0 .9.3.9.8l-.2 2.7c-.1 1-2.4 1.2-3.9 1-4-.2-6.7-2.2-6.3-6.9zm14.3-5.7c.1-7.5 5.8-13.3 13.4-13.2 7.5.1 13.1 6 13 13.5s-5.8 13.3-13.3 13.2c-7.6 0-13.2-5.9-13.1-13.5zm20.9.3c.1-4.9-3.3-8.2-7.7-8.2s-7.8 3.2-7.9 8.1 3.3 8.2 7.7 8.2c4.5 0 7.9-3.2 7.9-8.1zm10.9 11.6l-1.4-23.9c0-.5.2-.8.7-.8l3.9-.2c.5 0 .7.2.8.8l.3 3.1c.8-2.6 2.3-4.7 5.4-4.8 1.1-.1 1.9.1 2.4.4.4.2.5.5.5 1l.2 3.2c0 .6-.3.7-1 .6-.6-.1-1.2-.2-1.9-.1-4 .2-5.4 3.5-5.2 6.8l.8 13.7c0 .5-.2.8-.7.8l-4.2.2c-.3 0-.5-.3-.6-.8zm16.5-13c-.9-7.4 3.5-13.8 11.2-14.8 7.6-1 12.7 4.2 13.5 10.5.3 2.2 0 3.4-2 3.6l-17 2.2c1.2 3.9 4.5 6.2 9.5 5.6 2.5-.3 4.4-1.2 6.3-2.8.3-.2.6-.2.8 0l1.7 1.8c.4.4.3.7-.1 1.2-1.9 2.4-5.1 3.9-8.6 4.3-8.3 1.1-14.4-4.1-15.3-11.6zm19.6-4.4c-.8-4.1-3.9-6.2-7.9-5.7s-6.6 3.3-6.6 7.5l14.5-1.8z" enable-background="new"/></svg>