<?xml version="1.0" encoding="utf-8"?>
<!-- Generator: Adobe Illustrator 24.1.3, SVG Export Plug-In . SVG Version: 6.00 Build 0)  -->
<svg version="1.1" id="Layer_1" xmlns="http://www.w3.org/2000/svg" xmlns:xlink="http://www.w3.org/1999/xlink" x="0px" y="0px"
	 viewBox="0 0 362.3 187.2" style="enable-background:new 0 0 362.3 187.2;" xml:space="preserve">
<style type="text/css">
	.st0{fill:#FFFFFF;}
</style>
<path class="st0" d="M14.4,36.9c0.2-0.1,0.4-0.3,0.6-0.4c0.3-0.2,0.6-0.3,0.9-0.4c0.5-0.2,1-0.5,1.5-0.8c1.2-0.7,2.4-1.3,3.6-1.9
	s2.4-1.1,3.6-1.8c1.4-0.8,2.7-1.6,4.1-2.3c3.3-1.8,6.8-3,10-4.9s6.3-3.8,9.6-5.5c2.4-1.3,4.9-2.4,7.4-3.5c1-0.4,2.1-0.8,3.1-1.1
	l-1,0.4c2.7-1,5.3-2.2,8-3.4s5.1-2.2,7.6-3.3c1-0.5,1.7-1.4,2.1-2.5c0.7-2.2-0.6-4.6-2.8-5.3c0,0,0,0,0,0c-1.1-0.3-2.2-0.2-3.2,0.3
	c-2.4,1-4.9,2-7.3,3.1s-4.6,2.1-6.9,3l-0.3,0.1C53,7.4,51.2,8,49.4,8.9s-3.4,1.6-5.1,2.5c-3.3,1.8-6.4,3.8-9.6,5.6s-6.7,3.1-10,4.9
	c-1.4,0.8-2.8,1.5-4.1,2.3c-1.1,0.7-2.4,1.2-3.6,1.8s-2.6,1.3-3.8,2c-0.5,0.3-1,0.5-1.4,0.8c-0.2,0.1-0.4,0.2-0.6,0.3
	c-0.3,0.1-0.7,0.3-0.9,0.6c-1.9,1.2-2.6,3.7-1.6,5.7c0.7,1.4,2.2,2.2,3.8,2.2C13.1,37.4,13.7,37.2,14.4,36.9L14.4,36.9z"/>
<path class="st0" d="M198.9,84.3c2.2,0,4.4-0.2,6.5-0.2s4.4,0,6.6,0c4.1,0.1,8.2,0.1,12.2-0.1c3.8-0.2,7.6-0.6,11.5-0.8
	c0.4,0,0.8-0.1,1.2-0.1c0.3,0,0.7,0,1,0c1.5-0.1,3-0.2,4.5-0.3c2.4-0.2,4.8-0.5,7.1-0.8c4.2-0.5,8.4-1.2,12.7-1.9
	c2.1-0.3,4.2-0.7,6.3-1c1.9-0.3,3.9-0.6,5.8-0.9c4.1-0.8,8.2-1.8,12.3-2.8c2-0.5,4-1,6-1.5s4.1-1,6.1-1.6c3.9-1.2,7.8-2.6,11.6-3.8
	c1.8-0.6,3.7-1.1,5.5-1.6c2.1-0.7,4.1-1.4,6.1-2.3c1.5-0.7,3-1.4,4.6-2.1s3.2-1.5,4.8-2.2s3.2-1.5,4.9-2.2s3.3-1.5,5-2.3
	s3.6-1.5,5.4-2.3c1.6-0.7,3.1-1.5,4.6-2.3c0.8-0.4,1.6-0.9,2.4-1.4s1.4-0.8,2.1-1.2c1.8-1.2,3.4-2.5,5.1-3.7
	c0.3-0.2,0.6-0.5,0.8-0.8c-0.1-0.2-0.2-0.5-0.2-0.7c-0.2-0.6-0.4-1.1-0.6-1.7c-0.1-0.3-0.2-0.5-0.3-0.8s-0.1-0.4-0.2-0.6
	c-0.2-0.3-0.4-0.6-0.6-0.9c-0.5-0.5-0.9-1.1-1.4-1.7l-0.1-0.1l0-0.1l0,0c-1.1,0-2.2,0.4-3,1.1c-0.9,0.7-1.7,1.3-2.6,2
	c-1.1,0.7-2.3,1.4-3.5,2.1c-1.5,0.8-3,1.7-4.5,2.4c-3.2,1.5-6.5,2.7-9.7,4.2s-6.5,2.9-9.7,4.4c-2.9,1.3-5.7,2.8-8.6,3.9
	c-3.4,1.2-7,2.1-10.5,3.3c-3.8,1.3-7.6,2.6-11.5,3.7c-2.1,0.6-4.2,1-6.3,1.6s-4.1,1-6.1,1.5c-3.9,1-7.8,1.8-11.8,2.5
	c-9,1.4-18.1,3.1-27.2,4c-4,0.4-8,0.5-12.1,0.8s-7.8,0.5-11.6,0.6c-1.8,0-3.7,0-5.5,0c-2.4,0-4.9,0-7.4,0c-2.2,0-4.3,0.2-6.5,0.2
	s-4.1,0-6.1,0l-12.4-0.2c-4.1-0.1-8.3-0.4-12.4-0.7s-8.3-0.5-12.4-0.8c-2.1-0.2-4.2-0.4-6.3-0.7s-4.1-0.4-6.2-0.7
	c-3.1-0.3-6.2-0.8-9.3-1.2c-4.2-0.7-8.4-1.5-12.6-2.2l-2.9-0.5h-0.1h-0.1c-4-0.7-8.1-1.5-12.1-2.4s-8.3-1.8-12.4-2.9
	s-8.2-2-12.3-3.2s-8.2-2.5-12.3-3.7l-19.2-5.9c-2.9-0.9-5.9-1.8-8.7-2.9c-1.5-0.6-2.9-1.3-4.4-1.9s-2.8-1-4.1-1.6
	c-0.8-0.4-1.6-0.8-2.3-1.3c-1-0.6-2.1-1.1-3.1-1.8c-0.7-0.5-1.4-1-2.2-1.5c-0.7-0.4-1.3-0.9-1.9-1.3c-2-1.5-4.3-2.7-6.3-4.3
	c-0.2-0.2-0.5-0.4-0.7-0.7c-0.5-0.5-1-0.9-1.6-1.3c-0.1-0.1-0.2-0.2-0.2-0.3c-0.4-0.4-0.8-0.7-1.3-1c-1-0.6-2.1-0.8-3.3-0.5
	c-2.3,0.5-3.7,2.8-3.2,5.1c0,0,0,0,0,0c0.3,1,0.9,1.9,1.7,2.5c0.3,0.3,0.6,0.7,1.1,1c0.2,0.1,0.3,0.2,0.5,0.3s0.3,0.3,0.5,0.5
	c0.7,0.6,1.3,1.2,2,1.7s1.8,1.2,2.6,1.7s2,1.3,3,2c0.5,0.3,0.9,0.7,1.4,1s1.2,0.8,1.8,1.2c3.3,2.3,7,4.3,10.8,5.7
	c1.9,0.7,3.7,1.5,5.5,2.3c1.9,0.8,3.8,1.5,5.7,2.1c8.1,2.5,16.1,5,24.2,7.4c4,1.2,8,2.4,12,3.6s8.2,2.1,12.3,3.2
	c2.1,0.6,4.2,1.1,6.4,1.6s4.5,1,6.8,1.5c4.5,0.9,9.1,1.9,13.7,2.6l3.9,0.7c4.5,0.8,9,1.6,13.5,2.3c4.1,0.7,8.3,1,12.4,1.4
	c4.3,0.4,8.6,0.9,12.9,1.2c4,0.2,8,0.5,12.1,0.8c2,0.1,4,0.2,6,0.3c2.2,0.1,4.3,0.1,6.5,0.1c3.5,0.1,7,0.2,10.5,0.2L198.9,84.3z
	 M134.7,71.5l-0.7-0.1L134.7,71.5z M118.9,68.8l-0.7-0.1L118.9,68.8z"/>
<path class="st0" d="M119.3,68.8L119.3,68.8L119.3,68.8L119.3,68.8L119.3,68.8z"/>
<path class="st0" d="M358.5,146.1c0.1-2.5-0.4-4.9-0.2-7.4c0.1-1.2,0.3-2.4,0.3-3.5s0.1-2.4,0.1-3.6c0-1.6-0.1-3.2-0.1-4.8
	c0-1.4,0.2-2.8,0.2-4.2c0-1.6,0.2-3.2,0.2-4.8c0-1.3,0.2-2.6,0.3-3.9c0.2-2.8,0.2-5.6,0.5-8.4c0.3-3.2,0.1-6.4,0.5-9.5l-0.1,0.6
	c0.2-1.3,0.4-2.7,0.6-4l-0.1,0.7c0.4-2.2,0.6-4.5,0.8-6.7c0.1-1.8,0.1-3.6,0.2-5.4c0.2-2.5,0.3-4.9,0.4-7.4c0-1.2,0.1-2.5,0.1-3.7
	c0-0.6,0-1.2,0-1.8c0-0.7-0.1-1.3-0.1-2l-0.1-0.6c-0.1-1.8-0.3-3.6-0.2-5.4c0-0.9,0.1-1.8,0.2-2.7c0-0.9,0-1.8,0-2.7
	c-0.1-1.6-0.3-3.3-0.2-4.9s0.1-3.2,0.2-4.8c-0.2-0.5-0.3-1-0.5-1.6s-0.4-1.2-0.6-1.7c-0.1-0.3-0.2-0.5-0.3-0.8l-0.2-0.5
	c-0.7-0.5-1.5-0.8-2.4-0.8c-1.1,0-2.2,0.4-3,1.1c-0.8,0.8-1.3,1.9-1.4,3c-0.2,1.9-0.2,3.9-0.2,5.8c0,1.8,0.2,3.5,0.2,5.3
	s-0.2,3.8-0.2,5.7c0,2,0.1,3.9,0.4,5.8c0,0.5,0.1,1.1,0.2,1.6l-0.1-1.1c0.1,1,0.1,2.1,0,3.1c-0.1,1.2-0.1,2.5-0.1,3.7
	c-0.1,2.4-0.2,4.8-0.4,7.2c-0.1,1.7,0,3.4-0.2,5c-0.2,2-0.3,4-0.6,6c0-0.3,0.1-0.6,0.1-0.8c-0.2,1.3-0.4,2.6-0.6,3.9l0.1-0.6
	c-0.3,1.7-0.5,3.5-0.5,5.2c0,1.6,0,3.2-0.1,4.9c-0.1,1.6-0.3,3.2-0.3,4.7c0,1.4-0.1,2.7-0.2,4.1s-0.3,2.6-0.3,3.9
	c0,1.6-0.2,3.2-0.2,4.8c0,1.4-0.1,2.8-0.2,4.2c0,1.6,0,3.3,0.1,4.9c0,1.2-0.1,2.5-0.1,3.7c0,0.6,0,1.2-0.1,1.8
	c-0.1,0.6-0.2,1.2-0.2,1.9c-0.2,2.5,0.3,5,0.2,7.5c0,2.3,1.8,4.3,4.1,4.4h0.1C356.5,150.2,358.4,148.4,358.5,146.1L358.5,146.1z"/>
<path class="st0" d="M197.3,187l6.4-0.3c2.1-0.1,4.1-0.1,6.2-0.2c4.1-0.2,8.2-0.7,12.4-0.9c2.9-0.2,5.9-0.5,8.8-0.8s5.7-0.6,8.6-1
	s5.6-0.7,8.4-1.1c2.5-0.3,4.9-0.7,7.4-0.9c2.3-0.2,4.7-0.5,7-0.8c2-0.3,4.1-0.7,6.1-1.1s3.9-0.9,5.9-1.1s4-0.5,6-0.9
	c4.1-0.8,8.1-1.7,12.2-2.7s8.2-1.9,12.3-3c3.9-1,7.6-2.3,11.4-3.8c1.8-0.7,3.6-1.5,5.3-2.3c1.6-0.7,3.2-1.4,4.9-2
	c5-1.8,9.9-3.9,14.8-6c2.2-0.9,4.3-2.1,6.4-3.1c2.2-1.1,4.3-2.4,6.4-3.8c1-0.5,1.7-1.4,2.1-2.5c0.7-2.2-0.6-4.6-2.8-5.3
	c-1.1-0.3-2.2-0.2-3.2,0.3c-1.9,1.3-3.9,2.5-6,3.6c-2,1-3.9,2-5.9,2.9s-4.3,1.8-6.4,2.6c-2.4,1-4.7,2-7.2,2.9l0.3-0.1
	c-2.4,0.9-4.8,1.9-7.2,2.9s-4.5,2-6.8,2.9c-1.8,0.7-3.7,1.3-5.5,1.8s-4,1.1-6,1.5c-4.1,1-8.3,1.9-12.4,3c-2,0.5-4,0.9-6.1,1.3
	s-4,0.8-6.1,1.1s-3.9,0.5-5.8,0.9s-4.1,0.8-6.1,1.2c-2.2,0.4-4.5,0.7-6.7,0.9c-2.5,0.2-5,0.5-7.5,0.9s-5.1,0.7-7.7,1
	c-5,0.6-10,1.1-14.9,1.7c-1.8,0.1-3.5,0.3-5.3,0.4c-2.1,0.1-4.3,0.4-6.4,0.5c-4.1,0.3-8.2,0.3-12.3,0.5s-8.2,0.5-12.4,0.3
	c-4.3-0.1-8.6-0.4-13-0.5c-3.7,0-7.4-0.2-11.1-0.5s-7.5-0.7-11.3-0.9s-7.7-0.3-11.6-0.7s-7.8-0.6-11.6-1.2c-2.8-0.5-5.6-1-8.4-1.4
	s-5.5-0.7-8.2-1.1c-2.4-0.4-4.8-0.9-7.3-1.3l1.1,0.2c-1.6-0.3-3.2-0.6-4.7-0.8l1.1,0.2c-4-0.7-8-1.6-12-2.6
	c-2.1-0.5-4.2-0.9-6.3-1.4s-4-1-5.9-1.6s-4.2-1.2-6.3-1.9c-1.9-0.6-3.8-0.9-5.8-1.4c-4.1-1.1-8.1-2.3-12.1-3.5
	c-3.5-1.1-7-2.1-10.3-3.4c-1.7-0.7-3.4-1.5-5.2-2.1c-1.5-0.6-3-1.1-4.5-1.8c-1.2-0.6-2.5-1.3-3.7-2c-1.7-1-3.5-1.8-5.3-2.6
	c-0.9-0.4-1.8-0.9-2.6-1.3s-2-0.8-3-1.2s-2-0.8-3-1.2s-1.9-0.6-2.8-1l-0.9-0.4l0.5,0.2c-1.3-0.6-2.6-1.4-3.8-2.2l-0.6-0.6l0.4,0.4
	l-0.1-0.1c-1.6-1.7-4.3-1.8-6-0.2s-1.8,4.3-0.3,6l0,0c0.2,0.2,0.5,0.5,0.8,0.7c0.7,0.6,1.4,1.2,2.1,1.7c1.4,0.9,2.8,1.7,4.3,2.3
	l-1-0.5c1.1,0.5,2.2,1,3.3,1.4c0.9,0.3,1.8,0.7,2.6,1.1c1.6,0.7,3.3,1.2,4.9,2l3.5,1.6c1.7,0.8,3.3,1.9,5,2.7c2.1,1,4.2,2,6.4,2.8
	c3.9,1.4,7.6,3.2,11.6,4.5s7.9,2.4,11.8,3.6c2,0.6,4,1.2,6.1,1.7s3.9,0.9,5.9,1.5c5.1,1.5,10.2,3,15.3,4.1c2.6,0.5,5.2,1.1,7.7,1.7
	c2.9,0.7,5.8,1.2,8.7,1.7l-1.2-0.2c1.3,0.2,2.6,0.4,3.8,0.7c2.8,0.5,5.7,1.1,8.5,1.4c2.6,0.3,5.2,0.7,7.8,1.1
	c4,0.7,7.9,1.4,11.9,1.8c2.1,0.2,4.3,0.4,6.4,0.6s4,0.4,6,0.5c2.2,0.1,4.5,0.2,6.7,0.3c1.9,0.1,3.8,0.3,5.8,0.4
	c4.1,0.4,8.3,0.6,12.5,0.8c1.9,0.1,3.9,0.1,5.8,0.1c2.2,0.1,4.4,0.2,6.6,0.2s4.1,0.2,6.2,0.2h0.9C193.9,187.2,195.6,187.1,197.3,187
	L197.3,187z M11.6,139l0.1,0.1L11.6,139z"/>
<path class="st0" d="M8.3,144.4c2.3-0.6,3.7-2.8,3.2-5.1c-0.8-3.3-1.5-6.6-1.9-10c-0.3-3.5-0.3-7-0.4-10.5C9,116.8,8.9,114.9,9,113
	s0.1-4,0.3-6.1c0.1-2.2,0-4.4-0.2-6.6C8.9,98.5,9,96.8,9,95s0-3.8-0.1-5.8c-0.1-2-0.1-4,0.1-6c0.2-3.3-0.1-6.6-0.2-9.9
	c0-1.8,0.1-3.5,0.1-5.2c0-0.9,0-1.8,0-2.7s-0.2-2-0.3-3c-0.1-2.1,0.1-4.2,0.3-6.2c0.2-1.7,0.2-3.3,0.4-5c0.5-2.3,1.1-4.7,1.9-6.9
	c0.5-1.5,0.9-3.1,1.4-4.6c1.2-2,0.6-4.6-1.4-5.9s-4.6-0.6-5.9,1.4c-0.6,1-1,2.1-1.3,3.2c-0.2,0.7-0.4,1.3-0.6,2
	C3,41.9,2.5,43.4,2,45c-0.3,1.1-0.6,2.2-0.8,3.3c-0.3,1.9-0.5,3.8-0.7,5.7c-0.2,1.6-0.2,3.3-0.4,5C0,59.9,0,60.9,0,61.8
	c0.1,1.1,0.2,2.1,0.4,3.2c0.1,1.6,0,3.2,0,4.9c-0.1,1.8-0.1,3.6,0,5.4s0.2,3.4,0.2,5.1c0,2-0.2,4-0.2,6s0.2,4,0.2,6.1
	c0,1.8-0.1,3.5-0.1,5.3c0,2,0.3,4,0.4,6s-0.1,4-0.2,6c-0.2,2.7-0.2,5.4-0.1,8.1c0.1,2.3,0.2,4.5,0.3,6.8c0.1,3,0.3,6,0.8,9
	c0.2,1.2,0.5,2.4,0.7,3.5c0.3,1.3,0.6,2.7,0.9,4c0.5,1.9,2.2,3.3,4.2,3.3C7.7,144.4,8,144.4,8.3,144.4L8.3,144.4z"/>
<path class="st0" d="M116.8,73c1.4-0.4,2.8-1,4.1-1.7c1.3-0.6,2.6-1.2,4-1.8c1.6-0.7,3.1-1.3,4.7-2c2-0.9,3.9-1.9,5.8-2.8
	c3.3-1.6,6.4-3.4,9.6-5.2c1.7-1,3.5-1.9,5.3-2.9s3.5-1.8,5.3-2.6c3.6-1.7,7.2-3.4,10.7-5.2c1.8-0.9,3.5-1.8,5.2-2.8
	c1.6-0.9,3.2-1.6,4.8-2.5c3.3-1.8,6.7-3.4,10-5c2-1,4-1.9,5.9-2.9s3.6-2,5.4-2.9c1-0.5,2-1.1,3.1-1.7s2.1-1,3.1-1.6
	c2.2-1.2,4.4-2.4,6.8-3.3l2.9-1.1c1.2-0.4,2.4-0.9,3.5-1.5c1.1-0.6,2.2-1.3,3.2-2.1l0.9-0.6c0.6-0.5,1-1.2,1.2-1.9
	c0.3-1.1,0.2-2.2-0.3-3.2c-0.4-0.7-0.9-1.3-1.6-1.7l0,0c-0.5,0.2-1.1,0.4-1.7,0.4c-0.6,0.1-1.2,0.1-1.8,0.1h0.1
	c-0.6,0-1.2,0.1-1.8,0.1c-1.2,0.8-2.4,1.5-3.8,2.1c-0.9,0.3-1.8,0.7-2.7,1c-1.8,0.6-3.5,1.3-5.2,2.1c-1.6,0.9-3.3,1.8-4.9,2.6
	c-3.3,1.6-6.4,3.5-9.7,5.2c-3.6,1.9-7.4,3.5-11.1,5.4c-1.6,0.8-3.3,1.7-4.9,2.5c-0.8,0.4-1.6,0.8-2.4,1.2s-1.7,0.8-2.5,1.2
	c-1.7,0.9-3.4,1.8-5.1,2.7s-3.4,1.7-5.1,2.5s-3.7,1.8-5.5,2.6s-3.6,1.8-5.3,2.7c-3.4,1.7-6.7,3.7-10.1,5.6c-1.6,0.8-3.2,1.7-4.8,2.5
	c-1.9,1-3.9,1.9-5.8,2.8c-2.3,1.1-4.7,1.9-6.9,3c-0.9,0.4-1.8,0.8-2.6,1.2c-0.6,0.3-1.2,0.6-1.7,0.8h-0.1c-2.3,0.5-3.7,2.8-3.2,5.1
	c0.5,1.9,2.2,3.3,4.2,3.3C116.2,73,116.5,73,116.8,73L116.8,73z M211.6,16.7l0.8-0.3L211.6,16.7z"/>
<path class="st0" d="M247.8,79.3c1-0.6,2-1.1,3.1-1.5c1.4-0.6,2.8-1.2,4.1-1.9c1.6-0.7,3.2-1.4,4.7-2.1s3.2-1.6,4.8-2.3
	c7-3.4,14.1-6.3,20.8-10.2c2.9-1.7,5.9-3.3,9-4.7c1.6-0.7,3.1-1.5,4.7-2.1s3.3-1.4,4.9-2.2s3.1-1.5,4.6-2.3l4.6-2.1
	c1.5-0.7,3.1-1.4,4.6-2.1c1.2-0.6,2.4-1.1,3.7-1.6l5.2-1.8c1.7-0.5,3.5-1,5.3-1.3c1.8-0.4,3.7-0.8,5.5-1.2c1.6-0.3,3.3-0.7,4.9-0.9
	c0.9-0.1,1.8,0,2.7,0.1c1.6,0.3,3.2,0.8,4.6,1.5c0.5,0.2,0.9,0.5,1.4,0.8s1,0.5,1.4,0.8s0.7,0.8,1.1,1.2c0.7,0.7,1.3,1.5,2,2.2
	c1.6,1.7,4.3,1.8,6,0.2c0.1-0.1,0.2-0.2,0.3-0.3l-0.1-0.3c-0.2-0.6-0.4-1.2-0.6-1.7s-0.4-1.2-0.6-1.7c-0.1-0.3-0.2-0.5-0.3-0.8
	s-0.1-0.4-0.2-0.6c-0.2-0.3-0.4-0.6-0.6-0.9c-0.5-0.6-0.9-1.1-1.4-1.7l-0.1-0.1l-0.2-0.3c-0.9-1.1-1.9-2.1-3-3.1
	c-0.5-0.5-1.1-0.9-1.6-1.4l-0.3-0.2c-1.6-0.7-3.2-1.3-4.8-1.7c-1.2-0.3-2.3-0.5-3.5-0.6c-1.2-0.1-2.4,0-3.6,0.2
	c-1.9,0.2-3.9,0.6-5.8,1s-4,0.9-6,1.3c-1.9,0.4-3.7,0.9-5.5,1.5c-2.2,0.8-4.4,1.5-6.6,2.3c-1.5,0.6-3,1.3-4.5,2
	c-1.9,0.9-3.8,1.7-5.7,2.6c-3.5,1.6-6.9,3.4-10.4,4.9s-7.3,3.1-10.8,5c-1.7,0.9-3.3,1.8-4.9,2.7s-3.4,1.9-5.2,2.8
	c-5.8,2.8-11.8,5.5-17.6,8.3c-1.4,0.7-2.7,1.4-4.1,2s-2.7,1.2-4,1.8s-2.4,1.1-3.6,1.6c-0.9,0.4-1.8,0.8-2.7,1.3
	c-1,0.5-1.7,1.4-2.1,2.5c-0.3,1.1-0.2,2.2,0.3,3.2c0.8,1.4,2.3,2.3,3.9,2.3C246.5,79.8,247.2,79.6,247.8,79.3L247.8,79.3z"/>
<path class="st0" d="M235.4,83.2c0.5-0.1,1-0.1,1.5-0.2c0.4-0.1,0.7-0.1,1.1,0l0.5,0.1c0.2,0,0.4,0,0.6-0.1h0.3
	c0.7-0.3,1.5-0.6,2.2-1s1.4-0.8,2.1-1.1l1-0.5c0.5-0.2,1-0.5,1.4-0.8c1.4-0.8,3.1-1.1,4.5-1.9l1.8-1c0.7-0.4,1.5-0.7,2.2-1.1
	c1.6-0.8,3.1-1.4,4.7-2.1c1.4-0.6,2.7-1.2,4-1.9c1-0.5,1.8-1.3,2.2-2.3c0.9-2.2-0.1-4.7-2.3-5.5c0,0,0,0,0,0c-1.1-0.5-2.2-0.5-3.3,0
	c-1.3,0.7-2.6,1.4-4,1.9c-1.6,0.7-3.2,1.4-4.9,2.2c-0.7,0.4-1.5,0.7-2.2,1.1s-1.2,0.7-1.9,1c-0.8,0.4-1.6,0.7-2.5,1
	c-0.4,0.2-0.9,0.3-1.3,0.5c-0.4,0.2-0.9,0.4-1.3,0.7c-0.6,0.3-1.2,0.6-1.9,0.9s-1.3,0.7-2,1c-1,0.5-2.1,1-3.2,1.4
	c-2.1,1-3.1,3.4-2.2,5.6c0.4,0.8,0.9,1.5,1.7,1.9c0.3,0,0.7-0.1,1-0.1L235.4,83.2z"/>
<path class="st0" d="M102.1,65.7c0.5-0.3,1-0.6,1.4-0.9c1.2-0.8,2.4-1.5,3.7-2.2s2.6-1.5,4-2.2c0.7-0.3,1.4-0.7,2.1-1s1.3-0.6,2-1
	c1.4-0.7,2.7-1.4,4-2.1l2.2-1.1c0.6-0.3,1.3-0.6,1.9-0.9c1.4-0.8,2.8-1.6,4.2-2.4c1.4-0.8,2.6-1.5,3.9-2.2l4.3-2.2
	c1.4-0.7,2.7-1.4,4.1-2.1s2.8-1.5,4.2-2.2l2.1-1c0.7-0.3,1.3-0.7,2-1c1.4-0.6,2.8-1.3,4.2-2c0.7-0.3,1.3-0.8,2-1.1s1.4-0.7,2-1
	c1.4-0.7,2.9-1.3,4.3-2s2.8-1.2,4.2-1.9s2.6-1.3,4-1.8c2.3-0.9,4.4-2.2,6.6-3.4c0.5-0.2,1-0.5,1.5-0.7s1.2-0.5,1.8-0.8
	s1.1-0.5,1.6-0.7s1.3-0.6,2-0.9c0.7-0.4,1.1-1.3,0.7-2c-0.4-0.7-1.3-1.1-2-0.7c-0.7,0.4-1.5,0.7-2.2,1s-1.5,0.6-2.2,0.9
	s-1.3,0.6-2,0.9s-1.4,0.7-2,1c-1.3,0.7-2.6,1.5-3.9,2c-0.7,0.3-1.4,0.5-2.1,0.9l-2.1,1l-2,1c-0.7,0.3-1.4,0.6-2.2,1
	c-1.4,0.6-2.8,1.2-4.2,1.9c-0.7,0.3-1.4,0.6-2.1,1s-1.4,0.7-2,1.1c-1.4,0.8-2.8,1.5-4.2,2.1c-0.6,0.3-1.3,0.6-1.9,0.9l-2.1,1
	c-1.4,0.7-2.9,1.5-4.3,2.2l-2.1,1.1l-1.9,1c-1.4,0.7-2.7,1.4-4.1,2.1s-2.8,1.4-4.1,2.2l-2,1.2c-0.7,0.4-1.3,0.8-2,1.2
	c-1.3,0.8-2.7,1.4-4.1,2.1s-2.8,1.4-4.2,2.2c-1.1,0.6-2.2,1.1-3.4,1.7s-2.3,1-3.4,1.7s-2.3,1.3-3.4,2s-2.2,1.3-3.3,2l0.1-0.1L101,63
	c-0.7,0.4-1.1,1.2-0.7,2c0.3,0.5,0.8,0.8,1.4,0.9c0.2,0,0.4,0,0.6-0.2L102.1,65.7z"/>
<path class="st0" d="M85.1,62.8c0.4,0,0.8-0.2,1.2-0.3l0.5-0.2l1-0.5c0.7-0.3,1.3-0.7,2-1.1c1.4-0.7,2.8-1.5,4.1-2.2
	s2.6-1.6,3.9-2.3s2.7-1.5,4-2.2s2.9-1.5,4.4-2.2s2.7-1.4,4-2.1s2.6-1.6,4-2.3s2.8-1.5,4.2-2.3c2.8-1.5,5.6-3,8.4-4.5
	c1.3-0.7,2.7-1.5,4-2.2s2.8-1.7,4.2-2.5s2.7-1.5,4-2.2s2.7-1.5,4.2-2s2.9-1.1,4.3-1.9s2.8-1.5,4.3-2.3c1-0.5,1.9-0.9,2.9-1.3
	c0.4-0.2,0.9-0.4,1.3-0.6c0.5-0.2,1-0.5,1.4-0.8l0,0c0.7-0.4,1.3-0.9,1.9-1.3c0.6-0.5,0.7-1.5,0.2-2.1c-0.3-0.3-0.6-0.5-1.1-0.5
	c-0.4,0-0.8,0.1-1.1,0.3c-0.5,0.4-1,0.7-1.5,1l-0.1,0.1c-1.2,0.7-2.5,1.3-3.8,1.8c-1.5,0.6-2.9,1.5-4.3,2.2c-1.4,0.7-2.7,1.4-4.2,2
	c-0.7,0.3-1.5,0.6-2.2,0.9s-1.4,0.6-2.1,1c-1.4,0.7-2.9,1.5-4.2,2.3s-2.7,1.5-4,2.3c-2.7,1.7-5.5,3.2-8.3,4.7
	c-1.3,0.7-2.7,1.5-4,2.2s-2.8,1.5-4.2,2.2s-2.7,1.6-4.1,2.4c-0.6,0.4-1.3,0.8-2,1.1s-1.3,0.7-2,1.1c-2.8,1.5-5.6,2.8-8.4,4.3
	c-1.4,0.8-2.8,1.6-4.1,2.4s-2.6,1.6-3.9,2.3l-2.7,1.4c-0.9,0.5-1.8,0.9-2.7,1.3c-0.1,0-0.2,0-0.3,0c-0.4,0.1-0.8,0.3-1,0.6
	c-0.4,0.7-0.2,1.6,0.6,2.1c0,0,0,0,0,0c0.3,0.2,0.6,0.3,0.9,0.2L85.1,62.8z M157.9,24.3l-0.3,0.2L157.9,24.3z"/>
<path class="st0" d="M71,58.7c1.4-0.6,2.8-1.4,4.1-2.2c0.6-0.3,1.3-0.7,1.9-1s1.4-0.8,2.1-1.2c1.3-0.8,2.5-1.6,3.8-2.4
	s2.7-1.5,4-2.3s2.5-1.3,3.8-2s2.4-1.3,3.7-1.9s2.6-1.3,3.8-2s2.5-1.5,3.8-2.3c2.6-1.6,5.4-3,8.2-4.3l2.1-1c0.7-0.3,1.3-0.7,2-1
	c1.4-0.8,2.8-1.6,4.1-2.4s2.8-1.9,4.3-2.9c2.2-1.4,4.4-2.7,6.7-3.9c1.1-0.6,2.3-1.1,3.5-1.6c1.2-0.6,2.4-1.3,3.6-2
	c0.3-0.2,0.6-0.5,0.8-0.9c0.1-0.4,0.1-0.8-0.1-1.1c-0.2-0.4-0.5-0.6-0.9-0.8c-0.4-0.1-0.8-0.1-1.1,0.1l-2.2,1.1
	c-0.7,0.4-1.4,0.7-2.1,1c-1.5,0.6-2.9,1.4-4.3,2.1s-2.7,1.5-4,2.4c-0.8,0.5-1.6,1-2.3,1.5c-0.6,0.4-1.2,0.9-1.8,1.3l-0.7,0.4
	c-1.3,0.8-2.6,1.6-4,2.4c-1.4,0.8-2.7,1.5-4.1,2.2c-2.8,1.3-5.6,2.8-8.3,4.3c-0.8,0.5-1.6,1-2.3,1.5c-2.7,1.7-5.5,3.1-8.3,4.6
	c-1.4,0.7-2.7,1.3-4.1,2.1s-2.8,1.5-4.1,2.3c-1,0.6-2.1,1.2-3.1,1.9s-2,1.3-3,1.8L73,54.3c-1.1,0.6-2.1,1.2-3.2,1.7
	c-0.8,0.3-1.1,1.2-0.8,2c0.2,0.5,0.8,0.9,1.4,0.8C70.6,58.8,70.8,58.8,71,58.7L71,58.7z M99.1,39.7L99.1,39.7L99.1,39.7z
	 M117.8,29.4l0.2-0.1L117.8,29.4z"/>
<path class="st0" d="M56.3,54c1.4-0.7,2.8-1.3,4.2-2s2.8-1.5,4.2-2.3c2.7-1.6,5.5-3.2,8.2-4.9c1.3-0.8,2.6-1.5,3.9-2.3
	s2.9-1.5,4.3-2.3c2.8-1.5,5.5-3.1,8.3-4.6c1.4-0.8,2.8-1.5,4.2-2.2s2.8-1.2,4.1-2c2.8-1.5,5.5-3.2,8.4-4.7c1.1-0.6,2.3-1.2,3.4-1.9
	s2.4-1.3,3.5-1.9s2.4-1.1,3.6-1.7c1.3-0.6,2.6-1.2,3.8-2c0.4-0.2,0.6-0.5,0.8-0.9c0.1-0.4,0.1-0.8-0.1-1.1c-0.2-0.4-0.5-0.6-0.8-0.8
	c-0.4-0.1-0.8-0.1-1.2,0.1c-0.7,0.4-1.5,0.9-2.2,1.3s-1.4,0.7-2.1,1c-1.5,0.7-3,1.4-4.4,2.1s-2.6,1.4-3.9,2.1s-2.8,1.5-4.1,2.3
	s-2.9,1.7-4.3,2.5s-2.8,1.4-4.2,2.1s-2.8,1.3-4.2,2.1s-2.8,1.5-4.2,2.3l-4.2,2.3c-1.4,0.7-2.7,1.4-4.1,2.2c-2.8,1.5-5.6,3.1-8.3,4.8
	l-3.4,2c-1.1,0.7-2.2,1.3-3.3,1.9s-2.4,1.3-3.6,1.9s-2.5,1.2-3.7,1.8c-0.7,0.4-1.1,1.3-0.7,2c0.3,0.5,0.8,0.8,1.4,0.8
	C55.9,54.1,56.1,54.1,56.3,54L56.3,54z"/>
<path class="st0" d="M43.5,48.9c0.7-0.3,1.4-0.6,2.1-0.9s1.3-0.6,1.9-1c1.4-0.7,2.7-1.6,4-2.4c2.7-1.6,5.3-3.3,8-4.9
	c1.4-0.8,2.8-1.6,4.2-2.4l4-2.1c1.4-0.8,2.8-1.5,4.3-2.3s2.7-1.5,4.1-2.2s2.7-1.6,4.1-2.3s2.8-1.5,4.1-2.3c2.7-1.6,5.5-3.2,8.3-4.8
	c3.3-1.7,6.5-3.7,9.6-5.8c0.6-0.5,0.7-1.5,0.2-2.1c-0.5-0.6-1.5-0.7-2.1-0.2c-0.5,0.4-1.1,0.8-1.6,1.2c-1.3,0.8-2.6,1.6-4,2.4
	s-2.7,1.6-4,2.4l-8.3,4.8c-1.4,0.8-2.8,1.5-4.2,2.3s-2.7,1.5-4.1,2.3S71.4,30,70,30.8s-2.8,1.5-4.2,2.3s-2.7,1.4-4.1,2.1
	s-2.8,1.6-4.1,2.4s-2.8,1.7-4.1,2.5s-2.7,1.6-4,2.4c-1.2,0.7-2.3,1.4-3.6,2c-0.5,0.3-1.1,0.5-1.6,0.8s-1.3,0.6-2,0.9
	c-0.8,0.3-1.2,1.1-0.9,1.9c0.2,0.5,0.5,0.8,1,0.9c0.2,0.1,0.3,0.1,0.5,0.1C43.1,49.1,43.3,49,43.5,48.9L43.5,48.9z"/>
<path class="st0" d="M27.6,43.2c2.8-1.2,5.4-2.7,8.1-4.1l4.3-2.2c1.4-0.7,2.8-1.4,4.2-2.1c2.7-1.5,5.5-3,8.3-4.3s5.7-2.9,8.5-4.4
	c1.3-0.7,2.7-1.4,4.1-2.1c1.5-0.8,3-1.6,4.5-2.4s2.7-1.5,4-2.2s2.9-1.6,4.4-2.4s3-1.8,4.5-2.6s3-1.6,4.6-2.3c0.7-0.4,1.1-1.3,0.7-2
	c-0.4-0.7-1.3-1.1-2-0.7c-1.4,0.7-2.8,1.4-4.2,2.1s-2.7,1.6-4.1,2.4s-2.7,1.6-4.1,2.3s-2.8,1.5-4.2,2.3c-2.8,1.5-5.6,2.9-8.4,4.4
	c-1.4,0.7-2.8,1.5-4.2,2.2s-2.9,1.5-4.4,2.2s-2.8,1.4-4.2,2.1s-2.8,1.5-4.1,2.2s-2.7,1.4-4.1,2.1c-0.7,0.3-1.3,0.7-2,1.1L35.3,36
	c-3,1.5-5.9,3.2-8.9,4.5c-0.7,0.4-1,1.3-0.6,2c0.3,0.5,0.7,0.8,1.3,0.8C27.2,43.3,27.4,43.3,27.6,43.2L27.6,43.2z"/>
<path class="st0" d="M351.6,66.2c-0.5,0.2-1,0.5-1.5,0.7c-0.5,0.2-1,0.5-1.5,0.6l-1.4,0.5c-0.6,0.2-1.2,0.5-1.8,0.7
	c-1.1,0.5-2.2,1-3.3,1.5l-1.6,0.7c-0.7,0.2-1.3,0.5-2,0.7c-0.4,0.2-0.8,0.6-0.9,1c-0.3,0.9,0.2,1.9,1.1,2.2c0.4,0.1,0.9,0.1,1.3-0.1
	c0.6-0.2,1.3-0.4,1.9-0.7s1-0.4,1.5-0.6c1.1-0.5,2.2-1,3.4-1.5s2.1-0.9,3.2-1.3c0.5-0.2,1-0.4,1.5-0.6s1-0.5,1.6-0.8
	c0.9-0.4,1.3-1.4,0.9-2.3c-0.3-0.6-0.9-1-1.6-1C352.1,66,351.8,66.1,351.6,66.2L351.6,66.2z"/>
<path class="st0" d="M354.3,76c-1,0.6-2,1.3-2.9,1.9c-1.5,0.9-3,1.6-4.5,2.4c-0.7,0.3-1.4,0.7-2,1.1s-1.4,0.8-2.1,1.2
	c-1.6,0.8-3.2,1.5-4.8,2.1c-0.8,0.3-1.6,0.6-2.5,1c-0.4,0.2-0.7,0.3-1.1,0.4c-0.4,0.1-0.9,0.3-1.3,0.6c-0.4,0.2-0.7,0.6-0.9,1
	c-0.3,0.9,0.2,1.9,1.1,2.2c0.4,0.2,0.9,0.2,1.3,0c0.4-0.2,0.8-0.4,1.2-0.5l1.2-0.4c0.8-0.3,1.6-0.6,2.5-1c1.6-0.7,3.3-1.3,4.8-2.1
	c0.7-0.4,1.4-0.8,2.1-1.2s1.4-0.8,2.1-1.2c1.7-0.9,3.4-1.7,4.9-2.7l3.1-2c0.4-0.3,0.6-0.7,0.6-1.2c0-0.5-0.1-0.9-0.4-1.3
	c-0.3-0.4-0.7-0.6-1.2-0.6h-0.1C355,75.7,354.6,75.8,354.3,76L354.3,76z"/>
<path class="st0" d="M353.6,90l-2.7,0.8l-0.4,0.1l0,0l0,0c-0.9,0.3-1.8,0.6-2.8,1c-0.5,0.2-1,0.4-1.5,0.6s-1,0.4-1.5,0.7
	c-0.9,0.4-1.3,1.4-0.9,2.3c0.4,0.9,1.4,1.3,2.3,0.9c0.4-0.2,0.9-0.4,1.3-0.6l1.2-0.5c0.9-0.3,1.7-0.7,2.6-0.9l0.9-0.3l1.9-0.6
	c0.4-0.1,0.8-0.3,1.1-0.7c0.3-0.4,0.4-0.9,0.3-1.3c-0.1-0.5-0.3-0.9-0.7-1.1c-0.3-0.2-0.6-0.3-1-0.3C353.8,90,353.7,90,353.6,90
	L353.6,90z"/>
<path class="st0" d="M352.6,104.5c-1.7,0.8-3.5,1.5-5.2,2.2c-0.8,0.3-1.7,0.7-2.5,1s-1.7,0.6-2.5,0.9l-2.1,0.6
	c-1,0.3-2.1,0.6-3.1,0.8s-2.2,0.3-3.3,0.7c-0.5,0.1-0.9,0.3-1.1,0.7c-0.3,0.4-0.4,0.9-0.3,1.3c0.1,0.5,0.3,0.9,0.7,1.1
	c0.4,0.3,0.9,0.4,1.3,0.3c1.3-0.4,2.6-0.5,3.9-0.8c1.4-0.3,2.7-0.7,4-1.1c1-0.3,2-0.6,3-1s1.9-0.6,2.9-1c2-0.8,4-1.7,6-2.5
	c0.9-0.4,1.3-1.4,0.9-2.3c-0.3-0.6-0.9-1-1.6-1c-0.2,0-0.5,0.1-0.7,0.2L352.6,104.5z M340.1,109.2l-0.2,0.1L340.1,109.2z
	 M342.5,112.2h-0.1H342.5z"/>
<path class="st0" d="M348,118.7l-3.3,1.3c-1,0.4-1.9,0.8-2.9,1.2c-0.4,0.2-0.8,0.6-0.9,1c-0.2,0.4-0.1,0.9,0.1,1.3
	c0.2,0.4,0.6,0.8,1,0.9c0.4,0.1,0.9,0.1,1.3-0.1c0.9-0.3,1.9-0.7,2.8-1.1l3.5-1.4c0.9-0.4,1.3-1.4,0.9-2.3c-0.3-0.6-0.9-1-1.6-1
	C348.5,118.5,348.2,118.6,348,118.7L348,118.7z"/>
<path class="st0" d="M4.5,63.7C4,64.5,4.2,65.6,5,66.2c1.1,0.8,2.3,1.7,3.4,2.4c1.3,0.8,2.7,1.5,4.1,2c1.3,0.5,2.6,1,4,1.5
	s2.7,0.8,4,1.2c0.9,0.3,1.9-0.2,2.2-1.1c0.3-0.9-0.1-1.9-1-2.2c-0.9-0.3-1.8-0.5-2.7-0.8s-1.9-0.7-2.9-1c-1.7-0.6-3.4-1.2-5-2
	c-1.6-0.9-2.9-1.9-4.2-2.9C6.7,63.1,6.4,63,6,63C5.4,63,4.9,63.3,4.5,63.7L4.5,63.7z"/>
<path class="st0" d="M5.2,75.3c-0.5,0.8-0.4,1.9,0.4,2.4c0.8,0.5,1.7,1,2.5,1.5c0.7,0.4,1.4,0.8,2.1,1.2c1.6,0.9,3.3,1.7,5,2.4
	c1.6,0.6,3.2,1.1,4.9,1.5c1.8,0.4,3.7,0.6,5.6,0.9c1.1,0.2,2.2,0.3,3.3,0.6c0.7,0.2,1.3,0.3,1.9,0.5c0.9,0.4,1.9,0,2.3-0.9
	s0-1.9-0.9-2.3c-0.1,0-0.1,0-0.2-0.1c-3.6-1.2-7.4-1.3-11-2c-2.7-0.7-5.3-1.6-7.8-2.9c-1.9-1-3.8-2.1-5.7-3.3
	c-0.3-0.2-0.6-0.3-1-0.3C6.1,74.6,5.6,74.9,5.2,75.3L5.2,75.3z"/>
<path class="st0" d="M5.9,90C5,90.4,4.6,91.4,5,92.3c0.2,0.4,0.6,0.7,1,0.9c1.1,0.6,2.3,1.1,3.5,1.5c1.1,0.4,2.3,0.8,3.5,1
	c1.3,0.3,2.7,0.5,4,0.7c0.6,0.1,1.2,0.2,1.9,0.3l1.8,0.1c1,0.1,1.8-0.6,1.9-1.6s-0.6-1.8-1.6-1.9c-1.2-0.1-2.3-0.2-3.5-0.4
	s-2.3-0.4-3.5-0.6c-1.1-0.3-2.2-0.6-3.3-1c-1.2-0.5-2.3-1-3.5-1.5c-0.2-0.1-0.4-0.1-0.5-0.1C6.4,89.8,6.1,89.9,5.9,90z"/>
<path class="st0" d="M5.9,103.1c-0.5,0.8-0.4,1.9,0.4,2.4c0.9,0.7,1.9,1.3,2.9,1.8c0.9,0.4,1.8,0.8,2.7,1.1c0.9,0.4,1.9-0.1,2.3-1
	s-0.1-1.9-1-2.3c0,0-0.1,0-0.1,0c-0.8-0.3-1.6-0.6-2.4-1c-0.8-0.5-1.6-1-2.4-1.5c-0.3-0.2-0.6-0.3-1-0.3
	C6.8,102.3,6.3,102.6,5.9,103.1L5.9,103.1z"/>
<path class="st0" d="M9.5,119.9c-0.5,0.1-0.9,0.3-1.1,0.7C8.1,121,8,121.5,8.1,122c0.1,0.5,0.3,0.9,0.7,1.1l1.9,1.1
	c0.7,0.4,1.4,0.7,2.1,1c1.5,0.5,3,0.9,4.6,1c1,0.1,1.8-0.6,1.9-1.6c0.1-1-0.6-1.8-1.6-1.9c-0.6,0-1.2-0.1-1.7-0.2
	c-1-0.2-2-0.6-3-1.1l-2.2-1.2c-0.3-0.2-0.6-0.3-1-0.3L9.5,119.9L9.5,119.9z"/>
<g>
	<path class="st0" d="M126,136.1c-1,1.3-2.3,2.3-4.1,2.9s-3.8,0.8-6.1,0.5c-2.3-0.3-4.3-1-6-2.1c-1.7-1.1-3-2.4-3.9-4
		c-0.9-1.6-1.3-3.4-1.2-5.3l5.8,0.8c0,1.5,0.4,2.8,1.4,4c0.9,1.2,2.3,1.9,4.2,2.2c1.6,0.2,3,0,4-0.8c1-0.8,1.6-1.8,1.8-3.2
		c0.2-1.2,0-2.2-0.6-3.1c-0.6-0.9-1.3-1.6-2.2-2.2c-0.9-0.6-2.2-1.3-3.8-2.1c-2-1-3.6-1.9-4.8-2.7c-1.2-0.8-2.2-2-3-3.4
		c-0.7-1.4-1-3.1-0.7-5.2c0.2-1.8,0.9-3.3,2-4.6c1.1-1.2,2.5-2.1,4.2-2.6c1.8-0.5,3.7-0.6,5.9-0.3c3.4,0.5,6,1.7,7.8,3.6
		c1.8,1.9,2.6,4.2,2.6,6.9l-5.8-0.8c0-1.3-0.5-2.5-1.3-3.5c-0.8-1-2.1-1.7-3.8-1.9c-1.5-0.2-2.8,0-3.8,0.7c-1,0.7-1.6,1.7-1.8,3.2
		c-0.2,1.1,0,2.1,0.6,3c0.5,0.8,1.2,1.5,2.2,2.1c0.9,0.6,2.2,1.2,3.8,2c2,1,3.7,1.9,4.9,2.7c1.3,0.9,2.3,2,3,3.4
		c0.8,1.4,1,3.2,0.7,5.3C127.6,133.4,127,134.8,126,136.1z"/>
	<path class="st0" d="M146.7,137.7l-0.4,4.7l-3.3-0.3c-2.8-0.3-4.9-1.1-6.2-2.6c-1.3-1.5-1.8-3.8-1.6-7l1.2-12.9l-3.8-0.3l0.4-4.6
		l3.8,0.3l0.6-6.5l5.5,0.5l-0.6,6.5l6.4,0.6l-0.4,4.6l-6.4-0.6l-1.2,13c-0.1,1.5,0,2.6,0.6,3.2c0.5,0.6,1.5,1,2.9,1.1L146.7,137.7z"
		/>
	<path class="st0" d="M172.4,118.6c2,1.2,3.5,2.8,4.6,4.9c1.1,2.1,1.5,4.5,1.4,7.3c-0.1,2.8-0.8,5.2-2,7.2c-1.2,2-2.9,3.5-5,4.5
		c-2.1,1-4.4,1.5-7,1.3c-2.6-0.1-4.8-0.7-6.8-1.9c-2-1.2-3.5-2.8-4.6-4.9c-1.1-2.1-1.6-4.5-1.5-7.3c0.1-2.7,0.8-5.1,2-7.1
		s2.9-3.5,5-4.5c2.1-1,4.4-1.5,6.9-1.4C168.1,116.8,170.4,117.4,172.4,118.6z M161.5,122.2c-1.2,0.6-2.2,1.5-3,2.8s-1.2,2.9-1.3,4.8
		c-0.1,2,0.2,3.6,0.9,4.9c0.7,1.3,1.6,2.4,2.7,3c1.2,0.7,2.4,1.1,3.8,1.1c1.4,0.1,2.7-0.2,3.9-0.8c1.2-0.6,2.2-1.5,3-2.8
		c0.8-1.3,1.2-2.9,1.3-4.8c0.1-1.9-0.2-3.6-0.9-4.9c-0.7-1.4-1.6-2.4-2.7-3.1c-1.2-0.7-2.4-1.1-3.8-1.1
		C164,121.4,162.7,121.7,161.5,122.2z"/>
	<path class="st0" d="M193.3,118.5c1.7-1,3.6-1.5,5.7-1.6l0.1,6l-1.6,0c-2.4,0-4.3,0.6-5.8,1.8c-1.4,1.2-2.2,3.1-2.1,5.8l0.1,13.4
		l-5.5,0.1l-0.3-26.4l5.5-0.1l0.1,5.2C190.4,120.9,191.7,119.5,193.3,118.5z"/>
	<path class="st0" d="M228.1,130.1l-20.3,1.2c0.3,2.7,1.1,4.7,2.6,5.9s3.3,1.8,5.3,1.7c1.8-0.1,3.3-0.7,4.5-1.7
		c1.2-1,1.9-2.3,2.1-3.8l5.8-0.3c-0.2,1.9-0.9,3.6-1.9,5.1c-1,1.5-2.4,2.7-4.2,3.6s-3.7,1.4-5.9,1.6c-2.6,0.2-4.8-0.3-6.9-1.2
		s-3.7-2.4-4.9-4.4s-1.9-4.4-2.1-7.1c-0.2-2.7,0.3-5.2,1.2-7.3c1-2.1,2.4-3.8,4.3-5c1.9-1.2,4.1-1.9,6.7-2c2.6-0.2,4.9,0.2,6.9,1.2
		c2,1,3.6,2.3,4.7,4.1c1.1,1.8,1.8,3.9,1.9,6.2C228.2,128.6,228.1,129.4,228.1,130.1z M221.4,123.6c-0.7-1.1-1.7-1.9-2.8-2.4
		c-1.2-0.5-2.4-0.7-3.8-0.6c-2.1,0.1-3.9,0.9-5.2,2.3c-1.4,1.4-2,3.4-2,5.9l15-0.9C222.6,126.2,222.2,124.8,221.4,123.6z"/>
</g>
</svg>
