<svg xmlns="http://www.w3.org/2000/svg" viewBox="0 0 365.12 187.91"><defs><style>.cls-1{fill:#fefefe;}</style></defs><g id="Layer_2" data-name="Layer 2"><g id="Draw_Layer" data-name="Draw Layer"><path class="cls-1" d="M48.36,169.09h0Z"/><path class="cls-1" d="M116.53,161.33h0l.83-.08-.86.08Z"/><path class="cls-1" d="M116.31,161.35h.22l-.22,0Z"/><path class="cls-1" d="M289.14,139.87l-.22.12c.52.4,1,.8,1.55,1.21,1.5,1.2,3.2,2.14,4.71,3.32l.08,0a4.21,4.21,0,0,0-4.15-5.17,4.32,4.32,0,0,0-2,.47Z"/><path class="cls-1" d="M236.22,175.27a4.3,4.3,0,0,0,6,.25c.74-.62,1.49-1.24,2.25-1.84a25.24,25.24,0,0,1,3.51-1.8l-.1,0-.44-.11-.67-.18h0l-.08,0,.08,0-.34-.1-.11,0,.11,0,.18,0c-.36-.1-.71-.22-1.06-.33-.59-.16-1.19-.29-1.77-.43l-.24-.06-.78-.12-.58-.13-.75-.1c-.84-.12-1.68-.28-2.51-.45-.39-.08-.78-.11-1.17-.16s-.77-.14-1.17-.22l-.27-.06a4.29,4.29,0,0,0-.05,5.82Z"/><path class="cls-1" d="M246.77,171.57h0Z"/><path class="cls-1" d="M161.29,103.53q-2.07,1.11-4.11,2.27c-1.79,1-3.66,1.81-5.54,2.64-1.56.69-3.1,1.43-4.64,2.15a43.43,43.43,0,0,1,6.64-.47c1.3,0,2.6-.06,3.9-.06.63,0,1.25,0,1.88,0,2,.12,4,.29,5.93.49l.51.05a4.24,4.24,0,0,0-2.63-7.61,4,4,0,0,0-1.94.49Z"/><path class="cls-1" d="M155.25,102.66c-3.46.16-6.94,0-10.4,0-3.69,0-7.39.13-11.07.32-3.52.19-7,.37-10.56.69-3.77.35-7.55.71-11.28,1.37-7.34,1.3-14.67,2.61-22,3.85-3.72.64-7.44,1.35-11.11,2.23-3.87.93-7.72,2-11.59,2.9-2,.49-4,1.06-6,1.65s-4.21,1.36-6.34,2c-4,1.12-8.1,2.15-12.17,3.11-1.33.32-2.68.6-4,1s-2.46.84-3.67,1.3c-2.79,1-5.63,1.94-8.47,2.81s-5.6,1.47-8.34,2.42c-2.5.87-5,1.67-7.53,2.53a33.9,33.9,0,0,0-4.26,1.67c-1.39.7-2.71,1.54-4,2.36a6.51,6.51,0,0,0-.84.62c0,.11,0,.22,0,.33,0,.46.12.93.13,1.39s0,.94.06,1.41,0,.79.07,1.19,0,.66,0,1l.12.7,0-.22c0,.16.06.32.08.48a4.12,4.12,0,0,0,.13.47,4,4,0,0,0,4.2.15,38.11,38.11,0,0,1,5.26-2.93c1.81-.64,3.65-1.21,5.48-1.79,2.14-.68,4.23-1.5,6.39-2.12,2.45-.69,4.91-1.34,7.35-2.1s4.88-1.62,7.28-2.52l-.15.06a47.47,47.47,0,0,1,5.34-1.6c2.08-.5,4.16-1,6.23-1.54s4.11-1,6.15-1.59,4.09-1.22,6.13-1.85c4-1.24,8-2.19,12.09-3.2q2.82-.7,5.64-1.45c1.91-.5,3.84-.86,5.76-1.28,6.32-1.42,12.79-2.17,19.14-3.41,2.93-.57,5.88-1.07,8.81-1.58,2.72-.47,5.44-.81,8.18-1.1,3.4-.32,6.8-.61,10.22-.75,3.71-.15,7.42-.41,11.13-.42h1.32c.8-.18,1.6-.36,2.4-.5a43.44,43.44,0,0,1,7.12-.54c1.3,0,2.6-.06,3.9-.06.62,0,1.25,0,1.88,0,2,.12,4,.29,5.93.49,3.16.32,6.3.63,9.44,1,3.4.32,6.79.73,10.16,1.11,4.14.47,8.25,1.06,12.38,1.62s8.06.92,12.09,1.41c2.85.36,5.69.77,8.52,1.18,1.68.29,3.35.61,5,.89s3.4.67,5.07,1.13c3.82,1,7.56,2.38,11.42,3.27C243,123,246.5,124,250,125.05l5.13,1.57c1.8.55,3.61,1.06,5.37,1.72l.76.29,1.1.24c4.1.88,8.11,2.12,12.18,3.1a26.36,26.36,0,0,1,7.79,3,38.94,38.94,0,0,1,5,3.78c1.05.83,2.12,1.63,3.17,2.46,1.5,1.2,3.19,2.14,4.71,3.31l1.27,1c.6.27,1.21.51,1.82.77,1.21.59,2.41,1.22,3.59,1.87.55.29,1.06.65,1.6,1s1.06.54,1.59.82c1.12.57,2.21,1.21,3.31,1.82,1.39.75,2.79,1.45,4.21,2.12l-.5-.23a43.89,43.89,0,0,1,4.44,2.59,41,41,0,0,0,5.4,2.77c.79.39,1.58.77,2.38,1.14q1.68.81,3.39,1.59c1.6.76,3.18,1.58,4.82,2.25s3.06,1,4.55,1.64c1.33.66,2.61,1.41,4,2,1,.43,2,.74,2.94,1.12l1.17.63a4.49,4.49,0,0,0,3.26.55,4.24,4.24,0,0,0,3.16-5.1,4.09,4.09,0,0,0-1.85-2.62,27.49,27.49,0,0,0-3.47-1.64c-.75-.25-1.49-.54-2.22-.85-.46-.25-.9-.52-1.37-.78-.89-.49-1.86-.9-2.78-1.32s-1.9-.71-2.86-1-1.91-.69-2.85-1.1l-3.77-1.79L326.84,152l1,.48c-1.18-.58-2.39-1.13-3.59-1.68a44.74,44.74,0,0,1-4-2.28,44.57,44.57,0,0,0-5.09-2.75l1,.48c-1.35-.63-2.69-1.35-4-2.09s-2.51-1.35-3.77-2-2.46-1.44-3.71-2.13c-1.73-.94-3.56-1.67-5.37-2.47-.88-.44-1.75-.91-2.63-1.36s-1.87-1.09-2.81-1.62c-2-1.15-4.11-2.26-6.15-3.42-1.84-1-3.69-2-5.63-2.87-1.63-.72-3.33-1.28-5-2s-3.43-1.55-5.14-2.3c-1.47-.66-3-1.2-4.45-1.87l.56.25c-1.92-.87-3.87-1.66-5.85-2.41-1.74-.65-3.58-1.13-5.37-1.68-3.31-1-6.63-2-10-3-1.89-.52-3.8-1-5.71-1.4s-3.74-1.07-5.59-1.62a91.77,91.77,0,0,0-10.95-2.74c-2.28-.39-4.55-.86-6.85-1.19-2-.29-4.05-.58-6.07-.84-3.9-.51-7.82-.9-11.72-1.37-4.22-.51-8.4-1.22-12.61-1.7-3.87-.43-7.74-.89-11.61-1.28q-5.08-.51-10.19-.73c-.93,0-1.86-.07-2.79-.07-2.55,0-5.11.14-7.66.25Z"/><path class="cls-1" d="M1.87,140.78c0,.1,0,.2,0,.3,0-.1,0-.21,0-.31Z"/><path class="cls-1" d="M359.42,55.75a4.3,4.3,0,0,0-2.62,1.85c-.15.35-.31.69-.47,1a4.18,4.18,0,0,0-.08,2.22c.05.44.21.84.28,1.27l0-.33.09.73c0,.3,0,.61.05.91,0,.5-.07,1-.07,1.5s.05,1,0,1.44a12.08,12.08,0,0,1-.1,1.34c-.05.51-.06,1-.08,1.53s-.11,1.16-.15,1.75c-.06.84-.1,1.68-.2,2.52s-.39,1.79-.52,2.7c-.09.6-.1,1.2-.16,1.79a19.06,19.06,0,0,0-.26,2.51c0,.92-.1,1.83-.12,2.75s-.12,1.89-.22,2.83a10.6,10.6,0,0,0,0,1.38c0,.48-.07,1-.09,1.43-.05,1.06-.19,2.11-.18,3.17s-.13,2.13-.22,3.2c0,.5,0,1-.12,1.51a13.89,13.89,0,0,0-.18,1.58c0,.84-.08,1.7-.18,2.54a63.28,63.28,0,0,0-.93,10.56c0,1.86.11,3.72.05,5.58a61.71,61.71,0,0,1-.67,7.56l-.33,2.1a28.55,28.55,0,0,0-.57,4.12c0,1.06-.12,2.13-.23,3.19-.22,2.12-.2,4.26-.48,6.38l.11-.65c-.2,1.2-.36,2.4-.52,3.61a22,22,0,0,0-.3,3.35,27.69,27.69,0,0,1-.23,3.64c-.25,1.48-.44,3-.6,4.47s0,2.86-.08,4.28c0,1-.06,2-.07,3l-.32-.29a13.34,13.34,0,0,0-1.49-1.21,11,11,0,0,0-2-1c-1.35-.55-2.79-.95-4.16-1.43a4.25,4.25,0,1,0-2.5,8.12c1.31.46,2.65.86,3.95,1.36l.26.17a15.32,15.32,0,0,0,2.5,2,13.61,13.61,0,0,0,1.9.88,9.2,9.2,0,0,0,.63.77,9.69,9.69,0,0,0,1.4,1.16,2.44,2.44,0,0,0,.27.29,4.52,4.52,0,0,0,4.39,1.34,5.07,5.07,0,0,0,2.07-1.13,5,5,0,0,0,.92-1.12,6.75,6.75,0,0,0,.86-3.05,14.5,14.5,0,0,0-.14-2.63c-.08-1.09,0-2.19,0-3.3,0-2,0-4,.05-6a17.64,17.64,0,0,1,.16-2.62c.14-.86.19-1.74.32-2.61a32.26,32.26,0,0,0,.41-3.66,37.59,37.59,0,0,1,.2-3.82l-.14.83c.2-1.25.35-2.5.54-3.75-.05.27-.09.54-.14.8a52.41,52.41,0,0,0,.65-6.63c0-1.05.13-2.12.23-3.17s.13-2.15.28-3.22c.13-.79.27-1.57.39-2.36.24-1.37.48-2.75.64-4.14s.22-2.55.3-3.82c.06-1,.1-2,.11-3s-.07-1.8-.07-2.7a65.38,65.38,0,0,1,.54-9.89c.12-.63.25-1.25.33-1.89.06-.45.07-.91.12-1.36.11-1.06.13-2.11.29-3.16.08-.5.07-1,.11-1.51s.12-1,.16-1.52c.07-1.15,0-2.31.16-3.46a24,24,0,0,0,.15-2.93c0-1,.17-2,.21-3s0-1.87.12-2.8.09-1.63.17-2.44a10.48,10.48,0,0,0,.18-1.37c0-.31,0-.61.07-.92.16-.84.35-1.67.49-2.51.11-.68.14-1.37.23-2.05s.06-1.41.15-2.11.07-1.37.12-2c0-.53.13-1,.12-1.56s-.05-1.22,0-1.83a17,17,0,0,0,0-1.75c0-.69-.11-1.37-.19-2a4.77,4.77,0,0,0-.19-1.19,4.72,4.72,0,0,1-.19-.89,4.09,4.09,0,0,0-1.86-2.62,4.32,4.32,0,0,0-2.29-.66,3.82,3.82,0,0,0-1,.11Z"/><path class="cls-1" d="M.82,34.3a7.92,7.92,0,0,0,0,1c0,.51.1,1,.12,1.55A11.91,11.91,0,0,1,.9,38.61c0,.14,0,.29-.05.44l0-.24c-.05.4-.07.8-.11,1.2l0-.34c-.09,1-.1,2-.11,3s0,2.1-.07,3.15a1.23,1.23,0,0,1,0-.19c0,.06,0,.13,0,.2h0c-.06.62-.1,1.23-.17,1.85l.06-.53c0,.27-.05.54-.08.81C.32,49.21.26,50.47.23,51.72c0,.58-.09,1.15-.12,1.72S.07,54.49,0,55s0,1.2,0,1.8,0,1.27,0,1.9c0,1.35,0,2.7,0,4.06a10.72,10.72,0,0,0,.12,1.7c.09.69.12,1.39.18,2.08C.38,67.7.37,68.85.48,70s.28,2.27.35,3.41S1,75.8,1,77s0,2.21,0,3.31c0,.53.05,1.05.08,1.57s0,1,0,1.55c0,1.13.06,2.26.13,3.4s.1,2.2.06,3.29,0,2.25,0,3.38c0,.58,0,1.17,0,1.75s0,1.1,0,1.66,0,1.06,0,1.6,0,1,0,1.57c0,1-.09,2.11-.07,3.18s0,2,0,3.08,0,2.18,0,3.28c-.06,2.32-.07,4.64-.08,7,0,1.13,0,2.28,0,3.41s0,2.18,0,3.27,0,2.25.08,3.36,0,2,.06,3c0,.51.07,1,.1,1.51s0,1,.09,1.52c.12,1,.11,2.05.22,3.07a13.09,13.09,0,0,1,.14,1.39q0,.71.06,1.41c0,.4,0,.8.07,1.19s0,.66,0,1l.12.7,0-.22c0,.16,0,.32.08.48a3.65,3.65,0,0,0,.23.73,2.75,2.75,0,0,1,.19.8,4.35,4.35,0,0,0,2.73.29,4.27,4.27,0,0,0,2.61-1.86,4.37,4.37,0,0,0,.55-3.25C8.14,137.2,8,136,7.8,134.77a30,30,0,0,1-.1-3.54,33.21,33.21,0,0,0-.29-4.88c-.11-1.47-.13-2.94-.14-4.41a38.3,38.3,0,0,1,.21-4.79,92.14,92.14,0,0,0,.59-10c0-1.61-.08-3.23-.1-4.84s-.06-3-.1-4.46c-.11-3.31-.13-6.62,0-9.94,0-.74.13-1.49.18-2.23s.08-1.59.11-2.39c.05-1.39-.2-2.78-.2-4.17,0-1.9.13-3.81.3-5.7a29.53,29.53,0,0,0-.14-5.72c-.16-1.6-.24-3.23-.31-4.84-.07-1.92,0-3.81.06-5.72,0-1.34-.11-2.67,0-4s.23-2.65.26-4c0-.73-.07-1.46-.07-2.19a24.77,24.77,0,0,0-.17-3.44C7.76,42.23,7.31,41,7,39.64c0-.08,0-.16,0-.23a2,2,0,0,1,.05-.24,4.44,4.44,0,0,0-.31-3.24,4.25,4.25,0,0,0-2.5-2.07,4,4,0,0,0-1.19-.17,4.7,4.7,0,0,0-2.29.61Z"/><path class="cls-1" d="M1.87,140.78c0,.1,0,.2,0,.3l0-.31Z"/><path class="cls-1" d="M195.23,0c-3.78,0-7.57,0-11.34.16-4.1.13-8.2.2-12.29.46-4.26.27-8.53.61-12.8.79-8.28.37-16.57.91-24.86,1.36s-16.43.86-24.63,1.58A116.66,116.66,0,0,0,96.11,6c-1.78.36-3.54.76-5.32,1.07s-3.28.58-4.92.89c-3.65.7-7.27,1.57-10.89,2.43-2,.48-4,1.17-6,1.63s-3.86.84-5.78,1.28-3.75.89-5.62,1.36c-1.7.44-3.42.82-5.12,1.28s-3.31,1-4.93,1.55c-1.83.63-3.66,1.21-5.51,1.79A99.15,99.15,0,0,1,31.61,21.8c-1.84.38-3.66.78-5.48,1.26-1.62.43-3.25.76-4.84,1.29l-4.52,1.51c-2,.67-3.92,1.5-5.86,2.3A34.73,34.73,0,0,0,7.17,30a38,38,0,0,0-4.92,3.43A4,4,0,0,0,.91,36c0,.29,0,.57.06.86s0,.42,0,.63a4.27,4.27,0,0,0,1,1.94,4.31,4.31,0,0,0,3,1.38,4.48,4.48,0,0,0,3-1.13c.59-.46,1.19-.91,1.79-1.35a29.79,29.79,0,0,1,3.44-1.92c.71-.34,1.45-.62,2.18-.92l2.27-1c1.53-.54,3.06-1,4.6-1.55s3.35-1,5.07-1.43,3.64-.92,5.48-1.29,3.83-.75,5.72-1.19a108.83,108.83,0,0,0,10.88-3.27c1.62-.57,3.27-1.11,4.93-1.56s3.42-.83,5.12-1.27c3.79-1,7.59-1.8,11.41-2.65,2-.45,4-1.13,6-1.63s3.86-.94,5.81-1.36c3.32-.71,6.64-1.39,10-2,1.78-.3,3.55-.71,5.32-1.07,2-.41,4.12-.71,6.2-.95l1.67-.18c4-.38,8-.69,12-1,2.1-.15,4.21-.31,6.32-.42s3.94-.16,5.91-.28c4.07-.24,8.14-.42,12.21-.67h.28a6,6,0,0,1,1.45-.38c.62-.05,1.24-.11,1.85-.14h-.16c.75,0,1.51-.06,2.27-.12S149.33,10,150,10a5.66,5.66,0,0,1,1.29.14l.29.08c.95-.06,1.9-.1,2.85-.15,2.31-.11,4.63-.18,6.94-.31,2-.12,4.08-.29,6.12-.42q6.18-.39,12.37-.58c8-.24,16.11-.48,24.16-.12,2.14.09,4.28.33,6.41.54s4.32.31,6.47.62c4.15.6,8.31,1.13,12.46,1.74,3.75.66,7.51,1.33,11.24,2.11,2.18.46,4.37.84,6.54,1.36s4.08,1,6.13,1.43,4.1.95,6.16,1.41,4.33,1,6.48,1.65c4,1.12,7.95,2.36,11.92,3.57l11.8,3.63c1.94.6,3.93,1.12,5.84,1.84,1.65.62,3.28,1.29,4.93,1.88s3.16,1.07,4.75,1.58c.95.3,1.89.59,2.81,1s1.92.81,2.89,1.18,2.05.72,3.08,1.07c.85.29,1.68.67,2.52,1,1.39.58,2.78,1.15,4.16,1.75l2.76,1.3c2.68,1.28,5.26,2.71,7.91,4.06,1.09.56,2.19,1.11,3.26,1.7,1.25.68,2.4,1.5,3.59,2.29,1,.68,2.1,1.3,3.19,1.89a26,26,0,0,1,2.43,1.65q1.17.83,2.37,1.62c.72.48,1.47.88,2.17,1.39l.22.2a28.37,28.37,0,0,0,3.1,2.35c.81.54,1.62,1.14,2.38,1.75l-.85-.71c.55.46,1.1.9,1.66,1.34l.36.31a5.9,5.9,0,0,1,.39.46A7.26,7.26,0,0,0,357,60.84a4.24,4.24,0,0,0,4.88-6.93l-.33-.41A9.45,9.45,0,0,0,360,52.17l.84.71c-.63-.53-1.27-1-1.92-1.56l.54.45c-.78-.64-1.57-1.24-2.37-1.86s-1.68-1.11-2.49-1.72c-.07-.07-.14-.12-.21-.18a21.1,21.1,0,0,0-1.71-1.42c-.44-.32-.9-.57-1.36-.86-.94-.57-1.83-1.22-2.75-1.84s-1.62-1.2-2.5-1.72c-1.17-.69-2.38-1.34-3.52-2.1s-2.46-1.66-3.78-2.38-2.59-1.33-3.88-2c-1.45-.72-2.82-1.57-4.29-2.27s-3-1.47-4.56-2.18l.68.31c-3.29-1.54-6.6-3-10-4.34-1-.38-2.06-.7-3.08-1.07s-1.95-.77-2.92-1.18c-1.73-.74-3.57-1.24-5.37-1.83-3.43-1.12-6.73-2.56-10.18-3.62l-11.75-3.61c-3.92-1.21-7.84-2.42-11.77-3.59-2.08-.62-4.16-1.22-6.26-1.76s-4.29-1-6.45-1.47c-2-.46-4-.95-6-1.39s-4.28-1.08-6.45-1.51c-4.1-.81-8.21-1.66-12.35-2.35-2.4-.41-4.78-.83-7.2-1.15-2-.26-3.93-.54-5.89-.82s-4.19-.63-6.3-.82-4.4-.38-6.6-.59C204,.06,199.9,0,195.8,0Z"/><path class="cls-1" d="M352.3,166.81c-2,.15-3.95.27-5.91.46l.5-.05c-1.87.17-3.73.34-5.59.59-.91.12-1.82.28-2.73.44s-1.71.24-2.57.39c-1.77.29-3.54.71-5.31,1.07-.93.19-1.86.39-2.81.54s-1.88.23-2.82.37c-2.14.32-4.25.81-6.38,1.18q-2.78.48-5.53,1c-2,.4-4,.9-5.95,1.44-1.8.49-3.65.8-5.45,1.31a49.55,49.55,0,0,1-4.94,1.24c-1.52.26-3,.59-4.55.88-2.69.5-5.32,1.18-8,1.8a4.25,4.25,0,0,0,1.94,8.28c1.35-.32,2.7-.64,4-1,1.73-.44,3.5-.71,5.25-1.07s3.51-.62,5.23-1.07c2-.51,3.9-1.08,5.88-1.52,1.82-.4,3.6-.92,5.41-1.35s3.64-.81,5.47-1.17c2.16-.43,4.34-.76,6.5-1.18,1.93-.38,3.86-.68,5.82-.92,1.48-.2,2.95-.57,4.42-.87,1.29-.27,2.58-.56,3.89-.78s2.64-.41,4-.62c1.07-.18,2.16-.33,3.24-.46l2.52-.21-.47,0c1.55-.13,3.11-.21,4.66-.33a4.54,4.54,0,0,0,3-1.12,4.25,4.25,0,0,0,.25-6,4.17,4.17,0,0,0-2.82-1.38Z"/><path class="cls-1" d="M241.7,114.55a24.87,24.87,0,0,0-4.11,1.23c-1.28.44-2.58.81-3.89,1.17a84.87,84.87,0,0,0-8.43,3.06l.23-.09c-1.61.6-3.21,1.24-4.81,1.85s-3.36,1.19-5,1.82l1-.38-4.51,1.66.46-.18c-1.07.38-2.13.78-3.19,1.18-2.51.91-5,1.87-7.45,2.94-1.13.49-2.22,1.05-3.33,1.57s-2.21,1-3.34,1.38c-1.86.69-3.71,1.42-5.6,2s-3.93,1.15-5.91,1.73c-3.62,1.07-7.16,2.4-10.7,3.74-3.25,1.16-6.52,2.31-9.8,3.39-1.86.61-3.67,1.34-5.53,1.93s-3.47,1.13-5.22,1.68c-4,1.27-8,2.4-12,3.61-4.19,1.28-8.39,2.51-12.53,3.94-1.21.42-2.42.84-3.62,1.29s-2.28.92-3.43,1.36c-1.64.6-3.29,1.17-5,1.67s-3.54.93-5.28,1.5c-1.38.45-2.76.84-4.16,1.22a48.63,48.63,0,0,0-5.48,1.9A4.06,4.06,0,0,0,99,165.26a4.23,4.23,0,0,0,2.81,5.3,4.55,4.55,0,0,0,3.24-.3l.61-.24c1.44-.51,2.91-.94,4.39-1.32,1.77-.45,3.48-1.11,5.25-1.57,2.1-.54,4.2-1.16,6.24-1.89s4-1.54,6-2.32c3.76-1.33,7.58-2.5,11.37-3.73,2.11-.68,4.27-1.25,6.4-1.86s4-1.26,6-1.84c3.68-1.08,7.36-2.22,11-3.52,3.36-1.21,6.77-2.28,10.13-3.47,2-.69,3.88-1.42,5.81-2.16,2.25-.83,4.51-1.66,6.81-2.33,1.37-.4,2.75-.77,4.13-1.15,1.68-.46,3.31-1.08,5-1.67s3.42-1.24,5.12-1.89a39.23,39.23,0,0,0,4.12-1.76,73.71,73.71,0,0,1,7.71-3.28l2.46-.92,2.83-1-.74.28L219.9,131l-.76.28c3-1.09,6-2.2,9-3.37l-.61.23c1.61-.6,3.2-1.23,4.8-1.84s3.45-1.12,5.21-1.61c2-.56,4-1.55,6.08-1.87a4.12,4.12,0,0,0,2.61-1.85,4.23,4.23,0,0,0-1.3-5.87,4.07,4.07,0,0,0-2.26-.64,6.61,6.61,0,0,0-1,.08Zm-14.23,13.63-.33.12.33-.12Zm-13,4.8-.51.19.51-.19Zm-36.8,13.57-.44.16.44-.16Z"/><path class="cls-1" d="M135.67,103.06c-3.07,1-6.08,2.08-9.08,3.22-2,.73-4.07,1.46-6.11,2.16-1.13.38-2.29.69-3.42,1.07s-2.48.87-3.71,1.34-2.32.89-3.46,1.37-2.18,1-3.29,1.43c-2.6.94-5.22,1.84-7.81,2.81S93.61,118.21,91,119s-5.38,1.89-8,2.92l-3.24,1.23-2.93,1.12c-1.54.56-3.12,1-4.68,1.52C70,126.42,68,127.16,66,128s-3.93,1.48-5.88,2.27l1-.38c-1.26.47-2.48,1-3.72,1.5s-2.4,1.08-3.63,1.57c-2.27.81-4.58,1.54-6.87,2.3-3.09,1-6.29,1.76-9.39,2.79-1.54.51-3.08,1-4.63,1.44s-2.85.91-4.25,1.42A34.05,34.05,0,0,1,24.46,142c-1.5.34-3,.64-4.52.83a29,29,0,0,1-6,0,12.56,12.56,0,0,1-1.58-.39,13.08,13.08,0,0,1-1.42-.9c-.22-.43-.41-.88-.61-1.32-.4-.85-.79-1.71-1.17-2.57a4.24,4.24,0,0,0-7.47-.07c0,.33,0,.67.05,1s0,.8.07,1.2,0,.66,0,1l.12.7,0-.22c0,.16,0,.32.08.48a3.65,3.65,0,0,0,.23.73,3.22,3.22,0,0,1,.2.92l.48,1a11.76,11.76,0,0,0,1.6,2.73,8.55,8.55,0,0,0,1.84,1.55c.48.3.91.65,1.4.92a11.48,11.48,0,0,0,2.8,1.18c1,.24,2.07.4,3.1.55a24.47,24.47,0,0,0,5.06.12,46.68,46.68,0,0,0,12.53-2.54c1.87-.66,3.76-1.22,5.65-1.8,2.13-.64,4.24-1.34,6.38-1.94s4-1.14,6-1.79c1.68-.57,3.37-1.15,5.06-1.69,3.25-1,6.28-2.56,9.43-3.82l-1,.38c1.36-.5,2.7-1.06,4.06-1.59l3.42-1.28c3.18-1.12,6.43-2,9.58-3.22l-.49.19.63-.23.36-.14-.07,0,2.25-.86c.79-.29,1.57-.6,2.36-.91,1.32-.48,2.62-1,3.93-1.51,2.3-.84,4.64-1.57,7-2.32s4.84-1.6,7.24-2.49,5-1.69,7.42-2.66c1.88-.75,3.7-1.63,5.59-2.37l.58-.22c2.45-.89,4.94-1.59,7.39-2.47s5.14-1.83,7.68-2.81c2-.71,3.94-1.4,5.94-2a4.46,4.46,0,0,0,2.61-1.85,4.29,4.29,0,0,0,.55-3.26,4.42,4.42,0,0,0-4.09-3.32,3.6,3.6,0,0,0-1,.15ZM77.8,123.9l-.31.11.31-.11Zm-.89.33-.09,0h0l.12,0ZM66.64,136.7a4.68,4.68,0,0,1-.48.18,4.68,4.68,0,0,0,.48-.18Z"/><path class="cls-1" d="M1.87,140.78c0,.1,0,.2,0,.3,0-.11,0-.21,0-.31Z"/><path class="cls-1" d="M238.21,115.16a4.32,4.32,0,0,0-1.87,2.73,4.27,4.27,0,0,0,.6,3.15l.74.87a4.22,4.22,0,0,0,2,1c1.63.54,3.25,1.06,4.89,1.55,2,.61,4.11,1.13,6.14,1.79l.91.32.54.18c2.26.83,4.55,1.53,6.83,2.28s4.41,1.86,6.62,2.78c1.11.46,2.27.75,3.42,1.11l1.93.61c2.13.8,4.18,1.82,6.22,2.79s4.39,2,6.54,3.14,4.56,2.2,6.79,3.39c1.12.6,2.22,1.23,3.38,1.77l3.25,1.52c2.78,1.29,5.63,2.37,8.39,3.7,1.55.75,3,1.63,4.53,2.49,1.06.61,2.2,1.09,3.28,1.67s2.34,1.26,3.53,1.87c1.66.85,3.23,1.87,4.89,2.71,1.39.7,2.78,1.4,4.15,2.14s2.55,1.19,3.79,1.85c1.82,1,3.62,2,5.39,3a39.32,39.32,0,0,0,4,2.18c.59.26,1.18.51,1.76.78s1.25.69,1.87,1,1.13.48,1.67.77c.3.16.6.33.91.48a6.89,6.89,0,0,0,2.89.65,4.09,4.09,0,0,0,2.93-1.41,4.24,4.24,0,0,0-.33-6,3.88,3.88,0,0,0-1.89-.94c-.55-.26-1.08-.58-1.63-.82-.79-.34-1.52-.78-2.28-1.19s-1.47-.67-2.21-1-1.62-.77-2.4-1.22c-2.17-1.21-4.28-2.53-6.47-3.72-1.25-.67-2.56-1.21-3.82-1.86s-2.66-1.42-4-2.09c-1.71-.85-3.32-1.87-5-2.76-1.17-.62-2.35-1.22-3.51-1.85s-2.28-1.11-3.39-1.72c-1.41-.78-2.8-1.62-4.24-2.37-2.8-1.47-5.79-2.54-8.66-3.86-2.25-1-4.48-2.07-6.65-3.26s-4.37-2.22-6.58-3.31-4.27-2.09-6.42-3.1c-2-.93-4-1.87-6-2.73a58.48,58.48,0,0,0-6.2-2.06c-2.24-.87-4.43-1.91-6.66-2.8-1.83-.73-3.74-1.22-5.61-1.82-1-.34-1.91-.7-2.88-1l1,.36-2-.68.31.11c-4.07-1.37-8.23-2.43-12.31-3.79a2.69,2.69,0,0,0-.81-.12,4.67,4.67,0,0,0-2.34.71ZM348.32,163l.27,0,.08,0-.35,0Z"/><path class="cls-1" d="M253.46,124.32a6.54,6.54,0,0,0-1.26.45l-.76.32-1.72.7c-.5.2-1,.45-1.48.66s-1.14.47-1.71.7c-1,.39-2,.73-2.91,1.14s-1.88.82-2.83,1.18c-1.34.5-2.66,1.06-4,1.58s-2.64,1.08-4,1.58l-.71.27c-3.1,1.11-6.16,2.35-9.24,3.51-1.67.61-3.32,1.26-5,1.93s-3.21,1.28-4.83,1.89l-4,1.39c-1.48.51-3,1-4.42,1.61-2.74,1.21-5.49,2.41-8.21,3.65-2.5,1.13-4.94,2.38-7.51,3.35-2.3.8-4.61,1.58-6.84,2.56s-4.45,1.83-6.7,2.69c-.95.33-1.9.63-2.85,1l-3.15,1.1q-3.36,1.19-6.73,2.32a1.62,1.62,0,0,0-.92.64,1.51,1.51,0,0,0-.21,1.15,1.5,1.5,0,0,0,1.79,1.14c3-1,5.91-2,8.87-3.08,1.49-.52,3-1,4.49-1.53s2.91-1.1,4.34-1.69c1.66-.69,3.3-1.44,5-2.08,1.49-.54,3-1,4.49-1.58s2.78-1.15,4.14-1.79,2.89-1.36,4.34-2,2.68-1.18,4-1.76,2.89-1.34,4.38-1.89l-.36.13c2.81-1,5.66-1.89,8.44-3s5.48-2.19,8.24-3.23l-.37.13c2.8-1,5.54-2.15,8.31-3.19l-.11,0,.13-.05.23-.09-.16.07,1.57-.57h0l.09,0h0c1.44-.52,2.85-1.13,4.28-1.69s2.75-1.12,4.13-1.63h0c.95-.36,1.88-.76,2.82-1.16s2-.81,3-1.19,2.11-.87,3.14-1.33,2.14-.9,3.21-1.32l.16,0a1.5,1.5,0,0,0-.36-3,1.53,1.53,0,0,0-.3,0Zm.42,3-.11,0,.11,0Zm-20.81,5.25-.2.07.2-.07Zm-.26.09-.1,0,.1,0Zm-43.89,17.59-.32.12.32-.12Zm42.73-14h0l.09,0-.07,0Z"/><path class="cls-1" d="M264.13,130.31c-1.05.48-2.11,1-3.18,1.41s-2.14.87-3.2,1.32c-2.14.89-4.23,1.91-6.39,2.75l-1,.37.07,0c-3,1.09-5.92,2.24-8.82,3.52-1.42.62-2.82,1.27-4.23,1.9s-2.8,1.09-4.2,1.65-2.8,1.18-4.2,1.76l-4.35,1.78c-1.37.57-2.75,1.07-4.12,1.63s-2.75,1.19-4.13,1.75l-1.16.46c-1.48.52-3,1-4.44,1.58l-4.31,1.6c-3,1.1-5.94,2.36-8.85,3.7q-2.19,1-4.41,1.95c-.68.28-1.33.62-2,.92l-2.18,1c-1.73.83-3.5,1.58-5.28,2.29a1.44,1.44,0,0,0-.74.88,1.49,1.49,0,0,0,1,1.89,1.63,1.63,0,0,0,1.15-.1c1.6-.64,3.18-1.3,4.74-2q2.08-1,4.2-1.94c.68-.32,1.38-.59,2.07-.89s1.47-.65,2.2-1c1.45-.67,2.89-1.33,4.35-2s2.78-1.15,4.19-1.68l-.36.13q3.09-1.12,6.16-2.28c1.48-.54,3-1,4.45-1.59s2.84-1.2,4.26-1.8c.68-.29,1.37-.56,2.06-.83s1.37-.5,2-.78c1.44-.61,2.89-1.2,4.33-1.79s2.81-1.16,4.2-1.75,2.81-1.05,4.18-1.63,2.88-1.29,4.32-1.94,2.84-1.23,4.26-1.82,2.71-1,4.07-1.55l-.25.09,1.26-.46-.12.05c2.39-.87,4.68-2,7-3,1.08-.46,2.16-.89,3.24-1.34l1.74-.73c.6-.26,1.19-.55,1.79-.82a1.51,1.51,0,0,0,.64-2,1.45,1.45,0,0,0-1.32-.8,1.76,1.76,0,0,0-.7.15ZM215.41,150.5l-.11,0,.11,0Zm-.25.09-.1,0,.1,0Z"/><path class="cls-1" d="M275.23,134.81c-.84.37-1.7.7-2.54,1.06s-1.79.79-2.68,1.2c-1.67.78-3.36,1.56-5.08,2.25-1.48.52-3,1.08-4.42,1.68-.69.29-1.38.61-2.05.94s-1.41.62-2.11.95c-1.3.61-2.61,1.25-3.9,1.89-.7.34-1.39.69-2.09,1s-1.44.61-2.15.93l-4.3,1.9c-1.46.63-2.95,1.18-4.43,1.78-.73.29-1.47.55-2.19.86s-1.45.66-2.17,1c-1.38.68-2.78,1.33-4.18,2s-2.89,1.33-4.35,2-3,1.26-4.52,1.87-2.86,1.19-4.29,1.79c-.76.32-1.53.64-2.28,1l-2.24,1.06c-1.22.57-2.41,1.21-3.6,1.83-1.36.73-2.72,1.45-4.07,2.19a1.52,1.52,0,0,0-.64,2,1.5,1.5,0,0,0,2,.64c2.77-1.52,5.56-3,8.42-4.37.74-.34,1.47-.72,2.23-1l2.29-1c.71-.3,1.41-.62,2.13-.91l2.17-.88c1.53-.62,3-1.25,4.57-1.91s2.87-1.28,4.29-1.94,2.74-1.29,4.1-1.94,3-1.26,4.44-1.85,3-1.18,4.42-1.8,2.83-1.27,4.25-1.88c.73-.31,1.45-.62,2.16-1l2-1c1.35-.66,2.7-1.33,4.07-1.94,1.09-.49,2.16-1,3.27-1.49s2.2-.87,3.3-1.28,2-.73,2.93-1.17,2-.87,2.95-1.32,1.86-.87,2.8-1.27,1.9-.78,2.84-1.19a1.5,1.5,0,0,0,.64-2,1.48,1.48,0,0,0-.87-.74,1.33,1.33,0,0,0-.43-.07,1.79,1.79,0,0,0-.71.16Z"/><path class="cls-1" d="M287,138.53c-1.43.64-2.88,1.25-4.29,1.94-.7.35-1.41.68-2.11,1s-1.39.69-2.12,1q-2.18.85-4.27,1.88c-.68.33-1.34.7-2,1s-1.43.72-2.13,1.09c-1.44.73-2.93,1.37-4.4,2s-2.87,1.31-4.33,1.92l-4.5,1.87c-1.45.6-2.86,1.25-4.29,1.9-3,1.34-5.93,2.62-8.82,4.1-1.43.74-2.85,1.5-4.29,2.22s-2.88,1.38-4.31,2.11c-1.59.81-3.19,1.59-4.83,2.32-.83.37-1.68.7-2.5,1.08s-1.81.87-2.7,1.32a1.5,1.5,0,0,0,1.38,2.66l2.46-1.21c.66-.32,1.35-.58,2-.86,1.51-.62,3-1.36,4.44-2.09,2.84-1.41,5.7-2.78,8.51-4.26,1.43-.76,2.89-1.49,4.36-2.18s3-1.33,4.47-2,2.94-1.33,4.42-2,2.81-1.17,4.21-1.76q4.57-1.94,9.08-4c.66-.31,1.3-.66,2-1s1.45-.73,2.16-1.11c1.35-.71,2.75-1.34,4.15-1.93.77-.32,1.55-.61,2.31-1l2.43-1.17c1.62-.79,3.27-1.52,4.91-2.25a1.51,1.51,0,0,0,.65-2,1.47,1.47,0,0,0-1.33-.8,1.62,1.62,0,0,0-.7.16Z"/><path class="cls-1" d="M297.25,145.16c-1.45.66-2.86,1.43-4.29,2.12s-2.76,1.31-4.11,2-2.84,1.49-4.27,2.21-2.9,1.28-4.39,1.85l-1.79.66.08,0c-1.53.54-3.05,1.09-4.54,1.71s-3,1.35-4.54,2.07c-2.79,1.32-5.51,2.77-8.29,4.14-1.35.66-2.72,1.3-4.09,1.92s-3,1.4-4.45,2.11-2.86,1.38-4.3,2c-.74.34-1.49.66-2.21,1s-1.33.73-2,1.13l-.71.43a1.59,1.59,0,0,0-.74.87,1.53,1.53,0,0,0,.1,1.15,1.5,1.5,0,0,0,2,.64c.68-.41,1.36-.84,2.06-1.22a23.92,23.92,0,0,1,2.16-1c1.48-.66,2.94-1.37,4.4-2.08s2.81-1.37,4.23-2,2.93-1.34,4.38-2L265.7,163c1.29-.66,2.56-1.33,3.87-2s2.73-1.35,4.13-2,2.68-1.13,4.05-1.64,3-1.06,4.44-1.63c.73-.27,1.45-.56,2.16-.85s1.51-.71,2.25-1.08c1.34-.68,2.66-1.38,4-2.07s2.89-1.42,4.33-2.12c1.24-.6,2.45-1.26,3.71-1.84a1.51,1.51,0,0,0,.64-2,1.46,1.46,0,0,0-1.33-.8,1.55,1.55,0,0,0-.69.16Z"/><path class="cls-1" d="M309.92,150.76c-.92.5-1.82,1-2.75,1.51s-1.91.92-2.88,1.33c-2,.85-4,1.66-6,2.43l.36-.13c-3.09,1.12-6.15,2.32-9.15,3.65s-5.67,2.79-8.51,4.16-5.94,2.9-8.9,4.38q-2.14,1.08-4.32,2.11c-1.43.68-2.85,1.38-4.28,2.05-.86.4-1.73.77-2.59,1.15s-1.85.85-2.77,1.27a1.51,1.51,0,0,0-.65,2,1.52,1.52,0,0,0,2,.64c.81-.36,1.61-.74,2.42-1.11s1.39-.59,2.07-.91c1.52-.69,3-1.41,4.51-2.14s2.79-1.34,4.17-2,3-1.53,4.56-2.28c2.88-1.43,5.81-2.79,8.68-4.26s5.7-2.76,8.64-3.94l3.39-1.35-.36.13c1.32-.48,2.63-1,3.93-1.48q1.62-.65,3.24-1.32c1.15-.48,2.28-1,3.4-1.53s2.09-1.13,3.13-1.69a1.5,1.5,0,0,0-1.38-2.67Z"/><path class="cls-1" d="M319.29,158.38c-1.68.78-3.43,1.45-5.15,2.15s-3.3,1.34-5,2-3.1,1-4.61,1.65-2.82,1.24-4.22,1.86-3,1.35-4.56,2l-4.44,1.81c-1.47.59-2.94,1.18-4.4,1.8s-2.88,1.33-4.33,2-2.87,1.37-4.29,2.1-2.85,1.51-4.3,2.18c-.62.29-1.24.54-1.87.79-.44.15-.88.29-1.32.41s-1.19.26-1.77.39a1.5,1.5,0,1,0,.65,2.92c.83-.17,1.64-.34,2.45-.57a24.1,24.1,0,0,0,2.45-.92c1.45-.61,2.85-1.36,4.25-2.1s2.93-1.48,4.41-2.19,2.91-1.41,4.38-2.06,2.93-1.25,4.4-1.83l4.4-1.78c3-1.21,5.86-2.56,8.8-3.83.54-.23,1.09-.46,1.64-.67,1.13-.39,2.27-.76,3.4-1.17s2.34-.89,3.5-1.36l3.43-1.4c1.16-.46,2.31-.92,3.44-1.44a1.51,1.51,0,0,0,.65-2,1.48,1.48,0,0,0-1.34-.8,1.72,1.72,0,0,0-.69.15Z"/><path class="cls-1" d="M71.19,56.38a2,2,0,0,0,.11,1.8c0,.4,0,.8.07,1.19s.1,1,.14,1.56c.09,1.12.2,2.24.29,3.35.17,2.19.28,4.4.31,6.6,0,.81-.08,1.63-.19,2.43s-.27,1.7-.44,2.55c-.34,1.73-.72,3.46-1.17,5.17l0,.07a13.2,13.2,0,0,1-1.13,2.62A10.71,10.71,0,0,1,68,85.19a8.76,8.76,0,0,1-1.15.85,9.32,9.32,0,0,1-1.26.53,5.58,5.58,0,0,1-.81.09,20.43,20.43,0,0,1-3.55-.53,10.6,10.6,0,0,1-1.8-.77,10.38,10.38,0,0,1-1.15-.93,11.11,11.11,0,0,1-1.12-1.53,14.38,14.38,0,0,1-.65-1.44c-.21-.54-.37-1.1-.53-1.65-.17-.72-.33-1.43-.49-2.15-.2-.91-.41-1.83-.56-2.75a41.77,41.77,0,0,1-.44-5.12c-.07-1.73-.11-3.45-.12-5.18A25.68,25.68,0,0,0,54.3,62c-.11-1.07-.3-2.12-.49-3.19A2,2,0,0,0,51.59,57a2,2,0,0,0-1.75,2.22,26.42,26.42,0,0,1,.49,3.31c.06,1,.11,2,.09,3,0,1.93.07,3.86.17,5.78,0,1,.13,1.89.22,2.83s.32,1.9.51,2.86a36.55,36.55,0,0,0,1.57,6.09,11.64,11.64,0,0,0,3.58,5,12.45,12.45,0,0,0,6.15,2.32c.47.06,1,.13,1.42.15s.88,0,1.32,0a7.38,7.38,0,0,0,1.73-.35,10,10,0,0,0,2.81-1.46,9.1,9.1,0,0,0,1.37-1.26,7.53,7.53,0,0,0,.89-1.15,18.7,18.7,0,0,0,1.61-3.15,8.29,8.29,0,0,0,.31-1c0-.18.1-.37.16-.55,0,.15-.09.3-.13.45v-.06l0,.1v0a.65.65,0,0,1,0-.13l0-.09,0,.08c.57-2,1-4,1.4-6.09a29,29,0,0,0,.54-6.23c0-2-.14-4-.3-6s-.38-3.82-.47-5.73c0-.25,0-.51-.08-.76a2.39,2.39,0,0,0-1.4-1.91,2,2,0,0,0-.78-.16,2,2,0,0,0-1.85,1.2Zm-.8,24.39v0h0v0Zm3.74,1.33h0v0Z"/><path class="cls-1" d="M112.8,50.23a1.91,1.91,0,0,0-.8,1.33c0,1-.12,2-.22,3.06a25.33,25.33,0,0,1-.41,2.73c-.4,2-.81,4.06-1.11,6.11-.15,1-.31,2-.45,3.05s-.19,2-.26,3c-.14,2-.15,4-.24,6,0,.19,0,.39,0,.58l-.12-.12c-.54-.58-1.08-1.18-1.58-1.8s-1.17-1.56-1.72-2.36-1.16-1.68-1.77-2.5-1.18-1.54-1.76-2.32c-1.22-1.62-2.32-3.34-3.38-5.07s-2.24-3.59-3.34-5.4c-.39-.65-.76-1.3-1.14-2-.23-.42-.46-.84-.72-1.25a3.49,3.49,0,0,0-.72-.81A2.6,2.6,0,0,0,91.89,52a2.46,2.46,0,0,0-1.17.14l-.58.31c-.17.15-.33.31-.49.48A3,3,0,0,0,89.12,54c-.07.19-.14.38-.2.57-.16.48-.31,1-.46,1.44-.33,1.06-.63,2.14-.87,3.23s-.46,2-.65,3.06c-.35,2-.63,4-.92,6s-.74,4-1.09,6-.6,4-.84,6.08a2,2,0,1,0,4,.57c.23-2,.48-4,.84-6S89.63,71,90,69s.52-3.71.85-5.56.7-3.54,1.17-5.28c.64,1.09,1.3,2.18,2,3.25,1.12,1.76,2.16,3.58,3.32,5.33.56.84,1.13,1.68,1.74,2.5s1.2,1.53,1.78,2.32S102,73.17,102.55,74s1.1,1.61,1.71,2.36a23.8,23.8,0,0,0,4.21,4.24,4.49,4.49,0,0,0,.91.58,2.51,2.51,0,0,0,1.94,0,3.32,3.32,0,0,0,1.74-2.69,12,12,0,0,0,.15-1.33c0-.47.06-1,.08-1.43.06-2,.1-4,.23-5.92.08-1,.16-2.11.31-3.15s.3-2,.45-3.08c.29-2,.7-3.91,1.09-5.86.16-.85.29-1.71.37-2.57s.2-2,.22-3a2.24,2.24,0,0,0-.36-1.47,2.07,2.07,0,0,0-1.34-.8l-.27,0a2,2,0,0,0-1.19.39Z"/><path class="cls-1" d="M138.29,46.91A9.65,9.65,0,0,0,134.61,48a9.53,9.53,0,0,0-3,2.72,18.54,18.54,0,0,0-1.69,2.76,11.52,11.52,0,0,0-1,3.4,7.23,7.23,0,0,0,0,2.32,4.87,4.87,0,0,0,.67,1.73,6.71,6.71,0,0,0,1.22,1.44,9.73,9.73,0,0,0,2.08,1.37,10.78,10.78,0,0,0,1.49.6A30.26,30.26,0,0,0,139,65.48c1.35.24,2.68.46,4,.8a14,14,0,0,1,1.78.75A9.59,9.59,0,0,1,148,70.35a6.4,6.4,0,0,1,.36,1,5.4,5.4,0,0,1,.08.69,11.2,11.2,0,0,1-.26,1.64,9.07,9.07,0,0,1-.62,1.39,8.33,8.33,0,0,1-.76.91A13,13,0,0,1,145.34,77a5.65,5.65,0,0,1-3,.77,18.39,18.39,0,0,1-3.76-.73,23.9,23.9,0,0,1-4.55-1.9l-.48-.35A2,2,0,1,0,131,77.92a19.68,19.68,0,0,0,6.59,3c1,.29,2,.54,3.05.73a10.4,10.4,0,0,0,5.16-.45,8.93,8.93,0,0,0,1.29-.61,12.11,12.11,0,0,0,1.55-1,9.6,9.6,0,0,0,2.08-2.14,9.87,9.87,0,0,0,1.41-3.3,7.68,7.68,0,0,0,0-4A10.91,10.91,0,0,0,149,65.23a11.52,11.52,0,0,0-4.13-2.54,29.67,29.67,0,0,0-4.68-1.07c-1.32-.23-2.65-.49-3.95-.82a13.09,13.09,0,0,1-2.06-.84,7.39,7.39,0,0,1-1-.77q-.14-.16-.27-.36l-.09-.24c0-.15,0-.3,0-.44A10.15,10.15,0,0,1,133,56.4a12.4,12.4,0,0,1,1-2.1,13.92,13.92,0,0,1,1.5-2,8.89,8.89,0,0,1,.91-.71,10.27,10.27,0,0,1,1.51-.59,6.49,6.49,0,0,1,1.08-.12,7,7,0,0,1,.78.11,12.82,12.82,0,0,1,2.37,1.19l1.39.88a2.18,2.18,0,0,0,1.49.43,2,2,0,0,0,1.75-2.22,1.89,1.89,0,0,0-.72-1.32c-1-.65-2-1.3-3.1-1.88a10.32,10.32,0,0,0-1.29-.64,7.54,7.54,0,0,0-2.8-.54l-.57,0Zm3.91,5.31.05,0-.05,0Z"/><path class="cls-1" d="M165.17,52c-.51,4.28-.6,8.6-.75,12.91-.07,2-.12,4-.19,6s-.29,3.83-.4,5.75a40.21,40.21,0,0,0,0,5,2,2,0,1,0,4-.46c-.07-.9-.1-1.79-.1-2.69.06-1.91.25-3.8.36-5.71s.14-4,.22-6.08.13-4.24.24-6.36.21-4.12.38-6.18c0-.56.12-1.13.18-1.68a2,2,0,0,0-1.7-2.27h-.26a2,2,0,0,0-2,1.71Zm2.58,26.15v0Z"/><path class="cls-1" d="M174,47.66a6.54,6.54,0,0,0-1.89.51l-.77.31-2.17,1a2.11,2.11,0,0,0-1.1,1.06,2,2,0,0,0,2.57,2.66,38.61,38.61,0,0,1,3.56-1.54l.34,0a7.43,7.43,0,0,1,1.16.22c1.59.48,3.12,1.1,4.66,1.71a17.27,17.27,0,0,1,2.29,1.11,5.23,5.23,0,0,1,.73.59l.12.16c.09.21.17.42.24.64a5.21,5.21,0,0,1,.08.55,11.63,11.63,0,0,1-.36,1.94,15.8,15.8,0,0,1-1.07,2.5,15.25,15.25,0,0,1-1.77,2.14,23.55,23.55,0,0,1-3,2.44,26,26,0,0,1-2.95,1.2c-1,.37-2.08.69-3.13,1-.75.16-1.49.32-2.24.43s-1.63.15-2.44.27A2,2,0,0,0,165,70.73a2,2,0,0,0,2.22,1.75c1-.15,1.93-.19,2.88-.35a27.75,27.75,0,0,0,3.13-.7c1-.27,2-.58,2.94-.93a19.44,19.44,0,0,0,2.68-1.07,15.14,15.14,0,0,0,2.73-1.83A30.46,30.46,0,0,0,184,65.42,13.59,13.59,0,0,0,187.12,60a19.65,19.65,0,0,0,.54-2.17,6.51,6.51,0,0,0-.81-4.48c-1.08-1.77-3.09-2.63-4.91-3.43-.67-.3-1.38-.55-2.07-.82-.92-.35-1.84-.67-2.78-1-.53-.16-1.06-.3-1.61-.41a4.6,4.6,0,0,0-.91-.08l-.62,0Zm-.06,4.06-.07,0,.07,0Zm2,.19.14,0-.14,0Z"/><path class="cls-1" d="M195.94,53.31c-.21,2.09-.59,4.14-1,6.19s-.76,4.06-1.08,6.1-.57,3.9-.79,5.86c-.11.94-.24,1.88-.38,2.82s-.21,2-.26,2.93c0,.6-.05,1.2-.08,1.8a4.08,4.08,0,0,0,.53,2.58A3.51,3.51,0,0,0,195.24,83a20.74,20.74,0,0,0,2.09.1,14.54,14.54,0,0,1,2.17.4c.91.27,1.82.56,2.75.75a24.75,24.75,0,0,0,3.54.4,2.1,2.1,0,0,0,1.46-.36,2,2,0,0,0-.9-3.6c-.84,0-1.68-.11-2.52-.22a14.7,14.7,0,0,1-2-.41c-1-.3-2-.61-3.11-.81a21.85,21.85,0,0,0-2.42-.16c0-.65.06-1.3.08-1.95a27.58,27.58,0,0,1,.31-2.85c.29-1.93.48-3.86.75-5.79s.57-4,.94-6,.81-4,1.13-6c.14-.9.25-1.8.34-2.71a2,2,0,0,0-1.7-2.26,1.23,1.23,0,0,0-.27,0,2,2,0,0,0-2,1.71ZM195.87,79l0,0h0l0,0Zm3.19,4.37.13,0-.13,0Z"/><path class="cls-1" d="M227.49,54.88a3.8,3.8,0,0,0-1.13.35,4.3,4.3,0,0,0-1.05.68,16.8,16.8,0,0,0-2.37,2.81,33.18,33.18,0,0,0-1.85,3,40.19,40.19,0,0,0-2.49,5.42c-.77,2-1.56,3.9-2.14,5.91-.28.93-.54,1.85-.74,2.8s-.31,1.63-.44,2.45c-.26,1.69-.41,3.4-.63,5.1a2,2,0,0,0,4,.56c.2-1.56.37-3.13.57-4.68A36,36,0,0,1,220,75c.64-2.1,1.4-4.14,2.21-6.18.42-1.05.86-2.08,1.31-3.11A28.51,28.51,0,0,1,225,62.83c.39-.64.8-1.27,1.25-1.87A18.94,18.94,0,0,1,227.79,59l.22-.16h0a2.07,2.07,0,0,1,.34.15l.12.1a8.72,8.72,0,0,1,.65.94,30.55,30.55,0,0,1,2.45,6.16,19.35,19.35,0,0,1,.49,2.61c.1,1,.13,2,.18,3,.11,1.93.38,3.85.41,5.79-.06,1.39-.19,2.77-.37,4.15-.08.63-.2,1.26-.32,1.88-.25,1.23-.19,2.7,1.14,3.29a2,2,0,0,0,1.53,0,2.11,2.11,0,0,0,1.1-1.06s0,0,0,0a1.68,1.68,0,0,0,.11-1.3c0-.24.08-.48.13-.71.09-.49.17-1,.24-1.45a29.89,29.89,0,0,0,.32-3,29.14,29.14,0,0,0,0-3.62c-.08-1-.21-2.08-.28-3.13a39,39,0,0,0-.53-6,30,30,0,0,0-1.92-6,27.29,27.29,0,0,0-1.78-3.44,5.08,5.08,0,0,0-2.68-2.11,4.56,4.56,0,0,0-1.53-.26Zm1,3.85-.27.07.27-.07Z"/><path class="cls-1" d="M217.8,67.92a2,2,0,0,0-.8,1.33,2.06,2.06,0,0,0,.37,1.46,2.11,2.11,0,0,0,1.33.8c1.93.45,3.84,1,5.8,1.3.94.15,1.89.25,2.84.37s2.07.29,3.1.48A2,2,0,0,0,232.71,72,2,2,0,0,0,231,69.7c-1-.18-2-.34-2.94-.46s-1.9-.21-2.84-.36c-2-.32-4-.86-6-1.33a1.53,1.53,0,0,0-.3,0,2.11,2.11,0,0,0-1.17.4Z"/><path class="cls-1" d="M256.62,60.12a9.59,9.59,0,0,0-3.22.66,12.94,12.94,0,0,0-1.58.79,9.88,9.88,0,0,0-1.33.88,10.14,10.14,0,0,0-2.6,3.12,6.12,6.12,0,0,0-.72,3.07,5.64,5.64,0,0,0,.26,1.53A4.6,4.6,0,0,0,248.69,72a18.18,18.18,0,0,0,3.37,2.48c1.18.73,2.32,1.49,3.45,2.28s2.33,1.64,3.52,2.42a19.42,19.42,0,0,1,2.87,2.24,9.35,9.35,0,0,1,.82,1.16,11.14,11.14,0,0,1,.68,1.68,5.85,5.85,0,0,1,.07.72,6.56,6.56,0,0,1-.11.89,5.64,5.64,0,0,1-.31.71c-.13.18-.26.35-.4.51a5.3,5.3,0,0,1-.54.39,13.05,13.05,0,0,1-2.36.86,8.25,8.25,0,0,1-1.41.19,15.3,15.3,0,0,1-3.07-.6,24.79,24.79,0,0,1-5-1.93,7.27,7.27,0,0,1-1-.81,2.5,2.5,0,0,1-.18-.24l-.06-.18a2,2,0,0,0-3.72,1.47,7.33,7.33,0,0,0,3.61,3.55A15,15,0,0,0,251.6,91c1.11.38,2.23.72,3.37,1a12.08,12.08,0,0,0,4.47.5,10.87,10.87,0,0,0,2-.47c.5-.15,1-.31,1.48-.51a9.8,9.8,0,0,0,2-1.12,6.53,6.53,0,0,0,2.28-3.69,7.81,7.81,0,0,0,.16-2.64,8.31,8.31,0,0,0-.42-1.63c-.08-.24-.19-.48-.28-.72a11.78,11.78,0,0,0-.79-1.49,6.89,6.89,0,0,0-.86-1.2,16.3,16.3,0,0,0-3.21-2.71c-1.19-.81-2.38-1.6-3.55-2.43s-2.39-1.65-3.62-2.42a19.66,19.66,0,0,1-3.29-2.35l-.17-.22s0-.09,0-.13l0-.34a4.29,4.29,0,0,1,.07-.5,7.91,7.91,0,0,1,.35-.79,9.18,9.18,0,0,1,1-1.23,11.47,11.47,0,0,1,1.52-1.06,9.87,9.87,0,0,1,1.43-.56,9,9,0,0,1,1.63-.2,8.29,8.29,0,0,1,1.41.23,34.12,34.12,0,0,1,6.06,2.84c.81.51,1.61,1,2.41,1.59a2.19,2.19,0,0,0,1.5.43,2,2,0,0,0,1.32-.73,2,2,0,0,0-.3-2.82c-1.06-.71-2.11-1.44-3.23-2.07-.92-.53-1.86-1-2.81-1.5a26.41,26.41,0,0,0-2.67-1.18c-.59-.21-1.2-.38-1.81-.55a8.07,8.07,0,0,0-2.13-.21Zm-7.47,25h0Zm0,0h0l.12.23-.13-.23Z"/><path class="cls-1" d="M279.61,68.45c-.44,2.09-.89,4.17-1.33,6.25s-.78,4-1.26,5.93-1.15,3.86-1.52,5.84c-.19,1-.33,2-.49,2.94a19.83,19.83,0,0,0-.31,2.87,4.5,4.5,0,0,0,.58,2.74,2,2,0,0,0,3.44-2c0-.16,0-.32-.05-.48A22.4,22.4,0,0,1,279,90.1c.15-1,.3-2,.49-2.93.37-2,1-3.89,1.5-5.84s.86-4,1.28-6,.88-4.1,1.31-6.15c0-.07,0-.14,0-.21a2,2,0,0,0-1.7-2.26,1.46,1.46,0,0,0-.29,0,2,2,0,0,0-2,1.71Z"/><path class="cls-1" d="M279.32,82.88a2,2,0,0,0,.36,1.46,2.11,2.11,0,0,0,1.33.8c1.48.34,2.95.61,4.45.81a38.83,38.83,0,0,1,4.17.47,2,2,0,0,0,2.26-1.7,2,2,0,0,0-.36-1.46,2.15,2.15,0,0,0-1.33-.8,37.83,37.83,0,0,0-4.1-.47,40.34,40.34,0,0,1-4.52-.81,1.45,1.45,0,0,0-.35,0,2.06,2.06,0,0,0-1.91,1.74Z"/><path class="cls-1" d="M296.27,68.05c-.41,1-.86,2-1.25,3s-.76,2.07-1.13,3.1c-.7,2-1.34,4-1.95,6a66.49,66.49,0,0,0-2.39,12.28,51.23,51.23,0,0,1-1.26,7.17,2,2,0,0,0,.37,1.47,2,2,0,0,0,2.79.43,2.15,2.15,0,0,0,.8-1.33,42.46,42.46,0,0,0,.91-4.46c.2-1.38.34-2.76.52-4.14a73.42,73.42,0,0,1,1.66-9c.63-2.1,1.31-4.18,2-6.26.37-1.08.75-2.15,1.16-3.21s.94-2.29,1.42-3.44a2,2,0,0,0-1-2.63,2,2,0,0,0-2.64,1Z"/><path class="cls-1" d="M337.27,59.58a1.77,1.77,0,0,0-.91,1,1.73,1.73,0,0,0,.06,1.32,1.91,1.91,0,0,0,1,.91L339.79,64l1.16.59-.16-.08c1.55.8,3.08,1.63,4.59,2.51s3.11,2,4.64,3,3,2.08,4.4,3.21c.66.52,1.31,1.07,2,1.58l2.08,1.51a3.11,3.11,0,0,1,.28.23,1.68,1.68,0,0,0,1.29.27,1.74,1.74,0,0,0,1.41-2,1.85,1.85,0,0,0-.73-1.14c-.68-.56-1.43-1-2.13-1.57s-1.44-1.11-2.15-1.69c-1.38-1.14-2.86-2.18-4.34-3.18s-3-2-4.5-2.93-3.12-1.77-4.72-2.59l-.85-.44.08,0-3.54-1.77a1.17,1.17,0,0,0-.53-.11,2,2,0,0,0-.79.17ZM339.7,64l.06,0-.06,0Z"/><path class="cls-1" d="M333.38,70.76a1.75,1.75,0,0,0,.47,2.43c1.06.65,2.1,1.33,3.18,2s2.22,1.24,3.36,1.81c2,1,4.1,1.87,6.12,2.88a41.47,41.47,0,0,1,4.13,2.4l2.06,1.4c.76.53,1.47,1.12,2.22,1.68a1.75,1.75,0,0,0,2.43-.46,1.77,1.77,0,0,0-.47-2.43c-.61-.47-1.21-1-1.84-1.41s-1.21-.86-1.84-1.28a42.52,42.52,0,0,0-3.72-2.28c-1.39-.73-2.79-1.44-4.22-2.09-1.28-.58-2.57-1.15-3.83-1.78q-1.28-.66-2.52-1.38c-1.05-.62-2.06-1.28-3.1-1.91a1.93,1.93,0,0,0-1-.29,1.71,1.71,0,0,0-1.43.75Zm8.2,2.91.1.06-.1-.06Zm4.73,6.06.1,0-.1,0Z"/><path class="cls-1" d="M339.74,88.75A1.77,1.77,0,0,0,340.82,91c1.24.4,2.48.81,3.71,1.26a26.08,26.08,0,0,1,2.7,1.2c.54.28,1.08.56,1.59.89s1.15.82,1.76,1.17a1.75,1.75,0,0,0,2-2.9c-.77-.44-1.46-1-2.24-1.45s-1.77-1-2.68-1.38a49.24,49.24,0,0,0-5.66-2.1,1.78,1.78,0,0,0-2.23,1.08Z"/><path class="cls-1" d="M332.86,110a1.77,1.77,0,0,0,1.08,2.23c1.83.78,3.63,1.59,5.42,2.46l-.07,0,.77.39-.1,0c2.07,1,4,2.27,6,3.46l3,1.82c.47.28.94.56,1.43.82.65.34,1.33.64,2,.95a1.68,1.68,0,0,0,1.32-.06,1.74,1.74,0,0,0,.91-1,1.77,1.77,0,0,0-.06-1.32,1.91,1.91,0,0,0-1-.91l-1.19-.55c-1.8-1-3.52-2.08-5.27-3.15-2-1.21-4-2.36-6.11-3.41l.41.21c-2.07-1.06-4.18-2-6.32-2.91a1.55,1.55,0,0,0-.56-.11,1.85,1.85,0,0,0-1.67,1.18Zm7.2,5,.3.15-.3-.15Z"/><path class="cls-1" d="M337.29,122.59a1.77,1.77,0,0,0,.46,2.43c1,.71,1.93,1.41,2.94,2.07s1.83,1.16,2.75,1.74c2.06,1.3,4.21,2.46,6.29,3.73a1.75,1.75,0,0,0,2-2.9c-2-1.24-4.15-2.38-6.18-3.66l-2.82-1.78c-1-.65-2-1.37-3-2.09a1.5,1.5,0,0,0-1-.31,1.79,1.79,0,0,0-1.48.77Z"/><path class="cls-1" d="M18.33,46.44a47.65,47.65,0,0,0-5.77,2.27c-1.76.88-3.49,1.86-5.18,2.88l.07,0-.12.07h0l-.06,0h0l-.2.12.27-.17a2.14,2.14,0,0,0-.39.24l0,0,0,0h0l-1.17.72a1.65,1.65,0,0,0-.64,1.18,1.75,1.75,0,0,0,1.55,1.92A1.91,1.91,0,0,0,8,55.32c.25-.17.51-.33.77-.49l.1-.06.47-.28c1.52-.91,3.08-1.78,4.66-2.57a47,47,0,0,1,5.77-2.26,1.75,1.75,0,0,0-.08-3.24,1.58,1.58,0,0,0-.59-.11,2.39,2.39,0,0,0-.73.13ZM6.71,52l.22-.13h0L6.71,52Zm.61-.38h0l0,0-.06,0Z"/><path class="cls-1" d="M27.78,54.59Q22.64,56.65,17.64,59A67.32,67.32,0,0,0,8,64.71c-.54.38-1.06.77-1.58,1.16s-1.19.95-1.82,1.35A1.65,1.65,0,0,0,4,68.4a1.75,1.75,0,0,0,.37,1.28,1.79,1.79,0,0,0,1.18.64,1.85,1.85,0,0,0,1.28-.38c.64-.39,1.23-.9,1.83-1.35s1.06-.79,1.61-1.17c1.17-.83,2.37-1.62,3.58-2.39,2.36-1.39,4.8-2.61,7.28-3.77,2.65-1.24,5.35-2.37,8.07-3.46a1.77,1.77,0,0,0,.91-2.3,1.74,1.74,0,0,0-1.62-1,1.87,1.87,0,0,0-.69.13ZM13.65,65.14l-.16.1.16-.1Z"/><path class="cls-1" d="M21.13,74.7c-1.3.41-2.59.8-3.85,1.31A25.71,25.71,0,0,0,14,77.67c-1.19.7-2.31,1.49-3.43,2.29-.88.63-1.8,1.21-2.72,1.78-.51.28-1,.53-1.55.78a1.79,1.79,0,0,0-.9,2.31,1.75,1.75,0,0,0,2.3.9A22.36,22.36,0,0,0,10,84.48c.64-.39,1.28-.79,1.91-1.21s1.24-.86,1.86-1.3,1.17-.8,1.77-1.17a24.24,24.24,0,0,1,3-1.52c1.31-.52,2.65-1,4-1.37a1.65,1.65,0,0,0,.94-1,1.77,1.77,0,0,0,0-1.32,1.8,1.8,0,0,0-1-.94,1.71,1.71,0,0,0-.57-.1,2.52,2.52,0,0,0-.75.13Z"/><path class="cls-1" d="M21.76,91.57c-1.94.74-3.89,1.48-5.81,2.29a35.47,35.47,0,0,0-5.81,2.75,1.73,1.73,0,0,0-.64,1.18,1.74,1.74,0,0,0,.38,1.28,1.71,1.71,0,0,0,1.18.64,1.84,1.84,0,0,0,1.28-.37l.11-.08a51,51,0,0,1,4.89-2.19c1.92-.81,3.87-1.55,5.82-2.29a1.77,1.77,0,0,0,.91-2.3,1.73,1.73,0,0,0-1.62-1,1.87,1.87,0,0,0-.69.13Z"/><path class="cls-1" d="M32.86,98c-1.06.27-2.11.55-3.15.87a21.68,21.68,0,0,0-3.35,1.47c-1.69.85-3.36,1.75-5,2.65a99.38,99.38,0,0,0-9.61,5.64c-.7.48-1.39,1-2.07,1.45a1.75,1.75,0,1,0,2.19,2.73c1.54-1.11,3.11-2.15,4.71-3.15,2.28-1.35,4.59-2.62,6.92-3.86,1.21-.65,2.41-1.29,3.62-1.91.58-.3,1.17-.59,1.75-.87s1-.46,1.45-.66a8.92,8.92,0,0,1,1.17-.39c.64-.18,1.28-.34,1.92-.51a1.81,1.81,0,0,0,1.16-.7,1.75,1.75,0,0,0,.31-1.29,1.79,1.79,0,0,0-.71-1.16,1.85,1.85,0,0,0-1-.34,1.12,1.12,0,0,0-.27,0Z"/></g></g></svg>