<svg xmlns="http://www.w3.org/2000/svg" xmlns:xlink="http://www.w3.org/1999/xlink" viewBox="0 0 240.9 269.3" xmlns:v="https://vecta.io/nano"><path d="M201.9 105.8l-.4-2.6v-.1l-.3-1.9c0-.4-.1-.8-.1-1.1-.1-.6-.1-1.2-.2-1.8h0v-.5l-.4-2.3c0-.2-.1-.4-.1-.6h0l-.3-1.6-.1-.3-.4-2-.4-2.3-.8-2.8c-.1-.4-.3-.8-.4-1.2-.4-1.5-1-3.1-1.6-4.6l-.3-.9v-.1l-.9-2.3-4.1-9.1c-.7-1.4-1.5-2.6-2.2-3.8l-.2-.3-.1-.1c-.3-.4-.6-.9-.9-1.4l-.8-1.2-.1-.1-3.2-4-.3-.3-1.4-1.7c-.3-.3-.5-.6-.7-.8-.2-.3-.4-.5-.7-.8-.9-1-2-2-3-3l-4-3.2-3.2-2.4c-1.1-.9-2.1-1.5-3-2.1l-3.3-1.9c-1.6-.8-2.9-1.4-4.1-1.8l-1.7-.8h-.2l-2-.9h-.1l-.4-.2.1.1-2.5-1-.2-.1c-.6-.3-1.2-.5-1.9-.8l-1.9-.6h-.2l-.3-.1-.8-.2c-.3-.1-.6-.1-.8-.2l-.4-.1-2.3-.5-1.6-.5h-.1l-.3-.1c-.6-.2-1.1-.3-1.7-.4h-.1l-.4-.1-2.3-.4-1-.2-1.1-.2-1.4-.7h-.4l-.6-.2-1-.3-2.3-.3h-.5c-.4 0-.8 0-1.2-.1l-2.4-.3c-.8-.1-1.4 0-2.3-.1h-2.1c-.6 0-1.2.1-1.9.2h0-.3c-.4 0-.9.1-1.4.1s-1.1.1-1.6.2h-1c-.5 0-1 .1-1.5.2l-.8.2h-.1l-1.1.3-1 .2h.2l-.6.1h-.1l-.9.1-.4.1h-.1l-.8.2-.5.1-.4.1h-.3l-.3.1c-.2 0-.4.1-.5.1l-.3.1-.9.2c-.5.1-1.1.3-1.5.4l-.4.1c-.5.2-1.1.3-1.7.5l-.6.2c-.4.1-.8.3-1.2.4l-.1.2-2 .9-.4.5c-.4.3-.9.5-1.4.8l-.4.2H95l-1.8.7-.3.1-.2.1h-.1c-.5.1-.9.3-1.4.5-1.5.5-3 1.1-4.4 1.8l-1.5.8c-.4.2-.7.4-1.1.5h-.1l-.5.2c-1 .5-2 1.2-3 1.9l-.2.1-1.6 1.1-1.3.9-.3.2-2.4 1.7-.1.1-.2.1.1-.1c-.6.5-1.2.9-1.8 1.5-.4.3-.8.7-1.1 1l-3.6 3.6c-1.1 1.2-2.3 2.3-3.4 3.3l-3.2 3.2a40.31 40.31 0 0 0-2.6 3.2h0l-.4.6c-.9 1.1-1.6 2.3-2.4 3.4v.1c-.9 1.3-1.6 2.4-2.1 3.5-.3.4-.5.9-.8 1.3v.1c-.5.7-.9 1.5-1.3 2.3l-1 2.4-.3.8-.5 1.3-.4 1c-.5 1.1-.9 2.3-1.3 3.4-.2.6-.4 1.2-.5 1.8l-.1.2v.1l-.7 2.4v.5l-.1.3c-.2.5-.4 1.1-.5 1.7l-.3 1.5v.2c0 .2-.1.4-.1.6-.3 1.7-.5 3.4-.5 5.1l-.1 4.8v11.4l.1 2.3v1.3l.1.8v.4l.4 3.1v.1l.7 4.6.5 2.4c0 .2.1.4.1.7v.3l.3 1.6.3 1.4v.1l.2 1 .3 1.4v.1c0 .3.1.5.2.8l1.2 4.4.6 1.6c.2.7.5 1.3.8 1.9v.1l1.2 2.7.1.3.1.1.9 1.8 1.6 3.6.9 1.8c.3.6.7 1.1 1 1.5s.5.8.8 1.1v.1c.4.5.8 1.1 1.2 1.8s.7 1 1 1.5c.3.4.5.7.9 1.1h0l.5.6 1 1.3v.1l.2.2 1.1 1.5.2.3c.3.3.5.7.8 1l.8.9 1.5 1.6 1.6 1.6 1.1 1 .6.6c.3.2.5.5.8.7h0l.1.1.9.8c.6.5 1.1 1.1 1.7 1.5s1.4 1.1 2.3 1.8l1 .7.1.1.8.6.2.1 3.6 2.4c.6.4 1.3.7 2.2 1.1l2.7 1.2 4.4 1.6 4.6 1.3 4.6 1h.5l1.7.4.7.2h.4l.2.1h.2l.7.2.4.1 1.9.4 3 .4 3 .3h.3l1.5.2 1.6.2 3.1.4 9 .3h1.1c1.7 0 3.5-.2 5.2-.5l2.9-.6h.2l.4-.1h.1l1.1-.2c.7-.1 1.4-.3 2.3-.5l1.3-.3h.3l.7-.1 4.3-1.1.6-.2 3.6-1.1 1.8-.7.4-.2 2.7-1.1c.8-.3 1.4-.6 2.1-1l1.9-1 .3-.1c1.4-.8 2.7-1.6 4-2.6l1.8-1.4h-.1l4.1-3 2.5-1.9.7-.6c.4-.4.8-.7 1.1-.9l3.7-3.1c.4-.3.7-.7 1-1h0l.5-.6 1.1-1.2.5-.5c1.2-1.2 2.3-2.5 3.3-3.8l2.8-3.9c.8-1.1 1.6-2.5 2.6-4s1.6-2.9 2.4-4.4l.3-.6v-.1c.2-.5.5-1 .8-1.6l1.2-2.7c.6-1.4 1.1-2.9 1.4-4.1h0l2-7.1 1.4-7.9.6-5.1c0-.8.1-1.5.2-2.3l.2-2.3.1-4.4-.2-4.6zm-84.8-31.2h0zm-7.7 4.8l.2-2.3c.1-1.1.9-2.1 2.1-2.3 0-.1.1-.1.1-.2h6.4c.8 0 1.6.1 2.4.2l2.8.1c.7 0 1.3.2 2 .2.7.1 1.5.1 2.3.1.7 0 1.6.1 2.3.2.8.1 1.8.1 2.8.1h.6c.3 0 .6 0 1 .1.5.1 1 .1 1.4.1.6 0 1.1 0 1.7.1h.6c.1.2.2.5.2.8 0 .2.1.5.1.7 0 .7.1 1.4.1 2v1.9c0 1 .1 2 0 3s0 1.8 0 2.7v.1c0 1.8-.1 3.6-.3 5.4 0 .5-.1 1-.1 1.5 0 .6-.1 1.3-.3 1.8-.5 1.3-1.8 2-3.1 1.9l-.9-.1c-.6 0-1.1-.1-1.8-.1h-2c-1.1 0-2.4-.2-3.5-.3l-3.7-.2c-1.1-.1-2.3-.1-3.4-.1h-3c-.7 0-1.4-.1-2.2-.1h-2c-.7-.1-1.4-.4-1.8-1-.5-.6-.7-1.4-.7-2.2v-.9c0-.3-.1-.8-.2-1.2-.1-.9-.1-1.8-.1-2.8l.1-4.3c0-.4-.1-.7-.1-1.1v-1.6c0-.5-.1-.9-.1-1.4.2-.5.1-.5.1-.8zm49.4 31.4v11c0 .5 0 1 .1 1.5v6.2c0 .2 0 .7.1 1.1 0 .3.1.6.1.9v.2c.1.6.1 1.3.1 1.9v.2c0 .3-.1.6-.1.9v3c0 .7 0 1.3-.1 2 0 .1-.1.3-.1.4v1.4c.4 1.3-.3 2.6-1.6 3.1l-.4.1c-.5.2-.9.3-1.4.3h-4.9c-.6 0-1.3 0-1.9-.1h-.7c-.6 0-1.3 0-1.9.1l-2.6.2c-.5 0-1.1.1-1.6.1l-.7.1c-.6.1-1.2.1-2 .1H138l-2.4.1c-.6 0-1.1.1-1.7.1h-7.3c-.8 0-1.6-.1-2.4-.1l-1.6-.1h-.4c-.8 0-1.7-.1-2.5-.1l-1.3-.1c-1 0-2-.1-3-.2l-2.3-.2h-.2l-1.1-.1-1.4-.1H102l-3-.2-3-.3h-.6l-.6.1h-.7c-.3 0-.6 0-.9-.1h-.5c-.6 0-1.3-.1-1.8-.5-1.4-.2-2.4-1.4-2.3-2.8v-9.5c-.1-.9-.1-1.9 0-2.8V126l.1-2.1v-3.6c0-.8-.1-1.5 0-2.2s0-1.1 0-1.7v-8.5c-.1-.8-.1-1.5.1-2.3s.8-1.3 1.6-1.6c.4-.1.7-.2 1.1-.2l6-.2h3.1c.8 0 1.7.1 2.5.2l-.4-.3c.6.1 1.3.1 1.9.2h.3l1.2.1.8.1c.8.1 1.5.1 2.3.1h1.6c1.1 0 2 .6 2.5 1.5.2.4.3.7.4 1.1v.5c.1.6.2 1.2.2 1.8v1.2c0 .2.1.4.1.6.2.6.3 1.1.3 1.7 0 .3 0 .7-.1 1v.3c0 .5-.1.9-.2 1.4l-.2 2.4c.1.3.1.6.1 1v1.3h1.2c1.1.1 2.2.1 3.2.1s2 .1 3 .2c.5.1 1.1.1 1.6.2 1.1.1 2 .1 2.8.1h5.9l2.1.1.1-.8v-2.5l.4-2.6.1-.3c-.1-.6-.2-1.2-.2-1.9v-1.6c0-.4-.1-.8-.1-1.3v-.3c0-.2 0-.4-.1-.6s0-.2 0-.4v-.2c-.1-.2-.1-.5-.1-.7-.1-.4-.1-.8.1-1.2l.1-.2c.1-.4.4-.8.7-1l.1-.1c.2-.2.4-.3.6-.4.7-.3 1.3-.5 2.1-.5.7-.1 1.5-.1 2.2-.1h3.3l2.3-.1c.9-.1 1.7-.1 2.6-.1h1.5l.8.1c.5.1.9.1 1.4.1h.3c.6-.1 1.2-.1 1.8-.1h.4c.5 0 .9 0 1.3.2h.7c.4.1.7.2 1 .4l.2.1c.5.4.9 1.1 1 1.8v.4l.2 1.2v.1c.1.3.1.6.2.9v1.6l.1.4zM35.6 129.4c.1-.3.1-.6.2-1 .1-.3.1-.7.2-1.1v-1l-.3-1.2c-.2-.4-.3-.8-.5-1.2-.3-.5-.6-1.1-1-1.6l-.3-.4-.6-.6c-.2-.1-.3-.2-.5-.4l-.6-.3-.8-.3c-.8-.2-1.5-.4-2.3-.4-.5 0-1-.1-1.5-.1h-.5c-.7 0-1.5.2-2.2.5-1.4.6-2.5 1.6-3.2 2.9-.2.2-.3.5-.4.8-.2.4-.3.8-.4 1.2l-.3.9c-.2.7-.2 1.5-.3 2.3 0 .6 0 1.3.1 1.9 0 .8.1 1.7.4 2.5s.8 1.5 1.3 2.1l1.5 1.1c.6.4 1.3.6 2 .8.7.1 1.5.2 2.3.1.7-.1 1.3-.3 1.9-.5l1.8-.9c.7-.5 1.3-1.1 1.8-1.9.7-1 1.2-2.1 1.7-3.3.3-.3.4-.6.5-.9zm8 20.3c-.4-.3-.8-.6-1.2-.8-.7-.3-1.3-.6-2.1-.7-.3-.1-.6-.1-.9-.1-.4 0-.8.1-1.2.2h0c-.7.2-1.3.6-1.7 1.1-.6.5-1 1.1-1.4 1.8-.2.4-.3.9-.4 1.4 0 .1-.1.3-.1.4-.1.8-.1 1.7.2 2.4.1.4.3.8.5 1.2s.5.7.8 1.1c.3.3.6.5.9.7.1.1.3.2.4.3l1.1.5.4.1c.3.1.6.1.9.2.5 0 1 0 1.4-.1s.8-.3 1.1-.5c.2-.1.4-.2.5-.4.4-.3.7-.6 1-1.1.1-.2.2-.3.3-.5s.2-.4.3-.7c0-.1.1-.3.1-.5.1-.4.2-.7.2-1.1.2-1 .2-2.1-.1-3.1-.1-.6-.5-1.3-1-1.8zm-19.1-2.2c-.2-.2-.4-.4-.6-.5-.2-.2-.4-.3-.7-.4-.2-.1-.5-.2-.7-.3s-.5-.1-.7-.1h-.6c-.4 0-.8.1-1.1.3-.2.1-.3.2-.5.3-.3.1-.5.2-.7.4a6.57 6.57 0 0 0-1.2 1.7l-.3.9v1.3c0 .6.1 1.2.3 1.7.1.4.3.7.5 1 .3.4.7.7 1.1.9.7.3 1.5.5 2.3.5.4-.1.7-.1 1.1-.3.3-.1.7-.3 1-.6a5.73 5.73 0 0 0 1.1-1.1c.3-.5.6-1.1.7-1.6.1-.2.2-.5.2-.8v-1.1c0-.5-.2-1-.4-1.5-.3-.1-.6-.4-.8-.7zm-2.2 3.5h0z" fill="#2c2c2c"/><g enable-background="new"><path d="M66.5 213.5V201c0-.3.2-.4.4-.4h1.8c.3 0 .4.1.4.4v12.3c0 3.2 1.7 4.7 4.1 4.7 2.5 0 4.2-1.5 4.2-4.7V201c0-.3.1-.4.4-.4h1.8c.3 0 .4.1.4.4v12.5c0 4.6-2.7 7.1-6.8 7.1-3.9 0-6.7-2.5-6.7-7.1zm17.7 6.3v-12.9c0-.3.1-.4.4-.4h1.7c.3 0 .4.1.4.4l.1 1.7c.8-1.4 2.2-2.5 4.5-2.5 2.9 0 5 2 5 5.6v8.1c0 .3-.1.4-.4.4H94c-.3 0-.4-.1-.4-.4v-7.7c0-2.3-1.2-3.7-3.3-3.7s-3.6 1.4-3.6 3.7v7.7c0 .3-.1.4-.4.4h-1.8c-.2 0-.3-.2-.3-.4z"/><use xlink:href="#B"/><path d="M112.6 225.1v-18.3c0-.3.1-.4.4-.4h1.6c.3 0 .4.1.4.4l.1 2.1c1-1.7 2.7-2.8 5.1-2.8 3.9 0 6.7 3.1 6.7 7.2s-2.7 7.2-6.7 7.2c-2.3 0-4-1-5-2.6v7.2c0 .3-.1.4-.4.4H113c-.3 0-.4-.1-.4-.4zm11.7-11.8c0-2.9-2-4.9-4.7-4.9s-4.6 2-4.6 4.9 1.9 4.8 4.6 4.8c2.7.1 4.7-1.9 4.7-4.8zm5.7 6.5v-19.2c0-.3.1-.4.4-.4h1.8c.3 0 .4.1.4.4v19.2c0 .3-.1.4-.4.4h-1.8c-.2 0-.4-.2-.4-.4zm5.9-6.5c0-4.1 2.7-7.2 6.7-7.2 2.4 0 4.1 1.1 5.1 2.8l.1-2.1c0-.3.1-.4.4-.4h1.6c.3 0 .4.1.4.4v12.9c0 .3-.1.4-.4.4h-1.6c-.3 0-.4-.1-.4-.4l-.1-2c-1 1.7-2.7 2.8-5.1 2.8-4 0-6.7-3.1-6.7-7.2zm11.7.1c0-2.9-1.9-4.9-4.6-4.9s-4.7 2-4.7 4.9 2 4.9 4.7 4.9c2.7-.1 4.6-2 4.6-4.9z"/><use xlink:href="#B" x="53.9"/><path d="M178.5 211.7v8.1c0 .3-.1.4-.4.4h-1.8c-.3 0-.4-.1-.4-.4v-7.7c0-2.3-1.2-3.7-3.3-3.7s-3.6 1.4-3.6 3.7v7.7c0 .3-.1.4-.4.4h-1.8c-.3 0-.4-.1-.4-.4v-19.2c0-.3.1-.4.4-.4h1.8c.3 0 .4.1.4.4v8.1c.8-1.4 2.2-2.5 4.5-2.5 2.9-.1 5 1.9 5 5.5z"/></g><defs ><path id="B" d="M99.7 218.4c-.2-.2-.2-.4 0-.7l.6-.8c.2-.3.4-.3.7 0 .9.9 1.9 1.5 3.3 1.5s2.4-.6 2.4-1.9c0-1.1-.8-1.7-2-2.2l-1.7-.7c-1.7-.7-3.1-1.7-3.1-3.7 0-2.4 2-3.8 4.4-3.8 1.6 0 3.1.7 4.2 2 .2.2.1.4 0 .6l-.7.8c-.2.3-.4.3-.7 0-.9-.9-1.7-1.3-2.7-1.3-1.1 0-2.1.6-2.1 1.7s.8 1.6 2.1 2.1l1.5.6c1.8.7 3.2 1.8 3.2 3.9 0 2.6-2.2 4-4.8 4-2.2 0-3.7-1-4.6-2.1z"/></defs></svg>