<?xml version="1.0" encoding="utf-8"?>
<!-- Generator: Adobe Illustrator 24.1.3, SVG Export Plug-In . SVG Version: 6.00 Build 0)  -->
<svg version="1.1" id="Layer_1" xmlns="http://www.w3.org/2000/svg" xmlns:xlink="http://www.w3.org/1999/xlink" x="0px" y="0px"
	 viewBox="0 0 365.1 187.9" style="enable-background:new 0 0 365.1 187.9;" xml:space="preserve">
<style type="text/css">
	.st0{fill:#FFFFFF;}
	.st1{fill:none;}
</style>
<path class="st0" d="M116.5,161.3L116.5,161.3l0.8-0.1L116.5,161.3L116.5,161.3z"/>
<path class="st0" d="M116.3,161.4h0.2H116.3z"/>
<path class="st0" d="M289.1,139.9l-0.2,0.1c0.5,0.4,1,0.8,1.5,1.2c1.5,1.2,3.2,2.1,4.7,3.3h0.1c0.5-2.3-0.9-4.5-3.1-5.1
	c-0.3-0.1-0.7-0.1-1-0.1C290.4,139.3,289.7,139.5,289.1,139.9L289.1,139.9z"/>
<path class="st0" d="M236.2,175.3c1.6,1.7,4.3,1.8,6,0.2c0.7-0.6,1.5-1.2,2.2-1.8c1.1-0.7,2.3-1.3,3.5-1.8h-0.1l-0.4-0.1l-0.7-0.2
	l0,0h-0.1h0.1l-0.3-0.1h-0.1h0.1h0.2c-0.4-0.1-0.7-0.2-1.1-0.3c-0.6-0.2-1.2-0.3-1.8-0.4l-0.2-0.1l-0.8-0.1l-0.6-0.1l-0.8-0.1
	c-0.8-0.1-1.7-0.3-2.5-0.4c-0.4-0.1-0.8-0.1-1.2-0.2s-0.8-0.1-1.2-0.2l-0.3-0.1C234.8,171.1,234.8,173.6,236.2,175.3L236.2,175.3z"
	/>
<path class="st0" d="M246.8,171.6L246.8,171.6z"/>
<path class="st0" d="M161.3,103.5c-1.4,0.7-2.8,1.5-4.1,2.3c-1.8,1-3.7,1.8-5.5,2.6c-1.6,0.7-3.1,1.4-4.6,2.2
	c2.2-0.3,4.4-0.5,6.6-0.5c1.3,0,2.6-0.1,3.9-0.1c0.6,0,1.2,0,1.9,0c2,0.1,4,0.3,5.9,0.5l0.5,0.1c1.9-1.4,2.2-4.1,0.8-5.9
	c-0.8-1.1-2.1-1.7-3.4-1.7C162.6,103,161.9,103.2,161.3,103.5L161.3,103.5z"/>
<path class="st0" d="M155.2,102.7c-3.5,0.2-6.9,0-10.4,0c-3.7,0-7.4,0.1-11.1,0.3c-3.5,0.2-7,0.4-10.6,0.7
	c-3.8,0.3-7.6,0.7-11.3,1.4c-7.3,1.3-14.7,2.6-22,3.8c-3.7,0.6-7.4,1.3-11.1,2.2c-3.9,0.9-7.7,2-11.6,2.9c-2,0.5-4,1.1-6,1.7
	s-4.2,1.4-6.3,2c-4,1.1-8.1,2.2-12.2,3.1c-1.3,0.3-2.7,0.6-4,1s-2.5,0.8-3.7,1.3c-2.8,1-5.6,1.9-8.5,2.8s-5.6,1.5-8.3,2.4
	c-2.5,0.9-5,1.7-7.5,2.5c-1.5,0.5-2.9,1-4.3,1.7s-2.7,1.5-4,2.4c-0.3,0.2-0.6,0.4-0.8,0.6c0,0.1,0,0.2,0,0.3c0,0.5,0.1,0.9,0.1,1.4
	s0,0.9,0.1,1.4s0,0.8,0.1,1.2s0,0.7,0,1l0.1,0.7v-0.2c0,0.2,0.1,0.3,0.1,0.5s0.1,0.3,0.1,0.5c1.3,0.8,2.9,0.9,4.2,0.1
	c1.7-1.1,3.4-2.1,5.3-2.9c1.8-0.6,3.7-1.2,5.5-1.8c2.1-0.7,4.2-1.5,6.4-2.1c2.5-0.7,4.9-1.3,7.4-2.1s4.9-1.6,7.3-2.5l-0.2,0
	c1.7-0.6,3.5-1.2,5.3-1.6c2.1-0.5,4.2-1,6.2-1.5s4.1-1,6.2-1.6s4.1-1.2,6.1-1.8c4-1.2,8-2.2,12.1-3.2c1.9-0.5,3.8-0.9,5.6-1.4
	c1.9-0.5,3.8-0.9,5.8-1.3c6.3-1.4,12.8-2.2,19.1-3.4c2.9-0.6,5.9-1.1,8.8-1.6c2.7-0.5,5.4-0.8,8.2-1.1c3.4-0.3,6.8-0.6,10.2-0.8
	c3.7-0.2,7.4-0.4,11.1-0.4h1.3c0.8-0.2,1.6-0.4,2.4-0.5c2.4-0.4,4.7-0.6,7.1-0.5c1.3,0,2.6-0.1,3.9-0.1c0.6,0,1.2,0,1.9,0
	c2,0.1,4,0.3,5.9,0.5c3.2,0.3,6.3,0.6,9.4,1c3.4,0.3,6.8,0.7,10.2,1.1c4.1,0.5,8.2,1.1,12.4,1.6s8.1,0.9,12.1,1.4
	c2.9,0.4,5.7,0.8,8.5,1.2c1.7,0.3,3.4,0.6,5,0.9s3.4,0.7,5.1,1.1c3.8,1,7.6,2.4,11.4,3.3c3.5,0.8,7,1.8,10.5,2.8l5.1,1.6
	c1.8,0.6,3.6,1.1,5.4,1.7l0.8,0.3l1.1,0.2c4.1,0.9,8.1,2.1,12.2,3.1c2.7,0.6,5.4,1.6,7.8,3c1.8,1.1,3.4,2.4,5,3.8
	c1,0.8,2.1,1.6,3.2,2.5c1.5,1.2,3.2,2.1,4.7,3.3l1.3,1c0.6,0.3,1.2,0.5,1.8,0.8c1.2,0.6,2.4,1.2,3.6,1.9c0.5,0.3,1.1,0.6,1.6,1
	s1.1,0.5,1.6,0.8c1.1,0.6,2.2,1.2,3.3,1.8c1.4,0.8,2.8,1.4,4.2,2.1l-0.5-0.2c1.5,0.8,3,1.6,4.4,2.6c1.7,1.1,3.5,2,5.4,2.8
	c0.8,0.4,1.6,0.8,2.4,1.1c1.1,0.5,2.2,1.1,3.4,1.6c1.6,0.8,3.2,1.6,4.8,2.2s3.1,1,4.5,1.6c1.3,0.7,2.6,1.4,4,2c1,0.4,2,0.7,2.9,1.1
	l1.2,0.6c1,0.6,2.1,0.8,3.3,0.6c2.3-0.5,3.7-2.8,3.2-5.1l0,0c-0.2-1.1-0.9-2-1.9-2.6c-1.1-0.6-2.3-1.2-3.5-1.6
	c-0.8-0.2-1.5-0.5-2.2-0.9c-0.5-0.2-0.9-0.5-1.4-0.8c-0.9-0.5-1.9-0.9-2.8-1.3s-1.9-0.7-2.9-1s-1.9-0.7-2.9-1.1l-3.8-1.8l-3.6-1.8
	l1,0.5c-1.2-0.6-2.4-1.1-3.6-1.7c-1.4-0.7-2.7-1.5-4-2.3c-1.6-1-3.3-1.9-5.1-2.8l1,0.5c-1.4-0.6-2.7-1.4-4-2.1s-2.5-1.4-3.8-2
	s-2.5-1.4-3.7-2.1c-1.7-0.9-3.6-1.7-5.4-2.5c-0.9-0.4-1.8-0.9-2.6-1.4s-1.9-1.1-2.8-1.6c-2-1.1-4.1-2.3-6.1-3.4
	c-1.8-1-3.7-2-5.6-2.9c-1.6-0.7-3.3-1.3-5-2s-3.4-1.6-5.1-2.3c-1.5-0.7-3-1.2-4.5-1.9l0.6,0.2c-1.9-0.9-3.9-1.7-5.9-2.4
	c-1.7-0.7-3.6-1.1-5.4-1.7c-3.3-1-6.6-2-10-3c-1.9-0.5-3.8-1-5.7-1.4s-3.7-1.1-5.6-1.6c-3.6-1.1-7.2-2.1-10.9-2.7
	c-2.3-0.4-4.6-0.9-6.9-1.2c-2-0.3-4.1-0.6-6.1-0.8c-3.9-0.5-7.8-0.9-11.7-1.4c-4.2-0.5-8.4-1.2-12.6-1.7c-3.9-0.4-7.7-0.9-11.6-1.3
	c-3.4-0.3-6.8-0.6-10.2-0.7c-0.9,0-1.9-0.1-2.8-0.1c-2.6,0-5.1,0.1-7.7,0.2L155.2,102.7z"/>
<path class="st0" d="M1.9,140.8c0,0.1,0,0.2,0,0.3C1.9,141,1.9,140.9,1.9,140.8L1.9,140.8z"/>
<path class="st0" d="M359.4,55.8c-1.1,0.3-2,0.9-2.6,1.8c-0.1,0.3-0.3,0.7-0.5,1c-0.2,0.7-0.3,1.5-0.1,2.2c0,0.4,0.2,0.8,0.3,1.3
	v-0.3l0.1,0.7c0,0.3,0,0.6,0,0.9c0,0.5-0.1,1-0.1,1.5s0,1,0,1.4s0,0.9-0.1,1.3c0,0.5-0.1,1-0.1,1.5s-0.1,1.2-0.1,1.8
	c-0.1,0.8-0.1,1.7-0.2,2.5s-0.4,1.8-0.5,2.7c-0.1,0.6-0.1,1.2-0.2,1.8c-0.1,0.8-0.2,1.7-0.3,2.5c0,0.9-0.1,1.8-0.1,2.8
	s-0.1,1.9-0.2,2.8c0,0.5,0,0.9,0,1.4s-0.1,1-0.1,1.4c0,1.1-0.2,2.1-0.2,3.2s-0.1,2.1-0.2,3.2c0,0.5,0,1-0.1,1.5s-0.2,1.1-0.2,1.6
	c0,0.8-0.1,1.7-0.2,2.5c-0.6,3.5-0.9,7-0.9,10.6c0,1.9,0.1,3.7,0,5.6c-0.1,2.5-0.3,5.1-0.7,7.6l-0.3,2.1c-0.3,1.4-0.5,2.7-0.6,4.1
	c0,1.1-0.1,2.1-0.2,3.2c-0.2,2.1-0.2,4.3-0.5,6.4l0.1-0.6c-0.2,1.2-0.4,2.4-0.5,3.6c-0.2,1.1-0.3,2.2-0.3,3.4s-0.1,2.4-0.2,3.6
	c-0.2,1.5-0.4,3-0.6,4.5s0,2.9-0.1,4.3c0,1-0.1,2-0.1,3l-0.3-0.3c-0.5-0.4-1-0.8-1.5-1.2c-0.6-0.4-1.3-0.7-2-1
	c-1.4-0.6-2.8-0.9-4.2-1.4c-2.2-0.8-4.6,0.4-5.4,2.6c-0.8,2.2,0.4,4.6,2.6,5.4c0.1,0,0.2,0.1,0.2,0.1c1.3,0.5,2.6,0.9,4,1.4l0.3,0.2
	c0.8,0.8,1.6,1.4,2.5,2c0.6,0.3,1.2,0.6,1.9,0.9c0.2,0.3,0.4,0.5,0.6,0.8c0.4,0.4,0.9,0.8,1.4,1.2c0.1,0.1,0.2,0.2,0.3,0.3
	c1.1,1.2,2.8,1.7,4.4,1.3c0.8-0.2,1.5-0.6,2.1-1.1c0.4-0.3,0.7-0.7,0.9-1.1c0.5-0.9,0.8-2,0.9-3.1c0-0.9,0-1.8-0.1-2.6
	c-0.1-1.1,0-2.2,0-3.3c0-2,0-4,0-6c0-0.9,0-1.8,0.2-2.6c0.1-0.9,0.2-1.7,0.3-2.6c0.2-1.2,0.3-2.4,0.4-3.7c0-1.3,0.1-2.6,0.2-3.8
	l-0.1,0.8c0.2-1.2,0.4-2.5,0.5-3.8c0,0.3-0.1,0.5-0.1,0.8c0.4-2.2,0.6-4.4,0.6-6.6c0-1.1,0.1-2.1,0.2-3.2s0.1-2.1,0.3-3.2
	c0.1-0.8,0.3-1.6,0.4-2.4c0.2-1.4,0.5-2.8,0.6-4.1s0.2-2.6,0.3-3.8c0.1-1,0.1-2,0.1-3s-0.1-1.8-0.1-2.7c-0.1-3.3,0.1-6.6,0.5-9.9
	c0.1-0.6,0.2-1.2,0.3-1.9c0.1-0.4,0.1-0.9,0.1-1.4c0.1-1.1,0.1-2.1,0.3-3.2c0.1-0.5,0.1-1,0.1-1.5s0.1-1,0.2-1.5
	c0.1-1.2,0-2.3,0.2-3.5c0.1-1,0.2-2,0.1-2.9c0-1,0.2-2,0.2-3s0-1.9,0.1-2.8s0.1-1.6,0.2-2.4c0.1-0.5,0.2-0.9,0.2-1.4
	c0-0.3,0-0.6,0.1-0.9c0.2-0.8,0.4-1.7,0.5-2.5c0.1-0.7,0.1-1.4,0.2-2.1s0.1-1.4,0.1-2.1s0.1-1.4,0.1-2c0-0.5,0.1-1,0.1-1.6
	s0-1.2,0-1.8c0-0.6,0-1.2,0-1.8c0-0.7-0.1-1.4-0.2-2c0-0.4-0.1-0.8-0.2-1.2c-0.1-0.3-0.2-0.6-0.2-0.9c-0.2-1.1-0.9-2-1.9-2.6
	c-0.7-0.4-1.5-0.7-2.3-0.7C360.1,55.7,359.8,55.7,359.4,55.8L359.4,55.8z"/>
<path class="st0" d="M0.8,34.3c0,0.3,0,0.7,0,1c0,0.5,0.1,1,0.1,1.5c0,0.6,0,1.2,0,1.8c0,0.1,0,0.3-0.1,0.4v-0.2
	c-0.1,0.4-0.1,0.8-0.1,1.2v-0.3c-0.1,1-0.1,2-0.1,3s0,2.1-0.1,3.2c0-0.1,0-0.1,0-0.2c0,0.1,0,0.1,0,0.2l0,0
	c-0.1,0.6-0.1,1.2-0.2,1.8l0.1-0.5c0,0.3-0.1,0.5-0.1,0.8c0,1.2-0.1,2.5-0.1,3.8c0,0.6-0.1,1.2-0.1,1.7s0,1-0.1,1.6s0,1.2,0,1.8
	s0,1.3,0,1.9c0,1.3,0,2.7,0,4.1c0,0.6,0,1.1,0.1,1.7c0.1,0.7,0.1,1.4,0.2,2.1c0.1,1.2,0.1,2.3,0.2,3.5s0.3,2.3,0.3,3.4S1,75.8,1,77
	s0,2.2,0,3.3c0,0.5,0,1.1,0.1,1.6s0,1,0,1.6c0,1.1,0.1,2.3,0.1,3.4s0.1,2.2,0.1,3.3s0,2.2,0,3.4c0,0.6,0,1.2,0,1.8s0,1.1,0,1.7
	s0,1.1,0,1.6s0,1,0,1.6c0,1-0.1,2.1-0.1,3.2s0,2,0,3.1s0,2.2,0,3.3c-0.1,2.3-0.1,4.6-0.1,7c0,1.1,0,2.3,0,3.4s0,2.2,0,3.3
	s0,2.2,0.1,3.4s0,2,0.1,3c0,0.5,0.1,1,0.1,1.5s0,1,0.1,1.5c0.1,1,0.1,2.1,0.2,3.1c0.1,0.5,0.1,0.9,0.1,1.4s0,0.9,0.1,1.4
	c0,0.4,0,0.8,0.1,1.2c0.1,0.4,0,0.7,0,1l0.1,0.7v-0.2c0,0.2,0,0.3,0.1,0.5c0.1,0.3,0.1,0.5,0.2,0.7c0.1,0.3,0.2,0.5,0.2,0.8
	c0.9,0.4,1.8,0.5,2.7,0.3c1.1-0.3,2-0.9,2.6-1.9s0.8-2.1,0.6-3.2c-0.3-1.2-0.4-2.4-0.6-3.6c-0.1-1.2-0.1-2.4-0.1-3.5
	c0-1.6-0.1-3.3-0.3-4.9c-0.1-1.5-0.1-2.9-0.1-4.4c0-1.6,0-3.2,0.2-4.8c0.4-3.3,0.6-6.7,0.6-10c0-1.6-0.1-3.2-0.1-4.8S8,99.8,8,98.3
	c-0.1-3.3-0.1-6.6,0-9.9c0-0.7,0.1-1.5,0.2-2.2s0.1-1.6,0.1-2.4C8.2,81.9,8,80.5,8,79.1c0-1.9,0.1-3.8,0.3-5.7
	c0.1-1.9,0.1-3.8-0.1-5.7C8,66.1,8,64.5,7.9,62.9c-0.1-1.9,0-3.8,0.1-5.7c0-1.3-0.1-2.7,0-4s0.2-2.7,0.3-4c0-0.7-0.1-1.5-0.1-2.2
	c0-1.1,0-2.3-0.2-3.4c-0.2-1.4-0.7-2.6-1-4c0-0.1,0-0.2,0-0.2c0-0.1,0-0.2,0.1-0.2C7.4,38.1,7.3,37,6.8,36s-1.4-1.7-2.5-2.1
	c-0.4-0.1-0.8-0.2-1.2-0.2C2.2,33.7,1.5,33.9,0.8,34.3L0.8,34.3z"/>
<path class="st0" d="M1.9,140.8c0,0.1,0,0.2,0,0.3V140.8L1.9,140.8z"/>
<path class="st0" d="M195.2,0c-3.8,0-7.6,0-11.3,0.2c-4.1,0.1-8.2,0.2-12.3,0.5c-4.3,0.3-8.5,0.6-12.8,0.8
	c-8.3,0.4-16.6,0.9-24.9,1.4s-16.4,0.9-24.6,1.6c-4.4,0.3-8.8,0.8-13.2,1.7c-1.8,0.4-3.5,0.8-5.3,1.1S87.5,7.7,85.9,8
	c-3.7,0.7-7.3,1.6-10.9,2.4c-2,0.5-4,1.2-6,1.6s-3.9,0.8-5.8,1.3s-3.8,0.9-5.6,1.4c-1.7,0.4-3.4,0.8-5.1,1.3s-3.3,1-4.9,1.6
	c-1.8,0.6-3.7,1.2-5.5,1.8c-3.4,1-6.9,1.9-10.4,2.5c-1.8,0.4-3.7,0.8-5.5,1.3c-1.6,0.4-3.2,0.8-4.8,1.3L16.9,26
	c-2,0.7-3.9,1.5-5.9,2.3c-1.3,0.5-2.5,1.2-3.7,1.8c-1.7,1-3.4,2.2-4.9,3.4C1.5,34.1,1,35,0.9,36c0,0.3,0,0.6,0.1,0.9s0,0.4,0,0.6
	c0.2,0.7,0.5,1.4,1,1.9c0.8,0.8,1.9,1.3,3,1.4c1.1,0,2.2-0.4,3-1.1c0.6-0.5,1.2-0.9,1.8-1.3c1.1-0.7,2.3-1.4,3.4-1.9
	c0.7-0.3,1.4-0.6,2.2-0.9l2.3-1c1.5-0.5,3.1-1,4.6-1.5s3.4-1,5.1-1.4s3.6-0.9,5.5-1.3c1.8-0.4,3.8-0.8,5.7-1.2
	c3.7-0.9,7.3-2,10.9-3.3c1.6-0.6,3.3-1.1,4.9-1.6s3.4-0.8,5.1-1.3c3.8-1,7.6-1.8,11.4-2.6c2-0.5,4-1.1,6-1.6s3.9-0.9,5.8-1.4
	c3.3-0.7,6.6-1.4,10-2c1.8-0.3,3.6-0.7,5.3-1.1c2-0.4,4.1-0.7,6.2-0.9l1.7-0.2c4-0.4,8-0.7,12-1c2.1-0.1,4.2-0.3,6.3-0.4
	s3.9-0.2,5.9-0.3c4.1-0.2,8.1-0.4,12.2-0.7h0.3c0.5-0.2,1-0.3,1.4-0.4c0.6-0.1,1.2-0.1,1.9-0.1h-0.2c0.8,0,1.5-0.1,2.3-0.1
	s1.3-0.1,2-0.1c0.4,0,0.9,0,1.3,0.1l0.3,0.1c0.9-0.1,1.9-0.1,2.9-0.1c2.3-0.1,4.6-0.2,6.9-0.3c2-0.1,4.1-0.3,6.1-0.4
	c4.1-0.3,8.2-0.5,12.4-0.6c8-0.2,16.1-0.5,24.2-0.1c2.1,0.1,4.3,0.3,6.4,0.5s4.3,0.3,6.5,0.6c4.1,0.6,8.3,1.1,12.5,1.7
	c3.8,0.7,7.5,1.3,11.2,2.1c2.2,0.5,4.4,0.8,6.5,1.4s4.1,1,6.1,1.4s4.1,1,6.2,1.4s4.3,1,6.5,1.6c4,1.1,8,2.4,11.9,3.6l11.8,3.6
	c1.9,0.6,3.9,1.1,5.8,1.8c1.6,0.6,3.3,1.3,4.9,1.9s3.2,1.1,4.8,1.6c1,0.3,1.9,0.6,2.8,1s1.9,0.8,2.9,1.2s2,0.7,3.1,1.1
	c0.9,0.3,1.7,0.7,2.5,1c1.4,0.6,2.8,1.2,4.2,1.8l2.8,1.3c2.7,1.3,5.3,2.7,7.9,4.1c1.1,0.6,2.2,1.1,3.3,1.7c1.2,0.7,2.4,1.5,3.6,2.3
	c1,0.7,2.1,1.3,3.2,1.9c0.8,0.5,1.7,1.1,2.4,1.7c0.8,0.6,1.6,1.1,2.4,1.6c0.7,0.5,1.5,0.9,2.2,1.4l0.2,0.2c1,0.9,2,1.6,3.1,2.3
	c0.8,0.5,1.6,1.1,2.4,1.8l-0.9-0.7c0.5,0.5,1.1,0.9,1.7,1.3l0.4,0.3c0.1,0.1,0.3,0.3,0.4,0.5c0.4,0.5,0.9,0.9,1.4,1.2
	c2,1.3,4.6,0.7,5.9-1.2c1.2-1.9,0.8-4.4-1-5.7l-0.3-0.4c-0.5-0.5-1-0.9-1.6-1.3l0.8,0.7c-0.6-0.5-1.3-1-1.9-1.6l0.5,0.5
	c-0.8-0.6-1.6-1.2-2.4-1.9s-1.7-1.1-2.5-1.7c-0.1-0.1-0.1-0.1-0.2-0.2c-0.5-0.5-1.1-1-1.7-1.4c-0.4-0.3-0.9-0.6-1.4-0.9
	c-0.9-0.6-1.8-1.2-2.8-1.8s-1.6-1.2-2.5-1.7c-1.2-0.7-2.4-1.3-3.5-2.1s-2.5-1.7-3.8-2.4s-2.6-1.3-3.9-2c-1.5-0.7-2.8-1.6-4.3-2.3
	s-3-1.5-4.6-2.2l0.7,0.3c-3.3-1.5-6.6-3-10-4.3c-1-0.4-2.1-0.7-3.1-1.1s-2-0.8-2.9-1.2c-1.7-0.7-3.6-1.2-5.4-1.8
	c-3.4-1.1-6.7-2.6-10.2-3.6l-11.8-3.6c-3.9-1.2-7.8-2.4-11.8-3.6c-2.1-0.6-4.2-1.2-6.3-1.8s-4.3-1-6.5-1.5c-2-0.5-4-0.9-6-1.4
	s-4.3-1.1-6.4-1.5c-4.1-0.8-8.2-1.7-12.4-2.3c-2.4-0.4-4.8-0.8-7.2-1.2c-2-0.3-3.9-0.5-5.9-0.8s-4.2-0.6-6.3-0.8s-4.4-0.4-6.6-0.6
	c-3.9-0.5-8-0.6-12.1-0.6H195.2z"/>
<path class="st0" d="M352.3,166.8c-2,0.1-4,0.3-5.9,0.5l0.5-0.1c-1.9,0.2-3.7,0.3-5.6,0.6c-0.9,0.1-1.8,0.3-2.7,0.4
	s-1.7,0.2-2.6,0.4c-1.8,0.3-3.5,0.7-5.3,1.1c-0.9,0.2-1.9,0.4-2.8,0.5s-1.9,0.2-2.8,0.4c-2.1,0.3-4.2,0.8-6.4,1.2
	c-1.9,0.3-3.7,0.7-5.5,1c-2,0.4-4,0.9-6,1.4c-1.8,0.5-3.6,0.8-5.5,1.3c-1.6,0.5-3.3,0.9-4.9,1.2c-1.5,0.3-3,0.6-4.5,0.9
	c-2.7,0.5-5.3,1.2-8,1.8c-2.3,0.5-3.7,2.8-3.2,5.1s2.8,3.7,5.1,3.2l0,0c1.4-0.3,2.7-0.6,4-1c1.7-0.4,3.5-0.7,5.2-1.1
	s3.5-0.6,5.2-1.1c2-0.5,3.9-1.1,5.9-1.5c1.8-0.4,3.6-0.9,5.4-1.4s3.6-0.8,5.5-1.2c2.2-0.4,4.3-0.8,6.5-1.2c1.9-0.4,3.9-0.7,5.8-0.9
	c1.5-0.2,3-0.6,4.4-0.9c1.3-0.3,2.6-0.6,3.9-0.8s2.6-0.4,4-0.6c1.1-0.2,2.2-0.3,3.2-0.5l2.5-0.2h-0.5c1.5-0.1,3.1-0.2,4.7-0.3
	c1.1,0,2.2-0.4,3-1.1c1.7-1.6,1.8-4.3,0.2-6c-0.7-0.8-1.7-1.3-2.8-1.4L352.3,166.8z"/>
<path class="st0" d="M241,114.6c-1.6,0.3-3.2,0.8-4.7,1.5c-1.5,0.5-2.9,1-4.4,1.4c-3.3,1-6.4,2.3-9.6,3.7l0.3-0.1
	c-1.8,0.7-3.6,1.5-5.5,2.2c-1.8,0.7-3.8,1.4-5.7,2.2l1.1-0.5l-5.1,2l0.5-0.2c-1.2,0.5-2.4,0.9-3.6,1.4c-2.9,1.1-5.7,2.2-8.5,3.5
	c-1.3,0.6-2.5,1.3-3.8,1.9c-1.3,0.6-2.5,1.2-3.8,1.7c-2.1,0.8-4.2,1.7-6.4,2.4c-2.1,0.7-4.5,1.4-6.7,2.1c-4.1,1.3-8.1,2.9-12.2,4.5
	c-3.7,1.4-7.4,2.8-11.1,4.1c-2.1,0.7-4.2,1.6-6.3,2.3s-3.9,1.4-5.9,2c-4.5,1.5-9.1,2.9-13.6,4.3c-4.8,1.5-9.5,3-14.2,4.7
	c-1.4,0.5-2.7,1-4.1,1.5s-2.6,1.1-3.9,1.6c-1.9,0.7-3.7,1.4-5.7,2c-1.9,0.6-4,1.1-6,1.8c-1.6,0.5-3.1,1-4.7,1.5
	c-2.1,0.6-4.2,1.4-6.2,2.3c-1.2,0.6-2,1.7-2.4,3c-0.8,2.7,0.6,5.5,3.2,6.3l0,0c1.2,0.4,2.5,0.2,3.7-0.4l0.7-0.3
	c1.6-0.6,3.3-1.1,5-1.6c2-0.5,4-1.3,6-1.9c2.4-0.6,4.8-1.4,7.1-2.3c2.3-0.9,4.5-1.8,6.8-2.8c4.3-1.6,8.6-3,12.9-4.5
	c2.4-0.8,4.8-1.5,7.3-2.2c2.4-0.7,4.5-1.5,6.8-2.2c4.2-1.3,8.4-2.7,12.5-4.2c3.8-1.5,7.7-2.7,11.5-4.2c2.3-0.8,4.4-1.7,6.6-2.6
	c2.6-1,5.1-2,7.7-2.8c1.6-0.5,3.1-0.9,4.7-1.4c1.9-0.6,3.8-1.3,5.7-2s3.9-1.5,5.8-2.3c1.6-0.6,3.2-1.3,4.7-2.1
	c2.8-1.5,5.8-2.8,8.8-3.9l2.8-1.1l3.2-1.2l-0.8,0.3l4.8-1.9l-0.9,0.3c3.4-1.3,6.8-2.6,10.2-4l-0.7,0.3c1.8-0.7,3.6-1.5,5.5-2.2
	c1.8-0.7,3.9-1.3,5.9-1.9c2.3-0.7,4.5-1.9,6.9-2.2c1.2-0.3,2.3-1.1,3-2.2c1.4-2.4,0.8-5.5-1.4-7l0,0c-0.8-0.5-1.7-0.8-2.6-0.8
	C241.7,114.5,241.3,114.5,241,114.6L241,114.6z M224.8,130.9l-0.4,0.1L224.8,130.9z M210.1,136.7l-0.6,0.2L210.1,136.7z
	 M168.3,152.9l-0.5,0.2L168.3,152.9z"/>
<path class="st0" d="M135.7,103.1c-3.1,1-6.1,2.1-9.1,3.2c-2,0.7-4.1,1.5-6.1,2.2c-1.1,0.4-2.3,0.7-3.4,1.1s-2.5,0.9-3.7,1.3
	s-2.3,0.9-3.5,1.4s-2.2,1-3.3,1.4c-2.6,0.9-5.2,1.8-7.8,2.8s-5.2,1.8-7.8,2.5s-5.4,1.9-8,2.9l-3.2,1.2l-2.9,1.1
	c-1.5,0.6-3.1,1-4.7,1.5c-2.2,0.6-4.2,1.4-6.2,2.2c-2,0.8-3.9,1.5-5.9,2.3l1-0.4c-1.3,0.5-2.5,1-3.7,1.5s-2.4,1.1-3.6,1.6
	c-2.3,0.8-4.6,1.5-6.9,2.3c-3.1,1-6.3,1.8-9.4,2.8c-1.5,0.5-3.1,1-4.6,1.4s-2.9,0.9-4.2,1.4c-1.4,0.5-2.8,0.8-4.2,1.1
	c-1.5,0.3-3,0.6-4.5,0.8c-2,0.2-4,0.2-6,0c-0.5-0.1-1.1-0.2-1.6-0.4c-0.5-0.3-1-0.6-1.4-0.9c-0.2-0.4-0.4-0.9-0.6-1.3
	c-0.4-0.9-0.8-1.7-1.2-2.6c-1.1-2.1-3.7-2.9-5.7-1.8c-0.7,0.4-1.3,1-1.7,1.7c0,0.3,0,0.7,0,1s0,0.8,0.1,1.2s0,0.7,0,1l0.1,0.7v-0.2
	c0,0.2,0,0.3,0.1,0.5c0.1,0.3,0.1,0.5,0.2,0.7c0.1,0.3,0.2,0.6,0.2,0.9l0.5,1c0.4,1,0.9,1.9,1.6,2.7c0.5,0.6,1.2,1.1,1.8,1.6
	c0.5,0.3,0.9,0.6,1.4,0.9c0.9,0.5,1.8,0.9,2.8,1.2c1,0.2,2.1,0.4,3.1,0.6c1.7,0.2,3.4,0.3,5.1,0.1c4.3-0.3,8.5-1.1,12.5-2.5
	c1.9-0.7,3.8-1.2,5.7-1.8c2.1-0.6,4.2-1.3,6.4-1.9s4-1.1,6-1.8c1.7-0.6,3.4-1.1,5.1-1.7c3.2-1,6.3-2.6,9.4-3.8l-1,0.4
	c1.4-0.5,2.7-1.1,4.1-1.6l3.4-1.3c3.2-1.1,6.4-2,9.6-3.2l-0.5,0.2l0.6-0.2l0.4-0.1h-0.1l2.2-0.9c0.8-0.3,1.6-0.6,2.4-0.9
	c1.3-0.5,2.6-1,3.9-1.5c2.3-0.8,4.6-1.6,7-2.3s4.8-1.6,7.2-2.5s5-1.7,7.4-2.7c1.9-0.8,3.7-1.6,5.6-2.4l0.6-0.2
	c2.4-0.9,4.9-1.6,7.4-2.5s5.1-1.8,7.7-2.8c2-0.7,3.9-1.4,5.9-2c1.1-0.3,2-0.9,2.6-1.8c0.6-1,0.8-2.1,0.6-3.3
	c-0.5-1.9-2.1-3.2-4.1-3.3C136.4,102.9,136,103,135.7,103.1L135.7,103.1z M77.8,123.9l-0.3,0.1L77.8,123.9z M76.9,124.2L76.9,124.2
	L76.9,124.2L76.9,124.2L76.9,124.2z M66.6,136.7c-0.2,0.1-0.3,0.1-0.5,0.2C66.3,136.8,66.5,136.8,66.6,136.7z"/>
<path class="st0" d="M1.9,140.8c0,0.1,0,0.2,0,0.3C1.9,141,1.9,140.9,1.9,140.8L1.9,140.8z"/>
<path class="st0" d="M238.2,115.2c-1,0.6-1.6,1.6-1.9,2.7c-0.2,1.1,0,2.2,0.6,3.2l0.7,0.9c0.6,0.5,1.3,0.9,2,1
	c1.6,0.5,3.2,1.1,4.9,1.6c2,0.6,4.1,1.1,6.1,1.8l0.9,0.3l0.5,0.2c2.3,0.8,4.6,1.5,6.8,2.3s4.4,1.9,6.6,2.8c1.1,0.5,2.3,0.8,3.4,1.1
	l1.9,0.6c2.1,0.8,4.2,1.8,6.2,2.8s4.4,2,6.5,3.1s4.6,2.2,6.8,3.4c1.1,0.6,2.2,1.2,3.4,1.8l3.2,1.5c2.8,1.3,5.6,2.4,8.4,3.7
	c1.5,0.8,3,1.6,4.5,2.5c1.1,0.6,2.2,1.1,3.3,1.7s2.3,1.3,3.5,1.9c1.7,0.9,3.2,1.9,4.9,2.7c1.4,0.7,2.8,1.4,4.1,2.1s2.5,1.2,3.8,1.9
	c1.8,1,3.6,2,5.4,3c1.3,0.8,2.6,1.5,4,2.2c0.6,0.3,1.2,0.5,1.8,0.8s1.2,0.7,1.9,1s1.1,0.5,1.7,0.8c0.3,0.2,0.6,0.3,0.9,0.5
	c0.9,0.4,1.9,0.6,2.9,0.6c1.1,0,2.2-0.6,2.9-1.4c1.6-1.7,1.4-4.4-0.3-6l0,0c-0.5-0.5-1.2-0.8-1.9-0.9c-0.5-0.3-1.1-0.6-1.6-0.8
	c-0.8-0.3-1.5-0.8-2.3-1.2s-1.5-0.7-2.2-1s-1.6-0.8-2.4-1.2c-2.2-1.2-4.3-2.5-6.5-3.7c-1.2-0.7-2.6-1.2-3.8-1.9s-2.7-1.4-4-2.1
	c-1.7-0.9-3.3-1.9-5-2.8c-1.2-0.6-2.4-1.2-3.5-1.9s-2.3-1.1-3.4-1.7c-1.4-0.8-2.8-1.6-4.2-2.4c-2.8-1.5-5.8-2.5-8.7-3.9
	c-2.2-1-4.5-2.1-6.6-3.3s-4.4-2.2-6.6-3.3s-4.3-2.1-6.4-3.1c-2-0.9-4-1.9-6-2.7c-2-0.8-4.1-1.5-6.2-2.1c-2.2-0.9-4.4-1.9-6.7-2.8
	c-1.8-0.7-3.7-1.2-5.6-1.8c-1-0.3-1.9-0.7-2.9-1l1,0.4l-2-0.7l0.3,0.1c-4.1-1.4-8.2-2.4-12.3-3.8c-0.3-0.1-0.5-0.1-0.8-0.1
	C239.7,114.4,238.8,114.7,238.2,115.2L238.2,115.2z M348.3,163h0.3h0.1H348.3L348.3,163z"/>
<path class="st0" d="M253.5,124.3c-0.4,0.1-0.9,0.3-1.3,0.4l-0.8,0.3l-1.7,0.7c-0.5,0.2-1,0.4-1.5,0.7s-1.1,0.5-1.7,0.7
	c-1,0.4-2,0.7-2.9,1.1c-0.9,0.4-1.9,0.8-2.8,1.2c-1.3,0.5-2.7,1.1-4,1.6s-2.6,1.1-4,1.6l-0.7,0.3c-3.1,1.1-6.2,2.4-9.2,3.5
	c-1.7,0.6-3.3,1.3-5,1.9s-3.2,1.3-4.8,1.9l-4,1.4c-1.5,0.5-3,1-4.4,1.6c-2.7,1.2-5.5,2.4-8.2,3.6c-2.5,1.1-4.9,2.4-7.5,3.4
	c-2.3,0.8-4.6,1.6-6.8,2.6s-4.4,1.8-6.7,2.7c-0.9,0.3-1.9,0.6-2.9,1l-3.1,1.1c-2.2,0.8-4.5,1.6-6.7,2.3c-0.4,0.1-0.7,0.3-0.9,0.6
	s-0.3,0.8-0.2,1.1c0.2,0.8,1,1.3,1.8,1.1l0,0c3-1,5.9-2,8.9-3.1c1.5-0.5,3-1,4.5-1.5s2.9-1.1,4.3-1.7c1.7-0.7,3.3-1.4,5-2.1
	c1.5-0.5,3-1,4.5-1.6s2.8-1.1,4.1-1.8s2.9-1.4,4.3-2s2.7-1.2,4-1.8s2.9-1.3,4.4-1.9l-0.4,0.1c2.8-1,5.7-1.9,8.4-3s5.5-2.2,8.2-3.2
	l-0.4,0.1c2.8-1,5.5-2.1,8.3-3.2h-0.1l0.1-0.1l0.2-0.1l-0.2,0.1l1.6-0.6l0,0h0.1l0,0c1.4-0.5,2.9-1.1,4.3-1.7s2.8-1.1,4.1-1.6l0,0
	c0.9-0.4,1.9-0.8,2.8-1.2s2-0.8,3-1.2s2.1-0.9,3.1-1.3s2.1-0.9,3.2-1.3h0.2c0.8-0.1,1.4-0.9,1.3-1.7c-0.1-0.8-0.9-1.4-1.7-1.3
	C253.6,124.3,253.5,124.3,253.5,124.3L253.5,124.3z M253.9,127.3h-0.1H253.9z M233.1,132.6l-0.2,0.1L233.1,132.6z M232.8,132.7h-0.1
	H232.8z M188.9,150.2l-0.3,0.1L188.9,150.2z M231.7,136.2L231.7,136.2L231.7,136.2L231.7,136.2L231.7,136.2z"/>
<path class="st0" d="M264.1,130.3c-1,0.5-2.1,1-3.2,1.4s-2.1,0.9-3.2,1.3c-2.1,0.9-4.2,1.9-6.4,2.8l-1,0.4h0.1
	c-3,1.1-5.9,2.2-8.8,3.5c-1.4,0.6-2.8,1.3-4.2,1.9s-2.8,1.1-4.2,1.6s-2.8,1.2-4.2,1.8l-4.4,1.8c-1.4,0.6-2.8,1.1-4.1,1.6
	s-2.8,1.2-4.1,1.8l-1.2,0.5c-1.5,0.5-3,1-4.4,1.6l-4.3,1.6c-3,1.1-5.9,2.4-8.9,3.7c-1.5,0.7-2.9,1.3-4.4,1.9c-0.7,0.3-1.3,0.6-2,0.9
	l-2.2,1c-1.7,0.8-3.5,1.6-5.3,2.3c-0.4,0.2-0.6,0.5-0.7,0.9c-0.3,0.8,0.2,1.6,1,1.9l0,0c0.4,0.1,0.8,0.1,1.1-0.1
	c1.6-0.6,3.2-1.3,4.7-2c1.4-0.7,2.8-1.3,4.2-1.9c0.7-0.3,1.4-0.6,2.1-0.9s1.5-0.6,2.2-1c1.4-0.7,2.9-1.3,4.4-2s2.8-1.1,4.2-1.7
	l-0.4,0.1c2.1-0.7,4.1-1.5,6.2-2.3c1.5-0.5,3-1,4.4-1.6s2.8-1.2,4.3-1.8c0.7-0.3,1.4-0.6,2.1-0.8s1.4-0.5,2-0.8
	c1.4-0.6,2.9-1.2,4.3-1.8s2.8-1.2,4.2-1.8s2.8-1.1,4.2-1.6s2.9-1.3,4.3-1.9s2.8-1.2,4.3-1.8s2.7-1,4.1-1.6l-0.2,0.1l1.3-0.5
	l-0.1,0.1c2.4-0.9,4.7-2,7-3c1.1-0.5,2.2-0.9,3.2-1.3l1.7-0.7c0.6-0.3,1.2-0.6,1.8-0.8c0.7-0.4,1-1.3,0.6-2
	c-0.2-0.5-0.8-0.8-1.3-0.8C264.6,130.2,264.3,130.2,264.1,130.3L264.1,130.3z M215.4,150.5h-0.1H215.4z M215.2,150.6h-0.1H215.2z"/>
<path class="st0" d="M275.2,134.8c-0.8,0.4-1.7,0.7-2.5,1.1s-1.8,0.8-2.7,1.2c-1.7,0.8-3.4,1.6-5.1,2.2c-1.5,0.5-3,1.1-4.4,1.7
	c-0.7,0.3-1.4,0.6-2,0.9s-1.4,0.6-2.1,0.9c-1.3,0.6-2.6,1.2-3.9,1.9c-0.7,0.3-1.4,0.7-2.1,1s-1.4,0.6-2.1,0.9l-4.3,1.9
	c-1.5,0.6-2.9,1.2-4.4,1.8c-0.7,0.3-1.5,0.6-2.2,0.9s-1.4,0.7-2.2,1c-1.4,0.7-2.8,1.3-4.2,2s-2.9,1.3-4.4,2s-3,1.3-4.5,1.9
	s-2.9,1.2-4.3,1.8c-0.8,0.3-1.5,0.6-2.3,1l-2.2,1.1c-1.2,0.6-2.4,1.2-3.6,1.8c-1.4,0.7-2.7,1.4-4.1,2.2c-0.7,0.4-1,1.3-0.6,2
	s1.3,1,2,0.6c2.8-1.5,5.6-3,8.4-4.4c0.7-0.3,1.5-0.7,2.2-1l2.3-1c0.7-0.3,1.4-0.6,2.1-0.9l2.2-0.9c1.5-0.6,3-1.2,4.6-1.9
	s2.9-1.3,4.3-1.9s2.7-1.3,4.1-1.9s3-1.3,4.4-1.9s3-1.2,4.4-1.8s2.8-1.3,4.2-1.9c0.7-0.3,1.4-0.6,2.2-1l2-1c1.4-0.7,2.7-1.3,4.1-1.9
	c1.1-0.5,2.2-1,3.3-1.5s2.2-0.9,3.3-1.3s2-0.7,2.9-1.2s2-0.9,3-1.3s1.9-0.9,2.8-1.3s1.9-0.8,2.8-1.2c0.7-0.4,1-1.3,0.6-2
	c-0.2-0.4-0.5-0.6-0.9-0.7c-0.1,0-0.3-0.1-0.4-0.1C275.7,134.7,275.4,134.7,275.2,134.8L275.2,134.8z"/>
<path class="st0" d="M287,138.5c-1.4,0.6-2.9,1.2-4.3,1.9c-0.7,0.4-1.4,0.7-2.1,1s-1.4,0.7-2.1,1c-1.5,0.6-2.9,1.2-4.3,1.9
	c-0.7,0.3-1.3,0.7-2,1s-1.4,0.7-2.1,1.1c-1.4,0.7-2.9,1.4-4.4,2s-2.9,1.3-4.3,1.9l-4.5,1.9c-1.4,0.6-2.9,1.2-4.3,1.9
	c-3,1.3-5.9,2.6-8.8,4.1c-1.4,0.7-2.9,1.5-4.3,2.2s-2.9,1.4-4.3,2.1c-1.6,0.8-3.2,1.6-4.8,2.3c-0.8,0.4-1.7,0.7-2.5,1.1
	s-1.8,0.9-2.7,1.3c-0.7,0.4-1,1.3-0.5,2.1c0.4,0.7,1.2,0.9,1.9,0.6l2.5-1.2c0.7-0.3,1.4-0.6,2-0.9c1.5-0.6,3-1.4,4.4-2.1
	c2.8-1.4,5.7-2.8,8.5-4.3c1.4-0.8,2.9-1.5,4.4-2.2s3-1.3,4.5-2s2.9-1.3,4.4-2s2.8-1.2,4.2-1.8c3-1.3,6.1-2.6,9.1-4
	c0.7-0.3,1.3-0.7,2-1s1.5-0.7,2.2-1.1c1.4-0.7,2.8-1.3,4.1-1.9c0.8-0.3,1.5-0.6,2.3-1l2.4-1.2c1.6-0.8,3.3-1.5,4.9-2.2
	c0.7-0.4,1-1.3,0.6-2c-0.3-0.5-0.8-0.8-1.3-0.8C287.5,138.3,287.2,138.4,287,138.5L287,138.5z"/>
<path class="st0" d="M297.2,145.2c-1.5,0.7-2.9,1.4-4.3,2.1s-2.8,1.3-4.1,2s-2.8,1.5-4.3,2.2s-2.9,1.3-4.4,1.9l-1.8,0.7h0.1
	c-1.5,0.5-3,1.1-4.5,1.7s-3,1.4-4.5,2.1c-2.8,1.3-5.5,2.8-8.3,4.1c-1.4,0.7-2.7,1.3-4.1,1.9s-3,1.4-4.4,2.1s-2.9,1.4-4.3,2
	c-0.7,0.3-1.5,0.7-2.2,1s-1.3,0.7-2,1.1l-0.7,0.4c-0.3,0.2-0.6,0.5-0.7,0.9c-0.1,0.4-0.1,0.8,0.1,1.1c0.4,0.7,1.3,1,2,0.6
	s1.4-0.8,2.1-1.2c0.7-0.4,1.4-0.7,2.2-1c1.5-0.7,2.9-1.4,4.4-2.1s2.8-1.4,4.2-2s2.9-1.3,4.4-2l3.8-1.9c1.3-0.7,2.6-1.3,3.9-2
	s2.7-1.4,4.1-2s2.7-1.1,4-1.6s3-1.1,4.4-1.6c0.7-0.3,1.5-0.6,2.2-0.9s1.5-0.7,2.2-1.1c1.3-0.7,2.7-1.4,4-2.1s2.9-1.4,4.3-2.1
	c1.2-0.6,2.5-1.3,3.7-1.8c0.7-0.4,1-1.3,0.6-2c-0.3-0.5-0.8-0.8-1.3-0.8C297.7,145,297.5,145,297.2,145.2L297.2,145.2z"/>
<path class="st0" d="M309.9,150.8c-0.9,0.5-1.8,1-2.8,1.5s-1.9,0.9-2.9,1.3c-2,0.9-4,1.7-6,2.4l0.4-0.1c-3.1,1.1-6.1,2.3-9.1,3.6
	s-5.7,2.8-8.5,4.2s-5.9,2.9-8.9,4.4c-1.4,0.7-2.9,1.4-4.3,2.1c-1.4,0.7-2.9,1.4-4.3,2.1c-0.9,0.4-1.7,0.8-2.6,1.1s-1.9,0.9-2.8,1.3
	c-0.7,0.4-1,1.3-0.6,2s1.3,1,2,0.6c0.8-0.4,1.6-0.7,2.4-1.1s1.4-0.6,2.1-0.9c1.5-0.7,3-1.4,4.5-2.1s2.8-1.3,4.2-2s3-1.5,4.6-2.3
	c2.9-1.4,5.8-2.8,8.7-4.3s5.7-2.8,8.6-3.9l3.4-1.4l-0.4,0.1c1.3-0.5,2.6-1,3.9-1.5c1.1-0.4,2.2-0.9,3.2-1.3c1.1-0.5,2.3-1,3.4-1.5
	s2.1-1.1,3.1-1.7c0.7-0.4,1-1.3,0.6-2C311.5,150.7,310.6,150.4,309.9,150.8L309.9,150.8z"/>
<path class="st0" d="M319.3,158.4c-1.7,0.8-3.4,1.4-5.1,2.1s-3.3,1.3-5,2s-3.1,1-4.6,1.6s-2.8,1.2-4.2,1.9s-3,1.4-4.6,2l-4.4,1.8
	c-1.5,0.6-2.9,1.2-4.4,1.8s-2.9,1.3-4.3,2s-2.9,1.4-4.3,2.1s-2.9,1.5-4.3,2.2c-0.6,0.3-1.2,0.5-1.9,0.8c-0.4,0.1-0.9,0.3-1.3,0.4
	s-1.2,0.3-1.8,0.4c-0.8,0.1-1.4,0.9-1.3,1.7s0.9,1.4,1.7,1.3c0.1,0,0.1,0,0.2,0c0.8-0.2,1.6-0.3,2.5-0.6c0.8-0.3,1.7-0.6,2.5-0.9
	c1.5-0.6,2.9-1.4,4.2-2.1s2.9-1.5,4.4-2.2s2.9-1.4,4.4-2.1s2.9-1.2,4.4-1.8l4.4-1.8c3-1.2,5.9-2.6,8.8-3.8c0.5-0.2,1.1-0.5,1.6-0.7
	c1.1-0.4,2.3-0.8,3.4-1.2s2.3-0.9,3.5-1.4l3.4-1.4c1.2-0.5,2.3-0.9,3.4-1.4c0.7-0.4,1-1.3,0.6-2c-0.3-0.5-0.8-0.8-1.3-0.8
	C319.7,158.3,319.5,158.4,319.3,158.4L319.3,158.4z"/>
<path class="st0" d="M337.3,59.6c-0.4,0.2-0.8,0.6-0.9,1c-0.2,0.4-0.1,0.9,0.1,1.3c0.2,0.4,0.6,0.7,1,0.9l2.4,1.2l1.2,0.6l-0.2-0.1
	c1.5,0.8,3.1,1.6,4.6,2.5s3.1,2,4.6,3s3,2.1,4.4,3.2c0.7,0.5,1.3,1.1,2,1.6l2.1,1.5c0.1,0.1,0.2,0.1,0.3,0.2
	c0.4,0.3,0.8,0.4,1.3,0.3c0.9-0.2,1.6-1.1,1.4-2c-0.1-0.5-0.4-0.9-0.7-1.1c-0.7-0.6-1.4-1-2.1-1.6s-1.4-1.1-2.1-1.7
	c-1.4-1.1-2.9-2.2-4.3-3.2s-3-2-4.5-2.9s-3.1-1.8-4.7-2.6l-0.9-0.4h0.1l-3.5-1.8c-0.2-0.1-0.3-0.1-0.5-0.1
	C337.8,59.4,337.5,59.5,337.3,59.6L337.3,59.6z M339.7,64L339.7,64L339.7,64z"/>
<path class="st0" d="M333.4,70.8c-0.5,0.8-0.3,1.9,0.5,2.4l0,0c1.1,0.7,2.1,1.3,3.2,2s2.2,1.2,3.4,1.8c2,1,4.1,1.9,6.1,2.9
	c1.4,0.7,2.8,1.5,4.1,2.4l2.1,1.4c0.8,0.5,1.5,1.1,2.2,1.7c0.8,0.5,1.9,0.3,2.4-0.5s0.3-1.9-0.5-2.4c-0.6-0.5-1.2-1-1.8-1.4
	s-1.2-0.9-1.8-1.3c-1.2-0.8-2.4-1.6-3.7-2.3c-1.4-0.7-2.8-1.4-4.2-2.1c-1.3-0.6-2.6-1.2-3.8-1.8c-0.9-0.4-1.7-0.9-2.5-1.4
	c-1-0.6-2.1-1.3-3.1-1.9c-0.3-0.2-0.6-0.3-1-0.3C334.2,70,333.7,70.3,333.4,70.8L333.4,70.8z M341.6,73.7l0.1,0.1L341.6,73.7z
	 M346.3,79.7h0.1H346.3z"/>
<path class="st0" d="M339.7,88.8c-0.3,0.9,0.2,1.9,1.1,2.2c1.2,0.4,2.5,0.8,3.7,1.3c0.9,0.3,1.8,0.7,2.7,1.2
	c0.5,0.3,1.1,0.6,1.6,0.9s1.1,0.8,1.8,1.2c0.8,0.6,1.9,0.4,2.5-0.5c0.6-0.8,0.4-1.9-0.5-2.4c-0.8-0.4-1.5-1-2.2-1.4s-1.8-1-2.7-1.4
	c-1.8-0.8-3.7-1.5-5.7-2.1C341.1,87.4,340.1,87.9,339.7,88.8L339.7,88.8z"/>
<path class="st0" d="M332.9,110c-0.3,0.9,0.2,1.9,1.1,2.2c1.8,0.8,3.6,1.6,5.4,2.5h-0.1l0.8,0.4H340c2.1,1,4,2.3,6,3.5l3,1.8
	c0.5,0.3,0.9,0.6,1.4,0.8c0.6,0.3,1.3,0.6,2,0.9c0.4,0.2,0.9,0.1,1.3-0.1s0.8-0.6,0.9-1c0.2-0.4,0.1-0.9-0.1-1.3s-0.6-0.7-1-0.9
	l-1.2-0.6c-1.8-1-3.5-2.1-5.3-3.2c-2-1.2-4-2.4-6.1-3.4l0.4,0.2c-2.1-1.1-4.2-2-6.3-2.9c-0.2-0.1-0.4-0.1-0.6-0.1
	C333.8,108.9,333.1,109.4,332.9,110L332.9,110z M340.1,115l0.3,0.2L340.1,115z"/>
<path class="st0" d="M337.3,122.6c-0.5,0.8-0.3,1.9,0.5,2.4c1,0.7,1.9,1.4,2.9,2.1s1.8,1.2,2.8,1.7c2.1,1.3,4.2,2.5,6.3,3.7
	c0.8,0.6,1.9,0.4,2.5-0.4c0.6-0.8,0.4-1.9-0.5-2.4c-2-1.2-4.1-2.4-6.2-3.7l-2.8-1.8c-1-0.7-2-1.4-3-2.1c-0.3-0.2-0.6-0.3-1-0.3
	C338.1,121.8,337.6,122.1,337.3,122.6L337.3,122.6z"/>
<path class="st0" d="M18.3,46.4c-2,0.6-3.9,1.4-5.8,2.3c-1.8,0.9-3.5,1.9-5.2,2.9h0.1l-0.1,0.1l0,0h0l0,0l-0.2,0.1l0.3-0.2
	c-0.1,0.1-0.3,0.1-0.4,0.2l0,0l0,0l0,0l-1.2,0.7c-0.4,0.3-0.6,0.7-0.6,1.2c-0.1,1,0.6,1.8,1.6,1.9c0.5,0,0.9-0.1,1.3-0.4
	c0.2-0.2,0.5-0.3,0.8-0.5L9,54.6l0.5-0.3c1.5-0.9,3.1-1.8,4.7-2.6c1.9-0.9,3.8-1.6,5.8-2.3c0.9-0.4,1.3-1.4,0.9-2.3
	c-0.2-0.4-0.5-0.8-1-0.9c-0.2-0.1-0.4-0.1-0.6-0.1C18.9,46.3,18.6,46.4,18.3,46.4L18.3,46.4z M6.7,52l0.2-0.1l0,0L6.7,52z M7.3,51.6
	L7.3,51.6L7.3,51.6L7.3,51.6L7.3,51.6z"/>
<path class="st0" d="M27.8,54.6C24.4,56,21,57.4,17.6,59S11,62.5,8,64.7c-0.5,0.4-1.1,0.8-1.6,1.2s-1.2,0.9-1.8,1.3
	C4.2,67.5,4,67.9,4,68.4c-0.1,0.5,0.1,0.9,0.4,1.3s0.7,0.6,1.2,0.6s0.9-0.1,1.3-0.4c0.6-0.4,1.2-0.9,1.8-1.3s1.1-0.8,1.6-1.2
	c1.2-0.8,2.4-1.6,3.6-2.4c2.4-1.4,4.8-2.6,7.3-3.8c2.6-1.2,5.4-2.4,8.1-3.5c0.9-0.4,1.3-1.4,0.9-2.3c-0.3-0.6-0.9-1-1.6-1
	C28.3,54.5,28,54.5,27.8,54.6L27.8,54.6z M13.6,65.1l-0.2,0.1L13.6,65.1z"/>
<path class="st0" d="M21.1,74.7c-1.3,0.4-2.6,0.8-3.9,1.3c-1.1,0.5-2.2,1-3.3,1.7c-1.2,0.7-2.3,1.5-3.4,2.3
	c-0.9,0.6-1.8,1.2-2.7,1.8c-0.5,0.3-1,0.5-1.6,0.8C5.3,83,4.9,84,5.3,84.9c0.4,0.9,1.4,1.3,2.3,0.9c0.8-0.4,1.6-0.8,2.3-1.2
	c0.6-0.4,1.3-0.8,1.9-1.2s1.2-0.9,1.9-1.3s1.2-0.8,1.8-1.2c1-0.6,2-1.1,3-1.5c1.3-0.5,2.6-1,4-1.4c0.4-0.2,0.8-0.5,0.9-1
	c0.2-0.4,0.2-0.9,0-1.3s-0.6-0.8-1-0.9c-0.2-0.1-0.4-0.1-0.6-0.1C21.7,74.6,21.4,74.6,21.1,74.7L21.1,74.7z"/>
<path class="st0" d="M21.8,91.6c-1.9,0.7-3.9,1.5-5.8,2.3c-2,0.7-4,1.7-5.8,2.8c-0.4,0.3-0.6,0.7-0.6,1.2s0.1,0.9,0.4,1.3
	c0.3,0.4,0.7,0.6,1.2,0.6s0.9-0.1,1.3-0.4l0.1-0.1c1.6-0.8,3.2-1.5,4.9-2.2c1.9-0.8,3.9-1.6,5.8-2.3c0.9-0.4,1.3-1.4,0.9-2.3
	c-0.3-0.6-0.9-1-1.6-1C22.2,91.5,22,91.5,21.8,91.6L21.8,91.6z"/>
<path class="st0" d="M32.9,98c-1.1,0.3-2.1,0.6-3.1,0.9c-1.2,0.4-2.3,0.9-3.4,1.5c-1.7,0.8-3.4,1.8-5,2.7c-3.3,1.7-6.5,3.6-9.6,5.6
	c-0.7,0.5-1.4,1-2.1,1.4c-0.8,0.6-0.9,1.7-0.3,2.5c0.6,0.8,1.7,0.9,2.5,0.3l0,0c1.5-1.1,3.1-2.2,4.7-3.2c2.3-1.3,4.6-2.6,6.9-3.9
	c1.2-0.7,2.4-1.3,3.6-1.9c0.6-0.3,1.2-0.6,1.8-0.9s1-0.5,1.5-0.7c0.4-0.2,0.8-0.3,1.2-0.4c0.6-0.2,1.3-0.3,1.9-0.5
	c0.5-0.1,0.9-0.3,1.2-0.7c0.3-0.4,0.4-0.8,0.3-1.3c-0.1-0.5-0.3-0.9-0.7-1.2c-0.3-0.2-0.6-0.3-1-0.3C33.1,98,33,98,32.9,98L32.9,98z
	"/>
<g>
	<path id="SVGID_x5F_1_x5F_" class="st1" d="M49.6,90.4c27.4-8.1,67-16.3,115-15c63.7,1.8,113.4,19.6,143,33"/>
	<text>	<textPath  xlink:href="#SVGID_x5F_1_x5F_" startOffset="8.5449%">
<tspan  class="st0" style="font-family:'GreycliffCF-DemiBold'; font-size:52px;">Unsplash</tspan>	</textPath>
</text>
</g>
</svg>
