<?xml version="1.0" encoding="utf-8"?>
<!-- Generator: Adobe Illustrator 24.1.3, SVG Export Plug-In . SVG Version: 6.00 Build 0)  -->
<svg version="1.1" id="Layer_1" xmlns="http://www.w3.org/2000/svg" xmlns:xlink="http://www.w3.org/1999/xlink" x="0px" y="0px"
	 viewBox="0 0 240.9 269.3" style="enable-background:new 0 0 240.9 269.3;" xml:space="preserve">
<style type="text/css">
	.st0{fill:#2C2C2C;}
	.st1{font-family:'GreycliffCF-Medium';}
	.st2{font-size:28px;}
</style>
<path class="st0" d="M201.9,105.8c-0.1-0.9-0.3-1.8-0.4-2.6v-0.1c-0.1-0.6-0.2-1.2-0.3-1.9c0-0.4-0.1-0.8-0.1-1.1
	c-0.1-0.6-0.1-1.2-0.2-1.8l0,0v-0.3l0,0v-0.2c-0.1-0.8-0.2-1.5-0.4-2.3c0-0.2-0.1-0.4-0.1-0.6l0,0c-0.1-0.5-0.2-1-0.3-1.6l-0.1-0.3
	c-0.1-0.6-0.3-1.3-0.4-2c-0.1-0.7-0.2-1.5-0.4-2.3c-0.2-0.8-0.5-1.9-0.8-2.8l0,0c-0.1-0.4-0.3-0.8-0.4-1.2c-0.4-1.5-1-3.1-1.6-4.6
	l-0.3-0.9l0,0v-0.1l0,0c-0.3-0.8-0.6-1.5-0.9-2.3c-1.2-3-2.5-6.2-4.1-9.1c-0.7-1.4-1.5-2.6-2.2-3.8l-0.2-0.3l-0.1-0.1
	c-0.3-0.4-0.6-0.9-0.9-1.4s-0.5-0.8-0.8-1.2l-0.1-0.1l-0.4-0.5c-0.9-1.2-1.8-2.4-2.8-3.5l0,0l-0.3-0.3c-0.5-0.6-1-1.1-1.4-1.7
	c-0.3-0.3-0.5-0.6-0.7-0.8c-0.2-0.3-0.4-0.5-0.7-0.8c-0.9-1-2-2-3-3c-1.3-1.1-2.6-2.2-4-3.2c-1-0.7-2.1-1.5-3.2-2.4
	c-1.1-0.9-2.1-1.5-3-2.1c-1.1-0.7-2.2-1.3-3.3-1.9c-1.6-0.8-2.9-1.4-4.1-1.8c-0.6-0.3-1.1-0.5-1.7-0.8h-0.1h-0.1
	c-0.7-0.3-1.3-0.6-2-0.9h-0.1l-0.2-0.1l-0.2-0.1l0.1,0.1c-0.7-0.3-1.5-0.6-2.5-1l-0.2-0.1c-0.6-0.3-1.2-0.5-1.9-0.8
	c-0.6-0.2-1.3-0.4-1.9-0.6h-0.2l-0.3-0.1l-0.8-0.2c-0.3-0.1-0.6-0.1-0.8-0.2l-0.4-0.1c-0.9-0.2-1.6-0.3-2.3-0.5s-1.1-0.3-1.6-0.5
	h-0.1l-0.3-0.1c-0.6-0.2-1.1-0.3-1.7-0.4h-0.1l-0.4-0.1l-2.3-0.4l-1-0.2l-1.1-0.2l-1.4-0.7h-0.1h-0.1l0,0h-0.2l-0.6-0.2l0,0
	c-0.3-0.1-0.7-0.2-1-0.3c-0.8-0.1-1.5-0.2-2.3-0.3h-0.5c-0.4,0-0.8,0-1.2-0.1c-0.7-0.1-1.5-0.2-2.4-0.3c-0.8-0.1-1.4,0-2.3-0.1h-2.1
	l0,0c-0.6,0-1.2,0.1-1.9,0.2l0,0h-0.3c-0.4,0-0.9,0.1-1.4,0.1c-0.5,0-1.1,0.1-1.6,0.2h-0.2h-0.2h-0.6c-0.5,0-1,0.1-1.5,0.2l-0.8,0.2
	h-0.1c-0.4,0.1-0.8,0.2-1.1,0.3c-0.4,0.1-0.6,0.1-1,0.2H111l-0.6,0.1h-0.1l-0.9,0.1l-0.4,0.1h-0.1l-0.4,0.1l-0.4,0.1l-0.5,0.1
	l-0.4,0.1h-0.1H107h-0.1l-0.3,0.1c-0.2,0-0.4,0.1-0.5,0.1l-0.3,0.1l-0.9,0.2c-0.5,0.1-1.1,0.3-1.5,0.4l-0.4,0.1
	c-0.5,0.2-1.1,0.3-1.7,0.5l-0.6,0.2c-0.4,0.1-0.8,0.3-1.2,0.4l-0.1,0.2c-0.7,0.3-1.4,0.6-2,0.9L97,35.3c-0.4,0.3-0.9,0.5-1.4,0.8
	l-0.2,0.1l-0.2,0.1L95,36.3c-0.5,0.2-1.1,0.4-1.8,0.7l-0.3,0.1l-0.2,0.1h-0.1l0,0c-0.5,0.1-0.9,0.3-1.4,0.5c-1.5,0.5-3,1.1-4.4,1.8
	c-0.6,0.3-1.1,0.6-1.5,0.8s-0.7,0.4-1.1,0.5h-0.1l-0.5,0.2c-1,0.5-2,1.2-3,1.9l-0.2,0.1l-1.6,1.1l-1.3,0.9l-0.3,0.2
	c-0.7,0.5-1.6,1.1-2.4,1.7l0,0l0,0l-0.1,0.1l-0.2,0.1l0.1-0.1c-0.6,0.5-1.2,0.9-1.8,1.5c-0.4,0.3-0.8,0.7-1.1,1l-0.4,0.4
	c-1.3,1.2-2.3,2.3-3.2,3.2c-1.1,1.2-2.3,2.3-3.4,3.3c-0.5,0.5-1.1,1.1-1.6,1.6l0,0l0,0l-0.5,0.5c-0.4,0.4-0.7,0.7-1.1,1.1
	c-0.9,1-1.8,2.1-2.6,3.2l0,0l0,0l-0.4,0.6c-0.9,1.1-1.6,2.3-2.4,3.4v0.1c-0.9,1.3-1.6,2.4-2.1,3.5c-0.3,0.4-0.5,0.9-0.8,1.3v0.1l0,0
	c-0.5,0.7-0.9,1.5-1.3,2.3c-0.4,0.9-0.8,1.7-1,2.4l-0.3,0.8l-0.5,1.3l-0.4,1c-0.5,1.1-0.9,2.3-1.3,3.4c-0.2,0.6-0.4,1.2-0.5,1.8
	l-0.1,0.2l0,0v0.1c-0.2,0.8-0.5,1.6-0.7,2.4L47.1,88L47,88.3c-0.2,0.5-0.4,1.1-0.5,1.7c-0.1,0.6-0.2,1.1-0.3,1.5v0.2
	c0,0.2-0.1,0.4-0.1,0.6c-0.3,1.7-0.5,3.4-0.5,5.1c0,1.6,0,3.2-0.1,4.7v0.1c0,2.4,0,4.8,0,7.2v4.2c0,0.7,0,1.4,0.1,2.3v0.5
	c0,0.3,0,0.5,0,0.8l0.1,0.8l0,0v0.4c0.2,1.2,0.3,2.2,0.4,3.1v0.1c0.2,1.4,0.4,3,0.7,4.6c0.2,0.9,0.3,1.7,0.5,2.4
	c0,0.2,0.1,0.4,0.1,0.7v0.3c0.1,0.5,0.2,1.1,0.3,1.6c0.1,0.5,0.2,0.9,0.3,1.4v0.1l0.2,1c0.1,0.5,0.2,1,0.3,1.4v0.1
	c0,0.3,0.1,0.5,0.2,0.8c0.4,1.5,0.8,3,1.2,4.4c0.2,0.6,0.4,1.1,0.6,1.6c0.2,0.7,0.5,1.3,0.8,1.9v0.1c0.4,0.9,0.8,1.8,1.2,2.7
	l0.1,0.3l0.1,0.1l0.1,0.2c0.2,0.4,0.5,1,0.8,1.6c0.6,1.3,1.1,2.5,1.6,3.6c0.3,0.6,0.6,1.1,0.9,1.8c0.3,0.6,0.7,1.1,1,1.5
	s0.5,0.8,0.8,1.1v0.1c0.4,0.5,0.8,1.1,1.2,1.8c0.4,0.7,0.7,1,1,1.5c0.3,0.4,0.5,0.7,0.9,1.1l0,0l0.5,0.6l1,1.3v0.1l0.1,0.1l0.1,0.1
	c0.4,0.5,0.8,1,1.1,1.5l0.2,0.3c0.3,0.3,0.5,0.7,0.8,1l0.8,0.9c0.5,0.5,1,1.1,1.5,1.6l0.5,0.5c0.3,0.3,0.7,0.7,1.1,1.1l1.1,1
	l0.6,0.6c0.3,0.2,0.5,0.5,0.8,0.7l0,0l0.1,0.1l0.9,0.8c0.6,0.5,1.1,1.1,1.7,1.5c0.6,0.4,1.4,1.1,2.3,1.8l1,0.7l0,0l0.1,0.1l0.8,0.6
	l0.2,0.1l0,0c1.1,0.8,2.4,1.7,3.6,2.4c0.6,0.4,1.3,0.7,2.2,1.1c1,0.5,1.8,0.9,2.7,1.2c1.5,0.6,3,1.1,4.4,1.6c1.4,0.4,3,0.9,4.6,1.3
	c1.3,0.3,2.8,0.7,4.6,1h0.3h0.1h0.1l1.7,0.4l0.7,0.2h0.2h0.2l0.2,0.1h0.2l0.7,0.2l0.4,0.1l0,0c0.5,0.1,1.2,0.3,1.9,0.4
	c0.9,0.1,1.8,0.3,3,0.4l3,0.3h0.1h0.2l1.5,0.2l1.6,0.2l0,0c1,0.1,2.1,0.3,3.1,0.4c3,0.2,6,0.2,9,0.3h1.1c1.7,0,3.5-0.2,5.2-0.5
	c1-0.2,2-0.4,2.9-0.6l0,0h0.2l0.4-0.1h0.1l1.1-0.2c0.7-0.1,1.4-0.3,2.3-0.5c0.4-0.1,0.9-0.2,1.3-0.3h0.1h0.2l0.7-0.1
	c1.4-0.3,2.9-0.6,4.3-1.1l0.6-0.2c1-0.3,2.4-0.7,3.6-1.1c0.6-0.2,1.3-0.5,1.8-0.7l0.4-0.2c0.8-0.3,1.8-0.7,2.7-1.1
	c0.8-0.3,1.4-0.6,2.1-1s1.3-0.7,1.9-1l0.3-0.1c1.4-0.8,2.7-1.6,4-2.6c0.6-0.5,1.2-0.9,1.8-1.4h-0.1l4.1-3c0.7-0.5,1.6-1.2,2.5-1.9
	l0.7-0.6c0.4-0.4,0.8-0.7,1.1-0.9c1.4-1.1,2.6-2.1,3.7-3.1c0.4-0.3,0.7-0.7,1-1l0,0l0.5-0.6c0.4-0.4,0.8-0.9,1.1-1.2l0.5-0.5
	c1.2-1.2,2.3-2.5,3.3-3.8c0.8-1.1,1.7-2.4,2.8-3.9c0.8-1.1,1.6-2.5,2.6-4s1.6-2.9,2.4-4.4l0.2-0.4l0.1-0.2v-0.1
	c0.2-0.5,0.5-1,0.8-1.6c0.4-0.8,0.8-1.7,1.2-2.7c0.6-1.4,1.1-2.9,1.4-4.1l0,0c0.7-2.1,1.4-4.6,2-7.1c0.6-2.9,1.1-5.4,1.4-7.9l0,0
	c0.2-1.7,0.5-3.4,0.6-5.1c0-0.8,0.1-1.5,0.2-2.3s0.1-1.5,0.2-2.3c0.1-1.5,0.1-3,0.1-4.4C202,108.7,202,107.3,201.9,105.8z
	 M117.1,74.6L117.1,74.6z M109.4,79.4c0.1-0.8,0.1-1.5,0.2-2.3c0.1-1.1,0.9-2.1,2.1-2.3c0-0.1,0.1-0.1,0.1-0.2h5.7h1.2h-0.5
	c0.8,0,1.6,0.1,2.4,0.2c0.8,0,1.9,0.1,2.8,0.1c0.7,0,1.3,0.2,2,0.2c0.7,0.1,1.5,0.1,2.3,0.1c0.7,0,1.6,0.1,2.3,0.2
	c0.8,0.1,1.8,0.1,2.8,0.1h0.6c0.3,0,0.6,0,1,0.1c0.5,0.1,1,0.1,1.4,0.1c0.6,0,1.1,0,1.7,0.1c0.2,0,0.4,0,0.6,0
	c0.1,0.2,0.2,0.5,0.2,0.8c0,0.2,0.1,0.5,0.1,0.7c0,0.7,0.1,1.4,0.1,2c0,0.7,0,1.3,0,1.9c0,1,0.1,2,0,3c-0.1,1,0,1.8,0,2.7v0.1l0,0
	l0,0c0,1.8-0.1,3.6-0.3,5.4c0,0.5-0.1,1-0.1,1.5c0,0.6-0.1,1.3-0.3,1.8c-0.5,1.3-1.8,2-3.1,1.9l-0.9-0.1c-0.6,0-1.1-0.1-1.8-0.1
	c-0.6,0-0.8,0-1.2,0H130c-1.1,0-2.4-0.2-3.5-0.3c-1.2-0.1-2.4-0.1-3.7-0.2c-1.1-0.1-2.3-0.1-3.4-0.1c-1,0-2,0-3,0
	c-0.7,0-1.4-0.1-2.2-0.1h-0.4h-0.6h-0.3c-0.2,0-0.5,0-0.7,0c-0.7-0.1-1.4-0.4-1.8-1c-0.5-0.6-0.7-1.4-0.7-2.2c0-0.3,0-0.6,0-0.9
	s-0.1-0.8-0.2-1.2c-0.1-0.9-0.1-1.8-0.1-2.8c0-1.4,0.1-2.8,0.1-4.3c0-0.4-0.1-0.7-0.1-1.1c0-0.5,0-1.1,0-1.6s-0.1-0.9-0.1-1.4
	C109.5,79.7,109.4,79.7,109.4,79.4z M158.8,110.8v0.4v0.4v0.7c0,0.2,0,0.5,0,0.7v-0.1v0.5v0.9v1c0,0.3,0,0.7,0,1c0,0.4,0,0.9,0,1.3
	s0,0.7,0,1.1s0,0.5,0,0.7c0,0.5,0,0.9,0,1.4c0,0.2,0,0.4,0,0.6v0.4c0,0.5,0,1,0.1,1.5c0,0.5,0,1.1,0,1.6v0.4c0,0.4,0,0.7,0,1.1
	c0,0.8,0,1.5,0,2.3l0,0c0,0.3,0,0.6,0,0.8s0,0.7,0.1,1.1c0,0.3,0.1,0.6,0.1,0.9v0.2c0.1,0.6,0.1,1.3,0.1,1.9v0.2
	c0,0.3-0.1,0.6-0.1,0.9c0,0.1,0,0.2,0,0.3c0,0.2,0,0.4,0,0.6v0.4l0,0c0,0.4,0,0.7,0,1.1v0.2c0,0.1,0,0.3,0,0.4c0,0.7,0,1.3-0.1,2
	c0,0.1-0.1,0.3-0.1,0.4v0.3c0,0.4,0,0.8,0,1.1c0.4,1.3-0.3,2.6-1.6,3.1l-0.4,0.1c-0.5,0.2-0.9,0.3-1.4,0.3H155h-0.8
	c-0.3,0-0.5,0-0.7,0h-0.3H153h-1.1h-0.8h-0.5c-0.6,0-1.3,0-1.9-0.1H148c-0.6,0-1.3,0-1.9,0.1c-0.9,0.1-1.7,0.1-2.6,0.2
	c-0.5,0-1.1,0.1-1.6,0.1l-0.7,0.1c-0.6,0.1-1.2,0.1-2,0.1H138c-0.8,0-1.5,0-2.4,0.1c-0.6,0-1.1,0.1-1.7,0.1h-0.7h-2.7H130h-1.6h-1.8
	c-0.8,0-1.6-0.1-2.4-0.1l-1.6-0.1h-0.5h0.1c-0.8,0-1.7-0.1-2.5-0.1l-1.3-0.1c-1,0-2-0.1-3-0.2c-0.8-0.1-1.6-0.1-2.3-0.2h-0.2
	l-1.1-0.1l-1.4-0.1h-0.2h-3h-3.3c-0.6,0-1.3,0-1.9,0l-3-0.2l-3-0.3h-0.5h-0.1l-0.6,0.1h-0.7c-0.3,0-0.6,0-0.9-0.1H93h-0.1h-0.2
	c-0.6,0-1.3-0.1-1.8-0.5c-1.4-0.2-2.4-1.4-2.3-2.8c0-0.3,0-0.6,0-0.9v-1.1c0-0.3,0-0.6,0-1s0-0.8,0-1.1c0-0.8,0-1.5,0-2.3
	c0-1,0-2.1,0-3.1c-0.1-0.9-0.1-1.9,0-2.8c0-0.7,0-1.4,0-2v-0.6c0-0.7,0-1.4,0.1-2.1c0-1.1,0.1-2.4,0-3.6c0-0.8-0.1-1.5,0-2.2
	c0.1-0.7,0-1.1,0-1.7c0-0.2,0-0.4,0-0.6s0-0.5,0-0.8c0-0.3,0-0.7,0-1.1v-0.3v-0.4c0,0,0,0,0-0.1V113l0,0c0-0.7,0-1.3,0-2
	c0-0.2,0-0.4,0-0.6c0-0.2,0-0.6,0-0.9s0-0.4,0-0.5v0.1v-0.2l0,0V108v-0.1c-0.1-0.8-0.1-1.5,0.1-2.3c0.2-0.8,0.8-1.3,1.6-1.6
	c0.4-0.1,0.7-0.2,1.1-0.2c2.2-0.1,4.4-0.2,6-0.2H99h1.3h0.3c0.8,0,1.7,0.1,2.5,0.2l-0.4-0.3c0.6,0.1,1.3,0.1,1.9,0.2h0.3l1.2,0.1
	l0.8,0.1c0.8,0.1,1.5,0.1,2.3,0.1h1.6c1.1,0,2,0.6,2.5,1.5c0.2,0.4,0.3,0.7,0.4,1.1v0.2v0.3c0.1,0.6,0.2,1.2,0.2,1.8
	c0,0.2,0,0.3,0,0.5s0,0.4,0,0.7c0,0.2,0.1,0.4,0.1,0.6c0.2,0.6,0.3,1.1,0.3,1.7c0,0.3,0,0.7-0.1,1v0.3c0,0.5-0.1,0.9-0.2,1.4
	c-0.1,0.8-0.2,1.6-0.2,2.4c0.1,0.3,0.1,0.6,0.1,1c0,0.1,0,0.2,0,0.4c0,0.1,0,0.2,0,0.3c0,0.1,0,0.2,0,0.3c0,0.1,0,0.2,0,0.3h0.6h0.6
	c1.1,0.1,2.2,0.1,3.2,0.1c1,0,2,0.1,3,0.2c0.5,0.1,1.1,0.1,1.6,0.2c1.1,0.1,2,0.1,2.8,0.1c0.5,0,1,0,1.4,0s0.9,0,1.4,0h0.9h0.6h1.3
	h0.3c0.7,0,1.4,0,2.1,0.1l0.1-0.8c0-0.2,0-0.4,0-0.6c0-0.2,0-0.4,0-0.6c0-0.2,0-0.5,0-0.7c0-0.2,0-0.4,0-0.6
	c0.1-0.9,0.2-1.8,0.4-2.6l0.1-0.3c-0.1-0.6-0.2-1.2-0.2-1.9c0-0.3,0-0.6,0-0.9c0-0.3,0-0.4,0-0.7c0-0.4-0.1-0.8-0.1-1.3v-0.3
	c0-0.2,0-0.4-0.1-0.6c-0.1-0.2,0-0.2,0-0.4v-0.2c-0.1-0.2-0.1-0.5-0.1-0.7c-0.1-0.4-0.1-0.8,0.1-1.2l0.1-0.2c0.1-0.4,0.4-0.8,0.7-1
	l0.1-0.1c0.2-0.2,0.4-0.3,0.6-0.4c0.7-0.3,1.3-0.5,2.1-0.5c0.7-0.1,1.5-0.1,2.2-0.1h3.3c0.6,0,1.4,0,2.3-0.1
	c0.9-0.1,1.7-0.1,2.6-0.1c0.5,0,1,0,1.5,0l0.8,0.1c0.5,0.1,0.9,0.1,1.4,0.1h0.3c0.6-0.1,1.2-0.1,1.8-0.1h0.4c0.5,0,0.9,0,1.3,0.2
	h0.3c0.1,0,0.2,0,0.4,0c0.4,0.1,0.7,0.2,1,0.4l0.2,0.1c0.5,0.4,0.9,1.1,1,1.8c0,0.1,0,0.2,0,0.3v0.1l0.1,0.6l0.1,0.6v0.1
	c0.1,0.3,0.1,0.6,0.2,0.9c0,0.4,0,0.8,0,1.1v0.5l0,0L158.8,110.8z"/>
<path class="st0" d="M35.6,129.4c0.1-0.3,0.1-0.6,0.2-1c0.1-0.3,0.1-0.7,0.2-1.1c0-0.3,0-0.7,0-1c-0.1-0.4-0.2-0.8-0.3-1.2
	c-0.2-0.4-0.3-0.8-0.5-1.2c-0.3-0.5-0.6-1.1-1-1.6l-0.3-0.4c-0.2-0.2-0.4-0.4-0.6-0.6c-0.2-0.1-0.3-0.2-0.5-0.4
	c-0.2-0.1-0.4-0.2-0.6-0.3l-0.8-0.3c-0.8-0.2-1.5-0.4-2.3-0.4c-0.5,0-1-0.1-1.5-0.1h-0.5c-0.7,0-1.5,0.2-2.2,0.5
	c-1.4,0.6-2.5,1.6-3.2,2.9c-0.2,0.2-0.3,0.5-0.4,0.8c-0.2,0.4-0.3,0.8-0.4,1.2c-0.1,0.3-0.2,0.6-0.3,0.9c-0.2,0.7-0.2,1.5-0.3,2.3
	c0,0.6,0,1.3,0.1,1.9c0,0.8,0.1,1.7,0.4,2.5c0.3,0.8,0.8,1.5,1.3,2.1c0.5,0.4,1,0.8,1.5,1.1c0.6,0.4,1.3,0.6,2,0.8
	c0.7,0.1,1.5,0.2,2.3,0.1c0.7-0.1,1.3-0.3,1.9-0.5c0.6-0.3,1.2-0.6,1.8-0.9c0.7-0.5,1.3-1.1,1.8-1.9c0.7-1,1.2-2.1,1.7-3.3
	C35.4,130,35.5,129.7,35.6,129.4z"/>
<path class="st0" d="M43.6,149.7c-0.4-0.3-0.8-0.6-1.2-0.8c-0.7-0.3-1.3-0.6-2.1-0.7c-0.3-0.1-0.6-0.1-0.9-0.1
	c-0.4,0-0.8,0.1-1.2,0.2l0,0c-0.7,0.2-1.3,0.6-1.7,1.1c-0.6,0.5-1,1.1-1.4,1.8c-0.2,0.4-0.3,0.9-0.4,1.4c0,0.1-0.1,0.3-0.1,0.4
	c-0.1,0.8-0.1,1.7,0.2,2.4c0.1,0.4,0.3,0.8,0.5,1.2c0.2,0.4,0.5,0.7,0.8,1.1c0.3,0.3,0.6,0.5,0.9,0.7c0.1,0.1,0.3,0.2,0.4,0.3
	c0.4,0.2,0.7,0.3,1.1,0.5l0.4,0.1c0.3,0.1,0.6,0.1,0.9,0.2c0.5,0,1,0,1.4-0.1c0.4-0.1,0.8-0.3,1.1-0.5c0.2-0.1,0.4-0.2,0.5-0.4
	c0.4-0.3,0.7-0.6,1-1.1c0.1-0.2,0.2-0.3,0.3-0.5c0.1-0.2,0.2-0.4,0.3-0.7c0-0.1,0.1-0.3,0.1-0.5c0.1-0.4,0.2-0.7,0.2-1.1
	c0.2-1,0.2-2.1-0.1-3.1C44.5,150.9,44.1,150.2,43.6,149.7z"/>
<path class="st0" d="M24.5,147.5c-0.2-0.2-0.4-0.4-0.6-0.5c-0.2-0.2-0.4-0.3-0.7-0.4c-0.2-0.1-0.5-0.2-0.7-0.3
	c-0.2-0.1-0.5-0.1-0.7-0.1h-0.6c-0.4,0-0.8,0.1-1.1,0.3c-0.2,0.1-0.3,0.2-0.5,0.3c-0.3,0.1-0.5,0.2-0.7,0.4
	c-0.5,0.5-0.9,1.1-1.2,1.7c-0.1,0.3-0.2,0.6-0.3,0.9c0,0.1,0,0.2,0,0.4c0,0.3,0,0.6,0,0.9c0,0.6,0.1,1.2,0.3,1.7
	c0.1,0.4,0.3,0.7,0.5,1c0.3,0.4,0.7,0.7,1.1,0.9c0.7,0.3,1.5,0.5,2.3,0.5c0.4-0.1,0.7-0.1,1.1-0.3c0.3-0.1,0.7-0.3,1-0.6
	c0.4-0.3,0.8-0.7,1.1-1.1c0.3-0.5,0.6-1.1,0.7-1.6c0.1-0.2,0.2-0.5,0.2-0.8c0-0.4,0-0.8,0-1.1c0-0.5-0.2-1-0.4-1.5
	C25,148.1,24.7,147.8,24.5,147.5z M22.3,151L22.3,151z"/>
<text transform="matrix(1 0 0 1 64.3608 220.1899)" class="st1 st2">Unsplash</text>
</svg>
