<svg xmlns="http://www.w3.org/2000/svg" viewBox="0 0 240.47 243.15" fill="#fff" stroke="#000" stroke-miterlimit="10" xmlns:v="https://vecta.io/nano"><path d="M71.83 30.27l.35 3.73c0 4.84-.43 9.67-.43 14.52a69.55 69.55 0 0 0 .36 9.35l.54 4.16c0 1-.14 1.95-.13 2.92.1 2.73.4 5.12 2.24 7.34a9.28 9.28 0 0 0 6.12 3.27 14.29 14.29 0 0 0 2.36-.07l2.14-.06h-1.15c.7 0 1.37 0 2-.06a1.83 1.83 0 0 1 .33 0h-.23 1.22c2.5 0 5 .34 7.45.4 3.43.08 6.84.1 10.26 0a110.78 110.78 0 0 1 11.8.4c4.15.35 8.3.36 12.43.73s8 .94 12 1h6.85c2 .1 4 .27 6 .45 1 .08 2 .18 2.94.28 4.85.45 8.6-2.08 10.58-6.37a17.84 17.84 0 0 0 1.19-6.27l.4-5a164 164 0 0 0 .85-18.27v-.38a1.41 1.41 0 0 0 0 .21h0v-.2c-.07-3 0-6.07.14-9.1.15-3.38.1-6.77 0-10.15l.05-6.42c0-2.32-.15-4.63-.27-6.95 0-.78-.22-1.57-.3-2.37a8.8 8.8 0 0 0-.81-2.61c-.73-.1-1.46-.17-2.18-.2l-5.67-.24h-1.2a32.06 32.06 0 0 1-3.66-.3 30.73 30.73 0 0 0-3.3-.33c-3.85 0-7.72-.15-11.56-.5l-8-.7c-2.68-.15-5.26 0-7.88-.24-2.26-.2-4.46-.6-6.72-.75-3.18 0-6.4-.05-9.58-.26-2.7-.25-5.36-.52-8.1-.6h1.85L98.9.57h-.84L97 .5l-2.8.02H89L87.4.5h1.52-9.23a6.42 6.42 0 0 0-.42.6 8.73 8.73 0 0 0-7 7.75q-.2 3.95-.58 7.87c-.1 1.1-.22 2.17-.23 3.26 0 1.55.13 3.08.23 4.64l.14 5.65zm98.58-7h0zM82.66 58h0-.56zm-82 54.47v1l.16 2.6V116l.05.77v-.27c0 .6.06 1.22.1 1.83L.9 121.4l-.06 2.2.2 6.8v.2l.06 1.13s0 .2.05.2 0 .13.05.14v1.2l.1 1.08v3.6l.06 2.82.08 2.06-.1 5.72c-.1 2.4 0 4.76.17 7.37.2 4.06 0 8.2-.16 12.2l-.24 7.13v1.9c0 2.26 0 4.6-.2 6.9a65.45 65.45 0 0 0 .1 9.6c.15 3.58.13 7.17.1 10.65v7.76a74.7 74.7 0 0 1-.12 4c0 1.1-.1 2.2-.12 3.3 0 1.34 0 2.68-.1 4 0 1-.07 2-.1 3-.1 5 3.23 9 7.9 9.46a9.61 9.61 0 0 0 6.16 1.78 5.49 5.49 0 0 0 .8-.06l.45.1.85.16a17.64 17.64 0 0 0 2.91.18H22c.8 0 1.36 0 1.92-.07h.38c.53 0 1.06-.07 1.6-.08l20.68 1.1c2.13.1 4.26.14 6.4.14h11l10.1.07h.76c1.54.07 3.07.2 4.6.32l3.73.27h.8l7.94.57c3.37.34 6.72.52 10.14.7l4.46.26c2.82.18 5.64.36 8.46.4h-.35l1.6.07c1.88.07 3.74.2 5.6.33 2.72.2 5.53.38 8.3.38h.5l4.76-.06 5.36-.06h1.5l9.08.2h2.7c1.9 0 3.78 0 5.67-.17 2.9-.2 5.5-.38 8.14-.38h4.27c2.6 0 4.75-.1 6.73-.28l2.38-.24c1.8-.18 3.58-.36 5.38-.44 2.88-.1 5.86-.22 8.8-.54a61.4 61.4 0 0 1 6.5-.35l2.57.12c2.1.1 4.22.22 6.34.22h1.7c.92 0 1.85-.06 2.78-.1l3.63-.12q.4 0 .8.1c.28 0 .55.07.83.1.82.08 1.64.1 2.46.1s1.92 0 2.87-.08l1.3-.05a18 18 0 0 0 4.76-1l1.44-.44c4.48-1.28 6.46-6.6 5.43-10.6a27.61 27.61 0 0 0 .1-3.86v-1.08a7.65 7.65 0 0 0 .38-1.32 31.59 31.59 0 0 0 .36-6.87c0-.5-.07-1-.1-1.46l-.06-.76.05-3.65.1-1.23a15.57 15.57 0 0 0 0-2.16v-1.08a21.92 21.92 0 0 1 .19-2.92l.07-.63a26.79 26.79 0 0 0-.33-6.45v-.56c0-1-.14-2.08-.25-3.1-.12-1.2-.24-2.4-.25-3.6 0-1 .07-1.9.1-2.83v-.16a63.47 63.47 0 0 0-.08-7.68c-.1-1.22-.15-2.4-.15-3.6l.08-1.34a45.68 45.68 0 0 0 .11-5.61 106.78 106.78 0 0 1-.18-5l.1-1.25c.07-.72.13-1.45.16-2.18.06-1.58.05-3.15 0-4.7v-2.53c0-1.25 0-2.5-.07-3.73l-.06-4.4c0-1.24.06-2.4.07-3.53l.3-6.48v-1.84l-.08.38c.07-.62.07-1.58.07-2.53v-2.3l.12-2.77V123c0-.6.07-1.18.12-1.76a33 33 0 0 0 .13-3.85 14.78 14.78 0 0 0-.58-3.16l-.1-.4-.94-4.18-.07-.36a4.46 4.46 0 0 0-.05-.82c-.2-1.33-.93-4.58-3.27-6.1l-.54-.35a7.94 7.94 0 0 0-3.57-1.51 3.38 3.38 0 0 1-1.18-.18 4.09 4.09 0 0 0-.85-.15 14.38 14.38 0 0 0-4.57-.57h-1.28a47.58 47.58 0 0 0-6 .49h-1.1c-1.6 0-3.2-.14-4.8-.33l-2.8-.25c-1.75-.1-3.5-.16-5.23-.16a83 83 0 0 0-8.78.46c-2.77.24-5.55.27-7.66.27H175.1c-2.48.08-5 .16-7.45.36a20.27 20.27 0 0 0-7 1.67 7.68 7.68 0 0 0-2 1.38l-.34.28a8.17 8.17 0 0 0-2.27 3.58l-.05.63a8.35 8.35 0 0 0-.24 4.21 13.22 13.22 0 0 0 .29 2.42l.16.75c0 .5 0 .88.05 1.25a19.67 19.67 0 0 0 .21 2.17l.05.85.33 4.24c0 .75 0 1.5.07 2.26 0 1 .07 2 .15 3 .18 2.14.46 4.23.78 6.34l-.28 1.17a48 48 0 0 0-1.48 8.92v2.06c0 .68.06 1.54 0 2.32a16.37 16.37 0 0 0 .06 2.1 17.51 17.51 0 0 1 .07 1.91l-.47 2.62c-2.56-.25-4.94-.32-7.32-.36h-.84c-1.5 0-3 .06-4.48.13l-1.9.07c-1 0-2.1.05-3.16.05-1.62 0-3.24 0-4.86.14s-3.24.17-4.86.17c-2.75 0-5.66-.13-9.42-.44-1.88-.15-3.75-.36-5.62-.57-3.34-.36-6.78-.74-10.18-.8s-6.9-.18-10.77-.45c-.73 0-1.45-.06-2.18-.06H88a6.65 6.65 0 0 0 0-1v-1.05c0-.35 0-.62.07-.93a11.89 11.89 0 0 0 .08-1.19 20.68 20.68 0 0 0-.36-3.33 50.21 50.21 0 0 1 .57-8.3c.22-1.6.4-3.18.56-4.8l.12-1.07a19.17 19.17 0 0 0 .17-3.3 29.87 29.87 0 0 0-1-5.8 14.07 14.07 0 0 1-.39-2.23c-.06-.75-.07-1.5-.07-2.25v-1.73a44.55 44.55 0 0 0-.74-6l-.15-.83-.14-.83a19.29 19.29 0 0 0-1.26-4.06c-1.38-3.33-5.37-5.08-8.6-5.08h-5.6c-3.2 0-5.6-.1-7.84-.32l-6.72-.7-1-.07c-2.2-.18-4.4-.36-6.6-.67l.76.16a55.18 55.18 0 0 0-8.42-.7h-1.16c-1.45 0-2.9.07-4.33.12l-5.17.14-20.52.7a11.29 11.29 0 0 0-3.72.78 8.31 8.31 0 0 0-5.37 5.41 19.38 19.38 0 0 0-.51 7.54z"/></svg>