<svg xmlns="http://www.w3.org/2000/svg" viewBox="0 0 365.1 187.9" xmlns:v="https://vecta.io/nano"><g fill="#fff"><path d="M116.5 161.3h0l.8-.1-.8.1zm-.2.1h0zm172.8-21.5l-.2.1 1.5 1.2c1.5 1.2 3.2 2.1 4.7 3.3h.1a4.32 4.32 0 0 0-3.1-5.1c-.3-.1-.7-.1-1-.1-.7 0-1.4.2-2 .6h0zm-52.9 35.4a4.26 4.26 0 0 0 6 .2l2.2-1.8c1.1-.7 2.3-1.3 3.5-1.8h-.1l-.4-.1-.7-.2h-.1.1l-.3-.1h-.1.3l-1.1-.3c-.6-.2-1.2-.3-1.8-.4l-.2-.1-.8-.1-.6-.1-.8-.1-2.5-.4c-.4-.1-.8-.1-1.2-.2s-.8-.1-1.2-.2l-.3-.1c-1.3 1.6-1.3 4.1.1 5.8h0zm10.6-3.7h0zm-85.5-68.1l-4.1 2.3c-1.8 1-3.7 1.8-5.5 2.6l-4.6 2.2c2.2-.3 4.4-.5 6.6-.5l3.9-.1h1.9l5.9.5.5.1c1.9-1.4 2.2-4.1.8-5.9-.8-1.1-2.1-1.7-3.4-1.7-.7 0-1.4.2-2 .5h0z"/><path d="M155.2 102.7c-3.5.2-6.9 0-10.4 0-3.7 0-7.4.1-11.1.3l-10.6.7c-3.8.3-7.6.7-11.3 1.4l-22 3.8c-3.7.6-7.4 1.3-11.1 2.2-3.9.9-7.7 2-11.6 2.9-2 .5-4 1.1-6 1.7s-4.2 1.4-6.3 2c-4 1.1-8.1 2.2-12.2 3.1-1.3.3-2.7.6-4 1s-2.5.8-3.7 1.3c-2.8 1-5.6 1.9-8.5 2.8s-5.6 1.5-8.3 2.4c-2.5.9-5 1.7-7.5 2.5-1.5.5-2.9 1-4.3 1.7s-2.7 1.5-4 2.4c-.3.2-.6.4-.8.6v.3c0 .5.1.9.1 1.4s0 .9.1 1.4 0 .8.1 1.2 0 .7 0 1l.1.7v-.2c0 .2.1.3.1.5s.1.3.1.5c1.3.8 2.9.9 4.2.1 1.7-1.1 3.4-2.1 5.3-2.9l5.5-1.8c2.1-.7 4.2-1.5 6.4-2.1 2.5-.7 4.9-1.3 7.4-2.1s4.9-1.6 7.3-2.5H38c1.7-.6 3.5-1.2 5.3-1.6l6.2-1.5 6.2-1.6 6.1-1.8c4-1.2 8-2.2 12.1-3.2l5.6-1.4c1.9-.5 3.8-.9 5.8-1.3 6.3-1.4 12.8-2.2 19.1-3.4 2.9-.6 5.9-1.1 8.8-1.6 2.7-.5 5.4-.8 8.2-1.1l10.2-.8c3.7-.2 7.4-.4 11.1-.4h1.3c.8-.2 1.6-.4 2.4-.5 2.4-.4 4.7-.6 7.1-.5 1.3 0 2.6-.1 3.9-.1h1.9c2 .1 4 .3 5.9.5l9.4 1c3.4.3 6.8.7 10.2 1.1l12.4 1.6 12.1 1.4 8.5 1.2 5 .9c1.6.3 3.4.7 5.1 1.1 3.8 1 7.6 2.4 11.4 3.3 3.5.8 7 1.8 10.5 2.8l5.1 1.6c1.8.6 3.6 1.1 5.4 1.7l.8.3 1.1.2c4.1.9 8.1 2.1 12.2 3.1 2.7.6 5.4 1.6 7.8 3 1.8 1.1 3.4 2.4 5 3.8l3.2 2.5c1.5 1.2 3.2 2.1 4.7 3.3l1.3 1c.6.3 1.2.5 1.8.8 1.2.6 2.4 1.2 3.6 1.9.5.3 1.1.6 1.6 1s1.1.5 1.6.8l3.3 1.8c1.4.8 2.8 1.4 4.2 2.1l-.5-.2c1.5.8 3 1.6 4.4 2.6 1.7 1.1 3.5 2 5.4 2.8.8.4 1.6.8 2.4 1.1 1.1.5 2.2 1.1 3.4 1.6 1.6.8 3.2 1.6 4.8 2.2s3.1 1 4.5 1.6c1.3.7 2.6 1.4 4 2 1 .4 2 .7 2.9 1.1l1.2.6c1 .6 2.1.8 3.3.6 2.3-.5 3.7-2.8 3.2-5.1h0c-.2-1.1-.9-2-1.9-2.6-1.1-.6-2.3-1.2-3.5-1.6-.8-.2-1.5-.5-2.2-.9-.5-.2-.9-.5-1.4-.8-.9-.5-1.9-.9-2.8-1.3s-1.9-.7-2.9-1-1.9-.7-2.9-1.1l-3.8-1.8-2.6-1.3c-1.2-.6-2.4-1.1-3.6-1.7-1.4-.7-2.7-1.5-4-2.3-1.6-1-3.3-1.9-5.1-2.8l1 .5c-1.4-.6-2.7-1.4-4-2.1s-2.5-1.4-3.8-2-2.5-1.4-3.7-2.1c-1.7-.9-3.6-1.7-5.4-2.5-.9-.4-1.8-.9-2.6-1.4s-1.9-1.1-2.8-1.6l-6.1-3.4c-1.8-1-3.7-2-5.6-2.9-1.6-.7-3.3-1.3-5-2s-3.4-1.6-5.1-2.3c-1.5-.7-3-1.2-4.5-1.9l.6.2c-1.9-.9-3.9-1.7-5.9-2.4-1.7-.7-3.6-1.1-5.4-1.7l-10-3c-1.9-.5-3.8-1-5.7-1.4s-3.7-1.1-5.6-1.6c-3.6-1.1-7.2-2.1-10.9-2.7-2.3-.4-4.6-.9-6.9-1.2-2-.3-4.1-.6-6.1-.8l-11.7-1.4c-4.2-.5-8.4-1.2-12.6-1.7l-11.6-1.3c-3.4-.3-6.8-.6-10.2-.7-.9 0-1.9-.1-2.8-.1-2.6 0-5.1.1-7.7.2l.5.3z"/><path d="M359.4 55.8c-1.1.3-2 .9-2.6 1.8a4.67 4.67 0 0 1-.5 1c-.2.7-.3 1.5-.1 2.2 0 .4.2.8.3 1.3v-.3l.1.7v.9c0 .5-.1 1-.1 1.5v1.4c0 .4 0 .9-.1 1.3 0 .5-.1 1-.1 1.5s-.1 1.2-.1 1.8l-.2 2.5c-.1.8-.4 1.8-.5 2.7-.1.6-.1 1.2-.2 1.8l-.3 2.5-.1 2.8c0 1-.1 1.9-.2 2.8v1.4c0 .5-.1 1-.1 1.4 0 1.1-.2 2.1-.2 3.2s-.1 2.1-.2 3.2c0 .5 0 1-.1 1.5s-.2 1.1-.2 1.6c0 .8-.1 1.7-.2 2.5a62.33 62.33 0 0 0-.9 10.6v5.6c-.1 2.5-.3 5.1-.7 7.6l-.3 2.1c-.3 1.4-.5 2.7-.6 4.1 0 1.1-.1 2.1-.2 3.2l-.5 6.4.1-.6-.5 3.6a18.7 18.7 0 0 0-.3 3.4c0 1.2-.1 2.4-.2 3.6l-.6 4.5c-.2 1.5 0 2.9-.1 4.3l-.1 3-.3-.3-1.5-1.2c-.6-.4-1.3-.7-2-1-1.4-.6-2.8-.9-4.2-1.4-2.2-.8-4.6.4-5.4 2.6s.4 4.6 2.6 5.4c.1 0 .2.1.2.1l4 1.4.3.2c.8.8 1.6 1.4 2.5 2l1.9.9c.2.3.4.5.6.8.4.4.9.8 1.4 1.2l.3.3c1.1 1.2 2.8 1.7 4.4 1.3.8-.2 1.5-.6 2.1-1.1.4-.3.7-.7.9-1.1.5-.9.8-2 .9-3.1l-.1-2.6c-.1-1.1 0-2.2 0-3.3v-6c0-.9 0-1.8.2-2.6l.3-2.6c.2-1.2.3-2.4.4-3.7 0-1.3.1-2.6.2-3.8l-.1.8.5-3.8c0 .3-.1.5-.1.8.4-2.2.6-4.4.6-6.6 0-1.1.1-2.1.2-3.2l.3-3.2.4-2.4.6-4.1.3-3.8c.1-1 .1-2 .1-3l-.1-2.7c-.1-3.3.1-6.6.5-9.9l.3-1.9c.1-.4.1-.9.1-1.4l.3-3.2c.1-.5.1-1 .1-1.5s.1-1 .2-1.5c.1-1.2 0-2.3.2-3.5.1-1 .2-2 .1-2.9 0-1 .2-2 .2-3l.1-2.8.2-2.4c.1-.5.2-.9.2-1.4 0-.3 0-.6.1-.9l.5-2.5.2-2.1.1-2.1c0-.7.1-1.4.1-2 0-.5.1-1 .1-1.6v-3.6c0-.7-.1-1.4-.2-2 0-.4-.1-.8-.2-1.2-.1-.3-.2-.6-.2-.9-.2-1.1-.9-2-1.9-2.6-.7-.4-1.5-.7-2.3-.7.1-.1-.2-.1-.6 0h0zM.8 34.3v1c0 .5.1 1 .1 1.5v1.8c0 .1 0 .3-.1.4v-.2c-.1.4-.1.8-.1 1.2v-.3c-.1 1-.1 2-.1 3l-.1 3.2v-.2.2c-.1.6-.1 1.2-.2 1.8l.1-.5c0 .3-.1.5-.1.8l-.1 3.8c0 .6-.1 1.2-.1 1.7s0 1-.1 1.6 0 1.2 0 1.8v6c0 .6 0 1.1.1 1.7l.2 2.1.2 3.5.3 3.4c0 1.1.2 2.2.2 3.4v3.3c0 .5 0 1.1.1 1.6s0 1 0 1.6l.2 6.7v10.1l-.1 3.2v6.4l-.1 7v6.7l.1 3.4.1 3c0 .5.1 1 .1 1.5s0 1 .1 1.5l.2 3.1c.1.5.1.9.1 1.4s0 .9.1 1.4c0 .4 0 .8.1 1.2s0 .7 0 1l.1.7v-.2a.9.9 0 0 0 .1.5c.1.3.1.5.2.7.1.3.2.5.2.8.9.4 1.8.5 2.7.3 1.1-.3 2-.9 2.6-1.9a4.54 4.54 0 0 0 .6-3.2c-.3-1.2-.4-2.4-.6-3.6-.1-1.2-.1-2.4-.1-3.5a40.28 40.28 0 0 0-.3-4.9l-.1-4.4.2-4.8a83.86 83.86 0 0 0 .6-10L8 98.3v-9.9c0-.7.1-1.5.2-2.2s.1-1.6.1-2.4L8 79.1c0-1.9.1-3.8.3-5.7.1-1.9.1-3.8-.1-5.7-.2-1.6-.2-3.2-.3-4.8-.1-1.9 0-3.8.1-5.7v-4l.3-4-.1-2.2c0-1.1 0-2.3-.2-3.4-.2-1.4-.7-2.6-1-4v-.2c0-.1 0-.2.1-.2.3-1.1.2-2.2-.3-3.2s-1.4-1.7-2.5-2.1c-.4-.1-.8-.2-1.2-.2a4.38 4.38 0 0 0-2.3.6h0z"/><path d="M195.2 0c-3.8 0-7.6 0-11.3.2-4.1.1-8.2.2-12.3.5l-12.8.8-24.9 1.4-24.6 1.6c-4.4.3-8.8.8-13.2 1.7-1.8.4-3.5.8-5.3 1.1s-3.3.4-4.9.7c-3.7.7-7.3 1.6-10.9 2.4-2 .5-4 1.2-6 1.6s-3.9.8-5.8 1.3l-5.6 1.4c-1.7.4-3.4.8-5.1 1.3s-3.3 1-4.9 1.6l-5.5 1.8c-3.4 1-6.9 1.9-10.4 2.5-1.8.4-3.7.8-5.5 1.3-1.6.4-3.2.8-4.8 1.3L16.9 26c-2 .7-3.9 1.5-5.9 2.3-1.3.5-2.5 1.2-3.7 1.8a42.65 42.65 0 0 0-4.9 3.4C1.5 34.1 1 35 .9 36c0 .3 0 .6.1.9s0 .4 0 .6c.2.7.5 1.4 1 1.9.8.8 1.9 1.3 3 1.4 1.1 0 2.2-.4 3-1.1.6-.5 1.2-.9 1.8-1.3 1.1-.7 2.3-1.4 3.4-1.9.7-.3 1.4-.6 2.2-.9l2.3-1 4.6-1.5c1.5-.5 3.4-1 5.1-1.4l5.5-1.3 5.7-1.2a105.06 105.06 0 0 0 10.9-3.3c1.6-.6 3.3-1.1 4.9-1.6s3.4-.8 5.1-1.3c3.8-1 7.6-1.8 11.4-2.6 2-.5 4-1.1 6-1.6l5.8-1.4 10-2c1.8-.3 3.6-.7 5.3-1.1 2-.4 4.1-.7 6.2-.9l1.7-.2c4-.4 8-.7 12-1 2.1-.1 4.2-.3 6.3-.4l5.9-.3 12.2-.7h.3c.5-.2 1-.3 1.4-.4.6-.1 1.2-.1 1.9-.1h-.2c.8 0 1.5-.1 2.3-.1s1.3-.1 2-.1c.4 0 .9 0 1.3.1l.3.1c.9-.1 1.9-.1 2.9-.1l6.9-.3c2-.1 4.1-.3 6.1-.4 4.1-.3 8.2-.5 12.4-.6 8-.2 16.1-.5 24.2-.1 2.1.1 4.3.3 6.4.5s4.3.3 6.5.6l12.5 1.7 11.2 2.1c2.2.5 4.4.8 6.5 1.4s4.1 1 6.1 1.4 4.1 1 6.2 1.4 4.3 1 6.5 1.6c4 1.1 8 2.4 11.9 3.6l11.8 3.6c1.9.6 3.9 1.1 5.8 1.8l4.9 1.9c1.6.6 3.2 1.1 4.8 1.6 1 .3 1.9.6 2.8 1s1.9.8 2.9 1.2 2 .7 3.1 1.1c.9.3 1.7.7 2.5 1l4.2 1.8 2.8 1.3c2.7 1.3 5.3 2.7 7.9 4.1 1.1.6 2.2 1.1 3.3 1.7 1.2.7 2.4 1.5 3.6 2.3 1 .7 2.1 1.3 3.2 1.9.8.5 1.7 1.1 2.4 1.7.8.6 1.6 1.1 2.4 1.6.7.5 1.5.9 2.2 1.4l.2.2c1 .9 2 1.6 3.1 2.3.8.5 1.6 1.1 2.4 1.8l-.9-.7c.5.5 1.1.9 1.7 1.3l.4.3c.1.1.3.3.4.5.4.5.9.9 1.4 1.2 2 1.3 4.6.7 5.9-1.2 1.2-1.9.8-4.4-1-5.7l-.3-.4c-.5-.5-1-.9-1.6-1.3l.8.7c-.6-.5-1.3-1-1.9-1.6l.5.5c-.8-.6-1.6-1.2-2.4-1.9s-1.7-1.1-2.5-1.7l-.2-.2a11.51 11.51 0 0 0-1.7-1.4c-.4-.3-.9-.6-1.4-.9-.9-.6-1.8-1.2-2.8-1.8s-1.6-1.2-2.5-1.7c-1.2-.7-2.4-1.3-3.5-2.1s-2.5-1.7-3.8-2.4-2.6-1.3-3.9-2c-1.5-.7-2.8-1.6-4.3-2.3s-3-1.5-4.6-2.2l.7.3c-3.3-1.5-6.6-3-10-4.3-1-.4-2.1-.7-3.1-1.1l-2.9-1.2c-1.7-.7-3.6-1.2-5.4-1.8-3.4-1.1-6.7-2.6-10.2-3.6l-23.6-7.2-6.3-1.8c-2.1-.6-4.3-1-6.5-1.5-2-.5-4-.9-6-1.4s-4.3-1.1-6.4-1.5c-4.1-.8-8.2-1.7-12.4-2.3l-7.2-1.2-5.9-.8c-2-.3-4.2-.6-6.3-.8l-6.6-.6c-3.9-.5-8-.6-12.1-.6h-.6zm157.1 166.8l-5.9.5.5-.1-5.6.6-2.7.4-2.6.4-5.3 1.1-2.8.5-2.8.4-6.4 1.2-5.5 1-6 1.4-5.5 1.3c-1.6.5-3.3.9-4.9 1.2l-4.5.9-8 1.8c-2.3.5-3.7 2.8-3.2 5.1s2.8 3.7 5.1 3.2h0l4-1 10.4-2.2 5.9-1.5 5.4-1.4c1.8-.5 3.6-.8 5.5-1.2l6.5-1.2a58.14 58.14 0 0 1 5.8-.9c1.5-.2 3-.6 4.4-.9l3.9-.8 4-.6 3.2-.5 2.5-.2h-.5l4.7-.3c1.1 0 2.2-.4 3-1.1a4.26 4.26 0 0 0 .2-6c-.7-.8-1.7-1.3-2.8-1.4v.3zM241 114.6c-1.6.3-3.2.8-4.7 1.5l-4.4 1.4c-3.3 1-6.4 2.3-9.6 3.7l.3-.1-5.5 2.2c-1.8.7-3.8 1.4-5.7 2.2l1.1-.5-5.1 2 .5-.2c-1.2.5-2.4.9-3.6 1.4-2.9 1.1-5.7 2.2-8.5 3.5-1.3.6-2.5 1.3-3.8 1.9s-2.5 1.2-3.8 1.7c-2.1.8-4.2 1.7-6.4 2.4-2.1.7-4.5 1.4-6.7 2.1-4.1 1.3-8.1 2.9-12.2 4.5l-11.1 4.1c-2.1.7-4.2 1.6-6.3 2.3s-3.9 1.4-5.9 2c-4.5 1.5-9.1 2.9-13.6 4.3-4.8 1.5-9.5 3-14.2 4.7l-4.1 1.5c-1.4.5-2.6 1.1-3.9 1.6-1.9.7-3.7 1.4-5.7 2-1.9.6-4 1.1-6 1.8l-4.7 1.5c-2.1.6-4.2 1.4-6.2 2.3-1.2.6-2 1.7-2.4 3-.8 2.7.6 5.5 3.2 6.3h0c1.2.4 2.5.2 3.7-.4l.7-.3c1.6-.6 3.3-1.1 5-1.6 2-.5 4-1.3 6-1.9 2.4-.6 4.8-1.4 7.1-2.3s4.5-1.8 6.8-2.8c4.3-1.6 8.6-3 12.9-4.5 2.4-.8 4.8-1.5 7.3-2.2 2.4-.7 4.5-1.5 6.8-2.2 4.2-1.3 8.4-2.7 12.5-4.2 3.8-1.5 7.7-2.7 11.5-4.2 2.3-.8 4.4-1.7 6.6-2.6 2.6-1 5.1-2 7.7-2.8l4.7-1.4c1.9-.6 3.8-1.3 5.7-2s3.9-1.5 5.8-2.3c1.6-.6 3.2-1.3 4.7-2.1 2.8-1.5 5.8-2.8 8.8-3.9l2.8-1.1 2.4-.9 4.8-1.9-.9.3 10.2-4-.7.3 5.5-2.2c1.8-.7 3.9-1.3 5.9-1.9 2.3-.7 4.5-1.9 6.9-2.2 1.2-.3 2.3-1.1 3-2.2 1.4-2.4.8-5.5-1.4-7h0c-.8-.5-1.7-.8-2.6-.8-.5.1-.9.1-1.2.2h0zm-16.2 16.3l-.4.1.4-.1zm-14.7 5.8l-.6.2.6-.2zm-41.8 16.2l-.5.2.5-.2zm-32.6-49.8l-9.1 3.2-6.1 2.2-3.4 1.1-3.7 1.3c-1.2.4-2.3.9-3.5 1.4l-3.3 1.4-7.8 2.8c-2.6 1-5.2 1.8-7.8 2.5s-5.4 1.9-8 2.9l-3.2 1.2-2.9 1.1c-1.5.6-3.1 1-4.7 1.5-2.2.6-4.2 1.4-6.2 2.2l-5.9 2.3 1-.4-3.7 1.5-3.6 1.6-6.9 2.3-9.4 2.8-4.6 1.4c-1.5.4-2.9.9-4.2 1.4-1.4.5-2.8.8-4.2 1.1l-4.5.8c-2 .2-4 .2-6 0-.5-.1-1.1-.2-1.6-.4l-1.4-.9-1.8-3.9c-1.1-2.1-3.7-2.9-5.7-1.8a4.62 4.62 0 0 0-1.7 1.7v1c0 .3 0 .8.1 1.2s0 .7 0 1l.1.7v-.2a.9.9 0 0 0 .1.5c.1.3.1.5.2.7.1.3.2.6.2.9l.5 1c.4 1 .9 1.9 1.6 2.7.5.6 1.2 1.1 1.8 1.6l1.4.9a13.9 13.9 0 0 0 2.8 1.2l3.1.6c1.7.2 3.4.3 5.1.1 4.3-.3 8.5-1.1 12.5-2.5 1.9-.7 3.8-1.2 5.7-1.8l6.4-1.9c2.2-.6 4-1.1 6-1.8 1.7-.6 3.4-1.1 5.1-1.7 3.2-1 6.3-2.6 9.4-3.8l-1 .4c1.4-.5 2.7-1.1 4.1-1.6l3.4-1.3c3.2-1.1 6.4-2 9.6-3.2l-.5.2.6-.2.4-.1h-.1l2.2-.9 2.4-.9 3.9-1.5c2.3-.8 4.6-1.6 7-2.3s4.8-1.6 7.2-2.5 5-1.7 7.4-2.7l5.6-2.4.6-.2c2.4-.9 4.9-1.6 7.4-2.5l7.7-2.8c2-.7 3.9-1.4 5.9-2 1.1-.3 2-.9 2.6-1.8.6-1 .8-2.1.6-3.3-.5-1.9-2.1-3.2-4.1-3.3-.4 0-.8.1-1.1.2h0zm-57.9 20.8l-.3.1.3-.1zm-.9.3h0zm-10.3 12.5c-.2.1-.3.1-.5.2.2-.1.4-.1.5-.2z"/><path d="M1.9 140.8v.3-.3zm236.3-25.6c-1 .6-1.6 1.6-1.9 2.7-.2 1.1 0 2.2.6 3.2l.7.9c.6.5 1.3.9 2 1l4.9 1.6 6.1 1.8.9.3.5.2 6.8 2.3c2.2.8 4.4 1.9 6.6 2.8 1.1.5 2.3.8 3.4 1.1l1.9.6c2.1.8 4.2 1.8 6.2 2.8l6.5 3.1 6.8 3.4 3.4 1.8 3.2 1.5 8.4 3.7 4.5 2.5 3.3 1.7 3.5 1.9 4.9 2.7 4.1 2.1 3.8 1.9 5.4 3 4 2.2 1.8.8 1.9 1 1.7.8c.3.2.6.3.9.5.9.4 1.9.6 2.9.6 1.1 0 2.2-.6 2.9-1.4 1.6-1.7 1.4-4.4-.3-6h0c-.5-.5-1.2-.8-1.9-.9a11.94 11.94 0 0 0-1.6-.8c-.8-.3-1.5-.8-2.3-1.2l-2.2-1c-.7-.3-1.6-.8-2.4-1.2l-6.5-3.7c-1.2-.7-2.6-1.2-3.8-1.9l-4-2.1-5-2.8-3.5-1.9c-1.1-.7-2.3-1.1-3.4-1.7l-4.2-2.4c-2.8-1.5-5.8-2.5-8.7-3.9l-6.6-3.3c-2.1-1.2-4.4-2.2-6.6-3.3l-6.4-3.1-6-2.7c-2-.8-4.1-1.5-6.2-2.1l-6.7-2.8c-1.8-.7-3.7-1.2-5.6-1.8l-2.9-1 1 .4-2-.7.3.1c-4.1-1.4-8.2-2.4-12.3-3.8-.3-.1-.5-.1-.8-.1-.5-.2-1.4.1-2 .6h0zM348.3 163h0z"/><path d="M253.5 124.3c-.4.1-.9.3-1.3.4l-.8.3-1.7.7c-.5.2-1 .4-1.5.7s-1.1.5-1.7.7l-2.9 1.1-2.8 1.2-8 3.2-.7.3-14.2 5.4-4.8 1.9-4 1.4-4.4 1.6-8.2 3.6-7.5 3.4-6.8 2.6-6.7 2.7-2.9 1-3.1 1.1-6.7 2.3c-.4.1-.7.3-.9.6s-.3.8-.2 1.1c.2.8 1 1.3 1.8 1.1h0l8.9-3.1 4.5-1.5c1.5-.5 2.9-1.1 4.3-1.7l5-2.1 4.5-1.6 4.1-1.8c1.3-.7 2.9-1.4 4.3-2l4-1.8 4.4-1.9-.4.1 8.4-3 8.2-3.2-.4.1 8.3-3.2h-.1l.1-.1.2-.1-.2.1 1.6-.6h.1l4.3-1.7 4.1-1.6 2.8-1.2 3-1.2 3.1-1.3 3.2-1.3h.2c.8-.1 1.4-.9 1.3-1.7s-.9-1.4-1.7-1.3c0 .3-.1.3-.1.3h0zm.4 3h-.1.1zm-20.8 5.3l-.2.1.2-.1zm-.3.1h-.1.1zm-43.9 17.5l-.3.1.3-.1zm42.8-14h0zm32.4-5.9a30.9 30.9 0 0 1-3.2 1.4l-3.2 1.3-6.4 2.8-1 .4h.1l-8.8 3.5-4.2 1.9-4.2 1.6c-1.4.5-2.8 1.2-4.2 1.8l-4.4 1.8-4.1 1.6-4.1 1.8-1.2.5-4.4 1.6-4.3 1.6-8.9 3.7-4.4 1.9-2 .9-2.2 1-5.3 2.3a1.27 1.27 0 0 0-.7.9c-.3.8.2 1.6 1 1.9h0c.4.1.8.1 1.1-.1l4.7-2 4.2-1.9 2.1-.9 6.6-3c1.5-.7 2.8-1.1 4.2-1.7l-.4.1 6.2-2.3 4.4-1.6 4.3-1.8 2.1-.8c.7-.2 1.4-.5 2-.8l4.3-1.8 4.2-1.8 4.2-1.6c1.4-.5 2.9-1.3 4.3-1.9l4.3-1.8 4.1-1.6-.2.1 1.3-.5-.1.1 7-3 3.2-1.3 1.7-.7 1.8-.8c.7-.4 1-1.3.6-2-.2-.5-.8-.8-1.3-.8-.3-.1-.6-.1-.8 0h0zm-48.7 20.2h-.1.1zm-.2.1h-.1.1zm60-15.8l-2.5 1.1-2.7 1.2-5.1 2.2-4.4 1.7-2 .9c-.6.3-1.4.6-2.1.9l-3.9 1.9-2.1 1-2.1.9-4.3 1.9-6.6 2.7-2.2 1-4.2 2-4.4 2-4.5 1.9-4.3 1.8c-.8.3-1.5.6-2.3 1l-5.8 2.9-4.1 2.2c-.7.4-1 1.3-.6 2s1.3 1 2 .6l8.4-4.4 2.2-1 2.3-1 2.1-.9 2.2-.9 4.6-1.9 4.3-1.9 4.1-1.9 4.4-1.9 4.4-1.8 6.4-2.9 2-1 4.1-1.9 3.3-1.5c1.1-.5 2.2-.9 3.3-1.3s2-.7 2.9-1.2 2-.9 3-1.3 1.9-.9 2.8-1.3l2.8-1.2c.7-.4 1-1.3.6-2a1.27 1.27 0 0 0-.9-.7c-.1 0-.3-.1-.4-.1-.2.1-.5.1-.7.2h0zm11.8 3.7l-4.3 1.9c-.7.4-1.4.7-2.1 1l-2.1 1-4.3 1.9c-.7.3-1.3.7-2 1s-1.4.7-2.1 1.1l-4.4 2-4.3 1.9-4.5 1.9-4.3 1.9-8.8 4.1-4.3 2.2-4.3 2.1-4.8 2.3-2.5 1.1-2.7 1.3c-.7.4-1 1.3-.5 2.1.4.7 1.2.9 1.9.6l2.5-1.2 2-.9c1.5-.6 3-1.4 4.4-2.1l8.5-4.3c1.4-.8 2.9-1.5 4.4-2.2l4.5-2 4.4-2 4.2-1.8 9.1-4c.7-.3 1.3-.7 2-1a22.56 22.56 0 0 0 2.2-1.1l4.1-1.9c.8-.3 1.5-.6 2.3-1l2.4-1.2 4.9-2.2c.7-.4 1-1.3.6-2-.3-.5-.8-.8-1.3-.8l-.8.3z"/><path d="M297.2 145.2l-4.3 2.1-4.1 2-4.3 2.2-4.4 1.9-1.8.7h.1l-4.5 1.7c-1.5.6-3 1.4-4.5 2.1l-8.3 4.1-4.1 1.9-4.4 2.1-4.3 2-2.2 1c-.7.3-1.3.7-2 1.1l-.7.4c-.3.2-.6.5-.7.9s-.1.8.1 1.1c.4.7 1.3 1 2 .6l2.1-1.2c.7-.4 1.4-.7 2.2-1l8.6-4.1 4.4-2 3.8-1.9 3.9-2 4.1-2 4-1.6 4.4-1.6 2.2-.9a22.56 22.56 0 0 0 2.2-1.1l4-2.1 8-3.9c.7-.4 1-1.3.6-2-.3-.5-.8-.8-1.3-.8-.3.1-.5.1-.8.3h0zm12.7 5.6l-2.8 1.5-2.9 1.3-6 2.4.4-.1-9.1 3.6c-3 1.3-5.7 2.8-8.5 4.2l-8.9 4.4-8.6 4.2-2.6 1.1c-.9.3-1.9.9-2.8 1.3-.7.4-1 1.3-.6 2s1.3 1 2 .6l2.4-1.1c.8-.4 1.4-.6 2.1-.9l4.5-2.1 4.2-2 4.6-2.3 8.7-4.3c2.9-1.5 5.7-2.8 8.6-3.9l3.4-1.4-.4.1 3.9-1.5 3.2-1.3 3.4-1.5c1.1-.5 2.1-1.1 3.1-1.7.7-.4 1-1.3.6-2-.3-.7-1.2-1-1.9-.6h0zm9.4 7.6l-5.1 2.1-5 2c-1.7.7-3.1 1-4.6 1.6l-4.2 1.9c-1.4.7-3 1.4-4.6 2l-8.8 3.6c-1.5.6-2.9 1.3-4.3 2l-4.3 2.1-4.3 2.2c-.6.3-1.2.5-1.9.8-.4.1-.9.3-1.3.4l-1.8.4c-.8.1-1.4.9-1.3 1.7s.9 1.4 1.7 1.3h.2c.8-.2 1.6-.3 2.5-.6l2.5-.9c1.5-.6 2.9-1.4 4.2-2.1l4.4-2.2 4.4-2.1 8.8-3.6 10.4-4.5 3.4-1.2 3.5-1.4 6.8-2.8c.7-.4 1-1.3.6-2-.3-.5-.8-.8-1.3-.8-.2 0-.4.1-.6.1h0zm18-98.8c-.4.2-.8.6-.9 1-.2.4-.1.9.1 1.3s.6.7 1 .9l3.4 1.7 4.6 2.5 4.6 3 4.4 3.2c.7.5 1.3 1.1 2 1.6l2.1 1.5c.1.1.2.1.3.2.4.3.8.4 1.3.3.9-.2 1.6-1.1 1.4-2-.1-.5-.4-.9-.7-1.1-.7-.6-1.4-1-2.1-1.6l-2.1-1.7-4.3-3.2-4.5-2.9-4.7-2.6-.9-.4h.1l-3.5-1.8c-.2-.1-.3-.1-.5-.1-.6 0-.9.1-1.1.2h0zm2.4 4.4h0zm-6.3 6.8c-.5.8-.3 1.9.5 2.4h0l3.2 2c1.1.7 2.2 1.2 3.4 1.8l6.1 2.9c1.4.7 2.8 1.5 4.1 2.4l2.1 1.4c.8.5 1.5 1.1 2.2 1.7.8.5 1.9.3 2.4-.5s.3-1.9-.5-2.4l-1.8-1.4-1.8-1.3-3.7-2.3-4.2-2.1-3.8-1.8c-.9-.4-1.7-.9-2.5-1.4l-3.1-1.9a1.69 1.69 0 0 0-1-.3c-.8 0-1.3.3-1.6.8h0zm8.2 2.9l.1.1-.1-.1zm4.7 6h0zm-6.6 9.1c-.3.9.2 1.9 1.1 2.2l3.7 1.3a15.95 15.95 0 0 1 2.7 1.2l1.6.9 1.8 1.2c.8.6 1.9.4 2.5-.5.6-.8.4-1.9-.5-2.4-.8-.4-1.5-1-2.2-1.4l-2.7-1.4c-1.8-.8-3.7-1.5-5.7-2.1-.9-.4-1.9.1-2.3 1h0zm-6.8 21.2c-.3.9.2 1.9 1.1 2.2l5.4 2.5h-.1l.8.4h-.1c2.1 1 4 2.3 6 3.5l3 1.8c.5.3.9.6 1.4.8l2 .9c.4.2.9.1 1.3-.1s.8-.6.9-1c.2-.4.1-.9-.1-1.3s-.6-.7-1-.9l-1.2-.6-5.3-3.2-6.1-3.4.4.2c-2.1-1.1-4.2-2-6.3-2.9-.2-.1-.4-.1-.6-.1-.6.1-1.3.6-1.5 1.2h0zm7.2 5l.3.2-.3-.2zm-2.8 7.6c-.5.8-.3 1.9.5 2.4l2.9 2.1c1 .7 1.8 1.2 2.8 1.7l6.3 3.7c.8.6 1.9.4 2.5-.4s.4-1.9-.5-2.4l-6.2-3.7-2.8-1.8-3-2.1a1.69 1.69 0 0 0-1-.3c-.7 0-1.2.3-1.5.8h0zm-319-76.2c-2 .6-3.9 1.4-5.8 2.3l-5.2 2.9h.1l-.1.1-.2.1.3-.2c-.1.1-.3.1-.4.2h0l-1.2.7c-.4.3-.6.7-.6 1.2-.1 1 .6 1.8 1.6 1.9.5 0 .9-.1 1.3-.4.2-.2.5-.3.8-.5l.1-.1.5-.3 4.7-2.6c1.9-.9 3.8-1.6 5.8-2.3.9-.4 1.3-1.4.9-2.3-.2-.4-.5-.8-1-.9-.2-.1-.4-.1-.6-.1-.4.2-.7.3-1 .3h0zM6.7 52l.2-.1-.2.1zm.6-.4h0zm20.5 3C24.4 56 21 57.4 17.6 59S11 62.5 8 64.7c-.5.4-1.1.8-1.6 1.2s-1.2.9-1.8 1.3c-.4.3-.6.7-.6 1.2-.1.5.1.9.4 1.3s.7.6 1.2.6.9-.1 1.3-.4c.6-.4 1.2-.9 1.8-1.3s1.1-.8 1.6-1.2l3.6-2.4c2.4-1.4 4.8-2.6 7.3-3.8 2.6-1.2 5.4-2.4 8.1-3.5.9-.4 1.3-1.4.9-2.3a1.78 1.78 0 0 0-1.6-1c-.3.1-.6.1-.8.2h0zM13.6 65.1l-.2.1.2-.1zm7.5 9.6L17.2 76l-3.3 1.7c-1.2.7-2.3 1.5-3.4 2.3l-2.7 1.8c-.5.3-1 .5-1.6.8-.9.4-1.3 1.4-.9 2.3s1.4 1.3 2.3.9l2.3-1.2 1.9-1.2 1.9-1.3c.7-.4 1.2-.8 1.8-1.2 1-.6 2-1.1 3-1.5l4-1.4c.4-.2.8-.5.9-1 .2-.4.2-.9 0-1.3s-.6-.8-1-.9c-.2-.1-.4-.1-.6-.1-.1-.1-.4-.1-.7 0h0zm.7 16.9L16 93.9c-2 .7-4 1.7-5.8 2.8-.4.3-.6.7-.6 1.2s.1.9.4 1.3.7.6 1.2.6.9-.1 1.3-.4l.1-.1 4.9-2.2 5.8-2.3c.9-.4 1.3-1.4.9-2.3a1.78 1.78 0 0 0-1.6-1c-.4 0-.6 0-.8.1h0zM32.9 98l-3.1.9c-1.2.4-2.3.9-3.4 1.5-1.7.8-3.4 1.8-5 2.7-3.3 1.7-6.5 3.6-9.6 5.6-.7.5-1.4 1-2.1 1.4-.8.6-.9 1.7-.3 2.5s1.7.9 2.5.3h0a77.59 77.59 0 0 1 4.7-3.2l6.9-3.9c1.2-.7 2.4-1.3 3.6-1.9l1.8-.9c.6-.3 1-.5 1.5-.7.4-.2.8-.3 1.2-.4.6-.2 1.3-.3 1.9-.5.5-.1.9-.3 1.2-.7s.4-.8.3-1.3-.3-.9-.7-1.2a1.69 1.69 0 0 0-1-.3c-.2.1-.3.1-.4.1h0z"/><path d="M76.1 70.1l-3.9-22.3c-.1-.5.1-.8.6-.9l4.3-.7c.5-.1.8.2.9.6l3.8 22c.9 5.4 4.2 7.6 8.5 6.9s6.6-3.9 5.7-9.3l-3.8-22c-.1-.5.2-.8.6-.9l4.3-.7c.5-.1.8.2.9.6l3.9 22.3c1.5 8.8-2.9 14.4-10.5 15.7-7.7 1.3-13.8-2.5-15.3-11.3zm34.9 6.8L109 53c0-.5.2-.8.7-.8l3.9-.3c.5 0 .7.1.8.8l.5 3.1c1.2-2.7 3.6-4.9 7.6-5.2 5.4-.5 9.5 2.9 10.1 9.6l1.3 14.8c0 .5-.2.8-.7.8l-4.1.4c-.5 0-.8-.2-.8-.7l-1.2-13.8c-.3-4-2.5-6.1-6.1-5.8s-5.9 2.8-5.5 6.8l1.2 13.8c0 .5-.2.8-.7.8l-4.1.4c-.5-.1-.8-.4-.9-.8zm28.9-4.9c-.3-.4-.3-.9 0-1.4l1.3-1.9c.4-.5.8-.5 1.2-.1 1.9 1.6 3.7 2.6 6.1 2.6 2.3 0 3.9-1 3.9-3.1 0-1.8-1.2-2.6-3.3-3.5l-3.1-1.2c-3.2-1.3-5.7-3.2-5.8-6.8-.1-4.6 3.8-7.3 8.3-7.4 3.1 0 6.1 1.2 8.1 3.6.3.4.3.8 0 1.1l-1.6 1.9c-.4.5-.8.4-1.2 0-1.6-1.5-3.2-2.2-4.9-2.2-2 0-3.3 1-3.3 2.8s1.4 2.6 3.4 3.3l3.1 1.2c3.3 1.3 5.9 3.3 6 7.2 0 5-4.2 7.7-9.1 7.7-4.2.2-7.3-1.7-9.1-3.8zm23.6 12.3l2.1-33.7c0-.5.3-.8.8-.7l3.8.2c.5 0 .7.4.7.8l-.1 3.4c1.9-2.9 5.1-4.5 9.3-4.3 7.3.4 11.9 6.6 11.4 14.1-.5 7.6-5.8 13-13.1 12.6-3.9-.2-6.8-2.1-8.5-4.9l-.8 12.9c0 .5-.3.8-.8.7l-4.2-.3c-.4-.1-.7-.4-.6-.8zm22.4-20.6c.3-4.9-2.8-8.4-7.4-8.7-4.5-.3-7.9 2.9-8.2 7.8s2.7 8.3 7.2 8.6c4.6.3 8.1-2.7 8.4-7.7zm10.4 13.2l4.3-35.4c.1-.5.4-.7.8-.7l4.1.5c.5.1.7.4.6.9l-4.3 35.4c-.1.5-.4.7-.8.7l-4.1-.5c-.4-.1-.6-.5-.6-.9zm13.5-10.6c1.4-7.4 7.3-12.2 14.5-10.9 4.1.8 6.8 3.1 8 6.4l.7-3.4c.1-.5.4-.7.9-.6l3.7.7c.5.1.7.4.6.9l-4.3 23.5c-.1.5-.4.7-.9.6l-3.7-.7c-.5-.1-.7-.4-.6-.9l.5-3.3c-2.3 2.6-5.6 3.8-9.7 3.1-7.3-1.3-11.1-7.9-9.7-15.4zm20.7 3.9c.9-4.9-1.6-8.7-6.1-9.5s-8.4 1.8-9.3 6.7 1.8 8.7 6.3 9.5c4.5.7 8.2-1.9 9.1-6.7zm10 11.6c-.2-.4-.1-.9.4-1.3l1.8-1.5c.5-.4.9-.2 1.2.2 1.4 2 2.9 3.6 5.2 4.1 2.2.6 4 0 4.5-1.9.4-1.7-.5-2.9-2.3-4.2l-2.7-2c-2.8-2.1-4.6-4.7-3.7-8.1 1.2-4.4 5.6-6.1 10-4.9 3 .8 5.5 2.8 6.8 5.6.2.4.1.8-.3 1l-2 1.5c-.5.3-.9.2-1.2-.3-1.2-1.9-2.5-3-4.1-3.4-1.9-.5-3.5.1-3.9 1.8s.6 2.9 2.4 4.1l2.7 2c2.8 2.1 4.8 4.8 3.8 8.5-1.3 4.8-6.1 6.3-10.8 5-4.2-1.1-6.7-3.7-7.8-6.2zm49 2.1L284.7 98c-.2.4-.5.6-1 .5l-3.9-1.3c-.4-.2-.6-.5-.4-1l4.4-13.1c1.3-3.8.1-6.6-3.2-7.7-3.4-1.2-6.5.2-7.8 4l-4.4 13.1c-.1.4-.5.7-.9.5l-3.9-1.3c-.4-.2-.6-.5-.4-1L274.6 57c.1-.4.5-.7.9-.5l3.9 1.3c.4.2.6.5.4 1L275 72.7c2.2-2 5.3-3 9.1-1.8 5.1 1.8 7.6 6.6 5.4 13z" enable-background="new"/></g></svg>