<?xml version="1.0" encoding="utf-8"?>
<!-- Generator: Adobe Illustrator 24.1.3, SVG Export Plug-In . SVG Version: 6.00 Build 0)  -->
<svg version="1.1" id="Layer_1" xmlns="http://www.w3.org/2000/svg" xmlns:xlink="http://www.w3.org/1999/xlink" x="0px" y="0px"
	 viewBox="0 0 365.1 187.9" style="enable-background:new 0 0 365.1 187.9;" xml:space="preserve">
<style type="text/css">
	.st0{fill:#FFFFFF;}
</style>
<path class="st0" d="M76,48c0.1,0,0.2-0.1,0.2-0.1c-0.5-0.4-1-0.8-1.6-1.2c-1.5-1.2-3.2-2.1-4.7-3.3l-0.1-0.1
	c-0.6,2.3,0.8,4.5,3.1,5.1c0.3,0.1,0.7,0.1,1,0.1C74.7,48.5,75.4,48.3,76,48z"/>
<path class="st0" d="M203.8,84.4c1.4-0.7,2.7-1.5,4.1-2.3c1.8-1,3.7-1.8,5.5-2.6c1.6-0.7,3.1-1.4,4.6-2.1c-2.2,0.3-4.4,0.5-6.6,0.5
	c-1.3,0-2.6,0-3.9,0c-0.6,0-1.3,0-1.9,0c-2-0.1-4-0.3-5.9-0.5h-0.5c-1.9,1.4-2.2,4.1-0.8,5.9c0.8,1.1,2.1,1.7,3.4,1.7
	C202.6,84.9,203.2,84.8,203.8,84.4L203.8,84.4z"/>
<path class="st0" d="M209.9,85.2c3.5-0.2,6.9,0,10.4,0c3.7,0,7.4-0.1,11.1-0.3c3.5-0.2,7-0.4,10.6-0.7c3.8-0.3,7.6-0.7,11.3-1.4
	c7.3-1.3,14.7-2.6,22-3.8c3.7-0.6,7.4-1.3,11.1-2.2c3.9-0.9,7.7-2,11.6-2.9c2-0.5,4-1,6-1.7s4.2-1.3,6.3-2c4-1.1,8.1-2.2,12.2-3.1
	c1.3-0.3,2.7-0.6,4-1s2.5-0.8,3.7-1.3c2.8-1,5.6-1.9,8.5-2.8s5.6-1.5,8.3-2.4c2.5-0.9,5-1.7,7.5-2.5c1.5-0.5,2.9-1,4.3-1.7
	c1.4-0.7,2.7-1.5,4-2.3c0.3-0.2,0.6-0.4,0.8-0.6c0-0.1,0-0.2,0-0.3c-0.1-0.5-0.1-0.9-0.1-1.4c0-0.5,0-0.9-0.1-1.4s0-0.8-0.1-1.2
	s0-0.7,0-1s-0.1-0.5-0.1-0.7v0.2c0-0.2-0.1-0.3-0.1-0.5s-0.1-0.3-0.1-0.5c-1.3-0.8-2.9-0.9-4.2-0.2c-1.7,1.1-3.4,2.1-5.3,2.9
	c-1.8,0.7-3.6,1.2-5.5,1.8c-2.1,0.7-4.2,1.5-6.4,2.1c-2.5,0.7-4.9,1.3-7.4,2.1s-4.8,1.7-7.2,2.6l0.1-0.1c-1.7,0.6-3.5,1.2-5.3,1.6
	l-6.2,1.5l-6.1,1.6c-2.1,0.5-4.1,1.2-6.1,1.9c-4,1.2-8,2.2-12.1,3.2c-1.9,0.5-3.8,1-5.6,1.4s-3.8,0.9-5.8,1.3
	c-6.3,1.4-12.8,2.2-19.1,3.4c-2.9,0.6-5.9,1.1-8.8,1.6c-2.7,0.5-5.4,0.8-8.2,1.1c-3.4,0.3-6.8,0.6-10.2,0.7
	c-3.7,0.2-7.4,0.4-11.1,0.4H221c-0.8,0.2-1.6,0.4-2.4,0.5c-2.4,0.4-4.7,0.6-7.1,0.6c-1.3,0-2.6,0-3.9,0c-0.6,0-1.2,0-1.9,0
	c-2-0.1-4-0.3-5.9-0.5c-3.2-0.3-6.3-0.6-9.4-1c-3.4-0.3-6.8-0.7-10.2-1.1c-4.1-0.5-8.2-1.1-12.4-1.6s-8.1-0.9-12.1-1.4
	c-2.9-0.3-5.7-0.8-8.5-1.2c-1.7-0.3-3.4-0.6-5-0.9c-1.7-0.3-3.4-0.6-5.1-1c-3.8-1-7.6-2.4-11.4-3.3c-3.6-0.8-7-1.8-10.5-2.8
	l-5.1-1.6c-1.8-0.6-3.6-1.1-5.4-1.7l-0.8-0.3l-1.1-0.2c-4.1-0.9-8.1-2.1-12.2-3.1c-2.7-0.6-5.4-1.6-7.8-3c-1.8-1.1-3.4-2.4-5-3.8
	c-1-0.8-2.1-1.6-3.2-2.5c-1.5-1.2-3.2-2.1-4.7-3.3l-1.3-1c-0.6-0.3-1.2-0.5-1.8-0.8c-1.2-0.6-2.4-1.2-3.6-1.9c-0.5-0.3-1-0.7-1.6-1
	s-1.1-0.5-1.6-0.8c-1.1-0.6-2.2-1.2-3.3-1.8c-1.4-0.8-2.8-1.5-4.2-2.1l0.5,0.2c-1.5-0.8-3-1.6-4.4-2.6c-1.7-1.1-3.5-2-5.4-2.8
	c-0.8-0.4-1.6-0.8-2.4-1.1c-1.1-0.5-2.2-1.1-3.4-1.6c-1.6-0.8-3.2-1.6-4.8-2.2c-1.5-0.6-3-1-4.5-1.6c-1.3-0.7-2.6-1.4-4-2
	c-1-0.4-2-0.7-2.9-1.1c-0.4-0.2-0.8-0.4-1.2-0.6c-1-0.5-2.1-0.7-3.2-0.5c-2.3,0.5-3.7,2.8-3.2,5.1c0.2,1.1,0.9,2,1.9,2.6
	c1.1,0.6,2.3,1.2,3.5,1.6c0.8,0.3,1.5,0.5,2.2,0.9c0.5,0.2,0.9,0.5,1.4,0.8c0.9,0.5,1.9,0.9,2.8,1.3c0.9,0.4,1.9,0.7,2.9,1
	c1,0.3,1.9,0.7,2.9,1.1c1.2,0.6,2.5,1.2,3.8,1.8s2.3,1.1,3.5,1.7l-1-0.5c1.2,0.6,2.4,1.1,3.6,1.7c1.4,0.7,2.7,1.5,4,2.3
	c1.6,1,3.3,1.9,5.1,2.8l-1-0.5c1.4,0.6,2.7,1.3,4,2.1s2.5,1.3,3.8,2s2.5,1.5,3.7,2.1c1.7,0.9,3.6,1.7,5.4,2.5
	c0.9,0.4,1.8,0.9,2.6,1.4s1.9,1.1,2.8,1.6c2,1.2,4.1,2.3,6.2,3.4c1.8,1.1,3.7,2,5.6,2.9c1.6,0.7,3.3,1.3,5,2s3.4,1.5,5.1,2.3
	c1.5,0.7,3,1.2,4.4,1.9l-0.6-0.3c1.9,0.9,3.9,1.7,5.8,2.4c1.7,0.7,3.6,1.1,5.4,1.7c3.3,1,6.6,2.1,10,3c1.9,0.5,3.8,1,5.7,1.4
	s3.7,1.1,5.6,1.6c3.6,1.1,7.2,2,10.9,2.7c2.3,0.4,4.6,0.8,6.9,1.2c2,0.3,4.1,0.6,6.1,0.8c3.9,0.5,7.8,0.9,11.7,1.4
	c4.2,0.5,8.4,1.2,12.6,1.7c3.9,0.4,7.7,0.9,11.6,1.3c3.4,0.3,6.8,0.6,10.2,0.7c0.9,0,1.9,0.1,2.8,0.1c2.6,0,5.1-0.1,7.7-0.2
	L209.9,85.2z"/>
<path class="st0" d="M363.2,47.1c0-0.1,0-0.2,0-0.3C363.2,46.9,363.2,47,363.2,47.1z"/>
<path class="st0" d="M5.7,132.2c1.1-0.3,2-0.9,2.6-1.9l0.5-1c0.2-0.7,0.3-1.5,0.1-2.3c-0.1-0.4-0.2-0.8-0.3-1.3c0,0.1,0,0.2,0,0.3
	l-0.1-0.7c0-0.3,0-0.6,0-0.9c0-0.5,0.1-1,0.1-1.5s-0.1-1,0-1.4c0-0.5,0-0.9,0.1-1.3c0.1-0.5,0.1-1,0.1-1.5s0.1-1.2,0.1-1.8
	c0.1-0.8,0.1-1.7,0.2-2.5s0.4-1.8,0.5-2.7c0.1-0.6,0.1-1.2,0.2-1.8c0.1-0.8,0.2-1.7,0.3-2.5c0-0.9,0.1-1.8,0.1-2.8s0.1-1.9,0.2-2.8
	c0-0.5,0-0.9,0-1.4c0-0.5,0.1-1,0.1-1.4c0.1-1.1,0.2-2.1,0.2-3.2s0.1-2.1,0.2-3.2c0-0.5,0-1,0.1-1.5s0.1-1.1,0.2-1.6
	c0-0.8,0.1-1.7,0.2-2.6c0.6-3.5,0.9-7,0.9-10.6c0-1.9-0.1-3.7,0-5.6c0.1-2.5,0.3-5.1,0.7-7.6c0.1-0.7,0.2-1.4,0.3-2.1
	c0.3-1.4,0.5-2.7,0.6-4.1c0.1-1.1,0.1-2.1,0.2-3.2c0.2-2.1,0.2-4.3,0.5-6.4c0,0.2-0.1,0.4-0.1,0.7c0.2-1.2,0.4-2.4,0.5-3.6
	c0.2-1.1,0.3-2.2,0.3-3.3c0-1.2,0.1-2.4,0.2-3.7c0.2-1.5,0.4-3,0.6-4.5s0-2.9,0.1-4.3c0-1,0.1-2,0.1-3l0.3,0.3
	c0.5,0.4,0.9,0.8,1.5,1.2c0.6,0.4,1.3,0.7,2,0.9c1.4,0.5,2.8,1,4.2,1.4c2.2,0.7,4.6-0.6,5.3-2.8s-0.6-4.6-2.8-5.3
	c-1.3-0.5-2.7-0.9-4-1.4L22.4,20c-0.8-0.8-1.6-1.4-2.5-2c-0.6-0.3-1.3-0.6-1.9-0.9c-0.2-0.3-0.4-0.5-0.6-0.8
	C17,16,16.5,15.6,16,15.2c-0.1-0.1-0.2-0.2-0.3-0.3c-1.1-1.2-2.8-1.7-4.4-1.3c-0.8,0.2-1.5,0.6-2.1,1.1c-0.4,0.3-0.7,0.7-0.9,1.1
	c-0.5,0.9-0.8,2-0.9,3.1c0,0.9,0,1.8,0.1,2.6c0.1,1.1,0,2.2,0,3.3l-0.1,6c0,0.9,0,1.8-0.2,2.6c-0.1,0.9-0.2,1.7-0.3,2.6
	c-0.2,1.2-0.3,2.4-0.4,3.7c0,1.3-0.1,2.5-0.2,3.8c0.1-0.3,0.1-0.5,0.1-0.8c-0.2,1.2-0.3,2.5-0.5,3.8c0-0.3,0.1-0.5,0.1-0.8
	c-0.4,2.2-0.6,4.4-0.6,6.6c0,1.1-0.1,2.1-0.2,3.2s-0.1,2.2-0.3,3.2c-0.1,0.8-0.3,1.6-0.4,2.3c-0.2,1.4-0.5,2.8-0.6,4.1
	S3.8,67.7,3.7,69c-0.1,1-0.1,2-0.1,3s0.1,1.8,0.1,2.7c0.1,3.3-0.1,6.6-0.5,9.9c-0.1,0.6-0.2,1.2-0.3,1.9c-0.1,0.4-0.1,0.9-0.1,1.4
	C2.6,88.9,2.6,90,2.5,91c-0.1,0.5-0.1,1-0.1,1.5s-0.1,1-0.2,1.5c-0.1,1.2,0,2.3-0.2,3.5c-0.1,1-0.2,1.9-0.1,2.9c0,1-0.2,2-0.2,3
	s0,1.9-0.1,2.8s-0.1,1.6-0.2,2.4c-0.1,0.5-0.2,0.9-0.2,1.4c0,0.3,0,0.6-0.1,0.9c-0.2,0.8-0.4,1.7-0.5,2.5c-0.1,0.7-0.1,1.4-0.2,2
	s-0.1,1.5-0.2,2.2s-0.1,1.4-0.1,2c-0.1,0.5-0.1,1.1-0.1,1.6c0,0.6,0,1.2,0,1.8c0,0.6,0,1.2,0,1.8c0,0.7,0.1,1.4,0.2,2
	c0,0.4,0.1,0.8,0.2,1.2c0.1,0.3,0.2,0.6,0.2,0.9c0.2,1.1,0.9,2,1.9,2.6c0.7,0.4,1.5,0.7,2.3,0.7C5.1,132.2,5.4,132.2,5.7,132.2
	L5.7,132.2z"/>
<path class="st0" d="M364.3,153.6c0-0.3,0-0.6,0-1c0-0.5-0.1-1-0.1-1.6c0-0.6,0-1.2,0.1-1.8c0-0.1,0-0.3,0-0.4v0.2
	c0-0.4,0.1-0.8,0.1-1.2v0.3c0.1-1,0.1-2,0.1-3s0-2.1,0.1-3.2c0,0.1,0,0.1,0,0.2c0-0.1,0-0.1,0-0.2l0,0c0.1-0.6,0.1-1.2,0.2-1.9
	l-0.1,0.5c0-0.3,0-0.6,0.1-0.8c0.1-1.2,0.2-2.5,0.2-3.8c0-0.6,0.1-1.1,0.1-1.7s0-1.1,0.1-1.6s0-1.2,0-1.8s0-1.3,0-1.9
	c0-1.3,0-2.7,0-4.1c0-0.6,0-1.1-0.1-1.7c-0.1-0.7-0.1-1.4-0.2-2.1c-0.1-1.1-0.1-2.3-0.2-3.4s-0.3-2.3-0.4-3.4s-0.1-2.4-0.2-3.6
	s0-2.2,0-3.3c0-0.5,0-1-0.1-1.6s0-1,0-1.5c0-1.1,0-2.3-0.1-3.4c-0.1-1.1-0.1-2.2-0.1-3.3c0-1.1,0-2.2,0-3.4c0-0.6,0-1.2,0-1.8
	s0-1.1,0-1.7s0-1.1,0-1.6s0-1,0-1.6c0-1.1,0.1-2.1,0.1-3.2s0-2.1,0-3.1s0-2.2,0-3.3c0.1-2.3,0.1-4.6,0.1-7c0-1.1,0-2.3,0-3.4
	s0-2.2,0-3.3s0-2.2-0.1-3.4s0-2-0.1-3c0-0.5-0.1-1-0.1-1.5s0-1-0.1-1.5c-0.1-1-0.1-2-0.2-3.1c-0.1-0.5-0.1-0.9-0.1-1.4
	c0-0.5,0-0.9-0.1-1.4s0-0.8-0.1-1.2s0-0.7,0-1s-0.1-0.5-0.1-0.7c0,0.1,0,0.1,0,0.2c0-0.2-0.1-0.3-0.1-0.5c-0.1-0.2-0.1-0.5-0.2-0.7
	c-0.1-0.3-0.2-0.5-0.2-0.8c-0.9-0.4-1.8-0.5-2.7-0.3c-1.1,0.3-2,0.9-2.6,1.8c-0.6,1-0.8,2.1-0.6,3.3c0.2,1.2,0.4,2.4,0.5,3.6
	c0.1,1.2,0.1,2.4,0.1,3.5c0,1.6,0.1,3.3,0.3,4.9c0.1,1.5,0.1,2.9,0.1,4.4c0,1.6,0,3.2-0.2,4.8c-0.4,3.3-0.6,6.7-0.6,10
	c0,1.6,0.1,3.2,0.1,4.8s0.1,3,0.1,4.4c0.1,3.3,0.1,6.6,0,9.9c0,0.8-0.1,1.5-0.2,2.2s-0.1,1.6-0.1,2.4c0,1.4,0.2,2.8,0.2,4.2
	c0,1.9-0.1,3.8-0.3,5.7c-0.1,1.9-0.1,3.8,0.1,5.7c0.2,1.6,0.2,3.2,0.3,4.8c0.1,1.9,0,3.8-0.1,5.7c0,1.3,0.1,2.7,0,4s-0.2,2.6-0.2,4
	c0,0.7,0.1,1.5,0.1,2.2c0,1.1,0,2.3,0.2,3.4c0.2,1.3,0.6,2.6,0.9,3.9c0,0.1,0,0.1,0,0.2c0,0.1,0,0.2,0,0.2c-0.3,1.1-0.2,2.2,0.3,3.2
	c0.5,1,1.4,1.7,2.5,2.1c0.4,0.1,0.8,0.2,1.2,0.2C362.8,154.2,363.6,154,364.3,153.6L364.3,153.6z"/>
<path class="st0" d="M363.2,47.1c0-0.1,0-0.2,0-0.3L363.2,47.1z"/>
<path class="st0" d="M169.9,187.9c3.8,0,7.6,0,11.3-0.2c4.1-0.1,8.2-0.2,12.3-0.5c4.3-0.3,8.5-0.6,12.8-0.8
	c8.3-0.4,16.6-0.9,24.9-1.4s16.4-0.9,24.6-1.6c4.4-0.3,8.8-0.9,13.2-1.6c1.8-0.4,3.5-0.8,5.3-1.1s3.3-0.6,4.9-0.9
	c3.6-0.7,7.3-1.6,10.9-2.4c2-0.5,4-1.2,6-1.6l5.8-1.3c1.9-0.4,3.8-0.9,5.6-1.4c1.7-0.4,3.4-0.8,5.1-1.3s3.3-1,4.9-1.6
	c1.8-0.6,3.7-1.2,5.5-1.8c3.4-1,6.9-1.9,10.4-2.5c1.8-0.4,3.7-0.8,5.5-1.3c1.6-0.4,3.2-0.8,4.8-1.3l4.5-1.5c2-0.7,3.9-1.5,5.9-2.3
	c1.3-0.5,2.5-1.1,3.7-1.8c1.7-1,3.4-2.2,4.9-3.4c0.8-0.7,1.2-1.6,1.3-2.6c0-0.3,0-0.6-0.1-0.9s0-0.4,0-0.6c-0.4-1.9-2.1-3.3-4-3.3
	c-1.1,0-2.2,0.4-3,1.1c-0.6,0.5-1.2,0.9-1.8,1.4c-1.1,0.7-2.3,1.4-3.5,1.9c-0.7,0.3-1.5,0.6-2.2,0.9s-1.5,0.6-2.3,1
	c-1.5,0.5-3,1.1-4.6,1.5c-1.7,0.6-3.4,1-5.1,1.4s-3.6,0.9-5.5,1.3s-3.8,0.7-5.7,1.2c-3.7,0.9-7.3,2-10.9,3.3
	c-1.6,0.6-3.3,1.1-4.9,1.6s-3.4,0.8-5.1,1.3c-3.8,1-7.6,1.8-11.4,2.6c-2,0.5-4,1.1-6,1.6s-3.9,0.9-5.8,1.4c-3.3,0.7-6.6,1.4-10,2
	c-1.8,0.3-3.5,0.7-5.3,1.1c-2,0.4-4.1,0.7-6.2,1l-1.7,0.2c-4,0.4-8,0.7-12,1c-2.1,0.1-4.2,0.3-6.3,0.4s-3.9,0.2-5.9,0.3
	c-4.1,0.2-8.1,0.4-12.2,0.7h-0.3c-0.5,0.2-1,0.3-1.4,0.4c-0.6,0-1.2,0.1-1.9,0.1h0.2c-0.8,0-1.5,0.1-2.3,0.1s-1.3,0.1-1.9,0.1
	c-0.4,0-0.9,0-1.3-0.1l-0.3-0.1l-2.9,0.1c-2.3,0.1-4.6,0.2-6.9,0.3c-2,0.1-4.1,0.3-6.1,0.4c-4.1,0.3-8.2,0.5-12.4,0.6
	c-8,0.2-16.1,0.5-24.1,0.1c-2.1-0.1-4.3-0.3-6.4-0.5s-4.3-0.3-6.5-0.6c-4.1-0.6-8.3-1.1-12.5-1.8c-3.8-0.6-7.5-1.3-11.2-2.1
	c-2.2-0.5-4.4-0.8-6.5-1.4s-4.1-1-6.1-1.4s-4.1-0.9-6.2-1.4s-4.3-1-6.5-1.6c-4-1.1-8-2.4-11.9-3.6l-11.8-3.6
	c-1.9-0.6-3.9-1.1-5.8-1.8c-1.6-0.6-3.3-1.3-4.9-1.9s-3.2-1.1-4.8-1.6c-1-0.3-1.9-0.6-2.8-1s-1.9-0.8-2.9-1.2s-2-0.7-3.1-1.1
	c-0.8-0.3-1.7-0.7-2.5-1c-1.4-0.6-2.8-1.1-4.2-1.8l-2.8-1.3c-2.7-1.3-5.3-2.7-7.9-4.1c-1.1-0.6-2.2-1.1-3.3-1.7
	c-1.2-0.7-2.4-1.5-3.6-2.3c-1-0.7-2.1-1.3-3.2-1.9c-0.9-0.5-1.7-1.1-2.5-1.8c-0.8-0.5-1.6-1.1-2.4-1.6s-1.5-0.9-2.2-1.4l-0.2-0.2
	c-1-0.9-2-1.6-3.1-2.4c-0.8-0.5-1.6-1.1-2.4-1.7l0.8,0.7c-0.5-0.5-1.1-0.9-1.6-1.4l-0.4-0.3c-0.1-0.1-0.3-0.3-0.4-0.5
	c-0.4-0.5-0.9-0.9-1.4-1.2c-2-1.2-4.6-0.7-5.9,1.3c-1.1,1.9-0.7,4.3,1,5.6c0.1,0.1,0.2,0.3,0.3,0.4c0.5,0.5,1,0.9,1.6,1.3L4.3,135
	c0.6,0.5,1.3,1,1.9,1.6l-0.5-0.4c0.8,0.6,1.6,1.2,2.4,1.9s1.7,1.1,2.5,1.7l0.2,0.2c0.5,0.5,1.1,1,1.7,1.4c0.4,0.3,0.9,0.6,1.4,0.9
	c0.9,0.6,1.8,1.2,2.8,1.8s1.6,1.2,2.5,1.7c1.2,0.7,2.4,1.3,3.5,2.1s2.5,1.7,3.8,2.4s2.6,1.3,3.9,2c1.5,0.7,2.8,1.6,4.3,2.3
	s3,1.5,4.6,2.2l-0.7-0.3c3.3,1.6,6.6,3.1,10,4.4c1,0.4,2.1,0.7,3.1,1.1s2,0.8,2.9,1.2c1.7,0.7,3.6,1.2,5.4,1.8
	c3.4,1.1,6.7,2.6,10.2,3.6l11.8,3.6c3.9,1.2,7.9,2.4,11.8,3.6c2.1,0.6,4.2,1.2,6.3,1.8s4.3,1,6.4,1.5s4,0.9,6,1.4s4.3,1.1,6.4,1.5
	c4.1,0.8,8.2,1.7,12.4,2.4c2.4,0.4,4.8,0.8,7.2,1.1c2,0.3,4,0.5,5.9,0.8c2.1,0.3,4.2,0.6,6.3,0.8s4.4,0.4,6.6,0.6
	c4.1,0.4,8.2,0.4,12.2,0.5L169.9,187.9z"/>
<path class="st0" d="M12.8,21.1c2-0.1,3.9-0.3,5.9-0.5l-0.5,0c1.9-0.2,3.7-0.3,5.6-0.6c0.9-0.1,1.8-0.3,2.7-0.5s1.7-0.2,2.6-0.4
	c1.8-0.3,3.5-0.7,5.3-1.1c0.9-0.2,1.9-0.4,2.8-0.5s1.9-0.2,2.8-0.4c2.1-0.3,4.2-0.8,6.4-1.2c1.8-0.3,3.7-0.7,5.5-1
	c2-0.4,4-0.9,6-1.4c1.8-0.5,3.7-0.8,5.5-1.3c1.6-0.5,3.3-0.9,4.9-1.2c1.5-0.3,3-0.6,4.6-0.9c2.7-0.5,5.3-1.2,8-1.8
	c2.3-0.6,3.6-2.9,3.1-5.2c-0.6-2.3-2.8-3.7-5.1-3.2c-1.4,0.3-2.7,0.6-4.1,1c-1.7,0.4-3.5,0.7-5.2,1.1s-3.5,0.6-5.2,1.1
	c-2,0.5-3.9,1.1-5.9,1.5c-1.8,0.4-3.6,0.9-5.4,1.4s-3.6,0.8-5.5,1.2c-2.2,0.4-4.3,0.8-6.5,1.2c-1.9,0.4-3.9,0.7-5.8,0.9
	c-1.5,0.2-3,0.6-4.4,0.9c-1.3,0.3-2.6,0.6-3.9,0.8l-4,0.6c-1.1,0.2-2.2,0.3-3.2,0.4l-2.5,0.2l0.5-0.1c-1.5,0.1-3.1,0.2-4.6,0.3
	c-1.1,0-2.2,0.4-3,1.1c-1.7,1.6-1.8,4.3-0.3,6c0.7,0.8,1.7,1.3,2.8,1.4L12.8,21.1z"/>
<path class="st0" d="M123.4,73.3c1.4-0.3,2.8-0.7,4.1-1.2c1.3-0.4,2.6-0.8,3.9-1.2c2.9-0.8,5.7-1.8,8.4-3l-0.2,0.1
	c1.6-0.6,3.2-1.2,4.8-1.9s3.4-1.2,5-1.8l-1,0.4L153,63l-0.5,0.2c1.1-0.4,2.1-0.8,3.2-1.2c2.5-0.9,5-1.9,7.4-2.9
	c1.1-0.5,2.2-1,3.3-1.6s2.2-1,3.3-1.4c1.9-0.7,3.7-1.4,5.6-2s3.9-1.2,5.9-1.7c3.6-1.1,7.2-2.4,10.7-3.7c3.3-1.2,6.5-2.3,9.8-3.4
	c1.9-0.6,3.7-1.3,5.5-1.9s3.5-1.1,5.2-1.7c4-1.3,8-2.4,12-3.6c4.2-1.3,8.4-2.5,12.5-3.9c1.2-0.4,2.4-0.8,3.6-1.3s2.3-0.9,3.4-1.4
	c1.6-0.6,3.3-1.2,5-1.7s3.5-0.9,5.3-1.5c1.4-0.5,2.8-0.8,4.2-1.2c1.9-0.5,3.7-1.2,5.5-1.9c1-0.5,1.8-1.4,2.1-2.5
	c0.7-2.2-0.6-4.6-2.8-5.3c-1.1-0.3-2.2-0.2-3.2,0.3l-0.6,0.2c-1.4,0.5-2.9,0.9-4.4,1.3c-1.8,0.5-3.5,1.1-5.2,1.6
	c-2.1,0.5-4.2,1.2-6.2,1.9s-4,1.5-6,2.3c-3.8,1.3-7.6,2.5-11.4,3.7c-2.1,0.7-4.3,1.2-6.4,1.9s-4,1.2-6,1.8c-3.7,1.1-7.4,2.2-11,3.5
	c-3.4,1.2-6.8,2.3-10.1,3.5c-1.9,0.7-3.9,1.4-5.8,2.2c-2.2,0.8-4.5,1.7-6.8,2.3c-1.4,0.4-2.8,0.8-4.1,1.1c-1.7,0.5-3.3,1.1-4.9,1.7
	s-3.4,1.2-5.1,1.9c-1.4,0.5-2.8,1.1-4.1,1.8c-2.5,1.2-5.1,2.3-7.7,3.3l-2.5,0.9c-1,0.3-1.9,0.7-2.8,1l0.7-0.3l-4.3,1.6l0.8-0.3
	c-3,1.1-6,2.2-9,3.4l0.6-0.2c-1.6,0.6-3.2,1.2-4.8,1.8s-3.4,1.1-5.2,1.6c-2,0.6-4,1.5-6.1,1.9c-1.1,0.2-2,0.9-2.6,1.8
	c-0.6,1-0.8,2.1-0.6,3.2c0.3,1.1,0.9,2,1.9,2.6c0.7,0.4,1.5,0.6,2.3,0.6C122.8,73.4,123.2,73.4,123.4,73.3L123.4,73.3z M137.6,59.7
	l0.3-0.1L137.6,59.7z M150.6,54.9l0.5-0.2L150.6,54.9z M187.4,41.4l0.4-0.2L187.4,41.4z"/>
<path class="st0" d="M229.4,84.8c3.1-1,6.1-2.1,9.1-3.2c2-0.7,4-1.4,6.1-2.2c1.1-0.4,2.3-0.7,3.4-1.1s2.5-0.9,3.7-1.3
	s2.3-0.9,3.5-1.4c1.1-0.5,2.2-1,3.3-1.4c2.6-0.9,5.2-1.8,7.8-2.8s5.2-1.8,7.8-2.5s5.4-1.9,8-2.9c1.1-0.4,2.2-0.8,3.2-1.2l2.9-1.1
	c1.5-0.5,3.1-1,4.7-1.5c2.1-0.6,4.1-1.4,6.1-2.2s3.9-1.5,5.9-2.3l-1,0.4c1.3-0.5,2.5-1,3.7-1.5s2.4-1.1,3.6-1.6
	c2.3-0.8,4.6-1.5,6.9-2.3c3.1-1,6.3-1.8,9.4-2.8c1.5-0.5,3.1-1,4.6-1.5s2.9-0.9,4.2-1.4c1.4-0.5,2.8-0.9,4.2-1.2
	c1.5-0.3,3-0.6,4.5-0.8c2-0.2,4-0.2,6,0c0.5,0.1,1.1,0.2,1.6,0.4c0.5,0.3,1,0.6,1.4,0.9c0.2,0.4,0.4,0.9,0.6,1.3
	c0.4,0.9,0.8,1.7,1.2,2.6c1.1,2.1,3.7,2.9,5.8,1.7c0.7-0.4,1.3-1,1.7-1.7c0-0.3,0-0.7,0-1s0-0.8-0.1-1.2s0-0.7,0-1l-0.1-0.7v0.2
	c0-0.2-0.1-0.3-0.1-0.5c-0.1-0.3-0.1-0.5-0.2-0.7c-0.1-0.3-0.2-0.6-0.2-0.9c-0.1-0.3-0.3-0.7-0.5-1c-0.4-1-0.9-1.9-1.6-2.7
	c-0.5-0.6-1.2-1.1-1.9-1.5c-0.5-0.3-0.9-0.7-1.4-0.9c-0.9-0.5-1.8-0.9-2.8-1.2c-1-0.2-2.1-0.4-3.1-0.5c-1.7-0.2-3.4-0.3-5-0.1
	c-4.3,0.3-8.5,1.1-12.5,2.5c-1.9,0.7-3.8,1.2-5.6,1.8c-2.1,0.7-4.2,1.3-6.4,1.9s-4,1.1-6,1.8c-1.7,0.6-3.4,1.2-5.1,1.7
	c-3.2,1-6.3,2.6-9.4,3.8l1-0.4c-1.4,0.5-2.7,1.1-4.1,1.6l-3.4,1.3c-3.2,1.1-6.4,2-9.6,3.2l0.5-0.2l-0.6,0.2l-0.4,0.1h0.1l-2.2,0.9
	l-2.4,0.9c-1.3,0.5-2.6,1-3.9,1.5c-2.3,0.8-4.6,1.6-7,2.3s-4.9,1.6-7.2,2.5c-2.4,0.9-5,1.7-7.4,2.7c-1.9,0.8-3.7,1.6-5.6,2.4
	l-0.6,0.2c-2.4,0.9-4.9,1.6-7.4,2.5s-5.1,1.8-7.7,2.8c-2,0.7-3.9,1.4-5.9,2c-1.1,0.3-2,0.9-2.6,1.8c-0.6,1-0.8,2.1-0.6,3.3
	c0.5,1.9,2.2,3.3,4.1,3.3C228.8,85,229.1,84.9,229.4,84.8L229.4,84.8z M287.3,64l0.3-0.1L287.3,64z M288.2,63.7
	C288.2,63.7,288.3,63.7,288.2,63.7L288.2,63.7L288.2,63.7L288.2,63.7z M298.5,51.2L299,51L298.5,51.2L298.5,51.2z"/>
<path class="st0" d="M363.2,47.1c0-0.1,0-0.2,0-0.3C363.2,46.9,363.2,47,363.2,47.1z"/>
<path class="st0" d="M126.9,72.7c2-1.3,2.5-3.9,1.3-5.9l-0.7-0.9c-0.6-0.5-1.3-0.9-2-1c-1.6-0.5-3.2-1-4.9-1.5
	c-2-0.6-4.1-1.1-6.1-1.8l-0.9-0.3l-0.5-0.2c-2.3-0.8-4.6-1.5-6.8-2.3s-4.4-1.9-6.6-2.8c-1.1-0.5-2.3-0.8-3.4-1.1l-1.9-0.6
	C92,53.6,90,52.6,88,51.6s-4.4-2-6.5-3.1s-4.6-2.2-6.8-3.4c-1.1-0.6-2.2-1.2-3.4-1.8L68,41.8c-2.8-1.3-5.6-2.4-8.4-3.7
	c-1.5-0.8-3-1.6-4.5-2.5c-1.1-0.6-2.2-1.1-3.3-1.7s-2.3-1.3-3.5-1.9c-1.7-0.9-3.2-1.9-4.9-2.7c-1.4-0.7-2.8-1.4-4.2-2.1
	c-1.2-0.7-2.5-1.2-3.8-1.8c-1.8-1-3.6-2-5.4-3c-1.3-0.8-2.7-1.6-4-2.2l-1.8-0.8c-0.6-0.3-1.2-0.7-1.9-1s-1.1-0.5-1.7-0.8
	c-0.3-0.2-0.6-0.3-0.9-0.5c-0.9-0.4-1.9-0.6-2.9-0.6c-1.1,0-2.2,0.5-2.9,1.4c-1.6,1.7-1.4,4.4,0.3,6c0,0,0,0,0,0
	c0.5,0.5,1.2,0.8,1.9,0.9c0.5,0.3,1.1,0.6,1.6,0.8c0.8,0.4,1.5,0.8,2.3,1.2s1.5,0.7,2.2,1s1.6,0.8,2.4,1.2c2.2,1.2,4.3,2.5,6.5,3.7
	c1.2,0.7,2.6,1.2,3.8,1.9s2.7,1.4,4,2.1c1.7,0.8,3.3,1.9,5,2.8c1.2,0.6,2.3,1.2,3.5,1.8s2.3,1.1,3.4,1.7c1.4,0.8,2.8,1.6,4.2,2.4
	c2.8,1.5,5.8,2.5,8.7,3.9c2.2,1,4.5,2.1,6.6,3.3s4.4,2.2,6.6,3.3s4.3,2.1,6.4,3.1c2,0.9,4,1.9,6,2.7c2,0.8,4.1,1.5,6.2,2.1
	c2.2,0.9,4.4,1.9,6.7,2.8c1.8,0.7,3.7,1.2,5.6,1.8c1,0.3,1.9,0.7,2.9,1l-1-0.3l2,0.7l-0.3-0.1c4.1,1.4,8.2,2.4,12.3,3.8
	c0.3,0.1,0.5,0.1,0.8,0.1C125.5,73.4,126.3,73.2,126.9,72.7L126.9,72.7z M16.8,24.9h-0.3h-0.1H16.8L16.8,24.9z"/>
<path class="st0" d="M111.7,63.6c0.4-0.1,0.9-0.3,1.2-0.5l0.8-0.3l1.7-0.7c0.5-0.2,1-0.5,1.5-0.7s1.1-0.5,1.7-0.7
	c1-0.4,2-0.7,2.9-1.1s1.9-0.8,2.8-1.2c1.3-0.5,2.7-1,4-1.6c1.3-0.6,2.6-1.1,4-1.6L133,55c3.1-1.1,6.2-2.4,9.2-3.5
	c1.7-0.6,3.3-1.3,5-1.9s3.2-1.3,4.8-1.9l4-1.4c1.5-0.5,3-1,4.4-1.6c2.7-1.2,5.5-2.4,8.2-3.7c2.5-1.1,4.9-2.4,7.5-3.3
	c2.3-0.8,4.6-1.6,6.8-2.6s4.4-1.8,6.7-2.7c0.9-0.3,1.9-0.6,2.9-1l3.1-1.1c2.2-0.8,4.5-1.6,6.7-2.3c0.4-0.1,0.7-0.3,0.9-0.6
	c0.2-0.3,0.3-0.8,0.2-1.1c-0.1-0.4-0.3-0.7-0.6-0.9c-0.3-0.2-0.8-0.3-1.1-0.2c-3,1-5.9,2-8.9,3.1c-1.5,0.5-3,1-4.5,1.5
	s-2.9,1.1-4.3,1.7c-1.7,0.7-3.3,1.4-5,2.1c-1.5,0.5-3,1-4.5,1.6s-2.8,1.1-4.1,1.8l-4.3,2c-1.3,0.6-2.7,1.2-4,1.8s-2.9,1.3-4.4,1.9
	l0.4-0.1c-2.8,1-5.7,1.9-8.4,3s-5.5,2.2-8.2,3.2l0.4-0.1c-2.8,1-5.5,2.2-8.3,3.2h0.1h-0.1l-0.2,0.1l0.2-0.1l-1.6,0.6l0,0h-0.1l0,0
	c-1.4,0.5-2.9,1.1-4.3,1.7s-2.8,1.1-4.1,1.6l0,0c-1,0.3-1.9,0.8-2.8,1.2s-2,0.8-3,1.2s-2.1,0.9-3.1,1.3s-2.1,0.9-3.2,1.3H111
	c-0.8,0.2-1.3,1-1.1,1.8c0.2,0.7,0.8,1.2,1.5,1.2C111.5,63.5,111.6,63.5,111.7,63.6L111.7,63.6z M111.2,60.6h0.1H111.2z M132.1,55.3
	l0.2-0.1L132.1,55.3z M132.3,55.2h0.1H132.3z M176.2,37.7l0.3-0.1L176.2,37.7z M133.5,51.7L133.5,51.7L133.5,51.7L133.5,51.7
	L133.5,51.7z"/>
<path class="st0" d="M101,57.6c1.1-0.5,2.1-1,3.2-1.4l3.2-1.3c2.1-0.9,4.2-1.9,6.4-2.8l1-0.4h-0.1c3-1.1,5.9-2.2,8.8-3.5
	c1.4-0.6,2.8-1.3,4.2-1.9c1.4-0.6,2.8-1.1,4.2-1.7s2.8-1.2,4.2-1.8l4.4-1.8c1.4-0.6,2.8-1.1,4.1-1.6s2.7-1.2,4.1-1.8l1.2-0.5
	c1.5-0.5,3-1,4.4-1.6l4.3-1.6c3-1.1,5.9-2.4,8.9-3.7c1.5-0.7,2.9-1.3,4.4-1.9c0.7-0.3,1.3-0.6,2-0.9s1.4-0.6,2.2-1
	c1.7-0.8,3.5-1.6,5.3-2.3c0.4-0.2,0.6-0.5,0.7-0.9c0.2-0.8-0.2-1.6-1-1.9c0,0,0,0,0,0c-0.4-0.1-0.8-0.1-1.1,0.1
	c-1.6,0.6-3.2,1.3-4.7,2c-1.4,0.7-2.8,1.3-4.2,1.9c-0.7,0.3-1.4,0.6-2.1,0.9l-2.2,1c-1.4,0.7-2.9,1.3-4.4,2s-2.8,1.2-4.2,1.7
	l0.4-0.1c-2.1,0.8-4.1,1.5-6.2,2.3c-1.5,0.5-3,1-4.4,1.6s-2.8,1.2-4.3,1.8c-0.7,0.3-1.4,0.6-2.1,0.8s-1.4,0.5-2,0.8
	c-1.4,0.6-2.9,1.2-4.3,1.8l-4.2,1.8c-1.4,0.6-2.8,1-4.2,1.6s-2.9,1.3-4.3,1.9s-2.8,1.2-4.2,1.8s-2.7,1-4.1,1.5l0.2-0.1l-1.3,0.5h0.1
	c-2.4,0.9-4.7,2-7,3c-1.1,0.5-2.2,0.9-3.2,1.3l-1.7,0.7c-0.6,0.2-1.2,0.5-1.8,0.8c-0.7,0.4-1,1.3-0.7,2c0.3,0.5,0.8,0.8,1.3,0.8
	C100.6,57.8,100.8,57.7,101,57.6L101,57.6z M149.7,37.4h0.1H149.7z M149.9,37.3h0.1H149.9z"/>
<path class="st0" d="M89.9,53.1c0.8-0.4,1.7-0.7,2.5-1.1s1.8-0.8,2.7-1.2c1.7-0.8,3.4-1.6,5.1-2.2c1.5-0.5,3-1.1,4.4-1.7
	c0.7-0.3,1.4-0.6,2-0.9s1.4-0.6,2.1-1c1.3-0.6,2.6-1.2,3.9-1.9c0.7-0.3,1.4-0.7,2.1-1s1.4-0.6,2.2-0.9c1.4-0.6,2.9-1.3,4.3-1.9
	s3-1.2,4.4-1.8c0.7-0.3,1.5-0.6,2.2-0.9c0.7-0.3,1.5-0.7,2.2-1c1.4-0.7,2.8-1.3,4.2-2c1.4-0.7,2.9-1.3,4.4-2s3-1.3,4.5-1.9
	s2.9-1.2,4.3-1.8c0.8-0.3,1.5-0.6,2.3-1s1.5-0.7,2.2-1c1.2-0.6,2.4-1.2,3.6-1.8c1.4-0.7,2.7-1.4,4.1-2.2c0.7-0.4,1-1.3,0.6-2
	c-0.4-0.7-1.3-1-2-0.6c-2.8,1.5-5.6,3-8.4,4.4c-0.7,0.4-1.5,0.7-2.2,1l-2.3,1c-0.7,0.3-1.4,0.6-2.1,0.9s-1.4,0.6-2.2,0.9
	c-1.5,0.6-3.1,1.2-4.6,1.9s-2.9,1.3-4.3,2s-2.7,1.3-4.1,1.9s-2.9,1.2-4.4,1.8s-3,1.2-4.4,1.8s-2.8,1.3-4.3,1.9
	c-0.7,0.3-1.4,0.6-2.2,1l-2,1c-1.3,0.7-2.7,1.3-4.1,1.9c-1.1,0.5-2.2,1-3.3,1.5s-2.2,0.9-3.3,1.3s-2,0.7-2.9,1.2l-3,1.3
	c-0.9,0.4-1.9,0.9-2.8,1.3s-1.9,0.8-2.8,1.2c-0.7,0.4-1,1.3-0.6,2c0.2,0.4,0.5,0.6,0.9,0.7c0.1,0,0.3,0.1,0.4,0.1
	C89.3,53.3,89.6,53.2,89.9,53.1L89.9,53.1z"/>
<path class="st0" d="M78.1,49.4c1.4-0.6,2.9-1.3,4.3-2l2.1-1c0.7-0.3,1.4-0.7,2.1-1c1.5-0.6,2.9-1.2,4.3-1.9c0.7-0.3,1.3-0.7,2-1
	l2.1-1.1c1.4-0.7,2.9-1.4,4.4-2s2.9-1.3,4.3-1.9s3-1.2,4.5-1.9s2.9-1.3,4.3-1.9c3-1.3,5.9-2.6,8.8-4.1c1.4-0.7,2.9-1.5,4.3-2.2
	s2.9-1.4,4.3-2.1c1.6-0.8,3.2-1.6,4.8-2.3c0.8-0.4,1.7-0.7,2.5-1.1s1.8-0.9,2.7-1.3c0.7-0.4,1-1.3,0.6-2c-0.4-0.7-1.3-1-2-0.6
	l-2.5,1.2c-0.7,0.3-1.4,0.6-2,0.9c-1.5,0.6-3,1.4-4.4,2.1c-2.8,1.4-5.7,2.8-8.5,4.3c-1.4,0.8-2.9,1.5-4.4,2.2c-1.5,0.7-3,1.3-4.5,2
	s-2.9,1.3-4.4,2c-1.5,0.7-2.8,1.2-4.2,1.8c-3.1,1.3-6.1,2.6-9.1,4c-0.7,0.3-1.3,0.7-2,1l-2.2,1.1c-1.3,0.7-2.8,1.3-4.2,1.9
	c-0.8,0.3-1.6,0.6-2.3,1s-1.6,0.8-2.4,1.2c-1.6,0.8-3.3,1.5-4.9,2.2c-0.7,0.4-1,1.3-0.7,2c0.3,0.5,0.8,0.8,1.3,0.8
	C77.7,49.5,77.9,49.5,78.1,49.4L78.1,49.4z"/>
<path class="st0" d="M67.9,42.8c1.4-0.7,2.8-1.4,4.3-2.1s2.8-1.3,4.1-2s2.8-1.5,4.3-2.2c1.4-0.7,2.9-1.3,4.4-1.8
	c0.6-0.2,1.2-0.5,1.8-0.7h-0.1c1.5-0.5,3-1.1,4.5-1.7s3-1.4,4.5-2.1c2.8-1.3,5.5-2.8,8.3-4.1c1.3-0.7,2.7-1.3,4.1-1.9
	c1.5-0.7,3-1.4,4.4-2.1s2.8-1.4,4.3-2c0.7-0.3,1.5-0.7,2.2-1s1.3-0.7,2-1.1l0.7-0.4c0.4-0.2,0.6-0.5,0.8-0.9
	c0.1-0.4,0.1-0.8-0.1-1.1c-0.4-0.7-1.3-1-2-0.6c-0.7,0.4-1.4,0.9-2.1,1.2c-0.7,0.4-1.4,0.7-2.2,1.1c-1.5,0.6-2.9,1.4-4.4,2.1
	s-2.8,1.4-4.2,2s-2.9,1.4-4.4,2c-1.2,0.6-2.5,1.2-3.7,1.8s-2.6,1.3-3.9,2s-2.7,1.4-4.1,2s-2.7,1.1-4,1.6s-3,1.1-4.4,1.6
	c-0.7,0.3-1.4,0.6-2.2,0.9s-1.5,0.7-2.3,1.1c-1.3,0.7-2.7,1.4-4,2.1s-2.9,1.4-4.3,2.1c-1.2,0.6-2.5,1.3-3.7,1.8
	c-0.7,0.4-1,1.3-0.6,2c0.3,0.5,0.8,0.8,1.3,0.8c0.2,0,0.5-0.1,0.7-0.2L67.9,42.8z"/>
<path class="st0" d="M55.2,37.1c0.9-0.5,1.8-1,2.8-1.5s1.9-0.9,2.9-1.3c2-0.8,4-1.7,6-2.4L66.5,32c3.1-1.1,6.2-2.3,9.2-3.6
	s5.7-2.8,8.5-4.2c3-1.4,6-2.9,8.9-4.4c1.4-0.7,2.9-1.4,4.3-2.1l4.3-2.1c0.9-0.4,1.7-0.8,2.6-1.1s1.8-0.9,2.8-1.3
	c0.7-0.4,1-1.3,0.7-2c-0.4-0.7-1.3-1-2-0.6l-2.4,1.1c-0.7,0.3-1.4,0.6-2.1,0.9c-1.5,0.7-3,1.4-4.5,2.2c-1.4,0.7-2.8,1.3-4.2,2
	s-3,1.5-4.6,2.3c-2.9,1.4-5.8,2.8-8.7,4.2s-5.7,2.8-8.6,4c-1.1,0.5-2.3,0.9-3.4,1.4l0.4-0.1c-1.3,0.5-2.6,1-3.9,1.5l-3.2,1.3
	c-1.2,0.5-2.3,1-3.4,1.5s-2.1,1.1-3.1,1.7c-0.7,0.4-1,1.3-0.6,2c0.3,0.5,0.8,0.8,1.3,0.8C54.8,37.3,55,37.2,55.2,37.1L55.2,37.1z"/>
<path class="st0" d="M45.8,29.5c1.7-0.8,3.4-1.4,5.2-2.1s3.3-1.3,5-2s3.1-1,4.6-1.6s2.8-1.2,4.2-1.9c1.4-0.6,3-1.4,4.6-2
	s3-1.2,4.4-1.8s2.9-1.2,4.4-1.8s2.9-1.3,4.3-2s2.9-1.4,4.3-2.1s2.8-1.5,4.3-2.2c0.6-0.3,1.2-0.5,1.9-0.8c0.4-0.1,0.9-0.3,1.3-0.4
	s1.2-0.3,1.8-0.4c0.8-0.2,1.3-1,1.1-1.8c-0.2-0.8-1-1.3-1.8-1.1c-0.8,0.2-1.6,0.3-2.4,0.6c-0.9,0.3-1.7,0.6-2.5,0.9
	c-1.4,0.6-2.8,1.4-4.2,2.1s-2.9,1.5-4.4,2.2s-2.9,1.4-4.4,2.1s-2.9,1.2-4.4,1.8L68.7,17c-3,1.2-5.9,2.5-8.8,3.8l-1.7,0.7
	c-1.1,0.4-2.3,0.8-3.4,1.2s-2.3,0.9-3.5,1.4l-3.4,1.4c-1.2,0.5-2.3,0.9-3.4,1.4c-0.7,0.4-1,1.3-0.7,2c0.3,0.5,0.8,0.8,1.3,0.8
	C45.4,29.7,45.6,29.6,45.8,29.5L45.8,29.5z"/>
<path class="st0" d="M12.6,45.5c-0.6,0.8-0.5,1.9,0.3,2.5c0,0,0,0,0,0c2.1,1.4,4.2,2.8,6.5,4c1,0.6,2,1.1,3,1.6
	c0.5,0.2,1,0.4,1.5,0.6s1.2,0.3,1.8,0.6c0.9,0.4,1.9-0.1,2.3-0.9c0,0,0,0,0,0c0.4-0.9-0.1-1.9-0.9-2.3c-0.6-0.2-1.2-0.4-1.8-0.6
	c-0.5-0.2-1.1-0.4-1.6-0.6c-1-0.5-2-1-3-1.5c-1.9-1.1-3.8-2.3-5.6-3.6c-0.3-0.2-0.7-0.3-1.1-0.3C13.4,44.9,12.9,45.1,12.6,45.5
	L12.6,45.5z M20.5,48.7l0.1,0L20.5,48.7z"/>
<path class="st0" d="M12.2,55.7c-0.6,0.8-0.4,1.9,0.3,2.5c0.7,0.6,1.5,1.2,2.2,1.7c0.8,0.6,1.7,1.1,2.7,1.5c1.6,0.7,3.2,1.4,4.8,2.1
	c1.6,0.7,3.4,1.3,5,2s3.1,1.2,4.6,1.9l0.5,0.2c0.4,0.2,0.8,0.5,1.3,0.7c0.9,0.4,1.9-0.1,2.3-0.9c0.4-0.9-0.1-1.9-0.9-2.3l0,0
	l-0.6-0.2c-1.2-0.7-2.5-1.3-3.9-1.8c-1.4-0.5-2.8-1.1-4.2-1.7s-3-1.2-4.4-1.8s-2.8-1.2-4.1-1.9c-1-0.7-2-1.4-3-2.2
	c-0.3-0.2-0.6-0.4-1-0.4C13.1,55.1,12.6,55.3,12.2,55.7L12.2,55.7z"/>
<path class="st0" d="M6.6,104c-0.4,0.9,0.1,1.9,0.9,2.3c1,0.4,1.9,0.7,2.9,1.1s1.9,0.6,2.8,0.9c1,0.4,2.1,0.6,3.2,0.9
	c1,0.2,2,0.3,2.9,0.6c0.5,0.2,1.1,0.4,1.6,0.6c0.6,0.2,1.3,0.4,1.9,0.7c0.9,0.4,1.9-0.1,2.3-0.9c0.2-0.4,0.2-0.9,0-1.3
	c-0.2-0.4-0.5-0.8-1-1c-0.6-0.3-1.2-0.5-1.9-0.7c-0.6-0.2-1.2-0.5-1.9-0.7c-0.8-0.2-1.5-0.4-2.3-0.5c-0.7-0.1-1.3-0.3-2-0.4
	c-2.5-0.7-4.9-1.6-7.3-2.5c-0.2-0.1-0.4-0.1-0.7-0.1C7.5,102.9,6.9,103.3,6.6,104z"/>
<path class="st0" d="M10.5,114c-0.8,0.6-0.9,1.7-0.3,2.5c0.3,0.4,0.7,0.6,1.1,0.7c1.8,0.5,3.7,0.9,5.5,1.4s3.7,1,5.6,1.3
	s3.6,0.6,5.4,0.7c1.8,0.2,3.6,0.5,5.4,0.9l0.5,0.1c0.8,0.2,1.6,0.5,2.4,0.8c0.4,0.2,0.9,0.2,1.3,0c0.5-0.2,0.8-0.5,1-1
	c0.2-0.4,0.2-0.9,0-1.3c-0.2-0.5-0.5-0.8-1-1c-0.9-0.3-1.8-0.6-2.7-0.8c-1-0.2-1.9-0.4-2.9-0.6c-1.8-0.3-3.6-0.5-5.5-0.7
	c-1.9-0.2-3.7-0.5-5.5-0.9c-1.8-0.4-3.6-0.9-5.4-1.4c-1.3-0.3-2.6-0.6-3.8-0.9c-0.1,0-0.2,0-0.3,0C11.2,113.7,10.9,113.8,10.5,114
	L10.5,114z"/>
<path class="st0" d="M10.3,122.6c-0.9,0.4-1.3,1.4-1,2.3c0.2,0.4,0.5,0.8,1,1c1.6,0.5,3.3,1.1,4.9,1.6c0.8,0.3,1.5,0.6,2.3,0.8
	c1,0.3,1.9,0.5,2.9,0.6c0.9,0.2,1.9-0.4,2.1-1.4c0.2-0.9-0.4-1.9-1.4-2.1c-0.1,0-0.1,0-0.2,0c-0.7-0.1-1.4-0.2-2-0.4
	c-1.2-0.4-2.3-0.8-3.4-1.2s-2.5-0.8-3.8-1.2c-0.2-0.1-0.5-0.1-0.7-0.1C10.8,122.5,10.6,122.5,10.3,122.6L10.3,122.6z"/>
<path class="st0" d="M356,68.1c-1.2,0.6-2.4,1.2-3.6,1.8s-2.2,1-3.2,1.5s-2.2,1.1-3.4,1.7s-2.5,1.2-3.7,1.9
	c-0.4,0.3-0.6,0.7-0.7,1.2c-0.1,1,0.5,1.9,1.5,2c0,0,0,0,0,0c0.5,0,0.9-0.1,1.3-0.3l0.1-0.1c0.9-0.5,1.9-0.9,2.8-1.4
	c1.1-0.6,2.2-1.1,3.4-1.7s2.1-1,3.2-1.4c1.2-0.6,2.4-1.2,3.6-1.8c0.4-0.2,0.8-0.5,1-0.9c0.2-0.4,0.2-0.9,0-1.3
	c-0.3-0.7-0.9-1.1-1.6-1.1C356.4,68,356.2,68,356,68.1L356,68.1z"/>
<path class="st0" d="M358.1,76.8c-1.2,0.5-2.4,1-3.5,1.6c-1.1,0.6-2.2,1.4-3.3,2c-1.4,0.7-2.8,1.4-4.2,2l-4.5,1.8
	c-1.7,0.7-3.4,1.5-5,2.2c-0.7,0.3-1.4,0.6-2.2,0.9s-1.6,0.4-2.3,0.8c-0.9,0.4-1.3,1.4-1,2.3c0.4,0.9,1.4,1.3,2.3,1l0,0
	c0.8-0.3,1.6-0.5,2.4-0.8s1.7-0.7,2.6-1.1c1.7-0.7,3.3-1.5,5-2.2s3.4-1.4,5.1-2.1c1.7-0.8,3.4-1.7,5-2.7c0.6-0.4,1.2-0.8,1.8-1.1
	c1-0.6,2.1-1,3.2-1.4c0.9-0.4,1.3-1.4,1-2.3c-0.3-0.7-0.9-1.1-1.6-1.1C358.5,76.6,358.3,76.6,358.1,76.8L358.1,76.8z"/>
<path class="st0" d="M357.4,89.5l-2.5,0.9c-0.8,0.3-1.5,0.5-2.2,0.8s-1.4,0.6-2.1,1s-1.5,0.9-2.3,1.3c-0.5,0.3-1,0.6-1.6,0.8
	c-0.8,0.4-1.6,0.6-2.3,1.1c-0.4,0.3-0.6,0.7-0.7,1.2c-0.1,1,0.5,1.9,1.5,2c0,0,0,0,0,0c0.4,0.1,0.8,0,1.1-0.2
	c0.4-0.2,0.8-0.3,1.2-0.5s0.9-0.4,1.3-0.6c1-0.5,1.9-1.1,2.8-1.6c1-0.5,2-1,3-1.4l4-1.5c0.9-0.4,1.3-1.4,1-2.3
	c-0.3-0.7-0.9-1.1-1.6-1.1C357.8,89.4,357.6,89.5,357.4,89.5L357.4,89.5z M351.5,95.7l-0.2,0.1L351.5,95.7z"/>
<path class="st0" d="M358.5,101.4c-1.1,0.3-2.2,0.5-3.3,0.9s-1.9,0.7-2.8,1c-1.8,0.7-3.7,1.3-5.5,1.8c-0.5,0.2-0.8,0.5-1,1
	c-0.2,0.4-0.2,0.9,0,1.3c0.2,0.5,0.5,0.8,1,1c0.4,0.2,0.9,0.2,1.3,0c1.6-0.5,3.1-1,4.7-1.5c0.7-0.2,1.4-0.5,2.1-0.8s1.6-0.6,2.4-0.8
	l1.5-0.4c0.5-0.1,0.9-0.3,1.2-0.7c0.3-0.4,0.4-0.8,0.3-1.3c-0.1-0.5-0.3-0.9-0.7-1.2c-0.3-0.2-0.6-0.3-1-0.4L358.5,101.4
	L358.5,101.4z"/>
<path class="st0" d="M357.5,115.1c-2.3,0.7-4.6,1.4-6.9,2.2c-1.1,0.3-2.2,0.7-3.2,1.1s-1.9,0.6-2.9,0.8c-1.6,0.4-3.2,0.7-4.8,0.9
	c-0.8,0.2-1.7,0.3-2.5,0.4c-0.7,0.2-1.4,0.3-2.2,0.3c-0.5,0-0.9,0.3-1.2,0.7c-0.6,0.8-0.4,1.9,0.3,2.4c0.4,0.3,0.8,0.4,1.3,0.3
	c0.7,0,1.5-0.1,2.2-0.3c0.4-0.1,0.8-0.1,1.1-0.2s0.9-0.2,1.4-0.2c1.6-0.3,3.3-0.6,4.9-1c1.8-0.4,3.5-1,5.3-1.6s3.4-1.1,5-1.6
	c1.2-0.4,2.3-0.7,3.5-1.1c0.9-0.4,1.3-1.4,1-2.3c-0.2-0.5-0.5-0.8-1-1c-0.2-0.1-0.4-0.1-0.6-0.1
	C357.9,114.9,357.7,114.9,357.5,115.1L357.5,115.1z"/>
<path class="st0" d="M358.8,131.5c-1.6,0.5-3.2,1.1-4.9,1.6c-0.8,0.2-1.6,0.4-2.4,0.6c-0.5,0.2-0.8,0.5-1,1c-0.2,0.4-0.2,0.9,0,1.3
	c0.2,0.5,0.5,0.8,1,1c0.4,0.2,0.9,0.2,1.3,0l1.1-0.3c1-0.2,1.9-0.5,2.9-0.8c1.1-0.3,2.2-0.7,3.3-1.1c0.9-0.4,1.4-1.4,1-2.3
	c0,0,0,0,0,0c-0.3-0.7-0.9-1.1-1.6-1.1C359.2,131.4,359,131.5,358.8,131.5L358.8,131.5z"/>
<g>
	<path class="st0" d="M93.2,119.2L90.5,132l-5.4-1.1L92,97.8l11.3,2.4c3.8,0.8,6.5,2.3,8.1,4.5s2,4.9,1.3,8.1
		c-0.7,3.1-2.2,5.4-4.5,6.8c-2.3,1.4-5.4,1.7-9.1,0.9L93.2,119.2z M107.3,111.6c0.4-1.9,0.2-3.4-0.7-4.6c-0.8-1.2-2.4-2.1-4.7-2.5
		l-5.4-1.1l-2.4,11.5l5.4,1.1C103.9,116.8,106.5,115.4,107.3,111.6z"/>
	<path class="st0" d="M126.8,113c1.8-0.7,3.8-0.9,5.9-0.6l-0.9,5.9l-1.6-0.3c-2.4-0.4-4.4-0.1-6,0.8c-1.6,0.9-2.6,2.7-3.1,5.4
		l-2.1,13.2l-5.4-0.9l4.2-26.1l5.4,0.9l-0.8,5.1C123.5,114.9,125,113.7,126.8,113z"/>
	<path class="st0" d="M155.2,116.7c1.9,1.3,3.3,3,4.3,5.2c0.9,2.2,1.2,4.6,0.9,7.3c-0.3,2.8-1.1,5.1-2.5,7c-1.4,1.9-3.1,3.3-5.3,4.2
		c-2.2,0.9-4.5,1.2-7,0.9c-2.5-0.3-4.8-1.1-6.7-2.4c-1.9-1.3-3.3-3-4.3-5.2c-0.9-2.2-1.3-4.6-1-7.4c0.3-2.7,1.1-5.1,2.5-7
		c1.4-1.9,3.1-3.3,5.3-4.2c2.1-0.9,4.5-1.2,7-0.9C151,114.7,153.3,115.4,155.2,116.7z M144,119.6c-1.2,0.5-2.3,1.4-3.2,2.6
		s-1.4,2.8-1.6,4.7c-0.2,1.9,0,3.6,0.5,5c0.6,1.4,1.4,2.5,2.5,3.2c1.1,0.8,2.4,1.2,3.8,1.4c1.4,0.2,2.7,0,4-0.5
		c1.2-0.5,2.3-1.4,3.2-2.6s1.4-2.8,1.6-4.8c0.2-1.9,0-3.6-0.6-5s-1.4-2.5-2.5-3.2c-1.1-0.8-2.4-1.2-3.8-1.4
		C146.6,119,145.3,119.1,144,119.6z"/>
	<path class="st0" d="M160,150.2l1.9,0.1c1.1,0.1,1.8-0.1,2.4-0.5c0.5-0.4,0.8-1.2,0.9-2.3l2-31.1l5.5,0.3l-2,31.1
		c-0.3,5.2-3.1,7.6-8.4,7.3l-2.6-0.2L160,150.2z M167.6,111c-0.6-0.6-0.9-1.4-0.8-2.3c0.1-0.9,0.4-1.7,1.1-2.2
		c0.7-0.6,1.6-0.8,2.6-0.7c1.1,0.1,1.9,0.4,2.5,1.1c0.6,0.6,0.9,1.4,0.8,2.4c-0.1,0.9-0.4,1.7-1.1,2.2c-0.7,0.5-1.5,0.8-2.6,0.7
		C169,111.9,168.2,111.6,167.6,111z"/>
	<path class="st0" d="M202.9,132l-20.3-0.4c0,2.7,0.7,4.8,2.1,6.1c1.4,1.3,3.1,2,5.2,2.1c1.8,0,3.4-0.4,4.7-1.3
		c1.3-0.9,2.1-2.1,2.4-3.6l5.9,0.1c-0.4,1.8-1.2,3.5-2.3,4.9c-1.2,1.4-2.6,2.5-4.4,3.3c-1.8,0.8-3.8,1.1-6,1.1
		c-2.6-0.1-4.8-0.6-6.8-1.8c-1.9-1.1-3.5-2.7-4.5-4.8c-1.1-2.1-1.6-4.5-1.5-7.3c0.1-2.8,0.7-5.1,1.8-7.2c1.2-2,2.7-3.6,4.7-4.6
		c2-1,4.3-1.5,6.8-1.5c2.6,0.1,4.8,0.6,6.8,1.7c1.9,1.1,3.4,2.6,4.4,4.5c1,1.9,1.5,4,1.4,6.3C203.2,130.5,203.1,131.3,202.9,132z
		 M196.9,125c-0.6-1.2-1.5-2.1-2.6-2.6c-1.1-0.6-2.4-0.9-3.7-0.9c-2.1,0-3.9,0.6-5.4,1.9s-2.3,3.2-2.5,5.8l15,0.3
		C197.8,127.6,197.5,126.2,196.9,125z"/>
	<path class="st0" d="M228.7,119.2c2.3,1.7,3.8,4.1,4.5,7.2l-5.8,0.2c-0.4-1.7-1.2-2.9-2.5-3.8c-1.3-0.9-2.8-1.3-4.7-1.2
		c-2.1,0.1-3.8,0.9-5.2,2.4c-1.3,1.5-2,3.8-1.9,6.6c0.1,2.9,0.9,5,2.4,6.5c1.5,1.4,3.3,2.1,5.4,2c1.9-0.1,3.4-0.6,4.6-1.6
		c1.2-1,1.9-2.3,2.2-4l5.8-0.2c-0.4,3.1-1.7,5.6-3.9,7.6s-5,2.9-8.4,3.1c-2.6,0.1-4.8-0.4-6.9-1.4c-2-1-3.6-2.5-4.8-4.5
		s-1.9-4.4-2-7.2c-0.1-2.8,0.4-5.2,1.4-7.3s2.5-3.7,4.4-4.9c1.9-1.2,4.2-1.8,6.7-1.9C223.5,116.6,226.4,117.4,228.7,119.2z"/>
	<path class="st0" d="M252.9,136.6l0.4,4.7l-3.3,0.3c-2.8,0.2-5-0.2-6.6-1.5s-2.5-3.4-2.8-6.6l-1.1-12.9l-3.8,0.3l-0.4-4.6l3.8-0.3
		l-0.6-6.6l5.5-0.5l0.6,6.6l6.4-0.6l0.4,4.6l-6.4,0.6l1.1,13c0.1,1.5,0.5,2.5,1.1,3c0.6,0.5,1.6,0.7,3,0.6L252.9,136.6z"/>
	<path class="st0" d="M272.1,114.4c2.1,1.3,3.5,3.3,4.2,5.9l-5.1,0.7c-0.4-1.4-1.2-2.5-2.3-3.2c-1.1-0.7-2.5-1-4.1-0.8
		c-1.4,0.2-2.4,0.6-3,1.4c-0.7,0.8-0.9,1.7-0.8,2.8c0.1,0.8,0.5,1.5,1.1,1.9c0.6,0.4,1.3,0.7,2.2,0.9s2,0.3,3.6,0.5
		c2,0.2,3.7,0.4,5,0.7s2.4,0.9,3.4,1.8c1,0.9,1.6,2.3,1.9,4c0.3,2.2-0.3,4.1-1.8,5.7c-1.5,1.6-3.6,2.6-6.5,2.9c-3.3,0.4-6,0-8.2-1.2
		s-3.7-3.2-4.5-5.9l5.3-0.7c0.3,1.4,1.1,2.5,2.4,3.2c1.2,0.7,2.7,1,4.6,0.8c1.3-0.2,2.3-0.6,2.9-1.4c0.7-0.8,0.9-1.7,0.8-2.7
		c-0.1-0.9-0.5-1.6-1.1-2.1c-0.6-0.5-1.4-0.8-2.3-1c-0.9-0.2-2.1-0.3-3.6-0.5c-2-0.2-3.6-0.4-4.8-0.7c-1.2-0.3-2.4-0.9-3.3-1.8
		c-1-0.9-1.6-2.2-1.8-3.9c-0.3-2.2,0.3-4.1,1.8-5.7c1.5-1.6,3.7-2.6,6.6-3C267.5,112.6,270.1,113,272.1,114.4z"/>
</g>
</svg>
