<svg xmlns="http://www.w3.org/2000/svg" viewBox="0 0 365.12 187.91"><defs><style>.cls-1{fill:#fefefe;}</style></defs><g id="Layer_2" data-name="Layer 2"><g id="Draw_Layer" data-name="Draw Layer"><path class="cls-1" d="M76,48a1.19,1.19,0,0,0,.22-.12c-.52-.4-1-.8-1.55-1.21-1.51-1.19-3.2-2.13-4.72-3.31l-.07-.06A4.21,4.21,0,0,0,74,48.51,4.34,4.34,0,0,0,76,48Z"/><path class="cls-1" d="M203.83,84.38c1.38-.74,2.74-1.51,4.11-2.28,1.79-1,3.66-1.81,5.54-2.64,1.56-.69,3.09-1.43,4.64-2.14a46.13,46.13,0,0,1-6.64.47c-1.3,0-2.6,0-3.9,0-.63,0-1.26,0-1.88,0-2-.11-4-.28-5.93-.48l-.51,0a4.24,4.24,0,0,0,2.63,7.61,4.08,4.08,0,0,0,1.94-.49Z"/><path class="cls-1" d="M209.87,85.24c3.46-.16,6.94,0,10.4,0,3.69,0,7.38-.14,11.07-.33,3.52-.19,7-.36,10.56-.69,3.76-.35,7.55-.71,11.28-1.37,7.34-1.29,14.67-2.6,22-3.85,3.72-.63,7.43-1.35,11.11-2.23,3.87-.93,7.72-2,11.59-2.9,2-.48,4-1,6-1.65s4.2-1.35,6.34-2c4-1.12,8.09-2.15,12.16-3.11,1.34-.31,2.68-.6,4-1s2.45-.84,3.67-1.3c2.79-1,5.62-1.94,8.47-2.81s5.6-1.46,8.33-2.41c2.51-.88,5-1.68,7.54-2.53a32.49,32.49,0,0,0,4.26-1.68c1.39-.69,2.7-1.54,4-2.35a6.09,6.09,0,0,0,.84-.62c0-.11,0-.22,0-.33a13,13,0,0,1-.13-1.4c0-.46,0-.93-.06-1.4s0-.8-.07-1.2,0-.66,0-1-.09-.46-.12-.69l0,.22c0-.17-.06-.33-.08-.49s-.08-.31-.13-.46a4,4,0,0,0-4.2-.15,37.59,37.59,0,0,1-5.26,2.92c-1.81.65-3.65,1.22-5.48,1.8-2.14.67-4.23,1.5-6.39,2.11-2.46.7-4.92,1.35-7.35,2.1S329.39,56.14,327,57l.14-.06a44.76,44.76,0,0,1-5.33,1.6l-6.24,1.55-6.15,1.58c-2.07.54-4.08,1.22-6.12,1.86-4,1.23-8,2.19-12.09,3.2-1.89.46-3.77,1-5.64,1.44s-3.84.86-5.76,1.29c-6.33,1.42-12.79,2.17-19.14,3.4-2.93.57-5.88,1.07-8.82,1.58-2.71.47-5.43.82-8.17,1.11-3.4.32-6.81.61-10.22.74-3.71.15-7.42.41-11.13.42H221c-.8.18-1.6.36-2.4.49a43.62,43.62,0,0,1-7.12.55c-1.3,0-2.6,0-3.9,0-.63,0-1.25,0-1.88,0-2-.11-4-.28-5.93-.48-3.16-.32-6.3-.63-9.44-1-3.4-.33-6.79-.73-10.17-1.11-4.13-.47-8.25-1.07-12.37-1.63s-8.07-.91-12.09-1.41c-2.85-.35-5.69-.76-8.52-1.17-1.68-.29-3.35-.61-5-.9A51.49,51.49,0,0,1,137.09,69c-3.82-1-7.56-2.39-11.42-3.27-3.55-.81-7-1.78-10.54-2.83L110,61.29c-1.8-.56-3.61-1.06-5.37-1.73l-.76-.29-1.1-.23c-4.1-.89-8.11-2.13-12.19-3.1a26.3,26.3,0,0,1-7.78-3,37.46,37.46,0,0,1-5-3.79c-1-.82-2.12-1.62-3.17-2.46-1.5-1.19-3.2-2.13-4.72-3.31l-1.27-1c-.6-.27-1.21-.52-1.81-.78-1.22-.59-2.41-1.21-3.6-1.86-.54-.3-1-.65-1.59-1s-1.07-.54-1.6-.81c-1.11-.58-2.2-1.21-3.31-1.82-1.38-.75-2.78-1.45-4.21-2.12l.51.23a48,48,0,0,1-4.44-2.59,40.61,40.61,0,0,0-5.41-2.78c-.79-.38-1.57-.76-2.37-1.13-1.12-.54-2.25-1.08-3.39-1.59-1.6-.77-3.18-1.59-4.83-2.25-1.49-.61-3.05-1-4.54-1.65-1.33-.66-2.61-1.41-4-2-.95-.42-2-.73-2.94-1.12-.39-.21-.77-.43-1.16-.63A4.59,4.59,0,0,0,16.73,18a4.26,4.26,0,0,0-3.17,5.11,4.12,4.12,0,0,0,1.86,2.61,25,25,0,0,0,3.47,1.64c.75.26,1.49.55,2.22.86.46.24.9.52,1.37.77.89.5,1.86.91,2.78,1.32a27,27,0,0,0,2.85,1c1,.33,1.92.69,2.86,1.11,1.25.59,2.51,1.2,3.77,1.78s2.35,1.12,3.54,1.66l-1-.47q1.78.86,3.6,1.68c1.36.67,2.67,1.46,4,2.27a44.57,44.57,0,0,0,5.09,2.75l-1-.47c1.36.63,2.7,1.34,4,2.08s2.5,1.35,3.77,2,2.46,1.45,3.71,2.13c1.73.94,3.56,1.68,5.36,2.48.89.43,1.76.9,2.64,1.36s1.87,1.09,2.81,1.62c2,1.15,4.11,2.26,6.15,3.41a62,62,0,0,0,5.63,2.87c1.63.72,3.32,1.29,5,2s3.42,1.54,5.14,2.3c1.47.65,3,1.19,4.45,1.87l-.56-.26q2.88,1.3,5.85,2.41c1.74.66,3.58,1.13,5.36,1.68,3.32,1,6.64,2.05,10,3,1.89.51,3.79,1,5.71,1.39s3.73,1.07,5.59,1.63a94.07,94.07,0,0,0,10.94,2.74c2.29.39,4.56.85,6.86,1.18,2,.3,4.05.58,6.07.85,3.9.51,7.82.89,11.72,1.37,4.21.51,8.39,1.21,12.61,1.69,3.87.44,7.74.89,11.61,1.28,3.39.34,6.79.58,10.19.74q1.4.06,2.79.06c2.55,0,5.11-.13,7.66-.25Z"/><path class="cls-1" d="M363.25,47.13c0-.1,0-.2-.05-.3,0,.1,0,.2.05.3Z"/><path class="cls-1" d="M5.7,132.16a4.31,4.31,0,0,0,2.61-1.86l.48-1A4.33,4.33,0,0,0,8.87,127c-.06-.43-.21-.83-.29-1.26,0,.11,0,.21,0,.32l-.09-.72c0-.31,0-.61,0-.92,0-.49.07-1,.07-1.49s-.05-1,0-1.44a12.26,12.26,0,0,1,.1-1.35c.05-.5.06-1,.08-1.52s.11-1.17.15-1.75c.06-.84.1-1.69.2-2.52s.39-1.8.52-2.71c.09-.6.1-1.19.16-1.78a19.21,19.21,0,0,0,.26-2.52c0-.91.1-1.83.12-2.75s.12-1.88.22-2.82a10.6,10.6,0,0,0,0-1.38c0-.48.06-1,.08-1.43.05-1.06.2-2.11.19-3.17s.13-2.13.22-3.2c0-.5,0-1,.12-1.51s.15-1.05.18-1.58c0-.85.08-1.7.18-2.55a63.16,63.16,0,0,0,.93-10.55c0-1.86-.11-3.72,0-5.58a63.73,63.73,0,0,1,.66-7.56c.12-.7.23-1.4.34-2.1a28.88,28.88,0,0,0,.57-4.13c.05-1.06.12-2.13.23-3.18.22-2.12.2-4.26.48-6.39,0,.22-.07.44-.11.66.2-1.21.35-2.41.52-3.62a20.63,20.63,0,0,0,.29-3.34,28,28,0,0,1,.24-3.65c.25-1.48.44-3,.6-4.46s0-2.86.08-4.29c0-1,.06-2,.07-3l.31.3A17.62,17.62,0,0,0,18,27.29a10.35,10.35,0,0,0,2,.94c1.35.55,2.78,1,4.16,1.44a4.25,4.25,0,1,0,2.5-8.13c-1.31-.45-2.66-.86-4-1.36L22.42,20a13.61,13.61,0,0,0-2.5-2A14.18,14.18,0,0,0,18,17.15c-.21-.26-.4-.52-.63-.76A8.54,8.54,0,0,0,16,15.23a3.85,3.85,0,0,0-.27-.3,4.57,4.57,0,0,0-4.4-1.34,5.09,5.09,0,0,0-2.06,1.13,5,5,0,0,0-.92,1.12,6.83,6.83,0,0,0-.86,3.06,14.44,14.44,0,0,0,.14,2.62c.08,1.1,0,2.2,0,3.3l-.06,6a17.63,17.63,0,0,1-.15,2.62c-.14.87-.2,1.74-.32,2.61a30.07,30.07,0,0,0-.41,3.67,37.25,37.25,0,0,1-.2,3.81c.05-.27.09-.55.14-.83-.2,1.25-.35,2.51-.54,3.76,0-.27.09-.54.13-.81a52.75,52.75,0,0,0-.64,6.63c0,1.06-.13,2.13-.23,3.18s-.13,2.15-.28,3.22c-.14.78-.27,1.57-.4,2.35-.23,1.38-.47,2.75-.63,4.14s-.22,2.55-.3,3.83c-.06,1-.1,2-.11,3s.06,1.8.07,2.69a65.59,65.59,0,0,1-.55,9.9c-.11.62-.24,1.25-.32,1.88-.06.45-.08.92-.12,1.37C2.62,88.93,2.61,90,2.45,91c-.08.5-.07,1-.11,1.51s-.12,1-.16,1.52c-.08,1.16,0,2.31-.16,3.47a21.89,21.89,0,0,0-.15,2.92c0,1-.18,2-.22,3s0,1.88-.12,2.8-.08,1.63-.16,2.44a9.18,9.18,0,0,0-.18,1.37c0,.31,0,.62-.07.93-.17.83-.35,1.66-.49,2.51-.11.67-.14,1.36-.23,2S.33,117,.24,117.67s-.07,1.37-.11,2A13.48,13.48,0,0,0,0,121.28c0,.61,0,1.22,0,1.83a17,17,0,0,0,0,1.75c0,.68.11,1.36.2,2a4.85,4.85,0,0,0,.19,1.2,5.42,5.42,0,0,1,.19.89,4.06,4.06,0,0,0,1.85,2.61,4.28,4.28,0,0,0,2.3.67,4.42,4.42,0,0,0,1-.11Z"/><path class="cls-1" d="M364.3,153.6c0-.32,0-.64,0-1,0-.52-.1-1-.12-1.56a11.83,11.83,0,0,1,.07-1.78c0-.15,0-.3,0-.45l0,.24c0-.4.07-.8.11-1.2l0,.34c.09-1,.09-2,.11-3s0-2.1.07-3.16c0,.07,0,.13,0,.2a1.36,1.36,0,0,1,0-.2h0c.06-.61.1-1.23.17-1.85l-.06.54c0-.28,0-.55.08-.82.12-1.25.17-2.51.21-3.76,0-.57.08-1.14.12-1.72s0-1.05.07-1.57,0-1.2,0-1.81,0-1.26,0-1.9c0-1.35,0-2.7,0-4.05a10.93,10.93,0,0,0-.12-1.71c-.09-.69-.12-1.39-.18-2.08-.08-1.14-.07-2.28-.18-3.42s-.29-2.27-.35-3.42-.15-2.4-.19-3.6,0-2.21,0-3.32c0-.52-.05-1-.07-1.57s0-1,0-1.54c0-1.14-.05-2.27-.12-3.4a32.84,32.84,0,0,1-.06-3.29c0-1.13,0-2.25,0-3.38,0-.58,0-1.17,0-1.75s0-1.11,0-1.66,0-1.07,0-1.6,0-1,0-1.57c0-1.06.08-2.12.07-3.18s0-2.06,0-3.08,0-2.19,0-3.28c.07-2.32.07-4.64.09-7,0-1.14,0-2.28,0-3.42s0-2.17,0-3.26,0-2.25-.07-3.37,0-2-.06-3c0-.5-.07-1-.1-1.5s0-1-.09-1.53c-.12-1-.11-2-.23-3.06a13,13,0,0,1-.13-1.4c0-.46,0-.93-.06-1.4s0-.8-.07-1.2,0-.66,0-1-.08-.46-.13-.69c0,.07,0,.14,0,.22,0-.16-.06-.33-.08-.49a3.77,3.77,0,0,0-.23-.72,2.83,2.83,0,0,1-.19-.8,4.36,4.36,0,0,0-2.73-.29,4.25,4.25,0,0,0-2.61,1.85,4.43,4.43,0,0,0-.56,3.26c.22,1.21.4,2.42.55,3.64a27.76,27.76,0,0,1,.11,3.53,33.43,33.43,0,0,0,.29,4.89c.11,1.46.13,2.93.14,4.4a38.3,38.3,0,0,1-.21,4.79,92.29,92.29,0,0,0-.59,10c0,1.61.08,3.23.1,4.85s.06,3,.1,4.45c.1,3.32.12,6.63,0,9.94,0,.75-.13,1.49-.18,2.24s-.08,1.59-.11,2.38c-.05,1.4.2,2.78.2,4.17a57.16,57.16,0,0,1-.31,5.71,31.25,31.25,0,0,0,.14,5.72c.16,1.6.25,3.23.31,4.84.08,1.91,0,3.81-.06,5.72,0,1.34.11,2.67,0,4s-.22,2.65-.25,4c0,.73.07,1.47.07,2.2a26.18,26.18,0,0,0,.16,3.43c.18,1.34.64,2.61.91,3.93,0,.07,0,.15,0,.22a2.21,2.21,0,0,1-.05.25,4.44,4.44,0,0,0,.3,3.24,4.33,4.33,0,0,0,2.51,2.07,4.28,4.28,0,0,0,1.19.17,4.6,4.6,0,0,0,2.29-.62Z"/><path class="cls-1" d="M363.25,47.13c0-.1,0-.2-.05-.3l.05.3Z"/><path class="cls-1" d="M169.89,187.91c3.78,0,7.56,0,11.34-.16,4.1-.13,8.2-.2,12.29-.46,4.26-.27,8.52-.61,12.79-.8,8.29-.37,16.58-.9,24.87-1.35s16.43-.86,24.63-1.58a119.58,119.58,0,0,0,13.2-1.65c1.78-.36,3.54-.77,5.32-1.07s3.28-.58,4.92-.9c3.65-.69,7.27-1.57,10.88-2.42,2-.48,4-1.18,6.05-1.63l5.78-1.28c1.88-.42,3.75-.9,5.62-1.37,1.7-.43,3.42-.82,5.12-1.28s3.3-1,4.93-1.55c1.82-.63,3.66-1.2,5.5-1.79a103,103,0,0,1,10.37-2.52c1.84-.38,3.67-.78,5.49-1.26,1.62-.42,3.25-.76,4.84-1.29l4.52-1.5c2-.67,3.92-1.5,5.86-2.3a34.8,34.8,0,0,0,3.74-1.81,38.6,38.6,0,0,0,4.92-3.42,4,4,0,0,0,1.34-2.57c0-.29,0-.58-.06-.86s0-.43,0-.63a4.22,4.22,0,0,0-4-3.32,4.47,4.47,0,0,0-3,1.12c-.6.46-1.19.92-1.79,1.36a29,29,0,0,1-3.45,1.91c-.7.34-1.45.63-2.17.92s-1.51.65-2.28,1q-2.28.81-4.59,1.54c-1.68.55-3.35,1-5.07,1.44s-3.64.92-5.48,1.29-3.83.74-5.72,1.19a109,109,0,0,0-10.89,3.27c-1.62.56-3.26,1.11-4.92,1.55s-3.42.84-5.13,1.27c-3.78,1-7.59,1.81-11.4,2.65-2,.46-4,1.14-6,1.63s-3.86.94-5.81,1.36c-3.32.72-6.64,1.39-10,2-1.78.31-3.55.71-5.32,1.07-2.05.42-4.12.72-6.2,1l-1.67.18q-6,.55-12,1c-2.1.15-4.21.31-6.32.41s-3.94.17-5.92.29c-4.06.24-8.13.41-12.2.66l-.28,0a6.57,6.57,0,0,1-1.45.37c-.63,0-1.24.12-1.86.14h.17c-.76,0-1.51.06-2.27.12s-1.29.13-1.94.13a5.54,5.54,0,0,1-1.29-.13l-.29-.08-2.85.15c-2.31.1-4.63.18-6.94.31-2,.12-4.08.28-6.12.41-4.13.26-8.24.46-12.38.59-8,.24-16.11.48-24.15.12-2.14-.1-4.28-.33-6.41-.54s-4.33-.32-6.47-.62c-4.15-.6-8.31-1.13-12.46-1.75-3.76-.65-7.51-1.33-11.24-2.11-2.18-.46-4.38-.84-6.54-1.36s-4.09-1-6.14-1.43-4.09-.95-6.15-1.41-4.33-1-6.48-1.64c-4-1.13-8-2.36-11.92-3.58l-11.8-3.62c-1.94-.6-3.93-1.13-5.85-1.84-1.64-.62-3.27-1.29-4.92-1.88s-3.16-1.07-4.75-1.58c-1-.3-1.89-.6-2.81-1s-1.92-.82-2.89-1.18-2-.72-3.08-1.07c-.85-.29-1.68-.67-2.52-1-1.39-.57-2.78-1.14-4.16-1.75l-2.76-1.29c-2.68-1.29-5.27-2.71-7.91-4.06-1.09-.56-2.19-1.12-3.27-1.7-1.25-.68-2.39-1.5-3.58-2.29-1-.68-2.11-1.3-3.19-1.89A24.82,24.82,0,0,1,21.39,137c-.78-.54-1.57-1.08-2.37-1.61s-1.48-.88-2.17-1.4l-.22-.19a29.78,29.78,0,0,0-3.1-2.36c-.81-.53-1.62-1.13-2.38-1.74l.84.71c-.54-.47-1.09-.91-1.65-1.35l-.36-.3c-.14-.15-.26-.3-.39-.46a7,7,0,0,0-1.43-1.23,4.28,4.28,0,0,0-5.87,1.3,4.29,4.29,0,0,0,1,5.63c.11.13.22.27.32.41a9.47,9.47,0,0,0,1.56,1.32L4.33,135c.62.54,1.27,1,1.91,1.56l-.53-.45c.78.65,1.57,1.25,2.37,1.86s1.68,1.12,2.49,1.73l.21.18a21.1,21.1,0,0,0,1.71,1.42c.44.31.9.57,1.35.85.95.58,1.84,1.22,2.75,1.84s1.63,1.21,2.5,1.72c1.18.7,2.39,1.34,3.52,2.11s2.47,1.66,3.79,2.37,2.59,1.34,3.88,2c1.45.73,2.82,1.57,4.28,2.27s3,1.47,4.57,2.19l-.68-.32c3.29,1.55,6.6,3.06,10,4.35,1,.38,2.07.7,3.09,1.07s2,.76,2.91,1.18c1.74.74,3.58,1.24,5.38,1.83,3.42,1.12,6.73,2.56,10.17,3.62L81.75,172q5.9,1.81,11.78,3.59c2.08.61,4.16,1.21,6.26,1.75s4.29,1,6.45,1.48,4,.94,6,1.38,4.28,1.08,6.44,1.51c4.11.82,8.22,1.67,12.36,2.36,2.39.4,4.78.82,7.19,1.15q3,.39,5.89.81c2.1.31,4.2.64,6.31.83s4.4.38,6.59.59c4.08.39,8.16.45,12.25.46Z"/><path class="cls-1" d="M12.82,21.09c2-.15,3.94-.26,5.91-.45l-.5.05c1.87-.17,3.72-.34,5.58-.59.92-.13,1.82-.29,2.73-.45s1.72-.24,2.58-.38c1.77-.29,3.53-.72,5.3-1.07.94-.19,1.87-.4,2.82-.54s1.88-.24,2.82-.38c2.14-.31,4.25-.81,6.38-1.17,1.85-.32,3.69-.68,5.53-1,2-.41,4-.9,6-1.44,1.8-.49,3.65-.81,5.45-1.31a48.91,48.91,0,0,1,4.94-1.25c1.52-.26,3-.59,4.55-.87,2.68-.51,5.32-1.18,8-1.8A4.3,4.3,0,0,0,84,3.28,4.3,4.3,0,0,0,78.9.11c-1.36.32-2.71.63-4.05,1-1.73.45-3.5.71-5.25,1.07s-3.51.62-5.23,1.07c-2,.51-3.9,1.08-5.88,1.52-1.82.4-3.6.92-5.41,1.36s-3.64.8-5.47,1.16c-2.16.44-4.34.76-6.5,1.18-1.94.38-3.86.68-5.82.93-1.48.19-3,.56-4.42.87-1.29.27-2.59.56-3.89.77l-4,.63c-1.08.17-2.16.33-3.24.45l-2.53.22.47-.05c-1.55.13-3.1.2-4.65.32a4.59,4.59,0,0,0-3,1.12,4.25,4.25,0,0,0-.26,6,4.26,4.26,0,0,0,2.83,1.38Z"/><path class="cls-1" d="M123.42,73.35a24.45,24.45,0,0,0,4.1-1.22c1.28-.45,2.59-.82,3.89-1.18a81.68,81.68,0,0,0,8.44-3l-.23.09c1.61-.61,3.2-1.24,4.81-1.86s3.35-1.19,5-1.82l-1,.39L153,63l-.46.17c1.07-.38,2.13-.78,3.19-1.18,2.51-.91,5-1.87,7.45-2.93,1.13-.49,2.21-1.05,3.32-1.58s2.22-1,3.34-1.38c1.86-.69,3.72-1.41,5.6-2s3.94-1.15,5.92-1.73c3.62-1.06,7.16-2.4,10.69-3.74,3.26-1.16,6.52-2.31,9.81-3.39,1.85-.6,3.67-1.33,5.53-1.92s3.47-1.13,5.21-1.68c4-1.27,8-2.4,12-3.62,4.18-1.27,8.39-2.51,12.52-3.94,1.21-.42,2.43-.83,3.62-1.28s2.29-.92,3.44-1.37c1.64-.6,3.29-1.17,5-1.67s3.54-.92,5.27-1.49c1.38-.45,2.77-.84,4.17-1.22a50.7,50.7,0,0,0,5.48-1.9,4.08,4.08,0,0,0,2.07-2.51,4.25,4.25,0,0,0-2.81-5.31,4.55,4.55,0,0,0-3.24.31l-.62.24c-1.44.51-2.9.94-4.39,1.31-1.76.45-3.47,1.12-5.24,1.57-2.1.55-4.2,1.16-6.24,1.9s-4,1.54-6,2.31c-3.76,1.34-7.57,2.5-11.37,3.73-2.11.68-4.26,1.25-6.39,1.87s-4,1.25-6,1.84c-3.68,1.08-7.36,2.22-11,3.52-3.36,1.21-6.77,2.27-10.13,3.47q-2.92,1-5.82,2.16c-2.25.83-4.5,1.66-6.81,2.33-1.37.4-2.75.76-4.12,1.14-1.68.47-3.31,1.09-4.95,1.67s-3.42,1.25-5.12,1.89a41.63,41.63,0,0,0-4.13,1.76,74.85,74.85,0,0,1-7.7,3.29l-2.46.92c-1,.33-1.89.69-2.83,1l.74-.28-4.28,1.57.76-.29c-3,1.1-6,2.21-9,3.37l.61-.22c-1.61.6-3.2,1.22-4.8,1.84s-3.45,1.12-5.21,1.6c-2,.57-4,1.55-6.08,1.88a4.09,4.09,0,0,0-2.61,1.85,4.24,4.24,0,0,0-.56,3.25,4.36,4.36,0,0,0,1.86,2.62,4.06,4.06,0,0,0,2.26.63,6.83,6.83,0,0,0,1-.08Zm14.23-13.62.33-.13-.33.13Zm13-4.8.51-.2-.51.2Zm36.8-13.57.44-.16-.44.16Z"/><path class="cls-1" d="M229.45,84.84c3.07-1,6.08-2.07,9.08-3.22q3-1.09,6.11-2.15c1.13-.38,2.28-.7,3.42-1.07s2.48-.88,3.71-1.34,2.31-.9,3.46-1.38,2.18-1,3.28-1.43c2.61-.93,5.23-1.83,7.82-2.81s5.18-1.75,7.79-2.54,5.38-1.89,8-2.92q1.62-.6,3.24-1.23l2.93-1.12c1.54-.55,3.11-1,4.68-1.52,2.07-.62,4.11-1.36,6.12-2.15s3.93-1.48,5.88-2.28l-1,.39c1.26-.48,2.48-1,3.72-1.5s2.4-1.08,3.62-1.57c2.28-.81,4.59-1.55,6.88-2.31,3.09-1,6.29-1.76,9.39-2.78,1.53-.51,3.07-1,4.63-1.45s2.85-.91,4.25-1.41a35.44,35.44,0,0,1,4.18-1.16c1.5-.34,3-.64,4.52-.83a29.58,29.58,0,0,1,5.95,0,10.85,10.85,0,0,1,1.59.39,13.08,13.08,0,0,1,1.42.9c.22.43.41.88.61,1.31q.6,1.29,1.17,2.58a4.26,4.26,0,0,0,7.47.07c0-.33,0-.67-.05-1s0-.79-.07-1.19,0-.66,0-1l-.12-.7,0,.21c0-.16-.06-.32-.08-.48a3.86,3.86,0,0,0-.23-.73,3.54,3.54,0,0,1-.21-.91c-.15-.34-.31-.68-.47-1a11.37,11.37,0,0,0-1.6-2.73,7.86,7.86,0,0,0-1.85-1.55c-.47-.31-.9-.66-1.39-.93a11.62,11.62,0,0,0-2.8-1.17c-1-.24-2.07-.41-3.11-.55a24.36,24.36,0,0,0-5.05-.12A47.12,47.12,0,0,0,333.83,39c-1.86.66-3.75,1.22-5.64,1.8-2.13.65-4.24,1.35-6.38,1.94s-4,1.14-6,1.8c-1.69.57-3.37,1.15-5.06,1.69-3.25,1-6.28,2.56-9.43,3.81l1-.38c-1.36.51-2.7,1.07-4.06,1.59l-3.42,1.29c-3.18,1.12-6.43,2-9.59,3.21l.5-.19-.63.24-.36.13.06,0-2.24.86-2.37.91c-1.31.49-2.61,1-3.92,1.52-2.3.83-4.64,1.56-7,2.32s-4.85,1.59-7.24,2.49-5,1.68-7.43,2.65c-1.87.75-3.69,1.63-5.58,2.37l-.58.22c-2.45.89-4.95,1.6-7.39,2.47s-5.14,1.84-7.68,2.82c-2,.71-3.95,1.39-5.94,2a4.43,4.43,0,0,0-2.61,1.85,4.29,4.29,0,0,0-.55,3.26A4.4,4.4,0,0,0,228.43,85a3.6,3.6,0,0,0,1-.15ZM287.32,64l.31-.11-.31.11Zm.89-.33a.32.32,0,0,1,.09,0l0,0-.12,0ZM298.48,51.2,299,51l-.48.18Z"/><path class="cls-1" d="M363.25,47.13c0-.1,0-.2-.05-.3,0,.1,0,.2.05.3Z"/><path class="cls-1" d="M126.91,72.74a4.25,4.25,0,0,0,1.27-5.87l-.74-.87a4.18,4.18,0,0,0-2-1c-1.62-.54-3.24-1-4.88-1.54-2-.61-4.11-1.13-6.14-1.8l-.91-.31-.54-.19c-2.26-.83-4.55-1.53-6.83-2.27s-4.42-1.87-6.62-2.78c-1.12-.46-2.27-.76-3.42-1.11l-1.94-.62C92,53.59,90,52.57,88,51.6s-4.38-2-6.53-3.14-4.56-2.2-6.79-3.4c-1.13-.6-2.23-1.23-3.38-1.77L68,41.78c-2.77-1.29-5.63-2.38-8.38-3.71-1.55-.75-3-1.62-4.53-2.48C54,35,52.88,34.5,51.79,33.91s-2.34-1.26-3.52-1.86c-1.66-.86-3.23-1.87-4.89-2.72-1.39-.7-2.78-1.4-4.16-2.14C38,26.53,36.68,26,35.44,25.35c-1.82-1-3.62-2-5.39-3A41.6,41.6,0,0,0,26,20.12l-1.76-.77c-.64-.3-1.24-.7-1.86-1s-1.13-.48-1.67-.78c-.3-.16-.6-.32-.91-.47a6.89,6.89,0,0,0-2.89-.65A4.05,4.05,0,0,0,14,17.84a4.24,4.24,0,0,0,.33,6,4,4,0,0,0,1.89.94c.55.26,1.07.57,1.63.81.79.35,1.52.78,2.28,1.19s1.47.67,2.21,1,1.61.77,2.4,1.21c2.16,1.22,4.27,2.54,6.46,3.72,1.25.68,2.57,1.21,3.83,1.87s2.66,1.41,4,2.09c1.72.85,3.33,1.86,5,2.76,1.17.62,2.35,1.22,3.51,1.85s2.28,1.11,3.38,1.71c1.42.79,2.81,1.63,4.25,2.38C58,46.84,61,47.91,63.84,49.22c2.25,1,4.47,2.08,6.65,3.27s4.37,2.22,6.58,3.3,4.27,2.1,6.42,3.1c2,.93,4,1.88,6,2.74a64.13,64.13,0,0,0,6.19,2.06c2.25.86,4.43,1.91,6.67,2.8,1.83.72,3.74,1.22,5.61,1.82,1,.34,1.91.69,2.87,1l-1-.35,2,.67-.31-.1c4.07,1.37,8.23,2.42,12.31,3.78a2.69,2.69,0,0,0,.81.12,4.57,4.57,0,0,0,2.34-.71ZM16.8,24.87l-.27,0-.08,0,.35.05Z"/><path class="cls-1" d="M111.66,63.58a5.85,5.85,0,0,0,1.25-.45l.77-.31,1.72-.7c.49-.2,1-.45,1.48-.66s1.14-.47,1.71-.7c1-.39,2-.73,2.91-1.14s1.88-.82,2.83-1.19c1.34-.5,2.66-1,4-1.57s2.63-1.08,4-1.59L133,55c3.1-1.11,6.16-2.36,9.24-3.52,1.67-.6,3.32-1.26,5-1.92s3.21-1.29,4.83-1.89l4-1.39c1.48-.52,3-1,4.42-1.61,2.74-1.22,5.48-2.42,8.21-3.65,2.49-1.14,4.94-2.39,7.51-3.35,2.29-.81,4.6-1.58,6.84-2.56s4.45-1.84,6.7-2.69c.94-.33,1.9-.64,2.85-1l3.15-1.1c2.23-.8,4.48-1.56,6.73-2.33a1.62,1.62,0,0,0,.92-.64,1.51,1.51,0,0,0,.21-1.15,1.57,1.57,0,0,0-.64-.93,1.42,1.42,0,0,0-1.15-.2c-3,1-5.91,2.05-8.87,3.07-1.49.52-3,1-4.5,1.54s-2.9,1.1-4.33,1.69c-1.67.68-3.3,1.43-5,2.07-1.49.54-3,1-4.48,1.59s-2.78,1.14-4.14,1.79l-4.34,2c-1.33.61-2.68,1.17-4,1.76s-2.89,1.33-4.38,1.89l.36-.13c-2.81,1-5.66,1.89-8.45,3s-5.47,2.2-8.23,3.24l.36-.13c-2.79,1-5.53,2.15-8.31,3.19l.11,0-.12,0-.24.09.17-.06-1.58.56h0l-.09,0h0c-1.44.53-2.85,1.13-4.28,1.69s-2.75,1.12-4.13,1.64h0c-1,.35-1.89.75-2.82,1.16s-2,.8-3,1.19-2.1.86-3.14,1.32-2.13.9-3.2,1.32l-.16,0a1.53,1.53,0,0,0-1.14,1.8,1.51,1.51,0,0,0,1.49,1.16,1.63,1.63,0,0,0,.31,0Zm-.42-3,.11,0-.11,0Zm20.81-5.24.2-.07-.2.07Zm.26-.1.1,0-.1,0Zm43.88-17.58.33-.12-.33.12Zm-42.72,14h0l-.08,0,.07,0Z"/><path class="cls-1" d="M101,57.59c1.06-.47,2.11-1,3.18-1.4l3.21-1.32c2.14-.89,4.23-1.92,6.39-2.75l1-.37-.07,0c3-1.08,5.92-2.23,8.82-3.51,1.41-.63,2.82-1.28,4.23-1.9s2.8-1.1,4.2-1.66,2.8-1.18,4.2-1.75l4.35-1.79c1.36-.57,2.75-1.07,4.12-1.62s2.74-1.2,4.13-1.75l1.16-.46c1.48-.53,3-1,4.44-1.59l4.31-1.6c3-1.09,5.94-2.36,8.85-3.7,1.46-.67,2.92-1.32,4.4-1.94.68-.28,1.34-.62,2-.93s1.45-.65,2.17-1c1.74-.82,3.5-1.57,5.29-2.29a1.44,1.44,0,0,0,.74-.88,1.5,1.5,0,0,0-1-1.88,1.61,1.61,0,0,0-1.14.09c-1.6.64-3.18,1.31-4.74,2-1.4.66-2.8,1.3-4.2,1.94-.68.32-1.38.6-2.08.89l-2.19,1c-1.45.67-2.9,1.34-4.36,2s-2.77,1.16-4.18,1.68l.36-.13c-2.06.75-4.11,1.52-6.17,2.28-1.48.54-3,1-4.44,1.6s-2.84,1.2-4.26,1.79c-.68.29-1.37.56-2.06.83s-1.37.5-2,.78c-1.43.62-2.88,1.2-4.32,1.79l-4.21,1.75c-1.38.58-2.8,1-4.18,1.64s-2.88,1.29-4.32,1.93-2.83,1.23-4.25,1.82-2.71,1-4.07,1.55l.25-.09-1.26.46.12,0c-2.39.87-4.69,2-7,3-1.07.46-2.16.89-3.23,1.34l-1.74.73c-.6.25-1.19.55-1.79.82A1.51,1.51,0,0,0,99,57a1.48,1.48,0,0,0,1.33.79,1.68,1.68,0,0,0,.69-.15ZM149.7,37.4l.12,0-.12,0Zm.25-.09.11,0-.11,0Z"/><path class="cls-1" d="M89.89,53.09c.84-.37,1.69-.7,2.53-1.06s1.8-.79,2.68-1.2c1.68-.77,3.37-1.56,5.09-2.24,1.48-.53,3-1.08,4.42-1.69.69-.29,1.38-.6,2-.93s1.41-.63,2.1-.95c1.31-.61,2.61-1.25,3.91-1.89.7-.34,1.39-.7,2.09-1s1.43-.61,2.15-.93c1.43-.63,2.86-1.27,4.3-1.89s3-1.19,4.43-1.78c.73-.29,1.47-.56,2.19-.86s1.45-.67,2.16-1q2.08-1,4.19-2c1.44-.66,2.88-1.32,4.35-2s3-1.26,4.52-1.86,2.86-1.19,4.28-1.79c.77-.33,1.54-.65,2.29-1s1.49-.71,2.24-1.05c1.22-.57,2.41-1.21,3.6-1.84,1.36-.72,2.72-1.44,4.07-2.18a1.52,1.52,0,0,0,.64-2,1.51,1.51,0,0,0-2-.65c-2.77,1.53-5.56,3-8.42,4.37-.74.35-1.47.73-2.23,1.05l-2.29,1c-.71.29-1.41.61-2.13.91s-1.45.58-2.17.87c-1.53.62-3.06,1.25-4.57,1.91s-2.87,1.29-4.29,1.95-2.74,1.28-4.11,1.94-2.94,1.25-4.43,1.85-3,1.17-4.42,1.8-2.83,1.26-4.26,1.87c-.72.31-1.45.62-2.16,1l-2,1c-1.35.65-2.7,1.33-4.07,1.93-1.1.49-2.17,1-3.28,1.5s-2.19.86-3.29,1.28-2,.73-2.93,1.16l-3,1.33c-.93.43-1.86.86-2.81,1.26s-1.89.79-2.84,1.2a1.5,1.5,0,0,0,.24,2.76,1.68,1.68,0,0,0,.43.07,1.8,1.8,0,0,0,.71-.17Z"/><path class="cls-1" d="M78.14,49.38c1.44-.64,2.89-1.26,4.3-2l2.1-1c.7-.34,1.4-.68,2.12-1q2.18-.86,4.28-1.87c.68-.33,1.33-.71,2-1l2.13-1.08c1.44-.74,2.93-1.37,4.4-2s2.87-1.3,4.33-1.91,3-1.25,4.5-1.87,2.86-1.26,4.28-1.9c3-1.34,5.94-2.62,8.82-4.11,1.43-.73,2.86-1.49,4.3-2.22S128.59,26,130,25.3c1.59-.82,3.19-1.6,4.82-2.33.84-.37,1.68-.7,2.51-1.07s1.81-.88,2.7-1.32a1.5,1.5,0,0,0-1.38-2.67l-2.46,1.21c-.67.32-1.35.59-2,.87-1.51.62-3,1.35-4.44,2.08-2.84,1.41-5.7,2.79-8.51,4.27q-2.16,1.14-4.36,2.17c-1.48.69-3,1.34-4.47,2s-2.94,1.34-4.42,2-2.81,1.17-4.21,1.77q-4.58,1.92-9.08,4c-.66.31-1.31.66-2,1l-2.16,1.1c-1.35.72-2.75,1.34-4.16,1.93-.77.33-1.55.62-2.3,1s-1.63.77-2.43,1.17c-1.63.78-3.27,1.51-4.91,2.25a1.5,1.5,0,0,0-.65,2,1.47,1.47,0,0,0,1.33.79,1.68,1.68,0,0,0,.69-.15Z"/><path class="cls-1" d="M67.87,42.75c1.45-.67,2.85-1.43,4.29-2.12s2.76-1.32,4.1-2,2.84-1.48,4.28-2.2a43.35,43.35,0,0,1,4.39-1.85c.59-.23,1.19-.45,1.79-.66l-.08,0c1.53-.53,3-1.09,4.54-1.7s3-1.36,4.54-2.07c2.79-1.33,5.51-2.78,8.29-4.14q2-1,4.09-1.93c1.49-.68,3-1.39,4.45-2.1s2.85-1.38,4.3-2c.74-.34,1.48-.67,2.21-1s1.33-.73,2-1.12l.7-.43a1.59,1.59,0,0,0,.75-.88,1.55,1.55,0,0,0-.1-1.14,1.51,1.51,0,0,0-2-.65c-.68.42-1.36.85-2.06,1.22s-1.43.73-2.16,1.06c-1.48.65-2.94,1.37-4.4,2.07s-2.81,1.37-4.23,2-2.93,1.35-4.38,2.05c-1.24.6-2.49,1.21-3.72,1.84s-2.57,1.33-3.87,2-2.74,1.35-4.13,2-2.69,1.14-4,1.65-3,1.06-4.45,1.62c-.72.27-1.44.56-2.15.86s-1.51.7-2.26,1.07c-1.34.68-2.66,1.38-4,2.08s-2.89,1.41-4.33,2.11c-1.24.6-2.46,1.27-3.71,1.84a1.52,1.52,0,0,0-.64,2,1.47,1.47,0,0,0,1.33.79,1.68,1.68,0,0,0,.69-.15Z"/><path class="cls-1" d="M55.19,37.14c.93-.49,1.83-1,2.76-1.51s1.9-.91,2.88-1.33c2-.84,4-1.65,6-2.42l-.36.13c3.08-1.12,6.15-2.32,9.15-3.65s5.67-2.79,8.5-4.17c3-1.44,6-2.89,8.9-4.38,1.44-.72,2.88-1.41,4.33-2.1l4.28-2.06c.86-.4,1.73-.76,2.59-1.14s1.85-.85,2.77-1.27a1.5,1.5,0,0,0-1.37-2.67l-2.42,1.11c-.68.32-1.39.6-2.08.91q-2.26,1-4.51,2.15c-1.38.67-2.78,1.33-4.16,2s-3,1.53-4.56,2.29c-2.89,1.43-5.81,2.78-8.68,4.25s-5.7,2.77-8.64,3.95c-1.13.45-2.26.91-3.39,1.35l.36-.13q-2,.7-3.93,1.47l-3.24,1.33c-1.15.48-2.28,1-3.4,1.52s-2.09,1.14-3.13,1.7a1.5,1.5,0,0,0-.64,2,1.53,1.53,0,0,0,1.34.81,1.34,1.34,0,0,0,.67-.17Z"/><path class="cls-1" d="M45.83,29.52c1.68-.78,3.43-1.44,5.15-2.14s3.29-1.34,5-2,3.1-1,4.61-1.65,2.81-1.24,4.22-1.86,3-1.35,4.56-2,3-1.2,4.44-1.8,2.94-1.18,4.4-1.8,2.88-1.33,4.32-2,2.88-1.38,4.3-2.11,2.84-1.5,4.3-2.18c.62-.28,1.24-.54,1.87-.78.44-.15.87-.29,1.32-.42s1.19-.26,1.77-.38a1.5,1.5,0,0,0-.65-2.93c-.83.17-1.64.35-2.45.58A19.53,19.53,0,0,0,90.5,7c-1.45.61-2.85,1.36-4.25,2.09s-2.93,1.48-4.41,2.2-2.91,1.4-4.39,2.06-2.92,1.24-4.39,1.83L68.66,17c-3,1.2-5.87,2.55-8.8,3.83l-1.65.67c-1.13.39-2.26.76-3.39,1.17s-2.34.88-3.5,1.35l-3.43,1.4c-1.16.47-2.31.93-3.44,1.44a1.52,1.52,0,0,0-.65,2,1.49,1.49,0,0,0,1.33.8,1.74,1.74,0,0,0,.7-.16Z"/><path class="cls-1" d="M82.59,91.14c-.13,1.59-.24,3.19-.24,4.79a44.67,44.67,0,0,0,.38,4.76c.17,1.86.26,3.72.3,5.59s.13,4,.33,6,.36,4.12.5,6.19a48.93,48.93,0,0,0,.86,6.48c.35,1.66,1,3.25,1.45,4.89s.7,3.32,1.27,4.93a4.17,4.17,0,0,0,1.39,2.16,2.24,2.24,0,0,0,1.79.37,4.24,4.24,0,0,0,1.66-.92,12.59,12.59,0,0,0,1.82-2c.94-1.18,1.81-2.42,2.75-3.6,1.46-1.67,3-3.29,4.58-4.85.82-.82,1.65-1.63,2.5-2.44a30.53,30.53,0,0,0,2.48-2.73L107,120l0,0,0-.06.29-.34L107,120l1-1.14.48,1.1c.42.93.87,1.85,1.35,2.75s1,1.72,1.43,2.59.83,1.69,1.23,2.55.83,1.91,1.32,2.82,1,1.71,1.5,2.56a22.48,22.48,0,0,1,1.31,2.65c.2.44.37.88.56,1.31a11.46,11.46,0,0,0,.72,1.27A10.12,10.12,0,0,0,120,141a3,3,0,0,0,1.88.86,2.54,2.54,0,0,0,1.79-.69,4.37,4.37,0,0,0,.91-1.54c.11-.29.23-.57.34-.85.7-1.88,1.23-3.82,1.91-5.7s1.41-3.92,2.14-5.87,1.5-3.82,2.19-5.76c.49-1.41,1-2.84,1.49-4.23.46-1.21.94-2.41,1.47-3.59s1.24-2.44,1.92-3.63c.36-.64.73-1.28,1.08-1.93s.69-1.35,1-2a2.11,2.11,0,0,0,.26-1.53,2,2,0,0,0-.88-1.23,2,2,0,0,0-2.76.62c-.49.94-.95,1.89-1.47,2.81l-1.44,2.57a46.05,46.05,0,0,0-2.67,5.8c-.73,1.89-1.37,3.8-2,5.71s-1.51,3.94-2.26,5.92c-.36,1-.7,2-1,2.93s-.72,1.93-1,2.9c-.47,1.36-.89,2.75-1.36,4.11a14.67,14.67,0,0,1-1.14-2.19,24.37,24.37,0,0,0-1.26-2.69c-.47-.86-1-1.69-1.5-2.54a27.76,27.76,0,0,1-1.35-2.8c-.39-.85-.78-1.7-1.2-2.53s-.94-1.74-1.42-2.6-1-1.83-1.39-2.76-.72-1.73-1.18-2.55a5,5,0,0,0-.91-1.18,2.63,2.63,0,0,0-3-.53,7.81,7.81,0,0,0-2.29,2.22l-1.22,1.45.33-.39-.68.81c-.5.58-1,1.15-1.54,1.69s-1.13,1.1-1.7,1.65q-1.75,1.72-3.46,3.5a47.21,47.21,0,0,0-3.26,3.67c-.82,1.06-1.61,2.14-2.44,3.2q-.18-.76-.36-1.56a35.47,35.47,0,0,0-1-3.5,32.82,32.82,0,0,1-1-3.39c-.23-1.12-.4-2.26-.53-3.4-.16-1.73-.26-3.46-.39-5.19s-.32-3.49-.44-5.25-.12-3.61-.2-5.41-.27-3.86-.48-5.78l.06.51a37.64,37.64,0,0,1-.2-3.83c0-1.33.13-2.67.24-4a2,2,0,0,0-2-2h-.06a2,2,0,0,0-2,2Zm22.3,25.18-.07.09.07-.09Zm17.87,21.73.11,0-.11,0ZM107,120h0l0-.06,0,0Z"/><path class="cls-1" d="M172.83,108.25l-.37,0a12.86,12.86,0,0,0-2.92.72,26.37,26.37,0,0,0-5.49,3.06,25.25,25.25,0,0,0-5,4.5,21,21,0,0,0-1.74,2.35,30.21,30.21,0,0,0-1.61,3.22,34.72,34.72,0,0,0-2,5.86,21.1,21.1,0,0,0-.71,6.32,17.15,17.15,0,0,0,1.64,6.36,15.74,15.74,0,0,0,1.65,2.76,10.16,10.16,0,0,0,3.52,2.78,42.3,42.3,0,0,0,6.24,2.45,18.57,18.57,0,0,0,6.37,1.14,19.81,19.81,0,0,0,3.43-.48,17.39,17.39,0,0,0,3.3-1.06,24.93,24.93,0,0,0,5.36-3.2,21,21,0,0,0,2.18-1.93,26.94,26.94,0,0,0,2.07-2.46c.6-.77,1.2-1.55,1.75-2.36a20.64,20.64,0,0,0,1.68-3.06,26.36,26.36,0,0,0,1.08-2.71,20.76,20.76,0,0,0,.76-3.39,16.66,16.66,0,0,0,.18-2.64,12.59,12.59,0,0,0-.38-2.93,40.55,40.55,0,0,0-1.92-5.24,18.22,18.22,0,0,0-1-2.6,9.93,9.93,0,0,0-2.35-2.85A16.3,16.3,0,0,0,186,111a26.19,26.19,0,0,0-3.6-1.58,1.73,1.73,0,0,0-1.34.06,1.75,1.75,0,0,0-.34-.51,2,2,0,0,0-1.42-.64c-1.08-.11-2.17-.24-3.25-.27h-.52c-.91,0-1.82.06-2.73.15Zm6.4,4.11a1.69,1.69,0,0,0,.81-.12l0,.08a2.14,2.14,0,0,0,1.18,1c.66.25,1.31.51,2,.79a11.66,11.66,0,0,1,2.1,1.3h0A12.62,12.62,0,0,1,187,117a10,10,0,0,1,.68,1.3c.25.71.49,1.42.78,2.12s.58,1.38.85,2.08a16.14,16.14,0,0,1,.84,3.21,15.59,15.59,0,0,1-.1,3.13,22.18,22.18,0,0,1-.67,2.67,18,18,0,0,1-2.72,5.28c-.63.87-1.28,1.72-1.95,2.56a21.65,21.65,0,0,1-3.55,3.21,23,23,0,0,1-4,2.19,20.65,20.65,0,0,1-2,.62c-.73.18-1.49.28-2.25.39a9,9,0,0,1-1,0c-.47,0-.94-.07-1.4-.13a28.31,28.31,0,0,1-4-1.1c-1.37-.47-2.73-1-4.07-1.54a14.12,14.12,0,0,1-2.39-1.43,7.28,7.28,0,0,1-.69-.77,16.48,16.48,0,0,1-1.54-3,17.9,17.9,0,0,1-.77-3.39,19,19,0,0,1,.19-3.76,29.5,29.5,0,0,1,1.06-4c.45-1.29,1-2.55,1.5-3.8a17.66,17.66,0,0,1,1.22-2.21c.39-.57.81-1.12,1.25-1.66a24.38,24.38,0,0,1,8.52-6.21,13.15,13.15,0,0,1,2.34-.59,1.49,1.49,0,0,0,.36,0,32.84,32.84,0,0,1,5.78.19Zm-5.36-.23-.21,0,.21,0Zm15.34,10.08s0,.08,0,.12,0-.08,0-.12ZM188.42,134l-.08.17a1.3,1.3,0,0,1,.08-.17Zm-7.35,8.7-.14.1.14-.1Zm-3.52,2-.14.05.14-.05Z"/><path class="cls-1" d="M208.7,113.19a47.9,47.9,0,0,0-1.09,6.73c-.14,1.93-.27,3.85-.32,5.78,0,1,0,2,0,3s-.06,2.13-.12,3.2c-.13,2.05-.34,4.1-.37,6.15,0,.94-.06,1.89,0,2.83s.26,2,.4,3.05a8.43,8.43,0,0,1,0,1.74c0,.13-.05.27-.07.4a2,2,0,1,0,4,.19h0a8.62,8.62,0,0,0,.11-.87,10.48,10.48,0,0,0,0-1.37c-.07-.94-.26-1.86-.39-2.8s0-1.9,0-2.86.06-2.08.13-3.12c.14-2.07.31-4.14.36-6.22,0-1,0-2,0-3s.05-2,.1-3,.15-1.88.21-2.82.15-1.81.29-2.71c.19-1.06.41-2.11.64-3.16a2.06,2.06,0,0,0-.15-1.52,2,2,0,0,0-1.18-1,1.7,1.7,0,0,0-.55-.08,2,2,0,0,0-2,1.41Z"/><path class="cls-1" d="M214,110.3a8.83,8.83,0,0,0-2.66,1.49q-.71.58-1.38,1.2a2,2,0,0,0,2.72,2.93c.5-.45,1-.9,1.54-1.31a5.73,5.73,0,0,1,.84-.46,8.65,8.65,0,0,1,1.14-.29,13.1,13.1,0,0,1,2.42.13,17.34,17.34,0,0,1,3.34.9,8.54,8.54,0,0,1,.82.5,2.91,2.91,0,0,1,.33.37,5.1,5.1,0,0,1,.29.57,11,11,0,0,1,.35,1.48,7.1,7.1,0,0,1,0,1.22,7.31,7.31,0,0,1-.36,1.12,9.71,9.71,0,0,1-.8,1.27,10.24,10.24,0,0,1-1.33,1.22,20.11,20.11,0,0,1-3.2,1.64c-1.55.53-3.15.87-4.72,1.31-.74.21-1.47.46-2.19.7-.47.16-.93.34-1.39.51-.18.07-.36.16-.54.25a2.71,2.71,0,0,0-1.13.91,2,2,0,0,0,1.64,3.07,13.83,13.83,0,0,0,2.82-.69c.93-.25,1.87-.48,2.8-.72a37.76,37.76,0,0,1,4.57-.93,17.25,17.25,0,0,1,3.66.18c.59.1,1.16.22,1.73.37a12.66,12.66,0,0,1,1.73.61,5.74,5.74,0,0,1,2.39,1.9,12.19,12.19,0,0,1,1,1.89A14.23,14.23,0,0,1,231,136c.16,1.58.27,3.15.54,4.7.12.71.24,1.41.38,2.11a9.44,9.44,0,0,0,.31,1.19,9,9,0,0,0,.57,1.52,2,2,0,0,0,2.7.83,2,2,0,0,0,.82-2.71l0-.06a19.2,19.2,0,0,1-.65-2.64c-.18-.94-.34-1.89-.46-2.85s-.13-2-.28-3a13.07,13.07,0,0,0-.8-3,10.32,10.32,0,0,0-3.93-5,13.7,13.7,0,0,0-3.06-1.41,20.29,20.29,0,0,0-2.45-.58,12.57,12.57,0,0,0,1.46-1.62,8.31,8.31,0,0,0,.71-1.19,8.67,8.67,0,0,0,.79-2.07,9.31,9.31,0,0,0-.14-4.2,7.74,7.74,0,0,0-.88-2.19,6.44,6.44,0,0,0-2.55-2.28,16.64,16.64,0,0,0-6.15-1.58c-.33,0-.67,0-1,0a9,9,0,0,0-2.87.46Zm16.93,25.21a2.11,2.11,0,0,1,0,.25,2.11,2.11,0,0,0,0-.25Zm4.25,2.81a.88.88,0,0,0,0,.16.88.88,0,0,1,0-.16Zm1,5s0,.08,0,.12,0-.08,0-.12Z"/><path class="cls-1" d="M247.38,107.65a2.17,2.17,0,0,0-.64,1.42c-.09,1-.21,2-.24,2.93s0,1.9,0,2.85c0,1.82,0,3.63,0,5.45s0,3.88.11,5.81a27.92,27.92,0,0,0,.44,3.16c.18.92.35,1.84.46,2.77.15,1.82.19,3.64.43,5.46.1.77.21,1.55.35,2.31.07.42.14.84.25,1.25a7.05,7.05,0,0,0,.34,1,2.7,2.7,0,0,0,1,1.17,2,2,0,0,0,2.76-.62,2,2,0,0,0-.12-2.27,16.28,16.28,0,0,1-.43-2.21c-.11-.64-.19-1.29-.27-1.94-.14-1.66-.19-3.33-.37-5s-.58-3.16-.79-4.75c-.12-1.33-.14-2.65-.13-4,0-1.51,0-3,0-4.55s0-2.78,0-4.17a33.09,33.09,0,0,1,.23-4.56,2,2,0,0,0-2-2.06h0a2,2,0,0,0-1.37.53Zm4.94,32.47v0h0l0,0Zm.11.07,0,.05,0-.05Z"/><path class="cls-1" d="M270.62,104.42a2.15,2.15,0,0,0-1,1.18c-.28.68-.57,1.36-.86,2a16.41,16.41,0,0,1-.9,1.65c-.35.53-.73,1-1.12,1.53-.76.85-1.57,1.64-2.4,2.42s-1.7,1.6-2.6,2.35c-1.66,1.38-3.36,2.7-5.12,4l.07-.05c-1.44,1-3,2-4.35,3.06-.26.2-.49.42-.75.62a8.36,8.36,0,0,0-1.07.9,2.17,2.17,0,0,0-.7,1.59,2.2,2.2,0,0,0,.53,1.41,2.32,2.32,0,0,0,1,.61,3.81,3.81,0,0,0,1.06.07l.66-.07a12,12,0,0,1,2.61.12c1.43.26,2.84.6,4.23,1a30.23,30.23,0,0,1,4.28,1.42,21.53,21.53,0,0,1,4.21,2.73,10.06,10.06,0,0,1,1.38,1.46c.26.38.5.77.76,1.15a15.25,15.25,0,0,0,1.09,1.45A7.12,7.12,0,0,0,273,138.1a16.45,16.45,0,0,0,1.84,1,20.65,20.65,0,0,0,2.61,1.11,2,2,0,0,0,1.16-3.83,15.91,15.91,0,0,1-1.49-.59,13.81,13.81,0,0,1-2.39-1.37,6.15,6.15,0,0,1-.49-.53c-.49-.74-1-1.5-1.5-2.2a13.08,13.08,0,0,0-2.39-2.31,25.56,25.56,0,0,0-2.44-1.72,21.88,21.88,0,0,0-3.22-1.59,38.65,38.65,0,0,0-5.81-1.68c-.58-.14-1.16-.26-1.75-.37a80.44,80.44,0,0,0,8.52-6.53c.76-.69,1.51-1.39,2.25-2.11a31,31,0,0,0,2.33-2.53,22,22,0,0,0,3.07-5.65l.18-.45a1.89,1.89,0,0,0-.15-1.52,2,2,0,0,0-1.18-1,1.94,1.94,0,0,0-1.52.15Z"/><path class="cls-1" d="M12.57,45.53A1.75,1.75,0,0,0,12.9,48c2.09,1.44,4.25,2.8,6.46,4.05,1,.57,2,1.08,3,1.56.5.23,1,.42,1.54.61s1.22.35,1.81.6A1.75,1.75,0,0,0,28,53.86a1.77,1.77,0,0,0-.94-2.29c-.58-.25-1.21-.41-1.81-.61a13.62,13.62,0,0,1-1.6-.63c-1-.47-2-1-3-1.53Q17.81,47.11,15,45.21a2,2,0,0,0-1.1-.35,1.7,1.7,0,0,0-1.36.67Zm7.93,3.16.1.05-.1-.05Z"/><path class="cls-1" d="M12.21,55.74a1.77,1.77,0,0,0,.33,2.46c.73.58,1.46,1.19,2.24,1.71a21,21,0,0,0,2.66,1.49c1.58.72,3.17,1.44,4.77,2.13s3.36,1.34,5,2,3.08,1.15,4.55,1.87l.46.25a10.07,10.07,0,0,0,1.26.66,1.75,1.75,0,1,0,1.34-3.24l-.56-.25A25,25,0,0,0,30.37,63c-1.41-.54-2.8-1.11-4.21-1.65s-3-1.16-4.41-1.82-2.76-1.19-4.08-1.9a32.08,32.08,0,0,1-3-2.19,1.66,1.66,0,0,0-1-.36,1.78,1.78,0,0,0-1.41.68Z"/><path class="cls-1" d="M6.63,104a1.75,1.75,0,0,0,.94,2.28c1,.36,1.92.72,2.89,1.06s1.88.62,2.83.94a29.09,29.09,0,0,0,3.2.88c1,.2,2,.33,2.91.55.55.17,1.09.38,1.64.58a15.83,15.83,0,0,1,1.88.72,1.75,1.75,0,0,0,2.28-.94,1.73,1.73,0,0,0,0-1.32,1.8,1.8,0,0,0-.95-1,15.89,15.89,0,0,0-1.88-.73c-.62-.22-1.23-.46-1.86-.65a18.18,18.18,0,0,0-2.31-.47c-.67-.12-1.34-.26-2-.42-2.47-.7-4.89-1.56-7.29-2.46a1.92,1.92,0,0,0-.66-.12A1.73,1.73,0,0,0,6.63,104Z"/><path class="cls-1" d="M10.5,114a1.77,1.77,0,0,0-.33,2.46,1.86,1.86,0,0,0,1.15.67c1.83.47,3.67.91,5.49,1.38s3.74,1,5.65,1.33,3.6.55,5.41.73a52.31,52.31,0,0,1,5.4.87l.55.12c.81.24,1.61.52,2.43.75a1.87,1.87,0,0,0,1.32,0,1.75,1.75,0,0,0,1-1,1.73,1.73,0,0,0,0-1.32,1.65,1.65,0,0,0-.95-1c-.9-.26-1.79-.57-2.69-.82A29,29,0,0,0,32,117.6c-1.81-.33-3.63-.52-5.46-.72A52,52,0,0,1,21,116c-1.79-.41-3.57-.91-5.35-1.38-1.27-.33-2.55-.61-3.82-.94a1.09,1.09,0,0,0-.26,0,1.87,1.87,0,0,0-1,.37Z"/><path class="cls-1" d="M10.32,122.59a1.75,1.75,0,0,0,0,3.24c1.64.53,3.26,1.07,4.89,1.62.77.27,1.53.56,2.3.79a26,26,0,0,0,2.89.61,1.75,1.75,0,1,0,.48-3.46c-.68-.12-1.35-.23-2-.38-1.16-.36-2.29-.79-3.43-1.17s-2.51-.84-3.77-1.24a2.22,2.22,0,0,0-.71-.13,1.7,1.7,0,0,0-.61.12Z"/><path class="cls-1" d="M356,68.1c-1.21.61-2.42,1.23-3.64,1.82s-2.18,1-3.25,1.46-2.25,1.1-3.36,1.66-2.52,1.19-3.7,1.91a1.69,1.69,0,0,0-.67,1.15,1.76,1.76,0,0,0,1.49,2,1.93,1.93,0,0,0,1.3-.34l.1-.06c.93-.49,1.88-.94,2.81-1.41,1.12-.56,2.22-1.13,3.35-1.65s2.15-1,3.22-1.45c1.24-.56,2.44-1.2,3.65-1.82a1.87,1.87,0,0,0,1-.95,1.77,1.77,0,0,0,0-1.32A1.86,1.86,0,0,0,356.66,68a1.37,1.37,0,0,0-.62.14Z"/><path class="cls-1" d="M358.12,76.77a31.44,31.44,0,0,0-3.49,1.6c-1.14.63-2.22,1.36-3.34,2a43.65,43.65,0,0,1-4.25,2l-4.52,1.85c-1.69.7-3.35,1.47-5,2.2-.72.32-1.44.64-2.17.94s-1.56.44-2.29.76a1.75,1.75,0,0,0,1.29,3.26c.76-.33,1.59-.48,2.35-.79s1.7-.73,2.56-1.11c1.66-.73,3.31-1.5,5-2.19s3.41-1.36,5.09-2.09a41.11,41.11,0,0,0,5-2.67c.62-.37,1.22-.76,1.83-1.14,1-.55,2.12-1,3.21-1.44a1.75,1.75,0,0,0-.67-3.37,1.72,1.72,0,0,0-.63.12Z"/><path class="cls-1" d="M357.38,89.51l-2.49.91c-.75.27-1.5.52-2.22.85s-1.42.63-2.11,1-1.52.87-2.27,1.32c-.52.29-1.05.58-1.58.84-.77.39-1.59.64-2.32,1.1a1.73,1.73,0,0,0-.68,1.15,1.76,1.76,0,0,0,1.5,2,1.74,1.74,0,0,0,1.14-.25c.39-.18.8-.34,1.2-.51s.86-.41,1.28-.64c.95-.52,1.89-1.08,2.83-1.63a23.57,23.57,0,0,1,3-1.39l4-1.48a1.75,1.75,0,0,0-.66-3.37,1.72,1.72,0,0,0-.63.12Zm-5.84,6.19-.18.09.18-.09Z"/><path class="cls-1" d="M358.52,101.4c-1.11.27-2.23.53-3.32.87s-1.86.67-2.79,1q-2.73,1-5.54,1.81a1.68,1.68,0,0,0-1,1,1.82,1.82,0,0,0,0,1.32,1.76,1.76,0,0,0,1,1,1.87,1.87,0,0,0,1.32,0c1.58-.46,3.14-1,4.69-1.51.72-.25,1.43-.52,2.14-.8s1.59-.55,2.4-.79l1.53-.37a2,2,0,0,0,1.19-.68,1.74,1.74,0,0,0,.34-1.27,1.76,1.76,0,0,0-.67-1.18,1.87,1.87,0,0,0-1-.37l-.23,0Z"/><path class="cls-1" d="M357.52,115.06c-2.31.71-4.61,1.44-6.92,2.16-1.08.34-2.16.72-3.25,1.08s-1.91.59-2.87.85c-1.6.39-3.22.65-4.83.95-.83.16-1.68.26-2.51.44a10.71,10.71,0,0,1-2.17.31,1.66,1.66,0,0,0-1.18.68,1.75,1.75,0,0,0,.32,2.45,1.88,1.88,0,0,0,1.28.35,12.33,12.33,0,0,0,2.17-.31c.37-.08.75-.13,1.13-.19s.92-.16,1.38-.25c1.64-.31,3.28-.58,4.91-1,1.79-.44,3.55-1,5.3-1.59s3.35-1.09,5-1.61c1.17-.36,2.34-.74,3.51-1.09a1.77,1.77,0,0,0,1-2.28,1.82,1.82,0,0,0-1-1,1.57,1.57,0,0,0-.63-.12,2.48,2.48,0,0,0-.69.11Z"/><path class="cls-1" d="M358.75,131.46c-1.64.53-3.25,1.1-4.91,1.56-.79.19-1.58.39-2.36.62a1.71,1.71,0,0,0-1,1,1.77,1.77,0,0,0,0,1.32,1.73,1.73,0,0,0,1,1,1.85,1.85,0,0,0,1.31,0l1.08-.3c1-.23,1.91-.48,2.86-.78,1.12-.34,2.22-.74,3.33-1.09a1.76,1.76,0,0,0,1-2.28,1.71,1.71,0,0,0-1.63-1.08,2,2,0,0,0-.64.1Z"/></g></g></svg>