<svg xmlns="http://www.w3.org/2000/svg" viewBox="0 0 365.1 187.9" fill="#fff" xmlns:v="https://vecta.io/nano"><path d="M76 48c.1 0 .2-.1.2-.1l-1.6-1.2c-1.5-1.2-3.2-2.1-4.7-3.3l-.1-.1c-.6 2.3.8 4.5 3.1 5.1.3.1.7.1 1 .1A4.65 4.65 0 0 0 76 48zm127.8 36.4l4.1-2.3c1.8-1 3.7-1.8 5.5-2.6l4.6-2.1c-2.2.3-4.4.5-6.6.5h-5.8l-5.9-.5h-.5c-1.9 1.4-2.2 4.1-.8 5.9.8 1.1 2.1 1.7 3.4 1.7.8-.1 1.4-.2 2-.6h0z"/><path d="M209.9 85.2c3.5-.2 6.9 0 10.4 0 3.7 0 7.4-.1 11.1-.3l10.6-.7c3.8-.3 7.6-.7 11.3-1.4l22-3.8c3.7-.6 7.4-1.3 11.1-2.2 3.9-.9 7.7-2 11.6-2.9 2-.5 4-1 6-1.7s4.2-1.3 6.3-2c4-1.1 8.1-2.2 12.2-3.1 1.3-.3 2.7-.6 4-1s2.5-.8 3.7-1.3c2.8-1 5.6-1.9 8.5-2.8s5.6-1.5 8.3-2.4c2.5-.9 5-1.7 7.5-2.5 1.5-.5 2.9-1 4.3-1.7s2.7-1.5 4-2.3c.3-.2.6-.4.8-.6v-.3c-.1-.5-.1-.9-.1-1.4s0-.9-.1-1.4 0-.8-.1-1.2 0-.7 0-1-.1-.5-.1-.7v.2c0-.2-.1-.3-.1-.5s-.1-.3-.1-.5c-1.3-.8-2.9-.9-4.2-.2-1.7 1.1-3.4 2.1-5.3 2.9-1.8.7-3.6 1.2-5.5 1.8-2.1.7-4.2 1.5-6.4 2.1-2.5.7-4.9 1.3-7.4 2.1s-4.8 1.7-7.2 2.6l.1-.1c-1.7.6-3.5 1.2-5.3 1.6l-6.2 1.5-6.1 1.6c-2.1.5-4.1 1.2-6.1 1.9-4 1.2-8 2.2-12.1 3.2l-5.6 1.4-5.8 1.3c-6.3 1.4-12.8 2.2-19.1 3.4-2.9.6-5.9 1.1-8.8 1.6-2.7.5-5.4.8-8.2 1.1-3.4.3-6.8.6-10.2.7-3.7.2-7.4.4-11.1.4H221c-.8.2-1.6.4-2.4.5-2.4.4-4.7.6-7.1.6h-5.8c-2-.1-4-.3-5.9-.5l-9.4-1c-3.4-.3-6.8-.7-10.2-1.1l-12.4-1.6-12.1-1.4c-2.9-.3-5.7-.8-8.5-1.2l-5-.9c-1.7-.3-3.4-.6-5.1-1-3.8-1-7.6-2.4-11.4-3.3-3.6-.8-7-1.8-10.5-2.8l-5.1-1.6c-1.8-.6-3.6-1.1-5.4-1.7l-.8-.3-1.1-.2c-4.1-.9-8.1-2.1-12.2-3.1-2.7-.6-5.4-1.6-7.8-3-1.8-1.1-3.4-2.4-5-3.8l-3.2-2.5c-1.5-1.2-3.2-2.1-4.7-3.3l-1.3-1c-.6-.3-1.2-.5-1.8-.8-1.2-.6-2.4-1.2-3.6-1.9-.5-.3-1-.7-1.6-1s-1.1-.5-1.6-.8l-3.3-1.8c-1.4-.8-2.8-1.5-4.2-2.1l.5.2c-1.5-.8-3-1.6-4.4-2.6-1.7-1.1-3.5-2-5.4-2.8-.8-.4-1.6-.8-2.4-1.1-1.1-.5-2.2-1.1-3.4-1.6-1.6-.8-3.2-1.6-4.8-2.2-1.5-.6-3-1-4.5-1.6-1.3-.7-2.6-1.4-4-2-1-.4-2-.7-2.9-1.1l-1.2-.6c-1-.5-2.1-.7-3.2-.5-2.3.5-3.7 2.8-3.2 5.1.2 1.1.9 2 1.9 2.6 1.1.6 2.3 1.2 3.5 1.6.8.3 1.5.5 2.2.9.5.2.9.5 1.4.8.9.5 1.9.9 2.8 1.3s1.9.7 2.9 1 1.9.7 2.9 1.1c1.2.6 2.5 1.2 3.8 1.8s2.3 1.1 3.5 1.7l-1-.5c1.2.6 2.4 1.1 3.6 1.7 1.4.7 2.7 1.5 4 2.3 1.6 1 3.3 1.9 5.1 2.8l-1-.5c1.4.6 2.7 1.3 4 2.1s2.5 1.3 3.8 2 2.5 1.5 3.7 2.1c1.7.9 3.6 1.7 5.4 2.5.9.4 1.8.9 2.6 1.4s1.9 1.1 2.8 1.6c2 1.2 4.1 2.3 6.2 3.4 1.8 1.1 3.7 2 5.6 2.9 1.6.7 3.3 1.3 5 2s3.4 1.5 5.1 2.3c1.5.7 3 1.2 4.4 1.9l-.6-.3c1.9.9 3.9 1.7 5.8 2.4 1.7.7 3.6 1.1 5.4 1.7 3.3 1 6.6 2.1 10 3 1.9.5 3.8 1 5.7 1.4s3.7 1.1 5.6 1.6c3.6 1.1 7.2 2 10.9 2.7l6.9 1.2c2 .3 4.1.6 6.1.8l11.7 1.4c4.2.5 8.4 1.2 12.6 1.7l11.6 1.3c3.4.3 6.8.6 10.2.7.9 0 1.9.1 2.8.1 2.6 0 5.1-.1 7.7-.2l-.3-.3z"/><path d="M5.7 132.2c1.1-.3 2-.9 2.6-1.9l.5-1c.2-.7.3-1.5.1-2.3l-.3-1.3v.3l-.1-.7v-.9c0-.5.1-1 .1-1.5s-.1-1 0-1.4c0-.5 0-.9.1-1.3.1-.5.1-1 .1-1.5s.1-1.2.1-1.8l.2-2.5c.1-.8.4-1.8.5-2.7.1-.6.1-1.2.2-1.8l.3-2.5.1-2.8c0-1 .1-1.9.2-2.8v-1.4c0-.5.1-1 .1-1.4l.2-3.2c0-1.1.1-2.1.2-3.2 0-.5 0-1 .1-1.5s.1-1.1.2-1.6c0-.8.1-1.7.2-2.6a62.33 62.33 0 0 0 .9-10.6v-5.6c.1-2.5.3-5.1.7-7.6l.3-2.1c.3-1.4.5-2.7.6-4.1l.2-3.2.5-6.4c0 .2-.1.4-.1.7l.5-3.6c.2-1.1.3-2.2.3-3.3 0-1.2.1-2.4.2-3.7l.6-4.5c.2-1.5 0-2.9.1-4.3l.1-3 .3.3c.5.4.9.8 1.5 1.2s1.3.7 2 .9l4.2 1.4c2.2.7 4.6-.6 5.3-2.8s-.6-4.6-2.8-5.3l-4-1.4-.4.1c-.8-.8-1.6-1.4-2.5-2l-1.9-.9c-.2-.3-.4-.5-.6-.8L16 15.2l-.3-.3c-1.1-1.2-2.8-1.7-4.4-1.3-.8.2-1.5.6-2.1 1.1-.4.3-.7.7-.9 1.1-.5.9-.8 2-.9 3.1l.1 2.6c.1 1.1 0 2.2 0 3.3l-.1 6c0 .9 0 1.8-.2 2.6L6.9 36c-.2 1.2-.3 2.4-.4 3.7 0 1.3-.1 2.5-.2 3.8.1-.3.1-.5.1-.8l-.5 3.8c0-.3.1-.5.1-.8-.4 2.2-.6 4.4-.6 6.6 0 1.1-.1 2.1-.2 3.2l-.3 3.2-.4 2.3-.6 4.1-.2 3.9c-.1 1-.1 2-.1 3l.1 2.7c.1 3.3-.1 6.6-.5 9.9l-.3 1.9c-.1.4-.1.9-.1 1.4-.2 1-.2 2.1-.3 3.1-.1.5-.1 1-.1 1.5s-.1 1-.2 1.5c-.1 1.2 0 2.3-.2 3.5-.1 1-.2 1.9-.1 2.9 0 1-.2 2-.2 3l-.1 2.8-.2 2.4c-.1.5-.2.9-.2 1.4 0 .3 0 .6-.1.9l-.5 2.5-.2 2-.2 2.2c-.1.7-.1 1.4-.1 2-.1.5-.1 1.1-.1 1.6v3.6c0 .7.1 1.4.2 2 0 .4.1.8.2 1.2.1.3.2.6.2.9.2 1.1.9 2 1.9 2.6.7.4 1.5.7 2.3.7h.9zm358.6 21.4v-1c0-.5-.1-1-.1-1.6s0-1.2.1-1.8v-.2c0-.4.1-.8.1-1.2v.3c.1-1 .1-2 .1-3l.1-3.2v.2-.2c.1-.6.1-1.2.2-1.9l-.1.5c0-.3 0-.6.1-.8l.2-3.8c0-.6.1-1.1.1-1.7s0-1.1.1-1.6 0-1.2 0-1.8v-6c0-.6 0-1.1-.1-1.7l-.2-2.1-.2-3.4-.4-3.4-.2-3.6c-.1-1.2 0-2.2 0-3.3 0-.5 0-1-.1-1.6s0-1 0-1.5l-.1-3.4c-.1-1.1-.1-2.2-.1-3.3V87.4l.1-3.2v-6.4l.1-7v-6.7l-.1-3.4-.1-3c0-.5-.1-1-.1-1.5s0-1-.1-1.5l-.2-3.1c-.1-.5-.1-.9-.1-1.4s0-.9-.1-1.4 0-.8-.1-1.2 0-.7 0-1-.1-.5-.1-.7v.2c0-.2-.1-.3-.1-.5-.1-.2-.1-.5-.2-.7-.1-.3-.2-.5-.2-.8-.9-.4-1.8-.5-2.7-.3-1.1.3-2 .9-2.6 1.8-.6 1-.8 2.1-.6 3.3l.5 3.6c.1 1.2.1 2.4.1 3.5a40.28 40.28 0 0 0 .3 4.9l.1 4.4-.2 4.8a83.86 83.86 0 0 0-.6 10l.1 4.8.1 4.4v9.9c0 .8-.1 1.5-.2 2.2s-.1 1.6-.1 2.4l.2 4.2c0 1.9-.1 3.8-.3 5.7-.1 1.9-.1 3.8.1 5.7.2 1.6.2 3.2.3 4.8.1 1.9 0 3.8-.1 5.7v4l-.2 4 .1 2.2c0 1.1 0 2.3.2 3.4.2 1.3.6 2.6.9 3.9v.4c-.3 1.1-.2 2.2.3 3.2s1.4 1.7 2.5 2.1c.4.1.8.2 1.2.2.9.9 1.7.7 2.4.3h0z"/><path d="M169.9 187.9c3.8 0 7.6 0 11.3-.2 4.1-.1 8.2-.2 12.3-.5l12.8-.8 24.9-1.4 24.6-1.6c4.4-.3 8.8-.9 13.2-1.6 1.8-.4 3.5-.8 5.3-1.1s3.3-.6 4.9-.9c3.6-.7 7.3-1.6 10.9-2.4 2-.5 4-1.2 6-1.6l5.8-1.3c1.9-.4 3.8-.9 5.6-1.4 1.7-.4 3.4-.8 5.1-1.3s3.3-1 4.9-1.6l5.5-1.8c3.4-1 6.9-1.9 10.4-2.5 1.8-.4 3.7-.8 5.5-1.3 1.6-.4 3.2-.8 4.8-1.3l4.5-1.5c2-.7 3.9-1.5 5.9-2.3 1.3-.5 2.5-1.1 3.7-1.8a42.65 42.65 0 0 0 4.9-3.4c.8-.7 1.2-1.6 1.3-2.6 0-.3 0-.6-.1-.9s0-.4 0-.6c-.4-1.9-2.1-3.3-4-3.3-1.1 0-2.2.4-3 1.1-.6.5-1.2.9-1.8 1.4-1.1.7-2.3 1.4-3.5 1.9-.7.3-1.5.6-2.2.9s-1.5.6-2.3 1c-1.5.5-3 1.1-4.6 1.5-1.7.6-3.4 1-5.1 1.4l-5.5 1.3c-1.9.4-3.8.7-5.7 1.2a105.06 105.06 0 0 0-10.9 3.3c-1.6.6-3.3 1.1-4.9 1.6s-3.4.8-5.1 1.3c-3.8 1-7.6 1.8-11.4 2.6-2 .5-4 1.1-6 1.6l-5.8 1.4-10 2c-1.8.3-3.5.7-5.3 1.1-2 .4-4.1.7-6.2 1l-1.7.2c-4 .4-8 .7-12 1-2.1.1-4.2.3-6.3.4l-5.9.3-12.2.7h-.3c-.5.2-1 .3-1.4.4-.6 0-1.2.1-1.9.1h.2c-.8 0-1.5.1-2.3.1s-1.3.1-1.9.1c-.4 0-.9 0-1.3-.1l-.3-.1-2.9.1-6.9.3c-2 .1-4.1.3-6.1.4-4.1.3-8.2.5-12.4.6-8 .2-16.1.5-24.1.1-2.1-.1-4.3-.3-6.4-.5s-4.3-.3-6.5-.6l-12.5-1.8a201.35 201.35 0 0 1-11.2-2.1c-2.2-.5-4.4-.8-6.5-1.4s-4.1-1-6.1-1.4-4.1-.9-6.2-1.4l-6.5-1.6c-4-1.1-8-2.4-11.9-3.6l-11.8-3.6c-1.9-.6-3.9-1.1-5.8-1.8l-4.9-1.9c-1.6-.6-3.2-1.1-4.8-1.6-1-.3-1.9-.6-2.8-1s-1.9-.8-2.9-1.2-2-.7-3.1-1.1c-.8-.3-1.7-.7-2.5-1-1.4-.6-2.8-1.1-4.2-1.8l-2.8-1.3c-2.7-1.3-5.3-2.7-7.9-4.1-1.1-.6-2.2-1.1-3.3-1.7-1.2-.7-2.4-1.5-3.6-2.3-1-.7-2.1-1.3-3.2-1.9-.9-.5-1.7-1.1-2.5-1.8-.8-.5-1.6-1.1-2.4-1.6s-1.5-.9-2.2-1.4l-.2-.2c-1-.9-2-1.6-3.1-2.4-.8-.5-1.6-1.1-2.4-1.7l.8.7c-.5-.5-1.1-.9-1.6-1.4l-.4-.3c-.1-.1-.3-.3-.4-.5-.4-.5-.9-.9-1.4-1.2-2-1.2-4.6-.7-5.9 1.3-1.1 1.9-.7 4.3 1 5.6.1.1.2.3.3.4.5.5 1 .9 1.6 1.3l-.4-.2c.6.5 1.3 1 1.9 1.6l-.5-.4c.8.6 1.6 1.2 2.4 1.9s1.7 1.1 2.5 1.7l.2.2a11.51 11.51 0 0 0 1.7 1.4c.4.3.9.6 1.4.9.9.6 1.8 1.2 2.8 1.8s1.6 1.2 2.5 1.7c1.2.7 2.4 1.3 3.5 2.1s2.5 1.7 3.8 2.4 2.6 1.3 3.9 2c1.5.7 2.8 1.6 4.3 2.3s3 1.5 4.6 2.2l-.7-.3c3.3 1.6 6.6 3.1 10 4.4 1 .4 2.1.7 3.1 1.1l2.9 1.2c1.7.7 3.6 1.2 5.4 1.8 3.4 1.1 6.7 2.6 10.2 3.6l23.6 7.2 6.3 1.8c2.1.6 4.3 1 6.4 1.5l6 1.4c2 .5 4.3 1.1 6.4 1.5l12.4 2.4 7.2 1.1 5.9.8c2.1.3 4.2.6 6.3.8l6.6.6c4.1.4 8.2.4 12.2.5l.4-.3zM12.8 21.1l5.9-.5h-.5l5.6-.6c.9-.1 1.8-.3 2.7-.5s1.7-.2 2.6-.4l5.3-1.1 2.8-.5 2.8-.4 6.4-1.2 5.5-1 6-1.4 5.5-1.3c1.6-.5 3.3-.9 4.9-1.2l4.6-.9 8-1.8c2.3-.6 3.6-2.9 3.1-5.2-.6-2.3-2.8-3.7-5.1-3.2l-4.1 1-10.4 2.2-5.9 1.5L53.1 6c-1.8.5-3.6.8-5.5 1.2l-6.5 1.2a58.14 58.14 0 0 1-5.8.9c-1.5.2-3 .6-4.4.9L27 11l-4 .6c-1.1.2-2.2.3-3.2.4l-2.5.2.5-.1-4.6.3c-1.1 0-2.2.4-3 1.1-1.7 1.6-1.8 4.3-.3 6 .7.8 1.7 1.3 2.8 1.4l.1.2zm110.6 52.2c1.4-.3 2.8-.7 4.1-1.2l3.9-1.2c2.9-.8 5.7-1.8 8.4-3l-.2.1 4.8-1.9c1.6-.7 3.4-1.2 5-1.8l-1 .4L153 63l-.5.2 3.2-1.2 7.4-2.9 3.3-1.6c1.1-.6 2.2-1 3.3-1.4l5.6-2 5.9-1.7c3.6-1.1 7.2-2.4 10.7-3.7l9.8-3.4c1.9-.6 3.7-1.3 5.5-1.9l5.2-1.7c4-1.3 8-2.4 12-3.6l12.5-3.9c1.2-.4 2.4-.8 3.6-1.3s2.3-.9 3.4-1.4c1.6-.6 3.3-1.2 5-1.7s3.5-.9 5.3-1.5c1.4-.5 2.8-.8 4.2-1.2 1.9-.5 3.7-1.2 5.5-1.9 1-.5 1.8-1.4 2.1-2.5.7-2.2-.6-4.6-2.8-5.3-1.1-.3-2.2-.2-3.2.3l-.6.2c-1.4.5-2.9.9-4.4 1.3-1.8.5-3.5 1.1-5.2 1.6-2.1.5-4.2 1.2-6.2 1.9s-4 1.5-6 2.3c-3.8 1.3-7.6 2.5-11.4 3.7-2.1.7-4.3 1.2-6.4 1.9s-4 1.2-6 1.8c-3.7 1.1-7.4 2.2-11 3.5l-10.1 3.5c-1.9.7-3.9 1.4-5.8 2.2-2.2.8-4.5 1.7-6.8 2.3-1.4.4-2.8.8-4.1 1.1-1.7.5-3.3 1.1-4.9 1.7s-3.4 1.2-5.1 1.9c-1.4.5-2.8 1.1-4.1 1.8-2.5 1.2-5.1 2.3-7.7 3.3l-2.5.9c-1 .3-1.9.7-2.8 1l.7-.3-4.3 1.6.8-.3-9 3.4.6-.2-4.8 1.8c-1.6.6-3.4 1.1-5.2 1.6-2 .6-4 1.5-6.1 1.9-1.1.2-2 .9-2.6 1.8a4.54 4.54 0 0 0-.6 3.2c.3 1.1.9 2 1.9 2.6.7.4 1.5.6 2.3.6.2.1.6.1.8 0h0zm14.2-13.6l.3-.1-.3.1zm13-4.8l.5-.2-.5.2zm36.8-13.5l.4-.2-.4.2zm42 43.4l9.1-3.2 6.1-2.2 3.4-1.1 3.7-1.3c1.2-.4 2.3-.9 3.5-1.4l3.3-1.4 7.8-2.8c2.6-1 5.2-1.8 7.8-2.5s5.4-1.9 8-2.9l3.2-1.2 2.9-1.1 4.7-1.5c2.1-.6 4.1-1.4 6.1-2.2l5.9-2.3-1 .4 3.7-1.5 3.6-1.6 6.9-2.3 9.4-2.8 4.6-1.5 4.2-1.4c1.4-.5 2.8-.9 4.2-1.2l4.5-.8c2-.2 4-.2 6 0 .5.1 1.1.2 1.6.4l1.4.9 1.8 3.9c1.1 2.1 3.7 2.9 5.8 1.7a4.62 4.62 0 0 0 1.7-1.7v-1c0-.3 0-.8-.1-1.2s0-.7 0-1l-.1-.7v.2c0-.2-.1-.3-.1-.5-.1-.3-.1-.5-.2-.7-.1-.3-.2-.6-.2-.9a4.67 4.67 0 0 0-.5-1c-.4-1-.9-1.9-1.6-2.7-.5-.6-1.2-1.1-1.9-1.5-.5-.3-.9-.7-1.4-.9a13.9 13.9 0 0 0-2.8-1.2l-3.1-.5c-1.7-.2-3.4-.3-5-.1-4.3.3-8.5 1.1-12.5 2.5-1.9.7-3.8 1.2-5.6 1.8-2.1.7-4.2 1.3-6.4 1.9s-4 1.1-6 1.8c-1.7.6-3.4 1.2-5.1 1.7-3.2 1-6.3 2.6-9.4 3.8l1-.4c-1.4.5-2.7 1.1-4.1 1.6l-3.4 1.3c-3.2 1.1-6.4 2-9.6 3.2l.5-.2-.6.2-.4.1h.1l-2.2.9-2.4.9-3.9 1.5c-2.3.8-4.6 1.6-7 2.3s-4.9 1.6-7.2 2.5c-2.4.9-5 1.7-7.4 2.7l-5.6 2.4-.6.2c-2.4.9-4.9 1.6-7.4 2.5l-7.7 2.8c-2 .7-3.9 1.4-5.9 2-1.1.3-2 .9-2.6 1.8-.6 1-.8 2.1-.6 3.3.5 1.9 2.2 3.3 4.1 3.3.4.1.7 0 1-.1h0zM287.3 64l.3-.1-.3.1zm.9-.3h0zm10.3-12.5l.5-.2-.5.2z"/><path d="M363.2 47.1v-.3.3zM126.9 72.7c2-1.3 2.5-3.9 1.3-5.9l-.7-.9c-.6-.5-1.3-.9-2-1l-4.9-1.5-6.1-1.8-.9-.3-.5-.2-6.8-2.3c-2.2-.8-4.4-1.9-6.6-2.8-1.1-.5-2.3-.8-3.4-1.1l-1.9-.6c-2.4-.7-4.4-1.7-6.4-2.7l-6.5-3.1-6.8-3.4-3.4-1.8-3.3-1.5-8.4-3.7-4.5-2.5-3.3-1.7-3.5-1.9-4.9-2.7-4.2-2.1c-1.2-.7-2.5-1.2-3.8-1.8l-5.4-3-4-2.2-1.8-.8-1.9-1-1.7-.8c-.3-.2-.6-.3-.9-.5-.9-.4-1.9-.6-2.9-.6-1.1 0-2.2.5-2.9 1.4-1.6 1.7-1.4 4.4.3 6h0c.5.5 1.2.8 1.9.9a11.94 11.94 0 0 0 1.6.8l2.3 1.2 2.2 1c.7.3 1.6.8 2.4 1.2l6.5 3.7c1.2.7 2.6 1.2 3.8 1.9l4 2.1c1.7.8 3.3 1.9 5 2.8l3.5 1.8 3.4 1.7 4.2 2.4c2.8 1.5 5.8 2.5 8.7 3.9l6.6 3.3c2.1 1.2 4.4 2.2 6.6 3.3l6.4 3.1 6 2.7c2 .8 4.1 1.5 6.2 2.1l6.7 2.8c1.8.7 3.7 1.2 5.6 1.8l2.9 1-1-.3 2 .7-.3-.1c4.1 1.4 8.2 2.4 12.3 3.8.3.1.5.1.8.1 1-.2 1.8-.4 2.4-.9h0zM16.8 24.9h-.4.4z"/><path d="M111.7 63.6c.4-.1.9-.3 1.2-.5l.8-.3 1.7-.7c.5-.2 1-.5 1.5-.7l1.7-.7 2.9-1.1 2.8-1.2 4-1.6c1.3-.6 2.6-1.1 4-1.6l.7-.2 9.2-3.5 5-1.9 4.8-1.9 4-1.4 4.4-1.6 8.2-3.7 7.5-3.3 6.8-2.6 6.7-2.7 2.9-1 3.1-1.1 6.7-2.3c.4-.1.7-.3.9-.6s.3-.8.2-1.1c-.1-.4-.3-.7-.6-.9s-.8-.3-1.1-.2l-8.9 3.1-4.5 1.5c-1.5.5-2.9 1.1-4.3 1.7l-5 2.1-4.5 1.6-4.1 1.8-4.3 2-4 1.8-4.4 1.9.4-.1-8.4 3-8.2 3.2.4-.1-8.3 3.2-.2.1.2-.1-1.6.6h-.1l-4.3 1.7-4.1 1.6c-1 .3-1.9.8-2.8 1.2l-3 1.2-3.1 1.3-3.2 1.3h-.4c-.8.2-1.3 1-1.1 1.8.2.7.8 1.2 1.5 1.2.1-.3.2-.3.3-.2h0zm-.5-3h0zm20.9-5.3l.2-.1-.2.1zm.2-.1h0zm43.9-17.5l.3-.1-.3.1zm-42.7 14h0zM101 57.6l3.2-1.4 3.2-1.3 6.4-2.8 1-.4h-.1l8.8-3.5 4.2-1.9 4.2-1.7 4.2-1.8 4.4-1.8 4.1-1.6 4.1-1.8 1.2-.5 4.4-1.6 4.3-1.6 8.9-3.7 4.4-1.9 2-.9 2.2-1 5.3-2.3a1.27 1.27 0 0 0 .7-.9c.2-.8-.2-1.6-1-1.9h0c-.4-.1-.8-.1-1.1.1l-4.7 2-4.2 1.9-2.1.9-6.6 3c-1.5.7-2.8 1.2-4.2 1.7l.4-.1-6.2 2.3-4.4 1.6-4.3 1.8-2.1.8c-.7.2-1.4.5-2 .8l-4.3 1.8-4.2 1.8-4.2 1.6-4.3 1.9-4.2 1.8c-1.4.6-2.7 1-4.1 1.5l.2-.1-1.3.5h.1l-7 3-3.2 1.3-1.7.7c-.6.2-1.2.5-1.8.8-.7.4-1 1.3-.7 2 .3.5.8.8 1.3.8.4.3.6.2.8.1h0zm48.7-20.2h0zm.2-.1h0zm-60 15.8l2.5-1.1 2.7-1.2 5.1-2.2 4.4-1.7 2-.9 2.1-1 3.9-1.9 2.1-1 2.2-.9 4.3-1.9 6.6-2.7 2.2-1 4.2-2 4.4-2 4.5-1.9 4.3-1.8c.8-.3 1.5-.6 2.3-1l2.2-1 3.6-1.8 4.1-2.2c.7-.4 1-1.3.6-2s-1.3-1-2-.6l-8.4 4.4c-.7.4-1.5.7-2.2 1l-2.3 1-2.1.9-2.2.9-4.6 1.9-4.3 2-4.1 1.9-8.8 3.6-4.3 1.9-2.2 1-2 1c-1.3.7-2.7 1.3-4.1 1.9l-3.3 1.5c-1.1.5-2.2.9-3.3 1.3s-2 .7-2.9 1.2l-3 1.3-2.8 1.3-2.8 1.2c-.7.4-1 1.3-.6 2a1.27 1.27 0 0 0 .9.7c.1 0 .3.1.4.1s.4-.1.7-.2h0zm-11.8-3.7l4.3-2 4.2-2 4.3-1.9c.7-.3 1.3-.7 2-1l2.1-1.1 4.4-2 4.3-1.9 4.5-1.9 4.3-1.9 8.8-4.1 4.3-2.2 4.3-2.1 4.8-2.3 2.5-1.1 2.7-1.3c.7-.4 1-1.3.6-2s-1.3-1-2-.6l-2.5 1.2-2 .9c-1.5.6-3 1.4-4.4 2.1l-8.5 4.3c-1.4.8-2.9 1.5-4.4 2.2l-4.5 2-4.4 2-4.2 1.8-9.1 4c-.7.3-1.3.7-2 1l-2.2 1.1c-1.3.7-2.8 1.3-4.2 1.9-.8.3-1.6.6-2.3 1s-1.6.8-2.4 1.2l-4.9 2.2c-.7.4-1 1.3-.7 2 .3.5.8.8 1.3.8l1-.3z"/><path d="M67.9 42.8l8.4-4.1 4.3-2.2c1.4-.7 2.9-1.3 4.4-1.8l1.8-.7h-.1l4.5-1.7c1.5-.6 3-1.4 4.5-2.1l8.3-4.1c1.3-.7 2.7-1.3 4.1-1.9l4.4-2.1 4.3-2 2.2-1c.7-.3 1.3-.7 2-1.1l.7-.4c.4-.2.6-.5.8-.9.1-.4.1-.8-.1-1.1-.4-.7-1.3-1-2-.6s-1.4.9-2.1 1.2c-.7.4-1.4.7-2.2 1.1-1.5.6-2.9 1.4-4.4 2.1l-4.2 2-4.4 2-3.7 1.8-3.9 2-4.1 2-4 1.6-4.4 1.6-2.2.9c-.8.3-1.5.7-2.3 1.1l-4 2.1-4.3 2.1-3.7 1.8c-.7.4-1 1.3-.6 2 .3.5.8.8 1.3.8.2 0 .5-.1.7-.2v-.2zm-12.7-5.7l2.8-1.5 2.9-1.3 6-2.4-.4.1 9.2-3.6c3-1.3 5.7-2.8 8.5-4.2l8.9-4.4 8.6-4.2 2.6-1.1c.9-.3 1.8-.9 2.8-1.3.7-.4 1-1.3.7-2-.4-.7-1.3-1-2-.6l-2.4 1.1-2.1.9-4.5 2.2-4.2 2-4.6 2.3-8.7 4.2-8.6 4-3.4 1.4.4-.1-3.9 1.5-3.2 1.3-3.4 1.5c-1.1.5-2.1 1.1-3.1 1.7-.7.4-1 1.3-.6 2 .3.5.8.8 1.3.8 0-.1.2-.2.4-.3h0zm-9.4-7.6c1.7-.8 3.4-1.4 5.2-2.1l5-2c1.7-.7 3.1-1 4.6-1.6l4.2-1.9 4.6-2 8.8-3.6c1.5-.6 2.9-1.3 4.3-2l4.3-2.1 4.3-2.2c.6-.3 1.2-.5 1.9-.8.4-.1.9-.3 1.3-.4l1.8-.4c.8-.2 1.3-1 1.1-1.8s-1-1.3-1.8-1.1-1.6.3-2.4.6l-2.5.9c-1.4.6-2.8 1.4-4.2 2.1l-4.4 2.2-4.4 2.1-8.8 3.6-8.8 3.8-1.7.7-3.4 1.2-3.5 1.4-6.8 2.8c-.7.4-1 1.3-.7 2 .3.5.8.8 1.3.8.3 0 .5-.1.7-.2h0zm-33.2 16c-.6.8-.5 1.9.3 2.5h0l6.5 4c1 .6 2 1.1 3 1.6l1.5.6c.5.2 1.2.3 1.8.6.9.4 1.9-.1 2.3-.9h0c.4-.9-.1-1.9-.9-2.3l-1.8-.6-1.6-.6-3-1.5-5.6-3.6c-.3-.2-.7-.3-1.1-.3-.6-.1-1.1.1-1.4.5h0zm7.9 3.2h0zm-8.3 7c-.6.8-.4 1.9.3 2.5a32.57 32.57 0 0 0 2.2 1.7 11.74 11.74 0 0 0 2.7 1.5l4.8 2.1 5 2 4.6 1.9.5.2c.4.2.8.5 1.3.7.9.4 1.9-.1 2.3-.9.4-.9-.1-1.9-.9-2.3h0l-.6-.2c-1.2-.7-2.5-1.3-3.9-1.8l-4.2-1.7-4.4-1.8-4.1-1.9-3-2.2c-.3-.2-.6-.4-1-.4-.7 0-1.2.2-1.6.6h0zM6.6 104c-.4.9.1 1.9.9 2.3l2.9 1.1c1 .4 1.9.6 2.8.9 1 .4 2.1.6 3.2.9 1 .2 2 .3 2.9.6l1.6.6c.6.2 1.3.4 1.9.7.9.4 1.9-.1 2.3-.9.2-.4.2-.9 0-1.3s-.5-.8-1-1c-.6-.3-1.2-.5-1.9-.7l-1.9-.7-2.3-.5c-.7-.1-1.3-.3-2-.4-2.5-.7-4.9-1.6-7.3-2.5-.2-.1-.4-.1-.7-.1-.5-.1-1.1.3-1.4 1zm3.9 10c-.8.6-.9 1.7-.3 2.5.3.4.7.6 1.1.7l5.5 1.4 5.6 1.3 5.4.7c1.8.2 3.6.5 5.4.9l.5.1c.8.2 1.6.5 2.4.8.4.2.9.2 1.3 0a1.65 1.65 0 0 0 1-1c.2-.4.2-.9 0-1.3a1.65 1.65 0 0 0-1-1l-2.7-.8-2.9-.6-5.5-.7c-1.9-.2-3.7-.5-5.5-.9l-5.4-1.4-3.8-.9h-.3c-.1-.1-.4 0-.8.2h0zm-.2 8.6c-.9.4-1.3 1.4-1 2.3.2.4.5.8 1 1l4.9 1.6 2.3.8c1 .3 1.9.5 2.9.6.9.2 1.9-.4 2.1-1.4.2-.9-.4-1.9-1.4-2.1h-.2c-.7-.1-1.4-.2-2-.4l-3.4-1.2-3.8-1.2c-.2-.1-.5-.1-.7-.1s-.4 0-.7.1h0zM356 68.1l-3.6 1.8-3.2 1.5-3.4 1.7-3.7 1.9c-.4.3-.6.7-.7 1.2-.1 1 .5 1.9 1.5 2h0c.5 0 .9-.1 1.3-.3l.1-.1 6.2-3.1c1.2-.6 2.1-1 3.2-1.4l3.6-1.8c.4-.2.8-.5 1-.9s.2-.9 0-1.3c-.3-.7-.9-1.1-1.6-1.1-.3-.2-.5-.2-.7-.1h0zm2.1 8.7l-3.5 1.6-3.3 2-4.2 2-4.5 1.8-5 2.2-2.2.9c-.8.3-1.6.4-2.3.8-.9.4-1.3 1.4-1 2.3.4.9 1.4 1.3 2.3 1h0l2.4-.8 2.6-1.1 5-2.2 5.1-2.1c1.7-.8 3.4-1.7 5-2.7l1.8-1.1c1-.6 2.1-1 3.2-1.4.9-.4 1.3-1.4 1-2.3-.3-.7-.9-1.1-1.6-1.1-.4 0-.6 0-.8.2h0zm-.7 12.7l-2.5.9-2.2.8-2.1 1-2.3 1.3c-.5.3-1 .6-1.6.8-.8.4-1.6.6-2.3 1.1-.4.3-.6.7-.7 1.2-.1 1 .5 1.9 1.5 2h0a1.39 1.39 0 0 0 1.1-.2c.4-.2.8-.3 1.2-.5l1.3-.6c1-.5 1.9-1.1 2.8-1.6l3-1.4 4-1.5c.9-.4 1.3-1.4 1-2.3-.3-.7-.9-1.1-1.6-1.1-.2 0-.4.1-.6.1h0zm-5.9 6.2l-.2.1.2-.1zm7 5.7l-3.3.9-2.8 1c-1.8.7-3.7 1.3-5.5 1.8a1.65 1.65 0 0 0-1 1c-.2.4-.2.9 0 1.3a1.65 1.65 0 0 0 1 1c.4.2.9.2 1.3 0l4.7-1.5c.7-.2 1.4-.5 2.1-.8s1.6-.6 2.4-.8l1.5-.4c.5-.1.9-.3 1.2-.7s.4-.8.3-1.3-.3-.9-.7-1.2c-.3-.2-.6-.3-1-.4l-.2.1zm-1 13.7l-6.9 2.2c-1.1.3-2.2.7-3.2 1.1s-1.9.6-2.9.8a40.48 40.48 0 0 1-4.8.9c-.8.2-1.7.3-2.5.4-.7.2-1.4.3-2.2.3-.5 0-.9.3-1.2.7-.6.8-.4 1.9.3 2.4.4.3.8.4 1.3.3a8.33 8.33 0 0 0 2.2-.3c.4-.1.8-.1 1.1-.2s.9-.2 1.4-.2l4.9-1c1.8-.4 3.5-1 5.3-1.6l5-1.6 3.5-1.1c.9-.4 1.3-1.4 1-2.3a1.65 1.65 0 0 0-1-1c-.2-.1-.4-.1-.6-.1-.3.1-.5.1-.7.3h0zm1.3 16.4l-4.9 1.6-2.4.6a1.65 1.65 0 0 0-1 1c-.2.4-.2.9 0 1.3a1.65 1.65 0 0 0 1 1c.4.2.9.2 1.3 0l1.1-.3c1-.2 1.9-.5 2.9-.8 1.1-.3 2.2-.7 3.3-1.1.9-.4 1.4-1.4 1-2.3h0c-.3-.7-.9-1.1-1.6-1.1-.3 0-.5.1-.7.1h0z"/><path d="M98.3 135.3l7.7-34c.1-.5.4-.7.9-.6l10.2 2.3c8.1 1.8 11.1 7.4 9.6 14.1-1.5 6.6-6.6 10.4-14.7 8.6l-5.3-1.2-2.7 12.1c-.1.5-.5.7-.9.6l-4.2-1c-.5-.1-.7-.5-.6-.9zm14.6-14.8c3.8.8 7.2.1 8.3-4.7s-1.7-7-5.5-7.8l-5-1.1-2.8 12.5 5 1.1zm14.3 20.9l3.7-23.6c.1-.5.4-.7.8-.7l3.9.6c.5.1.7.3.6.9l-.3 3.1c1.3-2.4 3.3-4.1 6.3-3.6 1.1.2 1.9.6 2.2.9s.4.6.3 1l-.5 3.2c-.1.6-.5.7-1.1.4-.6-.2-1.1-.4-1.8-.5-4-.6-6 2.3-6.5 5.6l-2.1 13.6c-.1.5-.4.7-.8.7l-4.1-.6a1 1 0 0 1-.6-1zm18.8-9.1c.6-7.5 6.7-12.8 14.3-12.2 7.5.6 12.6 6.9 12 14.4s-6.7 12.8-14.2 12.2c-7.6-.6-12.7-6.9-12.1-14.4zm20.9 1.7c.4-4.9-2.7-8.4-7-8.8-4.4-.4-8 2.6-8.5 7.5-.4 4.9 2.7 8.4 7.1 8.8 4.3.4 8-2.6 8.4-7.5zm4.8 22.8c-.3-.2-.5-.4-.5-.7l.1-3.5c0-.4.3-.4.7-.3l1.9.3c2.7.1 3.3-1.5 3.4-3.6l.6-26.4c0-.5.3-.8.7-.8l4.2.1c.5 0 .7.3.7.8L183 150c-.1 5.2-3 7.7-8 7.6-1.2-.1-2.2-.2-3.3-.8zm6-43.8c0-1.8 1.5-3.2 3.3-3.1 1.8 0 3.2 1.5 3.2 3.3s-1.5 3.2-3.3 3.2a3.4 3.4 0 0 1-3.2-3.4zm10.5 21.7c-.3-7.5 4.7-13.4 12.5-13.7 7.6-.3 12.3 5.3 12.5 11.7.1 2.2-.3 3.3-2.3 3.4l-17.1.6c.8 4 3.9 6.6 9 6.4 2.5-.1 4.5-.8 6.5-2.2.3-.2.6-.2.8.1l1.5 1.9c.3.4.2.7-.2 1.2-2.2 2.3-5.4 3.4-9 3.5-8.3.4-13.9-5.3-14.2-12.9zm20-2.6c-.5-4.1-3.3-6.5-7.3-6.4s-6.9 2.7-7.3 6.9l14.6-.5zm8.4 1.5c-.9-7.5 4.1-13.9 11.7-14.7 4.1-.5 7.7.8 10.2 3.3.4.4.4.7.1 1.1l-2.1 2.5c-.4.5-.9.4-1.2.1-1.7-1.3-3.5-2.1-6.1-1.8-4.8.5-7.7 4.3-7.1 9 .5 4.7 4.2 7.8 9.1 7.2 2.6-.3 4.2-1.5 5.4-3.1.3-.4.8-.6 1.3-.2l2.6 2c.3.3.4.6.1 1.1-1.9 2.9-5 5-9.1 5.5-7.7.7-14-4.4-14.9-12zm31.5 2.8l-2.7-14.8-3.2.6c-.5.1-.8-.2-.9-.6l-.5-2.9c-.1-.5.1-.8.6-.9l3.2-.6-1.1-5.9c-.1-.5.1-.8.6-.9l4.1-.7c.5-.1.8.2.9.6l1.1 5.9 4-.7c.5-.1.8.2.9.6l.5 2.9c.1.5-.2.8-.6.9l-4 .7 2.6 14.2c.3 1.7 1.3 2.3 2.7 2l1.6-.4c.6-.2 1 0 1 .6l.5 2.7c.2 1-2 1.7-3.5 2-3.8.6-7-.7-7.8-5.3zm15.1-.3c-.4-.3-.5-.8-.3-1.4l.9-2.1c.2-.6.7-.6 1.2-.4 2.2 1.1 4.2 1.8 6.5 1.2 2.2-.5 3.6-1.9 3.1-3.8-.4-1.7-1.8-2.3-4-2.7l-3.3-.5c-3.4-.5-6.3-1.9-7.1-5.4-1.1-4.5 2.1-8 6.5-9 3-.7 6.2-.1 8.7 1.8.4.3.4.7.2 1.1l-1.1 2.2c-.3.6-.7.6-1.2.3-1.9-1.1-3.6-1.4-5.2-1-1.9.5-3 1.7-2.6 3.4s1.9 2.2 4 2.5l3.3.5c3.5.5 6.5 1.9 7.4 5.7 1.1 4.9-2.4 8.4-7.2 9.5-4.2.9-7.6-.2-9.8-1.9z" enable-background="new"/></svg>