<?xml version="1.0" encoding="utf-8"?>
<!-- Generator: Adobe Illustrator 24.3.0, SVG Export Plug-In . SVG Version: 6.00 Build 0)  -->
<svg version="1.1" id="Layer_1" xmlns:v="https://vecta.io/nano"
	 xmlns="http://www.w3.org/2000/svg" xmlns:xlink="http://www.w3.org/1999/xlink" x="0px" y="0px" viewBox="0 0 1125.6 1170.5"
	 style="enable-background:new 0 0 1125.6 1170.5;" xml:space="preserve">
<style type="text/css">
	.st0{opacity:0;}
	.st1{fill:#FFFFFF;}
</style>
<rect x="0" y="0.5" class="st0" width="1125.5" height="1169.6"/>
<path class="st1" d="M148.9,994.5l-0.3,0.2L148.9,994.5z M469.7,243.5c-0.9,0-1.7,0.8-1.7,1.7l-0.1,2.9c0,0.6-0.1,1.3-0.1,1.9v0.1
	l-0.3,2.9v0.2l-0.2,1.7c0,0.3,0,0.7-0.1,1l-0.6,5.5l-0.5,5.1l-0.2,5.5l0.1,3.9c0,0.5,0,0.9,0.1,1.4v5.3c0,0.5,0,1,0,1.4l-0.2,4v0.4
	l-0.4,7.8l-0.6,8.2c0,0.4,0.1,0.8,0.4,1.1c0.3,0.4,0.8,0.6,1.3,0.6c0.5,0,0.9-0.2,1.2-0.5c0.3-0.3,0.5-0.8,0.5-1.2l0.4-5.7l0.1-3
	v-0.1l0.1-2.2l0.2-4l0.1-1.4l0.2-4c0-0.5,0-1,0-1.4v-5.3c0-0.5,0-1-0.1-1.5l-0.1-3.7c0-3.6,0.2-7.1,0.6-10.6l0.5-4l0.2-1.7l0.2-2.3
	l0.4-3.8l0.1-3.2v-1c0-0.4-0.1-0.8-0.4-1.1C470.6,243.7,470.2,243.5,469.7,243.5L469.7,243.5z"/>
<path class="st1" d="M493.5,302.9l-1.3,0.1l-2.3,0.1l-4.8,0.3l-4.9,0.1c-0.8,0-1.7,0.1-2.5,0.2c-0.8,0.1-1.6,0.2-2.5,0.3h-1
	c-0.9-0.1-1.9-0.1-2.8-0.1L468,304c-0.9,0.1-1.6,0.9-1.5,1.8c0,0.1,0,0.2,0,0.2c0.4,0,0.8,0,1.1,0c0.2,0,0.4-0.1,0.6-0.1
	s0.5,0,0.8,0.1h1.6l2-0.1l3.3-0.1l2.9-0.1h1.7c0.6,0,1.3-0.1,2-0.1l1.6-0.1c0.5-0.1,1.3-0.1,2-0.1l2-0.1c0.7,0,1.4,0,2.1-0.1
	l3.2-0.2h1.5l0.7-0.1v-2c-0.3-0.2-0.7-0.2-1-0.2h-0.1C494.2,302.8,493.8,302.9,493.5,302.9L493.5,302.9z"/>
<path class="st1" d="M466.5,306.1L466.5,306.1z M475.1,242.5c-0.2,0-0.5,0-0.7,0.1l-1,0.1l-2.3,0.4h-0.4c-0.9,0.1-1.6,0.9-1.5,1.9
	c0,0.3,0.2,0.6,0.4,0.9c-0.2,0.2-0.3,0.5-0.5,0.8c-0.4,0.9-0.7,1.8-0.9,2.8c-0.2,1.6-0.3,3.2-0.3,4.8l-0.1,5v2.8l0.1,3.1l0.3,3.3v3
	l0.1,3l-0.1,2.1v2.3l-0.1,3.4v3.1c0,1.6-0.2,3.1-0.3,4.7l-0.2,2.2l-0.2,2.4l-0.2,2.4l-0.2,2.3l-0.1,2c-0.1,0.8-0.1,1.6,0,2.3
	c0.1,0.6,0.4,1.2,0.9,1.6c0.5,0.4,1.2,0.5,1.8,0.4c0.5,0,1.1,0,1.6-0.1c0.8-0.1,1.6-0.3,2.3-0.6l0.8-0.3c0.7-0.3,1.2-0.8,1.6-1.5
	c0.3-0.6,0.5-1.3,0.7-1.9c0.1-0.5,0.2-0.9,0.2-1.4c0.1-0.6,0.1-1.2,0-1.8c-0.1-0.6-0.1-1.2-0.1-1.8v-6.4l0.2-4.5
	c0-0.8,0.1-1.5,0.2-2.3l0.1-2.3v-0.1c0-1.5,0.2-3,0.3-4.5l0.1-2.5v-2.4l0.1-3.5v-3.1l0.1-3.4v-2.7l0.1-4v0.4c0-1.5,0.2-3.1,0.2-4.6
	c0.1-0.9,0.1-1.7,0-2.6l-0.1-2.2c0-0.3,0-0.6,0-0.9c0-0.5-0.2-0.9-0.5-1.3c-0.4-0.5-0.9-0.8-1.5-0.9c-0.2,0-0.4-0.1-0.7-0.1
	L475.1,242.5z M474.6,246L474.6,246l0,0.4h0C474.6,246.3,474.6,246.1,474.6,246L474.6,246z"/>
<path class="st1" d="M484.2,297.2c-1.5,0.1-2.9,0.4-4.4,0.5l-2.2,0.1l-2.1,0.3c-0.7,0.1-1.5,0.3-2.2,0.5c-0.4,0.1-0.8,0.3-1.1,0.6
	c-0.6,0.7-0.5,1.8,0.3,2.4l0,0c0.3,0.3,0.8,0.4,1.2,0.4l1.8-0.4c0,0.2,0,0.3,0.1,0.4c-0.1,0.1-0.3,0.1-0.4,0.2
	c-0.3,0.2-0.5,0.4-0.6,0.8c-0.3,0.6-0.2,1.2,0.2,1.8c0.2,0.3,0.4,0.5,0.7,0.6c0.2,0.1,0.5,0.2,0.7,0.2c0.6,0.2,1.2,0.3,1.8,0.4h2.7
	c0.7,0,1.3-0.1,2-0.1l1.6-0.1c0.5-0.1,1.3-0.1,2-0.1l2-0.1l2.1-0.1l3.2-0.2h1.5l0.7,0v-0.6l0-1.8v-0.2c0,0,0-0.1,0-0.1l0,0l0-3.9
	l-0.1-1.3c-0.3-0.1-0.7-0.2-1-0.3c-0.5-0.1-1-0.1-1.5-0.1h-0.9c-2.7,0-5.3,0.4-8,0.5L484.2,297.2z M502.9,249.8l-0.3,1.7v1.1
	l0.1,2.4v-0.2v1.7l0.1,2.5v3.7l0.1,1.2v-0.3c0,0.6,0.1,1.2,0.1,1.8c0,0.3,0.1,0.7,0.1,1c0,0.3,0.1,0.7,0,1v2.9l0.3,5v1.8
	c0,0.7,0.1,1.3,0.1,1.9l0.1,2.3l0.1,2.8c0,0.9,0.1,1.8,0.2,2.6c0,0.4,0.1,0.8,0.1,1.2l0.1,1.6l0.3,3.3l0.2,2.8
	c0.1,1.1,0.2,2.1,0.2,3.2c0,0.5,0.1,1,0.1,1.4c0,0.2,0,0.4,0.1,0.6c0.3,0.2,0.6,0.4,1,0.6c0.6,0.3,1.3,0.4,2,0.4c0.5,0,1.1,0,1.6,0
	c0.9-0.1,1.8-0.3,2.7-0.6c0.8-0.2,1.7-0.4,2.6-0.6l1.6-0.4c0.9-0.3,1.3-1.3,1-2.2c-0.1-0.4-0.4-0.8-0.8-1c-0.4-0.2-0.9-0.2-1.3-0.1
	l-1.3,0.3l-1.4,0.3l-2.6,0.7c-0.5,0.1-1,0.1-1.6,0.1c-0.4,0-0.7-0.1-1.1-0.2l-0.4-0.2L507,298l-0.3-0.5c-0.1-0.3-0.2-0.6-0.3-0.9
	c-0.2-1.5-0.3-3-0.5-4.5l-0.3-4.6v-5.1l0.1-4.9l0.1-4.8l0.1-4.5l0.1-2.3l-0.1-2.5l-0.2-4.7c-0.2-1.5-0.2-3.1-0.2-4.6
	c0-0.5,0.1-1,0.2-1.4l0.4-2.1c0.2-0.9-0.3-1.8-1.2-2c-0.9-0.2-1.8,0.3-2,1.2C502.9,249.7,502.9,249.7,502.9,249.8L502.9,249.8z
	 M502.8,258.5L502.8,258.5z"/>
<path class="st1" d="M512.5,270.4l-4.7,1.3l-2.1,0.4c-0.4,0-0.8,0.3-1.1,0.6c-0.6,0.7-0.5,1.8,0.2,2.4c0.3,0.3,0.8,0.4,1.2,0.4
	c1.4-0.2,2.7-0.5,4.1-0.8l3.6-1c0.9-0.3,1.3-1.3,1-2.1c-0.1-0.4-0.5-0.8-0.9-1c-0.2-0.1-0.5-0.2-0.7-0.2
	C512.8,270.2,512.6,270.3,512.5,270.4L512.5,270.4z M511,247.3h-0.7c-0.6,0-1.2,0.1-1.8,0.2l-4.1,0.6c-0.9,0.1-1.6,0.9-1.5,1.8
	c0.1,0.9,0.9,1.6,1.8,1.5l2.7-0.4l2.4-0.4c0.4-0.1,0.7-0.1,1.1-0.1h0.3c0.2,0,0.5,0,0.7,0.1c0.9,0.2,1.8-0.4,2-1.3
	c0.2-0.9-0.4-1.8-1.3-2c0,0,0,0,0,0c-0.3,0-0.7-0.1-1-0.1L511,247.3L511,247.3z"/>
<path class="st1" d="M514.2,246.6l-2.6,0.1H511c-0.4,0.1-0.8,0.1-1.2,0.3l-1.4,0.4c-0.6,0.1-1.3,0.2-2,0.3c-0.7,0.1-1.4,0.5-1.9,1.1
	c-0.4,0.6-0.6,1.2-0.6,1.8c-0.1,0.7-0.1,1.5-0.1,2.2c0,0.8,0,1.6,0,2.4l0.2,2.1l0.1,2.4l0.3,4.8l0.4,9.8v2.4c0,0.8,0.1,1.6,0.2,2.5
	l0,2.5l0.1,2.6l0.3,4.8l0.2,5.1l-0.1,1.7c0,0.3,0,0.7-0.1,1c0,0.3,0,0.5,0,0.8c0,0.2,0.1,0.4,0.1,0.5c0.1,0.3,0.3,0.5,0.5,0.7
	c0.5,0.4,1.1,0.5,1.7,0.2c1-0.4,1.2-1.5,1.3-2.4l0.1-2.1l0.1-3.9v0.2v-11l0.1-3.2v-10.9c0-0.8-0.1-1.6-0.2-2.3l-0.4-4.2
	c-0.1-1.4,0-3.1-0.1-4.5V254l0.5-0.1c1-0.2,2-0.4,3-0.5l3.4-0.4c0.5,0,0.9,0.1,1.4,0.2c0.5,0,1,0,1.5-0.2c0.6-0.2,1-0.7,1.2-1.2
	c0.1-0.3,0.2-0.6,0.3-0.9c0-0.3,0-0.5,0-0.8c0-0.2-0.1-0.4-0.2-0.6c0-0.1-0.1-0.2-0.2-0.3l0-0.2c0-0.2-0.1-0.4-0.2-0.6
	c-0.2-0.4-0.4-0.8-0.7-1.1c-0.5-0.4-1-0.6-1.6-0.6h-0.5C516,246.4,515.1,246.5,514.2,246.6L514.2,246.6z M516.6,249.2v0.1V249.2z
	 M520.1,249.3L520.1,249.3z M509.6,290.7L509.6,290.7z"/>
<path class="st1" d="M515.7,268.7c-0.4,0-0.8,0.1-1.2,0.2l-1.7,0.5c-1,0.2-1.9,0.4-2.8,0.8l-1.2,0.6l-1.4,0.6
	c-0.9,0.3-1.3,1.3-0.9,2.2c0.3,0.6,0.9,1.1,1.5,1.1v0.1c-0.1,0.9,0.5,1.8,1.4,1.9c0,0,0,0,0,0l0,0c0.4,0.1,0.9-0.1,1.2-0.3l0.1,0
	l-0.4,0.2c0.5-0.2,1-0.4,1.5-0.5l1.8-0.6c0.5-0.1,0.9-0.1,1.4-0.1h1.4c0.7,0,1.4-0.3,1.9-0.9c0.7-0.8,0.5-2,0.4-3
	c0-0.2,0-0.4-0.1-0.6c0-0.3-0.1-0.5-0.2-0.8c-0.1-0.4-0.4-0.7-0.7-0.9c-0.4-0.4-1-0.6-1.6-0.6C516,268.6,515.8,268.6,515.7,268.7
	L515.7,268.7z M505.2,291.8c-0.2,0.1-0.3,0.2-0.5,0.3c0,0.2,0,0.5,0.1,0.7l0.2,2.8c0.1,1.1,0.2,2.1,0.2,3.2c0,0.5,0.1,1,0.1,1.4
	l0.2,2.1l0.2,2c0.3,0.1,0.6,0.1,0.9,0.1c0.2,0,0.5-0.1,0.7-0.2l1.2-0.4l1.7-0.5c0.8-0.2,1.6-0.3,2.4-0.4l2.7-0.4
	c0.5-0.1,1-0.2,1.4-0.4l1-0.3c0.5-0.2,1-0.5,1.4-0.9c0.3-0.4,0.5-0.9,0.5-1.4v0c0-0.2,0.1-0.4,0.1-0.7l0.1-0.8
	c0.1-0.8,0.1-1.6,0.1-2.4v0.4c0-1.3,0-2.8-1.3-3.4c-0.9-0.2-1.8-0.2-2.6,0.1h0.1l-0.8,0.2l-1.4,0.3l-1.2,0.4c-0.7,0.1-1.3,0.3-2,0.6
	l-1.7,0.5l-0.9,0.2c-0.3,0-0.6,0.2-0.9,0.4c0-0.4,0.1-0.9,0.1-1.3c0.5-0.7,0.4-1.8-0.4-2.3c-0.3-0.2-0.7-0.3-1-0.3
	C505.6,291.6,505.4,291.7,505.2,291.8L505.2,291.8z M508.3,298.5c0.9-0.2,1.7-0.4,2.6-0.7l1.8-0.6l2.5-0.7l1.2-0.3v0.2
	c0,0.2,0,0.5,0,0.7c0,0.2-0.1,0.6-0.1,0.9c0,0.2,0,0.4-0.1,0.6v0.1l-1.5,0.4c-0.8,0.1-1.6,0.2-2.4,0.3c-0.8,0.1-1.6,0.2-2.5,0.4
	c-0.8,0.2-1.6,0.4-2.4,0.7c0-0.4,0-0.8-0.1-1.2c0-0.4,0-0.7-0.1-1.1c0.3,0.2,0.6,0.3,0.9,0.3h0.2L508.3,298.5z"/>
<path class="st1" d="M515.8,296.3l-0.4,0.1c-0.5,0.1-1,0.1-1.5,0.2l-2,0.4c-0.7,0.1-1.3,0.2-2,0.3l-2.1,0.1c-0.9,0.2-1.5,1.1-1.3,2
	c0.2,0.8,0.9,1.4,1.7,1.4l0,0c0.8,0,1.5-0.1,2.3-0.2c0.7-0.1,1.4-0.2,2.1-0.3l2.1-0.4c0.3,0,0.7,0,1-0.1c0.4-0.1,0.8-0.2,1.2-0.4
	c0.9-0.4,1.3-1.3,0.9-2.2c-0.2-0.4-0.5-0.7-0.9-0.9c-0.2-0.1-0.4-0.1-0.6-0.1c-0.2,0-0.4,0-0.7,0.1L515.8,296.3z M567.3,245.5
	c-0.4,0-0.8,0.2-1.1,0.6c-0.3,0.3-0.5,0.8-0.4,1.2l0.4,2.3l0.2,2.1l0.2,4c0,0.8,0.1,1.5,0.1,2.3l0.1,2.3v4.3l-0.3,4.7
	c-0.1,1.7-0.1,3.4,0,5.1l0.2,4.9c0,1.7,0,3.5,0.2,5.2l0.3,2.9l0.2,2.9l0.3,2.6l0.1,1.5c0,0.5,0,1,0.1,1.4c0.1,0.9,0.9,1.6,1.8,1.5
	c0.9-0.1,1.6-0.9,1.5-1.8l-0.2-2.5l-0.3-2.3c-0.3-1.7-0.3-3.4-0.5-5.1l-0.2-2.6l-0.1-2.6l-0.1-5c0-0.6-0.1-1.3-0.2-1.9
	s0-1.3-0.1-1.9l0.1-3.9l0.2-4.7v-2.6c0-0.9-0.1-1.8-0.1-2.7l-0.3-5.1c-0.1-1.7-0.3-3.3-0.5-4.9l-0.1-0.6c0-0.4-0.3-0.8-0.6-1.1
	c-0.3-0.3-0.7-0.4-1.1-0.4L567.3,245.5z M569.9,267.9L569.9,267.9z"/>
<path class="st1" d="M573.9,244.1l-5.7,1.1c-0.4,0-0.8,0.3-1.1,0.6c-0.3,0.3-0.4,0.8-0.4,1.2c0,0.4,0.2,0.8,0.6,1.1
	c0.3,0.3,0.8,0.5,1.2,0.4l5.2-1l2.3-0.4c0.8-0.1,1.5-0.1,2.3-0.1c1.9,0.1,3.7,0.5,5.5,1l3.6,1.5c1.2,0.5,2.3,1.1,3.4,1.8
	c0.7,0.5,1.4,1.1,2.1,1.7l1.8,1.8c0.4,0.4,0.7,0.9,1.1,1.4c0.4,0.6,0.7,1.2,1,1.8c0.4,0.8,0.8,1.7,1.1,2.6c0.3,1,0.6,2,0.8,3
	l0.2,1.8c0,0.5,0,1.1,0,1.6c0,0.6-0.1,1.2-0.2,1.8l-0.3,2c-0.1,0.6-0.3,1.5-0.5,2.2l-0.5,1.9c-0.4,1.2-1,2.4-1.5,3.6
	c-1.4,3.2-3.5,6.1-6.2,8.4c-0.5,0.4-1,0.8-1.5,1.1c-0.6,0.4-1.3,0.8-2,1.2l-4.3,2.4l-1.8,0.9c-0.8,0.3-1.5,0.6-2.3,0.8l-2.6,0.8
	l-2.3,0.5h0c-0.4,0-0.8,0.2-1.1,0.6c-0.6,0.7-0.5,1.7,0.1,2.4c0.3,0.3,0.8,0.4,1.2,0.4c0.9-0.1,1.8-0.4,2.8-0.6s1.6-0.5,2.4-0.7
	l2.3-0.7c0.7-0.3,1.3-0.6,2-0.9l4.7-2.4l2-1.2c0.7-0.4,1.3-0.8,1.9-1.3c1.3-1,2.5-2.2,3.6-3.5c1.2-1.3,2.2-2.8,3.1-4.4l1.2-2.4
	l1.1-2.5c0.4-0.9,0.7-1.8,0.9-2.7l0.6-2.5c0.2-0.8,0.3-1.6,0.4-2.3s0.2-1.5,0.2-2.3c0.1-0.9,0.1-1.7,0-2.6c-0.1-0.9-0.2-1.9-0.4-2.8
	c-0.4-1.6-0.9-3.2-1.5-4.8c-0.4-0.8-0.8-1.6-1.2-2.4c-0.4-0.7-0.9-1.4-1.4-2.1c-1.2-1.4-2.5-2.7-3.9-3.8c-1.4-1-2.9-1.9-4.5-2.7
	c-1.7-0.8-3.4-1.5-5.2-2.1c-1.6-0.5-3.3-0.8-5-0.9c-0.5,0-0.9-0.1-1.4-0.1c-1.3,0-2.6,0.1-3.8,0.4V244.1z M599,266.8L599,266.8z"/>
<path class="st1" d="M569.7,245.2c-0.7,0.1-1.3,0.5-1.5,1.1c-0.2,0.3-0.3,0.7-0.4,1.1c-0.1,0.5-0.2,0.9-0.2,1.4v7.7l0.1,5.1
	c0,3.4,0.3,6.8,0.5,10.2c0.1,1.7,0.2,3.4,0.4,5.1s0.5,3.4,0.7,5.1c0.1,1,0.2,2,0.4,3.1l0.3,2.8v2c0,0.9-0.1,1.8-0.1,2.6v2.6
	c0,0.3,0,0.6,0,0.8c0,0.7,0.4,1.2,1,1.5l0.5,0.2c0.2,0,0.4,0,0.6,0h0.3l2.4-0.2c0.9-0.1,1.6-0.9,1.6-1.8s-0.9-1.6-1.8-1.6l-1.3,0.1
	v-1.1c0-0.9,0-1.9,0.1-2.8v0.2c0-0.6,0.1-1.3,0.1-1.9c0.1-0.2,0.1-0.4,0.1-0.6v-0.9c0.1-1.6,0.2-3.2,0.1-4.8v-4.7c0-1.5,0-3-0.1-4.5
	l-0.3-4.6l-0.5-7.4c-0.1-0.8-0.1-1.6-0.2-2.5c0-1.7-0.1-3.3-0.1-5v-2.3c0-0.8,0-1.5-0.1-2.3c0-0.8-0.1-1.6-0.4-2.4
	c-0.2-0.4-0.5-0.8-0.8-1.1c-0.3-0.3-0.7-0.4-1.2-0.4L569.7,245.2L569.7,245.2z"/>
<path class="st1" d="M578.6,246.5c-1.2,0-2.5,0.1-3.7,0.2l-1.8,0.2c-0.9,0.1-1.7,0.3-2.5,0.7c-0.4,0.1-0.8,0.4-1,0.8
	c-0.4,0.8-0.1,1.8,0.7,2.3c0.4,0.2,0.8,0.3,1.3,0.1c0.5-0.2,1.1-0.4,1.7-0.6c0.3,0,0.7,0,1-0.1s0.9-0.1,1.3-0.1
	c0.9-0.1,1.7-0.1,2.6-0.2c0.9-0.1,1.7-0.1,2.6,0l2.6,0.1c0.7,0.1,1.4,0.3,2,0.6h-0.1l0.2,0.1c0.9,0.4,1.7,0.8,2.5,1.2
	c0.8,0.4,1.6,0.9,2.3,1.5l1,0.8c0.9,0.7,1.7,1.4,2.4,2.1c0.8,0.7,1.6,1.5,2.3,2.4l0.8,1.1l0.7,1.1c0.1,0.2,0.1,0.3,0.1,0.5
	c0,0.2,0,0.5,0.1,0.7l0.2,1.1c0,0.4,0,0.8,0,1.2c0,0.4-0.1,0.8-0.1,1.2l-0.1,1.2l-0.1,1.6c0-0.1,0-0.3,0-0.4l-0.2,2.1
	c-0.1,0.5-0.2,0.9-0.3,1.3l-0.5,1.7c-0.2,0.5-0.5,1.1-0.7,1.7c0-0.1,0.1-0.1,0.1-0.2c-0.2,0.6-0.5,1.1-0.8,1.6l-1,1.6l-0.6,0.8
	l-1,1.4c-0.4,0.5-0.8,0.9-1.2,1.4c-0.5,0.5-0.9,1-1.5,1.5c-1.2,0.9-2.5,1.7-3.8,2.5l-3.4,1.8l-1.8,0.8l-2.7,1l-2.9,0.9
	c-1,0.3-1.8,0.4-2.8,0.6c-0.4,0.1-0.8,0.2-1.1,0.3c-0.6,0.1-1.1,0.4-1.5,0.8c-0.4,0.4-0.6,1.1-0.4,1.6c0.1,0.3,0.3,0.6,0.5,0.8
	c0.2,0.2,0.5,0.4,0.9,0.5c0.3,0.1,0.7,0.1,1,0.1h1.2c0.8,0,1.6,0,2.4-0.1c1.8-0.3,3.5-0.7,5.2-1.5c0.8-0.3,1.5-0.6,2.3-1l2.6-1.1
	l4.3-2.1l0.9-0.4l0.7-0.3c0.5-0.2,1-0.5,1.3-1c0.1-0.3,0.2-0.5,0.2-0.8c0-0.3-0.1-0.6-0.2-0.8l-0.2-0.2c0.4-0.4,0.8-0.8,1.2-1.2
	c0.4-0.4,0.8-0.8,1.1-1.3c0.4-0.6,0.8-1.2,1.2-1.7l0.6-0.8l1-1.5c0.3-0.4,0.6-0.9,0.8-1.4c0.2-0.4,0.4-0.8,0.5-1.2l0.8-1.8
	c0.2-0.6,0.4-1.3,0.6-1.9c0.2-0.6,0.3-1.3,0.4-1.9c0-0.5,0.1-1.1,0.1-1.6c0,0.1,0,0.3,0,0.4l0.3-3.8c0-0.5,0.1-1.1,0.1-1.6
	c0-0.6-0.1-1.2-0.2-1.8l-0.2-1.3c-0.1-0.6-0.3-1.1-0.7-1.6c-0.7-1.1-1.4-2.1-2.2-3.1c-0.4-0.4-0.9-0.9-1.3-1.3l-1.2-1.1l-1.2-1.1
	c-0.5-0.4-1.1-0.8-1.6-1.2l-1.3-0.9c-0.4-0.3-1-0.6-1.5-0.9c-1.1-0.7-2.3-1.3-3.5-1.8h0.1c-0.6-0.3-1.3-0.5-2-0.6
	c-0.7-0.1-1.5-0.2-2.2-0.2c-0.6,0-1.2,0-1.8-0.1L578.6,246.5L578.6,246.5z M596.4,280.8l-0.1,0.1L596.4,280.8z M586.8,247.5
	l-0.2-0.1L586.8,247.5z"/>
<path class="st1" d="M572.5,248.1c-0.9,0.1-1.8,0.4-2.7,0.9c-0.8,0.5-1.1,1.5-0.6,2.3s1.5,1.1,2.3,0.6c0,0,0,0,0.1,0l0.3-0.1
	c0.2-0.1,0.5-0.2,0.8-0.2c0.6,0,1.1,0,1.7,0l2,0.1c1.1,0,2.3,0,3.4,0.1l2.9,0.5c1.1,0.2,2.2,0.6,3.3,1l1.5,0.6
	c0.6,0.3,1.3,0.7,1.8,1.1h-0.1c0.4,0.3,0.8,0.6,1.2,0.8l1.2,0.7c0.5,0.4,1,0.9,1.5,1.3c0.6,0.5,1.1,1,1.6,1.6l-0.3-0.4l0.9,1.1
	c0.2,0.3,0.4,0.7,0.6,1l0.5,0.9c0,0.1,0,0.2,0.1,0.4l0.2,1.7v1.1c0,0.4,0.1,0.7,0.1,1.1c0,0.3,0,0.6,0,0.9c0,0.5,0,0.9,0.1,1.4
	c0,0.5,0,1,0,1.4l-0.1,1.6c0,0.2,0,0.4-0.1,0.6c-0.1,0.6-0.2,1.1-0.4,1.7l-0.6,1.8c-0.3,0.7-0.7,1.4-1.1,2.1
	c-0.6,0.7-1.2,1.4-1.9,2.1c-0.6,0.6-1.2,1.2-1.8,1.7l-3.2,2.4c-0.5,0.4-1.1,0.7-1.6,1.1c-0.7,0.4-1.4,0.7-2.1,1l-2,1
	c-0.7,0.4-1.2,0.7-1.8,1l-2.2,1l-2,1l-1.4,0.6l-0.4,0.2c-0.8,0.5-1.1,1.5-0.6,2.3c0.2,0.3,0.4,0.5,0.6,0.6c0.4,0.2,0.8,0.3,1.3,0.1
	l2.6-1.1l2.1-1.1l2-0.9c0.6-0.3,1.2-0.6,1.8-1l4.1-2c1.1-0.7,2.2-1.5,3.3-2.3c1.1-0.8,2.2-1.7,3.2-2.6c1.1-1.1,2.2-2.2,3.1-3.4
	c0.4-0.6,0.7-1.2,1-1.8c0.3-0.7,0.6-1.4,0.8-2.1l0.5-1.7c0.1-0.7,0.2-1.3,0.2-2v0.2l0.1-2.1c0-0.6,0-1.1,0-1.7
	c-0.1-0.5-0.1-1-0.1-1.5c0-0.4,0-0.9-0.1-1.3c-0.1-0.6,0-1.3-0.1-1.9l-0.3-2.2c-0.2-0.8-0.6-1.5-1-2.1c-0.1-0.3-0.3-0.6-0.5-0.9
	l-0.9-1.1l-0.6-0.8c-0.3-0.3-0.5-0.5-0.8-0.8l-1.4-1.3c-1.1-0.9-2.3-1.7-3.5-2.4l0.1,0.1c-0.7-0.5-1.4-0.9-2.1-1.3
	c-0.8-0.4-1.7-0.7-2.5-1c-0.8-0.3-1.6-0.5-2.4-0.8c-0.8-0.2-1.6-0.3-2.4-0.4c-1.5-0.3-3-0.4-4.6-0.4h-2.5c-0.5,0-1-0.1-1.6-0.1
	L572.5,248.1L572.5,248.1z M585.5,253l0.4,0.1L585.5,253z M632.2,247.5c-0.4,0.1-0.8,0.4-1,0.9c-0.2,0.4-0.2,0.9-0.1,1.3l0.2,1
	c0.3,1.5,0.5,3.1,0.5,4.6l0.1,2.3v2.6c0,0.8,0,1.6,0.1,2.5l0.4,2.5c0.3,1.7,0.4,3.4,0.4,5.1v3.8l0.1,3.5v0.6c-0.1,1.7-0.1,3.3,0,5
	l0.4,5l0.7,4.8c0.1,0.8,0.1,1.6,0.1,2.4v4.2c0,0.9,0.8,1.7,1.7,1.6s1.7-0.8,1.6-1.7v-0.1c-0.1-0.8,0-1.6,0-2.4v-2.3
	c0-0.9,0-1.7-0.1-2.5l-0.3-2.5c-0.3-1.7-0.4-3.3-0.5-5l-0.2-4.5l0-1.4v-3.2l-0.1-2.2v-5.3c-0.1-1.7-0.4-3.4-0.7-5.1
	c-0.2-1.6-0.2-3.3-0.1-4.9l-0.1-2.1l-0.1-2.2c-0.2-1.7-0.5-3.4-0.9-5c-0.1-0.4-0.4-0.8-0.8-1c-0.4-0.2-0.9-0.2-1.3-0.1L632.2,247.5z
	 M633,277.2L633,277.2z M636.3,278L636.3,278z"/>
<path class="st1" d="M635.3,246.7c-0.9,0.3-1.8,0.6-2.6,1c-0.4,0.2-0.8,0.5-1,0.9c-0.4,0.8-0.1,1.8,0.8,2.2l0,0
	c0.4,0.2,0.9,0.2,1.3,0.1c0.9-0.5,1.9-0.9,2.9-1.2c0.5-0.1,0.9-0.1,1.4-0.1c0.6,0.1,1.2,0.2,1.7,0.4c0.2,0.1,0.5,0.2,0.7,0.3
	l0.2,0.2c0.1,0.2,0.2,0.3,0.3,0.5c0.1,0.2,0.1,0.4,0.2,0.6c0,0.5,0,1,0,1.5c0,0.5-0.1,0.9-0.1,1.4l-0.3,1.6
	c-0.2,1.2-0.5,2.3-0.8,3.5c-0.5,1.5-1.1,2.8-1.9,4.2c-0.4,0.6-0.8,1.1-1.3,1.6l-0.7,0.8l-0.4,0.4l-0.2,0.2c-0.2,0.3-0.4,0.6-0.5,0.9
	c-0.1,0.6,0.1,1.2,0.5,1.6c0.3,0.3,0.8,0.5,1.3,0.4c0.3,0,0.5-0.1,0.8-0.2l0.8-0.3l2-0.8c1.1-0.4,2.3-0.7,3.4-1
	c1.5-0.2,3-0.3,4.5-0.2c0.4,0,0.8,0.1,1.2,0.1s1.1,0.2,1.6,0.4c1.4,0.5,2.7,1.2,3.9,1.9c1,0.7,1.9,1.6,2.7,2.5
	c0.7,0.8,1.4,1.8,1.9,2.8c0.5,1.1,0.9,2.2,1.2,3.4l0.1,1c0,0.4,0,0.8,0,1.2c-0.1,0.8-0.2,1.5-0.3,2.3c-0.2,0.8-0.4,1.6-0.6,2.3
	l-0.9,2.4c-0.3,0.8-0.7,1.5-1.2,2.2c-0.6,0.8-1.3,1.6-2,2.3c-0.7,0.6-1.4,1.1-2.2,1.6c-0.7,0.5-1.5,1-2.2,1.4
	c-1.1,0.5-2.1,0.9-3.2,1.2l-3.6,1.2l-3.8,1.1l-2,0.5l-2.1,0.6c-0.9,0.3-1.3,1.3-1,2.1s1.3,1.3,2.1,1l0,0l1.3-0.3l1.2-0.3l2.5-0.6
	l4.6-1.4l2.2-0.7l2.1-0.8c0.8-0.4,1.7-0.8,2.4-1.2l2.1-1.4l1-0.7c0.4-0.4,0.9-0.7,1.3-1.1c0.6-0.6,1.2-1.2,1.7-1.9
	c1.1-1.5,2-3.1,2.7-4.8c0.7-1.7,1.1-3.5,1.4-5.3c0.1-0.9,0.1-1.8,0.1-2.8c0-0.4-0.1-0.8-0.2-1.1c-0.1-0.6-0.2-1.1-0.4-1.6
	c-0.2-0.8-0.6-1.6-0.9-2.3c-0.4-0.8-0.8-1.6-1.3-2.4c-1.1-1.5-2.3-2.9-3.8-4.1c-0.7-0.5-1.4-1-2.2-1.5c-0.7-0.4-1.5-0.8-2.2-1.1
	c-0.9-0.4-1.8-0.7-2.7-0.9c-0.9-0.2-1.8-0.3-2.7-0.3H645c-1.1,0.1-2.2,0.3-3.2,0.6l-0.2,0.1c0.3-0.5,0.5-1,0.7-1.5
	c0.3-0.7,0.6-1.4,0.8-2.1c0.2-0.5,0.3-0.9,0.5-1.4l0.3-1.4l0.5-2.4c0.1-0.4,0.1-0.7,0.1-1.1c0-0.5,0.1-1,0.1-1.5
	c0.1-1.1,0-2.2-0.4-3.2c-0.3-0.7-0.7-1.3-1.2-1.8c-0.7-0.6-1.5-1.1-2.3-1.4c-0.4-0.1-0.8-0.2-1.2-0.3c-0.5-0.1-1-0.1-1.5-0.2h-0.4
	C636.8,246.3,636,246.4,635.3,246.7L635.3,246.7z"/>
<path class="st1" d="M633,246.9l-1.4,0.6c-0.5,0.2-0.9,0.4-1.3,0.8c-0.5,0.4-0.8,0.9-1,1.4c-0.1,0.7-0.2,1.3-0.2,2
	c0,1.1,0,2.3,0.2,3.4l0.3,2.9l0.1,2.8c0,0.6,0.1,1.2,0.1,1.8l0.1,3.4l0.1,1.8l0.1,1.8l0.1,4l0.3,4.2l0.1,4.8l0.2,2.8l0.3,2.5
	l0.4,4.6l0.4,4.4v0.4l0.3,3.4c0.1,0.5,0.2,1.1,0.4,1.5c0.2,0.4,0.5,0.7,0.8,1c0.4,0.2,0.8,0.4,1.3,0.5c0.6,0.1,1.2,0.1,1.8,0
	c0.3-0.1,0.7-0.2,1-0.3c0.3-0.1,0.5-0.2,0.8-0.4c0.3-0.3,0.4-0.6,0.6-0.9c0.1-0.2,0.1-0.4,0.2-0.7c0-0.2,0.1-0.4,0.1-0.6l-0.1-1.9
	l-0.7-7.3l-0.6-3.6c-0.2-1.2-0.4-2.5-0.4-3.7c0-0.5-0.1-1-0.1-1.5v0.1c0-0.5-0.1-0.9-0.1-1.4l0,0l-0.4-5.8c0-0.4,0-0.8-0.1-1.2
	l0-2.9c0-1.1-0.1-2.3-0.2-3.4c0-0.5-0.1-0.9-0.2-1.4l-0.1-1.6l-0.3-2.9l0-2.4c0-1-0.2-2-0.2-3c0-0.4,0-0.9-0.1-1.3l-0.1-1.9v0.1
	c0-1,0-1.9,0-2.9c0.1-0.4,0.1-0.9,0-1.3c0-0.2-0.1-0.3-0.1-0.5v-0.1c0-0.1,0-0.1,0-0.2c0.3-0.8-0.2-1.8-1-2
	c-0.2-0.1-0.4-0.1-0.6-0.1C633.5,246.7,633.2,246.7,633,246.9L633,246.9z M635.4,249.1L635.4,249.1z M632.3,256.1L632.3,256.1z
	 M629.8,261L629.8,261z M637,275.8L637,275.8z M635.3,294.2l-0.3-3.7l-0.1-1.2l0.4,2.4l0.7,7.2c0,0.4,0,0.8,0.1,1.1v0.5h-0.2
	c-0.1-0.4-0.1-0.8-0.2-1.2l-0.1-1.8L635.3,294.2L635.3,294.2z M636.1,299.7c0,0,0,0.1,0,0.1C636,299.8,636,299.8,636.1,299.7
	L636.1,299.7z"/>
<path class="st1" d="M635,244.8c-1,0.2-2,0.6-2.9,1.1c-1.2,0.6-2.2,1.5-3,2.6c0.4,1.4,1.6,2.6,3,3c0.4,0,0.9-0.1,1.2-0.4l1.3-1.5
	c0.1-0.1,0.2-0.2,0.3-0.3s0.5-0.2,0.8-0.4c0.4-0.1,0.7-0.2,1.1-0.2h2c0.3,0,0.6,0,0.9,0c0.4,0.1,0.7,0.2,1.1,0.4
	c0.2,0.1,0.3,0.2,0.5,0.3c0.3,0.3,0.5,0.6,0.8,1l-0.2-0.4l0.3,0.4c0.1,0.2,0.3,0.4,0.3,0.7c0.2,0.7,0.3,1.3,0.4,2v1.9
	c0,0.7,0,1.5-0.2,2.2c-0.2,1-0.5,2-0.9,3c-0.6,1.1-1.3,2.1-2.2,3c-0.1,0.1-0.1,0.1-0.2,0.2l-0.5,0.5l-0.9,0.9l-1.6,1.5
	c-0.3,0.3-0.5,0.5-0.8,0.8c-0.2,0.2-0.5,0.4-0.7,0.6c-0.2,0.2-0.4,0.5-0.5,0.8c-0.1,0.3-0.1,0.6-0.1,0.9c0.1,0.3,0.2,0.6,0.4,0.8
	l0.3,0.3c0.2,0.2,0.5,0.3,0.8,0.3c0.5,0,1.1-0.1,1.5-0.4l1.9-1.2l2.3-1.5c0.6-0.5,1.2-1,1.8-1.6c0.6-0.6,1.1-1.2,1.6-1.9
	c0.5-0.7,0.9-1.4,1.3-2.1c0.6-1.2,1-2.5,1.3-3.8c0.2-0.9,0.4-1.8,0.5-2.7l0.2-2.5c0.1-0.9,0-1.8-0.1-2.6c-0.1-0.6-0.3-1.2-0.6-1.7
	c-0.3-0.5-0.6-0.9-1-1.3c-1.5-1.3-3.3-2.2-5.2-2.5h0.2c-1-0.3-2-0.5-3.1-0.5h-0.3C637.1,244.3,636,244.5,635,244.8L635,244.8z
	 M642.7,256.9l-0.1,0.3L642.7,256.9z M639.6,263.1L639.6,263.1L639.6,263.1z"/>
<path class="st1" d="M648,265.9L648,265.9c-0.1,0.2-0.2,0.4-0.3,0.6l-1-0.3c-0.3-0.1-0.7-0.2-1-0.2c-0.3,0-0.6,0-0.9,0
	c-0.3,0-0.6,0.1-0.9,0.2c-1.3,0.2-2.5,0.5-3.7,0.8l-2.1,0.8l-1.7,0.7c-0.7,0.4-1.3,0.8-1.9,1.3l-1.7,1.5c-0.7,0.6-0.9,1.6-0.3,2.4
	c0.6,0.7,1.6,0.9,2.4,0.3c0,0,0,0,0.1,0l0.1-0.1c0.8-0.7,1.6-1.4,2.5-2.1c0.6-0.3,1.1-0.6,1.7-0.8l1.8-0.7c0.8-0.2,1.5-0.4,2.3-0.5
	l2.1-0.4h0.3c0.3,0.1,0.7,0.2,1,0.4c0.5,0.2,1,0.3,1.5,0.4l-0.4-0.1c0.3,0.1,0.5,0.1,0.8,0.3c0.9,0.5,1.7,1.1,2.5,1.7
	c0.7,0.6,1.3,1.3,1.8,2.1l0.7,1.1l0.8,1.4c0.2,0.5,0.5,1,0.7,1.5l0.5,1.4c0.1,0.5,0.2,1,0.3,1.5l0.2,1.7c0,0.8,0,1.5-0.2,2.3
	c-0.1,0.6-0.4,1.2-0.6,1.7c-0.4,0.7-0.9,1.4-1.4,2.1c-0.4,0.7-0.9,1.3-1.4,1.9l-0.8,0.8c-0.3,0.3-0.7,0.6-1,0.9
	c-0.7,0.6-1.4,1.1-2.1,1.6c-1.3,0.8-2.8,1.4-4.2,2.1c-0.6,0.3-1.3,0.6-1.9,0.9l-2,0.7c-0.7,0.2-1.6,0.5-2.4,0.7l-1.2,0.3
	c-0.4,0.1-0.6,0.2-1,0.3c-0.2,0.1-0.4,0.2-0.5,0.3c-0.3,0.3-0.6,0.7-0.6,1.2c0,0.6,0.2,1.2,0.7,1.5c0.3,0.2,0.6,0.3,0.9,0.3h0.3
	c0.3,0,0.6,0,0.9,0c0.4,0,0.8-0.1,1.2-0.2l2.5-0.7l4.8-1.7l2.1-1l2.3-1c1.5-0.9,2.9-1.8,4.3-2.9l1.6-1.2l0.9-0.7
	c0.3-0.3,0.6-0.6,0.8-0.9l-0.1,0.1c0.6-0.7,1.1-1.5,1.5-2.3c0.4-0.8,0.6-1.7,0.7-2.6l0.7-4.7v-2.5c0-0.9-0.1-1.9-0.2-2.8
	c-0.3-1.7-1-3.3-1.9-4.7l-1.3-1.9c-0.4-0.6-0.9-1.2-1.5-1.7l-1.1-1c-0.3-0.3-0.6-0.6-1-0.8c-0.6-0.4-1.3-0.7-2-1.1l-0.6-0.3
	c-0.2-0.1-0.4-0.2-0.6-0.3c-0.1-0.1-0.2-0.2-0.2-0.2c-0.3-0.2-0.6-0.3-0.9-0.3C648.9,265.1,648.4,265.4,648,265.9L648,265.9z
	 M640.3,298.2h-0.1H640.3z M658,292.3l0.2-0.2L658,292.3z M541.7,250.7c-0.2,0.3-0.4,0.6-0.6,1l-0.5,1.5l-0.7,2.4l-0.7,2.4l-1.4,4.9
	l-1.5,5L535,273l-1.2,4.9l-1.1,4.9l-1.1,5.2l-1.2,5l-1.5,5.3l-1.1,3.4c-0.1,0.4,0,0.9,0.3,1.2c0.5,0.8,1.5,1,2.3,0.5c0,0,0,0,0,0
	l0,0l0.3-0.3c0.2-0.2,0.3-0.5,0.4-0.8l0,0l0.1-0.3v0.1l1.6-4.8l1.3-5.1l1.2-5l1.1-5.2l2.4-10c0.9-3.3,1.9-6.7,2.9-10.1
	c0.4-1.4,0.8-2.9,1.2-4.3l0.3-1.1c0.3,1,0.7,2,1.1,3c0.5,1.3,0.9,2.6,1.3,3.9s0.6,2.5,0.9,3.7c0.4,1.8,0.8,3.6,1.3,5.4s1,3.3,1.3,5
	c0.4,2.7,1,5.3,1.7,8c0.4,1.3,0.8,2.6,1.1,3.9l0.8,3.6c0.2,0.8,0.3,1.7,0.4,2.5c0.1,0.6,0.3,1.1,0.4,1.7c0.1,0.5,0.2,1,0.4,1.4
	c0.1,0.4,0.5,0.8,0.9,1c0.8,0.4,1.8,0.1,2.2-0.8c0,0,0,0,0,0l0,0c0.2-0.4,0.2-0.9,0.1-1.3c-0.3-0.7-0.5-1.4-0.6-2.2
	c-0.2-1.1-0.3-2.2-0.6-3.3s-0.5-2.3-0.8-3.4c-0.2-1.1-0.5-2.2-0.9-3.2c-0.3-1.1-0.7-2.2-0.9-3.3c-0.5-2.4-0.9-4.9-1.5-7.3
	c-0.3-1.2-0.7-2.4-1-3.7s-0.6-2.2-0.8-3.4c-0.3-1.7-0.7-3.5-1.2-5.1c-0.5-1.7-1.1-3.4-1.8-5.1s-1.1-3.1-1.5-4.7
	c-0.1-0.4-0.2-0.7-0.3-1.1c-0.1-0.2-0.1-0.4-0.2-0.6c-0.2-0.6-0.8-1.1-1.5-1.3h-0.3C542.7,250,542.1,250.2,541.7,250.7L541.7,250.7z
	 M552.7,293.2l0,0.3L552.7,293.2z M530.9,302.5L530.9,302.5l0.1-0.2C531,302.3,531,302.4,530.9,302.5L530.9,302.5z"/>
<path class="st1" d="M551,270.9c-0.6,0-1.2,0.2-1.8,0.4l-1,0.2l-2.4,0.6l-2.3,0.7l-2.4,0.8c-0.7,0.2-1.3,0.4-2,0.5l-3.1,0.5
	c-0.9,0-1.7,0.8-1.7,1.7c0,0.9,0.8,1.7,1.7,1.7h0.1l3.3-0.5c1.1-0.2,2.2-0.5,3.3-0.9c1.9-0.7,3.9-1.3,5.9-1.8h-0.1l2.4-0.5h0.3
	c0.9-0.1,1.6-0.9,1.6-1.8S551.9,270.8,551,270.9L551,270.9L551,270.9z"/>
<path class="st1" d="M542.4,254.9c-0.6,0.3-1.1,0.9-1.2,1.5l-0.5,1.5l-2,7.5l-1.4,5.2l-1.1,5.1l-0.9,5.2l-1.1,5.1l-1.3,4.9l-1.2,4.7
	l-0.4,1.6c-0.2,0.6-0.3,1.3-0.2,2c0.1,0.4,0.2,0.7,0.5,1l0,0l-1.8,0.4c-0.4,0.1-0.8,0.3-1.1,0.6c-0.3,0.4-0.4,0.8-0.4,1.3
	c0.1,0.9,0.9,1.6,1.9,1.5c0,0,0,0,0,0l1.8-0.4c0.7,0,1.4-0.2,2-0.4c0.7-0.3,1.3-0.8,1.7-1.5c0.2-0.6,0.3-1.1,0.5-1.7l0.8-2.8
	l1.3-4.8l0.9-4.9l0.9-4.7c0.4-1.5,0.5-3.3,0.8-4.9l0.5-2.3l1.1-7.2l0.3-2.5l0.4-2.4l0.5-2.4l0.4-2.1l0.2-1.2c0.2-0.7,0.2-1.3,0-2
	c-0.3-0.6-0.9-1-1.6-1C542.8,254.8,542.6,254.8,542.4,254.9L542.4,254.9z M537.1,297.4c0,0,0,0.1,0,0.1V297.4z"/>
<path class="st1" d="M544,250.3c-0.3,0-0.6,0.1-0.9,0.3c-0.5,0.3-0.8,0.9-0.8,1.5c0,0.3,0,0.6,0.1,0.9c0.1,0.5,0.2,0.9,0.3,1.4
	l0.2,0.5c-0.5,0.3-0.9,0.9-0.8,1.6c0.1,1.7,0.4,3.4,0.9,5l0.7,2.4l0.6,2.4l2.5,9.3l1.2,4.6l1.3,4.5l0.6,2.2l0.6,2.3
	c0.5,1.4,0.8,2.8,1.2,4.3l1,4.4l0.6,2.1c0.2,0.7,0.3,1.1,0.5,1.7c0.1,0.3,0.2,0.5,0.4,0.7c0.3,0.4,0.8,0.7,1.3,0.8
	c0.3,0,0.6,0,0.8,0h1.5c0.4,0,0.7-0.1,1.1-0.1c0.4,0,0.8-0.1,1.2-0.2c0.8-0.2,1.4-0.9,1.5-1.7c0.1-0.9-0.1-1.8-0.5-2.7l-0.9-2.4
	l-0.2-0.5l-0.1-0.4l-0.8-2.3l-1.2-4.2l-1.2-4.3l-1.3-4.5l-1.2-4.2l-0.6-2.4l-0.6-2.1l-1.4-3.9l-1.3-3.8l-1.3-3.8l-1.5-4.3l-0.7-2.4
	c-0.1-0.3-0.2-0.6-0.3-0.9c-0.2-0.5-0.4-0.9-0.8-1.3c-0.4-0.3-0.8-0.5-1.3-0.5c-0.1,0-0.2,0-0.2,0L544,250.3z M554.2,290l0.2,0.5
	l0.4,0.9l-0.2,0.1L554.2,290z"/>
<path class="st1" d="M549.8,272.5c-0.9,0.3-1.8,0.6-2.7,0.8c-1,0.3-1.9,0.6-2.9,1c-1,0.4-1.9,0.8-2.8,1.2c-1,0.5-2,0.9-3.1,1.3
	c-0.9,0.3-1.3,1.3-1,2.2c0.3,0.8,1.3,1.3,2.1,1c1-0.4,2.1-0.8,3.1-1.3l2.9-1.2l3-1l1.5-0.4c0.6-0.2,1.2-0.4,1.7-0.7
	c0.4-0.2,0.6-0.6,0.7-1.1c0.2-0.9-0.4-1.8-1.3-2c0,0,0,0,0,0C550.7,272.2,550.3,272.3,549.8,272.5L549.8,272.5z M555,298.5
	c-0.3,0.3-0.6,0.7-0.7,1.1c0,0.4,0.1,0.9,0.3,1.2l1.4,2.2l1.5,2l1.6,2l3.1,4l0.5,0.5l-3.3,2c-3,1.7-6,3.2-9.2,4.6l-5,2l-5,1.8
	l-3.3,1l-3,0.9l-5.5,1.3l-5.1,1.1l-4.9,1l-5.3,0.7l-5.6,0.3c-2.7,0-5.4-0.1-8.1-0.3l-4.2-0.4c-1.4-0.1-2.7-0.3-4.1-0.6
	c-0.6-0.2-1.2-0.4-1.7-0.7c-1.2-0.8-2.2-1.7-3.4-2.6l-1.8-1.3l-1.6-1.4c-0.5-0.5-0.7-0.8-1.1-1.3c-0.3-0.4-0.6-0.8-0.9-1.2v-0.1
	c-0.4-0.9-1.4-1.3-2.2-0.9s-1.3,1.4-0.9,2.2c0.4,0.8,0.9,1.5,1.5,2.2c0.6,0.7,1.2,1.4,1.8,2l0.5,0.4l1.1,0.6l2.3,1.2l2.2,1.2
	c1.1,0.5,2.3,0.9,3.6,1.2l2.3,0.5l2.1,0.5l3.5,0.6c1,0.2,2,0.3,3.1,0.3l1.7,0.1c0.6,0,1.1,0,1.7,0.1l2,0.2l2.2,0.1l2.3,0.1
	c0.7,0,1.3,0,2,0.1l1.2,0.1l1.5-0.2c3.4-0.4,6.7-1.1,10-1.8l5.4-1.2l2.8-0.6c0.9-0.2,1.9-0.5,2.9-0.8c1.7-0.5,3.4-1,5-1.5
	s3.3-1.1,5-1.8c3.3-1.2,6.6-2.7,9.8-4.3c2.4-1.2,4.7-2.5,7-3.9l1.3-0.8l0.6,0.8c0.5,0.7,1.1,1.4,1.8,2c1.1,1.1,2.5,1.8,3.7,2.8
	c0.7,0.6,1.3,1.2,2,1.7c0.8,0.6,1.7,1,2.6,1.4c0.7,0.3,1.4,0.6,2.1,0.9c0.9,0.3,1.8,0.6,2.7,0.8c0.8,0.2,1.6,0.3,2.5,0.4
	c1,0.1,2-0.1,3-0.3c1.7-0.5,3.4-1.3,4.8-2.4c0.8-0.6,1.5-1.3,2.1-2c0.6-0.7,1.2-1.5,1.6-2.4c0.8-1.8,1.1-3.7,0.9-5.6
	c0-1.8-0.5-3.6-1.4-5.1c-0.7-1-1.6-1.8-2.6-2.4c-0.7-0.4-1.5-0.7-2.3-0.9c-1.8-0.5-3.7-0.8-5.5-1c-1-0.1-1.9,0-2.9,0.1
	c-1,0.2-2,0.4-2.9,0.8c-1.6,0.6-3.2,1.3-4.8,2c-2.4,1.2-4.8,2.5-7.1,3.9c-0.3-0.3-0.6-0.6-0.8-0.9c-0.5-0.6-1-1.3-1.5-2
	s-1-1.3-1.6-2l-1.6-1.9c-0.5-0.6-1-1.2-1.5-1.9s-1-1.4-1.4-2.2c-0.3-0.4-0.7-0.6-1.1-0.6H556C555.6,298.2,555.2,298.3,555,298.5
	L555,298.5z M580.9,321.2c-1.8-0.5-3.6-1.2-5.3-2.1c-0.6-0.4-1.1-0.8-1.6-1.2c-0.5-0.5-1-0.9-1.6-1.4c-0.6-0.4-1.2-0.8-1.7-1.2
	c-0.5-0.3-0.9-0.7-1.3-1.1c-0.5-0.6-1-1.2-1.5-1.8l2.3-1.4c1.6-0.9,3.1-1.7,4.7-2.4c0.8-0.4,1.6-0.8,2.5-1.1
	c0.8-0.3,1.7-0.6,2.5-0.9c0.4-0.1,0.9-0.2,1.3-0.3c0.4-0.1,0.9-0.1,1.3-0.1c0.9,0,1.8,0.1,2.6,0.2c0.8,0.1,1.7,0.3,2.5,0.5
	c0.7,0.2,1.4,0.5,2.1,0.9c0.3,0.2,0.5,0.4,0.8,0.6c0.2,0.2,0.4,0.5,0.6,0.8c0.2,0.4,0.4,0.9,0.5,1.3c0.2,0.8,0.2,1.6,0.3,2.4
	c0,0.9-0.1,1.8-0.3,2.7c-0.2,0.5-0.4,1-0.7,1.4c-0.4,0.6-0.9,1.2-1.4,1.7c-0.6,0.6-1.3,1.2-2.1,1.6c-0.7,0.4-1.5,0.8-2.3,1
	c-0.6,0.1-1.2,0.2-1.8,0.3C582.5,321.5,581.7,321.4,580.9,321.2L580.9,321.2z M533.9,323.8l-0.3,0.1L533.9,323.8z"/>
<path class="st1" d="M555.8,298.5c-0.4,0.1-0.8,0.4-1.1,0.8c-0.2,0.3-0.4,0.7-0.5,1.1c-0.2,0.5-0.1,1.1,0.1,1.6
	c0,0.1,0.1,0.2,0.1,0.3c0.1,0.1,0.1,0.2,0.1,0.3c0.2,0.4,0.4,0.8,0.7,1.2l0.5,0.9c0.2,0.3,0.5,0.8,0.8,1.2l1,1.3
	c0.4,0.5,0.7,1.1,1,1.7l0.3,0.6l-0.3,0.2l-0.8,0.3c0.1,0.4,0.1,0.7,0,1.1c0,0.2-0.1,0.4-0.2,0.6c-0.2,0.4-0.5,0.6-0.8,0.9
	c-0.2,0.2-0.4,0.3-0.7,0.5c-0.1,0.1-0.2,0.1-0.2,0.2l-0.2,0.1l-0.4,0.3c-0.2,0.1-0.4,0.3-0.6,0.4c-0.3,0.2-0.6,0.3-0.9,0.4
	c-0.1,0-0.3,0.1-0.4,0.1l-0.5,0.3l0.3-0.2l-1.2,0.6l-0.5,0.2l-0.9,0.5l-1.4,0.6l-0.7,0.3l-1.9,1l-2.1,1l0.1,0l-0.2,0.1l-0.4,0.2
	l0.3-0.1l-1.5,0.6l-1.3,0.5c-1,0.3-2,0.5-2.9,0.7l-3.5,0.9c-0.5,0.2-1.1,0.3-1.6,0.4l-2.1,0.5l-2,0.4l-2,0.5
	c-0.7,0.2-1.1,0.3-1.7,0.4l-2.2,0.4l0.5-0.1l-1.4,0.3c-0.5,0.1-1.2,0.1-1.8,0.2c-0.5,0-0.9,0.1-1.3,0.1l-1.6,0.1l0.5-0.1l-1.7,0.2
	l-1.2,0.1c-1,0.2-2,0.4-3,0.5l-2.5,0.1h-1.8c-1,0-1.9,0-2.9-0.1c-1.2-0.1-2.4-0.3-3.6-0.6l-1.6-0.4c-0.5-0.1-1.1-0.3-1.6-0.5
	l-1.7-0.5l-1.7-0.6c-2-0.6-3.9-1.4-5.7-2.3l-2.4-1.4c-0.3-0.1-0.7-0.3-1-0.5l-1.2-0.8l0.3,0.2l-0.7-0.5l-1-0.6l-1.2-0.7
	c-0.5-0.3-0.9-0.7-1.2-1.1l-0.5-0.3c-0.6-0.4-1.3-0.6-2-0.6c-0.7,0.1-1.4,0.3-2,0.6c-0.4,0.2-0.6,0.6-0.8,1
	c-0.2,0.4-0.3,0.9-0.3,1.4c0,0.6,0.2,1.2,0.5,1.7l0.6,1.2c0.2,0.3,0.4,0.7,0.7,1l0,0l0.4,0.3h-0.1l0.1,0.1l0.3,0.2l-0.2-0.2l2,1.7
	c1,0.7,2,1.3,3,1.9l2.3,1.2l2.2,1.2c1.1,0.5,2.3,0.9,3.5,1.2l2.3,0.5l2.1,0.5l3.5,0.6c1,0.2,2,0.3,3.1,0.3c0.6,0,1.1,0.1,1.7,0.1
	l1.7,0.1l0.9,0.1h1.7l4.8-0.1l2.5-0.2l2.5-0.4l2.5-0.5l2.5-0.4c1.7-0.3,3.3-0.8,5-1.2l2.5-0.5l0.4-0.1h0.1l0.5-0.1l0.8-0.2l0.8-0.2
	c0.4-0.1,0.7-0.3,1-0.6l0.1-0.1l0.4-0.1l2.3-0.8l2.3-0.7l2.2-0.6c0.7-0.2,1.4-0.5,2-0.8l4.6-1.8c0.8-0.3,1.5-0.6,2.2-0.9l2.6-1.3
	l0.3-0.2l1.7-0.6c0.8-0.3,1.6-0.6,2.3-1c0.9-0.4,1.8-0.9,2.7-1.4c0.7-0.4,1.4-0.9,2.1-1.4l1-0.7l1,1c0.7,0.8,1.5,1.6,2.3,2.4
	l2.2,2.1c0.5,0.6,1,1.1,1.6,1.6l1.7,1.4l1.7,1.4c0.6,0.4,1.2,0.9,1.9,1.2l0.7,0.5h0l2,0.7l4,1l0.5,0.1c0.9,0.1,1.7,0.2,2.6,0.2h2.2
	c1-0.1,1.9-0.3,2.8-0.6l0.5-0.1c0.4-0.2,0.8-0.5,1.2-0.8c0.8-0.5,1.5-1.2,2.2-1.8c0.5-0.5,1-1,1.4-1.5c0.5-0.8,1-1.6,1.4-2.5
	c0.2-0.3,0.3-0.6,0.4-0.9c0.1-0.4,0.3-0.8,0.4-1.2c0.2-0.7,0.4-1.4,0.6-2.1c0.1-0.8,0.2-1.5,0.2-2.3v-1c0-0.4-0.1-0.8-0.2-1.2
	c-0.1-0.4-0.3-0.8-0.4-1.2c-0.2-0.5-0.4-0.9-0.7-1.4c-0.2-0.3-0.4-0.6-0.7-0.9l-1.4-1.7c-0.5-0.6-1.1-1.2-1.8-1.8
	c-0.7-0.6-1.4-1.1-2.1-1.5c-1.5-0.8-3.2-1.3-4.9-1.6l-2.4-0.3c-1.7-0.1-3.4,0.1-5,0.4c-1.7,0.3-3.4,0.8-5,1.5l-2,0.8l-2.2,1
	l-4.4,2.1c-0.2-0.3-0.4-0.5-0.6-0.7c-0.4-0.5-0.9-0.9-1.3-1.3c-0.3-0.4-0.6-0.7-0.8-1.1c-0.2-0.4-0.5-0.7-0.8-1.1s-0.4-0.9-0.7-1.3
	l-0.3-0.5c-0.1-0.1-0.2-0.3-0.3-0.5c-0.4-0.7-1.1-1.2-1.9-1.5c-0.2,0-0.4-0.1-0.6-0.1C556.7,298.4,556.3,298.4,555.8,298.5
	L555.8,298.5z M583.9,322.7c0.9-0.1,1.8-0.3,2.7-0.5c0.9-0.3,1.8-0.8,2.5-1.4c0.5-0.4,1-0.8,1.4-1.2c0.4-0.4,0.7-0.9,1-1.4
	c0.5-0.7,0.9-1.4,1.3-2.2c0.2-0.5,0.4-1.1,0.4-1.7c0-0.5,0-1,0-1.4c-0.1-0.9-0.2-1.7-0.5-2.6c-0.4-1-1.1-1.9-1.9-2.6
	c-1.3-1.2-2.8-2.2-4.3-3.1l-0.8-0.4l0.8,0.2c0.9,0.3,1.8,0.7,2.6,1.1c0.8,0.5,1.5,1.1,2.1,1.8l1.2,1.4c0.4,0.5,0.9,1,1.2,1.6
	c0.2,0.5,0.4,1,0.6,1.5c0,0.3,0.1,0.5,0,0.8c0,1-0.2,2-0.4,2.9l-0.5,1.4c-0.2,0.4-0.3,0.8-0.5,1.2l-0.7,1.3c-0.2,0.4-0.5,0.7-0.8,1
	s-0.6,0.6-0.9,0.9s-0.8,0.6-1.2,0.9c-0.7,0.6-1.6,1-2.5,1.3c-0.4,0.2-0.8,0.3-1.2,0.5h-0.3c-0.3,0-0.6,0-0.9-0.1l-1.4-0.3l-2.6-0.5
	l-1.3-0.4c-0.8-0.2-1.6-0.6-2.3-1l-1.1-0.7l-1.8-1.4l2.3,1.3c0.8,0.4,1.6,0.7,2.4,1c0.8,0.3,1.7,0.5,2.6,0.6
	c0.6,0.1,1.2,0.1,1.8,0.1C583.2,322.7,583.6,322.7,583.9,322.7L583.9,322.7z M579.9,319c-1.2-0.5-2.4-1-3.6-1.6l-1.8-1.1l-1.7-0.9
	c-0.9-0.6-1.7-1.3-2.5-2l-2.1-2l-1-1.2l2.9-1.3l2.9-1.2l3-1c1.4-0.3,2.9-0.4,4.4-0.4c0.4,0,0.8,0,1.2,0.1c0.5,0.1,0.9,0.2,1.4,0.3
	c1.1,0.4,2.1,0.9,3.1,1.5c1.1,0.7,2.1,1.6,3.1,2.5l0.3,0.4c0.1,0.2,0.1,0.3,0.2,0.5c0.1,0.7,0.2,1.4,0.2,2.1c0,0.2,0,0.4-0.1,0.6
	c-0.1,0.3-0.3,0.6-0.4,0.9l-0.9,1.4c-0.2,0.3-0.5,0.6-0.7,0.9c-0.3,0.2-0.5,0.4-0.8,0.6l-0.8,0.6c-0.3,0.1-0.5,0.2-0.8,0.3
	c-0.9,0.2-1.9,0.3-2.9,0.3l0,0C581.7,319.3,580.8,319.2,579.9,319L579.9,319z M479,317.5L479,317.5z"/>
<path class="st1" d="M551.7,281.9c-0.4,0.1-0.8,0.3-1.1,0.7c-0.3,0.4-0.4,0.8-0.3,1.2c0.1,1.3,0.5,2.6,0.7,3.9l0.4,2.3l0.3,2.3
	l0.3,2.2l0.3,2.2c0.1,0.7,0.3,1.5,0.5,2.3l0.5,2.1c0.2,0.7,0.4,1.4,0.7,2.1l0.7,1.5c0.6,1.1,1.2,2.2,1.9,3.2l1.1,1.4l1.3,1.6
	l1.5,1.9l1.5,1.7c1.2,1.3,2.5,2.5,3.9,3.5c0.7,0.5,1.4,0.9,2.1,1.4c0.6,0.4,1.3,0.8,1.9,1.2l0.7,0.4l1.1,0.6c0.3,0.1,0.7,0.3,1,0.5
	c0.5,0.3,1,0.5,1.5,0.7l1.5,0.5l3.1,1.1c0.4,0.2,0.9,0.2,1.3,0c0.9-0.4,1.2-1.4,0.9-2.2c-0.2-0.4-0.5-0.7-0.9-0.9l-2.9-1l-2.6-1
	l-0.9-0.5l-0.7-0.4l-0.7-0.4l-0.2-0.1l-0.7-0.4c-0.5-0.3-1-0.6-1.4-0.9l-1.8-1.1c-0.6-0.4-1-0.8-1.6-1.2c-0.5-0.4-1-0.8-1.4-1.3
	c-0.7-0.6-1.2-1.4-1.8-2.1l-2-2.5l-1.6-2c-0.5-0.6-0.9-1.2-1.3-1.8l-0.9-1.8c-0.4-0.7-0.7-1.4-0.9-2.2c-0.2-0.6-0.3-1.3-0.4-1.9
	l-0.3-1.2l-0.2-1.2c-0.1-0.7-0.2-1.4-0.3-2.1l-0.3-2.2l-0.7-4.6l-0.8-4v-0.1c-0.1-0.9-0.8-1.5-1.7-1.5L551.7,281.9L551.7,281.9z
	 M570.8,321.3l0.1,0.1L570.8,321.3z M572.4,322.1l0.3,0.1L572.4,322.1z M572.2,318.2L572.2,318.2l-0.2-0.1L572.2,318.2L572.2,318.2z
	"/>
<path class="st1" d="M551.9,276.5c-0.8,0.4-1.2,1.4-0.9,2.2l1,2.5l0.8,2.3l0.6,2.2l0.7,2.1l0.6,1.9l0.7,1.9c0.5,1.4,0.9,2.9,1.4,4.3
	l0.7,1.9l0.8,1.7l2.4,4.8l0.3,0.5l1.3,2.1l1.3,1.8l1.4,1.8c0.5,0.6,0.9,1.2,1.5,1.7c1.1,1.2,2.3,2.4,3.6,3.5l1.7,1.4l1.6,1.2
	c0.9,0.6,1.8,1.2,2.7,1.8c1.2,0.8,2.5,1.5,3.9,2.1c1.1,0.5,2.2,0.9,3.3,1.1c1,0.3,2.1,0.4,3.2,0.3c0.9-0.2,1.5-1,1.4-1.9
	c-0.2-0.9-1-1.5-1.9-1.4h-0.3c-0.4,0-0.7-0.1-1.1-0.2l-1.2-0.2c-1.2-0.3-2.3-0.8-3.4-1.4l-2.6-1.5c-0.8-0.5-1.5-1-2.2-1.5l-2.1-1.6
	l-1.2-1l-1-0.8l-1.8-1.9c-0.6-0.6-1.2-1.3-1.8-2l-1.6-2.2l-1.4-2l-0.6-1l0.2,0.4l-0.5-0.9l0.2,0.4c-0.6-1.1-1.2-2.2-1.7-3.3
	l-1.6-3.4c-0.5-1.2-0.9-2.6-1.3-4l-0.8-2.3l-0.7-1.9l-0.6-1.8l-0.7-2l-0.3-1.4l-0.7-2.1l-1.3-3.4c-0.3-0.6-0.9-1-1.6-1
	C552.3,276.3,552.1,276.4,551.9,276.5L551.9,276.5z M560.8,304.7l0.1,0.1L560.8,304.7z M659.3,259.9c7.7,6.9,17,12.4,22.4,21.5
	c2,3.3,7.1,0.3,5.2-3c-5.7-9.7-15.2-15.4-23.3-22.7C660.7,253.1,656.4,257.3,659.3,259.9L659.3,259.9z"/>
<path class="st1" d="M695.1,249.9c-1.7,2.8-2.3,6.1-4,9c-2,3.5-3.7,7.2-5.5,10.8c-3.7,7.2-6.2,15-9.1,22.6c-1.5,4-3.2,7.9-4.8,11.8
	c-1.5,3.6-2.5,7.5-4.4,11s-4.9,6.1-9,6.4c-1.6,0-3.2-0.1-4.8-0.4c-2.6-0.3-3.4,0-3.9-2.9s-0.8-6.6,1.2-8.8c3-3.3,8.9-4.5,13.2-5
	c7.1-0.6,19.7-0.9,22.8,6.9c1.5,4,2.3,8.2,2.5,12.5c0.2,4.3-1.6,8.6-3,12.6c-2.6,7.5-6.6,14.4-11.8,20.4l5,1.3
	c-0.4-2.2-0.3-4.7-0.7-7c-0.2-1.2,0-2.5-0.2-3.8c-0.3-0.8-0.6-1.6-0.7-2.4H672c1.1,3.2,1.8,6.6,2.3,9.9c0.3,2.4,1,4.7,2.2,6.8
	c0.8,1.1,2.2,1.6,3.5,1.2c7.3-1.9,14.4-4.3,21.7-6.1c3.7-1,2.2-6.7-1.6-5.8c-7.3,1.9-14.4,4.2-21.7,6.1l3.4,1.4
	c-1.4-2.1-1.5-4.9-1.8-7.4c-0.4-2.7-1.2-5.3-2.1-7.9c-0.9-2.6-5.2-3.1-5.8,0c-0.5,2.5,0.2,5,0.6,7.5c0.5,3,0.5,6,1,8.9
	c0.4,2.2,3.6,2.9,5,1.3c5.1-5.8,9.2-12.5,12.1-19.7c3.3-7.9,5.1-15.1,3.7-23.6c-1.2-7.2-3-14.4-10.4-17.3
	c-6.9-2.7-16.1-2.9-23.2-1.8c-6.1,1-14.8,4-16.8,10.6c-1.3,4.5-1.1,12.7,2.7,16c2.5,2.1,5.7,1.5,8.8,1.9c3.1,0.4,6.2,0,9-1.3
	c6.6-3.1,9.1-9.7,11.4-16.1c3.7-10,8.1-19.7,11.7-29.7c2.1-5.2,4.5-10.4,7.2-15.3c1-1.9,2.2-3.7,3.2-5.5s1.3-4.4,2.4-6.3
	C702.3,249.6,697.1,246.6,695.1,249.9L695.1,249.9z"/>
<path class="st1" d="M662.5,258.6c0.2,0.1,3.2,1.6,4.2,2.2c1.9,1.2,3.7,2.6,5.3,4.2c2.9,2.6,7,6.1,8,10.1c0.8,3.8,6.6,2.2,5.8-1.6
	c-1.1-4.9-5.5-9.1-9.1-12.4s-7.8-6.6-12.5-8.3C660.5,251.5,658.9,257.3,662.5,258.6L662.5,258.6z"/>
<path class="st1" d="M693.9,248.7c-2.3,3-4.1,6.4-5.3,10c-1.7,4.8-4,9.3-6.2,14c-4,8.6-7.9,17.5-10.6,26.6c-1.1,3.7,4.7,5.3,5.8,1.6
	c2.5-8.5,6.2-16.9,9.9-24.9l5.1-10.8c1.8-4,2.7-8.7,5.5-12.2C700.6,250,696.4,245.8,693.9,248.7L693.9,248.7z M421.1,344.1
	c-1.8,0.1-3.7,0.3-5.5,0.8c-5.8,1.1-11.8,1.5-17.7,2.2c-3.5,0.4-6.9,1.1-10.3,2c-3.4,0.9-6.8,2-10.1,3.1c-3,1-4.7,4.2-3.7,7.3
	c1,3,4.2,4.7,7.3,3.7c0.1,0,0.1,0,0.2-0.1c4.2-1.3,8.4-2.6,12.7-3.7c3.9-0.7,7.9-1,11.8-1.3l5.6-0.5c2.4-0.3,4.8-0.8,7.2-1.2
	l-0.5,0.1c1.8-0.4,3.5-0.6,5.2-1.1c3-1,4.6-4.3,3.6-7.3c-0.8-2.3-3-3.9-5.5-3.9L421.1,344.1z M259.3,268.8c-0.8,4,1.8,7.8,5.8,8.6
	c14.4,2.5,28.9,4,43.2,6.5c7,1.2,14,2.4,21,3.5c7,1.1,14,2.7,21,4l15.5,2.7l14.9,2.1c4.9,0.8,9.8,1.7,14.8,2.1c3,0.2,6,0.3,9,0.4
	l7.6,0.3h-0.4c2.3,0.2,4.6,0.2,6.9,0c3.3-0.3,6-2.6,6.7-5.8c0.4-1.9,0-3.9-1.1-5.5c-1.1-1.6-2.7-2.7-4.6-3c-4.6-0.4-9.3-0.7-14-0.7
	c-3.9,0-7.9,0.1-11.8-0.1c-6.4-0.5-12.8-1.4-19.2-2c-3.5-0.4-7-0.7-10.5-1.2s-7.1-1.2-10.7-1.8c-7.2-1.3-14.3-3-21.5-4.3
	c-6.8-1.2-13.6-2.6-20.4-4c-3.7-0.8-7.5-1.4-11.2-2.1l-10.4-1.9l-22.1-3.5c-0.3,0-0.6-0.1-0.9-0.1c-3.7-0.2-7,2.3-7.7,5.9
	L259.3,268.8z M410.1,299l0.9,0.1L410.1,299z M240.6,158.1c-1,2-0.1,4.5,1.9,5.5c5.4,2.5,10.7,5.1,16.1,7.3c5,2.1,10.1,3.9,15.2,5.9
	c10.3,3.9,20.6,7.9,30.8,12.3s19.8,9.3,29.8,13.7l15.1,6.6l15.3,6.6c4.9,2.1,9.5,4.6,14.4,6.8s10,4.3,15.1,6.2
	c2.6,1,5.2,2.1,7.8,3.1s5,1.8,7.6,2.7c5,1.8,10,3.6,15,5.4l6.5,2.4c2.7,1.1,5.5,2.1,8.3,3c3.2,0.7,6.3-1.3,7-4.5
	c0.2-1,0.2-2.1-0.2-3.1c-0.5-1.5-1.6-2.7-3-3.4c-2.5-0.9-4.9-2-7.4-3l-7.4-3c-5-2-10-3.9-15.1-5.7l-7.8-2.9c-2.6-1-5-2-7.5-2.9
	c-5.3-1.9-10.4-4.1-15.5-6.3c-4.9-2.1-9.6-4.4-14.5-6.4l-15.4-6l-15.2-6.3c-4.9-2.1-9.6-4.3-14.5-6.5c-11.9-5.3-24-9.9-36.3-13.9
	l0,0l-7.2-2.5c-5.5-1.9-11-3.6-16.4-5.8c-2.9-1.1-5.7-2.2-8.4-3.5l-8.4-3.9c-0.5-0.2-1-0.4-1.5-0.4
	C242.9,155.7,241.3,156.6,240.6,158.1L240.6,158.1z M285.3,171.4l0.6,0.2L285.3,171.4z M251.2,27.8c-1.7,2-1.5,5,0.5,6.7
	c16.1,12.9,33.3,24.4,49.5,37.2l30.2,24.3c1.9,1.6,3.9,3.3,5.8,5.1l11.3,10.1c3.8,3.4,7.7,6.7,11.8,9.8s8.2,6.7,12.3,10
	c3.9,3.2,7.9,6.1,11.9,9.2s7.6,6.3,11.4,9.5l11.3,9.8l11.3,9.4c3.7,3.2,7.5,6.6,11.3,10s7.8,6.6,11.8,9.7c4.7,3.6,9.5,7.1,14.4,10.5
	c2.4,1.7,4.6,3.5,6.9,5.4c2.6,2.2,5.3,4.1,8.2,5.9c2,1.2,4.8,0.4,6.3-1.3c1.9-2.2,1.6-5.5-0.5-7.4l-7.5-5.8c-2.6-2-5.3-3.8-8.1-5.6
	c-3.9-2.5-7.7-5.1-11.4-7.8c-4.2-3.1-8.3-6.4-12.3-9.8l-11.5-9.9c-3.7-3.1-7.5-6.2-11.3-9.3c-4-3.2-7.9-6.6-11.9-9.9
	c-3.7-3.1-7.4-6.1-11.1-9.2c-4-3.2-8.1-6.2-12.1-9.3l-11.8-9.4c-4-3.1-8.1-6.1-11.9-9.5L344,95.5l-11.6-10.4l-12.1-10.2
	c-8-6.6-16.2-12.9-24.6-19.1L272,38l-14-10.8c-0.8-0.7-1.8-1.1-2.9-1.1C253.6,26,252.2,26.6,251.2,27.8L251.2,27.8z M460.6,190.1
	l0.4,0.2L460.6,190.1z M371.3,0.8c-1,0.7-1.7,1.8-2,3c-0.3,1.3,0,2.6,0.7,3.6l16.4,19.7l8,9.5c2.7,3.1,5.5,6.4,8.1,9.6
	s5,6.4,7.5,9.6l7.3,9.4c5.1,6.6,10.1,13.2,14.5,20.2l6.7,10.8c2.3,3.6,4.6,7,6.9,10.5c4.7,6.9,9.9,13.3,14.7,20
	c2.5,3.4,4.8,6.8,7.2,10.2l6.9,10.2c4.6,7,9,14.1,14,21l4.6,6.2c1.6,2.1,3.3,4.4,5,6.5c0.6,0.8,1.5,1.4,2.5,1.6c1,0.2,2.1,0,2.9-0.6
	c1.8-1.2,2.2-3.6,1-5.4l-4-5.2c-1.3-1.8-2.6-3.2-4-4.9c-2.5-3.1-4.8-6.5-7.1-9.8l-7.2-10.3l-6.7-10.4c-4.6-7-9.6-13.8-14.5-20.6
	l-7.2-10.1l-7.1-10.4l-6.9-10.4c-2.3-3.4-4.9-7-7.4-10.4c-2.5-3.4-5-6.7-7.6-10l-7.6-9.3c-5.1-6.5-9.5-13.4-14.2-20.1
	c-2.4-3.4-4.7-6.9-7-10.4c-2.2-3.3-4.6-6.5-7.2-9.6c-3.7-4.2-7.3-8.4-10.8-12.7c-0.7-1-1.8-1.7-3-2c-0.2,0-0.4-0.1-0.6-0.1
	c-1.1-0.1-2.1,0.2-3,0.8L371.3,0.8z M504.2,28.8c-2.8,1-4.2,4-3.3,6.8c2.5,6,4.5,12.1,6,18.4l-0.1-0.3c1,4.8,2,9.4,3.5,14.1l4,13.5
	c1.2,4.5,2.2,9.1,3.4,13.6c1.3,4.7,2.4,9.4,3.6,14.1c0.7,2.5,1.4,4.9,2.1,7.4s1.3,5,1.9,7.6c1.1,4.8,2.1,9.5,3.1,14.3
	c0.7,3.7,1.3,7.4,2.2,11c0.9,3.7,2,7.4,3.4,11c0.8,2.2,3.2,3.4,5.4,2.6c1.1-0.4,1.9-1.1,2.4-2.1c0.5-1,0.5-2.2,0.2-3.2L539,144
	l-1.5-7c-0.5-2.4-1.3-4.8-2-7.2l-2.1-6.6c-0.6-2.2-1.2-4.4-1.8-6.6c-1.3-4.6-2.8-9.2-4-13.8l-2.3-9.3c-0.9-3.3-1.7-6.6-2.4-10
	l-2.5-12.3c-0.9-3.9-1.9-7.8-2.8-11.7c-0.4-2-0.7-4.1-1-6.1c-0.3-2.2-0.5-4.5-1-6.7c-0.5-2.6-1.1-5.1-1.9-7.6
	c-0.8-2.3-1.8-4.7-2.7-7c-0.8-2-2.6-3.4-4.8-3.6C505.6,28.6,504.9,28.7,504.2,28.8L504.2,28.8z M590.8,95.4l-3.1,22.2l-1.4,9.8
	l-1.3,5.8c-0.4,2.3-0.7,4.7-0.7,7c0,3.4,2.9,6.4,6.1,7c2,0.4,4.1,0,5.8-1.2c1.7-1.1,2.8-2.8,3.2-4.8l0.1-1.6l0.5-4.2l1-5
	c0.4-2.7,0.6-5.5,0.7-8.3c0.3-3.8,1-7.6,1.5-11.4l1.7-12.5c0.7-3.9-1.8-7.6-5.6-8.4c-0.3-0.1-0.6-0.1-0.9-0.1
	C594.7,89.5,591.5,92,590.8,95.4L590.8,95.4z M599.5,137.9c0,0.4,0,0.8-0.1,1.1C599.5,138.7,599.5,138.3,599.5,137.9z"/>
</svg>
