<?xml version="1.0" encoding="utf-8"?>
<!-- Generator: Adobe Illustrator 25.0.0, SVG Export Plug-In . SVG Version: 6.00 Build 0)  -->
<svg version="1.1" id="Layer_1" xmlns="http://www.w3.org/2000/svg" xmlns:xlink="http://www.w3.org/1999/xlink" x="0px" y="0px"
	 viewBox="0 0 1125 2436" style="enable-background:new 0 0 1125 2436;" xml:space="preserve">
<style type="text/css">
	.st0{fill:#D11338;}
	.st1{fill:#CE322A;}
	.st2{fill:#D48300;}
	.st3{fill:#EEC44D;}
</style>
<polygon class="st0" points="510.8,1760.4 510.9,1760.3 510.9,1760.3 "/>
<polygon class="st1" points="510.2,1759.9 510.3,1759.8 510.3,1759.8 "/>
<polygon class="st2" points="1317.5,285.9 880.2,285.9 521.2,1719.1 "/>
<polygon class="st2" points="520.7,1719.9 521.2,1719.1 880.2,285.9 870.4,285.9 510.5,1680.4 "/>
<polygon class="st2" points="520.9,1720.4 523.3,1729.7 534.8,1715.2 1320.7,285.9 1317.5,285.9 521.2,1719.1 "/>
<polygon class="st2" points="521.2,1719.1 520.7,1719.9 520.9,1720.4 "/>
<polygon class="st2" points="524.4,1734.1 534.8,1715.2 523.3,1729.7 "/>
<polygon class="st0" points="-328.7,752.8 -328.7,1060.1 481.3,1735.6 477,1718.7 "/>
<polygon class="st0" points="495.1,1740.3 477,1718.7 481.3,1735.6 493.6,1745.9 "/>
<polygon class="st0" points="511,1759.7 510.9,1760.3 510.9,1760.3 511.2,1760.1 "/>
<polygon class="st0" points="510.3,1759.8 510.9,1760.3 511,1759.7 510.7,1759.2 "/>
<polygon class="st0" points="510.7,1759 510.3,1759.8 510.3,1759.8 510.7,1759.2 "/>
<polygon class="st0" points="495.1,1740.3 493.6,1745.9 502.3,1753.1 503.7,1750.6 "/>
<polygon class="st0" points="505.2,1752.5 503.7,1750.6 502.3,1753.1 503.8,1754.4 "/>
<polygon class="st0" points="505.2,1752.5 503.8,1754.4 510.3,1759.8 510.7,1759 510.6,1759 "/>
<polygon class="st1" points="467.4,1680.4 -299.4,285.9 -328.7,285.9 -328.7,684.2 471.2,1695.5 "/>
<polygon class="st1" points="467.4,1680.4 471.2,1695.5 486,1714.3 "/>
<polygon class="st1" points="471.2,1695.5 -328.7,684.2 -328.7,752.8 477,1718.7 "/>
<polygon class="st1" points="486,1714.3 471.2,1695.5 477,1718.7 495.1,1740.3 496.8,1733.8 "/>
<polygon class="st1" points="504.9,1748.5 496.8,1733.8 495.1,1740.3 503.7,1750.6 "/>
<polygon class="st1" points="504.9,1748.5 503.7,1750.6 505.2,1752.5 506.3,1751.2 "/>
<polygon class="st1" points="506.3,1751.2 505.2,1752.5 510.6,1759 "/>
<polygon class="st2" points="117.3,285.9 -296.2,285.9 458.1,1643.5 "/>
<polygon class="st2" points="500.4,1719.6 510.5,1680.4 150.6,285.9 117.3,285.9 458.1,1643.5 "/>
<polygon class="st2" points="520.7,1719.9 510.5,1680.4 500.4,1719.6 510.7,1738.1 "/>
<polygon class="st2" points="523.3,1729.7 520.9,1720.4 516.3,1738.5 "/>
<polygon class="st2" points="513.1,1742.5 516.3,1738.5 520.9,1720.4 520.7,1719.9 510.7,1738.1 "/>
<polygon class="st2" points="516.3,1738.5 514.6,1745.2 516.5,1748.5 524.4,1734.1 523.3,1729.7 "/>
<polygon class="st2" points="514.6,1745.2 516.3,1738.5 513.1,1742.5 "/>
<polygon class="st0" points="511,1759.7 511.2,1760.1 511.4,1759.9 511.1,1759.5 "/>
<polygon class="st0" points="510.8,1759.2 510.7,1759.2 511,1759.7 511.1,1759.5 "/>
<polygon class="st2" points="510.7,1759 510.7,1759.2 510.8,1759.2 510.7,1759 "/>
<polygon class="st2" points="510.6,1759 510.7,1759 510.7,1759 "/>
<polygon class="st2" points="458.1,1643.5 -296.2,285.9 -299.4,285.9 467.4,1680.4 "/>
<polygon class="st2" points="497.9,1729.3 500.4,1719.6 458.1,1643.5 467.4,1680.4 486,1714.3 "/>
<polygon class="st2" points="508.3,1742.4 510.7,1738.1 500.4,1719.6 497.9,1729.3 "/>
<polygon class="st2" points="513.1,1742.5 510.7,1738.1 508.3,1742.4 510.8,1745.5 "/>
<polygon class="st2" points="515.1,1751 516.5,1748.5 514.6,1745.2 513.7,1749.2 "/>
<polygon class="st2" points="510.8,1745.5 513.7,1749.2 514.6,1745.2 513.1,1742.5 "/>
<polygon class="st2" points="486,1714.3 496.8,1733.8 497.9,1729.3 "/>
<polygon class="st0" points="526.1,1740.8 517.7,1750.8 516.3,1752.5 511.3,1758.5 511.1,1759.5 511.4,1759.9 517.9,1754.5 
	519.2,1753.4 527.6,1746.5 1354.5,1056.8 1354.5,747.6 "/>
<polygon class="st0" points="511.1,1759.5 511.3,1758.5 510.8,1759.2 "/>
<polygon class="st1" points="1320.7,285.9 534.8,1715.2 524.4,1734.1 516.5,1748.5 515.1,1751 511.6,1757.3 511.3,1758.5 
	516.3,1752.5 517.7,1750.8 526.1,1740.8 1354.5,747.6 1354.5,678.7 1354.5,285.9 "/>
<polygon class="st1" points="510.7,1759 510.8,1759.2 511.3,1758.5 511.6,1757.3 "/>
<polygon class="st2" points="497.9,1729.3 496.8,1733.8 504.9,1748.5 508.3,1742.4 "/>
<polygon class="st2" points="510.8,1745.5 508.3,1742.4 504.9,1748.5 506.3,1751.2 "/>
<polygon class="st2" points="511.6,1757.3 515.1,1751 513.7,1749.2 "/>
<polygon class="st2" points="510.6,1759 510.7,1759 511.6,1757.3 513.7,1749.2 510.8,1745.5 506.3,1751.2 "/>
<polygon class="st3" points="870.7,286.2 150.9,286.2 510.8,1760.3 "/>
</svg>
