<svg xmlns="http://www.w3.org/2000/svg" viewBox="0 0 395.5 253.33"><defs><style>.cls-1{fill:#c77966;}.cls-2{fill:#2c2c2c;}.cls-3{fill:#99a3be;}.cls-4{fill:#394172;}.cls-5{fill:#ea9a00;}.cls-6{fill:#fefefe;stroke:#fefefe;stroke-miterlimit:10;stroke-width:0.5px;}</style></defs><g id="Layer_2" data-name="Layer 2"><g id="Layer_12" data-name="Layer 12"><path class="cls-1" d="M273.55,46a21.72,21.72,0,0,0-2.26-2.53c.91,1.6,1.79,3.22,2.59,4.89C273.8,47.63,273.7,46.87,273.55,46Z"/><path class="cls-2" d="M204,.33c-2.39-.2-4.79-.33-7.23-.33s-5.1.13-7.61.36Q196.64.36,204,.33Z"/><path class="cls-3" d="M199.34,99.11l-.1,0h0l-.08,0Z"/><path class="cls-3" d="M201,94.56l.08,0Z"/><path class="cls-3" d="M195.8,100.4h0Z"/><path class="cls-3" d="M197.38,95.4l.07,0Z"/><path class="cls-3" d="M208.45,48.41l-.2.25.17,0Z"/><path class="cls-3" d="M197.38,95.4h0Z"/><path class="cls-3" d="M194,63.82l0-.13v0c-.08-.23-.05-.16-.08-.23a13.09,13.09,0,0,1-1.44-6.84,95.85,95.85,0,0,0-12.08,1.13,73.45,73.45,0,0,0-5.73,7.43c1,0,1.55.17,1.87.17a12.7,12.7,0,0,1,12.4,7.76v0a47.74,47.74,0,0,1,3.94,11c0-.06,0-.12,0-.18.51,2.54.51,2.17.59,2.81s.18,1.09.27,1.64l0-.22c.09.42.18.84.25,1.26l0,.1v0c.13,4.41,4.45,3.82,5.91,4.85,15.35-7-2.56,7.17-6.93-.51a.94.94,0,0,0,.06.15l0,.07,0-.07a2.14,2.14,0,0,1-.1-.22.43.43,0,0,1,0,.07c-1.27-3.06-.67-5.86-1.11-7.56a.25.25,0,0,0,0,.07,46.69,46.69,0,0,0-3.54-11.38,24.42,24.42,0,0,0-2.65-4.16l0,0a9.18,9.18,0,0,0-3.56-2.66l-.05,0a26.18,26.18,0,0,0-7.1-1.47h-.06a5,5,0,0,1-1.22,0c-3.32,4.48-6.58,7.62-13.38,6.57-.42.16-.27.19-.44.1,37.76,61.5,61.8,33.83,69.48,9.77C219,96.27,194.8,99.2,194,63.82Zm-12.5,15.9c0-.11,0-.08,0-.11l.05,0Zm-2.63-1.64c-4,.93-3.75,2.22-5,3.58l-.05.07,0,.06,0-.05a12.39,12.39,0,0,1-1.37,1.34c0,.8-3.71,1.88-3.8-.09,1-1.33,1.18-.47,1.74-.53a7,7,0,0,1,1.37.16,6.11,6.11,0,0,1,.32-.74c-2.28.75-2.85-2.5.62-1.67a1,1,0,0,1,.31.1c1.47-2.19,3.8-4.56,5.42-3.74h0l-.14,0c.65-.15,1.31-.27,2-.38C186.55,77.06,180.39,78.54,178.91,78.08Zm5,.39h0Zm18.55,18.87-.07,0Zm-10.57,4.92.08,0Zm5,1.95.26.08.1,0-.1,0-.25-.08Zm1.17.32.11,0Zm1.16-5.39h0c7.37-3.69,9.93-2.78,13.37-4.25,1.73,20.71-39,2.49-13.39,4.25Z"/><path class="cls-3" d="M185.59,70.72l0,0,0,0,.07.08A.71.71,0,0,0,185.59,70.72Z"/><path class="cls-3" d="M194,63.7v0l0-.05c-.06-.2-.06-.19-.07-.24v0a1.9,1.9,0,0,1,.07.24v0l0,.13,0,.14C194,63.75,194,63.81,194,63.7Z"/><path class="cls-3" d="M220.81,167.73c.67-.19,1.33-.38,2-.59-.68-.11-1.32-.24-1.94-.39C220.85,167.1,220.83,167.43,220.81,167.73Z"/><path class="cls-3" d="M211.15,115.81a11.14,11.14,0,0,1,2.13-3.93c-6.62,3.73-14,1.81-18,.15,12.61,16.45,13.54,51.41-11.2,41.87-17.7,22.84-29.89,5.61-27.26-5.45-6.12.74-11.41,1.18-16.26,1.64a85.59,85.59,0,0,0,78.08,18.25c-2.31-5.09-6.1-21.71-9.82-53.51C210.56,112.58,211.1,114.82,211.15,115.81Z"/><path class="cls-3" d="M173.81,81.75h0l0,0,0,0,0,0Z"/><path class="cls-3" d="M232.19,152.55a39.75,39.75,0,0,1-3.72-5.72C228.91,149.59,229.68,151.75,232.19,152.55Z"/><path class="cls-3" d="M176.91,78.7l-.09,0Z"/><path class="cls-3" d="M201.15,94.53l.09,0Z"/><path class="cls-3" d="M205.06,93.21l0-.06Z"/><path class="cls-3" d="M174.82,66.58h0Z"/><path class="cls-3" d="M193.93,89.45v-.17C193.92,89.37,193.93,89.42,193.93,89.45Z"/><path class="cls-3" d="M182,68.05h0l.05,0,.13,0Z"/><path class="cls-3" d="M219.18,150.24c.25,1.47.46,2.86.65,4.18C219.68,153,219.46,151.62,219.18,150.24Z"/><path class="cls-3" d="M213.82,48c.73.3,1.43.61,2.11.92a10.69,10.69,0,0,0-3.36-2.18A7.84,7.84,0,0,1,213.82,48Z"/><path class="cls-3" d="M188.35.42A85,85,0,0,0,149.5,14.26c4.22,5.48,3.51,14.47.78,17.06-11.87,11.53-18.71,8.63-21.11,1.83a85.55,85.55,0,0,0,7.25,113.11c11-.39,22.52.3,23.23-7.87-21.16-18.71,2.84-28.76-14.86-44.15-5-9.71,1.26-21.31,5.16-26.27C139.47,25,187,17,212.83,10.62A31.22,31.22,0,0,1,238,27.16l-.07-.48C251,54.37,250.79,82.14,248.85,107c11.92,9.3,8.68,21.89-.22,26.27,0,.31-.09.58-.14.88.42.67.86,1.32,1.34,1.94a24.68,24.68,0,0,1,9.3,7.78l.17.1a85.61,85.61,0,0,0,14.59-95.63c3.11,27.15-29.61-2.94-8-6.9a7.19,7.19,0,0,1,5.42,2,87,87,0,0,0-6-9.2c-7.1,8-17.6-6.38-14.59-15.14A85.17,85.17,0,0,0,205.2.42Q196.71.45,188.35.42ZM148,129.59c-8.3,29.3-33.7-8.06-18.77-14.47C142.1,110.85,147.49,122.53,148,129.59Z"/><path class="cls-3" d="M194,63.75a1,1,0,0,0-.05-.16v0c0,.06,0,.07,0,.08Z"/><path class="cls-3" d="M202.12,54.84l-.1,0,.09.07Z"/><path class="cls-3" d="M189.18.36l-.84.06c5.58,0,11.19,0,16.86,0L204,.33Q196.65.36,189.18.36Z"/><path class="cls-4" d="M194,63.65s0,0-.07-.24A1.9,1.9,0,0,0,194,63.65Z"/><path class="cls-4" d="M194,63.82l0-.13Z"/><path class="cls-4" d="M194,63.7s0,0,0-.08l0,.05Z"/><path class="cls-4" d="M221.85,68.72l.08-.12Z"/><path class="cls-4" d="M220,67.5s0,0,0,0Z"/><path class="cls-4" d="M217.53,70.54h0Z"/><path class="cls-4" d="M211.53,69.59h0Z"/><path class="cls-4" d="M211.68,69.59h0Z"/><path class="cls-4" d="M217.63,70.55h0Z"/><path class="cls-4" d="M193.92,63.42v0s0,0,.07.24v0l.05.16,0,0,.09.25-.06-.13c.76,35.39,24.94,32.45,35.24,19.24,3.32-10.37,3.59-20.08.6-21.68-7.38-1.18-9.56-8.32-13.95-12.43-.68-.32-1.38-.62-2.11-.93,4.07,5.06,2.75,15.09.85,18.9h0a.34.34,0,0,1-.09.08,1.41,1.41,0,0,1-.29.25l0,0,.05,0-.05,0,0,0,0,0,0,0,0,0,0,0h0c-.23.16-.3.15-.48.29h0l-.06-.22a5.73,5.73,0,0,1-4.53-1l0,0,0,0,0,0-.07-.06s0,0,0,0c1.49-9.51-1.51-13.65-.8-17.63l-.16,0c-4.62,6-10.2,7.4-15.78,7.92A13.09,13.09,0,0,0,193.92,63.42Zm21.45,7.33h0l.14,0-.09,0Zm6,.9s0,0,0,0,0,0,0,0Zm4.25-8.88-.09,0,.09,0Zm-5.87-1.12c2.42-2.88,4.8,1.25,6.13,1.23,1.67,3.34-7-1-6.12-1.23Zm-3.24,6.23,0,0h0Zm-1.75,1.3h0l0,0Zm-.93-1.63h0Zm-3.47-.43,0,0,0,0Zm-1.93,2.5c.83-.27.71,0,1.11-.08h0a5.44,5.44,0,0,0,1.45.08h.1c.12,0,.12,0,.15,0h.46c.85-.09,1,0,1.32-.06H213c1.56-.11,1.55-.41,2.38-.44a7.85,7.85,0,0,1,1,0c.12-.06.16-.07.08,0,.62,0,1.18.09,1.68.14a4.59,4.59,0,0,1,2.32-2.13c.85-.08,1.1,1,.9,1a17.58,17.58,0,0,1-1.59,1.39l.76.16.61-.35a2.11,2.11,0,0,0,.82-.75c2.11.46,1.18,1.23-.08,1.7,1.13.9-1.3,1.74-4.21.32H217a.88.88,0,0,1-1,.06l.14,0h-.52c-3.4.15-3.26.06-4.07-.58,0,.83-.06.69-.16.86h0l-.17.06,0,0a22,22,0,0,1-2.63.55,10.59,10.59,0,0,0-4.25,2.16l0,0c-6.37,4.38,2.27-5.31,3.89-4Zm-6.28-14.78V55l-.1-.07Z"/><path class="cls-4" d="M211.61,69.59Z"/><path class="cls-4" d="M219,166.18l0,.12,0-.12h0a30.93,30.93,0,0,0,.86-11.77c-.19-1.32-.41-2.71-.66-4.18-2.71-13.3-10.7-25.57-8-34.42-.05-1-.59-3.23-2.32-1,3.72,31.81,7.51,48.43,9.82,53.52.72-.19,1.44-.4,2.16-.61,0-.3,0-.63,0-1C220.22,166.59,219.59,166.4,219,166.18Z"/><path class="cls-4" d="M233.93,162.72a86,86,0,0,0,22.59-15.87,22.43,22.43,0,0,1-8.89-7.61c-3.84,19.74-9.79,20.32-15.44,13.31-2.51-.8-3.28-3-3.72-5.72-6.87-12.51-12.35-33.13-11.41-37.83a17.35,17.35,0,0,1-3.78,2.88,10.83,10.83,0,0,0-2.13,3.93,1.35,1.35,0,0,1,0,.4,298.27,298.27,0,0,1,8.06,34c.28,1.38.5,2.78.65,4.18a79.61,79.61,0,0,1,1,12.33c.63.16,1.28.29,1.94.39a84.27,84.27,0,0,0,11-4.36Z"/><path class="cls-4" d="M211.13,116.28v0Z"/><path class="cls-4" d="M259.13,143.91a24.65,24.65,0,0,0-9.29-7.78A32.06,32.06,0,0,0,259.13,143.91Z"/><path class="cls-4" d="M211.13,116.23v0Z"/><path class="cls-4" d="M219.18,150.24a296.62,296.62,0,0,0-8.05-34v0a1,1,0,0,0,0-.39C208.47,124.67,216.46,136.93,219.18,150.24Zm-8.05-33.77v0Z"/><path class="cls-4" d="M218.94,166.3l0-.11h0Z"/><path class="cls-4" d="M219,166.18q.93.33,1.89.57a80.89,80.89,0,0,0-1-12.34A30.93,30.93,0,0,1,219,166.18Z"/><path class="cls-4" d="M233.93,162.72l-.11,0Z"/><path class="cls-1" d="M150.28,31.32c2.73-2.59,3.44-11.58-.78-17.06a84.81,84.81,0,0,0-9.42,7.25c-.05,1.21-1,2.59-1.78,2.6a3.08,3.08,0,0,1-1.63.57,87.31,87.31,0,0,0-7.5,8.47C131.57,40,138.41,42.85,150.28,31.32Z"/><path class="cls-1" d="M138.29,24.11c.75,0,1.74-1.39,1.78-2.6-1.16,1-2.29,2.08-3.4,3.17A3,3,0,0,0,138.29,24.11Z"/><path class="cls-1" d="M273.89,48.38c-.81-1.67-1.68-3.29-2.59-4.9a7.19,7.19,0,0,0-5.42-2C244.28,45.45,277,75.53,273.89,48.38Z"/><path class="cls-1" d="M265.29,34.28A86.07,86.07,0,0,0,250.7,19.14C247.69,27.9,258.19,42.29,265.29,34.28Z"/><path class="cls-1" d="M139,132.84s0,0,0,.06,0,0,0,.06v0A.8.8,0,0,1,139,132.84Z"/><path class="cls-1" d="M129.23,115.12c-14.92,6.41,10.47,43.77,18.78,14.47C147.49,122.53,142.1,110.85,129.23,115.12ZM139,133v-.07a12.44,12.44,0,0,0,.26-1.93C142.42,133.44,137,138.4,139,133Z"/><path class="cls-1" d="M139.26,131a12.61,12.61,0,0,1-.26,1.93s0,0,0-.06a.53.53,0,0,1,0,.15v0C137,138.4,142.42,133.44,139.26,131Z"/><path class="cls-1" d="M139,133s0,0,0-.07Z"/><path class="cls-2" d="M239.6,76l0,0,0,0-.07-.08-.05,0Z"/><path class="cls-2" d="M222.22,110.51l0-.07h0l0-.06a.43.43,0,0,0,0-.07Z"/><path class="cls-2" d="M241.3,100.7V101A1,1,0,0,1,241.3,100.7Z"/><path class="cls-2" d="M249.58,118.76v0l0,.22a1.43,1.43,0,0,0,0,.16C249.6,118.83,249.62,118.93,249.58,118.76Z"/><path class="cls-2" d="M222.5,114.2l0,.09Z"/><path class="cls-2" d="M243.76,130.68h0a.86.86,0,0,1,.07-.1Z"/><path class="cls-2" d="M193.87,29.19h0Z"/><path class="cls-2" d="M194,29.19h0Z"/><path class="cls-2" d="M222.54,114.81v0Z"/><path class="cls-2" d="M243.16,143.77l0,.08,0,.07v0A.7.7,0,0,1,243.16,143.77Z"/><path class="cls-2" d="M192.39,126.94a.3.3,0,0,1,0-.1v0Z"/><path class="cls-2" d="M179.49,137.38h0l0,.05,0,.05Z"/><path class="cls-2" d="M178.14,147.38l0-.11Z"/><path class="cls-2" d="M174.78,124.7c0-.07,0,0,0-.07Z"/><path class="cls-2" d="M174.8,124.73c0,.17,0,.11,0,.17A1,1,0,0,0,174.8,124.73Z"/><path class="cls-2" d="M170.89,99.28a.8.8,0,0,0,0-.15Z"/><path class="cls-2" d="M188.79,117.33c0-.06,0,0,0-.06Z"/><path class="cls-2" d="M188.77,117.26v-.08C188.77,117.26,188.76,117.23,188.77,117.26Z"/><path class="cls-2" d="M193.86,134.73a.25.25,0,0,1,0,.09V135A2.35,2.35,0,0,1,193.86,134.73Z"/><path class="cls-2" d="M192.35,126.87s0,0,0,0h0Z"/><path class="cls-2" d="M192.35,126.87h0v0l0,0S192.36,126.9,192.35,126.87Z"/><path class="cls-2" d="M172.61,106.31v0Z"/><path class="cls-2" d="M179.25,107.58v-.08C179.25,107.58,179.24,107.56,179.25,107.58Z"/><path class="cls-2" d="M174.73,116.36l0,.16Z"/><path class="cls-2" d="M179.53,105.38a.3.3,0,0,0,0-.1Z"/><path class="cls-2" d="M188.81,117.45a.36.36,0,0,0,0-.1Z"/><path class="cls-2" d="M187.11,139.66h0l0,0Z"/><path class="cls-2" d="M186.9,134.19v0l0,.07a.84.84,0,0,0-.05.17C186.89,134.22,186.86,134.31,186.9,134.19Z"/><path class="cls-2" d="M179.27,107.68v0Z"/><path class="cls-2" d="M174,121.41l.05-.07Z"/><path class="cls-2" d="M173.86,121.6l.08-.15A1.21,1.21,0,0,0,173.86,121.6Z"/><path class="cls-2" d="M172.91,113.71l0-.08Z"/><path class="cls-2" d="M185.4,128.23v0Z"/><path class="cls-2" d="M181.32,114.44v0Z"/><path class="cls-2" d="M198.77,136.92v-.1a1.54,1.54,0,0,1,0,.17A.15.15,0,0,0,198.77,136.92Z"/><path class="cls-2" d="M218.81,44.9l-.06-.06S218.79,44.89,218.81,44.9Z"/><path class="cls-2" d="M247.43,124.72l.14-.13C247.43,124.72,247.47,124.67,247.43,124.72Z"/><path class="cls-2" d="M242.47,145.52a.44.44,0,0,0-.08.11Z"/><path class="cls-2" d="M191.58,28l-.14.07Z"/><path class="cls-2" d="M215.44,38.21l-.09,0Z"/><path class="cls-2" d="M218.72,44.33v.22A1.62,1.62,0,0,0,218.72,44.33Z"/><path class="cls-2" d="M242.73,106.71l0-.23Z"/><path class="cls-2" d="M196.92,50.31h0Z"/><path class="cls-2" d="M247.58,124.57l.08-.07Z"/><path class="cls-2" d="M241.15,101.55c0,.09,0,.06,0,.09Z"/><path class="cls-2" d="M249,123.12l.14-.22A1.86,1.86,0,0,0,249,123.12Z"/><path class="cls-2" d="M191.83,52.67l-.05,0Z"/><path class="cls-2" d="M193.55,51.57l-.09.06Z"/><path class="cls-2" d="M169.94,134.21h0l.05,0,0,0Z"/><path class="cls-2" d="M199,144a.14.14,0,0,1,0,.06h0l0-.17Z"/><path class="cls-2" d="M170.9,99.43v0Z"/><path class="cls-2" d="M166.11,111c0,.11,0,.07,0,.11S166.12,111,166.11,111Z"/><path class="cls-2" d="M189.45,29.25l0,.06Z"/><path class="cls-2" d="M166.9,108.61l0,.11Z"/><path class="cls-2" d="M200.74,49.23l.1-.09Z"/><path class="cls-2" d="M195.08,141.36l0-.06Z"/><path class="cls-2" d="M241.23,99.82v0Z"/><path class="cls-2" d="M199.17,142.52a1.37,1.37,0,0,0,0,.17A.85.85,0,0,1,199.17,142.52Z"/><path class="cls-2" d="M165.58,121l0-.12A.68.68,0,0,0,165.58,121Z"/><path class="cls-2" d="M241.16,119.89c0,.1,0,.07,0,.1A.36.36,0,0,1,241.16,119.89Z"/><path class="cls-2" d="M232.44,50.93h0l0-.06a.36.36,0,0,1,0,.1Z"/><path class="cls-2" d="M161.87,64.92v0Z"/><path class="cls-2" d="M158.16,104v0Z"/><path class="cls-2" d="M240.3,121.6l-.17.25Z"/><path class="cls-2" d="M238.22,128.44l0,.13Z"/><path class="cls-2" d="M184.09,153.9c24.74,9.54,23.81-25.42,11.2-41.87,4,1.66,11.37,3.58,18-.15a12.26,12.26,0,0,1,1.27-1.33h0c1.81-1.17,1.55-1,2.5-1.61,3.78-1.65,1.8,2.57.7,2.93a7.43,7.43,0,0,1,4,4.55c.14-1.24.26-2.3.31-2.92l.15.15c-2.23-2.15-2.38-4.26-1.84-5.15,2.29-1.17,1.4,1.53,1.77,1.87l0,.07a7.83,7.83,0,0,1,.6,8.68c-.1.44-.18.85-.27,1.25.36,4.83-.79,10,.06,11.72,5.28,4.22,5.17,10.26,5.9,14.74a39.69,39.69,0,0,0,3.71,5.72,10,10,0,0,0,4.11.25,11.54,11.54,0,0,0,6.12-4c-1.14.3-1.92-1.88.69-4.92,0-.07,0,0,0-.07a26.43,26.43,0,0,0-.85-5.58c-5.58-10.39,8.9-12.3,7.36-19.25,0-.22,0-.15,0-.22l-.09-.4a3.15,3.15,0,0,0,.09.42c-3.06-7.08-12.12-7.93-9.23-15.15l0-.08,0,.08s0,.08,0,.13a19.64,19.64,0,0,0,1-3v0c-3.11-5.35-1.95-9.27.38-12.39v0c.5-.81,1-1.65,1.47-2.46l0,0a2.33,2.33,0,0,0,.3-2.24c-3.47-6.58-11.46-11.33-7.59-17.26,2.25-1.31.75,2,.67,2.44a8.9,8.9,0,0,0,1.24,4.47,13,13,0,0,0,1.75,2.4l.11.11c11.69,7.08,0,15,1.39,20.63,3.19,19.4,22.16,22.51,4.22,32.49l.06-.07a8.31,8.31,0,0,0-1.48,1.71l0,.05,0,0a7.43,7.43,0,0,0-.84,3.4,9.63,9.63,0,0,0,.25,1.93h0a23.24,23.24,0,0,1,.91,4.13v0c0,.06,0,.13,0,.18l0-.16a26.31,26.31,0,0,1,.2,3.2c.33-3.71-.37-7.29,1.79-8.77a12.64,12.64,0,0,1,.44-4.37,20.89,20.89,0,0,0,2,4c0-.3.09-.57.14-.88,8.89-4.38,12.13-17,.22-26.27,1.94-24.9,2.16-52.66-10.94-80.36l.06.48a31.16,31.16,0,0,0-25.14-16.53C187,17,139.47,25,150,68c-3.9,5-10.2,16.56-5.16,26.27,17.7,15.39-6.3,25.44,14.86,44.15-.71,8.16-12.26,7.47-23.23,7.86,1.34,1.33,2.73,2.6,4.15,3.84,4.85-.46,10.14-.9,16.26-1.64C154.2,159.51,166.39,176.74,184.09,153.9Zm-13.23,4c-3.25-3.73,1.65-19.46-.88-23.64l0,0-.15-.1a.76.76,0,0,1,.15.09c-8.94-16.07-3-34.36-12.66-49.33-.65-.92-1.28-1.84-2-2.75a31.38,31.38,0,0,1,2,2.75c14.43,20.63,14.74,47,13.59,73Zm5.91-3.24h0v0c-2.59,4.16-1-3.79.09-4.44-.17-6.72,1.9-10.24,2.69-12.75l-.05-.06c-.06,0-.1-.11-.16-.16l.15.15c-8.65-11.94-6-33.74-10.66-43.77,2.16.09,1.78,1.8,2.07,2.16,0-.06,0-.12-.05-.18.05.09.09.19.13.26s-.06,0-.08-.08c5,22.34,13.21,41.37,5.86,58.87Zm10.34-15-.07.11.07-.12h0c.3-3.6-.87-4.85-.24-5.37l0-.05c.1-5.93-5.23-7.15-3.85-10.59l0,.06c.36-1.12.31-1,.26-.83-4.53-7.74-4.43-16.22-5-19.56a8,8,0,0,1,2.56,6c8.25,14.45,8,53.54,6.23,30.36Zm6.74-4.8v-.05a4,4,0,0,0-.08-1.14c0,.06,0,.12,0,.17-.06-.1-.1-.19-.15-.29l-.09-.06.09.06a12.85,12.85,0,0,1-1.3-6.65.5.5,0,0,0,0-.13l0,.06v-.06s0,0,0,0c-.81-6.75-8.73-13.42-5.06-18,1.89-.36,1.65,1.56,1.34,2.37,3.7,9.4,6.78,19.63,6.89,26.65v0h0c4.27,15.25-3.32,3.67-1.69-2.93Zm4.93,1.91v.14c3.76,3.91,1.29,11.43.2,7.14,0,0,0,0,0,.1l0-.11a.14.14,0,0,0,0-.06,36.87,36.87,0,0,0-.5-4.79l0,0,0,0c-1.36-8.21-4.87-17.09-3.29-23.35a59.77,59.77,0,0,1,3.58,21Zm-39-63.49c.17.09,0,.06.44-.11,6.8,1,10.06-2.08,13.38-6.57-1.44-.2-.49-1.4-.19-1.44.48,0,.88,0,1.24,0a72.34,72.34,0,0,1,5.73-7.43,97.76,97.76,0,0,1,12.08-1.14,6.05,6.05,0,0,1,2.36-4.13c-2.24,1-4,1.69-3.86,1.63-7.35-.52,9.66-6,10.11-7.55,3.44.41,1.22,2.17-2,3.88a89,89,0,0,1,9.18-1.76l.2-.25a6.34,6.34,0,0,1,.48-1.41c-3-2.61-2.66-3.41-2.12-4.05,1.28.54.7,1.16.93,1.4a1.25,1.25,0,0,0,0-.19q1,.95,1.8,1.8c.13-.19.24-.38.39-.57a7.59,7.59,0,0,1,2.66,1.38,10.69,10.69,0,0,1,3.36,2.18,47.87,47.87,0,0,1,6.92,3.88c-3.57-5.49-8-13.49-7.73-14.42-4.46-3.24-11.93-6.22-10.49-8.42C216.5,33,220,44.4,225.33,52.12l0-.11c.7,1.69,1.18,3,1.48,3.91,9.71,9,8.31,19.68,2.5,27.13C221.6,107.11,197.55,134.77,159.8,73.28ZM205.86,38.7a1.49,1.49,0,0,1,0-.18,8.49,8.49,0,0,0,.49,1.5c2.43-2.29,4,1.23,4.45,2.26,13,5.79-9.88-.82-5.87-5.18,1.37.62.7,1.39,1,1.6Zm21,85.56v.23s0-.06,0-.09c-3.15,12.88-1.91-9.4-.94-10.7a7.53,7.53,0,0,0-.57-1.45c-2.09-2.91-2.54-5.41-2-7.26,1.48.61,1.33,1.34,1.25,1.48a.72.72,0,0,1,0,.18.25.25,0,0,0,0-.08h0a3.36,3.36,0,0,0,.47,2.33c1.27,2.16,1.26,2.09,1.53,2.61a1.4,1.4,0,0,0-.09-.17c2.84,5.76-1.48,9,.35,13A.5.5,0,0,0,226.85,124.26Zm4.35,11c.12.48.22,1,.32,1.43l0,.13c.8,2.65.78,2.69.93,3.28l-.07-.27a14.56,14.56,0,0,1,.51,5.61v0c0,.26,0,.53,0,.79,0,0,0-.07,0-.1h0a2.81,2.81,0,0,1,0,.29h0v0c-1.37,6.95-6.88-20.4-3-19.53-.07.09-.13.19-.2.29,8-7.55-3.22-13.29-.09-19.58-1.68-8.21-1.94-14.43,1.33-20.2,2.63-1.81,1.51,2.13,1.31,2.8a1.21,1.21,0,0,0,.05-.14,2.25,2.25,0,0,1-.08.24.66.66,0,0,0,0-.1c-5.46,13.42,7.23,27.54.39,37.28l.19-.31A8.7,8.7,0,0,0,231.2,135.31ZM237,109.73a6.79,6.79,0,0,0,1.66,2.85c12.8,7.17-3.13,13.84-1,20v.09c0,.3,0,.59,0,.88v.11c1,4.28,2.35,7.17,1.26,9.57,0-.09.06-.18.09-.27-.18.64-.3,1.31-.5,2h0v0c-1.85,4.45-2.91-1.66-1.6-2.82a10.32,10.32,0,0,0,.26-1.84v-.05c-4.51-9.48,1-15,4.09-21.1-8.85-9.62-7.67-23.51-5.09-33.73v.2a7.7,7.7,0,0,0-.27-2.7v0c-.84-3-3.22-4.05-2.11-5.74C241.28,86.65,235.42,99.77,237,109.73Zm-21-95.56c13.46,2.14,21.7,20.73,22.84,30.23l.09-.29c-1.31,4.93,4.91,9.77,1.41,13.42-.72,9.64,3.47,14.89,7.79,20.51a.59.59,0,0,1,0-.13l0,.2-.05-.07c-.34,3.09-2.49-1.66-3.79-2l.07.1-.24-.13a.47.47,0,0,1,.17,0c-10.19-14.32-4.47-36.26-16.18-49.84C211.71,10.64,188.7,21.75,215.94,14.17ZM204.05,24.35h.07c4-1.3,4.58-2.55,5.95-2.8,12.36,8.5,19.57,17,22.37,29.32h0v.07h0c.05.2,0,.13.05.2a1.46,1.46,0,0,1,0-.59c2.56,3.85,3.35,6.84,3.06,8.11a6.6,6.6,0,0,0,.89,2.22c-7.29.19-12.45-30-18.19-31.88h-.08c-7.38,3.38-4.16-7-8.38-5.49l.19-.1c-3.85,2-3.13,1.69-4.87,2.16h0l-.18,0,.12,0C198.9,25.7,200.41,20.32,204.05,24.35ZM185.33,50.1c-10.69,7.31-17,16.85-14.66,12.45v.18c2.87-11.63,19.16-17.52,25-20.83C200.75,45.13,186.61,50.48,185.33,50.1Zm1.48-9.74c-24,14.32-18.87,28.77-20.31,21.52v.19c-.84-14.9,18-22.8,25-26.83C204.2,33.49,189.1,41.9,186.81,40.36Zm2.45-10.6c-10.63,13.44-23.71,9.85-25.84,24.43V54a1.13,1.13,0,0,1,0,.26v-.07h0c1.63,6.36-4.41,21.27-2.06,14.09l-.11.16a1.42,1.42,0,0,0,.08-.18A3.09,3.09,0,0,0,161,66.5l.1.17c-.34-11.37,1.41-20.84,6.07-24.78h0c2.54-2.07,3.34-2.33,4-2.26,6.5-3.31,11.1-7.19,15.31-9.74h0a17.79,17.79,0,0,1,6.53-2.63c8.09,0-2.79,4.83-3.68,2.5Zm-33.16,84c4-13-1.75-15.25-7.85-26.89,7.38-19,.71-51.5,21.29-54.85,3.18-6.42,7.31-6.12,9.87-5.65l-.1,0-.24-.08.24.08c4.09-1.52,6.76-8.61,8.76-7.25,7.5-.67,7.22,4.08,2.3,1.91a4.39,4.39,0,0,0-2.79.58c-2.9,1.67-2.52,2.41-3.12,3.43-1.73,8.57-9.24.84-11.36,6.43l0,0-.06.11a.36.36,0,0,1,0-.09c-13.09,6.43-6.95,9-13.49,12.5l0,0c-4.26,9.67-2.15,16.21-1.8,25.49-5.9,9.59-8.42,14.85-.41,25.14,8.6,10.14-3.94,25.58,4.22,33.61-.06-.13-.13-.25-.19-.39,7.67,9.4,2.13,24.81,2.75,30.12-8.69-6.8.19-16.11-1.92-22.41C159,127.72,150,120.76,156.1,113.75Z"/><path class="cls-2" d="M164.32,157.92l.09.05Z"/><path class="cls-2" d="M166.82,127.7l.09,0Z"/><path class="cls-2" d="M171.27,154v0Z"/><path class="cls-2" d="M169.74,149.84a.91.91,0,0,0,.07.14Z"/><path class="cls-2" d="M170.44,137.24c0-.08,0,0,.07-.23a2,2,0,0,1-.07.23Z"/><path class="cls-2" d="M165.46,135.4l-.06-.11s0,.08.06.11Z"/><path class="cls-2" d="M165.35,135.27l0-.11s0,0,0,.11Z"/><path class="cls-2" d="M160.51,89.44l0,.09Z"/><path class="cls-2" d="M171.6,147.57l.07-.2A1.59,1.59,0,0,1,171.6,147.57Z"/><path class="cls-2" d="M171.72,141.78l.1.06Z"/><path class="cls-2" d="M172.74,139.52l0,.08Z"/><path class="cls-2" d="M175.44,154.06s0,0,0-.09Z"/><path class="cls-2" d="M179.87,137.74s0,0,0,0Z"/><path class="cls-2" d="M187.05,145.87l0-.07Z"/><path class="cls-2" d="M188.11,143.1l0,.12Z"/><path class="cls-2" d="M188.22,142.55l0-.12Z"/><path class="cls-2" d="M188.34,136.48l.07-.24c0,.09,0,.18-.08.26Z"/><path class="cls-2" d="M197.55,134.74c0-.05,0,0,0-.16Z"/><path class="cls-2" d="M214.31,110.7l.11-.07Z"/><path class="cls-2" d="M160.48,69l.06,0Z"/><path class="cls-2" d="M166.16,64.5l0-.13Z"/><path class="cls-2" d="M202.13,46.53h0Z"/><path class="cls-2" d="M205.19,32.31l.07,0Z"/><path class="cls-2" d="M231.45,124.61s0,0,.09-.15Z"/><path class="cls-2" d="M238.42,145.25l0-.11Z"/><path class="cls-2" d="M235.26,78.73a1.19,1.19,0,0,0-.08-.16A1.19,1.19,0,0,1,235.26,78.73Z"/><path class="cls-2" d="M235.8,48.77l0,0-.08-.16c-.08-.14-.06-.09-.08-.14l.08.14.08.16Z"/><path class="cls-2" d="M232.52,49a.76.76,0,0,1,0,.15Z"/><path class="cls-2" d="M231.05,30.62l-.08-.08Z"/><path class="cls-2" d="M231,30.53l-.17-.19Z"/><path class="cls-2" d="M194.79,34.82h0Z"/><path class="cls-2" d="M161.21,68.5l.08-.06Z"/><path class="cls-2" d="M164.64,45v0Z"/><path class="cls-2" d="M173.16,31.34l.09-.13Z"/><path class="cls-2" d="M186.11,30l.17-.09A.91.91,0,0,1,186.11,30Z"/><path class="cls-2" d="M186.47,29.81l.06,0Z"/><path class="cls-2" d="M195.18,27.32l-.22-.07-.05,0Z"/><path class="cls-2" d="M157.42,60.59l0-.15,0,.15Z"/><path class="cls-2" d="M218,29h.26A1.78,1.78,0,0,1,218,29Z"/><path class="cls-2" d="M236.39,144.07c0,.14,0,.09,0,.14Z"/><path class="cls-2" d="M186.42,29.89h0l.17,0Z"/><path class="cls-2" d="M155.48,54.47l0,.11Z"/><path class="cls-2" d="M161.76,57.28l0,.07Z"/><path class="cls-2" d="M239.16,52.38v0Z"/><path class="cls-2" d="M236.36,93.17a.74.74,0,0,0,0-.14Z"/><path class="cls-2" d="M237.17,140.16a.45.45,0,0,1,0,.11v.16A2.44,2.44,0,0,1,237.17,140.16Z"/><path class="cls-2" d="M236,102.08v0Z"/><path class="cls-2" d="M154.44,62l0,.13Z"/><path class="cls-2" d="M154.49,62.21l0-.06Z"/><path class="cls-2" d="M152.22,81.1l-.12.11Z"/><path class="cls-2" d="M163.62,50.24l0,.07Z"/><path class="cls-2" d="M235.9,82.93h0v0Z"/><path class="cls-2" d="M162,56.1l0-.14Z"/><path class="cls-2" d="M158.14,103.73l-.06-.11Z"/><path class="cls-2" d="M237.68,132.73v-.1c0,.15,0,.19,0,.23S237.68,132.77,237.68,132.73Z"/><path class="cls-2" d="M237.64,133.81v0Z"/><path class="cls-2" d="M191.47,46.88l-.09,0Z"/><path class="cls-2" d="M161.32,61.48v-.07A.42.42,0,0,1,161.32,61.48Z"/><path class="cls-2" d="M179.69,54.07l-.21.1Z"/><path class="cls-2" d="M185.27,50.1v0h0Z"/><path class="cls-2" d="M185.35,50.06h0Z"/><path class="cls-2" d="M174.3,56.92l-.09.08Z"/><polygon class="cls-2" points="172.32 58.99 172.33 58.99 172.33 58.99 172.32 58.99"/><path class="cls-2" d="M187.11,40.07l-.13.11A.69.69,0,0,0,187.11,40.07Z"/><path class="cls-2" d="M172.42,59l-.08,0Z"/><path class="cls-2" d="M187.07,40.25l-.12,0Z"/><path class="cls-2" d="M168.15,54.38l0,.07A.43.43,0,0,0,168.15,54.38Z"/><path class="cls-2" d="M191.07,47.06l-.09.08Z"/><path class="cls-2" d="M185.49,50l-.09,0Z"/><path class="cls-2" d="M185.55,49.89l-.08,0Z"/><path class="cls-2" d="M186.8,46.83l-.16.08Z"/><path class="cls-2" d="M172.27,59c-.05.08,0,.06-.05.08Z"/><path class="cls-2" d="M222.7,33.61c0,.19,0,.12,0,.19A.46.46,0,0,0,222.7,33.61Z"/><path class="cls-2" d="M222.19,34.11h0Z"/><path class="cls-2" d="M219,29.08l.06,0Z"/><path class="cls-2" d="M193.41,37.71l-.17,0Z"/><path class="cls-2" d="M204.16,24.33h-.11l-.07,0Z"/><path class="cls-2" d="M225.44,38.66v0Z"/><path class="cls-2" d="M229.12,47.51l0,.1Z"/><path class="cls-2" d="M172.35,59l.07,0Z"/><path class="cls-2" d="M191.69,38.85a2.53,2.53,0,0,1-.25.24A2.83,2.83,0,0,0,191.69,38.85Z"/><path class="cls-2" d="M172.21,59.07l.06,0Z"/><path class="cls-2" d="M188.51,37.3h0Z"/><path class="cls-2" d="M170.66,63l0,.08Z"/><path class="cls-2" d="M157.05,111.86l-.08.27A2.76,2.76,0,0,0,157.05,111.86Z"/><path class="cls-2" d="M164.68,45.43l-.07.06Z"/><path class="cls-2" d="M164.47,45.58l-.07.05Z"/><path class="cls-2" d="M206,40.2l.07,0Z"/><path class="cls-2" d="M166.89,44.52c0,.08,0,0,0,.08Z"/><path class="cls-2" d="M159.41,108.65v0Z"/><path class="cls-2" d="M207.6,40.79l.11,0Z"/><path class="cls-2" d="M159.48,40.61l.18-.1Z"/><path class="cls-2" d="M226,120.84v0Z"/><path class="cls-2" d="M164.22,36.18l.07-.11Z"/><path class="cls-2" d="M159.66,40.51l.17-.09Z"/><path class="cls-2" d="M225,123.82v0Z"/><path class="cls-2" d="M186.38,32.48l.09-.08Z"/><path class="cls-2" d="M182.19,35.82l.17,0h0Z"/><path class="cls-2" d="M177.86,38.93l-.11,0Z"/><path class="cls-2" d="M178.36,38.73l-.09,0Z"/><path class="cls-2" d="M156.45,65.93v0Z"/><path class="cls-2" d="M213.06,44h0Z"/><path class="cls-2" d="M189.4,29.53c-.09,0-.06,0-.09,0Z"/><path class="cls-2" d="M171.38,39.67h0Z"/><path class="cls-2" d="M168.49,41l-.06.09Z"/><path class="cls-2" d="M175,37.79h0Z"/><path class="cls-2" d="M174.34,40.1l-.06.11A.6.6,0,0,0,174.34,40.1Z"/><path class="cls-2" d="M176.67,28.64a2.47,2.47,0,0,0,.29-.06Z"/><path class="cls-2" d="M231,142.38c0,.06,0,0,0,.06Z"/><path class="cls-2" d="M230.76,132.42a.73.73,0,0,1,0,.13A.57.57,0,0,0,230.76,132.42Z"/><path class="cls-2" d="M156.39,65.29l0,.14A.58.58,0,0,0,156.39,65.29Z"/><path class="cls-2" d="M230.5,97.67v.22A1.62,1.62,0,0,0,230.5,97.67Z"/><path class="cls-2" d="M231.19,93.73a1.21,1.21,0,0,0,.05-.18Z"/><path class="cls-2" d="M231.57,137l0-.1v0l0-.1,0-.11A3.08,3.08,0,0,1,231.57,137Z"/><path class="cls-2" d="M155.76,50.22v0Z"/><path class="cls-2" d="M155.6,54.25l0-.07Z"/><path class="cls-2" d="M229.88,61.38c3,1.6,2.72,11.3-.6,21.67,5.81-7.45,7.2-18.16-2.5-27.13,1.36,4.22-1,1.41-3.93-3.1a48.41,48.41,0,0,0-6.92-3.88C220.31,53.05,222.5,60.19,229.88,61.38Z"/><path class="cls-2" d="M208.25,48.66a86.9,86.9,0,0,0-9.18,1.76c-1.34.72-2.87,1.43-4.23,2a6.06,6.06,0,0,0-2.37,4.13C198.05,56.05,203.64,54.6,208.25,48.66Z"/><path class="cls-2" d="M244.28,143.33c0,3.66-1,5.28-1.87,5.51a11.45,11.45,0,0,1-6.11,4,10,10,0,0,1-4.12-.25c5.65,7,11.61,6.43,15.44-13.31a10.94,10.94,0,0,1-1.54-4.68C243.91,136,244.61,139.62,244.28,143.33Z"/><path class="cls-2" d="M222.58,132.09c-.86-1.67.3-6.88-.06-11.72-2.55,12-1.43,1.93-.77-4a7.43,7.43,0,0,0-4-4.55c1.1-.36,3.08-4.58-.7-2.93-1,.6-.69.44-2.5,1.61a12.26,12.26,0,0,0-1.27,1.33,17.17,17.17,0,0,0,3.79-2.88c-.95,4.69,4.53,25.32,11.41,37.83C227.75,142.35,227.86,136.31,222.58,132.09Zm-1-7.68v-.11A.41.41,0,0,1,221.63,124.41Z"/><polygon class="cls-2" points="214.54 110.56 214.55 110.55 214.55 110.55 214.54 110.56"/><path class="cls-2" d="M242.77,148.4v0Z"/><path class="cls-2" d="M214.42,110.64l-.1.06Z"/><path class="cls-2" d="M210.08,48.26c-.12-.2-.22-.41-.36-.61h0s0,0,0,0c-.16-.12-.3-.24-.44-.36q-.4.58-.81,1.14a1.52,1.52,0,0,0,0,.21C209,48.51,209.57,48.39,210.08,48.26Zm-.5-.7.09.06-.08-.06Z"/><path class="cls-2" d="M209.87,46.32c.53.54,1,1.07,1.41,1.57a6,6,0,0,0,1.06-.5c.51.2,1,.41,1.48.62a8.76,8.76,0,0,0-1.25-1.26,9.85,9.85,0,0,0-2.56-.66C210,46.17,209.91,46.24,209.87,46.32Z"/><path class="cls-2" d="M212.5,52.41v-.25A1.54,1.54,0,0,1,212.5,52.41Z"/><path class="cls-2" d="M208.42,48.62c-.71,4,2.28,8.13.79,17.64,0,0,0,0,0,0l.07.06s0,0,0,0a5.7,5.7,0,0,0,4.53,1c-2.41-8.36-.25-13.17-3.67-19.05C209.57,48.39,209,48.51,208.42,48.62Z"/><path class="cls-2" d="M211.28,47.89c1.42,1.73,2.06,3.2,1.23,4.41,4.83,7.44,0,9.86,2.16,14.62h0c1.9-3.82,3.22-13.84-.85-18.9-.49-.21-1-.42-1.48-.62A6,6,0,0,1,211.28,47.89Zm3.87,5.42h0Zm-.14,0h0Z"/><path class="cls-2" d="M215.1,53.32h0Z"/><path class="cls-2" d="M214.31,67.23v0a2.37,2.37,0,0,0,.29-.25l-.28.24Z"/><path class="cls-2" d="M213.2,58.88l-.06.06Z"/><path class="cls-2" d="M215,53.33h0Z"/><path class="cls-2" d="M211,49.3v.14A.33.33,0,0,1,211,49.3Z"/><path class="cls-2" d="M210,46.1a9.46,9.46,0,0,1,2.56.66,7.68,7.68,0,0,0-2.66-1.38c-.15.2-.26.38-.39.58l.35.36A1.64,1.64,0,0,1,210,46.1Z"/><path class="cls-2" d="M208.94,47a7,7,0,0,0-.48,1.42l.81-1.14Z"/><path class="cls-2" d="M210.33,67.12l0,0Z"/><path class="cls-2" d="M214.22,67.31l0,0h0S214.23,67.29,214.22,67.31Z"/><path class="cls-2" d="M214.26,67.27h0l0,0h0Z"/><polygon class="cls-2" points="213.82 67.53 213.81 67.54 213.82 67.53 213.82 67.53"/><polygon class="cls-2" points="213.8 67.55 213.8 67.55 213.81 67.54 213.8 67.55"/><path class="cls-2" d="M216.49,67.88v0h0Z"/><path class="cls-2" d="M211.53,69.59h0l-.34,0h0Z"/><polygon class="cls-2" points="211.62 69.59 211.61 69.59 211.61 69.59 211.62 69.59"/><polygon class="cls-2" points="211.68 69.59 211.67 69.59 211.67 69.59 211.68 69.59"/><path class="cls-2" d="M212.93,69.52H213A.08.08,0,0,1,212.93,69.52Z"/><path class="cls-2" d="M211.5,69.6Z"/><path class="cls-2" d="M216,70.59h0a.86.86,0,0,0,1-.06A8.18,8.18,0,0,0,216,70.59Z"/><path class="cls-2" d="M211.68,69.59h-.07c0,.17,0,.3,0,.42.81.65.67.74,4.06.59h.27c-2,.11-.08-1.22.46-1.51a8,8,0,0,0-1,0c-.82,0-.81.34-2.37.44H213c-.3,0-.47,0-1.32.07h0Z"/><path class="cls-2" d="M211.61,69.59h0Z"/><path class="cls-2" d="M215.38,70.74l.09,0-.14,0Z"/><polygon class="cls-2" points="183.85 78.48 183.87 78.46 183.85 78.47 183.85 78.48"/><path class="cls-2" d="M181.54,79.72l.08-.13-.05,0S181.57,79.61,181.54,79.72Z"/><path class="cls-2" d="M191.47,84.41l0,.18A1.23,1.23,0,0,0,191.47,84.41Z"/><path class="cls-2" d="M174.84,66.59h.06a25.81,25.81,0,0,1,7.1,1.47h0l.22.07-.13,0a9.26,9.26,0,0,1,3.57,2.65l0,0,0,0,0,0,.11.12-.08-.08a24.42,24.42,0,0,1,2.65,4.16l0-.08a1.29,1.29,0,0,0,.09.16l-.05-.08a46.28,46.28,0,0,1,3.55,11.38.14.14,0,0,0,0-.06c.44,1.7-.17,4.5,1.11,7.55,4.37,7.69,22.28-6.5,6.92.52l.17.12-.25-.08.09,0c-1.46-1-5.78-.44-5.9-4.85a1.65,1.65,0,0,0,0-.17l0,0c-.08-.42-.17-.84-.25-1.26l0,.22c-.09-.55-.17-1.09-.28-1.64v0l0-.21,0,.19c-.09-.64-.09-.27-.59-2.81a1.16,1.16,0,0,1,0,.18,47.82,47.82,0,0,0-3.94-11l0,0a12.73,12.73,0,0,0-12.41-7.76h0c-.32,0-.9-.13-1.87-.17-.35.51-.7,1-1.05,1.46A4.9,4.9,0,0,0,174.84,66.59ZM205.1,93.15l0,.06Zm-3.86,1.36-.09,0Zm-.18,0-.08,0Zm-3.61.82-.07,0Zm-.07,0ZM191.5,84.59l0-.18A1.23,1.23,0,0,1,191.5,84.59Zm-1.64-9.68,0-.07ZM189,76.35l0,0Zm-12-9.56h0Zm-.56-1.47h-.1a.11.11,0,0,1,.1,0Z"/><path class="cls-2" d="M193,93.94l0,.07Z"/><path class="cls-2" d="M185.59,70.72l0,0A.13.13,0,0,0,185.59,70.72Z"/><path class="cls-2" d="M182.05,68.08l-.05,0Z"/><path class="cls-2" d="M174.9,66.59h0Z"/><path class="cls-2" d="M193.94,89.52v0Z"/><path class="cls-2" d="M193,93.94a.94.94,0,0,1-.06-.15.43.43,0,0,0,0-.07A2.14,2.14,0,0,0,193,93.94Z"/><path class="cls-2" d="M188.23,74.84s0,.06.05.08l0,.09A.91.91,0,0,0,188.23,74.84Z"/><path class="cls-2" d="M193.42,86.67v0l0-.19Z"/><path class="cls-2" d="M200,94.42l-.17-.12-.09,0Z"/><path class="cls-2" d="M193.93,89.43l0-.1v0Z"/><path class="cls-2" d="M173.43,65.16c-.3,0-1.25,1.23.19,1.44.34-.47.7-1,1-1.46C174.31,65.14,173.91,65.14,173.43,65.16Z"/><path class="cls-2" d="M199.24,99.13l.1,0-.21,0,.08,0c-25.66-1.76,15.12,16.46,13.4-4.26C209.17,96.35,206.6,95.45,199.24,99.13Zm-3.56,1.26h0Z"/><path class="cls-2" d="M197.13,104.29l.11,0Z"/><path class="cls-2" d="M197.13,104.29l-.25-.08Z"/><path class="cls-2" d="M202.34,97.38l.07,0Z"/><path class="cls-2" d="M259.24,144.08l.06-.07-.17-.1Z"/><path class="cls-2" d="M249.84,136.13c-.48-.62-.93-1.27-1.35-1.94-.05.39-.11.77-.17,1.14Z"/><path class="cls-2" d="M247.62,139.24a22.46,22.46,0,0,0,8.9,7.61c.93-.9,1.83-1.83,2.71-2.77l-.1-.17a32.06,32.06,0,0,1-9.29-7.78l-1.53-.8C248.09,136.71,247.86,138,247.62,139.24Zm6.5,2.38-.12-.11Z"/><path class="cls-2" d="M246.08,134.56l.28-.18c.68.32,1.32.63,1.95,1q.09-.56.18-1.14a20.89,20.89,0,0,1-2-4A12.35,12.35,0,0,0,246.08,134.56Z"/><path class="cls-2" d="M246.36,134.38l-.28.18a10.94,10.94,0,0,0,1.54,4.68c.24-1.23.47-2.54.69-3.91C247.68,135,247,134.7,246.36,134.38Z"/><path class="cls-5" d="M184.45,25h0v0Z"/><path class="cls-5" d="M187.54,21.58h0l0,0Z"/><path class="cls-5" d="M190.37,21Z"/><path class="cls-5" d="M156.11,113.73v0h0Z"/><path class="cls-5" d="M173.25,31.21l-.09.13Z"/><path class="cls-5" d="M179.31,26.33l-.24-.08Z"/><path class="cls-5" d="M162,152.39l0-.12A.53.53,0,0,1,162,152.39Z"/><path class="cls-5" d="M173.12,31.41l0,0a.36.36,0,0,0,0,.09Z"/><path class="cls-5" d="M154.49,62.21v0Z"/><path class="cls-5" d="M164.23,157.88c-.62-5.31,4.92-20.72-2.75-30.12.06.14.13.26.19.39-8.16-8,4.38-23.47-4.22-33.61-8-10.29-5.49-15.55.41-25.14-.35-9.27-2.46-15.82,1.8-25.49l0,0c6.54-3.53.39-6.07,13.49-12.5,2.12-5.59,9.63,2.14,11.36-6.43h0v0c.6-1,.23-1.76,3.12-3.43h0l.08,0,0,0a4.39,4.39,0,0,1,2.79-.58h0c4.92,2.17,5.2-2.58-2.3-1.91-2-1.36-4.67,5.73-8.76,7.25l.11,0c-2.57-.47-6.7-.77-9.88,5.65C149,35.36,155.64,67.83,148.26,86.86c6.1,11.64,11.88,13.9,7.85,26.89v0h0c-6,7,2.91,14,6.21,21.72C164.42,141.77,155.54,151.08,164.23,157.88Zm-2.4-5.7a1,1,0,0,1,.07.15A1,1,0,0,0,161.83,152.18Zm.1.09,0,.12A.25.25,0,0,0,161.93,152.27Zm2.1-7-.1.34A3.37,3.37,0,0,0,164,145.29Zm-4.62-36.64v0Zm-.09-9-.06-.13ZM177,28.58l-.29.07Zm-12.67,7.49a.75.75,0,0,1-.07.12Zm-4.46,4.36-.17.09Zm-.17.09-.17.1s0,0,.17-.11Zm-3.21,25.3v0Zm0-.39,0-.14a.58.58,0,0,1,0,.14Zm-.65-15.28v0Zm-.13,4,0,.07Zm-.13.41,0-.12,0,.14Zm-.7,14.37-.07-.11Zm-.3-6.68h0Zm0,0v0l0-.06,0,.06Zm0-.11,0-.13c0,.05,0,0,0,.14ZM152.11,81.2l.11-.1-.12.12Zm4.46,43.38.11.13a1.36,1.36,0,0,1-.12-.12Zm.45-13.07-.07-.07Zm0,.61a2.21,2.21,0,0,1,.08-.27l-.09.28Zm1.06-8,.06-.18Zm.05-.49a.54.54,0,0,1,0,.11l-.06-.09Zm.08.34v0s0,0,0,.07Z"/><path class="cls-5" d="M157.39,60.44l0,.15Z"/><path class="cls-5" d="M165.34,135.16l0,.11C165.34,135.16,165.35,135.2,165.34,135.16Z"/><path class="cls-5" d="M158.1,103.92l-.06.18Z"/><path class="cls-5" d="M163.93,145.63c0-.11,0,0,.1-.33C164,145.41,164,145.52,163.93,145.63Z"/><path class="cls-5" d="M169.94,134.21l.09,0,0,0c2.52,4.17-2.37,19.91.88,23.64,1.16-26,.84-52.37-13.58-73C167,99.85,161,118.14,169.94,134.21Zm-3-25.49s0,0,0-.11Zm-.07-.24,0-.1Zm-.73,2.59a.87.87,0,0,0,0-.11s0,.07,0,.11Zm0,0a.69.69,0,0,0-.07-.15.69.69,0,0,1,.07.15ZM166,119l-.06-.07Zm-.39,1.71v0Zm0,.16h0Zm0,.06,0,.12a.58.58,0,0,0,0-.12Zm-1-21.81,0-.09Zm-1.79-4.44a.36.36,0,0,1,0,.09l0-.09Z"/><path class="cls-5" d="M171.28,153.88v0Z"/><path class="cls-5" d="M171.67,147.37l-.07.2A1.59,1.59,0,0,0,171.67,147.37Z"/><path class="cls-5" d="M157.29,84.88a33.73,33.73,0,0,0-2-2.75C156,83,156.64,84,157.29,84.88Z"/><path class="cls-5" d="M169.81,150a.91.91,0,0,0-.07-.14Z"/><path class="cls-5" d="M170.51,137c-.07.23,0,.15-.07.23A2,2,0,0,0,170.51,137Z"/><path class="cls-5" d="M169.8,134.12l.15.1h0Z"/><path class="cls-5" d="M168.84,93.6c4.6,10,2,31.83,10.65,43.78l.11.11,0-.05c-.79,2.52-2.85,6-2.69,12.76,0,0,0,0,.08-.06l-.08.1v0c-1.08.65-2.68,8.6-.09,4.44,7.34-17.5-.87-36.53-5.87-58.87C170.61,95.4,171,93.7,168.84,93.6Zm9.27,53.67,0,.11,0-.11Zm1.13-3,.06.12A.34.34,0,0,1,179.24,144.32Zm-8.38-45.19,0,.15Zm3.93,25.76s0,0,0-.17A.91.91,0,0,1,174.79,124.89Zm4,8.61,0-.07Zm-3.88-16.75-.06-.11A.3.3,0,0,0,174.88,116.75Zm-.07,7.88s0,0,0,.07Zm0-8.11s0,0,0-.16a.9.9,0,0,0,0,.16Zm0,8-.06-.12Zm-.73-3.13-.06.07Zm-.08.11-.08.15s0,0,.07-.15Zm-1-7.82,0,.08s0,0,0-.08Zm-.34-7.47v0Zm-1.71-6.62v0Z"/><path class="cls-5" d="M176.93,150.15s-.05,0-.07,0v0Z"/><path class="cls-5" d="M170.85,95.59c0,.06,0,.12,0,.18s.05.07.08.08A2,2,0,0,0,170.85,95.59Z"/><path class="cls-5" d="M179.34,137.22l.15.17h0Z"/><path class="cls-5" d="M179.54,137.44l0-.05Z"/><path class="cls-5" d="M176.77,154.63h0v0Z"/><path class="cls-5" d="M175.46,154l0,.09Z"/><path class="cls-5" d="M179.89,137.79s0,0,0,0Z"/><path class="cls-5" d="M188.4,136.26l-.07.24C188.36,136.42,188.38,136.33,188.4,136.26Z"/><path class="cls-5" d="M187.07,145.8l0,.07Z"/><path class="cls-5" d="M186.87,134.3l0-.06Z"/><path class="cls-5" d="M188.24,142.45l0,.12Z"/><path class="cls-5" d="M187,139.78l.07-.11h0Z"/><path class="cls-5" d="M187.14,139.61l0-.07Z"/><path class="cls-5" d="M187.51,138.76v0Z"/><path class="cls-5" d="M180.85,109.54a1.55,1.55,0,0,0,0-.22v.22Z"/><path class="cls-5" d="M180.85,109.54v-.22a7.92,7.92,0,0,0-2.56-6c.54,3.34.44,11.83,5,19.56.05-.14.09-.28-.26.83l0,0c-1.39,3.43,3.94,4.65,3.85,10.58v0c0,.12,0,0-.08.27a.84.84,0,0,1,.05-.17c-.64.52.54,1.76.24,5.37l0,0,0-.07,0,.07,0,0c1.81,23.18,2-15.9-6.24-30.35A1.55,1.55,0,0,1,180.85,109.54Zm-1.8-2,.11.07-.11-.06Zm.15.1.05,0Zm0-.12v.08s0,0,0-.08Zm0,.21v0Zm0,0v-.08a.14.14,0,0,1,0,.09Zm.23-2.4,0,.1Zm8,33.36v0Zm-.07.4v0s0,0,0,0Zm-2-10.71v0Zm0,.13-.05,0Zm-.1-2.46-.09-.1.09.11ZM184,120.67a.54.54,0,0,1-.05-.11,1.17,1.17,0,0,0,.05.11Zm-2.65-6.23v0Z"/><path class="cls-5" d="M188.12,143.23l0-.12Z"/><path class="cls-5" d="M192.35,126.87v0a.43.43,0,0,1,0,0v.06a0,0,0,0,0,0,0Z"/><path class="cls-5" d="M192.37,127s0,0,0,.07A.17.17,0,0,1,192.37,127Z"/><path class="cls-5" d="M195.53,137.85v-.06c-.11-7-3.19-17.25-6.89-26.63a1.23,1.23,0,0,1-.12.26l.1-.3,0,0c.3-.81.54-2.73-1.34-2.37-3.68,4.63,4.25,11.3,5,18a1,1,0,0,0,0,.1l0-.07s0,0,0,.08,0,0,0,.07,0,0,0-.07v0a12.85,12.85,0,0,0,1.3,6.65h0l.14.29,0-.17a4.35,4.35,0,0,1,.08,1.14.28.28,0,0,1,0-.09,2.17,2.17,0,0,0,0,.26v-.12c-1.64,6.61,6,18.19,1.68,2.94Zm-6.77-20.67v.08S188.77,117.26,188.76,117.18Zm0,.1,0,0Zm0,.07a.36.36,0,0,1,0,.11Zm2.71,4,.06.06Zm.19.18.09.06-.09-.06Zm.71,5.23h0Zm1.36,6.84v0Zm0,0s0,0,0,0v0Zm.33-3.76v0Zm.08,1.48.06.06Zm.56,9.35a1.59,1.59,0,0,1,.13.13l-.12-.12Zm.33.59v0Zm1.63,2.91,0-.05Zm0-.06,0-.05a.3.3,0,0,1,0,.06Z"/><path class="cls-5" d="M194.1,129.83v0Z"/><path class="cls-5" d="M192.46,126.81l-.06,0Z"/><path class="cls-5" d="M192.35,126.86h0l0-.06a.5.5,0,0,1,0,.13v0Z"/><path class="cls-5" d="M195.54,137.66v0Z"/><polygon class="cls-5" points="195.53 137.81 195.53 137.81 195.53 137.81 195.53 137.81"/><path class="cls-5" d="M195.53,137.85v.07S195.53,137.89,195.53,137.85Z"/><path class="cls-5" d="M188.52,111.42a1.23,1.23,0,0,0,.12-.26l0,0Z"/><path class="cls-5" d="M198.93,144.17a.36.36,0,0,0,0-.11h0Z"/><path class="cls-5" d="M198.48,139.21l.08.09-.08-.09A36.51,36.51,0,0,1,199,144l0-.1,0,.16c1.1,4.3,3.57-3.22-.19-7.13V137a1.6,1.6,0,0,1,0-.17,59.78,59.78,0,0,0-3.59-21C193.61,122.12,197.12,131,198.48,139.21Zm.73,3.48c0-.06,0,0,0-.17A.85.85,0,0,0,199.21,142.69Zm-.58-3.32a.61.61,0,0,1,0-.12s0,.08,0,.12Zm-2.42-13.53-.08-.08Z"/><path class="cls-5" d="M198.77,136.92v0Z"/><path class="cls-5" d="M197.55,134.6c0,.15,0,.1,0,.15Z"/><path class="cls-5" d="M186.37,29.9h0Z"/><path class="cls-5" d="M195.18,27.32l-.27-.09.05,0Z"/><path class="cls-5" d="M186.53,29.75l-.06.05Z"/><path class="cls-5" d="M160.54,69l-.06,0Z"/><path class="cls-5" d="M164.64,44.88v0Z"/><path class="cls-5" d="M161.28,68.44l-.07.06Z"/><path class="cls-5" d="M186.29,30l-.18.09Z"/><path class="cls-5" d="M171.34,39.66l-.23,0,0,0Z"/><path class="cls-5" d="M163.57,50.11v.15A.57.57,0,0,1,163.57,50.11Z"/><path class="cls-5" d="M163.53,50.22l0-.06Z"/><path class="cls-5" d="M186.42,29.89l.17,0-.17,0c-4.21,2.55-8.8,6.43-15.31,9.74l.23,0h-.27l0,0c-.64-.07-1.44.19-4,2.27h0c-4.66,3.93-6.41,13.4-6.07,24.77a1.4,1.4,0,0,1-.09-.17,3.08,3.08,0,0,1,.36,1.76,1,1,0,0,0,0-.1.56.56,0,0,1,0,.12v0a1.42,1.42,0,0,1-.08.18l.11-.16c-2.35,7.18,3.7-7.73,2.07-14.09v.07c0-.09,0-.17,0-.26v.19c2.12-14.58,15.2-11,25.83-24.43.89,2.33,11.77-2.47,3.69-2.5A17.84,17.84,0,0,0,186.42,29.89ZM161.31,61.41v.07A.42.42,0,0,0,161.31,61.41Zm.41-4.06,0-.07Zm.14,7.65v0Zm.11-9,0,.14Zm1.53-2.37h0Zm0-3.43,0,.06Zm.05.1v-.15C163.56,50.26,163.57,50.21,163.56,50.26Zm0,.05,0-.07Zm.81-4.68.08-.05Zm.21-.14.07-.06Zm2.23-.89s0,0,0-.08Zm1.59-3.55.06-.09-.06.09Zm2.95-1.38Zm2.9.54.06-.11a.6.6,0,0,1-.06.11Zm.53-2.42h0ZM177.75,39l.11,0Zm.52-.18.09-.05-.09,0Zm3.92-3,.17,0h0Zm4.19-3.34.09-.08-.09.07Zm2.93-2.94Zm0,0s0,0,.08,0Zm.1-.24,0-.06Zm2-1.21.13-.07ZM194,29.19h0Zm-.12,0h0Z"/><path class="cls-5" d="M161.38,68.16s0,.06,0,.1v0Z"/><path class="cls-5" d="M166.19,64.37l0,.13Z"/><path class="cls-5" d="M191.48,35.24c-7,4-25.82,11.93-25,26.83v-.19c1.44,7.25-3.69-7.2,20.31-21.52C189.1,41.9,204.2,33.49,191.48,35.24ZM168.11,54.45l0-.07A.43.43,0,0,1,168.11,54.45ZM179,45.51h0Zm8-5.23.12,0Zm0-.1.13-.11A.69.69,0,0,1,187,40.18Zm1.38-2.88h0Zm.34-.08.16-.07Zm2.74,1.87.25-.24A2.83,2.83,0,0,1,191.44,39.09Zm1.8-1.34.17,0Z"/><path class="cls-5" d="M188.86,37.15l-.16.07Z"/><path class="cls-5" d="M195.64,41.9c-5.81,3.31-22.1,9.2-25,20.83v-.18c-2.35,4.4,4-5.14,14.66-12.45C186.61,50.48,200.75,45.13,195.64,41.9ZM170.63,63l0-.07Zm1.79-4.1-.07,0Zm-.15.08-.06,0,.06,0Zm-.05.11.05-.08Zm.12-.13.08,0h-.08Zm1.31-1.84h.2l-.2,0Zm.56-.15.09-.08-.09.07ZM178,55.58l0-.08Zm1.49-1.4.21-.1-.21.09Zm5.79-4.07v0h0Zm.08,0Zm0,0,.1,0Zm.08-.08.08,0Zm1.17-3,.16-.08-.16.07Zm4.33.24.09-.08Zm.41-.25h0Z"/><path class="cls-5" d="M178,55.49l0,.08Z"/><path class="cls-5" d="M172.42,59h0Z"/><path class="cls-5" d="M201.09,46.53c-.45,1.56-17.46,7-10.11,7.55-.19.07,1.61-.63,3.86-1.63a12.83,12.83,0,0,1,4.23-2C202.3,48.7,204.52,46.94,201.09,46.53Zm-.25,2.61-.1.08Zm-9.07,3.55,0,0Zm1.69-1.06.08-.07Zm3.64-1.32h0Z"/><path class="cls-5" d="M194.84,52.45c1.36-.6,2.88-1.31,4.23-2A12.83,12.83,0,0,0,194.84,52.45Z"/><path class="cls-5" d="M235.78,48.73l-.08-.16Z"/><path class="cls-5" d="M240.21,57.62l.07-.09a1.34,1.34,0,0,1,0-.2C240.26,57.44,240.23,57.53,240.21,57.62Z"/><path class="cls-5" d="M235.87,34.6v0Z"/><path class="cls-5" d="M228.09,26.21h0c11.72,13.58,6,35.52,16.19,49.85,1.3.33,3.45,5.07,3.79,2-4.32-5.63-8.51-10.88-7.79-20.52l-.07.09c0-.09,0-.19.08-.29a1.34,1.34,0,0,1,0,.2c3.5-3.65-2.72-8.49-1.41-13.42l-.09.29c-1.14-9.49-9.38-28.09-22.84-30.23C188.7,21.75,211.71,10.64,228.09,26.21Zm14.77,46.71-.05,0Zm-.06-.07-.13-.14Zm-2.18-6.58-.07-.11Zm-1.45-14v.14S239.16,52.38,239.17,52.24Zm0-.21-.07-.08.07.09Zm-3.26-17.54v0Zm-7.93-8.43-.1-.11Zm-8.07-7.93-.09-.05Z"/><polygon class="cls-5" points="228.09 26.21 228.09 26.21 228.09 26.21 228.09 26.21"/><path class="cls-5" d="M248.09,77.91s0,.08,0,.13l.05.07Z"/><path class="cls-5" d="M235.7,48.57l-.07-.14S235.63,48.43,235.7,48.57Z"/><path class="cls-5" d="M244.35,76.16l-.07-.11a.47.47,0,0,0-.17,0Z"/><path class="cls-5" d="M243.11,143.92l0-.07S243.13,143.85,243.11,143.92Z"/><path class="cls-5" d="M243.74,130.72l0-.05h0Z"/><path class="cls-5" d="M249.64,119a.68.68,0,0,0,0-.22A2.16,2.16,0,0,0,249.64,119Z"/><path class="cls-5" d="M242.27,138.16v.11l0,.07Z"/><path class="cls-5" d="M245.31,128.9l.06-.06Z"/><path class="cls-5" d="M239.57,75.91l-.1-.11.07.08Z"/><path class="cls-5" d="M244.08,140.11v0c0,.05,0,.1,0,.17Z"/><path class="cls-5" d="M243.4,83.62a.29.29,0,0,0,0,.13l0,.09C243.43,83.76,243.41,83.69,243.4,83.62Z"/><path class="cls-5" d="M242.92,134.13a.11.11,0,0,1,0,0c0-.05,0-.11,0-.17Z"/><path class="cls-5" d="M236.47,69a0,0,0,0,1,0,0v0Z"/><path class="cls-5" d="M237.78,73.56l-.07-.16a.28.28,0,0,0-.05-.08Z"/><path class="cls-5" d="M242.77,148.3v0a11.09,11.09,0,0,0,1.51-5,22.82,22.82,0,0,0-.2-3.2,22.37,22.37,0,0,0-.9-4.13h0a9,9,0,0,1-.25-1.93.11.11,0,0,1,0,0v-.22c0,.06,0,.11,0,.17a7.34,7.34,0,0,1,.84-3.4l.06-.1-.06.1a8.11,8.11,0,0,1,1.48-1.72l-.07.07c18-10-1-13.09-4.21-32.49-1.43-5.57,10.3-13.55-1.4-20.62l0,0-.18-.2,0,0a12.2,12.2,0,0,1-1.75-2.4l.06.16a2.56,2.56,0,0,1-.11-.24.22.22,0,0,0,.05.08,8.77,8.77,0,0,1-1.24-4.47v0c.08-.49,1.58-3.75-.67-2.44-3.87,5.93,4.12,10.68,7.58,17.26a.29.29,0,0,1,0-.13c0,.07,0,.15.05.22l-.05-.09A2.31,2.31,0,0,1,243.1,86l0,0c-.5.82-1,1.65-1.47,2.46l0,0c-2.34,3.13-3.5,7-.38,12.39v-.07a2,2,0,0,0,0,.25v-.15a20.78,20.78,0,0,1-1,3l0-.13c-2.89,7.22,6.18,8.07,9.23,15.16,0-.15-.07-.29-.09-.42l.09.39v0c0,.18,0,.07.09.42,0-.05,0-.11,0-.16,1.55,7-12.94,8.86-7.36,19.26v-.12l0,.18,0-.06a25,25,0,0,1,.85,5.57.3.3,0,0,1,0-.08,1,1,0,0,0-.06.18v0c-2.61,3-1.83,5.22-.7,4.92a6.18,6.18,0,0,0,.36-.53Zm-6.19-78v0Zm5,9.84.14.14Zm.76,1.11.05.09ZM241,99.35l0,.08Zm.2.4v0Zm-.09,1.89s0,0,0-.09Zm1.55,4.84,0,.23Zm.5,1.64.06.11a.37.37,0,0,0-.05-.11Zm1.37,1.71.25.15-.25-.15Zm4.59,13.07c0,.07-.09.14-.13.22a1.86,1.86,0,0,1,.14-.22Zm-1.48,1.6-.08.07Zm-.1.09-.14.13.15-.13Zm-2.2,4.25-.06.06Zm-2.12,2.84,0,.09Zm-.86,13.95a.44.44,0,0,1,.08-.11Z"/><path class="cls-5" d="M242.77,148.26v0Z"/><path class="cls-5" d="M244.28,143.33a11.09,11.09,0,0,1-1.51,5v0c-.11.17-.23.35-.36.53C243.26,148.61,244.27,147,244.28,143.33Z"/><path class="cls-5" d="M237.64,133.72v0Z"/><path class="cls-5" d="M238.7,112.71a.75.75,0,0,0-.07-.12l0,0Z"/><path class="cls-5" d="M236.94,142.11l0,0c0,.07,0,.15-.05.22C236.89,142.29,236.91,142.2,236.94,142.11Z"/><path class="cls-5" d="M238.51,145v0Z"/><path class="cls-5" d="M238.45,145.15l0,.1Z"/><path class="cls-5" d="M235.91,83v0h0Z"/><path class="cls-5" d="M237,109.92l0-.19,0-.06A2.21,2.21,0,0,1,237,109.92Z"/><path class="cls-5" d="M235.9,82.93v0a7.88,7.88,0,0,1,.26,2.69v-.2c-2.58,10.23-3.75,24.12,5.1,33.73-3.1,6.12-8.61,11.62-4.1,21.1a.49.49,0,0,1,0-.12,2.62,2.62,0,0,0,0,.28v-.1a10.32,10.32,0,0,1-.26,1.84l0,0c0,.09-.05.18-.09.27,0-.07,0-.15.05-.22-1.31,1.16-.24,7.27,1.6,2.83.19-.66.31-1.32.5-2,0,.09-.05.18-.09.27,1.08-2.4-.28-5.29-1.26-9.56v.08s0-.05,0-.28v.08c0-.29,0-.58,0-.88a.53.53,0,0,1,0,.13s0-.08,0-.22c-2.17-6.21,13.76-12.88,1-20a.75.75,0,0,1,.07.12l-.13-.15.06,0a6.79,6.79,0,0,1-1.66-2.85c0,.06,0,.13,0,.2s0-.17,0-.25l0,0c-1.55-10,4.31-23.08-3.19-32.54C232.68,78.89,235.06,80,235.9,82.93ZM236,102v.08A.6.6,0,0,0,236,102Zm.36,42.22c0-.05,0,0,0-.14Zm1.85-15.64,0-.13Zm1.95-6.71c.05-.09,0,0,.17-.26a2.2,2.2,0,0,0-.17.25Zm1-1.85s0,0,0-.11l0,.09ZM236.4,93a.83.83,0,0,1,0,.15Z"/><path class="cls-5" d="M231.54,124.46c-.09.15-.07.1-.09.15Z"/><path class="cls-5" d="M232.91,145.45v0Z"/><path class="cls-5" d="M232.25,90.25c.19-.68,1.31-4.61-1.31-2.8-3.27,5.78-3,12-1.33,20.2l0,0,0,0h0c-3.14,6.28,8.12,12,.09,19.58l.19-.3c-3.88-.87,1.63,26.48,3,19.54,0-.1,0-.2,0-.3a.45.45,0,0,1,0,.11c0-.26,0-.54,0-.8a14.57,14.57,0,0,0-.5-5.61l.07.28c-.15-.59-.13-.64-.93-3.29l0,.11c0-.08,0-.06-.08-.34l0,.11c-.1-.48-.2-1-.32-1.44,0,.07,0,.15,0,.22a2.21,2.21,0,0,0-.05-.25v0a8.71,8.71,0,0,1,1.62-8.08l-.18.31C239.49,117.79,226.78,103.66,232.25,90.25Zm-1,3.3a1.21,1.21,0,0,1-.05.18Zm-.75,4.34v-.22a1.62,1.62,0,0,1,0,.22Zm.5,44.55s0,0,0-.06Zm-.24-9.9a1.09,1.09,0,0,1,0-.12v.13Z"/><path class="cls-5" d="M232.89,146.46h0v0Z"/><path class="cls-5" d="M229.63,107.62l0,0h0Z"/><path class="cls-5" d="M231.55,136.87l0-.13,0,.1Z"/><path class="cls-5" d="M232.3,90.11s0,.09-.05.14a.33.33,0,0,0,0,.1A2.25,2.25,0,0,1,232.3,90.11Z"/><path class="cls-5" d="M231.24,135.52a1.55,1.55,0,0,0,0-.21v0C231.21,135.36,231.23,135.44,231.24,135.52Z"/><path class="cls-5" d="M225.88,113.67v0s0,.1,0,.16S225.89,113.73,225.88,113.67Z"/><path class="cls-5" d="M226.85,124.26a.74.74,0,0,1,0,.14s0,.06,0,.09Z"/><path class="cls-5" d="M225,109s0,0,0-.07l-.07-.1Z"/><path class="cls-5" d="M226.46,111.35a.83.83,0,0,1,.09.16c-.27-.51-.26-.44-1.53-2.6,0,0,0,0,0,.06l-.08-.17.07.11a3.36,3.36,0,0,1-.47-2.33.25.25,0,0,1,0,.08,1.11,1.11,0,0,1,0-.18c.08-.14.23-.87-1.25-1.48-.55,1.85-.1,4.35,2,7.26l0-.07a.83.83,0,0,1,.09.16.42.42,0,0,0-.06-.08,7.53,7.53,0,0,1,.57,1.45l0,0,0,.18c0-.05,0-.1,0-.15-1,1.31-2.21,23.58.94,10.7C225,120.37,229.3,117.11,226.46,111.35Zm-1.36.49,0,0ZM225,123.93v-.11A.21.21,0,0,1,225,123.93Zm1-3v0Z"/><path class="cls-5" d="M225.27,112.18l0,.07.06.09A.83.83,0,0,0,225.27,112.18Z"/><path class="cls-5" d="M222.19,110.44l0-.07,0,.06Z"/><path class="cls-5" d="M222.72,119.25l.06-.13v-.05A.55.55,0,0,1,222.72,119.25Z"/><path class="cls-5" d="M222.78,119.12l-.06.13a1,1,0,0,0,.07-.18v.05a7.81,7.81,0,0,0-.59-8.68l0,.07a1.27,1.27,0,0,1-.12-.21l0,.07c-.37-.34.51-3-1.78-1.86-.54.88-.39,3,1.85,5.14l-.15-.15c-.06.63-.18,1.68-.31,2.92a15.7,15.7,0,0,1,.77,4C222.6,120,222.69,119.56,222.78,119.12Zm.25-7,0,0ZM222,109.66v0Zm.58,5.1v0Zm0-.47,0-.09Z"/><path class="cls-5" d="M221.64,124.3v.11A.41.41,0,0,0,221.64,124.3Z"/><path class="cls-5" d="M222.52,120.37a15.27,15.27,0,0,0-.77-4C221.09,122.3,220,132.36,222.52,120.37Z"/><path class="cls-5" d="M218.22,29h0Z"/><path class="cls-5" d="M235.52,58.65h0c0-.12-.06-.23-.09-.38C235.46,58.4,235.48,58.52,235.52,58.65Z"/><path class="cls-5" d="M205.08,25.55c1.74-.47,1-.16,4.87-2.16l-.19.1c4.22-1.48,1,8.87,8.38,5.49h.08c5.74,1.86,10.91,32.08,18.2,31.89a6.46,6.46,0,0,1-.9-2.23h0c0-.12-.06-.25-.09-.37,0,.14.06.25.09.37.29-1.26-.51-4.26-3.05-8.1a1.26,1.26,0,0,0,0,.58,1.81,1.81,0,0,1,0-.2v0a0,0,0,0,0,0,0v0a.3.3,0,0,0,0-.1c-2.79-12.36-10-20.82-22.35-29.33-1.38.26-1.91,1.51-6,2.8h0l-.18.05.07,0C200.41,20.32,198.9,25.7,205.08,25.55ZM231.86,55l-.09,0Zm-2.71-7.35s0,0,0-.11l0,.1Zm-3.71-9.1v0Zm-.65-2.4-.07,0Zm-2-2.32c0-.06,0,0,0-.18a1.16,1.16,0,0,1,0,.18Zm-.47.32a.14.14,0,0,1-.09,0Zm-3.25-5-.06,0Zm-.06,0,0,0Zm-7.09-4.87-.06-.1Zm-.81-.94-.09,0Zm-8.18.54-.06-.06.06.06Z"/><path class="cls-5" d="M205.14,25.55h-.06l-.13,0Z"/><path class="cls-5" d="M232.43,50.85h0v0Z"/><path class="cls-5" d="M232.44,51v0Z"/><path class="cls-5" d="M232.51,49.19a.76.76,0,0,1,0-.15Z"/><path class="cls-5" d="M225.3,52l0,.11C220,44.4,216.5,33,204.63,30c-1.45,2.2,6,5.19,10.48,8.42-.27.94,4.17,8.93,7.74,14.42a33.69,33.69,0,0,1,3.93,3.1C226.48,55,226,53.7,225.3,52ZM206.67,31.29l.05,0Zm2.3,1.33.08.06Zm4.42,3.68.16,0Zm.29,0h0Zm1.68,1.89.08,0Zm3.36,6.32v-.22c0,.07,0,.15,0,.22Zm0,.29.06.06-.07-.06Z"/><path class="cls-5" d="M205.25,32.29c-.07,0,0,0-.07,0Z"/><path class="cls-5" d="M226.78,55.92a33.69,33.69,0,0,0-3.93-3.1C225.79,57.33,228.14,60.14,226.78,55.92Z"/><path class="cls-5" d="M210.82,42.4l-.06-.13h0Z"/><path class="cls-5" d="M210.76,42.27l.06.13-.08-.14h0c-.46-1-2-4.54-4.45-2.25a8.77,8.77,0,0,1-.49-1.5,1.49,1.49,0,0,0,0,.18c-.27-.2.4-1-1-1.6C200.88,41.45,223.74,48.06,210.76,42.27Zm2.35,1.78.08.05-.08-.05Zm0,0h0Zm-1.85-1-.12-.07ZM211,42.8h0Zm-2.63-1.65-.1-.09Zm-.71-.38-.11,0Zm-1.63-.6-.07,0Z"/><path class="cls-5" d="M214.68,66.92h0l-.09.08Z"/><path class="cls-5" d="M213.82,67.53h0c.18-.14.25-.13.48-.29l-.54.07Z"/><path class="cls-5" d="M207.71,44.16a1.16,1.16,0,0,1,0,.18c-.23-.23.35-.86-.93-1.4-.55.65-.88,1.44,2.12,4.05a8,8,0,0,1,.58-1C209,45.38,208.36,44.78,207.71,44.16Zm.25.75,0,.07Z"/><path class="cls-5" d="M209.87,46.32c-.2.32-.4.64-.61,1,.14.12.28.24.44.36,0,0,0,0,0,0h0c.14.2.24.41.36.61a9.8,9.8,0,0,0,1.2-.37C210.87,47.39,210.4,46.87,209.87,46.32Z"/><path class="cls-5" d="M212.51,52.3a.2.2,0,0,0,0,.11,1.54,1.54,0,0,0,0-.25v.14c.84-1.21.19-2.68-1.23-4.41a9.8,9.8,0,0,1-1.2.37c3.42,5.87,1.27,10.69,3.68,19.05l.54-.07.29-.24.08-.08C212.55,62.16,217.34,59.74,212.51,52.3ZM211,49.44v0Zm2.17,9.5s0,0,.07-.06Zm.26-4.23.06,0-.06,0Zm.35,9.61a2.12,2.12,0,0,1,.11.21l-.11-.21Z"/><path class="cls-5" d="M209.87,46.32l-.35-.36a8,8,0,0,0-.58,1l.32.28C209.47,47,209.67,46.64,209.87,46.32Z"/><path class="cls-2" d="M225.86,62.88c-1.35,0-3.72-4.12-6.13-1.23C218.89,61.89,227.52,66.22,225.86,62.88Zm-3.8,0-.15,0Z"/><path class="cls-2" d="M211.05,69.61h.14S211.17,69.61,211.05,69.61Z"/><path class="cls-2" d="M211.53,69.59h0Z"/><path class="cls-2" d="M208.67,71.46h0l.19,0Z"/><path class="cls-2" d="M204.52,73.55l.1-.09Z"/><path class="cls-2" d="M204.5,73.58s0,0,0,0a10.61,10.61,0,0,1,4.25-2.17h0a1,1,0,0,0,.23-.06l-.19,0a19.93,19.93,0,0,0,2.64-.54l0,0a1.15,1.15,0,0,0,.17-.06h-.05c.1-.16.12,0,.17-.86a5.33,5.33,0,0,0-.55-.4H211a5.06,5.06,0,0,1-1.45-.09h0c-.4.06-.28-.19-1.11.08C206.78,68.28,198.14,78,204.5,73.58Zm.12-.11-.1.09Z"/><path class="cls-2" d="M211.61,69.59h-.08l-.34,0h0a.33.33,0,0,0-.14,0h0a5.33,5.33,0,0,1,.55.4Q211.6,69.85,211.61,69.59Z"/><path class="cls-2" d="M211.62,69.59h0Z"/><polygon class="cls-2" points="211.61 69.59 211.62 69.59 211.61 69.59 211.61 69.59"/><path class="cls-2" d="M216,70.58h0Z"/><path class="cls-2" d="M217,70.53h.66c2.9,1.42,5.34.58,4.21-.32-1.51.56-3.49.7-1.36-.59a6.44,6.44,0,0,0-.75-.17c-1.72,1.3-2.08.7-1.63-.25-.5-.06-1.06-.11-1.68-.14.08-.07,0-.06-.09,0C218.19,69.2,217.73,70.12,217,70.53Z"/><path class="cls-2" d="M217.57,70.55a.33.33,0,0,0,.1,0h-.1Z"/><path class="cls-2" d="M215.92,70.59H216a8.22,8.22,0,0,1,1-.07c.72-.41,1.18-1.34-.63-1.45C215.84,69.36,213.9,70.7,215.92,70.59Z"/><polygon class="cls-2" points="215.38 70.75 215.38 70.75 215.37 70.75 215.38 70.75"/><path class="cls-2" d="M221.36,68.08c.21,0,0-1.08-.9-1a4.53,4.53,0,0,0-2.31,2.13,16.49,16.49,0,0,1,1.63.26A18.92,18.92,0,0,0,221.36,68.08Zm-1.3-.63,0,0Zm-.36.38,0,0Z"/><path class="cls-2" d="M219.77,69.47a16.49,16.49,0,0,0-1.63-.26C217.69,70.16,218.05,70.76,219.77,69.47Z"/><path class="cls-2" d="M222,68.54a2.21,2.21,0,0,1-.83.75c.05,0,.08-.05.14-.07a.83.83,0,0,0-.16.09l0,0-.61.35a4,4,0,0,1,1.35.59C223.14,69.76,224.07,69,222,68.54Zm0,.06-.08.12Z"/><path class="cls-2" d="M221.28,69.22c-.06,0-.09,0-.14.07l0,0A.83.83,0,0,1,221.28,69.22Z"/><path class="cls-2" d="M221.88,70.23a3.94,3.94,0,0,0-1.36-.59C218.4,70.94,220.37,70.8,221.88,70.23Z"/><path class="cls-2" d="M173.82,81.74a.35.35,0,0,1,.05-.08l0,0Z"/><path class="cls-2" d="M180.25,76.23c-.66.12-1.32.23-2,.38l.14,0c-1.62-.82-3.94,1.56-5.41,3.74.51.19.48.58.55.64a4,4,0,0,1-1.49.93,6.88,6.88,0,0,0-.32.74c.48.11.69.28.7.46a14.23,14.23,0,0,0,1.36-1.33l.09-.14,0,0c1.29-1.36,1-2.65,5-3.58h0l.13,0-.13,0C180.39,78.54,186.55,77.06,180.25,76.23Zm-3.43,2.5.09,0Z"/><path class="cls-2" d="M173.77,81.8l0-.06h0Z"/><path class="cls-2" d="M178.91,78.08h0l.12,0A.27.27,0,0,1,178.91,78.08Z"/><path class="cls-2" d="M172.7,80.22c-3.48-.84-2.9,2.42-.63,1.67a14,14,0,0,1,.94-1.58A1.21,1.21,0,0,0,172.7,80.22Z"/><path class="cls-2" d="M173,80.31a13.91,13.91,0,0,0-.93,1.58,4.31,4.31,0,0,0,1.48-.93C173.48,80.89,173.51,80.5,173,80.31Z"/><path class="cls-2" d="M171.74,82.62a6.23,6.23,0,0,0-1.36-.15c-.57,0-.76-.8-1.74.53.09,2,3.84.89,3.8.08C171.61,83.74,171.46,83.41,171.74,82.62Z"/><path class="cls-2" d="M171.74,82.62c-.28.79-.13,1.12.7.46C172.43,82.9,172.23,82.73,171.74,82.62Z"/><path class="cls-6" d="M.25,242.43V210.28H2.18l14.46,25.08,14.52-25.08h1.92v32.15H31.16V214L17.29,238H16.05L2.18,214v28.43Z"/><path class="cls-6" d="M42.09,230.9a10.28,10.28,0,0,0,3.12,7.26A10.51,10.51,0,0,0,52.7,241a9.78,9.78,0,0,0,8.72-4.55l1.79.64a12.24,12.24,0,0,1-10.51,5.65,12.27,12.27,0,0,1-9-3.49,12.73,12.73,0,0,1-.09-17.5,11.71,11.71,0,0,1,8.63-3.53,11.54,11.54,0,0,1,8.59,3.53,12,12,0,0,1,3.44,8.73,1.15,1.15,0,0,1,0,.41Zm20.3-1.61a9.79,9.79,0,0,0-3.26-6.65,10.22,10.22,0,0,0-13.78,0,9.92,9.92,0,0,0-3.22,6.65Z"/><path class="cls-6" d="M91.27,224.29v-5.74h1.84V241a11.61,11.61,0,0,1-3.54,8.63A12.69,12.69,0,0,1,70.75,248l1.79-.69a10,10,0,0,0,8.22,3.91,10.25,10.25,0,0,0,7.57-2.94,9.69,9.69,0,0,0,3-7.3l-.05-4.46a11.52,11.52,0,0,1-10.38,6.2,11.27,11.27,0,0,1-8.45-3.49,13,13,0,0,1,0-17.5,11.31,11.31,0,0,1,8.45-3.53A11.59,11.59,0,0,1,91.27,224.29Zm-10.19-4.23a9.64,9.64,0,0,0-7.21,3,11,11,0,0,0,0,14.88,10.21,10.21,0,0,0,14.42,0,11,11,0,0,0,0-14.88A9.66,9.66,0,0,0,81.08,220.06Z"/><path class="cls-6" d="M122,224.29v-5.74h1.83v23.88H122v-5.74a11.61,11.61,0,0,1-10.34,6.06,11.25,11.25,0,0,1-8.44-3.49,13,13,0,0,1,0-17.5,11.28,11.28,0,0,1,8.44-3.53A11.61,11.61,0,0,1,122,224.29Zm-10.2-4.23a9.66,9.66,0,0,0-7.21,3,11,11,0,0,0,0,14.88,10.21,10.21,0,0,0,14.42,0,11,11,0,0,0,0-14.88A9.64,9.64,0,0,0,111.8,220.06Z"/><path class="cls-6" d="M132.19,218.55H134v5.28a11.28,11.28,0,0,1,2.94-3.49,11,11,0,0,1,7-2.11,9.57,9.57,0,0,1,9.78,9.78v14.42h-1.84v-14.1a8,8,0,0,0-2.38-5.92,7.86,7.86,0,0,0-5.88-2.39,10,10,0,0,0-6.84,2.43,7.62,7.62,0,0,0-2.76,6v14h-1.84Z"/><path class="cls-6" d="M175.73,242.43V210.28h14.19a9.51,9.51,0,0,1,6.93,2.71,8.8,8.8,0,0,1,2.81,6.71,9.11,9.11,0,0,1-2.07,5.92,9.34,9.34,0,0,1-5.37,3.26l8.54,13.55h-2.25l-8.41-13.32H177.66v13.32Zm1.93-30.31v15.15h12.26a7.64,7.64,0,0,0,5.51-2.15,7.19,7.19,0,0,0,2.25-5.42,7,7,0,0,0-2.25-5.38,7.48,7.48,0,0,0-5.51-2.2Z"/><path class="cls-6" d="M226.61,224.29v-5.74h1.84v23.88h-1.84v-5.74a11.59,11.59,0,0,1-10.33,6.06,11.27,11.27,0,0,1-8.45-3.49,13,13,0,0,1,0-17.5,11.31,11.31,0,0,1,8.45-3.53A11.59,11.59,0,0,1,226.61,224.29Zm-10.19-4.23a9.66,9.66,0,0,0-7.21,3,11,11,0,0,0,0,14.88,10.21,10.21,0,0,0,14.42,0,11,11,0,0,0,0-14.88A9.66,9.66,0,0,0,216.42,220.06Z"/><path class="cls-6" d="M237,230.9a10.28,10.28,0,0,0,3.12,7.26,10.51,10.51,0,0,0,7.49,2.85,9.78,9.78,0,0,0,8.72-4.55l1.79.64a12.87,12.87,0,0,1-19.47,2.16,12.73,12.73,0,0,1-.09-17.5,11.71,11.71,0,0,1,8.64-3.53,11.51,11.51,0,0,1,8.58,3.53,12,12,0,0,1,3.45,8.73.93.93,0,0,1,0,.41Zm20.3-1.61a9.75,9.75,0,0,0-3.26-6.65,10.22,10.22,0,0,0-13.78,0,9.9,9.9,0,0,0-3.21,6.65Z"/><path class="cls-6" d="M279.52,242.43V210.28H294.4a8.35,8.35,0,0,1,6,2.3,7.54,7.54,0,0,1,2.43,5.69,7.67,7.67,0,0,1-4.5,7.07,8.57,8.57,0,0,1,6.25,8.27,8.25,8.25,0,0,1-2.66,6.29,9.05,9.05,0,0,1-6.57,2.53Zm1.93-30.31v12.49H294.4a6.33,6.33,0,0,0,4.55-1.79,6.22,6.22,0,0,0,0-8.91,6.33,6.33,0,0,0-4.55-1.79Zm0,14.33v14.14h13.87a7.22,7.22,0,0,0,5.19-2,7.22,7.22,0,0,0,0-10.1,7.22,7.22,0,0,0-5.19-2Z"/><path class="cls-6" d="M307.77,218.55h1.92l9.05,21,9.23-21h1.93l-12.81,29.07c-1.61,3.63-3.63,5.14-6.89,5.14h-1.29V251h1.29c2.43,0,4-1.19,5.28-4l2.3-5.23Z"/><path class="cls-6" d="M334.4,230.9a10.24,10.24,0,0,0,3.13,7.26A10.48,10.48,0,0,0,345,241a9.8,9.8,0,0,0,8.73-4.55l1.79.64a12.87,12.87,0,0,1-19.47,2.16,12.71,12.71,0,0,1-.1-17.5,11.73,11.73,0,0,1,8.64-3.53,11.51,11.51,0,0,1,8.58,3.53,12,12,0,0,1,3.45,8.73.93.93,0,0,1-.05.41Zm20.3-1.61a9.75,9.75,0,0,0-3.26-6.65,10.22,10.22,0,0,0-13.78,0,9.9,9.9,0,0,0-3.21,6.65Z"/><path class="cls-6" d="M364.9,242.43h-1.84V218.55h1.84v5.33a10.29,10.29,0,0,1,2.89-3.49,11,11,0,0,1,7-2.16h.64v2c-.41,0-.74-.09-1-.09a10.12,10.12,0,0,0-6.85,2.43,7.66,7.66,0,0,0-2.75,6Z"/><path class="cls-6" d="M392.91,223.55c-.5-2.15-2.94-3.62-6.11-3.62-3.44,0-6,1.83-6,4.27q0,2.69,3,3.85l6.79,2.44c3.08,1.15,4.64,3.07,4.64,5.78a5.58,5.58,0,0,1-2.38,4.69,9.93,9.93,0,0,1-6.07,1.79c-4.54,0-7.8-2.16-8.49-5.42l1.74-.41c.51,2.43,3.12,4.13,6.75,4.13,3.86,0,6.66-2,6.66-4.73,0-2-1.24-3.35-3.67-4.22l-6.52-2.48c-2.85-1.06-4.27-2.81-4.27-5.33,0-3.63,3.3-6.06,7.89-6.06,4.05,0,7.08,1.93,7.77,4.86Z"/></g></g></svg>