<svg xmlns="http://www.w3.org/2000/svg" xmlns:xlink="http://www.w3.org/1999/xlink" viewBox="0 0 395.5 253.3" xmlns:v="https://vecta.io/nano"><path d="M273.5 46c-.7-.9-1.4-1.7-2.3-2.5l2.6 4.9c0-.8-.1-1.5-.3-2.4z" fill="#c77966"/><path d="M204 .3l-7.2-.3c-2.4 0-5.1.1-7.6.4L204 .3z" fill="#2c2c2c"/><g fill="#99a3be"><path d="M199.3 99.1h-.2.2zm1.7-4.5h0zm-5.2 5.8h0zm12.6-52l-.2.2h.2v-.2z"/><path d="M197.4 95.4h0zM194 63.8h0l-.1-.3c-1.1-2.1-1.6-4.5-1.4-6.8-4 .1-8.1.5-12.1 1.1-2.1 2.4-4 4.8-5.7 7.4 1 0 1.6.2 1.9.2 5.4-.3 10.3 2.8 12.4 7.8h0c1.8 3.5 3.1 7.2 3.9 11V84l.6 2.8c.1.6.2 1.1.3 1.6v-.2c.1.4.2.8.2 1.3v.1c.1 4.4 4.4 3.8 5.9 4.8 15.4-7-2.6 7.2-6.9-.5 0 .1 0 .1.1.2v.1-.2c0-.1-.1-.1-.1-.2v.1c-1.3-3.1-.7-5.9-1.1-7.6v.1a50.16 50.16 0 0 0-3.5-11.4c-.7-1.5-1.6-2.9-2.6-4.2h0a9.51 9.51 0 0 0-3.6-2.7h-.2a29 29 0 0 0-7.1-1.5h-1.3c-3.3 4.5-6.6 7.6-13.4 6.6-.4.2-.3.2-.4.1 37.8 61.5 61.8 33.8 69.5 9.8C219 96.3 194.8 99.2 194 63.8zm-12.5 15.9c0-.1 0-.1 0 0l.1-.1-.1.1zm-2.6-1.6c-4 .9-3.8 2.2-5 3.6l-.1.1v.1-.1c-.4.5-.9.9-1.4 1.3 0 .8-3.7 1.9-3.8-.1 1-1.3 1.2-.5 1.7-.5s.9.1 1.4.2c.1-.3.2-.5.3-.7-2.3.8-2.9-2.5.6-1.7.1 0 .2 0 .3.1 1.5-2.2 3.8-4.6 5.4-3.7h0-.1c.6-.2 1.3-.3 2-.4 6.4.8.2 2.2-1.3 1.8h0zm5 .4h0zm18.5 18.8h0zm-10.5 5h0zm5 1.9l.3.1-.3-.1zm1.1.3h0zm1.2-5.4h0c7.4-3.7 9.9-2.8 13.4-4.2 1.7 20.7-39 2.5-13.4 4.2h0z"/><path d="M185.6 70.7h0c0 .1 0 0 0 0zm8.4-7h0c-.1-.2-.1-.2-.1-.3h0c.1.1.1.2.1.3h0v.2-.2zm26.8 104l2-.6c-.7-.1-1.3-.2-1.9-.4 0 .4-.1.7-.1 1zm-9.7-51.9c.4-1.4 1.2-2.8 2.1-3.9-6.6 3.7-14 1.8-18 .2 12.6 16.4 13.5 51.4-11.2 41.9-17.7 22.8-29.9 5.6-27.3-5.4-6.1.7-11.4 1.2-16.3 1.6 21.4 18.7 50.6 25.5 78.1 18.2-2.3-5.1-6.1-21.7-9.8-53.5 1.9-2.3 2.4-.1 2.4.9zm-37.3-34h0zm58.4 70.8c-1.4-1.8-2.6-3.7-3.7-5.7.4 2.7 1.2 4.9 3.7 5.7zm-55.3-73.9h0zm24.2 15.8h0z"/><path d="M205.1 93.2h0zm-30.3-26.6h0zm19.1 22.8v-.2.2zM182 68.1h0zm37.2 82.1l.6 4.2a30.34 30.34 0 0 0-.6-4.2zM213.8 48l2.1.9c-1-.9-2.1-1.7-3.4-2.2.5.4 1 .8 1.3 1.3zM188.4.4c-13.9 1.4-27.2 6.1-38.9 13.8 4.2 5.5 3.5 14.5.8 17.1-11.9 11.5-18.7 8.6-21.1 1.8-26.5 34.1-23.4 82.6 7.2 113.1 11-.4 22.5.3 23.2-7.9-21.2-18.7 2.8-28.8-14.9-44.2-5-9.7 1.3-21.3 5.2-26.3-10.5-43 37.1-51 62.9-57.4 10.7.8 20.2 7.1 25.2 16.5l-.1-.5c13.1 27.7 12.9 55.5 10.9 80.3 11.9 9.3 8.7 21.9-.2 26.3 0 .3-.1.6-.1.9.4.7.9 1.3 1.3 1.9 3.7 1.8 6.9 4.5 9.3 7.8l.2.1c24.1-25.8 29.9-63.8 14.6-95.6 3.1 27.2-29.6-2.9-8-6.9 2-.1 4 .6 5.4 2-1.8-3.2-3.8-6.3-6-9.2-7.1 8-17.6-6.4-14.6-15.1C237.7 8.5 221.9 2 205.2.4h-16.8zM148 129.6c-8.3 29.3-33.7-8.1-18.8-14.5 12.9-4.3 18.3 7.4 18.8 14.5zm46-65.8c0-.1 0-.1-.1-.2h0c0 .1 0 .1.1.2h0z"/><path d="M202.1 54.8h-.1.1zM189.2.4l-.8.1h16.9L204 .3l-14.8.1z"/></g><g fill="#394172"><path d="M194 63.7l-.1-.2s.1.1.1.2zm0 .1h0z"/><path d="M194 63.7h0zm27.9 5l.1-.1-.1.1zm-1.9-1.2h0zm-2.5 3h0zm-6-.9h0zm.2 0h0zm5.9 1h0z"/><path d="M193.9 63.4h0l.3.6-.1-.1c.8 35.4 24.9 32.5 35.2 19.2 3.3-10.4 3.6-20.1.6-21.7-7.4-1.2-9.6-8.3-13.9-12.4l-2.1-.9c4.1 5.1 2.8 15.1.9 18.9h0l-.1.1c-.1.1-.2.2-.3.2h0c-.2.2-.3.2-.5.3h0l-.1-.2c-1.6.3-3.2 0-4.5-1h0l-.1-.1c1.5-9.5-1.5-13.7-.8-17.6h-.2c-4.6 6-10.2 7.4-15.8 7.9-.1 2.4.4 4.7 1.5 6.8zm21.5 7.4h0zm6 .9h0zm4.2-8.9h0zm-5.8-1.1c2.4-2.9 4.8 1.2 6.1 1.2 1.7 3.3-7-1-6.1-1.2h0zm-3.3 6.2h0zm-1.7 1.3h0zm-1-1.6h0zm-3.4-.5h0zm-2 2.5c.8-.3.7 0 1.1-.1h0c.5.1 1 .1 1.4.1h.7c.9-.1 1 0 1.3-.1h0c1.6-.1 1.6-.4 2.4-.4h1c.1-.1.2-.1.1 0 .6 0 1.2.1 1.7.1a4.29 4.29 0 0 1 2.3-2.1c.9-.1 1.1 1 .9 1-.5.5-1 1-1.6 1.4l.8.2.6-.3c.3-.2.6-.4.8-.8 2.1.5 1.2 1.2-.1 1.7 1.1.9-1.3 1.7-4.2.3h-.6c-.3.2-.7.3-1 .1h.1-.5c-3.4.2-3.3.1-4.1-.6 0 .8-.1.7-.2.9h0l-.2.1-2.6.6c-1.6.4-3 1.1-4.2 2.2h0c-6.4 4.4 2.3-5.3 3.9-4l.2-.3zm-6.2-14.8v.2l-.1-.1.1-.1zM219 166.2v.1-.1c1-3.8 1.3-7.8.9-11.8-.2-1.3-.4-2.7-.7-4.2-2.7-13.3-10.7-25.6-8-34.4-.1-1-.6-3.2-2.3-1 3.7 31.8 7.5 48.4 9.8 53.5l2.2-.6v-1c-.7-.1-1.3-.3-1.9-.5z"/><path d="M233.9 162.7c8.3-4 16-9.4 22.6-15.9-3.6-1.7-6.7-4.3-8.9-7.6-3.8 19.7-9.8 20.3-15.4 13.3-2.5-.8-3.3-3-3.7-5.7-6.9-12.5-12.4-33.1-11.4-37.8a18.19 18.19 0 0 1-3.8 2.9c-1 1.1-1.7 2.5-2.1 3.9v.4c3.3 11.2 6 22.5 8.1 34a30.34 30.34 0 0 1 .6 4.2c.7 4.1 1 8.2 1 12.3.6.2 1.3.3 1.9.4 3.8-1.2 7.4-2.7 11.1-4.4h0zm-22.8-46.4h0zm48 27.6c-2.4-3.3-5.6-6-9.3-7.8 2.6 3.2 5.8 5.8 9.3 7.8zm-48-27.7h0z"/><path d="M219.2 150.2c-2-11.5-4.7-22.8-8.1-34h0v-.4c-2.6 8.9 5.4 21.1 8.1 34.4zm-8.1-33.7h0zm7.8 49.8v-.1.1zm.1-.1l1.9.6c0-4.1-.4-8.3-1-12.3.5 3.9.1 7.9-.9 11.7zm14.9-3.5h-.1.1z"/></g><g fill="#c77966"><path d="M150.3 31.3c2.7-2.6 3.4-11.6-.8-17.1-3.3 2.2-6.5 4.6-9.4 7.2-.1 1.2-1 2.6-1.8 2.6-.5.3-1 .5-1.6.6-2.7 2.7-5.2 5.5-7.5 8.5 2.4 6.9 9.2 9.7 21.1-1.8z"/><path d="M138.3 24.1c.8 0 1.7-1.4 1.8-2.6-1.2 1-2.3 2.1-3.4 3.2.6 0 1.1-.2 1.6-.6zm135.6 24.3l-2.6-4.9c-1.4-1.4-3.4-2.1-5.4-2-21.6 4 11.1 34 8 6.9zm-8.6-14.1c-4.2-5.6-9.1-10.7-14.6-15.1-3 8.7 7.5 23.1 14.6 15.1zM139 132.8h0v.1-.1zm-9.8-17.7c-14.9 6.4 10.5 43.8 18.8 14.5-.5-7.1-5.9-18.8-18.8-14.5zM139 133h0l.3-2c3.1 2.4-2.3 7.4-.3 2z"/><path d="M139.3 131a6.28 6.28 0 0 1-.3 1.9v-.1.1c-2 5.5 3.4.5.3-1.9z"/><path d="M139 133h0z"/></g><g fill="#2c2c2c"><path d="M239.6 76h0l-.1-.1.1.1zm-17.4 34.5h0v-.2.2zm19.1-9.8v.3-.3zm8.3 18.1h0v.4-.4zm-27.1-4.6h0zm21.3 16.5h0s0-.1.1-.1l-.1.1zM193.9 29.2h0zm.1 0h0zm28.5 85.6h0zm20.7 29h0v.2-.2zm-63.7-6.4h0v.1-.1zm-1.4 10v-.1.1zm-3.3-22.7c0-.1 0 0 0 0h0z"/><path d="M174.8 124.7v.2-.2zm-3.9-25.4v-.2.2zm17.9 18h0z"/><path d="M188.8 117.3h0s0-.1 0 0zm5.1 17.4c0 .1 0 .1 0 0v.3-.3zm-1.5-7.8h0zm-19.8-20.6h0zm6.6 1.3h0zm-4.5 8.8v.2-.2zm4.8-11c0-.1 0-.1 0 0h0zm9.3 12h0zm-1.7 22.3h0zm-.2-5.5h0c0 .1 0 .2-.1.2.1-.2.1-.1.1-.2zm-7.6-26.5h0zm-5.3 13.7h0z"/><path d="M173.9 121.6l.1-.2c-.1.1-.1.1-.1.2zm-1-7.9h0zm12.5 14.5h0zm-4.1-13.8h0zm17.5 22.5v-.1.1c0 .1 0 0 0 0zm20-92h0c0-.1 0 0 0 0zm28.6 79.8l.1-.1c-.1.1 0 .1-.1.1zm-4.9 20.8l-.1.1.1-.1zM191.6 28l-.1.1.1-.1zm23.8 10.2h0zm3.3 6.1v.2-.2zm24 62.4v-.2.2zm-45.8-56.4h0zm50.7 74.3h0zm-6.5-23h0zm7.9 21.5l.1-.2c0 .1-.1.1-.1.2zm-57.2-70.4h0zm1.8-1.1h0zm-23.7 82.6h0zM199 144h0v-.1.1zm-28.1-44.6h0zm-4.8 11.6c0 .1 0 .1 0 0h0zm23.3-81.8h0zm-22.5 79.4h0zm33.8-59.4l.1-.1-.1.1zm-5.6 92.2h0zm46.1-41.6h0zm-42 42.7v.2-.2zM165.6 121h0zm75.6-1.1c0 .1 0 .1 0 0 0 .1 0 0 0 0zm-8.8-69h0zm-70.5 14h0zm-3.7 39.1h0zm82.1 17.6l-.2.2.2-.2zm-2.1 6.8v.1-.1z"/><path d="M184.1 153.9c24.7 9.5 23.8-25.4 11.2-41.9 4 1.7 11.4 3.6 18-.2.4-.5.8-.9 1.3-1.3h0c1.8-1.2 1.6-1 2.5-1.6 3.8-1.7 1.8 2.6.7 2.9 1.9.9 3.4 2.5 4 4.6.1-1.2.3-2.3.3-2.9l.1.2c-2.2-2.2-2.4-4.3-1.8-5.2 2.3-1.2 1.4 1.5 1.8 1.9v.1c1.9 2.5 2.2 5.9.6 8.7l-.3 1.2c.4 4.8-.8 10 .1 11.7 5.3 4.2 5.2 10.3 5.9 14.7 1.1 2 2.3 3.9 3.7 5.7 1.3.4 2.7.5 4.1.2 2.4-.6 4.6-2 6.1-4-1.1.3-1.9-1.9.7-4.9v-.1a26.18 26.18 0 0 0-.9-5.6c-5.6-10.4 8.9-12.3 7.4-19.2v-.2l-.1-.4c0 .1.1.3.1.4-3.1-7.1-12.1-7.9-9.2-15.2v-.1.2c.4-1 .7-2 1-3h0c-3.1-5.3-1.9-9.3.4-12.4h0c.5-.8 1-1.7 1.5-2.5h0c.5-.6.6-1.5.3-2.2-3.5-6.6-11.5-11.3-7.6-17.3 2.2-1.3.8 2 .7 2.4 0 1.6.4 3.1 1.2 4.5.5.9 1.1 1.7 1.8 2.4l.1.1c11.7 7.1 0 15 1.4 20.6 3.2 19.4 22.2 22.5 4.2 32.5l.1-.1c-.6.5-1.1 1.1-1.5 1.7v.1c-.5 1.1-.8 2.2-.8 3.4 0 .7.1 1.3.2 1.9h0a27.13 27.13 0 0 1 .9 4.1h0v.2-.2c.1 1.1.2 2.1.2 3.2.3-3.7-.4-7.3 1.8-8.8-.1-1.5 0-3 .4-4.4.5 1.4 1.2 2.7 2 4 0-.3.1-.6.1-.9 8.9-4.4 12.1-17 .2-26.3 1.9-24.9 2.2-52.7-10.9-80.4l.1.5a31.01 31.01 0 0 0-25.1-16.5C187 17 139.5 25 150 68c-3.9 5-10.2 16.6-5.2 26.3 17.7 15.4-6.3 25.4 14.9 44.2-.7 8.2-12.3 7.5-23.2 7.9 1.3 1.3 2.7 2.6 4.1 3.8l16.3-1.6c-2.7 10.9 9.5 28.1 27.2 5.3zm-13.2 4c-3.2-3.7 1.6-19.5-.9-23.6h0l-.1-.1c.1 0 .1.1.1.1-8.9-16.1-3-34.4-12.7-49.3-.6-.9-1.3-1.8-2-2.8.7.9 1.4 1.8 2 2.8 14.5 20.5 14.8 46.9 13.6 72.9h0zm5.9-3.2h0c-2.6 4.2-1-3.8.1-4.4-.2-6.7 1.9-10.2 2.7-12.8l-.1-.1c-.1 0-.1-.1-.2-.2l.1.1c-8.6-11.9-6-33.7-10.7-43.8 2.2.1 1.8 1.8 2.1 2.2 0-.1 0-.1-.1-.2.1.1.1.2.1.3s-.1 0-.1-.1c5.2 22.4 13.4 41.5 6.1 59h0zm10.3-15l-.1.1.1-.1c.3-3.6-.9-4.9-.2-5.4v-.1c.1-5.9-5.2-7.2-3.9-10.6v.1c.4-1.1.3-1 .3-.8-4.5-7.7-4.4-16.2-5-19.6 1.7 1.5 2.6 3.7 2.6 6 8.2 14.5 7.9 53.6 6.2 30.4h0zm6.8-4.8h0c0-.4 0-.8-.1-1.2v.2c-.1-.1-.1-.2-.1-.3l-.1-.1.1.1c-1-2.1-1.5-4.4-1.3-6.7v-.1.1-.1c-.8-6.8-8.7-13.4-5.1-18 1.9-.4 1.6 1.6 1.3 2.4 3.7 9.4 6.8 19.6 6.9 26.7h0c4.3 15.1-3.3 3.6-1.6-3h0zm4.9 1.9v.1c3.8 3.9 1.3 11.4.2 7.1v.1-.2c-.1-1.6-.2-3.2-.5-4.8h0c-1.4-8.2-4.9-17.1-3.3-23.3a63.08 63.08 0 0 1 3.6 21h0zm-39-63.5c.2.1 0 .1.4-.1 6.8 1 10.1-2.1 13.4-6.6-1.4-.2-.5-1.4-.2-1.4h1.2c1.7-2.6 3.7-5.1 5.7-7.4 4-.6 8-1 12.1-1.1.2-1.6 1-3.1 2.4-4.1-2.2 1-4 1.7-3.9 1.6-7.4-.5 9.7-6 10.1-7.5 3.4.4 1.2 2.2-2 3.9 3-.7 6.1-1.3 9.2-1.8l.2-.2c.1-.5.3-1 .5-1.4-3-2.6-2.7-3.4-2.1-4 1.3.5.7 1.2.9 1.4v-.2c.7.6 1.3 1.2 1.8 1.8.1-.2.2-.4.4-.6 1 .3 1.9.7 2.7 1.4 1.2.5 2.4 1.2 3.4 2.2 2.4 1.1 4.7 2.4 6.9 3.9-3.6-5.5-8-13.5-7.7-14.4-4.5-3.2-11.9-6.2-10.5-8.4 11.9 3 15.4 14.4 20.7 22.1V52c.7 1.7 1.2 3 1.5 3.9 9.7 9 8.3 19.7 2.5 27.1-7.8 24.1-31.8 51.8-69.6-9.7h0zm46.1-34.6v-.2c.1.5.3 1 .5 1.5 2.4-2.3 4 1.2 4.4 2.3 13 5.8-9.9-.8-5.9-5.2 1.4.6.7 1.4 1 1.6h0zm21 85.6v.2-.2c-3.1 13-1.9-9.3-.9-10.6-.1-.5-.3-1-.6-1.4-2.1-2.9-2.5-5.4-2-7.3 1.5.6 1.3 1.3 1.2 1.5v.1c-.1.8 0 1.6.5 2.3 1.3 2.2 1.3 2.1 1.5 2.6 0-.1-.1-.1-.1-.2 2.8 5.8-1.5 9 .4 13h0zm4.3 11l.3 1.4v.1c.8 2.6.8 2.7.9 3.3l-.1-.3c.5 1.8.7 3.7.5 5.6h0v1c-1.4 6.9-6.9-20.4-3-19.5-.1.1-.1.2-.2.3 8-7.6-3.2-13.3-.1-19.6-1.7-8.2-1.9-14.4 1.3-20.2 2.6-1.8 1.5 2.1 1.3 2.8 0 0 0-.1.1-.1 0 .1 0 .2-.1.2v-.1c-5.5 13.4 7.2 27.5.4 37.3l.2-.3c-1.8 2.2-2.4 5.3-1.5 8.1h0zm5.8-25.6c.3 1.1.9 2.1 1.7 2.8 12.8 7.2-3.1 13.8-1 20v1.1c1 4.3 2.4 7.2 1.3 9.6 0-.1.1-.2.1-.3-.2.6-.3 1.3-.5 2h0c-1.9 4.4-2.9-1.7-1.6-2.8l.3-1.8v-.1c-4.5-9.5 1-15 4.1-21.1-8.9-9.6-7.7-23.5-5.1-33.7v.2a6.26 6.26 0 0 0-.3-2.7h0c-.8-3-3.2-4.1-2.1-5.7 7.4 9.5 1.5 22.6 3.1 32.5zm-21-95.5c13.5 2.1 21.7 20.7 22.8 30.2l.1-.3c-1.3 4.9 4.9 9.8 1.4 13.4-.7 9.6 3.5 14.9 7.8 20.5v-.1.2l-.1-.1c-.3 3.1-2.5-1.7-3.8-2l.1.1-.2-.1h.2c-10.2-14.3-4.5-36.3-16.2-49.8-16.4-15.6-39.4-4.4-12.1-12h0zm-11.9 10.2h0c4.1-1.3 4.7-2.5 6-2.8 12.4 8.5 19.6 17 22.4 29.3h0v.1c.1.2 0 .1.1.2v-.6c2.6 3.8 3.4 6.8 3.1 8.1.2.8.5 1.5.9 2.2-7.3.2-12.4-30-18.2-31.9h-.1c-7.4 3.4-4.2-7-8.4-5.5l.2-.1c-3.9 2-3.1 1.7-4.9 2.2h0-.1c-6.2.1-4.7-5.3-1-1.2zm-18.8 25.7c-10.7 7.3-17 16.8-14.7 12.5v.2c2.9-11.6 19.2-17.5 25-20.8 5.2 3.1-9 8.5-10.3 8.1zm1.5-9.7c-24 14.3-18.9 28.8-20.3 21.5v.2c-.8-14.9 18-22.8 25-26.8 12.7-1.8-2.4 6.6-4.7 5.1zm2.5-10.6c-10.6 13.4-23.7 9.9-25.8 24.4h0c1.6 6.4-4.4 21.3-2.1 14.1l-.1.2c0-.1.1-.1.1-.2.1-.6 0-1.2-.3-1.8l.1.2c-.3-11.4 1.4-20.8 6.1-24.8h0c2.5-2.1 3.3-2.3 4-2.3 6.5-3.3 11.1-7.2 15.3-9.7h0c2-1.3 4.2-2.2 6.5-2.6 8 0-2.9 4.8-3.8 2.5h0zm-33.2 84c4-13-1.8-15.2-7.9-26.9 7.4-19 .7-51.5 21.3-54.8 3.2-6.4 7.3-6.1 9.9-5.6h-.1l-.2-.1.2.1c4.1-1.5 6.8-8.6 8.8-7.2 7.5-.7 7.2 4.1 2.3 1.9-1-.1-2 .1-2.8.6-2.9 1.7-2.5 2.4-3.1 3.4-1.7 8.6-9.2.8-11.4 6.4h0l-.1.1v-.1c-13.1 6.4-6.9 9-13.5 12.5h0c-4.3 9.7-2.1 16.2-1.8 25.5-5.9 9.6-8.4 14.8-.4 25.1 8.6 10.1-3.9 25.6 4.2 33.6-.1-.1-.1-.2-.2-.4 7.7 9.4 2.1 24.8 2.8 30.1-8.7-6.8.2-16.1-1.9-22.4-3.2-7.9-12.2-14.8-6.1-21.8h0z"/><path d="M164.3 157.9h0zm2.5-30.2h0zm4.5 26.3h0zm-1.6-4.2s0 .1.1.1l-.1-.1zm.7-12.6c0-.1 0 0 .1-.2 0 .1 0 .2-.1.2zm-4.9-1.8l-.1-.1s0 .1.1.1z"/><path d="M165.4 135.3v-.1.1zm-4.9-45.9h0zm11.1 58.2l.1-.2s-.1.1-.1.2zm.1-5.8l.1.1-.1-.1zm1-2.3h0zm2.7 14.6h0zm4.5-16.4h0zm7.2 8.2h0zm1-2.8v.1-.1zm.1-.5v-.1.1zm.1-6.1l.1-.2s0 .1-.1.2h0zm9.3-1.8v-.2.2zm16.7-24l.1-.1-.1.1zM160.5 69h0zm5.7-4.5h0zm35.9-18h0zm3.1-14.2h0zm26.2 92.3l.1-.2-.1.2zm7 20.6v-.1.1zm-3.1-66.5c0-.1 0-.1-.1-.2 0 .1 0 .2.1.2zm.5-29.9h0l-.1-.2-.1-.1.1.1.1.2zm-3.3.2v.2-.2zm-1.4-18.4h0zm-.1-.1l-.2-.2.2.2zm-36.2 4.3h0zm-33.6 33.7h0zm3.4-23.5h0zm8.6-13.7l.1-.1-.1.1zm12.9-1.3l.2-.1c-.1 0-.1.1-.2.1zm.4-.2h0zm8.7-2.5l-.2-.1h-.1l.3.1zm-37.8 33.3v-.2.2zM218 29h0zm18.4 115.1v.1-.1zm-50-114.2h0zm-30.9 24.6h0zm6.3 2.8h0zm77.4-4.9h0zm-2.8 40.8h0zm.8 47v.3-.3zm-1.2-38.1h0zM154.4 62h0zm.1.2h0zm-2.3 18.9l-.1.1.1-.1zm11.4-30.9h0zm72.3 32.7h0zM162 56.1h0zm-3.9 47.6l-.1-.1.1.1zm79.6 29v-.1.1c0 .1 0 .1 0 0zm-.1 1.1h0zm-46.1-86.9h0zm-30.2 14.6h0c0-.1 0 0 0 0zm18.4-7.4l-.2.1.2-.1zm5.6-4h0zm.1 0h0zm-11.1 6.8h0zm-2 2.1h0zm14.8-18.9l-.1.1c0-.1.1-.1.1-.1z"/><path d="M187.1 40.2h-.1.1zm-19 14.2h0zm23-7.3h0zm-5.6 2.9h0zm.1-.1h0zm1.2-3.1l-.2.1.2-.1zM172.3 59c-.1.1 0 .1 0 0h0zm50.4-25.4v.2-.2zm-.5.5h0zm-3.2-5h0zm-25.6 8.6h-.2.2zm10.8-13.4h-.2.2zm21.2 14.4h0zm3.7 8.8h0zM172.4 59h0zm19.3-20.2l-.2.2.2-.2zm-19.5 20.3h0zm16.3-21.8h0zM170.7 63h0zm-13.6 48.9l-.1.3c0-.2 0-.2.1-.3zm7.6-66.5h0zm-.2.2h0zm41.5-5.4h0zm-39.1 4.3c0 .1 0 0 0 0h0zm-7.5 64.2h0zm48.2-67.9h0zm-48.1-.2l.2-.1-.2.1zm66.5 80.2h0z"/><path d="M164.2 36.2l.1-.1-.1.1zm-4.5 4.3l.2-.1-.2.1zm65.3 83.3h0zm-38.6-91.3h0zm-4.2 3.3h0zm-4.3 3.1h-.1.1zm.5-.2h0zm-22 27.2h0zM213.1 44h0zm-23.7-14.5c-.1 0-.1 0 0 0h0zm-18 10.2h0zm-2.9 1.3h0zm6.5-3.2h0zm-.7 2.3l-.1.1c.1 0 .1-.1.1-.1zm2.4-11.5c.1 0 .2 0 .3-.1l-.3.1zM231 142.4h0zm-.2-10v.1-.1zm-74.4-67.1h0zm74.1 32.4v.2-.2zm.7-4c0-.1 0-.1.1-.2l-.1.2zm.4 43.3v-.3.3zm-75.8-86.8h0zm-.2 4h0zm74.3 7.2c3 1.6 2.7 11.3-.6 21.7 5.8-7.4 7.2-18.2-2.5-27.1 1.4 4.2-1 1.4-3.9-3.1-2.2-1.5-4.5-2.8-6.9-3.9 4.3 4 6.5 11.2 13.9 12.4zm-21.7-12.7a71.22 71.22 0 0 0-9.2 1.8l-4.2 2c-1.3 1-2.2 2.5-2.4 4.1 5.7-.6 11.2-2 15.8-7.9zm36.1 94.6c0 3.7-1 5.3-1.9 5.5-1.5 2-3.7 3.4-6.1 4-1.4.2-2.8.1-4.1-.2 5.6 7 11.6 6.4 15.4-13.3-.9-1.4-1.4-3-1.5-4.7-2.2 1.4-1.5 5-1.8 8.7zm-21.7-11.2c-.9-1.7.3-6.9-.1-11.7-2.6 12-1.4 1.9-.8-4-.6-2-2.1-3.7-4-4.6 1.1-.4 3.1-4.6-.7-2.9-1 .6-.7.4-2.5 1.6-.5.4-.9.9-1.3 1.3 1.4-.8 2.7-1.7 3.8-2.9-.9 4.7 4.5 25.3 11.4 37.8-.6-4.3-.5-10.4-5.8-14.6zm-1-7.7h0z"/><path d="M214.5 110.6h.1zm28.3 37.8h0zm-28.4-37.8l-.1.1.1-.1zm-4.3-62.3c-.1-.2-.2-.4-.4-.6h0a.78.78 0 0 1-.4-.4c-.3.4-.5.8-.8 1.1v.2l1.6-.3zm-.5-.7h0zm.3-1.3c.5.5 1 1.1 1.4 1.6.4-.1.7-.3 1.1-.5l1.5.6c-.4-.5-.8-.9-1.2-1.3-.8-.3-1.7-.6-2.6-.7-.1.2-.2.2-.2.3zm2.6 6.1v-.2.2z"/><path d="M208.4 48.6c-.7 4 2.3 8.1.8 17.6h0l.1.1c1.3 1 2.9 1.3 4.5 1-2.4-8.4-.2-13.2-3.7-19-.5.1-1.1.2-1.7.3zm2.9-.7c1.4 1.7 2.1 3.2 1.2 4.4 4.8 7.4 0 9.9 2.2 14.6h0c1.9-3.8 3.2-13.8-.9-18.9l-1.5-.6a4.67 4.67 0 0 1-1 .5zm3.8 5.4h0zm-.1 0h0z"/><path d="M215.1 53.3h0zm-.8 13.9h0c.1-.1.2-.2.3-.2l-.3.2zm-1.1-8.3h0zm1.8-5.6h0zm-4-4h0c0 .1 0 0 0 0zm-1-3.2a8.39 8.39 0 0 1 2.6.7c-.8-.6-1.7-1.1-2.7-1.4-.1.2-.3.4-.4.6l.4.4c0-.2 0-.2.1-.3zm-1.1.9c-.2.5-.4.9-.5 1.4l.8-1.1-.3-.3zm1.4 20.1h0zm3.9.2h0zm.1 0h0zm-.5.2h0z"/><path d="M213.8 67.6h0v-.1zm2.7.3h0zm-5 1.7h0-.3.3zm.2 0h0zm1.2-.1h0zm3.1 1.1h0c.3.2.7.2 1-.1-.3 0-.7 0-1 .1z"/><path d="M211.7 69.6h0c-.1.2-.1.3-.1.4.8.7.7.7 4.1.6h.3c-2 .1-.1-1.2.5-1.5h-1c-.8 0-.8.3-2.4.4h0c-.4 0-.6 0-1.4.1h0zm-.1 0h0zm3.8 1.1h0zm-31.5 7.8h0zm-2.4 1.2l.1-.1-.1.1c.1-.1.1-.1 0 0zm10 4.7v.2-.2z"/><path d="M174.8 66.6h0c2.5.2 4.9.6 7.2 1.5h0l.2.1h-.1a9.51 9.51 0 0 1 3.6 2.7h0l.1.1-.1-.1c1 1.3 1.9 2.7 2.6 4.2V75c0 .1.1.1.1.2l-.1-.1c1.7 3.6 2.9 7.4 3.6 11.4v-.1c.4 1.7-.2 4.5 1.1 7.6 4.4 7.7 22.3-6.5 6.9.5l.2.1-.2-.1h.1c-1.5-1-5.8-.4-5.9-4.8v-.2c-.1-.4-.2-.8-.2-1.3v.2c-.1-.6-.2-1.1-.3-1.6h0v-.2.2c-.1-.6-.1-.3-.6-2.8v.2a53.31 53.31 0 0 0-3.9-11h0c-2.1-4.9-7.1-8-12.4-7.8h0c-.3 0-.9-.1-1.9-.2-.4.5-.7 1-1.1 1.5.4-.1.8-.1 1.1-.1zm30.3 26.6h0zm-3.9 1.3h0zm-.1 0h0zm-3.6.8h0zm-6-10.7v-.2.2zm-1.6-9.7h0zm-.9 1.4h0zm-12-9.5h0zm-.6-1.5h-.1.1z"/><path d="M193 93.9h0zm-7.4-23.2h0zm-3.5-2.6h0zm-7.2-1.5h0z"/><path d="M193.9 89.5h0zm-.9 4.4s0-.1-.1-.2v-.1c.1.2.1.3.1.3zm-4.8-19.1s0 .1 0 0l.1.2s0-.1-.1-.2zm5.2 11.9h0v-.2.2zm6.6 7.7l-.2-.1h-.1l.3.1zm-6.1-5h0zm-20.5-24.2c-.3 0-1.2 1.2.2 1.4l1-1.5c-.3 0-.7 0-1.2.1zm25.8 33.9h0c-25.7-1.8 15.1 16.5 13.4-4.3-3.4 1.5-6 .6-13.4 4.3zm-3.5 1.3h0z"/><path d="M197.1 104.3h0z"/><path d="M197.1 104.3l-.2-.1.2.1zm5.2-6.9h0zm56.9 46.7h0l-.1-.2.1.2zm-9.4-8c-.5-.6-.9-1.3-1.4-1.9-.1.4-.1.8-.2 1.1l1.6.8z"/><path d="M247.6 139.2c2.2 3.3 5.3 5.9 8.9 7.6.9-.9 1.8-1.8 2.7-2.8l-.1-.2a31.73 31.73 0 0 1-9.3-7.8l-1.5-.8c-.2 1.5-.4 2.8-.7 4zm6.5 2.4l-.1-.1.1.1z"/><path d="M246.1 134.6l.3-.2c.7.3 1.3.6 1.9 1 .1-.4.1-.8.2-1.1-.8-1.3-1.5-2.6-2-4-.4 1.3-.5 2.8-.4 4.3z"/><path d="M246.4 134.4l-.3.2c.2 1.7.7 3.3 1.5 4.7l.7-3.9c-.6-.4-1.3-.7-1.9-1z"/></g><g fill="#ea9a00"><path d="M184.4 25h0zm3.1-3.4h0zm-31.4 92.1h0zm17.1-82.5l-.1.1.1-.1zm6.1-4.9l-.2-.1.2.1zM162 152.4v-.1.1zm11.1-121h0s0 .1 0 0h0zm-18.6 30.8h0z"/><path d="M164.2 157.9c-.6-5.3 4.9-20.7-2.8-30.1.1.1.1.3.2.4-8.2-8 4.4-23.5-4.2-33.6-8-10.3-5.5-15.6.4-25.1-.4-9.3-2.5-15.8 1.8-25.5h0c6.5-3.5.4-6.1 13.5-12.5 2.1-5.6 9.6 2.1 11.4-6.4h0c.6-1 .2-1.8 3.1-3.4h.1c.8-.5 1.8-.7 2.8-.6h0c4.9 2.2 5.2-2.6-2.3-1.9-2-1.4-4.7 5.7-8.8 7.2h.1c-2.6-.5-6.7-.8-9.9 5.6-20.7 3.4-14 35.9-21.4 54.9 6.1 11.6 11.9 13.9 7.9 26.9h0c-6 7 2.9 14 6.2 21.7 2.1 6.3-6.8 15.6 1.9 22.4zm-2.4-5.7l.1.1c0 0 0-.1-.1-.1h0zm.1.1v.1-.1zm2.1-7l-.1.3c.1-.1.1-.2.1-.3h0zm-4.6-36.7h0zm-.1-9l-.1-.1.1.1zm17.7-71l-.3.1.3-.1zm-12.7 7.5s0 .1-.1.1l.1-.1zm-4.4 4.3l-.2.1.2-.1zm-.2.1l-.2.1.2-.1zm-3.2 25.3h0zm0-.4h0zm-.7-15.2h0zm-.1 4h0zm-.1.4h0zm-.7 14.3l-.1-.1.1.1zm-.3-6.7h0zm0 0h0zm0-.1h0s0-.1 0 0h0zm-2.5 19.1l.1-.1-.1.1zm4.5 43.4l.1.1c-.1 0-.1-.1-.1-.1h0zm.4-13.1h0zm0 .6c0-.1 0-.2.1-.3l-.1.3zm1.1-8l.1-.2-.1.2zm0-.5h0zm.1.4h0z"/><path d="M157.4 60.4v.2-.2zm7.9 74.8v.1c0-.1.1-.1 0-.1zm-7.2-31.3l-.1.2.1-.2zm5.8 41.7c0-.1 0 0 .1-.3 0 .1 0 .2-.1.3zm6-11.4h0c2.6 4.2-2.3 19.9 1 23.6 1.2-26 .8-52.4-13.6-73 9.7 15 3.7 33.3 12.6 49.4zm-3-25.5h0zm0-.2h0zm-.8 2.6h0c0-.1 0-.1 0 0zm0 0c0-.1 0-.1-.1-.2.1.1.1.1.1.2zm-.1 7.9h0zm-.4 1.7h0zm0 .2h0zm0 0h0c0 .1 0 .1 0 0zm-1-21.8h0zm-1.8-4.4h0zm8.5 59.2h0zm.4-6.5l-.1.2c0-.1.1-.2.1-.2zm-14.4-62.5l-2-2.8 2 2.8z"/><path d="M169.8 150s0-.1-.1-.1l.1.1zm.7-13c-.1.2 0 .1-.1.2.1 0 .1-.1.1-.2zm-.7-2.9l.1.1-.1-.1zm-1-40.5c4.6 10 2 31.8 10.6 43.8l.1.1v-.1c-.8 2.5-2.9 6-2.7 12.8l.1-.1-.1.1c-1.1.6-2.7 8.6-.1 4.4 7.3-17.5-.9-36.5-5.9-58.9-.2-.3.2-2-2-2.1zm9.3 53.7v.1-.1zm1.1-3l.1.1s0-.1-.1-.1h0zm-8.3-45.2v.2-.2zm3.9 25.7v-.2.2zm4 8.6h0zm-3.9-16.7l-.1-.1.1.1zm-.1 7.9h0zm0-8.1v-.2.2zm0 8l-.1-.1.1.1zm-.7-3.2h0zm-.1.1l-.1.2.1-.2zm-1-7.8h0c0 .1 0 .1 0 0zm-.3-7.4h0zm-1.7-6.7h0z"/><path d="M176.9 150.1h0zm-6-54.5v.2c0 .1.1.1.1.1-.1-.1-.1-.2-.1-.3zm8.4 41.6l.1.2-.1-.2zm.2.2h0zm-2.7 17.2h0zm-1.3-.6h0zm4.4-16.2h0zm8.5-1.5l-.1.2c.1-.1.1-.2.1-.2zm-1.3 9.5h0zm-.2-11.5h0zm1.3 8.1v.1-.1zm-1.2-2.6l.1-.1-.1.1zm.1-.2h0zm.4-.8h0zm-6.6-29.3v-.2.2z"/><path d="M180.9 109.5v-.2c0-2.3-.9-4.5-2.6-6 .5 3.3.4 11.8 5 19.6.1-.1.1-.3-.3.8h0c-1.4 3.4 3.9 4.7 3.9 10.6h0c0 .1 0 0-.1.3 0-.1 0-.1.1-.2-.6.5.5 1.8.2 5.4h0v-.1.1c1.8 23.2 2-15.9-6.2-30.3zm-1.8-2l.1.1-.1-.1zm.1.1h0zm0-.1h0c0 .1 0 .1 0 0zm0 .2h0zm0 0h0zm.2-2.4h0zm8 33.4h0zm0 .4h0zm-2-10.7h0zm0 .1h0zm-.1-2.5h0zm-1.3-5.3s0-.1-.1-.1c.1 0 .1 0 .1.1zm-2.6-6.3h0zm6.7 28.8v-.1.1zm4.3-16.3h0zm0 .1h0z"/><path d="M195.5 137.9h0c-.1-7.1-3.2-17.3-6.9-26.7 0 .1-.1.2-.1.3l.1-.3c.3-.8.5-2.7-1.3-2.4-3.7 4.6 4.2 11.3 5 18v.1-.1.2c0 .1 0 0 0-.1h0c-.2 2.3.3 4.6 1.3 6.7h0l.1.3v-.2c.1.4.1.8.1 1.1v-.1.2c-1.6 6.5 6 18.1 1.7 3h0zm-6.7-20.7h0c0 .1 0 .1 0 0zm0 .1h0zm0 .1h0zm2.7 4h0zm.2.1h0zm.7 5.3h0zm1.3 6.8h0zm0 0h0zm.4-3.8h0zm0 1.5h0zm.6 9.4l.1.1-.1-.1zm.3.6h0zm1.7 2.9h0zm0-.1h0z"/><path d="M194.1 129.8h0zm-1.6-3h0zm-.1.1h0c0-.1 0 0 0 0h0zm3.1 10.8h0zm0 .1h0zm0 .1h0zm-7-26.5c0-.1.1-.2.1-.3h0l-.1.3zm10.4 32.8v-.1.1zm-.4-5h0c.3 1.6.5 3.2.5 4.8v-.1.2c1.1 4.3 3.6-3.2-.2-7.1v.1-.2c.1-7.2-1.1-14.3-3.6-21-1.6 6.2 1.9 15.1 3.3 23.3zm.7 3.5v-.2.2zm-.6-3.3v-.1c0-.1 0 0 0 .1zm-2.4-13.6h0z"/><path d="M198.8 136.9h0zm-1.2-2.3v.1-.1zM186.4 29.9h0zm8.8-2.6l-.3-.1h.1l.2.1zm-8.7 2.5h0zm-26 39.2h0zm4.1-24.1h0zm-3.3 23.5h0zm25-38.4l-.2.1.2-.1zm-15 9.7h-.2.2zm-7.7 10.4v.2-.2zm-.1.1h0z"/><path d="M186.4 29.9h0c-4.2 2.5-8.8 6.4-15.3 9.7h.2-.3c-.6-.1-1.4.2-4 2.3h0c-4.7 3.9-6.4 13.4-6.1 24.8 0-.1-.1-.1-.1-.2.3.5.4 1.2.4 1.8v-.1.1c0 .1 0 .1-.1.2l.1-.2c-2.4 7.2 3.7-7.7 2.1-14.1h0c2.1-14.6 15.2-11 25.8-24.4.9 2.3 11.8-2.5 3.7-2.5-2.2.4-4.4 1.3-6.4 2.6zm-25.1 31.5h0c0 .1 0 0 0 0zm.4-4.1h0zm.2 7.7h0zm.1-9h0zm1.5-2.4h0zm0-3.4h0zm.1.1v-.2.2zm0 0h0zm.8-4.6h0zm.2-.2h0zm2.2-.9h0zm1.6-3.5h0zm5.8-.9l.1-.1c0 .1 0 .1-.1.1zm.6-2.4h0zm3 1.2h0zm.5-.2h0zm3.9-3h0zm4.2-3.3h0zm2.9-3h0zm.1-.2h0zm2-1.2l.1-.1-.1.1zm2.6 1.1h0zm-.1 0h0z"/><path d="M161.4 68.2h0zm4.8-3.8h0zm25.3-29.2c-7 4-25.8 11.9-25 26.8v-.2c1.4 7.3-3.7-7.2 20.3-21.5 2.3 1.6 17.4-6.8 4.7-5.1zm-23.4 19.3h0c0-.1 0-.1 0 0zm10.9-9h0zm8-5.2h0zm0-.1l.1-.1s-.1 0-.1.1zm1.4-2.9h0zm.3-.1l.2-.1-.2.1zm2.8 1.9l.2-.2c-.1 0-.2.1-.2.2h0zm1.8-1.4h0z"/><path d="M188.9 37.2l-.2.1.2-.1zm6.7 4.7c-5.8 3.3-22.1 9.2-25 20.8v-.2c-2.4 4.4 4-5.1 14.7-12.5 1.3.5 15.5-4.9 10.3-8.1zm-25 21.1h0zm1.8-4.1h0zm-.1.1h0zm-.1.1h0zm.1-.1h0zm1.3-1.9h0zm.6-.1h0zm3.8-1.4h0zm1.5-1.4l.2-.1-.2.1zm5.8-4.1h0zm.1 0h0zm0-.1h0zm1.2-3l.2-.1-.2.1zm4.3.3h0zm.5-.3h0z"/><path d="M178 55.5h0zm-5.6 3.5h0zm28.7-12.5c-.4 1.6-17.5 7-10.1 7.5-.2.1 1.6-.6 3.9-1.6 1.3-.9 2.7-1.6 4.2-2 3.2-1.7 5.4-3.5 2-3.9zm-.3 2.6l-.1.1.1-.1zm-9 3.6h0zm1.7-1.1h0zm3.6-1.3h0z"/><path d="M194.8 52.5l4.2-2c-1.5.4-2.9 1-4.2 2zm41-3.8l-.1-.2.1.2zm4.4 8.9h0c.1-.2.1-.2.1-.3 0 .1-.1.2-.1.3zm-4.3-23h0z"/><path d="M228.1 26.2h0c11.7 13.6 6 35.5 16.2 49.8 1.3.3 3.4 5.1 3.8 2-4.3-5.6-8.5-10.9-7.8-20.5l-.1.1c0-.1 0-.2.1-.3v.2c3.5-3.7-2.7-8.5-1.4-13.4l-.1.3c-1.1-9.5-9.4-28.1-22.8-30.2-27.3 7.6-4.3-3.6 12.1 12zm14.8 46.7h0zm-.1-.1l-.1-.1.1.1zm-2.2-6.5l-.1-.1.1.1zm-1.4-14h0c0 .1 0 .1 0 0h0zm0-.2h0zm-3.3-17.6h0zm-7.9-8.4l-.1-.1.1.1zm-8.1-7.9h0z"/><path d="M228.1 26.2h0zm20 51.7h0l.1.2-.1-.2zm-12.4-29.3l-.1-.1c0-.1 0-.1.1.1zm8.7 27.6l-.1-.1h-.2l.3.1zm-1.3 67.7h0c0-.1 0 0 0 0zm.6-13.2h0zm5.9-11.7v-.2.2zm-7.3 19.2v.2-.2zm3-9.3h0zm-5.7-53l-.1-.1.1.1zm4.5 64.2h0v.2-.2zm-.7-56.5h0v.2-.2zm-.5 50.5h0v-.2.2zM236.5 69h0zm1.3 4.6l-.1-.2s0-.1-.1-.1l.2.3z"/><path d="M242.8 148.3h0c.9-1.5 1.4-3.2 1.5-5 0-1.1-.1-2.1-.2-3.2a27.13 27.13 0 0 0-.9-4.1h0c-.2-.6-.2-1.3-.2-1.9h0v-.2.2c0-1.2.3-2.4.8-3.4l.1-.1-.1.1c.4-.6.9-1.2 1.5-1.7l-.1.1c18-10-1-13.1-4.2-32.5-1.4-5.6 10.3-13.6-1.4-20.6h0l-.2-.2c-.7-.7-1.3-1.5-1.8-2.4l.1.2c0-.1-.1-.2-.1-.2s0 .1.1.1c-.8-1.4-1.2-2.9-1.2-4.5h0c.1-.5 1.6-3.8-.7-2.4-3.9 5.9 4.1 10.7 7.6 17.3v-.1c0 .1 0 .2.1.2l-.1-.1c.4.8.3 1.7-.2 2.4h0c-.5.8-1 1.7-1.5 2.5h0c-2.3 3.1-3.5 7-.4 12.4v-.1.2-.2c-.3 1-.6 2-1 3v-.1c-2.9 7.2 6.2 8.1 9.2 15.2 0-.2-.1-.3-.1-.4l.1.4c0 .2 0 .1.1.4v-.2c1.6 7-12.9 8.9-7.4 19.3v-.1.1a26.18 26.18 0 0 1 .9 5.6v-.1c0 .1 0 .1-.1.2h0c-2.6 3-1.8 5.2-.7 4.9.1-.2.2-.3.4-.5l.1-.5zm-6.2-78h0zm5 9.8l.1.1-.1-.1zm.7 1.1h0zM241 99.3h0zm.2.5h0zm-.1 1.8h0zm1.6 4.9v.2-.2zm.5 1.6l.1.1c-.1 0-.1 0-.1-.1h0zm1.3 1.7l.2.2-.2-.2zm4.6 13.1c0 .1-.1.1-.1.2 0-.1.1-.1.1-.2h0zm-1.5 1.6h0zm-.1.1l-.1.1.1-.1zm-2.2 4.2h0zm-2.1 2.9h0zm-.8 13.9s0-.1.1-.1l-.1.1z"/><path d="M242.8 148.3h0z"/><path d="M244.3 143.3c-.1 1.8-.6 3.5-1.5 5h0c-.1.2-.2.4-.4.5.9-.2 1.9-1.8 1.9-5.5zm-6.7-9.6h0zm1.1-21s0-.1-.1-.1h0l.1.1zm-1.8 29.4h0c0 .1 0 .1-.1.2.1 0 .1-.1.1-.2zm1.6 2.9h0zm-.1.1v.1-.1zM235.9 83h0zm1.1 26.9v-.3.3z"/><path d="M235.9 82.9h0c.2.9.3 1.8.3 2.7v-.2c-2.6 10.2-3.8 24.1 5.1 33.7-3.1 6.1-8.6 11.6-4.1 21.1v-.1.2c0 .6-.1 1.2-.3 1.8h0c0 .1-.1.2-.1.3 0-.1 0-.1.1-.2-1.3 1.2-.2 7.3 1.6 2.8.2-.7.3-1.3.5-2 0 .1-.1.2-.1.3 1.1-2.4-.3-5.3-1.3-9.6v.1-1.2c-2.2-6.2 13.8-12.9 1-20l.1.1-.1-.2h.1c-.8-.8-1.3-1.8-1.7-2.8v.2c0 .1 0-.2 0-.2h0c-1.6-10 4.3-23.1-3.2-32.5-1.1 1.7 1.3 2.8 2.1 5.7zm.1 19.1h0c0 .1 0 0 0 0zm.4 42.2v-.1.1zm1.8-15.6v-.1.1zm2-6.7c.1-.1 0 0 .2-.3-.1.1-.2.2-.2.3h0zm1-1.9h0zm-4.8-27v.2-.2zm-4.9 31.5c-.1.2-.1.1-.1.2l.1-.2zm1.4 20.9h0z"/><path d="M232.2 90.2c.2-.7 1.3-4.6-1.3-2.8-3.3 5.8-3 12-1.3 20.2h0c-3.1 6.3 8.1 12 .1 19.6l.2-.3c-3.9-.9 1.6 26.5 3 19.5v-1c.2-1.9 0-3.8-.5-5.6l.1.3c-.1-.6-.1-.6-.9-3.3v.1c0-.1 0-.1-.1-.3v.1l-.3-1.4v.2c0-.1 0-.2-.1-.2h0c-.8-2.8-.2-5.8 1.6-8.1l-.2.3c7-9.7-5.7-23.8-.3-37.3zm-1 3.4c0 .1 0 .1-.1.2l.1-.2zm-.7 4.3v-.2.2zm.5 44.5h0zm-.2-9.9v-.1.1z"/><path d="M232.9 146.5h0zm-3.3-38.9h0zm2 29.3v-.1.1zm.7-46.8s0 .1-.1.1v.1c.1 0 .1-.1.1-.2zm-1.1 45.4v-.2.2zm-5.3-21.8h0v.2c0 .1 0-.2 0-.2zm1 10.6h0v.2-.2zM225 109h0l-.1-.2.1.2z"/><path d="M226.5 111.3s.1.1.1.2c-.3-.5-.3-.4-1.5-2.6v.1l-.1-.2.1.1c-.4-.7-.6-1.5-.5-2.3v.1-.2c.1-.1.2-.9-1.2-1.5-.6 1.8-.1 4.3 2 7.3v-.1s.1.1.1.2c0 0 0-.1-.1-.1l.6 1.4v.2-.2c-1 1.3-2.2 23.6.9 10.7-1.9-4 2.4-7.3-.4-13.1zm-1.4.5h0zm-.1 12.1h0zm1-3h0z"/><path d="M225.3 112.2h0l.1.2c-.1-.1-.1-.2-.1-.2zm-3.1-1.8h0zm.5 8.8l.1-.1v-.1c0 .1 0 .2-.1.2z"/><path d="M222.8 119.1l-.1.1.1-.1a7.71 7.71 0 0 0-.6-8.7v.1c0-.1-.1-.1-.1-.2v.1c-.4-.3.5-3-1.8-1.9-.5.9-.4 3 1.9 5.1l-.1-.2c-.1.6-.2 1.7-.3 2.9.4 1.3.7 2.6.8 4 0-.3.1-.7.2-1.2zm.2-7h0zm-1-2.4h0zm.6 5.1h0zm0-.5h0zm-1 10h0z"/><path d="M222.5 120.4c-.1-1.4-.3-2.7-.8-4-.6 5.9-1.7 16 .8 4zM218.2 29h0zm17.3 29.7h0c0-.1-.1-.2-.1-.4.1.1.1.2.1.4z"/><path d="M205.1 25.5c1.7-.5 1-.2 4.9-2.2l-.2.1c4.2-1.5 1 8.9 8.4 5.5h.1c5.7 1.9 10.9 32.1 18.2 31.9-.4-.7-.7-1.4-.9-2.2h0c0-.1-.1-.2-.1-.4 0 .1.1.2.1.4.3-1.3-.5-4.3-3.1-8.1v.3c-2.8-12.4-10-20.8-22.4-29.3-1.4.3-1.9 1.5-6 2.8h0-.1c-3.6-4-5.1 1.4 1.1 1.2zM231.9 55h0zm-2.8-7.3h0zm-3.7-9.1h0zm-.6-2.4h0zm-2-2.4v-.2.2zm-.5.4h0zm-3.2-5h0zm-.1 0h0zm-7.1-4.9l-.1-.1.1.1zm-.8-1h0zm-8.2.6h0z"/><path d="M205.1 25.5h0-.2.2zm27.3 25.3h0zm0 .2h0zm.1-1.8V49v.2zm-7.2 2.8h0c-5.3-7.6-8.8-19-20.7-22-1.4 2.2 6 5.2 10.5 8.4-.3.9 4.2 8.9 7.7 14.4 1.4.9 2.7 2 3.9 3.1-.2-.9-.7-2.2-1.4-3.9zm-18.6-20.7h0zm2.3 1.3h0zm4.4 3.7h0zm.3 0h0zm1.7 1.9h0zm3.3 6.3v-.2.2zm0 .3h0z"/><path d="M205.2 32.3h0zm21.6 23.6c-1.2-1.1-2.5-2.2-3.9-3.1 2.9 4.5 5.2 7.3 3.9 3.1zm-16-13.5l-.1-.1.1.1z"/><path d="M210.8 42.3l.1.1-.1-.1c-.5-1-2-4.5-4.5-2.3-.2-.5-.4-1-.5-1.5v.2c-.3-.2.4-1-1-1.6-3.9 4.4 18.9 11 6 5.2zm2.3 1.7h0zm0 0h0zm-1.8-1l-.1-.1.1.1zm-.3-.2h0zm-2.6-1.7l-.1-.1.1.1zm-.7-.3h-.1.1zm-1.7-.6h0zm8.7 26.7h0zm-.9.6h0c.2-.1.2-.1.5-.3l-.5.1v.2zm-6.1-23.3v.2c-.2-.2.4-.9-.9-1.4-.6.7-.9 1.4 2.1 4l.6-1c-.5-.6-1.1-1.2-1.8-1.8zm.3.7h0zm1.9 1.4l-.6 1c.1.1.3.2.4.4h0c.1.2.2.4.4.6.4-.1.8-.2 1.2-.4l-1.4-1.6z"/><path d="M212.5 52.3h0v-.1.1c.8-1.2.2-2.7-1.2-4.4-.4.1-.8.3-1.2.4 3.4 5.9 1.3 10.7 3.7 19l.5-.1.3-.2.1-.1c-2.1-4.7 2.6-7.2-2.2-14.6zm-1.5-2.9h0zm2.2 9.5h0zm.2-4.2h0zm.4 9.6c0 .1.1.1.1.2l-.1-.2zm-3.9-18l-.4-.4-.6 1 .3.3c.3-.2.5-.6.7-.9z"/></g><g fill="#2c2c2c"><path d="M225.9 62.9c-1.4 0-3.7-4.1-6.1-1.2-.9.2 7.7 4.5 6.1 1.2zm-3.8 0h-.1.1zm-11 6.7h0zm.4 0h0zm-2.8 1.9h0zm-4.2 2.1l.1-.1-.1.1z"/><path d="M204.5 73.6h0c1.2-1 2.7-1.8 4.2-2.2h0c.1 0 .2 0 .2-.1h-.2c.9-.1 1.8-.3 2.6-.5h0c.1 0 .1 0 .2-.1h-.1c.1-.2.1 0 .2-.9-.2-.1-.4-.3-.6-.4h0c-.5 0-1 0-1.4-.1h0c-.4.1-.3-.2-1.1.1-1.7-1.1-10.4 8.6-4 4.2zm.1-.1l-.1.1.1-.1z"/><path d="M211.6 69.6h0-.5c.2.1.4.3.6.4-.1-.1-.1-.2-.1-.4z"/><path d="M211.6 69.6h0zm4.4 1h0zm1-.1h.7c2.9 1.4 5.3.6 4.2-.3-1.5.6-3.5.7-1.4-.6-.2-.1-.5-.1-.8-.2-1.7 1.3-2.1.7-1.6-.2-.5-.1-1.1-.1-1.7-.1.1-.1 0-.1-.1 0 1.9.1 1.4 1 .7 1.4zm.6.1h0z"/><path d="M215.9 70.6h0c.4 0 .7-.1 1.1-.1.7-.4 1.2-1.3-.6-1.4-.6.3-2.5 1.6-.5 1.5zm-.5.2h0zm6-2.7c.2 0 0-1.1-.9-1-1 .4-1.8 1.2-2.3 2.1.5.1 1.1.1 1.6.3.5-.5 1.1-.9 1.6-1.4zm-1.3-.6h0zm-.4.3h0z"/><path d="M219.8 69.5l-1.6-.3c-.5 1-.1 1.6 1.6.3zm2.2-1c-.2.3-.5.6-.8.8.1 0 .1-.1.1-.1-.1 0-.1.1-.2.1h0l-.6.3c.5.1.9.3 1.4.6 1.2-.4 2.2-1.2.1-1.7zm0 .1l-.1.1.1-.1z"/><path d="M221.3 69.2c-.1 0-.1 0-.1.1h0s0-.1.1-.1zm.6 1c-.4-.3-.9-.5-1.4-.6-2.1 1.3-.1 1.2 1.4.6zm-48.1 11.5h0z"/><path d="M180.2 76.2c-.7.1-1.3.2-2 .4h.1c-1.6-.8-3.9 1.6-5.4 3.7.5.2.5.6.6.6-.4.4-.9.7-1.5.9-.1.2-.2.5-.3.7.5.1.7.3.7.5.5-.4.9-.9 1.4-1.3l.1-.1c1.3-1.4 1-2.7 5-3.6h0c1.5.5 7.7-.9 1.3-1.8zm-3.4 2.5h0z"/><path d="M173.8 81.8h0zm5.1-3.7h0zm-6.2 2.1c-3.5-.8-2.9 2.4-.6 1.7l.9-1.6c-.1 0-.2-.1-.3-.1z"/><path d="M173 80.3c-.3.5-.7 1-.9 1.6.6-.2 1.1-.5 1.5-.9-.1-.1-.1-.5-.6-.7zm-1.3 2.3c-.4-.1-.9-.2-1.4-.2-.6 0-.8-.8-1.7.5.1 2 3.8.9 3.8.1-.8.7-.9.4-.7-.4z"/><path d="M171.7 82.6c-.3.8-.1 1.1.7.5 0-.2-.2-.4-.7-.5z"/></g><g enable-background="new" fill="#fff"><path d="M3.9 241v-33.5c0-.5.2-.8.7-.8h5.1c.4 0 .7.1.9.5L22 235.4l11.6-28.2c.1-.4.4-.5.8-.5h5.1c.4 0 .8.3.8.8V241c0 .5-.3.8-.8.8h-4.2c-.5 0-.7-.3-.7-.8v-24.2l-.7 2.2-9.1 22.1c-.1.4-.5.6-.9.6H20c-.4 0-.8-.2-.9-.6l-9-22.1-.7-2.2V241c0 .5-.3.8-.8.8h-4c-.5 0-.7-.3-.7-.8zM46 229.4c0-7.2 5-12.8 12.5-12.8 7.4 0 11.6 5.6 11.6 11.7 0 2.2-.4 3.2-2.3 3.2H51.2c.6 3.9 3.6 6.5 8.4 6.5 2.4 0 4.4-.6 6.3-1.9.3-.2.6-.2.8.2l1.4 1.9c.3.4.2.7-.2 1.1-2.1 2.1-5.3 3.1-8.8 3.1-7.9-.1-13.1-5.7-13.1-13zm19.3-1.8c-.3-4-2.9-6.4-6.8-6.4s-6.7 2.3-7.3 6.4h14.1zm12.3 21.8c-.5-.3-.6-.8-.4-1.2l1.1-2.2c.2-.4.6-.5 1.1-.3 2.1 1.2 4.5 1.9 6.8 1.9 4.1 0 8-1.8 8-7.1v-3.3c-1.6 2.6-4.5 4.2-8.4 4.2-7 0-11.7-5.1-11.7-12.4 0-7.2 4.8-12.4 11.7-12.4 4 0 6.8 1.6 8.5 4.3l.1-3c0-.5.2-.8.7-.8h3.7c.4 0 .7.3.7.8v22.6c0 8.4-6.6 11.4-12.8 11.4-3.6.1-6.9-.9-9.1-2.5zM94.2 229c0-4.6-3-7.5-7.3-7.5-4.2 0-7.4 2.9-7.4 7.5s3.2 7.5 7.4 7.5c4.2-.1 7.3-2.9 7.3-7.5zm10.7.5c0-7.2 4.8-12.9 11.8-12.9 4.1 0 7 1.8 8.7 4.7l.1-3.3c0-.5.2-.8.7-.8h3.6c.5 0 .7.3.7.8v23c0 .5-.2.8-.7.8h-3.6c-.5 0-.7-.3-.7-.8l-.1-3.2c-1.8 2.8-4.7 4.6-8.7 4.6-7-.1-11.8-5.6-11.8-12.9zm20.3 0c0-4.8-3.1-8-7.4-8-4.4 0-7.6 3.2-7.6 7.9 0 4.8 3.2 7.9 7.6 7.9 4.3.1 7.4-3.1 7.4-7.8zm12 11.5v-23c0-.5.2-.8.7-.8h3.8c.4 0 .7.2.7.8l.2 3c1.4-2.5 3.9-4.4 7.7-4.4 5.2 0 8.9 3.6 8.9 10.1V241c0 .5-.3.8-.8.8h-4c-.5 0-.7-.3-.7-.8v-13.3c0-3.9-1.9-6.1-5.4-6.1s-5.9 2.2-5.9 6.1V241c0 .5-.2.8-.7.8h-4c-.2 0-.5-.3-.5-.8zm61.7.8h-4.4c-.4 0-.7-.2-.9-.5l-7.9-12.2h-4v12c0 .5-.3.8-.8.8h-4.2c-.5 0-.7-.3-.7-.8v-33.5c0-.5.2-.8.7-.8H187c8 0 12 4.6 12 11.2 0 5.2-2.6 9.2-7.7 10.6l8.1 12.4c.4.4.1.8-.5.8zM181.8 224h5c3.7 0 6.8-1.5 6.8-6.2s-3.1-6.2-6.8-6.2h-5V224zm20.7 5.5c0-7.2 4.8-12.9 11.8-12.9 4.1 0 7 1.8 8.7 4.7l.1-3.3c0-.5.2-.8.7-.8h3.7c.4 0 .7.3.7.8v23c0 .5-.2.8-.7.8h-3.7c-.5 0-.7-.3-.7-.8l-.1-3.2c-1.8 2.8-4.7 4.6-8.7 4.6-7-.1-11.8-5.6-11.8-12.9zm20.3 0c0-4.8-3.1-8-7.4-8-4.4 0-7.6 3.2-7.6 7.9 0 4.8 3.2 7.9 7.6 7.9 4.3.1 7.4-3.1 7.4-7.8z"/><use xlink:href="#B"/><path d="M273.4 241v-33.5c0-.5.2-.8.7-.8h11.1c6.7 0 9.5 4.2 9.5 8.7 0 3.5-1.8 6.3-4.8 7.5 4 1 7 4.2 7 9.1 0 5.8-4 9.9-12.1 9.9H274c-.3-.1-.6-.4-.6-.9zm10.8-20c3.2 0 5.2-1.7 5.2-4.9s-2-4.5-5.2-4.5h-5.3v9.4h5.3zm.3 15.8c4.3 0 6.7-1.9 6.7-5.7s-2.4-5.7-6.7-5.7h-5.6v11.4h5.6zm20.9 13.7l3.5-8.7-9.5-23.7c-.2-.5 0-.9.6-.9h4.1c.4 0 .7.2.8.6l6.6 17.7 6.7-17.7c.1-.4.5-.6.9-.6h4c.5 0 .8.3.5.9l-12.9 32.6c-.2.4-.5.6-.9.6h-3.9c-.5 0-.8-.3-.5-.8z"/><use xlink:href="#B" x="92.3"/><path d="M355.4 241v-23c0-.5.2-.8.7-.8h3.8c.5 0 .7.2.7.8l.2 3c.9-2.5 2.5-4.4 5.4-4.4 1.1 0 1.9.2 2.2.5.4.2.5.5.5 1v3.1c0 .6-.4.7-1 .5s-1.1-.2-1.8-.2c-3.9 0-5.4 3.1-5.4 6.2V241c0 .5-.2.8-.7.8h-4c-.4 0-.6-.3-.6-.8zm17.8-2.5c-.3-.4-.3-.9 0-1.4l1.3-1.8c.3-.5.8-.5 1.2-.1 1.8 1.6 3.6 2.6 5.8 2.6s3.8-1 3.8-2.9c0-1.7-1.1-2.5-3.2-3.4l-3-1.2c-3.1-1.2-5.4-3.2-5.4-6.7 0-4.4 3.8-7 8.1-7 3 0 5.8 1.2 7.7 3.6a.67.67 0 0 1-.1 1l-1.5 1.8c-.4.5-.8.4-1.2 0-1.5-1.4-3-2.1-4.7-2.1-1.9 0-3.2 1-3.2 2.6 0 1.7 1.3 2.5 3.2 3.2l3 1.2c3.1 1.2 5.6 3.3 5.6 7 0 4.8-4.1 7.3-8.9 7.3-3.9.1-6.8-1.7-8.5-3.7z"/></g><defs ><path id="B" d="M233.6 229.4c0-7.2 5-12.8 12.5-12.8 7.4 0 11.6 5.6 11.6 11.7 0 2.2-.5 3.2-2.3 3.2h-16.5c.6 3.9 3.5 6.5 8.4 6.5 2.4 0 4.3-.6 6.3-1.9.3-.2.6-.2.8.2l1.4 1.9c.3.4.2.7-.2 1.1-2.1 2.1-5.3 3.1-8.8 3.1-8-.1-13.2-5.7-13.2-13zm19.2-1.8c-.3-4-3-6.4-6.8-6.4s-6.7 2.3-7.2 6.4h14z"/></defs></svg>