<?xml version="1.0" encoding="utf-8"?>
<!-- Generator: Adobe Illustrator 24.2.0, SVG Export Plug-In . SVG Version: 6.00 Build 0)  -->
<svg version="1.1" id="Layer_1" xmlns:v="https://vecta.io/nano"
	 xmlns="http://www.w3.org/2000/svg" xmlns:xlink="http://www.w3.org/1999/xlink" x="0px" y="0px" viewBox="0 0 395.5 253.3"
	 style="enable-background:new 0 0 395.5 253.3;" xml:space="preserve">
<style type="text/css">
	.st0{fill:#C77966;}
	.st1{fill:#2C2C2C;}
	.st2{fill:#99A3BE;}
	.st3{fill:#394172;}
	.st4{fill:#EA9A00;}
	.st5{fill:#FFFFFF;}
</style>
<path class="st0" d="M273.5,46c-0.7-0.9-1.4-1.7-2.3-2.5l2.6,4.9C273.8,47.6,273.7,46.9,273.5,46L273.5,46z"/>
<path class="st1" d="M204,0.3L196.8,0c-2.4,0-5.1,0.1-7.6,0.4L204,0.3z"/>
<g>
	<path class="st2" d="M199.3,99.1h-0.2H199.3z M201,94.6L201,94.6z M195.8,100.4L195.8,100.4z M208.4,48.4l-0.2,0.2h0.2V48.4z"/>
	<path class="st2" d="M197.4,95.4L197.4,95.4z M194,63.8L194,63.8l-0.1-0.3c-1.1-2.1-1.6-4.5-1.4-6.8c-4,0.1-8.1,0.5-12.1,1.1
		c-2.1,2.4-4,4.8-5.7,7.4c1,0,1.6,0.2,1.9,0.2c5.4-0.3,10.3,2.8,12.4,7.8l0,0c1.8,3.5,3.1,7.2,3.9,11V84l0.6,2.8
		c0.1,0.6,0.2,1.1,0.3,1.6v-0.2c0.1,0.4,0.2,0.8,0.2,1.3v0.1c0.1,4.4,4.4,3.8,5.9,4.8c15.4-7-2.6,7.2-6.9-0.5c0,0.1,0,0.1,0.1,0.2
		v0.1V94c0-0.1-0.1-0.1-0.1-0.2v0.1c-1.3-3.1-0.7-5.9-1.1-7.6v0.1c-0.7-3.9-1.9-7.8-3.5-11.4c-0.7-1.5-1.6-2.9-2.6-4.2l0,0
		c-1-1.2-2.2-2.1-3.6-2.7H182c-2.3-0.8-4.7-1.3-7.1-1.5h-1.3c-3.3,4.5-6.6,7.6-13.4,6.6c-0.4,0.2-0.3,0.2-0.4,0.1
		c37.8,61.5,61.8,33.8,69.5,9.8C219,96.3,194.8,99.2,194,63.8z M181.5,79.7C181.5,79.6,181.5,79.6,181.5,79.7l0.1-0.1L181.5,79.7z
		 M178.9,78.1c-4,0.9-3.8,2.2-5,3.6l-0.1,0.1v0.1v-0.1c-0.4,0.5-0.9,0.9-1.4,1.3c0,0.8-3.7,1.9-3.8-0.1c1-1.3,1.2-0.5,1.7-0.5
		s0.9,0.1,1.4,0.2c0.1-0.3,0.2-0.5,0.3-0.7c-2.3,0.8-2.9-2.5,0.6-1.7c0.1,0,0.2,0,0.3,0.1c1.5-2.2,3.8-4.6,5.4-3.7l0,0h-0.1
		c0.6-0.2,1.3-0.3,2-0.4C186.6,77.1,180.4,78.5,178.9,78.1L178.9,78.1L178.9,78.1z M183.9,78.5L183.9,78.5z M202.4,97.3L202.4,97.3z
		 M191.9,102.3L191.9,102.3z M196.9,104.2l0.3,0.1L196.9,104.2z M198,104.5L198,104.5z M199.2,99.1L199.2,99.1
		c7.4-3.7,9.9-2.8,13.4-4.2C214.3,115.6,173.6,97.4,199.2,99.1L199.2,99.1z"/>
	<path class="st2" d="M185.6,70.7L185.6,70.7C185.6,70.8,185.6,70.7,185.6,70.7z M194,63.7L194,63.7c-0.1-0.2-0.1-0.2-0.1-0.3l0,0
		C194,63.5,194,63.6,194,63.7L194,63.7v0.2V63.7z M220.8,167.7l2-0.6c-0.7-0.1-1.3-0.2-1.9-0.4C220.9,167.1,220.8,167.4,220.8,167.7
		z M211.1,115.8c0.4-1.4,1.2-2.8,2.1-3.9c-6.6,3.7-14,1.8-18,0.2c12.6,16.4,13.5,51.4-11.2,41.9c-17.7,22.8-29.9,5.6-27.3-5.4
		c-6.1,0.7-11.4,1.2-16.3,1.6c21.4,18.7,50.6,25.5,78.1,18.2c-2.3-5.1-6.1-21.7-9.8-53.5C210.6,112.6,211.1,114.8,211.1,115.8
		L211.1,115.8z M173.8,81.8L173.8,81.8z M232.2,152.6c-1.4-1.8-2.6-3.7-3.7-5.7C228.9,149.6,229.7,151.8,232.2,152.6z M176.9,78.7
		L176.9,78.7z M201.1,94.5L201.1,94.5z"/>
	<path class="st2" d="M205.1,93.2L205.1,93.2z M174.8,66.6L174.8,66.6z M193.9,89.4v-0.2V89.4z M182,68.1L182,68.1z M219.2,150.2
		l0.6,4.2C219.7,153,219.5,151.6,219.2,150.2z M213.8,48l2.1,0.9c-1-0.9-2.1-1.7-3.4-2.2C213,47.1,213.5,47.5,213.8,48L213.8,48z
		 M188.4,0.4c-13.9,1.4-27.2,6.1-38.9,13.8c4.2,5.5,3.5,14.5,0.8,17.1c-11.9,11.5-18.7,8.6-21.1,1.8c-26.5,34.1-23.4,82.6,7.2,113.1
		c11-0.4,22.5,0.3,23.2-7.9c-21.2-18.7,2.8-28.8-14.9-44.2c-5-9.7,1.3-21.3,5.2-26.3c-10.5-43,37.1-51,62.9-57.4
		c10.7,0.8,20.2,7.1,25.2,16.5l-0.1-0.5c13.1,27.7,12.9,55.5,10.9,80.3c11.9,9.3,8.7,21.9-0.2,26.3c0,0.3-0.1,0.6-0.1,0.9
		c0.4,0.7,0.9,1.3,1.3,1.9c3.7,1.8,6.9,4.5,9.3,7.8l0.2,0.1c24.1-25.8,29.9-63.8,14.6-95.6c3.1,27.2-29.6-2.9-8-6.9
		c2-0.1,4,0.6,5.4,2c-1.8-3.2-3.8-6.3-6-9.2c-7.1,8-17.6-6.4-14.6-15.1C237.7,8.5,221.9,2,205.2,0.4H188.4z M148,129.6
		c-8.3,29.3-33.7-8.1-18.8-14.5C142.1,110.8,147.5,122.5,148,129.6z M194,63.8c0-0.1,0-0.1-0.1-0.2l0,0
		C193.9,63.7,193.9,63.7,194,63.8L194,63.8z"/>
	<path class="st2" d="M202.1,54.8H202H202.1z M189.2,0.4l-0.8,0.1h16.9L204,0.3L189.2,0.4z"/>
</g>
<g>
	<path class="st3" d="M194,63.7l-0.1-0.2C193.9,63.5,194,63.6,194,63.7z M194,63.8L194,63.8z"/>
	<path class="st3" d="M194,63.7L194,63.7z M221.9,68.7l0.1-0.1L221.9,68.7z M220,67.5L220,67.5z M217.5,70.5L217.5,70.5z
		 M211.5,69.6L211.5,69.6z M211.7,69.6L211.7,69.6z M217.6,70.6L217.6,70.6z"/>
	<path class="st3" d="M193.9,63.4L193.9,63.4l0.3,0.6l-0.1-0.1c0.8,35.4,24.9,32.5,35.2,19.2c3.3-10.4,3.6-20.1,0.6-21.7
		c-7.4-1.2-9.6-8.3-13.9-12.4l-2.1-0.9c4.1,5.1,2.8,15.1,0.9,18.9l0,0l-0.1,0.1c-0.1,0.1-0.2,0.2-0.3,0.2l0,0
		c-0.2,0.2-0.3,0.2-0.5,0.3l0,0l-0.1-0.2c-1.6,0.3-3.2,0-4.5-1l0,0l-0.1-0.1c1.5-9.5-1.5-13.7-0.8-17.6h-0.2
		c-4.6,6-10.2,7.4-15.8,7.9C192.3,59,192.8,61.3,193.9,63.4L193.9,63.4z M215.4,70.8L215.4,70.8z M221.4,71.7L221.4,71.7z
		 M225.6,62.8L225.6,62.8z M219.8,61.7c2.4-2.9,4.8,1.2,6.1,1.2C227.6,66.2,218.9,61.9,219.8,61.7L219.8,61.7z M216.5,67.9
		L216.5,67.9z M214.8,69.2L214.8,69.2z M213.8,67.6L213.8,67.6z M210.4,67.1L210.4,67.1z M208.4,69.6c0.8-0.3,0.7,0,1.1-0.1l0,0
		c0.5,0.1,1,0.1,1.4,0.1h0.7c0.9-0.1,1,0,1.3-0.1l0,0c1.6-0.1,1.6-0.4,2.4-0.4h1c0.1-0.1,0.2-0.1,0.1,0c0.6,0,1.2,0.1,1.7,0.1
		c0.5-1,1.3-1.7,2.3-2.1c0.9-0.1,1.1,1,0.9,1c-0.5,0.5-1,1-1.6,1.4l0.8,0.2l0.6-0.3c0.3-0.2,0.6-0.4,0.8-0.8
		c2.1,0.5,1.2,1.2-0.1,1.7c1.1,0.9-1.3,1.7-4.2,0.3H217c-0.3,0.2-0.7,0.3-1,0.1h0.1h-0.5c-3.4,0.2-3.3,0.1-4.1-0.6
		c0,0.8-0.1,0.7-0.2,0.9l0,0l-0.2,0.1l-2.6,0.6c-1.6,0.4-3,1.1-4.2,2.2l0,0c-6.4,4.4,2.3-5.3,3.9-4L208.4,69.6L208.4,69.6z
		 M202.2,54.8V55l-0.1-0.1C202.1,54.9,202.2,54.8,202.2,54.8z M219,166.2v0.1V166.2c1-3.8,1.3-7.8,0.9-11.8
		c-0.2-1.3-0.4-2.7-0.7-4.2c-2.7-13.3-10.7-25.6-8-34.4c-0.1-1-0.6-3.2-2.3-1c3.7,31.8,7.5,48.4,9.8,53.5l2.2-0.6v-1
		C220.2,166.6,219.6,166.4,219,166.2L219,166.2z"/>
	<path class="st3" d="M233.9,162.7c8.3-4,16-9.4,22.6-15.9c-3.6-1.7-6.7-4.3-8.9-7.6c-3.8,19.7-9.8,20.3-15.4,13.3
		c-2.5-0.8-3.3-3-3.7-5.7c-6.9-12.5-12.4-33.1-11.4-37.8c-1.1,1.1-2.4,2.1-3.8,2.9c-1,1.1-1.7,2.5-2.1,3.9v0.4
		c3.3,11.2,6,22.5,8.1,34c0.3,1.4,0.5,2.8,0.6,4.2c0.7,4.1,1,8.2,1,12.3c0.6,0.2,1.3,0.3,1.9,0.4
		C226.6,165.9,230.2,164.4,233.9,162.7L233.9,162.7L233.9,162.7z M211.1,116.3L211.1,116.3z M259.1,143.9c-2.4-3.3-5.6-6-9.3-7.8
		C252.4,139.3,255.6,141.9,259.1,143.9z M211.1,116.2L211.1,116.2z"/>
	<path class="st3" d="M219.2,150.2c-2-11.5-4.7-22.8-8.1-34l0,0v-0.4C208.5,124.7,216.5,136.9,219.2,150.2z M211.1,116.5
		L211.1,116.5z M218.9,166.3v-0.1V166.3z M219,166.2l1.9,0.6c0-4.1-0.4-8.3-1-12.3C220.4,158.4,220,162.4,219,166.2z M233.9,162.7
		h-0.1H233.9z"/>
</g>
<g>
	<path class="st0" d="M150.3,31.3c2.7-2.6,3.4-11.6-0.8-17.1c-3.3,2.2-6.5,4.6-9.4,7.2c-0.1,1.2-1,2.6-1.8,2.6
		c-0.5,0.3-1,0.5-1.6,0.6c-2.7,2.7-5.2,5.5-7.5,8.5C131.6,40,138.4,42.8,150.3,31.3z"/>
	<path class="st0" d="M138.3,24.1c0.8,0,1.7-1.4,1.8-2.6c-1.2,1-2.3,2.1-3.4,3.2C137.3,24.7,137.8,24.5,138.3,24.1L138.3,24.1z
		 M273.9,48.4l-2.6-4.9c-1.4-1.4-3.4-2.1-5.4-2C244.3,45.5,277,75.5,273.9,48.4z M265.3,34.3c-4.2-5.6-9.1-10.7-14.6-15.1
		C247.7,27.9,258.2,42.3,265.3,34.3z M139,132.8L139,132.8v0.1V132.8z M129.2,115.1c-14.9,6.4,10.5,43.8,18.8,14.5
		C147.5,122.5,142.1,110.8,129.2,115.1z M139,133L139,133l0.3-2C142.4,133.4,137,138.4,139,133z"/>
	<path class="st0" d="M139.3,131c0,0.6-0.1,1.3-0.3,1.9v-0.1v0.1C137,138.4,142.4,133.4,139.3,131z"/>
	<path class="st0" d="M139,133L139,133z"/>
</g>
<g>
	<path class="st1" d="M239.6,76L239.6,76l-0.1-0.1L239.6,76z M222.2,110.5L222.2,110.5v-0.2V110.5z M241.3,100.7v0.3V100.7z
		 M249.6,118.8L249.6,118.8v0.4V118.8z M222.5,114.2L222.5,114.2z M243.8,130.7L243.8,130.7c0,0,0-0.1,0.1-0.1L243.8,130.7z
		 M193.9,29.2L193.9,29.2z M194,29.2L194,29.2z M222.5,114.8L222.5,114.8z M243.2,143.8L243.2,143.8v0.2V143.8z M179.5,137.4
		L179.5,137.4v0.1V137.4z M178.1,147.4v-0.1V147.4z M174.8,124.7C174.8,124.6,174.8,124.7,174.8,124.7L174.8,124.7z"/>
	<path class="st1" d="M174.8,124.7v0.2V124.7z M170.9,99.3v-0.2V99.3z M188.8,117.3L188.8,117.3z"/>
	<path class="st1" d="M188.8,117.3L188.8,117.3C188.8,117.3,188.8,117.2,188.8,117.3z M193.9,134.7
		C193.9,134.8,193.9,134.8,193.9,134.7v0.3V134.7z M192.4,126.9L192.4,126.9z M172.6,106.3L172.6,106.3z M179.2,107.6L179.2,107.6z
		 M174.7,116.4v0.2V116.4z M179.5,105.4C179.5,105.3,179.5,105.3,179.5,105.4L179.5,105.4z M188.8,117.4L188.8,117.4z M187.1,139.7
		L187.1,139.7z M186.9,134.2L186.9,134.2c0,0.1,0,0.2-0.1,0.2C186.9,134.2,186.9,134.3,186.9,134.2z M179.3,107.7L179.3,107.7z
		 M174,121.4L174,121.4z"/>
	<path class="st1" d="M173.9,121.6l0.1-0.2C173.9,121.5,173.9,121.5,173.9,121.6z M172.9,113.7L172.9,113.7z M185.4,128.2
		L185.4,128.2z M181.3,114.4L181.3,114.4z M198.8,136.9v-0.1V136.9C198.8,137,198.8,136.9,198.8,136.9z M218.8,44.9L218.8,44.9
		C218.8,44.8,218.8,44.9,218.8,44.9z M247.4,124.7l0.1-0.1C247.4,124.7,247.5,124.7,247.4,124.7z M242.5,145.5l-0.1,0.1L242.5,145.5
		z M191.6,28l-0.1,0.1L191.6,28z M215.4,38.2L215.4,38.2z M218.7,44.3v0.2V44.3z M242.7,106.7v-0.2V106.7z M196.9,50.3L196.9,50.3z
		 M247.6,124.6L247.6,124.6z M241.1,101.6L241.1,101.6z M249,123.1l0.1-0.2C249.1,123,249,123,249,123.1z M191.8,52.7L191.8,52.7z
		 M193.6,51.6L193.6,51.6z M169.9,134.2L169.9,134.2z M199,144L199,144v-0.1V144z M170.9,99.4L170.9,99.4z M166.1,111
		C166.1,111.1,166.1,111.1,166.1,111L166.1,111z M189.4,29.2L189.4,29.2z M166.9,108.6L166.9,108.6z M200.7,49.2l0.1-0.1L200.7,49.2
		z M195.1,141.4L195.1,141.4z M241.2,99.8L241.2,99.8z M199.2,142.5v0.2V142.5z M165.6,121L165.6,121z M241.2,119.9
		C241.2,120,241.2,120,241.2,119.9C241.2,120,241.2,119.9,241.2,119.9z M232.4,50.9L232.4,50.9z M161.9,64.9L161.9,64.9z M158.2,104
		L158.2,104z M240.3,121.6l-0.2,0.2L240.3,121.6z M238.2,128.4v0.1V128.4z"/>
	<path class="st1" d="M184.1,153.9c24.7,9.5,23.8-25.4,11.2-41.9c4,1.7,11.4,3.6,18-0.2c0.4-0.5,0.8-0.9,1.3-1.3l0,0
		c1.8-1.2,1.6-1,2.5-1.6c3.8-1.7,1.8,2.6,0.7,2.9c1.9,0.9,3.4,2.5,4,4.6c0.1-1.2,0.3-2.3,0.3-2.9l0.1,0.2c-2.2-2.2-2.4-4.3-1.8-5.2
		c2.3-1.2,1.4,1.5,1.8,1.9v0.1c1.9,2.5,2.2,5.9,0.6,8.7l-0.3,1.2c0.4,4.8-0.8,10,0.1,11.7c5.3,4.2,5.2,10.3,5.9,14.7
		c1.1,2,2.3,3.9,3.7,5.7c1.3,0.4,2.7,0.5,4.1,0.2c2.4-0.6,4.6-2,6.1-4c-1.1,0.3-1.9-1.9,0.7-4.9v-0.1c-0.1-1.9-0.4-3.8-0.9-5.6
		c-5.6-10.4,8.9-12.3,7.4-19.2v-0.2l-0.1-0.4c0,0.1,0.1,0.3,0.1,0.4c-3.1-7.1-12.1-7.9-9.2-15.2v-0.1v0.2c0.4-1,0.7-2,1-3l0,0
		c-3.1-5.3-1.9-9.3,0.4-12.4l0,0c0.5-0.8,1-1.7,1.5-2.5l0,0c0.5-0.6,0.6-1.5,0.3-2.2c-3.5-6.6-11.5-11.3-7.6-17.3
		c2.2-1.3,0.8,2,0.7,2.4c0,1.6,0.4,3.1,1.2,4.5c0.5,0.9,1.1,1.7,1.8,2.4l0.1,0.1c11.7,7.1,0,15,1.4,20.6
		c3.2,19.4,22.2,22.5,4.2,32.5l0.1-0.1c-0.6,0.5-1.1,1.1-1.5,1.7v0.1c-0.5,1.1-0.8,2.2-0.8,3.4c0,0.7,0.1,1.3,0.2,1.9l0,0
		c0.4,1.3,0.7,2.7,0.9,4.1l0,0v0.2v-0.2c0.1,1.1,0.2,2.1,0.2,3.2c0.3-3.7-0.4-7.3,1.8-8.8c-0.1-1.5,0-3,0.4-4.4c0.5,1.4,1.2,2.7,2,4
		c0-0.3,0.1-0.6,0.1-0.9c8.9-4.4,12.1-17,0.2-26.3c1.9-24.9,2.2-52.7-10.9-80.4l0.1,0.5c-5-9.5-14.5-15.7-25.1-16.5
		C187,17,139.5,25,150,68c-3.9,5-10.2,16.6-5.2,26.3c17.7,15.4-6.3,25.4,14.9,44.2c-0.7,8.2-12.3,7.5-23.2,7.9
		c1.3,1.3,2.7,2.6,4.1,3.8l16.3-1.6C154.2,159.5,166.4,176.7,184.1,153.9z M170.9,157.9c-3.2-3.7,1.6-19.5-0.9-23.6l0,0l-0.1-0.1
		c0.1,0,0.1,0.1,0.1,0.1c-8.9-16.1-3-34.4-12.7-49.3c-0.6-0.9-1.3-1.8-2-2.8c0.7,0.9,1.4,1.8,2,2.8
		C171.8,105.5,172.1,131.9,170.9,157.9L170.9,157.9L170.9,157.9z M176.8,154.7L176.8,154.7c-2.6,4.2-1-3.8,0.1-4.4
		c-0.2-6.7,1.9-10.2,2.7-12.8l-0.1-0.1c-0.1,0-0.1-0.1-0.2-0.2l0.1,0.1c-8.6-11.9-6-33.7-10.7-43.8c2.2,0.1,1.8,1.8,2.1,2.2
		c0-0.1,0-0.1-0.1-0.2c0.1,0.1,0.1,0.2,0.1,0.3s-0.1,0-0.1-0.1C175.9,118.1,184.1,137.2,176.8,154.7L176.8,154.7L176.8,154.7z
		 M187.1,139.7l-0.1,0.1L187.1,139.7c0.3-3.6-0.9-4.9-0.2-5.4v-0.1c0.1-5.9-5.2-7.2-3.9-10.6v0.1c0.4-1.1,0.3-1,0.3-0.8
		c-4.5-7.7-4.4-16.2-5-19.6c1.7,1.5,2.6,3.7,2.6,6C189.1,123.8,188.8,162.9,187.1,139.7L187.1,139.7L187.1,139.7z M193.9,134.9
		L193.9,134.9c0-0.4,0-0.8-0.1-1.2v0.2c-0.1-0.1-0.1-0.2-0.1-0.3l-0.1-0.1l0.1,0.1c-1-2.1-1.5-4.4-1.3-6.7v-0.1v0.1v-0.1
		c-0.8-6.8-8.7-13.4-5.1-18c1.9-0.4,1.6,1.6,1.3,2.4c3.7,9.4,6.8,19.6,6.9,26.7l0,0C199.8,153,192.2,141.5,193.9,134.9L193.9,134.9
		L193.9,134.9z M198.8,136.8v0.1c3.8,3.9,1.3,11.4,0.2,7.1v0.1v-0.2c-0.1-1.6-0.2-3.2-0.5-4.8l0,0c-1.4-8.2-4.9-17.1-3.3-23.3
		C197.6,122.5,198.8,129.6,198.8,136.8L198.8,136.8L198.8,136.8z M159.8,73.3c0.2,0.1,0,0.1,0.4-0.1c6.8,1,10.1-2.1,13.4-6.6
		c-1.4-0.2-0.5-1.4-0.2-1.4h1.2c1.7-2.6,3.7-5.1,5.7-7.4c4-0.6,8-1,12.1-1.1c0.2-1.6,1-3.1,2.4-4.1c-2.2,1-4,1.7-3.9,1.6
		c-7.4-0.5,9.7-6,10.1-7.5c3.4,0.4,1.2,2.2-2,3.9c3-0.7,6.1-1.3,9.2-1.8l0.2-0.2c0.1-0.5,0.3-1,0.5-1.4c-3-2.6-2.7-3.4-2.1-4
		c1.3,0.5,0.7,1.2,0.9,1.4v-0.2c0.7,0.6,1.3,1.2,1.8,1.8c0.1-0.2,0.2-0.4,0.4-0.6c1,0.3,1.9,0.7,2.7,1.4c1.2,0.5,2.4,1.2,3.4,2.2
		c2.4,1.1,4.7,2.4,6.9,3.9c-3.6-5.5-8-13.5-7.7-14.4c-4.5-3.2-11.9-6.2-10.5-8.4c11.9,3,15.4,14.4,20.7,22.1V52
		c0.7,1.7,1.2,3,1.5,3.9c9.7,9,8.3,19.7,2.5,27.1C221.6,107.1,197.6,134.8,159.8,73.3L159.8,73.3L159.8,73.3z M205.9,38.7v-0.2
		c0.1,0.5,0.3,1,0.5,1.5c2.4-2.3,4,1.2,4.4,2.3c13,5.8-9.9-0.8-5.9-5.2C206.3,37.7,205.6,38.5,205.9,38.7
		C205.9,38.7,205.9,38.7,205.9,38.7z M226.9,124.3v0.2V124.3c-3.1,13-1.9-9.3-0.9-10.6c-0.1-0.5-0.3-1-0.6-1.4
		c-2.1-2.9-2.5-5.4-2-7.3c1.5,0.6,1.3,1.3,1.2,1.5v0.1c-0.1,0.8,0,1.6,0.5,2.3c1.3,2.2,1.3,2.1,1.5,2.6c0-0.1-0.1-0.1-0.1-0.2
		C229.3,117.1,225,120.3,226.9,124.3L226.9,124.3L226.9,124.3z M231.2,135.3l0.3,1.4v0.1c0.8,2.6,0.8,2.7,0.9,3.3l-0.1-0.3
		c0.5,1.8,0.7,3.7,0.5,5.6l0,0v1c-1.4,6.9-6.9-20.4-3-19.5c-0.1,0.1-0.1,0.2-0.2,0.3c8-7.6-3.2-13.3-0.1-19.6
		c-1.7-8.2-1.9-14.4,1.3-20.2c2.6-1.8,1.5,2.1,1.3,2.8c0,0,0-0.1,0.1-0.1c0,0.1,0,0.2-0.1,0.2v-0.1c-5.5,13.4,7.2,27.5,0.4,37.3
		l0.2-0.3C230.9,129.4,230.3,132.5,231.2,135.3L231.2,135.3L231.2,135.3z M237,109.7c0.3,1.1,0.9,2.1,1.7,2.8
		c12.8,7.2-3.1,13.8-1,20v1.1c1,4.3,2.4,7.2,1.3,9.6c0-0.1,0.1-0.2,0.1-0.3c-0.2,0.6-0.3,1.3-0.5,2l0,0c-1.9,4.4-2.9-1.7-1.6-2.8
		l0.3-1.8v-0.1c-4.5-9.5,1-15,4.1-21.1c-8.9-9.6-7.7-23.5-5.1-33.7v0.2c0.1-0.9,0-1.8-0.3-2.7l0,0c-0.8-3-3.2-4.1-2.1-5.7
		C241.3,86.7,235.4,99.8,237,109.7z M216,14.2c13.5,2.1,21.7,20.7,22.8,30.2l0.1-0.3c-1.3,4.9,4.9,9.8,1.4,13.4
		c-0.7,9.6,3.5,14.9,7.8,20.5v-0.1v0.2L248,78c-0.3,3.1-2.5-1.7-3.8-2l0.1,0.1l-0.2-0.1h0.2c-10.2-14.3-4.5-36.3-16.2-49.8
		C211.7,10.6,188.7,21.8,216,14.2C216,14.2,216,14.2,216,14.2z M204.1,24.4L204.1,24.4c4.1-1.3,4.7-2.5,6-2.8
		c12.4,8.5,19.6,17,22.4,29.3l0,0V51c0.1,0.2,0,0.1,0.1,0.2v-0.6c2.6,3.8,3.4,6.8,3.1,8.1c0.2,0.8,0.5,1.5,0.9,2.2
		c-7.3,0.2-12.4-30-18.2-31.9h-0.1c-7.4,3.4-4.2-7-8.4-5.5l0.2-0.1c-3.9,2-3.1,1.7-4.9,2.2l0,0h-0.1
		C198.9,25.7,200.4,20.3,204.1,24.4z M185.3,50.1c-10.7,7.3-17,16.8-14.7,12.5v0.2c2.9-11.6,19.2-17.5,25-20.8
		C200.8,45.1,186.6,50.5,185.3,50.1z M186.8,40.4c-24,14.3-18.9,28.8-20.3,21.5v0.2c-0.8-14.9,18-22.8,25-26.8
		C204.2,33.5,189.1,41.9,186.8,40.4z M189.3,29.8c-10.6,13.4-23.7,9.9-25.8,24.4l0,0c1.6,6.4-4.4,21.3-2.1,14.1l-0.1,0.2
		c0-0.1,0.1-0.1,0.1-0.2c0.1-0.6,0-1.2-0.3-1.8l0.1,0.2c-0.3-11.4,1.4-20.8,6.1-24.8l0,0c2.5-2.1,3.3-2.3,4-2.3
		c6.5-3.3,11.1-7.2,15.3-9.7l0,0c2-1.3,4.2-2.2,6.5-2.6C201.1,27.3,190.2,32.1,189.3,29.8C189.3,29.8,189.3,29.8,189.3,29.8z
		 M156.1,113.8c4-13-1.8-15.2-7.9-26.9c7.4-19,0.7-51.5,21.3-54.8c3.2-6.4,7.3-6.1,9.9-5.6h-0.1l-0.2-0.1l0.2,0.1
		c4.1-1.5,6.8-8.6,8.8-7.2c7.5-0.7,7.2,4.1,2.3,1.9c-1-0.1-2,0.1-2.8,0.6c-2.9,1.7-2.5,2.4-3.1,3.4c-1.7,8.6-9.2,0.8-11.4,6.4l0,0
		l-0.1,0.1v-0.1c-13.1,6.4-6.9,9-13.5,12.5l0,0c-4.3,9.7-2.1,16.2-1.8,25.5c-5.9,9.6-8.4,14.8-0.4,25.1c8.6,10.1-3.9,25.6,4.2,33.6
		c-0.1-0.1-0.1-0.2-0.2-0.4c7.7,9.4,2.1,24.8,2.8,30.1c-8.7-6.8,0.2-16.1-1.9-22.4C159,127.7,150,120.8,156.1,113.8L156.1,113.8z"/>
	<path class="st1" d="M164.3,157.9L164.3,157.9z M166.8,127.7L166.8,127.7z M171.3,154L171.3,154z M169.7,149.8c0,0,0,0.1,0.1,0.1
		L169.7,149.8z M170.4,137.2c0-0.1,0,0,0.1-0.2C170.5,137.1,170.5,137.2,170.4,137.2z M165.5,135.4l-0.1-0.1
		C165.4,135.3,165.4,135.4,165.5,135.4z"/>
	<path class="st1" d="M165.4,135.3v-0.1V135.3z M160.5,89.4L160.5,89.4z M171.6,147.6l0.1-0.2C171.7,147.4,171.6,147.5,171.6,147.6z
		 M171.7,141.8l0.1,0.1L171.7,141.8z M172.7,139.5L172.7,139.5z M175.4,154.1L175.4,154.1z M179.9,137.7L179.9,137.7z M187.1,145.9
		L187.1,145.9z M188.1,143.1v0.1V143.1z M188.2,142.6v-0.1V142.6z M188.3,136.5l0.1-0.2C188.4,136.3,188.4,136.4,188.3,136.5
		L188.3,136.5z M197.6,134.7v-0.2V134.7z M214.3,110.7l0.1-0.1L214.3,110.7z M160.5,69L160.5,69z M166.2,64.5L166.2,64.5z
		 M202.1,46.5L202.1,46.5z M205.2,32.3L205.2,32.3z M231.4,124.6l0.1-0.2L231.4,124.6z M238.4,145.2v-0.1V145.2z M235.3,78.7
		c0-0.1,0-0.1-0.1-0.2C235.2,78.6,235.2,78.7,235.3,78.7z M235.8,48.8L235.8,48.8l-0.1-0.2l-0.1-0.1l0.1,0.1L235.8,48.8z M232.5,49
		v0.2V49z M231.1,30.6L231.1,30.6z M231,30.5l-0.2-0.2L231,30.5z M194.8,34.8L194.8,34.8z M161.2,68.5L161.2,68.5z M164.6,45
		L164.6,45z M173.2,31.3l0.1-0.1L173.2,31.3z M186.1,30l0.2-0.1C186.2,29.9,186.2,30,186.1,30z M186.5,29.8L186.5,29.8z M195.2,27.3
		l-0.2-0.1h-0.1L195.2,27.3z M157.4,60.6v-0.2V60.6z M218,29L218,29z M236.4,144.1v0.1V144.1z M186.4,29.9L186.4,29.9z M155.5,54.5
		L155.5,54.5z M161.8,57.3L161.8,57.3z M239.2,52.4L239.2,52.4z M236.4,93.2L236.4,93.2z M237.2,140.2v0.3V140.2z M236,102.1
		L236,102.1z M154.4,62L154.4,62z M154.5,62.2L154.5,62.2z M152.2,81.1l-0.1,0.1L152.2,81.1z M163.6,50.2L163.6,50.2z M235.9,82.9
		L235.9,82.9z M162,56.1L162,56.1z M158.1,103.7l-0.1-0.1L158.1,103.7z M237.7,132.7v-0.1V132.7
		C237.7,132.8,237.7,132.8,237.7,132.7z M237.6,133.8L237.6,133.8z M191.5,46.9L191.5,46.9z M161.3,61.5L161.3,61.5
		C161.3,61.4,161.3,61.5,161.3,61.5z M179.7,54.1l-0.2,0.1L179.7,54.1z M185.3,50.1L185.3,50.1z M185.4,50.1L185.4,50.1z
		 M174.3,56.9L174.3,56.9z M172.3,59L172.3,59z M187.1,40.1l-0.1,0.1C187,40.1,187.1,40.1,187.1,40.1z"/>
	<path class="st1" d="M187.1,40.2H187H187.1z M168.1,54.4L168.1,54.4z M191.1,47.1L191.1,47.1z M185.5,50L185.5,50z M185.6,49.9
		L185.6,49.9z M186.8,46.8l-0.2,0.1L186.8,46.8z M172.3,59C172.2,59.1,172.3,59.1,172.3,59L172.3,59z M222.7,33.6v0.2V33.6z
		 M222.2,34.1L222.2,34.1z M219,29.1L219,29.1z M193.4,37.7h-0.2H193.4z M204.2,24.3H204H204.2z M225.4,38.7L225.4,38.7z
		 M229.1,47.5L229.1,47.5z M172.4,59L172.4,59z M191.7,38.8l-0.2,0.2L191.7,38.8z M172.2,59.1L172.2,59.1z M188.5,37.3L188.5,37.3z
		 M170.7,63L170.7,63z M157.1,111.9l-0.1,0.3C157,112,157,112,157.1,111.9z M164.7,45.4L164.7,45.4z M164.5,45.6L164.5,45.6z
		 M206,40.2L206,40.2z M166.9,44.5C166.9,44.6,166.9,44.5,166.9,44.5L166.9,44.5z M159.4,108.7L159.4,108.7z M207.6,40.8L207.6,40.8
		z M159.5,40.6l0.2-0.1L159.5,40.6z M226,120.8L226,120.8z"/>
	<path class="st1" d="M164.2,36.2l0.1-0.1L164.2,36.2z M159.7,40.5l0.2-0.1L159.7,40.5z M225,123.8L225,123.8z M186.4,32.5
		L186.4,32.5z M182.2,35.8L182.2,35.8z M177.9,38.9h-0.1H177.9z M178.4,38.7L178.4,38.7z M156.4,65.9L156.4,65.9z M213.1,44
		L213.1,44z M189.4,29.5C189.3,29.5,189.3,29.5,189.4,29.5L189.4,29.5z M171.4,39.7L171.4,39.7z M168.5,41L168.5,41z M175,37.8
		L175,37.8z M174.3,40.1l-0.1,0.1C174.3,40.2,174.3,40.1,174.3,40.1z M176.7,28.6c0.1,0,0.2,0,0.3-0.1L176.7,28.6z M231,142.4
		L231,142.4z M230.8,132.4v0.1V132.4z M156.4,65.3L156.4,65.3z M230.5,97.7v0.2V97.7z M231.2,93.7c0-0.1,0-0.1,0.1-0.2L231.2,93.7z
		 M231.6,137v-0.3V137z M155.8,50.2L155.8,50.2z M155.6,54.2L155.6,54.2z M229.9,61.4c3,1.6,2.7,11.3-0.6,21.7
		c5.8-7.4,7.2-18.2-2.5-27.1c1.4,4.2-1,1.4-3.9-3.1c-2.2-1.5-4.5-2.8-6.9-3.9C220.3,53,222.5,60.2,229.9,61.4z M208.2,48.7
		c-3.1,0.4-6.2,1-9.2,1.8l-4.2,2c-1.3,1-2.2,2.5-2.4,4.1C198.1,56,203.6,54.6,208.2,48.7L208.2,48.7z M244.3,143.3
		c0,3.7-1,5.3-1.9,5.5c-1.5,2-3.7,3.4-6.1,4c-1.4,0.2-2.8,0.1-4.1-0.2c5.6,7,11.6,6.4,15.4-13.3c-0.9-1.4-1.4-3-1.5-4.7
		C243.9,136,244.6,139.6,244.3,143.3L244.3,143.3z M222.6,132.1c-0.9-1.7,0.3-6.9-0.1-11.7c-2.6,12-1.4,1.9-0.8-4
		c-0.6-2-2.1-3.7-4-4.6c1.1-0.4,3.1-4.6-0.7-2.9c-1,0.6-0.7,0.4-2.5,1.6c-0.5,0.4-0.9,0.9-1.3,1.3c1.4-0.8,2.7-1.7,3.8-2.9
		c-0.9,4.7,4.5,25.3,11.4,37.8C227.8,142.4,227.9,136.3,222.6,132.1L222.6,132.1z M221.6,124.4L221.6,124.4z"/>
	<path class="st1" d="M214.5,110.6h0.1H214.5z M242.8,148.4L242.8,148.4z M214.4,110.6l-0.1,0.1L214.4,110.6z M210.1,48.3
		c-0.1-0.2-0.2-0.4-0.4-0.6l0,0c-0.2-0.1-0.3-0.2-0.4-0.4c-0.3,0.4-0.5,0.8-0.8,1.1v0.2L210.1,48.3L210.1,48.3z M209.6,47.6
		L209.6,47.6z M209.9,46.3c0.5,0.5,1,1.1,1.4,1.6c0.4-0.1,0.7-0.3,1.1-0.5l1.5,0.6c-0.4-0.5-0.8-0.9-1.2-1.3
		c-0.8-0.3-1.7-0.6-2.6-0.7C210,46.2,209.9,46.2,209.9,46.3z M212.5,52.4v-0.2V52.4z"/>
	<path class="st1" d="M208.4,48.6c-0.7,4,2.3,8.1,0.8,17.6l0,0l0.1,0.1c1.3,1,2.9,1.3,4.5,1c-2.4-8.4-0.2-13.2-3.7-19
		C209.6,48.4,209,48.5,208.4,48.6L208.4,48.6z M211.3,47.9c1.4,1.7,2.1,3.2,1.2,4.4c4.8,7.4,0,9.9,2.2,14.6l0,0
		c1.9-3.8,3.2-13.8-0.9-18.9l-1.5-0.6C212,47.6,211.7,47.8,211.3,47.9z M215.1,53.3L215.1,53.3z M215,53.3L215,53.3z"/>
	<path class="st1" d="M215.1,53.3L215.1,53.3z M214.3,67.2L214.3,67.2c0.1-0.1,0.2-0.2,0.3-0.2L214.3,67.2z M213.2,58.9L213.2,58.9z
		 M215,53.3L215,53.3z M211,49.3L211,49.3C211,49.4,211,49.3,211,49.3z M210,46.1c0.9,0.1,1.8,0.3,2.6,0.7c-0.8-0.6-1.7-1.1-2.7-1.4
		c-0.1,0.2-0.3,0.4-0.4,0.6l0.4,0.4C209.9,46.2,209.9,46.2,210,46.1L210,46.1z M208.9,47c-0.2,0.5-0.4,0.9-0.5,1.4l0.8-1.1
		C209.2,47.3,208.9,47,208.9,47z M210.3,67.1L210.3,67.1z M214.2,67.3L214.2,67.3z M214.3,67.3L214.3,67.3z M213.8,67.5L213.8,67.5z
		"/>
	<path class="st1" d="M213.8,67.6L213.8,67.6L213.8,67.6L213.8,67.6z M216.5,67.9L216.5,67.9z M211.5,69.6L211.5,69.6h-0.3H211.5z
		 M211.7,69.6L211.7,69.6z M212.9,69.5L212.9,69.5z M216,70.6L216,70.6c0.3,0.2,0.7,0.2,1-0.1C216.7,70.5,216.3,70.5,216,70.6z"/>
	<path class="st1" d="M211.7,69.6L211.7,69.6c-0.1,0.2-0.1,0.3-0.1,0.4c0.8,0.7,0.7,0.7,4.1,0.6h0.3c-2,0.1-0.1-1.2,0.5-1.5h-1
		c-0.8,0-0.8,0.3-2.4,0.4l0,0C212.7,69.5,212.5,69.5,211.7,69.6L211.7,69.6L211.7,69.6z M211.6,69.6L211.6,69.6z M215.4,70.7
		L215.4,70.7z M183.9,78.5L183.9,78.5z M181.5,79.7l0.1-0.1L181.5,79.7C181.6,79.6,181.6,79.6,181.5,79.7z M191.5,84.4v0.2V84.4z"/>
	<path class="st1" d="M174.8,66.6L174.8,66.6c2.5,0.2,4.9,0.6,7.2,1.5l0,0l0.2,0.1h-0.1c1.4,0.6,2.6,1.5,3.6,2.7l0,0l0.1,0.1
		l-0.1-0.1c1,1.3,1.9,2.7,2.6,4.2V75c0,0.1,0.1,0.1,0.1,0.2l-0.1-0.1c1.7,3.6,2.9,7.4,3.6,11.4v-0.1c0.4,1.7-0.2,4.5,1.1,7.6
		c4.4,7.7,22.3-6.5,6.9,0.5l0.2,0.1l-0.2-0.1h0.1c-1.5-1-5.8-0.4-5.9-4.8v-0.2c-0.1-0.4-0.2-0.8-0.2-1.3v0.2
		c-0.1-0.6-0.2-1.1-0.3-1.6l0,0v-0.2v0.2c-0.1-0.6-0.1-0.3-0.6-2.8v0.2c-0.9-3.8-2.2-7.5-3.9-11l0,0c-2.1-4.9-7.1-8-12.4-7.8l0,0
		c-0.3,0-0.9-0.1-1.9-0.2c-0.4,0.5-0.7,1-1.1,1.5C174.1,66.6,174.5,66.6,174.8,66.6L174.8,66.6z M205.1,93.2L205.1,93.2z
		 M201.2,94.5L201.2,94.5z M201.1,94.5L201.1,94.5z M197.5,95.3L197.5,95.3z M191.5,84.6v-0.2V84.6z M189.9,74.9L189.9,74.9z
		 M189,76.3L189,76.3z M177,66.8L177,66.8z M176.4,65.3h-0.1H176.4z"/>
	<path class="st1" d="M193,93.9L193,93.9z M185.6,70.7L185.6,70.7z M182.1,68.1L182.1,68.1z M174.9,66.6L174.9,66.6z"/>
	<path class="st1" d="M193.9,89.5L193.9,89.5z M193,93.9c0,0,0-0.1-0.1-0.2v-0.1C193,93.8,193,93.9,193,93.9z M188.2,74.8
		C188.2,74.8,188.2,74.9,188.2,74.8l0.1,0.2C188.3,75,188.3,74.9,188.2,74.8z M193.4,86.7L193.4,86.7v-0.2V86.7z M200,94.4l-0.2-0.1
		h-0.1L200,94.4z M193.9,89.4L193.9,89.4z M173.4,65.2c-0.3,0-1.2,1.2,0.2,1.4l1-1.5C174.3,65.1,173.9,65.1,173.4,65.2z M199.2,99.1
		L199.2,99.1c-25.7-1.8,15.1,16.5,13.4-4.3C209.2,96.3,206.6,95.4,199.2,99.1z M195.7,100.4L195.7,100.4z"/>
	<path class="st1" d="M197.1,104.3L197.1,104.3z"/>
	<path class="st1" d="M197.1,104.3l-0.2-0.1L197.1,104.3z M202.3,97.4L202.3,97.4z M259.2,144.1L259.2,144.1l-0.1-0.2L259.2,144.1z
		 M249.8,136.1c-0.5-0.6-0.9-1.3-1.4-1.9c-0.1,0.4-0.1,0.8-0.2,1.1L249.8,136.1L249.8,136.1z"/>
	<path class="st1" d="M247.6,139.2c2.2,3.3,5.3,5.9,8.9,7.6c0.9-0.9,1.8-1.8,2.7-2.8l-0.1-0.2c-3.6-2-6.7-4.6-9.3-7.8l-1.5-0.8
		C248.1,136.7,247.9,138,247.6,139.2z M254.1,141.6l-0.1-0.1L254.1,141.6z"/>
	<path class="st1" d="M246.1,134.6l0.3-0.2c0.7,0.3,1.3,0.6,1.9,1c0.1-0.4,0.1-0.8,0.2-1.1c-0.8-1.3-1.5-2.6-2-4
		C246.1,131.6,246,133.1,246.1,134.6z"/>
	<path class="st1" d="M246.4,134.4l-0.3,0.2c0.2,1.7,0.7,3.3,1.5,4.7l0.7-3.9C247.7,135,247,134.7,246.4,134.4z"/>
</g>
<g>
	<path class="st4" d="M184.4,25L184.4,25z M187.5,21.6L187.5,21.6z M156.1,113.7L156.1,113.7z M173.2,31.2l-0.1,0.1L173.2,31.2z
		 M179.3,26.3l-0.2-0.1L179.3,26.3z M162,152.4v-0.1V152.4z M173.1,31.4L173.1,31.4C173.1,31.4,173.1,31.5,173.1,31.4L173.1,31.4z
		 M154.5,62.2L154.5,62.2z"/>
	<path class="st4" d="M164.2,157.9c-0.6-5.3,4.9-20.7-2.8-30.1c0.1,0.1,0.1,0.3,0.2,0.4c-8.2-8,4.4-23.5-4.2-33.6
		c-8-10.3-5.5-15.6,0.4-25.1c-0.4-9.3-2.5-15.8,1.8-25.5l0,0c6.5-3.5,0.4-6.1,13.5-12.5c2.1-5.6,9.6,2.1,11.4-6.4l0,0
		c0.6-1,0.2-1.8,3.1-3.4h0.1c0.8-0.5,1.8-0.7,2.8-0.6l0,0c4.9,2.2,5.2-2.6-2.3-1.9c-2-1.4-4.7,5.7-8.8,7.2h0.1
		c-2.6-0.5-6.7-0.8-9.9,5.6c-20.7,3.4-14,35.9-21.4,54.9c6.1,11.6,11.9,13.9,7.9,26.9l0,0c-6,7,2.9,14,6.2,21.7
		C164.4,141.8,155.5,151.1,164.2,157.9z M161.8,152.2l0.1,0.1C161.9,152.3,161.9,152.2,161.8,152.2L161.8,152.2z M161.9,152.3v0.1
		V152.3z M164,145.3l-0.1,0.3C164,145.5,164,145.4,164,145.3L164,145.3z M159.4,108.6L159.4,108.6z M159.3,99.6l-0.1-0.1L159.3,99.6
		z M177,28.6l-0.3,0.1L177,28.6z M164.3,36.1c0,0,0,0.1-0.1,0.1L164.3,36.1z M159.9,40.4l-0.2,0.1L159.9,40.4z M159.7,40.5l-0.2,0.1
		L159.7,40.5z M156.5,65.8L156.5,65.8z M156.5,65.4L156.5,65.4z M155.8,50.2L155.8,50.2z M155.7,54.2L155.7,54.2z M155.6,54.6
		L155.6,54.6z M154.9,68.9l-0.1-0.1L154.9,68.9z M154.6,62.2L154.6,62.2z M154.6,62.2L154.6,62.2z M154.6,62.1L154.6,62.1
		C154.6,62.1,154.6,62,154.6,62.1L154.6,62.1z M152.1,81.2l0.1-0.1L152.1,81.2z M156.6,124.6l0.1,0.1
		C156.6,124.7,156.6,124.6,156.6,124.6L156.6,124.6z M157,111.5L157,111.5z M157,112.1c0-0.1,0-0.2,0.1-0.3L157,112.1z M158.1,104.1
		l0.1-0.2L158.1,104.1z M158.1,103.6L158.1,103.6z M158.2,104L158.2,104z"/>
	<path class="st4" d="M157.4,60.4v0.2V60.4z M165.3,135.2v0.1C165.3,135.2,165.4,135.2,165.3,135.2z M158.1,103.9l-0.1,0.2
		L158.1,103.9z M163.9,145.6c0-0.1,0,0,0.1-0.3C164,145.4,164,145.5,163.9,145.6z M169.9,134.2L169.9,134.2c2.6,4.2-2.3,19.9,1,23.6
		c1.2-26,0.8-52.4-13.6-73C167,99.8,161,118.1,169.9,134.2z M166.9,108.7L166.9,108.7z M166.9,108.5L166.9,108.5z M166.1,111.1
		L166.1,111.1C166.1,111,166.1,111,166.1,111.1z M166.1,111.1c0-0.1,0-0.1-0.1-0.2C166.1,111,166.1,111,166.1,111.1z M166,119
		L166,119z M165.6,120.7L165.6,120.7z M165.6,120.9L165.6,120.9z M165.6,120.9L165.6,120.9C165.6,121,165.6,121,165.6,120.9z
		 M164.6,99.1L164.6,99.1z M162.8,94.7L162.8,94.7z M171.3,153.9L171.3,153.9z M171.7,147.4l-0.1,0.2
		C171.6,147.5,171.7,147.4,171.7,147.4z M157.3,84.9l-2-2.8L157.3,84.9z"/>
	<path class="st4" d="M169.8,150c0,0,0-0.1-0.1-0.1L169.8,150z M170.5,137c-0.1,0.2,0,0.1-0.1,0.2
		C170.5,137.2,170.5,137.1,170.5,137z M169.8,134.1l0.1,0.1L169.8,134.1z M168.8,93.6c4.6,10,2,31.8,10.6,43.8l0.1,0.1v-0.1
		c-0.8,2.5-2.9,6-2.7,12.8l0.1-0.1l-0.1,0.1c-1.1,0.6-2.7,8.6-0.1,4.4c7.3-17.5-0.9-36.5-5.9-58.9C170.6,95.4,171,93.7,168.8,93.6
		L168.8,93.6z M178.1,147.3v0.1V147.3z M179.2,144.3l0.1,0.1C179.3,144.4,179.3,144.3,179.2,144.3L179.2,144.3z M170.9,99.1v0.2
		V99.1z M174.8,124.8v-0.2V124.8z M178.8,133.4L178.8,133.4z M174.9,116.7l-0.1-0.1L174.9,116.7z M174.8,124.6L174.8,124.6z
		 M174.8,116.5v-0.2V116.5z M174.8,124.5l-0.1-0.1L174.8,124.5z M174.1,121.3L174.1,121.3z M174,121.4l-0.1,0.2L174,121.4z
		 M173,113.6L173,113.6C173,113.7,173,113.7,173,113.6z M172.7,106.2L172.7,106.2z M171,99.5L171,99.5z"/>
	<path class="st4" d="M176.9,150.1L176.9,150.1z M170.9,95.6v0.2c0,0.1,0.1,0.1,0.1,0.1C170.9,95.8,170.9,95.7,170.9,95.6z
		 M179.3,137.2l0.1,0.2L179.3,137.2z M179.5,137.4L179.5,137.4z M176.8,154.6L176.8,154.6z M175.5,154L175.5,154z M179.9,137.8
		L179.9,137.8z M188.4,136.3l-0.1,0.2C188.4,136.4,188.4,136.3,188.4,136.3z M187.1,145.8L187.1,145.8z M186.9,134.3L186.9,134.3z
		 M188.2,142.4v0.1V142.4z M187,139.8l0.1-0.1L187,139.8z M187.1,139.6L187.1,139.6z M187.5,138.8L187.5,138.8z M180.9,109.5v-0.2
		V109.5z"/>
	<path class="st4" d="M180.9,109.5v-0.2c0-2.3-0.9-4.5-2.6-6c0.5,3.3,0.4,11.8,5,19.6c0.1-0.1,0.1-0.3-0.3,0.8l0,0
		c-1.4,3.4,3.9,4.7,3.9,10.6l0,0c0,0.1,0,0-0.1,0.3c0-0.1,0-0.1,0.1-0.2c-0.6,0.5,0.5,1.8,0.2,5.4l0,0v-0.1v0.1
		C188.9,163,189.1,123.9,180.9,109.5L180.9,109.5z M179.1,107.5l0.1,0.1L179.1,107.5z M179.2,107.6L179.2,107.6z M179.2,107.5
		L179.2,107.5C179.2,107.6,179.2,107.6,179.2,107.5z M179.2,107.7L179.2,107.7z M179.2,107.7L179.2,107.7z M179.4,105.3L179.4,105.3
		z M187.4,138.7L187.4,138.7z M187.4,139.1L187.4,139.1z M185.4,128.4L185.4,128.4z M185.4,128.5L185.4,128.5z M185.3,126L185.3,126
		z M184,120.7c0,0,0-0.1-0.1-0.1C184,120.6,184,120.6,184,120.7z M181.4,114.4L181.4,114.4z M188.1,143.2v-0.1V143.2z M192.4,126.9
		L192.4,126.9z M192.4,127L192.4,127z"/>
	<path class="st4" d="M195.5,137.9L195.5,137.9c-0.1-7.1-3.2-17.3-6.9-26.7c0,0.1-0.1,0.2-0.1,0.3l0.1-0.3c0.3-0.8,0.5-2.7-1.3-2.4
		c-3.7,4.6,4.2,11.3,5,18v0.1v-0.1v0.2c0,0.1,0,0,0-0.1l0,0c-0.2,2.3,0.3,4.6,1.3,6.7l0,0l0.1,0.3v-0.2c0.1,0.4,0.1,0.8,0.1,1.1
		v-0.1v0.2C192.2,141.4,199.8,153,195.5,137.9L195.5,137.9L195.5,137.9z M188.8,117.2L188.8,117.2
		C188.8,117.3,188.8,117.3,188.8,117.2z M188.8,117.3L188.8,117.3z M188.8,117.4L188.8,117.4z M191.5,121.4L191.5,121.4z
		 M191.7,121.5L191.7,121.5z M192.4,126.8L192.4,126.8z M193.7,133.6L193.7,133.6z M193.7,133.6L193.7,133.6z M194.1,129.8
		L194.1,129.8z M194.1,131.3L194.1,131.3z M194.7,140.7l0.1,0.1L194.7,140.7z M195,141.3L195,141.3z M196.7,144.2L196.7,144.2z
		 M196.7,144.1L196.7,144.1z"/>
	<path class="st4" d="M194.1,129.8L194.1,129.8z M192.5,126.8L192.5,126.8z M192.4,126.9L192.4,126.9
		C192.4,126.8,192.4,126.9,192.4,126.9L192.4,126.9z M195.5,137.7L195.5,137.7z M195.5,137.8L195.5,137.8z M195.5,137.9L195.5,137.9
		z M188.5,111.4c0-0.1,0.1-0.2,0.1-0.3l0,0L188.5,111.4z M198.9,144.2v-0.1V144.2z M198.5,139.2L198.5,139.2
		c0.3,1.6,0.5,3.2,0.5,4.8v-0.1v0.2c1.1,4.3,3.6-3.2-0.2-7.1v0.1v-0.2c0.1-7.2-1.1-14.3-3.6-21C193.6,122.1,197.1,131,198.5,139.2z
		 M199.2,142.7v-0.2V142.7z M198.6,139.4v-0.1C198.6,139.2,198.6,139.3,198.6,139.4z M196.2,125.8L196.2,125.8z"/>
	<path class="st4" d="M198.8,136.9L198.8,136.9z M197.6,134.6v0.1V134.6z M186.4,29.9L186.4,29.9z M195.2,27.3l-0.3-0.1h0.1
		L195.2,27.3z M186.5,29.8L186.5,29.8z M160.5,69L160.5,69z M164.6,44.9L164.6,44.9z M161.3,68.4L161.3,68.4z M186.3,30l-0.2,0.1
		L186.3,30z M171.3,39.7h-0.2H171.3z M163.6,50.1v0.2V50.1z M163.5,50.2L163.5,50.2z"/>
	<path class="st4" d="M186.4,29.9L186.4,29.9c-4.2,2.5-8.8,6.4-15.3,9.7h0.2H171c-0.6-0.1-1.4,0.2-4,2.3l0,0
		c-4.7,3.9-6.4,13.4-6.1,24.8c0-0.1-0.1-0.1-0.1-0.2c0.3,0.5,0.4,1.2,0.4,1.8v-0.1v0.1c0,0.1,0,0.1-0.1,0.2l0.1-0.2
		c-2.4,7.2,3.7-7.7,2.1-14.1l0,0c2.1-14.6,15.2-11,25.8-24.4c0.9,2.3,11.8-2.5,3.7-2.5C190.6,27.7,188.4,28.6,186.4,29.9L186.4,29.9
		z M161.3,61.4L161.3,61.4C161.3,61.5,161.3,61.4,161.3,61.4z M161.7,57.3L161.7,57.3z M161.9,65L161.9,65z M162,56L162,56z
		 M163.5,53.6L163.5,53.6z M163.5,50.2L163.5,50.2z M163.6,50.3v-0.2V50.3z M163.6,50.3L163.6,50.3z M164.4,45.7L164.4,45.7z
		 M164.6,45.5L164.6,45.5z M166.8,44.6L166.8,44.6z M168.4,41.1L168.4,41.1z M174.2,40.2l0.1-0.1C174.3,40.2,174.3,40.2,174.2,40.2z
		 M174.8,37.8L174.8,37.8z M177.8,39L177.8,39z M178.3,38.8L178.3,38.8z M182.2,35.8L182.2,35.8z M186.4,32.5L186.4,32.5z
		 M189.3,29.5L189.3,29.5z M189.4,29.3L189.4,29.3z M191.4,28.1l0.1-0.1L191.4,28.1z M194,29.2L194,29.2z M193.9,29.2L193.9,29.2z"
		/>
	<path class="st4" d="M161.4,68.2L161.4,68.2z M166.2,64.4L166.2,64.4z M191.5,35.2c-7,4-25.8,11.9-25,26.8v-0.2
		c1.4,7.3-3.7-7.2,20.3-21.5C189.1,41.9,204.2,33.5,191.5,35.2z M168.1,54.5L168.1,54.5C168.1,54.4,168.1,54.4,168.1,54.5z
		 M179,45.5L179,45.5z M187,40.3L187,40.3z M187,40.2l0.1-0.1C187.1,40.1,187,40.1,187,40.2z M188.4,37.3L188.4,37.3z M188.7,37.2
		l0.2-0.1L188.7,37.2z M191.5,39.1l0.2-0.2C191.6,38.9,191.5,39,191.5,39.1L191.5,39.1z M193.3,37.7L193.3,37.7z"/>
	<path class="st4" d="M188.9,37.2l-0.2,0.1L188.9,37.2z M195.6,41.9c-5.8,3.3-22.1,9.2-25,20.8v-0.2c-2.4,4.4,4-5.1,14.7-12.5
		C186.6,50.5,200.8,45.1,195.6,41.9z M170.6,63L170.6,63z M172.4,58.9L172.4,58.9z M172.3,59L172.3,59z M172.2,59.1L172.2,59.1z
		 M172.3,59L172.3,59z M173.6,57.1L173.6,57.1z M174.2,57L174.2,57z M178,55.6L178,55.6z M179.5,54.2l0.2-0.1L179.5,54.2z
		 M185.3,50.1L185.3,50.1z M185.4,50.1L185.4,50.1z M185.4,50L185.4,50z M186.6,47l0.2-0.1L186.6,47z M190.9,47.3L190.9,47.3z
		 M191.4,47L191.4,47z"/>
	<path class="st4" d="M178,55.5L178,55.5z M172.4,59L172.4,59z M201.1,46.5c-0.4,1.6-17.5,7-10.1,7.5c-0.2,0.1,1.6-0.6,3.9-1.6
		c1.3-0.9,2.7-1.6,4.2-2C202.3,48.7,204.5,46.9,201.1,46.5L201.1,46.5z M200.8,49.1l-0.1,0.1L200.8,49.1z M191.8,52.7L191.8,52.7z
		 M193.5,51.6L193.5,51.6z M197.1,50.3L197.1,50.3z"/>
	<path class="st4" d="M194.8,52.5l4.2-2C197.5,50.9,196.1,51.5,194.8,52.5z M235.8,48.7l-0.1-0.2L235.8,48.7z M240.2,57.6
		L240.2,57.6c0.1-0.2,0.1-0.2,0.1-0.3C240.3,57.4,240.2,57.5,240.2,57.6z M235.9,34.6L235.9,34.6z"/>
	<path class="st4" d="M228.1,26.2L228.1,26.2c11.7,13.6,6,35.5,16.2,49.8c1.3,0.3,3.4,5.1,3.8,2c-4.3-5.6-8.5-10.9-7.8-20.5
		l-0.1,0.1c0-0.1,0-0.2,0.1-0.3v0.2c3.5-3.7-2.7-8.5-1.4-13.4l-0.1,0.3c-1.1-9.5-9.4-28.1-22.8-30.2
		C188.7,21.8,211.7,10.6,228.1,26.2z M242.9,72.9L242.9,72.9z M242.8,72.8l-0.1-0.1L242.8,72.8z M240.6,66.3l-0.1-0.1L240.6,66.3z
		 M239.2,52.3L239.2,52.3C239.2,52.4,239.2,52.4,239.2,52.3L239.2,52.3z M239.2,52.1L239.2,52.1z M235.9,34.5L235.9,34.5z M228,26.1
		l-0.1-0.1L228,26.1z M219.9,18.2L219.9,18.2z"/>
	<path class="st4" d="M228.1,26.2L228.1,26.2z M248.1,77.9L248.1,77.9l0.1,0.2L248.1,77.9z M235.7,48.6l-0.1-0.1
		C235.6,48.4,235.6,48.4,235.7,48.6z M244.4,76.2l-0.1-0.1h-0.2L244.4,76.2z M243.1,143.9L243.1,143.9
		C243.1,143.8,243.1,143.9,243.1,143.9z M243.7,130.7L243.7,130.7z M249.6,119v-0.2V119z M242.3,138.2v0.2V138.2z M245.3,128.9
		L245.3,128.9z M239.6,75.9l-0.1-0.1L239.6,75.9z M244.1,140.1L244.1,140.1v0.2V140.1z M243.4,83.6L243.4,83.6v0.2V83.6z
		 M242.9,134.1L242.9,134.1v-0.2V134.1z M236.5,69L236.5,69z M237.8,73.6l-0.1-0.2c0,0,0-0.1-0.1-0.1L237.8,73.6L237.8,73.6z"/>
	<path class="st4" d="M242.8,148.3L242.8,148.3c0.9-1.5,1.4-3.2,1.5-5c0-1.1-0.1-2.1-0.2-3.2c-0.2-1.4-0.5-2.8-0.9-4.1l0,0
		c-0.2-0.6-0.2-1.3-0.2-1.9l0,0v-0.2v0.2c0-1.2,0.3-2.4,0.8-3.4l0.1-0.1l-0.1,0.1c0.4-0.6,0.9-1.2,1.5-1.7l-0.1,0.1
		c18-10-1-13.1-4.2-32.5C239.6,91,251.3,83,239.6,76l0,0l-0.2-0.2c-0.7-0.7-1.3-1.5-1.8-2.4l0.1,0.2c0-0.1-0.1-0.2-0.1-0.2
		s0,0.1,0.1,0.1c-0.8-1.4-1.2-2.9-1.2-4.5l0,0c0.1-0.5,1.6-3.8-0.7-2.4c-3.9,5.9,4.1,10.7,7.6,17.3v-0.1c0,0.1,0,0.2,0.1,0.2
		l-0.1-0.1c0.4,0.8,0.3,1.7-0.2,2.4l0,0c-0.5,0.8-1,1.7-1.5,2.5l0,0c-2.3,3.1-3.5,7-0.4,12.4v-0.1v0.2v-0.2c-0.3,1-0.6,2-1,3V104
		c-2.9,7.2,6.2,8.1,9.2,15.2c0-0.2-0.1-0.3-0.1-0.4l0.1,0.4c0,0.2,0,0.1,0.1,0.4v-0.2c1.6,7-12.9,8.9-7.4,19.3v-0.1v0.1
		c0.5,1.8,0.8,3.7,0.9,5.6v-0.1c0,0.1,0,0.1-0.1,0.2l0,0c-2.6,3-1.8,5.2-0.7,4.9c0.1-0.2,0.2-0.3,0.4-0.5L242.8,148.3L242.8,148.3z
		 M236.6,70.3L236.6,70.3z M241.6,80.1l0.1,0.1L241.6,80.1z M242.3,81.2L242.3,81.2z M241,99.3L241,99.3z M241.2,99.8L241.2,99.8z
		 M241.1,101.6L241.1,101.6z M242.7,106.5v0.2V106.5z M243.2,108.1l0.1,0.1C243.2,108.2,243.2,108.2,243.2,108.1L243.2,108.1z
		 M244.5,109.8l0.2,0.2L244.5,109.8z M249.1,122.9c0,0.1-0.1,0.1-0.1,0.2C249,123,249.1,123,249.1,122.9L249.1,122.9z M247.6,124.5
		L247.6,124.5z M247.5,124.6l-0.1,0.1L247.5,124.6z M245.3,128.8L245.3,128.8z M243.2,131.7L243.2,131.7z M242.4,145.6
		c0,0,0-0.1,0.1-0.1L242.4,145.6z"/>
	<path class="st4" d="M242.8,148.3L242.8,148.3z"/>
	<path class="st4" d="M244.3,143.3c-0.1,1.8-0.6,3.5-1.5,5l0,0c-0.1,0.2-0.2,0.4-0.4,0.5C243.3,148.6,244.3,147,244.3,143.3z
		 M237.6,133.7L237.6,133.7z M238.7,112.7c0,0,0-0.1-0.1-0.1l0,0L238.7,112.7z M236.9,142.1L236.9,142.1c0,0.1,0,0.1-0.1,0.2
		C236.9,142.3,236.9,142.2,236.9,142.1z M238.5,145L238.5,145z M238.4,145.1v0.1V145.1z M235.9,83L235.9,83z M237,109.9v-0.3V109.9z
		"/>
	<path class="st4" d="M235.9,82.9L235.9,82.9c0.2,0.9,0.3,1.8,0.3,2.7v-0.2c-2.6,10.2-3.8,24.1,5.1,33.7c-3.1,6.1-8.6,11.6-4.1,21.1
		v-0.1v0.2c0,0.6-0.1,1.2-0.3,1.8l0,0c0,0.1-0.1,0.2-0.1,0.3c0-0.1,0-0.1,0.1-0.2c-1.3,1.2-0.2,7.3,1.6,2.8c0.2-0.7,0.3-1.3,0.5-2
		c0,0.1-0.1,0.2-0.1,0.3c1.1-2.4-0.3-5.3-1.3-9.6v0.1v-1.2c-2.2-6.2,13.8-12.9,1-20l0.1,0.1l-0.1-0.2h0.1c-0.8-0.8-1.3-1.8-1.7-2.8
		v0.2c0,0.1,0-0.2,0-0.2l0,0c-1.6-10,4.3-23.1-3.2-32.5C232.7,78.9,235.1,80,235.9,82.9L235.9,82.9z M236,102L236,102
		C236,102.1,236,102,236,102z M236.4,144.2v-0.1V144.2z M238.2,128.6v-0.1V128.6z M240.2,121.9c0.1-0.1,0,0,0.2-0.3
		C240.3,121.7,240.2,121.8,240.2,121.9L240.2,121.9z M241.2,120L241.2,120z M236.4,93v0.2V93z M231.5,124.5
		c-0.1,0.2-0.1,0.1-0.1,0.2L231.5,124.5z M232.9,145.4L232.9,145.4z"/>
	<path class="st4" d="M232.2,90.2c0.2-0.7,1.3-4.6-1.3-2.8c-3.3,5.8-3,12-1.3,20.2l0,0c-3.1,6.3,8.1,12,0.1,19.6l0.2-0.3
		c-3.9-0.9,1.6,26.5,3,19.5v-1c0.2-1.9,0-3.8-0.5-5.6l0.1,0.3c-0.1-0.6-0.1-0.6-0.9-3.3v0.1c0-0.1,0-0.1-0.1-0.3v0.1l-0.3-1.4v0.2
		c0-0.1,0-0.2-0.1-0.2l0,0c-0.8-2.8-0.2-5.8,1.6-8.1l-0.2,0.3C239.5,117.8,226.8,103.7,232.2,90.2L232.2,90.2z M231.2,93.6
		c0,0.1,0,0.1-0.1,0.2L231.2,93.6z M230.5,97.9v-0.2V97.9z M231,142.4L231,142.4z M230.8,132.5v-0.1V132.5z"/>
	<path class="st4" d="M232.9,146.5L232.9,146.5z M229.6,107.6L229.6,107.6z M231.6,136.9v-0.1V136.9z M232.3,90.1c0,0,0,0.1-0.1,0.1
		v0.1C232.3,90.3,232.3,90.2,232.3,90.1z M231.2,135.5v-0.2V135.5z M225.9,113.7L225.9,113.7v0.2C225.9,114,225.9,113.7,225.9,113.7
		z M226.9,124.3L226.9,124.3v0.2V124.3z M225,109L225,109l-0.1-0.2L225,109z"/>
	<path class="st4" d="M226.5,111.3c0,0,0.1,0.1,0.1,0.2c-0.3-0.5-0.3-0.4-1.5-2.6v0.1l-0.1-0.2l0.1,0.1c-0.4-0.7-0.6-1.5-0.5-2.3
		v0.1v-0.2c0.1-0.1,0.2-0.9-1.2-1.5c-0.6,1.8-0.1,4.3,2,7.3v-0.1c0,0,0.1,0.1,0.1,0.2c0,0,0-0.1-0.1-0.1l0.6,1.4v0.2v-0.2
		c-1,1.3-2.2,23.6,0.9,10.7C225,120.4,229.3,117.1,226.5,111.3L226.5,111.3z M225.1,111.8L225.1,111.8z M225,123.9L225,123.9z
		 M226,120.9L226,120.9z"/>
	<path class="st4" d="M225.3,112.2L225.3,112.2l0.1,0.2C225.3,112.3,225.3,112.2,225.3,112.2z M222.2,110.4L222.2,110.4z
		 M222.7,119.2l0.1-0.1V119C222.8,119.1,222.8,119.2,222.7,119.2z"/>
	<path class="st4" d="M222.8,119.1l-0.1,0.1L222.8,119.1c1.6-2.7,1.4-6.2-0.6-8.7v0.1c0-0.1-0.1-0.1-0.1-0.2v0.1
		c-0.4-0.3,0.5-3-1.8-1.9c-0.5,0.9-0.4,3,1.9,5.1l-0.1-0.2c-0.1,0.6-0.2,1.7-0.3,2.9c0.4,1.3,0.7,2.6,0.8,4
		C222.6,120,222.7,119.6,222.8,119.1L222.8,119.1z M223,112.1L223,112.1z M222,109.7L222,109.7z M222.6,114.8L222.6,114.8z
		 M222.6,114.3L222.6,114.3z M221.6,124.3L221.6,124.3z"/>
	<path class="st4" d="M222.5,120.4c-0.1-1.4-0.3-2.7-0.8-4C221.1,122.3,220,132.4,222.5,120.4z M218.2,29L218.2,29z M235.5,58.7
		L235.5,58.7c0-0.1-0.1-0.2-0.1-0.4C235.5,58.4,235.5,58.5,235.5,58.7z"/>
	<path class="st4" d="M205.1,25.5c1.7-0.5,1-0.2,4.9-2.2l-0.2,0.1c4.2-1.5,1,8.9,8.4,5.5h0.1c5.7,1.9,10.9,32.1,18.2,31.9
		c-0.4-0.7-0.7-1.4-0.9-2.2l0,0c0-0.1-0.1-0.2-0.1-0.4c0,0.1,0.1,0.2,0.1,0.4c0.3-1.3-0.5-4.3-3.1-8.1v0.3
		c-2.8-12.4-10-20.8-22.4-29.3c-1.4,0.3-1.9,1.5-6,2.8l0,0H204C200.4,20.3,198.9,25.7,205.1,25.5z M231.9,55L231.9,55z M229.1,47.7
		L229.1,47.7z M225.4,38.6L225.4,38.6z M224.8,36.2L224.8,36.2z M222.8,33.8v-0.2V33.8z M222.3,34.2L222.3,34.2z M219.1,29.2
		L219.1,29.2z M219,29.2L219,29.2z M211.9,24.3l-0.1-0.1L211.9,24.3z M211.1,23.3L211.1,23.3z M202.9,23.9L202.9,23.9z"/>
	<path class="st4" d="M205.1,25.5L205.1,25.5h-0.2H205.1z M232.4,50.8L232.4,50.8z M232.4,51L232.4,51z M232.5,49.2V49V49.2z
		 M225.3,52L225.3,52c-5.3-7.6-8.8-19-20.7-22c-1.4,2.2,6,5.2,10.5,8.4c-0.3,0.9,4.2,8.9,7.7,14.4c1.4,0.9,2.7,2,3.9,3.1
		C226.5,55,226,53.7,225.3,52z M206.7,31.3L206.7,31.3z M209,32.6L209,32.6z M213.4,36.3L213.4,36.3z M213.7,36.3L213.7,36.3z
		 M215.4,38.2L215.4,38.2z M218.7,44.5v-0.2V44.5z M218.7,44.8L218.7,44.8z"/>
	<path class="st4" d="M205.2,32.3L205.2,32.3z M226.8,55.9c-1.2-1.1-2.5-2.2-3.9-3.1C225.8,57.3,228.1,60.1,226.8,55.9z M210.8,42.4
		l-0.1-0.1L210.8,42.4z"/>
	<path class="st4" d="M210.8,42.3l0.1,0.1L210.8,42.3c-0.5-1-2-4.5-4.5-2.3c-0.2-0.5-0.4-1-0.5-1.5v0.2c-0.3-0.2,0.4-1-1-1.6
		C200.9,41.5,223.7,48.1,210.8,42.3z M213.1,44L213.1,44z M213.1,44L213.1,44z M211.3,43l-0.1-0.1L211.3,43z M211,42.8L211,42.8z
		 M208.4,41.1l-0.1-0.1L208.4,41.1z M207.7,40.8h-0.1H207.7z M206,40.2L206,40.2z M214.7,66.9L214.7,66.9z M213.8,67.5L213.8,67.5
		c0.2-0.1,0.2-0.1,0.5-0.3l-0.5,0.1C213.8,67.3,213.8,67.5,213.8,67.5z M207.7,44.2v0.2c-0.2-0.2,0.4-0.9-0.9-1.4
		c-0.6,0.7-0.9,1.4,2.1,4l0.6-1C209,45.4,208.4,44.8,207.7,44.2L207.7,44.2z M208,44.9L208,44.9z M209.9,46.3l-0.6,1
		c0.1,0.1,0.3,0.2,0.4,0.4l0,0c0.1,0.2,0.2,0.4,0.4,0.6c0.4-0.1,0.8-0.2,1.2-0.4L209.9,46.3L209.9,46.3z"/>
	<path class="st4" d="M212.5,52.3L212.5,52.3L212.5,52.3L212.5,52.3c0.8-1.2,0.2-2.7-1.2-4.4c-0.4,0.1-0.8,0.3-1.2,0.4
		c3.4,5.9,1.3,10.7,3.7,19l0.5-0.1l0.3-0.2l0.1-0.1C212.6,62.2,217.3,59.7,212.5,52.3L212.5,52.3z M211,49.4L211,49.4z M213.2,58.9
		L213.2,58.9z M213.4,54.7L213.4,54.7z M213.8,64.3c0,0.1,0.1,0.1,0.1,0.2L213.8,64.3z M209.9,46.3l-0.4-0.4l-0.6,1l0.3,0.3
		C209.5,47,209.7,46.6,209.9,46.3z"/>
</g>
<g>
	<path class="st1" d="M225.9,62.9c-1.4,0-3.7-4.1-6.1-1.2C218.9,61.9,227.5,66.2,225.9,62.9z M222.1,62.9H222H222.1z M211.1,69.6
		L211.1,69.6z M211.5,69.6L211.5,69.6z M208.7,71.5L208.7,71.5z M204.5,73.6l0.1-0.1L204.5,73.6z"/>
	<path class="st1" d="M204.5,73.6L204.5,73.6c1.2-1,2.7-1.8,4.2-2.2l0,0c0.1,0,0.2,0,0.2-0.1h-0.2c0.9-0.1,1.8-0.3,2.6-0.5l0,0
		c0.1,0,0.1,0,0.2-0.1h-0.1c0.1-0.2,0.1,0,0.2-0.9c-0.2-0.1-0.4-0.3-0.6-0.4l0,0c-0.5,0-1,0-1.4-0.1l0,0c-0.4,0.1-0.3-0.2-1.1,0.1
		C206.8,68.3,198.1,78,204.5,73.6L204.5,73.6z M204.6,73.5l-0.1,0.1L204.6,73.5z"/>
	<path class="st1" d="M211.6,69.6L211.6,69.6h-0.5c0.2,0.1,0.4,0.3,0.6,0.4C211.6,69.9,211.6,69.8,211.6,69.6z"/>
	<path class="st1" d="M211.6,69.6L211.6,69.6z M216,70.6L216,70.6z M217,70.5h0.7c2.9,1.4,5.3,0.6,4.2-0.3c-1.5,0.6-3.5,0.7-1.4-0.6
		c-0.2-0.1-0.5-0.1-0.8-0.2c-1.7,1.3-2.1,0.7-1.6-0.2c-0.5-0.1-1.1-0.1-1.7-0.1c0.1-0.1,0-0.1-0.1,0C218.2,69.2,217.7,70.1,217,70.5
		L217,70.5z M217.6,70.6L217.6,70.6z"/>
	<path class="st1" d="M215.9,70.6L215.9,70.6c0.4,0,0.7-0.1,1.1-0.1c0.7-0.4,1.2-1.3-0.6-1.4C215.8,69.4,213.9,70.7,215.9,70.6z
		 M215.4,70.8L215.4,70.8z M221.4,68.1c0.2,0,0-1.1-0.9-1c-1,0.4-1.8,1.2-2.3,2.1c0.5,0.1,1.1,0.1,1.6,0.3
		C220.3,69,220.9,68.6,221.4,68.1L221.4,68.1z M220.1,67.5L220.1,67.5z M219.7,67.8L219.7,67.8z"/>
	<path class="st1" d="M219.8,69.5l-1.6-0.3C217.7,70.2,218.1,70.8,219.8,69.5z M222,68.5c-0.2,0.3-0.5,0.6-0.8,0.8
		c0.1,0,0.1-0.1,0.1-0.1c-0.1,0-0.1,0.1-0.2,0.1l0,0l-0.6,0.3c0.5,0.1,0.9,0.3,1.4,0.6C223.1,69.8,224.1,69,222,68.5z M222,68.6
		l-0.1,0.1L222,68.6z"/>
	<path class="st1" d="M221.3,69.2c-0.1,0-0.1,0-0.1,0.1l0,0C221.2,69.3,221.2,69.2,221.3,69.2z M221.9,70.2
		c-0.4-0.3-0.9-0.5-1.4-0.6C218.4,70.9,220.4,70.8,221.9,70.2z M173.8,81.7L173.8,81.7z"/>
	<path class="st1" d="M180.2,76.2c-0.7,0.1-1.3,0.2-2,0.4h0.1c-1.6-0.8-3.9,1.6-5.4,3.7c0.5,0.2,0.5,0.6,0.6,0.6
		c-0.4,0.4-0.9,0.7-1.5,0.9c-0.1,0.2-0.2,0.5-0.3,0.7c0.5,0.1,0.7,0.3,0.7,0.5c0.5-0.4,0.9-0.9,1.4-1.3l0.1-0.1c1.3-1.4,1-2.7,5-3.6
		l0,0C180.4,78.5,186.6,77.1,180.2,76.2L180.2,76.2z M176.8,78.7L176.8,78.7z"/>
	<path class="st1" d="M173.8,81.8L173.8,81.8z M178.9,78.1L178.9,78.1z M172.7,80.2c-3.5-0.8-2.9,2.4-0.6,1.7l0.9-1.6
		C172.9,80.3,172.8,80.2,172.7,80.2L172.7,80.2z"/>
	<path class="st1" d="M173,80.3c-0.3,0.5-0.7,1-0.9,1.6c0.6-0.2,1.1-0.5,1.5-0.9C173.5,80.9,173.5,80.5,173,80.3z M171.7,82.6
		c-0.4-0.1-0.9-0.2-1.4-0.2c-0.6,0-0.8-0.8-1.7,0.5c0.1,2,3.8,0.9,3.8,0.1C171.6,83.7,171.5,83.4,171.7,82.6L171.7,82.6z"/>
	<path class="st1" d="M171.7,82.6c-0.3,0.8-0.1,1.1,0.7,0.5C172.4,82.9,172.2,82.7,171.7,82.6z"/>
</g>
<g>
	<path class="st5" d="M35.4,225.4v-28.2c0-0.4,0.2-0.6,0.6-0.6h2.2c0.3,0,0.5,0.1,0.6,0.4L50,223.2L61.1,197
		c0.1-0.3,0.3-0.4,0.7-0.4H64c0.4,0,0.5,0.2,0.5,0.6v28.2c0,0.4-0.2,0.6-0.5,0.6h-1.5c-0.4,0-0.6-0.2-0.6-0.6v-24.7l-0.7,2
		l-9.7,22.9c-0.1,0.3-0.4,0.5-0.7,0.5h-1.7c-0.3,0-0.6-0.1-0.7-0.5l-9.7-22.9l-0.7-2v24.7c0,0.4-0.2,0.6-0.5,0.6H36
		C35.6,226,35.4,225.8,35.4,225.4z"/>
	<path class="st5" d="M70.5,215.7c0-6,4.2-10.7,10.3-10.7c6.1,0,9.6,4.7,9.6,9.7c0,1.5-0.3,2-1.4,2H73c0.4,4.4,3.3,7.7,8.6,7.7
		c2.7,0,4.5-0.9,6.1-2.1c0.2-0.2,0.5-0.2,0.6,0l0.6,0.8c0.3,0.4,0.1,0.6-0.2,0.9c-1.8,1.8-4.5,2.6-7.4,2.6
		C74.7,226.5,70.5,221.6,70.5,215.7z M88.2,214.6c-0.1-4.3-2.9-7.4-7.4-7.4c-4.4,0-7.4,2.9-7.8,7.4H88.2z"/>
	<path class="st5" d="M98.1,232.8c-0.3-0.2-0.5-0.5-0.3-0.8l0.5-1c0.2-0.3,0.5-0.3,0.7-0.2c1.7,1.1,3.9,1.6,6,1.6
		c4.2,0,8.1-1.9,8.1-7.4v-3.7c-1.6,2.7-4.3,4.4-8,4.4c-5.9,0-10.1-4.3-10.1-10.5c0-6.1,4.2-10.4,10-10.4c3.8,0,6.6,1.7,8.1,4.5
		l0-3.4c0-0.4,0.1-0.6,0.5-0.6h1.4c0.4,0,0.5,0.2,0.5,0.6v19.3c0,6.5-5,9.3-10.5,9.3C102.2,234.6,99.6,233.8,98.1,232.8z
		 M113.1,215.5c0-5-3.2-8.2-7.7-8.2c-4.5,0-7.9,3.2-7.9,8.1c0,5,3.4,8.1,7.9,8.1C109.9,223.5,113.1,220.4,113.1,215.5z"/>
	<path class="st5" d="M121.1,215.7c0-6.1,4.2-10.8,10.2-10.8c3.8,0,6.6,1.9,8.1,4.7l0.1-3.7c0-0.4,0.2-0.6,0.5-0.6h1.3
		c0.4,0,0.5,0.2,0.5,0.6v19.4c0,0.4-0.2,0.6-0.5,0.6h-1.3c-0.4,0-0.5-0.2-0.5-0.6l-0.1-3.6c-1.5,2.9-4.3,4.7-8.1,4.7
		C125.3,226.5,121.1,221.9,121.1,215.7z M139.5,215.8c0-5-3.2-8.5-7.9-8.5c-4.7,0-8.1,3.4-8.1,8.4c0,5,3.4,8.4,8.1,8.4
		C136.2,224.1,139.5,220.8,139.5,215.8z"/>
	<path class="st5" d="M148.5,225.4V206c0-0.4,0.1-0.6,0.5-0.6h1.3c0.5,0,0.6,0.2,0.6,0.6l0.1,2.7c1.2-2.1,3.4-3.8,6.9-3.8
		c4.5,0,7.5,2.9,7.5,8.4v12.1c0,0.4-0.2,0.6-0.5,0.6h-1.5c-0.4,0-0.5-0.2-0.5-0.6v-12c0-3.8-2.1-6.1-5.6-6.1s-6.3,2.4-6.3,6.1v12
		c0,0.4-0.2,0.6-0.5,0.6H149C148.7,226,148.5,225.8,148.5,225.4z"/>
	<path class="st5" d="M198.8,225.3c0.3,0.5,0.1,0.8-0.4,0.8h-1.6c-0.3,0-0.6-0.1-0.8-0.4l-7.3-10.9h-5.2v10.7c0,0.4-0.2,0.6-0.5,0.6
		h-1.5c-0.4,0-0.6-0.2-0.6-0.6v-28.2c0-0.4,0.2-0.6,0.6-0.6h7.9c6.3,0,9.6,3.8,9.6,9.1c0,4.6-2.6,8.1-7.5,8.9L198.8,225.3z
		 M183.6,212.4h5.6c4.1,0,7.2-1.8,7.2-6.7c0-4.9-3.2-6.7-7.2-6.7h-5.6V212.4z"/>
	<path class="st5" d="M202.4,215.7c0-6.1,4.2-10.8,10.2-10.8c3.8,0,6.6,1.9,8.1,4.7l0.1-3.7c0-0.4,0.2-0.6,0.5-0.6h1.3
		c0.4,0,0.5,0.2,0.5,0.6v19.4c0,0.4-0.2,0.6-0.5,0.6h-1.3c-0.4,0-0.5-0.2-0.5-0.6l-0.1-3.6c-1.5,2.9-4.3,4.7-8.1,4.7
		C206.5,226.5,202.4,221.9,202.4,215.7z M220.7,215.8c0-5-3.2-8.5-7.9-8.5c-4.7,0-8.1,3.4-8.1,8.4c0,5,3.4,8.4,8.1,8.4
		C217.5,224.1,220.7,220.8,220.7,215.8z"/>
	<path class="st5" d="M228.8,215.7c0-6,4.2-10.7,10.3-10.7c6.1,0,9.6,4.7,9.6,9.7c0,1.5-0.3,2-1.4,2h-16c0.4,4.4,3.3,7.7,8.6,7.7
		c2.7,0,4.5-0.9,6.1-2.1c0.2-0.2,0.5-0.2,0.6,0l0.6,0.8c0.3,0.4,0.1,0.6-0.2,0.9c-1.8,1.8-4.5,2.6-7.4,2.6
		C232.9,226.5,228.8,221.6,228.8,215.7z M246.4,214.6c-0.1-4.3-2.9-7.4-7.4-7.4c-4.4,0-7.4,2.9-7.8,7.4H246.4z"/>
	<path class="st5" d="M263.1,225.4v-28.2c0-0.4,0.2-0.6,0.6-0.6h8.2c6,0,7.9,3.7,7.9,7c0,2.7-1.3,5.4-4.3,6.4
		c3.9,0.9,6.1,4.1,6.1,7.9c0,4.7-3.2,8.1-9.8,8.1h-8.1C263.3,226,263.1,225.8,263.1,225.4z M271.8,209.1c3.4,0,5.5-2,5.5-5.3
		c0-3.4-2.2-4.8-5.5-4.8h-6.1v10.1H271.8z M271.6,223.6c4.8,0,7.3-2.1,7.3-6.1c0-3.8-2.4-6.2-7.3-6.2h-6v12.3H271.6z"/>
	<path class="st5" d="M289.7,233.4l2.9-7.3l-7.9-20c-0.2-0.5,0-0.7,0.5-0.7h1.4c0.3,0,0.5,0.2,0.7,0.5l6.6,17.3l6.6-17.3
		c0.1-0.3,0.3-0.5,0.6-0.5h1.5c0.5,0,0.6,0.3,0.5,0.7l-10.8,27.3c-0.1,0.3-0.4,0.5-0.7,0.5h-1.4C289.7,234,289.6,233.8,289.7,233.4z
		"/>
	<path class="st5" d="M306,215.7c0-6,4.2-10.7,10.3-10.7c6.1,0,9.6,4.7,9.6,9.7c0,1.5-0.3,2-1.4,2h-16c0.4,4.4,3.3,7.7,8.6,7.7
		c2.7,0,4.5-0.9,6.1-2.1c0.2-0.2,0.5-0.2,0.6,0l0.6,0.8c0.3,0.4,0.1,0.6-0.2,0.9c-1.8,1.8-4.5,2.6-7.4,2.6
		C310.2,226.5,306,221.6,306,215.7z M323.7,214.6c-0.1-4.3-2.9-7.4-7.4-7.4c-4.4,0-7.4,2.9-7.8,7.4H323.7z"/>
	<path class="st5" d="M331.5,225.4V206c0-0.4,0.1-0.6,0.5-0.6h1.3c0.5,0,0.6,0.2,0.6,0.6l0.1,2.3c0.8-1.9,2.2-3.4,4.8-3.4
		c0.8,0,1.5,0.1,1.9,0.4c0.3,0.2,0.3,0.3,0.3,0.7v1c0,0.5-0.3,0.5-0.7,0.4c-0.6-0.2-1.1-0.2-1.5-0.2c-3.9,0-4.8,3.5-4.8,5.7v12.4
		c0,0.4-0.2,0.6-0.5,0.6H332C331.6,226,331.5,225.8,331.5,225.4z"/>
	<path class="st5" d="M345.5,223.5c-0.3-0.4-0.3-0.7-0.1-1l0.5-0.6c0.2-0.3,0.6-0.3,0.9,0c1.2,1.3,2.8,2.4,5.1,2.4
		c2.6,0,4.5-1.2,4.5-3.6c0-2.1-1.5-3.1-3.4-3.9l-2.4-1c-2.5-1-4.7-2.5-4.7-5.5c0-3.3,2.8-5.4,6.1-5.4c2.3,0,4.5,1,5.9,2.8
		c0.3,0.3,0.2,0.6,0,0.9l-0.5,0.5c-0.4,0.4-0.6,0.4-1,0c-1.3-1.4-2.7-2.1-4.3-2.1c-1.9,0-3.8,1-3.8,3.1s1.5,2.9,3.8,3.9l1.9,0.8
		c2.7,1.1,4.9,2.6,4.9,5.8c0,3.8-3.2,5.8-6.9,5.8C348.7,226.5,346.6,224.9,345.5,223.5z"/>
</g>
</svg>
