<?xml version="1.0" standalone="no"?>
<!DOCTYPE svg PUBLIC "-//W3C//DTD SVG 1.1//EN" "http://www.w3.org/Graphics/SVG/1.1/DTD/svg11.dtd" >
<svg xmlns="http://www.w3.org/2000/svg" xmlns:xlink="http://www.w3.org/1999/xlink" version="1.1">
<metadata></metadata>
<defs>
<font id="mazzardh_extralight" horiz-adv-x="1370" >
<font-face units-per-em="2048" ascent="1546" descent="-502" />
<missing-glyph horiz-adv-x="598" />
<glyph unicode="&#xfb01;" horiz-adv-x="1153" d="M53 989v76h197v184q0 120 74 203q75 84 182 84h137v-80h-133q-75 0 -126.5 -61t-51.5 -152v-178h313v-76h-313v-989h-82v989h-197zM854 1331q0 31 20 51.5t52 20.5q31 0 52 -20.5t21 -51.5q0 -32 -21 -53t-52 -21q-32 0 -52 21t-20 53zM885 0v1065h82v-1065h-82z" />
<glyph unicode="&#xfb02;" horiz-adv-x="1153" d="M53 989v76h197v184q0 120 74 203q75 84 182 84h137v-80h-133q-75 0 -126.5 -61t-51.5 -152v-178h313v-76h-313v-989h-82v989h-197zM885 0v1536h82v-1536h-82z" />
<glyph unicode="&#xfb03;" horiz-adv-x="1789" d="M53 989v76h197v184q0 120 74 203q75 84 182 84h137v-80h-133q-75 0 -126.5 -61t-51.5 -152v-178h555v184q0 120 74 203q75 84 182 84h139v-80h-135q-75 0 -126.5 -61t-51.5 -152v-178h635v-1065h-82v989h-553v-989h-82v989h-555v-989h-82v989h-197zM1491 1331 q-4 43 33.5 61t75.5 0t36 -61q0 -34 -22.5 -53.5t-50 -19.5t-50 19.5t-22.5 53.5z" />
<glyph unicode="&#xfb04;" horiz-adv-x="1789" d="M53 989v76h197v184q0 120 74 203q75 84 182 84h137v-80h-133q-75 0 -126.5 -61t-51.5 -152v-178h555v184q0 120 74 203q75 84 182 84h139v-80h-135q-75 0 -126.5 -61t-51.5 -152v-178h313v-76h-313v-989h-82v989h-555v-989h-82v989h-197zM1522 0v1536h82v-1536h-82z" />
<glyph horiz-adv-x="0" />
<glyph horiz-adv-x="0" />
<glyph unicode="&#xd;" horiz-adv-x="512" />
<glyph unicode=" "  horiz-adv-x="598" />
<glyph unicode="&#x09;" horiz-adv-x="598" />
<glyph unicode="&#xa0;" horiz-adv-x="598" />
<glyph unicode="!" horiz-adv-x="495" d="M166 66q-3 50 39.5 70.5t84.5 0t38 -70.5q0 -33 -22.5 -56.5t-57.5 -23.5t-58.5 22.5t-23.5 57.5zM205 1434h86l-6 -1033h-74z" />
<glyph unicode="&#x22;" horiz-adv-x="700" d="M168 1434h80l-8 -437h-64zM453 1434h79l-8 -437h-63z" />
<glyph unicode="#" horiz-adv-x="1460" d="M57 506h363l74 422h-349v73h363l76 433h73l-75 -433h399l76 433h76l-76 -433h346v-73h-361l-73 -422h348v-74h-363l-75 -432h-74l76 432h-400l-75 -432h-76l76 432h-347zM494 506h399l76 422h-400z" />
<glyph unicode="$" horiz-adv-x="1280" d="M131 328l86 22q21 -125 139 -203q121 -77 289 -77q180 0 299 88t119 229q0 136 -127 207q-58 32 -115 50.5t-170 45.5q-163 36 -266 80q-103 43 -156.5 112t-60.5 183q0 160 121 266q123 108 315 117v235h70v-235q171 -9 295 -100q122 -90 149 -222l-86 -22 q-21 112 -129 186q-109 74 -262 74q-163 0 -276 -84q-111 -82 -111 -211q0 -104 82 -172q30 -23 94 -53q74 -31 238 -70q160 -34 268 -82q101 -42 154 -115t59 -186q0 -167 -133 -282q-132 -114 -338 -123v-236h-70v236q-187 9 -317 102q-133 95 -160 240z" />
<glyph unicode="%" horiz-adv-x="1656" d="M94 1114q0 142 96 238t238 96q144 0 240 -96t96 -238q0 -146 -96 -242q-94 -94 -240 -94q-142 0 -238 96t-96 240zM170 1114q0 -110 74 -184t184 -74q109 0 184 72q74 74 74 184t-74 184q-73 76 -184 76q-110 0 -184 -74t-74 -184zM225 41l1161 1393l52 -43l-1164 -1391z M895 319q0 146 94 240q96 96 240 96q141 0 237 -96q97 -97 97 -240q0 -142 -97 -239q-94 -94 -237 -94q-146 0 -240 94t-94 239zM971 319q0 -110 74 -184t184 -74t184 74t74 184q0 111 -74 186t-184 75t-184 -74.5t-74 -186.5z" />
<glyph unicode="&#x26;" horiz-adv-x="1409" d="M131 399q0 132 80 225.5t246 184.5q-156 197 -156 356q0 127 86.5 205t222.5 78q140 0 236 -84t96 -207q0 -100 -74 -182q-24 -30 -84 -72q-44 -32 -92 -59l-108 -58q36 -40 86 -90l362 -368q92 151 92 352h82q0 -236 -114 -412l264 -268h-117l-197 199 q-177 -213 -446 -213q-204 0 -334 118q-131 119 -131 295zM215 395q0 -138 109 -233q107 -94 272 -94q236 0 389 190l-369 373q-67 67 -106 114q-153 -84 -224 -162.5t-71 -187.5zM385 1159q0 -128 145 -311q119 63 127 67q44 25 97 64q58 41 82 83t24 95q0 88 -71 148.5 t-175 60.5q-101 0 -165 -57t-64 -150z" />
<glyph unicode="'" horiz-adv-x="415" d="M168 1434h80l-8 -437h-64z" />
<glyph unicode="(" horiz-adv-x="577" d="M162 987q22 114 54 214.5t72 182t61.5 119.5t56.5 94l32 41h86q-28 -35 -35 -45q-14 -18 -75 -127q-54 -97 -97 -204q-40 -106 -75 -279q-33 -162 -33 -342q0 -168 31 -334.5t79 -290.5q100 -237 173 -331l32 -43h-86l-32 43q-16 21 -74 125q-59 106 -98.5 213.5 t-69.5 267.5q-66 350 -2 696z" />
<glyph unicode=")" horiz-adv-x="577" d="M53 -358l33 45q27 35 76 127q54 92 96 204q40 98 76 277q35 172 35 346q0 167 -32 336.5t-81 286.5q-42 107 -89 197t-81 136l-33 41h86l33 -43q16 -20 74 -125q59 -106 98.5 -213.5t69.5 -267.5q66 -348 0 -696q-30 -171 -76 -283q-87 -221 -166 -327l-33 -41h-86z" />
<glyph unicode="*" horiz-adv-x="962" d="M168 961l260 135l-260 133l41 69l246 -157l-15 293h80l-12 -293l246 157l41 -69l-260 -133l260 -135l-41 -70l-246 158l12 -293h-80l15 293l-246 -158z" />
<glyph unicode="+" horiz-adv-x="1228" d="M156 723v78h419v420h78v-420h420v-78h-420v-420h-78v420h-419z" />
<glyph unicode="," horiz-adv-x="417" d="M123 -197l24 25q21 17 42.5 65t17.5 93q-47 0 -67 41t0 80.5t69 35.5q39 0 63.5 -32.5t24.5 -90.5q0 -90 -48 -155.5t-89 -85.5l-8 -6z" />
<glyph unicode="-" horiz-adv-x="819" d="M156 494v77h508v-77h-508z" />
<glyph unicode="." horiz-adv-x="419" d="M129 66q-4 50 38 70.5t84.5 0t39.5 -70.5q0 -35 -23.5 -57.5t-58.5 -22.5q-32 0 -56 24t-24 56z" />
<glyph unicode="/" horiz-adv-x="1011" d="M0 -358l932 1996h80l-930 -1996h-82z" />
<glyph unicode="0" horiz-adv-x="1366" d="M158 485v463q0 214 149 357t375 143t375 -143q151 -145 151 -357v-463q0 -211 -151 -356q-149 -143 -375 -143t-375 143t-149 356zM240 483q0 -176 127 -297q124 -118 315 -118t315 118q129 120 129 297v467q0 175 -129 295q-127 121 -315 121t-315 -121t-127 -295v-467z " />
<glyph unicode="1" horiz-adv-x="847" d="M117 1204l403 230h53v-1434h-84v1319l-333 -189z" />
<glyph unicode="2" horiz-adv-x="1200" d="M115 1128q57 147 180 233.5t280 86.5q193 0 328 -123t135 -295q0 -89 -47 -178q-49 -93 -96 -143q-58 -65 -147 -150l-496 -477h815v-82h-950v57l561 553l47 45l51 50l43 47q21 21 45 51q56 81 64 106q24 57 24 119q0 140 -110 238q-109 100 -267 100q-129 0 -230.5 -74 t-151.5 -200z" />
<glyph unicode="3" horiz-adv-x="1212" d="M125 231l80 33q48 -91 149 -143.5t234 -52.5q172 0 291 90q116 88 116 223q0 134 -112 221q-116 90 -283 90h-106v80h81q165 0 277 86q113 85 113 213q0 126 -109 209q-109 86 -266 86q-128 0 -226.5 -56t-142.5 -153l-74 37q54 118 172 186t271 68q195 0 328 -109 t133 -266q0 -112 -73.5 -202.5t-195.5 -133.5q136 -42 217.5 -138t81.5 -220q0 -167 -141 -281q-139 -112 -352 -112q-159 0 -283 66t-180 179z" />
<glyph unicode="4" horiz-adv-x="1359" d="M104 319v82l854 1033h74v-1031h234v-84h-234v-319h-84v319h-844zM211 403h737v895z" />
<glyph unicode="5" horiz-adv-x="1239" d="M121 254l80 29q56 -99 159.5 -157t231.5 -58q184 0 305 106q125 107 125 266q0 160 -125 267q-124 106 -309 106h-367l64 621h716v-80h-645l-47 -461h281q222 0 368 -131q150 -129 150 -320q0 -193 -150 -325q-146 -131 -366 -131q-157 0 -283 72t-188 196z" />
<glyph unicode="6" horiz-adv-x="1280" d="M158 444v504q0 214 149 357t375 143q140 0 257.5 -60.5t186.5 -166.5l-75 -41q-57 88 -155 137t-216 49q-186 0 -313 -121t-127 -295v-278q57 106 170.5 168.5t253.5 62.5q213 0 358 -133t145 -326q0 -194 -145 -327q-143 -131 -358 -131q-218 0 -361 131 q-145 133 -145 327zM244 444q0 -159 121 -268q120 -108 299 -108q177 0 297 108t120 268q0 161 -120 269t-297 108q-179 0 -299 -108q-121 -109 -121 -269z" />
<glyph unicode="7" horiz-adv-x="1075" d="M57 1354v80h893v-82l-512 -1352h-90l514 1354h-805z" />
<glyph unicode="8" horiz-adv-x="1263" d="M131 383q0 127 83.5 225.5t223.5 141.5q-119 43 -189.5 132t-70.5 201q0 155 129 260q132 105 326 105q192 0 321 -105q131 -104 131 -260q0 -112 -70.5 -201t-189.5 -132q140 -43 224 -143t84 -224q0 -169 -144 -283t-356 -114q-218 0 -359 112q-143 113 -143 285z M217 389q0 -138 119 -229q121 -92 297 -92q174 0 295 92q119 91 119 229q0 139 -119 227q-122 93 -295 93q-175 0 -297 -93q-119 -88 -119 -227zM264 1077q0 -125 105 -207q107 -82 264 -82q156 0 260 82q106 81 106 207q0 124 -106 205q-107 84 -260 84q-157 0 -264 -82 q-105 -82 -105 -207z" />
<glyph unicode="9" horiz-adv-x="1249" d="M117 971q0 201 145 340q143 137 359 137q213 0 358 -133t145 -328v-504q0 -211 -151 -356q-150 -141 -375 -141q-140 0 -258.5 61t-187.5 168l73 41q60 -88 158.5 -138t216.5 -50q191 0 315 118q127 121 127 297v275q-57 -122 -169.5 -193t-251.5 -71q-216 0 -359 137 q-145 139 -145 340zM203 971q0 -168 121 -283q119 -113 297 -113t297 113q120 114 120 283q0 166 -120 280q-121 115 -297 115t-297 -115t-121 -280z" />
<glyph unicode=":" horiz-adv-x="419" d="M129 66q-4 50 38 70.5t84.5 0t39.5 -70.5q0 -35 -23.5 -57.5t-58.5 -22.5q-32 0 -56 24t-24 56zM129 999.5q0 34.5 23 57.5t57 23t57 -23q25 -23 25 -57.5t-25 -59.5q-23 -23 -57 -23t-57 23q-23 25 -23 59.5z" />
<glyph unicode=";" horiz-adv-x="419" d="M123 -197l24 25q21 17 42.5 65t17.5 93q-47 0 -67 41t0 80.5t69 35.5q39 0 63.5 -32.5t24.5 -90.5q0 -90 -48 -155.5t-89 -85.5l-8 -6zM129 999.5q0 34.5 23 57.5t57 23t57 -23q25 -23 25 -57.5t-25 -59.5q-23 -23 -57 -23t-57 23q-23 25 -23 59.5z" />
<glyph unicode="&#x3c;" horiz-adv-x="1228" d="M135 684v66l918 430v-86l-807 -377l807 -377v-84z" />
<glyph unicode="=" horiz-adv-x="1228" d="M156 442v78h917v-78h-917zM156 913v78h917v-78h-917z" />
<glyph unicode="&#x3e;" horiz-adv-x="1228" d="M176 256v84l807 377l-807 377v86l918 -430v-66z" />
<glyph unicode="?" horiz-adv-x="1060" d="M57 1169q44 125 166 202t277 77q194 0 325 -113q136 -112 136 -268q0 -80 -39.5 -156t-100.5 -131q-115 -100 -213 -141l-41 -18l-4 -220h-71l-7 269q51 18 136 65q64 39 118 80q58 46 98 114t40 136q0 125 -111 213q-107 88 -264 88q-129 0 -228.5 -61.5t-134.5 -161.5z M446 67.5q0 34.5 23 57.5t57.5 23t57.5 -23q25 -23 25 -57.5t-25 -59.5q-23 -23 -57.5 -23t-57.5 23q-23 25 -23 59.5z" />
<glyph unicode="@" horiz-adv-x="2058" d="M113 532q0 390 262 652q264 264 653 264q390 0 653 -260q265 -259 265 -635q0 -210 -86 -346q-83 -133 -226 -133q-98 0 -169 63.5t-79 157.5q-57 -103 -158.5 -162t-223.5 -59q-191 0 -316 131q-127 133 -127 327q0 195 127 328q125 131 316 131q123 0 223 -58t157 -161 v207h72v-660q0 -73 52 -124.5t126 -51.5q108 0 174 112t66 292q0 349 -244 590q-242 239 -602 239q-361 0 -602 -241q-242 -242 -242 -603q0 -359 240 -602q241 -241 594 -241q228 0 412 112l30 -61q-194 -123 -442 -123q-383 0 -645 262q-260 260 -260 653zM635 532 q0 -167 106 -276q108 -111 269 -111q160 0 268 111q106 109 106 276q0 168 -106 277q-108 111 -268 111q-161 0 -269 -111q-106 -109 -106 -277z" />
<glyph unicode="A" horiz-adv-x="1464" d="M53 0l647 1434h64l647 -1434h-92l-170 377h-834l-170 -377h-92zM352 459h760l-381 846z" />
<glyph unicode="B" horiz-adv-x="1435" d="M205 0v1434h663q158 0 267 -103q108 -102 108 -254q0 -104 -54 -188t-147 -127q125 -37 202 -138t77 -231q0 -167 -119 -280q-116 -113 -293 -113h-704zM291 82h618q139 0 232 90q92 89 92 225q0 137 -92 226q-93 90 -232 90h-618v-631zM291 795h577q121 0 203 79 q84 81 84 199t-84 199q-83 80 -203 80h-577v-557z" />
<glyph unicode="C" horiz-adv-x="1613" d="M131 717q0 313 209 522t522 209q200 0 364.5 -90.5t258.5 -249.5l-80 -33q-87 136 -229.5 212.5t-313.5 76.5q-276 0 -459 -186q-184 -184 -184 -461q0 -276 184 -463q184 -184 459 -184q171 0 313.5 76t229.5 212l80 -32q-94 -159 -258.5 -249.5t-364.5 -90.5 q-313 0 -522 209q-209 212 -209 522z" />
<glyph unicode="D" horiz-adv-x="1617" d="M205 0v1434h551q310 0 520 -207q211 -205 211 -510t-211 -510q-210 -207 -520 -207h-551zM291 82h465q273 0 458 182t185 453q0 251 -164 430q-164 182 -414 203q-27 0 -35 2h-30h-465v-1270z" />
<glyph unicode="E" horiz-adv-x="1308" d="M205 0v1434h1005v-82h-919v-584h823v-82h-823v-604h930v-82h-1016z" />
<glyph unicode="F" horiz-adv-x="1296" d="M205 0v1434h1005v-82h-919v-568h823v-82h-823v-702h-86z" />
<glyph unicode="G" horiz-adv-x="1714" d="M131 717q0 312 213 522q212 209 530 209q202 0 369.5 -90.5t261.5 -249.5l-80 -33q-87 136 -231 212.5t-320 76.5q-282 0 -468 -186q-187 -184 -187 -461q0 -275 182 -463q181 -184 451 -184q256 0 434 163q180 162 201 414h-705v82h801q0 -319 -207 -532 q-205 -211 -522 -211q-307 0 -516 209q-207 213 -207 522z" />
<glyph unicode="H" horiz-adv-x="1593" d="M205 0v1434h86v-666h1012v666h86v-1434h-86v686h-1012v-686h-86z" />
<glyph unicode="I" horiz-adv-x="495" d="M205 0v1434h86v-1434h-86z" />
<glyph unicode="J" horiz-adv-x="1249" d="M80 223l72 45q57 -94 155.5 -147t216.5 -53q189 0 314 125q127 127 127 313v928h84v-928q0 -219 -152 -371q-149 -149 -373 -149q-140 0 -257.5 63t-186.5 174z" />
<glyph unicode="K" horiz-adv-x="1288" d="M205 0v1434h86v-1434h-86zM406 729l675 705h113l-676 -705l717 -729h-113z" />
<glyph unicode="L" horiz-adv-x="1200" d="M205 0v1434h86v-1352h833v-82h-919z" />
<glyph unicode="M" horiz-adv-x="1873" d="M205 0v1434h86l645 -1119l647 1119h86v-1434h-86v1270l-618 -1073h-56l-618 1071v-1268h-86z" />
<glyph unicode="N" horiz-adv-x="1595" d="M205 0v1434h71l1031 -1280v1280h84v-1434h-72l-1030 1282v-1282h-84z" />
<glyph unicode="O" horiz-adv-x="1724" d="M131 717q0 313 209 522t522 209q311 0 520 -209q211 -208 211 -522q0 -311 -211 -522q-209 -209 -520 -209q-313 0 -522 209q-209 212 -209 522zM219 717q0 -276 184 -463q184 -184 459 -184t459 184q184 187 184 463q0 277 -184 461q-183 186 -459 186t-459 -186 q-184 -184 -184 -461z" />
<glyph unicode="P" horiz-adv-x="1357" d="M205 0v1434h612q185 0 309 -121q125 -119 125 -299q0 -182 -125 -301q-122 -119 -309 -119h-526v-594h-86zM291 676h526q145 0 246 96q100 97 100 242q0 146 -100 239q-99 99 -246 99h-526v-676z" />
<glyph unicode="Q" horiz-adv-x="1724" d="M131 717q0 313 209 522t522 209q311 0 520 -209q211 -208 211 -522q0 -325 -223 -535l229 -227l-59 -59l-233 233q-192 -143 -445 -143q-313 0 -522 209q-209 212 -209 522zM219 717q0 -276 184 -463q184 -184 459 -184q216 0 383 120l-272 273l57 59l281 -278 q194 188 194 473q0 277 -184 461q-183 186 -459 186t-459 -186q-184 -184 -184 -461z" />
<glyph unicode="R" horiz-adv-x="1396" d="M205 0v1434h633q185 0 309 -121q125 -119 125 -299q0 -149 -92 -264q-89 -110 -240 -146l381 -604h-100l-375 594h-8h-547v-594h-86zM291 676h547q144 0 245 96q101 98 101 242q0 145 -101 239q-99 99 -245 99h-547v-676z" />
<glyph unicode="S" horiz-adv-x="1280" d="M131 328l86 22q21 -125 139 -203q121 -77 289 -77q180 0 299 88t119 229q0 136 -127 207q-58 32 -115 50.5t-170 45.5q-163 36 -266 80q-103 43 -156.5 112t-60.5 183q0 165 133 274t336 109q185 0 319 -90q135 -90 162 -232l-86 -22q-21 112 -129 186q-109 74 -262 74 q-163 0 -276 -84q-111 -82 -111 -211q0 -104 82 -172q30 -23 94 -53q74 -31 238 -70q160 -34 268 -82q101 -42 154 -115t59 -186q0 -180 -143 -293q-141 -112 -363 -112q-199 0 -342 96t-170 246z" />
<glyph unicode="T" horiz-adv-x="1413" d="M59 1352v82h1295v-82h-604v-1352h-86v1352h-605z" />
<glyph unicode="U" horiz-adv-x="1552" d="M184 573v861h86v-861q0 -218 144 -362q143 -143 362 -143q218 0 361 143q145 145 145 362v861h86v-861q0 -249 -170 -419q-168 -168 -422 -168t-422 168q-170 170 -170 419z" />
<glyph unicode="V" horiz-adv-x="1443" d="M53 1434h92l576 -1303l577 1303h93l-637 -1434h-64z" />
<glyph unicode="W" horiz-adv-x="2103" d="M53 1434h88l445 -1287l434 1287h63l435 -1291l442 1291h90l-502 -1434h-63l-434 1280l-433 -1280h-63z" />
<glyph unicode="X" horiz-adv-x="1341" d="M53 0l565 729l-544 705h104l494 -637l491 637h105l-545 -705l565 -729h-104l-512 664l-514 -664h-105z" />
<glyph unicode="Y" horiz-adv-x="1337" d="M53 1434h101l516 -770l514 770h100l-571 -846v-588h-86v582z" />
<glyph unicode="Z" horiz-adv-x="1323" d="M106 0v66l1004 1286h-999v82h1120v-66l-1004 -1286h1008v-82h-1129z" />
<glyph unicode="[" horiz-adv-x="598" d="M168 -358v1996h377v-73h-299v-1850h299v-73h-377z" />
<glyph unicode="\" horiz-adv-x="1011" d="M0 1638h82l930 -1996h-80z" />
<glyph unicode="]" horiz-adv-x="598" d="M53 -285h299v1850h-299v73h377v-1996h-377v73z" />
<glyph unicode="^" horiz-adv-x="1228" d="M156 895l424 539h67l426 -539h-94l-367 451l-362 -451h-94z" />
<glyph unicode="_" horiz-adv-x="598" d="M0 -102h598v-78h-598v78z" />
<glyph unicode="`" horiz-adv-x="663" d="M147 1649l46 67l323 -223l-33 -47z" />
<glyph unicode="a" d="M113 532q0 233 151 390t377 157q148 0 270.5 -72.5t190.5 -197.5v256h82v-1065h-82v256q-68 -125 -190.5 -197.5t-270.5 -72.5q-228 0 -377 155q-151 157 -151 391zM197 532q0 -199 129 -331q130 -133 321 -133q192 0 322 133q129 132 129 331q0 200 -129 332 q-130 133 -322 133q-191 0 -321 -133q-129 -132 -129 -332z" />
<glyph unicode="b" d="M186 0v1536h82v-727q68 125 190.5 197.5t270.5 72.5q226 0 377 -157t151 -390q0 -234 -151 -391q-149 -155 -377 -155q-148 0 -270.5 72.5t-190.5 197.5v-256h-82zM272 532q0 -199 129 -331q130 -133 322 -133q191 0 321 133t130 331q0 199 -130 332t-321 133 q-192 0 -322 -133q-129 -132 -129 -332z" />
<glyph unicode="c" horiz-adv-x="1245" d="M113 532q0 235 155 390q157 157 391 157q159 0 288.5 -77t197.5 -211l-82 -27q-57 109 -164 171t-240 62q-198 0 -331 -133q-131 -131 -131 -332q0 -200 131 -331q133 -133 331 -133q133 0 240 62t164 171l82 -27q-68 -134 -197.5 -211t-288.5 -77q-236 0 -391 155 t-155 391z" />
<glyph unicode="d" d="M113 532q0 233 151 390t377 157q148 0 270.5 -72.5t190.5 -197.5v727h82v-1536h-82v256q-68 -125 -190.5 -197.5t-270.5 -72.5q-228 0 -377 155q-151 157 -151 391zM197 532q0 -199 129 -331q130 -133 321 -133q192 0 322 133q129 132 129 331q0 200 -129 332 q-130 133 -322 133q-191 0 -321 -133q-129 -132 -129 -332z" />
<glyph unicode="e" horiz-adv-x="1288" d="M113 532q0 234 153 390q157 157 385 157q229 0 383 -157t154 -390q0 -14 -2 -18h-989q6 -194 139 -324q133 -127 334 -127q257 0 389 203l80 -28q-74 -118 -197.5 -185t-271.5 -67q-242 0 -400 155q-157 157 -157 391zM199 586h903q-15 178 -146 297q-124 118 -307 118 t-307 -118q-128 -119 -143 -297z" />
<glyph unicode="f" horiz-adv-x="698" d="M53 989v76h197v184q0 120 74 203q75 84 182 84h137v-80h-133q-75 0 -126.5 -61t-51.5 -152v-178h313v-76h-313v-989h-82v989h-197z" />
<glyph unicode="g" d="M113 532q0 233 151 390t377 157q148 0 270.5 -72.5t190.5 -197.5v256h82v-1002q0 -230 -158 -385q-156 -153 -391 -153q-140 0 -259.5 60.5t-189.5 164.5l80 31q60 -82 156 -128t211 -46q207 0 338 131q135 129 135 325l-2 199q-68 -129 -190 -202.5t-273 -73.5 q-228 0 -377 155q-151 157 -151 391zM197 532q0 -199 129 -331q130 -133 321 -133q192 0 322 133q129 132 129 331q0 200 -129 332q-130 133 -322 133q-191 0 -321 -133q-129 -132 -129 -332z" />
<glyph unicode="h" horiz-adv-x="1312" d="M186 0v1536h82v-707q40 81 129 156q112 94 308 94q185 0 307 -125q123 -126 123 -311v-643h-82v629q0 156 -105 264q-100 106 -258 106q-178 0 -301 -108q-121 -109 -121 -268v-623h-82z" />
<glyph unicode="i" horiz-adv-x="454" d="M156 1331q0 31 19.5 51.5t51.5 20.5q31 0 51.5 -20.5t20.5 -51.5q0 -32 -20.5 -53t-51.5 -21q-32 0 -51.5 20.5t-19.5 53.5zM186 0v1065h82v-1065h-82z" />
<glyph unicode="j" horiz-adv-x="473" d="M-47 -381h76q75 0 125.5 61t50.5 152v1233h82v-1239q0 -123 -73 -205t-183 -82h-78v80zM174 1331q0 31 20 51.5t52 20.5q31 0 52 -20.5t21 -51.5q0 -32 -21 -53t-52 -21q-32 0 -52 21t-20 53z" />
<glyph unicode="k" horiz-adv-x="1013" d="M186 0v1536h82v-1536h-82zM334 551l477 514h104l-475 -514l521 -551h-107z" />
<glyph unicode="l" horiz-adv-x="454" d="M186 0v1536h82v-1536h-82z" />
<glyph unicode="m" horiz-adv-x="2056" d="M186 0v1065h82v-205q47 84 144 150q97 69 262 69q128 0 229.5 -69.5t143.5 -182.5q28 64 106 142q51 51 134.5 80.5t185.5 29.5q174 0 288 -114q117 -114 117 -285v-680h-82v666q0 141 -96 237t-236 96q-167 0 -280 -98q-111 -95 -111 -242v-659h-82v666q0 141 -96 237 t-236 96q-167 0 -280 -98q-111 -95 -111 -242v-659h-82z" />
<glyph unicode="n" horiz-adv-x="1325" d="M186 0v1065h82v-236q44 83 131 156q52 44 134 69t178 25q186 0 311 -125q125 -122 125 -311v-643h-82v629q0 157 -107 264q-103 106 -262 106q-182 0 -305 -108t-123 -268v-623h-82z" />
<glyph unicode="o" horiz-adv-x="1318" d="M113 532q0 235 155 390q157 157 391 157q233 0 390 -157t157 -390q0 -234 -157 -391q-155 -155 -390 -155q-236 0 -391 155t-155 391zM197 532q0 -200 131 -331q133 -133 331 -133q197 0 330 133t133 331q0 199 -133 332t-330 133q-198 0 -331 -133q-131 -131 -131 -332z " />
<glyph unicode="p" d="M186 -461v1526h82v-256q68 125 190.5 197.5t270.5 72.5q226 0 377 -157t151 -390q0 -234 -151 -391q-149 -155 -377 -155q-148 0 -270.5 72.5t-190.5 197.5v-717h-82zM272 532q0 -199 129 -331q130 -133 322 -133q191 0 321 133t130 331q0 199 -130 332t-321 133 q-192 0 -322 -133q-129 -132 -129 -332z" />
<glyph unicode="q" d="M113 532q0 233 151 390t377 157q148 0 270.5 -72.5t190.5 -197.5v256h82v-1526h-82v717q-68 -125 -190.5 -197.5t-270.5 -72.5q-228 0 -377 155q-151 157 -151 391zM197 532q0 -199 129 -331q130 -133 321 -133q192 0 322 133q129 132 129 331q0 200 -129 332 q-130 133 -322 133q-191 0 -321 -133q-129 -132 -129 -332z" />
<glyph unicode="r" horiz-adv-x="794" d="M186 0v1065h82v-238q40 81 129 156q53 44 135 70t179 26h28v-88q-36 4 -43 4q-182 0 -305 -108t-123 -269v-618h-82z" />
<glyph unicode="s" horiz-adv-x="983" d="M109 227l77 19q17 -83 99 -134t202 -51q129 0 213 59.5t84 151.5q0 131 -163 189l-291 110q-191 71 -191 238q0 121 99 195.5t254 74.5q135 0 229 -59t117 -158l-78 -20q-17 72 -92.5 117t-180.5 45q-115 0 -191.5 -54.5t-76.5 -136.5q0 -119 135 -172l303 -109 q207 -77 207 -258q0 -130 -106 -208q-109 -80 -271 -80q-151 0 -253 65.5t-125 175.5z" />
<glyph unicode="t" horiz-adv-x="745" d="M45 989v76h195v217h82v-217h331v-76h-331v-696q0 -91 51.5 -152t126.5 -61h151v-80h-155q-110 0 -183 82t-73 205v702h-195z" />
<glyph unicode="u" horiz-adv-x="1325" d="M178 422v643h82v-629q0 -156 105 -264q106 -106 264 -106q184 0 305 106q123 108 123 270v623h82v-1065h-82v236q-44 -83 -131 -156q-52 -44 -134 -69t-178 -25q-187 0 -313 123q-123 126 -123 313z" />
<glyph unicode="v" horiz-adv-x="1101" d="M37 1065h86l428 -950l428 950h86l-481 -1065h-66z" />
<glyph unicode="w" horiz-adv-x="1599" d="M37 1065h84l328 -928l319 928h63l320 -932l328 932h84l-381 -1065h-64l-317 920l-320 -920h-63z" />
<glyph unicode="x" horiz-adv-x="1083" d="M61 0l431 543l-414 522h100l365 -457l364 457h101l-414 -522l428 -543h-100l-379 477l-381 -477h-101z" />
<glyph unicode="y" horiz-adv-x="1060" d="M37 1065h86l403 -936l412 936h86l-571 -1296q-54 -122 -126.5 -176t-181.5 -54h-57v80h57q82 0 138.5 42.5t97.5 135.5l102 234z" />
<glyph unicode="z" horiz-adv-x="1064" d="M96 0v70l752 917h-742v78h852v-70l-751 -917h762v-78h-873z" />
<glyph unicode="{" horiz-adv-x="624" d="M37 604v74q20 0 61 14q117 40 117 135v600q0 90 58.5 150.5t144.5 60.5h153v-73h-147q-57 0 -94 -39t-37 -99v-600q0 -75 -43.5 -123.5t-112.5 -62.5q70 -18 113 -66t43 -122v-600q0 -60 37 -99t94 -39h147v-73h-153q-86 0 -144.5 60.5t-58.5 150.5v600q0 53 -42 93 t-91 48z" />
<glyph unicode="|" horiz-adv-x="409" d="M168 -358v1996h74v-1996h-74z" />
<glyph unicode="}" horiz-adv-x="624" d="M53 -285h148q57 0 94 39t37 99v600q0 74 42.5 122t112.5 66q-69 14 -112 62.5t-43 123.5v600q0 60 -37 99t-94 39h-148v73h154q88 0 145.5 -60t57.5 -151v-600q0 -53 43 -93t92 -48l43 -8v-74q-15 0 -62 -16q-116 -39 -116 -135v-600q0 -91 -57.5 -151t-145.5 -60h-154 v73z" />
<glyph unicode="~" horiz-adv-x="1228" d="M156 596q0 109 74 181.5t184 72.5q59 0 116.5 -27.5t92.5 -66.5q94 -94 192 -94q78 0 129 50t51 128h78q0 -110 -76 -183q-73 -73 -186 -73q-61 0 -117 27t-96 67q-94 94 -188 94q-77 0 -127 -50t-50 -126h-77z" />
<glyph unicode="&#xa1;" horiz-adv-x="495" d="M166 999q0 35 23.5 57.5t58.5 22.5t57.5 -23.5t22.5 -56.5q4 -50 -38 -70.5t-84.5 0t-39.5 70.5zM205 -369l6 1033h74l6 -1033h-86z" />
<glyph unicode="&#xa2;" horiz-adv-x="1245" d="M113 717q0 223 145 377q143 155 367 170v231h69v-231q148 -7 267.5 -85t183.5 -204l-82 -27q-57 109 -164 171.5t-240 62.5q-198 0 -331 -133q-131 -131 -131 -332t131 -332q133 -133 331 -133q133 0 240 62t164 171l82 -26q-64 -126 -183.5 -204t-267.5 -85v-231h-69 v231q-223 15 -367 168q-145 157 -145 379z" />
<glyph unicode="&#xa3;" horiz-adv-x="1181" d="M78 0v82h196v543h-143v69h143v357q0 168 117 282q121 115 285 115q140 0 262 -84q122 -82 170 -211l-80 -27q-40 105 -139 172q-95 68 -209 68q-132 0 -227 -92t-95 -225v-355h480v-69h-480v-543h729v-82h-1009z" />
<glyph unicode="&#xa4;" horiz-adv-x="1263" d="M168 307l158 158q-88 107 -88 252q0 141 90 254l-158 157l51 52l158 -158q107 88 254 88q145 0 252 -88l159 158l52 -52l-160 -159q90 -104 90 -252q0 -144 -90 -254l158 -160l-52 -51l-157 160q-107 -88 -252 -88q-146 0 -256 90l-158 -158zM311 717q0 -137 90 -230 q93 -90 232 -90q137 0 227 90q92 92 92 230q0 140 -92 229q-90 90 -227 90q-140 0 -232 -92q-90 -90 -90 -227z" />
<glyph unicode="&#xa5;" horiz-adv-x="1337" d="M53 1434h101l514 -766l516 766h100l-571 -848v-88h364v-70h-364v-180h364v-70h-364v-178h-86v178h-365v70h365v180h-365v70h365v86z" />
<glyph unicode="&#xa6;" horiz-adv-x="409" d="M168 -358v831h74v-831h-74zM168 807v831h74v-831h-74z" />
<glyph unicode="&#xa7;" horiz-adv-x="972" d="M109 -127l75 29q17 -88 101 -144.5t202 -56.5q129 0 213 70t84 176q0 150 -159 223l-295 133q-90 41 -139.5 118.5t-49.5 176.5q0 183 150 274q-150 80 -150 256q0 140 99 228q100 92 249 92q132 0 228 -62t121 -161l-76 -29q-19 80 -94 129t-179 49q-117 0 -192.5 -68 t-75.5 -171q0 -71 35.5 -129.5t93.5 -83.5l314 -134q93 -41 146.5 -121.5t53.5 -179.5q0 -184 -155 -278q155 -85 155 -256q0 -143 -108 -234q-109 -92 -271 -92q-145 0 -249 68.5t-127 177.5zM221 600q0 -75 36.5 -135.5t98.5 -89.5l275 -125q153 74 153 235 q0 80 -42.5 142.5t-120.5 97.5l-250 106q-67 -30 -108.5 -92t-41.5 -139z" />
<glyph unicode="&#xa8;" horiz-adv-x="849" d="M156.5 1487q-18.5 35 0 70.5t62.5 35.5q42 3 60 -34t0 -74t-60 -33q-44 0 -62.5 35zM561 1521.5q0 31.5 19 51.5q20 20 51 20t51 -20t20 -51.5t-20 -51.5q-20 -19 -51 -19t-51 19q-19 20 -19 51.5z" />
<glyph unicode="&#xa9;" horiz-adv-x="1718" d="M131 717q0 301 213 514q212 215 516 215q302 0 514 -215q213 -213 213 -514q0 -300 -213 -516q-213 -213 -514 -213q-303 0 -516 213q-213 216 -213 516zM184 717q0 -278 199 -477t477 -199t475 197q199 199 199 479q0 281 -199 477q-196 199 -475 199q-278 0 -477 -199 t-199 -477zM498 717q0 161 106 264q106 106 266 106q105 0 190 -47t132 -131l-62 -22q-89 139 -260 139q-131 0 -219 -88t-88 -221t88 -221t219 -88q174 0 260 139l62 -25q-50 -83 -134.5 -130.5t-187.5 -47.5q-159 0 -266 107q-106 106 -106 266z" />
<glyph unicode="&#xaa;" horiz-adv-x="950" d="M76 1061q0 163 104 270q105 111 260 111q100 0 183 -47.5t133 -132.5v172h71v-746h-71v172q-50 -85 -133 -132.5t-183 -47.5q-155 0 -260 108q-104 110 -104 273zM150 1061q0 -132 86 -221q90 -90 215 -90q126 0 213 90q88 88 88 221t-88 221q-87 90 -213 90 q-125 0 -215 -90q-86 -89 -86 -221z" />
<glyph unicode="&#xab;" horiz-adv-x="1017" d="M94 532l361 361l53 -51l-311 -310l311 -309l-53 -51zM475 532l361 361l51 -51l-309 -310l309 -309l-51 -51z" />
<glyph unicode="&#xac;" horiz-adv-x="1228" d="M156 678v78h917v-398h-76v320h-841z" />
<glyph unicode="&#xad;" horiz-adv-x="819" d="M156 494v77h508v-77h-508z" />
<glyph unicode="&#xae;" horiz-adv-x="1718" d="M131 717q0 301 213 514q212 215 516 215q302 0 514 -215q213 -213 213 -514q0 -300 -213 -516q-213 -213 -514 -213q-303 0 -516 213q-213 216 -213 516zM184 717q0 -278 199 -477t477 -199t475 197q199 199 199 479q0 281 -199 477q-196 199 -475 199q-278 0 -477 -199 t-199 -477zM606 352v729h324q98 0 163.5 -62.5t65.5 -156.5q0 -75 -44.5 -133t-117.5 -78l185 -299h-72l-180 291h-260v-291h-64zM670 705h260q70 0 116 44t46 113t-46.5 114.5t-115.5 45.5h-260v-317z" />
<glyph unicode="&#xaf;" horiz-adv-x="831" d="M147 1497v74h537v-74h-537z" />
<glyph unicode="&#xb0;" horiz-adv-x="757" d="M94 1266q0 120 82 202t203 82q124 0 203 -82q82 -82 82 -202q0 -121 -82 -203q-79 -82 -203 -82q-121 0 -203 82t-82 203zM170 1266q0 -91 59 -150q62 -59 150 -59t147 59q62 59 62 150q0 90 -62 149q-60 60 -147 60t-150 -60q-59 -59 -59 -149z" />
<glyph unicode="&#xb1;" horiz-adv-x="1228" d="M156 184v78h917v-78h-917zM156 834v77h419v420h78v-420h420v-77h-420v-375h-78v375h-419z" />
<glyph unicode="&#xb2;" horiz-adv-x="659" d="M57 1366q36 82 104 130t154 48q109 0 185 -67q75 -66 75 -164q0 -64 -37 -121.5t-124 -140.5l-252 -242h428v-61h-529v45l306 297q16 15 30 29t25.5 26t15.5 16q27 27 49.5 69.5t22.5 80.5q0 69 -58 120.5t-137 51.5q-65 0 -118 -39.5t-80 -106.5z" />
<glyph unicode="&#xb3;" horiz-adv-x="667" d="M63 883l62 22q53 -102 199 -102q91 0 151 45.5t60 114.5q0 68 -58.5 113.5t-146.5 45.5h-60v56h45q85 0 143 43.5t58 109.5q0 63 -55.5 107.5t-136.5 44.5q-140 0 -193 -109l-55 25q31 67 98 106t152 39q109 0 183.5 -60.5t74.5 -150.5q0 -60 -38 -108.5t-104 -71.5 q73 -24 115.5 -74.5t42.5 -117.5q0 -94 -79 -158t-197 -64q-90 0 -160 39t-101 105z" />
<glyph unicode="&#xb4;" horiz-adv-x="663" d="M147 1493l324 223l45 -67l-336 -203z" />
<glyph unicode="&#xb5;" horiz-adv-x="1325" d="M178 -461v1526h82v-629q0 -156 105 -264q106 -106 264 -106q184 0 305 106q123 108 123 270v623h82v-1065h-82v236q-44 -83 -131 -156q-52 -44 -134 -69t-178 -25q-229 0 -354 174v-621h-82z" />
<glyph unicode="&#xb6;" horiz-adv-x="1388" d="M129 1028q0 174 115 289q117 117 291 117h761v-70h-237v-1722h-74v1722h-377v-1722h-73v981q-175 0 -291 116q-115 118 -115 289z" />
<glyph unicode="&#xb7;" horiz-adv-x="419" d="M129 717q0 53 49.5 74t87.5 -17q40 -38 18 -87.5t-75 -49.5q-32 0 -56 24t-24 56z" />
<glyph unicode="&#xb8;" horiz-adv-x="495" d="M70 -344l28 49q59 -74 152 -74q55 0 93 29t38 68q0 36 -38.5 62.5t-84.5 33.5l-43 4l41 172h72l-31 -129q6 -1 16.5 -3t37 -12.5t47 -25t37 -41.5t16.5 -61q0 -66 -55 -112t-136 -46q-50 0 -97 19.5t-73 45.5z" />
<glyph unicode="&#xb9;" horiz-adv-x="468" d="M59 1411l226 125h43v-788h-64v706l-178 -98z" />
<glyph unicode="&#xba;" horiz-adv-x="917" d="M76 1061q0 164 108 272q112 109 275 109t274 -111q111 -108 111 -270t-111 -273q-111 -108 -274 -108q-164 0 -275 108q-108 108 -108 273zM147 1061q0 -132 91 -223q88 -88 223 -88q129 0 219 90t90 221t-90 221t-221 90q-133 0 -223 -90q-89 -89 -89 -221z" />
<glyph unicode="&#xbb;" horiz-adv-x="1017" d="M131 223l309 309l-309 310l51 51l363 -361l-363 -360zM512 223l309 309l-309 310l51 51l361 -361l-361 -360z" />
<glyph unicode="&#xbc;" horiz-adv-x="1552" d="M59 1309l226 125h43v-789h-64v707l-178 -99zM186 0l1008 1434h84l-1010 -1434h-82zM860 170v63l461 555h57v-555h125v-63h-125v-170h-63v170h-455zM938 233h377v457z" />
<glyph unicode="&#xbd;" horiz-adv-x="1599" d="M59 1309l226 125h43v-789h-64v707l-178 -99zM186 0l1008 1434h84l-1010 -1434h-82zM997 618q36 83 104.5 131t155.5 48q106 0 183 -68q76 -67 76 -164q0 -64 -37.5 -121.5t-124.5 -140.5l-250 -242h428v-61h-528v45l303 297q106 103 125 145q20 36 20 76q0 69 -58 120.5 t-137 51.5q-67 0 -120 -39t-80 -106z" />
<glyph unicode="&#xbe;" horiz-adv-x="1763" d="M63 780l62 23q53 -103 199 -103q91 0 151 45.5t60 114.5q0 68 -59 114t-146 46h-60v55h45q85 0 143 44t58 110q0 63 -55.5 107t-136.5 44q-140 0 -193 -108l-55 24q31 67 98 106.5t152 39.5q109 0 183.5 -60.5t74.5 -150.5q0 -60 -38 -108.5t-104 -71.5 q73 -23 115.5 -74.5t42.5 -118.5q0 -94 -79 -157.5t-197 -63.5q-90 0 -160 38.5t-101 104.5zM379 0l1010 1434h84l-1010 -1434h-84zM1071 170v63l461 555h57v-555h125v-63h-125v-170h-63v170h-455zM1149 233h377v457z" />
<glyph unicode="&#xbf;" horiz-adv-x="1056" d="M96 -2q0 81 39.5 156.5t100.5 128.5q113 101 213 143l40 18l5 220h71l8 -269q-49 -17 -137 -67q-68 -38 -119 -80q-56 -46 -96.5 -113.5t-40.5 -134.5q0 -124 109 -213q110 -88 268 -88q128 0 227 61.5t136 161.5l79 -26q-43 -125 -164 -202t-278 -77q-194 0 -328 113 q-133 112 -133 268zM450 997.5q0 34.5 23 57.5q23 25 57.5 25t57.5 -25q23 -23 23 -57.5t-23 -57.5t-57.5 -23t-57.5 23t-23 57.5z" />
<glyph unicode="&#xc0;" horiz-adv-x="1464" d="M53 0l647 1434h64l647 -1434h-92l-170 377h-834l-170 -377h-92zM352 459h760l-381 846zM449 1784l45 67l323 -223l-33 -47z" />
<glyph unicode="&#xc1;" horiz-adv-x="1464" d="M53 0l647 1434h64l647 -1434h-92l-170 377h-834l-170 -377h-92zM352 459h760l-381 846zM655 1628l324 223l45 -67l-336 -203z" />
<glyph unicode="&#xc2;" horiz-adv-x="1464" d="M53 0l647 1434h64l647 -1434h-92l-170 377h-834l-170 -377h-92zM352 459h760l-381 846zM428 1626l299 240h10l297 -240l-37 -45l-266 193l-264 -193z" />
<glyph unicode="&#xc3;" horiz-adv-x="1464" d="M53 0l647 1434h64l647 -1434h-92l-170 377h-834l-170 -377h-92zM352 459h760l-381 846zM440 1589q0 74 51.5 126t124.5 52q63 0 125 -59t105 -59q44 0 74 31t30 81h72q0 -79 -50 -129.5t-124 -50.5q-65 0 -127 59q-60 60 -103 60t-74.5 -33.5t-31.5 -77.5h-72z" />
<glyph unicode="&#xc4;" horiz-adv-x="1464" d="M53 0l647 1434h64l647 -1434h-92l-170 377h-834l-170 -377h-92zM352 459h760l-381 846zM453 1657q0 31 20 51t51 20t51 -20t20 -51t-20 -51q-20 -19 -51 -19t-51 19q-20 20 -20 51zM877 1620q-18 37 0 74.5t61 34.5q42 3 60.5 -34.5t1 -74.5t-61.5 -33q-43 -4 -61 33z " />
<glyph unicode="&#xc5;" horiz-adv-x="1464" d="M53 0l647 1434h64l647 -1434h-92l-170 377h-834l-170 -377h-92zM352 459h760l-381 846zM537 1747q0 82 56 138.5t138 56.5t139.5 -56.5t57.5 -138.5q0 -80 -58 -137.5t-139 -57.5t-137.5 57.5t-56.5 137.5zM604 1746.5q0 -53.5 37 -91.5q37 -37 90 -37t90 37 q38 38 38 91.5t-38 90.5q-37 38 -90 38t-90 -38q-37 -37 -37 -90.5z" />
<glyph unicode="&#xc6;" horiz-adv-x="2023" d="M53 0l951 1434h921v-82h-792v-584h696v-82h-696v-604h802v-82h-888v377h-644l-249 -377h-101zM457 459h590v891z" />
<glyph unicode="&#xc7;" horiz-adv-x="1613" d="M131 717q0 313 209 522t522 209q200 0 364.5 -90.5t258.5 -249.5l-80 -33q-87 136 -229.5 212.5t-313.5 76.5q-276 0 -459 -186q-184 -184 -184 -461q0 -276 184 -463q184 -184 459 -184q171 0 313.5 76t229.5 212l80 -32q-88 -148 -240 -238t-336 -100l-26 -117 q6 -1 16.5 -3t37.5 -12.5t47 -25t37 -41.5t17 -61q0 -66 -55.5 -112t-136.5 -46q-48 0 -96 20t-70 45l-23 21l29 49q56 -74 152 -74q55 0 93 29t38 68q0 36 -39.5 62.5t-85.5 33.5l-41 4l37 158q-304 9 -506 217q-203 209 -203 514z" />
<glyph unicode="&#xc8;" horiz-adv-x="1308" d="M205 0v1434h1005v-82h-919v-584h823v-82h-823v-604h930v-82h-1016zM403 1784l46 67l323 -223l-33 -47z" />
<glyph unicode="&#xc9;" horiz-adv-x="1308" d="M205 0v1434h1005v-82h-919v-584h823v-82h-823v-604h930v-82h-1016zM610 1628l324 223l45 -67l-336 -203z" />
<glyph unicode="&#xca;" horiz-adv-x="1308" d="M205 0v1434h1005v-82h-919v-584h823v-82h-823v-604h930v-82h-1016zM383 1626l299 240h10l297 -240l-37 -45l-266 193l-264 -193z" />
<glyph unicode="&#xcb;" horiz-adv-x="1308" d="M205 0v1434h1005v-82h-919v-584h823v-82h-823v-604h930v-82h-1016zM408 1657q0 31 20 51t51 20t51 -20t20 -51t-20 -51q-20 -19 -51 -19t-51 19q-20 20 -20 51zM832 1620q-18 37 0 74.5t61 34.5q42 3 60.5 -34.5t1 -74.5t-61.5 -33q-43 -4 -61 33z" />
<glyph unicode="&#xcc;" horiz-adv-x="495" d="M-35 1784l45 67l324 -223l-35 -47zM205 0v1434h86v-1434h-86z" />
<glyph unicode="&#xcd;" horiz-adv-x="495" d="M172 1628l322 223l47 -67l-336 -203zM205 0v1434h86v-1434h-86z" />
<glyph unicode="&#xce;" horiz-adv-x="495" d="M-55 1626l297 240h10l299 -240l-39 -45l-264 193l-266 -193zM205 0v1434h86v-1434h-86z" />
<glyph unicode="&#xcf;" horiz-adv-x="495" d="M-21.5 1622.5q-18.5 35.5 0 71t62.5 35.5q42 3 60 -34.5t0 -74.5t-60 -33q-44 0 -62.5 35.5zM205 0v1434h86v-1434h-86zM382 1657q0 31 19 51q20 20 51.5 20t51.5 -20t20 -51t-20 -51q-20 -19 -51.5 -19t-51.5 19q-19 20 -19 51z" />
<glyph unicode="&#xd0;" horiz-adv-x="1626" d="M20 678v78h193v678h551q310 0 520 -207q211 -205 211 -510t-211 -510q-210 -207 -520 -207h-551v678h-193zM299 82h465q274 0 459 182q184 181 184 453q0 271 -184 452q-186 183 -459 183h-465v-596h471v-78h-471v-596z" />
<glyph unicode="&#xd1;" horiz-adv-x="1595" d="M205 0v1434h71l1031 -1280v1280h84v-1434h-72l-1030 1282v-1282h-84zM506 1589q0 74 51.5 126t124.5 52q63 0 125 -59t104 -59q44 0 74.5 31t30.5 81h71q0 -79 -49.5 -129.5t-122.5 -50.5q-67 0 -129 59q-60 60 -100 60q-44 0 -76 -33t-32 -78h-72z" />
<glyph unicode="&#xd2;" horiz-adv-x="1724" d="M131 717q0 313 209 522t522 209q311 0 520 -209q211 -208 211 -522q0 -311 -211 -522q-209 -209 -520 -209q-313 0 -522 209q-209 212 -209 522zM219 717q0 -276 184 -463q184 -184 459 -184t459 184q184 187 184 463q0 277 -184 461q-183 186 -459 186t-459 -186 q-184 -184 -184 -461zM580 1784l45 67l323 -223l-35 -47z" />
<glyph unicode="&#xd3;" horiz-adv-x="1724" d="M131 717q0 313 209 522t522 209q311 0 520 -209q211 -208 211 -522q0 -311 -211 -522q-209 -209 -520 -209q-313 0 -522 209q-209 212 -209 522zM219 717q0 -276 184 -463q184 -184 459 -184t459 184q184 187 184 463q0 277 -184 461q-183 186 -459 186t-459 -186 q-184 -184 -184 -461zM786 1628l322 223l47 -67l-336 -203z" />
<glyph unicode="&#xd4;" horiz-adv-x="1724" d="M131 717q0 313 209 522t522 209q311 0 520 -209q211 -208 211 -522q0 -311 -211 -522q-209 -209 -520 -209q-313 0 -522 209q-209 212 -209 522zM219 717q0 -276 184 -463q184 -184 459 -184t459 184q184 187 184 463q0 277 -184 461q-183 186 -459 186t-459 -186 q-184 -184 -184 -461zM559 1626l297 240h10l299 -240l-39 -45l-264 193l-266 -193z" />
<glyph unicode="&#xd5;" horiz-adv-x="1724" d="M131 717q0 313 209 522t522 209q311 0 520 -209q211 -208 211 -522q0 -311 -211 -522q-209 -209 -520 -209q-313 0 -522 209q-209 212 -209 522zM219 717q0 -276 184 -463q184 -184 459 -184t459 184q184 187 184 463q0 277 -184 461q-183 186 -459 186t-459 -186 q-184 -184 -184 -461zM569 1589q0 73 52.5 125.5t126.5 52.5q35 0 68.5 -18.5t55 -40.5t50.5 -40.5t55 -18.5q44 0 74 31t30 81h72q0 -79 -50 -129.5t-124 -50.5q-65 0 -127 59q-60 60 -102 60q-44 0 -76.5 -33.5t-32.5 -77.5h-72z" />
<glyph unicode="&#xd6;" horiz-adv-x="1724" d="M131 717q0 313 209 522t522 209q311 0 520 -209q211 -208 211 -522q0 -311 -211 -522q-209 -209 -520 -209q-313 0 -522 209q-209 212 -209 522zM219 717q0 -276 184 -463q184 -184 459 -184t459 184q184 187 184 463q0 277 -184 461q-183 186 -459 186t-459 -186 q-184 -184 -184 -461zM592.5 1622.5q-18.5 35.5 0 71t62.5 35.5q42 3 60 -34.5t0 -74.5t-60 -33q-44 0 -62.5 35.5zM997 1657q0 31 19 51q20 20 51 20t51 -20t20 -51t-20 -51q-20 -19 -51 -19t-51 19q-19 20 -19 51z" />
<glyph unicode="&#xd7;" horiz-adv-x="1228" d="M227 385l332 332l-332 332l56 55l331 -332l332 332l55 -55l-331 -332l331 -332l-55 -55l-332 332l-331 -332z" />
<glyph unicode="&#xd8;" horiz-adv-x="1724" d="M131 717q0 313 209 522t522 209q216 0 393 -107l76 107l62 -43l-76 -107q132 -104 204 -253.5t72 -327.5q0 -311 -211 -522q-209 -209 -520 -209q-217 0 -389 106l-76 -106l-59 41l76 106q-134 100 -208.5 252.5t-74.5 331.5zM219 717q0 -157 64 -290.5t180 -221.5 l743 1065q-155 94 -344 94q-276 0 -459 -186q-184 -184 -184 -461zM522 162q157 -92 340 -92q275 0 459 184q184 187 184 463q0 154 -63 287t-176 221z" />
<glyph unicode="&#xd9;" horiz-adv-x="1552" d="M184 573v861h86v-861q0 -218 144 -362q143 -143 362 -143q218 0 361 143q145 145 145 362v861h86v-861q0 -249 -170 -419q-168 -168 -422 -168t-422 168q-170 170 -170 419zM494 1784l45 67l323 -223l-35 -47z" />
<glyph unicode="&#xda;" horiz-adv-x="1552" d="M184 573v861h86v-861q0 -218 144 -362q143 -143 362 -143q218 0 361 143q145 145 145 362v861h86v-861q0 -249 -170 -419q-168 -168 -422 -168t-422 168q-170 170 -170 419zM700 1628l322 223l47 -67l-336 -203z" />
<glyph unicode="&#xdb;" horiz-adv-x="1552" d="M184 573v861h86v-861q0 -218 144 -362q143 -143 362 -143q218 0 361 143q145 145 145 362v861h86v-861q0 -249 -170 -419q-168 -168 -422 -168t-422 168q-170 170 -170 419zM473 1626l297 240h10l299 -240l-39 -45l-264 193l-266 -193z" />
<glyph unicode="&#xdc;" horiz-adv-x="1552" d="M184 573v861h86v-861q0 -218 144 -362q143 -143 362 -143q218 0 361 143q145 145 145 362v861h86v-861q0 -249 -170 -419q-168 -168 -422 -168t-422 168q-170 170 -170 419zM506.5 1622.5q-18.5 35.5 0 71t62.5 35.5q42 3 60 -34.5t0 -74.5t-60 -33q-44 0 -62.5 35.5z M911 1657q0 31 19 51q20 20 51 20t51 -20t20 -51t-20 -51q-20 -19 -51 -19t-51 19q-19 20 -19 51z" />
<glyph unicode="&#xdd;" horiz-adv-x="1337" d="M53 1434h101l516 -770l514 770h100l-571 -846v-588h-86v582zM594 1628l321 223l48 -67l-336 -203z" />
<glyph unicode="&#xde;" horiz-adv-x="1357" d="M205 0v1434h86v-297h526q185 0 309 -121q125 -119 125 -299q0 -182 -125 -301q-122 -119 -309 -119h-526v-297h-86zM291 379h526q145 0 246 96q100 97 100 242q0 146 -100 239q-99 99 -246 99h-526v-676z" />
<glyph unicode="&#xdf;" horiz-adv-x="1167" d="M186 0v1212q0 147 95 242q96 96 241 96q146 0 240 -94t94 -217q0 -59 -29 -113t-69 -86q-96 -80 -96 -153q0 -84 143 -172q42 -25 71 -44.5t68 -54.5t63 -71t41 -89t17 -114q0 -172 -119 -263t-344 -91v82q379 0 379 272q0 84 -39.5 150.5t-103.5 107.5q-14 9 -50 31 t-53 33.5t-47 33.5t-45 39.5t-32.5 41t-25 49.5t-7.5 55q0 53 28 101t68 81q98 82 98 176q0 88 -70 158q-69 69 -176 69q-112 0 -185 -75.5t-73 -188.5v-1204h-82z" />
<glyph unicode="&#xe0;" d="M113 532q0 233 151 390t377 157q148 0 270.5 -72.5t190.5 -197.5v256h82v-1065h-82v256q-68 -125 -190.5 -197.5t-270.5 -72.5q-228 0 -377 155q-151 157 -151 391zM197 532q0 -199 129 -331q130 -133 321 -133q192 0 322 133q129 132 129 331q0 200 -129 332 q-130 133 -322 133q-191 0 -321 -133q-129 -132 -129 -332zM401 1452l45 68l324 -224l-33 -47z" />
<glyph unicode="&#xe1;" d="M113 532q0 233 151 390t377 157q148 0 270.5 -72.5t190.5 -197.5v256h82v-1065h-82v256q-68 -125 -190.5 -197.5t-270.5 -72.5q-228 0 -377 155q-151 157 -151 391zM197 532q0 -199 129 -331q130 -133 321 -133q192 0 322 133q129 132 129 331q0 200 -129 332 q-130 133 -322 133q-191 0 -321 -133q-129 -132 -129 -332zM608 1296l324 224l45 -68l-334 -203z" />
<glyph unicode="&#xe2;" d="M113 532q0 233 151 390t377 157q148 0 270.5 -72.5t190.5 -197.5v256h82v-1065h-82v256q-68 -125 -190.5 -197.5t-270.5 -72.5q-228 0 -377 155q-151 157 -151 391zM197 532q0 -199 129 -331q130 -133 321 -133q192 0 322 133q129 132 129 331q0 200 -129 332 q-130 133 -322 133q-191 0 -321 -133q-129 -132 -129 -332zM381 1294l299 240h10l297 -240l-37 -45l-266 193l-264 -193z" />
<glyph unicode="&#xe3;" d="M113 532q0 233 151 390t377 157q148 0 270.5 -72.5t190.5 -197.5v256h82v-1065h-82v256q-68 -125 -190.5 -197.5t-270.5 -72.5q-228 0 -377 155q-151 157 -151 391zM197 532q0 -199 129 -331q130 -133 321 -133q192 0 322 133q129 132 129 331q0 200 -129 332 q-130 133 -322 133q-191 0 -321 -133q-129 -132 -129 -332zM393 1257q0 74 51.5 126.5t124.5 52.5q62 0 125 -60q62 -59 105 -59q44 0 74 31.5t30 81.5h72q0 -79 -49.5 -130t-122.5 -51q-66 0 -129 60q-59 59 -101 59q-44 0 -76 -33t-32 -78h-72z" />
<glyph unicode="&#xe4;" d="M113 532q0 233 151 390t377 157q148 0 270.5 -72.5t190.5 -197.5v256h82v-1065h-82v256q-68 -125 -190.5 -197.5t-270.5 -72.5q-228 0 -377 155q-151 157 -151 391zM197 532q0 -199 129 -331q130 -133 321 -133q192 0 322 133q129 132 129 331q0 200 -129 332 q-130 133 -322 133q-191 0 -321 -133q-129 -132 -129 -332zM407 1325q0 31 19 51q20 20 51 20t51 -20t20 -51t-20 -51q-20 -19 -51 -19t-51 19q-19 20 -19 51zM820 1325q0 31 20 51t51 20t51 -20t20 -51t-20 -51q-20 -19 -51 -19t-51 19q-20 20 -20 51z" />
<glyph unicode="&#xe5;" d="M113 532q0 233 151 390t377 157q148 0 270.5 -72.5t190.5 -197.5v256h82v-1065h-82v256q-68 -125 -190.5 -197.5t-270.5 -72.5q-228 0 -377 155q-151 157 -151 391zM197 532q0 -199 129 -331q130 -133 321 -133q192 0 322 133q129 132 129 331q0 200 -129 332 q-130 133 -322 133q-191 0 -321 -133q-129 -132 -129 -332zM489 1415q0 82 57.5 138.5t139.5 56.5q80 0 137.5 -57t57.5 -138q0 -79 -57.5 -136.5t-137.5 -57.5q-82 0 -139.5 57t-57.5 137zM557 1414.5q0 -53.5 37 -91.5q38 -37 91.5 -37t90.5 37q37 38 37 91.5t-37 90.5 q-37 38 -90.5 38t-91.5 -38q-37 -37 -37 -90.5z" />
<glyph unicode="&#xe6;" horiz-adv-x="2277" d="M113 532q0 233 151 390t377 157q148 0 270.5 -72.5t190.5 -197.5v256h82v-258q67 127 190.5 199.5t272.5 72.5q225 0 376 -157q154 -157 154 -390q0 -14 -2 -18h-989q6 -194 139 -324q133 -127 334 -127q257 0 389 203l80 -28q-72 -118 -195 -185t-270 -67 q-157 0 -283.5 73t-195.5 201v-260h-82v256q-68 -125 -190.5 -197.5t-270.5 -72.5q-228 0 -377 155q-151 157 -151 391zM197 532q0 -199 129 -331q130 -133 321 -133q192 0 322 133q129 132 129 331q0 200 -129 332q-130 133 -322 133q-191 0 -321 -133q-129 -132 -129 -332 zM1188 586h903q-15 179 -145 297q-124 118 -308 118q-183 0 -307 -118q-128 -119 -143 -297z" />
<glyph unicode="&#xe7;" horiz-adv-x="1245" d="M113 532q0 235 155 390q157 157 391 157q159 0 288.5 -77t197.5 -211l-82 -27q-57 109 -164 171t-240 62q-198 0 -331 -133q-131 -131 -131 -332q0 -200 131 -331q133 -133 331 -133q133 0 240 62t164 171l82 -27q-62 -123 -176 -198.5t-260 -87.5l-29 -117q6 -1 16.5 -3 t37.5 -12.5t47.5 -25t37.5 -41.5t17 -61q0 -66 -56 -112t-137 -46q-48 0 -95.5 20t-72.5 45l-20 21l28 49q56 -74 152 -74q55 0 93 29t38 68q0 36 -38.5 62.5t-84.5 33.5l-43 4l37 158q-226 9 -375 164t-149 382z" />
<glyph unicode="&#xe8;" horiz-adv-x="1288" d="M113 532q0 234 153 390q157 157 385 157q229 0 383 -157t154 -390q0 -14 -2 -18h-989q6 -194 139 -324q133 -127 334 -127q257 0 389 203l80 -28q-74 -118 -197.5 -185t-271.5 -67q-242 0 -400 155q-157 157 -157 391zM199 586h903q-15 178 -146 297q-124 118 -307 118 t-307 -118q-128 -119 -143 -297zM375 1452l45 68l323 -224l-32 -47z" />
<glyph unicode="&#xe9;" horiz-adv-x="1288" d="M113 532q0 234 153 390q157 157 385 157q229 0 383 -157t154 -390q0 -14 -2 -18h-989q6 -194 139 -324q133 -127 334 -127q257 0 389 203l80 -28q-74 -118 -197.5 -185t-271.5 -67q-242 0 -400 155q-157 157 -157 391zM199 586h903q-15 178 -146 297q-124 118 -307 118 t-307 -118q-128 -119 -143 -297zM582 1296l323 224l45 -68l-334 -203z" />
<glyph unicode="&#xea;" horiz-adv-x="1288" d="M113 532q0 234 153 390q157 157 385 157q229 0 383 -157t154 -390q0 -14 -2 -18h-989q6 -194 139 -324q133 -127 334 -127q257 0 389 203l80 -28q-74 -118 -197.5 -185t-271.5 -67q-242 0 -400 155q-157 157 -157 391zM199 586h903q-15 178 -146 297q-124 118 -307 118 t-307 -118q-128 -119 -143 -297zM354 1294l299 240h11l297 -240l-37 -45l-267 193l-264 -193z" />
<glyph unicode="&#xeb;" horiz-adv-x="1288" d="M113 532q0 234 153 390q157 157 385 157q229 0 383 -157t154 -390q0 -14 -2 -18h-989q6 -194 139 -324q133 -127 334 -127q257 0 389 203l80 -28q-74 -118 -197.5 -185t-271.5 -67q-242 0 -400 155q-157 157 -157 391zM199 586h903q-15 178 -146 297q-124 118 -307 118 t-307 -118q-128 -119 -143 -297zM380 1325q0 31 19 51q20 20 51.5 20t51.5 -20t20 -51t-20 -51q-20 -19 -51.5 -19t-51.5 19q-19 20 -19 51zM793 1325q0 31 20 51t51 20t51 -20t20 -51t-20 -51q-20 -19 -51 -19t-51 19q-20 20 -20 51z" />
<glyph unicode="&#xec;" horiz-adv-x="454" d="M-49 1452l45 68l323 -224l-34 -47zM186 0v1065h82v-1065h-82z" />
<glyph unicode="&#xed;" horiz-adv-x="454" d="M145 1296l324 224l45 -68l-336 -203zM186 0v1065h82v-1065h-82z" />
<glyph unicode="&#xee;" horiz-adv-x="454" d="M-76 1294l299 240h8l299 -240l-38 -45l-265 195l-266 -195zM186 0v1065h82v-1065h-82z" />
<glyph unicode="&#xef;" horiz-adv-x="454" d="M-35.5 1290.5q-18.5 35.5 0 71t62.5 35.5q42 3 60 -34.5t0 -74.5t-60 -33q-44 0 -62.5 35.5zM186 0v1065h82v-1065h-82zM356 1325q0 31 19 51q20 20 51 20t51 -20t20 -51t-20 -51q-20 -19 -51 -19t-51 19q-19 20 -19 51z" />
<glyph unicode="&#xf0;" horiz-adv-x="1318" d="M113 532q0 235 155 390q157 157 391 157q133 0 247 -54t188 -151q-94 438 -473 549l-121 -196l-62 37l111 178q-121 26 -285 26v82q191 0 330 -34l106 174l62 -37l-96 -158q540 -173 540 -963q0 -234 -157 -391q-155 -155 -390 -155q-236 0 -391 155t-155 391zM197 532 q0 -200 131 -331q133 -133 331 -133q197 0 330 133t133 331q0 199 -133 332t-330 133q-198 0 -331 -133q-131 -131 -131 -332z" />
<glyph unicode="&#xf1;" horiz-adv-x="1325" d="M186 0v1065h82v-236q44 83 131 156q52 44 134 69t178 25q186 0 311 -125q125 -122 125 -311v-643h-82v629q0 157 -107 264q-103 106 -262 106q-182 0 -305 -108t-123 -268v-623h-82zM377 1257q0 74 52.5 126.5t125.5 52.5q34 0 67 -18.5t55.5 -41t51.5 -41t55 -18.5 q44 0 74.5 31.5t30.5 81.5h72q0 -79 -50.5 -130t-124.5 -51q-64 0 -127 60q-59 59 -102 59q-44 0 -76 -33t-32 -78h-72z" />
<glyph unicode="&#xf2;" horiz-adv-x="1318" d="M113 532q0 235 155 390q157 157 391 157q233 0 390 -157t157 -390q0 -234 -157 -391q-155 -155 -390 -155q-236 0 -391 155t-155 391zM197 532q0 -200 131 -331q133 -133 331 -133q197 0 330 133t133 331q0 199 -133 332t-330 133q-198 0 -331 -133q-131 -131 -131 -332z M377 1452l45 68l323 -224l-34 -47z" />
<glyph unicode="&#xf3;" horiz-adv-x="1318" d="M113 532q0 235 155 390q157 157 391 157q233 0 390 -157t157 -390q0 -234 -157 -391q-155 -155 -390 -155q-236 0 -391 155t-155 391zM197 532q0 -200 131 -331q133 -133 331 -133q197 0 330 133t133 331q0 199 -133 332t-330 133q-198 0 -331 -133q-131 -131 -131 -332z M584 1296l321 224l47 -68l-336 -203z" />
<glyph unicode="&#xf4;" horiz-adv-x="1318" d="M113 532q0 235 155 390q157 157 391 157q233 0 390 -157t157 -390q0 -234 -157 -391q-155 -155 -390 -155q-236 0 -391 155t-155 391zM197 532q0 -200 131 -331q133 -133 331 -133q197 0 330 133t133 331q0 199 -133 332t-330 133q-198 0 -331 -133q-131 -131 -131 -332z M356 1294l297 240h11l299 -240l-39 -45l-265 193l-266 -193z" />
<glyph unicode="&#xf5;" horiz-adv-x="1318" d="M113 532q0 235 155 390q157 157 391 157q233 0 390 -157t157 -390q0 -234 -157 -391q-155 -155 -390 -155q-236 0 -391 155t-155 391zM197 532q0 -200 131 -331q133 -133 331 -133q197 0 330 133t133 331q0 199 -133 332t-330 133q-198 0 -331 -133q-131 -131 -131 -332z M367 1257q0 74 52.5 126.5t125.5 52.5q60 0 123 -60q62 -59 106 -59t74.5 31.5t30.5 81.5h71q0 -79 -50 -130t-124 -51q-64 0 -127 60q-59 59 -102 59q-44 0 -76.5 -33.5t-32.5 -77.5h-71z" />
<glyph unicode="&#xf6;" horiz-adv-x="1318" d="M113 532q0 235 155 390q157 157 391 157q233 0 390 -157t157 -390q0 -234 -157 -391q-155 -155 -390 -155q-236 0 -391 155t-155 391zM197 532q0 -200 131 -331q133 -133 331 -133q197 0 330 133t133 331q0 199 -133 332t-330 133q-198 0 -331 -133q-131 -131 -131 -332z M390.5 1290.5q-18.5 35.5 0 71t62.5 35.5q42 3 60 -34.5t0 -74.5t-60 -33q-44 0 -62.5 35.5zM794 1325q0 31 19 51q20 20 51 20t51 -20t20 -51t-20 -51q-20 -19 -51 -19t-51 19q-19 20 -19 51z" />
<glyph unicode="&#xf7;" horiz-adv-x="1228" d="M156 678v78h917v-78h-917zM534 356.5q0 34.5 23 57.5t57.5 23t57.5 -23t23 -57.5t-23 -59.5q-23 -23 -57.5 -23t-57.5 23q-23 25 -23 59.5zM535 1077q0 50 39.5 70.5t79.5 0t40 -70.5q1 -29 -15.5 -49t-40.5 -24.5t-47.5 0t-40 24.5t-15.5 49z" />
<glyph unicode="&#xf8;" horiz-adv-x="1318" d="M113 532q0 235 155 390q157 157 391 157q156 0 285 -75l53 75l60 -43l-51 -73q200 -164 200 -431q0 -234 -157 -391q-155 -155 -390 -155q-155 0 -284 75l-53 -75l-62 41l55 77q-95 74 -148.5 186.5t-53.5 241.5zM197 532q0 -226 165 -360l533 762q-103 63 -236 63 q-198 0 -331 -133q-131 -131 -131 -332zM424 131q103 -63 235 -63q197 0 330 133t133 331q0 227 -166 359z" />
<glyph unicode="&#xf9;" horiz-adv-x="1325" d="M178 422v643h82v-629q0 -156 105 -264q106 -106 264 -106q184 0 305 106q123 108 123 270v623h82v-1065h-82v236q-44 -83 -131 -156q-52 -44 -134 -69t-178 -25q-187 0 -313 123q-123 126 -123 313zM377 1452l45 68l323 -224l-34 -47z" />
<glyph unicode="&#xfa;" horiz-adv-x="1325" d="M178 422v643h82v-629q0 -156 105 -264q106 -106 264 -106q184 0 305 106q123 108 123 270v623h82v-1065h-82v236q-44 -83 -131 -156q-52 -44 -134 -69t-178 -25q-187 0 -313 123q-123 126 -123 313zM584 1296l321 224l47 -68l-336 -203z" />
<glyph unicode="&#xfb;" horiz-adv-x="1325" d="M178 422v643h82v-629q0 -156 105 -264q106 -106 264 -106q184 0 305 106q123 108 123 270v623h82v-1065h-82v236q-44 -83 -131 -156q-52 -44 -134 -69t-178 -25q-187 0 -313 123q-123 126 -123 313zM356 1294l297 240h11l299 -240l-39 -45l-265 193l-266 -193z" />
<glyph unicode="&#xfc;" horiz-adv-x="1325" d="M178 422v643h82v-629q0 -156 105 -264q106 -106 264 -106q184 0 305 106q123 108 123 270v623h82v-1065h-82v236q-44 -83 -131 -156q-52 -44 -134 -69t-178 -25q-187 0 -313 123q-123 126 -123 313zM390.5 1290.5q-18.5 35.5 0 71t62.5 35.5q42 3 60 -34.5t0 -74.5 t-60 -33q-44 0 -62.5 35.5zM794 1325q0 31 19 51q20 20 51 20t51 -20t20 -51t-20 -51q-20 -19 -51 -19t-51 19q-19 20 -19 51z" />
<glyph unicode="&#xfd;" horiz-adv-x="1060" d="M37 1065h86l403 -936l412 936h86l-571 -1296q-54 -122 -126.5 -176t-181.5 -54h-57v80h57q82 0 138.5 42.5t97.5 135.5l102 234zM455 1296l323 224l45 -68l-336 -203z" />
<glyph unicode="&#xfe;" d="M186 -461v1997h82v-727q68 125 190.5 197.5t270.5 72.5q226 0 377 -157t151 -390q0 -234 -151 -391q-149 -155 -377 -155q-148 0 -270.5 72.5t-190.5 197.5v-717h-82zM272 532q0 -199 129 -331q130 -133 322 -133q191 0 321 133t130 331q0 199 -130 332t-321 133 q-192 0 -322 -133q-129 -132 -129 -332z" />
<glyph unicode="&#xff;" horiz-adv-x="1060" d="M37 1065h86l403 -936l412 936h86l-571 -1296q-54 -122 -126.5 -176t-181.5 -54h-57v80h57q82 0 138.5 42.5t97.5 135.5l102 234zM263 1288q-18 37 0 74.5t61 34.5q42 3 60.5 -34.5t1 -74.5t-61.5 -33q-43 -4 -61 33zM674.5 1290.5q-18.5 35.5 0 71t62.5 35.5 q42 3 60 -34.5t0 -74.5t-60 -33q-44 0 -62.5 35.5z" />
<glyph unicode="&#x152;" horiz-adv-x="2568" d="M131 717q0 313 209 522t522 209q214 0 387 -103.5t264 -283.5v373h957v-82h-871v-584h775v-82h-775v-604h881v-82h-967v375q-92 -180 -264.5 -284.5t-386.5 -104.5q-313 0 -522 209q-209 212 -209 522zM219 717q0 -276 184 -463q184 -184 459 -184t459 184 q184 187 184 463q0 277 -184 461q-183 186 -459 186t-459 -186q-184 -184 -184 -461z" />
<glyph unicode="&#x153;" horiz-adv-x="2297" d="M113 532q0 235 155 390q157 157 391 157q172 0 308 -90.5t198 -243.5q62 153 196 243.5t304 90.5q230 0 381 -157q152 -158 152 -390q0 -12 -3 -18h-989q6 -193 140 -324q133 -127 333 -127q257 0 389 203l80 -28q-73 -118 -195 -185t-270 -67q-179 0 -316.5 90 t-199.5 243q-62 -153 -198.5 -243t-309.5 -90q-236 0 -391 155t-155 391zM197 532q0 -200 131 -331q133 -133 331 -133q197 0 330 133t133 331q0 199 -133 332t-330 133q-198 0 -331 -133q-131 -131 -131 -332zM1208 586h903q-15 179 -145 297q-124 118 -307 118t-307 -118 q-129 -120 -144 -297z" />
<glyph unicode="&#x178;" horiz-adv-x="1337" d="M53 1434h101l516 -770l514 770h100l-571 -846v-588h-86v582zM400.5 1622.5q-18.5 35.5 0 71t62.5 35.5q42 3 60 -34.5t0 -74.5t-60 -33q-44 0 -62.5 35.5zM804 1657q0 31 19 51q20 20 51.5 20t51.5 -20t20 -51t-20 -51q-20 -19 -51.5 -19t-51.5 19q-19 20 -19 51z" />
<glyph unicode="&#x2c6;" horiz-adv-x="901" d="M147 1491l299 240h9l299 -240l-37 -45l-266 192l-267 -192z" />
<glyph unicode="&#x2dc;" horiz-adv-x="876" d="M147 1454q0 74 52 126t125 52q63 0 125 -59q63 -60 104 -60q44 0 74 31.5t30 81.5h72q0 -79 -49.5 -129.5t-122.5 -50.5q-67 0 -129 59q-60 60 -100 60q-44 0 -76.5 -33.5t-32.5 -77.5h-72z" />
<glyph unicode="&#x2000;" horiz-adv-x="971" />
<glyph unicode="&#x2001;" horiz-adv-x="1942" />
<glyph unicode="&#x2002;" horiz-adv-x="971" />
<glyph unicode="&#x2003;" horiz-adv-x="1942" />
<glyph unicode="&#x2004;" horiz-adv-x="647" />
<glyph unicode="&#x2005;" horiz-adv-x="485" />
<glyph unicode="&#x2006;" horiz-adv-x="323" />
<glyph unicode="&#x2007;" horiz-adv-x="323" />
<glyph unicode="&#x2008;" horiz-adv-x="242" />
<glyph unicode="&#x2009;" horiz-adv-x="388" />
<glyph unicode="&#x200a;" horiz-adv-x="107" />
<glyph unicode="&#x2010;" horiz-adv-x="819" d="M156 494v77h508v-77h-508z" />
<glyph unicode="&#x2011;" horiz-adv-x="819" d="M156 494v77h508v-77h-508z" />
<glyph unicode="&#x2012;" horiz-adv-x="819" d="M156 494v77h508v-77h-508z" />
<glyph unicode="&#x2013;" horiz-adv-x="1228" d="M156 494v77h917v-77h-917z" />
<glyph unicode="&#x2014;" horiz-adv-x="2048" d="M156 494v77h1736v-77h-1736z" />
<glyph unicode="&#x2018;" horiz-adv-x="417" d="M121 1323q0 69 33.5 131t74.5 90l37 27l29 -29l-27 -24q-19 -19 -40 -67.5t-17 -92.5q47 0 67 -41t0 -81t-69 -36q-39 0 -63.5 32.5t-24.5 90.5z" />
<glyph unicode="&#x2019;" horiz-adv-x="417" d="M123 1208l24 25q22 22 43 70t17 90q-47 0 -67 41t0 80.5t69 35.5q39 0 63.5 -32.5t24.5 -90.5q0 -46 -14 -88t-37 -72t-41.5 -48t-36.5 -31l-16 -8z" />
<glyph unicode="&#x201a;" horiz-adv-x="417" d="M123 -197l24 25q21 17 42.5 65t17.5 93q-47 0 -67 41t0 80.5t69 35.5q39 0 63.5 -32.5t24.5 -90.5q0 -90 -48 -155.5t-89 -85.5l-8 -6z" />
<glyph unicode="&#x201c;" horiz-adv-x="675" d="M121 1323q0 69 33.5 131t74.5 90l37 27l29 -29l-27 -24q-19 -19 -40 -67.5t-17 -92.5q47 0 67 -41t0 -81t-69 -36q-39 0 -63.5 32.5t-24.5 90.5zM379 1323q0 69 33.5 131t74.5 90l37 27l29 -29l-27 -24q-19 -19 -40 -67.5t-17 -92.5q47 0 67 -41t0 -81t-69 -36 q-39 0 -63.5 32.5t-24.5 90.5z" />
<glyph unicode="&#x201d;" horiz-adv-x="675" d="M123 1208l24 25q22 22 43 70t17 90q-47 0 -67 41t0 80.5t69 35.5q39 0 63.5 -32.5t24.5 -90.5q0 -46 -14 -88t-37 -72t-41.5 -48t-36.5 -31l-16 -8zM381 1208l25 25q22 22 42.5 70t16.5 90q-47 0 -67 41t0 80.5t69 35.5q39 0 63.5 -32.5t24.5 -90.5q0 -46 -14 -88 t-37 -72t-41.5 -48t-36.5 -31l-16 -8z" />
<glyph unicode="&#x201e;" horiz-adv-x="675" d="M123 -197l24 25q21 17 42.5 65t17.5 93q-47 0 -67 41t0 80.5t69 35.5q39 0 63.5 -32.5t24.5 -90.5q0 -90 -48 -155.5t-89 -85.5l-8 -6zM381 -197l25 25q21 16 42 64.5t17 93.5q-47 0 -67 41t0 80.5t69 35.5q39 0 63.5 -32.5t24.5 -90.5q0 -90 -48 -155.5t-89 -85.5l-8 -6 z" />
<glyph unicode="&#x2022;" horiz-adv-x="581" d="M130 533q0 70 44 114q47 47 117.5 47t114.5 -47q47 -44 47 -114t-47 -117q-44 -44 -114.5 -44t-117.5 44q-44 47 -44 117z" />
<glyph unicode="&#x2026;" horiz-adv-x="1257" d="M129 66q-4 50 38 70.5t84.5 0t39.5 -70.5q0 -35 -23.5 -57.5t-58.5 -22.5q-32 0 -56 24t-24 56zM549 66q-4 50 38 70.5t84.5 0t39.5 -70.5q0 -35 -23.5 -57.5t-58.5 -22.5t-57.5 23.5t-22.5 56.5zM969 66q0 50 39.5 70.5t79.5 0t40 -70.5q1 -29 -15.5 -49t-40.5 -24.5 t-47.5 0t-40 24.5t-15.5 49z" />
<glyph unicode="&#x202f;" horiz-adv-x="388" />
<glyph unicode="&#x2039;" horiz-adv-x="638" d="M94 532l361 361l53 -51l-311 -310l311 -309l-53 -51z" />
<glyph unicode="&#x203a;" horiz-adv-x="638" d="M131 223l309 309l-309 310l51 51l363 -361l-363 -360z" />
<glyph unicode="&#x205f;" horiz-adv-x="485" />
<glyph unicode="&#x20ac;" horiz-adv-x="1785" d="M74 516v70h239q-19 131 0 262h-239v70h254q65 240 256 382q195 148 450 148q200 0 364.5 -90.5t258.5 -249.5l-80 -33q-87 136 -229.5 212.5t-313.5 76.5q-220 0 -387 -123q-165 -122 -227 -323h678v-70h-695q-24 -131 0 -262h695v-70h-678q62 -201 227 -323 q167 -123 387 -123q171 0 313.5 76t229.5 212l80 -32q-94 -159 -258.5 -249.5t-364.5 -90.5q-255 0 -450 145q-192 146 -254 385h-256z" />
<glyph unicode="&#x2122;" horiz-adv-x="1636" d="M29 1374v60h639v-60h-289v-657h-62v657h-288zM801 717v717h59l309 -539l314 539h59v-717h-59v606l-293 -512h-39l-291 508v-602h-59z" />
<glyph unicode="&#x25fc;" horiz-adv-x="1064" d="M0 0v1065h1065v-1065h-1065z" />
</font>
</defs>
</svg>
