<svg xmlns="http://www.w3.org/2000/svg" viewBox="0 0 415.5 356.39"><defs><style>.cls-1{fill:#bcc1d0;}.cls-2,.cls-5{fill:#2f345b;}.cls-2{opacity:0.29;}.cls-3{fill:#d0d5e7;}.cls-4{fill:#c7ccdd;}</style></defs><title>stickies</title><g id="Layer_2" data-name="Layer 2"><g id="Draw_Layer" data-name="Draw Layer"><path class="cls-1" d="M183.81,204.41l-.2.06a12.52,12.52,0,0,0-1.74.53c-1,.39-2,.81-2.9,1.26a56,56,0,0,1-6.41,2.51c-1.67.57-3.34,1.23-4.94,1.87l-1.62.65-2.25.85c-1.46.55-3,1.11-4.43,1.76-2.21,1-4.43,2.07-6.57,3.11-1.83.89-3.86,1.75-6.38,2.72s-4.83,1.92-6.88,2.85l-2.74,1.28c-1.24.58-2.49,1.17-3.75,1.73l-.38.17c-.92.41-1.85.82-2.79,1.21-.78.33-1.57.63-2.37.93l-.75.29a26.56,26.56,0,0,0-3.33,1.5l-.82.45c-.71.39-1.42.78-2.15,1.14s-1.55.76-2.33,1.13a2.17,2.17,0,0,0-1.09,2.81,2.19,2.19,0,0,0,.93,1l0,.39,0,.41c.06.67.08,1.34.09,2l0,.76c.07,2.08.2,4.15.32,5.9,0,.67,0,1.35,0,2,0,.31,0,.62,0,.93,0,1.15.05,2.18.11,3.13.12,1.82.19,3.79.21,6.18,0,1.42.07,2.84.13,4.25l.07,1.7c0,1.74.22,3.51.39,5.21l.12,1.38c.36,3.94.76,8.42.84,12.79,0,1.72.13,3.47.22,5.15l.07,1.23c.06,1.12.08,2.26.09,3.36s0,1.91.07,2.86l0,.54c.07,1.85.16,3.76.17,5.64,0,.47,0,.94,0,1.41s0,1.12,0,1.68,0,1.28,0,1.91l0,1.27c0,1.35.12,2.72.21,4.05,0,.71.09,1.41.12,2.12,0,.5,0,1,.06,1.52s0,1.17.08,1.76.06.94.09,1.41.08,1.16.11,1.74c0,1.09.1,2.18.13,3.26s.09,2.18.14,3.26.11,1.91.17,2.86c.06,1.14.13,2.28.19,3.42.06,1.36.14,2.4.26,3.37l.15,1.12c.06.47.12.94.17,1.41.06.67.1,1.34.13,2s.07,1.09.11,1.64.1,1.2.16,1.8.13,1.27.18,1.9.07,1.41.05,2c0,.4-.06.8-.1,1.2l0,.45a11.75,11.75,0,0,0,.69,4.34,2.48,2.48,0,0,0,.65,1.12c.66,0,1.33-.07,2-.09s1.55.11,2.32.14l1.93.09.87.08c.58,0,1.16,0,1.75,0,2,.06,4.07,0,6.11,0,1.56-.05,3.12-.05,4.67-.11.59,0,1.18-.05,1.78-.05a14.83,14.83,0,0,1,1.51-.21c.52,0,1-.07,1.57-.09s1.17-.06,1.75-.11,1-.11,1.5-.18.94-.14,1.43-.18H154l3.13-.31c.46-.05.92-.12,1.39-.19.62-.09,1.27-.19,1.9-.23l1,0c.52,0,1.05,0,1.57,0l.67,0c1.67.06,3.29.1,4.82.1l2.22,0,3,0c1.28,0,2.55,0,3.82-.05a16.16,16.16,0,0,0,1.72-.15c.44-.05.89-.11,1.34-.14,1-.06,1.95-.1,2.92-.14h.42l1.09,0c.82,0,1.68,0,2.51-.13l1-.13c.68-.08,1.35-.16,2-.22,1.44-.13,2.9-.2,4.32-.26l2.1-.11,1.44-.06,2-.1c1-.07,2.06-.16,3.09-.26l.34,0c2.27-.22,4.47-.42,6.68-.58,1.21-.09,2.43-.15,3.64-.2.57,0,1.11,0,1.66-.05s1.18,0,1.76-.05c2.23-.11,4.45-.38,6.72-.67,2.51-.33,4.81-.59,7-.8,1.38-.12,2.79-.18,4.15-.23.93,0,1.87-.07,2.8-.13,1.72-.1,3.46-.32,5.15-.54l1.74-.22c1.05-.12,2.11-.21,3.16-.31s2.28-.19,3.42-.34l.73-.09c1-.12,1.9-.24,2.85-.33s1.61-.13,2.41-.19l1-.07c1.05-.07,2.11-.19,3.16-.3l.24,0c.78-.08,1.58-.23,2.35-.38l1-.18c1.11-.2,2.23-.37,3.36-.54l.75-.12c.86-.13,1.76-.27,2.64-.36,1.53-.14,3.08-.34,4.58-.53l2.13-.27c2.25-.27,4.5-.42,6.79-.55,1.75-.1,3.5-.25,5.25-.39l1.73-.15c.78-.06,1.55-.13,2.33-.21,1.24-.19,2.47-.43,3.7-.63a49.58,49.58,0,0,1,5.57-.45c2.75-.12,5.51-.22,8.26-.4.28,0,.57,0,.85-.09h.11l.46-.07c2.09-.33,4.26-.66,6.4-.85l1.51-.12,2-.21c1.8-.18,3.55-.61,5.32-.95s3.45-.58,5.2-.78,3.77-.36,5.65-.7,3.65-.6,5.48-.9,3.54-.66,5.31-1c1.53-.24,3-.69,4.53-.95l.32-.05a1.8,1.8,0,0,0,.08-.83c-.08-.66-.16-1.31-.28-2l-.07-.39c-.09-.48-.18-.95-.23-1.43-.07-.66-.1-1.32-.13-2,0-.49,0-1-.08-1.48-.09-1.13-.25-2.26-.4-3.36l-.05-.31c-.13-.95-.35-1.91-.56-2.83l-.13-.59a24.61,24.61,0,0,1-.29-2.89,22.69,22.69,0,0,0-.31-2.88c-.07-.41-.15-.83-.23-1.24s-.21-1.08-.29-1.63-.14-1-.21-1.53-.14-1-.22-1.54-.19-1.1-.29-1.65l-.18-1c-.13-.75-.2-1.51-.27-2.24l0-.38c-.2-2-.4-4-.56-6.11,0-.59-.11-1.19-.18-1.78,0-.32-.08-.64-.11-.95-.1-1-.18-2.05-.26-3.07l-.36-5.61c0-.4-.07-.8-.1-1.2,0-.57-.09-1.15-.12-1.73-.06-1-.07-2.09,0-3.35a27,27,0,0,0-.21-3.26c-.07-.6-.13-1.21-.18-1.81-.06-.92-.09-1.83-.11-2.74a19.12,19.12,0,0,0-.23-2.58c-.12-.88-.2-1.76-.29-2.64a24.75,24.75,0,0,0-.53-3l0-.19a35.14,35.14,0,0,1-.42-3.88l0-.27c0-.63-.08-1.26-.15-1.89l0-.39c-.06-.61-.12-1.23-.12-1.85a41.55,41.55,0,0,0-.18-4.24c-.08-.72-.14-1.43-.18-2.15l0-.34c0-.46-.06-.93-.05-1.4a2.11,2.11,0,0,0-1.23-1.77,2.57,2.57,0,0,0-.5-.15,3.4,3.4,0,0,0-2.7-1.07l-.58-.06c-.82-.1-1.68-.25-2.64-.45s-2.07-.58-3.07-.89-1.94-.6-2.91-.85a34.28,34.28,0,0,0-4-.67c-1-.14-2.11-.27-3.15-.49s-1.95-.59-2.89-.91-2.1-.73-3.18-1c-2.33-.58-4.73-1-7.05-1.4l-.4-.07-1.65-.29c-1.69-.29-3.44-.61-5.17-.85-2.38-.33-4.76-.71-7.08-1.12s-4.63-.81-6.95-1.2c-1.35-.22-2.73-.38-4.06-.54-1-.12-2.05-.25-3.07-.39l-1.38-.21c-1.85-.28-3.76-.57-5.66-.73-2.88-.23-5.1-.36-7.19-.42-.5,0-1,0-1.5,0-1.85,0-3.73.08-5.55.17l-1.13.05h-1.55c-1.7,0-3.39-.07-5-.21-2.3-.21-4.76-.41-7.17-.54-3.14-.17-6.33-.2-9.41-.24-1.67,0-3.35,0-5-.08q-3.6-.08-7.2-.1H226c-2,0-4.16,0-6.23-.15-4.84-.28-9.83-.49-14.85-.63-.71,0-1.41,0-2.12,0s-1.42,0-2.12,0l-2,.1-1.81.1h-1a12.17,12.17,0,0,1-1.94-.13,1.41,1.41,0,0,1-.24-.16l-.18-.21c0-.09-.08-.17-.11-.26a9.28,9.28,0,0,1-.11-1.06v-.81c0-.54,0-1.09,0-1.63a25.13,25.13,0,0,0-1-5.66c-.13-.45-.28-.88-.42-1.32s-.23-.7-.34-1.05A21.2,21.2,0,0,1,191,215c-.06-.56-.1-1.13-.14-1.69s-.07-1.13-.13-1.69a14.94,14.94,0,0,0-.77-3,9.79,9.79,0,0,0-.68-1.56,5.77,5.77,0,0,0-.72-1.1,4.54,4.54,0,0,0-1.54-1.16,5.32,5.32,0,0,0-1.85-.54H185a4.39,4.39,0,0,0-1.15.19Z"/><path class="cls-1" d="M124.72,356.12Z"/><path class="cls-2" d="M178.57,203.1a29.55,29.55,0,0,0-1.68,5.18c-.1.66-.1,1.32-.22,2s-.27,1.33-.37,2-.1,1.38-.21,2.06-.25,1.39-.3,2.11-.13,1.31-.15,2a9.47,9.47,0,0,1-.21,1.6,14.86,14.86,0,0,0-.66,4.12c0,.24,0,.47,0,.71v-.41h0v-.3c0,.11,0,.22,0,.33a14.17,14.17,0,0,1-.21,1.61c-.08.54-.07,1.07-.13,1.61s-.22,1-.28,1.46a17.72,17.72,0,0,0,0,2.06,9,9,0,0,1-.15,1.46,14.24,14.24,0,0,0-.3,1.83c0,.19,0,.36,0,.52v.12l-.09.91a8.68,8.68,0,0,0,.27,4.38,5.32,5.32,0,0,0,1.39,2,7.94,7.94,0,0,0,1.42.94,9.23,9.23,0,0,0,2.38.78,31.77,31.77,0,0,0,3.17.9,20.13,20.13,0,0,0,4.18.18,35.14,35.14,0,0,1,4.21.55c.68.12,1.35.31,2,.46s1.34.23,2,.34,1.36.26,2,.33,1.34.09,2,.17,1.42.29,2.14.38,1.46.13,2.18.28c.89.27,1.77.55,2.69.74s1.54.22,2.31.4a25,25,0,0,0,2.72.65c.93.15,1.86.27,2.79.4s1.84.35,2.76.53,1.83.33,2.74.49,2,.42,3,.6c1.33.23,2.68.24,4,.44s2.39.44,3.62.51,2.26.11,3.39.21c.68.06,1.35.18,2,.24s1.63.12,2.44.16c1.48.08,3,.14,4.43.17,3,.07,6.08.3,9.13.51s6.22.37,9.33.6,5.9.58,8.86.72c1.61.07,3.21.14,4.81.23s3.37.05,5,.05c2,0,4,.17,6,.28s4.21.14,6.31.23q2.54.09,5.07.21c.91.05,1.81.18,2.73.19.68,0,1.35,0,2,0h1.28c1.88,0,3.77.13,5.65.19,2.24.08,4.47.24,6.71.24h0l3.79,0c1.43,0,2.86.08,4.3.1s3.07.14,4.62.25,3.28.09,4.92.09h.43c1.62,0,3.22-.05,4.84-.15,1.07-.07,2.15-.06,3.22-.05h1.46c1.3,0,2.6.08,3.91,0s2.37-.15,3.56-.14h.37a20,20,0,0,0,2.45-.08c1-.11,1.91-.2,2.87-.22.69,0,1.38.08,2.07.09,1.33,0,2.62-.11,3.94-.22,2-.16,4-.31,6-.29h.23c1.52.06,3,.15,4.56.1,1.36,0,2.72-.18,4.08-.2a29.53,29.53,0,0,0,3.52,0c.51,0,1-.12,1.52-.15s1.05,0,1.58,0a21.38,21.38,0,0,0,3.2-.29,19.22,19.22,0,0,1,2.63-.11c1.37,0,2.74.15,4.11.25s2.44.15,3.66.2,2.16.19,3.23.3c.39,0,.77.06,1.16.12l.22,0a3.49,3.49,0,0,0,2.66.19,6.84,6.84,0,0,0,.89-.46,3.08,3.08,0,0,0,1.27-2.12,3,3,0,0,0-.58-2.33,3.21,3.21,0,0,0-1.33-1.06c-.31-.1-.62-.19-.93-.26l-.38-.1c-.32-.08-.64-.15-1-.2-.54-.09-1.1-.12-1.64-.17-.76-.08-1.52-.18-2.28-.21s-1.53,0-2.3-.1c-1.8-.13-3.6-.31-5.4-.37-1.15,0-2.29,0-3.44,0a21.56,21.56,0,0,0-2.77.32,13.33,13.33,0,0,1-2,.07c-.37,0-.73,0-1.1,0-.94,0-1.87.18-2.81.22-1.19,0-2.37-.09-3.56,0s-2.36.17-3.54.18-2.09-.08-3.13-.1h-.77c-1.45,0-2.89,0-4.33.12-.81,0-1.63.14-2.44.21s-1.47.16-2.21.18c-1.42,0-2.82-.14-4.24-.07s-2.57.3-3.87.29h-.35c-1,0-2.06,0-3.08.07a23.28,23.28,0,0,1-2.36.1c-1.93,0-3.86-.07-5.79,0s-3.82.21-5.74.2l.81,0c-1.13,0-2.25,0-3.38,0s-2.44-.17-3.66-.25c-1.61-.1-3.23-.11-4.84-.13-2.24,0-4.48-.09-6.72-.1h-.91c-2.26-.05-4.51-.23-6.77-.27-1.24,0-2.49-.06-3.73-.14s-2.46,0-3.69,0c-.8,0-1.59-.13-2.39-.17s-1.56-.07-2.34-.09c-2.12,0-4.24-.18-6.37-.24s-4.21-.21-6.32-.32c-2.35-.12-4.69-.09-7-.11-6-.18-11.88-.84-17.82-1.24-3.05-.21-6.11-.33-9.16-.58s-6.05-.23-9.07-.39c-1.5-.08-3-.14-4.48-.33-1.17-.15-2.34-.2-3.51-.27a25.18,25.18,0,0,1-3.57-.41c-1.32-.26-2.68-.33-4-.48-1.07-.12-2.12-.36-3.17-.58s-1.86-.29-2.78-.48c-1.84-.41-3.69-.71-5.56-1-.73-.11-1.46-.24-2.18-.42a14.79,14.79,0,0,0-2.06-.52c-.71-.11-1.42-.21-2.12-.37a19.43,19.43,0,0,0-2.82-.72c-.93-.14-1.85-.2-2.77-.39a22,22,0,0,0-2.29-.26c-.8-.08-1.59-.22-2.38-.35s-1.57-.24-2.34-.41-1.61-.37-2.44-.51-1.7-.29-2.56-.37a32.37,32.37,0,0,0-3.55-.09,12.63,12.63,0,0,1-2.21-.3l-2.48-.73-.29-.1.09-.8c0-.41.07-.81.1-1.21a3,3,0,0,0,.05-.67c.08-.76.3-1.5.39-2.25a21.13,21.13,0,0,0,0-2.87c0-.29.11-.59.18-.88a7.35,7.35,0,0,0,.13-1.24,14,14,0,0,1,.18-1.43,9.11,9.11,0,0,0,.12-1.47c0-.21,0-.42,0-.63a13.13,13.13,0,0,1,.36-2.33,10.16,10.16,0,0,0,.42-1.71c.07-.53.07-1.06.11-1.59.09-1.19.25-2.36.44-3.54.09-.58.1-1.17.17-1.75s.2-1.18.31-1.77c.2-1,.2-2,.41-3s.78-2,1.13-3a3.31,3.31,0,0,0,0-2.4,3.12,3.12,0,0,0-2.94-2,3.1,3.1,0,0,0-3,1.92Zm-3.81,21.61v0Zm214.32,30.7h0Zm-71.15,1.25h0Zm31.8.13h0Zm.59,0h0Zm-17.38.32h0Zm-.13,0h0Zm-.1,0h0Zm-17.85-6.78h0ZM181.07,224.91v0Zm0,0c0-.17,0-.34,0-.52v.52Zm-6.3-.74h0v0Z"/><path class="cls-3" d="M232.57,49.7l-.48,0H232a2.17,2.17,0,0,0-2.08,2.07,2.14,2.14,0,0,0,1.55,2.1c0,1-.1,1.85-.2,2.61l-.18,1c-.18,1-.37,2-.49,3-.12,1.18-.25,2.35-.43,3.52-.34,1.85-.81,3.74-1.23,5.4-.22.91-.43,1.82-.64,2.73s-.44,2-.69,2.92l-.2.79c-.19.75-.38,1.49-.54,2.24l-.11.51c-.19.9-.37,1.78-.61,2.66-.18.71-.39,1.41-.59,2.1l-.26.91c-.2.7-.37,1.39-.54,2.09l-.16.64c-.29,1.2-.66,2.4-1,3.55-.26.85-.52,1.7-.75,2.55-.35,1.29-.66,2.62-1,3.91-.17.74-.35,1.49-.53,2.23-.27,1.09-.63,2.18-1,3.23-.29.88-.58,1.79-.83,2.69l-.1.39c-.57,2.1-1.17,4.26-1.8,6.38-.58,1.91-1.21,3.84-1.83,5.71l-.09.25q-1,3.12-2.12,6.23c-.69,2-1.35,4-2,6s-1.37,4.14-2.1,6.21c-.39,1.12-.75,2.26-1.12,3.39-.31.94-.62,1.89-.94,2.82-.54,1.59-1.19,3.17-1.82,4.7l-.48,1.18c-.52,1.29-1.05,2.58-1.58,3.87-1.11,2.71-2.27,5.5-3.31,8.29-.46,1.22-.94,2.43-1.43,3.64s-1,2.42-1.42,3.64c-.31.83-.61,1.67-.9,2.5l-.43,1.22c-.39,1.07-.86,2.23-1.44,3.54l-.56,1.16q-.78,1.62-1.53,3.24l.08-.14c0,.12-.11.24-.17.36l0,.05-.05.1s0,0,0,0c-.49,1-1,2-1.48,3s-.85,1.75-1.27,2.63a2.48,2.48,0,0,0-.17.37l-.06.14-.1.2,0,0c-.25.5-.49,1-.73,1.52s-.5,1.09-.76,1.63l-.6,1.36-.25.57c-.39.83-.84,1.68-1.35,2.6-.34.6-.64,1.22-.94,1.84-.15.32-.3.64-.46,1-.4.79-.86,1.61-1.49,2.66-.27.45-.55.9-.83,1.34l-.07.1a4.68,4.68,0,0,0-.87,2.14,2.11,2.11,0,0,0,1.26,2c-.27.85-.49,1.71-.72,2.58l-.15.59-.15.54c-.11.41-.22.82-.3,1.24s-.17,1-.23,1.47l-.07.48-.09.47c-.12.62-.24,1.25-.32,1.88,0,.31-.08.61-.11.92s-.07.62-.11.92l-.1.61c-.15.88-.27,1.75-.39,2.62l-.2,1.07L179,221.5l0,.16h0v.11h0l0,.12,0,.16-.07.42a25.87,25.87,0,0,0-.41,3.06c0,.55-.05,1.11-.07,1.66s0,.95,0,1.43c-.07,1.33-.15,2.35-.25,3.29-.07.62-.15,1.24-.24,1.84q-.06.5-.09,1l0,.45a10.28,10.28,0,0,1-.52,1.65,2.66,2.66,0,0,0-.28,1.21,2.91,2.91,0,0,0,.36,1.34,3.2,3.2,0,0,0,1,1.06,7.45,7.45,0,0,0,3.24.83l2.07.25c1.48.26,3.22.59,4.93,1l1.09.29c.47.13,1,.26,1.42.37.95.23,2,.42,3.26.62l1.37.19,1.36.2c1.38.23,3,.53,4.68,1l1.4.38c1.23.34,2.5.69,3.78.91a56,56,0,0,0,6,.72l1.29.08,1.56.1c.92.07,1.84.22,2.72.37s1.8.3,2.71.43l1.71.36a29,29,0,0,0,3.14.56l1.53.13c.87.06,1.76.14,2.64.26l.35.06c1,.17,2.06.35,3.11.47.63.07,1.26.11,1.9.15l1.44.11c1.17.11,2.33.26,3.5.41.87.1,1.74.22,2.62.31a34.7,34.7,0,0,0,3.52.25h1.21c.74,0,1.47,0,2.21,0,.92,0,2.14.11,3.37.24s2.2.22,3.29.3l1.47.12c2,.15,4,.31,6,.42l.64,0c1,0,1.93.1,2.89.18l1.19.1c.71.07,1.42.13,2.14.18.5,0,1,.08,1.5.12s1.25.12,1.88.15l.42,0c1,.06,2,.12,3,.2l3.2.28c.89.09,1.79.15,2.68.2l.9.06c1.91.13,4,.22,6.6.3l1.84,0,1.72,0c.69,0,1.38,0,2.07-.09l1.35-.08c.5,0,1,0,1.51,0s1.28,0,1.92,0,1.43.08,2.14.13l1.2.09c1,.06,2,.09,3.11.09,1.39,0,2.75,0,3.78-.09s1.78,0,2.66,0c1.09,0,2.17,0,3.26,0l1.16,0h1.19c2,0,4-.07,5.76-.14h.2c.89,0,1.79-.08,2.69-.08h.56c1.14,0,2.29.07,3.43.12.72,0,1.45,0,2.17,0l1.67,0h2.86c.84,0,1.68.07,2.53.12,1,0,2.05.11,3.08.11l1.08,0c.69,0,1.37-.07,2.05-.12l1.38-.08c1-.06,2.06-.07,3.27-.08s2.48-.07,3.69-.15c.92-.05,1.83-.1,2.75-.13,1.08,0,2.16-.05,3.25-.06.61,0,1.21,0,1.82-.05s1-.05,1.52-.06l2.06,0c.92,0,1.83-.05,2.75-.06,1.7,0,3.35-.16,4.75-.3,1.11-.09,2.27-.19,3.41-.22h.33c.93,0,1.86.07,2.89.16.58.05,1.21.07,2,.07h1.6c1,0,1.92.07,2.81.13a11.45,11.45,0,0,0,1.17.05l1.33,0,.6,0h.78c.85,0,1.67,0,2.45.1.47,0,.94.06,1.42.06l1.33,0h.35l.93,0c.42,0,.85-.05,1.27-.05s.62,0,.92,0l.38,0,.37,0H402a1.86,1.86,0,0,0,1.22-.48h.18a2.15,2.15,0,0,0,1.5-.55,2,2,0,0,0,.69-1.51,2.81,2.81,0,0,1,0-.41,2.8,2.8,0,0,0,0-.29c0-.34,0-.67,0-1,0-.54,0-1.09-.05-1.64,0-.32,0-.64,0-1,0-.81,0-1.62.08-2.4l0-.7c0-.63,0-1.27.06-1.9V241a53.26,53.26,0,0,1,.37-5.71l0-.14c.13-1,.27-2,.33-3l0-.28c.06-.89.13-1.81.25-2.71l.08-.42c.16-1,.33-1.95.43-2.93a13.76,13.76,0,0,0,0-2c0-.3,0-.6,0-.9,0-1.46.09-2.94.17-4.37,0-.59.07-1.19.1-1.77.08-1.69.1-3.41.12-5.07v-1c0-.68,0-1.36,0-2l0-1a27.85,27.85,0,0,1,.13-3c0-.63.11-1.25.17-1.88,0-.44.09-.88.13-1.31a23.19,23.19,0,0,0,.05-2.92c0-1-.08-2.11-.05-3.16a29.69,29.69,0,0,1,.27-3c.15-1.15.25-2,.32-2.85.08-1,.08-2,.07-3.17,0-1.44.09-2.91.18-4.33.05-.81.11-1.63.14-2.44l.09-1.78.12-2.72a37.81,37.81,0,0,1,.37-3.81c.2-1.14.38-2.18.48-3.24s.1-2,.1-3a45.05,45.05,0,0,1,.57-5.8,25.09,25.09,0,0,0,.28-2.93l0-.52c0-.86.06-1.72.12-2.58.12-1.78.2-3.67.26-6.14,0-.39,0-.78,0-1.18s0-1.08,0-1.62c.05-1,.12-2,.2-3,.18-2.17.26-4.4.31-6.32,0-1.23.06-2.45.08-3.68l0-2.21c0-1.55.19-3.12.33-4.64l.11-1.17c.13-1.34.19-2.72.24-4,0-.76.06-1.52.1-2.27,0-.46.07-.92.1-1.37.06-.65.11-1.31.13-2s0-1.46,0-2.19v-1c0-1.44.11-2.9.2-4.31l.12-1.94c0-.64.05-1.3.06-2a31.5,31.5,0,0,1,.28-4.1c.08-.43.16-.86.25-1.28.14-.71.28-1.45.37-2.18.14-1.05.19-2.12.22-3l0-.52c0-.9.07-1.8.14-2.71l.07-.71a21.84,21.84,0,0,0,.15-2.3c0-.5,0-1,0-1.49s0-.93,0-1.4c0-1.11,0-2.23,0-3.35,0-.88.07-1.75.11-2.62l0-.8c0-.81,0-1.62,0-2.42V72.6c0-.87.05-1.76.1-2.61,0-.44,0-.87.07-1.31s0-.76,0-1.14a18.6,18.6,0,0,1,.11-2.23c0-.24.09-.48.14-.72-1.13,0-2.25,0-3.36-.06-.86-.07-1.7-.26-2.55-.35s-1.81-.16-2.69-.34-1.75-.43-2.61-.67c-.69-.19-1.4-.29-2.1-.44s-1.52-.31-2.28-.44-1.67-.18-2.51-.25l.73,0c-2.05-.13-4.06-.45-6.1-.62-1.13-.05-2.26,0-3.39-.07-1.29,0-2.58-.11-3.87-.2L383,61.06q.48,0,1,.06L382.19,61a35,35,0,0,1-4.21-.47q-1.83-.33-3.69-.48C373.13,60,372,60,370.78,60s-2.61-.15-3.91-.21-2.67,0-4,0-2.51.08-3.76,0a34.8,34.8,0,0,1-5.28-.66,38.73,38.73,0,0,0-4-.51c-1.32-.12-2.64-.23-4-.37-1.13-.13-2.25-.27-3.38-.37-2.53-.12-5.06-.14-7.58-.38s-4.77-.51-7.16-.69c-1.73-.09-3.47-.16-5.21-.27l-2.31-.13,1,.06c-1.37-.07-2.75-.14-4.13-.24-3.09-.16-6.19,0-9.28-.26s-6.16-.7-9.25-1c-1.5-.07-3-.06-4.5-.13s-3.14-.21-4.71-.24c-1.74,0-3.49,0-5.24.05s-3.72-.16-5.57-.3c-1.29,0-2.58,0-3.86-.08l-3.74-.16c-2.95-.14-5.91-.28-8.86-.47l1,.06c-1.16-.07-2.32-.09-3.48-.19l1,.06c-3.25-.21-6.46-.74-9.7-.95l1,.07c-1.66-.11-3.29-.35-4.94-.5-1.25-.11-2.48-.3-3.7-.52-1.07-.19-2.16-.3-3.23-.5l-.44-.07a8.62,8.62,0,0,1-.94.22,6.46,6.46,0,0,1-4.23-.33,3.88,3.88,0,0,1-1.5-1.42l-.19.08Z"/><path class="cls-2" d="M267.6,178.29c-.65.29-1.25.66-1.93.91l.48-.17-1.46.56c-.27.09-.55.16-.82.24-.62.18-1.22.44-1.82.66l.76-.27c-.63.22-1.25.45-1.88.7l-.59.21.77-.27-1.36.49c-1,.34-2.06.64-3.08,1l.05,0h0l.46-.17-.56.2-2.25.78-1.28.47c-.91.3-1.85.53-2.76.82-1.21.39-2.41.8-3.6,1.24-.92.31-1.85.57-2.77.87-1.21.37-2.39.82-3.57,1.25s-2.49.79-3.72,1.24c-1,.36-1.94.76-2.92,1.12l.77-.28c-2.13.76-4.22,1.59-6.34,2.36-1.31.46-2.64.88-3.93,1.39-.93.36-1.85.74-2.79,1.09s-1.9.79-2.86,1.19L215.9,197c-1.5.51-3,.95-4.5,1.48l.77-.27c-.76.26-1.51.53-2.26.81l-1.13.4.77-.28c-1.16.42-2.31.86-3.46,1.31-.93.36-1.83.85-2.76,1.22-1.76.71-3.54,1.38-5.32,2.05s-3.4,1.19-5.09,1.83l-3.08,1.18c-.72.29-1.43.61-2.16.89-1.75.62-3.5,1.24-5.25,1.88l-2.62.91c-.82.29-1.6.65-2.4,1-1.32.45-2.66.81-4,1.26s-2.75.93-4.14,1.34-2.71.81-4.06,1.25c-1.51.5-3,1.07-4.49,1.62s-3.21,1-4.8,1.55l.43-.16c-1.23.43-2.48.77-3.74,1.08s-2.64.68-4,1c-1.91.43-3.77,1-5.63,1.65-1.09.36-2.18.66-3.29.94-.89.22-1.78.46-2.65.75s-1.79.58-2.69.85c-1.08.33-2.2.54-3.28.88s-2,.71-3,1.07-2.29.58-3.41,1-2.52.84-3.77,1.29l.43-.15c-.51.17-1,.36-1.52.54s-.8.27-1.19.42c-.85.28-1.7.53-2.55.79-1.27.38-2.46,1-3.7,1.42-1.51.53-3,1.1-4.51,1.65-2.28.76-4.57,1.46-6.88,2.12-1.43.41-2.86.81-4.26,1.32s-2.58,1-3.88,1.45l.07,0c-1.48.53-2.94,1.11-4.41,1.65-1.27.44-2.55.8-3.83,1.22-1.62.53-3.2,1.16-4.8,1.75-1,.35-2.05.69-3.07,1.08s-1.93.85-2.93,1.22-1.78.64-2.68,1c-1.71.57-3.47,1-5.23,1.42-.95.22-1.93.26-2.89.41a15.14,15.14,0,0,0-3.36,1.2A3.19,3.19,0,0,0,60.2,255a3.41,3.41,0,0,0,2.43-.19l1.25-.53a13.55,13.55,0,0,1,2.37-.35,19.46,19.46,0,0,0,3.2-.71c.91-.25,1.84-.47,2.74-.77s2-.7,3-1.07,1.74-.6,2.59-.94,1.62-.72,2.46-1c1.77-.63,3.53-1.28,5.29-1.92,1.4-.47,2.84-.85,4.24-1.34,1.74-.6,3.45-1.28,5.17-1.93,1.4-.51,2.79-1,4.19-1.56,2.51-.85,5.1-1.42,7.61-2.24,1.39-.46,2.79-.91,4.16-1.43.84-.32,1.69-.65,2.54-1s1.53-.51,2.28-.82c.53-.22,1-.44,1.57-.64s1.12-.33,1.67-.51,1.26-.41,1.88-.63,1.25-.44,1.87-.67l1.81-.65c2-.7,4.15-1.14,6.17-1.88l-.11,0,1.35-.49c.94-.32,1.89-.56,2.86-.8s2-.6,3-.91,1.71-.55,2.59-.79,2-.49,3.05-.81c1.87-.59,3.72-1.25,5.62-1.75.61-.16,1.23-.26,1.84-.41l2-.5c1.36-.32,2.71-.64,4-1.06.44-.14.87-.29,1.29-.44,1.16-.4,2.34-.73,3.51-1.09s2.24-.81,3.36-1.22c2.87-1,5.79-1.79,8.66-2.77,1.48-.5,3-.95,4.45-1.42,1.67-.53,3.25-1.23,4.88-1.84,1.22-.42,2.42-.85,3.62-1.29,1.93-.68,3.86-1.31,5.74-2.12,1.67-.72,3.39-1.35,5.11-2,2.33-.82,4.64-1.68,6.94-2.56s4.5-1.92,6.79-2.78l.64-.22,1.09-.4.92-.33c1.11-.37,2.23-.7,3.34-1.06,1.28-.42,2.53-.94,3.78-1.44,2.11-.85,4.19-1.72,6.31-2.54,1.44-.5,2.89-1,4.32-1.52s3-1.18,4.59-1.74l-.43.16c1.2-.44,2.38-.9,3.57-1.35l2.07-.66c.8-.27,1.59-.57,2.38-.86,1.83-.63,3.69-1.16,5.52-1.81,2.4-.8,4.84-1.49,7.21-2.37l-.77.27,1.48-.53-.77.28,2.25-.78.26-.09.08,0h0c.55-.18,1.11-.33,1.66-.5.77-.23,1.51-.52,2.26-.81l0,0,.38-.13-.3.1,1.65-.61-.77.27,1.27-.46c.64-.21,1.29-.38,1.92-.62l1.14-.46a9.8,9.8,0,0,0,1.81-.81,8.18,8.18,0,0,1,1-.5,3.17,3.17,0,0,0,1.34-.34,3.35,3.35,0,0,0,1.58-1.85l0-.09a3.07,3.07,0,0,0-.19-2.43,3.23,3.23,0,0,0-2.69-1.74H271a8.73,8.73,0,0,0-3.44,1.1Zm-5.91,2.36-.62.22.62-.22ZM128.85,226.12l-.69.25,0,0,.74-.27Zm-1.2.43-.22.08.22-.08Zm2.24,5.91.65-.23-.65.23Zm81.33-27.24.61-.21-.61.21Zm.64-.22h0L212,205l-.13.05Zm47.2-16.8-.34.12-.42.15.76-.27Zm-5-4.93.33-.12.44-.16-.77.28Z"/><path class="cls-2" d="M3.17,68.29C2.1,68.62,1,69,0,69.39c.11.49.18,1,.28,1.48.2,1,.51,1.94.79,2.9s.54,2,.84,3a16.31,16.31,0,0,0,.74,2.17c.19.43.44.83.63,1.26s.29,1,.46,1.49a26.37,26.37,0,0,0,1,2.47c.51,1.19,1,2.36,1.48,3.57S7,89.9,7.45,91c.37.82.79,1.62,1.13,2.46.37,1.07.73,2.15,1.14,3.21s.78,1.84,1.14,2.77.55,1.74.85,2.6c.38,1.09.82,2.15,1.23,3.23.13.34.25.68.37,1l-.27-.77c.12.35.24.7.37,1,.45,1.27.88,2.55,1.33,3.82-.05-.13-.09-.26-.14-.38.75,2.12,1.27,4.3,1.85,6.47.34,1.2.65,2.42,1,3.61s.74,2.17,1.14,3.24c.6,1.81.94,3.68,1.47,5.52s1.31,3.77,2,5.63c.06.19.13.37.19.56a3.44,3.44,0,0,0,.21.53l.09.26c.31.95.59,1.92.89,2.88s.72,2.11,1.1,3.16c.23.66.43,1.33.63,2,.25.84.56,1.66.85,2.48.37,1,.72,2,1,3.05a42.93,42.93,0,0,0,1.38,4.15c.43,1,.95,2,1.36,3.06s.83,2.16,1.22,3.25c-.06-.18-.13-.36-.19-.53.64,1.8,1.31,3.58,2,5.36.55,1.52,1.11,3,1.67,4.53.39,1.1.79,2.21,1.21,3.3.33.85.69,1.7,1,2.55s.64,2,.92,3c.32,1.14.71,2.25,1.11,3.36.25.73.45,1.47.68,2.2.37,1.14.78,2.26,1.18,3.38l-.28-.76.57,1.58a.56.56,0,0,1,0-.12c.36,1,.73,2.06,1,3.1s.55,2,.87,3c.62,2,1.14,4,1.83,6,.44,1.26.85,2.52,1.2,3.81s.78,2.55,1.16,3.82.77,2.51,1.08,3.79.51,2.41.85,3.59c.39,1.4.87,2.76,1.25,4.16.28,1.05.45,2.15.64,3.23.34,1.86.88,3.68,1.14,5.56.16,1.15.34,2.29.6,3.42s.64,2.35.92,3.53c.23.95.54,1.88.77,2.83s.35,1.68.47,2.54c.14,1,.34,2.1.51,3.15.08.53.22,1.05.32,1.58s.16,1,.22,1.45a29.77,29.77,0,0,0,.66,4.61,4.35,4.35,0,0,0,2.75,3.45,8.12,8.12,0,0,0,3.56-.22,3.21,3.21,0,0,0,2.42-3.8,3.16,3.16,0,0,0-2.86-2.45c-.07-.46-.12-.91-.17-1.36a27,27,0,0,0-.34-3c-.14-.72-.3-1.42-.43-2.14-.28-1.54-.42-3.1-.75-4.62-.46-2-1.13-4-1.63-6.07-.31-1.24-.54-2.5-.73-3.77-.14-.88-.26-1.75-.46-2.62s-.43-1.86-.62-2.79-.36-2.07-.58-3.1a42.94,42.94,0,0,0-1.2-4.16c-.37-1.18-.61-2.37-.9-3.57-.62-2.62-1.47-5.17-2.24-7.75-.38-1.27-.72-2.55-1.15-3.81-.35-1-.72-2-1-3.09-.48-1.69-1-3.37-1.49-5.07q-.78-2.85-1.8-5.62c-.16-.46-.33-.91-.49-1.37-.55-1.6-1-3.22-1.58-4.82l.13.36c-.64-1.78-1.11-3.6-1.71-5.4s-1.46-3.79-2.17-5.71a1.59,1.59,0,0,0,.07.2l-.08-.21h0a1.22,1.22,0,0,0-.07-.17l.06.15q-1-2.82-2.06-5.63l0,.08c-.36-1-.75-1.95-1.11-2.93-.61-1.72-1.22-3.43-1.86-5.13-.56-1.51-1.29-2.95-1.9-4.43-.31-.94-.57-1.88-.86-2.82-.39-1.27-.86-2.53-1.32-3.78-.57-1.65-1.06-3.33-1.66-5,.09.26.18.51.28.77-.42-1.16-.81-2.33-1.16-3.5-.16-.54-.32-1.07-.5-1.6-.07-.24-.17-.48-.25-.72a3.23,3.23,0,0,0-.26-.72l0-.1c-.4-1.11-.84-2.22-1.26-3.33A46.14,46.14,0,0,1,25.68,125a41.51,41.51,0,0,0-1.46-4.76A60.47,60.47,0,0,1,22.41,114q-.77-3.09-1.83-6.09c0,.12.09.23.13.35-.46-1.29-.89-2.59-1.35-3.89a.08.08,0,0,0,0,0,.5.5,0,0,1-.05-.13c-.07-.18-.14-.37-.2-.55l-.12-.34h0s0,0,0,0l-.19-.54.12.36c-.3-.82-.63-1.62-.94-2.43-.48-1.39-.9-2.8-1.41-4.18-.43-1.14-1-2.25-1.38-3.38s-.8-2.37-1.3-3.52-1-2.17-1.47-3.29-.89-2.47-1.41-3.68c-.36-.85-.76-1.68-1.1-2.55s-.51-1.76-.85-2.63c-.22-.54-.54-1-.78-1.58-.52-1.61-.91-3.27-1.37-4.9-.22-.79-.41-1.56-.57-2.36-.06-.3-.11-.6-.17-.89A4.91,4.91,0,0,0,6,67.18a23.08,23.08,0,0,1-2.83,1.11Zm9.59,36.43.15.41-.15-.41Zm21.38,45.91c0,.07,0,.14.08.22a2,2,0,0,1-.08-.22Z"/><path class="cls-2" d="M40.93,168.35v0Z"/><polygon class="cls-2" points="40.93 168.37 40.93 168.36 40.93 168.37 40.93 168.37 40.93 168.37"/><polygon class="cls-2" points="40.94 168.37 40.93 168.37 40.94 168.37 40.94 168.37 40.94 168.37"/><path class="cls-4" d="M216,.22c-1.12.39-2.28.63-3.4,1.06-.93.39-1.87.74-2.83,1.07-.74.25-1.47.57-2.23.76-1.38.35-2.7.86-4,1.32-1.61.56-3.26,1-4.9,1.4-.71.2-1.39.5-2.1.7-.55.15-1.11.3-1.66.49a22.69,22.69,0,0,1-2.68,1.14c-.77.24-1.51.55-2.28.76-1,.27-1.95.49-2.91.76-1.59.45-3.21.86-4.81,1.26-1.84.46-3.62,1-5.43,1.59-1,.3-2,.51-3,.82-1.15.36-2.26.88-3.43,1.19s-2.25.49-3.36.79-2,.61-3,1a30.69,30.69,0,0,1-2.95.95c-1,.25-1.92.47-2.88.74-2,.55-3.88,1.23-5.82,1.83-1.08.33-2.17.62-3.24,1s-1.84.69-2.77,1c-2.73.93-5.48,1.78-8.25,2.58-1.35.38-2.68.82-4,1.25s-2.43.85-3.66,1.21l-7.56,2.27c-.94.28-1.91.47-2.87.7s-2.09.62-3.13.94c-2,.6-3.9,1.19-5.84,1.82-1.11.35-2.18.77-3.3,1.09s-2,.47-2.93.74c-1.76.49-3.54.93-5.3,1.41-.89.24-1.77.55-2.67.77-1.36.32-2.73.66-4.08,1.06-.93.27-1.85.56-2.79.78s-1.82.4-2.73.62c-1.4.35-2.82.61-4.19,1.07s-2.48.92-3.73,1.37c-1.49.53-3,.91-4.53,1.43s-2.74,1-4.09,1.52c-2.89,1.18-5.86,2.14-8.75,3.32-.76.33-1.52.65-2.29.94-.58.21-1.17.36-1.76.54-1.31.38-2.59.8-3.87,1.26s-2.58,1-3.9,1.36-2.81.73-4.22,1.07A31.68,31.68,0,0,0,42,54.06a37.4,37.4,0,0,1-3.57,1.2c-1.91.5-3.81,1.09-5.68,1.74-.87.3-1.71.69-2.57,1s-1.87.63-2.79,1-1.95.73-2.95,1c-.8.24-1.6.49-2.39.79-1.22.54-2.42,1.14-3.64,1.68-1.42.62-2.89,1.1-4.35,1.61L11,65.13c-.82.29-1.66.54-2.47.85A44.82,44.82,0,0,1,3.17,68.3l-.57.17c.14.35.27.69.39,1s.22.7.32,1.06c.18.58.36,1.16.57,1.73.37,1.06.71,2.13,1.06,3.2s.59,1.88.92,2.81c1.44,4.1,2.87,8.11,4.57,12.08.34.78.74,1.54,1.13,2.27l.27.49c.44.85.85,1.76,1.31,2.87.66,1.6,1.23,3.26,1.78,4.86l.51,1.44c.75,2.15,1.45,4.35,2.13,6.48.61,1.91,1.21,3.82,1.87,5.72l.42,1.25c.21.63.42,1.26.65,1.88.32.91.67,1.8,1,2.69l.17.44c.78,2,1.5,4,2.19,6.21.28.88.53,1.76.79,2.65.35,1.2.71,2.44,1.12,3.64.17.5.35,1,.53,1.48s.4,1.11.59,1.66.4,1.26.6,1.88c.11.38.23.76.35,1.13l.3.95c1.17,3.69,2.37,7.5,3.84,11.15l.14.36c.71,1.76,1.44,3.59,2.06,5.43s1.24,3.79,1.87,5.9l.1.33c.19.61.37,1.22.53,1.83.5,2.08,1,4.22,1.69,6.32.49,1.54,1.08,3.07,1.65,4.55.22.57.44,1.14.65,1.72s.49,1.28.74,1.91c.53,1.38,1.08,2.8,1.56,4.22.63,1.83,1.35,3.91,1.94,6,.13.42.24.84.35,1.27.24.91.48,1.82.73,2.72.18.74.34,1.47.5,2.21l.45,2c.31,1.27.71,2.53,1.1,3.75.14.46.29.92.44,1.39.39,1.28.86,2.56,1.32,3.8l.3.83c.47,1.3.9,2.67,1.31,4.19.19.9.36,1.82.53,2.73.19,1.06.38,2.11.61,3.15.3,1.3.65,2.59,1,3.84l.42,1.59.14.58c.4,1.65.82,3.36,1.39,5s1,3.2,1.59,5.23c.22.87.45,1.73.67,2.59a11.33,11.33,0,0,1,.24,1.68c.07.68.15,1.35.23,2l.09.86c.05.39.09.78.13,1.18a11.89,11.89,0,0,0,.35,1.64c.25,1,.46,2,.66,3,.12.55.23,1.11.35,1.67a2.21,2.21,0,0,0,.81,1.41,2.14,2.14,0,0,0,1.31.45l.26,0a2.14,2.14,0,0,0,1.42-.8,2,2,0,0,0,.33-.61,3.52,3.52,0,0,0,.69-.14l.65-.19c.28-.07.55-.14.81-.23.83-.27,1.66-.55,2.47-.85s1.43-.48,2.14-.69l.6-.18c.58-.18,1.14-.37,1.71-.57l.94-.32c.84-.27,1.71-.48,2.55-.69l.47-.11,2.71-.71.43-.11,1.34-.36c1.49-.41,3-.83,4.55-1.19l.69-.16c.9-.21,1.8-.42,2.7-.66.66-.19,1.32-.41,2-.64l1-.34c1.26-.41,2.57-.75,3.83-1.08.77-.19,1.54-.39,2.3-.61,1.15-.32,2.28-.68,3.42-1.05,1-.3,1.93-.61,2.9-.89,2-.57,4-1.08,6.32-1.67,3.36-.84,6.73-1.88,10-2.87l2.5-.76c1.16-.36,2.32-.7,3.49-1l3-.87c1.16-.35,2.31-.74,3.46-1.12.9-.31,1.82-.62,2.74-.91,2-.63,4.09-1.36,6.35-2.23,1.06-.4,2.12-.8,3.19-1.17.64-.23,1.29-.43,1.94-.63l1.19-.37,2.15-.7,1-.33,1-.35c.67-.23,1.35-.46,2-.66l2-.57,1.08-.29c1-.28,2-.6,3-.92l.25-.08c2.78-.9,5.58-1.89,8.28-2.85,1.36-.48,2.72-1,4.09-1.44,1.07-.37,2.15-.71,3.23-1.06.85-.26,1.69-.53,2.53-.81,1-.35,2.07-.74,3.09-1.13s2-.74,3-1.08q2.55-.87,5.09-1.79l.92-.32c.64-.23,1.28-.48,1.91-.73l1.09-.43q1.49-.57,3-1.11c2.49-.92,4.53-1.62,6.42-2.23s3.88-1.4,6-2.25c1.08-.45,2.17-.87,3.25-1.3q1.26-.48,2.52-1c1.5-.6,3.06-1.13,4.57-1.63l1.43-.49c2.14-.73,4.05-1.45,5.84-2.18,1.28-.53,2.56-1.09,3.84-1.64l2-.86c3.88-1.6,8-3.18,12.24-4.7,1.42-.51,2.84-1,4.25-1.56,2.69-1,5.46-2,8.24-2.93,1.58-.52,3.21-1,4.79-1.42l3-.85.65-.2c1-.3,2.06-.6,3-1s2.12-.89,3.22-1.43a2,2,0,0,0,.55-.27l.16-.08.16-.08a1.9,1.9,0,0,0,1-1.21,2.2,2.2,0,0,0-.19-1.71,2.34,2.34,0,0,0-.49-.59c0-.13-.07-.27-.11-.41s-.13-.5-.18-.75a11.09,11.09,0,0,0-.75-2.47,13,13,0,0,1-.65-1.91l-.17-.56c-.59-1.94-1-3.9-1.47-5.91-.13-.64-.32-1.26-.5-1.89-.11-.36-.21-.71-.31-1.07l-.23-.91c-.18-.71-.36-1.42-.57-2.12-.3-1.07-.6-2-.93-2.81s-.75-1.94-1.1-2.92-.67-1.94-1-2.9l-.23-.71c-.24-.73-.5-1.49-.69-2.24-.28-1.07-.52-2.15-.76-3.23s-.47-2.12-.74-3.17-.56-2.11-.85-3.17-.51-1.86-.75-2.8c-.54-2-1.13-4.08-1.78-6.1-.28-.88-.52-1.77-.77-2.67s-.57-2.05-.91-3.07c-.17-.52-.36-1-.54-1.56l-.51-1.41c-.36-1.06-.68-2.15-.94-3.07l-.36-1.31c-.44-1.62-.9-3.29-1.51-4.9-.9-2.36-1.67-4.33-2.43-6.17-.54-1.3-1-2.66-1.46-4-.24-.69-.49-1.38-.74-2.07-.42-1.15-.83-2.31-1.24-3.47-.3-.85-.59-1.7-.9-2.54-.22-.61-.43-1.21-.64-1.82-.5-1.39-1-2.84-1.55-4.24-.35-.9-.69-1.81-1-2.72-.39-1.06-.78-2.12-1.2-3.16-.19-.5-.4-1-.6-1.49-.56-1.36-1.13-2.75-1.61-4.16-.19-.54-.37-1.07-.55-1.61-.48-1.45-1-2.95-1.58-4.39s-1.24-3.25-1.81-4.84l-.38-1.1c-.68-1.9-1.38-4-2.14-6.28-.64-1.92-1.29-3.83-2-5.75a4,4,0,0,1-.83-2.12,2.44,2.44,0,0,1,0-.27c-.1-.3-.21-.61-.3-.92l-.1-.35c-.27-.89-.54-1.77-.78-2.65-.39-1.48-.82-3-1.25-4.42l-.5-1.68-.29-1c-.5-1.7-1-3.46-1.61-5.16-.39-1.13-.87-2.25-1.34-3.33-.36-.82-.71-1.63-1-2.47-.73-1.89-1.39-3.85-2.06-5.86-1.33-4.05-2.53-8-3.58-11.86-.14-.5-.27-1-.4-1.5s-.31-1.18-.48-1.76-.44-1.36-.68-2L217.57,2c-.23-.63-.49-1.26-.75-1.88L216.76,0,216,.22Z"/><path class="cls-5" d="M83.64,80.13a7.14,7.14,0,0,0-1.46.21,13.45,13.45,0,0,0-4.08,2.12c-.44.29-.88.58-1.3.89a8.47,8.47,0,0,0-1.51,1.54,16.66,16.66,0,0,0-1.73,3,12.38,12.38,0,0,0-1,2.8c-.22,1.07-.38,2.14-.55,3.21a14.14,14.14,0,0,0-.19,3.25,11.25,11.25,0,0,0,.26,1.91,14.85,14.85,0,0,0,.59,1.82,14.54,14.54,0,0,0,3.4,5.18,12.26,12.26,0,0,0,4.15,2.59,12.63,12.63,0,0,0,2.36.63c.72.13,1.45.16,2.18.22a14.81,14.81,0,0,0,2.1.08,8.31,8.31,0,0,0,2.78-.66,10.41,10.41,0,0,0,2.12-1.22,11,11,0,0,0,1.92-1.88,9.42,9.42,0,0,0,1.56-2,7.2,7.2,0,0,0,.6-1.36,4.4,4.4,0,0,0-.07-2.22A14.92,14.92,0,0,0,94.27,97a19.79,19.79,0,0,1-1.17-2.46,23.49,23.49,0,0,0-.85-2.74,2.69,2.69,0,0,0-2.55-1.53,6.78,6.78,0,0,0-2.09.44,14.38,14.38,0,0,0-3,1.67c-.79.53-1.59,1-2.4,1.52a2.21,2.21,0,0,0-1.06,1.23,2.12,2.12,0,0,0,.11,1.62,2.15,2.15,0,0,0,1.23,1.06,2.08,2.08,0,0,0,1.62-.11c.81-.51,1.61-1,2.4-1.53a21.12,21.12,0,0,1,2.24-1.35c0,.08,0,.17.08.26a17.74,17.74,0,0,0,.89,2.33c.29.63.62,1.24.94,1.85s.66,1.15.92,1.75l.09.37,0,.09a6.5,6.5,0,0,1-.65,1l-.62.69a6.18,6.18,0,0,1-2.77,2,7,7,0,0,1-.79.18c-.64,0-1.29,0-1.93-.09s-1.3-.1-1.94-.2a11.75,11.75,0,0,1-2.11-.75,9.39,9.39,0,0,1-1.5-1,14.22,14.22,0,0,1-1.65-1.91,14.61,14.61,0,0,1-1.3-2.63A11.27,11.27,0,0,1,76,97a12.25,12.25,0,0,1,.15-2.49c.12-.73.22-1.47.35-2.2A11,11,0,0,1,77,90.54a10.76,10.76,0,0,1,.51-1.16,14.4,14.4,0,0,1,1.37-2.22A8.81,8.81,0,0,1,80,86.25l1-.7a12.75,12.75,0,0,1,2-1c.24-.06.48-.12.73-.16l.35,0c1,.24,1.91.61,2.85.92a2.12,2.12,0,1,0,1.35-4l-2.53-.84a6,6,0,0,0-1.83-.31Z"/><path class="cls-5" d="M96.38,79.24a2.17,2.17,0,0,0-1.33.9,2.07,2.07,0,0,0-.31,1.62c.34,1,.67,2,.91,3.1s.36,1.87.61,2.8.56,1.92.77,2.9a18.77,18.77,0,0,0,1,3.17c.37.89.84,1.75,1.28,2.6A15.86,15.86,0,0,0,101,98.82c.52.63,1,1.26,1.55,1.9a12.87,12.87,0,0,0,1,1.14,3.23,3.23,0,0,0,1.55,1,4.32,4.32,0,0,0,2,0,17,17,0,0,0,1.87-.61c.52-.18,1-.38,1.55-.6a8.75,8.75,0,0,0,1.45-.77c.57-.38,1.12-.79,1.68-1.2a2,2,0,0,0,.72-1.48,2.12,2.12,0,0,0-2-2.23,2.31,2.31,0,0,0-1.51.52l-1.06.78a15.21,15.21,0,0,1-2.64,1.16c-.27.09-.55.18-.83.25-.39-.46-.73-1-1.12-1.43s-.94-1.08-1.36-1.67a21.64,21.64,0,0,1-2.1-4.09c-.26-.8-.44-1.62-.63-2.44s-.5-1.72-.71-2.59-.37-1.79-.57-2.67-.54-1.9-.85-2.82A2.24,2.24,0,0,0,98,79.56a2.11,2.11,0,0,0-1.19-.36,2.09,2.09,0,0,0-.43,0Z"/><path class="cls-5" d="M107.13,85.59c-2.17,1-4.39,1.92-6.64,2.72l-.48.16a2.31,2.31,0,0,0-1.32.9A2.11,2.11,0,0,0,98.37,91a2.16,2.16,0,0,0,.9,1.33,2,2,0,0,0,1.61.31c2.76-1,5.5-2,8.15-3.24a2.13,2.13,0,0,0,.94-2.85,2.08,2.08,0,0,0-1.89-1.16,2.26,2.26,0,0,0-1,.21Z"/><path class="cls-5" d="M108.18,74.57a25.87,25.87,0,0,0-5.56,1.76c-1.72.69-3.44,1.38-5.18,2l-1.25.41a2.32,2.32,0,0,0-1.33.89,2.14,2.14,0,0,0,.58,3,2.07,2.07,0,0,0,1.62.32q2.52-.81,5-1.8c1.41-.57,2.81-1.16,4.23-1.68a19.2,19.2,0,0,1,2.8-.73,2.11,2.11,0,0,0-.5-4.18,2.43,2.43,0,0,0-.38,0Z"/><path class="cls-5" d="M135.29,66.72c-.24.14-.47.28-.72.4l-.59.15c-.57.16-1.11.37-1.67.57l.52-.18-1.06.37c-2.22.73-4.52,1.17-6.75,1.89-2.42.79-4.86,1.52-7.27,2.33a2.37,2.37,0,0,0-1.33.9,2.15,2.15,0,0,0-.31,1.62,2.11,2.11,0,0,0,.9,1.32,2,2,0,0,0,1.61.32c2.55-.86,5.12-1.63,7.67-2.46,1.23-.4,2.49-.71,3.75-1s2.6-.73,3.88-1.19l-.51.18,1-.35c.42-.13.85-.22,1.26-.36a5.55,5.55,0,0,0,1.18-.49l.31-.19a2.23,2.23,0,0,0,1.63-1.43,2.14,2.14,0,0,0-1.34-2.68,1.84,1.84,0,0,0-.72-.14,3,3,0,0,0-1.46.45Zm-.95,4.86-.09,0,.09,0Z"/><path class="cls-5" d="M126.72,70.31a2.12,2.12,0,0,0-1.32.9,2.07,2.07,0,0,0-.32,1.62c.38,1.19.67,2.41,1,3.61s.72,2.3,1.13,3.43.75,2,1.2,3c.38.83.74,1.7,1,2.57.23.7.42,1.41.66,2.11s.62,1.67.92,2.52a2,2,0,0,0,1.22,1.06A2.12,2.12,0,0,0,135,89.78a2.32,2.32,0,0,0-.12-1.62c-.17-.49-.37-1-.54-1.47-.22-.65-.42-1.31-.62-2a26.05,26.05,0,0,0-.95-2.55c-.57-1.34-1.14-2.66-1.65-4q-.45-1.34-.87-2.67c-.36-1.18-.64-2.37-1-3.54a2.23,2.23,0,0,0-.89-1.32,2.11,2.11,0,0,0-1.19-.36,2.09,2.09,0,0,0-.43,0Z"/><path class="cls-5" d="M166.8,58a2.68,2.68,0,0,0-1.91,1.86,5.82,5.82,0,0,0-.26,1.21c0,.24-.08.49-.1.73-.07.52-.13,1-.17,1.56-.17,2.23-.19,4.47-.14,6.71,0,1.75.2,3.51.39,5.26.15,1.47.43,2.93.59,4.41a15.13,15.13,0,0,1-.08,2.33c-.11.91-.31,1.82-.47,2.72a2,2,0,0,0,.52,1.51,2.12,2.12,0,0,0,3,.2,2.31,2.31,0,0,0,.73-1.49c.19-1,.4-2.1.52-3.17a15.27,15.27,0,0,0-.12-3.51c-.12-1-.31-2.07-.44-3.11s-.2-1.79-.28-2.69c-.11-1.94-.14-3.87-.11-5.82,0-.58,0-1.16,0-1.75l.33.66c.58,1.11,1.22,2.19,1.85,3.27s1.32,2.27,2,3.42,1.49,2.32,2.28,3.45l.8,1.21-.17-.25c.41.61.8,1.22,1.26,1.8.27.33.54.66.8,1l.12.25A2,2,0,0,0,179,80.82a2.12,2.12,0,0,0,1.62-.12,2.08,2.08,0,0,0,1.06-1.23,2.27,2.27,0,0,0-.11-1.62A6.79,6.79,0,0,0,180.29,76c-.33-.39-.62-.8-.91-1.21l-.31-.47c-.61-.92-1.23-1.82-1.88-2.72-.48-.75-.91-1.54-1.35-2.32-.53-1-1.08-1.89-1.64-2.83-1.08-1.79-2-3.66-3-5.5A6.48,6.48,0,0,0,169,58.4a3.18,3.18,0,0,0-1.62-.5,2.33,2.33,0,0,0-.59.08Zm10.49,13.8.11.16-.11-.16Zm-8.76.21c0,.08,0,.16,0,.24a1.94,1.94,0,0,1,0-.24Zm10.73,2.66.08.11a1,1,0,0,0-.08-.11Z"/><path class="cls-5" d="M174.32,68.4c-1,.33-2,.78-3,1.17-.77.29-1.56.56-2.34.84-1.14.38-2.29.72-3.45,1a2.25,2.25,0,0,0-1.32.89,2.17,2.17,0,0,0-.32,1.62,2.14,2.14,0,0,0,2.52,1.64c1.71-.48,3.39-1,5.06-1.61,1.29-.46,2.55-1,3.83-1.46a2.23,2.23,0,0,0,1.27-.88,2.13,2.13,0,0,0-.58-2.94,2.28,2.28,0,0,0-1.21-.38,1.4,1.4,0,0,0-.41.06Z"/><path class="cls-5" d="M83.38,126.38a2.12,2.12,0,0,0-.72,1.48,2,2,0,0,0,.53,1.51,19.48,19.48,0,0,1,2.3,2.42c.34.58.64,1.18,1,1.75s.84,1.32,1.27,2l-.06-.1a25.36,25.36,0,0,1,1.84,3.25c.55,1.22,1.1,2.44,1.56,3.69.48,1.41,1,2.8,1.49,4.19.32,1,.58,2,.8,3s.45,1.91.58,2.88a10.31,10.31,0,0,1-.15,1.84,16.92,16.92,0,0,1-.88,3.13l-.24.36-.2.17-.64.31a8.94,8.94,0,0,1-1.37.25,7.22,7.22,0,0,1-1.47-.1,13.14,13.14,0,0,1-2.39-.71,5.11,5.11,0,0,1-.48-.33,12.76,12.76,0,0,1-1.5-1.7,9.09,9.09,0,0,1-.64-1.47c-.19-.54-.36-1.07-.55-1.6l.08.21-.06-.19a2.2,2.2,0,0,0-.89-1.32,2.12,2.12,0,0,0-3.26,2.2c.08.27.18.54.27.81.29.9.58,1.8,1,2.66a9.83,9.83,0,0,0,2,2.78,8.09,8.09,0,0,0,1.65,1.44A9.07,9.07,0,0,0,86,162a17.27,17.27,0,0,0,3.09.7,6.39,6.39,0,0,0,1.31.05,12.39,12.39,0,0,0,2-.24,6.24,6.24,0,0,0,4.16-2.87,13.26,13.26,0,0,0,1.18-3.41,14.12,14.12,0,0,0,.49-3.76,15.36,15.36,0,0,0-.44-2.7c-.16-.75-.3-1.5-.49-2.24a52.66,52.66,0,0,0-1.69-5,49.94,49.94,0,0,0-1.86-4.85,23.52,23.52,0,0,0-1.15-2.37c-.46-.78-.95-1.54-1.45-2.3a2.5,2.5,0,0,0,.16.24c-.32-.47-.62-1-.93-1.45s-.67-1.22-1-1.81a13.59,13.59,0,0,0-1.27-1.74,19.75,19.75,0,0,0-1.67-1.63,2.25,2.25,0,0,0-1.49-.72h-.11a2.14,2.14,0,0,0-1.4.53Zm12.23,16.2c0,.09.06.18.09.27l-.09-.27ZM83.88,153.84a1.21,1.21,0,0,0,.05.14l-.05-.14Z"/><path class="cls-5" d="M117.42,116.72a2.42,2.42,0,0,0-.92.46,1.94,1.94,0,0,0-1.84,0c-1.07.64-2.13,1.3-3.17,2a9.27,9.27,0,0,0-2.32,2.7,14.68,14.68,0,0,0-1.64,3.11,23.5,23.5,0,0,0-.87,3,17.42,17.42,0,0,0-.41,3.29,19.43,19.43,0,0,0,.32,3.57,32.72,32.72,0,0,0,1.75,6.15,13.89,13.89,0,0,0,2.35,4.11,12.28,12.28,0,0,0,4.12,2.81,28.4,28.4,0,0,0,2.89,1.39,21.14,21.14,0,0,0,3.06.79,13.16,13.16,0,0,0,3.42.39,9.93,9.93,0,0,0,1.63-.19,14.61,14.61,0,0,0,1.91-.61,17,17,0,0,0,2.59-1.31,13,13,0,0,0,2.44-1.79,14.34,14.34,0,0,0,1.92-2.4,18.09,18.09,0,0,0,1.79-3.33,15.16,15.16,0,0,0,.73-3.2,25.27,25.27,0,0,0,.27-2.88,19.39,19.39,0,0,0-.37-3.72,23.46,23.46,0,0,0-.55-3,6.93,6.93,0,0,0-.67-1.56c-.26-.41-.52-.82-.79-1.23a16,16,0,0,0-1.91-2.44,22.22,22.22,0,0,0-2.55-2.1,13.1,13.1,0,0,0-2.67-1.53c-1.44-.64-2.92-1.14-4.41-1.65a14.8,14.8,0,0,0-4.59-1,6.48,6.48,0,0,0-1.51.17Zm-.86,4.28a4,4,0,0,0,.4-.28,1.9,1.9,0,0,0,1.33.15l.47-.09a9.11,9.11,0,0,1,1.37.15c.61.14,1.21.37,1.81.57l1.87.64c1,.34,1.93.7,2.86,1.12a18.72,18.72,0,0,1,3,2.12,12.71,12.71,0,0,1,1.77,2.1,11,11,0,0,1,.95,1.63,19.89,19.89,0,0,1,.39,2.18c.13.84.29,1.67.39,2.51a20.3,20.3,0,0,1-.41,4.46,11.84,11.84,0,0,1-.58,1.74,20.2,20.2,0,0,1-2,3.13,9.91,9.91,0,0,1-1.18,1.06,19,19,0,0,1-3.31,1.73,8.39,8.39,0,0,1-1.47.32,11.58,11.58,0,0,1-2.28-.2c-.61-.13-1.23-.24-1.83-.4a11.89,11.89,0,0,1-2-.76L116.4,144a13.27,13.27,0,0,1-2.14-1.3,11.26,11.26,0,0,1-.94-1.13,18.08,18.08,0,0,1-1.44-3.13,28.32,28.32,0,0,1-1.37-6,15.36,15.36,0,0,1,.15-3,18.59,18.59,0,0,1,1.18-3.82,18.61,18.61,0,0,1,1.82-2.74,6.21,6.21,0,0,1,.63-.52c.74-.48,1.5-.94,2.27-1.39Zm-2.07,1.25-.13.09.13-.09Zm3.66,22.64.28.14-.28-.14Z"/><path class="cls-5" d="M138.93,110.63a2.14,2.14,0,0,0-1.64,2.51c.13.86.28,1.71.41,2.57s.2,1.57.33,2.35a16,16,0,0,0,.48,2c.24.74.53,1.46.8,2.18s.47,1.57.71,2.35.58,1.74.89,2.6.57,1.93.82,2.9a30.84,30.84,0,0,0,1.35,3.62c.75,1.94,1.39,3.93,2.32,5.8a2.12,2.12,0,1,0,3.79-1.9c-.63-1.27-1.12-2.61-1.63-3.93-.26-.67-.49-1.36-.75-2s-.54-1.28-.78-1.94c-.26-.83-.43-1.68-.68-2.51s-.58-1.7-.88-2.55-.57-1.84-.85-2.77-.64-1.83-1-2.75a17,17,0,0,1-.62-3c-.16-1.3-.38-2.59-.59-3.88a2.11,2.11,0,0,0-2.1-1.68,1.84,1.84,0,0,0-.41,0Zm1.88,16.31c0,.06.05.13.07.2s0-.14-.07-.2Z"/><path class="cls-5" d="M144.5,107.92a8,8,0,0,0-2.05.8,27.37,27.37,0,0,0-3.1,2l-1.37,1a2,2,0,0,0-.71,1.48,2.12,2.12,0,0,0,2,2.23,2.35,2.35,0,0,0,1.51-.52c.74-.5,1.46-1,2.19-1.53a13.23,13.23,0,0,1,2.18-1.2,5.4,5.4,0,0,1,.72-.16,10.21,10.21,0,0,1,1.46.08,9.05,9.05,0,0,1,1.25.39l.38.24.07.08.06.28a8.26,8.26,0,0,1-.1,1,15,15,0,0,1-1,2.6c-.56,1.1-1.16,2.17-1.79,3.23a22.82,22.82,0,0,1-2.35,3.34l.37-.42-.72.82c-.65.7-1.37,1.35-2,2.09a2,2,0,0,0-.31,1.61,2.27,2.27,0,0,0,.89,1.33h0a2.13,2.13,0,0,0,1.07.35,2.24,2.24,0,0,0,1.51-.52c.68-.51,1.29-1.11,2-1.65s1.42-1.15,2.17-1.68a18.12,18.12,0,0,1,3-1.57,11.44,11.44,0,0,1,1.64-.37,11.25,11.25,0,0,1,2,.12,7.36,7.36,0,0,1,1,.34,4,4,0,0,1,.43.29l.1.11c.11.2.21.4.31.61s.16.64.21,1a9.71,9.71,0,0,1-.11,1.21,20.57,20.57,0,0,1-1.28,3.76,9.49,9.49,0,0,1-1,1.46c-.64.7-1.3,1.38-1.95,2.06a13.74,13.74,0,0,1-1.68,1.56,15.55,15.55,0,0,1-2.56,1.07,2,2,0,0,0-1.06,1.24,2.09,2.09,0,0,0,.11,1.61,2.16,2.16,0,0,0,1.23,1.07,2.33,2.33,0,0,0,1.62-.12,15.36,15.36,0,0,0,2.7-1.16,11.54,11.54,0,0,0,2.44-2.08c.83-.86,1.66-1.72,2.44-2.61a10.77,10.77,0,0,0,1-1.28,13.45,13.45,0,0,0,.89-1.83,18,18,0,0,0,1-2.75,10.54,10.54,0,0,0,.43-3.78,6.78,6.78,0,0,0-1.81-4.1,7.92,7.92,0,0,0-4.93-2,9.58,9.58,0,0,0-3.54.29c.21-.4.41-.81.6-1.22a12.92,12.92,0,0,0,1-2.74,13.93,13.93,0,0,0,.3-1.92,4.94,4.94,0,0,0-.4-2.31,5.05,5.05,0,0,0-2.83-2.61l-.39-.16a4.37,4.37,0,0,0-.67-.22,10.36,10.36,0,0,0-2.06-.37l-.67,0a8.43,8.43,0,0,0-1.81.19Zm4.36,4.56.08.13-.08-.13Zm-5.54,11.4-.09.1.09-.1Z"/><path class="cls-5" d="M165.59,97.23A2.14,2.14,0,0,0,164,99.74c.19,1,.4,1.94.55,2.91s.2,1.66.31,2.49a39,39,0,0,0,1,4.89c.47,1.68.69,3.41,1.18,5.08.24.85.53,1.69.78,2.53s.46,1.83.66,2.75a2.13,2.13,0,0,0,4.16-.88c-.2-.89-.39-1.77-.64-2.64s-.53-1.69-.78-2.53-.46-1.73-.63-2.62-.32-1.66-.55-2.48-.47-1.73-.67-2.6-.27-1.53-.38-2.3-.18-1.59-.3-2.38c-.16-1-.37-2.07-.58-3.09A2.14,2.14,0,0,0,166,97.18a2,2,0,0,0-.43,0Z"/><path class="cls-5" d="M169.64,128a2.12,2.12,0,1,0,2.23-2,2.12,2.12,0,0,0-2.23,2Z"/><path class="cls-5" d="M176.33,93.34a2.16,2.16,0,0,0-1.33.89,2.26,2.26,0,0,0-.31,1.62c.28,2.15.57,4.29.9,6.43.17,1.17.36,2.33.49,3.51a26,26,0,0,0,.54,3c.47,2,.85,4,1.46,6,.3,1,.58,2,.8,3s.52,1.84.78,2.76a2.68,2.68,0,0,1,.07.27,2.12,2.12,0,1,0,4.15-.88,13.15,13.15,0,0,0-.42-1.35c-.15-.46-.26-.93-.37-1.41-.24-1-.48-2-.8-3-.62-1.94-1-3.94-1.47-5.91a26,26,0,0,1-.56-3c-.13-1.14-.3-2.27-.48-3.41-.31-2.1-.61-4.2-.88-6.31l-.06-.42a2.09,2.09,0,0,0-2.11-1.68,1.75,1.75,0,0,0-.4,0Z"/><path class="cls-5" d="M179.76,127.52a2.12,2.12,0,1,0,2.23-2,2.13,2.13,0,0,0-2.23,2Z"/><path class="cls-5" d="M175.44,137.07c-1.12.21-2.23.41-3.33.71s-2,.57-3,.87c-2.32.67-4.61,1.41-6.89,2.19-1.26.42-2.52.87-3.78,1.32-1,.36-2.06.79-3.09,1.19-2.07.82-4.11,1.72-6.21,2.46l-2.34.83c-4.51,1.56-9.07,3-13.58,4.57-2.09.73-4.16,1.5-6.18,2.39-2.23,1-4.42,2-6.6,3.11-1.89.94-3.8,1.87-5.73,2.73-2.21,1-4.45,1.93-6.68,2.88l-12.43,5.29c-3.51,1.5-6.94,3.2-10.36,4.89a47.77,47.77,0,0,1-5.17,2.16c-1.87.66-3.71,1.42-5.55,2.17a2.14,2.14,0,0,0-1,2.85,2.19,2.19,0,0,0,1.23,1.07,2.26,2.26,0,0,0,1.62-.12q3.21-1.31,6.45-2.5c1-.36,1.91-.71,2.83-1.15s2.06-1,3.08-1.5q3.08-1.5,6.18-2.93c2-.93,4.13-1.82,6.21-2.71,4.16-1.77,8.34-3.5,12.49-5.3s8.48-4,12.71-6a110.93,110.93,0,0,1,10.89-4.3c2-.67,4.11-1.32,6.16-2,2.38-.79,4.75-1.63,7.12-2.46,2.1-.74,4.16-1.61,6.22-2.44,1.91-.78,3.84-1.49,5.79-2.17,2.21-.76,4.43-1.5,6.68-2.16,1.14-.33,2.27-.68,3.41-1s2.43-.57,3.66-.8a2.12,2.12,0,0,0-.46-4.19,2.83,2.83,0,0,0-.41,0Zm-28.75,9.61-.38.14.38-.14Zm-9,7.42-.27.1.27-.1Z"/><path class="cls-5" d="M194.15,145.34c-2.16.46-4.29,1.07-6.43,1.65s-4.57,1.16-6.86,1.7-4.31,1-6.46,1.48c-1.2.28-2.39.57-3.59.87-1,.26-2.06.59-3.1.89-2.29.67-4.52,1.54-6.79,2.28s-4.49,1.43-6.73,2.17c-4.23,1.38-8.46,2.77-12.64,4.31-4.33,1.59-8.62,3.28-12.91,5s-8.54,3.19-12.69,5c-1.11.5-2.22,1-3.34,1.47s-2.18.84-3.27,1.22-2,.66-3.08,1-2.08.7-3.12,1.07-2.1.84-3.14,1.26-2,.79-3,1.2c-2.08.84-4.14,1.67-6.14,2.69s-4.18,2.13-6.33,3.06-4.19,1.59-6.28,2.37-4.07,1.7-6.1,2.54-4,1.3-5.89,2.23l-.42.21a2.12,2.12,0,0,0,1.72,3.88c.49-.24,1-.49,1.47-.7s1-.37,1.53-.53c1-.32,1.93-.64,2.87-1l3.1-1.3c1-.42,2-.88,3-1.27,2.18-.82,4.37-1.58,6.53-2.46s4-1.88,6-2.9c1-.5,2-1,3-1.46s2.07-.85,3.11-1.26c2.12-.86,4.25-1.72,6.38-2.55s4.19-1.43,6.3-2.1a57.45,57.45,0,0,0,6.25-2.52c2-.89,4-1.77,6.07-2.54s4.41-1.66,6.61-2.52c4.27-1.68,8.53-3.38,12.85-5s8.73-3,13.12-4.5c2.07-.68,4.16-1.34,6.24-2,2.27-.73,4.52-1.53,6.78-2.28l.08,0c-.18,0-.35.1-.53.15,1-.3,2.06-.63,3.1-.89,1.2-.3,2.39-.6,3.59-.87,2.15-.5,4.31-1,6.46-1.48s4.59-1.08,6.86-1.7,4.27-1.19,6.43-1.65a2.15,2.15,0,0,0,1.75-2.44,2.17,2.17,0,0,0-2.05-1.79,1.64,1.64,0,0,0-.38,0Z"/><path class="cls-5" d="M296,122.46a2.17,2.17,0,0,0-1.37.83,2,2,0,0,0-.39,1.6c.11.42.23.84.33,1.25a10.41,10.41,0,0,1,.21,1.47c.09.83.19,1.66.23,2.5,0,1.71-.12,3.42-.11,5.13s.12,3.63.08,5.45-.08,3.51-.06,5.27c0,.91,0,1.84-.06,2.76s0,2.09,0,3.13a14.3,14.3,0,0,1-.31,2.43,20.51,20.51,0,0,1-1.49,4.1,7.93,7.93,0,0,1-1,1.32,12.72,12.72,0,0,1-1.9,1.62,10.12,10.12,0,0,1-1.34.62,10.91,10.91,0,0,1-1.8.21,8.33,8.33,0,0,1-1.41-.15,11.53,11.53,0,0,1-1.86-.76,9.11,9.11,0,0,1-.95-.68,11.7,11.7,0,0,1-1.1-1.49c-.26-.4-.59-.76-.88-1.15l-.15-.38a12.87,12.87,0,0,1-.39-2.13,14.48,14.48,0,0,1,.42-2.44,2,2,0,0,0-.46-1.53,2.12,2.12,0,0,0-3-.34,2.31,2.31,0,0,0-.79,1.45q-.23,1-.39,2.07a8.61,8.61,0,0,0,.16,2.53c.07.4.17.81.27,1.21s.19.68.32,1a5.47,5.47,0,0,0,.53,1,8.7,8.7,0,0,0,.65.85,7.34,7.34,0,0,1,.68,1,7.73,7.73,0,0,0,2.25,2.27A14.62,14.62,0,0,0,284,166a11.53,11.53,0,0,0,1.84.37,12.15,12.15,0,0,0,2.09,0,9.6,9.6,0,0,0,1.6-.21,10,10,0,0,0,1.93-.73,12,12,0,0,0,2.9-2.1c.48-.47,1-1,1.4-1.47a9.13,9.13,0,0,0,1-1.69,17.1,17.1,0,0,0,1.16-2.84,18.69,18.69,0,0,0,.85-3.39c.26-2,.17-4,.24-5.95.05-1.74,0-3.47,0-5.2,0-.77.06-1.54.06-2.31s0-1.54-.05-2.31c0-1.37-.05-2.74,0-4.11,0-1.65.15-3.29.05-4.95-.05-.79-.17-1.58-.24-2.38a14.86,14.86,0,0,0-.52-2.47,2.22,2.22,0,0,0-.83-1.36,2.17,2.17,0,0,0-1.27-.42,1.84,1.84,0,0,0-.33,0Z"/><path class="cls-5" d="M307.84,126.26c-.24,1.6-.37,3.21-.56,4.82-.09.72-.17,1.44-.21,2.17s0,1.57,0,2.35a30.44,30.44,0,0,1-.72,4.83,19,19,0,0,0,0,4.59c0,1.4-.24,2.79-.21,4.19,0,1.58,0,3.16.07,4.74,0,.88-.06,1.74-.1,2.62s0,1.64-.07,2.46a23.92,23.92,0,0,0-.07,2.68c0,.43,0,.87.06,1.31l0,.53a3.05,3.05,0,0,0,.2,1,2.08,2.08,0,0,0,1.17,1.12,2.14,2.14,0,0,0,1.63,0,2.11,2.11,0,0,0,1.12-1.17,2.08,2.08,0,0,0,.07-1.23l0,0c-.07-.62-.08-1.26-.1-1.89a1.77,1.77,0,0,0,0,.23c0-1.2.12-2.4.13-3.61,0-.68,0-1.36.09-2s0-1.59,0-2.38,0-1.74,0-2.6-.05-1.67,0-2.5.13-1.74.18-2.61a23.09,23.09,0,0,0-.13-3,20.11,20.11,0,0,1,.52-3.78,18.54,18.54,0,0,0,.31-2c.06-.72.06-1.45,0-2.18a27.34,27.34,0,0,1,.28-3.84c.09-.72.14-1.44.21-2.15s.19-1.48.3-2.22a2.13,2.13,0,0,0-1.9-2.32H310a2.17,2.17,0,0,0-2.11,1.91Zm2.52,27a.57.57,0,0,0,0,.13v-.13Zm0,.4v.15c0-.05,0-.1,0-.15Z"/><path class="cls-5" d="M329.88,127.56a2.27,2.27,0,0,0-1.12,1.18l-.18.34a11.44,11.44,0,0,1-1,1.56,15.32,15.32,0,0,1-1.08,1.21c-.61.62-1.23,1.22-1.89,1.77s-1.4,1.08-2.08,1.64c-1.32,1.09-2.63,2.16-4,3.13-.69.47-1.39.92-2.08,1.38s-1.26.91-1.89,1.38c-1.3,1-2.68,1.85-4.06,2.7l.46-.27-1,.6.07,0a6.82,6.82,0,0,0-1.93,1.34,2.33,2.33,0,0,0-.47,1.17,2.17,2.17,0,0,0,.47,1.58,3.07,3.07,0,0,0,1,.74l.23.12c1.16.49,2.35.84,3.54,1.23s2.39.82,3.57,1.26a32.59,32.59,0,0,1,3.45,1.44,15.22,15.22,0,0,1,1.5,1,17.62,17.62,0,0,0,2.2,1.33c.39.21.77.43,1.15.66a13.52,13.52,0,0,1,1.39,1.11,31.24,31.24,0,0,0,2.81,2c1.06.74,2.17,1.38,3.27,2.06l1.57,1,.7.44.32.18a2.13,2.13,0,0,0,3.71-1.18,2.24,2.24,0,0,0-.45-1.54,4.27,4.27,0,0,0-1.47-1.12c-.57-.36-1.14-.72-1.72-1.07-1.15-.69-2.3-1.37-3.41-2.14s-2.07-1.39-3-2.21a11.08,11.08,0,0,0-1.46-1.09c-.61-.38-1.26-.73-1.9-1.07a11.8,11.8,0,0,1-1.4-.94,15.34,15.34,0,0,0-2-1.25,31.53,31.53,0,0,0-3.84-1.62c-1.12-.42-2.25-.82-3.4-1.2.95-.6,1.88-1.24,2.78-1.91.74-.54,1.46-1.09,2.22-1.6s1.66-1.09,2.47-1.68c1.68-1.22,3.25-2.56,4.88-3.84a30.51,30.51,0,0,0,2.39-2.15,21.09,21.09,0,0,0,2.22-2.51,17.68,17.68,0,0,0,1.4-2.42,2,2,0,0,0,0-1.62,2.14,2.14,0,0,0-1.17-1.12,2.06,2.06,0,0,0-.77-.14,2.14,2.14,0,0,0-.86.18ZM323,155.09l.49.28-.49-.28Z"/><path class="cls-5" d="M173,244a21.3,21.3,0,0,0-1.81,3c-.22.45-.43.9-.61,1.38a10,10,0,0,0-.45,2,14.43,14.43,0,0,0-.16,3.41,20.74,20.74,0,0,0,.38,3,14,14,0,0,0,1.16,3.33,11.4,11.4,0,0,0,3.69,4.25,14.55,14.55,0,0,0,6.76,2.55,14.22,14.22,0,0,0,3.45-.06,21.32,21.32,0,0,0,3.16-.74,20,20,0,0,0,3.07-1.18,24.93,24.93,0,0,0,3-1.81,2.12,2.12,0,0,0-1.12-3.77,2.2,2.2,0,0,0-1.53.45c-.35.25-.71.48-1.07.72a18.68,18.68,0,0,1-3.45,1.53l.52-.15c-.71.21-1.42.44-2.14.58s-1.38.22-2.08.28a14.63,14.63,0,0,1-2.72-.31,12.17,12.17,0,0,1-2.26-.88,7.11,7.11,0,0,1-3.3-3.06,13.6,13.6,0,0,1-.76-1.75c-.13-.55-.26-1.11-.34-1.68s-.13-1.24-.18-1.86a15.52,15.52,0,0,1,.27-3,12.94,12.94,0,0,1,.85-2,22.82,22.82,0,0,1,2.67-3.58l.39-.36h-.05a4.68,4.68,0,0,1-2.08-.66,9.5,9.5,0,0,1-1.08-.81l-.3-.32,0,0,0,0v0h0l0,0-.28-.35A19.85,19.85,0,0,0,173,244Zm1.54,5.75,0,.15,0-.15Z"/><path class="cls-5" d="M200.52,251.92c.26,1.55.44,3.12.73,4.68.27,1.41.65,2.8.9,4.21a2.12,2.12,0,1,0,4.19-.68c-.26-1.46-.68-2.89-.92-4.36-.28-1.69-.52-3.39-.81-5.08-.07-.43-.16-.86-.24-1.3-.51-.09-1-.19-1.51-.33-.84-.23-1.68-.51-2.55-.67l-.49-.08c.24,1.2.49,2.4.7,3.61Z"/><path class="cls-5" d="M202.24,250.27a2.12,2.12,0,1,0,.67,4.19c1.72-.32,3.42-.73,5.12-1.15,2-.49,4-.9,6-1.52a2.06,2.06,0,0,0,1.12-1.18.24.24,0,0,0,0-.08l-1.21-.08c-1.07-.1-2.13-.22-3.2-.37l1,.13c-1.75-.19-3.49-.29-5.23-.52l.46.06c-.48-.06-.95-.11-1.42-.18-1.08.26-2.16.5-3.25.7Z"/><path class="cls-5" d="M214.16,255.33c.16.81.31,1.62.42,2.43s.11,1.64.26,2.44a2.12,2.12,0,1,0,4.19-.68c-.14-.74-.14-1.52-.24-2.28s-.27-1.69-.43-2.53c-.26-1.32-.53-2.62-.79-3.93l-1-.13.66.09-.68-.08.09,0c-.9-.12-1.83-.15-2.74-.23l-.75-.07q.48,2.48,1,5Z"/><path class="cls-5" d="M223.07,251.63h0Z"/><path class="cls-5" d="M223.1,251.76a21.83,21.83,0,0,0,1,2.67,17.11,17.11,0,0,0,1.75,3,9.93,9.93,0,0,0,2.82,2.7,9,9,0,0,0,3.67,1.26,9.59,9.59,0,0,0,6.69-1.75,8.75,8.75,0,0,0,1.6-1.56,8.62,8.62,0,0,0,.87-1.21,7.23,7.23,0,0,0,.72-1.51,9.77,9.77,0,0,0,.37-1.77q0-.3,0-.6c-.28,0-.57,0-.85.06l.66-.08-1.89.19,1-.12c-.81.1-1.61.16-2.41.27l1-.14c-.58.08-1.17.13-1.76.17,0,.11,0,.23-.05.34a6.19,6.19,0,0,1-.32.85,10.2,10.2,0,0,1-1.06,1.37,5,5,0,0,1-.58.45,13,13,0,0,1-1.57.71,9.18,9.18,0,0,1-1.17.18,8.48,8.48,0,0,1-1.41-.17,8.18,8.18,0,0,1-1-.36,8.6,8.6,0,0,1-1.2-.88,15.06,15.06,0,0,1-1.52-2.11c-.15-.27-.29-.55-.42-.83-.56-.09-1.11-.2-1.66-.33a13.84,13.84,0,0,1-1.44-.38,10.52,10.52,0,0,0-1.85-.5l0,.1Z"/><path class="cls-5" d="M265.09,247.9c.43,0,.87,0,1.3,0a.86.86,0,0,1,.14-.13q-.72.08-1.44.12Z"/><path class="cls-5" d="M252.65,255.32a15.69,15.69,0,0,0,3.79,1.8,21.42,21.42,0,0,0,4.07.63,12.51,12.51,0,0,0,2.12,0c.5,0,1-.12,1.49-.15l-.55,0a5.14,5.14,0,0,0,1.7-.23,2.75,2.75,0,0,0,1.4-1.16,6.18,6.18,0,0,0,.43-.9,15.64,15.64,0,0,1-3.61-.16c-.75-.15-1.51-.31-2.27-.44s-1.35-.15-2-.25l.71.11-.76-.11-.16,0h0l-.66-.09h0l-1-.14.56.08c-.74-.12-1.47-.27-2.21-.4l-1.45-.16c-.72-.1-1.42-.24-2.13-.36s-1.3-.07-2-.08a9.37,9.37,0,0,0,2.51,2Z"/><path class="cls-5" d="M259,254.43h0Z"/><path class="cls-5" d="M265.09,247.91c.43,0,.87,0,1.3,0a.86.86,0,0,1,.14-.13l-1.44.13Z"/><path class="cls-5" d="M263.61,257.67a16.07,16.07,0,0,0,.34,2.41c.1.51.09,1,.2,1.55a2.12,2.12,0,0,0,4.19-.68c-.09-.42-.09-.86-.16-1.28-.11-.68-.26-1.35-.33-2s-.1-1.47-.15-2.2c0-.05,0-.11,0-.16h-.28a17.19,17.19,0,0,1-3.92-.15l-.07,0c.07.85.15,1.7.19,2.55Z"/><path class="cls-5" d="M170.34,277.61a7,7,0,0,0-1.69,1,8,8,0,0,0-1.32,1.34c-.3.37-.57.77-.84,1.17-.63.89-1.21,1.82-1.78,2.76a21.45,21.45,0,0,0-2.89,6.46,11.57,11.57,0,0,0,1.16,7.59c.39.69.78,1.37,1.21,2s.68,1,1.06,1.49a12.59,12.59,0,0,0,1.15,1.16,15.88,15.88,0,0,0,3.75,2.46,10,10,0,0,0,2.82,1,8.25,8.25,0,0,0,4.27-.64,23.64,23.64,0,0,0,4.06-2,2,2,0,0,0,.78-1.45,2.1,2.1,0,0,0-1.9-2.32,2.2,2.2,0,0,0-1.42.38,20.44,20.44,0,0,1-3.81,1.73,5.79,5.79,0,0,1-.83.16,6,6,0,0,1-.85-.09,11.69,11.69,0,0,1-1.91-.85,14.35,14.35,0,0,1-2.26-1.59,12.17,12.17,0,0,1-1.28-1.57l-.6-.94a16.08,16.08,0,0,1-1.11-2.38,10.66,10.66,0,0,1-.27-1.94,9.43,9.43,0,0,1,.17-1.59,17.21,17.21,0,0,1,1.49-3.48c.55-.93,1.1-1.86,1.7-2.76a23.23,23.23,0,0,1,1.75-2.45,6,6,0,0,1,.68-.54c.21-.11.42-.2.64-.29a5.6,5.6,0,0,1,.59-.12,3.12,3.12,0,0,1,.44,0,19.67,19.67,0,0,1,2.44,1.08,2.12,2.12,0,0,0,2.7-2.84,2.23,2.23,0,0,0-1.18-1.12,11.9,11.9,0,0,0-3.91-1.4l-.44,0a7.33,7.33,0,0,0-2.57.57Z"/><path class="cls-5" d="M193.84,279.33a1.93,1.93,0,0,0-1.17-.15c-.61.17-1.22.31-1.82.51a6.73,6.73,0,0,0-1.6.82,8.83,8.83,0,0,0-2.32,2.36,19.51,19.51,0,0,0-1.74,3.21,13,13,0,0,0-1,4.34,14.82,14.82,0,0,0,.26,3.7,26.62,26.62,0,0,0,.95,3.5,14.12,14.12,0,0,0,1.49,3.14,13.23,13.23,0,0,0,.83,1.23,11.16,11.16,0,0,0,1.36,1.39,16.14,16.14,0,0,0,2.42,1.77,7.63,7.63,0,0,0,2,.9,6.86,6.86,0,0,0,1.68.22,7.21,7.21,0,0,0,2.25-.41c.49-.17,1-.36,1.43-.57a11.51,11.51,0,0,0,2.28-1.53,23,23,0,0,0,2.44-2.4,13.44,13.44,0,0,0,3.4-5.64,14.53,14.53,0,0,0,.26-4,19.7,19.7,0,0,0-.32-3,12.86,12.86,0,0,0-1.19-3.74,13.66,13.66,0,0,0-1.19-1.89,9.8,9.8,0,0,0-1.53-1.49,8.73,8.73,0,0,0-1.38-1,21,21,0,0,0-2-1.05,11.87,11.87,0,0,0-4.07-1h-.12a2.27,2.27,0,0,0-1.57.61Zm-.49,4a2.56,2.56,0,0,0,1.14-.57,1.81,1.81,0,0,0,.62.14,12.29,12.29,0,0,1,1.5.18,13.3,13.3,0,0,1,2.28.93,13.43,13.43,0,0,1,1.87,1.32,8.32,8.32,0,0,1,.87,1.09,13,13,0,0,1,.79,1.79,20.71,20.71,0,0,1,.59,4.07,13.54,13.54,0,0,1-.15,2.3,7.93,7.93,0,0,1-.51,1.33,22.06,22.06,0,0,1-2.61,3.32,17,17,0,0,1-2.35,2,11.15,11.15,0,0,1-1.55.67c-.21.05-.41.09-.62.12a5.29,5.29,0,0,1-.56-.05,5.58,5.58,0,0,1-.67-.28,15.73,15.73,0,0,1-2.47-1.82,10.24,10.24,0,0,1-1.13-1.47,11.17,11.17,0,0,1-.64-1.24c-.2-.48-.38-1-.54-1.46-.2-.71-.38-1.42-.55-2.13a14.57,14.57,0,0,1-.28-2.19,18.42,18.42,0,0,1,.3-2.56,14.42,14.42,0,0,1,1.13-2.58,12.44,12.44,0,0,1,1.21-1.73,6.85,6.85,0,0,1,.85-.68l.5-.22,1-.26Z"/><path class="cls-5" d="M224,275.47a6.62,6.62,0,0,0-1.22.31c-1.94.54-3.92.94-5.87,1.45a16.93,16.93,0,0,1-3,.48,4.2,4.2,0,0,0-.51.05,3.17,3.17,0,0,0-1.34.56,2.3,2.3,0,0,0-.82,2.12,3.6,3.6,0,0,0,.21.78c.16.55.33,1.09.5,1.63a9.2,9.2,0,0,1,.22,1.73c0,.71.1,1.42.16,2.12.15,1.54.4,3.05.62,4.57s.37,3.15.44,4.75.11,3.12.25,4.68a2.13,2.13,0,0,0,2.43,1.76,2.17,2.17,0,0,0,1.37-.83,2.25,2.25,0,0,0,.39-1.61c-.15-1.68-.2-3.37-.27-5.06a43.72,43.72,0,0,0-.52-5c-.25-1.6-.45-3.2-.59-4.82-.08-.75-.08-1.5-.17-2.25a7.61,7.61,0,0,0-.25-1.15l.13,0c.92-.13,1.82-.42,2.73-.64,1.86-.45,3.73-.86,5.56-1.41l-.52.15a5.71,5.71,0,0,1,.74-.18,2.11,2.11,0,0,0-.39-4.2,1.42,1.42,0,0,0-.29,0Z"/><path class="cls-5" d="M222.84,285.89c-.51.06-1,.06-1.51.11s-.91.12-1.36.19a24.79,24.79,0,0,1-2.56.3l-1,0a2.25,2.25,0,0,0-1.53.45A2.13,2.13,0,0,0,216,290.7a24.09,24.09,0,0,0,4.16-.25c.56-.09,1.11-.18,1.67-.24s1.11-.06,1.67-.13a2.12,2.12,0,0,0-.4-4.21l-.28,0Z"/><path class="cls-5" d="M242.27,273.27a59.52,59.52,0,0,1-6.64.79,9.73,9.73,0,0,1-1.52-.12l-.38-.12a2.84,2.84,0,0,0-1.29-.14,2.17,2.17,0,0,0-1.69,1.39c-.38,1,.05,2.1.27,3.08a31.21,31.21,0,0,1,.73,5.18c0,.82,0,1.64,0,2.46,0,1.12.08,2.25.15,3.36a20.61,20.61,0,0,0,.33,2.72c.15.8.3,1.59.38,2.4a20,20,0,0,1-.39,2.64,2.11,2.11,0,0,0,3.43,1.86,2.17,2.17,0,0,0,.79-1.45,14.32,14.32,0,0,0,.4-2.69,16,16,0,0,0-.36-3.09,35.12,35.12,0,0,1-.51-5.41,42.42,42.42,0,0,0-.2-5.64c-.09-.73-.23-1.46-.37-2.19a20.75,20.75,0,0,0,2.09-.13c.89-.08,1.78-.15,2.66-.27s1.87-.29,2.81-.44a2.12,2.12,0,0,0-.34-4.22,2,2,0,0,0-.34,0ZM236,285.66a2.26,2.26,0,0,0,0,.26v-.26Z"/><path class="cls-5" d="M241.47,283.82c-1.15.12-2.29.29-3.44.37a11.45,11.45,0,0,1-2-.22,2.06,2.06,0,0,0-1.53.46,2.13,2.13,0,0,0-.8,1.45,2.18,2.18,0,0,0,.46,1.53,2.24,2.24,0,0,0,1.45.79c.42.08.83.16,1.26.2a11,11,0,0,0,1.72,0c.41,0,.81-.05,1.21-.09.79-.09,1.57-.21,2.36-.29a2.12,2.12,0,0,0-.42-4.21l-.26,0Z"/><path class="cls-5" d="M252.32,274.38a2.12,2.12,0,0,0-1.36.83,2.25,2.25,0,0,0-.39,1.61c.09,1,.16,2,.2,3q0,1.89-.15,3.78a24.47,24.47,0,0,0,0,4.28,35.28,35.28,0,0,0,.59,3.66c.1.53.18,1.07.25,1.61a14.43,14.43,0,0,0,.45,2,5.36,5.36,0,0,0,.75,1.78,3.59,3.59,0,0,0,3.06,1.29,31.14,31.14,0,0,0,4.3-.42,34.4,34.4,0,0,0,3.87-.89c1.34-.37,2.65-.87,4-1.29l.78-.23a2,2,0,0,0,1.12-1.17,2.12,2.12,0,0,0-1.22-2.74,2.08,2.08,0,0,0-1.37,0l.07,0-.13,0-.14,0c-1.3.38-2.57.84-3.86,1.24A34.76,34.76,0,0,1,256,294a14,14,0,0,1-.36-1.91c-.09-.6-.19-1.19-.31-1.78s-.27-1.39-.37-2.09-.15-1.3-.18-2c0-1.52.2-3,.23-4.55a47,47,0,0,0-.22-5.56,2.11,2.11,0,0,0-2.13-1.77,1.67,1.67,0,0,0-.31,0Zm3.5,19.1s0,.1,0,.15,0-.1,0-.15Zm.15.5Zm.14.5h0l0,.1,0-.1Z"/><path class="cls-5" d="M262.37,281.69c-.65.13-1.3.22-1.95.37s-1.41.36-2.12.54c-1.55.42-3.08.93-4.6,1.46a2.12,2.12,0,0,0,.1,3.92,2.21,2.21,0,0,0,1.62,0c1-.34,1.94-.65,2.91-1l2.2-.58c.84-.21,1.68-.34,2.52-.51a2.13,2.13,0,0,0-.3-4.23,1.64,1.64,0,0,0-.38,0Z"/><path class="cls-5" d="M262.41,272c-.77.06-1.54.19-2.31.28s-1.66.2-2.49.28c-1.78.18-3.53.48-5.3.65a2.12,2.12,0,0,0-1.76,2.43,2.17,2.17,0,0,0,.83,1.37,2.31,2.31,0,0,0,1.61.39c1.77-.17,3.52-.47,5.3-.65l2.34-.26c.82-.1,1.63-.24,2.46-.3a2.12,2.12,0,0,0,.92-3.8,2.06,2.06,0,0,0-1.3-.4Z"/><path class="cls-5" d="M273.82,270.87a2.11,2.11,0,0,0-1.37.83,2.27,2.27,0,0,0-.39,1.6c.08,1.09.18,2.17.26,3.26s.12,2.37.18,3.55h0c0,1,.06,2,.12,3s.25,2.21.42,3.3.35,2.07.48,3.11a21.22,21.22,0,0,0,.43,2.86,7.85,7.85,0,0,0,.56,1.56,3.59,3.59,0,0,0,.95,1.2,3.08,3.08,0,0,0,2.23.48c1-.06,2.06-.27,3.08-.39l3.22-.38c.91-.12,1.82-.28,2.73-.41.39,0,.78-.08,1.17-.11a2,2,0,0,0,1.36-.83,2.13,2.13,0,0,0-.44-3,2.32,2.32,0,0,0-1.6-.39c-.81,0-1.6.18-2.4.31s-1.65.23-2.48.32-1.8.21-2.69.33c-.53.06-1.06.15-1.59.22-.14-.66-.2-1.34-.28-2-.12-1-.27-1.91-.43-2.86a46.79,46.79,0,0,1-.6-5.42v.06c0-1.39-.1-2.78-.17-4.18s-.22-2.83-.32-4.25a2,2,0,0,0-.83-1.36,2.06,2.06,0,0,0-1.27-.42l-.33,0Z"/><path class="cls-5" d="M283.6,277.41c-.63.18-1.28.28-1.92.42l-1.95.4-2.08.38A21.18,21.18,0,0,1,275,279h-.36a2.31,2.31,0,0,0-1.53.45,2.12,2.12,0,0,0-.79,1.45,2.1,2.1,0,0,0,.45,1.53,2.05,2.05,0,0,0,1.45.8,18.82,18.82,0,0,0,2.6-.17l1.22-.2,2.19-.41c.68-.12,1.36-.26,2-.41s1.34-.25,2-.43a2.29,2.29,0,0,0,1.37-.83,2.13,2.13,0,0,0,.39-1.6,2.17,2.17,0,0,0-.83-1.37,2.3,2.3,0,0,0-1.26-.43,1.34,1.34,0,0,0-.35,0Z"/><path class="cls-5" d="M286.53,268.94c-1,.12-1.95.26-2.94.32l-3.51.19c-1.15.06-2.31.14-3.46.31s-2.44.38-3.66.54a2.14,2.14,0,0,0-1.76,2.43,2.16,2.16,0,0,0,2.44,1.76c1.19-.16,2.38-.35,3.58-.53s2.27-.25,3.41-.31l3.49-.19c.5,0,1,0,1.51-.11s1.06-.16,1.58-.22a2.11,2.11,0,0,0-.4-4.2Z"/></g></g></svg>