<svg xmlns="http://www.w3.org/2000/svg" width="724.357" height="552.864" viewBox="0 0 724.357 552.864">
  <defs>
    <style>
      .a {
        fill: #000000;
      }

      .b {
        fill: #fefefe;
      }
    </style>
  </defs>
  <g>
    <g>
      <path class="a" d="M625.023.424c-.91.148-1.8.347-2.692.578a16.758,16.758,0,0,0-3.16,1.129,26.751,26.751,0,0,0-5.058,3.25A20.561,20.561,0,0,0,611.058,8.5a11.2,11.2,0,0,0-1.121,1.844,24.446,24.446,0,0,0-1.157,2.465,17.857,17.857,0,0,0-.906,4.32,16.619,16.619,0,0,0,.047,3.39,17.374,17.374,0,0,0,.547,3.223,16.22,16.22,0,0,0,3.777,6.813,17.4,17.4,0,0,0,6.442,4.2,16.8,16.8,0,0,0,3.89.89,10.485,10.485,0,0,0,1.653.051,25.853,25.853,0,0,0,2.875-.223,17.063,17.063,0,0,0,3.524-.942q.45-.07.9-.171a21.007,21.007,0,0,0,2.367-.781,8.6,8.6,0,0,0,1.125-.5,30.971,30.971,0,0,0,2.926-1.848,24.129,24.129,0,0,0,4.121-3.863,20.3,20.3,0,0,0,2.265-2.809c.586-.961,1.114-1.945,1.621-2.953a28.386,28.386,0,0,0,1.973-5.3,13.2,13.2,0,0,0,.371-6.086,11.584,11.584,0,0,0-2.629-5.015c-1.972-2.43-5.023-3.7-7.992-4.406A30.518,30.518,0,0,0,631.351.01q-.433-.01-.867-.01a33.915,33.915,0,0,0-5.461.424Z"/>
      <path class="a" d="M679.6,51.964a45.557,45.557,0,0,0-5.723.969,28.585,28.585,0,0,0-7.356,3.136,42.574,42.574,0,0,0-5.464,3.766,33.311,33.311,0,0,0-3.954,3.687,31.168,31.168,0,0,0-4.144,5.243,37.189,37.189,0,0,0-2.195,4.354,29.384,29.384,0,0,0-2.883,3.9,25.706,25.706,0,0,0-2.5,5.5,29.581,29.581,0,0,0-1.18,6.024,31.88,31.88,0,0,0,.024,5.918,37.2,37.2,0,0,0,.57,5.183,35.207,35.207,0,0,0,1.984,6.231c1.5,3.566,4.411,6.14,7.539,8.258a46.8,46.8,0,0,0,4.891,2.773c1.9.977,3.789,2.027,5.773,2.828a73.816,73.816,0,0,0,10.9,3.4,42.116,42.116,0,0,0,11.785,1.019c2.1-.113,4.18-.285,6.262-.558a31.069,31.069,0,0,0,5.605-1.387,38.377,38.377,0,0,0,5.621-2.3,43.212,43.212,0,0,0,5.543-3.453,28.729,28.729,0,0,0,4.047-3.484,23.209,23.209,0,0,0,3.668-5.231,33.655,33.655,0,0,0,2.484-5.719c.54-1.726,1.024-3.488,1.438-5.25.516-2.167.973-4.351,1.4-6.539a27.539,27.539,0,0,0,.621-5.4,38.227,38.227,0,0,0-.539-6.371c-.332-1.863-.765-3.7-1.2-5.547a27.556,27.556,0,0,0-.926-3.051,14.708,14.708,0,0,0-1.993-3.74,16.517,16.517,0,0,0-7.292-8.83c-4.441-2.629-9.6-3.418-14.613-4.2q-1.078-.168-2.159-.306c-1.4-.3-2.806-.543-4.2-.784a31.861,31.861,0,0,0-5.434-.43,60.7,60.7,0,0,0-6.4.391Zm-26.088,52.789.129.126.06.109-.189-.235Z"/>
      <path class="a" d="M361.346,5.172h-.086a41.717,41.717,0,0,0-6.3.641l-.1.015-.96.149c-1.48.161-3.072.266-4.866.32a40.409,40.409,0,0,0-5.44.684L342.9,7.1l-.668.113c-.628.063-1.256.117-1.889.164a43.643,43.643,0,0,0-5.087.766c-.974.2-1.951.451-2.813.672l-.325.086c-1.4.366-2.569.662-3.776.871-1.064.14-2.2.3-3.329.539l-.687.152c-.727.164-1.453.325-2.187.457l-.211.024c-.992.121-1.981.242-2.965.4-.481.082-.95.176-1.426.274l-.262.05c-.441.094-.883.184-1.324.266-.492.09-.984.164-1.476.234-.559.082-1.086.16-1.606.262-.46.09-.914.191-1.364.292l-.234.052-.3.066-.3.067-1.039.246a18.107,18.107,0,0,0-1.875.527c-.38.125-.7.227-1.024.321-.94.266-1.918.453-2.921.636-1.819.339-3.6.85-5.176,1.3l-1.188.34c-1.848.512-3.821,1.132-5.864,1.844-.73.254-1.464.492-2.2.73-1.344.428-2.773.893-4.16,1.465l-.481.2a59.208,59.208,0,0,0-6.853,3.16l-.906.52c-1.46.837-3.114,1.786-4.8,2.558l-.617.265-.582.25-1,.383c-1.782.674-4,1.512-6.118,2.516-.347.168-.691.332-1.038.5l-.773.25-.265.086-.172.054c-1.642.534-3.122,1.019-4.606,1.555a121.928,121.928,0,0,0-14.833,6.1c-1.918.987-3.772,2.005-5.172,2.782-1.186.656-2.428,1.263-3.63,1.85l-.269.134c-.546.265-1.093.531-1.636.8a80.633,80.633,0,0,0-10.078,6.311l-.654.455c-1.783,1.237-3.538,2.5-5.293,3.772-1.5,1.08-2.98,2.15-4.476,3.2l-1.121.785c-2.4,1.672-5.377,3.753-8.216,5.9l-.09.071-.082.071-.343.257-.676.52.476-.269c-2.094,1.538-4.1,3.158-6.152,4.937-1.3,1.136-2.6,2.386-3.708,3.469-.515.5-1,.969-1.488,1.434-4.345,4.137-7.833,7.582-10.977,10.844-4,4.157-7.82,7.877-11.683,11.374-1.868,1.7-3.71,3.619-5.335,5.309l-.177.184-.074.074-1.618,1.676c-1.218,1.258-2.433,2.515-3.625,3.8a131.126,131.126,0,0,0-8.764,10.888l-.119.159-.086.11-1.5,2c-2.907,3.876-5.623,7.956-8.019,11.556l-.149.225c-2.9,4.354-5.289,8.234-7.313,11.864-.835,1.5-1.745,2.99-2.625,4.433l-.129.212-.055.089a87.51,87.51,0,0,0-4.461,7.911c-1.5,3.17-2.6,5.674-3.555,8.122l-1.075,2.766q-.871,2.238-1.742,4.445c-.464,1.168-.937,2.324-1.414,3.484-1.437,3.508-3.067,7.483-4.25,11.455-.609,2.019-1.183,4.042-1.758,6.066l-.207.731-.051.183-.105.363c-.782,2.764-1.55,5.46-2.348,8.067l-.3.953-.3.964c-.579,1.807-1.228,3.835-1.7,5.9-.412,1.752-.681,3.674-.859,4.946l-.095.624c-.1.663-.2,1.325-.308,1.985a127.259,127.259,0,0,0-1.7,17.466c-.174,5.373-.206,10.847-.237,16.141v.109l0,.125v.11q-.064,12.327-.062,24.644l0,6.2,0,3.989v3.984c0,2.349.125,4.886.394,7.985.047.555.086,1.114.125,1.672.063.86.125,1.719.215,2.575.106.945.223,1.886.344,2.832l.015.167.188,1.47c.513,4.148.963,7.538,1.414,10.668l.023.2c.646,4.851,1.378,10.35,2.434,15.629.608,3.089,1.117,5.8,1.559,8.3.129.75.258,1.5.383,2.254l.179,1.035c.3,1.793.6,3.582.934,5.364.284,1.574.637,3.217.945,4.633l.067.3c.246,1.129.488,2.254.718,3.387.325,1.627.746,3.276,1.118,4.731l.093.383c.227.89.454,1.785.664,2.683,1.21,5.237,2.58,10.149,4.188,15.017.687,2.087,1.31,3.892,1.907,5.519.814,2.242,1.794,4.514,2.582,6.341l.1.234c1.277,3.059,2.643,6.151,4.062,9.188.154.336.311.668.468,1l.235.5.293.613c.7,1.477,1.664,3.5,2.527,5.5,1.9,4.514,3.721,8.563,5.563,12.375.986,2.054,2.051,4.071,3.165,6,1.073,1.855,2.273,3.618,3.332,5.172.91,1.348,1.836,2.669,2.766,3.989l.136.195c1.244,1.774,2.793,3.982,4.153,6.1,1.189,1.86,2.3,3.491,3.4,4.985.882,1.188,1.8,2.314,2.911,3.661l.078.1c.539.653,1.074,1.305,1.6,1.965,1.121,1.5,2.215,3.019,3.305,4.543l.144.2.258.359.3.422c1.253,1.735,2.549,3.53,3.872,5.247l.648.847c.841,1.1,1.71,2.235,2.63,3.263s1.867,2.039,2.816,3.047c1.736,1.849,3.445,3.659,5.258,5.48.582.582,1.153,1.164,1.723,1.75,1.126,1.151,2.4,2.455,3.645,3.649,1.191,1.134,2.372,2.192,3.793,3.457.719.641,1.441,1.285,2.152,1.934.883.8,1.778,1.6,2.676,2.387l.211.183.391.348c.968.859,1.937,1.718,2.878,2.6,2.021,1.874,4.067,3.65,5.8,5.141,2.33,2,4.914,4,7.681,5.95,1.156.812,2.332,1.594,3.512,2.375l.1.066.41.278c.961.64,1.914,1.277,2.867,1.941l.516.359.113.082c3.985,2.788,8.105,5.671,12.407,8.185,2.134,1.249,4.461,2.475,7.325,3.855,3.532,1.7,6.267,3,9.313,4.184,4.974,1.948,10.151,3.716,15,5.336,5.12,1.715,10.182,3.039,15.348,4.356,4.487,1.146,9.446,2.275,15.606,3.555l1.121.23.371.075.188.035.2.042c1.852.384,3.768.782,5.634,1.223.769.184,1.538.375,2.308.567l.785.191.738.184.7.175.536.133c.757.188,1.515.375,2.277.555l1.242.3.2.051c1.837.443,4.124,1,6.329,1.363,2.963.486,6.125.9,10.255,1.332,3.394.359,6.789.758,10.179,1.156l.262.031.574.067q2.6.3,5.192.605c1.835.207,3.668.438,5.5.668l.195.024c3.295.412,7,.876,10.594,1.168,10.189.812,20.483.836,30.438.859l3.649.012h.3a101.156,101.156,0,0,0,17.6-1.7c3.377-.6,6.911-1.285,10.029-1.891l.124-.024.527-.1,1.418-.277.219-.047c1.2-.235,2.4-.469,3.6-.692,2.455-.475,4.923-1,7.77-1.64,1.5-.348,3.106-.66,4.394-.911l.258-.046.562-.106c.844-.16,1.684-.32,2.528-.488a138.115,138.115,0,0,0,14.521-3.606l2.218-.691c3.56-1.109,7.991-2.489,12.215-3.938,2.11-.723,4.343-1.608,5.973-2.254l1.352-.535c2.6-1.021,6-2.378,9.3-3.824,2.578-1.13,4.9-2.159,7.216-3.325,2.242-1.125,4.523-2.394,6.355-3.414l.9-.5a121.382,121.382,0,0,0,13.657-8.895c2.094-1.559,4.192-3.126,6.266-4.719l-.193.049c4.871-3.618,9.146-6.782,13.873-10.245,2.525-1.848,5.5-4.058,8.387-6.43.8-.656,1.582-1.32,2.371-1.988,1.493-1.271,2.657-2.247,3.847-3.183,4.93-3.823,8.9-7.17,12.5-10.532,1.234-1.156,2.414-2.379,3.555-3.563l.136-.137c.629-.656,1.231-1.277,1.844-1.9,1.427-1.451,2.848-2.962,3.926-4.117l1.621-1.723A138.428,138.428,0,0,0,580.558,452.4c2.863-3.894,5.857-8.076,9.421-13.161,2.816-4.012,5.607-8.346,8.782-13.637,2.952-4.892,5.588-10.03,8.137-15l.743-1.434.414-.805.117-.226c.8-1.531,1.8-3.436,2.687-5.356,1.282-2.758,2.578-5.729,4.078-9.348,1.975-4.725,3.6-9.788,4.9-13.856l.055-.168c2.314-7.248,4.935-15.689,6.75-24.15,2.073-9.7,3.6-18.452,4.672-26.739l.02-.148c.778-5.64,1.583-11.472,1.934-17.419.148-2.6.4-5.194.64-7.707.235-2.462.477-5,.629-7.543.3-5.217.348-10.307.391-14.8a125.584,125.584,0,0,0-1.149-16.927c-.388-2.98-.95-6.052-1.445-8.763l-.063-.351c-.37-2.016-.759-4.162-1.082-6.281-.156-1.281-.293-2.558-.41-3.843-.19-2.06-.48-4.194-.736-6.077l-.022-.178-.148-1.093-.055.2.035-.177v-.161c-.37-2.6-.771-5.2-1.226-7.927-.121-.7-.234-1.406-.344-2.109l-.027-.169c-.265-1.658-.561-3.512-.93-5.328l-.211-1.023c-.421-2.011-.946-4.513-1.281-6.961-.339-2.412-.8-4.972-1.426-7.825-.711-3.236-1.685-6.459-2.628-9.575l-.033-.109-.031-.109c-.418-1.379-.832-2.746-1.222-4.114a160.193,160.193,0,0,0-5.341-15.274l-1.171-2.945-.035-.1-.121-.312-.044-.108c-1.017-2.553-2.07-5.191-3.148-7.775-4.13-10.148-8.615-20.909-14.012-31.1-2.44-4.614-5.054-8.96-7.516-12.969l-.656-1.074-.184-.305c-.922-1.511-1.948-3.194-3-4.785-.88-1.358-1.8-2.7-2.825-4.2l-.2-.3-1.3-1.886c-2.864-4.209-6.179-8.178-9.386-12.016l-.13-.153-.965-1.149c-1.729-2.069-3.466-4.034-4.937-5.684-.84-.949-1.664-1.91-2.484-2.874-.758-.891-1.508-1.77-2.274-2.637A115.713,115.713,0,0,0,550.521,74.3a164.986,164.986,0,0,0-13.466-10.848c-3.522-2.5-7.207-5.23-10.953-8.117-3.573-2.749-7.267-5.193-10.086-7.016a102.978,102.978,0,0,0-11.286-6.461c-5.483-2.65-9.737-4.582-13.794-6.262-1.984-.868-4-1.8-5.824-2.637l-.418-.191-.261-.121c-2.275-1.05-4.5-2.069-6.684-3.008-.121-.051-.164-.071-.2-.09l-.54-.227-.539-.226.464.279c-2.321-1.05-4.981-2.148-8.616-3.576l-.75-.325c-2.028-.88-4.189-1.809-6.344-2.648a61.276,61.276,0,0,0-6.47-2l-.777-.211-1.1-.3c-.848-.238-1.692-.473-2.544-.672-.947-.232-1.913-.422-2.82-.6-.481-.095-.934-.185-1.387-.279-2.936-.6-5.441-1.149-7.66-1.683-1.879-.457-3.755-1.046-5.571-1.615l-.194-.061-.145-.043L431.408,15a51.1,51.1,0,0,0-5.873-1.334l-.323-.061L423.9,13.36c-2.566-.492-5.125-.988-7.688-1.508-1.128-.227-2.261-.422-3.4-.617-1.224-.208-2.49-.423-3.734-.692-1.443-.3-2.886-.665-4.281-1.018l-.223-.056-.332-.082-.105-.031-.676-.168c-.718-.184-1.429-.387-2.136-.59l-.106-.031c-1.078-.309-2.327-.666-3.532-.906a58.515,58.515,0,0,0-7.54-.9l-.879-.049-.375-.021-.52-.028c-1.264-.059-2.7-.126-4.089-.289-2.532-.34-5.265-.684-8.086-.89-2.462-.176-4.875-.221-7.774-.262-2.36-.031-4.719-.043-7.079-.051Z"/>
      <path class="a" d="M33.744,288.6a23.127,23.127,0,0,0-7.343,1.668,24.094,24.094,0,0,0-11.008,9.969,22.667,22.667,0,0,0-1.317,2.66,20.28,20.28,0,0,0-1.291,4.218,23.556,23.556,0,0,0-.857,2.938,40.349,40.349,0,0,0-.832,7.684c-.027,2.168.066,4.351.168,6.511a29.9,29.9,0,0,0,1.348,8.457A20.264,20.264,0,0,0,17.2,339.83a24.391,24.391,0,0,0,5.149,3.984,22.6,22.6,0,0,0,6.805,2.66,22.685,22.685,0,0,0,7.64.16,26.105,26.105,0,0,0,6.606-1.722,39.612,39.612,0,0,0,6.14-3.11,19.738,19.738,0,0,0,5.965-6.277,67.115,67.115,0,0,0,5.819-11.339l-.229.593a35.835,35.835,0,0,0,1.328-3.785c.285-1.071.531-2.161.77-3.243a30.244,30.244,0,0,0,.57-3.648,14.6,14.6,0,0,0,.016-3.527,21.1,21.1,0,0,0-.95-4.141,31.558,31.558,0,0,0-1.82-4.086c-.965-1.844-2.133-3.609-3.269-5.348a16.248,16.248,0,0,0-1.059-1.379,21.123,21.123,0,0,0-1.906-2.1,14.5,14.5,0,0,0-1.621-1.195,10.35,10.35,0,0,0-2.094-1.047c-.836-.344-1.684-.657-2.539-.961a32.87,32.87,0,0,0-7.981-1.438c-1.718-.155-3.471-.332-5.209-.332-.53,0-1.058.017-1.584.055Z"/>
      <path class="a" d="M70.91,385.071A14.529,14.529,0,0,0,65,388.732a20.3,20.3,0,0,0-4.648,6.222,17.759,17.759,0,0,0-1.45,4.6c-.13.5-.235,1-.323,1.486a18.564,18.564,0,0,0,.558,8.293,19.556,19.556,0,0,0,1.852,4.094,19.956,19.956,0,0,0,2.832,3.664,17.328,17.328,0,0,0,3.023,2.39,11.588,11.588,0,0,0,1.477.836c1.211.575,2.426,1.1,3.679,1.582.477.184.954.352,1.438.512a14.994,14.994,0,0,0,3.2.551,16.492,16.492,0,0,0,5.106-.348,17.893,17.893,0,0,0,4.054-1.433,10.69,10.69,0,0,0,1.789-1.211,14.62,14.62,0,0,0,3.387-3.571c.363-.539.711-1.07,1.024-1.644a18.829,18.829,0,0,0,.9-2.246,14.973,14.973,0,0,0,.473-1.531c.32-1.258.582-2.516.8-3.8a22.44,22.44,0,0,0-.488-10.653,15.448,15.448,0,0,0-4.308-6.4,17.155,17.155,0,0,0-4.208-2.8,35.754,35.754,0,0,0-6.988-2.48,13.832,13.832,0,0,0-3.077-.341,16.545,16.545,0,0,0-4.185.563Z"/>
      <path class="a" d="M13.174,378.073a7.647,7.647,0,0,0-3.734,1.113,10.189,10.189,0,0,0-1.551,1.131A4.358,4.358,0,0,0,5.5,381.8a39.866,39.866,0,0,0-4.187,5.774,11.688,11.688,0,0,0-1,3.183,11.946,11.946,0,0,0-.16,1.231C.045,393.038.022,394.1,0,395.151a16.328,16.328,0,0,0,1.086,5.863A14.825,14.825,0,0,0,2.831,404.4a8.821,8.821,0,0,0,4.027,3.047c2.5.984,4.93,1.906,7.68,1.586a16.467,16.467,0,0,0,3.628-.953,13.491,13.491,0,0,0,3.286-1.9,20.658,20.658,0,0,0,3.847-3.625,15.509,15.509,0,0,0,2.363-5.59,13.5,13.5,0,0,0,.7-2.554,26.969,26.969,0,0,0,.191-3.844,9.156,9.156,0,0,0-1.5-5.047,17.148,17.148,0,0,0-2.48-2.883A23.673,23.673,0,0,0,22.5,380.8a16.2,16.2,0,0,0-2.34-1.484,13.377,13.377,0,0,0-2.426-.82,11.53,11.53,0,0,0-2.449-.352c-.651-.04-1.32-.067-1.973-.067ZM17.09,394.48l.037.069-.037-.069Z"/>
    </g>
    <g>
      <path class="b" d="M336.52,157.972h-3.267c-1.034.014-2.055.014-3.088,0l2.2.041c-1.061,0-2.123-.027-3.171-.055h-1.033l-.868.007a6.236,6.236,0,0,0-.428.6,8.725,8.725,0,0,0-6.976,7.748c-.138,2.633-.331,5.252-.58,7.872-.1,1.089-.22,2.164-.234,3.253-.014,1.558.138,3.089.234,4.647.028,1.875.028,3.75.124,5.625.07,1.254.235,2.5.345,3.736.014,4.839-.427,9.664-.427,14.517a70.655,70.655,0,0,0,.358,9.347c.193,1.379.4,2.772.538,4.164-.041.965-.138,1.944-.124,2.923.083,2.73.4,5.115,2.233,7.334A9.283,9.283,0,0,0,328.483,233a13.462,13.462,0,0,0,2.357-.069c.717-.014,1.434-.042,2.137-.055l-1.144.041c.689-.014,1.365-.041,2.026-.069a2.626,2.626,0,0,1,.331-.014h-.234c.4-.014.813-.027,1.227-.055,2.5,0,4.963.345,7.445.414,3.433.082,6.838.1,10.257-.028a108.741,108.741,0,0,1,11.8.4c4.15.345,8.3.358,12.436.731,4,.358,8.024.937,12.036,1.006.868.014,1.75,0,2.633,0,1.392-.014,2.8-.027,4.219.028,2,.1,3.984.275,5.969.455.979.082,1.958.179,2.937.275,4.853.455,8.6-2.081,10.588-6.369a17.84,17.84,0,0,0,1.144-6.259c.111-1.682.248-3.35.4-5.019a162,162,0,0,0,.851-18.27l0-.165-.006-.232v.021c-.072-3.024-.013-6.075.137-9.092.15-3.378.1-6.77-.023-10.148-.043-2.146.09-4.291.05-6.424-.041-2.316-.151-4.632-.262-6.948-.041-.786-.22-1.572-.317-2.372a8.8,8.8,0,0,0-.806-2.612c-.731-.1-1.461-.171-2.185-.2-1.889-.055-3.778-.166-5.667-.234a31.788,31.788,0,0,1-4.852-.331,29.432,29.432,0,0,0-3.3-.331c-3.846-.055-7.72-.152-11.553-.5-2.66-.22-5.321-.551-7.982-.689-2.634-.014-5.267,0-7.886-.248-2.261-.207-4.453-.593-6.714-.745-3.185-.013-6.4-.055-9.582-.261-2.7-.18-5.377-.455-8.093-.538.621.014,1.227.014,1.848.027-1.393-.027-2.785-.082-4.191-.11-.18,0-.373-.014-.552-.014-.138,0-.276-.013-.413-.013h.124c-.359,0-.717-.014-1.09-.028-.923,0-1.861.014-2.784.014s-1.889.027-2.827.027h-.014c-.8,0-1.585-.013-2.371-.027-.524-.014-1.061-.014-1.585-.028.51.014,1.006.028,1.516.028Zm81.488,22.722c0,.071,0,.144,0,.219,0-.073,0-.146,0-.219Zm-87.637,34.741h0Zm-.11,0a.05.05,0,0,1,.028.013c-.193,0-.4,0-.593.014.193-.014.372-.014.565-.027Z"/>
      <path class="b" d="M345.068,157.958c.648.014,1.3.028,1.944.028-.565,0-1.117-.014-1.668-.028Z"/>
      <path class="b" d="M400.449,161.06l-2.123-.041c.7.027,1.42.041,2.123.041Z"/>
      <path class="b" d="M408.085,161.708c-.33,0-.66-.014-.991-.014.326.014.665.014.991.014Z"/>
      <path class="b" d="M417.9,199.977c0,.055,0,.11,0,.165q.007.291.018.582c0-.324-.014-.647-.027-.958l0,.211Z"/>
      <path class="b" d="M288.992,255.874l-.559.007-.558.007c-1.443.031-2.882.077-4.321.122-1.725.055-3.449.11-5.178.14-5.674.114-13.132.3-20.516.717a11.182,11.182,0,0,0-3.721.774,8.3,8.3,0,0,0-5.369,5.414,19.417,19.417,0,0,0-.511,7.54l0-.687.037,1.024.165,2.6,0-.124.044.772,0-.265c.029.609.069,1.217.108,1.823.024,1.026-.017,2.05-.059,3.074-.029.733-.059,1.467-.065,2.2,0,2.272.08,4.533.188,6.809l0,.213.062,1.129c0,.019.031.209.051.209h0c.018,0,.043.132.047.14l-.035.131-.015.276.028.445.007.336.083,1.083c.041,1.211.013,2.409-.028,3.608-.024.94.021,1.879.066,2.818.033.688.066,1.376.072,2.064,0,1.9-.041,3.818-.11,5.72-.082,2.413.033,4.763.179,7.365.183,4.062,0,8.2-.166,12.2-.1,2.378-.2,4.755-.234,7.13l-.01,1.89c-.008,2.261-.015,4.6-.21,6.917a64.324,64.324,0,0,0,.094,9.595c.153,3.578.134,7.175.115,10.654-.014,2.583-.028,5.166.025,7.755.023,1.357-.047,2.7-.116,4.046-.056,1.1-.112,2.2-.119,3.3-.007,1.342-.051,2.681-.095,4.023-.033,1.013-.066,2.028-.084,3.049-.1,5,3.222,8.971,7.9,9.452a9.549,9.549,0,0,0,6.153,1.779,5.837,5.837,0,0,0,.8-.056l.453.091c.282.056.562.112.848.157a18.57,18.57,0,0,0,2.908.185l.778-.006h1.457c.79,0,1.355-.032,1.916-.063l.379-.02c.538-.042,1.061-.069,1.6-.083,3.433.165,6.864.357,10.3.549,3.456.194,6.914.388,10.379.554,2.133.11,4.267.135,6.4.135l2.552-.008.636,0,1.923-.007,1.923-.007,4.044.019c3.371.015,6.743.029,10.1.078l.389.007.37.007c1.534.076,3.067.2,4.6.32,1.243.1,2.485.2,3.728.272l.794.045c2.644.15,5.287.3,7.931.562,3.371.344,6.724.522,10.149.689,1.488.077,2.973.171,4.458.265,2.818.178,5.634.357,8.461.411l-.35-.028,1.591.069c1.871.07,3.737.2,5.6.326,2.714.187,5.521.38,8.3.38l.508,0c1.585-.006,3.17-.033,4.754-.059,1.788-.03,3.575-.06,5.362-.06l1.5.008q4.632.124,9.265.193l-.185-.019c.905.03,1.81.041,2.714.041,1.889,0,3.776-.046,5.663-.174,2.894-.208,5.5-.381,8.142-.381l.926.008h.1c.945.013,2.1.03,3.263.03,2.612,0,4.752-.088,6.736-.278l2.377-.234c1.79-.182,3.577-.365,5.383-.441,2.878-.109,5.853-.22,8.8-.538a60,60,0,0,1,6.5-.359l2.57.126c2.109.108,4.22.217,6.335.217q.849,0,1.7-.025c.925-.025,1.855-.067,2.787-.109,1.207-.055,2.417-.11,3.623-.126.272.021.544.055.816.089s.545.069.822.09a24.413,24.413,0,0,0,2.469.111c.954,0,1.911-.038,2.864-.076l1.316-.048a17.951,17.951,0,0,0,4.756-1.027c.485-.151.967-.3,1.442-.436,4.479-1.28,6.456-6.615,5.429-10.6a28.01,28.01,0,0,0,.1-3.858l-.017-1.083a7.6,7.6,0,0,0,.372-1.318,31.075,31.075,0,0,0,.359-6.873c-.027-.49-.067-.974-.106-1.46l-.06-.761c.014-1.186.027-2.387.053-3.589l-.011.366v-.428l.1-1.223a15.866,15.866,0,0,0,0-2.162c-.018-.363-.036-.724-.041-1.082a21.937,21.937,0,0,1,.193-2.925l.069-.628a26.628,26.628,0,0,0-.331-6.447l-.014-.561c-.032-1.042-.138-2.076-.244-3.108-.122-1.194-.245-2.387-.252-3.591.035-.946.071-1.887.1-2.827l.02-.168a62.971,62.971,0,0,0-.081-7.679c-.1-1.212-.151-2.4-.151-3.6l.077-1.339a47.075,47.075,0,0,0,.116-5.612c-.1-1.681-.166-3.349-.179-5.016l.1-1.245c.066-.729.131-1.458.157-2.187.063-1.577.05-3.143.037-4.709-.007-.843-.014-1.686-.009-2.53,0-1.247-.032-2.491-.064-3.733-.038-1.464-.075-2.925-.06-4.387.029-1.239.055-2.384.069-3.529l.155-3.324.148-3.155.014-.6.015-.445c.014-.311.026-.557.026-.792l-.084.378c.072-.625.07-1.58.068-2.535l0-2.3.063-1.384.062-1.386-.008-.622.035,0c.028-.592.069-1.185.124-1.763a32.6,32.6,0,0,0,.124-3.851,14.184,14.184,0,0,0-.575-3.16l-.1-.391-.455-2.053c-.152-.73-.317-1.461-.482-2.178l-.07-.362a5.486,5.486,0,0,0-.054-.821c-.2-1.327-.931-4.576-3.27-6.091l-.541-.353a7.872,7.872,0,0,0-3.567-1.513,3.487,3.487,0,0,1-1.184-.179,4.721,4.721,0,0,0-.845-.153,14.431,14.431,0,0,0-4.568-.566l-.687-.013-.6-.007a46.6,46.6,0,0,0-5.953.49c-.364.019-.732.028-1.1.028a47.76,47.76,0,0,1-4.811-.327c-.939-.095-1.876-.19-2.81-.253q-2.628-.161-5.237-.162a83.193,83.193,0,0,0-8.776.466c-2.775.234-5.554.264-7.665.264l-3.109-.016c-1.077-.013-2.15-.023-3.224-.023-1.243,0-2.486.013-3.729.05l-1.256.041c-2.48.079-4.968.159-7.445.359a20.334,20.334,0,0,0-6.987,1.671,8.061,8.061,0,0,0-2,1.377l-.336.283a8.224,8.224,0,0,0-2.267,3.581l-.252.61a8.3,8.3,0,0,0-.237,4.21,12.782,12.782,0,0,0,.29,2.416l.16.751c.032.509.032.882.046,1.254a18.847,18.847,0,0,0,.207,2.168l.058.85c.1,1.414.192,2.822.329,4.238q.033,1.131.069,2.259c.032,1.014.063,2.027.151,3.033.179,2.138.455,4.234.772,6.344l-.271,1.163a47.724,47.724,0,0,0-1.481,8.922c-.026.691,0,1.378.027,2.067.029.768.059,1.539.015,2.317a16.871,16.871,0,0,0,.065,2.1,18.429,18.429,0,0,1,.073,1.913c-.166.866-.331,1.733-.469,2.615-2.568-.251-4.94-.32-7.326-.361l-.842-.007c-1.493,0-2.982.062-4.474.125l-1.91.075c-1.056.038-2.111.044-3.167.05-1.619.009-3.239.018-4.859.143s-3.239.168-4.861.168c-2.747,0-5.651-.137-9.416-.444-1.876-.152-3.75-.358-5.624-.565-3.332-.367-6.777-.746-10.178-.8-3.384-.039-6.906-.187-10.765-.454-.732-.042-1.457-.056-2.178-.056s-1.437.014-2.154.028a6.179,6.179,0,0,0,.022-1c-.01-.347-.021-.7-.014-1.048.012-.313.043-.622.073-.93.039-.4.079-.79.079-1.194a20.929,20.929,0,0,0-.359-3.327,51.091,51.091,0,0,1,.565-8.3c.221-1.6.414-3.186.565-4.8l.115-1.07a18.591,18.591,0,0,0,.175-3.306,29.536,29.536,0,0,0-1.035-5.8,14.813,14.813,0,0,1-.385-2.228c-.062-.747-.067-1.494-.072-2.244,0-.578-.008-1.157-.038-1.739a43.718,43.718,0,0,0-.745-5.988l-.145-.827-.145-.827a18.561,18.561,0,0,0-1.256-4.061c-1.38-3.336-5.375-5.081-8.608-5.081-.379,0-.757-.017-1.136-.034s-.759-.035-1.139-.035c-1.107.012-2.218.023-3.331.023-3.187,0-5.6-.1-7.833-.312l-2.722-.284c-1.348-.145-2.695-.29-4.047-.406l-.973-.078c-2.209-.177-4.407-.353-6.594-.666l.767.163a55.071,55.071,0,0,0-8.424-.7Z"/>
    </g>
  </g>
</svg>
