<svg xmlns="http://www.w3.org/2000/svg" viewBox="0 0 334.95 307.62"><defs><style>.cls-1{fill:#707da7;}.cls-2{fill:#c7ccdd;}.cls-3{fill:#48578e;opacity:0.63;}.cls-4{fill:#2f345b;}</style></defs><title>finder</title><g id="Layer_2" data-name="Layer 2"><g id="Draw_Layer" data-name="Draw Layer"><path class="cls-1" d="M146.83,2.19c-1.64,0-3.29,0-4.93,0h.64l-3.19,0h-3.58c-1.14,0-2.28,0-3.42,0h-3.11c-1.32,0-2.64,0-4,.06-1.46,0-2.93,0-4.39.06-2.28.09-4.56.15-6.84.15h0l-2.31,0c-.83,0-1.65.07-2.47.12-1.7.1-3.4.22-5.1.27s-3.36,0-5.05-.1c-1.47,0-2.95-.07-4.42-.11l-.67,0c-.25,0-.48,0-.71,0-.52,0-1,0-1.56-.07l-1.34,0c-.8,0-1.59,0-2.38.06s-1.79.2-2.69.23c-1.66.07-3.34.08-5,0s-3.12-.06-4.67-.15l-2-.1h-.85c-2.39,0-4.77.29-7.16.35s-4.52-.07-6.78-.11c-2.68,0-5.37.09-8.05.08H49.08L47,2.9c-1.51.09-3,.26-4.52.36-3,.19-6.1.13-9.14.26-1.44.06-2.88.12-4.31.13s-2.85,0-4.28,0H20.93l-3.25,0H16.61c-1.14,0-2.29.06-3.43.11A20.37,20.37,0,0,0,8.31,6.19a9.18,9.18,0,0,0-2.2,2.68l-.49.77c-.37.59-.76,1.19-1.08,1.81L4.3,12a1.84,1.84,0,0,0-.23.25,5.18,5.18,0,0,0-1,2.08A6.16,6.16,0,0,0,3,15c0,.42-.07.84-.08,1.25l-.06.3c-.05.19-.09.39-.14.59a11.68,11.68,0,0,0-.34,3.47,10.91,10.91,0,0,0,.24,1.85l.05.22c0,.49,0,1,0,1.5,0,.94-.05,2-.12,3.1,0,.39,0,.7-.08,1-.06.81-.13,1.62-.19,2.43S2.09,32.11,2,32.8c-.1,1-.19,2.07-.27,3.11s-.2,2-.32,3c-.07.57-.13,1.15-.2,1.72C1.07,42.3,1,44.09,1,46.41c0,1.08.06,2.17.11,3.23,0,.55,0,1.1.07,1.66A39.12,39.12,0,0,1,1,55.66C1,56.57.85,57.49.74,58.4.61,59.57.47,60.79.38,62,.32,63,.31,63.91.3,64.86s0,1.62-.06,2.43c-.09,1.82,0,3.67.07,5.46a57,57,0,0,1,0,5.7c-.27,3.37-.38,6-.34,8.46,0,1.2.07,2.43.16,3.66,0,.59.1,1.18.17,1.78.09.79.18,1.6.21,2.41.13,2.74.19,5,.2,7.1,0,1.18.05,2.35.09,3.52s.08,2.33.09,3.51v.4c0,1.3,0,2.65.08,4s.09,2.47.12,3.71v.39c0,1.35,0,2.73,0,4.06s-.06,2.94,0,4.4c.06,2.3.2,4.74.42,7.9.21,2.93.35,5.62.43,8.22,0,1.43.07,2.85.08,4.28,0,1,.07,2,.12,2.89,0,.43.06.86.08,1.29.08,1.77.13,3.53.18,5.3q0,1.2.06,2.4c0,1.71,0,3.44,0,5.11,0,.9,0,1.8,0,2.7,0,2.52.17,5.15.49,8.29a55.23,55.23,0,0,1,.17,6v2.23c0,2.47.13,5.11.35,8.54.21,3,.19,6.11.16,9.09,0,2.47,0,5,.07,7.53l.12,2.25A54.84,54.84,0,0,1,4,215.76c-.08,1.62-.12,3.25-.16,4.87,0,1.18-.06,2.35-.11,3.53-.07,2,0,4.11,0,6.11,0,.93,0,1.84,0,2.76,0,3,0,5.55-.11,8.11l-.05,1.33c-.08,2.17-.17,4.41-.17,6.61,0,1.13,0,2.26,0,3.39,0,1.61,0,3.21,0,4.82,0,1.09,0,2.18-.07,3.27,0,1.5-.08,3-.07,4.5s0,3,0,4.43c0,1.06,0,2.11,0,3.17s0,2.41-.1,3.59-.1,2.35-.11,3.52c0,.84.07,1.68.14,2.49l.09,1.25c0,.41,0,.83,0,1.24a16.13,16.13,0,0,0,.16,2.4,17,17,0,0,0,1,3.35,23,23,0,0,0,1.22,2.73,10.09,10.09,0,0,0,.61.94c.18.26.37.52.53.79a6.35,6.35,0,0,0,.68,1,6,6,0,0,0,1.26,1.2l0,0c.27.19.53.37.81.55a2.14,2.14,0,0,0,.3.17,3.37,3.37,0,0,0,1.18,1.1,11.77,11.77,0,0,0,2.78,1.11c.32.08.65.13,1,.19l.24,0,.85.18.81.18c.3.05.61.1.92.13l.86.13.27.05.82,0c1.24,0,2.47,0,3.7,0s2.23.12,3.36.09L28,301c.78-.06,1.56-.14,2.34-.15h1.49a29.52,29.52,0,0,1,3.12,0c1.24.07,2.48.05,3.72,0s2.2,0,3.31,0c.31,0,.62,0,.93,0h.9c.46,0,.91.1,1.37.15,1.11.14,2.23.21,3.34.34a14.39,14.39,0,0,0,1.86.06h2.16c.81,0,1.62.05,2.42.12s1.62.09,2.43.12c1.73.05,3.47,0,5.2.11a43.26,43.26,0,0,0,4.41.06l.45,0c1.71-.15,3.41-.4,5.12-.46s3.41-.11,5.12-.13c.88,0,1.75,0,2.63.05s1.68.15,2.53.21a42.07,42.07,0,0,0,4.63,0l1.52-.09c3.61-.24,7.21-.14,10.82-.13,1,0,2-.05,3-.05s1.75.06,2.62.1c1.71.09,3.41.23,5.12.24h1.63c1.22,0,2.44,0,3.66,0,1.86.08,3.72.13,5.58.24,3.33.2,6.66.3,10,.4,1.47.05,2.94.05,4.4.08s2.86.05,4.29,0l1.76-.11-.2,0c1.86-.11,3.71-.15,5.57-.15s3.45.08,5.17,0,3.55,0,5.31,0c1.06,0,2.13,0,3.2,0h2.6c3.33.07,6.66.22,10,.24,1.65,0,3.29,0,4.93-.08s3.12-.09,4.68-.05,3.38.16,5.07.19c1.14,0,2.29,0,3.43,0a27.5,27.5,0,0,1-1.1-3.69,25.88,25.88,0,0,1-.31-2.66l0-.31c0-.29,0-.59-.09-.88a14.85,14.85,0,0,0-.51-2.33,10.23,10.23,0,0,1-.52-2.5c0-.41,0-.82-.07-1.25s0-.84-.07-1.25c0-.69-.11-1.37-.19-2.05l0-.24-.06-.51c-.14-1.05-.23-2.11-.33-3.17-.07-.7-.13-1.41-.21-2.12s-.13-1.39-.19-2.08l0-.3c-.06-.74-.13-1.48-.22-2.22l-.09-.65,0-.22c-.16-1-.32-2.07-.41-3.11-.05-.54-.08-1.08-.11-1.62v-.19c0-.52-.06-1.05-.12-1.57-.21-1.71-.4-3.55-.59-5.64l-.14-1.45v-.14c-.13-1.34-.27-2.73-.32-4.11,0-.48,0-1-.08-1.46s0-.86-.07-1.29c0-1.14-.1-2-.18-2.87l-.18-2-.05-.49c-.11-1.22-.23-2.44-.32-3.66-.07-1.06-.17-2.13-.27-3.19-.07-.83-.11-1.66-.16-2.49l-.06-1.18q-.06-.91-.15-1.86c0-.43-.07-.86-.11-1.29l-.08-1.19c0-.66-.09-1.32-.15-2-.07-.89-.16-1.78-.26-2.67l-.07-.59c-.09-.86-.16-1.73-.23-2.59l-.08-.86c0-.5-.07-1-.11-1.49l0-.74-.08-1.13c0-.69-.08-1.38-.11-2.09v-.42c0-.27,0-.55,0-.83-.13-2.54-.25-4.66-.44-6.81-.1-1.24-.23-2.48-.35-3.73l-.06-.51c-.09-.83-.17-1.66-.26-2.5-.22-2.29-.38-4.6-.52-6.77-.11-1.69-.29-3.43-.44-5l-.14-1.43c-.3-3.13-.48-6.32-.66-9.41v-.2c-.08-1.37-.16-2.75-.25-4.12l-.1-1.5-.06-1.1A19.39,19.39,0,0,1,177,175c-1,0-2,0-3,.09-.22,0-.45,0-.65,0h.05a20.54,20.54,0,0,1-2.29.16c-.29,0-.57,0-.85,0H170c-.31,0-.62-.05-.93-.05-1.24,0-2.62-.15-4.21-.33-.69-.08-1.4-.1-2.09-.12s-1.19,0-1.79-.09c-.86-.08-1.75-.22-2.53-.34l-.2,0-.75-.12c-1-.11-2.08-.17-3-.21l-1,0c-.55,0-1.09-.05-1.63-.05h-.4c-.27,0-.54,0-.81,0h-.46l-.67,0h-.37c-.42,0-.84,0-1.36-.06l-.46,0c-.27,0-.53,0-.8,0a11.39,11.39,0,0,0-1.34.06c-1.27.12-2.75.26-4.35.27a2.46,2.46,0,0,1-2.4-2.44,2.53,2.53,0,0,1,.86-1.87c-.09-3.17-.25-5.71-.49-8l-.24-1.65,0-.24,0-.13c-.22-1.54-.45-3.12-.58-4.69-.06-.77-.09-1.54-.11-2.32v-.19c0-.44,0-.89,0-1.34,0-1.21-.1-2.43-.14-3.66q0-1.35-.06-2.7l0-1c0-.55,0-1.09,0-1.7,0-.78-.05-1.57-.05-2.36v-2.42c0-1.81-.05-3.68,0-5.56.1-2.65.2-5.3.33-7.95.12-2.42.32-5,.47-7l0-.41.11-1.58.12-1.6v-.13c.3-4,.61-8.23,1.15-12.36l0-.21,0-.25c.19-1.42.42-2.83.64-4.24l.06-.38.22-1.37q.48-3.12,1-6.24l.36-2.07,0-.23c.58-3.28,1.23-7,2.1-10.49l.31-1.23c.23-.91.46-1.82.65-2.74.29-1.34.56-2.69.82-4,.37-1.84.77-3.66,1.23-5.67l.48-2.16c.56-2.55,1.12-5.09,1.72-7.64l.41-1.72.06-.29c.43-1.8.87-3.67,1.25-5.54A68.93,68.93,0,0,1,153,37.19c.53-1.72,1-3.46,1.51-5.4l.42-1.57a53.46,53.46,0,0,1,2-5.61l.49-1.25c.94-2.41,2.08-4.84,3.1-7l.27-.58.15-.4q.25-.69.54-1.38a17.14,17.14,0,0,0,.74-2.23c.23-.89.52-1.79.78-2.58.07-.21.13-.42.2-.64l.07-.24,0-.1,0-.14q.15-.51.33-1c.12-.36.25-.72.4-1.07l.16-.42a4.33,4.33,0,0,1,.36-.82,8,8,0,0,1,.74-1l.12-.15c.07-.09.14-.19.22-.28a4.54,4.54,0,0,1,.53-.63c.22-.2.47-.41.72-.6-.38,0-.77,0-1.15,0-1.35,0-2.69,0-4,.06a1.55,1.55,0,0,1-.31,0,3.38,3.38,0,0,1-.45,0c-.4,0-.8.08-1.21.07a5.38,5.38,0,0,1-.69-.07l-2.15,0a6.53,6.53,0,0,1-2.38-.07c-.83,0-1.67,0-2.5-.06-1.72,0-3.43.16-5.15.2Z"/><path class="cls-1" d="M87,301.51h0Z"/><path class="cls-1" d="M322,299.39l-.11.09-.31.25-.56.46-.49.4a13.41,13.41,0,0,1-2.2,1.68c-.25.15-.51.29-.8.44l.3-.1a8.36,8.36,0,0,0,3-1.63,8.48,8.48,0,0,0,1-1.32l.19-.29,0,0Z"/><path class="cls-2" d="M264,.23c-1.21.09-2.41.08-3.61.05-1,0-2,.16-3,.28-1.19.15-2.37.21-3.56.31s-2.55.21-3.83.24-2.6,0-3.9,0c-1.75,0-3.5.09-5.24.06h.28c-2.17,0-4.34-.1-6.51-.15h-.7c-1,0-2.07.05-3.09,0L228.5.82c-1.38-.09-2.74-.15-4.11-.18-1.54,0-3.06.21-4.6.3-.82.05-1.65.11-2.48.12s-1.58,0-2.37,0c-1.79,0-3.58.12-5.36.26s-3.7.16-5.54.15c-1.52,0-3,.07-4.54.23-1.67.18-3.34.29-5,.32-1.05,0-2.1.06-3.15,0-.76,0-1.52-.07-2.28-.08-1.47,0-2.95-.11-4.42-.14-1.05,0-2.1.09-3.13.18-1.18.1-2.35.12-3.53.11h.65c-1.2,0-2.4,0-3.6,0-1.7,0-3.39.25-5.09.18l-3.07-.11a7.23,7.23,0,0,0-.72.61,5.39,5.39,0,0,0-.53.62,3.42,3.42,0,0,1-.22.28l-.12.15a8.77,8.77,0,0,0-.74,1,4.43,4.43,0,0,0-.36.83L164,6c-.15.36-.28.71-.41,1.07s-.22.68-.32,1l0,.13,0,.1-.07.25c-.07.21-.13.43-.2.63-.26.79-.55,1.69-.78,2.58a16.33,16.33,0,0,1-.74,2.24c-.19.45-.37.91-.54,1.37l-.15.4-.27.58c-1,2.14-2.16,4.57-3.1,7l-.49,1.26a52.66,52.66,0,0,0-2,5.61l-.42,1.57c-.51,1.93-1,3.68-1.51,5.39a71,71,0,0,0-1.78,7.24c-.37,1.86-.82,3.73-1.25,5.54l-.06.28L149.46,52c-.6,2.54-1.16,5.09-1.72,7.64l-.48,2.15c-.46,2-.86,3.83-1.22,5.67-.27,1.34-.54,2.68-.83,4-.19.92-.42,1.83-.65,2.74l-.31,1.24c-.87,3.5-1.52,7.21-2.09,10.48l0,.23-.36,2.07c-.37,2.08-.7,4.16-1,6.24l-.22,1.37-.06.38c-.22,1.41-.44,2.82-.64,4.24l0,.25,0,.21c-.54,4.13-.85,8.32-1.15,12.37v.13l-.11,1.59-.12,1.59,0,.41c-.16,2.07-.35,4.62-.48,7-.13,2.65-.23,5.3-.33,7.95-.07,1.88,0,3.75,0,5.56V140c0,.78,0,1.57.05,2.35,0,.61,0,1.16.05,1.7v1c0,.9,0,1.8.06,2.7q.06,1.83.15,3.66l0,1.33v.19c0,.79,0,1.56.11,2.32.13,1.57.36,3.16.59,4.69l0,.14,0,.24.23,1.65c.24,2.3.4,4.85.49,8a2.5,2.5,0,0,0-.86,1.87,2.45,2.45,0,0,0,2.41,2.43c1.59,0,3.08-.14,4.35-.27.41,0,.84-.06,1.33-.06.26,0,.53,0,.8,0l.46,0c.52,0,.94.06,1.36.06h.38c.22,0,.44,0,.66,0l.19,0h.27c.27,0,.54,0,.81,0h.4c.54,0,1.08,0,1.63.05l1,0c.94,0,2,.1,3,.21l.75.12.21,0c.78.12,1.66.26,2.52.34.6.06,1.19.08,1.79.09s1.4,0,2.09.12c1.6.19,3,.29,4.21.33.31,0,.62,0,.93.05h.16l.16,0,.85,0a18.39,18.39,0,0,0,2.29-.16l-.1,0h0l.65,0c1-.06,1.92-.07,3-.09a18.08,18.08,0,0,0,2.55-.25l0,1.11.1,1.49c.09,1.38.17,2.75.25,4.13v.19c.18,3.09.37,6.29.67,9.42l.14,1.43c.15,1.53.32,3.27.43,5,.14,2.16.3,4.47.53,6.77.08.83.16,1.66.25,2.5l.06.51c.12,1.24.25,2.48.35,3.72.19,2.15.31,4.27.45,6.81,0,.28,0,.56,0,.84v.42c0,.7.06,1.39.11,2.09l.08,1.12.06.74c0,.5.07,1,.11,1.49l.07.86c.07.87.14,1.73.23,2.59l.07.6c.1.88.2,1.78.27,2.66l.15,2,.08,1.19c0,.43.07.86.11,1.28,0,.63.11,1.25.14,1.87l.07,1.17c0,.84.08,1.67.16,2.5q.15,1.59.27,3.18c.09,1.23.2,2.44.31,3.66l.05.49.18,2c.08.84.14,1.73.18,2.87,0,.43.05.85.07,1.28s.07,1,.08,1.46c.05,1.38.19,2.77.32,4.11v.14l.14,1.45c.19,2.09.38,3.93.59,5.64.06.53.09,1.05.12,1.58v.19c0,.53.06,1.07.11,1.61.09,1,.25,2.09.41,3.11l0,.23.1.64c.08.75.15,1.48.21,2.22l0,.3c.06.69.12,1.39.19,2.08s.15,1.42.21,2.13c.1,1.06.2,2.11.33,3.17,0,.17,0,.34.07.51l0,.23c.08.68.15,1.37.2,2.05l.06,1.25c0,.44,0,.85.07,1.25a10.32,10.32,0,0,0,.52,2.51,13.67,13.67,0,0,1,.51,2.32c0,.29.06.59.09.89l0,.31a18.84,18.84,0,0,0,1.41,6.34l1.59,0c1.51,0,3,0,4.53-.06s3-.14,4.43-.15,3.17-.06,4.75,0,3.12,0,4.68,0c3.25,0,6.5.06,9.74,0,1.55,0,3.1-.07,4.65-.08,1.75,0,3.49.07,5.24.1,3.14.06,6.27,0,9.41,0l4.66,0c1.39,0,2.77.08,4.16.09,3.45,0,6.92.19,10.37.06,1.54-.06,3.08-.11,4.63,0s3.25.2,4.87.25,3.41.08,5.11.1,3.36.1,5,.15,3.3,0,5,0c1.4,0,2.8-.08,4.2-.06,1.55,0,3.1.11,4.65.19l4.83.21c1.76.08,3.51.24,5.26.35,1.58.09,3.16.25,4.74.34s3.12.27,4.69.25l1.35,0,.28-.09a19.51,19.51,0,0,0,3.93-1.7,14.87,14.87,0,0,0,2.2-1.67,6.12,6.12,0,0,1,.48-.41c.24-.18.41-.31.57-.45a3.73,3.73,0,0,1,.3-.26l.11-.09a6.22,6.22,0,0,0,.56-.46,6.91,6.91,0,0,0,.51-.57c.23-.25.36-.4.5-.54a9.78,9.78,0,0,0,1.92-2.53l.21-.41.05-.11c.19-.38.37-.76.58-1.13a22.37,22.37,0,0,0,1.34-2.93,8.29,8.29,0,0,0,.31-1c.12-.43.19-.71.28-1s.18-.54.28-.8c.18-.53.37-1.06.52-1.6s.33-1.34.49-2l.1-.41c0-.91,0-1.81.07-2.72,0-1.13.29-2.25.36-3.38,0-.23,0-.46,0-.7s-.08-.61-.12-.9-.05-.76-.07-1.14l0-.71c0-.32-.05-.64-.09-.95s-.08-.9-.09-1.35a11.62,11.62,0,0,1,.07-1.5l0-.26,0-.24,0-.25c0-.62,0-1.24,0-1.86v-.34c0-1.32-.09-2.65-.18-3.83v-.11a36.72,36.72,0,0,1-.13-5.46v0c0-.73-.1-1.46-.1-2.2,0,.21,0,.42,0,.64,0-.84,0-1.66.05-2.49s.1-1.38.11-2.07,0-1.45,0-2.17.08-1.47.1-2.2v.64c0-1.13,0-2.23.11-3.35.07-.87.2-1.73.3-2.59a48.6,48.6,0,0,0,.21-5.53c0-.88,0-1.76,0-2.63v.24c0-1.19-.06-2.38-.05-3.56,0-.88.07-1.75.07-2.61,0-1.48,0-3,.07-4.43,0,.12,0,.25,0,.37,0-1,0-2.07,0-3.1,0,.21,0,.42,0,.63,0-.64,0-1.29,0-1.94V220c0-.3,0-.59,0-.89s0-.71,0-1.07h0v-.11c0-1.39-.1-2.77-.09-4.16s.05-2.82.07-4.23a32.34,32.34,0,0,1,.32-4.29c.18-1.26.38-2.53.5-3.8s.25-2.49.32-3.74.11-2.81.14-4.21c.06-2.91.18-5.81.2-8.72,0-1.54-.11-3.1,0-4.64.08-1.24.16-2.47.27-3.71.26-3.08.32-6.18.58-9.27.13-1.53.31-3.05.43-4.58.13-1.7.12-3.4.19-5.1s.21-3.25.32-4.88.3-3.13.4-4.7c.21-3.19.28-6.38.41-9.57.07-1.58.22-3.15.3-4.72s.15-3.15.18-4.72c0-1.34-.14-2.67-.23-4-.11-1.57-.19-3.13-.21-4.71v-.33c0-1.11,0-2.23,0-3.35s0-2.25,0-3.37c.08-2,.35-3.92.4-5.89,0-1.29-.17-2.57-.27-3.84-.13-1.47-.13-3-.13-4.41,0-.12,0-.23,0-.34a12.92,12.92,0,0,1,0-1.76c0-1.87,0-3.73.05-5.6V90.08c0-1.32-.06-2.64-.12-4s-.24-2.53-.39-3.81-.34-2.43-.42-3.66-.12-2.56-.1-3.84.07-2.43.12-3.65.08-2.54.18-3.8c.19-2.45.37-4.89.38-7.34,0-1.69-.05-3.37,0-5.06,0-1.39.08-2.77.08-4.16,0-.87-.08-1.73-.17-2.59h0l-.06-.19c-.08-.32-.16-.64-.22-1a7.25,7.25,0,0,1,0-.93c0-.15,0-.29.08-.44q-.09-1.06-.12-2.13c-.05-1.51-.05-3-.14-4.52-.07-1.17-.23-2.34-.29-3.51-.07-1.37-.11-2.74-.15-4.12,0-.65-.06-1.3-.11-1.94a8.63,8.63,0,0,0-.33-1.26c-.1-.27-.2-.54-.28-.82s0-.52,0-.78,0-.79,0-1.19c0-.2,0-.41,0-.61s0-.39,0-.58a16.92,16.92,0,0,0-.32-2.55c-.16-.82-.35-1.62-.58-2.58a19.66,19.66,0,0,0-.9-2.6c-.15-.39-.31-.78-.47-1.16v.08l-.07-.16c-.11-.3-.24-.59-.37-.87s-.25-.46-.39-.69l-.2-.33-.17-.34a3.46,3.46,0,0,0-.27-.5c-.21-.33-.43-.65-.66-1l-.38-.6-.14-.23c-.23-.36-.46-.71-.7-1.06l-.08-.09-.06-.09c-.18-.3-.38-.62-.55-.95a10.36,10.36,0,0,0-1.4-1.94l-.33-.41a15.44,15.44,0,0,0-1.95-1.92c-.31-.27-.64-.52-1-.78-.45-.08-.89-.14-1.33-.25s-1-.32-1.55-.48c-.83-.18-1.65-.38-2.46-.62a10,10,0,0,0-1.79-.23,11.5,11.5,0,0,1-1.16-.08l-1-.15c-.79-.09-1.58-.22-2.37-.31a16.19,16.19,0,0,1-2.69-.52l.18.05a18.64,18.64,0,0,0-2.34-.36C304.54.48,304,.38,303.4.34l-.68,0-1.41.18a25.06,25.06,0,0,1-3.24.11h-.57c-.84,0-1.68,0-2.52.14S293.3,1,292.47,1s-1.91,0-2.86,0S287.86,1,287,.94,285.2.83,284.3.74s-1.77-.09-2.65-.12a29.74,29.74,0,0,1-3.27-.2l-1.3-.16c-.29,0-.58,0-.86,0l-.71,0c-1.49.08-3,.27-4.45.21-1.21,0-2.37-.34-3.57-.4s-2.33.14-3.49.23Z"/><path class="cls-2" d="M334.51,119.81v0Z"/><path class="cls-2" d="M334.51,119.88h0v0Z"/><path class="cls-2" d="M329.61,252.7c0-.16,0-.33,0-.5,0,.17,0,.33,0,.5Z"/><path class="cls-2" d="M233.47,1h0Z"/><path class="cls-2" d="M223.89,307.13l-2.17.05h.06c.69.1,1.38.2,2.08.28a18.75,18.75,0,0,0,2,.15h.38a14.81,14.81,0,0,0,2.3-.2,3.39,3.39,0,0,0,.66-.21l.09,0h-.49c-1.27,0-2.54,0-3.81,0Z"/><path class="cls-2" d="M169.92,2.22c-1.41-.05-2.82-.12-4.22-.14s-2.66,0-4,.06A5.75,5.75,0,0,0,161,4.2c-.06.37-.16.73-.24,1.09a7.35,7.35,0,0,0-.13,1.24c-.17,1-.48,1.89-.72,2.83-.3,1.17-.75,2.33-1.16,3.46l.21-.59c-.36.95-.74,1.9-1.1,2.85a34,34,0,0,0-1.1,3.42c-.58,2.09-1.32,4.13-1.86,6.23s-1.18,4-1.84,5.9c-.3.89-.58,1.79-.83,2.7s-.5,2.11-.82,3.16c-.79,2.54-1.23,5.19-2.13,7.7l.2-.54c-.39,1.05-.76,2.12-1.11,3.2s-.54,2.1-.79,3.16-.47,1.92-.7,2.88-.4,2-.6,3c-.42,2-1,3.9-1.51,5.85-.24,1-.55,1.94-.78,2.92s-.49,2.25-.77,3.37c-1.05,4.14-1.84,8.33-2.78,12.49-.24,1-.43,2-.63,3.07s-.3,2.08-.49,3.11c-.38,2-.7,4-1.16,6-.38,1.64-.69,3.28-.93,4.94-.26,1.87-.62,3.73-.79,5.62,0-.21,0-.42.05-.63,0,.46-.09.92-.13,1.37,0,0,0-.1,0-.15s0,.11,0,.16c-.11,1.11-.21,2.24-.3,3.37-.07.92-.11,1.85-.18,2.78s-.25,1.91-.38,2.87c-.16,1.21-.23,2.43-.32,3.65-.15,2-.31,4-.29,6s.06,4.17,0,6.25-.37,4.32-.36,6.49c0,1,0,2,0,3.08a28,28,0,0,0,.13,3.3c.18,2,.37,4.08.52,6.12s.16,3.81.19,5.71c0,1,.07,2.06.08,3.08s0,2.09.08,3.14,0,1.82.08,2.74c0,.73.1,1.45.16,2.18s.14,1.33.2,2c0,.38,0,.76.06,1.15s.15,1,.23,1.49c0,.21.07.41.11.62a4.81,4.81,0,0,0,.45,1.16,8.87,8.87,0,0,0,.55.81c.15.24.25.5.41.73a3.13,3.13,0,0,0,1.13,1.07,2.72,2.72,0,0,0,1.16.29,3.79,3.79,0,0,0,.6.07,5.66,5.66,0,0,0,.81-.12,2.27,2.27,0,0,0,1-.57l.08,0,.28-.08a3.57,3.57,0,0,0,1.11-.54,19.38,19.38,0,0,1,2.09-1.18,1.53,1.53,0,0,0,.47-2.1,1.55,1.55,0,0,0-2.1-.47c-.62.33-1.24.67-1.88,1h-.17a5.87,5.87,0,0,0-.59,0h-.25l-.11-.07a1.37,1.37,0,0,0-.16-.18,6.31,6.31,0,0,1-.4-.65s0,0,0-.06c0-.25-.06-.49-.1-.74h0v0c0-.08,0-.16,0-.24-.08-.56-.15-1.14-.19-1.71s-.14-1.23-.14-1.85c0-1.53,0-3,0-4.57,0-.47,0-.94,0-1.41s0-1.13,0-1.69c0-1-.07-2.06-.1-3.09-.05-1.91-.17-3.81-.31-5.72-.08-1.21-.24-2.42-.37-3.63s-.23-2.52-.3-3.78,0-2.72,0-4.08c0-1.13,0-2.26.08-3.38,0-.15,0-.3,0-.45.18-1.7.33-3.4.44-5.11.09-1.52.2-3,.2-4.57s0-2.83,0-4.23.18-2.86.3-4.29c.19-1.62.42-3.25.52-4.88s.17-3,.3-4.52c0,.21,0,.42-.07.63.13-1.2.18-2.4.27-3.59,0-.13,0-.26,0-.38.21-2.15.55-4.3.94-6.42s.7-4.09,1-6.14.59-4,1-6c.2-1,.46-2,.65-3.07s.42-2.19.65-3.28.41-2.08.65-3.11.47-2,.71-3,.52-2.15.76-3.24.45-2.09.72-3.13c.53-2,1.12-4,1.62-6,.23-1,.39-1.93.61-2.89s.5-2,.77-2.93c.47-1.79.91-3.58,1.5-5.33s1.19-3.47,1.69-5.24,1.11-3.65,1.66-5.47c.27-.87.5-1.75.77-2.62s.57-1.73.88-2.59c-.08.19-.15.39-.22.58.45-1.23.85-2.49,1.25-3.74.36-1.1.64-2.23,1-3.33.73-2.33,1.33-4.7,2.13-7,0,0,0,.09,0,.13.45-1.22.88-2.44,1.3-3.66-.07.19-.14.39-.22.59.55-1.46,1.05-2.94,1.57-4.4.2-.56.39-1.11.56-1.67s.25-1,.39-1.44l.33-.87c.06-.18.11-.36.16-.53a4.78,4.78,0,0,1,.23-.45c.2-.15.4-.29.61-.42l.43,0h0l.48-.07c.32,0,.64-.08,1-.15a4.18,4.18,0,0,0,1-.43l.56-.14a7.73,7.73,0,0,0,1.59-.32,10.1,10.1,0,0,1,1.36-.38,4.87,4.87,0,0,1,.54,0,5.22,5.22,0,0,0,1.19-.07h0l.24,0,1-.17.93-.15a2.15,2.15,0,0,0,1-.61,2.43,2.43,0,0,0,.24-.32h0c-1.21,0-2.41,0-3.61-.05-1.69,0-3.38.26-5.08.19Z"/><path class="cls-3" d="M162.31,1.45h0Z"/><path class="cls-3" d="M162.37,1.46h0Z"/><path class="cls-3" d="M163.43,2C163,2,162.61,2,162.2,2a4.92,4.92,0,0,1-.83.13,3.49,3.49,0,0,1-.46,0c-.4,0-.8.08-1.2.07a6.4,6.4,0,0,1-1.07-.14l-.09.34a18.85,18.85,0,0,0-.81,2.44c-.19.76-.28,1.55-.51,2.3a25.38,25.38,0,0,0-1.42,4.69,29.58,29.58,0,0,1-.95,3.34c-.17.51-.27,1-.43,1.55s-.35,1.23-.51,1.85c-.25,1-.43,2-.68,3-.29,1.16-.54,2.34-.78,3.51s-.6,2.4-.93,3.6c-.28,1-.59,2.08-.94,3.1-.47,1.22-1,2.42-1.46,3.64-.57,1.47-1.07,3-1.55,4.48-.85,2.64-1.63,5.3-2.56,7.92-.49,1.41-1,2.82-1.48,4.24s-.88,2.6-1.21,3.92-.67,2.64-.9,4c-.11.58-.19,1.16-.28,1.74a12.09,12.09,0,0,1-.58,2.2,36.89,36.89,0,0,0-1.13,3.71c-.16.65-.21,1.33-.31,2s-.23,1.36-.36,2c-.52,2.8-.93,5.62-1.39,8.42-.43,2.62-1.2,5.17-1.63,7.79-.2,1.2-.34,2.41-.51,3.62-.19,1.39-.39,2.78-.58,4.17s-.38,2.51-.54,3.78-.31,2.68-.43,4l.06-.64c-.26,2.59-.63,5.18-.87,7.77s-.88,5.23-1.33,7.84c-.21,1.21-.33,2.45-.46,3.67-.16,1.62-.17,3.25-.23,4.87,0,1.39,0,2.78-.11,4.18,0,.7-.05,1.4,0,2.11s.15,1.52.23,2.27a29.29,29.29,0,0,1,.05,4.19c0,.76-.06,1.51,0,2.28s.09,1.53.13,2.3a32,32,0,0,1,0,3.25c0,.66,0,1.34,0,2s0,1,0,1.56c-.11,1.13-.21,2.26-.22,3.41s.11,2.6.24,3.89a31.47,31.47,0,0,0,.61,4c.24,1,.54,2,.73,3.06v0c.22,1.29.51,2.57.81,3.84.25,1.05.59,2.08.81,3.14.07.47.15.92.24,1.38a6.49,6.49,0,0,0,.65,1.7c.18.37.37.74.57,1.1a8.18,8.18,0,0,0,.84,1.12l.55.72a2,2,0,0,0,.77.52,2.37,2.37,0,0,0,.72.25l.36,0h0a3.58,3.58,0,0,0,1.17.22,2.34,2.34,0,0,0,.7-.12c.33.09.65.19,1,.25s.77.09,1.15.16a5.46,5.46,0,0,0,1.71.11l1.22-.17-.19,0,.26,0,.21,0c.31,0,.61.06.92.08a4.52,4.52,0,0,0,1-.12l.56-.12.45-.16H149a5.42,5.42,0,0,0,1.27,0l.87-.15h.28l.55.09c.42.07.8.24,1.22.31s.69.15,1,.23a5.21,5.21,0,0,0,2.19-.1,10.69,10.69,0,0,1,1.49-.07,4.33,4.33,0,0,0,.72,0c.2,0,.39,0,.59-.05a3,3,0,0,1,.43.1,7,7,0,0,0,1.44.18,8.08,8.08,0,0,0,1.1,0l.81,0c.67,0,1.33.05,2,0a16.13,16.13,0,0,0,2.39-.51c.49,0,1,0,1.47-.08a7.47,7.47,0,0,0,1.41-.27l.54-.19.67,0,.91-.05.87.18a7.83,7.83,0,0,0,1.37.11,4.41,4.41,0,0,0,.79-.11c.34,0,.67,0,1,0l.44,0q.07.72.21,1.44l-.1-.54c.13.87.17,1.74.24,2.61a24.84,24.84,0,0,1,0,3.76c-.08,1.29,0,2.59,0,3.89,0,1.49-.09,3-.12,4.49a35.89,35.89,0,0,0,.07,4.15c.13,1.38.22,2.77.32,4.15s.14,2.63.22,4,.16,2.78.15,4.18c0,1.23,0,2.45.08,3.68,0,.67.1,1.34.15,2s0,1.4.11,2.09c.1,1.57.31,3.14.43,4.7s.3,3,.42,4.55c.12,1.37.2,2.73.34,4.1s.4,2.72.51,4.09.23,2.6.41,3.9a33.17,33.17,0,0,1,.27,3.45c0,.51,0,1,0,1.53a15,15,0,0,0,.28,2c.19,1,.41,2,.6,3a32.49,32.49,0,0,1,.27,3.95,25.17,25.17,0,0,0,.29,3.58,17.7,17.7,0,0,1,.24,1.78,18,18,0,0,1,0,2.54,19,19,0,0,0,.16,4.13,17,17,0,0,1,.21,2.24c0,.78,0,1.56,0,2.34.1,1.52.21,3,.41,4.55.36,2.8.76,5.6,1.23,8.38.27,1.62.44,3.25.7,4.86a.64.64,0,0,1,0-.07c0,.14.05.27.07.4v0h0v0c.12.7.25,1.41.38,2.12a39.55,39.55,0,0,0,1,5.41c.23.73.51,1.45.78,2.16s.77,1.6,1.14,2.41c.25.57.49,1.14.72,1.72a1.2,1.2,0,1,0,2.29-.7l-.81-2a8.93,8.93,0,0,1-.51-1.48c-.17-1.59-.31-3.19-.42-4.78-.06-.91-.11-1.81-.2-2.71s-.29-2-.43-3-.25-1.93-.34-2.9-.26-2-.41-2.94c-.33-2.19-.66-4.39-1-6.57l.09.51c-.28-1.78-.41-3.58-.61-5.37-.1-.9-.07-1.8-.11-2.71a24.85,24.85,0,0,0-.42-3,21.3,21.3,0,0,1-.17-4,18.73,18.73,0,0,0-.07-2.25c-.07-.6-.16-1.21-.23-1.81-.31-2.56,0-5.17-.39-7.72-.18-1.35-.44-2.7-.51-4.05-.06-1.2,0-2.4-.07-3.59s-.26-2.31-.31-3.47c-.08-1.5-.08-3-.19-4.51-.08-1.16-.15-2.32-.25-3.48-.13-1.56-.17-3.12-.31-4.67s-.24-3-.38-4.56c-.06-.77-.16-1.54-.23-2.31s-.08-1.39-.11-2.09c-.07-1.32-.18-2.63-.23-4s0-2.61-.08-3.91-.16-2.75-.22-4.13c0-.61-.06-1.22-.1-1.83s-.15-1.48-.18-2.22c0-1.39-.15-2.77-.19-4.16s0-2.89-.07-4.33,0-2.81-.1-4.21-.08-2.53-.19-3.78c0-.57-.13-1.14-.18-1.71s-.05-.92-.07-1.37c0-.8,0-1.62-.11-2.41a6.67,6.67,0,0,0-.87-2.85,4.33,4.33,0,0,0-1.62-1.53,4.67,4.67,0,0,0-2.12-.37c-.36,0-.72,0-1.07,0s-.84.09-1.27.1l-.84-.15a7.35,7.35,0,0,0-1.75-.06,8.51,8.51,0,0,1-1,0,5.8,5.8,0,0,0-1.1.06c-.8.14-1.6.11-2.4.19a20.52,20.52,0,0,0-2.45.52c-.69.07-1.4.06-2.1.12s-1.23.15-1.84.14a6.75,6.75,0,0,0-1.79-.16l-.54.08a6.09,6.09,0,0,1-.74,0,13,13,0,0,0-2.4.27h0l-.35-.09a4,4,0,0,0-.69-.12q-.32-.06-.63-.15a4.56,4.56,0,0,0-1.11-.14c-.36,0-.72-.08-1.09-.09a6.43,6.43,0,0,0-1.31.16l-.38,0a5.51,5.51,0,0,0-1.46-.08,10.26,10.26,0,0,0-1.25.26h-.21a5.7,5.7,0,0,0-1.54-.09,8.12,8.12,0,0,1-.86,0l-.21,0a3.38,3.38,0,0,0-.95-.16l-.27,0a9,9,0,0,1-1.15-.23,3.79,3.79,0,0,0-2.06,0l-.06-.07a8.32,8.32,0,0,1-.61-1,5.93,5.93,0,0,1-.24-.92c0-.31-.1-.62-.15-.93a2,2,0,0,1,0,.24c0-.11,0-.22-.05-.33s0,.06,0,.09,0-.06,0-.09v0h0v-.05c-.35-2-.9-3.9-1.27-5.87,0-.19-.07-.38-.1-.58v0c-.12-.72-.26-1.42-.44-2.13s-.39-1.63-.54-2.46c-.21-1.29-.39-2.57-.53-3.87a26,26,0,0,1-.11-3.85c0-.55,0-1.11,0-1.67s0-1.27-.07-1.9c0-1.1,0-2.18,0-3.27,0-1.4-.07-2.78-.06-4.18s.12-2.89.11-4.35-.07-2.82,0-4.24.13-2.91.15-4.38.13-2.65.21-4,.17-2.49.28-3.74c0-.4.07-.8.1-1.2.16-1.32.42-2.64.62-4,.09-.61.21-1.21.28-1.81s.14-1.3.2-1.94c.25-2.45.74-4.86,1.08-7.3.19-1.37.41-2.72.64-4.07s.57-2.87.81-4.31c.43-2.55.73-5.11,1.2-7.65s1.14-5.14,1.51-7.75c.21-1.4.45-2.79.67-4.18s.45-2.87.69-4.29c.11-.61.19-1.22.28-1.83.11-.79.27-1.55.45-2.32.3-1.2.66-2.38.93-3.57s.42-2.67.72-4,.63-2.71,1-4.05.64-2.52,1-3.77c.43-1.48.93-2.93,1.36-4.42.39-1.33.72-2.67,1-4s.8-2.63,1.21-4,.8-2.75,1.28-4.11,1-2.69,1.39-4,.85-2.91,1.21-4.37.75-2.93,1.09-4.4c.3-1.27.59-2.55.91-3.82.19-.72.39-1.45.55-2.17s.36-1.41.57-2.12c.3-1,.53-2.09.88-3.1.23-.69.43-1.38.66-2.07a9.9,9.9,0,0,1,.44-.93,12.16,12.16,0,0,0,.6-1.51c.19-.51.35-1,.53-1.56s.38-.84.6-1.25a12.13,12.13,0,0,0,.8-2c.13-.3.26-.6.4-.9l-.55.08ZM138.66,171.11h0Zm8.38,3.56h0Zm-.41.08-.2,0,.2,0Zm30.26,4.2h0s0,0,0,0a.06.06,0,0,1,0,0Zm-36,.32h0Zm5,.39h0Z"/><path class="cls-3" d="M137.28,164.61v0Z"/><path class="cls-3" d="M132.5,165.46h0Z"/><path class="cls-3" d="M138.65,171l0-.15,0,.15Z"/><path class="cls-3" d="M185,288.4v-.07a.2.2,0,0,1,0,.07Z"/><path class="cls-3" d="M185.05,288.83h0Z"/><polygon class="cls-3" points="185.05 288.84 185.05 288.83 185.05 288.84 185.05 288.84 185.05 288.84"/><polygon class="cls-3" points="185.05 288.84 185.05 288.84 185.05 288.84 185.05 288.84 185.05 288.84 185.05 288.84"/><path class="cls-4" d="M94.23,74.53a13,13,0,0,0-2.06.25,8.86,8.86,0,0,0-1.5.6,6.59,6.59,0,0,0-.88.32,6.72,6.72,0,0,0-1.1.72,5.07,5.07,0,0,0-1.54,1.75l-.24.49a2.09,2.09,0,0,0-.82,1.55c0,.32,0,.65,0,1-.13.61-.21,1.23-.28,1.85v.09a6,6,0,0,0-.29,1.43c-.18.88-.37,1.75-.52,2.64-.1.62,0,1.25,0,1.87a8.17,8.17,0,0,0-.1,1.49c0,.78.06,1.54.14,2.33,0-.26,0-.52-.07-.78,0,.71.14,1.4.23,2.1,0-.16,0-.32,0-.48,0,.38.09.75.13,1.13,0,.22,0,.44,0,.66a9.45,9.45,0,0,0,.08,1.3,6.5,6.5,0,0,1,0,.88,8,8,0,0,0,.11,1.62c0,.35,0,.7,0,1.06,0,.53.06,1.06.11,1.59.06.88,0,1.77.1,2.65a2.46,2.46,0,0,0,0-.26c0,.15,0,.3,0,.44s0,.17,0,.25v-.17a7.28,7.28,0,0,0,.23,1.29c.13.5.28,1,.42,1.48.18.65.38,1.29.61,1.92a4.32,4.32,0,0,0,.57,1.06l-.09-.12c.2.29.29.64.49.94a12,12,0,0,0,.84,1.14,5.57,5.57,0,0,0,2,1.43l-.24-.1a10.84,10.84,0,0,0,1.62.67,5.72,5.72,0,0,0,1.64.17,6.82,6.82,0,0,0,1.5-.15c.22,0,.43-.08.65-.11a3.83,3.83,0,0,0,.58-.07,5.13,5.13,0,0,0,1-.34,5.65,5.65,0,0,0,1.33-.65,6.91,6.91,0,0,0,2.22-2.08,13.63,13.63,0,0,0,1.48-4.75c.1-.61.13-1.23.19-1.84s.1-1.17.13-1.76.08-1.27.13-1.9c0-.36.1-.71.13-1.07s0-.79,0-1.18c0-1.08.13-2.15.15-3.23,0-.63,0-1.26.06-1.89a15.63,15.63,0,0,0-.06-2.16q0,.35.06.66c-.05-.68-.05-1.37,0-2.06a15.7,15.7,0,0,0-.14-2c0-.57,0-1.13,0-1.69,0-.78-.06-1.55-.13-2.33,0-.16,0-.31,0-.47a21.22,21.22,0,0,0-.68-4.12,4.81,4.81,0,0,0-.62-1.43c-.31-.45-.62-.91-1-1.33l-.54-.6a4.59,4.59,0,0,0-1.67-1.07l-.3-.13a6.16,6.16,0,0,0-1-.41,4.66,4.66,0,0,0-1.34-.18h-.21c-.45,0-.9,0-1.36.06ZM85.44,84.78l0,.13,0-.13Z"/><path class="cls-4" d="M233.93,73.92a20,20,0,0,0-1.71,1,8.28,8.28,0,0,0-1.43,1,10.42,10.42,0,0,0-1.18,1.31,8.14,8.14,0,0,0-1.17,2.45,14.71,14.71,0,0,0-.46,1.85,21.3,21.3,0,0,0-.3,2.5,21.43,21.43,0,0,0,.09,2.27c.11,1.82.44,3.6.63,5.4.09,1.22.18,2.43.32,3.64.06.5.14,1,.23,1.49s.06,1,.11,1.48c.07.93.1,1.87.08,2.8a26.14,26.14,0,0,0,.15,2.93c.06.88.09,1.76.19,2.63a8.4,8.4,0,0,0,.79,2.55,9.35,9.35,0,0,0,1.46,2.25,6.16,6.16,0,0,0,2.17,1.57l0,0a9.55,9.55,0,0,0,2.2.82c.41.08.85.15,1.28.2a6.12,6.12,0,0,0,1.28,0,8.52,8.52,0,0,0,2-.59,8.28,8.28,0,0,0,3.62-3.17,15.33,15.33,0,0,0,1.13-2.39,21.1,21.1,0,0,0,.71-4.81c0-.5.1-1,.18-1.49,0,.24-.09.47-.12.7.13-.77.24-1.54.35-2.31v.09l0,.1v-.05l0,.12v0a1.85,1.85,0,0,1,0-.23l0-.31,0-.23c.13-.71.28-1.42.39-2.14s.13-1.52.2-2.28a26.83,26.83,0,0,0-.06-4.48h0c-.08-1.13-.16-2.27-.31-3.4s-.36-2-.56-3-.33-2-.57-3-.45-1.87-.73-2.79a7.56,7.56,0,0,0-1.63-3.14,5.85,5.85,0,0,0-3-1.74c-.92-.18-1.85-.29-2.78-.39a3.87,3.87,0,0,0-.48,0,8,8,0,0,0-3.12.8Zm12.64,25.81c0,.1,0,.21,0,.31v0c0-.16,0-.32.08-.48l0,.16Z"/><path class="cls-4" d="M83.64,75.21a.9.9,0,0,0-.47.56,1,1,0,0,0,.06.7,2.73,2.73,0,0,0,.71.88c.19.2.38.4.56.61.37.41.68.87,1,1.3.19.24.4.48.6.72l.53.63A16.32,16.32,0,0,0,88,81.91a.74.74,0,1,0,1.1-1c-.43-.4-.85-.79-1.24-1.22s-.68-.86-1-1.3-.56-.88-.84-1.32-.39-.6-.6-.89a5.87,5.87,0,0,0-.63-.77,1,1,0,0,0-.71-.31.87.87,0,0,0-.41.11Z"/><path class="cls-4" d="M88.69,71.08a1,1,0,0,0-.46.55.92.92,0,0,0,.06.69c.44,1.06.9,2.11,1.37,3.16.23.51.48,1,.75,1.49s.67,1.06,1,1.59a.83.83,0,0,0,.47.39.74.74,0,0,0,.6,0,.79.79,0,0,0,.34-1.07c-.28-.43-.58-.87-.84-1.32a12,12,0,0,1-.63-1.3c-.37-.88-.71-1.76-1-2.65h0c-.13-.36-.26-.73-.4-1.08A.88.88,0,0,0,89.1,71a1,1,0,0,0-.41.09Z"/><path class="cls-4" d="M96.17,69.09a.93.93,0,0,0-.47.73c0,.56-.15,1.11-.22,1.67s-.15,1.26-.21,1.9-.12,1.21-.17,1.81-.18,1.27-.28,1.9a.6.6,0,0,0,.18.48.67.67,0,0,0,.46.22.66.66,0,0,0,.48-.18.69.69,0,0,0,.22-.46c.12-.73.24-1.46.32-2.2s.17-1.38.28-2.07c.08-.47.17-.94.27-1.4s.26-.91.36-1.38a1,1,0,0,0-.06-.65.88.88,0,0,0-.51-.42.78.78,0,0,0-.26,0,.89.89,0,0,0-.39.09Z"/><path class="cls-4" d="M102.79,72.72a1.9,1.9,0,0,0-.45.34,3,3,0,0,0-.31.4l-.19.3c-.1.16-.22.31-.33.46-.5.56-1,1.09-1.51,1.67A18.75,18.75,0,0,0,98.45,78a1,1,0,0,0,.31,1.36,1,1,0,0,0,1.35-.32c.35-.52.7-1,1.08-1.52s.84-.93,1.29-1.37a10,10,0,0,0,.81-.9c.22-.28.41-.58.61-.87l0,0a1,1,0,0,0-.7-1.75.82.82,0,0,0-.44.11Z"/><path class="cls-4" d="M105.44,77.81a5.13,5.13,0,0,0-1.4.71,6.92,6.92,0,0,1-1.23.66c-.6.18-1.22.33-1.84.46a.89.89,0,0,0-.67,1,.88.88,0,0,0,1,.67,17.42,17.42,0,0,0,2.57-.7,6,6,0,0,0,1.07-.54c.35-.21.72-.39,1.07-.6a.93.93,0,0,0,.48-1,1,1,0,0,0-.88-.73.76.76,0,0,0-.21,0Z"/><path class="cls-4" d="M227.38,72.74a1.19,1.19,0,0,0-.59.69,1.27,1.27,0,0,0,.08.88,3.47,3.47,0,0,0,.54.81l.48.57c.3.36.61.69.94,1,.74.74,1.51,1.43,2.29,2.13a1.15,1.15,0,0,0,.76.35,1.09,1.09,0,0,0,.85-1.83,21.87,21.87,0,0,1-3.15-3.23c-.26-.38-.52-.77-.81-1.14a1,1,0,0,0-.84-.38,1.12,1.12,0,0,0-.55.13Z"/><path class="cls-4" d="M232.36,68.09a1.05,1.05,0,0,0-.82,1,6.57,6.57,0,0,0,.39,1.85c.18.56.37,1.12.53,1.69s.39,1.28.63,1.9a16.38,16.38,0,0,0,.8,1.76,1.06,1.06,0,0,0,1.88-1,12.29,12.29,0,0,1-.57-1.15l-.39-1c-.24-.71-.46-1.42-.65-2.14-.1-.34-.19-.69-.28-1a6.72,6.72,0,0,0-.37-1.33,1.05,1.05,0,0,0-.94-.57l-.21,0Z"/><path class="cls-4" d="M238.27,67.66a7.93,7.93,0,0,0-.28,1.82c0,.52-.06,1-.11,1.55-.08,1.11-.12,2.22-.17,3.33a1,1,0,1,0,2.07.09c.05-1.08.09-2.16.2-3.23.06-.54.1-1.08.15-1.62,0-.22,0-.46.06-.69a7.26,7.26,0,0,0,0-.93,1,1,0,0,0-.68-1,1,1,0,0,0-.28,0,1,1,0,0,0-.94.69Z"/><path class="cls-4" d="M244.78,72.17c-.19.31-.35.65-.53,1a6.27,6.27,0,0,1-.5.73,8,8,0,0,1-.78.76c-.32.27-.66.52-1,.76l.16-.12L241,76a.77.77,0,0,0-.38.45.78.78,0,0,0,.05.58.77.77,0,0,0,1,.33,21.91,21.91,0,0,0,2.63-1.86,12.77,12.77,0,0,0,2-2.35.9.9,0,0,0-.77-1.4.92.92,0,0,0-.79.43Z"/><path class="cls-4" d="M248.09,76c-.3.13-.57.3-.86.45s-.67.34-1,.53c-.67.36-1.31.77-1.95,1.19a1.18,1.18,0,0,0-.55.65,1.16,1.16,0,0,0,.07.82,1.09,1.09,0,0,0,.66.55,1,1,0,0,0,.83-.07c.63-.41,1.28-.81,1.94-1.19.32-.19.67-.35,1-.52a4,4,0,0,0,1.07-.68,1.08,1.08,0,0,0,.22-1.27,1,1,0,0,0-.94-.57,1.24,1.24,0,0,0-.49.11Z"/><path class="cls-4" d="M71.92,187.39a9.85,9.85,0,0,0-1.09.15,6.84,6.84,0,0,0-3.08,1.12c-.25.19-.48.39-.71.58a7.16,7.16,0,0,0-1.3,1.28,11.6,11.6,0,0,0-.87,1.43,8.65,8.65,0,0,0-.69,1.9,8.35,8.35,0,0,0-.17,1.66,9.74,9.74,0,0,0,0,2,12.19,12.19,0,0,0,.55,2.39c.17.46.3.92.5,1.36a27.18,27.18,0,0,0,1.45,2.78c.67,1.14,1.4,2.24,2.13,3.33a31.43,31.43,0,0,0,2.14,3,48.64,48.64,0,0,0,6,5.63c1,.85,2,1.73,3,2.59a41.47,41.47,0,0,0,3.23,2.69,41.58,41.58,0,0,0,4.43,2.58c1.2.64,2.35,1.39,3.56,2s2.47,1.25,3.68,1.93,2.2,1.36,3.38,1.87,2.53,1,3.77,1.52,2.58,1.1,3.89,1.63c2.62,1,5.27,2,8,2.88a23.38,23.38,0,0,0,2.82.84c.65.13,1.3.23,1.94.34,1.32.23,2.61.51,3.92.81s2.56.46,3.85.7a28.88,28.88,0,0,1,3.3.81,22.93,22.93,0,0,0,3.06.8c1,.2,2.07.28,3.11.39.86.08,1.71.19,2.57.29,1.45.16,2.93.18,4.39.26l-1.11-.07L143,241c2.82.22,5.6.7,8.4,1a58.15,58.15,0,0,0,9.59.53c1.64-.1,3.28-.28,4.92-.32,1.42,0,2.84-.08,4.27-.19,1.58-.11,3.15-.32,4.73-.46,1.43-.14,2.86-.11,4.29-.13h1.63c1.4,0,2.81,0,4.21-.11a50.69,50.69,0,0,0,7.43-1.31c1.95-.46,3.85-1.07,5.8-1.52s3.66-.85,5.5-1.25c2.75-.53,5.45-1.22,8.18-1.84,2.4-.54,4.79-1.09,7.14-1.86s4.38-1.63,6.55-2.48c1.24-.49,2.48-.93,3.68-1.5s2.37-1.16,3.54-1.77,2.34-1.07,3.49-1.64c.91-.46,1.79-.91,2.66-1.44.66-.4,1.29-.85,1.94-1.24,1.26-.75,2.55-1.43,3.78-2.23,1.4-.9,2.77-1.84,4.14-2.77a37.46,37.46,0,0,0,3.16-2.3c1.22-1,2.55-1.92,3.77-3a70.78,70.78,0,0,0,7.26-6.58,15.28,15.28,0,0,0,1.47-2.08,25.1,25.1,0,0,0,2.31-3.58,11.66,11.66,0,0,0,1-3.56c0-.39.11-.77.15-1.17a7.59,7.59,0,0,0-2.34-6.59,6.38,6.38,0,0,0-4.79-1.52l-.86,0a6,6,0,0,0-2.15.53,24.34,24.34,0,0,0-5.57,2.83,37.67,37.67,0,0,0-3.44,3.12c-.42.42-.82.85-1.2,1.3a17.3,17.3,0,0,0-1.46,2.15c-.32.51-.63,1-.92,1.54-.28.24-.57.47-.86.7-.55.44-1.06.92-1.58,1.4-1.2,1-2.46,2-3.68,3-1.45,1.2-3,2.31-4.49,3.39s-3.05,2.11-4.58,3.15c-.83.56-1.64,1.15-2.47,1.71a26.2,26.2,0,0,1-2.57,1.47l.44-.23c-1,.52-2,1.07-3,1.59a42,42,0,0,1-4.81,2c-1.87.65-3.7,1.39-5.55,2.09-1.69.64-3.47,1.13-5.21,1.65-1,.31-2.1.53-3.15.83s-2.14.67-3.23.93c-1.27.25-2.56.47-3.84.68-1.53.25-3.08.34-4.61.54-3.11.39-6.2,1-9.32,1.28s-6.11.78-9.18,1.09c-1.54.15-3.08.09-4.62.12s-2.85.1-4.28.08c-1.23,0-2.46-.11-3.69-.14h-1.77c-.68,0-1.35,0-2,0-2.5-.18-5-.39-7.49-.65s-5.15-.93-7.74-1.27a25.06,25.06,0,0,1-3.84-.85c-1.36-.4-2.75-.68-4.13-1-2.51-.56-5-1.1-7.49-1.82-1.63-.58-3.21-1.3-4.83-1.9-.92-.33-1.85-.63-2.76-1s-1.93-.76-2.88-1.17c-1.8-.79-3.57-1.59-5.28-2.55-.9-.5-1.77-1-2.64-1.58s-1.46-.85-2.18-1.28c-1.13-.76-2.25-1.53-3.4-2.26l.87.56-1.65-1.07a49.63,49.63,0,0,1-4.09-2.92c-.6-.49-1.22-.94-1.79-1.46s-1.07-1-1.64-1.5-1-.91-1.45-1.37-1.22-1.12-1.86-1.64a19.72,19.72,0,0,1-1.48-1.41c-.46-.46-1-.88-1.43-1.34s-.7-.8-1.07-1.18-.63-.62-.94-.94a12.65,12.65,0,0,0-1-1.06c-.36-.33-.75-.63-1.12-.94-.76-.64-1.41-1.39-2.19-2a26,26,0,0,0-3.2-2.31,13.71,13.71,0,0,0-3.09-1.22,11.09,11.09,0,0,0-3-.44ZM101,208.64l.26.17-.26-.17Z"/></g></g></svg>