<svg xmlns="http://www.w3.org/2000/svg" viewBox="0 0 329.87 319.79"><defs><style>.cls-1{fill:#ececec;}.cls-2{fill:#3a4172;}</style></defs><title>illustrator</title><g id="Layer_2" data-name="Layer 2"><g id="Draw_Layer" data-name="Draw Layer"><path class="cls-1" d="M3.69,1.67A3,3,0,0,0,1.75,2.75a3.25,3.25,0,0,0-.62,2.18,2.73,2.73,0,0,0,.16.84c0,.18,0,.37,0,.55-.05.77-.14,1.53-.25,2.3l0,.15C1,9.55.88,10.28.84,11.05l0,.8a21.23,21.23,0,0,0,0,3.47l0,.61c.11,1.05.2,2,.22,2.95L1,20.23c0,.68,0,1.36-.05,2,0,1,0,2,0,3V26.5c0,1.23-.11,2.45-.21,3.79l0,.36v.15a49.21,49.21,0,0,0-.22,5.7c0,.8.1,1.61.18,2.42.06.65.12,1.25.15,1.86C.88,42.26,1,44,1,45.71v.36c0,.33,0,.66,0,1v1.66c0,.8,0,1.6-.07,2.4,0,1.19-.08,2.39-.08,3.58a30.22,30.22,0,0,0,.12,3c.07.84.07,1.7.07,2.52v1.56H1v.65c0,1.2,0,2.45,0,3.68s.09,2.39.11,3.59c0,.45,0,.89-.06,1.34,0,.68-.06,1.35-.06,2,0,1.43,0,2.87,0,4.3q0,3.51.05,7l0,1.32c0,.87,0,1.74,0,2.61,0,.64,0,1.29,0,1.93v1.15l0,1.71,0,2.6,0,1.72v4.8c0,1,0,2,0,3v1.51c0,1.1-.06,2.21-.11,3.31-.09,2.53-.18,5.15,0,7.69.07,1.46.11,2.94.14,4.41l0,.78c0,.79.06,1.58.1,2.36s.09,1.74.1,2.6-.06,1.8-.1,2.7L1,132.15c-.07,1.61-.06,3.36,0,5.67.07,2.59.12,5.52.14,9.18,0,1.19,0,2.38-.09,3.57l-.12,2.15-.09,1.61c0,.92-.13,1.83-.2,2.74l0,.37c-.14,1.78-.27,3.57-.28,5.34V163c0,1.22,0,2.36,0,3.51,0,.53,0,1.07,0,1.6s0,1.06,0,1.6c0,.85,0,1.71,0,2.56,0,1.1,0,2.2.07,3.29s.08,2.06.08,3.08v.63c0,.86,0,1.72,0,2.58l0,.76c0,.51,0,1,.05,1.51,0,1.53,0,3.06.08,4.59,0,1.25.11,2.49.19,3.73v.16c.08,1.15.17,2.57.19,3.93v1.6c0,.7-.1,1.41-.17,2.12L.6,201.36c-.1,1.2-.17,2.49-.22,4.19,0,1.27,0,2.67.09,4.38.07,1,.07,2,.07,3v1.63c0,.53,0,1,0,1.55s0,1.16,0,1.73v1.25c0,.44,0,.88,0,1.32l0,.73,0,1.06c0,1,0,2.06,0,3v.24l0,1.48,0,.41c0,.95.07,1.86.08,2.78v1l0,.84a33.7,33.7,0,0,0,0,4.38c.14,1.52.22,3,.25,4.39,0,1.2-.15,2.39-.25,3.58-.09,1-.17,1.94-.22,2.88a33.06,33.06,0,0,0,0,4.12c0,.8.07,1.61.08,2.41v.69l0,.69,0,1.34c-.05,1.2-.1,2.4-.11,3.6s-.1,2.74-.17,4.16l0,.28c-.1,2-.21,4.36-.14,6.61,0,.95.09,1.89.16,2.84s.13,2,.16,2.94.08,1.8.13,2.71l0,.34c.05.86.1,1.72.12,2.58,0,.65-.07,1.29-.12,1.94-.08,1.09-.13,2-.13,2.86s0,2,.07,3l.06,1.93c0,1.49,0,3,0,4.46,0,.64,0,1.27,0,1.91s.05,1,.06,1.47c0,.91-.06,1.82-.05,2.73,0,.44,0,.9,0,1.37v.74c0,.64,0,1.25.06,1.85l0,.94v.2l0,1.23v.65s0-.06,0-.06l0-.08c0,.19,0,.45,0,.71,0,1,.09,2.09.18,3.1l.05.75c0,.48.08.95.11,1.43a2.35,2.35,0,0,0,.27,1A3,3,0,0,0,4.05,319a2.12,2.12,0,0,0,.28.2,4.1,4.1,0,0,0,2.24.61,5.15,5.15,0,0,0,.55,0c.22,0,.44-.06.66-.1l.26,0,.43,0a7.36,7.36,0,0,0,.81-.06h.24l.8,0h2.9l.89,0h.34c.52,0,1-.05,1.55-.09a8.05,8.05,0,0,0,1.11-.18l.17,0c.23,0,.41-.08.59-.1l.35,0h.57l.7-.05h1.1l1.18,0c.63,0,1.31,0,2,0l2.1,0,1.69,0H30.3a21.52,21.52,0,0,0,2.46-.17c.24,0,.47-.08.71-.12s.48-.11.7-.14c.48,0,1,0,1.44,0l1.33,0a18,18,0,0,0,2.23-.18l.14,0,1.12-.14.77,0,.44,0,.47,0,1.84-.1a12.58,12.58,0,0,0,1.39-.22c.31-.06.62-.12.93-.16.69,0,1.37.05,2.06.1L49,318c1,.06,2,.09,3,.1.6,0,1.19,0,1.78.08l.56,0,.53,0c1,0,2,.06,2.95.08h.17c.62,0,1.25,0,1.88,0l1,0h3a29.25,29.25,0,0,0,3.51-.33l.29,0c.6-.07,1.21-.15,1.81-.2s1.09,0,1.64.05h.52c.5,0,1,0,1.51,0,1.67,0,3,0,4.33-.11.42,0,.84,0,1.25,0,1,0,1.93,0,3.08.13l1,.07c1.09.09,2.32.18,3.5.18h.24c1.55,0,3.09,0,4.63-.08s3.34-.09,5-.23c2-.11,4.33-.17,7.2-.17,1.65,0,3.28,0,4.92,0h1l3.44,0c1.2,0,2.41.05,3.61.1s2.69.11,4,.11h.88l1.22,0c.8,0,1.6-.05,2.41-.05h.63l1.9,0,1.67.05h1c1.61,0,3.22-.07,5.08-.15h.15l1.26,0c1.28,0,2.57.07,3.78.15l1.12.06c1.32.07,2.64.09,4,.11l2.38,0c.47,0,.95,0,1.41,0,1.26,0,2.7-.06,4.53-.17l.92,0c1,0,2,.05,2.93.11l1.39.06c.42,0,.85,0,1.28,0h1.39l1.38,0c.33,0,.67,0,1,0q1.08,0,2.13.09c1.11.05,2.21.1,3.31.1H170c2.69,0,4.65-.09,6.37-.21l.54,0,.53,0,.36,0c1-.06,1.87-.09,2.77-.12l.72,0c.49,0,1,0,1.43,0l.74,0c1.07.05,2.14.07,3.21.09l2.2,0h.93c1,0,1.92,0,2.88-.06l1.64-.06c2.29-.06,3.89-.14,5.37-.25.42,0,.84,0,1.26,0l1.75,0,1.57,0c1.21,0,2.37-.08,3.49-.17l.27,0,1.25-.09c1.23-.07,2.45-.13,3.68-.14h.25c.75,0,1.51,0,2.26,0s1.51,0,2.26,0l1.8,0,1.95,0c.83,0,1.51,0,2.2,0s1.49,0,2.23,0h.36c1.38,0,2.8.05,4.37.16l1.73.13c.89.07,1.77.14,2.66.18,1.56.07,3.12.11,4.67.14l1.5,0c1,0,2,.06,2.9.06h.31c2,0,3.91,0,5.87-.12l.84,0,1.63,0h.2l1,0h3.49c1.61,0,3.2.08,4.53.14l1,0,1.35.05,1.24,0c1.58,0,3.17-.09,4.71-.19l.31,0,.8,0c.71,0,1.43,0,2.15.07.45,0,.9,0,1.36.06h.34c.4,0,.79,0,1.19,0l2.58.1c.71,0,1.41.1,2.1.18l.69.07c2,.21,3.5.34,5.09.4l1.57,0c1.15,0,2.31,0,3.46-.1s2.19-.07,3.3-.07c.76,0,1.52,0,2.27,0,1.73-.05,3.46-.13,5.18-.24l1.26,0c.74,0,1.47,0,2.2,0l1.94,0h.31l1.48,0h1.29l1.35,0h.5a16.66,16.66,0,0,1,2.61.31l.31.06c1,.17,2,.28,2.95.39a20,20,0,0,0,2.23.12c1.36,0,2.74-.13,3.79-.23a2.74,2.74,0,0,0,.77.17h.19a3,3,0,0,0,2.93-2.74,16.38,16.38,0,0,0,0-3.57c-.05-.28-.1-.55-.16-.83-.09-.43-.15-.69-.18-.94V311l.1-1.75c0-.34.06-.66.1-1l0-.16.09-.68a12.73,12.73,0,0,0,0-2.31l0-.47c-.06-1-.15-2-.26-3-.06-.69-.13-1.39-.18-2.08,0-1,0-1.92,0-2.88v-.48c0-1.65,0-3.34-.1-5,0-.4,0-.8-.07-1.21l0,.16c0-.43,0-.83-.05-1.23,0-1.13-.07-2.25-.14-3.37,0-.28,0-.63-.06-1l0-.61c0-.55,0-1.08.06-1.62l0-.45,0-.43a27.5,27.5,0,0,0-.12-3.27l0-.28c0-.6,0-1.2.07-1.8v-.2l0-.45a26.9,26.9,0,0,0-.06-3.39l-.05-1,0,.15v-.61l0-.72c0-1.51.05-3,.13-4.37l0-.6,0-.61c.05-.74.1-1.48.1-2.22s-.06-1.52-.11-2.28l0-.39-.05-1.19c-.07-1.7-.14-3.63,0-5.48l.06-1.34c0-.69.07-1.39.09-2.07a43.12,43.12,0,0,0-.09-4.54l0,.23v-.48c-.06-1.14-.15-2.27-.26-3.41l-.06-.74c0-.51-.09-1-.12-1.55-.06-1.57,0-3.2,0-4.63v-.44c0-.9.05-1.8.05-2.69,0-1.56,0-3.1,0-4.65v-3.86c0-.93,0-1.87.1-2.8,0-.49.06-1,.09-1.48.06-1.44.06-2.89.06-4.25s0-2.74,0-4.11l.05-1.24,0-.49c0-.66,0-1.32.05-2,0-2.19.05-5.07,0-8l0-1.22v-.22c0-1.12-.07-2.29,0-3.43l0-1.14c0-.89.06-1.78.07-2.67s0-1.5.05-2.25,0-1.26.05-1.89c0-1.38,0-2.75,0-4.13-.05-2.75-.08-5.52-.08-8.28,0-1.24.1-2.51.18-3.62l0-.42c0-.67.1-1.33.13-2,.06-1.68,0-3.41-.11-5.07l0-.77a37.85,37.85,0,0,1,.06-5.69,28.54,28.54,0,0,0,.05-3.92L328,150l-.09-1.43c0-1.46,0-2.87.06-4.31,0-.52.07-1,.11-1.56l0-.38c.05-.66.1-1.33.13-2,0-.87,0-1.75,0-2.62q0-.81,0-1.62v-.78c0-1.2,0-2.42.1-3.62s.14-2.22.22-3.34v-.2h0c.09-1.37.19-2.73.27-4.09s.08-2.76.08-4.11v-.74c0-.91,0-1.81,0-2.71,0-1.43.07-2.73,0-4-.07-1.46-.16-2.93-.26-4.39a69.42,69.42,0,0,1,.37-7.53c.14-1.66.22-3.16.26-4.29,0-1,0-2,0-3.44l0-.57v-.4a36.44,36.44,0,0,1,.11-3.69c.11-1.35.19-2.71.26-4.06.05-1.14,0-2.3-.06-3.33l0-.83c-.06-1.35-.07-2.76,0-4.34q.08-3.06.1-6.13l0-2.3c0-.75,0-1.51.05-2.27v-.74c.05-1.94.09-3.86.08-5.79V57.8c0-1.89,0-3.84,0-5.77s.05-3.89-.08-6.37l0,.16v-.06c0-.6,0-1.19-.08-1.78l0-.55c0-.64,0-1.3,0-2v-.66a26.67,26.67,0,0,0-.22-3.74c-.1-.71-.17-1.42-.23-2.14l-.08-.78-.08-.75c-.06-.57-.13-1.15-.16-1.72l0-.39c0-1.21,0-2.43,0-3.65,0-2.85.06-6.07-.19-9.2,0-.55,0-1.09,0-1.63,0-.16,0-.3,0-.45s0-.39.06-.58,0-.3,0-.45a3.23,3.23,0,0,1,0-.44c0-1.09,0-2,0-2.79,0-.35-.06-.7-.1-1l0-.28V9.17a13.83,13.83,0,0,0-.12-1.58,4.42,4.42,0,0,0-.1-.5l-.09-.41c0-.17,0-.35,0-.53s0-.44,0-.66V5.3a15.45,15.45,0,0,0,0-1.8,3.27,3.27,0,0,0-.83-1.71c-1.94-.08-3.88-.05-5.81,0a7.63,7.63,0,0,0-1.59,1,8.18,8.18,0,0,0-.68.64l-.29.3c-.39.38-.77.77-1.13,1.18-.81.91-1.61,1.84-2.41,2.76l-.12.13-.11.14-.52.46a5.54,5.54,0,0,0-1.09.68,6.41,6.41,0,0,0-.77.83l-.14.11-.15.11a6.21,6.21,0,0,0-1.49,1.29,5.3,5.3,0,0,0-.59,1.05l-.08.18a4.44,4.44,0,0,0-.18,2.11l0,.62c0,.13,0,.26,0,.39h0c0,.37,0,.74,0,1.11,0,1.2,0,2.4,0,3.6,0,.94-.11,1.87-.2,2.86l0,.29,0,.21-.08.76,0,.39a30.41,30.41,0,0,0-.23,3.8c0,1.58-.07,3.2-.16,4.63,0,.77,0,1.53,0,2.3s0,1.42,0,2.14-.11,1.59-.19,2.38l0,.27,0,.21c-.06.54-.1,1-.14,1.52-.12,1.63-.13,3.29-.14,4.9,0,1.07,0,2.12-.06,3.18s-.05,2.22-.06,3.33V56c0,.3,0,.61,0,.91s0,.83-.06,1.26-.05.79-.05,1.18a39.37,39.37,0,0,0,.45,5.67l.05.41c.12.92.23,1.83.31,2.75l0,.7c.05,1.3.06,2.48,0,3.61,0,.57-.06,1.14-.09,1.74l0,.26c-.05.78-.09,1.53-.12,2.28a40.73,40.73,0,0,0,.14,4.66l.15,1.32,0,.45,0,.46.09.88c0,.94,0,1.9-.07,2.74v.19l0,.49a36.82,36.82,0,0,0,.05,4.34v.25q0,1,.09,2.07c.06,2.61,0,5.28-.07,7.77s.06,4.84.19,7c.07,1.64.14,3.54.09,5.47,0,.83-.08,1.66-.13,2.54l0,.26,0,.42,0,.39c0,.65-.08,1.3-.1,1.94a55.73,55.73,0,0,0,.07,6c.06.92.13,1.83.21,2.74l.05.74c0,.52.08,1,.11,1.55.06,1.51,0,3.13,0,4.55v1.4c0,.89,0,1.77,0,2.66,0,2.62,0,6.05.22,9.37a3.5,3.5,0,0,0,0,.56c0,.15,0,.32,0,.49v.59l0,.58c0,.75,0,1.5,0,2.27,0,1.73-.07,3.5-.15,5.18-.07,1.23-.12,2.41-.14,3.6,0,.72,0,1.44,0,2.16s0,1.55,0,2.33l0,1.77c0,.94-.06,1.88-.07,2.82,0,3,.11,6,.26,8.77q.21,3.94.48,7.9c0,1.22,0,2.43.09,3.64v1.14c0,.6,0,1.2.05,2,0,1.8-.06,3.59-.12,5.38l-.05,1.78a66,66,0,0,0,.33,7.4c.11,1.18.2,2.24.26,3.29.06,1.82,0,3.72,0,5.39v.4c0,.9-.05,1.8-.06,2.71,0,1.34,0,2.7,0,4v2.91l0,1.29c0,3,.06,5.93.14,8.89v.42c0,1.19.07,2.68,0,4.12a46.16,46.16,0,0,0,.07,4.79l0,.4,0,.4,0,.76v.16c0,1,.09,2.06.05,3.11,0,.31,0,.61-.06.92s-.06.68-.07,1c0,.7,0,1.4.05,2.11,0,.48,0,1,.07,1.45v.39c0,1.2,0,2.45.16,3.68.08.83.13,1.68.17,2.55l0,.26v.34a27.7,27.7,0,0,1-.05,4.37,35.9,35.9,0,0,0-.17,3.87v.63c0,.71,0,1.4-.08,2.1a23.94,23.94,0,0,0,0,3.05c.05,1,.12,2,.2,3l.12,1.67c0,.67,0,1.33,0,2s-.09,1.14-.16,1.72l0,.23,0,.2-.07.56-.07.58c-.07.57-.13,1.11-.15,1.66,0,.75,0,1.51,0,2.26v.48c0,1.61.08,3.34,0,5.16a20.61,20.61,0,0,1-.3,2.43h-.32c-1.38,0-2.58,0-3.78.11-.5,0-1,0-1.5,0l-2.19,0h-1l-1.45,0h-1a15.44,15.44,0,0,1-2-.15l-.31,0a40.69,40.69,0,0,0-4.37-.24H293c-1.15,0-2.32.11-3.46.19l-1.09.08c-.83,0-1.66,0-2.49,0-1.54,0-3.07,0-4.61-.09h-.44l-.78,0c-1.13,0-2.27,0-3.41,0-1.41,0-2.88,0-4.31-.08-1.05-.06-2.22-.16-3.66-.32-1.17-.13-2.33-.15-3.6-.17h-.58c-.68,0-1.35,0-2,0s-1.15,0-1.73,0h-.31c-1.08,0-2.16,0-3.25-.06l-.71,0c-.57,0-1.15,0-1.73,0h-.53c-.89,0-1.79.1-2.69.18l-.91.08c-1,0-1.91.08-2.86.08h-.71c-1.25,0-2.5,0-3.75,0h-.77c-.62,0-1.24,0-1.86-.05h-.74l-.77,0h-.27l-1.74,0-.39,0h-1.4c-.76,0-1.53,0-2.3,0-.48,0-1,0-1.46,0h-4l-1.66,0-1.65,0h-.39l-2.46,0-2.46,0-2.54-.07H215c-.64,0-1.28,0-1.93,0h-1.74l-1.76,0-1.24,0h-.2c-1.11,0-2.22,0-3.33.1h-.29l-.17.06H204c-.33,0-.66,0-1,0l-.56,0-.67.05-1.56.11-1.89,0c-.64,0-1.27,0-1.9.05s-1.53.12-2.37.21l-.26,0-.2,0-1.31.12c-.75,0-1.5.06-2.26.06l-1.31,0c-.89,0-1.77-.09-2.66-.16l-1.77-.12c-1.24-.08-2.51-.09-3.68-.09H174c-.6,0-1.21,0-1.81,0-.88-.05-1.78-.12-2.66-.21l-1.13-.1c-1.4-.13-2.76-.14-4-.14h-2.11c-.81,0-1.63,0-2.44,0s-1.72-.1-2.6-.17l-1.71-.11c-1.11-.06-2.21-.17-3.31-.27l-.83-.08-2.09-.22-.72-.07-1.31-.13c-1.19-.11-2.42-.13-3.62-.15h-.84c-2,0-3.95-.18-6.49-.35l-1.33-.1c-1-.07-1.95-.09-3.1-.09-1,0-2,0-2.92,0l-2.1,0h-.43c-1,0-1.91,0-2.86-.05l-2-.05h-.51c-1.56,0-3.23.1-4.8.22l-.3,0-.22,0c-.81,0-1.62.05-2.43.05h-1.3l-1,0-1,0h-.17c-.62,0-1.24,0-1.87.09l-.45,0c-1.22.06-2.44.07-3.65.07-1.43,0-2.78,0-4.12.12h-.37c-.88,0-1.73-.09-2.68-.18-1.11-.12-2.21-.25-3.32-.39a37.2,37.2,0,0,0-4.69-.26h-1.1l-5.74.1h-.55c-.71,0-1.42,0-2.13,0h-.29c-.83,0-1.66-.05-2.49-.05-.5,0-1,0-1.5,0l-.84.06-.8.07h-.72c-1,0-1.89-.06-2.84-.12L69,298.7l-.26,0-.34,0-.67-.05c-.35,0-.68,0-1,0l-1,0-.7,0c-.56,0-1.13,0-1.7.05h-.52c-.79,0-1.59,0-2.38,0l-.3,0a20.62,20.62,0,0,0-2.65.22l-.34.05-.37.06-.29.05-.17,0c-.39.07-.79.13-1.18.16l-1.61,0H52.25c-.81,0-1.51.07-2.17.13l-.15,0-.9.09h-.52c-1.13,0-2.29-.09-3.38-.19-.36,0-.73,0-1.09,0-.84,0-1.71.07-2.56.14l-.79.06h-.75l-1.18,0H37.4l-1,0h-.33l-1,0h-.46a19.32,19.32,0,0,1-2.31-.24l-1-.13a8.65,8.65,0,0,0-1.13-.06,19.62,19.62,0,0,0-2.13.13h-.31c-.69,0-1.37,0-2.06-.09l-.79-.05a4.1,4.1,0,0,0-.5,0c-.67,0-1.33.06-2,.12l-.44,0c-.52,0-1,0-1.4-.05l-.9,0H18a3.74,3.74,0,0,0-1,.25l-.18.06c0-.27,0-.48,0-.69v-.37c0-1.4-.1-3.32-.31-5.11a74.92,74.92,0,0,1-.62-8.12c0-1.73,0-3.46,0-5.19v-4.5c0-.53,0-1.06,0-1.58,0-1.26.06-2.64.12-4v-.74c0-1.3.09-2.59.09-3.89,0-.87-.07-1.77-.14-2.56l0-.34c0-.33,0-.63-.06-.93-.08-1.17-.13-2.35-.17-3.53l0-.55c0-1.41-.15-2.84-.26-4.26l0-.51c-.06-.85-.12-1.71-.16-2.57-.12-2.18-.29-4.63-.51-7.25-.11-1.2-.16-2.55-.17-4.13,0-.82,0-1.63,0-2.45l-.06.15,0-.61c0-.8,0-1.54,0-2.3l-.07-1.09c0-.44-.06-.89-.08-1.33-.12-2.15-.16-3.79-.16-5.33,0-1.88,0-3.76-.08-5.64l0-.58c0-1.57-.07-3.14-.07-4.71,0-.33,0-.66,0-1V212l-.06.2c0-.36,0-.8,0-1.23,0-1.51,0-3-.14-4.67-.15-1.91-.16-4-.16-5.72V200c0-1.05.08-2.1.13-3.15l.09-1.57c0-1.16,0-2.38,0-3.45v-.27l0-1.28,0-1v-1.49c0-.14,0-.28,0-.41,0-.86,0-1.68,0-2.5s0-1.5,0-2.22v-1.81c0-.75.06-1.5.07-2.25,0-1.12,0-2.22,0-3.33v-1.89c0-.44,0-.87,0-1.31l.05-1.55c0-.6,0-1.21,0-1.81v-.82c0-.53,0-1.07,0-1.61l0-.16V166c.05-1.69.1-3.35.11-5,0-1,0-2.09-.06-3.14,0-.75-.05-1.51-.05-2.26l.05-2c0-1,0-2,.07-2.95s0-2.28,0-3.42v-.66c0-.42,0-.85,0-1.27v-1c0-1,0-2.07.05-3.1v-1.9c0-.62,0-1.31,0-2v-.69c0-1.11.05-2.22.08-3.34.06-1.84.11-3.64.11-5.46,0-1.28.05-2.43.09-3.58v-.25c.05-1.56.11-3.38.1-5.14l0-1c0-2.43,0-4.87,0-7.31,0-2.1-.05-4.25-.11-6.15v-.26c-.07-1.93-.12-3.87-.12-5.8l0-1.47c0-1,0-2,.05-3v-.73c0-.66,0-1.33.09-2v-.28l0-.5c.07-1.21.09-2.42.11-3.63,0-1,0-2,.05-3.08,0-1.31.06-2.62.06-3.94s.1-2.53.18-3.84l0-.77c.12-1.79.13-3.56.12-5.21v-.74c0-.55,0-1.06,0-1.56V66.5c0-.8,0-1.59,0-2.38l0-.78c0-1.49.08-3,.08-4.46V58.2c0-2,.08-4.06,0-6.12,0-.92-.08-1.95-.19-3.34a29.11,29.11,0,0,1-.11-3l0-1.79c0-.85,0-1.54,0-2.23l0-.42c0-.66,0-1.31,0-2V39c0-1.38.1-2.76.16-4.14l.05-1c.08-2,.11-3.94.12-5.72,0-.75.06-1.5.1-2.25l.06-1c.06-1.21.11-2.4.11-3.6l0-.37,0-.4,0-.42c0-.78.05-1.56.05-2.35,0-1,0-1.93,0-2.9l0-.68c0-.31,0-.62,0-.93,0-.66,0-1.32.05-2l0-.48,0-.49c0-.31,0-.58,0-.84V9.11c0-.21,0-.39,0-.56,0-.44-.05-.8-.09-1.19,0-.17,0-.35-.06-.52a5.83,5.83,0,0,0-.1-.87l-.05-.23a4.27,4.27,0,0,0-.27-.9A4.5,4.5,0,0,0,14,3.27a6.77,6.77,0,0,0-1.11-.66,3.69,3.69,0,0,0-1.73-.36l-.18,0a10.52,10.52,0,0,0-1.26-.08,5,5,0,0,0-1.34.24l-.18.06-.41,0-.19,0H7.27a3.3,3.3,0,0,0-1.15.19.83.83,0,0,0-.24-.26A3,3,0,0,0,4,1.65l-.34,0Z"/><path class="cls-1" d="M9.62.23A12.72,12.72,0,0,0,7.88.44,9.67,9.67,0,0,0,6,1.13,14.6,14.6,0,0,0,3.3,2.94,2.88,2.88,0,0,0,5.12,8a3,3,0,0,0,2-.74L8,6.61a7.69,7.69,0,0,1,.9-.47c.24-.06.47-.11.71-.15a28.17,28.17,0,0,1,3.68.16c1.48.14,2.94.22,4.41.3,2.75.16,5.5-.07,8.24-.1,1.46,0,2.92.08,4.37.19s3,.19,4.44.32A77.54,77.54,0,0,0,43.63,7c3.07-.09,6.13-.13,9.2-.08s6.2-.21,9.3-.32a37,37,0,0,1,4.34.08c1.52.13,3,.24,4.56.24,3,0,5.94,0,8.9-.09a83.87,83.87,0,0,1,9.38.06c1.49.1,3,.14,4.46.19s3.08.19,4.62.3c3,.21,6,.45,8.94.56,1.54.06,3.08.07,4.63,0s3.19-.12,4.78-.1c1.35,0,2.68.17,4,.21s2.8,0,4.19,0c2.89,0,5.77.15,8.66.18,1.55,0,3.1,0,4.64,0s3.16.1,4.74.1c1.43,0,2.85-.07,4.27-.09s3,0,4.56,0,2.89,0,4.34-.05c2.22,0,4.44-.08,6.67,0l2.83.12a25.26,25.26,0,0,0,3.25-.15c1.58-.15,3.14-.41,4.72-.58,1.32-.1,2.65-.14,4-.14s2.91.07,4.37.12,2.86,0,4.28,0,2.66,0,4,0c3.12,0,6.25-.06,9.37-.12s6.23-.13,9.34-.17,6.17,0,9.25,0c1.46,0,2.92,0,4.37,0,1.17,0,2.34,0,3.5,0h1.28c1.48,0,3-.07,4.42-.12a45.05,45.05,0,0,1,4.65.14,76.09,76.09,0,0,0,9.05.46c1.41-.07,2.81-.28,4.2-.44a51.56,51.56,0,0,1,5.42.17,39.7,39.7,0,0,0,6-.24c1.91-.13,3.86-.1,5.78-.13s3.63,0,5.45,0,3.78.22,5.68.09,4-.45,6-.7c2.47-.15,4.93.14,7.4.15,1.26,0,2.52,0,3.78-.11s2.59-.23,3.89-.36a21,21,0,0,1,3.27.07,19,19,0,0,0,3,0h-.07a35,35,0,0,1,4.34.19,29,29,0,0,0,4.17,0L313,6.5a17.88,17.88,0,0,0,1.92-.21c.5-.08,1-.27,1.48-.39a9.39,9.39,0,0,1,1.5-.25,3.34,3.34,0,0,0,.69.32,2.89,2.89,0,0,0,2.16-.19,3.19,3.19,0,0,0,1.45-1.72,2.85,2.85,0,0,0-.13-2.28l-1.39,0c-2.88.08-5.78-.13-8.66-.32-.91-.07-1.83-.17-2.73-.28l-3.29,0a29.19,29.19,0,0,1-4.08-.09c-.85.06-1.7.09-2.55.07A25.83,25.83,0,0,1,295.64.8a70.12,70.12,0,0,1-7.94,0,29.84,29.84,0,0,0-5.09.15c-1.3.15-2.58.38-3.88.52a36.19,36.19,0,0,1-4.54,0c-1.43-.07-2.86-.09-4.3-.1a93,93,0,0,0-10.43.32,50,50,0,0,1-6.7-.09,24.88,24.88,0,0,0-3.86.06c-1,.09-1.94.24-2.91.34a63.22,63.22,0,0,1-8.91-.41c-1.51-.13-3-.15-4.55-.17s-2.92.09-4.38.11c-.74,0-1.47,0-2.21,0h-2.61c-1.45,0-2.91.07-4.37.06-3.08,0-6.16-.09-9.23-.05l-4.86.07c-1.51,0-3,.09-4.53.1-3.11,0-6.23.13-9.34.13-2.77,0-5.53.07-8.29,0-1.46,0-2.91-.15-4.37-.13s-2.75,0-4.12.11c-2.13.11-4.22.49-6.34.72-1.59.09-3.19,0-4.78,0-1.31-.07-2.62-.12-3.93-.09l-4.57.12c-1.48,0-3,0-4.44,0-2.94,0-5.88.17-8.82.11-1.57,0-3.15-.08-4.72-.09s-2.93,0-4.39-.06c-2.94-.1-5.87-.15-8.81-.15s-5.55-.33-8.33-.23c-3.07.09-6.12.14-9.17,0s-6.08-.38-9.11-.62c-1.51-.13-3-.16-4.54-.21S89.23,1,87.72,1,84.47.94,82.85,1s-3.13.11-4.69.13-3,0-4.46,0-2.81,0-4.21,0S66.49.82,65,.8s-3,0-4.45.07-3.08.2-4.61.24-3.09,0-4.62,0c-3.16-.07-6.3.1-9.45.15-1.46,0-2.93.07-4.38,0S34.52,1,33,.94,30.31.75,28.94.66a38.14,38.14,0,0,0-4.66,0,80.46,80.46,0,0,1-9.7-.15C13.26.37,11.93.2,10.61.2q-.5,0-1,0Z"/><path class="cls-1" d="M182.22,9.61c-1.41.11-2.83.08-4.25.08s-2.75,0-4.12,0c-2.76.06-5.52.26-8.28.28-1.32,0-2.63,0-3.95-.06s-2.67,0-4,.1a74.64,74.64,0,0,1-7.77-.17c-1.42-.09-2.84-.1-4.26-.06s-2.72.14-4.08.12-2.78-.12-4.17-.18-2.93,0-4.41,0h-3.88c-1.39,0-2.79,0-4.18,0-2.61,0-5.22,0-7.84-.11-1.3,0-2.61,0-3.91,0s-2.86-.07-4.3-.08c-2.82,0-5.62.35-8.43.38-1.37,0-2.74,0-4.1,0-1.52,0-3,.07-4.54.17-.78,0-1.56.14-2.35.16a22.07,22.07,0,0,1-2.3,0c-1.3-.07-2.6-.13-3.91-.16s-2.93,0-4.4.14c-1.25.09-2.52.07-3.79.08-2.81,0-5.61,0-8.42.08-1.49,0-3,.21-4.45.24-1.19,0-2.39-.07-3.58-.13a38.12,38.12,0,0,0-4,0c-1.5.06-3,.07-4.5.12-.8,0-1.6,0-2.4,0H46.38c-1.41,0-2.83,0-4.24.09-1.63.07-3.26.15-4.88.17-1.23,0-2.46,0-3.68,0-2.65.06-5.3.3-8,.31-1.41,0-2.83,0-4.24.07-1.23.06-2.44.13-3.66.13-1,0-1.92,0-2.87-.06-1.16,0-2.33,0-3.48.08a3.06,3.06,0,0,0-2,.74,2.88,2.88,0,0,0,1.82,5c1.49-.05,3-.1,4.49-.06,1.25,0,2.5.06,3.75,0l.71,0v0c1,0,2-.09,3-.12h2c.92,0,1.82,0,2.74-.05,2.1-.11,4.7-.25,7.28-.25,1.93,0,3.83-.07,5.77-.15l3.3-.11c1.29,0,2.59,0,3.88,0s2.68,0,4-.05l1.53-.05c.94,0,1.89-.07,2.94-.07.67,0,1.34,0,2,.07h.25l1.24.06,1.14,0c.91,0,1.85,0,2.89-.11,1.48-.09,3-.13,4.55-.17,1.33,0,2.67,0,4,0h4c.82,0,1.63-.05,2.45-.1l1.65-.09c.54,0,1.09,0,1.64,0,.87,0,1.74,0,2.6.07l1,.06c.85.05,1.7.11,2.55.11.2,0,.41,0,.61,0,.8,0,1.58-.08,2.37-.14s1.66-.13,2.48-.16,1.52,0,2.28,0h3c1,0,2.11,0,3.16-.08.57,0,1.13-.06,1.82-.11l2.16-.14c.73,0,1.45,0,2.18,0s1.59,0,2.39,0c1.24,0,2.48.05,3.73.05s2.67,0,4,.06,2.87.08,4.3.08h4.15l2.5,0,1.17,0h.6l1.56,0h2c1,0,1.94.06,2.92.1,1.25,0,2.49.1,3.74.1l1.59,0,.39,0c1.06,0,2.11-.09,3.17-.09l.87,0c.85,0,1.7.08,2.56.13l.36,0,.82.05c1,.07,2,.1,3.1.1,1.46,0,2.92-.05,4.41-.1l.59,0q.81,0,1.62,0,1,0,2.1,0h2c.68,0,1.35,0,2-.05,3.15-.13,5.77-.23,8.48-.27h4c.83,0,1.66-.06,2.49-.11l.26,0,1.53-.09c1-.05,2-.07,3-.07H188c.87,0,1.73.08,2.59.14l.35,0c.45,0,.91.06,1.37.07q1.13.06,2.25.06c.82,0,1.65,0,2.47,0h.65c.66,0,1.31,0,2,0H200l1.9,0c.95,0,1.91,0,2.87-.06l1.54,0c.79,0,1.56,0,2.34,0l.85,0c1.28,0,2.56,0,3.83,0,1.53,0,3,0,4.57,0l.36,0c1.23,0,2.47.09,3.71.09h.16c.94,0,1.88,0,2.85-.07l.93,0,1.51,0,.47,0c.64,0,1.29,0,1.94-.08.39,0,.79,0,1.19,0,.57,0,1.14,0,1.71,0l1,0h2.52l1.62,0c.63,0,1.27,0,1.9-.06h.27c.57,0,1.14-.05,1.71-.05h.33c2,0,4,.07,5.94.07l2.47,0h.65c1,0,2,0,2.93.09.37,0,.73,0,1.1,0l1.71,0c.49,0,1,0,1.48,0h.62c1.41,0,2.83,0,4.24.07l.55,0c1.21,0,2.41.06,3.61.07h4.16l3.24.12.8,0c.6,0,1.19,0,1.79.05l.49,0,1.48,0c1.14,0,2.27.09,3.4.09l1.13,0c1,0,1.94-.07,2.91-.13l1.46-.09,1.34,0c.79,0,1.58,0,2.37.05h1.12c.92,0,1.84,0,2.76-.1l1.09-.06c.6,0,1.19,0,1.78,0s1.43,0,2.16.06c3.11.18,5.74.27,8,.27h1l.4,0h0l.46,0,1.58.17a2.88,2.88,0,0,0,2.44-5.17,6.24,6.24,0,0,0-2.71-.64,13,13,0,0,0-1.53-.15c-1.2,0-2.4,0-3.61,0s-2.57-.05-3.86-.1-2.55-.18-3.84-.22c-1.47,0-3,.12-4.44.19s-3,0-4.52,0c-1.35,0-2.68.08-4,.15s-3,.13-4.5.12-2.74-.14-4.12-.17l-4-.12c-1.35-.06-2.7-.12-4.05-.1s-2.73,0-4.09,0c-3-.09-6-.14-9.06,0-1.34,0-2.67-.07-4-.11s-2.72,0-4.08,0c-1.1,0-2.2,0-3.3,0-1.63,0-3.26-.08-4.88,0-2.7.1-5.39.1-8.09.06s-5.32.09-8,.22-5.57-.09-8.35-.1-5.77-.07-8.65-.12c-.74,0-1.48,0-2.22,0s-1.69,0-2.54.06-1.68,0-2.51,0h-1.87c-1.27,0-2.53.06-3.79,0-1.45,0-2.9-.09-4.34-.2-.94-.07-1.89-.1-2.84-.1-1.65,0-3.29.09-4.93.21Z"/><path class="cls-1" d="M14.92,4.4c-1.13,0-2.27.11-3.4.1a37.58,37.58,0,0,0-4.74.2c-.31,0-.61.1-.92.17s-.45.13-.67.2a5.15,5.15,0,0,0-1.57.79,2.93,2.93,0,0,0-1,2.93,3.18,3.18,0,0,0,2.2,2.29,8.22,8.22,0,0,0,2.11.32c.74,0,1.49.06,2.23.09l3.62.1c3,.11,6,.23,9,.26,6.38.08,12.76.21,19.14.48s12.54.83,18.83.8c3.08,0,6.15.09,9.22.26,1.46.07,2.9.1,4.36.18,1.62.08,3.25.08,4.87,0,3,0,6-.44,9-.37s6,.19,9,.14,5.77-.33,8.66-.45c1.94-.09,3.89-.08,5.83-.06h3.27c6.26-.06,12.52,0,18.78,0,3.14,0,6.28-.11,9.42-.17s6.32-.13,9.48-.28,6.09-.3,9.14-.42,5.88-.19,8.82-.28c3.32-.1,6.64-.15,10,0,3,.1,6,.32,8.94.34,1.55,0,3.09-.06,4.64-.06h5.18c3,0,6-.25,9.06-.19,1.45,0,2.91.15,4.36.23s3.14.19,4.71.26c3.12.13,6.22-.12,9.34-.26s6.16-.38,9.23-.48,6.13-.12,9.19-.15c1.46,0,2.92,0,4.38,0,1.7,0,3.39,0,5.09,0,.74,0,1.48,0,2.22,0s1.64-.08,2.46-.11c1.34-.07,2.69-.17,4-.15,2.94.05,5.87.27,8.8.41,1.39.06,2.79,0,4.19,0,1.19,0,2.37-.05,3.56,0,1.65,0,3.29.11,4.94.11a53.66,53.66,0,0,0,5.38-.42,31.79,31.79,0,0,1,3.24-.12c1.21,0,2.41.1,3.62.11s2.24.06,3.37,0,2.48-.08,3.73-.1a31,31,0,0,1,4.19.21c1.14.14,2.29.32,3.45.38a18.43,18.43,0,0,0,4.57-.22,18.42,18.42,0,0,0,4.23-1.63A2.89,2.89,0,1,0,317,4.77c-.66.32-1.32.63-2,.91a13,13,0,0,1-1.62.34,43.69,43.69,0,0,1-6.16-.45,45.22,45.22,0,0,0-7.08-.08c-2,.06-4,0-6-.09-1.18-.05-2.36-.08-3.53,0s-2.59.22-3.88.35-2.55.17-3.84.17-2.8-.09-4.2-.13c-1.21,0-2.41,0-3.61,0-1.38,0-2.75.06-4.13,0-3-.12-5.93-.37-8.89-.39-1.37,0-2.74.11-4.11.19s-3,0-4.54.09c-1.73,0-3.47,0-5.2,0-1.41,0-2.83,0-4.24,0-3.11,0-6.22.07-9.33.17s-6.16.35-9.25.49-6.08.33-9.13.2S210,6.06,207,6s-6.17.18-9.26.2H193c-1.63,0-3.28.07-4.92.06-3,0-6.07-.27-9.11-.38-3.27-.11-6.54,0-9.81.09-3,.09-5.9.17-8.85.28s-6.07.29-9.1.43c-1.56.07-3.12.15-4.69.18s-3.12,0-4.68.08q-4.32.12-8.64.13a2.58,2.58,0,0,0-1.69-.63c-3,.26-6.09.35-9.13.36s-6.16-.06-9.24-.34c-1.59-.14-3.18-.24-4.77-.35s-3.3-.28-5-.4-3.21-.1-4.82-.08h-2c-.94,0-1.9,0-2.84,0-3.29.09-6.57.22-9.85.07C80.92,5.6,78,5.47,75,5.5s-6.09-.09-9.12-.32c-1.39-.11-2.75-.26-4.14-.25-1.55,0-3.1.08-4.66.2a81.76,81.76,0,0,1-9.65.07C46,5.13,44.47,5,43,4.91s-3.07,0-4.61.07-3.17.22-4.75.31A41.5,41.5,0,0,1,29,5.21c-1.51-.09-3-.3-4.49-.46s-3-.27-4.45-.39c-.65,0-1.29-.06-1.94-.06-1.07,0-2.15,0-3.22.1Zm274.25,6.84c-.23,0-.46,0-.69.06.23,0,.46,0,.69-.06Z"/><path class="cls-1" d="M19.54,0c-.88,0-1.76.08-2.64.16-2,.16-4,.2-6,.23A33.05,33.05,0,0,1,6.47.33,3,3,0,0,1,6,.21,3.43,3.43,0,0,0,4.3.11,3.33,3.33,0,0,0,2.81.85a3,3,0,0,0-1,1.44,3.89,3.89,0,0,0-.07,1.63,2.15,2.15,0,0,0,.12.5,6,6,0,0,0,0,1A1.68,1.68,0,0,0,2,5.66a3.2,3.2,0,0,0,.7,1.4L3,7.29A3.31,3.31,0,0,0,3,7.84a4.64,4.64,0,0,0,.23,2.21l-.08-.21A9.52,9.52,0,0,1,3.45,11a6.38,6.38,0,0,0,.13.86c.11.43.28.84.43,1.26a7.5,7.5,0,0,0,.9,1.43l.3.43c.19.29.37.58.56.86a3.07,3.07,0,0,0,1.72,1.45,2.88,2.88,0,0,0,3.61-1.91,2.82,2.82,0,0,0-.19-2.17c-.44-.7-.91-1.38-1.38-2.06a5.54,5.54,0,0,1-.3-.53,3,3,0,0,1-.1-.52,1.23,1.23,0,0,0,0,.2,10.2,10.2,0,0,0-.37-1.81A2.62,2.62,0,0,0,8.85,8a4,4,0,0,0-.18-1.23v0a.37.37,0,0,1,0-.11c0-.13,0-.26,0-.39l1.24,0c2.51,0,5-.08,7.53-.3a49,49,0,0,1,5.14,0c1.11,0,2.22,0,3.34,0,1.36,0,2.74,0,4.11.08s2.91.12,4.37.07a31.41,31.41,0,0,1,3.88.08c1.24.11,2.48.19,3.73.26,1.47.07,2.93.1,4.39.28a26.1,26.1,0,0,0,4.24.12c2.73-.09,5.45-.24,8.18-.34a86.88,86.88,0,0,1,8.69-.13c1.34.09,2.69.08,4,.11s2.77,0,4.16,0c2.75,0,5.48-.12,8.23-.27S89.17,6,91.8,6s5.37-.12,8.06-.11c1.4,0,2.78.13,4.17.19s3,0,4.53-.08,2.82,0,4.24,0h2c1,0,2,0,2.94,0,1.2,0,2.4.11,3.61.12h4.1c1.39,0,2.78-.07,4.17,0s2.63,0,3.94.07c1.52.07,3,.13,4.54.1l3.77,0c1.39,0,2.78,0,4.18,0s2.69,0,4.05,0,2.57,0,3.85.05,2.41,0,3.6-.06c2.44-.06,4.88.11,7.32.14,2.75,0,5.52,0,8.28,0,1.13,0,2.28,0,3.42.08,1.49,0,3,.1,4.45,0,1.29,0,2.58-.17,3.86-.3,2.56-.19,5.13-.12,7.71-.16,1.37,0,2.74-.11,4.11-.17s2.69-.06,4-.07c2.71,0,5.41.19,8.12.31,1.35.07,2.7.07,4.06.09s2.8.07,4.2.12,2.85.06,4.28.06c.62,0,1.25,0,1.87,0,.86,0,1.72,0,2.58,0,1.41.05,2.82.16,4.23.22,1.14,0,2.28,0,3.42.07,1.46.11,2.93.13,4.39.12s2.64-.17,4-.17c2.46,0,4.92,0,7.38-.06,1.59,0,3.19-.11,4.78-.09s3.13,0,4.69-.08a50.64,50.64,0,0,1,5.08-.05c.94,0,1.87,0,2.8,0,1.38,0,2.75.07,4.13.07s2.66-.07,4,0,2.66.17,4,.23A32.24,32.24,0,0,0,283,6.44h.07l-.69.06c1.88-.15,3.73.14,5.61.16,1,0,2-.1,3,0s2.26.13,3.39.23c2,.17,4.07.38,6.11.46l3.13.1a19.93,19.93,0,0,1,2.66.33h0l.2,0,.54.09-.43-.08c.94.15,1.88.26,2.81.4a7.72,7.72,0,0,0,1.44.23A2.88,2.88,0,1,0,311,2.64l-.24,0c-.9-.15-1.8-.26-2.71-.39-1.16-.2-2.32-.4-3.5-.53s-2.26-.09-3.39-.14c-2.27-.11-4.54-.31-6.8-.5-1.14-.1-2.28-.2-3.42-.22-.53,0-1.07,0-1.6,0s-1.07,0-1.6,0c-1.12,0-2.22-.17-3.34-.18a24,24,0,0,0-2.54.12A31.07,31.07,0,0,1,278,.8c-1.31-.08-2.62-.21-3.92-.18s-2.73,0-4.09,0-2.92-.09-4.39-.07-2.69-.08-4-.1-2.58.12-3.86.19c-.94,0-1.87,0-2.81,0H253c-1.52,0-3,.08-4.57.11-1.12,0-2.24,0-3.36,0-1.33,0-2.65,0-4,0S238.39,1,237,1s-2.78-.11-4.17-.18-2.5,0-3.75-.07c-1.41-.07-2.81-.21-4.22-.19s-2.82.1-4.24.08-2.86-.05-4.29-.1c-2.75-.1-5.5-.09-8.24-.21-1.4-.06-2.81-.18-4.21-.22s-2.62,0-3.93,0c-2.74,0-5.47.2-8.21.24-1.37,0-2.73,0-4.1,0-1.56,0-3.09.16-4.65.31-1.3.08-2.59.13-3.89.1s-2.86-.09-4.29-.11c-1.2,0-2.41,0-3.6,0-.78,0-1.55,0-2.33,0h-1.7c-2.61,0-5.22-.1-7.83-.14-1.25,0-2.5,0-3.74,0s-2.36,0-3.54,0c-.64,0-1.28,0-1.92,0s-1.34,0-2,0c-1.46,0-2.92-.05-4.38-.06h-3.93c-1.38,0-2.77.1-4.15,0-3-.19-6-.15-9-.13-2.39,0-4.77,0-7.16,0-1.49,0-3,0-4.47,0s-2.9,0-4.35-.05-3,.06-4.54.11c-1.36,0-2.72-.07-4.07-.14-2.64-.13-5.29-.07-7.93,0-1.4,0-2.8,0-4.21,0s-2.64,0-4,0c-2.71.06-5.43.31-8.15.34s-5.4,0-8.1,0c-1.53,0-3.06-.12-4.59-.11s-3,.08-4.53.13c-2.71.09-5.4.2-8.1.32-1.35.07-2.7.15-4,.12S45.61.68,44.18.64s-2.7-.07-4-.19S37.52.2,36.2.21s-2.79.1-4.18,0S29.15.13,27.71.09H26c-.66,0-1.32,0-2,0C22.82,0,21.6,0,20.37,0ZM308.3,2.27l.38.06-.38-.06ZM8.61,6.54v0h0v0Z"/><path class="cls-1" d="M14.77,13.16c-.12.93-.2,1.87-.34,2.8-.2,1.28-.39,2.56-.52,3.86-.26,2.6-.15,5.21-.29,7.82-.07.79-.15,1.58-.19,2.37s-.06,1.84-.12,2.75l.06-.73c-.12,1.64-.19,3.27-.27,4.9s-.32,3.14-.44,4.71c-.14,1.79-.18,3.59-.22,5.39s-.07,3.67-.12,5.51c-.05,1.66,0,3.31-.07,5-.12,1.21-.29,2.42-.42,3.63a41.3,41.3,0,0,0-.22,4.58c0,1.25.1,2.49.1,3.74s-.05,2.7-.05,4.05c0,2.8,0,5.61,0,8.42,0,2.64,0,5.29,0,7.93,0,1.48.08,3,.19,4.44s.21,2.72.24,4.07-.08,2.91,0,4.37c0,.8.07,1.6.07,2.4,0,.52,0,1-.07,1.55-.21,2.52-.46,5-.59,7.56-.11,2.2,0,4.38,0,6.57.09,3.94.19,7.9,0,11.83-.09,1.22-.17,2.44-.17,3.67s.08,2.55.13,3.82c.1,2.39.11,4.78,0,7.17-.07,1.45-.13,2.91-.16,4.36s-.09,2.61-.09,3.92c0,2.5.22,5,.3,7.5s0,4.95-.13,7.43-.15,5.22-.22,7.84-.14,5.27,0,7.89c.05,1.31.08,2.62.09,3.94s-.1,2.57-.09,3.85c0,.73,0,1.46,0,2.19s0,1.19.05,1.79c0,1.3,0,2.61.07,3.91s0,2.51-.11,3.76-.13,2.71-.16,4.06-.11,2.86-.1,4.29c0,1.2.15,2.4.19,3.6.07,2.66,0,5.3.06,8,0,1.87.06,3.75,0,5.62-.21,2.65-.25,5.32-.21,8,0,1.14,0,2.28,0,3.42S11,245,11,246.16c.05,2.56.13,5.13.2,7.69,0,1.38,0,2.76.11,4.15s.15,2.47.19,3.71.16,2.5.22,3.75.09,2.67.15,4c.14,2.62.43,5.23.63,7.85.18,2.37.37,4.72.44,7.09.09,2.77-.1,5.53-.23,8.29-.08,1.83-.16,3.66-.27,5.49s0,3.5,0,5.24c-.05.67-.12,1.34-.18,2a3.08,3.08,0,0,0,.4,2.14,2.88,2.88,0,0,0,4,.87,2.84,2.84,0,0,0,1.27-1.86c.16-1.65.34-3.3.34-4.95,0-.82,0-1.64,0-2.45h0c0-.54,0-1.08,0-1.61.16-2.67.32-5.54.41-8.45l0-1.11v-.25c0-.81.06-1.62,0-2.44,0-1.26-.08-2.53-.14-3.78-.07-1.71-.22-3.43-.38-5.11l0-.38L18,274.3c-.26-3.14-.42-5.65-.51-7.91,0-1.31-.12-2.62-.2-3.92,0-.57-.06-1.13-.08-1.7v-.38c0-.5-.05-1-.09-1.5-.11-1.69-.15-3.41-.2-5.17,0-1-.05-2-.09-3s-.05-2.15-.06-3.22v-.55c0-.84,0-1.67-.09-2.51l-.06-1.16c0-1,0-1.93,0-2.9V240c0-.63,0-1.27,0-1.9,0-1.94,0-3.87.1-5.73.09-1.2.19-2.63.19-4s0-2.66-.06-4c0-1,0-2,0-3,0-1.57,0-3.21-.07-4.83-.07-1.16-.15-2.48-.15-3.81,0-.84,0-1.67.07-2.51,0-.59,0-1.2.05-1.79,0-1.28.11-2.56.19-3.85.07-1.08.08-2.25,0-3.8v-.86l0-.86c0-.74,0-1.47,0-2.21-.05-1.42-.05-2.85,0-4.23.13-2.62,0-5.3-.07-7.6,0-1.14,0-2.32,0-3.43V181c0-.59,0-1.18,0-1.77v-.59l0-1.57c0-2.62.14-5.24.24-7.85.13-3,.14-5.28.05-7.4,0-.7-.06-1.4-.1-2.11-.08-1.64-.18-3.51-.15-5.33s.1-3.66.17-5.49l0-1c0-.63.05-1.27.07-1.91.06-2.17,0-4.5-.09-7.13-.07-1.67-.12-3.3,0-4.94.15-1.8.22-3.65.23-5.52l0-1.36c0-1.28,0-2.6,0-3.92-.12-3-.23-7,0-11l.12-1.25.06-.66a48.83,48.83,0,0,0,.36-6.5c0-1.34-.06-2.59,0-3.91s0-2.47-.08-3.88l-.12-1.71-.05-.71c0-.47-.07-.94-.1-1.42-.05-.88-.07-1.76-.08-2.64v-.35c0-.35,0-.7,0-1,0-.79,0-1.59,0-2.39V82.51q0-1.22,0-2.43c0-1,0-2,0-3v-.74c0-1.83,0-3.66,0-5.49,0-1.19,0-2.39,0-3.58,0-1.44-.06-3.06,0-4.61.05-.67.13-1.33.21-2l0-.39c.12-1,.24-2,.3-3a17.87,17.87,0,0,0,0-1.79V54.7c0-.65,0-1.29,0-1.94v-.54c0-.9.05-1.79.07-2.68l0-.88c0-2.21.09-4.36.2-6.47.07-.82.15-1.65.24-2.48l.16-1.66c.09-.93.13-1.87.17-2.81V35c0-.6,0-1.21.11-1.82,0-.09,0-.19,0-.28h0a1.79,1.79,0,0,0,0,.23c0-.07,0-.15,0-.22l0,.22c.05-.69.07-1.39.1-2.09l0-1,0-.27c.11-1.31.21-2.5.23-3.69V24.86c0-1.11,0-2.24.08-3.36s.26-2.35.49-3.89L20.1,17h0c.12-.89.22-1.77.33-2.66a3,3,0,0,0-.4-2.14,2.9,2.9,0,0,0-1.85-1.26,2.39,2.39,0,0,0-.53-.06,2.88,2.88,0,0,0-2.88,2.31ZM12,107c0,.09,0,.18,0,.27,0-.09,0-.18,0-.27Z"/><path class="cls-1" d="M221,74.19l-.49.16a5.8,5.8,0,0,1-.59.19l-.43.09c-.24,0-.47.08-.7.14a10.93,10.93,0,0,0-2.87,1.53,8.07,8.07,0,0,0-1.31,1.17l-.06.07h0l-.07.08-.18.12L214,78c-.23.15-.46.31-.68.48l-.21.17a5.22,5.22,0,0,0-.76.65,8.14,8.14,0,0,0-.66.86l-.37.47a10.19,10.19,0,0,0-.74,1,10.38,10.38,0,0,0-.81,1.54,5.26,5.26,0,0,0-.41,1.19c-.08.49-.12,1-.16,1.48a14.08,14.08,0,0,0,0,1.59,19.81,19.81,0,0,0,.46,4.27l.41,1.47.09.35a11.47,11.47,0,0,0,.6,1.52,17.3,17.3,0,0,0,2.08,3.91,14.61,14.61,0,0,0,1.87,2,10.13,10.13,0,0,0,3.27,1.9,9.62,9.62,0,0,0,2.21.4l.77.1a22.35,22.35,0,0,0,2.82.23c.25,0,.5,0,.74,0a14.23,14.23,0,0,0,7.46-2.49A10,10,0,0,0,234,99.15a22.47,22.47,0,0,0,1.73-2.69c.68-1.26,1.27-2.36,1.79-3.48l.2-.47-.11.23.12-.3.13-.35a4.48,4.48,0,0,0,.27-.88c.06-.27.1-.54.14-.82l0-.34a9.3,9.3,0,0,0,0-2.94,17.06,17.06,0,0,0-.5-2.64,14.23,14.23,0,0,0-1.43-3.07,14.56,14.56,0,0,0-1.71-2.25l-.37-.42a9.79,9.79,0,0,0-1.2-1.21,14.18,14.18,0,0,0-1.48-1l-.16-.09c-.27-.17-.53-.34-.79-.53a8.6,8.6,0,0,0-2.7-1l-.31-.09c-1.08-.27-1.95-.46-2.73-.59a12.32,12.32,0,0,0-2.12-.21,7.22,7.22,0,0,0-1.85.22ZM231.82,91.6c.29-.66.55-1.32.8-2a4.82,4.82,0,0,1-.18.75c-.23.5-.47,1-.73,1.5,0-.09.08-.17.11-.25Zm.81-1.7c0,.08-.07.17-.1.26,0-.09.07-.18.1-.26Zm-2.8,5.3-.09.13a2.85,2.85,0,0,1-.23.26l.32-.39Zm-.39.54-.18.14.18-.14Z"/><path class="cls-1" d="M224.4,114.48l-.25,0-.21,0c-.91.11-1.8.15-2.89.2-.76,0-1.53,0-2.29.13-.93.09-1.7.13-2.42.13h-.65c-.74,0-1.48,0-2.22,0h-.89a2.81,2.81,0,0,0-2.32,1.3,3,3,0,0,0-.32.3,1.84,1.84,0,0,0-.36.53c0,.68-.05,1.36-.09,2,0,.83-.1,1.65-.17,2.5v.19c0,.12,0,.24,0,.36a7,7,0,0,1,0,1.12c0,.41,0,.82,0,1.24s0,.9,0,1.28v.28a9.38,9.38,0,0,0,.12,1.3l0,.36a9.75,9.75,0,0,1,0,1.71,8.18,8.18,0,0,0,.07.93,10.64,10.64,0,0,1,0,1.36,16.89,16.89,0,0,0,.08,2,16,16,0,0,1,.05,2.06v.71c0,.6,0,1.18,0,1.9a10.59,10.59,0,0,1,0,1.26v.15l0-.22v.46c0,.16,0,.32,0,.4l0,.69a12.11,12.11,0,0,1-.17,1.58c-.06.45-.12.9-.17,1.36,0,.3,0,.61,0,.91s0,.61,0,.91l0,.58c0,.43,0,.86,0,1.29,0,.71,0,1.42,0,2.14s0,1.43,0,2.14c0,1.52.06,2.89.18,4.3a32.46,32.46,0,0,1,.06,4c0,.74,0,1.48,0,2.22,0,.49,0,1,0,1.48,0,1.1,0,2.21-.11,3.28v.15l0,.78c0,1.55,0,3.14.09,4.54l0,.43c0,.88.06,1.76.07,2.68,0,1.55,0,3.11.08,4.65,0,.42.05.85.09,1.27l0,.16c0,.36.07.72.09,1.08s0,1,0,1.52v.57c0,.81.08,1.62.15,2.5s.16,2.07.15,3.11c0,2.18,0,4.35.22,6.46.07,1,.12,1.94.14,2.91,0,.44,0,.88,0,1.33s0,1,0,1.5,0,.79.06,1.18a17.79,17.79,0,0,1,.07,1.93c0,.94-.07,1.86-.14,2.82l-.05.86c0,1,0,1.9,0,2.85,0,.31,0,.61,0,.92V214c0,.57,0,1.14,0,1.72,0,.36,0,.72.06,1.09a17.67,17.67,0,0,1,.08,1.78c0,1.07-.1,2.13-.17,3.23l-.05.73c0,1,0,1.94.06,2.93l.8-.08.16,0,.8-.09c.45,0,.89,0,1.34,0h1.71a25.87,25.87,0,0,1,2.6.1c.66.07,1.32.1,2,.12.94,0,1.88-.08,2.81-.13l.35,0h.16c1-.07,2.07-.14,3.12-.14h.15l-.19,0h.79l1.31,0h1.41l-.13,0c.59,0,1.17,0,1.76,0s1.36-.06,2-.11,1.2-.07,1.81-.07h.28a2.23,2.23,0,0,0,.38-.92,28.8,28.8,0,0,0,.49-4.75v-.38l0-.39,0-.38c0-.84.09-1.67.07-2.5,0-.48,0-1,0-1.52,0-.86-.07-1.73-.05-2.6,0-.47,0-.95.06-1.43v-.31c0-.79.06-1.59,0-2.41,0-.44,0-.89-.05-1.34,0-.82-.08-1.64-.08-2.46v-.91c0-1,0-2,0-3,0-1.27,0-2.53,0-3.79,0-1.46,0-3-.06-4.47q-.14-2.93-.22-5.85l-.08-2.43,0-.73v-.23c0-.95-.08-2-.06-3,0-.77.05-1.54.1-2.31l0-.59c0-.42,0-.83,0-1.25,0-1.32,0-2.64,0-4s0-2.39,0-3.64.07-2.65,0-4v-1c0-1,0-2.07,0-3.11,0-.46,0-.92.05-1.41v-.2c0-.72.06-1.45.07-2.17,0-.94,0-1.87,0-2.82v-1.41c0-2.58,0-5.11-.08-7.67,0-1.31,0-2.68.06-4.16v-.3c.05-1,.11-2.22.05-3.39a31.36,31.36,0,0,1,.1-3.39l.06-.71c.07-1.13.07-2.3.07-3.42v-.23c0-.55,0-1.1.08-1.65v-.2l0-.2c0-.63.09-1.25.1-1.88a5.09,5.09,0,0,0,0-.56v-.32l0-.15v-.47c0-.24,0-.47,0-.72s0-.62-.05-.93l0-.31,0-.33,0-.3v-.39c0-.17,0-.35,0-.52a6.57,6.57,0,0,0-.12-.89,2.32,2.32,0,0,0,.05-.6,2.86,2.86,0,0,0-2.88-2.79,3.55,3.55,0,0,0-.93.15,5.09,5.09,0,0,0-1-.19h-.17l-.18,0a21.44,21.44,0,0,0-3.07-.22c-.53,0-.95,0-1.37-.07l-.62-.05h-.34a11.13,11.13,0,0,0-1.71.17Z"/><path class="cls-1" d="M120,78.22l-.23,0-.21,0q-.65,0-1.29.12a10.57,10.57,0,0,0-1.67.44,4.75,4.75,0,0,0-1.28.62,2.4,2.4,0,0,0-1.07.64,3.16,3.16,0,0,0-.9,1.63c0,.24-.1.51-.14.78a2.33,2.33,0,0,0,0,.74l0,.33c0,.08,0,.15,0,.23a1.89,1.89,0,0,0,.07.39s0,0,0,0v-.07s0,0,0,.07l0-.07a11.06,11.06,0,0,0,.17,1.38,3.58,3.58,0,0,0,.41,1.15l.13.28,0,.2,0,.38,0,.37a2,2,0,0,0,.09.44c0,.29,0,.49,0,.81l0,.16v.08h0v0l0-.07,0,.28,0,.22a8.8,8.8,0,0,1-.13,1.43c-.09.4-.2.82-.31,1.23s-.23.91-.34,1.36a1.5,1.5,0,0,1-.2.4.05.05,0,0,1,0,0l0,0,.06-.09,0,.07.05-.06c-.21.41-.39.83-.57,1.26s-.31.75-.54,1.25h0v0l0,0a19.86,19.86,0,0,0-.8,1.83c-.2.51-.37,1-.54,1.56l-.18.56-.14.42a26.71,26.71,0,0,0-1.06,3.69,17.3,17.3,0,0,1-.73,2.47,17.35,17.35,0,0,0-.47,1.75l-.14.58c-.32,1.25-.67,2.5-1,3.75l-.29,1c-.13.48-.24,1-.34,1.44s-.2.85-.31,1.28l-.48,1.75-.18.63-.26.93c-.32,1.15-.69,2.29-1.09,3.51s-.82,2.57-1.19,3.91l-.52,2.06,0,.21,0,.14c-.44,1.72-.88,3.48-1.43,5.2-.08.28-.17.57-.27.86l-.13.38-.17.5c-.23.66-.45,1.34-.66,2-.11.4-.24.79-.37,1.18l-.07.24c-.24.76-.48,1.52-.68,2.29l-.35,1.32-.14.52c-.15.55-.29,1.11-.43,1.67-.24,1-.55,2.05-1,3.36-.19.59-.38,1.18-.56,1.77l-.12.39c-.16.54-.33,1.07-.51,1.6s-.33,1-.5,1.45l-.1.28-.06.2c-.19.56-.39,1.11-.56,1.68-.77,2.5-1.54,5-2.26,7.52l-.14.49c-.33,1.12-.66,2.24-1.05,3.35-.15.45-.31.89-.5,1.42l-.06.18c-.27.76-.54,1.51-.78,2.29-.3,1-.51,2.05-.74,3.14l0,.19c-.14.68-.32,1.34-.5,2l-.08.3-.05.2c-.11.4-.21.8-.31,1.2a29.3,29.3,0,0,1-1,3l-.19.54-.14.4-.14.41c-.25.73-.5,1.46-.78,2.17s-.74,2-1.09,3.14c-.15.5-.26,1-.37,1.53l-.06.25c-.12.5-.23,1-.37,1.51l-.31,1.08c-.21.73-.41,1.44-.61,2.17s-.42,1.36-.68,2.11l-.07.21c-.12.34-.24.67-.35,1s-.26.89-.4,1.35l-.07.27c-.23.77-.46,1.56-.77,2.32a19.42,19.42,0,0,0-1,4l-.06.36a39.58,39.58,0,0,1-1.18,4.32c-.32,1-.65,1.92-1,2.87l-.15.42c-.24.68-.49,1.37-.8,2.07a19.88,19.88,0,0,0-.93,2.43l-.15.54q-.22.72-.42,1.44a4.2,4.2,0,0,0,.25,2.82c0,.11.11.23.16.32l1.41,0c.94,0,1.88.06,2.82.08H80l1,0c.4,0,.81,0,1.21,0,.58,0,1.15.12,1.72.19l1.28.05.31,0h.61c1.08,0,2.23.08,3.39.22l.83.11.45.06a30,30,0,0,0,3,.31h2c.62,0,1.23,0,1.86-.05.8,0,1.6-.06,2.4-.06l.42,0a3.2,3.2,0,0,0,.94-2.1l0-.16a7.63,7.63,0,0,1,.39-1.24c.27-.56.52-1.07.74-1.63a12.29,12.29,0,0,0,.44-1.86,19.47,19.47,0,0,1,.81-2.6c.31-.89.61-1.86.91-3L105,212l.13-.53c.14-.57.28-1.14.45-1.69.23-.82.44-1.65.64-2.5,0-.19.08-.39.13-.6l0,.07,0-.27.08-.43.1-.56c.12-.54.25-1,.37-1.41l0-.2a10.34,10.34,0,0,0,.3-1.22c.11-.53.19-1.06.27-1.59l0-.26,0-.26.09-.55.09-.6c.16-.67.37-1.33.57-2l.25-.8a12.71,12.71,0,0,0,.38-2.46c0-.41.08-.82.15-1.25s.19-.82.3-1.23l.09-.34.07-.29c.19-.68.36-1.35.5-2,.07-.34.16-.69.25-1.09l.08-.28.21-.85h.17l.19,0h.6l.81,0h.24c.52,0,1,0,1.54.09.31,0,.63.05,1,.07s.74,0,1.11.08a4.36,4.36,0,0,0,.51,0,8.46,8.46,0,0,0,1.35-.13l.35-.05c.37,0,.74.05,1.26.1l.52.06c.21,0,.42,0,.64,0l.84,0c.35,0,.7,0,1,0h.74a18.77,18.77,0,0,0,2.31-.15h1c.36,0,.71,0,1.06,0,.67,0,1.34-.1,2-.18l.62-.07c.54,0,1,.06,1.65.12l.24,0a4.87,4.87,0,0,0,.66,0c.37,0,.74,0,1.15-.07h.16c.42,0,.71,0,1,0s.82,0,1.23,0l.7,0c.45,0,.9-.06,1.36-.06h.23c.82,0,1.65,0,2.47,0l2.15,0,1,0,1.56,0c.5,0,1,0,1.48.05l.52.06a7.3,7.3,0,0,0,.93.08h.2l.52,0,.38,0c.17.56.3,1.05.42,1.56a17.17,17.17,0,0,0,.78,2.53l.12.36c.14.43.28.85.43,1.27s.21.53.38.92a1.47,1.47,0,0,0,.1.22l-.09-.27.12.35c0,.1.08.2.13.3.19.53.39,1,.6,1.56l.09.25.13.31.25.62.41,1,.08.24c.18.53.32,1,.48,1.42l.07.17.24.6.06.14c.09.22.19.45.27.68l.08.21.07.2c.2.63.44,1.25.67,1.87l.07.2.35.94c.19.57.36,1.15.53,1.73s.37,1.25.57,1.87a31.67,31.67,0,0,1,1,3.63l.21.94,0,.2.07.26c.15.67.31,1.34.5,2,.34,1.12.76,2.24,1.19,3.43l.13.35c.19.57.35,1.14.52,1.72s.32,1.15.52,1.73a3,3,0,0,0,.85,2.26,2.48,2.48,0,0,0,1.81.82c.7,0,1.35,0,2-.06.81,0,1.63-.07,2.44-.07a13.1,13.1,0,0,1,1.35.09h.2l.66.07c.22,0,.45,0,.68,0,.5,0,1,0,1.5-.08l.77,0h.94c.51,0,1,0,1.53-.08h.38c.53,0,1.07,0,1.61.07h.36l.9.06c.21,0,.41,0,.61.06a8.48,8.48,0,0,0,.88.06,10.18,10.18,0,0,0,1.33-.1l.37-.05c.56,0,1.12-.06,1.68-.11h.54a8.19,8.19,0,0,1,1.21.07l.63.11h.29a2.19,2.19,0,0,0,.81-.14h.22a2,2,0,0,0,.56-.06,2.86,2.86,0,0,0,1.85-1.26,2.8,2.8,0,0,0,.39-2.12c-.54-1.64-1-3.35-1.44-4.82l-.26-.89-.51-1.8c-.12-.38-.22-.77-.33-1.15l-.07-.24c-.21-.75-.42-1.49-.68-2.22s-.45-1.18-.73-1.87l-.12-.3-.08-.19-.14-.34c-.12-.3-.25-.6-.36-.91s-.27-.87-.41-1.3c-.2-.63-.39-1.26-.63-2s-.59-1.77-.83-2.67c-.13-.52-.25-1-.38-1.56s-.22-.93-.34-1.39a35.89,35.89,0,0,0-1.54-4.33l-.07-.18c-.29-.71-.59-1.42-.86-2.14s-.51-1.69-.74-2.55l-.06-.23-.08-.29-.27-1c-.39-1.38-.79-2.76-1.22-4.12l0-.16c-.39-1.23-.73-2.34-1-3.46a26,26,0,0,0-1-2.92l-.07-.17c-.13-.33-.25-.66-.37-1-.53-1.6-1-3.32-1.32-4.75-.22-.87-.44-1.73-.67-2.59-.48-1.68-1-3.36-1.54-5l-.05-.15c-.31-1-.62-1.92-.92-2.89-.38-1.21-.7-2.43-1.05-3.74l-.1-.41-.14-.5c-.25-1-.51-1.94-.79-2.9-.34-1.14-.71-2.48-1-3.79-.19-.82-.41-1.62-.65-2.48l-.1-.35-.18-.65c-.18-.61-.33-1.23-.47-1.85l-.2-.82-.3-1.15-.36-1.43c-.44-1.78-1-3.54-1.57-5.23l-.42-1.27c-.21-.65-.43-1.32-.67-2-.15-.43-.33-.84-.54-1.34l-.08-.17-.36-.88c-.14-.43-.27-.86-.4-1.3l0-.17-.08-.24-.32-1-.08-.25c-.35-1-.7-2.06-1.06-3.09-.21-.67-.42-1.34-.6-2s-.54-1.65-.8-2.36l-.1-.26c-.14-.48-.27-1-.4-1.45s-.17-.71-.27-1.06l-.2-.65,0-.14c-.17-.57-.34-1.14-.53-1.71-.28-.81-.51-1.67-.75-2.56l-.07-.28L157,110l-.17-.65c-.25-.9-.53-1.82-.88-2.82-.11-.31-.23-.61-.36-.91l-.24-.58c-.77-2.39-1.59-5-2.48-8.05-.06-.18-.11-.36-.16-.54l-.08-.3c-.1-.36-.2-.73-.31-1.08-.18-.56-.39-1.11-.61-1.65l-.27-.69-.07-.19-.23-.6-.23-.6q-.32-.77-.6-1.53l-.14-.46c-.15-.5-.31-1-.47-1.5l-.24-.76-.11-.33-.13-.39-.12-.38c-.2-.62-.39-1.25-.6-2l-.27-1a4,4,0,0,0-.61-1.24,2.75,2.75,0,0,0-.3-1.44,3.11,3.11,0,0,0-1.68-1.44,6.3,6.3,0,0,0-2.28-.35h-.53a12.61,12.61,0,0,0-1.88.19l-.61.08c-.29,0-.58,0-.87,0l-.52,0-.32,0a11.91,11.91,0,0,1-1.34-.12,11.7,11.7,0,0,0-2-.15c-.91,0-1.83.07-2.53.14l-.45,0-.44,0h-.21a9.26,9.26,0,0,1-1.27-.09,12.8,12.8,0,0,0-2.06-.31q-.52,0-1,0h-1.41c-.23,0-.46,0-.69,0s-.69,0-1,0l-1.42,0h-.21c-.84,0-1.69,0-2.54.11Zm-1.32,81.7c.11-.37.22-.75.35-1.12.07-.2.14-.39.22-.59l.08-.21c0-.12.1-.25.14-.37q.19-.58.33-1.17l.09-.33c.18-.71.39-1.41.61-2.11l.08-.26.1-.34.24-.8c.26-.94.45-1.91.65-3l.2-1a22,22,0,0,1,1-3.05l.17-.45c.22-.63.4-1.26.57-1.9s.35-1.26.57-1.88l.26-.74.06-.16c.31-.89.63-1.8.9-2.73.12-.43.24-.86.35-1.3.2-.73.39-1.44.61-2.15.48-1.54.92-3.07,1.42-5,.24-.87.57-1.79.79-2.4s.53-1.49.74-2.25q.17-.57.3-1.14c.1-.45.22-.9.35-1.34l.13-.47c.15-.56.31-1.1.41-1.67.21-1.1.37-2.2.53-3.31L131,116l.19-1.26c.07-.34.14-.67.22-1l0,0,0,0,.54,2.1c.49,1.82,1,3.64,1.43,5.47.25,1,.5,1.95.76,2.93l.08.3.06.24.07.25c.32,1.22.69,2.4,1.07,3.59l.21.67c.21.67.37,1.37.53,2.07l0,.17c.15.67.31,1.34.5,2s.4,1.44.6,2.16l.11.39.4,1.45c.6,2.08,1.21,4,1.87,5.89l.47,1.43c.26.83.54,1.65.82,2.46l.16.46.16.45c.26.75.51,1.52.75,2.28l.12.38.09.28c.35,1,.69,2.07,1.06,3.1.26.75.52,1.51.8,2.25a34.52,34.52,0,0,0,1.25,3.27l0,.1,0,0h0v0a5.85,5.85,0,0,0-.92.09h-.23a4.15,4.15,0,0,1-.73-.06l-.35-.08a8,8,0,0,0-1.8-.27h-.19c-.46,0-.91.09-1.36.15l-.17,0-.17,0-1.11.15h-.22c-.42,0-.85,0-1.27-.07h-.15c-.28,0-.57,0-.9-.06s-.61,0-.91-.06l-.56,0c-.5-.05-1-.1-1.52-.1a26.9,26.9,0,0,0-2.84.19,7.46,7.46,0,0,1-1-.06l-.42-.09a14.15,14.15,0,0,0-1.84-.32c-.36,0-.72,0-1.09,0h-1.11a18.92,18.92,0,0,0-3.13.27c-.72.13-1.46.25-2.2.34h-.32l-.21,0h0Z"/><path class="cls-2" d="M187.06,15.14h0c-1,0-2,0-3,.08q-.76,0-1.53.09h-.26c-.83,0-1.66.11-2.49.11h-4c-2.7,0-5.33.15-8.48.28-.67,0-1.34,0-2,0h-2l-2.1,0c-.54,0-1.08,0-1.62,0l-.59,0c-1.48,0-2.95.1-4.41.1-1.09,0-2.11,0-3.1-.09l-.82-.05-.36,0c-.86-.05-1.71-.11-2.56-.13h-.87c-1.06,0-2.11,0-3.17.09h-.39c-.53,0-1.06,0-1.59,0-1.25,0-2.49-.05-3.74-.1-1-.05-2-.09-2.92-.11h-2l-1.56,0h-.6l-1.17,0-2.5,0H123c-1.43,0-2.87,0-4.3-.07s-2.68-.06-4-.07-2.49,0-3.73-.05c-.8,0-1.59,0-2.39,0s-1.45,0-2.18,0l-2.16.14-1.82.11c-1,.06-2.11.08-3.16.08h-3l-2.28,0c-.82,0-1.65.09-2.48.16s-1.58.12-2.37.15h-.61c-.85,0-1.7,0-2.55-.11l-1-.06c-.86,0-1.73-.06-2.6-.06-.55,0-1.1,0-1.64,0s-1.1,0-1.65.09c-.82.05-1.63.09-2.45.1h-4c-1.33,0-2.67,0-4,0-1.54,0-3.06.07-4.56.17-1,.07-2,.1-2.88.1-.38,0-.76,0-1.14,0s-.83,0-1.24-.06h-.25c-.67,0-1.35-.07-2-.07-1.05,0-2,0-2.94.07l-1.53.05c-1.34.05-2.68.05-4,.05s-2.59,0-3.88,0l-3.3.12c-1.94.07-3.84.14-5.77.14-2.58,0-5.19.14-7.28.25-.92.05-1.82.05-2.74.05h-2c-1,0-2,.08-3,.12l-.12.64c-.23,1.54-.38,2.78-.49,3.89s-.06,2.24-.07,3.37l0,1.13c0,1.19-.12,2.38-.23,3.69l0,.26,0,1.05c0,.71-.06,1.4-.11,2.09l.09-.45A22.43,22.43,0,0,0,18.92,35v.29c0,.94-.08,1.88-.17,2.81l-.16,1.66c-.08.83-.17,1.66-.24,2.48-.11,2.11-.16,4.26-.2,6.47l0,.88c0,.89,0,1.79-.07,2.68v.54c0,.65,0,1.29,0,1.94v.79c0,.6,0,1.19,0,1.79-.06,1-.18,2-.3,3l0,.39c-.08.67-.15,1.33-.21,2-.08,1.55-.05,3.17,0,4.61,0,1.19.05,2.39,0,3.58,0,1.83,0,3.66,0,5.49v.74c0,1,0,2,0,3q0,1.22,0,2.43v3.22c0,.8,0,1.6,0,2.39,0,.35,0,.7,0,1v.35c0,.88,0,1.76.07,2.64,0,.48.06,1,.1,1.42l.05.71L17.73,96c.09,1.41.12,2.68.08,3.88s0,2.57,0,3.91a50.61,50.61,0,0,1-.35,6.5l-.07.66-.12,1.25c-.22,3.92-.11,7.92,0,11,.06,1.31,0,2.64,0,3.92v1.36c0,1.87-.09,3.72-.24,5.52-.08,1.64,0,3.27,0,4.94.13,2.63.16,5,.09,7.13,0,.64,0,1.28-.07,1.92l0,1q-.12,2.74-.18,5.49c0,1.82.07,3.69.15,5.33,0,.71.08,1.41.11,2.11.09,2.12.07,4.4-.05,7.4-.11,2.61-.21,5.23-.25,7.85v2.16l0,1.77v.52c0,1.11-.08,2.29,0,3.43.09,2.3.19,5,.06,7.6-.06,1.38-.06,2.8,0,4.23,0,.74,0,1.48,0,2.21l0,.86v.86c.05,1.55,0,2.72,0,3.8-.08,1.28-.16,2.56-.18,3.85,0,.59,0,1.2-.06,1.79,0,.84-.06,1.67-.06,2.51,0,1.33.07,2.65.14,3.81.1,1.62.09,3.25.08,4.83q0,1.49,0,3c0,1.38.06,2.71.06,4s-.1,2.83-.19,4c-.1,1.86-.13,3.79-.1,5.73,0,.63,0,1.27,0,1.9v.33c0,1,0,1.93,0,2.89l.05,1.17c.05.83.09,1.66.09,2.5v.55c0,1.07,0,2.15.07,3.22s.06,2,.09,3c0,1.76.08,3.48.19,5.17,0,.5.06,1,.08,1.5l0,.38c0,.57.05,1.14.08,1.7.08,1.3.16,2.61.2,3.92.09,2.26.25,4.77.51,7.91l.15,1.74,0,.38c.14,1.67.3,3.4.37,5.11.07,1.25.13,2.52.14,3.78,0,.81,0,1.63,0,2.44V288l0,1.11c-.09,2.91-.25,5.78-.41,8.45,0,.53,0,1.07,0,1.61h1.5l.9,0c.44,0,.88.05,1.4.05l.44,0c.67-.06,1.33-.12,2-.12h.5l.79.06c.69,0,1.37.08,2.06.08h.31c.73-.06,1.44-.13,2.13-.13a8.68,8.68,0,0,1,1.13.07l1,.13a19.32,19.32,0,0,0,2.31.24h1.77c.33,0,.66,0,1,0h1.36l1.18,0h.75l.79-.07c.85-.06,1.72-.13,2.56-.13.36,0,.73,0,1.09,0,1.09.09,2.25.18,3.38.18H49l.9-.09.15,0c.66-.06,1.36-.13,2.17-.13h1.29l1.61,0c.39,0,.79-.1,1.18-.16l.17,0,.3-.05.37-.07.33-.05a25,25,0,0,1,2.65-.22h.3c.79,0,1.59,0,2.38,0h.52c.57,0,1.14,0,1.7-.05l.7,0,1,0c.34,0,.67,0,1,0l.67.06.34,0,.26,0,.72.05c1,.06,1.89.11,2.84.11h.72l.81-.06.83-.07q.75,0,1.5,0c.83,0,1.66,0,2.49.05h.29c.71,0,1.42,0,2.13,0h.55c1.92,0,3.83-.06,5.75-.11h1.09a37.08,37.08,0,0,1,4.69.27c1.11.13,2.21.27,3.32.39,1,.09,1.8.18,2.68.18h.37c1.34-.07,2.69-.11,4.12-.11,1.21,0,2.43,0,3.65-.07l.45,0c.63-.05,1.25-.09,1.87-.09H110l1,0h2.31c.81,0,1.62,0,2.43-.05H116l.29,0c1.57-.11,3.24-.22,4.8-.22h.51c.65,0,1.31,0,2,.05,1,0,1.91.05,2.86.05h.43c.69,0,1.38,0,2.1,0,1,0,2,0,2.92,0,1.15,0,2.14,0,3.1.1l1.33.1c2.53.17,4.48.3,6.49.34l.83,0c1.21,0,2.44,0,3.62.15l1.32.13.72.07,2.09.22.83.07c1.1.11,2.2.22,3.31.28l1.71.11c.88.07,1.74.13,2.6.17s1.63,0,2.44,0h2.11c1.28,0,2.64,0,4,.14l1.14.1c.88.08,1.77.16,2.66.21.6,0,1.21,0,1.81,0h3.27l1.63,0h1.71c1.17,0,2.44,0,3.68.08l1.77.13c.89.07,1.77.13,2.65.16.45,0,.89,0,1.32,0,.76,0,1.51,0,2.26-.05l1.31-.13h.2l.26,0c.84-.09,1.6-.17,2.37-.21s1.26-.05,1.9-.06,1.26,0,1.89-.05l1.56-.1.67-.05.56,0c.33,0,.65,0,1,0h.31l.17-.06h.29c1.11-.06,2.22-.1,3.33-.1h1.44l1.76,0h1.74c.65,0,1.29,0,1.93,0h1.44l2.54.06,2.46,0,2.46,0h.39l1.65,0,1.66,0h1.6c.8,0,1.6,0,2.41,0,.49,0,1,0,1.46,0,.77,0,1.54,0,2.3,0h.25l1.15,0h.39l1.74,0h.27l.76,0h.75c.62,0,1.24.05,1.86.05h.77c1.25,0,2.5,0,3.75,0h.71c.95,0,1.88,0,2.86-.07l.91-.08c.9-.08,1.8-.16,2.69-.18h.53c.58,0,1.16,0,1.73,0l.71,0c1.09,0,2.17.06,3.25.06h.31c.58,0,1.16,0,1.73,0s1.35,0,2,0h.58c1.28,0,2.43,0,3.6.17,1.44.16,2.61.26,3.66.32,1.43.08,2.9.08,4.31.08,1.14,0,2.28,0,3.41,0l.78,0,.44,0c1.54.05,3.07.09,4.61.09.83,0,1.66,0,2.49,0l1.09-.08c1.14-.09,2.31-.17,3.46-.19h.66a40.83,40.83,0,0,1,4.37.24l.31,0a15.29,15.29,0,0,0,2,.15h2.48l1,0,2.19,0,1.5,0c1.2-.08,2.4-.11,3.78-.11h.32a18.6,18.6,0,0,0,.29-2.43c.09-1.82.07-3.55,0-5.16v-.49c0-.75,0-1.49,0-2.24,0-.56.09-1.1.16-1.67l.07-.58.07-.56,0-.19,0-.24c.07-.58.13-1.15.16-1.72s0-1.32,0-2l-.12-1.67c-.08-1-.15-2-.21-3a25.8,25.8,0,0,1,0-3.05c0-.7.07-1.39.08-2.1v-.63a33.41,33.41,0,0,1,.17-3.87,27.71,27.71,0,0,0,.05-4.37l0-.34v-.25c0-.88-.09-1.73-.17-2.56-.13-1.23-.15-2.48-.16-3.68v-.39c0-.49-.05-1-.07-1.45,0-.71-.08-1.41-.05-2.11q0-.51.06-1c0-.31.05-.61.07-.92,0-1.05,0-2.14-.05-3.11v-.16l0-.77,0-.39,0-.4a46.16,46.16,0,0,1-.07-4.79c0-1.44,0-2.93,0-4.12l0-.42c-.08-3-.11-5.93-.14-8.89,0-.43,0-.86,0-1.29v-2.24l0-.31v-.36c0-1.33-.06-2.69,0-4,0-.91,0-1.81.07-2.71v-.4c0-1.67.09-3.57,0-5.39-.07-1.05-.16-2.11-.26-3.29a68.41,68.41,0,0,1-.34-7.4l.06-1.78c.06-1.79.11-3.58.11-5.38,0-.75,0-1.35,0-2v-1.14c-.06-1.21-.09-2.42-.09-3.64q-.27-4-.48-7.9c-.15-2.81-.29-5.81-.26-8.77,0-.94,0-1.88.06-2.82l0-1.77c0-.78,0-1.55,0-2.33s0-1.44,0-2.16c0-1.19.08-2.37.14-3.59.09-1.68.17-3.46.16-5.19,0-.77,0-1.52,0-2.27v-1.17c0-.17,0-.34,0-.5a3.33,3.33,0,0,1,0-.55c-.19-3.32-.22-6.75-.22-9.37,0-.89,0-1.77,0-2.66V136c0-1.42,0-3,0-4.55,0-.51-.08-1-.11-1.55l-.06-.74-.21-2.74a58.65,58.65,0,0,1-.06-6c0-.64.06-1.29.1-1.94l0-.39,0-.42,0-.27c.05-.87.11-1.7.13-2.53.05-1.93,0-3.83-.09-5.47-.13-2.17-.27-4.62-.2-7s.14-5.16.08-7.77c0-.69-.08-1.38-.09-2.07v-.25a36.82,36.82,0,0,1-.05-4.34l0-.49v-.19c0-.83.09-1.8.07-2.74l-.09-.88-.05-.47,0-.44-.15-1.33a40.4,40.4,0,0,1-.14-4.65c0-.75.07-1.5.12-2.28l0-.26c0-.6.07-1.17.09-1.74,0-1.13,0-2.31,0-3.61l0-.7c-.08-.92-.2-1.83-.31-2.75l-.06-.41a42.45,42.45,0,0,1-.45-5.67c0-.39,0-.78.06-1.18s.06-.84.06-1.26,0-.61,0-.91V53.65c0-1.11,0-2.22.06-3.33s.05-2.11.05-3.18c0-1.61,0-3.27.15-4.89,0-.49.08-1,.13-1.53l0-.21,0-.27c.08-.79.15-1.59.19-2.38s0-1.43,0-2.14,0-1.53,0-2.29c.09-1.44.18-3.06.16-4.64a32.31,32.31,0,0,1,.23-3.8l0-.38.08-.77,0-.2,0-.3c.09-1,.19-1.92.2-2.86,0-1.2,0-2.4,0-3.6,0-.38,0-.74-.05-1.11l-.39,0h-1c-2.3,0-4.93-.09-8-.27-.73,0-1.44-.06-2.16-.06s-1.18,0-1.78,0l-1.09.06c-.92.06-1.84.11-2.76.11h-.63l-.49,0c-.79,0-1.58-.05-2.37-.05-.45,0-.9,0-1.34,0l-1.46.08c-1,.06-1.93.12-2.91.14h-1.13c-1.13,0-2.26,0-3.4-.09l-1.48,0h-.49l-1.78-.05-.81,0-3.24-.12h-4.16c-1.2,0-2.4,0-3.61-.08h-.55c-1.41,0-2.83-.07-4.24-.07h-.62l-1.48,0-1.71,0c-.37,0-.73,0-1.1,0-1-.05-2-.09-2.93-.09h-.65c-.82,0-1.64,0-2.47,0-2,0-4,0-5.94-.07h-.33c-.57,0-1.14,0-1.71.05h-.27c-.64,0-1.27.06-1.9.06l-1.62,0h-2.52l-1,0c-.57,0-1.14,0-1.71,0-.4,0-.8,0-1.19,0-.65,0-1.3.06-1.94.08l-.48,0-1.5,0-.93,0c-1,0-1.91.07-2.85.07H222c-1.24,0-2.48,0-3.71-.09l-.36,0c-1.52,0-3,0-4.57,0-1.27,0-2.55,0-3.83,0l-.85,0c-.78,0-1.55,0-2.34,0-.51,0-1,0-1.54,0-1,.05-1.92.06-2.87.06H197c-.82,0-1.65,0-2.47,0s-1.5,0-2.25,0l-1.38-.09-.34,0c-.86-.06-1.72-.12-2.59-.14Zm36.64,88.44a22,22,0,0,1-2.81-.23l-.78-.09a8.79,8.79,0,0,1-5.48-2.31,15.2,15.2,0,0,1-1.87-2A17.3,17.3,0,0,1,210.68,95a10.75,10.75,0,0,1-.59-1.52l-.1-.35c-.15-.53-.28-1-.4-1.47a19.23,19.23,0,0,1-.47-4.27c0-.54,0-1,0-1.59s.09-1,.17-1.47a5.17,5.17,0,0,1,.41-1.2,10.38,10.38,0,0,1,.81-1.54,10.19,10.19,0,0,1,.74-1l.37-.47a8.14,8.14,0,0,1,.66-.86,5.81,5.81,0,0,1,.76-.65l.21-.17c.22-.17.45-.33.68-.48l.31-.22.18-.12a8.31,8.31,0,0,1,1.46-1.33,10.61,10.61,0,0,1,2.87-1.52c.23-.06.46-.11.7-.15l.43-.1a4.43,4.43,0,0,0,.59-.18c.16,0,.32-.11.49-.15a6.8,6.8,0,0,1,1.85-.23,12.22,12.22,0,0,1,2.12.2c.78.14,1.65.33,2.73.61l.31.08a8.46,8.46,0,0,1,2.7,1c.26.19.53.36.8.53l.15.09a14.18,14.18,0,0,1,1.48,1,10.54,10.54,0,0,1,1.2,1.21l.37.42a14,14,0,0,1,1.71,2.25,14.23,14.23,0,0,1,1.43,3.07,17.28,17.28,0,0,1,.5,2.64,9.3,9.3,0,0,1,0,2.94l0,.34c0,.27-.08.55-.14.82a5,5,0,0,1-.27.88l-.13.35-.12.3.3-.62c-.62,1.44-1.33,2.76-2.18,4.34A22.47,22.47,0,0,1,234,99.15a10.28,10.28,0,0,1-2.13,1.91,14.3,14.3,0,0,1-7.46,2.5l-.74,0ZM113.36,84.21v0a1.5,1.5,0,0,1-.08-.39c0-.08,0-.16,0-.23l0-.33a2.33,2.33,0,0,1,0-.74c0-.27.09-.54.14-.78a3.23,3.23,0,0,1,.9-1.64,2.48,2.48,0,0,1,1.07-.63,4.44,4.44,0,0,1,1.28-.61,9.64,9.64,0,0,1,1.67-.45c.43-.07.86-.1,1.29-.13l.22,0H120c.84-.06,1.69-.11,2.53-.11h.21c.47,0,.94,0,1.42,0s.7,0,1,0h2.11l1,0a14,14,0,0,1,2.06.32,9.26,9.26,0,0,0,1.27.09h.21l.45,0,.44,0c.7-.07,1.62-.14,2.53-.14a12.7,12.7,0,0,1,2,.14,12.1,12.1,0,0,0,1.35.13h.32l.52,0q.43,0,.87.06l.61-.09a14,14,0,0,1,1.89-.18h.23l.3,0a6.08,6.08,0,0,1,2.27.35,3.11,3.11,0,0,1,1.68,1.44,2.76,2.76,0,0,1,.31,1.44,4,4,0,0,1,.6,1.24l.27,1c.21.74.4,1.37.6,2l.12.38.13.38.1.34.25.76c.16.49.32,1,.47,1.5l.14.45c.19.52.39,1,.59,1.54l.24.6.23.6.07.19.27.69c.21.54.43,1.09.61,1.65.11.35.21.72.31,1.08l.08.3c.05.18.1.35.16.53.89,3,1.71,5.67,2.48,8.06l.24.58c.12.3.25.6.36.91.35,1,.63,1.92.88,2.82l.17.65.17.64.07.28c.24.9.47,1.76.75,2.57.19.57.36,1.13.53,1.71l0,.14.19.65c.11.35.2.7.29,1.06s.24,1,.39,1.45l.1.26c.26.7.57,1.54.8,2.36s.39,1.35.6,2c.36,1,.71,2.07,1.06,3.09l.08.25.32,1,.08.23,0,.17c.13.44.26.88.4,1.31l.36.88.08.17c.21.5.39.91.54,1.34.23.66.45,1.32.67,2l.42,1.27c.6,1.69,1.13,3.45,1.57,5.23l.36,1.43.3,1.15.2.81c.14.62.29,1.24.46,1.86l.19.65.1.34c.24.87.46,1.67.65,2.48.29,1.32.68,2.66,1,3.79.28,1,.54,1.94.79,2.91l.14.5.1.41c.35,1.31.68,2.53,1.05,3.74.3,1,.61,1.93.92,2.89l.05.15c.53,1.67,1.07,3.35,1.54,5,.23.86.45,1.72.67,2.59.36,1.43.79,3.15,1.32,4.74.11.34.24.67.37,1l.07.17a24.15,24.15,0,0,1,1,2.92c.28,1.12.62,2.23,1,3.46l0,.16c.43,1.36.83,2.74,1.22,4.11l.27,1,.08.29.06.23c.23.86.46,1.71.74,2.54s.57,1.44.86,2.15l.07.18a36.35,36.35,0,0,1,1.54,4.32c.12.46.23.93.34,1.4s.25,1,.38,1.56c.24.9.53,1.79.83,2.67s.44,1.37.63,2c.13.43.27.87.41,1.3s.24.61.37.91l.13.34.08.18.12.31c.28.69.52,1.27.73,1.87s.47,1.47.68,2.22l.07.24c.1.38.21.77.32,1.15l.52,1.79.26.9c.41,1.47.9,3.18,1.44,4.82a2.81,2.81,0,0,1-.39,2.12,2.88,2.88,0,0,1-1.85,1.26,2.45,2.45,0,0,1-.56.07h0a.82.82,0,0,1-.22,0,2.16,2.16,0,0,1-.81.15l-.29,0-.63-.11a8.19,8.19,0,0,0-1.21-.07h-.54l-1.67.12-.38,0a10,10,0,0,1-1.33.1,8.48,8.48,0,0,1-.88-.06l-.61-.06-.9-.06h-.36c-.54,0-1.08-.07-1.61-.07h-.38c-.51,0-1,.08-1.53.08h-.27l-.66,0-.78,0c-.51.05-1,.09-1.5.09-.23,0-.45,0-.68,0l-.65-.06-.21,0a13.1,13.1,0,0,0-1.34-.09c-.82,0-1.64,0-2.45.07-.66,0-1.31,0-2,.06a2.5,2.5,0,0,1-1.81-.82,3,3,0,0,1-.85-2.26c-.2-.58-.36-1.15-.52-1.73s-.33-1.15-.51-1.72l-.13-.35c-.44-1.19-.85-2.31-1.2-3.43-.19-.66-.35-1.33-.5-2l-.06-.25,0-.19-.21-.95a34.06,34.06,0,0,0-1-3.63c-.21-.62-.4-1.24-.58-1.87s-.34-1.16-.53-1.73l-.35-.94-.07-.2c-.23-.62-.46-1.24-.67-1.87l-.07-.2-.07-.21c-.09-.23-.18-.46-.28-.68l0-.14-.25-.6-.07-.17-.48-1.43-.08-.23-.41-1-.25-.62-.12-.31-.1-.25q-.32-.77-.6-1.56c-.09-.2-.18-.4-.26-.6-.17-.39-.27-.65-.37-.92s-.3-.84-.44-1.27l-.12-.36a18.43,18.43,0,0,1-.79-2.53c-.11-.5-.24-1-.4-1.55l-.4,0-.51,0H149a7.45,7.45,0,0,1-.94-.08c-.17,0-.34-.05-.52-.06-.48,0-1-.05-1.48-.05l-1.56,0-1,0c-.72,0-1.43,0-2.15,0s-1.65,0-2.47,0h-.23c-.45,0-.91,0-1.36,0l-.7,0-1.23,0-1,0-.16,0c-.41,0-.78.06-1.15.06a4.87,4.87,0,0,1-.66,0l-.23,0a13,13,0,0,0-1.66-.13l-.62.07c-.67.08-1.33.16-2,.19h-2.11a18.77,18.77,0,0,1-2.31.15h-.74c-.34,0-.69,0-1,0l-.85,0c-.21,0-.43,0-.64,0l-.52,0c-.51-.06-.89-.1-1.26-.11l-.35.05a8.46,8.46,0,0,1-1.35.13l-.51,0c-.37,0-.74-.06-1.1-.08s-.65,0-1-.07c-.52,0-1-.09-1.54-.09h-.24c-.27,0-.54,0-.81,0h-.6l-.19,0h-.17l-.21.84-.07.28c-.1.4-.19.75-.26,1.09-.14.69-.32,1.36-.5,2l-.08.3-.08.33c-.1.41-.21.82-.3,1.23s-.11.83-.15,1.25a12.71,12.71,0,0,1-.38,2.46l-.25.8c-.21.65-.41,1.31-.57,2l-.09.58-.08.56,0,.26,0,.26c-.08.53-.16,1.06-.26,1.59s-.2.82-.31,1.22l0,.2c-.12.43-.25.87-.37,1.42l-.1.55-.07.42,0,.28.08-.14c-.27,1.1-.52,2.13-.82,3.17-.16.55-.3,1.12-.44,1.69L105,212l-.21.82c-.3,1.12-.6,2.09-.91,3a19.47,19.47,0,0,0-.81,2.6,12.29,12.29,0,0,1-.44,1.86c-.22.56-.47,1.07-.74,1.63a7.63,7.63,0,0,0-.39,1.24l0,.16a3.3,3.3,0,0,1-.94,2.1h-.43c-.8,0-1.6,0-2.4,0-.63,0-1.24.05-1.86.05h-2a30,30,0,0,1-3-.31l-.45-.06-.83-.11c-1.16-.14-2.31-.18-3.38-.21l-.62,0H85.2l-1.27-.05c-.57-.07-1.15-.15-1.72-.19-.41,0-.82,0-1.22,0H79.66c-.94,0-1.88,0-2.82-.08l-1.41,0c-.05-.09-.11-.21-.16-.32a4.14,4.14,0,0,1-.24-2.82c.13-.48.27-1,.41-1.44l.16-.55a17.45,17.45,0,0,1,.93-2.42c.3-.7.55-1.39.79-2.07l.16-.42c.34-1,.68-1.9,1-2.87a39.58,39.58,0,0,0,1.18-4.32l.06-.36a19.42,19.42,0,0,1,1-4,23.53,23.53,0,0,0,.77-2.33l.08-.26c.13-.46.26-.91.4-1.35s.22-.68.34-1l.07-.21c.27-.75.5-1.43.69-2.11s.4-1.45.6-2.17l.31-1.08c.14-.5.26-1,.37-1.51l.06-.25c.11-.52.23-1,.38-1.53.34-1.18.76-2.3,1.08-3.15s.53-1.43.78-2.16l.14-.41.14-.4.2-.54a31.88,31.88,0,0,0,1-3c.1-.41.21-.8.31-1.2l.06-.21.07-.29c.18-.67.36-1.33.5-2l0-.19c.23-1.09.45-2.12.74-3.14.24-.78.51-1.53.78-2.29l.06-.18c.2-.53.35-1,.51-1.42.38-1.11.71-2.23,1-3.36l.14-.48c.73-2.52,1.5-5,2.26-7.52.17-.57.37-1.12.56-1.68l.07-.2.09-.28c.17-.48.34-1,.5-1.45s.35-1.06.51-1.6l.13-.39c.18-.6.36-1.18.55-1.77.42-1.31.73-2.38,1-3.36.14-.57.29-1.12.44-1.68l.13-.51.35-1.32c.2-.77.44-1.53.68-2.29l.08-.24c.13-.4.25-.79.37-1.18.2-.68.43-1.35.66-2l.17-.5.12-.38c.1-.29.19-.58.28-.86.54-1.72,1-3.49,1.42-5.2l0-.14,0-.21.53-2.06c.36-1.34.8-2.71,1.18-3.91s.77-2.36,1.09-3.52l.27-.93.17-.62c.16-.58.33-1.17.49-1.76.11-.42.2-.84.3-1.27s.21-1,.34-1.45l.3-1c.35-1.24.71-2.49,1-3.75l.15-.58a17.84,17.84,0,0,1,.46-1.74,17.3,17.3,0,0,0,.73-2.47,26.33,26.33,0,0,1,1.07-3.69l.13-.43.19-.55c.17-.53.34-1.05.53-1.56s.5-1.23.8-1.83l-.14.12.11-.1c.23-.51.39-.89.55-1.27a12.68,12.68,0,0,1,.57-1.25l-.18.17a1.65,1.65,0,0,0,.28-.5c.1-.46.21-.91.33-1.36s.22-.83.31-1.24a8.59,8.59,0,0,0,.13-1.42l0-.23,0-.27-.07.19,0-.32c0-.32,0-.52,0-.81a2.85,2.85,0,0,1-.09-.44l0-.38,0-.37,0-.2-.13-.28a4.14,4.14,0,0,1-.42-1.15,13.15,13.15,0,0,1-.16-1.39l0,.09Zm103,30.8c.72,0,1.49,0,2.42-.13.76-.08,1.53-.11,2.29-.13,1.09,0,2-.09,2.89-.2l.21,0,.26,0a10.88,10.88,0,0,1,1.7-.17h.34l.61.05c.43,0,.85.07,1.38.07a21.44,21.44,0,0,1,3.07.22l.18,0h.17a5,5,0,0,1,1,.19,3.55,3.55,0,0,1,.93-.15,2.87,2.87,0,0,1,2,.76,2.81,2.81,0,0,1,.92,2,2.88,2.88,0,0,1,0,.6c.05.3.09.59.12.89s0,.35,0,.52a2.54,2.54,0,0,0,0,.39v.3l0,.33,0,.31c0,.31,0,.62.05.93s0,.48,0,.72v.94a5.09,5.09,0,0,1,0,.56c0,.62-.05,1.24-.1,1.88v.2l0,.2c0,.55-.08,1.1-.08,1.65v.23c0,1.12,0,2.28-.07,3.42l-.05.71a28.88,28.88,0,0,0-.11,3.39c.06,1.17,0,2.36-.05,3.39v.3c-.08,1.48-.09,2.84-.05,4.17.06,2.55.07,5.08.07,7.66v1.41c0,.95,0,1.88,0,2.82,0,.72,0,1.45-.07,2.17v.2c0,.49,0,.95,0,1.41,0,1,0,2.09,0,3.11v.4l0,.59c.05,1.36,0,2.77,0,4s0,2.43,0,3.63,0,2.64,0,4l-.06,1.25,0,.59c0,.77-.08,1.54-.1,2.31,0,1,0,2.07.06,3v.23l0,.73.08,2.43c.07,1.95.13,3.9.22,5.85.07,1.5.07,3,.06,4.47,0,1.26,0,2.52,0,3.79,0,1,0,2,0,3v.91c0,.82,0,1.64.07,2.45l.06,1.36c0,.8,0,1.61,0,2.4V210c0,.48-.05,1-.06,1.43,0,.87,0,1.74.05,2.6,0,.55,0,1,0,1.52,0,.83,0,1.66-.06,2.5l0,.38v.39l0,.38a28.8,28.8,0,0,1-.49,4.75,2.37,2.37,0,0,1-.38.92h-.28c-.61,0-1.22,0-1.81.07l-2,.12c-.59,0-1.17,0-1.76,0l.13,0h-1.41l-1.31,0-.79,0,.21,0h-.17c-1,0-2.1.07-3.12.14h-.17l-.34,0c-.94,0-1.87.11-2.81.13-.65,0-1.31-.05-2-.12a26.07,26.07,0,0,0-2.61-.1h-1.71c-.45,0-.89,0-1.34.05-.27,0-.53.05-.8.09l-.16,0-.8.08c0-1-.08-2-.06-2.93l0-.73c.08-1.1.15-2.16.17-3.22a15.22,15.22,0,0,0-.07-1.79c0-.37-.05-.73-.06-1.09,0-.58,0-1.15,0-1.72v-.46c0-.31,0-.61,0-.92,0-.95-.05-1.9,0-2.85l.05-.86c.06-1,.12-1.88.14-2.82,0-.65,0-1.28-.07-1.93,0-.39-.05-.79-.06-1.18s0-1,0-1.5,0-.89,0-1.33c0-1-.06-1.95-.14-2.91-.17-2.11-.24-4.28-.21-6.46,0-1-.07-2.09-.15-3.1s-.13-1.7-.15-2.51v-.57c0-.51,0-1,0-1.52s-.06-.72-.09-1.08l0-.16c0-.42-.08-.84-.09-1.27,0-1.54-.06-3.1-.08-4.64,0-.93,0-1.81-.08-2.69v-.43c-.06-1.4-.13-3-.09-4.54l0-.78v-.15c.06-1.07.12-2.18.1-3.28,0-.49,0-1,0-1.48,0-.74-.05-1.48,0-2.21a32.59,32.59,0,0,0-.06-4c-.12-1.41-.16-2.78-.18-4.3,0-.71,0-1.43,0-2.14s0-1.43,0-2.14c0-.43,0-.86,0-1.29l0-.58c0-.3,0-.6,0-.91s0-.61,0-.91c0-.46.11-.91.18-1.36s.13-1,.16-1.57l0-.7c0-.08,0-.24,0-.4v-.46l-.07.45a9,9,0,0,0,0-1.64c0-.72-.05-1.3,0-1.9v-.71a14.43,14.43,0,0,0-.06-2.06,19.29,19.29,0,0,1-.07-2,9.21,9.21,0,0,0,0-1.37c0-.34-.07-.63-.08-.92a9.76,9.76,0,0,0,0-1.71l0-.36a9.38,9.38,0,0,1-.12-1.3v-.28c0-.38,0-.83,0-1.28s0-.83,0-1.24a5.3,5.3,0,0,0,0-1.12l0-.36,0-.19c.06-.85.13-1.67.16-2.5l.09-2a2,2,0,0,1,.36-.52,3,3,0,0,1,.32-.3,2.78,2.78,0,0,1,2.32-1.3h.89c.74,0,1.48,0,2.22,0,.22,0,.43,0,.65,0Z"/><path class="cls-2" d="M131.42,113.7s0,0,0,0c-.09.33-.16.67-.23,1L131,116l-.11.72c-.17,1.12-.33,2.22-.54,3.32-.1.57-.26,1.11-.41,1.67l-.14.47c-.13.44-.24.89-.35,1.34s-.18.77-.29,1.14c-.21.76-.47,1.5-.74,2.25s-.55,1.53-.79,2.41c-.5,1.89-.94,3.42-1.42,5-.22.71-.42,1.43-.61,2.15-.11.44-.23.87-.35,1.31-.27.92-.59,1.83-.91,2.72l0,.16-.26.74c-.22.62-.4,1.25-.57,1.88s-.36,1.27-.58,1.9l-.16.45a23.4,23.4,0,0,0-1,3.05l-.2,1c-.2,1.07-.39,2-.66,3-.07.27-.15.53-.23.8l-.1.34-.08.26c-.22.71-.44,1.4-.62,2.12l-.08.32c-.1.39-.2.79-.33,1.17,0,.12-.09.25-.14.37l-.08.22c-.08.19-.15.38-.22.58-.13.37-.24.75-.35,1.12a.74.74,0,0,0,.25,0h.32c.74-.08,1.48-.21,2.21-.34a19.76,19.76,0,0,1,3.12-.26h1.11a9.94,9.94,0,0,1,1.09.05,14.15,14.15,0,0,1,1.84.32l.42.08a6,6,0,0,0,1,.07,26.64,26.64,0,0,1,2.84-.2c.51,0,1,.06,1.52.11l.56,0,.9.06.91.05.15,0c.42,0,.85.07,1.27.07h.22l1.11-.14.17,0,.17,0a12.29,12.29,0,0,1,1.36-.15h.19a8.15,8.15,0,0,1,1.81.28l.35.08a4,4,0,0,0,.72.06h.23a4.88,4.88,0,0,1,.92-.1l-.05-.18c-.48-1.06-.87-2.15-1.25-3.26-.28-.75-.54-1.5-.8-2.26-.37-1-.71-2.06-1.05-3.1l-.09-.28-.13-.38q-.36-1.14-.75-2.28l-.16-.45-.16-.46c-.28-.81-.55-1.63-.82-2.46l-.47-1.43c-.66-1.88-1.26-3.81-1.86-5.89l-.4-1.45-.12-.39q-.29-1.08-.6-2.16c-.19-.66-.34-1.33-.5-2l0-.17c-.16-.7-.33-1.4-.54-2.07l-.21-.67c-.38-1.19-.75-2.37-1.07-3.58l-.07-.26-.06-.23-.08-.31c-.26-1-.51-2-.76-2.93-.45-1.82-.94-3.65-1.43-5.47l-.53-2.1,0,0Z"/></g></g></svg>