<svg xmlns="http://www.w3.org/2000/svg" viewBox="0 0 257.78 259.3"><defs><style>.cls-1{fill:#707da7;}.cls-2{fill:#2f345b;}.cls-3{fill:#f8f8f5;}</style></defs><title>music</title><g id="Layer_2" data-name="Layer 2"><g id="Draw_Layer" data-name="Draw Layer"><path class="cls-1" d="M45.52,35.25,46,35l-.46.26Z"/><path class="cls-1" d="M176.16,248.15l.29-.12-.29.12Z"/><path class="cls-1" d="M128.36,3.64c-1.77,0-3.54,0-5.27.1-4.36.51-7.66,1-10.73,1.6-.68.14-1.36.26-2,.38l-.55.1-.26,0c-1.36.24-2.81.51-4.23.84-.58.12-1.21.27-1.84.43l-.63.15-.47.11-.48.12-.14,0-.28.07-1.22.26L99.88,8l-.51.11-1.28.28-.4.1-1.38.31L95.12,9l-.14,0-.11,0-.1,0-.49.13-.34.09-.79.21L92,9.86l-.11,0c-.84.24-1.67.51-2.5.78l-.22.07c-.82.27-1.66.54-2.49.77l.4,0a20.44,20.44,0,0,0-3.21,1l-.67.27c-.8.32-1.65.66-2.44,1.06h0l-.14.07q-1,.57-1.95,1.11l-1.34.83-.25.16-.24.14c-.68.42-1.36.84-2,1.25l-.38.22-.15.08-.11.07c-.82.43-1.51.76-2.24,1.06-.91.37-1.82.73-2.73,1.11-1.14.48-2.4,1.1-4,1.94a16.41,16.41,0,0,1-1.93,1.05L63,23l-.43.19a13.48,13.48,0,0,1-1.66.95c-.43.18-.84.36-1.25.58l-1.58.93.69-.34A11.41,11.41,0,0,0,57,26.61a12.93,12.93,0,0,1-2.34,1.62,12,12,0,0,0-1.61,1.22l.28-.18c-.49.38-.94.8-1.39,1.22l-.77.72-.22.23a11.22,11.22,0,0,1-1.34,1.32,12,12,0,0,1-1.8,1.13l-.26.15-1.5.87.29-.11.09,0-.15.12a5.81,5.81,0,0,1-.67.47c-.3.17-.58.35-.86.52l-.14.09-.17.11c-.42.27-.84.54-1.29.79l.44-.18.38-.22.18-.1a5.17,5.17,0,0,0-.73.58l-.09.08-.34.32a10.77,10.77,0,0,1-1.94,1.32A137.28,137.28,0,0,0,31.15,49a137.23,137.23,0,0,0-17.85,28l-.16.34-.15.34a3.68,3.68,0,0,1-.15.35l-.27.59-.05.14-.18.41c-.06.13-.11.26-.16.39s-.18.39-.26.59l-.06.13-.06.16-.19.44-.11.26-.1.25c-.17.43-.3.75-.44,1.08-.05.14-.1.27-.16.4l-.12.32-.13.33a138.69,138.69,0,0,0-7.36,26A136.45,136.45,0,0,0,1.84,141.2v.24l0,.18v.12l0,.43,0,.28,0,.28L2,143l0,.15a136.46,136.46,0,0,0,3.11,17.81l.15.61.08.32a3.21,3.21,0,0,1,.08.36l.09.3.06.24c.06.23.11.44.18.67l0,.13,0,.13c1,3.8,2.22,7.65,3.58,11.43A139.69,139.69,0,0,0,24,203.16l.47.67c1.55,2.18,3.16,4.31,4.79,6.34l.12.15.5.61c.11.12.21.25.31.38a3.47,3.47,0,0,1,.3.37l.3.34.21.26.13.15a137.41,137.41,0,0,0,11.9,12.48l.84.77.69.62.15.13.25.23.13.12.25.22.26.21c.16.16.35.32.53.47s.25.23.38.34c1.12.93,2.27,1.84,3.41,2.74a138.83,138.83,0,0,0,21.8,13.83l.47.23.11.06.39.19c.73.37,1.48.73,2.22,1.09,2.88,1.3,5.82,2.51,8.72,3.59a138.78,138.78,0,0,0,24.09,6.57c2.14.33,4.33.62,6.51.87A142.24,142.24,0,0,0,129,258h3.22c2.76-.07,5.55-.22,8.51-.46l2.63-.3a3.84,3.84,0,0,1,.43-.06l.17,0,.17,0A135.12,135.12,0,0,0,160,254l.39-.1.12,0,.48-.11.17-.05.14,0,.34-.09.34-.09.28-.08.28-.08.12,0,.12,0,.17,0,.84-.24.14,0,.93-.28.72-.21a53.58,53.58,0,0,1,5.75-2.61l-.19,0a3.25,3.25,0,0,0,.67-.21c.63-.25,1.23-.48,1.84-.7l-.49.13c.74-.26,1.6-.58,2.44-.85l.82-.25.61-.18c.77-.33,1.53-.72,2.24-1.08l.13-.07,1.13-.56,2-1,.16-.09.18-.09.19-.09,1.72-.86c1.59-.76,3.18-1.68,4.39-2.39l.57-.33c.82-.47,1.64-.94,2.43-1.45l1.93-1.48.54-.41c1.78-1.38,3.8-2.94,5.86-4.34,1.23-.9,2.47-1.9,3.66-2.85l.25-.21c1.16-.93,2.35-1.89,3.57-2.78l.14-.1.1-.08.37-.25.18-.13.19-.13.41-.29.09-.07c.85-.6,1.8-1.28,2.78-1.86.27-.16.54-.3.81-.44l.24-.13c.3-.3.58-.61.85-.92l.07-.1.49-.57a32.65,32.65,0,0,1,2.48-2.5,26.07,26.07,0,0,0,2.22-2.37l.79-.89c.82-.91,1.73-1.78,2.6-2.62l.17-.16c.69-.65,1.41-1.34,2.1-2.06l0,.05.06-.05h0l.19-.18.36-.39.1-.11,1.79-2,.53-.6.31-.35c.65-.73,1.3-1.47,1.94-2.21,1.09-1.33,2.09-2.64,3.06-4,.29-.41.59-.8.89-1.2l.11-.14.08-.11c.59-.78,1.2-1.58,1.73-2.41,2-3.14,3.5-5.76,4.8-8.21-.07.14-.13.27-.19.41l.69-1.36,1-2,.21-.43c.63-1.47,1.22-3,1.77-4.45l.08-.21c.39-1,.77-2,1.17-3,1-2.48,1.79-5.07,2.5-7.36.58-1.85,1.13-3.62,1.69-5.39l1-3.18c.14-.46.3-.93.45-1.4l.05-.15c.43-1.32.87-2.68,1.17-4.05a21,21,0,0,1,.65-3.19l.19-.64,0-.11q.16-.53.3-1a18,18,0,0,1,.59-3.12l.12-.37c.09-.3.18-.59.26-.88l0-.27a11.73,11.73,0,0,1,.26-1.94l0-.11a134.44,134.44,0,0,0,.82-19.38v-1c0-.12,0-.23,0-.33v-.24c-.09-2.24-.23-4.38-.43-6.55l0-.29c-.08-.73-.16-1.44-.25-2.15l0-.3,0-.3c-.46-3.44-1.05-6.9-1.76-10.29l0-.17,0-.17-.07-.34-.07-.34a139.55,139.55,0,0,0-5.11-17.65c-1.22-3.15-2.49-6.13-3.77-8.88l-.23-.48-.2-.43-.13-.27-.1-.2-.14-.28-.07-.15-.08-.18,0-.1-.16-.32-.16-.32-.08-.16-.09-.19q-.15-.27-.27-.54l-.06-.11-.17-.34-.13-.25-.1-.2-.11-.21-.16-.3-.1-.2-.11-.21-.11-.22c-.06-.11-.11-.22-.17-.32l-.09-.18-.08-.14-.14-.27-.2-.36-.08-.17-.08-.12-.05-.11-.21-.4-.07-.12a3.72,3.72,0,0,1-.19-.34l-.12-.22-.07-.12-.13-.23c-2.18-3.91-4.52-7.68-7-11.2-2.23-3.11-4.61-6.16-7.07-9l-.08-.1-.08-.09-.25-.29-.22-.24-.18-.21-.13-.16-.11-.12-.2-.24-.24-.27-.25-.26a.65.65,0,0,0-.13-.16,135.79,135.79,0,0,0-13.2-13,136.84,136.84,0,0,0-28.15-17.93A138.92,138.92,0,0,0,149.8,5.34c-3.05-.48-6.18-.87-9.32-1.15l-.18,0h-.18l-.31,0h-.11l-.16,0-.43,0-.3,0-.2,0h-.17a2.23,2.23,0,0,0-.36,0,1.72,1.72,0,0,0-.32,0l-.21,0-.21,0-.23,0-.45,0h-.25a3.87,3.87,0,0,1-.48,0h-.18l-.54,0h-.11l-.59,0h-.31l-.4,0c-2.13-.08-3.86-.11-5.44-.11Z"/><path class="cls-2" d="M173.57,139.53a2.44,2.44,0,0,1,0,.27c0-.1,0-.2,0-.3v0Z"/><path class="cls-2" d="M169.11,151.31l-.11,0,.15,0Z"/><path class="cls-2" d="M179,45.6l-.59,0-.31,0-.35,0,.6.06h-.4a14.56,14.56,0,0,0-2,.17h-2.11l-.39,0c-.62.06-1.42.15-2.25.28-.44.07-.88.17-1.32.28s-1,.22-1.52.31L167,47l-.44.07c-.58.09-1.17.18-1.76.29s-1,.17-1.55.23l-.29,0c-.5.07-1,.14-1.5.24s-1.13.27-1.69.42l-.29.09q-.48.14-1,.24c-.51.13-1,.23-1.53.33s-1.19.24-1.77.39c-1.31.33-2.63.55-3.95.79l-.63.12c-.75.12-1.49.25-2.23.41l-1.68.39-.5.13-.27.07-1.33.32c-.65.14-1.3.27-1.94.38l-.4.07-1.44.27c-.73.15-1.45.29-2.17.45l-.39.07L137,53.1c-.76.16-1.53.25-2.29.35l-.84.09c-.88.12-1.74.3-2.61.49l-1.18.24c-.47.1-1,.18-1.42.26-.64.1-1.28.22-1.91.35l-1.09.25-.33.07c-.65.15-1.31.29-2,.39l-.91.12-.62.09-1.33.19c-2.32.36-4.64.9-6.9,1.42-1.64.4-3.16.75-4.69,1.06l-1.59.35-1.09.25a11.41,11.41,0,0,1-1.17.19,9,9,0,0,0-1.81.5,34.12,34.12,0,0,0-4.48,1.85l-.4.2a5.27,5.27,0,0,0-1.65,1.06,7.28,7.28,0,0,0-1.11,1.36,16.84,16.84,0,0,0-1,2.06,2.83,2.83,0,0,0-.08,1.91l0,.44a6.09,6.09,0,0,0-.26,1.08,3.4,3.4,0,0,0,0,.45c0,.29,0,.44,0,.57a8.67,8.67,0,0,0,.07,2l.06.55,0,.34,0,.52a13.35,13.35,0,0,0,.11,1.59c.08.42.16.79.27,1.19,0,.13.08.28.11.42,0,.53,0,1,0,1.57s0,1.16,0,1.63c0,.19,0,.37,0,.57v.29c0,.39,0,.77,0,1.16,0,.17,0,.35.08.51l.06.35v.41a7.71,7.71,0,0,0,.08,1.07l.09.38.09.38c0,.38,0,.76,0,1.14A8.56,8.56,0,0,1,95.49,88l0,.61c0,.36,0,.72-.08,1.09a16.56,16.56,0,0,0-.09,1.73,11.35,11.35,0,0,0,.13,1.32l.07.58a8.92,8.92,0,0,1,0,1,13.43,13.43,0,0,0,.09,1.91,31.39,31.39,0,0,1-.11,3.67v.28h0c0,.56-.07,1.1-.1,1.64-.08,2.09-.16,4.25,0,6.31l0,.36c0,.85,0,1.6-.06,2.34s-.08,1.21-.08,1.82c0,1,.07,2.06.13,3.08l0,.41.06.9.06,1c0,.46,0,.91,0,1.37v1c0,.6,0,1.21.06,1.8l0,.9,0,.78c0,.71,0,1.37,0,2l0,.78c0,.75-.06,1.49-.07,2.22,0,1.4-.08,2.81-.15,4.2l0,.9c-.07,1.4,0,2.75,0,4.12v1.4c0,.85,0,1.7,0,2.56s0,2,0,3c0,.67,0,1.34-.07,2l0,.4c0,.85-.11,1.71-.11,2.56s0,1.91,0,2.87v1.42a19.41,19.41,0,0,1-.28,2.75l0,.28-.17,1.16a2.21,2.21,0,0,1,0,.37l-.11.58a23.55,23.55,0,0,1-1.37,4.37c-.16.28-.31.57-.46.86a2.32,2.32,0,0,1-.37.51,24.39,24.39,0,0,1-2,1.82l-.31.15-.44.14a1.74,1.74,0,0,0-.23.1l-.2.08-.09,0-.15.05a5,5,0,0,1-2,.24c-.39,0-.79.09-1.19.13a16.07,16.07,0,0,1-2.21-.17h-.07l-.25,0h-.65l-.31,0h0l-.08,0h0a6.45,6.45,0,0,1-1.29.06l.64,0c-.5,0-1,.1-1.52.16s-.86.06-1.28.11l-.55.11c-1.07.31-2.14.73-3.19,1.08a31.71,31.71,0,0,0-3.1,1.23l-1.87,1,.81-.4.24-.13-.24.13-.16.08.25-.12a33.13,33.13,0,0,0-3.7,2.13c-.6.4-1.13.87-1.77,1.22-.46.26-.94.52-1.38.82-.27.32-.52.66-.78,1s-.73.87-1,1.33l-.56.94-.18.37c-.28.53-.56,1.09-.83,1.65a18.78,18.78,0,0,0-1.65,3.86,11.33,11.33,0,0,0-.44,2.77,11.53,11.53,0,0,0,.09,1.67,7.23,7.23,0,0,1,0,1v.31a11.81,11.81,0,0,0,.12,1.46l.06.53a18.83,18.83,0,0,0,.8,4.16l-.08-.39.12.57a13.43,13.43,0,0,0,.83,2.12,26.41,26.41,0,0,0,1.59,2.5l-.29-.63a7.19,7.19,0,0,0,1.25,1.78c.12.18.26.36.38.55a6.75,6.75,0,0,0,.48.61,13.22,13.22,0,0,0,1.78,1.73l.85.73A9.43,9.43,0,0,0,70,207.52a25.19,25.19,0,0,0,4.11,1,31.9,31.9,0,0,0,3.6.61c.36,0,.7.06,1,.07l.51,0h.39a15.45,15.45,0,0,0,1.67-.13l.49,0h.92c.58,0,1.17,0,1.77-.08l.42,0,1.33-.09a10.49,10.49,0,0,0,1.77-.26c.59-.15,1.16-.35,1.73-.55l.9-.3,1-.31c1.16-.76,2.36-1.48,3.45-2.32.73-.57,1.45-1.18,2.14-1.79l.65-.59-.9.81a16.29,16.29,0,0,0,2.31-2.74l-.68,1c.49-.74,1-1.44,1.49-2.17a12.85,12.85,0,0,0,1.34-2.86h0c.17-.45.33-.92.54-1.36l.68-1.46c.3-.64.63-1.27.89-1.93l.3-1.08,0,0a.81.81,0,0,1,0-.11,0,0,0,0,0,0,0l0-.05a1.21,1.21,0,0,0,.05-.18c.18-.5.35-1,.52-1.49,0-.13.08-.25.11-.38l0,.09a9.48,9.48,0,0,0,.38-2.16,6.94,6.94,0,0,1,.2-1.44c.13-.46.28-.92.42-1.38a6.08,6.08,0,0,0,.18-1.27,9.11,9.11,0,0,1,.22-1.88c0-.19.09-.37.13-.56,0-.47,0-.93,0-1.38v-.36a17.19,17.19,0,0,0,0-2.16,16.73,16.73,0,0,1-.11-1.72c0-.2,0-.4,0-.6v-1.33l-.12.27.07-.29a23,23,0,0,0,.05-2.35v-.68c0-.46,0-.92,0-1.37,0-1.73,0-3.45,0-5.18,0-1.23-.09-2.46-.16-3.69q-.08-1.09-.12-2.22c0-.42,0-.83,0-1.26v-.31c0-.47,0-.95,0-1.42s-.08-.88-.13-1.34l0-.28c-.06-.42-.11-.81-.14-1.22-.12-1.33-.15-2.66-.18-4l0-.7c0-.48,0-.94,0-1.41,0-1.16-.13-2.29-.21-3.45l-.07-.85c0-.64-.06-1.28-.07-1.91v-.32c0-.63,0-1.25,0-1.88q-.08-1.23-.09-2.49c0-.71,0-1.42-.06-2.14q0-.6-.09-1.2l0-.3c0-.59-.09-1.19-.09-1.78l0-.37v-.64c0-.27,0-.5,0-.73l0-.83c0-.63,0-1.26.08-1.89,0-.88.08-1.76.1-2.64,0-.61,0-1.21-.07-1.81s0-1.12,0-1.68v-1.28c0-.13,0-.27,0-.4v-.84c0-.64,0-1.28,0-1.92s0-1.1.08-1.62c0-1,.1-1.94.07-2.92s0-2.23,0-3.35c0-.88.11-1.75.21-2.62a13.94,13.94,0,0,0,.1-1.72c.26-.06.53-.13.81-.18l.46-.1a5.16,5.16,0,0,0,.66-.23l.77-.28c.82-.23,1.67-.41,2.51-.57l.27,0,.29-.08v0a13.12,13.12,0,0,0,1.69-.39c.42-.16.83-.35,1.24-.55a19,19,0,0,1,2.55-.69l.33-.07c1.2-.28,2.39-.56,3.6-.79.88-.17,1.82-.39,2.77-.65,1.2-.33,2.42-.62,3.64-.85l.61-.12.48-.08c1.19-.19,2.38-.37,3.57-.62.27,0,.52-.12.79-.18l.44-.1c.6-.15,1.2-.28,1.81-.39l.95-.19.94-.2.61-.12,1.36-.28,1.13-.16c.71-.11,1.41-.21,2.11-.36s1.16-.25,1.74-.39,1.15-.27,1.73-.39l1.39-.2c1.06-.14,2-.27,2.83-.45.55-.12,1.11-.28,1.67-.43.72-.2,1.45-.4,2.19-.54.44-.07.88-.17,1.31-.25l.59-.12.76-.16.58-.08a14.52,14.52,0,0,0,2-.35l.79-.24c.73-.21,1.21-.36,1.71-.48.82-.12,1.43-.21,2-.32l.45-.07c1.26-.23,2.11-.4,3-.58l1.13-.22q.58-.14,1.2-.24l.3,0c.51-.09,1-.15,1.53-.2l.88-.1c.81-.11,1.6-.25,2.4-.42v.37a14.13,14.13,0,0,0,.07,2l.07.58c.09.68.17,1.37.21,2.06V93.3c0,.81,0,1.6.05,2.41,0,1.83,0,3.63,0,5.45,0,1.37.05,2.73.12,4.1l0,.62.07,1.59c0,1.1,0,2.2-.08,3.3,0,.79-.06,1.53-.08,2.27,0,2.25-.12,4.48-.24,6.74-.05,1-.05,2.1,0,3.16v.41c0,1,0,1.92-.06,2.88-.12,2.1-.17,4-.15,5.75v2.33c0,.9,0,1.81,0,2.72,0,.73,0,1.45,0,2.19a13.4,13.4,0,0,1,0,1.9l0,.29,0,.31c0,.12,0,.2,0,.3l.06.65a12.1,12.1,0,0,1,0,2,11.74,11.74,0,0,1-.25,1.42,1.88,1.88,0,0,0,0,.28h0a.5.5,0,0,0,0,.12.59.59,0,0,0,0,.14,4.19,4.19,0,0,1-.56,1.55l-.24.39c-.2.36-.31.55-.41.76l-.07.28c-.21.23-.4.48-.62.71l-.38.34c-.13.11-.25.2-.38.29a1.6,1.6,0,0,1-.45.18l-.54.08-.26,0a6.08,6.08,0,0,1-1.4.49,3,3,0,0,1-.72.08,4.21,4.21,0,0,1-.73-.07c-.54.09-1.07.14-1.6.19l-.65.07q-.31,0-.66.06l-.3,0h-.29c-.3,0-.6,0-.9,0l-.67,0-.61.06-.81.08c-1.09.06-2.15.16-3.24.29a17.08,17.08,0,0,0-3.94.88l-.3.11a28,28,0,0,0-2.78,1.2l-.68.35c-1.15.6-2.15,1.13-3.14,1.71-.57.33-1.14.66-1.67,1a12.27,12.27,0,0,0-1.46,1.34l-.34.35a15.48,15.48,0,0,0-4,6c-.2.54-.43,1.08-.66,1.61a15.48,15.48,0,0,0-.73,2.32l-.08.33a16,16,0,0,0-.49,4.25c0,.31,0,.63,0,1s0,.89.11,1.37c0,.21.06.42.1.62l0,.31.1.49.12.7a23.12,23.12,0,0,0,.57,2.67,10,10,0,0,0,.85,1.93l.21.42.26.52c.23.46.45.93.72,1.36l.28.4.19.29.2.49a7.58,7.58,0,0,0,.66,1.3,7.06,7.06,0,0,0,1.68,1.6,16.17,16.17,0,0,0,3.9,2.22l.74.34.46.22.65.29c.4.16.81.29,1.22.41l.86.28a11,11,0,0,1,1.16.54c.24.12.49.25.75.36a13.93,13.93,0,0,0,2.84.76l.41.09a21.57,21.57,0,0,0,4.31.42,17.74,17.74,0,0,0,4.72-.89,34.47,34.47,0,0,0,6.85-3h0l.3-.16a18,18,0,0,0,4.48-3.49c.25-.27.51-.54.78-.8a12.77,12.77,0,0,0,1.43-1.6l.32-.44.64-.89a11.49,11.49,0,0,0,.61-1.08l.19-.38c.12-.27.21-.53.34-.79l.23-.44a4.81,4.81,0,0,1,.38-.85l.15-.25c.12-.37.25-.74.38-1.11s.39-.92.59-1.38.49-1.18.71-1.78l.26-1.77.05-.41c.12-1,.24-1.9.39-2.85s.24-1.72.33-2.59c.06-.56.12-1.12.19-1.67a30.65,30.65,0,0,0,.3-5.05c0-.95.08-1.89.13-2.83.05-.64.06-1.28.06-1.92s0-1.09,0-1.64l.07-1.47,0-.61c0-.61.06-1.21.1-1.82l0-.28c.06-.6.1-1.21.1-1.82,0-.41,0-.83,0-1.23v-.3l0-.52-.05-1.5,0-1.5c0-.49-.06-1-.08-1.55l0-.74c0-.44-.05-.89-.06-1.34v-.49l0-.5-.08-.27h0a.89.89,0,0,0,0-.37l0-.3.1-1.86,0-.93a38.12,38.12,0,0,0,0-3.85c0-.79,0-1.57-.05-2.36l-.11.36.08-1-.05-1,0-.29c0-1,0-1.85.08-2.74l0-.83c0-.74.06-1.47.13-2.19l.08-.82c.08-.62.14-1.25.16-1.86,0-1.17,0-2.35,0-3.51,0-.65,0-1.3,0-1.95v-1.18c0-1.33,0-2.66.1-4,0-.41,0-.82,0-1.23l0-.62v-.62c0-.39.05-.78.08-1.18l0-.39c0-.26,0-.53,0-.78,0-1.17,0-2.33,0-3.5v-.38l0-.71c0-.62,0-1.25.07-1.87l0-.4,0-.36c0-.59.07-1.19.07-1.78,0-1,0-2,0-3V90.28c0-.58,0-1.16.07-1.74l0-.6c0-.85.08-1.69.08-2.54s0-1.82-.09-2.72l0-.3-.07-1.22c0-1.57,0-3.14,0-4.71,0-.83,0-1.65.11-2.48a29,29,0,0,0,.06-3.36c0-.82-.05-1.68-.11-2.53,0-.4-.05-.81-.09-1.22s-.08-.94-.1-1.38v-.62c0-.63,0-1.26-.07-1.89l-.08-1-.07-1.11a15,15,0,0,1,.1-2.21l.1-.58c.07-.45.14-.92.17-1.38a20.17,20.17,0,0,0,0-3.11l-.05-.78c0-.28,0-.58,0-.88,0-.57,0-1.13-.06-1.69a3.62,3.62,0,0,0-.05-1.58,3.11,3.11,0,0,0-.72-1.73,3.26,3.26,0,0,0-2.26-1.22h-.28a3,3,0,0,0-.44,0,6,6,0,0,0-.67-.15l-.55-.11a2.45,2.45,0,0,0-.39,0,3.06,3.06,0,0,0-1.11.23ZM103.86,190.79l0,.07,0-.07Zm-.1.31c-.07.23-.16.47-.24.71.08-.24.17-.48.24-.71Z"/><path class="cls-2" d="M103.8,191h0l0-.05,0,0Z"/><path class="cls-3" d="M130.09,0c-.6,0-1.2,0-1.8,0h-1l.51,0c-.59,0-1.18,0-1.77,0s-.91.05-1.37.07c-.91,0-1.81,0-2.71.07s-1.86.2-2.79.3-2.09.22-3.13.33-2.09.26-3.14.37-2,.26-3.06.43S108,2,107,2.07a34.06,34.06,0,0,0-3.62.57l.51-.11a20.84,20.84,0,0,0-3.41.89,28.42,28.42,0,0,1-3.1,1.08c-1,.25-1.89.62-2.84.93A12.52,12.52,0,0,0,93.09,6c-.57.26-1.12.56-1.67.87-.3.14-.61.27-.91.42-.46.21-.91.46-1.35.7s-1,.43-1.45.67a21,21,0,0,1-2,.89c-.67.26-1.31.57-2,.85s-1.08.42-1.62.62c-1.12.43-2.2.94-3.31,1.41-.57.24-1.15.46-1.71.74s-1.2.65-1.8,1c-.76.38-1.52.78-2.27,1.19s-1.54.74-2.29,1.15-1.21.72-1.84,1.07l-1.43.75A35.51,35.51,0,0,0,64.11,20c-.88.53-1.72,1.1-2.57,1.67-.39.27-.77.55-1.17.81a14.87,14.87,0,0,1-1.29.74c-1,.53-1.91,1.11-2.83,1.72s-1.79,1.23-2.74,1.77-1.89,1.07-2.79,1.67-1.55,1.28-2.32,1.9S46.79,31.52,46,32.12s-1.63,1.45-2.47,2.15c-.41.35-.86.66-1.26,1s-.89.84-1.34,1.26c-.69.64-1.34,1.31-2,2l.06,0c-.64.6-1.24,1.22-1.87,1.83-.38.34-.77.66-1.16,1a16.89,16.89,0,0,0-1.25,1.14c-.92.83-1.91,1.58-2.82,2.43-.45.42-.9.84-1.32,1.29s-.83.9-1.27,1.32-1.1,1-1.63,1.58-1.17,1.25-1.72,1.91-1.1,1.27-1.65,1.9S23.14,54.3,22.56,55a44.35,44.35,0,0,0-2.94,3.91c-.42.64-.88,1.26-1.32,1.89s-.89,1.33-1.31,2-1,1.49-1.44,2.26-1,1.53-1.43,2.32c-.56,1-1.1,2-1.61,3s-.88,2-1.39,3-1,1.75-1.41,2.64-.89,1.7-1.27,2.58-.72,1.83-1.08,2.75A23,23,0,0,0,6.3,84.71c-.26,1.08-.59,2.13-.9,3.2a36.35,36.35,0,0,0-1,3.86c-.24,1.24-.53,2.47-.88,3.68a11.93,11.93,0,0,0-.48,2.21,15.13,15.13,0,0,1-.41,2c-.29,1.1-.49,2.22-.75,3.34s-.43,2.38-.62,3.57c-.09.58-.19,1.17-.25,1.75s-.09,1.06-.11,1.59-.09,1-.11,1.54v0s0,.1,0,.14,0,.2,0,.29h0l0,.69c0,.45,0,.91-.05,1.36,0,.1,0,.2,0,.3,0,.74-.19,1.47-.27,2.22s-.2,1.78-.23,2.67v0h0c0,.24,0,.47,0,.71s0,.26,0,.39c0,.48-.11.94-.14,1.41a1.48,1.48,0,0,1,0-.21c0,.39,0,.78,0,1.17,0-.17,0-.34,0-.51,0,.59,0,1.17,0,1.76s0,1.08,0,1.63c0-.17,0-.34,0-.51a21.89,21.89,0,0,0,.13,3.71c.07.57.16,1.14.19,1.71s0,1.1.07,1.64l.21,1.79c.06.5,0,1,.11,1.51a11.72,11.72,0,0,1,.13,1.56,2.83,2.83,0,0,1,0,.29c.05.63.1,1.25.19,1.88a8.26,8.26,0,0,1,.06,1.49c0,.26,0,.52,0,.79l.06.39c.07.54.12,1.09.18,1.64s0,1.26,0,1.9,0,1.14,0,1.71l0,.22c.08.67.17,1.33.3,2s.2,1.21.32,1.82a.43.43,0,0,1,0,0c.14.63.34,1.25.48,1.89s.32,1.34.49,2c.35,1.36.68,2.72,1,4.1l.21.92a1.43,1.43,0,0,1-.14.85l.05.2c.41,2.17.59,4.38,1.08,6.54a13.87,13.87,0,0,0,.4,1.5c.17.53.36,1.06.53,1.59s.29,1,.44,1.5.34.9.51,1.34c.35.88.65,1.8,1,2.7.18.55.45,1.07.67,1.61s.44,1,.61,1.49c.33,1,.67,1.94,1,2.9s.8,1.78,1.19,2.66a24.86,24.86,0,0,0,1.86,3.35c.53.81,1,1.69,1.44,2.54s.87,1.86,1.39,2.76,1,1.51,1.44,2.31.79,1.55,1.25,2.3,1.06,1.54,1.51,2.36.85,1.62,1.34,2.39,1,1.55,1.54,2.31c.78,1.13,1.57,2.24,2.36,3.36s1.67,2.35,2.51,3.53l1.32,1.86a12,12,0,0,0,.95,1.18l.67.69c.59.67,1.15,1.36,1.68,2.09a14,14,0,0,0,1.34,1.63c.3.31.62.61.92.93s.6.52.9.78.7.68,1.07,1l1,.91c.33.3.67.58,1,.89.45.52.88,1.05,1.3,1.58a11.34,11.34,0,0,0,1,1c.26.25.51.52.78.77.58.54,1.19,1,1.79,1.57a15.61,15.61,0,0,0,2,1.39l-.44-.27c1,.69,1.93,1.51,2.93,2.23.4.29.82.56,1.21.88s.87.7,1.32,1,.9.69,1.39,1,.89.61,1.34.91,1,.68,1.46,1,1.11.7,1.67,1c.79.53,1.5,1.17,2.26,1.73a28.15,28.15,0,0,0,2.58,1.57l1.14.69a13.5,13.5,0,0,0,1.74,1c.57.25,1.15.49,1.72.76,1.06.5,2.13,1,3.2,1.48s2.18,1,3.24,1.56,1.79,1,2.72,1.46a12.9,12.9,0,0,0,1.61.59,13.71,13.71,0,0,1,1.75.78c.59.31,1.16.65,1.76.93a13,13,0,0,0,2.25.77c1.2.33,2.41.68,3.62,1s2.24.45,3.34.75,2.17.78,3.28,1.11,2,.54,3.1.76,2.11.42,3.18.56a29.6,29.6,0,0,1,3,.47c.53.12,1,.28,1.58.38s1.21.19,1.81.3,1.08.24,1.63.32,1.23.19,1.84.33,1.07.29,1.6.44,1.06.24,1.6.33,1,.13,1.51.2,1.12.19,1.68.29a30.14,30.14,0,0,0,3.55.41c1.31.05,2.62.19,3.93.26h.14a7.9,7.9,0,0,0,1.46,0c.51-.08,1-.21,1.51-.33.92-.17,1.84-.21,2.78-.29.51-.05,1-.1,1.52-.17a6.43,6.43,0,0,1,1.16,0c1.28.06,2.55.12,3.83.07,1.05,0,2.09-.13,3.13-.22s2.1-.18,3.15-.23c.52,0,1-.06,1.55-.1a9.49,9.49,0,0,0,1.59-.3,13.4,13.4,0,0,1,2.75-.31,15,15,0,0,0,2,0,17,17,0,0,0,2.13-.4,13.64,13.64,0,0,1,2-.28c.47,0,.94,0,1.41,0a7,7,0,0,0,1.93-.29c.89-.24,1.75-.55,2.63-.85s1.63-.46,2.45-.65l-.5.11c.7-.15,1.39-.3,2.08-.52s1.24-.45,1.85-.69l3.26-1.24c1.07-.4,2.14-.79,3.23-1.15l1.55-.5c.65-.23,1.28-.47,1.93-.68,1.06-.32,2.08-.75,3.11-1.16,1.23-.49,2.54-.76,3.81-1.19s2.4-.78,3.6-1.17c.59-.19,1.13-.45,1.7-.67a17.2,17.2,0,0,0,2.09-1,54.76,54.76,0,0,0,5.24-3.42l5.12-3.62,10.87-7.72c1-.72,2.06-1.4,3-2.17s1.94-1.59,2.88-2.41,1.93-1.86,2.88-2.8,1.71-1.63,2.52-2.49a25.84,25.84,0,0,0,2.18-2.5c.7-.93,1.37-1.89,2.11-2.78,1.35-1.65,2.54-3.41,3.85-5.09.46-.59.87-1.22,1.36-1.79s1.07-1.18,1.57-1.8.93-1.26,1.41-1.88.88-1.22,1.28-1.85l0,.05c.24-.37.47-.75.7-1.13a1.59,1.59,0,0,1-.13.22c.44-.7.94-1.36,1.38-2.06s.89-1.45,1.33-2.17a21.87,21.87,0,0,0,1.57-2.9c.39-.91.72-1.83,1.16-2.71s1-2,1.44-3,.9-2.15,1.39-3.21,1-2.22,1.55-3.34.92-2.22,1.34-3.34.66-2,1-2.93.7-2,1-3c.52-1.49,1-3,1.39-4.53.28-.89.57-1.78.85-2.67l0,.11.37-1.24v0c.09-.29.18-.57.26-.86.47-1.5,1-3,1.44-4.49,0,.12-.07.23-.1.35.6-1.89,1.37-3.72,2-5.61a21.16,21.16,0,0,0,.73-3.34c.15-1.1.35-2.19.42-3.3,0-.91.08-1.82.15-2.73.08-1.1.13-2.2.11-3.31,0-1.89-.06-3.78,0-5.67.07-1.1.08-2.2.1-3.3s.12-2,.18-3c.07-1.41,0-2.82.05-4.23,0-.85.05-1.69,0-2.54s-.09-1.74-.08-2.63.09-2,.05-3-.14-2.13-.21-3.19-.11-1.83-.18-2.75-.18-1.89-.29-2.83-.23-2-.39-3c-.18-1.16-.45-2.3-.65-3.46-.15-.93-.28-1.85-.44-2.77-.2-1.11-.41-2.2-.66-3.3l0,.11c-.09-.39-.18-.78-.26-1.17-.28-1.29-.58-2.57-.88-3.85a37.85,37.85,0,0,0-2.48-8c-.29-.63-.51-1.29-.79-1.92s-.64-1.33-.95-2-.48-1.19-.74-1.78c-.35-.79-.78-1.53-1.2-2.28-.5-1-1-2-1.59-3s-1-1.69-1.47-2.55-.9-1.9-1.41-2.82a34,34,0,0,0-1.93-3c-1.29-1.89-2.63-3.74-3.95-5.6-.68-1-1.37-1.93-2.06-2.9-.28-.4-.55-.81-.86-1.19s-.83-.94-1.24-1.41c-.86-1-1.62-2-2.51-3a36.49,36.49,0,0,1-2.39-2.88c-.27-.35-.52-.71-.79-1.06a11.32,11.32,0,0,0-1-1.09c-.4-.45-.79-.9-1.17-1.37s-.94-1.06-1.44-1.58-.76-.88-1.13-1.33c-.5-.61-1.07-1.17-1.62-1.74-.93-1-1.91-1.94-2.91-2.86-.45-.41-.86-.87-1.29-1.3s-.93-.89-1.41-1.32c-.87-.78-1.74-1.56-2.64-2.31-.37-.31-.74-.61-1.13-.91s-.85-.71-1.3-1.05c-.81-.64-1.68-1.2-2.5-1.82-.44-.34-.84-.73-1.27-1.08s-.92-.66-1.39-1c-1-.7-2.06-1.42-3.1-2.12a11.07,11.07,0,0,0-1.85-1c-.52-.22-1.05-.4-1.56-.65s-.95-.49-1.42-.75-.93-.46-1.37-.71c-.9-.49-1.82-.93-2.7-1.43l-1.34-.78c-.51-.3-1-.53-1.57-.8-.82-.42-1.63-.87-2.45-1.28s-1.79-.82-2.67-1.26c-1.11-.55-2.19-1.17-3.28-1.74s-2.35-1.11-3.5-1.7c-.9-.45-1.8-.87-2.73-1.25-.64-.25-1.31-.44-1.95-.7a17.48,17.48,0,0,0-2.85-.9c-.78-.19-1.61-.24-2.4-.35A20.13,20.13,0,0,1,166,6.86l-.25-.07c-1-.31-1.89-.62-2.83-1S161,5.23,160,4.94s-1.79-.56-2.7-.77c-.7-.17-1.4-.3-2.09-.49A26.61,26.61,0,0,0,152.53,3c-.88-.18-1.75-.41-2.63-.62-1.06-.25-2.13-.35-3.21-.5s-2.05-.42-3.09-.56S141.29,1,140.13.86c-1.32-.21-2.66-.23-4-.4A41.53,41.53,0,0,0,132,0h-.35l-1.53,0ZM130,4c.72,0,1.43,0,2.15,0,1,.07,1.92.21,2.87.35,1.12.17,2.24.2,3.36.32s2.18.31,3.27.44c.83.1,1.65.19,2.46.34s1.9.37,2.87.49c.43.06.87.11,1.3.18s.79.18,1.19.25c.74.15,1.45.39,2.2.53a17.57,17.57,0,0,1,2,.47c1.44.46,2.93.73,4.39,1.13.75.24,1.5.47,2.26.68,1.45.45,2.88,1,4.33,1.42l-.09,0c.09,0,.19,0,.28.09h0a22,22,0,0,0,3.28.76l1.58.22a11.85,11.85,0,0,1,1.46.32c.45.16.89.34,1.33.53s1,.34,1.47.51a24.24,24.24,0,0,1,2.7,1.22c1.14.61,2.34,1.1,3.49,1.69s2.19,1.19,3.3,1.75c.89.46,1.81.82,2.69,1.28s1.63.83,2.43,1.26c.48.27,1,.48,1.47.73s1,.58,1.46.85c.89.49,1.79,1,2.69,1.43s1.76.94,2.65,1.4,1.91.76,2.8,1.26S201.19,27,202,27.48a27.75,27.75,0,0,1,2.45,1.73c.36.29.69.61,1.06.9s.73.51,1.09.77c.77.54,1.49,1.13,2.21,1.73s1.37,1,2,1.63c.38.33.78.65,1.16,1s.83.74,1.23,1.12c.77.71,1.49,1.46,2.24,2.19.4.41.85.76,1.26,1.17s.74.71,1.1,1.08l1.36,1.43c.37.41.71.84,1.06,1.26s1,1,1.45,1.56c.33.39.64.79,1,1.18s.79.87,1.19,1.3c.76.84,1.37,1.8,2.08,2.68s1.75,1.9,2.54,2.93,1.46,1.78,2.23,2.64a29.52,29.52,0,0,1,2,2.63l4,5.62a55.49,55.49,0,0,1,3.45,5.27c.19.41.38.82.58,1.22.33.71.72,1.39,1.09,2.07.56,1,1.2,2,1.77,3,.41.79.82,1.58,1.25,2.36.46,1,.82,2,1.27,2.9.27.57.55,1.13.81,1.71s.46,1.2.73,1.78a35.15,35.15,0,0,1,2.26,7c.25,1.11.52,2.23.78,3.34,0-.17-.07-.34-.11-.51.16.73.32,1.46.47,2.19l0,.13.06.28h0c.06.24.11.48.16.72.34,1.64.56,3.3.84,4.94.19,1.06.46,2.09.6,3.15s.26,1.93.38,2.89c.24,1.73.38,3.48.47,5.23.05,1,.13,2,.2,3s.06,1.89,0,2.83c0-.16,0-.34,0-.5-.05,1.15-.09,2.28,0,3.44,0,.78.06,1.57,0,2.35V125c0,1.37,0,2.73,0,4.1l-.18,2.94c-.05.91,0,1.82-.06,2.73,0,.72-.09,1.45-.1,2.17s0,1.41,0,2.12c0,1.36,0,2.72,0,4.08,0,.64-.09,1.28-.13,1.93-.05.91-.05,1.84-.17,2.75a38.72,38.72,0,0,1-.87,5.15c-.67,2.07-1.5,4.09-2.13,6.17l.15-.49c-.5,1.58-1,3.14-1.51,4.72a3.58,3.58,0,0,1,.11-.35l-.24.76,0-.1-.39,1.27c-.33,1-.67,2-1,3.1-.22.76-.43,1.53-.66,2.29-.31,1-.68,1.88-1,2.83s-.69,2-1,3a51.49,51.49,0,0,1-2.6,6.41c-.55,1.13-1.07,2.28-1.55,3.44s-.9,2-1.37,3-.92,1.8-1.29,2.74a24.79,24.79,0,0,1-1.29,2.88l-.25.41c-.37.59-.74,1.2-1.1,1.8-.59.93-1.22,1.83-1.81,2.76-.28.44-.55.88-.82,1.33l.27-.44c-.57.9-1.24,1.72-1.86,2.58s-1.37,1.63-2.06,2.45-1.3,1.7-1.95,2.54-1.24,1.68-1.84,2.52-1.37,1.69-2,2.57-1.39,1.9-2.14,2.81c-1.46,1.78-3.18,3.3-4.79,5-.33.34-.66.69-1,1-.82.74-1.68,1.44-2.52,2.15s-2,1.56-3.09,2.31l-5.43,3.85q-5.3,3.75-10.59,7.51a63.4,63.4,0,0,1-5.81,3.84c-.44.22-.88.4-1.33.58s-1.12.48-1.7.67L181.24,244c-1.21.38-2.46.69-3.66,1.13-1,.37-2,.83-3.09,1.17-.59.2-1.2.38-1.78.61s-1.12.36-1.67.55c-1.07.37-2.14.71-3.19,1.12s-2.09.75-3.11,1.18A24.53,24.53,0,0,1,161.3,251c-.89.2-1.79.39-2.66.67s-1.84.64-2.77.9a5.81,5.81,0,0,1-1.25.11c-.51,0-1,0-1.51,0a15.06,15.06,0,0,0-2.49.42,12.49,12.49,0,0,1-3,.3h.29a11.88,11.88,0,0,0-2.23.06c-.72.1-1.43.25-2.14.41a17.69,17.69,0,0,1-2.42.21c-.81,0-1.62.11-2.43.18-1.76.15-3.53.31-5.3.3-.73,0-1.46-.09-2.19-.11a16.32,16.32,0,0,0-2.09.15c-.77.1-1.55.11-2.32.19a17.51,17.51,0,0,0-2.38.45,6.56,6.56,0,0,1-1.18.09h-.14c-1.06-.08-2.12-.19-3.19-.23a22.55,22.55,0,0,1-3.17-.32c-1.09-.19-2.18-.38-3.28-.52a21,21,0,0,1-3-.67c-1.18-.32-2.38-.46-3.58-.7s-2.34-.38-3.5-.69a21.43,21.43,0,0,0-2.88-.51c-1.06-.14-2.12-.31-3.16-.52a34.89,34.89,0,0,1-3.5-.83,42.48,42.48,0,0,0-5.12-1.56c-1-.17-1.88-.38-2.81-.63l-2.6-.71a12.77,12.77,0,0,1-2.29-1,14.43,14.43,0,0,0-2.46-1.13,14.08,14.08,0,0,1-2.2-.93c-.66-.37-1.32-.74-2-1.08-1.52-.78-3.09-1.49-4.64-2.21-.77-.35-1.54-.73-2.32-1.07A23.06,23.06,0,0,1,65,238.8L63.71,238l.14.09c-.58-.35-1.17-.68-1.75-1s-1.33-1-2-1.51a23.68,23.68,0,0,0-2.17-1.41c-.89-.59-1.75-1.23-2.65-1.81s-1.76-1.25-2.62-1.9c-.39-.29-.75-.59-1.14-.87l-1.23-.87c-.51-.37-1-.81-1.47-1.19s-1-.7-1.54-1a19.78,19.78,0,0,1-2-1.66c-.54-.5-1.09-1-1.62-1.54s-1-1.27-1.56-1.87-1.37-1.33-2.09-2c-.3-.26-.61-.51-.9-.77s-.54-.54-.83-.79a15,15,0,0,1-1.42-1.34c-.59-.68-1.08-1.44-1.63-2.14S34,213,33.35,212.34a19.68,19.68,0,0,1-1.16-1.6l-1.13-1.58L28.81,206a67.83,67.83,0,0,1-4.65-7c-.21-.4-.42-.82-.65-1.21s-.45-.69-.68-1c-.42-.63-.81-1.28-1.18-1.95s-.72-1.42-1.16-2.1-.83-1.28-1.21-1.94c-.24-.5-.46-1-.71-1.51-.33-.66-.71-1.3-1.07-2s-.58-1.07-.91-1.58-.6-.94-.87-1.42c-.33-.65-.61-1.33-.91-2s-.61-1.3-.86-2-.55-1.51-.81-2.27-.62-1.57-1-2.35c-.59-1.35-1.06-2.78-1.54-4.17-.12-.31-.25-.62-.35-.93s-.21-.78-.33-1.15c-.26-.88-.62-1.73-.84-2.62,0,.17.08.34.11.51-.07-.31-.14-.62-.2-.93-.44-2.28-.6-4.61-1.16-6.86v0c-.21-1-.45-1.89-.69-2.82s-.5-1.74-.72-2.62l-.27-1.42a2.16,2.16,0,0,0-.73-1.37,1.9,1.9,0,0,0-.69-.36l-.06-.34c0,.11,0,.22.07.33-.06-.36,0-.74-.08-1.1a4.83,4.83,0,0,1,0-.76c0-.25,0-.51,0-.76,0-.77,0-1.54,0-2.31,0-.2,0-.4,0-.6l0-.54c0-.53.09-1.06.12-1.59s-.05-.82-.06-1.23c0-.85,0-1.7,0-2.55,0-.21,0-.43,0-.65a20.44,20.44,0,0,0,0-3.41c0-.52-.13-1-.14-1.55a13.8,13.8,0,0,0-.18-1.7c-.07-.56-.09-1.1-.11-1.66s-.09-1.16-.15-1.74A31.11,31.11,0,0,1,4,125.32c0,.16,0,.34,0,.5,0-1.14-.06-2.28,0-3.43l0,.52,0-.73c0-.11,0-.21,0-.32,0-.27.07-.52.1-.79s.05-.82.06-1.24v0c0-.27,0-.54,0-.81s.07-.66.12-1,0-.78.11-1.15a21.43,21.43,0,0,0,.27-2.87c0,.17,0,.34,0,.51,0-.39,0-.78,0-1.17s0-.52,0-.79,0-.25,0-.37v.06c0-.26,0-.53,0-.79,0-.47.07-.94.1-1.4a1.55,1.55,0,0,0,0,.22,31.73,31.73,0,0,1,.37-3.22c.18-1.16.34-2.31.61-3.46s.43-2.09.69-3.13A18.45,18.45,0,0,0,7,98.7a18,18,0,0,1,.33-1.9,35.74,35.74,0,0,0,1-3.79c.12-.65.25-1.31.39-2S9,89.64,9.24,89l-.15.48c.28-.9.53-1.81.79-2.71s.4-1.52.61-2.28a18.83,18.83,0,0,1,.66-1.77c.29-.71.52-1.44.83-2.14s.62-1.32.95-2,.66-1.35,1-2,.76-1.35,1.09-2,.66-1.54,1-2.29c.7-1.39,1.43-2.76,2.23-4.09.28-.44.56-.87.83-1.31.4-.6.79-1.19,1.17-1.79.76-1.22,1.59-2.38,2.4-3.56s1.76-2.5,2.75-3.67c.52-.62,1-1.27,1.48-1.9s1-1.23,1.55-1.82,1-1.18,1.53-1.75,1-1,1.47-1.54,1.18-1.08,1.72-1.67.92-1,1.4-1.42,1.14-.92,1.69-1.4,1-.88,1.44-1.33,1-.84,1.49-1.26c.77-.66,1.46-1.4,2.18-2.12s1.21-1.18,1.81-1.77c.45-.4.88-.82,1.32-1.24s.86-.68,1.29-1,1-.89,1.51-1.34c.77-.7,1.62-1.29,2.45-1.92s1.57-1.26,2.33-1.92a18.51,18.51,0,0,1,2.51-1.71c.92-.54,1.86-1,2.74-1.63s1.94-1.33,3-1.93c.85-.51,1.76-.94,2.58-1.49s1.64-1.14,2.48-1.69c.64-.42,1.3-.83,2-1.2.87-.43,1.75-.83,2.61-1.29l-.47.25c.73-.38,1.49-.74,2.2-1.17.46-.29.92-.56,1.39-.81l1.25-.61c.55-.26,1.09-.57,1.62-.87.78-.4,1.55-.81,2.32-1.23,1-.48,2-.88,3-1.31s2.12-.87,3.21-1.28c.59-.22,1.15-.51,1.73-.76s1.33-.55,2-.83c1.14-.5,2.26-1,3.36-1.63q.51-.25,1-.48c.51-.23,1-.52,1.49-.79.3-.14.59-.28.9-.4s.87-.28,1.3-.43c.81-.29,1.64-.59,2.47-.8a23.32,23.32,0,0,0,2.56-.86,22.56,22.56,0,0,1,2.41-.78l1-.22-.2,0c1-.2,2-.3,3-.42s1.88-.32,2.82-.48,1.93-.3,2.91-.4,2.09-.26,3.13-.38,1.89-.18,2.83-.29,1.88-.23,2.83-.32,1.69-.09,2.55-.08c.46,0,.93,0,1.39-.06a10.44,10.44,0,0,1,1.37,0H130ZM75.72,18.34l-.15.07.15-.07ZM37.4,40l-.18.17L37.4,40Zm186.16,1.27c.06,0,.11.11.16.16s-.1-.11-.16-.16Zm-189,1.22c-.07.07-.15.13-.22.21a2.13,2.13,0,0,1,.22-.21ZM15.69,64.86l0,.06,0-.06ZM251,96.4l0,.13,0-.13ZM4.74,112.2c0,.12,0,.24,0,.37,0-.13,0-.25,0-.37Zm-4,.55v0Zm4,.29v0Zm-4,.47a1.27,1.27,0,0,0,0,.2,1.27,1.27,0,0,1,0-.2Zm4,31.58v0Zm17,49.87a1.74,1.74,0,0,0,.1.19,1.14,1.14,0,0,1-.1-.19Zm-4.23.45c0,.07.07.13.1.2l-.1-.2Zm217.89,1.18a.83.83,0,0,1-.08.12.83.83,0,0,0,.08-.12Zm-92.1,57.33-.24.06.24-.06Z"/><path class="cls-3" d="M164.54,10.57l-.07,0,.07,0Z"/><path class="cls-3" d="M165,10.7l-.09,0,.09,0Z"/><path class="cls-3" d="M38.86,38.54l0,0,0,0Z"/><path class="cls-3" d="M.81,111.45v0Z"/><path class="cls-3" d="M.2,119.11v0c0-.16,0-.32,0-.48,0,.17,0,.33,0,.5Z"/><path class="cls-3" d="M4.16,119.83a.86.86,0,0,1,0-.16.86.86,0,0,0,0,.16Z"/><path class="cls-3" d="M233.33,199.74l0-.09,0,0-.08.13Z"/><path class="cls-3" d="M123,259.28h0Z"/><path class="cls-3" d="M2.49,135.41a2,2,0,0,0-1.62.87c0,.3.05.6.07.88.06.63.11,1.25.19,1.88a10.61,10.61,0,0,1,.06,1.49l0,.79c0,.13,0,.26.05.39.07.55.13,1.1.18,1.64s0,1.26,0,1.9,0,1.14,0,1.71l0,.22c.09.67.17,1.33.3,2s.2,1.21.32,1.82v0c.14.64.34,1.26.48,1.9s.32,1.35.5,2l.51,2.1a2,2,0,0,0,2.58-2.82c-.09-.15-.17-.3-.25-.46a7.37,7.37,0,0,1-.2-.81c0-.11,0-.22,0-.33a5.36,5.36,0,0,0-.06-.7c0-.38-.06-.77-.08-1.15,0-.65-.11-1.3-.2-1.94S5.14,147.62,5,147c-.16-1.4-.1-2.82-.18-4.23,0-.91-.12-1.82-.21-2.72a24.06,24.06,0,0,1-.14-2.68,2,2,0,0,0-2-2Z"/><path class="cls-3" d="M5.33,148.71s0-.06,0-.09v.09Z"/><path class="cls-3" d="M5.35,148.83l0-.12s0,.08,0,.12Z"/><polygon class="cls-3" points="5.35 148.83 5.35 148.83 5.35 148.83 5.35 148.83 5.35 148.83 5.35 148.83"/></g></g></svg>