<svg xmlns="http://www.w3.org/2000/svg" viewBox="0 0 315.97 306.31"><defs><style>.cls-1{fill:#ececec;}.cls-2{fill:#3a4172;}</style></defs><title>premier</title><g id="Layer_2" data-name="Layer 2"><g id="Draw_Layer" data-name="Draw Layer"><path class="cls-1" d="M3.53,1.6a2.9,2.9,0,0,0-1.86,1,3.11,3.11,0,0,0-.59,2.08,2.54,2.54,0,0,0,.15.81c0,.17,0,.35,0,.52-.05.74-.14,1.47-.23,2.2L1,8.4C.92,9.14.83,9.85.8,10.57l0,.78a23.08,23.08,0,0,0,0,3.32l.06.59c.1,1,.19,1.91.2,2.82l0,1.3c0,.65,0,1.29,0,1.95,0,1,0,1.93,0,2.9v1.15C.87,26.56.78,27.73.68,29l0,.34v.15A52.15,52.15,0,0,0,.44,35c0,.78.1,1.55.18,2.32s.1,1.21.13,1.79c.09,1.41.18,3.06.17,4.72v.35c0,.31,0,.63,0,.95v1.59c0,.76,0,1.53-.07,2.29,0,1.14-.08,2.29-.08,3.43s0,2,.12,2.91.07,1.63.07,2.4v1.51h0l0,.41v.21c0,1.15,0,2.34,0,3.52s.09,2.29.1,3.44c0,.43,0,.86-.05,1.28,0,.65-.06,1.3-.07,2,0,1.37,0,2.75,0,4.12,0,2.24.06,4.48.06,6.72l0,1.27c0,.83,0,1.66,0,2.49,0,.62,0,1.24,0,1.85v1.11l0,1.64,0,2.49V98c0,1,0,1.93,0,2.9v1.45c0,1-.06,2.12-.11,3.16-.08,2.43-.17,4.94,0,7.36.07,1.41.1,2.83.14,4.23l0,.76c0,.76,0,1.51.09,2.26s.09,1.66.1,2.49S1,124.29,1,125.15l-.07,1.43c-.06,1.54-.05,3.21,0,5.43.07,2.48.12,5.29.14,8.79,0,1.14,0,2.28-.08,3.42l-.12,2.06-.09,1.54c-.05.88-.12,1.76-.18,2.63l0,.35c-.14,1.71-.26,3.42-.27,5.11v.24c0,1.17,0,2.26,0,3.36,0,.51,0,1,0,1.54s0,1,0,1.53c0,.81,0,1.63,0,2.45,0,1.05,0,2.11.06,3.15s.07,2,.07,2.95v.6c0,.82,0,1.66,0,2.48v.72c0,.49,0,1,0,1.45,0,1.46,0,2.93.08,4.39,0,1.2.1,2.39.18,3.58v.16c.07,1.09.16,2.46.18,3.76v1.53c-.05.68-.1,1.35-.16,2l-.07,1c-.1,1.15-.17,2.38-.21,4a41.47,41.47,0,0,0,.09,4.2c.06,1,.06,2,0,2.9v1.55c0,.52,0,1,0,1.49s0,1.11,0,1.67v2.45l0,.7,0,1c0,1,0,2,0,2.85v.23l.06,1.42,0,.38c0,.92.07,1.79.08,2.67v.94l0,.81a34.46,34.46,0,0,0,0,4.19c.13,1.45.21,2.83.23,4.2,0,1.15-.14,2.29-.23,3.44-.08.95-.16,1.85-.21,2.75a30.4,30.4,0,0,0,0,3.95c0,.77.07,1.54.07,2.31v1.32l0,1.28c0,1.15-.1,2.31-.11,3.45s-.09,2.63-.16,4l0,.26c-.09,2-.2,4.19-.13,6.34,0,.9.09,1.81.15,2.72s.13,1.88.16,2.81.07,1.73.13,2.59l0,.34c0,.81.1,1.64.11,2.47,0,.62-.07,1.24-.11,1.85-.07,1-.13,1.89-.12,2.74s0,1.92.06,2.89l.06,1.84c0,1.44,0,2.86,0,4.28,0,.61,0,1.21.06,1.82s0,1,.06,1.41c0,.88-.06,1.75-.05,2.62,0,.42,0,.86,0,1.31v.35l0,.36c0,.62,0,1.2.05,1.77l0,.91v.19l0,1.18v.62s0-.06,0-.06a.45.45,0,0,0,0-.08,5,5,0,0,0,0,.68c0,1,.09,2,.17,3l.06.73L1,302.3a2.27,2.27,0,0,0,.26.93,2.83,2.83,0,0,0,2.65,2.31l.27.19a3.89,3.89,0,0,0,2.14.58,4.43,4.43,0,0,0,.52,0c.21,0,.43-.05.64-.09l.25,0a3.6,3.6,0,0,0,.41,0,6.81,6.81,0,0,0,.78-.05h.22l.78,0h2.77l.85,0h.33c.5,0,1-.05,1.48-.09a6.31,6.31,0,0,0,1.07-.17l.16,0,.57-.09.33,0H18l.67,0h1l1.13,0c.6,0,1.26,0,1.91,0l2,0,1.62,0H29a22.86,22.86,0,0,0,2.35-.16c.23,0,.45-.08.67-.11s.47-.11.68-.14c.45,0,.91,0,1.38,0l1.28,0a15,15,0,0,0,2.13-.18h.13l1.07-.14.74,0,.42,0,.46,0,1.76-.1c.44,0,.9-.13,1.33-.21l.89-.16c.66,0,1.32.06,2,.11l.69.05c1,.06,1.93.08,2.9.09.58,0,1.15,0,1.71.08l.53,0,.51,0c.95,0,1.89.06,2.83.07h.16c.6,0,1.2,0,1.8,0l1,0h2.89a30.69,30.69,0,0,0,3.35-.31l.29,0c.57-.08,1.15-.15,1.72-.21s1,0,1.58.06h.5c.47,0,1,0,1.44,0,1.6,0,2.88,0,4.15-.12l1.2,0c.92,0,1.85,0,3,.12l1,.07c1,.08,2.23.18,3.36.18H83c1.48,0,3-.05,4.43-.09s3.21-.08,4.83-.21c2-.11,4.15-.16,6.9-.16,1.58,0,3.14,0,4.71,0l1,0,3.3,0c1.16,0,2.31.05,3.46.1s2.57.1,3.86.1h.84l1.17,0c.77,0,1.54,0,2.3,0h.61l1.82.05,1.59.05h.93c1.54,0,3.08-.06,4.87-.14h.15q.58,0,1.2,0c1.22,0,2.46.07,3.61.14l1.08.06c1.26.07,2.53.09,3.8.11l2.28.05,1.35,0c1.21,0,2.59,0,4.34-.17h.88c.94,0,1.88.05,2.81.1l1.32.07c.42,0,.82,0,1.24,0h3.61l2,.09c1.06.05,2.12.1,3.18.1h.35c2.57,0,4.45-.1,6.1-.2l.51,0,.51,0,.35,0c.92,0,1.79-.09,2.65-.11l.69,0,1.36,0h.72c1,.06,2.05.07,3.08.08l2.1,0h.89c.92,0,1.83,0,2.76-.07l1.58,0c2.19-.06,3.72-.13,5.13-.23.41,0,.8,0,1.21,0l1.68,0,1.5,0c1.16,0,2.27-.09,3.34-.17l.26,0,1.2-.09c1.18-.06,2.35-.12,3.52-.13h.25c.72,0,1.45,0,2.16,0s1.44.05,2.16.05l1.72,0c.69,0,1.28,0,1.88,0,.79,0,1.45,0,2.1,0s1.43,0,2.14,0h.34c1.32,0,2.69.05,4.19.15l1.66.12c.85.07,1.69.14,2.55.18,1.49.06,3,.11,4.47.13.48,0,1,0,1.43,0,1,0,1.88.06,2.79.06h.29c1.88,0,3.75-.05,5.62-.12l.8,0c.52,0,1.05,0,1.57,0h.19l.93,0h3.35c1.54,0,3.05.08,4.32.15l1,0,1.29.05c.39,0,.79,0,1.19,0,1.51,0,3-.1,4.51-.19l.29,0,.77,0c.69,0,1.37,0,2.07.07l1.29,0h.33l1.15,0c.81,0,1.64.07,2.46.09s1.35.1,2,.18l.65.07c2,.2,3.36.33,4.87.38l1.52,0c1.1,0,2.21,0,3.31-.09s2.09-.07,3.15-.07c.74,0,1.46,0,2.19,0,1.65,0,3.3-.13,4.95-.23.41,0,.81,0,1.22,0,.7,0,1.4,0,2.1,0l1.86,0H298l1.3,0h.48a15.17,15.17,0,0,1,2.5.3l.3.05c.94.16,1.87.27,2.82.37a18.53,18.53,0,0,0,2.14.12,34,34,0,0,0,3.62-.23,2.36,2.36,0,0,0,.74.17h.19a2.88,2.88,0,0,0,2.81-2.62,15.64,15.64,0,0,0,0-3.42c0-.27-.09-.52-.15-.8s-.14-.66-.17-.9v-.21l.1-1.67c0-.33.05-.64.09-1l0-.15c0-.22.07-.44.1-.65a12.65,12.65,0,0,0,0-2.22l0-.45c-.06-1-.15-1.92-.25-2.88-.06-.66-.13-1.33-.18-2,0-.92,0-1.85,0-2.77v-.45c0-1.59,0-3.21-.09-4.8,0-.38,0-.77-.06-1.17l0,.16a11.05,11.05,0,0,0,0-1.17c0-1.09-.06-2.16-.13-3.24,0-.26-.05-.59-.06-.92l0-.58c0-.52,0-1,0-1.54l0-.44,0-.41a25.42,25.42,0,0,0-.11-3.14v-.26a16.57,16.57,0,0,1,.06-1.73v-.18l0-.44a26.61,26.61,0,0,0-.06-3.25l-.05-1,0,.14v-.58l0-.7c0-1.44.05-2.89.13-4.18l0-.58,0-.58c.05-.71.1-1.41.1-2.13s-.06-1.45-.11-2.18v-.38l-.05-1.13c-.07-1.63-.13-3.48,0-5.25l.06-1.29.09-2c.06-1.6,0-3.17-.09-4.35l0,.22v-.45c-.06-1.09-.15-2.18-.24-3.27l-.07-.71c0-.49-.08-1-.11-1.48-.06-1.51,0-3.07,0-4.44v-.43c0-.85,0-1.71,0-2.57,0-1.49,0-3,0-4.44v-1.25c0-.82,0-1.64,0-2.45s.05-1.81.1-2.69c0-.47.06-1,.09-1.42.05-1.38.06-2.77.05-4.07s0-2.62,0-3.94l0-1.19,0-.47c0-.63,0-1.26.05-1.9,0-2.1.05-4.85,0-7.68l0-1.17v-.21c0-1.07-.06-2.19,0-3.29l0-1.09c0-.85.05-1.7.06-2.56s0-1.43.05-2.16,0-1.2,0-1.81c0-1.31,0-2.63,0-3.94q-.07-4-.08-7.93c0-1.2.09-2.41.18-3.48l0-.4c0-.64.1-1.28.12-1.91.06-1.62,0-3.27-.1-4.86l0-.74a37.45,37.45,0,0,1,.05-5.45,26.13,26.13,0,0,0,.06-3.75l-.1-1.38-.09-1.37c0-1.4,0-2.76.06-4.13,0-.5.06-1,.1-1.49l0-.37c.05-.63.09-1.27.11-1.91,0-.83,0-1.67,0-2.5,0-.52,0-1,0-1.56v-.75c0-1.15,0-2.31.09-3.46l.21-3.19v-.2h0c.08-1.3.17-2.6.25-3.9s.08-2.66.08-4v-.71c0-.87,0-1.72,0-2.59,0-1.37.06-2.62,0-3.87s-.15-2.81-.25-4.21a68.47,68.47,0,0,1,.36-7.2c.14-1.6.21-3,.25-4.12,0-.93,0-1.92,0-3.3l0-.54V88c0-1.07,0-2.3.1-3.54s.19-2.59.26-3.89c0-1.08,0-2.2-.06-3.19l0-.79c-.06-1.29-.06-2.65,0-4.15,0-2,.07-3.91.09-5.88l0-2.2c0-.72,0-1.45,0-2.18l0-.71c0-1.86.09-3.7.07-5.54v-.56c0-1.81,0-3.67,0-5.53s.05-3.72-.08-6.1l0,.16v-.06c0-.58,0-1.14-.08-1.71l0-.52c0-.61,0-1.25,0-1.87V39.1a25.91,25.91,0,0,0-.21-3.58c-.1-.68-.17-1.37-.22-2.05l-.08-.75-.08-.71c-.06-.56-.12-1.11-.15-1.65l0-.38c0-1.16,0-2.32,0-3.49,0-2.73,0-5.83-.18-8.82,0-.52,0-1,0-1.56l0-.43a3.82,3.82,0,0,0,.06-.56c0-.14,0-.29,0-.43v-.42a23.46,23.46,0,0,0,0-2.67c0-.34-.06-.67-.1-1l0-.27V8.78c0-.5-.05-1-.11-1.51a4.1,4.1,0,0,0-.1-.48l-.09-.4c0-.16,0-.33,0-.5s0-.42,0-.63V5.08a14.24,14.24,0,0,0,0-1.73,3,3,0,0,0-.8-1.64c-1.84-.07-3.7,0-5.56,0a7.32,7.32,0,0,0-1.52.94,4.77,4.77,0,0,0-.65.62l-.28.28c-.37.37-.73.74-1.09,1.13l-2.31,2.65-.1.12-.12.13c-.15.16-.32.3-.49.45a4.59,4.59,0,0,0-1.05.65,5.23,5.23,0,0,0-.73.79l-.13.11-.15.11a5.84,5.84,0,0,0-1.43,1.23,4.58,4.58,0,0,0-.55,1l-.09.18a4.16,4.16,0,0,0-.17,2l0,.6c0,.1,0,.2,0,.3l.23.08c0,.36,0,.71,0,1.07,0,1.17.05,2.33,0,3.44,0,.72-.07,1.44-.17,2.46l0,.29,0,.28,0,.2-.08.73-.06.58a24.43,24.43,0,0,0-.19,3.42c0,1.32-.07,2.71-.13,3.93V32c0,.64,0,1.28,0,2.24,0,.67,0,1.33,0,2s-.11,1.52-.19,2.29l0,.26,0,.19c-.05.52-.09,1-.13,1.47-.12,1.49-.13,3.11-.14,4.68,0,1,0,2-.05,3s-.05,2.13-.06,3.2v2.22c0,.29,0,.58,0,.87s0,.81,0,1.22-.05.75-.06,1.12a35.88,35.88,0,0,0,.44,5.43l0,.39c.12.88.23,1.76.3,2.64l0,.67c0,1.29,0,2.42,0,3.46,0,.54-.05,1.09-.08,1.67l0,.34,0,.35c0,.59-.07,1.16-.08,1.73a32.92,32.92,0,0,0,.13,4.46c0,.42.09.85.14,1.27l0,.42.05.45c0,.28.06.56.08.85,0,.76,0,1.54-.05,2.3v.15l0,.17v.18l0,.48a30.08,30.08,0,0,0,.05,4.15v.24c0,.66,0,1.32.08,2,.05,2.59,0,5.21-.07,7.45s.07,4.72.16,6.35l0,.19v.17c.06,1.65.13,3.41.09,5.24,0,.6-.05,1.19-.09,1.81V112l0,.44,0,.27,0,.4,0,.37,0,.36c0,.5-.05,1-.07,1.5a46.86,46.86,0,0,0,.06,5.77c0,.7.1,1.39.15,2.13l0,.5.06.7c0,.5.07,1,.11,1.49,0,1.1,0,2.53,0,4.36v1.34q0,1.27,0,2.55c0,3.88.07,6.73.22,9a3,3,0,0,0,0,.52v1l0,.56c0,.72,0,1.44,0,2.18,0,1.49-.06,2.88-.13,4.43v.53c-.06,1.18-.1,2.3-.13,3.44,0,.69,0,1.39,0,2.08s0,1.48,0,2.22l0,1.7c0,.9-.05,1.8-.06,2.7,0,2.94.11,5.87.25,8.4s.29,5,.46,7.56c0,1.33,0,2.47.09,3.49v1.1l0,1.09,0,.77c0,1,0,1.9,0,2.82l0,.64v.73l0,.48v.48l-.06,1.72a59.15,59.15,0,0,0,.32,6.86v.22l0,.43c.09,1,.16,1.84.21,2.72.07,1.92,0,3.65,0,5.17v.37c0,.87-.06,1.74-.07,2.6,0,1.37,0,2.72,0,3.87v.64l0,.29v1.88c0,.26,0,.52,0,.81v.39c0,2.14.05,5.35.14,8.52v1.1c0,1,0,2.19,0,3.25a33.86,33.86,0,0,0,.07,4.59l0,.38v.38l.05.73v.16c.06,1.15.07,2.13.05,3,0,.29,0,.58-.06.88s-.05.65-.06,1a15.66,15.66,0,0,0,.05,2.08l0,.66,0,.66V248c0,1.22,0,2.24.15,3.32.08.8.13,1.62.17,2.45V254l0,.61a24.59,24.59,0,0,1-.06,3.91,31.34,31.34,0,0,0-.16,3.7v.61c0,.67,0,1.33-.08,2a17.63,17.63,0,0,0,0,2.91c.06,1,.13,1.93.21,2.89l.1,1.6v.15c0,.53,0,1.16,0,1.76s-.08,1-.14,1.48v.17l0,.22,0,.19-.07.54-.07.55c-.06.47-.13,1-.15,1.59s0,1.29,0,1.92v.23l0,.25v.22c0,1.41.06,3.08,0,5a9.11,9.11,0,0,1-.48,2.54h-.31c-1.58,0-2.66,0-3.62.11l-1.43,0-1.57,0H290c-.45,0-.91,0-1.38,0h-1a15.81,15.81,0,0,1-1.78-.12h-.15l-.3,0a36.56,36.56,0,0,0-4.16-.22h-.64c-1.18,0-2.48.11-3.31.19l-1.05.07c-.79,0-1.59,0-2.38,0s-1.87,0-2.87,0h-.72l-.61,0h-.22l-.42,0-.74,0c-1.09,0-2.18,0-3.27,0-1.36,0-2.76,0-4.13-.07-1-.07-2.06-.16-3.53-.32a30.45,30.45,0,0,0-3.42-.15h-.56c-.65,0-1.29,0-1.94,0l-1.66,0h-.3c-1,0-2.07,0-3.1-.06l-.69,0h-.27c-.46,0-.93,0-1.38,0h-.51c-.75,0-1.52.06-2.57.17l-.87.07c-1.09,0-1.94.08-2.75.08h-.68q-1.8,0-3.6,0h-.73c-.59,0-1.19,0-1.79,0h-1.7l-1.67,0h-.42l-1.05,0h-.23l-1,0h-1.21c-.47,0-.93,0-1.39,0h-5.43l-1.59,0h-.37l-2.35,0-2.36,0-2.43-.06h-1.38c-.61,0-1.23,0-1.85,0h-3.35l-1.19,0h-.19c-1.1,0-2.15,0-3.21.09l-.19,0-.23.12h-.3c-.32,0-.63,0-.93,0l-.55,0-.64,0-1.49.09c-.6,0-1.21,0-1.84.05s-1.19,0-1.79.05l-1.51.12-.2,0-.22,0-.34,0-.25,0-.19,0-1.25.11c-.73,0-1.45.06-2.17.06-.42,0-.84,0-1.26,0-.85,0-1.69-.09-2.55-.16l-.41,0-.31,0-1-.06c-1.06-.07-2.21-.07-3.53-.07h-6.32c-.58,0-1.16,0-1.74,0-.84,0-1.7-.12-2.55-.2l-1.09-.1a35.61,35.61,0,0,0-3.86-.12h-2c-.78,0-1.56,0-2.33,0s-1.57-.09-2.51-.17L149,288l-2.29-.19-.19,0h-.21l-.24,0-.24,0-.81-.08-1.68-.17-.32,0-.69-.07-1.24-.12c-1-.1-2.23-.13-3.47-.15h-.8c-1.63-.05-3.17-.14-6.22-.33l-1.27-.09c-.73-.07-1.59-.1-3-.1-.93,0-1.87,0-2.8,0l-2,0h-3.15l-1.89-.05H116c-1.52,0-3.07.07-4.59.21l-.28,0h-.22c-.78,0-1.55.05-2.33.05h-1.25l-1,0h-1.13a16.42,16.42,0,0,0-1.8.09l-.42,0c-1.24.06-2.47.07-3.51.07-1.78,0-3,0-3.94.11h-.35a19.56,19.56,0,0,1-2-.15h-.33l-.22,0-2.75-.32-.43-.05a33.72,33.72,0,0,0-4.47-.25h-1c-1.83.05-3.66.07-5.5.1H75.59c-.8,0-1.59-.05-2.39-.05l-1.44,0-.8.07-.81.06H69.5c-.64,0-1.26,0-1.93-.07h-.79l-.46,0-.24,0-.25,0-.31,0-.65,0c-.33,0-.65,0-1,0l-.93,0-.66,0c-.54,0-1.08,0-1.63,0h-.5c-.76,0-1.52,0-2.27,0h-.29a17.38,17.38,0,0,0-2.54.21l-.32.05-.35.06-.29.05-.16,0c-.38.06-.76.12-1.14.16l-1.54,0H50.05a14.88,14.88,0,0,0-1.92.12H48l-.14,0-.87.08h-.5c-.93,0-1.82-.08-2.78-.15l-.29,0h-.17c-.34,0-.69,0-1,0a22.88,22.88,0,0,0-2.45.12l-.76.06H35.5l-.63,0h-.31l-1,0h-.43c-.37,0-.73-.06-1.21-.11l-.29,0-.19,0-.14,0h-.2l-.21,0-1-.12a6.59,6.59,0,0,0-1.06-.06,13.23,13.23,0,0,0-2,.12h-.3c-.66,0-1.32,0-2-.08l-.76,0a3.85,3.85,0,0,0-.48,0,18.13,18.13,0,0,0-1.91.12l-.43,0c-.5,0-.92,0-1.34-.05l-.86,0H18l-.45,0-.16-.07-.19-.1h0a4.05,4.05,0,0,0-1,.24l-.17.06c0-.26,0-.46,0-.66v-.36c0-1.34-.09-3.18-.29-4.89a71.55,71.55,0,0,1-.6-7.78c0-1.66,0-3.32,0-5v-.94l0-1.69V263.9c0-.51,0-1,0-1.51,0-1.22.06-2.53.11-3.86v-.7c0-1.25.09-2.48.09-3.72,0-.84-.07-1.71-.13-2.46l0-.33a7,7,0,0,1-.06-.89c-.08-1.12-.13-2.26-.17-3.38v-.53c0-1.35-.14-2.71-.25-4.08l0-.48c-.05-.82-.11-1.65-.15-2.47-.12-2.09-.28-4.43-.49-7-.1-1.14-.15-2.43-.16-3.95,0-.78,0-1.55,0-2.35l-.06.15,0-.59c0-.76,0-1.47,0-2.2l-.07-1c0-.42-.05-.85-.07-1.27-.12-2.06-.16-3.63-.16-5.11,0-1.79,0-3.6-.08-5.39v-.56c0-1.5-.07-3-.07-4.51,0-.32,0-.63,0-.94V203l-.06.18c0-.34,0-.76,0-1.17,0-1.45,0-2.92-.14-4.48-.14-1.82-.15-3.78-.15-5.47v-.5c0-1,.07-2,.13-3l.08-1.51c0-1.11,0-2.28,0-3.3v-.26l0-1.22,0-.95v-1.43c0-.14,0-.26,0-.4,0-.82,0-1.6,0-2.39s0-1.43,0-2.12v-1.73c0-.72.05-1.44.06-2.16,0-1.07,0-2.13,0-3.19v-1.8c0-.43,0-.84,0-1.26l.05-1.49c0-.57,0-1.16,0-1.73v-.79c0-.5,0-1,0-1.54l0-.15V159c.05-1.62.11-3.2.11-4.8,0-1,0-2-.06-3,0-.73,0-1.45-.05-2.17l.05-1.86c0-.95,0-1.88.07-2.83s0-2.18,0-3.28v-.63c0-.4,0-.82,0-1.22v-.93c0-1,0-2,.05-3v-1.83c0-.58,0-1.25,0-1.9v-.66c0-1.07,0-2.13.08-3.2,0-1.76.1-3.49.1-5.23,0-1.23.06-2.33.09-3.43v-.24c.05-1.49.11-3.23.1-4.93l0-1c0-2.33-.05-4.66,0-7,0-2-.05-4.07-.1-5.89v-.26c-.06-1.84-.12-3.69-.12-5.54l0-1.42c0-.94,0-1.89.05-2.83v-.7c0-.64,0-1.28.09-1.91v-.27l0-.49c.07-1.15.09-2.31.1-3.47,0-.94,0-1.94.06-2.95,0-1.25.05-2.51.05-3.78s.09-2.42.17-3.67l.06-.73c.11-1.72.11-3.42.1-5V64.51l0-.82c0-.76,0-1.52,0-2.28l0-.74c0-1.42.07-2.85.08-4.28v-.65c0-1.91.07-3.88.05-5.85,0-.88-.08-1.87-.19-3.2-.1-1-.1-2-.1-2.92l0-1.71c0-.82,0-1.47,0-2.14l0-.4c0-.62,0-1.25,0-1.88v-.31c0-1.33.1-2.64.16-4l.05-1c.08-1.93.1-3.78.11-5.48,0-.72.06-1.44.1-2.16l.06-1c.05-1.16.1-2.3.1-3.44L15,20l0-.39,0-.39c0-.75,0-1.5,0-2.26,0-.92,0-1.84,0-2.77l0-.66c0-.3,0-.59,0-.89,0-.63,0-1.26,0-1.9l0-.44,0-.48c0-.3,0-.56,0-.81V8.72c0-.2,0-.37,0-.53,0-.42,0-.77-.08-1.14a4.23,4.23,0,0,1-.05-.5,7,7,0,0,0-.1-.83l-.05-.22a4,4,0,0,0-.26-.87,4.39,4.39,0,0,0-1.16-1.5,6.59,6.59,0,0,0-1.06-.63,3.5,3.5,0,0,0-1.65-.35l-.18,0a9.82,9.82,0,0,0-1.21-.07A4.62,4.62,0,0,0,8,2.29l-.18,0a2,2,0,0,1-.39,0l-.18,0H7a3.25,3.25,0,0,0-1.1.18.89.89,0,0,0-.23-.25,2.88,2.88,0,0,0-1.76-.62l-.34,0Z"/><path class="cls-1" d="M9.21.22a13.35,13.35,0,0,0-1.67.2,9.26,9.26,0,0,0-1.85.66A14.11,14.11,0,0,0,3.15,2.82,2.76,2.76,0,0,0,4.89,7.63a2.91,2.91,0,0,0,2-.7q.39-.31.78-.6a8,8,0,0,1,.87-.45c.23-.06.45-.1.68-.14a24.48,24.48,0,0,1,3.53.16c1.41.12,2.81.2,4.22.28,2.63.15,5.27-.07,7.89-.1,1.4,0,2.8.07,4.19.18s2.84.19,4.25.31a75.66,75.66,0,0,0,8.52.11c2.93-.09,5.87-.13,8.81-.08s5.93-.2,8.9-.31a38.51,38.51,0,0,1,4.16.08c1.46.12,2.9.23,4.37.23,2.84,0,5.69,0,8.53-.09a81.52,81.52,0,0,1,9,.06c1.42.1,2.85.14,4.27.18s3,.19,4.43.29c2.85.2,5.7.43,8.56.54,1.48,0,3,.06,4.43,0s3.06-.12,4.59-.1c1.28,0,2.56.16,3.85.2s2.67,0,4,0c2.76,0,5.53.16,8.29.18,1.48,0,3,0,4.45,0s3,.1,4.54.1c1.36,0,2.73-.07,4.09-.09s2.91,0,4.37,0,2.76,0,4.15,0c2.13,0,4.26-.09,6.39,0l2.71.11a25.06,25.06,0,0,0,3.12-.14c1.51-.14,3-.39,4.51-.55,1.27-.1,2.54-.14,3.81-.13s2.79.06,4.19.1,2.73,0,4.1,0,2.54,0,3.82,0c3,0,6-.06,9-.12s6-.12,8.95-.16,5.9,0,8.86,0c1.39,0,2.79,0,4.19-.05,1.11,0,2.23,0,3.35,0h1.23c1.41,0,2.82-.07,4.23-.11a44.09,44.09,0,0,1,4.45.13,71.84,71.84,0,0,0,8.67.45c1.35-.07,2.69-.28,4-.43a49.82,49.82,0,0,1,5.19.16A36.4,36.4,0,0,0,250.05,7c1.84-.12,3.7-.09,5.54-.12s3.48,0,5.21,0,3.63.21,5.45.09,3.8-.44,5.7-.68c2.38-.14,4.73.14,7.1.15,1.2,0,2.41,0,3.62-.1s2.48-.23,3.72-.35a20.46,20.46,0,0,1,3.13.07,20.05,20.05,0,0,0,2.9,0h-.07a34.07,34.07,0,0,1,4.16.19,29.5,29.5,0,0,0,4,0l-.7.06A16.28,16.28,0,0,0,301.63,6c.48-.08.94-.25,1.42-.37a8.49,8.49,0,0,1,1.44-.24,3.23,3.23,0,0,0,.65.31,2.78,2.78,0,0,0,2.08-.19,2.94,2.94,0,0,0,1.38-1.64,2.69,2.69,0,0,0-.12-2.18l-1.33,0c-2.76.08-5.54-.12-8.29-.31-.88-.06-1.75-.16-2.62-.26l-3.15,0a28.3,28.3,0,0,1-3.91-.09c-.81.06-1.63.08-2.44.07a25,25,0,0,1-3.56-.4,66.62,66.62,0,0,1-7.61,0,28.44,28.44,0,0,0-4.88.14c-1.24.15-2.47.36-3.71.5a35.08,35.08,0,0,1-4.35,0c-1.37-.07-2.74-.09-4.12-.1a87.67,87.67,0,0,0-10,.31,49.13,49.13,0,0,1-6.42-.09,23.93,23.93,0,0,0-3.69.06c-.93.09-1.86.23-2.79.32a58.08,58.08,0,0,1-8.54-.39c-1.45-.12-2.9-.14-4.35-.16s-2.8.08-4.2.1c-.71,0-1.41,0-2.12,0s-1.66,0-2.49,0c-1.4,0-2.8.06-4.19.05-3,0-5.9-.09-8.85,0l-4.65.06c-1.44,0-2.89.08-4.34.1-3,0-6,.12-8.95.12-2.65,0-5.29.07-7.94,0-1.39,0-2.79-.14-4.18-.12s-2.63,0-3.95.1c-2,.11-4,.47-6.07.69a43.71,43.71,0,0,1-4.58,0c-1.26-.06-2.51-.11-3.76-.09l-4.38.12c-1.42,0-2.84,0-4.26,0-2.81,0-5.62.15-8.44.1-1.51,0-3-.08-4.53-.09s-2.8,0-4.2-.06q-4.22-.13-8.44-.14c-2.67,0-5.32-.31-8-.22-2.93.09-5.86.14-8.78,0s-5.82-.36-8.73-.6c-1.45-.11-2.89-.15-4.35-.2S85.47,1,84,1s-3.1,0-4.65,0-3,.1-4.5.12-2.85,0-4.27,0-2.69,0-4,0S63.69.78,62.24.76,59.41.77,58,.83s-3,.19-4.43.24-3,0-4.42,0c-3-.06-6,.1-9,.15-1.4,0-2.8.07-4.2,0S33.06,1,31.64.9,29,.71,27.72.63a39.21,39.21,0,0,0-4.47,0A75.94,75.94,0,0,1,14,.46C12.7.35,11.42.19,10.15.19c-.31,0-.63,0-.94,0Z"/><path class="cls-1" d="M174.54,9.21c-1.35.1-2.71.07-4.07.07s-2.64,0-3.94,0c-2.65.07-5.3.25-7.94.28-1.26,0-2.52-.05-3.78-.06s-2.56,0-3.83.09a71.31,71.31,0,0,1-7.45-.16q-2-.12-4.08-.06c-1.3,0-2.6.14-3.9.12s-2.67-.11-4-.17-2.82,0-4.23,0c-1.24,0-2.48,0-3.71,0s-2.68,0-4,0c-2.5,0-5,0-7.51-.1-1.25,0-2.5,0-3.74,0s-2.75-.07-4.13-.08c-2.7,0-5.37.34-8.07.36-1.31,0-2.63,0-3.93,0-1.45,0-2.9.07-4.35.16-.75,0-1.49.13-2.25.16s-1.47,0-2.2,0c-1.25-.06-2.5-.12-3.75-.15-1.4,0-2.81,0-4.21.14-1.2.08-2.42.06-3.63.07-2.69,0-5.38,0-8.07.08-1.42,0-2.83.2-4.26.23-1.15,0-2.29-.07-3.43-.13s-2.55-.07-3.83,0c-1.44.07-2.87.08-4.31.12-.76,0-1.53,0-2.29,0H44.42c-1.35,0-2.71,0-4.06.09-1.56.07-3.12.14-4.68.16-1.17,0-2.34,0-3.52,0-2.54.05-5.08.28-7.61.29-1.36,0-2.72,0-4.07.07-1.18,0-2.34.12-3.51.12-.92,0-1.84,0-2.75-.06-1.11,0-2.23,0-3.33.08a3,3,0,0,0-2,.7,2.84,2.84,0,0,0-.91,2,2.78,2.78,0,0,0,2.66,2.87c1.43-.05,2.86-.1,4.3-.05,1.2,0,2.39.05,3.6,0a5.12,5.12,0,0,1,.56,0v0s.06-.07.12-.11l.12-.11.47,0,.43,0h.43l.46,0,.48,0,.51,0h1.93c.9,0,1.74,0,2.88-.06h1.11c1.83-.09,3.77-.18,5.61-.2,2.07,0,3.68,0,5.53-.14l1.57-.05,1.59,0c1.24,0,2.47,0,3.71,0s2.57,0,3.85,0l1.47-.05.62,0h2.19l.61,0h1.33l.24,0h.39l.2,0h.6c.36,0,.72,0,1.08,0,1.06,0,2,0,2.77-.09l3.05-.13H65.8c1.27,0,2.55,0,3.83,0h3.84c.77,0,1.54,0,2.35-.1l.36,0,.62,0,.6-.05,1.58,0c.88,0,1.7,0,2.48.07l.92,0c.74.05,1.61.1,2.45.1h.58c.48,0,1,0,1.78-.09l.27,0,.23,0,.19,0,.23,0c.65,0,1.3-.1,2-.13h5c1.38,0,2.29,0,3-.07l1-.06.31,0,.4,0,.49,0,.51,0,.48,0,.59,0c.69,0,1.39-.05,2.08-.05l1.24,0h1.06c.84,0,1.67,0,2.52.05h1c1.28,0,2.56,0,3.84.06,1.09.05,2.32.07,4.12.07h4l2.39,0,1.13,0h.57q.75,0,1.5,0h2c.94,0,1.87.06,2.81.1,1.15.07,2.22.1,3.57.1l1.53,0,.38,0h.88l.31,0h.6c.41,0,.82,0,1.24,0h.83c.57,0,1.14.06,1.73.1h.37l.36,0,.35,0,.77,0c1.08.06,2.05.1,3,.1,1.37,0,2.71,0,4.21-.11l.57,0c.52,0,1,0,1.56,0h4c.64,0,1.28,0,2,0h.16l.72,0H162c2.11-.08,4.26-.16,6.43-.2h3.84c.83,0,1.67-.05,2.38-.09l.25,0,.76,0,.71-.06c1,0,1.94-.07,2.85-.07h.88c.91,0,1.81.09,2.48.14l.33,0,.66,0,.66,0c.72,0,1.43.05,2.15.05s1.58,0,2.37,0h4.71c1.07,0,1.94,0,2.78-.06l1.45,0c.76,0,1.5,0,2.24,0l.83,0c1.21,0,2.44,0,3.66,0,1.43,0,2.92,0,4.38.05l.33,0c1.14,0,2.36.08,3.56.08h.15c.89,0,1.76,0,2.74-.06l.89,0,1.43,0h.9l.31,0,1.11-.07,1.14,0h.92l.42,0h5.27c.6,0,1.21,0,1.82-.06H230c.54,0,1.09-.05,1.64-.05H232c1.9,0,3.8.07,5.7.07.79,0,1.57,0,2.36,0h.61c.76,0,1.63,0,2.82.09l1.05,0c.55,0,1.09,0,1.64,0l.55,0,.87,0h.59l2,0h2.06l.58,0c1.14,0,2.27.06,3.4.06h4l.65,0,2.45.1.76,0c.49,0,1,0,1.47,0h.24l.56,0,1.33,0c1.21.06,2.25.09,3.26.09H272c.92,0,1.81-.07,2.79-.13l1.4-.09h.34l.94,0c.75,0,1.52,0,2.27.06h1.08c.81,0,1.63,0,2.41-.08l.23,0,1-.06c.58,0,1.14,0,1.7,0,.76,0,1.43,0,2.08.06,2.42.18,5,.26,7.7.26h.49l.55,0,.53.2h.25l1.51.16a2.76,2.76,0,0,0,3.18-1.12,2.8,2.8,0,0,0-.84-3.83,6,6,0,0,0-2.6-.61,14.45,14.45,0,0,0-1.45-.13c-1.16,0-2.31,0-3.47-.05s-2.46,0-3.7-.1-2.45-.16-3.67-.21c-1.41,0-2.85.12-4.26.18s-2.89,0-4.33,0-2.57.08-3.86.15-2.87.13-4.31.11-2.63-.13-3.95-.16-2.53-.06-3.79-.11-2.59-.12-3.88-.1-2.61,0-3.92,0c-2.9-.09-5.78-.13-8.68,0-1.27.06-2.56-.06-3.84-.1s-2.6,0-3.9,0c-1.06,0-2.11,0-3.16,0-1.56,0-3.12-.08-4.68,0-2.58.09-5.16.09-7.75.06s-5.09.08-7.63.2-5.33-.08-8-.09-5.51-.06-8.28-.12c-.7,0-1.41,0-2.12,0s-1.63,0-2.44.05-1.6,0-2.4,0h-1.8c-1.2,0-2.42,0-3.62,0-1.39,0-2.78-.09-4.16-.19-.9-.07-1.82-.09-2.72-.09-1.58,0-3.15.08-4.72.2Z"/><path class="cls-1" d="M14.29,4.21c-1.09.06-2.18.11-3.27.1a36.13,36.13,0,0,0-4.53.19,8.55,8.55,0,0,0-.88.17A4.71,4.71,0,0,0,5,4.86a4.67,4.67,0,0,0-1.51.76,2.79,2.79,0,0,0-1,2.8,3.05,3.05,0,0,0,2.11,2.19,8,8,0,0,0,2,.31C7.3,11,8,11,8.73,11c1.16.05,2.31.06,3.47.11,2.86.1,5.73.21,8.6.24,6.11.07,12.22.2,18.33.46s12,.8,18,.76c2.95,0,5.89.1,8.83.25,1.39.07,2.78.11,4.18.18s3.11.08,4.66.05c2.89,0,5.76-.43,8.65-.36s5.72.18,8.58.14,5.53-.32,8.3-.44c1.86-.08,3.72-.07,5.58-.05h3.13c6-.06,12,0,18,0,3,0,6-.11,9-.17s6.05-.12,9.07-.26,5.84-.3,8.76-.41,5.63-.18,8.45-.26c3.18-.1,6.36-.15,9.54,0,2.86.1,5.71.31,8.56.33,1.49,0,3-.06,4.45-.06,1.65,0,3.31,0,5,0,2.89,0,5.78-.23,8.68-.18,1.39,0,2.78.14,4.18.22s3,.18,4.5.25c3,.12,6-.11,8.95-.24s5.9-.37,8.85-.46,5.86-.12,8.8-.15c1.39,0,2.79,0,4.19,0,1.62,0,3.25,0,4.88,0,.7,0,1.41,0,2.12,0s1.57-.08,2.36-.11c1.29-.06,2.57-.16,3.86-.14,2.82.05,5.63.26,8.43.39,1.33.06,2.67,0,4,0,1.14,0,2.27,0,3.41,0,1.58,0,3.16.11,4.73.11,1.72,0,3.46-.24,5.16-.41,1-.08,2.06-.13,3.1-.11s2.31.09,3.47.11,2.15.05,3.23,0,2.37-.08,3.57-.1a28.35,28.35,0,0,1,4,.2c1.1.14,2.2.3,3.3.36a17.84,17.84,0,0,0,4.38-.2,17.59,17.59,0,0,0,4.06-1.57,2.76,2.76,0,0,0-2.52-4.92c-.63.3-1.27.6-1.91.87a11.54,11.54,0,0,1-1.55.33,41.62,41.62,0,0,1-5.9-.44,43.85,43.85,0,0,0-6.78-.07c-1.92.06-3.85,0-5.77-.09-1.13,0-2.26-.08-3.39,0s-2.47.21-3.71.33-2.44.16-3.67.16-2.68-.08-4-.12c-1.16,0-2.31,0-3.46,0-1.31,0-2.63,0-3.95,0-2.84-.12-5.68-.36-8.52-.37-1.31,0-2.63.1-3.93.17-1.46.08-2.9,0-4.35.09-1.67,0-3.32,0-5,0-1.36,0-2.71,0-4.07,0-3,0-5.95.07-8.93.17s-5.9.33-8.86.46-5.82.33-8.74.2-5.91-.41-8.87-.46-5.91.17-8.86.2h-4.55c-1.56,0-3.14.06-4.71,0-2.9,0-5.82-.25-8.73-.36-3.13-.1-6.26,0-9.39.09-2.83.08-5.66.16-8.48.27s-5.82.27-8.72.41c-1.49.07-3,.14-4.49.17s-3,0-4.48.07c-2.76.09-5.52.12-8.28.13a2.45,2.45,0,0,0-1.62-.6c-2.9.24-5.83.33-8.74.35s-5.91-.06-8.85-.33c-1.52-.13-3-.24-4.57-.34S100.59,5.6,99,5.49s-3.08-.09-4.62-.08H92.5c-.91,0-1.82,0-2.73,0-3.14.09-6.29.21-9.43.07-2.84-.13-5.68-.26-8.51-.23S66,5.18,63.09,5c-1.33-.1-2.63-.25-4-.23-1.49,0-3,.07-4.46.18A75.13,75.13,0,0,1,45.42,5c-1.42-.07-2.83-.23-4.26-.28s-2.94,0-4.41.07-3,.21-4.56.3A38,38,0,0,1,27.79,5c-1.45-.09-2.87-.29-4.3-.44s-2.84-.26-4.26-.37q-.93-.06-1.86-.06c-1,0-2.06,0-3.08.09ZM277,10.76l-.66.06.66-.06Z"/><path class="cls-1" d="M18.71,0a23.68,23.68,0,0,0-2.52.16c-1.91.15-3.83.18-5.74.21a31.88,31.88,0,0,1-4.26,0C6.05.28,5.91.25,5.78.2A3.38,3.38,0,0,0,4.11.1,3.2,3.2,0,0,0,2.69.82a2.72,2.72,0,0,0-.93,1.37,3.58,3.58,0,0,0-.07,1.56,2.4,2.4,0,0,0,.11.48,6.84,6.84,0,0,0,0,1,2.17,2.17,0,0,0,.07.24,3.22,3.22,0,0,0,.67,1.33A1.7,1.7,0,0,0,2.82,7a4.78,4.78,0,0,0,.06.53A4.51,4.51,0,0,0,3.1,9.63c0-.07-.05-.13-.07-.2a9,9,0,0,1,.27,1.14,4.77,4.77,0,0,0,.13.83,10.61,10.61,0,0,0,.41,1.2A6.52,6.52,0,0,0,4.7,14l.28.41.54.82A3,3,0,0,0,7.16,16.6a2.78,2.78,0,0,0,3.47-1.83,2.69,2.69,0,0,0-.19-2.08c-.42-.67-.87-1.32-1.32-2-.1-.16-.2-.33-.29-.51a2.75,2.75,0,0,1-.09-.5c0,.07,0,.13,0,.2A8.52,8.52,0,0,0,8.4,8.17a2.42,2.42,0,0,0,.07-.54A3.72,3.72,0,0,0,8.3,6.45V6.3c0-.12,0-.25,0-.37l1.19,0c2.4,0,4.82-.07,7.21-.29a44.88,44.88,0,0,1,4.92,0c1.07,0,2.13,0,3.2,0,1.31,0,2.62,0,3.93.08s2.8.11,4.2.07a30.67,30.67,0,0,1,3.71.07c1.19.11,2.38.19,3.57.25,1.41.07,2.81.1,4.21.27a25,25,0,0,0,4.06.12c2.61-.09,5.22-.23,7.83-.33A79.84,79.84,0,0,1,64.64,6c1.28.08,2.57.07,3.86.1s2.66,0,4,0c2.64,0,5.26-.11,7.89-.26s5-.11,7.55-.11,5.15-.11,7.73-.1c1.33,0,2.66.13,4,.19s2.89,0,4.33-.09,2.71,0,4.07,0h1.87c.94,0,1.87,0,2.81,0,1.15,0,2.31.1,3.46.11h3.93c1.33,0,2.66-.07,4,0s2.52,0,3.78.07c1.45.06,2.89.13,4.35.09,1.2,0,2.41,0,3.61,0s2.66,0,4,0,2.58,0,3.88,0,2.46,0,3.69,0,2.3,0,3.45,0c2.33-.06,4.67.1,7,.13,2.65,0,5.29,0,7.93,0,1.1,0,2.19,0,3.29.07,1.42,0,2.84.11,4.26,0,1.23,0,2.46-.16,3.69-.29,2.46-.19,4.92-.11,7.39-.16,1.31,0,2.63-.1,3.94-.16s2.58-.06,3.86-.06c2.6,0,5.19.18,7.78.29,1.3.07,2.59.06,3.89.09s2.68.07,4,.11,2.73.06,4.09.06c.6,0,1.2,0,1.8,0,.82,0,1.64-.06,2.47,0,1.35,0,2.7.16,4.05.21,1.09,0,2.18,0,3.27.07,1.4.11,2.81.13,4.21.12s2.53-.16,3.79-.17c2.36,0,4.71,0,7.07-.06,1.52,0,3.06-.1,4.58-.08s3,0,4.49-.08S251,6,252.61,6c.9,0,1.79,0,2.69,0,1.31,0,2.63.07,3.94.07s2.56-.07,3.83,0,2.55.16,3.83.22a31,31,0,0,0,4.2-.17h.07l-.66.06c1.8-.15,3.58.13,5.37.15.94,0,1.89-.1,2.83,0s2.16.13,3.24.22c1.95.17,3.91.37,5.87.44l3,.09a22.21,22.21,0,0,1,2.55.32h0l.19,0,.52.09-.41-.07c.9.14,1.79.24,2.69.37a7.1,7.1,0,0,0,1.38.23,2.77,2.77,0,0,0,.21-5.53l-.23,0c-.86-.14-1.72-.25-2.59-.37-1.12-.2-2.23-.39-3.36-.51s-2.17-.09-3.25-.14c-2.17-.1-4.34-.29-6.52-.47-1.08-.1-2.17-.2-3.26-.22-.52,0-1,0-1.54,0s-1,0-1.53,0c-1.07,0-2.13-.17-3.2-.18-.82,0-1.62,0-2.43.11a30.62,30.62,0,0,1-3.71,0c-1.24-.08-2.5-.2-3.75-.18s-2.61,0-3.92,0-2.8-.08-4.2-.06-2.57-.08-3.86-.1-2.47.12-3.7.18c-.89,0-1.79,0-2.69,0h-1.79c-1.46,0-2.92.08-4.38.11-1.07,0-2.15,0-3.22,0-1.27,0-2.54,0-3.8,0S228.34,1,227,1s-2.67-.11-4-.18-2.39,0-3.59-.07c-1.35,0-2.69-.2-4-.17s-2.71.09-4.06.08-2.75-.05-4.12-.1c-2.62-.1-5.26-.09-7.88-.2-1.35-.06-2.7-.18-4-.21s-2.51,0-3.76,0c-2.63,0-5.25.19-7.87.22-1.31,0-2.62,0-3.93,0-1.49,0-3,.15-4.44.29-1.25.08-2.49.13-3.73.1s-2.74-.09-4.11-.11c-1.15,0-2.31,0-3.45,0-.75,0-1.49,0-2.23,0h-1.63c-2.5,0-5-.09-7.5-.14-1.2,0-2.39,0-3.58.05s-2.26,0-3.4,0c-.61,0-1.22,0-1.83,0s-1.29,0-1.93,0c-1.4,0-2.8-.05-4.2-.06h-3.76c-1.32,0-2.65.09-4,0C127.08.3,124.2.33,121.31.36c-2.28,0-4.57,0-6.85,0-1.43,0-2.85,0-4.28,0S107.4.27,106,.22s-2.91.06-4.35.11-2.6-.07-3.9-.14c-2.53-.12-5.07-.06-7.59,0-1.35,0-2.69,0-4,0s-2.53,0-3.8,0c-2.6.06-5.2.29-7.8.32s-5.18,0-7.76,0c-1.47,0-2.93-.12-4.4-.11S59.48.5,58,.55q-3.87.14-7.75.32C49,.93,47.7,1,46.4,1S43.68.66,42.31.61,39.73.54,38.44.43,35.93.2,34.67.2s-2.67.09-4,0S27.91.13,26.54.08H24.93c-.64,0-1.27,0-1.9,0C21.86,0,20.68,0,19.5,0ZM295.3,2.17l.36.06-.36-.06ZM8.24,6.27v0h0v0Z"/><path class="cls-1" d="M14.15,12.6c-.12.9-.2,1.79-.33,2.68-.19,1.23-.37,2.46-.5,3.7-.25,2.49-.15,5-.27,7.49-.07.76-.14,1.52-.18,2.27s-.06,1.76-.12,2.64c0-.23,0-.47.06-.69-.12,1.56-.19,3.12-.26,4.68s-.31,3-.43,4.52c-.13,1.7-.16,3.43-.21,5.16s-.06,3.52-.11,5.28c-.05,1.58,0,3.16-.07,4.75-.11,1.17-.27,2.32-.4,3.48a38.12,38.12,0,0,0-.21,4.4c0,1.18.1,2.38.1,3.57s-.06,2.59-.06,3.88q0,4,0,8.06c0,2.54,0,5.07,0,7.6,0,1.42.08,2.84.19,4.26s.2,2.6.23,3.89-.08,2.79-.05,4.19c0,.77.08,1.54.07,2.3,0,.49,0,1,0,1.49-.21,2.4-.45,4.81-.57,7.23-.1,2.11,0,4.2,0,6.3.08,3.77.18,7.56,0,11.33-.08,1.16-.16,2.33-.15,3.52s.07,2.44.12,3.66c.09,2.28.11,4.57,0,6.86-.06,1.39-.11,2.78-.14,4.18,0,1.25-.09,2.5-.08,3.75,0,2.4.2,4.79.27,7.19s0,4.74-.11,7.12-.16,5-.22,7.5-.14,5,0,7.57c.05,1.25.08,2.5.09,3.76s-.1,2.46-.08,3.7c0,.69,0,1.39,0,2.09s0,1.14.05,1.71c0,1.25,0,2.5.07,3.75s0,2.4-.11,3.6-.12,2.59-.15,3.89-.11,2.74-.1,4.1c0,1.16.15,2.31.18,3.46.08,2.54,0,5.07.06,7.61,0,1.8.06,3.6,0,5.39-.2,2.54-.23,5.09-.2,7.64,0,1.09,0,2.19,0,3.28s.12,2.26.15,3.4c.05,2.45.12,4.91.18,7.36,0,1.32,0,2.65.11,4s.14,2.37.18,3.56.15,2.4.22,3.6.08,2.55.14,3.82c.13,2.51.41,5,.61,7.52.17,2.27.34,4.53.41,6.8.1,2.64-.09,5.29-.21,7.94-.09,1.75-.16,3.5-.27,5.25s0,3.35,0,5l-.18,1.91a3,3,0,0,0,.38,2.05,2.79,2.79,0,0,0,3.83.83,2.67,2.67,0,0,0,1.21-1.78c.15-1.57.33-3.16.33-4.74,0-.74,0-1.49,0-2.23h0l-.22-.11c0-.52,0-1,0-1.55.21-3.1.34-5.74.4-8.09l0-1.06v-.23c0-.7.06-1.5.05-2.35,0-1.23-.08-2.49-.14-3.62,0-1.53-.18-3-.33-4.55l0-.33,0-.37L17,262.74c-.21-2.58-.36-5-.5-7.58,0-1.25-.11-2.51-.18-3.75,0-.54-.07-1.08-.09-1.63l0-.36v-.6c0-.27,0-.56-.05-.84-.09-1.35-.13-2.71-.19-4.47V243q0-1.46-.09-2.91c0-1,0-2.06-.06-3.09v-.52c0-.8,0-1.59-.08-2.41L15.69,233c0-.93,0-1.84,0-2.77v-.32c0-.6,0-1.21,0-1.82,0-1.66,0-3.51.09-5.49.13-1.46.19-2.72.19-3.86s0-2.47-.06-3.87c0-.89,0-1.78,0-2.84v-.45c0-1.34,0-2.73-.09-4.18v-.45c-.06-1-.12-2.12-.12-3.21,0-.79,0-1.59.06-2.4l0-.57,0-1.15c0-1.05.09-2.11.15-3.15v-.19l0-.34c.07-1,.08-2.09,0-3.64l0-.82v-.82c0-.71,0-1.41,0-2.12,0-1.31,0-2.67,0-4.06a67.25,67.25,0,0,0-.06-7.28c0-1,0-2.14,0-3.29v-.49c0-.56,0-1.13,0-1.69v-.57l0-1.51c0-2.33.12-4.73.22-7.18v-.34a67.9,67.9,0,0,0,.05-7.08c0-.68-.06-1.34-.1-2v-.63c-.06-1.21-.14-2.87-.13-4.48s.1-3.51.18-5.25l0-1c0-.59,0-1.17.05-1.76.09-2.1.06-4.31-.08-7.31,0-.87-.09-2.69,0-4.25s.21-3.25.22-5.29v-2.18a27.89,27.89,0,0,0,0-2.87c-.12-3.27-.2-6.8,0-10.5l.11-1.2.11-1a41,41,0,0,0,.29-5.86v-1.2c0-.87,0-1.69,0-2.54A32,32,0,0,0,16.77,92l-.12-1.64,0-.68,0-.47-.07-.89c-.05-.85-.06-1.69-.07-2.53V85c0-.18,0-.35,0-.55,0-.76,0-1.53,0-2.3V79c0-.78,0-1.55,0-2.32,0-.4,0-.79,0-1.17V73.13c0-1.71,0-3.48,0-5.25,0-1,0-2.16,0-3.53v-.26c0-1.59,0-3,0-4.05l0-.32,0-.29,0-.3,0-.26,0-.36.05-.39.05-.49c.12-.93.22-1.85.28-2.76,0-.58,0-1.14,0-1.72v-.76c0-.62,0-1.23,0-1.85V50c0-.84.05-1.69.06-2.54l0-.84c.06-2.48.1-4.25.2-6.2.07-.76.15-1.52.23-2.38l.15-1.59c.07-.76.12-1.53.16-2.68v-.28a8.38,8.38,0,0,1,.19-1.59c0-.08,0-.15.05-.23h0l0,0v0h0l0,0H18c0-.6.07-1.19.09-1.79v-.21l0-1,0-.26a35.17,35.17,0,0,0,.22-3.53V23.38c0-.93,0-1.85.07-2.79.22-1.83.35-2.86.52-3.79l.1-.26.06-.29s.06-.07.12-.11l0,0c.11-.81.19-1.61.3-2.41a2.89,2.89,0,0,0-.39-2.05,2.78,2.78,0,0,0-1.77-1.22,2.94,2.94,0,0,0-.51,0,2.75,2.75,0,0,0-2.75,2.21Zm-2.63,89.91c0,.08,0,.17,0,.26,0-.09,0-.18,0-.26Z"/><path class="cls-1" d="M302.44,129.49a2.72,2.72,0,0,0,1,1.89,2.9,2.9,0,0,0,2,.66,2.77,2.77,0,0,0,1.58-4.87,2.9,2.9,0,0,0-2-.66,2.77,2.77,0,0,0-2.54,3Z"/><path class="cls-1" d="M114.34,69.79c-.72,0-1.44,0-2.18,0l-1.31,0h-1.32l.08,0h-.74c-1,0-2,0-2.92.08-1.23.05-2.45.09-3.68.09-.69,0-1.39,0-2.11.11-.47,0-1,.08-1.43.1-.91,0-1.82.07-2.73.09l-.44,0h-.27l-.84,0-1.18,0-.58,0h-.26l-.31,0c-.44,0-.87-.05-1.31-.06h-.19a13.53,13.53,0,0,0-1.42.09l-.29,0-.18,0h-.29A2.77,2.77,0,0,0,85.89,72a2.87,2.87,0,0,0-1.53,1.79,21.06,21.06,0,0,0-.3,4.48v.32c0,.41,0,.84,0,1.25,0,1.32,0,2.64,0,4s0,2.55,0,3.82-.13,2.33-.3,3.9l0,.23C83.55,93,83.45,94,83.42,95c0,1.62,0,3.22,0,4.77v.32c0,.7,0,1.41,0,2.12,0,1.48,0,3,0,4.45v.89c0,3.41.07,6.25,0,9.21l0,.66c0,1-.06,2.07-.05,3.11,0,.7,0,1.4.08,2.11l0,1.32c0,.8,0,1.6.06,2.6,0,1.64.07,3.33.2,5l.06.71c.06.88.12,1.8.11,2.7,0,.44,0,.88-.07,1.47l0,.21c0,.74-.09,1.47-.09,2.21,0,.53,0,1.06.06,1.58l0,.41c0,.69.06,1.37.06,2.06s0,1.6,0,2.4v2.24c0,1.15,0,2.29,0,3.43s-.1,2.38-.11,3.66c0,.48,0,1,0,1.45,0,.76,0,1.53,0,2.29s.06,1.58.1,2.38c0,.52.07,1,.08,1.57,0,1.2,0,2.41,0,3.58v1c0,1,0,2.22,0,3.36,0,.37,0,.74,0,1.14v.22l0,.51v.23c.06,1.29.15,3,.1,4.7L84,180.66l-.11,3.55c0,1.1-.14,2.13-.29,3.57-.1,1-.2,1.9-.25,2.86,0,.39,0,.79-.06,1.19s0,1.07-.08,1.6-.08.85-.13,1.3l0,.33-.11,1c0,.55-.06,1.09-.07,1.64v.88c0,.22,0,.44,0,.65s0,.38,0,.58a9.39,9.39,0,0,0,.11,1.94c.06.49.18,1,.33,1.64.07.24.13.49.18.74.1.42.2.85.29,1.27l.13.58.07.29.07.28a3,3,0,0,0,1.72,2.21c.79-.08,1.59-.13,2.38-.17h.23a.55.55,0,0,1,.19,0l.15-.1a2.73,2.73,0,0,1,.45-.06l.55,0H90a4.12,4.12,0,0,0,1-.13,5.37,5.37,0,0,1,.72.06l.3,0,.53,0,.62,0h1.31l.74,0a9,9,0,0,0,1.38-.11l.32-.08.32-.08h.16c.31,0,.63,0,1-.08a1.24,1.24,0,0,0,.32,0l.14,0,.35-.11.89-.08a3.48,3.48,0,0,1,.55,0l.35.07.18.05.14,0c.6-.08,1.19-.16,1.79-.19l1.88-.16.47,0,1.43-.11a2.59,2.59,0,0,0,.39-.8,2.55,2.55,0,0,0,.88-1.89c0-.87-.12-2.06-.27-3.21l-.09-.68-.06-.37,0-.29,0-.26-.09-.67c0-.66-.06-1.32-.08-2s0-1.15-.07-1.72c-.07-1.25-.1-2.55-.1-3.85,0-.83,0-1.65.1-2.47,0-.61.07-1.22.08-1.83a23.62,23.62,0,0,0-.2-3.43l-.06-.53a22.19,22.19,0,0,1,.1-2.67v-.19l0-.48a22.73,22.73,0,0,0,.08-3.73l-.09-1.14q-.07-.9-.12-1.8c0-.81,0-1.63,0-2.43V170a2.62,2.62,0,0,0,0-.28c0-.53,0-1.06,0-1.6v-.27c0-.52,0-1.05,0-1.58,0-1,0-2,0-3,0-.63,0-1.26,0-1.9l0-.67.05-.57V160h0v-.06a11.79,11.79,0,0,0,2,.28h.49a19.36,19.36,0,0,0,2.19-.14l.8,0h.19a11.18,11.18,0,0,0,1.29-.09l.71-.08c.56-.07,1.11-.13,1.66-.23s.89-.13,1.36-.18l.2,0,.16,0,.16,0,1-.12c.69-.09,1.38-.16,2.07-.22l.91-.09,1.9-.23,1.31-.16c1.44-.16,2.52-.31,3.51-.52s2-.45,3-.72l.16,0,.15,0,.78-.21c1.24-.34,2.44-.77,3.41-1.12a47.89,47.89,0,0,0,6.61-3.25c1.2-.68,2.33-1.39,3.45-2.16l.64-.43.25-.16.14-.08.42-.27c.54-.35,1.09-.69,1.61-1.07l.57-.42.39-.29c.55-.42,1.18-.89,1.83-1.3,1.18-.77,1.93-1.29,2.62-1.8a25.08,25.08,0,0,0,2.76-2.47,29.12,29.12,0,0,0,2.12-2.24,18.21,18.21,0,0,0,1.44-2,23.41,23.41,0,0,0,2.35-4.63l.33-1c.38-1.11.76-2.22,1.12-3.35.25-.78.49-1.55.72-2.33.13-.47.26-.94.41-1.51l.11-.44.17-.67.15-.52a21.65,21.65,0,0,0,.61-2.58,18.06,18.06,0,0,0,.16-2.93c0-.32,0-.56,0-.79l0-.25c0-.22-.06-.44-.07-.66,0-.65-.08-1.3-.15-1.94,0-.3,0-.61-.06-.91s0-.71-.09-1.06l0-.44c0-.29-.09-.59-.11-.9,0-.1,0-.21,0-.31a3,3,0,0,0-.4-1.8,21.74,21.74,0,0,1-.27-2.62c0-.26,0-.52,0-.78l0-.32v-.66a7,7,0,0,0,0-1c0-.24-.08-.47-.13-.69s-.17-.69-.26-1a18.77,18.77,0,0,0-.78-2.4l-.23-.58-.13-.32c-.23-.55-.45-1.1-.67-1.65-.31-.84-.63-1.67-1-2.49-.22-.51-.47-1-.72-1.47L162,92l-.06-.15-.13-.25c-.44-.92-.85-1.75-1.31-2.56a17.34,17.34,0,0,0-2-2.75,20.47,20.47,0,0,0-2.78-2.71c-.6-.5-1.18-1-1.76-1.52l-.7-.61-.53-.5c-.39-.39-.78-.77-1.2-1.13s-.92-.7-1.39-1A19.19,19.19,0,0,0,147,77c-2.18-1-4-1.76-5.93-2.49l-1-.38-2-.74a25.22,25.22,0,0,0-3.56-1l-2-.43-.32-.06-1.07-.23c-.56-.12-1.1-.22-1.66-.32l-.32-.06-1.59-.3a27,27,0,0,0-3.87-.42l-.54,0c-.69-.06-1.38-.16-2.28-.3a15.84,15.84,0,0,0-2.14-.21l-1.21-.08h-.23l-.21,0-.19,0c-.74,0-1.49-.09-2.24-.09h-.41Zm-7.06,22.85c1-.08,2.07-.13,3.31-.16,1,0,2,.13,2.87.21h.17a35.3,35.3,0,0,0,3.68.25,30,30,0,0,1,3.75.31,31.12,31.12,0,0,1,3.27.59c.9.25,1.79.52,2.68.81a15.9,15.9,0,0,1,2.69,1.06A35.79,35.79,0,0,1,133,98a10.22,10.22,0,0,1,.8.73l.12.13.36.35.7.67.46.43q.45.51.87,1.05l.22.26.42.5a16.38,16.38,0,0,1,1.29,1.8,21.64,21.64,0,0,1,1.94,4.28c.11.45.22.89.36,1.32l.11.31.11.32.16.45c.14.62.23,1.23.32,1.84l.05.33,0,.35a11.74,11.74,0,0,1,.16,1.17,15.79,15.79,0,0,1-.41,3.1l-.13.47c-.15.52-.29,1-.41,1.55-.05.27-.1.55-.14.83l-.09.44a2.8,2.8,0,0,1-.06.28c-.25.81-.56,1.61-1,2.65a20.26,20.26,0,0,1-1,2.36l-.3.47-.15.25c-.3.47-.6.94-.87,1.43a15.92,15.92,0,0,1-2,2.55l-.24.23a17.49,17.49,0,0,1-2.75,2l-.17.1c-.95.53-2,1.08-3,1.53l-.42.19a19.61,19.61,0,0,1-2.32.93,21.12,21.12,0,0,1-2.09.36l-1.17.17c-.65.11-1.31.16-2,.22s-1.25.09-1.87.19-1.37.15-2.31.22c-.42,0-.85.05-1.27.09l-.48,0c-.41,0-.83.06-1.31.14a12.15,12.15,0,0,1-1.21.17h-1l-1.59,0H109q-1.14,0-2.28.06a4.75,4.75,0,0,0-.52.07h-.15c0-.86,0-1.74,0-2.61,0-.48,0-1,0-1.45l0-.94c0-1,.06-2,0-3,0-.54,0-1.08,0-1.62,0-.77,0-1.53,0-2.29s0-1.39-.07-2.11l-.06-1.51c0-.44,0-.88-.06-1.35l0-.29c0-.53-.07-1.08-.08-1.62v-.94l0-1.41c0-.73,0-1.48,0-2.22l0-1.39c0-1.27.06-2.62,0-4v-.38c0-2.11.18-4.29.3-6.4v-.55l.06-1q.06-.83.15-1.65l0-.25c.08-.79.16-1.59.19-2.4,0-1,0-2,0-2.81l0-.43v-.12h0v0h0v0a1.59,1.59,0,0,0,.42,0Z"/><path class="cls-1" d="M227.07,102.58l-1.84.08-.45,0-.39,0h-.33c-.85,0-1.7.07-2.54.14-.42,0-.84.06-1.25.1l-.25,0-.35,0c-.62.06-1.24.13-1.86.17-1.13.06-2.26.18-3.46.3l-.19,0-1,.1a27.54,27.54,0,0,0-3.1.38l-1.92.35-.49.12-1.17.23a30,30,0,0,0-3.56.82c-.83.26-1.66.5-2.49.74l-.7.2-.38.11c-1.76.51-3.58,1-5.33,1.65a16.26,16.26,0,0,1-2.15.6l-.15,0c-.55.14-1.1.27-1.64.45a22.87,22.87,0,0,0-3.75,1.7,2.38,2.38,0,0,0-.88.9,2.74,2.74,0,0,0-.85,2.06c0,2.84.17,5.87.28,8.54l.11,2.63.29,7.19c.05,1.25.15,2.5.24,3.74s.18,2.34.23,3.52l0,.57c0,.52.05,1,.05,1.56s0,1.14-.07,1.7v.17l0,.3a15.91,15.91,0,0,0,.08,2.59l0,.31c0,.27,0,.53,0,.84l0,.79c.05,1.09.11,2.33.08,3.52v1.21c0,.72,0,1.44-.06,2.16v0l0,0a27,27,0,0,0-.16,4c0,.49,0,1,0,1.47v1.26c0,.3,0,.59,0,.89l.06,1.5c0,.83.08,1.66.07,2.49,0,.5,0,1,0,1.49,0,.92,0,1.86-.06,2.78l0,.14v.15l0,.2V172c0,.44-.06.9-.08,1.37v.3c0,.4,0,.8-.06,1.21-.06.88-.06,1.8,0,2.67,0,1.46.1,2.91.17,4.44l.06,1.5c0,.56,0,1.13,0,1.69l0,.49v.5c0,1,0,1.95.07,2.92s.07,1.91.11,2.86c0,.56,0,1.11,0,1.66,0,.4,0,.81,0,1.21v.67a30.46,30.46,0,0,1-.08,3.15,23.55,23.55,0,0,0-.08,2.87c0,.44,0,.9,0,1.34V203c0,.36,0,.71,0,1.06s0,.93.05,1.4V206a2.76,2.76,0,0,0,1,2,2.8,2.8,0,0,0,2.35,1.28l2.5-.05h2.33l1.25,0h.31c.53,0,1.07-.05,1.6-.05l.76,0c.67,0,1.34.05,2,.05l1.45,0,1.45-.05H203l.45,0,.68,0h.2c.39,0,.77.08,1.17.09a2.32,2.32,0,0,0,1.76-.76,2.75,2.75,0,0,0,.8-2,5.17,5.17,0,0,0,0-.65c0-.83-.07-1.66-.12-2.62l0-.45,0-.48v-.19c-.08-1.65-.15-3.37-.15-5,0-.4,0-.8,0-1.2s0-.85,0-1.27c0-.87,0-1.73,0-2.6,0-.44,0-.89,0-1.34V190l0-.31,0-.61c0-1-.07-2.07,0-3.11l0-.31V185c0-.43,0-.86,0-1.29a10,10,0,0,1,.1-1.82s0-.06,0-.09a.28.28,0,0,1,0-.09l0,0a.08.08,0,0,0,0,0v0h0l0,.05v0l0,0,0-.22,0-.23a61.67,61.67,0,0,0,.11-7.64c0-1.3,0-2.63.09-4.05,0-.45.05-.89.07-1.33v-.52c0-.51,0-1,.07-1.54l.07-.62.06-.57c.08-.88.13-1.76.19-2.72l.08-1.39,0-.49c0-.38.06-.75.07-1.14s0-.89,0-1.33l0-.72c0-.76,0-1.53,0-2.3q0-.86,0-1.71c0-.87,0-1.73.08-2.59v-.39l0-1.13c0-.45,0-.9,0-1.35,0-.84,0-1.68.08-2.52,0-.61,0-1.22,0-1.83s0-1.21,0-1.83a20,20,0,0,0,0-2.31c0-.47,0-1-.05-1.45,0-1.12.09-2.29.17-3.33v-.34c.05-.67.07-1.21.09-1.76s0-.86.07-1.35.12-1,.21-1.54l.43-.09.41-.08.58-.13.34-.11c1-.26,2.08-.57,3.15-.79l.57-.09,1.35-.21c.41-.07.81-.16,1.22-.25l.59-.13c.89-.13,1.85-.24,3.2-.36.35,0,.69-.06,1-.09l.65-.05c.63-.07,1.25-.14,1.88-.18s1.09-.09,1.63-.14,1.17-.13,1.76-.16c.75,0,1.51-.05,2.27-.05h1.24a2.43,2.43,0,0,0,1.57-.57,2.51,2.51,0,0,0,2.09-2,8.51,8.51,0,0,0,.06-2.25l0-.41-.05-1.33,0-1.33,0-1v-.22a43.45,43.45,0,0,1,0-5.35c0-.57.09-1.14.1-1.72,0-.26,0-.51,0-.84s0-.64,0-1,0-.46,0-.75,0-.51,0-.76c0-.42,0-.84,0-1.26l0-.64a2.73,2.73,0,0,0-2.21-2.53,2.84,2.84,0,0,0-1.48-.38c-1.56,0-3.12.11-4.67.18Z"/><path class="cls-2" d="M179.18,14.29h0c-.91,0-1.84,0-2.85.07l-.72.05-.75,0-.25,0c-.71,0-1.55.09-2.38.09h-3.84c-2.18,0-4.33.12-6.43.2l-.43,0h-.34l-.72,0h-.16c-.69,0-1.33,0-2,0h-4c-.52,0-1,0-1.56,0l-.57,0c-1.5.07-2.84.11-4.21.11-.93,0-1.9,0-3-.1l-.78,0-.35,0-.36,0h-.37l-1.73-.1h-.83c-.42,0-.83,0-1.24,0h-1.79l-.38,0-1.53,0c-1.35,0-2.42,0-3.57-.1-.94,0-1.87-.07-2.81-.09h-1.12l-.45,0h-.38l-1.5,0h-1.7c-.8,0-1.6,0-2.39,0h-4c-1.8,0-3,0-4.12-.07-1.28,0-2.56-.06-3.84-.06h-1c-.85,0-1.68,0-2.52-.05h-1.06l-1.24,0c-.69,0-1.39,0-2.08,0l-.59,0-.48,0-.51,0-.49,0-.4,0-.31,0-1,.06c-.76.05-1.66.07-3,.07h-5c-.66,0-1.3.08-2,.13l-.23,0-.19,0-.23,0-.27,0c-.79.07-1.3.09-1.78.09h-.58c-.84,0-1.71-.05-2.45-.09l-.92-.06c-.78,0-1.6-.07-2.48-.07-.53,0-1,0-1.58,0l-.6,0-.62,0-.36,0c-.81,0-1.58.08-2.35.09H69.63c-1.28,0-2.56,0-3.83,0h-.87l-.45,0c-1,0-2.06.07-3.05.12-.8.07-1.71.09-2.77.09-.36,0-.72,0-1.08,0h-.8l-.39,0-.24,0H54.82l-.61,0-.55,0H52l-.62,0-1.47.05c-1.28,0-2.57,0-3.85,0s-2.47,0-3.71,0l-1.59,0-1.57.05c-1.85.1-3.46.14-5.53.14-1.84,0-3.78.11-5.61.2H27c-1.14.05-2,.05-2.88.05H22.15l-.51,0-.48,0-.46,0h-.43l-.43,0h-.47l-.12.11c-.06,0-.11.11-.12.11l-.06.29-.1.26c-.17.93-.3,2-.51,3.79-.05.94-.06,1.86-.07,2.79v.43l0,1.09c0,1.08-.07,2.1-.21,3.53l0,.26-.05,1v.21c0,.6-.05,1.19-.09,1.79l.17,0a8.18,8.18,0,0,0-.25,1.82v.28c0,1.14-.08,1.92-.15,2.68L17.58,38c-.08.86-.16,1.62-.23,2.38-.1,2-.14,3.72-.19,6.2l0,.84c0,.85,0,1.7-.06,2.54v.55c0,.62-.05,1.23-.05,1.85v.76c0,.58,0,1.14,0,1.72-.06.91-.16,1.83-.27,2.76l-.06.49,0,.38,0,.37,0,.26,0,.3,0,.29,0,.32c0,1.09-.05,2.46,0,4.05v.26c.05,1.37.06,2.55,0,3.53,0,1.77,0,3.54,0,5.25v2.41c0,.38,0,.77,0,1.17,0,.77,0,1.54,0,2.32v3.08c0,.77,0,1.54,0,2.3,0,.2,0,.37,0,.55v.79c0,.84,0,1.68.07,2.53l.07.9,0,.46,0,.68L16.77,92a32,32,0,0,1,.07,3.71c0,.85,0,1.67,0,2.54v1.2a41,41,0,0,1-.29,5.86l-.11,1-.11,1.2c-.2,3.7-.12,7.23,0,10.5.07,1,.06,2,0,2.87V123c0,2-.09,3.82-.22,5.29s0,3.38,0,4.25c.14,3,.17,5.21.08,7.31,0,.59,0,1.17-.05,1.76l0,1c-.07,1.74-.14,3.5-.17,5.25s.07,3.27.12,4.48V153c0,.68.06,1.34.09,2a67.73,67.73,0,0,1-.05,7.07v.34c-.09,2.45-.18,4.85-.22,7.18l0,1.51v.57l0,1.69v.49c0,1.15-.05,2.26,0,3.29a67.22,67.22,0,0,1,.06,7.28c0,1.38,0,2.75,0,4.06,0,.71,0,1.41,0,2.12v.82l0,.82c0,1.55,0,2.68,0,3.64l0,.34v.19c-.06,1-.12,2.1-.15,3.15,0,.38,0,.77,0,1.15l0,.57q0,1.21-.06,2.4c0,1.09.06,2.17.12,3.21v.45c.11,1.45.1,2.84.09,4.18V212c0,1.06,0,1.95,0,2.84,0,1.4.06,2.63.06,3.87s-.06,2.4-.18,3.86c-.08,2-.11,3.83-.09,5.49,0,.61,0,1.22,0,1.82v.32c0,.93,0,1.84,0,2.77l.05,1.11c0,.82.08,1.61.09,2.41V237c0,1,0,2.06.06,3.09L16,243v.48c.05,1.76.09,3.13.18,4.47,0,.28,0,.57.05.84l0,.6v.37q0,.81.09,1.62c.07,1.24.14,2.5.18,3.76.14,2.58.29,5,.5,7.57l.14,1.67,0,.37,0,.33c.14,1.53.28,3,.32,4.55.07,1.13.12,2.39.14,3.63,0,.84,0,1.64-.05,2.34v.23l0,1.06c-.06,2.34-.19,5-.4,8.09,0,.52,0,1,0,1.55l.22.12.16.06.45,0h.82c.29,0,.57,0,.86,0s.84,0,1.34,0l.43,0a18.13,18.13,0,0,1,1.91-.12h.48l.76.06c.65,0,1.31.08,2,.08h.3a13.23,13.23,0,0,1,2-.12,8.28,8.28,0,0,1,1.06.05l1,.13.21,0,.2,0,.14,0,.19,0,.29,0c.48,0,.84.09,1.21.11h.43l1,0h.31l.63,0h1.63l1.12,0H39l.76-.06a21.38,21.38,0,0,1,2.45-.13c.35,0,.7,0,1,0h.17l.29,0c1,.08,1.86.15,2.78.15H47l.87-.08.14,0h.16a17,17,0,0,1,1.92-.11h1.23l1.54,0c.38,0,.76-.1,1.15-.16l.16,0,.28-.05.35-.06.32-.05a17.38,17.38,0,0,1,2.54-.21h.29c.75,0,1.51,0,2.27,0h.5c.55,0,1.09,0,1.63,0a4.87,4.87,0,0,1,.66,0l.93,0c.32,0,.64,0,1,0l.65,0,.3,0,.26,0,.24,0,.46,0h.79c.67,0,1.29.07,1.93.07l.65,0,.81-.05.81-.07,1.43,0c.8,0,1.59,0,2.39,0h2.84l5.5-.1c.36,0,.7,0,1,0a35.51,35.51,0,0,1,4.47.25l.43.06,2.74.32h.23l.18,0h.15a19.19,19.19,0,0,0,2,.14h.35c1-.08,2.16-.11,3.94-.11,1,0,2.27,0,3.51-.07l.42,0a16.42,16.42,0,0,1,1.8-.09h1.13l1,0h1.25c.78,0,1.55,0,2.33-.05l.22,0h.28c1.52-.14,3.07-.21,4.59-.21h.49l1.89.05h1.2l.41,0h1.54c.66,0,1.32,0,2,0,.93,0,1.87,0,2.8,0,1.38,0,2.24,0,3,.09l1.27.09c3,.2,4.58.29,6.22.34h.8c1.24,0,2.43.05,3.47.15l1.24.12.69.07.32,0,1.68.17.81.08.24,0,.24,0,.21,0,.19,0L149,288l1.63.1c.93.07,1.71.13,2.5.16s1.56,0,2.34,0h2a35.61,35.61,0,0,1,3.86.12l1.09.1c.85.08,1.7.15,2.55.2l1.74,0H173c1.32,0,2.47,0,3.53.08l1,.06.32,0,.41,0c.86.06,1.7.12,2.55.16.42,0,.84,0,1.26,0,.72,0,1.44,0,2.17-.06l1.25-.11.19,0,.25,0,.34,0,.22,0,.2,0c.52-.06,1-.09,1.51-.12s1.2,0,1.79-.05,1.24,0,1.84-.05l1.5-.1.63,0,.55,0c.31,0,.61,0,.93,0h.3l.23-.12.19.05c1.06-.07,2.11-.1,3.21-.1h.19l1.19,0h3.35l1.85,0h.45l.47,0h.46l2.43.05,2.36,0,2.35,0h.37l1.59,0h5.43c.46,0,.92,0,1.39,0h1.21l1,0h.23l1.05,0h.42l1.67,0h1.7c.6,0,1.2.05,1.79.05h.73c1.2,0,2.4,0,3.6,0h.68c.81,0,1.66,0,2.75-.08l.87-.07c1.05-.11,1.82-.16,2.57-.17H244c.45,0,.92,0,1.38,0h.27l.68,0c1,0,2.08.05,3.11.05h.3l1.66,0c.65,0,1.29,0,1.94,0h.56a32.73,32.73,0,0,1,3.42.16c1.47.15,2.56.24,3.53.31,1.37.08,2.77.08,4.13.08,1.09,0,2.18,0,3.27,0l.74,0,.42,0h.22l.61,0H271c1,0,1.94.05,2.87.05s1.59,0,2.38,0l1.06-.08c.82-.07,2.12-.17,3.3-.18h.64a36.48,36.48,0,0,1,4.16.23l.3,0,.15,0c.64.06,1.19.12,1.78.12H290l1,0h.53c.52,0,1,0,1.57,0l1.43,0c.95-.08,2-.11,3.62-.11h.31a9.11,9.11,0,0,0,.48-2.54c.08-1.87.05-3.54,0-5v-.7c0-.63,0-1.28,0-1.92s.09-1.12.15-1.58l.06-.56.08-.54,0-.19,0-.22v-.17c.06-.5.11-1,.14-1.48s0-1.23,0-1.76v-.15l-.11-1.61c-.07-.95-.15-1.92-.2-2.88a17.63,17.63,0,0,1,0-2.91c0-.68.07-1.34.08-2v-.61a31.34,31.34,0,0,1,.16-3.7,23.42,23.42,0,0,0,0-3.91l0-.61v-.24c-.05-.84-.09-1.66-.17-2.45-.11-1.08-.14-2.1-.15-3.32v-.58l0-.66,0-.66a15.66,15.66,0,0,1-.05-2.08c0-.33,0-.66.06-1s.05-.59.06-.88c0-.85,0-1.83-.05-3V239l0-.73v-.38l0-.38a35.53,35.53,0,0,1-.06-4.59c0-1.06,0-2.24,0-3.26V229l0-.4c-.09-3.17-.11-6.38-.13-8.52v-.4c0-.28,0-.54,0-.81v-.63l0-.62v-1.55c0-1.15-.06-2.5,0-3.87,0-.86.05-1.73.07-2.6v-.37c.05-1.53.09-3.25,0-5.17-.05-.88-.12-1.76-.21-2.72l0-.43,0-.22a61.41,61.41,0,0,1-.31-6.86l.06-1.72v-.48l0-.48v-1.37c0-.92,0-1.87,0-2.82l0-.77,0-1.1V184c-.06-1-.09-2.16-.09-3.49q-.26-3.78-.47-7.56c-.13-2.53-.28-5.46-.24-8.4,0-.9,0-1.8.06-2.7l0-1.7c0-.74,0-1.49,0-2.22s0-1.39,0-2.08c0-1.14.07-2.26.13-3.44v-.53c.07-1.54.13-3,.13-4.43,0-.74,0-1.46,0-2.18l0-.56v-1a2.27,2.27,0,0,1,0-.52c-.14-2.25-.2-5.1-.21-9q0-1.28,0-2.55v-1.34c0-1.83,0-3.26,0-4.36,0-.49-.07-1-.1-1.49l-.06-.7,0-.5c-.06-.74-.11-1.44-.15-2.13a45,45,0,0,1-.06-5.77c0-.49,0-1,.07-1.5v-.36l0-.37,0-.4,0-.26,0-.45v-.17c0-.62.07-1.21.09-1.81,0-1.83,0-3.59-.09-5.24v-.17l0-.19c-.09-1.63-.23-4.1-.16-6.35s.12-4.86.07-7.45q-.06-1-.09-2v-.24a30.08,30.08,0,0,1-.05-4.15l0-.48v-.5c0-.76.07-1.54.06-2.3,0-.29-.05-.57-.08-.85l-.05-.45,0-.42c-.05-.42-.1-.85-.14-1.27a32.87,32.87,0,0,1-.13-4.46c0-.57,0-1.14.08-1.73l0-.35,0-.34c0-.58.07-1.13.09-1.67,0-1,0-2.17,0-3.46l0-.67c-.07-.88-.19-1.76-.3-2.64l-.05-.39a37.13,37.13,0,0,1-.43-5.43c0-.37,0-.75.06-1.12s0-.82,0-1.22,0-.58,0-.87V51.39c0-1.07,0-2.13.06-3.2s0-2,.05-3c0-1.57,0-3.19.14-4.68,0-.47.08-.94.13-1.47l0-.19,0-.26c.08-.76.15-1.52.19-2.29s0-1.33,0-2c0-1,0-1.59,0-2.24v-.51c.06-1.23.14-2.62.13-3.94a24.43,24.43,0,0,1,.19-3.42l.06-.58.08-.73,0-.19,0-.29,0-.28c.1-1,.16-1.75.16-2.47,0-1.11,0-2.27,0-3.44,0-.36,0-.71-.05-1.07l-.53-.21-.54,0H296c-2.76,0-5.27-.08-7.7-.25-.65,0-1.32-.06-2.08-.06-.56,0-1.12,0-1.7,0l-1.05.06-.22,0c-.78.05-1.61.08-2.41.08h-1.08c-.75,0-1.52-.06-2.27-.06-.31,0-.63,0-.94,0h-.34l-1.4.09c-1,.07-1.87.11-2.79.13h-1.08c-1,0-2.05,0-3.26-.09l-1.33,0-.56,0h-.24l-1.47,0-.76,0c-.85-.05-1.66-.08-2.45-.1l-.65,0h-4c-1.13,0-2.26,0-3.4-.06l-.58,0h-2.05l-2,0h-.59l-.87,0h-.55c-.55,0-1.09,0-1.64,0l-1.05,0c-1.19-.06-2.06-.09-2.82-.09H240c-.79,0-1.57,0-2.36,0-1.9,0-3.79,0-5.69-.07h-.32c-.55,0-1.1,0-1.64.05h-.26c-.61,0-1.22.06-1.82.06h-6l-.59,0-1.14,0-1.11.07-.31,0h-.9l-1.43,0-.89,0c-1,0-1.85.07-2.74.07h-.15c-1.2,0-2.42,0-3.56-.09l-.33,0c-1.46,0-2.94,0-4.38,0-1.22,0-2.45,0-3.66,0l-.83,0c-.74,0-1.48,0-2.24,0l-1.45,0c-.84,0-1.72.07-2.78.07l-1.81,0h-2.9l-2.37,0c-.72,0-1.43,0-2.15-.05l-.66,0-.66,0-.33,0c-.67-.06-1.57-.12-2.48-.15ZM110.85,69.87h0l1.31,0c.74,0,1.46,0,2.18,0h.41c.75,0,1.5,0,2.24.09l.19,0h.21l.22,0,1.22.08a16,16,0,0,1,2.14.21c.9.14,1.59.24,2.28.3l.54,0a28.43,28.43,0,0,1,3.87.43c.54.11,1.06.21,1.59.3l.32,0,1.66.32,1.08.23.31.07,2,.43a24,24,0,0,1,3.56,1l2,.74,1,.37C143,75.21,144.86,76,147,77a19.19,19.19,0,0,1,3.13,1.8c.47.34.94.68,1.39,1s.81.74,1.2,1.13l.53.5.7.61c.58.51,1.16,1,1.76,1.52a21.08,21.08,0,0,1,2.78,2.71,17.34,17.34,0,0,1,2,2.75c.46.81.87,1.64,1.31,2.56l.12.25L162,92l.46.9c.25.48.5,1,.71,1.47.34.82.66,1.65,1,2.49.22.55.44,1.1.67,1.65l.12.32.24.58a18.77,18.77,0,0,1,.78,2.4c.09.33.18.68.26,1s.1.45.13.69a5.88,5.88,0,0,1,0,1v.66l0,.32,0,.78a18.1,18.1,0,0,0,.26,2.62,3,3,0,0,1,.4,1.8c0,.1,0,.21,0,.31,0,.31.07.61.11.91l.06.43c0,.35.06.71.08,1.06s0,.61.06.91c.07.65.13,1.29.15,1.94,0,.22,0,.44.07.66l0,.25c0,.23,0,.47,0,.79a17.87,17.87,0,0,1-.16,2.92,21.33,21.33,0,0,1-.63,2.59l-.15.52-.16.67-.11.43c-.15.58-.27,1.06-.41,1.52-.23.78-.48,1.55-.73,2.33-.35,1.13-.73,2.24-1.11,3.35l-.33,1a24,24,0,0,1-2.35,4.63,18.21,18.21,0,0,1-1.44,2,27.3,27.3,0,0,1-2.12,2.24,25.08,25.08,0,0,1-2.76,2.47c-.68.51-1.44,1-2.62,1.8-.65.41-1.29.88-1.83,1.3l-.39.29-.57.42c-.52.38-1.07.72-1.62,1.07l-.42.27-.13.08-.25.16-.64.43c-1.12.77-2.25,1.48-3.46,2.16a46.17,46.17,0,0,1-6.6,3.25c-1,.35-2.17.78-3.41,1.12l-.78.21-.15,0-.16,0c-1,.27-2,.54-3,.73s-2.07.35-3.51.51l-1.32.17c-.62.08-1.26.16-1.89.22l-.91.09c-.69.06-1.38.13-2.07.22l-1,.12-.16,0-.16,0-.2,0c-.47,0-.92.11-1.36.18s-1.1.17-1.66.23l-.71.09c-.43,0-.86.07-1.29.09h-.2l-.79,0a19.36,19.36,0,0,1-2.19.14h-.49a11.79,11.79,0,0,1-2-.28l0,.75v.67c0,.64,0,1.27,0,1.9,0,1,0,2,0,3,0,.53,0,1.06,0,1.58v.27c0,.54,0,1.07,0,1.6,0,.09,0,.19,0,.28v1.12c0,.8,0,1.62,0,2.43,0,.6.08,1.2.12,1.8q.06.57.09,1.14a23.9,23.9,0,0,1-.08,3.73l0,.48v.18a20.57,20.57,0,0,0-.11,2.68l.06.54a24.91,24.91,0,0,1,.21,3.42c0,.61,0,1.21-.09,1.83,0,.82-.1,1.64-.1,2.47,0,1.3,0,2.6.1,3.85,0,.57.05,1.14.07,1.72s0,1.33.08,2c0,.23.06.45.1.67l0,.26.05.29,0,.37.09.68c.15,1.15.22,2.34.28,3.22a129.67,129.67,0,0,1-1.28,2.68l-1.43.11-.48,0c-.62.06-1.25.12-1.87.16s-1.2.11-1.79.19l-.14,0-.19,0-.34-.08a3.48,3.48,0,0,0-.55,0l-.89.08-.35.11-.14,0a1.39,1.39,0,0,1-.32.06c-.32,0-.64.05-1,.07h-.16l-.31.08-.32.08a9,9,0,0,1-1.38.11l-.74,0h-.26l-.5,0h-.16l-.4,0H92.5a4.78,4.78,0,0,1-.53,0l-.3,0a5.37,5.37,0,0,0-.72-.06,4.76,4.76,0,0,1-1,.13h-.31l-.55,0a2.84,2.84,0,0,0-.45.05l-.15.1a.55.55,0,0,0-.19,0h-.23c-.79,0-1.59.09-2.38.17a3.05,3.05,0,0,1-1.72-2.2l-.06-.29-.08-.29-.13-.57c-.09-.43-.18-.86-.28-1.28-.06-.25-.12-.5-.19-.74-.15-.66-.27-1.15-.34-1.64a12.07,12.07,0,0,1-.11-1.94c0-.2,0-.39,0-.58s0-.43,0-.65v-.88c0-.55,0-1.09.08-1.64l.11-1,0-.33c0-.45.1-.87.13-1.3s.06-1.06.08-1.6,0-.79,0-1.19c.06-1,.16-1.9.26-2.86.15-1.44.25-2.47.29-3.57l.11-3.55.11-3.56c0-1.66,0-3.41-.1-4.7v-.23l0-.51v-.22c0-.4,0-.77,0-1.14,0-1.14,0-2.32,0-3.36v-1c0-1.17,0-2.37,0-3.58,0-.53,0-1-.08-1.57,0-.8-.09-1.59-.1-2.38s0-1.53,0-2.29c0-.48,0-1,0-1.45,0-1.28.06-2.47.11-3.66s0-2.28,0-3.43v-2.24c0-.8,0-1.6,0-2.4s0-1.37-.06-2.06l0-.41c0-.52,0-1.05,0-1.58,0-.74,0-1.47.09-2.2v-.22c0-.59.07-1,.08-1.47,0-.9-.05-1.81-.11-2.7l-.06-.71c-.13-1.67-.17-3.36-.2-5,0-1,0-1.8-.06-2.6l0-1.32c0-.71,0-1.41-.07-2.12,0-1,0-2.06.05-3.1l0-.66c.07-3,0-5.8,0-9.21v-.89c0-1.48,0-3,0-4.45,0-.71,0-1.42,0-2.13v-.31c0-1.55,0-3.15,0-4.77,0-1,.13-2,.26-3.24l0-.23c.18-1.56.28-2.71.31-3.9s0-2.55,0-3.82,0-2.64,0-4c0-.41,0-.84,0-1.25V78.3a21.21,21.21,0,0,1,.31-4.49A2.88,2.88,0,0,1,85.89,72a2.78,2.78,0,0,1,2.55-1.69l.29,0,.18,0,.29,0a11.4,11.4,0,0,1,1.42-.09h.19c.44,0,.87,0,1.31.06l.31,0h.26l.58,0,1.18,0,.84,0H96c.91,0,1.82,0,2.73-.09.48,0,1,0,1.43-.09.72-.06,1.42-.11,2.11-.11,1.23,0,2.45,0,3.68-.09,1,0,1.94-.08,2.92-.08h.74l-.1,0h.95l.39,0ZM186,155.31c.06-.73.06-1.45.07-2.18v-1.21c0-1.19,0-2.42-.08-3.51l0-.8c0-.31,0-.57,0-.84l0-.31a16,16,0,0,1-.08-2.59l0-.3v-.17c0-.56.07-1.13.07-1.7s0-1-.05-1.56l0-.57c0-1.18-.14-2.35-.23-3.52s-.19-2.49-.25-3.74l-.28-7.19-.11-2.63c-.12-2.67-.25-5.69-.29-8.54a2.79,2.79,0,0,1,.86-2.06,2.31,2.31,0,0,1,.88-.9,22.87,22.87,0,0,1,3.75-1.7c.54-.18,1.09-.31,1.64-.45l.15,0a16.26,16.26,0,0,0,2.15-.6c1.75-.61,3.57-1.14,5.33-1.64l.38-.12.7-.2c.83-.24,1.66-.48,2.49-.74a30,30,0,0,1,3.56-.82l1.17-.24.49-.11,1.92-.35a27.93,27.93,0,0,1,3.1-.39l1-.09.18,0c1.2-.13,2.33-.24,3.46-.3.62,0,1.24-.11,1.86-.17l.35,0,.25,0c.41,0,.83-.08,1.25-.1.84-.07,1.69-.11,2.53-.15h.73l.45,0,1.84-.08c1.55-.07,3.11-.14,4.67-.18a2.84,2.84,0,0,1,1.48.38,2.72,2.72,0,0,1,2.21,2.54l0,.63c0,.42,0,.84,0,1.26q0,.38,0,.75c0,.3,0,.52,0,.76s0,.65,0,1,0,.58,0,.84c0,.58-.06,1.15-.11,1.72a45.52,45.52,0,0,0,0,5.35v.22l0,1,0,1.33.05,1.33,0,.41a9.46,9.46,0,0,1-.06,2.25,2.56,2.56,0,0,1-2.1,2,2.49,2.49,0,0,1-1.57.57h-1.24c-.76,0-1.52,0-2.27,0-.59,0-1.17.09-1.76.16s-1.09.11-1.63.15-1.26.1-1.88.17l-.65.06-1,.09c-1.35.11-2.31.21-3.2.35l-.59.13-1.22.26-1.36.2-.56.09c-1.07.22-2.18.53-3.16.8l-.33.09c-.23.07-.41.1-.58.14l-.42.08-.42.09c-.09.55-.15,1-.2,1.53s-.06.93-.07,1.36,0,1.09-.1,1.76v.34c-.08,1-.17,2.22-.17,3.33,0,.49,0,1,.05,1.45a20,20,0,0,1,0,2.31c0,.62,0,1.22,0,1.83s0,1.22,0,1.83c0,.84-.07,1.68-.08,2.52,0,.45,0,.9,0,1.35l0,1.13v.38c0,.87-.07,1.73-.08,2.6q0,.85,0,1.71c0,.77,0,1.54,0,2.3l0,.72c0,.44,0,.89,0,1.33s0,.76-.07,1.14l0,.49-.08,1.39c0,1-.11,1.84-.19,2.72l-.06.57-.06.62c0,.52-.06,1-.08,1.54v.52c0,.44,0,.88-.07,1.33-.09,1.42-.12,2.75-.09,4.05a61.67,61.67,0,0,1-.11,7.64l0,.23,0,.21a.35.35,0,0,0,.15-.21,7.72,7.72,0,0,0-.16,2.11c0,.43,0,.86,0,1.29V186c0,1,0,2.07,0,3.11l0,.62v.9c0,.45,0,.9,0,1.34,0,.87-.06,1.73-.05,2.6,0,.42,0,.85,0,1.27s0,.8,0,1.2c0,1.67.08,3.38.15,5v.67l0,.45c.05,1,.09,1.79.12,2.62a3.78,3.78,0,0,1,0,.65,2.82,2.82,0,0,1-.79,2,2.37,2.37,0,0,1-1.77.77c-.4,0-.78-.06-1.17-.1h-.2l-.68,0-.45,0h-.19l-1.44.05-1.45,0c-.68,0-1.35,0-2-.05l-.76,0c-.53,0-1.07,0-1.6.05h-.31l-1.25,0H191.6l-2.5.06a2.79,2.79,0,0,1-2.35-1.3,2.72,2.72,0,0,1-1-2l0-.55c0-.47,0-.93,0-1.4s0-.7,0-1.05v-.2c0-.44.05-.9,0-1.34a23.49,23.49,0,0,1,.08-2.87,30.4,30.4,0,0,0,.08-3.15v-.67c0-.4,0-.81,0-1.21,0-.55,0-1.1,0-1.66,0-1-.08-1.91-.11-2.86s-.07-1.95-.07-2.92v-1c0-.56,0-1.13,0-1.69l-.05-1.5c-.07-1.53-.13-3-.17-4.44,0-.87,0-1.79,0-2.67l.06-1.21v-.3c0-.47,0-.93.08-1.37v-.49l0-.14,0-.15c.06-.92.06-1.86.06-2.78v-1.49c0-.83,0-1.66-.06-2.49l-.06-1.5c0-.3,0-.59,0-.89v-1.26c0-.51,0-1,0-1.47a28.23,28.23,0,0,1,.17-4l0,0Z"/><path class="cls-2" d="M110.59,92.48h0c-1.24,0-2.32.09-3.31.17H107a2.19,2.19,0,0,1-.42,0l-.06.59c0,.79,0,1.79,0,2.81,0,.81-.1,1.6-.18,2.4l0,.25c0,.55-.11,1.09-.14,1.65l-.06,1v.18l0,.37c-.12,2.11-.25,4.29-.3,6.4v.38c0,1.35,0,2.7,0,4l0,1.38c0,.75,0,1.49,0,2.23l0,1.41v.94c0,.54.05,1.09.08,1.63l0,.28c0,.47.06.91.06,1.35l.06,1.51c0,.72.07,1.42.07,2.11s0,1.52,0,2.29c0,.54,0,1.08,0,1.62,0,1,0,2,0,3l0,.95c0,.48,0,1,0,1.45,0,.87,0,1.75.06,2.61h.14a4.75,4.75,0,0,1,.52-.07c.76,0,1.52-.06,2.28-.06h.76l1.59,0h1a8.2,8.2,0,0,0,1.21-.17c.48-.07.9-.1,1.31-.13l.49,0,1.26-.09c.94-.06,1.61-.11,2.31-.21s1.25-.15,1.87-.2,1.33-.1,2-.21l1.17-.17c.73-.1,1.41-.2,2.08-.36a18,18,0,0,0,2.32-.93l.42-.19c1-.46,2-1,3-1.53L132,133a17.69,17.69,0,0,0,2.75-2l.24-.23a16.38,16.38,0,0,0,2-2.55c.27-.48.57-1,.87-1.43l.15-.25.3-.46a23.25,23.25,0,0,0,1.05-2.37c.41-1,.72-1.84,1-2.66,0-.09,0-.17.05-.26l.08-.44c.05-.29.09-.56.15-.84.12-.52.26-1,.41-1.55l.14-.47a16.6,16.6,0,0,0,.4-3.1c0-.39-.1-.78-.16-1.17l0-.36-.05-.32c-.09-.61-.18-1.22-.32-1.84l-.15-.45-.12-.32-.1-.3c-.15-.44-.26-.88-.37-1.33a21.64,21.64,0,0,0-1.94-4.28,16.38,16.38,0,0,0-1.29-1.8l-.42-.5-.22-.26q-.42-.54-.87-1.05l-.46-.43-.7-.67-.36-.35-.12-.13A10.22,10.22,0,0,0,133,98a35.79,35.79,0,0,0-3.28-2.29A16.88,16.88,0,0,0,127,94.65c-.89-.28-1.78-.55-2.68-.81-1.11-.27-2.27-.44-3.26-.58a32.36,32.36,0,0,0-3.76-.31c-1.08,0-2.28-.09-3.67-.24l-.18,0c-.88-.08-1.91-.18-2.87-.21Z"/></g></g></svg>