<svg xmlns="http://www.w3.org/2000/svg" viewBox="0 0 75.27 86.05"><defs><style>.cls-1{fill:#e8e6e6;}</style></defs><title>Asset 45</title><g id="Layer_2" data-name="Layer 2"><g id="ARTBOARD_2" data-name="ARTBOARD 2"><g id="diploma"><path class="cls-1" d="M29,5.8c0,12.67,0,25.34,0,38,0,5.75.69,11.85-.08,17.56-.75,5.54-3,10.54-2.59,16.24.53,7.67,12.54,7.73,12,0-.38-5.57,2.08-10.78,2.61-16.3.55-5.77.08-11.71.06-17.5-.06-12.68,0-25.35,0-38,0-7.73-12-7.74-12,0Z"/><path class="cls-1" d="M38.31,80.29C37.11,62.62,19.67,58.57,10,46.78c-4.91-6-13.36,2.57-8.48,8.48,4,4.91,9.61,8.3,14.69,12,4.33,3.16,9.76,7.2,10.15,13,.52,7.66,12.53,7.72,12,0Z"/><path class="cls-1" d="M39.22,81.87c8-8.05,18-18.37,30.34-16.87,7.65.93,7.58-11.08,0-12C54,51.11,40.9,63.2,30.73,73.38c-5.46,5.47,3,14,8.49,8.49Z"/></g></g></g></svg>