<svg xmlns="http://www.w3.org/2000/svg" viewBox="0 0 1187.27 971.3"><defs><style>.cls-1{fill:#9aa4bd;}.cls-2,.cls-4,.cls-5{fill:none;stroke:#384173;stroke-miterlimit:10;}.cls-2{stroke-width:0.75px;}.cls-3{opacity:0.1;}.cls-4{stroke-width:0.5px;}</style></defs><g id="Layer_2" data-name="Layer 2"><g id="Layer_1-2" data-name="Layer 1"><g id="Layer_2-2" data-name="Layer 2-2"><g id="Draw_Layer" data-name="Draw Layer"><rect class="cls-1" x="0.38" y="0.38" width="1186.39" height="970.55"/><rect class="cls-2" x="0.38" y="0.38" width="1186.39" height="970.55"/><g class="cls-3"><line class="cls-4" x1="15.95" y1="0.38" x2="15.95" y2="970.92"/><line class="cls-4" x1="0.73" y1="0.38" x2="0.73" y2="970.92"/><line class="cls-4" x1="31.16" y1="0.38" x2="31.16" y2="970.92"/><line class="cls-4" x1="46.38" y1="0.38" x2="46.38" y2="970.92"/><line class="cls-4" x1="61.59" y1="0.38" x2="61.59" y2="970.92"/><line class="cls-4" x1="76.8" y1="0.38" x2="76.8" y2="970.92"/><line class="cls-5" x1="92.02" y1="0.38" x2="92.02" y2="970.92"/></g><g class="cls-3"><line class="cls-4" x1="107.23" y1="0.38" x2="107.23" y2="970.92"/><line class="cls-4" x1="92.02" y1="0.38" x2="92.02" y2="970.92"/><line class="cls-4" x1="122.45" y1="0.38" x2="122.45" y2="970.92"/><line class="cls-4" x1="137.66" y1="0.38" x2="137.66" y2="970.92"/><line class="cls-4" x1="152.88" y1="0.38" x2="152.88" y2="970.92"/><line class="cls-4" x1="168.1" y1="0.38" x2="168.1" y2="970.92"/><line class="cls-5" x1="183.32" y1="0.38" x2="183.32" y2="970.92"/></g><g class="cls-3"><line class="cls-4" x1="198.52" y1="0.38" x2="198.52" y2="970.92"/><line class="cls-4" x1="183.32" y1="0.38" x2="183.32" y2="970.92"/><line class="cls-4" x1="213.74" y1="0.38" x2="213.74" y2="970.92"/><line class="cls-4" x1="228.96" y1="0.38" x2="228.96" y2="970.92"/><line class="cls-4" x1="244.17" y1="0.38" x2="244.17" y2="970.92"/><line class="cls-4" x1="259.39" y1="0.38" x2="259.39" y2="970.92"/><line class="cls-5" x1="274.6" y1="0.38" x2="274.6" y2="970.92"/></g><g class="cls-3"><line class="cls-4" x1="289.82" y1="0.38" x2="289.82" y2="970.92"/><line class="cls-4" x1="274.6" y1="0.38" x2="274.6" y2="970.92"/><line class="cls-4" x1="305.04" y1="0.38" x2="305.04" y2="970.92"/><line class="cls-4" x1="320.26" y1="0.38" x2="320.26" y2="970.92"/><line class="cls-4" x1="335.47" y1="0.38" x2="335.47" y2="970.92"/><line class="cls-4" x1="350.69" y1="0.38" x2="350.69" y2="970.92"/><line class="cls-5" x1="365.89" y1="0.38" x2="365.89" y2="970.92"/></g><g class="cls-3"><line class="cls-4" x1="381.11" y1="0.38" x2="381.11" y2="970.92"/><line class="cls-4" x1="365.89" y1="0.38" x2="365.89" y2="970.92"/><line class="cls-4" x1="396.32" y1="0.38" x2="396.32" y2="970.92"/><line class="cls-4" x1="411.54" y1="0.38" x2="411.54" y2="970.92"/><line class="cls-4" x1="426.76" y1="0.38" x2="426.76" y2="970.92"/><line class="cls-4" x1="441.98" y1="0.38" x2="441.98" y2="970.92"/><line class="cls-5" x1="457.19" y1="0.38" x2="457.19" y2="970.92"/></g><g class="cls-3"><line class="cls-4" x1="472.41" y1="0.38" x2="472.41" y2="970.92"/><line class="cls-4" x1="457.19" y1="0.38" x2="457.19" y2="970.92"/><line class="cls-4" x1="487.61" y1="0.38" x2="487.61" y2="970.92"/><line class="cls-4" x1="502.83" y1="0.38" x2="502.83" y2="970.92"/><line class="cls-4" x1="518.04" y1="0.38" x2="518.04" y2="970.92"/><line class="cls-4" x1="533.27" y1="0.38" x2="533.27" y2="970.92"/><line class="cls-5" x1="548.47" y1="0.38" x2="548.47" y2="970.92"/></g><g class="cls-3"><line class="cls-4" x1="562.95" y1="0.38" x2="562.95" y2="970.92"/><line class="cls-4" x1="547.72" y1="0.38" x2="547.72" y2="970.92"/><line class="cls-4" x1="578.15" y1="0.38" x2="578.15" y2="970.92"/><line class="cls-4" x1="593.38" y1="0.38" x2="593.38" y2="970.92"/><line class="cls-4" x1="608.59" y1="0.38" x2="608.59" y2="970.92"/><line class="cls-4" x1="623.8" y1="0.38" x2="623.8" y2="970.92"/><line class="cls-5" x1="639.03" y1="0.38" x2="639.03" y2="970.92"/></g><g class="cls-3"><line class="cls-4" x1="654.23" y1="0.38" x2="654.23" y2="970.92"/><line class="cls-4" x1="639.03" y1="0.38" x2="639.03" y2="970.92"/><line class="cls-4" x1="669.46" y1="0.38" x2="669.46" y2="970.92"/><line class="cls-4" x1="684.66" y1="0.38" x2="684.66" y2="970.92"/><line class="cls-4" x1="699.89" y1="0.38" x2="699.89" y2="970.92"/><line class="cls-4" x1="715.09" y1="0.38" x2="715.09" y2="970.92"/><line class="cls-5" x1="730.32" y1="0.38" x2="730.32" y2="970.92"/></g><g class="cls-3"><line class="cls-4" x1="745.53" y1="0.38" x2="745.53" y2="970.92"/><line class="cls-4" x1="730.32" y1="0.38" x2="730.32" y2="970.92"/><line class="cls-4" x1="760.74" y1="0.38" x2="760.74" y2="970.92"/><line class="cls-4" x1="775.96" y1="0.38" x2="775.96" y2="970.92"/><line class="cls-4" x1="791.17" y1="0.38" x2="791.17" y2="970.92"/><line class="cls-4" x1="806.39" y1="0.38" x2="806.39" y2="970.92"/><line class="cls-5" x1="821.6" y1="0.38" x2="821.6" y2="970.92"/></g><g class="cls-3"><line class="cls-4" x1="836.82" y1="0.38" x2="836.82" y2="970.92"/><line class="cls-4" x1="821.6" y1="0.38" x2="821.6" y2="970.92"/><line class="cls-4" x1="852.03" y1="0.38" x2="852.03" y2="970.92"/><line class="cls-4" x1="867.24" y1="0.38" x2="867.24" y2="970.92"/><line class="cls-4" x1="882.46" y1="0.38" x2="882.46" y2="970.92"/><line class="cls-4" x1="897.67" y1="0.38" x2="897.67" y2="970.92"/><line class="cls-5" x1="912.9" y1="0.38" x2="912.9" y2="970.92"/></g><g class="cls-3"><line class="cls-4" x1="928.1" y1="0.38" x2="928.1" y2="970.92"/><line class="cls-4" x1="912.9" y1="0.38" x2="912.9" y2="970.92"/><line class="cls-4" x1="943.33" y1="0.38" x2="943.33" y2="970.92"/><line class="cls-4" x1="958.53" y1="0.38" x2="958.53" y2="970.92"/><line class="cls-4" x1="973.76" y1="0.38" x2="973.76" y2="970.92"/><line class="cls-4" x1="988.96" y1="0.38" x2="988.96" y2="970.92"/><line class="cls-5" x1="1004.19" y1="0.38" x2="1004.19" y2="970.92"/></g><g class="cls-3"><line class="cls-4" x1="1019.4" y1="0.38" x2="1019.4" y2="970.92"/><line class="cls-4" x1="1004.19" y1="0.38" x2="1004.19" y2="970.92"/><line class="cls-4" x1="1034.61" y1="0.38" x2="1034.61" y2="970.92"/><line class="cls-4" x1="1049.83" y1="0.38" x2="1049.83" y2="970.92"/><line class="cls-4" x1="1065.05" y1="0.38" x2="1065.05" y2="970.92"/><line class="cls-4" x1="1080.27" y1="0.38" x2="1080.27" y2="970.92"/><line class="cls-5" x1="1095.47" y1="0.38" x2="1095.47" y2="970.92"/></g><g class="cls-3"><line class="cls-4" x1="1110.69" y1="0.38" x2="1110.69" y2="970.92"/><line class="cls-4" x1="1095.47" y1="0.38" x2="1095.47" y2="970.92"/><line class="cls-4" x1="1125.91" y1="0.38" x2="1125.91" y2="970.92"/><line class="cls-4" x1="1141.13" y1="0.38" x2="1141.13" y2="970.92"/><line class="cls-4" x1="1156.33" y1="0.38" x2="1156.33" y2="970.92"/><line class="cls-4" x1="1171.56" y1="0.38" x2="1171.56" y2="970.92"/><line class="cls-5" x1="1186.77" y1="0.38" x2="1186.77" y2="970.92"/></g><g class="cls-3"><line class="cls-4" x1="1186.77" y1="16.61" x2="0.73" y2="16.61"/><line class="cls-4" x1="1186.77" y1="0.38" x2="0.73" y2="0.38"/><line class="cls-4" x1="1186.77" y1="32.85" x2="0.73" y2="32.85"/><line class="cls-4" x1="1186.77" y1="49.09" x2="0.73" y2="49.09"/><line class="cls-4" x1="1186.77" y1="65.33" x2="0.73" y2="65.33"/><line class="cls-4" x1="1186.77" y1="81.57" x2="0.73" y2="81.57"/><line class="cls-5" x1="1186.77" y1="97.8" x2="0.73" y2="97.8"/></g><g class="cls-3"><line class="cls-4" x1="1186.77" y1="114.04" x2="0.73" y2="114.04"/><line class="cls-4" x1="1186.77" y1="97.8" x2="0.73" y2="97.8"/><line class="cls-4" x1="1186.77" y1="130.28" x2="0.73" y2="130.28"/><line class="cls-4" x1="1186.77" y1="146.52" x2="0.73" y2="146.52"/><line class="cls-4" x1="1186.77" y1="162.76" x2="0.73" y2="162.76"/><line class="cls-4" x1="1186.77" y1="179" x2="0.73" y2="179"/><line class="cls-5" x1="1186.77" y1="195.23" x2="0.73" y2="195.23"/></g><g class="cls-3"><line class="cls-4" x1="1186.77" y1="211.48" x2="0.73" y2="211.48"/><line class="cls-4" x1="1186.77" y1="195.23" x2="0.73" y2="195.23"/><line class="cls-4" x1="1186.77" y1="227.71" x2="0.73" y2="227.71"/><line class="cls-4" x1="1186.77" y1="243.96" x2="0.73" y2="243.96"/><line class="cls-4" x1="1186.77" y1="260.19" x2="0.73" y2="260.19"/><line class="cls-4" x1="1186.77" y1="276.43" x2="0.73" y2="276.43"/><line class="cls-5" x1="1186.77" y1="292.67" x2="0.73" y2="292.67"/></g><g class="cls-3"><line class="cls-4" x1="1186.4" y1="307.99" x2="0.35" y2="307.99"/><line class="cls-4" x1="1186.4" y1="291.74" x2="0.35" y2="291.74"/><line class="cls-4" x1="1186.4" y1="324.22" x2="0.35" y2="324.22"/><line class="cls-4" x1="1186.4" y1="340.46" x2="0.35" y2="340.46"/><line class="cls-4" x1="1186.4" y1="356.7" x2="0.35" y2="356.7"/><line class="cls-4" x1="1186.4" y1="372.94" x2="0.35" y2="372.94"/><line class="cls-5" x1="1186.4" y1="389.18" x2="0.35" y2="389.18"/></g><g class="cls-3"><line class="cls-4" x1="1186.77" y1="406.54" x2="0.73" y2="406.54"/><line class="cls-4" x1="1186.77" y1="390.3" x2="0.73" y2="390.3"/><line class="cls-4" x1="1186.77" y1="422.78" x2="0.73" y2="422.78"/><line class="cls-4" x1="1186.77" y1="439.02" x2="0.73" y2="439.02"/><line class="cls-4" x1="1186.77" y1="455.26" x2="0.73" y2="455.26"/><line class="cls-4" x1="1186.77" y1="471.5" x2="0.73" y2="471.5"/><line class="cls-5" x1="1186.77" y1="487.74" x2="0.73" y2="487.74"/></g><g class="cls-3"><line class="cls-4" x1="1186.4" y1="505.1" x2="0.35" y2="505.1"/><line class="cls-4" x1="1186.4" y1="488.87" x2="0.35" y2="488.87"/><line class="cls-4" x1="1186.4" y1="521.34" x2="0.35" y2="521.34"/><line class="cls-4" x1="1186.4" y1="537.58" x2="0.35" y2="537.58"/><line class="cls-4" x1="1186.4" y1="553.82" x2="0.35" y2="553.82"/><line class="cls-4" x1="1186.4" y1="570.06" x2="0.35" y2="570.06"/><line class="cls-5" x1="1186.4" y1="586.29" x2="0.35" y2="586.29"/></g><g class="cls-3"><line class="cls-4" x1="1186.77" y1="601.59" x2="0.73" y2="601.59"/><line class="cls-4" x1="1186.77" y1="585.35" x2="0.73" y2="585.35"/><line class="cls-4" x1="1186.77" y1="617.82" x2="0.73" y2="617.82"/><line class="cls-4" x1="1186.77" y1="634.07" x2="0.73" y2="634.07"/><line class="cls-4" x1="1186.77" y1="650.3" x2="0.73" y2="650.3"/><line class="cls-4" x1="1186.77" y1="666.55" x2="0.73" y2="666.55"/><line class="cls-5" x1="1186.77" y1="682.78" x2="0.73" y2="682.78"/></g><g class="cls-3"><line class="cls-4" x1="1186.4" y1="698.08" x2="0.35" y2="698.08"/><line class="cls-4" x1="1186.4" y1="681.83" x2="0.35" y2="681.83"/><line class="cls-4" x1="1186.4" y1="714.31" x2="0.35" y2="714.31"/><line class="cls-4" x1="1186.4" y1="730.55" x2="0.35" y2="730.55"/><line class="cls-4" x1="1186.4" y1="746.79" x2="0.35" y2="746.79"/><line class="cls-4" x1="1186.4" y1="763.03" x2="0.35" y2="763.03"/><line class="cls-5" x1="1186.4" y1="779.27" x2="0.35" y2="779.27"/></g><g class="cls-3"><line class="cls-4" x1="1186.58" y1="796.63" x2="0.55" y2="796.63"/><line class="cls-4" x1="1186.58" y1="780.39" x2="0.55" y2="780.39"/><line class="cls-4" x1="1186.58" y1="812.87" x2="0.55" y2="812.87"/><line class="cls-4" x1="1186.58" y1="829.11" x2="0.55" y2="829.11"/><line class="cls-4" x1="1186.58" y1="845.35" x2="0.55" y2="845.35"/><line class="cls-4" x1="1186.58" y1="861.59" x2="0.55" y2="861.59"/><line class="cls-5" x1="1186.58" y1="877.83" x2="0.55" y2="877.83"/></g><g class="cls-3"><line class="cls-4" x1="1186.77" y1="892.59" x2="0.73" y2="892.59"/><line class="cls-4" x1="1186.77" y1="876.36" x2="0.73" y2="876.36"/><line class="cls-4" x1="1186.77" y1="908.83" x2="0.73" y2="908.83"/><line class="cls-4" x1="1186.77" y1="925.07" x2="0.73" y2="925.07"/><line class="cls-4" x1="1186.77" y1="941.31" x2="0.73" y2="941.31"/><line class="cls-4" x1="1186.77" y1="957.55" x2="0.73" y2="957.55"/></g></g></g></g></g></svg>