<svg xmlns="http://www.w3.org/2000/svg" viewBox="0 0 99 75.5">
  <defs>
    <style>
      .cls-1 {
        fill: #2c2c2c;
      }

      .cls-2 {
        fill: #48578e;
      }

      .cls-3 {
        fill: #707da6;
      }

      .cls-4 {
        fill: #707da7;
      }

      .cls-5 {
        font-size: 12px;
        font-family: ArialMT, Arial;
      }

    </style>
  </defs>
  <title>Asset 47</title>
  <g id="Layer_2" data-name="Layer 2">
    <g id="ARTBOARD_2" data-name="ARTBOARD 2">
      <g id="diploma">
        <path class="cls-1" d="M8.78,3.11h0a1.56,1.56,0,0,1,.79-.21A1.84,1.84,0,0,1,10,3a1.56,1.56,0,0,1,.94.72,1.71,1.71,0,0,1,.22.79l-.06.42,0,.12h0l0,.19c-.14.84-.28,1.67-.43,2.5q-.07.49-.18,1v.07c-.08.43-.16.88-.23,1.32s-.09.8-.13,1.2l0,.2c0,.31-.06.62-.1.93-.07.6-.15,1.22-.24,1.81v.07l-.07.5c-.07.59-.13,1.2-.17,1.72l0,.23c0,.15,0,.3,0,.45-.1,1-.21,2-.33,2.91-.1.74-.22,1.51-.38,2.58l-.21,1.24c-.05.29-.1.59-.14.88v-.1l0,.11c0,.09,0,.19,0,.29v.05c-.08.66-.17,1.31-.26,2L8,27c0,.17,0,.35-.08.53-.13.92-.27,1.84-.41,2.74-.09.63-.19,1.26-.28,1.89-.11.89-.18,1.8-.24,2.67v.07c-.07,1-.15,1.94-.28,2.91S6.41,40.09,6.27,41c0,.36-.11.71-.17,1.07l0,.14c-.08.45-.15.9-.22,1.35-.1.8-.22,1.71-.38,2.58v0c-.12.64-.24,1.27-.33,1.9,0,.3-.08.61-.11.92v0c0,.46-.1.91-.16,1.36-.11.94-.27,1.87-.41,2.8,0,.38-.08.76-.11,1.14h0c-.1,1.29-.13,2.6-.15,3.87v.39c0,.55-.07,1.1-.13,1.64l0,.13c0,.28-.06.56-.08.84,0,.57-.14,1.13-.23,1.68l-.09.59,0,.37v.08c0,.15,0,.3,0,.44,0,.34-.09.67-.14,1l0,.21c-.08.71-.14,1.42-.17,2.12,0,.38,0,.75,0,1.12v.16h0c0,.39-.06.77-.11,1.17a1.53,1.53,0,0,1-.72.93,1.61,1.61,0,0,1-1.21.16,1.61,1.61,0,0,1-.94-.72A1.56,1.56,0,0,1,0,69.68l0-.26c.08-.81.05-1.63.1-2.44s.17-1.71.29-2.57c.06-.54.1-1.08.18-1.63.06-.39.13-.78.19-1.16s.06-.67.09-1S1,59.71,1,59.25c.08-1,0-1.92.08-2.88s.07-2,.19-2.95.29-1.94.43-2.91q.1-.72.18-1.44c.07-.7.14-1.39.25-2.08.19-1.16.41-2.32.58-3.49.21-1.55.48-3.1.73-4.65.1-.83.2-1.65.28-2.48s.17-1.92.25-2.88.25-2.2.42-3.3.28-1.92.43-2.88c.07-.57.15-1.14.23-1.72s.15-1.23.25-1.85.19-1,.27-1.53c.14-.9.28-1.81.4-2.72.15-1.14.23-2.28.34-3.42s.27-2.18.42-3.26c.16-1.46.27-2.93.53-4.38.13-.71.27-1.41.4-2.12s.25-1.51.37-2.26a1.51,1.51,0,0,1,.72-.94Zm-2.73,16h0a.88.88,0,0,1,0,.16.88.88,0,0,0,0-.16Zm-.93,6.15h0a.77.77,0,0,1,0,.15.77.77,0,0,0,0-.15Z" />
        <path class="cls-1" d="M3.21,68.92a1.58,1.58,0,0,0-.74,2.65A1.68,1.68,0,0,0,3.58,72c.67,0,1.35,0,2,.11s1.29.15,1.94.21c1.2.11,2.41.14,3.62.28.81.12,1.62.23,2.43.31l2.26.23c1.57.17,3.13.25,4.7.3,3.29.11,6.57.1,9.86.1.8,0,1.6,0,2.39,0s1.55.08,2.32.12c1.66.08,3.31.14,5,.16,3.31,0,6.63,0,9.95,0h1.09c1.22,0,2.44,0,3.65,0,1.6.08,3.2.15,4.79.3,3.19.3,6.39.28,9.58.32a29.56,29.56,0,0,1,3.76.25l-.42-.06c1,.14,2.09.27,3.14.37l.52.09.66.13a1.57,1.57,0,0,0,1.45-2.78A4,4,0,0,0,77,72.21h-.08a11.19,11.19,0,0,0-1.36-.2l-2-.22c-.7-.1-1.54-.2-2.42-.26s-1.58-.08-2.43-.08c-1.32,0-3.06,0-4.8-.07-1.54,0-3.15-.14-4.8-.29-.63-.06-1.28-.1-1.9-.13h-.07l-.37,0-.7,0-1.7-.08c-.68,0-1.39,0-2.3,0H44.69c-3.38,0-6.67,0-9.93-.22l-2.46-.11H29.84l-3.82,0H24.89c-2.62,0-5.24-.07-7.86-.28h0c-.57,0-1.14-.1-1.69-.16l-1.08-.11h-.14c-.55-.06-1.1-.11-1.64-.18l-.22,0c-.64-.09-1.29-.19-1.95-.24-.48,0-1-.07-1.45-.1l-.82,0c-.56,0-1.11-.11-1.73-.18l-.38,0c-.54-.06-1.1-.09-1.64-.11h0l-.69,0H3.5l-.29,0Z" />
        <path class="cls-1" d="M23.74,1.83c-1.11.06-2.22.06-3.34.06h-10a1.57,1.57,0,1,0,0,3.13H22.89l1.28-.06.58,0h.17a40.35,40.35,0,0,1,4.53.17h.08c.59,0,1.24.07,2,.08h0c1,0,2.06,0,3.1,0l.84,0h0c.56,0,1.23,0,1.9,0h.46c.43,0,.85,0,1.27,0l2.47.11h0c.74,0,1.61.07,2.5.14h0l2.32.17.92,0h.2l1.22,0,.48,0h0c1.15.08,2.3.16,3.45.22h0c.91.05,1.73.09,2.52.11h0C56.3,6,57.4,6,58.5,6H59c.28,0,.55,0,.83,0h0l1.22,0c.77,0,1.54,0,2.32.06h.15l.67,0h.44c1.19,0,2.39,0,3.57.11h.08l1.87.12h0c1.15.06,2.3.1,3.46.13h.72l1.92,0h.7c.55,0,1.11,0,1.65,0h0a3.5,3.5,0,0,1,.55.17,4.52,4.52,0,0,0,.47.18c.13,0,.27.08.45.13h0c.28,0,.57.08.85.12A1.53,1.53,0,0,0,82,6.52a1.58,1.58,0,0,0,0-2.21l-.32-.25a1.58,1.58,0,0,0-.73-.21l-.53-.13a8.22,8.22,0,0,0-1.09-.37,10.56,10.56,0,0,0-1.38-.12H76.77q-2.38,0-4.77-.09c-.76,0-1.53-.05-2.29-.1S68,2.92,67.18,2.88c-1.63-.06-3.27-.06-4.91-.1-.76,0-1.52,0-2.28,0s-1.58.08-2.36.1c-1.63,0-3.27,0-4.9-.11s-3.21-.23-4.81-.3-3.26-.21-4.89-.3L40.63,2c-.81,0-1.62-.1-2.43-.11-1.62,0-3.25,0-4.87.08-.76,0-1.52.05-2.28,0s-1.72-.1-2.58-.17-1.71-.1-2.56-.1-1.44,0-2.17.06Z" />
        <path class="cls-1" d="M80.61,4.71,80.36,5a1.58,1.58,0,0,0-.21.79c0,.35-.09.7-.13,1.05h0v.06l0,.15-.07.5c-.1.61-.21,1.3-.28,2s-.12,1.38-.15,2.28c0,.28,0,.57,0,.85,0,.47,0,1.06-.07,1.61l-.06.83c0,.54-.08,1.07-.11,1.61s0,.82-.06,1.23,0,.85,0,1.28-.07.94-.11,1.42c0,.33-.06.66-.08,1-.12,1.7-.15,3.44-.17,4.93,0,.46,0,.92,0,1.38v.08c0,1.12,0,2.29-.09,3.43,0,.84-.09,1.67-.12,2.52v.26l-.09,1.83c0,.48-.07.95-.11,1.43v.18l-.06.77c0,.41-.05.82-.07,1.23s0,.78-.07,1.17-.06.85-.1,1.27-.07.81-.1,1.22c0,.77-.09,1.59-.12,2.52-.06,1.68-.07,3.38-.07,4.88v.35c0,.62,0,1.27,0,1.9,0,.26,0,.52-.05.77l0,.24c0,.42-.06.84-.08,1.27-.15,2.68-.15,5.41-.15,8.06v.93a23.19,23.19,0,0,1-.16,2.36v.07c-.06.57-.12,1.16-.14,1.74s0,1.21,0,1.8v.09c0,.47,0,1,0,1.45,0,.09-.05.18-.07.27l0,.15h0l0,.11A1.6,1.6,0,0,0,78,74.25a1.58,1.58,0,0,0,1.92-1.1,6.66,6.66,0,0,0,.19-.77,5.45,5.45,0,0,0,.06-1.07c0-.67,0-1.34,0-2s0-1.43.11-2.15.18-1.5.22-2.26c0-.57,0-1.15,0-1.73h0V60.52c0-1.49,0-3.08.12-4.67,0-.39,0-.78.07-1.18v-.25c.07-1,.14-2.06.14-3.1v-.1c0-1.44,0-3.09.06-4.71s.13-3.1.29-5c0-.46.06-.92.09-1.38V40c0-.31,0-.62,0-.92,0-.62.08-1.23.13-1.84l0-.22,0-.39c.06-.84.1-1.67.13-2.6v-.11c0-.61,0-1.25.09-1.87v-.12c0-.76.1-1.54.1-2.31v-.41c0-.67,0-1.35,0-2,0-1.74,0-3.32.14-4.91,0-.58.08-1.15.13-1.73l0-.68c0-.57.07-1.16.09-1.67l0-.84c0-.59.08-1.19.12-1.78v-.05c.06-.73.11-1.48.14-2.23h0v-.23c0-1.31.09-2.61.24-3.91.16-1.11.32-2.22.46-3.34a1.45,1.45,0,0,0-.46-1.1,1.56,1.56,0,0,0-2.21,0Z" />
        <path class="cls-1" d="M81.81,5.22h0a1.52,1.52,0,0,1,.42-.06,1.6,1.6,0,0,1,.79.22,1.63,1.63,0,0,1,.72.93,16.25,16.25,0,0,1,.6,1.91,14.47,14.47,0,0,0,.55,1.92c.12.31.24.61.33.92s.14.54.21.81c.15.56.33,1.1.51,1.64a15.65,15.65,0,0,1,.5,1.87c.12.61.23,1.22.38,1.82.29,1.13.6,2.25.89,3.37.18.66.39,1.31.59,2s.4,1.41.58,2.12c.41,1.52.94,3,1.49,4.47s1.15,2.81,1.71,4.22.94,2.74,1.49,4.08c.32.76.65,1.51.94,2.28s.53,1.44.76,2.17c.41,1.27.83,2.54,1.19,3.83.2.69.36,1.39.59,2.08.11.34.23.67.31,1s.15.64.23,1c.21.74.5,1.44.71,2.18.15.52.35,1,.52,1.54A1.57,1.57,0,0,1,96.09,55a3.48,3.48,0,0,1-.29-.69h0c0-.13-.07-.24-.11-.34-.12-.34-.23-.65-.33-1l-.09-.3c-.07-.24-.14-.47-.22-.7s-.09-.28-.14-.41-.14-.39-.2-.58a8.93,8.93,0,0,1-.23-.89c-.08-.32-.15-.64-.26-1v0c-.2-.61-.4-1.23-.56-1.88-.26-1-.6-2.09-.9-3l-.13-.39-.12-.39c-.48-1.52-.9-2.7-1.35-3.82l-.08-.18c-.26-.59-.54-1.26-.79-1.91-.13-.35-.26-.71-.38-1.07l0-.11,0-.08c-.08-.21-.15-.42-.23-.64-.36-1-.78-2.06-1.19-3l0-.09-.34-.83c-.58-1.42-1.07-2.73-1.51-4-.31-.92-.58-1.88-.83-2.8v0l0-.09c-.09-.36-.19-.71-.29-1.07s-.15-.5-.23-.75l0-.13c-.11-.35-.22-.7-.32-1.05-.16-.58-.31-1.16-.46-1.74l-.1-.37c0-.17-.09-.34-.13-.51l0-.14c-.13-.45-.24-.86-.33-1.27l-.21-1c-.08-.42-.16-.81-.25-1.21a12.38,12.38,0,0,0-.41-1.35l0-.12c-.06-.17-.11-.34-.17-.52s-.05-.15-.07-.23h0c-.16-.57-.27-1.14-.46-1.7-.14-.39-.31-.76-.43-1.15a11.34,11.34,0,0,1-.29-1.11c-.09-.38-.18-.77-.3-1.14s-.25-.7-.37-1a1.57,1.57,0,0,1,1.09-1.93ZM98.73,53.29h0l0,.07,0-.07Z" />
        <path class="cls-1" d="M96.36,54l-.56.3h0l-.77.45-.39.23,0,0-.27.15c-.22.13-.44.28-.64.41l-.37.24-1,.61-.88.54c-.47.3-1,.57-1.46.83l0,0-.43.23-.94.52-1,.54a14.4,14.4,0,0,0-1.82,1.17,10.25,10.25,0,0,1-1.85,1.07l-.13.06c-.32.14-.64.29-1,.45s-.65.39-1,.59l-.13.09a8.32,8.32,0,0,1-1,.54c-.42.2-.86.38-1.29.56a1.47,1.47,0,0,0-.72.93,1.58,1.58,0,0,0,1.09,1.93l.42.06a1.5,1.5,0,0,0,.79-.22c.67-.28,1.33-.57,2-.91.35-.18.67-.4,1-.61a10.12,10.12,0,0,1,1.18-.61,12,12,0,0,0,1.93-1A21.48,21.48,0,0,1,88.86,62l1.92-1.06c.64-.35,1.29-.68,1.92-1l.88-.55,1-.58c.6-.38,1.19-.79,1.81-1.13l.83-.5c.24-.14.49-.26.73-.38a1.57,1.57,0,0,0,.56-2.14,1.53,1.53,0,0,0-.93-.72,1.44,1.44,0,0,0-.4-.06,1.81,1.81,0,0,0-.81.21Z" />
        <path class="cls-1" d="M13.64.51A2.43,2.43,0,0,0,13,.83a2.07,2.07,0,0,0-.39.33,3,3,0,0,0-.3.4,5.76,5.76,0,0,0-.58,1.26,4.8,4.8,0,0,0-.15.63,2.92,2.92,0,0,0,0,.51,3.31,3.31,0,0,0,.06.54,1.78,1.78,0,0,0,.16.51h0a3.27,3.27,0,0,0,.55.8,2.3,2.3,0,0,0,1.24.74,3,3,0,0,0,.69.09,3.44,3.44,0,0,0,.58-.06l.12,0H15l.27,0A1.73,1.73,0,0,0,16,6.13a.88.88,0,0,0,.26-.64.92.92,0,0,0-.1-.42A.82.82,0,0,0,16,4.85a.9.9,0,0,0-.64-.26.88.88,0,0,0-.5.16l0,0,0,0a2.66,2.66,0,0,1-.39.07l.14,0a2,2,0,0,1-.43,0l-.27-.07-.09,0-.23-.24-.1-.18a1.55,1.55,0,0,1-.07-.23V3.79a6.09,6.09,0,0,1,.21-.73,6.54,6.54,0,0,1,.35-.64L14,2.35a1.18,1.18,0,0,1,.19-.11l.13,0a3,3,0,0,1,.43,0l.34.08.45.25A.91.91,0,1,0,16.46,1,5.61,5.61,0,0,0,15.92.7a3.38,3.38,0,0,0-.44-.18A3.23,3.23,0,0,0,15,.44a3.66,3.66,0,0,0-.57,0,2.34,2.34,0,0,0-.74.12Z" />
        <path class="cls-1" d="M20.44.37a2.78,2.78,0,0,0-.5.11,2.33,2.33,0,0,0-1.05.69,3,3,0,0,0-.4.53,5.6,5.6,0,0,0-.3.71,3.26,3.26,0,0,0-.26,1.38,2.92,2.92,0,0,0,.15.77c.06.15.11.31.18.46h0l.12.22a2.26,2.26,0,0,0,1.44,1,3.38,3.38,0,0,0,.93.12h.32a2.17,2.17,0,0,0,1-.28l.41-.27a1,1,0,0,0,.41-.54,1.87,1.87,0,0,0,0-.25,1,1,0,0,0-.12-.45,1,1,0,0,0-.55-.42.91.91,0,0,0-.7.1,4.78,4.78,0,0,1-.44.29l-.07,0h-.5a3.66,3.66,0,0,1-.44-.13L20,4.36l0,0a.75.75,0,0,0-.07-.12c-.05-.15-.1-.31-.14-.47a2,2,0,0,1,0-.25A3.9,3.9,0,0,1,20,2.77a1.46,1.46,0,0,1,.16-.3l.16-.17.15-.08a2.25,2.25,0,0,1,.35-.09,2.41,2.41,0,0,1,.38,0l.14,0,.06,0,.15.15a.94.94,0,0,0,1.29,0,.94.94,0,0,0,0-1.29A2.53,2.53,0,0,0,21.9.45a3,3,0,0,0-.73-.13H21a3.55,3.55,0,0,0-.56.06Z" />
        <path class="cls-1" d="M27.68.13a2.67,2.67,0,0,0-.63.1,3,3,0,0,0-.65.32,5.12,5.12,0,0,0-.55.4,2.88,2.88,0,0,0-.49.55,2.75,2.75,0,0,0-.34.66c-.09.21-.17.43-.24.64a3.22,3.22,0,0,0-.05,1.63,2.07,2.07,0,0,0,.18.47h0a2.28,2.28,0,0,0,.53.7,3.15,3.15,0,0,0,1.14.7,3.89,3.89,0,0,0,.77.15l.42,0h.15a2.63,2.63,0,0,0,.56-.1l.27-.1.07,0a.92.92,0,0,0,.54-.42.86.86,0,0,0,.09-.7s0,0,0,0a.93.93,0,0,0-1.1-.58,2.67,2.67,0,0,1-.5.17,2,2,0,0,1-.35,0l-.43-.1a1.73,1.73,0,0,1-.49-.38l-.06-.1a1.42,1.42,0,0,1-.05-.22,1.6,1.6,0,0,1,0-.31,5.57,5.57,0,0,1,.25-.79,2.75,2.75,0,0,1,.17-.29,2.5,2.5,0,0,1,.23-.23A4,4,0,0,1,27.56,2l.12,0h.15c.11.11.22.23.32.35a.92.92,0,0,0,1.29,0,.92.92,0,0,0,0-1.28,3.8,3.8,0,0,0-.65-.62,1.73,1.73,0,0,0-.94-.26Z" />
        <path class="cls-1" d="M32.75.31h0A2.43,2.43,0,0,1,33.85,0a1.59,1.59,0,0,1,.48.07,1.69,1.69,0,0,1,1,.78,3.44,3.44,0,0,1,.25.51,1,1,0,0,1,.1.7,1,1,0,0,1-.42.54,1,1,0,0,1-.7.09.85.85,0,0,1-.54-.42,4.93,4.93,0,0,0-.23-.46l-.09,0L33.52,2l-.09.09a3.18,3.18,0,0,0-.23.4,6.66,6.66,0,0,0-.26,1.09c0,.1,0,.21,0,.31a2.5,2.5,0,0,0,.07.26l.18.31.21.22,0,0,.12,0h.38l.29-.08a.94.94,0,0,1,.64-.07A.91.91,0,0,1,35.4,5a1.19,1.19,0,0,1,.08.16,1.06,1.06,0,0,1,0,.53.87.87,0,0,1-.42.54l0,0-.37.16a2.61,2.61,0,0,1-.85.13,3.15,3.15,0,0,1-.44,0,2.06,2.06,0,0,1-.82-.24,2.13,2.13,0,0,1-.45-.34,3.3,3.3,0,0,1-.44-.51,1.09,1.09,0,0,1-.14-.23h0l-.12-.24a2.44,2.44,0,0,1-.23-.69,3.48,3.48,0,0,1,0-.55,4.75,4.75,0,0,1,.05-.53c0-.22.09-.44.14-.66A3.11,3.11,0,0,1,32.75.31Zm1.1,1.51h0s0,0,0,0l0,0Z" />
        <path class="cls-1" d="M38.41.83h0A1.44,1.44,0,0,1,39.46.38h0A1.49,1.49,0,0,1,40.6.9c.15.17.29.36.43.55a.86.86,0,0,1,.09.7.92.92,0,0,1-.41.54,1,1,0,0,1-.7.09,1,1,0,0,1-.48-.33,5.75,5.75,0,0,0-.22.84,3.84,3.84,0,0,0,0,.59,1,1,0,0,0,.05.18,1.75,1.75,0,0,0,.16.27l.14.14.06,0,.31.07h.24a.92.92,0,0,1,1.2.35,1.1,1.1,0,0,1,.12.33,1,1,0,0,1-.45.91,1.6,1.6,0,0,1-.77.21H40a2.83,2.83,0,0,1-1.3-.4,2.71,2.71,0,0,1-.85-.93h0a2.75,2.75,0,0,1-.34-1.31,5.44,5.44,0,0,1,.15-1.27c.05-.18.11-.36.17-.54a3.29,3.29,0,0,1,.26-.61,2.28,2.28,0,0,1,.36-.5ZM39.72,2.1Z" />
        <path class="cls-1" d="M45.48.4a2,2,0,0,0-1,.61,2.92,2.92,0,0,0-.57,1.09,5.77,5.77,0,0,0-.23,1.17,3.39,3.39,0,0,0,0,.9,2.84,2.84,0,0,0,.16.7c.07.15.13.31.2.47h0l.06.13a1.66,1.66,0,0,0,.59.73,2.91,2.91,0,0,0,.5.25h0l.08,0,.2.09a1.81,1.81,0,0,0,.52.07h.06a1.53,1.53,0,0,0,.58-.09.94.94,0,0,0,.54-.41,1,1,0,0,0,.12-.58.5.5,0,0,0,0-.12.9.9,0,0,0-.42-.54.88.88,0,0,0-.69-.09l-.05,0H46l-.13,0-.16-.08-.11-.24A4.26,4.26,0,0,1,45.49,4a5,5,0,0,1,0-.77,4.74,4.74,0,0,1,.23-.84,1.09,1.09,0,0,1,.08-.15s0,.06,0,.09v0a1,1,0,0,0,.27.64.92.92,0,0,0,1.28,0,.88.88,0,0,0,.26-.64,4.62,4.62,0,0,0-.09-.65,2.31,2.31,0,0,0-.25-.61A3,3,0,0,0,47,.76a1.43,1.43,0,0,0-.56-.35A1.33,1.33,0,0,0,46,.33a1.75,1.75,0,0,0-.51.07Z" />
        <path class="cls-1" d="M50.45,1.05h0a1.51,1.51,0,0,1,.74-.21,1.24,1.24,0,0,1,.33,0,1.57,1.57,0,0,1,.49.23,1.77,1.77,0,0,1,.66.91c.07.2.11.41.16.61a.93.93,0,0,1-.64,1.12.91.91,0,0,1-1.11-.63l0-.13V3a3.76,3.76,0,0,0-.17.66,5.58,5.58,0,0,0,0,1,2.77,2.77,0,0,0,.12.41c0,.06,0,.11.08.16l0,0c.16.1.33.18.49.26l.06,0a.89.89,0,0,1,.58,0,.94.94,0,0,1,.5.35l0,0a1,1,0,0,1,.1.71,1,1,0,0,1-.41.54,1.2,1.2,0,0,1-.71.21,1.68,1.68,0,0,1-.45-.06,2.82,2.82,0,0,1-.62-.24L50.46,7l-.32-.16A2,2,0,0,1,49.4,6a3.2,3.2,0,0,1-.16-.39h0A3.27,3.27,0,0,1,49,4.48a7.46,7.46,0,0,1,.11-1.33,3,3,0,0,1,1.33-2.1Zm.46,1.48Zm.52,3.13Z" />
        <path class="cls-1" d="M56.85.69,56.5.74a1.38,1.38,0,0,0-.34.12,2.11,2.11,0,0,0-1,1.23,4,4,0,0,0-.17.59c0,.23-.12.46-.16.69a4.46,4.46,0,0,0-.09,1.21,3.25,3.25,0,0,0,.18.82A4.79,4.79,0,0,0,55.2,6h0l.11.18a2.5,2.5,0,0,0,.91.92,2,2,0,0,0,.88.24h.06A2.21,2.21,0,0,0,58.09,7a.91.91,0,0,0,.42-1,.85.85,0,0,0-.09-.22.92.92,0,0,0-.54-.41.94.94,0,0,0-.7.09h0l-.07,0,0,0-.12-.14a2.64,2.64,0,0,1-.27-.46,3.37,3.37,0,0,1-.1-.34,5.81,5.81,0,0,1,0-.59l.12-.5a.7.7,0,0,0,.13.16.89.89,0,0,0,1.28,0A1,1,0,0,0,58.38,3c0-.19,0-.39,0-.59a1.83,1.83,0,0,0,0-.52,1.88,1.88,0,0,0-.16-.39A1.67,1.67,0,0,0,58,1.1a2.19,2.19,0,0,0-.27-.22,2.33,2.33,0,0,0-.33-.14A1,1,0,0,0,57,.68Z" />
        <path class="cls-1" d="M60.52,1.19h0A1.72,1.72,0,0,1,61.74.65a1.34,1.34,0,0,1,.7.19,2.87,2.87,0,0,1,.9,1A.91.91,0,0,1,63,3.11a.92.92,0,0,1-1.24-.33.57.57,0,0,1-.08-.13,1.14,1.14,0,0,0-.1.19,2.22,2.22,0,0,0-.09.37,8.43,8.43,0,0,0,0,1.81,2.26,2.26,0,0,0,.1.45l.08,0h.1l.13,0,.17-.1a.89.89,0,0,1,.56-.2.91.91,0,0,1,.64.27,1,1,0,0,1,.21.33,1.18,1.18,0,0,1,.05.31.88.88,0,0,1-.27.63,2.28,2.28,0,0,1-1.49.6h0A2.16,2.16,0,0,1,60.66,7,1.9,1.9,0,0,1,59.84,6l-.06-.26h0c0-.1,0-.21-.05-.31s-.06-.45-.07-.67a8.83,8.83,0,0,1,0-1c0-.2,0-.41.05-.61a3.06,3.06,0,0,1,.14-.72,3.74,3.74,0,0,1,.67-1.16Zm1.09,4.33h0l.06.05-.06-.05Z" />
        <path class="cls-1" d="M65.78,1a2.56,2.56,0,0,0-.67.72,3.27,3.27,0,0,0-.35.73c-.09.25-.12.53-.19.8a6.35,6.35,0,0,0-.17,1,2.68,2.68,0,0,0,.07.8,4.64,4.64,0,0,0,.11.76h0s0,.09,0,.14A2.28,2.28,0,0,0,65.51,7a1.8,1.8,0,0,0,1.08.36,1.86,1.86,0,0,0,.48-.06A2.85,2.85,0,0,0,67.83,7a1,1,0,0,0,.42-1,.85.85,0,0,0-.09-.22.91.91,0,0,0-1.24-.33,2.79,2.79,0,0,1-.33.19l-.07,0-.16-.15h0a1.05,1.05,0,0,1-.06-.24c0-.2,0-.39-.08-.58s0-.27,0-.41.1-.42.15-.63.08-.39.14-.59a.91.91,0,0,0,1.74-.5,6.17,6.17,0,0,0-.19-.74A1.49,1.49,0,0,0,67.48,1,1.67,1.67,0,0,0,67,.75a1.58,1.58,0,0,0-.38,0,1.69,1.69,0,0,0-.87.25Z" />
        <path class="cls-1" d="M71.5.73a2.15,2.15,0,0,0-.64.4,3.1,3.1,0,0,0-.27.34,2.74,2.74,0,0,0-.29.46,3.64,3.64,0,0,0-.31.7,4.67,4.67,0,0,0-.14.67c0,.26-.08.52-.11.78a3.36,3.36,0,0,0,0,.84A5,5,0,0,0,70.1,6h0l0,.1,0,.06,0,.06a3.06,3.06,0,0,0,.33.65,1.78,1.78,0,0,0,.57.51,2,2,0,0,0,.86.2H72a2.2,2.2,0,0,0,.92-.22,1.77,1.77,0,0,0,.69-.74l.09-.13a.77.77,0,0,0,.12-.36h0a1,1,0,0,0-.45-.87.92.92,0,0,0-1.24.32,2.14,2.14,0,0,0-.13.19H72a1.17,1.17,0,0,1,0-.11c-.07-.17-.13-.34-.19-.52s-.13-.37-.18-.56a3.89,3.89,0,0,1,0-.59A5,5,0,0,1,71.76,3a4.91,4.91,0,0,1,.28-.5c0,.12,0,.25.08.37a.85.85,0,0,0,.41.55.9.9,0,0,0,1.24-.33.9.9,0,0,0,.09-.7,3.63,3.63,0,0,0-.13-.57,1.77,1.77,0,0,0-.68-.95,1.72,1.72,0,0,0-1-.29,1.63,1.63,0,0,0-.59.11Z" />
        <path class="cls-1" d="M74.89,1.41a2.09,2.09,0,0,0-.29.44,4.52,4.52,0,0,0-.18.47,5.21,5.21,0,0,0-.09.57c0,.18-.08.37-.12.55s-.09.53-.13.8a4.57,4.57,0,0,0,0,1.33,3.47,3.47,0,0,0,.16.55h0a2.44,2.44,0,0,0,.1.24,2.16,2.16,0,0,0,.81.85,1.88,1.88,0,0,0,.74.26l.49.06h.1a2.09,2.09,0,0,0,.35,0h.05a2.4,2.4,0,0,0,.73-.28,3.19,3.19,0,0,0,.58-.4l0,0a.89.89,0,0,0,.24-.41.91.91,0,0,0-.23-.87A.92.92,0,0,0,77,5.5l0,0a3.37,3.37,0,0,1-.32.19l-.07,0h-.23l-.21,0-.09-.06,0,0L76,5.48c0-.11-.06-.22-.09-.33a5.29,5.29,0,0,1,0-.89c0-.23.09-.45.13-.68a.92.92,0,0,0,.65.28A.91.91,0,0,0,77.59,3a2.33,2.33,0,0,0-.09-.83,2.36,2.36,0,0,0-.44-.79A1.55,1.55,0,0,0,75.94.85a1.4,1.4,0,0,0-1,.56Z" />
        <path class="cls-1" d="M3.7,46.56a.87.87,0,0,0-.54.42.94.94,0,0,0-.09.7c0,.21.08.42.11.63,0,.46.08.92.14,1.38s.17.8.26,1.2c.19.87.38,1.74.59,2.61l.18.78h0c0,.16.08.31.11.47.11.39.24.81.42,1.27s.4,1,.6,1.38.38.74.58,1.18.37.79.57,1.17l.63,1.13c.3.51.63,1,1,1.49.14.23.29.45.44.68a22.92,22.92,0,0,0,1.77,2.29,16.8,16.8,0,0,0,1.79,1.79l.6.46,0,0,.41.33A8.72,8.72,0,0,0,14.78,69c.19.1.38.22.55.32s.3.19.45.27a6.56,6.56,0,0,0,.91.39l.28.11.09,0,.28.12-.07,0c.28.12.57.22.86.33s.39.2.59.3a4.75,4.75,0,0,0,.8.28,4.88,4.88,0,0,1,.64.23,3.91,3.91,0,0,0,.84.26,12.25,12.25,0,0,0,1.6.19l.69.07.62,0,.31.1a.91.91,0,1,0,.48-1.75,2.72,2.72,0,0,0-.38-.11,5.51,5.51,0,0,0-.57-.06l-.65,0c-.4,0-.8-.06-1.19-.11l-.52-.09a4,4,0,0,1-.81-.26,5.93,5.93,0,0,0-.71-.24h0l-.32-.11-.24-.12-.61-.29-.34-.12h0l-.05,0L18,68.58l-.77-.31-.29-.11c-.21-.1-.41-.23-.61-.35l-.44-.27-.18-.09-.45-.26-.4-.28-.44-.36-.09-.07c-.2-.16-.4-.33-.61-.48s-.47-.38-.7-.59-.58-.59-.86-.89c-.49-.52-.94-1.08-1.47-1.76-.25-.34-.49-.71-.67-1l-.06-.09-.38-.58c-.36-.52-.68-1.07-1-1.73L8,58.54c-.11-.21-.21-.43-.31-.64l-.15-.32c-.11-.24-.22-.47-.34-.7s-.34-.68-.49-1a13,13,0,0,1-.54-1.58c-.09-.36-.18-.73-.26-1.09l-.14-.58c-.1-.42-.2-.84-.29-1.26h0l-.12-.54c-.11-.53-.25-1-.34-1.58v0h0c0-.07,0-.15,0-.23v0l0-.49c0-.42-.12-.82-.19-1.23a.9.9,0,0,0-.89-.66.85.85,0,0,0-.23,0Z" />
        <path class="cls-1" d="M3.58,48.55h0a1,1,0,0,1,.25,0,.74.74,0,0,1,.44.13c.26.18.52.37.79.53h0l.26.15.28.11.11,0,.4.16,0,0,0,0,0,0h0l.1,0,.28.12.11,0a7.92,7.92,0,0,0,1.61.44h.2l.52,0,.2,0H10a3.2,3.2,0,0,0,.42-.1l.19,0a4.81,4.81,0,0,0,.54-.16l.55-.24.1,0a2.21,2.21,0,0,1,.27-.12.86.86,0,0,1,.24,0,1,1,0,0,1,.68.29,1.45,1.45,0,0,1,.34.92c0,.27,0,.54,0,.8v.61a15,15,0,0,0,.06,1.77c0,.22.08.43.14.64l0,.19c.06.28.11.55.16.83l0,.09,0,.27q.12.68.27,1.32c0,.16.07.31.11.47l.09.35a5.78,5.78,0,0,0,.21.76l.16.42c.07.18.15.36.21.54l0,.13c0,.18.11.35.17.52s.15.29.22.43.12.26.18.39l.07.15c.07.17.16.34.25.51l0,.06c.08.16.17.32.24.49l0,0c.08.17.15.34.24.5l.2.31.05.07.05.08c.08.12.15.24.22.37l0,0c.08.14.16.28.25.41l.21.21a3.71,3.71,0,0,1,.28.3c.13.16.25.33.38.5l.09.13a5.55,5.55,0,0,0,.42.42c.12.11.23.22.34.34l.06,0,.1.1a8.62,8.62,0,0,0,.81.7l.13.1.16.12.07,0c.18.13.35.26.51.4l.27.25.28.26.12.08.25.19.43.34.07.06.41.26.07,0a3.07,3.07,0,0,0,.31.17l.15,0,.16,0c.17.06.33.13.48.2l.09,0,.39.19.18.09.31.09h.06l.18,0,.1,0,.25.08.09,0,.05,0h0l.2.07.2.07.24.1h0l.19.09.28.08.38.11a7.25,7.25,0,0,1,.9.4l.58.22a.86.86,0,0,1,.41.54.9.9,0,0,1-.09.7.91.91,0,0,1-.54.42,1,1,0,0,1-.48,0l-.11,0c-.2-.08-.41-.14-.61-.23s-.28-.14-.41-.21a6.32,6.32,0,0,0-.62-.18,3.67,3.67,0,0,1-.65-.26A2,2,0,0,1,25,72l-.36-.14c-.29-.1-.61-.12-.9-.24s-.66-.31-1-.46c-.15,0-.3-.08-.45-.14a4.52,4.52,0,0,1-.66-.33,4.52,4.52,0,0,1-.52-.32c-.2-.15-.39-.31-.58-.47s-.48-.33-.69-.52l0,0-.15-.13,0,0-.32-.29-.21-.16q-.3-.21-.6-.45l-.17-.14c-.21-.17-.41-.33-.59-.5s-.11-.11-.16-.16l-.06-.06a1.37,1.37,0,0,0-.17-.17,1.57,1.57,0,0,0-.19-.18L17,66.86a4.46,4.46,0,0,1-.56-.69L16.33,66l-.21-.22,0,0a3.31,3.31,0,0,1-.26-.27,5.32,5.32,0,0,1-.56-.8,6.1,6.1,0,0,0-.34-.54L14.85,64a4.83,4.83,0,0,1-.33-.64l0-.12-.21-.42-.18-.33-.16-.36-.2-.44a6.63,6.63,0,0,1-.44-.93c0-.12-.07-.23-.11-.34a3.58,3.58,0,0,0-.11-.35l-.15-.4-.12-.29c-.06-.17-.12-.36-.19-.6s-.19-.75-.27-1.1-.19-.9-.27-1.34l0-.09c0-.3-.11-.61-.17-.92,0-.14-.06-.27-.1-.4l-.06-.28q-.08-.36-.12-.75a9.56,9.56,0,0,1-.07-1.26v-1h0l-.06,0-.07,0-.25.07h0l-.17,0-.07,0-.37.09a5,5,0,0,1-.82.07H9.47l-.63,0-.46,0H8.1a6.78,6.78,0,0,1-.89-.16l-.13,0H7c-.17,0-.35-.08-.53-.14s-.61-.23-.87-.34l0,0H5.52l-.31-.13a6.05,6.05,0,0,1-1-.44,9.43,9.43,0,0,1-.84-.56,1,1,0,0,1-.42-.54A1,1,0,0,1,3,49a1,1,0,0,1,.55-.42ZM27.41,72.88h0l.06,0h0l0,0Z" />
        <path class="cls-2" d="M4.36,54.28h0c-.1,1.3-.13,2.6-.15,3.87v.39c0,.55-.07,1.1-.13,1.64l0,.13c0,.28-.06.56-.08.84,0,.57-.14,1.13-.22,1.68,0,.2-.07.39-.1.59l0,.37v.08c0,.15,0,.3,0,.44,0,.34-.09.67-.14,1l0,.21c-.08.71-.14,1.42-.17,2.12,0,.38,0,.75,0,1.12v.16l.32,0h.08l.69,0h0c.54,0,1.1,0,1.64.11l.38,0c.62.07,1.17.14,1.73.17l.82,0c.48,0,1,.06,1.45.11.66,0,1.31.15,1.95.24l.21,0c.55.07,1.1.12,1.65.18h.14l1.08.11c.55.06,1.12.12,1.69.16a3,3,0,0,0-.36-.15,6.56,6.56,0,0,1-.91-.39c-.15-.08-.3-.18-.45-.27s-.36-.22-.55-.32A9.21,9.21,0,0,1,13.26,68l-.4-.33,0,0-.6-.46a15.92,15.92,0,0,1-1.79-1.79,22.92,22.92,0,0,1-1.77-2.29c-.15-.23-.3-.45-.44-.68-.32-.48-.65-1-1-1.49l-.63-1.13c-.2-.38-.38-.77-.57-1.17s-.4-.84-.58-1.18-.4-.86-.6-1.38-.31-.88-.42-1.27c0-.16-.07-.31-.11-.47Z" />
        <path class="cls-2" d="M82.58,13.29h0c0,.75-.08,1.5-.14,2.23v.05c0,.59-.09,1.19-.12,1.78l0,.84c0,.51,0,1.1-.09,1.67l0,.68c0,.58-.1,1.15-.13,1.72-.1,1.6-.12,3.18-.14,4.92,0,.68,0,1.36,0,2v.41c0,.77,0,1.55-.1,2.31v.12c0,.62-.07,1.26-.09,1.87V34c0,.93-.07,1.76-.13,2.6l0,.38,0,.23c0,.61-.09,1.22-.13,1.84,0,.3,0,.61,0,.92v.11c0,.46,0,.92-.09,1.38-.16,1.92-.25,3.51-.29,5s-.05,3.27-.06,4.71v.1c0,1-.07,2.09-.14,3.1v.25c0,.4,0,.79-.07,1.18-.08,1.59-.1,3.18-.12,4.67v2.64a10,10,0,0,0,1.23-.62l.13-.09c.32-.2.64-.4,1-.58s.63-.32,1-.46l.13-.06a10.25,10.25,0,0,0,1.85-1.07,14.4,14.4,0,0,1,1.82-1.17l1-.54.94-.52.43-.23,0,0c.48-.26,1-.53,1.46-.83l.88-.54,1-.61.37-.24c.2-.13.42-.28.64-.41l.27-.15,0,0,.39-.23.77-.45a2.27,2.27,0,0,0-.11-.34c-.12-.34-.23-.65-.33-1l-.09-.3c-.07-.24-.14-.47-.22-.7s-.09-.28-.14-.41-.14-.39-.2-.58-.16-.59-.24-.89a8.48,8.48,0,0,0-.25-1v0c-.2-.61-.4-1.23-.56-1.88-.26-1-.6-2.09-.9-3l-.13-.39-.12-.39c-.48-1.52-.9-2.7-1.35-3.82l-.08-.18c-.26-.59-.54-1.26-.79-1.91-.13-.35-.26-.71-.38-1.07l0-.11,0-.08c-.08-.21-.15-.42-.23-.64-.36-1-.78-2.06-1.19-3l0-.09-.34-.83c-.58-1.42-1.07-2.73-1.51-4-.31-.92-.58-1.88-.83-2.8v0l0-.1c-.09-.36-.19-.71-.29-1.07s-.15-.5-.23-.75l0-.13c-.11-.35-.22-.7-.32-1.05-.16-.58-.31-1.16-.46-1.74l-.1-.37c0-.17-.09-.34-.13-.52l0-.13c-.13-.45-.24-.86-.33-1.27l-.21-1c-.08-.42-.16-.81-.25-1.21a12.38,12.38,0,0,0-.41-1.35l0-.12c-.06-.17-.11-.34-.17-.52s-.05-.15-.07-.23Z" />
        <path class="cls-3" d="M24.91,4.9h-.16l-.58,0L22.89,5a1.78,1.78,0,0,1,0,.26,1,1,0,0,1-.41.54L22,6.07a2.17,2.17,0,0,1-1,.28l-.32,0a3.37,3.37,0,0,1-.93-.13,2.26,2.26,0,0,1-1.44-1L18.27,5H16.11a.94.94,0,0,1,.13.48.88.88,0,0,1-.26.64,1.73,1.73,0,0,1-.67.37l-.27,0H15l-.12,0a3.44,3.44,0,0,1-.58.06,3,3,0,0,1-.69-.09,2.34,2.34,0,0,1-1.24-.73A3.52,3.52,0,0,1,11.78,5h-.72l0,.19-.42,2.5c-.06.33-.12.66-.19,1v.08c-.08.43-.17.88-.23,1.32s-.09.8-.13,1.2l0,.2c0,.31-.06.62-.1.93-.07.6-.16,1.22-.24,1.81v.07l-.07.5c-.07.59-.13,1.2-.17,1.72l0,.23c0,.15,0,.3,0,.44-.1,1-.21,2-.33,2.92-.1.74-.21,1.51-.38,2.58l-.21,1.24c-.06.39-.13.79-.19,1.18v.05c-.08.66-.17,1.31-.26,2L8,27c-.16,1.12-.33,2.25-.5,3.34-.09.63-.19,1.26-.28,1.89-.11.89-.18,1.8-.24,2.67v.07c-.07,1-.15,1.94-.28,2.91S6.41,40.09,6.28,41L6.1,42l0,.14c-.08.45-.15.9-.22,1.35-.1.8-.22,1.71-.38,2.58v0c-.12.64-.24,1.27-.33,1.9,0,.3-.08.61-.11.92,0,.08,0,.16,0,.23l.26.15.28.11.11,0,.4.16L6,49.6l.4.18.11,0a8.1,8.1,0,0,0,1.61.44h.2l.52,0,.2,0H10a3.2,3.2,0,0,0,.42-.1l.19,0a4.81,4.81,0,0,0,.54-.16l.55-.24.1,0a2.21,2.21,0,0,1,.27-.12.86.86,0,0,1,.24,0,1,1,0,0,1,.68.29,1.39,1.39,0,0,1,.34.92c0,.27,0,.54,0,.8v.61a15,15,0,0,0,.06,1.77c0,.21.09.43.14.64l0,.19c.06.28.11.55.16.83l0,.09,0,.28c.08.44.16.88.27,1.31,0,.16.07.31.11.47l.09.35a5.78,5.78,0,0,0,.21.76c0,.14.1.28.16.42s.15.36.21.54l0,.13c0,.18.11.35.17.52s.15.29.22.43.12.26.18.39l.07.15c.07.17.16.34.25.51l0,.06c.08.16.17.32.24.49l0,0c.08.17.15.34.24.5a3.28,3.28,0,0,0,.2.31l.05.07.05.08c.08.12.15.24.22.37l0,0c.08.14.16.28.25.41l.21.21a3.71,3.71,0,0,1,.28.3c.13.16.25.33.38.5l.09.13a3.41,3.41,0,0,0,.43.42l.33.34.06,0,.1.1a8.62,8.62,0,0,0,.81.7l.13.1.16.12.07,0c.18.13.35.26.51.4l.27.25.28.26.12.08.25.19.43.34.07.06.41.26.07,0a3.07,3.07,0,0,0,.31.17l.15,0,.16,0c.17.06.33.13.48.2l.09,0,.39.19.18.09.31.09h.07l.17,0,.1,0,.25.08.09,0,.05,0h0l.2.07.2.07.24.11H32.3l2.46.11c3.26.18,6.55.2,9.93.22h7.37c.91,0,1.62,0,2.3,0l1.7.08.7,0,.37,0h.07c.62,0,1.27.07,1.9.13,1.65.15,3.26.25,4.8.29,1.74,0,3.48.06,4.8.07.85,0,1.64,0,2.43.08s1.72.16,2.42.25,1.21.15,2,.23a13.35,13.35,0,0,1,1.36.19l0-.14c0-.09,0-.18.07-.27,0-.49,0-1,0-1.45v-.09c0-.59,0-1.2,0-1.8s.08-1.17.14-1.74v-.07c.07-.78.16-1.57.16-2.36v-.93c0-2.65,0-5.38.15-8.06,0-.43,0-.85.08-1.27l0-.24c0-.25,0-.51.05-.77,0-.63,0-1.28,0-1.9v-.35c0-1.5,0-3.2.08-4.88,0-.93.07-1.75.12-2.52,0-.41.06-.81.1-1.22s.07-.84.1-1.26,0-.79.07-1.18,0-.82.07-1.23l.06-.77v-.18c0-.47.08-1,.11-1.43l.09-1.83V34c0-.85.07-1.68.12-2.52.07-1.14.08-2.31.09-3.44V28c0-.46,0-.92,0-1.38,0-1.49,0-3.23.17-4.93,0-.33,0-.66.08-1,0-.48.08-1,.11-1.42s0-.85,0-1.28,0-.82.06-1.23.07-1.07.11-1.61l.06-.83c0-.55,0-1.14.07-1.61,0-.28,0-.57,0-.85,0-.9.08-1.62.15-2.28s.18-1.38.28-2l.07-.5,0-.15V6.86c-.18-.05-.32-.08-.45-.13a4.52,4.52,0,0,1-.47-.18,3.5,3.5,0,0,0-.55-.17,1,1,0,0,1-.28.61l0,0a3.68,3.68,0,0,1-.58.39,2.4,2.4,0,0,1-.73.28h-.05c-.12,0-.23,0-.35,0h-.1a4.1,4.1,0,0,1-.49-.06,1.88,1.88,0,0,1-.74-.26,2.09,2.09,0,0,1-.81-.85,2.44,2.44,0,0,1-.1-.24h-.46a.74.74,0,0,1-.12.36l-.09.13a1.77,1.77,0,0,1-.69.74,2.22,2.22,0,0,1-.92.23H72a1.88,1.88,0,0,1-.86-.2,1.67,1.67,0,0,1-.57-.51,3.06,3.06,0,0,1-.33-.65l0-.06,0-.06,0-.1-1.88-.12a1,1,0,0,1-.4,1.09,2.85,2.85,0,0,1-.76.38,1.86,1.86,0,0,1-.48.06,1.76,1.76,0,0,1-1.08-.36,2.24,2.24,0,0,1-.89-1.14s0-.09,0-.14h-.44l-.67,0a1.12,1.12,0,0,1,.06.35.86.86,0,0,1-.27.63,2.34,2.34,0,0,1-1.49.61h0a2.16,2.16,0,0,1-1.08-.27,1.87,1.87,0,0,1-.82-1.09l-.06-.26c-.28,0-.55,0-.83,0h-.46A.91.91,0,0,1,58.09,7a2.21,2.21,0,0,1-.93.28H57.1a2,2,0,0,1-.88-.24,2.5,2.5,0,0,1-.91-.92L55.2,6c-.79,0-1.61-.06-2.51-.11a.15.15,0,0,0,0,.07,1,1,0,0,1,.1.71,1,1,0,0,1-.41.54,1.2,1.2,0,0,1-.71.21,1.68,1.68,0,0,1-.45-.06,2.82,2.82,0,0,1-.62-.24L50.46,7l-.32-.16a1.93,1.93,0,0,1-.73-.8,2.2,2.2,0,0,1-.17-.39l-.48,0c-.4,0-.81-.05-1.22-.06h-.2a.91.91,0,0,1-.12.61.94.94,0,0,1-.54.41,1.53,1.53,0,0,1-.58.09H46a1.81,1.81,0,0,1-.52-.07l-.2-.09-.08,0h0a2.91,2.91,0,0,1-.5-.25,1.6,1.6,0,0,1-.59-.73l-.06-.13c-.89-.07-1.76-.11-2.5-.14a1,1,0,0,1-.44,1,1.6,1.6,0,0,1-.77.21H40a2.83,2.83,0,0,1-1.3-.4,2.71,2.71,0,0,1-.85-.93h-.46c-.67,0-1.34,0-1.9,0a1,1,0,0,1,0,.58.87.87,0,0,1-.42.54l0,0-.37.16a2.61,2.61,0,0,1-.85.13,3.15,3.15,0,0,1-.44,0,2.06,2.06,0,0,1-.82-.24,2.13,2.13,0,0,1-.45-.34,3.3,3.3,0,0,1-.44-.51,1.09,1.09,0,0,1-.14-.23c-.75,0-1.4,0-2-.08h-.08s0,0,0,.06a.86.86,0,0,1-.09.7.92.92,0,0,1-.54.42l-.07,0-.27.1a2.63,2.63,0,0,1-.56.1h-.15l-.42,0a3.89,3.89,0,0,1-.77-.15,3,3,0,0,1-1.14-.7,2.28,2.28,0,0,1-.53-.7Z" />
        <path class="cls-4" d="M5.52,51.34h0c.09.42.19.84.29,1.26l.14.58c.08.36.17.73.26,1.09a13,13,0,0,0,.54,1.58c.15.35.32.69.49,1s.23.46.34.7l.15.32c.1.21.2.43.31.64l.44.82c.37.66.69,1.21,1,1.73l.38.57.06.1c.18.29.42.66.67,1,.53.68,1,1.24,1.47,1.76.28.3.56.6.86.89l.7.59c.21.15.41.32.61.48l.09.07.44.36.4.28.45.26.18.09.44.27c.2.12.4.25.61.35l.29.11.77.31.32.12.05,0h0l.34.12.61.29.24.12.32.11,0-.05-.15-.13,0,0-.32-.29-.21-.16q-.3-.21-.6-.45l-.17-.14a7.71,7.71,0,0,1-.59-.5c-.06,0-.11-.11-.16-.16l-.06-.06a1.37,1.37,0,0,0-.17-.17,1.57,1.57,0,0,0-.19-.18L17,66.86a4.46,4.46,0,0,1-.56-.69L16.33,66l-.21-.22,0,0a2.23,2.23,0,0,1-.26-.27,5.32,5.32,0,0,1-.56-.8,4.93,4.93,0,0,0-.34-.54L14.85,64a4.83,4.83,0,0,1-.33-.64l0-.12-.21-.42c-.07-.13-.13-.23-.18-.34s-.11-.23-.16-.35l-.2-.44a7.21,7.21,0,0,1-.44-.93c0-.12-.07-.23-.11-.34a3.58,3.58,0,0,0-.11-.35l-.15-.4-.12-.29c-.06-.17-.12-.36-.19-.6s-.19-.75-.27-1.1-.19-.9-.27-1.34l0-.09c-.06-.31-.11-.61-.17-.92,0-.14-.06-.27-.1-.4l-.06-.28a6.17,6.17,0,0,1-.12-.75,9.56,9.56,0,0,1-.07-1.26v-1l-.09,0-.07,0-.25.07h0l-.17,0-.07,0-.37.09a5,5,0,0,1-.82.07H9.47l-.63,0-.46,0H8.1a6.78,6.78,0,0,1-.89-.16l-.13,0H7a5.18,5.18,0,0,1-.53-.14c-.3-.1-.61-.23-.87-.34l0,0H5.52Z" />
        <path d="M34.33,21.74a.33.33,0,0,1-.16.3.6.6,0,0,1-.36.12h-.06a.44.44,0,0,1-.29-.11,3,3,0,0,1-.3-.39s-.09,0-.2.06a1.36,1.36,0,0,1-.76.2,2,2,0,0,1-1.39-.43,1.77,1.77,0,0,1-.48-1.36,2.2,2.2,0,0,1,.24-1.05,1.34,1.34,0,0,1,.49-.52,2.1,2.1,0,0,1,.72-.31l.27,0,.23,0c.18,0,.26,0,.26,0a6,6,0,0,0-.07-.87,4.38,4.38,0,0,1,0-.5v-.15a.33.33,0,0,1,.11-.21.38.38,0,0,1,.25-.11.35.35,0,0,1,.17.05.3.3,0,0,1,.15.19,3.16,3.16,0,0,1,.09.56c0,.19,0,.47.1.85s.09.71.13,1,0,.56.07.83a4.9,4.9,0,0,0,.27,1.35l.07.17H34a.37.37,0,0,1,.25.1A.33.33,0,0,1,34.33,21.74ZM32.5,19a.75.75,0,0,0-.39-.09l-.22,0A1.09,1.09,0,0,0,31,20.08a1.4,1.4,0,0,0,.16.77.78.78,0,0,0,.37.26,2,2,0,0,0,.61.1A.87.87,0,0,0,32.7,21l.11-.08v-.28a5.31,5.31,0,0,0-.07-.73c-.05-.32-.08-.51-.09-.55a2,2,0,0,0,0-.31A.17.17,0,0,0,32.5,19Z" />
        <path d="M37,17.94a1.1,1.1,0,0,1,.25,0,.75.75,0,0,1,.34.09c.13.07.2.1.23.09h0a.32.32,0,0,1,.28.15.37.37,0,0,1,.06.23v.12a3.45,3.45,0,0,1-.06.58,5.33,5.33,0,0,0-.13,1,1,1,0,0,0,.07.4.14.14,0,0,0,.13.1.93.93,0,0,0,.25-.06.63.63,0,0,1,.21,0,.35.35,0,0,1,.26.12.33.33,0,0,1,.1.25.28.28,0,0,1-.1.24.84.84,0,0,1-.33.16,1.32,1.32,0,0,1-.42.07.78.78,0,0,1-.57-.23l-.09-.1-.16.15a1.15,1.15,0,0,1-.77.33.87.87,0,0,1-.39-.1,1.22,1.22,0,0,1-.69-1.21,2.22,2.22,0,0,1,.12-.68A2.26,2.26,0,0,1,37,17.94Zm.4.66h-.06l-.05,0h0a1,1,0,0,0-.4.19,1.63,1.63,0,0,0-.41.58,2,2,0,0,0-.22.8v.14a.67.67,0,0,0,0,.26c.1.18.19.26.29.26a.37.37,0,0,0,.21-.09A.76.76,0,0,0,37,20.5,4.11,4.11,0,0,0,37.41,19a2.05,2.05,0,0,0,0-.34A.11.11,0,0,0,37.4,18.6Z" />
        <path d="M42.74,18.19a.31.31,0,0,1,.25-.11.3.3,0,0,1,.31.21.47.47,0,0,1,0,.24,11.67,11.67,0,0,1-.31,2c-.22,1-.38,1.9-.48,2.69a8.76,8.76,0,0,1-.27,1.56A.35.35,0,0,1,42,25h-.09a.33.33,0,0,1-.26-.34,1.83,1.83,0,0,1,.07-.46c0-.11.11-.71.26-1.79l0-.28-.15-.15a6.66,6.66,0,0,1-1-1.83l-.45-1a1.76,1.76,0,0,1-.2-.59.28.28,0,0,1,.18-.25.47.47,0,0,1,.16-.05.51.51,0,0,1,.17.05,1.12,1.12,0,0,1,.29.42c.23.48.38.8.44.95a6.38,6.38,0,0,0,.73,1.47s.06-.25.17-.73.17-.83.2-1a4.93,4.93,0,0,0,.08-.67C42.64,18.4,42.68,18.24,42.74,18.19Z" />
        <path d="M44.71,18.3a.88.88,0,0,1,.42-.41,1.29,1.29,0,0,1,.65-.17,1.76,1.76,0,0,1,.42.06.83.83,0,0,1,.6.52.67.67,0,0,1,.07.28.28.28,0,0,1-.08.19.28.28,0,0,1-.21.1c-.13,0-.24-.09-.32-.27a.63.63,0,0,0-.08-.15.24.24,0,0,0-.13,0l-.23,0c-.42,0-.63.23-.63.7a.33.33,0,0,0,.09.26,1,1,0,0,0,.43.16,2.62,2.62,0,0,1,.78.34,1.26,1.26,0,0,1,.42.54,1.44,1.44,0,0,1,.1.54,1.1,1.1,0,0,1-.6,1,.63.63,0,0,1-.21.1h-.39a1.46,1.46,0,0,1-.59-.1.81.81,0,0,1-.45-.54.44.44,0,0,1,0-.28.37.37,0,0,1,.34-.23c.14,0,.25.08.34.26a.28.28,0,0,0,.13.15,1,1,0,0,0,.3,0,.4.4,0,0,0,.31-.14.43.43,0,0,0,.12-.31.39.39,0,0,0,0-.18A.62.62,0,0,0,46,20.4a1.84,1.84,0,0,0-.55-.21,1.45,1.45,0,0,1-.76-.38,1,1,0,0,1-.25-.69A1.73,1.73,0,0,1,44.71,18.3Z" />
        <path d="M23.6,29.74a.32.32,0,0,1,.43.05l.1.1,0,.35c0,.27,0,.55.07.86,0,.49.06,1,.06,1.61a6.42,6.42,0,0,1,0,.95,4,4,0,0,1-.32,1.13.85.85,0,0,1-.77.59l-.18,0a1,1,0,0,1-.42-.24.48.48,0,0,1-.18-.33.36.36,0,0,1,.1-.27.39.39,0,0,1,.25-.1.37.37,0,0,1,.27.11.35.35,0,0,0,.17.1c.05,0,.11-.15.19-.4a4,4,0,0,0,.17-.73c0-.21,0-.49,0-.85a17.11,17.11,0,0,0-.1-1.83s0-.13,0-.26a2.16,2.16,0,0,1,0-.29v-.15C23.43,29.93,23.48,29.8,23.6,29.74Zm-.4-1.07a.29.29,0,0,1,.11-.22.31.31,0,0,1,.21-.11.41.41,0,0,1,.28.11.36.36,0,0,1,.11.25.34.34,0,0,1-.05.17.33.33,0,0,1-.3.18.31.31,0,0,1-.25-.11A.37.37,0,0,1,23.2,28.67Z" />
        <path d="M26.58,30.15a.7.7,0,0,1,.25,0,1,1,0,0,1,.44.1c.25.11.37.25.37.41a.42.42,0,0,0,.13.28,1.72,1.72,0,0,1,.34.72,3.47,3.47,0,0,1,.1.78,2.25,2.25,0,0,1-.33,1.24,1.5,1.5,0,0,1-.53.53,1.3,1.3,0,0,1-.66.2,1,1,0,0,1-.27,0,1.7,1.7,0,0,1-.93-.92,3.49,3.49,0,0,1-.08-.89c0-.24,0-.41,0-.51A2,2,0,0,1,26.58,30.15Zm.44.67a.33.33,0,0,0-.14,0,.59.59,0,0,0-.19,0q-.56.26-.57,1.71a2.79,2.79,0,0,0,0,.61.8.8,0,0,0,.22.32.51.51,0,0,0,.31.17h.1a.64.64,0,0,0,.36-.22A1.22,1.22,0,0,0,27.4,33a2.14,2.14,0,0,0-.19-1.62.55.55,0,0,1-.11-.25V31a.2.2,0,0,0,0-.13A.17.17,0,0,0,27,30.82Z" />
        <path d="M29.59,30.05a.32.32,0,0,1,.19-.05.36.36,0,0,1,.22.06.45.45,0,0,1,.14.33.9.9,0,0,1,0,.18c0,.35-.05.75-.05,1.22,0,.23,0,.39,0,.46a2,2,0,0,0,.16.6c.07.18.15.26.23.26a.38.38,0,0,0,.22-.1.66.66,0,0,0,.19-.18,1.26,1.26,0,0,0,.12-.45c0-.16,0-.51.05-1.06l0-1,.11-.1a.31.31,0,0,1,.48,0l.11.11,0,.44V31c0,.08,0,.24,0,.48V32c0,.57,0,.86.07.88h0a1.16,1.16,0,0,0,.34-.13,1.64,1.64,0,0,1,.39-.13h0a.36.36,0,0,1,.29.28.34.34,0,0,1,0,.11c0,.13-.1.25-.32.35a1.89,1.89,0,0,1-.85.28.71.71,0,0,1-.27-.05.36.36,0,0,1-.19-.1s-.07,0-.17.08a1.11,1.11,0,0,1-.67.23.83.83,0,0,1-.66-.29,2,2,0,0,1-.41-.94,1.88,1.88,0,0,1-.06-.51s0-.12,0-.26v-.36a4.16,4.16,0,0,1,.12-1.32A.44.44,0,0,1,29.59,30.05Z" />
        <path d="M34.53,29.78l0-.14,0,.17a.57.57,0,0,0,.12.23.46.46,0,0,1,.12.21,3.73,3.73,0,0,1,.1,1c0,.25,0,.38,0,.38s.05-.06.1-.19a2.43,2.43,0,0,1,.51-.84,2.08,2.08,0,0,1,.58-.45,1.75,1.75,0,0,1,.61-.22h.08a.64.64,0,0,1,.41.14.38.38,0,0,1,.16.31.34.34,0,0,1,0,.18.29.29,0,0,1-.3.16.41.41,0,0,1-.19,0l-.09,0a.77.77,0,0,0-.24.1,1.56,1.56,0,0,0-.69.63,4.48,4.48,0,0,0-.43,1.28,10.56,10.56,0,0,1-.3,1.19.32.32,0,0,1-.28.13.28.28,0,0,1-.29-.17,10.12,10.12,0,0,1-.19-2.21c0-.34,0-.54,0-.61s0-.11-.06-.11a.26.26,0,0,1-.17-.25v0a.85.85,0,0,1,.25-.58A.45.45,0,0,0,34.53,29.78Z" />
        <path d="M38.63,30.47a.33.33,0,0,1,.32-.21l.13,0c.13.06.22.24.26.53a1.49,1.49,0,0,0,.07.31s0,0,.06-.08a1.08,1.08,0,0,1,.21-.26.79.79,0,0,1,.25-.18.56.56,0,0,1,.23-.05c.34,0,.59.23.75.7a7.47,7.47,0,0,1,.15.75,2.67,2.67,0,0,0,.36,1.16.47.47,0,0,1,.17.36.29.29,0,0,1-.09.22.36.36,0,0,1-.27.11.45.45,0,0,1-.32-.15,3,3,0,0,1-.56-1.57c-.08-.52-.14-.77-.19-.77s-.15.16-.27.48a6.24,6.24,0,0,0-.29,1.21.79.79,0,0,1-.22.56.39.39,0,0,1-.2.06.33.33,0,0,1-.22-.11c-.11-.1-.16-.32-.16-.68a12.16,12.16,0,0,0-.12-1.67,1,1,0,0,1,0-.19l0-.19a1.62,1.62,0,0,1,0-.21A.3.3,0,0,1,38.63,30.47Z" />
        <path d="M44.24,29.91a1.1,1.1,0,0,1,.25,0,.75.75,0,0,1,.34.09c.13.07.21.1.23.09h0a.32.32,0,0,1,.28.15.37.37,0,0,1,.06.23v.12a3.45,3.45,0,0,1-.06.58,5.33,5.33,0,0,0-.13,1,1,1,0,0,0,.08.4.12.12,0,0,0,.12.1.93.93,0,0,0,.25-.06.63.63,0,0,1,.21,0,.35.35,0,0,1,.26.12.33.33,0,0,1,.1.25.27.27,0,0,1-.1.24.85.85,0,0,1-.32.16,1.42,1.42,0,0,1-.43.07.78.78,0,0,1-.57-.23l-.09-.1-.16.15a1.15,1.15,0,0,1-.76.33.88.88,0,0,1-.4-.1,1.22,1.22,0,0,1-.69-1.21,2.22,2.22,0,0,1,.12-.68A2.26,2.26,0,0,1,44.24,29.91Zm.4.66h0a.08.08,0,0,1-.06,0h0a1,1,0,0,0-.4.19,1.63,1.63,0,0,0-.41.58,2,2,0,0,0-.22.8v.14a.67.67,0,0,0,.05.26c.1.18.19.26.29.26a.37.37,0,0,0,.21-.09.76.76,0,0,0,.19-.21A4.11,4.11,0,0,0,44.65,31a2.05,2.05,0,0,0,0-.34A.11.11,0,0,0,44.64,30.57Z" />
        <path d="M47.49,28.08a.23.23,0,0,1,.16-.08.2.2,0,0,1,.2.13,5.66,5.66,0,0,1,.07.81c0,.61.07,1.36.14,2.25s.13,1.41.17,1.59a1.68,1.68,0,0,0,.11.31.86.86,0,0,1,0,.24c0,.21-.11.31-.33.31s-.42-.3-.48-.9a31.85,31.85,0,0,1-.16-3.68v-.91Z" />
        <path d="M51,30.16l.19,0a1.12,1.12,0,0,1,.82.29,1,1,0,0,1,.22.42,2.28,2.28,0,0,1,.08.55.94.94,0,0,1-.05.3c-.06.13-.21.21-.45.26a6.29,6.29,0,0,0-.62.16c-.33.1-.53.15-.59.16a.13.13,0,0,0-.1,0,.73.73,0,0,0,0,.15v0a2.13,2.13,0,0,0,.12.74.88.88,0,0,0,.24.34.81.81,0,0,0,.38.17h.07a.54.54,0,0,0,.46-.19c.15-.21.29-.32.4-.32a.37.37,0,0,1,.27.11.36.36,0,0,1,.11.26.59.59,0,0,1-.12.29,1.23,1.23,0,0,1-.24.29,1.45,1.45,0,0,1-.89.26,1.5,1.5,0,0,1-.49-.07,1.47,1.47,0,0,1-.79-.74,2.4,2.4,0,0,1-.24-1.07.54.54,0,0,0-.09-.35.4.4,0,0,1-.08-.2.39.39,0,0,1,.12-.23.47.47,0,0,0,.11-.16.85.85,0,0,1,0-.25A1.45,1.45,0,0,1,51,30.16Zm.5.79a.38.38,0,0,0-.22-.06h-.07a.51.51,0,0,0-.45.25.84.84,0,0,0-.16.37v0h0a3.18,3.18,0,0,0,.49-.13l.44-.15s0-.05,0-.14S51.47,31,51.46,31Z" />
        <path d="M57.64,33.71a.36.36,0,0,1-.16.31.72.72,0,0,1-.36.11h-.06a.44.44,0,0,1-.29-.11,1.89,1.89,0,0,1-.3-.39s-.09,0-.2.06a1.36,1.36,0,0,1-.76.2,2,2,0,0,1-1.4-.43,1.81,1.81,0,0,1-.47-1.36,2.2,2.2,0,0,1,.24-1.05,1.34,1.34,0,0,1,.49-.52,2.1,2.1,0,0,1,.72-.31l.27,0,.23,0c.18,0,.26,0,.26,0a6,6,0,0,0-.07-.87,2.89,2.89,0,0,1,0-.5v-.15a.33.33,0,0,1,.11-.21.38.38,0,0,1,.25-.11.35.35,0,0,1,.17.05.32.32,0,0,1,.15.19,3.16,3.16,0,0,1,.09.56c0,.19.05.47.1.85s.09.71.13,1,0,.57.07.83a4.76,4.76,0,0,0,.27,1.35l.07.17h.14a.37.37,0,0,1,.25.1A.33.33,0,0,1,57.64,33.71Zm-1.83-2.77a.75.75,0,0,0-.39-.09l-.22,0a1.09,1.09,0,0,0-.86,1.18,1.47,1.47,0,0,0,.16.78.77.77,0,0,0,.37.25,1.66,1.66,0,0,0,.61.1A.87.87,0,0,0,56,33l.11-.08v-.28a5.77,5.77,0,0,0-.08-.73c0-.32-.07-.51-.08-.55a2.35,2.35,0,0,0-.05-.31A.17.17,0,0,0,55.81,30.94Z" /><text id="calendar" class="cls-5" transform="translate(20 51.63)">boobs</text></g>
    </g>
  </g>
  <script type="text/javascript">
    window.addEventListener('load',function(){
        const start = new Date('5/23/2013');
        const today = new Date();
        const diffTime = Math.abs(today - start);
        const diffDays = Math.ceil(diffTime / (1000 * 60 * 60 * 24));
        document.querySelector("#calendar").textContent = diffDays;
        })
    
  </script>
</svg>
