<svg xmlns="http://www.w3.org/2000/svg" viewBox="0 0 324.64 168.25"><defs><style>.cls-1{fill:#fefefe;}</style></defs><g id="Layer_2" data-name="Layer 2"><g id="Draw_Layer" data-name="Draw Layer"><path class="cls-1" d="M278,.14A5.73,5.73,0,0,0,275.15,2c-.47.48-.88,1-1.34,1.52-1.05,1.13-2.14,2.22-3.15,3.39a41.52,41.52,0,0,1-3.5,3.52c-1.3,1.22-2.56,2.47-3.89,3.66s-2.57,2.14-3.85,3.23c-1.12,1-2.22,1.91-3.37,2.83-2.39,1.77-4.81,3.49-7.14,5.34l-1.19.91c-1.65,1.21-3.27,2.47-4.9,3.73-1.21.93-2.36,1.94-3.56,2.9-1.56,1.09-3.19,2.07-4.8,3.08s-3.33,2.15-5,3.16c-3.76,2.23-7.67,4.19-11.48,6.32-2,1.1-3.95,2.17-5.9,3.31s-4,2.28-5.95,3.4c-3.82,2.14-7.62,4.33-11.48,6.4l-5.2,2.79c-1.83,1-3.7,1.85-5.54,2.79-3.94,2-7.83,4.12-11.7,6.26-4.15,2.3-8.29,4.61-12.5,6.81-1.79.93-3.63,1.78-5.44,2.67s-3.85,1.89-5.79,2.81c-3.9,1.86-7.73,3.86-11.59,5.82s-7.8,3.73-11.74,5.54S117.06,98,113,100s-7.83,3.73-11.68,5.73-7.69,4.2-11.55,6.28-7.81,4-11.73,6-7.85,3.86-11.69,5.92-7.4,4.27-11.1,6.41C48.75,134.09,42,137.44,35.34,141c-3.18,1.69-6.3,3.5-9.43,5.28a94.32,94.32,0,0,1-10,5.16c-2.16.83-4.36,1.56-6.47,2.52q-3.64,1.66-7.3,3.26a4.07,4.07,0,0,0-2,2.51A4.28,4.28,0,0,0,3.07,165a4.62,4.62,0,0,0,3.28-.39c1.6-.7,3.22-1.38,4.81-2.1,1.21-.54,2.39-1.11,3.6-1.63,1.87-.71,3.76-1.39,5.62-2.15a48.08,48.08,0,0,0,5.36-2.59c3.64-2,7.24-4.12,10.88-6.15,3.47-1.94,7-3.76,10.53-5.61,1.84-1,3.7-1.9,5.53-2.89s3.74-2,5.59-3.09C62,136.3,65.61,134,69.35,132S77,128,80.82,126.11s7.83-3.83,11.68-5.89,7.64-4.3,11.53-6.3,7.87-4,11.86-5.88,7.85-3.9,11.84-5.74,8-3.57,11.87-5.54,7.69-4,11.59-5.85,7.71-3.71,11.54-5.61,7.78-4.13,11.64-6.27,8-4.42,12.08-6.53c3.75-2,7.55-3.8,11.26-5.83s7.45-4.1,11.16-6.19c3.94-2.23,7.85-4.51,11.81-6.69,3.81-2.1,7.65-4.14,11.44-6.27,1.81-1,3.57-2.11,5.31-3.24s3.4-2.13,5.09-3.21a49,49,0,0,0,4.8-3.7c1.31-1.08,2.66-2.11,4-3.15,1-.74,2-1.47,2.94-2.22l-.88.66c1.16-.88,2.3-1.78,3.45-2.67,2.41-1.75,4.82-3.47,7.09-5.4,1.11-.94,2.23-1.85,3.34-2.78-.56,1.14-1.13,2.27-1.67,3.41-1.12,2.37-2,4.85-3,7.26l-.53,1.2.13-.29c-1.23,2.73-2.59,5.39-4.05,8a77.07,77.07,0,0,0-4,8.27,42.4,42.4,0,0,1-2.86,5.1c-1.18,1.86-2.33,3.74-3.63,5.51a51.79,51.79,0,0,1-3.91,4.07A12.16,12.16,0,0,0,242.23,66a6.5,6.5,0,0,0-.66,1.38A4.15,4.15,0,0,0,242,70.8a5,5,0,0,0,1.59,1.64,4.78,4.78,0,0,0,2.24.66A8.19,8.19,0,0,0,247.7,73c1.78-.13,3.57-.16,5.35-.33a71.35,71.35,0,0,0,7.1-1.14c2-.42,4-.91,6-1.52,2.13-.65,4.24-1.33,6.38-2a117.12,117.12,0,0,0,13.21-4.81c3.42-1.47,6.77-3.16,10.07-4.89,2.17-1.13,4.38-2.19,6.56-3.31s4.33-2.43,6.46-3.7l.6-.36-1.49,2c-1.15,1.55-2.26,3.12-3.42,4.65-.13.18-.27.35-.4.52-1.88,2.33-3.88,4.56-5.74,6.91l.26-.35c-.61.77-1.27,1.52-1.9,2.29s-1.32,1.68-2,2.53q-1.47,1.77-3,3.52c-1.15,1.35-2.21,2.8-3.27,4.22-.56.67-1.16,1.3-1.76,1.93-.83.88-1.73,1.66-2.6,2.49-1.39,1.32-2.72,2.74-4.2,3.95l.38-.28c-.38.28-.75.57-1.12.86a29.77,29.77,0,0,0-3.5,2.94,30.79,30.79,0,0,1-2.82,2.4l.88-.67c-.89.68-1.77,1.39-2.65,2.09-.53.42-1,.88-1.55,1.31l-.06,0-3,2.26.88-.66c-.74.53-1.51,1-2.27,1.55s-1.72,1.16-2.6,1.7-1.59,1.06-2.43,1.52c-1,.56-2,1.14-2.91,1.79-1.66,1.17-3.36,2.33-5.09,3.39-.75.47-1.45,1-2.19,1.48s-1.75,1.11-2.63,1.66c-1.74,1.08-3.46,2.18-5.22,3.22-.88.53-1.76,1-2.63,1.59s-1.68,1.13-2.54,1.67c-3.4,2.12-6.79,4.29-10.27,6.26-.75.43-1.48.91-2.23,1.34l-2.64,1.45c-1.83,1-3.61,2.12-5.43,3.15s-3.39,2-5.1,3c-1.55.9-3.11,1.79-4.63,2.75-.74.47-1.52.87-2.26,1.33-1,.6-1.94,1.17-2.91,1.75a51.16,51.16,0,0,1-4.64,2.72c-.89.41-1.77.81-2.64,1.26s-1.89,1.08-2.85,1.6-1.76.85-2.63,1.32-2,.93-3,1.42-1.79,1-2.73,1.43-1.91,1-2.9,1.49l-1.35.57a11.48,11.48,0,0,0-1.55.82c-.79.49-1.72.74-2.5,1.24-1.32.84-2.63,1.71-3.95,2.55-.91.58-1.76,1.24-2.65,1.85-.32.22-.67.4-1,.63s-.77.57-1.15.87a8.83,8.83,0,0,1-1.07.63c-.82.28-1.66.52-2.5.74a11.54,11.54,0,0,0-2.6,1.25c-.25.14-.5.26-.76.38-.7.23-1.41.4-2.11.62a4.37,4.37,0,0,0-2.6,1.95,4.22,4.22,0,0,0-.47,3.22,4.27,4.27,0,0,0,5.16,3.07c.74-.23,1.49-.41,2.23-.66a21.79,21.79,0,0,0,2.4-1c.43-.21.83-.46,1.24-.7.8-.23,1.6-.44,2.38-.72a13.35,13.35,0,0,0,2.54-1.12,16.34,16.34,0,0,0,1.73-1.27c.47-.32,1-.61,1.43-.95.76-.55,1.51-1.08,2.3-1.58,1.1-.69,2.18-1.4,3.26-2.11a15.7,15.7,0,0,1,2-1c.74-.34,1.4-.81,2.13-1.17s1.69-.69,2.51-1.11,1.61-.88,2.46-1.26,1.57-.83,2.35-1.26c1-.52,2-.9,3-1.42s1.77-.86,2.64-1.32,1.87-1.11,2.84-1.6c1.78-.9,3.6-1.67,5.3-2.73.67-.41,1.31-.86,2-1.25,1-.58,1.95-1.15,2.91-1.75.74-.46,1.51-.88,2.26-1.33s1.55-1,2.34-1.42c1.67-1,3.3-2,5-2.9s3.43-2,5.14-3,3.57-2,5.35-3c1.59-.9,3.12-1.89,4.71-2.79,1.79-1,3.53-2.16,5.27-3.27.83-.54,1.68-1,2.53-1.54s1.68-1.13,2.54-1.67c1.8-1.12,3.63-2.19,5.43-3.31l2.81-1.75c1-.65,2.1-1.3,3.11-2,1.81-1.26,3.68-2.47,5.54-3.68,1-.67,2-1.39,3.09-2s2.09-1.24,3.12-1.89,2-1.3,3-2,1.78-1.22,2.64-1.87l0,0c.76-.57,1.53-1.12,2.28-1.69l-.52.4c1.54-1.12,3-2.38,4.45-3.58l-.88.67c1.22-.93,2.39-1.9,3.57-2.89.44-.37.83-.81,1.26-1.21a16.5,16.5,0,0,1,1.43-1.2l1.69-1.3-.88.67A24.09,24.09,0,0,0,287,90.71c.45-.43.9-.87,1.36-1.28s.88-.89,1.35-1.32l1.74-1.58a51.07,51.07,0,0,0,6.11-7.18c.8-1,1.66-1.94,2.47-2.93s1.77-2.21,2.63-3.33,2-2.43,3-3.68l-.67.85c2.09-2.53,4.26-5,6.29-7.59,2.24-2.88,4.36-5.87,6.52-8.8a44.35,44.35,0,0,0,2.92-4.62c.86-1.56,1.72-3.14,2.47-4.75a17.38,17.38,0,0,0,1.31-3.08,4.89,4.89,0,0,0-.47-3.78c-.23-.29-.44-.59-.67-.88a4.22,4.22,0,0,0-1.85-1.1,4.43,4.43,0,0,0-2.55-.09A15,15,0,0,0,315.55,37c-.89.47-1.74,1-2.58,1.54-1.61,1-3.2,2.11-4.8,3.17s-3.44,2.11-5.15,3.16c-3.59,2.21-7.41,4-11.14,5.91s-7.32,3.73-11.09,5.35c-2.06.82-4.13,1.62-6.23,2.36-2.55.88-5.16,1.57-7.74,2.37-2.41.75-4.8,1.54-7.26,2.07-1.35.29-2.7.57-4.06.81.46-.66.91-1.34,1.33-2,.81-1.33,1.73-2.61,2.51-4a48.11,48.11,0,0,0,2.79-5.5c1.1-2.43,2.3-4.78,3.6-7.1A101.15,101.15,0,0,0,270.22,36l-.43,1c1-2.33,2-4.69,2.95-7,.68-1.5,1.41-3,2.14-4.45.9-1.81,1.65-3.69,2.43-5.55S279.13,16,280,14.06l.89-2-.18.43.19-.45.24-.55c-.08.18-.16.36-.23.54q1-2.28,1.85-4.6a10.31,10.31,0,0,0,.75-2.74,4.35,4.35,0,0,0-1.23-3.34A4.56,4.56,0,0,0,280.35.16,3.52,3.52,0,0,0,279.28,0,7.46,7.46,0,0,0,278,.14Zm32.59,63.34L311,63l-.42.53ZM311,63l.07-.09L311,63Zm.22-.28-.15.19.18-.24,0,.05Z"/><path class="cls-1" d="M103.21,125.79a8.55,8.55,0,0,0-2,.57,23.81,23.81,0,0,0-2.27,1c-1.39.72-2.78,1.43-4.15,2.2S92,131.19,90.59,132s-2.8,1.63-4.21,2.41c-2.79,1.54-5.61,3-8.49,4.37-1.49.69-2.94,1.43-4.4,2.18s-2.75,1.48-4.12,2.24-2.94,1.62-4.43,2.4l-4,2.15c-2.85,1.49-5.8,2.78-8.76,4-.83.35-1.66.72-2.47,1.11s-1.75.92-2.62,1.38-1.69.79-2.53,1.19-1.86.84-2.78,1.28a1.5,1.5,0,1,0,1.41,2.64c1.47-.7,3-1.36,4.46-2,.68-.31,1.33-.68,2-1s1.36-.72,2-1c2.88-1.31,5.81-2.49,8.64-3.88q2.22-1.09,4.39-2.29c.65-.36,1.32-.7,2-1s1.41-.76,2.12-1.14c1.45-.79,2.88-1.6,4.32-2.39s2.81-1.47,4.22-2.18,2.94-1.39,4.39-2.13,2.74-1.36,4.08-2.09,2.88-1.56,4.29-2.38,2.82-1.68,4.22-2.53,2.59-1.49,3.91-2.19a39.71,39.71,0,0,1,3.71-1.81,8.8,8.8,0,0,1,2-.53,1.39,1.39,0,0,0,.92-.66,1.45,1.45,0,0,0,.19-1.15,1.56,1.56,0,0,0-.65-.92,1.45,1.45,0,0,0-.79-.21l-.36,0Z"/><path class="cls-1" d="M125.85,126.57c-1.35.77-2.72,1.52-4.08,2.28-.69.39-1.39.77-2.1,1.13s-1.4.7-2.09,1.08-1.42.74-2.12,1.13-1.35.77-2,1.16l-2.06,1.19-2.08,1.15c-1.36.77-2.73,1.5-4.09,2.26s-2.73,1.6-4.13,2.34-2.83,1.46-4.24,2.19-2.77,1.58-4.14,2.39-2.59,1.62-3.92,2.37-2.69,1.4-4,2.08-2.78,1.33-4.17,2-2.71,1.39-4.09,2.05l-1.63.76a1.51,1.51,0,0,0-.61,2,1.53,1.53,0,0,0,2,.62c.82-.39,1.64-.77,2.45-1.18.66-.32,1.31-.68,2-1s1.31-.64,2-1,1.33-.64,2-1a74.84,74.84,0,0,0,8.24-4.41c1.35-.85,2.72-1.65,4.1-2.45s2.77-1.49,4.17-2.19,2.69-1.47,4-2.23,2.88-1.6,4.32-2.4,2.71-1.47,4-2.24,2.75-1.63,4.16-2.37c.67-.36,1.34-.72,2-1.07s1.43-.72,2.14-1.1c1.33-.7,2.64-1.46,4-2.18l1.45-.82a1.5,1.5,0,0,0-.72-2.82,1.41,1.41,0,0,0-.69.17Z"/><path class="cls-1" d="M121.43,141.92c-1.17.52-2.28,1.13-3.4,1.72s-2.39,1.18-3.57,1.79-2.23,1.16-3.31,1.82-2.29,1.52-3.41,2.31l.32-.22-.75.53.11-.08c-.71.5-1.43,1-2.16,1.46s-1.5.89-2.26,1.31c-1.58.88-3.24,1.64-4.88,2.43a1.5,1.5,0,0,0,1.41,2.65c1.64-.79,3.3-1.55,4.89-2.43.75-.43,1.52-.84,2.25-1.32s1.68-1.11,2.5-1.69l-.32.22.65-.45h0c1.05-.73,2.09-1.48,3.18-2.14s2.2-1.23,3.31-1.81,2.31-1.15,3.46-1.74,2.24-1.2,3.4-1.71a1.51,1.51,0,0,0,.62-2,1.54,1.54,0,0,0-.89-.73,1.51,1.51,0,0,0-.41-.06,1.9,1.9,0,0,0-.73.17Z"/><path class="cls-1" d="M127.07,150.55c-1.59,1-3.12,2.11-4.75,3-.75.43-1.51.84-2.22,1.32-.92.63-1.8,1.31-2.68,2a1.5,1.5,0,0,0,1,2.6,1.57,1.57,0,0,0,1.06-.4c.62-.47,1.23-1,1.86-1.41,1.06-.71,2.2-1.32,3.3-2,1.32-.79,2.57-1.71,3.87-2.53a1.55,1.55,0,0,0,.73-.88,1.49,1.49,0,0,0-.11-1.15,1.57,1.57,0,0,0-1.36-.8,1.25,1.25,0,0,0-.67.18Z"/><path class="cls-1" d="M263.92,25.13c-.69.83-1.39,1.65-2.06,2.5s-1.17,1.56-1.72,2.37c-1.05,1.5-2.06,3-3.17,4.51a26.38,26.38,0,0,1-2.1,2.13c-.46.41-.93.81-1.37,1.25s-.88.86-1.33,1.28c-.89.82-1.77,1.63-2.63,2.48-.4.4-.76.85-1.13,1.28s-.82,1-1.22,1.47a13.4,13.4,0,0,1-1,1.1c-.45.39-.89.78-1.35,1.16-.93.78-1.84,1.59-2.71,2.43s-1.7,1.68-2.6,2.46-1.85,1.53-2.82,2.23c-1.48,1-2.93,2.08-4.39,3.14-1.25.86-2.53,1.69-3.81,2.51s-2.55,1.67-3.88,2.43c-.66.37-1.34.72-2,1.1l-2,1.13c-.68.4-1.35.83-2,1.24s-1.36.74-2,1.11-1.35.66-2,1l-2.44,1.29a1.5,1.5,0,1,0,1.41,2.65c.77-.42,1.54-.82,2.32-1.22s1.41-.69,2.1-1,1.37-.73,2-1.11,1.37-.83,2.05-1.25c1.3-.79,2.65-1.5,4-2.23s2.6-1.58,3.87-2.41,2.48-1.59,3.68-2.43,2.23-1.61,3.35-2.41c1.32-.92,2.65-1.82,3.88-2.85s2.12-1.9,3.14-2.9,2.17-2,3.29-2.94A18.63,18.63,0,0,0,248.91,47c.48-.55,1-1.13,1.41-1.7s.88-1,1.36-1.51,1.08-1.07,1.66-1.57c1.13-1,2.15-2.11,3.28-3.1a21.11,21.11,0,0,0,3.15-3.33c.92-1.25,1.78-2.55,2.67-3.82.39-.57.77-1.15,1.19-1.71s.93-1.2,1.4-1.79l.92-1.1a1.5,1.5,0,0,0,.09-2.13,1.56,1.56,0,0,0-1.06-.48h0a1.43,1.43,0,0,0-1,.4Zm-27,28.46-.22.16.22-.16Z"/><path class="cls-1" d="M309.64,49.46c-.69.59-1.39,1.18-2,1.81l-1.86,1.84c-.61.59-1.24,1.16-1.85,1.73A20.56,20.56,0,0,1,302,56.33c-1.48,1-2.95,2.12-4.42,3.2s-3.11,2.12-4.64,3.22-3,2.31-4.48,3.4l-1.27.92c-1.23.83-2.5,1.58-3.77,2.36s-2.54,1.54-3.8,2.33-2.56,1.57-3.84,2.36-2.64,1.72-4,2.54-2.68,1.51-4,2.24-2.77,1.39-4.19,2c-2.88,1.26-5.79,2.42-8.65,3.73-.95.44-1.89.89-2.82,1.36s-1.84,1-2.76,1.51c-1.92,1-3.78,2.16-5.62,3.31a1.63,1.63,0,0,0-.73.88,1.58,1.58,0,0,0,.11,1.15,1.52,1.52,0,0,0,2,.62c1.42-.88,2.82-1.77,4.28-2.57l4.1-2.25c1.4-.76,2.87-1.38,4.33-2s2.74-1.2,4.12-1.78,2.89-1.22,4.31-1.88,2.85-1.39,4.25-2.15,2.73-1.53,4.05-2.37c.67-.41,1.32-.86,2-1.29L278.5,76c1.9-1.15,3.77-2.32,5.66-3.48.95-.57,1.9-1.14,2.84-1.72s1.87-1.24,2.79-1.9,1.89-1.36,2.8-2.09,1.62-1.26,2.44-1.86c1.19-.82,2.38-1.63,3.57-2.46s2.38-1.72,3.56-2.59c.85-.59,1.71-1.16,2.52-1.79a27.29,27.29,0,0,0,2.28-2c.75-.71,1.48-1.42,2.21-2.14s1.64-1.54,2.5-2.27a1.52,1.52,0,0,0,.09-2.13,1.5,1.5,0,0,0-1.08-.47,1.64,1.64,0,0,0-1,.39ZM287.43,66.92l-.18.12.18-.12Z"/><path class="cls-1" d="M271.87,17.2c-.83,1-1.68,1.89-2.52,2.84s-1.59,1.88-2.35,2.86c-1.45,1.85-2.93,3.67-4.34,5.55a1.51,1.51,0,0,0,.46,2.07,1.5,1.5,0,0,0,2.07-.47q1.32-1.76,2.7-3.47c.88-1.1,1.73-2.22,2.62-3.32,1.11-1.31,2.28-2.56,3.4-3.85a1.61,1.61,0,0,0,.48-1.07,1.55,1.55,0,0,0-.39-1.06,1.59,1.59,0,0,0-1.07-.48h0a1.45,1.45,0,0,0-1,.4Z"/><path class="cls-1" d="M269.91,16.8a31.88,31.88,0,0,0-2.73,3.63c-.77,1.16-1.54,2.31-2.25,3.5s-1.33,2.35-1.92,3.56a8.54,8.54,0,0,0-.78,2.19c-.17.86-.28,1.72-.37,2.59a1.5,1.5,0,0,0,1.46,1.54,1.45,1.45,0,0,0,1.06-.4,1.54,1.54,0,0,0,.48-1.06c.06-.5.11-1,.19-1.52a7.7,7.7,0,0,1,.22-.95c.1-.31.21-.61.33-.91a54.31,54.31,0,0,1,2.85-5c1.05-1.63,2.15-3.25,3.35-4.77L272,19a1.63,1.63,0,0,0,.48-1.05A1.52,1.52,0,0,0,271,16.4h0a1.48,1.48,0,0,0-1,.4Z"/><path class="cls-1" d="M255.58,48.09A47.87,47.87,0,0,0,251.41,52c-.66.67-1.32,1.34-2,2s-1.33,1-2,1.55-1.36.92-2,1.4l.08-.06c-2,1.44-4,3-6,4.42L238.3,62c-.48.31-1,.61-1.42.93-1,.72-2,1.45-3,2.18l.07,0-.11.08,0,0,0,0-.86.62c-.79.55-1.59,1.1-2.35,1.7s-1.37,1.25-2.05,1.88a1.5,1.5,0,0,0,2,2.21,31,31,0,0,1,2.8-2.46L235,68l-.1.07.16-.12.15-.11-.07,0c.89-.62,1.77-1.25,2.65-1.89.68-.47,1.38-.93,2.07-1.39.85-.55,1.66-1.16,2.47-1.76,1.45-1.06,2.88-2.15,4.34-3.21l.65-.46c1-.68,2-1.36,3-2.06a20,20,0,0,0,2.5-2.19c.8-.79,1.56-1.6,2.36-2.38s1.65-1.5,2.51-2.2a1.51,1.51,0,0,0,.09-2.12,1.44,1.44,0,0,0-1.07-.47,1.67,1.67,0,0,0-1,.38ZM247.53,59l-.15.11.15-.11Zm-.8.57-.08,0,.08,0Zm-.1.07-.21.15.21-.15Zm-13.74,6.17-.2.15.2-.15Zm.34,3.41-.15.11.15-.11ZM235,67.9,235,68l.14-.11-.08.06Zm-1.22-2.78h0Z"/><path class="cls-1" d="M274,67.32c-.68.43-1.36.84-2,1.25s-1.39.83-2.1,1.2-1.43.74-2.17,1.06l-2,.91c-.73.32-1.47.62-2.19.94l-2.14,1c-1.46.68-2.88,1.42-4.33,2.13-.86.42-1.74.83-2.59,1.27s-1.72,1-2.58,1.43-1.67.86-2.53,1.26-1.84,1-2.75,1.44A1.5,1.5,0,1,0,248,83.84c.75-.4,1.49-.8,2.25-1.18s1.32-.64,2-1c1.33-.68,2.62-1.45,3.95-2.14s2.74-1.32,4.1-2,3-1.47,4.49-2.14c.92-.41,1.85-.8,2.76-1.21s1.76-.76,2.63-1.18,1.8-.93,2.67-1.45,1.76-1,2.62-1.59a1.54,1.54,0,0,0,.73-.89,1.51,1.51,0,0,0-.11-1.14,1.59,1.59,0,0,0-1.36-.81,1.21,1.21,0,0,0-.67.19Z"/><path class="cls-1" d="M292.76,74.15c-1.36.94-2.75,1.84-4.14,2.73s-2.66,1.57-4,2.31-2.77,1.48-4.12,2.28-2.63,1.6-3.94,2.41-2.6,1.66-3.92,2.47-2.68,1.64-4,2.44-2.66,1.61-4,2.36-2.74,1.38-4.13,2-2.58,1.19-3.89,1.72c-1.52.56-3,1.08-4.54,1.68s-3.06,1.19-4.59,1.78a1.42,1.42,0,0,0-.73.88,1.49,1.49,0,0,0,.11,1.15,1.52,1.52,0,0,0,.89.72,1.61,1.61,0,0,0,1.14-.11c1.87-.71,3.74-1.45,5.62-2.17,1.51-.53,3-1,4.51-1.69s2.87-1.3,4.3-2A43.12,43.12,0,0,0,267.43,93c1.35-.82,2.73-1.61,4.08-2.45s2.63-1.56,3.91-2.38,2.66-1.7,4-2.52,2.64-1.63,4-2.38,2.72-1.47,4.07-2.22c2.3-1.3,4.51-2.75,6.69-4.24a1.65,1.65,0,0,0,.73-.89,1.55,1.55,0,0,0-.11-1.14,1.5,1.5,0,0,0-.89-.73,1.78,1.78,0,0,0-.47-.07,1.3,1.3,0,0,0-.68.18Z"/><path class="cls-1" d="M170.13,93.35a2,2,0,0,0-.68,2.74c1.3,2,2.62,3.93,3.92,5.9.57.86,1.16,1.71,1.7,2.6s1.18,1.91,1.74,2.89c1,1.74,1.92,3.54,2.88,5.32a61.76,61.76,0,0,0,3.28,5.32c1,1.45,2,2.83,3,4.26.47.69.93,1.4,1.37,2.12s.81,1.29,1.16,2v0a2,2,0,1,0,3.84-1.13,13.08,13.08,0,0,0-1.59-2.94c-.5-.83-1-1.64-1.58-2.43s-1.2-1.64-1.79-2.48-1.1-1.64-1.66-2.46a54.83,54.83,0,0,1-3.15-5.33c-1-1.82-1.94-3.64-3-5.42s-2.08-3.31-3.17-4.94-2.38-3.56-3.55-5.35a2.1,2.1,0,0,0-1.74-1,1.9,1.9,0,0,0-1,.29Zm18.26,32.84a.75.75,0,0,1,.06.13l-.06-.13Z"/><path class="cls-1" d="M187.38,92.52a13.13,13.13,0,0,1-.66,1.15c-.25.45-.5.9-.76,1.34-.49.86-1,1.72-1.44,2.59-1,1.8-2,3.61-3.11,5.33s-2.34,3.3-3.49,4.95-2.39,3.53-3.55,5.32c-1.55,2.39-3.07,4.81-4.71,7.14-.76,1.09-1.56,2.16-2.3,3.27a38.93,38.93,0,0,0-2.24,4,2,2,0,0,0,3.49,2c.49-1,1-2,1.55-3s1.07-1.7,1.66-2.51q1.74-2.41,3.39-4.9c2.36-3.56,4.59-7.19,7.08-10.66.78-1.09,1.57-2.17,2.33-3.28s1.53-2.43,2.24-3.68,1.32-2.42,2-3.62c.35-.61.71-1.21,1.05-1.83s.69-1.11,1-1.7a2.11,2.11,0,0,0,.17-1.54,2,2,0,0,0-.93-1.18,2,2,0,0,0-1-.25,1.9,1.9,0,0,0-1.75,1Z"/></g></g></svg>