<svg xmlns="http://www.w3.org/2000/svg" viewBox="0 0 187.09 186.25"><defs><style>.cls-1{fill:#fefefe;}.cls-2{fill:#707da7;}.cls-3{fill:#3a4172;}.cls-4{fill:#c7ccdd;}</style></defs><g id="Layer_2" data-name="Layer 2"><g id="Draw_Layer" data-name="Draw Layer"><path class="cls-1" d="M59.86,0h-.57c-1.49,0-3,0-4.53.2L53,.42c-.91.1-1.81.21-2.72.29L46.74,1h-.19l-.85.06-.56,0-.16,0h-.4c-1,.07-1.93.17-2.89.28l-1.93.2c-1.51.1-3,.12-4.54.15H35c-.6,0-1.2,0-1.79.06l-.77,0c-.39,0-.77,0-1.16,0H29.91l-1.4,0c-1.12,0-2.25,0-3.38,0H23.8c-1.36,0-2.71.05-4.06.1h-.62L18,2l-.72,0h-.4L15.56,2h-1c-1,0-2.09-.09-3.11-.17l-1.2-.09c-.41,0-.83,0-1.24,0H7.66c-.21,0-.42,0-.63,0l-.6,0a2.2,2.2,0,0,0-.67.08,3.17,3.17,0,0,0-1.41.84A3.92,3.92,0,0,0,3.48,4c-.14.36-.28.72-.41,1.08l-.15.4a6.54,6.54,0,0,0-.46,1.69,2.66,2.66,0,0,0,.08,1,7.53,7.53,0,0,0,.38.88c0,.15-.09.28-.12.41A8.34,8.34,0,0,0,2.61,11c0,.4-.08.79-.13,1.18s-.1.73-.12,1.1c-.06.78-.11,1.55-.12,2.32,0,1-.05,1.89-.09,2.83,0,.68-.06,1.35-.08,2,0,.91,0,1.8,0,2.7v.78c0,.55,0,1.1,0,1.65s0,.82,0,1.23,0,.92.05,1.39c0,.68,0,1.39,0,2.08v1c0,1.41,0,2.87,0,4.31s0,3.22-.11,5.22c-.09,1.61-.06,3.25,0,4.83v.49c0,1.58,0,3.28,0,5.33v.66c0,.66,0,1.31,0,2l0,.71c0,.61,0,1.21,0,1.82S2,58,2.07,58.75c.05,1,.09,2,.09,2.94,0,.56,0,1.14-.07,1.71,0,.25,0,.51,0,.76,0,.52-.05,1-.08,1.54l-.05,1c-.06,1.27-.07,2.57-.08,3.82,0,.57,0,1.14,0,1.72,0,.75,0,1.5,0,2.25,0,1,0,1.93,0,2.89s0,2-.05,3c0,.7,0,1.4,0,2.1s0,1.4-.07,2.11c0,.94-.09,1.91-.08,2.87,0,.79,0,1.58,0,2.37s0,1.83,0,2.76c0,1.55-.07,3.13-.15,4.65l0,.38c-.08,1.6-.07,3.23-.05,4.81v.46c0,1,0,2.08,0,3.11,0,.61,0,1.22,0,1.83v.46c0,.69,0,1.37,0,2.06,0,.52-.05,1-.09,1.58,0,.38-.06.77-.08,1.16-.08,1.65-.09,3.38,0,5.27,0,.92.06,1.85.06,2.77,0,.48,0,.95,0,1.43l0,1.08c0,1.56-.07,3.11-.08,4.66,0,.79,0,1.59-.07,2.38S.93,132.26.92,133c0,.94-.05,1.87-.1,2.81,0,.7-.07,1.4-.09,2.11l0,1.64c0,1.16,0,2.33-.1,3.49l-.07,1.28c-.07,1.25-.14,2.53-.13,3.81,0,.36,0,.73,0,1.09s0,.82,0,1.24c0,.71,0,1.46-.12,2.37l-.1,1c-.12,1.26-.24,2.56-.24,3.86a22.1,22.1,0,0,0,.3,3.15c.07.5.14,1,.19,1.49l.08,1c.05.67.1,1.33.16,2,.05.88.06,1.76.07,2.64v.66c0,.66,0,1.32,0,2,0,.46-.07.93-.11,1.39s-.09,1.05-.11,1.57a22.56,22.56,0,0,0,.08,2.64l0,.2c0,.29,0,.58.07.87a5.12,5.12,0,0,0,.38,1.37,6.69,6.69,0,0,0,1.11,1.84c.17.17.36.32.55.48a3.19,3.19,0,0,0,.72.41l.11.05.8.32c.67.25,1.3.44,1.91.63l.19.06a1.81,1.81,0,0,0,1.22-.08c.41.07.74.11,1.06.14h0l.15,0H9l2.46.35c1.73.26,3.53.53,5.31.66l2.29.16c1.86.13,3.77.26,5.65.47l.12,0,.24,0-.17,0,.89.15c1.31.19,2.67.39,4,.5.52.05,1,.07,1.56.09l.88.05.75,0,1.54.1,1.11.07c1.3.09,2.64.19,4,.21,1,0,2,.07,3,.12.63,0,1.27.07,1.9.09l1.19.07,1.45.07h3.53c1.29,0,2.57,0,3.86-.06H55l1.92-.06c.5,0,1,0,1.51,0h1.67c1.34,0,2.69.05,4,.1h.38c.51,0,1,0,1.53,0h4.39c1,0,2,0,3,0l1.56,0h.33c.57,0,1.13,0,1.7,0l.62,0h.8l1.73,0,2.42-.11c.89-.05,1.79-.09,2.68-.12l1.3,0c1.26,0,2.54.05,3.91.15,1.14.07,2.27.09,3.12.09h2c.89,0,1.79,0,2.68-.08s1.61-.07,2.42-.08H101c1,0,2,.05,3,.1l1.64.07c3.82.12,7.27.18,10.53.18l1.66,0h1c.41,0,.81,0,1.21,0l1.31,0c1.36,0,2.66.07,3.91.13l1.56.07h.54c.44,0,.88,0,1.32,0l.62,0,1.39-.06,1.11-.06.59,0c1.06-.05,2.15-.11,3.23-.11.45,0,.91,0,1.36,0s1.16.07,1.73.13l.87.08c.78.06,1.57.11,2.37.13l1.52,0q1.17,0,2.34,0h1.65c1,0,2,0,3,.09l1.26,0,1.45,0H154l1.43.05,1,0c.47,0,.94,0,1.42,0,1.09,0,2.27,0,3.73-.12.67,0,1.34-.1,2-.16l.62-.06c.68-.06,1.32-.09,2-.09h.61l.88,0c.34,0,.67,0,1,0h4.65c.59,0,1.17,0,1.76,0l.73,0a21.48,21.48,0,0,0,3.83-.35,5.38,5.38,0,0,0,.9-.28,2.7,2.7,0,0,0,1.92-2c.18-.49.31-1,.44-1.51a1.69,1.69,0,0,0,.28-.12,2.62,2.62,0,0,0,1.27-1.8,5.66,5.66,0,0,1,.15-.59c.06-.22.11-.44.16-.66.18-.84.32-1.69.42-2.51l.12-1.15c0-.33.06-.66.1-1,.06-.5.13-1,.21-1.49.06-.35.11-.7.16-1.06.27-2,.43-3.7.51-5.32,0-.79,0-1.59,0-2.37s0-1.7,0-2.55c.12-2.07.15-3.66.09-5.18s-.07-3,0-4.62c0-.53.1-1.06.16-1.59,0-.34.08-.68.11-1,.08-.83.12-1.72.13-2.8,0-.66,0-1.32,0-2l0-.66c0-.75,0-1.51,0-2.27v-2.24c0-1,0-2.09,0-3.13s.07-2,.13-3.07c0-.68.08-1.36.1-2l0-.58c.05-1.27.1-2.58.09-3.88s-.14-2.71-.26-4l0-.41c-.09-1.54-.11-3.1-.07-4.76,0-1.07,0-2.13,0-3.19,0-.76,0-1.52,0-2.28,0-1.75,0-3.39,0-5v-.33c0-.79,0-1.58-.1-2.37,0-.46-.1-.93-.15-1.39l-.12-1c-.05-.55-.11-1.11-.15-1.68-.1-1.55-.09-3.13-.07-4.75,0-.56,0-1.12,0-1.68,0-1.15,0-2.33,0-3.49,0-.37,0-.74.05-1.11s.05-1,.07-1.54,0-1.32,0-2V84.5q0-1.34.06-2.67c0-.81,0-1.63,0-2.44,0-.62,0-1.25,0-1.88V76.9c0-.63,0-1.26.07-1.88l0-.68c.07-1.28.08-2.59.09-3.85V69.16c0-.46,0-.92.07-1.38s.06-.79.07-1.18c0-.82,0-1.63,0-2.45,0-1.54,0-3.33,0-5.11l.05-1c0-1.23.1-2.5.07-3.75s-.12-2.85-.23-4.45a12,12,0,0,1,0-1.32c0-.28,0-.56.05-.85s0-.56.06-.85c0-1,0-2,0-2.93V42.14c0-.91,0-1.85-.06-2.76-.05-.73-.12-1.46-.2-2.19,0-.49-.1-1-.14-1.46-.05-.69-.08-1.37-.1-2.06,0-.46,0-.92,0-1.39,0-.28,0-.57,0-.85,0-.8,0-1.6,0-2.4s0-1.51.06-2.28c0-1,.15-1.92.25-2.86.06-.52.12-1,.17-1.56l0-.37a19.38,19.38,0,0,0,.12-2c0-.75-.06-1.49-.11-2.18l0-.27c0-.67-.09-1.37-.18-2s-.22-1.24-.34-1.86l0-.18c-.12-.57-.2-1.14-.28-1.72s-.19-1.32-.33-2a15.07,15.07,0,0,0-.6-2.16,5.22,5.22,0,0,0-1.27-1.88,3.58,3.58,0,0,0-1.11-.77,2.84,2.84,0,0,0-1-.19,3.2,3.2,0,0,0-1.23-1.09,4.62,4.62,0,0,0-1.18-.42,8.09,8.09,0,0,0-1.38-.15h-.19c-.47,0-.95,0-1.42,0h-1l-1.87,0-.75,0h-1.71c-1.25,0-2.55,0-3.83-.11l-.93-.07c-1.33-.09-2.67-.18-4-.31s-2.59-.16-3.86-.2l-1.43,0-2.06-.11c-1-.06-2-.11-3-.13l-1.8,0c-1.12,0-2.23,0-3.34-.07l-.57,0c-.65,0-1.31-.05-2-.06-.45,0-.9,0-1.35,0h-1.19c-1.43,0-2.86-.17-4.25-.3l-1-.1-2.58-.22c-.7,0-1.34-.07-2-.08H131c-1.59,0-3.18-.05-4.77-.05L122,1h-8l-.85,0-.65,0c-.57,0-1.13-.07-1.7-.12l-1-.09c-.49,0-1,0-1.46-.06-.31,0-.61,0-.91,0-.87,0-1.74,0-2.6,0H99.48c-.69,0-1.38,0-2.08-.07-1,0-2.08-.08-3.12-.09H89c-1,0-2-.06-3-.12L84.15.33C83,.28,81.8.26,80.63.26H79.18L77.81.3c-1.09,0-2.18,0-3.27,0h-.85L72.55.3c-.47,0-.93,0-1.4,0H68.43c-1.58,0-3,0-4.38-.13-.68,0-1.36-.06-2-.08L61,0,59.86,0Zm72.36,4.59-2.85,0c.94,0,1.9,0,2.85,0Z"/></g><g id="Draw_Layer-2" data-name="Draw Layer"><path class="cls-2" d="M117.65,84.61a7.06,7.06,0,0,0-.73,0c-.21,0-.41,0-.62,0h-1.22l-.51,0h-.25l-.51,0A17.15,17.15,0,0,0,112,85a2.29,2.29,0,0,0-.36.07l-.14,0-.48.11c-.54,0-1.09.11-1.62.18l-.61.08a11.81,11.81,0,0,0-2.13.51l-.48.17a3.88,3.88,0,0,1-.45.14c-.36.1-.72.2-1.07.33l-.71.24-.26.08c-.36.11-.71.23-1.08.36l-.23.08-.14.09-.26.07c-.59.24-1.22.52-1.84.8l-.6.27c-.39.18-.79.36-1.18.56l-.87.44c-.53.28-1.2.64-1.86.92a2.24,2.24,0,0,1-.37.32L95,91a1.86,1.86,0,0,1-.27.22l-.17.1-.1.06c-.16.16-.33.33-.5.48a3.15,3.15,0,0,1-.29.22l-.16.11a3.86,3.86,0,0,1-.51.48l-.19.13-.19.13a3,3,0,0,0-.33.28l-.18.19a6.92,6.92,0,0,1-.79.74l-.09.07c-.21.15-.43.31-.63.48a3.76,3.76,0,0,1-.49.41l-.26.2h0l-.27.24-.38.35-.13.12-.14.14h0l-.11.12-.08.08-.44.39-.21.17-.33.3-.17.19-.25.26c-.18.18-.37.35-.56.52l-.18.17a12.29,12.29,0,0,0-.81,1l-.23.29-.49.6c-.22.28-.44.55-.67.82l-.34.43a30.81,30.81,0,0,0-2,2.56l-.16.28c-.17.32-.35.63-.52.89l.08-.1c-.15.26-.29.53-.43.79a10.28,10.28,0,0,1-.53.91l.1-.11a11.23,11.23,0,0,0-.86,1.75c-.11.35-.23.69-.35,1s-.22.6-.32.91l-.06.2,0,0c-.06.22-.13.44-.2.69l0,.13a6.8,6.8,0,0,0-.18.75q-.08.44-.12.87l-.06.5c-.11.7-.17,1.3-.21,1.89,0,.18,0,.37,0,.56a9.53,9.53,0,0,1,0,1.07c0,.18,0,.36,0,.54s0,.29,0,.43,0,.54,0,.81c0,.72.09,1.44.17,2.15,0,.39.09.78.12,1.18a9,9,0,0,0,.18,1.14l.09.47.08.49c0,.3.11.6.17.89s.22.87.34,1.3l.08.26c.14.49.28,1,.45,1.46a27.6,27.6,0,0,0,1.29,2.9l.28.5.14.3,0,0,0,.06h0l.06.09.19.32c.11.19.23.38.33.57a7.73,7.73,0,0,0,.71,1.05c.17.22.33.43.48.66.39.58.81,1.19,1.26,1.75a4.6,4.6,0,0,1,.4.58l.18.28.27.37.33.46a4.84,4.84,0,0,0,.33.46c.08.09.15.19.23.29a5,5,0,0,0,.55.58l.19.18.3.26.35.26h.13c.49,0,1-.11,1.45-.18l.35-.06.46-.07.16-.06a3,3,0,0,0,1.39-.36,1.37,1.37,0,0,0,.21-.15l.69-.15,1-.21a19.94,19.94,0,0,0,2.33-.62c1.24-.41,2.53-.74,3.77-1.06l1-.24c.87-.23,1.64-.46,2.35-.7l1.13-.42c.44-.16.89-.33,1.34-.48l.63-.21c1.41-.47,2.83-.95,4.27-1.37.58-.17,1.16-.34,1.74-.55a21.35,21.35,0,0,0,2-.86c.52-.23,1-.49,1.54-.74s1.21-.59,1.82-.86l.58-.24c1.12-.46,2.24-.92,3.35-1.41l-.41.15c1.35-.55,2.7-1,4-1.41s2.4-.85,3.76-1.45c.81-.35,1.63-.68,2.47-1s1.52-.51,2.28-.75l.76-.24.6-.2c.71-.21,1.41-.44,2.1-.71,1-.41,2-.83,3-1.27l-.13,0,.17-.06h0c.74-.3,1.41-.52,2.08-.74l1.32-.44a17.09,17.09,0,0,0,2.09-.93,7.94,7.94,0,0,0,.75-.42l.76-.42c.31-.11.62-.2.93-.3l.33-.1a1.75,1.75,0,0,0,1.23-1.66,4,4,0,0,0,.25-.46l.09-.18a9.15,9.15,0,0,1,.61-.82,9.13,9.13,0,0,0,.9-1.3c.2-.32.4-.64.61-.95l.28-.44c.28-.44.55-.87.8-1.32l.09-.13.1-.21h0l.21-.38.39-.71c.1-.19.19-.38.28-.57l.23-.47c.08-.14.15-.29.22-.44l-.06.11a4.67,4.67,0,0,0-.28-.92l-.1-.21-.14-.32a15.75,15.75,0,0,0-1.94-3.76l-.73-1-.25-.37c-.08-.12-.16-.25-.25-.37l-.13-.22-.13-.23c-.25-.41-.53-.76-.76-1.07s-.46-.55-.71-.82l-.14-.15-.54-.59-.43-.53-.16-.19a4,4,0,0,0-.49-.52l-.12-.12a3.73,3.73,0,0,0-.3-.26l-.09-.09a6.07,6.07,0,0,1-.68-.66c-.19-.27-.38-.53-.59-.78a4.75,4.75,0,0,0-.95-.8l-.16-.1c-.21-.19-.4-.39-.6-.59l-.11-.11-.32-.33c-.41-.4-.86-.77-1.25-1.08l-.32-.27a6.2,6.2,0,0,0-.77-.58l-.36-.21-.1,0c-.17-.1-.34-.2-.51-.32a11.11,11.11,0,0,0-1-.76c-.36-.24-.73-.46-1.1-.68l-.76-.43a6.78,6.78,0,0,1-1-.57,2.85,2.85,0,0,0-.6-.4,4.25,4.25,0,0,0-.49-.21l-.16-.07a2.82,2.82,0,0,1-.42-.23,4.69,4.69,0,0,0-.81-.36l-.14,0-.72-.24-.78-.25a10.43,10.43,0,0,0-1.23-.35l-.31-.07c-.33-.08-.66-.18-1-.28l-.13,0c-.21-.06-.42-.13-.63-.18l-.46-.12-.11,0c-.31-.08-.62-.15-.93-.25a12.54,12.54,0,0,0-1.74-.48c-.77-.15-1.56-.24-2.33-.33l-.22,0-1-.12a14.5,14.5,0,0,0-1.47-.09l-1,0h-.17l-.4,0c-.42,0-.84,0-1.25,0Z"/><path class="cls-2" d="M59.77,136.69s0,0,0,0h0a0,0,0,0,1,0,0Z"/><path class="cls-2" d="M59.55,137.7v0Z"/><path class="cls-2" d="M59.44,138v0a.06.06,0,0,0,0,0,.14.14,0,0,1,0,.06Z"/><path class="cls-2" d="M51.68,148.33l0,0,0-.08.07.12Z"/><polygon class="cls-2" points="51.76 148.6 51.76 148.59 51.76 148.6 51.76 148.6 51.76 148.6"/><path class="cls-2" d="M51.81,148.74l0-.06a.14.14,0,0,0,0,.06Z"/><path class="cls-2" d="M51.89,148.91s0,0,0,0l0,0,0,.06Z"/><path class="cls-2" d="M52.25,149.41h0l-.15-.13.13.12Z"/><path class="cls-2" d="M52.31,149.45l.45.21-.41-.21h0Z"/><path class="cls-3" d="M99,111.68a4.08,4.08,0,0,0-1.33.21l-1,.41-.38.14A8.36,8.36,0,0,0,93.92,114a5.4,5.4,0,0,0-1,1.35,4.82,4.82,0,0,0-.43.89,4.73,4.73,0,0,0-.18,1,5.29,5.29,0,0,0,.39,2.84c.07.16.14.31.22.46l.09.18.23.44a4.56,4.56,0,0,0,.92,1.3,6.32,6.32,0,0,0,2.74,1.72l.23.06a7,7,0,0,0,1.51.26h.23a5.91,5.91,0,0,0,1.45-.16,9.31,9.31,0,0,0,2-.84,6.4,6.4,0,0,0,1.66-1.19l.23-.25.09-.1.08-.11.06-.13.07-.15c0-.15.1-.31.17-.55l0-.17.07-.26a3.43,3.43,0,0,0,.14-.5,7.78,7.78,0,0,1,.16-.84l.07-.24.06-.23c0-.23,0-.48,0-.71v-.24c0-.21,0-.43,0-.64l0-.14a4.76,4.76,0,0,0-.23-1,7.49,7.49,0,0,0-.53-1.06l-.21-.26-.1-.14-.18-.23-.18-.18-.11-.14a1.26,1.26,0,0,0-.2-.2,2.42,2.42,0,0,1-.33-.36,2.08,2.08,0,0,0-.21-.21l-.35-.3-.36-.28-.15-.1a1.82,1.82,0,0,1-.46-.25l-.13-.09c-.13,0-.27-.1-.41-.17l0,0,.12.08a10.61,10.61,0,0,0-1.2-.41l-.14,0H99Zm3.28,6.71a.06.06,0,0,1,0,0,.06.06,0,0,0,0,0Z"/><path class="cls-3" d="M117.1,112.21a5.19,5.19,0,0,0-2.45,1.29,3.31,3.31,0,0,0-.45.54,7.57,7.57,0,0,0-.86,1.25l-.16.27-.15.27a3.63,3.63,0,0,0-.39,1.43,7.2,7.2,0,0,0-.08,1,7.68,7.68,0,0,0,.21,1.45l0,.22a5,5,0,0,0,.39,1.16,7.73,7.73,0,0,0,.83,1.19,4.13,4.13,0,0,0,1.19,1,7.85,7.85,0,0,0,1.44.66,6.85,6.85,0,0,0,.89.21l.2.05a4.65,4.65,0,0,0,.93.1,5.32,5.32,0,0,0,2.46-.65c.32-.18.62-.38.89-.56l.15-.1-.07,0,.25-.18a5.67,5.67,0,0,0,1.1-.91,5.34,5.34,0,0,0,.88-1.4l.06-.14.1-.22c.12-.31.22-.61.31-.93a4.64,4.64,0,0,0,.11-2.12,5,5,0,0,0-.63-1.51,1.18,1.18,0,0,1-.16-.29l-.12-.22a5.74,5.74,0,0,0-.36-.5l-.1-.15a6.06,6.06,0,0,1-1.41-1.16l-.54-.55c-.06-.07-.13-.13-.18-.2l-.09-.14h0s0,0,0,0l0,0-.1,0a2.52,2.52,0,0,0-.8-.27,12,12,0,0,0-1.22-.15h-.36a7.44,7.44,0,0,0-1.72.22Zm1.35,5.41Zm.1.44h0Z"/><path class="cls-3" d="M137.28,112.16a5.15,5.15,0,0,0-.75.19,5.42,5.42,0,0,0-2.36,1.37,8.06,8.06,0,0,0-1.41,1.83,6.54,6.54,0,0,0-.44,4,5.46,5.46,0,0,0,.56,1.74,6.6,6.6,0,0,0,.69,1,3.68,3.68,0,0,0,.73.63l.12.09a3,3,0,0,0,.51.37,6.14,6.14,0,0,0,.61.26,4.54,4.54,0,0,0,.67.3l.35.1.21,0a4.22,4.22,0,0,0,1,.12,4.41,4.41,0,0,0,.52,0l.55,0a4.11,4.11,0,0,0,1.37-.38,7.71,7.71,0,0,0,1.13-.76,11.65,11.65,0,0,0,1.1-.89l.23-.22.25-.24a3.27,3.27,0,0,0,.77-1.13l.1-.25a2.52,2.52,0,0,0,.19-.84,5.55,5.55,0,0,0,0-.69v-.23a3.4,3.4,0,0,0,0-.45,3.93,3.93,0,0,0,0-.78,3.22,3.22,0,0,1-.07-.36v-.2a3.06,3.06,0,0,0-.06-.56V116l0,.07a3.24,3.24,0,0,0-.24-1,2.52,2.52,0,0,0-.22-.47l-.09-.13c0-.09-.11-.18-.17-.27a2.73,2.73,0,0,0-.82-.8l-.37-.28a2.28,2.28,0,0,0-.87-.59c-.38-.15-.78-.28-1.17-.4a6.54,6.54,0,0,0-1.21-.15h-.22a9.37,9.37,0,0,0-1.09.09Zm-1.05,8L136,120a4.23,4.23,0,0,1-.24-.4,6.31,6.31,0,0,1-.2-.86,6.41,6.41,0,0,1,0-1,4.66,4.66,0,0,1,.15-.62,4.57,4.57,0,0,1,.29-.47l.32-.33c.1-.11.19-.22.3-.32a5.13,5.13,0,0,1,.65-.36l.15,0a1.65,1.65,0,0,0,.34.47,3.76,3.76,0,0,0,1.65.78l.14.08a3.51,3.51,0,0,1,.33.34c.07.1.12.21.18.31a4.17,4.17,0,0,1,.26.46.42.42,0,0,1,0-.1l.15.37a2.13,2.13,0,0,0-.14.94l0,.24-.25.22c-.18.17-.36.33-.56.49l-.25.18.05,0a4.22,4.22,0,0,1-.73.45h0a5.78,5.78,0,0,1-.93,0l-.48-.13-.62-.27h0l.21.09a2.46,2.46,0,0,1-.46-.28l.22.17-.28-.22Zm4.2-2a.94.94,0,0,0,0,.09.46.46,0,0,1,0-.09Zm.22.63a.28.28,0,0,0,0,.09h0a.31.31,0,0,1,0-.1Zm-4.3,1.5a.77.77,0,0,0,.19.08h0l-.19-.09Z"/><path class="cls-3" d="M140.67,114.06a1.72,1.72,0,0,0-.78.9,2.65,2.65,0,0,0-.42-.18,3.53,3.53,0,0,0-1.68-.08,3.44,3.44,0,0,0-1.69.74l-.23.12a1.94,1.94,0,0,0-1,1.57,6,6,0,0,0-.29,1.08,3.47,3.47,0,0,0,.21,2.06,3.26,3.26,0,0,0,.83,1.15,13.59,13.59,0,0,0,1.26,1,3.28,3.28,0,0,0,1.74.64,4.27,4.27,0,0,0,1.24-.06,3.65,3.65,0,0,0,2.09-1.1,9.21,9.21,0,0,0,1.05-1.35,4.62,4.62,0,0,0,.7-1.36,3.21,3.21,0,0,0,.08-1.44s0,.08,0,.12a7.65,7.65,0,0,0-.14-1.51c-.05-.16-.08-.33-.13-.5a3.64,3.64,0,0,0-.59-1.14,1.88,1.88,0,0,0-1-.81,1.76,1.76,0,0,0-1.27.14Z"/><path class="cls-4" d="M117.65,84.61a7.06,7.06,0,0,0-.73,0c-.21,0-.41,0-.62,0h-1.22l-.51,0h-.25l-.51,0A17.15,17.15,0,0,0,112,85a2.29,2.29,0,0,0-.36.07l-.14,0-.48.11c-.54,0-1.09.11-1.62.18l-.61.08a11.81,11.81,0,0,0-2.13.51l-.48.17a3.88,3.88,0,0,1-.45.14c-.36.1-.72.2-1.07.33l-.71.24-.26.08c-.36.11-.71.23-1.08.36l-.23.08-.14.09-.26.07c-.59.24-1.22.52-1.84.8l-.6.27c-.39.18-.79.36-1.18.56l-.87.44c-.53.28-1.2.64-1.86.92a2.24,2.24,0,0,1-.37.32L95,91a1.86,1.86,0,0,1-.27.22l-.17.1-.1.06c-.16.16-.33.33-.5.48a3.15,3.15,0,0,1-.29.22l-.16.11a3.86,3.86,0,0,1-.51.48l-.19.13-.19.13a3,3,0,0,0-.33.28l-.18.19a6.92,6.92,0,0,1-.79.74l-.09.07c-.21.15-.43.31-.63.48a3.76,3.76,0,0,1-.49.41l-.26.2h0l-.27.24-.38.35-.13.12-.14.14h0l-.11.12-.08.08-.44.39-.21.17-.33.3-.17.19-.25.26c-.18.18-.37.35-.56.52l-.18.17a12.29,12.29,0,0,0-.81,1l-.23.29-.49.6c-.22.28-.44.55-.67.82l-.34.43a30.81,30.81,0,0,0-2,2.56l-.16.28c-.14.25-.27.49-.41.71l-.08.13h0l0,0,0,0,0,0c-.15.26-.29.53-.43.79s-.27.5-.42.74a.57.57,0,0,1-.08.13h0l0-.07,0,0,0,0a11.5,11.5,0,0,0-.84,1.69l0,.1-.34,1c-.11.3-.22.6-.32.91l-.06.2,0,0c-.06.22-.13.44-.2.69l0,.13a6.8,6.8,0,0,0-.18.75q-.08.44-.12.87l-.06.5c-.11.7-.17,1.3-.21,1.89,0,.18,0,.37,0,.56a9.53,9.53,0,0,1,0,1.07c0,.18,0,.36,0,.54s0,.29,0,.43,0,.54,0,.81c0,.72.09,1.44.17,2.15,0,.39.09.78.12,1.18a9,9,0,0,0,.18,1.14l.09.47.08.49c0,.3.11.6.17.89s.22.87.34,1.3l.08.26c.14.49.28,1,.45,1.46a27.6,27.6,0,0,0,1.29,2.9l.28.5.09.18,0,.07h0v0l0,0v0l.06.11h0v0h0l0,.06.19.32c.11.19.23.38.33.57a7.73,7.73,0,0,0,.71,1.05c.17.22.33.43.48.66.39.58.81,1.19,1.26,1.75a4.6,4.6,0,0,1,.4.58l.18.28.27.37.33.46a4.84,4.84,0,0,0,.33.46c.08.09.15.19.23.29a5,5,0,0,0,.55.58l.19.18.3.26.28.21.34.19.22.19.11.1.16.14a3.08,3.08,0,0,1,.27.24l-.26-.31a10.26,10.26,0,0,0,1.74,1.61l.4.28a9.94,9.94,0,0,1,1.17.88l.13.14a6.16,6.16,0,0,0,.62.63,4,4,0,0,0,.73.48l.15.09c.32.19.64.38,1,.54l.54.23.35.15.19.09h0c.6.21,1.2.45,1.82.62l-.36-.09c.73.2,1.44.45,2.17.7s1.18.48,1.8.69l.83.17c.45.11.88.27,1.33.41l.49.12c1,.25,2,.43,3,.65.62.14,1.26.24,1.89.32s1.45.09,2.16.19a36.09,36.09,0,0,0,3.73.32h.35a6.76,6.76,0,0,1,.9,0l.72,0,1,0,.9.08,1,0h-.21l1.2-.05H121c.39,0,.79,0,1.18,0h.18a2.71,2.71,0,0,0,.41-.09l.57-.08a4.68,4.68,0,0,0,.75-.11l.21,0h.36a2.88,2.88,0,0,0,.49-.11l.2-.07v0l.5-.11.25,0a2.47,2.47,0,0,0,.47-.06l.46,0h0a1.64,1.64,0,0,0,.48-.07l.12.05.24.14.24.11a1.39,1.39,0,0,0,.38.25l.17.09.48.25.08,0h.06a1.35,1.35,0,0,0,.38.2c.13.08.25.17.41.26l.18.08a1.66,1.66,0,0,0,.34.22c.16.1.34.21.52.3l-.09-.06.16.09.15.07.05,0,.39.23.25.14.15.11a1.87,1.87,0,0,0,.28.2,2.89,2.89,0,0,0,.56.34l.2.08a4.17,4.17,0,0,0,.46.29,2.88,2.88,0,0,1,.27.17,3.43,3.43,0,0,0,.83.39l.22.11h0l.15.1.15.1a1.73,1.73,0,0,0,.47.3l.17.11a.91.91,0,0,0,.16.11l.59.35,0,0,.19.1.28.16a2.54,2.54,0,0,0,.68.27l.25.06.33.15a2.15,2.15,0,0,0,.58.15l.34.09.39.11a.86.86,0,0,0,.28,0,2.06,2.06,0,0,0,.46.07l.28,0a2,2,0,0,0,1.22-.67,1.81,1.81,0,0,0,.36-1.3.68.68,0,0,1,0,.15,3,3,0,0,0-.22-1.26,6,6,0,0,0-.75-1.21L141,151l-.25-.34a5,5,0,0,0-.59-.63,7.37,7.37,0,0,1-.61-.73,5.74,5.74,0,0,0-.4-.78,1.51,1.51,0,0,0-.18-.26l-.09-.12c-.09-.23-.16-.45-.23-.68l0-.2c0-.11,0-.21,0-.31l0-.17c0-.14,0-.28-.05-.43v-.41l0-.23a1.64,1.64,0,0,0,.41-1.29c.39-.3.76-.51,1.08-.74l-.16.08.31-.18.34-.23a2.57,2.57,0,0,1,.47-.23,4.78,4.78,0,0,0,.45-.23c.43-.26.83-.52,1.24-.82l.34-.18a3.72,3.72,0,0,0,.87-.64c.34-.31.61-.56.89-.79a17.31,17.31,0,0,0,1.9-1.52l.29-.29.59-.58c.15-.16.31-.31.46-.49a5.3,5.3,0,0,0,.42-.52l.07-.13h0a4.51,4.51,0,0,0,.86-1.12c0-.08.1-.16.15-.25a1.18,1.18,0,0,0,.14-.22l.18-.33A7.65,7.65,0,0,0,151,133.1l.12-.25.08-.18.11-.19.12-.25a3.18,3.18,0,0,0,.26-.66,1.62,1.62,0,0,1,0-.19c.07-.13.14-.26.22-.39a3.79,3.79,0,0,1,.2-.34,2.5,2.5,0,0,0,.25-.53l.28-.37a2.93,2.93,0,0,0,.28-.56L153,129h0a.54.54,0,0,1,.05-.11l.15-.29a3.11,3.11,0,0,0,.33-.79,2.54,2.54,0,0,0,.39-.56c.08-.21.16-.42.22-.64l.11-.31.06-.13a1.81,1.81,0,0,0,.21-.53v-.19h0c0-.07,0-.15.08-.22a3.25,3.25,0,0,0,.16-.75,2.25,2.25,0,0,0,0-.45c.05-.17.1-.33.14-.52,0,0,0-.07,0-.11l.11-.35.07-.27.05-.2.06-.2a2.6,2.6,0,0,0,.07-.61,2.08,2.08,0,0,0,.15-.39,3.07,3.07,0,0,0,0-.68,3.25,3.25,0,0,0,.15-.73c0-.17.06-.34.08-.52l0,.18a7.72,7.72,0,0,0,0-1.74,5.06,5.06,0,0,1,0-.55,5.7,5.7,0,0,0-.09-.83c0-.27,0-.42-.05-.57s-.07-.5-.11-.74l-.06-.4-.09-.81c0-.12,0-.25,0-.37v-.25c0-.21-.05-.41-.07-.63l0-.27a5.32,5.32,0,0,0-.14-.89l-.07-.2a4.88,4.88,0,0,1-.16-.66c0-.29-.06-.57-.1-.84s-.06-.23-.09-.33-.07-.26-.09-.4,0-.16,0-.24h0a4.67,4.67,0,0,0-.28-.92l-.1-.21-.14-.32a15.75,15.75,0,0,0-1.94-3.76l-.73-1-.25-.37c-.08-.12-.16-.25-.25-.37l-.13-.22-.13-.23c-.25-.41-.53-.76-.76-1.07s-.46-.55-.71-.82l-.14-.15-.54-.59-.43-.53-.16-.19a4,4,0,0,0-.49-.52l-.12-.12a3.73,3.73,0,0,0-.3-.26l-.09-.09a6.07,6.07,0,0,1-.68-.66c-.19-.27-.38-.53-.59-.78a4.75,4.75,0,0,0-.95-.8l-.16-.1c-.21-.19-.4-.39-.6-.59l-.11-.11-.32-.33c-.41-.4-.86-.77-1.25-1.08l-.32-.27a6.2,6.2,0,0,0-.77-.58l-.36-.21-.1,0c-.17-.1-.34-.2-.51-.32a11.11,11.11,0,0,0-1-.76c-.36-.24-.73-.46-1.1-.68l-.76-.43a6.78,6.78,0,0,1-1-.57,2.85,2.85,0,0,0-.6-.4,4.25,4.25,0,0,0-.49-.21l-.16-.07a2.82,2.82,0,0,1-.42-.23,4.69,4.69,0,0,0-.81-.36l-.14,0-.72-.24-.78-.25a10.43,10.43,0,0,0-1.23-.35l-.31-.07c-.33-.08-.66-.18-1-.28l-.13,0c-.21-.06-.42-.13-.63-.18l-.46-.12-.11,0c-.31-.08-.62-.15-.93-.25a12.54,12.54,0,0,0-1.74-.48c-.77-.15-1.56-.24-2.33-.33l-.22,0-1-.12a14.5,14.5,0,0,0-1.47-.09l-1,0h-.17l-.4,0c-.42,0-.84,0-1.25,0ZM98.59,124.47a7,7,0,0,1-1.51-.26l-.23,0a6.43,6.43,0,0,1-2.74-1.73,4.65,4.65,0,0,1-.92-1.29c-.07-.15-.15-.3-.23-.45l-.09-.18-.23-.46a5.4,5.4,0,0,1-.38-2.84,3.73,3.73,0,0,1,.6-1.9A5.66,5.66,0,0,1,93.92,114a8.15,8.15,0,0,1,2.36-1.52l.37-.14,1-.41a4,4,0,0,1,1.33-.22h.21l.47,0,.14,0a8.89,8.89,0,0,1,1.2.4l-.2-.13a3.18,3.18,0,0,0,.53.24l.13.09a2.49,2.49,0,0,0,.46.25l.15.09c.14.12.25.2.37.29l.34.3a1,1,0,0,1,.2.21,3.88,3.88,0,0,0,.34.35,2,2,0,0,1,.2.21l.11.13.18.18.18.23.1.14.21.26a7.61,7.61,0,0,1,.53,1.07,5.32,5.32,0,0,1,.23,1l0,.14c0,.21,0,.43,0,.64l0,.23q0,.36,0,.72l-.06.23-.07.24a7.78,7.78,0,0,0-.16.84,4.1,4.1,0,0,1-.14.5l-.07.26,0,.17c-.08.25-.12.4-.17.55l-.07.15-.06.13-.08.11-.09.1-.23.26a6.61,6.61,0,0,1-1.66,1.18,9.77,9.77,0,0,1-2,.85,6.34,6.34,0,0,1-1.44.16Zm19.16-.21-.21,0c-.31-.07-.61-.13-.88-.22a7.85,7.85,0,0,1-1.44-.66,4,4,0,0,1-1.2-1,8.75,8.75,0,0,1-.83-1.19,5.09,5.09,0,0,1-.38-1.16l0-.22a7.68,7.68,0,0,1-.21-1.45,6,6,0,0,1,.08-1,3.75,3.75,0,0,1,.39-1.43l.15-.27.16-.27a7.06,7.06,0,0,1,.86-1.26,3.24,3.24,0,0,1,.45-.53,5.16,5.16,0,0,1,2.44-1.29,7.58,7.58,0,0,1,1.73-.22h.36c.42,0,.82.08,1.22.14a2.83,2.83,0,0,1,.8.28l.14,0h0l.09.13a1.68,1.68,0,0,0,.18.21l.54.55a6.62,6.62,0,0,0,1.41,1.16l.1.15c.12.16.25.32.36.5l.12.21a1.4,1.4,0,0,0,.15.3,4.78,4.78,0,0,1,.64,1.5,4.69,4.69,0,0,1-.11,2.13c-.09.32-.19.62-.31.93l-.1.22-.06.14a5.41,5.41,0,0,1-.88,1.41,6.05,6.05,0,0,1-1.1.91l-.25.18.07,0-.15.1c-.27.19-.58.38-.89.56a5.23,5.23,0,0,1-2.46.65,4.57,4.57,0,0,1-.93-.1Zm19-.19-.21-.06-.35-.1a7,7,0,0,1-.68-.29,5.43,5.43,0,0,1-.6-.27,3,3,0,0,1-.51-.37l-.13-.09a4.28,4.28,0,0,1-.72-.62,7.59,7.59,0,0,1-.7-1,5.73,5.73,0,0,1-.55-1.75,6.51,6.51,0,0,1,.44-4,8.18,8.18,0,0,1,1.41-1.84,5.41,5.41,0,0,1,2.36-1.36,4.13,4.13,0,0,1,.75-.19,7.73,7.73,0,0,1,1.08-.1h.23a5.59,5.59,0,0,1,1.2.15c.4.12.79.25,1.18.4a2,2,0,0,1,.86.59l.38.28a2.62,2.62,0,0,1,.82.8c.06.09.12.18.17.27l.09.13a2.52,2.52,0,0,1,.22.47,3.64,3.64,0,0,1,.25.94l0-.14,0,.17a2.46,2.46,0,0,1,.06.57v.2a1.78,1.78,0,0,0,.06.35,4,4,0,0,1,0,.78c0,.16,0,.31,0,.46v.23a4,4,0,0,1,0,.69,2.64,2.64,0,0,1-.19.85l-.1.24a3.18,3.18,0,0,1-.77,1.13l-.25.24-.23.22a11.65,11.65,0,0,1-1.1.89,7.21,7.21,0,0,1-1.13.76,3.69,3.69,0,0,1-1.37.38l-.55,0a4.41,4.41,0,0,1-.52,0,4.77,4.77,0,0,1-1-.12ZM121.7,149.89h0Zm.52,0h0Zm-1.44,0h0Z"/><path class="cls-3" d="M119.46,112h0a2.87,2.87,0,0,0-1.26.52h0l-.41.26a3.2,3.2,0,0,0-.56.37,4.57,4.57,0,0,0-.58.66,1.7,1.7,0,1,0,2.82,1.89l0,0h0l.08-.05.3-.2h0a1.33,1.33,0,0,1,.19.14l-.13-.11h0l.25.21.32.29-.32-.29h0l.29.25.5.47h0l-.26-.24a3.06,3.06,0,0,1,.35.37,2.14,2.14,0,0,1,.1.22l.18.49c0,.12.07.24.1.35l-.06-.21v.06s0-.1,0-.16l.06.18c0,.1,0,.2,0,.29v0a3.57,3.57,0,0,1,0,.73,1.36,1.36,0,0,0,0-.17,1.16,1.16,0,0,1,0-.18v.06h0c0,.15-.06.3-.08.44l0,0a4.42,4.42,0,0,0-.14.63,1.62,1.62,0,0,0,.41,1.24,1.67,1.67,0,0,0,1.16.58,1.73,1.73,0,0,0,1.23-.41,1.67,1.67,0,0,0,.54-.94l0,.14c0-.11.08-.21.1-.32.06-.26.08-.47.12-.72h0v-.06c0,.11-.05.21-.07.32h0s0,.07,0,.11a6.38,6.38,0,0,0,.11-1.74c0,.06,0,.12,0,.17a4.87,4.87,0,0,0-.06-.76c-.05-.2-.11-.39-.18-.59,0,.11.08.22.11.32l0-.1c-.09-.31-.19-.6-.3-.9a2.31,2.31,0,0,0-.19-.52,2.14,2.14,0,0,0-.17-.3h0c-.08-.13-.16-.26-.25-.39l0,0c-.08-.12-.17-.24-.26-.35s-.26-.26-.4-.38-.38-.37-.58-.54l-.14-.12.11.1,0,0c-.19-.17-.38-.32-.57-.48l.17.15a4.26,4.26,0,0,0-.85-.55l-.17-.08-.05,0,0,0a2.84,2.84,0,0,0-.67-.18l.43.08-.23,0-.2-.05.09,0-.17,0-.25,0,.11,0a3.72,3.72,0,0,0-.76,0h-.05Zm.32,3.26.11.09h0l-.1-.09Zm.24.08h0Zm-.13,0Zm0,0,0,0,.17,0-.17,0h0l0,0Zm0,0h0Zm0,0h0Zm0,0h0l0,0h0l0,0Zm1.14,1,.06.06-.06-.06Zm3.8.9a.86.86,0,0,1,0,.16.86.86,0,0,0,0-.16Zm-.15,2.23v0Zm-3.24-.88s0-.07,0-.11v0a.69.69,0,0,1,0,.13Zm0-.11a.13.13,0,0,1,0,.06l0-.13,0,.07Zm0-.19a.5.5,0,0,0,0,.12,2,2,0,0,1,0-.24l0,.12Zm-1.61-3h0Zm2.55-2.26-.1-.09.1.09Z"/><path class="cls-2" d="M99,30.64l-.9,0H95.65a8.3,8.3,0,0,0-1.73.25c-.5.1-1,.16-1.53.23l-.23,0-.5.06c-1.1.13-2,.28-3,.46-.46.08-.92.13-1.38.17l-.17,0-.62.06c-.55.07-1.08.18-1.72.32l-.33.07a12.29,12.29,0,0,1-1.55.13,13.54,13.54,0,0,0-1.47.15l-.57.09c-.35,0-.57.09-.8.11s-.31,0-.46,0l-.35,0a6.6,6.6,0,0,0-.87.15c-.69.13-1.33.25-2,.34l-.29,0c-.35.05-.69.1-1,.18l-.78.17-.14,0-.35.05.16,0h-.16L73,34l-.78.16-.34.08a3,3,0,0,1-.49.13l.19,0a6.34,6.34,0,0,0-1.78.47c-.14.06-.28.1-.43.15l-.13,0-.4.12-.33.14a3.74,3.74,0,0,1-.59.23c-.37.1-.74.23-1.1.35l-.42.14-.4.14-.54.16a10.26,10.26,0,0,0-1.15.39,1.59,1.59,0,0,0-.27.12l-.1,0-.54.25-.37.15c-.33.12-.64.24-1,.38-.7.31-1.39.69-2.06,1.06l-.6.31-.36.2-.24.11-.23.11h.15a8.5,8.5,0,0,0-1.62.75l-.63.41-.43.3q-.77.51-1.5,1.08l-.67.49-.26.19a9.09,9.09,0,0,1-.77.53l-.21.13c-.31.19-.62.37-.91.57s-.68.46-1,.7-.45.35-.67.54l-.41.34c-.44.35-.84.68-1.26,1a14,14,0,0,0-1.2,1,3.69,3.69,0,0,1-.4.31c-.21.16-.33.25-.44.35a7.17,7.17,0,0,0-.69.66l-.16.17-.33.33a10.63,10.63,0,0,0-.95.83c-.13.13-.24.26-.36.4a4.42,4.42,0,0,1-.44.49l-.08.06a9.83,9.83,0,0,0-1.23,1.19l-.12.15a7.92,7.92,0,0,1-.6.7,3.22,3.22,0,0,1-.32.32,4.72,4.72,0,0,0-.44.42l-.38.4c-.25.28-.51.56-.79.82a5.9,5.9,0,0,0-1,1.25l-.32.46-.11.15c-.09.13-.18.25-.26.38l-.15.22-.23.35-.14.18-.13.18-.21.27a7.92,7.92,0,0,0-.47.71l-.29.47c-.14.19-.29.42-.43.64s-.21.26-.31.37l-.11.15A6.65,6.65,0,0,0,34.68,62c-.24.47-.51.93-.78,1.37l-.27.33c-.22.29-.36.47-.48.66s-.16.27-.24.42l-.07.13a3.46,3.46,0,0,1-.27.5l.18-.11a2.58,2.58,0,0,0-.55.77c-.09.2-.2.39-.31.59l-.21.36-.13.21a8.42,8.42,0,0,0-.51.88l-.23.5c-.2.41-.35.74-.47,1.06-.06.15-.13.29-.2.43l-.2.42a5.49,5.49,0,0,0-.24.68l-.1.33-.21.48-.21.65-.12.4a5.7,5.7,0,0,0-.22.81c-.07.32-.14.63-.22.93,0,.14-.08.28-.12.42a6,6,0,0,0-.17.63c-.07.37-.15.75-.21,1.13,0,.18,0,.36-.06.55A3.86,3.86,0,0,1,28,78a5.88,5.88,0,0,1-.14.73l-.06.34a23,23,0,0,0-.42,2.43c0,.17,0,.34-.06.51l0,.14-.08.53c0,.36-.06.73-.08,1.09v.34l0,.19,0,.26a9.25,9.25,0,0,0,0,1.13c0,.12,0,.25,0,.37l0,.18.06.73v.62c0,.14,0,.28,0,.41v.21c0,.32,0,.62.08.93l0,.37c.05.5.13,1,.2,1.48s.13.85.18,1.28A15.38,15.38,0,0,0,27.94,94l.16.66.11.5.12.64c0,.25.09.5.14.76l0,.12,0-.16,0,.16a19.91,19.91,0,0,0,.81,3c.06.19.13.38.19.57l.07.23c.06.22.13.44.2.65l.08.22c.16.46.32.91.5,1.36a34.22,34.22,0,0,0,1.73,3.66c.49.94,1.06,1.93,1.88,3.28.58,1,1.24,1.9,1.89,2.81l.19.26.19.28c.21.29.42.58.65.86s.44.52.66.77l.22.26.29.34.1.12c.23.27.45.54.69.81l.48.5a8.08,8.08,0,0,1,.57.6l0-.15a8.91,8.91,0,0,0,.91,1.09l.12.14.94,1c.64.75,1.35,1.51,2.2,2.37l.34.34.1.1c.15.17.31.33.48.49s.49.43.74.64l.4.34c.62.54,1.35,1.2,2,1.9a8.68,8.68,0,0,0,.93.88l.59.43.3.22c.39.28.8.54,1.22.79l.12.08.45.28c.39.27.79.52,1.2.76l.57.34.21.14.14.09.44.28a4.19,4.19,0,0,0,.73.32,7.27,7.27,0,0,1,1.39.76l-.08-.15a1.08,1.08,0,0,0,.45.36,5,5,0,0,1,.48.29l.26.17A12.26,12.26,0,0,1,59.1,133a2.13,2.13,0,0,1,.16.25l.11.11.06.22,0,.11.06.18a5.63,5.63,0,0,1,.37.93,2.07,2.07,0,0,1,0,1.06v0l0,.15,0,.21h0v0l0,0h0l0-.09a1.92,1.92,0,0,1-.05.29.94.94,0,0,1,0,.35l0,.13a2.21,2.21,0,0,1-.06.34.75.75,0,0,1-.09.2v.06h0a1.35,1.35,0,0,1-.11.32l-.05.14,0,.12h0a3.23,3.23,0,0,1-.33.64l-.1.15-.25.37a11.35,11.35,0,0,1-1.2,1.53l-.18.2.1-.08-.4.44-.11.12-.49.56h0l0,0-.12.13.16-.14h0l.25-.24c-.24.29-.49.55-.72.78l-.34.35-.06,0c-.12.14-.24.27-.37.4l-.08.09h0l-.47.48-.14.16-.08.09c-.13.16-.27.3-.41.45l-.17.18.07-.1-.21.23-.28.29-.11.11a5.47,5.47,0,0,1-.45.51l-.16.13-.17.15a5.81,5.81,0,0,1-.54.45l-.19.13-.16.13a1.88,1.88,0,0,0-.24.51l.06.27v.12a1.25,1.25,0,0,0,0,.19l0,.08v0c0,.12.07.23.1.35l0,.1c0,.12.09.24.14.37a.77.77,0,0,0,.07.16h0l.1.16c.09.11.17.21.26.3a6.39,6.39,0,0,0,1.35.15H54l.34,0a2.5,2.5,0,0,0,.33,0l.05,0s0,0,0,0a1.19,1.19,0,0,0,.22-.05c.32-.08.63-.2.94-.31l.43-.16.22,0,.43-.08.36-.09.18,0,.34-.09.55-.14.14,0,.14,0c.43-.11.85-.21,1.27-.36.67-.22,1.49-.5,2.28-.84.25-.11.48-.23.73-.36s.62-.3.87-.4l.43-.22.34-.18.16-.1h0l.13-.08.19-.12,0,0,.3-.17.35-.21.15-.1h0c.47-.26,1-.51,1.43-.74l.36-.18.26-.19.45-.33a4.54,4.54,0,0,0,.48-.39,10.08,10.08,0,0,1,.83-.66c.55-.41,1.13-.86,1.76-1.4l.33-.25a3.71,3.71,0,0,0,.35-.27l.19-.15.37-.31.13-.08.35-.19a2,2,0,0,1,.55-.14l-.17-.07.16,0a1.12,1.12,0,0,0,.29,0l.22,0,.14,0,.3-.06.31-.06.28,0,.14,0h1.73c.24,0,.47,0,.71,0H78c.31,0,.62,0,.91,0l.37.06.38.06.61,0,.15,0,.55,0,.53.07.19,0c.47.06.83.11,1.18.12h.53a6.85,6.85,0,0,1,.91,0l-.41-.15a5.64,5.64,0,0,0,1.61.19c.42,0,.71,0,1,0h.62l.16,0a4.43,4.43,0,0,0,.52,0,3.52,3.52,0,0,1-.37-.27,3.73,3.73,0,0,1-.3-.26l-.19-.18a5,5,0,0,1-.55-.58l-.23-.3a5.22,5.22,0,0,1-.33-.45l-.33-.46-.27-.37L85,137a4.6,4.6,0,0,0-.4-.58c-.45-.56-.87-1.17-1.26-1.75-.15-.23-.31-.44-.48-.66a7.73,7.73,0,0,1-.71-1.05l-.33-.57-.19-.32L81.6,132h0s0-.06,0-.06h0l0,0h0l-.14-.31-.28-.5a26.67,26.67,0,0,1-1.29-2.89c-.17-.47-.31-1-.45-1.46l-.08-.26c-.12-.43-.23-.86-.34-1.3s-.12-.59-.17-.88l-.08-.5-.09-.47a11.24,11.24,0,0,1-.18-1.14c0-.4-.08-.79-.12-1.19-.08-.7-.16-1.42-.17-2.14,0-.27,0-.54,0-.81s0-.29,0-.43,0-.36,0-.54a9.73,9.73,0,0,0,0-1.08c0-.18,0-.37,0-.55,0-.59.11-1.19.2-1.89l.07-.5c0-.29.07-.58.12-.86a6.46,6.46,0,0,1,.18-.76l0-.13c.07-.25.14-.47.2-.69l0,0,.06-.21c.1-.3.21-.6.32-.9s.24-.68.35-1a11.23,11.23,0,0,1,.86-1.75l-.1.11a10.28,10.28,0,0,0,.53-.91c.14-.26.28-.53.43-.79l-.08.1c.17-.26.35-.57.52-.89l.16-.28a31,31,0,0,1,2-2.57l.34-.42c.23-.27.45-.54.67-.82l.49-.6.23-.29a12.29,12.29,0,0,1,.81-1l.18-.17c.19-.17.38-.34.56-.52l.25-.26.17-.19.33-.3.21-.17.44-.39.08-.08.11-.12h0l.14-.14.13-.12.38-.35.27-.24h0l.26-.2a4.58,4.58,0,0,0,.49-.41,7.47,7.47,0,0,1,.63-.48l.08-.07a6.26,6.26,0,0,0,.8-.74l.18-.19a3,3,0,0,1,.33-.28l.19-.13.19-.13a3.86,3.86,0,0,0,.51-.48l.16-.11a3.15,3.15,0,0,0,.29-.22l.5-.48.1-.06.17-.1A1.43,1.43,0,0,0,95,91l.24-.15a1.83,1.83,0,0,0,.36-.32c.67-.28,1.34-.64,1.87-.92l.87-.44c.39-.2.79-.38,1.18-.56l.6-.27c.62-.28,1.25-.56,1.84-.8l.26-.07.14-.09.23-.08c.37-.13.72-.25,1.08-.36l.26-.08c.24-.08.48-.15.71-.24s.71-.23,1.07-.32l.45-.15.48-.17a12.73,12.73,0,0,1,2.13-.52l.61-.07c.54-.07,1.08-.14,1.62-.18l.48-.11.14,0L112,85a17.16,17.16,0,0,1,1.79-.22l.51,0,.25,0,.51,0h1.22l.62,0a7.06,7.06,0,0,1,.73,0h.12c.41,0,.83,0,1.25,0l.39,0h.19l1,0a14.5,14.5,0,0,1,1.47.09l1,.12.22,0c.77.09,1.56.18,2.33.33a13,13,0,0,1,1.75.48c.3.1.61.17.92.25l.11,0a3.9,3.9,0,0,1,.46.12q.32.07.63.18l.13,0c.32.1.65.2,1,.28l.31.08a9.3,9.3,0,0,1,1.23.34l.78.26.72.23.14.06a4,4,0,0,1,.81.35,2.82,2.82,0,0,0,.42.23l.16.07a4.25,4.25,0,0,1,.49.21,2.85,2.85,0,0,1,.6.4,8.71,8.71,0,0,0,1,.58c.29.15.53.28.76.42s.74.44,1.1.68a11.11,11.11,0,0,1,1,.76c.17.12.34.22.51.32l.1,0,.36.21a6.2,6.2,0,0,1,.77.58l.32.27c.39.31.84.68,1.25,1.08l.32.33.11.11c.2.2.39.4.61.59l.15.1a4.75,4.75,0,0,1,.95.8c.21.25.4.51.59.77a4.79,4.79,0,0,0,.68.67l.09.09.3.26.12.12a4,4,0,0,1,.49.52l.16.19.43.53.54.59.14.15c.24.27.48.53.71.82a11.52,11.52,0,0,1,.76,1.07l.13.23.13.22c.09.12.17.25.25.37l.25.37.73,1a16,16,0,0,1,1.94,3.77l.14.32.1.21a4.67,4.67,0,0,1,.28.92c.1-.18.19-.35.27-.53.17-.39.32-.72.49-1l.05-.13a6.15,6.15,0,0,0,.44-.9l.07-.19.28-.68.45-1.14.46-1.13c.29-.71.61-1.4.94-2.09a8.63,8.63,0,0,0,.48-1.71l.1-.48,0-.19c.05-.22.1-.45.15-.66l.13-.47,0-.12a9.1,9.1,0,0,0,.29-1.3l.09-.73c0-.31.06-.61.1-.91l0-.16c.07-.44.14-.9.17-1.36,0-.3,0-.61,0-.91s0-.68,0-1c0-.53.11-1.07.17-1.61l0-.17c.1-.67.17-1.25.21-1.84,0-.9,0-1.85,0-2.68l0-.76,0-.22a6.4,6.4,0,0,0-.06-1.21c0-.3-.09-.61-.15-.91l-.09-.43c0-.23-.07-.47-.1-.7v-.14a8.63,8.63,0,0,0-.17-1.1l0-.12c-.16-.65-.29-1.22-.38-1.81a19.85,19.85,0,0,0-.64-2.77,14,14,0,0,0-.44-1.39c-.17-.44-.32-.88-.45-1.33a4.9,4.9,0,0,0-.35-.79c-.07-.19-.13-.38-.19-.56l-.15-.45-.06-.2-.05-.2c-.09-.28-.2-.56-.32-.84l-.06-.16-.1-.22-.06-.17-.07-.16c0-.1-.09-.2-.14-.3l-.13-.3c-.18-.43-.38-.85-.59-1.26,0,0-.07-.16-.12-.28a5.33,5.33,0,0,0-.32-.63,2.83,2.83,0,0,0-.2-.28l-.14-.18c-.13-.17-.25-.34-.37-.52l-.12-.17-.25-.36-.12-.19-.26-.38-.14-.2c-.18-.27-.36-.54-.55-.8l-.45-.59-.38-.51-.14-.19-.2-.28-.44-.57-.13-.16-.32-.42c-.13-.19-.28-.37-.43-.55-.35-.43-.65-.79-1-1.14l-.12-.14-.12-.15-.25-.3c-.1-.11-.19-.23-.28-.35l-.07-.1-.11-.13-.34-.45-.14-.18-.25-.31-.34-.44-.35-.44-.26-.31-.09-.11L146,54l-.24-.27c-.11-.14-.23-.28-.35-.41l-.43-.47-.22-.25-.37-.4-.24-.27-.65-.71c-.39-.42-.79-.82-1.19-1.23l-.31-.3-.71-.73-.11-.12c-.2-.2-.39-.41-.58-.62s-.63-.68-.95-1l-.36-.33-.16-.14c-.19-.18-.39-.36-.59-.52l-.57-.49-.59-.47L137,45l-.64-.49c-.29-.25-.59-.49-.89-.73l-.5-.4-.69-.55c-.31-.27-.64-.52-1-.77-.15-.12-.31-.23-.47-.34l-.26-.19-.25-.19-.27-.21-.21-.16-.45-.34c-.34-.25-.68-.48-1-.71l-.77-.51-.22-.15c-.42-.27-.85-.52-1.28-.76l-1-.58-.76-.41-.63-.35c-.64-.35-1.31-.67-2-1l-.28-.13-1.29-.61c-.33-.15-.67-.28-1-.41l-.2-.08-.85-.34-.21-.07-.2-.08-.19-.07-.27-.1-.31-.12-.37-.14-.14,0-.22-.08-.19-.07-.42-.16-.43-.16-.11-.05-.33-.11a3,3,0,0,0-.4-.12c-.23-.06-.45-.11-.67-.19l-.14,0-.13,0-.26-.06-.12,0-2.6-.5-.17,0,.08-.08a10.52,10.52,0,0,0-1.63-.39,11.44,11.44,0,0,0-1.28-.11h-.2l-.3-.09c-.36-.1-.64-.17-.93-.23s-.87-.14-1.3-.18l-.49-.07-.16,0-.18,0L105.3,31c-.89-.11-1.8-.19-2.77-.23l.15.08-.71-.11h-.27l-.27,0h-.27l-.53,0c-.53,0-1.07-.07-1.61-.07Z"/></g></g></svg>