<svg xmlns="http://www.w3.org/2000/svg" width="132.837" height="106.382" viewBox="0 0 132.837 106.382">
  <defs>
    <style>
      .cls-1, .cls-2 {
        fill: #384173;
      }

      .cls-2 {
        opacity: 0.65;
      }

      .cls-3 {
        fill: #48578c;
      }

      .cls-4 {
        fill: #a9b5d6;
      }
    </style>
  </defs>
  <title>folder</title>
  <g id="Layer_2" data-name="Layer 2">
    <g id="Draw_Layer" data-name="Draw Layer">
      <g>
        <path class="cls-1" d="M7.5,16.593c-.24.031-.486.067-.731.1-.272.03-.538.066-.8.1a3.358,3.358,0,0,0-.732.215c-.153.061-.3.128-.455.189a4.758,4.758,0,0,0-.732.3,6.018,6.018,0,0,0-.666.481,3.4,3.4,0,0,0-.721.584,6.145,6.145,0,0,0-.722,1.013,9.769,9.769,0,0,0-.814,2.109C.939,22.3.76,22.909.6,23.523a6.375,6.375,0,0,0-.179,1.285c0,.056-.005.113-.005.169.015.082.025.164.041.246.01.23.041.46.071.69.026.3.026.6.026.912v.2a9.034,9.034,0,0,0,.133,1.459c.015.225.026.455.036.681l.02.409c.005.169.016.343.026.512l.02.245c.021.256.036.507.052.763l.025.594c.01.3.026.6.046.911.031.548.056,1.09.036,1.633A8.487,8.487,0,0,0,.975,35.6c.041.456.056.9.056,1.356,0,.277.005.553.021.845.015.256.03.507.03.763a10.917,10.917,0,0,0,.082,1.433,5.893,5.893,0,0,1-.01.9l-.015.369-.016.287-.015.286a2.942,2.942,0,0,0,0,.3l0,.2a2.87,2.87,0,0,0,.02.414H1.118l.031.164a4.027,4.027,0,0,1,.03.486,7.506,7.506,0,0,1-.025.973c-.082.573-.138,1.156-.184,1.735l-.026.261c-.02.194-.041.394-.046.588l-.01.149c-.005.143-.016.286-.026.43-.077.511-.138,1.018-.169,1.535l-.02.292-.01.159c-.006.107-.006.214-.006.322a5.864,5.864,0,0,0,.052.665,12.315,12.315,0,0,1,.056,1.413c0,.087,0,.169.005.256a2.29,2.29,0,0,1,.005.374c-.01.168-.02.337-.02.5l-.005.246a7.452,7.452,0,0,0,.02.9c.015.2.026.405.031.6,0,.256.005.517.015.773l.01.272.016.348.005.266c.036,1.023.061,2.021.01,3.009l-.036.5C.8,60.292.77,60.63.765,60.968l-.015.706c-.011.364-.021.722-.021,1.085l-.015.318c-.011.138-.016.271-.016.4s.005.271.011.4l.005.134c.005.087.01.179.01.266,0,.384-.01.767-.021,1.146L.7,65.779l-.015.44-.005.133a10.326,10.326,0,0,0,.01,1.126,9.615,9.615,0,0,1,0,1.019l-.005.169c-.005.164-.01.327-.005.491,0,.22-.01.44-.021.66l-.005.215c-.015.318-.031.635-.025.958l.02.824.026.839c0,.169-.011.338-.026.507l-.015.307c-.011.327-.005.66.015.988l.041.685c.026.348.046.7.061,1.039v.681c-.005.271-.01.548.006.819.005.23.025.456.051.763.025.276.051.552.066.829.016.358.016.721.016,1.085L.888,81c.005.527.036,1.054.066,1.581.031.594.041,1.188.041,1.786,0,.333,0,.661-.005.993v.65c0,.3-.01.589-.02.886l-.011.225c-.005.148-.005.3-.005.44-.01.333,0,.66.01.988l.016.415.005.322c.005.164.01.328,0,.517-.01.128-.021.261-.021.389l-.005.21c-.03.476-.035.957-.02,1.433.01.343.036.691.066,1.034l.036.425c.016.276.021.552.031.849,0,.184,0,.374.015.563s0,.364-.01.573c0,.174,0,.338,0,.522a9.4,9.4,0,0,1-.01,1.009c-.031.23-.056.46-.067.7l-.03.281c-.011.123-.016.246-.016.369a10.412,10.412,0,0,0,.057,1.141l.02.3.026.276v.236a2.557,2.557,0,0,0,.015.338,4.072,4.072,0,0,1,.015.5,4.5,4.5,0,0,0,.011.532,1.151,1.151,0,0,0,.327.819,1.263,1.263,0,0,0,.3.226c.015.015.031.035.046.051a1.182,1.182,0,0,0,.491.112,1.2,1.2,0,0,0,1.208-1.192c-.009-.178-.014-.357-.015-.535l-.041-.044a4.687,4.687,0,0,0-.02-.532c-.006-.1-.011-.2-.011-.307s0-.215-.01-.322l-.02-.256L3.3,98.909a13.52,13.52,0,0,1,.046-1.76,5.808,5.808,0,0,0,.072-.615,2.746,2.746,0,0,0,0-.348c0-.1,0-.2,0-.291l0-.215c.01-.318.02-.676,0-1.019,0-.123,0-.251,0-.44,0-.1,0-.21-.01-.44s-.031-.491-.051-.732l-.016-.215-.015-.241a11.126,11.126,0,0,1-.056-1.2l.015-.553.031-.973c.02-.307.01-.619,0-.941L3.3,88.77,3.293,88.6l-.02-.45c-.01-.323,0-.655.02-.947l.011-.154.005-.153c0-.154.01-.307,0-.461v-.45c0-.389,0-.773.01-1.157.026-.957-.02-1.945-.072-2.8l-.03-.655c-.016-.332-.016-.665-.016-1,0-.21,0-.414,0-.619,0-.609-.051-1.2-.1-1.7a13.365,13.365,0,0,1-.031-1.51A15.891,15.891,0,0,0,3,74.905a12.343,12.343,0,0,1-.021-1.837,8.983,8.983,0,0,0-.01-1.162l0-.241-.011-.24c0-.712.011-1.3.031-1.848.021-.573.036-1.157.046-1.73,0-.118,0-.236-.01-.4,0-.1-.01-.2-.01-.3l.01-.758V66.23c.01-.246.015-.492.015-.743l0-.245L3.048,65l0-.246c0-.23,0-.465-.011-.7a8.9,8.9,0,0,1,0-.9c.021-.313.026-.62.026-1.029,0-.241,0-.476.015-.717L3.1,61.1l.01-.3c.01-.312.02-.624.041-.936l.015-.18c.031-.45.062-.911.057-1.371l0-.149c-.016-.941-.031-1.791-.072-2.641-.01-.261-.016-.517-.021-.778l-.01-.194-.01-.4-.026-.574c0-.138,0-.281.005-.424l.006-.2c0-.092,0-.184.01-.276s.015-.2.015-.308c0-.081,0-.168-.015-.327l-.005-.21a9.691,9.691,0,0,0-.052-1.264A6.714,6.714,0,0,1,3,49.35l.025-.241.01-.235.021-.236.02-.235.021-.246a7.383,7.383,0,0,0,.107-.8,3.333,3.333,0,0,0,.021-.4l.01-.2.01-.2q.069-.845.184-1.8a5,5,0,0,0,.077-.686c0-.189,0-.379,0-.645,0-.118,0-.235-.02-.409l-.021-.236c-.015-.153-.025-.3-.025-.45v-.231l-.005-.255a3.1,3.1,0,0,1,.025-.461c0-.061,0-.123.01-.179.006-.128.016-.256.026-.379s.015-.225.02-.338a3.813,3.813,0,0,0-.061-.742c-.036-.4-.041-.814-.041-1.218l0-.195c0-.163,0-.327-.015-.491l-.011-.174c-.015-.292-.03-.583-.025-.87A12.424,12.424,0,0,0,3.3,35.556l-.015-.164a9.548,9.548,0,0,1-.01-1.013c0-.164,0-.322,0-.486,0-.466-.021-.947-.051-1.49l-.016-.184c-.01-.169-.015-.343-.03-.706,0-.287-.016-.573-.041-.86-.041-.471-.067-.942-.092-1.413-.011-.2-.021-.414-.026-.624a4.81,4.81,0,0,0-.092-.783L2.9,27.669c-.025-.307-.025-.619-.02-.885V26.63c0-.118,0-.235,0-.353a5.475,5.475,0,0,0-.051-.589,1.864,1.864,0,0,0-.016-.332,2.149,2.149,0,0,0-.031-.256,4.515,4.515,0,0,1,.021-.6,11.527,11.527,0,0,1,.327-1.249l.1-.333.077-.281c.138-.486.281-.983.465-1.459a5.793,5.793,0,0,1,.574-.972l.143-.139.235-.168.236-.164a3.6,3.6,0,0,1,.332-.22c.2-.072.4-.149.594-.231l.128-.051a1.116,1.116,0,0,1,.225-.061l.031.013c.164-.038.328-.071.5-.095H6.743c.455-.056.906-.113,1.361-.174a1.147,1.147,0,0,0,.727-.543,1.2,1.2,0,0,0-.409-1.648,1.11,1.11,0,0,0-.594-.158,2.49,2.49,0,0,0-.328.025Zm-2.369.466c-.031.01-.062.026-.092.036.03-.01.061-.026.092-.036Z"/>
        <path class="cls-1" d="M118.407,15.257c-.491.016-.983.021-1.479.026a8.074,8.074,0,0,0-1.787.164c-.22.046-.435.1-.655.133a17.519,17.519,0,0,1-1.863.041c-.455-.01-.911-.016-1.361,0-.573.025-1.142.056-1.715.041s-1.131-.051-1.7-.072c-1.141-.041-2.288-.041-3.424-.01-1.013.031-2.012.174-3.03.158-.543-.01-1.085-.025-1.628-.01-.563.016-1.121.016-1.684,0-1.115-.031-2.241-.041-3.352-.123-.522-.036-1.044-.076-1.571-.1-.6-.02-1.208-.01-1.807,0-1.141.021-2.272.128-3.414.1-1.167-.025-2.329-.076-3.49-.112s-2.35-.026-3.517-.051c-.737-.016-1.469-.011-2.2,0-.456.005-.912.01-1.372.005-1.142,0-2.288-.041-3.429-.052-1.1-.005-2.2.031-3.3.072-.528.021-1.05.051-1.577.062-.619.01-1.244,0-1.863-.011-1.09-.01-2.175.057-3.265.077s-2.2.005-3.307,0c-.6-.005-1.2.026-1.806.026s-1.193.02-1.787.025-1.187.026-1.781.026c-.332,0-.66,0-.988-.005-.3-.006-.6-.006-.906-.006-2.39.006-4.78.093-7.165.236-1.172.066-2.344.041-3.516.082l-1.541.061c-.522.021-1.044.026-1.561.072-2.165.179-4.335.374-6.5.517-1.1.066-2.2.082-3.306.087-.558,0-1.116,0-1.674-.01-.614-.016-1.228-.072-1.838-.1-1.085-.046-2.17-.112-3.26-.112-.532,0-1.064.02-1.6.015-.553-.005-1.095-.025-1.643-.046-.926-.031-1.847,0-2.774.015-.491.006-.988,0-1.479-.01-.476-.005-.957-.015-1.438-.01a23.84,23.84,0,0,1-2.631-.082c-.22-.02-.44-.051-.66-.067a6.531,6.531,0,0,0-.768.031c-.44.031-.875.077-1.3.133-.363.041-.732.077-1.095.144a6.517,6.517,0,0,0-1.111.368,1.3,1.3,0,0,0-.722.543,1.209,1.209,0,0,0-.138.921,1.236,1.236,0,0,0,.543.727l.024.014.047-.009a1.358,1.358,0,0,0,.568.133.8.8,0,0,0,.272-.036,7.732,7.732,0,0,1,1.433-.43l.281-.031.287-.035.174-.021a12.661,12.661,0,0,1,1.361-.092,2.068,2.068,0,0,1,.435.046h.139l.22.021c.184.02.368.03.558.04l.209.016c.533.031,1.08.031,1.495.031h.635L15,18.809l.506.006.389,0c.256,0,.517.01.778.01l.609-.01c.384-.011.763-.021,1.142-.021l.276,0h.276l.748.021.215.01c.629.01,1.254.026,1.878.026h.44l.338-.006c.266,0,.537-.01.809-.01.169,0,.343,0,.512.005.516.016,1.033.036,1.55.067l.978.051.169.01c.783.046,1.592.087,2.421.087,1.182-.005,2.247-.01,3.321-.051,1.014-.036,2.048-.107,3.256-.23.4-.036.8-.067,1.228-.1l.3-.026.159-.01c.133,0,.271-.016.409-.026l.2-.02.307-.031.322-.031.328-.03c.752-.057,1.551-.093,2.2-.118.312-.01.629-.026.946-.041.727-.036,1.464-.046,2.252-.062l.307-.005.282,0,.609-.01c.41,0,.819-.026,1.223-.051l.5-.026.578-.025.374-.016.246-.01c.174-.01.348-.02.527-.036,1.387-.077,2.784-.087,4.084-.087h1.172c.676,0,1.351,0,2.022-.015l1.233-.016.348,0c.707,0,1.408-.015,2.114-.035h.333l.338-.006c.353,0,.706.006,1.069.011h.154c.307.005.6.01.906.01.174,0,.353,0,.527,0,.409-.005.819-.021,1.223-.036l.2,0c.6-.026,1.2-.046,1.8-.051.368,0,.737.005,1.136.01.327,0,.66,0,.993,0,.522,0,.942,0,1.315-.031,1.208-.061,2.482-.092,3.9-.092.921,0,1.838.016,2.836.031.266,0,.537.01.808.01.348,0,.7,0,1.106-.01.384,0,.768,0,1.152,0h.45c.839.01,1.674.02,2.523.036l1.085.015c.747.01,1.5.036,2.247.066l1.264.047c.4.01.809.02,1.208.02.144,0,.287,0,.43,0,.358-.01.717-.026,1.075-.046l.322-.016.323-.02c.537-.02,1.07-.031,1.571-.031.63,0,1.249.016,1.843.057l.45.03.236.016c.317.025.634.046.952.051l1.1.036.159,0,.419.01c.563.021,1.126.036,1.787.041h.317l.164,0,.143,0h.174c.184-.005.364-.005.655-.005l.256.005.277,0,.307,0h.3q.276,0,.552-.015c.241,0,.481-.026.722-.046l.307-.031.369-.031c.445-.041.885-.046,1.295-.046h1.658l.312.005.21,0,.21,0c.276.006.558.006.834.021l.374.02c.378.021.757.041,1.192.041s.855-.015,1.285-.036l.2,0c.277-.015.553-.02.83-.02l.3,0h.3l.2.005c.2,0,.4.01.609.01.322,0,.594-.01.86-.035a8.567,8.567,0,0,0,1.049-.144l.143-.03.149-.031.286-.062c.482-.046.973-.051,1.515-.051.277,0,.558-.005.85-.015.2-.005.389-.01.584-.01s.424.01.644.025c.159.01.323.026.487.041l.266.031c.24.025.481.051.716.056.082,0,.169.01.251.01.108,0,.21,0,.317,0l.231-.015c.138,0,.281,0,.425,0l.153,0c.154,0,.312,0,.486.02.231.011.456.016.686.016l.236-.005h.368l.358,0a3.822,3.822,0,0,1,.476.02l.144-.01.2-.005.159,0h.241l.163.01.139.02.184.026c.118.031.24.061.368.1a1.3,1.3,0,0,0,.328.031h.092l.088.021a1.193,1.193,0,0,0,.961-.85,1.212,1.212,0,0,0-.834-1.48A7.38,7.38,0,0,0,126,15.416c-.179-.015-.363-.005-.542-.005s-.338.005-.507.005h-.3c-.5,0-1,.021-1.51-.005a14.519,14.519,0,0,0-1.561-.021,11.1,11.1,0,0,1-1.648-.087c-.266-.03-.532-.046-.8-.061-.052-.005-.108-.005-.159-.005-.189,0-.379.015-.568.02Z"/>
        <path class="cls-1" d="M124.994,16.532a1.2,1.2,0,0,0,.783,1.244l.148.01.139.02.184.026c.108.028.221.057.338.089l.208.034c.041,0,.09.005.15.005h.092l.169.041a2.735,2.735,0,0,1,.3.1,2,2,0,0,1,.225.154l.261.235a1.18,1.18,0,0,1,.186.2l.022.02-.024-.06.21.184a3.654,3.654,0,0,1,.461.537,1.543,1.543,0,0,0,.225.292l.164.2c.025.056.051.118.072.179.081.292.138.583.209.947l.031.184a8.048,8.048,0,0,1,.154,1.157l.046.169c.03.455.076.911.133,1.361l-.01.149-.008.06.013.1.012.1c.022.064.045.134.075.225l.025.164c.046.307.087.588.108.875,0,.266,0,.532.025.87l.041.4c.016.123.026.251.036.41.01.327.021.66.041.988l0,.158v.154l.01.384.016.389,0,.266c.015.506.031,1.034.082,1.561.02.205.041.4.066.609.036.322.072.645.092.972.006.364,0,.727-.01,1.091l0,.174,0,.25v.261c-.005.7-.026,1.357-.061,1.971l-.041.583a14.493,14.493,0,0,0-.031,1.643c.02.4.051.8.082,1.2l.01.194.02.287c.016.2.031.41.041.609a14.228,14.228,0,0,1-.02,1.479c-.036.579-.067,1.157-.1,1.735-.031.6-.051,1.213-.072,1.833-.015.46-.031.921-.051,1.376l-.016.374-.01.369-.01.368-.015.338c-.021.64-.046,1.372-.092,2.073l-.036.45-.031.405-.031.389-.03.4-.021.246c-.036.4-.077.905-.077,1.381,0,.589,0,1.173.011,1.879,0,.819.01,1.638,0,2.457,0,.742-.051,1.468-.118,2.333a17.652,17.652,0,0,0,.015,2.314c.026,1.162.011,2.211-.041,3.209-.02.3-.025.6-.03.952l0,.225c0,.184,0,.374-.006.558-.01.558-.025,1.116-.051,1.674-.056,1.438-.066,2.456-.036,3.408.031,1.034.041,2.119.031,3.312,0,.368,0,.732.021,1.1l.01.543,0,.358c0,.369.015.727.031,1.095.025,1.132.036,2.171.025,3.174l-.01.542c0,.353-.01.712,0,1.065l0,.588c.005.389.01.778.005,1.167-.005.538,0,1.07.016,1.6s.02,1.065.015,1.6l0,.215c0,.481-.01.978.025,1.464l.031.445c.026.266.046.533.061.794v.773c.006.2.006.4.021.6l.041.615.015.214.016.215a9.813,9.813,0,0,1-.093,1.654l-.061.286c-.02.113-.046.236-.061.359-.031.261-.046.516-.062.777l-.031.349-.02.291-.031.323c-.025.2-.046.4-.056.6l-.015.138-.016.138-.056.292-.019.014c0,.015,0,.031,0,.047a5.588,5.588,0,0,0,0,.732,1.2,1.2,0,0,0,.061.875,1.2,1.2,0,0,0,1.6.579,1.117,1.117,0,0,0,.23-.144c0-.01,0-.025,0-.041a1.513,1.513,0,0,0,.359-.491,2.065,2.065,0,0,0,.1-1.039,11.061,11.061,0,0,1,.118-1.305l.02-.19c.031-.261.046-.522.062-.788.015-.3.035-.609.071-.916.016-.107.036-.215.077-.4.026-.128.051-.251.066-.384.036-.338.067-.67.077-1.013.01-.456-.02-.906-.051-1.362-.015-.22-.031-.445-.041-.67l-.01-.645c0-.323-.01-.645-.026-.968,0-.2-.02-.4-.036-.593l-.015-.138-.041-.512c0-.277,0-.553.01-.829v-.292c.006-.492,0-.988-.02-1.6,0-.507-.01-1.008-.01-1.51l-.011-1.2c0-.46,0-.926.011-1.387l0-.235c0-.42.01-.84,0-1.264l-.011-.947c0-.62-.015-1.244-.03-1.833l-.01-.68c-.011-.487-.021-.983-.036-1.423V75.662c-.011-.547-.016-1.1-.021-1.653l-.01-.834c-.01-.875-.02-1.75.01-2.631.051-1.121.077-2.236.092-3.362,0-.287.021-.574.036-.86.021-.261.036-.522.036-.783q.015-.861,0-1.72l-.015-.522-.016-.527c-.015-.538-.03-1.08,0-1.613l.046-.7c.026-.389.052-.783.067-1.172s.01-.773,0-1.157l0-.578c0-.573,0-1.146-.01-1.72-.01-.557,0-1.11,0-1.668.01-.389.041-.778.077-1.167l.035-.456.026-.271c.077-1.008.159-2.047.179-3.071.046-1.74.118-3.48.195-5.22l.051-.83c.036-.6.066-1.2.046-1.791-.01-.44-.036-.88-.061-1.315l-.021-.359c-.01-.25-.026-.5-.046-.742l-.041-.552c0-.451.031-.906.061-1.357l.036-.578c.031-.6.041-1.2.051-1.792v-.317l.016-.594a16.936,16.936,0,0,0-.036-1.827c-.015-.184-.041-.373-.067-.558l-.056-.45c-.036-.322-.061-.645-.077-.967V29.64l.021-.134c0-.03-.005-.061-.005-.092l-.01-.225-.016-.22a2.678,2.678,0,0,1-.01-.573l-.031-.144-.02-.7a.657.657,0,0,1,.02-.138l-.03-.169c-.006-.215-.016-.435-.031-.655l-.021-.322c.005-.026.005-.057.011-.082-.011-.113-.026-.22-.031-.333a8.256,8.256,0,0,0-.062-1.075c-.046-.332-.1-.665-.138-1-.046-.394-.092-.783-.128-1.177-.036-.374-.051-.742-.117-1.111a17.856,17.856,0,0,0-.374-1.919,3.435,3.435,0,0,0-.522-1.167c-.1-.143-.241-.266-.348-.415.025.041.056.082.077.123a5.421,5.421,0,0,0-1.116-1.233c.072.071.148.138.225.21-.107-.1-.21-.19-.317-.282-.114-.109-.228-.208-.342-.307a4.887,4.887,0,0,0-.416-.343,3.013,3.013,0,0,0-.793-.368,9.337,9.337,0,0,0-1.761-.333c-.041,0-.087-.005-.133-.005a1.207,1.207,0,0,0-1.177,1.08Zm4.287-.024c.039.034.074.065.11.1-.037-.035-.073-.068-.11-.1Z"/>
        <path class="cls-1" d="M129.943,99.667a1.228,1.228,0,0,0-.437.168l-.008.042a1.234,1.234,0,0,0-.5,1.172,5.328,5.328,0,0,1,.051.563L129,101.8a4.11,4.11,0,0,1-.328.425l-.118.143a1.274,1.274,0,0,1-.158.113l-.154.1a1.659,1.659,0,0,1-.2.087c-.179.046-.358.092-.552.138a6.9,6.9,0,0,1-.963.1c-.342.02-.685.056-1.049.1-.256.036-.542.056-.87.077l-.3-.005h-.45c-.251,0-.5,0-.758.015-.133,0-.266.01-.5.025l-.169.031c-.21.026-.415.046-.625.062a16.814,16.814,0,0,0-1.719.128c-.292.035-.594.056-.978.076-.235.011-.471.026-.706.052-.486.051-1.014.127-1.659.23l-.261.041a4.558,4.558,0,0,1-.537.071l-.456.021-.3.015-.363-.005h-.379c-.133,0-.261,0-.394.005-.174.011-.353.026-.527.046l-.281.031c-.292-.01-.589-.036-.917-.072-.148-.015-.3-.03-.445-.035-.118-.011-.24-.016-.358-.016-.22,0-.445.01-.712.031l-.209.015c-.154.016-.3.026-.456.036h-.153a8.184,8.184,0,0,1-.871-.036l-.245.011c-.282,0-.558.015-.855.04l-.287.021h-.3l-.6,0c-.272,0-.548,0-.824-.02-.185-.011-.369-.021-.553-.021-.23,0-.461,0-.712.021-.174,0-.353,0-.532,0-.466,0-.844-.011-1.2-.041-.527-.046-1.049-.067-1.556-.067-.158,0-.312,0-.445.005h-.256l-.251,0c-.394.006-.8.016-1.2.041l-.343.006H98.62c-.154,0-.3,0-.456.02h-.245c-.236,0-.471,0-.727-.01l-.369-.005-.235,0-.471-.006h-.466l-.353.006c-.246,0-.491-.016-.737-.031l-.266-.01-.276-.016-.272-.015-.424-.026c-.123-.01-.246-.02-.369-.025-.082,0-.159,0-.241,0-.22,0-.44.01-.655.02l-.3.005-.158,0-.625.011c-.6,0-1.218-.047-1.858-.1-.291-.02-.583-.036-.875-.046l-.138-.01c-.409-.021-.783-.041-1.157-.082s-.737-.087-1.105-.143c-.343-.046-.686-.087-1.029-.128a12.262,12.262,0,0,0-1.285-.067q-.338,0-.66.016h-.3c-.368,0-.742,0-1.11.025h-.328c-.548,0-1.008-.015-1.418-.046-.245-.015-.491-.02-.824-.02h-.148a8.346,8.346,0,0,1-1.111-.128c-.563-.1-1.141-.169-1.725-.215-.394-.036-.762-.051-1.136-.051-.246,0-.491,0-.742.02-.215.005-.435.005-.655.005h-.563c-.364,0-.722,0-1.08.016h-.312c-.707,0-1.428-.036-2.15-.1-.2-.02-.4-.025-.594-.025-.343,0-.691.02-1.085.046l-.174.015-.184.01-.184.01c-.164.006-.333.006-.5.006s-.332,0-.5-.006h-.164c-.287,0-.573.011-.87.026l-.282.015c-.23.011-.46.021-.691.026l-.45.02c-.3.011-.6.011-.906.011-.619,0-1.264,0-1.894.061-.45.036-.895.1-1.269.154-.42.056-.85.076-1.321.1s-.921.026-1.412.051l-.3.015-.328.011-.455.01c-.44,0-.921-.015-1.582-.067l-.158-.01c-.226-.015-.451-.025-.7-.025q-.261,0-.522.015l-.245.015-.272.021c-.358,0-.716.02-1.085.041l-.276.01-.271,0h-.548l-.676,0c-.368,0-.742.026-1.141.056l-.4.026-.271.005c-.174,0-.354.015-.533.026s-.373,0-.558,0l-.3,0h-.6c-.3-.006-.6-.011-.9-.011-.4,0-.814,0-1.218.026l-.333,0c-.461.005-.931.01-1.407.056-.2.021-.395.046-.589.077l-.174.026c-.189.025-.384.051-.573.066-.348,0-.809.021-1.275.072-.348.031-.7.051-1.059.072l-.2.015h-.952c-.21,0-.419,0-.629,0-.241,0-.476,0-.712.01h-.148c-.22,0-.445-.005-.783-.015-.287-.011-.573-.016-.86-.016-.174,0-.343,0-.532.011a5.273,5.273,0,0,0-.62.061c-.153.02-.307.041-.455.056-.374.026-.742.046-1.121.067-.328.005-.655.01-.983.025h-.389c-.21,0-.419,0-.629,0-.19,0-.369.016-.712.041l-.2.016-.2.015h-.271c-.446,0-.814-.015-1.167-.041q-.714-.061-1.428-.107c-.461-.031-.927-.057-1.392-.077l-.236-.015-.348-.026c-.077-.005-.153-.01-.23-.01-.108-.01-.215-.01-.323-.01-.143,0-.281,0-.44.01l-.22,0c-.373,0-.64-.011-.9-.031-.215-.021-.435-.031-.65-.031-.1,0-.2.005-.3.01-.332-.01-.7-.03-1.126-.071-.112-.01-.225-.016-.332-.016-.241,0-.476.021-.753.046l-.338.031h-.2c-.179,0-.364,0-.538-.02-.148-.016-.291-.021-.527-.026l-.21-.015-.2-.01c-.169-.016-.343-.026-.512-.026a8.6,8.6,0,0,0-1.167.087l-.138-.015a3.349,3.349,0,0,0-.369-.016c-.266.01-.558.031-.906.077l-.148-.015a2.174,2.174,0,0,0-.333-.021c-.169,0-.338.01-.512.026l-.169-.041-.133.005c-.179-.015-.363-.036-.542-.067l-.184-.025a2.75,2.75,0,0,0-.41-.051c-.1,0-.2,0-.3,0a1.857,1.857,0,0,1-.25-.011c-.384-.025-.763-.087-1.07-.133l-.144-.025a4.439,4.439,0,0,0-.87-.067l-.245-.025a2.334,2.334,0,0,0-.333-.026c-.184,0-.368,0-.6.015-.056-.015-.118-.025-.266-.056a2.008,2.008,0,0,0-.281-.02,1.908,1.908,0,0,1-.246-.052l-.138-.025a3.878,3.878,0,0,1-.492-.195l-.117-.061-.2-.138a4.7,4.7,0,0,0-.307-.384l-.118-.144a3.282,3.282,0,0,0-.22-.337,1.888,1.888,0,0,0-.225-.405,4.007,4.007,0,0,0-.266-.389l-.159-.169v-.035l-.061-.062V100.8c.02.021.041.041.061.06v0c-.026-.027-.053-.055-.082-.081a1.042,1.042,0,0,0-.317-.353,1.229,1.229,0,0,0-.9-.2,1.206,1.206,0,0,0-.778.486,1.171,1.171,0,0,0-.205.9,1.689,1.689,0,0,0,.374.731c.036.041.077.082.118.123a.575.575,0,0,0,.1.057.427.427,0,0,1,.1.143l.087.128a1.46,1.46,0,0,0,.123.271,2.813,2.813,0,0,0,.282.4,2.521,2.521,0,0,0,.291.389,1.885,1.885,0,0,1,.241.3,1.763,1.763,0,0,0,.435.466s.194.118.194.118l.205.128a1.959,1.959,0,0,0,.3.169l.2.081a3.513,3.513,0,0,0,.563.221,6.024,6.024,0,0,0,.634.158l.231.036c.082.01.163.01.251.015l.153.026.164.046a.914.914,0,0,0,.179.015,2.146,2.146,0,0,0,.322-.03l.169-.016a1.436,1.436,0,0,1,.261.021,4.038,4.038,0,0,0,.446.025,5.683,5.683,0,0,1,.87.108l.169.031a7.751,7.751,0,0,0,1.243.1,6.964,6.964,0,0,1,.86.1l.563.077a2.462,2.462,0,0,0,.364.031,3.8,3.8,0,0,0,.389-.026l.179,0,.184.01a2.794,2.794,0,0,0,.353.026,1.414,1.414,0,0,0,.215-.016l.236-.025c.112-.016.225-.031.337-.041.057,0,.113,0,.266.015.108.01.221.016.328.016a1.43,1.43,0,0,0,.261-.016l.205-.02c.153-.021.312-.041.466-.057.2.006.4.016.6.036a3.5,3.5,0,0,0,.465.026c.138,0,.277.01.415.02a3.959,3.959,0,0,0,.435.021l.435-.01c.225,0,.45-.021.67-.041l.246-.026c.123,0,.246.015.363.026.139.01.277.02.415.02s.287.01.425.021a2.839,2.839,0,0,0,.292.01l.281,0c.266,0,.538.02.809.046.107.01.215.01.327.01h.215l.461,0h.363c.41,0,.824.026,1.234.056l.292.021c.522.036,1.049.066,1.576.092.22.015.435.036.7.056a9.589,9.589,0,0,0,1.014.067l.194.005c.317,0,.635-.01.947-.031.148,0,.3-.015.44-.031l.358-.03.538-.005c.245,0,.491,0,.727-.011l.353,0,.747-.025c.148,0,.292-.016.466-.026.143-.01.281-.02.419-.025.241-.011.476-.036.712-.067l.189-.02c.138-.016.277-.031.415-.041.153,0,.307,0,.594.02l.389.005c.194,0,.389,0,.706.016.194,0,.389-.011.583-.026.3,0,.6,0,.952.01.21,0,.42,0,.63,0,.261,0,.527,0,.788-.02l.333-.016a6.128,6.128,0,0,0,.752-.051c.287-.036.573-.056.911-.071l.558-.021c.154,0,.312-.031.471-.051l.148-.031c.41-.061.824-.1,1.239-.123l1.264-.03h.317l.318,0,.86,0,.24.005.712,0c.368,0,.737,0,1.105-.026.277-.005.553-.01.824-.025l.358-.026.349-.031c.168,0,.342,0,.511.006l.215,0h.215l.21,0c.538-.011,1.07-.036,1.6-.062l.491-.015.824-.031c.287,0,.574.021.855.036l.164.01.481.026c.271.02.543.025.819.025.21,0,.425-.005.609-.01l.133.01.19-.02.6-.031.6-.031c.43,0,.865-.015,1.295-.046l.323-.015a8.573,8.573,0,0,0,.88-.077c.583-.082,1.172-.148,1.761-.179h.588c.205,0,.41,0,.614,0,.364,0,.727-.015,1.111-.036l.41-.02c.312-.015.629-.031.941-.041.133-.005.272-.005.405-.005h.4c.358,0,.711,0,1.064-.015.21-.006.42-.021.63-.036L68.31,105c.353,0,.706.031,1.059.056l.133.011.548.035c.353.021.711.031,1.065.031.3,0,.6,0,.9-.02H72.6l.379.01c.092,0,.189-.005.281-.01.415-.006.824-.016,1.357-.031a19.632,19.632,0,0,1,2.83.287l.471.071a4.38,4.38,0,0,0,.686.041l.317,0c.133,0,.266.01.522.026.148.01.3.02.456.02l.414.015c.2.006.394.006.594.006.379-.006.752-.011,1.126-.026l.568,0,.415,0h.24a19.266,19.266,0,0,1,2.467.22c.43.056.865.112,1.3.153.389.041.773.057,1.2.077.322.015.65.031.972.051a14.46,14.46,0,0,0,1.484.067l.43-.005.5,0,.839-.021c.405,0,.8.031,1.2.062l.24.015c.456.025.9.036,1.357.041l.256,0c.5.015.987.02,1.484.02s1.008,0,1.453-.02c.512-.01,1.014-.026,1.521-.046l.573,0,.553-.01h.153c.471,0,.937.03,1.4.066l.445.026c.292.02.588.03.885.03.323,0,.645-.01,1.019-.02l.235-.01c.174,0,.353.01.533.02l.163,0,.149,0,.384.011.522-.011h.655c.184,0,.368-.015.553-.03l.481-.026c.189,0,.384.005.573.01l.414.026.236-.01a6.651,6.651,0,0,0,.716-.031l.594-.051c.42,0,.84.041,1.259.082l.318.025c.1.01.2.016.307.016a7.044,7.044,0,0,0,.8-.052l.43-.041c.169,0,.333.006.558.026l.138-.01c.215,0,.43-.01.645-.026l.164-.01.322-.02a10.378,10.378,0,0,0,1.311-.159l.337-.051.241-.041c.522-.072,1.049-.133,1.581-.164l.174-.01c.318-.021.635-.041.952-.082a8.928,8.928,0,0,1,.906-.077h.133c.282-.01.569-.02.855-.056s.589-.067.88-.082c.221,0,.441,0,.656,0,.383,0,.767,0,1.151-.021.2-.01.415-.036.619-.066l.272-.036.583-.046.3-.026a6.691,6.691,0,0,0,1.392-.215l.149-.046a3.6,3.6,0,0,0,.609-.22,5.93,5.93,0,0,0,.527-.338,2.4,2.4,0,0,0,.3-.22,2.357,2.357,0,0,0,.317-.353l.236-.281.261-.318a2.558,2.558,0,0,0,.5-1.254c.011,0,.016-.015.026-.02v-.01a3.863,3.863,0,0,0-.026-.845c-.015-.138-.035-.276-.051-.414a1.2,1.2,0,0,0-1.2-1,1.156,1.156,0,0,0-.185.016ZM3.4,100.905a.124.124,0,0,1,.02.031c.015.036.026.072.036.1a1.407,1.407,0,0,0-.056-.134Z"/>
        <path class="cls-1" d="M20.649,0a9.969,9.969,0,0,0-1.018.092l-.369.046c-.292.016-.583.021-.875.021h-.829l-.594.005-.978.005L15.377.164c-.593,0-1.182.041-1.765.087-.287.015-.574.051-.865.087l-.226.025q-.4.054-.8.093L11.267.5l-.45.041c-.271.021-.537.036-.809.036H9.481L9.128.568,8.78.573c-.4.021-.809.041-1.208.087a3.062,3.062,0,0,0-.86.287,4.314,4.314,0,0,1-.675.164,2.973,2.973,0,0,0-.666.092,3.1,3.1,0,0,0-.967.445,3.388,3.388,0,0,1-.43.205,4.309,4.309,0,0,0-.409.189A4.609,4.609,0,0,0,2.5,2.815c-.087.087-.174.174-.312.292a2.356,2.356,0,0,0-.343.307,3.665,3.665,0,0,0-.323.4,3.787,3.787,0,0,1-.235.323,1.475,1.475,0,0,0-.174.214A2.583,2.583,0,0,0,.806,4.9,5.658,5.658,0,0,0,.355,6.505c-.041.22-.061.44-.081.66L.263,7.3c-.02.281-.046.568-.092.844s-.082.532-.112.8a6.719,6.719,0,0,0-.021.982v.615c0,.342,0,.685.01,1.023.021.619.026,1.239,0,1.853-.01.312-.025.624-.041.937A10.031,10.031,0,0,0,.023,15.4c.005.281.005.557,0,.839-.005.348-.005.7.015,1.049.015.261.031.527.031.788,0,.3.02.6.046.906s.02.594.015.9l-.005.159-.01.3a5.185,5.185,0,0,0,.041.573l.005.409a4.646,4.646,0,0,0,.026.471,8.2,8.2,0,0,0,.1.865l.061.476c.005.184,0,.369,0,.553-.005.205-.01.409,0,.609a7.038,7.038,0,0,0,.108.937c.01.23.041.46.071.69,0,.021.005.047.005.067a1.251,1.251,0,0,0,.492.635,1.234,1.234,0,0,0,.916.169,1.206,1.206,0,0,0,.747-.512,1.109,1.109,0,0,0,.164-.408c-.006-.052-.013-.11-.02-.176a1.864,1.864,0,0,0-.016-.332,2.149,2.149,0,0,0-.031-.256c0-.1,0-.19,0-.281-.028-.174-.058-.347-.076-.523,0-.322.02-.65.01-.972C2.7,22.807,2.6,22.305,2.546,21.8c-.01-.168-.01-.337-.015-.511-.005-.251-.026-.507-.052-.758,0-.281.021-.563.021-.849,0-.359-.031-.717-.056-1.075s-.021-.742-.036-1.111H2.4l-.011-.148c-.015-.277-.01-.563,0-.84v-.179c0-.159,0-.317,0-.471l-.01-.4V15.4c0-.364-.015-.743,0-1.116.026-.456.051-1.029.051-1.566,0-.343-.01-.686-.02-1.034l-.016-.43c0-.307,0-.609,0-.916V9.612a8.411,8.411,0,0,1,.139-1.336l.04-.256c.036-.235.057-.471.077-.706s.036-.445.072-.671A5.317,5.317,0,0,1,2.981,5.8a3.184,3.184,0,0,1,.292-.389,1.468,1.468,0,0,0,.148-.205l.031-.041.061-.1c.062-.051.123-.1.215-.174.067-.061.139-.118.2-.184s.108-.1.159-.154l.046-.041a2.742,2.742,0,0,1,.22-.209,5.309,5.309,0,0,1,.522-.287c.072-.031.143-.062.22-.092l.061-.026.128-.051a3.415,3.415,0,0,0,.522-.307l.057-.026a2.053,2.053,0,0,1,.358-.076,3.853,3.853,0,0,0,.834-.139l.087-.025c.092-.031.19-.062.287-.092s.184-.077.276-.113l.067-.026L7.884,3c.057-.01.123-.025.179-.03l.21-.016c.149-.01.3-.02.446-.025.1-.006.194-.006.291-.006h.266l.139.006h.107l.236,0h.081c.589,0,1.183-.062,1.761-.118l.215-.01A.508.508,0,0,0,11.9,2.8h.005l-.03-.011c.4-.035.793-.081,1.192-.128l.645-.071c.471-.031.937-.051,1.407-.067h1.331c.179,0,.353,0,.532-.005.292,0,.589,0,.886,0l.292,0c.194,0,.394,0,.588-.01A12.973,12.973,0,0,0,20.107,2.4l.051-.01.215-.025c.107,0,.215-.006.322-.006.287,0,.584.016.947.047.215.02.456.03.727.03s.517,0,.773-.015c.117,0,.23,0,.343,0,.2,0,.4,0,.6.01.163,0,.327,0,.491,0l.061,0c.1,0,.205,0,.307-.01h.108l.1-.005c.185,0,.364-.01.548-.01.087,0,.179,0,.266,0l.41.02.435.021c.685.036,1.4.077,2.1.077.133,0,.266-.006.4-.011s.241-.005.359-.01h.087c.138,0,.281-.01.455-.01.23,0,.461.015.7.031l.312.015c.625.031,1.244.061,1.868.072H33.2c.174,0,.343-.006.522-.011l.092,0h.062l.112,0c.159,0,.318-.01.471-.01.113,0,.225.005.338.01.491.031.988.056,1.515.082l.077,0,.634.031.082,0a23.283,23.283,0,0,1,2.385.21,3.806,3.806,0,0,1,.676.189.69.69,0,0,1,.1.072l.348.327c.154.149.328.282.5.42l.061.046.046.051c.041.077.087.154.128.231l.031.056.041.077c.072.122.138.25.21.373.256.415.537.829.8,1.213a16.3,16.3,0,0,0,1.336,1.7c.21.235.42.476.63.716.25.287.5.573.757.85.133.143.261.286.384.435l.072.077c.087.1.169.194.256.291a8.8,8.8,0,0,0,.87.783l.107.093a0,0,0,0,0,0,0c.057.051.118.1.179.143a1.14,1.14,0,0,0,.917.169,1.187,1.187,0,0,0,.742-.507,1.221,1.221,0,0,0,.174-.921,1.142,1.142,0,0,0-.251-.5l-.051-.015a1.9,1.9,0,0,0-.231-.21l-.44-.353a8.316,8.316,0,0,1-.727-.793l-.179-.205-.307-.348c-.23-.251-.455-.5-.675-.763-.144-.174-.292-.342-.446-.506s-.3-.328-.445-.5c-.271-.338-.532-.686-.834-1.111-.282-.424-.558-.849-.8-1.3a3.676,3.676,0,0,0-.547-.818A3.357,3.357,0,0,0,42.453,2L42.33,1.9l-.154-.143c-.2-.195-.409-.384-.629-.558A3.114,3.114,0,0,0,40.247.7a16.345,16.345,0,0,0-2.9-.322L36.828.348c-.5-.026-1-.056-1.505-.1h-.2c-.179-.01-.363-.021-.547-.021l-.226.011c-.3.015-.6.025-1.018.025-.44,0-.891-.02-1.331-.046l-.21-.005c-.542-.031-1.08-.056-1.622-.056-.169,0-.333,0-.5.01s-.373,0-.558,0c-.65,0-1.3-.031-1.96-.067L26.863.1,26.7.087c-.317-.015-.635-.031-.957-.031l-.205,0-.3.006c-.225,0-.445.01-.665.01H24.35L24.042.072,23.526.061c-.113,0-.231,0-.395.011-.215.005-.424.01-.639.01-.2,0-.394-.005-.589-.015L21.576.036C21.314.015,21.059,0,20.8,0Z"/>
        <path class="cls-1" d="M46.7,10.032a1.221,1.221,0,0,0,.128.89l.015.016a1.258,1.258,0,0,0,.737.542l.369.123a8.881,8.881,0,0,0,1.31.353c.461.077,1.09.179,1.7.312a17.543,17.543,0,0,0,3.03.318l.415.02c.281.015.558.015.834.015s.522,0,.783.011c.22.01.435.025.655.046l.082,0c.256.02.512.036.768.041.143,0,.281,0,.419,0,.2,0,.4,0,.594,0s.384-.005.619-.005c.333,0,.661-.01.988-.031.22-.01.44-.02.666-.026.588-.015,1.177-.046,1.765-.081s1.142-.062,1.715-.077l.363-.01c.487-.016.978-.031,1.464-.052.41-.02.814-.051,1.218-.087l.563-.041c1.055-.076,2.145-.117,3.107-.148l.717-.026.235-.005h.082c1.075-.041,2.18-.077,3.276-.092h.276c.543,0,1.08.021,1.623.041.46.015.916.031,1.376.036l.328.005.455-.005h.855l.236.005h.25c.42.01.835.015,1.249.015h.5c.424,0,.921,0,1.4-.03.189,0,.374-.016.558-.026l.194-.015c.369-.026.732-.046,1.106-.062S86.49,12,86.874,12h.235c.154,0,.312,0,.471,0,.358-.005.716-.021,1.08-.041l.2-.01.615-.031.5-.015.123,0c.322-.011.64-.021.962-.021h.092c.563.005,1.131.021,1.7.036,1.146.041,2.287.046,3.644.046.614,0,1.233-.02,1.837-.041l.082-.005c.594-.026,1.187-.046,1.786-.051,1.1,0,2.165-.051,3.342-.108.272-.015.548-.02.819-.02.471,0,.947.015,1.423.031.353.01.712.025,1.065.025l.169.005c.343,0,.691-.015,1.039-.03.215-.011.43-.021.645-.026s.414,0,.619,0h.635l.5,0h.445c.42,0,.835,0,1.254.01.609.021,1.213.036,1.817.041l.932.005c.829,0,1.684.01,2.528.046.456.021.911.057,1.382.108.113.01.225.025.338.036l0-.006h-.01l-.087-.02c.281.031.568.056.854.082l.128.015.133.016a1.143,1.143,0,0,0,.318.041.054.054,0,0,0,.03-.006l.139.021.138.015.338.041c.378.041.757.087,1.136.118l.24.02c.3.021.609.052.911.077a13.408,13.408,0,0,0,1.643.133l.093,0h.143c.379,0,.788.026,1.254.072a9.537,9.537,0,0,1,1.914.409,6.289,6.289,0,0,1,.87.471c.062.056.118.108.179.174v.01l.062.062a7.265,7.265,0,0,1,.517.824c.005.015.01.031.015.051,0,.138,0,.271.015.409.005.031.005.062.011.093s.01.035.015.056l0,.1c.015.113.026.23.031.343.01.2,0,.389-.016.614l-.005.057c-.01.061-.01.122-.02.184a3.112,3.112,0,0,0,0,.373,13,13,0,0,1-.062,1.341c-.025.394,0,.783-.03,1.172-.118.784-.338,1.541-.4,2.329.008.073.013.147.017.221.017.141.03.291.04.455l.046.169c.006.091.013.181.02.272a5.859,5.859,0,0,1,.069.716c.014.125.028.249.044.373l-.01.149-.021.158c.036.1.067.19.113.333l.025.164c.046.307.087.588.108.875,0,.057,0,.114,0,.172a1.222,1.222,0,0,0,1.34.069,1.137,1.137,0,0,0,.542-.743,6.559,6.559,0,0,0,.087-1.146c-.015-.271-.051-.543-.071-.819a5.835,5.835,0,0,1,.02-.793c.015-.215.01-.43.021-.645.092-.563.25-1.111.332-1.679a9.294,9.294,0,0,0,.1-1.131c.011-.317-.005-.635.021-.957a8.8,8.8,0,0,0,.056-.906,8.609,8.609,0,0,1,0-.88,4.373,4.373,0,0,0,0-.825c0-.087-.01-.179-.015-.266-.015-.056-.025-.117-.041-.179,0-.118-.01-.24-.025-.358a3.05,3.05,0,0,0-.512-1.418l-.113-.169c-.1-.158-.2-.317-.307-.471a4.607,4.607,0,0,0-1.858-1.438,9.849,9.849,0,0,0-3.485-.752c-.364-.031-.717-.041-1.1-.051s-.732-.021-1.095-.052c-.435-.051-.87-.092-1.305-.127l-.86-.077c-.394-.051-.783-.1-1.3-.149-.384-.051-.763-.087-1.162-.123a30.436,30.436,0,0,0-3.2-.2l-.7-.005-.747-.006c-.691,0-1.387,0-2.078-.015-.957-.025-1.919-.041-2.882-.041l-.639,0c-.318,0-.635.016-.952.031l-.267.01c-.189.005-.378.016-.568.021h-.322c-.364,0-.732-.011-1.136-.021l-.241-.005-.471-.01c-.338-.01-.67-.021-1.008-.021l-.174.006c-.41,0-.819.02-1.229.04l-.2.016-.246.015c-.573.026-1.146.036-1.745.041s-1.188.01-1.776.046c-.906.046-1.812.062-2.718.062-1.182,0-2.365-.026-3.542-.057l-.89-.02-.5-.01c-.588,0-1.177.025-1.771.051l-.261.015-.527.021-.532.025c-.42.01-.829.01-1.244.01l-.645.006c-.312,0-.624.015-.936.03l-.2.016c-.225.015-.456.03-.686.041-.778.041-1.561.051-2.339.051-.44,0-.875,0-1.315,0l-.911-.011c-.83,0-1.654,0-2.478-.035-.563-.026-1.12-.036-1.678-.036s-1.121.01-1.684.025q-1.82.039-3.639.123l-.783.031c-.379.015-.758.031-1.142.056-.471.026-.947.062-1.412.1l-.451.036c-.675.046-1.351.067-2.042.082-.527.016-1.059.031-1.587.062-1.52.087-3.163.168-4.852.168h-.563c-.378,0-.757-.04-1.218-.076-.251-.026-.5-.026-.747-.031h-.6c-.4-.005-.793-.026-1.192-.051l-.563-.041-.63-.031a8.634,8.634,0,0,1-.942-.153l-.921-.19-.164-.03-.471-.077A4.923,4.923,0,0,1,49.3,9.54c-.246-.066-.492-.143-.742-.225l-.036-.036-.369-.123a1.016,1.016,0,0,0-.3-.046,1.257,1.257,0,0,0-1.156.922Zm72.346,1.929c.025,0,.056,0,.082.01a.448.448,0,0,1-.082-.01Z"/>
        <path class="cls-1" d="M130.123,12.443a1.175,1.175,0,0,0-.574.7,1.3,1.3,0,0,0-.051.492s0,.01.01.015a.856.856,0,0,0,.139.415,4.271,4.271,0,0,1,.373.665c.046.143.082.281.123.425l0,.061c0,.026.01.046.016.072.04.148.081.3.107.45.005.205,0,.41-.01.614a6.981,6.981,0,0,0,.013.905,3.222,3.222,0,0,1,0,.529,4.6,4.6,0,0,0-.092.8,8.185,8.185,0,0,0,.051.937c.036.45.026.895.021,1.351a12.508,12.508,0,0,0,.071,1.4v0a.03.03,0,0,0,0,.02v.031c0,.051.009.1.013.146V22.45c.1,1.175.106,2.356.106,3.536,0,.65.077,1.295.031,1.945a12.641,12.641,0,0,0,.179,2.605,1.157,1.157,0,0,0,.532.747,1.194,1.194,0,0,0,.906.154,1.245,1.245,0,0,0,.579-.317,10.505,10.505,0,0,1-.1-1.05,1.445,1.445,0,0,1,.016-.293V29.64l.02-.143-.015-.307-.016-.22a2.745,2.745,0,0,1-.01-.573l-.031-.144-.02-.7a.657.657,0,0,1,.02-.138l-.03-.169c0-.083-.005-.168-.009-.252a3.544,3.544,0,0,1-.028-.493l-.015-.232c.026-.226.052-.446.072-.62.015-.1.026-.194.036-.307a3.7,3.7,0,0,1-.036-.957l.031-.246a2.842,2.842,0,0,1,.194-.885c-.03-.476-.066-.952-.112-1.423a9.612,9.612,0,0,1-.01-1.1,11.3,11.3,0,0,0-.047-1.316,6.232,6.232,0,0,1,.006-1.2,2.433,2.433,0,0,0,.066-.517,5.619,5.619,0,0,0-.036-.594,7.551,7.551,0,0,1,.016-.839l0-.174a4.419,4.419,0,0,0-.149-1.275c0-.048,0-.1-.007-.147a5.428,5.428,0,0,0-.735-1.747,1.294,1.294,0,0,0-.7-.573,1.23,1.23,0,0,0-.926.092Zm.148,4.76,0,.036c0-.011,0-.023,0-.036Z"/>
        <path class="cls-1" d="M130.339,22.391l-.007-.078,0-.029.009.107Z"/>
        <path class="cls-2" d="M92.845,14c-.279.013-.558.017-.838.017h-.266c-.2,0-.4,0-.6,0-.611.005-1.222.056-1.9.116l-.12.009c-.476.04-.969.081-1.453.1-1.2.041-2.4.052-3.517.058-.75,0-1.509.056-2.244.109l-.067.005-.176.011c-.415.03-.831.06-1.249.081l-.509.024-.152.006c-.544.026-1.106.054-1.659.056l-.648-.017c-.418-.011-.836-.022-1.256-.022l-.125,0c-.323,0-.645.015-.966.03l-.1.005c-.294.015-.589.03-.883.036-.44-.013-.915-.045-1.49-.1-.279-.028-.558-.051-.839-.074s-.563-.044-.842-.073c-.6-.063-1.145-.1-1.655-.1-.14,0-.279,0-.42,0-.262,0-.526,0-.792.007l-.25,0c-.161,0-.32,0-.481,0l-.746-.021-.5-.015-.328-.016-.14,0,.048.011c-.227-.006-.451-.008-.678-.008-.409,0-.816.006-1.224.013l-.733.012-.433-.017c-.281-.01-.56-.017-.839-.017-.156,0-.312,0-.467.011-.465.021-.952.032-1.531.036a7.393,7.393,0,0,0-.913.075c-.246.028-.5.058-.746.067-.56.015-1.124.058-1.7.1l-.129.01c-.322.022-.645.037-.978.052-.25.011-.5.023-.75.04-.617.037-1.231.078-1.863.121-.553.034-1.115.045-1.685.058-.515.012-1.029.023-1.544.053-.2.009-.407.015-.611.023l-.2.007c-.191,0-.383.009-.574.019a4.565,4.565,0,0,0-.461.037l-.169.019c-.193.019-.389.026-.586.034l-.2.007c-1.019.041-2.035.1-3.053.163-.506.03-1.014.049-1.522.066-.213,0-.425.017-.639.03l-.1,0c-.307.014-.615.031-.924.033-.465,0-.937.019-1.394.04l-.072,0c-.4.019-.815.038-1.24.038-.049,0-.1,0-.146,0h-.057l.04.011-.188,0c-.311,0-.62,0-.931.013l-.156,0-.155,0-.156,0h-.159l-.128,0h-.125l-.214,0-.214,0-.288,0-.458,0-.185,0-.21,0-.064-.01H33.9l.025.011c-.266-.005-.532-.017-.8-.03-.351-.015-.7-.028-1.05-.028-.1,0-.189,0-.285,0-.213.006-.429.013-.642.021-.4.015-.8.028-1.206.031s-.819-.02-1.24-.033c-.551-.019-1.1-.036-1.653-.036l-.253,0c-.484,0-.975.028-1.449.054l-.113.006c-.491.028-1,.056-1.5.06l-.427-.013c-.334-.011-.665-.023-1-.023-.09,0-.178,0-.27,0-.489.008-1.13.021-1.763.058-1.138.064-2.259.079-3.2.085l-1.027-.019-.832-.017-.52-.018-.268,0,.063.012-.146-.006-.152-.007h0c-.3-.013-.612-.035-.939-.06-.2-.015-.393-.03-.59-.039-.26-.017-.519-.022-.78-.022-.232,0-.463,0-.7.007-.172,0-.345.008-.517.009l-.4-.015-.113,0c-.228-.008-.457-.015-.687-.015-.182,0-.364.006-.548.019-.324.02-.656.065-1,.114l-.178.022-.337.045a9.234,9.234,0,0,0-1.458.3c-.225.066-.446.141-.667.218l-.081.026-.247.083-.085.03c-.344.114-.689.23-1.027.363a4.968,4.968,0,0,0-.8.379,2.9,2.9,0,0,0-.558.485.241.241,0,0,1-.054.044,4.07,4.07,0,0,0-.524.861c-.084.167-.172.332-.256.5a7.151,7.151,0,0,0-.274.68,1.218,1.218,0,0,0,.62,1.58,1.208,1.208,0,0,0,1.58-.618,11.23,11.23,0,0,1,.613-1.361,1.64,1.64,0,0,1,.1-.129.827.827,0,0,1,.066-.051,11.792,11.792,0,0,1,1.4-.515c.391-.128.781-.268,1.176-.383.439-.095.9-.137,1.337-.191a13.056,13.056,0,0,1,1.349-.125c.437.015.872.033,1.31.033.325,0,.651-.013.977-.018.446.016.888.061,1.334.089.6.036,1.192.04,1.79.04.54.009,1.079.032,1.619.045.662.015,1.32,0,1.979-.01,1.323-.013,2.645-.129,3.966-.129.855.017,1.706.049,2.562,0,.722-.045,1.443-.082,2.165-.086.8.015,1.591.058,2.387.068.463.005.93-.01,1.393-.025.4-.013.8-.026,1.2-.028.591.018,1.182.044,1.774.055h-.1l.167,0h.051c.035,0,.069,0,.1,0-.035,0-.069,0-.1,0h.953l.383,0,.277,0a1.269,1.269,0,0,0,.289,0l.009,0H36.5c.344,0,.687-.017,1.032-.019.622,0,1.243-.015,1.867-.043.275-.013.549-.039.826-.043.33,0,.662,0,.992-.009,1.261-.043,2.526-.1,3.785-.191.634-.045,1.266-.07,1.9-.092.564-.021,1.123-.085,1.685-.109,1.108-.05,2.215-.079,3.323-.1.852-.019,1.7-.1,2.552-.144.4-.019.8-.064,1.194-.075.463-.011.926-.041,1.387-.077.439-.034.875-.06,1.314-.073s.841-.075,1.263-.118c.388-.04.782-.03,1.173-.034.37,0,.737-.03,1.108-.039.57.013,1.137.039,1.709.028s1.13-.021,1.693-.021c.131,0,.26,0,.389,0,.493.009.986.037,1.481.045.609.006,1.218-.011,1.827-.013.557.015,1.11.052,1.664.11.645.066,1.294.107,1.94.171a15.914,15.914,0,0,0,2.161.065c.6-.02,1.207-.056,1.812-.063.628.011,1.254.039,1.884.039.543,0,1.085-.024,1.627-.05.629-.032,1.259-.06,1.889-.113s1.254-.109,1.883-.122c1.162-.024,2.323-.033,3.483-.05.566-.008,1.128-.045,1.692-.088.583-.045,1.168-.111,1.752-.133.465-.019.932-.027,1.4-.025.257,0,.516-.006.773-.013.206-.007.414-.013.622-.015.583.017,1.166.049,1.75.051.411.011.823.043,1.234.056.374.013.749.007,1.124,0,.185,0,.371-.006.557-.008.208,0,.416,0,.626,0,.76.009,1.523.006,2.284,0,.382.01.763.03,1.145.042s.759.005,1.14,0c.178,0,.356-.006.536-.008.841.021,1.683.077,2.526.09.5.008,1.007.032,1.511.045.6.015,1.2.013,1.8.011l.547.006c.853.022,1.7.1,2.557.124.579.016,1.156.033,1.737.022.435-.009.871-.036,1.31-.045.4.011.8.043,1.2.054.332.01.666,0,1,0,.216-.008.431-.011.649-.013s.451,0,.678,0c.351.011.7.041,1.05.077.446.041.895.046,1.343.048.411.006.821.006,1.232.006.178,0,.356,0,.534,0,.566.019,1.128.088,1.688.161s1.133.131,1.685.253c.236.072.469.148.7.218l-.01,0c.063.019.127.039.189.062a4.839,4.839,0,0,0,.448.492c.1.094.2.19.3.285a1.219,1.219,0,0,1,.088.113.4.4,0,0,0,0,.049,1.157,1.157,0,0,0,.442.787,1.2,1.2,0,0,0,1.687-.191,1.155,1.155,0,0,0,.247-.675v.065a1.83,1.83,0,0,0-.105-.865,2.846,2.846,0,0,0-.243-.434l0,0c-.038-.064-.076-.128-.117-.188a2.956,2.956,0,0,0-.395-.431l-.134-.13,0,.012-.185-.176-.085-.1-.045-.053c-.041-.048-.08-.1-.122-.14a2.108,2.108,0,0,0-.839-.617,5.522,5.522,0,0,0-.553-.165l-.289-.088a7.57,7.57,0,0,0-.95-.251c-.347-.066-.7-.111-1.064-.154l-.386-.048c-.463-.062-1-.13-1.541-.15-.171-.008-.339-.01-.51-.01-.2,0-.393,0-.592.006-.176,0-.352,0-.53.007l-.2,0-.517-.008c-.351-.009-.7-.039-1.044-.069l-.287-.023c-.373-.033-.735-.035-1.044-.035h-.3l-.109,0-.221,0c-.253,0-.508,0-.772.007-.191,0-.384.008-.577.01s-.377-.015-.564-.025c-.336-.015-.673-.03-1.01-.03l-.193,0c-.223,0-.448.009-.673.017l-.139.006c-.307.011-.615.02-.922.024-.592-.015-1.181-.043-1.771-.073l-.109-.006c-.5-.024-1.008-.049-1.517-.072l-.323-.007.05.01c-.228,0-.457-.006-.685-.006l-.4,0c-.172,0-.347,0-.519,0-.789-.013-1.642-.039-2.768-.084-.484-.021-.965-.039-1.462-.058-.148-.006-.3-.008-.444-.008-.225,0-.45,0-.675.01l-.169,0c-.112,0-.225,0-.339,0-.18,0-.36-.013-.558-.02-.342-.015-.683-.028-1.024-.028h-.183l-.55.008c-.316.006-.629.011-.946.011L99.2,14.1c-.168,0-.337-.006-.506-.016h-.143l.033.011c-.024,0-.049,0-.073,0h-.085l-.166,0c-.218,0-.433.006-.656.01l-.195,0-.373,0c-.3-.007-.6-.018-.9-.037-.4-.025-.793-.026-1.2-.026l-.516-.021c-.36-.015-.72-.028-1.081-.028-.165,0-.332,0-.5.011ZM61.706,16.6h0ZM34.13,17.769h0Z"/>
        <path class="cls-3" d="M20.7,2.363c-.109,0-.216,0-.325,0l-.216.027-.05,0c-.443.051-.9.1-1.355.111-.2,0-.393.007-.59.007l-.294,0c-.3,0-.591,0-.885.006-.176.006-.352.006-.529.006l-.427,0-.453,0c-.152,0-.3,0-.453,0-.472.011-.938.031-1.409.063l-.645.073c-.4.047-.792.092-1.192.13l.049.009-.322.015c-.579.055-1.174.111-1.763.114l-.081,0-.236,0H9.413l-.135,0c-.09,0-.178,0-.268,0s-.2,0-.292.006c-.147.007-.295.017-.443.026l-.212.013c-.058.009-.12.021-.176.034l-.112.049-.064.027c-.091.038-.183.077-.279.111s-.191.062-.286.09l-.086.027a3.774,3.774,0,0,1-.835.138,2.764,2.764,0,0,0-.355.077l-.06.029a3.515,3.515,0,0,1-.52.305l-.128.053L5.1,3.934c-.073.028-.148.058-.22.091a4.771,4.771,0,0,0-.521.287c-.079.065-.15.136-.222.206l-.043.042c-.053.053-.1.105-.159.156S3.8,4.84,3.727,4.9c-.089.073-.151.123-.211.178l-.063.094-.029.042a2.21,2.21,0,0,1-.151.205,3.463,3.463,0,0,0-.292.389,5.39,5.39,0,0,0-.267.837c-.034.224-.052.447-.071.67-.019.238-.04.474-.077.71l-.039.251a8.753,8.753,0,0,0-.139,1.339c0,.2,0,.393,0,.588v.132c0,.307,0,.613.005.918l.013.429c.011.348.022.689.022,1.033,0,.542-.029,1.111-.052,1.568-.018.373-.009.749,0,1.114l0,.056.009.407c0,.156,0,.312,0,.468l0,.116v.065c0,.276-.007.561.009.841l.007.15a.2.2,0,0,0,.071-.054,2.933,2.933,0,0,1,.559-.484,4.915,4.915,0,0,1,.8-.378c.337-.133.682-.249,1.027-.364l.085-.03.247-.082.082-.028c.22-.075.44-.151.665-.216a9.172,9.172,0,0,1,1.46-.3l.335-.044.18-.024c.343-.047.673-.092,1-.114.183-.013.365-.019.547-.019.23,0,.458.008.687.017l.113,0,.4.015c.172,0,.345-.006.517-.01.236,0,.468-.007.7-.007.261,0,.519,0,.78.022.2.011.393.026.59.04.326.024.634.046.939.06l.156.007.146.006-.106-.017.831.026.832.017,1.027.019c.946-.006,2.066-.02,3.2-.085.632-.037,1.274-.05,1.763-.058l.27,0c.333,0,.666.011,1,.022l.427.013c.5,0,1.008-.032,1.5-.059l.112-.006c.475-.025.966-.051,1.45-.055l.253,0c.551,0,1.1.017,1.653.036.422.013.83.026,1.24.034s.8-.017,1.206-.032c.213-.008.429-.015.643-.021.095,0,.189,0,.284,0,.351,0,.7.015,1.049.03.272.012.539.023.8.029l-.052-.021L34,15.4l.21,0,.185,0h1.3l.128,0h.159l.156,0H36.3l.155,0c.311-.01.62-.013.931-.013h.188l-.086-.022a1.88,1.88,0,0,0,.249.013c.425,0,.839-.019,1.241-.037l.07,0c.458-.02.93-.041,1.395-.041.309,0,.617-.017.925-.032l.1,0c.214-.013.426-.024.639-.03.508-.017,1.016-.036,1.522-.066,1.018-.061,2.034-.121,3.053-.163l.2-.007c.2-.008.393-.015.587-.034l.169-.019c.157-.017.307-.033.46-.037.192-.01.383-.015.574-.019l.2-.007c.2-.006.407-.013.611-.023.516-.03,1.029-.041,1.544-.052.569-.012,1.133-.023,1.685-.058.632-.044,1.247-.085,1.863-.122.25-.017.5-.028.75-.039.334-.016.656-.031.978-.053l.13-.009c.576-.043,1.141-.085,1.7-.1.25-.009.5-.038.746-.067a7.576,7.576,0,0,1,.913-.075c.579,0,1.066-.015,1.531-.036.156-.007.311-.011.467-.011.279,0,.558.009.839.019l.433.015.733-.011c.408-.008.815-.014,1.224-.014.226,0,.451,0,.678.008l-.074-.015.494.023.5.014c.259.008.5.016.746.021.161,0,.32,0,.481,0l.25,0c.266,0,.529-.007.792-.007.141,0,.279,0,.42,0,.511.007,1.052.041,1.655.1.279.028.56.05.841.073s.56.045.84.073c.576.055,1.05.086,1.49.1.3-.005.589-.021.883-.035l.1-.005c.322-.016.644-.031.967-.031l.125,0c.42,0,.838.011,1.256.022l.648.017c.554,0,1.115-.028,1.658-.054l.153-.007.51-.025c.417-.02.833-.049,1.248-.079l.176-.013.068-.005c.735-.052,1.494-.107,2.243-.109,1.116-.006,2.315-.016,3.518-.058.484-.017.976-.059,1.452-.1l.12-.01c.677-.059,1.287-.109,1.9-.116.2,0,.4,0,.6,0h.266c.28,0,.559,0,.839-.017.166-.009.333-.011.5-.011.361,0,.721.013,1.081.028l.515.021c.406,0,.8,0,1.2.026.3.019.6.03.9.037l.373,0,.195,0c.223,0,.438-.008.656-.01l.166,0h.085c.024,0,.048,0,.073,0l-.065-.02c.226.018.454.023.682.027l.275.006c.316,0,.63,0,.946-.011l.55-.007.183,0c.341,0,.682.013,1.023.028.2.008.379.015.559.02.115,0,.227,0,.339,0l.169,0c.225-.006.45-.01.675-.01.148,0,.3,0,.444.008l1.461.058c1.126.045,1.98.071,2.769.084.172,0,.347,0,.519,0l.4,0c.228,0,.457,0,.685.006l-.095-.017c.63.025,1.265.056,1.885.087l.109,0c.59.03,1.179.058,1.771.073.308,0,.615-.013.922-.024l.14,0c.224-.008.448-.016.672-.018l.193,0c.337,0,.674.015,1.01.03.187.01.374.017.564.025s.386-.006.577-.01c.265,0,.519-.007.772-.007l.221,0,.109,0h.3c.309,0,.671,0,1.044.035l.286.023c.347.03.694.06,1.044.069l.518.008.2,0c.179,0,.355,0,.531-.008.2,0,.395-.006.592-.006.171,0,.339,0,.51.01.538.021,1.077.088,1.54.15l.386.048c.364.045.718.09,1.064.154a7.729,7.729,0,0,1,.952.251l.288.09a5.2,5.2,0,0,1,.553.165,2.108,2.108,0,0,1,.84.615c.041.045.081.093.121.14l.045.053.085.1.186.177a1.491,1.491,0,0,0,.029-.23l0-.058a5.712,5.712,0,0,0,.019-.616c-.008-.112-.019-.227-.03-.339l-.01-.1c-.035-.142-.075-.282-.12-.423a3.937,3.937,0,0,0-.375-.667.867.867,0,0,1-.138-.417c-.06-.063-.118-.118-.178-.17A6.455,6.455,0,0,0,128.46,13a9.761,9.761,0,0,0-1.915-.407,12.515,12.515,0,0,0-1.254-.07h-.145l-.09,0a13.345,13.345,0,0,1-1.643-.131c-.3-.028-.609-.054-.913-.079l-.241-.02c-.38-.031-.756-.076-1.134-.12l-.339-.039-.137-.015-.139-.017h-.029a1.139,1.139,0,0,1-.321-.038l-.129-.015-.13-.015c-.287-.026-.571-.052-.856-.082l.2.043c-.626-.086-1.219-.135-1.813-.161-.844-.036-1.7-.04-2.529-.043l-.931-.008c-.605-.006-1.211-.021-1.816-.039-.42-.013-.838-.013-1.254-.013h-.448l-.5,0c-.219,0-.426,0-.632,0s-.414,0-.622.006-.431.016-.645.026c-.347.015-.693.03-1.04.03l-.167,0c-.355,0-.71-.015-1.065-.026-.475-.015-.95-.03-1.422-.03-.273,0-.547,0-.821.017-1.177.057-2.241.1-3.339.11-.6,0-1.193.026-1.789.049l-.081,0c-.6.021-1.226.044-1.837.044-1.358,0-2.5-.008-3.646-.045-.566-.019-1.133-.034-1.7-.04h-.091c-.321,0-.639.012-.959.024l-.125,0-.5.017c-.2.007-.411.018-.617.028l-.2.01c-.36.02-.719.039-1.079.043l-.472,0-.235,0c-.384,0-.768,0-1.152.011-.369.011-.735.035-1.1.059l-.2.012c-.185.012-.371.024-.556.032-.482.025-.981.028-1.405.028l-.177,0h-.176l-.141,0c-.417,0-.834-.006-1.251-.013l-.249,0-.237,0h-.856l-.452,0-.33,0c-.458,0-.917-.02-1.375-.037-.542-.021-1.082-.041-1.622-.041l-.277,0c-1.095.014-2.2.052-3.278.089l-.082,0-.233.008-.718.024c-.963.032-2.054.068-3.105.146l-.563.045c-.4.032-.811.064-1.218.083-.489.024-.978.039-1.467.054l-.362.01c-.573.016-1.143.046-1.715.078-.589.032-1.177.064-1.765.079-.223.008-.444.017-.667.028-.328.017-.656.032-.984.032-.236,0-.431,0-.624,0l-.591,0c-.14,0-.279,0-.419,0-.257-.005-.512-.024-.767-.043l-.084-.006c-.217-.017-.436-.034-.656-.045-.261-.011-.519-.011-.78-.011-.277,0-.556,0-.833-.015l-.417-.019a17.982,17.982,0,0,1-3.029-.318c-.608-.134-1.24-.238-1.7-.313A8.467,8.467,0,0,1,47.95,11.6l-.37-.121a1.258,1.258,0,0,1-.734-.542l-.111-.092a8.471,8.471,0,0,1-.868-.786c-.087-.094-.172-.191-.257-.289l-.069-.078c-.125-.146-.253-.292-.384-.435-.259-.277-.51-.564-.759-.851q-.312-.36-.632-.714a16.613,16.613,0,0,1-1.332-1.706c-.265-.384-.546-.8-.8-1.215-.073-.122-.142-.246-.21-.371l-.041-.075-.032-.058c-.042-.077-.084-.154-.127-.228l-.046-.052-.062-.049c-.171-.135-.341-.27-.5-.42l-.344-.326c-.033-.025-.067-.049-.1-.072a3.623,3.623,0,0,0-.678-.186,22.773,22.773,0,0,0-2.382-.211l-.087,0-.633-.034-.077,0C35.79,2.656,35.294,2.63,34.8,2.6c-.113-.006-.225-.008-.338-.008-.154,0-.31,0-.466.01l-.117,0-.058,0-.092,0c-.179.006-.352.011-.522.011l-.115,0c-.622-.009-1.244-.039-1.866-.069l-.315-.017c-.232-.015-.465-.028-.7-.032-.173,0-.315,0-.453.01l-.085,0q-.18.009-.36.012c-.133,0-.266,0-.4,0-.7,0-1.411-.038-2.1-.075l-.438-.022-.407-.021c-.088,0-.178,0-.268,0-.182,0-.363.006-.547.011l-.1,0-.105,0c-.1,0-.207.007-.311.007l-.06,0c-.163,0-.328,0-.491-.008-.2-.005-.4-.011-.6-.011-.114,0-.229,0-.343.006-.259.011-.515.018-.774.018s-.51-.009-.728-.029c-.36-.032-.659-.047-.943-.047Z"/>
        <path class="cls-4" d="M118.914,17.609c-.194,0-.388,0-.582.01-.294.01-.575.015-.852.015-.543,0-1.034.006-1.516.052l-.283.061-.148.031-.145.03a8.7,8.7,0,0,1-1.051.144c-.266.025-.537.036-.859.036-.2,0-.408-.006-.612-.011l-.2,0h-.3l-.3-.005c-.277,0-.554.005-.83.021l-.2,0c-.431.02-.855.036-1.285.036s-.813-.021-1.192-.041l-.373-.021c-.279-.016-.558-.02-.836-.023l-.209,0-.21-.006-.312,0h-1.658c-.41,0-.851,0-1.3.046l-.368.031-.307.031c-.24.02-.481.041-.721.046q-.276.015-.552.015l-.305,0-.3,0-.277,0-.255,0c-.293,0-.472,0-.656,0h-.174l-.144,0-.163.005h-.317c-.66-.005-1.223-.02-1.786-.041l-.42-.01-.158,0-1.106-.036c-.317,0-.634-.026-.951-.051l-.236-.015-.45-.031c-.594-.041-1.214-.056-1.844-.056-.5,0-1.034.01-1.572.03l-.322.021-.323.015q-.537.032-1.074.046c-.143.005-.287.005-.43.005-.4,0-.808-.01-1.207-.02l-1.264-.046c-.753-.031-1.5-.057-2.248-.067l-1.085-.015c-.849-.016-1.684-.026-2.523-.036h-.45c-.384,0-.768,0-1.152,0-.41.01-.758.01-1.106.01-.271,0-.542-.005-.808-.01-1-.016-1.914-.031-2.836-.031-1.416,0-2.692.031-3.9.093-.373.025-.793.03-1.314.03-.333,0-.665,0-.993-.005-.4,0-.766-.01-1.136-.01-.6,0-1.2.025-1.8.051l-.2,0c-.4.016-.814.031-1.223.036-.174,0-.353,0-.527,0-.3,0-.6,0-.9-.01H61.62c-.36,0-.717-.01-1.069-.01l-.338.005H59.88c-.706.02-1.408.03-2.114.036l-.348,0-1.233.015c-.671.015-1.346.015-2.022.015H52.991c-1.3,0-2.7.011-4.085.087-.178.014-.35.024-.525.033l-.248.014-.373.015-.579.025-.5.026c-.405.026-.814.046-1.223.051l-.609.01-.282.006-.308.005c-.784.013-1.522.025-2.251.061-.318.015-.635.031-.947.041-.645.026-1.444.061-2.2.118l-.328.031-.322.03-.308.031-.2.016c-.137.012-.273.023-.409.03l-.159.01-.3.023c-.422.032-.825.063-1.228.1-1.2.121-2.238.194-3.254.23-1.075.041-2.139.046-3.321.052-.829,0-1.638-.041-2.42-.087l-.169-.011-.978-.051c-.517-.031-1.034-.051-1.551-.066-.169-.006-.343-.006-.512-.006-.271,0-.541.006-.811.011l-.336,0h-.44c-.624,0-1.247-.015-1.876-.03l-.215-.007-.749-.019H18.7l-.276-.006c-.379,0-.758.01-1.142.02l-.609.011c-.261,0-.522,0-.777-.01l-.39,0-.506,0-.691,0h-.635c-.414,0-.962,0-1.494-.031l-.209-.015c-.19-.01-.374-.021-.558-.041l-.22-.021h-.14a2.129,2.129,0,0,0-.435-.046,12.68,12.68,0,0,0-1.362.092l-.175.021-.286.036-.282.03a7.636,7.636,0,0,0-1.431.426.747.747,0,0,1-.272.04,1.349,1.349,0,0,1-.567-.137,1.071,1.071,0,0,0-.225.061l-.128.051c-.2.082-.394.159-.593.235a2.851,2.851,0,0,0-.337.217l-.235.164-.23.169-.145.14a5.715,5.715,0,0,0-.576.971c-.185.477-.328.974-.467,1.46l-.077.282-.1.332A10.618,10.618,0,0,0,2.8,24.5a4.739,4.739,0,0,0-.02.6,2.429,2.429,0,0,1,.03.256,1.864,1.864,0,0,1,.016.332,5.475,5.475,0,0,1,.051.589c.005.118.005.235,0,.352v.155c0,.266,0,.579.02.886l.031.165a5.507,5.507,0,0,1,.092.781c0,.21.016.42.026.625.025.471.051.942.092,1.413.026.286.036.573.041.859.011.364.017.54.031.707l.015.184c.03.542.056,1.022.051,1.489,0,.163,0,.322,0,.486a9.841,9.841,0,0,0,.01,1.014l.016.164a12.384,12.384,0,0,1,.061,1.248c0,.287.01.579.026.871l.01.174c.01.163.015.327.015.49l.005.195c0,.405,0,.82.041,1.219a3.889,3.889,0,0,1,.062.741c0,.113-.011.225-.021.337s-.02.251-.025.379c0,.056-.011.118-.011.18a3.244,3.244,0,0,0-.025.461l0,.256v.23a4.324,4.324,0,0,0,.026.451l.02.236c.012.174.02.293.02.408.006.266.006.455,0,.645a4.977,4.977,0,0,1-.076.684q-.115.953-.185,1.8l-.01.2-.01.2a3.524,3.524,0,0,1-.02.4,7.642,7.642,0,0,1-.108.8L3.08,48.4l-.02.233-.02.236-.011.236L3,49.348a6.5,6.5,0,0,0,.041,1.221A9.854,9.854,0,0,1,3.1,51.832l0,.21c.01.159.015.246.015.327q0,.153-.015.306c0,.094-.01.186-.01.278l-.005.2c0,.144-.011.287,0,.426l.025.573.01.4.011.2c.005.261.01.517.02.778.041.849.056,1.7.072,2.641l.005.148c0,.46-.026.92-.056,1.371l-.016.178c-.02.313-.03.625-.041.938l-.01.3-.015.307c-.011.24-.016.476-.016.717,0,.409,0,.716-.025,1.028a8.384,8.384,0,0,0,0,.9c.01.235.015.47.01.7L3.05,65l0,.246,0,.246c0,.251-.006.5-.016.742l0,.154-.008.758c0,.1.005.2.01.3.01.167.01.284.01.4-.01.573-.025,1.156-.046,1.729-.02.548-.03,1.137-.03,1.849l.01.241,0,.24a9.971,9.971,0,0,1,.01,1.161A11.848,11.848,0,0,0,3,74.906a15.6,15.6,0,0,1,.071,1.637,13.382,13.382,0,0,0,.031,1.511c.046.5.092,1.089.1,1.7.006.2.006.409.006.619,0,.333,0,.666.015,1l.031.655c.048.852.1,1.842.071,2.8-.01.384-.01.768-.01,1.157v.45c0,.154,0,.307-.006.461l0,.153L3.3,87.2c-.016.292-.031.625-.021.948L3.3,88.6l.01.174,0,.153c.01.323.019.636,0,.941l-.031.973-.015.552a11.635,11.635,0,0,0,.055,1.2l.016.242.016.215c.018.24.033.489.047.732s.014.337.014.439c0,.189,0,.318,0,.441.021.343.01.7,0,1.017l0,.215c0,.093,0,.2,0,.293.006.135.01.236.005.347a5.8,5.8,0,0,1-.071.613A12.3,12.3,0,0,0,3.3,98.91l.051.58.02.255a3.13,3.13,0,0,1,.011.321c0,.1,0,.2.01.308a4.678,4.678,0,0,1,.02.531l.157.168a3.833,3.833,0,0,1,.265.392,1.914,1.914,0,0,1,.224.4,3.471,3.471,0,0,1,.221.339l.119.141a3.809,3.809,0,0,1,.306.388l.2.137.118.062a3.885,3.885,0,0,0,.494.2l.135.021h0a2.1,2.1,0,0,0,.25.056,1.558,1.558,0,0,1,.277.015c.148.031.21.044.27.062.227-.011.412-.02.6-.02a2.458,2.458,0,0,1,.331.025l.246.026a4.11,4.11,0,0,1,.874.071l.141.023a10.634,10.634,0,0,0,1.069.131,2.057,2.057,0,0,0,.251.01c.1,0,.2,0,.3,0a2.83,2.83,0,0,1,.407.051l.185.026c.179.031.364.051.543.067l.135,0,.166.04c.177-.015.346-.025.514-.025a2.318,2.318,0,0,1,.331.02l.149.016c.351-.046.642-.067.908-.077a3.61,3.61,0,0,1,.366.015l.138.016a8.671,8.671,0,0,1,1.169-.087c.168,0,.342.01.511.025l.2.011.209.015c.236,0,.379.01.527.025.175.016.359.021.539.021h.2l.339-.031c.276-.025.511-.046.752-.046.107,0,.219,0,.331.015.425.041.794.062,1.127.072.1-.005.2-.01.3-.01.215,0,.435.01.649.031.262.02.528.03.9.03l.22.006c.159-.011.3-.011.44-.011h0c.107,0,.214,0,.321.01.077,0,.154.006.23.011l.348.025.236.016c.466.02.931.046,1.392.076s.952.067,1.428.108c.353.026.722.041,1.168.041h.271l.206-.016.2-.015c.341-.023.524-.036.711-.041.21,0,.42,0,.629,0h.389c.328-.015.655-.02.981-.025.382-.021.75-.041,1.124-.067.149-.015.3-.036.456-.056a5.269,5.269,0,0,1,.618-.062c.19-.01.358-.01.532-.01.286,0,.573,0,.859.015.338.011.564.016.784.016h.148c.236-.01.471-.01.712-.01.209,0,.419,0,.629,0h.952l.2-.016c.363-.02.711-.041,1.059-.071.466-.052.926-.067,1.274-.072.19-.015.385-.041.575-.067l.174-.025c.194-.031.394-.057.588-.077.473-.046.947-.051,1.4-.056l.334,0c.405-.021.814-.026,1.218-.026.3,0,.6.005.9.01h.6l.3,0c.185,0,.374,0,.559,0s.359-.02.532-.025l.271,0,.405-.026c.4-.031.772-.056,1.14-.056l.676,0H50.6l.271,0,.277-.011c.368-.02.726-.035,1.085-.041l.272-.02.245-.015c.174-.011.348-.016.521-.016.251,0,.476.011.7.026l.159.01c.66.051,1.141.067,1.582.067l.456-.011.327-.01.3-.015c.492-.026.947-.041,1.413-.051s.9-.041,1.322-.1c.373-.056.818-.117,1.268-.153.63-.056,1.274-.062,1.893-.062.3,0,.6,0,.906-.01l.451-.02c.23,0,.46-.016.691-.026l.281-.015c.3-.016.583-.026.87-.026h.164c.168,0,.337,0,.5,0s.338,0,.5,0l.185-.01.184-.01.174-.016c.394-.025.742-.046,1.084-.046a5.66,5.66,0,0,1,.593.026c.721.068,1.445.1,2.151.1h.312c.359-.015.717-.015,1.08-.015h.563c.22,0,.44,0,.655,0,.251-.016.5-.021.742-.021.373,0,.741.016,1.135.051.583.046,1.161.118,1.724.215a8.04,8.04,0,0,0,1.113.128h.148c.333,0,.578.006.824.021.409.031.87.046,1.418.046h.328c.369-.021.742-.026,1.11-.026h.3c.216-.01.435-.015.66-.015a12.536,12.536,0,0,1,1.284.066c.345.042.686.082,1.028.128.369.057.737.1,1.106.144s.748.061,1.157.082l.138.01c.292.01.584.026.876.046.64.051,1.254.1,1.858.1l.625-.01.159-.005.3,0c.216-.01.436-.021.655-.021.082,0,.159,0,.24,0,.123.006.246.016.368.026l.426.026.271.015.276.015.267.011c.245.015.491.03.737.03l.353,0,.468,0,.469,0,.235,0,.369.006c.257.005.492.01.727.01h.245c.154-.012.3-.015.454-.018l.151,0h.2l.343,0c.4-.025.8-.036,1.2-.041l.251-.005h.255c.134,0,.287,0,.445,0,.507,0,1.028.02,1.555.066.359.031.738.041,1.2.041.179,0,.359,0,.533,0,.251-.015.481-.02.711-.02.184,0,.368.01.552.02.277.016.553.021.825.021l.6-.005h.3l.288-.021c.3-.025.573-.041.854-.041l.246-.01a8.155,8.155,0,0,0,.87.036h.153c.155-.01.3-.021.457-.036l.209-.015c.265-.017.49-.031.711-.031.117,0,.24,0,.357.015.149,0,.3.021.445.036.328.036.625.062.917.072l.284-.031c.173-.02.352-.036.526-.046.133,0,.26,0,.393,0h.379l.363,0,.3-.015.456-.021a4.622,4.622,0,0,0,.539-.072l.261-.041c.644-.1,1.171-.179,1.657-.23.235-.025.47-.041.706-.051.384-.02.686-.041.978-.077.507-.066,1.054-.107,1.719-.128.21-.015.415-.036.625-.061l.17-.031c.232-.012.364-.025.5-.025.257-.016.507-.016.758-.016h.45l.3.005c.329-.02.616-.041.872-.077.363-.045.706-.081,1.048-.1a6.909,6.909,0,0,0,.964-.1c.19-.041.369-.087.549-.133a1.7,1.7,0,0,0,.2-.089l.155-.1a1.314,1.314,0,0,0,.155-.113l.119-.145A4.482,4.482,0,0,0,129,101.8l.053-.188c-.01-.189-.03-.373-.056-.563a1.237,1.237,0,0,1,.5-1.17l.052-.29.015-.139.016-.138c.01-.2.03-.4.056-.6l.031-.323.023-.291.028-.349c.015-.26.031-.516.061-.777.016-.122.041-.245.067-.362l.056-.282A9.748,9.748,0,0,0,130,94.671l-.015-.215-.015-.215-.041-.614c-.012-.2-.015-.4-.018-.6l0-.2v-.578c-.015-.262-.036-.529-.061-.8l-.031-.445c-.036-.486-.031-.982-.026-1.463l.006-.214c0-.533-.006-1.065-.016-1.6s-.02-1.064-.015-1.6c0-.389,0-.779,0-1.168l0-.588c0-.353,0-.711,0-1.065l.01-.542c.01-1,0-2.043-.026-3.174-.015-.368-.025-.727-.03-1.095l-.005-.358-.011-.543c-.015-.368-.025-.732-.02-1.1.01-1.193,0-2.278-.031-3.312-.029-.949-.018-1.968.036-3.408.026-.558.041-1.116.051-1.674,0-.184,0-.373,0-.558l.005-.223c.008-.355.014-.656.031-.953.054-1,.068-2.049.041-3.21a18.161,18.161,0,0,1-.015-2.312c.066-.868.117-1.591.117-2.335.006-.819,0-1.638,0-2.457,0-.7-.01-1.289-.01-1.879,0-.475.041-.976.077-1.38l.02-.246.031-.405.031-.388.03-.405.036-.45c.046-.7.072-1.434.092-2.074l.016-.337.01-.369.01-.369.016-.373c.02-.455.035-.916.051-1.377.02-.619.041-1.228.071-1.832.031-.578.062-1.157.1-1.735a14.533,14.533,0,0,0,.02-1.48c-.01-.2-.025-.4-.041-.608l-.02-.289-.01-.194c-.031-.4-.062-.8-.082-1.2a15.45,15.45,0,0,1,.03-1.642l.041-.583c.036-.615.057-1.275.062-1.972V34.22l0-.25,0-.174c.01-.364.015-.727.01-1.091-.02-.328-.056-.651-.092-.974-.026-.2-.046-.4-.066-.608-.051-.524-.067-1.052-.082-1.561l-.006-.266-.015-.389-.01-.384V28.37l0-.159c-.02-.328-.031-.66-.041-.988-.01-.159-.021-.287-.036-.41l-.037-.4c-.024-.336-.03-.6-.03-.868-.02-.288-.061-.57-.107-.877l-.026-.164c-.041-.14-.072-.233-.108-.33l.016-.158.011-.149c-.057-.453-.1-.908-.134-1.363l-.041-.166a8.741,8.741,0,0,0-.158-1.161l-.031-.184c-.067-.359-.123-.651-.2-.943-.021-.063-.047-.125-.072-.181l-.166-.2a1.723,1.723,0,0,1-.224-.3,3.883,3.883,0,0,0-.463-.535l-.21-.185.052.13a.81.81,0,0,0-.236-.288l-.261-.236a2.3,2.3,0,0,0-.223-.155,2.939,2.939,0,0,0-.3-.1l-.17-.041h-.092a1.173,1.173,0,0,1-.327-.031q-.192-.054-.369-.093l-.18-.025-.141-.022-.163-.009h-.241l-.158.005-.2,0-.145.01a3.8,3.8,0,0,0-.475-.02l-.358.005h-.368l-.236,0c-.23,0-.455,0-.685-.015-.174-.016-.333-.021-.487-.021l-.153,0c-.144,0-.287,0-.426,0l-.23.016c-.107,0-.21,0-.317,0-.081,0-.168,0-.25-.011-.235,0-.476-.03-.716-.056l-.266-.031c-.164-.015-.328-.03-.487-.041-.22-.015-.435-.025-.645-.025Z"/>
      </g>
    </g>
  </g>
</svg>
