<svg xmlns="http://www.w3.org/2000/svg" viewBox="0 0 684.1 604.89"><defs><style>.cls-1{fill:#000000;}</style></defs><title>Asset 3</title><g id="Layer_2" data-name="Layer 2"><g id="Draw_Layer" data-name="Draw Layer"><path class="cls-1" d="M360.61,0H360c-.87,0-1.75,0-2.62.09S355.8.17,355,.19h-.93l-2.23,0c-.79,0-1.56,0-2.32,0h-.22c-2,0-4,.1-5.9.18l-2,.09c-2.13.09-4.34.2-6.52.2h-.84l-1.2,0c-.57,0-1.15,0-1.73,0-.86,0-1.57,0-2.23.09-1.68.16-3.38.48-5,.79l-.62.12a60.9,60.9,0,0,1-7.33.55,72.08,72.08,0,0,0-7.82.62c-1.8.24-3.64.39-5.42.53-1.39.11-2.79.22-4.18.37-2.09.23-4.2.65-6.24,1.05l-2.58.5-1.81.27c-2.12.32-4.32.65-6.46,1.1-.76.16-1.52.36-2.28.56l-1.17.3-2.6.62L274,8.36c-1.95.47-3.94.85-5.87,1.21l-1.18.22c-1.36.26-2.49.47-3.64.75-1,.24-2,.52-3,.79l-1.45.4c-2.44.66-5.1,1.25-8.37,1.85-1.27.23-2.76.51-4.26.85a34.42,34.42,0,0,0-3.89,1.22l-.53.19c-1.28.45-2.59.85-3.86,1.25s-2.79.86-4.17,1.36a64.73,64.73,0,0,0-9.39,4.27c-2.09,1.15-4.14,2.27-6.26,3.3-2.32,1-4.73,1.91-7.05,2.79-1.25.48-2.49,1-3.73,1.44-3.77,1.48-7.47,2.91-11.27,4l-.67.2c-1.61.47-3.28,1-4.89,1.5a61.89,61.89,0,0,0-6.62,2.77c-1.81.86-3.6,1.75-5.39,2.65s-3.79,1.89-5.71,2.8l-2.32,1c-1.48.65-3,1.3-4.42,2a63.15,63.15,0,0,0-7.11,3.93l-2.46,1.56c-1.32.84-2.63,1.69-4,2.5-1.5.91-3.09,1.75-4.63,2.55-.79.42-1.59.84-2.38,1.28a59.28,59.28,0,0,0-7.12,4.48c-2.26,1.68-4.69,3.48-7.15,5.25-4.35,3.13-8.29,6.15-12,9.22l-1.72,1.4c-.93.76-1.87,1.52-2.79,2.29-1.34,1.12-2.61,2.32-3.77,3.47-1.92,1.88-4,3.75-6.14,5.57a87.56,87.56,0,0,0-7.26,6.46c-2.22,2.27-4.08,4.16-6.06,6.09l-1.24,1.19c-.52.49-1,1-1.54,1.49a25,25,0,0,0-2.08,2.41l-.38.47c-.77,1-1.53,2-2.29,3-1.12,1.46-2.27,3-3.47,4.4A102.93,102.93,0,0,0,74,124.59c-.89,1.31-1.7,2.68-2.43,4l-1.26,2.16-1.26,2.17c-.71,1.25-1.45,2.48-2.19,3.72l-.24.39c-.46.79-.92,1.57-1.37,2.36s-.75,1.3-1.13,1.95l-.83,1.42c-1.15,2-2.33,4-3.55,5.93l-.36.58c-.71,1.13-1.45,2.29-2.07,3.52a42.19,42.19,0,0,0-1.93,4.8l-.32.9.12-.3c-.33.91-.66,1.82-1,2.74-.61,1.65-1.14,3-1.68,4.18-.35.77-.71,1.53-1.07,2.29-.49,1-1,2.08-1.45,3.14-.62,1.48-1.13,3-1.63,4.54-.19.57-.38,1.15-.58,1.73L47,179.26c-.27.83-.55,1.66-.83,2.49-.74,1.88-1.63,3.72-2.5,5.5l-.25.53c-.68,1.4-1.17,2.49-1.57,3.55S41,193.79,40.56,195l-.27.81c-.53,1.6-.95,3.27-1.36,4.89-.23.9-.45,1.81-.7,2.7-.63,2.3-1.4,4.53-2.13,6.6l-.62,1.68c-.77,2.07-1.56,4.22-2.29,6.35-.5,1.48-1,3-1.46,4.46-.39,1.22-.78,2.45-1.19,3.66a63.33,63.33,0,0,0-2.14,8.31c-.37,1.88-.68,3.81-1,5.68-.17,1.06-.34,2.12-.52,3.17-.21,1.22-.4,2.44-.6,3.65-.28,1.77-.57,3.54-.89,5.29-.53,2.88-1,5.83-1.26,8.76-.63,6-.95,12.2-1.26,18.16l-.05,1-.07,1.21c-.11,2.21-.23,4.49-.29,6.73-.06,2.55-.05,5.3,0,8.4,0,1.82.14,3.67.23,5.46.05.91.09,1.81.13,2.72.14,3,.19,6,.22,8.47,0,1.46.05,2.92.09,4.38,0,1.29.06,2.57.08,3.86a68.47,68.47,0,0,0,.43,7.18c.5,4.43,1.29,8.9,2,13.23l.43,2.45.18,1.17c.42,2.71.85,5.51,1.44,8.25.43,2,.93,4.1,1.41,6.09.23,1,.47,2,.7,3,.79,3.34,1.45,6.77,2.09,10.09.49,2.56,1,5.22,1.57,7.81,1.42,6.53,2.61,12,4,17.59a119.39,119.39,0,0,0,5.3,17c1.75,4.28,3.22,7.72,4.63,10.85v0l0-.07.27.65c1.35,3,2.66,5.64,4,8.25.79,1.48,1.6,3,2.41,4.44l1.89,3.48c.86,1.61,1.69,3.29,2.48,4.91l1.26,2.56c.42.83.88,1.65,1.33,2.47.26.46.51.92.76,1.39.64,1.17,1.28,2.34,1.93,3.51l.29.53c1.2,2.18,2.55,4.52,4.23,7.37.79,1.34,1.61,2.66,2.43,4S72.28,472,73,473.22c1.19,2,2.36,3.95,3.53,5.93l1.13,1.92a85.53,85.53,0,0,0,4.94,7.65c2.46,3.3,5.28,6.39,8,9.38,1.17,1.28,2.34,2.56,3.48,3.85,1.46,1.67,3,3.3,4.51,4.88l1.52,1.6c2.09,2.22,4.21,4.32,6.21,6.29s4,4,6,6l.51.51c1.94,2,4,3.93,6.63,6.21s4.8,4.18,7,6l3,2.46c1.25,1,2.5,2,3.73,3s2.27,1.93,3.4,2.92,2.33,2,3.52,3c2.33,1.93,4.73,3.73,6.76,5.23,1.12.82,2.21,1.67,3.3,2.51s2.29,1.79,3.47,2.65l2.09,1.54c1.87,1.4,3.81,2.83,5.79,4.15,2.13,1.41,5,3.24,7.89,4.84,1.25.69,2.51,1.34,3.77,2s2.52,1.31,3.77,2c.46.25.92.52,1.37.78.69.39,1.37.78,2.06,1.14,1.06.56,2.17,1,3.25,1.49l1.2.52c2.07.91,4.11,2,6.09,3l.92.49c3,1.59,6.31,3.17,10.26,5,1.33.6,2.73,1.14,4.07,1.66.84.32,1.68.65,2.5,1,1.85.75,3.81,1.49,6,2.24,1,.38,2,.79,3.06,1.24,1.3.57,2.65,1.16,4,1.64,1.61.57,3.29,1,4.92,1.44.87.22,1.75.45,2.62.7l1.54.45c2,.59,4.16,1.2,6.27,1.67,2.33.51,4.66,1.26,6.91,2l.75.24c2.1.81,4.18,1.75,6.19,2.66,1.48.67,3,1.36,4.52,2a3.26,3.26,0,0,0,1.18.23l.45,0c0,.13,0,.28,0,.42a3.26,3.26,0,0,0,3.21,3.11h.13a3.25,3.25,0,0,0,3.08-3.34c-.2-4.56-.29-8.34-.28-11.9,0-1.88,0-3.61,0-5.3q0-1.15-.09-2.31c0-1-.09-2-.09-3s0-2.32,0-3.48c0-.55,0-1.1,0-1.65s0-1.2,0-1.81c0-1.26,0-2.52.07-3.77.16-4,.29-7.58.27-11.18v-.65c0-2.14,0-4.35.12-6.52.11-.92.23-1.83.35-2.75.1-.74.2-1.49.29-2.24,0-.39.09-.79.13-1.18s.09-.87.15-1.3.08-.57.13-.86a12.58,12.58,0,0,0,.23-2.46,4.3,4.3,0,0,0-2.67-3.68,6.18,6.18,0,0,0-2.78-.54q-.45,0-.9,0a34.43,34.43,0,0,0-4.63.67l-.74.14c-2.56.41-5,.68-7.29.83h-.24a20.9,20.9,0,0,0-3.3.39c-.57.13-1.18.29-1.95.53l-.8.25c-.93.29-1.88.59-2.85.82a20.77,20.77,0,0,1-2.67.18c-.42,0-.85,0-1.28,0l-1.89-.15c-1.09-.09-2.19-.17-3.28-.22h-.59a29.6,29.6,0,0,0-3.28.25c-.54.06-1.08.13-1.62.17s-.91.06-1.37.06c-1,0-2-.07-2.91-.16l-.37,0c-2.11-.25-4.29-.5-6.39-.94a65.13,65.13,0,0,1-6.91-1.85,27.47,27.47,0,0,1-5-2.78,54.81,54.81,0,0,1-8.49-7.32,77,77,0,0,1-5.6-8.91c-.72-1.3-1.43-2.64-2.11-4a4.08,4.08,0,0,0-.39-.75c-.76-1.52-1.53-3.11-2.35-4.88l-.36-.83c-1-2.26-2-4.6-3.06-6.88-.54-1.16-1.1-2.31-1.66-3.45s-1-2.13-1.55-3.21-1-2.24-1.44-3.37-.92-2.16-1.39-3.24c-.67-1.51-1.44-3-2.18-4.43-.57-1.1-1.16-2.25-1.7-3.39-.41-.95-.8-1.92-1.2-2.88a56.69,56.69,0,0,0-3.89-8.28,41.4,41.4,0,0,0-2.82-3.89l-.89-1.14c-1.5-2-2.9-3.67-4.29-5.24-1.18-1.34-2.42-2.7-3.69-4l-.13-.13c-1.23-1.3-2.5-2.65-3.84-3.87a55.53,55.53,0,0,0-4.67-3.86c-1.09-.79-2.22-1.55-3.31-2.28-.74-.5-1.49-1-2.23-1.52l.69.51-.59-.43c-.62-.42-1.27-.86-1.86-1.35a36.82,36.82,0,0,1,1.81-3.47l.06-.08c.12-.08.24-.16.37-.23a5.61,5.61,0,0,1,.62-.18,11.52,11.52,0,0,1,1.18,0h.5a15.07,15.07,0,0,1,2.26.42,31.73,31.73,0,0,1,4.24,2.25c1.11.84,2.15,1.73,3.3,2.72a44.67,44.67,0,0,0,3.82,2.86l1,.72c.65.47,1.29.95,1.95,1.4.49.35,1,.68,1.49,1l.8.52a85.29,85.29,0,0,1,8.23,6.93c1,.93,1.89,2,2.77,3,.43.5.87,1,1.32,1.49s1.16,1.24,1.74,1.85c.79.82,1.6,1.66,2.36,2.53l1.13,1.29c2.29,2.62,4.66,5.32,7.15,7.85,1.55,1.58,3.07,3.12,4.66,4.56a36.8,36.8,0,0,0,5.7,4.15,47.46,47.46,0,0,0,4.43,2.34c1.45.69,3.37,1.58,5.37,2.4a96.73,96.73,0,0,0,11.2,3.75c1.75.47,3.31.83,4.77,1.09,1.06.19,2.13.32,3.18.45.84.1,1.67.21,2.51.34l1.8.29c1.31.22,2.67.45,4,.61,1.57.17,3.16.26,4.7.34l1.29.07c1.73.19,3.47.49,5.16.78l.87.15c2.49.43,5,.67,7.05.85,1.11.12,2.23.21,3.35.29l.75,0a14,14,0,0,0,1.81-.13,20.63,20.63,0,0,0,2.63-.43,8,8,0,0,0,3.19-1.94,9.36,9.36,0,0,0,1-1.11,13.43,13.43,0,0,0,1.9-3.51c.66-1.56,1.4-3.05,2-4.37.4-.81.79-1.63,1.19-2.44.94-2,1.92-4,2.95-5.94a81,81,0,0,1,4.33-7.6c1-1.31,2-2.73,3.16-4.47s2.7-3.6,4.15-5.28a49,49,0,0,1,4.05-4.32,29,29,0,0,1,2.89-1.78l.33-.19a30.58,30.58,0,0,0,2.6-1.7l1.17-.8a59.23,59.23,0,0,1,6.11-3.48l.59-.25.58-.24.13-.06a15.37,15.37,0,0,1,1.64-.62,7.1,7.1,0,0,0,1.45-.27,4.54,4.54,0,0,0,2.52-6.71l-.4-.47-.38-.46-.28-.24a3.08,3.08,0,0,0-.43-2.39,3,3,0,0,0-1.9-1.32l-1.12-.24c-1.62-.33-3.29-.68-4.9-1.1-1.21-.32-2.41-.7-3.57-1.07l-2.09-.65a53.78,53.78,0,0,0-6.46-1.36c-1.52-.25-3.09-.52-4.61-.87l-1-.23c-1.32-.32-2.69-.64-4.06-.88-.63-.12-1.26-.22-1.9-.33-1.37-.22-2.79-.46-4.17-.77-1.63-.36-3.4-.84-5.58-1.49-.79-.24-1.57-.5-2.35-.76-1.14-.38-2.32-.77-3.51-1.08s-2.34-.55-3.49-.79l-1.35-.3a49.45,49.45,0,0,1-4.87-1.33A111.19,111.19,0,0,1,236,414.27a114.47,114.47,0,0,1-11.17-6.44l-1.2-.87c-2.4-1.72-4.88-3.51-7.22-5.4-3.22-2.59-6.32-5.41-9.05-7.89l-1-.91c-1-.95-2.12-1.94-3.23-2.85l-1.52-1.22c-1.07-.85-2.17-1.73-3.21-2.65a74.71,74.71,0,0,1-7.29-7.5l-2.17-2.79c-.68-.89-1.37-1.78-2.06-2.66-1.27-1.62-2.63-3.2-3.94-4.73l-1.42-1.67c-1-1.27-2.13-2.59-3.08-4a60.15,60.15,0,0,1-3.5-5.88c-1.71-3.25-3.26-6.54-5.05-10.47a116.22,116.22,0,0,1-6.52-19.22c-1.71-6.89-3.07-12.69-4.13-18.59-.26-1.72-.44-3.11-.57-4.38-.15-1.43-.23-2.88-.31-4.29l-.06-.93a77.71,77.71,0,0,1-.07-9.51,110,110,0,0,1,2.2-12.43l.1-.46c.94-4.12,1.91-8.38,3.26-12.44,1-2.69,1.78-4.93,2.48-7.33l.44-1.56c.55-1.94,1.12-3.94,1.79-5.88a30.53,30.53,0,0,1,1.7-3.81,32.88,32.88,0,0,1,1.74-2.86c1.58-2.12,3.3-4.14,4.78-5.83l1-1.19c1.17-1.32,2.38-2.67,3.44-4.12,1.64-2.23,3.15-4.17,4.62-5.93l.37-.45a37.77,37.77,0,0,1,3.24-3.59c.5-.34,1-.66,1.53-1l.49-.31c.3-.18.61-.37.91-.58a7.78,7.78,0,0,0,2.43-2.47,5.54,5.54,0,0,0,.6-4.83,14.24,14.24,0,0,0-.74-1.58l-.33-.66-.66-1.45a14.65,14.65,0,0,1-.62-2.31l-.06-.35-.06-.35c-.27-1.79-.48-3.61-.69-5.37-.18-1.55-.36-3.1-.58-4.64-.56-3.86-.89-6.83-1.07-9.63-.12-1.85-.11-3.73-.1-5.55,0-1.4,0-2.85,0-4.28s-.13-2.84-.22-4.26l-.06-1.06a37.67,37.67,0,0,1,.08-5.14l0-.4,0-.41c.35-3.32,1-6.66,1.62-9.9.21-1.09.42-2.19.62-3.29a53,53,0,0,1,1.78-6.63c.29-.9.55-1.82.8-2.74s.44-1.59.69-2.38.7-1.56,1.06-2.3c.25-.51.5-1,.73-1.53a34.37,34.37,0,0,1,2.22-4.16,16.37,16.37,0,0,1,1.54-1.47c.26-.19.53-.37.8-.54l1,0,.77,0c.55,0,1.12-.11,1.66-.19l.53-.07a21.77,21.77,0,0,1,2.75-.21h.33c1.3.17,2.61.36,3.9.57a26.87,26.87,0,0,1,3.58.8c.73.3,1.56.64,2.35,1,.58.28,1.13.61,1.69.94s1,.59,1.53.85a19.21,19.21,0,0,0,3.85,1.42l.68.18c.57.14,1.14.29,1.71.46s1.29.54,1.92.84,1,.52,1.52.79c.28.16.56.32.85.47l.44.23c1.41.73,2.75,1.43,4.06,2.27a27.41,27.41,0,0,0,4.14,2,27.63,27.63,0,0,1,4.44,2.34l1.08.81a34.14,34.14,0,0,0,4,2.76c.42.24.85.44,1.28.65l.9.45a19.67,19.67,0,0,1,2.12,1.27l-.11-.1c.7.5,1.42,1,2.15,1.46l2,1.32,1.24,1c.57.46,1.14.91,1.73,1.33.75.53,1.55,1,2.31,1.48.54.34,1.09.67,1.62,1a57.54,57.54,0,0,1,4.48,3.89c.38.36.76.72,1.15,1.07l.46.42a5.65,5.65,0,0,0,2.47,1.28,7.42,7.42,0,0,0,1.13.1,8.89,8.89,0,0,0,1.55-.18,5.08,5.08,0,0,0,2-.89l.17-.12a3.21,3.21,0,0,1,.61-.4c.54-.27,1.07-.57,1.6-.88s.76-.44,1.15-.65a19.56,19.56,0,0,1,2.22-.6c1.8-.24,3.6-.36,5.12-.46.78-.05,1.56-.07,2.4-.07,1.13,0,2.35,0,3.73.14s2.35.12,3.42.12c.86,0,1.68,0,2.5-.08a56.15,56.15,0,0,0,6-.78,43.6,43.6,0,0,1,5.57-.34l1.38,0c.88,0,1.75-.08,2.63-.13,1.14-.07,2.32-.15,3.48-.15l1,0,.6.07c2.36.27,4.79.55,7.21.61,2.2.06,4.52.19,7.54.42l-.22,0-.16,0c1.6.15,3.28.23,5.45.28,1.6,0,3.07.11,4.5.2l.86.06c1.21.09,2.46.19,3.69.19h.49l1.75,0q1.17,0,2.34.06l.76.09a41.42,41.42,0,0,0,4.21.37h.16c.6,0,1.21-.05,1.81-.11s1.36-.13,2-.13h.11c1,0,1.94.1,2.88.18.66.06,1.31.12,2,.15s1.25.06,1.88.07l2,.08c.72.09,1.43.17,2.14.31q.72.14,1.44.3c.43.09.85.19,1.28.27a32.82,32.82,0,0,0,4.63.44l.65,0c.61.08,1.22.18,1.82.28l.66.1c1.31.2,2.61.32,4.15.43a16,16,0,0,1,2.93.58l.88.32.88.31.15.06a13.29,13.29,0,0,0,1.66.51,24.74,24.74,0,0,0,2.53.34l1.25.13a20.56,20.56,0,0,1,2.21.44c.58.14,1.15.28,1.73.38a30.84,30.84,0,0,0,4.29.31h.3c.26.05.53.11.79.18l.84.2a16.42,16.42,0,0,0,2.5.25l.77,0h.32a9,9,0,0,0,1.62-.19l.23-.05a5.84,5.84,0,0,0,1.51-.56l.42-.21a4.64,4.64,0,0,0,.7-.45,6.11,6.11,0,0,1,.84-.53l.3-.18a21.48,21.48,0,0,0,4.52-3.9c.23-.23.44-.48.66-.72.44-.48.87-1,1.34-1.42s.8-.75,1.22-1.1a52.62,52.62,0,0,1,8.83-5.79,72.4,72.4,0,0,1,7.23-2.6,49.59,49.59,0,0,0,7.25-3.14l1.51-.74c.63-.26,1.27-.5,1.91-.74s1.34-.5,2-.78,1.17-.5,1.75-.76c.76-.34,1.53-.68,2.31-1,1.56-.62,3.22-1.15,4.68-1.62s2.91-1,4.32-1.53l.49-.18,1.12-.42c1.12-.42,2.24-.83,3.36-1.29s2.05-.87,3.07-1.32l1.28-.57a36.47,36.47,0,0,1,8.38-2.17c1.31-.18,2.69-.34,4.22-.47l.45,0c1.14-.11,2.33-.22,3.49-.22h.21l.93.13c.77.11,1.53.21,2.31.28q.38,0,.75,0h1.42q.35.08.69.12l.79.1.85.11c.17,0,.33,0,.49.09s.5.27.75.42c.47.35.92.72,1.36,1.11a10.46,10.46,0,0,1,.31,1.37,14.22,14.22,0,0,0,.43,2c.08.24.14.49.21.74s.17.62.27.92a20.87,20.87,0,0,1,.66,2.45l.08.41.07.43a66.49,66.49,0,0,1,.72,8.73c0,1.47.13,3,.21,4.42.11,1.85.22,3.76.24,5.64,0,3.14.17,6.24.38,9.93a80.35,80.35,0,0,1,.19,9.46c-.05.58-.1,1.15-.16,1.73-.12,1.29-.31,2.59-.49,3.84l-.24,1.64c-.09.73-.19,1.46-.28,2.2-.14,1.17-.29,2.35-.47,3.52a34.35,34.35,0,0,0-.47,6.75,53.19,53.19,0,0,1,0,5.33c-.07.42-.16.84-.24,1.26s-.17.8-.24,1.21-.12.64-.18.95l-.12.62a13.75,13.75,0,0,0-.18,1.6c0,.1,0,.2-.07.3a8.17,8.17,0,0,0-.2,1.84,5.86,5.86,0,0,0,.32,2.13,9.23,9.23,0,0,0,2.12,3.27c.53.56,1.12,1.1,1.7,1.61s1.11,1,1.62,1.54a51.52,51.52,0,0,1,3.44,5.17c.44.74.88,1.48,1.33,2.22.84,1.4,1.71,2.84,2.51,4.29,1,1.82,1.89,3.73,2.75,5.57l.64,1.37c.38.81.76,1.61,1.15,2.41.53,1.09,1.06,2.19,1.57,3.29a65.81,65.81,0,0,1,2.53,6.42c.76,2.37,1.47,4.78,2.16,7.12l.32,1.09a155.94,155.94,0,0,1,3.47,15.45c.1.61.2,1.22.31,1.83.26,1.7.43,3.44.59,5.12.06.61.12,1.23.19,1.84.16,1.58.3,3.15.45,4.72.09,1,.18,2,.28,3.06s.2,2,.31,2.95c.15,1.44.31,2.89.43,4.33a49.65,49.65,0,0,1,0,7.72c-.34,3.6-.72,6.56-1.18,9.32-.24,1.41-.53,2.84-.81,4.22l-.2,1-.18.9c-.26,1.37-.54,2.78-.94,4.14-.46,1.57-1,3.15-1.49,4.67-.59,1.77-1.2,3.59-1.7,5.41-.34,1.21-.63,2.46-.91,3.66-.34,1.5-.7,3-1.16,4.55-.39.88-.87,1.74-1.33,2.57-.21.38-.42.75-.62,1.13s-.46.9-.67,1.36-.33.71-.51,1.05a16.93,16.93,0,0,1-1.12,1.86c-.92,1.27-1.81,2.56-2.7,3.85l-1,1.47c-.6.86-1.16,1.73-1.72,2.61-.41.65-.82,1.29-1.24,1.93-.6.81-1.23,1.6-1.85,2.4s-1.33,1.81-1.94,2.72l-.41.59c-1.47,2-3.12,4.08-5.21,6.48-.91,1.06-1.95,2.25-3.06,3.35-.68.68-1.42,1.32-2.14,1.94l-.81.72c-1.28,1-2.29,1.79-3.27,2.46s-2.1,1.34-3.14,1.95l-1.51.91c-1.4.86-2.77,1.84-4.08,2.8l-1,.7c-1.09.78-2.16,1.58-3.23,2.38l-1.66,1.23c-.6.44-1.18.9-1.76,1.36-.83.66-1.69,1.34-2.59,2-1.39.93-2.84,1.78-4.24,2.61l-.42.24c-3.35,2-7,3.88-11.13,5.81-1.69.79-3.33,1.73-4.92,2.65-1.41.81-2.87,1.65-4.35,2.38l-1.22.55c-2,.86-3.77,1.67-5.36,2.48l-.47.24-2.62,1.31a4.83,4.83,0,0,0-.69.33,21.91,21.91,0,0,1-3.56,1.23c-.86.1-1.7.12-2.59.15h-.32a22.56,22.56,0,0,0-3.49.49l-.48.09a35.6,35.6,0,0,0-4.45.88,19.23,19.23,0,0,0-3.13,1.33l-.67.33a20.66,20.66,0,0,1-3.88,1.09c-1,.14-2,.32-2.94.5l.22,0c-.78.15-1.56.32-2.32.48l-1.32.28c-.59.13-1.17.28-1.75.43s-1,.27-1.5.38c-1.13.17-2.31.34-3.49.59-.65.14-1.28.31-1.92.48l-.79.2c-.53.07-1.05.15-1.58.27a5.32,5.32,0,0,0-.77.25l-.46.17-.51.09c-.53.07-1.05.15-1.56.27a6.86,6.86,0,0,0-1.46.54,11,11,0,0,1-1.28.36l-.38.09a3.9,3.9,0,0,0-1.88,1.1,4.65,4.65,0,0,0-2.3.78,4.72,4.72,0,0,0-2.19,4.15,4.67,4.67,0,0,0,2.52,4,7.12,7.12,0,0,0,1.25.45c.21.1.42.22.63.33.63.55,1.24,1.15,1.83,1.74l.59.59c1.06,1,2,2.12,2.71,2.95l.84,1c.61.75,1.25,1.51,1.92,2.22s1.37,1.34,2.06,2l1.15,1.07c1.46,1.39,3.38,3.25,5.19,5.3l.66.76c.61.7,1.24,1.42,1.9,2.09s1.42,1.47,2,2.12a42.84,42.84,0,0,1,2.73,4.32l.43.75q1.52,2.6,3,5.23c.57,1,1.1,2.06,1.62,3.08l1,1.93c.76,1.43,1.63,3.05,2.43,4.66a37.42,37.42,0,0,1,1.39,4.11c.52,1.8,1.07,3.45,1.68,5.05A42.34,42.34,0,0,1,433,495l.43,1.67c.28,1.09.56,2.19.86,3.28.42,1.54.92,3.12,1.51,4.82.38,1.1.68,2.24,1,3.34l.2.77c.74,2.73,1.49,5.67,2,8.6q.42,3,.83,6.06c.15,1.08.27,2.16.39,3.24l.07.65c.11,1,.12,2,.14,2.92,0,.41,0,.82,0,1.23.07,2.17.14,4.33.23,6.5,0,.85.08,1.7.13,2.56.08,1.62.17,3.31.2,5,0,1.33,0,2.67.05,4,0,1.1,0,2.21,0,3.32,0,2.78.22,5.47.38,7.75a48.28,48.28,0,0,1,0,5c0,.59,0,1.18-.05,1.77q0,1.41,0,2.82c0,1.51,0,3.07-.07,4.6-.2,1.71-.55,3.43-.89,5.09-.13.65-.27,1.31-.39,2a30.62,30.62,0,0,0-.49,3.61,9.31,9.31,0,0,0,0,1.58,7.2,7.2,0,0,0,.85,2.73,5.09,5.09,0,0,0,1.94,1.78,5.31,5.31,0,0,0,2.45.71l.29,0a10.16,10.16,0,0,0,3.61-1.07A11.14,11.14,0,0,0,450.5,590l.42-.32a14.45,14.45,0,0,1,2.13-1.3c.6-.25,1.19-.51,1.79-.78s1.5-.57,2.23-.83l1.31-.49c1.66-.62,3.25-1.34,4.74-2,.64-.29,1.29-.56,1.94-.83,1.28-.54,2.6-1.09,3.86-1.72.87-.44,1.71-.94,2.53-1.43s1.61-1,2.45-1.39c1.26-.54,2.49-1.09,3.65-1.73.45-.25.9-.51,1.34-.78.72-.42,1.46-.86,2.22-1.24.93-.39,1.87-.75,2.81-1.11l.16-.06a42,42,0,0,0,5.17-2.49c.49-.27,1-.57,1.43-.87l.58-.37a21.45,21.45,0,0,1,2-1l1.38-.66c.81-.39,1.62-.77,2.42-1.17a74.46,74.46,0,0,0,7.17-4.32c2-1.32,4.12-2.69,6.28-3.85.62-.33,1.26-.65,1.89-1l1.46-.73a40.91,40.91,0,0,0,3.67-2.2c1.56-1,3.11-2.17,4.61-3.26,1-.78,2.11-1.55,3.18-2.3s2.42-1.53,3.64-2.23,2.21-1.27,3.26-2a74.17,74.17,0,0,0,6.51-5.13l.86-.73c3-2.51,5.79-5.09,8.67-7.73s5.67-5.46,8.78-8.87c2.56-2.8,5.19-5.68,7.68-8.59,1.18-1.37,2.56-3,3.9-4.74s2.78-3.77,4-5.56c2.11-2.92,4.24-5.77,6.33-8.47,1.84-2.36,3.54-4.87,5.19-7.3l1-1.51c.88-1.21,1.78-2.4,2.68-3.59.75-1,1.5-2,2.23-2.95.59-.8,1.19-1.59,1.78-2.38,1.29-1.72,2.63-3.49,3.86-5.29A150.11,150.11,0,0,0,604.6,458c2-3.8,4-7.68,5.91-11.44l1.81-3.54c.46-.91.93-1.8,1.4-2.7.93-1.77,1.89-3.6,2.78-5.44,1-2.11,1.9-4.35,2.74-6.51l.72-1.86c1.16-2.94,2.13-5.91,3-8.68.75-2.42,1.43-4.87,2-7.29.81-3.43,1.85-6.86,2.85-10.18.56-1.85,1.12-3.71,1.65-5.57.57-2,1.08-4.16,1.56-6.2l.47-2c.29-1.2.6-2.4.91-3.6.37-1.42.74-2.84,1.07-4.28.48-2,1.08-4.73,1.47-7.46.17-1.2.29-2.43.41-3.62s.24-2.41.41-3.61c.36-2.54.87-5.09,1.36-7.56.38-1.89.77-3.84,1.09-5.77s.52-4.05.7-6l.14-1.46v-.13q.33-3.48.65-6.94l.19-1.84c.25-2.4.51-4.89.7-7.34l.08-.9c.09-.93.18-1.87.26-2.82s.19-1.83.29-2.74c.18-1.65.37-3.36.5-5.05s.22-3.51.3-5.22c.05-1,.1-2,.16-3.07.12-2.05.22-4.1.33-6.16l.12-2.57.11-2c.13-2.24.26-4.56.28-6.85a151.25,151.25,0,0,0-1.14-17.07c-.17-1.61-.32-3.21-.47-4.82-.13-1.45-.27-2.89-.42-4.33-.12-1.2-.29-2.4-.46-3.59-.22-1.56-.44-3.17-.57-4.77-.09-1.27-.16-2.54-.23-3.82-.09-1.67-.18-3.4-.34-5.09-.14-1.44-.29-2.76-.46-4.05-.14-1.14-.35-2.29-.55-3.4l-.16-.89c-.59-3.5-1.11-6.2-1.7-8.74-.22-.94-.51-1.89-.79-2.8-.14-.44-.27-.88-.4-1.31l-.09-.3c-.35-1.22-.71-2.44-1-3.67l-.16-.62c-.57-2.24-1.15-4.55-1.83-6.78q-1.12-3.74-2.31-7.44c-.73-2.29-1.52-4.6-2.29-6.83l-.5-1.47c-.89-2.61-2-5.41-3.32-8.55a102.4,102.4,0,0,0-4.68-9.17c-1.49-2.68-3.09-5.54-4.81-8.36-.74-1.22-1.52-2.42-2.29-3.62s-1.58-2.45-2.34-3.7c-1.93-3.2-3.46-5.84-4.82-8.32L604,154.4c-1.16-2.13-2.36-4.33-3.7-6.42-1.1-1.72-2.34-3.38-3.54-5-.63-.84-1.26-1.68-1.87-2.54-1.07-1.5-2.12-3-3.14-4.55-.54-.81-1.09-1.62-1.64-2.42a77,77,0,0,0-6.24-7.81l-1.39-1.55c-1.26-1.39-2.55-2.82-3.79-4.28-1.68-2-3.51-4-5.59-6.07-1.06-1.07-2.14-2.11-3.22-3.16s-1.93-1.86-2.87-2.81c-1.77-1.78-3.54-3.62-5.25-5.4l-.74-.78c-1.62-1.69-3.37-3.3-5.07-4.86l-.7-.65-7-6.44-5.35-5c-6.56-6.08-13.33-12.36-20.22-18.29-1.72-1.48-3.06-2.58-4.34-3.57-1.65-1.28-3.39-2.5-5.08-3.67L513,59c-3-2.21-5.9-4.65-8.44-6.81a87.53,87.53,0,0,0-10.26-7.54c-.94-.58-1.92-1.13-2.87-1.66l-1.87-1.07c-1.5-.89-3.06-1.83-4.76-2.9a45.74,45.74,0,0,0-9.36-4.09l-.19-.07a53.43,53.43,0,0,1-5.81-2.64c-1.82-1-3.64-2-5.4-3l-.9-.51a136.83,136.83,0,0,0-12.54-6.52c-1.25-.55-2.52-1.06-3.78-1.58-.8-.32-1.6-.64-2.4-1-1.93-.8-3.84-1.73-5.68-2.63l-.43-.2A46.12,46.12,0,0,0,431.11,14c-.72-.22-1.45-.41-2.18-.61-1.27-.35-2.6-.71-3.88-1.14-1.63-.63-3.25-1.37-4.81-2.09l-1.92-.87C417.25,8.76,416.1,8.36,415,8l-.65-.23-2.5-.88-.9-.31c-2.37-.83-4.38-1.48-6.43-2a48.34,48.34,0,0,0-6.69-1.07,54.85,54.85,0,0,1-6.64-1.18c-.67-.15-1.33-.33-2-.5A31.8,31.8,0,0,0,385,.94a36.11,36.11,0,0,0-4-.3h-.35c-1,0-2,0-3,0h-.32l-1.2,0c-.79,0-1.57,0-2.36,0h-.35c-1.3,0-2.6-.1-3.83-.19L366.27.29l-.65,0-.31,0,.17,0C363.54.07,362,0,360.61,0Z"/><path class="cls-1" d="M37.5,24.72A52.31,52.31,0,0,0,30,25.9a54.6,54.6,0,0,0-7.38,2.57,45.57,45.57,0,0,0-6.17,3.09c-.86.53-1.67,1.15-2.48,1.74-1.17.85-2.31,1.77-3.4,2.72a31.6,31.6,0,0,0-5,5.78,29.64,29.64,0,0,0-3.21,6.63,35.75,35.75,0,0,0-1.7,6.34A37.24,37.24,0,0,0,0,62.44a42.81,42.81,0,0,0,1,7.41,24.34,24.34,0,0,0,1.1,3.77A24.76,24.76,0,0,0,5,78.83c1,1.47,2.18,2.92,3.35,4.29A29.07,29.07,0,0,0,12.6,87c.71.57,1.45,1.1,2.19,1.62a18.05,18.05,0,0,0,3.84,2,24.84,24.84,0,0,0,9.44,1.55c1,0,2-.07,3.05-.16A56.1,56.1,0,0,0,38.19,91a46.32,46.32,0,0,0,7.39-2.52,21.17,21.17,0,0,0,7.77-5.39,41.48,41.48,0,0,0,3-3.85,26,26,0,0,0,2.09-4.19,49,49,0,0,0,2.42-7.41,42.17,42.17,0,0,0,1.22-7.33,36.25,36.25,0,0,0-.16-6.75A44.3,44.3,0,0,0,60.53,46c-.18-.63-.39-1.26-.62-1.87a26,26,0,0,0-1-3.21,48,48,0,0,0-3.12-6.85,30.16,30.16,0,0,0-2.45-3.68,15.23,15.23,0,0,0-4.59-4,16,16,0,0,0-8-1.86,29.55,29.55,0,0,0-3.26.19Z"/><path class="cls-1" d="M104.38,29.9a17.24,17.24,0,0,0-4.14,1.27,6.75,6.75,0,0,0-2,1.42,4.09,4.09,0,0,0-4.33,2.89c-1,3.19-2.1,6.42-2.18,9.79a12.41,12.41,0,0,0,.5,3.48,9,9,0,0,0,1.41,2.89,13.88,13.88,0,0,0,1.2,1.44,12.41,12.41,0,0,0,1.45,1.15,8.13,8.13,0,0,0,3.56,1.31,13.4,13.4,0,0,0,2.28.18,18,18,0,0,0,2.44-.27,16,16,0,0,0,4.26-1.37,14.27,14.27,0,0,0,6.15-5.49,12.39,12.39,0,0,0,1.73-6.37,9.9,9.9,0,0,0-.12-1.62c0-.07,0-.13,0-.2a9.8,9.8,0,0,0-1.29-7,7.59,7.59,0,0,0-2.91-2.54,12.47,12.47,0,0,0-4.11-1.1,11.37,11.37,0,0,0-1.42-.08,17.09,17.09,0,0,0-2.45.2Z"/><path class="cls-1" d="M646.47,438.73a10.06,10.06,0,0,0-3.15,1,9.92,9.92,0,0,0-3.44,3.25,8.56,8.56,0,0,0-1.59,4.67,9,9,0,0,0,0,1.64c0,.14,0,.27,0,.4a14,14,0,0,0,.11,3.17,8.88,8.88,0,0,0,.83,2.47,7,7,0,0,0,2.25,2.37,8.53,8.53,0,0,0,2.44,1.2,8.86,8.86,0,0,0,3.67.56,13,13,0,0,0,6.82-3,10.52,10.52,0,0,0,1.44-1.39,12.42,12.42,0,0,0,1.73-2.42,11.59,11.59,0,0,0,1-4.13,9.89,9.89,0,0,0-.18-2.43,7.06,7.06,0,0,0-.39-1.36c-.81-2.1-2-4.48-4.08-5.53a8.2,8.2,0,0,0-3.76-.8,31.14,31.14,0,0,0-3.72.33Z"/><path class="cls-1" d="M647.33,481.78a11.6,11.6,0,0,0-2.66.58,12.68,12.68,0,0,0-3.18,1.61,11.68,11.68,0,0,0-3.36,3.53,15.45,15.45,0,0,0-1.77,5.95,13.78,13.78,0,0,0-.41,2.66,17.29,17.29,0,0,0,.22,3.87,8,8,0,0,0,1.15,2.81,8.16,8.16,0,0,0,2.47,2.46,6.44,6.44,0,0,0,1,.5,16.63,16.63,0,0,0,2.1.78,13.89,13.89,0,0,0,6.66.1,15.31,15.31,0,0,0,3-1A12.27,12.27,0,0,0,658,501.2a12.69,12.69,0,0,0,1.67-3.23,21.38,21.38,0,0,0,1-6.4,10.13,10.13,0,0,0-3.07-7.17,14.31,14.31,0,0,0-2.28-1.74,8.69,8.69,0,0,0-4.57-1.18h0a29.81,29.81,0,0,0-3.4.3Zm.85,11.2h0Z"/><path class="cls-1" d="M675.2,463.7a7.86,7.86,0,0,0-3.69,2,7.76,7.76,0,0,0-2.45,5.18c0,.09,0,.18,0,.27a6.11,6.11,0,0,0-.07,3.09,5.57,5.57,0,0,0,.52,1.39,4.82,4.82,0,0,0,1,1.45c.36.32.74.61,1.12.89a8.19,8.19,0,0,0,1.67.7,9.47,9.47,0,0,0,4.07,0,8.8,8.8,0,0,0,3.85-2,6.24,6.24,0,0,0,1-1,7.72,7.72,0,0,0,1.75-3.41,11.06,11.06,0,0,0,0-3.54,6.57,6.57,0,0,0-.64-1.87,4.59,4.59,0,0,0-1.28-1.68,4,4,0,0,0-1-.69L680,464a8.2,8.2,0,0,0-1.94-.37c-.43,0-.85-.07-1.26-.07a8.59,8.59,0,0,0-1.58.14Z"/></g></g></svg>