<svg xmlns="http://www.w3.org/2000/svg" viewBox="0 0 403.26 452.5"><defs><style>.cls-1{fill:#fff;}</style></defs><g id="Layer_2" data-name="Layer 2"><g id="Layer_1-2" data-name="Layer 1"><path class="cls-1" d="M306.34,450.49c.34-1.66.69-3.38.89-5.09.07-1.53.07-3.09.07-4.6V438c.05-.59.05-1.18.05-1.77a46.33,46.33,0,0,0,0-5c-.16-2.28-.38-5-.38-7.75v-3.32c-.05-1.33-.05-2.67-.05-4,0-1.69-.12-3.38-.2-5-.05-.86-.13-1.71-.13-2.56-.09-2.17-.16-4.33-.23-6.5v-1.23c0-.92,0-1.92-.14-2.92l-.07-.65c-.12-1.08-.24-2.16-.39-3.24q-.4-3.06-.83-6.06c-.51-2.93-1.26-5.87-2-8.6l-.2-.77c-.32-1.1-.62-2.24-1-3.34-.59-1.7-1.09-3.28-1.51-4.82-.3-1.09-.58-2.19-.86-3.28l-.43-1.67a41.6,41.6,0,0,0-1.6-4.33c-.61-1.6-1.16-3.25-1.68-5.05a36.77,36.77,0,0,0-1.39-4.11c-.8-1.61-1.67-3.23-2.43-4.66l-1-1.93c-.52-1-1.05-2.08-1.62-3.08-1-1.75-2-3.5-3-5.23l-.43-.75a41.31,41.31,0,0,0-2.73-4.32c-.58-.65-1.34-1.45-2-2.12s-1.29-1.39-1.9-2.09l-.66-.76c-1.81-2.05-3.73-3.91-5.19-5.3l-1.15-1.07c-.69-.66-1.39-1.29-2.06-2s-1.31-1.47-1.92-2.22l-.84-1a37.33,37.33,0,0,0-2.71-3l-.59-.59c-.59-.59-1.2-1.19-1.83-1.74l-.63-.33a6.9,6.9,0,0,1-1.25-.45,4.67,4.67,0,0,1-2.52-4,4.73,4.73,0,0,1,2.19-4.15,4.62,4.62,0,0,1,2.3-.78,3.87,3.87,0,0,1,1.88-1.1l.38-.09a9.76,9.76,0,0,0,1.28-.36,6.72,6.72,0,0,1,1.46-.54c.51-.12,1-.2,1.56-.27l.51-.09.46-.17a5.32,5.32,0,0,1,.77-.25c.53-.12,1.05-.2,1.58-.27l.79-.2c.64-.17,1.27-.34,1.92-.48,1.18-.25,2.36-.42,3.49-.59.5-.11.92-.23,1.5-.38s1.16-.3,1.75-.43l1.32-.28c.76-.16,1.54-.33,2.32-.48H285c.94-.18,1.94-.36,2.94-.5a20.69,20.69,0,0,0,3.88-1.09l.67-.33a18.74,18.74,0,0,1,3.13-1.33,35.36,35.36,0,0,1,4.45-.88l.48-.09a22.9,22.9,0,0,1,3.49-.49h.32c.89,0,1.73-.05,2.59-.15a22.36,22.36,0,0,0,3.56-1.23,4.37,4.37,0,0,1,.69-.33l2.62-1.31.47-.24c1.59-.81,3.36-1.62,5.36-2.48l1.22-.55c1.48-.73,2.94-1.57,4.35-2.38,1.59-.92,3.23-1.86,4.92-2.65a124.1,124.1,0,0,0,11.13-5.81l.42-.24c1.4-.83,2.85-1.68,4.24-2.61.9-.66,1.76-1.34,2.59-2,.58-.46,1.16-.92,1.76-1.36l1.66-1.23c1.07-.8,2.14-1.6,3.23-2.38l1-.7c1.31-1,2.68-1.94,4.08-2.8l1.51-.91c1-.61,2.16-1.28,3.14-1.95s2-1.46,3.27-2.46l.81-.72c.72-.62,1.46-1.26,2.14-1.94,1.11-1.1,2.15-2.29,3.06-3.35,2.09-2.4,3.74-4.48,5.21-6.48l.41-.59c.61-.91,1.32-1.92,1.94-2.72s1.25-1.59,1.85-2.4c.42-.64.83-1.28,1.24-1.93.56-.88,1.12-1.75,1.72-2.61l1-1.47c.89-1.29,1.78-2.58,2.7-3.85a17.64,17.64,0,0,0,1.12-1.86c.18-.34.3-.59.51-1.05s.47-1,.67-1.36.41-.75.62-1.13c.46-.83.94-1.69,1.33-2.57.46-1.55.82-3.05,1.16-4.55.28-1.2.57-2.45.91-3.66.5-1.82,1.11-3.64,1.7-5.41.49-1.52,1-3.1,1.49-4.67.4-1.36.68-2.77.94-4.14l.18-.9.2-1c.28-1.38.57-2.81.81-4.22.46-2.76.84-5.72,1.18-9.32a49.74,49.74,0,0,0,0-7.72c-.12-1.44-.28-2.89-.43-4.33-.11-1-.21-1.89-.31-3s-.19-2.06-.28-3.06c-.15-1.57-.29-3.14-.45-4.72-.07-.61-.13-1.23-.19-1.84-.16-1.68-.33-3.42-.59-5.12-.11-.61-.21-1.22-.31-1.83a153.91,153.91,0,0,0-3.47-15.45l-.32-1.09c-.69-2.34-1.4-4.75-2.16-7.12a64.31,64.31,0,0,0-2.53-6.42c-.51-1.1-1-2.2-1.57-3.29-.39-.8-.77-1.6-1.15-2.41l-.64-1.37c-.86-1.84-1.75-3.75-2.75-5.57-.8-1.45-1.67-2.89-2.51-4.29-.45-.74-.89-1.48-1.33-2.22a51,51,0,0,0-3.44-5.17c-.51-.54-1-1-1.62-1.54s-1.17-1.05-1.7-1.61a9.32,9.32,0,0,1-2.12-3.27,5.72,5.72,0,0,1-.32-2.13,8.11,8.11,0,0,1,.2-1.84.48.48,0,0,0,.07-.3,14.24,14.24,0,0,1,.18-1.6l.12-.62c.06-.31.11-.54.18-1s.16-.79.24-1.21.17-.84.24-1.26a52.64,52.64,0,0,0,0-5.33,33.92,33.92,0,0,1,.47-6.75c.18-1.17.33-2.35.47-3.52.09-.74.19-1.47.28-2.2l.24-1.64c.18-1.25.37-2.55.49-3.84.06-.58.11-1.15.16-1.73a80.74,80.74,0,0,0-.19-9.46c-.21-3.69-.38-6.79-.38-9.93,0-1.88-.13-3.79-.24-5.64-.08-1.42-.21-2.95-.21-4.42a67.17,67.17,0,0,0-.72-8.73l-.07-.43-.08-.41a20.58,20.58,0,0,0-.66-2.45c-.1-.3-.2-.67-.27-.92s-.13-.5-.21-.74a15.15,15.15,0,0,1-.43-2,10.84,10.84,0,0,0-.31-1.37c-.44-.39-.89-.76-1.36-1.11-.25-.15-.59-.33-.75-.42a.93.93,0,0,0-.49-.09L369,4.59l-.79-.1q-.35,0-.69-.12h-2.17c-.78-.07-1.54-.17-2.31-.28L362.15,4h-.21c-1.16,0-2.35.11-3.49.22H358c-1.53.13-2.91.29-4.22.47a36.78,36.78,0,0,0-8.38,2.17l-1.28.57c-1,.45-1.95.86-3.07,1.32s-2.24.87-3.36,1.29l-1.12.42-.49.18c-1.41.53-2.86,1.06-4.32,1.53s-3.12,1-4.68,1.62c-.78.32-1.55.66-2.31,1l-1.75.76c-.66.28-1.36.54-2,.78s-1.28.48-1.91.74l-1.51.74a49,49,0,0,1-7.25,3.14,74.11,74.11,0,0,0-7.23,2.6,52.68,52.68,0,0,0-8.83,5.79c-.42.35-.75.68-1.22,1.1s-.9.94-1.34,1.42c-.22.24-.43.49-.66.72a21.58,21.58,0,0,1-4.52,3.9l-.3.18a6.22,6.22,0,0,0-.84.53,4.64,4.64,0,0,1-.7.45l-.42.21a5.84,5.84,0,0,1-1.51.56l-.23.05a8.84,8.84,0,0,1-1.62.19h-1.09a16.17,16.17,0,0,1-2.5-.25l-.84-.2c-.26-.07-.53-.13-.79-.18h-.3a30.73,30.73,0,0,1-4.29-.31c-.58-.1-1.15-.24-1.73-.38a21.06,21.06,0,0,0-2.21-.44l-1.25-.13a24,24,0,0,1-2.53-.34,12.22,12.22,0,0,1-1.66-.51l-.15-.06-.88-.31-.88-.32a16.34,16.34,0,0,0-2.93-.58c-1.54-.11-2.84-.23-4.15-.43l-.66-.1c-.6-.1-1.21-.2-1.82-.28h-.65a32.68,32.68,0,0,1-4.63-.44c-.43-.08-.85-.18-1.28-.27l-1.44-.3c-.71-.14-1.42-.22-2.14-.31l-2-.08c-.63,0-1.19,0-1.88-.07s-1.34-.09-2-.15c-.94-.08-1.88-.18-2.88-.18h-.11c-.64,0-1.4.07-2,.13s-1.21.11-1.81.11h-.16c-1.41,0-2.81-.18-4.21-.37l-.76-.09q-1.17-.06-2.34-.06h-2.24c-1.23,0-2.48-.1-3.69-.19l-.86-.06c-1.43-.09-2.9-.2-4.5-.2-2.17-.05-3.85-.13-5.45-.28h.38c-3-.23-5.34-.36-7.54-.42-2.42-.06-4.85-.34-7.21-.61l-.6-.07h-1c-1.16,0-2.34.08-3.48.15-.88,0-1.75.13-2.63.13h-1.38a43.27,43.27,0,0,0-5.57.34,55,55,0,0,1-6,.78c-.82.08-1.64.08-2.5.08a30.13,30.13,0,0,1-3.42-.12,35.51,35.51,0,0,0-3.73-.14c-.84,0-1.62,0-2.4.07-1.52.1-3.32.22-5.12.46a21.4,21.4,0,0,0-2.22.6c-.39.21-.62.34-1.15.65s-1.06.61-1.6.88a3.06,3.06,0,0,0-.61.4l-.17.12a5.09,5.09,0,0,1-2,.89,8.1,8.1,0,0,1-1.55.18,7.08,7.08,0,0,1-1.13-.1A5.53,5.53,0,0,1,138.14,34l-.46-.42c-.39-.35-.77-.71-1.15-1.07a59.15,59.15,0,0,0-4.48-3.89l-1.62-1c-.76-.48-1.56-.95-2.31-1.48-.59-.42-1.16-.87-1.73-1.33l-1.24-1-2-1.32c-.73-.46-1.45-1-2.15-1.46l.11.1A19.8,19.8,0,0,0,119,19.83l-.9-.45c-.43-.21-.86-.41-1.28-.65a34.24,34.24,0,0,1-4-2.76l-1.08-.81a27.66,27.66,0,0,0-4.44-2.34,27.69,27.69,0,0,1-4.14-2c-1.31-.84-2.65-1.54-4.06-2.27l-.44-.23c-.29-.15-.57-.31-.85-.47-.52-.27-.89-.49-1.52-.79a15.4,15.4,0,0,0-1.92-.84c-.57-.17-1.14-.32-1.71-.46L92,5.58a18.94,18.94,0,0,1-3.85-1.42c-.53-.26-1-.52-1.53-.85s-1.11-.66-1.69-.94c-.79-.36-1.62-.7-2.35-1A25.72,25.72,0,0,0,79,.57c-1.29-.21-2.6-.4-3.9-.57h-.33A21.08,21.08,0,0,0,72,.21l-.53.07A11.56,11.56,0,0,1,69.8.47H68c-.27.17-.54.35-.8.54a17.83,17.83,0,0,0-1.54,1.47,33.82,33.82,0,0,0-2.22,4.16c-.23.53-.48,1-.73,1.53a17.72,17.72,0,0,0-1.06,2.3c-.25.79-.44,1.46-.69,2.38s-.51,1.84-.8,2.74a52.27,52.27,0,0,0-1.78,6.63c-.2,1.1-.41,2.2-.62,3.29-.62,3.24-1.27,6.58-1.62,9.9v.81a38.35,38.35,0,0,0-.08,5.14l.06,1.06c.09,1.42.22,2.83.22,4.26V51c0,1.82,0,3.7.1,5.55.18,2.8.51,5.77,1.07,9.63.22,1.54.4,3.09.58,4.64.21,1.76.42,3.58.69,5.37l.06.35.06.35a14.05,14.05,0,0,0,.62,2.31l.66,1.45.33.66a13.34,13.34,0,0,1,.74,1.58,5.54,5.54,0,0,1-.6,4.83,7.64,7.64,0,0,1-2.43,2.47c-.3.21-.61.4-.91.58l-.49.31c-.53.34-1,.66-1.53,1a37.9,37.9,0,0,0-3.24,3.59l-.37.45c-1.47,1.76-3,3.7-4.62,5.93-1.06,1.45-2.27,2.8-3.44,4.12l-1,1.19c-1.48,1.69-3.2,3.71-4.78,5.83A32.06,32.06,0,0,0,36.13,116a30.92,30.92,0,0,0-1.7,3.81c-.67,1.94-1.24,3.94-1.79,5.88l-.44,1.56c-.7,2.4-1.48,4.64-2.48,7.33-1.35,4.06-2.32,8.32-3.26,12.44l-.1.46a109.25,109.25,0,0,0-2.2,12.43,77.38,77.38,0,0,0,.07,9.51l.06.93c.08,1.41.16,2.86.31,4.29.13,1.27.31,2.66.57,4.38,1.06,5.9,2.42,11.7,4.13,18.59a116.32,116.32,0,0,0,6.52,19.22c1.79,3.93,3.34,7.22,5,10.47a59.14,59.14,0,0,0,3.5,5.88c1,1.41,2.08,2.73,3.08,4l1.42,1.67c1.31,1.53,2.67,3.11,3.94,4.73.69.88,1.38,1.77,2.06,2.66L57,249a74.82,74.82,0,0,0,7.29,7.5c1,.92,2.14,1.8,3.21,2.65l1.52,1.22c1.11.91,2.23,1.9,3.23,2.85l1,.91c2.73,2.48,5.83,5.3,9,7.89,2.34,1.89,4.82,3.68,7.22,5.4l1.2.87a116.73,116.73,0,0,0,11.17,6.44,111.64,111.64,0,0,0,10.91,5.4,48.71,48.71,0,0,0,4.87,1.33l1.35.3c1.15.24,2.3.48,3.49.79s2.37.7,3.51,1.08c.78.26,1.56.52,2.35.76,2.18.65,4,1.13,5.58,1.49,1.38.31,2.8.55,4.17.77.64.11,1.27.21,1.9.33,1.37.24,2.74.56,4.06.88l1,.23c1.52.35,3.09.62,4.61.87a52.58,52.58,0,0,1,6.46,1.36l2.09.65c1.16.37,2.36.75,3.57,1.07,1.61.42,3.28.77,4.9,1.1l1.12.24a3,3,0,0,1,1.9,1.32,3.1,3.1,0,0,1,.43,2.39l.28.24.38.46.4.47a4.8,4.8,0,0,1,.47,1,4.55,4.55,0,0,1-3,5.68,7.13,7.13,0,0,1-1.45.27,15.37,15.37,0,0,0-1.64.62l-.13.06-.58.24-.59.25a60.45,60.45,0,0,0-6.11,3.48l-1.17.8c-.84.61-1.71,1.18-2.6,1.7l-.33.19a29.48,29.48,0,0,0-2.89,1.78,48.6,48.6,0,0,0-4.05,4.32,56.75,56.75,0,0,0-4.15,5.28c-1.16,1.74-2.16,3.16-3.16,4.47a81.33,81.33,0,0,0-4.33,7.6c-1,1.94-2,3.94-2.95,5.94-.4.81-.79,1.63-1.19,2.44-.6,1.32-1.34,2.81-2,4.37a13.41,13.41,0,0,1-1.9,3.51,8.8,8.8,0,0,1-1,1.11,8.08,8.08,0,0,1-3.19,1.94,21.51,21.51,0,0,1-2.63.43,13.65,13.65,0,0,1-1.81.13h-.75c-1.12-.08-2.24-.17-3.35-.29-2.05-.18-4.56-.42-7.05-.85l-.87-.15c-1.69-.29-3.43-.59-5.16-.78l-1.29-.07c-1.54-.08-3.13-.17-4.7-.34-1.33-.16-2.69-.39-4-.61l-1.8-.29c-.84-.13-1.67-.24-2.51-.34-1-.13-2.12-.26-3.18-.45-1.46-.26-3-.62-4.77-1.09a95.58,95.58,0,0,1-11.2-3.75c-2-.82-3.92-1.71-5.37-2.4a45.63,45.63,0,0,1-4.43-2.34,36.91,36.91,0,0,1-5.7-4.15c-1.59-1.44-3.11-3-4.66-4.56-2.49-2.53-4.86-5.23-7.15-7.85l-1.13-1.29c-.76-.87-1.57-1.71-2.36-2.53-.58-.61-1.29-1.36-1.74-1.85s-.89-1-1.32-1.49c-.88-1-1.77-2.07-2.77-3a83.79,83.79,0,0,0-8.23-6.93l-.8-.52c-.49-.32-1-.65-1.49-1-.66-.45-1.3-.93-1.95-1.4l-1-.72A44.16,44.16,0,0,1,14.34,312c-1.15-1-2.19-1.88-3.3-2.72a30.7,30.7,0,0,0-4.24-2.25,14.5,14.5,0,0,0-2.26-.42H4a11.61,11.61,0,0,0-1.18,0,6.32,6.32,0,0,0-.62.18c-.13.07-.25.15-.37.23l-.06.08A36.82,36.82,0,0,0,0,310.61c.59.49,1.24.93,1.86,1.35l.59.43-.69-.51c.74.52,1.49,1,2.23,1.52,1.09.73,2.22,1.49,3.31,2.28A55.6,55.6,0,0,1,12,319.54c1.34,1.22,2.61,2.57,3.84,3.87l.13.13c1.27,1.3,2.51,2.66,3.69,4,1.39,1.57,2.79,3.24,4.29,5.24l.89,1.14a41.4,41.4,0,0,1,2.82,3.89,56.27,56.27,0,0,1,3.89,8.28c.4,1,.79,1.93,1.2,2.88.54,1.14,1.13,2.29,1.7,3.39.74,1.43,1.51,2.92,2.18,4.43.47,1.08.95,2.11,1.39,3.24s.89,2.29,1.44,3.37,1,2.07,1.55,3.21,1.12,2.29,1.66,3.45c1.06,2.28,2.06,4.62,3.06,6.88l.36.83c.82,1.77,1.59,3.36,2.35,4.88a3.83,3.83,0,0,1,.39.75c.68,1.36,1.39,2.7,2.11,4a77,77,0,0,0,5.6,8.91A54.84,54.84,0,0,0,65,403.63a27.47,27.47,0,0,0,5,2.78,65.75,65.75,0,0,0,6.91,1.85c2.1.44,4.28.69,6.39.94h.37c.91.09,1.91.16,2.91.16.46,0,.83,0,1.37-.06s1.08-.11,1.62-.17a30,30,0,0,1,3.28-.25h.59c1.09.05,2.19.13,3.28.22l1.89.15h1.28a20,20,0,0,0,2.67-.18c1-.23,1.92-.53,2.85-.82l.8-.25c.77-.24,1.38-.4,2-.53a20.36,20.36,0,0,1,3.3-.39h.24c2.29-.15,4.73-.42,7.29-.83l.74-.14a34.43,34.43,0,0,1,4.63-.67h.9A6.17,6.17,0,0,1,128,406a4.3,4.3,0,0,1,2.67,3.68,12.66,12.66,0,0,1-.23,2.46c0,.29-.07.43-.13.86s-.11.91-.15,1.3a11.82,11.82,0,0,0-.13,1.18c-.09.75-.19,1.5-.29,2.24-.12.92-.24,1.83-.35,2.75-.12,2.17-.12,4.38-.12,6.52v.65c0,3.6-.11,7.18-.27,11.18-.07,1.25-.07,2.51-.07,3.77v6.94c0,1,.09,2,.09,3H306C306.07,451.8,306.21,451.14,306.34,450.49Z"/></g></g></svg>