<?xml version="1.0" encoding="utf-8"?>
<!-- Generator: Adobe Illustrator 24.1.0, SVG Export Plug-In . SVG Version: 6.00 Build 0)  -->
<svg version="1.1" id="Layer_1" xmlns="http://www.w3.org/2000/svg" xmlns:xlink="http://www.w3.org/1999/xlink" x="0px" y="0px"
	 viewBox="0 0 1213.8 1005.7" style="enable-background:new 0 0 1213.8 1005.7;" xml:space="preserve">
<style type="text/css">
	.st0{fill:#9AA4BD;}
	.st1{fill:none;stroke:#384173;stroke-width:0.75;stroke-miterlimit:10;}
	.st2{opacity:0.1;}
	.st3{fill:none;stroke:#384173;stroke-width:0.5;stroke-miterlimit:10;}
	.st4{fill:none;stroke:#384173;stroke-miterlimit:10;}
	.st5{fill:#384173;}
	.st6{opacity:0.5;fill:none;stroke:#EDEDED;stroke-miterlimit:10;enable-background:new    ;}
	.st7{opacity:0.5;fill:none;stroke:#EDEDED;stroke-width:0.5;stroke-miterlimit:10;enable-background:new    ;}
</style>
<g id="Layer_2_1_">
	<g id="Layer_1-2">
		<g id="Layer_2-2">
			<g id="Draw_Layer">
				<rect x="2.9" y="33.3" class="st0" width="1186.4" height="970.5"/>
				<rect x="2.9" y="33.3" class="st1" width="1186.4" height="970.5"/>
				<g class="st2">
					<line class="st3" x1="18.5" y1="33.3" x2="18.5" y2="1003.9"/>
					<line class="st3" x1="3.2" y1="33.3" x2="3.2" y2="1003.9"/>
					<line class="st3" x1="33.7" y1="33.3" x2="33.7" y2="1003.9"/>
					<line class="st3" x1="48.9" y1="33.3" x2="48.9" y2="1003.9"/>
					<line class="st3" x1="64.1" y1="33.3" x2="64.1" y2="1003.9"/>
					<line class="st3" x1="79.3" y1="33.3" x2="79.3" y2="1003.9"/>
					<line class="st4" x1="94.5" y1="33.3" x2="94.5" y2="1003.9"/>
				</g>
				<g class="st2">
					<line class="st3" x1="109.7" y1="33.3" x2="109.7" y2="1003.9"/>
					<line class="st3" x1="94.5" y1="33.3" x2="94.5" y2="1003.9"/>
					<line class="st3" x1="125" y1="33.3" x2="125" y2="1003.9"/>
					<line class="st3" x1="140.2" y1="33.3" x2="140.2" y2="1003.9"/>
					<line class="st3" x1="155.4" y1="33.3" x2="155.4" y2="1003.9"/>
					<line class="st3" x1="170.6" y1="33.3" x2="170.6" y2="1003.9"/>
					<line class="st4" x1="185.8" y1="33.3" x2="185.8" y2="1003.9"/>
				</g>
				<g class="st2">
					<line class="st3" x1="201" y1="33.3" x2="201" y2="1003.9"/>
					<line class="st3" x1="185.8" y1="33.3" x2="185.8" y2="1003.9"/>
					<line class="st3" x1="216.2" y1="33.3" x2="216.2" y2="1003.9"/>
					<line class="st3" x1="231.5" y1="33.3" x2="231.5" y2="1003.9"/>
					<line class="st3" x1="246.7" y1="33.3" x2="246.7" y2="1003.9"/>
					<line class="st3" x1="261.9" y1="33.3" x2="261.9" y2="1003.9"/>
					<line class="st4" x1="277.1" y1="33.3" x2="277.1" y2="1003.9"/>
				</g>
				<g class="st2">
					<line class="st3" x1="292.3" y1="33.3" x2="292.3" y2="1003.9"/>
					<line class="st3" x1="277.1" y1="33.3" x2="277.1" y2="1003.9"/>
					<line class="st3" x1="307.5" y1="33.3" x2="307.5" y2="1003.9"/>
					<line class="st3" x1="322.8" y1="33.3" x2="322.8" y2="1003.9"/>
					<line class="st3" x1="338" y1="33.3" x2="338" y2="1003.9"/>
					<line class="st3" x1="353.2" y1="33.3" x2="353.2" y2="1003.9"/>
					<line class="st4" x1="368.4" y1="33.3" x2="368.4" y2="1003.9"/>
				</g>
				<g class="st2">
					<line class="st3" x1="383.6" y1="33.3" x2="383.6" y2="1003.9"/>
					<line class="st3" x1="368.4" y1="33.3" x2="368.4" y2="1003.9"/>
					<line class="st3" x1="398.8" y1="33.3" x2="398.8" y2="1003.9"/>
					<line class="st3" x1="414" y1="33.3" x2="414" y2="1003.9"/>
					<line class="st3" x1="429.3" y1="33.3" x2="429.3" y2="1003.9"/>
					<line class="st3" x1="444.5" y1="33.3" x2="444.5" y2="1003.9"/>
					<line class="st4" x1="459.7" y1="33.3" x2="459.7" y2="1003.9"/>
				</g>
				<g class="st2">
					<line class="st3" x1="474.9" y1="33.3" x2="474.9" y2="1003.9"/>
					<line class="st3" x1="459.7" y1="33.3" x2="459.7" y2="1003.9"/>
					<line class="st3" x1="490.1" y1="33.3" x2="490.1" y2="1003.9"/>
					<line class="st3" x1="505.3" y1="33.3" x2="505.3" y2="1003.9"/>
					<line class="st3" x1="520.5" y1="33.3" x2="520.5" y2="1003.9"/>
					<line class="st3" x1="535.8" y1="33.3" x2="535.8" y2="1003.9"/>
					<line class="st4" x1="551" y1="33.3" x2="551" y2="1003.9"/>
				</g>
				<g class="st2">
					<line class="st3" x1="565.5" y1="33.3" x2="565.5" y2="1003.9"/>
					<line class="st3" x1="550.2" y1="33.3" x2="550.2" y2="1003.9"/>
					<line class="st3" x1="580.7" y1="33.3" x2="580.7" y2="1003.9"/>
					<line class="st3" x1="595.9" y1="33.3" x2="595.9" y2="1003.9"/>
					<line class="st3" x1="611.1" y1="33.3" x2="611.1" y2="1003.9"/>
					<line class="st3" x1="626.3" y1="33.3" x2="626.3" y2="1003.9"/>
					<line class="st4" x1="641.5" y1="33.3" x2="641.5" y2="1003.9"/>
				</g>
				<g class="st2">
					<line class="st3" x1="656.7" y1="33.3" x2="656.7" y2="1003.9"/>
					<line class="st3" x1="641.5" y1="33.3" x2="641.5" y2="1003.9"/>
					<line class="st3" x1="672" y1="33.3" x2="672" y2="1003.9"/>
					<line class="st3" x1="687.2" y1="33.3" x2="687.2" y2="1003.9"/>
					<line class="st3" x1="702.4" y1="33.3" x2="702.4" y2="1003.9"/>
					<line class="st3" x1="717.6" y1="33.3" x2="717.6" y2="1003.9"/>
					<line class="st4" x1="732.8" y1="33.3" x2="732.8" y2="1003.9"/>
				</g>
				<g class="st2">
					<line class="st3" x1="748" y1="33.3" x2="748" y2="1003.9"/>
					<line class="st3" x1="732.8" y1="33.3" x2="732.8" y2="1003.9"/>
					<line class="st3" x1="763.2" y1="33.3" x2="763.2" y2="1003.9"/>
					<line class="st3" x1="778.5" y1="33.3" x2="778.5" y2="1003.9"/>
					<line class="st3" x1="793.7" y1="33.3" x2="793.7" y2="1003.9"/>
					<line class="st3" x1="808.9" y1="33.3" x2="808.9" y2="1003.9"/>
					<line class="st4" x1="824.1" y1="33.3" x2="824.1" y2="1003.9"/>
				</g>
				<g class="st2">
					<line class="st3" x1="839.3" y1="33.3" x2="839.3" y2="1003.9"/>
					<line class="st3" x1="824.1" y1="33.3" x2="824.1" y2="1003.9"/>
					<line class="st3" x1="854.5" y1="33.3" x2="854.5" y2="1003.9"/>
					<line class="st3" x1="869.8" y1="33.3" x2="869.8" y2="1003.9"/>
					<line class="st3" x1="885" y1="33.3" x2="885" y2="1003.9"/>
					<line class="st3" x1="900.2" y1="33.3" x2="900.2" y2="1003.9"/>
					<line class="st4" x1="915.4" y1="33.3" x2="915.4" y2="1003.9"/>
				</g>
				<g class="st2">
					<line class="st3" x1="930.6" y1="33.3" x2="930.6" y2="1003.9"/>
					<line class="st3" x1="915.4" y1="33.3" x2="915.4" y2="1003.9"/>
					<line class="st3" x1="945.8" y1="33.3" x2="945.8" y2="1003.9"/>
					<line class="st3" x1="961" y1="33.3" x2="961" y2="1003.9"/>
					<line class="st3" x1="976.3" y1="33.3" x2="976.3" y2="1003.9"/>
					<line class="st3" x1="991.5" y1="33.3" x2="991.5" y2="1003.9"/>
					<line class="st4" x1="1006.7" y1="33.3" x2="1006.7" y2="1003.9"/>
				</g>
				<g class="st2">
					<line class="st3" x1="1021.9" y1="33.3" x2="1021.9" y2="1003.9"/>
					<line class="st3" x1="1006.7" y1="33.3" x2="1006.7" y2="1003.9"/>
					<line class="st3" x1="1037.1" y1="33.3" x2="1037.1" y2="1003.9"/>
					<line class="st3" x1="1052.3" y1="33.3" x2="1052.3" y2="1003.9"/>
					<line class="st3" x1="1067.6" y1="33.3" x2="1067.6" y2="1003.9"/>
					<line class="st3" x1="1082.8" y1="33.3" x2="1082.8" y2="1003.9"/>
					<line class="st4" x1="1098" y1="33.3" x2="1098" y2="1003.9"/>
				</g>
				<g class="st2">
					<line class="st3" x1="1113.2" y1="33.3" x2="1113.2" y2="1003.9"/>
					<line class="st3" x1="1098" y1="33.3" x2="1098" y2="1003.9"/>
					<line class="st3" x1="1128.4" y1="33.3" x2="1128.4" y2="1003.9"/>
					<line class="st3" x1="1143.6" y1="33.3" x2="1143.6" y2="1003.9"/>
					<line class="st3" x1="1158.8" y1="33.3" x2="1158.8" y2="1003.9"/>
					<line class="st3" x1="1174.1" y1="33.3" x2="1174.1" y2="1003.9"/>
					<line class="st4" x1="1189.3" y1="33.3" x2="1189.3" y2="1003.9"/>
				</g>
				<g class="st2">
					<line class="st3" x1="1189.3" y1="49.6" x2="3.2" y2="49.6"/>
					<line class="st3" x1="1189.3" y1="33.3" x2="3.2" y2="33.3"/>
					<line class="st3" x1="1189.3" y1="65.8" x2="3.2" y2="65.8"/>
					<line class="st3" x1="1189.3" y1="82.1" x2="3.2" y2="82.1"/>
					<line class="st3" x1="1189.3" y1="98.3" x2="3.2" y2="98.3"/>
					<line class="st3" x1="1189.3" y1="114.5" x2="3.2" y2="114.5"/>
					<line class="st4" x1="1189.3" y1="130.8" x2="3.2" y2="130.8"/>
				</g>
				<g class="st2">
					<line class="st3" x1="1189.3" y1="147" x2="3.2" y2="147"/>
					<line class="st3" x1="1189.3" y1="130.8" x2="3.2" y2="130.8"/>
					<line class="st3" x1="1189.3" y1="163.2" x2="3.2" y2="163.2"/>
					<line class="st3" x1="1189.3" y1="179.5" x2="3.2" y2="179.5"/>
					<line class="st3" x1="1189.3" y1="195.7" x2="3.2" y2="195.7"/>
					<line class="st3" x1="1189.3" y1="212" x2="3.2" y2="212"/>
					<line class="st4" x1="1189.3" y1="228.2" x2="3.2" y2="228.2"/>
				</g>
				<g class="st2">
					<line class="st3" x1="1189.3" y1="244.4" x2="3.2" y2="244.4"/>
					<line class="st3" x1="1189.3" y1="228.2" x2="3.2" y2="228.2"/>
					<line class="st3" x1="1189.3" y1="260.7" x2="3.2" y2="260.7"/>
					<line class="st3" x1="1189.3" y1="276.9" x2="3.2" y2="276.9"/>
					<line class="st3" x1="1189.3" y1="293.2" x2="3.2" y2="293.2"/>
					<line class="st3" x1="1189.3" y1="309.4" x2="3.2" y2="309.4"/>
					<line class="st4" x1="1189.3" y1="325.6" x2="3.2" y2="325.6"/>
				</g>
				<g class="st2">
					<line class="st3" x1="1188.9" y1="341" x2="2.9" y2="341"/>
					<line class="st3" x1="1188.9" y1="324.7" x2="2.9" y2="324.7"/>
					<line class="st3" x1="1188.9" y1="357.2" x2="2.9" y2="357.2"/>
					<line class="st3" x1="1188.9" y1="373.4" x2="2.9" y2="373.4"/>
					<line class="st3" x1="1188.9" y1="389.7" x2="2.9" y2="389.7"/>
					<line class="st3" x1="1188.9" y1="405.9" x2="2.9" y2="405.9"/>
					<line class="st4" x1="1188.9" y1="422.1" x2="2.9" y2="422.1"/>
				</g>
				<g class="st2">
					<line class="st3" x1="1189.3" y1="439.5" x2="3.2" y2="439.5"/>
					<line class="st3" x1="1189.3" y1="423.3" x2="3.2" y2="423.3"/>
					<line class="st3" x1="1189.3" y1="455.7" x2="3.2" y2="455.7"/>
					<line class="st3" x1="1189.3" y1="472" x2="3.2" y2="472"/>
					<line class="st3" x1="1189.3" y1="488.2" x2="3.2" y2="488.2"/>
					<line class="st3" x1="1189.3" y1="504.5" x2="3.2" y2="504.5"/>
					<line class="st4" x1="1189.3" y1="520.7" x2="3.2" y2="520.7"/>
				</g>
				<g class="st2">
					<line class="st3" x1="1188.9" y1="538.1" x2="2.9" y2="538.1"/>
					<line class="st3" x1="1188.9" y1="521.8" x2="2.9" y2="521.8"/>
					<line class="st3" x1="1188.9" y1="554.3" x2="2.9" y2="554.3"/>
					<line class="st3" x1="1188.9" y1="570.5" x2="2.9" y2="570.5"/>
					<line class="st3" x1="1188.9" y1="586.8" x2="2.9" y2="586.8"/>
					<line class="st3" x1="1188.9" y1="603" x2="2.9" y2="603"/>
					<line class="st4" x1="1188.9" y1="619.3" x2="2.9" y2="619.3"/>
				</g>
				<g class="st2">
					<line class="st3" x1="1189.3" y1="634.6" x2="3.2" y2="634.6"/>
					<line class="st3" x1="1189.3" y1="618.3" x2="3.2" y2="618.3"/>
					<line class="st3" x1="1189.3" y1="650.8" x2="3.2" y2="650.8"/>
					<line class="st3" x1="1189.3" y1="667" x2="3.2" y2="667"/>
					<line class="st3" x1="1189.3" y1="683.3" x2="3.2" y2="683.3"/>
					<line class="st3" x1="1189.3" y1="699.5" x2="3.2" y2="699.5"/>
					<line class="st4" x1="1189.3" y1="715.7" x2="3.2" y2="715.7"/>
				</g>
				<g class="st2">
					<line class="st3" x1="1188.9" y1="731" x2="2.9" y2="731"/>
					<line class="st3" x1="1188.9" y1="714.8" x2="2.9" y2="714.8"/>
					<line class="st3" x1="1188.9" y1="747.3" x2="2.9" y2="747.3"/>
					<line class="st3" x1="1188.9" y1="763.5" x2="2.9" y2="763.5"/>
					<line class="st3" x1="1188.9" y1="779.8" x2="2.9" y2="779.8"/>
					<line class="st3" x1="1188.9" y1="796" x2="2.9" y2="796"/>
					<line class="st4" x1="1188.9" y1="812.2" x2="2.9" y2="812.2"/>
				</g>
				<g class="st2">
					<line class="st3" x1="1189.1" y1="829.6" x2="3.1" y2="829.6"/>
					<line class="st3" x1="1189.1" y1="813.4" x2="3.1" y2="813.4"/>
					<line class="st3" x1="1189.1" y1="845.8" x2="3.1" y2="845.8"/>
					<line class="st3" x1="1189.1" y1="862.1" x2="3.1" y2="862.1"/>
					<line class="st3" x1="1189.1" y1="878.3" x2="3.1" y2="878.3"/>
					<line class="st3" x1="1189.1" y1="894.6" x2="3.1" y2="894.6"/>
					<line class="st4" x1="1189.1" y1="910.8" x2="3.1" y2="910.8"/>
				</g>
				<g class="st2">
					<line class="st3" x1="1189.3" y1="925.6" x2="3.2" y2="925.6"/>
					<line class="st3" x1="1189.3" y1="909.3" x2="3.2" y2="909.3"/>
					<line class="st3" x1="1189.3" y1="941.8" x2="3.2" y2="941.8"/>
					<line class="st3" x1="1189.3" y1="958" x2="3.2" y2="958"/>
					<line class="st3" x1="1189.3" y1="974.3" x2="3.2" y2="974.3"/>
					<line class="st3" x1="1189.3" y1="990.5" x2="3.2" y2="990.5"/>
				</g>
			</g>
		</g>
		<rect x="3.4" y="32.5" class="st5" width="1184.4" height="27.6"/>
		<line class="st6" x1="26.4" y1="32.5" x2="26.4" y2="54.7"/>
		<line class="st6" x1="103.7" y1="32.5" x2="103.7" y2="60.2"/>
		<line class="st6" x1="181" y1="32.5" x2="181" y2="60.2"/>
		<line class="st6" x1="258.2" y1="32.5" x2="258.2" y2="60.2"/>
		<line class="st6" x1="335.5" y1="32.5" x2="335.5" y2="60.2"/>
		<line class="st6" x1="412.8" y1="32.5" x2="412.8" y2="60.2"/>
		<line class="st6" x1="490.1" y1="32.5" x2="490.1" y2="60.2"/>
		<line class="st6" x1="567.4" y1="32.5" x2="567.4" y2="60.2"/>
		<line class="st6" x1="644.7" y1="32.5" x2="644.7" y2="60.2"/>
		<line class="st6" x1="721.9" y1="32.5" x2="721.9" y2="60.2"/>
		<line class="st6" x1="799.2" y1="32.5" x2="799.2" y2="60.2"/>
		<line class="st6" x1="876.5" y1="32.5" x2="876.5" y2="60.2"/>
		<line class="st6" x1="953.8" y1="32.5" x2="953.8" y2="60.2"/>
		<line class="st6" x1="1031.1" y1="32.5" x2="1031.1" y2="60.2"/>
		<line class="st6" x1="1108.3" y1="32.5" x2="1108.3" y2="60.2"/>
		<line class="st7" x1="32.3" y1="47.8" x2="32.3" y2="60.2"/>
		<line class="st7" x1="38.3" y1="47.8" x2="38.3" y2="60.2"/>
		<line class="st7" x1="44.3" y1="47.8" x2="44.3" y2="60.2"/>
		<line class="st7" x1="50.3" y1="47.8" x2="50.3" y2="60.2"/>
		<line class="st7" x1="56.3" y1="47.8" x2="56.3" y2="60.2"/>
		<line class="st7" x1="62.3" y1="47.8" x2="62.3" y2="60.2"/>
		<line class="st7" x1="68.2" y1="47.8" x2="68.2" y2="60.2"/>
		<line class="st7" x1="74.2" y1="47.8" x2="74.2" y2="60.2"/>
		<line class="st7" x1="80.2" y1="47.8" x2="80.2" y2="60.2"/>
		<line class="st7" x1="86.2" y1="47.8" x2="86.2" y2="60.2"/>
		<line class="st7" x1="92.2" y1="47.8" x2="92.2" y2="60.2"/>
		<line class="st7" x1="98.2" y1="47.8" x2="98.2" y2="60.2"/>
		<line class="st7" x1="109.5" y1="47.8" x2="109.5" y2="60.2"/>
		<line class="st7" x1="115.5" y1="47.8" x2="115.5" y2="60.2"/>
		<line class="st7" x1="121.5" y1="47.8" x2="121.5" y2="60.2"/>
		<line class="st7" x1="127.5" y1="47.8" x2="127.5" y2="60.2"/>
		<line class="st7" x1="133.5" y1="47.8" x2="133.5" y2="60.2"/>
		<line class="st7" x1="139.5" y1="47.8" x2="139.5" y2="60.2"/>
		<line class="st7" x1="145.5" y1="47.8" x2="145.5" y2="60.2"/>
		<line class="st7" x1="151.4" y1="47.8" x2="151.4" y2="60.2"/>
		<line class="st7" x1="157.4" y1="47.8" x2="157.4" y2="60.2"/>
		<line class="st7" x1="163.4" y1="47.8" x2="163.4" y2="60.2"/>
		<line class="st7" x1="169.4" y1="47.8" x2="169.4" y2="60.2"/>
		<line class="st7" x1="175.4" y1="47.8" x2="175.4" y2="60.2"/>
		<line class="st7" x1="186.9" y1="47.8" x2="186.9" y2="60.2"/>
		<line class="st7" x1="192.9" y1="47.8" x2="192.9" y2="60.2"/>
		<line class="st7" x1="198.9" y1="47.8" x2="198.9" y2="60.2"/>
		<line class="st7" x1="204.8" y1="47.8" x2="204.8" y2="60.2"/>
		<line class="st7" x1="210.8" y1="47.8" x2="210.8" y2="60.2"/>
		<line class="st7" x1="216.8" y1="47.8" x2="216.8" y2="60.2"/>
		<line class="st7" x1="222.8" y1="47.8" x2="222.8" y2="60.2"/>
		<line class="st7" x1="228.8" y1="47.8" x2="228.8" y2="60.2"/>
		<line class="st7" x1="234.8" y1="47.8" x2="234.8" y2="60.2"/>
		<line class="st7" x1="240.8" y1="47.8" x2="240.8" y2="60.2"/>
		<line class="st7" x1="246.8" y1="47.8" x2="246.8" y2="60.2"/>
		<line class="st7" x1="252.8" y1="47.8" x2="252.8" y2="60.2"/>
		<line class="st7" x1="264" y1="47.8" x2="264" y2="60.2"/>
		<line class="st7" x1="270" y1="47.8" x2="270" y2="60.2"/>
		<line class="st7" x1="276" y1="47.8" x2="276" y2="60.2"/>
		<line class="st7" x1="282" y1="47.8" x2="282" y2="60.2"/>
		<line class="st7" x1="288" y1="47.8" x2="288" y2="60.2"/>
		<line class="st7" x1="294" y1="47.8" x2="294" y2="60.2"/>
		<line class="st7" x1="300" y1="47.8" x2="300" y2="60.2"/>
		<line class="st7" x1="306" y1="47.8" x2="306" y2="60.2"/>
		<line class="st7" x1="311.9" y1="47.8" x2="311.9" y2="60.2"/>
		<line class="st7" x1="317.9" y1="47.8" x2="317.9" y2="60.2"/>
		<line class="st7" x1="323.9" y1="47.8" x2="323.9" y2="60.2"/>
		<line class="st7" x1="329.9" y1="47.8" x2="329.9" y2="60.2"/>
		<line class="st7" x1="341.4" y1="47.8" x2="341.4" y2="60.2"/>
		<line class="st7" x1="347.4" y1="47.8" x2="347.4" y2="60.2"/>
		<line class="st7" x1="353.4" y1="47.8" x2="353.4" y2="60.2"/>
		<line class="st7" x1="359.4" y1="47.8" x2="359.4" y2="60.2"/>
		<line class="st7" x1="365.4" y1="47.8" x2="365.4" y2="60.2"/>
		<line class="st7" x1="371.4" y1="47.8" x2="371.4" y2="60.2"/>
		<line class="st7" x1="377.3" y1="47.8" x2="377.3" y2="60.2"/>
		<line class="st7" x1="383.3" y1="47.8" x2="383.3" y2="60.2"/>
		<line class="st7" x1="389.3" y1="47.8" x2="389.3" y2="60.2"/>
		<line class="st7" x1="395.3" y1="47.8" x2="395.3" y2="60.2"/>
		<line class="st7" x1="401.3" y1="47.8" x2="401.3" y2="60.2"/>
		<line class="st7" x1="407.3" y1="47.8" x2="407.3" y2="60.2"/>
		<line class="st7" x1="419.9" y1="47.8" x2="419.9" y2="60.2"/>
		<line class="st7" x1="425.9" y1="47.8" x2="425.9" y2="60.2"/>
		<line class="st7" x1="431.9" y1="47.8" x2="431.9" y2="60.2"/>
		<line class="st7" x1="437.9" y1="47.8" x2="437.9" y2="60.2"/>
		<line class="st7" x1="443.9" y1="47.8" x2="443.9" y2="60.2"/>
		<line class="st7" x1="449.9" y1="47.8" x2="449.9" y2="60.2"/>
		<line class="st7" x1="455.8" y1="47.8" x2="455.8" y2="60.2"/>
		<line class="st7" x1="461.8" y1="47.8" x2="461.8" y2="60.2"/>
		<line class="st7" x1="467.8" y1="47.8" x2="467.8" y2="60.2"/>
		<line class="st7" x1="473.8" y1="47.8" x2="473.8" y2="60.2"/>
		<line class="st7" x1="479.8" y1="47.8" x2="479.8" y2="60.2"/>
		<line class="st7" x1="485.8" y1="47.8" x2="485.8" y2="60.2"/>
		<line class="st7" x1="495.6" y1="47.8" x2="495.6" y2="60.2"/>
		<line class="st7" x1="501.6" y1="47.8" x2="501.6" y2="60.2"/>
		<line class="st7" x1="507.6" y1="47.8" x2="507.6" y2="60.2"/>
		<line class="st7" x1="513.5" y1="47.8" x2="513.5" y2="60.2"/>
		<line class="st7" x1="519.5" y1="47.8" x2="519.5" y2="60.2"/>
		<line class="st7" x1="525.5" y1="47.8" x2="525.5" y2="60.2"/>
		<line class="st7" x1="531.5" y1="47.8" x2="531.5" y2="60.2"/>
		<line class="st7" x1="537.5" y1="47.8" x2="537.5" y2="60.2"/>
		<line class="st7" x1="543.5" y1="47.8" x2="543.5" y2="60.2"/>
		<line class="st7" x1="549.5" y1="47.8" x2="549.5" y2="60.2"/>
		<line class="st7" x1="555.5" y1="47.8" x2="555.5" y2="60.2"/>
		<line class="st7" x1="561.5" y1="47.8" x2="561.5" y2="60.2"/>
		<line class="st7" x1="572.9" y1="47.8" x2="572.9" y2="60.2"/>
		<line class="st7" x1="578.9" y1="47.8" x2="578.9" y2="60.2"/>
		<line class="st7" x1="584.9" y1="47.8" x2="584.9" y2="60.2"/>
		<line class="st7" x1="590.9" y1="47.8" x2="590.9" y2="60.2"/>
		<line class="st7" x1="596.9" y1="47.8" x2="596.9" y2="60.2"/>
		<line class="st7" x1="602.9" y1="47.8" x2="602.9" y2="60.2"/>
		<line class="st7" x1="608.9" y1="47.8" x2="608.9" y2="60.2"/>
		<line class="st7" x1="614.8" y1="47.8" x2="614.8" y2="60.2"/>
		<line class="st7" x1="620.8" y1="47.8" x2="620.8" y2="60.2"/>
		<line class="st7" x1="626.8" y1="47.8" x2="626.8" y2="60.2"/>
		<line class="st7" x1="632.8" y1="47.8" x2="632.8" y2="60.2"/>
		<line class="st7" x1="638.8" y1="47.8" x2="638.8" y2="60.2"/>
		<line class="st7" x1="650" y1="47.8" x2="650" y2="60.2"/>
		<line class="st7" x1="656" y1="47.8" x2="656" y2="60.2"/>
		<line class="st7" x1="662" y1="47.8" x2="662" y2="60.2"/>
		<line class="st7" x1="667.9" y1="47.8" x2="667.9" y2="60.2"/>
		<line class="st7" x1="673.9" y1="47.8" x2="673.9" y2="60.2"/>
		<line class="st7" x1="679.9" y1="47.8" x2="679.9" y2="60.2"/>
		<line class="st7" x1="685.9" y1="47.8" x2="685.9" y2="60.2"/>
		<line class="st7" x1="691.9" y1="47.8" x2="691.9" y2="60.2"/>
		<line class="st7" x1="697.9" y1="47.8" x2="697.9" y2="60.2"/>
		<line class="st7" x1="703.9" y1="47.8" x2="703.9" y2="60.2"/>
		<line class="st7" x1="709.9" y1="47.8" x2="709.9" y2="60.2"/>
		<line class="st7" x1="715.8" y1="47.8" x2="715.8" y2="60.2"/>
		<line class="st7" x1="729.7" y1="47.8" x2="729.7" y2="60.2"/>
		<line class="st7" x1="735.7" y1="47.8" x2="735.7" y2="60.2"/>
		<line class="st7" x1="741.7" y1="47.8" x2="741.7" y2="60.2"/>
		<line class="st7" x1="747.6" y1="47.8" x2="747.6" y2="60.2"/>
		<line class="st7" x1="753.6" y1="47.8" x2="753.6" y2="60.2"/>
		<line class="st7" x1="759.6" y1="47.8" x2="759.6" y2="60.2"/>
		<line class="st7" x1="765.6" y1="47.8" x2="765.6" y2="60.2"/>
		<line class="st7" x1="771.6" y1="47.8" x2="771.6" y2="60.2"/>
		<line class="st7" x1="777.6" y1="47.8" x2="777.6" y2="60.2"/>
		<line class="st7" x1="783.6" y1="47.8" x2="783.6" y2="60.2"/>
		<line class="st7" x1="789.6" y1="47.8" x2="789.6" y2="60.2"/>
		<line class="st7" x1="795.6" y1="47.8" x2="795.6" y2="60.2"/>
		<line class="st7" x1="804.2" y1="47.8" x2="804.2" y2="60.2"/>
		<line class="st7" x1="810.2" y1="47.8" x2="810.2" y2="60.2"/>
		<line class="st7" x1="816.1" y1="47.8" x2="816.1" y2="60.2"/>
		<line class="st7" x1="822.1" y1="47.8" x2="822.1" y2="60.2"/>
		<line class="st7" x1="828.1" y1="47.8" x2="828.1" y2="60.2"/>
		<line class="st7" x1="834.1" y1="47.8" x2="834.1" y2="60.2"/>
		<line class="st7" x1="840.1" y1="47.8" x2="840.1" y2="60.2"/>
		<line class="st7" x1="846.1" y1="47.8" x2="846.1" y2="60.2"/>
		<line class="st7" x1="852.1" y1="47.8" x2="852.1" y2="60.2"/>
		<line class="st7" x1="858.1" y1="47.8" x2="858.1" y2="60.2"/>
		<line class="st7" x1="864" y1="47.8" x2="864" y2="60.2"/>
		<line class="st7" x1="870" y1="47.8" x2="870" y2="60.2"/>
		<line class="st7" x1="881.8" y1="47.8" x2="881.8" y2="60.2"/>
		<line class="st7" x1="887.8" y1="47.8" x2="887.8" y2="60.2"/>
		<line class="st7" x1="893.8" y1="47.8" x2="893.8" y2="60.2"/>
		<line class="st7" x1="899.8" y1="47.8" x2="899.8" y2="60.2"/>
		<line class="st7" x1="905.8" y1="47.8" x2="905.8" y2="60.2"/>
		<line class="st7" x1="911.8" y1="47.8" x2="911.8" y2="60.2"/>
		<line class="st7" x1="917.8" y1="47.8" x2="917.8" y2="60.2"/>
		<line class="st7" x1="923.8" y1="47.8" x2="923.8" y2="60.2"/>
		<line class="st7" x1="929.8" y1="47.8" x2="929.8" y2="60.2"/>
		<line class="st7" x1="935.8" y1="47.8" x2="935.8" y2="60.2"/>
		<line class="st7" x1="941.7" y1="47.8" x2="941.7" y2="60.2"/>
		<line class="st7" x1="947.7" y1="47.8" x2="947.7" y2="60.2"/>
		<line class="st7" x1="960" y1="47.8" x2="960" y2="60.2"/>
		<line class="st7" x1="966" y1="47.8" x2="966" y2="60.2"/>
		<line class="st7" x1="972" y1="47.8" x2="972" y2="60.2"/>
		<line class="st7" x1="978" y1="47.8" x2="978" y2="60.2"/>
		<line class="st7" x1="984" y1="47.8" x2="984" y2="60.2"/>
		<line class="st7" x1="990" y1="47.8" x2="990" y2="60.2"/>
		<line class="st7" x1="996" y1="47.8" x2="996" y2="60.2"/>
		<line class="st7" x1="1002" y1="47.8" x2="1002" y2="60.2"/>
		<line class="st7" x1="1008" y1="47.8" x2="1008" y2="60.2"/>
		<line class="st7" x1="1013.9" y1="47.8" x2="1013.9" y2="60.2"/>
		<line class="st7" x1="1019.9" y1="47.8" x2="1019.9" y2="60.2"/>
		<line class="st7" x1="1025.9" y1="47.8" x2="1025.9" y2="60.2"/>
		<line class="st7" x1="1037.5" y1="47.8" x2="1037.5" y2="60.2"/>
		<line class="st7" x1="1043.5" y1="47.8" x2="1043.5" y2="60.2"/>
		<line class="st7" x1="1049.5" y1="47.8" x2="1049.5" y2="60.2"/>
		<line class="st7" x1="1055.5" y1="47.8" x2="1055.5" y2="60.2"/>
		<line class="st7" x1="1061.4" y1="47.8" x2="1061.4" y2="60.2"/>
		<line class="st7" x1="1067.4" y1="47.8" x2="1067.4" y2="60.2"/>
		<line class="st7" x1="1073.4" y1="47.8" x2="1073.4" y2="60.2"/>
		<line class="st7" x1="1079.4" y1="47.8" x2="1079.4" y2="60.2"/>
		<line class="st7" x1="1085.4" y1="47.8" x2="1085.4" y2="60.2"/>
		<line class="st7" x1="1091.4" y1="47.8" x2="1091.4" y2="60.2"/>
		<line class="st7" x1="1097.4" y1="47.8" x2="1097.4" y2="60.2"/>
		<line class="st7" x1="1103.4" y1="47.8" x2="1103.4" y2="60.2"/>
		<line class="st7" x1="1113.8" y1="47.8" x2="1113.8" y2="60.2"/>
		<line class="st7" x1="1119.8" y1="47.8" x2="1119.8" y2="60.2"/>
		<line class="st7" x1="1125.8" y1="47.8" x2="1125.8" y2="60.2"/>
		<line class="st7" x1="1131.8" y1="47.8" x2="1131.8" y2="60.2"/>
		<line class="st7" x1="1137.8" y1="47.8" x2="1137.8" y2="60.2"/>
		<line class="st7" x1="1143.7" y1="47.8" x2="1143.7" y2="60.2"/>
		<line class="st7" x1="1149.7" y1="47.8" x2="1149.7" y2="60.2"/>
		<line class="st7" x1="1155.7" y1="47.8" x2="1155.7" y2="60.2"/>
		<line class="st7" x1="1161.7" y1="47.8" x2="1161.7" y2="60.2"/>
		<line class="st7" x1="1167.7" y1="47.8" x2="1167.7" y2="60.2"/>
		<line class="st7" x1="1173.7" y1="47.8" x2="1173.7" y2="60.2"/>
		<rect x="3.8" y="54.8" class="st5" width="23.5" height="947.7"/>
		<line class="st6" x1="3.8" y1="60.1" x2="27.4" y2="60.1"/>
		<line class="st6" x1="3.8" y1="154.8" x2="27.4" y2="154.8"/>
		<line class="st6" x1="3.8" y1="249.6" x2="27.4" y2="249.6"/>
		<line class="st6" x1="3.8" y1="344.4" x2="27.4" y2="344.4"/>
		<line class="st6" x1="3.8" y1="439.1" x2="27.4" y2="439.1"/>
		<line class="st6" x1="3.8" y1="533.9" x2="27.4" y2="533.9"/>
		<line class="st6" x1="3.8" y1="628.7" x2="27.4" y2="628.7"/>
		<line class="st6" x1="3.8" y1="723.4" x2="27.4" y2="723.4"/>
		<line class="st6" x1="3.8" y1="818.2" x2="27.4" y2="818.2"/>
		<line class="st6" x1="3.8" y1="913" x2="27.4" y2="913"/>
		<line class="st7" x1="16.8" y1="67.3" x2="27.4" y2="67.3"/>
		<line class="st7" x1="16.8" y1="74.7" x2="27.4" y2="74.7"/>
		<line class="st7" x1="16.8" y1="82" x2="27.4" y2="82"/>
		<line class="st7" x1="16.8" y1="89.3" x2="27.4" y2="89.3"/>
		<line class="st7" x1="16.8" y1="96.7" x2="27.4" y2="96.7"/>
		<line class="st7" x1="16.8" y1="104" x2="27.4" y2="104"/>
		<line class="st7" x1="16.8" y1="111.4" x2="27.4" y2="111.4"/>
		<line class="st7" x1="16.8" y1="118.7" x2="27.4" y2="118.7"/>
		<line class="st7" x1="16.8" y1="126.1" x2="27.4" y2="126.1"/>
		<line class="st7" x1="16.8" y1="133.4" x2="27.4" y2="133.4"/>
		<line class="st7" x1="16.8" y1="140.7" x2="27.4" y2="140.7"/>
		<line class="st7" x1="16.8" y1="148.1" x2="27.4" y2="148.1"/>
		<line class="st7" x1="16.8" y1="162" x2="27.4" y2="162"/>
		<line class="st7" x1="16.8" y1="169.3" x2="27.4" y2="169.3"/>
		<line class="st7" x1="16.8" y1="176.7" x2="27.4" y2="176.7"/>
		<line class="st7" x1="16.8" y1="184" x2="27.4" y2="184"/>
		<line class="st7" x1="16.8" y1="191.4" x2="27.4" y2="191.4"/>
		<line class="st7" x1="16.8" y1="198.7" x2="27.4" y2="198.7"/>
		<line class="st7" x1="16.8" y1="206.1" x2="27.4" y2="206.1"/>
		<line class="st7" x1="16.8" y1="213.4" x2="27.4" y2="213.4"/>
		<line class="st7" x1="16.8" y1="220.7" x2="27.4" y2="220.7"/>
		<line class="st7" x1="16.8" y1="228.1" x2="27.4" y2="228.1"/>
		<line class="st7" x1="16.8" y1="235.4" x2="27.4" y2="235.4"/>
		<line class="st7" x1="16.8" y1="242.8" x2="27.4" y2="242.8"/>
		<line class="st7" x1="16.8" y1="256.8" x2="27.4" y2="256.8"/>
		<line class="st7" x1="16.8" y1="264.2" x2="27.4" y2="264.2"/>
		<line class="st7" x1="16.8" y1="271.5" x2="27.4" y2="271.5"/>
		<line class="st7" x1="16.8" y1="278.9" x2="27.4" y2="278.9"/>
		<line class="st7" x1="16.8" y1="286.2" x2="27.4" y2="286.2"/>
		<line class="st7" x1="16.8" y1="293.6" x2="27.4" y2="293.6"/>
		<line class="st7" x1="16.8" y1="300.9" x2="27.4" y2="300.9"/>
		<line class="st7" x1="16.8" y1="308.2" x2="27.4" y2="308.2"/>
		<line class="st7" x1="16.8" y1="315.6" x2="27.4" y2="315.6"/>
		<line class="st7" x1="16.8" y1="322.9" x2="27.4" y2="322.9"/>
		<line class="st7" x1="16.8" y1="330.3" x2="27.4" y2="330.3"/>
		<line class="st7" x1="16.8" y1="337.6" x2="27.4" y2="337.6"/>
		<line class="st7" x1="16.8" y1="351.5" x2="27.4" y2="351.5"/>
		<line class="st7" x1="16.8" y1="358.8" x2="27.4" y2="358.8"/>
		<line class="st7" x1="16.8" y1="366.1" x2="27.4" y2="366.1"/>
		<line class="st7" x1="16.8" y1="373.5" x2="27.4" y2="373.5"/>
		<line class="st7" x1="16.8" y1="380.8" x2="27.4" y2="380.8"/>
		<line class="st7" x1="16.8" y1="388.2" x2="27.4" y2="388.2"/>
		<line class="st7" x1="16.8" y1="395.5" x2="27.4" y2="395.5"/>
		<line class="st7" x1="16.8" y1="402.9" x2="27.4" y2="402.9"/>
		<line class="st7" x1="16.8" y1="410.2" x2="27.4" y2="410.2"/>
		<line class="st7" x1="16.8" y1="417.6" x2="27.4" y2="417.6"/>
		<line class="st7" x1="16.8" y1="424.9" x2="27.4" y2="424.9"/>
		<line class="st7" x1="16.8" y1="432.2" x2="27.4" y2="432.2"/>
		<line class="st7" x1="16.8" y1="446.3" x2="27.4" y2="446.3"/>
		<line class="st7" x1="16.8" y1="453.7" x2="27.4" y2="453.7"/>
		<line class="st7" x1="16.8" y1="461" x2="27.4" y2="461"/>
		<line class="st7" x1="16.8" y1="468.4" x2="27.4" y2="468.4"/>
		<line class="st7" x1="16.8" y1="475.7" x2="27.4" y2="475.7"/>
		<line class="st7" x1="16.8" y1="483.1" x2="27.4" y2="483.1"/>
		<line class="st7" x1="16.8" y1="490.4" x2="27.4" y2="490.4"/>
		<line class="st7" x1="16.8" y1="497.7" x2="27.4" y2="497.7"/>
		<line class="st7" x1="16.8" y1="505.1" x2="27.4" y2="505.1"/>
		<line class="st7" x1="16.8" y1="512.4" x2="27.4" y2="512.4"/>
		<line class="st7" x1="16.8" y1="519.8" x2="27.4" y2="519.8"/>
		<line class="st7" x1="16.8" y1="527.1" x2="27.4" y2="527.1"/>
		<line class="st7" x1="16.8" y1="542.6" x2="27.4" y2="542.6"/>
		<line class="st7" x1="16.8" y1="549.9" x2="27.4" y2="549.9"/>
		<line class="st7" x1="16.8" y1="557.3" x2="27.4" y2="557.3"/>
		<line class="st7" x1="16.8" y1="564.6" x2="27.4" y2="564.6"/>
		<line class="st7" x1="16.8" y1="572" x2="27.4" y2="572"/>
		<line class="st7" x1="16.8" y1="579.3" x2="27.4" y2="579.3"/>
		<line class="st7" x1="16.8" y1="586.7" x2="27.4" y2="586.7"/>
		<line class="st7" x1="16.8" y1="594" x2="27.4" y2="594"/>
		<line class="st7" x1="16.8" y1="601.4" x2="27.4" y2="601.4"/>
		<line class="st7" x1="16.8" y1="608.7" x2="27.4" y2="608.7"/>
		<line class="st7" x1="16.8" y1="616" x2="27.4" y2="616"/>
		<line class="st7" x1="16.8" y1="623.4" x2="27.4" y2="623.4"/>
		<line class="st7" x1="16.8" y1="635.4" x2="27.4" y2="635.4"/>
		<line class="st7" x1="16.8" y1="642.8" x2="27.4" y2="642.8"/>
		<line class="st7" x1="16.8" y1="650.1" x2="27.4" y2="650.1"/>
		<line class="st7" x1="16.8" y1="657.4" x2="27.4" y2="657.4"/>
		<line class="st7" x1="16.8" y1="664.8" x2="27.4" y2="664.8"/>
		<line class="st7" x1="16.8" y1="672.1" x2="27.4" y2="672.1"/>
		<line class="st7" x1="16.8" y1="679.5" x2="27.4" y2="679.5"/>
		<line class="st7" x1="16.8" y1="686.8" x2="27.4" y2="686.8"/>
		<line class="st7" x1="16.8" y1="694.2" x2="27.4" y2="694.2"/>
		<line class="st7" x1="16.8" y1="701.5" x2="27.4" y2="701.5"/>
		<line class="st7" x1="16.8" y1="708.8" x2="27.4" y2="708.8"/>
		<line class="st7" x1="16.8" y1="716.2" x2="27.4" y2="716.2"/>
		<line class="st7" x1="16.8" y1="730.3" x2="27.4" y2="730.3"/>
		<line class="st7" x1="16.8" y1="737.6" x2="27.4" y2="737.6"/>
		<line class="st7" x1="16.8" y1="744.9" x2="27.4" y2="744.9"/>
		<line class="st7" x1="16.8" y1="752.3" x2="27.4" y2="752.3"/>
		<line class="st7" x1="16.8" y1="759.6" x2="27.4" y2="759.6"/>
		<line class="st7" x1="16.8" y1="767" x2="27.4" y2="767"/>
		<line class="st7" x1="16.8" y1="774.3" x2="27.4" y2="774.3"/>
		<line class="st7" x1="16.8" y1="781.7" x2="27.4" y2="781.7"/>
		<line class="st7" x1="16.8" y1="789" x2="27.4" y2="789"/>
		<line class="st7" x1="16.8" y1="796.3" x2="27.4" y2="796.3"/>
		<line class="st7" x1="16.8" y1="803.7" x2="27.4" y2="803.7"/>
		<line class="st7" x1="16.8" y1="811" x2="27.4" y2="811"/>
		<line class="st7" x1="16.8" y1="824.7" x2="27.4" y2="824.7"/>
		<line class="st7" x1="16.8" y1="832.1" x2="27.4" y2="832.1"/>
		<line class="st7" x1="16.8" y1="839.4" x2="27.4" y2="839.4"/>
		<line class="st7" x1="16.8" y1="846.8" x2="27.4" y2="846.8"/>
		<line class="st7" x1="16.8" y1="854.1" x2="27.4" y2="854.1"/>
		<line class="st7" x1="16.8" y1="861.4" x2="27.4" y2="861.4"/>
		<line class="st7" x1="16.8" y1="868.8" x2="27.4" y2="868.8"/>
		<line class="st7" x1="16.8" y1="876.1" x2="27.4" y2="876.1"/>
		<line class="st7" x1="16.8" y1="883.5" x2="27.4" y2="883.5"/>
		<line class="st7" x1="16.8" y1="890.8" x2="27.4" y2="890.8"/>
		<line class="st7" x1="16.8" y1="898.2" x2="27.4" y2="898.2"/>
		<line class="st7" x1="16.8" y1="905.5" x2="27.4" y2="905.5"/>
		<line class="st7" x1="16.8" y1="922.5" x2="27.4" y2="922.5"/>
		<line class="st7" x1="16.8" y1="929.8" x2="27.4" y2="929.8"/>
		<line class="st7" x1="16.8" y1="937.2" x2="27.4" y2="937.2"/>
		<line class="st7" x1="16.8" y1="944.5" x2="27.4" y2="944.5"/>
		<line class="st7" x1="16.8" y1="951.8" x2="27.4" y2="951.8"/>
		<line class="st7" x1="16.8" y1="959.2" x2="27.4" y2="959.2"/>
		<line class="st7" x1="16.8" y1="966.5" x2="27.4" y2="966.5"/>
		<line class="st7" x1="16.8" y1="973.9" x2="27.4" y2="973.9"/>
		<line class="st7" x1="16.8" y1="981.2" x2="27.4" y2="981.2"/>
		<line class="st7" x1="16.8" y1="988.6" x2="27.4" y2="988.6"/>
		<line class="st7" x1="16.8" y1="995.9" x2="27.4" y2="995.9"/>
		<line class="st7" x1="16.8" y1="1003.3" x2="27.4" y2="1003.3"/>
		<rect x="2.9" class="st5" width="1186.2" height="30.8"/>
	</g>
</g>
</svg>
