<svg xmlns="http://www.w3.org/2000/svg" viewBox="0 0 2415.57 1219.2"><defs><style>.cls-1{fill:#5c6693;}.cls-2,.cls-3{fill:#ededed;}.cls-3{opacity:0.19;}.cls-3,.cls-6,.cls-7{isolation:isolate;}.cls-4,.cls-6,.cls-7{fill:none;stroke-miterlimit:10;}.cls-4{stroke:#384173;stroke-width:0.25px;}.cls-5{fill:#384173;}.cls-6,.cls-7{stroke:#ededed;opacity:0.5;}.cls-7{stroke-width:0.5px;}</style></defs><g id="Layer_2" data-name="Layer 2"><g id="Layer_1-2" data-name="Layer 1"><rect class="cls-1" y="0.82" width="45.56" height="855.55"/><g id="Layer_2-2" data-name="Layer 2"><g id="Draw_Layer" data-name="Draw Layer"><path class="cls-2" d="M15.39,12.61a4,4,0,0,0-.06,1c0,.38,0,.76,0,1.14-.06.92,0,1.85,0,2.78v2.56c0,.45,0,.9,0,1.35s0,.66.05,1,0,.95,0,1.43,0,1.07,0,1.6a21,21,0,0,0,.19,2.64c0-.09,0-.18,0-.27,0,.33.06.66.09,1a8,8,0,0,1,0,1.2,1,1,0,1,0,2.08,0,10.59,10.59,0,0,0,0-1.26c0-.38-.07-.76-.12-1.14v.08c0-.31,0-.62-.07-.93s-.05-.79-.05-1.19,0-.9,0-1.36-.06-.94-.06-1.41,0-.65,0-1,0-.81,0-1.21c0-.87,0-1.73,0-2.59V16.56c0-.49,0-1,0-1.48a14.65,14.65,0,0,0,1.43,1.41,7.56,7.56,0,0,1,.78.82c.27.33.57.62.85.93s.52.62.79.91a6.36,6.36,0,0,0,.92.8,6.2,6.2,0,0,1,.82.8,8.5,8.5,0,0,0,.66.68c.24.21.45.45.68.67s.49.4.75.59.48.41.72.61a8.59,8.59,0,0,1,.68.67,9.86,9.86,0,0,0,1.33,1.17,1,1,0,0,0,1.42-.37,1,1,0,0,0,.1-.8,1.1,1.1,0,0,0-.48-.62h0a13.64,13.64,0,0,1-1.1-1.05A16.27,16.27,0,0,0,26,20.81h0a5.43,5.43,0,0,1-.65-.62c-.19-.19-.39-.36-.58-.54s-.43-.49-.65-.73a7.88,7.88,0,0,0-1-.78,6.7,6.7,0,0,1-.74-.77c-.28-.33-.56-.65-.86-.95s-.58-.69-.9-1-.55-.51-.83-.76-.55-.56-.82-.84-.53-.61-.82-.88l-.66-.6-.13-.12a1.77,1.77,0,0,0-.58-.34.86.86,0,0,0-.36-.07,1.13,1.13,0,0,0-1.06.81Zm13.5,10.8.06.05Z"/><path class="cls-2" d="M20.22,24.87a5.4,5.4,0,0,1-.56.61c-.23.23-.44.47-.65.72-.4.48-.8,1-1.18,1.47s-1,1.11-1.5,1.67a1.19,1.19,0,0,0-.3.74,1.05,1.05,0,0,0,1,1,1.07,1.07,0,0,0,.73-.31c.3-.35.63-.69,1-1s.64-.76.94-1.15.65-.8,1-1.19.7-.69,1-1.09a1.16,1.16,0,0,0,.3-.73,1,1,0,0,0-1-1,1,1,0,0,0-.73.3Z"/><path class="cls-2" d="M28.36,23.9a1.11,1.11,0,0,0-.58.42,7.46,7.46,0,0,0-1-.11H24.31c-.39,0-.78,0-1.16,0l-.5-.08-.44-.05L22,24a1.06,1.06,0,0,0-.8.1,1,1,0,0,0-.37,1.41h0a1,1,0,0,0,.62.47l.88.12.15,0a8.44,8.44,0,0,0,1.33.13h2.46c.34,0,.68,0,1,0a4.5,4.5,0,0,0,.51.08c.21,0,.42,0,.63,0a2.81,2.81,0,0,0,.65,0,1.11,1.11,0,0,0,.79-.85,1.12,1.12,0,0,0,0-.32,1.15,1.15,0,0,0-.14-.55,1.73,1.73,0,0,0-.22-.31l0,0-.1-.13a1.08,1.08,0,0,0-.3-.26.87.87,0,0,0-.5-.15,1.54,1.54,0,0,0-.3,0Zm1.2.51,0,0Zm-1.67,1.21,0,0h0l0,0Zm0,0,.11.1-.1-.08v0Zm0,0v0Zm.09.11h0l.05.07Zm.1,0h0Zm-5.46-1.7.17,0-.18,0Zm0,0-.1,0Z"/><path class="cls-2" d="M16,37.93a1,1,0,0,0-.41.7c0,.1,0,.2,0,.3s0,.14,0,.22c0,.3,0,.61,0,.91s0,.57,0,.85,0,.5,0,.74l0,.59c0,.38,0,.77,0,1.16s0,.66,0,1l0,.53c0,.8,0,1.59,0,2.39v1l0-.1c0,.37,0,.73,0,1.09s0,.63,0,.94,0,.79-.06,1.19-.05.7-.07,1.05,0,.64,0,1l0,.41v.31l0,.61c0,.18,0,.36,0,.53s0,.36,0,.53a2.43,2.43,0,0,0,0,.27l.12.16.13.1,0,0h0l0,0h0l.07,0a6.16,6.16,0,0,0,.55.33l.12,0h0a1.43,1.43,0,0,0,.28-.07,2.93,2.93,0,0,1,.41-.07,2.62,2.62,0,0,0,.4-.11l.23-.14a4.64,4.64,0,0,0,.49-.5c.2-.32.38-.64.6-.94s.21-.32.31-.48.29-.44.42-.68.41-.78.65-1.16c.09-.18.18-.36.28-.54a2.83,2.83,0,0,1,.2-.28l.3,0a.64.64,0,0,1,.2,0,.87.87,0,0,1,.28,0h2.94l.47,0c.23,0,.46,0,.7,0s.57,0,.86,0h.17l.65,0,.62,0,.08,0,.09,0h0a1.43,1.43,0,0,1,.43-.25l.07,0,.16-.1a1.5,1.5,0,0,0,.23-.15l.07-.06h0l0,0,0,0,.09-.16,0-.19h0a2.28,2.28,0,0,0,0-.26.5.5,0,0,0,0,.12c0-.07,0-.15,0-.21a1.6,1.6,0,0,1,0-.21c-.3-.27-.61-.55-.93-.79l-.07-.05-.74-.62c-.15-.12-.3-.23-.44-.36l-.36-.34c-.27-.24-.51-.52-.79-.75a8.09,8.09,0,0,1-.81-.73c-.2-.22-.4-.42-.61-.61s-.37-.39-.57-.58c-.52-.48-1-1-1.57-1.45a8.4,8.4,0,0,1-.76-.7l-.65-.69c-.44-.47-.91-.92-1.34-1.41s-.92-1-1.39-1.42-1-1-1.51-1.53l-.49-.47a1.06,1.06,0,0,0-.37.18ZM28.38,51.8s0,0,0,0S28.38,51.81,28.38,51.8Z"/><polygon class="cls-2" points="29.32 51.24 29.32 51.24 29.32 51.24 29.32 51.24 29.32 51.24"/><path class="cls-2" d="M15.76,56.22h0l0,0S15.75,56.22,15.76,56.22Z"/><path class="cls-2" d="M16,56.38h0l0,0Z"/><path class="cls-2" d="M17.47,56.63h0Z"/><path class="cls-2" d="M16.78,56.79h0Z"/><path class="cls-2" d="M29.38,51.19l0,0,0,0Z"/><path class="cls-2" d="M29.33,51.24h0l-.09.07h0l.07-.06Z"/><path class="cls-2" d="M28.33,51.85l0,0h0l0,0Z"/><path class="cls-2" d="M20.33,63.27h-.54a7.5,7.5,0,0,0-.81.11l-.25.05.28-.05a3.5,3.5,0,0,1-.56,0c-.18,0-.35,0-.53,0a6.79,6.79,0,0,0-.9-.05c-.27,0-.55,0-.82,0a4.21,4.21,0,0,0-.62,0,1,1,0,0,0,.07,2.08h.2a7.83,7.83,0,0,0,1.08.07c.27,0,.55,0,.82,0a1.74,1.74,0,0,0,.51,0l.26,0h.3a4.86,4.86,0,0,0,.55-.07l-.27,0,.25,0a4.43,4.43,0,0,1,.51-.06h.49l.55,0h.57a2,2,0,0,0,.42,0l.27,0a1,1,0,0,0,.46-2,2,2,0,0,0-.55,0l-.27,0a4.07,4.07,0,0,0-.5,0h-.46l-.51,0Zm-4,.1h0Zm1.72.07h0Zm1.56,1.92-.25,0Zm-1.8.12h0Z"/><path class="cls-2" d="M15.53,63.51a1.06,1.06,0,0,0-1,1.07v.12l0-.27c-.08.79-.09,1.58-.11,2.37,0,.4,0,.8,0,1.2s.05.87.05,1.31c0,.87,0,1.75,0,2.62,0,.46,0,.93,0,1.39s0,1,0,1.47c0,.27,0,.55,0,.82s0,.51,0,.76c0,.57,0,1.14-.05,1.7a1,1,0,0,0,1.07,1,1,1,0,0,0,.73-.34,1.12,1.12,0,0,0,.28-.74c0-.41,0-.83,0-1.25s0-.66,0-1,0-.74,0-1.1,0-1,0-1.47c0-.91,0-1.83,0-2.75V69.19c0-.43,0-.87,0-1.31s0-1.09,0-1.63,0-1,.05-1.42a3,3,0,0,0,0-.31,1,1,0,0,0-1-1Z"/><path class="cls-2" d="M18.83,77.23c-.33,0-.65,0-1,.06h-.51l-.58,0a8.55,8.55,0,0,1-.88,0l-.51,0a1,1,0,0,0-.73.33,1,1,0,0,0-.27.74,1.06,1.06,0,0,0,.33.73,1.18,1.18,0,0,0,.74.27h0a3.57,3.57,0,0,0,.46,0,.54.54,0,0,0,.18,0h.19l.59,0c.2,0,.4,0,.6,0s.33,0,.49,0l1-.08c.38,0,.76,0,1.13,0s.7,0,1,0h-.05a2.09,2.09,0,0,0,.5,0,1.79,1.79,0,0,1,.4,0h.71a1.1,1.1,0,0,0,.71-.15,1,1,0,0,0,.45-.64,1.08,1.08,0,0,0-.14-.8,1,1,0,0,0-.64-.45c-.37,0-.73,0-1.1,0a2.71,2.71,0,0,0-.4,0,2.14,2.14,0,0,1-.44,0h.08c-.43,0-.86,0-1.28,0a4.24,4.24,0,0,1-.51,0H19.3c-.16,0-.32,0-.48,0Z"/><path class="cls-2" d="M22.25,63.54A1,1,0,0,0,21.93,65a2.71,2.71,0,0,0,.56.61,2,2,0,0,1,.29.29,4.59,4.59,0,0,0,.55.53c.2.16.4.32.59.5s.17.17.26.26a2.48,2.48,0,0,0,.36.28,3.39,3.39,0,0,1,.44.41,3.58,3.58,0,0,0,.26.29l.22.18c.18.17.37.34.56.49v0l0,0,.06,0-.05,0a1.09,1.09,0,0,0,.48.27,1,1,0,0,0,1.1-1.58,1.28,1.28,0,0,0-.28-.29h0a1.51,1.51,0,0,1-.23-.21l-.25-.21a3.09,3.09,0,0,1-.38-.35l.06.08c-.11-.13-.22-.26-.34-.38a4,4,0,0,0-.61-.48l.22.16a5.79,5.79,0,0,1-.51-.48c-.16-.16-.35-.3-.53-.45a4.32,4.32,0,0,1-.5-.45L24,64.18c-.09-.09-.2-.16-.29-.25l-.06-.08A1.13,1.13,0,0,0,23,63.4a.9.9,0,0,0-.23,0,1,1,0,0,0-.57.16ZM26,68.82h0Zm0,0h0l0,0Z"/><path class="cls-2" d="M27,67.31a1.07,1.07,0,0,0-1,1.08c0,.59.14,1.18.1,1.78a1.1,1.1,0,0,0,0,.18,12.36,12.36,0,0,0,0,1.36,1,1,0,1,0,2.07,0v-.07c0-.4,0-.81,0-1.21a5.43,5.43,0,0,0,0-1.14,6.24,6.24,0,0,1-.07-1,1.06,1.06,0,0,0-1.05-1Zm1.14,3.06v0h0c0,.06,0,.12,0,.17v0c0-.08,0-.17,0-.25Zm0,.13v0Zm0,.12h0v0h0v0ZM26,70.45v-.1l0-.16Z"/><path class="cls-2" d="M21.44,63.37a1,1,0,0,0-.69,1.3c.06.21.13.42.17.64a4.93,4.93,0,0,1,0,.54c0,.29.08.58.1.87s0,.49,0,.73a5.09,5.09,0,0,1,0,.55c0,.09,0,.18,0,.27A2.84,2.84,0,0,0,21,69a1.11,1.11,0,0,0,.34.73A1,1,0,0,0,23,69a.2.2,0,0,0,0-.07c0-.31.1-.62.13-.94s0-.56,0-.84a5.42,5.42,0,0,0,0-.57c0-.21-.06-.42-.08-.63l0-.35c0-.16,0-.32-.05-.48v0a1.18,1.18,0,0,0,0-.2L23,65c-.06-.32-.13-.63-.22-1a1.07,1.07,0,0,0-1.3-.68Z"/><path class="cls-2" d="M25.16,68.15l-.23,0h-.55a7.37,7.37,0,0,0-.93.11l.28,0c-.57.09-1.14,0-1.72.11a1.16,1.16,0,0,0-.73.34,1.05,1.05,0,0,0,.07,1.47,1,1,0,0,0,.73.27,5.43,5.43,0,0,1,.9,0,4.91,4.91,0,0,0,.86-.08h0l.25,0-.19,0c.2,0,.41,0,.61,0h.33a1.63,1.63,0,0,0,.43,0h0l.43,0H26l.17,0a1,1,0,0,0,.46-2,5.63,5.63,0,0,0-.92-.1l-.17,0c-.1,0-.2,0-.3,0h-.09Zm.41,0h0Zm-1.72,2.13h0Z"/><path class="cls-2" d="M24.41,73.16c0,.17,0,.33,0,.5s0,.32,0,.48l0,.41c0,.14,0,.3,0,.45s0,.32,0,.49,0,.36,0,.55,0,.32,0,.48l0,.63c0,.32,0,.64,0,.95s0,.53,0,.79,0,.54,0,.82V80c0,.12,0,.25,0,.38a.21.21,0,0,0,.23.19.21.21,0,0,0,.19-.22,4.61,4.61,0,0,1,0-.52c0-.17,0-.34,0-.52s0-.46,0-.7V78c0-.25,0-.51,0-.76s0-.44,0-.65,0-.33,0-.49v-.55c0-.2,0-.41,0-.61a2.64,2.64,0,0,1,0-.28c0-.09,0-.2,0-.3s0-.35,0-.53v-.3a2.61,2.61,0,0,1,0-.28v0h0v0a.23.23,0,0,0-.2-.25.21.21,0,0,0-.21.18Z"/><path class="cls-2" d="M24.5,73.16a.21.21,0,0,0,.17.24l.1,0h0l.34.14a2.21,2.21,0,0,1,.35.16,2.31,2.31,0,0,0,.35.18c.16.07.32.12.47.2s.3.17.45.26l.4.22.41.25.39.21a.05.05,0,0,1,0,0l.4.28.4.25-.05,0c.13.08.25.17.37.26l.4.25h0l0,0,0,0,.2.14.31.19.22.16.24.16.12.07h0l0,0h0l.17.1h0l0,0,0,0h0l.1.07A.24.24,0,0,0,31,77a.21.21,0,0,0,.14-.07.21.21,0,0,0,0-.29h0L31,76.56l-.15-.09-.15-.1h0l-.16-.1c-.1-.06-.18-.13-.28-.2l-.28-.16-.27-.2-.37-.23,0,0L29,75.26c-.12-.09-.25-.16-.38-.24s-.28-.21-.43-.3-.3-.18-.46-.27l-.46-.27c-.16-.08-.31-.17-.46-.26a5.86,5.86,0,0,0-.55-.3,2.35,2.35,0,0,1-.43-.19c-.14-.06-.27-.14-.4-.21l-.19-.07L25,73.07,24.74,73h0a.22.22,0,0,0-.2.18Zm6.19,3.73h0Zm-2.76-1.83h0Z"/><path class="cls-2" d="M26.82,77.56a.24.24,0,0,0-.13.11c-.06.11-.11.22-.16.33s-.07.14-.1.22a4.68,4.68,0,0,1-.18.48c-.08.16-.12.34-.19.51a1.51,1.51,0,0,1-.15.28l-.09.17-.07.08-.15.14a1.92,1.92,0,0,0-.14.15l-.05,0-.14.06a.76.76,0,0,0-.16.06h-.05a1.18,1.18,0,0,1-.19-.11.22.22,0,0,0-.16,0,.22.22,0,0,0-.12.11.29.29,0,0,0,0,.16.25.25,0,0,0,.11.12l.13.07.17.07a.53.53,0,0,0,.35,0,2,2,0,0,0,.34-.14.67.67,0,0,0,.15-.14l.12-.13.12-.11a1.13,1.13,0,0,0,.1-.13c0-.08.08-.16.13-.24l.09-.16a.87.87,0,0,0,.07-.17c0-.1.07-.21.11-.31s.07-.16.1-.23.07-.2.1-.3a2.77,2.77,0,0,1,.1-.26l.18-.37a.16.16,0,0,0,0-.15.22.22,0,0,0-.11-.12l-.08,0h-.05ZM26,80.12l0,0Zm-.91,0h0Zm.11,0h0Z"/><path class="cls-2" d="M30.7,76.61a.21.21,0,0,0-.05.29l0,.06v0h0a.43.43,0,0,0,0,0v0a.61.61,0,0,1-.07.14l-.09.12-.13.15a.82.82,0,0,1-.2.12l-.14,0-.24,0h-.2l-.43,0a3.16,3.16,0,0,1-.32,0l-.3,0a2.21,2.21,0,0,1-.37-.08l-.42-.1h0l-.3-.08-.14,0-.14,0a.22.22,0,0,0-.16,0,.22.22,0,0,0-.08.14.16.16,0,0,0,0,.15.19.19,0,0,0,.14.09l.21.05.25,0,.25.08.17,0,.33.08.49.08.29,0,.19,0a3,3,0,0,0,.42,0H30l.22,0a1,1,0,0,0,.3-.13.88.88,0,0,0,.27-.21,2.51,2.51,0,0,0,.19-.24L31,77.3a.76.76,0,0,0,0-.11v0h0a.5.5,0,0,0,0-.24.93.93,0,0,0-.12-.27.21.21,0,0,0-.17-.09.16.16,0,0,0-.12,0Zm0,.4h0Zm0,0h0v0Zm-.05.12,0,0Zm-.54.47h0Z"/><path class="cls-2" d="M26.77,77.51a.21.21,0,0,0,.21.21.21.21,0,1,0,0-.41A.2.2,0,0,0,26.77,77.51Z"/><path class="cls-2" d="M21.44,142.85h-.06l-.08,0-.37.09-.23.05-.12,0-.14,0a.82.82,0,0,0-.19.06l-.31.1-.24.1-.17.06-.1,0a5.38,5.38,0,0,0-.51.2l-.11,0-.08,0-.13,0-.09,0a1,1,0,0,0-.23.12l-.16.08-.22.12-.12.06-.2.11-.15.1c-.27.19-.5.35-.72.52l-.29.26-.1.08a3.34,3.34,0,0,0-.33.32l-.18.22a.93.93,0,0,1-.14.14l-.07.08a1,1,0,0,0-.17.18c-.07.08-.13.17-.2.26a2.21,2.21,0,0,0-.23.36l-.05.1,0,.1-.12.19-.07.11-.05.08a2.12,2.12,0,0,1-.12.2,1.8,1.8,0,0,0-.23.46l-.07.16a1.17,1.17,0,0,1-.08.21,3.53,3.53,0,0,0-.15.46l0,.13a2.29,2.29,0,0,1-.08.28l0,.17c0,.1,0,.19-.09.29s-.07.25-.1.38-.05.24-.08.36l-.05.19,0,.18a1.87,1.87,0,0,0,0,.25l0,.14c0,.08,0,.17,0,.25l0,.17a2,2,0,0,0,0,.24v.29c0,.15,0,.23,0,.32v.09h0l0,.15a2.89,2.89,0,0,0,0,.29c0,.06,0,.13,0,.19a1.55,1.55,0,0,1,0,.21v.2a1,1,0,0,0,0,.25l0,.1,0,.1a.5.5,0,0,0,.05.13.4.4,0,0,0,.15.19.37.37,0,0,0,.21.06.78.78,0,0,0,.21,0l.12-.05a.48.48,0,0,0,.22-.18l.15-.2.06-.06.06-.07.06-.08.07-.08.12-.15a1,1,0,0,0,.15-.2h0a1.72,1.72,0,0,1,.17-.19l.08-.09.16-.18.16-.17.15-.16.1-.09.09-.08.09-.09a2.5,2.5,0,0,1,.24-.22,3.22,3.22,0,0,0,.32-.32l.25-.25.08-.07.17-.18.13-.13.07-.06.11-.11.26-.24.11-.09.24-.2.15-.14.15-.13c.06,0,.11-.11.17-.17l.12-.12.12-.11.09-.08a.52.52,0,0,1,.11-.1,1.37,1.37,0,0,1,.2-.13,1.25,1.25,0,0,1,.26-.07h.1l.09.09h0a1,1,0,0,1,0,.17,1.34,1.34,0,0,1-.07.27,1.74,1.74,0,0,1-.18.33l-.05.1-.31.49,0,.06a2.43,2.43,0,0,1-.2.25l-.07.06-.25.26-.15.16-.16.17-.14.16a2.09,2.09,0,0,1-.14.17l-.16.16c-.06.06-.11.13-.16.19s-.18.23-.28.34l-.13.13-.17.18c-.1.1-.2.21-.29.32l-.18.18-.12.12-.14.16a1.29,1.29,0,0,1-.16.18l-.15.15a1.19,1.19,0,0,0-.15.18l-.13.17-.15.18a1.42,1.42,0,0,0-.23.44.71.71,0,0,0-.06.24.48.48,0,0,0,.06.18.39.39,0,0,0,.08.1.42.42,0,0,0,.3.15h.24a2,2,0,0,0,.49-.06,2.78,2.78,0,0,0,.36-.08l.21-.05a4.44,4.44,0,0,0,.52-.15l.1,0a6.25,6.25,0,0,1,.62-.16l.28-.09a2.09,2.09,0,0,0,.35-.13l.15-.07.11,0,.2-.07.62-.21.25-.1.32-.13.27-.14.27-.14.14-.06.14-.06.22-.12a2.82,2.82,0,0,0,.29-.18c.17-.12.35-.23.53-.34s.36-.21.52-.32l.07-.05.43-.33a4.22,4.22,0,0,0,.43-.41l.09-.1A4,4,0,0,1,24,152l.2-.19.2-.2.06-.06a3.22,3.22,0,0,0,.32-.32,3.11,3.11,0,0,0,.25-.38l.12-.21a1.6,1.6,0,0,0,.1-.23l.13-.36a3.75,3.75,0,0,1,.12-.39l.08-.21c0-.08,0-.16.07-.24l.08-.24.07-.25a2.35,2.35,0,0,0,.09-.53c0-.08,0-.15,0-.23v-.28h0a.21.21,0,0,0,.09-.19,1.91,1.91,0,0,0-.06-.33l0-.11,0-.11a2,2,0,0,0-.2-.42c-.06-.08-.11-.17-.18-.25l-.12-.17a2.16,2.16,0,0,0-.27-.33l-.1-.11-.25-.29-.12-.13a1.29,1.29,0,0,0-.16-.17,2.29,2.29,0,0,0-.27-.27l-.11-.1a1,1,0,0,1-.15-.14,1.62,1.62,0,0,0-.19-.18l-.14-.11-.18-.15-.11-.09-.18-.14-.08-.07-.19-.15-.17-.14-.16-.1-.12-.08-.21-.12-.34-.18-.14-.06a.56.56,0,0,0-.24-.1Z"/><path class="cls-2" d="M25.66,138.74h0a.45.45,0,0,0-.16,0,.39.39,0,0,0-.15.06l-.14.08-.25.16a1.12,1.12,0,0,0-.2.18l-.06.06-.24.15-.26.15a1.37,1.37,0,0,0-.17.17,2.61,2.61,0,0,1-.24.23,3.47,3.47,0,0,0-.29.25l-.15.15-.14.12c-.12.12-.24.24-.35.37a2.47,2.47,0,0,1-.28.28l-.09.07a2,2,0,0,0-.25.25.33.33,0,0,0-.05.32.72.72,0,0,0,.14.24,3.3,3.3,0,0,0,.28.35l.07.07.31.32.08.11a3.21,3.21,0,0,0,.46.51l.12.1.16.15.15.15.08.09.16.15.1.09.27.26.13.12.15.13.24.25a.91.91,0,0,1,.11.16l.13.17.21.23.16.17.08.1a2,2,0,0,0,.19.24l.16.14c.06,0,.11.1.17.15l.28.29.23.2.1.08a.42.42,0,0,0,.16,0h0a.23.23,0,0,0,.2-.16h0a.16.16,0,0,0,.09,0l.29-.2a1.26,1.26,0,0,0,.2-.2l.09-.11a2.43,2.43,0,0,1,.2-.25l.2-.19.12-.11.17-.19.11-.12.15-.15L29,145a1.67,1.67,0,0,0,.24-.35l.07-.12a2,2,0,0,0,.14-.25,1,1,0,0,1,.08-.14,1.18,1.18,0,0,0,.11-.19,1,1,0,0,0,.09-.3.44.44,0,0,0-.09-.27l-.09-.16-.1-.16a1.3,1.3,0,0,0-.1-.15c0-.05-.08-.12-.11-.18l-.15-.24-.1-.15-.09-.14a2.33,2.33,0,0,0-.17-.26l-.17-.24-.13-.16-.13-.19-.13-.19-.11-.13L28,141a1.63,1.63,0,0,1-.17-.2l-.12-.15a1.92,1.92,0,0,0-.18-.22,1.29,1.29,0,0,0-.17-.16,1.62,1.62,0,0,1-.19-.18,4.12,4.12,0,0,0-.37-.35,3.89,3.89,0,0,1-.36-.34c-.09-.1-.19-.19-.29-.29l-.11-.09h0l-.09-.08-.13-.1a.35.35,0,0,0-.2,0Z"/><path class="cls-2" d="M22.93,167.58a.22.22,0,0,0-.15.06l-.18.18-.17.19-.3.28-.4.36-.47.44-.37.34-.15.15a2.91,2.91,0,0,0-.3.31l-.18.18-.35.33-.28.26-.2.19-.38.37-.25.24-.08.08-.31.32-.13.11-.13.12-.19.18-.06.06-.33.3-.33.3c-.11.1-.23.22-.34.34l-.16.15a5.2,5.2,0,0,1-.43.37l-.13.12L16,174l-.17.15a4.55,4.55,0,0,0-.4.35l-.19.18-.14.13-.21.2-.2.2-.21.18-.13.11a.31.31,0,0,0-.26.18,2.56,2.56,0,0,0-.05.27v.08h0a3,3,0,0,1-.13.52,4.27,4.27,0,0,0-.13.48c0,.1,0,.19,0,.29l0,.15,0,.16a4.33,4.33,0,0,0-.08.5v.13l0,.1v0h0v.07h0v0c0,.15,0,.28-.06.4l0,.2,0,.2c0,.12-.05.28-.07.45h0v0h0v0c0,.12-.06.28-.1.43l-.07.27,0,.16a.31.31,0,0,0,.06.28.22.22,0,0,0,.13.06h.17l.09,0h.09l.21,0,.16,0,.12,0,.11,0h.1l.16,0,.44-.08.17,0,.25,0,.22,0a5.58,5.58,0,0,0,.57-.08l.41-.07.2,0,.2,0,.16,0,.25,0,.21,0,.18,0,.37-.07.36-.07.15,0a.2.2,0,0,0,.09-.05h.1A.19.19,0,0,0,19,180l.06-.07a1.27,1.27,0,0,0,.13-.19c.05-.06.07-.11.1-.15l.25-.27.2-.22.12-.13.15-.16.08-.07.08-.08.3-.35a2.61,2.61,0,0,1,.27-.31l.13-.13.08-.09a1.88,1.88,0,0,1,.24-.25l.08-.07.07-.07.07-.06a1.07,1.07,0,0,1,.16-.14,1.75,1.75,0,0,0,.2-.16,2.09,2.09,0,0,0,.2-.22l.12-.15.09-.12.12-.13.08-.09c.24-.28.5-.54.75-.81l.1-.1.1-.09.2-.2.38-.39.38-.38a.69.69,0,0,1,.13-.11l.06-.06.22-.21a2.57,2.57,0,0,1,.29-.28l.12-.11a2.39,2.39,0,0,0,.23-.22l.17-.16.18-.17a1.21,1.21,0,0,1,.2-.2,4,4,0,0,1,.37-.34,2,2,0,0,0,.23-.18l.11-.1.09-.08.09-.1.15-.17a.36.36,0,0,0,.06-.2.42.42,0,0,0-.12-.24,2.09,2.09,0,0,0-.22-.2l-.24-.23-.07-.09-.16-.18-.06-.06-.07-.06-.1-.12-.06-.09-.1-.14-.18-.18-.13-.13a1.07,1.07,0,0,1-.16-.14l-.09-.1-.14-.15a5.36,5.36,0,0,1-.4-.43L24.6,169a2.29,2.29,0,0,1-.21-.23,2.35,2.35,0,0,0-.19-.25.86.86,0,0,0-.14-.13,1.8,1.8,0,0,1-.2-.19,1.27,1.27,0,0,0-.25-.21l-.11-.09-.11-.1-.08,0-.1,0a.39.39,0,0,1-.1-.08.21.21,0,0,0-.15-.07Zm-7.86,11.61,0-.1.05-.15,0-.08a.83.83,0,0,0,.06-.21,1,1,0,0,0,0-.16s0-.08,0-.12,0-.11,0-.16a.83.83,0,0,0,0-.15c0-.09.05-.17.07-.26l0-.14a1.46,1.46,0,0,0,0-.2l0-.1,0-.09a.66.66,0,0,1,.17.12l.09.09.27.25.22.18a.93.93,0,0,1,.18.16l.08.09a.8.8,0,0,0,.2.21l.11.08h0l.11.12.06.07.16.13.1.08-.19,0-.2,0-.3,0-.21,0-.32,0-.21,0-.12,0-.18,0c-.12,0-.24,0-.37.06l-.14,0Z"/><path class="cls-2" d="M26.32,164.52a.2.2,0,0,0-.15.06l-.08,0-.08.06-.07.07-.06.06-.1.08-.11.11-.11.09h0l-.12.1-.06.06-.1.1-.13.12-.13.11a.47.47,0,0,0-.1.1l-.05.07-.12.11-.2.17-.24.21-.2.18-.2.19a1.54,1.54,0,0,0-.17.19.21.21,0,0,0-.05.2.17.17,0,0,0,0,.18,2,2,0,0,0,.23.27l.09.11.3.33q.15.18.3.33l.06.07a3.27,3.27,0,0,1,.3.35l.28.32.19.21.14.16.3.32c.1.1.21.2.3.31l.13.16.13.15.13.13.12.13c.18.18.36.37.53.57a.21.21,0,0,0,.14.1h.14l.08,0a.21.21,0,0,0,.11,0,2,2,0,0,0,.33-.24l.13-.12.1-.1h0l.12-.1.12-.1.16-.13.2-.16.15-.12.15-.12.21-.19.15-.14.14-.12.1-.1.11-.12h0l.26-.27a.25.25,0,0,0,.06-.16v-.11h0a2,2,0,0,0-.06-.32l-.06-.2,0-.1A1.34,1.34,0,0,0,30,168l-.09-.18-.14-.21-.07-.1-.09-.14-.1-.15-.09-.14-.06-.1a1.14,1.14,0,0,0-.15-.23l-.07-.1a1.25,1.25,0,0,0-.15-.19l-.06-.06,0-.07a.76.76,0,0,0-.11-.14l-.07-.08-.09-.09-.14-.15a1,1,0,0,1-.18-.16,3.51,3.51,0,0,0-.36-.29,3.64,3.64,0,0,0-.47-.28l-.15-.1-.24-.13-.1-.06-.1,0-.08-.05-.08,0-.11-.06-.13-.07-.13,0Z"/><path class="cls-2" d="M28.09,229.51h.1c-.83,0-1.67,0-2.5.09-.26,0-.52,0-.77,0h-.81l-1.74,0a15.73,15.73,0,0,0-1.68.07l-1.15.08c-.53,0-1.06,0-1.59,0-.3,0-.61,0-.91,0h0l-.86.07c-.33,0-.66,0-1,0a10.64,10.64,0,0,0-1.26.07h-.42a.92.92,0,0,0-.6.19.86.86,0,0,0-.29.57.81.81,0,0,0,.19.6.79.79,0,0,0,.58.3l.58,0h.14l.73-.06.51,0h.53a11.3,11.3,0,0,0,1.16-.08h.18l1.14,0c.52,0,1.05,0,1.58-.05l1.32-.1c.78,0,1.56,0,2.34,0s1.69,0,2.53-.05H26c.75,0,1.5,0,2.25-.08h1.19a.77.77,0,0,0,.53-.34.83.83,0,0,0-.2-1.15h0a.79.79,0,0,0-.58-.14h.13a3.77,3.77,0,0,1-.47,0h-.21l-.53,0ZM14,230h0Zm4.29,1.48h0Zm-1.29,0h0Zm-2,.05h0Zm-.9.07h0Zm11.81-.36h0Zm-8.88-1.4h0Zm11.14-.32h0Z"/><path class="cls-2" d="M12.91,216.49a.76.76,0,0,0-.29.57,4.53,4.53,0,0,1,0,.52,2.81,2.81,0,0,0,0,.58,8.27,8.27,0,0,1-.07,1.11c0,.26,0,.53,0,.79s0,.52,0,.79c0,.7-.08,1.39-.12,2.09,0,.36,0,.73,0,1.1a9,9,0,0,0,0,1.16v-.07l0,.32c0,.26,0,.52,0,.79s0,.62,0,.94c0,.6.08,1.2.13,1.8a4.89,4.89,0,0,1,0,.54c0,.16,0,.33-.06.5s0,.13,0,.19a.86.86,0,0,0,0,.63.83.83,0,0,0,.47.43.88.88,0,0,0,.64,0,.83.83,0,0,0,.42-.48,5.68,5.68,0,0,0,.17-.82c0-.18,0-.36.05-.54a4.52,4.52,0,0,0,0-.9c0-.26-.05-.52-.07-.78s0-.76,0-1.15,0-.87,0-1.3h0c0-.13,0-.25,0-.37,0-.32,0-.65,0-1s0-.75,0-1.13.06-.69.08-1,0-.7,0-1a13.13,13.13,0,0,1,.09-1.54,6,6,0,0,0,0-1.27c0-.24.06-.47,0-.71a1,1,0,0,0-.2-.6.88.88,0,0,0-.58-.29h-.05a.87.87,0,0,0-.55.2Zm1,8.27s0,.07,0,.1Zm-1.63.37v0Z"/><path class="cls-2" d="M28.86,216a4.19,4.19,0,0,1-.7.09c-.48,0-.94,0-1.42,0s-1.1,0-1.65.08h.22l-1.15,0c-.21,0-.43,0-.65,0s-.43,0-.65,0c-.39,0-.78,0-1.17,0a11.93,11.93,0,0,0-1.19.1c-.35,0-.7,0-1,0s-.4-.05-.61-.05a4.42,4.42,0,0,0-.63,0h-.95a3.54,3.54,0,0,0-.73.07,4,4,0,0,1-.5.08c-.33,0-.66,0-1,0a4.4,4.4,0,0,0-.62,0l-.29.05c-.18,0-.36,0-.53,0a.83.83,0,0,0-.17,1.66h.05a5.29,5.29,0,0,0,.89,0c.17,0,.32,0,.49-.07s.6,0,.89,0a4.11,4.11,0,0,0,.78-.07l.6-.1.61,0c.24,0,.5,0,.74,0a4.44,4.44,0,0,1,.63,0l.78,0c.32,0,.63,0,1,0l.56-.07h1.65c.25,0,.49.05.74.05q1.18,0,2.37-.12h.64c.3,0,.6,0,.91,0s.65,0,1-.06l.38,0a1.52,1.52,0,0,0,.5-.15.92.92,0,0,0,.42-.47.84.84,0,0,0,0-.64.89.89,0,0,0-.77-.48.8.8,0,0,0-.33.08Zm0,0h0Zm-8.14.2h0ZM14.77,218h0Z"/><path class="cls-2" d="M28.64,217.58a5.3,5.3,0,0,0,0,.69v-.1c0,.35,0,.7,0,1s0,.8,0,1.2,0,.76,0,1.13a11.74,11.74,0,0,0,.05,1.33c0,.32,0,.63-.05.93s0,.6,0,.9a16.45,16.45,0,0,0,0,2.22v-.06l.06.89c0,.27,0,.53,0,.8a8.08,8.08,0,0,0,.05.85,3,3,0,0,1,0,.52l-.09.42a.79.79,0,0,0,.2.6.83.83,0,0,0,.57.29.82.82,0,0,0,.6-.19.88.88,0,0,0,.29-.54h0l0-.09h0a5.35,5.35,0,0,0,.11-.68,4.51,4.51,0,0,0,0-.82c0-.31,0-.61,0-.92s0-.73-.07-1.1,0-.86,0-1.3.05-.71.07-1.07,0-.72,0-1.09a7.53,7.53,0,0,0,0-1.34c0-.28,0-.57,0-.85s0-.73,0-1.09,0-.75,0-1.12,0-.56,0-.84a2.92,2.92,0,0,1,0-.51.85.85,0,0,0-.77-.89h-.06a.85.85,0,0,0-.83.78Zm1.62.42v0Zm-.06,8.72c0,.06,0,.12,0,.18v-.18Zm0,.2a.41.41,0,0,0,0,.11v-.11Zm.05,1.86a.41.41,0,0,0,0,.11A.41.41,0,0,0,30.26,228.78Zm-1.62,1,0,.09Z"/><path class="cls-2" d="M15.15,203.93a5.91,5.91,0,0,0-.84,0l-1,.15a.82.82,0,0,0-.65,1,.85.85,0,0,0,1,.66l.7-.1.45-.07h.36a5.61,5.61,0,0,0,.59-.06,4.52,4.52,0,0,1,.53.06,4.1,4.1,0,0,0,.7,0c.22,0,.43.05.64.07a3.64,3.64,0,0,0,.66,0c.22,0,.45,0,.67,0s.58,0,.87,0,.63,0,.94,0a6.77,6.77,0,0,0,.9,0h.83c.26,0,.53,0,.79,0,.69,0,1.37,0,2.06.07h.86c.13,0,.26,0,.4,0s.3,0,.44,0h.45l.53,0c.18,0,.34,0,.51,0a5.61,5.61,0,0,0,.71,0h.1a3.55,3.55,0,0,0,.46,0,.84.84,0,0,0-.26-1.65H29.5l-.13,0H29a4.69,4.69,0,0,1-.53,0c-.19,0-.38,0-.56,0s-.43,0-.64,0a4.63,4.63,0,0,0-.65,0l-.76,0-.9,0-1.14,0a8.93,8.93,0,0,0-1.16,0h-.63c-.27,0-.54,0-.81,0s-.47,0-.7,0-.59,0-.88,0a6.77,6.77,0,0,1-.78,0,6.26,6.26,0,0,0-.75,0c-.21,0-.43,0-.64,0a3.93,3.93,0,0,0-.84,0c-.21,0-.41,0-.62-.06h-.17a5.82,5.82,0,0,0-.73.07Zm.2,0h0Zm8.1,1.68h0Zm6.1.07h0Zm-.38,0h0Z"/><path class="cls-2" d="M17.47,190.34h-.85a8.12,8.12,0,0,0-.85.07,6.31,6.31,0,0,1-.76-.07,4.21,4.21,0,0,0-.5,0h-.24c-.21,0-.42-.05-.64-.07a1.39,1.39,0,0,0-1,.21,1.24,1.24,0,0,0-.35,1c0,.18,0,.36,0,.54,0,.48.06,1,.1,1.45,0,.2,0,.41,0,.61s0,.65,0,1,0,.64,0,1,0,.65,0,1c0,.58,0,1.16,0,1.74,0,.32,0,.64,0,1s0,.33,0,.5,0,.43,0,.64v0c0,.52,0,1.05.07,1.57,0,.3,0,.59,0,.88s0,.35,0,.53a5.85,5.85,0,0,1-.07.72.85.85,0,0,0,.77.89.84.84,0,0,0,.89-.77,5.85,5.85,0,0,0,.07-.72c0-.28,0-.54-.07-.82,0-.82,0-1.64-.09-2.47v.22c0-.08,0-.15,0-.22,0-.36,0-.7,0-1.06s0-.65,0-1,0-.62,0-.93,0-.67,0-1,0-.66,0-1,0-.74,0-1.11a8.12,8.12,0,0,1,0-.86,4,4,0,0,0-.06-.91,4.36,4.36,0,0,1,0-.51V192h.56a8.47,8.47,0,0,1,.88.07,5.88,5.88,0,0,0,1-.05h.85a4.44,4.44,0,0,0,.62,0l.28-.05a6.62,6.62,0,0,1,.74.11,5.42,5.42,0,0,0,.81,0c.29,0,.58.05.87.07s.52,0,.78,0h.78c.31,0,.61,0,.92,0s.68,0,1,.05a7.26,7.26,0,0,0,.93-.06,5.51,5.51,0,0,1,.57.06q.38,0,.75,0h.58a4.91,4.91,0,0,0,.55,0h.4a3.1,3.1,0,0,0,.68,0c.13,0,.25-.06.39-.07s.24-.06.37-.07h-.05a.89.89,0,0,0,.46-.19.84.84,0,0,0,.1-1.17h0a.76.76,0,0,0-.58-.29c-.22,0-.42.06-.63.08l-.38.07a3.93,3.93,0,0,1-.49,0,5.85,5.85,0,0,0-.73,0h-.48a6.26,6.26,0,0,1-.75,0,4,4,0,0,0-.69-.06l-.7.06c-.3,0-.59,0-.89,0l-1,0c-.27,0-.53,0-.8,0s-.52,0-.77,0-.57,0-.86-.08l-.82,0c-.27,0-.56-.1-.84-.13h-.19a4.53,4.53,0,0,0-.74.09Zm-1.77.07h0Zm8.6.19h0Zm2.63,0h0Zm.68,1.6h0Zm-13.69,8.25c0,.05,0,.1,0,.16S13.92,200.53,13.92,200.48ZM14,203s0,.08,0,.12A.49.49,0,0,0,14,203Z"/><path class="cls-2" d="M29.28,191a.8.8,0,0,0-.53.34.94.94,0,0,0-.14.63c0,.12,0,.23.05.35,0,.35,0,.7,0,1,0,.52,0,1,0,1.56s0,1.05,0,1.57,0,1,0,1.52v0c0,.33,0,.66,0,1s0,.65,0,1,0,.68,0,1,0,.65.06,1,0,.75,0,1.12,0,.63.07.95v.46a.83.83,0,1,0,1.66.12c0-.44,0-.88-.07-1.31s0-.58,0-.87,0-.74-.07-1.11c0-.56,0-1.13,0-1.7s0-1.24-.05-1.86,0-1,0-1.48c0-.3,0-.6,0-.91s0-.57,0-.86c0-.55,0-1.11,0-1.67,0-.24,0-.47,0-.71s0-.3-.05-.46a.85.85,0,0,0-.83-.68l-.14,0Zm1,6.83v0Z"/><path class="cls-2" d="M13.52,191.66a.84.84,0,0,0-.1,1.17c.25.25.52.47.79.71l.65.6c.27.24.55.47.83.7s.59.47.89.7.58.46.86.7c.57.47,1.14.95,1.69,1.44.3.25.59.5.9.73s.57.41.85.62c1.14.85,2.26,1.71,3.34,2.62.25.22.5.42.76.61s.48.34.7.52c.46.35.94.67,1.4,1s.7.5,1.06.74l.45.3a5.07,5.07,0,0,0,.61.32.84.84,0,0,0,1.06-.5.82.82,0,0,0-.5-1.06l-.12-.06c-.18-.1-.35-.23-.52-.34s-.55-.35-.81-.55-.45-.35-.68-.51l-.76-.54c-.23-.17-.45-.35-.68-.51s-.49-.37-.73-.56c-.55-.45-1.09-.91-1.66-1.35l-1.65-1.27c-.28-.22-.59-.42-.88-.63s-.6-.46-.88-.7c-.56-.48-1.11-1-1.68-1.43l-.87-.72-.88-.68c-.41-.33-.82-.67-1.21-1l-.43-.41.06.05-.09-.07-.07-.08.07.07c-.15-.14-.3-.26-.46-.39a1.85,1.85,0,0,0-.14-.14.91.91,0,0,0-.57-.3h-.06a.94.94,0,0,0-.54.2Zm2.13,1,.06.06Z"/><path class="cls-2" d="M28.12,191.59a2.48,2.48,0,0,0-.44.36,4,4,0,0,1-.55.45,8.53,8.53,0,0,0-.81.65c-.29.24-.6.46-.89.7q-1.74,1.42-3.46,2.87c-.6.5-1.17,1-1.76,1.55-.27.22-.53.45-.79.68s-.61.5-.91.75-.54.49-.82.72-.55.42-.81.63-.61.5-.93.74-.54.39-.8.61-.4.32-.62.48l-.07,0c-.48.32-.92.68-1.39,1a.81.81,0,0,0-.29.56.83.83,0,0,0,.77.89h0a.87.87,0,0,0,.6-.2c.42-.28.81-.6,1.23-.88l0,0h0l0,0h0c.31-.21.61-.44.9-.68s.53-.39.79-.59.62-.5.93-.74.56-.41.81-.64.53-.48.81-.71.61-.49.91-.75l1.69-1.48c.58-.53,1.2-1,1.8-1.53l.8-.65.86-.73.89-.74a9.14,9.14,0,0,0,.84-.67c.43-.38.93-.66,1.34-1.07a2.31,2.31,0,0,1,.39-.31.81.81,0,0,0,.29-.56.83.83,0,0,0-.76-.9h-.07a.94.94,0,0,0-.54.2ZM14.68,202.68l-.1.06Zm-.33.21.1-.07.07,0Z"/><path class="cls-2" d="M25.34,249.57l-.07.05-.42.31.12-.08c-.2.14-.38.3-.57.44h0l-.36.27-.3.19a3.82,3.82,0,0,1-.48.29l-.34.17-.33.22c-.18.12-.38.22-.58.33s-.4.23-.62.33a3.87,3.87,0,0,0-.55.34c-.22.14-.45.25-.67.4s-.38.27-.57.4-.46.3-.69.45a7.6,7.6,0,0,1-.65.4l-.65.38c-.25.16-.48.35-.72.52s-.41.26-.62.38l-.68.4a6,6,0,0,1-.62.32,3.65,3.65,0,0,0-.54.32c-.2.14-.43.24-.64.36a.83.83,0,1,0,.79,1.46l.46-.25a1.92,1.92,0,0,0,.35-.23,4.73,4.73,0,0,1,.55-.28,7.43,7.43,0,0,0,.73-.4c.23-.15.48-.29.72-.43a6.19,6.19,0,0,0,.79-.55,7.57,7.57,0,0,1,.67-.42c.21-.12.43-.23.64-.37l.74-.48c.23-.15.45-.32.67-.48s.37-.22.56-.33.35-.24.54-.35.43-.2.63-.32l.57-.33c.22-.11.4-.27.62-.38a6.28,6.28,0,0,0,.57-.31l.41-.27a5.34,5.34,0,0,0,.48-.35l.36-.27.26-.21-.18.13.39-.29a1.77,1.77,0,0,0,.35-.26.83.83,0,0,0-1.13-1.21Zm-7,6.39-.13.09Z"/><path class="cls-2" d="M26.87,244.61a6.37,6.37,0,0,0-.69.25,2.21,2.21,0,0,0-.45.3,3.66,3.66,0,0,0-.57.4,2.51,2.51,0,0,0-.47.65,1.72,1.72,0,0,0-.19.47c0,.1,0,.2-.06.3a2.26,2.26,0,0,0-.08.5,3.56,3.56,0,0,0,.05.47c0,.14,0,.29,0,.43a2.62,2.62,0,0,0,.18.56c.05.12.13.22.19.34s.12.23.18.34v0a1.11,1.11,0,0,0,.21.42,2.62,2.62,0,0,0,.46.48,5.71,5.71,0,0,0,.47.39.75.75,0,0,0,.68.09,5.73,5.73,0,0,0,1.1.17,2.88,2.88,0,0,0,1.67-.38,3.89,3.89,0,0,0,.74-.6,3.41,3.41,0,0,0,.6-.66,2.54,2.54,0,0,0,.29-1,2.89,2.89,0,0,0,0-.88,3.54,3.54,0,0,0-.22-.85,3.13,3.13,0,0,0-.42-.67l-.16-.23a6.12,6.12,0,0,0-.4-.49,4.83,4.83,0,0,0-.58-.43l-.21-.15a2.93,2.93,0,0,0-.4-.19,2.16,2.16,0,0,0-.51-.16,3.41,3.41,0,0,0-.55-.05,3,3,0,0,0-.9.13Zm1.1,1.54a1.86,1.86,0,0,1,.31.1,2.4,2.4,0,0,1,.26.18l.28.19a2.06,2.06,0,0,1,.28.31l.21.3a3.79,3.79,0,0,1,.2.34,3.73,3.73,0,0,1,.09.46,2.28,2.28,0,0,1,0,.45,1.42,1.42,0,0,1,0,.2l0,0c-.1.11-.21.2-.32.3l-.34.31-.23.12a2.25,2.25,0,0,1-.35.09,5.12,5.12,0,0,1-.78-.06,4.48,4.48,0,0,1-.71-.22l-.2-.23c-.08-.13-.14-.26-.22-.39a1.63,1.63,0,0,0-.11-.23c0-.08-.08-.13-.11-.19a1.73,1.73,0,0,1-.07-.31l0-.32v-.17a3.69,3.69,0,0,1,.1-.39,2.07,2.07,0,0,1,.15-.25l.08-.07.18-.11a3.62,3.62,0,0,0,.32-.22l.1,0a3.2,3.2,0,0,1,.69-.19H28Zm-1.68.61,0,0Zm-1.89,1v0Zm6-1.83,0,.06-.12-.17Z"/><path class="cls-2" d="M27.19,254.78a4.62,4.62,0,0,0-.63.11,1.55,1.55,0,0,0-.88.59v0a4,4,0,0,0-.32.4.7.7,0,0,0-.2.08.86.86,0,0,0-.4.48l-.11.26a3.73,3.73,0,0,0-.16.35,4.34,4.34,0,0,0-.09.52c0,.2,0,.41-.05.62a2.25,2.25,0,0,0,.16.85,3.16,3.16,0,0,0,.22.5c.09.15.19.29.28.43l.2.24a2.3,2.3,0,0,0,.41.35,3.79,3.79,0,0,0,.6.38,6,6,0,0,0,.58.25,2.8,2.8,0,0,0,.31.09.85.85,0,0,0,.23,0h0a3.06,3.06,0,0,0,1,0,2.59,2.59,0,0,0,.93-.33,5,5,0,0,0,.86-.52,2.49,2.49,0,0,0,.57-.75,3.49,3.49,0,0,0,.43-.89,2.45,2.45,0,0,0,0-1.11,2.41,2.41,0,0,0-.25-.84,2.94,2.94,0,0,0-.5-.71c-.14-.16-.3-.29-.45-.44a3.94,3.94,0,0,0-1.27-.85,2.94,2.94,0,0,0-.88-.14,3.68,3.68,0,0,0-.66.06Zm.85,1.61a1.25,1.25,0,0,1,.25.09,3.28,3.28,0,0,1,.38.27,5.29,5.29,0,0,1,.64.61,3.35,3.35,0,0,1,.21.36,2.14,2.14,0,0,1,.06.35.89.89,0,0,1,0,.23.84.84,0,0,1,0,.17c-.07.12-.14.24-.2.36l-.2.32-.05.05-.39.22-.39.21a2.93,2.93,0,0,1-.41.07,1.36,1.36,0,0,1-.35,0h0a3,3,0,0,1-.39-.13,3.47,3.47,0,0,1-.61-.38,1.8,1.8,0,0,1-.19-.2,2.38,2.38,0,0,1-.23-.41,2.76,2.76,0,0,1-.08-.27,1.87,1.87,0,0,1,0-.34v-.07a.87.87,0,0,0,.34-.44l0-.12.14-.27-.09.2a3.13,3.13,0,0,1,.2-.3,1.28,1.28,0,0,1,.15-.25l.18-.21a1.35,1.35,0,0,1,.28,0l.4-.07Zm.66.38.1.09ZM26.35,259l0,.06,0,0ZM25,260l0,0v0Zm0-.06-.05-.06Zm-.05-.06,0-.05Z"/><path class="cls-2" d="M13.47,247.54a.82.82,0,0,0-.26.57.75.75,0,0,0,.22.6,3.51,3.51,0,0,0,.59.42c.26.15.52.28.77.45l1,.61c.32.2.61.41.92.61s.62.37.93.54a8.92,8.92,0,0,1,.88.58c.63.46,1.29.88,1.94,1.3.44.28.84.61,1.26.92s.86.59,1.28.9.76.58,1.16.85l.46.34.36.25.27.25a.83.83,0,0,0,1.23-1.11l0,0a6.73,6.73,0,0,0-.72-.6l-.64-.47c-.28-.2-.57-.4-.84-.61l-.86-.61c-.62-.41-1.19-.91-1.81-1.33s-1.3-.82-1.92-1.27a12,12,0,0,0-1.35-.88c-.24-.14-.49-.28-.72-.43l-.75-.5-.71-.45c-.24-.15-.47-.32-.71-.45a10.3,10.3,0,0,1-.9-.55l.08.06a.82.82,0,0,0-.5-.2h0a.81.81,0,0,0-.57.23Zm1.17,0,0,0,0,0S14.64,247.58,14.64,247.57Z"/><path class="cls-2" d="M28.37,272.88a5.12,5.12,0,0,0-.73.39l-.36.2a2.46,2.46,0,0,0-.54.37,6.32,6.32,0,0,0-.74.63,2.82,2.82,0,0,1-.36.33l-.4.3a5.05,5.05,0,0,0-.63.59,1.52,1.52,0,0,0-1.44-.52,1.58,1.58,0,0,0-.54.22,6.52,6.52,0,0,0-.77.43,3.78,3.78,0,0,0-.55.51,2.5,2.5,0,0,0-.34.39,2.85,2.85,0,0,0-.25.45,1.42,1.42,0,0,0-.2,1,2.08,2.08,0,0,0,.23.63,6.88,6.88,0,0,0,.44.66,6.17,6.17,0,0,0,1,1.1l-.09-.07.13.11,0,0,0,0,.73.61.9.81.11.1c.17.15.34.31.51.44l.4.29.23.2L25,283a3.14,3.14,0,0,0,.5.38,1.42,1.42,0,0,0,.67.2l.4,0a1.47,1.47,0,0,0,.42-.13,1.36,1.36,0,0,0,.46-.4,3.81,3.81,0,0,0,.24-.32l.34-.29a1.16,1.16,0,0,1,.21-.16,1.55,1.55,0,0,0,.35-.41,1.76,1.76,0,0,0,.25-.62,1.45,1.45,0,0,0,0-.55c0-.21-.11-.42-.18-.64v0a.83.83,0,0,1,0-.15l.18-.19.32-.4c.16-.18.3-.38.45-.56l.45-.55.34-.36a4.89,4.89,0,0,1,.52-.5,2.79,2.79,0,0,0,.47-.5,1.59,1.59,0,0,0,.13-.22,1.28,1.28,0,0,0,.18-.44l0,.08,0-.11s0-.06,0-.1l0,.08a3.11,3.11,0,0,0,.05-1,2.8,2.8,0,0,0-.51-1.09l.06.09a2.77,2.77,0,0,0-1.41-1.29,3.47,3.47,0,0,0-.56-.11h-.11a2.38,2.38,0,0,0-.8.17Zm1.7,5.24,0,0Zm-2,1.78.07.11Zm-1.18,1.21,0,.06h0l0-.06Zm-3.86.14.09.08Zm1.77,1.5,0,.05ZM25,283l-.05-.05Zm6.3-8.76-.06-.09Z"/><path class="cls-2" d="M27.41,279.05a.83.83,0,0,0-.44,1.09,2.38,2.38,0,0,0,.18.3l.07.08a.56.56,0,0,0,0,.12.37.37,0,0,0,.07.14,2.86,2.86,0,0,0,.07.28.61.61,0,0,0,.05.12c0,.11,0,.21,0,.32l0,.1v0a.56.56,0,0,1,0,.12,1.23,1.23,0,0,1-.23.28l.16-.15-.22.22.12-.12,0,0,0,0-.06.06h0l0,0,0,0,0,0,0,0-.24.17-.12-.11a.92.92,0,0,0-.44-.43.82.82,0,0,0-.65,0,.84.84,0,0,0-.44.45.79.79,0,0,0,0,.64c.07.13.12.24.2.37a.93.93,0,0,0,.23.21l.08.11,0,0a1,1,0,0,0,.49.46,1.18,1.18,0,0,0,.59.05l.24,0,.34-.1.08,0h0a1.23,1.23,0,0,0,.32-.17l.15-.1a2.27,2.27,0,0,0,.47-.41l.13-.13-.15.15a3.64,3.64,0,0,0,.4-.48l.2-.34a1.4,1.4,0,0,0,.09-.29c0-.14.08-.28.11-.42s0-.24,0-.35a1.38,1.38,0,0,0-.08-.67l-.07-.14s0-.05,0-.08a1,1,0,0,0-.14-.39,1,1,0,0,1,0-.12.54.54,0,0,0-.07-.13l-.12-.23a.86.86,0,0,0-.13-.14.89.89,0,0,0-.71-.4.72.72,0,0,0-.33.07Zm1.22.59h0Zm.15.32h0Zm-1.54.58h0l0,0,0,0Zm-.34,1.7-.12,0h0l.12,0Zm.11.36h0l0,.06Zm1.34.48-.05.05,0,0-.07.07h0l0,0a.46.46,0,0,1-.07.07l0,0,.15-.15Zm-2.91.12.09.15h0S25.47,283.25,25.44,283.2Zm.22.37,0-.06Zm2.54-.34,0,0h0ZM27,282.06l0,0,0,0h0l.06-.06h0l-.12.13Z"/><path class="cls-2" d="M22.19,278.52c-.3.3-.57.62-.85.93s-.4.38-.59.58l.14-.15c-.11.12-.24.23-.36.34l-.59.6h0l.15-.15-.16.16c-.17.17-.35.33-.53.49s-.22.16-.32.26-.25.23-.37.36l-.45.5-.29.29-.26.28-.72.69-.5.44a6.25,6.25,0,0,0-.44.45c-.38.38-.78.76-1.18,1.13s-.55.54-.8.82a3.39,3.39,0,0,0-.46.66.36.36,0,0,1-.07.1c-.06.1-.12.2-.17.3a2.09,2.09,0,0,0-.19.36,2.44,2.44,0,0,0-.1.24.83.83,0,0,0-.07.18,2.48,2.48,0,0,0-.17.32l-.15.33-.18.42a2,2,0,0,0-.14.41l0-.09a.36.36,0,0,0,0,.1l0,.11,0-.1a1.63,1.63,0,0,0,0,.85,1.3,1.3,0,0,0,.24.52,2.23,2.23,0,0,0,.27.26,1.25,1.25,0,0,0,.69.26c.23,0,.47.07.7.09h1.39a3.07,3.07,0,0,0,.67-.14,5.6,5.6,0,0,0,.54-.17,2.48,2.48,0,0,0,.51-.33c.21-.17.41-.34.63-.5l.8-.56a5.19,5.19,0,0,0,.85-.77l-.06.07.22-.24a4.15,4.15,0,0,1,.32-.27,3.61,3.61,0,0,0,.35-.33c.26-.25.52-.49.79-.72s.52-.47.77-.72l.41-.35a6.35,6.35,0,0,0,.65-.62l-.09.1c.24-.24.5-.46.72-.71l.47-.54c.12-.12.24-.24.38-.36a5.49,5.49,0,0,0,.43-.4c.27-.27.5-.57.75-.85l.33-.36.25-.2a3.34,3.34,0,0,0,.33-.32h0l-.08.08.09-.09,0,0,.08-.08-.06.06.06-.06a.8.8,0,0,0,0-1.08.83.83,0,0,0-1.17-.13l-.19.2.09-.1-.18.2.08-.08-.05,0,.05-.05.06-.06a4.4,4.4,0,0,1-.39.35,3.59,3.59,0,0,0-.39.39l-.48.52c-.13.14-.25.3-.38.45s-.47.42-.69.64-.52.58-.79.87l-.19.17-.36.37c-.3.31-.66.55-1,.86s-.55.51-.84.75-.53.52-.8.77-.27.22-.4.33a4.7,4.7,0,0,0-.49.51,8.79,8.79,0,0,1-1.19.92c-.2.14-.39.28-.57.43s-.26.22-.4.32l-.12.05-.51.15.21-.06a2.32,2.32,0,0,1-.45.06h-.68a4.63,4.63,0,0,1-.65,0c.06-.14.15-.28.2-.43a1.89,1.89,0,0,1,.11-.25l.09-.22a1.46,1.46,0,0,0,.18-.38,2.44,2.44,0,0,0,.1-.24l.06-.13a1.47,1.47,0,0,1,.09-.17c0-.06.09-.13.13-.2l.12-.21a3.25,3.25,0,0,1,.4-.5c.31-.32.62-.62.95-.91s.68-.67,1-1l-.15.16c.29-.3.62-.56.93-.85s.61-.6.91-.92l-.15.16.07-.08h0l.14-.14-.1.1.47-.47c.11-.12.21-.25.32-.36l.28-.27c.1-.1.23-.17.33-.27s.45-.41.67-.63l-.07.06.07-.07h0c.32-.33.67-.64,1-1l-.09.1c.24-.24.5-.47.72-.73l.48-.53a1.66,1.66,0,0,0,.26-.27.83.83,0,0,0-.18-1.16.78.78,0,0,0-.49-.16.81.81,0,0,0-.66.33Zm0,0v0Zm-2.26,2.31-.1.1Zm1.4.92-.12.13h0Zm5.44.69,0,0,0,0Zm-8.92.42-.06.06ZM20,283l-.06.06v0Zm-3.86,1.52-.06.06Zm-.1.1,0,.05Zm8.12.47,0,.05Zm-2.3,0-.14.15Zm-8.2,2v0Zm1.93.2-.07.08Zm-.1.1-.05.06Zm4.44,1.64-.08.08Zm-5.91,1v0Zm0,.2,0,0,0,0Zm9-3.93.06-.06ZM19.06,284h0l0,0,0,0Zm-1.23-1.1.14-.14h0Zm9-.46ZM18.61,282l0,0Zm0,0,.05-.05Zm.05-.05h0Zm0,0,0,0Zm6.74-.51ZM22,281.1l.06-.05Z"/><path class="cls-2" d="M20.52,299.75a.61.61,0,0,0-.19.2l0,.06,0,0h0l0,0a2,2,0,0,0-.36.72,4.36,4.36,0,0,0,0,1c0,.28,0,.57,0,.85s0,.67.07,1c0,.13,0,.26,0,.4s0,.39.05.59,0,.52,0,.78,0,.53,0,.8l-.09.24c-.05-.23-.09-.47-.12-.7s-.12-.66-.15-1,0-.5-.05-.75-.06-.4-.08-.59a4.85,4.85,0,0,0-.08-.53c-.06-.21-.13-.42-.2-.63a4.1,4.1,0,0,0-.35-1,1.32,1.32,0,0,0-.37-.41.89.89,0,0,0-.94-.06,1.4,1.4,0,0,0-.54.54,1.68,1.68,0,0,0-.21.7,3.6,3.6,0,0,0-.05.66c0,.25.06.5.08.75s0,.44.05.66.05.49.09.73.1.46.13.7,0,.4,0,.6.07.47.09.7,0,.48,0,.72,0,.34.05.51a2.13,2.13,0,0,0,.07.44c0,.11.05.22.07.33l-.16-.06a6.4,6.4,0,0,1-.79-.48c-.37-.25-.74-.49-1.13-.71a5.28,5.28,0,0,0-.73-.33,1.75,1.75,0,0,0-1.08-.11,1.32,1.32,0,0,0-.62.32,1.3,1.3,0,0,0-.35.81,1.58,1.58,0,0,0,.19.9c.09.21.22.39.32.59a6.49,6.49,0,0,0,.53.83,6,6,0,0,0,.5.63q.32.31.66.6a20.74,20.74,0,0,1,1.7,1.68,7.82,7.82,0,0,1,.55.6,3.73,3.73,0,0,0,.44.45c.14.14.27.3.4.45s.3.35.46.51l.19.18,0,0a1.93,1.93,0,0,0,.3.27l-.08-.06.38.28a1.53,1.53,0,0,0,.16.11l.3.14.4.18.28.13.29.07.12,0a1.76,1.76,0,0,0,.4.07,2.75,2.75,0,0,0,.41,0l.39,0a4.46,4.46,0,0,0,.63,0l.93-.21a6.09,6.09,0,0,0,1-.39l.33-.15a3,3,0,0,0,.42-.27,2.79,2.79,0,0,0,.49-.42,6,6,0,0,0,.46-.54,6.7,6.7,0,0,0,.6-.87,6.76,6.76,0,0,0,.29-.67,5.77,5.77,0,0,0,.22-.58c.12-.35.25-.7.35-1.06s.12-.49.16-.73.1-.49.14-.73L28,310a1.55,1.55,0,0,0,0,.21,4.55,4.55,0,0,1,.35-1.06c.13-.28.25-.57.37-.86s.2-.63.34-.93v0c.14-.3.27-.61.41-.92a1.88,1.88,0,0,1,.14-.24c.06-.1.13-.18.19-.28a1.34,1.34,0,0,0,.17-.65,1.6,1.6,0,0,0-.11-.57A1.3,1.3,0,0,0,29,304a1.06,1.06,0,0,0-1.06.28l-.24.21a4.6,4.6,0,0,0-.41.47l.14-.17a6.14,6.14,0,0,0-.54.72c-.11.19-.23.36-.34.54a8,8,0,0,1-.67,1l-.12.11-.1.05h-.05a1.37,1.37,0,0,1,0-.19c.07-.32.17-.63.26-.95s.22-.77.34-1.15.23-.83.32-1.24c0-.22.09-.43.15-.64a5.06,5.06,0,0,0,.18-.77,1.94,1.94,0,0,0-.06-.68,4.22,4.22,0,0,0-.25-.76,1.34,1.34,0,0,0-1.06-.74,1.15,1.15,0,0,0-.32,0,1.16,1.16,0,0,0-.52.26,1.54,1.54,0,0,0-.29.28,1.37,1.37,0,0,0-.15.21,2.14,2.14,0,0,0-.2.4,5.48,5.48,0,0,0-.23.56,9.13,9.13,0,0,0-.36,1.63c0,.2-.08.4-.1.6a4.85,4.85,0,0,1-.08.55c0,.19,0,.34-.07.5s0,.3-.05.45a4.15,4.15,0,0,1-.22.68l0,0a2.17,2.17,0,0,1,0-.25v-.11s0-.08,0-.12a.34.34,0,0,0,0,.1l0-.46c0-.23,0-.46,0-.69s0-.33,0-.49,0-.31,0-.46,0-.32,0-.48-.05-.48-.07-.72a6.4,6.4,0,0,0-.07-.88l-.09-.45a1.48,1.48,0,0,0-.12-.41,2,2,0,0,0-.18-.48,2.42,2.42,0,0,0-.29-.42,1.17,1.17,0,0,0-.77-.42h-.07a1.06,1.06,0,0,0-.63.25Zm1.21,1.11-.05.05Zm-.05.06,0,0h0Zm4.06.62,0,0h0l0,0Zm-.07.07,0,0h0l0,0Zm-6.5.56,0,.05v-.05h0Zm0,.06h0v0Zm2,3.7V306s0,.1,0,.15v0a.81.81,0,0,0,0-.16ZM23,306a1.24,1.24,0,0,0-.1.2h0v0h0L23,306Zm0,0,0,.06Zm6.45.41,0,.06Zm-1.84.09,0,0h0Zm-2.32.67h0Zm3.82,0,0,.05Zm-.08.14,0,.06Zm-1,2.76v0Zm-13.27,1.57.08.07Zm8.14-5.84v0h0v0Zm1.49-5.22,0-.05h0Zm.05-.06.09-.11ZM20.26,300h0l0,0Z"/><path class="cls-2" d="M19,325.11c-.16,0-.31.08-.47.1a2.59,2.59,0,0,1-.48,0,2.52,2.52,0,0,0-.61.11l-.35.13-.5.1c-.15,0-.29.11-.44.16l-.39.16c-.14.07-.27.16-.4.24l-.32.18a2.12,2.12,0,0,0-.4.34l-.25.27a1.62,1.62,0,0,0-.35.54v0l-.07.11a4.62,4.62,0,0,0-.48,1.12,9.58,9.58,0,0,0-.5,2.18,3.69,3.69,0,0,0,0,1.15,9.76,9.76,0,0,0,.36,1.28,6,6,0,0,0,.45,1.08,3.21,3.21,0,0,0,.36.59c.13.16.26.32.4.47a12.6,12.6,0,0,0,.88.91,5.65,5.65,0,0,0,1.13.68,8.45,8.45,0,0,0,1,.56,5.27,5.27,0,0,0,1.25.28c.38,0,.75.13,1.14.15a5,5,0,0,0,1.52-.3,5,5,0,0,0,1.16-.45,8.36,8.36,0,0,0,.95-.74,5.35,5.35,0,0,0,.8-.7,5.34,5.34,0,0,0,.56-.84l-.05.08L25,335l0-.06v0a5.45,5.45,0,0,0,.46-.94c.12-.32.22-.66.32-1a3.14,3.14,0,0,0,.15-.74c0-.27,0-.53,0-.79a6.24,6.24,0,0,0-.22-1.22,9.32,9.32,0,0,0-.33-1.06,5.81,5.81,0,0,0-.69-1.12,8.51,8.51,0,0,0-.84-1c-.26-.26-.52-.53-.79-.77a4.22,4.22,0,0,0-.93-.57,3.58,3.58,0,0,0-.79-.3l-.43-.15a2.86,2.86,0,0,0-.71-.19,6.54,6.54,0,0,0-.89-.09l-.37,0Zm-.34,1.77c.24,0,.48-.13.72-.15l.36,0,.49.07.27.11.54.16a5.73,5.73,0,0,1,.83.39,5.47,5.47,0,0,1,.51.45l.52.51a6.78,6.78,0,0,1,.92,1.21,6.83,6.83,0,0,1,.4,1.18,6.45,6.45,0,0,1,.14,1.16,1.68,1.68,0,0,1-.06.45l.06-.2a8,8,0,0,1-.69,1.84,2.26,2.26,0,0,0-.16.26,4.19,4.19,0,0,1-.4.54c-.2.17-.42.33-.62.49a7.72,7.72,0,0,1-.72.56,5,5,0,0,1-.65.23l-.58.17a3.11,3.11,0,0,1-.44.08c-.27,0-.53-.08-.8-.12s-.56-.07-.83-.13a4.29,4.29,0,0,1-.78-.37c-.29-.17-.59-.33-.89-.49a4.54,4.54,0,0,1-.48-.39,7,7,0,0,1-1-1.19,9.1,9.1,0,0,1-.65-1.81,2.7,2.7,0,0,1-.08-.56,7.29,7.29,0,0,1,.24-1.46c.07-.23.14-.46.22-.69a5.07,5.07,0,0,1,.24-.65c.12-.17.24-.33.35-.5s.07-.13.11-.2l.06-.07a1.37,1.37,0,0,1,.21-.15l.28-.16.14-.09.33-.12.35-.13.54-.12a3.4,3.4,0,0,0,.34-.12c.22,0,.43,0,.64-.05Zm3.31.69.05,0Zm1,1,.05.05Zm-8.1,1.18,0,.14Zm9.33,1.13,0,.12Zm-.67,3.43,0,.05Zm-3.05,2.07-.09,0ZM25,335l0,.05.06-.1,0,.05Z"/><path class="cls-2" d="M23.31,335.44a.87.87,0,0,0-.83.3.83.83,0,0,0,.14,1.16c.82.74,1.72,1.4,2.59,2.08.44.35.9.7,1.33,1.06.27.22.52.47.77.71s.47.43.72.63l.5.4c.15.12.3.27.44.4a6.11,6.11,0,0,0,1.09.8,1.14,1.14,0,0,0,.85,0,1,1,0,0,0,.61-.82,1.22,1.22,0,0,0-.41-1c-.37-.39-.81-.72-1.19-1.11l.16.16a26.22,26.22,0,0,0-2.72-2.32l-.67-.53c-.2-.16-.38-.34-.57-.5-.41-.33-.8-.69-1.22-1l-.55-.44a.87.87,0,0,0-.51-.17.78.78,0,0,0-.53.19Z"/><path class="cls-2" d="M19.64,88.39c-.2,0-.4,0-.59,0l-.56,0-.78,0h.22l-.37,0a3.69,3.69,0,0,0-.47,0c-.15,0-.31,0-.47,0l-.5,0-.38,0-.33,0h-.52a1,1,0,0,0-.43.16.82.82,0,0,0-.36.77,1.22,1.22,0,0,0,.06.26c0,.1,0,.2,0,.3a3,3,0,0,0,0,.52,1.5,1.5,0,0,1,0,.3c0-.08,0-.15,0-.23,0,.17,0,.34,0,.5a1.93,1.93,0,0,0,0,.24c0,.14,0,.27-.05.4a.87.87,0,0,0,.13.63.84.84,0,0,0,1.16.21h0a.8.8,0,0,0,.34-.52c0-.28.07-.54.08-.82,0-.12,0-.24,0-.36s0-.22,0-.33,0-.2,0-.31v0H16l.36,0a3,3,0,0,0,.67,0,3,3,0,0,1,.52,0h.19l.58,0a6.46,6.46,0,0,0,.88,0c.2,0,.4,0,.61,0a4.9,4.9,0,0,1,.54,0l.64,0h.12l.35,0h-.22c.22,0,.43,0,.65,0h1.5c.18,0,.36,0,.54,0l.45,0H25c.28,0,.56,0,.84,0h0l.46,0,.48,0H27c0,.15,0,.3,0,.44a2.35,2.35,0,0,0,.1.59l0-.06.09.34,0,.08a2,2,0,0,1,0,.24.83.83,0,1,0,1.65-.12v0a4,4,0,0,0-.11-.58c0,.07,0,.14.05.22,0-.2-.1-.39-.14-.58a1.42,1.42,0,0,0,.05.22l-.06-.26a1.53,1.53,0,0,1,0-.37,2.7,2.7,0,0,1,.08-.41,3.66,3.66,0,0,0,.05-.57v.23a.94.94,0,0,0,0-.47.8.8,0,0,0-.63-.53.83.83,0,0,0-.22,0h0l-.18,0h-.26a4,4,0,0,0-.6,0h-.33l.22,0-.92,0H26c-.25,0-.5,0-.74,0a7.3,7.3,0,0,0-.81,0H23.8l-.2,0H22.45a5.81,5.81,0,0,0-.59,0H21c-.24,0-.48-.05-.72-.06h-.1c-.17,0-.35,0-.53,0Zm8.14.1h0Zm-.61.7v0h0v0Zm-1,.9h0Zm1,1.1v0Zm-6-1.12Zm0-1.65h0Zm0,0h0Z"/><path class="cls-2" d="M20.78,89.5a1.45,1.45,0,0,0,0,.36,10.45,10.45,0,0,0-.05,1.25c0,.45,0,.9,0,1.34s-.05.88-.05,1.32c0,.21,0,.42,0,.62a7.63,7.63,0,0,0,0,.83c0,.62,0,1.23,0,1.85s0,1.08,0,1.61l0-.22a20.36,20.36,0,0,0,0,2.47.82.82,0,0,0,.87.78.84.84,0,0,0,.79-.87c0-.16,0-.31,0-.46s0-.31,0-.47,0-.35,0-.53,0-.4,0-.6a1.64,1.64,0,0,0,0,.22,23.58,23.58,0,0,0,0-2.66c0-.52,0-1-.06-1.57,0-.21,0-.41,0-.62s0-.48,0-.71c0-.6.05-1.2.06-1.8s0-1.09,0-1.63c0-.06,0-.12,0-.18a.85.85,0,0,0-.64-1l-.17,0a.83.83,0,0,0-.82.66Zm0,.17v.17C20.76,89.78,20.77,89.73,20.77,89.67Zm1.64.19a.62.62,0,0,1,0,.13A.53.53,0,0,1,22.41,89.86Z"/><path class="cls-2" d="M23.15,100.91h-.51l-.26,0-.23,0H22a1,1,0,0,0-.24,0l-.24,0h-.79a2,2,0,0,0-.42,0l-.28,0a2,2,0,0,1-.49,0,1.5,1.5,0,0,0-.42.09h0a.89.89,0,0,0-.47.14l-.12.09v.06c0,.44,0,.89.06,1.33,0-.07,0-.15,0-.22l0,.31v-.12c0,.13,0,.26,0,.39l.81-.07-.22,0c.8-.07,1.59-.07,2.38-.13l1.69-.09c.41,0,.83-.06,1.24-.07,0,0,0,0,0-.08l-.06-.49c0-.14,0-.28,0-.43s0-.29,0-.43,0-.23,0-.34a1.3,1.3,0,0,0-.57-.14h-.21l-.29,0h-.11Zm-3.23.2h0Zm-.06,0h0Zm-.66,1.95Z"/><path class="cls-2" d="M21.08,101h0Z"/><path class="cls-2" d="M27.72,114.57a1.7,1.7,0,0,0-.55.45l-.12.16c-.15.15-.32.28-.47.43l-.62.69a16.82,16.82,0,0,1-1.53,1.39c-.26.21-.5.43-.74.65s-.52.56-.78.84c-.52.56-1.05,1.11-1.61,1.64-.27.25-.52.53-.78.8s-.56.53-.84.79a28.54,28.54,0,0,0-2.19,2.21l.07-.08-.69.79c-.36.39-.73.77-1.13,1.13s-1,.83-1.49,1.28a.82.82,0,0,0-.13,1.16.83.83,0,0,0,1.17.13l0,0c.57-.52,1.18-1,1.74-1.5s1.1-1.15,1.63-1.75l-.15.15.29-.31c.48-.52,1-1,1.5-1.52s1.11-1,1.62-1.57c.26-.28.55-.52.82-.79l.77-.79c.53-.55,1-1.14,1.59-1.65.18-.16.38-.31.56-.48s.42-.37.64-.54A12.1,12.1,0,0,0,27.56,117l.2-.21a3,3,0,0,1,.27-.23c.15-.16.3-.32.43-.49h0a.85.85,0,0,0,.37-1.09.86.86,0,0,0-.76-.48.82.82,0,0,0-.35.08Zm-8.95,11.09,0,0Zm-1.35-1,.07-.08Z"/><path class="cls-2" d="M11.23,759h-.75c-.29,0-.58,0-.86,0H8.77a6.8,6.8,0,0,0-.9.06h-.1a.7.7,0,0,0-.42.13H7.22a.67.67,0,0,0-.43.3.73.73,0,0,0-.09.5l.06.4c0,.54,0,1.08,0,1.62v.8a7.16,7.16,0,0,0,0,.8c0,.14,0,.29,0,.43a1.79,1.79,0,0,0,0,.23v0a1.2,1.2,0,0,0,.11.53.84.84,0,0,0,.85.41c.31,0,.63,0,.94,0h.87c.29,0,.57-.05.85-.08s.52,0,.79,0a5.66,5.66,0,0,0,.82-.06,1,1,0,0,0,.55-.09.79.79,0,0,0,.4-.71c0-.23,0-.47,0-.71,0-.62,0-1.25-.05-1.88s-.08-1.27-.16-1.91a.9.9,0,0,0-.13-.39.78.78,0,0,0-.28-.29,1,1,0,0,0-.42-.12h-.06a4.63,4.63,0,0,0-.65.1Zm-2,1.3.91,0c.33,0,.66,0,1,0a2.22,2.22,0,0,0,.37,0,.5.5,0,0,0,0,.12c.05.66.08,1.32.1,2l0,1.06v.23h-1c-.34,0-.68.06-1,.09s-.6,0-.9,0H8.12c0-.1,0-.19,0-.28s0,.11,0,.17c0-.19,0-.37,0-.55s0-.44,0-.66,0-.55,0-.82,0-.58,0-.86,0-.32,0-.47l.26,0h.86Z"/><path class="cls-2" d="M9.45,759.48a3.5,3.5,0,0,0-.43.33L9,759.73a.71.71,0,0,0-.46-.21c-.38,0-.65.29-.9.52a.67.67,0,0,0-.14.78l0,0c-.06.13-.11.27-.16.41a.76.76,0,0,0,.15.75.47.47,0,0,0,.1.1,2.29,2.29,0,0,0-.1.23.79.79,0,0,0,0,.43,1.83,1.83,0,0,0,.08.25.83.83,0,0,0,.29.3l.09,0a.67.67,0,0,0,.32.89.65.65,0,0,0,.43.05l.07,0h.1l.06.08a.69.69,0,0,0,.67.19.87.87,0,0,0,.31-.14,1.34,1.34,0,0,0,.4,0,1.52,1.52,0,0,0,.5-.15,2.77,2.77,0,0,0,.37-.22l.12-.09.06,0a.73.73,0,0,0,.5.09.69.69,0,0,0,.51-.48,1.55,1.55,0,0,0,.07-.23,1.89,1.89,0,0,0,.1-.78.73.73,0,0,0-.24-.38.79.79,0,0,0-.06-.6.51.51,0,0,0-.22-.24.87.87,0,0,0,.14-.27.68.68,0,0,0-.29-.77l-.08,0a.68.68,0,0,0-.08-.31.67.67,0,0,0-.24-.26.67.67,0,0,0-.5-.08.87.87,0,0,0-.46.25.69.69,0,0,0-.66-.5.61.61,0,0,0-.3.08Z"/><path class="cls-2" d="M14.39,761.06a.65.65,0,0,1-.2.05l-.72,0a5,5,0,0,1-.77,0,3.05,3.05,0,0,0-.6-.06.8.8,0,0,0-.49.18.75.75,0,0,0-.21.47.63.63,0,0,0,.19.48.62.62,0,0,0,.46.22,1.66,1.66,0,0,1,.44,0l-.06,0a3,3,0,0,0,.52.07,4.56,4.56,0,0,0,.64,0h.31v.09a1.83,1.83,0,0,0,0,.33,4.78,4.78,0,0,0,.07.65c.05.3.1.6.13.89s0,.77,0,1.15l0,.4-.28,0c-.23,0-.45,0-.68-.06h-1l-1,0a1.51,1.51,0,0,1-.3,0c0-.12,0-.24,0-.36,0-.35,0-.7,0-1.05a.67.67,0,1,0-1.34,0c0,.5-.05,1-.05,1.51a2.76,2.76,0,0,0,.05.64.77.77,0,0,0,.57.56,2.26,2.26,0,0,0,.39.07,5.15,5.15,0,0,0,1.11,0h1.53c.23,0,.45.06.68.05s.33,0,.5-.06h.44a.74.74,0,0,0,.59-.19.81.81,0,0,0,.17-.85,2.13,2.13,0,0,1-.07-.44.22.22,0,0,0,0,.08s0-.09,0-.13v0c0-.44,0-.87-.06-1.31,0-.27-.06-.54-.09-.8s-.09-.49-.11-.74l0-.5v0a.81.81,0,0,1,0-.22,1.1,1.1,0,0,0,0-.78.7.7,0,0,0-.63-.39.63.63,0,0,0-.19,0Zm.88,1.87a.41.41,0,0,0,0,.11S15.27,763,15.27,762.93Zm.26,2.83v0h0Z"/><path class="cls-2" d="M31.87,734.46a12.71,12.71,0,0,0-1.46,1.07,1.54,1.54,0,0,0-.19.17.85.85,0,0,0-.22.48.77.77,0,0,0,.2.52l.17.17a2.11,2.11,0,0,1,.17.22c.12.18.24.35.37.51a2.14,2.14,0,0,0,.42.37l.13.14a.84.84,0,0,0,.42.32.65.65,0,0,0,.66-.17,1,1,0,0,0,.23-.54v-.33a7,7,0,0,1,0-1,3.53,3.53,0,0,0,0-.46v-.47a.57.57,0,0,0,0-.13.42.42,0,0,0,0-.1.64.64,0,0,0,0-.49.67.67,0,0,0-.58-.34.54.54,0,0,0-.28.08Z"/><path class="cls-2" d="M37.94,739.81a3.82,3.82,0,0,1-.67.15h-1c-.33,0-.65.08-1,.12a3,3,0,0,1-.43,0l-.59,0a.64.64,0,0,0-.68.6.63.63,0,0,0,.6.67h0c.48.35,1,.7,1.41,1.06a1.31,1.31,0,0,0,.58.38.76.76,0,0,0,.66-.09,2.37,2.37,0,0,0,.3-.23c.38-.33.71-.7,1.09-1l.51-.43.13-.11a.71.71,0,0,0,.21-.46.64.64,0,0,0-.31-.57.79.79,0,0,0-.42-.1,1.59,1.59,0,0,0-.48.07Zm-1.31,1.42,0,0-.14.13a.86.86,0,0,0-.18-.14h0l.35,0Z"/><path class="cls-2" d="M34.11,735.79c-.37,0-.73,0-1.1,0a13,13,0,0,0-1.39.12.61.61,0,0,0-.4.28.62.62,0,0,0-.08.48.65.65,0,0,0,.29.4.7.7,0,0,0,.47.08l.79-.08c.26,0,.52,0,.78,0s.64,0,1-.05h.64l.16,0,.24.07,0,0c.08.12.15.25.22.38s0,.21.05.32,0,.26,0,.39a1.77,1.77,0,0,0,0,.46h0c0,.19,0,.37,0,.55s0,.44,0,.66a6,6,0,0,0,0,.61c0,.21,0,.42.08.63h0v0h0a.54.54,0,0,0,.16.34.64.64,0,0,0,1.1-.41h0c0-.2-.05-.4-.07-.6a2.45,2.45,0,0,1,0-.38,3.62,3.62,0,0,0,0-.57c0-.34,0-.68,0-1v.16a2.94,2.94,0,0,1,0-.42,1.75,1.75,0,0,0,0-.4,2.2,2.2,0,0,0-.24-1,2.47,2.47,0,0,0-.5-.71,1.29,1.29,0,0,0-.39-.23l-.12-.05a1.32,1.32,0,0,0-.33-.08,1.86,1.86,0,0,0-.34-.06h-.34a5,5,0,0,0-.67,0Zm1.3,1.32h0Zm.31,1.64v0Z"/><path class="cls-2" d="M10.39,739.26a.72.72,0,0,0,.68.74l.53,0,.5,0c.38,0,.75.07,1.12.12.69.09,1.38.07,2.08.11s1.46,0,2.19,0,1.4.09,2.1.13a10.28,10.28,0,0,0,1.11,0h.82c.33,0,.65,0,1,0l1,0a7.85,7.85,0,0,1,1,0l1,.05.9,0h.81a.71.71,0,0,0,.11-1.41h-.05c-.27,0-.54,0-.81,0l-1,0-1-.06c-.35,0-.68,0-1,0l-1,.05c-.34,0-.66,0-1,0l-1,0c-.36,0-.71,0-1.07,0l-1-.09a8.18,8.18,0,0,0-1,0c-.7,0-1.4,0-2.1,0s-1.35,0-2-.11a9.28,9.28,0,0,0-1.06-.11,3.62,3.62,0,0,0-.47,0l-.56-.06h0a.72.72,0,0,0-.69.68Z"/><path class="cls-2" d="M10.41,739.35a.64.64,0,0,0-.22.48c0,.34,0,.68,0,1s0,.7,0,1-.07.63-.1.94,0,.68,0,1c0,.7-.07,1.4-.13,2.1,0,.32-.06.65-.06,1s.05.66,0,1,0,.55,0,.83l0,.42a4.24,4.24,0,0,0,0,.62.66.66,0,0,0,0-.14c0,.14,0,.27,0,.41a13.37,13.37,0,0,1-.07,1.42c0,.48,0,1,0,1.46a12.18,12.18,0,0,1,0,1.48c0,.23,0,.47,0,.71a1.81,1.81,0,0,0,.07,1,.72.72,0,0,0,1,.29.71.71,0,0,0,.35-.78c0-.18,0-.37,0-.55s0-.46,0-.7a14.26,14.26,0,0,0,0-1.46c0-.47,0-1,0-1.42,0-.24,0-.47.06-.71a5.21,5.21,0,0,0,0-.79c0-.12,0-.24,0-.36,0-.65.1-1.3.06-2,0-.33,0-.66,0-1s.06-.65.09-1,.05-.74.06-1.1,0-.67.05-1a7.89,7.89,0,0,1,.06-1,5.32,5.32,0,0,0,.06-1l0-.86c0-.28,0-.57,0-.86a.74.74,0,0,0-.19-.51.66.66,0,0,0-.48-.22h0a.69.69,0,0,0-.49.19Zm.91,10.25v0h0Zm-.14,5.8Zm.05.11v0Zm.12-5.56v0Z"/><path class="cls-2" d="M10.43,755.23a.71.71,0,0,0,0,1,.74.74,0,0,0,.49.22l.57.08a4.5,4.5,0,0,0,.51.08l.46,0,1,0c.32,0,.64,0,1,0l1.06.09a8.85,8.85,0,0,0,1,0h5.14a7,7,0,0,1,.92,0l.2,0h0l.15,0H23l.56.07h.94c.32,0,.64,0,1,.08s.63,0,1,0l.36,0a.8.8,0,0,0,.21.05.7.7,0,0,0,.74-.68.68.68,0,0,0-.19-.51.83.83,0,0,0-.32-.2l-.23-.05-.13,0-.38,0c-.32,0-.63,0-.95,0s-.63-.07-1-.08h-.95l-.5-.06-.26,0-.23,0a6.92,6.92,0,0,0-.91,0l-1,0h-1.6c-.83,0-1.66,0-2.48,0-.35,0-.69,0-1,0s-.7-.08-1.06-.1c-.66,0-1.33,0-2,0a2.76,2.76,0,0,1-.64,0l.17,0L10.94,755h0a.72.72,0,0,0-.46.2Zm16.46,1.83h0Z"/><path class="cls-2" d="M27,739.74a.66.66,0,0,0-.22.48l0,.67c0,.26.06.51.09.76a8.12,8.12,0,0,1,0,.86c0,.31,0,.63,0,.94,0,.61,0,1.23-.08,1.84,0,.34,0,.68,0,1s-.06.65-.08,1a7.49,7.49,0,0,0,0,1c0,.33,0,.66,0,1a11.54,11.54,0,0,1,0,1.31A13.41,13.41,0,0,0,26.5,752c0,.45-.07.89-.08,1.33a8.64,8.64,0,0,0,.1,1.44,5,5,0,0,1,0,.77c0,.14,0,.28,0,.43s0,.21,0,.32a.7.7,0,0,0,.65.75.71.71,0,0,0,.76-.65v0c0-.16,0-.3,0-.46s0-.39,0-.59a11.38,11.38,0,0,0-.1-1.3,4.82,4.82,0,0,1,0-.93c0-.32.06-.63.06-.95a7.45,7.45,0,0,1,.08-1,8.86,8.86,0,0,0,.12-1c0-.29,0-.59,0-.88a8.51,8.51,0,0,0,0-1,7.53,7.53,0,0,1,0-1c0-.33.07-.66.07-1s0-.45,0-.68,0-.43,0-.65c0-.44,0-.88.05-1.32s0-.83.06-1.25c0-.22,0-.43,0-.64s-.05-.55-.09-.82l0-.64a.72.72,0,0,0-.68-.73h0a.75.75,0,0,0-.49.19Z"/><path class="cls-2" d="M17.45,756.43c0,.32,0,.65,0,1s-.06.63-.08.94,0,.64,0,.95a7.38,7.38,0,0,0,.05,1.05c0,.25,0,.5,0,.74a6.55,6.55,0,0,0,.08.9.66.66,0,0,0,.31.45.71.71,0,0,0,.53.09.73.73,0,0,0,.45-.32.79.79,0,0,0,.09-.52c0-.11,0-.22,0-.33s0-.45,0-.68,0-.57-.06-.85,0-.5,0-.75,0-.57,0-.86.05-.55.06-.83,0-.6,0-.9a.72.72,0,0,0-.68-.73h0a.71.71,0,0,0-.71.67Zm1.33,3.43v0Zm-1.37.37a.28.28,0,0,0,0,.09Z"/><path class="cls-2" d="M31.65,745.51l-.91.08-1.41.06c-.5,0-1,0-1.5-.07a.71.71,0,0,0-.73.68.7.7,0,0,0,.68.73h0a12.89,12.89,0,0,0,1.76.06l.94,0,1-.08a3.31,3.31,0,0,1,.63,0,2.48,2.48,0,0,0,.54.06l.59,0a5.33,5.33,0,0,1,1,.09.72.72,0,0,0,.52-.19.74.74,0,0,0,.22-.49.74.74,0,0,0-.19-.51.76.76,0,0,0-.49-.22,6.4,6.4,0,0,0-.88-.09,7.69,7.69,0,0,1-1,0,4.2,4.2,0,0,0-.62-.07h-.16Z"/><path class="cls-2" d="M33.76,746.54c0,.55.07,1.1.12,1.65l.06.79v-.19l.06.67c0,.63-.05,1.26-.06,1.89,0,.33,0,.66-.06,1s0,.66,0,1,0,.58,0,.87,0,.63-.07.95a6.86,6.86,0,0,0,0,.91c0,.31,0,.63,0,.94s0,.6,0,.89v0c0,.18,0,.36,0,.53s0,.6.07.9.07.52.09.79,0,.44.06.66.08.45.12.67.14.67.23,1a.74.74,0,0,0,.32.45.72.72,0,0,0,1-.22.67.67,0,0,0,.09-.53c0-.1,0-.2-.07-.3a2.37,2.37,0,0,1-.11-.46c-.06-.33-.15-.67-.18-1s0-.49-.06-.73-.07-.46-.1-.69,0-.73-.08-1.09,0-.62,0-.93,0-.66,0-1,0-.6.06-.9,0-.62.06-.93c0-.62,0-1.24.08-1.86,0-.34,0-.68,0-1l.06-1a4.21,4.21,0,0,0,0-.71c0-.22,0-.45-.06-.68v-.08c0-.4-.07-.79-.1-1.19s0-.65-.06-1a.8.8,0,0,0-.19-.51.76.76,0,0,0-.49-.22h0a.7.7,0,0,0-.7.68Zm1.43,11.33v0ZM34,760v0Z"/><path class="cls-2" d="M17.63,762a.71.71,0,0,0,.67.73,18.73,18.73,0,0,0,2.12.16h1.13c.33,0,.66.05,1,0l1.09,0c.34,0,.67,0,1,0,.68,0,1.37.06,2.05.08a12.44,12.44,0,0,1,1.37.07,4.8,4.8,0,0,0,.85.08c.28,0,.56,0,.83,0h.42c.16,0,.32,0,.47,0s.6,0,.9,0c.63,0,1.26,0,1.88,0,.24,0,.48,0,.72,0a1.63,1.63,0,0,1,.31,0,.73.73,0,0,0,.86-.3.68.68,0,0,0,.09-.52.74.74,0,0,0-.32-.45,1.6,1.6,0,0,0-.71-.16,3.64,3.64,0,0,0-.66,0l-.82,0h-1c-.29,0-.57,0-.86,0s-.63,0-.95,0-.43,0-.64,0a6.5,6.5,0,0,1-1.08,0h0a6.88,6.88,0,0,0-.9-.1c-.32,0-.64,0-1,0l-2-.09c-.42,0-.85,0-1.27,0s-.58,0-.86,0-.68,0-1,0H20.24a8.46,8.46,0,0,1-.87,0c-.33-.05-.67-.07-1-.1H18.3a.72.72,0,0,0-.68.68Zm10.88-.26h0Z"/><path class="cls-2" d="M16.67,742.34l-.59,0h-.6l-1.05,0a2.89,2.89,0,0,0-.5,0,.83.83,0,0,0-.62.55l0-.08,0,.1,0,.06,0,0a1.06,1.06,0,0,0-.09.36,1.63,1.63,0,0,0,0,.31c0,.11,0,.22.06.33s0,.28,0,.42,0,.46,0,.69a.71.71,0,0,0,1.41.05h0c0-.32,0-.65,0-1a2,2,0,0,0,0-.42h1.05c.29,0,.57,0,.86,0a3.46,3.46,0,0,1,.79,0,6.26,6.26,0,0,0,.74.1l.83,0c.56,0,1.1,0,1.66.07.23,0,.47,0,.7,0l.85.07h.54a6.47,6.47,0,0,1,.88,0h0l0,0,0,.2a2.46,2.46,0,0,0,0,.47.76.76,0,0,0,0,.15.86.86,0,0,0,0,.32.7.7,0,0,0,.83.53h0a.76.76,0,0,0,.45-.32,1.16,1.16,0,0,0,.1-.8,1.38,1.38,0,0,1,0-.35,2.42,2.42,0,0,0,.07-.47,1.93,1.93,0,0,0,0-.48.85.85,0,0,0-.87-.61,1.11,1.11,0,0,1-.26,0l-.11,0h0a4.65,4.65,0,0,0-.74-.08H22.4l-.78-.06-.74,0-1.59-.05-.82,0c-.23,0-.47,0-.7-.06l-.54-.08-.29,0h-.27Zm-2,1.12,0,0h0l0,0Zm9.22-.69-.16,0Z"/><path class="cls-2" d="M19,742.8a.73.73,0,0,0-.53.85,10.43,10.43,0,0,1,.17,1.12c0,.27,0,.54,0,.82s0,.64,0,1l0-.18a3.25,3.25,0,0,1,0,.54c0,.2,0,.41,0,.62s0,.41,0,.62,0,.44-.05.65,0,.44,0,.66,0,.35,0,.53a6,6,0,0,1,0,1,2.48,2.48,0,0,0,0,.27,2.66,2.66,0,0,0,0,.3,2.46,2.46,0,0,1,0,.26c0-.06,0-.12,0-.18,0,.14,0,.29.05.43s0,.36,0,.54,0,.2,0,.29a.71.71,0,0,0,.32.45.76.76,0,0,0,.53.09.71.71,0,0,0,.44-.32.7.7,0,0,0,.09-.49c0-.07,0-.14,0-.21s0-.24,0-.36,0-.31-.06-.47a1.94,1.94,0,0,0,0-.24,1.64,1.64,0,0,1,0-.23v0a2.72,2.72,0,0,0,.05-.49c0-.18,0-.35,0-.53a4.35,4.35,0,0,0,0-.51,4,4,0,0,1,0-.69c0-.44.05-.88.05-1.32,0-.22,0-.44,0-.65a5.49,5.49,0,0,0,0-.58c0-.43,0-.86,0-1.29a10,10,0,0,0-.21-1.72.71.71,0,0,0-.69-.55H19Zm1,8.65v.07h0v-.06Zm.09,1v0Z"/><path class="cls-2" d="M18.65,752l-.9.06h-.07c-.38,0-.77,0-1.15,0a.81.81,0,0,0-.52.19.71.71,0,0,0,0,1h0a.66.66,0,0,0,.48.22c.49,0,1,0,1.45-.07h-.18l.32,0h-.18l1.3-.1H19a6.32,6.32,0,0,1,.87,0,7.52,7.52,0,0,0,.82.05,6.68,6.68,0,0,1,.78,0l.59,0a.71.71,0,1,0,.05-1.41c-.21,0-.42,0-.64-.06a2.69,2.69,0,0,1-.4,0h-.46c-.29,0-.58,0-.87,0h-.23a6.18,6.18,0,0,0-.85.06Zm-1,.07h.07l.11,0-.18,0Z"/><path class="cls-2" d="M23.45,755.86c-.19.19-.36.38-.56.56s-.25.2-.37.3a5.34,5.34,0,0,0-.44.39,6.55,6.55,0,0,0-.66.63c-.21.23-.43.46-.65.68-.37.38-.75.74-1.11,1.13s-.47.51-.72.76l-.35.34a5.19,5.19,0,0,0-.35.42,5.49,5.49,0,0,1-.41.44.71.71,0,0,0,1,1,7.57,7.57,0,0,0,.53-.6l0,.07.08-.1,0,0,0,0,.06-.08c.19-.21.4-.4.6-.6s.46-.49.7-.74.72-.73,1.09-1.1l.6-.65c.21-.21.44-.42.66-.62l.41-.36c.12-.1.26-.2.37-.3s.37-.37.56-.56a.71.71,0,0,0,0-1,.74.74,0,0,0-.52-.22.67.67,0,0,0-.48.2Zm-5.22,5.22-.08.1Z"/><path class="cls-2" d="M33.54,746.37a2.68,2.68,0,0,0-.84.9c-.37.42-.78.81-1.17,1.21-.22.24-.42.49-.63.73s-.4.46-.61.69-.42.47-.64.7-.5.48-.75.73-.52.48-.77.75-.42.47-.65.68l-.6.54a.7.7,0,0,0,1,1h0c.26-.22.5-.44.74-.67s.44-.48.67-.71.51-.49.76-.73.51-.49.75-.74c.42-.44.83-.9,1.21-1.36s.86-.94,1.3-1.4a6.15,6.15,0,0,0,.49-.53c.15-.18.27-.35.4-.53l.06,0a.7.7,0,0,0-.35-1.32.76.76,0,0,0-.33.08Z"/><path class="cls-2" d="M26.56,775.85l-.65,0h-.43l-.63,0h-.5l-1.51,0q-.82,0-1.65,0H20.1l-.66,0-.65,0-.31,0-1.15,0H15.19a.75.75,0,0,0-.8.65c0,.3,0,.6,0,.89,0,.14,0,.27,0,.4v.2l0,.41,0,.72c0,.33,0,.67,0,1l0,.31V781a8.61,8.61,0,0,0,0,.88c0,.23,0,.46,0,.69v.28l0,.28v.26a9.18,9.18,0,0,1-.05,1.39l0,.19a3.81,3.81,0,0,0,0,.59c0,.2,0,.39,0,.58l0,.29a5.78,5.78,0,0,1,0,.58c0,.31,0,.61,0,.88v.57c0,.24,0,.48,0,.72v.14h0v0l0-.05a.71.71,0,0,0,.67.74.83.83,0,0,0,.5-.14h.21l1.22,0h.19c.36,0,.72,0,1.08-.07l.86-.06h2.88c.33,0,.65,0,1,0l.32,0,.95-.08h.25c.29,0,.58,0,.86,0l.73,0c.35,0,.67,0,1,.06h.13a5.79,5.79,0,0,0,.72,0h.33a.64.64,0,0,0,.33-.13.78.78,0,0,0,.26,0h.11a.73.73,0,0,0,.6-.84q0-.51-.06-1v-.54c0-.15,0-.3,0-.44v-.29c0-.12,0-.23,0-.35v-.18l0-.49c0-.19,0-.38,0-.57v-.18l0-.31a7.36,7.36,0,0,0,0-1.05v-.15c0-.31,0-.63,0-.95s0-.74.06-1.15.07-.74.07-1.12v-.2a4.93,4.93,0,0,1,0-.94,7.38,7.38,0,0,0,0-1.15,1.84,1.84,0,0,0-.36-1.3,1,1,0,0,0-.66-.34,1.66,1.66,0,0,0-.22,0l-.19,0-.14,0H28l-.46,0h-.35l-.67,0Z"/><path class="cls-2" d="M21.09,772c-.38,0-.76,0-1.15.07l-1.05.06c-.3,0-.6,0-.9,0l-.71,0h-.9c-.38,0-.75,0-1.11,0l-1,0-1.2,0-1.18.07-.51,0-.38,0a4.87,4.87,0,0,0-.65,0l-.54.09a1.22,1.22,0,0,0-.44.22l-.12.12a1.81,1.81,0,0,0-.25.3,1.1,1.1,0,0,0-.24.6,1.31,1.31,0,0,0,0,.28,2.63,2.63,0,0,0-.08.3,6.87,6.87,0,0,0-.08.78c0,.26-.06.51-.1.77a6,6,0,0,0,0,.85c0,.55,0,1.09,0,1.64s.05,1.22.08,1.83v.7c0,.28,0,.56,0,.84s0,.8,0,1.2V783c0,.49,0,1,0,1.47v0c0,.5,0,1,0,1.5s0,1.12,0,1.67,0,1.16.07,1.74.08.87.1,1.3c0,.64,0,1.27,0,1.9a2.83,2.83,0,0,0,.14,1.12,1.6,1.6,0,0,0,.92.81,3.22,3.22,0,0,0,1.06.21l1.05.08c.35,0,.68,0,1,0l.51,0H14l.63,0c.26,0,.53,0,.81,0l.83,0h2c.35,0,.68,0,1,0l1.05,0c.34,0,.7,0,1,0a7.09,7.09,0,0,1,1,0l.49,0a5.28,5.28,0,0,0,.56,0c.35,0,.68,0,1,0s.87,0,1.3,0h.61l.79,0h2.07c.3,0,.61,0,.91,0h-.2l.88,0c.33,0,.67,0,1,0h.69l.82,0a13.43,13.43,0,0,0,1.41-.13l.63-.1a3.55,3.55,0,0,0,.47-.08,1.08,1.08,0,0,0,.51-.26,1.32,1.32,0,0,0,.32-.46c.07-.13.12-.26.19-.39l.07-.14A1.9,1.9,0,0,0,37,793c0-.12,0-.24.06-.36a2.71,2.71,0,0,0,0-.4c0-.17,0-.34,0-.51,0-.33,0-.66.05-1,0-.17,0-.33,0-.5s0-.42,0-.62,0-.4,0-.6l0-.65c0-.22,0-.45,0-.68l0-.65a4.87,4.87,0,0,1,0-.54c0-.22,0-.43,0-.64a5.19,5.19,0,0,0,0-.79c0-.19-.06-.36-.07-.54s0-.35,0-.52v-.54c0-.27,0-.54,0-.81V782l0-.43v-.9c0-.42,0-.84,0-1.26s-.1-.77-.14-1.16-.08-.76-.11-1.15-.08-.65-.11-1a2.6,2.6,0,0,1,0-.26,4.87,4.87,0,0,0,0-.54c0-.21,0-.42-.07-.62s0-.32,0-.47a2.39,2.39,0,0,0-.14-.88c-.21-.62-.84-.79-1.4-.94a5.32,5.32,0,0,0-1-.15l-.83-.08a12.05,12.05,0,0,0-1.9,0h-.89a8,8,0,0,1-1,0c-.35,0-.68-.1-1-.1h-1c-.67,0-1.33-.09-2-.12-.35,0-.69,0-1,0s-.67,0-1,0h-.39c-.68,0-1.35.06-2,.09Zm-2.22.13h0Zm-6.84.26h0Zm1.79,1.37h.4l.39,0h.13c.14,0,.29,0,.44,0h.56l.31,0h.78c.48,0,1,0,1.43-.06h.51l.89,0,.53,0,.66,0,1.32-.06.59,0h1.87c.47,0,.93,0,1.41.07l.62,0,.86,0h.78a2.48,2.48,0,0,1,.38,0l.18,0,.18,0h.08c.2,0,.4,0,.6,0h1.65l.64,0h.28a10.15,10.15,0,0,1,1.1.07l.32,0h.13a6.41,6.41,0,0,1,.88.11,3.68,3.68,0,0,1,.47.15.59.59,0,0,1,0,.13v.38c0,.11,0,.22,0,.33a3.42,3.42,0,0,0,0,.45c0,.11,0,.23,0,.34a1.7,1.7,0,0,1,0,.26,4.17,4.17,0,0,0,0,.5v.1c0,.11,0,.22,0,.33l0,.16c0,.19,0,.39.06.58s0,.45.07.68l0,.4c0,.12,0,.23,0,.35v.1a4.81,4.81,0,0,1,.07.53v.45a4.86,4.86,0,0,0,0,.54v.6c0,.28,0,.56,0,.83v.22c0,.12,0,.24,0,.35s0,.33,0,.5l0,.3v1.07c0,.1,0,.21,0,.32s0,.23,0,.34,0,.19,0,.28a1.76,1.76,0,0,1,0,.32v.35c0,.12,0,.24,0,.36a7.63,7.63,0,0,0,0,1.07v.67c0,.23,0,.46,0,.69s0,.2,0,.3v.24a4.42,4.42,0,0,0,0,.63l0,.16c0,.12,0,.24,0,.37s0,.22,0,.33v.1q0,.32,0,.63a1.93,1.93,0,0,0,0,.34c0,.13,0,.25,0,.38l0,.25,0,.2a.12.12,0,0,1,0,.08l-.11.25-.08.13-.12,0-.15,0-.76.12c-.5.06-1,.09-1.49.11h-.74c-.33,0-.66,0-1,0h-.6l-.6,0h-.7l-.61,0H27.42l-.62,0h-.91l-.76,0-.19,0-.54,0h-.1l-.37,0h-1l-.26,0a6.13,6.13,0,0,0-.74,0H19.58c-.27,0-.54,0-.81,0l-.78,0H16.62l-.7,0h-.19l-.52,0H14l-.72,0q-.3,0-.6,0h-.38a5.46,5.46,0,0,1-.57,0l-.36,0h-.13c-.24,0-.47,0-.71-.07a1.43,1.43,0,0,1-.28-.13.88.88,0,0,1,0-.17c0-.15,0-.3,0-.45s0-.4,0-.6v-.47c0-.36,0-.71,0-1.07,0-.2,0-.4,0-.6v-.18l0-.36,0-.3c0-.3,0-.61-.05-.91v-1.78c0-.32,0-.63,0-.94a7.89,7.89,0,0,0,0-1v-.45c0-.29,0-.59,0-.88v-.88a4.87,4.87,0,0,0,0-.54v-.4c0-.42,0-.84,0-1.26l0-.45,0-.65c0-.7,0-1.39,0-2.08,0-.26,0-.52.07-.77l0-.27c0-.18,0-.37,0-.55v-.1c0-.12,0-.23,0-.35a.64.64,0,0,0,.1-.26l.08-.15.06-.13a.41.41,0,0,1,0-.09v0h0l.09,0a1.66,1.66,0,0,0,.31,0h.08l.48,0a2.56,2.56,0,0,1,.39,0h.14l.95,0,.66,0h.15ZM27.13,795h0Z"/><path class="cls-3" d="M22.75,773.39h0l-.58,0q-.66,0-1.32.06l-.66,0-.54,0-.89,0h-.5l-1.44.06H15.17l-.44,0H14.6l-.38,0h-.7l-.66,0-.95.05h-.15l-.39,0-.48,0h-.08c-.06,0-.19,0-.31.05h-.09a.38.38,0,0,0-.09.13l-.06.13-.07.16a1.17,1.17,0,0,1-.1.26,1.39,1.39,0,0,0,0,.35v.09c0,.19,0,.37,0,.56l0,.27a4.9,4.9,0,0,0-.07.77c0,.69,0,1.38,0,2.08,0,.21,0,.44,0,.65l0,.45c0,.42,0,.84,0,1.26v.4c0,.18,0,.36,0,.53V783c0,.3,0,.59,0,.89v.45c0,.33,0,.64,0,1s0,.62,0,.94,0,.7,0,1V788c0,.3,0,.6.05.9v.3l0,.37,0,.18c0,.2,0,.4,0,.6s0,.71,0,1.07v.46c0,.2,0,.41,0,.61s0,.3,0,.45,0,.12,0,.17a1.75,1.75,0,0,0,.28.13c.24,0,.48.06.72.07h.12l.36,0,.57,0h.38l.6,0,.72,0h.37l.46,0h.42l.53,0h.18l.71,0H18c.26,0,.53,0,.79,0l.8,0h.81l.45,0h1.1a6,6,0,0,1,.73,0l.26,0h1l.37,0h.1l.55,0h.18c.26,0,.51,0,.77,0h.9l.62,0H28.6l.6,0h1.89c.33,0,.66,0,1,0h.74c.47,0,1,0,1.48-.11l.76-.12.15,0,.13,0,.07-.14.12-.24h0l0-.09a1.11,1.11,0,0,0,0-.19l0-.25a2.48,2.48,0,0,0,0-.38c0-.12,0-.23,0-.34s0-.42,0-.63v-.1c0-.11,0-.22,0-.33l0-.37V790a4.43,4.43,0,0,1,0-.63v-.24c0-.1,0-.2,0-.3s0-.46,0-.69v-.67a7.63,7.63,0,0,1,0-1.07c0-.12,0-.25,0-.37v-.34c0-.11,0-.22,0-.32a2.19,2.19,0,0,0,0-.28,2,2,0,0,1,0-.35c0-.1,0-.21,0-.32v-1.06l0-.3,0-.5c0-.12,0-.23,0-.35V782c0-.28,0-.55,0-.83v-1.59c0-.18,0-.36-.07-.54V779a2,2,0,0,1,0-.34l0-.4c0-.23-.05-.46-.06-.68l-.06-.58,0-.16c0-.11,0-.22,0-.33v-.1a4.17,4.17,0,0,1,0-.5c0-.13,0-.2,0-.26s0-.23,0-.34,0-.3,0-.46v-.41c0-.1,0-.2,0-.29s0-.09,0-.14l-.48-.15a6.44,6.44,0,0,0-.87-.1h-.13l-.33,0a8,8,0,0,0-1.1-.07H32l-.63,0h-.85l-.51,0h-.29c-.2,0-.41,0-.61-.06H29l-.19,0-.18,0H27.52l-.87,0-.62,0c-.47,0-.94-.07-1.41-.08H22.75Zm1.6,2.58h.5l.64,0h.42l.65,0c.22,0,.45,0,.68,0h.34a3.57,3.57,0,0,1,.46,0h.09l.11,0,.14,0,.19,0,.22,0a1.15,1.15,0,0,1,.67.35,1.87,1.87,0,0,1,.35,1.3,6.31,6.31,0,0,1,0,1.15,6,6,0,0,0,0,1v.2c0,.38,0,.75-.06,1.12s-.07.79-.07,1.15,0,.64.05.95v.15a7.36,7.36,0,0,1,0,1.05l0,.31v.18a5.44,5.44,0,0,0,0,.57c0,.16,0,.33,0,.49v.18c0,.12,0,.23,0,.34v.3c0,.14,0,.29,0,.44v.27a2.43,2.43,0,0,0,0,.27q0,.51.06,1a.73.73,0,0,1-.6.84H29a.58.58,0,0,1-.26-.05.64.64,0,0,1-.34.14H28a6,6,0,0,1-.72,0h-.14c-.34,0-.65-.06-1-.06l-.74,0c-.28,0-.57,0-.86,0h-.25l-.94.08-.33,0c-.32,0-.64,0-1,0H19.2l-.86.06c-.36,0-.72.06-1.08.07h-.19c-.41,0-.81,0-1.22,0h-.21a.9.9,0,0,1-.5.14.75.75,0,0,1-.51-.26.71.71,0,0,1-.16-.48l0,.1c0-.3,0-.6,0-.91v-.31a2.26,2.26,0,0,1,0-.26,8.6,8.6,0,0,1,0-.88c0-.19,0-.39,0-.58l0-.29c0-.19,0-.39,0-.58a3.81,3.81,0,0,1,0-.59l0-.19a10.7,10.7,0,0,0,.06-1.39l0-.26v-.28l0-.28c0-.23,0-.46,0-.69a8.61,8.61,0,0,1,0-.88v-.72c0-.33,0-.67,0-1l0-.72,0-.41V778c0-.13,0-.27,0-.4,0-.29,0-.59,0-.88a.77.77,0,0,1,.8-.66l.09,0h2c.39,0,.77,0,1.15-.06l.31,0,.65,0,.67,0h1.08l1.65,0c.5,0,1,0,1.52,0Z"/><path class="cls-2" d="M33.85,788.51l-.28.24-.28.26c-.17.15-.32.34-.5.48s-.33.29-.49.44-.42.33-.63.5-.38.36-.57.54l-.5.45a.73.73,0,0,0-.1,1,.75.75,0,0,0,1.05.1c.14-.14.29-.27.44-.4l.5-.49c.17-.16.39-.32.59-.48s.33-.28.49-.43l0,0V791c0,.17,0,.34,0,.52v.08c0,.05,0,.1,0,.15a.75.75,0,0,0,.66.82.74.74,0,0,0,.81-.66h0a3.69,3.69,0,0,0,0-.47,1.27,1.27,0,0,0,0,.2c0-.15,0-.3,0-.44v-.1c0-.16,0-.33,0-.49s0-.09,0-.13a1,1,0,0,1,0-.17v-.07c0-.2,0-.4,0-.6s0-.22,0-.33a1.28,1.28,0,0,0,0-.39.79.79,0,0,0-.48-.58,1.28,1.28,0,0,0-.27,0,.87.87,0,0,0-.48.17Zm-.27,1.09v.2c0-.06,0-.13,0-.2Zm1.49.48v0Zm-1.46.18v.1h0Zm0,.1v0Zm0,.37v0Zm1.46.22v0Z"/><path class="cls-2" d="M33.35,791.57h0a1.69,1.69,0,0,0-.32,0l-.18,0a.76.76,0,0,1-.21,0,2.77,2.77,0,0,0-.41,0,3.64,3.64,0,0,0-.57,0l-.38.05-.22,0a.73.73,0,0,0-.81.66.74.74,0,0,0,.66.82,3.56,3.56,0,0,0,.73,0c.17,0,.33-.06.5-.07h.66l.55-.05h.13l.23,0h.41a.74.74,0,0,0,0-1.47h-.76Zm-.83,1.48h0Z"/><path class="cls-2" d="M33.34,790.14a.71.71,0,0,0-.66.14,3.13,3.13,0,0,0-.63.73,2.46,2.46,0,0,0-.23.42.82.82,0,0,0,.24,1,.93.93,0,0,0,1,0,1,1,0,0,0,.35.06l.15.08a.91.91,0,0,0,.54,0,.75.75,0,0,0,.61-.85,1,1,0,0,0-.11-.29.89.89,0,0,0-.2-.63l-.1-.1a.57.57,0,0,0-.18-.35.76.76,0,0,0-.49-.26h-.07a.91.91,0,0,0-.23,0Z"/><line class="cls-4" x1="7.23" y1="729.93" x2="37.21" y2="729.93"/><line class="cls-4" x1="7.96" y1="349.25" x2="37.95" y2="349.25"/><rect class="cls-5" x="45.11" width="1184.39" height="21.53"/><line class="cls-6" x1="68.13" x2="68.13" y2="21.53"/><line class="cls-6" x1="145.41" x2="145.41" y2="21.53"/><line class="cls-6" x1="222.69" x2="222.69" y2="21.53"/><line class="cls-6" x1="299.97" x2="299.97" y2="21.53"/><line class="cls-6" x1="377.25" x2="377.25" y2="21.53"/><line class="cls-6" x1="454.53" x2="454.53" y2="21.53"/><line class="cls-6" x1="531.81" x2="531.81" y2="21.53"/><line class="cls-6" x1="609.09" x2="609.09" y2="21.53"/><line class="cls-6" x1="686.37" x2="686.37" y2="21.53"/><line class="cls-6" x1="763.65" x2="763.65" y2="21.53"/><line class="cls-6" x1="840.93" x2="840.93" y2="21.53"/><line class="cls-6" x1="918.21" x2="918.21" y2="21.53"/><line class="cls-6" x1="995.49" x2="995.49" y2="21.53"/><line class="cls-6" x1="1072.77" x2="1072.77" y2="21.53"/><line class="cls-6" x1="1150.05" x2="1150.05" y2="21.53"/><line class="cls-6" x1="1227.33" x2="1227.33" y2="21.53"/><line class="cls-7" x1="74.04" y1="11.9" x2="74.04" y2="21.53"/><line class="cls-7" x1="80.03" y1="11.9" x2="80.03" y2="21.53"/><line class="cls-7" x1="86.02" y1="11.9" x2="86.02" y2="21.53"/><line class="cls-7" x1="92.01" y1="11.9" x2="92.01" y2="21.53"/><line class="cls-7" x1="98" y1="11.9" x2="98" y2="21.53"/><line class="cls-7" x1="103.99" y1="11.9" x2="103.99" y2="21.53"/><line class="cls-7" x1="109.97" y1="11.9" x2="109.97" y2="21.53"/><line class="cls-7" x1="115.96" y1="11.9" x2="115.96" y2="21.53"/><line class="cls-7" x1="121.95" y1="11.9" x2="121.95" y2="21.53"/><line class="cls-7" x1="127.94" y1="11.9" x2="127.94" y2="21.53"/><line class="cls-7" x1="133.93" y1="11.9" x2="133.93" y2="21.53"/><line class="cls-7" x1="139.92" y1="11.9" x2="139.92" y2="21.53"/><line class="cls-7" x1="151.25" y1="11.9" x2="151.25" y2="21.53"/><line class="cls-7" x1="157.24" y1="11.9" x2="157.24" y2="21.53"/><line class="cls-7" x1="163.23" y1="11.9" x2="163.23" y2="21.53"/><line class="cls-7" x1="169.22" y1="11.9" x2="169.22" y2="21.53"/><line class="cls-7" x1="175.21" y1="11.9" x2="175.21" y2="21.53"/><line class="cls-7" x1="181.19" y1="11.9" x2="181.19" y2="21.53"/><line class="cls-7" x1="187.18" y1="11.9" x2="187.18" y2="21.53"/><line class="cls-7" x1="193.17" y1="11.9" x2="193.17" y2="21.53"/><line class="cls-7" x1="199.16" y1="11.9" x2="199.16" y2="21.53"/><line class="cls-7" x1="205.15" y1="11.9" x2="205.15" y2="21.53"/><line class="cls-7" x1="211.14" y1="11.9" x2="211.14" y2="21.53"/><line class="cls-7" x1="217.13" y1="11.9" x2="217.13" y2="21.53"/><line class="cls-7" x1="228.59" y1="11.9" x2="228.59" y2="21.53"/><line class="cls-7" x1="234.58" y1="11.9" x2="234.58" y2="21.53"/><line class="cls-7" x1="240.57" y1="11.9" x2="240.57" y2="21.53"/><line class="cls-7" x1="246.56" y1="11.9" x2="246.56" y2="21.53"/><line class="cls-7" x1="252.55" y1="11.9" x2="252.55" y2="21.53"/><line class="cls-7" x1="258.53" y1="11.9" x2="258.53" y2="21.53"/><line class="cls-7" x1="264.52" y1="11.9" x2="264.52" y2="21.53"/><line class="cls-7" x1="270.51" y1="11.9" x2="270.51" y2="21.53"/><line class="cls-7" x1="276.5" y1="11.9" x2="276.5" y2="21.53"/><line class="cls-7" x1="282.49" y1="11.9" x2="282.49" y2="21.53"/><line class="cls-7" x1="288.48" y1="11.9" x2="288.48" y2="21.53"/><line class="cls-7" x1="294.47" y1="11.9" x2="294.47" y2="21.53"/><line class="cls-7" x1="305.75" y1="11.9" x2="305.75" y2="21.53"/><line class="cls-7" x1="311.74" y1="11.9" x2="311.74" y2="21.53"/><line class="cls-7" x1="317.73" y1="11.9" x2="317.73" y2="21.53"/><line class="cls-7" x1="323.71" y1="11.9" x2="323.71" y2="21.53"/><line class="cls-7" x1="329.7" y1="11.9" x2="329.7" y2="21.53"/><line class="cls-7" x1="335.69" y1="11.9" x2="335.69" y2="21.53"/><line class="cls-7" x1="341.68" y1="11.9" x2="341.68" y2="21.53"/><line class="cls-7" x1="347.67" y1="11.9" x2="347.67" y2="21.53"/><line class="cls-7" x1="353.66" y1="11.9" x2="353.66" y2="21.53"/><line class="cls-7" x1="359.65" y1="11.9" x2="359.65" y2="21.53"/><line class="cls-7" x1="365.64" y1="11.9" x2="365.64" y2="21.53"/><line class="cls-7" x1="371.63" y1="11.9" x2="371.63" y2="21.53"/><line class="cls-7" x1="383.12" y1="11.9" x2="383.12" y2="21.53"/><line class="cls-7" x1="389.11" y1="11.9" x2="389.11" y2="21.53"/><line class="cls-7" x1="395.1" y1="11.9" x2="395.1" y2="21.53"/><line class="cls-7" x1="401.09" y1="11.9" x2="401.09" y2="21.53"/><line class="cls-7" x1="407.08" y1="11.9" x2="407.08" y2="21.53"/><line class="cls-7" x1="413.07" y1="11.9" x2="413.07" y2="21.53"/><line class="cls-7" x1="419.06" y1="11.9" x2="419.06" y2="21.53"/><line class="cls-7" x1="425.05" y1="11.9" x2="425.05" y2="21.53"/><line class="cls-7" x1="431.04" y1="11.9" x2="431.04" y2="21.53"/><line class="cls-7" x1="437.02" y1="11.9" x2="437.02" y2="21.53"/><line class="cls-7" x1="443.01" y1="11.9" x2="443.01" y2="21.53"/><line class="cls-7" x1="449" y1="11.9" x2="449" y2="21.53"/><line class="cls-7" x1="461.62" y1="11.9" x2="461.62" y2="21.53"/><line class="cls-7" x1="467.61" y1="11.9" x2="467.61" y2="21.53"/><line class="cls-7" x1="473.6" y1="11.9" x2="473.6" y2="21.53"/><line class="cls-7" x1="479.59" y1="11.9" x2="479.59" y2="21.53"/><line class="cls-7" x1="485.58" y1="11.9" x2="485.58" y2="21.53"/><line class="cls-7" x1="491.57" y1="11.9" x2="491.57" y2="21.53"/><line class="cls-7" x1="497.56" y1="11.9" x2="497.56" y2="21.53"/><line class="cls-7" x1="503.55" y1="11.9" x2="503.55" y2="21.53"/><line class="cls-7" x1="509.53" y1="11.9" x2="509.53" y2="21.53"/><line class="cls-7" x1="515.52" y1="11.9" x2="515.52" y2="21.53"/><line class="cls-7" x1="521.51" y1="11.9" x2="521.51" y2="21.53"/><line class="cls-7" x1="527.5" y1="11.9" x2="527.5" y2="21.53"/><line class="cls-7" x1="537.31" y1="11.9" x2="537.31" y2="21.53"/><line class="cls-7" x1="543.3" y1="11.9" x2="543.3" y2="21.53"/><line class="cls-7" x1="549.28" y1="11.9" x2="549.28" y2="21.53"/><line class="cls-7" x1="555.27" y1="11.9" x2="555.27" y2="21.53"/><line class="cls-7" x1="561.26" y1="11.9" x2="561.26" y2="21.53"/><line class="cls-7" x1="567.25" y1="11.9" x2="567.25" y2="21.53"/><line class="cls-7" x1="573.24" y1="11.9" x2="573.24" y2="21.53"/><line class="cls-7" x1="579.23" y1="11.9" x2="579.23" y2="21.53"/><line class="cls-7" x1="585.22" y1="11.9" x2="585.22" y2="21.53"/><line class="cls-7" x1="591.21" y1="11.9" x2="591.21" y2="21.53"/><line class="cls-7" x1="597.19" y1="11.9" x2="597.19" y2="21.53"/><line class="cls-7" x1="603.18" y1="11.9" x2="603.18" y2="21.53"/><line class="cls-7" x1="614.65" y1="11.9" x2="614.65" y2="21.53"/><line class="cls-7" x1="620.63" y1="11.9" x2="620.63" y2="21.53"/><line class="cls-7" x1="626.62" y1="11.9" x2="626.62" y2="21.53"/><line class="cls-7" x1="632.61" y1="11.9" x2="632.61" y2="21.53"/><line class="cls-7" x1="638.6" y1="11.9" x2="638.6" y2="21.53"/><line class="cls-7" x1="644.59" y1="11.9" x2="644.59" y2="21.53"/><line class="cls-7" x1="650.58" y1="11.9" x2="650.58" y2="21.53"/><line class="cls-7" x1="656.57" y1="11.9" x2="656.57" y2="21.53"/><line class="cls-7" x1="662.56" y1="11.9" x2="662.56" y2="21.53"/><line class="cls-7" x1="668.55" y1="11.9" x2="668.55" y2="21.53"/><line class="cls-7" x1="674.54" y1="11.9" x2="674.54" y2="21.53"/><line class="cls-7" x1="680.52" y1="11.9" x2="680.52" y2="21.53"/><line class="cls-7" x1="691.69" y1="11.9" x2="691.69" y2="21.53"/><line class="cls-7" x1="697.68" y1="11.9" x2="697.68" y2="21.53"/><line class="cls-7" x1="703.67" y1="11.9" x2="703.67" y2="21.53"/><line class="cls-7" x1="709.65" y1="11.9" x2="709.65" y2="21.53"/><line class="cls-7" x1="715.64" y1="11.9" x2="715.64" y2="21.53"/><line class="cls-7" x1="721.63" y1="11.9" x2="721.63" y2="21.53"/><line class="cls-7" x1="727.62" y1="11.9" x2="727.62" y2="21.53"/><line class="cls-7" x1="733.61" y1="11.9" x2="733.61" y2="21.53"/><line class="cls-7" x1="739.6" y1="11.9" x2="739.6" y2="21.53"/><line class="cls-7" x1="745.59" y1="11.9" x2="745.59" y2="21.53"/><line class="cls-7" x1="751.58" y1="11.9" x2="751.58" y2="21.53"/><line class="cls-7" x1="757.57" y1="11.9" x2="757.57" y2="21.53"/><line class="cls-7" x1="771.4" y1="11.9" x2="771.4" y2="21.53"/><line class="cls-7" x1="777.39" y1="11.9" x2="777.39" y2="21.53"/><line class="cls-7" x1="783.38" y1="11.9" x2="783.38" y2="21.53"/><line class="cls-7" x1="789.36" y1="11.9" x2="789.36" y2="21.53"/><line class="cls-7" x1="795.35" y1="11.9" x2="795.35" y2="21.53"/><line class="cls-7" x1="801.34" y1="11.9" x2="801.34" y2="21.53"/><line class="cls-7" x1="807.33" y1="11.9" x2="807.33" y2="21.53"/><line class="cls-7" x1="813.32" y1="11.9" x2="813.32" y2="21.53"/><line class="cls-7" x1="819.31" y1="11.9" x2="819.31" y2="21.53"/><line class="cls-7" x1="825.3" y1="11.9" x2="825.3" y2="21.53"/><line class="cls-7" x1="831.29" y1="11.9" x2="831.29" y2="21.53"/><line class="cls-7" x1="837.28" y1="11.9" x2="837.28" y2="21.53"/><line class="cls-7" x1="845.88" y1="11.9" x2="845.88" y2="21.53"/><line class="cls-7" x1="851.87" y1="11.9" x2="851.87" y2="21.53"/><line class="cls-7" x1="857.86" y1="11.9" x2="857.86" y2="21.53"/><line class="cls-7" x1="863.85" y1="11.9" x2="863.85" y2="21.53"/><line class="cls-7" x1="869.84" y1="11.9" x2="869.84" y2="21.53"/><line class="cls-7" x1="875.83" y1="11.9" x2="875.83" y2="21.53"/><line class="cls-7" x1="881.81" y1="11.9" x2="881.81" y2="21.53"/><line class="cls-7" x1="887.8" y1="11.9" x2="887.8" y2="21.53"/><line class="cls-7" x1="893.79" y1="11.9" x2="893.79" y2="21.53"/><line class="cls-7" x1="899.78" y1="11.9" x2="899.78" y2="21.53"/><line class="cls-7" x1="905.77" y1="11.9" x2="905.77" y2="21.53"/><line class="cls-7" x1="911.76" y1="11.9" x2="911.76" y2="21.53"/><line class="cls-7" x1="923.57" y1="11.9" x2="923.57" y2="21.53"/><line class="cls-7" x1="929.55" y1="11.9" x2="929.55" y2="21.53"/><line class="cls-7" x1="935.54" y1="11.9" x2="935.54" y2="21.53"/><line class="cls-7" x1="941.53" y1="11.9" x2="941.53" y2="21.53"/><line class="cls-7" x1="947.52" y1="11.9" x2="947.52" y2="21.53"/><line class="cls-7" x1="953.51" y1="11.9" x2="953.51" y2="21.53"/><line class="cls-7" x1="959.5" y1="11.9" x2="959.5" y2="21.53"/><line class="cls-7" x1="965.49" y1="11.9" x2="965.49" y2="21.53"/><line class="cls-7" x1="971.48" y1="11.9" x2="971.48" y2="21.53"/><line class="cls-7" x1="977.47" y1="11.9" x2="977.47" y2="21.53"/><line class="cls-7" x1="983.45" y1="11.9" x2="983.45" y2="21.53"/><line class="cls-7" x1="989.44" y1="11.9" x2="989.44" y2="21.53"/><line class="cls-7" x1="1001.76" y1="11.9" x2="1001.76" y2="21.53"/><line class="cls-7" x1="1007.75" y1="11.9" x2="1007.75" y2="21.53"/><line class="cls-7" x1="1013.74" y1="11.9" x2="1013.74" y2="21.53"/><line class="cls-7" x1="1019.73" y1="11.9" x2="1019.73" y2="21.53"/><line class="cls-7" x1="1025.72" y1="11.9" x2="1025.72" y2="21.53"/><line class="cls-7" x1="1031.71" y1="11.9" x2="1031.71" y2="21.53"/><line class="cls-7" x1="1037.7" y1="11.9" x2="1037.7" y2="21.53"/><line class="cls-7" x1="1043.69" y1="11.9" x2="1043.69" y2="21.53"/><line class="cls-7" x1="1049.67" y1="11.9" x2="1049.67" y2="21.53"/><line class="cls-7" x1="1055.66" y1="11.9" x2="1055.66" y2="21.53"/><line class="cls-7" x1="1061.65" y1="11.9" x2="1061.65" y2="21.53"/><line class="cls-7" x1="1067.64" y1="11.9" x2="1067.64" y2="21.53"/><line class="cls-7" x1="1079.21" y1="11.9" x2="1079.21" y2="21.53"/><line class="cls-7" x1="1085.2" y1="11.9" x2="1085.2" y2="21.53"/><line class="cls-7" x1="1091.19" y1="11.9" x2="1091.19" y2="21.53"/><line class="cls-7" x1="1097.18" y1="11.9" x2="1097.18" y2="21.53"/><line class="cls-7" x1="1103.17" y1="11.9" x2="1103.17" y2="21.53"/><line class="cls-7" x1="1109.15" y1="11.9" x2="1109.15" y2="21.53"/><line class="cls-7" x1="1115.14" y1="11.9" x2="1115.14" y2="21.53"/><line class="cls-7" x1="1121.13" y1="11.9" x2="1121.13" y2="21.53"/><line class="cls-7" x1="1127.12" y1="11.9" x2="1127.12" y2="21.53"/><line class="cls-7" x1="1133.11" y1="11.9" x2="1133.11" y2="21.53"/><line class="cls-7" x1="1139.1" y1="11.9" x2="1139.1" y2="21.53"/><line class="cls-7" x1="1145.09" y1="11.9" x2="1145.09" y2="21.53"/><line class="cls-7" x1="1155.51" y1="11.9" x2="1155.51" y2="21.53"/><line class="cls-7" x1="1161.5" y1="11.9" x2="1161.5" y2="21.53"/><line class="cls-7" x1="1167.49" y1="11.9" x2="1167.49" y2="21.53"/><line class="cls-7" x1="1173.48" y1="11.9" x2="1173.48" y2="21.53"/><line class="cls-7" x1="1179.47" y1="11.9" x2="1179.47" y2="21.53"/><line class="cls-7" x1="1185.46" y1="11.9" x2="1185.46" y2="21.53"/><line class="cls-7" x1="1191.44" y1="11.9" x2="1191.44" y2="21.53"/><line class="cls-7" x1="1197.43" y1="11.9" x2="1197.43" y2="21.53"/><line class="cls-7" x1="1203.42" y1="11.9" x2="1203.42" y2="21.53"/><line class="cls-7" x1="1209.41" y1="11.9" x2="1209.41" y2="21.53"/><line class="cls-7" x1="1215.4" y1="11.9" x2="1215.4" y2="21.53"/><line class="cls-7" x1="1221.39" y1="11.9" x2="1221.39" y2="21.53"/><rect class="cls-5" x="45.56" y="21.64" width="23.51" height="1197.31"/><line class="cls-6" x1="45.56" y1="26.8" x2="69.07" y2="26.8"/><line class="cls-6" x1="45.56" y1="118.97" x2="69.07" y2="118.97"/><line class="cls-6" x1="45.56" y1="211.15" x2="69.07" y2="211.15"/><line class="cls-6" x1="45.56" y1="303.32" x2="69.07" y2="303.32"/><line class="cls-6" x1="45.56" y1="395.5" x2="69.07" y2="395.5"/><line class="cls-6" x1="45.56" y1="487.67" x2="69.07" y2="487.67"/><line class="cls-6" x1="45.56" y1="579.85" x2="69.07" y2="579.85"/><line class="cls-6" x1="45.56" y1="672.02" x2="69.07" y2="672.02"/><line class="cls-6" x1="45.56" y1="764.2" x2="69.07" y2="764.2"/><line class="cls-6" x1="45.56" y1="856.37" x2="69.07" y2="856.37"/><line class="cls-6" x1="45.56" y1="948.55" x2="69.07" y2="948.55"/><line class="cls-6" x1="45.56" y1="1040.72" x2="69.07" y2="1040.72"/><line class="cls-6" x1="45.56" y1="1132.89" x2="69.07" y2="1132.89"/><line class="cls-7" x1="58.55" y1="33.84" x2="69.07" y2="33.84"/><line class="cls-7" x1="58.55" y1="40.99" x2="69.07" y2="40.99"/><line class="cls-7" x1="58.55" y1="48.13" x2="69.07" y2="48.13"/><line class="cls-7" x1="58.55" y1="55.27" x2="69.07" y2="55.27"/><line class="cls-7" x1="58.55" y1="62.42" x2="69.07" y2="62.42"/><line class="cls-7" x1="58.55" y1="69.56" x2="69.07" y2="69.56"/><line class="cls-7" x1="58.55" y1="76.7" x2="69.07" y2="76.7"/><line class="cls-7" x1="58.55" y1="83.85" x2="69.07" y2="83.85"/><line class="cls-7" x1="58.55" y1="90.99" x2="69.07" y2="90.99"/><line class="cls-7" x1="58.55" y1="98.13" x2="69.07" y2="98.13"/><line class="cls-7" x1="58.55" y1="105.27" x2="69.07" y2="105.27"/><line class="cls-7" x1="58.55" y1="112.42" x2="69.07" y2="112.42"/><line class="cls-7" x1="58.55" y1="125.93" x2="69.07" y2="125.93"/><line class="cls-7" x1="58.55" y1="133.08" x2="69.07" y2="133.08"/><line class="cls-7" x1="58.55" y1="140.22" x2="69.07" y2="140.22"/><line class="cls-7" x1="58.55" y1="147.36" x2="69.07" y2="147.36"/><line class="cls-7" x1="58.55" y1="154.5" x2="69.07" y2="154.5"/><line class="cls-7" x1="58.55" y1="161.65" x2="69.07" y2="161.65"/><line class="cls-7" x1="58.55" y1="168.79" x2="69.07" y2="168.79"/><line class="cls-7" x1="58.55" y1="175.93" x2="69.07" y2="175.93"/><line class="cls-7" x1="58.55" y1="183.08" x2="69.07" y2="183.08"/><line class="cls-7" x1="58.55" y1="190.22" x2="69.07" y2="190.22"/><line class="cls-7" x1="58.55" y1="197.36" x2="69.07" y2="197.36"/><line class="cls-7" x1="58.55" y1="204.51" x2="69.07" y2="204.51"/><line class="cls-7" x1="58.55" y1="218.18" x2="69.07" y2="218.18"/><line class="cls-7" x1="58.55" y1="225.32" x2="69.07" y2="225.32"/><line class="cls-7" x1="58.55" y1="232.47" x2="69.07" y2="232.47"/><line class="cls-7" x1="58.55" y1="239.61" x2="69.07" y2="239.61"/><line class="cls-7" x1="58.55" y1="246.75" x2="69.07" y2="246.75"/><line class="cls-7" x1="58.55" y1="253.9" x2="69.07" y2="253.9"/><line class="cls-7" x1="58.55" y1="261.04" x2="69.07" y2="261.04"/><line class="cls-7" x1="58.55" y1="268.18" x2="69.07" y2="268.18"/><line class="cls-7" x1="58.55" y1="275.32" x2="69.07" y2="275.32"/><line class="cls-7" x1="58.55" y1="282.47" x2="69.07" y2="282.47"/><line class="cls-7" x1="58.55" y1="289.61" x2="69.07" y2="289.61"/><line class="cls-7" x1="58.55" y1="296.75" x2="69.07" y2="296.75"/><line class="cls-7" x1="58.55" y1="310.21" x2="69.07" y2="310.21"/><line class="cls-7" x1="58.55" y1="317.35" x2="69.07" y2="317.35"/><line class="cls-7" x1="58.55" y1="324.5" x2="69.07" y2="324.5"/><line class="cls-7" x1="58.55" y1="331.64" x2="69.07" y2="331.64"/><line class="cls-7" x1="58.55" y1="338.78" x2="69.07" y2="338.78"/><line class="cls-7" x1="58.55" y1="345.92" x2="69.07" y2="345.92"/><line class="cls-7" x1="58.55" y1="353.07" x2="69.07" y2="353.07"/><line class="cls-7" x1="58.55" y1="360.21" x2="69.07" y2="360.21"/><line class="cls-7" x1="58.55" y1="367.36" x2="69.07" y2="367.36"/><line class="cls-7" x1="58.55" y1="374.5" x2="69.07" y2="374.5"/><line class="cls-7" x1="58.55" y1="381.64" x2="69.07" y2="381.64"/><line class="cls-7" x1="58.55" y1="388.78" x2="69.07" y2="388.78"/><line class="cls-7" x1="58.55" y1="402.5" x2="69.07" y2="402.5"/><line class="cls-7" x1="58.55" y1="409.64" x2="69.07" y2="409.64"/><line class="cls-7" x1="58.55" y1="416.79" x2="69.07" y2="416.79"/><line class="cls-7" x1="58.55" y1="423.93" x2="69.07" y2="423.93"/><line class="cls-7" x1="58.55" y1="431.07" x2="69.07" y2="431.07"/><line class="cls-7" x1="58.55" y1="438.22" x2="69.07" y2="438.22"/><line class="cls-7" x1="58.55" y1="445.36" x2="69.07" y2="445.36"/><line class="cls-7" x1="58.55" y1="452.5" x2="69.07" y2="452.5"/><line class="cls-7" x1="58.55" y1="459.65" x2="69.07" y2="459.65"/><line class="cls-7" x1="58.55" y1="466.79" x2="69.07" y2="466.79"/><line class="cls-7" x1="58.55" y1="473.93" x2="69.07" y2="473.93"/><line class="cls-7" x1="58.55" y1="481.08" x2="69.07" y2="481.08"/><line class="cls-7" x1="58.55" y1="496.13" x2="69.07" y2="496.13"/><line class="cls-7" x1="58.55" y1="503.27" x2="69.07" y2="503.27"/><line class="cls-7" x1="58.55" y1="510.42" x2="69.07" y2="510.42"/><line class="cls-7" x1="58.55" y1="517.56" x2="69.07" y2="517.56"/><line class="cls-7" x1="58.55" y1="524.7" x2="69.07" y2="524.7"/><line class="cls-7" x1="58.55" y1="531.85" x2="69.07" y2="531.85"/><line class="cls-7" x1="58.55" y1="538.99" x2="69.07" y2="538.99"/><line class="cls-7" x1="58.55" y1="546.13" x2="69.07" y2="546.13"/><line class="cls-7" x1="58.55" y1="553.28" x2="69.07" y2="553.28"/><line class="cls-7" x1="58.55" y1="560.42" x2="69.07" y2="560.42"/><line class="cls-7" x1="58.55" y1="567.56" x2="69.07" y2="567.56"/><line class="cls-7" x1="58.55" y1="574.7" x2="69.07" y2="574.7"/><line class="cls-7" x1="58.55" y1="586.4" x2="69.07" y2="586.4"/><line class="cls-7" x1="58.55" y1="593.54" x2="69.07" y2="593.54"/><line class="cls-7" x1="58.55" y1="600.69" x2="69.07" y2="600.69"/><line class="cls-7" x1="58.55" y1="607.83" x2="69.07" y2="607.83"/><line class="cls-7" x1="58.55" y1="614.97" x2="69.07" y2="614.97"/><line class="cls-7" x1="58.55" y1="622.11" x2="69.07" y2="622.11"/><line class="cls-7" x1="58.55" y1="629.26" x2="69.07" y2="629.26"/><line class="cls-7" x1="58.55" y1="636.4" x2="69.07" y2="636.4"/><line class="cls-7" x1="58.55" y1="643.54" x2="69.07" y2="643.54"/><line class="cls-7" x1="58.55" y1="650.69" x2="69.07" y2="650.69"/><line class="cls-7" x1="58.55" y1="657.83" x2="69.07" y2="657.83"/><line class="cls-7" x1="58.55" y1="664.97" x2="69.07" y2="664.97"/><line class="cls-7" x1="58.55" y1="678.65" x2="69.07" y2="678.65"/><line class="cls-7" x1="58.55" y1="685.79" x2="69.07" y2="685.79"/><line class="cls-7" x1="58.55" y1="692.93" x2="69.07" y2="692.93"/><line class="cls-7" x1="58.55" y1="700.08" x2="69.07" y2="700.08"/><line class="cls-7" x1="58.55" y1="707.22" x2="69.07" y2="707.22"/><line class="cls-7" x1="58.55" y1="714.36" x2="69.07" y2="714.36"/><line class="cls-7" x1="58.55" y1="721.51" x2="69.07" y2="721.51"/><line class="cls-7" x1="58.55" y1="728.65" x2="69.07" y2="728.65"/><line class="cls-7" x1="58.55" y1="735.79" x2="69.07" y2="735.79"/><line class="cls-7" x1="58.55" y1="742.93" x2="69.07" y2="742.93"/><line class="cls-7" x1="58.55" y1="750.08" x2="69.07" y2="750.08"/><line class="cls-7" x1="58.55" y1="757.22" x2="69.07" y2="757.22"/><line class="cls-7" x1="58.55" y1="770.54" x2="69.07" y2="770.54"/><line class="cls-7" x1="58.55" y1="777.68" x2="69.07" y2="777.68"/><line class="cls-7" x1="58.55" y1="784.82" x2="69.07" y2="784.82"/><line class="cls-7" x1="58.55" y1="791.97" x2="69.07" y2="791.97"/><line class="cls-7" x1="58.55" y1="799.11" x2="69.07" y2="799.11"/><line class="cls-7" x1="58.55" y1="806.25" x2="69.07" y2="806.25"/><line class="cls-7" x1="58.55" y1="813.4" x2="69.07" y2="813.4"/><line class="cls-7" x1="58.55" y1="820.54" x2="69.07" y2="820.54"/><line class="cls-7" x1="58.55" y1="827.68" x2="69.07" y2="827.68"/><line class="cls-7" x1="58.55" y1="834.83" x2="69.07" y2="834.83"/><line class="cls-7" x1="58.55" y1="841.97" x2="69.07" y2="841.97"/><line class="cls-7" x1="58.55" y1="849.11" x2="69.07" y2="849.11"/><line class="cls-7" x1="58.55" y1="865.61" x2="69.07" y2="865.61"/><line class="cls-7" x1="58.55" y1="872.75" x2="69.07" y2="872.75"/><line class="cls-7" x1="58.55" y1="879.9" x2="69.07" y2="879.9"/><line class="cls-7" x1="58.55" y1="887.04" x2="69.07" y2="887.04"/><line class="cls-7" x1="58.55" y1="894.18" x2="69.07" y2="894.18"/><line class="cls-7" x1="58.55" y1="901.33" x2="69.07" y2="901.33"/><line class="cls-7" x1="58.55" y1="908.47" x2="69.07" y2="908.47"/><line class="cls-7" x1="58.55" y1="915.61" x2="69.07" y2="915.61"/><line class="cls-7" x1="58.55" y1="922.76" x2="69.07" y2="922.76"/><line class="cls-7" x1="58.55" y1="929.9" x2="69.07" y2="929.9"/><line class="cls-7" x1="58.55" y1="937.04" x2="69.07" y2="937.04"/><line class="cls-7" x1="58.55" y1="944.19" x2="69.07" y2="944.19"/><line class="cls-7" x1="58.55" y1="954.45" x2="69.07" y2="954.45"/><line class="cls-7" x1="58.55" y1="961.6" x2="69.07" y2="961.6"/><line class="cls-7" x1="58.55" y1="968.74" x2="69.07" y2="968.74"/><line class="cls-7" x1="58.55" y1="975.88" x2="69.07" y2="975.88"/><line class="cls-7" x1="58.55" y1="983.02" x2="69.07" y2="983.02"/><line class="cls-7" x1="58.55" y1="990.17" x2="69.07" y2="990.17"/><line class="cls-7" x1="58.55" y1="997.31" x2="69.07" y2="997.31"/><line class="cls-7" x1="58.55" y1="1004.45" x2="69.07" y2="1004.45"/><line class="cls-7" x1="58.55" y1="1011.6" x2="69.07" y2="1011.6"/><line class="cls-7" x1="58.55" y1="1018.74" x2="69.07" y2="1018.74"/><line class="cls-7" x1="58.55" y1="1025.88" x2="69.07" y2="1025.88"/><line class="cls-7" x1="58.55" y1="1033.03" x2="69.07" y2="1033.03"/><line class="cls-7" x1="58.55" y1="1047.11" x2="69.07" y2="1047.11"/><line class="cls-7" x1="58.55" y1="1054.25" x2="69.07" y2="1054.25"/><line class="cls-7" x1="58.55" y1="1061.4" x2="69.07" y2="1061.4"/><line class="cls-7" x1="58.55" y1="1068.54" x2="69.07" y2="1068.54"/><line class="cls-7" x1="58.55" y1="1075.68" x2="69.07" y2="1075.68"/><line class="cls-7" x1="58.55" y1="1082.82" x2="69.07" y2="1082.82"/><line class="cls-7" x1="58.55" y1="1089.97" x2="69.07" y2="1089.97"/><line class="cls-7" x1="58.55" y1="1097.11" x2="69.07" y2="1097.11"/><line class="cls-7" x1="58.55" y1="1104.25" x2="69.07" y2="1104.25"/><line class="cls-7" x1="58.55" y1="1111.4" x2="69.07" y2="1111.4"/><line class="cls-7" x1="58.55" y1="1118.54" x2="69.07" y2="1118.54"/><line class="cls-7" x1="58.55" y1="1125.68" x2="69.07" y2="1125.68"/><line class="cls-7" x1="58.55" y1="1140.38" x2="69.07" y2="1140.38"/><line class="cls-7" x1="58.55" y1="1147.52" x2="69.07" y2="1147.52"/><line class="cls-7" x1="58.55" y1="1154.66" x2="69.07" y2="1154.66"/><line class="cls-7" x1="58.55" y1="1161.81" x2="69.07" y2="1161.81"/><line class="cls-7" x1="58.55" y1="1168.95" x2="69.07" y2="1168.95"/><line class="cls-7" x1="58.55" y1="1176.09" x2="69.07" y2="1176.09"/><line class="cls-7" x1="58.55" y1="1183.24" x2="69.07" y2="1183.24"/><line class="cls-7" x1="58.55" y1="1190.38" x2="69.07" y2="1190.38"/><line class="cls-7" x1="58.55" y1="1197.52" x2="69.07" y2="1197.52"/><line class="cls-7" x1="58.55" y1="1204.67" x2="69.07" y2="1204.67"/><line class="cls-7" x1="58.55" y1="1211.81" x2="69.07" y2="1211.81"/><line class="cls-7" x1="58.55" y1="1218.95" x2="69.07" y2="1218.95"/><rect class="cls-5" x="1231.19" y="0.06" width="1184.39" height="21.53"/><line class="cls-6" x1="1254.21" y1="0.06" x2="1254.21" y2="21.59"/><line class="cls-6" x1="1331.49" y1="0.06" x2="1331.49" y2="21.59"/><line class="cls-6" x1="1408.77" y1="0.06" x2="1408.77" y2="21.59"/><line class="cls-6" x1="1486.05" y1="0.06" x2="1486.05" y2="21.59"/><line class="cls-6" x1="1563.33" y1="0.06" x2="1563.33" y2="21.59"/><line class="cls-6" x1="1640.61" y1="0.06" x2="1640.61" y2="21.59"/><line class="cls-6" x1="1717.89" y1="0.06" x2="1717.89" y2="21.59"/><line class="cls-6" x1="1795.17" y1="0.06" x2="1795.17" y2="21.59"/><line class="cls-6" x1="1872.45" y1="0.06" x2="1872.45" y2="21.59"/><line class="cls-6" x1="1949.73" y1="0.06" x2="1949.73" y2="21.59"/><line class="cls-6" x1="2027.01" y1="0.06" x2="2027.01" y2="21.59"/><line class="cls-6" x1="2104.28" y1="0.06" x2="2104.28" y2="21.59"/><line class="cls-6" x1="2181.56" y1="0.06" x2="2181.56" y2="21.59"/><line class="cls-6" x1="2258.84" y1="0.06" x2="2258.84" y2="21.59"/><line class="cls-6" x1="2336.12" y1="0.06" x2="2336.12" y2="21.59"/><line class="cls-6" x1="2413.4" y1="0.06" x2="2413.4" y2="21.59"/><line class="cls-7" x1="1260.12" y1="11.96" x2="1260.12" y2="21.59"/><line class="cls-7" x1="1266.11" y1="11.96" x2="1266.11" y2="21.59"/><line class="cls-7" x1="1272.09" y1="11.96" x2="1272.09" y2="21.59"/><line class="cls-7" x1="1278.08" y1="11.96" x2="1278.08" y2="21.59"/><line class="cls-7" x1="1284.07" y1="11.96" x2="1284.07" y2="21.59"/><line class="cls-7" x1="1290.06" y1="11.96" x2="1290.06" y2="21.59"/><line class="cls-7" x1="1296.05" y1="11.96" x2="1296.05" y2="21.59"/><line class="cls-7" x1="1302.04" y1="11.96" x2="1302.04" y2="21.59"/><line class="cls-7" x1="1308.03" y1="11.96" x2="1308.03" y2="21.59"/><line class="cls-7" x1="1314.02" y1="11.96" x2="1314.02" y2="21.59"/><line class="cls-7" x1="1320.01" y1="11.96" x2="1320.01" y2="21.59"/><line class="cls-7" x1="1326" y1="11.96" x2="1326" y2="21.59"/><line class="cls-7" x1="1337.33" y1="11.96" x2="1337.33" y2="21.59"/><line class="cls-7" x1="1343.31" y1="11.96" x2="1343.31" y2="21.59"/><line class="cls-7" x1="1349.3" y1="11.96" x2="1349.3" y2="21.59"/><line class="cls-7" x1="1355.29" y1="11.96" x2="1355.29" y2="21.59"/><line class="cls-7" x1="1361.28" y1="11.96" x2="1361.28" y2="21.59"/><line class="cls-7" x1="1367.27" y1="11.96" x2="1367.27" y2="21.59"/><line class="cls-7" x1="1373.26" y1="11.96" x2="1373.26" y2="21.59"/><line class="cls-7" x1="1379.25" y1="11.96" x2="1379.25" y2="21.59"/><line class="cls-7" x1="1385.24" y1="11.96" x2="1385.24" y2="21.59"/><line class="cls-7" x1="1391.22" y1="11.96" x2="1391.22" y2="21.59"/><line class="cls-7" x1="1397.21" y1="11.96" x2="1397.21" y2="21.59"/><line class="cls-7" x1="1403.2" y1="11.96" x2="1403.2" y2="21.59"/><line class="cls-7" x1="1414.67" y1="11.96" x2="1414.67" y2="21.59"/><line class="cls-7" x1="1420.65" y1="11.96" x2="1420.65" y2="21.59"/><line class="cls-7" x1="1426.64" y1="11.96" x2="1426.64" y2="21.59"/><line class="cls-7" x1="1432.63" y1="11.96" x2="1432.63" y2="21.59"/><line class="cls-7" x1="1438.62" y1="11.96" x2="1438.62" y2="21.59"/><line class="cls-7" x1="1444.61" y1="11.96" x2="1444.61" y2="21.59"/><line class="cls-7" x1="1450.6" y1="11.96" x2="1450.6" y2="21.59"/><line class="cls-7" x1="1456.59" y1="11.96" x2="1456.59" y2="21.59"/><line class="cls-7" x1="1462.58" y1="11.96" x2="1462.58" y2="21.59"/><line class="cls-7" x1="1468.57" y1="11.96" x2="1468.57" y2="21.59"/><line class="cls-7" x1="1474.55" y1="11.96" x2="1474.55" y2="21.59"/><line class="cls-7" x1="1480.54" y1="11.96" x2="1480.54" y2="21.59"/><line class="cls-7" x1="1491.82" y1="11.96" x2="1491.82" y2="21.59"/><line class="cls-7" x1="1497.81" y1="11.96" x2="1497.81" y2="21.59"/><line class="cls-7" x1="1503.8" y1="11.96" x2="1503.8" y2="21.59"/><line class="cls-7" x1="1509.79" y1="11.96" x2="1509.79" y2="21.59"/><line class="cls-7" x1="1515.78" y1="11.96" x2="1515.78" y2="21.59"/><line class="cls-7" x1="1521.77" y1="11.96" x2="1521.77" y2="21.59"/><line class="cls-7" x1="1527.76" y1="11.96" x2="1527.76" y2="21.59"/><line class="cls-7" x1="1533.75" y1="11.96" x2="1533.75" y2="21.59"/><line class="cls-7" x1="1539.73" y1="11.96" x2="1539.73" y2="21.59"/><line class="cls-7" x1="1545.72" y1="11.96" x2="1545.72" y2="21.59"/><line class="cls-7" x1="1551.71" y1="11.96" x2="1551.71" y2="21.59"/><line class="cls-7" x1="1557.7" y1="11.96" x2="1557.7" y2="21.59"/><line class="cls-7" x1="1569.2" y1="11.96" x2="1569.2" y2="21.59"/><line class="cls-7" x1="1575.19" y1="11.96" x2="1575.19" y2="21.59"/><line class="cls-7" x1="1581.18" y1="11.96" x2="1581.18" y2="21.59"/><line class="cls-7" x1="1587.17" y1="11.96" x2="1587.17" y2="21.59"/><line class="cls-7" x1="1593.16" y1="11.96" x2="1593.16" y2="21.59"/><line class="cls-7" x1="1599.14" y1="11.96" x2="1599.14" y2="21.59"/><line class="cls-7" x1="1605.13" y1="11.96" x2="1605.13" y2="21.59"/><line class="cls-7" x1="1611.12" y1="11.96" x2="1611.12" y2="21.59"/><line class="cls-7" x1="1617.11" y1="11.96" x2="1617.11" y2="21.59"/><line class="cls-7" x1="1623.1" y1="11.96" x2="1623.1" y2="21.59"/><line class="cls-7" x1="1629.09" y1="11.96" x2="1629.09" y2="21.59"/><line class="cls-7" x1="1635.08" y1="11.96" x2="1635.08" y2="21.59"/><line class="cls-7" x1="1647.7" y1="11.96" x2="1647.7" y2="21.59"/><line class="cls-7" x1="1653.69" y1="11.96" x2="1653.69" y2="21.59"/><line class="cls-7" x1="1659.68" y1="11.96" x2="1659.68" y2="21.59"/><line class="cls-7" x1="1665.67" y1="11.96" x2="1665.67" y2="21.59"/><line class="cls-7" x1="1671.66" y1="11.96" x2="1671.66" y2="21.59"/><line class="cls-7" x1="1677.64" y1="11.96" x2="1677.64" y2="21.59"/><line class="cls-7" x1="1683.63" y1="11.96" x2="1683.63" y2="21.59"/><line class="cls-7" x1="1689.62" y1="11.96" x2="1689.62" y2="21.59"/><line class="cls-7" x1="1695.61" y1="11.96" x2="1695.61" y2="21.59"/><line class="cls-7" x1="1701.6" y1="11.96" x2="1701.6" y2="21.59"/><line class="cls-7" x1="1707.59" y1="11.96" x2="1707.59" y2="21.59"/><line class="cls-7" x1="1713.58" y1="11.96" x2="1713.58" y2="21.59"/><line class="cls-7" x1="1723.38" y1="11.96" x2="1723.38" y2="21.59"/><line class="cls-7" x1="1729.37" y1="11.96" x2="1729.37" y2="21.59"/><line class="cls-7" x1="1735.36" y1="11.96" x2="1735.36" y2="21.59"/><line class="cls-7" x1="1741.35" y1="11.96" x2="1741.35" y2="21.59"/><line class="cls-7" x1="1747.34" y1="11.96" x2="1747.34" y2="21.59"/><line class="cls-7" x1="1753.33" y1="11.96" x2="1753.33" y2="21.59"/><line class="cls-7" x1="1759.31" y1="11.96" x2="1759.31" y2="21.59"/><line class="cls-7" x1="1765.3" y1="11.96" x2="1765.3" y2="21.59"/><line class="cls-7" x1="1771.29" y1="11.96" x2="1771.29" y2="21.59"/><line class="cls-7" x1="1777.28" y1="11.96" x2="1777.28" y2="21.59"/><line class="cls-7" x1="1783.27" y1="11.96" x2="1783.27" y2="21.59"/><line class="cls-7" x1="1789.26" y1="11.96" x2="1789.26" y2="21.59"/><line class="cls-7" x1="1800.72" y1="11.96" x2="1800.72" y2="21.59"/><line class="cls-7" x1="1806.71" y1="11.96" x2="1806.71" y2="21.59"/><line class="cls-7" x1="1812.7" y1="11.96" x2="1812.7" y2="21.59"/><line class="cls-7" x1="1818.69" y1="11.96" x2="1818.69" y2="21.59"/><line class="cls-7" x1="1824.68" y1="11.96" x2="1824.68" y2="21.59"/><line class="cls-7" x1="1830.67" y1="11.96" x2="1830.67" y2="21.59"/><line class="cls-7" x1="1836.66" y1="11.96" x2="1836.66" y2="21.59"/><line class="cls-7" x1="1842.64" y1="11.96" x2="1842.64" y2="21.59"/><line class="cls-7" x1="1848.63" y1="11.96" x2="1848.63" y2="21.59"/><line class="cls-7" x1="1854.62" y1="11.96" x2="1854.62" y2="21.59"/><line class="cls-7" x1="1860.61" y1="11.96" x2="1860.61" y2="21.59"/><line class="cls-7" x1="1866.6" y1="11.96" x2="1866.6" y2="21.59"/><line class="cls-7" x1="1877.76" y1="11.96" x2="1877.76" y2="21.59"/><line class="cls-7" x1="1883.75" y1="11.96" x2="1883.75" y2="21.59"/><line class="cls-7" x1="1889.74" y1="11.96" x2="1889.74" y2="21.59"/><line class="cls-7" x1="1895.73" y1="11.96" x2="1895.73" y2="21.59"/><line class="cls-7" x1="1901.72" y1="11.96" x2="1901.72" y2="21.59"/><line class="cls-7" x1="1907.71" y1="11.96" x2="1907.71" y2="21.59"/><line class="cls-7" x1="1913.7" y1="11.96" x2="1913.7" y2="21.59"/><line class="cls-7" x1="1919.69" y1="11.96" x2="1919.69" y2="21.59"/><line class="cls-7" x1="1925.68" y1="11.96" x2="1925.68" y2="21.59"/><line class="cls-7" x1="1931.66" y1="11.96" x2="1931.66" y2="21.59"/><line class="cls-7" x1="1937.65" y1="11.96" x2="1937.65" y2="21.59"/><line class="cls-7" x1="1943.64" y1="11.96" x2="1943.64" y2="21.59"/><line class="cls-7" x1="1957.47" y1="11.96" x2="1957.47" y2="21.59"/><line class="cls-7" x1="1963.46" y1="11.96" x2="1963.46" y2="21.59"/><line class="cls-7" x1="1969.45" y1="11.96" x2="1969.45" y2="21.59"/><line class="cls-7" x1="1975.44" y1="11.96" x2="1975.44" y2="21.59"/><line class="cls-7" x1="1981.43" y1="11.96" x2="1981.43" y2="21.59"/><line class="cls-7" x1="1987.42" y1="11.96" x2="1987.42" y2="21.59"/><line class="cls-7" x1="1993.41" y1="11.96" x2="1993.41" y2="21.59"/><line class="cls-7" x1="1999.4" y1="11.96" x2="1999.4" y2="21.59"/><line class="cls-7" x1="2005.39" y1="11.96" x2="2005.39" y2="21.59"/><line class="cls-7" x1="2011.37" y1="11.96" x2="2011.37" y2="21.59"/><line class="cls-7" x1="2017.36" y1="11.96" x2="2017.36" y2="21.59"/><line class="cls-7" x1="2023.35" y1="11.96" x2="2023.35" y2="21.59"/><line class="cls-7" x1="2031.96" y1="11.96" x2="2031.96" y2="21.59"/><line class="cls-7" x1="2037.95" y1="11.96" x2="2037.95" y2="21.59"/><line class="cls-7" x1="2043.94" y1="11.96" x2="2043.94" y2="21.59"/><line class="cls-7" x1="2049.92" y1="11.96" x2="2049.92" y2="21.59"/><line class="cls-7" x1="2055.91" y1="11.96" x2="2055.91" y2="21.59"/><line class="cls-7" x1="2061.9" y1="11.96" x2="2061.9" y2="21.59"/><line class="cls-7" x1="2067.89" y1="11.96" x2="2067.89" y2="21.59"/><line class="cls-7" x1="2073.88" y1="11.96" x2="2073.88" y2="21.59"/><line class="cls-7" x1="2079.87" y1="11.96" x2="2079.87" y2="21.59"/><line class="cls-7" x1="2085.86" y1="11.96" x2="2085.86" y2="21.59"/><line class="cls-7" x1="2091.85" y1="11.96" x2="2091.85" y2="21.59"/><line class="cls-7" x1="2097.84" y1="11.96" x2="2097.84" y2="21.59"/><line class="cls-7" x1="2109.64" y1="11.96" x2="2109.64" y2="21.59"/><line class="cls-7" x1="2115.63" y1="11.96" x2="2115.63" y2="21.59"/><line class="cls-7" x1="2121.62" y1="11.96" x2="2121.62" y2="21.59"/><line class="cls-7" x1="2127.61" y1="11.96" x2="2127.61" y2="21.59"/><line class="cls-7" x1="2133.6" y1="11.96" x2="2133.6" y2="21.59"/><line class="cls-7" x1="2139.59" y1="11.96" x2="2139.59" y2="21.59"/><line class="cls-7" x1="2145.58" y1="11.96" x2="2145.58" y2="21.59"/><line class="cls-7" x1="2151.56" y1="11.96" x2="2151.56" y2="21.59"/><line class="cls-7" x1="2157.55" y1="11.96" x2="2157.55" y2="21.59"/><line class="cls-7" x1="2163.54" y1="11.96" x2="2163.54" y2="21.59"/><line class="cls-7" x1="2169.53" y1="11.96" x2="2169.53" y2="21.59"/><line class="cls-7" x1="2175.52" y1="11.96" x2="2175.52" y2="21.59"/><line class="cls-7" x1="2187.84" y1="11.96" x2="2187.84" y2="21.59"/><line class="cls-7" x1="2193.83" y1="11.96" x2="2193.83" y2="21.59"/><line class="cls-7" x1="2199.82" y1="11.96" x2="2199.82" y2="21.59"/><line class="cls-7" x1="2205.81" y1="11.96" x2="2205.81" y2="21.59"/><line class="cls-7" x1="2211.8" y1="11.96" x2="2211.8" y2="21.59"/><line class="cls-7" x1="2217.78" y1="11.96" x2="2217.78" y2="21.59"/><line class="cls-7" x1="2223.77" y1="11.96" x2="2223.77" y2="21.59"/><line class="cls-7" x1="2229.76" y1="11.96" x2="2229.76" y2="21.59"/><line class="cls-7" x1="2235.75" y1="11.96" x2="2235.75" y2="21.59"/><line class="cls-7" x1="2241.74" y1="11.96" x2="2241.74" y2="21.59"/><line class="cls-7" x1="2247.73" y1="11.96" x2="2247.73" y2="21.59"/><line class="cls-7" x1="2253.72" y1="11.96" x2="2253.72" y2="21.59"/><line class="cls-7" x1="2265.29" y1="11.96" x2="2265.29" y2="21.59"/><line class="cls-7" x1="2271.27" y1="11.96" x2="2271.27" y2="21.59"/><line class="cls-7" x1="2277.26" y1="11.96" x2="2277.26" y2="21.59"/><line class="cls-7" x1="2283.25" y1="11.96" x2="2283.25" y2="21.59"/><line class="cls-7" x1="2289.24" y1="11.96" x2="2289.24" y2="21.59"/><line class="cls-7" x1="2295.23" y1="11.96" x2="2295.23" y2="21.59"/><line class="cls-7" x1="2301.22" y1="11.96" x2="2301.22" y2="21.59"/><line class="cls-7" x1="2307.21" y1="11.96" x2="2307.21" y2="21.59"/><line class="cls-7" x1="2313.2" y1="11.96" x2="2313.2" y2="21.59"/><line class="cls-7" x1="2319.19" y1="11.96" x2="2319.19" y2="21.59"/><line class="cls-7" x1="2325.17" y1="11.96" x2="2325.17" y2="21.59"/><line class="cls-7" x1="2331.16" y1="11.96" x2="2331.16" y2="21.59"/><line class="cls-7" x1="2341.59" y1="11.96" x2="2341.59" y2="21.59"/><line class="cls-7" x1="2347.58" y1="11.96" x2="2347.58" y2="21.59"/><line class="cls-7" x1="2353.56" y1="11.96" x2="2353.56" y2="21.59"/><line class="cls-7" x1="2359.55" y1="11.96" x2="2359.55" y2="21.59"/><line class="cls-7" x1="2365.54" y1="11.96" x2="2365.54" y2="21.59"/><line class="cls-7" x1="2371.53" y1="11.96" x2="2371.53" y2="21.59"/><line class="cls-7" x1="2377.52" y1="11.96" x2="2377.52" y2="21.59"/><line class="cls-7" x1="2383.51" y1="11.96" x2="2383.51" y2="21.59"/><line class="cls-7" x1="2389.5" y1="11.96" x2="2389.5" y2="21.59"/><line class="cls-7" x1="2395.49" y1="11.96" x2="2395.49" y2="21.59"/><line class="cls-7" x1="2401.47" y1="11.96" x2="2401.47" y2="21.59"/><line class="cls-7" x1="2407.46" y1="11.96" x2="2407.46" y2="21.59"/></g></g></g></g></svg>