<svg xmlns="http://www.w3.org/2000/svg" width="2054.834" height="1467.243" viewBox="0 0 2054.834 1467.243">
  <defs>
    <style>
      .cls-1 {
        fill: #5c6693;
      }

      .cls-2 {
        fill: #2f345b;
      }

      .cls-2, .cls-5, .cls-6 {
        opacity: 0.5;
      }

      .cls-3, .cls-5, .cls-6 {
        fill: none;
        stroke-miterlimit: 10;
      }

      .cls-3 {
        stroke: #384173;
        stroke-width: 3px;
      }

      .cls-4 {
        fill: #384173;
      }

      .cls-5, .cls-6 {
        stroke: #ededed;
      }

      .cls-6 {
        stroke-width: 0.5px;
      }
    </style>
  </defs>
  <title>indesign4</title>
  <g id="Layer_2" data-name="Layer 2">
    <g id="Draw_Layer" data-name="Draw Layer">
      <g>
        <rect class="cls-1" x="0.888" width="2053.946" height="1467.243"/>
        <rect class="cls-2" x="0.888" y="34.182" width="2053.946" height="1433.061"/>
        <line class="cls-3" x1="0.888" y1="34.182" x2="2054.834" y2="34.182"/>
      </g>
      <g>
        <g>
          <rect class="cls-4" y="33.36" width="904.759" height="16.449"/>
          <g>
            <line class="cls-5" x1="17.587" y1="33.361" x2="17.587" y2="49.809"/>
            <line class="cls-5" x1="76.621" y1="33.361" x2="76.621" y2="49.809"/>
            <line class="cls-5" x1="135.655" y1="33.361" x2="135.655" y2="49.809"/>
            <line class="cls-5" x1="194.69" y1="33.361" x2="194.69" y2="49.809"/>
            <line class="cls-5" x1="253.724" y1="33.361" x2="253.724" y2="49.809"/>
            <line class="cls-5" x1="312.758" y1="33.361" x2="312.758" y2="49.809"/>
            <line class="cls-5" x1="371.793" y1="33.361" x2="371.793" y2="49.809"/>
            <line class="cls-5" x1="430.827" y1="33.361" x2="430.827" y2="49.809"/>
            <line class="cls-5" x1="489.861" y1="33.361" x2="489.861" y2="49.809"/>
            <line class="cls-5" x1="548.896" y1="33.361" x2="548.896" y2="49.809"/>
            <line class="cls-5" x1="607.93" y1="33.361" x2="607.93" y2="49.809"/>
            <line class="cls-5" x1="666.964" y1="33.361" x2="666.964" y2="49.809"/>
            <line class="cls-5" x1="725.999" y1="33.361" x2="725.999" y2="49.809"/>
            <line class="cls-5" x1="785.033" y1="33.361" x2="785.033" y2="49.809"/>
            <line class="cls-5" x1="844.067" y1="33.361" x2="844.067" y2="49.809"/>
            <line class="cls-5" x1="903.101" y1="33.361" x2="903.101" y2="49.809"/>
          </g>
          <g>
            <line class="cls-6" x1="22.1" y1="42.452" x2="22.1" y2="49.809"/>
            <line class="cls-6" x1="26.675" y1="42.452" x2="26.675" y2="49.809"/>
            <line class="cls-6" x1="31.249" y1="42.452" x2="31.249" y2="49.809"/>
            <line class="cls-6" x1="35.824" y1="42.452" x2="35.824" y2="49.809"/>
            <line class="cls-6" x1="40.399" y1="42.452" x2="40.399" y2="49.809"/>
            <line class="cls-6" x1="44.974" y1="42.452" x2="44.974" y2="49.809"/>
            <line class="cls-6" x1="49.549" y1="42.452" x2="49.549" y2="49.809"/>
            <line class="cls-6" x1="54.124" y1="42.452" x2="54.124" y2="49.809"/>
            <line class="cls-6" x1="58.699" y1="42.452" x2="58.699" y2="49.809"/>
            <line class="cls-6" x1="63.274" y1="42.452" x2="63.274" y2="49.809"/>
            <line class="cls-6" x1="67.849" y1="42.452" x2="67.849" y2="49.809"/>
            <line class="cls-6" x1="72.424" y1="42.452" x2="72.424" y2="49.809"/>
          </g>
          <g>
            <line class="cls-6" x1="81.079" y1="42.452" x2="81.079" y2="49.809"/>
            <line class="cls-6" x1="85.654" y1="42.452" x2="85.654" y2="49.809"/>
            <line class="cls-6" x1="90.229" y1="42.452" x2="90.229" y2="49.809"/>
            <line class="cls-6" x1="94.804" y1="42.452" x2="94.804" y2="49.809"/>
            <line class="cls-6" x1="99.379" y1="42.452" x2="99.379" y2="49.809"/>
            <line class="cls-6" x1="103.954" y1="42.452" x2="103.954" y2="49.809"/>
            <line class="cls-6" x1="108.529" y1="42.452" x2="108.529" y2="49.809"/>
            <line class="cls-6" x1="113.104" y1="42.452" x2="113.104" y2="49.809"/>
            <line class="cls-6" x1="117.678" y1="42.452" x2="117.678" y2="49.809"/>
            <line class="cls-6" x1="122.253" y1="42.452" x2="122.253" y2="49.809"/>
            <line class="cls-6" x1="126.828" y1="42.452" x2="126.828" y2="49.809"/>
            <line class="cls-6" x1="131.403" y1="42.452" x2="131.403" y2="49.809"/>
          </g>
          <g>
            <line class="cls-6" x1="140.16" y1="42.452" x2="140.16" y2="49.809"/>
            <line class="cls-6" x1="144.735" y1="42.452" x2="144.735" y2="49.809"/>
            <line class="cls-6" x1="149.31" y1="42.452" x2="149.31" y2="49.809"/>
            <line class="cls-6" x1="153.885" y1="42.452" x2="153.885" y2="49.809"/>
            <line class="cls-6" x1="158.46" y1="42.452" x2="158.46" y2="49.809"/>
            <line class="cls-6" x1="163.035" y1="42.452" x2="163.035" y2="49.809"/>
            <line class="cls-6" x1="167.61" y1="42.452" x2="167.61" y2="49.809"/>
            <line class="cls-6" x1="172.184" y1="42.452" x2="172.184" y2="49.809"/>
            <line class="cls-6" x1="176.759" y1="42.452" x2="176.759" y2="49.809"/>
            <line class="cls-6" x1="181.334" y1="42.452" x2="181.334" y2="49.809"/>
            <line class="cls-6" x1="185.909" y1="42.452" x2="185.909" y2="49.809"/>
            <line class="cls-6" x1="190.484" y1="42.452" x2="190.484" y2="49.809"/>
          </g>
          <g>
            <line class="cls-6" x1="199.102" y1="42.452" x2="199.102" y2="49.809"/>
            <line class="cls-6" x1="203.677" y1="42.452" x2="203.677" y2="49.809"/>
            <line class="cls-6" x1="208.251" y1="42.452" x2="208.251" y2="49.809"/>
            <line class="cls-6" x1="212.826" y1="42.452" x2="212.826" y2="49.809"/>
            <line class="cls-6" x1="217.401" y1="42.452" x2="217.401" y2="49.809"/>
            <line class="cls-6" x1="221.976" y1="42.452" x2="221.976" y2="49.809"/>
            <line class="cls-6" x1="226.551" y1="42.452" x2="226.551" y2="49.809"/>
            <line class="cls-6" x1="231.126" y1="42.452" x2="231.126" y2="49.809"/>
            <line class="cls-6" x1="235.701" y1="42.452" x2="235.701" y2="49.809"/>
            <line class="cls-6" x1="240.276" y1="42.452" x2="240.276" y2="49.809"/>
            <line class="cls-6" x1="244.851" y1="42.452" x2="244.851" y2="49.809"/>
            <line class="cls-6" x1="249.426" y1="42.452" x2="249.426" y2="49.809"/>
          </g>
          <g>
            <line class="cls-6" x1="258.21" y1="42.452" x2="258.21" y2="49.809"/>
            <line class="cls-6" x1="262.785" y1="42.452" x2="262.785" y2="49.809"/>
            <line class="cls-6" x1="267.36" y1="42.452" x2="267.36" y2="49.809"/>
            <line class="cls-6" x1="271.935" y1="42.452" x2="271.935" y2="49.809"/>
            <line class="cls-6" x1="276.51" y1="42.452" x2="276.51" y2="49.809"/>
            <line class="cls-6" x1="281.084" y1="42.452" x2="281.084" y2="49.809"/>
            <line class="cls-6" x1="285.659" y1="42.452" x2="285.659" y2="49.809"/>
            <line class="cls-6" x1="290.234" y1="42.452" x2="290.234" y2="49.809"/>
            <line class="cls-6" x1="294.809" y1="42.452" x2="294.809" y2="49.809"/>
            <line class="cls-6" x1="299.384" y1="42.452" x2="299.384" y2="49.809"/>
            <line class="cls-6" x1="303.959" y1="42.452" x2="303.959" y2="49.809"/>
            <line class="cls-6" x1="308.534" y1="42.452" x2="308.534" y2="49.809"/>
          </g>
          <g>
            <line class="cls-6" x1="318.176" y1="42.452" x2="318.176" y2="49.809"/>
            <line class="cls-6" x1="322.751" y1="42.452" x2="322.751" y2="49.809"/>
            <line class="cls-6" x1="327.326" y1="42.452" x2="327.326" y2="49.809"/>
            <line class="cls-6" x1="331.901" y1="42.452" x2="331.901" y2="49.809"/>
            <line class="cls-6" x1="336.476" y1="42.452" x2="336.476" y2="49.809"/>
            <line class="cls-6" x1="341.051" y1="42.452" x2="341.051" y2="49.809"/>
            <line class="cls-6" x1="345.625" y1="42.452" x2="345.625" y2="49.809"/>
            <line class="cls-6" x1="350.2" y1="42.452" x2="350.2" y2="49.809"/>
            <line class="cls-6" x1="354.775" y1="42.452" x2="354.775" y2="49.809"/>
            <line class="cls-6" x1="359.35" y1="42.452" x2="359.35" y2="49.809"/>
            <line class="cls-6" x1="363.925" y1="42.452" x2="363.925" y2="49.809"/>
            <line class="cls-6" x1="368.5" y1="42.452" x2="368.5" y2="49.809"/>
          </g>
          <g>
            <line class="cls-6" x1="375.99" y1="42.452" x2="375.99" y2="49.809"/>
            <line class="cls-6" x1="380.565" y1="42.452" x2="380.565" y2="49.809"/>
            <line class="cls-6" x1="385.139" y1="42.452" x2="385.139" y2="49.809"/>
            <line class="cls-6" x1="389.714" y1="42.452" x2="389.714" y2="49.809"/>
            <line class="cls-6" x1="394.289" y1="42.452" x2="394.289" y2="49.809"/>
            <line class="cls-6" x1="398.864" y1="42.452" x2="398.864" y2="49.809"/>
            <line class="cls-6" x1="403.439" y1="42.452" x2="403.439" y2="49.809"/>
            <line class="cls-6" x1="408.014" y1="42.452" x2="408.014" y2="49.809"/>
            <line class="cls-6" x1="412.589" y1="42.452" x2="412.589" y2="49.809"/>
            <line class="cls-6" x1="417.164" y1="42.452" x2="417.164" y2="49.809"/>
            <line class="cls-6" x1="421.739" y1="42.452" x2="421.739" y2="49.809"/>
            <line class="cls-6" x1="426.314" y1="42.452" x2="426.314" y2="49.809"/>
          </g>
          <g>
            <line class="cls-6" x1="435.071" y1="42.452" x2="435.071" y2="49.809"/>
            <line class="cls-6" x1="439.646" y1="42.452" x2="439.646" y2="49.809"/>
            <line class="cls-6" x1="444.22" y1="42.452" x2="444.22" y2="49.809"/>
            <line class="cls-6" x1="448.795" y1="42.452" x2="448.795" y2="49.809"/>
            <line class="cls-6" x1="453.37" y1="42.452" x2="453.37" y2="49.809"/>
            <line class="cls-6" x1="457.945" y1="42.452" x2="457.945" y2="49.809"/>
            <line class="cls-6" x1="462.52" y1="42.452" x2="462.52" y2="49.809"/>
            <line class="cls-6" x1="467.095" y1="42.452" x2="467.095" y2="49.809"/>
            <line class="cls-6" x1="471.67" y1="42.452" x2="471.67" y2="49.809"/>
            <line class="cls-6" x1="476.245" y1="42.452" x2="476.245" y2="49.809"/>
            <line class="cls-6" x1="480.82" y1="42.452" x2="480.82" y2="49.809"/>
            <line class="cls-6" x1="485.395" y1="42.452" x2="485.395" y2="49.809"/>
          </g>
          <g>
            <line class="cls-6" x1="493.923" y1="42.452" x2="493.923" y2="49.809"/>
            <line class="cls-6" x1="498.498" y1="42.452" x2="498.498" y2="49.809"/>
            <line class="cls-6" x1="503.073" y1="42.452" x2="503.073" y2="49.809"/>
            <line class="cls-6" x1="507.648" y1="42.452" x2="507.648" y2="49.809"/>
            <line class="cls-6" x1="512.223" y1="42.452" x2="512.223" y2="49.809"/>
            <line class="cls-6" x1="516.798" y1="42.452" x2="516.798" y2="49.809"/>
            <line class="cls-6" x1="521.373" y1="42.452" x2="521.373" y2="49.809"/>
            <line class="cls-6" x1="525.948" y1="42.452" x2="525.948" y2="49.809"/>
            <line class="cls-6" x1="530.523" y1="42.452" x2="530.523" y2="49.809"/>
            <line class="cls-6" x1="535.098" y1="42.452" x2="535.098" y2="49.809"/>
            <line class="cls-6" x1="539.673" y1="42.452" x2="539.673" y2="49.809"/>
            <line class="cls-6" x1="544.247" y1="42.452" x2="544.247" y2="49.809"/>
          </g>
          <g>
            <line class="cls-6" x1="554.815" y1="42.452" x2="554.815" y2="49.809"/>
            <line class="cls-6" x1="559.389" y1="42.452" x2="559.389" y2="49.809"/>
            <line class="cls-6" x1="563.964" y1="42.452" x2="563.964" y2="49.809"/>
            <line class="cls-6" x1="568.539" y1="42.452" x2="568.539" y2="49.809"/>
            <line class="cls-6" x1="573.114" y1="42.452" x2="573.114" y2="49.809"/>
            <line class="cls-6" x1="577.689" y1="42.452" x2="577.689" y2="49.809"/>
            <line class="cls-6" x1="582.264" y1="42.452" x2="582.264" y2="49.809"/>
            <line class="cls-6" x1="586.839" y1="42.452" x2="586.839" y2="49.809"/>
            <line class="cls-6" x1="591.414" y1="42.452" x2="591.414" y2="49.809"/>
            <line class="cls-6" x1="595.989" y1="42.452" x2="595.989" y2="49.809"/>
            <line class="cls-6" x1="600.564" y1="42.452" x2="600.564" y2="49.809"/>
            <line class="cls-6" x1="605.139" y1="42.452" x2="605.139" y2="49.809"/>
          </g>
          <g>
            <line class="cls-6" x1="611.713" y1="42.452" x2="611.713" y2="49.809"/>
            <line class="cls-6" x1="616.288" y1="42.452" x2="616.288" y2="49.809"/>
            <line class="cls-6" x1="620.863" y1="42.452" x2="620.863" y2="49.809"/>
            <line class="cls-6" x1="625.438" y1="42.452" x2="625.438" y2="49.809"/>
            <line class="cls-6" x1="630.013" y1="42.452" x2="630.013" y2="49.809"/>
            <line class="cls-6" x1="634.588" y1="42.452" x2="634.588" y2="49.809"/>
            <line class="cls-6" x1="639.163" y1="42.452" x2="639.163" y2="49.809"/>
            <line class="cls-6" x1="643.737" y1="42.452" x2="643.737" y2="49.809"/>
            <line class="cls-6" x1="648.312" y1="42.452" x2="648.312" y2="49.809"/>
            <line class="cls-6" x1="652.887" y1="42.452" x2="652.887" y2="49.809"/>
            <line class="cls-6" x1="657.462" y1="42.452" x2="657.462" y2="49.809"/>
            <line class="cls-6" x1="662.037" y1="42.452" x2="662.037" y2="49.809"/>
          </g>
          <g>
            <line class="cls-6" x1="671.056" y1="42.452" x2="671.056" y2="49.809"/>
            <line class="cls-6" x1="675.631" y1="42.452" x2="675.631" y2="49.809"/>
            <line class="cls-6" x1="680.206" y1="42.452" x2="680.206" y2="49.809"/>
            <line class="cls-6" x1="684.781" y1="42.452" x2="684.781" y2="49.809"/>
            <line class="cls-6" x1="689.356" y1="42.452" x2="689.356" y2="49.809"/>
            <line class="cls-6" x1="693.931" y1="42.452" x2="693.931" y2="49.809"/>
            <line class="cls-6" x1="698.506" y1="42.452" x2="698.506" y2="49.809"/>
            <line class="cls-6" x1="703.081" y1="42.452" x2="703.081" y2="49.809"/>
            <line class="cls-6" x1="707.656" y1="42.452" x2="707.656" y2="49.809"/>
            <line class="cls-6" x1="712.231" y1="42.452" x2="712.231" y2="49.809"/>
            <line class="cls-6" x1="716.806" y1="42.452" x2="716.806" y2="49.809"/>
            <line class="cls-6" x1="721.38" y1="42.452" x2="721.38" y2="49.809"/>
          </g>
          <g>
            <line class="cls-6" x1="730.792" y1="42.452" x2="730.792" y2="49.809"/>
            <line class="cls-6" x1="735.367" y1="42.452" x2="735.367" y2="49.809"/>
            <line class="cls-6" x1="739.942" y1="42.452" x2="739.942" y2="49.809"/>
            <line class="cls-6" x1="744.517" y1="42.452" x2="744.517" y2="49.809"/>
            <line class="cls-6" x1="749.092" y1="42.452" x2="749.092" y2="49.809"/>
            <line class="cls-6" x1="753.667" y1="42.452" x2="753.667" y2="49.809"/>
            <line class="cls-6" x1="758.242" y1="42.452" x2="758.242" y2="49.809"/>
            <line class="cls-6" x1="762.817" y1="42.452" x2="762.817" y2="49.809"/>
            <line class="cls-6" x1="767.391" y1="42.452" x2="767.391" y2="49.809"/>
            <line class="cls-6" x1="771.966" y1="42.452" x2="771.966" y2="49.809"/>
            <line class="cls-6" x1="776.541" y1="42.452" x2="776.541" y2="49.809"/>
            <line class="cls-6" x1="781.116" y1="42.452" x2="781.116" y2="49.809"/>
          </g>
          <g>
            <line class="cls-6" x1="789.953" y1="42.452" x2="789.953" y2="49.809"/>
            <line class="cls-6" x1="794.528" y1="42.452" x2="794.528" y2="49.809"/>
            <line class="cls-6" x1="799.103" y1="42.452" x2="799.103" y2="49.809"/>
            <line class="cls-6" x1="803.678" y1="42.452" x2="803.678" y2="49.809"/>
            <line class="cls-6" x1="808.253" y1="42.452" x2="808.253" y2="49.809"/>
            <line class="cls-6" x1="812.828" y1="42.452" x2="812.828" y2="49.809"/>
            <line class="cls-6" x1="817.403" y1="42.452" x2="817.403" y2="49.809"/>
            <line class="cls-6" x1="821.978" y1="42.452" x2="821.978" y2="49.809"/>
            <line class="cls-6" x1="826.553" y1="42.452" x2="826.553" y2="49.809"/>
            <line class="cls-6" x1="831.128" y1="42.452" x2="831.128" y2="49.809"/>
            <line class="cls-6" x1="835.702" y1="42.452" x2="835.702" y2="49.809"/>
            <line class="cls-6" x1="840.277" y1="42.452" x2="840.277" y2="49.809"/>
          </g>
          <g>
            <line class="cls-6" x1="848.24" y1="42.452" x2="848.24" y2="49.809"/>
            <line class="cls-6" x1="852.815" y1="42.452" x2="852.815" y2="49.809"/>
            <line class="cls-6" x1="857.39" y1="42.452" x2="857.39" y2="49.809"/>
            <line class="cls-6" x1="861.965" y1="42.452" x2="861.965" y2="49.809"/>
            <line class="cls-6" x1="866.54" y1="42.452" x2="866.54" y2="49.809"/>
            <line class="cls-6" x1="871.115" y1="42.452" x2="871.115" y2="49.809"/>
            <line class="cls-6" x1="875.69" y1="42.452" x2="875.69" y2="49.809"/>
            <line class="cls-6" x1="880.265" y1="42.452" x2="880.265" y2="49.809"/>
            <line class="cls-6" x1="884.839" y1="42.452" x2="884.839" y2="49.809"/>
            <line class="cls-6" x1="889.414" y1="42.452" x2="889.414" y2="49.809"/>
            <line class="cls-6" x1="893.989" y1="42.452" x2="893.989" y2="49.809"/>
            <line class="cls-6" x1="898.564" y1="42.452" x2="898.564" y2="49.809"/>
          </g>
        </g>
        <g>
          <rect class="cls-4" x="0.34" y="49.892" width="13.791" height="914.633"/>
          <g>
            <line class="cls-5" x1="0.34" y1="53.83" x2="14.131" y2="53.83"/>
            <line class="cls-5" x1="0.34" y1="124.243" x2="14.131" y2="124.243"/>
            <line class="cls-5" x1="0.34" y1="194.656" x2="14.131" y2="194.656"/>
            <line class="cls-5" x1="0.34" y1="265.069" x2="14.131" y2="265.069"/>
            <line class="cls-5" x1="0.34" y1="335.481" x2="14.131" y2="335.481"/>
            <line class="cls-5" x1="0.34" y1="405.894" x2="14.131" y2="405.894"/>
            <line class="cls-5" x1="0.34" y1="476.307" x2="14.131" y2="476.307"/>
            <line class="cls-5" x1="0.34" y1="546.72" x2="14.131" y2="546.72"/>
            <line class="cls-5" x1="0.34" y1="617.133" x2="14.131" y2="617.133"/>
            <line class="cls-5" x1="0.34" y1="687.546" x2="14.131" y2="687.546"/>
            <line class="cls-5" x1="0.34" y1="757.959" x2="14.131" y2="757.959"/>
            <line class="cls-5" x1="0.34" y1="828.371" x2="14.131" y2="828.371"/>
            <line class="cls-5" x1="0.34" y1="898.784" x2="14.131" y2="898.784"/>
          </g>
          <g>
            <line class="cls-6" x1="7.963" y1="59.213" x2="14.131" y2="59.213"/>
            <line class="cls-6" x1="7.963" y1="64.669" x2="14.131" y2="64.669"/>
            <line class="cls-6" x1="7.963" y1="70.126" x2="14.131" y2="70.126"/>
            <line class="cls-6" x1="7.963" y1="75.583" x2="14.131" y2="75.583"/>
            <line class="cls-6" x1="7.963" y1="81.04" x2="14.131" y2="81.04"/>
            <line class="cls-6" x1="7.963" y1="86.496" x2="14.131" y2="86.496"/>
            <line class="cls-6" x1="7.963" y1="91.953" x2="14.131" y2="91.953"/>
            <line class="cls-6" x1="7.963" y1="97.41" x2="14.131" y2="97.41"/>
            <line class="cls-6" x1="7.963" y1="102.866" x2="14.131" y2="102.866"/>
            <line class="cls-6" x1="7.963" y1="108.323" x2="14.131" y2="108.323"/>
            <line class="cls-6" x1="7.963" y1="113.78" x2="14.131" y2="113.78"/>
            <line class="cls-6" x1="7.963" y1="119.236" x2="14.131" y2="119.236"/>
          </g>
          <g>
            <line class="cls-6" x1="7.963" y1="129.56" x2="14.131" y2="129.56"/>
            <line class="cls-6" x1="7.963" y1="135.017" x2="14.131" y2="135.017"/>
            <line class="cls-6" x1="7.963" y1="140.474" x2="14.131" y2="140.474"/>
            <line class="cls-6" x1="7.963" y1="145.93" x2="14.131" y2="145.93"/>
            <line class="cls-6" x1="7.963" y1="151.387" x2="14.131" y2="151.387"/>
            <line class="cls-6" x1="7.963" y1="156.844" x2="14.131" y2="156.844"/>
            <line class="cls-6" x1="7.963" y1="162.3" x2="14.131" y2="162.3"/>
            <line class="cls-6" x1="7.963" y1="167.757" x2="14.131" y2="167.757"/>
            <line class="cls-6" x1="7.963" y1="173.214" x2="14.131" y2="173.214"/>
            <line class="cls-6" x1="7.963" y1="178.671" x2="14.131" y2="178.671"/>
            <line class="cls-6" x1="7.963" y1="184.127" x2="14.131" y2="184.127"/>
            <line class="cls-6" x1="7.963" y1="189.584" x2="14.131" y2="189.584"/>
          </g>
          <g>
            <line class="cls-6" x1="7.963" y1="200.029" x2="14.131" y2="200.029"/>
            <line class="cls-6" x1="7.963" y1="205.485" x2="14.131" y2="205.485"/>
            <line class="cls-6" x1="7.963" y1="210.942" x2="14.131" y2="210.942"/>
            <line class="cls-6" x1="7.963" y1="216.399" x2="14.131" y2="216.399"/>
            <line class="cls-6" x1="7.963" y1="221.856" x2="14.131" y2="221.856"/>
            <line class="cls-6" x1="7.963" y1="227.312" x2="14.131" y2="227.312"/>
            <line class="cls-6" x1="7.963" y1="232.769" x2="14.131" y2="232.769"/>
            <line class="cls-6" x1="7.963" y1="238.226" x2="14.131" y2="238.226"/>
            <line class="cls-6" x1="7.963" y1="243.682" x2="14.131" y2="243.682"/>
            <line class="cls-6" x1="7.963" y1="249.139" x2="14.131" y2="249.139"/>
            <line class="cls-6" x1="7.963" y1="254.596" x2="14.131" y2="254.596"/>
            <line class="cls-6" x1="7.963" y1="260.052" x2="14.131" y2="260.052"/>
          </g>
          <g>
            <line class="cls-6" x1="7.963" y1="270.331" x2="14.131" y2="270.331"/>
            <line class="cls-6" x1="7.963" y1="275.788" x2="14.131" y2="275.788"/>
            <line class="cls-6" x1="7.963" y1="281.244" x2="14.131" y2="281.244"/>
            <line class="cls-6" x1="7.963" y1="286.701" x2="14.131" y2="286.701"/>
            <line class="cls-6" x1="7.963" y1="292.158" x2="14.131" y2="292.158"/>
            <line class="cls-6" x1="7.963" y1="297.614" x2="14.131" y2="297.614"/>
            <line class="cls-6" x1="7.963" y1="303.071" x2="14.131" y2="303.071"/>
            <line class="cls-6" x1="7.963" y1="308.528" x2="14.131" y2="308.528"/>
            <line class="cls-6" x1="7.963" y1="313.985" x2="14.131" y2="313.985"/>
            <line class="cls-6" x1="7.963" y1="319.441" x2="14.131" y2="319.441"/>
            <line class="cls-6" x1="7.963" y1="324.898" x2="14.131" y2="324.898"/>
            <line class="cls-6" x1="7.963" y1="330.355" x2="14.131" y2="330.355"/>
          </g>
          <g>
            <line class="cls-6" x1="7.963" y1="340.832" x2="14.131" y2="340.832"/>
            <line class="cls-6" x1="7.963" y1="346.289" x2="14.131" y2="346.289"/>
            <line class="cls-6" x1="7.963" y1="351.745" x2="14.131" y2="351.745"/>
            <line class="cls-6" x1="7.963" y1="357.202" x2="14.131" y2="357.202"/>
            <line class="cls-6" x1="7.963" y1="362.659" x2="14.131" y2="362.659"/>
            <line class="cls-6" x1="7.963" y1="368.116" x2="14.131" y2="368.116"/>
            <line class="cls-6" x1="7.963" y1="373.572" x2="14.131" y2="373.572"/>
            <line class="cls-6" x1="7.963" y1="379.029" x2="14.131" y2="379.029"/>
            <line class="cls-6" x1="7.963" y1="384.486" x2="14.131" y2="384.486"/>
            <line class="cls-6" x1="7.963" y1="389.942" x2="14.131" y2="389.942"/>
            <line class="cls-6" x1="7.963" y1="395.399" x2="14.131" y2="395.399"/>
            <line class="cls-6" x1="7.963" y1="400.856" x2="14.131" y2="400.856"/>
          </g>
          <g>
            <line class="cls-6" x1="7.963" y1="412.356" x2="14.131" y2="412.356"/>
            <line class="cls-6" x1="7.963" y1="417.813" x2="14.131" y2="417.813"/>
            <line class="cls-6" x1="7.963" y1="423.27" x2="14.131" y2="423.27"/>
            <line class="cls-6" x1="7.963" y1="428.726" x2="14.131" y2="428.726"/>
            <line class="cls-6" x1="7.963" y1="434.183" x2="14.131" y2="434.183"/>
            <line class="cls-6" x1="7.963" y1="439.64" x2="14.131" y2="439.64"/>
            <line class="cls-6" x1="7.963" y1="445.096" x2="14.131" y2="445.096"/>
            <line class="cls-6" x1="7.963" y1="450.553" x2="14.131" y2="450.553"/>
            <line class="cls-6" x1="7.963" y1="456.01" x2="14.131" y2="456.01"/>
            <line class="cls-6" x1="7.963" y1="461.466" x2="14.131" y2="461.466"/>
            <line class="cls-6" x1="7.963" y1="466.923" x2="14.131" y2="466.923"/>
            <line class="cls-6" x1="7.963" y1="472.38" x2="14.131" y2="472.38"/>
          </g>
          <g>
            <line class="cls-6" x1="7.963" y1="481.313" x2="14.131" y2="481.313"/>
            <line class="cls-6" x1="7.963" y1="486.77" x2="14.131" y2="486.77"/>
            <line class="cls-6" x1="7.963" y1="492.227" x2="14.131" y2="492.227"/>
            <line class="cls-6" x1="7.963" y1="497.683" x2="14.131" y2="497.683"/>
            <line class="cls-6" x1="7.963" y1="503.14" x2="14.131" y2="503.14"/>
            <line class="cls-6" x1="7.963" y1="508.597" x2="14.131" y2="508.597"/>
            <line class="cls-6" x1="7.963" y1="514.053" x2="14.131" y2="514.053"/>
            <line class="cls-6" x1="7.963" y1="519.51" x2="14.131" y2="519.51"/>
            <line class="cls-6" x1="7.963" y1="524.967" x2="14.131" y2="524.967"/>
            <line class="cls-6" x1="7.963" y1="530.423" x2="14.131" y2="530.423"/>
            <line class="cls-6" x1="7.963" y1="535.88" x2="14.131" y2="535.88"/>
            <line class="cls-6" x1="7.963" y1="541.337" x2="14.131" y2="541.337"/>
          </g>
          <g>
            <line class="cls-6" x1="7.963" y1="551.782" x2="14.131" y2="551.782"/>
            <line class="cls-6" x1="7.963" y1="557.238" x2="14.131" y2="557.238"/>
            <line class="cls-6" x1="7.963" y1="562.695" x2="14.131" y2="562.695"/>
            <line class="cls-6" x1="7.963" y1="568.152" x2="14.131" y2="568.152"/>
            <line class="cls-6" x1="7.963" y1="573.608" x2="14.131" y2="573.608"/>
            <line class="cls-6" x1="7.963" y1="579.065" x2="14.131" y2="579.065"/>
            <line class="cls-6" x1="7.963" y1="584.522" x2="14.131" y2="584.522"/>
            <line class="cls-6" x1="7.963" y1="589.978" x2="14.131" y2="589.978"/>
            <line class="cls-6" x1="7.963" y1="595.435" x2="14.131" y2="595.435"/>
            <line class="cls-6" x1="7.963" y1="600.892" x2="14.131" y2="600.892"/>
            <line class="cls-6" x1="7.963" y1="606.349" x2="14.131" y2="606.349"/>
            <line class="cls-6" x1="7.963" y1="611.805" x2="14.131" y2="611.805"/>
          </g>
          <g>
            <line class="cls-6" x1="7.963" y1="621.978" x2="14.131" y2="621.978"/>
            <line class="cls-6" x1="7.963" y1="627.435" x2="14.131" y2="627.435"/>
            <line class="cls-6" x1="7.963" y1="632.891" x2="14.131" y2="632.891"/>
            <line class="cls-6" x1="7.963" y1="638.348" x2="14.131" y2="638.348"/>
            <line class="cls-6" x1="7.963" y1="643.805" x2="14.131" y2="643.805"/>
            <line class="cls-6" x1="7.963" y1="649.261" x2="14.131" y2="649.261"/>
            <line class="cls-6" x1="7.963" y1="654.718" x2="14.131" y2="654.718"/>
            <line class="cls-6" x1="7.963" y1="660.175" x2="14.131" y2="660.175"/>
            <line class="cls-6" x1="7.963" y1="665.632" x2="14.131" y2="665.632"/>
            <line class="cls-6" x1="7.963" y1="671.088" x2="14.131" y2="671.088"/>
            <line class="cls-6" x1="7.963" y1="676.545" x2="14.131" y2="676.545"/>
            <line class="cls-6" x1="7.963" y1="682.002" x2="14.131" y2="682.002"/>
          </g>
          <g>
            <line class="cls-6" x1="7.963" y1="694.606" x2="14.131" y2="694.606"/>
            <line class="cls-6" x1="7.963" y1="700.062" x2="14.131" y2="700.062"/>
            <line class="cls-6" x1="7.963" y1="705.519" x2="14.131" y2="705.519"/>
            <line class="cls-6" x1="7.963" y1="710.976" x2="14.131" y2="710.976"/>
            <line class="cls-6" x1="7.963" y1="716.432" x2="14.131" y2="716.432"/>
            <line class="cls-6" x1="7.963" y1="721.889" x2="14.131" y2="721.889"/>
            <line class="cls-6" x1="7.963" y1="727.346" x2="14.131" y2="727.346"/>
            <line class="cls-6" x1="7.963" y1="732.802" x2="14.131" y2="732.802"/>
            <line class="cls-6" x1="7.963" y1="738.259" x2="14.131" y2="738.259"/>
            <line class="cls-6" x1="7.963" y1="743.716" x2="14.131" y2="743.716"/>
            <line class="cls-6" x1="7.963" y1="749.173" x2="14.131" y2="749.173"/>
            <line class="cls-6" x1="7.963" y1="754.629" x2="14.131" y2="754.629"/>
          </g>
          <g>
            <line class="cls-6" x1="7.963" y1="762.471" x2="14.131" y2="762.471"/>
            <line class="cls-6" x1="7.963" y1="767.928" x2="14.131" y2="767.928"/>
            <line class="cls-6" x1="7.963" y1="773.384" x2="14.131" y2="773.384"/>
            <line class="cls-6" x1="7.963" y1="778.841" x2="14.131" y2="778.841"/>
            <line class="cls-6" x1="7.963" y1="784.298" x2="14.131" y2="784.298"/>
            <line class="cls-6" x1="7.963" y1="789.754" x2="14.131" y2="789.754"/>
            <line class="cls-6" x1="7.963" y1="795.211" x2="14.131" y2="795.211"/>
            <line class="cls-6" x1="7.963" y1="800.668" x2="14.131" y2="800.668"/>
            <line class="cls-6" x1="7.963" y1="806.124" x2="14.131" y2="806.124"/>
            <line class="cls-6" x1="7.963" y1="811.581" x2="14.131" y2="811.581"/>
            <line class="cls-6" x1="7.963" y1="817.038" x2="14.131" y2="817.038"/>
            <line class="cls-6" x1="7.963" y1="822.495" x2="14.131" y2="822.495"/>
          </g>
          <g>
            <line class="cls-6" x1="7.963" y1="833.252" x2="14.131" y2="833.252"/>
            <line class="cls-6" x1="7.963" y1="838.709" x2="14.131" y2="838.709"/>
            <line class="cls-6" x1="7.963" y1="844.166" x2="14.131" y2="844.166"/>
            <line class="cls-6" x1="7.963" y1="849.622" x2="14.131" y2="849.622"/>
            <line class="cls-6" x1="7.963" y1="855.079" x2="14.131" y2="855.079"/>
            <line class="cls-6" x1="7.963" y1="860.536" x2="14.131" y2="860.536"/>
            <line class="cls-6" x1="7.963" y1="865.993" x2="14.131" y2="865.993"/>
            <line class="cls-6" x1="7.963" y1="871.449" x2="14.131" y2="871.449"/>
            <line class="cls-6" x1="7.963" y1="876.906" x2="14.131" y2="876.906"/>
            <line class="cls-6" x1="7.963" y1="882.363" x2="14.131" y2="882.363"/>
            <line class="cls-6" x1="7.963" y1="887.819" x2="14.131" y2="887.819"/>
            <line class="cls-6" x1="7.963" y1="893.276" x2="14.131" y2="893.276"/>
          </g>
          <g>
            <line class="cls-6" x1="7.963" y1="904.502" x2="14.131" y2="904.502"/>
            <line class="cls-6" x1="7.963" y1="909.959" x2="14.131" y2="909.959"/>
            <line class="cls-6" x1="7.963" y1="915.415" x2="14.131" y2="915.415"/>
            <line class="cls-6" x1="7.963" y1="920.872" x2="14.131" y2="920.872"/>
            <line class="cls-6" x1="7.963" y1="926.329" x2="14.131" y2="926.329"/>
            <line class="cls-6" x1="7.963" y1="931.785" x2="14.131" y2="931.785"/>
            <line class="cls-6" x1="7.963" y1="937.242" x2="14.131" y2="937.242"/>
            <line class="cls-6" x1="7.963" y1="942.699" x2="14.131" y2="942.699"/>
            <line class="cls-6" x1="7.963" y1="948.155" x2="14.131" y2="948.155"/>
            <line class="cls-6" x1="7.963" y1="953.612" x2="14.131" y2="953.612"/>
            <line class="cls-6" x1="7.963" y1="959.069" x2="14.131" y2="959.069"/>
            <line class="cls-6" x1="7.963" y1="964.525" x2="14.131" y2="964.525"/>
          </g>
        </g>
      </g>
    </g>
  </g>
</svg>
