<svg xmlns="http://www.w3.org/2000/svg" viewBox="0 0 349.35 170.85"><defs><style>.cls-1{fill:#fefefe;}</style></defs><g id="Layer_2" data-name="Layer 2"><g id="Draw_Layer" data-name="Draw Layer"><path class="cls-1" d="M196.32,105.1a11.15,11.15,0,0,0-1.83.21,13.62,13.62,0,0,0-1.73.6,21.1,21.1,0,0,0-1.95.87c-1.81.94-3.54,2-5.31,3s-3.76,2.32-5.64,3.48c-2.4,1.47-4.73,3-7,4.63l.89-.63c-3.41,2.37-6.73,4.85-10.11,7.27l-1.12.78c-.75.52-1.5,1-2.24,1.57a65.89,65.89,0,0,1-8.71,5c-3.08,1.5-6.29,2.77-9.25,4.51-1.37.8-2.71,1.64-4.07,2.46s-2.88,1.61-4.32,2.43a87.22,87.22,0,0,0-9.61,6.35,4.11,4.11,0,0,0-1.37,3,4.31,4.31,0,0,0,1.12,3,4.26,4.26,0,0,0,3,1.37,4.55,4.55,0,0,0,3-1.11l1.46-1.1a91.67,91.67,0,0,1,8-4.91c2.83-1.51,5.46-3.38,8.31-4.86s6-2.78,8.94-4.25a68.34,68.34,0,0,0,9.06-5.53l-.57.4c.9-.62,1.79-1.24,2.67-1.87l-.88.63c3-2.13,6-4.33,9-6.53l2.48-1.73c1.71-1.19,3.48-2.28,5.26-3.37s3.25-2.11,4.93-3.08a74.6,74.6,0,0,1,7.38-4.07,5.66,5.66,0,0,1,.82-.16l-.24,0a4.16,4.16,0,0,0,2.34-1,4.26,4.26,0,0,0,1.37-3,4.31,4.31,0,0,0-1.12-3,4.21,4.21,0,0,0-2.83-1.38Zm-.4,8.51h0Zm-29.75,19.44-.24.18.24-.18Z"/><path class="cls-1" d="M139.93,95.41c-3.69.11-7.37.1-11.05.27s-7.36.69-11,1h0a2.22,2.22,0,0,1-.45,0c-1.7.15-3.39.31-5.08.43s-3.57.29-5.36.28c-2,0-3.9-.08-5.86,0-1.8.07-3.61.2-5.41.33s-3.6.34-5.39.61c-2,.29-4,.77-6,1.19s-4.11.83-6.18,1.17-4,.59-5.94.92c-1.8.31-3.59.63-5.37,1s-3.47.89-5.2,1.32c-4.55,1-9.11,2-13.64,3.12-2.7.63-5.44,1.09-8.11,1.83-2.36.66-4.68,1.41-7.05,2l.08,0c-2.23.55-4.43,1.21-6.6,2s-4.07,1.33-6.13,2-4,1.17-6,1.81c-2.44.78-4.8,1.8-7.16,2.81a4.25,4.25,0,1,0,3,7.95c2.19-.94,4.38-1.91,6.65-2.65,2-.65,4-1.22,6-1.83s4-1.22,6-1.91,4.17-1.41,6.31-1.94l-.09,0c3-.74,5.92-1.73,8.9-2.49,4.12-.88,8.21-1.81,12.32-2.73,2-.43,3.89-.9,5.83-1.34s3.64-.93,5.46-1.39c3-.67,6-1.18,8.94-1.64,1.72-.27,3.43-.53,5.14-.84s3.65-.7,5.46-1.08a70.8,70.8,0,0,1,9.6-1.43c3.08-.22,6.15-.4,9.24-.36.91,0,1.82.07,2.73.06s1.87-.09,2.81-.16c1.92-.14,3.84-.27,5.77-.45,3.69-.35,7.37-.79,11.07-1.08,1.92-.15,3.85-.15,5.77-.2,1.76,0,3.53-.08,5.3-.11,3.53-.08,7.06-.13,10.59-.1l3.15.09c.51,0,1,0,1.53,0,2,.07,4.06.27,6.09.44,2.19.18,4.4.3,6.6.42,4.05.23,8.09.61,12.13,1,4.21.36,8.38,1,12.56,1.61,2,.29,4.09.52,6.13.8s3.92.45,5.9.57a110.31,110.31,0,0,1,12.14,1.4c3.92.69,7.86,1.33,11.77,2.08s7.81,1.79,11.71,2.72,8,1.85,12,2.91c2.65.7,5.3,1.39,7.93,2.15,2.44.76,4.89,1.49,7.3,2.34s4.89,1.86,7.38,2.67,4.95,1.52,7.37,2.43c1.17.43,2.33.89,3.51,1.28,1.63.54,3.27,1,4.91,1.5l-1.09-.33c1.88.57,3.78,1.06,5.67,1.58,3.25,1.07,6.29,2.61,9.47,3.86,3.73,1.48,7.63,2.48,11.36,4,3.29,1.31,6.5,2.82,9.72,4.27l8.93,4a4.25,4.25,0,0,0,3.49-7.75l-9.08-4.08c-3.4-1.53-6.78-3.14-10.26-4.47-3.83-1.46-7.83-2.42-11.59-4.06A76,76,0,0,0,295,122.85l-2.33-.6,1.1.33-3.61-1.07c-1.75-.55-3.47-1.19-5.2-1.84-1.89-.7-3.82-1.32-5.75-1.91-3.88-1.21-7.62-2.8-11.5-4-4.29-1.35-8.59-2.65-13-3.79q-6-1.59-12.12-3c-3.91-.91-7.79-2-11.71-2.78s-7.84-1.41-11.77-2.12a114.67,114.67,0,0,0-12.11-1.61c-2-.15-4-.24-6-.46s-3.88-.53-5.82-.77c-3.3-.41-6.59-.94-9.89-1.37s-6.72-.67-10.09-.93c-1.66-.13-3.33-.31-5-.44s-3.5-.17-5.25-.29c-3.48-.23-6.93-.58-10.41-.69h-.21l-.55,0h.08l-2.15,0q-3.15-.12-6.32-.12c-1.83,0-3.67,0-5.5.09Z"/><path class="cls-1" d="M154.58,95.5Z"/><path class="cls-1" d="M154.92,95.51h0Z"/><path class="cls-1" d="M35,119.13l.25-.06-.25.06Z"/><path class="cls-1" d="M12,22.47A4.31,4.31,0,0,0,9.16,24a4.13,4.13,0,0,0-.95,3.16,12.59,12.59,0,0,1,.21,2q-.08,1.27-.18,2.55c-.09,1.23-.32,2.46-.47,3.68-.06.54-.07,1.07-.13,1.61s-.17,1.16-.23,1.75c-.14,1.32-.2,2.65-.23,4S7,45.28,7,46.55c-.09,1.71,0,3.4,0,5.11-.1,1.94-.4,3.87-.54,5.81-.17,2.22-.35,4.43-.41,6.66,0-.16,0-.33,0-.49-.07,1.3-.13,2.59-.31,3.88s-.39,2.85-.53,4.28S4.8,74.57,4.73,76s-.14,2.69-.18,4v.11h0c-.07,2.06-.3,4.12-.43,6.18s-.25,4.31-.5,6.45A74.9,74.9,0,0,1,1.89,103.4a33.06,33.06,0,0,0-.81,4.31c-.1.71-.3,1.41-.41,2.12s-.25,1.55-.33,2.32A26.36,26.36,0,0,0,0,116.4a14.18,14.18,0,0,0,.7,4.34c.48,1.26,1,2.51,1.5,3.76A4.3,4.3,0,0,0,7.7,127a4.29,4.29,0,0,0,2.47-5.48l-.93-2.32c-.2-.49-.41-1-.59-1.47a8.77,8.77,0,0,1-.08-1.15,6.69,6.69,0,0,0-.08-.9c.08-.73.18-1.46.25-2.19a32.35,32.35,0,0,1,.64-3.94c.28-1.19.36-2.41.62-3.6.31-1.49.77-3,1-4.45s.44-2.89.61-4.33c.22-1.81.49-3.62.63-5.43s.22-3.76.4-5.63.26-3.7.31-5.56c0-1.21.09-2.43.19-3.63.12-1.47.32-2.93.48-4.4s.45-3.07.59-4.61c.13-1.34.19-2.7.22-4,.09-2.25.34-4.48.53-6.71.1-1.29.28-2.56.37-3.84.12-1.58,0-3.14,0-4.72.08-2.23.25-4.46.29-6.7l0,1.1c.07-1.5.23-3,.41-4.46s.3-3,.5-4.46c.19-1.31.26-2.65.32-4a16.25,16.25,0,0,0-.18-3.82,4.43,4.43,0,0,0-1.51-2.82,4.28,4.28,0,0,0-2.72-1l-.44,0Z"/><path class="cls-1" d="M137.77.33c-3.57.28-7.14.11-10.71.26-4,.17-7.9.3-11.84.74-2.09.23-4.17.5-6.27.66-1.86.14-3.73.14-5.6.16s-3.71.08-5.56.19S94,2.47,92,2.62s-3.94.32-5.91.48-4,.42-6.07.62c-1.82.17-3.61.47-5.41.76s-3.6.49-5.4.73c-3.89.52-7.77,1.1-11.6,1.93-3.19.68-6.28,1.71-9.39,2.65-1.61.49-3.24.91-4.86,1.34-1.41.37-2.79.82-4.2,1.18l-3.41.84c-1.66.37-3.31.76-5,1.19s-3.5.86-5.25,1.29a44.87,44.87,0,0,0-4.68,1.53,34,34,0,0,0-5,2.39,30,30,0,0,0-4.37,3.33,4.49,4.49,0,0,0-1.74,2.81,4.33,4.33,0,0,0,.75,3.12,4.26,4.26,0,0,0,5.92,1,36.43,36.43,0,0,1,4.66-3.48A50.1,50.1,0,0,1,30.91,23c1.38-.31,2.75-.65,4.12-1q2.76-.63,5.51-1.31c3.12-.75,6.2-1.69,9.3-2.52,2.88-.77,5.7-1.75,8.59-2.52,3.64-.79,7.34-1.4,11-1.86,1.82-.23,3.64-.45,5.45-.73s3.57-.59,5.37-.79c4-.44,8-.8,12-1.12,1.9-.15,3.8-.18,5.69-.29s3.73-.2,5.61-.22,3.51,0,5.25-.1c2-.12,4-.34,6-.59s3.84-.44,5.77-.54,3.75-.16,5.63-.25c3.37-.17,6.75-.07,10.12-.19,2-.08,4.1-.32,6.15-.39s3.83-.12,5.74-.11c2.72.07,5.45.09,8.17.13,3.73.11,7.46.22,11.19.19s7.47-.06,11.21,0l4,.11c4,.18,8,.4,12,.61s8.26.66,12.39,1c2.1.17,4.2.44,6.29.7s4.18.41,6.27.52c1.81.08,3.63.15,5.44.26s3.74.42,5.6.64c2,.24,4,.43,6.05.62s3.88.46,5.82.67c4.18.47,8.4.58,12.57,1.22,8.24,1.26,16.46,2.65,24.64,4.25,2.91.57,5.83,1.12,8.73,1.71,1.45.3,2.86.73,4.29,1.11s2.89.79,4.33,1.2l3.93,1.17c3.83,1.16,7.67,2.2,11.6,3,2,.41,4,.83,6,1.3,1.67.39,3.33.87,5,1.34,1.39.44,2.76.91,4.13,1.4s3,.94,4.47,1.45c2.52.85,5,1.88,7.42,2.94a4.25,4.25,0,1,0,3.49-7.75c-2.49-1.09-5-2.12-7.58-3-1.57-.54-3.17-1-4.74-1.55-1.89-.68-3.81-1.29-5.75-1.85-3.32-.95-6.66-1.83-10.06-2.48S308.61,18,305.39,17c-1.31-.41-2.63-.79-3.95-1.18-2.13-.66-4.28-1.25-6.43-1.85-1.95-.54-3.89-1.07-5.87-1.48q-6-1.24-12.08-2.32c-4.35-.78-8.69-1.59-13.05-2.31-3.91-.66-7.84-1.27-11.79-1.68-2.15-.22-4.31-.33-6.46-.53-2-.19-3.95-.46-5.92-.68S236,4.63,234,4.41s-4-.51-6-.71c-3.76-.38-7.55-.34-11.3-.71-2.13-.21-4.24-.5-6.36-.73s-4.18-.35-6.27-.56c-3.62-.35-7.24-.57-10.88-.78-3.9-.22-7.8-.41-11.7-.5l1.1,0c-4.07-.1-8.12-.16-12.19-.16-3.52,0-7,0-10.55,0l1.1,0C157.49.18,154,.14,150.55.07c-1.38,0-2.76-.07-4.13-.07-2.89,0-5.77.1-8.65.33Z"/><path class="cls-1" d="M339.15,29.54a4.48,4.48,0,0,0-1.76,4.08,9.85,9.85,0,0,0-.06,1.52,5.61,5.61,0,0,0,.23,1.4c0,.25.05.49.1.73.09.4.19.8.28,1.19s.11.63.16.94.06.58.11.87c.12.55.26,1.07.41,1.6s.27,1.12.42,1.68c0,.39.08.78.1,1.17s-.05.69-.07,1.05a15.51,15.51,0,0,0,0,2.55c.12,1,.19,2,.23,3l0-1.1c0,.59,0,1.19,0,1.78s-.05,1.21-.13,1.82a16.54,16.54,0,0,0-.08,2.22c0,.4,0,.8,0,1.2.18,1.64.46,3.27.67,4.91s.57,3.39.7,5.11c.07.91.05,1.85.17,2.76.06.39.17.77.23,1.16,0,.21,0,.42.05.63,0,.64-.06,1.29-.08,1.93,0,.28,0,.56,0,.84v.06c0,1.7.08,3.4.07,5.1q-.08,1.44-.12,2.88v-.16c-.07,1.11-.18,2.21-.32,3.31a35.22,35.22,0,0,0-.1,4.36c0,.49,0,1,0,1.48l0-1.1c0,.59,0,1.18,0,1.77,0,.27,0,.54,0,.81-.07,1.28-.24,2.55-.3,3.82-.08,1.55-.05,3.08,0,4.61.1,2.44.43,4.87.46,7.31l0-1.1c0,.74,0,1.48,0,2.22,0,2,0,4.08,0,6.12-.05,1.25-.11,2.51-.15,3.77,0,.72,0,1.44,0,2.15a28.74,28.74,0,0,1-.64,4.21c-.31,1.41-.62,2.82-1,4.21l-.36,1.19a37.81,37.81,0,0,1-1.8,4.14c-.39.86-.78,1.73-1.24,2.57-.22.3-.46.59-.71.88a9.2,9.2,0,0,0-1.1,1.86l-.08.09c-.6.45-1.25.87-1.88,1.26-1,.62-1.92,1.36-2.94,2-1.37.72-2.72,1.49-4.08,2.24s-2.66,1.67-4,2.4l.28-.14c-2,1.08-3.89,2.32-5.85,3.44-1,.48-1.94.89-2.89,1.36-1.21.59-2.48,1.09-3.74,1.56-1.11.42-2.25.71-3.37,1.09s-2.12.66-3.2,1-2.18.64-3.27,1-2.14.56-3.17,1-2.21,1-3.29,1.57-2.46,1.25-3.7,1.86a4.55,4.55,0,0,0-2.36,2.23,4.26,4.26,0,0,0,2.12,5.62,4.07,4.07,0,0,0,3.26.1c1.45-.72,2.9-1.44,4.33-2.19a21.84,21.84,0,0,1,4.09-1.71c1.36-.38,2.7-.8,4.06-1.19s2.64-.73,4-1.15,2.86-.89,4.26-1.42,3-1.3,4.51-2c3-1.4,5.75-3.18,8.61-4.83,1.17-.64,2.3-1.33,3.43-2s2.13-1.23,3.21-1.82c.63-.31,1.25-.63,1.85-1s.89-.61,1.35-.91.83-.57,1.26-.83.78-.48,1.15-.74a14.43,14.43,0,0,0,2.42-2,10.43,10.43,0,0,0,1.48-2.29c.12-.14.24-.27.35-.41a15.19,15.19,0,0,0,1.14-1.73c.44-.73.8-1.5,1.17-2.27s.8-1.75,1.19-2.62c.25-.56.51-1.11.75-1.66a16.7,16.7,0,0,0,.7-2.21c.64-2.09,1.15-4.2,1.62-6.34.21-1,.38-1.95.51-2.93a29.58,29.58,0,0,0,.12-3.52c0-.27,0-.54,0-.81.09-1.72.21-3.44.19-5.17,0-1.46-.08-2.92-.06-4.37,0-.71,0-1.42,0-2.13l0,.92c.07-3.59-.47-7.17-.51-10.77.1-1.86.3-3.71.34-5.58l0,1.1c0-1,.06-2,.07-2.93l0,1.1c0-.85,0-1.69,0-2.54,0,.17,0,.34,0,.51,0-.83,0-1.66,0-2.49S349,86,349,85.2c.11-1,.13-2,.14-3,.07-1.32.16-2.65.15-4s-.1-2.38-.1-3.56c0-.27,0-.54,0-.81.05-1,.14-2,.11-3,0-.74-.27-1.45-.33-2.19-.12-1.65-.22-3.29-.42-4.93a78.12,78.12,0,0,1-1.09-8.33c.05-.61.12-1.22.14-1.84q.06-1.45.06-2.91v.13a16.47,16.47,0,0,0-.07-2c-.05-.49-.14-1-.18-1.47a25.24,25.24,0,0,0,.13-3.36,13,13,0,0,0-.37-2.46c-.06-.27-.14-.54-.22-.8-.11-.53-.23-1.05-.37-1.57.09.35.17.7.25,1.06q-.12-.54-.27-1.08c-.06-.41-.09-.82-.15-1.22a15,15,0,0,0-.39-1.74,2.91,2.91,0,0,1,0-.31,7.62,7.62,0,0,0-.2-1.06l0-.1a3.86,3.86,0,0,0,.14-1.78,5,5,0,0,0-.92-2.33,4.43,4.43,0,0,0-2.8-1.74,4.73,4.73,0,0,0-.65,0,4.34,4.34,0,0,0-2.48.78Zm-1.56,3.23v0h0v0Zm.87,8.42.12.48v.06c0-.18-.08-.36-.13-.54Zm1.82,52.47c0,.17,0,.33,0,.5,0-.17,0-.33,0-.5Zm-2.18,38.57-.08.29.08-.29Z"/><path class="cls-1" d="M115.26,96.87a4.9,4.9,0,0,1-.67.07c-.28,0-.56,0-.85,0h-.21l-.44,0a6.61,6.61,0,0,1-.77,0c-.34,0-.69,0-1,0h.23l-.35,0h-.35l-.06,0a23.1,23.1,0,0,0-2.52.93c-.53.26-1.12.41-1.67.64s-1.12.45-1.69.67c-1.12.42-2.19.91-3.28,1.42s-2.26,1-3.41,1.46c-1.38.54-2.71,1.17-4.09,1.67-3.71,1.36-7.21,3.2-10.82,4.78-1.93.85-3.93,1.53-5.87,2.35s-3.6,1.67-5.43,2.42c-1.65.68-3.23,1.49-4.9,2.11-1.88.69-3.72,1.44-5.62,2.06s-3.58,1.2-5.35,1.85c-1.52.55-3,1.16-4.56,1.68L46.43,123c-1.67.57-3.31,1.17-5,1.64l-.42.11,1.06-.26c-2.1.51-4.12,1.08-6.15,1.79-1.8.65-3.62,1.18-5.47,1.67a24.34,24.34,0,0,1-5,.53h-.12c-.74,0-1.48-.07-2.22-.16s-1.64-.12-2.47-.13-1.53-.05-2.3-.1a7.73,7.73,0,0,1-1.43-.22,17.5,17.5,0,0,1-2.1-1,6.12,6.12,0,0,1-.48-.41c-.36-.4-.7-.8-1.07-1.2l.52.55c-1.36-1.55-2.45-3.29-3.67-4.94a4.25,4.25,0,0,0-6.9,5c.85,1.13,1.62,2.31,2.45,3.46a20.84,20.84,0,0,0,1.73,2,10.94,10.94,0,0,0,2.15,2.2,21,21,0,0,0,3,1.69,13.53,13.53,0,0,0,4,1.23,31.37,31.37,0,0,0,4.23.18c.58,0,1.16.11,1.73.17,1.12.12,2.27.1,3.38.12l-1.1,0a27.94,27.94,0,0,0,5.17-.21,51.49,51.49,0,0,0,5.29-1.27c2.57-.69,5-1.75,7.6-2.44a48.7,48.7,0,0,0,5.25-1.58c1.61-.59,3.25-1.13,4.88-1.67s3.27-1.14,4.89-1.75,3.29-1.17,4.94-1.74c2-.68,3.92-1.3,5.85-2.07.78-.32,1.58-.62,2.37-.92s1.7-.78,2.55-1.15c1.72-.76,3.45-1.48,5.15-2.28,2-.9,4-1.62,6-2.44s3.84-1.69,5.75-2.56c1.7-.77,3.39-1.63,5.14-2.29,1.56-.58,3.11-1.17,4.63-1.84,1.15-.5,2.34-.92,3.49-1.43s2.2-1.12,3.37-1.54,2.17-.89,3.28-1.29c.88-.33,1.72-.73,2.61-1a27.75,27.75,0,0,0,2.77-1,5.89,5.89,0,0,1,.59-.21,4.27,4.27,0,0,0,2.44-5.49,4.1,4.1,0,0,0-1.52-1.93h-.17l-.62,0a7,7,0,0,0-1.21.15Z"/><path class="cls-1" d="M204,100.91c-.64.41-1.26.86-1.91,1.25l-.26.13c-.25.15-.52.29-.78.43l.35-.19c-.53.27-1,.57-1.58.86l.75-.41-.13.07.16-.08.19-.11c-2.08,1.12-4.07,2.41-6.13,3.56-.44.23-.88.45-1.31.69h0l.54-.29-.85.46-1.08.57.25-.14-.35.19-.18.1-1,.54c-.68.36-1.35.74-2,1.12l-1.88,1,.43-.23-.55.3-.42.22.17-.09-.62.34.67-.37.17-.09c-2.83,1.55-5.57,3.25-8.39,4.8l1-.52c-1.84,1-3.62,2.07-5.44,3.09-1.47.77-3,1.51-4.4,2.33s-2.91,1.77-4.39,2.61c-1,.53-2,1.06-3,1.64s-1.83,1.1-2.76,1.63c-5,2.68-9.79,5.8-14.76,8.57-2.45,1.27-4.92,2.46-7.3,3.86-2.1,1.22-4.19,2.46-6.31,3.64-.86.45-1.73.9-2.57,1.38-.62.36-1.22.74-1.83,1.09-.81.42-1.61.81-2.4,1.26s-1.34.84-2,1.22l-.24.14-.13.07.1-.06a21.94,21.94,0,0,0-2.86,1.82c-.51.41-1,.81-1.57,1.17s-1.29.83-1.9,1.32a4.43,4.43,0,0,0-1.69,2.72,4.21,4.21,0,0,0,.75,3.22,4.26,4.26,0,0,0,5.93.94c1-.86,2.24-1.53,3.32-2.36a21.59,21.59,0,0,1,2.67-1.76c.54-.28,1.08-.57,1.6-.9.31-.2.63-.41,1-.6.83-.43,1.66-.83,2.47-1.3s1.45-.86,2.17-1.28q2.1-1.11,4.17-2.27c1.95-1.09,3.84-2.27,5.79-3.36,1.32-.7,2.67-1.34,4-2,1.93-1,3.8-2.15,5.68-3.25,1.51-.88,3-1.75,4.52-2.67q1.94-1.22,3.93-2.34c1-.5,1.91-1,2.84-1.53s2-1.22,3.07-1.8c1.53-.81,3-1.65,4.51-2.57.88-.55,1.78-1.06,2.69-1.56,1.57-.83,3.16-1.63,4.71-2.49,1.05-.57,2-1.22,3.07-1.8l-.38.2c2.83-1.54,5.58-3.23,8.4-4.8l.33-.17.34-.19c.81-.43,1.62-.86,2.42-1.3l-.11.06c.56-.29,1.11-.59,1.66-.9l.45-.24-.2.11,2.32-1.25-1,.53.52-.28c.81-.43,1.63-.85,2.43-1.3.54-.31,1.06-.65,1.6-1,1.07-.61,2.1-1.26,3.17-1.86l.72-.39-1,.53c.48-.27,1-.53,1.47-.79l-1,.52.92-.49c.62-.33,1.23-.66,1.83-1s1-.67,1.5-1a4.29,4.29,0,0,0,.95-5.94,4.14,4.14,0,0,0-3.38-1.72,4.66,4.66,0,0,0-2.56.78Zm-17.25,9.74,0,0h0l.06,0Z"/><path class="cls-1" d="M219.31,110.77l-2.83,1.81-2.37,1.56,0,0-.79.51c-1.17.73-2.34,1.45-3.48,2.21s-2.3,1.52-3.46,2.27l.14-.08-.15.09-.17.11.15-.1c-1.07.67-2.19,1.25-3.27,1.91s-2.4,1.5-3.6,2.26l0,0-.3.19,0,0h0l0,0-.39.25.17-.11.22-.14-.15.09.08,0c-1.64,1-3.22,2.16-4.81,3.28l-2.2,1.6c-.72.52-1.47,1-2.21,1.49a38.32,38.32,0,0,1-3.66,2c-1.36.65-2.75,1.25-4.11,1.92-.69.34-1.38.67-2,1s-1.38.74-2.07,1.09c-1.42.72-2.86,1.39-4.25,2.15-1,.55-2,1.19-3,1.81l.33-.21-.89.57.15-.09c-.92.59-1.81,1.2-2.71,1.81a6.33,6.33,0,0,0-.54.36l-.23.15h0l.08-.05-.09.06a1.28,1.28,0,0,0-.25.15c-1.11.67-2.24,1.31-3.31,2s-2.37,1.69-3.54,2.57a1.5,1.5,0,0,0,1.93,2.3c1.17-.88,2.34-1.76,3.54-2.58.82-.51,1.65-1,2.48-1.5a8.35,8.35,0,0,0,.74-.47l.2-.13a1.18,1.18,0,0,0,.35-.23c1-.63,1.92-1.3,2.9-1.93l-.15.09.22-.14.11-.07-.1.07.55-.36c.6-.38,1.19-.77,1.81-1.13s1.37-.76,2.07-1.11c1.42-.72,2.85-1.42,4.25-2.16s2.77-1.42,4.18-2.07,2.74-1.26,4.07-2a46.78,46.78,0,0,0,5.61-3.58c1.83-1.31,3.64-2.64,5.51-3.87h0l.58-.38-.05,0,.06,0,.11-.06-.06,0h0l-.27.17.29-.18.37-.24.23-.14h0c1.73-1.11,3.48-2.18,5.27-3.19,1.06-.59,2.06-1.28,3.08-1.94l2.56-1.69,3.35-2.12-.08,0c1.39-.89,2.77-1.82,4.16-2.72l.9-.56a1.64,1.64,0,0,0,.77-.85,1.53,1.53,0,0,0-.06-1.15,1.57,1.57,0,0,0-.85-.77,1.92,1.92,0,0,0-.55-.09,1.19,1.19,0,0,0-.6.15Zm-18,14.94-.18.12-.15.09.33-.21Zm0,0-.12.08.12-.08Zm-.31.2-.18.12.18-.12Zm-30.35,14.18-.08,0,.08,0Zm-1.88,4.83-.07,0,.06,0Zm-3.56,2.18-.09.05.09-.05Zm6.88-4.4-.07.05.08-.05Zm28.64-16.62h0l.06,0h0l-.05,0Zm-1.46-2.59h0l0,0,0,0Zm.23-.15-.2.13h0l.24-.15h0l.12-.08-.18.12Zm.18-.12.09,0-.09,0Zm6.75-4.09h0l0,0Z"/><path class="cls-1" d="M232.76,113.4c-.41.21-.83.37-1.23.62s-1,.66-1.45,1l-2.61,1.78c-.85.59-1.68,1.21-2.53,1.8s-1.67,1.14-2.53,1.7L219.79,122l.32-.21c-1.3.82-2.65,1.55-4,2.34-.65.38-1.3.74-1.94,1.13s-1.33.83-2,1.25c-1.41.9-2.81,1.8-4.17,2.77s-2.42,1.76-3.65,2.62-2.59,1.76-3.89,2.62c-1.65,1-3.29,2.06-5,3-.84.48-1.68.94-2.51,1.44-1,.6-2,1.22-3,1.85l.32-.2c-2.56,1.63-5.05,3.37-7.59,5-1.48.93-3,1.83-4.47,2.77a1.64,1.64,0,0,0-.77.85,1.5,1.5,0,0,0,.91,1.91,1.44,1.44,0,0,0,1.15,0c2-1.28,4.09-2.5,6.08-3.83s3.75-2.54,5.66-3.78l1-.63q1.94-1.23,3.95-2.34c1.33-.74,2.62-1.53,3.91-2.33s2.72-1.72,4.06-2.62,2.62-1.79,3.91-2.71l2.47-1.78c.8-.57,1.63-1.1,2.46-1.64.68-.43,1.37-.88,2.06-1.3s1.54-.9,2.31-1.36,1.57-.9,2.36-1.36,1.7-1,2.54-1.57l-.33.21c1-.64,2-1.26,3-1.92s1.92-1.3,2.87-2,1.76-1.26,2.65-1.87,1.64-1.12,2.45-1.69c.35-.2.71-.34,1.07-.52a1.5,1.5,0,0,0-.66-2.86,1.42,1.42,0,0,0-.63.15Zm-10.12,6.75-.2.13.2-.13Zm-9.6,9.32-.23.15.23-.15ZM191.3,143.52l-.21.14.21-.14Zm-8.61,2.17-.12.08.12-.08Z"/><path class="cls-1" d="M248.64,116.78c-.57.34-1.13.7-1.68,1.06-1,.59-1.91,1.19-2.89,1.72s-1.95,1-2.92,1.48a65.29,65.29,0,0,0-5.93,3.63c-1.22.77-2.45,1.52-3.69,2.26s-2.46,1.51-3.67,2.3c-1,.65-2.08,1.3-3.09,2s-2.11,1.43-3.17,2.14q-3,2-6.09,4.05c-2,1.26-4,2.46-6,3.76s-3.72,2.72-5.65,4c-1,.6-2,1.17-3,1.79-1.17.73-2.31,1.49-3.45,2.25a1.46,1.46,0,0,0-.54,1,1.56,1.56,0,0,0,.35,1.08,1.51,1.51,0,0,0,1,.53,1.66,1.66,0,0,0,1.07-.35l2-1.34c.91-.57,1.82-1.12,2.75-1.65,1.09-.63,2.14-1.31,3.16-2s1.9-1.38,2.84-2.07,1.79-1.21,2.7-1.79c1.12-.71,2.27-1.39,3.39-2.1,1.37-.87,2.73-1.77,4.08-2.67,2.36-1.56,4.67-3.18,7-4.72,1.18-.74,2.35-1.49,3.51-2.24s2.51-1.51,3.76-2.27c1.43-.88,2.83-1.79,4.24-2.71a53.63,53.63,0,0,1,5-2.81,47.18,47.18,0,0,0,5-2.88l-.1.06.24-.15.08,0-.07,0c.33-.21.66-.42,1-.62a1.6,1.6,0,0,0,.77-.85,1.53,1.53,0,0,0-.06-1.15,1.57,1.57,0,0,0-.85-.77,1.85,1.85,0,0,0-.54-.09,1.23,1.23,0,0,0-.61.15Zm-47,33.19a1.5,1.5,0,0,1-.23.15l.23-.15Zm47.31-29.86-.14.09.15-.09Z"/><path class="cls-1" d="M264.54,120.41c-.7.35-1.38.73-2.06,1.11s-1.31.69-2,1c-1.38.7-2.79,1.34-4.2,2a43.72,43.72,0,0,0-4,2c-1.47.86-2.89,1.78-4.29,2.75-1.18.82-2.29,1.72-3.43,2.59s-2.3,1.63-3.46,2.43q-2,1.38-4.06,2.78c-1.11.77-2.19,1.57-3.32,2.31-1.69,1.05-3.37,2.11-5,3.21s-3.15,2.19-4.75,3.26c-.94.6-1.91,1.17-2.88,1.72-1.2.67-2.47,1.24-3.71,1.84a1.5,1.5,0,1,0,1.29,2.71c1.29-.63,2.61-1.23,3.87-1.94s2.46-1.43,3.66-2.22,2.26-1.56,3.39-2.35,2.23-1.5,3.36-2.24a3.62,3.62,0,0,0-.32.22c1.35-.87,2.75-1.67,4.07-2.6,1.47-1,3-2.06,4.43-3.09,1.27-.88,2.57-1.73,3.83-2.62s2.53-1.85,3.77-2.81c1.05-.8,2.14-1.54,3.25-2.27s2.17-1.34,3.31-1.91,2.39-1.13,3.59-1.69,2.26-1.07,3.39-1.63,2.33-1.28,3.52-1.88a1.51,1.51,0,0,0,.72-2,1.55,1.55,0,0,0-1.38-.86,1.37,1.37,0,0,0-.62.14Zm-12.28,9.65-.18.12.18-.12Z"/><path class="cls-1" d="M277.64,124.35c-.73.35-1.4.79-2.09,1.2s-1.29.77-2,1.12-1.35.64-2,1-1.34.7-2,1.08a62.43,62.43,0,0,0-7.82,5.59,57.54,57.54,0,0,1-4.66,3.43q-2,1.19-3.93,2.32c-1.4.81-2.79,1.64-4.18,2.46q-4.26,2.49-8.34,5.27c-2.35,1.61-4.63,3.33-6.93,5a1.49,1.49,0,0,0,.85,2.64,1.58,1.58,0,0,0,1.08-.35l5.53-4c1.75-1.26,3.57-2.43,5.38-3.6l-.1.06.13-.08.2-.13-.16.11c1.28-.81,2.58-1.58,3.89-2.34s2.84-1.68,4.27-2.51,2.85-1.63,4.22-2.52,2.68-1.84,3.94-2.85,2.37-1.91,3.58-2.83,2.19-1.59,3.32-2.33c.67-.41,1.34-.82,2-1.2s1.53-.77,2.3-1.14a24.69,24.69,0,0,0,2.32-1.26c.8-.47,1.58-1,2.41-1.38a1.5,1.5,0,0,0-1.28-2.72ZM270,131.94l-.08.05.08-.05Zm-23.42,15.51,0,0,.07,0,0,0Z"/><path class="cls-1" d="M53.55,42.7A2,2,0,0,0,51.86,45c.09.9.19,1.81.27,2.71s.18,1.75.22,2.62c.07,1.61.18,3.21.25,4.82,0,.71,0,1.41-.05,2.12,0,.91,0,1.81,0,2.71,0,.3,0,.6,0,.9,0,.69-.06,1.38-.1,2.07s0,1.61,0,2.42c0-.18,0-.35,0-.52,0,.52,0,1,0,1.57,0,1.17,0,2.35.07,3.52s0,2.3,0,3.45a34.71,34.71,0,0,0,.18,4.89,2,2,0,1,0,4-.58,19.41,19.41,0,0,1-.15-2c0-1.06,0-2.12,0-3.18,0-1.53,0-3-.06-4.58,0-.92,0-1.83-.05-2.75v-.36c0-.69,0-1.37.06-2.06s.06-1.67,0-2.51v0c0-.1,0-.2,0-.29,0,.09,0,.19,0,.29,0-.53,0-1.06,0-1.58,0-1,.07-2,.07-3,0-1.38-.12-2.75-.19-4.12-.06-1.12-.1-2.23-.21-3.35s-.23-2.5-.36-3.76a2,2,0,0,0-2-1.71l-.27,0Zm2.88,21.7c0,.12,0,.25,0,.37,0-.13,0-.25,0-.37Zm.11,7.73v.18a1.09,1.09,0,0,1,0-.18Zm0-11.91Z"/><path class="cls-1" d="M91.86,42.05c0,.93-.11,1.86-.17,2.79s-.12,1.81-.19,2.73-.18,1.86-.19,2.79,0,2.06,0,3.09c0,1.67,0,3.35-.1,5-.11,1.88-.25,3.76-.4,5.64s-.27,3.69-.29,5.53c0,.14,0,.27,0,.4l-.14-.22c-.73-1.31-1.42-2.64-2.13-4q-1.2-2.22-2.48-4.4l.1.17a47.56,47.56,0,0,1-2.68-5.28c-.82-1.9-1.56-3.84-2.36-5.75s-1.43-3.72-2.3-5.51c-.66-1.35-1.31-3.35-3.2-3.08a2.21,2.21,0,0,0-1.68,1.4,5.64,5.64,0,0,0-.31,1.35c-.08.49-.15,1-.21,1.48-.13,1-.1,2.05-.13,3.08s-.1,1.89-.14,2.84c-.08,2-.13,4.1-.28,6.15-.12,1.86-.22,3.73-.26,5.59,0,1.08-.1,2.16-.12,3.24s0,1.93,0,2.9c0,1.93,0,3.85-.12,5.78a2.09,2.09,0,0,0,.4,1.45,2,2,0,0,0,1.36.76,2,2,0,0,0,2.21-1.75c.1-2.13.11-4.26.13-6.39,0-1,0-2,0-2.94s.08-2.11.12-3.17c.05-1.85.17-3.7.27-5.55.1-2,.16-4.11.28-6.17,0-.16,0-.33,0-.5.37.9.75,1.79,1.11,2.7.67,1.66,1.35,3.33,2.09,5a49.72,49.72,0,0,0,2.44,4.55c1.15,2,2.24,4,3.34,6.06.54,1,1,2,1.66,2.91a13,13,0,0,0,1,1.37c.27.34.55.67.79,1a9.48,9.48,0,0,1,.48,1,2.34,2.34,0,0,0,1.31,1.47,2.52,2.52,0,0,0,1.12.15,2.25,2.25,0,0,0,1.38-.8,4,4,0,0,0,.74-2.26c.05-.51.06-1,.08-1.52.09-1.91.1-3.83.2-5.74.23-4,.68-8,.69-12,0-1.12,0-2.24,0-3.36,0-.64,0-1.29,0-1.93.06-.89.13-1.78.2-2.67s.12-1.59.16-2.39.12-1.76.16-2.65a2.09,2.09,0,0,0-.4-1.45,2,2,0,0,0-1.35-.76l-.22,0a2,2,0,0,0-2,1.77Zm-.51,11.07v0Z"/><path class="cls-1" d="M112.66,39a7.6,7.6,0,0,0-3.25,3,24.9,24.9,0,0,0-1.68,3.14,11.66,11.66,0,0,0-.88,3.06,8.49,8.49,0,0,0,2.42,7.05,6.23,6.23,0,0,0,2.32,1.5A6.67,6.67,0,0,0,114,57l1.63-.08a9.26,9.26,0,0,1,1.74.18,12.71,12.71,0,0,1,2.22.93l1.28.74a11.29,11.29,0,0,1,1.72,1.28,12.57,12.57,0,0,1,1.22,1.49c.09.19.17.39.24.58s.08.46.1.69a8.15,8.15,0,0,1-.19,1.39,16,16,0,0,1-1,2.78,8.81,8.81,0,0,1-1,1.38,8.68,8.68,0,0,1-1,.79,10.52,10.52,0,0,1-2,.87,12.22,12.22,0,0,1-1.61.21,12.83,12.83,0,0,1-2.29-.3,20.12,20.12,0,0,1-3.46-1.25,10.81,10.81,0,0,1-1.55-1.22l-.05-.06a2,2,0,0,0-2.8-.36,2,2,0,0,0-.36,2.81,11.93,11.93,0,0,0,1.72,1.61,11,11,0,0,0,2,1.15A21.64,21.64,0,0,0,114.59,74a11.58,11.58,0,0,0,4,.18A11.91,11.91,0,0,0,123,72.51a6.84,6.84,0,0,0,1-.65,13.66,13.66,0,0,0,1.16-1.12,10,10,0,0,0,1.58-2.39,14.08,14.08,0,0,0,.78-2.08,16,16,0,0,0,.59-2.53,7.06,7.06,0,0,0-1.77-5.5,16.16,16.16,0,0,0-1.86-1.84,14.09,14.09,0,0,0-2.09-1.31,13.85,13.85,0,0,0-4.52-2,13.94,13.94,0,0,0-4-.09,6.41,6.41,0,0,1-.88-.11l-.29-.11c-.17-.11-.32-.23-.48-.35a9,9,0,0,1-.71-.92,10.82,10.82,0,0,1-.53-1.21,7.23,7.23,0,0,1-.16-.93,9.55,9.55,0,0,1,.17-1.4,18.15,18.15,0,0,1,1.48-3.34,9.82,9.82,0,0,1,1.1-1.52,6,6,0,0,1,.49-.39,9.53,9.53,0,0,1,1.45-.58,8.68,8.68,0,0,1,1-.19,9,9,0,0,1,1.27.18,9.44,9.44,0,0,1,1.28.5,15,15,0,0,1,2.17,1.88,1.92,1.92,0,0,0,1.51.4,2.07,2.07,0,0,0,1.3-.77,2,2,0,0,0,.39-1.5,2.16,2.16,0,0,0-.77-1.3c-.39-.39-.79-.78-1.2-1.15a9.39,9.39,0,0,0-2.06-1.35,7.88,7.88,0,0,0-1.31-.47,9.22,9.22,0,0,0-2.43-.4h-.08a9.66,9.66,0,0,0-3.9,1Zm9.44,16,.16.09-.16-.09Zm.24,4.9.14.14-.14-.14Zm1.69,4,0,.14,0-.14Zm-2.78,5.09-.15.09.15-.09Zm-.18.11-.15.09.15-.09Zm-.24.14h0l-.26.15.27-.16Zm1.9,3.48.26-.15-.26.15Zm.27-.16h0Zm0,0,.15-.09-.15.09Z"/><path class="cls-1" d="M135.65,43.36a2,2,0,0,0,1.76,2.22,67.08,67.08,0,0,0,7.48.82c1.36,0,2.7.07,4.06,0,1.11,0,2.2-.25,3.31-.33a19.57,19.57,0,0,1,2.85.41c.51.08,1,.21,1.55.27a12.49,12.49,0,0,0,1.73,0c.87,0,1.72.14,2.58.16a2.13,2.13,0,0,0,1.46-.4,2,2,0,0,0,.35-2.81,1.9,1.9,0,0,0-1.35-.76c-.55,0-1.09-.09-1.63-.14a16.83,16.83,0,0,0-1.88,0c-1.62,0-3.19-.56-4.8-.71a12.49,12.49,0,0,0-2.73.16c-.77.09-1.55.16-2.32.18s-1.5,0-2.25,0-1.64,0-2.46-.11c-1.83-.2-3.66-.46-5.49-.72h-.26a2,2,0,0,0-2,1.77Zm23.22,3.43h0Z"/><path class="cls-1" d="M148.19,44.09c-.15,2-.39,3.92-.73,5.87s-.74,3.83-1,5.76-.49,3.63-.65,5.44c-.09.93-.18,1.86-.22,2.79s0,2,0,2.91,0,2,0,3c0,.29,0,.58,0,.87a2.15,2.15,0,0,0,.41,1.45,2,2,0,0,0,1.36.77,2,2,0,0,0,1.44-.41,1.94,1.94,0,0,0,.77-1.35c0-.58,0-1.17,0-1.75,0-1.24,0-2.47,0-3.7,0-.67,0-1.35,0-2,.06-.91.14-1.81.23-2.72.18-1.77.4-3.53.67-5.29s.67-3.65,1-5.47.56-3.81.71-5.73a2,2,0,0,0-1.76-2.22h-.21a2,2,0,0,0-2,1.77ZM149.54,69c0,.14,0,.29,0,.43,0-.14,0-.29,0-.43Z"/><path class="cls-1" d="M177.42,45a5.36,5.36,0,0,0-.69.06l-.65.13-1.29.23a4.57,4.57,0,0,0-1.84.72,6.9,6.9,0,0,0-1.33,1.26,9.35,9.35,0,0,0-.83,1.31l.15-.27-.24.42,0,0v0c-.44.77-.87,1.55-1.24,2.36s-.76,1.71-1.12,2.57-.69,1.85-1,2.79-.58,1.71-.82,2.57c-1.15,4-1.93,8.08-2.77,12.15a1.91,1.91,0,0,0,.4,1.45,2,2,0,0,0,1.35.76,2.05,2.05,0,0,0,1.46-.4,2.13,2.13,0,0,0,.76-1.35c.34-1.63.67-3.26,1-4.89s.68-3.07,1.05-4.59c.53-2,1.17-4,1.87-5.93a35.83,35.83,0,0,1,2.5-5.54l0-.06a8.46,8.46,0,0,1,.86-1.2l.16-.14.1,0c.36-.08.74-.14,1.11-.2s.66-.13,1-.18c.13.31.24.64.35,1a34,34,0,0,1,.88,4.47c.21,1.73.28,3.46.44,5.19s.27,3.68.43,5.53c.14,1.61.28,3.21.32,4.82,0,.4,0,.81,0,1.21,0,.24,0,.48,0,.72a5.65,5.65,0,0,0,0,1.3,2,2,0,0,0,2.27,1.69,2,2,0,0,0,1.69-2.23c0-.28,0-.56,0-.84,0-.52,0-1,0-1.57,0-2-.18-3.94-.35-5.91-.09-1-.13-2.07-.22-3.1S183,59.1,183,58c-.16-1.89-.23-3.78-.57-5.66-.17-.92-.35-1.83-.59-2.73a18.2,18.2,0,0,0-.53-1.78,7.22,7.22,0,0,0-.79-1.57,3.34,3.34,0,0,0-.77-.73,3.73,3.73,0,0,0-1.48-.58l-.48,0Zm.35,4L178,49l-.25-.07Zm-.31,0v0Zm-3.05,1.34-.15.27.15-.27Zm-3.72-1.47v0l.09-.15-.1.17Z"/><path class="cls-1" d="M167.79,56.41a2,2,0,0,0,0,3.7c.93.29,1.87.58,2.8.89s1.82.62,2.76.85a12.75,12.75,0,0,0,2.38.33c.91,0,1.81-.12,2.71-.17l.31,0a2,2,0,0,0,.46-4,15.22,15.22,0,0,0-3.23.12,12.24,12.24,0,0,1-1.9-.27c-1.61-.47-3.19-1-4.79-1.53a2.93,2.93,0,0,0-.8-.14,2,2,0,0,0-.74.15Z"/><path class="cls-1" d="M205.89,48.13a14.28,14.28,0,0,0-3.23.61,9,9,0,0,0-3.15,1.91,17.1,17.1,0,0,0-3.82,5.66,24.52,24.52,0,0,0-2.19,5.9,12.4,12.4,0,0,0-.22,3.33,22,22,0,0,0,.5,3.12c.54,2.43,1.54,5.07,3.64,6.58a12.71,12.71,0,0,0,2.93,1.62,22.37,22.37,0,0,0,3.23.89,13.53,13.53,0,0,0,4.95.24,15,15,0,0,0,5-1.75,2.15,2.15,0,0,0,1.07-1.09,2,2,0,0,0-1.1-2.61,1.9,1.9,0,0,0-1.53,0,15,15,0,0,1-2.73,1.19,14,14,0,0,1-2.33.37,19,19,0,0,1-3.75-.53,15,15,0,0,1-2.67-1.06,10,10,0,0,1-1.11-.83,6.28,6.28,0,0,1-.59-.77,13.77,13.77,0,0,1-1-2.28,24.19,24.19,0,0,1-.63-3.68c0-.43,0-.85.06-1.28a10,10,0,0,1,.27-1.43A26.83,26.83,0,0,1,198.84,59c.48-1,1-2.06,1.52-3a14,14,0,0,1,1.43-2,12.69,12.69,0,0,1,1.41-1.13,7.53,7.53,0,0,1,.88-.38,14.32,14.32,0,0,1,2.6-.39,12,12,0,0,1,2.24.26,11.08,11.08,0,0,1,1.51.61,12,12,0,0,1,1.8,1.37,20,20,0,0,1,1.92,2.55,2,2,0,0,0,3.17-2.45,18.78,18.78,0,0,0-1.9-2.53,12.41,12.41,0,0,0-2.6-2.14,10.05,10.05,0,0,0-1.69-.88,11.23,11.23,0,0,0-2-.56,12,12,0,0,0-2.32-.21q-.48,0-1,0Z"/><path class="cls-1" d="M207.55,62.11a2.22,2.22,0,0,0-1.45.41,2,2,0,0,0-.36,2.8,1.92,1.92,0,0,0,1.36.77h2.5a21.37,21.37,0,0,1,2.4.06,12.74,12.74,0,0,1-.22,1.26c-.14.68-.25,1.37-.35,2.06-.19,1.33-.28,2.68-.43,4s-.25,2.9-.47,4.33c-.09.63-.16,1.25-.25,1.87a12.9,12.9,0,0,0-.27,2.54,2,2,0,0,0,3.57.93A1.93,1.93,0,0,0,214,82c.11-.92.29-1.83.4-2.76s.27-1.88.35-2.83.21-2,.31-3.06.16-1.83.28-2.75.29-1.91.47-2.87a9.09,9.09,0,0,0,.22-1.37,4.82,4.82,0,0,0-.27-2.1,3.42,3.42,0,0,0-1.09-1.35,4.52,4.52,0,0,0-2.1-.73,9.05,9.05,0,0,0-1.38-.06h-3.61ZM212,65.68a.21.21,0,0,1,0,.06h0l0-.06Zm0,.17,0,0h0l0,0Zm.55.43.12.07-.12-.07Z"/><path class="cls-1" d="M228,51.5c-.75,2.12-1.48,4.23-2.06,6.4l.06-.23-.09.38a.57.57,0,0,0,0,.14v0l0,.17c0-.08,0-.15,0-.22h0c-.8,3.11-1.24,6.3-1.84,9.45-.3,1.55-.62,3.1-.88,4.66a20,20,0,0,0-.44,5.06A2,2,0,0,0,225,79a2,2,0,0,0,1.69-2.24,52.6,52.6,0,0,1,1.3-8.54c.58-3,1-6.13,1.75-9.14a.65.65,0,0,1,0,.13v0h0v0l0,.13a1.6,1.6,0,0,1,.05-.21l0-.13v0a1,1,0,0,1,0-.17l0,.08,0-.08.08-.32c0,.1-.05.2-.07.29.52-2,1.23-3.87,1.9-5.79a2,2,0,0,0-1.84-2.74A2,2,0,0,0,228,51.5Zm1.72,7.63v0l.05-.17,0,.14Zm0-.14h0l0-.07v0l0,.09Zm0-.06V59l0-.1v0Zm0-.11,0,.07,0-.1v0Zm-4-.31a1.33,1.33,0,0,1,.05-.19,1.33,1.33,0,0,0-.05.19Z"/><path class="cls-1" d="M229.12,49.78a2,2,0,0,0,.58,4,44.3,44.3,0,0,1,5.25-.66,11.07,11.07,0,0,1,1.91.22,6.5,6.5,0,0,1,1,.41,8.12,8.12,0,0,1,.75.56,8.59,8.59,0,0,1,.59.76l.18.4a4.52,4.52,0,0,1,.08.63,9.89,9.89,0,0,1-.2,1.52,10.57,10.57,0,0,1-.58,1.44,7.94,7.94,0,0,1-.58.72,14.66,14.66,0,0,1-2,1.57,18.27,18.27,0,0,1-3,1.2c-1,.32-2,.66-3,1l-.62.17h0c-.44.12-.88.23-1.32.38a3.14,3.14,0,0,0-1.15.59,2,2,0,0,0-.76,1.88A2.05,2.05,0,0,0,227.52,68a2.83,2.83,0,0,0,2.08-.12l.62-.19a31.75,31.75,0,0,1,6.9-1.32,9.27,9.27,0,0,1,1.49.13c.23.08.45.17.67.27a6.37,6.37,0,0,1,.61.45c.09.11.18.22.26.34a12.33,12.33,0,0,1,.71,1.73,8.37,8.37,0,0,1,.17,1.1c0,.7-.13,1.39-.22,2.09a19.3,19.3,0,0,1-.4,2.12c-.2.71-.42,1.41-.59,2.13l-.39,1.6c-.08.34-.17.68-.26,1a2.12,2.12,0,0,0,0,1.53A1.94,1.94,0,0,0,240.27,82a2,2,0,0,0,1.53,0,1.91,1.91,0,0,0,1.07-1.09c.31-1.11.58-2.24.85-3.35s.57-2,.8-3a24.62,24.62,0,0,0,.42-2.71,9.24,9.24,0,0,0-.16-3.23,10,10,0,0,0-1.68-3.74A6.72,6.72,0,0,0,240.57,63l-.06,0c.28-.26.56-.54.82-.82A7.85,7.85,0,0,0,243,59a9.56,9.56,0,0,0,.37-4.08,6.05,6.05,0,0,0-1.26-2.73,7.57,7.57,0,0,0-2.55-2.12,9.24,9.24,0,0,0-4.16-1h-.21a36.75,36.75,0,0,0-6.09.68Z"/><path class="cls-1" d="M265.12,58a8.08,8.08,0,0,0-2.5,1.14,9.26,9.26,0,0,0-1.48,1.32,17.48,17.48,0,0,0-1.86,2.42c-.64,1-1.2,2-1.75,3s-1,1.82-1.45,2.75c-.9,1.8-1.72,3.64-2.61,5.44-.43.88-.89,1.75-1.32,2.64s-.91,1.89-1.37,2.83a2,2,0,0,0,2.64,2.59A2,2,0,0,0,254.49,81c.57-1.15,1.1-2.32,1.68-3.46s1.25-2.48,1.85-3.73,1.12-2.4,1.7-3.59,1.08-2.1,1.65-3.15A23.13,23.13,0,0,1,264.18,63a8.31,8.31,0,0,1,1-.83,7.18,7.18,0,0,1,.87-.35,5.13,5.13,0,0,1,.66-.13l0,.05a5.87,5.87,0,0,1,.26.65,17.32,17.32,0,0,1,.22,2.6c0,1.11,0,2.21,0,3.32s0,2.46,0,3.68c0,1,0,2-.09,3-.1,1.15-.24,2.29-.35,3.44s-.19,2.1-.33,3.15c-.07.53-.11,1.07-.17,1.6a7.13,7.13,0,0,0-.08,2.56A2.1,2.1,0,0,0,267,87a2,2,0,0,0,2.8-.37,1.94,1.94,0,0,0,.39-1.5,2,2,0,0,1,0-.24c0-.59.13-1.18.2-1.77s.12-1.12.19-1.67c.14-1.13.22-2.26.33-3.39s.26-2.42.34-3.64,0-2.45,0-3.68c0-1.84,0-3.68,0-5.52,0-.59,0-1.18-.07-1.77l-.06-.77c0-.14,0-.28,0-.42a6.76,6.76,0,0,0-.33-1.38,4.5,4.5,0,0,0-2.24-2.77,3.77,3.77,0,0,0-1.73-.39,5.84,5.84,0,0,0-1.65.25Zm1.47,3.72h0Zm.34.09.07,0-.07,0Z"/><path class="cls-1" d="M261.57,69l-2.27.08a1.91,1.91,0,0,0-1.3.76,2,2,0,0,0,.37,2.81,2.19,2.19,0,0,0,1.51.39L262,73a17.68,17.68,0,0,1,2.3.18c.86.14,1.71.29,2.58.41a2,2,0,0,0,.46-4c-1.22-.17-2.42-.42-3.65-.55a10,10,0,0,0-1.1,0l-1,0Z"/><path class="cls-1" d="M286.78,64.6A23.15,23.15,0,0,0,285,67c-.59.85-1.13,1.72-1.64,2.61-1.1,1.93-2.05,3.91-3,5.93-.83,1.83-1.74,3.63-2.51,5.49s-1.64,4-2.47,6a2,2,0,1,0,3.71,1.5c1.21-2.87,2.32-5.78,3.65-8.6s2.42-5.41,3.86-8c.11-.2.23-.39.35-.59a27.83,27.83,0,0,0-.16,2.89c0,1.09.08,2.17.19,3.26.1.9.17,1.8.26,2.7a5.88,5.88,0,0,0,.48,1.94,3,3,0,0,0,.71.94,2.33,2.33,0,0,0,.7.44,2.87,2.87,0,0,0,.86.18,1.63,1.63,0,0,0,.73-.06,6.18,6.18,0,0,0,.73-.23,6.86,6.86,0,0,0,1.81-1.22l1.12-1c.75-.63,1.5-1.26,2.27-1.87s1.53-1.17,2.28-1.77l.84-.68c-.13.45-.26.91-.4,1.36q-.72,2.46-1.3,5c-.34,1.49-.66,3-1,4.45-.22.82-.46,1.64-.71,2.45a25.85,25.85,0,0,0-.88,3.09A2,2,0,0,0,298.71,95a2.06,2.06,0,0,0,.76-1.35c0-.13,0-.26.08-.38.21-.74.48-1.46.7-2.19.34-1.12.64-2.25.91-3.38.43-1.75.79-3.51,1.22-5.27.24-.91.49-1.82.76-2.73s.53-2,.85-3,.63-2,1-2.92l.52-1.34c.1-.26.21-.53.31-.8a4.42,4.42,0,0,0,.32-1.13,2.09,2.09,0,0,0-1.24-2.08h0a2,2,0,0,0-2,.27,4.56,4.56,0,0,0-.79.85c-.14.16-.29.32-.44.47-.89.84-1.83,1.62-2.78,2.4s-2.08,1.76-3.17,2.58-2,1.52-2.93,2.33l-1.65,1.42c0-.47-.08-.94-.12-1.41-.09-1-.18-1.93-.22-2.9a52.87,52.87,0,0,1,.47-5.47,28.25,28.25,0,0,0,.2-2.91,4.42,4.42,0,0,0-.24-1.69,2.13,2.13,0,0,0-1.78-1.29h-.16a3.55,3.55,0,0,0-2.52,1.56Z"/><path class="cls-1" d="M25.1,39.54l-7.41,2.11A29.56,29.56,0,0,0,13.94,43c-1.14.52-2.19,1.22-3.29,1.83a1.75,1.75,0,0,0-.57,2.4,1.77,1.77,0,0,0,2.4.58c.64-.35,1.25-.74,1.88-1.1s1-.52,1.47-.75a47,47,0,0,1,4.84-1.55l5.4-1.54a1.74,1.74,0,0,0-.49-3.42,2,2,0,0,0-.48.06Z"/><path class="cls-1" d="M33.84,47.37,31,48.14c-.92.26-1.82.56-2.72.89-1.82.65-3.6,1.43-5.35,2.25s-3.3,1.6-4.89,2.51a50.14,50.14,0,0,0-4.58,2.86A13.81,13.81,0,0,0,11.83,58a1.76,1.76,0,0,0,.05,2.47,1.78,1.78,0,0,0,2.48,0l.7-.64A42.74,42.74,0,0,1,20,56.7c1.85-1.05,3.76-2,5.69-2.86,1.38-.6,2.77-1.16,4.19-1.67,1.62-.59,3.31-1,5-1.43a1.75,1.75,0,0,0-.5-3.43,2,2,0,0,0-.47.06Zm-8.23,6.49-.38.16.38-.16Z"/><path class="cls-1" d="M28.14,63.62a35.66,35.66,0,0,0-4.49.63A12.13,12.13,0,0,0,21,65.38c-.6.3-1.19.62-1.78.94-1.18.65-2.37,1.28-3.57,1.9s-2.42,1.2-3.55,1.94a1.79,1.79,0,0,0-.58,2.41,1.77,1.77,0,0,0,2.41.58,27.28,27.28,0,0,1,2.42-1.36c.82-.44,1.65-.85,2.47-1.28,1.66-.87,3.28-1.82,5-2.63a9.26,9.26,0,0,1,1.72-.45c.88-.12,1.76-.22,2.65-.31a1.89,1.89,0,0,0,1.24-.55,1.76,1.76,0,0,0-1.18-3ZM25.3,67.46h0Z"/><path class="cls-1" d="M31.91,77.27q-5.32,2.13-10.78,3.94c-1.73.58-3.46,1.19-5.13,1.93a21.8,21.8,0,0,0-4.62,2.65,19.46,19.46,0,0,0-2.62,2.34,1.78,1.78,0,0,0,.06,2.48,1.76,1.76,0,0,0,2.48-.07A15.3,15.3,0,0,1,13,88.93a19.09,19.09,0,0,1,2.33-1.58c.75-.42,1.53-.79,2.31-1.14,2.44-1,4.94-1.79,7.44-2.64,1.27-.43,2.51-.94,3.77-1.4s2.69-1,4-1.54a1.87,1.87,0,0,0,1-.84,1.73,1.73,0,0,0-.69-2.37,1.83,1.83,0,0,0-.88-.23,1.12,1.12,0,0,0-.45.08Z"/><path class="cls-1" d="M326.57,61.87a1.79,1.79,0,0,0,1.77,1.73c1,0,1.91.13,2.86.23,1.43.19,2.86.39,4.28.65,1.67.31,3.33.7,5,1.13a1.75,1.75,0,1,0,.86-3.4c-2.07-.53-4.17-1-6.28-1.36-1-.17-2-.29-3-.41-1.24-.16-2.47-.3-3.71-.35h-.05a1.76,1.76,0,0,0-1.68,1.78Zm4.28,1.92.13,0-.13,0Z"/><path class="cls-1" d="M325.47,72.12a1.84,1.84,0,0,0-.78,1.07A1.76,1.76,0,0,0,326,75.32l4,.67c1.22.21,2.47.35,3.69.6s2.55.56,3.82.89,2.69.79,4,1.16a1.75,1.75,0,1,0,.86-3.39c-1.33-.38-2.66-.78-4-1.15s-2.47-.62-3.71-.87-2.52-.42-3.79-.62-2.69-.46-4-.69a3.42,3.42,0,0,0-.45,0,1.76,1.76,0,0,0-.9.24Z"/><path class="cls-1" d="M317.28,46.17a1.81,1.81,0,0,0-.48,1.23,1.78,1.78,0,0,0,.55,1.25,1.65,1.65,0,0,0,1,.45h0l.26,0h.12c.87.1,1.73.15,2.6.24A81,81,0,0,1,330.43,51c1.59.39,3.18.77,4.74,1.25s3.27,1.09,4.89,1.69a1.67,1.67,0,0,0,1.34-.21,1.73,1.73,0,0,0,.79-1.06,1.76,1.76,0,0,0-.21-1.34,1.85,1.85,0,0,0-1.06-.78c-1.8-.67-3.61-1.3-5.45-1.86-1.65-.51-3.35-.89-5-1.29s-3.54-.72-5.32-1a50.93,50.93,0,0,0-5.36-.66l-.39,0-.84-.1h-.09a1.8,1.8,0,0,0-1.16.54Zm1.8-.47.16,0-.16,0Z"/><path class="cls-1" d="M331.24,96a1.76,1.76,0,0,0,1.26,2.12c2,.46,3.88,1.16,5.81,1.77a1.75,1.75,0,1,0,.86-3.4c-1.93-.61-3.83-1.3-5.81-1.76a1.84,1.84,0,0,0-.41,0A1.76,1.76,0,0,0,331.24,96Z"/><path class="cls-1" d="M308.45,108a1.78,1.78,0,0,0,.55,1.25,1.84,1.84,0,0,0,1.23.48l.81.07.29,0c1.09.15,2.18.39,3.25.64s2.38.55,3.57.81a44,44,0,0,1,6.52,2.14c1.67.68,3.32,1.42,5,2.09.81.33,1.62.69,2.43,1s1.78.68,2.67,1l0,0c.56.22,1.13.44,1.7.63.76.25,1.54.45,2.31.65a1.75,1.75,0,1,0,.86-3.39,33.91,33.91,0,0,1-3.26-1c-.85-.34-1.71-.66-2.57-1-3.41-1.41-6.78-2.92-10.25-4.19-.79-.29-1.57-.57-2.37-.81s-1.69-.47-2.55-.67c-1.7-.4-3.4-.78-5.12-1.13-.57-.12-1.15-.21-1.73-.28l-.26,0-.14,0h0q-.6-.07-1.2-.12h-.08a1.77,1.77,0,0,0-1.65,1.77Zm2.19,1.75.11,0-.11,0Zm23.71,7.65.13.06-.13-.06Zm-22.87-11,.26,0h.05l-.41-.05Z"/></g></g></svg>