<svg xmlns="http://www.w3.org/2000/svg" viewBox="0 0 283.92 285.19"><defs><style>.cls-1{fill:#fff;}</style></defs><g id="Layer_2" data-name="Layer 2"><g id="Layer_1-2" data-name="Layer 1"><path class="cls-1" d="M54.85,17l-.16-.24c-.59-.86-1.21-1.76-1.76-2.67-.28-.41-.58-1-.81-1.41s-.47-.85-.72-1.27A13.93,13.93,0,0,0,50,9.89a9.38,9.38,0,0,0-1.26-1c-.49-.29-1-.56-1.49-.82L45.16,7A19.74,19.74,0,0,0,43,6.14a10.51,10.51,0,0,1-1.42-.52A22.81,22.81,0,0,1,39,4.22l-.11-.06c-.35-.22-.7-.45-1.06-.66a16.27,16.27,0,0,0-2-.65l-.29-.08A4.19,4.19,0,0,1,33,.63,3.41,3.41,0,0,1,32.79,0a42.21,42.21,0,0,0-5.44,1.19c-.87.35-1.71.74-2.56,1.12-1.06.48-2.15,1-3.25,1.4l-1.14.4c-.6.22-1.2.43-1.8.67A15.46,15.46,0,0,0,16.4,6,24.75,24.75,0,0,0,13,8.88a53.62,53.62,0,0,0-3.77,5.31l-.94,1.46c-.81,1.23-1.65,2.51-2.41,3.9-.59,1.08-1.11,2.2-1.59,3.33a21.08,21.08,0,0,0-1.18,3.63,48.7,48.7,0,0,0-.88,9.09A20.38,20.38,0,0,0,3,39.31a40,40,0,0,0,3.44,6.62,25.17,25.17,0,0,0,3.43,4,13.54,13.54,0,0,0,1.87,1.42q.76.46,1.56.9a42.27,42.27,0,0,0,5.66,2l1,.3c1.27.37,2.58.75,3.89,1.06a43.56,43.56,0,0,0,7.56.69l-.05.06H32.7a50.42,50.42,0,0,0,8.75-2A23.5,23.5,0,0,0,45,52.63a40.78,40.78,0,0,0,5-4.28,28.88,28.88,0,0,0,3.16-4.88c.41-.88.81-1.78,1.2-2.67.54-1.23,1.1-2.49,1.71-3.72a29,29,0,0,0,2.15-5.62,21.58,21.58,0,0,0,.24-3.21,38.87,38.87,0,0,0-1.63-7.06A24.57,24.57,0,0,0,54.85,17Z"/><path class="cls-1" d="M54.69,170.93c0-.87-.11-1.74-.11-2.61l-.07-2.07c-.1-3.07-.21-6.34-.19-9.38s0-6.62-.17-10.26a99.63,99.63,0,0,1-.64-11.32c.06-3.7.27-7.36.5-10.77a87.23,87.23,0,0,0,.2-10.6c-.13-1.9-.13-3.59-.13-5.17v-4c0-.42-.12-.83-.19-1.25s-.2-1.15-.26-1.73a28.53,28.53,0,0,1-.21-2.87H52.2c-1.64.15-3.35.36-5,.56l-1.83.22c-2.86.34-5.73.54-8.54.6H35.59c-1.24,0-2.47-.06-3.7-.06-.87-.06-1.75-.06-2.62-.06h-2c-1.86,0-3.57,0-5.23.12-3.53.3-6.24.57-8.77.9l-2,.27a76.39,76.39,0,0,1-8.13.68,3.92,3.92,0,0,1-2.68-1.35,2.73,2.73,0,0,1-.21-.3v1.7c.19,2.86.36,5.23.7,7.67.22,1.68.47,3.34.73,5,.1.67.22,1.34.33,2,.17,1,.33,2,.49,3.09s.28,2.24.41,3.36c.06.56.12,1.12.19,1.68a50.62,50.62,0,0,1,.42,6.13c.09,3.56,0,7.15-.2,10.83,0,.56-.08,1.12-.08,1.68-.07,1.22-.13,2.49-.13,3.73,0,1.44,0,3.1.11,4.75v.59c.21,2.77.44,5.62.44,8.44,0,3.08-.07,6.13-.17,9s-.18,5.57-.29,8.36c-.08,1.69,0,3.37,0,5,0,1.08,0,2.15,0,3.23-.06,8.07-.56,16.2-1,23.37l-.69,10.8L1.41,223c-.19,2.79-.36,5.67-.36,8.51v5.65c0,.83,0,1.57.08,2.48s.1,1.81.1,2.72c.05,3.5-.09,6.93-.33,11-.21,3.65-.46,7.33-.71,11-.12,1.74-.19,3.54-.19,5.37v1.62c0,1.11,0,2.26.1,3.39.16,2.56.26,4.85.31,7a8.52,8.52,0,0,0,.23,1l0,.13V283H.8a23.14,23.14,0,0,0,3,.2H5c2.09-.18,4.09-.35,6.09-.42l2.32,0c.87,0,1.75-.06,2.62-.06a34.55,34.55,0,0,0,3.51-.53c.62-.12,1.25-.27,1.87-.41l1.67-.37a47.46,47.46,0,0,1,7.13-.81,16.17,16.17,0,0,0,2.93-.5l1.41-.41c.65-.19,1.32-.4,1.94-.55s1.24-.3,1.87-.43a18.77,18.77,0,0,1,2.48-.25h3c.67-.09,1.33-.21,2-.33l.75-.13h.12l-.06-1.11-.06-1.1a69.91,69.91,0,0,1-.25-9.92c.21-3.25.65-6.4,1-9.05l.2-1.33c.17-1.14.33-2.27.53-3.41l.22-1.27c.19-1.13.39-2.25.57-3.38.47-3,.86-6.14,1.17-9.39.65-7,1.16-14.18,1.65-21.11l.16-2.31.09-1.36c.09-1.41.19-2.87.35-4.3.12-1,.25-2.11.38-3.11l.33-2.67c.22-1.87.44-3.75.65-5.62.05-.53.11-1,.17-1.58.16-1.35.32-2.75.41-4.12.16-2.38.23-4.81.31-7.15,0-1.52.09-3,.16-4.52v-.4c.11-1.79.16-3.64.11-5.45C54.79,173.17,54.74,172.05,54.69,170.93Z"/><path class="cls-1" d="M283.65,178.81c-.15-1.95-.29-3.87-.4-5.87-.22-3.55-.56-6.89-1-10.2-.22-1.61-.36-3.26-.49-4.85-.16-1.94-.33-3.94-.65-5.94-.27-1.73-.51-3.45-.75-5.18l-.06-.44a48.62,48.62,0,0,0-1-5.62c-.22-.87-.52-1.85-.75-2.57s-.45-1.44-.65-2.16l-.07-.26c-.36-1.28-.72-2.61-1.13-3.9-.67-1.75-1.44-3.43-2.3-5.28a55.39,55.39,0,0,0-3-5.71l-1.84-2.73a33.51,33.51,0,0,0-4.29-5,41.1,41.1,0,0,0-6.23-4.5l-.24-.15c-1-.58-2-1.18-3-1.82l-1-.68c-.73-.48-1.48-1-2.24-1.42s-1.26-.56-1.9-.83l-.56-.24c-1.5-.64-2.87-1.28-4.18-1.95a28.8,28.8,0,0,1-2.71-1.65c-.69-.45-1.4-.93-2.13-1.34-1-.46-2-.9-3-1.33s-2-.87-3-1.33-2.28-1-3.45-1.46-2.15-.63-3.25-.87c-2.67-.5-5.53-.88-9.26-1.25-2.7-.26-5-.39-7.13-.39h-1.83a55.5,55.5,0,0,0-8,1.37,37.41,37.41,0,0,1-3.92.83,28.43,28.43,0,0,0-3.76.86,32.72,32.72,0,0,0-3.14,1.37c-.54.25-1.08.5-1.62.73a35,35,0,0,0-5,2.72l-.68.46-1.26.86c-.8.55-1.59,1.1-2.4,1.64V103l-.22.15q-2.85,1.9-5.51,4.08l-.5.41c-.64.53-1.3,1.07-1.89,1.66l-.21.22c-.57.57-1.13,1.15-1.69,1.74-.83,1-1.48,1.85-2.06,2.68l-.31.45a23.77,23.77,0,0,0-1.55,2.38c-.36.77-.76,1.51-1.19,2.24a14.65,14.65,0,0,1-1.82,2.26l.06-.06-.68.73-.34.35c-.22.26-.44.52-.68.76a4.36,4.36,0,0,1-2.15,1.16,4.53,4.53,0,0,1-.74.07A4,4,0,0,1,156,123a4.19,4.19,0,0,1-.94-3,5.11,5.11,0,0,1,.07-.93,5.35,5.35,0,0,0,.07-1.06c.05-.6,0-1.21,0-1.82-.05-1.36-.05-2.82-.05-4v-3.54c-.13-1.38-.3-2.75-.47-4.12-.15-1.18-.29-2.35-.41-3.53-.1-.89-.21-1.77-.31-2.67s-.21-1.8-.29-2.69a27.44,27.44,0,0,1-3,.29c-1.11.07-2.24.07-3.34.07h-2.76l-2,.09c-1.36.07-2.72.17-4.09.17h-2.19c-1,0-1.92-.08-2.92,0s-2,.19-3,.3c-1.37.14-2.78.3-4.18.38-.94.06-1.94.06-2.94.06h-4.41c-1.79.1-3.65.2-5.48.2H113c-.76,0-1.44,0-2.3-.06s-1.73-.06-2.6-.06h-.94l-1,.09-1.62.14h-.63c-.38,0-.77.08-1.16.08-.11,1.73-.23,3.44-.3,5.19s-.08,3.63,0,5.91c.1,1.84.1,3.76.1,5.76v5.68c.07,4.24.13,8,.07,11.73s.11,7.65.25,11,.14,7,0,11.67v.44c-.1,3.62-.21,7.34,0,11,.23,4.56.23,8.06.23,11.33-.06,3.88-.24,7.82-.4,11.3v5.16c0,1.8,0,3.81-.06,5.62s-.13,3.62-.21,5.44c-.1,2.08-.24,4.24-.24,6.37-.07,3.64.06,7.35.18,10.93v3.39c.12,3.05.23,6.21.28,9.31v3.59c0,2.32,0,4.71.12,7.07.13,1.5.29,3.09.52,5,.14,1.16.23,2.35.32,3.5l.12,1.48.08,1c.14,1.56.28,3.17.36,4.76.1.85.06,1.55.1,2.55s.07,1.95.13,3c0,.89.15,1.77.15,2.65,0,.61.11,1.21.16,1.81.2,2.12.4,4.32.4,6.49,0,1.36-.08,2.62-.08,3.85v.93l-.06,1.54a78.68,78.68,0,0,0,9.21.45c1.17.05,2.35.05,3.52.05,1.68.05,3.34.13,5,.22,2.37.12,4.82.24,7.22.24h2.31l1.62-.11,2.83-.2,2.45-.11,1.23-.05c1.13-.11,2.31-.27,3.37-.42s2.12-.3,3.18-.41c1.65-.15,3-.25,4.25-.25a1.93,1.93,0,0,1,.34,0c-.12-1.65-.3-3.41-.3-5.15-.08-2.68,0-5.31.12-8,0-1.06.09-2.06.14-3.06.13-2.81.27-5.72.27-8.59,0-1.47-.08-3-.08-4.42l0-1.59v-6.08c0-3.73,0-7.56-.23-11.38-.18-3.66-.2-7.56-.07-11.93.1-3.4.25-7.41.57-11.32.16-2,.4-4,.63-6,.19-1.73.39-3.46.55-5.19.37-4.08.67-7.82.92-11.43l.17-2.51c.2-3,.41-6.14.77-9.19a86.42,86.42,0,0,1,2.51-12c.18-.65.34-1.33.5-2,.25-1,.51-2.08.81-3.08a34.58,34.58,0,0,1,2.06-5.28,52.67,52.67,0,0,1,3.06-5.62,36.75,36.75,0,0,1,3.87-4.92,32.84,32.84,0,0,1,9.78-7.24,48,48,0,0,1,4.9-2.08,44.78,44.78,0,0,1,6.21-1.86,39.77,39.77,0,0,1,6.62-.71h2.16a20,20,0,0,1,3.37.23,27.1,27.1,0,0,1,6.76,2,35.49,35.49,0,0,1,6,3.18,26.92,26.92,0,0,1,4.72,4.33l.29.33,1.38,1.58.56.63c.32.39.68.78,1,1.2a26.16,26.16,0,0,1,3.2,5.39c.34.8.68,1.58,1,2.4s.65,1.63,1,2.44l.27.63c.28.63.55,1.26.79,1.9a37.05,37.05,0,0,1,1.11,3.58,42.76,42.76,0,0,1,.84,4.49l.12.75c.08.54.17,1.08.26,1.62.19,1.17.38,2.34.53,3.52a63.34,63.34,0,0,1,.39,6.75v4.24c0,2.18,0,4.42.08,6.63q.54,7.86,1.43,15.24c.32,2.73.52,5.61.61,8.81V216c0,1.81.09,3.68.18,5.53.21,4,.31,7.07.21,10-.1,2.44-.28,4.91-.46,7.31l-.16,2c-.19,2.68-.35,5.37-.52,8.06l-.06,1a80.55,80.55,0,0,0-.16,8.65c.2,2.74.34,5.53.48,8.22l.15,3c.08,1.15.19,2.59.39,3.94l.19,1.3c.15,1.06.31,2.12.45,3.18.09.64.21,1.32.32,2s.22,1.34.31,2a12,12,0,0,1,.15,1.48v.41h2.64c1.05,0,2.14.1,3.2.24l1.86.29c.73.12,1.46.23,2.2.33a22,22,0,0,0,2.69.17h.68c1-.1,1.92-.24,2.92-.39l1.35-.19c1.6-.22,3.19-.3,4.83-.37l.82-.06c1.54-.12,3.14-.28,4.71-.28h2.06c1.19,0,2.51,0,3.46.08s1.95.11,2.95.19h.23c.6,0,1.22.09,1.83.09h.76c.71,0,1.41-.09,2.12-.09h2c.25-1.7.41-3.44.57-5.12v-.42l.24-2.48c.19-1.91.37-3.81.54-5.72.07-.73.12-1.47.18-2.21.08-1.19.17-2.39.3-3.58.18-1.69.42-3.37.66-5l.14-1a47,47,0,0,0,.33-4.74v-.71c.08-1.91.15-3.82.25-5.73l.38-7.43q.39-7.42.73-14.85l.26-5.58c.27-6,.56-12.25.89-18.37.09-1.71.19-3.41.29-5.12q.18-2.88.33-5.76a97.54,97.54,0,0,0-.11-10.54Z"/></g></g></svg>