<svg xmlns="http://www.w3.org/2000/svg" viewBox="0 0 240.9 263.22"><defs><style>.cls-1,.cls-2{fill:#48578c;}.cls-2{opacity:0.67;}.cls-2,.cls-3{isolation:isolate;}.cls-3{fill:#d3d3d3;opacity:0.88;}.cls-4{fill:#9e9e9c;}.cls-5{fill:#2c2c2c;}</style></defs><g id="Layer_2" data-name="Layer 2"><g id="Draw_Layer" data-name="Draw Layer"><path class="cls-1" d="M.25,3.21a14.66,14.66,0,0,0-.2,3.91c0,.55.07,1.09.09,1.62s0,1.11,0,1.66c0,1,0,1.93,0,2.9s.09,2.16.08,3.25,0,2.06-.06,3.09,0,1.88,0,2.82c0,1.9,0,3.8-.05,5.71s-.1,3.64-.06,5.47c0,1,0,1.94,0,2.92s-.06,2.17,0,3.25.21,1.89.29,2.83.15,2.12.15,3.18,0,2.08,0,3.12.06,2.2.05,3.3a53.17,53.17,0,0,0,.44,7.46c.11.94.21,1.88.24,2.84,0,1.17,0,2.33,0,3.5,0,2.35.06,4.68.24,7a27.76,27.76,0,0,1,0,3.16c-.06,1.22-.1,2.44-.13,3.67-.07,2.24-.13,4.5-.12,6.75s0,4.43-.08,6.65S1.17,97.71,1,99.92s-.34,4.41-.44,6.61-.07,4.58-.11,6.86c0,1.07-.08,2.14-.12,3.2a31.68,31.68,0,0,0,0,3.23c.06,1,.08,1.91.14,2.87.06,1.11.11,2.24.09,3.35,0,2-.31,3.94-.28,5.91s.07,3.65.15,5.47.35,3.89.36,5.85c0,1.78-.08,3.55-.18,5.32a59,59,0,0,0,.23,6.09c0,1.1.12,2.2.14,3.31s0,2.06,0,3.08c0,1.29,0,2.57.07,3.85s.28,2.7.46,4a45.6,45.6,0,0,1,.3,6.18c-.05,2.34-.28,4.68-.24,7s0,4.6,0,6.89-.21,4.4-.2,6.6c0,1.55.15,3.1.21,4.65,0,.7.07,1.42.05,2.13s-.1,1.66-.2,2.5c0-.17.05-.34.07-.51a72.63,72.63,0,0,0-.7,12.93c0,1,.08,2,.15,3.07s.1,2.13.07,3.2-.1,2-.09,3A31.62,31.62,0,0,0,1.23,230v0a.13.13,0,0,1,0,.06c.17,1.22.39,2.43.59,3.64a1.89,1.89,0,0,0,.9,1.2,2,2,0,0,0,2.7-.7,2.07,2.07,0,0,0,.21-1.5c0-.34-.11-.68-.17-1h0c-.13-.74-.26-1.48-.37-2.23v-.11A37.52,37.52,0,0,1,5,223.61c0-1.31,0-2.62-.1-3.93,0-.69-.08-1.38-.1-2.07l0-.83c0-.69,0-1.38,0-2.07,0-.88,0-1.86.08-3.08,0-.74.1-1.47.16-2.19L5,208.8l0-.23c.07-.86.15-1.72.26-2.58h0c0-.1,0-.2,0-.31s0-.07,0-.11h0a22.71,22.71,0,0,0,.28-3.29c0-1.06-.06-2.24-.13-3.61-.06-1.1-.12-2.28-.13-3.43,0-.68,0-1.39.07-2.06v-.36c0-.26,0-.52,0-.78.09-2.07.08-4.18.08-6.22v-.22c0-2.42,0-4.93.12-7.39V178l0-.2c0-.14,0-.28,0-.42h0c.06-1.51.12-3.29,0-5.1,0-1.17-.12-2.11-.22-3-.06-.63-.15-1.26-.24-1.89l-.11-.77A49.73,49.73,0,0,1,5,161.46v-2.2c0-.65,0-1.31,0-2l-.06-1.4,0-.36,0-.53c0-.34,0-.68,0-1,0-.58-.07-1.16-.11-1.74s-.07-.89-.09-1.33c0-1,0-2,0-2.78l0-.67,0-.66c0-.46,0-.93.07-1.39s0-.68,0-1V144h0V142.7c0-1.07-.1-2.19-.19-3.08v-.19c-.07-.83-.14-1.69-.17-2.53l0-1.12v-.16c0-1.36-.09-2.77-.09-4.15,0-.72.06-1.48.1-2.08l0-.31c0-.22,0-.43,0-.64l0-.33c0-.9.1-1.83.09-2.74,0-1.34-.08-2.69-.15-4.07,0-.7-.08-1.41-.11-2.12-.06-1.46,0-3,.06-4.34,0-.72,0-1.43.06-2.14s0-1.53,0-2.32c0-1.5,0-3,.12-4.57,0-.78.1-1.56.16-2.34l0-.76c.08-1.14.16-2.27.22-3.4.11-1.74.14-3.56.17-5l0-1.58,0-1c0-.78,0-1.56,0-2.34,0-.57,0-1.14,0-1.72s0-1.13,0-1.7c0-2.43.07-4.64.13-6.75,0-.73.06-1.45.09-2.23l.07-1.3v-.05c0-.13,0-.27,0-.4h0a25.54,25.54,0,0,0-.1-2.84c-.17-2.26-.18-4.4-.17-7,0-1.14,0-2.38-.07-3.63,0-.91-.17-1.84-.3-2.81l-.07-.46c-.08-.76-.12-1.53-.16-2.34l0-.43c0-1-.07-2-.08-3.22l0-2.15,0-1.09c0-.58,0-1.16,0-1.74v-.29c0-.4,0-.8,0-1.2,0-.92,0-1.89-.14-3.17q-.06-.7-.15-1.41c0-.43-.1-.85-.13-1.27-.07-.9-.07-1.82-.06-2.69l0-.28v-.42h0c0-.68,0-1.36,0-2v-.83c0-2.22,0-4.5,0-6.51,0-1.55.06-3.09.06-4.63,0-.61,0-1.21,0-1.82v-1c0-.6,0-1.22,0-1.84,0-.44,0-.88,0-1.32,0-1.13,0-2.16-.06-3.15S4,11.71,4.05,10.66s0-2.05,0-3c0-.38,0-.76,0-1.14V5.64C4,5.33,4,5,4,4.72V4.56c0-.11.05-.22.08-.33A2,2,0,0,0,2.67,1.82a1.68,1.68,0,0,0-.5-.07A2,2,0,0,0,.25,3.21Zm5.09,202.5c0,.13,0,.27,0,.4C5.3,206,5.32,205.84,5.34,205.71Z"/><path class="cls-1" d="M42.8,0a12.34,12.34,0,0,0-1.71.15c-.85.09-1.69.1-2.54.12s-1.76.15-2.64.17c-.36,0-.72,0-1.08,0-.53,0-1.06,0-1.59,0-.89.06-1.77.24-2.65.38A19,19,0,0,1,28,.84a17.4,17.4,0,0,0-2.88.24c-.7.07-1.39.06-2.09.07s-1.35,0-2,0-1.38-.07-2.08-.09S17.4,1,16.65.93c-1.51-.05-3,0-4.54-.1-.34,0-.68-.06-1-.09A5.84,5.84,0,0,0,9.78.8c-.5.07-1,.17-1.49.24A15.53,15.53,0,0,1,4.75.84a1.87,1.87,0,0,0-1.38.56,2,2,0,0,0-.05,2.78l.42.33L4,4.64v0a1.91,1.91,0,0,0,.74.14L5,4.8A17.69,17.69,0,0,0,7.43,5l.5,0q.93-.07,1.86-.24l.65-.11h.24c.3,0,.61,0,.92.06l.17,0,.33,0c.64,0,1.27,0,1.9.06h2.26c.44,0,.88,0,1.32.07l.18,0,.66,0,.72,0h.24l1,0c.58,0,1.15.06,1.72.06h1.06c.44,0,.87,0,1.3,0a14.46,14.46,0,0,0,1.74-.19l.34,0c.37,0,.74,0,1.1,0h.91l.79,0h.18a17.53,17.53,0,0,0,2.6-.29l.79-.13c.52-.05,1-.05,1.38-.05h1.26A12.79,12.79,0,0,0,37,4.28a21.17,21.17,0,0,1,2.25-.1h.18A20.07,20.07,0,0,0,41.92,4c.42,0,.87-.06,1.36-.06.66,0,1.32,0,2,.07.39,0,.77.06,1.18.11s1.08.11,1.63.12h.24c.42,0,.84,0,1.26,0h.54c.43,0,.87,0,1.3.06.83.07,1.71.12,2.67.14s1.72.08,2.71.16a12.21,12.21,0,0,0,1.35.07,11.32,11.32,0,0,0,1.16-.09l.54-.07c.53-.05,1.1-.07,1.76-.07h1l.57,0c.29,0,.57,0,.87,0h.27c.51,0,1,0,1.52,0h.44c.41,0,.82,0,1.24,0s.7,0,1,0h.92l1.37,0,1.27,0c1,0,2,0,3,0l.83,0h.23l1.16,0c.34,0,.69,0,1,0L79,4.51c.36,0,.7-.07,1.06-.08h1.66c.65,0,1.3-.06,2-.12l1.1-.1c.4,0,.81,0,1.21,0,.62,0,1.23,0,1.83.06,1,0,2,.11,3,.18l.41,0c.55,0,1.11.08,1.66.09.3,0,.61,0,.92,0H95c.69,0,1.36.07,2.16.15.61.06,1.19.09,1.75.09h.53l2-.08.48,0,.39,0c.45,0,.91,0,1.36,0h.43c.37,0,.73,0,1.09.06l1.3.06H108c.34,0,.67,0,1,0l.63.11c.76.14,1.53.24,2.31.31.23,0,.45,0,.68,0,.47,0,.95,0,1.41,0l.26,0,.71,0,1.74,0h1.31c.8,0,1.64-.07,2.32-.12l1.19-.08,1.07-.06,1.72-.09,1.47,0,1.19,0h.51l1.08,0h.12l1,0c.25,0,.5,0,.75,0,1.18-.06,2.39-.15,3.59-.28l.38,0c.47,0,.93-.09,1.4-.12h1.79l1.14,0h.37c.39,0,.77,0,1.16,0l.77,0,1.46.07h.33c.25,0,.5,0,.79,0h1c.27,0,.55,0,.82,0s.55,0,.83,0,.81,0,1.22.06a7.3,7.3,0,0,0,1.14.09,4,4,0,0,0,.84-.07,3.93,3.93,0,0,0,.48-.06l.13,0h0l.22-.07.23,0,.1,0a3.82,3.82,0,0,0,1.39,0c.21,0,.42-.1.63-.15l.16,0c.45.24.89.52,1.33.78.65.38,1.35.74,2,1.17.18.16.36.32.56.48.35.29.72.56,1.1.82a9.82,9.82,0,0,1,.81.77A11.51,11.51,0,0,0,160,9.34a4.27,4.27,0,0,0,.44.3l.19.12.11.06.38.23.24.15.25.15c.24.14.47.3.71.45l.18.15h0l1,.72c.4.32.79.65,1.2,1s.91.66,1.37,1L167.83,15c.48.39,1,.78,1.45,1.16s.79.55,1.18.84c.9.73,1.77,1.51,2.62,2.31v0h0l1.61,1.53c.82.78,1.67,1.53,2.36,2.14.21.19.44.37.68.57l.4.32.42.36.09.08.53.45a40.81,40.81,0,0,1,3.93,3.62c.67.71,1.34,1.43,2,2.15l.33.36c.72.77,1.44,1.55,2.18,2.31.3.32.62.63.94.94l.13.13c.37.36.73.71,1.08,1.07l.45.48.3.32c.43.45.85.91,1.3,1.34l.65.64a18.49,18.49,0,0,1,1.67,1.76c.63.8,1.29,1.58,2,2.39,1.69,1.88,3.53,3.76,5.2,5.48,1.33,1.35,2.7,2.75,4,4.17.45.49.92,1,1.39,1.44l.21.22.38.38q.44.43.84.87l.14.14c.31.33.63.65.95,1s.46.46.68.7l.23.23c.3.31.61.63.92.93.7.69,1.41,1.4,2.09,2.13l.09.1a2.92,2.92,0,0,1,.28.32c.69.71,1.42,1.38,2.1,2.1s1.33,1.4,2,2.11,1.14,1.24,1.7,1.87,1.21,1.25,1.82,1.88a28.36,28.36,0,0,1,2.06,2.33c.15.22.32.43.48.64,1.09,1.5,2.23,3,3.44,4.37l.55.66.23.25.53.63.08.12c.27.31.54.62.82.91.56.58,1.07,1.21,1.57,1.84a1.9,1.9,0,0,0,1.41.6,2,2,0,0,0,2-2h0a2.08,2.08,0,0,0-.56-1.38c-.42-.54-.87-1.05-1.32-1.57s-.75-.8-1.1-1.22l-1-1.23c-1.11-1.33-2.2-2.67-3.25-4l-.66-.89.09.13a27.41,27.41,0,0,0-1.8-2.23c-.58-.63-1.22-1.2-1.82-1.82s-1.11-1.21-1.64-1.82-1.24-1.37-1.89-2c-.35-.35-.67-.73-1-1.08s-.86-.84-1.28-1.27c-.8-.82-1.59-1.66-2.41-2.46-1.25-1.22-2.46-2.49-3.67-3.75-1.42-1.46-2.86-2.91-4.24-4.41-.67-.73-1.39-1.4-2.07-2.11s-1.45-1.58-2.22-2.32-1.7-1.73-2.51-2.63-1.47-1.58-2.17-2.41c-.33-.4-.64-.82-1-1.22s-.82-.88-1.25-1.3c-.75-.74-1.51-1.46-2.22-2.24s-1.28-1.34-1.94-2c-.83-.82-1.66-1.66-2.46-2.51-1.38-1.46-2.68-3-4.13-4.39-1.29-1.24-2.66-2.38-4-3.53-.73-.61-1.47-1.22-2.17-1.88s-1.56-1.48-2.34-2.21-1.46-1.33-2.18-2c-.92-.82-1.94-1.49-2.92-2.23-.72-.57-1.45-1.13-2.18-1.69l-2-1.48c-.51-.41-1-.83-1.53-1.22s-.93-.72-1.42-1c-.67-.41-1.36-.8-2-1.26-.4-.35-.76-.74-1.16-1.09a10.13,10.13,0,0,0-1.12-.94l-.47-.33c-.17-.14-.33-.29-.49-.44a8.54,8.54,0,0,0-1.32-.9l-1.38-.82-1.39-.8a6.39,6.39,0,0,0-1-.47A2.23,2.23,0,0,0,153,0a1.78,1.78,0,0,0-.69.1,4,4,0,0,0-.68.12c-.11,0-.23.06-.34.09a6.17,6.17,0,0,0-.62-.11,2.89,2.89,0,0,0-1,.13,2.36,2.36,0,0,0-.45.08L149,.51a2,2,0,0,1-.24,0l-.32,0a3,3,0,0,1-.43,0A10.92,10.92,0,0,0,146.84.4l-1.37,0c-.61,0-1.22,0-1.83,0s-.95,0-1.42,0c-1,0-2-.1-3,0s-1.88,0-2.82,0-2.11.15-3.17.24-2.43.23-3.64.22l-1.52,0c-.55,0-1.1,0-1.65,0-.9,0-1.79,0-2.69.07-2.18.12-4.35.3-6.53.34-1,0-1.9,0-2.86.05a21,21,0,0,1-2.86,0,22.36,22.36,0,0,0-2.94-.41h-1c-.25,0-.49,0-.73,0-.58,0-1.15,0-1.73-.08a54.55,54.55,0,0,0-5.72.12A22.42,22.42,0,0,1,96.53.72c-.9-.07-1.8-.1-2.69-.08A26.7,26.7,0,0,1,91.16.52c-1-.07-2-.12-3-.18s-2-.08-3-.05S83,.55,81.82.53c-.42,0-.83,0-1.24,0a16.57,16.57,0,0,0-1.86.11,26.12,26.12,0,0,1-3.19,0c-2-.07-3.9-.08-5.84-.1H69c-.33,0-.65,0-1,0-.6,0-1.2-.05-1.8-.05s-1.11,0-1.67,0S63.45.49,62.9.47q-1.21-.06-2.43,0c-.39,0-.78.06-1.17.11a10.79,10.79,0,0,1-1.61.09c-.85,0-1.7-.15-2.55-.2S53.53.45,52.73.4,50.91.25,50,.24c-.5,0-1,0-1.51,0A13.64,13.64,0,0,1,46.91.22c-.84-.09-1.66-.16-2.5-.2-.52,0-1,0-1.57,0ZM153.53,3.83l-.23.09h0l.27-.1Z"/><path class="cls-1" d="M2.85,232.12a2,2,0,0,0-.05,2.79h0a2.06,2.06,0,0,0,1.41.6,28,28,0,0,0,3.3.2c.48,0,1,0,1.45,0s1-.09,1.5-.09,1.09,0,1.63.08,1.23.07,1.84.07c1.11,0,2.22-.1,3.33-.13s2.15-.05,3.22,0l3.32.14c2.16.08,4.33.09,6.5.15,1.1,0,2.2.08,3.3.1s2.14.11,3.2.16l3.39.17c1.09,0,2.18.06,3.28.1s2,.16,3,.22c1.15.07,2.29.15,3.45.17,2.32,0,4.65.23,7,.48a33.47,33.47,0,0,0,4.8.13,30.31,30.31,0,0,1,4.57.12c1.15.17,2.29.37,3.45.5s2.25.18,3.4.23,2.3.17,3.45.24a30.44,30.44,0,0,0,3.31,0c1.06,0,2.11-.12,3.18-.15s2,0,3,.06c2.18.11,4.35.15,6.53.21,1,0,2,0,3,0,1.2,0,2.4,0,3.6,0s2.32.16,3.48.21,2.28,0,3.42-.06a32.32,32.32,0,0,1,3.41,0c1.12.05,2.23.18,3.34.23,2.27.12,4.54.08,6.81.17s4.37.3,6.56.3,4.41.06,6.61.06,4.58-.12,6.87-.2,4.64-.1,7-.08,4.73.07,7.09,0c1.23,0,2.46-.12,3.69-.2,1.05-.08,2.1-.21,3.16-.29s2.35-.15,3.52-.22,2.34,0,3.51-.1c2.38-.13,4.76-.34,7.14-.45.79,0,1.59,0,2.38,0h1.19c1.16,0,2.31,0,3.46-.08,2.37-.09,4.73-.33,7.1-.41a64.75,64.75,0,0,1,7.1.3c2.33.17,4.66.27,7,.39a63.52,63.52,0,0,0,6.76,0c1.14-.06,2.29-.17,3.44-.24s2.13-.07,3.19-.12,1.95-.06,2.92-.11,1.87-.12,2.81-.15A23.91,23.91,0,0,1,225,238c1.1.11,2.2.08,3.31.13.91,0,1.8.19,2.71.21a10.38,10.38,0,0,0,1.76-.16H233a17.65,17.65,0,0,0,2.8.4c.42,0,.84,0,1.26-.06a13.53,13.53,0,0,0,1.91-.14,2,2,0,0,0,1.42-2.4,2,2,0,0,0-2.37-1.43c-.46,0-.93,0-1.39.05v0h-.84l-.68,0-.88-.17-.17,0-.14,0a5.58,5.58,0,0,0-1-.12,1.14,1.14,0,0,0-.26,0c-.22,0-.43,0-.66.08s-.66.05-1,.05a14.71,14.71,0,0,1-1.48-.1,20.43,20.43,0,0,0-2.47-.12h-.28l-.85,0c-.5,0-1-.07-1.5-.13s-.92-.1-1.38-.12c-.25,0-.51,0-.76,0-.64,0-1.27,0-1.9.06h-.26l-2.79.13-1.43,0c-.54,0-1.08,0-1.62.05-.84,0-1.67.1-2.5.16-1.57.11-3,.2-4.41.23h-.59c-1.43,0-2.9-.07-4.3-.14h-.25l-1.8-.08c-1.52-.07-3.05-.18-4.61-.3l-2.17-.16c-1.42-.1-2.55-.15-3.67-.15h-.1c-1,0-2,.05-3.38.13L185,234l-.35,0-.41,0-1.26.09c-1.16.06-2.37.1-3.7.13h-3.54c-1.15,0-2.36.08-3.33.16h-.24l-.69.05c-1.93.14-4.11.29-6.21.33-2.4,0-4.83.26-7,.46-2,.18-4.2.27-6.95.28-1.25,0-2.49,0-3.73,0h-.7l-2.77,0H144c-2,0-4.17.06-6.65.18-1.33.07-2.77.1-4.54.1h-3.33c-1.95,0-3.71,0-5.49-.1l-2.35-.12h-.11c-1.4-.07-2.85-.15-4.29-.16l-.88,0-2.43,0c-1-.05-2.07-.13-3.13-.21l-.24,0c-1.12-.09-2-.13-2.81-.13h-.55l-1.44.06h-.19c-.63,0-1.26.06-2,.07-1.06,0-2.15-.08-3.2-.14h-.17l-.2,0c-1-.06-2-.13-3-.13h-1.3c-.67,0-1.34,0-2,0h-.29c-.65,0-1.31,0-2,0l-1.19,0c-.89,0-1.77-.06-2.66-.1h-.3c-1-.05-2.14-.1-3.27-.12h-.19c-.94,0-1.88,0-2.78.1s-1.76.09-2.69.09h-.76c-.92,0-1.86-.1-2.66-.17l-.72-.05c-.55,0-1.09-.07-1.64-.09l-1.86-.1c-.53,0-1.07-.1-1.61-.17l-.58-.09-.5-.08c-.79-.13-1.62-.25-2.44-.33a19,19,0,0,0-2.13-.1c-.4,0-.81,0-1.21,0h-.61c-.6,0-1.19.05-1.78.05-.33,0-.65,0-1,0-.71,0-1.43-.1-2.15-.17l-.19,0-1.08-.1c-1.11-.1-2.3-.2-3.49-.24l-1.79-.08-1.67-.06c-.93,0-1.85-.11-2.84-.19s-2.28-.17-3.43-.2c-1.92,0-4-.14-6.72-.3-.72-.05-1.43-.07-2.14-.09l-1.19,0-.46,0L29,232c-1.39,0-2.78-.06-4.2-.1l-2.35-.06-1.36-.06c-.63,0-1.25-.06-1.88-.06h-.34c-1.08,0-1.95,0-2.74.06s-1.61.08-2.43.08h-.85c-.33,0-.66,0-1-.07s-.94-.06-1.41-.06a5.43,5.43,0,0,0-.57,0c-.89.06-1.64.1-2.4.1H7.28c-.57,0-1.17-.05-1.83-.11h0l-1.22-.11H4.12a2,2,0,0,0-1.27.56Z"/><path class="cls-1" d="M232.37,77.53a2,2,0,0,0-1.21.91,1.92,1.92,0,0,0-.21,1.5,3,3,0,0,0,.74,1.24c.11.1.21.2.31.31s.21.24.31.37l0,0a5.92,5.92,0,0,1,.33.61l.06.39a2.28,2.28,0,0,1,0,.26v0l.09.63,0,.34,0,.4.09.8,0,.19c0,.31.09.61.15.91l0,.15.08.42v.17c0,.24,0,.47.06.72l.06.35c.06.73.14,1.29.23,1.82,0,.25.06.5.09.75a14.61,14.61,0,0,1,0,1.62,10.12,10.12,0,0,0,.05,1.23c0,.24,0,.48,0,.72,0,.39,0,.78,0,1.17v.15c0,.44,0,.87,0,1.31,0,.72.11,1.43.2,2.17,0,.28.06.56.11.94l.06.42c.1.73.19,1.49.24,2.24,0,.4,0,.81.05,1.24s0,1.13.1,1.7c.07,1.1.13,2.2.18,3.29v.34c0,.16,0,.32,0,.48h0L235,111c0,.79.11,1.59.18,2.38.1,1.21.2,2.4.23,3.56,0,.65,0,1.29.05,2,0,1.14.07,2.3.09,3.44,0,1.3-.1,2.61-.2,3.88l0,.26c0,.61-.1,1.22-.13,1.82a42.13,42.13,0,0,0,.13,5.15v.14a51.54,51.54,0,0,1,0,5.83c0,.74-.12,1.47-.21,2.28l-.06.58c-.06.56-.12,1.13-.19,1.72h0l0,.4h0l-.08.89a39,39,0,0,0,0,5.62l.12,1.64c.11,1.42.22,2.9.24,4.35,0,1,.05,2.07.09,3.12v.42c0,.81.06,1.63.08,2.45,0,1.89,0,3.78,0,5.67,0,.63,0,1.27,0,1.9V171l0,.51c0,.73,0,1.47,0,2.18v.12l0,.58c0,.93,0,1.92,0,3,0,.13,0,.26,0,.4l0,0c0,.77.09,1.55.16,2.33.09,1,.17,2.1.23,3.19,0,.76,0,1.55,0,2.29V187c0,.75,0,1.5,0,2.26v1.18c0,.6,0,1.2,0,1.81,0,.37-.05.74-.08,1.11l0,.22c0,.44-.07.89-.09,1.33,0,.75,0,1.53,0,2.22l0,.55c0,.73,0,1.47,0,2.2,0,1,0,1.93,0,2.89s.06,1.64.11,2.46v.42c0,.14,0,.28,0,.41h0l0,0v1.56c0,.38,0,.76,0,1.13s0,1,0,1.54c0,.86,0,1.72,0,2.58,0,1.37,0,2.43-.07,3.42a24.36,24.36,0,0,0,0,3.31c.07,1.29.15,2.4.25,3.42.07.84.2,1.7.32,2.53l.12.86c0,.5.07,1,.1,1.49s0,1.18.12,1.77l0,.29a14.45,14.45,0,0,1,.11,3c0,.26-.08.52-.12.78l-.07.48a1.84,1.84,0,0,1-.05.25,1.94,1.94,0,0,0,.22,1.16,2,2,0,0,0,2.67.77h0a1.89,1.89,0,0,0,.94-1.2,26.53,26.53,0,0,0,.38-3.07,22,22,0,0,0-.25-2.82c-.09-.88-.09-1.76-.15-2.63s-.26-2-.4-3c-.2-1.7-.3-3.42-.37-5.14a25.61,25.61,0,0,1,.06-2.77,28.1,28.1,0,0,0,0-2.9c0-.86,0-1.72,0-2.58s0-1.78,0-2.67,0-1.61,0-2.42-.08-1.63-.11-2.45c-.06-1.7,0-3.4,0-5.1,0-.92-.06-1.84,0-2.76s.14-1.77.18-2.66,0-2,0-3,0-2.08,0-3.1,0-1.86,0-2.78-.14-2.13-.23-3.19a46.35,46.35,0,0,1-.18-5.77c0-1,.1-1.92.08-2.88s-.06-1.95-.06-2.93c0-1.89,0-3.78,0-5.67s-.15-4-.18-6-.23-4-.36-6a39.19,39.19,0,0,1,0-5.63c.16-2,.43-3.91.55-5.87a43.77,43.77,0,0,0,0-5.84,42.48,42.48,0,0,1-.13-5.29c.11-2,.38-4,.36-6,0-1.8-.09-3.61-.14-5.41-.06-2-.3-4-.41-5.94s-.16-3.7-.3-5.55c-.08-1-.07-2-.17-3.06s-.21-2-.34-3v0c0-.22,0-.43-.08-.65v0c-.09-.77-.15-1.55-.17-2.33s0-1.8-.09-2.7c-.11-1.3,0-2.61-.22-3.9,0-.11,0-.22,0-.33-.05-.38-.11-.75-.17-1.12s-.08-.84-.14-1.26a8,8,0,0,0-.14-1.29c-.06-.3-.13-.61-.18-.93,0,0,0-.08,0-.12,0-.61-.12-1.22-.21-1.82,0-.22,0-.44-.09-.65a1.57,1.57,0,0,0,0-.23,3.68,3.68,0,0,0-.06-.57,4.11,4.11,0,0,0-.29-.76c-.11-.25-.24-.49-.37-.73A8.75,8.75,0,0,0,235,79a5.32,5.32,0,0,0-.47-.48,1.85,1.85,0,0,0-.7-.74,1.92,1.92,0,0,0-1-.26,2.05,2.05,0,0,0-.49.06Zm2.4,1.42-.15-.34,0,0c0,.12.1.24.14.36Z"/><path class="cls-2" d="M172.21,36.76v0h-122l-46.19,0H.69a.22.22,0,1,0,0,.43H4.08v0h168.2l0,0h4v0a.19.19,0,0,0,.2-.2.2.2,0,0,0-.2-.2l-.12,0Z"/><path class="cls-2" d="M226.65,75.17l0,0H75.08l-69.53,0H4a.22.22,0,0,0,0,.44H5.55v0H227.78a.22.22,0,0,0,0-.44Z"/><path class="cls-2" d="M234.93,109.4H4.88a.2.2,0,1,0,0,.4H235a.22.22,0,0,0,.08-.3.22.22,0,0,0-.1-.09Z"/><path class="cls-2" d="M236.84,144h-1.91v0H72.37L4.79,144H4.36a.22.22,0,1,0,0,.43h.45v0H234.89l0,0h2.45a.22.22,0,1,0,0-.43Z"/><path class="cls-2" d="M235.43,177.36v0H77.58l-71.87,0H5.15a.22.22,0,1,0,0,.43h.56v0H235.45l0,0h.2a.22.22,0,1,0,0-.43Z"/><path class="cls-2" d="M237.32,205.59h-1.51v0H77.13l-71.79,0H5a.21.21,0,0,0-.22.21A.22.22,0,0,0,5,206H5.3v0H235.82l0,0h2.68a.22.22,0,0,0,.22-.22.21.21,0,0,0-.22-.21Z"/><path class="cls-3" d="M43.28,3.92c-.49,0-.94,0-1.36.05a18.41,18.41,0,0,1-2.46.2h-.18A21.18,21.18,0,0,0,37,4.28c-.5,0-1,.07-1.52.07H34.25c-.34,0-.86,0-1.38,0l-.8.13a16.29,16.29,0,0,1-2.6.29h-.18l-.78,0h-.92c-.36,0-.73,0-1.1,0l-.34,0a14.69,14.69,0,0,1-1.74.19l-1.3,0H22.06c-.58,0-1.15,0-1.72-.06l-1,0h-.24c-.24,0-.48,0-.72,0s-.44,0-.66,0h-.18c-.45,0-.88-.07-1.32-.07H15l-.65,0H14c-.63,0-1.27,0-1.9-.06l-.33,0-.17,0c-.32,0-.62-.06-.92-.06h-.24l-.66.1A16.29,16.29,0,0,1,7.92,5l-.5,0A17.84,17.84,0,0,1,5,4.8l-.28,0A1.92,1.92,0,0,1,4,4.62a8.69,8.69,0,0,0,0,1v.91q0,.57,0,1.14a28.87,28.87,0,0,1,0,3c0,1,0,2.07.07,2.93s.07,2,.06,3.15c0,.44,0,.87,0,1.32,0,.62,0,1.23,0,1.84l0,.71v.3c0,.61,0,1.21,0,1.82,0,1.54,0,3.09-.06,4.63,0,2-.06,4.29,0,6.51v.84c0,.68,0,1.36,0,2l46.19,0h122l-.08-.56-.11-.74c-.12-.81-.21-1.63-.31-2.44l-.08-.73,0-.18c-.07-.47-.14-.94-.2-1.4l0,.41a10.46,10.46,0,0,0-.12-1.11l0-.27c-.05-.3-.09-.6-.12-.89l-.13-1c-.11-.85-.23-1.53-.35-2.12-.16-.77-.38-1.53-.57-2.18-.23-.82-.42-1.65-.6-2.45l0-.12a13.92,13.92,0,0,0-.62-2.09l0-.14-.06-.14a6.87,6.87,0,0,0-.69-1.35,6.84,6.84,0,0,1-.59-.92c-.17-.33-.36-.66-.56-1s-.38-.41-.57-.61l-.35-.36-.36-.38-.59-.66-.63-.68-.31-.33-.13-.15c-.19-.21-.39-.42-.59-.61s-.54-.42-.8-.64l-.19-.15c-.23-.16-.47-.31-.71-.46l-.24-.14-.25-.15-.38-.23-.11-.06c-.5-.3-1-.61-1.49-.93l-.57-.4-.17-.11c-.28-.19-.56-.38-.85-.55a11.72,11.72,0,0,0-1.5-.76c-.39-.16-.78-.33-1.16-.52s-.51-.26-.77-.38L153.91,6l-.47-.15-.11,0-.6-.2-.33-.14L152,5.34,151.08,5a2.3,2.3,0,0,1-1-.68l-.12,0a2.65,2.65,0,0,1-.48.07,4,4,0,0,1-.84.07,7.3,7.3,0,0,1-1.14-.09c-.41,0-.82,0-1.23-.06l-.82,0c-.27,0-.55,0-.83,0h-1l-.79,0h-.33c-.49,0-1,0-1.46-.06-.26,0-.52,0-.77,0s-.77,0-1.16,0h-.37l-1.14,0h-.69l-.66,0h-.45c-.47,0-.93.08-1.4.12l-.37,0c-1.21.13-2.41.22-3.59.29h-1.83l-1.08,0H127l-1.18,0-1.47,0c-.58,0-1.15.06-1.72.09l-1.07.06-1.2.08c-.67,0-1.51.11-2.32.12h-3l-.71,0h-.26c-.47,0-.94.06-1.41.06q-.35,0-.69,0a22.11,22.11,0,0,1-2.31-.31l-.62-.1c-.34,0-.67,0-1,0h-1.49c-.44,0-.87,0-1.3-.07l-1.09-.06h-.43c-.46,0-.91,0-1.37,0l-.39,0-.47,0q-1,.06-2,.09h-.53c-.57,0-1.14,0-1.75-.09-.8-.08-1.48-.14-2.16-.15H93.78c-.3,0-.61,0-.92,0-.55,0-1.11,0-1.66-.09l-.4,0-3-.18c-.6,0-1.22,0-1.83,0-.41,0-.81,0-1.22,0l-1.1.1a19,19,0,0,1-2,.13H81l-.66,0h-.31c-.36,0-.71.05-1.07.09l-.65.05c-.34,0-.69,0-1,0l-1.15,0h-.24l-.83,0-3,0-1.26,0-1.38,0h-.93c-.35,0-.7,0-1,0s-.83,0-1.24,0H65.8c-.51,0-1,0-1.52,0H64c-.29,0-.58,0-.87,0l-.57,0-1,0c-.65,0-1.23,0-1.76.08l-.54.06a11.32,11.32,0,0,1-1.16.09,12.82,12.82,0,0,1-1.34-.07c-1-.09-1.88-.14-2.72-.16s-1.83-.07-2.67-.14c-.43,0-.86-.06-1.3-.06h-.53c-.42,0-.84,0-1.27,0h-.24a16,16,0,0,1-1.63-.13c-.41,0-.79-.08-1.17-.1-.66,0-1.32-.07-2-.07Z"/><path class="cls-3" d="M172.28,37.18H4.09l0,.27c0,.88,0,1.79.06,2.69,0,.42.08.85.13,1.27s.11.94.15,1.41c.1,1.28.14,2.26.14,3.17,0,.4,0,.8,0,1.2v.29c0,.59,0,1.16,0,1.75l0,1.08q0,1.08,0,2.16c0,1.2,0,2.25.09,3.21l0,.44c0,.8.08,1.58.17,2.33l.06.47c.14,1,.26,1.9.3,2.81.07,1.25.07,2.48.07,3.63,0,2.57,0,4.71.17,7a25.54,25.54,0,0,1,.1,2.84l69.54,0H226.67a16.64,16.64,0,0,0-2.15-2.13c-1-.71-1.83-1.41-2.67-2.15-.56-.49-1.12-1-1.7-1.45l-.81-.68c-.37-.28-.76-.52-1.15-.77L218,67.9l-.71-.45a27,27,0,0,1-2.14-1.65l-.1-.09-.56-.4L214,65a5.33,5.33,0,0,0-1.12-.62l-.26-.12-.14-.06a6.16,6.16,0,0,1-.82-.39l-1.14-.72-.25-.17c-.31-.2-.62-.4-1-.57s-.64-.31-1-.45l-.19-.08c-.3-.13-.59-.28-.88-.42l-.2-.1c-.32-.16-.63-.31-1-.45l-.27-.11-.16-.06-.37-.15a2.67,2.67,0,0,1-.36-.14,6.42,6.42,0,0,1-.66-.3L204.2,60l-.84-.27-.23-.06-.31-.1c-.4-.13-.78-.29-1.17-.45a8.81,8.81,0,0,0-1.24-.36,9.46,9.46,0,0,1-1.5-.51s.08,0,.09.06a11.9,11.9,0,0,0-2.73-.75,7.48,7.48,0,0,1-1.34-.32c-.36-.13-.7-.29-1-.45l-.34-.15-.59-.2-.15,0-.21-.06-.28-.1a5.26,5.26,0,0,0-.6-.18c-.31,0-.61-.06-.92-.12l-.23,0-.12,0-.25-.06a13.8,13.8,0,0,1-1.69-.26l-.57-.15c-.32-.08-.64-.17-1-.23h-.76a5.74,5.74,0,0,1-1.09.1h-.31q-.37,0-.75,0h-.25l-.1,0a10.58,10.58,0,0,1-1.26.16l-.54,0h-.64a9.07,9.07,0,0,0-1.67.55l-.9.33-.52.19-.75.33-1.07.48-.24.1a7.73,7.73,0,0,1-1.05.38l-.19,0a2.09,2.09,0,0,1-1.06.29,1.94,1.94,0,0,1-2-1.92V56l0-.15v-.2a11.92,11.92,0,0,1,.17-1.58l.07-.37c0-.16.08-.33.11-.5,0-.34,0-.66.07-1s0-.51.05-.76l.09-1,0-.23.09-.95c.06-.75.06-1.51.06-2.25,0-.46,0-.92,0-1.38,0-.67,0-1.35-.06-2s-.08-1.24-.07-1.86c0-.24,0-.48,0-.72,0-.4,0-.81,0-1.22,0-.57-.06-1.14-.13-1.73,0-.22-.07-.44-.1-.66l0-.3v0Z"/><path class="cls-3" d="M227.08,75.59H5.55l-.07,1.33c0,.78-.06,1.51-.08,2.23-.07,2.11-.11,4.32-.13,6.76v3.41c0,.78,0,1.56,0,2.34l0,1,0,1.58c0,1.47-.06,3.29-.17,5-.07,1.13-.15,2.26-.23,3.4l0,.77c0,.77-.11,1.55-.16,2.33-.1,1.52-.1,3.07-.12,4.57,0,.79,0,1.56,0,2.32s0,1.43-.07,2.14c0,1.36-.11,2.88-.06,4.35,0,.7.07,1.41.11,2.12.08,1.37.15,2.72.16,4.06,0,.91,0,1.84-.1,2.74l0,.33c0,.22,0,.43,0,.64l0,.31c0,.61-.1,1.36-.1,2.09,0,1.38,0,2.78.09,4.14v.16l0,1.12c0,.85.1,1.7.17,2.53l0,.19c.08.9.17,2,.19,3.08V144l67.58,0H234.93c.07-.58.13-1.15.19-1.72l.06-.58c.09-.8.17-1.53.21-2.27a51.71,51.71,0,0,0,0-5.84v-.14a42,42,0,0,1-.13-5.14c0-.61.08-1.22.13-1.82l0-.27a38.32,38.32,0,0,0,.2-3.88c0-1.14-.05-2.3-.09-3.44,0-.68,0-1.32-.05-2,0-1.15-.13-2.34-.23-3.56-.07-.79-.14-1.58-.18-2.38,0-.4-.05-.8-.06-1.19H4.88a.2.2,0,1,1,0-.4h230l.09,0V109c-.05-1.1-.1-2.2-.18-3.29-.05-.57-.07-1.13-.1-1.7s0-.84-.06-1.25c0-.74-.14-1.5-.23-2.23l-.06-.42c-.05-.38-.08-.66-.11-.94-.09-.74-.15-1.45-.2-2.17,0-.44,0-.87,0-1.31V95.5c0-.39,0-.78,0-1.17q0-.36-.06-.72a10.12,10.12,0,0,1-.05-1.23,14.6,14.6,0,0,0,0-1.62c0-.25-.08-.5-.1-.75-.1-.53-.16-1.09-.23-1.82l0-.35a6.25,6.25,0,0,1-.07-.72v-.18l-.08-.41,0-.15c-.05-.3-.11-.6-.15-.91l0-.19-.09-.8,0-.4-.06-.34-.08-.63v.2c0-.15,0-.29,0-.44l-.06-.39c-.1-.21-.21-.41-.33-.61a2.67,2.67,0,0,1-1-.9l-.57-.78-.21-.29-.27-.37-.44-.56-.21-.26c-.41-.52-.82-1-1.19-1.57l-.52-.63-.54-.57-.11-.11-.21-.23h0Z"/><path class="cls-3" d="M234.89,144.38H4.81c0,.35,0,.69,0,1s0,.92-.07,1.39l0,.66,0,.67c0,.76-.07,1.76,0,2.78,0,.44.06.88.09,1.33s.09,1.16.11,1.74c0,.35,0,.69,0,1l0,.52,0,.36L5,157.29c0,.66,0,1.31,0,2v2.2a49.73,49.73,0,0,0,.21,5.18l.11.77c.09.62.18,1.25.25,1.88.09.86.16,1.8.21,3,.09,1.81,0,3.59,0,5.1l71.86,0H235.43c0-1.11,0-2.1,0-3l0-.58v-.13c0-.71.06-1.45.05-2.18l0-.51v-.51c0-.63,0-1.27,0-1.9,0-1.89,0-3.78-.05-5.67,0-.82,0-1.63-.08-2.45V160c0-1-.08-2.08-.09-3.12,0-1.45-.13-2.93-.24-4.35,0-.54-.09-1.09-.12-1.64a39,39,0,0,1,0-5.62l.07-.88,0,0Z"/><path class="cls-3" d="M235.45,177.77H5.71l0,.2v.23c-.12,2.47-.12,5-.12,7.4v.24c0,2,0,4.15-.08,6.22,0,.26,0,.51,0,.77v.36c0,.68-.07,1.38-.07,2.07,0,1.15.07,2.32.13,3.42.08,1.38.12,2.56.13,3.61a21.38,21.38,0,0,1-.28,3.29l71.79,0H235.81v-.44c0-.82-.08-1.64-.11-2.46s0-1.92,0-2.88c0-.74,0-1.47,0-2.21v-.55c0-.69,0-1.47,0-2.21,0-.45.05-.89.09-1.33v-.23c0-.37.06-.74.08-1.11,0-.6,0-1.2,0-1.81,0-.39,0-.79,0-1.18,0-.75,0-1.51,0-2.25V185.6c0-.74,0-1.53,0-2.29,0-1.09-.14-2.18-.23-3.19-.07-.78-.12-1.55-.16-2.33l0,0Z"/><path class="cls-3" d="M235.82,206H5.3c-.11.87-.19,1.72-.26,2.58l0,.23,0,.64c-.07.73-.13,1.45-.17,2.19,0,1.23-.08,2.21-.08,3.08,0,.69,0,1.38,0,2.08l0,.82c0,.69.06,1.38.1,2.07.1,1.31.13,2.63.1,3.94a37.39,37.39,0,0,0,.07,5.7v.12c.12.74.24,1.49.37,2.23.66.06,1.25.09,1.82.1H7.5c.77,0,1.52,0,2.4-.1a5.52,5.52,0,0,1,.57,0c.48,0,.95,0,1.42.07s.66.05,1,.06h.85c.82,0,1.65,0,2.43-.08s1.66-.06,2.73-.06h.34c.63,0,1.26,0,1.88.06l1.36.06,2.35.06c1.43,0,2.82.08,4.2.1l2.7.08.47,0,1.18,0c.72,0,1.43,0,2.14.08,2.73.16,4.8.26,6.72.31,1.15,0,2.31.11,3.44.2,1,.07,1.9.14,2.83.18l1.68.07L52,233c1.19,0,2.38.14,3.49.24l1.08.1.2,0c.72.07,1.43.14,2.15.17l1,0c.6,0,1.2,0,1.79-.05h.6c.41,0,.81,0,1.22,0a16.88,16.88,0,0,1,2.13.1c.82.08,1.65.21,2.43.33l.51.08.58.09,1.61.17,1.86.1c.55,0,1.09,0,1.64.09l.72.05c.8.07,1.74.14,2.66.17h.76c.93,0,1.86-.05,2.69-.09s1.84-.1,2.78-.1H84c1.13,0,2.32.07,3.27.11l.3,0c.89,0,1.77.08,2.66.1l1.19,0c.65,0,1.31,0,2,0H97c1,0,2,.07,3,.14h.37c1.05.07,2.14.14,3.2.14.7,0,1.34,0,2-.06h.18l1.44-.06h.55c.83,0,1.7,0,2.81.12l.24,0c1.06.09,2.1.17,3.13.21.81,0,1.62,0,2.43.05h.88c1.44,0,2.89.09,4.3.16h.11l2.35.11c1.77.08,3.53.09,5.49.11h3.33c1.76,0,3.2,0,4.54-.09,2.48-.12,4.65-.18,6.64-.18h.16l2.77,0h.7l3.73,0c2.76,0,5-.09,7-.27,2.14-.2,4.57-.44,7-.47,2.1,0,4.28-.18,6.21-.32l.68-.05.24,0c1-.07,2.19-.15,3.34-.15h3.54c1.33,0,2.54-.07,3.7-.13l1.26-.09.41,0,.35,0,1.48-.1c1.33-.08,2.4-.12,3.38-.13h.1c1.12,0,2.25.05,3.66.15l2.17.15c1.56.12,3.09.24,4.62.3l1.8.09h.25c1.41.07,2.87.14,4.3.14h.58c1.43,0,2.84-.12,4.42-.23.83-.06,1.67-.12,2.5-.16.54,0,1.08,0,1.62-.05l1.43,0,2.79-.12h.26c.63,0,1.27-.07,1.9-.07l.76,0c.46,0,.92.07,1.38.13s1,.11,1.5.13l.85,0H227a22.71,22.71,0,0,1,2.47.13,12.29,12.29,0,0,0,1.49.09c.33,0,.66,0,1-.05s.43-.07.66-.08l.25,0a4.81,4.81,0,0,1,1,.13l.14,0,.16,0,.89.17.68,0,.65,0h.19a1.37,1.37,0,0,0,.09-.4l.08-.48.12-.78a13.8,13.8,0,0,0-.12-3l0-.3c-.06-.58-.09-1.17-.12-1.76s0-1-.09-1.49l-.13-.86c-.12-.83-.24-1.69-.32-2.54s-.18-2.12-.24-3.41a24.36,24.36,0,0,1,0-3.31c.08-1,.1-2,.08-3.42q0-1.29,0-2.58c0-.51,0-1,0-1.54s0-.75,0-1.13V207c0-.33,0-.68,0-1h0Z"/><path class="cls-4" d="M42.73,4v.07h0V4h0Z"/><path class="cls-2" d="M42.53,2.12V232.23a.21.21,0,0,0,.21.21.21.21,0,0,0,.22-.21V2.12a.22.22,0,1,0-.43,0Z"/><path class="cls-2" d="M84.54,1.37V234.43a.22.22,0,0,0,.24.2.21.21,0,0,0,.2-.2V1.37a.21.21,0,0,0-.23-.2A.22.22,0,0,0,84.54,1.37Z"/><path class="cls-2" d="M126.56,1.78V238a.22.22,0,0,0,.44,0V1.78a.22.22,0,1,0-.44,0Z"/><path class="cls-2" d="M168.81,15.14V235.59a.22.22,0,0,0,.44,0V15.14a.22.22,0,1,0-.44,0Z"/><path class="cls-2" d="M210.83,62.6V234.65a.22.22,0,0,0,.44,0V62.6a.22.22,0,0,0-.44,0Z"/><path class="cls-5" d="M56.06,246.78v16.28h-2.5V246.78Z"/><path class="cls-5" d="M59.19,246.36a1.64,1.64,0,0,1,1.16-.41,1.69,1.69,0,0,1,1.18.41,1.4,1.4,0,0,1,.45,1.06,1.29,1.29,0,0,1-.45,1,1.69,1.69,0,0,1-1.18.4,1.64,1.64,0,0,1-1.16-.4,1.28,1.28,0,0,1-.44-1A1.39,1.39,0,0,1,59.19,246.36Zm2.42,4.58v12.12H59.1V250.94Z"/><path class="cls-5" d="M74.81,252.11A5.47,5.47,0,0,1,76.08,256v7.06h-2.5v-6.8a3.51,3.51,0,0,0-.84-2.51,3,3,0,0,0-2.29-.9,3.13,3.13,0,0,0-2.39,1,3.91,3.91,0,0,0-.91,2.81v6.44H64.64V250.94h2.51v2.66a4.07,4.07,0,0,1,1.63-2.11,4.69,4.69,0,0,1,2.64-.75A4.42,4.42,0,0,1,74.81,252.11Z"/><path class="cls-5" d="M85.87,263.06l-4.35-5.39v5.39H79V246.78h2.51v9.33l4.31-5.17h3l-5.29,6L89,263.06Z"/><path class="cls-5" d="M101.78,257.5H92.45a3.82,3.82,0,0,0,1,2.77,3.37,3.37,0,0,0,2.39.9,3.47,3.47,0,0,0,2.13-.64,2.6,2.6,0,0,0,1.06-1.69h2.69a5.22,5.22,0,0,1-1,2.26,5.32,5.32,0,0,1-2,1.56,6.59,6.59,0,0,1-2.75.56,6.31,6.31,0,0,1-3.11-.75,5.32,5.32,0,0,1-2.12-2.16,7.5,7.5,0,0,1,0-6.62,5.32,5.32,0,0,1,2.12-2.16,7,7,0,0,1,6.23,0,5.11,5.11,0,0,1,2,2,6.19,6.19,0,0,1,.63,3.95Zm-2.85-3.14a2.88,2.88,0,0,0-1.23-1.19,3.9,3.9,0,0,0-1.71-.38,3.52,3.52,0,0,0-2.46.9,3.69,3.69,0,0,0-1.08,2.66h6.89A3.74,3.74,0,0,0,98.93,254.36Z"/><path class="cls-5" d="M112,251.6a4.29,4.29,0,0,1,1.63,2.16v-7h2.52v16.28H113.6v-2.81A4.31,4.31,0,0,1,112,262.4a4.76,4.76,0,0,1-2.82.82,5.39,5.39,0,0,1-2.83-.75,5.1,5.1,0,0,1-1.94-2.16,8.07,8.07,0,0,1,0-6.62,5.1,5.1,0,0,1,1.94-2.16,5.48,5.48,0,0,1,2.83-.74A4.83,4.83,0,0,1,112,251.6Zm-4.72,2.45a4.82,4.82,0,0,0,0,5.88,3.48,3.48,0,0,0,2.67,1.06,3.62,3.62,0,0,0,1.89-.49,3.5,3.5,0,0,0,1.32-1.4,4.77,4.77,0,0,0,0-4.21,3.46,3.46,0,0,0-1.32-1.41,3.62,3.62,0,0,0-1.89-.49A3.48,3.48,0,0,0,107.25,254.05Z"/><path class="cls-5" d="M119.23,246.36a1.64,1.64,0,0,1,1.16-.41,1.69,1.69,0,0,1,1.18.41,1.4,1.4,0,0,1,.45,1.06,1.29,1.29,0,0,1-.45,1,1.69,1.69,0,0,1-1.18.4,1.64,1.64,0,0,1-1.16-.4,1.28,1.28,0,0,1-.44-1A1.39,1.39,0,0,1,119.23,246.36Zm2.42,4.58v12.12h-2.51V250.94Z"/><path class="cls-5" d="M134.85,252.11a5.47,5.47,0,0,1,1.27,3.89v7.06h-2.51v-6.8a3.51,3.51,0,0,0-.83-2.51,3,3,0,0,0-2.29-.9,3.13,3.13,0,0,0-2.4,1,4,4,0,0,0-.9,2.81v6.44h-2.51V250.94h2.51v2.66a4.07,4.07,0,0,1,1.63-2.11,4.69,4.69,0,0,1,2.64-.75A4.42,4.42,0,0,1,134.85,252.11Z"/><path class="cls-5" d="M141,260.29v2.77h-2.84v-2.77Z"/><path class="cls-5" d="M152.51,252a5.35,5.35,0,0,1,1.92,3.38h-2.67a2.85,2.85,0,0,0-1.06-1.8,3.41,3.41,0,0,0-2.13-.64,3.22,3.22,0,0,0-2.42,1,4.22,4.22,0,0,0-1,3,4.29,4.29,0,0,0,1,3,3.23,3.23,0,0,0,2.42,1,3.36,3.36,0,0,0,2.13-.66,2.87,2.87,0,0,0,1.06-1.81h2.67a5.37,5.37,0,0,1-1.92,3.39,5.92,5.92,0,0,1-3.89,1.26,6.28,6.28,0,0,1-3.11-.75,5.34,5.34,0,0,1-2.13-2.16,7.5,7.5,0,0,1,0-6.62,5.34,5.34,0,0,1,2.13-2.16,6.38,6.38,0,0,1,3.11-.74A6,6,0,0,1,152.51,252Z"/><path class="cls-5" d="M165.56,251.53a5.38,5.38,0,0,1,2.2,2.16,7.33,7.33,0,0,1,0,6.62,5.38,5.38,0,0,1-2.2,2.16,6.65,6.65,0,0,1-3.17.75,6.59,6.59,0,0,1-3.16-.75,5.47,5.47,0,0,1-2.2-2.17,7.23,7.23,0,0,1,0-6.61,5.51,5.51,0,0,1,2.2-2.16,6.7,6.7,0,0,1,3.16-.74A6.77,6.77,0,0,1,165.56,251.53Zm-4.95,1.87a3.31,3.31,0,0,0-1.31,1.36,5.25,5.25,0,0,0,0,4.47,3.28,3.28,0,0,0,1.31,1.35,3.82,3.82,0,0,0,3.56,0,3.22,3.22,0,0,0,1.31-1.35,5.25,5.25,0,0,0,0-4.47,3.25,3.25,0,0,0-1.31-1.36,3.9,3.9,0,0,0-3.56,0Z"/><path class="cls-5" d="M189.57,252.11a5.44,5.44,0,0,1,1.29,3.89v7.06h-2.51v-6.8a3.51,3.51,0,0,0-.79-2.45,2.81,2.81,0,0,0-2.18-.87,3,3,0,0,0-2.34.94,3.87,3.87,0,0,0-.87,2.74v6.44h-2.51v-6.8a3.51,3.51,0,0,0-.79-2.45,2.81,2.81,0,0,0-2.18-.87,3,3,0,0,0-2.34.94,3.87,3.87,0,0,0-.87,2.74v6.44H171V250.94h2.51v2.53a3.85,3.85,0,0,1,1.54-2,4.52,4.52,0,0,1,2.53-.71,4.59,4.59,0,0,1,2.63.75,4.2,4.2,0,0,1,1.61,2.16,4.46,4.46,0,0,1,1.7-2.14,4.72,4.72,0,0,1,2.64-.77A4.5,4.5,0,0,1,189.57,252.11Z"/><g id="Layer_2-2" data-name="Layer 2"><g id="Draw_Layer-2" data-name="Draw Layer"><path class="cls-5" d="M114.23,43.47a9.23,9.23,0,0,0-1,.06c-.55.06-1.11.14-1.64.22l-.44.06c-1.23.18-2.43.42-3.76.68-.62.12-1.26.24-1.88.33s-1.45.22-2.15.36c-1,.23-2.07.55-3.07.85l-.85.27c-.92.28-1.84.62-2.73,1l-1.34.49c-.57.19-1.09.35-1.61.5l-.24.07c-.57.17-1.16.34-1.73.54s-1.06.42-1.57.63-1,.4-1.46.58l-.45.15c-.39.12-.79.25-1.19.4l-.84.33-.88.35h0l-.14,0-.13,0A44.27,44.27,0,0,0,80.86,53l-1,.47c-.38.19-.77.38-1.16.55l-.51.22c-.54.24-1.1.48-1.65.74s-1.3.67-2.1,1.15l-.29.18c-.23.15-.47.29-.72.43l-1.21.61-.25.12a18.4,18.4,0,0,0-1.7.9c-.34.2-.67.43-1,.67l-.15.11-1,.52c-.67.39-1.3.84-1.91,1.28l-.24.16-.51.37-1.41,1c-.68.49-1.23.9-1.72,1.3-.66.52-1.29,1.11-1.84,1.62-.19.18-.39.37-.59.54-.35.33-.72.66-1.06,1-.51.51-1,1.06-1.47,1.59l-.21.24c-.52.59-1,1.21-1.51,1.81s-.91,1.12-1.38,1.66-1,1.18-1.42,1.74-1,1.36-1.39,2-.74,1.11-1.17,1.82l-.06.09c-.41.66-.82,1.34-1.2,2-.29.55-.62,1.09-.93,1.62-.14.24-.27.47-.42.7-.43.75-.84,1.51-1.31,2.42s-.9,1.79-1.32,2.67c-.3.63-.6,1.26-.92,1.88-.15.29-.3.58-.46.87-.49.92-1,1.88-1.42,2.85-.24.55-.52,1.22-.78,1.91-.14.38-.29.74-.44,1.11l-.36.92c0,.1-.08.21-.13.32s-.2.51-.29.77c-.15.41-.28.82-.4,1.24s-.31,1-.47,1.47l-.19.59a17.53,17.53,0,0,0-.54,2.25,4.54,4.54,0,0,0-.09.51c0,.14-.05.28-.08.43s-.07.36-.11.54-.06.31-.09.46c-.11.58-.2,1.16-.27,1.65s-.2,1.2-.29,1.7a37.2,37.2,0,0,0-.69,3.91c-.15,1.37-.27,2.58-.31,3.82,0,.49,0,1,0,1.47,0,.82,0,1.67-.07,2.5,0,1.31,0,2.61.05,3.92v0c0,.64,0,1.31,0,2,0,.4,0,.81,0,1.22l0,1c0,1,0,1.69.07,2.38l0,.28c0,.74.08,1.5.16,2.25a19.6,19.6,0,0,0,.3,2c.1.51.24,1,.38,1.5l.24.86c.15.61.27,1.23.39,1.84l.06.36c.13.69.29,1.42.48,2.23s.35,1.52.6,2.29.49,1.54.71,2.16l.37,1.05c.1.28.21.56.3.84a21.33,21.33,0,0,0,1,2.31c.12.25.27.5.4.74l.17.31.33.58.28.48c.44.79.81,1.49,1.13,2.14s.53,1.12.77,1.67.62,1.34.95,2a21.88,21.88,0,0,0,2.43,3.87c.4.51.84,1,1.39,1.64A16.73,16.73,0,0,1,51,165.93c.18.28.38.57.57.9s.27.46.39.7l.27.49a18,18,0,0,0,1.62,2.52,8.48,8.48,0,0,0,.89,1A15.41,15.41,0,0,0,56,172.63c.74.55,1.53,1.15,2.3,1.82.49.45,1,.92,1.44,1.38s1.15,1.11,1.74,1.63,1.29,1.15,1.94,1.72l.07,0c.27.23.54.47.81.68l1,.77c.41.3.84.59,1.26.87l.69.47c.69.47,1.31.94,1.91,1.42.2.15.39.31.58.47.37.31.75.63,1.14.92a17.73,17.73,0,0,0,1.89,1.2c.73.41,1.32.78,1.87,1.15.33.23.65.48,1,.71s.63.5,1,.72A32.37,32.37,0,0,0,80,190.56l.14.07.35.18,1,.51.29.14c.22.12.44.23.67.33a14.56,14.56,0,0,0,2,.73l.75.22c.46.12.92.26,1.38.4.28.08.52.17.78.26l.17,0,.8.24.32.1c.86.24,1.78.46,2.82.67.52.11,1,.21,1.51.33.78.2,1.44.35,2.12.47.44.08.9.14,1.34.2l.75.1c.65.1,1.24.2,1.81.31s1.19.27,1.85.45,1.42.34,2.07.48c1,.21,1.83.35,2.59.45s1.64.18,2.26.23c1.41.13,2.84.24,4.22.34l.4,0,.55,0,1.79.13c.25,0,.53,0,.86,0h1.29c.45,0,.9,0,1.34,0,.26,0,.51,0,.76,0h.58l.69,0c.33,0,.66,0,1-.06l.29,0,.27,0,1.5-.09.49,0a11.79,11.79,0,0,0,1.18-.12c.52-.09,1-.2,1.59-.31a10.8,10.8,0,0,1,1.27-.19c.68,0,1.21-.08,1.69-.14a14.09,14.09,0,0,0,1.71-.38h0l.55-.15c.33-.09.68-.19,1-.25a5.22,5.22,0,0,1,.66-.09h.14a3.62,3.62,0,0,0,.46-.06l.36,0c.21,0,.43,0,.64-.06s.55,0,.82-.09c.51-.07,1-.14,1.43-.23a9.71,9.71,0,0,0,1.33-.39l.23-.09.7-.24.7-.25.73-.24c.85-.27,1.73-.55,2.59-.89l1.48-.59c.66-.28,1.35-.55,2-.81l.23-.07a21.55,21.55,0,0,0,2.58-1c.67-.32,1.33-.67,2-1l.59-.33c.81-.42,1.62-.86,2.3-1.24l.94-.51.37-.2c.48-.26.93-.55,1.3-.8l.08-.05.09-.06-.08,0-.07.05a42.06,42.06,0,0,0,3.52-2.7c1.16-1,2.36-1.91,3.57-2.81s2.34-1.74,3.51-2.68l.44-.35a38.32,38.32,0,0,0,2.93-2.5c.47-.46.94-.92,1.4-1.39l.26-.25c.3-.3.6-.62.89-.92s.51-.55.76-.79a45.68,45.68,0,0,0,3.18-3.49c.72-.89,1.43-1.82,2.11-2.73l.46-.61c.49-.64,1-1.32,1.46-2.08.16-.24.32-.49.49-.73.27-.42.57-.86.83-1.29.59-1,1.15-2,1.7-3,.24-.44.48-.88.73-1.32a43.8,43.8,0,0,0,2-4.12c.54-1.29,1.07-2.54,1.63-3.78.3-.66.6-1.37.87-2.1.18-.5.34-1,.5-1.52l.15-.47c.35-1.1.71-2.21,1-3.34l.12-.47c.08-.34.17-.69.25-1s.19-.87.27-1.3l.13-.63,0,.08c.12-.57.22-1.14.33-1.71l.13-.65.06-.36c.12-.57.23-1.17.32-1.76.11-.78.22-1.57.3-2.37.06-.55.14-1.09.22-1.62l.11-.71c.18-1.25.32-2.6.47-4.38.08-.89.11-1.62.12-2.29v-2c0-.27,0-.55,0-.8v-.19c0-.44,0-.88,0-1.31v0c0-.35,0-.71,0-1.06v-1.07c0-.26,0-.51,0-.77,0-.45,0-.91,0-1.36,0-.78-.11-1.58-.21-2.44-.19-1.7-.41-3.34-.65-4.87-.1-.63-.22-1.26-.34-1.87l-.08-.38c0-.21-.09-.42-.14-.63s-.07-.3-.1-.46l0-.11c-.07-.32-.14-.65-.23-1a14.41,14.41,0,0,0-.67-1.91c-.18-.42-.4-.83-.61-1.23l-.14-.27c-.24-.46-.46-1-.67-1.41s-.53-1.17-.84-1.73q-.31-.55-.66-1.11l-.43-.73-.63-1.12-.44-.78c-.15-.26-.27-.51-.42-.76s-.38-.68-.58-1-.59-.93-.9-1.37l-.23-.34c-.39-.61-.75-1.26-1.08-1.87s-.61-1-.91-1.56l-.14-.23c-.43-.72-.84-1.37-1.22-2l-.42-.64c-.27-.43-.57-.87-.84-1.31l-.69-1.13c-.16-.24-.31-.49-.46-.73l-.46-.77q-.36-.61-.75-1.23c-.55-.82-1.06-1.53-1.56-2.16-.31-.39-.65-.76-1-1.11l-.57-.62-.12-.14c-.18-.21-.38-.43-.54-.65s-.46-.59-.65-.86l-.36-.5-.18-.27c-.17-.24-.36-.47-.55-.7l-.1-.13c-.51-.64-1-1.24-1.46-1.76-.29-.33-.56-.68-.84-1l-.66-.82c-.44-.52-.89-1.07-1.39-1.57s-1-1-1.36-1.41l-.82-.91L166,62a20.53,20.53,0,0,0-1.58-1.51l-.6-.5-.2-.16-.58-.44-.3-.25-.49-.4c-.34-.28-.68-.55-1-.84l-.42-.38-.61-.57h0l-.05,0h0l0,0a17.1,17.1,0,0,0-1.71-1.34l-1.12-.74-.68-.44c-1.08-.71-2.23-1.32-3.34-1.91l-.32-.16c-.84-.45-1.61-.86-2.4-1.22l-.59-.28-.38-.17-.37-.16c-.24-.11-.48-.23-.73-.33l-.27-.11c-.61-.26-1.24-.52-1.87-.75s-1.47-.54-2.26-.76l-.23-.07c-.39-.11-.79-.22-1.18-.35l-.36-.12c-.31-.1-.63-.21-.95-.3l-.69-.19-.6-.18c-.46-.12-.92-.21-1.46-.3l-.39-.09-.33-.08-.29-.06-.65-.16c-.51-.14-.95-.25-1.37-.34l-.5-.09-.29,0L134,46c-.9-.22-1.84-.45-2.77-.59-.66-.09-1.32-.23-2-.35-.29-.06-.58-.1-.88-.15l-.82-.14c-.65-.14-1.36-.27-2.08-.38s-1.29-.15-1.91-.2c-1.07-.09-2.16-.17-3.22-.24l-.65-.07-4.13-.27-.28,0-.77,0h-.32ZM87.11,93.7A11.89,11.89,0,0,1,85,93.51c-.35-.08-.71-.19-1.06-.29l-.27-.08a10.45,10.45,0,0,1-1.54-.55l-.43-.24a3.14,3.14,0,0,1-.51-.39,6.46,6.46,0,0,1-.93-1.09,10.64,10.64,0,0,1-.94-1.8,6,6,0,0,1-.21-1,13,13,0,0,1,.24-2.48,6,6,0,0,1,.32-1c.13-.3.27-.61.43-.9s.44-.73.66-1.07l.26-.4a14.41,14.41,0,0,1,1-1.44A7,7,0,0,1,83,80a3.46,3.46,0,0,1,.6-.32c.16-.07.32-.12.49-.18l.31-.11c.3-.12.6-.25.88-.39l.7-.3a12.79,12.79,0,0,1,1.49-.33,1.27,1.27,0,0,0,.06.18,1.15,1.15,0,0,0,.66.58l.08,0a5.22,5.22,0,0,1,.56.18l.29.18,0,0a5.9,5.9,0,0,0,.7.38l.39.14a4.92,4.92,0,0,1,.6.23l.58.3.4.22a2.33,2.33,0,0,1,.35.27,3.6,3.6,0,0,1,.37.41c.07.12.14.23.2.35a3.72,3.72,0,0,0,.22.38c.15.25.32.5.48.73l0,.07A6.65,6.65,0,0,1,94,84.12a9.82,9.82,0,0,1,.44,1.93,6.36,6.36,0,0,1-.06.87,7.77,7.77,0,0,1-.59,1.54c-.17.33-.32.68-.47,1s-.21.49-.32.73a7.75,7.75,0,0,1-.86,1.33,10.86,10.86,0,0,1-1.37,1.17,6.68,6.68,0,0,1-1,.47,15.05,15.05,0,0,1-2.39.55h-.36Zm40.63,12.66.66-.45.34-.23.19-.13a9.93,9.93,0,0,1,1.36-.74l.44-.2a8.25,8.25,0,0,1,.86-.37,8.89,8.89,0,0,1,1-.24,9.66,9.66,0,0,0,1.07-.22,16.3,16.3,0,0,1,2.18-.38h.5c.59,0,1.21,0,1.95.11,1,.1,1.79.21,2.52.34.3.07.6.15.89.24s.63.25.94.4l.82.36.8.36c.2.11.39.25.58.37s.49.31.74.45.73.36,1.14.53l.15.07.52.22c.21.12.41.26.61.39l.28.18c.27.18.54.34.81.5l.07,0a12,12,0,0,1,1.7,1.23,8.93,8.93,0,0,1,1.17,1.36l.5.75a15.3,15.3,0,0,1,.82,1.55c.23.51.44,1,.63,1.44s.21.72.3,1.07l0,.07.18.59c.06.19.15.46.21.7a13.24,13.24,0,0,1,.27,1.53v.12l.21,1.41c.09.55.13,1.1.18,1.62s.07.89.13,1.33c.12.9.21,1.81.27,2.78,0,.54.07,1.07.11,1.6l0,.27a27.67,27.67,0,0,1,0,2.88l-.09,1.57c0,.46,0,.93-.08,1.39-.09,1.67-.17,3.37-.24,5l-.07,1.53c-.06,1.35-.13,2.7-.2,4.05l-.1,2c0,.52,0,1-.07,1.57v.19q0,.65-.09,1.29l0,.27c-.07.45-.13.91-.18,1.37s-.06.65-.08,1,0,.41,0,.61l-.15,1.56-.06.67v.12c-.05.46-.09.93-.16,1.39h-.54l-.58,0H153a4.07,4.07,0,0,1-.5,0h-.06l-.81-.05-.94,0h-.56c-.43,0-.87,0-1.29.08h-.22c-.45,0-.88,0-1.32.1l-.37.06c-.27,0-.53.08-.79.1h-.19a6,6,0,0,1-.73,0l-.6-.09-.51-.08c-.29,0-.59,0-.87-.07h-.72v-.11c0-.14,0-.27,0-.4l-.09-.55c0-.18-.06-.37-.09-.54s-.08-.58-.12-.87l0-.36c-.06-.36-.09-.76-.11-1.07l0-.82c0-.73-.07-1.49-.13-2.24a23.18,23.18,0,0,1,0-2.36l0-.27c0-.74.09-1.47.14-2.2l.05-.56c.05-.65.09-1.33.12-2s0-1.64-.06-2.73c0-.51,0-1,0-1.51v-.43c0-.87-.08-1.66-.17-2.4-.16-1.34-.29-2.73-.39-4.16,0-.6,0-1.21,0-1.8v-1.16c0-.62,0-1.23-.11-1.84,0-.32-.09-.64-.14-1,0-.15-.05-.3-.07-.44l0-.21a10.09,10.09,0,0,0-.23-1.22,8.51,8.51,0,0,0-.3-1c-.06-.17-.14-.35-.21-.52l-.08-.17-.27-.66c-.09-.23-.18-.44-.27-.66a7.07,7.07,0,0,0-.88-1.47c-.08-.11-.18-.22-.27-.33l-.15-.17-.38-.43-.08-.09a7.54,7.54,0,0,0-1.28-1.18,10.3,10.3,0,0,0-1.64-.87,7.47,7.47,0,0,0-1.84-.54,5.79,5.79,0,0,0-.92-.07h-.59a11,11,0,0,0-1.81.2,12.63,12.63,0,0,0-1.69.51,13.07,13.07,0,0,0-1.34.56,8.93,8.93,0,0,0-2.66,2,9.18,9.18,0,0,0-1.06,1.34,12.54,12.54,0,0,0-.83,1.53,9.8,9.8,0,0,0-.57,1.44c-.08.27-.15.57-.22.84s-.08.37-.13.55a22.62,22.62,0,0,0-.69,3.27c-.1.83-.15,1.68-.21,2.51l0,.68c-.07,1-.15,2-.26,3.12q-.06.71-.15,1.41c-.06.55-.12,1.09-.17,1.64-.08,1.07-.13,2.16-.15,3.09,0,1.19,0,2.25,0,3.25s.07,2.09.06,3.1v2.1c0,.39,0,.8,0,1.2,0,.78,0,1.58-.07,2.34,0,.28,0,.55,0,.84,0,.73,0,1.45,0,2.18,0,.48.05,1,.08,1.41h-.09c-.34,0-.71,0-1.16.06q-.43,0-.87.12l-.92.11h-.33l-.67,0L115,156l-.44,0h-.63c-.66,0-1.33,0-2-.07l-1.37-.06h-1a21.09,21.09,0,0,1-2.51-.12l0-.42v-.26c0-.33,0-.68,0-1a17.34,17.34,0,0,0-.11-1.77c0-.16,0-.32,0-.49s0-.48,0-.72,0-.55,0-.82,0-.47,0-.7c0-.43-.06-.87-.09-1.3l0-.27,0-.4q0-.48-.09-1c-.06-.52-.1-1-.14-1.36,0-.64,0-1.3,0-1.93v-1c0-.84,0-1.7-.08-2.54v-.92c0-1-.07-2-.05-3,0-.58,0-1.17.06-1.74s0-1,.06-1.48,0-1,0-1.54v-1.4c0-.95.09-2,.1-3.08s0-1.85-.06-3.09c0-1,0-2,0-3v-.12c0-1.29,0-2.27,0-3.19s-.09-2-.07-3,0-2,0-3.2v-1.55c0-.54,0-1.06,0-1.57s0-1.13,0-1.61.05-.94.08-1.41a3.16,3.16,0,0,0,.32,0H107l.44,0,.28,0H108c.24,0,.48,0,.71,0h.75c.49,0,1,0,1.49,0h1.2c.28,0,.55,0,.8,0s.77-.06,1.14-.1l.82-.08c.28,0,.53,0,.8,0h.6c.37,0,.74,0,1.11,0l.55,0h.75c.3,0,.61,0,.91,0a7.58,7.58,0,0,0,.82-.08c0,.24,0,.49.08.73s.06.49.08.73.07.64.11,1,.1.75.13,1.13v1c0,.32,0,.72,0,1.09,0,.17,0,.34,0,.5a1.42,1.42,0,0,1,0,.29,1.49,1.49,0,0,0,.23,1.07,1.09,1.09,0,0,0,.8.36.75.75,0,0,0,.21,0,1.1,1.1,0,0,0,.58-.31l.19-.21.09-.09.19-.2h0a4.92,4.92,0,0,0,.5-.61l.32-.61a5.19,5.19,0,0,1,.42-.65l.09-.13c.16-.22.33-.46.56-.73s.3-.32.46-.47l.06-.06c.16-.16.34-.31.51-.45l.14-.12q.72-.59,1.5-1.11h0l.06,0h0Zm-39.52-.67h.36a23.19,23.19,0,0,0,2.33-.16l.5-.06c.45-.06.91-.11,1.36-.15h.33a7.81,7.81,0,0,0,.06.78c0,.16,0,.32.07.47s0,.23,0,.34V108c0,.43,0,.89,0,1.41a23.2,23.2,0,0,1-.06,2.89c-.06.93-.12,1.93-.13,2.94a29.09,29.09,0,0,0,.17,3.09c0,1,0,2,0,2.8s0,1.72.05,2.55l0,.57c0,.24,0,.47,0,.71s0,.61,0,.92a14.56,14.56,0,0,1,0,1.48v.11c0,.41,0,.82,0,1.24,0,.63,0,1.3-.08,1.95,0,.37-.07.75-.12,1.12,0,.14,0,.29,0,.43L93,133.74l-.09.73c0,.27-.07.57-.1.85s-.07.79-.1,1.17l0,.37-.05.63c-.13,1.89-.27,3.85-.45,5.76-.08.89-.19,1.75-.32,2.56,0,.31-.1.61-.15.92l-.06.35c-.06.31-.1.62-.15.93l0,.36c-.11.72-.23,1.58-.29,2.47a20.44,20.44,0,0,0,.07,2.71l0,.3v.3h0l-.2,0-.55.09h-.81a5.08,5.08,0,0,0-.67.07l-.51.12-.53.15-.39.11a4.32,4.32,0,0,1-.8.14,12.66,12.66,0,0,0-1.94.22l-.46.1-.51.11c-.31.07-.63.11-1,.15h-.72l-.63,0c-.55,0-1.09.06-1.66.11h-.33a7.52,7.52,0,0,1-.82-.05h0v-.07a1.27,1.27,0,0,1-.06-.28c0-.58-.05-1.21-.09-1.9,0-.31,0-.63,0-.93v-.44q0-.75.06-1.47c.06-1,.13-2,.19-3s.1-2,.09-3c0-.24,0-.49,0-.74s0-.45,0-.67v-1.54c0-.78.05-1.56.1-2.33l0-.57.19-3c.12-1.95.25-4.17.27-6.37,0-.29,0-.59,0-.88,0-.45,0-.9,0-1.36,0-.77,0-1.53.08-2.28s.05-1.62,0-2.46-.06-1.55-.12-2.3v-.16c0-.45,0-.9,0-1.3s0-.68,0-1c0-.16,0-.31,0-.46,0-1,.08-2,0-3a14.48,14.48,0,0,0-.11-1.67c0-.15,0-.3,0-.46s-.07-.61-.11-.91-.09-.56-.14-.85l-.09-.54c-.07-.45-.14-.91-.2-1.36-.09-.67-.14-1.32-.19-2.1v-.46l.06.08a1,1,0,0,0,.73.37,18.47,18.47,0,0,0,2.22-.19l.54-.07c.69-.09,1.43-.16,2.39-.24.46,0,.92,0,1.43,0h.55c.23,0,.47,0,.71,0l1,0Z"/><path class="cls-5" d="M45.77,54.59a3.55,3.55,0,0,0-.9.58,7.07,7.07,0,0,0-1,1.11,5.24,5.24,0,0,0-.73,1.28,8.36,8.36,0,0,0-.4,1.64,3.44,3.44,0,0,0,0,.64,6.66,6.66,0,0,0,.06.76,3.55,3.55,0,0,0,.3.94,3.67,3.67,0,0,0,1.09,1.29,5.59,5.59,0,0,0,.82.47,5.35,5.35,0,0,0,1.2.42c.31.08.62.14.92.19a4.17,4.17,0,0,0,1.32,0,3.59,3.59,0,0,0,.9-.27,3.4,3.4,0,0,0,.71-.42c.1-.07.2-.13.3-.21a3.92,3.92,0,0,0,.6-.62,4.48,4.48,0,0,0,.32-.44,6.22,6.22,0,0,0,1.36-2.38l.18-.67c0-.16.07-.33.1-.5a2.75,2.75,0,0,0,0-.86,3,3,0,0,0-.57-1.28,4.33,4.33,0,0,0-.91-.85A4.21,4.21,0,0,0,50,54.76c-.5-.12-1-.22-1.52-.29a12.13,12.13,0,0,0-1.23-.18h-.15a3.31,3.31,0,0,0-1.32.3Z"/><path class="cls-5" d="M64,41.7a7.92,7.92,0,0,0-1.91.45,7.12,7.12,0,0,0-1.39.67,5.9,5.9,0,0,0-.8.59,5.57,5.57,0,0,0-.72.82l-.41.64a6.2,6.2,0,0,0-.44.94,8.9,8.9,0,0,0-.6,3.23,5.06,5.06,0,0,0,.35,1.76,4.85,4.85,0,0,0,.48.9,4.91,4.91,0,0,0,.62.82,6.76,6.76,0,0,0,.62.57,3.43,3.43,0,0,0,.55.35,6.87,6.87,0,0,0,1.23.57,6.58,6.58,0,0,0,.61.42,7.21,7.21,0,0,0,1.65.69,5.79,5.79,0,0,0,1.89.29,9.81,9.81,0,0,0,1.09-.1A6.44,6.44,0,0,0,67.87,55l.67-.28a6,6,0,0,0,.87-.54A6.66,6.66,0,0,0,70.64,53c.14-.16.27-.33.4-.5a6,6,0,0,0,.51-.93,5.67,5.67,0,0,0,.22-.66c.1-.37.17-.75.24-1.12a8,8,0,0,0,.19-1.46,8.88,8.88,0,0,0,0-1,7.28,7.28,0,0,0-.13-.77,10.64,10.64,0,0,0-.52-1.63,4.85,4.85,0,0,0-.7-1.15,4.39,4.39,0,0,0-.76-.73,5,5,0,0,0-.9-.52,6.75,6.75,0,0,0-1.46-.48c-.59-.13-1.19-.25-1.8-.33a8.76,8.76,0,0,0-1-.08A8.46,8.46,0,0,0,64,41.7Zm2.18,7h0Zm0,0-.08,0Zm-.11.44,0,0h0l0,0Z"/><path class="cls-5" d="M199.24,151.42A3,3,0,0,0,198,152a3.87,3.87,0,0,0-.92.93,6.62,6.62,0,0,0-.86,1.13,3.77,3.77,0,0,0-.48,1.11,5.81,5.81,0,0,0-.13,1,2.69,2.69,0,0,0,.82,2.14,4.5,4.5,0,0,0,.78.6,3.07,3.07,0,0,0,.39.23,3.52,3.52,0,0,0,.63.27,4.11,4.11,0,0,0,.7.13,3.17,3.17,0,0,0,1-.06,3,3,0,0,0,.5-.11,9.57,9.57,0,0,0,1-.33,3.56,3.56,0,0,0,1.21-.82,8.79,8.79,0,0,0,1.21-1.45,4.16,4.16,0,0,0,.35-.7,2.15,2.15,0,0,0,.13-.57,1.88,1.88,0,0,0,0-.58,4.14,4.14,0,0,0-.27-1.13,3.59,3.59,0,0,0-1-1.45,4.41,4.41,0,0,0-1-.62,4.28,4.28,0,0,0-1.83-.4,4.47,4.47,0,0,0-.82.08Zm1.13,3.86.09.14a.77.77,0,0,1-.09-.13Zm0,.13v0Z"/></g></g></g></g></svg>