<svg xmlns="http://www.w3.org/2000/svg" viewBox="0 0 382.65 210.24"><defs><style>.cls-1{fill:#fefefe;}</style></defs><g id="Layer_2" data-name="Layer 2"><g id="Draw_Layer" data-name="Draw Layer"><path class="cls-1" d="M368.22,156.27a4.25,4.25,0,0,0-3.71-2.12,4.11,4.11,0,0,0-2.09.55,4.2,4.2,0,0,0-2.11,3.46c-.12.41-.25.81-.4,1.21a5.7,5.7,0,0,1-.3.54c-.1.18-.22.35-.33.52a6.51,6.51,0,0,0-.57,1.19,9,9,0,0,1-.68,1.16c-.29.41-.55.84-.83,1.25-.67.73-1.45,1.38-2.16,2.06-.39.38-.83.7-1.25,1s-.62.59-.93.87a18.7,18.7,0,0,1-2.47,1.47c-2,.72-4.11,1.15-6.17,1.68s-4,.91-6.08,1.22c-3.92.44-7.87.63-11.81.76-4.12.13-8.24.24-12.36.41-2,.07-3.91.21-5.87.24-2.2,0-4.39,0-6.58-.13-3.92-.19-7.84-.46-11.76-.76-4.22-.33-8.44-.64-12.65-1.09s-8.47-.59-12.7-1l-6.23-.62c-2.05-.21-4.13-.27-6.19-.35l-12.66-.52c-4.11-.18-8.21-.46-12.32-.69-4.35-.25-8.71-.38-13.06-.71-2.18-.16-4.35-.37-6.53-.5s-4.23-.22-6.35-.31c-4.41-.18-8.82-.19-13.24-.25-4-.05-7.92-.08-11.89-.18l-6.28-.12c-2.14,0-4.27-.15-6.41-.14-4.27,0-8.53.42-12.79.64-2.12.12-4.25.26-6.37.33s-4.09.05-6.14.15c-4.2.21-8.39.59-12.6.79s-8.23.2-12.34.5a120.15,120.15,0,0,0-13.36,1.83c-2,.39-4.1.74-6.13,1.17s-4.21.92-6.32,1.32c-8.17,1.55-16.07,4.18-24.09,6.35-4,1.08-8.11,2-12.14,3.11s-8.13,2.29-12.19,3.46c-2.36.68-4.72,1.35-7.06,2.08s-4.39,1.65-6.57,2.48c-2.44.93-4.9,1.84-7.31,2.84-2.08.87-4.13,1.8-6.2,2.69C7.91,197.66,4.1,199,.42,200.63l-.42.2v9.41c2.16-1.07,4.34-2.1,6.56-3.05q3.62-1.42,7.25-2.8c2.64-1,5.19-2.24,7.78-3.34,1.75-.69,3.53-1.3,5.27-2s3.75-1.51,5.65-2.19,4.05-1.26,6.08-1.87,4.09-1.19,6.14-1.77c4.14-1.17,8.26-2.41,12.45-3.42s8.08-2,12.09-3.15c6.43-1.78,12.75-3.85,19.3-5.12,3.25-.63,6.47-1.37,9.72-2s6.46-1.18,9.71-1.65c1.91-.24,3.82-.46,5.74-.58s4.05-.19,6.07-.27c4.29-.16,8.57-.32,12.85-.66q3-.24,6-.35c2.09-.07,4.18,0,6.27-.15,4.29-.2,8.57-.48,12.86-.73,2-.13,4.06-.23,6.09-.2s4.32.11,6.49.14c4.15.07,8.3.2,12.45.25s8.37,0,12.55.1,8.62.3,12.91.55c2.21.13,4.41.36,6.62.52s4.36.3,6.55.4,4.36.17,6.54.29,4.1.28,6.16.4c4.14.23,8.29.34,12.43.53s8.4.25,12.57.68c2,.2,4,.41,6,.58,2.17.19,4.33.29,6.5.44,4.23.27,8.46.81,12.69,1.15q6.1.49,12.23.88c4.1.26,8.18.5,12.3.43,2,0,3.95-.18,5.92-.27s4.09-.11,6.14-.18c4.2-.16,8.4-.25,12.59-.55a75.14,75.14,0,0,0,11.75-1.62c1.78-.42,3.56-.89,5.33-1.35a19.91,19.91,0,0,0,5.28-2.16,22.19,22.19,0,0,0,3.66-2.73c.45-.41.93-.76,1.38-1.16s.82-.78,1.23-1.17a16.7,16.7,0,0,0,1.39-1.4l.21-.28a1.88,1.88,0,0,0,.16-.23c.12-.22.24-.44.37-.65.31-.56.53-1.16.78-1.74s.54-1.17.78-1.76c.15-.35.25-.73.38-1.09s.29-.6.4-.91c.21-.56.46-1.11.64-1.67,0-.14.08-.28.11-.41l0-.06h0v0l.09-.33-.09.33v0h0l0,.08V161c.08-.29.16-.59.25-.88a.83.83,0,0,0,0-.15c.07-.25.14-.49.22-.73a7.11,7.11,0,0,0,.15-.75,12.3,12.3,0,0,1,.33-1.33v-.08c0-.11.07-.22.1-.33S368.3,156.43,368.22,156.27Z"/><path class="cls-1" d="M7.37,206.84l-.32.14.32-.14Z"/><path class="cls-1" d="M368.34,157.14h0v0Z"/><path class="cls-1" d="M368.33,157.16a1,1,0,0,1,0,.14c0-.05,0-.1,0-.15Z"/><path class="cls-1" d="M378,57.4a4.3,4.3,0,0,0-3,1.22,4.24,4.24,0,0,0-.85,1.17c0,.08,0,.16.05.24a17.73,17.73,0,0,1,.27,3.78,41.87,41.87,0,0,1-.35,4.62v0q0,.69-.06,1.38c-.17,1.29-.29,2.57-.42,3.86l0-.21c-.23,2-.29,4-.47,6-.12.8-.22,1.6-.32,2.41-.09.52-.21,1-.33,1.54s0,.74,0,1.1c0,.55-.13,1.09-.22,1.64,0,.36-.08.72-.11,1.07a11.68,11.68,0,0,1-.22,1.18c-.09,1.33-.28,2.66-.42,4-.1.94-.18,1.87-.32,2.8s-.3,1.66-.46,2.48c-.32,1.61-.6,3.22-.85,4.84-.13,1-.31,2.1-.47,3.16-.2,1.36-.45,2.7-.66,4s-.42,2.7-.7,4-.59,2.58-1,3.86c-.07.21-.12.42-.18.64-.14.87-.27,1.73-.46,2.6-.11.45-.2.91-.29,1.37-.15,1.08-.3,2.16-.53,3.24s-.43,2-.59,3c-.09.71-.15,1.42-.29,2.12s-.33,1.36-.51,2c-.06.17-.1.35-.15.52s-.08.59-.11.88c-.15.91-.36,1.82-.49,2.73-.18,1.24-.27,2.46-.38,3.69-.05.41-.11.82-.16,1.22-.2,1.19-.59,2.37-.86,3.55a35.73,35.73,0,0,0-.61,4.11c-.19,1-.52,1.9-.79,2.83-.47,1.63-1,3.24-1.46,4.86a4.25,4.25,0,0,0,8.2,2.23c.48-1.58,1-3.15,1.43-4.73.07-.5.16-1,.22-1.48a16.65,16.65,0,0,1,.45-2.21l0-.05,0,.05v0a13,13,0,0,0,.4-1.81c.05-.34.09-.67.13-1s.05-.74.13-1.11c.28-1.37.52-2.75.8-4.12.12-.62.27-1.24.39-1.86.07-.3.12-.61.18-.91,0-.11.05-.22.08-.33,0-.34.07-.68.1-1,.11-.67.24-1.34.37-2,.18-.94.28-1.9.39-2.86.3-1.85.79-3.64,1.17-5.48.26-1.25.42-2.51.66-3.76s.53-2.34.71-3.52.3-2.14.52-3.2c.19-.91.39-1.83.53-2.75.2-1.18.36-2.36.59-3.54s.39-2.4.55-3.61c.12-.88.26-1.74.35-2.62.06-.54.09-1.09.14-1.63.32-2,.84-4,1.35-5.95a33,33,0,0,0,.7-4.21c.13-1,.13-2,.25-3l-.15,1.13c.19-1.35.26-2.71.4-4.06.15-.89.36-1.77.57-2.65a27.4,27.4,0,0,0,.49-3.25c.11-.72.23-1.45.3-2.18s.07-1.19.14-1.78c.11-1.14.09-2.29.22-3.43l-.06.42c.14-1.07.22-2.15.35-3.23s.26-2.07.3-3.13a15.16,15.16,0,0,0-.3-3c0-.28-.07-.56-.11-.85-.1-1,.07-1.92,0-2.88a4.43,4.43,0,0,0-1.22-3,4.26,4.26,0,0,0-3-1.27Z"/><path class="cls-1" d="M143.91,90c-2.2.11-4.4.14-6.6.2s-4.2.25-6.3.37c-4.09.25-8.18.68-12.26,1.07-4.35.42-8.68,1.12-13,1.87-1.92.32-3.83.69-5.75,1-1.64.29-3.29.49-4.92.81-4,.76-8.07,1.67-12,2.75s-7.82,2.42-11.73,3.6c-3.34,1-6.72,1.9-10.08,2.83-3.6,1-7.11,2.28-10.67,3.4-1.46.46-2.93.86-4.39,1.33-1.62.51-3.22,1.09-4.83,1.63-.78.27-1.59.48-2.39.71-1.18.34-2.32.77-3.47,1.21-1.89.72-3.72,1.58-5.55,2.43a4.25,4.25,0,0,0,.73,7.82,4.39,4.39,0,0,0,3.24-.31c1.8-.83,3.6-1.65,5.44-2.38,1.67-.58,3.39-1,5.05-1.58s3.24-1.11,4.88-1.61l4.75-1.45c2-.64,4.05-1.38,6.09-2,3.64-1.14,7.34-2.06,11-3.11,3.88-1.11,7.7-2.38,11.56-3.57,3-.94,6.11-1.63,9.2-2.31,2.86-.64,5.73-1.28,8.64-1.68s5.89-1.07,8.84-1.52c3.16-.48,6.29-1,9.46-1.39,3.81-.37,7.62-.74,11.43-1,4.36-.3,8.72-.45,13.09-.6,2.67-.09,5.34-.24,8-.28l.38,0a7.53,7.53,0,0,1,1.06,0h.4c.6,0,1.2,0,1.81,0,.44,0,.88,0,1.33,0l1.15,0,1,0c.79.06,1.57.25,2.36.34a2,2,0,0,1,.71.22h.1c2.12.13,4.25.23,6.38.36,4.31.28,8.63.38,12.93.73,4,.33,8,.7,12,1.16,8.35,1,16.7,1.87,25,3.13,3.92.67,7.82,1.46,11.66,2.49,4.11,1.11,8.19,2.36,12.26,3.6q12.4,3.8,24.8,7.62l4.91,1.51c1.61.5,3.2,1.11,4.78,1.69s3.35,1.22,5,1.88c1.48.6,2.93,1.25,4.38,1.91,2.38,1.12,4.69,2.35,7,3.6s4.62,2.4,6.93,3.6c4.17,2.17,8.28,4.45,12.55,6.42,1.34.63,2.66,1.26,4,1.87,1.58.75,3.15,1.51,4.78,2.16s3.25,1.34,4.86,2.06l-1-.48c1.7.79,3.42,1.53,5.14,2.28s3.3,1.67,4.94,2.53c.89.46,1.79.89,2.65,1.39s1.71,1.15,2.56,1.73c2,1.37,4.16,2.52,6.21,3.85,1.56,1,3.16,1.95,4.63,3.08a19.91,19.91,0,0,1,2.06,2.25,19.5,19.5,0,0,1,1.37,2.44q.15.52.27,1c0,.2,0,.39,0,.59q-.14.58-.3,1.17a4.25,4.25,0,0,0,8.13,2.5,19.85,19.85,0,0,0,.69-3.66,12.12,12.12,0,0,0-1.05-5.17,13.21,13.21,0,0,0-.91-1.75c-.3-.51-.58-1-.91-1.54a20.15,20.15,0,0,0-3.07-3.64,33.15,33.15,0,0,0-5.14-3.75c-1.9-1.25-3.89-2.35-5.82-3.55-1.67-1-3.2-2.29-4.93-3.23s-3.36-1.73-5-2.61c-2.35-1.25-4.86-2.2-7.28-3.31l1,.47q-2.31-1.05-4.63-2.05c-1.21-.53-2.45-1-3.65-1.52s-2.22-1-3.33-1.54c-1.44-.68-2.88-1.36-4.33-2l1,.47c-3.38-1.62-6.7-3.38-10-5.17-1.75-.95-3.52-1.83-5.28-2.76l-5.75-3c-2.21-1.16-4.47-2.21-6.76-3.22-2-.88-4-1.79-6-2.52l-5.82-2.11c-2-.73-4.14-1.31-6.21-1.94Q257,106,244.71,102.18c-4-1.23-8.08-2.48-12.16-3.58-4.23-1.14-8.52-2-12.84-2.74-4.6-.77-9.23-1.34-13.86-1.89l-12-1.4q-6-.69-12-1.18c-4.42-.36-8.85-.49-13.27-.76-2.06-.12-4.13-.22-6.19-.35s-4.28-.36-6.43-.48c-1.18-.07-2.37-.1-3.56-.1-2.85,0-5.71.16-8.56.3Z"/><path class="cls-1" d="M31,22.94l.09-.05.09-.06h0l.22-.13-.33.2-.6.4c-.23.15-.41.35-.63.5-.5.33-1,.57-1.56.85-.26.19-.5.4-.75.6a3.65,3.65,0,0,0-.28,1.48,4.53,4.53,0,0,0,0,.52c-.12.45-.24.9-.33,1.35-.21,1-.32,2-.46,3.06s-.36,1.73-.49,2.62c-.06.47-.05,1-.08,1.44-.14.72-.26,1.44-.34,2.17s0,1.23-.09,1.84,0,1.33,0,2c0,.86-.08,1.75-.18,2.61-.08.71-.11,1.44-.14,2.16s0,1.37,0,2a38.17,38.17,0,0,1,0,4.28,26.82,26.82,0,0,0-.38,5.44c.06,1.47,0,2.94-.06,4.41a27.87,27.87,0,0,0,.15,3.42,37.48,37.48,0,0,1,0,4.24c-.09,1.79-.25,3.6-.45,5.38a28.74,28.74,0,0,0,.18,4.54c.08,1.43.12,2.86.08,4.29-.07,3,.09,6.09-.18,9.13a40.84,40.84,0,0,0,.06,5.64c.05,1,0,1.91.07,2.86a19.26,19.26,0,0,0,.41,3.39c.07.32.12.64.16,1,.14,2,.31,4,.35,5.94,0,2.39-.11,4.79-.31,7.17a4.25,4.25,0,0,0,7.13,3.25,4.38,4.38,0,0,0,1.37-3,69.4,69.4,0,0,0,.27-9c-.07-1.42-.22-2.83-.32-4.24s-.36-2.67-.55-4c0-.79,0-1.59-.05-2.38S33,98.45,33,97.55a50.09,50.09,0,0,1,.14-5.2c.11-2.86.1-5.71.13-8.57,0-1.41-.06-2.82-.18-4.22a24.53,24.53,0,0,1,0-4.37c.15-1.73.31-3.46.39-5.2a34,34,0,0,0-.19-5c0,.37.08.73.11,1.1-.24-2.45,0-4.89-.05-7.34a27.08,27.08,0,0,1,.26-4.93.08.08,0,0,1,0,0c.1-.63.17-1.25.21-1.88s0-1.39,0-2.07c-.05-1.36-.08-2.7,0-4,.08-1.57.29-3.14.23-4.72,0-.56.05-1.11.07-1.68s0-1.08.1-1.62a17.29,17.29,0,0,0,.31-2c0-.38,0-.76,0-1.14.14-.65.29-1.3.4-2,.08-.51.12-1,.18-1.53s.17-.79.27-1.19l.18-.64a9.28,9.28,0,0,0,.27-1.43,3.53,3.53,0,0,0,0-.92,4.23,4.23,0,0,0-4.12-4.36h-.08l-.54.34ZM24.88,66.1a1.23,1.23,0,0,0,0,.2,1.23,1.23,0,0,1,0-.2Z"/><path class="cls-1" d="M175,.14c-2,.06-4,.09-6,.18C165.31.47,161.67.74,158,1c-1.6.1-3.19.24-4.8.4H153l-1.15.12c-1.69.16-3.38.26-5.08.33s-3.62.21-5.43.39c-3.85.3-7.71.52-11.56.83-4.24.35-8.46.94-12.68,1.47-1.75.22-3.5.42-5.24.68-2,.31-4,.68-5.92,1-3.48.53-7,1-10.48,1.44-.89.12-1.77.23-2.66.32l-3,.29-.09,0h0a4.68,4.68,0,0,1-.54.1l-.39.06-.29.09-.2.06.1,0a10.52,10.52,0,0,1-2.72.55l.31,0-.7,0-.57,0c-.25,0-.5,0-.75.07-.46.06-.92.15-1.38.22l-.69.11-.54.11-.13,0c-1,.25-1.94.4-2.91.57l-1.11.19-.94.2c-.42.09-.83.2-1.25.28l-.55.09c-1.36.28-2.72.55-4.09.8-1.75.32-3.52.52-5.27.82s-3.31.59-5,1c-2,.46-4,1.08-6,1.59s-3.94,1-5.92,1.41c-1.57.35-3.14.62-4.72.9L41.76,18c-.47.16-.91.36-1.35.55-.74.33-1.51.59-2.27.88s-1.42.65-2.16.91a18,18,0,0,0-1.81.91c-.34.16-.68.33-1,.48s-.6.22-.88.36-.78.54-1.18.79h0l.09-.06h0l.22-.13-.33.2-.51.34a4.15,4.15,0,0,0-.06,4A4.27,4.27,0,0,0,36.25,29c1.29-.73,2.54-1.56,3.9-2.16,1.41-.43,2.85-.65,4.3-.94,1.81-.36,3.63-.66,5.43-1,2-.4,3.95-.89,5.9-1.39s4-1.12,6-1.59c1.68-.39,3.37-.69,5.07-1s3.42-.48,5.13-.79c3.33-.6,6.63-1.38,10-2,1.38-.24,2.75-.54,4.13-.82,1.66-.34,3.34-.57,5-.77,3.25-.32,6.48-.67,9.72-1.15,2.83-.42,5.69-.71,8.51-1.21,3.16-.56,6.32-1,9.51-1.39S125,12,128,11.69c4.82-.46,9.65-.64,14.47-1.11,1.75-.14,3.51-.23,5.26-.28,2.18-.07,4.38-.33,6.55-.57l-1.1.11,1.24-.13h0c1.77-.17,3.56-.26,5.33-.38s3.75-.28,5.62-.38c3.88-.22,7.77-.3,11.66-.41s7.5,0,11.25.07c.88,0,1.75,0,2.63,0,1.05,0,2.1,0,3.15,0,2,0,4,.17,6.05.24,3.86.13,7.73.26,11.58.7,4.11.46,8.23.93,12.36,1.27,3.93.32,7.86.76,11.78,1.18,2.13.23,4.24.51,6.36.82s4,.46,6,.7c.91.12,1.8.25,2.7.39l-1.12-.18,4.09.65c2.46.43,4.91.85,7.37,1.25,2,.35,4,.84,6,1.23s4,.89,6,1.42c4,1.07,8.13,1.81,12.18,2.77s7.75,2.15,11.59,3.32q6,1.83,12.08,3.7l5.87,1.81c1.71.52,3.35,1.22,5,1.85s3.25,1.09,4.84,1.72,3.32,1.38,5,2.09c1.92.84,3.89,1.55,5.87,2.24s3.79,1.49,5.71,2.2,3.66,1.22,5.41,2a49.42,49.42,0,0,0,4.74,1.84c.68.23,1.4.42,2.08.68s1.46.72,2.21,1.06c1.11.55,2.21,1.14,3.37,1.62.86.36,1.76.61,2.63.95l2,1-1-.48c.66.31,1.24.75,1.88,1.08a7,7,0,0,1,1,.51c.23.15.45.33.68.49.52.35,1,.75,1.57,1.06a11.57,11.57,0,0,1,1.3.9c.53.47,1.05.93,1.6,1.38.17.14.35.26.53.39s.42.43.61.65l.33.47.1.15v0l.05.06a11,11,0,0,1,.83,1.23,9.6,9.6,0,0,1,.94,3,17.73,17.73,0,0,1,.27,3.78c0,.56,0,1.12-.07,1.68a4.34,4.34,0,0,0,1.48.8,4.25,4.25,0,0,0,3.24-.31,4.06,4.06,0,0,0,2.07-2.5,11.83,11.83,0,0,0,.33-2.12c0-.3,0-.59,0-.89a2.9,2.9,0,0,0,0-.83c0-.36-.07-.72-.11-1.07a5.59,5.59,0,0,0-.14-2c-.1-.44-.25-.87-.34-1.31,0-.22-.05-.44-.08-.66a2.21,2.21,0,0,0-.08-.35,5.27,5.27,0,0,0-.18-1,6.48,6.48,0,0,0-1-2q-.3-.47-.63-.9a9,9,0,0,0-1.32-1.64A19.37,19.37,0,0,0,376,47.34l-.39-.27c-.36-.32-.72-.64-1.09-1l.42.36a14.72,14.72,0,0,0-2.3-1.78c-.62-.35-1.16-.79-1.75-1.18-.24-.15-.45-.33-.68-.48a10.23,10.23,0,0,0-1.09-.57c-.33-.17-.64-.37-.95-.57a10.86,10.86,0,0,0-1.44-.74,27.68,27.68,0,0,0-3.25-1.44c-.68-.22-1.34-.47-2-.74l-1.1-.57c-.61-.33-1.23-.6-1.86-.87-.39-.2-.77-.41-1.16-.59a24.68,24.68,0,0,0-3-1.14A44.18,44.18,0,0,1,349.65,34c-1.75-.79-3.56-1.36-5.36-2s-3.84-1.51-5.78-2.23-3.88-1.38-5.79-2.17c-1.67-.71-3.33-1.43-5-2.12s-3.23-1.13-4.83-1.73-3.37-1.36-5.09-1.91q-11.76-3.7-23.57-7.2c-1.91-.57-3.84-1.12-5.79-1.6s-4.12-.92-6.19-1.36-4-.86-5.92-1.38l-2.08-.55c-.35-.05-.69-.13-1-.2a11.8,11.8,0,0,1-1.44-.4c-.49-.11-1-.22-1.49-.31-1.67-.33-3.32-.73-5-1.07s-3.31-.57-5-.83c-2.78-.49-5.56-1-8.35-1.4l1.12.18c-2.21-.37-4.42-.66-6.64-.93s-4.3-.56-6.45-.85c-4-.54-8-.87-12-1.28s-8-.73-12-1.18c-2-.22-4-.49-6.07-.65s-3.81-.27-5.72-.34c-4-.17-8-.41-12-.39-1.91,0-3.82,0-5.73,0S183,0,181.16,0h-.87c-1.77,0-3.54.08-5.31.14ZM141.43,2.22h0Zm14.09,7.39-.35,0,.35,0Zm225.9,49.1s0,.06,0,.08a.31.31,0,0,1,0-.08Zm0,0s0,0,0,.06c0,.19-.07.39-.1.58,0-.22.07-.43.09-.64Zm0,.09a.13.13,0,0,0,0,.06.13.13,0,0,1,0-.06Z"/><path class="cls-1" d="M145.46,92.66a18.24,18.24,0,0,1-2.37.68,17.62,17.62,0,0,0-2.59.79c-.37.12-.73.22-1.11.31a12.49,12.49,0,0,0-1.84.63c-.37.13-.74.27-1.1.42a9.08,9.08,0,0,1-1.36.36c-.68.13-1.36.27-2,.43a19.89,19.89,0,0,0-2.88.88c-.85.32-1.67.72-2.49,1.09-1.71.76-3.38,1.61-5.09,2.39-1.08.48-2.15,1-3.24,1.47s-2.14.88-3.22,1.3l-2.4.88.13-.05-.22.08-.23.09c-1.36.5-2.73,1-4.12,1.4-1,.28-1.92.52-2.86.84s-2.11.74-3.16,1.13c-2,.75-4,1.44-6.06,2.2-1.64.62-3.24,1.33-4.88,2A129.1,129.1,0,0,1,75.7,117c-2.72.59-5.41,1.32-8.12,2-1.57.38-3.14.81-4.71,1.16s-3.12.58-4.7.78-3,.18-4.48.2c-1.75,0-3.5.21-5.26.27s-3.62-.17-5.43-.24c-1.35,0-2.71-.13-4.06-.31-.7-.15-1.4-.33-2.11-.49a18.16,18.16,0,0,1-2.64-.76c-.8-.38-1.58-.79-2.36-1.19a4.47,4.47,0,0,0-3.25-.56A4.36,4.36,0,0,0,26,119.73a4.3,4.3,0,0,0-.55,3.26,4.1,4.1,0,0,0,1.85,2.61,28,28,0,0,0,6.26,2.72,38,38,0,0,0,5.87,1.14,76.92,76.92,0,0,0,11.75.3c2-.16,3.91-.11,5.85-.22a49.54,49.54,0,0,0,7.57-1c2.08-.46,4.14-1,6.21-1.53,1.77-.42,3.52-.92,5.3-1.33,2-.46,4-.91,5.91-1.45,2.12-.6,4.25-1.21,6.35-1.89s4.07-1.39,6.09-2.14,4.18-1.69,6.28-2.5,4.08-1.46,6.11-2.22c1.64-.59,3.31-1.06,5-1.54s3.32-1.13,4.95-1.76a112.56,112.56,0,0,0,10.48-4.32c2.06-1,4.11-2,6.23-2.9.77-.22,1.57-.4,2.37-.57.52-.26,1-.52,1.54-.82.74-.44,1.55-.7,2.32-1.08a40.48,40.48,0,0,1,5.2-2.23l0,0c.41-.15.84-.28,1.27-.41l.58-.18,1.11-.38-.3.09c.57-.19,1.13-.4,1.71-.58l1.12-.31a4.24,4.24,0,0,0-1.61-5.27,4.56,4.56,0,0,0-2.34-.7,3.1,3.1,0,0,0-.92.14Zm-41.76,15-.28.1.28-.1Z"/><path class="cls-1" d="M113.55,104.35l.09,0,.09,0-.18.06Z"/><path class="cls-1" d="M82.54,9.43a13,13,0,0,0-1.36.25c-1,.25-1.94.4-2.91.57-.55.1-1.1.18-1.65.3s-1.1.27-1.65.37c-1,.19-2.09.24-3.14.36-.63.08-1.24.2-1.86.28L68,11.81c-1.13.17-2.26.35-3.38.57-.53.11-1.06.25-1.59.37s-1.08.21-1.62.31c-1,.18-2.07.34-3.07.62a22.42,22.42,0,0,1-2.44.64c-.82.16-1.64.34-2.44.57-1.49.43-3,.58-4.55,1l-.26.07-.25.08.25-.08.24-.07c-.55.17-1.11.31-1.67.46l-.69.23h0l.1,0,0,0,0,0-.1,0-.11,0-.23.07.16,0-.43.13c-.46.15-.91.31-1.38.43l-.83.22c-.67.21-1.35.44-2,.64-.47.16-.91.36-1.35.55-.74.33-1.51.59-2.27.88s-1.42.65-2.16.91a17,17,0,0,0-1.81.91l-.1.05-.49.34a4.2,4.2,0,0,0-1.19,1.88,4.25,4.25,0,0,0,2.81,5.31,4,4,0,0,0,3.24-.3,37.9,37.9,0,0,1,4.67-3c1.35-.68,2.78-1.2,4.19-1.75,1.65-.59,3.31-1.14,4.94-1.79,2-.79,3.94-1.59,5.85-2.53,1.58-.77,3.17-1.5,4.74-2.29s3.33-1.7,5.06-2.41,3.45-1.25,5.19-1.85c2.11-.72,4.24-1.39,6.32-2.2,1.12-.42,2.22-.88,3.32-1.37l-.18,0Z"/><path class="cls-1" d="M151,92c-.3.16-.61.3-.92.44-.83.28-1.67.52-2.51.75-1.08.29-2.14.64-3.24.84a31.4,31.4,0,0,0-3.19.59c-1.42.39-2.81.82-4.21,1.28a4.55,4.55,0,0,0-2.61,1.86,4.25,4.25,0,0,0,1.3,5.86,4.7,4.7,0,0,0,.87.43l.88-.49c.74-.44,1.55-.7,2.31-1.08a40.05,40.05,0,0,1,5.32-2.26l-.1,0-.06,0,.06,0c.4-.14.81-.27,1.21-.39l.59-.19,1.11-.37-.31.09c.58-.19,1.13-.4,1.72-.57.44-.14.88-.25,1.32-.37a7.48,7.48,0,0,1,1.23-.26,9.42,9.42,0,0,1,1.06,0h.4c.6,0,1.2,0,1.81,0,.44,0,.89,0,1.33,0h.12a4.36,4.36,0,0,0,.26-4.41A4.22,4.22,0,0,0,153,91.52a4.57,4.57,0,0,0-2,.47Z"/><path class="cls-1" d="M371.92,89.28c-.1,1-.24,2.08-.35,3.12s-.18,1.87-.32,2.8-.3,1.66-.46,2.48c-.09.44-.17.87-.26,1.31,1.71-.68,3.42-1.39,5.11-2.1a4.11,4.11,0,0,0,2.08-2.5,4.25,4.25,0,0,0-.31-3.24,4.32,4.32,0,0,0-2.51-2.08,4,4,0,0,0-1.16-.18,5.18,5.18,0,0,0-1.82.39Z"/><path class="cls-1" d="M29,104.16a4.26,4.26,0,0,0-2-2.59,4.61,4.61,0,0,0-2.21-.6,2.82,2.82,0,0,0-1,.17c-1.05.41-2.12.75-3.17,1.16-1.39.55-2.78,1.12-4.14,1.75-1.87.87-3.72,1.77-5.61,2.59A51.61,51.61,0,0,0,.58,112.1l-.58.4v10l.57-.3a37.77,37.77,0,0,0,3.65-2.35,50.57,50.57,0,0,1,8.67-5c1.62-.67,3.25-1.33,4.85-2.07s3-1.44,4.52-2.11c1.25-.49,2.51-.91,3.76-1.4l1.06-.44a4.26,4.26,0,0,0,2-4.76Z"/><path class="cls-1" d="M10.57,106.79l-.35.15.35-.15Z"/><path class="cls-1" d="M353.58,163.64a1.52,1.52,0,0,0-1.91-.93,3.25,3.25,0,0,1-.42.11l-.43.14c-.74.15-1.49.33-2.21.55-.42.12-.82.29-1.24.42s-.88.26-1.33.36-1.15.15-1.73.21-1.33.16-2,.22-1.39.06-2.09.1l-2,.13c-.68.05-1.36.1-2,.12s-1.4,0-2.1,0c-1.28,0-2.55,0-3.83,0s-2.43-.1-3.65-.15l-1-.05.19,0-.19,0h0l-1.54-.07.39,0c-2-.1-3.92-.16-5.88-.09s-3.85,0-5.77,0c-1.13-.06-2.26-.15-3.4-.21s-2.44-.06-3.66-.11l-1,0-1.29-.07c-1-.06-1.93-.16-2.89-.26s-1.84-.16-2.76-.26-1.85-.21-2.78-.28-1.65-.1-2.48-.14l-2.2-.12h-.12l-.5,0h.1c-1.1-.06-2.2-.09-3.3-.13-1.48-.09-2.95-.24-4.43-.37s-3-.26-4.45-.35l-1.59-.07c-1.58-.09-3.16-.25-4.75-.37-.85-.06-1.7-.15-2.55-.22s-1.79-.11-2.69-.15c-1.73-.12-3.45-.27-5.18-.37-.89-.05-1.78-.05-2.67-.07s-1.68-.06-2.52-.1l-1.83-.1c-2.06-.14-4.11-.38-6.17-.51s-4.39-.34-6.59-.43c-1.66-.09-3.33-.22-5-.31h.27l-2.9-.14.38,0-1.28-.07.39,0-.95,0c-1.89-.11-3.76-.34-5.64-.51-.93-.09-1.87-.14-2.8-.18s-2.12,0-3.19-.06l-1.59-.08c-1.49-.08-3-.2-4.47-.28-1.8-.11-3.6-.31-5.4-.42l-4.8-.33c-1.72-.1-3.45-.14-5.18-.18-3-.06-6.05-.13-9.08-.18-.77,0-1.54,0-2.31,0s-1.6,0-2.4,0c-1.46,0-2.92,0-4.39-.06l-1.31-.07.38,0-2.49-.13h-.19c-1.59-.09-3.19-.13-4.79-.12-1.77,0-3.53,0-5.29,0h-.32c-.76,0-1.52,0-2.27,0H162c-1.6,0-3.21,0-4.81.11-.76,0-1.51.09-2.26.14l-2.78.15c-1.66.1-3.31.17-5,.3s-3.41.16-5.12.29-3.47.3-5.21.49c-2.88.31-5.77.54-8.63,1-.76.12-1.52.18-2.29.27s-1.37.17-2,.27c-1.49.21-3,.37-4.47.61s-3,.55-4.51.74-2.92.37-4.38.54c-3,.35-6,.74-9,1.36h0l-.07,0h0l-2.29.5-1.62.34q-1.36.27-2.73.51c-1.06.19-2.1.43-3.14.66s-1.8.35-2.71.51-1.67.28-2.5.44c-1.91.39-3.77.89-5.66,1.38-1.72.44-3.46.86-5.18,1.34s-3.52,1-5.31,1.35c-1,.19-1.92.39-2.87.61-.7.14-1.41.28-2.1.46s-1.46.42-2.18.65-1.23.43-1.85.63-1.44.42-2.16.64c-1.52.48-3.07.91-4.62,1.33s-3.22.8-4.82,1.24-3,.92-4.53,1.4c-.72.22-1.44.44-2.15.69s-1.54.52-2.31.76c-1.34.41-2.69.79-4,1.14s-2.73.89-4.1,1.31c-.76.24-1.53.43-2.28.68s-1.6.54-2.4.82c-1.43.48-2.87.94-4.28,1.48-.57.22-1.15.43-1.72.67s-1.39.62-2.09.94-1.32.61-2,.88-1.38.54-2.06.83c-2.93,1.26-5.87,2.49-8.92,3.47-.76.25-1.53.5-2.3.73a24.49,24.49,0,0,0-2.51,1c-.69.3-1.39.56-2.08.85v3.26L1.27,196c.77-.33,1.56-.63,2.33-1A21.81,21.81,0,0,1,6,194.19c.81-.27,1.63-.51,2.44-.79,1.57-.53,3.14-1.08,4.66-1.72s2.78-1.2,4.18-1.76l1.91-.76c.73-.3,1.46-.66,2.18-1,1.22-.56,2.46-1.08,3.73-1.53,1.47-.53,3-1,4.44-1.53.72-.25,1.45-.52,2.18-.73s1.65-.47,2.47-.74c1.32-.43,2.64-.89,4-1.25s2.76-.77,4.13-1.2,3-1,4.48-1.45c.73-.22,1.45-.46,2.17-.7s1.57-.46,2.36-.68c1.59-.45,3.22-.78,4.81-1.23s3.08-.88,4.61-1.34c.65-.2,1.31-.38,2-.59s1.33-.46,2-.68c.85-.27,1.71-.51,2.59-.71h-.06l2.73-.58c1.38-.27,2.75-.57,4.11-.93s2.83-.77,4.25-1.13c2.69-.69,5.37-1.45,8.08-2.06,1.13-.22,2.28-.4,3.42-.62,1.38-.27,2.76-.53,4.15-.83,1.65-.34,3.32-.63,5-1l.22,0,.15,0-.12,0L102,166l-.37.09,1-.22c1.62-.32,3.25-.55,4.88-.78s3.34-.42,5-.62,3.43-.41,5.13-.72c.8-.14,1.6-.29,2.41-.41s1.73-.23,2.59-.34c1.66-.22,3.31-.45,5-.64.8-.08,1.59-.23,2.39-.34s1.6-.19,2.41-.27l5.09-.52c1.73-.19,3.46-.37,5.19-.48,1.37-.08,2.73-.13,4.09-.22s2.91-.21,4.38-.27c2.73-.11,5.45-.36,8.18-.44,1.26,0,2.53,0,3.79-.05h2c.8,0,1.6,0,2.4,0,2.89,0,5.78,0,8.67.07l1.81.1,2.22.12h-.08c1.86.12,3.74.08,5.61.12,1,0,2,0,3.06,0s1.92,0,2.89,0l5.54.12c1.93,0,3.86.06,5.8.14,5.67.36,11.34.89,17,1.15q1.35.06,2.7.06c.71,0,1.42.05,2.13.08,1.22.1,2.45.24,3.67.37s2.41.21,3.62.27l.92,0,2.34.11-.39,0c.58,0,1.16.07,1.74.09h-.15c1.71.09,3.41.23,5.12.31,2,.12,4,.29,6,.41,1.09.07,2.18.17,3.27.29s2.19.18,3.29.24l-.39,0c1.14.07,2.28.14,3.41.18s2.19,0,3.29.08c1.95.12,3.9.29,5.86.4h-.07c3.61.21,7.2.63,10.82.78l-.39,0,.83.05c.9.06,1.8.17,2.71.24s1.87.15,2.81.24c2,.2,4,.27,6.05.34l.4,0h-.07l.3,0H290l.69,0c.95.07,1.9.11,2.85.16,3.36.21,6.71.71,10.07.89l2,.11-.39,0c1.36.08,2.73.08,4.08.13l-.38,0c2.52.15,5,.34,7.56.33,1.27,0,2.53,0,3.8-.06s2.51,0,3.76.09l-.39,0,1.51.07,1,.05c1.09.06,2.18.07,3.27.12s1.94.1,2.92.12c.54,0,1.08,0,1.62,0h1.27c2.1,0,4.2-.23,6.3-.31,1,0,2-.16,3-.26a18.73,18.73,0,0,0,3-.5c.73-.2,1.44-.47,2.17-.68s1.27-.35,1.91-.48h0a4.12,4.12,0,0,0,.55-.15c.17-.06.37-.07.54-.14a1.6,1.6,0,0,0,.86-.76A1.53,1.53,0,0,0,353.58,163.64Z"/><path class="cls-1" d="M180.82,157.12l.38,0-.38,0Z"/><path class="cls-1" d="M220.44,158.61l.33,0-.33,0Z"/><path class="cls-1" d="M178.08,160h0Z"/><path class="cls-1" d="M219.78,161.55l.23,0-.23,0Z"/><path class="cls-1" d="M232,162.34h0Z"/><path class="cls-1" d="M241.81,162.88h0Z"/><path class="cls-1" d="M303.12,164.18l.37,0-.37,0Z"/><path class="cls-1" d="M326.67,164.87l.28,0-.28,0Z"/><path class="cls-1" d="M277.76,165.24l.35,0-.35,0Z"/><path class="cls-1" d="M325,167.77h0Z"/><path class="cls-1" d="M326,167.82h0Z"/><path class="cls-1" d="M67.82,170.66l-.29.06.29-.06Z"/><path class="cls-1" d="M70.15,173.19l-.2.05.2-.05Z"/><path class="cls-1" d="M69.92,173.24l-.15,0,.15,0Z"/><path class="cls-1" d="M99.14,166.65h-.07l.1,0Z"/><path class="cls-1" d="M325.67,164.82Z"/><path class="cls-1" d="M290.33,163.14h0Z"/><path class="cls-1" d="M289.76,163.11l-.29,0,.29,0Z"/><path class="cls-1" d="M101.52,163.09h.08l-.08,0Z"/><path class="cls-1" d="M236.69,162.57l-.24,0,.24,0Z"/><path class="cls-1" d="M233,162.39h0Z"/><path class="cls-1" d="M236.54,159.58h0Z"/><path class="cls-1" d="M177.38,156.94h0Z"/><path class="cls-1" d="M343.32,156.55a3.08,3.08,0,0,0-1.39.2l-.44.05a4.39,4.39,0,0,0-.78.18c-.92.15-1.86.22-2.78.3-1.44.13-2.89.27-4.33.29l-5,.11c-1.66,0-3.32.1-5,0l.38,0-1.16-.06h.22c-1.27-.1-2.54-.21-3.81-.29-1.48-.1-2.95-.31-4.41-.52-2.7-.38-5.43-.41-8.13-.79-1.53-.22-3.07-.34-4.6-.52-.76-.08-1.52-.14-2.28-.24l-2.41-.32c-1.47-.19-2.95-.31-4.43-.41s-3.12-.25-4.69-.36c-1.2-.08-2.41-.23-3.61-.36s-2.55-.27-3.81-.43c-2.47-.32-4.94-.61-7.42-.73l.39,0c-1.74-.11-3.47-.21-5.2-.42s-3.42-.41-5.14-.6c-1.91-.2-3.83-.31-5.74-.44s-3.61-.28-5.41-.38h.06c-1.79-.12-3.56-.36-5.35-.53s-3.85-.31-5.78-.4h.15l-.62,0-2.72-.16h0l-2.92-.14c-2.3-.13-4.58-.41-6.86-.72-1.06-.15-2.12-.21-3.19-.3s-2.21-.16-3.32-.24c-2.41-.17-4.81-.41-7.22-.58s-4.81-.11-7.22-.21c-.85-.06-1.71-.11-2.57-.15l.39,0c-1.6-.09-3.2-.18-4.8-.22s-3,0-4.48-.07-3.25-.07-4.88-.09-3.19-.09-4.8-.1-3.36,0-5-.05l-2,0c-1,0-2,0-2.95.06-1.6.07-3.2.15-4.81.19-1.82,0-3.65.06-5.48.13-1.57.06-3.14.13-4.71.15s-2.89.15-4.34.22-3.16,0-4.74.08-3.29.16-4.92.27l-2.13.13-2.45.2c-.76.06-1.53.16-2.3.22l-2.61.23c-3.14.29-6.28.65-9.42,1-1.52.15-3,.43-4.51.69-1.82.33-3.66.58-5.48.89-1.62.26-3.25.48-4.87.74s-3.25.57-4.87.92l-4.85,1c-.86.16-1.73.3-2.59.43s-1.54.28-2.31.44-1.67.33-2.5.55c-1.28.35-2.59.61-3.89.92-2.87.66-5.74,1.37-8.62,2l.26-.06-1.78.39c-.62.12-1.25.25-1.87.39s-1.39.28-2.08.44l-1,.21a2.05,2.05,0,0,0-.34.07l-3.1.68c-.76.14-1.52.27-2.27.45s-1.64.37-2.46.58c-1.61.41-3.22.88-4.82,1.34s-3.08.85-4.62,1.26-2.77.83-4.17,1.21c-.79.21-1.6.38-2.4.57s-1.49.38-2.23.57a43.83,43.83,0,0,0-4.47,1.43c-1.51.54-3,1.07-4.56,1.54s-3.07,1-4.61,1.42-3,.78-4.56,1.23-2.9.95-4.36,1.43-2.88,1-4.33,1.42-3,.92-4.54,1.4c-.76.24-1.5.5-2.27.71s-1.64.47-2.45.75c-1.4.49-2.84.85-4.23,1.35-.72.26-1.41.58-2.12.87L6.25,181c-1.5.63-3,1.16-4.58,1.68L0,183.21v3.16l1-.32c1.45-.52,2.92-1,4.36-1.52s3-1.18,4.5-1.81a22.34,22.34,0,0,1,2.1-.83c.73-.24,1.47-.48,2.21-.7s1.35-.42,2-.65c.82-.29,1.66-.51,2.5-.74s1.53-.49,2.3-.74l2.36-.73c1.47-.44,2.94-.91,4.4-1.4s2.77-.93,4.16-1.38c1.58-.52,3.17-1,4.78-1.38,1.44-.36,2.85-.81,4.26-1.25s3.09-.95,4.62-1.49,3.09-1.13,4.65-1.62,2.89-.79,4.35-1.13c.8-.19,1.61-.36,2.4-.59s1.44-.43,2.16-.65c1.51-.45,3-.81,4.56-1.24,3.13-.87,6.24-1.8,9.41-2.49,1-.21,2-.4,3.07-.63l1.49-.33.12,0c.17,0,.34-.07.52-.1l.72-.15,1.59-.34,1.63-.35,2.32-.48-.27,0c2.53-.53,5-1.15,7.55-1.74l4.05-.94c.87-.2,1.73-.44,2.61-.63l1.33-.27h0l.36-.08-.16,0c1.17-.23,2.35-.38,3.53-.59s2.63-.57,3.94-.85l-.19,0,3.42-.72c3-.58,6-1,9.07-1.46,1.69-.26,3.39-.52,5.08-.83,1.43-.26,2.85-.47,4.29-.61,3.16-.32,6.32-.67,9.48-1,1.63-.15,3.26-.31,4.89-.44s3.12-.23,4.69-.34,3.25-.2,4.87-.23,3.11,0,4.66-.1,2.9-.18,4.36-.2,3.22-.11,4.84-.16l5.26-.12c1.67,0,3.33-.15,5-.2,3.28-.1,6.58,0,9.86,0,1.34,0,2.67.08,4,.1l4.35.08c2.59.05,5.18,0,7.76.16.77.06,1.54.1,2.31.14,1.11.07,2.22.14,3.33.17,1.37,0,2.75,0,4.13.07,2,.11,4,.34,6.06.48s3.88.25,5.82.42c.87.08,1.74.12,2.61.23s1.95.28,2.93.39,2.12.21,3.18.31,2.06.12,3.09.16l1.35.08c1,.05,2.08.13,3.13.18l-.39,0c.39,0,.78,0,1.18.06h-.26c1.86.11,3.72.24,5.57.42.81.08,1.61.19,2.41.28,1,.11,2.06.18,3.1.23l-.4,0c1.78.1,3.56.26,5.33.37,1.92.14,3.83.28,5.74.47,1.72.17,3.43.4,5.14.6s3.7.31,5.54.41l-.39,0c.76,0,1.51.13,2.26.2s1.52.13,2.27.23q2.51.33,5,.6c3.12.35,6.26.61,9.4.82,1.49.1,3,.24,4.44.42l2.23.3c.82.11,1.64.17,2.46.27,1.53.17,3.06.29,4.58.51,1.32.19,2.66.27,4,.39.48,0,1,.07,1.43.11s1.1.12,1.65.17c1.17.13,2.34.32,3.51.45s2.25.21,3.37.3c1,.08,1.94.14,2.91.19h-.05l.32,0h0c1.72.08,3.45,0,5.17,0,.94,0,1.88,0,2.81-.05s1.76,0,2.64-.07c1.51,0,3-.24,4.5-.32.6,0,1.19-.12,1.78-.19a8.49,8.49,0,0,0,1.42-.28,5,5,0,0,0,.56-.06l.66-.15h.13a1.52,1.52,0,0,0,1.38-1.61v0A1.52,1.52,0,0,0,343.32,156.55Z"/><path class="cls-1" d="M207.16,147.6h0Z"/><path class="cls-1" d="M203.22,150.34h0Z"/><path class="cls-1" d="M98.88,154.93l-.28.06.28-.06Z"/><path class="cls-1" d="M111,155.55l-.28.06.28-.06Z"/><path class="cls-1" d="M110.72,155.61l-.1,0,.1,0Z"/><path class="cls-1" d="M98.46,158l-.27.06.27-.06Z"/><path class="cls-1" d="M82.15,161.8h0Z"/><path class="cls-1" d="M99.82,157.77h0l.21,0-.2,0Z"/><path class="cls-1" d="M241.67,150l-.23,0,.23,0Z"/><path class="cls-1" d="M321.83,146.82a7.52,7.52,0,0,0-1.77-.15l-1.21-.07c-.73,0-1.47-.09-2.2-.1-2.16-.1-4.32,0-6.48-.14h0l-.72,0c-2-.15-4-.29-6-.39l-1.66-.08H302l-.3,0h0l-.63,0h.06c-1.24-.1-2.47-.23-3.7-.36s-2.39-.17-3.57-.32-2.53-.34-3.79-.55-2.66-.36-4-.56q-1.06-.17-2.16-.3c-.86-.12-1.73-.28-2.6-.37-1.61-.19-3.23-.31-4.84-.52s-3.27-.47-4.92-.66-3-.37-4.55-.49-2.81-.25-4.23-.32l-.83-.05h0c-2.37-.17-4.74-.39-7.1-.64-1.3-.14-2.6-.2-3.91-.31s-2.67-.11-4-.16h0l-.88-.05c-1-.08-2-.14-3-.23s-1.86-.21-2.8-.26c-2.08-.11-4.17-.16-6.25-.26l.39,0-2.77-.17.39,0-2.11-.12c-1.21-.07-2.43-.17-3.64-.28-1.37-.12-2.74-.23-4.11-.38-2.87-.32-5.76-.31-8.64-.43-1.4-.09-2.8-.2-4.19-.28s-2.76-.09-4.14-.14c-2.46-.09-4.93-.08-7.39-.2-1.57-.1-3.14-.23-4.71-.25s-2.92,0-4.38,0-2.67-.08-4-.08h-2.14c-.67,0-1.35,0-2,0-1.57.08-3.13.15-4.69.18-.72,0-1.43,0-2.15,0s-1.55,0-2.33,0l-4.66.09c-1.38,0-2.75.15-4.12.3-.72.07-1.43.15-2.14.2l-2.6.12c-1.68.09-3.35.13-5,.22-1.52.08-3,.11-4.56.22-.66.05-1.32.14-2,.22s-1.56.17-2.33.24c-1.68.16-3.37.29-5.05.46-.78.09-1.57.13-2.35.18s-1.54.13-2.31.2c-1.38.12-2.76.29-4.13.51-.66.1-1.3.23-2,.32s-1.39.17-2.07.3-1.11.22-1.65.34c-1.57.3-3.14.6-4.72.81l-2.59.34c-.79.1-1.59.25-2.38.38s-1.55.22-2.32.34l-2.31.4c-1.53.27-3,.66-4.54,1l-.5.1.09,0-.16,0-.22,0,.16,0-1.81.38-2.15.42a1.14,1.14,0,0,0-.32.07c-1.19.24-2.38.52-3.57.78l-1.51.32c-1,.2-2.11.4-3.15.64s-2,.48-2.93.7h0c-1.17.25-2.32.54-3.49.8l-.73.15h.06l-.09,0-.13,0c-1.38.28-2.74.64-4.11.93l-1.06.22-2.06.44h0l-.56.12-3.63.75c-1.09.24-2.18.52-3.25.82-2.42.69-4.84,1.31-7.29,1.83a78.28,78.28,0,0,0-8.69,2c-1.39.44-2.77.94-4.15,1.42-.64.22-1.27.46-1.91.69s-1.44.44-2.16.66l-4.28,1.31c-1.43.45-2.87.82-4.33,1.19-2.8.69-5.46,1.89-8.25,2.65q-1.06.28-2.13.54c-.82.18-1.62.46-2.42.7-1.49.45-3,.82-4.5,1.24s-2.92.84-4.37,1.28c-.65.19-1.26.44-1.88.69s-1.29.5-1.92.77c-1.22.52-2.44,1.08-3.68,1.57a41.65,41.65,0,0,1-4,1.41c-1.47.43-2.93.9-4.39,1.38l-.16.05v3.17l1.69-.57,2.09-.66c.81-.26,1.64-.47,2.44-.74,1.37-.47,2.73-.95,4.07-1.5,1.18-.48,2.33-1,3.52-1.52l1.79-.71c.68-.27,1.37-.49,2.08-.7s1.34-.37,2-.58,1.64-.49,2.46-.72l2.18-.57c.77-.21,1.53-.44,2.29-.67,1.5-.46,3-.82,4.53-1.22s2.75-.91,4.11-1.39l1.83-.62c.77-.25,1.56-.43,2.34-.63,1.47-.38,2.93-.79,4.38-1.25s2.8-.87,4.2-1.28c.66-.19,1.32-.39,2-.62s1.41-.52,2.13-.76c1.37-.46,2.72-1,4.11-1.38s2.91-.78,4.39-1.09l.55-.12c1.21-.25,2.42-.48,3.63-.75s2.71-.62,4.06-1,2.63-.76,4-1.1c1.06-.27,2.14-.52,3.21-.74h-.09l.2,0,.18,0-.11,0,2-.38h0l2.24-.48.7-.15c1.33-.27,2.64-.59,4-.9l1-.2.15,0H86.1l.12,0c1.2-.26,2.4-.55,3.6-.82h-.07c1.4-.3,2.79-.65,4.18-1l3.19-.65h0c1.13-.23,2.26-.5,3.39-.74.31-.06.63-.1.94-.19a5.61,5.61,0,0,0,.59-.13l3-.62h0l1.12-.23h-.08c1.13-.24,2.25-.53,3.38-.77s2.5-.45,3.76-.65c.65-.11,1.31-.18,2-.29s1.46-.25,2.2-.35l2.18-.29c.8-.1,1.59-.23,2.38-.36,1.36-.21,2.7-.48,4-.78.6-.11,1.2-.2,1.8-.28s1.39-.21,2.09-.32c1.38-.22,2.76-.42,4.15-.55l2.05-.19c.82-.06,1.66-.08,2.49-.17,1.69-.16,3.39-.29,5.08-.46,1.47-.14,2.93-.33,4.4-.47s3-.15,4.44-.24c1.66-.1,3.34-.11,5-.21l2.43-.12c.82,0,1.63-.12,2.44-.19,1.28-.13,2.55-.26,3.82-.32,1.42-.06,2.83-.05,4.25-.09s3.09,0,4.64,0c1.34,0,2.68,0,4-.08.78,0,1.55-.11,2.34-.13s1.32,0,2,0c1.25,0,2.5,0,3.75,0,1.46,0,2.92,0,4.37.06,1.13,0,2.26,0,3.38.06,1.27.07,2.53.19,3.8.23s2.35.07,3.53.1,2.13,0,3.19.07,2.3.08,3.45.1c1.63.11,3.25.24,4.88.32s3.12.08,4.68.14c2.07.13,4.13.34,6.19.53s4,.35,6,.45l-.38,0,2,.11-.4,0q4.11.24,8.2.38c.94.07,1.88.18,2.82.27,1.16.11,2.32.19,3.48.25h0c1,.05,1.95.06,2.93.1,2.09.12,4.17.29,6.25.49s4.38.46,6.57.56h-.06l1.1.06c3.06.2,6.1.54,9.14.92,1.66.21,3.31.5,5,.65s3.24.33,4.86.56l4.5.64c1.29.19,2.57.35,3.86.56s2.55.39,3.84.52c1.14.12,2.28.16,3.42.27s2.32.25,3.49.32h.25l1.64.08,1,0c1.9.13,3.8.28,5.7.38,1.19.06,2.39.12,3.58.09,1,0,2,0,3,.05h-.14l1.31,0c.6,0,1.2.08,1.8.1l1.13.06a5.31,5.31,0,0,1,.8.11,1.51,1.51,0,0,0,1.75-1.2A1.53,1.53,0,0,0,321.83,146.82Z"/><path class="cls-1" d="M229.8,139.17h0Z"/><path class="cls-1" d="M245.69,140.14l.3,0-.3,0Z"/><path class="cls-1" d="M239.73,142.62h0Z"/><path class="cls-1" d="M263.23,144.37h0Z"/><path class="cls-1" d="M101.18,145.41l-.17,0h0l.17,0Z"/><path class="cls-1" d="M100.93,145.46l-.13,0,.13,0Z"/><polygon class="cls-1" points="100.67 145.51 100.67 145.51 100.66 145.51 100.67 145.51 100.67 145.51 100.67 145.51"/><path class="cls-1" d="M316.92,146.52h0Z"/><path class="cls-1" d="M109.76,146.61l-.1,0,.1,0Z"/><path class="cls-1" d="M95.54,146.62l-.21,0,.21,0Z"/><path class="cls-1" d="M100.75,148.53l-.17,0,.17,0Z"/><path class="cls-1" d="M320.58,149.66h0Z"/><path class="cls-1" d="M61.14,157.49l-.27.06.27-.06Z"/><path class="cls-1" d="M76.12,153.91l-.11,0,.18,0Z"/><path class="cls-1" d="M78.14,153.52l.37-.08-.37.08Z"/><path class="cls-1" d="M86.22,151.75h-.07l.12,0,0,0Z"/><path class="cls-1" d="M316.63,149.48h0Z"/><path class="cls-1" d="M85.23,148.91h.09l-.09,0Z"/><path class="cls-1" d="M301.53,148.82h-.35l.35,0Z"/><path class="cls-1" d="M301.73,145.85h0Z"/><path class="cls-1" d="M105,144.64H105l.07,0-.13,0Z"/><path class="cls-1" d="M262.09,144.31l-.32,0,.32,0Z"/><path class="cls-1" d="M246.4,143.16Z"/><path class="cls-1" d="M246.92,140.21h0Z"/><path class="cls-1" d="M296.4,133.69a1.59,1.59,0,0,0-1-.64,4,4,0,0,0-1-.06c-.26,0-.52,0-.78,0l-1.26,0c-.84-.06-1.68-.14-2.52-.16s-1.72,0-2.58-.05l.39,0-1.31-.05c-1.57-.1-3.14-.22-4.71-.3l-2.36-.12.38,0-.77,0h.18c-2.59-.2-5.17-.54-7.77-.67h.25c-2.48-.15-5-.32-7.44-.58-1.31-.14-2.63-.3-3.95-.42-.77-.07-1.55-.11-2.33-.16l-2.31-.15c-1.46-.1-2.92-.2-4.39-.25l-3.23-.09c-1.76-.1-3.52-.13-5.28-.2s-3.39-.15-5.1-.18c-1.9,0-3.81,0-5.72-.08-1.63-.05-3.28-.07-4.92-.14h-.15c-3-.17-5.9-.21-8.85-.33l-2.18-.12c-2.37-.14-4.73-.16-7.09-.17-1.12,0-2.24,0-3.35,0-1.28,0-2.55,0-3.82-.08s-2.44-.21-3.67-.26-2.65,0-4-.08l-1.83-.05-2.08,0c-1.26,0-2.53,0-3.78,0s-2.29,0-3.44,0c-.71,0-1.43,0-2.14,0s-1.26,0-1.89,0c-1.12,0-2.24-.05-3.35-.05h-.48c-1.27,0-2.54.06-3.81.14s-2.27.11-3.4.19l-1.82.15c-.75.06-1.5.06-2.25.09-2.76.1-5.51.34-8.27.35-.74,0-1.48,0-2.22,0s-1.57.1-2.36.15c-1.49.07-3,.2-4.47.34l-3.9.36c-1.51.14-3,.31-4.54.44-1.91.16-3.81.48-5.72.74s-4.1.59-6.16.79c-1,.1-2.08.19-3.12.31l-3.19.37c-1,.11-2,.29-3,.49-.85.16-1.7.32-2.55.5l.2,0-.25,0-.13,0,.13,0c-2.63.52-5.29.87-7.93,1.36-1.17.22-2.36.36-3.53.55-.6.09-1.19.19-1.79.27-.79.12-1.56.29-2.34.47l-2.23.47c-1,.19-1.91.39-2.86.62-.76.18-1.5.41-2.24.63-1.5.43-3,.81-4.52,1.14-2.71.54-5.41,1.18-8.09,1.9-.73.19-1.44.43-2.17.62s-1.54.4-2.33.58c-1.51.34-3,.71-4.54,1.06s-3,.68-4.53,1.07c-1.25.33-2.49.68-3.73,1.06s-2.77.94-4.14,1.44-2.88.92-4.33,1.31-3,.9-4.54,1.36l-1.7.52c-.74.21-1.49.38-2.23.59-1.37.38-2.75.74-4.11,1.15s-2.54.81-3.79,1.25c-2.59.92-5.25,1.63-7.84,2.56-1.28.47-2.56,1-3.87,1.38-.61.2-1.22.4-1.83.58-.78.23-1.57.45-2.35.7-1.17.37-2.32.79-3.45,1.25s-2.34.91-3.53,1.28c-.62.19-1.25.35-1.87.52a18.55,18.55,0,0,0-1.78.59c-1.17.45-2.32,1-3.48,1.46s-2.18.87-3.27,1.3-2,.72-3.07,1v3.16c.88-.32,1.79-.59,2.68-.88,1.26-.39,2.47-.95,3.7-1.43s2.39-1,3.6-1.49c.55-.22,1.09-.45,1.66-.63s1.43-.43,2.15-.63a32,32,0,0,0,3.89-1.35c1.23-.51,2.48-1,3.75-1.37.72-.24,1.46-.42,2.18-.64l2-.64c1.3-.42,2.58-.91,3.86-1.37,2.59-.94,5.25-1.65,7.84-2.56,1.26-.44,2.52-.87,3.79-1.26s2.75-.75,4.11-1.15c.71-.2,1.42-.36,2.12-.56s1.22-.35,1.82-.54c1.5-.48,3-.94,4.53-1.36s2.9-.82,4.33-1.31,2.75-1,4.15-1.44c4.08-1.27,8.27-2.12,12.42-3.11l1.65-.37c.54-.13,1.07-.29,1.6-.44,1.07-.3,2.13-.62,3.21-.9,1.92-.52,3.86-.93,5.81-1.34l-.38.09c1.59-.32,3.18-.67,4.74-1.12l2.3-.67c.77-.22,1.56-.39,2.34-.56s1.77-.36,2.65-.55l1.57-.34c1.22-.23,2.45-.4,3.67-.58s2.53-.39,3.78-.62,2.55-.43,3.82-.64c1.42-.23,2.83-.5,4.24-.79s2.58-.52,3.88-.68l2.25-.25c.83-.11,1.67-.21,2.5-.29,1.54-.15,3.08-.3,4.62-.49s3-.41,4.56-.62,2.83-.45,4.27-.57,3.07-.29,4.6-.44l4-.37c1.43-.14,2.87-.25,4.31-.34l2.19-.15c.61,0,1.22,0,1.83,0h.55c1.48,0,2.94-.07,4.41-.12,1.29,0,2.57-.15,3.86-.21.74,0,1.47,0,2.21-.08s1.28-.1,1.92-.15c1.17-.09,2.34-.14,3.51-.21s2.45-.14,3.67-.15c.63,0,1.26,0,1.89,0s1.3,0,1.95,0l1.73,0,2.34,0c1.21,0,2.42,0,3.63,0s2.59,0,3.89,0,2.75.05,4.13.08,2.59,0,3.88.07,2.74.23,4.12.28,2.89,0,4.34.07c2.65,0,5.31,0,8,.12l1.89.1c3,.17,6,.21,9,.34,3.74.2,7.49.28,11.23.31,1.77,0,3.54.09,5.31.15s3.54.11,5.31.19l-.2,0,.21,0h0c1.63.09,3.27.09,4.9.16,1.05.07,2.1.15,3.16.2,1.53.09,3.07.19,4.6.33,1.33.12,2.66.29,4,.43,1.13.11,2.27.21,3.41.29,1.38.09,2.76.2,4.15.27h-.19c2.53.15,5.05.51,7.59.66h-.12l1.68.08-.39,0,2.33.11h0c1.52.11,3,.22,4.55.29h-.13c1.13.06,2.26.05,3.4.09.9.06,1.8.13,2.71.17h1.88a1.5,1.5,0,0,0,1.52-2.31Z"/><path class="cls-1" d="M215.56,128.92h0Z"/><path class="cls-1" d="M218.1,129.05h0Z"/><path class="cls-1" d="M198.26,131.39h0Z"/><path class="cls-1" d="M214.36,131.83l.24,0-.24,0Z"/><path class="cls-1" d="M214.6,131.85h0Z"/><polygon class="cls-1" points="216.51 131.95 216.52 131.95 216.51 131.95 216.51 131.95 216.51 131.95"/><path class="cls-1" d="M225.2,132.27h0Z"/><path class="cls-1" d="M255.45,133.3h0Z"/><path class="cls-1" d="M98.71,136.23l-.22.05.22-.05Z"/><path class="cls-1" d="M98.47,139.32l-.2,0,.2,0Z"/><path class="cls-1" d="M287.28,135.74h0Z"/><path class="cls-1" d="M114,133.64h0l0,0Z"/><path class="cls-1" d="M247.37,132.94h0Z"/><path class="cls-1" d="M226.88,129.38h0Z"/><path class="cls-1" d="M270.05,123.28a1.61,1.61,0,0,0-1.11-.37c-.92,0-1.85,0-2.78,0s-1.91,0-2.86,0l-1.65-.13c-.93-.08-1.87-.06-2.81-.07-1.68,0-3.36-.06-5-.14-1.13-.08-2.26-.2-3.4-.26-.86-.05-1.72-.08-2.58-.11-1.16-.06-2.32-.09-3.48-.13h0l-.81,0-1.17-.07-.67,0h-.3c-1.41-.06-2.82-.08-4.24-.14l-1.1-.06c-1.6-.11-3.2-.33-4.8-.46s-3.36-.16-5-.25l.39,0c-2.13-.14-4.26-.19-6.4-.26s-4.12,0-6.18-.1l-1.92-.1.23,0-.28,0h0c-1.44-.08-2.86-.16-4.3-.16s-2.86,0-4.29,0l-4.6-.17c-1.37-.05-2.75-.05-4.12-.1q-1.47-.09-2.94-.09h-.58l-3.6.08c-1.4,0-2.81.07-4.21,0-1.24,0-2.48-.06-3.72-.07-2.66,0-5.32.15-8,.33-1.27.08-2.55.15-3.83.19s-2.42.13-3.63.15c-.64,0-1.26,0-1.9,0s-1.46,0-2.19.06c-1.18.07-2.35.19-3.51.35s-2.31.31-3.47.4l-3.62.31-3.49.32-1.8.14c-.55,0-1.09.13-1.63.19-2.49.3-5,.43-7.49.75-1.22.15-2.43.34-3.65.48s-2.56.29-3.84.39c-2.4.18-4.78.54-7.16.86-1.29.17-2.59.32-3.89.43-1.11.09-2.23.12-3.34.22s-2.5.26-3.74.42-2.49.3-3.73.49c-2.28.34-4.54.81-6.81,1.2-1.11.19-2.21.33-3.31.51s-2.4.44-3.6.7l.38-.07c-1.51.31-3,.67-4.51,1h0l-1.83.38.38-.08c-1.16.24-2.32.45-3.49.65s-2.51.45-3.74.77c-2.13.56-4.24,1.16-6.38,1.65l.38-.08c-.89.18-1.77.4-2.65.6s-1.85.48-2.77.71l-.09,0a1.37,1.37,0,0,0-.35.08h-.09c-1.08.23-2.16.46-3.23.72s-2.37.67-3.54,1-2.56.71-3.85,1-2.51.72-3.77,1-2.5.6-3.75.88-2.43.63-3.63,1-2.43.78-3.66,1.15-2.44.72-3.66,1.07c-1.41.41-2.82.82-4.25,1.16h0l-.92.19h0l-.06,0-.23,0h0a39.87,39.87,0,0,0-3.86,1c-1.22.38-2.47.62-3.69,1s-2.21.76-3.32,1.14c-.61.21-1.23.39-1.86.57s-1.24.42-1.85.62c-1.13.38-2.23.78-3.32,1.24s-2.09.86-3.15,1.24-2.27.85-3.4,1.28c-.58.23-1.17.44-1.76.65s-1.23.53-1.84.81-1,.48-1.46.73c-.94.45-1.89.89-2.84,1.31-.17.08-.34.13-.5.2v3.2c.5-.18,1-.35,1.48-.56,1.38-.61,2.75-1.25,4.09-1.94.49-.24,1-.47,1.5-.69s1.25-.47,1.87-.71c1.15-.43,2.29-.9,3.45-1.31,2.15-.76,4.21-1.72,6.37-2.45l1.8-.61,1.9-.58c1.14-.35,2.26-.78,3.38-1.16s2.45-.64,3.67-1,2.48-.74,3.74-1l.1,0h0l.19,0,.1,0h-.07l.25,0c2.49-.51,4.92-1.26,7.36-2,1.22-.36,2.43-.71,3.63-1.11s2.48-.78,3.73-1.11,2.49-.61,3.75-.89,2.46-.62,3.69-.95,2.62-.66,3.93-1,2.32-.68,3.47-1c1.44-.43,2.91-.75,4.38-1.06h0l.3-.06h0l-.25.05.56-.11h0l.49-.11c1.54-.38,3.06-.81,4.61-1.13h0c2.76-.59,5.47-1.46,8.23-2.08.93-.17,1.87-.31,2.8-.48s2.11-.41,3.16-.63l2.3-.49c.87-.19,1.73-.41,2.6-.59l-.18,0,1.8-.39c1-.2,2.07-.34,3.11-.5,1.24-.19,2.48-.4,3.71-.62,2.38-.44,4.74-.87,7.14-1.17s4.94-.63,7.44-.77,4.94-.48,7.4-.81c1.18-.17,2.36-.31,3.55-.44s2.31-.19,3.46-.32c2.62-.27,5.21-.71,7.84-.92,1.2-.09,2.41-.2,3.62-.33s2.21-.3,3.33-.38,2.48-.19,3.72-.3,2.2-.25,3.3-.32,2.49-.18,3.72-.34,2.28-.32,3.43-.43a35.31,35.31,0,0,1,4-.16c1.18,0,2.36,0,3.55-.07l3.9-.17c1.42-.06,2.84-.22,4.27-.27s2.57-.14,3.87-.15,2.41,0,3.61,0c1,0,2,.06,2.95.05s2,0,3,0c1.8,0,3.61-.14,5.41-.07,2.73.14,5.46.15,8.2.27,1.41.06,2.81.12,4.22.12.34,0,.69,0,1,0,1,0,2,0,3,0l2.66.14c1.07.07,2.15.14,3.24.15H219c1,0,2.06.06,3.1.09s2,.05,3,.1c1.47.08,2.94.14,4.41.2,1.16.08,2.31.21,3.46.31s2.34.21,3.52.28c1.56.09,3.12.12,4.68.17l.61,0h0l.59,0h0l1.53.08c1,0,1.93.06,2.89.1l2.83.12.95,0c.81.06,1.62.16,2.43.21,1,.07,2,.11,3,.13.85,0,1.71,0,2.57.06s1.67,0,2.51,0c1.27.08,2.54.2,3.82.19s2.85-.08,4.27-.08a1.5,1.5,0,0,0,.88-2.62Z"/><path class="cls-1" d="M194.58,120.15h0Z"/><path class="cls-1" d="M194.76,120.16h0Z"/><path class="cls-1" d="M242.11,122h0Z"/><path class="cls-1" d="M242.39,122h0Z"/><path class="cls-1" d="M243.26,122.08h0Z"/><path class="cls-1" d="M250.05,122.35l.35,0-.35,0Z"/><path class="cls-1" d="M193.13,123.05h0Z"/><path class="cls-1" d="M250.61,125.36h0Z"/><path class="cls-1" d="M33.44,146.79l-.12,0h-.06l.18,0Z"/><path class="cls-1" d="M32.47,144l.28-.06-.28.06Z"/><path class="cls-1" d="M32.81,143.88h-.06l.09,0Z"/><path class="cls-1" d="M32.75,143.89h.06l.11,0-.17,0Z"/><path class="cls-1" d="M32.92,143.86l.15,0h0l-.17,0Z"/><path class="cls-1" d="M67.77,137.57h0Z"/><path class="cls-1" d="M241.76,125h0Z"/><path class="cls-1" d="M212.06,120.63h0Z"/><path class="cls-1" d="M44.37,132.08h0a6.39,6.39,0,0,0-1.3.27,9.77,9.77,0,0,0-1.08.36L40,133.4c-1.4.47-2.81.9-4.21,1.37-2.71.93-5.44,1.81-8.15,2.72-1.33.44-2.65.88-4,1.28l-1.88.56c-.64.2-1.29.36-1.92.57s-1.33.43-2,.68-1.26.51-1.89.76-1.33.46-2,.68-1.45.5-2.16.77-1.27.49-1.89.77l-1.87.82c-1.21.52-2.44,1-3.66,1.49s-2.37,1-3.53,1.51L0,147.8v3.31l.66-.33c1.26-.6,2.54-1.15,3.82-1.71s2.9-1.15,4.33-1.76l2.23-1c.71-.32,1.44-.6,2.17-.87,1.37-.5,2.79-.9,4.14-1.46.64-.25,1.27-.52,1.92-.76s1.27-.42,1.91-.63,1.28-.38,1.92-.56,1.28-.38,1.92-.58L29,140.2l1.91-.63,1.95-.65c2-.65,4-1.38,6-2,.94-.3,1.9-.57,2.84-.91a26.13,26.13,0,0,1,2.71-.91h.13a1.51,1.51,0,0,0,1.38-1.61A1.52,1.52,0,0,0,44.37,132.08Z"/><path class="cls-1" d="M44.28,135.11l-.08,0,.08,0Z"/><path class="cls-1" d="M196.44,113.61a86.91,86.91,0,0,1-8.84.25l.39,0c-3.24-.18-6.48-.35-9.72-.36-1.59,0-3.18.13-4.77.23s-2.92.17-4.39.2-2.86,0-4.29,0c-1.72,0-3.43,0-5.15,0-1.48.06-3,.07-4.46.09s-3.09,0-4.63.1-3.06,0-4.59.06c-.78,0-1.56.07-2.33.13s-1.56.19-2.34.28c-1.51.18-3,.42-4.51.56s-3.13.27-4.69.44c-2.18.24-4.36.5-6.56.58a19.55,19.55,0,0,0-3.42.36l-3.27.74a1.41,1.41,0,0,0-.86.76,1.49,1.49,0,0,0,.69,2,1.63,1.63,0,0,0,1.15.08l3-.68c1.42-.24,2.86-.24,4.29-.34s3.07-.25,4.61-.44,3.13-.29,4.7-.45c.79-.08,1.59-.15,2.38-.26s1.45-.19,2.17-.28c1.55-.21,3.09-.39,4.65-.47s3.05,0,4.57-.07,3.11-.09,4.66-.1,3,0,4.45-.08,3.11-.09,4.67,0,3.2,0,4.8,0c3.08,0,6.14-.37,9.21-.44,1.25,0,2.49,0,3.73.07s2.42.07,3.62.13l-.39,0c1.65.09,3.3.23,5,.21s3.11-.07,4.66-.16,3-.19,4.55-.27,3,0,4.48,0l.54,0c2.26.13,4.52.21,6.79.2h3c1.08,0,2.16,0,3.24.08s2.41.22,3.62.29c.84,0,1.67.09,2.51.11.66,0,1.32,0,2,0l.94,0c.87.06,1.73.18,2.6.23.4,0,.79.07,1.19.11.57,0,1.14.07,1.71.1h0c.82,0,1.63,0,2.45,0a1.45,1.45,0,0,0,1-.5,1.52,1.52,0,0,0,.37-1.11,1.49,1.49,0,0,0-.5-1,1.61,1.61,0,0,0-1.11-.37c-.69,0-1.38,0-2.07,0l-.67,0c-1.85-.12-3.68-.35-5.53-.44l.28,0c-1.27-.08-2.55-.08-3.82-.13s-2.52-.2-3.78-.29c-1.59-.11-3.18-.16-4.77-.16-1.34,0-2.67,0-4,0s-2.95-.07-4.42-.13-2.93-.13-4.39-.13h-.18c-1.37,0-2.73.09-4.1.16Zm25.7.54.19,0-.19,0Zm9.75.59h0Zm-15,2h0Zm.28,0h0Zm8.09.45h0Zm.94,0,.33,0-.33,0Zm-.22-3h0Z"/><path class="cls-1" d="M164.85,106.2c-1.58.1-3.16.32-4.73.51s-3.12.27-4.68.38-3.22.18-4.83.29c-.76.06-1.51.13-2.27.18s-1.42.07-2.13.11c-1,.06-1.88.15-2.82.25a1.5,1.5,0,1,0,.23,3c1.52-.16,3-.25,4.57-.34s3.15-.23,4.72-.33c.78,0,1.56-.07,2.34-.13l2.32-.17c1.59-.11,3.17-.27,4.76-.47a40.23,40.23,0,0,1,4.66-.33c1.51,0,3,.09,4.54.15s3,.06,4.5,0l2.18,0c.7,0,1.41,0,2.11,0l.75,0,1,.07.58,0h.18a4.07,4.07,0,0,0,.5,0,.88.88,0,0,0,.28,0h.05c.83.05,1.66.08,2.49.12a67.62,67.62,0,0,0,7.53.2c2.26-.11,4.51-.14,6.77,0l1.09,0-.39,0c.64,0,1.27.08,1.9.1h1.42l2.63.1a12.53,12.53,0,0,0,1.5.05,1.5,1.5,0,0,0-.23-3h-.47c-1-.08-2-.09-3-.13s-1.74,0-2.6-.06L201,106.8q-1.64-.09-3.27-.12c-1.1,0-2.2,0-3.3.06s-2.13.1-3.2.1-2-.06-3-.11h0c-1.31-.08-2.62-.14-3.94-.21h0c-.31,0-.65-.07-1,0h-.15a1.74,1.74,0,0,0-.32,0c-.79-.06-1.59-.11-2.38-.15s-1.44,0-2.16,0c-1.48,0-3,0-4.45,0s-3.09,0-4.64-.12c-.86,0-1.72-.07-2.58-.07-.62,0-1.23,0-1.85,0Zm36.3.61h0Zm.89,0h0Z"/><path class="cls-1" d="M27.42,131.42a1.52,1.52,0,0,0-1.43-1,1.61,1.61,0,0,0-.48.08,8.79,8.79,0,0,1-.88.24c-.31.08-.62.17-.93.24l-1.08.21h-.05l-.16,0h0l-1.43.32a43.6,43.6,0,0,0-4.43,1,35.84,35.84,0,0,0-4.16,1.56c-1.35.6-2.71,1.16-4.07,1.71-.7.28-1.41.55-2.1.85s-1.45.67-2.17,1c-.45.22-.9.46-1.36.66l-1.44.62c-.42.17-.83.35-1.24.54v3.26l.23-.1c1.44-.64,2.9-1.21,4.31-1.91s2.82-1.36,4.28-1.93,2.73-1.07,4.07-1.68a32.12,32.12,0,0,1,6.25-2.17c1.27-.25,2.53-.49,3.8-.78l.33-.07c.57-.11,1.15-.21,1.71-.36s1-.23,1.52-.4A1.51,1.51,0,0,0,27.42,131.42Z"/><path class="cls-1" d="M22.27,131.26l.13,0h0l-.14,0Z"/><path class="cls-1" d="M19.23,123.51a1.53,1.53,0,0,0-.76-.86,1.74,1.74,0,0,0-.69-.15,1,1,0,0,0-.46.09c-1.21.58-2.39,1.22-3.58,1.83-2.7,1.32-5.53,2.34-8.27,3.57L0,130.5v3.27l4-1.85c1.4-.64,2.8-1.28,4.21-1.89s2.78-1.12,4.15-1.72c1.07-.46,2.13-1,3.17-1.48.86-.43,1.71-.89,2.57-1.33l.17-.08a1.62,1.62,0,0,0,.85-.76A1.48,1.48,0,0,0,19.23,123.51Z"/><path class="cls-1" d="M18.41,125.37l-.16.07.16-.07Z"/><path class="cls-1" d="M75,48.43a2,2,0,0,0-1.94,2c.17,2,.4,4,.52,6.06s.24,3.88.37,5.82,0,3.88.12,5.81A10.29,10.29,0,0,0,74.81,72,5.36,5.36,0,0,0,76,73.62a3.11,3.11,0,0,0,1.37.77,3.32,3.32,0,0,0,1.82-.15l.55-.17c.65-.07,1.31-.1,2-.16s1.48-.2,2.22-.28l2.48-.25c.86-.09,1.71-.22,2.57-.36a19,19,0,0,1,2-.24,18.19,18.19,0,0,0,2-.1,2.1,2.1,0,0,0,1.38-.6,2,2,0,0,0,0-2.83,2,2,0,0,0-1.45-.57c-.78.12-1.56.06-2.34.13a23.88,23.88,0,0,0-2.52.36c-1.66.23-3.33.33-5,.56-.81.11-1.63.2-2.44.27-.39,0-.77,0-1.15.1s-.62.09-.93.17l-.07-.11c-.07-.22-.13-.44-.18-.67A33.63,33.63,0,0,1,78,65.11c0-1.64-.11-3.27-.22-4.9s-.19-3.15-.29-4.72-.31-3.41-.47-5.11a2,2,0,0,0-2-2Zm2.79,22h0Z"/><path class="cls-1" d="M106.86,44.27a2,2,0,0,0-2,2c.08,1,.15,2,.27,3s.16,2,.23,3,.09,2,.16,2.94.17,2,.24,3c.14,2,.12,3.95.2,5.93,0,.94.15,1.87.22,2.81s.09,1.82.11,2.72a12.7,12.7,0,0,0,.21,2.3,1.88,1.88,0,0,0,.94,1.18,2,2,0,0,0,2.72-.76A2,2,0,0,0,110.4,71c-.09-.82-.06-1.65-.1-2.47s-.08-1.74-.15-2.61-.15-2-.17-3,0-2.08-.07-3.11c-.09-2-.32-3.94-.41-5.91,0-1-.11-1.93-.16-2.9s-.19-1.94-.28-2.91c-.06-.64-.1-1.28-.15-1.93a2,2,0,0,0-2-1.94Z"/><path class="cls-1" d="M150.18,44.53a1.86,1.86,0,0,0-1.18.94c-.38.89-.79,1.77-1.13,2.68s-.61,1.77-.9,2.66c-.57,1.73-1,3.53-1.47,5.29-.26.94-.54,1.88-.83,2.81s-.54,1.63-.75,2.45-.43,1.75-.66,2.62l-.6-.55c-.49-.44-1-.84-1.49-1.29a12.33,12.33,0,0,1-1.29-1.41,43.67,43.67,0,0,1-3.29-4.79c-.45-.79-.9-1.58-1.33-2.38s-.83-1.7-1.29-2.52a24.38,24.38,0,0,0-1.46-2.32c-.12-.18-.27-.35-.39-.53a4.09,4.09,0,0,0-.72-.83,2.32,2.32,0,0,0-1-.54,2.69,2.69,0,0,0-1.13,0,2.49,2.49,0,0,0-1.53,1.2,7.82,7.82,0,0,0-.62,1.88l-.33,1.42q-.33,1.43-.63,2.85c-.31,1.48-.59,3-.77,4.46s-.28,3-.39,4.49c-.13.92-.31,1.83-.5,2.75a2,2,0,0,0,3.89,1A33,33,0,0,0,129,63c.08-1.08.16-2.17.26-3.25.21-1.69.51-3.36.87-5,.12-.56.24-1.12.37-1.68.32.58.61,1.17.91,1.76a49.84,49.84,0,0,0,2.93,5.05c.55.84,1.15,1.65,1.74,2.46a18.91,18.91,0,0,0,2.11,2.52c.69.67,1.45,1.25,2.15,1.89.31.29.62.6.91.91s.52.6.8.87a2.74,2.74,0,0,0,2,.87,2.35,2.35,0,0,0,1.64-.78,4.33,4.33,0,0,0,.76-1.4,23.44,23.44,0,0,0,.72-2.34c.22-.84.43-1.68.65-2.52s.5-1.65.75-2.46c1.1-3.53,1.87-7.17,3.16-10.64.25-.6.52-1.2.77-1.8a2.14,2.14,0,0,0,.18-1.55,2,2,0,0,0-.94-1.18,2.1,2.1,0,0,0-1-.25,1.77,1.77,0,0,0-.56.08Zm-10.47,16,.1.12-.1-.12Z"/><path class="cls-1" d="M166.83,42.13a2,2,0,0,0-1.94,2,47.19,47.19,0,0,1,.29,5.58c0,1.91-.1,3.82-.16,5.73-.05,1.74-.17,3.49-.17,5.24,0,.85,0,1.69.09,2.53,0,.46.07.92.09,1.37a9.88,9.88,0,0,0,.12,1.72,2,2,0,0,0,2.49,1.35,2,2,0,0,0,1.18-.93,2,2,0,0,0,.23-1.22c0-.82-.06-1.64-.12-2.45s-.07-1.7-.08-2.55c0-1.74.12-3.48.18-5.22l.15-5.68a41.5,41.5,0,0,0-.29-5.57,2.09,2.09,0,0,0-.61-1.38,2,2,0,0,0-1.39-.57Z"/><path class="cls-1" d="M179.53,44.92c-1,1.07-2.07,2.14-3.21,3.1-.72.55-1.48,1-2.23,1.57s-1.6,1.08-2.41,1.6c-.47.31-1,.59-1.42.93a7.8,7.8,0,0,0-1.69,1.75,3.33,3.33,0,0,0-.42.87,3.58,3.58,0,0,0-.13.86,2.48,2.48,0,0,0,1.21,2,10.29,10.29,0,0,0,1.78.66l.17.1c1.26,1,2.15,2.46,3.34,3.58a32.2,32.2,0,0,0,3.78,2.67,17.93,17.93,0,0,1,2.12,2.06,8,8,0,0,0,1.42,1.3,2.88,2.88,0,0,0,3.15.13,2,2,0,0,0-1.23-3.7c-.31-.3-.59-.64-.89-1a16.21,16.21,0,0,0-1.38-1.37A37.06,37.06,0,0,0,178,59.71a13,13,0,0,1-1-.91c-.46-.49-.89-1-1.33-1.52s-.88-1-1.36-1.48a5.47,5.47,0,0,0-1.09-.84l.44-.29,1.16-.76c.86-.56,1.7-1.15,2.55-1.72A23.08,23.08,0,0,0,180,50.1c.82-.77,1.6-1.58,2.39-2.38a2,2,0,0,0,0-2.83,1.94,1.94,0,0,0-1.39-.56,2,2,0,0,0-1.44.59ZM184,64.6h0Zm-.89,0Z"/><path class="cls-1" d="M200.64,45.15a2,2,0,0,0-1.38.61,2.17,2.17,0,0,0-.57,1.44c0,.61-.1,1.21-.16,1.81-.17,1.48-.4,3-.59,4.44-.23,1.75-.32,3.5-.41,5.27a37,37,0,0,0,.06,4.59,7.27,7.27,0,0,0,.67,2.87,3.89,3.89,0,0,0,1.27,1.25,3.54,3.54,0,0,0,.74.33c.72.33,1.44.65,2.19.91s1.46.44,2.19.63a14.63,14.63,0,0,0,2.08.49,6.77,6.77,0,0,0,2.2,0,5.87,5.87,0,0,0,1.49-.53,2,2,0,0,0-.55-3.66,2.05,2.05,0,0,0-1.42.18l-.33.1a4.34,4.34,0,0,1-.51,0,23,23,0,0,1-2.32-.55c-.8-.22-1.6-.45-2.38-.73-.4-.18-.8-.38-1.21-.55h0l.23.09-.23-.1-.06-.26a28.88,28.88,0,0,1-.13-4.16c0-1.54.1-3.09.24-4.64.13-1.1.29-2.2.44-3.3.2-1.53.38-3,.5-4.59a1.91,1.91,0,0,0-.6-1.38,2,2,0,0,0-1.4-.57Zm1,18.36v0Zm0,.5h0Z"/><path class="cls-1" d="M210,53.9c-1.24.06-2.47.15-3.71.19a38.08,38.08,0,0,1-4.89-.28,1.92,1.92,0,0,0-1.38.61,2,2,0,0,0-.57,1.45,2,2,0,0,0,.61,1.38,2.11,2.11,0,0,0,1.44.56,40.67,40.67,0,0,0,5.29.27c.75,0,1.5,0,2.26-.11.38,0,.76-.07,1.14-.08a6.47,6.47,0,0,0,.85-.09,2.47,2.47,0,0,0,1.22-.7,2,2,0,0,0,0-2.83,1.9,1.9,0,0,0-1.37-.55,2.09,2.09,0,0,0-.85.18Z"/><path class="cls-1" d="M200.13,44.57a2.06,2.06,0,0,0-.57,1.45,2,2,0,0,0,.61,1.38,2.1,2.1,0,0,0,1.45.57c.58,0,1.17.09,1.75.15,1.29.16,2.56.38,3.83.66.64.14,1.28.3,1.93.41s1.48.21,2.22.31a2.12,2.12,0,0,0,1.52-.23,2,2,0,0,0,.67-2.74,1.9,1.9,0,0,0-1.23-.91c-.85-.12-1.72-.21-2.57-.37s-1.55-.35-2.33-.51a43.29,43.29,0,0,0-5.9-.77h-.09a2,2,0,0,0-1.29.6Z"/><path class="cls-1" d="M225.89,47.72a2,2,0,0,0-1.95,2.05c0,1.08.06,2.16.05,3.23,0,.86-.08,1.71-.16,2.55-.25,1.84-.53,3.67-.77,5.5s-.48,3.9-.69,5.85l.06-.54-.18,1.55c0,.22-.06.43-.08.65a2.54,2.54,0,0,0,.22,1.81,2,2,0,0,0,2.74.69,2,2,0,0,0,1-1.8h0v-.06c.15-1.22.28-2.44.41-3.65q.47-3.93,1.05-7.83c.2-1.39.37-2.8.43-4.2s0-2.57,0-3.86a2,2,0,0,0-2-2ZM226.11,69v.09a.28.28,0,0,1,0-.09Z"/><path class="cls-1" d="M228.63,48.25a11.39,11.39,0,0,0-3.62,1,2.11,2.11,0,0,0-1.18.93,2,2,0,0,0,.76,2.73,1.89,1.89,0,0,0,1.54.17,14.3,14.3,0,0,1,2.43-.85,9.21,9.21,0,0,1,1.39,0,19.75,19.75,0,0,1,2.62.57c.79.23,1.55.5,2.32.8A14.52,14.52,0,0,1,237,54.75a10.91,10.91,0,0,1,1.09,1.06,8.24,8.24,0,0,1,.54.9,17.74,17.74,0,0,1,.8,3.13,15.2,15.2,0,0,1,.1,2.43,9.28,9.28,0,0,1-.42,1.71,9.09,9.09,0,0,1-.79,1.43,11.76,11.76,0,0,1-1.3,1.34,12,12,0,0,1-1.46.88,7.9,7.9,0,0,1-1.2.35,23.07,23.07,0,0,1-3.33.13c-1.16,0-2.33,0-3.49-.13l-.85-.12a2.1,2.1,0,0,0-1.51.23,2,2,0,0,0-.91,1.23,2,2,0,0,0,.23,1.51,1.9,1.9,0,0,0,1.23.91,40.4,40.4,0,0,0,6.12.38,20,20,0,0,0,2.89-.18,8.52,8.52,0,0,0,2-.49,12.07,12.07,0,0,0,1.62-.78,11.06,11.06,0,0,0,2.38-1.93,10.29,10.29,0,0,0,2.69-5.55,14.53,14.53,0,0,0,.12-1.74c0-.53,0-1.05-.08-1.57a20.6,20.6,0,0,0-.61-3.11,8.5,8.5,0,0,0-1.31-3,10.35,10.35,0,0,0-2-2.06,11.68,11.68,0,0,0-2.56-1.48,24.58,24.58,0,0,0-5.49-1.76,15.73,15.73,0,0,0-2.38-.24,5.15,5.15,0,0,0-.55,0Zm10.44,16a.69.69,0,0,0,0,.13.69.69,0,0,1,0-.13Z"/><path class="cls-1" d="M260.84,54.27c-.29,1.72-.58,3.42-1,5.12s-.72,3.12-1.1,4.67-.8,3.14-1.13,4.73c-.17.79-.29,1.6-.43,2.4a14.83,14.83,0,0,0-.31,2.81,2,2,0,0,0,4-.1,7.31,7.31,0,0,1,0-.81c.4-2.84,1.14-5.61,1.8-8.39.36-1.5.73-3,1.06-4.48.35-1.66.64-3.32.93-5a2.1,2.1,0,0,0-.24-1.51,2,2,0,0,0-1.23-.91,1.61,1.61,0,0,0-.44-.05,2,2,0,0,0-2,1.51Z"/><path class="cls-1" d="M278.89,57.52a3,3,0,0,0-1.23.72,6.93,6.93,0,0,0-1.07,1.28,43.49,43.49,0,0,0-2.93,4.55c-.59,1-1.06,2.11-1.55,3.18s-.91,2.06-1.37,3.09c-1,2.24-2.06,4.42-3.21,6.58a2,2,0,0,0,3.49,2c.84-1.57,1.63-3.15,2.4-4.75.35-.73.67-1.48,1-2.23s.72-1.63,1.08-2.45a38.89,38.89,0,0,1,2.17-4.33c.39-.63.78-1.26,1.19-1.88.08.45.15.91.24,1.36.27,1.45.55,2.9.91,4.34a35.72,35.72,0,0,0,1.32,4.15c.56,1.4,1.32,2.71,2,4.08s.94,2.76,1.43,4.14a24.8,24.8,0,0,0,1,2.33c.15.33.3.65.47,1s.33.54.47.81a2.32,2.32,0,0,0,.53.82,2.14,2.14,0,0,0,2.09.57A2.92,2.92,0,0,0,291,85c.38-.83.71-1.69,1.05-2.54.72-1.81,1.39-3.64,2.09-5.45l.15-.37a59.69,59.69,0,0,1,2.92-5.89c1-1.84,2-3.67,2.95-5.56a2,2,0,0,0-3.49-2c-.95,1.94-2,3.82-3,5.72-.57,1-1.14,2.08-1.66,3.14s-1,2.19-1.46,3.31c-.65,1.63-1.27,3.27-1.89,4.91-.39-1.12-.71-2.26-1.13-3.37-.61-1.67-1.46-3.21-2.23-4.81a32.4,32.4,0,0,1-1.64-5.35c-.22-1-.4-2-.59-2.92s-.31-1.87-.5-2.79a7.87,7.87,0,0,0-.39-1.25,4,4,0,0,0-1.44-2,2.07,2.07,0,0,0-1.16-.34,2.16,2.16,0,0,0-.62.09Zm11.25,26.06v0s0,0,0,0Zm0,.09h0l.09.22c0-.08-.07-.16-.1-.23Zm0,0,0,0,0,0Zm.08-7.87.18-.44-.18.44Zm.18-.44v-.06l0,.06Z"/><path class="cls-1" d="M352.64,60.67a1.75,1.75,0,0,0-.61,1.19,1.73,1.73,0,0,0,.41,1.27,1.86,1.86,0,0,0,1.19.61l1,.2a20.8,20.8,0,0,1,2.48.73,24.81,24.81,0,0,1,2.35,1.06l1.83.91c2.38,1.24,4.73,2.57,7.05,3.93,1.14.67,2.27,1.35,3.4,2.05a26.61,26.61,0,0,1,3,2.06,2.2,2.2,0,0,1,.2.23,1.75,1.75,0,0,0,2.67-2.27,10.08,10.08,0,0,0-2-1.7c-.6-.43-1.21-.82-1.83-1.21-1.27-.79-2.54-1.55-3.83-2.31s-2.62-1.5-3.94-2.23-2.64-1.42-4-2.09-2.39-1.21-3.64-1.71a25.28,25.28,0,0,0-4.39-1.14l-.19,0a1.77,1.77,0,0,0-1.08.44Zm8.63,6,.34.16-.34-.16Z"/><path class="cls-1" d="M340.76,71.34a1.78,1.78,0,0,0,1.08,2.23l3.81,1.34c.59.22,1.18.43,1.75.68s1.08.52,1.61.79c2.14,1.07,4.33,2,6.48,3.08l5,2.54a34.85,34.85,0,0,1,4.44,2.64c1.43,1,2.93,2,4.34,3a1.75,1.75,0,1,0,2-2.89c-.8-.6-1.64-1.12-2.46-1.69s-1.58-1.11-2.37-1.65a41.93,41.93,0,0,0-5.27-3c-1.44-.74-2.86-1.49-4.3-2.21s-3-1.4-4.47-2.11q-1.14-.54-2.28-1.11c-.69-.34-1.37-.7-2.09-1-1.64-.64-3.32-1.19-5-1.78a1.74,1.74,0,0,0-2.23,1.08Zm20.37,7.11.2.11-.2-.11Zm-.44,3.67.15.07-.15-.07Z"/><path class="cls-1" d="M354.08,89.82a1.76,1.76,0,0,0,.47,2.43c2.16,1.28,4.36,2.5,6.49,3.84,2,1.24,3.77,2.73,5.79,3.89a1.83,1.83,0,0,0,1.29.28,1.74,1.74,0,0,0,1.14-.74,1.76,1.76,0,0,0-.46-2.43c-2-1.14-3.75-2.61-5.68-3.82-2.16-1.37-4.4-2.61-6.6-3.92a2,2,0,0,0-1-.28,1.7,1.7,0,0,0-1.43.75Z"/><path class="cls-1" d="M355.61,110.32a1.79,1.79,0,0,0-1.14.75,1.74,1.74,0,0,0,.46,2.43,80.1,80.1,0,0,1,9.47,5.85,1.75,1.75,0,0,0,2-2.9,82.83,82.83,0,0,0-9.47-5.85,2.07,2.07,0,0,0-1-.3l-.29,0Z"/><path class="cls-1" d="M47.46,43.79c-1.43.09-2.87.27-4.29.49s-2.93.48-4.38.84a42.06,42.06,0,0,0-8.64,3.66A1.75,1.75,0,1,0,31.63,52a55.78,55.78,0,0,1,6.86-3.13,39.11,39.11,0,0,1,4.57-1,46.76,46.76,0,0,1,5-.59,1.7,1.7,0,0,0,1.14-.74,1.79,1.79,0,0,0,.27-1.29,1.76,1.76,0,0,0-.73-1.14,1.71,1.71,0,0,0-1-.29Z"/><path class="cls-1" d="M42.09,54.83c-.75.16-1.49.37-2.24.57s-1.44.36-2.16.57c-1.62.46-3.21,1-4.8,1.53-1.09.34-2.18.64-3.27.94a1.84,1.84,0,0,0-1.14.74,1.74,1.74,0,0,0,.46,2.43,1.65,1.65,0,0,0,1.29.28c1.19-.33,2.38-.66,3.56-1s2.15-.71,3.22-1.06q3.21-1,6.48-1.7a46.14,46.14,0,0,1,6.61-1q.78,0,1.56,0A1.75,1.75,0,0,0,52,53.57l-.83,0a41.23,41.23,0,0,0-9,1.28Z"/><path class="cls-1" d="M37.45,71.35a23,23,0,0,0-4.24,1.73c-1.21.65-2.41,1.31-3.63,2a1.79,1.79,0,0,0-.85,2.33,1.77,1.77,0,0,0,2.33.85,44,44,0,0,1,7-3.41,1.86,1.86,0,0,0,1.13-.74,1.74,1.74,0,0,0-.46-2.43,1.85,1.85,0,0,0-1-.32,1,1,0,0,0-.3,0Zm.42,3.51-.12,0,.12,0Z"/><path class="cls-1" d="M39.07,90.68c-2.49,1-4.85,2.23-7.26,3.36a1.75,1.75,0,1,0,1.48,3.17c2.41-1.13,4.78-2.38,7.25-3.35a1.77,1.77,0,0,0,.85-2.33,1.7,1.7,0,0,0-1.58-1,2.11,2.11,0,0,0-.74.14Z"/></g></g></svg>