<svg xmlns="http://www.w3.org/2000/svg" viewBox="0 0 542.64 378.51"><defs><style>.cls-1{fill:#707da7;}.cls-2{fill:#2f345b;}.cls-3,.cls-7,.cls-8{fill:#d6d5d8;}.cls-4{fill:none;stroke:#2f345b;stroke-miterlimit:10;stroke-width:5px;}.cls-5,.cls-6{fill:#3a4172;}.cls-6{opacity:0.42;}.cls-7{font-size:19.28px;}.cls-7,.cls-8{font-family:Meganschalkboard-Regular, Meganschalkboard;}.cls-8{font-size:14px;}</style></defs><title>Asset 4</title><g id="Layer_2" data-name="Layer 2"><g id="Draw_Layer" data-name="Draw Layer"><rect class="cls-1" x="4.56" y="5.61" width="498.63" height="368.16"/><path class="cls-2" d="M.44,246.05c.14,3.9.47,7.79.57,11.7s.06,8,.08,12.06,0,8.25.09,12.38,0,7.95.21,11.93c.09,1.86.07,3.72.19,5.57.12,2.07.26,4.13.4,6.2.26,4,.52,8,.49,12.05s-.05,7.8-.06,11.7c0,1.89,0,3.77,0,5.67s.17,4.05.28,6.08.19,3.82.29,5.73S3.28,351,3.4,353c.24,3.78.4,7.56.67,11.34.22,3.25.37,6.51.67,9.75a14,14,0,0,1,2.76-.27,7.37,7.37,0,0,1,3.31.82l0-.22c-.16-2-.31-4.07-.45-6.1-.26-3.79-.44-7.57-.68-11.36s-.53-7.82-.73-11.72-.42-7.87-.53-11.81c-.05-1.88,0-3.77,0-5.65s0-4,0-6c0-3.82,0-7.65-.17-11.47-.23-4.17-.6-8.34-.76-12.52-.14-3.93-.26-7.86-.29-11.79s-.1-7.9-.11-11.85q0-6.23,0-12.44c0-3.87-.21-7.71-.43-11.57s-.31-7.68-.36-11.52c-.06-4-.23-8.05-.27-12.09s.12-8.27.22-12.41.11-8,.14-12c0-2.14,0-4.29,0-6.43,0-2,0-3.92,0-5.87,0-4,.06-8,0-12-.06-8.14-.57-16.27-.3-24.41.07-2.2.16-4.41.22-6.61.07-2,0-4,0-5.93,0-4.09-.1-8.17,0-12.25s.17-8.13.33-12.18c.07-1.81.24-3.62.28-5.43,0-2.16.09-4.32.15-6.48,0-1.94.21-3.87.19-5.81,0-2.15,0-4.3-.1-6.45-.08-2-.23-4-.29-6,0-2.15-.07-4.29-.06-6.44s0-4-.07-6,0-4.27,0-6.41c0-4.05,0-8.1.06-12.15,0-3.83.07-7.65.2-11.47.16-4.13.37-8.26.27-12.38-.09-3.82-.39-7.64-.52-11.46-.06-1.77-.11-3.55-.16-5.33,0-1.94.05-3.88.14-5.82.07-1.49.15-3,.25-4.48a2.71,2.71,0,0,0-1-2,3,3,0,0,0-1.9-.78,1.31,1.31,0,0,0-.28,0,3,3,0,0,0-2,.92A3,3,0,0,0,1,4.58,116.37,116.37,0,0,0,.66,16.39c.06,1.79.1,3.57.16,5.36.06,1.95.2,3.89.28,5.84s.21,3.95.21,5.92,0,3.87-.1,5.8c-.18,4-.27,8-.34,12.08S.82,59.26.79,63.2c0,4.11-.08,8.2,0,12.31S.75,83.84,1,88s.41,8.34.29,12.51c-.07,2.06-.16,4.11-.22,6.16s-.06,4-.16,6S.63,116.85.55,119c-.07,1.9-.07,3.8-.11,5.7q-.09,3.09-.17,6.19c0,2,0,4,0,5.94,0,4,.11,7.94,0,11.9C.12,152.83,0,157,0,161.12s.16,8.48.29,12.72c.25,8.08,0,16.16,0,24.24,0,4,0,8.08,0,12.12S.06,218,0,221.87c0,4.26.08,8.52.17,12.78C.27,238.45.3,242.25.44,246.05Z"/><path class="cls-2" d="M499.79,69.48c0,4,0,8,0,12q0,6.36.07,12.72c.07,4,0,8.05-.09,12.08s-.1,8.37-.16,12.55.16,8.48.23,12.72.1,8.28.18,12.42.17,8.12.17,12.19c0,1.92,0,3.84,0,5.76,0,2.21-.06,4.42-.08,6.63,0,1.93,0,3.85,0,5.78,0,2.14,0,4.29-.06,6.44,0,4,0,8,.07,12,.08,4.25.05,8.5.14,12.76.08,4,.13,8,.15,12s-.07,8.05-.12,12.08-.17,8-.17,12.06,0,8.07-.07,12.11c-.09,8-.26,16-.09,24,.08,3.91.31,7.81.42,11.73s.16,7.85.2,11.78c0,1.9,0,3.81,0,5.71s0,4,.07,6,0,3.76,0,5.64.07,3.65.14,5.48c.15,3.78.33,7.55.49,11.33.08,1.95.15,3.91.26,5.86s.19,3.82.23,5.73c.08,3.59.11,7.17.17,10.75,0,1.66.07,3.3.1,5s0,3.52,0,5.28,0,3.79-.06,5.69c0,1.57-.11,3.15-.18,4.73a8.93,8.93,0,0,1,3.47-.7,4.32,4.32,0,0,1,1.34.22c.13-3.17.23-6.34.23-9.51,0-3.58,0-7.14-.06-10.71s-.09-7.13-.17-10.69c-.08-3.89-.33-7.78-.49-11.66s-.34-7.49-.48-11.24c-.08-1.9-.16-3.81-.16-5.72s0-3.73,0-5.6-.08-3.94-.07-5.91,0-3.92,0-5.88c0-3.85-.09-7.72-.2-11.58s-.34-7.83-.42-11.75-.1-8.09-.07-12.14.11-7.94.16-11.91.05-8.08.06-12.12.12-8.13.18-12.2.13-7.91.11-11.87-.06-8.07-.14-12.09c-.09-4.2-.06-8.4-.14-12.6s-.11-8.13-.08-12.19c0-2.15.05-4.29.06-6.43,0-1.9,0-3.79,0-5.69,0-4.2.12-8.4.1-12.59,0-2,0-4,0-6s-.09-4.08-.13-6.12c-.08-4.08-.1-8.17-.17-12.26-.08-4.33-.22-8.67-.23-13,0-2,.06-4,.07-6q0-3.24.08-6.5c.07-4.06.16-8.11.1-12.17s-.09-8.39-.07-12.59c0-4,.05-8,0-11.92s-.11-7.93-.15-11.89c0-2.08-.05-4.15-.08-6.23s0-4,.06-5.94c.09-3.91.19-7.82.28-11.73.07-3.59.17-7.18.35-10.76.09-1.92.16-3.82.17-5.75s0-3.81.11-5.72l0-.57a3.35,3.35,0,0,0-.76-2.11,2.21,2.21,0,0,0-1.53-.83h-.22a2.27,2.27,0,0,0-1.65,1,3.88,3.88,0,0,0-.64,2.25c-.09,2-.16,4.07-.15,6.11s-.05,3.83-.16,5.74c-.2,3.59-.29,7.21-.35,10.81-.07,3.84-.18,7.68-.27,11.52-.05,2-.1,4-.07,6s.05,4.22.07,6.34C499.68,61.6,499.78,65.53,499.79,69.48Z"/><path class="cls-2" d="M19.15,20.63A5.25,5.25,0,0,0,19.41,28a5.58,5.58,0,0,0,3.83,1.41,5,5,0,0,0,3.59-1.67,5.22,5.22,0,0,0-.26-7.41A5.58,5.58,0,0,0,22.74,19a5,5,0,0,0-3.59,1.67Z"/><path class="cls-2" d="M36.74,20.33A5.22,5.22,0,0,0,37,27.74a5.56,5.56,0,0,0,3.83,1.41,5,5,0,0,0,3.59-1.67,5.25,5.25,0,0,0-.26-7.41,5.58,5.58,0,0,0-3.83-1.41,5,5,0,0,0-3.59,1.67Z"/><path class="cls-2" d="M53,20.53A5.26,5.26,0,0,0,53.28,28a5.58,5.58,0,0,0,3.83,1.41,5,5,0,0,0,3.59-1.67,5.24,5.24,0,0,0-.26-7.42,5.6,5.6,0,0,0-3.83-1.4A5.1,5.1,0,0,0,53,20.53Z"/><path class="cls-2" d="M46.88,145.18c-.07,1.73-.14,3.43-.12,5.15.05,3.29.11,6.58.16,9.87s.17,6.76.16,10.14c0,1.64,0,3.28,0,4.92s0,3.47,0,5.2c.11,6.67.24,13.35.23,20,0,3.43,0,6.85,0,10.28,0,1.67.06,3.35.08,5s0,3.31.11,5c.14,3.49.26,7,.36,10.46,0,1.62.16,3.23.23,4.85s.13,3.42.18,5.13c.08,3.24.22,6.48.37,9.71.07,1.7.18,3.39.22,5.09s0,3.52.09,5.28c.08,3.47.19,6.94.22,10.41,0,3.26.07,6.52.22,9.78s.37,6.74.57,10.11.35,6.73.48,10.09c.07,1.59,0,3.18,0,4.78s0,3.25,0,4.89c.05,3.5.07,7,.28,10.5.19,3.34.4,6.68.43,10,0,3.17-.13,6.33-.15,9.51a91.33,91.33,0,0,0,.6,9.77c.16,1.58.37,3.15.59,4.73s.29,2.87.37,4.3c0,.49.08,1,.1,1.47s0,1,0,1.48c0,1.09,0,2.17,0,3.26q-.07,3.67-.06,7.34a1.79,1.79,0,0,0,.18.73,13.6,13.6,0,0,1,3.79-.62c0-.11,0-.23,0-.35,0-3.15,0-6.29,0-9.43a57.75,57.75,0,0,0-.47-8.42c-.44-3.16-.77-6.32-1-9.5a85.37,85.37,0,0,1-.09-9.73c.12-3.31,0-6.62-.09-9.92-.06-1.63-.19-3.27-.29-4.9s-.17-3.46-.2-5.2c-.06-3.4-.12-6.79-.13-10.19,0-1.59,0-3.19,0-4.78-.07-1.77-.17-3.55-.26-5.32-.17-3.28-.34-6.56-.54-9.85s-.35-6.66-.41-10-.08-6.8-.16-10.2c-.05-1.67-.09-3.34-.13-5s0-3.52-.09-5.28c-.08-3.29-.31-6.58-.45-9.87s-.18-6.71-.32-10.06c-.07-1.62-.19-3.23-.23-4.84s-.09-3.51-.15-5.26-.14-3.47-.21-5.2-.08-3.32-.11-5c-.1-6.74-.12-13.47-.12-20.2,0-3.3-.1-6.6-.11-9.9,0-1.74-.07-3.48-.09-5.23s0-3.46,0-5.19q0-5-.07-10c-.06-3.28-.16-6.57-.21-9.85,0-1.69,0-3.38-.07-5.07s0-3.43.12-5.15.12-3.58.15-5.37c0-1.58.09-3.15.09-4.73,0-3.31-.11-6.62-.22-9.92s0-6.66.06-10,.08-6.85.11-10.28c0-1.55.06-3.11.07-4.66s0-3.37-.05-5c0-1.48.06-3,.1-4.44s.09-3.06.17-4.58c.16-2.25.32-4.49.45-6.74l0,.51c.25-3.92.37-7.84.47-11.77,0-2,0-3.93,0-5.89,0-1.75.07-3.51.18-5.26.11-1.57.27-3.14.41-4.72.08-.86.13-1.72.24-2.58s.22-1.59.34-2.38a2,2,0,0,0-1.58-2.32.57.57,0,0,0-.18,0,2,2,0,0,0-2.16,1.58c-.18,1.1-.33,2.21-.46,3.31-.08.66-.09,1.33-.16,2s-.11,1.22-.16,1.83c-.24,2.66-.43,5.33-.46,8s0,5.32-.06,8-.13,5.44-.28,8.16l0-.5-.21,3.35c-.1,1.55-.21,3.1-.32,4.64-.13,1.8-.17,3.6-.23,5.4-.05,1.57-.11,3.14-.11,4.71s0,3.37,0,5-.05,3.11-.06,4.67c0,1.73,0,3.46,0,5.19s0,3.39-.06,5.08-.09,3.35-.11,5c0,3.36.12,6.72.19,10.08,0,1.6.07,3.21.07,4.8s-.06,3.16-.09,4.73C47,141.6,47,143.39,46.88,145.18Z"/><path class="cls-3" d="M79.85,70.09c-.18,2.64-.36,5.28-.52,7.94-.09,1.39-.07,2.8-.08,4.18s-.1,2.64-.16,4C79,89.25,79,92.32,79,95.39c0,1.46,0,2.91-.06,4.37s0,3.17.11,4.76c0,0,0-.06,0-.09,0,.25,0,.49,0,.74a.2.2,0,0,1,0-.07c.06,1.87.21,3.78.31,5.68a.49.49,0,0,1,0-.12c0,1.09.09,2.2.13,3.29v-.4c0,1.43.09,2.84.22,4.28a10.34,10.34,0,0,0,.69,3.29,2.8,2.8,0,0,0,.9,1,5,5,0,0,0,.57.28,5.13,5.13,0,0,0,.88.21,6.43,6.43,0,0,0,1,0c.33,0,.68,0,1,0,1.88,0,3.71-.31,5.58-.4h0c3.65-.08,7.3.37,11,.62a50.52,50.52,0,0,0,5.22.09c.93,0,1.86-.17,2.77-.24s1.79-.16,2.67-.18h-.44c2.06,0,4.11.07,6.17.21.91,0,1.79.12,2.69.2.72,0,1.4.16,2.12.16a1.76,1.76,0,0,0,1.93-1.44,1.69,1.69,0,0,0-1.61-1.75c-1,0-2.11-.19-3.16-.3-.63,0-1.26-.06-1.89-.09s-1.46-.08-2.2-.11a47.22,47.22,0,0,0-5,0c-1.58.08-3.15.31-4.7.39-3.46.06-6.92-.37-10.35-.59-1.86-.11-3.7-.2-5.57-.14-1.54.06-3.08.3-4.64.38-.56,0-1.13.06-1.69,0a24.65,24.65,0,0,1-.5-4.54c0,.1,0,.2,0,.29,0-1.41-.12-2.84-.17-4.25v.4c0-2-.19-4-.29-6.06v.4c0-.35,0-.7,0-1.06v.43c0-.79,0-1.57-.08-2.34a1,1,0,0,1,0,.25c-.09-2.81,0-5.6,0-8.42s0-5.84.17-8.75c.06-1.21.13-2.42.13-3.65,0-1.41,0-2.82.09-4.22.15-2.52.33-5.06.51-7.57a1.68,1.68,0,0,0-1.58-1.75h-.15a1.72,1.72,0,0,0-1.78,1.45Zm-.5,40.57a.57.57,0,0,1,0-.13.53.53,0,0,0,0,.13ZM79,104.43c0-.11,0-.21,0-.32a1.15,1.15,0,0,0,0,.32Z"/><path class="cls-3" d="M103.23,67.44c-1.08.14-2.16.28-3.24.33s-2-.1-3-.19a34.87,34.87,0,0,0-3.68-.18c-1.32,0-2.58.19-3.87.33s-2.66.23-4,.29c-.73,0-1.44,0-2.17,0a2.21,2.21,0,0,0-1.26.34,1.54,1.54,0,0,0-.64,1.1,1.46,1.46,0,0,0,.38,1.19,1.72,1.72,0,0,0,1.2.58c1.87,0,3.71-.1,5.58-.24,1.59-.11,3.19-.37,4.81-.44,1,0,2,.07,3,.17s2.06.19,3.11.19c2,.07,4-.39,6-.51l.71,0a8,8,0,0,1,1.22.42,5.86,5.86,0,0,0,1.44.37l-.32-.06.37.1.26.31a6.45,6.45,0,0,0,1,.89c.37.29.77.56,1.16.87a16.65,16.65,0,0,1,1.38,1.41c.52.65,1,1.28,1.58,1.89,1.23,1.42,2.57,2.78,3.88,4.15.65.68,1.36,1.32,2,2s1.26,1.17,1.83,1.8c.41.45.79.91,1.23,1.31a10.53,10.53,0,0,0,1.08.94c0,.24,0,.47.05.71s-.06.68-.11,1c-.05.53-.11,1.08-.17,1.61-.12,1.21-.26,2.41-.41,3.62-.15,1.63-.27,3.27-.41,4.9-.12,1.31-.1,2.62-.17,3.92s-.07,2.54-.21,3.8-.27,2.64-.39,4c-.09,1.13-.2,2.26-.29,3.37a30.89,30.89,0,0,0,0,3.6V117a9.25,9.25,0,0,1,0,1.58v.68a2.85,2.85,0,0,0,.18,1.51,1.86,1.86,0,0,0,2.33.82,1.62,1.62,0,0,0,1-1.93c0-.47.06-.93.06-1.41a14.91,14.91,0,0,0-.07-1.88v0l0-.34a1.13,1.13,0,0,1,0,.25c0-1,0-2,.1-3s.21-2.28.3-3.41c.09-1.36.29-2.72.41-4.08.09-1.2.1-2.41.16-3.64,0-.61,0-1.23,0-1.84s.12-1.46.18-2.16c.12-1.61.24-3.22.41-4.83.15-1.13.29-2.26.38-3.39,0-.43.09-.85.15-1.31a8.54,8.54,0,0,0,0-1.34V87a2.07,2.07,0,0,0-.38-1.81,4.1,4.1,0,0,0-.74-.63c-.18-.13-.35-.26-.51-.4A14.2,14.2,0,0,1,125,82.85c-.54-.61-1.14-1.14-1.75-1.72-1.44-1.42-2.89-2.87-4.28-4.36-.6-.63-1.23-1.26-1.8-1.92-.3-.36-.6-.68-.9-1s-.54-.68-.81-1a16.32,16.32,0,0,0-1.91-1.9c-.45-.37-.94-.69-1.39-1a4.28,4.28,0,0,1-.53-.59,2.77,2.77,0,0,0-1.12-.83A6.48,6.48,0,0,0,109,68c-.46-.15-.91-.39-1.37-.52a7.67,7.67,0,0,0-1.84-.29,20.08,20.08,0,0,0-2.56.21Zm8.69,2.22a1.25,1.25,0,0,1,.19.15l-.19-.15Zm-5.55.85.25,0-.25,0Zm2.66.85h0l0,0,0,0Zm2.1,1.84.11.1-.11-.1Zm15.08,10.93h0Zm-1.32,3.18.15.11-.15-.11Zm.72,32.06v0Zm.1-3.05h0v0Z"/><path class="cls-3" d="M108.15,68a1.6,1.6,0,0,0-.94.93,1.52,1.52,0,0,0,0,1.2c.25.71.51,1.44.76,2.17,0,0,0,.07,0,.11l0,0,.06.17,0-.09c.16.52.29,1,.41,1.55a8.45,8.45,0,0,1,.12,1.43V75a18.45,18.45,0,0,1-.48,4,8.42,8.42,0,0,1-.83,2c-.34.71-.68,1.42-1.07,2.11s-.85,1.33-1.29,2-.86,1.23-1.35,1.79a2.73,2.73,0,0,0-1.08,1.26,1.72,1.72,0,0,0,0,1.28,2,2,0,0,0,1,.92,8.9,8.9,0,0,0,3.13,0c.94-.1,1.87-.22,2.78-.31s2.11-.14,3.16-.18h-.44c1.51,0,3.05,0,4.56,0s3.06-.09,4.6-.17a19.46,19.46,0,0,0,2.65-.21l1-.14a7.38,7.38,0,0,0,1.57-.4,1.59,1.59,0,0,0,.92-2.13,1.87,1.87,0,0,0-2.33-.82l-.49.15c-.42.08-.84.12-1.27.17a15.54,15.54,0,0,1-1.95.16H122c-1.28,0-2.58.14-3.86.19h.07c-2.47,0-5-.06-7.44.13-.52,0-1.07,0-1.62.09s-.89.1-1.35.16c.32-.43.64-.88.94-1.34.56-.86,1-1.76,1.5-2.66a18,18,0,0,0,1.17-2.53,20.91,20.91,0,0,0,.54-2.54,12.5,12.5,0,0,0,.21-2.44,18,18,0,0,0-.26-2.44,33.5,33.5,0,0,0-1.4-4.21,1.67,1.67,0,0,0-1.61-.94,1.76,1.76,0,0,0-.69.12Zm-1.77,14.85a.75.75,0,0,0-.07.12.75.75,0,0,1,.07-.12ZM125.17,86l-.28.07.28-.07Zm-.42.1ZM108.06,72.44v0Z"/><line class="cls-4" x1="1.67" y1="2.5" x2="504.61" y2="8.75"/><line class="cls-4" x1="5.16" y1="371.81" x2="506.67" y2="375.71"/><line class="cls-4" x1="1.18" y1="44.43" x2="504.12" y2="50.68"/><path class="cls-1" d="M180.37,17.82l-.61,0-.65,0h-4.58l-1.09,0-.76,0c-.49,0-1.14-.05-1.79-.05-.39,0-.75,0-1.1,0l-.58,0-.74,0H168a5.89,5.89,0,0,1-1-.08h-.08a.88.88,0,0,0-.54.22,1,1,0,0,0-.27.44.7.7,0,0,0,0,.25l0,.78c0,.23,0,.46,0,.69s0,.37,0,.55,0,.4,0,.59,0,.38,0,.57l0,.68c0,.27,0,.54,0,.8s0,.47,0,.71c0,.65,0,1.49,0,2.33,0,.24,0,.48,0,.71s0,.35,0,.52a2.62,2.62,0,0,1,0,.28c0,.13,0,.25,0,.37s0,.52.07.83v.06c0,.18,0,.35,0,.53s0,.4,0,.61,0,.38,0,.56,0,.29,0,.43a2.46,2.46,0,0,0,.06.51l1.54.12c1.32.07,2.63.15,4,.13.38,0,.75,0,1.13,0s.69,0,1,0c.57,0,1.13,0,1.7,0,.93,0,1.87,0,2.8.05,1.29.07,2.59.12,3.88.14l3.77.08c0-.69.09-1.37.14-2.06s.12-1.33.18-2,.05-1.25.1-1.88l-.06,1.13c0-.68.09-1.37.14-2s0-1.51,0-2.26,0-1.68,0-2.52,0-1.69.05-2.53a2.44,2.44,0,0,0,0-.27h-.15c-.31,0-.63,0-.94,0h-1.26c-.31,0-.63,0-.93-.06l-.31,0c-.69-.05-1.5-.1-2.29-.1Z"/><path class="cls-5" d="M166.13,18a.4.4,0,0,0-.12.1.35.35,0,0,0-.12.19.61.61,0,0,0,0,.14s0,.08,0,.12a.28.28,0,0,0,0-.09c0,.16,0,.33,0,.5s0,.34-.05.5a3.77,3.77,0,0,0,0,.47c0,.17,0,.34,0,.51,0,.32,0,.63,0,1s0,.67,0,1,0,.65,0,1,0,.34,0,.51V25.4c0,.16,0,.33,0,.49s0,.31,0,.46,0,.41,0,.61,0,.45-.05.68,0,.42-.06.63l-.06.62-.06.41a2.41,2.41,0,0,0,0,.38,5.17,5.17,0,0,0,.1.79v0a3.27,3.27,0,0,1,0,.54,4.51,4.51,0,0,1,0,.52.25.25,0,0,1,0,.08.43.43,0,0,0,0,.25.35.35,0,0,0,.47.13.34.34,0,0,0,.16-.21c0-.32.08-.65.11-1s0-.63,0-.94,0-.64,0-1,0-.68,0-1c0-.16,0-.32,0-.48s0-.33,0-.49l0-.44c0-.16,0-.33,0-.49,0-.65,0-1.31,0-2v-.51c0-.16,0-.32,0-.49,0-.33,0-.66,0-1s0-.65,0-1a3.84,3.84,0,0,1,0-.48c0-.17,0-.34,0-.5s0-.35,0-.53,0-.39.05-.58,0-.31,0-.46a.83.83,0,0,0,0-.22.61.61,0,0,0-.1-.18v0l0,0h0a.26.26,0,0,0-.14-.09h-.06a.28.28,0,0,0-.13,0Zm-.49,12.36v0Zm0,.17v0Zm.84-12.41h0Z"/><path class="cls-5" d="M168.48,16.05h-1l-.37,0-.32,0-.27,0-.28,0a.36.36,0,0,0-.26.27.48.48,0,0,0,0,.17v.16s0,.08,0,.12,0,.1,0,.14l0,.21v0c0,.1,0,.2,0,.3s0,.11,0,.16v0h0v0l-.06.32a1.64,1.64,0,0,0,0,.23v.11a.38.38,0,0,0,0,.15.27.27,0,0,0,.19.18.27.27,0,0,0,.26-.07.44.44,0,0,0,.08-.15.29.29,0,0,0,0-.09c0-.11,0-.21,0-.32v.07c0-.07,0-.13,0-.2h0c0-.21,0-.42,0-.63a.41.41,0,0,0,0-.11,2,2,0,0,0,0-.42v-.07h.19c.1,0,.21,0,.31,0a2.17,2.17,0,0,0,.36,0h1l.34,0,.57,0a1.41,1.41,0,0,0,.29,0h.7v.15c0,.06,0,.11,0,.17a.92.92,0,0,0,0,.16c0,.05,0,.09,0,.14l0,.26v-.05a.28.28,0,0,1,0,.09.31.31,0,1,0,.62,0,.92.92,0,0,1,0-.16c0-.06,0-.13,0-.2s0-.18,0-.27v-.21a1.45,1.45,0,0,0,0-.29.36.36,0,0,0,0-.25.39.39,0,0,0-.26-.19,1.61,1.61,0,0,0-.49,0,1.58,1.58,0,0,1-.31,0h-.7c-.12,0-.24,0-.36,0h-.36Z"/><path class="cls-5" d="M184.07,17.53l-.34,0c-.24,0-.48,0-.71,0l-.73,0h-.74l-.36,0-.36,0c-.48,0-1,.05-1.43.08l-.71,0h-.75l-.74,0-.35,0h-3.22c-.23,0-.46,0-.68,0s-.47,0-.7,0l-.71,0h-.69c-.23,0-.45,0-.68,0l-.7,0c-.24,0-.48,0-.72,0h-.34l-.34,0h-.3c-.11,0-.22,0-.33,0l-.33,0-.29,0a3.57,3.57,0,0,1-.46,0,.17.17,0,0,0,0,.33h.25q.31,0,.63,0h1.67l.37,0c.46,0,.91,0,1.37,0h4.93l.36,0h1.8l.36,0,.38,0,.72,0,.7,0h.73l.71,0c.25,0,.5,0,.76-.05h.72l.35,0h1.06l.7,0,.69,0,.34,0a1.83,1.83,0,0,0,.33,0,1,1,0,0,0,.24,0,.31.31,0,0,0,.21-.29.33.33,0,0,0,0-.14.27.27,0,0,0-.19-.14,1.6,1.6,0,0,0-.38,0,.85.85,0,0,1-.16,0h-.52l-.33,0h-.7l-.34,0Z"/><path class="cls-5" d="M166,31.55a.27.27,0,0,0-.26.28.26.26,0,0,0,.27.26h1a5,5,0,0,0,.55,0,5.81,5.81,0,0,1,.59,0,4.89,4.89,0,0,0,.54,0,5.82,5.82,0,0,1,.59,0l.6,0,.61,0a8.69,8.69,0,0,0,.88.07c.13,0,.25,0,.38,0a4.87,4.87,0,0,1,.54,0l.5,0a3.54,3.54,0,0,0,.46,0c.17,0,.33,0,.5,0l.41,0,.85.11H175l.62.06.52,0c.37,0,.74,0,1.11.05h0l.22,0h0l.41,0a4.38,4.38,0,0,0,.51,0,3.7,3.7,0,0,0,.47,0l.47,0h.51l.5,0a3.85,3.85,0,0,1,.48,0l.49,0h.48a2.54,2.54,0,0,0,.39,0l.38,0a6.26,6.26,0,0,1,.75,0h.77a2,2,0,0,0,.35,0,2.17,2.17,0,0,1,.36,0h0l.37,0h.36l.25,0h.06a.45.45,0,0,0,.2,0,.3.3,0,0,0,.22-.23.32.32,0,0,0-.15-.36,1,1,0,0,0-.33-.08h-.25l-.31,0a1.6,1.6,0,0,1-.31,0l-.18,0h.08a2,2,0,0,0-.42,0H184l-.8,0-.38,0h-.4c-.26,0-.52,0-.78,0s-.64-.05-1-.06a4,4,0,0,0-.49,0l-.5,0h-.24a1.22,1.22,0,0,0-.27,0c-.16,0-.32,0-.47,0a7.32,7.32,0,0,1-.94,0c-.33,0-.66-.05-1-.05h-.48l-.45,0c-.34,0-.67-.06-1-.07-.16,0-.32,0-.49,0h-.47c-.24,0-.47,0-.7.06a4.11,4.11,0,0,1-.7,0c-.22,0-.44,0-.67,0a5.2,5.2,0,0,1-.68,0c-.32,0-.63-.09-1-.1h-.48l-.45,0h-.93q-.43,0-.87,0H166Zm2.12.56h0Zm2.33.12h0Zm14.22.42h0Zm.74,0h0Z"/><path class="cls-5" d="M186.32,17.85a.27.27,0,0,0-.24.23.55.55,0,0,0,0,.22c0,.05,0,.1,0,.15v.16a.49.49,0,0,1,0,.12v.12a.17.17,0,0,0,0,.07l0,.17a2.29,2.29,0,0,0,0,.25,3.85,3.85,0,0,1,0,.48c0,.15,0,.31,0,.46s0,.33,0,.49v.06h0v.07h0V21c0,.16,0,.32,0,.48s0,.28,0,.43h0v.15h0v.78c0,.38,0,.77,0,1.16,0,.17,0,.34,0,.5s0,.37,0,.55,0,.35,0,.53,0,.36,0,.54,0,.37,0,.56,0,.35,0,.53,0,.12,0,.17v.07h0a2,2,0,0,1,0,.25c0,.11,0,.21,0,.32s0,.33,0,.5c0,.34,0,.69-.06,1,0,.17,0,.35-.05.52v.57c0,.11,0,.22,0,.33s0,.23,0,.34a1.79,1.79,0,0,1,0,.23,1.94,1.94,0,0,1,0,.24c0,.16,0,.32,0,.48a.18.18,0,1,0,.36,0c0-.09,0-.19,0-.29l0-.27a3.18,3.18,0,0,0,.05-.62v.05c0-.11,0-.22,0-.32s0-.12,0-.18v-.18c0-.13,0-.26,0-.39l0-.33c0-.1,0-.21,0-.31s0-.21,0-.32l0-.33c0-.23,0-.45,0-.68s.05-.44.05-.67h0v0c0-.25,0-.51,0-.77s0-.28,0-.42,0-.28,0-.42a4.19,4.19,0,0,1,0-.5c0-.17,0-.34,0-.51s0-.2,0-.3,0-.22,0-.33v-.71c0-.18,0-.36,0-.54s0-.4,0-.6,0-.35,0-.53,0-.37,0-.56,0-.4,0-.6,0-.36,0-.55v-.43a1.77,1.77,0,0,1,0-.23c0-.06,0-.12,0-.18a1.77,1.77,0,0,0,0-.4.92.92,0,0,0,0-.16c0-.05,0-.1,0-.16a2.26,2.26,0,0,0,0-.26.74.74,0,0,0,0-.26.26.26,0,0,0-.25-.17Zm-.2,3.2v0Zm0,1.83v0Zm.45,1.91v0Zm0,0v0Zm0,1v0Zm-.49.35v0Zm.24,3.95v0Zm-.39.55v0Zm.22-8.53v0h0v0Z"/><path class="cls-5" d="M186.15,25.27a2,2,0,0,0-.05.34c0,.05,0,.11,0,.16a1,1,0,0,1,0,.17,1.06,1.06,0,0,1,0,.19c0,.07,0,.13,0,.2v.35c0,.1,0,.2,0,.3s0,.22,0,.33a5,5,0,0,0,0,.67,3.68,3.68,0,0,1-.05.58l0,.3c0,.09,0,.19,0,.28s0,.41,0,.61,0,.41,0,.61,0,.44,0,.66h0c0,.21,0,.42,0,.63s0,.24,0,.37v.15c0,.07,0,.16.07.21a.11.11,0,0,0,.08,0,.15.15,0,0,0,.06.1.18.18,0,0,0,.13,0,.21.21,0,0,0,.12-.07.19.19,0,0,0,0-.13c0-.1,0-.2,0-.3s0-.45,0-.68a2.45,2.45,0,0,1,0-.27c0-.1,0-.21,0-.31s0-.18,0-.28a.76.76,0,0,1,0-.15.34.34,0,0,0,0-.22h0l0-.38c0-.16,0-.33,0-.5s0-.34,0-.51a2,2,0,0,0,0-.24,2.45,2.45,0,0,0,0-.27c0-.18,0-.37,0-.56s0-.36,0-.54,0-.4,0-.6h0c0-.07,0-.13,0-.19a1.92,1.92,0,0,0,0-.24.89.89,0,0,0,0-.23s0-.06,0-.09a.34.34,0,0,1,0-.1c0-.13,0-.26,0-.39a.12.12,0,0,0-.11-.11h0c-.05,0-.11,0-.12.07ZM186,26.7v0Zm-.13,4.1v0Zm.34.53v0Z"/><path class="cls-5" d="M169,15.47h0Zm3.67.23h0Zm-3.91.4h.7c.3,0,.59,0,.89,0a.31.31,0,0,0-.19.25v.07H170l-.87,0h-.36c-.23,0-.46,0-.69,0s-.46,0-.68,0-.43,0-.64,0h-.25a.17.17,0,0,0,0-.07h0v0c0-.06,0-.12,0-.18h.95a2.81,2.81,0,0,0,.29,0l.47,0Zm.79,0h0Zm-.18,0h0Zm-2.89.15v0Zm2.25.24h0Zm3.63.92h0Zm-1.78.07Zm2.59.35Zm-4.55,0h0Zm2.1.11h0Zm-1.85-1.48h0Zm0,0h0Zm-2.41-.15v0Zm.28-.21h0Zm2.64-.66h0Zm.06,0h-1.15l-.7,0h-.45l-.44,0c-.15,0-.29,0-.43,0a.37.37,0,0,0-.18,0,.28.28,0,0,0-.18.23v.06a1.05,1.05,0,0,0,0,.31c0,.06,0,.13,0,.2a1.73,1.73,0,0,0,.11.32.78.78,0,0,0,0,.22v0a1.69,1.69,0,0,0,0,.23,1,1,0,0,0,0,.17.59.59,0,0,1,0,.13s0,.07,0,.11v0a.29.29,0,0,0,0,.09,1.61,1.61,0,0,0,0,.31.19.19,0,0,0,.22.16.18.18,0,0,0,.16-.16l.13,0,.3,0a3,3,0,0,1,.31,0h.14a2.43,2.43,0,0,0,.27,0l.46,0h.57a.74.74,0,0,1,.21,0l.24,0c.16,0,.33,0,.5,0l.54,0a3.77,3.77,0,0,0,.58,0,3.87,3.87,0,0,1,.48,0c.18,0,.36.06.54.08h.51a2.68,2.68,0,0,1,.4,0h0a.3.3,0,0,0,.38,0,.35.35,0,0,0,.12-.21h0a1.49,1.49,0,0,0,0-.21,1.52,1.52,0,0,1,0-.21c0-.07,0-.15,0-.22a3.25,3.25,0,0,0,0-.54c0-.2-.06-.4-.07-.61a.61.61,0,0,0,0-.13.43.43,0,0,0-.13-.19.38.38,0,0,0-.29-.08h0c-.22,0-.43,0-.65-.07s-.55-.05-.83-.06-.58-.05-.88-.08-.57,0-.86,0Zm0,0h0Z"/><path class="cls-6" d="M168.55,30.39h-.92a3.88,3.88,0,0,0-.48,0l-.39,0h-.23l-.17,0-.13,0a.85.85,0,0,0-.23,0,.23.23,0,0,0-.14.29.2.2,0,0,0,.12.13.15.15,0,0,0,.11,0h.16a.1.1,0,0,0,0,.1h0a.08.08,0,0,0,.06.08.42.42,0,0,0,.12,0h0a.09.09,0,0,0-.09.08v0h0a.13.13,0,0,0-.12.05.14.14,0,0,0,0,.11.14.14,0,0,0,.09.08h.08a.43.43,0,0,0,.17.06h1.7l.85,0,.2,0,.29,0h.14a1.18,1.18,0,0,0,.26,0,.17.17,0,0,0,.1-.06h.26a.14.14,0,0,0,.1.07c.2,0,.41,0,.62,0h.35c.24,0,.48,0,.73,0l1,.05.47,0,.47,0,1.11.07h.08l.37,0,.39,0h0a.19.19,0,0,0,.17-.14.42.42,0,0,0,.13.07h.18l.19,0,.33,0,.7,0,.76,0,.68.08.29,0h.31l.11,0a.26.26,0,0,0,.17-.2V32h.1c.26,0,.52,0,.78,0l.29,0,.67.08.7,0,.36,0,.33,0h.11l.38,0,.6.05c.2,0,.41,0,.61,0l.27,0,.29,0a.8.8,0,0,0,.15,0l.11,0,.05,0a.29.29,0,0,0,.11-.11.79.79,0,0,0,.13-.33.77.77,0,0,0,0-.34h0s0,0,0,0a.47.47,0,0,0-.06-.2.47.47,0,0,0-.15-.13l-.24-.07a3.39,3.39,0,0,0-.55,0c-.2,0-.39,0-.59-.06a4.62,4.62,0,0,0-.65-.07,1.42,1.42,0,0,0-.29,0h-1.19a5.85,5.85,0,0,0-.73,0l-.35,0h-.34a4.17,4.17,0,0,0-.61,0l-.27,0h-.28l-.33,0h-.46l-.54,0h-.68l-.71,0c-.93-.06-1.85-.15-2.78-.23-.49,0-1,0-1.48-.06h-4.18Zm-.35.16h0Zm14.22.34h0Zm3.6.46v0Z"/><text class="cls-7" transform="translate(195.94 31.21)">logos</text><text class="cls-8" transform="translate(140.93 324.56)">renuCosmeticsLogos.ai</text><text class="cls-8" transform="translate(375.08 138.78)">designElixir.svg</text><text class="cls-8" transform="translate(224.71 166.28)">bruceWatermark.svg</text><path class="cls-3" d="M386.35,68.5c-.18,2.64-.37,5.28-.52,8-.09,1.38-.07,2.79-.08,4.17s-.1,2.64-.16,4c-.11,3.06-.13,6.13-.09,9.2,0,1.46,0,2.92-.06,4.38s0,3.17.11,4.75a.25.25,0,0,1,0-.08c0,.24,0,.49,0,.73a.17.17,0,0,1,0-.07c.06,1.88.21,3.78.31,5.68,0,0,0-.07,0-.11.05,1.09.1,2.2.14,3.28V112c0,1.44.09,2.84.21,4.28a10.7,10.7,0,0,0,.7,3.3,2.79,2.79,0,0,0,.9,1c.19.1.38.2.57.28a5.11,5.11,0,0,0,.88.2,5.38,5.38,0,0,0,1,0c.33,0,.68,0,1,0,1.88,0,3.71-.32,5.58-.4h-.05c3.65-.07,7.3.38,11,.63a50.32,50.32,0,0,0,5.21.08c.94,0,1.87-.16,2.78-.23s1.79-.17,2.66-.19H418c2.05,0,4.11.08,6.17.22.91,0,1.79.11,2.69.19.72.06,1.4.16,2.12.17a1.76,1.76,0,0,0,1.93-1.45,1.69,1.69,0,0,0-1.61-1.75c-1.05,0-2.12-.19-3.16-.29-.63-.06-1.26-.06-1.89-.09s-1.46-.09-2.2-.12a50,50,0,0,0-5.05,0c-1.58.08-3.15.31-4.71.4-3.45,0-6.91-.37-10.34-.6-1.86-.11-3.7-.2-5.57-.13-1.54.06-3.08.29-4.64.37-.56,0-1.13.07-1.69,0a24.84,24.84,0,0,1-.5-4.54c0,.09,0,.2,0,.29,0-1.41-.12-2.85-.17-4.26v.41c0-2-.19-4-.29-6.07v.41c0-.36,0-.71,0-1.06v.43c0-.8,0-1.57-.08-2.34a2,2,0,0,1,0,.25c-.09-2.82,0-5.61,0-8.43s0-5.83.17-8.75c.06-1.21.13-2.41.13-3.64,0-1.41,0-2.82.09-4.23.15-2.51.33-5.05.51-7.57a1.67,1.67,0,0,0-1.58-1.74h-.15a1.73,1.73,0,0,0-1.78,1.45Zm-.51,40.58v0Zm-.3-6.23c0-.11,0-.22,0-.32a1.83,1.83,0,0,0,0,.32Z"/><path class="cls-3" d="M409.73,65.85a32.33,32.33,0,0,1-3.24.33c-1,0-2-.09-3-.19-1.24-.11-2.45-.19-3.68-.18s-2.58.19-3.87.33-2.66.23-4,.3c-.73,0-1.44,0-2.17,0a2.21,2.21,0,0,0-1.26.34,1.58,1.58,0,0,0-.64,1.11,1.45,1.45,0,0,0,.37,1.18,1.82,1.82,0,0,0,1.21.59c1.87,0,3.71-.11,5.58-.24,1.59-.12,3.19-.38,4.81-.45,1,0,2,.07,3,.17s2.06.19,3.1.2c2,.06,4-.4,6-.52.24,0,.47,0,.7,0a6.85,6.85,0,0,1,1.23.42,5.85,5.85,0,0,0,1.44.36l-.32,0a2.11,2.11,0,0,1,.36.09l.27.31a6.45,6.45,0,0,0,1,.89c.37.29.77.56,1.16.87a16.65,16.65,0,0,1,1.38,1.41c.52.66,1,1.29,1.58,1.9,1.23,1.41,2.57,2.78,3.88,4.15.65.68,1.36,1.31,2,2s1.26,1.16,1.83,1.79c.41.46.79.91,1.23,1.32a11.79,11.79,0,0,0,1.08.93c0,.24,0,.48,0,.72s-.06.67-.11,1c-.05.52-.11,1.08-.17,1.6-.12,1.21-.26,2.42-.41,3.62-.15,1.64-.27,3.27-.41,4.91-.12,1.3-.1,2.61-.17,3.92s-.07,2.54-.21,3.79-.27,2.64-.39,4c-.09,1.13-.2,2.26-.29,3.36a30.89,30.89,0,0,0,0,3.6v-.43a9.39,9.39,0,0,1,0,1.59v.68a2.88,2.88,0,0,0,.18,1.51,1.87,1.87,0,0,0,2.33.82,1.63,1.63,0,0,0,1-1.94c0-.47,0-.93.06-1.4a17.24,17.24,0,0,0-.07-1.89v0l0-.34a2.3,2.3,0,0,1,0,.26c0-1,0-2,.1-3.05s.21-2.29.3-3.42c.09-1.36.29-2.71.41-4.07.09-1.21.1-2.42.16-3.65,0-.6,0-1.23,0-1.83s.12-1.46.18-2.17c.12-1.6.24-3.21.41-4.82.15-1.13.29-2.26.38-3.39,0-.43.09-.86.15-1.31a10,10,0,0,0,0-1.34v-.18a2,2,0,0,0-.37-1.8,4.15,4.15,0,0,0-.74-.64,5,5,0,0,1-.51-.4,13,13,0,0,1-1.26-1.32c-.54-.61-1.15-1.14-1.75-1.72-1.44-1.42-2.89-2.86-4.28-4.35-.6-.64-1.23-1.27-1.8-1.93l-.9-1c-.27-.33-.54-.69-.82-1a15.58,15.58,0,0,0-1.91-1.9c-.44-.37-.93-.68-1.38-1a4.86,4.86,0,0,1-.53-.58,2.79,2.79,0,0,0-1.12-.84,7,7,0,0,0-1.5-.38c-.46-.15-.91-.39-1.38-.52a7.52,7.52,0,0,0-1.83-.29,24.53,24.53,0,0,0-2.56.21Zm8.69,2.22.19.15-.19-.15Zm-5.55.86.25,0-.25,0Zm2.66.84h0l0,0,0,0Zm2.1,1.84.11.11-.11-.11Zm15.08,10.93h0Zm-1.32,3.18.15.12-.15-.12Zm.72,32.06v0Zm.1-3h0v0Z"/><path class="cls-3" d="M414.65,66.41a1.63,1.63,0,0,0-.94.93,1.55,1.55,0,0,0,0,1.21c.25.7.51,1.43.76,2.16,0,0,0,.08,0,.12l0,0,.06.16,0-.09c.16.52.29,1,.4,1.55a7.64,7.64,0,0,1,.13,1.44v-.43a18.54,18.54,0,0,1-.48,4.06,8.53,8.53,0,0,1-.83,1.94c-.34.71-.68,1.43-1.07,2.12s-.85,1.32-1.29,1.94-.86,1.24-1.35,1.79A2.78,2.78,0,0,0,409,86.52a1.75,1.75,0,0,0,0,1.29,2,2,0,0,0,1,.91,8.9,8.9,0,0,0,3.13,0c.94-.1,1.87-.22,2.78-.31s2.11-.14,3.16-.18h-.44c1.51,0,3,0,4.55,0s3.07-.09,4.61-.18a19.46,19.46,0,0,0,2.65-.21l1-.14a8,8,0,0,0,1.57-.39,1.59,1.59,0,0,0,.92-2.13,1.86,1.86,0,0,0-2.33-.82l-.49.14c-.42.08-.84.12-1.27.17a17.67,17.67,0,0,1-1.95.17h.44c-1.28,0-2.58.14-3.86.18h.07c-2.47,0-5-.06-7.44.12-.53,0-1.08,0-1.62.09s-.89.11-1.35.17c.32-.44.64-.89.94-1.35a30.21,30.21,0,0,0,1.5-2.66,17,17,0,0,0,1.17-2.53,20.91,20.91,0,0,0,.54-2.54,12.5,12.5,0,0,0,.21-2.44,18,18,0,0,0-.26-2.44,34,34,0,0,0-1.4-4.21,1.67,1.67,0,0,0-1.61-.94,2,2,0,0,0-.69.12Zm-1.77,14.86-.08.11.08-.11Zm18.78,3.14-.27.06.27-.06Zm-.41.09h0ZM414.56,70.85v0Z"/><path class="cls-3" d="M170.27,254.08c-.18,2.64-.36,5.28-.52,7.94-.09,1.39-.07,2.79-.08,4.18s-.1,2.64-.16,4c-.1,3.07-.12,6.14-.09,9.21,0,1.45,0,2.91-.06,4.37s0,3.17.11,4.76c0,0,0-.06,0-.09,0,.24,0,.49,0,.74,0,0,0-.05,0-.08.07,1.88.21,3.78.31,5.69a.49.49,0,0,1,0-.12c0,1.09.09,2.2.13,3.29v-.4c0,1.43.09,2.84.22,4.27a10.34,10.34,0,0,0,.69,3.3,2.8,2.8,0,0,0,.9,1c.19.1.38.2.57.28a5.13,5.13,0,0,0,.88.21,6.43,6.43,0,0,0,1,0c.33,0,.69,0,1,0,1.87,0,3.7-.31,5.58-.4h-.06c3.65-.08,7.3.37,11,.62,1.73.11,3.49.15,5.22.09.93-.05,1.87-.17,2.77-.24s1.79-.16,2.67-.18h-.44c2.06,0,4.12.07,6.17.21.91,0,1.79.11,2.69.2.72.05,1.4.16,2.12.16a1.76,1.76,0,0,0,1.93-1.45,1.67,1.67,0,0,0-1.61-1.74c-1,0-2.11-.19-3.16-.3-.63-.05-1.26-.06-1.89-.09s-1.45-.08-2.2-.11a47.22,47.22,0,0,0-5,0c-1.58.08-3.14.31-4.7.39-3.46.06-6.92-.37-10.35-.59-1.86-.11-3.7-.2-5.57-.14-1.54.06-3.07.3-4.63.38-.57,0-1.14.06-1.7,0a24.65,24.65,0,0,1-.5-4.54c0,.1,0,.2,0,.29-.05-1.41-.12-2.84-.17-4.25v.4c0-2-.19-4.05-.29-6.06v.4c0-.35,0-.7,0-1.06v.43c0-.79-.05-1.57-.09-2.34a2,2,0,0,1,0,.25c-.1-2.81,0-5.61,0-8.42s0-5.84.16-8.75c.06-1.21.13-2.42.14-3.65,0-1.41,0-2.82.08-4.22.15-2.52.33-5.06.51-7.57a1.67,1.67,0,0,0-1.58-1.75h-.15a1.72,1.72,0,0,0-1.78,1.45Zm-.5,40.57s0-.09,0-.13a.57.57,0,0,0,0,.13Zm-.31-6.23c0-.11,0-.21,0-.32,0,.1,0,.21,0,.32Z"/><path class="cls-3" d="M193.65,251.43c-1.08.14-2.16.28-3.24.33s-2-.1-3-.2c-1.24-.1-2.44-.19-3.68-.17a38.1,38.1,0,0,0-3.87.33c-1.34.14-2.65.23-4,.29-.72,0-1.44.05-2.17,0a2.24,2.24,0,0,0-1.26.35,1.54,1.54,0,0,0-.64,1.1,1.46,1.46,0,0,0,.38,1.19,1.72,1.72,0,0,0,1.2.58c1.87,0,3.71-.1,5.58-.24,1.6-.11,3.19-.37,4.82-.44,1,0,2,.07,3,.16s2,.19,3.1.2c2,.06,4-.4,6-.51.23,0,.46,0,.7,0a6.74,6.74,0,0,1,1.22.42,6,6,0,0,0,1.44.37l-.32-.06.37.1.26.31a6.48,6.48,0,0,0,1,.88c.36.3.76.57,1.16.87.49.46.94.92,1.38,1.41.51.66,1,1.29,1.58,1.9,1.22,1.42,2.56,2.78,3.87,4.15.65.68,1.36,1.32,2,2s1.26,1.17,1.83,1.8c.41.45.79.91,1.23,1.31a9.66,9.66,0,0,0,1.09.94,5.74,5.74,0,0,0,0,.71c0,.33-.06.67-.1,1l-.18,1.61c-.12,1.21-.26,2.41-.41,3.62-.14,1.63-.26,3.27-.41,4.9-.12,1.31-.1,2.62-.17,3.92s-.07,2.54-.21,3.8-.27,2.64-.38,4c-.09,1.13-.21,2.26-.3,3.37a30.89,30.89,0,0,0,0,3.6V301a10.42,10.42,0,0,1,0,1.58v.68a2.86,2.86,0,0,0,.18,1.51,1.88,1.88,0,0,0,2.33.82,1.63,1.63,0,0,0,1-1.93c0-.47.06-.93.06-1.41a14.91,14.91,0,0,0-.07-1.88v0l0-.35a1.3,1.3,0,0,1,0,.26c0-1,0-2,.1-3.05s.21-2.28.3-3.42c.09-1.35.29-2.71.41-4.07.09-1.2.1-2.41.16-3.64,0-.61,0-1.24,0-1.84s.12-1.46.18-2.16c.12-1.61.24-3.22.41-4.83.15-1.13.29-2.26.38-3.39,0-.43.09-.85.15-1.31a8.54,8.54,0,0,0,0-1.34V271a2.07,2.07,0,0,0-.38-1.81,4.41,4.41,0,0,0-.73-.63,5.53,5.53,0,0,1-.52-.41,13,13,0,0,1-1.26-1.31c-.54-.61-1.14-1.14-1.74-1.73-1.45-1.41-2.9-2.86-4.29-4.35-.6-.63-1.22-1.26-1.8-1.92-.3-.36-.6-.69-.9-1s-.54-.68-.81-1a17,17,0,0,0-1.91-1.89c-.45-.37-.93-.69-1.39-1a4.22,4.22,0,0,1-.52-.59,2.71,2.71,0,0,0-1.13-.83,6.48,6.48,0,0,0-1.5-.38c-.46-.15-.91-.39-1.37-.52a7.67,7.67,0,0,0-1.84-.29,20.23,20.23,0,0,0-2.56.21Zm8.69,2.22a.9.9,0,0,1,.19.15l-.19-.15Zm-5.55.85.25,0-.25,0Zm2.66.84h0l0,0,0,0Zm2.1,1.85.12.1-.12-.1Zm15.08,10.93h0Zm-1.31,3.18.15.11-.15-.11Zm.71,32.06v0a0,0,0,0,1,0,0Zm.1-3.05h0v0Z"/><path class="cls-3" d="M198.57,252a1.64,1.64,0,0,0-.94.92,1.51,1.51,0,0,0,.05,1.21c.24.71.5,1.43.75,2.16a.56.56,0,0,1,0,.12v0a1.09,1.09,0,0,0,0,.17l0-.09c.16.51.3,1,.41,1.55a8.36,8.36,0,0,1,.12,1.43V259a18.54,18.54,0,0,1-.48,4.06,9,9,0,0,1-.82,1.95c-.35.71-.69,1.42-1.08,2.11s-.84,1.33-1.28,1.95-.87,1.23-1.36,1.79a2.73,2.73,0,0,0-1.08,1.26,1.72,1.72,0,0,0,.05,1.28,1.93,1.93,0,0,0,1,.91,8.45,8.45,0,0,0,3.13,0c.94-.09,1.87-.21,2.78-.31s2.11-.13,3.16-.18h-.44c1.51,0,3.05,0,4.56,0s3.07-.09,4.6-.17a21.2,21.2,0,0,0,2.65-.21l1-.14a7.85,7.85,0,0,0,1.57-.4,1.59,1.59,0,0,0,.92-2.13,1.87,1.87,0,0,0-2.33-.82l-.49.15c-.42.07-.84.11-1.27.17a17.68,17.68,0,0,1-1.95.16h.44c-1.28,0-2.58.14-3.86.19h.07c-2.47,0-5-.06-7.44.13-.52,0-1.07,0-1.62.09s-.89.1-1.35.16c.32-.44.64-.88.94-1.35a30,30,0,0,0,1.5-2.65,17.63,17.63,0,0,0,1.17-2.54,18.7,18.7,0,0,0,.54-2.53,12.64,12.64,0,0,0,.21-2.44,17.85,17.85,0,0,0-.26-2.44,33.5,33.5,0,0,0-1.4-4.21,1.69,1.69,0,0,0-1.6-.95,1.78,1.78,0,0,0-.7.13Zm-1.77,14.85a.75.75,0,0,0-.07.12.75.75,0,0,1,.07-.12ZM215.59,270l-.27.06.27-.06Zm-.42.09h0Zm-16.69-13.64v0Z"/><path class="cls-3" d="M251.32,97c-.18,2.64-.37,5.28-.52,8-.09,1.38-.07,2.79-.08,4.17s-.1,2.64-.16,4c-.11,3.06-.13,6.13-.09,9.2,0,1.46,0,2.92-.06,4.38s0,3.16.11,4.75a.28.28,0,0,1,0-.09c0,.25,0,.5,0,.74a.17.17,0,0,1,0-.07c.06,1.88.21,3.78.31,5.68a.45.45,0,0,1,0-.11c0,1.09.09,2.2.13,3.28v-.4c0,1.44.09,2.84.21,4.28a10.7,10.7,0,0,0,.7,3.3,2.79,2.79,0,0,0,.9,1c.19.1.38.2.57.28a5.11,5.11,0,0,0,.88.2,6.43,6.43,0,0,0,1,0c.33,0,.68,0,1,0,1.88,0,3.71-.32,5.58-.4h-.05c3.65-.07,7.3.38,10.95.63a50.32,50.32,0,0,0,5.21.08c.94,0,1.87-.16,2.78-.23s1.79-.17,2.66-.19h-.43c2.05,0,4.11.08,6.17.22.91,0,1.79.11,2.69.19.72.06,1.4.16,2.12.17a1.76,1.76,0,0,0,1.93-1.45,1.69,1.69,0,0,0-1.61-1.75c-1.05,0-2.12-.19-3.16-.29-.63-.06-1.26-.06-1.89-.09s-1.46-.09-2.2-.12a50,50,0,0,0-5.05,0c-1.58.08-3.15.31-4.71.4-3.45.05-6.91-.37-10.34-.6-1.86-.11-3.7-.2-5.57-.13-1.54.06-3.08.29-4.64.37a15.89,15.89,0,0,1-1.69,0,24.64,24.64,0,0,1-.5-4.53c0,.09,0,.2,0,.28-.05-1.4-.12-2.84-.17-4.25v.41c0-2-.19-4.06-.29-6.07v.4c0-.35,0-.7,0-1V132c0-.8,0-1.57-.08-2.34a2,2,0,0,1,0,.25c-.09-2.82,0-5.61,0-8.43s0-5.83.17-8.75c.06-1.21.13-2.41.13-3.65,0-1.4,0-2.81.09-4.22.15-2.51.33-5,.51-7.57a1.67,1.67,0,0,0-1.58-1.74h-.15A1.72,1.72,0,0,0,251.32,97Zm-.5,40.58a.66.66,0,0,1,0-.14.66.66,0,0,0,0,.14Zm-.31-6.24c0-.1,0-.21,0-.31a1.67,1.67,0,0,0,0,.31Z"/><path class="cls-3" d="M274.7,94.32c-1.08.14-2.16.29-3.24.33s-2-.1-3-.19c-1.24-.11-2.44-.19-3.68-.18s-2.58.19-3.87.33-2.66.23-4,.3c-.73,0-1.44,0-2.17,0a2.21,2.21,0,0,0-1.26.34,1.58,1.58,0,0,0-.64,1.11,1.45,1.45,0,0,0,.37,1.18,1.82,1.82,0,0,0,1.21.59c1.87,0,3.71-.11,5.58-.24,1.59-.12,3.19-.38,4.81-.45,1,0,2,.07,3,.17s2.06.19,3.1.2c2.05.06,4-.4,6-.52.24,0,.47,0,.7,0a6.85,6.85,0,0,1,1.23.42,5.85,5.85,0,0,0,1.44.36l-.32,0a2.11,2.11,0,0,1,.36.09l.27.31a6.45,6.45,0,0,0,1,.89c.37.29.77.56,1.16.87a16.65,16.65,0,0,1,1.38,1.41c.52.66,1,1.29,1.58,1.89,1.23,1.42,2.57,2.79,3.88,4.15.65.69,1.36,1.32,2,2s1.26,1.17,1.83,1.8c.41.46.79.91,1.23,1.32a11.79,11.79,0,0,0,1.08.93c0,.24,0,.48.05.71s-.06.68-.11,1c-.05.52-.11,1.08-.17,1.6-.12,1.21-.26,2.42-.41,3.62-.15,1.64-.27,3.27-.41,4.9-.12,1.31-.1,2.62-.17,3.93s-.07,2.54-.21,3.79-.27,2.64-.39,4c-.09,1.13-.2,2.26-.29,3.36a30.89,30.89,0,0,0,0,3.6v-.43a9.39,9.39,0,0,1,0,1.59v.68a2.88,2.88,0,0,0,.18,1.51,1.87,1.87,0,0,0,2.33.82,1.63,1.63,0,0,0,1-1.94c0-.47.05-.93.06-1.4a17.24,17.24,0,0,0-.07-1.89v0l0-.34a2.3,2.3,0,0,1,0,.26c0-1,0-2,.1-3.05s.21-2.29.3-3.42c.09-1.36.29-2.72.41-4.07s.1-2.42.16-3.65c0-.6,0-1.23,0-1.83s.12-1.46.18-2.17c.12-1.6.24-3.21.41-4.82.15-1.13.29-2.26.38-3.4,0-.42.09-.85.15-1.3a10,10,0,0,0,0-1.34v-.18a2,2,0,0,0-.37-1.8,4.15,4.15,0,0,0-.74-.64,5,5,0,0,1-.51-.4,13,13,0,0,1-1.26-1.32c-.54-.61-1.15-1.14-1.75-1.72-1.44-1.42-2.89-2.86-4.28-4.35-.6-.64-1.23-1.27-1.8-1.93l-.9-1c-.27-.33-.54-.69-.82-1a15.58,15.58,0,0,0-1.91-1.9c-.44-.37-.93-.69-1.38-1a4.86,4.86,0,0,1-.53-.58A2.79,2.79,0,0,0,282,95.3a7,7,0,0,0-1.5-.38c-.46-.15-.91-.39-1.37-.52a7.67,7.67,0,0,0-1.84-.29,24.53,24.53,0,0,0-2.56.21Zm8.69,2.22.19.15-.19-.15Zm-5.55.86.25,0-.25,0Zm2.66.84h0l0,0,0,0Zm2.1,1.84.11.11-.11-.11ZM297.68,111h0Zm-1.32,3.18.15.12-.15-.12Zm.72,32.06v0Zm.1-3.05h0v0Z"/><path class="cls-3" d="M279.62,94.88a1.63,1.63,0,0,0-.94.93,1.55,1.55,0,0,0,0,1.21c.25.7.51,1.43.76,2.16l0,.12,0,0,.06.16,0-.09c.16.52.29,1,.4,1.55a7.64,7.64,0,0,1,.13,1.44v-.43a18.54,18.54,0,0,1-.48,4.06,8.53,8.53,0,0,1-.83,1.94c-.34.71-.68,1.43-1.07,2.12s-.85,1.32-1.29,1.94-.86,1.24-1.35,1.79A2.78,2.78,0,0,0,274,115a1.75,1.75,0,0,0,0,1.29,2,2,0,0,0,1,.91,8.9,8.9,0,0,0,3.13,0c.94-.1,1.87-.22,2.78-.31s2.11-.14,3.16-.18h-.44c1.51,0,3,0,4.55,0s3.07-.09,4.61-.18a19.46,19.46,0,0,0,2.65-.21l1-.14a8,8,0,0,0,1.57-.39,1.59,1.59,0,0,0,.92-2.13,1.86,1.86,0,0,0-2.33-.82l-.49.14c-.42.08-.84.12-1.27.17a17.67,17.67,0,0,1-1.95.17h.44c-1.28,0-2.58.14-3.86.18h.07c-2.47,0-5,0-7.44.13l-1.62.09c-.44,0-.89.1-1.35.17.32-.44.64-.89.94-1.35a30.21,30.21,0,0,0,1.5-2.66,17.52,17.52,0,0,0,1.17-2.53,20.91,20.91,0,0,0,.54-2.54,12.5,12.5,0,0,0,.21-2.44,18,18,0,0,0-.26-2.44,34,34,0,0,0-1.4-4.21,1.67,1.67,0,0,0-1.61-.94,2,2,0,0,0-.69.12Zm-1.77,14.86-.08.11a1,1,0,0,1,.08-.11Zm18.78,3.14-.27.06.27-.06Zm-.41.09h0ZM279.53,99.32v0Z"/><text class="cls-8" transform="translate(57.15 140.45)">boulderBajaLogo.ai</text></g></g></svg>