<svg xmlns="http://www.w3.org/2000/svg" viewBox="0 0 632.44 378.51"><defs><style>.cls-1{fill:#707da7;}.cls-2{fill:#2f345b;}.cls-3,.cls-7{fill:#d6d5d8;}.cls-4{fill:none;stroke:#2f345b;stroke-miterlimit:10;stroke-width:5px;}.cls-5,.cls-6{fill:#3a4172;}.cls-6{opacity:0.42;}.cls-7{font-size:19.28px;font-family:Meganschalkboard-Regular, Meganschalkboard;}</style></defs><title>Asset 2</title><g id="Layer_2" data-name="Layer 2"><g id="Draw_Layer" data-name="Draw Layer"><rect class="cls-1" x="5.4" y="5.61" width="622.5" height="368.16"/><path class="cls-2" d="M.44,246.05c.14,3.9.47,7.79.57,11.7s.06,8,.08,12.06,0,8.25.09,12.38,0,7.95.21,11.93c.09,1.86.07,3.72.19,5.57.12,2.07.26,4.13.4,6.2.26,4,.52,8,.49,12.05s-.05,7.8-.06,11.7c0,1.89,0,3.77,0,5.67s.17,4.05.28,6.08.19,3.82.29,5.73S3.28,351,3.4,353c.24,3.78.4,7.56.67,11.34.22,3.25.37,6.51.67,9.75a14,14,0,0,1,2.76-.27,7.37,7.37,0,0,1,3.31.82l0-.22c-.16-2-.31-4.07-.45-6.1-.26-3.79-.44-7.57-.68-11.36s-.53-7.82-.73-11.72-.42-7.87-.53-11.81c-.05-1.88,0-3.77,0-5.65s0-4,0-6c0-3.82,0-7.65-.17-11.47-.23-4.17-.6-8.34-.76-12.52-.14-3.93-.26-7.86-.29-11.79s-.1-7.9-.11-11.85q0-6.23,0-12.44c0-3.87-.21-7.71-.43-11.57s-.31-7.68-.36-11.52c-.06-4-.23-8.05-.27-12.09s.12-8.27.22-12.41.11-8,.14-12c0-2.14,0-4.29,0-6.43,0-2,0-3.92,0-5.87,0-4,.06-8,0-12-.06-8.14-.57-16.27-.3-24.41.07-2.2.16-4.41.22-6.61.07-2,0-4,0-5.93,0-4.09-.1-8.17,0-12.25s.17-8.13.33-12.18c.07-1.81.24-3.62.28-5.43,0-2.16.09-4.32.15-6.48,0-1.94.21-3.87.19-5.81,0-2.15,0-4.3-.1-6.45-.08-2-.23-4-.29-6,0-2.15-.07-4.29-.06-6.44s0-4-.07-6,0-4.27,0-6.41c0-4.05,0-8.1.06-12.15,0-3.83.07-7.65.2-11.47.16-4.13.37-8.26.27-12.38-.09-3.82-.39-7.64-.52-11.46-.06-1.77-.11-3.55-.16-5.33,0-1.94.05-3.88.14-5.82.07-1.49.15-3,.25-4.48a2.71,2.71,0,0,0-1-2,3,3,0,0,0-1.9-.78,1.31,1.31,0,0,0-.28,0,3,3,0,0,0-2,.92A3,3,0,0,0,1,4.58,116.37,116.37,0,0,0,.66,16.39c.06,1.79.1,3.57.16,5.36.06,1.95.2,3.89.28,5.84s.21,3.95.21,5.92,0,3.87-.1,5.8c-.18,4-.27,8-.34,12.08S.82,59.26.79,63.2c0,4.11-.08,8.2,0,12.31S.75,83.84,1,88s.41,8.34.29,12.51c-.07,2.06-.16,4.11-.22,6.16s-.06,4-.16,6S.63,116.85.55,119c-.07,1.9-.07,3.8-.11,5.7q-.09,3.09-.17,6.19c0,2,0,4,0,5.94,0,4,.11,7.94,0,11.9C.12,152.83,0,157,0,161.12s.16,8.48.29,12.72c.25,8.08,0,16.16,0,24.24,0,4,0,8.08,0,12.12S.06,218,0,221.87c0,4.26.08,8.52.17,12.78C.27,238.45.3,242.25.44,246.05Z"/><path class="cls-2" d="M623.66,69.48c0,4,0,8,0,12,0,4.24,0,8.48.09,12.72.08,4,0,8.05-.12,12.08s-.13,8.37-.2,12.55.2,8.48.29,12.72.12,8.28.22,12.42.22,8.12.21,12.19c0,1.92,0,3.84,0,5.76-.05,2.21-.07,4.42-.1,6.63,0,1.93,0,3.85,0,5.78,0,2.14,0,4.29-.07,6.44,0,4,0,8,.09,12,.09,4.25.06,8.5.17,12.76.1,4,.16,8,.18,12s-.08,8.05-.14,12.08-.21,8-.22,12.06,0,8.07-.08,12.11c-.12,8-.33,16-.12,24,.11,3.91.39,7.81.53,11.73s.2,7.85.25,11.78c0,1.9,0,3.81,0,5.71s0,4,.09,6,0,3.76,0,5.64.09,3.65.18,5.48c.18,3.78.4,7.55.6,11.33.1,1.95.2,3.91.33,5.86s.24,3.82.29,5.73c.1,3.59.14,7.17.21,10.75,0,1.66.09,3.3.12,5s0,3.52,0,5.28,0,3.8-.07,5.69c-.05,1.57-.14,3.15-.23,4.73a13.55,13.55,0,0,1,4.33-.7,6.67,6.67,0,0,1,1.68.22c.16-3.17.28-6.34.29-9.51,0-3.58,0-7.14-.09-10.71s-.11-7.13-.21-10.69c-.1-3.89-.41-7.78-.61-11.66s-.42-7.49-.6-11.24c-.1-1.9-.2-3.81-.2-5.72s0-3.73,0-5.6-.11-3.94-.1-5.91,0-3.92,0-5.88c0-3.85-.11-7.72-.25-11.58s-.42-7.83-.52-11.75-.12-8.09-.09-12.14.14-7.94.2-11.91.07-8.08.08-12.12.15-8.13.22-12.2.16-7.91.14-11.87-.07-8.07-.18-12.09c-.1-4.2-.07-8.4-.17-12.6s-.14-8.13-.1-12.19c0-2.15.06-4.29.07-6.43,0-1.9,0-3.79,0-5.69.06-4.2.15-8.4.13-12.59,0-2,0-4-.05-6s-.12-4.08-.16-6.12c-.1-4.08-.13-8.17-.22-12.26-.09-4.33-.27-8.67-.29-13,0-2,.08-4,.09-6,0-2.16.06-4.33.11-6.5.08-4.06.2-8.11.12-12.17s-.12-8.39-.09-12.59c0-4,.06-8,0-11.92s-.14-7.93-.19-11.89c0-2.08-.06-4.15-.1-6.23s0-4,.08-5.94c.11-3.91.24-7.82.34-11.73.1-3.59.22-7.17.44-10.76.12-1.92.2-3.82.22-5.75s0-3.81.14-5.72l0-.57a3.05,3.05,0,0,0-2.85-2.94h-.28a3,3,0,0,0-2.06,1,3.34,3.34,0,0,0-.8,2.25c-.11,2-.19,4.07-.18,6.11s-.07,3.83-.21,5.74c-.24,3.59-.35,7.21-.44,10.81-.09,3.84-.22,7.68-.34,11.52-.06,2-.11,4-.08,6l.09,6.34C623.52,61.6,623.65,65.54,623.66,69.48Z"/><path class="cls-2" d="M19.15,20.63A5.25,5.25,0,0,0,19.41,28a5.58,5.58,0,0,0,3.83,1.41,5,5,0,0,0,3.59-1.67,5.22,5.22,0,0,0-.26-7.41A5.58,5.58,0,0,0,22.74,19a5,5,0,0,0-3.59,1.67Z"/><path class="cls-2" d="M36.74,20.33A5.22,5.22,0,0,0,37,27.74a5.56,5.56,0,0,0,3.83,1.41,5,5,0,0,0,3.59-1.67,5.25,5.25,0,0,0-.26-7.41,5.58,5.58,0,0,0-3.83-1.41,5,5,0,0,0-3.59,1.67Z"/><path class="cls-2" d="M53,20.53A5.26,5.26,0,0,0,53.28,28a5.58,5.58,0,0,0,3.83,1.41,5,5,0,0,0,3.59-1.67,5.24,5.24,0,0,0-.26-7.42,5.6,5.6,0,0,0-3.83-1.4A5.1,5.1,0,0,0,53,20.53Z"/><path class="cls-2" d="M46.88,145.19c-.07,1.72-.14,3.42-.12,5.14.05,3.29.11,6.58.16,9.87s.17,6.76.16,10.14c0,1.64,0,3.28,0,4.92s0,3.47,0,5.2c.11,6.67.24,13.35.23,20,0,3.43,0,6.85,0,10.28,0,1.67.06,3.35.08,5s0,3.31.11,5c.14,3.49.26,7,.36,10.46,0,1.62.16,3.23.23,4.85s.13,3.42.18,5.13c.08,3.24.22,6.48.37,9.71.07,1.7.18,3.39.22,5.09s0,3.52.09,5.28c.08,3.47.19,6.94.22,10.41,0,3.26.07,6.52.22,9.78s.37,6.74.57,10.11.35,6.73.48,10.09c.07,1.59,0,3.18,0,4.78s0,3.25,0,4.89c.05,3.5.07,7,.28,10.5.19,3.34.4,6.68.43,10,0,3.17-.13,6.33-.15,9.51a91.33,91.33,0,0,0,.6,9.77c.16,1.58.37,3.15.59,4.73s.29,2.87.37,4.3c0,.49.08,1,.1,1.47s0,1,0,1.48c0,1.09,0,2.17,0,3.26q-.07,3.67-.06,7.34a1.79,1.79,0,0,0,.18.73,13.6,13.6,0,0,1,3.79-.62c0-.11,0-.23,0-.35,0-3.15,0-6.29,0-9.43a57.75,57.75,0,0,0-.47-8.42c-.44-3.16-.77-6.32-1-9.5a85.37,85.37,0,0,1-.09-9.73c.12-3.31,0-6.62-.09-9.92-.06-1.63-.19-3.27-.29-4.9s-.17-3.46-.2-5.2c-.06-3.4-.12-6.79-.13-10.19,0-1.59,0-3.19,0-4.78-.07-1.77-.17-3.55-.26-5.32-.17-3.28-.34-6.56-.54-9.85s-.35-6.66-.41-10-.08-6.8-.16-10.2c-.05-1.67-.09-3.34-.13-5s0-3.52-.09-5.28c-.08-3.29-.31-6.58-.45-9.87s-.18-6.71-.32-10.06c-.07-1.62-.19-3.23-.23-4.84s-.09-3.51-.15-5.26-.14-3.47-.21-5.2-.08-3.32-.11-5c-.1-6.74-.12-13.47-.12-20.2,0-3.3-.1-6.6-.11-9.9,0-1.74-.07-3.48-.09-5.23s0-3.46,0-5.19q0-5-.07-10c-.06-3.28-.16-6.57-.21-9.85,0-1.69,0-3.38-.07-5.07s0-3.43.12-5.15.12-3.58.15-5.37c0-1.58.09-3.15.09-4.73,0-3.31-.11-6.62-.22-9.92s0-6.66.06-10,.08-6.85.11-10.28c0-1.55.06-3.11.07-4.66s0-3.37-.05-5c0-1.48.06-3,.1-4.44s.09-3.06.17-4.58c.16-2.25.32-4.49.45-6.74l0,.51c.25-3.92.37-7.84.47-11.77,0-2,0-3.93,0-5.89,0-1.75.07-3.51.18-5.26.11-1.57.27-3.14.41-4.72.08-.86.13-1.72.24-2.58s.22-1.59.34-2.38a2,2,0,0,0-1.58-2.32.57.57,0,0,0-.18,0,2,2,0,0,0-2.16,1.58c-.18,1.1-.33,2.21-.46,3.31-.08.66-.09,1.33-.16,2s-.11,1.22-.16,1.83c-.24,2.66-.43,5.33-.46,8s0,5.32-.06,8-.13,5.44-.28,8.16l0-.5-.21,3.35c-.1,1.55-.21,3.1-.32,4.64-.13,1.8-.17,3.6-.23,5.4-.05,1.57-.11,3.14-.11,4.71s0,3.37,0,5-.05,3.11-.06,4.67c0,1.73,0,3.46,0,5.19s0,3.39-.06,5.08-.09,3.35-.11,5c0,3.36.12,6.72.19,10.08,0,1.6.07,3.21.07,4.8s-.06,3.16-.09,4.73C47,141.6,47,143.39,46.88,145.19Z"/><path class="cls-3" d="M73.83,321.08c-.12,1.8-.25,3.61-.35,5.43-.07.94,0,1.9-.06,2.85s-.07,1.8-.11,2.71c-.07,2.1-.08,4.19-.06,6.29,0,1,0,2,0,3s0,2.16.08,3.24a.13.13,0,0,1,0-.06c0,.17,0,.34,0,.51a.07.07,0,0,0,0-.05c0,1.28.15,2.58.21,3.88v-.08c0,.74.06,1.5.09,2.25v-.28c0,1,.07,1.94.15,2.92a7,7,0,0,0,.48,2.26,1.86,1.86,0,0,0,.61.7l.39.2a4,4,0,0,0,.6.14,5,5,0,0,0,.68,0h.69c1.28,0,2.53-.22,3.81-.28h0c2.5-.05,5,.25,7.48.42a32.68,32.68,0,0,0,3.57.06c.63,0,1.27-.11,1.89-.16s1.22-.11,1.82-.12h-.3c1.41,0,2.81.06,4.22.15.62,0,1.22.08,1.84.13s1,.11,1.44.12a1.21,1.21,0,0,0,1.32-1,1.14,1.14,0,0,0-1.1-1.19c-.71,0-1.44-.13-2.16-.21-.43,0-.86,0-1.29-.06l-1.5-.07a33,33,0,0,0-3.45,0c-1.08.06-2.15.21-3.21.27-2.36,0-4.72-.25-7.07-.4-1.27-.08-2.53-.14-3.8-.1-1.05.05-2.1.21-3.17.26a11.23,11.23,0,0,1-1.16,0,17.83,17.83,0,0,1-.34-3.1.69.69,0,0,1,0,.2c0-1-.08-1.94-.11-2.9v.27c0-1.39-.13-2.76-.2-4.14v.28c0-.24,0-.49,0-.73v.3c0-.55,0-1.07,0-1.6,0,.05,0,.11,0,.17-.07-1.92,0-3.83,0-5.75s0-4,.11-6c0-.83.09-1.65.09-2.49s0-1.93.06-2.89c.1-1.71.23-3.45.35-5.17a1.14,1.14,0,0,0-1.08-1.19h-.1a1.17,1.17,0,0,0-1.22,1Zm-.34,27.71a.28.28,0,0,0,0-.09.28.28,0,0,0,0,.09Zm-.21-4.26a1.48,1.48,0,0,1,0-.21,1.48,1.48,0,0,0,0,.21Z"/><path class="cls-3" d="M89.8,319.27c-.74.1-1.48.19-2.21.22s-1.37-.06-2-.13c-.84-.07-1.66-.13-2.51-.12s-1.76.13-2.64.23-1.82.15-2.73.2c-.49,0-1,0-1.48,0a1.5,1.5,0,0,0-.86.23,1.06,1.06,0,0,0-.44.76,1,1,0,0,0,.26.8,1.23,1.23,0,0,0,.82.41c1.28,0,2.53-.07,3.81-.17,1.09-.08,2.18-.25,3.29-.3.7,0,1.38.05,2.06.11s1.4.13,2.12.14c1.39,0,2.74-.27,4.12-.35a3.87,3.87,0,0,1,.48,0,5.05,5.05,0,0,1,.83.28,3.79,3.79,0,0,0,1,.25l-.22,0,.25.07.18.21a4.34,4.34,0,0,0,.67.61c.25.2.53.38.79.59s.65.63,1,1,.7.88,1.08,1.3c.83,1,1.75,1.9,2.64,2.83.45.47.93.9,1.4,1.37s.86.8,1.25,1.23.54.62.84.9a7.45,7.45,0,0,0,.74.63c0,.17,0,.33,0,.49s0,.46-.07.68l-.12,1.1c-.08.83-.18,1.65-.28,2.47-.1,1.12-.19,2.24-.29,3.35-.08.89-.06,1.79-.11,2.68s0,1.74-.15,2.59-.18,1.81-.26,2.72-.14,1.54-.2,2.3a22.25,22.25,0,0,0,0,2.45v-.29a6.49,6.49,0,0,1,0,1.08v.47a1.81,1.81,0,0,0,.12,1,1.28,1.28,0,0,0,1.59.56,1.11,1.11,0,0,0,.67-1.32c0-.32,0-.64,0-1a11.21,11.21,0,0,0,0-1.29v0a2,2,0,0,0,0-.23.55.55,0,0,1,0,.18,20.85,20.85,0,0,1,.07-2.09c.06-.79.14-1.56.2-2.33.07-.93.2-1.86.29-2.78s.06-1.65.1-2.49c0-.42,0-.84,0-1.26s.08-1,.12-1.47c.09-1.1.17-2.2.29-3.3.1-.77.2-1.54.26-2.32,0-.29.06-.58.1-.89a5.53,5.53,0,0,0,0-.91v-.12a1.43,1.43,0,0,0-.25-1.24,3.05,3.05,0,0,0-.51-.43c-.12-.09-.24-.18-.35-.28a8.11,8.11,0,0,1-.86-.9c-.37-.41-.78-.77-1.19-1.17-1-1-2-2-2.93-3-.41-.43-.83-.86-1.23-1.31l-.61-.71c-.19-.22-.37-.46-.56-.71a12.18,12.18,0,0,0-1.3-1.29c-.31-.26-.64-.47-1-.71a3.42,3.42,0,0,1-.36-.4,1.89,1.89,0,0,0-.76-.57,4.58,4.58,0,0,0-1-.26c-.31-.1-.62-.27-.94-.36a5.25,5.25,0,0,0-1.25-.19,14.74,14.74,0,0,0-1.75.14Zm5.94,1.52.12.1-.12-.1Zm-3.8.58.17,0-.17,0Zm1.82.57h0l0,0,0,0Zm1.44,1.26a.46.46,0,0,0,.07.07.46.46,0,0,1-.07-.07Zm10.29,7.47h0Zm-.89,2.17.1.08a.39.39,0,0,1-.1-.08Zm.48,21.9v0Zm.07-2.09h0v0Z"/><path class="cls-3" d="M93.16,319.65a1.1,1.1,0,0,0-.64.63,1,1,0,0,0,0,.83c.16.48.35,1,.51,1.48l0,.08v0l0,.12a.19.19,0,0,1,0-.07c.11.36.2.7.28,1.06a5.33,5.33,0,0,1,.08,1v-.29a12.33,12.33,0,0,1-.32,2.77,6.24,6.24,0,0,1-.56,1.33c-.24.49-.47,1-.74,1.44s-.58.91-.88,1.33-.59.85-.92,1.23a1.86,1.86,0,0,0-.74.86,1.14,1.14,0,0,0,0,.87,1.38,1.38,0,0,0,.71.63,6.15,6.15,0,0,0,2.14,0c.64-.06,1.27-.15,1.89-.21s1.45-.09,2.16-.12h-.3c1,0,2.08,0,3.11,0s2.1-.06,3.15-.12a13.53,13.53,0,0,0,1.81-.14l.71-.1a5.24,5.24,0,0,0,1.07-.27,1.08,1.08,0,0,0,.63-1.45,1.27,1.27,0,0,0-1.59-.56l-.34.1c-.28.05-.57.08-.86.11a9.82,9.82,0,0,1-1.34.11h.3c-.87,0-1.76.09-2.63.12h0c-1.69,0-3.4,0-5.09.08-.35,0-.73,0-1.1.07s-.61.07-.92.11c.22-.3.43-.61.64-.92a20.19,20.19,0,0,0,1-1.82,11.28,11.28,0,0,0,.8-1.73,13,13,0,0,0,.37-1.73,7.76,7.76,0,0,0,.14-1.66,11.52,11.52,0,0,0-.17-1.67,23.15,23.15,0,0,0-1-2.88,1.14,1.14,0,0,0-1.1-.64,1.45,1.45,0,0,0-.47.08ZM92,329.8a.56.56,0,0,0,0,.08.22.22,0,0,1,0-.08Zm12.83,2.14-.18.05.18-.05Zm-.28.07h0Zm-11.4-9.33h0Z"/><line class="cls-4" x1="1.79" y1="2.5" x2="629.67" y2="8.75"/><line class="cls-4" x1="6.15" y1="371.81" x2="632.24" y2="375.71"/><line class="cls-4" x1="1.18" y1="44.43" x2="629.06" y2="50.68"/><path class="cls-1" d="M281.17,20l-.61,0-.65,0h-4.59l-1.09,0h-.75c-.5,0-1.14,0-1.79,0l-1.1,0-.59,0-.74,0-.45,0a5.87,5.87,0,0,1-1.05-.09h-.09a.85.85,0,0,0-.54.22.83.83,0,0,0-.26.44.71.71,0,0,0-.06.24c0,.26,0,.53,0,.78l0,.69V23c0,.19,0,.39,0,.59l0,.56c0,.23,0,.46,0,.69a7,7,0,0,0,0,.79c0,.23,0,.48,0,.72,0,.64,0,1.49,0,2.33l0,.71,0,.51v.29c0,.12,0,.24,0,.36s0,.53.08.83v.07c0,.17,0,.34,0,.52s0,.41,0,.61a5.42,5.42,0,0,1,0,.57c0,.14,0,.28,0,.42a1.93,1.93,0,0,0,.06.51c.51,0,1,.09,1.54.12,1.31.08,2.63.15,4,.14.37,0,.75,0,1.12,0l1,0c.56,0,1.13,0,1.69,0,.94,0,1.87,0,2.81,0,1.29.07,2.58.12,3.88.14l3.76.08c0-.69.09-1.37.15-2.06s.12-1.33.17-2,.06-1.26.11-1.89c0,.38-.05.76-.07,1.13,0-.68.09-1.36.14-2.05s0-1.5,0-2.26,0-1.68,0-2.52,0-1.69.06-2.53c0-.09,0-.18,0-.27h-.16l-.93,0H285l-.93-.05-.31,0c-.69,0-1.49-.1-2.29-.1Z"/><path class="cls-5" d="M266.92,20.23a.94.94,0,0,0-.12.09.45.45,0,0,0-.11.19.78.78,0,0,0,0,.14.49.49,0,0,0,0,.12.28.28,0,0,1,0-.09c0,.17,0,.33-.05.5s0,.34-.05.51,0,.31,0,.47,0,.33,0,.5,0,.63,0,.95,0,.68,0,1,0,.65,0,1c0,.17,0,.34,0,.51s0,.34,0,.5,0,.33,0,.49,0,.33,0,.49v1c0,.2,0,.4,0,.6s0,.46-.05.68l-.06.63c0,.21,0,.42-.07.63s0,.27,0,.4,0,.26,0,.39.07.52.1.78v.05h0a4.75,4.75,0,0,1,0,.54,2.9,2.9,0,0,1,0,.51s0,0,0,.08a.34.34,0,0,0,0,.26.38.38,0,0,0,.21.16.32.32,0,0,0,.25,0,.32.32,0,0,0,.16-.2c.05-.33.09-.65.11-1s0-.62,0-.93a7.78,7.78,0,0,1,0-1c0-.34,0-.68,0-1,0-.16,0-.31,0-.47s0-.33,0-.5,0-.29,0-.44,0-.32,0-.49c0-.65,0-1.31,0-2,0-.17,0-.35,0-.52s0-.32,0-.48c0-.33,0-.66,0-1s0-.66,0-1v-1c0-.17,0-.35,0-.52s0-.39,0-.59,0-.3,0-.46a.83.83,0,0,0,0-.22.46.46,0,0,0-.1-.18l0,0h0a.08.08,0,0,1,0,0h0a.34.34,0,0,0-.14-.09h-.07a.22.22,0,0,0-.13,0Zm-.49,12.35v0Zm0,.17v0Zm.84-12.4h0Z"/><path class="cls-5" d="M269.28,18.24a1.82,1.82,0,0,1-.33,0h-.69c-.12,0-.24,0-.36,0l-.33,0-.27,0a1.18,1.18,0,0,0-.27,0,.33.33,0,0,0-.26.26.33.33,0,0,0,0,.17s0,0,0,.06,0,.07,0,.1,0,.08,0,.12a.77.77,0,0,0,0,.15c0,.07,0,.14,0,.21v.05c0,.1,0,.2,0,.3v.18h0v0c0,.11,0,.21-.05.32l0,.23v.11a.38.38,0,0,0,0,.15.27.27,0,0,0,.2.19.29.29,0,0,0,.26-.08.31.31,0,0,0,.07-.14.38.38,0,0,0,0-.1l0-.32v.07a1.5,1.5,0,0,1,0-.2h0a4.32,4.32,0,0,0,.05-.62.49.49,0,0,0,0-.12,3,3,0,0,0,0-.42s0,0,0-.07h.19a1.71,1.71,0,0,1,.32,0l.36,0H269a1.47,1.47,0,0,0,.21,0c.11,0,.22,0,.33,0l.58,0h.29a2.43,2.43,0,0,1,.27,0l.16,0h.27v.15c0,.06,0,.12,0,.18a.76.76,0,0,1,0,.15.65.65,0,0,0,0,.14,1.09,1.09,0,0,0,0,.26v.05a.31.31,0,0,0,.32.3.32.32,0,0,0,.31-.32V19.5a2.43,2.43,0,0,1,0-.27,1.62,1.62,0,0,1,0-.22c0-.09,0-.19,0-.29a.53.53,0,0,0-.05-.25.44.44,0,0,0-.27-.19,1.61,1.61,0,0,0-.49,0,1.63,1.63,0,0,1-.31,0h-.34a2.17,2.17,0,0,1-.36,0l-.36,0h-.35Z"/><path class="cls-5" d="M284.87,19.73l-.35,0c-.23,0-.47,0-.71,0l-.73,0-.74,0H282l-.36,0-1.43.07c-.24,0-.47,0-.71,0h-.37c-.12,0-.25,0-.38,0l-.73,0h-1.08l-.34,0h-2.15c-.23,0-.46,0-.69,0H273l-.71,0h-.69c-.22,0-.45,0-.68,0l-.7,0-.71.05h-.34l-.34,0h-.31a3.16,3.16,0,0,0-.32,0l-.34,0-.28,0h-.46a.15.15,0,0,0-.16.16.16.16,0,0,0,.16.16h.17l.13,0h0a4.29,4.29,0,0,0,.62,0h.66l.66,0h.36l.37,0c.45,0,.91,0,1.36.05h4.2l.36,0h2.89l.38,0c.24,0,.48,0,.72,0l.7,0h.73c.24,0,.48,0,.72,0l.75-.05H285c.24,0,.47,0,.71,0s.45,0,.68,0l.35,0,.33,0,.23,0a.29.29,0,0,0,.21-.29.23.23,0,0,0,0-.14.36.36,0,0,0-.18-.14h-1.06l-.34,0h-.69l-.34,0Z"/><path class="cls-5" d="M266.82,33.75a.27.27,0,0,0-.26.27.26.26,0,0,0,.28.26h1.59a3.74,3.74,0,0,1,.58,0,3.26,3.26,0,0,0,.54,0l.6,0a5.85,5.85,0,0,0,.59,0c.2,0,.41,0,.61,0s.59.06.89.07h.92l.49,0a3.69,3.69,0,0,0,.47,0l.49,0a2,2,0,0,1,.42,0l.84.1h-.09l.62.06.52,0c.37,0,.74,0,1.12,0h0l.22,0h0l.42,0a4.21,4.21,0,0,0,.5,0,3.62,3.62,0,0,0,.47,0l.48,0h.5l.5,0a4,4,0,0,1,.49,0l.49,0,.48,0,.39,0,.38,0c.25,0,.49,0,.74,0l.77,0h.35a2.26,2.26,0,0,1,.37,0h0l.36,0h.36l.25,0h.07a.41.41,0,0,0,.19,0,.33.33,0,0,0,.23-.23.31.31,0,0,0-.16-.35.76.76,0,0,0-.33-.08.34.34,0,0,0-.1,0h-.14l-.31,0a1.61,1.61,0,0,1-.31,0l-.18,0h.08l-.43,0h-.36a7.14,7.14,0,0,1-.8,0l-.38,0h-.39c-.27,0-.53,0-.79,0s-.64-.06-1-.07H281l-.5,0H280c-.16,0-.31,0-.47,0a7.38,7.38,0,0,1-.94,0l-1-.05h-.48l-.45,0-1-.07-.48,0h-.47c-.24,0-.47,0-.71.06a5.31,5.31,0,0,1-.69,0l-.67,0a5.1,5.1,0,0,1-.68,0c-.32,0-.64-.09-1-.1h-.22a1,1,0,0,1-.25,0c-.16,0-.31,0-.46,0s-.32,0-.49,0h-.43c-.29,0-.59,0-.88,0h-.76l-.31,0h-.37Zm2.12.55h0Zm2.34.12h0Zm14.21.42h0Zm.74,0h0Z"/><path class="cls-5" d="M287.11,20a.28.28,0,0,0-.23.23.55.55,0,0,0,0,.22.77.77,0,0,1,0,.15v.16s0,.08,0,.12v.2a1.22,1.22,0,0,1,0,.17,1,1,0,0,0,0,.25c0,.15,0,.31,0,.47v.47c0,.16,0,.32,0,.48V23h0v.07h0v.13c0,.16,0,.32,0,.49s0,.28,0,.42h0v.15h0v.05c0,.24,0,.49,0,.74s0,.77,0,1.16l0,.51c0,.18,0,.36,0,.54s0,.36,0,.53v.55c0,.18,0,.37,0,.55v.78h0v0c0,.09,0,.17,0,.26a1.62,1.62,0,0,0,0,.31c0,.17,0,.34,0,.5,0,.35-.05.69-.07,1,0,.18,0,.35,0,.52s0,.38,0,.57,0,.22,0,.33,0,.23,0,.34,0,.16,0,.23l0,.25c0,.16,0,.32,0,.48a.18.18,0,0,0,.15.2.19.19,0,0,0,.2-.15c0-.1,0-.2,0-.29a1.18,1.18,0,0,1,0-.27,4.4,4.4,0,0,0,0-.62v0c0-.1,0-.21,0-.32s0-.12,0-.18a1.09,1.09,0,0,0,0-.18c0-.13,0-.26,0-.39s0-.22,0-.33l0-.31,0-.32c0-.11,0-.22,0-.33s0-.45,0-.68.05-.44.06-.66h0v0c0-.26,0-.52,0-.78s0-.27,0-.41,0-.29,0-.43,0-.33,0-.49,0-.34,0-.52,0-.2,0-.3,0-.22,0-.33,0-.47,0-.7,0-.36,0-.54,0-.41,0-.61,0-.35,0-.53,0-.37,0-.55,0-.4,0-.6,0-.37,0-.56v.08c0-.17,0-.34,0-.51a1.85,1.85,0,0,0,0-.23c0-.06,0-.12,0-.18a2.54,2.54,0,0,0,0-.39.92.92,0,0,1,0-.16,1,1,0,0,1,0-.17c0-.08,0-.17,0-.26a1.17,1.17,0,0,0,0-.26.26.26,0,0,0-.25-.17Zm-.2,3.2v0Zm0,1.83v0Zm.46,1.91v0Zm0,0v0Zm0,.95v0Zm-.49.36v0Zm.24,4v0Zm-.4.55h0Zm.23-8.53v0h0v0Z"/><path class="cls-5" d="M286.94,27.47a1.75,1.75,0,0,0-.05.33c0,.06,0,.11,0,.16s0,.12,0,.17,0,.13,0,.2a.65.65,0,0,0,0,.2c0,.11,0,.23,0,.35s0,.2,0,.3,0,.22,0,.33a5,5,0,0,0,0,.67c0,.19,0,.38-.05.58a1.43,1.43,0,0,0,0,.29,2.81,2.81,0,0,0,0,.29c0,.2,0,.4,0,.6s0,.41,0,.61,0,.45,0,.67h0c0,.21,0,.42,0,.63s0,.25,0,.37a.76.76,0,0,0,0,.15.25.25,0,0,0,.07.22l.07,0a.15.15,0,0,0,.06.09.17.17,0,0,0,.13,0,.19.19,0,0,0,.12-.07.15.15,0,0,0,0-.13,1.45,1.45,0,0,1,0-.3c0-.22,0-.45,0-.68a2.11,2.11,0,0,1,0-.26c0-.11,0-.21,0-.32s0-.18,0-.27,0-.1,0-.16a.26.26,0,0,0,0-.21h0l0-.37c0-.17,0-.34,0-.5a4.41,4.41,0,0,1,0-.52l0-.24a2.11,2.11,0,0,0,0-.26,5.42,5.42,0,0,0,0-.57c0-.18,0-.36,0-.54l0-.6h0a1.21,1.21,0,0,1,0-.19v-.47s0-.06,0-.09a.38.38,0,0,0,0-.1,2.55,2.55,0,0,0,0-.39.12.12,0,0,0-.1-.11h0a.13.13,0,0,0-.12.08Zm-.17,1.43h0ZM286.64,33v0Zm.35.54h0Z"/><path class="cls-5" d="M269.83,17.66h0Zm3.67.23h0Zm-3.9.4c.2,0,.41,0,.62,0h.08c.29,0,.59,0,.88,0a.31.31,0,0,0-.18.25.08.08,0,0,0,0,.07h-.19l-.86,0h-.36c-.24,0-.47,0-.7,0l-.68,0-.63,0a1,1,0,0,0-.25,0,.22.22,0,0,1,0-.08h0v-.2h0l.26,0h1l.47,0Zm.78,0h0Zm-.18,0h0Zm-2.88.14v0Zm2.24.24h0Zm3.63.92h0Zm-1.77.07ZM274,20h0Zm-4.54,0h0Zm2.09.11h0Zm-1.84-1.48h0Zm0,0h0Zm-2.4-.15v0Zm.28-.21h0Zm2.63-.66h0Zm.06,0h-1.14c-.24,0-.47,0-.71,0H268l-.45,0c-.14,0-.28,0-.43,0a.39.39,0,0,0-.18,0,.34.34,0,0,0-.18.24v.06a1,1,0,0,0,0,.3,1.36,1.36,0,0,0,0,.2,1.26,1.26,0,0,0,.1.33.7.7,0,0,0,0,.21v0a1.85,1.85,0,0,0,0,.23.9.9,0,0,0,0,.16.7.7,0,0,1,0,.14s0,.06,0,.1v0s0,.06,0,.1a1,1,0,0,0,0,.3.19.19,0,0,0,.21.17.2.2,0,0,0,.16-.17l.14,0,.29,0,.31,0h.42c.15,0,.3,0,.46,0h.78l.23,0,.5,0,.55,0a3.74,3.74,0,0,0,.58,0c.16,0,.32,0,.47,0l.55.08c.17,0,.33,0,.5,0a2.82,2.82,0,0,1,.41,0h0a.33.33,0,0,0,.39,0,.31.31,0,0,0,.11-.21h0a1.7,1.7,0,0,0,0-.22,1.38,1.38,0,0,1,0-.2.9.9,0,0,0,0-.23,2.34,2.34,0,0,0,0-.53c0-.21-.06-.41-.08-.61a.32.32,0,0,0,0-.14.41.41,0,0,0-.13-.19.41.41,0,0,0-.29-.08h0c-.22,0-.44-.05-.65-.06s-.56-.06-.84-.07-.58-.05-.87-.07-.57,0-.86,0Zm0,0h0Z"/><path class="cls-6" d="M269.35,32.58h-.45a3.84,3.84,0,0,0-.48,0l-.48,0a2.48,2.48,0,0,1-.39,0h-.23l-.17,0-.13,0-.23,0a.24.24,0,0,0-.14.3.3.3,0,0,0,.12.13.25.25,0,0,0,.12,0h.19l0,0s-.05.06-.05.09h0a.13.13,0,0,0,.06.09l.12,0h0a.1.1,0,0,0-.1.08v0h0a.13.13,0,0,0-.11,0,.09.09,0,0,0,0,.11.11.11,0,0,0,.08.08h.08a.58.58,0,0,0,.17.06H269l.85,0,.21,0,.29,0,.14,0a.75.75,0,0,0,.26,0,.11.11,0,0,0,.1-.06h.25a.21.21,0,0,0,.1.06c.21,0,.42,0,.63,0h1.07l1,0,.48,0,.46,0,1.11.07H276l.36,0,.39,0h0a.21.21,0,0,0,.17-.13.26.26,0,0,0,.13.06h.17l.19,0,.33,0,.7,0,.76.06.68.07.3,0,.15,0h.16l.11,0a.29.29,0,0,0,.17-.2v0h.87a2.58,2.58,0,0,1,.29,0c.23,0,.45.06.67.07l.7.05.36,0,.34,0h.1l.38,0,.6.06H286l.3,0a.35.35,0,0,0,.14,0l.12,0,.05,0a.32.32,0,0,0,.11-.12.74.74,0,0,0,.13-.33,1,1,0,0,0,0-.34h0v0a.06.06,0,0,1,0,0,.4.4,0,0,0-.07-.19.27.27,0,0,0-.15-.13.62.62,0,0,0-.23-.07,3.53,3.53,0,0,0-.56-.05,5.7,5.7,0,0,1-.58-.06,4.76,4.76,0,0,0-.66-.07l-.29,0a1.69,1.69,0,0,1-.32,0h-.29c-.1,0-.2,0-.3,0h-.27a4.47,4.47,0,0,0-.73,0l-.35,0h-.34a4.29,4.29,0,0,0-.62,0l-.26,0h-.29l-.32,0h-.3l-.17,0-.54,0h-.68l-.71,0c-.92-.05-1.85-.15-2.77-.22-.5,0-1,0-1.49-.07h-4.17Zm-.35.17h0Zm14.22.33h0Zm3.6.46v0Z"/><text class="cls-7" transform="translate(296.73 33.4)">logos</text><line class="cls-4" x1="50.5" y1="301.66" x2="624.69" y2="301.66"/><path class="cls-3" d="M124,321.56c-.12,1.8-.25,3.61-.35,5.43-.06.94,0,1.9-.06,2.85s-.06,1.8-.11,2.71c-.07,2.1-.08,4.19-.06,6.29,0,1,0,2,0,3s0,2.16.08,3.24a.11.11,0,0,1,0-.05c0,.16,0,.33,0,.5a.07.07,0,0,0,0,0c0,1.28.15,2.58.22,3.88a.22.22,0,0,1,0-.08l.09,2.25v-.28c0,1,.06,1.94.15,2.92a7,7,0,0,0,.47,2.26,1.86,1.86,0,0,0,.61.7l.4.2a3.63,3.63,0,0,0,.59.14,5,5,0,0,0,.68,0h.69c1.29,0,2.54-.22,3.81-.28h0c2.5-.05,5,.25,7.48.42a32.76,32.76,0,0,0,3.57.06c.64,0,1.27-.11,1.89-.16s1.22-.11,1.82-.12h-.3c1.41,0,2.82.05,4.22.14.62,0,1.22.08,1.84.13s.95.11,1.44.12a1.21,1.21,0,0,0,1.32-1,1.14,1.14,0,0,0-1.1-1.19c-.71,0-1.44-.13-2.15-.21-.43,0-.87,0-1.3-.06l-1.5-.07a33,33,0,0,0-3.45,0c-1.08.06-2.15.21-3.21.27-2.36,0-4.72-.25-7.06-.4a37.28,37.28,0,0,0-3.81-.09c-1.05,0-2.1.2-3.17.25a8.83,8.83,0,0,1-1.15,0,16.92,16.92,0,0,1-.35-3.1,1.5,1.5,0,0,1,0,.2c0-1-.08-1.94-.12-2.9v.27c0-1.39-.13-2.76-.2-4.14v.28c0-.24,0-.48,0-.73v.3c0-.55,0-1.07-.06-1.6,0,.05,0,.11,0,.17-.06-1.92,0-3.83,0-5.75s0-4,.11-6c.05-.83.09-1.65.09-2.49s0-1.92.06-2.89c.1-1.71.23-3.45.35-5.16a1.14,1.14,0,0,0-1.08-1.2h-.1a1.17,1.17,0,0,0-1.22,1Zm-.34,27.71v0Zm-.21-4.25c0-.08,0-.15,0-.22a1.7,1.7,0,0,0,0,.22Z"/><path class="cls-3" d="M140,319.75c-.73.1-1.47.19-2.21.23s-1.36-.07-2-.14c-.85-.07-1.67-.13-2.52-.12s-1.76.13-2.64.23-1.81.15-2.73.2q-.74,0-1.47,0a1.54,1.54,0,0,0-.87.23,1.13,1.13,0,0,0-.44.76,1.06,1.06,0,0,0,.26.81,1.28,1.28,0,0,0,.82.4c1.28,0,2.54-.07,3.81-.17,1.09-.08,2.19-.25,3.29-.3.7,0,1.38,0,2.06.11s1.4.13,2.12.14c1.4,0,2.74-.27,4.12-.35l.48,0a5.52,5.52,0,0,1,.84.28,3.72,3.72,0,0,0,1,.25l-.22,0,.25.07.18.21a4.34,4.34,0,0,0,.67.61c.25.2.53.38.8.59s.64.63.94,1,.71.88,1.08,1.3c.84,1,1.75,1.9,2.64,2.83.45.47.94.9,1.4,1.37s.86.8,1.25,1.23.54.62.84.9a6.32,6.32,0,0,0,.74.63c0,.17,0,.33,0,.49s0,.46-.07.68l-.12,1.1c-.08.83-.18,1.65-.28,2.47-.1,1.12-.18,2.24-.28,3.35-.08.9-.07,1.79-.11,2.68s-.05,1.74-.15,2.59-.18,1.81-.26,2.72-.15,1.54-.21,2.3a20,20,0,0,0,0,2.45v-.29a7.79,7.79,0,0,1,0,1.08v.47a2,2,0,0,0,.12,1,1.28,1.28,0,0,0,1.59.56,1.11,1.11,0,0,0,.67-1.32c0-.32,0-.64,0-1a9.4,9.4,0,0,0,0-1.29v0c0-.07,0-.15,0-.23a1.09,1.09,0,0,1,0,.18c0-.7,0-1.39.07-2.09s.15-1.56.21-2.33c.06-.93.2-1.86.28-2.78s.06-1.65.11-2.49c0-.41,0-.84,0-1.26s.09-1,.13-1.47c.08-1.1.16-2.2.28-3.3.1-.77.2-1.54.26-2.32,0-.29.06-.58.1-.89a5.53,5.53,0,0,0,0-.91v-.12a1.43,1.43,0,0,0-.25-1.24,3.43,3.43,0,0,0-.5-.43,3.44,3.44,0,0,1-.36-.28,8.11,8.11,0,0,1-.86-.9c-.37-.41-.78-.77-1.19-1.17-1-1-2-2-2.92-3-.41-.43-.84-.86-1.23-1.31l-.62-.71-.56-.71a11.32,11.32,0,0,0-1.3-1.29c-.3-.25-.64-.47-1-.71a3.51,3.51,0,0,1-.36-.4,1.82,1.82,0,0,0-.76-.57,4.58,4.58,0,0,0-1-.26c-.31-.1-.62-.27-.94-.36a5.25,5.25,0,0,0-1.25-.19,14.91,14.91,0,0,0-1.75.14Zm5.94,1.52.12.1-.12-.1Zm-3.79.58.17,0-.17,0Zm1.81.57h0l0,0Zm1.44,1.27.08.07-.08-.07Zm10.29,7.46h0Zm-.89,2.17.1.08-.1-.08Zm.48,21.9v0Zm.07-2.09h0v0Z"/><path class="cls-3" d="M143.31,320.13a1.09,1.09,0,0,0-.64.64,1,1,0,0,0,0,.82c.17.48.35,1,.52,1.48,0,0,0,.05,0,.08v0a.56.56,0,0,1,0,.12.64.64,0,0,1,0-.07c.11.36.2.71.28,1.06a5.33,5.33,0,0,1,.08,1v-.29a13,13,0,0,1-.33,2.77,6.24,6.24,0,0,1-.56,1.33c-.24.49-.47,1-.74,1.45s-.57.9-.87,1.32-.59.85-.93,1.23a1.92,1.92,0,0,0-.74.86,1.19,1.19,0,0,0,0,.87,1.38,1.38,0,0,0,.71.63,5.92,5.92,0,0,0,2.14,0c.64-.06,1.28-.15,1.9-.21s1.44-.09,2.15-.12h-.3c1,0,2.08,0,3.12,0s2.09-.06,3.14-.12a12.05,12.05,0,0,0,1.81-.14l.71-.1a5.24,5.24,0,0,0,1.07-.27,1.08,1.08,0,0,0,.63-1.45,1.27,1.27,0,0,0-1.59-.56l-.34.1c-.28.05-.57.08-.86.11a11.53,11.53,0,0,1-1.33.12h.3c-.88,0-1.77.09-2.64.12h.05c-1.69,0-3.4,0-5.08.09-.36,0-.74,0-1.11.06l-.92.11c.22-.3.44-.61.64-.92.38-.58.7-1.2,1-1.82a13.56,13.56,0,0,0,.8-1.73,13,13,0,0,0,.36-1.73,8.47,8.47,0,0,0,.15-1.66,13.12,13.12,0,0,0-.18-1.67,23.15,23.15,0,0,0-1-2.88,1.14,1.14,0,0,0-1.09-.64,1.46,1.46,0,0,0-.48.08Zm-1.21,10.15a.56.56,0,0,0,0,.08.56.56,0,0,1,0-.08Zm12.83,2.14-.18.05.18-.05Zm-.28.07Zm-11.4-9.33h0Z"/><path class="cls-3" d="M170.27,322c-.12,1.8-.25,3.61-.35,5.43-.06.94,0,1.9-.06,2.85s-.07,1.8-.11,2.71c-.07,2.1-.08,4.19-.06,6.29,0,1,0,2,0,3s0,2.16.08,3.24a.11.11,0,0,1,0-.05c0,.16,0,.33,0,.5a.09.09,0,0,0,0-.05c.05,1.28.15,2.58.22,3.88a.22.22,0,0,1,0-.08L170,352v-.28c0,1,.07,1.94.15,2.92a7,7,0,0,0,.48,2.26,2,2,0,0,0,.61.71l.39.19a4,4,0,0,0,.6.14,5,5,0,0,0,.68,0h.69c1.28,0,2.54-.22,3.81-.28h0c2.5-.05,5,.25,7.48.43a35.48,35.48,0,0,0,3.57.05c.63,0,1.27-.11,1.89-.16s1.22-.11,1.82-.12h-.3c1.41,0,2.81.05,4.22.14.62,0,1.22.08,1.84.14s1,.1,1.44.11a1.21,1.21,0,0,0,1.32-1,1.14,1.14,0,0,0-1.1-1.19c-.71,0-1.44-.13-2.15-.21-.43,0-.87,0-1.3-.06l-1.5-.07a33,33,0,0,0-3.45,0c-1.08.06-2.15.22-3.21.28-2.36,0-4.72-.26-7.06-.41a37.34,37.34,0,0,0-3.81-.09c-1.05,0-2.1.2-3.17.25a9,9,0,0,1-1.16,0,17.83,17.83,0,0,1-.34-3.1,1.5,1.5,0,0,1,0,.2c0-1-.09-1.94-.12-2.9v.27c0-1.39-.13-2.76-.2-4.14v.28c0-.24,0-.48,0-.72V346c0-.55,0-1.07-.06-1.6,0,.06,0,.11,0,.17-.06-1.92,0-3.83,0-5.75s0-4,.11-6c0-.82.09-1.65.09-2.49s0-1.92.06-2.89c.1-1.71.23-3.45.35-5.16a1.14,1.14,0,0,0-1.08-1.2h-.1a1.18,1.18,0,0,0-1.22,1Zm-.34,27.71v-.09a.27.27,0,0,0,0,.09Zm-.21-4.25c0-.08,0-.15,0-.22a1.7,1.7,0,0,0,0,.22Z"/><path class="cls-3" d="M186.24,320.23c-.74.1-1.47.19-2.21.23s-1.36-.07-2.05-.14c-.84-.07-1.66-.13-2.51-.12s-1.76.13-2.64.23-1.81.15-2.73.2c-.49,0-1,0-1.48,0a1.52,1.52,0,0,0-.86.23,1.09,1.09,0,0,0-.44.76,1,1,0,0,0,.26.81,1.26,1.26,0,0,0,.82.4c1.28,0,2.54-.07,3.81-.17,1.09-.08,2.18-.25,3.29-.3.7,0,1.38.05,2.06.11s1.4.13,2.12.14c1.4,0,2.74-.27,4.12-.35l.48,0a5.52,5.52,0,0,1,.84.28,3.72,3.72,0,0,0,1,.25l-.22,0,.25.07.18.21a4.34,4.34,0,0,0,.67.61c.25.2.53.38.8.59s.64.63.94,1,.71.89,1.08,1.3c.84,1,1.75,1.9,2.64,2.83.45.47.93.9,1.4,1.37s.86.8,1.25,1.23.54.62.84.9a6.32,6.32,0,0,0,.74.63c0,.17,0,.33,0,.49s0,.46-.07.68l-.12,1.1c-.08.83-.18,1.65-.28,2.48-.1,1.11-.18,2.23-.28,3.34-.09.9-.07,1.79-.12,2.68s0,1.74-.14,2.59-.18,1.81-.27,2.72-.14,1.54-.2,2.3a22.25,22.25,0,0,0,0,2.45v-.29a7.79,7.79,0,0,1,0,1.08v.47a2,2,0,0,0,.12,1,1.28,1.28,0,0,0,1.59.56,1.11,1.11,0,0,0,.67-1.32c0-.32,0-.64,0-1a11.3,11.3,0,0,0,0-1.29v0c0-.07,0-.15,0-.23a1.09,1.09,0,0,1,0,.18c0-.7,0-1.39.07-2.09s.14-1.56.21-2.33c.06-.93.2-1.85.28-2.78s.06-1.65.11-2.49c0-.41,0-.84,0-1.26s.08-1,.13-1.47c.08-1.1.16-2.2.28-3.3.1-.77.2-1.54.26-2.32,0-.29.06-.58.1-.89a5.53,5.53,0,0,0,0-.91v-.12a1.43,1.43,0,0,0-.25-1.24,3.05,3.05,0,0,0-.51-.43c-.12-.09-.24-.18-.35-.28a8.11,8.11,0,0,1-.86-.9c-.37-.41-.78-.77-1.19-1.17-1-1-2-2-2.92-3-.41-.43-.84-.86-1.23-1.31l-.62-.71-.56-.7a10.64,10.64,0,0,0-1.3-1.3c-.31-.25-.64-.47-.95-.71a3.51,3.51,0,0,1-.36-.4,1.82,1.82,0,0,0-.76-.57,4.58,4.58,0,0,0-1-.26c-.31-.1-.62-.26-.94-.35a4.8,4.8,0,0,0-1.25-.2,14.74,14.74,0,0,0-1.75.14Zm5.94,1.52.12.1-.12-.1Zm-3.79.58.16,0-.16,0Zm1.81.58Zm1.44,1.26a.46.46,0,0,1,.07.07.46.46,0,0,0-.07-.07Zm10.29,7.46h0ZM201,333.8l.1.08-.1-.08Zm.48,21.9v0Zm.07-2.09h0v0Z"/><path class="cls-3" d="M189.6,320.61a1.09,1.09,0,0,0-.64.64,1,1,0,0,0,0,.82c.17.48.35,1,.52,1.48a.31.31,0,0,0,0,.08v0s0,.08,0,.12a.14.14,0,0,1,0-.07c.11.36.2.71.28,1.06a5.33,5.33,0,0,1,.08,1v-.29a13,13,0,0,1-.33,2.77,6.24,6.24,0,0,1-.56,1.33c-.24.49-.47,1-.74,1.45s-.57.9-.88,1.32-.58.85-.92,1.23a1.86,1.86,0,0,0-.74.86,1.19,1.19,0,0,0,0,.87,1.38,1.38,0,0,0,.71.63,5.92,5.92,0,0,0,2.14,0c.64-.06,1.28-.14,1.89-.21s1.45-.09,2.16-.12h-.3c1,0,2.08,0,3.12,0s2.09-.06,3.14-.12a12.05,12.05,0,0,0,1.81-.14l.71-.1a5.24,5.24,0,0,0,1.07-.27,1.08,1.08,0,0,0,.63-1.45,1.27,1.27,0,0,0-1.59-.56l-.34.1c-.28,0-.57.08-.86.11a11.53,11.53,0,0,1-1.33.12h.3c-.88,0-1.77.09-2.64.12h.05c-1.69,0-3.4,0-5.09.09l-1.1.06-.92.11c.22-.3.43-.61.64-.92.38-.58.7-1.2,1-1.82a12.26,12.26,0,0,0,.79-1.73,13,13,0,0,0,.37-1.73,7.76,7.76,0,0,0,.14-1.66,11.52,11.52,0,0,0-.17-1.67,23.15,23.15,0,0,0-1-2.88,1.14,1.14,0,0,0-1.09-.64,1.46,1.46,0,0,0-.48.08Zm-1.21,10.15a.56.56,0,0,0,0,.08.56.56,0,0,1,0-.08Zm12.83,2.14L201,333l.18-.05Zm-.28.07Zm-11.4-9.33h0Z"/><path class="cls-3" d="M216.9,322q-.19,2.7-.36,5.43c-.06.94,0,1.9,0,2.85s-.07,1.8-.11,2.71c-.07,2.1-.09,4.19-.06,6.29,0,1,0,2,0,3s0,2.16.07,3.24a.07.07,0,0,0,0-.05c0,.16,0,.33,0,.5,0,0,0,0,0-.05.05,1.28.14,2.58.21,3.88a.22.22,0,0,0,0-.08c0,.75.07,1.5.1,2.25v-.28c0,1,.06,1.94.15,2.92a7.29,7.29,0,0,0,.47,2.26,2,2,0,0,0,.62.71l.39.19a3.75,3.75,0,0,0,.6.14,5,5,0,0,0,.67,0h.7c1.28,0,2.53-.22,3.81-.28h0c2.49-.05,5,.25,7.48.43a35.24,35.24,0,0,0,3.56.05c.64,0,1.28-.11,1.9-.16s1.22-.11,1.82-.12h-.3c1.4,0,2.81.05,4.22.14.62,0,1.22.08,1.83.14s1,.1,1.45.11a1.21,1.21,0,0,0,1.32-1,1.15,1.15,0,0,0-1.1-1.19c-.72,0-1.45-.13-2.16-.21l-1.29-.06-1.5-.07a33.06,33.06,0,0,0-3.45,0c-1.08.06-2.15.22-3.22.28-2.36,0-4.72-.26-7.06-.41a37.21,37.21,0,0,0-3.81-.09c-1.05,0-2.1.2-3.16.25a9,9,0,0,1-1.16,0,16.91,16.91,0,0,1-.34-3.1c0,.07,0,.14,0,.2,0-1-.08-1.94-.11-2.9v.27c0-1.39-.13-2.76-.2-4.14v.28c0-.24,0-.48,0-.72V346c0-.55,0-1.07-.06-1.6a1,1,0,0,1,0,.17c-.06-1.92,0-3.83,0-5.75s0-4,.12-6c0-.82.08-1.65.09-2.49s0-1.92.05-2.89c.11-1.71.23-3.45.36-5.16a1.15,1.15,0,0,0-1.08-1.2h-.1a1.18,1.18,0,0,0-1.22,1Zm-.35,27.71v0Zm-.21-4.25v-.22a.81.81,0,0,0,0,.22Z"/><path class="cls-3" d="M232.87,320.23c-.74.1-1.48.19-2.22.23s-1.36-.07-2-.14c-.84-.07-1.67-.13-2.51-.12s-1.77.13-2.65.23-1.81.15-2.72.2c-.5,0-1,0-1.48,0a1.5,1.5,0,0,0-.86.23,1.06,1.06,0,0,0-.44.76,1,1,0,0,0,.26.81,1.24,1.24,0,0,0,.82.4c1.27,0,2.53-.07,3.81-.17,1.09-.08,2.18-.25,3.29-.3.69,0,1.37.05,2.05.11s1.41.13,2.12.14c1.4,0,2.75-.27,4.13-.35l.48,0a5.39,5.39,0,0,1,.83.28,3.72,3.72,0,0,0,1,.25l-.21,0,.25.07.18.21a3.92,3.92,0,0,0,.67.61c.25.2.52.38.79.59a12.11,12.11,0,0,1,.94,1c.36.45.71.89,1.08,1.3.84,1,1.75,1.9,2.65,2.83.45.47.93.9,1.4,1.37s.85.8,1.24,1.23.54.62.84.9a7.26,7.26,0,0,0,.74.63,3.89,3.89,0,0,0,0,.49c0,.23-.05.46-.08.68l-.12,1.1c-.08.83-.18,1.65-.27,2.48-.11,1.11-.19,2.23-.29,3.34-.08.9-.07,1.79-.11,2.68s-.05,1.74-.15,2.59-.18,1.81-.26,2.72-.14,1.54-.2,2.3a22.25,22.25,0,0,0,0,2.45v-.29a6.49,6.49,0,0,1,0,1.08v.47a1.9,1.9,0,0,0,.13,1,1.28,1.28,0,0,0,1.59.56,1.12,1.12,0,0,0,.67-1.32c0-.32,0-.64,0-1a11.3,11.3,0,0,0-.05-1.29v0c0-.07,0-.15,0-.23a1.1,1.1,0,0,1,0,.18,20.85,20.85,0,0,1,.07-2.09c.06-.79.14-1.56.2-2.33.06-.93.2-1.85.28-2.78s.07-1.65.11-2.49c0-.41,0-.84,0-1.26s.08-1,.12-1.47c.08-1.1.17-2.2.28-3.3.1-.77.2-1.54.26-2.32,0-.29.06-.58.1-.89a6.92,6.92,0,0,0,0-.91v-.12a1.41,1.41,0,0,0-.26-1.24,3,3,0,0,0-.5-.43,3.3,3.3,0,0,1-.35-.28,8.11,8.11,0,0,1-.86-.9c-.37-.41-.78-.77-1.19-1.17-1-1-2-2-2.93-3-.41-.43-.84-.86-1.23-1.31-.2-.24-.41-.46-.61-.71s-.37-.46-.56-.7a10.73,10.73,0,0,0-1.31-1.3c-.3-.25-.63-.47-.94-.71a2.77,2.77,0,0,1-.36-.4,1.92,1.92,0,0,0-.77-.57,4.49,4.49,0,0,0-1-.26c-.32-.1-.62-.26-.94-.35a4.87,4.87,0,0,0-1.26-.2,14.57,14.57,0,0,0-1.74.14Zm5.93,1.52.13.1-.13-.1Zm-3.79.58.17,0-.17,0Zm1.82.58Zm1.43,1.26.08.07-.08-.07Zm10.3,7.46h0Zm-.9,2.17.11.08-.11-.08Zm.49,21.9v0Zm.07-2.09h0v0Z"/><path class="cls-3" d="M236.22,320.61a1.12,1.12,0,0,0-.64.64,1,1,0,0,0,0,.82c.16.48.34,1,.51,1.48l0,.08v0a.56.56,0,0,0,0,.12l0-.07a8.76,8.76,0,0,1,.28,1.06,5.33,5.33,0,0,1,.09,1v-.29a12.93,12.93,0,0,1-.32,2.77,5.8,5.8,0,0,1-.57,1.33c-.23.49-.47,1-.73,1.45s-.58.9-.88,1.32-.59.85-.93,1.23a1.84,1.84,0,0,0-.73.86,1.14,1.14,0,0,0,0,.87,1.38,1.38,0,0,0,.71.63,5.87,5.87,0,0,0,2.13,0c.64-.06,1.28-.14,1.9-.21s1.45-.09,2.16-.12H239c1,0,2.08,0,3.11,0s2.1-.06,3.15-.12a12,12,0,0,0,1.8-.14l.72-.1a5.41,5.41,0,0,0,1.07-.27,1.08,1.08,0,0,0,.63-1.45,1.27,1.27,0,0,0-1.59-.56l-.34.1c-.28,0-.58.08-.87.11a11.53,11.53,0,0,1-1.33.12h.3c-.87,0-1.76.09-2.64.12h.05c-1.68,0-3.39,0-5.08.09l-1.11.06-.91.11.64-.92a20.19,20.19,0,0,0,1-1.82,11.28,11.28,0,0,0,.8-1.73,14.8,14.8,0,0,0,.37-1.73,7.76,7.76,0,0,0,.14-1.66,11.53,11.53,0,0,0-.18-1.67,23.1,23.1,0,0,0-.95-2.88,1.15,1.15,0,0,0-1.1-.64,1.51,1.51,0,0,0-.48.08ZM235,330.76a.22.22,0,0,0-.05.08.22.22,0,0,1,.05-.08Zm12.83,2.14-.19.05.19-.05Zm-.29.07Zm-11.4-9.33h0Z"/></g></g></svg>