<svg xmlns="http://www.w3.org/2000/svg" viewBox="0 0 632.44 378.51"><defs><style>.cls-1{fill:#707da7;}.cls-2{fill:#2f345b;}.cls-3,.cls-7,.cls-8{fill:#d6d5d8;}.cls-4{fill:none;stroke:#2f345b;stroke-miterlimit:10;stroke-width:5px;}.cls-5,.cls-6{fill:#3a4172;}.cls-6{opacity:0.42;}.cls-7{font-size:19.28px;}.cls-7,.cls-8{font-family:Meganschalkboard-Regular, Meganschalkboard;}.cls-8{font-size:14px;}</style></defs><title>logoFinder</title><g id="Layer_2" data-name="Layer 2"><g id="Draw_Layer" data-name="Draw Layer"><rect class="cls-1" x="5.4" y="5.61" width="622.5" height="368.16"/><path class="cls-2" d="M.44,246.05c.14,3.9.47,7.79.57,11.7s.06,8,.08,12.06,0,8.25.09,12.38,0,7.95.21,11.93c.09,1.86.07,3.72.19,5.57.12,2.07.26,4.13.4,6.2.26,4,.52,8,.49,12.05s-.05,7.8-.06,11.7c0,1.89,0,3.77,0,5.67s.17,4.05.28,6.08.19,3.82.29,5.73S3.28,351,3.4,353c.24,3.78.4,7.56.67,11.34.22,3.25.37,6.51.67,9.75a14,14,0,0,1,2.76-.27,7.37,7.37,0,0,1,3.31.82l0-.22c-.16-2-.31-4.07-.45-6.1-.26-3.79-.44-7.57-.68-11.36s-.53-7.82-.73-11.72-.42-7.87-.53-11.81c-.05-1.88,0-3.77,0-5.65s0-4,0-6c0-3.82,0-7.65-.17-11.47-.23-4.17-.6-8.34-.76-12.52-.14-3.93-.26-7.86-.29-11.79s-.1-7.9-.11-11.85q0-6.23,0-12.44c0-3.87-.21-7.71-.43-11.57s-.31-7.68-.36-11.52c-.06-4-.23-8.05-.27-12.09s.12-8.27.22-12.41.11-8,.14-12c0-2.14,0-4.29,0-6.43,0-2,0-3.92,0-5.87,0-4,.06-8,0-12-.06-8.14-.57-16.27-.3-24.41.07-2.2.16-4.41.22-6.61.07-2,0-4,0-5.93,0-4.09-.1-8.17,0-12.25s.17-8.13.33-12.18c.07-1.81.24-3.62.28-5.43,0-2.16.09-4.32.15-6.48,0-1.94.21-3.87.19-5.81,0-2.15,0-4.3-.1-6.45-.08-2-.23-4-.29-6,0-2.15-.07-4.29-.06-6.44s0-4-.07-6,0-4.27,0-6.41c0-4.05,0-8.1.06-12.15,0-3.83.07-7.65.2-11.47.16-4.13.37-8.26.27-12.38-.09-3.82-.39-7.64-.52-11.46-.06-1.77-.11-3.55-.16-5.33,0-1.94.05-3.88.14-5.82.07-1.49.15-3,.25-4.48a2.71,2.71,0,0,0-1-2,3,3,0,0,0-1.9-.78,1.31,1.31,0,0,0-.28,0,3,3,0,0,0-2,.92A3,3,0,0,0,1,4.58,116.37,116.37,0,0,0,.66,16.39c.06,1.79.1,3.57.16,5.36.06,1.95.2,3.89.28,5.84s.21,3.95.21,5.92,0,3.87-.1,5.8c-.18,4-.27,8-.34,12.08S.82,59.26.79,63.2c0,4.11-.08,8.2,0,12.31S.75,83.84,1,88s.41,8.34.29,12.51c-.07,2.06-.16,4.11-.22,6.16s-.06,4-.16,6S.63,116.85.55,119c-.07,1.9-.07,3.8-.11,5.7q-.09,3.09-.17,6.19c0,2,0,4,0,5.94,0,4,.11,7.94,0,11.9C.12,152.83,0,157,0,161.12s.16,8.48.29,12.72c.25,8.08,0,16.16,0,24.24,0,4,0,8.08,0,12.12S.06,218,0,221.87c0,4.26.08,8.52.17,12.78C.27,238.45.3,242.25.44,246.05Z"/><path class="cls-2" d="M623.66,69.48c0,4,0,8,0,12,0,4.24,0,8.48.09,12.72.08,4,0,8.05-.12,12.08s-.13,8.37-.2,12.55.2,8.48.29,12.72.12,8.28.22,12.42.22,8.12.21,12.19c0,1.92,0,3.84,0,5.76-.05,2.21-.07,4.42-.1,6.63,0,1.93,0,3.85,0,5.78,0,2.14,0,4.29-.07,6.44,0,4,0,8,.09,12,.09,4.25.06,8.5.17,12.76.1,4,.16,8,.18,12s-.08,8.05-.14,12.08-.21,8-.22,12.06,0,8.07-.08,12.11c-.12,8-.33,16-.12,24,.11,3.91.39,7.81.53,11.73s.2,7.85.25,11.78c0,1.9,0,3.81,0,5.71s0,4,.09,6,0,3.76,0,5.64.09,3.65.18,5.48c.18,3.78.4,7.55.6,11.33.1,1.95.2,3.91.33,5.86s.24,3.82.29,5.73c.1,3.59.14,7.17.21,10.75,0,1.66.09,3.3.12,5s0,3.52,0,5.28,0,3.8-.07,5.69c-.05,1.57-.14,3.15-.23,4.73a13.55,13.55,0,0,1,4.33-.7,6.67,6.67,0,0,1,1.68.22c.16-3.17.28-6.34.29-9.51,0-3.58,0-7.14-.09-10.71s-.11-7.13-.21-10.69c-.1-3.89-.41-7.78-.61-11.66s-.42-7.49-.6-11.24c-.1-1.9-.2-3.81-.2-5.72s0-3.73,0-5.6-.11-3.94-.1-5.91,0-3.92,0-5.88c0-3.85-.11-7.72-.25-11.58s-.42-7.83-.52-11.75-.12-8.09-.09-12.14.14-7.94.2-11.91.07-8.08.08-12.12.15-8.13.22-12.2.16-7.91.14-11.87-.07-8.07-.18-12.09c-.1-4.2-.07-8.4-.17-12.6s-.14-8.13-.1-12.19c0-2.15.06-4.29.07-6.43,0-1.9,0-3.79,0-5.69.06-4.2.15-8.4.13-12.59,0-2,0-4-.05-6s-.12-4.08-.16-6.12c-.1-4.08-.13-8.17-.22-12.26-.09-4.33-.27-8.67-.29-13,0-2,.08-4,.09-6,0-2.16.06-4.33.11-6.5.08-4.06.2-8.11.12-12.17s-.12-8.39-.09-12.59c0-4,.06-8,0-11.92s-.14-7.93-.19-11.89c0-2.08-.06-4.15-.1-6.23s0-4,.08-5.94c.11-3.91.24-7.82.34-11.73.1-3.59.22-7.17.44-10.76.12-1.92.2-3.82.22-5.75s0-3.81.14-5.72l0-.57a3.05,3.05,0,0,0-2.85-2.94h-.28a3,3,0,0,0-2.06,1,3.34,3.34,0,0,0-.8,2.25c-.11,2-.19,4.07-.18,6.11s-.07,3.83-.21,5.74c-.24,3.59-.35,7.21-.44,10.81-.09,3.84-.22,7.68-.34,11.52-.06,2-.11,4-.08,6l.09,6.34C623.52,61.6,623.65,65.54,623.66,69.48Z"/><path class="cls-2" d="M19.15,20.63A5.25,5.25,0,0,0,19.41,28a5.58,5.58,0,0,0,3.83,1.41,5,5,0,0,0,3.59-1.67,5.22,5.22,0,0,0-.26-7.41A5.58,5.58,0,0,0,22.74,19a5,5,0,0,0-3.59,1.67Z"/><path class="cls-2" d="M36.74,20.33A5.22,5.22,0,0,0,37,27.74a5.56,5.56,0,0,0,3.83,1.41,5,5,0,0,0,3.59-1.67,5.25,5.25,0,0,0-.26-7.41,5.58,5.58,0,0,0-3.83-1.41,5,5,0,0,0-3.59,1.67Z"/><path class="cls-2" d="M53,20.53A5.26,5.26,0,0,0,53.28,28a5.58,5.58,0,0,0,3.83,1.41,5,5,0,0,0,3.59-1.67,5.24,5.24,0,0,0-.26-7.42,5.6,5.6,0,0,0-3.83-1.4A5.1,5.1,0,0,0,53,20.53Z"/><path class="cls-2" d="M46.88,145.19c-.07,1.72-.14,3.42-.12,5.14.05,3.29.11,6.58.16,9.87s.17,6.76.16,10.14c0,1.64,0,3.28,0,4.92s0,3.47,0,5.2c.11,6.67.24,13.35.23,20,0,3.43,0,6.85,0,10.28,0,1.67.06,3.35.08,5s0,3.31.11,5c.14,3.49.26,7,.36,10.46,0,1.62.16,3.23.23,4.85s.13,3.42.18,5.13c.08,3.24.22,6.48.37,9.71.07,1.7.18,3.39.22,5.09s0,3.52.09,5.28c.08,3.47.19,6.94.22,10.41,0,3.26.07,6.52.22,9.78s.37,6.74.57,10.11.35,6.73.48,10.09c.07,1.59,0,3.18,0,4.78s0,3.25,0,4.89c.05,3.5.07,7,.28,10.5.19,3.34.4,6.68.43,10,0,3.17-.13,6.33-.15,9.51a91.33,91.33,0,0,0,.6,9.77c.16,1.58.37,3.15.59,4.73s.29,2.87.37,4.3c0,.49.08,1,.1,1.47s0,1,0,1.48c0,1.09,0,2.17,0,3.26q-.07,3.67-.06,7.34a1.79,1.79,0,0,0,.18.73,13.6,13.6,0,0,1,3.79-.62c0-.11,0-.23,0-.35,0-3.15,0-6.29,0-9.43a57.75,57.75,0,0,0-.47-8.42c-.44-3.16-.77-6.32-1-9.5a85.37,85.37,0,0,1-.09-9.73c.12-3.31,0-6.62-.09-9.92-.06-1.63-.19-3.27-.29-4.9s-.17-3.46-.2-5.2c-.06-3.4-.12-6.79-.13-10.19,0-1.59,0-3.19,0-4.78-.07-1.77-.17-3.55-.26-5.32-.17-3.28-.34-6.56-.54-9.85s-.35-6.66-.41-10-.08-6.8-.16-10.2c-.05-1.67-.09-3.34-.13-5s0-3.52-.09-5.28c-.08-3.29-.31-6.58-.45-9.87s-.18-6.71-.32-10.06c-.07-1.62-.19-3.23-.23-4.84s-.09-3.51-.15-5.26-.14-3.47-.21-5.2-.08-3.32-.11-5c-.1-6.74-.12-13.47-.12-20.2,0-3.3-.1-6.6-.11-9.9,0-1.74-.07-3.48-.09-5.23s0-3.46,0-5.19q0-5-.07-10c-.06-3.28-.16-6.57-.21-9.85,0-1.69,0-3.38-.07-5.07s0-3.43.12-5.15.12-3.58.15-5.37c0-1.58.09-3.15.09-4.73,0-3.31-.11-6.62-.22-9.92s0-6.66.06-10,.08-6.85.11-10.28c0-1.55.06-3.11.07-4.66s0-3.37-.05-5c0-1.48.06-3,.1-4.44s.09-3.06.17-4.58c.16-2.25.32-4.49.45-6.74l0,.51c.25-3.92.37-7.84.47-11.77,0-2,0-3.93,0-5.89,0-1.75.07-3.51.18-5.26.11-1.57.27-3.14.41-4.72.08-.86.13-1.72.24-2.58s.22-1.59.34-2.38a2,2,0,0,0-1.58-2.32.57.57,0,0,0-.18,0,2,2,0,0,0-2.16,1.58c-.18,1.1-.33,2.21-.46,3.31-.08.66-.09,1.33-.16,2s-.11,1.22-.16,1.83c-.24,2.66-.43,5.33-.46,8s0,5.32-.06,8-.13,5.44-.28,8.16l0-.5-.21,3.35c-.1,1.55-.21,3.1-.32,4.64-.13,1.8-.17,3.6-.23,5.4-.05,1.57-.11,3.14-.11,4.71s0,3.37,0,5-.05,3.11-.06,4.67c0,1.73,0,3.46,0,5.19s0,3.39-.06,5.08-.09,3.35-.11,5c0,3.36.12,6.72.19,10.08,0,1.6.07,3.21.07,4.8s-.06,3.16-.09,4.73C47,141.6,47,143.39,46.88,145.19Z"/><path class="cls-2" d="M235.75,46.7a1.9,1.9,0,0,0-1.32.82,2.34,2.34,0,0,0-.37,1,2.28,2.28,0,0,0,0,.26,8.17,8.17,0,0,0,0,1c0,.5.1,1,.13,1.48,0,.87,0,1.74,0,2.61s.17,1.71.23,2.57c0,1.25-.17,2.49-.15,3.74s.1,2.23.14,3.35c0,1.64,0,3.29.05,4.94.07,1.45.24,2.88.31,4.32,0,1.6,0,3.19.07,4.79,0,1.76.19,3.52.28,5.29,0,2.69-.31,5.37-.33,8.06,0,1.52,0,3,.15,4.54.05.67.14,1.34.2,2s.09,1.37.11,2.06c0,1.56,0,3.11,0,4.67s0,3.3,0,5c0,3.21-.27,6.42-.42,9.64s-.31,6.64-.38,10-.33,6.48-.52,9.72c-.16,2.92-.27,5.83-.33,8.76s.07,5.63.16,8.45a2.09,2.09,0,0,1,0-.25c0,.13,0,.27,0,.41v0q.1,4.86.06,9.72c0,3.53.08,7,.19,10.56,0,1.51.09,3,.14,4.51,0-.17,0-.34,0-.51,0,1.78,0,3.57,0,5.36,0,1.59-.1,3.17-.12,4.76s-.05,3.41,0,5.12,0,3.48,0,5.22-.06,3.32-.13,5-.17,3.4-.19,5.11c0,3.51,0,7,.15,10.5.05,1.21.09,2.41.13,3.62,0-.17,0-.34,0-.51.05,3.69,0,7.38-.11,11.08,0,1.75-.06,3.49-.07,5.23,0,1.93,0,3.86.13,5.78,0,1.33,0,2.66.1,4,.05,2.41.07,4.81.18,7.21s.2,4.95.27,7.43v-.17q.12,4.31.3,8.61c.12,2.75.31,5.5.46,8.26,0,2,0,3.91,0,5.87s-.15,4.17-.16,6.26c0,4.22.24,8.43.4,12.64.07,3.92.07,7.83.07,11.74,0,4.06.26,8.1.42,12.15.05,1.91.11,3.82.16,5.74.05,3,0,6-.11,9s-.25,6.25-.21,9.38c0,1.47.05,2.95.06,4.43,0,.79,0,1.58-.06,2.37s0,1.66,0,2.49c0,1.58,0,3.16.07,4.73,0,1.75.23,3.5.36,5.25a2,2,0,0,0,3.61.84,2.1,2.1,0,0,0,.34-1.46c-.12-1.53-.28-3.06-.34-4.59s0-2.77,0-4.16,0-2.9,0-4.36c0-2.95-.09-5.9-.05-8.85s.26-5.85.31-8.78c0-1.5,0-3,0-4.52s-.06-3-.11-4.47c0-1.73-.06-3.47-.16-5.2s-.19-3.64-.26-5.47c-.07-4.1-.08-8.21-.11-12.32s-.2-8.23-.39-12.34q-.09-3.6,0-7.2c.09-2.63.2-5.27.14-7.91s-.27-5.38-.4-8.08-.24-5.3-.33-7.95q-.16-5.87-.42-11.73c0-2-.07-4-.13-6s-.12-4.24-.19-6.36q0-6.17.19-12.33c.08-4.19-.08-8.36-.23-12.54-.07-3.17-.1-6.34.05-9.52.16-3.44.24-6.87.25-10.32,0-1.52,0-3,0-4.57s0-3.31.09-5,.09-3.46.08-5.19,0-3.34-.1-5c0-1.46-.09-2.91-.14-4.37,0-1.76-.09-3.52-.11-5.28s0-3.51,0-5.27c0-3.94-.1-7.87-.21-11.8,0,.16,0,.34,0,.51,0-1.71-.06-3.41,0-5.12s.08-3.25.15-4.87c.14-3.44.43-6.86.58-10.29.16-3.24.21-6.49.35-9.73s.31-6.48.49-9.73c.1-1.62,0-3.25.06-4.87s0-3.37.06-5.05,0-3.37-.1-5c0-.78-.12-1.55-.2-2.32s-.11-1.47-.15-2.21c0-1.18,0-2.36,0-3.54s.17-2.42.25-3.63a66,66,0,0,0-.23-7.44c0-1.77-.06-3.54-.08-5.31s-.28-3.73-.35-5.6c0-1.08,0-2.16,0-3.23s-.1-2.32-.14-3.47.13-2.56.14-3.84-.19-2.49-.26-3.73c0-.85,0-1.7,0-2.55,0-.41-.08-.81-.11-1.22,0-.11,0-.21,0-.32a1.87,1.87,0,0,0,0-.67,2,2,0,0,0-.82-1.32,2,2,0,0,0-1-.36,1.93,1.93,0,0,0-.48,0Zm-1.59,4.13a2.81,2.81,0,0,1,0,.29c0-.1,0-.2,0-.29ZM237.64,218c0,.13,0,.26,0,.39,0-.13,0-.26,0-.39Zm-3.93-62.14h0v0Z"/><path class="cls-3" d="M74.55,66.16l-.21,1.93c0,.34,0,.68-.06,1s0,.65-.08,1c0,.74-.09,1.49-.11,2.24,0,.35,0,.71-.06,1.06s0,.77,0,1.16v.14c0,.46,0,.92,0,1.38v.68c0,.35,0,.69,0,1a2.27,2.27,0,0,0,.14.81.63.63,0,0,0,.2.26l.14.07a.83.83,0,0,0,.21.06A.93.93,0,0,0,75,79h.25c.46,0,.9,0,1.36,0h0a26.4,26.4,0,0,1,2.65.26c.42,0,.85.07,1.27.07.23,0,.46,0,.68,0s.43,0,.65,0h-.11q.75,0,1.5.12c.22,0,.43,0,.65.07s.34,0,.52.06a.43.43,0,0,0,.48-.33.41.41,0,0,0-.37-.44c-.26,0-.52-.07-.77-.1l-.46,0-.53,0a10,10,0,0,0-1.23-.06c-.39,0-.77,0-1.15.05-.84,0-1.68-.16-2.51-.25-.45,0-.9-.08-1.35-.09s-.75,0-1.13,0H75a5.87,5.87,0,0,1-.08-1.11v-.87c0-.49,0-1,0-1.47v.09c0-.08,0-.17,0-.25v.1c0-.19,0-.38,0-.57v.06c0-.68.06-1.36.08-2s.06-1.41.13-2.12c0-.3.05-.59.07-.89s0-.68.06-1c.06-.61.13-1.23.2-1.84a.42.42,0,0,0-.37-.44h0a.41.41,0,0,0-.44.33ZM74,76v0Zm0-1.51v0Z"/><path class="cls-3" d="M80.26,65.75c-.27,0-.53,0-.79,0l-.73-.08a8.91,8.91,0,0,0-.89-.08c-.32,0-.63,0-.95,0l-1,0H75.4a.49.49,0,0,0-.31.07.38.38,0,0,0-.08.55.37.37,0,0,0,.28.15c.46,0,.91,0,1.36,0s.78-.06,1.18-.06l.73.07c.25,0,.5.07.75.08a14.33,14.33,0,0,0,1.47-.07l.17,0a1.57,1.57,0,0,1,.3.12,2.19,2.19,0,0,0,.34.1l-.07,0,.08,0a.27.27,0,0,1,.07.08,1.21,1.21,0,0,0,.23.22c.08.08.18.15.27.23a3.49,3.49,0,0,1,.32.35c.12.17.24.33.37.48.28.36.59.7.9,1,.15.17.32.33.48.5s.29.3.42.46.19.23.29.33a2.83,2.83,0,0,0,.25.24,1,1,0,0,0,0,.17,1.72,1.72,0,0,1,0,.24l-.06.39c0,.3-.09.59-.13.88l-.15,1.19c0,.31,0,.63-.08,1s0,.62-.09.92-.09.64-.13,1-.08.55-.11.82a8.43,8.43,0,0,0,0,.87V78a2.34,2.34,0,0,1,0,.38v.17a.59.59,0,0,0,0,.37.45.45,0,0,0,.55.22.39.39,0,0,0,.26-.46l0-.34a3.53,3.53,0,0,0,0-.46v0c0-.25,0-.49.06-.74s.07-.56.1-.83.1-.66.14-1,0-.58.08-.88a3.4,3.4,0,0,1,0-.45c0-.18,0-.35.06-.52.05-.39.09-.78.15-1.17s.09-.55.12-.82c0-.11,0-.21,0-.32a1.76,1.76,0,0,0,0-.33v0a.5.5,0,0,0-.08-.44.87.87,0,0,0-.17-.16L85.69,70a2.28,2.28,0,0,1-.29-.33c-.13-.15-.27-.29-.41-.43-.34-.36-.68-.73-1-1.11q-.21-.23-.42-.48l-.21-.26-.18-.26a5.11,5.11,0,0,0-.45-.48c-.1-.1-.22-.18-.33-.27a1,1,0,0,1-.12-.15.67.67,0,0,0-.26-.21,2.47,2.47,0,0,0-.36-.11c-.12,0-.22-.1-.33-.14a2.24,2.24,0,0,0-.45-.09c-.21,0-.41,0-.62,0Zm2.09.63,0,0,0,0ZM81,66.53h0Zm.64.23Zm.49.47,0,0,0,0ZM85.68,70Zm-.35.76,0,0,0,0Zm-.14,7.8h0Zm0-.74h0v0Z"/><path class="cls-3" d="M81.45,65.94a.39.39,0,0,0-.24.21.37.37,0,0,0,0,.29c.05.18.11.36.16.54v0c0,.13.06.26.09.38a2.08,2.08,0,0,1,0,.35v-.1a4.56,4.56,0,0,1-.16,1,2.23,2.23,0,0,1-.22.47c-.09.17-.18.34-.28.5l-.33.46c-.12.14-.22.29-.35.42a.7.7,0,0,0-.27.3.42.42,0,0,0,0,.31.47.47,0,0,0,.25.23,2.15,2.15,0,0,0,.76,0l.68,0h.66l1.11,0c.37,0,.75,0,1.12,0a4.72,4.72,0,0,0,.65,0l.25,0a1.69,1.69,0,0,0,.39-.08.39.39,0,0,0,.24-.51.45.45,0,0,0-.56-.22l-.12,0-.31,0-.47,0H83.7c-.6,0-1.21-.07-1.81,0h-.4l-.33,0,.25-.32c.14-.2.26-.42.39-.63a5,5,0,0,0,.31-.61,4.52,4.52,0,0,0,.15-.61,2.89,2.89,0,0,0,.08-.59c0-.2,0-.4,0-.6a9.32,9.32,0,0,0-.3-1,.42.42,0,0,0-.38-.25.47.47,0,0,0-.17,0Zm-.58,3.59,0,0,0,0Zm4.54,1h0Zm-.1,0ZM81.38,67Z"/><line class="cls-4" x1="1.79" y1="2.5" x2="629.67" y2="8.75"/><line class="cls-4" x1="6.15" y1="371.81" x2="632.24" y2="375.71"/><line class="cls-4" x1="1.18" y1="44.43" x2="629.06" y2="50.68"/><path class="cls-1" d="M281.17,20l-.61,0-.65,0h-4.59l-1.09,0h-.75c-.5,0-1.14,0-1.79,0l-1.1,0-.59,0-.74,0-.45,0a5.87,5.87,0,0,1-1.05-.09h-.09a.85.85,0,0,0-.54.22.83.83,0,0,0-.26.44.71.71,0,0,0-.06.24c0,.26,0,.53,0,.78l0,.69V23c0,.19,0,.39,0,.59l0,.56c0,.23,0,.46,0,.69a7,7,0,0,0,0,.79c0,.23,0,.48,0,.72,0,.64,0,1.49,0,2.33l0,.71,0,.51v.29c0,.12,0,.24,0,.36s0,.53.08.83v.07c0,.17,0,.34,0,.52s0,.41,0,.61a5.42,5.42,0,0,1,0,.57c0,.14,0,.28,0,.42a1.93,1.93,0,0,0,.06.51c.51,0,1,.09,1.54.12,1.31.08,2.63.15,4,.14.37,0,.75,0,1.12,0l1,0c.56,0,1.13,0,1.69,0,.94,0,1.87,0,2.81,0,1.29.07,2.58.12,3.88.14l3.76.08c0-.69.09-1.37.15-2.06s.12-1.33.17-2,.06-1.26.11-1.89c0,.38-.05.76-.07,1.13,0-.68.09-1.36.14-2.05s0-1.5,0-2.26,0-1.68,0-2.52,0-1.69.06-2.53c0-.09,0-.18,0-.27h-.16l-.93,0H285l-.93-.05-.31,0c-.69,0-1.49-.1-2.29-.1Z"/><path class="cls-5" d="M266.92,20.23a.94.94,0,0,0-.12.09.45.45,0,0,0-.11.19.78.78,0,0,0,0,.14.49.49,0,0,0,0,.12.28.28,0,0,1,0-.09c0,.17,0,.33-.05.5s0,.34-.05.51,0,.31,0,.47,0,.33,0,.5,0,.63,0,.95,0,.68,0,1,0,.65,0,1c0,.17,0,.34,0,.51s0,.34,0,.5,0,.33,0,.49,0,.33,0,.49v1c0,.2,0,.4,0,.6s0,.46-.05.68l-.06.63c0,.21,0,.42-.07.63s0,.27,0,.4,0,.26,0,.39.07.52.1.78v.05h0a4.75,4.75,0,0,1,0,.54,2.9,2.9,0,0,1,0,.51s0,0,0,.08a.34.34,0,0,0,0,.26.38.38,0,0,0,.21.16.32.32,0,0,0,.25,0,.32.32,0,0,0,.16-.2c.05-.33.09-.65.11-1s0-.62,0-.93a7.78,7.78,0,0,1,0-1c0-.34,0-.68,0-1,0-.16,0-.31,0-.47s0-.33,0-.5,0-.29,0-.44,0-.32,0-.49c0-.65,0-1.31,0-2,0-.17,0-.35,0-.52s0-.32,0-.48c0-.33,0-.66,0-1s0-.66,0-1v-1c0-.17,0-.35,0-.52s0-.39,0-.59,0-.3,0-.46a.83.83,0,0,0,0-.22.46.46,0,0,0-.1-.18l0,0h0a.08.08,0,0,1,0,0h0a.34.34,0,0,0-.14-.09h-.07a.22.22,0,0,0-.13,0Zm-.49,12.35v0Zm0,.17v0Zm.84-12.4h0Z"/><path class="cls-5" d="M269.28,18.24a1.82,1.82,0,0,1-.33,0h-.69c-.12,0-.24,0-.36,0l-.33,0-.27,0a1.18,1.18,0,0,0-.27,0,.33.33,0,0,0-.26.26.33.33,0,0,0,0,.17s0,0,0,.06,0,.07,0,.1,0,.08,0,.12a.77.77,0,0,0,0,.15c0,.07,0,.14,0,.21v.05c0,.1,0,.2,0,.3v.18h0v0c0,.11,0,.21-.05.32l0,.23v.11a.38.38,0,0,0,0,.15.27.27,0,0,0,.2.19.29.29,0,0,0,.26-.08.31.31,0,0,0,.07-.14.38.38,0,0,0,0-.1l0-.32v.07a1.5,1.5,0,0,1,0-.2h0a4.32,4.32,0,0,0,.05-.62.49.49,0,0,0,0-.12,3,3,0,0,0,0-.42s0,0,0-.07h.19a1.71,1.71,0,0,1,.32,0l.36,0H269a1.47,1.47,0,0,0,.21,0c.11,0,.22,0,.33,0l.58,0h.29a2.43,2.43,0,0,1,.27,0l.16,0h.27v.15c0,.06,0,.12,0,.18a.76.76,0,0,1,0,.15.65.65,0,0,0,0,.14,1.09,1.09,0,0,0,0,.26v.05a.31.31,0,0,0,.32.3.32.32,0,0,0,.31-.32V19.5a2.43,2.43,0,0,1,0-.27,1.62,1.62,0,0,1,0-.22c0-.09,0-.19,0-.29a.53.53,0,0,0-.05-.25.44.44,0,0,0-.27-.19,1.61,1.61,0,0,0-.49,0,1.63,1.63,0,0,1-.31,0h-.34a2.17,2.17,0,0,1-.36,0l-.36,0h-.35Z"/><path class="cls-5" d="M284.87,19.73l-.35,0c-.23,0-.47,0-.71,0l-.73,0-.74,0H282l-.36,0-1.43.07c-.24,0-.47,0-.71,0h-.37c-.12,0-.25,0-.38,0l-.73,0h-1.08l-.34,0h-2.15c-.23,0-.46,0-.69,0H273l-.71,0h-.69c-.22,0-.45,0-.68,0l-.7,0-.71.05h-.34l-.34,0h-.31a3.16,3.16,0,0,0-.32,0l-.34,0-.28,0h-.46a.15.15,0,0,0-.16.16.16.16,0,0,0,.16.16h.17l.13,0h0a4.29,4.29,0,0,0,.62,0h.66l.66,0h.36l.37,0c.45,0,.91,0,1.36.05h4.2l.36,0h2.89l.38,0c.24,0,.48,0,.72,0l.7,0h.73c.24,0,.48,0,.72,0l.75-.05H285c.24,0,.47,0,.71,0s.45,0,.68,0l.35,0,.33,0,.23,0a.29.29,0,0,0,.21-.29.23.23,0,0,0,0-.14.36.36,0,0,0-.18-.14h-1.06l-.34,0h-.69l-.34,0Z"/><path class="cls-5" d="M266.82,33.75a.27.27,0,0,0-.26.27.26.26,0,0,0,.28.26h1.59a3.74,3.74,0,0,1,.58,0,3.26,3.26,0,0,0,.54,0l.6,0a5.85,5.85,0,0,0,.59,0c.2,0,.41,0,.61,0s.59.06.89.07h.92l.49,0a3.69,3.69,0,0,0,.47,0l.49,0a2,2,0,0,1,.42,0l.84.1h-.09l.62.06.52,0c.37,0,.74,0,1.12,0h0l.22,0h0l.42,0a4.21,4.21,0,0,0,.5,0,3.62,3.62,0,0,0,.47,0l.48,0h.5l.5,0a4,4,0,0,1,.49,0l.49,0,.48,0,.39,0,.38,0c.25,0,.49,0,.74,0l.77,0h.35a2.26,2.26,0,0,1,.37,0h0l.36,0h.36l.25,0h.07a.41.41,0,0,0,.19,0,.33.33,0,0,0,.23-.23.31.31,0,0,0-.16-.35.76.76,0,0,0-.33-.08.34.34,0,0,0-.1,0h-.14l-.31,0a1.61,1.61,0,0,1-.31,0l-.18,0h.08l-.43,0h-.36a7.14,7.14,0,0,1-.8,0l-.38,0h-.39c-.27,0-.53,0-.79,0s-.64-.06-1-.07H281l-.5,0H280c-.16,0-.31,0-.47,0a7.38,7.38,0,0,1-.94,0l-1-.05h-.48l-.45,0-1-.07-.48,0h-.47c-.24,0-.47,0-.71.06a5.31,5.31,0,0,1-.69,0l-.67,0a5.1,5.1,0,0,1-.68,0c-.32,0-.64-.09-1-.1h-.22a1,1,0,0,1-.25,0c-.16,0-.31,0-.46,0s-.32,0-.49,0h-.43c-.29,0-.59,0-.88,0h-.76l-.31,0h-.37Zm2.12.55h0Zm2.34.12h0Zm14.21.42h0Zm.74,0h0Z"/><path class="cls-5" d="M287.11,20a.28.28,0,0,0-.23.23.55.55,0,0,0,0,.22.77.77,0,0,1,0,.15v.16s0,.08,0,.12v.2a1.22,1.22,0,0,1,0,.17,1,1,0,0,0,0,.25c0,.15,0,.31,0,.47v.47c0,.16,0,.32,0,.48V23h0v.07h0v.13c0,.16,0,.32,0,.49s0,.28,0,.42h0v.15h0v.05c0,.24,0,.49,0,.74s0,.77,0,1.16l0,.51c0,.18,0,.36,0,.54s0,.36,0,.53v.55c0,.18,0,.37,0,.55v.78h0v0c0,.09,0,.17,0,.26a1.62,1.62,0,0,0,0,.31c0,.17,0,.34,0,.5,0,.35-.05.69-.07,1,0,.18,0,.35,0,.52s0,.38,0,.57,0,.22,0,.33,0,.23,0,.34,0,.16,0,.23l0,.25c0,.16,0,.32,0,.48a.18.18,0,0,0,.15.2.19.19,0,0,0,.2-.15c0-.1,0-.2,0-.29a1.18,1.18,0,0,1,0-.27,4.4,4.4,0,0,0,0-.62v0c0-.1,0-.21,0-.32s0-.12,0-.18a1.09,1.09,0,0,0,0-.18c0-.13,0-.26,0-.39s0-.22,0-.33l0-.31,0-.32c0-.11,0-.22,0-.33s0-.45,0-.68.05-.44.06-.66h0v0c0-.26,0-.52,0-.78s0-.27,0-.41,0-.29,0-.43,0-.33,0-.49,0-.34,0-.52,0-.2,0-.3,0-.22,0-.33,0-.47,0-.7,0-.36,0-.54,0-.41,0-.61,0-.35,0-.53,0-.37,0-.55,0-.4,0-.6,0-.37,0-.56v.08c0-.17,0-.34,0-.51a1.85,1.85,0,0,0,0-.23c0-.06,0-.12,0-.18a2.54,2.54,0,0,0,0-.39.92.92,0,0,1,0-.16,1,1,0,0,1,0-.17c0-.08,0-.17,0-.26a1.17,1.17,0,0,0,0-.26.26.26,0,0,0-.25-.17Zm-.2,3.2v0Zm0,1.83v0Zm.46,1.91v0Zm0,0v0Zm0,.95v0Zm-.49.36v0Zm.24,4v0Zm-.4.55h0Zm.23-8.53v0h0v0Z"/><path class="cls-5" d="M286.94,27.47a1.75,1.75,0,0,0-.05.33c0,.06,0,.11,0,.16s0,.12,0,.17,0,.13,0,.2a.65.65,0,0,0,0,.2c0,.11,0,.23,0,.35s0,.2,0,.3,0,.22,0,.33a5,5,0,0,0,0,.67c0,.19,0,.38-.05.58a1.43,1.43,0,0,0,0,.29,2.81,2.81,0,0,0,0,.29c0,.2,0,.4,0,.6s0,.41,0,.61,0,.45,0,.67h0c0,.21,0,.42,0,.63s0,.25,0,.37a.76.76,0,0,0,0,.15.25.25,0,0,0,.07.22l.07,0a.15.15,0,0,0,.06.09.17.17,0,0,0,.13,0,.19.19,0,0,0,.12-.07.15.15,0,0,0,0-.13,1.45,1.45,0,0,1,0-.3c0-.22,0-.45,0-.68a2.11,2.11,0,0,1,0-.26c0-.11,0-.21,0-.32s0-.18,0-.27,0-.1,0-.16a.26.26,0,0,0,0-.21h0l0-.37c0-.17,0-.34,0-.5a4.41,4.41,0,0,1,0-.52l0-.24a2.11,2.11,0,0,0,0-.26,5.42,5.42,0,0,0,0-.57c0-.18,0-.36,0-.54l0-.6h0a1.21,1.21,0,0,1,0-.19v-.47s0-.06,0-.09a.38.38,0,0,0,0-.1,2.55,2.55,0,0,0,0-.39.12.12,0,0,0-.1-.11h0a.13.13,0,0,0-.12.08Zm-.17,1.43h0ZM286.64,33v0Zm.35.54h0Z"/><path class="cls-5" d="M269.83,17.66h0Zm3.67.23h0Zm-3.9.4c.2,0,.41,0,.62,0h.08c.29,0,.59,0,.88,0a.31.31,0,0,0-.18.25.08.08,0,0,0,0,.07h-.19l-.86,0h-.36c-.24,0-.47,0-.7,0l-.68,0-.63,0a1,1,0,0,0-.25,0,.22.22,0,0,1,0-.08h0v-.2h0l.26,0h1l.47,0Zm.78,0h0Zm-.18,0h0Zm-2.88.14v0Zm2.24.24h0Zm3.63.92h0Zm-1.77.07ZM274,20h0Zm-4.54,0h0Zm2.09.11h0Zm-1.84-1.48h0Zm0,0h0Zm-2.4-.15v0Zm.28-.21h0Zm2.63-.66h0Zm.06,0h-1.14c-.24,0-.47,0-.71,0H268l-.45,0c-.14,0-.28,0-.43,0a.39.39,0,0,0-.18,0,.34.34,0,0,0-.18.24v.06a1,1,0,0,0,0,.3,1.36,1.36,0,0,0,0,.2,1.26,1.26,0,0,0,.1.33.7.7,0,0,0,0,.21v0a1.85,1.85,0,0,0,0,.23.9.9,0,0,0,0,.16.7.7,0,0,1,0,.14s0,.06,0,.1v0s0,.06,0,.1a1,1,0,0,0,0,.3.19.19,0,0,0,.21.17.2.2,0,0,0,.16-.17l.14,0,.29,0,.31,0h.42c.15,0,.3,0,.46,0h.78l.23,0,.5,0,.55,0a3.74,3.74,0,0,0,.58,0c.16,0,.32,0,.47,0l.55.08c.17,0,.33,0,.5,0a2.82,2.82,0,0,1,.41,0h0a.33.33,0,0,0,.39,0,.31.31,0,0,0,.11-.21h0a1.7,1.7,0,0,0,0-.22,1.38,1.38,0,0,1,0-.2.9.9,0,0,0,0-.23,2.34,2.34,0,0,0,0-.53c0-.21-.06-.41-.08-.61a.32.32,0,0,0,0-.14.41.41,0,0,0-.13-.19.41.41,0,0,0-.29-.08h0c-.22,0-.44-.05-.65-.06s-.56-.06-.84-.07-.58-.05-.87-.07-.57,0-.86,0Zm0,0h0Z"/><path class="cls-6" d="M269.35,32.58h-.45a3.84,3.84,0,0,0-.48,0l-.48,0a2.48,2.48,0,0,1-.39,0h-.23l-.17,0-.13,0-.23,0a.24.24,0,0,0-.14.3.3.3,0,0,0,.12.13.25.25,0,0,0,.12,0h.19l0,0s-.05.06-.05.09h0a.13.13,0,0,0,.06.09l.12,0h0a.1.1,0,0,0-.1.08v0h0a.13.13,0,0,0-.11,0,.09.09,0,0,0,0,.11.11.11,0,0,0,.08.08h.08a.58.58,0,0,0,.17.06H269l.85,0,.21,0,.29,0,.14,0a.75.75,0,0,0,.26,0,.11.11,0,0,0,.1-.06h.25a.21.21,0,0,0,.1.06c.21,0,.42,0,.63,0h1.07l1,0,.48,0,.46,0,1.11.07H276l.36,0,.39,0h0a.21.21,0,0,0,.17-.13.26.26,0,0,0,.13.06h.17l.19,0,.33,0,.7,0,.76.06.68.07.3,0,.15,0h.16l.11,0a.29.29,0,0,0,.17-.2v0h.87a2.58,2.58,0,0,1,.29,0c.23,0,.45.06.67.07l.7.05.36,0,.34,0h.1l.38,0,.6.06H286l.3,0a.35.35,0,0,0,.14,0l.12,0,.05,0a.32.32,0,0,0,.11-.12.74.74,0,0,0,.13-.33,1,1,0,0,0,0-.34h0v0a.06.06,0,0,1,0,0,.4.4,0,0,0-.07-.19.27.27,0,0,0-.15-.13.62.62,0,0,0-.23-.07,3.53,3.53,0,0,0-.56-.05,5.7,5.7,0,0,1-.58-.06,4.76,4.76,0,0,0-.66-.07l-.29,0a1.69,1.69,0,0,1-.32,0h-.29c-.1,0-.2,0-.3,0h-.27a4.47,4.47,0,0,0-.73,0l-.35,0h-.34a4.29,4.29,0,0,0-.62,0l-.26,0h-.29l-.32,0h-.3l-.17,0-.54,0h-.68l-.71,0c-.92-.05-1.85-.15-2.77-.22-.5,0-1,0-1.49-.07h-4.17Zm-.35.17h0Zm14.22.33h0Zm3.6.46v0Z"/><text class="cls-7" transform="translate(296.73 33.4)">logos</text><text class="cls-8" transform="translate(93.34 77.72)">boulderBajaLogo.svg</text><path class="cls-3" d="M74.55,88.81l-.21,1.92c0,.34,0,.68-.06,1s0,.64-.08,1c0,.75-.09,1.49-.11,2.24,0,.36,0,.71-.06,1.06s0,.78,0,1.16v.14c0,.46,0,.92,0,1.39v.67c0,.35,0,.69,0,1a2.23,2.23,0,0,0,.14.81.57.57,0,0,0,.2.26l.14.08a1.66,1.66,0,0,0,.21.06l.24,0h.25c.46,0,.9,0,1.36,0h0c.88,0,1.77.16,2.65.26.42,0,.85.07,1.27.07.23,0,.46,0,.68,0l.65,0h-.11c.5,0,1,.06,1.5.11l.65.08c.18,0,.34.05.52.06a.43.43,0,0,0,.48-.34.42.42,0,0,0-.37-.44,6.48,6.48,0,0,1-.77-.1l-.46,0-.53,0c-.41,0-.81-.06-1.23-.06s-.77.05-1.15.05c-.84,0-1.68-.16-2.51-.24a12.24,12.24,0,0,0-1.35-.09c-.38,0-.75,0-1.13,0a2.77,2.77,0,0,1-.41,0,5.76,5.76,0,0,1-.08-1.1v-.87c0-.5,0-1,0-1.48v.1c0-.09,0-.17,0-.26v.11c0-.2,0-.39,0-.57v.06c0-.69.06-1.37.08-2s.06-1.42.13-2.13c0-.29.05-.58.07-.88s0-.69.06-1c.06-.61.13-1.22.2-1.83a.4.4,0,0,0-.37-.44h0a.42.42,0,0,0-.44.34ZM74,98.67v0Zm0-1.52v0Z"/><path class="cls-3" d="M80.26,88.39a7.13,7.13,0,0,1-.79,0c-.25,0-.49,0-.73-.07a8.91,8.91,0,0,0-.89-.08c-.32,0-.63,0-.95,0s-.64,0-1,0H75.4a.57.57,0,0,0-.31.07.37.37,0,0,0-.16.26A.34.34,0,0,0,75,89a.42.42,0,0,0,.28.16c.46,0,.91,0,1.36,0s.78-.06,1.18-.06a6,6,0,0,1,.73.07c.25,0,.5.06.75.07a14.33,14.33,0,0,0,1.47-.06l.17,0a2.65,2.65,0,0,1,.3.11,1.1,1.1,0,0,0,.34.1h-.07l.08,0,.07.08a1.25,1.25,0,0,0,.23.23l.27.22a3.59,3.59,0,0,1,.32.36c.12.16.24.32.37.47.28.36.59.71.9,1,.15.17.32.33.48.51s.29.29.42.45l.29.34a2.73,2.73,0,0,0,.25.23,1.09,1.09,0,0,0,0,.18,2,2,0,0,1,0,.24l-.06.39c0,.29-.09.58-.13.87l-.15,1.19c0,.32,0,.64-.08,1s0,.62-.09.93-.09.63-.13,1-.08.55-.11.81a8.63,8.63,0,0,0,0,.88v-.11a2.56,2.56,0,0,1,0,.39v.16a.58.58,0,0,0,0,.37.44.44,0,0,0,.55.23.39.39,0,0,0,.26-.46l0-.35a3.38,3.38,0,0,0,0-.45h0v0c0-.25,0-.49.06-.74s.07-.55.1-.83.1-.65.14-1,0-.59.08-.89a3.25,3.25,0,0,1,0-.44c0-.18,0-.36.06-.53.05-.39.09-.78.15-1.17s.09-.54.12-.82c0-.1,0-.21,0-.31a1.84,1.84,0,0,0,0-.33v0A.52.52,0,0,0,86,93a.87.87,0,0,0-.17-.16l-.12-.1a4.28,4.28,0,0,1-.29-.33c-.13-.16-.27-.29-.41-.44-.34-.36-.68-.72-1-1.1l-.42-.49-.21-.26-.18-.26a5.11,5.11,0,0,0-.45-.48c-.1-.09-.22-.17-.33-.26l-.12-.15A.7.7,0,0,0,82,88.7a1.61,1.61,0,0,0-.36-.1c-.12,0-.22-.11-.33-.14a1.71,1.71,0,0,0-.45-.09c-.21,0-.41,0-.62,0Zm2.09.63,0,0,0,0ZM81,89.17l.06,0-.06,0Zm.64.23Zm.49.47,0,0,0,0Zm3.56,2.81Zm-.35.76,0,0,0,0Zm-.14,7.8h0Zm0-.74h0v0Z"/><path class="cls-3" d="M81.45,88.58a.4.4,0,0,0-.24.22.36.36,0,0,0,0,.29c.05.17.11.35.16.53v0h0v0c0,.13.06.25.09.38a2,2,0,0,1,0,.35v-.1a4.77,4.77,0,0,1-.16,1,2,2,0,0,1-.22.46c-.09.17-.18.34-.28.51l-.33.46c-.12.14-.22.29-.35.42a.63.63,0,0,0-.27.29.44.44,0,0,0,0,.32.51.51,0,0,0,.25.23,1.94,1.94,0,0,0,.76,0l.68,0c.25,0,.51,0,.77,0h-.11l1.11,0c.37,0,.75,0,1.12,0a4.71,4.71,0,0,0,.65,0l.25,0a1.69,1.69,0,0,0,.39-.08.39.39,0,0,0,.24-.51.46.46,0,0,0-.56-.22l-.12,0a3,3,0,0,1-.31,0,3.62,3.62,0,0,1-.47,0h.1c-.31,0-.63,0-.94,0h0c-.6,0-1.21-.06-1.81,0h-.4l-.33,0a3.92,3.92,0,0,0,.25-.32c.14-.2.26-.41.39-.63a4.25,4.25,0,0,0,.31-.6,4.52,4.52,0,0,0,.15-.61,3.09,3.09,0,0,0,.08-.59,5.85,5.85,0,0,0,0-.6,9.49,9.49,0,0,0-.3-1,.4.4,0,0,0-.38-.24.32.32,0,0,0-.17,0Zm-.58,3.59,0,0,0,0Zm4.54,1-.07,0,.07,0Zm-.1,0Zm-3.93-3.48h0Z"/><text class="cls-8" transform="translate(93.34 100.36)">renuCosmeticsLogo.pdf</text><path class="cls-3" d="M74.55,111.42l-.21,1.93c0,.33,0,.68-.06,1s0,.64-.08,1c0,.74-.09,1.49-.11,2.23,0,.36,0,.71-.06,1.07s0,.77,0,1.15v.16h0c0,.45,0,.92,0,1.38V122c0,.34,0,.69,0,1a2.27,2.27,0,0,0,.14.81.7.7,0,0,0,.2.26l.14.07a1.66,1.66,0,0,0,.21.06,1.79,1.79,0,0,0,.24,0,2.09,2.09,0,0,0,.25,0c.46,0,.9,0,1.36,0h0c.88,0,1.77.17,2.65.26a10.81,10.81,0,0,0,1.27.07l.68,0a4.71,4.71,0,0,1,.65,0h-.11c.5,0,1,.06,1.5.12.22,0,.43,0,.65.07s.34,0,.52.06a.43.43,0,0,0,.48-.33.41.41,0,0,0-.37-.44c-.26,0-.52-.07-.77-.11l-.46,0-.53,0c-.41,0-.81-.06-1.23,0s-.77,0-1.15,0c-.84,0-1.68-.16-2.51-.25a12.24,12.24,0,0,0-1.35-.09c-.38,0-.75,0-1.13,0H75a5.93,5.93,0,0,1-.08-1.11v-.87c0-.49,0-1,0-1.48v.1c0-.08,0-.17,0-.25v.1c0-.19,0-.38,0-.57v.06c0-.69.06-1.36.08-2s.06-1.42.13-2.12c0-.3.05-.59.07-.89s0-.69.06-1c.06-.61.13-1.22.2-1.83a.42.42,0,0,0-.37-.44h0a.41.41,0,0,0-.44.33ZM74,121.28v0Zm0-1.52v0Z"/><path class="cls-3" d="M80.26,111l-.79,0-.73-.08a8.91,8.91,0,0,0-.89-.08c-.32,0-.63,0-.95,0s-.64,0-1,0H75.4a.57.57,0,0,0-.31.07.38.38,0,0,0-.16.27.35.35,0,0,0,.08.29.41.41,0,0,0,.28.15c.46,0,.91,0,1.36,0s.78-.06,1.18-.06c.24,0,.49,0,.73.07s.5.07.75.08c.5,0,1-.06,1.47-.07l.17,0a2.65,2.65,0,0,1,.3.11,1.5,1.5,0,0,0,.34.11l-.07,0,.08,0a.27.27,0,0,1,.07.08,1.21,1.21,0,0,0,.23.22l.27.22c.12.12.22.24.32.36l.37.48c.28.35.59.7.9,1,.15.18.32.34.48.51s.29.3.42.46.19.23.29.33a2.83,2.83,0,0,0,.25.24,1,1,0,0,0,0,.17,2,2,0,0,1,0,.24l-.06.39c0,.29-.09.59-.13.88l-.15,1.19c0,.31,0,.63-.08,1s0,.61-.09.92-.09.64-.13,1-.08.55-.11.82a8.43,8.43,0,0,0,0,.87v-.1a2.43,2.43,0,0,1,0,.38v.17a.59.59,0,0,0,0,.37.45.45,0,0,0,.55.22.39.39,0,0,0,.26-.46l0-.34a3.53,3.53,0,0,0,0-.46v0c0-.24,0-.49.06-.74s.07-.55.1-.82.1-.66.14-1,0-.59.08-.88a3.4,3.4,0,0,1,0-.45c0-.18,0-.35.06-.52.05-.39.09-.78.15-1.17s.09-.55.12-.83c0-.1,0-.2,0-.31a1.84,1.84,0,0,0,0-.33v0a.5.5,0,0,0-.08-.44.65.65,0,0,0-.17-.16l-.12-.11a2.28,2.28,0,0,1-.29-.33c-.13-.15-.27-.29-.41-.44-.34-.36-.68-.72-1-1.1l-.42-.48-.21-.26-.18-.26a3.45,3.45,0,0,0-.45-.48c-.1-.1-.22-.18-.33-.27s-.08-.09-.12-.15a.67.67,0,0,0-.26-.21,1.65,1.65,0,0,0-.36-.11c-.12,0-.22-.1-.33-.14a2.24,2.24,0,0,0-.45-.09,4.29,4.29,0,0,0-.62,0Zm2.09.62,0,0,0,0Zm-1.36.16h0Zm.64.23Zm.49.47,0,0,0,0Zm3.56,2.8h0Zm-.35.76,0,0,0,0Zm-.14,7.81Zm0-.74h0v0Z"/><path class="cls-3" d="M81.45,111.19a.43.43,0,0,0-.24.22.37.37,0,0,0,0,.29c.05.18.11.36.16.54v0h0v0c0,.13.06.25.09.38a2,2,0,0,1,0,.35v-.1a4.77,4.77,0,0,1-.16,1,2,2,0,0,1-.22.46c-.09.17-.18.34-.28.51l-.33.46c-.12.14-.22.29-.35.42a.65.65,0,0,0-.27.3.41.41,0,0,0,0,.31.51.51,0,0,0,.25.23,2.15,2.15,0,0,0,.76,0l.68,0h.66l1.11,0c.37,0,.75,0,1.12,0a3.53,3.53,0,0,0,.65,0l.25,0,.39-.08A.39.39,0,0,0,86,116a.45.45,0,0,0-.56-.23l-.12,0-.31,0a2.43,2.43,0,0,1-.47,0H83.7c-.6,0-1.21-.06-1.81,0h-.4l-.33,0a3.76,3.76,0,0,0,.25-.31c.14-.21.26-.42.39-.64a4.25,4.25,0,0,0,.31-.6,4.52,4.52,0,0,0,.15-.61,3,3,0,0,0,.08-.59c0-.2,0-.4,0-.6a10.17,10.17,0,0,0-.3-1,.41.41,0,0,0-.38-.24.47.47,0,0,0-.17,0Zm-.58,3.6,0,0,0,0Zm4.54.95h0Zm-.1,0Zm-3.93-3.48h0Z"/><text class="cls-8" transform="translate(93.34 122.97)">designElixir.svg</text><path class="cls-3" d="M74.55,132.7l-.21,1.93c0,.34,0,.68-.06,1s0,.65-.08,1c0,.74-.09,1.49-.11,2.24,0,.35,0,.71-.06,1.06s0,.77,0,1.16v.14c0,.46,0,.92,0,1.38v.68c0,.35,0,.69,0,1a2.27,2.27,0,0,0,.14.81.63.63,0,0,0,.2.26l.14.07a.83.83,0,0,0,.21.06.93.93,0,0,0,.24,0h.25c.46,0,.9,0,1.36,0h0a26.4,26.4,0,0,1,2.65.26c.42,0,.85.07,1.27.07.23,0,.46,0,.68,0s.43,0,.65,0h-.11q.75,0,1.5.12c.22,0,.43,0,.65.07s.34,0,.52.06a.43.43,0,0,0,.48-.33.41.41,0,0,0-.37-.44c-.26,0-.52-.07-.77-.1l-.46,0-.53-.05A10,10,0,0,0,81.5,145c-.39,0-.77,0-1.15.05-.84,0-1.68-.16-2.51-.25-.45,0-.9-.08-1.35-.09s-.75,0-1.13,0H75a5.87,5.87,0,0,1-.08-1.11v-.87c0-.49,0-1,0-1.47v.09c0-.08,0-.17,0-.25v.1c0-.19,0-.38,0-.57v.06c0-.68.06-1.36.08-2s.06-1.41.13-2.12c0-.29.05-.59.07-.89s0-.68.06-1c.06-.61.13-1.23.2-1.84a.42.42,0,0,0-.37-.44h0a.41.41,0,0,0-.44.33ZM74,142.56v0Zm0-1.51v0Z"/><path class="cls-3" d="M80.26,132.29c-.27,0-.53.05-.79.05l-.73-.08a8.91,8.91,0,0,0-.89-.08c-.32,0-.63,0-.95,0l-1,0H75.4a.49.49,0,0,0-.31.07.38.38,0,0,0-.08.55.37.37,0,0,0,.28.15c.46,0,.91,0,1.36,0s.78-.06,1.18-.06l.73.07c.25,0,.5.07.75.08a14.33,14.33,0,0,0,1.47-.07l.17,0a1.57,1.57,0,0,1,.3.12,2.19,2.19,0,0,0,.34.1l-.07,0,.08,0a.27.27,0,0,1,.07.08,1.21,1.21,0,0,0,.23.22c.08.08.18.15.27.23a3.49,3.49,0,0,1,.32.35c.12.17.24.33.37.48.28.36.59.7.9,1,.15.17.32.33.48.5s.29.3.42.46.19.23.29.33a2.83,2.83,0,0,0,.25.24,1,1,0,0,0,0,.17,1.72,1.72,0,0,1,0,.24l-.06.39c0,.3-.09.59-.13.88l-.15,1.19c0,.31,0,.63-.08,1s0,.62-.09.92-.09.64-.13,1-.08.55-.11.82a8.43,8.43,0,0,0,0,.87v-.1a2.34,2.34,0,0,1,0,.38v.17a.59.59,0,0,0,0,.37.45.45,0,0,0,.55.22.39.39,0,0,0,.26-.46l0-.34a3.53,3.53,0,0,0,0-.46v0c0-.25,0-.49.06-.74s.07-.56.1-.83.1-.66.14-1,0-.58.08-.88a3.4,3.4,0,0,1,0-.45c0-.18,0-.35.06-.52.05-.39.09-.78.15-1.17s.09-.55.12-.82c0-.11,0-.21,0-.32a1.73,1.73,0,0,0,0-.32v-.05a.5.5,0,0,0-.08-.44.87.87,0,0,0-.17-.16l-.12-.11a2.28,2.28,0,0,1-.29-.33c-.13-.15-.27-.29-.41-.43-.34-.36-.68-.73-1-1.11q-.21-.22-.42-.48l-.21-.26-.18-.26a5.11,5.11,0,0,0-.45-.48c-.1-.1-.22-.18-.33-.27a1,1,0,0,1-.12-.15.67.67,0,0,0-.26-.21,2.47,2.47,0,0,0-.36-.11c-.12,0-.22-.1-.33-.14a2.24,2.24,0,0,0-.45-.09c-.21,0-.41,0-.62,0Zm2.09.63,0,0,0,0Zm-1.36.15h0Zm.64.23Zm.49.47,0,0,0,0Zm3.56,2.81Zm-.35.76,0,0,0,0Zm-.14,7.8h0Zm0-.74h0v0Z"/><path class="cls-3" d="M81.45,132.48a.39.39,0,0,0-.24.21.37.37,0,0,0,0,.29c.05.18.11.36.16.54v0c0,.13.06.26.09.38a2.08,2.08,0,0,1,0,.35v-.1a4.56,4.56,0,0,1-.16,1,2.23,2.23,0,0,1-.22.47c-.09.17-.18.34-.28.5l-.33.46c-.12.14-.22.29-.35.42a.7.7,0,0,0-.27.3.42.42,0,0,0,0,.31.47.47,0,0,0,.25.23,2.15,2.15,0,0,0,.76,0l.68,0h.66l1.11,0c.37,0,.75,0,1.12,0a4.72,4.72,0,0,0,.65,0l.25,0a1.69,1.69,0,0,0,.39-.08.39.39,0,0,0,.24-.51.45.45,0,0,0-.56-.22l-.12,0-.31,0-.47,0H83.7c-.6,0-1.21-.07-1.81,0h-.4l-.33,0,.25-.32c.14-.2.26-.42.39-.63a5,5,0,0,0,.31-.61,4.52,4.52,0,0,0,.15-.61,2.89,2.89,0,0,0,.08-.59c0-.2,0-.4,0-.6a9.32,9.32,0,0,0-.3-1,.42.42,0,0,0-.38-.25.47.47,0,0,0-.17,0Zm-.58,3.59,0,0,0,0Zm4.54,1h0Zm-.1,0Zm-3.93-3.49Z"/><text class="cls-8" transform="translate(93.34 144.26)">bruceWatermark.svg</text></g></g></svg>