<svg xmlns="http://www.w3.org/2000/svg" viewBox="0 0 234.16 74.84"><defs><style>.cls-1{fill:#707da7;}.cls-2{fill:#2f345b;}.cls-3{font-size:13.28px;}.cls-3,.cls-4,.cls-5{fill:#d6d5d8;font-family:Meganschalkboard-Regular, Meganschalkboard;}.cls-4{font-size:19.28px;}.cls-5{font-size:15.28px;}</style></defs><title>Asset 5</title><g id="Layer_2" data-name="Layer 2"><g id="Draw_Layer" data-name="Draw Layer"><rect class="cls-1" x="3.27" y="5.43" width="227.49" height="64.98"/><rect class="cls-2" x="2.57" width="231.53" height="11.97" rx="3.9"/><path class="cls-2" d="M4,72.88c0-.23,0-.46,0-.69.07-3.52.08-7,.1-10.57,0-1.6.06-3.2.07-4.8s0-3.46,0-5.19c0-1.52.07-3.05.11-4.57s.09-3.14.17-4.7c.15-2.31.32-4.62.45-6.93,0,.17,0,.34,0,.52.26-4,.37-8.07.48-12.11,0-2,0-4,0-6.05,0-1.8.08-3.61.18-5.41.12-1.62.27-3.23.42-4.85C6,6.64,6,5.76,6.13,4.87s.22-1.63.35-2.45A2.06,2.06,0,0,0,4.9,0L4.71,0A2,2,0,0,0,2.55,1.64C2.38,2.77,2.23,3.9,2.1,5c-.08.68-.1,1.37-.16,2S1.83,8.34,1.78,9c-.24,2.75-.44,5.48-.47,8.24s0,5.46-.05,8.19S1.12,31,1,33.78l0-.51C.93,34.41.86,35.56.8,36.71L.47,41.49C.35,43.33.31,45.19.25,47,.19,48.65.13,50.27.14,51.88s0,3.46,0,5.19-.06,3.2-.07,4.8c0,1.78,0,3.56,0,5.35s0,3.48,0,5.22c0,.1,0,.2,0,.3Z"/><path class="cls-2" d="M27.36,72.56a79.34,79.34,0,0,1,9.38.18c3.17.23,6.36.23,9.54.2,1.58,0,3.15-.1,4.73-.14s3.34-.08,5-.06c3.27,0,6.54.08,9.81.17,1.53,0,3.07.13,4.6.11,1.71,0,3.42-.06,5.13-.1,3.17-.08,6.33-.16,9.5-.26s6.42-.16,9.64-.12,6.55.11,9.82.13h4.83c1.7,0,3.4.06,5.09.07,3.17,0,6.35-.12,9.52-.17s6.46,0,9.69,0c1.56,0,3.11-.09,4.67-.08h5.06l5-.06c1.59,0,3.19,0,4.78,0,6.49.09,13,.27,19.45.46,3.18.09,6.35.09,9.53.17,1.68,0,3.36,0,5,.06s3.33.08,5,.13c3.21.1,6.42.18,9.63.22s6.33,0,9.49.07l4.89.08c1.65,0,3.29.13,4.95.26s3.44.23,5.16.3c1.46.07,2.92.17,4.38.22.1-1.33.19-2.66.27-4h-.21c-1.52,0-3-.16-4.55-.22-1.73-.08-3.45-.18-5.17-.3s-3.29-.24-4.95-.26c-3.17-.06-6.34-.09-9.5-.13s-6.51,0-9.77-.13c-1.58-.05-3.16-.07-4.74-.12s-3.33-.11-5-.13c-6.42-.09-12.86-.14-19.28-.35l-9.89-.27c-1.62,0-3.23,0-4.84-.07s-3.19-.05-4.79,0q-5,.06-10.08.06c-1.56,0-3.11.07-4.67.09s-3.3,0-4.95,0c-3.12,0-6.24,0-9.36.09-1.63,0-3.26.09-4.9.08l-5.08-.06c-3.35,0-6.69,0-10-.08-3.13-.07-6.27-.12-9.41-.06s-6.5.17-9.75.28-6.49.15-9.73.19c-1.53,0-3.06-.06-4.6-.11s-3.13-.07-4.7-.09c-3.38,0-6.75-.13-10.12,0s-6.44.2-9.67.14c-3,0-6.09-.31-9.15-.42a82.3,82.3,0,0,0-9.42.32c-1.53.11-3,.27-4.58.45-1.38.15-2.76.21-4.15.25-.47,0-.94,0-1.41,0s-.95,0-1.43,0c-1,0-2.09,0-3.14-.1-2.35-.11-4.71-.2-7.06-.26a1.71,1.71,0,0,0-.71.16,14.45,14.45,0,0,1,.49,3.8,1.86,1.86,0,0,0,.33,0c3,.07,6.06.21,9.08.33a52.4,52.4,0,0,0,8.12-.24C21.24,72.94,24.3,72.69,27.36,72.56Z"/><path class="cls-2" d="M231.76,74.36c.09-1.67.19-3.33.28-5s.19-3.56.3-5.34c.09-1.59.15-3.19.24-4.79s.26-3.46.38-5.18.16-3.23.2-4.84c.06-1.85.15-3.7.14-5.55,0-1.6,0-3.2,0-4.79,0-1.15,0-2.3,0-3.45v.52c0-2.8.16-5.59.26-8.39s.33-5.46.48-8.19.14-5.49.08-8.24c0-.63,0-1.26,0-1.89s0-1.37,0-2.05c-.06-1.14-.13-2.29-.23-3.43a2,2,0,0,0-2-1.76l-.19,0a2.05,2.05,0,0,0-1.73,2.27c.07.83.14,1.65.19,2.47s0,1.78.06,2.67c0,1.62.09,3.24.1,4.87,0,1.8,0,3.61-.18,5.41-.13,2-.29,4-.38,6-.16,4-.3,8.07-.31,12.11q0,3.21,0,6.42c0,1.57-.08,3.14-.14,4.71s-.09,3-.19,4.56c-.12,1.72-.28,3.45-.39,5.18s-.15,3.2-.24,4.79c-.2,3.52-.42,7-.58,10.55l0,.69,2.64.09A12.9,12.9,0,0,1,231.76,74.36Z"/><path class="cls-2" d="M171.24,72.88c0-.23,0-.46,0-.69.07-3.52.08-7,.1-10.57,0-1.6.06-3.2.07-4.8s0-3.46-.05-5.19c0-1.52.07-3.05.11-4.57s.09-3.14.17-4.7c.16-2.31.32-4.62.45-6.93l0,.52c.25-4,.36-8.07.47-12.11,0-2,0-4,0-6.05,0-1.8.08-3.61.18-5.41.12-1.62.27-3.23.42-4.85.08-.89.13-1.77.23-2.66s.22-1.63.35-2.45A2.06,2.06,0,0,0,172.16,0,.63.63,0,0,0,172,0a2,2,0,0,0-2.16,1.63c-.17,1.13-.32,2.26-.45,3.4-.08.68-.1,1.37-.16,2S169.09,8.34,169,9c-.24,2.75-.44,5.48-.47,8.24s0,5.46,0,8.19-.14,5.6-.29,8.39l0-.51c-.08,1.14-.15,2.29-.21,3.44-.11,1.59-.21,3.19-.33,4.78-.12,1.84-.16,3.7-.22,5.55-.06,1.61-.12,3.23-.11,4.84s0,3.46,0,5.19-.06,3.2-.07,4.8c0,1.78,0,3.56-.05,5.35s0,3.48,0,5.22c0,.1,0,.2,0,.3Z"/><path class="cls-2" d="M230,43.24c0-1,0-2,0-2.93a12.62,12.62,0,0,1,.48-2.67H230c-3.48-.12-6.95-.19-10.42-.4l.64.05L216,37,210,36.52c-2.29-.17-4.59-.22-6.89-.31-2-.08-4-.17-6-.16s-4.3.07-6.45.06c-2,0-4-.08-6-.1L178.09,36c-2.17,0-4.33-.05-6.49-.08h-.38c-.05,1.87-.1,3.74-.17,5.61l.86,0c4.37.1,8.75.11,13.12.15,2,0,4,.08,6,.1,2.15,0,4.3-.06,6.45-.07,1.89,0,3.78.09,5.67.14s3.9.13,5.84.24c2.87.23,5.74.45,8.61.64l-.65,0C221.27,43,225.62,43.11,230,43.24Z"/><text class="cls-3" transform="translate(19.31 35.51)">&quot;logos&quot; are ready to be <tspan x="0" y="11">viewed. click here to continue </tspan></text><text class="cls-4" transform="translate(183.43 31.42)">visit</text><text class="cls-5" transform="translate(180.51 53.96)">keep <tspan x="0" y="12">scrollin</tspan></text></g></g></svg>