<svg xmlns="http://www.w3.org/2000/svg" viewBox="0 0 187.09 186.25"><defs><style>.cls-1{fill:#fefefe;}.cls-2{fill:#c7ccdd;}.cls-3{fill:#707da7;}</style></defs><g id="Layer_2" data-name="Layer 2"><g id="Draw_Layer" data-name="Draw Layer"><path class="cls-1" d="M59.86,0h-.57c-1.49,0-3,0-4.53.2L53,.42c-.91.1-1.81.21-2.72.29L46.74,1h-.19l-.85.06-.56,0-.16,0h-.4c-1,.07-1.93.17-2.89.28l-1.93.2c-1.51.1-3,.12-4.54.15H35c-.6,0-1.2,0-1.79.06l-.77,0c-.39,0-.77,0-1.16,0H29.91l-1.4,0c-1.12,0-2.25,0-3.38,0H23.8c-1.36,0-2.71.05-4.06.1h-.62L18,2l-.72,0h-.4L15.56,2h-1c-1,0-2.09-.09-3.11-.17l-1.2-.09c-.41,0-.83,0-1.24,0H7.66c-.21,0-.42,0-.63,0l-.6,0a2.2,2.2,0,0,0-.67.08,3.17,3.17,0,0,0-1.41.84A3.92,3.92,0,0,0,3.48,4c-.14.36-.28.72-.41,1.08l-.15.4a6.54,6.54,0,0,0-.46,1.69,2.66,2.66,0,0,0,.08,1,7.53,7.53,0,0,0,.38.88c0,.15-.09.28-.12.41A8.34,8.34,0,0,0,2.61,11c0,.4-.08.79-.13,1.18s-.1.73-.12,1.1c-.06.78-.11,1.55-.12,2.32,0,1-.05,1.89-.09,2.83,0,.68-.06,1.35-.08,2,0,.91,0,1.8,0,2.7v.78c0,.55,0,1.1,0,1.65s0,.82,0,1.23,0,.92.05,1.39c0,.68,0,1.39,0,2.08v1c0,1.41,0,2.87,0,4.31s0,3.22-.11,5.22c-.09,1.61-.06,3.25,0,4.83v.49c0,1.58,0,3.28,0,5.33v.66c0,.66,0,1.31,0,2l0,.71c0,.61,0,1.21,0,1.82S2,58,2.07,58.75c.05,1,.09,2,.09,2.94,0,.56,0,1.14-.07,1.71,0,.25,0,.51,0,.76,0,.52-.05,1-.08,1.54l-.05,1c-.06,1.27-.07,2.57-.08,3.82,0,.57,0,1.14,0,1.72,0,.75,0,1.5,0,2.25,0,1,0,1.93,0,2.89s0,2-.05,3c0,.7,0,1.4,0,2.1s0,1.4-.07,2.11c0,.94-.09,1.91-.08,2.87,0,.79,0,1.58,0,2.37s0,1.83,0,2.76c0,1.55-.07,3.13-.15,4.65l0,.38c-.08,1.6-.07,3.23-.05,4.81v.46c0,1,0,2.08,0,3.11,0,.61,0,1.22,0,1.83v.46c0,.69,0,1.37,0,2.06,0,.52-.05,1-.09,1.58,0,.38-.06.77-.08,1.16-.08,1.65-.09,3.38,0,5.27,0,.92.06,1.85.06,2.77,0,.48,0,.95,0,1.43l0,1.08c0,1.56-.07,3.11-.08,4.66,0,.79,0,1.59-.07,2.38S.93,132.26.92,133c0,.94-.05,1.87-.1,2.81,0,.7-.07,1.4-.09,2.11l0,1.64c0,1.16,0,2.33-.1,3.49l-.07,1.28c-.07,1.25-.14,2.53-.13,3.81,0,.36,0,.73,0,1.09s0,.82,0,1.24c0,.71,0,1.46-.12,2.37l-.1,1c-.12,1.26-.24,2.56-.24,3.86a22.1,22.1,0,0,0,.3,3.15c.07.5.14,1,.19,1.49l.08,1c.05.67.1,1.33.16,2,.05.88.06,1.76.07,2.64v.66c0,.66,0,1.32,0,2,0,.46-.07.93-.11,1.39s-.09,1.05-.11,1.57a22.56,22.56,0,0,0,.08,2.64l0,.2c0,.29,0,.58.07.87a5.12,5.12,0,0,0,.38,1.37,6.69,6.69,0,0,0,1.11,1.84c.17.17.36.32.55.48a3.19,3.19,0,0,0,.72.41l.11.05.8.32c.67.25,1.3.44,1.91.63l.19.06a1.81,1.81,0,0,0,1.22-.08c.41.07.74.11,1.06.14h0l.15,0H9l2.46.35c1.73.26,3.53.53,5.31.66l2.29.16c1.86.13,3.77.26,5.65.47l.12,0,.24,0-.17,0,.89.15c1.31.19,2.67.39,4,.5.52.05,1,.07,1.56.09l.88.05.75,0,1.54.1,1.11.07c1.3.09,2.64.19,4,.21,1,0,2,.07,3,.12.63,0,1.27.07,1.9.09l1.19.07,1.45.07h3.53c1.29,0,2.57,0,3.86-.06H55l1.92-.06c.5,0,1,0,1.51,0h1.67c1.34,0,2.69.05,4,.1h.38c.51,0,1,0,1.53,0h4.39c1,0,2,0,3,0l1.56,0h.33c.57,0,1.13,0,1.7,0l.62,0h.8l1.73,0,2.42-.11c.89-.05,1.79-.09,2.68-.12l1.3,0c1.26,0,2.54.05,3.91.15,1.14.07,2.27.09,3.12.09h2c.89,0,1.79,0,2.68-.08s1.61-.07,2.42-.08H101c1,0,2,.05,3,.1l1.64.07c3.82.12,7.27.18,10.53.18l1.66,0h1c.41,0,.81,0,1.21,0l1.31,0c1.36,0,2.66.07,3.91.13l1.56.07h.54c.44,0,.88,0,1.32,0l.62,0,1.39-.06,1.11-.06.59,0c1.06-.05,2.15-.11,3.23-.11.45,0,.91,0,1.36,0s1.16.08,1.73.13l.87.08c.78.06,1.57.11,2.37.13l1.52,0q1.17,0,2.34,0h1.65c1,0,2,0,3,.09l1.26,0,1.45,0H154l1.43.05,1,0c.47,0,.94,0,1.42,0,1.09,0,2.27,0,3.73-.12.67,0,1.34-.1,2-.16l.62-.06c.68-.06,1.32-.09,2-.09h.61l.88,0c.34,0,.67,0,1,0h4.65c.59,0,1.17,0,1.76,0l.73,0a21.48,21.48,0,0,0,3.83-.35,5.38,5.38,0,0,0,.9-.28,2.7,2.7,0,0,0,1.92-2c.18-.49.31-1,.44-1.51a1.69,1.69,0,0,0,.28-.12,2.62,2.62,0,0,0,1.27-1.8,5.66,5.66,0,0,1,.15-.59c.06-.22.11-.44.16-.66.18-.84.32-1.69.42-2.51l.12-1.15c0-.33.06-.66.1-1,.06-.5.13-1,.21-1.49.06-.35.11-.7.16-1.06.27-2,.43-3.7.51-5.32,0-.79,0-1.59,0-2.37s0-1.7,0-2.55c.12-2.07.15-3.66.09-5.18s-.07-3,0-4.62c0-.53.1-1.06.16-1.59,0-.34.08-.68.11-1,.08-.83.12-1.72.13-2.8,0-.66,0-1.32,0-2l0-.66c0-.75,0-1.51,0-2.27v-2.24c0-1,0-2.09,0-3.13s.07-2,.13-3.07c0-.68.08-1.36.1-2l0-.58c.05-1.27.1-2.58.09-3.88s-.14-2.71-.26-4l0-.41c-.09-1.54-.11-3.1-.07-4.76,0-1.07,0-2.13,0-3.19,0-.76,0-1.52,0-2.28,0-1.75,0-3.39,0-5v-.33c0-.79,0-1.58-.1-2.37,0-.46-.1-.93-.15-1.39l-.12-1c-.05-.55-.11-1.11-.15-1.68-.1-1.55-.09-3.13-.07-4.75,0-.56,0-1.12,0-1.68,0-1.15,0-2.33,0-3.49,0-.37,0-.74.05-1.11s.05-1,.07-1.54,0-1.32,0-2V84.5q0-1.34.06-2.67c0-.81,0-1.63,0-2.44,0-.62,0-1.25,0-1.88V76.9c0-.63,0-1.26.07-1.88l0-.68c.07-1.28.08-2.59.09-3.85V69.16c0-.46,0-.92.07-1.38s.06-.79.07-1.18c0-.82,0-1.63,0-2.45,0-1.54,0-3.33,0-5.11l.05-1c0-1.23.1-2.5.07-3.75s-.12-2.85-.23-4.45a12,12,0,0,1,0-1.32c0-.28,0-.56.05-.85s0-.56.06-.85c0-1,0-2,0-2.93V42.14c0-.91,0-1.85-.06-2.76-.05-.73-.12-1.46-.2-2.19,0-.49-.1-1-.14-1.46-.05-.69-.08-1.37-.1-2.06,0-.46,0-.92,0-1.39,0-.28,0-.57,0-.85,0-.8,0-1.6,0-2.4s0-1.51.06-2.28c0-1,.15-1.92.25-2.86.06-.52.12-1,.17-1.56l0-.37a19.38,19.38,0,0,0,.12-2c0-.75-.06-1.49-.11-2.18l0-.27c0-.67-.09-1.37-.18-2s-.22-1.24-.34-1.86l0-.18c-.12-.57-.2-1.14-.28-1.72s-.19-1.32-.33-2a15.07,15.07,0,0,0-.6-2.16,5.22,5.22,0,0,0-1.27-1.88,3.58,3.58,0,0,0-1.11-.77,2.84,2.84,0,0,0-1-.19,3.2,3.2,0,0,0-1.23-1.09,4.62,4.62,0,0,0-1.18-.42,8.09,8.09,0,0,0-1.38-.15h-.19c-.47,0-.95,0-1.42,0h-1l-1.87,0-.75,0h-1.71c-1.25,0-2.55,0-3.83-.11l-.93-.07c-1.33-.09-2.67-.18-4-.31s-2.59-.16-3.86-.2l-1.43,0-2.06-.11c-1-.06-2-.11-3-.13l-1.8,0c-1.12,0-2.23,0-3.34-.07l-.57,0c-.65,0-1.31-.05-2-.06-.45,0-.9,0-1.35,0h-1.19c-1.43,0-2.86-.17-4.25-.3l-1-.1-2.58-.22c-.7,0-1.34-.07-2-.08H131c-1.59,0-3.18-.05-4.77-.05L122,1h-8l-.85,0-.65,0c-.57,0-1.13-.07-1.7-.12l-1-.09c-.49,0-1,0-1.46-.06-.31,0-.61,0-.91,0-.87,0-1.74,0-2.6,0H99.48c-.69,0-1.38,0-2.08-.07-1,0-2.08-.08-3.12-.09H89c-1,0-2-.06-3-.12L84.15.33C83,.28,81.8.26,80.63.26H79.18L77.81.3c-1.09,0-2.18,0-3.27,0h-.85L72.55.3c-.47,0-.93,0-1.4,0H68.43c-1.58,0-3,0-4.38-.13-.68,0-1.36-.06-2-.08L61,0,59.86,0Zm72.36,4.59-2.85,0c.94,0,1.9,0,2.85,0Z"/></g><g id="Draw_Layer-2" data-name="Draw Layer"><path class="cls-2" d="M92.26,30.43a4.41,4.41,0,0,0-1.06.14,3.88,3.88,0,0,0-2,1.2,10.8,10.8,0,0,0-1.28,2.11l-.1.21c-.17.33-.32.67-.48,1l0,.11-.06.12c-.09.21-.19.42-.29.63-.28.57-.6,1.13-.91,1.68l-.3.54a21.94,21.94,0,0,0-1,2c-.19.41-.36.84-.52,1.26l-.29.7c-.66,1.52-1.25,3-1.77,4.53l-.34,1-.09.26-.24.73c-.29.86-.57,1.72-.88,2.58l-.33.93c-.41,1.15-.83,2.37-1.21,3.59-.51,1.68-.93,3-1.44,4.33-.17.46-.33.93-.49,1.39l-.11.35c-.22.68-.46,1.4-.74,2.1l-.49,1.2q-.5,1.24-1,2.49l-.11.27-.4.93-.11.28c-.31.73-.56,1.38-.78,2L72.64,71l-.78-.09c-.43,0-.86-.06-1.29-.08h-.45l-.52,0-.94-.1c-.76-.08-1.44-.16-2.12-.19H65.35c-.49,0-1,0-1.47,0l-.6,0-.55,0-.35,0-.74,0-.87,0-1.42-.17-.31,0c-.63-.08-1.22-.11-1.8-.14h-.17l-.45,0H56.4a5.26,5.26,0,0,0-.64-.06c-.52,0-1-.08-1.5-.09H53.12l-.47,0h-.16q-.32,0-.63,0H49.59a38.91,38.91,0,0,0-4,.35l-.55.06a18.18,18.18,0,0,1-2.21.16c-.62,0-1.24,0-1.85.08h-.31c-.72,0-1.45.14-2.26.26a14.4,14.4,0,0,0-1.48.32l-.82.19-.52.08-.24,0a5.23,5.23,0,0,0-.77.15,2.79,2.79,0,0,0-1.23.69,3.78,3.78,0,0,0-1,2.71,6.51,6.51,0,0,0,1.51,3.7l.2.29c.83,1.24,1.68,2.43,2.55,3.55a18.91,18.91,0,0,0,1.76,2.07c.55.53,1.12,1,1.69,1.54l.31.28,1.28,1.17.14.12c.49.43,1.05.93,1.55,1.46.86.93,1.91,2,3,3l.78.69.14.13c.83.73,1.66,1.47,2.45,2.25.45.42.91.83,1.38,1.24l.32.28c.61.53,1.12,1,1.69,1.39l1.17.84.36.26c.55.4,1.1.8,1.64,1.21s1.13.88,1.68,1.34c.27.22.52.46.76.69l.1.09.58.54c.6.54,1.22,1,1.85,1.54l.32.27.65.53a8.47,8.47,0,0,1,.7.63l.14.13c.31.29.54.51.78.71l.23.19c-.08.44-.16.82-.24,1.2s-.11.54-.16.78-.13.77-.18,1.16l-.05.3c0,.22-.06.44-.11.66-.1.57-.22,1.13-.35,1.69l0,.22,0,.15,0,.2c-.15.64-.29,1.31-.4,2-.27,1.79-.5,3.24-.75,4.56l-.12.75-.06.31c-.06.4-.11.73-.17,1-.15.81-.33,1.61-.51,2.41s-.35,1.62-.49,2.4c-.11.6-.25,1.18-.39,1.78l-.14.59-.45,1.87L59,132.93c-.48,2-.95,4-1.42,6a22,22,0,0,0-.73,5A7.46,7.46,0,0,0,57,146a1.62,1.62,0,0,0,.24.83,2,2,0,0,0,.65.66,2.79,2.79,0,0,0,1.66.85c.23,0,.45,0,.67,0a5.16,5.16,0,0,0,.67-.05,5.87,5.87,0,0,0,1.32-.32,7.17,7.17,0,0,0,1.36-.72l.81-.54.25-.16.82-.54c.66-.42,1.35-.83,2.12-1.26l.88-.47c.45-.24.81-.43,1.15-.63s.53-.31.79-.48l.26-.14c.21-.14.43-.26.64-.39l.48-.27,1.26-.72c1.17-.69,2.29-1.44,3.33-2.14l.82-.59.14-.11.22-.15.38-.28c.43-.31.87-.6,1.31-.9l.35-.24c1-.69,2.12-1.48,3.2-2.34.38-.3.77-.59,1.17-.88l.76-.56.72-.56.12-.1.26-.2c.31-.24.62-.48.94-.71.75-.53,1.43-1,2.06-1.55.47-.36.9-.76,1.34-1.15l.18-.17.19-.17.4-.35,1.36-1c.34-.25.68-.51,1-.75.41.21.84.45,1.27.69l.37.2a31.19,31.19,0,0,0,4,1.79l.17.07.13,0c.59.25,1.08.49,1.56.72s1,.52,1.43.78l.64.38c.64.37,1.33.71,2,1s1.39.68,2,1l.2.12c1.26.74,2.69,1.57,4.11,2.22,1,.46,2,1,2.91,1.53l.18.1.22.12.8.45c.53.31,1.08.59,1.64.87l.1.06c.82.42,1.6.82,2.33,1.28l.16.1a20.88,20.88,0,0,0,1.89,1.1c.79.4,1.43.75,2,1.11s1.23.74,1.85,1.09l.26.14a15.87,15.87,0,0,0,1.69.86,5.69,5.69,0,0,0,2.28.63,3,3,0,0,0,1.85-.76,4.2,4.2,0,0,0,.7-.9,4.16,4.16,0,0,0,.68-2.27,8.44,8.44,0,0,0-.19-1.84l-.08-.42-.11-.67c-.08-.53-.17-1.06-.28-1.6s-.26-1.07-.4-1.61l-.13-.47c-.11-.41-.21-.81-.32-1.23-.3-1.18-.6-2.32-1-3.41-.21-.61-.43-1.23-.65-1.84l-.17-.46c-.25-.69-.5-1.39-.74-2.08s-.4-1.22-.59-1.84c-.26-.88-.51-1.68-.8-2.44l-.15-.39-.12-.34-.11-.29c-.43-1.15-.87-2.34-1.26-3.51-1-3.09-1.94-6.12-2.76-9l-.15-.54-.11-.37-.08-.3-.21-.76a11.92,11.92,0,0,0-.42-1.32c-.07-.22-.15-.43-.22-.64s-.2-.69-.29-1c1-1,2.06-2,3-2.86l3-2.76,1.35-1.22.28-.26,1.19-1.07c.73-.62,1.43-1.27,2.14-1.91l.22-.2c.46-.43.92-.85,1.39-1.26l.38-.32.27-.21.26-.22c.31-.26.6-.52.9-.79l.34-.29c.18-.16.37-.3.55-.45l.27-.21.74-.62.38-.32.87-.78.78-.7.08-.12h0a9.58,9.58,0,0,0,.88-.75l.37-.38.13-.12a4.91,4.91,0,0,1,.38-.4c.28-.28.56-.54.85-.8l.12-.1c.23-.2.45-.41.67-.62s.63-.65.94-1,.51-.56.78-.83c.53-.52,1-1,1.52-1.59l.42-.46A16.51,16.51,0,0,0,149,76.7a4.41,4.41,0,0,0,.45-2.19,4.71,4.71,0,0,0-.61-2.65,4.11,4.11,0,0,0-2.78-1.56l-.39,0a5.57,5.57,0,0,0-.73-.18c-.2,0-.42,0-.62-.07l-.29,0c-.87-.08-1.73-.12-2.56-.12h-.67c-.68,0-1.37.07-2,.11h-.68c-.48,0-1,0-1.46,0h-1.07l-1.44,0c-1.45,0-3.16.06-4.85.21-.88.08-1.69.13-2.47.14h-2.48c-.78,0-1.55,0-2.33.08-.42,0-.83,0-1.25,0s-.83,0-1.24,0h-.71l-.4,0h-.23l-1,0c-.34,0-.67,0-1,.06H116c-.4,0-.8,0-1.21,0h-.27l-1.1,0h-.47c-.71,0-1.42,0-2.13,0h-1.17l-.24-.94-.27-1c-.36-1.31-.75-2.61-1.15-3.91-.21-.68-.41-1.37-.59-2.06s-.33-1.16-.5-1.73l-.14-.43c-.19-.61-.37-1.22-.55-1.84l-.11-.36c-.21-.74-.4-1.39-.62-2l-.22-.67c-.23-.68-.46-1.37-.66-2.07-.29-1-.61-2-1-3l-.45-1.36c-.16-.51-.33-1-.51-1.52-.25-.7-.55-1.39-.84-2.05l-.26-.59c-.44-1.09-.85-2.21-1.24-3.3l-.07-.16-.33-.93-.22-.59a32.7,32.7,0,0,0-1.77-4.26c-.27-.51-.57-1-.86-1.49l-.35-.59c-.22-.36-.44-.72-.69-1.07s-.38-.51-.58-.74a4.87,4.87,0,0,0-1-.86,3.41,3.41,0,0,0-.79-.36,4.22,4.22,0,0,0-.74-.2,3.2,3.2,0,0,0-.61-.05Z"/><path class="cls-3" d="M137.46,29.59h0a6.11,6.11,0,0,0-2.61.74,9.57,9.57,0,0,0-2.43,1.76,6.86,6.86,0,0,0-.64.68l-.26.28c-.35.39-.71.78-1,1.19s-.75,1-1.11,1.57l-.17.25-.56.79-.3.42c-.24.31-.45.6-.64.9s-.44.71-.65,1.07l-.27.46-.39.64-.09.15c-.41.7-.82,1.38-1.21,2.09a57.87,57.87,0,0,0-2.89,6.18l-.42,1c-.15.4-.31.79-.47,1.19a.94.94,0,0,0-.08.33l-.15.39,0,.11c-.08.19-.13.33-.18.47a1.23,1.23,0,0,0-.06.22l-.12.45c0,.12-.05.24-.07.36a3.37,3.37,0,0,1-.09.37c0,.15-.09.31-.12.47a2.71,2.71,0,0,0-.09.41c0,.1,0,.21,0,.31a2.12,2.12,0,0,0,0,.27l0,.24,0,.13a1,1,0,0,0,0,.33.75.75,0,0,0,.13.32,1,1,0,0,0,.23.26.45.45,0,0,0,.18.07.7.7,0,0,0,.33.08l.19,0a1.61,1.61,0,0,0,.36-.15l.11-.06.19-.09a1.11,1.11,0,0,0,.19-.09l.12-.08.3-.21a1.19,1.19,0,0,0,.18-.15c.11-.09.16-.15.22-.19a4.93,4.93,0,0,0,.49-.42q.18-.18.33-.36l.11-.13a12,12,0,0,1,.92-.84,5.2,5.2,0,0,0,.43-.37l.23-.23.31-.3.27-.28.14-.16c.16-.15.33-.31.48-.47l.14-.17.15-.16.18-.22.1-.12.39-.43.19-.24c.1-.13.2-.26.31-.38a4.22,4.22,0,0,0,.49-.61l.13-.17A5.15,5.15,0,0,1,129,49c.1-.14.21-.26.32-.39l.34-.39.28-.32.51-.56c.17-.19.34-.38.52-.56s.31-.34.46-.53l.21-.26.3-.35c.12-.14.23-.29.35-.44l.11-.15.17-.25.27-.36c.15-.2.31-.38.48-.57s.44-.51.64-.78.3-.38.44-.57l.21-.3.1-.13.14-.19.35-.48a5.44,5.44,0,0,0,.44-.68,6.34,6.34,0,0,1,.62-.94,5.39,5.39,0,0,0,.4-.54l.11-.14.1-.14.18-.25c.06-.09.12-.17.17-.26l.21-.31.22-.29.19-.26.18-.24.22-.3.18-.27a1.37,1.37,0,0,0,.13-.2l.11-.2a3.07,3.07,0,0,0,.17-.31l.08-.16.42-.59.14-.19c.14-.19.27-.37.39-.57a4.78,4.78,0,0,0,.58-2,2.89,2.89,0,0,0-.77-2.2,3.05,3.05,0,0,0-2.24-.79Z"/><path class="cls-3" d="M44.75,28.67a5.82,5.82,0,0,0-1.11.15,3.56,3.56,0,0,0-2.73,2.61,4.39,4.39,0,0,0,0,1.62,11.51,11.51,0,0,0,.42,1.77A14,14,0,0,0,42.76,38a18.33,18.33,0,0,0,2.47,2.94l.18.19c.8.83,1.58,1.66,2.34,2.52a21.5,21.5,0,0,0,3.07,3l.48.37.36.27,1.09.85.69.57.36.3.77.64a2.23,2.23,0,0,0,.7.4l.5.35c.16.12.33.23.5.34l.38.32.77.54c.24.17.49.34.75.5l.3.17.22.13a.33.33,0,0,0,.19.06l.17.06.29.13.51.26L60,53a2.92,2.92,0,0,0,.34.13,1.4,1.4,0,0,0,.39.07h.13a.74.74,0,0,0,.48-.32,1.57,1.57,0,0,0,.2-.52,1.51,1.51,0,0,0-.05-.67c0-.18-.09-.3-.13-.43a1.87,1.87,0,0,0-.15-.32l-.07-.14-.27-.55L60.71,50l-.25-.48-.13-.25c-.12-.23-.25-.46-.37-.7l-.09-.16-.13-.25-.14-.24-.29-.55c-.12-.23-.25-.45-.39-.67a3.12,3.12,0,0,0-.33-.73c-.24-.4-.52-.79-.8-1.17l-.08-.14-.52-.84-.25-.39-.16-.3-.16-.3-.18-.34-.19-.35-.38-.77-.13-.25-.09-.18-.12-.26-.13-.27c-.06-.13-.13-.25-.2-.38l-.15-.26-.2-.37-.16-.29c-.1-.19-.21-.37-.32-.55l-.1-.16a7.82,7.82,0,0,0-.43-.68l-.1-.16L53.42,37c-.27-.41-.54-.82-.8-1.24-.08-.14-.17-.28-.26-.41l-.14-.2-.46-.7c-.2-.31-.41-.6-.63-.9l-.2-.27c-.14-.2-.29-.39-.45-.58l-.08-.1-.25-.31c-.27-.33-.55-.65-.84-1a6.39,6.39,0,0,0-1-.86,7.39,7.39,0,0,0-.66-.42,12.68,12.68,0,0,0-1.25-.88,3.92,3.92,0,0,0-1.1-.45,2.07,2.07,0,0,0-.57-.07Z"/><path class="cls-3" d="M51.9,108h-.32a6.91,6.91,0,0,0-1,.1c-.33,0-.67.12-1,.2s-.54.15-.8.23l-.19.07-.15,0-.16,0-.29.08-.11,0a3.73,3.73,0,0,1-.41.12,5.26,5.26,0,0,0-.72.2,3.2,3.2,0,0,0-.39.16,2.18,2.18,0,0,0-.77.19c-.4.18-.8.34-1.2.5l-1.15.47-.15.07-.15.06c-.54.24-1.08.48-1.64.69l-.7.25c-.53.19-1.06.37-1.59.59-.82.35-1.63.73-2.43,1.12l-2.28,1.07-.46.19-.2.08-.53.23a9.16,9.16,0,0,0-1.07.57l-.16.09-.38.22a15.76,15.76,0,0,0-2,1.27,9.66,9.66,0,0,0-1.7,1.94c-.63.86-1.48,2-1.16,3.42a3.73,3.73,0,0,0,2.49,2.52,4.71,4.71,0,0,0,1.78.38,3.82,3.82,0,0,0,.9-.11c.38-.1.75-.21,1.13-.34a4.06,4.06,0,0,0,.78-.39l.17-.12c.74-.44,1.6-1,2.37-1.54.41-.31.82-.63,1.22-1l.6-.47,1.15-.85.81-.59.78-.61.17-.14c.33-.26.66-.53,1-.78l.44-.32.12-.07c.41-.27.78-.51,1.12-.77l.8-.68.42-.37.48-.44a5.76,5.76,0,0,1,.44-.41l.27-.27a5.22,5.22,0,0,1,.43-.39,4.73,4.73,0,0,0,.5-.39,3.76,3.76,0,0,0,.29-.32l.11-.06a6,6,0,0,0,.8-.55c.24-.21.48-.41.74-.6l.31-.24.12-.09.34-.25L50,112c.27-.24.41-.35.55-.46l.09-.09.15-.08.3-.2a2.78,2.78,0,0,0,.4-.26l.52-.45.17-.15c.17-.16.26-.24.34-.33a2.33,2.33,0,0,0,.25-.32c.05-.09.11-.18.16-.28a1.67,1.67,0,0,0,.22-.46.55.55,0,0,0,0-.36.41.41,0,0,0-.21-.24,1.27,1.27,0,0,0-.35-.14,1.32,1.32,0,0,0-.33-.08l-.2,0Z"/><path class="cls-3" d="M94.92,138.81a.82.82,0,0,0-.53.3c-.11.14-.22.29-.32.44a2.26,2.26,0,0,0-.16.26c0,.08-.08.15-.12.24l-.06.14c-.08.17-.16.35-.23.53l-.2.51,0,.15c0,.13-.1.26-.14.4l0,.15,0,.15-.06.17-.06.17-.09.3-.11.35a2.88,2.88,0,0,0-.09.4l0,.23-.06.29-.06.29,0,.18,0,.13,0,.15,0,.14c0,.14,0,.28-.07.43l0,.18,0,.33c-.15,1-.35,1.88-.53,2.64a24.36,24.36,0,0,0-.46,2.64c-.14.64-.26,1.28-.36,1.93,0,.16-.07.32-.09.47-.06.3-.12.6-.17.9-.13,1-.21,1.77-.25,2.47-.09,1.44-.2,2.57-.33,3.68l0,.16c-.2,1.37-.39,2.69-.46,4s-.08,2.36-.09,3.53v.13a7.73,7.73,0,0,0,.19,2.24,5.17,5.17,0,0,0,.57,1.32A3.22,3.22,0,0,0,92,173.34a4.26,4.26,0,0,0,1.4.25,3.94,3.94,0,0,0,1.89-.49,4.05,4.05,0,0,0,1.35-1.33,5.73,5.73,0,0,0,.54-1.15l.06-.14a7.74,7.74,0,0,0,.46-1.36c.09-.49.17-1,.23-1.72.08-.85.1-1.73.11-2.55,0-1,0-1.94,0-2.91v-.44c0-.4,0-.81,0-1.21s-.09-.63-.14-.94l0-.15-.09-.49a38.9,38.9,0,0,1-.14-4.7v-4.34a7.84,7.84,0,0,0-.17-2,3.16,3.16,0,0,1-.09-.52l-.06-.48-.06-.32c-.05-.22-.06-.35-.08-.47l-.06-.39c0-.06,0-.12,0-.18l0-.18L97,144.8l0-.17,0-.18a3.52,3.52,0,0,0-.15-.54,3.05,3.05,0,0,1-.14-.54l0-.16,0-.13,0-.34-.07-.35a2.74,2.74,0,0,1-.05-.28,4.78,4.78,0,0,0-.2-.86c-.06-.16-.1-.33-.15-.5a4.68,4.68,0,0,0-.12-.48,3.45,3.45,0,0,0-.14-.42l-.06-.14-.1-.24a1.2,1.2,0,0,0-.16-.32,1.23,1.23,0,0,0-.28-.28.43.43,0,0,0-.22-.06Z"/><path class="cls-3" d="M134.4,105.16l-.56,0-.61,0-.63,0H132l-.43,0a.48.48,0,0,0-.23.13h0a.38.38,0,0,0-.35.18.71.71,0,0,0-.09.43.9.9,0,0,0,.17.44l.15.23.2.32a4.6,4.6,0,0,0,.32.45l.13.16.11.14.11.14.27.33a4.5,4.5,0,0,0,.52.46,6.82,6.82,0,0,0,.67.52l.39.26.31.2.37.26.14.1.22.15a5.88,5.88,0,0,0,.51.35l.13.07.14.08.29.18.59.32.15.08.52.25.46.2.28.11a7.85,7.85,0,0,0,.8.32l.18.06c.19.1.39.21.59.3.47.23,1,.45,1.44.66l1,.44c.43.2.88.39,1.32.57l.21.09q.56.23,1.11.48c.87.4,1.77.77,2.67,1.14s1.85.76,2.73,1.15a23.38,23.38,0,0,0,2.9,1l.34.11a9.6,9.6,0,0,0,1.18.32c.51.1,1,.18,1.55.24.3,0,.6.06.9.06a5.45,5.45,0,0,0,1.78-.29,2.51,2.51,0,0,0,1.79-1.86,2.92,2.92,0,0,0-.26-1.74,7.75,7.75,0,0,0-.62-1.2,8.11,8.11,0,0,0-.83-1l-.15-.16a6.15,6.15,0,0,0-1.23-.94c-.44-.29-.86-.52-1.27-.75a16.16,16.16,0,0,0-2.45-1l-.25-.09c-.59-.21-1.19-.39-1.79-.58l-1.14-.36-1.52-.5-1.53-.48a23.06,23.06,0,0,0-2.56-.71l-2.47-.54-.52-.11c-1.54-.34-3.07-.67-4.6-1a1.88,1.88,0,0,0-.43,0l-.29,0-.15,0-.37-.08a3.45,3.45,0,0,0-.55-.07H134.4Z"/></g></g></svg>