<svg xmlns="http://www.w3.org/2000/svg" width="848.099" height="196.788" viewBox="0 0 848.099 196.788">
  <defs>
    <style>
      .cls-1 {
        fill: #8792b4;
      }

      .cls-2 {
        fill: none;
        stroke: #384173;
        stroke-miterlimit: 10;
        stroke-width: 5px;
      }

      .cls-3 {
        fill: #707da7;
      }

      .cls-4 {
        fill: #c7ccdd;
      }

      .cls-5 {
        fill: #48578e;
        opacity: 0.63;
      }

      .cls-6 {
        fill: #2f345b;
      }

      .cls-7 {
        font-size: 34px;
        font-family: MazzardH-Bold, Mazzard;
        font-weight: 700;
      }

      .cls-12, .cls-7 {
        fill: #e8e8e8;
        opacity: 0.88;
      }

      .cls-8 {
        letter-spacing: -0.006em;
      }

      .cls-9 {
        letter-spacing: -0.03em;
      }

      .cls-10 {
        letter-spacing: -0.013em;
      }

      .cls-11 {
        letter-spacing: -0.027em;
      }

      .cls-12 {
        font-size: 28px;
        font-family: MazzardH-ExtraLight, Mazzard;
        font-weight: 200;
      }

      .cls-13 {
        letter-spacing: -0.002em;
      }

      .cls-14 {
        letter-spacing: -0.028em;
      }

      .cls-15 {
        letter-spacing: -0.008em;
      }

      .cls-16 {
        letter-spacing: -0.016em;
      }

      .cls-17 {
        letter-spacing: -0.016em;
      }
    </style>
  </defs>
  <title>notif</title>
  <g id="Layer_2" data-name="Layer 2">
    <g id="Draw_Layer" data-name="Draw Layer">
      <g>
        <rect class="cls-1" x="2.28" y="2.5" width="843.099" height="160.608" rx="20.542"/>
        <rect class="cls-2" x="2.5" y="2.5" width="843.099" height="160.608" rx="20.542"/>
      </g>
      <g>
        <path class="cls-3" d="M88.686,23.9c-.607.016-1.215,0-1.822-.014H87.1c-.393,0-.786-.007-1.18-.01-.232,0-.464,0-.7,0-.207,0-.414,0-.621,0-.421,0-.843-.006-1.264-.015-.382,0-.764,0-1.146,0-.487,0-.974.01-1.458.018-.541.01-1.081.005-1.62.023-.842.034-1.682.055-2.522.057h0c-.285,0-.571,0-.855-.008-.3.013-.608.028-.91.045-.626.035-1.254.082-1.881.1s-1.241-.013-1.862-.034c-.543-.019-1.088-.026-1.633-.041-.083,0-.166,0-.248-.007s-.177,0-.261-.006c-.19,0-.382-.013-.573-.024-.166-.006-.332-.01-.5-.013-.293.006-.585.01-.878.024-.33.02-.66.071-.99.085q-.922.039-1.848.012c-.573-.016-1.148-.022-1.722-.052L61.683,24l-.316,0c-.88.016-1.758.105-2.638.127-.835.021-1.671-.026-2.5-.042-.99.01-1.98.036-2.97.03-.212,0-.424,0-.635,0-.257.012-.513.025-.77.041-.558.034-1.113.1-1.669.132-1.122.069-2.249.048-3.372.1-.529.021-1.059.043-1.588.047s-1.054,0-1.581-.011q-.7,0-1.4,0c-.4,0-.8,0-1.2-.008h-.4c-.421.007-.843.023-1.264.042a7.5,7.5,0,0,0-1.8.916,3.425,3.425,0,0,0-.814.989c-.059.1-.12.191-.18.287-.137.214-.278.436-.4.665-.031.061-.06.121-.089.183a.719.719,0,0,0-.085.1,1.837,1.837,0,0,0-.372.765,2.231,2.231,0,0,0-.034.268c-.015.154-.028.307-.031.46l-.023.109c-.015.072-.033.146-.05.219a4.451,4.451,0,0,0-.127,1.281,4.342,4.342,0,0,0,.089.681l.021.08c-.009.183-.016.369-.018.555,0,.347-.016.722-.041,1.144-.012.143-.021.257-.029.371q-.038.45-.071.9c-.02.255-.045.511-.068.766-.036.382-.07.764-.1,1.147s-.074.743-.118,1.113c-.025.21-.049.422-.072.634a20.6,20.6,0,0,0-.1,2.13c0,.4.02.8.039,1.189.01.2.02.408.027.613a14.379,14.379,0,0,1-.049,1.609c-.028.338-.067.675-.106,1.011-.049.433-.1.882-.131,1.325-.023.352-.028.71-.031,1.057,0,.3-.007.6-.023.9-.033.672,0,1.355.025,2.015a20.792,20.792,0,0,1,.017,2.1c-.1,1.241-.14,2.2-.128,3.121.006.442.026.9.059,1.348.017.221.04.439.065.658.032.291.065.591.078.889.046,1.01.069,1.843.073,2.62,0,.434.019.866.033,1.3s.029.862.032,1.294v.147c0,.482.005.98.031,1.47.023.456.033.913.043,1.37l0,.142c.011.5,0,1.009-.007,1.5-.009.532-.021,1.083-.005,1.623.025.849.074,1.748.157,2.914.078,1.082.13,2.074.157,3.031q.024.79.029,1.582c0,.358.026.717.046,1.065.01.159.021.317.028.476.031.651.049,1.3.066,1.954.007.3.014.592.023.888.019.628.017,1.267.016,1.883,0,.333,0,.665,0,1,.007.928.064,1.9.18,3.056a21.006,21.006,0,0,1,.066,2.224c0,.274,0,.548,0,.822.007.912.046,1.885.129,3.151.075,1.117.068,2.253.059,3.352-.007.911-.014,1.854.026,2.779.013.277.029.552.045.829A20.128,20.128,0,0,1,36,102.7c-.029.6-.043,1.2-.059,1.8-.012.434-.022.868-.039,1.3-.027.752-.02,1.516-.013,2.255,0,.34.006.679.006,1.018,0,1.111,0,2.046-.042,2.993l-.017.49c-.032.8-.064,1.624-.065,2.437,0,.418.006.834.01,1.252.006.593.013,1.185.006,1.777-.005.4-.015.8-.025,1.206-.014.554-.029,1.107-.027,1.661s0,1.091-.009,1.635c0,.389-.007.779-.009,1.168,0,.442-.018.892-.037,1.326s-.037.866-.039,1.3c0,.309.025.619.049.919.012.154.025.306.033.461s.012.3.015.457a5.969,5.969,0,0,0,.06.884,6.271,6.271,0,0,0,.365,1.235,8.832,8.832,0,0,0,.451,1.011,3.153,3.153,0,0,0,.225.346c.067.095.137.191.2.292a2.53,2.53,0,0,0,.249.358,2.2,2.2,0,0,0,.465.439l.012.009c.1.069.2.138.3.2.036.023.073.043.112.063a1.241,1.241,0,0,0,.437.405,4.24,4.24,0,0,0,1.023.41c.12.028.241.049.363.069l.088.016c.105.018.211.043.314.067s.2.046.3.065.226.036.34.051.212.028.318.047c.034.006.065.012.1.016.1,0,.2,0,.3-.009.455-.015.911,0,1.366.013.415.01.822.046,1.237.035l.49-.033c.286-.023.573-.052.862-.058h.234c.1,0,.209,0,.315,0,.381-.013.771-.034,1.153-.011.456.027.915.02,1.371.011.407-.007.813-.016,1.22,0,.115.006.23,0,.346,0s.219,0,.33,0c.171.006.337.038.507.058.408.052.82.075,1.229.124a5.113,5.113,0,0,0,.689.023c.169,0,.337,0,.506,0q.144,0,.291,0c.3,0,.6.016.892.042s.6.034.9.044c.641.019,1.28.01,1.92.044.542.027,1.086.044,1.628.021l.166-.008c.63-.057,1.257-.147,1.889-.17s1.257-.042,1.887-.048c.324,0,.645,0,.97.019s.622.056.933.076a15.264,15.264,0,0,0,1.711.016q.279-.018.561-.033c1.33-.088,2.657-.052,3.989-.049.364,0,.728-.017,1.091-.016.323,0,.644.019.965.036.63.032,1.257.085,1.888.089.2,0,.4,0,.6,0,.451,0,.9,0,1.353.016.686.027,1.372.047,2.057.089,1.228.073,2.457.11,3.686.146.542.017,1.084.017,1.625.031s1.053.016,1.581-.014c.217-.013.435-.028.651-.039-.025,0-.049,0-.075.006.685-.039,1.368-.055,2.054-.054.637,0,1.272.031,1.909.016.652-.014,1.307-.019,1.959,0,.392.014.785.013,1.179.01.32,0,.641,0,.961,0,1.229.025,2.457.08,3.685.087.607,0,1.212,0,1.819-.028.575-.023,1.151-.035,1.728-.019.622.017,1.245.06,1.867.07.422.006.846,0,1.268-.008a9.961,9.961,0,0,1-.407-1.362,9.565,9.565,0,0,1-.114-.979l-.009-.115c-.01-.108-.019-.217-.032-.327a5.491,5.491,0,0,0-.187-.856,3.906,3.906,0,0,1-.195-.924c-.008-.15-.015-.3-.024-.461s-.014-.308-.025-.463c-.015-.252-.041-.5-.07-.756l-.01-.087c-.009-.062-.018-.125-.025-.187-.049-.388-.083-.778-.121-1.17-.024-.261-.049-.522-.078-.783s-.049-.513-.07-.769l-.009-.11c-.024-.272-.047-.545-.081-.818l-.036-.238-.011-.082c-.058-.377-.115-.766-.151-1.149-.018-.2-.029-.4-.041-.6l0-.069c-.011-.194-.023-.387-.043-.582-.076-.63-.148-1.31-.219-2.081l-.049-.533-.006-.052c-.047-.5-.1-1.009-.118-1.516-.006-.176-.016-.352-.027-.541-.01-.157-.02-.314-.028-.472-.016-.421-.036-.748-.066-1.06l-.068-.725-.016-.181c-.043-.45-.085-.9-.118-1.349-.029-.392-.063-.784-.1-1.176-.028-.306-.043-.613-.059-.919l-.025-.434q-.02-.342-.053-.688c-.014-.158-.027-.317-.04-.475l-.031-.438c-.017-.245-.034-.49-.054-.737-.026-.327-.062-.656-.1-.983l-.025-.219c-.035-.318-.06-.637-.086-.955l-.028-.319c-.014-.183-.027-.366-.04-.547l-.02-.274-.031-.417c-.017-.255-.027-.511-.038-.771l-.006-.154c-.005-.1-.01-.206-.016-.308-.049-.938-.092-1.72-.163-2.514-.037-.456-.085-.915-.131-1.373l-.02-.189q-.049-.46-.1-.922c-.081-.846-.14-1.7-.195-2.5-.04-.625-.1-1.266-.16-1.833l-.052-.527c-.109-1.155-.179-2.335-.245-3.475l0-.071q-.043-.76-.092-1.521l-.036-.552-.021-.407a7.03,7.03,0,0,1-.938.091c-.387.006-.738.012-1.1.035-.083,0-.165.013-.238.015a.094.094,0,0,1-.022,0h.038l-.026,0,.026.006a7.473,7.473,0,0,1-.845.059c-.105,0-.209-.009-.313-.015l-.06,0-.058,0c-.114-.008-.229-.015-.343-.018-.458-.013-.965-.054-1.552-.12-.255-.03-.517-.039-.771-.045-.22,0-.441-.011-.661-.031-.317-.032-.645-.084-.933-.129l-.073-.011-.277-.043c-.375-.042-.768-.062-1.116-.078l-.35-.017c-.2-.012-.4-.018-.6-.018l-.149,0c-.1,0-.2.007-.3.014l-.046,0-.052.005-.07,0c-.083.007-.163.015-.247.019h-.138c-.154,0-.307-.01-.5-.02l-.167-.009c-.1,0-.2-.008-.3-.008a4.448,4.448,0,0,0-.493.024c-.468.045-1.017.094-1.605.1a.905.905,0,0,1-.888-.9.939.939,0,0,1,.317-.69c-.033-1.169-.089-2.108-.179-2.958l-.087-.609-.015-.089-.007-.049c-.082-.566-.169-1.151-.216-1.731-.023-.282-.032-.566-.041-.856l0-.069c-.005-.164-.009-.329-.015-.493-.02-.45-.037-.9-.052-1.35-.011-.333-.017-.665-.023-1l-.006-.373c0-.2-.008-.4-.015-.627-.009-.289-.018-.579-.019-.869,0-.131,0-.261,0-.392l0-.2,0-.3c-.008-.667-.017-1.356.009-2.049.036-.979.073-1.958.122-2.935.045-.89.117-1.828.175-2.595l.011-.151.043-.584.044-.59,0-.047c.11-1.493.223-3.038.422-4.561l.01-.08.013-.09c.072-.524.155-1.044.237-1.563l.021-.142.081-.505c.121-.769.245-1.536.38-2.3l.134-.763.016-.085c.212-1.208.453-2.574.774-3.869l.113-.455c.085-.336.17-.673.24-1.012.107-.494.206-.99.3-1.483.134-.678.284-1.348.451-2.092l.179-.794c.208-.941.415-1.881.636-2.819l.15-.637.024-.1c.157-.667.32-1.356.458-2.045a25.783,25.783,0,0,1,.658-2.669c.2-.633.367-1.275.557-1.99l.154-.579a19.235,19.235,0,0,1,.728-2.07l.182-.463c.344-.89.768-1.787,1.141-2.576l.1-.212.056-.149c.064-.17.129-.34.2-.507a6.631,6.631,0,0,0,.274-.824c.084-.329.192-.659.287-.951.024-.077.047-.156.072-.235l.027-.091.012-.038.014-.049c.038-.128.077-.253.12-.379s.095-.263.148-.393l.059-.154a1.546,1.546,0,0,1,.136-.3,3.068,3.068,0,0,1,.271-.366l.043-.054c.027-.033.055-.069.082-.1a2.048,2.048,0,0,1,.2-.229c.082-.076.173-.153.266-.225l-.425-.01c-.5,0-.991.016-1.486.024a1.035,1.035,0,0,1-.112.009,1.589,1.589,0,0,1-.169,0c-.147,0-.3.029-.444.024a1.837,1.837,0,0,1-.256-.027q-.4,0-.794-.014a2.318,2.318,0,0,1-.877-.026c-.308-.009-.616-.017-.923-.021-.633.008-1.266.058-1.9.072Z"/>
        <path class="cls-3" d="M66.6,134.332l.1-.006-.1.006Z"/>
        <path class="cls-3" d="M153.3,133.549l-.041.031c-.038.031-.077.062-.113.1-.059.051-.121.1-.208.167a1.987,1.987,0,0,0-.18.15,5.269,5.269,0,0,1-.811.616q-.14.084-.3.165l.109-.039a3.025,3.025,0,0,0,1.1-.6,3.106,3.106,0,0,0,.377-.486l.072-.1-.008.006Z"/>
        <path class="cls-4" d="M131.912,23.178c-.444.032-.887.031-1.331.019-.374.009-.742.059-1.114.1-.438.053-.876.076-1.314.114-.47.04-.942.076-1.412.086s-.962,0-1.441,0c-.645,0-1.289.03-1.933.022h.1c-.8,0-1.6-.038-2.4-.058h-.261c-.379,0-.761.02-1.138-.009-.287-.021-.572-.046-.858-.064-.507-.032-1.01-.055-1.516-.064-.566.009-1.13.077-1.694.11-.3.018-.612.041-.917.043s-.584,0-.875-.007c-.661.008-1.32.043-1.979.1-.677.057-1.361.059-2.042.053-.56.007-1.116.027-1.674.086-.617.067-1.234.107-1.855.117-.388.006-.777.022-1.163,0-.28-.014-.561-.026-.84-.029-.545,0-1.088-.04-1.632-.052-.387.008-.773.035-1.157.068-.434.036-.864.045-1.3.04h.24c-.444,0-.887-.01-1.331-.017-.625.012-1.248.094-1.875.069-.377-.014-.755-.03-1.132-.041a2.954,2.954,0,0,0-.267.224,2.083,2.083,0,0,0-.2.23c-.026.036-.053.072-.081.105l-.043.053a2.9,2.9,0,0,0-.272.366,1.607,1.607,0,0,0-.136.3l-.059.154c-.053.13-.1.261-.148.394s-.082.251-.12.379l-.014.049-.012.037-.027.091c-.023.079-.048.159-.072.235-.095.291-.2.623-.287.951a6.184,6.184,0,0,1-.274.825c-.07.167-.135.337-.2.507l-.056.148-.1.212c-.373.79-.8,1.685-1.141,2.577l-.182.462a19.991,19.991,0,0,0-.728,2.07l-.154.579c-.189.715-.362,1.358-.558,1.991a25.867,25.867,0,0,0-.655,2.669c-.139.687-.3,1.377-.46,2.045l-.024.1-.15.637c-.221.938-.428,1.878-.636,2.819l-.179.794c-.167.744-.315,1.414-.449,2.091-.1.5-.2.99-.3,1.485-.072.338-.157.676-.242,1.011l-.113.456c-.32,1.293-.56,2.66-.772,3.866l-.016.085-.134.764c-.136.767-.26,1.534-.381,2.3l-.08.505-.022.142c-.082.519-.164,1.039-.236,1.563l-.013.09-.01.081c-.2,1.522-.313,3.067-.424,4.561l0,.048-.043.589-.043.584-.012.151c-.059.767-.13,1.7-.174,2.6-.049.977-.087,1.955-.123,2.934-.026.693-.017,1.382-.008,2.049l0,.3v.2c0,.131,0,.263,0,.394,0,.289.01.578.019.869.006.223.011.425.016.627l.006.373c.005.333.011.664.023,1q.021.676.051,1.35c.006.165.011.329.015.493l0,.07c.007.289.016.573.04.856.048.579.133,1.164.216,1.73l.007.049.015.09.088.608c.088.85.145,1.79.178,2.959a.933.933,0,0,0-.317.69.905.905,0,0,0,.888.9c.588-.006,1.137-.054,1.606-.1a4.664,4.664,0,0,1,.493-.024c.1,0,.194,0,.3.008l.167.009c.2.012.347.02.5.02H89.7c.083,0,.163-.01.245-.017l.072-.006.052-.005.045,0c.1-.008.2-.016.3-.016l.148,0c.2,0,.4.006.6.018l.35.017c.349.017.743.036,1.116.078l.277.043.074.013c.289.045.614.1.931.127.221.02.441.026.662.031.254.008.516.015.771.045.588.068,1.1.107,1.552.12.114,0,.229.01.343.018l.058,0,.062,0c.1,0,.207.013.312.013a7.263,7.263,0,0,0,.845-.059l-.038-.008H98.5l.237-.016c.359-.023.709-.029,1.1-.036a6.591,6.591,0,0,0,.938-.091l.02.408.036.552q.049.761.092,1.522l0,.07c.066,1.14.135,2.321.245,3.475l.051.528c.057.566.119,1.207.16,1.833.054.8.113,1.651.195,2.5.03.309.062.616.095.923l.019.188c.047.459.095.917.132,1.374.07.794.113,1.575.163,2.513.006.1.01.2.015.309l.007.154c.01.259.02.516.039.771l.03.416.02.273c.013.183.026.366.041.549l.027.318c.026.319.052.637.086.956l.025.219c.036.327.072.655.1.983.02.246.037.491.055.736l.03.438c.013.159.026.317.04.476.02.23.041.458.054.687l.024.434c.016.307.032.614.059.919.036.392.071.784.1,1.176.033.451.075.9.116,1.349l.018.182.067.725c.029.311.049.638.067,1.059.007.159.017.314.026.473.013.188.023.364.028.54.019.507.07,1.02.119,1.516l0,.052.05.533c.07.771.142,1.452.219,2.081.019.195.031.388.042.583l0,.069c.011.2.023.4.04.6.035.384.094.771.15,1.148l.013.083.036.238c.032.274.056.546.079.818l.01.11c.022.257.045.513.071.77s.053.521.078.782c.036.392.072.781.121,1.17.007.062.015.126.024.188l.01.086c.029.252.055.5.071.757.01.154.017.308.024.462s.015.312.025.462a3.746,3.746,0,0,0,.193.923,5.62,5.62,0,0,1,.189.856c.011.108.021.218.03.328l.01.115a6.952,6.952,0,0,0,.519,2.339l.585-.012c.558-.01,1.117,0,1.675-.021s1.089-.051,1.634-.054c.585,0,1.169-.023,1.752-.01s1.15.013,1.724.016c1.2.009,2.4.022,3.6,0,.572-.007,1.142-.027,1.715-.028.644,0,1.288.024,1.932.036,1.157.02,2.313.014,3.47.013.574,0,1.148-.008,1.721-.013.512,0,1.023.03,1.534.033,1.275.007,2.553.07,3.827.023.57-.022,1.137-.042,1.708-.012.6.032,1.2.074,1.8.091.626.017,1.255.029,1.883.038s1.238.036,1.858.054,1.22,0,1.83-.014c.517-.014,1.035-.03,1.552-.023.572.009,1.143.042,1.715.07.594.032,1.189.054,1.783.08.647.027,1.293.089,1.94.127.583.034,1.164.093,1.746.126s1.153.1,1.733.091l.5-.01.1-.032a7.139,7.139,0,0,0,1.451-.628,5.179,5.179,0,0,0,.81-.617c.056-.053.118-.1.18-.15.088-.067.149-.115.208-.167.036-.033.075-.065.114-.095l.04-.032a2.4,2.4,0,0,0,.205-.173,2.543,2.543,0,0,0,.189-.209c.083-.093.131-.148.183-.2a3.534,3.534,0,0,0,.709-.933l.076-.153.02-.039c.069-.141.139-.281.214-.419a8.382,8.382,0,0,0,.5-1.079,3.651,3.651,0,0,0,.116-.368c.043-.161.069-.262.1-.359s.066-.2.1-.3c.069-.194.137-.389.193-.588.066-.245.124-.494.181-.743l.035-.152c0-.335.017-.668.027-1,.015-.416.107-.827.133-1.244,0-.086.01-.172.014-.258-.014-.115-.029-.226-.044-.333-.012-.139-.019-.281-.026-.422l-.015-.262c-.007-.117-.018-.234-.03-.35-.016-.166-.032-.332-.036-.5a4.531,4.531,0,0,1,.026-.553l.007-.094.007-.091.008-.091c.011-.229.013-.456.013-.686v-.125c0-.487-.035-.979-.068-1.412l0-.041a12.875,12.875,0,0,1-.047-2.016v-.008c-.019-.269-.035-.538-.034-.812,0,.079,0,.157,0,.237-.006-.307,0-.612.017-.917.018-.255.038-.509.044-.764s0-.536.013-.8.031-.54.037-.811c0,.079,0,.157,0,.236,0-.415,0-.823.039-1.236.024-.32.074-.636.11-.956a18.46,18.46,0,0,0,.08-2.037q-.011-.488-.015-.973v.091c-.007-.44-.02-.878-.017-1.316,0-.322.027-.643.026-.963,0-.545.02-1.089.027-1.633,0,.045,0,.091,0,.137q0-.573,0-1.145c0,.077,0,.157,0,.234,0-.237,0-.477-.006-.716v.041c0-.11,0-.22,0-.33,0-.131,0-.262,0-.394h0v-.04c-.008-.512-.037-1.023-.034-1.534s.017-1.043.027-1.563a12.138,12.138,0,0,1,.115-1.583c.07-.465.142-.931.186-1.4s.093-.921.12-1.382c.03-.516.037-1.036.049-1.552.023-1.072.069-2.145.073-3.217-.011-.571-.037-1.143,0-1.713.027-.457.058-.911.1-1.367.1-1.138.12-2.282.215-3.421.049-.563.114-1.125.157-1.689.049-.627.046-1.255.073-1.884.028-.6.075-1.2.116-1.8.039-.579.111-1.156.148-1.735.076-1.176.1-2.354.153-3.531.024-.581.079-1.16.111-1.742s.055-1.161.063-1.741c-.011-.493-.049-.983-.082-1.475-.04-.579-.071-1.157-.079-1.738V67.3c0-.412,0-.823,0-1.235s-.011-.831.006-1.246c.029-.725.128-1.446.147-2.172-.014-.474-.063-.947-.1-1.418-.044-.542-.047-1.085-.047-1.627,0-.042,0-.082,0-.124a4.684,4.684,0,0,1,0-.649c.008-.689.011-1.377.02-2.066,0-.034,0-.067,0-.1v-.333c-.01-.485-.023-.972-.043-1.458s-.088-.937-.145-1.407c-.057-.448-.124-.9-.155-1.352-.03-.472-.041-.943-.034-1.416.007-.45.023-.9.043-1.346.02-.467.029-.936.066-1.4.071-.9.136-1.806.142-2.711-.013-.622-.019-1.242,0-1.865.012-.511.028-1.023.031-1.534-.009-.321-.033-.638-.065-.955h0l-.02-.072c-.032-.117-.062-.233-.084-.35a2.448,2.448,0,0,1-.016-.342l.027-.163c-.02-.261-.035-.522-.043-.785-.017-.556-.02-1.111-.052-1.667-.024-.433-.085-.862-.108-1.3-.026-.506-.039-1.012-.055-1.519-.008-.24-.022-.479-.038-.718a3.445,3.445,0,0,0-.124-.462c-.038-.1-.074-.2-.1-.3,0-.093.009-.191.014-.287.009-.146.018-.293.013-.438,0-.077,0-.152,0-.225s.006-.144,0-.215a6.194,6.194,0,0,0-.119-.941c-.058-.3-.127-.6-.213-.953a7.071,7.071,0,0,0-.332-.958c-.056-.144-.112-.287-.173-.429l0,.028-.024-.059c-.041-.109-.088-.216-.139-.32-.043-.087-.092-.17-.142-.252l-.074-.124-.063-.125c-.031-.062-.061-.124-.1-.185-.078-.121-.16-.239-.245-.356l-.14-.223-.052-.083c-.085-.136-.169-.264-.257-.391l-.03-.033-.021-.035c-.068-.111-.143-.23-.205-.351a4.091,4.091,0,0,0-.515-.717l-.125-.15a5.588,5.588,0,0,0-.716-.709c-.117-.1-.238-.191-.365-.286-.163-.031-.327-.051-.488-.094-.195-.05-.384-.115-.574-.176-.305-.068-.608-.138-.908-.229a3.966,3.966,0,0,0-.657-.085c-.143-.006-.287-.007-.428-.027-.12-.018-.236-.042-.356-.057-.291-.034-.582-.082-.873-.113a6.457,6.457,0,0,1-.993-.194c.021.008.044.013.066.019a7.224,7.224,0,0,0-.863-.132c-.212-.025-.42-.065-.632-.077l-.249.007c-.174.022-.347.045-.522.065a8.98,8.98,0,0,1-1.194.041h-.012c-.053,0-.106,0-.16,0,.036,0,.072,0,.11,0h-.149c-.311.008-.621.017-.931.053s-.618.071-.926.088c-.352.019-.7,0-1.055-.007-.322-.006-.643-.016-.964-.028s-.662-.04-.995-.072-.651-.034-.978-.043c-.4-.01-.806-.025-1.205-.075-.161-.02-.321-.042-.481-.059l-.317-.01c-.088,0-.173-.01-.26-.016-.549.027-1.095.1-1.644.078-.446-.015-.874-.127-1.317-.149-.431.016-.859.054-1.287.085Z"/>
        <path class="cls-4" d="M157.924,67.3v0Z"/>
        <path class="cls-4" d="M157.925,67.323v0Z"/>
        <path class="cls-4" d="M156.117,116.323c0-.061,0-.123,0-.183,0,.06,0,.121,0,.183Z"/>
        <path class="cls-4" d="M120.65,23.467h0Z"/>
        <path class="cls-4" d="M117.113,136.405q-.4.006-.8.017h.021c.256.038.511.072.767.1s.509.052.732.058h.139a5.186,5.186,0,0,0,.847-.073,1.222,1.222,0,0,0,.244-.078l.034-.014-.179,0c-.469,0-.938-.014-1.407-.014-.133,0-.267,0-.4,0Z"/>
        <path class="cls-4" d="M97.2,23.913c-.519-.019-1.039-.044-1.558-.052-.49,0-.98.015-1.47.023a2.03,2.03,0,0,0-.252.761c-.022.134-.059.268-.09.4a2.7,2.7,0,0,0-.046.459c-.062.351-.179.7-.266,1.041-.11.431-.276.859-.428,1.277.025-.073.053-.145.079-.217-.133.351-.273.7-.408,1.053a13.008,13.008,0,0,0-.405,1.26c-.215.771-.489,1.525-.686,2.3-.187.735-.434,1.458-.679,2.176-.111.329-.213.66-.305,1-.107.388-.186.78-.3,1.164-.29.94-.453,1.916-.784,2.841l.073-.2c-.144.39-.282.784-.411,1.182-.121.382-.2.775-.292,1.164-.084.355-.17.709-.255,1.065s-.15.735-.225,1.1c-.151.727-.375,1.438-.555,2.158-.091.361-.2.715-.287,1.076-.1.415-.181.833-.285,1.245-.386,1.527-.677,3.074-1.026,4.608-.087.377-.16.753-.231,1.13s-.111.768-.183,1.149c-.138.734-.258,1.468-.426,2.2-.14.6-.257,1.208-.343,1.82-.1.692-.231,1.378-.294,2.074l.021-.23c-.016.168-.033.337-.049.506,0-.019,0-.038.007-.055,0,.018,0,.037-.005.056-.042.412-.081.827-.114,1.244-.025.34-.038.683-.064,1.024s-.095.708-.142,1.062c-.059.446-.085.9-.118,1.345-.055.738-.113,1.471-.106,2.214.006.768.023,1.537-.013,2.306-.037.8-.135,1.593-.131,2.393,0,.379.007.758-.005,1.137a9.691,9.691,0,0,0,.05,1.217c.066.753.134,1.507.19,2.261.052.7.061,1.4.069,2.1.005.38.029.759.031,1.138s.01.771.031,1.158c.019.335.01.673.029,1.008.015.27.038.538.059.807.019.247.052.492.072.738.012.14.012.281.023.423.015.184.055.366.087.55.013.077.026.153.04.231a1.729,1.729,0,0,0,.164.426,3.505,3.505,0,0,0,.2.3c.054.089.093.184.151.269a1.177,1.177,0,0,0,.416.4,1.061,1.061,0,0,0,.43.107,1.168,1.168,0,0,0,.222.025,1.723,1.723,0,0,0,.3-.045.837.837,0,0,0,.374-.209.339.339,0,0,0,.028-.02l.1-.029a1.35,1.35,0,0,0,.411-.2,7.086,7.086,0,0,1,.769-.434.564.564,0,0,0,.176-.775.571.571,0,0,0-.774-.176c-.23.123-.459.248-.694.363l-.012,0-.053,0c-.072-.008-.144-.016-.216-.017a.564.564,0,0,0-.092,0l-.041-.024c-.019-.023-.037-.046-.057-.068a1.9,1.9,0,0,1-.149-.238l-.007-.023c-.01-.091-.023-.181-.036-.271l0,0v0l-.013-.088c-.03-.209-.055-.421-.072-.631-.016-.23-.051-.456-.051-.685,0-.562,0-1.124,0-1.686,0-.172-.01-.345-.013-.518,0-.207.009-.416.007-.625,0-.38-.026-.759-.034-1.14-.019-.7-.064-1.407-.116-2.11-.031-.447-.091-.892-.138-1.337-.051-.464-.085-.933-.111-1.4-.027-.5.009-1,.017-1.5.007-.416,0-.831.028-1.246l.017-.166c.065-.628.121-1.255.16-1.885.034-.562.075-1.121.073-1.685,0-.52-.01-1.043.018-1.562s.063-1.053.109-1.581c.071-.6.156-1.2.193-1.8.035-.557.062-1.113.108-1.669-.007.078-.014.155-.023.232.045-.441.064-.884.1-1.325l.013-.139c.079-.794.2-1.586.349-2.37.142-.752.257-1.507.383-2.262.121-.74.217-1.486.357-2.222.072-.379.169-.753.241-1.133.075-.4.153-.807.238-1.209.079-.384.151-.767.239-1.149s.176-.746.264-1.12c.093-.4.191-.8.278-1.194s.166-.773.266-1.156c.2-.737.413-1.469.6-2.208.087-.352.146-.711.226-1.064s.186-.722.283-1.083c.174-.659.337-1.322.556-1.968s.438-1.279.623-1.932c.19-.676.408-1.345.614-2.016.1-.322.183-.647.282-.969s.21-.638.323-.955c-.027.072-.053.144-.081.216.169-.455.314-.92.463-1.381.132-.408.238-.823.367-1.23.271-.858.493-1.731.789-2.58l-.018.046c.166-.45.325-.9.482-1.35-.028.072-.054.144-.081.217.2-.539.386-1.082.578-1.622.073-.2.144-.41.207-.617.054-.176.091-.355.143-.531.042-.106.084-.213.123-.321.023-.065.04-.131.059-.2s.053-.111.083-.164a2.7,2.7,0,0,1,.228-.156c.052,0,.1-.007.157-.013l0,0,0,0h.005c.057-.006.117-.013.177-.024.118-.016.236-.031.355-.054a1.7,1.7,0,0,0,.367-.158,1.99,1.99,0,0,1,.2-.054,3.015,3.015,0,0,0,.588-.116,3.343,3.343,0,0,1,.5-.14,1.133,1.133,0,0,1,.2,0,2.278,2.278,0,0,0,.439-.026h0l0,0,.089-.013c.125-.02.251-.04.375-.063l.345-.056a.788.788,0,0,0,.446-.342h-.013c-.444,0-.887-.01-1.329-.018-.627.012-1.248.094-1.876.07Z"/>
        <path class="cls-5" d="M94.4,23.63l-.056,0,.056,0Z"/>
        <path class="cls-5" d="M94.42,23.631h0Z"/>
        <path class="cls-5" d="M94.81,23.811c-.153.022-.305.022-.455.036a1.919,1.919,0,0,1-.307.048c-.058,0-.114,0-.169,0-.148,0-.3.028-.444.026a2.728,2.728,0,0,1-.393-.052l-.033.125a6.449,6.449,0,0,0-.3.9c-.069.281-.1.571-.186.849A9.367,9.367,0,0,0,92,27.467a10.4,10.4,0,0,1-.352,1.235c-.062.189-.1.384-.157.572-.067.225-.128.451-.187.681-.094.366-.16.736-.252,1.1-.107.428-.2.861-.286,1.294-.09.449-.224.886-.344,1.328-.105.385-.218.767-.347,1.145-.173.449-.368.892-.541,1.341-.209.545-.393,1.1-.57,1.653-.312.976-.6,1.957-.943,2.923-.183.52-.369,1.041-.548,1.564-.161.478-.324.958-.446,1.448s-.247.974-.333,1.467c-.038.213-.068.428-.1.641a4.39,4.39,0,0,1-.216.813,13.507,13.507,0,0,0-.417,1.369c-.057.24-.076.489-.112.732s-.085.5-.133.751c-.194,1.032-.346,2.071-.516,3.106-.158.966-.439,1.907-.6,2.872-.073.446-.127.891-.189,1.336-.07.513-.145,1.026-.216,1.539-.062.464-.138.928-.2,1.394-.062.5-.115.991-.16,1.49l.021-.238c-.095.957-.23,1.91-.319,2.868-.091.974-.325,1.928-.49,2.891-.078.447-.123.9-.169,1.355-.062.6-.065,1.2-.085,1.8-.016.515-.017,1.028-.042,1.542a7.515,7.515,0,0,0,0,.78c.017.28.055.559.085.839a10.188,10.188,0,0,1,.017,1.543c-.011.28-.02.56-.013.841s.033.564.048.848c.02.4.031.8.013,1.2-.01.247,0,.5.008.744.006.193,0,.383-.013.575-.041.418-.079.834-.08,1.257a13.5,13.5,0,0,0,.088,1.435A11.3,11.3,0,0,0,83.125,83c.089.379.2.75.27,1.131l0-.014c.084.476.189.947.3,1.415.092.39.219.769.3,1.159.026.172.055.34.088.51a2.521,2.521,0,0,0,.239.627c.066.137.136.273.211.405a2.669,2.669,0,0,0,.309.412c.068.09.134.179.2.265a.664.664,0,0,0,.281.192.751.751,0,0,0,.267.092c.044.008.089.012.134.016l0,0v0a1.292,1.292,0,0,0,.432.081.891.891,0,0,0,.256-.043c.123.031.243.07.366.092.142.024.284.032.424.059a2.088,2.088,0,0,0,.63.04c.151-.018.3-.039.451-.062-.022.005-.045.008-.068.012a.773.773,0,0,1,.095-.007l.078.01c.113.013.225.021.337.03a1.617,1.617,0,0,0,.358-.046c.069-.013.14-.027.207-.045s.113-.039.168-.059h.017a1.855,1.855,0,0,0,.47.016c.108-.016.214-.035.321-.055.035,0,.069,0,.1,0,.068.01.135.023.2.033.153.025.294.088.447.114.132.023.256.058.386.085a1.9,1.9,0,0,0,.808-.035,3.613,3.613,0,0,1,.55-.027,2.114,2.114,0,0,0,.265.009c.073,0,.144-.016.217-.022.054.01.107.023.16.038a2.637,2.637,0,0,0,.531.069,3.046,3.046,0,0,0,.405,0c.1,0,.2-.01.3-.01.248,0,.489.019.737,0a5.67,5.67,0,0,0,.88-.189c.182-.014.364-.01.545-.03a2.526,2.526,0,0,0,.52-.1c.068-.023.134-.049.2-.069.082,0,.164-.006.246-.008.111,0,.222-.017.333-.021.11.02.216.046.324.066a2.829,2.829,0,0,0,.5.04,1.556,1.556,0,0,0,.293-.037c.124-.01.246-.007.372-.01.053,0,.108-.007.162-.013.021.177.045.353.077.532l-.035-.2c.048.32.061.641.088.963a9.032,9.032,0,0,1,0,1.386c-.03.477.013.957,0,1.434-.011.552-.033,1.1-.043,1.656a13.751,13.751,0,0,0,.024,1.533c.048.51.081,1.02.12,1.531.037.484.049.971.082,1.457.033.514.056,1.026.052,1.542,0,.454,0,.905.03,1.359.015.246.036.494.055.74s.022.516.04.773c.039.579.116,1.156.16,1.734.042.56.111,1.116.157,1.676.042.506.071,1.01.123,1.514s.147,1,.19,1.509c.04.483.084.96.15,1.44a11.223,11.223,0,0,1,.1,1.27c0,.188.01.376.019.564a5.282,5.282,0,0,0,.1.741c.071.369.153.735.22,1.1a11.841,11.841,0,0,1,.1,1.459,8.995,8.995,0,0,0,.108,1.321c.036.218.071.435.088.656a6.994,6.994,0,0,1-.016.938,7.3,7.3,0,0,0,.058,1.522,6.592,6.592,0,0,1,.079.827c.008.288-.015.577,0,.863.036.561.08,1.123.152,1.679.134,1.034.282,2.065.454,3.093.1.6.161,1.2.257,1.793l0-.025q.013.072.024.147l0,0h0v.007c.046.261.094.521.141.782a14.7,14.7,0,0,0,.358,2c.083.269.187.536.289.8.121.3.281.59.42.887.091.21.18.422.265.635a.449.449,0,0,0,.55.294.444.444,0,0,0,.294-.552c-.1-.245-.2-.488-.3-.733a3.41,3.41,0,0,1-.188-.548c-.06-.587-.113-1.176-.154-1.764-.023-.334-.039-.667-.073-1-.039-.372-.108-.741-.16-1.111s-.09-.714-.124-1.071-.095-.725-.15-1.087c-.124-.808-.244-1.617-.382-2.422.012.062.022.125.033.188-.1-.658-.151-1.32-.223-1.981-.038-.333-.028-.666-.043-1a8.673,8.673,0,0,0-.156-1.1,7.783,7.783,0,0,1-.062-1.472,5.9,5.9,0,0,0-.026-.83c-.023-.222-.058-.444-.085-.666-.112-.946-.017-1.906-.144-2.85-.066-.5-.162-.993-.186-1.5-.022-.441.006-.882-.027-1.321s-.094-.852-.114-1.28c-.028-.555-.028-1.11-.069-1.664-.032-.429-.058-.857-.093-1.285-.047-.575-.063-1.151-.115-1.725s-.089-1.122-.138-1.681c-.025-.284-.061-.567-.085-.851-.022-.256-.032-.514-.044-.772-.023-.486-.066-.969-.082-1.456s0-.962-.03-1.444c-.027-.507-.061-1.014-.082-1.523-.009-.226-.02-.451-.036-.676-.019-.274-.056-.545-.067-.82-.018-.512-.057-1.022-.072-1.532-.017-.533-.008-1.066-.024-1.6-.014-.517-.012-1.034-.038-1.552-.023-.464-.027-.932-.067-1.4-.018-.211-.051-.42-.069-.63-.015-.169-.018-.337-.024-.5-.011-.3-.014-.6-.041-.891a2.444,2.444,0,0,0-.322-1.049,1.584,1.584,0,0,0-.6-.565,1.716,1.716,0,0,0-.784-.137c-.131,0-.264.009-.395.01-.157,0-.31.033-.467.038-.1-.019-.206-.042-.31-.057a2.648,2.648,0,0,0-.647-.02,2.855,2.855,0,0,1-.37,0,1.989,1.989,0,0,0-.408.024c-.294.049-.59.04-.885.068a7.125,7.125,0,0,0-.9.193c-.256.027-.516.023-.774.043-.224.017-.454.055-.681.052a2.609,2.609,0,0,0-.659-.058c-.068.006-.134.019-.2.028a1.914,1.914,0,0,1-.273,0,4.632,4.632,0,0,0-.884.1H91.8c-.043-.01-.086-.022-.128-.035a1.725,1.725,0,0,0-.255-.045,1.628,1.628,0,0,1-.235-.054,1.723,1.723,0,0,0-.406-.051,3.887,3.887,0,0,0-.4-.032,2.4,2.4,0,0,0-.486.058c-.046,0-.092.007-.138.007a2.236,2.236,0,0,0-.541-.03,4.651,4.651,0,0,0-.461.1c-.026,0-.05,0-.076,0a2.226,2.226,0,0,0-.57-.034,2.755,2.755,0,0,1-.317.018c-.026-.006-.05-.015-.076-.022a1.385,1.385,0,0,0-.35-.058l-.1-.008a3.392,3.392,0,0,1-.425-.082,1.4,1.4,0,0,0-.76,0,.15.15,0,0,0-.02-.023,3.277,3.277,0,0,1-.228-.383,2.517,2.517,0,0,1-.086-.342c-.017-.115-.036-.229-.055-.343,0,.03.01.061.015.091l-.021-.123.006.032-.006-.032,0-.013v0l0-.018v0c-.128-.727-.331-1.438-.469-2.164-.013-.071-.024-.142-.036-.213v.006c-.045-.264-.1-.524-.163-.784-.075-.3-.143-.6-.2-.908-.075-.476-.145-.95-.2-1.43a9.868,9.868,0,0,1-.039-1.418c.008-.206.016-.411.016-.617,0-.235-.021-.468-.026-.7-.009-.4,0-.8,0-1.206,0-.515-.024-1.027-.021-1.54,0-.534.044-1.069.04-1.6s-.026-1.041-.014-1.564c.013-.539.047-1.076.054-1.617.006-.49.048-.977.077-1.465.026-.46.065-.92.1-1.378l.039-.444c.058-.488.153-.973.228-1.458.034-.224.076-.446.105-.669.03-.238.052-.477.072-.715.094-.9.275-1.794.4-2.693.069-.5.15-1,.235-1.5.092-.532.212-1.058.3-1.588.158-.941.271-1.888.442-2.825.173-.954.421-1.9.559-2.858.075-.516.166-1.029.245-1.543q.12-.794.257-1.582c.039-.224.069-.45.1-.675.042-.29.1-.572.167-.856.108-.441.241-.876.342-1.317.112-.486.154-.986.264-1.473s.235-1,.371-1.5c.129-.461.235-.928.371-1.387.16-.547.346-1.084.5-1.632.142-.493.264-.985.382-1.483s.3-.972.448-1.457c.157-.506.294-1.017.473-1.516s.351-.993.511-1.494c.167-.531.314-1.074.448-1.613s.274-1.081.4-1.623c.111-.471.218-.942.337-1.411.068-.266.143-.533.2-.8s.131-.52.209-.779c.112-.382.2-.771.326-1.148.086-.252.158-.508.243-.761.049-.118.105-.232.163-.345a4.715,4.715,0,0,0,.221-.555c.07-.19.131-.382.2-.575a4.242,4.242,0,0,1,.222-.461,4.743,4.743,0,0,0,.3-.746c.046-.112.095-.223.146-.333l-.2.028ZM85.67,86.22v0Zm3.093,1.316h0Zm-.151.027-.074.013.074-.013Zm11.163,1.551h0l0,.014,0-.014Zm-13.3.119h0l.01,0-.011,0Zm1.835.143,0,0,0,0Z"/>
        <polygon class="cls-5" points="85.162 83.825 85.16 83.818 85.162 83.825 85.162 83.825 85.162 83.825"/>
        <polygon class="cls-5" points="83.396 84.139 83.395 84.134 83.396 84.139 83.396 84.139 83.396 84.139"/>
        <path class="cls-5" d="M85.666,86.2c0-.02-.007-.039-.01-.058,0,.019.007.038.01.058Z"/>
        <path class="cls-5" d="M102.757,129.5l-.005-.027.005.027Z"/>
        <polygon class="cls-5" points="102.784 129.653 102.783 129.648 102.783 129.648 102.784 129.653 102.784 129.653 102.784 129.653"/>
        <polygon class="cls-5" points="102.784 129.655 102.784 129.653 102.784 129.655 102.784 129.655 102.784 129.655"/>
        <polygon class="cls-5" points="102.784 129.656 102.784 129.655 102.784 129.655 102.784 129.656 102.784 129.656 102.784 129.656"/>
        <path class="cls-6" d="M69.28,50.591a4.9,4.9,0,0,0-.762.09,3.4,3.4,0,0,0-.553.222,2.529,2.529,0,0,0-.325.119,2.381,2.381,0,0,0-.406.265,1.834,1.834,0,0,0-.568.648c-.03.059-.059.119-.087.179a.757.757,0,0,0-.3.57c-.006.121-.01.243-.015.365-.046.225-.079.453-.1.68l0,.032a2.366,2.366,0,0,0-.106.528c-.064.324-.136.647-.19.975-.037.229.011.462-.016.69a2.946,2.946,0,0,0-.037.549c.01.288.023.571.05.859-.008-.095-.017-.19-.024-.287.01.264.053.518.086.777,0-.06-.009-.12-.014-.179.012.14.03.279.046.418,0,.081,0,.162,0,.244a3.829,3.829,0,0,0,.029.477,2.206,2.206,0,0,1,0,.325,3,3,0,0,0,.038.6c.007.13.011.26.013.391,0,.2.02.391.039.587.021.326.017.654.04.98l-.009-.1c0,.056.008.11.013.163l.009.093-.006-.063a3.2,3.2,0,0,0,.085.475c.049.183.107.365.157.548.065.239.139.473.224.706a1.714,1.714,0,0,0,.209.393l-.031-.044c.074.106.1.236.179.346a4.638,4.638,0,0,0,.313.421,2.068,2.068,0,0,0,.722.527l-.088-.039a3.6,3.6,0,0,0,.6.248,2.233,2.233,0,0,0,.607.065,2.777,2.777,0,0,0,.554-.056c.078-.019.157-.03.237-.042a1.974,1.974,0,0,0,.217-.025,2.043,2.043,0,0,0,.368-.124,2.088,2.088,0,0,0,.49-.242,2.554,2.554,0,0,0,.819-.766,5.081,5.081,0,0,0,.546-1.754c.036-.225.048-.453.069-.679s.039-.43.048-.65.03-.467.049-.7c.01-.133.037-.264.048-.4s0-.29.01-.436c.015-.4.05-.792.054-1.191,0-.232.015-.463.023-.7a5.9,5.9,0,0,0-.021-.8l.021.244c-.017-.254-.017-.508-.013-.763a5.785,5.785,0,0,0-.054-.72c-.01-.207-.01-.414-.009-.621,0-.288-.024-.573-.049-.86,0-.058-.009-.116-.014-.174a7.53,7.53,0,0,0-.253-1.52,1.726,1.726,0,0,0-.227-.526,6,6,0,0,0-.358-.492c-.065-.075-.132-.148-.2-.222a1.67,1.67,0,0,0-.614-.393l-.113-.051a2.614,2.614,0,0,0-.354-.151,1.741,1.741,0,0,0-.494-.065H69.78c-.166,0-.333.012-.5.024Zm-3.246,3.78-.008.05.008-.05Z"/>
        <path class="cls-6" d="M120.82,50.365a6.961,6.961,0,0,0-.633.383,3.345,3.345,0,0,0-.527.365,3.565,3.565,0,0,0-.435.485,2.909,2.909,0,0,0-.431.9,4.928,4.928,0,0,0-.169.685,5.332,5.332,0,0,0-.078,1.76c.038.669.162,1.326.232,1.992.031.448.066.9.117,1.342.021.184.054.367.085.549.009.182.023.364.04.546.026.344.036.689.032,1.033a9.514,9.514,0,0,0,.052,1.082c.024.324.036.648.072.971a3.242,3.242,0,0,0,.29.941,3.5,3.5,0,0,0,.542.828,2.247,2.247,0,0,0,.8.578l-.015-.006a3.65,3.65,0,0,0,.813.3c.151.03.312.056.469.072a2.444,2.444,0,0,0,.475-.016,3.15,3.15,0,0,0,.752-.218,2.75,2.75,0,0,0,.706-.445,2.608,2.608,0,0,0,.63-.726,5.377,5.377,0,0,0,.416-.882,7.689,7.689,0,0,0,.261-1.776c.02-.183.039-.366.066-.547-.014.086-.03.171-.044.258.049-.284.089-.568.131-.852l-.006.033-.006.035,0-.016-.007.042,0,.018.014-.082.02-.117.014-.082c.049-.264.1-.527.143-.792s.048-.561.074-.839a10.027,10.027,0,0,0-.019-1.653v0c-.03-.418-.06-.839-.115-1.255-.049-.373-.133-.747-.206-1.116s-.123-.736-.211-1.1c-.083-.346-.168-.688-.271-1.028a2.768,2.768,0,0,0-.6-1.16,2.185,2.185,0,0,0-1.116-.643c-.341-.064-.685-.1-1.028-.142a1.467,1.467,0,0,0-.175-.01,2.933,2.933,0,0,0-1.151.294Zm4.662,9.521-.02.117,0,.022,0-.019.03-.179-.01.059Z"/>
        <path class="cls-6" d="M65.371,50.839a.341.341,0,0,0-.173.208.362.362,0,0,0,.023.259,1.014,1.014,0,0,0,.261.323c.07.074.141.149.209.225.135.151.248.321.373.481.072.09.15.176.223.266s.129.155.195.232a6.738,6.738,0,0,0,.49.481.281.281,0,0,0,.389.017.277.277,0,0,0,.016-.389c-.156-.145-.313-.288-.456-.448s-.252-.318-.373-.48c-.105-.161-.206-.325-.308-.487-.071-.112-.144-.222-.222-.329a2.272,2.272,0,0,0-.234-.285.375.375,0,0,0-.26-.111.341.341,0,0,0-.153.037Z"/>
        <path class="cls-6" d="M67.233,49.318a.343.343,0,0,0-.168.2.36.36,0,0,0,.021.254q.243.588.508,1.167c.083.186.175.371.275.549.114.2.246.392.372.587a.312.312,0,0,0,.176.145.292.292,0,0,0,.347-.413c-.1-.162-.216-.322-.311-.487a4.413,4.413,0,0,1-.232-.48q-.2-.486-.385-.98h0c-.048-.134-.095-.268-.149-.4a.318.318,0,0,0-.3-.181.347.347,0,0,0-.153.035Z"/>
        <path class="cls-6" d="M70,48.584a.327.327,0,0,0-.173.269c-.021.2-.057.409-.083.614-.03.233-.053.467-.077.7s-.042.445-.064.667-.063.47-.1.7a.237.237,0,0,0,.066.178.248.248,0,0,0,.172.079.244.244,0,0,0,.177-.065.268.268,0,0,0,.079-.172c.045-.269.088-.539.118-.811.029-.255.062-.509.1-.763.029-.173.062-.346.1-.517s.1-.337.133-.508a.344.344,0,0,0-.022-.24.32.32,0,0,0-.189-.157.328.328,0,0,0-.093-.014.312.312,0,0,0-.144.035Z"/>
        <path class="cls-6" d="M72.435,49.923a.644.644,0,0,0-.164.124,1.048,1.048,0,0,0-.114.149l-.072.111a1.98,1.98,0,0,1-.122.167c-.181.209-.377.405-.557.617a7.253,7.253,0,0,0-.57.781.361.361,0,1,0,.613.383c.127-.192.256-.381.4-.563s.312-.341.477-.5a3.889,3.889,0,0,0,.3-.332c.083-.1.152-.214.226-.322l.01-.008a.378.378,0,0,0,.079-.444.387.387,0,0,0-.337-.2.327.327,0,0,0-.163.042Z"/>
        <path class="cls-6" d="M73.414,51.8a1.844,1.844,0,0,0-.516.261,2.384,2.384,0,0,1-.454.242c-.223.069-.451.123-.68.173a.324.324,0,0,0,.139.632,6.439,6.439,0,0,0,.948-.256,2.411,2.411,0,0,0,.395-.2c.128-.078.265-.144.4-.22a.342.342,0,0,0,.175-.372.348.348,0,0,0-.325-.269.261.261,0,0,0-.077.011Z"/>
        <path class="cls-6" d="M118.4,49.928a.436.436,0,0,0-.216.257.454.454,0,0,0,.029.324,1.256,1.256,0,0,0,.2.3c.058.07.115.14.174.21.111.131.227.255.348.376.272.274.559.528.846.786a.419.419,0,0,0,.279.129.4.4,0,0,0,.314-.675,8.119,8.119,0,0,1-1.161-1.191c-.1-.143-.193-.285-.3-.424a.387.387,0,0,0-.312-.139.442.442,0,0,0-.2.047Z"/>
        <path class="cls-6" d="M120.239,48.216a.388.388,0,0,0-.3.36,2.423,2.423,0,0,0,.146.682c.066.207.134.415.2.624.069.238.144.471.231.7a5.54,5.54,0,0,0,.3.647.39.39,0,0,0,.693-.356,4.627,4.627,0,0,1-.209-.424c-.049-.122-.1-.246-.143-.371-.089-.26-.171-.524-.243-.788-.035-.128-.069-.256-.1-.384a2.378,2.378,0,0,0-.137-.492.387.387,0,0,0-.346-.209.355.355,0,0,0-.079.009Z"/>
        <path class="cls-6" d="M122.419,48.056a2.957,2.957,0,0,0-.1.671c-.014.19-.024.382-.04.572-.032.41-.046.819-.065,1.228a.382.382,0,1,0,.764.032c.018-.4.034-.8.075-1.192.02-.2.037-.4.054-.595.009-.084.016-.169.022-.254a3.277,3.277,0,0,0-.006-.343.361.361,0,0,0-.253-.357.341.341,0,0,0-.1-.016.365.365,0,0,0-.346.254Z"/>
        <path class="cls-6" d="M124.823,49.718c-.07.117-.129.241-.2.359a2.238,2.238,0,0,1-.182.27,3.051,3.051,0,0,1-.289.28c-.12.1-.244.19-.371.28l.062-.045c-.135.091-.272.179-.41.267a.289.289,0,0,0-.14.167.274.274,0,0,0,.019.212.281.281,0,0,0,.379.122,8.17,8.17,0,0,0,.97-.686,4.7,4.7,0,0,0,.735-.867.341.341,0,0,0-.109-.467.342.342,0,0,0-.466.108Z"/>
        <path class="cls-6" d="M126.043,51.136c-.11.049-.212.111-.319.166-.122.065-.246.127-.369.194-.245.136-.482.287-.717.44a.433.433,0,0,0-.2.241.4.4,0,0,0,.026.3.406.406,0,0,0,.242.2.388.388,0,0,0,.3-.026c.235-.152.476-.3.718-.439.119-.071.246-.13.37-.193a1.414,1.414,0,0,0,.392-.25.4.4,0,0,0,.084-.468.385.385,0,0,0-.348-.209.444.444,0,0,0-.181.039Z"/>
        <path class="cls-6" d="M61.049,92.23a2.9,2.9,0,0,0-.405.055,2.486,2.486,0,0,0-1.136.413c-.089.068-.174.143-.262.213a2.646,2.646,0,0,0-.48.472,4.093,4.093,0,0,0-.319.526,3.233,3.233,0,0,0-.256.7,3.138,3.138,0,0,0-.06.613,3.248,3.248,0,0,0,0,.744,4.4,4.4,0,0,0,.2.884c.062.167.111.338.184.5a10.747,10.747,0,0,0,.536,1.026c.248.418.516.824.786,1.228a11.672,11.672,0,0,0,.788,1.107,18.148,18.148,0,0,0,2.224,2.077c.375.314.743.637,1.115.954.4.337.766.7,1.194.994a15.544,15.544,0,0,0,1.632.953c.446.233.868.51,1.316.74s.91.463,1.356.711c.414.23.813.5,1.248.692.459.2.934.357,1.391.559.476.21.951.408,1.434.6.966.389,1.946.74,2.936,1.065a8.85,8.85,0,0,0,1.043.31c.238.047.477.085.715.125.487.083.962.187,1.444.3s.947.17,1.421.257a10.563,10.563,0,0,1,1.218.3,9.075,9.075,0,0,0,1.131.3c.377.071.762.1,1.144.142.317.03.631.07.948.106.538.062,1.081.069,1.623.1l-.411-.024.536.03c1.038.083,2.065.258,3.1.369a21.273,21.273,0,0,0,3.538.2c.6-.038,1.208-.1,1.813-.117.526-.016,1.051-.031,1.575-.069.584-.042,1.165-.118,1.747-.173.526-.049,1.055-.039,1.582-.046.2,0,.4,0,.6,0,.517,0,1.036,0,1.55-.04a18.744,18.744,0,0,0,2.744-.485c.718-.17,1.42-.394,2.139-.559.675-.155,1.351-.316,2.03-.461,1.012-.2,2.01-.452,3.015-.68.888-.2,1.769-.4,2.635-.686.818-.267,1.617-.6,2.418-.915.455-.179.915-.345,1.356-.554s.875-.429,1.308-.652c.427-.207.863-.394,1.286-.607.336-.169.663-.336.983-.531.244-.147.474-.311.716-.456.464-.279.94-.529,1.395-.822.516-.331,1.019-.68,1.525-1.025a13.329,13.329,0,0,0,1.166-.847c.45-.382.941-.709,1.392-1.089a26.2,26.2,0,0,0,2.678-2.426,5.4,5.4,0,0,0,.541-.767,9.388,9.388,0,0,0,.855-1.323,4.314,4.314,0,0,0,.381-1.311c.016-.144.042-.287.057-.431a2.817,2.817,0,0,0-.863-2.433,2.352,2.352,0,0,0-1.768-.56c-.105.007-.211.006-.316.01a2.251,2.251,0,0,0-.8.2,9.007,9.007,0,0,0-2.055,1.042,14.558,14.558,0,0,0-1.27,1.15c-.153.157-.3.315-.442.482a6.419,6.419,0,0,0-.537.793c-.118.187-.231.376-.34.569-.1.088-.21.174-.317.259-.2.161-.392.34-.582.516-.443.384-.908.741-1.359,1.115-.533.446-1.091.854-1.657,1.253s-1.123.776-1.688,1.16c-.307.209-.607.426-.913.634a8.779,8.779,0,0,1-.949.539l.162-.081c-.375.191-.745.393-1.118.586a15.642,15.642,0,0,1-1.778.734c-.687.24-1.364.51-2.045.77-.625.236-1.281.418-1.922.608-.385.114-.777.2-1.162.308s-.789.246-1.192.341c-.471.092-.945.174-1.419.252-.564.091-1.134.127-1.7.2-1.147.144-2.285.358-3.435.473-1.132.114-2.256.29-3.388.4-.57.056-1.136.035-1.707.045-.526.01-1.05.037-1.578.03-.454-.006-.908-.04-1.362-.052-.217,0-.435,0-.653,0-.248,0-.5,0-.746,0-.923-.067-1.845-.143-2.766-.242-.961-.1-1.9-.341-2.856-.468a9.286,9.286,0,0,1-1.417-.313c-.5-.148-1.013-.251-1.523-.367-.924-.21-1.854-.406-2.764-.672-.6-.215-1.181-.481-1.781-.7-.339-.124-.682-.232-1.018-.367-.354-.143-.712-.278-1.062-.431-.663-.291-1.316-.587-1.948-.94-.33-.184-.652-.382-.973-.582-.266-.165-.54-.313-.807-.474-.416-.279-.829-.563-1.253-.833l.323.207q-.3-.2-.612-.4a17.786,17.786,0,0,1-1.508-1.077c-.22-.18-.449-.344-.661-.536s-.395-.378-.6-.555c-.187-.16-.357-.336-.535-.506-.219-.212-.451-.41-.686-.6a7.233,7.233,0,0,1-.547-.518c-.17-.173-.354-.328-.527-.5-.129-.147-.258-.3-.394-.435-.114-.117-.233-.229-.347-.345a4.77,4.77,0,0,0-.372-.393c-.134-.121-.277-.23-.414-.346-.28-.237-.522-.511-.808-.74a9.351,9.351,0,0,0-1.182-.852,5.032,5.032,0,0,0-1.139-.453,4.151,4.151,0,0,0-1.113-.159c-.057,0-.113,0-.169,0Zm10.731,7.837.1.062-.1-.062Z"/>
      </g>
      <text class="cls-7" transform="translate(179.041 63.607)">“megan_port<tspan class="cls-8" x="200.325" y="0">f</tspan><tspan x="212.191" y="0">oli</tspan><tspan class="cls-9" x="248.741" y="0">o</tspan><tspan x="268.359" y="0">” is </tspan><tspan class="cls-10" x="324.052" y="0">r</tspan><tspan x="335.918" y="0">eady to be vi</tspan><tspan class="cls-11" x="542.669" y="0">ew</tspan><tspan x="587.515" y="0">ed. </tspan></text>
      <text class="cls-12" transform="translate(184.863 120.02)">conti<tspan class="cls-13" x="69.579" y="0">n</tspan><tspan x="87.639" y="0">ue sc</tspan><tspan class="cls-14" x="162.005" y="0">r</tspan><tspan x="172.084" y="0">olling or click icons </tspan><tspan class="cls-15" x="440.374" y="0">t</tspan><tspan x="450.343" y="0">o vi</tspan><tspan class="cls-16" x="497.83" y="0">e</tspan><tspan x="514.994" y="0">w </tspan><tspan class="cls-17" x="545.038" y="0">w</tspan><tspan x="566.459" y="0">ork.</tspan></text>
    </g>
  </g>
</svg>
