<svg xmlns="http://www.w3.org/2000/svg" viewBox="0 0 848.1 165.61"><defs><style>.cls-1{fill:#8792b4;}.cls-2{fill:none;stroke:#384173;stroke-width:5px;}.cls-2,.cls-7{stroke-miterlimit:10;}.cls-3{fill:#707da7;}.cls-4{fill:#c7ccdd;}.cls-5{fill:#48578e;opacity:0.63;isolation:isolate;}.cls-6{fill:#2f345b;}.cls-7,.cls-8{fill:#fff;}.cls-7{stroke:#fff;stroke-width:0.5px;}</style></defs><g id="Layer_2" data-name="Layer 2"><g id="Layer_1-2" data-name="Layer 1"><g id="Layer_2-2" data-name="Layer 2"><g id="Draw_Layer" data-name="Draw Layer"><rect class="cls-1" x="2.28" y="2.5" width="843.1" height="160.61" rx="20.54"/><rect class="cls-2" x="2.5" y="2.5" width="843.1" height="160.61" rx="20.54"/><path class="cls-3" d="M88.69,26.86c-.61,0-1.22,0-1.83,0H80.73l-1.62,0c-.84,0-1.68.05-2.52.05h-.86l-.91,0c-.62,0-1.25.08-1.88.1s-1.24,0-1.86,0l-1.63,0h-.51l-.57,0h-.5L67,27c-.33,0-.66.07-1,.08-.62,0-1.23,0-1.85,0S63,27,62.43,27l-.75,0h-.31c-.88,0-1.76.11-2.64.13s-1.67,0-2.5,0c-1,0-2,0-3,0h-.64l-.77,0c-.55,0-1.11.1-1.67.13-1.12.07-2.24.05-3.37.1-.53,0-1.06,0-1.59,0H40.64l-1.26,0a7.65,7.65,0,0,0-1.8.92,3.24,3.24,0,0,0-.81,1l-.18.28c-.14.22-.28.44-.4.67a1.51,1.51,0,0,0-.09.18l-.09.1a1.84,1.84,0,0,0-.37.77,1.24,1.24,0,0,0,0,.27c0,.15,0,.3,0,.46l0,.1a1.42,1.42,0,0,1,0,.22,5,5,0,0,0-.13,1.28q0,.35.09.69l0,.08c0,.18,0,.36,0,.55,0,.35,0,.72,0,1.14a2.75,2.75,0,0,0,0,.38c0,.3,0,.6-.07.9s0,.51-.07.76-.07.77-.1,1.15-.08.74-.12,1.11c0,.21,0,.42-.07.64a18.76,18.76,0,0,0-.1,2.13c0,.4,0,.8,0,1.18,0,.2,0,.41,0,.62a12.43,12.43,0,0,1,0,1.61c0,.33-.06.67-.1,1s-.1.88-.13,1.32,0,.71,0,1.06,0,.6,0,.9c0,.67,0,1.35,0,2s.05,1.4,0,2.1c-.1,1.25-.14,2.2-.13,3.13,0,.44,0,.9.06,1.34,0,.22,0,.44.06.66s.07.59.08.89c0,1,.07,1.84.07,2.62,0,.43,0,.87,0,1.3s0,.86,0,1.29v.15c0,.48,0,1,0,1.47s0,.91,0,1.37v.14c0,.5,0,1,0,1.5s0,1.09,0,1.63c0,.85.07,1.74.16,2.91s.13,2.07.15,3c0,.53,0,1.06,0,1.58,0,.36,0,.72,0,1.07l0,.47c0,.66.05,1.3.06,2l0,.89c0,.62,0,1.26,0,1.88v1c0,.93.07,1.9.18,3.06a20.58,20.58,0,0,1,.07,2.22v.82c0,.91,0,1.89.13,3.15s.07,2.26.06,3.35c0,.92,0,1.86,0,2.78,0,.28,0,.56,0,.83a19.66,19.66,0,0,1,.06,2.17c0,.6,0,1.2-.06,1.8,0,.44,0,.87,0,1.3,0,.76,0,1.52,0,2.26,0,.34,0,.68,0,1,0,1.11,0,2,0,3v.49c0,.8-.07,1.62-.07,2.44,0,.42,0,.83,0,1.25,0,.59,0,1.18,0,1.78l0,1.2c0,.56,0,1.11,0,1.66s0,1.09,0,1.64c0,.39,0,.78,0,1.17s0,.89,0,1.32,0,.87,0,1.3,0,.62,0,.92,0,.31,0,.46,0,.3,0,.46a6.4,6.4,0,0,0,.06.88,6.54,6.54,0,0,0,.36,1.24,10,10,0,0,0,.45,1c.07.12.15.24.23.35a3,3,0,0,1,.2.29,2.6,2.6,0,0,0,.25.36,2.35,2.35,0,0,0,.46.43h0l.3.2a.41.41,0,0,0,.11.07,1.37,1.37,0,0,0,.43.4,4.34,4.34,0,0,0,1,.41l.36.07.09,0,.31.06.3.07.34,0,.32.05h.4c.46,0,.91,0,1.37,0s.82,0,1.23,0l.49,0c.29,0,.58-.05.87-.06h.54c.39,0,.78,0,1.16,0s.91,0,1.37,0,.81,0,1.22,0h.67c.18,0,.34,0,.51.06l1.23.12a5.31,5.31,0,0,0,.69,0h.8a8.7,8.7,0,0,1,.89,0l.9,0c.64,0,1.28,0,1.92,0s1.08,0,1.63,0h.16c.63-.06,1.26-.15,1.89-.17l1.89,0c.32,0,.64,0,1,0l.93.08a16.26,16.26,0,0,0,1.71,0l.56,0c1.33-.09,2.66,0,4,0l1.09,0c.33,0,.65,0,1,0,.63,0,1.25.08,1.89.09h2l2.06.09c1.22.08,2.45.11,3.68.15.54,0,1.09,0,1.63,0s1,0,1.58,0l.65,0h-.08c.69,0,1.37-.05,2.06-.05s1.27,0,1.91,0,1.3,0,2,0h2.14c1.22,0,2.45.08,3.68.08.61,0,1.21,0,1.82,0s1.15,0,1.73,0,1.24.06,1.86.07h1.27a11.1,11.1,0,0,1-.4-1.36,8.45,8.45,0,0,1-.12-1v-.12l0-.33a5,5,0,0,0-.19-.85,4.15,4.15,0,0,1-.19-.93l0-.46c0-.16,0-.3,0-.46s0-.5-.07-.76v-.08l0-.19-.12-1.17c0-.26,0-.52-.07-.78s0-.52-.07-.77v-.11c0-.27,0-.55-.08-.82l0-.24v-.08c-.06-.38-.12-.77-.15-1.15,0-.2,0-.4,0-.6v-.07c0-.19,0-.38-.05-.58-.07-.63-.14-1.31-.22-2.08l0-.53v-.06c0-.5-.1-1-.12-1.51a5,5,0,0,0,0-.54c0-.16,0-.32,0-.47,0-.43,0-.75-.07-1.06l-.07-.73v-.18q-.08-.67-.12-1.35c0-.39-.06-.78-.1-1.18s0-.61-.06-.91l0-.44c0-.23,0-.46,0-.69s0-.31,0-.47l0-.44c0-.24,0-.49,0-.74s-.07-.65-.1-1l0-.22c0-.32-.06-.64-.08-1l0-.32c0-.19,0-.37,0-.55l0-.27,0-.42c0-.26,0-.51,0-.77v-.16c0-.1,0-.2,0-.3,0-.94-.1-1.72-.17-2.52,0-.45-.08-.91-.13-1.37l0-.19c0-.31-.06-.61-.1-.92-.08-.85-.14-1.7-.19-2.5,0-.63-.1-1.27-.16-1.83l0-.53c-.11-1.16-.18-2.34-.25-3.48V93l-.09-1.52,0-.55,0-.41a7.3,7.3,0,0,1-.94.09l-1.1,0h-.22a7.91,7.91,0,0,1-.84.06l-.32,0H96.9c-.46,0-1-.06-1.55-.12-.25,0-.52,0-.77,0s-.44,0-.66,0-.65-.08-.93-.13h-.08l-.27,0a11.13,11.13,0,0,0-1.12-.08l-.35,0-.6,0h-.15l-.3,0H90l-.24,0h-.14l-.5,0H88.6a4,4,0,0,0-.49,0c-.47,0-1,.09-1.61.1a.91.91,0,0,1-.89-.9.94.94,0,0,1,.32-.69c0-1.17-.09-2.11-.18-3l-.08-.61,0-.09v0c-.08-.56-.17-1.15-.21-1.73,0-.28,0-.56,0-.85v-.07c0-.17,0-.33,0-.5,0-.45,0-.9-.05-1.35s0-.66,0-1v-.37c0-.2,0-.4,0-.63s0-.57,0-.86v-.9c0-.66,0-1.35,0-2,0-1,.07-2,.12-2.93s.11-1.83.17-2.6v-.15l.05-.58,0-.59v0c.11-1.49.22-3,.42-4.56v-.08l0-.09c.07-.52.15-1,.23-1.56l0-.14.08-.51c.13-.77.25-1.53.38-2.3l.14-.76v-.09c.22-1.2.46-2.57.78-3.87l.11-.45c.09-.34.17-.67.24-1,.11-.5.21-1,.3-1.49.14-.67.29-1.34.45-2.09L89,48c.21-.94.42-1.88.64-2.82l.15-.64,0-.1c.16-.66.32-1.35.46-2A24.77,24.77,0,0,1,91,39.77c.2-.63.36-1.28.55-2l.16-.58a19.58,19.58,0,0,1,.73-2.07l.18-.46c.34-.89.77-1.79,1.14-2.58l.1-.21.06-.15a5.38,5.38,0,0,1,.2-.51,6,6,0,0,0,.27-.82c.08-.33.19-.66.29-.95a2.17,2.17,0,0,1,.07-.24l0-.09V29l.12-.37c0-.13.1-.27.15-.4l.06-.15a1.36,1.36,0,0,1,.13-.3c.09-.13.18-.25.28-.37l0-.05.08-.1a2.2,2.2,0,0,1,.2-.23,3.23,3.23,0,0,1,.27-.23h-.43c-.5,0-1,0-1.48,0h-.29c-.14,0-.3,0-.44,0l-.26,0H92.4a2.18,2.18,0,0,1-.88,0l-.92,0c-.63,0-1.27.06-1.9.08Z"/><path class="cls-3" d="M66.6,137.3h0Z"/><path class="cls-3" d="M153.3,136.51l0,0-.11.1c-.06.06-.13.1-.21.17l-.18.15a5.43,5.43,0,0,1-.81.62l-.3.16.11,0a3,3,0,0,0,1.1-.6,3.41,3.41,0,0,0,.37-.48l.08-.1h0Z"/><path class="cls-4" d="M131.91,26.14c-.44,0-.88,0-1.33,0s-.74.06-1.11.1l-1.32.12c-.47,0-.94.07-1.41.08H125.3c-.64,0-1.29,0-1.93,0h.1c-.8,0-1.6,0-2.4-.05h-.26c-.38,0-.76,0-1.14,0l-.86-.07c-.51,0-1-.05-1.52-.06s-1.13.08-1.69.11c-.3,0-.61,0-.92,0h-.87c-.66,0-1.32.05-2,.1s-1.36.06-2,.06a15.74,15.74,0,0,0-1.68.08c-.61.07-1.23.11-1.85.12-.39,0-.78,0-1.16,0l-.84,0c-.55,0-1.09,0-1.64-.05-.38,0-.77,0-1.15.07s-.87,0-1.3,0h.24l-1.34,0c-.62,0-1.24.09-1.87.07l-1.13,0a2.88,2.88,0,0,0-.27.22,2.2,2.2,0,0,0-.2.23l-.08.11,0,.05c-.1.12-.19.24-.28.37a1.36,1.36,0,0,0-.13.3l-.06.15-.15.39c0,.14-.08.26-.12.38v.09l0,.09c0,.08,0,.16-.07.24-.1.29-.2.62-.29.95a6,6,0,0,1-.27.82c-.07.17-.14.34-.2.51l-.06.15-.1.21c-.37.79-.8,1.68-1.14,2.58l-.18.46a18.11,18.11,0,0,0-.73,2.07l-.16.58c-.18.71-.36,1.35-.55,2a24.2,24.2,0,0,0-.66,2.67c-.14.68-.3,1.37-.46,2l0,.1-.15.64c-.22.94-.43,1.88-.64,2.82l-.18.79c-.16.75-.31,1.42-.45,2.09l-.3,1.49c-.07.34-.15.67-.24,1l-.11.45c-.32,1.3-.56,2.66-.77,3.87l0,.09-.13.76c-.14.77-.26,1.53-.38,2.3l-.08.5,0,.15c-.08.52-.16,1-.23,1.56l0,.09v.08c-.2,1.52-.31,3.07-.42,4.56v0l0,.59,0,.58v.15c-.06.77-.13,1.7-.17,2.6s-.09,2-.12,2.94c0,.69,0,1.38,0,2.05v.89c0,.29,0,.58,0,.87s0,.42,0,.63v.37c0,.33,0,.66,0,1s0,.9,0,1.35c0,.16,0,.33,0,.49v.07a8.12,8.12,0,0,0,0,.86c0,.58.13,1.16.21,1.73v0l0,.09.08.61c.09.85.15,1.79.18,3a1,1,0,0,0-.32.69.9.9,0,0,0,.89.9,15.09,15.09,0,0,0,1.61-.1l.49,0h.47l.5,0h.15l.24,0h.17l.3,0h.15l.6,0,.35,0c.35,0,.74,0,1.12.08l.27,0H93c.29.05.61.1.93.13s.44,0,.66,0,.52,0,.77,0c.59.06,1.1.1,1.56.12h.46l.31,0q.42,0,.84-.06h0l.24,0c.36,0,.71,0,1.1,0a7.65,7.65,0,0,0,.94-.09v.4l0,.56.09,1.52v.07c.07,1.14.14,2.32.25,3.47l0,.53c.06.57.12,1.21.16,1.83.05.8.11,1.66.19,2.5,0,.31.07.62.1.93l0,.19c0,.45.09.91.13,1.37.07.79.11,1.57.16,2.51,0,.1,0,.2,0,.31v.16l0,.77,0,.41,0,.28c0,.18,0,.36,0,.54l0,.32c0,.32,0,.64.09,1l0,.22c0,.32.08.65.1,1l.06.74,0,.43c0,.16,0,.32,0,.48s0,.46,0,.69l0,.43c0,.31,0,.62.06.92s.07.78.1,1.18.07.9.11,1.35l0,.18.07.72c0,.31,0,.64.06,1.06l0,.47q0,.28,0,.54c0,.51.07,1,.12,1.52v.05l0,.54c.07.77.14,1.45.22,2.08,0,.19,0,.38,0,.58v.07c0,.2,0,.4,0,.6,0,.38.09.77.15,1.15v.08l0,.24c0,.27,0,.54.08.82v.11c0,.25,0,.51.07.77s0,.52.07.78.08.78.13,1.17a1.37,1.37,0,0,0,0,.19v.08c0,.25,0,.5.07.76s0,.31,0,.46l0,.46a3.66,3.66,0,0,0,.19.93,5,5,0,0,1,.19.85l0,.33v.11a6.92,6.92,0,0,0,.52,2.34h.59c.55,0,1.11,0,1.67,0s1.09-.05,1.63-.05,1.17,0,1.76,0h1.72c1.2,0,2.4,0,3.6,0l1.72,0c.64,0,1.28,0,1.93,0,1.15,0,2.31,0,3.47,0H125l1.53,0c1.28,0,2.56.07,3.83,0a16.26,16.26,0,0,1,1.71,0c.6,0,1.2.08,1.8.1l1.88,0c.63,0,1.24,0,1.86.06s1.22,0,1.83,0,1,0,1.55,0,1.14,0,1.72.07l1.78.08c.65,0,1.29.09,1.94.13s1.16.09,1.74.12,1.16.1,1.74.09h.5l.1,0a6.64,6.64,0,0,0,1.45-.63,4.77,4.77,0,0,0,.81-.61,1.3,1.3,0,0,1,.18-.15l.21-.17.11-.09,0,0,.21-.17.18-.21.19-.2a3.82,3.82,0,0,0,.71-.93l.07-.15,0,0c.07-.14.14-.28.22-.42a8.79,8.79,0,0,0,.5-1.08c0-.12.08-.24.11-.37s.07-.26.1-.36.07-.2.1-.3.14-.39.2-.59l.18-.74,0-.15c0-.34,0-.67,0-1s.11-.83.13-1.25a2.11,2.11,0,0,1,0-.25c0-.12,0-.23-.05-.34s0-.28,0-.42l0-.26,0-.35c0-.17,0-.33,0-.5a4.93,4.93,0,0,1,0-.55v-.28c0-.23,0-.46,0-.69v-.12c0-.49,0-1-.07-1.41v0a12.4,12.4,0,0,1,0-2h0q0-.4,0-.81v.24c0-.31,0-.61,0-.92s0-.51.05-.76,0-.54,0-.8,0-.54,0-.81v.23c0-.41,0-.82,0-1.23s.07-.64.11-1a19.88,19.88,0,0,0,.08-2c0-.32,0-.65,0-1v.09c0-.44,0-.88,0-1.32s0-.64,0-1c0-.54,0-1.09,0-1.63v-.78c0-.23,0-.47,0-.71v-.68h0v0c0-.52,0-1,0-1.54s0-1,0-1.56a13.83,13.83,0,0,1,.12-1.58c.07-.47.14-.94.19-1.4s.09-.93.12-1.39,0-1,0-1.55c0-1.07.07-2.14.08-3.22,0-.57,0-1.14,0-1.71s.06-.91.1-1.37c.1-1.13.12-2.28.21-3.42.05-.56.12-1.12.16-1.69s.05-1.25.07-1.88.08-1.2.12-1.8.11-1.16.15-1.73c.07-1.18.1-2.36.15-3.54,0-.58.08-1.16.11-1.74s.06-1.16.06-1.74-.05-1-.08-1.47-.07-1.16-.08-1.74V69c0-.41,0-.83,0-1.25,0-.72.13-1.44.15-2.17,0-.47-.07-1-.1-1.42s0-1.08,0-1.62v-.13a3.53,3.53,0,0,1,0-.65c0-.69,0-1.37,0-2.06v-.44c0-.48,0-1,0-1.45s-.09-.94-.15-1.41-.12-.9-.15-1.35-.05-.95,0-1.42,0-.9,0-1.34,0-.94.07-1.4c.07-.9.14-1.81.14-2.72,0-.62,0-1.24,0-1.86s0-1,0-1.53c0-.33,0-.64-.06-1h0l0-.07-.09-.35c0-.11,0-.23,0-.34l0-.17c0-.26,0-.52,0-.78,0-.56,0-1.11-.05-1.67s-.08-.86-.11-1.3,0-1-.05-1.52c0-.24,0-.48,0-.72a3.9,3.9,0,0,0-.12-.46,1.76,1.76,0,0,1-.1-.3,2.62,2.62,0,0,1,0-.28,3.27,3.27,0,0,0,0-.44v-.23a1.47,1.47,0,0,0,0-.21,4.94,4.94,0,0,0-.12-.94c-.05-.3-.12-.6-.21-1a8.22,8.22,0,0,0-.33-1c-.06-.15-.11-.29-.17-.43v0l0-.05a3.09,3.09,0,0,0-.14-.32c0-.09-.09-.17-.14-.26L156,31l-.07-.13a1.62,1.62,0,0,0-.1-.18c-.07-.12-.16-.24-.24-.36l-.14-.22-.05-.08c-.09-.14-.17-.27-.26-.39l0,0,0,0-.21-.35a3.61,3.61,0,0,0-.51-.72l-.13-.15a5.29,5.29,0,0,0-.71-.71l-.37-.28-.49-.1-.57-.17c-.3-.07-.61-.14-.91-.23a3.51,3.51,0,0,0-.65-.09,3,3,0,0,1-.43,0l-.36,0-.87-.12a5.41,5.41,0,0,1-1-.19l.06,0a6.15,6.15,0,0,0-.86-.13c-.21,0-.42-.07-.63-.08h-.25l-.52.06a8,8,0,0,1-1.2,0h-.21c-.31,0-.62,0-.93.06s-.62.07-.93.08-.7,0-1,0l-1,0c-.32,0-.66,0-1-.07s-.65,0-1-.05-.8,0-1.2-.07l-.48-.06h-.32l-.26,0c-.55,0-1.1.1-1.65.08s-.87-.12-1.31-.15l-1.29.09Z"/><path class="cls-4" d="M156.12,119.29v0Z"/><path class="cls-4" d="M117.11,139.37l-.8,0h0l.77.1c.26,0,.51,0,.73,0H118a4.8,4.8,0,0,0,.85-.07,1.13,1.13,0,0,0,.24-.08h-2Z"/><path class="cls-4" d="M97.2,26.88c-.52,0-1-.05-1.56-.05l-1.47,0a2,2,0,0,0-.25.76c0,.13-.06.27-.09.4a3.41,3.41,0,0,0,0,.46c-.06.35-.17.7-.26,1s-.28.86-.43,1.28c0-.08,0-.15.08-.22-.13.35-.27.7-.41,1.05a12.23,12.23,0,0,0-.4,1.26c-.22.77-.49,1.53-.69,2.3s-.43,1.46-.68,2.18c-.11.33-.21.66-.3,1s-.19.78-.3,1.16c-.29.94-.46,1.92-.79,2.84l.08-.2c-.15.39-.29.79-.42,1.19s-.2.77-.29,1.16-.17.71-.25,1.06-.15.74-.23,1.1c-.15.73-.37,1.44-.55,2.16-.09.36-.2.72-.29,1.08s-.18.83-.28,1.24c-.39,1.53-.68,3.08-1,4.61-.09.38-.16.75-.23,1.13s-.11.77-.18,1.15c-.14.73-.26,1.47-.43,2.2s-.26,1.21-.34,1.82-.24,1.38-.3,2.07l0-.23c0,.17,0,.34,0,.51a.07.07,0,0,1,0,0v0c0,.41-.08.83-.12,1.25l-.06,1c0,.34-.1.71-.14,1.06s-.09.9-.12,1.35c-.06.73-.11,1.47-.11,2.21s0,1.54,0,2.31-.14,1.59-.13,2.39c0,.38,0,.76,0,1.14a9.8,9.8,0,0,0,0,1.21c.07.76.14,1.51.19,2.26s.06,1.4.07,2.1c0,.38,0,.76,0,1.14s0,.77,0,1.16,0,.67,0,1l.06.81c0,.24.05.49.07.73s0,.28,0,.43,0,.36.08.55a1.57,1.57,0,0,1,0,.23,1.54,1.54,0,0,0,.17.42,2.23,2.23,0,0,0,.2.3,2.34,2.34,0,0,0,.15.27,1.08,1.08,0,0,0,.42.4,1.05,1.05,0,0,0,.43.11l.22,0a1.54,1.54,0,0,0,.3,0,.85.85,0,0,0,.37-.21l0,0,.1,0a1.2,1.2,0,0,0,.41-.2,7.22,7.22,0,0,1,.77-.43.56.56,0,1,0-.6-1l-.69.36H87l-.21,0h-.1l0,0-.05-.07a1.2,1.2,0,0,1-.15-.24v0a2.51,2.51,0,0,0,0-.27h0V88c0-.21,0-.42-.07-.63s0-.46,0-.69V85c0-.17,0-.35,0-.52s0-.42,0-.62c0-.38,0-.76,0-1.14,0-.7-.07-1.41-.12-2.11,0-.45-.09-.9-.14-1.34s-.08-.93-.11-1.4,0-1,0-1.5,0-.83,0-1.25L86,75c.06-.63.12-1.26.16-1.89s.07-1.12.07-1.68,0-1.05,0-1.57.06-1,.11-1.58.15-1.2.19-1.8.06-1.11.11-1.67l0,.24c0-.44.07-.89.1-1.33l0-.14c.08-.79.2-1.58.35-2.37s.25-1.5.38-2.26.22-1.49.36-2.22c.07-.38.16-.75.24-1.13s.15-.81.23-1.21l.24-1.15.27-1.12c.09-.4.19-.8.28-1.2s.16-.77.26-1.15c.2-.74.41-1.47.6-2.21.09-.35.15-.71.23-1.06s.18-.73.28-1.09c.17-.66.34-1.32.56-2s.43-1.27.62-1.93.41-1.34.61-2c.1-.33.19-.65.28-1s.21-.64.33-1a2,2,0,0,0-.08.22c.17-.46.31-.92.46-1.38s.24-.83.37-1.23c.27-.86.49-1.73.79-2.58l0,0,.48-1.35c0,.08,0,.15-.08.22.2-.54.38-1.08.58-1.62.07-.2.14-.41.2-.62s.09-.35.15-.53l.12-.32.06-.2a.6.6,0,0,1,.08-.16l.23-.16h.16l.18,0,.35-.05a1.53,1.53,0,0,0,.37-.16l.2,0a2.94,2.94,0,0,0,.59-.12,2.85,2.85,0,0,1,.5-.14.67.67,0,0,1,.2,0,1.63,1.63,0,0,0,.44,0h.09l.37-.06.35-.06a.74.74,0,0,0,.44-.34h0l-1.33,0c-.63,0-1.25.1-1.88.07Z"/><path class="cls-5" d="M94.4,26.59h0Z"/><path class="cls-5" d="M94.81,26.78c-.15,0-.31,0-.46,0a1.57,1.57,0,0,1-.3.05h-.17c-.15,0-.3,0-.45,0a2.63,2.63,0,0,1-.39-.06L93,27a6.78,6.78,0,0,0-.3.9c-.07.28-.1.57-.19.85A9.23,9.23,0,0,0,92,30.43a10.89,10.89,0,0,1-.35,1.24c-.06.19-.1.38-.16.57s-.13.45-.19.68-.16.74-.25,1.1-.2.86-.28,1.29-.23.89-.35,1.33-.22.77-.34,1.15-.37.89-.55,1.34-.39,1.1-.57,1.65c-.31,1-.6,2-.94,2.92-.18.52-.37,1-.55,1.57s-.32,1-.44,1.45-.25,1-.34,1.46c0,.22-.06.43-.1.64a4,4,0,0,1-.21.82A12.76,12.76,0,0,0,86,51c-.06.24-.07.48-.11.73s-.09.5-.13.75c-.2,1-.35,2.07-.52,3.1s-.44,1.91-.6,2.88c-.07.44-.13.89-.19,1.33s-.14,1-.22,1.54-.13.93-.19,1.4-.12,1-.17,1.49l0-.24c-.1.95-.23,1.91-.32,2.87s-.33,1.92-.49,2.89c-.08.44-.13.9-.17,1.35-.06.6-.07,1.2-.09,1.8s0,1,0,1.54q0,.39,0,.78c0,.28.06.56.09.84a10,10,0,0,1,0,1.55c0,.28,0,.56,0,.84s0,.56,0,.84,0,.8,0,1.2,0,.5,0,.75a5.42,5.42,0,0,1,0,.57c0,.42-.08.84-.08,1.26a13.9,13.9,0,0,0,.08,1.44A14.09,14.09,0,0,0,83.12,86c.09.38.2.75.27,1.14v0c.09.48.19,1,.3,1.42s.22.77.31,1.16c0,.17,0,.34.08.51a2.34,2.34,0,0,0,.24.62l.21.41a4,4,0,0,0,.31.41l.2.26a.69.69,0,0,0,.28.2,1.43,1.43,0,0,0,.27.09h.13a1.33,1.33,0,0,0,.44.09,1.11,1.11,0,0,0,.25-.05c.12,0,.24.07.37.09s.28,0,.42.06a1.91,1.91,0,0,0,.63,0l.45-.06h.11l.33,0a2,2,0,0,0,.36,0l.21,0,.17-.06h0a1.86,1.86,0,0,0,.47,0l.33,0h.1l.2,0c.15,0,.29.09.44.11l.39.09a1.85,1.85,0,0,0,.81,0,3.33,3.33,0,0,1,.55,0H93l.22,0,.16,0a2.33,2.33,0,0,0,.53.07,2.67,2.67,0,0,0,.4,0h.3c.25,0,.49,0,.74,0a5.31,5.31,0,0,0,.88-.19c.18,0,.37,0,.55,0a2.39,2.39,0,0,0,.52-.1l.2-.07h.24l.34,0,.32.07a2.81,2.81,0,0,0,.5,0,.92.92,0,0,0,.29,0h.54c0,.18,0,.35.07.53l0-.2c0,.32.06.64.09,1a10.59,10.59,0,0,1,0,1.38c0,.48,0,1,0,1.44s0,1.1,0,1.65a13,13,0,0,0,0,1.53c0,.51.08,1,.12,1.54s0,1,.08,1.45.06,1,0,1.54,0,.91,0,1.36l.06.74c0,.25,0,.52,0,.78,0,.58.11,1.15.16,1.73s.11,1.12.15,1.68.07,1,.13,1.51.14,1,.19,1.51.08,1,.15,1.44.09.84.1,1.27c0,.19,0,.38,0,.56a4.54,4.54,0,0,0,.1.74c.07.37.15.74.22,1.1a14.52,14.52,0,0,1,.1,1.46,9.53,9.53,0,0,0,.1,1.32q.06.33.09.66a7.37,7.37,0,0,1,0,.94,7,7,0,0,0,.05,1.52,5.69,5.69,0,0,1,.08.83c0,.29,0,.57,0,.86,0,.56.08,1.12.15,1.68.14,1,.29,2.06.46,3.09.1.6.16,1.2.26,1.8v0a.77.77,0,0,0,0,.15h0c0,.27.09.53.14.79a13.76,13.76,0,0,0,.36,2c.08.27.19.53.29.8s.28.59.42.88.18.43.26.64a.45.45,0,0,0,.55.29.44.44,0,0,0,.3-.55l-.3-.73a3.58,3.58,0,0,1-.19-.55c-.06-.59-.11-1.18-.16-1.76,0-.34,0-.67-.07-1s-.11-.75-.16-1.12-.09-.71-.12-1.07-.1-.72-.15-1.08c-.13-.81-.25-1.62-.38-2.43l0,.19c-.1-.66-.15-1.32-.22-2,0-.33,0-.66,0-1a10,10,0,0,0-.15-1.1,8,8,0,0,1-.07-1.47,4.61,4.61,0,0,0,0-.83c0-.22-.06-.44-.09-.67-.11-.94,0-1.9-.14-2.85-.07-.5-.16-1-.19-1.5s0-.88,0-1.32-.1-.85-.12-1.28,0-1.11-.07-1.66,0-.86-.09-1.29-.06-1.15-.11-1.72-.09-1.12-.14-1.68l-.09-.85c0-.26,0-.52,0-.78,0-.48-.07-1-.08-1.45s0-1,0-1.45l-.09-1.52c0-.22,0-.45,0-.67s-.06-.55-.07-.82c0-.52-.06-1-.07-1.54s0-1.06,0-1.6,0-1,0-1.55,0-.93-.07-1.4c0-.21,0-.42-.07-.63s0-.34,0-.5,0-.6,0-.89a2.44,2.44,0,0,0-.33-1,1.47,1.47,0,0,0-.6-.56,1.6,1.6,0,0,0-.78-.14h-.39c-.16,0-.31,0-.47,0l-.31-.06a2.83,2.83,0,0,0-.65,0,2.28,2.28,0,0,1-.37,0,1.91,1.91,0,0,0-.41,0c-.29,0-.59,0-.88.07a6.88,6.88,0,0,0-.9.2l-.78,0c-.22,0-.45.05-.68.05a2.39,2.39,0,0,0-.66-.06l-.2,0h-.27a5.16,5.16,0,0,0-.88.1h0l-.13,0a1.11,1.11,0,0,0-.25,0l-.24,0a1.37,1.37,0,0,0-.4,0l-.4,0a3.86,3.86,0,0,0-.49.06h-.14a2.45,2.45,0,0,0-.54,0,3.78,3.78,0,0,0-.46.1h-.08a2.16,2.16,0,0,0-.57,0,1.62,1.62,0,0,1-.31,0l-.08,0a2,2,0,0,0-.35-.06h-.1a2.07,2.07,0,0,1-.42-.08,1.4,1.4,0,0,0-.76,0l0,0a3,3,0,0,1-.23-.38,2.25,2.25,0,0,1-.09-.35c0-.11,0-.22,0-.34,0,0,0,.06,0,.09l0-.12v0h0v0h0c-.13-.73-.33-1.44-.47-2.17l0-.21h0c-.05-.27-.1-.53-.17-.79s-.14-.6-.2-.9c-.07-.48-.14-.95-.2-1.43a11.28,11.28,0,0,1,0-1.42c0-.21,0-.41,0-.62s0-.47,0-.7V79.72c0-.51,0-1,0-1.54s0-1.06,0-1.6,0-1,0-1.56.05-1.08.05-1.62,0-1,.08-1.46.07-.92.1-1.38l0-.44c.06-.49.15-1,.23-1.46,0-.23.07-.45.1-.67s0-.48.07-.72c.1-.9.28-1.79.4-2.69q.1-.75.24-1.5c.09-.53.21-1.06.3-1.59.16-.94.27-1.88.44-2.82s.42-1.9.56-2.86c.08-.52.17-1,.25-1.54s.16-1.06.25-1.58c0-.23.07-.45.1-.68a8.71,8.71,0,0,1,.17-.86c.11-.44.24-.87.34-1.31s.16-1,.27-1.48.23-1,.37-1.5.23-.92.37-1.38.34-1.09.5-1.63.26-1,.38-1.49.3-1,.45-1.45.29-1,.47-1.52.35-1,.51-1.49.32-1.08.45-1.62.27-1.08.4-1.62.22-.94.34-1.41c.06-.27.14-.53.2-.8a6.9,6.9,0,0,1,.21-.78c.11-.38.2-.77.32-1.15s.16-.51.24-.76a3.59,3.59,0,0,1,.17-.34,5.42,5.42,0,0,0,.22-.56l.2-.57a4,4,0,0,1,.22-.47,4.78,4.78,0,0,0,.3-.74l.15-.33-.2,0Zm-6.2,63.75h0Zm11.17,1.55Zm-13.31.12Z"/><polygon class="cls-5" points="85.16 86.79 85.16 86.78 85.16 86.79 85.16 86.79 85.16 86.79"/><polygon class="cls-5" points="83.4 87.1 83.39 87.1 83.4 87.1 83.4 87.1 83.4 87.1"/><path class="cls-5" d="M85.67,89.16s0,0,0,0A.09.09,0,0,0,85.67,89.16Z"/><path class="cls-5" d="M102.76,132.46v0Z"/><polygon class="cls-5" points="102.78 132.62 102.78 132.61 102.78 132.61 102.78 132.62 102.78 132.62 102.78 132.62"/><polygon class="cls-5" points="102.78 132.62 102.78 132.62 102.78 132.62 102.78 132.62 102.78 132.62"/><polygon class="cls-5" points="102.78 132.62 102.78 132.62 102.78 132.62 102.78 132.62 102.78 132.62 102.78 132.62"/><path class="cls-6" d="M69.28,53.56a4.78,4.78,0,0,0-.76.09,3,3,0,0,0-.56.22,2.08,2.08,0,0,0-.32.12,2.57,2.57,0,0,0-.41.26,1.85,1.85,0,0,0-.56.65l-.09.18a.74.74,0,0,0-.3.57c0,.12,0,.24,0,.36s-.08.46-.1.68v0a2.28,2.28,0,0,0-.1.52c-.07.33-.14.65-.19,1s0,.46,0,.69a3.31,3.31,0,0,0,0,.55c0,.29,0,.57,0,.86a2.83,2.83,0,0,0,0-.29,6.9,6.9,0,0,0,.09.78,1.1,1.1,0,0,0,0-.18c0,.14,0,.28,0,.42v.24a3.87,3.87,0,0,0,0,.48,1.71,1.71,0,0,1,0,.32,2.43,2.43,0,0,0,0,.6c0,.13,0,.26,0,.39a5.85,5.85,0,0,0,0,.59c0,.33,0,.65,0,1v-.1c0,.06,0,.11,0,.16v0a4,4,0,0,0,.09.48c.05.18.11.36.16.55s.14.47.22.7a1.47,1.47,0,0,0,.21.39l0,0c.07.11.1.24.18.35s.2.28.31.42a2.18,2.18,0,0,0,.72.52l-.08,0a3.13,3.13,0,0,0,.6.24,2.4,2.4,0,0,0,.6.07,2.67,2.67,0,0,0,.56-.06l.23,0,.22,0a2.32,2.32,0,0,0,.37-.13,2.23,2.23,0,0,0,.49-.24,2.61,2.61,0,0,0,.82-.77,5.09,5.09,0,0,0,.54-1.75c0-.23,0-.45.07-.68s0-.43,0-.65,0-.47,0-.7,0-.26,0-.4,0-.29,0-.44c0-.4,0-.79,0-1.19,0-.23,0-.46,0-.7a4.3,4.3,0,0,0,0-.8l0,.25c0-.26,0-.51,0-.77a5.81,5.81,0,0,0-.05-.72c0-.2,0-.41,0-.62s0-.57,0-.86a1.11,1.11,0,0,0,0-.17,7.2,7.2,0,0,0-.25-1.52,1.48,1.48,0,0,0-.23-.53c-.11-.17-.23-.33-.35-.49l-.2-.22a1.63,1.63,0,0,0-.62-.39l-.11,0-.35-.16a2.07,2.07,0,0,0-.5-.06h-.1l-.5,0ZM66,57.34v0Z"/><path class="cls-6" d="M120.82,53.33a6.58,6.58,0,0,0-.63.38,3.34,3.34,0,0,0-.53.37,4,4,0,0,0-.44.48,3.11,3.11,0,0,0-.43.9,5.78,5.78,0,0,0-.17.69,5.47,5.47,0,0,0-.07,1.76c0,.67.16,1.32.23,2,0,.45.07.9.12,1.34,0,.19,0,.37.08.55s0,.36,0,.55a8.86,8.86,0,0,1,0,1c0,.36,0,.72,0,1.08s0,.65.08,1a3,3,0,0,0,.29.94,3.48,3.48,0,0,0,.54.83,2.2,2.2,0,0,0,.8.58h0a3.11,3.11,0,0,0,.82.3l.47.08a2.5,2.5,0,0,0,.47,0,2.81,2.81,0,0,0,.75-.22,2.73,2.73,0,0,0,.71-.44,2.6,2.6,0,0,0,.63-.73,7.1,7.1,0,0,0,.42-.88,8.23,8.23,0,0,0,.26-1.78l.06-.54c0,.08,0,.17,0,.25,0-.28.09-.56.13-.85V63h0V63l0-.12,0-.08c0-.26.1-.52.14-.79s0-.56.07-.84a10.1,10.1,0,0,0,0-1.65h0c0-.42-.06-.84-.12-1.26s-.13-.74-.2-1.11-.13-.74-.22-1.1-.16-.69-.27-1a2.69,2.69,0,0,0-.6-1.16,2.12,2.12,0,0,0-1.11-.64c-.34-.07-.69-.1-1-.15H122a2.89,2.89,0,0,0-1.15.3Zm4.66,9.52,0,.12v0l0-.18Z"/><path class="cls-6" d="M65.37,53.8a.35.35,0,0,0-.17.21.33.33,0,0,0,0,.26.9.9,0,0,0,.26.32l.21.23a5.58,5.58,0,0,1,.37.48l.23.27.19.23c.16.17.32.33.49.48a.28.28,0,1,0,.41-.37c-.16-.15-.32-.29-.46-.45s-.25-.32-.37-.48-.21-.33-.31-.49L66,54.16a2.09,2.09,0,0,0-.24-.28.35.35,0,0,0-.26-.11Z"/><path class="cls-6" d="M67.23,52.28a.32.32,0,0,0-.16.2.33.33,0,0,0,0,.26c.16.39.33.78.5,1.16.09.19.18.37.28.55s.25.39.37.59a.3.3,0,0,0,.54,0,.25.25,0,0,0,0-.22c-.1-.16-.21-.32-.31-.49s-.16-.31-.23-.48-.26-.65-.38-1h0l-.15-.4a.35.35,0,0,0-.3-.18.42.42,0,0,0-.16,0Z"/><path class="cls-6" d="M70,51.55a.3.3,0,0,0-.17.27c0,.2-.06.41-.09.61s0,.47-.07.7,0,.45-.07.67-.06.47-.1.7a.26.26,0,0,0,.07.18.34.34,0,0,0,.17.08.24.24,0,0,0,.18-.07.38.38,0,0,0,.08-.17c0-.27.08-.54.11-.81s.07-.51.1-.77.07-.34.1-.51.1-.34.14-.51a.39.39,0,0,0,0-.24.33.33,0,0,0-.19-.16h-.1a.32.32,0,0,0-.14,0Z"/><path class="cls-6" d="M72.43,52.89a.61.61,0,0,0-.16.12l-.11.15-.08.11a.88.88,0,0,1-.12.17c-.18.21-.37.4-.55.62a5.58,5.58,0,0,0-.57.78.35.35,0,0,0,.11.49.36.36,0,0,0,.5-.11c.13-.19.25-.38.4-.56a3.78,3.78,0,0,1,.48-.5l.3-.34a3.62,3.62,0,0,0,.22-.32h0a.37.37,0,0,0,.08-.44.4.4,0,0,0-.34-.2.32.32,0,0,0-.16,0Z"/><path class="cls-6" d="M73.41,54.76a1.79,1.79,0,0,0-.51.27,3.33,3.33,0,0,1-.46.24c-.22.07-.45.12-.68.17a.32.32,0,0,0-.22.4.31.31,0,0,0,.36.23,6,6,0,0,0,.95-.25,3,3,0,0,0,.4-.2,3.78,3.78,0,0,1,.4-.22.36.36,0,0,0,.17-.38.33.33,0,0,0-.32-.26h-.09Z"/><path class="cls-6" d="M118.4,52.89a.51.51,0,0,0-.22.26.44.44,0,0,0,0,.32,1.21,1.21,0,0,0,.2.3l.18.21c.11.13.22.26.34.38l.85.79a.4.4,0,0,0,.28.12.39.39,0,0,0,.42-.37.38.38,0,0,0-.11-.3,9.32,9.32,0,0,1-1.16-1.19c-.1-.14-.19-.29-.3-.43a.36.36,0,0,0-.31-.13.45.45,0,0,0-.2,0Z"/><path class="cls-6" d="M120.24,51.18a.39.39,0,0,0-.3.36,2.29,2.29,0,0,0,.14.68c.07.21.14.42.2.63s.15.47.24.7a4.12,4.12,0,0,0,.3.64.39.39,0,0,0,.53.15.4.4,0,0,0,.16-.5,3.42,3.42,0,0,1-.21-.43c0-.12-.1-.24-.14-.37s-.17-.52-.25-.79c0-.12-.06-.25-.1-.38a2.09,2.09,0,0,0-.13-.49.39.39,0,0,0-.35-.21h-.09Z"/><path class="cls-6" d="M122.42,51a3,3,0,0,0-.1.67c0,.19,0,.38,0,.57,0,.41,0,.82-.07,1.23a.4.4,0,0,0,.37.4.39.39,0,0,0,.4-.37h0c0-.4,0-.8.07-1.19l.06-.59c0-.09,0-.17,0-.26s0-.23,0-.34a.35.35,0,0,0-.25-.36h-.1a.37.37,0,0,0-.35.25Z"/><path class="cls-6" d="M124.82,52.68l-.2.36a1.27,1.27,0,0,1-.18.27,3.83,3.83,0,0,1-.29.28l-.37.28.06,0-.41.26a.39.39,0,0,0-.14.17.3.3,0,0,0,0,.21.27.27,0,0,0,.38.12h0a8.05,8.05,0,0,0,1-.68,4.73,4.73,0,0,0,.74-.87.35.35,0,0,0-.11-.47.36.36,0,0,0-.47.11Z"/><path class="cls-6" d="M126,54.1l-.32.17-.37.19-.71.44a.4.4,0,0,0-.2.24.44.44,0,0,0,0,.3.39.39,0,0,0,.25.2.44.44,0,0,0,.3,0c.23-.16.47-.3.71-.44l.37-.2a1.28,1.28,0,0,0,.4-.25.4.4,0,0,0,.08-.46.37.37,0,0,0-.35-.21.39.39,0,0,0-.18,0Z"/><path class="cls-6" d="M61.05,95.19a2.9,2.9,0,0,0-.41.06,2.46,2.46,0,0,0-1.13.41l-.26.22a2.37,2.37,0,0,0-.48.47,3.46,3.46,0,0,0-.32.52,3.12,3.12,0,0,0-.26.7,3.26,3.26,0,0,0-.06.62,3.05,3.05,0,0,0,0,.74,4.32,4.32,0,0,0,.2.88c.06.17.11.34.18.5a11.14,11.14,0,0,0,.54,1c.25.42.52.82.79,1.23s.5.75.78,1.11a19,19,0,0,0,2.23,2.07l1.11,1c.4.33.77.7,1.2,1a14.73,14.73,0,0,0,1.63,1c.45.24.87.51,1.32.74l1.35.71c.42.23.82.5,1.25.7s.93.35,1.39.56l1.43.6c1,.38,2,.74,2.94,1.06a7.74,7.74,0,0,0,1,.31l.72.13c.49.08,1,.18,1.44.3s1,.17,1.42.25a12.07,12.07,0,0,1,1.22.3,7.54,7.54,0,0,0,1.13.3c.38.07.76.1,1.15.14l.94.11c.54.06,1.09.07,1.63.1l-.41,0,.53,0c1,.08,2.07.25,3.1.37a22.06,22.06,0,0,0,3.54.2c.6,0,1.21-.1,1.81-.12s1,0,1.58-.07,1.16-.12,1.75-.17,1,0,1.58-.05h.6c.51,0,1,0,1.55,0a18.27,18.27,0,0,0,2.74-.48c.72-.17,1.42-.4,2.14-.56s1.35-.32,2-.46c1-.2,2-.46,3-.68s1.76-.4,2.63-.69,1.62-.6,2.42-.92c.45-.17.91-.34,1.35-.55s.88-.43,1.31-.65.87-.4,1.29-.61.66-.33,1-.53l.72-.46c.46-.27.94-.52,1.39-.82s1-.68,1.53-1a13.8,13.8,0,0,0,1.16-.85c.45-.38.94-.71,1.4-1.09a26.62,26.62,0,0,0,2.67-2.42,4.46,4.46,0,0,0,.54-.77,9.33,9.33,0,0,0,.86-1.32,4.35,4.35,0,0,0,.38-1.32l.06-.43a2.81,2.81,0,0,0-.87-2.43,2.34,2.34,0,0,0-1.76-.56h-.32a2.41,2.41,0,0,0-.8.2,9,9,0,0,0-2,1,13.87,13.87,0,0,0-1.27,1.15c-.16.16-.3.32-.45.48a8.52,8.52,0,0,0-.53.8c-.12.18-.23.37-.34.57l-.32.26c-.2.16-.39.34-.58.51-.45.39-.91.74-1.36,1.12s-1.09.85-1.66,1.25-1.12.78-1.69,1.16c-.3.21-.6.43-.91.63a8,8,0,0,1-1,.54l.16-.08-1.11.59a16.22,16.22,0,0,1-1.78.73c-.69.24-1.37.51-2,.77s-1.28.42-1.92.61l-1.16.31c-.39.11-.79.24-1.19.34l-1.42.25c-.57.09-1.14.13-1.7.2-1.15.14-2.29.36-3.44.47s-2.25.29-3.39.4c-.57.06-1.13,0-1.7,0s-1,0-1.58,0l-1.36,0h-1.4c-.92-.07-1.85-.15-2.77-.25s-1.9-.34-2.85-.46a9.73,9.73,0,0,1-1.42-.32c-.5-.14-1-.25-1.52-.36-.93-.21-1.86-.41-2.77-.68-.6-.21-1.18-.48-1.78-.7l-1-.36-1.06-.43c-.66-.29-1.31-.59-1.95-.94-.33-.19-.65-.39-1-.59l-.81-.47-1.25-.83.32.2-.61-.4c-.52-.33-1-.69-1.51-1.07-.22-.18-.45-.35-.66-.54s-.39-.38-.6-.55-.35-.34-.53-.51-.45-.41-.69-.6-.37-.34-.55-.52l-.52-.5c-.13-.14-.26-.3-.4-.43l-.34-.35a3.5,3.5,0,0,0-.38-.39l-.41-.35c-.28-.23-.52-.51-.81-.74a9.06,9.06,0,0,0-1.18-.85,4.67,4.67,0,0,0-1.14-.45,4.14,4.14,0,0,0-1.11-.16h-.17ZM71.78,103l.1.06Z"/><path class="cls-7" d="M194.44,50.24a3.22,3.22,0,0,1,.69-2.2,2.61,2.61,0,0,1,2-.78v1.13a1.08,1.08,0,0,0-.9.35,1.67,1.67,0,0,0-.28,1.07v.5h1.3v2.33H194.8A9.38,9.38,0,0,1,194.44,50.24Zm3.64,0a3.22,3.22,0,0,1,.69-2.2,2.54,2.54,0,0,1,2-.78v1.13c-.78,0-1.17.48-1.17,1.42v.5h1.29v2.33h-2.47A9.38,9.38,0,0,1,198.08,50.24Z"/><path class="cls-7" d="M217,62.54a7.2,7.2,0,0,1-3,3,10.08,10.08,0,0,1-4.79,1.06h-5.66V49.62h5.66a10.2,10.2,0,0,1,4.79,1,7.22,7.22,0,0,1,3,2.94,10.13,10.13,0,0,1,0,8.94Zm-3.37,0a5.91,5.91,0,0,0,1.63-4.44,5.94,5.94,0,0,0-1.63-4.44A6.48,6.48,0,0,0,209,52h-2.72V64.09H209A6.44,6.44,0,0,0,213.64,62.5Z"/><path class="cls-7" d="M233,60.49H222.83a4.12,4.12,0,0,0,1.13,3,3.66,3.66,0,0,0,2.61,1,3.87,3.87,0,0,0,2.32-.7A2.85,2.85,0,0,0,230.05,62H233a5.71,5.71,0,0,1-1.1,2.47,5.81,5.81,0,0,1-2.19,1.7,7.28,7.28,0,0,1-3,.61,6.81,6.81,0,0,1-3.39-.82A5.77,5.77,0,0,1,221,63.56a8.18,8.18,0,0,1,0-7.22A5.8,5.8,0,0,1,223.3,54a7.56,7.56,0,0,1,6.79,0,5.58,5.58,0,0,1,2.23,2.21,6.35,6.35,0,0,1,.78,3.13A5.9,5.9,0,0,1,233,60.49Zm-3.1-3.42a3.13,3.13,0,0,0-1.35-1.3,4.16,4.16,0,0,0-1.86-.42,3.84,3.84,0,0,0-2.69,1,4,4,0,0,0-1.17,2.9h7.51A4.15,4.15,0,0,0,229.9,57.07Z"/><path class="cls-7" d="M243.81,54.36a5,5,0,0,1,1.72,3.18h-2.59A2.8,2.8,0,0,0,242,55.8a3,3,0,0,0-2-.66,2.31,2.31,0,0,0-1.59.49,1.67,1.67,0,0,0-.57,1.33,1.33,1.33,0,0,0,.41,1,3,3,0,0,0,1,.6q.61.21,1.74.48a17.14,17.14,0,0,1,2.41.69A4,4,0,0,1,245,60.89a3.16,3.16,0,0,1,.65,2.12,3.34,3.34,0,0,1-1.25,2.69,5.21,5.21,0,0,1-3.4,1,6.46,6.46,0,0,1-4-1.15,4.73,4.73,0,0,1-1.83-3.22h2.66a2.49,2.49,0,0,0,1,1.75,3.43,3.43,0,0,0,2.21.67,2.25,2.25,0,0,0,1.55-.51,1.71,1.71,0,0,0,.56-1.31,1.43,1.43,0,0,0-.43-1.1,2.9,2.9,0,0,0-1.08-.64,15.45,15.45,0,0,0-1.78-.47,19.72,19.72,0,0,1-2.34-.67A3.6,3.6,0,0,1,236,59a3.07,3.07,0,0,1-.64-2.05,3.39,3.39,0,0,1,1.26-2.73,5.36,5.36,0,0,1,3.49-1A5.53,5.53,0,0,1,243.81,54.36Z"/><path class="cls-7" d="M248.51,48.35a1.74,1.74,0,0,1,1.27-.46,1.78,1.78,0,0,1,1.28.46,1.48,1.48,0,0,1,.49,1.15,1.4,1.4,0,0,1-.49,1.12,1.86,1.86,0,0,1-1.28.44,1.82,1.82,0,0,1-1.27-.44A1.42,1.42,0,0,1,248,49.5,1.5,1.5,0,0,1,248.51,48.35Zm2.64,5V66.56h-2.74V53.34Z"/><path class="cls-7" d="M262.83,54.06a4.73,4.73,0,0,1,1.8,2.35V53.34h2.74V66.7a6.82,6.82,0,0,1-.76,3.28,5.44,5.44,0,0,1-2.17,2.24,6.54,6.54,0,0,1-3.36.82,7.2,7.2,0,0,1-4.5-1.32,5.72,5.72,0,0,1-2.15-3.58h2.72A3.19,3.19,0,0,0,258.44,70a4.24,4.24,0,0,0,2.45.66,3.76,3.76,0,0,0,2.69-1,3.87,3.87,0,0,0,1.05-2.93V63.49a4.73,4.73,0,0,1-1.8,2.35,5.22,5.22,0,0,1-3.07.89,5.79,5.79,0,0,1-3.08-.82,5.6,5.6,0,0,1-2.13-2.35,9,9,0,0,1,0-7.22A5.62,5.62,0,0,1,256.68,54a5.88,5.88,0,0,1,3.08-.81A5.22,5.22,0,0,1,262.83,54.06Zm-5.14,2.67a5.22,5.22,0,0,0,0,6.41,3.78,3.78,0,0,0,2.91,1.16,4,4,0,0,0,2.07-.54,3.84,3.84,0,0,0,1.44-1.52,4.82,4.82,0,0,0,.52-2.3,4.87,4.87,0,0,0-.52-2.3,3.94,3.94,0,0,0-1.44-1.53,4,4,0,0,0-2.07-.54A3.81,3.81,0,0,0,257.69,56.73Z"/><path class="cls-7" d="M281.75,54.61a6,6,0,0,1,1.39,4.25v7.7H280.4V59.14a3.83,3.83,0,0,0-.91-2.74,3.26,3.26,0,0,0-2.5-1,3.41,3.41,0,0,0-2.61,1,4.27,4.27,0,0,0-1,3.06v7h-2.73V53.34h2.73v2.9a4.48,4.48,0,0,1,1.78-2.3,5.09,5.09,0,0,1,2.88-.82A4.84,4.84,0,0,1,281.75,54.61Z"/><path class="cls-7" d="M294.68,51.82V57h6.24v2.11h-6.24v5.26h7v2.23H292V49.62h9.69v2.2Z"/><path class="cls-7" d="M307,48.8V66.56h-2.73V48.8Z"/><path class="cls-7" d="M310.45,48.35a1.74,1.74,0,0,1,1.27-.46,1.8,1.8,0,0,1,1.29.46,1.51,1.51,0,0,1,.49,1.15,1.43,1.43,0,0,1-.49,1.12,1.89,1.89,0,0,1-1.29.44,1.82,1.82,0,0,1-1.27-.44A1.42,1.42,0,0,1,310,49.5,1.5,1.5,0,0,1,310.45,48.35Zm2.64,5V66.56h-2.74V53.34Z"/><path class="cls-7" d="M324.23,66.56,321,61.88l-2.84,4.68h-3l4.36-6.86-4.41-6.36h3.09l3.17,4.56,2.81-4.56h3L322.79,60l4.53,6.55Z"/><path class="cls-7" d="M329.31,48.35a1.76,1.76,0,0,1,1.28-.46,1.8,1.8,0,0,1,1.28.46,1.48,1.48,0,0,1,.49,1.15,1.4,1.4,0,0,1-.49,1.12,1.88,1.88,0,0,1-1.28.44,1.84,1.84,0,0,1-1.28-.44,1.42,1.42,0,0,1-.48-1.12A1.5,1.5,0,0,1,329.31,48.35Zm2.64,5V66.56h-2.73V53.34Z"/><path class="cls-7" d="M339.92,53.88a5.39,5.39,0,0,1,2.88-.76v3H342a4.53,4.53,0,0,0-2.9.87,3.54,3.54,0,0,0-1.09,2.9v6.69h-2.73V53.34H338v2.59A5.06,5.06,0,0,1,339.92,53.88Z"/><path class="cls-7" d="M362.56,50.5a7.82,7.82,0,0,1,3,3.09,9.65,9.65,0,0,1,0,8.95,7.92,7.92,0,0,1-3,3.1,8.77,8.77,0,0,1-8.54,0,8.08,8.08,0,0,1-3-3.1,9.58,9.58,0,0,1,0-8.95,8,8,0,0,1,3-3.09,8.84,8.84,0,0,1,8.54,0Zm-7.16,2.19a5,5,0,0,0-2,2.13,7.75,7.75,0,0,0,0,6.48,5,5,0,0,0,2,2.14,5.61,5.61,0,0,0,2.9.74,5.48,5.48,0,0,0,2.87-.74,5.05,5.05,0,0,0,2-2.14,7.75,7.75,0,0,0,0-6.48,5.08,5.08,0,0,0-2-2.13,5.49,5.49,0,0,0-2.87-.75A5.62,5.62,0,0,0,355.4,52.69Z"/><path class="cls-7" d="M380.5,54.61a6,6,0,0,1,1.4,4.25v7.7h-2.74V59.14a3.83,3.83,0,0,0-.91-2.74,3.26,3.26,0,0,0-2.5-1,3.39,3.39,0,0,0-2.61,1,4.27,4.27,0,0,0-1,3.06v7h-2.73V53.34h2.73v2.9a4.43,4.43,0,0,1,1.78-2.3,5.09,5.09,0,0,1,2.88-.82A4.81,4.81,0,0,1,380.5,54.61Z"/><path class="cls-7" d="M387.82,48.8V66.56h-2.73V48.8Z"/><path class="cls-7" d="M391.23,48.35a1.76,1.76,0,0,1,1.27-.46,1.8,1.8,0,0,1,1.29.46,1.48,1.48,0,0,1,.49,1.15,1.4,1.4,0,0,1-.49,1.12,1.89,1.89,0,0,1-1.29.44,1.83,1.83,0,0,1-1.27-.44,1.42,1.42,0,0,1-.48-1.12A1.5,1.5,0,0,1,391.23,48.35Zm2.64,5V66.56h-2.73V53.34Z"/><path class="cls-7" d="M408.27,54.61a6,6,0,0,1,1.39,4.25v7.7h-2.73V59.14A3.87,3.87,0,0,0,406,56.4a3.26,3.26,0,0,0-2.5-1,3.43,3.43,0,0,0-2.62,1,4.31,4.31,0,0,0-1,3.06v7h-2.74V53.34h2.74v2.9a4.38,4.38,0,0,1,1.78-2.3,5.09,5.09,0,0,1,2.88-.82A4.83,4.83,0,0,1,408.27,54.61Z"/><path class="cls-7" d="M425.05,60.49H414.87a4.16,4.16,0,0,0,1.13,3,3.68,3.68,0,0,0,2.62,1,3.82,3.82,0,0,0,2.31-.7A2.9,2.9,0,0,0,422.1,62H425a5.6,5.6,0,0,1-1.1,2.47,5.78,5.78,0,0,1-2.18,1.7,7.31,7.31,0,0,1-3,.61,6.85,6.85,0,0,1-3.4-.82A5.83,5.83,0,0,1,413,63.56a8.18,8.18,0,0,1,0-7.22A5.86,5.86,0,0,1,415.34,54a7.56,7.56,0,0,1,6.79,0,5.58,5.58,0,0,1,2.23,2.21,6.35,6.35,0,0,1,.78,3.13A6.83,6.83,0,0,1,425.05,60.49Zm-3.11-3.42a3.16,3.16,0,0,0-1.34-1.3,4.16,4.16,0,0,0-1.86-.42,3.82,3.82,0,0,0-2.69,1,4,4,0,0,0-1.18,2.9h7.51A4,4,0,0,0,421.94,57.07Z"/><path class="cls-7" d="M443.94,64.37a4.34,4.34,0,0,1-1.83,1.71,6.34,6.34,0,0,1-3,.65,7.61,7.61,0,0,1-3.09-.61,5.38,5.38,0,0,1-2.19-1.72,4.87,4.87,0,0,1-.93-2.54h2.92a3,3,0,0,0,.95,1.89,3.06,3.06,0,0,0,2.22.79,2.62,2.62,0,0,0,1.93-.67,2.29,2.29,0,0,0,.69-1.73,2.24,2.24,0,0,0-.51-1.5,3.59,3.59,0,0,0-1.24-.92c-.5-.22-1.18-.48-2-.77a16.36,16.36,0,0,1-2.58-1,4.65,4.65,0,0,1-1.7-1.46,4.22,4.22,0,0,1-.69-2.52,4.29,4.29,0,0,1,.67-2.4,4.41,4.41,0,0,1,1.92-1.6,7,7,0,0,1,2.88-.56,6.33,6.33,0,0,1,4.12,1.25,4.74,4.74,0,0,1,1.74,3.26h-3a2.83,2.83,0,0,0-.9-1.64,3.22,3.22,0,0,0-3.85-.1,2.39,2.39,0,0,0-.21,3.12,3.32,3.32,0,0,0,1.21.89c.49.22,1.15.47,2,.76a16.49,16.49,0,0,1,2.63,1,4.68,4.68,0,0,1,1.73,1.5,4.34,4.34,0,0,1,.71,2.59A4.69,4.69,0,0,1,443.94,64.37Z"/><path class="cls-7" d="M453.92,64.18v2.38h-1.68a3.79,3.79,0,0,1-4.3-4.42V55.66h-1.89V53.34h1.89V50.05h2.76v3.29h3.2v2.32h-3.2v6.53a2.23,2.23,0,0,0,.42,1.56,2,2,0,0,0,1.48.43Z"/><path class="cls-7" d="M466,54a5.81,5.81,0,0,1,2.4,2.36,7.92,7.92,0,0,1,0,7.22,5.78,5.78,0,0,1-2.4,2.35,7.67,7.67,0,0,1-6.9,0,6,6,0,0,1-2.4-2.36,7.25,7.25,0,0,1-.87-3.61,7.16,7.16,0,0,1,.87-3.6,6.05,6.05,0,0,1,2.4-2.36,7.75,7.75,0,0,1,6.9,0Zm-5.4,2a3.65,3.65,0,0,0-1.43,1.48,5.81,5.81,0,0,0,0,4.89,3.59,3.59,0,0,0,1.43,1.46,4.18,4.18,0,0,0,3.89,0,3.59,3.59,0,0,0,1.43-1.46,5.81,5.81,0,0,0,0-4.89A3.65,3.65,0,0,0,464.48,56a4.18,4.18,0,0,0-3.89,0Z"/><path class="cls-7" d="M476.55,53.88a5.39,5.39,0,0,1,2.88-.76v3h-.81a4.53,4.53,0,0,0-2.9.87,3.54,3.54,0,0,0-1.09,2.9v6.69H471.9V53.34h2.73v2.59A5.06,5.06,0,0,1,476.55,53.88Z"/><path class="cls-7" d="M493.66,60.49H483.49a4.12,4.12,0,0,0,1.13,3,3.66,3.66,0,0,0,2.61,1,3.85,3.85,0,0,0,2.32-.7A2.85,2.85,0,0,0,490.71,62h2.93a5.62,5.62,0,0,1-3.29,4.17,7.24,7.24,0,0,1-3,.61,6.81,6.81,0,0,1-3.39-.82,5.77,5.77,0,0,1-2.32-2.35,8.18,8.18,0,0,1,0-7.22A5.8,5.8,0,0,1,484,54a7.56,7.56,0,0,1,6.79,0A5.58,5.58,0,0,1,493,56.18a6.35,6.35,0,0,1,.78,3.13A5.9,5.9,0,0,1,493.66,60.49Zm-3.1-3.42a3.13,3.13,0,0,0-1.35-1.3,4.16,4.16,0,0,0-1.86-.42,3.84,3.84,0,0,0-2.69,1,4,4,0,0,0-1.17,2.9H491A4.15,4.15,0,0,0,490.56,57.07Z"/><path class="cls-7" d="M498.51,49.66a3.25,3.25,0,0,1-.68,2.21,2.54,2.54,0,0,1-2,.77V51.49a1.1,1.1,0,0,0,.89-.35,1.61,1.61,0,0,0,.29-1v-.51h-1.3V47.26h2.48A8.59,8.59,0,0,1,498.51,49.66Zm3.65,0a3.15,3.15,0,0,1-.7,2.21,2.54,2.54,0,0,1-2,.77V51.49a1.1,1.1,0,0,0,.9-.34,1.65,1.65,0,0,0,.27-1v-.51h-1.29V47.26h2.47A9.2,9.2,0,0,1,502.16,49.66Z"/><path class="cls-7" d="M510.46,48.35a1.76,1.76,0,0,1,1.28-.46,1.8,1.8,0,0,1,1.28.46,1.48,1.48,0,0,1,.49,1.15,1.4,1.4,0,0,1-.49,1.12,1.88,1.88,0,0,1-1.28.44,1.84,1.84,0,0,1-1.28-.44A1.42,1.42,0,0,1,510,49.5,1.5,1.5,0,0,1,510.46,48.35Zm2.64,5V66.56h-2.73V53.34Z"/><path class="cls-7" d="M524.49,54.36a5,5,0,0,1,1.72,3.18h-2.59a2.81,2.81,0,0,0-.93-1.74,2.92,2.92,0,0,0-2-.66,2.36,2.36,0,0,0-1.6.49,1.69,1.69,0,0,0-.56,1.33,1.3,1.3,0,0,0,.41,1,3,3,0,0,0,1,.6q.6.21,1.74.48a17.14,17.14,0,0,1,2.41.69,4,4,0,0,1,1.58,1.15,3.17,3.17,0,0,1,.66,2.12,3.32,3.32,0,0,1-1.26,2.69,5.18,5.18,0,0,1-3.39,1,6.46,6.46,0,0,1-4-1.15,4.74,4.74,0,0,1-1.84-3.22h2.67a2.49,2.49,0,0,0,1,1.75,3.41,3.41,0,0,0,2.21.67,2.2,2.2,0,0,0,1.54-.51,1.68,1.68,0,0,0,.57-1.31,1.47,1.47,0,0,0-.43-1.1,2.9,2.9,0,0,0-1.08-.64,16,16,0,0,0-1.78-.47,19.72,19.72,0,0,1-2.34-.67A3.69,3.69,0,0,1,516.64,59a3.12,3.12,0,0,1-.63-2.05,3.39,3.39,0,0,1,1.26-2.73,5.34,5.34,0,0,1,3.49-1A5.53,5.53,0,0,1,524.49,54.36Z"/><path class="cls-7" d="M545.79,54.61a6,6,0,0,1,1.39,4.25v7.7h-2.73V59.14a3.87,3.87,0,0,0-.91-2.74,3.26,3.26,0,0,0-2.5-1,3.43,3.43,0,0,0-2.62,1,4.31,4.31,0,0,0-1,3.06v7H534.7V53.34h2.74v2.9a4.38,4.38,0,0,1,1.78-2.3,5.09,5.09,0,0,1,2.88-.82A4.83,4.83,0,0,1,545.79,54.61Z"/><path class="cls-7" d="M559.88,54a5.93,5.93,0,0,1,2.4,2.36,8,8,0,0,1,0,7.22,5.9,5.9,0,0,1-2.4,2.35,7.19,7.19,0,0,1-3.46.82,7.11,7.11,0,0,1-3.44-.82,5.86,5.86,0,0,1-2.4-2.36,7.26,7.26,0,0,1-.88-3.61,7.16,7.16,0,0,1,.88-3.6A5.93,5.93,0,0,1,553,54a7.22,7.22,0,0,1,3.44-.81A7.3,7.3,0,0,1,559.88,54Zm-5.4,2a3.65,3.65,0,0,0-1.43,1.48,5.81,5.81,0,0,0,0,4.89,3.59,3.59,0,0,0,1.43,1.46,4.18,4.18,0,0,0,3.89,0,3.59,3.59,0,0,0,1.43-1.46,5.81,5.81,0,0,0,0-4.89A3.65,3.65,0,0,0,558.37,56a4.18,4.18,0,0,0-3.89,0Z"/><path class="cls-7" d="M572.43,64.18v2.38h-1.68a3.78,3.78,0,0,1-4.29-4.42V55.66h-1.9V53.34h1.9V50.05h2.76v3.29h3.19v2.32h-3.19v6.53a2.23,2.23,0,0,0,.42,1.56,2,2,0,0,0,1.47.43Z"/><path class="cls-7" d="M589,54.06a4.73,4.73,0,0,1,1.8,2.35V53.34h2.74V66.56h-2.74V63.49a4.73,4.73,0,0,1-1.8,2.35,5.24,5.24,0,0,1-3.07.89,5.79,5.79,0,0,1-3.08-.82,5.53,5.53,0,0,1-2.13-2.35,8.85,8.85,0,0,1,0-7.22A5.56,5.56,0,0,1,582.84,54a5.88,5.88,0,0,1,3.08-.81A5.24,5.24,0,0,1,589,54.06Zm-5.15,2.67a5.26,5.26,0,0,0,0,6.41,3.8,3.8,0,0,0,2.92,1.16,3.93,3.93,0,0,0,2.06-.54,3.71,3.71,0,0,0,1.44-1.52,4.71,4.71,0,0,0,.53-2.3,4.76,4.76,0,0,0-.53-2.3,3.8,3.8,0,0,0-1.44-1.53,3.93,3.93,0,0,0-2.06-.54A3.83,3.83,0,0,0,583.84,56.73Z"/><path class="cls-7" d="M602.24,63.73,606,53.34h2.93l-5,13.22h-3.31l-5-13.22h2.93Z"/><path class="cls-7" d="M619.3,54.06a4.73,4.73,0,0,1,1.8,2.35V53.34h2.74V66.56H621.1V63.49a4.73,4.73,0,0,1-1.8,2.35,5.22,5.22,0,0,1-3.07.89,5.79,5.79,0,0,1-3.08-.82A5.6,5.6,0,0,1,611,63.56a9,9,0,0,1,0-7.22A5.62,5.62,0,0,1,613.15,54a5.88,5.88,0,0,1,3.08-.81A5.22,5.22,0,0,1,619.3,54.06Zm-5.14,2.67a5.22,5.22,0,0,0,0,6.41,3.78,3.78,0,0,0,2.91,1.16,4,4,0,0,0,2.07-.54,3.84,3.84,0,0,0,1.44-1.52,4.82,4.82,0,0,0,.52-2.3,4.87,4.87,0,0,0-.52-2.3,3.94,3.94,0,0,0-1.44-1.53,4,4,0,0,0-2.07-.54A3.81,3.81,0,0,0,614.16,56.73Z"/><path class="cls-7" d="M627.22,48.35a1.76,1.76,0,0,1,1.28-.46,1.8,1.8,0,0,1,1.28.46,1.48,1.48,0,0,1,.49,1.15,1.4,1.4,0,0,1-.49,1.12,1.88,1.88,0,0,1-1.28.44,1.84,1.84,0,0,1-1.28-.44,1.42,1.42,0,0,1-.47-1.12A1.49,1.49,0,0,1,627.22,48.35Zm2.64,5V66.56h-2.73V53.34Z"/><path class="cls-7" d="M635.91,48.8V66.56h-2.73V48.8Z"/><path class="cls-7" d="M647.6,54.06a4.73,4.73,0,0,1,1.8,2.35V53.34h2.74V66.56H649.4V63.49a4.73,4.73,0,0,1-1.8,2.35,5.24,5.24,0,0,1-3.07.89,5.85,5.85,0,0,1-3.09-.82,5.58,5.58,0,0,1-2.12-2.35,8.85,8.85,0,0,1,0-7.22A5.6,5.6,0,0,1,641.44,54a5.94,5.94,0,0,1,3.09-.81A5.24,5.24,0,0,1,647.6,54.06Zm-5.15,2.67a5.26,5.26,0,0,0,0,6.41,3.8,3.8,0,0,0,2.92,1.16,4,4,0,0,0,2.06-.54,3.71,3.71,0,0,0,1.44-1.52,4.82,4.82,0,0,0,.53-2.3,4.88,4.88,0,0,0-.53-2.3,3.8,3.8,0,0,0-1.44-1.53,4,4,0,0,0-2.06-.54A3.83,3.83,0,0,0,642.45,56.73Z"/><path class="cls-7" d="M666.09,54a5.62,5.62,0,0,1,2.13,2.36,9,9,0,0,1,0,7.22,5.6,5.6,0,0,1-2.13,2.35,5.79,5.79,0,0,1-3.08.82,5.22,5.22,0,0,1-3.07-.89,4.63,4.63,0,0,1-1.78-2.35v3.07h-2.74V48.8h2.74v7.61a4.63,4.63,0,0,1,1.78-2.35,5.22,5.22,0,0,1,3.07-.89A5.88,5.88,0,0,1,666.09,54Zm-6,2.13a3.94,3.94,0,0,0-1.44,1.53,4.87,4.87,0,0,0-.52,2.3,4.82,4.82,0,0,0,.52,2.3,3.84,3.84,0,0,0,1.44,1.52,4,4,0,0,0,2.07.54,3.85,3.85,0,0,0,2.93-1.16,4.47,4.47,0,0,0,1.1-3.2,4.52,4.52,0,0,0-1.1-3.2,3.86,3.86,0,0,0-2.93-1.17A4,4,0,0,0,660.1,56.11Z"/><path class="cls-7" d="M674.36,48.8V66.56h-2.74V48.8Z"/><path class="cls-7" d="M689.86,60.49H679.69a4.12,4.12,0,0,0,1.12,3,3.7,3.7,0,0,0,2.62,1,3.87,3.87,0,0,0,2.32-.7A2.85,2.85,0,0,0,686.91,62h2.93a5.68,5.68,0,0,1-3.29,4.17,7.31,7.31,0,0,1-3,.61,6.87,6.87,0,0,1-3.4-.82,5.81,5.81,0,0,1-2.31-2.35,8.18,8.18,0,0,1,0-7.22A5.84,5.84,0,0,1,680.15,54a7.58,7.58,0,0,1,6.8,0,5.64,5.64,0,0,1,2.23,2.21,6.35,6.35,0,0,1,.78,3.13A5.9,5.9,0,0,1,689.86,60.49Zm-3.11-3.42a3.06,3.06,0,0,0-1.34-1.3,4.16,4.16,0,0,0-1.86-.42,3.84,3.84,0,0,0-2.69,1,4,4,0,0,0-1.17,2.9h7.51A4.06,4.06,0,0,0,686.75,57.07Z"/><path class="cls-7" d="M699.77,53.34l4,9.72,3.68-9.72h3.05l-8,19.51h-3l2.85-6.6L696.7,53.34Z"/><path class="cls-7" d="M724.45,60.49H714.27a4.12,4.12,0,0,0,1.13,3,3.66,3.66,0,0,0,2.61,1,3.83,3.83,0,0,0,2.32-.7A2.9,2.9,0,0,0,721.5,62h2.92a5.6,5.6,0,0,1-1.1,2.47,5.73,5.73,0,0,1-2.19,1.7,7.24,7.24,0,0,1-3,.61,6.81,6.81,0,0,1-3.39-.82,5.77,5.77,0,0,1-2.32-2.35,8.18,8.18,0,0,1,0-7.22A5.8,5.8,0,0,1,714.74,54a7.56,7.56,0,0,1,6.79,0,5.58,5.58,0,0,1,2.23,2.21,6.35,6.35,0,0,1,.78,3.13A6.83,6.83,0,0,1,724.45,60.49Zm-3.11-3.42a3.16,3.16,0,0,0-1.34-1.3,4.17,4.17,0,0,0-1.87-.42,3.81,3.81,0,0,0-2.68,1,4,4,0,0,0-1.18,2.9h7.51A4.06,4.06,0,0,0,721.34,57.07Z"/><path class="cls-7" d="M733.83,64.18v2.38h-1.68a3.79,3.79,0,0,1-4.3-4.42V55.66H726V53.34h1.89V50.05h2.76v3.29h3.2v2.32h-3.2v6.53a2.23,2.23,0,0,0,.42,1.56,2,2,0,0,0,1.48.43Z"/><path class="cls-7" d="M738.56,63.54v3h-3.1v-3Z"/><path class="cls-8" d="M205.46,100a6.53,6.53,0,0,1,2.32,3.47h-1.92a4.75,4.75,0,0,0-1.74-2.23,5.07,5.07,0,0,0-2.94-.83A4.53,4.53,0,0,0,197,103a6.45,6.45,0,0,0-.63,2.93,6.29,6.29,0,0,0,.63,2.9,4.54,4.54,0,0,0,4.19,2.58,5,5,0,0,0,2.94-.83,4.65,4.65,0,0,0,1.74-2.23h1.92a6.46,6.46,0,0,1-2.32,3.47,6.85,6.85,0,0,1-4.26,1.27,6.64,6.64,0,0,1-3.5-.91,6.25,6.25,0,0,1-2.37-2.54,7.84,7.84,0,0,1-.85-3.71,8,8,0,0,1,.85-3.74,6.34,6.34,0,0,1,2.37-2.55,6.74,6.74,0,0,1,3.5-.91A6.91,6.91,0,0,1,205.46,100Z"/><path class="cls-8" d="M219.1,103a4.93,4.93,0,0,1,1.18,3.55V113h-1.82v-6.22a3.52,3.52,0,0,0-.84-2.52,3,3,0,0,0-2.28-.88,3.14,3.14,0,0,0-2.4,1,4,4,0,0,0-.9,2.83V113h-1.82V98.16H212v6.42a3.77,3.77,0,0,1,1.49-2.06,4.32,4.32,0,0,1,2.47-.72A4.1,4.1,0,0,1,219.1,103Z"/><path class="cls-8" d="M233.1,107.86h-8.78a3.84,3.84,0,0,0,1.07,2.82,3.48,3.48,0,0,0,2.47.94,3.54,3.54,0,0,0,2.21-.67,2.75,2.75,0,0,0,1.09-1.79h1.94a4.58,4.58,0,0,1-2.68,3.44,5.82,5.82,0,0,1-2.48.5,5.58,5.58,0,0,1-2.8-.68,4.79,4.79,0,0,1-1.91-2,6.14,6.14,0,0,1-.69-3,6.27,6.27,0,0,1,.69-3,4.87,4.87,0,0,1,1.91-2,5.69,5.69,0,0,1,2.8-.68,5.54,5.54,0,0,1,2.79.68,4.75,4.75,0,0,1,1.82,1.82,5.12,5.12,0,0,1,.63,2.52A5.7,5.7,0,0,1,233.1,107.86Zm-2.16-2.92a3,3,0,0,0-1.26-1.22,3.9,3.9,0,0,0-1.74-.4,3.6,3.6,0,0,0-2.52.93,3.74,3.74,0,0,0-1.1,2.73h7A3.72,3.72,0,0,0,230.94,104.94Z"/><path class="cls-8" d="M243.9,103a4.75,4.75,0,0,1,1.7,3h-1.92a2.83,2.83,0,0,0-1.09-1.85,3.85,3.85,0,0,0-4-.23,3.26,3.26,0,0,0-1.27,1.35,4.8,4.8,0,0,0-.48,2.25,4.74,4.74,0,0,0,.48,2.25,3.14,3.14,0,0,0,1.27,1.35,3.83,3.83,0,0,0,4-.24,2.83,2.83,0,0,0,1.09-1.86h1.92a4.69,4.69,0,0,1-1.7,3,5.38,5.38,0,0,1-3.48,1.11,5.58,5.58,0,0,1-2.8-.68,4.79,4.79,0,0,1-1.91-2,6.14,6.14,0,0,1-.69-3,6.27,6.27,0,0,1,.69-3,4.87,4.87,0,0,1,1.91-2,5.69,5.69,0,0,1,2.8-.68A5.38,5.38,0,0,1,243.9,103Z"/><path class="cls-8" d="M254,113,249.8,108V113H248V98.16h1.82v8.6l4.14-4.78h2.22l-4.92,5.46,5,5.52Z"/><path class="cls-8" d="M271.48,102.52a4.73,4.73,0,0,1,1.79,2,6.63,6.63,0,0,1,.65,3,6.5,6.5,0,0,1-.65,3,4.64,4.64,0,0,1-1.79,2,4.92,4.92,0,0,1-2.6.68,4.47,4.47,0,0,1-2.71-.81,4.12,4.12,0,0,1-1.53-2.13V113h-1.82V98.16h1.82v6.62a4.12,4.12,0,0,1,1.53-2.13,4.47,4.47,0,0,1,2.71-.81A5,5,0,0,1,271.48,102.52Zm-5,1.43a3.44,3.44,0,0,0-1.34,1.41,4.54,4.54,0,0,0-.48,2.12,4.44,4.44,0,0,0,.48,2.11,3.44,3.44,0,0,0,1.34,1.41,3.67,3.67,0,0,0,1.92.5,3.53,3.53,0,0,0,2.71-1.07,4.81,4.81,0,0,0,0-5.9,3.56,3.56,0,0,0-2.71-1.07A3.86,3.86,0,0,0,266.44,104Z"/><path class="cls-8" d="M283.51,102.64a4.19,4.19,0,0,1,1.55,2.14V102h1.82v11h-1.82v-2.8a4.11,4.11,0,0,1-1.55,2.14,4.46,4.46,0,0,1-2.71.8,4.92,4.92,0,0,1-2.6-.68,4.64,4.64,0,0,1-1.79-2,6.5,6.5,0,0,1-.65-3,6.63,6.63,0,0,1,.65-3,4.73,4.73,0,0,1,1.79-2,5,5,0,0,1,2.6-.68A4.53,4.53,0,0,1,283.51,102.64Zm-4.88,1.89a4.81,4.81,0,0,0,0,5.9,3.5,3.5,0,0,0,2.69,1.07,3.68,3.68,0,0,0,1.93-.5,3.42,3.42,0,0,0,1.33-1.41,4.44,4.44,0,0,0,.48-2.11,4.54,4.54,0,0,0-.48-2.12,3.42,3.42,0,0,0-1.33-1.41,3.87,3.87,0,0,0-1.93-.49A3.53,3.53,0,0,0,278.63,104.53Z"/><path class="cls-8" d="M298.12,103a4.75,4.75,0,0,1,1.7,3H297.9a2.83,2.83,0,0,0-1.09-1.85,3.85,3.85,0,0,0-4-.23,3.26,3.26,0,0,0-1.27,1.35,4.8,4.8,0,0,0-.48,2.25,4.74,4.74,0,0,0,.48,2.25,3.14,3.14,0,0,0,1.27,1.35,3.83,3.83,0,0,0,4-.24A2.83,2.83,0,0,0,297.9,109h1.92a4.69,4.69,0,0,1-1.7,3,5.38,5.38,0,0,1-3.48,1.11,5.58,5.58,0,0,1-2.8-.68,4.79,4.79,0,0,1-1.91-2,6.14,6.14,0,0,1-.69-3,6.27,6.27,0,0,1,.69-3,4.87,4.87,0,0,1,1.91-2,5.69,5.69,0,0,1,2.8-.68A5.38,5.38,0,0,1,298.12,103Z"/><path class="cls-8" d="M308.22,113,304,108V113H302.2V98.16H304v8.6l4.14-4.78h2.22l-4.92,5.46,5,5.52Z"/><path class="cls-8" d="M319.87,99.88a2.37,2.37,0,0,0-.57,1.8v.3h2.6v1.6h-2.6V113h-1.82v-9.38H315.9V102h1.58v-.44c0-2.62,1.47-3.88,4.42-3.76v1.6A3,3,0,0,0,319.87,99.88Z"/><path class="cls-8" d="M331.69,102.52a4.93,4.93,0,0,1,2,2,6.16,6.16,0,0,1,.71,3,6,6,0,0,1-.71,3,4.84,4.84,0,0,1-2,2,6.23,6.23,0,0,1-5.66,0,4.93,4.93,0,0,1-2-2,5.94,5.94,0,0,1-.72-3,6.05,6.05,0,0,1,.72-3,5,5,0,0,1,2-2,6.23,6.23,0,0,1,5.66,0Zm-4.64,1.36a3.41,3.41,0,0,0-1.34,1.35,4.56,4.56,0,0,0-.51,2.25,4.48,4.48,0,0,0,.51,2.23,3.29,3.29,0,0,0,1.34,1.35,3.94,3.94,0,0,0,3.62,0,3.29,3.29,0,0,0,1.34-1.35,4.48,4.48,0,0,0,.51-2.23,4.56,4.56,0,0,0-.51-2.25,3.41,3.41,0,0,0-1.34-1.35,3.94,3.94,0,0,0-3.62,0Z"/><path class="cls-8" d="M340.14,102.43a4.69,4.69,0,0,1,2.48-.63v2h-.56a3.91,3.91,0,0,0-2.52.79,3.18,3.18,0,0,0-1,2.61V113h-1.82V102h1.82v2.22A4.06,4.06,0,0,1,340.14,102.43Z"/><path class="cls-8" d="M358.24,103a5,5,0,0,1,1.18,3.55V113H357.6v-6.22a3.52,3.52,0,0,0-.84-2.52,3,3,0,0,0-2.28-.88,3.14,3.14,0,0,0-2.4,1,4,4,0,0,0-.9,2.83V113h-1.82V98.16h1.82v6.42a3.77,3.77,0,0,1,1.49-2.06,4.32,4.32,0,0,1,2.47-.72A4.1,4.1,0,0,1,358.24,103Z"/><path class="cls-8" d="M369.43,102.64a4.19,4.19,0,0,1,1.55,2.14V102h1.82v11H371v-2.8a4.11,4.11,0,0,1-1.55,2.14,4.48,4.48,0,0,1-2.71.8,4.9,4.9,0,0,1-2.6-.68,4.64,4.64,0,0,1-1.79-2,6.5,6.5,0,0,1-.65-3,6.63,6.63,0,0,1,.65-3,4.73,4.73,0,0,1,1.79-2,5,5,0,0,1,2.6-.68A4.55,4.55,0,0,1,369.43,102.64Zm-4.88,1.89a4.81,4.81,0,0,0,0,5.9,3.5,3.5,0,0,0,2.69,1.07,3.68,3.68,0,0,0,1.93-.5,3.48,3.48,0,0,0,1.33-1.41,4.44,4.44,0,0,0,.48-2.11,4.54,4.54,0,0,0-.48-2.12,3.48,3.48,0,0,0-1.33-1.41,3.87,3.87,0,0,0-1.93-.49A3.53,3.53,0,0,0,364.55,104.53Z"/><path class="cls-8" d="M384.58,103a5,5,0,0,1,1.18,3.55V113h-1.82v-6.22a3.52,3.52,0,0,0-.84-2.52,3,3,0,0,0-2.28-.88,3.14,3.14,0,0,0-2.4,1,4,4,0,0,0-.9,2.83V113H375.7V102h1.82v2.6a3.72,3.72,0,0,1,1.49-2.06,4.3,4.3,0,0,1,2.47-.72A4.1,4.1,0,0,1,384.58,103Z"/><path class="cls-8" d="M395.77,102.64a4.25,4.25,0,0,1,1.55,2.14V98.16h1.82V113h-1.82v-2.8a4.17,4.17,0,0,1-1.55,2.14,4.48,4.48,0,0,1-2.71.8,4.9,4.9,0,0,1-2.6-.68,4.64,4.64,0,0,1-1.79-2,6.37,6.37,0,0,1-.65-3,6.5,6.5,0,0,1,.65-3,4.73,4.73,0,0,1,1.79-2,5,5,0,0,1,2.6-.68A4.55,4.55,0,0,1,395.77,102.64Zm-4.88,1.89a4.81,4.81,0,0,0,0,5.9,3.5,3.5,0,0,0,2.69,1.07,3.68,3.68,0,0,0,1.93-.5,3.48,3.48,0,0,0,1.33-1.41,4.44,4.44,0,0,0,.48-2.11,4.54,4.54,0,0,0-.48-2.12,3.48,3.48,0,0,0-1.33-1.41,3.87,3.87,0,0,0-1.93-.49A3.53,3.53,0,0,0,390.89,104.53Z"/><path class="cls-8" d="M408.28,104.86v1.54h-8v-1.54Z"/><path class="cls-8" d="M420.2,103a4.79,4.79,0,0,1,1.7,3H420a2.87,2.87,0,0,0-1.09-1.85,3.63,3.63,0,0,0-2.21-.67,3.55,3.55,0,0,0-1.75.44,3.26,3.26,0,0,0-1.27,1.35,4.8,4.8,0,0,0-.48,2.25,4.74,4.74,0,0,0,.48,2.25,3.14,3.14,0,0,0,1.27,1.35,3.45,3.45,0,0,0,1.75.44,3.51,3.51,0,0,0,2.21-.68A2.87,2.87,0,0,0,420,109h1.92a4.74,4.74,0,0,1-1.7,3,5.38,5.38,0,0,1-3.48,1.11,5.56,5.56,0,0,1-2.8-.68,4.72,4.72,0,0,1-1.91-2,6.14,6.14,0,0,1-.69-3,6.27,6.27,0,0,1,.69-3,4.81,4.81,0,0,1,1.91-2,5.66,5.66,0,0,1,2.8-.68A5.38,5.38,0,0,1,420.2,103Z"/><path class="cls-8" d="M427.68,102.43a4.69,4.69,0,0,1,2.48-.63v2h-.56a3.91,3.91,0,0,0-2.52.79,3.15,3.15,0,0,0-1,2.61V113h-1.82V102h1.82v2.22A4,4,0,0,1,427.68,102.43Z"/><path class="cls-8" d="M439.17,102.64a4.25,4.25,0,0,1,1.55,2.14V102h1.82v11h-1.82v-2.8a4.17,4.17,0,0,1-1.55,2.14,4.48,4.48,0,0,1-2.71.8,4.9,4.9,0,0,1-2.6-.68,4.64,4.64,0,0,1-1.79-2,6.37,6.37,0,0,1-.65-3,6.5,6.5,0,0,1,.65-3,4.73,4.73,0,0,1,1.79-2,5,5,0,0,1,2.6-.68A4.55,4.55,0,0,1,439.17,102.64Zm-4.88,1.89a4.81,4.81,0,0,0,0,5.9A3.5,3.5,0,0,0,437,111.5a3.68,3.68,0,0,0,1.93-.5,3.48,3.48,0,0,0,1.33-1.41,4.44,4.44,0,0,0,.48-2.11,4.54,4.54,0,0,0-.48-2.12,3.48,3.48,0,0,0-1.33-1.41,3.87,3.87,0,0,0-1.93-.49A3.53,3.53,0,0,0,434.29,104.53Z"/><path class="cls-8" d="M448.27,99.88a2.37,2.37,0,0,0-.57,1.8v.3h2.6v1.6h-2.6V113h-1.82v-9.38H444.3V102h1.58v-.44c0-2.62,1.47-3.88,4.42-3.76v1.6A3,3,0,0,0,448.27,99.88Z"/><path class="cls-8" d="M457.52,111.36V113h-1.36a3.46,3.46,0,0,1-2.51-.8,3.57,3.57,0,0,1-.83-2.68v-5.92h-1.64V102h1.64V99.24h1.84V102h2.84v1.58h-2.84v6a2,2,0,0,0,.39,1.45,1.88,1.88,0,0,0,1.35.39Z"/><path class="cls-8" d="M469.76,107.86H461a3.8,3.8,0,0,0,1.07,2.82,3.46,3.46,0,0,0,2.47.94,3.56,3.56,0,0,0,2.21-.67,2.79,2.79,0,0,0,1.09-1.79h1.94a4.69,4.69,0,0,1-.89,2,4.61,4.61,0,0,1-1.79,1.4,5.85,5.85,0,0,1-2.48.5,5.56,5.56,0,0,1-2.8-.68,4.72,4.72,0,0,1-1.91-2,6.14,6.14,0,0,1-.69-3,6.27,6.27,0,0,1,.69-3,4.81,4.81,0,0,1,1.91-2,5.66,5.66,0,0,1,2.8-.68,5.6,5.6,0,0,1,2.79.68,4.75,4.75,0,0,1,1.82,1.82,5.12,5.12,0,0,1,.63,2.52A5.7,5.7,0,0,1,469.76,107.86Zm-2.16-2.92a3,3,0,0,0-1.26-1.22,4,4,0,0,0-1.74-.4,3.6,3.6,0,0,0-2.52.93A3.74,3.74,0,0,0,461,107h7A3.81,3.81,0,0,0,467.6,104.94Z"/><path class="cls-8" d="M479.43,102.64a4.25,4.25,0,0,1,1.55,2.14V98.16h1.82V113H481v-2.8a4.17,4.17,0,0,1-1.55,2.14,4.48,4.48,0,0,1-2.71.8,4.9,4.9,0,0,1-2.6-.68,4.64,4.64,0,0,1-1.79-2,6.37,6.37,0,0,1-.65-3,6.5,6.5,0,0,1,.65-3,4.73,4.73,0,0,1,1.79-2,5,5,0,0,1,2.6-.68A4.55,4.55,0,0,1,479.43,102.64Zm-4.88,1.89a4.81,4.81,0,0,0,0,5.9,3.5,3.5,0,0,0,2.69,1.07,3.68,3.68,0,0,0,1.93-.5,3.48,3.48,0,0,0,1.33-1.41,4.44,4.44,0,0,0,.48-2.11,4.54,4.54,0,0,0-.48-2.12,3.48,3.48,0,0,0-1.33-1.41,3.87,3.87,0,0,0-1.93-.49A3.53,3.53,0,0,0,474.55,104.53Z"/><path class="cls-8" d="M497.84,102.64a4.19,4.19,0,0,1,1.55,2.14V98.16h1.82V113h-1.82v-2.8a4.11,4.11,0,0,1-1.55,2.14,4.46,4.46,0,0,1-2.71.8,4.86,4.86,0,0,1-2.59-.68,4.58,4.58,0,0,1-1.79-2,6.37,6.37,0,0,1-.66-3,6.5,6.5,0,0,1,.66-3,4.66,4.66,0,0,1,1.79-2,5,5,0,0,1,2.59-.68A4.53,4.53,0,0,1,497.84,102.64ZM493,104.53a4.85,4.85,0,0,0,0,5.9,3.53,3.53,0,0,0,2.7,1.07,3.62,3.62,0,0,0,1.92-.5,3.51,3.51,0,0,0,1.34-1.41,4.56,4.56,0,0,0,.47-2.11,4.66,4.66,0,0,0-.47-2.12,3.51,3.51,0,0,0-1.34-1.41,3.81,3.81,0,0,0-1.92-.49A3.57,3.57,0,0,0,493,104.53Z"/><path class="cls-8" d="M504.13,98a1.33,1.33,0,0,1,.9-.31,1.29,1.29,0,0,1,.9.31,1,1,0,0,1,.34.81,1,1,0,0,1-.34.81,1.25,1.25,0,0,1-.9.31,1.28,1.28,0,0,1-.9-.31,1,1,0,0,1-.34-.81A1.08,1.08,0,0,1,504.13,98Zm1.8,4v11h-1.82V102Z"/><path class="cls-8" d="M516.06,102.64a4.19,4.19,0,0,1,1.55,2.14V102h1.82v11.16a5.5,5.5,0,0,1-.64,2.7,4.49,4.49,0,0,1-1.8,1.84,5.35,5.35,0,0,1-2.7.66,5.77,5.77,0,0,1-3.62-1.07,4.74,4.74,0,0,1-1.78-2.89h1.8a3.14,3.14,0,0,0,1.21,1.73,3.89,3.89,0,0,0,2.29.63,3.32,3.32,0,0,0,2.45-.95,3.51,3.51,0,0,0,1-2.65v-3a4.11,4.11,0,0,1-1.55,2.14,4.46,4.46,0,0,1-2.71.8,4.92,4.92,0,0,1-2.6-.68,4.71,4.71,0,0,1-1.79-2,6.5,6.5,0,0,1-.65-3,6.63,6.63,0,0,1,.65-3,4.8,4.8,0,0,1,1.79-2,5,5,0,0,1,2.6-.68A4.53,4.53,0,0,1,516.06,102.64Zm-4.88,1.89a4.81,4.81,0,0,0,0,5.9,3.52,3.52,0,0,0,2.7,1.07,3.64,3.64,0,0,0,1.92-.5,3.42,3.42,0,0,0,1.33-1.41,4.44,4.44,0,0,0,.48-2.11,4.54,4.54,0,0,0-.48-2.12A3.42,3.42,0,0,0,515.8,104a3.83,3.83,0,0,0-1.92-.49A3.55,3.55,0,0,0,511.18,104.53Z"/><path class="cls-8" d="M522.35,98a1.33,1.33,0,0,1,.9-.31,1.29,1.29,0,0,1,.9.31,1,1,0,0,1,.34.81,1,1,0,0,1-.34.81,1.25,1.25,0,0,1-.9.31,1.28,1.28,0,0,1-.9-.31,1,1,0,0,1-.34-.81A1.08,1.08,0,0,1,522.35,98Zm1.8,4v11h-1.82V102Z"/><path class="cls-8" d="M532.31,111.36V113H531a3.47,3.47,0,0,1-2.51-.8,3.61,3.61,0,0,1-.83-2.68v-5.92H526V102h1.64V99.24h1.84V102h2.84v1.58h-2.84v6a2,2,0,0,0,.39,1.45,1.88,1.88,0,0,0,1.35.39Z"/><path class="cls-8" d="M541.74,102.64a4.19,4.19,0,0,1,1.55,2.14V102h1.82v11h-1.82v-2.8a4.11,4.11,0,0,1-1.55,2.14,4.46,4.46,0,0,1-2.71.8,4.92,4.92,0,0,1-2.6-.68,4.71,4.71,0,0,1-1.79-2,6.5,6.5,0,0,1-.65-3,6.63,6.63,0,0,1,.65-3,4.8,4.8,0,0,1,1.79-2,5,5,0,0,1,2.6-.68A4.53,4.53,0,0,1,541.74,102.64Zm-4.88,1.89a4.81,4.81,0,0,0,0,5.9,3.51,3.51,0,0,0,2.69,1.07,3.66,3.66,0,0,0,1.93-.5,3.42,3.42,0,0,0,1.33-1.41,4.44,4.44,0,0,0,.48-2.11,4.54,4.54,0,0,0-.48-2.12,3.42,3.42,0,0,0-1.33-1.41,3.84,3.84,0,0,0-1.93-.49A3.55,3.55,0,0,0,536.86,104.53Z"/><path class="cls-8" d="M549.83,98.16V113H548V98.16Z"/><path class="cls-8" d="M564.9,102.64a4.19,4.19,0,0,1,1.55,2.14V102h1.82v11h-1.82v-2.8a4.11,4.11,0,0,1-1.55,2.14,4.46,4.46,0,0,1-2.71.8,4.92,4.92,0,0,1-2.6-.68,4.71,4.71,0,0,1-1.79-2,6.5,6.5,0,0,1-.65-3,6.63,6.63,0,0,1,.65-3,4.8,4.8,0,0,1,1.79-2,5,5,0,0,1,2.6-.68A4.53,4.53,0,0,1,564.9,102.64ZM560,104.53a4.81,4.81,0,0,0,0,5.9,3.51,3.51,0,0,0,2.69,1.07,3.66,3.66,0,0,0,1.93-.5,3.42,3.42,0,0,0,1.33-1.41,4.44,4.44,0,0,0,.48-2.11,4.54,4.54,0,0,0-.48-2.12,3.42,3.42,0,0,0-1.33-1.41,3.84,3.84,0,0,0-1.93-.49A3.55,3.55,0,0,0,560,104.53Z"/><path class="cls-8" d="M577.6,102.81a4.07,4.07,0,0,1,1.37,2.61h-1.74a2.53,2.53,0,0,0-.81-1.61,2.63,2.63,0,0,0-1.85-.63,2.31,2.31,0,0,0-1.53.47,1.62,1.62,0,0,0-.55,1.27,1.33,1.33,0,0,0,.37,1,2.33,2.33,0,0,0,.92.56,13.16,13.16,0,0,0,1.51.41,15.58,15.58,0,0,1,2,.57,3.19,3.19,0,0,1,1.28.93,2.58,2.58,0,0,1,.53,1.72,2.67,2.67,0,0,1-1,2.18,4.07,4.07,0,0,1-2.69.84,5.15,5.15,0,0,1-3.2-.94,3.77,3.77,0,0,1-1.46-2.62h1.76a2.3,2.3,0,0,0,.87,1.62,3.11,3.11,0,0,0,2,.62,2.1,2.1,0,0,0,1.47-.48,1.6,1.6,0,0,0,.53-1.26,1.37,1.37,0,0,0-.38-1,2.54,2.54,0,0,0-.94-.58,14.64,14.64,0,0,0-1.54-.42,13.85,13.85,0,0,1-2-.56,2.94,2.94,0,0,1-1.24-.89,2.47,2.47,0,0,1-.51-1.65,2.77,2.77,0,0,1,1-2.23,4.25,4.25,0,0,1,2.78-.85A4.46,4.46,0,0,1,577.6,102.81Z"/><path class="cls-8" d="M587.94,102.81a4.07,4.07,0,0,1,1.37,2.61h-1.74a2.53,2.53,0,0,0-.81-1.61,2.63,2.63,0,0,0-1.85-.63,2.31,2.31,0,0,0-1.53.47,1.62,1.62,0,0,0-.55,1.27,1.33,1.33,0,0,0,.37,1,2.33,2.33,0,0,0,.92.56,13.16,13.16,0,0,0,1.51.41,15.58,15.58,0,0,1,2,.57,3.19,3.19,0,0,1,1.28.93,2.58,2.58,0,0,1,.53,1.72,2.67,2.67,0,0,1-1,2.18,4.07,4.07,0,0,1-2.69.84,5.15,5.15,0,0,1-3.2-.94,3.77,3.77,0,0,1-1.46-2.62h1.76a2.3,2.3,0,0,0,.87,1.62,3.11,3.11,0,0,0,2,.62,2.1,2.1,0,0,0,1.47-.48,1.6,1.6,0,0,0,.53-1.26,1.37,1.37,0,0,0-.38-1,2.54,2.54,0,0,0-.94-.58,14.64,14.64,0,0,0-1.54-.42,13.85,13.85,0,0,1-2-.56,2.94,2.94,0,0,1-1.24-.89,2.47,2.47,0,0,1-.51-1.65,2.77,2.77,0,0,1,1-2.23,4.25,4.25,0,0,1,2.78-.85A4.46,4.46,0,0,1,587.94,102.81Z"/><path class="cls-8" d="M601.87,107.86h-8.78a3.84,3.84,0,0,0,1.07,2.82,3.49,3.49,0,0,0,2.47.94,3.54,3.54,0,0,0,2.21-.67,2.71,2.71,0,0,0,1.09-1.79h1.94a4.58,4.58,0,0,1-2.68,3.44,5.82,5.82,0,0,1-2.48.5,5.61,5.61,0,0,1-2.8-.68,4.79,4.79,0,0,1-1.91-2,6.14,6.14,0,0,1-.69-3,6.27,6.27,0,0,1,.69-3,4.87,4.87,0,0,1,1.91-2,5.72,5.72,0,0,1,2.8-.68,5.54,5.54,0,0,1,2.79.68,4.68,4.68,0,0,1,1.82,1.82,5.12,5.12,0,0,1,.63,2.52A4.87,4.87,0,0,1,601.87,107.86Zm-2.16-2.92a2.91,2.91,0,0,0-1.26-1.22,3.9,3.9,0,0,0-1.74-.4,3.6,3.6,0,0,0-2.52.93,3.77,3.77,0,0,0-1.1,2.73h7A3.72,3.72,0,0,0,599.71,104.94Z"/><path class="cls-8" d="M609.57,111.36V113h-1.36a3.46,3.46,0,0,1-2.51-.8,3.61,3.61,0,0,1-.83-2.68v-5.92h-1.64V102h1.64V99.24h1.84V102h2.84v1.58h-2.84v6a2,2,0,0,0,.39,1.45,1.88,1.88,0,0,0,1.35.39Z"/><path class="cls-8" d="M617,111.36V113h-1.36a3.46,3.46,0,0,1-2.51-.8,3.61,3.61,0,0,1-.83-2.68v-5.92h-1.64V102h1.64V99.24h1.84V102H617v1.58h-2.84v6a2,2,0,0,0,.39,1.45,1.88,1.88,0,0,0,1.35.39Z"/><path class="cls-8" d="M625.68,102.81a4.07,4.07,0,0,1,1.37,2.61h-1.74a2.53,2.53,0,0,0-.81-1.61,2.64,2.64,0,0,0-1.85-.63,2.31,2.31,0,0,0-1.53.47,1.59,1.59,0,0,0-.55,1.27,1.33,1.33,0,0,0,.37,1,2.33,2.33,0,0,0,.92.56,13.16,13.16,0,0,0,1.51.41,15.58,15.58,0,0,1,2,.57,3.19,3.19,0,0,1,1.28.93,2.58,2.58,0,0,1,.53,1.72,2.67,2.67,0,0,1-1,2.18,4.07,4.07,0,0,1-2.69.84,5.15,5.15,0,0,1-3.2-.94,3.74,3.74,0,0,1-1.46-2.62h1.76a2.3,2.3,0,0,0,.87,1.62,3.11,3.11,0,0,0,2,.62,2.1,2.1,0,0,0,1.47-.48,1.6,1.6,0,0,0,.53-1.26,1.37,1.37,0,0,0-.38-1,2.62,2.62,0,0,0-.94-.58,14.64,14.64,0,0,0-1.54-.42,13.85,13.85,0,0,1-2-.56,2.94,2.94,0,0,1-1.24-.89,2.47,2.47,0,0,1-.51-1.65,2.77,2.77,0,0,1,1-2.23,4.25,4.25,0,0,1,2.78-.85A4.46,4.46,0,0,1,625.68,102.81Z"/><path class="cls-8" d="M630.93,113.26a2.51,2.51,0,0,1-.52,1.67,1.9,1.9,0,0,1-1.56.63v-.78a.91.91,0,0,0,.73-.27,1.25,1.25,0,0,0,.23-.85v-.18h-1v-1.86h1.86A5.38,5.38,0,0,1,630.93,113.26Z"/><path class="cls-8" d="M640.86,99.88a2.37,2.37,0,0,0-.57,1.8v.3h2.6v1.6h-2.6V113h-1.82v-9.38h-1.58V102h1.58v-.44c0-2.62,1.47-3.88,4.42-3.76v1.6A3,3,0,0,0,640.86,99.88Z"/><path class="cls-8" d="M652.68,102.52a4.93,4.93,0,0,1,2,2,6.16,6.16,0,0,1,.71,3,6,6,0,0,1-.71,3,4.84,4.84,0,0,1-2,2,6.23,6.23,0,0,1-5.66,0,4.93,4.93,0,0,1-2-2,5.94,5.94,0,0,1-.72-3,6.05,6.05,0,0,1,.72-3,5,5,0,0,1,2-2,6.23,6.23,0,0,1,5.66,0ZM648,103.88a3.41,3.41,0,0,0-1.34,1.35,4.56,4.56,0,0,0-.51,2.25,4.48,4.48,0,0,0,.51,2.23,3.29,3.29,0,0,0,1.34,1.35,3.94,3.94,0,0,0,3.62,0,3.29,3.29,0,0,0,1.34-1.35,4.48,4.48,0,0,0,.51-2.23,4.56,4.56,0,0,0-.51-2.25,3.41,3.41,0,0,0-1.34-1.35,3.94,3.94,0,0,0-3.62,0Z"/><path class="cls-8" d="M666.61,103a4.93,4.93,0,0,1,1.18,3.55V113H666v-6.22a3.52,3.52,0,0,0-.84-2.52,3,3,0,0,0-2.28-.88,3.14,3.14,0,0,0-2.4,1,4,4,0,0,0-.9,2.83V113h-1.82V102h1.82v2.6a3.77,3.77,0,0,1,1.49-2.06,4.32,4.32,0,0,1,2.47-.72A4.1,4.1,0,0,1,666.61,103Z"/><path class="cls-8" d="M675.83,111.36V113h-1.36a3.46,3.46,0,0,1-2.51-.8,3.61,3.61,0,0,1-.83-2.68v-5.92h-1.64V102h1.64V99.24H673V102h2.84v1.58H673v6a2,2,0,0,0,.39,1.45,1.88,1.88,0,0,0,1.35.39Z"/><path class="cls-8" d="M684.48,102.81a4.12,4.12,0,0,1,1.37,2.61h-1.74a2.53,2.53,0,0,0-.81-1.61,2.64,2.64,0,0,0-1.85-.63,2.31,2.31,0,0,0-1.53.47,1.59,1.59,0,0,0-.55,1.27,1.29,1.29,0,0,0,.37,1,2.26,2.26,0,0,0,.92.56,13.16,13.16,0,0,0,1.51.41,16.09,16.09,0,0,1,2,.57,3.19,3.19,0,0,1,1.28.93,2.64,2.64,0,0,1,.53,1.72,2.7,2.7,0,0,1-1,2.18,4.07,4.07,0,0,1-2.69.84,5.13,5.13,0,0,1-3.2-.94,3.74,3.74,0,0,1-1.46-2.62h1.76a2.3,2.3,0,0,0,.87,1.62,3.1,3.1,0,0,0,2,.62,2.1,2.1,0,0,0,1.47-.48,1.63,1.63,0,0,0,.53-1.26,1.41,1.41,0,0,0-.38-1,2.62,2.62,0,0,0-.94-.58,15.37,15.37,0,0,0-1.54-.42,13.85,13.85,0,0,1-1.95-.56,2.88,2.88,0,0,1-1.24-.89,2.47,2.47,0,0,1-.51-1.65,2.77,2.77,0,0,1,1-2.23,4.25,4.25,0,0,1,2.78-.85A4.46,4.46,0,0,1,684.48,102.81Z"/><path class="cls-8" d="M703.51,113l-3.08-3.4a3.37,3.37,0,0,1-.12.8,3.14,3.14,0,0,1-1.18,2,3.6,3.6,0,0,1-2.32.76,4.4,4.4,0,0,1-2.2-.53,3.75,3.75,0,0,1-1.5-1.48,4.34,4.34,0,0,1-.54-2.19,4.46,4.46,0,0,1,.49-2.15,3.49,3.49,0,0,1,1.31-1.38,3.63,3.63,0,0,1,1.82-.47l.44,0-.3-.38a6.2,6.2,0,0,1-.85-1.29,3.32,3.32,0,0,1-.29-1.43,3,3,0,0,1,1.64-2.68,4.14,4.14,0,0,1,2-.44,3.7,3.7,0,0,1,2.63.86,5.11,5.11,0,0,1,1.19,3.06,1.9,1.9,0,0,1,0,.3h-1.72a1.7,1.7,0,0,0,0-.33c0-.12,0-.21,0-.27a2.19,2.19,0,0,0-.56-1.55,2,2,0,0,0-1.5-.55,1.88,1.88,0,0,0-1.39.52,1.74,1.74,0,0,0-.51,1.26,2.27,2.27,0,0,0,.23,1.06,5.23,5.23,0,0,0,.75,1l7.48,8.84Zm-4.89-2.12a2.41,2.41,0,0,0,.71-1.8,2.5,2.5,0,0,0-.4-1.38,3,3,0,0,0-1-1,2.7,2.7,0,0,0-1.34-.36,2.35,2.35,0,0,0-1.71.66,2.51,2.51,0,0,0-.67,1.88,2.55,2.55,0,0,0,.76,2,2.63,2.63,0,0,0,1.88.72A2.46,2.46,0,0,0,698.62,110.84Z"/><path class="cls-8" d="M728.5,103a5,5,0,0,1,1.17,3.55V113h-1.82v-6.22a3.58,3.58,0,0,0-.79-2.48,2.82,2.82,0,0,0-2.17-.86,3,3,0,0,0-2.31.95,4,4,0,0,0-.87,2.79V113h-1.82v-6.22a3.54,3.54,0,0,0-.8-2.48,2.84,2.84,0,0,0-2.16-.86,3,3,0,0,0-2.33.95,4,4,0,0,0-.87,2.79V113h-1.82V102h1.82v2.5a3.59,3.59,0,0,1,1.43-2,4.13,4.13,0,0,1,2.37-.69,4.21,4.21,0,0,1,2.43.71,4,4,0,0,1,1.47,2.09,4,4,0,0,1,1.54-2.07,4.3,4.3,0,0,1,2.44-.73A4.07,4.07,0,0,1,728.5,103Z"/><path class="cls-8" d="M740.3,102.52a4.93,4.93,0,0,1,2,2,6.16,6.16,0,0,1,.71,3,6,6,0,0,1-.71,3,4.84,4.84,0,0,1-2,2,6.23,6.23,0,0,1-5.66,0,4.87,4.87,0,0,1-2-2,5.94,5.94,0,0,1-.72-3,6.05,6.05,0,0,1,.72-3,5,5,0,0,1,2-2,6.23,6.23,0,0,1,5.66,0Zm-4.64,1.36a3.35,3.35,0,0,0-1.34,1.35,4.56,4.56,0,0,0-.51,2.25,4.48,4.48,0,0,0,.51,2.23,3.23,3.23,0,0,0,1.34,1.35,3.7,3.7,0,0,0,1.81.44,3.76,3.76,0,0,0,1.81-.44,3.29,3.29,0,0,0,1.34-1.35,4.48,4.48,0,0,0,.51-2.23,4.56,4.56,0,0,0-.51-2.25,3.41,3.41,0,0,0-1.34-1.35,3.87,3.87,0,0,0-1.81-.44A3.81,3.81,0,0,0,735.66,103.88Z"/><path class="cls-8" d="M748.75,102.43a4.69,4.69,0,0,1,2.48-.63v2h-.56a3.91,3.91,0,0,0-2.52.79,3.15,3.15,0,0,0-1,2.61V113h-1.82V102h1.82v2.22A4,4,0,0,1,748.75,102.43Z"/><path class="cls-8" d="M763.05,107.86h-8.78a3.8,3.8,0,0,0,1.07,2.82,3.46,3.46,0,0,0,2.47.94A3.56,3.56,0,0,0,760,111a2.79,2.79,0,0,0,1.09-1.79h1.94a4.69,4.69,0,0,1-.89,2,4.61,4.61,0,0,1-1.79,1.4,5.85,5.85,0,0,1-2.48.5,5.56,5.56,0,0,1-2.8-.68,4.72,4.72,0,0,1-1.91-2,6.14,6.14,0,0,1-.69-3,6.27,6.27,0,0,1,.69-3,4.81,4.81,0,0,1,1.91-2,5.66,5.66,0,0,1,2.8-.68,5.6,5.6,0,0,1,2.79.68,4.75,4.75,0,0,1,1.82,1.82,5.12,5.12,0,0,1,.63,2.52A5.7,5.7,0,0,1,763.05,107.86Zm-2.16-2.92a3,3,0,0,0-1.26-1.22,4,4,0,0,0-1.74-.4,3.6,3.6,0,0,0-2.52.93,3.74,3.74,0,0,0-1.1,2.73h7A3.81,3.81,0,0,0,760.89,104.94Z"/><path class="cls-8" d="M768.23,110.82V113H766v-2.14Zm-.12-12.3-.26,10.3h-1.5l-.26-10.3Z"/></g></g></g></g></svg>