<svg xmlns="http://www.w3.org/2000/svg" viewBox="0 0 187.09 186.25"><defs><style>.cls-1{fill:#fefefe;}.cls-2{fill:#707da7;}.cls-3{fill:#c7ccdd;}.cls-4{fill:#3a4172;}</style></defs><g id="Layer_2" data-name="Layer 2"><g id="Draw_Layer" data-name="Draw Layer"><path class="cls-1" d="M59.86,0h-.57c-1.49,0-3,0-4.53.2L53,.42c-.91.1-1.81.21-2.72.29L46.74,1h-.19l-.85.06-.56,0-.16,0h-.4c-1,.07-1.93.17-2.89.28l-1.93.2c-1.51.1-3,.12-4.54.15H35c-.6,0-1.2,0-1.79.06l-.77,0c-.39,0-.77,0-1.16,0H29.91l-1.4,0c-1.12,0-2.25,0-3.38,0H23.8c-1.36,0-2.71.05-4.06.1h-.62L18,2l-.72,0h-.4L15.56,2h-1c-1,0-2.09-.09-3.11-.17l-1.2-.09c-.41,0-.83,0-1.24,0H7.66c-.21,0-.42,0-.63,0l-.6,0a2.2,2.2,0,0,0-.67.08,3.17,3.17,0,0,0-1.41.84A3.92,3.92,0,0,0,3.48,4c-.14.36-.28.72-.41,1.08l-.15.4a6.54,6.54,0,0,0-.46,1.69,2.66,2.66,0,0,0,.08,1,7.53,7.53,0,0,0,.38.88c0,.15-.09.28-.12.41A8.34,8.34,0,0,0,2.61,11c0,.4-.08.79-.13,1.18s-.1.73-.12,1.1c-.06.78-.11,1.55-.12,2.32,0,1-.05,1.89-.09,2.83,0,.68-.06,1.35-.08,2,0,.91,0,1.8,0,2.7v.78c0,.55,0,1.1,0,1.65s0,.82,0,1.23,0,.92.05,1.39c0,.68,0,1.39,0,2.08v1c0,1.41,0,2.87,0,4.31s0,3.22-.11,5.22c-.09,1.61-.06,3.25,0,4.83v.49c0,1.58,0,3.28,0,5.33v.66c0,.66,0,1.31,0,2l0,.71c0,.61,0,1.21,0,1.82S2,58,2.07,58.75c.05,1,.09,2,.09,2.94,0,.56,0,1.14-.07,1.71,0,.25,0,.51,0,.76,0,.52-.05,1-.08,1.54l-.05,1c-.06,1.27-.07,2.57-.08,3.82,0,.57,0,1.14,0,1.72,0,.75,0,1.5,0,2.25,0,1,0,1.93,0,2.89s0,2-.05,3c0,.7,0,1.4,0,2.1s0,1.4-.07,2.11c0,.94-.09,1.91-.08,2.87,0,.79,0,1.58,0,2.37s0,1.83,0,2.76c0,1.55-.07,3.13-.15,4.65l0,.38c-.08,1.6-.07,3.23-.05,4.81v.46c0,1,0,2.08,0,3.11,0,.61,0,1.22,0,1.83v.46c0,.69,0,1.37,0,2.06,0,.52-.05,1-.09,1.58,0,.38-.06.77-.08,1.16-.08,1.65-.09,3.38,0,5.27,0,.92.06,1.85.06,2.77,0,.48,0,.95,0,1.43l0,1.08c0,1.56-.07,3.11-.08,4.66,0,.79,0,1.59-.07,2.38S.93,132.26.92,133c0,.94-.05,1.87-.1,2.81,0,.7-.07,1.4-.09,2.11l0,1.64c0,1.16,0,2.33-.1,3.49l-.07,1.28c-.07,1.25-.14,2.53-.13,3.81,0,.36,0,.73,0,1.09s0,.82,0,1.24c0,.71,0,1.46-.12,2.37l-.1,1c-.12,1.26-.24,2.56-.24,3.86a22.1,22.1,0,0,0,.3,3.15c.07.5.14,1,.19,1.49l.08,1c.05.67.1,1.33.16,2,.05.88.06,1.76.07,2.64v.66c0,.66,0,1.32,0,2,0,.46-.07.93-.11,1.39s-.09,1.05-.11,1.57a22.56,22.56,0,0,0,.08,2.64l0,.2c0,.29,0,.58.07.87a5.12,5.12,0,0,0,.38,1.37,6.69,6.69,0,0,0,1.11,1.84c.17.17.36.32.55.48a3.19,3.19,0,0,0,.72.41l.11.05.8.32c.67.25,1.3.44,1.91.63l.19.06a1.81,1.81,0,0,0,1.22-.08c.41.07.74.11,1.06.14h0l.15,0H9l2.46.35c1.73.26,3.53.53,5.31.66l2.29.16c1.86.13,3.77.26,5.65.47l.12,0,.24,0-.17,0,.89.15c1.31.19,2.67.39,4,.5.52.05,1,.07,1.56.09l.88.05.75,0,1.54.1,1.11.07c1.3.09,2.64.19,4,.21,1,0,2,.07,3,.12.63,0,1.27.07,1.9.09l1.19.07,1.45.07h3.53c1.29,0,2.57,0,3.86-.06H55l1.92-.06c.5,0,1,0,1.51,0h1.67c1.34,0,2.69.05,4,.1h.38c.51,0,1,0,1.53,0h4.39c1,0,2,0,3,0l1.56,0h.33c.57,0,1.13,0,1.7,0l.62,0h.8l1.73,0,2.42-.11c.89-.05,1.79-.09,2.68-.12l1.3,0c1.26,0,2.54.05,3.91.15,1.14.07,2.27.09,3.12.09h2c.89,0,1.79,0,2.68-.08s1.61-.07,2.42-.08H101c1,0,2,.05,3,.1l1.64.07c3.82.12,7.27.18,10.53.18l1.66,0h1c.41,0,.81,0,1.21,0l1.31,0c1.36,0,2.66.07,3.91.13l1.56.07h.54c.44,0,.88,0,1.32,0l.62,0,1.39-.06,1.11-.06.59,0c1.06-.05,2.15-.11,3.23-.11.45,0,.91,0,1.36,0s1.16.07,1.73.13l.87.08c.78.06,1.57.11,2.37.13l1.52,0q1.17,0,2.34,0h1.65c1,0,2,0,3,.09l1.26,0,1.45,0H154l1.43.05,1,0c.47,0,.94,0,1.42,0,1.09,0,2.27,0,3.73-.12.67,0,1.34-.1,2-.16l.62-.06c.68-.06,1.32-.09,2-.09h.61l.88,0c.34,0,.67,0,1,0h4.65c.59,0,1.17,0,1.76,0l.73,0a21.48,21.48,0,0,0,3.83-.35,5.38,5.38,0,0,0,.9-.28,2.7,2.7,0,0,0,1.92-2c.18-.49.31-1,.44-1.51a1.69,1.69,0,0,0,.28-.12,2.62,2.62,0,0,0,1.27-1.8,5.66,5.66,0,0,1,.15-.59c.06-.22.11-.44.16-.66.18-.84.32-1.69.42-2.51l.12-1.15c0-.33.06-.66.1-1,.06-.5.13-1,.21-1.49.06-.35.11-.7.16-1.06.27-2,.43-3.7.51-5.32,0-.79,0-1.59,0-2.37s0-1.7,0-2.55c.12-2.07.15-3.66.09-5.18s-.07-3,0-4.62c0-.53.1-1.06.16-1.59,0-.34.08-.68.11-1,.08-.83.12-1.72.13-2.8,0-.66,0-1.32,0-2l0-.66c0-.75,0-1.51,0-2.27v-2.24c0-1,0-2.09,0-3.13s.07-2,.13-3.07c0-.68.08-1.36.1-2l0-.58c.05-1.27.1-2.58.09-3.88s-.14-2.71-.26-4l0-.41c-.09-1.54-.11-3.1-.07-4.76,0-1.07,0-2.13,0-3.19,0-.76,0-1.52,0-2.28,0-1.75,0-3.39,0-5v-.33c0-.79,0-1.58-.1-2.37,0-.46-.1-.93-.15-1.39l-.12-1c-.05-.55-.11-1.11-.15-1.68-.1-1.55-.09-3.13-.07-4.75,0-.56,0-1.12,0-1.68,0-1.15,0-2.33,0-3.49,0-.37,0-.74.05-1.11s.05-1,.07-1.54,0-1.32,0-2V84.5q0-1.34.06-2.67c0-.81,0-1.63,0-2.44,0-.62,0-1.25,0-1.88V76.9c0-.63,0-1.26.07-1.88l0-.68c.07-1.28.08-2.59.09-3.85V69.16c0-.46,0-.92.07-1.38s.06-.79.07-1.18c0-.82,0-1.63,0-2.45,0-1.54,0-3.33,0-5.11l.05-1c0-1.23.1-2.5.07-3.75s-.12-2.85-.23-4.45a12,12,0,0,1,0-1.32c0-.28,0-.56.05-.85s0-.56.06-.85c0-1,0-2,0-2.93V42.14c0-.91,0-1.85-.06-2.76-.05-.73-.12-1.46-.2-2.19,0-.49-.1-1-.14-1.46-.05-.69-.08-1.37-.1-2.06,0-.46,0-.92,0-1.39,0-.28,0-.57,0-.85,0-.8,0-1.6,0-2.4s0-1.51.06-2.28c0-1,.15-1.92.25-2.86.06-.52.12-1,.17-1.56l0-.37a19.38,19.38,0,0,0,.12-2c0-.75-.06-1.49-.11-2.18l0-.27c0-.67-.09-1.37-.18-2s-.22-1.24-.34-1.86l0-.18c-.12-.57-.2-1.14-.28-1.72s-.19-1.32-.33-2a15.07,15.07,0,0,0-.6-2.16,5.22,5.22,0,0,0-1.27-1.88,3.58,3.58,0,0,0-1.11-.77,2.84,2.84,0,0,0-1-.19,3.2,3.2,0,0,0-1.23-1.09,4.62,4.62,0,0,0-1.18-.42,8.09,8.09,0,0,0-1.38-.15h-.19c-.47,0-.95,0-1.42,0h-1l-1.87,0-.75,0h-1.71c-1.25,0-2.55,0-3.83-.11l-.93-.07c-1.33-.09-2.67-.18-4-.31s-2.59-.16-3.86-.2l-1.43,0-2.06-.11c-1-.06-2-.11-3-.13l-1.8,0c-1.12,0-2.23,0-3.34-.07l-.57,0c-.65,0-1.31-.05-2-.06-.45,0-.9,0-1.35,0h-1.19c-1.43,0-2.86-.17-4.25-.3l-1-.1-2.58-.22c-.7,0-1.34-.07-2-.08H131c-1.59,0-3.18-.05-4.77-.05L122,1h-8l-.85,0-.65,0c-.57,0-1.13-.07-1.7-.12l-1-.09c-.49,0-1,0-1.46-.06-.31,0-.61,0-.91,0-.87,0-1.74,0-2.6,0H99.48c-.69,0-1.38,0-2.08-.07-1,0-2.08-.08-3.12-.09H89c-1,0-2-.06-3-.12L84.15.33C83,.28,81.8.26,80.63.26H79.18L77.81.3c-1.09,0-2.18,0-3.27,0h-.85L72.55.3c-.47,0-.93,0-1.4,0H68.43c-1.58,0-3,0-4.38-.13-.68,0-1.36-.06-2-.08L61,0,59.86,0Zm72.36,4.59-2.85,0c.94,0,1.9,0,2.85,0Z"/></g><g id="Draw_Layer-2" data-name="Draw Layer"><path class="cls-2" d="M30.09,111.65h.25s0,0,0,0Z"/><path class="cls-3" d="M66.13,64.9h0a7.84,7.84,0,0,0-1.47.19l-.12,0-.24.06a6.91,6.91,0,0,0-1.57.53l-.22.1a6.55,6.55,0,0,0-.95.7l-.12.11-.23.23h0l.2-.12a1.49,1.49,0,0,0-.42.44c-.38.88-.82,1.8-1.33,2.82-.23.44-.44.89-.64,1.34l-.1.2c-.2.45-.41.89-.62,1.33a33.91,33.91,0,0,0-1.52,3.6c-.28.75-.55,1.49-.81,2.25l-.18.55-.11.31-.3,1c-.53,1.37-1,2.61-1.58,3.81-.67,1.45-1.27,2.9-1.81,4.3l-.1.27c-.24.65-.46,1.22-.7,1.79-.17.39-.35.77-.53,1.15s-.29.62-.43.93a27.05,27.05,0,0,0-1,2.86,10.65,10.65,0,0,1-1.19-2l-.09-.21a12.29,12.29,0,0,0-.77-1.54c-.11-.16-.22-.33-.34-.49-.24-.35-.44-.64-.61-1l-.41-.95A25.48,25.48,0,0,0,44.65,87a8.2,8.2,0,0,0-.65-.94l-.11-.15-.21-.28c-.29-.41-.58-.8-.9-1.17l0,.1a2,2,0,0,0-.63-.58,1.86,1.86,0,0,0-.89-.27,2,2,0,0,0-.82.09,2.73,2.73,0,0,0-1.31.93c-.39.51-.75,1-1.09,1.57l-.1.14-.51.78-.71,1,.11-.13c-1.66,2.34-3.17,4.68-4.56,6.87-.25.38-.49.78-.74,1.17l-.29.46-.5.81v-.13L30.72,97q-.12-.48-.21-1c-.13-.79-.27-1.57-.42-2.35-.08-.55-.16-1.11-.23-1.66s-.1-.76-.15-1.1-.12-.93-.2-1.4a17.88,17.88,0,0,0-.43-1.89c-.23-.91-.44-1.83-.64-2.75l-.1-.4a.75.75,0,0,0,0-.16l0-.18a3.57,3.57,0,0,1-.14-.38,4.49,4.49,0,0,1-.13-.59l-.21-.86-.27-1.18-.13-.59a18.32,18.32,0,0,0-.64-2.19c-.11-.36-.2-.72-.29-1.08s-.14-.59-.21-.84l-.06-.16a10.45,10.45,0,0,1-.51-1.45l-.06-.24-.05-.25c-.06-.27-.13-.54-.21-.82s-.18-.4-.27-.6L25,72.79c-.09-.19-.19-.38-.27-.58a15,15,0,0,0-.8-1.52l-.31-.51-.43-.72L22.94,69l-.05-.1-.07-.13c-.11-.21-.23-.43-.36-.63a6.77,6.77,0,0,0-.75-.84,3.28,3.28,0,0,0-.38-.27c-.23-.09-.52-.2-.82-.29a.84.84,0,0,0-.26-.07l-.52-.12-.28,0-.13,0c-.28,0-.56.05-.85.07l-.12,0-.65.23a.83.83,0,0,1-.21.06l-.2.12-.19.15a4,4,0,0,0-.27.44c-.09.2-.17.4-.27.6s-.23.61-.34.92l0,.16c-.11.33-.22.66-.31,1a7.18,7.18,0,0,0-.07,1.26l0,.29,0,.28v.3c0,.3.07.61.09.91a16.06,16.06,0,0,0,.33,1.72l.11.48c0,.22.09.44.13.66a13.52,13.52,0,0,0,.35,1.46c.06.15.12.3.17.44l.16.42A23.29,23.29,0,0,1,18,80.8c.08.3.17.6.26.89.19.59.34,1.09.46,1.6L19.08,85l.2.87c.06.31.14.61.22.91l.06.22c.09.34.19.68.27,1s.22.87.35,1.3c.08.23.15.47.22.7s.18.72.26,1.08.14.57.22.82l.11.43c.08.3.16.61.23.92a5.62,5.62,0,0,0,.18.65c.05.18.1.35.14.52.15.61.34,1.2.53,1.79l.15.47.1.3.07.15h0c.06.19.13.38.19.58l.12.47a6.29,6.29,0,0,0,.17.62c.1.35.19.7.28,1a14,14,0,0,0,.38,1.35,20.42,20.42,0,0,1,.68,2.12c.14.55.3,1.11.5,1.67l.17.46.08.21.06.12h0l.27.79.08.24.17.48.07.22.05.12a13.92,13.92,0,0,0,1.1,2.38,10.72,10.72,0,0,0,1.12,1.18l.14,0a3.43,3.43,0,0,1,.48.08l.32.07.32.07a9.72,9.72,0,0,0,1.08.14l.29,0a7.46,7.46,0,0,0,1.27-.18l.2,0,.3-.09-.52.11a10.13,10.13,0,0,0,1.38-.45,8.34,8.34,0,0,0,1-1.32c.24-.35.47-.69.67-1,.47-.79.94-1.56,1.43-2.33a23.65,23.65,0,0,0,1.38-2.56l.36-.84.05-.11a13.27,13.27,0,0,1,.69-1.48l.44-.78c.27-.5.55-1,.82-1.5l.4-.78.09-.18c.3-.59.6-1.18.93-1.75.2.32.4.67.58,1l.14.24a6.93,6.93,0,0,0,.43.74,8.19,8.19,0,0,0,.59.73c.09.12.17.26.26.39l.09.14h0c.09.15.19.31.29.45s.39.54.57.82l.31.48.86,1.3a13,13,0,0,0,.87,1.09l.32.38.2.24.34.45c.18.25.36.49.57.73a3.06,3.06,0,0,0,.36.36l.19.18.16.22.15.22c.15.21.32.41.49.61s.29.45.45.66a3.12,3.12,0,0,0,1.45,1.16,3.31,3.31,0,0,0,1.17.3,5,5,0,0,0,.55,0,2.91,2.91,0,0,0,1.47-.49,3.82,3.82,0,0,0,1-1.13,4,4,0,0,0,.39-.81l.27-.66c.39-1,.73-1.82,1-2.71s.67-2.24,1.1-3.49l.15-.4.14-.4.1-.29.11-.29L59,97.34l-.07.14.28-.73.19-.52.13-.35.19-.5.18-.5.45-1.2-.07.11c.76-1.91,1.31-3.25,1.85-4.46l.45-1,0-.13.54-1.25.12-.25.41-.89a2.52,2.52,0,0,1,.15-.33l.09-.17,0-.1.15-.38.15-.38c.19-.5.38-1,.54-1.5l.06-.2.06-.2.14-.43.14-.47,0,.06,0-.09h0l0-.09,0-.1q.09-.33.21-.66c.36-.88.73-1.75,1.11-2.62l0-.13.23-.53c.18-.42.36-.84.53-1.26.09-.22.17-.43.25-.64l0-.16c.1-.27.17-.48.25-.68s.22-.56.34-.83l.19-.48c.13-.33.28-.66.43-1l.07-.16c.19-.43.38-.86.53-1.3l.06-.18c0-.15,0-.31,0-.46l0-.33V68.78a7.89,7.89,0,0,0-.08-.85l0-.2s0-.08,0-.1-.1-.26-.16-.38l-.09-.17a4.3,4.3,0,0,0-.67-.9,7.86,7.86,0,0,0-.78-.71A6.65,6.65,0,0,0,66.72,65a3.84,3.84,0,0,0-.59-.11Z"/></g><g id="Draw_Layer-3" data-name="Draw Layer"><path class="cls-2" d="M73.79,66.87a2,2,0,0,0-1.33.7A2.12,2.12,0,0,0,72,69.06a22.68,22.68,0,0,0,.42,3.86c.26,1.36.62,2.7,1,4,.18.83.35,1.66.56,2.48s.47,1.76.72,2.63c.5,1.72,1,3.44,1.6,5.13.3.88.67,1.74,1,2.6s.65,1.76.94,2.64c.52,1.65,1,3.31,1.36,5s.7,3.16,1.14,4.73.81,2.83,1.2,4.24c.18.67.33,1.34.57,2a2.26,2.26,0,0,0,2.85,1.47,3.08,3.08,0,0,0,1.51-1.53c.65-1.17,1.28-2.35,2-3.49s1.35-2.07,2-3.12,1.16-2,1.73-3,1.21-2,1.76-3.09c.42-.79.83-1.6,1.27-2.38l.18.32.84,1.58-.24-.45c.86,1.64,1.83,3.2,2.78,4.78.39.65.85,1.27,1.27,1.9s1,1.44,1.49,2.17,1,1.44,1.39,2.18.8,1.38,1.27,2a2.64,2.64,0,0,0,2.33,1.27,2.22,2.22,0,0,0,1.45-.77,5.37,5.37,0,0,0,.49-.75,10.58,10.58,0,0,0,.88-2.31c.15-.47.29-.94.44-1.41s.35-1.13.53-1.7c.42-1.34.82-2.69,1.22-4,.57-1.79,1.25-3.53,2-5.27s1.45-3.68,2.22-5.5,1.43-3.5,2.22-5.21,1.45-3.29,2.15-4.94c.43-1,.85-2.08,1.38-3.08h0a1.92,1.92,0,0,0,.45-1.49,2,2,0,0,0-.71-1.33,2,2,0,0,0-1.48-.46,2.18,2.18,0,0,0-1.33.71,3.23,3.23,0,0,0-.62,1c-.09.18-.17.36-.27.54-.22.46-.43.94-.63,1.42-.39.9-.76,1.82-1.14,2.73-.69,1.61-1.45,3.19-2.14,4.8-1.54,3.59-3,7.22-4.43,10.85-.43,1.07-.84,2.14-1.18,3.24s-.74,2.44-1.1,3.66c-.16.49-.31,1-.46,1.48,0,0,0-.1,0-.15l0,.18c0,.11-.07.23-.1.34l.09-.3c-.18.56-.36,1.12-.53,1.67l-.09-.14c-.65-1.06-1.38-2.07-2.08-3.1-1.35-2-2.67-4-3.85-6.14l-.5-.93.16.3c-.4-.76-.79-1.54-1.23-2.28-.2-.33-.41-.66-.62-1a4.44,4.44,0,0,0-.42-.55,3,3,0,0,0-.9-.76,3,3,0,0,0-.73-.24,2.38,2.38,0,0,0-1.72.39,3.42,3.42,0,0,0-.79.73c-.24.28-.44.59-.65.89a22,22,0,0,0-1.4,2.39q-1.12,2.16-2.35,4.27c-.76,1.29-1.5,2.6-2.29,3.88-.56.85-1.12,1.7-1.66,2.56-.37-1.27-.74-2.54-1.05-3.83-.45-1.9-.87-3.8-1.37-5.69S81.62,90.09,81,88.31c-.34-.92-.72-1.84-1-2.78s-.58-1.76-.84-2.65c-.5-1.69-1-3.37-1.44-5.07-.31-1.39-.64-2.77-1-4.15-.18-.81-.33-1.62-.46-2.43a18.44,18.44,0,0,1-.2-2.58,2,2,0,0,0-1.88-1.79Zm48,7.24-.07.1a.61.61,0,0,1,.07-.1ZM76.53,73.2c0,.14.07.28.1.42,0-.14-.07-.28-.1-.42Zm-3.26,3.35.06.24-.06-.24Zm4.27,1,0,.13,0-.13Zm19,14.26h0Zm-17,5.68c0,.11,0,.22.07.32,0-.11-.05-.21-.07-.32Zm4.56,2.12a1,1,0,0,0,0,.17l0-.17Zm26.67,2.14-.06.18.06-.18Zm-4-.43v-.07l0,.07Z"/><path class="cls-2" d="M74.23,66.61a8.33,8.33,0,0,1-.86.08l-.11,0-.25.1a2,2,0,0,0-.47,1.39,2,2,0,0,0,.64,1.37,1.91,1.91,0,0,0,1.46.53l1.79-.28a4.1,4.1,0,0,0,.48-.1c0,.24,0,.47,0,.7a26.84,26.84,0,0,0,.48,2.68c.14.91.26,1.83.32,2.76a24.29,24.29,0,0,0,.52,2.93c.13.85.2,1.71.3,2.56a27.83,27.83,0,0,0,.6,3.28c.22.85.38,1.71.59,2.56s.47,1.78.67,2.66c.29,1.76.47,3.52.79,5.27.12.74.22,1.5.38,2.24s.31,1.27.44,1.91c.23,1.4.34,2.8.69,4.17a2,2,0,0,0,3.82-1.21c-.07-.28-.14-.57-.2-.85-.11-.73-.17-1.46-.29-2.18-.17-1.08-.46-2.12-.67-3.18-.13-.79-.26-1.57-.41-2.35s-.25-1.84-.38-2.76c-.06-.47-.13-.93-.21-1.4A17.21,17.21,0,0,0,84,87.62c-.24-.91-.45-1.83-.65-2.75,0-.13-.06-.27-.1-.4a3.38,3.38,0,0,0-.08-.34c0-.13-.1-.26-.14-.38a4.25,4.25,0,0,1-.12-.6c-.08-.28-.15-.56-.21-.85-.14-.59-.27-1.18-.41-1.78a20.17,20.17,0,0,0-.63-2.18c-.22-.63-.32-1.29-.51-1.92a15.39,15.39,0,0,1-.57-1.61c-.1-.44-.18-.88-.31-1.31s-.42-.85-.61-1.29a13.51,13.51,0,0,0-.79-1.51l-.75-1.24c-.25-.43-.47-.9-.74-1.33a6.71,6.71,0,0,0-.75-.84,3.28,3.28,0,0,0-.38-.27,7.58,7.58,0,0,0-1.2-.38l.51.09-.94-.19a2.29,2.29,0,0,1-.36.07Z"/><path class="cls-2" d="M75.08,67.68a2,2,0,0,0-1.18,1,2.13,2.13,0,0,0-.12,1.53c.21,1,.42,2,.61,3l0-.1c.18,1,.37,1.91.63,2.85s.61,2,.89,2.93c.58,2,1,4.06,1.4,6.13.11.64.22,1.29.35,1.93a1.94,1.94,0,0,0,1,1.18,2,2,0,0,0,1.52.13,2,2,0,0,0,1.18-1,2.15,2.15,0,0,0,.13-1.52c-.06-.29-.12-.59-.17-.88-.38-2.14-.77-4.28-1.35-6.37-.28-1-.6-2-.91-3s-.52-1.92-.72-2.9c-.22-1.21-.47-2.41-.72-3.62a2,2,0,0,0-1-1.17,2,2,0,0,0-1.52-.13Z"/><path class="cls-2" d="M95.38,83.85a2.64,2.64,0,0,0-1.29.92c-.61.79-1.14,1.66-1.71,2.48l-.7,1,.1-.14c-1.59,2.25-3.08,4.55-4.55,6.87l-2.06,3.27c-.6.94-1.17,1.91-1.79,2.84-.28.37-.57.72-.87,1.08a2,2,0,0,0,.11,2.83,2,2,0,0,0,2.83-.11,20.22,20.22,0,0,0,1.49-2c.34-.53.67-1.08,1-1.61.69-1.12,1.41-2.21,2.11-3.33,1.41-2.26,2.82-4.53,4.33-6.72l.48-.68v0c.39-.54.77-1.08,1.15-1.63a9.35,9.35,0,0,1,.54,1c.39.9.72,1.85,1.18,2.7a10.69,10.69,0,0,0,.71,1.09,8.18,8.18,0,0,1,.64,1.11c.32.69.63,1.37,1,2s.84,1.16,1.24,1.75.71,1.38,1.11,2,.81,1.14,1.13,1.76c.18.41.34.81.5,1.22a2.14,2.14,0,0,0,1,1.17,2,2,0,0,0,1.53.13,2,2,0,0,0,1.3-2.51c-.3-.75-.6-1.5-1-2.23s-1-1.4-1.36-2.16c-.21-.4-.39-.83-.62-1.22a11.46,11.46,0,0,0-.69-1,12.39,12.39,0,0,1-1.33-2.2,12.23,12.23,0,0,0-.86-1.74c-.31-.48-.67-.94-1-1.44A33.08,33.08,0,0,0,99.53,87a14.61,14.61,0,0,0-1-1.37c-.3-.41-.58-.8-.91-1.18l.2.24a3,3,0,0,0-.78-.71,1.86,1.86,0,0,0-.88-.27,2,2,0,0,0-.82.1Zm2.53.94ZM94.28,91.4a.71.71,0,0,1-.1.14l.1-.14Zm-11.06,9.91-.09.12.09-.12Zm8.25-12.79.21-.29a1.94,1.94,0,0,0-.21.29Z"/><path class="cls-2" d="M119.14,66.48a2.21,2.21,0,0,0-2.12.87,6.69,6.69,0,0,0-.86,1.6c-.31.73-.59,1.47-.92,2.19s-.62,1.48-.94,2.21c-.6,1.39-1.25,2.76-1.8,4.17-.18.48-.37,1-.55,1.44a1.79,1.79,0,0,0-.16.44c-.09.27-.18.55-.26.83-.2.67-.41,1.34-.64,2-.1.26-.19.53-.29.79l-.66,1.81h0a.14.14,0,0,1,0,.07v0h0c-.55,1.46-1.11,2.91-1.63,4.37l.18-.5c-.38,1.06-.81,2.1-1.28,3.13s-.88,2.13-1.31,3.2-.81,2.34-1.19,3.51c-.28.88-.57,1.75-.87,2.62-.1.24-.19.47-.28.7a2.19,2.19,0,0,0-.13,1.53,2,2,0,0,0,1,1.17,2,2,0,0,0,.76.22s0,0,0,0a1.86,1.86,0,0,0,0,1,2.05,2.05,0,0,0,1,1.18,2,2,0,0,0,1.53.12,1.9,1.9,0,0,0,1.17-1c.2-.56.38-1.12.57-1.68.31-.78.67-1.54,1-2.32s.73-1.85,1.15-2.75c.7-1.52,1.3-3.08,2-4.61.74-1.73,1.62-3.37,2.43-5.06s1.55-3.55,2.38-5.3c.42-.9.9-1.78,1.32-2.68s.73-1.66,1.13-2.47.82-1.64,1.21-2.47l.09-.21.21-.49c.2-.49.35-1,.54-1.48s.36-.87.53-1.31c.34-.84.77-1.64,1.06-2.51l0-.1c0-.26,0-.53.08-.79s0-.74,0-1.11c0,0,0,0,0,.08s0-.13,0-.2a7.48,7.48,0,0,0-.12-1.06,3.44,3.44,0,0,0-1.37-.6,10,10,0,0,0-2.18-.23h-.29a6.42,6.42,0,0,1-.63-.15,2.26,2.26,0,0,0-.72-.24ZM115.6,80.54c.1-.23.18-.48.28-.72.27-.72.56-1.42.88-2.12.66-1.43,1.24-2.91,1.87-4.36.35-.8.69-1.6,1-2.41l.06-.14a7.35,7.35,0,0,0,.82.07c-.4.76-.79,1.52-1.18,2.28s-.7,1.53-1.06,2.29-.83,1.68-1.23,2.52-.74,1.65-1.13,2.46l-.73,1.47c.14-.44.25-.89.4-1.34Zm-5.1,2.77c0,.07,0,.13-.07.19s0-.12.07-.19Zm-.56,1.53h0Z"/><path class="cls-2" d="M124.54,68.14c0-.14-.07-.27-.1-.42,0,.14.06.28.1.42Z"/><path class="cls-2" d="M124.57,68.47v0Z"/><polygon class="cls-2" points="109.91 84.92 109.91 84.92 109.91 84.92 109.91 84.92 109.91 84.92"/><path class="cls-2" d="M109.91,84.92v0l0-.05,0,.07Z"/><path class="cls-2" d="M119.57,65.1h-.06l-.13,0,.07,0-.24.06a6.8,6.8,0,0,0-1.61.55l.12-.06-.3.14a7,7,0,0,0-1,.7l-.39.39.22-.21a5.71,5.71,0,0,0-.39.47c-.41,1-.86,1.89-1.33,2.82s-.89,1.91-1.36,2.87a35.6,35.6,0,0,0-1.52,3.6c-.28.75-.55,1.49-.81,2.25-.21.6-.39,1.21-.59,1.81-.49,1.28-1,2.56-1.58,3.81q-1,2.11-1.81,4.31c-.26.68-.52,1.37-.8,2s-.65,1.38-1,2.08c-.6,1.34-1,2.77-1.44,4.16-.13.32-.27.64-.42.95a2.1,2.1,0,0,0-.07,1.68c-.21-.31-.41-.62-.61-.93s-.54-.75-.79-1.15a11.42,11.42,0,0,0-.78-1,11,11,0,0,1-.76-1.23l-.36-.64a4.26,4.26,0,0,0-.48-.66c-.27-.36-.45-.75-.69-1.13s-.48-.7-.7-1.06A2,2,0,0,0,94.28,93a8.26,8.26,0,0,0,1.07,1.84c.14.22.25.45.38.67a4.41,4.41,0,0,0,.53.75A11.13,11.13,0,0,1,97,97.57c.14.25.28.5.44.74a8.07,8.07,0,0,0,.58.73c.24.32.42.67.65,1s.58.87.88,1.3l.86,1.3a18.21,18.21,0,0,0,1.19,1.47l.2.24c.3.4.58.8.91,1.18a5.62,5.62,0,0,0,.55.54l.31.44a10.07,10.07,0,0,0,.72.87,9.46,9.46,0,0,0,.82,1,3.23,3.23,0,0,0,2.55.87,3,3,0,0,0,1.46-.48,3.9,3.9,0,0,0,1-1.13,4.47,4.47,0,0,0,.43-.88c.44-1.1.9-2.17,1.24-3.3s.71-2.33,1.11-3.48c.1-.27.19-.54.29-.8s.13-.39.2-.58c.16-.41.31-.83.46-1.24a.88.88,0,0,1,0,.15c.18-.49.36-1,.53-1.47-.05.17-.12.34-.18.51l.24-.65c.27-.73.55-1.46.81-2.2l-.18.5c.62-1.63,1.25-3.25,2-4.85.35-.79.68-1.61,1-2.4.17-.38.35-.76.53-1.14a2,2,0,0,1,.15-.33s0,0,0-.06l.1-.2c.28-.76.59-1.51.84-2.27l.12-.39,0,.06.3-1-.06.18s0,.06,0,.08,0,0,0-.08c.11-.35.2-.7.34-1,.61-1.53,1.29-3,1.92-4.55.2-.49.35-1,.54-1.48s.36-.87.53-1.3c.33-.83.75-1.61,1-2.45a.14.14,0,0,1,0-.06l0-.11c0-.26,0-.53.08-.79s0-.76,0-1.15c0,0,0,.08,0,.12a1.34,1.34,0,0,1,0-.2,7.36,7.36,0,0,0-.12-1h0v0a.43.43,0,0,0,0-.05,2.5,2.5,0,0,0-.15-.38,1,1,0,0,0-.1-.17h0a5.84,5.84,0,0,0-.67-.9s0,0,0,0a7,7,0,0,0-.75-.68,6.33,6.33,0,0,0-1.11-.46,3.84,3.84,0,0,0-.59-.11,8,8,0,0,0-1.46.19Zm.63,3.14.72-.13c.65-.11,1.32-.17,2-.23a.3.3,0,0,1,0,.08l-1.22,2.35c-.38.73-.79,1.46-1.13,2.2-.75,1.59-1.5,3.18-2.27,4.76s-1.53,3.07-2.26,4.62c-1.68,3.59-3.3,7.19-4.65,10.91l0-.08c-.25.68-.52,1.36-.76,2l0-.08c-.1.27-.2.54-.29.81,0-.1.06-.2.1-.3l-.4,1.09.19-.51c-.24.66-.49,1.31-.73,2v0c-.07.19-.14.38-.2.57,0,0,0,0,0,0h0s0,0,0,0h0l0,0v0l0,.09c-.32.9-.63,1.8-.91,2.71-.22.73-.43,1.46-.68,2.18-.15.39-.32.77-.48,1.16l-.12-.15c-.19-.24-.34-.51-.54-.74a7.19,7.19,0,0,0-.68-.76l-.29-.27-.59-.78a2.38,2.38,0,0,0-.34-.43h0l-.48-.57a7.23,7.23,0,0,1-.44-.64,1.77,1.77,0,0,0,.47.34,2,2,0,0,0,2.7-.85,39.71,39.71,0,0,0,1.66-4.62c.26-.66.58-1.29.88-1.93s.57-1.35.83-2,.5-1.38.79-2.06.63-1.4.92-2.11.65-1.44,1-2.17.53-1.32.79-2c.52-1.29.91-2.63,1.36-3.95.17-.45.35-.91.51-1.37.45-1.21,1-2.36,1.58-3.52.43-.9.83-1.8,1.28-2.68.35-.7.65-1.42,1-2.12.13-.27.26-.55.38-.84l.27-.07a3.43,3.43,0,0,0,.34-.06l-.25.05.07,0Zm-8.5,8.24c-.06.15-.11.29-.16.44,0-.15.1-.29.16-.44ZM111.27,93c0,.08-.06.16-.08.23s0-.15.08-.23Zm3.3,2.46,0,.17,0-.17Zm-10.93,1.68c0,.05,0,.1,0,.16a.75.75,0,0,1,0-.16Zm5.75,1a1.34,1.34,0,0,1-.07.18,1.34,1.34,0,0,0,.07-.18Zm4,.63-.07.2.07-.2Zm-8.77,2.73,0,0,0,0Zm.08.11c.07.07.13.15.2.23l-.2-.23Zm-3.31,2.2.07.09a.31.31,0,0,1-.07-.09Z"/><path class="cls-2" d="M119.65,65.09h.08l.11,0-.19,0Z"/><path class="cls-2" d="M119.73,65.07Z"/><path class="cls-2" d="M119.72,65.07h0Z"/><path class="cls-2" d="M119.66,65.08h0Z"/><polygon class="cls-2" points="119.66 65.08 119.65 65.09 119.66 65.08 119.66 65.08 119.66 65.08 119.66 65.08"/><polygon class="cls-2" points="119.65 65.08 119.65 65.09 119.65 65.09 119.65 65.08 119.65 65.08 119.65 65.08 119.65 65.08"/><path class="cls-2" d="M119.65,65.09h0Z"/><path class="cls-2" d="M119.62,65.09Z"/><path class="cls-2" d="M119.62,65.09h0Z"/><path class="cls-2" d="M119.59,65.1h0Z"/><polygon class="cls-2" points="119.52 65.11 119.53 65.11 119.53 65.11 119.52 65.11 119.52 65.11 119.52 65.11"/><path class="cls-2" d="M119.5,65.12h0Z"/><path class="cls-2" d="M124.44,67.73c0,.14.06.28.1.42,0-.14-.06-.28-.1-.42Z"/><path class="cls-2" d="M124.57,68.48v0a1.21,1.21,0,0,1,0-.19.86.86,0,0,0,0,.16Z"/><polygon class="cls-2" points="109.29 98.36 109.29 98.36 109.29 98.36 109.29 98.36 109.29 98.36"/><polygon class="cls-2" points="109.27 98.42 109.28 98.41 109.27 98.42 109.27 98.42 109.27 98.42"/><path class="cls-2" d="M109.27,98.43h0Z"/><path class="cls-2" d="M109.26,98.44h0Z"/><path class="cls-2" d="M120.39,68.21l.14,0-.14,0Z"/><path class="cls-2" d="M110.68,94.57l.1-.27-.1.27Z"/><path class="cls-2" d="M110.64,94.69l0-.12,0,.12Z"/><path class="cls-2" d="M110.45,95.2a1.8,1.8,0,0,1,.08-.21,1.8,1.8,0,0,0-.08.21Z"/><path class="cls-2" d="M109.56,97.62l.13-.37-.13.37Z"/><polygon class="cls-2" points="109.55 97.64 109.56 97.62 109.55 97.64 109.55 97.64 109.55 97.64"/><path class="cls-2" d="M109.52,97.73l0-.09,0,.09Z"/><path class="cls-2" d="M104.6,101.45l0-.06,0,.06Z"/><path class="cls-2" d="M74.22,66.61a7.89,7.89,0,0,1-.85.08l-.11,0c-.21.09-.43.17-.65.24l-.21,0-.28.17-.11.1c-.09.14-.18.28-.26.43s-.17.4-.27.61l.16-.32c-.06.11-.11.21-.16.32-.13.3-.24.6-.34.91s-.26.76-.35,1.15a5.92,5.92,0,0,0-.07,1.26c0,.19,0,.38,0,.57a2.83,2.83,0,0,1,0,.29c0,.33.07.67.11,1a19.2,19.2,0,0,0,.42,2.11c.15.7.27,1.43.48,2.12.06.15.11.3.17.44.33.87.68,1.73.93,2.63s.52,1.64.72,2.49S74,85,74.2,85.9c.16.72.38,1.43.55,2.15s.38,1.34.57,2c.1.37.19.75.27,1.13s.22.79.32,1.19.17.67.25,1,.21.72.3,1.08c.19.76.45,1.51.68,2.26.11.35.25.69.35,1s.17.73.29,1.09c.24.8.39,1.61.66,2.4a18.87,18.87,0,0,1,.68,2.13c.14.55.31,1.11.5,1.66.08.22.17.44.25.67,0-.13-.09-.25-.13-.37l.18.49c.21.58.4,1.17.6,1.75v0h0a.36.36,0,0,0,0,.09,12.54,12.54,0,0,0,1.09,2.35,10.42,10.42,0,0,0,1.12,1.18h.12a2.65,2.65,0,0,1,.49.09l.64.13-.12,0-.07,0h0l.11,0a7.77,7.77,0,0,0,1.44.18,6,6,0,0,0,1.27-.17l.5-.15-.52.16c.47-.14.92-.32,1.37-.49a8.43,8.43,0,0,0,1-1.33q.34-.5.66-1c.47-.78.94-1.55,1.43-2.33a22.32,22.32,0,0,0,1.37-2.55c.37-.81.67-1.65,1.1-2.43s.85-1.51,1.26-2.28c.61-1.15,1.16-2.35,1.86-3.44l.18-.28-.11.15a2,2,0,0,0,.37-1.22,2.05,2.05,0,0,0-.64-1.37,2,2,0,0,0-1.46-.53,1.89,1.89,0,0,0-1.37.64,22.4,22.4,0,0,0-1.62,2.76c-.36.7-.73,1.4-1.1,2.09s-.72,1.24-1,1.87-.61,1.39-.92,2.08-.76,1.53-1.19,2.27-.84,1.3-1.23,2-.68,1.14-1,1.69a3.89,3.89,0,0,1-.32.39l-.22.13a10.72,10.72,0,0,1-.7-1.29c-.29-.65-.55-1.32-.82-2a36.8,36.8,0,0,1-1.22-3.86c-.31-1-.76-2-1.08-3-.22-.74-.37-1.49-.63-2.22s-.57-1.65-.78-2.49-.43-1.75-.68-2.61-.42-1.47-.62-2.21-.48-1.75-.76-2.61c-.2-.62-.36-1.26-.52-1.89-.2-.81-.37-1.62-.59-2.42-.16-.6-.34-1.2-.47-1.81a33.06,33.06,0,0,0-1-3.54c-.24-.7-.53-1.38-.76-2.08-.15-.48-.27-1-.4-1.45-.2-.79-.46-1.56-.64-2.36h.06c.51-.15,1-.34,1.51-.48a5.5,5.5,0,0,0,1-.24,3.46,3.46,0,0,1,.53-.14,7.69,7.69,0,0,0,.81-.27,2,2,0,0,0,.51-.26c-.16-.29-.31-.59-.48-.86a6.71,6.71,0,0,0-.75-.84,3.28,3.28,0,0,0-.38-.27,7.27,7.27,0,0,0-1.2-.38l.51.09-.94-.19-.37.07ZM70.76,72.2h0a.34.34,0,0,1,0,.1.28.28,0,0,0,0-.09Z"/><polygon class="cls-2" points="80.53 107.62 80.53 107.62 80.53 107.61 80.53 107.62 80.53 107.62 80.53 107.62"/><path class="cls-2" d="M83.9,111.44h0Z"/><path class="cls-2" d="M85,111.64h0Z"/><path class="cls-2" d="M80.53,107.61v0c0-.12-.09-.23-.13-.34l.14.36Z"/></g><g id="Draw_Layer-4" data-name="Draw Layer"><path class="cls-2" d="M139.91,111.65h.25s0,0,0,0Z"/><path class="cls-4" d="M176,64.9h0a7.62,7.62,0,0,0-1.46.19l-.13,0-.24.06a7.08,7.08,0,0,0-1.57.53l-.22.1a7.14,7.14,0,0,0-1,.7l-.12.11-.23.23h0l.2-.12a1.49,1.49,0,0,0-.42.44c-.38.88-.82,1.8-1.33,2.82-.23.44-.43.89-.64,1.34l-.1.2c-.2.45-.4.89-.62,1.33a36.12,36.12,0,0,0-1.52,3.6c-.28.75-.55,1.49-.81,2.25l-.18.55-.11.31-.3,1c-.52,1.37-1,2.61-1.58,3.81-.66,1.45-1.27,2.9-1.81,4.3l-.1.27c-.24.65-.46,1.22-.7,1.79-.17.39-.35.77-.53,1.15s-.29.62-.43.93a27.05,27.05,0,0,0-1,2.86,10.65,10.65,0,0,1-1.19-2l-.09-.21A12.29,12.29,0,0,0,157,91.9c-.11-.16-.22-.33-.34-.49-.24-.35-.44-.64-.61-1s-.27-.64-.41-.95A21.5,21.5,0,0,0,154.47,87a8.2,8.2,0,0,0-.65-.94l-.11-.15-.21-.28c-.29-.41-.58-.8-.9-1.17l0,.1A2,2,0,0,0,152,84a1.86,1.86,0,0,0-.89-.27,2,2,0,0,0-.82.09,2.73,2.73,0,0,0-1.31.93c-.39.51-.75,1-1.09,1.57l-.1.14-.51.78-.71,1,.11-.13c-1.66,2.34-3.17,4.68-4.56,6.87-.34.54-.69,1.08-1,1.63l-.5.81v-.14l0-.21c-.07-.34-.15-.69-.22-1-.13-.79-.26-1.57-.42-2.35-.08-.55-.16-1.11-.23-1.66s-.1-.76-.15-1.1-.12-.93-.2-1.4-.24-1.2-.42-1.89c-.24-.91-.45-1.83-.65-2.75l-.1-.4a.75.75,0,0,0,0-.16l0-.18a3.57,3.57,0,0,1-.14-.38,3.25,3.25,0,0,1-.12-.59c-.08-.29-.15-.57-.22-.86l-.27-1.18-.13-.59a20.52,20.52,0,0,0-.63-2.19c-.12-.36-.21-.72-.3-1.08s-.14-.59-.21-.84l-.06-.16a11.94,11.94,0,0,1-.51-1.45l-.06-.24-.05-.25c-.06-.27-.13-.54-.21-.82s-.18-.4-.27-.6l-.06-.11-.27-.58a15,15,0,0,0-.8-1.52l-.31-.51-.43-.72c-.09-.16-.18-.32-.26-.48l-.06-.1-.07-.13c-.11-.21-.23-.43-.36-.63a6.77,6.77,0,0,0-.75-.84,3.28,3.28,0,0,0-.38-.27c-.23-.09-.52-.2-.82-.29a.84.84,0,0,0-.26-.07l-.52-.12-.28,0-.13,0c-.28,0-.56.05-.85.07l-.12,0-.65.23a.83.83,0,0,1-.21.06l-.2.12-.19.15a4,4,0,0,0-.27.44l-.26.6a7.83,7.83,0,0,0-.34.92l-.06.16c-.11.33-.22.66-.31,1a7.18,7.18,0,0,0-.07,1.26l0,.29,0,.28v.3c0,.33.08.66.1,1a15.92,15.92,0,0,0,.32,1.64l.11.48c0,.22.09.44.13.66a13.52,13.52,0,0,0,.35,1.46c.06.15.12.3.17.44l.16.42a23.29,23.29,0,0,1,.77,2.21c.08.3.17.6.27.89.18.59.33,1.09.45,1.6L128.9,85l.2.87c.06.31.14.61.22.91l.06.22c.09.34.19.68.27,1s.23.87.36,1.3l.21.7c.1.36.18.72.26,1.08s.14.57.22.82l.11.43c.08.3.16.61.23.92a5.62,5.62,0,0,0,.18.65l.15.52c.14.61.33,1.2.52,1.79l.15.47.1.3.07.15h0c.06.19.13.38.19.58l.12.47a6.29,6.29,0,0,0,.17.62c.1.35.19.7.28,1a14,14,0,0,0,.38,1.35c.23.62.49,1.36.69,2.12a15.7,15.7,0,0,0,.49,1.67l.17.46.09.21.05.12h0l.28.79.07.24.17.48.07.22.05.12a13.92,13.92,0,0,0,1.1,2.38,10.72,10.72,0,0,0,1.12,1.18l.14,0a3.43,3.43,0,0,1,.48.08l.32.07.32.07a9.72,9.72,0,0,0,1.08.14l.29,0a7.71,7.71,0,0,0,1.28-.18l.19,0,.3-.09-.52.11a10.13,10.13,0,0,0,1.38-.45,7.79,7.79,0,0,0,1-1.32c.24-.35.47-.69.67-1,.47-.79,1-1.56,1.44-2.33a25.52,25.52,0,0,0,1.37-2.56l.36-.84,0-.11a13.27,13.27,0,0,1,.69-1.48l.44-.78c.27-.5.55-1,.82-1.5l.4-.78.09-.18c.3-.59.6-1.18.93-1.75.2.32.4.67.58,1l.14.24c.16.29.28.52.43.74a8.19,8.19,0,0,0,.59.73c.09.12.17.26.26.39l.1.14h0a4.4,4.4,0,0,0,.3.45c.2.27.38.54.56.82l.31.48.86,1.3a13,13,0,0,0,.87,1.09l.32.38.2.24.34.45c.18.25.36.49.57.73a3.06,3.06,0,0,0,.36.36l.19.18.16.22.15.22c.15.21.32.41.49.61s.29.45.45.66a3.17,3.17,0,0,0,1.45,1.16,3.31,3.31,0,0,0,1.17.3,5,5,0,0,0,.55,0,2.88,2.88,0,0,0,1.47-.49,3.82,3.82,0,0,0,1-1.13,4,4,0,0,0,.39-.81l.27-.66c.39-1,.73-1.82,1-2.71s.67-2.24,1.1-3.49l.15-.4.14-.4.1-.29.11-.29.46-1.23-.07.14.29-.73.19-.52.12-.35.19-.5.18-.5q.24-.6.45-1.2l-.07.11c.76-1.91,1.31-3.25,1.85-4.46l.45-1,.05-.13.54-1.25.12-.25.41-.89q.08-.18.15-.33l.09-.17,0-.1.14-.38.15-.38c.19-.5.38-1,.54-1.5l.06-.2.06-.2.14-.43.14-.47,0,.06,0-.09h0l0-.09,0-.1q.09-.33.21-.66c.36-.88.73-1.75,1.11-2.62l.05-.13.23-.53.54-1.26.24-.64.06-.16c.09-.27.16-.48.24-.68s.22-.56.34-.83l.19-.48c.13-.33.28-.66.43-1l.07-.16c.19-.43.38-.86.53-1.3l.06-.18c0-.15,0-.31,0-.46l0-.33V68.78a6,6,0,0,0-.08-.85l0-.2s0-.08,0-.1-.1-.26-.16-.38l-.09-.17a4.3,4.3,0,0,0-.67-.9A3.28,3.28,0,0,0,176.55,65a4.21,4.21,0,0,0-.6-.11Z"/></g></g></svg>