<svg xmlns="http://www.w3.org/2000/svg" width="123.661" height="138.907" viewBox="0 0 123.661 138.907">
  <defs>
    <style>
      .a {
        fill: #c77966;
      }

      .b {
        fill: #99a3be;
      }

      .c {
        fill: #394172;
      }

      .d {
        fill: #2c2c2c;
      }

      .e {
        fill: #ea9a00;
      }

      .f {
        fill: #fff;
      }
    </style>
  </defs>
  <g>
    <path class="a" d="M100.907,27.176a13.883,13.883,0,0,0-1.347-1.509c.541.956,1.063,1.924,1.542,2.916C101.051,28.136,100.992,27.676,100.907,27.176Z"/>
    <path class="b" d="M56.684,58.813l-.062.011c-.014,0-.013,0-.017,0s-.034.008-.049.013C56.658,58.814,56.663,58.819,56.684,58.813Z"/>
    <path class="b" d="M57.662,56.1l.042-.009Z"/>
    <path class="b" d="M54.572,59.578l-.072,0C54.524,59.577,54.548,59.577,54.572,59.578Z"/>
    <path class="b" d="M55.515,56.6a.477.477,0,0,0,.043-.022Z"/>
    <path class="b" d="M62.111,28.6c-.039.051-.079.1-.118.149l.1-.019C62.1,28.684,62.1,28.64,62.111,28.6Z"/>
    <path class="b" d="M55.514,56.6l-.013.007.013-.007Z"/>
    <path class="b" d="M53.525,37.776c-.025-.079-.017-.052-.025-.079l-.005-.014c-.044-.141-.03-.093-.044-.141a7.761,7.761,0,0,1-.861-4.074,58.125,58.125,0,0,0-7.2.677,42.945,42.945,0,0,0-3.412,4.427c.58.018.922.1,1.114.1a7.583,7.583,0,0,1,7.391,4.622l-.009-.028a28.39,28.39,0,0,1,2.347,6.556c-.007-.034-.013-.075-.02-.108.3,1.516.3,1.295.35,1.674.059.327.109.65.164.978-.007-.048-.013-.088-.02-.129.053.247.105.495.149.746q.008.032.012.063l.008.05-.007-.041c.073,2.631,2.647,2.277,3.517,2.893,9.15-4.182-1.52,4.272-4.126-.309.013.032.02.062.034.094l.02.042-.02-.042c-.02-.043-.041-.088-.061-.134.008.015.018.026.027.04-.76-1.819-.4-3.488-.663-4.5a.229.229,0,0,1,.012.037A27.442,27.442,0,0,0,50.09,44.4a14.185,14.185,0,0,0-1.578-2.479l-.008-.011a5.484,5.484,0,0,0-2.126-1.585l-.03-.011a15.406,15.406,0,0,0-4.229-.877l-.036,0a2.852,2.852,0,0,1-.729.01c-1.974,2.671-3.917,4.541-7.968,3.915-.251.1-.164.118-.264.065,22.494,36.643,36.824,20.158,41.4,5.821C68.385,57.117,53.975,58.865,53.525,37.776Zm6.7,16.732h0ZM46.075,47.253c.018-.061,0-.042.02-.061l.026-.014Zm-1.571-.97c-2.4.552-2.234,1.321-3,2.129-.01.016-.02.032-.03.046s-.018.026-.027.037c.006-.011.01-.015.02-.03a7.364,7.364,0,0,1-.814.794c.023.479-2.212,1.124-2.264-.051.583-.79.7-.281,1.036-.315a4.018,4.018,0,0,1,.814.091,4.125,4.125,0,0,1,.192-.438c-1.357.448-1.7-1.491.372-.994a.718.718,0,0,1,.184.056c.876-1.3,2.262-2.714,3.229-2.225l.031-.007-.031.007-.084.02c.386-.088.778-.155,1.171-.223C49.06,45.67,45.387,46.55,44.5,46.283Zm2.951.233v-.008l.008,0Zm11.056,11.24-.041.022Zm-6.3,2.931.052.019Zm3,1.164.153.048.064.019-.064-.019C55.245,61.861,55.281,61.874,55.216,61.851Zm.694.19.071.019Zm.7-3.214s0,0,.017,0c4.39-2.2,5.916-1.656,7.97-2.533C65.613,68.637,41.313,57.779,56.605,58.827ZM65.1,56.9l0,0Z"/>
    <path class="b" d="M48.49,41.891l.014.016.008.011c.014.015.028.031.044.047C48.518,41.924,48.5,41.9,48.49,41.891Z"/>
    <path class="b" d="M53.505,37.71l-.007-.02-.009-.031c-.039-.118-.036-.113-.045-.141l.007.024c.037.117.036.115.044.141l.005.014c.02.062.015.047.025.079s.019.058.029.086C53.513,37.739,53.525,37.775,53.505,37.71Z"/>
    <path class="b" d="M69.474,99.7c.4-.116.794-.23,1.186-.355q-.6-.093-1.157-.23Q69.5,99.433,69.474,99.7Z"/>
    <path class="b" d="M63.721,68.763a6.6,6.6,0,0,1,1.269-2.344c-3.947,2.226-8.353,1.078-10.72.093,7.515,9.8,8.069,30.634-6.677,24.95-10.542,13.606-17.81,3.342-16.241-3.249-3.646.439-6.8.7-9.69.976a51,51,0,0,0,46.527,10.877c-1.375-3.036-3.633-12.937-5.853-31.892C63.367,66.839,63.69,68.172,63.721,68.763Z"/>
    <path class="b" d="M41.466,48.465l.007-.007.011-.019.019-.027.017-.032A.941.941,0,0,1,41.466,48.465Z"/>
    <path class="b" d="M76.255,90.654a23.622,23.622,0,0,1-2.212-3.4C74.307,88.888,74.764,90.175,76.255,90.654Z"/>
    <path class="b" d="M43.314,46.645l-.049.024C43.281,46.662,43.3,46.654,43.314,46.645Z"/>
    <path class="b" d="M57.762,56.079l.056-.008Z"/>
    <path class="b" d="M60.093,55.3l.025-.039Z"/>
    <path class="b" d="M42.069,39.428l.014,0,.036,0h.065C42.078,39.43,42.12,39.433,42.069,39.428Z"/>
    <path class="b" d="M53.461,53.053v-.009l-.008-.039,0-.024-.007-.029C53.453,53.006,53.458,53.034,53.461,53.053Z"/>
    <path class="b" d="M46.324,40.3l.024.01.03.011c.026.01.052.018.081.027C46.34,40.308,46.383,40.324,46.324,40.3Z"/>
    <path class="b" d="M68.5,89.275q.221,1.313.389,2.492Q68.757,90.513,68.5,89.275Z"/>
    <path class="b" d="M65.312,28.364q.648.271,1.255.552a6.4,6.4,0,0,0-2-1.3A4.706,4.706,0,0,1,65.312,28.364Z"/>
    <path class="b" d="M50.134,0A50.694,50.694,0,0,0,26.981,8.247c2.518,3.264,2.092,8.627.467,10.167C20.375,25.286,16.3,23.558,14.87,19.5a50.969,50.969,0,0,0,4.32,67.4c6.534-.23,13.42.181,13.841-4.685-12.609-11.147,1.7-17.138-8.858-26.308-3-5.786.754-12.7,3.078-15.655C21.006,14.66,49.356,9.887,64.719,6.08A18.586,18.586,0,0,1,79.7,15.936l-.039-.284c7.807,16.5,7.678,33.044,6.52,47.885,7.1,5.542,5.171,13.043-.132,15.654-.027.181-.055.348-.082.525a13.62,13.62,0,0,0,.8,1.157,14.719,14.719,0,0,1,5.538,4.633l.1.06A51.008,51.008,0,0,0,101.1,28.583c1.856,16.179-17.643-1.751-4.774-4.11a4.266,4.266,0,0,1,3.232,1.194,50.929,50.929,0,0,0-3.579-5.49c-4.232,4.774-10.486-3.8-8.69-9.024A50.75,50.75,0,0,0,60.177,0Q55.119.018,50.134,0ZM26.1,76.973c-4.948,17.463-20.081-4.8-11.188-8.621C22.576,65.807,25.783,72.767,26.1,76.973Z"/>
    <path class="b" d="M53.514,37.737c-.022-.069-.019-.058-.03-.094l0,.016c.013.04.013.043.016.051Z"/>
    <path class="b" d="M58.338,32.429l-.059.022.057.047Z"/>
    <path class="c" d="M53.5,37.683c-.008-.026-.007-.024-.044-.141C53.465,37.59,53.451,37.542,53.5,37.683Z"/>
    <path class="c" d="M53.525,37.776c-.01-.032,0-.017-.025-.079C53.508,37.724,53.5,37.7,53.525,37.776Z"/>
    <path class="c" d="M53.505,37.71c0-.008,0-.011-.016-.051l.009.031Z"/>
    <path class="c" d="M70.1,40.7a.566.566,0,0,0,.047-.073C70.1,40.7,70.114,40.675,70.1,40.7Z"/>
    <path class="c" d="M69.006,39.974c.02-.029.013-.017.02-.031Z"/>
    <path class="c" d="M67.523,41.784l.016.005h.044A.243.243,0,0,1,67.523,41.784Z"/>
    <path class="c" d="M63.948,41.221l-.017,0,.039,0Z"/>
    <path class="c" d="M64.034,41.218l.044,0Z"/>
    <path class="c" d="M67.583,41.789c.01,0,.015,0,.025,0h.03C67.618,41.794,67.6,41.789,67.583,41.789Z"/>
    <path class="c" d="M63.948,41.221h0Z"/>
    <path class="c" d="M53.451,37.542l-.007-.024c.009.028.006.023.045.141l0-.016c.011.036.008.025.03.094l-.009-.027c.02.065.008.029.049.152-.01-.028-.02-.057-.029-.086.45,21.089,14.86,19.341,21,11.465,1.974-6.181,2.138-11.963.359-12.915-4.4-.709-5.7-4.962-8.317-7.41q-.607-.28-1.255-.552c2.425,3.014,1.639,8.99.509,11.262h0v0h0c-.023.021-.034.028-.054.046a1.075,1.075,0,0,1-.174.148l-.018.014a.12.12,0,0,0,.026-.018.12.12,0,0,1-.026.018l-.029.024a.16.16,0,0,1,.026-.021l-.026.019.026-.019.018-.015,0,0,.008-.007h0c-.136.1-.178.093-.286.177h0c-.013-.045-.022-.087-.035-.131a3.432,3.432,0,0,1-2.7-.624.062.062,0,0,1,.018.015c.017.012.014.011.02.02-.006-.009,0-.008-.02-.02a.317.317,0,0,0-.044-.035c.02.008.015.013.02.015.888-5.665-.9-8.131-.475-10.506l-.1.019c-2.748,3.544-6.076,4.408-9.4,4.722A7.761,7.761,0,0,0,53.451,37.542Zm12.786,4.367h0Zm0,0c-.025,0-.015,0-.025,0l.08.015A.18.18,0,0,1,66.239,41.906Zm3.553.541c.01,0,0,0,.025.01C69.794,42.447,69.8,42.449,69.792,42.447Zm2.534-5.292c-.017-.009-.035-.018-.052-.025C72.291,37.137,72.309,37.146,72.326,37.155Zm-3.495-.667c1.436-1.721,2.856.745,3.653.731C73.475,39.215,68.333,36.631,68.831,36.488ZM66.9,40.2l.006.016-.012,0Zm-1.048.772a.017.017,0,0,1-.01.005A.017.017,0,0,0,65.852,40.971ZM65.3,40l.008,0,0,0h0l0,0-.01.006Zm-.465.171h0Zm-1.178,1.056h0Zm-.426-1.484a.278.278,0,0,1,.029.024l-.029-.024h0Zm-1.147,1.489c.491-.161.421-.015.658-.05l0,0a3.1,3.1,0,0,0,.867.054h-.01a.258.258,0,0,0,.053,0l0,0h.016c.07,0,.069-.011.087,0h0c.069,0,.134,0,.2-.01H64l.019,0h.006c.507-.054.607-.017.789-.037h-.03a.187.187,0,0,0,.04,0l-.01,0a.109.109,0,0,1,.033,0h0c.932-.064.923-.24,1.416-.26a4.445,4.445,0,0,1,.578,0c.072-.038.1-.045.051,0,.37.02.7.049,1,.083a2.731,2.731,0,0,1,1.38-1.271c.508-.049.657.612.535.6a10.337,10.337,0,0,1-.944.826c.163.033.317.068.45.1.1-.064.225-.133.364-.208a1.346,1.346,0,0,0,.494-.451c1.252.276.7.731-.051,1.012.673.536-.778,1.036-2.507.19a.243.243,0,0,1-.06,0h-.009c-.139-.005-.239-.007-.324-.007-.208.118-.45.163-.585.037.028-.005.052-.006.08-.01-.033,0-.064,0-.1,0l-.049,0h.025c-.04,0-.039,0-.05.005h.02c-.065,0-.129,0-.194,0H66.4c-2.026.088-1.938.036-2.421-.349-.028.5-.041.413-.1.514.01,0,.015,0,.025,0-.035.01-.065.025-.1.035l.03-.015a12.49,12.49,0,0,1-1.569.325,6.4,6.4,0,0,0-2.534,1.29.109.109,0,0,1,.025-.02C55.965,46.213,61.118,40.44,62.083,41.236Zm-3.745-8.807,0,.069-.057-.047Z"/>
    <path class="c" d="M63.993,41.22h0Z"/>
    <path class="c" d="M68.379,98.781c-.006.023-.01.046-.017.069l.017-.069h0a18.4,18.4,0,0,0,.513-7.014q-.169-1.18-.389-2.492c-1.616-7.93-6.378-15.235-4.782-20.512-.031-.591-.354-1.924-1.385-.589,2.22,18.955,4.478,28.856,5.853,31.892.432-.114.858-.24,1.285-.365q.021-.268.029-.585Q68.92,98.972,68.379,98.781Z"/>
    <path class="c" d="M77.292,96.713A51.139,51.139,0,0,0,90.756,87.26a13.408,13.408,0,0,1-5.3-4.537c-2.284,11.763-5.833,12.111-9.2,7.931-1.491-.479-1.948-1.766-2.212-3.4-4.094-7.461-7.361-19.746-6.8-22.548a10.244,10.244,0,0,1-2.256,1.717,6.6,6.6,0,0,0-1.269,2.344.621.621,0,0,1-.014.235,177.247,177.247,0,0,1,4.8,20.277q.252,1.237.389,2.492a47.722,47.722,0,0,1,.611,7.349q.561.136,1.157.23a50.785,50.785,0,0,0,6.57-2.6Z"/>
    <path class="c" d="M63.7,69.042l0,.114C63.707,69.118,63.705,69.079,63.7,69.042Z"/>
    <path class="c" d="M92.312,85.506a14.719,14.719,0,0,0-5.538-4.633A19.178,19.178,0,0,0,92.312,85.506Z"/>
    <path class="c" d="M63.7,69.011l0-.013-.005-.016Z"/>
    <path class="c" d="M68.5,89.275A177.247,177.247,0,0,0,63.707,69l0,.013v-.029l.005.016a.621.621,0,0,0,.014-.235C62.125,74.04,66.887,81.345,68.5,89.275Zm-4.8-20.119,0-.114C63.705,69.079,63.707,69.118,63.707,69.156Z"/>
    <path class="c" d="M68.362,98.85c.007-.023.011-.046.017-.069h0Z"/>
    <path class="c" d="M68.379,98.781q.54.192,1.124.335a47.722,47.722,0,0,0-.611-7.349A18.4,18.4,0,0,1,68.379,98.781Z"/>
    <path class="c" d="M77.292,96.713l-.062.029Z"/>
    <path class="a" d="M27.448,18.414c1.625-1.54,2.051-6.9-.467-10.167a51.429,51.429,0,0,0-5.612,4.321c-.028.721-.618,1.543-1.062,1.549a1.78,1.78,0,0,1-.967.342A51.109,51.109,0,0,0,14.87,19.5C16.3,23.558,20.375,25.286,27.448,18.414Z"/>
    <path class="a" d="M20.307,14.117c.444-.006,1.034-.828,1.062-1.549-.692.613-1.371,1.242-2.029,1.891A1.78,1.78,0,0,0,20.307,14.117Z"/>
    <path class="a" d="M101.1,28.583c-.479-.992-1-1.96-1.542-2.916a4.266,4.266,0,0,0-3.232-1.194C83.459,26.832,102.958,44.762,101.1,28.583Z"/>
    <path class="a" d="M95.981,20.177a51.282,51.282,0,0,0-8.69-9.024C85.5,16.377,91.749,24.951,95.981,20.177Z"/>
    <path class="a" d="M20.738,78.913a.3.3,0,0,0-.01.032c-.007.035,0,.021-.008.038l0,.015C20.733,78.926,20.734,78.929,20.738,78.913Z"/>
    <path class="a" d="M14.907,68.352c-8.893,3.817,6.24,26.084,11.188,8.621C25.783,72.767,22.576,65.807,14.907,68.352ZM20.72,78.983l.008-.038a7.658,7.658,0,0,0,.154-1.149C22.763,79.268,19.534,82.223,20.72,78.983Z"/>
    <path class="a" d="M20.882,77.8a7.658,7.658,0,0,1-.154,1.149.3.3,0,0,1,.01-.032c0,.016,0,.013-.02.085l0-.015C19.534,82.223,22.763,79.268,20.882,77.8Z"/>
    <path class="a" d="M20.72,78.983c0-.017,0,0,.008-.038Z"/>
    <path class="d" d="M80.676,45.013l-.021-.025-.019-.02-.042-.046-.027-.025C80.659,44.99,80.652,44.987,80.676,45.013Z"/>
    <path class="d" d="M70.318,65.606l-.02-.042,0-.01-.018-.037-.024-.04C70.31,65.583,70.3,65.579,70.318,65.606Z"/>
    <path class="d" d="M81.684,59.761c0,.015,0,.03,0,.046v.019c0,.026,0,.054,0,.084A1.446,1.446,0,0,1,81.684,59.761Z"/>
    <path class="d" d="M86.622,70.517l.006.029c.021.1.021.106.026.128s.015.063.022.094C86.631,70.563,86.645,70.624,86.622,70.517Z"/>
    <path class="d" d="M70.485,67.8a.4.4,0,0,0,.016.056Z"/>
    <path class="d" d="M83.155,77.621v0c.012-.019.024-.038.036-.059Z"/>
    <path class="d" d="M53.425,17.143h0Z"/>
    <path class="d" d="M82.563,88.121v.007h0a.2.2,0,0,0,0-.029Z"/>
    <path class="d" d="M53.5,17.146c-.07,0-.046,0-.07,0A.629.629,0,0,0,53.5,17.146Z"/>
    <path class="d" d="M70.508,68.166l0-.033Z"/>
    <path class="d" d="M82.793,85.421c-.006.016-.012.034-.018.051l-.011.039,0,.018C82.785,85.44,82.788,85.441,82.793,85.421Z"/>
    <path class="d" d="M52.542,75.4a.334.334,0,0,1-.025-.059l0,.016Z"/>
    <path class="d" d="M54.414,81.874h0V81.9Z"/>
    <path class="d" d="M44.852,81.614l0,.007.03.032.029.03C44.878,81.644,44.87,81.634,44.852,81.614Z"/>
    <path class="d" d="M44.048,87.571l-.017-.064C44.048,87.571,44.042,87.551,44.048,87.571Z"/>
    <path class="d" d="M42.046,74.058a.354.354,0,0,0,.014-.041Z"/>
    <path class="d" d="M42.059,74.077c-.006.1-.006.064-.006.1C42.057,74.141,42.058,74.109,42.059,74.077Z"/>
    <path class="d" d="M39.729,58.915a.71.71,0,0,0-.017-.092C39.729,58.915,39.722,58.883,39.729,58.915Z"/>
    <path class="d" d="M50.393,69.669c-.007-.034,0-.021-.007-.035Z"/>
    <path class="d" d="M50.385,69.625l-.008-.046C50.385,69.625,50.379,69.606,50.385,69.625Z"/>
    <path class="d" d="M53.414,80.038c0,.019,0,.037,0,.055l0,.032v.068C53.409,80.064,53.414,80.066,53.414,80.038Z"/>
    <path class="d" d="M52.519,75.352a.033.033,0,0,0,0-.014l0,.007Z"/>
    <path class="d" d="M52.52,75.354v0a.283.283,0,0,1,0,.029l.006.018C52.526,75.384,52.522,75.369,52.52,75.354Z"/>
    <path class="d" d="M40.754,63.1c0-.029,0-.059,0-.089C40.754,63.1,40.754,63.068,40.754,63.1Z"/>
    <path class="d" d="M44.712,63.86l-.01-.047C44.712,63.86,44.708,63.845,44.712,63.86Z"/>
    <path class="d" d="M42.019,69.092c.024.1.014.065.024.1Q42.03,69.139,42.019,69.092Z"/>
    <path class="d" d="M44.879,62.545c0-.02-.009-.039-.014-.058Z"/>
    <path class="d" d="M50.411,69.741c0-.021-.01-.042-.015-.062Z"/>
    <path class="d" d="M49.392,82.974v0l.02-.033Z"/>
    <path class="d" d="M49.269,79.718l-.008.021-.012.035c-.01.033-.019.065-.028.1C49.265,79.729,49.246,79.787,49.269,79.718Z"/>
    <path class="d" d="M44.725,63.916a.4.4,0,0,0,0-.049A.25.25,0,0,0,44.725,63.916Z"/>
    <path class="d" d="M41.562,72.1l.031-.045Z"/>
    <path class="d" d="M41.5,72.211q.027-.045.051-.09C41.5,72.211,41.514,72.181,41.5,72.211Z"/>
    <path class="d" d="M40.935,67.509l.015-.047Z"/>
    <path class="d" d="M48.376,76.166c.009.053.005.035.009.053Z"/>
    <path class="d" d="M45.945,67.946c0-.031,0-.062,0-.095C45.945,67.946,45.945,67.914,45.945,67.946Z"/>
    <path class="d" d="M56.344,81.343v-.02l0-.021v-.017c0,.07,0,.081-.006.1A.3.3,0,0,0,56.344,81.343Z"/>
    <path class="d" d="M68.285,26.508l-.035-.035C68.282,26.511,68.273,26.5,68.285,26.508Z"/>
    <path class="d" d="M85.337,74.069l.083-.077C85.337,74.069,85.365,74.041,85.337,74.069Z"/>
    <path class="d" d="M82.38,86.463c-.045.069-.031.046-.045.069Q82.359,86.5,82.38,86.463Z"/>
    <path class="d" d="M52.057,16.456c-.082.039-.054.024-.082.039Z"/>
    <path class="d" d="M66.275,22.524a.338.338,0,0,0-.051.011Z"/>
    <path class="d" d="M68.23,26.169l-.006.13A1.142,1.142,0,0,0,68.23,26.169Z"/>
    <path class="d" d="M82.536,63.34l-.027-.135C82.536,63.34,82.526,63.294,82.536,63.34Z"/>
    <path class="d" d="M55.239,29.731c.037,0,.073,0,.109,0A.745.745,0,0,0,55.239,29.731Z"/>
    <path class="d" d="M85.431,73.982l.048-.041Z"/>
    <path class="d" d="M81.6,60.264c-.015.051-.011.034-.015.051Z"/>
    <path class="d" d="M86.8,72c0-.021,0-.043,0-.064Z"/>
    <path class="d" d="M86.284,73.115l.08-.129C86.284,73.115,86.308,73.072,86.284,73.115Z"/>
    <path class="d" d="M52.2,31.138l-.028.01Z"/>
    <path class="d" d="M53.23,30.478l-.049.039Z"/>
    <path class="d" d="M39.166,79.728l0,0,.025.015.022.013Z"/>
    <path class="d" d="M56.468,85.56l-.01.034v0c.015-.055.023-.077.029-.1C56.48,85.519,56.474,85.539,56.468,85.56Z"/>
    <path class="d" d="M39.735,59c0,.067,0,.044,0,.067C39.735,59.044,39.735,59.021,39.735,59Z"/>
    <path class="d" d="M36.881,65.87c.011.068.006.045.011.068C36.889,65.916,36.885,65.893,36.881,65.87Z"/>
    <path class="d" d="M50.792,17.18l-.022.035Z"/>
    <path class="d" d="M37.355,64.471c.013.066.008.044.013.066Z"/>
    <path class="d" d="M57.519,29.084l.055-.048Z"/>
    <path class="d" d="M54.145,83.989l-.01-.035C54.145,83.989,54.141,83.978,54.145,83.989Z"/>
    <path class="d" d="M81.644,59.234l-.008-.042Z"/>
    <path class="d" d="M56.579,84.681c.024.1.015.065.024.1Z"/>
    <path class="d" d="M56.591,84.956v0Z"/>
    <path class="d" d="M36.563,71.884l.017-.074C36.563,71.884,36.567,71.861,36.563,71.884Z"/>
    <path class="d" d="M81.6,71.193c-.016.062-.011.041-.016.062C81.591,71.234,81.6,71.214,81.6,71.193Z"/>
    <path class="d" d="M76.409,30.1v0l-.008-.032a.221.221,0,0,1,.007.058Z"/>
    <path class="d" d="M34.353,38.436c0,.051,0,.035,0,.051C34.351,38.47,34.353,38.452,34.353,38.436Z"/>
    <path class="d" d="M32.145,61.7a.2.2,0,0,0,0-.039Z"/>
    <path class="d" d="M81.092,72.209c-.1.15-.066.1-.1.15Z"/>
    <path class="d" d="M79.854,76.289l-.022.075C79.839,76.339,79.847,76.314,79.854,76.289Z"/>
    <path class="d" d="M47.593,91.462c14.746,5.684,14.192-15.151,6.677-24.95,2.367.985,6.773,2.133,10.72-.093a7.738,7.738,0,0,1,.755-.791l0,0,0,0h0c1.078-.7.927-.6,1.491-.962,2.25-.98,1.071,1.531.419,1.747a4.428,4.428,0,0,1,2.381,2.713c.083-.739.153-1.37.188-1.741l.088.088c-1.327-1.278-1.423-2.539-1.1-3.065,1.366-.7.836.911,1.059,1.109l.023.047a4.65,4.65,0,0,1,.353,5.168c-.055.265-.106.511-.156.747.214,2.879-.473,5.991.035,6.983,3.147,2.518,3.082,6.115,3.513,8.788a23.622,23.622,0,0,0,2.212,3.4,5.91,5.91,0,0,0,2.452.15,6.843,6.843,0,0,0,3.643-2.362c-.677.181-1.141-1.118.414-2.931l.011-.039a15.386,15.386,0,0,0-.509-3.324c-3.326-6.192,5.307-7.331,4.388-11.474-.026-.128-.019-.086-.026-.128-.018-.079-.036-.158-.053-.238.013.081.034.162.054.25-1.821-4.223-7.221-4.727-5.5-9.031l.014-.048-.014.048-.021.077a11.867,11.867,0,0,0,.571-1.778v-.019c-1.856-3.19-1.163-5.523.228-7.387l-.007.014c.3-.484.577-.98.876-1.463l-.017.022a1.378,1.378,0,0,0,.176-1.334c-2.067-3.921-6.828-6.751-4.519-10.289,1.339-.778.446,1.165.4,1.457a5.236,5.236,0,0,0,.737,2.665,7.53,7.53,0,0,0,1.044,1.43.757.757,0,0,1,.061.066c6.969,4.217-.018,8.968.831,12.293C83.385,68.838,94.694,70.693,84,76.64a.5.5,0,0,1,.039-.041,4.876,4.876,0,0,0-.88,1.02l-.016.026.015-.024a4.442,4.442,0,0,0-.5,2.028,5.6,5.6,0,0,0,.15,1.152l0-.011a13.632,13.632,0,0,1,.539,2.464v-.011c.007.034.014.074.02.108-.007-.035-.012-.064-.019-.1a14.575,14.575,0,0,1,.12,1.907c.2-2.209-.221-4.341,1.071-5.225a7.405,7.405,0,0,1,.26-2.6,12.681,12.681,0,0,0,1.178,2.377c.027-.177.055-.344.082-.525,5.3-2.611,7.232-10.112.132-15.654,1.158-14.841,1.287-31.382-6.52-47.885l.039.284A18.586,18.586,0,0,0,64.719,6.08C49.356,9.887,21.006,14.66,27.251,40.253c-2.324,2.951-6.079,9.869-3.078,15.655,10.553,9.17-3.751,15.161,8.858,26.308-.421,4.866-7.307,4.455-13.841,4.685.8.792,1.625,1.55,2.472,2.288,2.892-.275,6.044-.537,9.69-.976C29.783,94.8,37.051,105.068,47.593,91.462ZM35.812,93.856c.019.01.036.02.053.031C35.848,93.876,35.831,93.866,35.812,93.856Zm1.5-18.01.052.029Zm2.65,15.643,0-.041Zm-.243,2.345c-1.937-2.225.981-11.6-.523-14.088l-.025-.015a.693.693,0,0,1-.089-.06c.029.017.02.014.087.057-5.328-9.578-1.783-20.474-7.543-29.395-.385-.551-.763-1.1-1.183-1.64a19.052,19.052,0,0,1,1.183,1.64C40.216,62.624,40.41,78.318,39.716,93.834Zm-.671-4.794a.9.9,0,0,1,.041.082Zm.041.082h0Zm.377-7.591c.014-.047,0,0,.043-.135C39.492,81.441,39.478,81.486,39.463,81.531Zm-2.968-1.093c-.01-.022-.021-.044-.032-.065C36.474,80.394,36.485,80.416,36.495,80.438Zm-.061-.081-.013-.064C36.427,80.315,36.421,80.293,36.434,80.357ZM33.545,53.049l.026.053Zm6.61,34.638c.012-.039,0,0,.039-.118C40.182,87.608,40.17,87.647,40.155,87.687Zm.066-3.453.063.037Zm.613-1.341.025.045ZM43.229,91.9v0l-.007.019.006-.017c-1.544,2.478-.589-2.257.056-2.647-.1-4.007,1.132-6.1,1.6-7.6l-.03-.032c-.031-.034-.061-.067-.09-.1.022.023.04.044.086.094C39.7,74.5,41.248,61.5,38.5,55.528c1.286.056,1.059,1.074,1.23,1.292-.008-.036-.017-.072-.025-.108.027.054.054.108.074.156-.022-.006-.034-.029-.049-.048C42.71,70.135,47.6,81.47,43.229,91.9Zm-.794-.347c0-.019,0,0,.017-.054Zm2.642-9.722a.063.063,0,0,1,.013.028Zm4.28,4.841.011-.041Zm.034-3.694-.041.068.041-.07v0c.18-2.149-.52-2.891-.143-3.2l.012-.035c.056-3.533-3.119-4.259-2.294-6.306l-.012.034a4.465,4.465,0,1,0,.156-.494c-2.7-4.609-2.641-9.665-2.963-11.657a4.735,4.735,0,0,1,1.524,3.576C50.59,73.5,50.467,96.79,49.391,82.978Zm.587,1.938v0Zm.008.116L50,85.1Zm.01-.1,0,0Zm.053-.229c.006-.024.013-.047.018-.071Zm.049-3.28,0,0Zm.023-.336.044-.143A1.429,1.429,0,0,1,50.121,81.091Zm3.287-.966,0-.032a2.645,2.645,0,0,0-.049-.679c.007.034.015.07.02.1-.034-.059-.054-.114-.085-.173-.019-.013-.038-.026-.057-.037.019.011.038.024.057.037a7.635,7.635,0,0,1-.775-3.963.3.3,0,0,0-.026-.075l.019.032-.006-.035a.346.346,0,0,1,.009.035c-.478-4.028-5.2-8-3.013-10.759,1.125-.215.983.932.8,1.415,2.208,5.587,4.042,11.686,4.107,15.866,0-.019,0-.033,0-.077,0,.032,0,.061,0,.09h0C56.958,90.96,52.436,84.06,53.408,80.125Zm2.2-.074c0-.032,0,0,.006-.093Zm.737,1.212V81.3l0,.041c2.239,2.334.769,6.812.115,4.254-.006.019-.009.028-.018.064l.017-.067.01-.034a21.253,21.253,0,0,0-.3-2.856l-.012-.013.012.013c-.808-4.895-2.9-10.183-1.96-13.916a35.67,35.67,0,0,1,2.137,12.5Zm9.262-15.546c.02-.014,0,0,.062-.04ZM33.122,43.42c.1.053.013.036.264-.065,4.051.626,5.994-1.244,7.968-3.915-.857-.122-.292-.835-.111-.857.284-.017.525-.018.739-.011a42.945,42.945,0,0,1,3.412-4.427,58.125,58.125,0,0,1,7.2-.677A3.589,3.589,0,0,1,54,31.008c-1.338.592-2.41,1.008-2.3.97-4.38-.308,5.757-3.57,6.022-4.5,2.05.241.724,1.29-1.2,2.315a51.447,51.447,0,0,1,5.47-1.05c.039-.051.079-.1.118-.149a3.99,3.99,0,0,1,.291-.844c-1.784-1.555-1.589-2.027-1.262-2.411.761.32.417.692.553.832a1.034,1.034,0,0,0-.02-.11c.384.374.739.728,1.076,1.073.075-.114.141-.226.23-.343a4.591,4.591,0,0,1,1.586.824,6.4,6.4,0,0,1,2,1.3,28.732,28.732,0,0,1,4.127,2.311c-2.128-3.27-4.775-8.035-4.612-8.59-2.657-1.93-7.108-3.712-6.247-5.018,7.071,1.785,9.157,8.592,12.333,13.192l-.015-.066c.418,1.009.7,1.77.883,2.329,5.781,5.344,4.95,11.728,1.489,16.167C69.946,63.578,55.616,80.063,33.122,43.42Zm.405-2.562.033-.018Zm3.385-2.672c.005-.029,0,0,.019-.078C36.925,38.134,36.918,38.16,36.912,38.186Zm21.435-10.71.052.005Zm2.219-4.665c-.007-.04-.014-.074-.021-.108a4.912,4.912,0,0,0,.289.892c1.447-1.36,2.379.737,2.654,1.346,7.733,3.45-5.89-.488-3.5-3.083C60.806,22.226,60.406,22.688,60.566,22.811ZM60.162,19c.018-.007,0,0,.045-.011ZM73.075,73.8v.142c-.009-.019-.013-.037-.021-.056-1.881,7.674-1.138-5.6-.563-6.375a4.565,4.565,0,0,0-.336-.866c-1.249-1.736-1.516-3.224-1.19-4.326.884.364.793.8.744.88,0,.084-.007.09-.007.108a.355.355,0,0,0,.006-.047v0a1.989,1.989,0,0,0,.274,1.388c.761,1.287.757,1.248.918,1.554-.021-.033-.034-.06-.055-.094,1.688,3.434-.882,5.376.209,7.778C73.061,73.85,73.068,73.826,73.075,73.8Zm2.6,6.585c.068.286.128.571.189.857.006.025.012.05.017.075.477,1.578.467,1.605.554,1.955l-.041-.162a8.638,8.638,0,0,1,.3,3.343v.107c0-.039,0-.072,0-.107,0,.156-.006.317-.013.472a.448.448,0,0,0,.006-.063c0-.019,0-.039,0-.058v.058c0,.059,0,.118-.007.177v-.005a.588.588,0,0,1,0,.06c0-.018,0-.036,0-.055-.816,4.137-4.1-12.16-1.785-11.642-.04.055-.074.115-.115.176,4.785-4.5-1.923-7.922-.054-11.666-1-4.894-1.156-8.6.792-12.039,1.566-1.077.9,1.269.781,1.665.011-.027.019-.055.031-.082-.014.047-.034.095-.048.142,0,0,.007-.027.017-.06-3.258,8,4.309,16.416.234,22.216.033-.061.074-.122.108-.182A5.18,5.18,0,0,0,75.671,80.38Zm.144-6.374c.017-.03,0,0,.053-.088Zm4.154,12.3c.007-.02.014-.042.02-.063ZM78.088,46.664c-.014-.034-.034-.068-.048-.095C78.054,46.6,78.074,46.63,78.088,46.664Zm1.021,18.475a4.05,4.05,0,0,0,.987,1.7c7.632,4.272-1.862,8.246-.569,11.944l0-.037v.094c0,.176-.01.35-.02.522,0,.024,0,.046,0,.068.583,2.549,1.4,4.272.753,5.7.021-.055.034-.109.054-.163-.112.387-.179.783-.294,1.172l0-.008-.008.021,0-.013c-1.1,2.647-1.733-.993-.957-1.684a6.036,6.036,0,0,0,.156-1.093v-.033c-2.686-5.646.595-8.926,2.442-12.572-5.273-5.732-4.575-14.009-3.039-20.1v.122a4.546,4.546,0,0,0-.155-1.612l0,.027,0-.027c-.5-1.754-1.918-2.412-1.259-3.422C81.676,51.384,78.183,59.2,79.109,65.139Zm-.081-.811v.128C79.027,64.413,79.028,64.456,79.028,64.328ZM66.571,8.194C74.594,9.469,79.507,20.55,80.183,26.21l.053-.176c-.776,2.942,2.93,5.821.84,8-.429,5.746,2.069,8.869,4.644,12.221,0-.027.008-.045.01-.075.007.041.014.081.021.115l-.031-.04c-.2,1.839-1.483-.988-2.258-1.186.015.02.028.042.043.063l-.142-.082a.332.332,0,0,1,.1.019c-6.074-8.536-2.664-21.606-9.646-29.7C64.054,6.093,50.341,12.71,66.571,8.194ZM78.41,28.815l-.013-.026-.051-.094c-.044-.083-.03-.055-.044-.083l.044.083c.018.032.035.063.051.094Zm-1.958.161c0,.029,0,.059,0,.089ZM75.576,18l-.043-.044Zm-.053-.054c-.034-.039-.069-.077-.1-.115C75.454,17.866,75.489,17.9,75.523,17.943Zm-16.036-3.68c.007,0,.01,0,.042-.01,2.413-.769,2.731-1.517,3.55-1.669,7.363,5.069,11.657,10.11,13.322,17.477v-.009l.009.041a.007.007,0,0,1,0,0c.028.118.017.079.028.118a.9.9,0,0,1-.017-.346c1.524,2.292,1.994,4.074,1.82,4.829a3.964,3.964,0,0,0,.535,1.327c-4.349.11-7.421-17.9-10.844-19h-.047c-4.393,2.015-2.478-4.155-4.994-3.273.04-.02.081-.041.115-.061-2.291,1.2-1.862,1.009-2.9,1.292.011,0,.019,0,.03,0L60.028,15l.078-.021C56.418,15.066,57.322,11.857,59.487,14.263ZM48.335,29.6c-6.372,4.361-10.143,10.043-8.738,7.422v.108C41.3,30.2,51.014,26.689,54.48,24.719,57.521,26.644,49.1,29.834,48.335,29.6Zm.88-5.8c-14.3,8.533-11.241,17.139-12.1,12.819v.115c-.5-8.878,10.7-13.586,14.883-15.986C59.582,19.706,50.582,24.719,49.215,23.8Zm4.759-3.3.061,0Zm-3.3-3.02c-6.331,8.011-14.126,5.874-15.392,14.557,0-.035,0-.072,0-.11,0,.124,0,.091-.007.156,0-.015,0-.03,0-.046h0c.966,3.8-2.629,12.677-1.229,8.4-.02.027-.047.061-.068.094a.523.523,0,0,0,.048-.108,1.853,1.853,0,0,0-.217-1.049c.02.034.034.068.054.1-.2-6.778.844-12.416,3.622-14.762h0c1.51-1.234,1.989-1.391,2.369-1.351,3.877-1.969,6.613-4.281,9.122-5.8l-.026,0,.027,0A10.509,10.509,0,0,1,52.876,16C57.691,16.012,51.206,18.87,50.676,17.481ZM33.963,40.572l.045-.039Zm2.042-14.015c0-.021,0,0,0-.062C36.009,26.516,36.007,26.536,36.005,26.557Zm5.08-8.128.051-.082Zm7.711-.776c.034-.019,0,0,.106-.056A.71.71,0,0,1,48.8,17.653Zm.214-.137.037-.032ZM54.2,16.03l-.135-.043-.028-.011C54.094,16,54.148,16.009,54.2,16.03ZM30.914,67.535c2.4-7.738-1.04-9.087-4.678-16.023,4.4-11.34.424-30.692,12.691-32.689,1.89-3.825,4.354-3.644,5.882-3.365l-.064-.019-.139-.042.139.042c2.441-.9,4.031-5.128,5.219-4.318,4.47-.4,4.306,2.431,1.374,1.137a2.633,2.633,0,0,0-1.663.347c-1.725.994-1.5,1.436-1.859,2.042-1.032,5.112-5.508.5-6.771,3.832l.013-.007c-.013.021-.026.043-.037.064.007-.02.016-.037.024-.057-7.8,3.835-4.138,5.347-8.039,7.452l.032-.014c-2.539,5.764-1.281,9.665-1.071,15.193-3.516,5.711-5.02,8.847-.249,14.975,5.124,6.047-2.345,15.245,2.517,20.03-.034-.075-.074-.149-.115-.23,4.573,5.6,1.272,14.78,1.642,17.946-5.182-4.051.115-9.6-1.147-13.353C32.648,75.861,27.309,71.709,30.914,67.535Zm.79-31.681c-.006-.029,0,0-.019-.087C31.692,35.8,31.7,35.825,31.7,35.854Z"/>
    <path class="d" d="M67.828,17.016l.056.005h.1C67.858,17.02,67.856,17.016,67.828,17.016Z"/>
    <path class="d" d="M78.758,85.6c-.026.08-.018.053-.026.08Z"/>
    <path class="d" d="M48.984,17.565h0a.757.757,0,0,0,.1-.02Z"/>
    <path class="d" d="M30.547,32.207a.642.642,0,0,0,.015.069Q30.553,32.242,30.547,32.207Z"/>
    <path class="d" d="M34.286,33.887l-.021.037Z"/>
    <path class="d" d="M80.413,30.966c0-.027,0-.055,0-.082C80.413,30.966,80.413,30.939,80.413,30.966Z"/>
    <path class="d" d="M78.742,55.273c.009-.029.018-.058.026-.088Z"/>
    <path class="d" d="M79.224,83.27c0,.023,0,.045-.005.067v.1C79.219,83.3,79.224,83.3,79.224,83.27Z"/>
    <path class="d" d="M78.523,60.576l-.009-.05Z"/>
    <path class="d" d="M29.929,36.708c.019.08.012.053.019.08C29.93,36.708,29.934,36.735,29.929,36.708Z"/>
    <path class="d" d="M29.956,36.821l-.008-.033Z"/>
    <path class="d" d="M28.607,48.083l-.075.064C28.558,48.127,28.583,48.105,28.607,48.083Z"/>
    <path class="d" d="M35.394,29.689l-.014.042Z"/>
    <path class="d" d="M78.467,49.172h0l-.007-.039Z"/>
    <path class="d" d="M34.429,33.18c0-.027-.01-.054-.016-.082Z"/>
    <path class="d" d="M32.13,61.562A.3.3,0,0,0,32.1,61.5Z"/>
    <path class="d" d="M79.528,78.845v-.053l0,0c0,.084,0,.108,0,.132Q79.527,78.884,79.528,78.845Z"/>
    <path class="d" d="M79.5,79.489c0-.018,0-.036,0-.054v-.116C79.506,79.455,79.5,79.46,79.5,79.489Z"/>
    <path class="d" d="M51.991,27.689l-.052.01Z"/>
    <path class="d" d="M34.029,36.386l-.008-.04C34.029,36.386,34.026,36.373,34.029,36.386Z"/>
    <path class="d" d="M44.976,31.97c-.129.063-.087.04-.129.063C44.888,32.014,44.932,31.993,44.976,31.97Z"/>
    <path class="d" d="M48.3,29.6l.008-.008h0Z"/>
    <path class="d" d="M48.348,29.583h.044l-.043,0Z"/>
    <path class="d" d="M41.762,33.67l-.052.046Z"/>
    <polygon class="d" points="40.584 34.904 40.589 34.903 40.588 34.903 40.584 34.904"/>
    <path class="d" d="M49.394,23.627l-.075.071Z"/>
    <path class="d" d="M40.642,34.892a.372.372,0,0,0-.046.009Z"/>
    <path class="d" d="M49.373,23.735c-.074.017-.05.01-.074.017Z"/>
    <path class="d" d="M38.1,32.158l-.023.04C38.081,32.185,38.089,32.172,38.1,32.158Z"/>
    <path class="d" d="M51.752,27.8c-.052.048-.035.031-.052.048Z"/>
    <path class="d" d="M48.432,29.536a.3.3,0,0,0-.056.014Z"/>
    <path class="d" d="M48.466,29.482l-.049.023Z"/>
    <path class="d" d="M49.21,27.655l-.094.049A.935.935,0,0,0,49.21,27.655Z"/>
    <path class="d" d="M40.554,34.936c-.03.046-.021.03-.03.046Z"/>
    <path class="d" d="M70.61,19.782l.021.112C70.625,19.857,70.619,19.821,70.61,19.782Z"/>
    <path class="d" d="M70.3,20.08a.376.376,0,0,0,.054.005Z"/>
    <path class="d" d="M68.378,17.08l.037.025Z"/>
    <path class="d" d="M53.151,22.223c-.1.024-.069.014-.1.024Z"/>
    <path class="d" d="M59.554,14.249l-.025,0c-.032.009-.035.008-.042.01a.216.216,0,0,0-.041.013C59.534,14.251,59.53,14.255,59.554,14.249Z"/>
    <path class="d" d="M72.233,22.786l0-.08C72.233,22.786,72.233,22.76,72.233,22.786Z"/>
    <path class="d" d="M74.431,28.062c.014.062.009.042.014.062C74.441,28.1,74.436,28.082,74.431,28.062Z"/>
    <path class="d" d="M40.6,34.887l.041-.02Z"/>
    <path class="d" d="M52.127,22.9l-.154.144C52.026,23,52.077,22.953,52.127,22.9Z"/>
    <path class="d" d="M40.517,34.948l.035-.03Z"/>
    <path class="d" d="M50.23,21.978l-.092,0A.612.612,0,0,0,50.23,21.978Z"/>
    <path class="d" d="M39.59,37.269l-.018.047Z"/>
    <path class="d" d="M31.484,66.411l-.05.158C31.453,66.517,31.47,66.464,31.484,66.411Z"/>
    <path class="d" d="M36.03,26.82l-.041.037C36,26.845,36.017,26.833,36.03,26.82Z"/>
    <path class="d" d="M35.908,26.915l-.047.027Z"/>
    <path class="d" d="M60.654,23.7l.04-.012A.414.414,0,0,0,60.654,23.7Z"/>
    <path class="d" d="M37.344,26.28c-.028.046-.019.03-.028.046Z"/>
    <path class="d" d="M32.889,64.492a.348.348,0,0,0,0,.053Z"/>
    <path class="d" d="M61.6,24.056l.067-.012Z"/>
    <path class="d" d="M32.929,23.948c.036-.019.071-.038.1-.058C32.929,23.948,32.964,23.927,32.929,23.948Z"/>
    <path class="d" d="M72.579,71.756l0,.034Z"/>
    <path class="d" d="M35.756,21.313c.015-.023.029-.047.042-.071Z"/>
    <path class="d" d="M33.036,23.889l.1-.049Z"/>
    <path class="d" d="M71.993,73.538c-.006.065,0,.043-.006.065Z"/>
    <path class="d" d="M48.959,19.109l.054-.049A.506.506,0,0,0,48.959,19.109Z"/>
    <path class="d" d="M46.462,21.1c.035-.01.069-.018.1-.025h0A.665.665,0,0,0,46.462,21.1Z"/>
    <path class="d" d="M43.881,22.949c-.064.015-.043.009-.064.015Z"/>
    <path class="d" d="M44.182,22.829c-.054.026-.036.016-.054.026Z"/>
    <path class="d" d="M31.123,39.041c0-.022,0-.045,0-.068C31.123,39.041,31.123,39.019,31.123,39.041Z"/>
    <path class="d" d="M64.858,25.98c.038-.008.025-.006.038-.009Z"/>
    <path class="d" d="M50.758,17.349c-.049.011-.034,0-.049.012Z"/>
    <path class="d" d="M40.021,23.389h0Z"/>
    <path class="d" d="M38.3,24.158l-.036.058Z"/>
    <path class="d" d="M42.146,22.269l-.081,0A.475.475,0,0,0,42.146,22.269Z"/>
    <path class="d" d="M41.788,23.647l-.037.065A.631.631,0,0,0,41.788,23.647Z"/>
    <path class="d" d="M43.173,16.82a1.543,1.543,0,0,0,.175-.043Z"/>
    <path class="d" d="M75.534,84.593l.011.041Z"/>
    <path class="d" d="M75.407,78.66c0,.074,0,.05,0,.074C75.405,78.711,75.406,78.686,75.407,78.66Z"/>
    <path class="d" d="M31.089,38.656c.019.083.012.055.019.083C31.1,38.711,31.1,38.683,31.089,38.656Z"/>
    <path class="d" d="M75.253,57.95l-.006.137C75.251,58.04,75.253,58,75.253,57.95Z"/>
    <path class="d" d="M75.664,55.6c.011-.036.021-.072.029-.108Z"/>
    <path class="d" d="M75.89,81.373l-.013-.061,0-.016-.013-.059c0-.022-.011-.045-.018-.067C75.884,81.337,75.879,81.328,75.89,81.373Z"/>
    <path class="d" d="M30.71,29.678l.01-.031Z"/>
    <path class="d" d="M75.409,78.518v0Z"/>
    <path class="d" d="M30.615,32.076l.028-.043Z"/>
    <path class="d" d="M74.884,36.326c1.779.952,1.615,6.734-.359,12.915,3.461-4.439,4.292-10.823-1.489-16.167.806,2.515-.591.843-2.342-1.847a28.732,28.732,0,0,0-4.127-2.311C69.18,31.364,70.481,35.617,74.884,36.326Z"/>
    <path class="d" d="M61.993,28.746a51.447,51.447,0,0,0-5.47,1.05c-.806.429-1.713.852-2.525,1.212a3.589,3.589,0,0,0-1.408,2.46C55.917,33.154,59.245,32.29,61.993,28.746Z"/>
    <path class="d" d="M83.462,85.161c-.005,2.18-.61,3.146-1.112,3.281A6.843,6.843,0,0,1,78.707,90.8a5.91,5.91,0,0,1-2.452-.15c3.366,4.18,6.915,3.832,9.2-7.931a6.5,6.5,0,0,1-.921-2.787C83.241,80.82,83.661,82.952,83.462,85.161Z"/>
    <path class="d" d="M70.53,78.462c-.508-.992.179-4.1-.035-6.983-1.517,7.143-.85,1.153-.459-2.353a4.428,4.428,0,0,0-2.381-2.713c.652-.216,1.831-2.727-.419-1.747-.564.362-.413.262-1.491.962a7.738,7.738,0,0,0-.755.791A10.244,10.244,0,0,0,67.246,64.7c-.564,2.8,2.7,15.087,6.8,22.548C73.612,84.577,73.677,80.98,70.53,78.462Zm-.563-4.576.006-.063A.434.434,0,0,1,69.967,73.886Z"/>
    <polygon class="d" points="65.741 65.631 65.745 65.628 65.745 65.628 65.741 65.631"/>
    <path class="d" d="M82.562,88.183l0-.056h0Z"/>
    <path class="d" d="M65.67,65.677c-.062.04-.042.026-.062.04Z"/>
    <path class="d" d="M63.085,28.51c-.071-.122-.136-.243-.215-.367h0l0,0,0,0h0a.022.022,0,0,0-.01-.006c-.093-.077-.176-.147-.261-.219-.158.236-.32.463-.483.679-.009.043-.013.087-.02.13C62.444,28.661,62.777,28.589,63.085,28.51Zm-.3-.417a.452.452,0,0,1,.056.038A.452.452,0,0,0,62.79,28.093Z"/>
    <path class="d" d="M62.957,27.35c.314.327.6.642.842.941a3.461,3.461,0,0,0,.628-.3c.306.12.592.245.885.368a4.706,4.706,0,0,0-.747-.746,5.722,5.722,0,0,0-1.526-.4C63.012,27.267,62.984,27.307,62.957,27.35Z"/>
    <path class="d" d="M64.525,30.985a.307.307,0,0,1,0-.07v-.08C64.531,30.959,64.523,30.956,64.525,30.985Z"/>
    <path class="d" d="M62.091,28.727c-.422,2.375,1.363,4.841.475,10.506-.005,0,0-.007-.02-.015a.317.317,0,0,1,.044.035.062.062,0,0,0-.018-.015,3.432,3.432,0,0,0,2.7.624c-1.44-4.984-.154-7.852-2.192-11.352C62.777,28.589,62.444,28.661,62.091,28.727Z"/>
    <path class="d" d="M63.8,28.291c.843,1.031,1.229,1.906.731,2.624,2.881,4.438.027,5.88,1.29,8.712h0c1.13-2.272,1.916-8.248-.509-11.262-.293-.123-.579-.248-.885-.368A3.461,3.461,0,0,1,63.8,28.291Zm2.306,3.229c-.03,0-.02,0-.03,0A.063.063,0,0,0,66.105,31.52Zm-.035,0h0Zm-.05,0c-.03.005-.02.005-.03.005A.063.063,0,0,0,66.02,31.525Z"/>
    <path class="d" d="M66.075,31.525c.01,0,0,0,.03,0A.063.063,0,0,1,66.075,31.525Z"/>
    <path class="d" d="M65.6,39.816l-.008.007a1.075,1.075,0,0,0,.174-.148c-.068.06-.127.11-.17.141Z"/>
    <path class="d" d="M64.944,34.839a.429.429,0,0,0-.04.034A.241.241,0,0,1,64.944,34.839Z"/>
    <path class="d" d="M65.99,31.53c.01,0,0,0,.03-.005A.063.063,0,0,1,65.99,31.53Z"/>
    <path class="d" d="M63.617,29.13c0,.085,0,.055,0,.085A.57.57,0,0,1,63.617,29.13Z"/>
    <path class="d" d="M63.039,27.222a5.722,5.722,0,0,1,1.526.4,4.591,4.591,0,0,0-1.586-.824c-.089.117-.155.229-.23.343.07.071.141.143.208.213C62.984,27.307,63.012,27.267,63.039,27.222Z"/>
    <path class="d" d="M62.4,27.753a3.99,3.99,0,0,0-.291.844c.163-.216.325-.443.483-.679Z"/>
    <path class="d" d="M63.23,39.747l.029.024A.278.278,0,0,0,63.23,39.747Z"/>
    <path class="d" d="M65.547,39.861l.029-.024,0,0A.16.16,0,0,0,65.547,39.861Z"/>
    <path class="d" d="M65.573,39.84l0,0,.018-.014,0,0Z"/>
    <polygon class="d" points="65.312 39.996 65.307 39.999 65.313 39.995 65.312 39.996"/>
    <polygon class="d" points="65.299 40.004 65.297 40.005 65.307 39.999 65.299 40.004"/>
    <path class="d" d="M66.9,40.2l-.006.014.012,0Z"/>
    <path class="d" d="M64.844,41.176h.016A.084.084,0,0,0,64.844,41.176Z"/>
    <path class="d" d="M63.946,41.221h0c-.065.005-.13.01-.2.01h0C63.817,41.231,63.882,41.226,63.946,41.221Z"/>
    <path class="d" d="M63.65,41.235h0Z"/>
    <polygon class="d" points="64 41.22 63.993 41.22 63.997 41.22 64 41.22"/>
    <polygon class="d" points="64.034 41.218 64.03 41.219 64.03 41.219 64.034 41.218"/>
    <path class="d" d="M64.781,41.181h.03l.01,0A.187.187,0,0,1,64.781,41.181Z"/>
    <path class="d" d="M64,41.22h0Z"/>
    <path class="d" d="M63.931,41.225h0c.02,0,.035-.005.05-.005H63.97Z"/>
    <path class="d" d="M64.016,41.218l-.019,0H64Z"/>
    <path class="d" d="M66.631,41.819c.03-.005.055-.005.085-.01H66.71c-.028,0-.052.005-.08.01.135.126.377.081.585-.037A4.471,4.471,0,0,0,66.631,41.819Z"/>
    <path class="d" d="M64.034,41.218l.044,0-.044,0h0a.219.219,0,0,1-.034,0h0a.077.077,0,0,1-.018,0h.015c-.005.1-.009.182-.013.254.483.385.4.437,2.421.349h-.035c.065,0,.129,0,.194,0h-.02c.011,0,.01-.005.05-.005h-.025l.049,0-.068,0h.015c-1.2.064-.043-.73.273-.9a4.445,4.445,0,0,0-.578,0c-.493.02-.484.2-1.416.26h0a.084.084,0,0,1,.016,0h-.016a.109.109,0,0,0-.033,0c-.182.02-.282-.017-.789.037h.012Z"/>
    <path class="d" d="M64,41.22h0Z"/>
    <path class="d" d="M66.239,41.906a.18.18,0,0,0,.055.01l-.08-.015C66.224,41.906,66.214,41.9,66.239,41.906Z"/>
    <polygon class="d" points="47.455 46.516 47.462 46.505 47.454 46.508 47.455 46.516"/>
    <path class="d" d="M46.075,47.253l.046-.075-.026.014C46.078,47.211,46.093,47.192,46.075,47.253Z"/>
    <path class="d" d="M51.993,50.05c.007.034,0,0,.02.108C52.005,50.112,52.01,50.139,51.993,50.05Z"/>
    <path class="d" d="M42.083,39.43l-.014,0c.051.005.009,0,.115.007h-.065a15.406,15.406,0,0,1,4.229.877l-.024-.01c.059.023.016.007.135.048-.029-.009-.055-.017-.081-.027A5.484,5.484,0,0,1,48.5,41.907l-.014-.016-.021-.027.021.027c.011.013.028.033.066.074-.016-.016-.03-.032-.044-.047A14.185,14.185,0,0,1,50.09,44.4l-.025-.05c.02.034.034.067.054.1L50.09,44.4A27.442,27.442,0,0,1,52.2,51.176a.229.229,0,0,0-.012-.037c.266,1.01-.1,2.679.663,4.5,2.606,4.581,13.276-3.873,4.126.309a.993.993,0,0,1,.1.071c-.048-.014-.1-.034-.149-.048l.053-.023c-.87-.616-3.444-.262-3.517-2.893,0-.019-.008-.047-.02-.1l.007.029c-.044-.251-.1-.5-.149-.746.007.041.013.081.02.129-.055-.328-.105-.651-.164-.978l0,.01-.021-.122c.007.038.012.075.019.112-.053-.379-.053-.158-.35-1.674.007.033.013.074.02.108a28.39,28.39,0,0,0-2.347-6.556l.009.028A7.583,7.583,0,0,0,43.1,38.67h0c-.192,0-.534-.08-1.114-.1-.211.3-.42.587-.628.868A2.852,2.852,0,0,0,42.083,39.43ZM60.118,55.259l-.025.039Zm-2.3.812-.056.008Zm-.114.018-.042.009Zm-2.146.489a.477.477,0,0,1-.043.022Zm-.044.022h0l-.013.007Zm-3.5-6.442c-.02-.108-.013-.074-.02-.108C52.01,50.139,52.005,50.112,52.013,50.158Zm-.981-5.771a.375.375,0,0,0-.019-.041A.375.375,0,0,1,51.032,44.387Zm-.514.861-.013-.029Zm-7.137-5.7-.056,0Zm-.334-.875c-.021,0-.041,0-.058,0C43.006,38.664,43.026,38.666,43.047,38.668Z"/>
    <path class="d" d="M52.886,55.731l.02.042Z"/>
    <path class="d" d="M48.49,41.891l-.021-.027Z"/>
    <path class="d" d="M46.378,40.322l-.03-.011Z"/>
    <path class="d" d="M42.119,39.434l-.036,0Z"/>
    <path class="d" d="M53.468,53.094l-.008-.05v.009Z"/>
    <path class="d" d="M52.886,55.731c-.014-.032-.021-.062-.034-.094-.009-.014-.019-.025-.027-.04C52.845,55.643,52.866,55.688,52.886,55.731Z"/>
    <path class="d" d="M50.065,44.347l.025.05.029.051C50.1,44.414,50.085,44.381,50.065,44.347Z"/>
    <path class="d" d="M43.1,38.671h0Z"/>
    <path class="d" d="M53.157,51.4l0-.01c-.007-.037-.012-.074-.019-.112Z"/>
    <path class="d" d="M57.074,56.017a.993.993,0,0,0-.1-.071l-.053.023C56.972,55.983,57.026,56,57.074,56.017Z"/>
    <path class="d" d="M53.46,53.044q0-.031-.012-.063l0,.024Z"/>
    <path class="d" d="M41.243,38.583c-.181.022-.746.735.111.857.208-.281.417-.572.628-.868C41.768,38.565,41.527,38.566,41.243,38.583Z"/>
    <path class="d" d="M56.622,58.824l.062-.011c-.021.006-.026,0-.128.027.015-.005.032-.009.049-.013-15.292-1.048,9.008,9.81,7.987-2.536C62.538,57.168,61.012,56.629,56.622,58.824ZM52.18,60.115v0Zm.568-.874h0Zm1.752.333.072,0C54.548,59.577,54.524,59.577,54.5,59.574Z"/>
    <path class="d" d="M55.369,61.9l.064.019Z"/>
    <path class="d" d="M55.369,61.9l-.153-.048C55.281,61.874,55.245,61.861,55.369,61.9Z"/>
    <path class="d" d="M58.47,57.778l.041-.022Z"/>
    <path class="d" d="M92.375,85.607l.038-.041-.1-.06Z"/>
    <path class="d" d="M86.774,80.873a13.62,13.62,0,0,1-.8-1.157c-.035.229-.07.456-.106.679Q86.336,80.634,86.774,80.873Z"/>
    <path class="d" d="M85.454,82.723a13.408,13.408,0,0,0,5.3,4.537q.828-.808,1.619-1.653l-.063-.1a19.178,19.178,0,0,1-5.538-4.633q-.438-.24-.909-.478Q85.667,81.627,85.454,82.723Zm3.871,1.421c-.023-.022-.046-.044-.07-.065C89.279,84.1,89.3,84.122,89.325,84.144Z"/>
    <path class="d" d="M84.533,79.936a1.974,1.974,0,0,1,.166-.108c.407.188.792.377,1.166.567.036-.223.071-.45.106-.679a12.681,12.681,0,0,1-1.178-2.377A7.405,7.405,0,0,0,84.533,79.936Z"/>
    <path class="d" d="M84.7,79.828a1.974,1.974,0,0,0-.166.108,6.5,6.5,0,0,0,.921,2.787q.213-1.1.411-2.328C85.491,80.205,85.106,80.016,84.7,79.828Z"/>
    <path class="e" d="M47.813,14.653l0-.006,0-.018Z"/>
    <path class="e" d="M49.651,12.612l.024-.007.025-.016Z"/>
    <path class="e" d="M51.338,12.258h0c.053,0,.092,0,.149,0Z"/>
    <path class="e" d="M30.922,67.524l-.008.011v0Z"/>
    <path class="e" d="M41.136,18.347l-.051.082Z"/>
    <path class="e" d="M44.745,15.439l-.139-.042Z"/>
    <path class="e" d="M34.4,90.559l-.013-.068C34.4,90.513,34.4,90.536,34.4,90.559Z"/>
    <path class="e" d="M41.058,18.472l-.013.007c-.008.02-.017.037-.024.057C41.032,18.515,41.045,18.493,41.058,18.472Z"/>
    <path class="e" d="M29.956,36.821l.008.032Z"/>
    <path class="e" d="M35.762,93.831c-.37-3.166,2.931-12.345-1.642-17.946.041.081.081.155.115.23-4.862-4.785,2.607-13.983-2.517-20.03-4.771-6.128-3.267-9.264.249-14.975-.21-5.528-1.468-9.429,1.071-15.193l-.032.014c3.9-2.105.235-3.617,8.039-7.452,1.263-3.327,5.739,1.28,6.771-3.832l0,.006.007-.024,0,.018c.356-.606.134-1.048,1.859-2.042l-.024.007.049-.023-.025.016a2.633,2.633,0,0,1,1.663-.347h.149c-.057,0-.1,0-.149,0,2.932,1.294,3.1-1.538-1.374-1.137-1.188-.81-2.778,3.415-5.219,4.318l.064.019c-1.528-.279-3.992-.46-5.882,3.365-12.267,2-8.291,21.349-12.691,32.689,3.638,6.936,7.079,8.285,4.678,16.023l.008-.011-.008.013v0c-3.605,4.174,1.734,8.326,3.7,12.943C35.877,84.23,30.58,89.78,35.762,93.831ZM34.33,90.437a.9.9,0,0,1,.044.088A.9.9,0,0,0,34.33,90.437Zm.061.054.013.068C34.4,90.536,34.4,90.513,34.391,90.491Zm1.251-4.161-.06.2C35.6,86.467,35.622,86.4,35.642,86.33ZM32.889,64.492l0,.053A.348.348,0,0,1,32.889,64.492Zm-.054-5.338c-.012-.024-.025-.048-.038-.072C32.81,59.106,32.823,59.13,32.835,59.154ZM43.348,16.777a1.543,1.543,0,0,1-.175.043ZM35.8,21.242c-.013.024-.027.048-.042.071Zm-2.659,2.6-.1.049Zm-.105.05c-.034.02-.069.039-.1.058C32.964,23.927,32.929,23.948,33.034,23.89ZM31.127,38.973c0,.023,0,.046,0,.068C31.123,39.019,31.123,39.041,31.127,38.973Zm-.019-.234c-.007-.028,0,0-.019-.083C31.1,38.683,31.1,38.711,31.108,38.739Zm-.387-9.1h0Zm0,0-.01.031Zm-.077,2.386-.028.043Zm-.081.243a.642.642,0,0,1-.015-.069Q30.553,32.241,30.562,32.276Zm-.413,8.565-.039-.071Zm-.183-3.978,0-.008Zm0-.01-.008-.032-.008-.033.008.033Zm-.016-.065c-.007-.027,0,0-.019-.08C29.934,36.735,29.93,36.708,29.948,36.788ZM28.532,48.147l.075-.064C28.583,48.105,28.558,48.127,28.532,48.147ZM31.189,74a.989.989,0,0,1,.069.075A.989.989,0,0,0,31.189,74Zm.27-7.789-.038-.045Zm-.025.361.05-.158C31.47,66.464,31.453,66.517,31.434,66.569Zm.636-4.783c.012-.036.023-.071.032-.106C32.07,61.786,32.081,61.752,32.07,61.786ZM32.1,61.5a.3.3,0,0,1,.033.067Zm.048.2v-.039A.2.2,0,0,1,32.145,61.7Z"/>
    <path class="e" d="M31.685,35.767c.019.087.013.058.019.087C31.7,35.825,31.692,35.8,31.685,35.767Z"/>
    <path class="e" d="M36.421,80.293l.013.064C36.421,80.293,36.427,80.315,36.421,80.293Z"/>
    <path class="e" d="M32.1,61.68c-.009.035-.02.07-.032.106C32.081,61.752,32.07,61.786,32.1,61.68Z"/>
    <path class="e" d="M35.582,86.533l.06-.2C35.622,86.4,35.6,86.467,35.582,86.533Z"/>
    <path class="e" d="M39.166,79.728l.049.031-.022-.013c1.5,2.485-1.414,11.863.523,14.088.694-15.516.5-31.21-8.093-43.5C37.383,59.254,33.838,70.15,39.166,79.728Zm-1.8-15.191c-.005-.022,0,0-.013-.066Zm-.041-.143-.034-.06Zm-.435,1.544c-.005-.023,0,0-.011-.068C36.885,65.893,36.889,65.916,36.892,65.938Zm0,.022q-.02-.046-.042-.09Q36.87,65.914,36.889,65.96Zm-.049,4.706L36.8,70.62Zm-.232,1.01c0-.009,0-.006,0-.009S36.6,71.667,36.608,71.676Zm-.019.095-.006,0Zm-.009.039-.017.074C36.567,71.861,36.563,71.884,36.58,71.81Zm-.626-13-.026-.048Zm-1.066-2.64c.009.016.017.033.024.049C34.905,56.206,34.9,56.189,34.888,56.173Z"/>
    <path class="e" d="M39.963,91.448l0,.041Z"/>
    <path class="e" d="M40.194,87.569c-.039.118-.027.079-.039.118C40.17,87.647,40.182,87.608,40.194,87.569Z"/>
    <path class="e" d="M31.623,50.333a19.052,19.052,0,0,0-1.183-1.64C30.86,49.229,31.238,49.782,31.623,50.333Z"/>
    <path class="e" d="M39.086,89.122a.9.9,0,0,0-.041-.082Z"/>
    <path class="e" d="M39.506,81.4c-.043.135-.029.088-.043.135C39.478,81.486,39.492,81.441,39.506,81.4Z"/>
    <path class="e" d="M39.079,79.671a.693.693,0,0,0,.089.06l0,0C39.1,79.685,39.108,79.688,39.079,79.671Z"/>
    <path class="e" d="M38.5,55.528c2.747,5.976,1.2,18.97,6.351,26.086.018.02.026.03.063.069l-.029-.03c-.469,1.5-1.7,3.593-1.6,7.6.014-.008.029-.027.043-.031-.015.021-.031.041-.044.058,0-.01,0-.017,0-.027-.645.39-1.6,5.125-.056,2.647,4.374-10.43-.519-21.765-3.5-35.08C39.56,56.6,39.787,55.584,38.5,55.528Zm5.53,31.979.017.064C44.042,87.551,44.048,87.571,44.031,87.507Zm.018.068Zm.651-1.826c.013.025.025.049.039.074C44.725,85.8,44.713,85.774,44.7,85.749ZM39.712,58.823a.71.71,0,0,1,.017.092C39.722,58.883,39.729,58.915,39.712,58.823Zm2.341,15.35c0-.032,0,0,.006-.1C42.058,74.109,42.057,74.141,42.053,74.173ZM44.421,79.3,44.4,79.26ZM42.1,69.322c-.01-.022-.021-.044-.033-.067C42.08,69.278,42.091,69.3,42.1,69.322Zm-.041,4.695a.354.354,0,0,1-.014.041Zm-.017-4.829c-.01-.031,0,0-.024-.1Q42.03,69.139,42.043,69.188Zm-.014,4.734-.037-.074Zm-.436-1.866-.031.045Zm-.044.065q-.024.045-.051.09C41.514,72.181,41.5,72.211,41.549,72.121Zm-.6-4.659-.015.047Zm-.2-4.453c0,.03,0,.06,0,.089C40.754,63.068,40.754,63.1,40.755,63.009Zm-1.022-3.943c0-.023,0,0,0-.067C39.735,59.021,39.735,59.044,39.733,59.066Z"/>
    <path class="e" d="M43.328,89.222c-.014,0-.029.023-.043.031s0,.017,0,.027C43.3,89.263,43.313,89.243,43.328,89.222Z"/>
    <path class="e" d="M39.706,56.712c.008.036.017.072.025.108.015.019.027.042.049.048C39.76,56.82,39.733,56.766,39.706,56.712Z"/>
    <path class="e" d="M44.766,81.52c.029.034.059.067.09.1l0-.007C44.806,81.564,44.788,81.543,44.766,81.52Z"/>
    <path class="e" d="M44.886,81.653l-.03-.032Z"/>
    <path class="e" d="M43.23,91.9v0l-.006.017Z"/>
    <path class="e" d="M42.452,91.5c-.017.054-.012.035-.017.054Z"/>
    <path class="e" d="M45.09,81.859a.063.063,0,0,0-.013-.028Z"/>
    <path class="e" d="M50.165,80.948l-.044.143A1.429,1.429,0,0,0,50.165,80.948Z"/>
    <path class="e" d="M49.368,86.631l-.011.041Z"/>
    <path class="e" d="M49.249,79.774l.012-.035Z"/>
    <path class="e" d="M50.067,84.636c-.005.024-.012.047-.018.071Z"/>
    <path class="e" d="M49.35,83.046l.041-.068v0Z"/>
    <path class="e" d="M49.411,82.945c.009-.013.017-.027.027-.041C49.43,82.918,49.424,82.926,49.411,82.945Z"/>
    <path class="e" d="M49.631,82.439l0-.076C49.634,82.388,49.633,82.414,49.631,82.439Z"/>
    <path class="e" d="M45.663,65.023c.006-.034.006-.088.009-.131l-.009-.017Z"/>
    <path class="e" d="M45.663,65.023v-.148l.009.017a4.735,4.735,0,0,0-1.524-3.576c.322,1.992.261,7.048,2.963,11.657a4.465,4.465,0,1,1-.156.494l.012-.034c-.825,2.047,2.35,2.773,2.294,6.306l.008-.021c-.023.069,0,.011-.048.155.009-.034.018-.066.028-.1-.377.309.323,1.051.143,3.2l.019-.029c.013-.019.019-.027.027-.041-.01.014-.018.028-.027.041l-.02.033c1.076,13.812,1.2-9.479-3.719-18.086C45.669,64.935,45.669,64.989,45.663,65.023Zm-1.069-1.2c.022.014.042.029.061.043C44.636,63.855,44.616,63.84,44.594,63.826Zm.085.058.03.017Zm.023-.071.01.047C44.708,63.845,44.712,63.86,44.7,63.813Zm.021.126c0-.011,0-.006,0-.011S44.724,63.928,44.723,63.939Zm0-.023a.25.25,0,0,1,0-.049A.4.4,0,0,1,44.725,63.916Zm.14-1.429c0,.019.01.038.014.058Zm4.769,19.876,0,.076C49.633,82.414,49.634,82.388,49.634,82.363Zm-.041.239c0,.006,0,0-.006.018C49.593,82.6,49.593,82.608,49.593,82.6Zm-1.208-6.383c0-.018,0,0-.009-.053Zm.01.08-.026-.018Zm-.06-1.466c-.016-.021-.033-.042-.051-.062C48.3,74.791,48.319,74.812,48.335,74.833Zm-.812-3.173c-.009-.021-.019-.041-.028-.061C47.5,71.619,47.514,71.639,47.523,71.66Zm-1.578-3.714c0-.032,0,0,0-.095C45.947,67.884,45.947,67.915,45.945,67.946Z"/>
    <path class="e" d="M50,85.1l-.014-.071Z"/>
    <path class="e" d="M52.52,75.354l0-.016a.346.346,0,0,0-.009-.035l.006.035a.033.033,0,0,1,0,.014Z"/>
    <path class="e" d="M52.527,75.4c0,.015.006.03.008.045A.233.233,0,0,1,52.527,75.4Z"/>
    <path class="e" d="M54.412,81.9c0,.019,0,.026,0,.042,0-.015,0-.028,0-.042V81.86c-.065-4.18-1.9-10.279-4.107-15.866a.973.973,0,0,1-.071.155l.061-.183.01.028c.181-.483.323-1.63-.8-1.415-2.189,2.759,2.535,6.731,3.013,10.759a.334.334,0,0,0,.025.059l-.022-.043c0,.015.006.03.007.045a.233.233,0,0,0,.008.045c0-.015-.006-.03-.008-.045l-.006-.018a7.635,7.635,0,0,0,.775,3.963l.01.007-.01-.007c.031.059.051.114.085.173-.005-.033-.013-.069-.02-.1a2.645,2.645,0,0,1,.049.679c0-.018,0-.036,0-.055,0,.028-.005.026-.006.155v-.068c-.972,3.935,3.55,10.835,1.006,1.749ZM50.377,69.579l.008.046C50.379,69.606,50.385,69.625,50.377,69.579Zm.009.055c0,.014,0,0,.007.035Zm.01.045c.005.02.011.041.015.062Zm1.618,2.4a.387.387,0,0,1,.032.037A.387.387,0,0,0,52.014,72.082Zm.109.108a.432.432,0,0,1,.053.034A.432.432,0,0,0,52.123,72.19Zm.424,3.115.035.011Zm.81,4.08,0-.017Zm0,0h0Zm0,.008c0,.006,0,0,0,.016C53.358,79.393,53.362,79.4,53.358,79.393Zm.2-2.242v0Zm.043.878.038.038Zm.338,5.574a.626.626,0,0,1,.074.08A.626.626,0,0,0,53.942,83.6Zm.193.351.01.035C54.141,83.978,54.145,83.989,54.135,83.954Zm.974,1.733-.013-.025Zm-.018-.033c-.011-.028-.009-.02-.012-.028C55.082,85.634,55.08,85.626,55.091,85.654Z"/>
    <path class="e" d="M53.562,77.117v0Z"/>
    <path class="e" d="M52.582,75.316l-.035-.011Z"/>
    <path class="e" d="M52.516,75.345l0-.007-.019-.032a.3.3,0,0,1,.026.075.283.283,0,0,0,0-.029Z"/>
    <path class="e" d="M54.416,81.783c0,.044,0,.058,0,.077v.013C54.415,81.844,54.416,81.815,54.416,81.783Z"/>
    <polygon class="e" points="54.414 81.874 54.414 81.873 54.414 81.874 54.414 81.874"/>
    <path class="e" d="M53.408,80.125l0-.032Z"/>
    <path class="e" d="M54.412,81.9c0,.014,0,.027,0,.042C54.409,81.923,54.411,81.916,54.412,81.9Z"/>
    <path class="e" d="M50.235,66.149a.973.973,0,0,0,.071-.155l-.01-.028Z"/>
    <path class="e" d="M56.441,85.661c.009-.036.012-.045.018-.064v0Z"/>
    <path class="e" d="M56.168,82.7a.683.683,0,0,1,.051.058.683.683,0,0,0-.051-.058,21.253,21.253,0,0,1,.3,2.856c.006-.021.012-.041.02-.062-.006.022-.014.044-.029.1.654,2.558,2.124-1.92-.115-4.254a.3.3,0,0,1-.005.042c0-.019,0-.03.006-.1a35.67,35.67,0,0,0-2.137-12.5C53.27,72.521,55.36,77.809,56.168,82.7ZM56.59,85v0Zm.013-.217c-.009-.035,0,0-.024-.1Zm-.347-1.98c-.01-.023-.021-.046-.032-.07C56.235,82.755,56.246,82.778,56.256,82.8Zm-1.444-8.057-.042-.05Z"/>
    <path class="e" d="M56.344,81.343l0-.041,0,.021Z"/>
    <path class="e" d="M55.615,79.958c-.006.093-.006.061-.006.093Z"/>
    <path class="e" d="M56.346,81.263v0Z"/>
    <path class="e" d="M48.957,17.57l.026,0h0Z"/>
    <path class="e" d="M54.2,16.03c-.054-.021-.108-.034-.163-.054l.028.011Z"/>
    <path class="e" d="M49.047,17.484l-.037.032Z"/>
    <path class="e" d="M33.56,40.84l-.033.018Z"/>
    <path class="e" d="M36.01,26.5c0,.062,0,.041,0,.062C36.007,26.536,36.009,26.516,36.01,26.5Z"/>
    <path class="e" d="M34.008,40.533l-.045.039Z"/>
    <path class="e" d="M48.9,17.6c-.106.056-.072.037-.106.056A.71.71,0,0,0,48.9,17.6Z"/>
    <path class="e" d="M40,23.387a1.279,1.279,0,0,0-.138-.022l-.022.012C39.892,23.382,39.946,23.383,40,23.387Z"/>
    <path class="e" d="M35.367,29.614c0,.029,0,.058,0,.086C35.366,29.672,35.364,29.7,35.367,29.614Z"/>
    <path class="e" d="M35.343,29.678l-.01-.037Z"/>
    <path class="e" d="M48.984,17.565l.1-.02a.757.757,0,0,1-.1.02c-2.509,1.519-5.245,3.831-9.122,5.8a1.279,1.279,0,0,1,.138.022c-.053,0-.107,0-.16-.01l.022-.012c-.38-.04-.859.117-2.369,1.351h0c-2.778,2.346-3.821,7.984-3.622,14.762-.02-.034-.034-.068-.054-.1a1.853,1.853,0,0,1,.217,1.049c.007-.019.019-.036.025-.056-.007.024-.016.047-.025.07a.066.066,0,0,1,0-.014.523.523,0,0,1-.048.108c.021-.033.048-.067.068-.094-1.4,4.276,2.2-4.606,1.229-8.4,0,.016,0,.031,0,.046,0-.065,0-.032.007-.156,0,.038,0,.075,0,.11,1.266-8.683,9.061-6.546,15.392-14.557.53,1.389,7.015-1.469,2.2-1.485A10.509,10.509,0,0,0,48.984,17.565ZM34.021,36.346l.008.04C34.026,36.373,34.029,36.386,34.021,36.346Zm.244-2.422.021-.037Zm.085,4.563c0-.016,0,0,0-.051C34.353,38.452,34.351,38.47,34.35,38.487Zm.01.093Zm.053-5.482c.006.028.012.055.016.082Zm.911-1.414,0-.007Zm.009-2.043.01.037Zm.031.059c0-.028,0-.057,0-.086C35.364,29.7,35.366,29.672,35.364,29.7Zm.016.031.014-.042Zm.481-2.789.047-.027Zm.128-.085.041-.037C36.017,26.833,36,26.845,35.989,26.857Zm.245,1.47h0Zm1.082-2c.009-.016,0,0,.028-.046Zm.947-2.11.036-.058Zm1.758-.827h0Zm1.73.323.037-.065A.631.631,0,0,1,41.751,23.712Zm.314-1.445.081,0A.475.475,0,0,1,42.065,22.267Zm1.752.7c.021-.006,0,0,.064-.015Zm.311-.109c.018-.01,0,0,.054-.026ZM46.462,21.1a.665.665,0,0,1,.1-.026h0C46.531,21.079,46.5,21.087,46.462,21.1Zm2.5-1.988a.506.506,0,0,1,.054-.049ZM50.7,17.362s0,0,0,0S50.708,17.361,50.7,17.362Zm.006,0c.015-.011,0,0,.049-.012Zm.061-.146.022-.035Zm1.2-.72c.028-.015,0,0,.082-.039Zm1.523.651a.629.629,0,0,1-.07,0C53.452,17.143,53.428,17.143,53.5,17.146Zm-.073,0,0,0h0Z"/>
    <path class="e" d="M34.06,40.369c-.006.02-.018.037-.025.056a.066.066,0,0,0,0,.014C34.044,40.416,34.053,40.393,34.06,40.369Z"/>
    <path class="e" d="M36.931,38.108c-.019.078-.014.049-.019.078C36.918,38.16,36.925,38.134,36.931,38.108Z"/>
    <path class="e" d="M52,20.752c-4.186,2.4-15.384,7.108-14.883,15.986v-.115c.859,4.32-2.2-4.286,12.1-12.819C50.582,24.719,59.582,19.706,52,20.752ZM38.073,32.2l.023-.04C38.089,32.172,38.081,32.185,38.073,32.2Zm6.456-5.325h0Zm4.77-3.121c.024-.007,0,0,.074-.017Zm.02-.054.075-.071Zm.819-1.722.092,0A.612.612,0,0,1,50.138,21.976Zm.206-.043c.03-.014.061-.028.092-.045Zm1.629,1.114.154-.144C52.077,22.953,52.026,23,51.973,23.047Zm1.074-.8c.035-.01,0,0,.1-.024Z"/>
    <path class="e" d="M50.436,21.888c-.031.017-.062.031-.092.045Z"/>
    <path class="e" d="M54.48,24.719C51.014,26.689,41.3,30.2,39.6,37.133v-.108c-1.405,2.621,2.366-3.061,8.738-7.422C49.1,29.834,57.521,26.644,54.48,24.719Zm-14.908,12.6.018-.047Zm1.067-2.449-.041.02Zm-.087.051-.035.03Zm-.028.064c.009-.016,0,0,.03-.046Zm.06-.078h0Zm.012,0a.372.372,0,0,1,.046-.009l.024-.005-.024.005Zm.777-1.1a.968.968,0,0,1,.118.007A.968.968,0,0,0,41.373,33.805Zm.337-.089.052-.046Zm2.25-.853a.425.425,0,0,0,.027-.046Zm.887-.83c.042-.023,0,0,.129-.063C44.932,31.993,44.888,32.014,44.847,32.033ZM48.3,29.6,48.3,29.6h0Zm.021-.022h0Zm.027-.026h0Zm0,.027v0l.043,0Zm.028-.033a.3.3,0,0,1,.056-.014Zm.041-.045.049-.023Zm.7-1.8.094-.049A.935.935,0,0,1,49.116,27.7Zm2.584.141c.017-.017,0,0,.052-.048Zm.239-.146.052-.01Z"/>
    <path class="e" d="M43.987,32.817a.425.425,0,0,1-.027.046Z"/>
    <path class="e" d="M40.642,34.892l.024-.005Z"/>
    <path class="e" d="M57.722,27.481c-.265.927-10.4,4.189-6.022,4.5-.112.038.96-.378,2.3-.97A7.56,7.56,0,0,1,56.523,29.8C58.446,28.771,59.772,27.722,57.722,27.481Zm-.148,1.555-.055.048Zm-5.4,2.112.028-.01Zm1.006-.631.049-.039Zm2.167-.783c-.036,0-.072,0-.109,0A.745.745,0,0,1,55.348,29.734Z"/>
    <path class="e" d="M54,31.008c.812-.36,1.719-.783,2.525-1.212A7.56,7.56,0,0,0,54,31.008Z"/>
    <path class="e" d="M78.4,28.789c-.016-.031-.033-.062-.051-.094Z"/>
    <path class="e" d="M81.035,34.085c.017-.016.026-.034.041-.05,0-.041,0-.078.007-.119C81.069,33.977,81.049,34.031,81.035,34.085Z"/>
    <path class="e" d="M78.449,20.37l0-.066C78.451,20.326,78.45,20.348,78.449,20.37Z"/>
    <path class="e" d="M73.816,15.372h0c6.982,8.092,3.572,21.162,9.646,29.7.775.2,2.059,3.025,2.258,1.186-2.575-3.352-5.073-6.475-4.644-12.221-.015.016-.024.034-.041.05.014-.054.034-.108.048-.169,0,.041,0,.078-.007.119,2.09-2.18-1.616-5.059-.84-8l-.053.176c-.676-5.66-5.589-16.741-13.612-18.016C50.341,12.71,64.054,6.093,73.816,15.372Zm8.8,27.832-.028-.032Zm-.038-.042c-.024-.027-.05-.053-.077-.079C82.53,43.109,82.556,43.135,82.58,43.162Zm-1.3-3.922-.038-.066Zm-.864-8.356c0,.027,0,.055,0,.082C80.413,30.939,80.413,30.966,80.415,30.884Zm-.021-.121a.614.614,0,0,0-.042-.047A.614.614,0,0,1,80.394,30.763ZM78.451,20.3l0,.066C78.45,20.348,78.451,20.326,78.451,20.3Zm-4.724-5.029-.059-.065Zm-4.811-4.723-.054-.032Z"/>
    <polygon class="e" points="73.815 15.371 73.816 15.372 73.817 15.372 73.815 15.371"/>
    <path class="e" d="M85.73,46.181c0,.03-.007.048-.01.075l.031.04C85.744,46.262,85.737,46.222,85.73,46.181Z"/>
    <path class="e" d="M78.346,28.7l-.044-.083C78.316,28.64,78.3,28.612,78.346,28.7Z"/>
    <path class="e" d="M83.505,45.133c-.015-.021-.028-.043-.043-.063a.332.332,0,0,0-.1-.019Z"/>
    <path class="e" d="M82.764,85.511l.011-.039Z"/>
    <path class="e" d="M83.14,77.645l.016-.026v0Z"/>
    <path class="e" d="M86.654,70.674c0-.022,0-.028-.026-.128C86.635,70.588,86.628,70.546,86.654,70.674Z"/>
    <path class="e" d="M82.265,82.079c0,.019,0,.047,0,.069s.012.026.02.04C82.279,82.154,82.272,82.12,82.265,82.079Z"/>
    <path class="e" d="M84.075,76.561l.037-.036Z"/>
    <path class="e" d="M80.655,44.988a.757.757,0,0,0-.061-.066l.042.046Z"/>
    <path class="e" d="M83.341,83.243v.011c.007.033.012.062.019.1C83.355,83.317,83.348,83.277,83.341,83.243Z"/>
    <path class="e" d="M82.935,49.579a.165.165,0,0,0,0,.08c.008.017.019.032.027.049C82.956,49.667,82.942,49.62,82.935,49.579Z"/>
    <path class="e" d="M82.651,79.678c0-.009,0-.02.006-.029,0-.034-.007-.066-.006-.1Z"/>
    <path class="e" d="M78.808,40.859c0-.006,0-.02,0-.032,0-.027,0-.049,0-.077Z"/>
    <path class="e" d="M79.586,43.585a.984.984,0,0,0-.036-.093c-.009-.017-.022-.032-.031-.049C79.539,43.49,79.566,43.538,79.586,43.585Z"/>
    <path class="e" d="M82.563,88.121V88.1a.19.19,0,0,1,0-.025V88.1a.2.2,0,0,1,0,.029,6.609,6.609,0,0,0,.9-2.966,14.575,14.575,0,0,0-.12-1.907A13.632,13.632,0,0,0,82.8,80.79l0,.011a5.6,5.6,0,0,1-.15-1.152c0,.009,0,.02-.006.029v-.129c0,.034.006.066.006.1a4.442,4.442,0,0,1,.5-2.028l.037-.061c-.012.021-.024.04-.036.059a4.876,4.876,0,0,1,.88-1.02A.5.5,0,0,0,84,76.64c10.7-5.947-.612-7.8-2.511-19.359-.849-3.325,6.138-8.076-.831-12.293l.021.025c-.024-.026-.017-.023-.109-.116l.027.025a7.53,7.53,0,0,1-1.044-1.43.984.984,0,0,1,.036.093c-.02-.047-.047-.095-.067-.142.009.017.022.032.031.049a5.236,5.236,0,0,1-.737-2.665c0,.012,0,.026,0,.032V40.75c0,.028,0,.05,0,.077.049-.292.942-2.235-.4-1.457-2.309,3.538,2.452,6.368,4.519,10.289a.165.165,0,0,1,0-.08c.007.041.021.088.027.129-.008-.017-.019-.032-.027-.049a1.378,1.378,0,0,1-.176,1.334l.017-.022c-.3.483-.577.979-.876,1.463l.007-.014c-1.391,1.864-2.084,4.2-.228,7.387,0-.016,0-.031,0-.046a1.446,1.446,0,0,0-.007.149c0-.03,0-.058,0-.084a11.867,11.867,0,0,1-.571,1.778l.021-.077c-1.72,4.3,3.68,4.808,5.5,9.031-.02-.088-.041-.169-.054-.25.017.08.035.159.053.238l-.006-.029c.023.107.009.046.054.251-.007-.031-.015-.062-.022-.094.919,4.143-7.714,5.282-4.388,11.474,0-.022,0-.05,0-.069.007.041.014.075.021.109-.008-.014-.013-.026-.02-.04a15.386,15.386,0,0,1,.509,3.324c.006-.017.012-.035.018-.051-.005.02-.008.019-.034.108l0-.018c-1.555,1.813-1.091,3.112-.414,2.931.076-.1.147-.208.213-.314ZM78.873,41.66l0,.023Zm2.987,5.865.081.085Zm.451.663.029.052Zm-.79,10.764.023.048Zm.115.24.008.042Zm-.054,1.123c0-.017,0,0,.015-.051Zm.927,2.89.027.135C82.526,63.294,82.536,63.34,82.509,63.205Zm.3.973.036.067Zm.812,1.022c.048.027.1.058.15.089C83.726,65.258,83.673,65.227,83.625,65.2ZM86.8,71.935c0,.021,0,.043,0,.064Zm-.434,1.051-.08.129C86.308,73.072,86.284,73.115,86.364,72.986Zm-.885.955-.048.041Zm-.059.051-.083.077C85.365,74.041,85.337,74.069,85.42,73.992Zm-1.308,2.533-.037.036Zm-1.265,1.691-.015.054Zm-.512,8.316c.014-.023,0,0,.045-.069Q82.359,86.5,82.335,86.532Z"/>
    <path class="e" d="M82.563,88.1v-.025A.19.19,0,0,0,82.563,88.1Z"/>
    <path class="e" d="M83.462,85.161a6.609,6.609,0,0,1-.9,2.966l0,.056,0,.029,0-.029v-.055c-.066.106-.137.21-.213.314C82.852,88.307,83.457,87.341,83.462,85.161Z"/>
    <path class="e" d="M82.562,88.183l0,.029Z"/>
    <path class="e" d="M79.506,79.435c0-.022,0-.044,0-.068v.068Z"/>
    <path class="e" d="M79.528,78.845v0Z"/>
    <path class="e" d="M80.139,66.914a.485.485,0,0,0-.043-.07l-.033-.02Z"/>
    <path class="e" d="M79.529,78.751l0,.037,0,0Z"/>
    <path class="e" d="M79.089,84.434c-.01.008-.017.021-.027.029-.011.044-.014.09-.027.133C79.055,84.542,79.069,84.488,79.089,84.434Z"/>
    <path class="e" d="M80.023,86.139l0,.008,0,.013Z"/>
    <path class="e" d="M79.989,86.245c-.006.021-.013.043-.02.063Z"/>
    <path class="e" d="M78.472,49.2l0-.027h0Z"/>
    <path class="e" d="M79.218,83.37v0Z"/>
    <path class="e" d="M79.123,65.255c-.007-.038-.008-.078-.014-.116l-.013-.033C79.1,65.153,79.116,65.207,79.123,65.255Z"/>
    <path class="e" d="M79.028,64.328c0,.128,0,.085,0,.128Z"/>
    <path class="e" d="M78.467,49.172l-.007-.039.007.039a4.546,4.546,0,0,1,.155,1.612v-.122c-1.536,6.094-2.234,14.371,3.039,20.1-1.847,3.646-5.128,6.926-2.442,12.572,0-.022,0-.044.005-.067,0,.029-.005.031-.006.163V83.37a6.036,6.036,0,0,1-.156,1.093c.01-.008.017-.021.027-.029-.02.054-.034.108-.054.162.013-.043.016-.089.027-.133-.776.691-.141,4.331.957,1.684.115-.389.182-.785.294-1.172-.02.054-.033.108-.054.163.645-1.431-.17-3.154-.753-5.7,0,.018,0,.036,0,.054,0-.029,0-.034.006-.17v.048c.01-.172.017-.346.02-.522q0,.039-.006.075c0-.024,0-.048,0-.132-1.293-3.7,8.2-7.672.569-11.944a.485.485,0,0,1,.043.07l-.076-.09.033.02a4.05,4.05,0,0,1-.987-1.7c.006.038.007.078.014.116-.007-.048-.02-.1-.027-.149l.013.033c-.926-5.937,2.567-13.755-1.9-19.389C76.549,46.76,77.966,47.418,78.467,49.172Zm.047,11.354.009.05Zm.218,25.158c.008-.027,0,0,.026-.08Zm1.1-9.32.022-.075C79.847,76.314,79.839,76.339,79.832,76.364Zm1.162-4.005c.032-.052,0,0,.1-.15Zm.591-1.1c.005-.021,0,0,.016-.062C81.6,71.214,81.591,71.234,81.585,71.255Zm-2.817-16.07c-.008.03-.017.059-.026.088Z"/>
    <path class="e" d="M75.868,73.918c-.053.088-.036.058-.053.088Z"/>
    <path class="e" d="M76.68,86.857V86.8C76.681,86.818,76.681,86.838,76.68,86.857Z"/>
    <path class="e" d="M76.688,86.427v.021c0,.035,0,.068,0,.107Z"/>
    <path class="e" d="M76.292,53.528c.114-.4.785-2.742-.781-1.665-1.948,3.443-1.794,7.145-.792,12.039l.011-.027-.011.03v0c-1.869,3.744,4.839,7.17.054,11.666.041-.061.075-.121.115-.176-2.311-.518.969,15.779,1.785,11.642,0-.059.006-.118.007-.177a.448.448,0,0,1-.006.063c.007-.155.013-.316.013-.472a8.638,8.638,0,0,0-.3-3.343l.041.162c-.087-.35-.077-.377-.554-1.955l.013.061c-.011-.045-.006-.036-.048-.2.007.022.013.045.018.067-.061-.286-.121-.571-.189-.857.008.041.017.086.024.127-.01-.048-.019-.1-.029-.149l.005.022a5.18,5.18,0,0,1,.963-4.818c-.034.06-.075.121-.108.182C80.6,69.944,73.034,61.525,76.292,53.528Zm-.6,1.968c-.008.036-.018.072-.029.108Zm-.446,2.591.006-.137C75.253,58,75.251,58.04,75.247,58.087Zm.3,26.547-.011-.041Zm-.142-5.9c0-.024,0,0,0-.074C75.406,78.686,75.405,78.711,75.4,78.734Zm.006-.153v0Z"/>
    <path class="e" d="M76.674,87.029v.005c0,.019,0,.037,0,.055A.588.588,0,0,0,76.674,87.029Z"/>
    <path class="e" d="M74.73,63.875l-.011.027v0Z"/>
    <path class="e" d="M75.877,81.312c0-.025-.011-.05-.017-.075l.013.059Z"/>
    <path class="e" d="M76.323,53.446c-.012.027-.02.055-.031.082s-.017.058-.017.06C76.289,53.541,76.309,53.493,76.323,53.446Z"/>
    <path class="e" d="M75.695,80.507c-.007-.041-.016-.086-.024-.127l-.005-.022C75.676,80.41,75.685,80.459,75.695,80.507Z"/>
    <path class="e" d="M71.708,63.23v0Z"/>
    <path class="e" d="M72.5,67.49l-.009.016c.009.031.022.06.03.092C72.514,67.564,72.507,67.523,72.5,67.49Z"/>
    <path class="e" d="M73.075,73.8c-.007.031-.014.055-.021.086.008.019.012.037.021.056Z"/>
    <path class="e" d="M71.993,64.682a.222.222,0,0,0-.011-.039l-.036-.063C71.959,64.614,71.979,64.648,71.993,64.682Z"/>
    <path class="e" d="M72.845,66.1c.021.034.034.061.055.094-.161-.306-.157-.267-.918-1.554a.222.222,0,0,1,.011.039c-.014-.034-.034-.068-.047-.1l.036.063a1.989,1.989,0,0,1-.274-1.388.355.355,0,0,1-.006.047c0-.018,0-.024.007-.108.049-.08.14-.516-.744-.88-.326,1.1-.059,2.59,1.19,4.326-.007-.014-.013-.029-.02-.044.02.034.034.061.054.095-.012-.017-.022-.034-.034-.051a4.565,4.565,0,0,1,.336.866l.009-.016c.007.033.014.074.021.108-.008-.032-.021-.061-.03-.092-.575.778-1.318,14.049.563,6.375C71.963,71.479,74.533,69.537,72.845,66.1Zm-.811.29.016.034Zm-.047,7.21c0-.022,0,0,.006-.065Zm.588-1.8h0Zm0-.009,0-.034Z"/>
    <path class="e" d="M72.135,66.6c.007.015.013.03.02.044s.022.034.034.051C72.169,66.657,72.155,66.63,72.135,66.6Z"/>
    <path class="e" d="M70.3,65.564l-.023-.047.018.037Z"/>
    <path class="e" d="M70.616,70.815l.035-.083.006-.025C70.643,70.74,70.63,70.781,70.616,70.815Z"/>
    <path class="e" d="M70.651,70.732l-.035.083c.014-.034.027-.075.041-.108l-.006.025a4.65,4.65,0,0,0-.353-5.168l.02.042c-.014-.027-.008-.023-.067-.129l.024.04c-.223-.2.307-1.8-1.059-1.109-.327.526-.231,1.787,1.1,3.065l-.088-.088c-.035.371-.105,1-.188,1.741a9.1,9.1,0,0,1,.459,2.353C70.545,71.243,70.6,71,70.651,70.732Zm.148-4.173-.018-.035ZM70.17,65.1l.006-.022Zm.34,3.035,0,.033Zm-.009-.275a.4.4,0,0,1-.016-.056Z"/>
    <path class="e" d="M69.973,73.823l-.006.063A.434.434,0,0,0,69.973,73.823Z"/>
    <path class="e" d="M70.5,71.479a9.1,9.1,0,0,0-.459-2.353C69.645,72.632,68.978,78.622,70.5,71.479Z"/>
    <path class="e" d="M67.931,17.022h0Z"/>
    <path class="e" d="M78.24,34.7h0c-.018-.072-.034-.137-.054-.222C78.206,34.551,78.22,34.626,78.24,34.7Z"/>
    <path class="e" d="M60.106,14.979c1.037-.283.608-.1,2.9-1.292-.034.02-.075.041-.115.061,2.516-.882.6,5.288,4.994,3.273l-.056-.005c.028,0,.03,0,.156.006h-.053c3.423,1.108,6.5,19.114,10.844,19A3.964,3.964,0,0,1,78.24,34.7h0c-.02-.074-.034-.149-.054-.223.02.085.036.15.054.222.174-.755-.3-2.537-1.82-4.829a.9.9,0,0,0,.017.346c-.011-.039,0,0-.028-.118v.021a.091.091,0,0,0,0,.028v-.028a.221.221,0,0,0-.007-.058c-1.665-7.367-5.959-12.408-13.322-17.477-.819.152-1.137.9-3.55,1.669l.025,0c-.024.006-.02,0-.108.027a.216.216,0,0,1,.041-.013C57.322,11.857,56.418,15.066,60.106,14.979ZM76.062,32.508l-.055-.033Zm-1.617-4.384c0-.02,0,0-.014-.062C74.436,28.082,74.441,28.1,74.445,28.124Zm-2.21-5.418,0,.08C72.233,22.76,72.233,22.786,72.235,22.706Zm-.384-1.433c-.015-.01-.029-.02-.045-.029C71.822,21.253,71.836,21.263,71.851,21.273Zm-1.22-1.379-.021-.112C70.619,19.821,70.625,19.857,70.631,19.894Zm-.279.191a.376.376,0,0,1-.054-.005Zm-1.937-2.98-.037-.025Zm-.037-.025-.015-.01Zm-4.223-2.906c-.011-.02-.023-.04-.035-.06C64.132,14.134,64.144,14.154,64.155,14.174Zm-.48-.561-.056-.017Zm-4.878.325-.032-.039Z"/>
    <path class="e" d="M60.136,14.979c-.011,0-.019,0-.03,0L60.028,15Z"/>
    <path class="e" d="M76.4,30.052v.009l.008.032Z"/>
    <path class="e" d="M76.408,30.119v.028A.091.091,0,0,1,76.408,30.119Z"/>
    <path class="e" d="M76.447,29.065c0-.03,0-.06,0-.089Z"/>
    <path class="e" d="M76.409,30.1a.007.007,0,0,0,0,0v0Z"/>
    <path class="e" d="M72.153,30.745l.015.066c-3.176-4.6-5.262-11.407-12.333-13.192-.861,1.306,3.59,3.088,6.247,5.018-.163.555,2.484,5.32,4.612,8.59a20.265,20.265,0,0,1,2.342,1.847C72.856,32.515,72.571,31.754,72.153,30.745ZM61.052,18.4c.025-.012.016-.006.026-.014C61.068,18.391,61.077,18.385,61.052,18.4Zm1.367.791.05.035Zm2.638,2.192.093.029Zm.171.028.026-.007Zm1,1.127a.338.338,0,0,1,.051-.011Zm2,3.764.006-.13A1.142,1.142,0,0,1,68.224,26.3Zm.026.174.035.035C68.273,26.5,68.282,26.511,68.25,26.473Z"/>
    <path class="e" d="M60.207,18.992c-.045.011-.027,0-.045.011Z"/>
    <path class="e" d="M73.036,33.074a20.265,20.265,0,0,0-2.342-1.847C72.445,33.917,73.842,35.589,73.036,33.074Z"/>
    <path class="e" d="M63.522,25.017l-.034-.076-.011,0C63.492,24.963,63.509,24.99,63.522,25.017Z"/>
    <path class="e" d="M63.488,24.941l.034.076c-.013-.027-.03-.054-.045-.081l.011,0c-.275-.609-1.207-2.706-2.654-1.346a4.912,4.912,0,0,1-.289-.892c.007.034.014.068.021.108-.16-.123.24-.585-.575-.953C57.6,24.453,71.221,28.391,63.488,24.941ZM64.888,26a.251.251,0,0,1,.048.032A.251.251,0,0,0,64.888,26Zm.008-.029c-.013,0,0,0-.038.009Zm-.046.011h0Zm-1.057-.613q-.034-.024-.069-.045Q63.759,25.345,63.793,25.369Zm-.137-.11,0,0Zm-1.568-.986-.057-.055Zm-.42-.229-.067.012Zm-.974-.352-.04.012A.414.414,0,0,1,60.694,23.692Z"/>
    <path class="e" d="M65.822,39.629h0v0l-.052.048C65.788,39.657,65.8,39.65,65.822,39.629Z"/>
    <path class="e" d="M65.312,39.993h0c.108-.084.15-.077.286-.177-.116.024-.214.03-.321.046C65.29,39.906,65.3,39.948,65.312,39.993Z"/>
    <path class="e" d="M61.673,26.064a1.034,1.034,0,0,1,.02.11c-.136-.14.208-.512-.553-.832-.327.384-.522.856,1.262,2.411a4.711,4.711,0,0,1,.347-.616C62.412,26.792,62.057,26.438,61.673,26.064Zm.145.449a.2.2,0,0,1,.025.045A.2.2,0,0,0,61.818,26.513Z"/>
    <path class="e" d="M62.957,27.35c-.12.194-.24.386-.363.568.085.072.168.142.261.219a.022.022,0,0,1,.01.006h0c.079.124.144.245.215.367a7.128,7.128,0,0,0,.714-.219C63.554,27.992,63.271,27.677,62.957,27.35Z"/>
    <path class="e" d="M64.53,30.915a.307.307,0,0,0,0,.07c0-.029.006-.026,0-.15v.08c.5-.718.112-1.593-.731-2.624a7.128,7.128,0,0,1-.714.219c2.038,3.5.752,6.368,2.192,11.352.107-.016.2-.022.321-.046.043-.031.1-.081.17-.141l.052-.048C64.557,36.8,67.411,35.353,64.53,30.915Zm-.917-1.7c0-.03,0,0,0-.085A.57.57,0,0,0,63.613,29.215ZM64.9,34.873a.429.429,0,0,1,.04-.034A.241.241,0,0,0,64.9,34.873Zm.154-2.522c.01.005.02.015.035.025C65.078,32.366,65.068,32.356,65.058,32.351Zm.21,5.728c.024.04.044.085.064.125C65.312,38.164,65.292,38.119,65.268,38.079Z"/>
    <path class="e" d="M62.957,27.35c-.067-.07-.138-.142-.208-.213a4.711,4.711,0,0,0-.347.616l.192.165C62.717,27.736,62.837,27.544,62.957,27.35Z"/>
    <path class="d" d="M72.484,37.219c-.8.014-2.217-2.452-3.653-.731C68.333,36.631,73.475,39.215,72.484,37.219Zm-2.26.026-.093-.017Z"/>
    <path class="d" d="M63.974,41.221h0Z"/>
    <path class="d" d="M63.66,41.234c.029,0,.059,0,.087,0C63.729,41.223,63.73,41.23,63.66,41.234Z"/>
    <path class="d" d="M63.946,41.221a.035.035,0,0,1-.018,0h0l.017,0Z"/>
    <path class="d" d="M62.243,42.333l.026,0c.038-.01.07-.022.108-.031A1.007,1.007,0,0,1,62.243,42.333Z"/>
    <path class="d" d="M59.77,43.584a.656.656,0,0,0,.06-.055A.314.314,0,0,1,59.77,43.584Z"/>
    <path class="d" d="M59.76,43.6a.109.109,0,0,0-.025.02,6.4,6.4,0,0,1,2.534-1.29l-.026,0a1.007,1.007,0,0,0,.134-.035c-.038.009-.07.021-.108.031A12.49,12.49,0,0,0,63.838,42l-.03.015c.035-.01.065-.025.1-.035-.01,0-.015,0-.025,0,.056-.1.069-.012.1-.514-.087-.069-.19-.148-.329-.24h-.007l0,0a.258.258,0,0,1-.053,0h.01a3.1,3.1,0,0,1-.867-.054l0,0c-.237.035-.167-.111-.658.05C61.118,40.44,55.965,46.213,59.76,43.6Zm.07-.07a.656.656,0,0,1-.06.055A.314.314,0,0,0,59.83,43.529Z"/>
    <path class="d" d="M63.993,41.221h-.015c-.015,0-.03.005-.05.005h0a.035.035,0,0,0,.018,0c-.064.005-.129.01-.2.01h0c-.028,0-.058,0-.087,0h-.009c.139.092.242.171.329.24C63.984,41.4,63.988,41.319,63.993,41.221Z"/>
    <path class="d" d="M63.974,41.221h0a.077.077,0,0,0,.018,0Z"/>
    <path class="d" d="M64,41.22h0Z"/>
    <path class="d" d="M64.016,41.218h0Z"/>
    <path class="d" d="M64.03,41.219h0Z"/>
    <path class="d" d="M64,41.22a.219.219,0,0,0,.034,0H64Z"/>
    <polygon class="d" points="63.996 41.221 63.997 41.22 63.997 41.22 63.996 41.221"/>
    <path class="d" d="M64.013,41.219h0l-.013,0Z"/>
    <path class="d" d="M66.614,41.812c.032,0,.063,0,.1,0h.005C66.681,41.809,66.647,41.811,66.614,41.812Z"/>
    <path class="d" d="M67.215,41.782c.085,0,.185,0,.324.007l-.016-.005a.243.243,0,0,0,.06.005c.02,0,.035,0,.055,0h-.03c1.729.846,3.18.346,2.507-.19-.9.335-2.077.419-.807-.353-.133-.037-.287-.072-.45-.1-1.025.773-1.241.414-.971-.151-.3-.034-.632-.063-1-.083.05-.042.021-.035-.051,0C67.914,40.984,67.641,41.539,67.215,41.782Z"/>
    <path class="d" d="M67.548,41.789a.243.243,0,0,0,.06,0c-.01,0-.015,0-.025,0Z"/>
    <path class="d" d="M66.561,41.814h-.015l.068,0c.033,0,.067,0,.1,0h0c-.03.005-.055.005-.085.01a4.471,4.471,0,0,1,.584-.037c.426-.243.7-.8-.381-.867C66.518,41.084,65.36,41.878,66.561,41.814Z"/>
    <polygon class="d" points="66.237 41.909 66.239 41.909 66.236 41.908 66.237 41.909"/>
    <path class="d" d="M69.8,40.32c.122.016-.027-.645-.535-.6A2.731,2.731,0,0,0,67.887,41c.376.041.691.094.971.151A10.337,10.337,0,0,0,69.8,40.32Zm-.776-.377c-.007.014,0,0-.02.031Zm-.217.227-.022.021Z"/>
    <path class="d" d="M68.858,41.146c-.28-.057-.595-.11-.971-.151C67.617,41.56,67.833,41.919,68.858,41.146Z"/>
    <path class="d" d="M70.166,40.592a1.346,1.346,0,0,1-.494.451L69.753,41l-.095.054.014-.009c-.139.075-.26.144-.364.208a2.335,2.335,0,0,1,.807.353C70.866,41.323,71.418,40.868,70.166,40.592Zm-.021.036a.566.566,0,0,1-.047.073C70.114,40.675,70.1,40.7,70.145,40.628Z"/>
    <path class="d" d="M69.753,41l-.081.045-.014.009Z"/>
    <path class="d" d="M70.115,41.6a2.335,2.335,0,0,0-.807-.353C68.038,42.023,69.217,41.939,70.115,41.6Z"/>
    <path class="d" d="M41.473,48.458c.01-.014.02-.03.03-.046l-.019.027Z"/>
    <path class="d" d="M45.3,45.18c-.393.068-.785.135-1.171.223l.084-.02c-.967-.489-2.353.927-3.229,2.225.307.113.29.344.331.385a2.466,2.466,0,0,1-.887.553,4.125,4.125,0,0,0-.192.438c.288.069.409.167.414.275a7.364,7.364,0,0,0,.814-.794.941.941,0,0,0,.054-.085l-.017.032c.767-.808.6-1.577,3-2.129h0c.028-.005.052-.012.078-.019l-.077.019C45.387,46.55,49.06,45.67,45.3,45.18Zm-2.037,1.489.049-.024C43.3,46.654,43.281,46.662,43.265,46.669Zm2.577-.495h0Z"/>
    <path class="d" d="M41.446,48.5c.009-.011.018-.024.027-.037l-.007.007C41.456,48.48,41.452,48.484,41.446,48.5Z"/>
    <path class="d" d="M44.5,46.283h0l.077-.019C44.555,46.271,44.531,46.278,44.5,46.283Z"/>
    <path class="d" d="M40.8,47.552c-2.073-.5-1.729,1.442-.372.994a8.777,8.777,0,0,1,.556-.938A.718.718,0,0,0,40.8,47.552Z"/>
    <path class="d" d="M40.986,47.608a8.777,8.777,0,0,0-.556.938,2.466,2.466,0,0,0,.887-.553C41.276,47.952,41.293,47.721,40.986,47.608Z"/>
    <path class="d" d="M40.238,48.984a4.018,4.018,0,0,0-.814-.091c-.341.034-.453-.475-1.036.315.052,1.175,2.287.53,2.264.051C40.159,49.651,40.069,49.455,40.238,48.984Z"/>
    <path class="d" d="M40.238,48.984c-.169.471-.079.667.414.275C40.647,49.151,40.526,49.053,40.238,48.984Z"/>
    <g>
      <path class="f" d="M2.211,119.512a.746.746,0,0,1,.483-.11.645.645,0,0,1,.568.285,4.142,4.142,0,0,1,.306,1.16q.153.9.33,1.763c.116.576.224,1.032.328,1.368s.174.5.219.5q.042,0,1.083-2.233t1.04-2.343c0-.058.074-.145.22-.263a.857.857,0,0,1,.547-.24.692.692,0,0,1,.678.482.924.924,0,0,1,.066.394q0,.087-.176,2.408-.195,2.494-.2,3.984,0,1.051.109,2.583.066.92.263,2.091a5.852,5.852,0,0,0,.328,1.39,1.084,1.084,0,0,1,0,.745.7.7,0,0,1-.657.35.714.714,0,0,1-.526-.2,3.811,3.811,0,0,1-.525-1.554,29.859,29.859,0,0,1-.481-5.868v-1.9a12.331,12.331,0,0,1-.986,1.992,1.013,1.013,0,0,1-.832.481.836.836,0,0,1-.766-.459,10.746,10.746,0,0,1-.832-1.948l-.066.262q-.042.285-.24,1.6-.941,6.218-1.117,6.633a.672.672,0,0,1-.656.416.687.687,0,0,1-.678-.437A.726.726,0,0,1,0,132.6q0-.306.351-2.408.612-3.765.657-4.028.546-3.786.569-3.874.261-2.014.317-2.3A.776.776,0,0,1,2.211,119.512Z"/>
      <path class="f" d="M13.727,124.678a1.939,1.939,0,0,1,.37-.044,2.284,2.284,0,0,1,1.687.591,2.009,2.009,0,0,1,.437.854A3.928,3.928,0,0,1,16.4,127.2a1.582,1.582,0,0,1-.11.613q-.174.394-.92.526-.261.043-1.27.339a11.589,11.589,0,0,1-1.2.317c-.1.015-.166.041-.187.077a1.049,1.049,0,0,0-.056.318v.109A4.445,4.445,0,0,0,12.9,131a1.69,1.69,0,0,0,1.268,1.03.4.4,0,0,1,.077.011.471.471,0,0,0,.076.01,1.087,1.087,0,0,0,.943-.393q.459-.636.809-.636a.741.741,0,0,1,.548.22.717.717,0,0,1,.218.525,1.268,1.268,0,0,1-.241.6,2.392,2.392,0,0,1-.481.581,2.95,2.95,0,0,1-1.817.526,3.01,3.01,0,0,1-1.007-.132,3.1,3.1,0,0,1-1.621-1.511,5.02,5.02,0,0,1-.481-2.188,1.241,1.241,0,0,0-.174-.723.653.653,0,0,1-.175-.4.81.81,0,0,1,.241-.481c.16-.16.24-.269.24-.328a1.743,1.743,0,0,1,.087-.5A2.978,2.978,0,0,1,13.727,124.678Zm1.006,1.62c-.044-.059-.19-.1-.438-.132h-.153a1.064,1.064,0,0,0-.92.526,1.767,1.767,0,0,0-.327.745l.021.065h.021a6.784,6.784,0,0,0,1-.263,6.452,6.452,0,0,0,.909-.307.742.742,0,0,0-.021-.284A1.547,1.547,0,0,0,14.733,126.3Z"/>
      <path class="f" d="M21.825,124.7a2,2,0,0,1,.767-.153,1.541,1.541,0,0,1,.7.153,1.2,1.2,0,0,0,.5.153,1.178,1.178,0,0,1,.394.109.657.657,0,0,1,.34.5q.053.351.053,2.058a41.3,41.3,0,0,1-.743,8.712,5.132,5.132,0,0,1-.8,1.949,1.845,1.845,0,0,1-1.323.722h-.132a1.363,1.363,0,0,1-.985-.437.779.779,0,0,1-.241-.57.723.723,0,0,1,.209-.536.665.665,0,0,1,.491-.208.891.891,0,0,1,.394.109l.285.154.175-.22a5.113,5.113,0,0,0,.646-1.981,21.7,21.7,0,0,0,.339-2.747l.045-.635-.286.242a2.385,2.385,0,0,1-1.576.612,1.324,1.324,0,0,1-.59-.109q-1.314-.57-1.315-2.78c0-.321.024-.693.066-1.117a5.13,5.13,0,0,1,1.139-2.955A4.335,4.335,0,0,1,21.825,124.7Zm1.073,1.489a2.9,2.9,0,0,0-.328-.154,1.342,1.342,0,0,0-.417.175,2.423,2.423,0,0,0-1.062,1.117,6.78,6.78,0,0,0-.425,2.145c0,.059,0,.132-.011.219a1.917,1.917,0,0,0-.011.2q0,1.291.524,1.292a.928.928,0,0,0,.592-.307,2.268,2.268,0,0,0,.646-.974,7.866,7.866,0,0,0,.273-1.762q.088-1.05.153-1.489Z"/>
      <path class="f" d="M29.905,124.175a2.374,2.374,0,0,1,.5-.089,1.494,1.494,0,0,1,.7.2q.4.219.46.175h.023a.172.172,0,0,1,.066-.022.634.634,0,0,1,.568.307.727.727,0,0,1,.132.481v.241a6.559,6.559,0,0,1-.132,1.182,11.534,11.534,0,0,0-.262,2.014,2.033,2.033,0,0,0,.154.832.279.279,0,0,0,.261.2,1.888,1.888,0,0,0,.5-.132,1.3,1.3,0,0,1,.438-.087.73.73,0,0,1,.524.241.679.679,0,0,1,.2.5.637.637,0,0,1-.2.5,1.8,1.8,0,0,1-.667.317,3.012,3.012,0,0,1-.865.143,1.574,1.574,0,0,1-1.16-.46l-.2-.219-.328.306a2.288,2.288,0,0,1-1.553.679,1.992,1.992,0,0,1-.811-.2,2.5,2.5,0,0,1-1.4-2.473,5.363,5.363,0,0,1,3.043-4.641Zm.809,1.356a.647.647,0,0,1-.109-.021.263.263,0,0,1-.111-.044h-.042a1.824,1.824,0,0,0-.811.394,2.992,2.992,0,0,0-.843,1.171,4.081,4.081,0,0,0-.449,1.631v.284a1.191,1.191,0,0,0,.111.548c.189.35.386.526.59.526a.733.733,0,0,0,.416-.186,1.643,1.643,0,0,0,.394-.428,8.489,8.489,0,0,0,.877-3,5.009,5.009,0,0,0,.087-.7A.172.172,0,0,0,30.714,125.531Z"/>
      <path class="f" d="M36.493,125.313a.7.7,0,0,1,.655-.416.6.6,0,0,1,.264.044c.276.116.46.474.547,1.072a3.489,3.489,0,0,0,.132.635c.028,0,.073-.058.13-.175a2.066,2.066,0,0,1,.417-.514,1.772,1.772,0,0,1,.525-.383,1.117,1.117,0,0,1,.46-.088q1.05,0,1.532,1.423.088.262.306,1.532a5.479,5.479,0,0,0,.745,2.364,1.046,1.046,0,0,1,.349.745.556.556,0,0,1-.2.437.749.749,0,0,1-.547.242.925.925,0,0,1-.657-.307,6.287,6.287,0,0,1-1.138-3.218q-.242-1.576-.394-1.577c-.118,0-.3.329-.547.986a12.317,12.317,0,0,0-.591,2.473,1.6,1.6,0,0,1-.46,1.139.707.707,0,0,1-.394.131.764.764,0,0,1-.459-.219,2.012,2.012,0,0,1-.33-1.4,25.319,25.319,0,0,0-.241-3.415c-.014-.058-.035-.182-.065-.372s-.052-.321-.066-.394a2.82,2.82,0,0,1-.064-.438A.6.6,0,0,1,36.493,125.313Z"/>
      <path class="f" d="M52.933,118.439a5.965,5.965,0,0,1,.613-.044,3.869,3.869,0,0,1,2.244.624,2.017,2.017,0,0,1,.907,1.762,3.585,3.585,0,0,1-.043.46,3.714,3.714,0,0,1-.787,1.752c-.219.262-.242.408-.066.437a1.037,1.037,0,0,1,.46.317,1.983,1.983,0,0,1,.393.581,3.812,3.812,0,0,1,.317,1.259q.054.667.077,3.25a32.222,32.222,0,0,0,.111,3.481.946.946,0,0,1,0,.569.7.7,0,0,1-.724.438.693.693,0,0,1-.351-.088c-.233-.116-.383-.459-.447-1.029s-.1-1.8-.1-3.7a19.767,19.767,0,0,0-.13-3.328.807.807,0,0,0-.176-.317.562.562,0,0,0-.349-.076,4.672,4.672,0,0,0-.483.021,5.263,5.263,0,0,0-1.883.548l-.59.284.043,3q.045,3,.11,3.394a.874.874,0,0,1-.044.634.678.678,0,0,1-.656.395.693.693,0,0,1-.319-.132.815.815,0,0,1-.272-.241,9.386,9.386,0,0,1-.132-1.335q-.045-1.248-.109-1.8-.066-.635-.066-2.933,0-.874.043-3.9,0-.395.011-.854c.007-.307.014-.544.023-.711s.011-.3.011-.406a1.293,1.293,0,0,0-.111-.635.608.608,0,0,1-.13-.372.731.731,0,0,1,.415-.656,9.906,9.906,0,0,1,2.19-.657Zm2.179,1.97a1.1,1.1,0,0,0-.362-.306,2.654,2.654,0,0,0-1.16-.2h-.417a2.45,2.45,0,0,0-.853.132l-.417.153.023,1.839.043,1.861c0,.015.025.011.077-.011s.124-.054.219-.1.194-.094.3-.153q2.628-1.424,2.628-2.758A1.014,1.014,0,0,0,55.112,120.409Z"/>
      <path class="f" d="M62.521,124.175a2.374,2.374,0,0,1,.5-.089,1.494,1.494,0,0,1,.7.2q.4.219.46.175h.023a.172.172,0,0,1,.066-.022.633.633,0,0,1,.568.307.727.727,0,0,1,.132.481v.241a6.559,6.559,0,0,1-.132,1.182,11.511,11.511,0,0,0-.261,2.014,2.033,2.033,0,0,0,.153.832.279.279,0,0,0,.262.2,1.893,1.893,0,0,0,.5-.132,1.3,1.3,0,0,1,.438-.087.728.728,0,0,1,.524.241.68.68,0,0,1,.2.5.637.637,0,0,1-.2.5,1.8,1.8,0,0,1-.666.317,3.024,3.024,0,0,1-.866.143,1.574,1.574,0,0,1-1.16-.46l-.2-.219-.328.306a2.288,2.288,0,0,1-1.553.679,2,2,0,0,1-.811-.2,2.5,2.5,0,0,1-1.4-2.473,5.371,5.371,0,0,1,3.043-4.641Zm.809,1.356a.647.647,0,0,1-.109-.021.251.251,0,0,1-.11-.044h-.043a1.824,1.824,0,0,0-.811.394,2.992,2.992,0,0,0-.842,1.171,4.064,4.064,0,0,0-.449,1.631v.284a1.192,1.192,0,0,0,.11.548c.189.35.387.526.59.526a.738.738,0,0,0,.417-.186,1.656,1.656,0,0,0,.393-.428,8.468,8.468,0,0,0,.877-3,5.009,5.009,0,0,0,.087-.7A.172.172,0,0,0,63.33,125.531Z"/>
      <path class="f" d="M71.911,124.678a1.948,1.948,0,0,1,.371-.044,2.285,2.285,0,0,1,1.687.591,2,2,0,0,1,.436.854,3.9,3.9,0,0,1,.177,1.116,1.582,1.582,0,0,1-.111.613q-.173.394-.919.526-.261.043-1.27.339a11.575,11.575,0,0,1-1.2.317c-.1.015-.165.041-.187.077a1.1,1.1,0,0,0-.055.318v.109a4.446,4.446,0,0,0,.242,1.51,1.694,1.694,0,0,0,1.269,1.03.383.383,0,0,1,.076.011.493.493,0,0,0,.077.01,1.085,1.085,0,0,0,.942-.393q.461-.636.809-.636a.743.743,0,0,1,.549.22.72.72,0,0,1,.217.525,1.264,1.264,0,0,1-.24.6,2.415,2.415,0,0,1-.481.581,2.952,2.952,0,0,1-1.817.526,3,3,0,0,1-1.007-.132,3.1,3.1,0,0,1-1.621-1.511,5.006,5.006,0,0,1-.481-2.188,1.233,1.233,0,0,0-.175-.723.656.656,0,0,1-.174-.4.813.813,0,0,1,.24-.481c.161-.16.241-.269.241-.328a1.709,1.709,0,0,1,.087-.5A2.978,2.978,0,0,1,71.911,124.678Zm1.007,1.62c-.045-.059-.191-.1-.438-.132h-.154a1.064,1.064,0,0,0-.919.526,1.773,1.773,0,0,0-.328.745l.022.065h.021a6.819,6.819,0,0,0,1-.263,6.512,6.512,0,0,0,.909-.307.732.732,0,0,0-.022-.284A1.562,1.562,0,0,0,72.918,126.3Z"/>
      <path class="f" d="M84.761,118.789a3.622,3.622,0,0,1,.656-.109,5.753,5.753,0,0,1,.745.109,2.887,2.887,0,0,1,.985.3,1.519,1.519,0,0,1,.526.58,1.933,1.933,0,0,1,.2.875,4.9,4.9,0,0,1-.789,2.518l-.24.372.591.044a2.305,2.305,0,0,1,2.058,1.258,3.367,3.367,0,0,1,.021,3.12,12.981,12.981,0,0,1-1.587,2.288,11.182,11.182,0,0,1-1.828,1.872q-.11.065-.47.339t-.471.361a2.981,2.981,0,0,1-1.379.722,1.034,1.034,0,0,1-.985-1.182v-.2q0-1.773.164-4.893t.185-4.761q.088-2.67.132-2.8a.557.557,0,0,1,.175-.284A3.162,3.162,0,0,1,84.761,118.789Zm3.131,6.3a1.136,1.136,0,0,0-.636-.153h-.109a4.721,4.721,0,0,0-2.255.678l-.46.263-.043.372c-.016.132-.037.686-.066,1.664q-.088,2.606-.2,3.371c-.028.176-.021.263.024.263a2.346,2.346,0,0,0,.666-.405,7.415,7.415,0,0,0,.866-.712,14.882,14.882,0,0,0,1.379-1.6,12.248,12.248,0,0,0,1.138-1.685,1.743,1.743,0,0,0,.2-.832A1.424,1.424,0,0,0,87.892,125.094Zm-1.862-4.86a3,3,0,0,0-.634-.066c-.5,0-.8.073-.9.219a14.558,14.558,0,0,0-.087,2.452,5.511,5.511,0,0,0,.044,1.139,5.087,5.087,0,0,0,.941-1.095,4.749,4.749,0,0,0,.787-1.445,3.717,3.717,0,0,0,.2-.832.426.426,0,0,0-.055-.273A.649.649,0,0,0,86.03,120.234Z"/>
      <path class="f" d="M97.435,124.678a.717.717,0,0,1,.526-.219.634.634,0,0,1,.634.438,1.18,1.18,0,0,1,.066.481,22.65,22.65,0,0,1-.634,4.138q-.659,3.065-.964,5.5a17.365,17.365,0,0,1-.568,3.174.7.7,0,0,1-.613.328.575.575,0,0,1-.177-.022.667.667,0,0,1-.525-.7,4.581,4.581,0,0,1,.132-.942q.066-.328.547-3.655l.089-.57-.309-.306a13.932,13.932,0,0,1-2.034-3.722q-.329-.744-.919-2.057a3.777,3.777,0,0,1-.417-1.2.579.579,0,0,1,.372-.5.836.836,0,0,1,.328-.109.851.851,0,0,1,.351.109,2.141,2.141,0,0,1,.591.854q.7,1.489.9,1.948a13.593,13.593,0,0,0,1.488,3q.021-.023.34-1.5t.426-2.112a9.72,9.72,0,0,0,.153-1.38A1.737,1.737,0,0,1,97.435,124.678Z"/>
      <path class="f" d="M103.872,124.678a1.939,1.939,0,0,1,.37-.044,2.288,2.288,0,0,1,1.688.591,2.02,2.02,0,0,1,.436.854,3.892,3.892,0,0,1,.176,1.116,1.582,1.582,0,0,1-.11.613q-.174.394-.919.526-.263.043-1.271.339a11.519,11.519,0,0,1-1.2.317c-.1.015-.166.041-.187.077a1.1,1.1,0,0,0-.055.318v.109a4.446,4.446,0,0,0,.242,1.51,1.69,1.69,0,0,0,1.268,1.03.39.39,0,0,1,.077.011.466.466,0,0,0,.077.01,1.086,1.086,0,0,0,.942-.393q.459-.636.809-.636a.745.745,0,0,1,.549.22.72.72,0,0,1,.217.525,1.257,1.257,0,0,1-.241.6,2.369,2.369,0,0,1-.481.581,2.948,2.948,0,0,1-1.817.526,3,3,0,0,1-1.006-.132,3.1,3.1,0,0,1-1.622-1.511,5.02,5.02,0,0,1-.481-2.188,1.234,1.234,0,0,0-.174-.723.653.653,0,0,1-.175-.4.816.816,0,0,1,.241-.481c.16-.16.24-.269.24-.328a1.714,1.714,0,0,1,.088-.5A2.978,2.978,0,0,1,103.872,124.678Zm1.006,1.62c-.044-.059-.19-.1-.438-.132h-.153a1.063,1.063,0,0,0-.919.526,1.773,1.773,0,0,0-.328.745l.021.065h.022a6.854,6.854,0,0,0,1-.263,6.405,6.405,0,0,0,.908-.307.742.742,0,0,0-.021-.284A1.493,1.493,0,0,0,104.878,126.3Z"/>
      <path class="f" d="M110.2,123.912l.066-.285.066.351a.993.993,0,0,0,.24.47,1.042,1.042,0,0,1,.241.427,8.074,8.074,0,0,1,.2,2.057c0,.512.03.767.089.767.043,0,.109-.124.2-.372a5.156,5.156,0,0,1,1.051-1.73,4.666,4.666,0,0,1,1.183-.908,3.2,3.2,0,0,1,1.247-.449h.153a1.3,1.3,0,0,1,.843.274.794.794,0,0,1,.251,1.017.607.607,0,0,1-.613.329.87.87,0,0,1-.393-.087.3.3,0,0,0-.175-.044,1.661,1.661,0,0,0-.5.2,3.222,3.222,0,0,0-1.4,1.292,9,9,0,0,0-.877,2.6,17.89,17.89,0,0,1-.613,2.43.648.648,0,0,1-.568.285.585.585,0,0,1-.592-.35,20.2,20.2,0,0,1-.393-4.51c-.031-.7-.052-1.12-.066-1.259s-.052-.215-.111-.229a.5.5,0,0,1-.349-.5v-.109a1.727,1.727,0,0,1,.5-1.183A.865.865,0,0,0,110.2,123.912Z"/>
      <path class="f" d="M118.954,124.918a2.006,2.006,0,0,1,.854-.853,2.7,2.7,0,0,1,1.336-.329,3.9,3.9,0,0,1,.853.11,1.709,1.709,0,0,1,1.226,1.072,1.412,1.412,0,0,1,.153.57.665.665,0,0,1-.175.394.587.587,0,0,1-.416.2q-.416,0-.656-.548a1.543,1.543,0,0,0-.166-.306.427.427,0,0,0-.272-.087,3.449,3.449,0,0,0-.46-.044q-1.293,0-1.291,1.422a.7.7,0,0,0,.174.548,2.494,2.494,0,0,0,.877.328,5.047,5.047,0,0,1,1.608.69,2.483,2.483,0,0,1,.843,1.106,2.815,2.815,0,0,1,.219,1.094,2.246,2.246,0,0,1-1.226,2.1,1.292,1.292,0,0,1-.438.2c-.1.014-.365.021-.787.021a2.8,2.8,0,0,1-1.2-.2,1.707,1.707,0,0,1-.919-1.094.757.757,0,0,1,0-.569.745.745,0,0,1,.679-.482.791.791,0,0,1,.7.526.561.561,0,0,0,.262.306,1.838,1.838,0,0,0,.613.065.81.81,0,0,0,.636-.273.946.946,0,0,0,.24-.646,1.147,1.147,0,0,0-.066-.372,1.282,1.282,0,0,0-.47-.657,4.023,4.023,0,0,0-1.128-.437,3.02,3.02,0,0,1-1.555-.766,2.127,2.127,0,0,1-.5-1.424A3.421,3.421,0,0,1,118.954,124.918Z"/>
    </g>
  </g>
</svg>
