<svg xmlns="http://www.w3.org/2000/svg" width="104.855" height="107.16" viewBox="0 0 104.855 107.16">
  <defs>
    <style>
      .a {
        fill: none;
      }

      .b {
        fill: #2c2c2c;
      }

      .c {
        fill: #c77966;
      }

      .d {
        fill: #99a3be;
      }

      .e {
        fill: #394172;
      }

      .f {
        fill: #ea9a00;
      }
    </style>
  </defs>
  <g>
    <path class="a" d="M1.57,95.631C.7,84.14.2,72.509,0,60.919.15,72.5.6,84.023,1.57,95.631Z"/>
    <path class="a" d="M2.667,106.844c1.423.13,2.762.233,4.034.316-1.413-.33-2.793-.686-4.117-1.09C2.613,106.328,2.637,106.586,2.667,106.844Z"/>
    <path class="b" d="M72.387.009,72.6,0Z"/>
    <path class="b" d="M2.417,106.822c.083.028.172.051.255.078l-.005-.056Z"/>
    <path class="c" d="M99.6,29.4a13.674,13.674,0,0,0-1.347-1.508c.541.955,1.063,1.923,1.543,2.916C99.745,30.357,99.686,29.9,99.6,29.4Z"/>
    <path class="b" d="M58.166,2.167c-1.423-.119-2.857-.195-4.311-.195-1.528,0-3.037.08-4.531.212Q53.765,2.187,58.166,2.167Z"/>
    <path class="d" d="M55.379,61.034l-.063.01-.017,0a.272.272,0,0,0-.049.013A1.084,1.084,0,0,1,55.379,61.034Z"/>
    <path class="d" d="M56.357,58.318l.042-.009Z"/>
    <path class="d" d="M53.266,61.8c-.059,0-.058,0-.072,0Z"/>
    <path class="d" d="M54.209,58.82l.044-.021Z"/>
    <path class="d" d="M60.806,30.817c-.039.052-.079.1-.118.149l.1-.019C60.793,30.9,60.8,30.861,60.806,30.817Z"/>
    <path class="d" d="M54.208,58.821l-.013.006.014-.006Z"/>
    <path class="d" d="M52.219,40c-.025-.078-.017-.052-.025-.078l0-.014c-.044-.141-.031-.094-.044-.141a7.759,7.759,0,0,1-.862-4.075,57.929,57.929,0,0,0-7.2.678,43.08,43.08,0,0,0-3.412,4.426c.58.018.922.1,1.115.1a7.583,7.583,0,0,1,7.391,4.621l-.01-.027A28.443,28.443,0,0,1,51.52,52.04c-.007-.034-.014-.074-.021-.108.3,1.516.3,1.295.35,1.674.059.327.11.65.164.978-.006-.047-.013-.088-.02-.129.053.248.106.5.15.747l.012.062.007.051-.006-.041c.073,2.631,2.646,2.277,3.516,2.892,9.15-4.181-1.52,4.273-4.126-.308.013.031.02.062.034.093l.021.043-.021-.043c-.02-.042-.04-.088-.06-.133.008.014.018.025.026.04-.759-1.819-.4-3.488-.662-4.5,0,.012.008.024.011.037a27.483,27.483,0,0,0-2.11-6.778,14.431,14.431,0,0,0-1.578-2.48l-.009-.01a5.473,5.473,0,0,0-2.126-1.585l-.03-.012a15.406,15.406,0,0,0-4.229-.877l-.036,0a2.891,2.891,0,0,1-.728.01c-1.975,2.671-3.918,4.54-7.969,3.914-.25.1-.163.118-.264.065,22.5,36.643,36.825,20.158,41.4,5.822C67.08,59.337,52.67,61.085,52.219,40Zm6.7,16.733h0ZM44.769,49.474c.018-.061,0-.042.02-.061l.026-.014ZM43.2,48.5c-2.4.552-2.234,1.322-3,2.13-.009.016-.02.031-.03.046l-.027.037a.285.285,0,0,1,.021-.03,7.614,7.614,0,0,1-.814.793c.022.48-2.213,1.124-2.265-.05.583-.791.7-.281,1.036-.316a4,4,0,0,1,.814.092,4.151,4.151,0,0,1,.193-.438c-1.357.448-1.7-1.492.371-.994a.7.7,0,0,1,.185.056c.876-1.3,2.261-2.715,3.228-2.226l.032-.006-.032.006c-.03.007-.058.016-.083.021.385-.088.778-.156,1.17-.223C47.754,47.891,44.082,48.771,43.2,48.5Zm2.951.233v-.007l.008,0ZM57.206,59.977,57.165,60Zm-6.3,2.93.052.019Zm3,1.164.152.048.064.02-.064-.02C53.939,64.081,53.975,64.094,53.911,64.071Zm.694.19.07.02Zm.694-3.213.017,0c4.39-2.2,5.916-1.655,7.97-2.532C64.307,70.857,40.008,60,55.3,61.048Zm8.5-1.929,0,0Z"/>
    <path class="d" d="M47.185,44.111l.013.017.009.01a.639.639,0,0,0,.044.048C47.212,44.144,47.2,44.124,47.185,44.111Z"/>
    <path class="d" d="M52.2,39.931l-.007-.02-.009-.031c-.038-.119-.035-.113-.044-.142l.007.025c.037.116.035.114.044.141l0,.014.025.078.029.086C52.207,39.96,52.219,39.995,52.2,39.931Z"/>
    <path class="d" d="M68.169,101.922c.4-.116.793-.23,1.185-.355-.4-.063-.783-.139-1.156-.231Q68.189,101.654,68.169,101.922Z"/>
    <path class="d" d="M62.416,70.983a6.567,6.567,0,0,1,1.269-2.343c-3.948,2.226-8.354,1.078-10.721.092,7.515,9.8,8.069,30.635-6.677,24.95-10.542,13.607-17.81,3.343-16.24-3.249-3.647.439-6.8.7-9.691.976a51.011,51.011,0,0,0,46.527,10.878C65.508,99.251,63.25,89.349,61.031,70.4,62.061,69.06,62.384,70.393,62.416,70.983Z"/>
    <path class="d" d="M40.161,50.686l.006-.007.012-.02.018-.026.017-.032C40.185,50.649,40.17,50.672,40.161,50.686Z"/>
    <path class="d" d="M74.95,92.875a23.636,23.636,0,0,1-2.213-3.405C73,91.109,73.458,92.4,74.95,92.875Z"/>
    <path class="d" d="M42.009,48.866l-.049.023A.426.426,0,0,0,42.009,48.866Z"/>
    <path class="d" d="M56.456,58.3l.056-.008Z"/>
    <path class="d" d="M58.788,57.518l.024-.039Z"/>
    <path class="d" d="M40.763,41.649l.014,0,.036,0,.065,0Z"/>
    <path class="d" d="M52.156,55.274v-.01l-.008-.038,0-.024-.008-.029C52.147,55.226,52.152,55.255,52.156,55.274Z"/>
    <path class="d" d="M45.018,42.522l.024.009.03.012.081.026C45.034,42.528,45.078,42.544,45.018,42.522Z"/>
    <path class="d" d="M67.2,91.5q.22,1.311.389,2.491C67.5,93.151,67.365,92.32,67.2,91.5Z"/>
    <path class="d" d="M64.007,30.584q.647.271,1.255.553a6.4,6.4,0,0,0-2-1.3A4.835,4.835,0,0,1,64.007,30.584Z"/>
    <path class="d" d="M48.828,2.221a50.687,50.687,0,0,0-23.152,8.247c2.517,3.264,2.092,8.626.466,10.167-7.073,6.872-11.151,5.143-12.578,1.09a50.969,50.969,0,0,0,4.32,67.4c6.534-.23,13.42.181,13.841-4.686C19.117,73.289,33.42,67.3,22.868,58.128c-3-5.786.754-12.7,3.078-15.654C19.7,16.88,48.05,12.107,63.413,8.3A18.59,18.59,0,0,1,78.4,18.156l-.04-.284c7.808,16.5,7.678,33.045,6.52,47.885,7.1,5.543,5.171,13.043-.132,15.654-.026.182-.055.348-.082.525a13.62,13.62,0,0,0,.8,1.157,14.711,14.711,0,0,1,5.538,4.633l.1.061A51.013,51.013,0,0,0,99.8,30.8c1.855,16.178-17.643-1.751-4.775-4.11a4.261,4.261,0,0,1,3.232,1.194A51.185,51.185,0,0,0,94.676,22.4c-4.232,4.774-10.487-3.8-8.691-9.023A50.756,50.756,0,0,0,58.871,2.22Q53.813,2.24,48.828,2.221ZM24.79,79.193c-4.948,17.463-20.082-4.8-11.188-8.62C21.27,68.027,24.478,74.988,24.79,79.193Z"/>
    <path class="d" d="M52.208,39.958c-.022-.07-.018-.059-.029-.095l0,.017c.013.039.013.042.016.051Z"/>
    <path class="d" d="M57.032,34.65l-.058.022c.019.014.037.03.056.047Z"/>
    <path class="d" d="M49.324,2.184c-.165.014-.332.021-.5.037q4.981.019,10.043,0c-.234-.022-.471-.034-.705-.053Q53.766,2.188,49.324,2.184Z"/>
    <path class="e" d="M52.19,39.9c-.009-.027-.007-.025-.044-.141C52.159,39.81,52.146,39.763,52.19,39.9Z"/>
    <path class="e" d="M52.219,40l-.025-.078C52.2,39.944,52.194,39.918,52.219,40Z"/>
    <path class="e" d="M52.2,39.931c0-.009,0-.012-.016-.051l.009.031Z"/>
    <path class="e" d="M68.792,42.921a.556.556,0,0,0,.047-.072C68.792,42.921,68.808,42.9,68.792,42.921Z"/>
    <path class="e" d="M67.7,42.194c.02-.029.013-.017.021-.03Z"/>
    <path class="e" d="M66.218,44.005a.034.034,0,0,0,.015,0h.045A.243.243,0,0,1,66.218,44.005Z"/>
    <path class="e" d="M62.642,43.441l-.017,0,.04,0Z"/>
    <path class="e" d="M62.729,43.439l.043,0Z"/>
    <path class="e" d="M66.278,44.01c.01,0,.014.005.024.005h.031C66.312,44.015,66.3,44.01,66.278,44.01Z"/>
    <path class="e" d="M62.642,43.441h0Z"/>
    <path class="e" d="M52.146,39.763l-.007-.025c.009.029.006.023.044.142l0-.017c.011.036.007.025.029.095l-.009-.027c.02.064.008.029.049.151L52.219,40c.451,21.089,14.861,19.341,21,11.466,1.975-6.181,2.139-11.963.359-12.916-4.4-.708-5.7-4.962-8.316-7.409q-.608-.282-1.255-.553c2.424,3.015,1.638,8.99.508,11.263h0v0h0c-.023.021-.034.028-.054.046a1.2,1.2,0,0,1-.174.148l-.018.014a.174.174,0,0,0,.026-.019.174.174,0,0,1-.026.019l-.029.023a.218.218,0,0,1,.026-.021l-.026.019.026-.019.018-.015h0l.008-.008h0c-.136.1-.178.093-.285.177h0c-.014-.045-.023-.087-.036-.132a3.425,3.425,0,0,1-2.7-.624.077.077,0,0,1,.019.015c.017.012.014.011.02.02-.006-.009,0-.008-.02-.02a.538.538,0,0,0-.045-.035c.02.009.015.013.02.015.889-5.664-.9-8.131-.475-10.506l-.1.019c-2.749,3.544-6.077,4.408-9.4,4.722A7.759,7.759,0,0,0,52.146,39.763Zm12.786,4.366h0Zm0,0c-.025-.005-.015,0-.025-.005l.08.015A.18.18,0,0,1,64.933,44.127Zm3.553.541c.011,0,0,0,.025.01C68.489,44.668,68.5,44.67,68.486,44.668Zm2.534-5.293c-.017-.008-.034-.017-.052-.024C70.986,39.358,71,39.367,71.02,39.375Zm-3.495-.667c1.437-1.72,2.856.745,3.653.732C72.17,41.435,67.028,38.851,67.525,38.708Zm-1.931,3.711.007.016h-.012Zm-1.047.773a.017.017,0,0,1-.01.005A.017.017,0,0,0,64.547,43.192Zm-.554-.968.008,0,0,0h0l-.006,0-.009.007Zm-.465.171h0Zm-1.177,1.056h0Zm-.427-1.483a.135.135,0,0,1,.029.024l-.029-.024h0Zm-1.146,1.488c.491-.161.421-.014.658-.05l-.005,0a3.128,3.128,0,0,0,.867.053h-.01l.054,0,0,0h.016c.07,0,.07-.011.087,0h0c.07,0,.135-.005.2-.01h.075c.506-.053.606-.017.788-.037h-.03a.136.136,0,0,0,.04,0l-.01,0a.165.165,0,0,1,.034-.005h0c.931-.063.922-.24,1.415-.259a4.29,4.29,0,0,1,.579,0c.071-.038.1-.046.051,0,.37.02.7.049,1,.083a2.728,2.728,0,0,1,1.381-1.27c.507-.049.656.611.535.595a10.465,10.465,0,0,1-.945.826c.164.034.317.068.45.1.105-.063.225-.132.364-.208a1.329,1.329,0,0,0,.494-.45c1.252.276.7.731-.05,1.011.673.536-.778,1.037-2.508.191a.239.239,0,0,1-.059-.005h-.01c-.138,0-.239-.006-.324-.007a.519.519,0,0,1-.585.037c.029-.005.053-.005.081-.009l-.1,0h-.024c-.039,0-.039,0-.049.005h.02c-.065,0-.13,0-.195,0H65.1c-2.025.089-1.938.037-2.421-.349-.028.5-.04.414-.1.514.01,0,.015-.005.025-.005-.035.01-.065.025-.1.035l.029-.015a12.264,12.264,0,0,1-1.569.325,6.406,6.406,0,0,0-2.533,1.29.1.1,0,0,1,.024-.02C54.66,48.433,59.812,42.661,60.778,43.456ZM57.032,34.65l0,.069c-.019-.017-.037-.033-.056-.047Z"/>
    <path class="e" d="M62.687,43.441h0a.069.069,0,0,1-.019,0Z"/>
    <path class="e" d="M67.074,101c-.007.024-.011.047-.017.07l.016-.07h0a18.4,18.4,0,0,0,.512-7.014q-.169-1.18-.389-2.491c-1.616-7.93-6.378-15.236-4.781-20.513-.032-.59-.355-1.923-1.385-.588,2.219,18.954,4.477,28.856,5.852,31.892.432-.114.858-.241,1.286-.365q.02-.269.029-.586A11.414,11.414,0,0,1,67.074,101Z"/>
    <path class="e" d="M75.986,98.933A51.113,51.113,0,0,0,89.45,89.481a13.4,13.4,0,0,1-5.3-4.538c-2.284,11.764-5.833,12.111-9.2,7.932C73.458,92.4,73,91.109,72.737,89.47c-4.093-7.46-7.361-19.746-6.8-22.548a10.273,10.273,0,0,1-2.256,1.718,6.567,6.567,0,0,0-1.269,2.343.642.642,0,0,1-.015.236A177.247,177.247,0,0,1,67.2,91.5c.168.824.3,1.655.389,2.491a47.753,47.753,0,0,1,.612,7.349c.373.092.76.168,1.156.231a50.591,50.591,0,0,0,6.57-2.6Z"/>
    <path class="e" d="M62.4,71.262c0,.115,0,.077,0,.115C62.4,71.338,62.4,71.3,62.4,71.262Z"/>
    <path class="e" d="M91.006,87.726a14.711,14.711,0,0,0-5.538-4.633A19.162,19.162,0,0,0,91.006,87.726Z"/>
    <path class="e" d="M62.4,71.231l0-.012,0-.017Z"/>
    <path class="e" d="M67.2,91.5a177.247,177.247,0,0,0-4.8-20.277l0,.012V71.2l0,.017a.642.642,0,0,0,.015-.236C60.819,76.26,65.581,83.566,67.2,91.5ZM62.4,71.377c0-.038,0,0,0-.115C62.4,71.3,62.4,71.338,62.4,71.377Z"/>
    <path class="e" d="M67.057,101.071c.006-.023.01-.046.017-.07h0Z"/>
    <path class="e" d="M67.074,101a11.414,11.414,0,0,0,1.124.335,47.753,47.753,0,0,0-.612-7.349A18.4,18.4,0,0,1,67.074,101Z"/>
    <path class="e" d="M75.986,98.933l-.062.029Z"/>
    <path class="c" d="M26.142,20.635c1.626-1.541,2.051-6.9-.466-10.167a51.1,51.1,0,0,0-5.613,4.321c-.028.721-.617,1.543-1.061,1.548a1.782,1.782,0,0,1-.968.343,51.368,51.368,0,0,0-4.47,5.045C14.991,25.778,19.069,27.507,26.142,20.635Z"/>
    <path class="c" d="M19,16.337c.444,0,1.033-.827,1.061-1.548-.692.613-1.37,1.241-2.029,1.891A1.782,1.782,0,0,0,19,16.337Z"/>
    <path class="c" d="M99.8,30.8c-.48-.993-1-1.961-1.543-2.916a4.261,4.261,0,0,0-3.232-1.194C82.154,29.053,101.652,46.982,99.8,30.8Z"/>
    <path class="c" d="M94.676,22.4a51.318,51.318,0,0,0-8.691-9.023C84.189,18.6,90.444,27.171,94.676,22.4Z"/>
    <path class="c" d="M19.432,81.133a.3.3,0,0,0-.01.032c-.007.036,0,.022-.007.039l0,.014C19.427,81.147,19.429,81.15,19.432,81.133Z"/>
    <path class="c" d="M13.6,70.573c-8.894,3.816,6.24,26.083,11.188,8.62C24.478,74.988,21.27,68.027,13.6,70.573ZM19.415,81.2l.007-.039a7.672,7.672,0,0,0,.154-1.148C21.458,81.488,18.229,84.443,19.415,81.2Z"/>
    <path class="c" d="M19.576,80.017a7.672,7.672,0,0,1-.154,1.148.3.3,0,0,1,.01-.032c0,.017,0,.014-.02.085l0-.014C18.229,84.443,21.458,81.488,19.576,80.017Z"/>
    <path class="c" d="M19.415,81.2c0-.017,0,0,.007-.039Z"/>
    <path class="b" d="M79.37,47.233l-.021-.024-.019-.02-.041-.047-.027-.024C79.353,47.211,79.346,47.207,79.37,47.233Z"/>
    <path class="b" d="M69.013,67.826l-.02-.041-.006-.011-.018-.036c-.008-.014-.015-.028-.024-.041C69,67.8,69,67.8,69.013,67.826Z"/>
    <path class="b" d="M80.378,61.981c0,.015,0,.031,0,.046l0,.019c0,.027,0,.054,0,.084A1.471,1.471,0,0,1,80.378,61.981Z"/>
    <path class="b" d="M85.317,72.738l.005.028c.022.1.022.107.026.128s.015.064.023.094C85.326,72.783,85.339,72.844,85.317,72.738Z"/>
    <path class="b" d="M69.179,70.022a.35.35,0,0,0,.017.057Z"/>
    <path class="b" d="M81.849,79.841h0c.012-.019.025-.038.037-.059Z"/>
    <path class="b" d="M52.119,19.364h.005Z"/>
    <path class="b" d="M81.258,90.341v0Z"/>
    <path class="b" d="M52.193,19.366l-.07,0A.332.332,0,0,0,52.193,19.366Z"/>
    <path class="b" d="M69.2,70.386l0-.032Z"/>
    <path class="b" d="M81.488,87.642c-.007.016-.013.033-.019.051l-.011.039,0,.018C81.479,87.661,81.482,87.662,81.488,87.642Z"/>
    <path class="b" d="M51.236,77.617a.278.278,0,0,1-.024-.059l0,.017Z"/>
    <path class="b" d="M53.108,84.1h0v0Z"/>
    <path class="b" d="M43.546,83.834l0,.007.03.032.029.03Z"/>
    <path class="b" d="M42.742,89.792c-.016-.064-.011-.043-.017-.064C42.742,89.792,42.736,89.771,42.742,89.792Z"/>
    <path class="b" d="M40.741,76.279c.013-.042.009-.026.013-.042Z"/>
    <path class="b" d="M40.753,76.3c-.005.1-.005.063-.005.1C40.751,76.362,40.753,76.33,40.753,76.3Z"/>
    <path class="b" d="M38.423,61.135c0-.03-.009-.061-.016-.092C38.423,61.135,38.417,61.1,38.423,61.135Z"/>
    <path class="b" d="M49.088,71.889c-.007-.034,0-.021-.008-.034Z"/>
    <path class="b" d="M49.08,71.846l-.009-.047C49.08,71.846,49.073,71.827,49.08,71.846Z"/>
    <path class="b" d="M52.109,82.258c0,.019,0,.038-.005.055v.1A1.375,1.375,0,0,1,52.109,82.258Z"/>
    <path class="b" d="M51.213,77.573a.029.029,0,0,0-.005-.014l0,.007Z"/>
    <path class="b" d="M51.214,77.575v0a.246.246,0,0,1,0,.028l.007.019C51.22,77.605,51.216,77.59,51.214,77.575Z"/>
    <path class="b" d="M39.448,65.319c0-.03,0-.059,0-.089C39.448,65.319,39.448,65.288,39.448,65.319Z"/>
    <path class="b" d="M43.406,66.081l-.009-.048C43.406,66.081,43.4,66.065,43.406,66.081Z"/>
    <path class="b" d="M40.714,71.313c.023.095.014.064.023.095C40.729,71.375,40.72,71.343,40.714,71.313Z"/>
    <path class="b" d="M43.573,64.766a.563.563,0,0,0-.014-.059Z"/>
    <path class="b" d="M49.105,71.962a.581.581,0,0,0-.015-.063Z"/>
    <path class="b" d="M48.087,85.194l0,0v0l.019-.032Z"/>
    <path class="b" d="M47.963,81.938l-.007.022L47.944,82c-.011.032-.019.064-.028.1C47.959,81.95,47.941,82.007,47.963,81.938Z"/>
    <path class="b" d="M43.42,66.137c0-.017,0-.033,0-.05C43.419,66.137,43.418,66.118,43.42,66.137Z"/>
    <path class="b" d="M40.257,74.322l.03-.046Z"/>
    <path class="b" d="M40.193,74.432l.051-.09C40.193,74.432,40.208,74.4,40.193,74.432Z"/>
    <path class="b" d="M39.629,69.729l.016-.047C39.629,69.729,39.634,69.713,39.629,69.729Z"/>
    <path class="b" d="M47.07,78.386l.009.053Z"/>
    <path class="b" d="M44.64,70.166c0-.031,0-.061,0-.094C44.64,70.166,44.639,70.134,44.64,70.166Z"/>
    <path class="b" d="M55.038,83.563v-.02l0-.02v-.018c0,.07-.005.081-.005.1C55.036,83.592,55.037,83.578,55.038,83.563Z"/>
    <path class="b" d="M66.979,28.729l-.035-.036A.163.163,0,0,0,66.979,28.729Z"/>
    <path class="b" d="M84.031,76.29l.084-.078C84.031,76.29,84.059,76.262,84.031,76.29Z"/>
    <path class="b" d="M81.075,88.684a.762.762,0,0,0-.045.069Z"/>
    <path class="b" d="M50.751,18.676l-.082.039Z"/>
    <path class="b" d="M64.969,24.744a.341.341,0,0,0-.05.011Z"/>
    <path class="b" d="M66.925,28.389l-.007.13C66.923,28.476,66.924,28.432,66.925,28.389Z"/>
    <path class="b" d="M81.23,65.56l-.027-.135Z"/>
    <path class="b" d="M53.934,31.951c.036,0,.072,0,.108,0A.973.973,0,0,0,53.934,31.951Z"/>
    <path class="b" d="M84.125,76.2l.048-.042Z"/>
    <path class="b" d="M80.291,62.485c-.014.051-.01.034-.014.051Z"/>
    <path class="b" d="M85.493,74.219v0Z"/>
    <path class="b" d="M84.978,75.336c.027-.043.054-.086.08-.13C84.978,75.336,85,75.293,84.978,75.336Z"/>
    <path class="b" d="M50.9,33.358l-.028.01Z"/>
    <path class="b" d="M51.924,32.7l-.049.04Z"/>
    <path class="b" d="M37.86,81.948l0,0,.025.015.022.012Z"/>
    <path class="b" d="M55.162,87.78a.138.138,0,0,1-.01.034v0c.016-.055.024-.076.029-.1C55.175,87.739,55.168,87.76,55.162,87.78Z"/>
    <path class="b" d="M38.429,61.22c0,.067,0,.044,0,.067C38.429,61.264,38.429,61.242,38.429,61.22Z"/>
    <path class="b" d="M35.575,68.09c.011.069.007.045.011.069C35.583,68.136,35.58,68.114,35.575,68.09Z"/>
    <path class="b" d="M49.486,19.4l-.022.036Z"/>
    <path class="b" d="M36.049,66.691c.013.066.008.044.013.066Z"/>
    <path class="b" d="M56.214,31.305l.054-.049Z"/>
    <path class="b" d="M52.839,86.209l-.01-.035Z"/>
    <path class="b" d="M80.338,61.455l-.007-.042Z"/>
    <path class="b" d="M55.273,86.9c.024.1.016.066.024.1C55.29,86.968,55.281,86.935,55.273,86.9Z"/>
    <path class="b" d="M55.285,87.177v0Z"/>
    <path class="b" d="M35.257,74.1l.017-.073C35.257,74.1,35.261,74.081,35.257,74.1Z"/>
    <path class="b" d="M80.3,73.413c-.016.063-.012.042-.016.063C80.285,73.455,80.291,73.434,80.3,73.413Z"/>
    <path class="b" d="M75.1,32.318v0l-.009-.032a.3.3,0,0,1,.008.058Z"/>
    <path class="b" d="M33.047,40.657c0,.051,0,.034,0,.051A.463.463,0,0,0,33.047,40.657Z"/>
    <path class="b" d="M30.839,63.919c0-.039,0-.026,0-.039Z"/>
    <path class="b" d="M79.786,74.43c-.1.15-.065.1-.1.15C79.721,74.53,79.754,74.48,79.786,74.43Z"/>
    <path class="b" d="M78.548,78.509l-.022.076C78.534,78.56,78.542,78.534,78.548,78.509Z"/>
    <path class="b" d="M46.287,93.682c14.746,5.685,14.192-15.151,6.677-24.95,2.367.986,6.773,2.134,10.721-.092a7.619,7.619,0,0,1,.754-.791l0,0,0,0h0c1.078-.7.928-.6,1.491-.962,2.25-.981,1.071,1.531.419,1.746a4.424,4.424,0,0,1,2.381,2.713c.083-.739.153-1.37.188-1.741l.088.088c-1.327-1.277-1.422-2.538-1.1-3.064,1.366-.7.837.91,1.059,1.109l.024.047a4.65,4.65,0,0,1,.353,5.167c-.055.266-.107.511-.157.747.214,2.879-.473,5.991.035,6.983,3.147,2.518,3.083,6.116,3.513,8.788a23.636,23.636,0,0,0,2.213,3.405,5.939,5.939,0,0,0,2.451.15,6.85,6.85,0,0,0,3.643-2.363c-.677.182-1.14-1.117.414-2.93.011-.039.007-.026.011-.039a15.343,15.343,0,0,0-.508-3.324c-3.326-6.193,5.307-7.332,4.387-11.475-.026-.128-.019-.086-.026-.128-.018-.078-.035-.157-.053-.238.014.081.034.162.054.251-1.821-4.224-7.221-4.727-5.5-9.031l.015-.048-.015.048c-.007.025-.014.051-.02.076a11.9,11.9,0,0,0,.57-1.778l0-.019c-1.856-3.189-1.164-5.522.227-7.386l-.007.013c.3-.483.577-.98.876-1.463l-.016.022a1.378,1.378,0,0,0,.175-1.333c-2.066-3.921-6.827-6.752-4.519-10.289,1.339-.778.446,1.165.4,1.456a5.247,5.247,0,0,0,.737,2.665,7.547,7.547,0,0,0,1.045,1.43c.021.021.041.044.06.067,6.969,4.217-.018,8.968.831,12.292,1.9,11.557,13.208,13.413,2.512,19.359.012-.014.025-.027.038-.04a4.851,4.851,0,0,0-.88,1.02l-.015.025.014-.024a4.451,4.451,0,0,0-.5,2.028,5.585,5.585,0,0,0,.149,1.152l0-.01a13.711,13.711,0,0,1,.539,2.464v-.012c.006.034.013.075.02.109-.008-.035-.013-.065-.019-.1a14.713,14.713,0,0,1,.119,1.907c.2-2.209-.221-4.342,1.071-5.226a7.386,7.386,0,0,1,.261-2.6,12.587,12.587,0,0,0,1.177,2.377c.027-.177.056-.343.082-.525,5.3-2.611,7.232-10.111.132-15.654,1.158-14.84,1.288-31.382-6.52-47.885l.04.284A18.59,18.59,0,0,0,63.413,8.3C48.05,12.107,19.7,16.88,25.946,42.474c-2.324,2.951-6.079,9.868-3.078,15.654C33.42,67.3,19.117,73.289,31.725,84.436c-.421,4.867-7.307,4.456-13.841,4.686.8.792,1.626,1.549,2.472,2.287,2.893-.275,6.044-.537,9.691-.976C28.477,97.025,35.745,107.289,46.287,93.682Zm-11.78,2.395a.564.564,0,0,1,.053.031A.564.564,0,0,0,34.507,96.077ZM36,78.066l.052.03Zm2.65,15.644,0-.042Zm-.243,2.344c-1.937-2.224.982-11.6-.523-14.087l-.025-.015a.688.688,0,0,1-.088-.061c.028.017.019.014.086.057-5.327-9.578-1.782-20.474-7.543-29.395-.385-.55-.763-1.1-1.182-1.64a19.194,19.194,0,0,1,1.182,1.64C38.91,64.844,39.1,80.538,38.41,96.054Zm-.67-4.793c.015.027.028.054.041.081Zm.041.082Zm.376-7.591c.014-.047,0,0,.043-.136C38.187,83.662,38.172,83.707,38.157,83.752Zm-2.968-1.094c-.01-.022-.021-.043-.032-.065C35.168,82.615,35.179,82.636,35.189,82.658Zm-.061-.081-.012-.064C35.121,82.535,35.116,82.513,35.128,82.577ZM32.24,55.27l.025.053Zm6.609,34.638.039-.119C38.876,89.828,38.864,89.868,38.849,89.908Zm.067-3.453.062.036Zm.612-1.341.025.045Zm2.4,9.006,0,0-.008.02.006-.018c-1.544,2.479-.589-2.257.056-2.646-.1-4.008,1.132-6.1,1.6-7.6l-.03-.032c-.031-.033-.06-.067-.09-.1.022.022.04.043.086.093-5.156-7.116-3.6-20.109-6.35-26.085,1.285.056,1.058,1.074,1.229,1.291-.008-.036-.017-.071-.025-.108.027.055.054.109.074.156-.022-.005-.034-.029-.049-.048C41.405,72.356,46.3,83.691,41.923,94.12Zm-.793-.347c0-.018,0,0,.017-.054Zm2.641-9.721c0,.009,0,0,.013.027Zm4.28,4.841.012-.042Zm.035-3.7c-.012.018-.019.03-.042.069l.041-.071,0,0c.179-2.149-.521-2.89-.143-3.2l.012-.035c.056-3.533-3.119-4.259-2.294-6.306l-.012.033c.213-.666.186-.579.155-.494-2.7-4.609-2.641-9.665-2.963-11.656a4.738,4.738,0,0,1,1.525,3.576C49.285,75.72,49.162,99.011,48.086,85.2Zm.587,1.939v0Zm.008.115.013.071Zm.009-.1,0,0Zm.053-.228c.007-.024.013-.048.019-.071Zm.049-3.28,0,0Zm.024-.337.044-.143C48.847,83.213,48.834,83.262,48.816,83.311Zm3.287-.965v-.033a2.69,2.69,0,0,0-.048-.679c.006.035.014.071.019.1-.034-.059-.054-.114-.085-.172a.459.459,0,0,0-.057-.037.459.459,0,0,1,.057.037,7.649,7.649,0,0,1-.775-3.964.26.26,0,0,0-.026-.074l.019.032-.006-.035a.294.294,0,0,1,.01.034c-.479-4.027-5.2-8-3.014-10.758,1.125-.215.983.931.8,1.414C51.208,73.8,53.042,79.9,53.108,84.081c0-.02,0-.033,0-.077,0,.031,0,.06,0,.09h0C55.652,93.181,51.13,86.28,52.1,82.346Zm2.2-.075c0-.031,0,0,.007-.093Zm.737,1.213v.039l0,.04c2.24,2.334.769,6.813.115,4.254,0,.02-.008.028-.018.064l.017-.067a.138.138,0,0,0,.01-.034,21.092,21.092,0,0,0-.3-2.856l-.011-.013.011.013c-.807-4.894-2.9-10.182-1.959-13.915a35.682,35.682,0,0,1,2.136,12.5ZM64.3,67.937l.063-.04ZM31.816,45.64c.1.053.014.037.264-.065,4.051.626,5.994-1.243,7.969-3.914-.857-.122-.293-.836-.111-.858.283-.017.524-.017.738-.011a43.08,43.08,0,0,1,3.412-4.426,57.929,57.929,0,0,1,7.2-.678,3.6,3.6,0,0,1,1.409-2.46c-1.339.592-2.41,1.008-2.3.971-4.379-.309,5.757-3.571,6.023-4.5,2.049.242.724,1.291-1.2,2.315a51.922,51.922,0,0,1,5.471-1.05c.039-.05.079-.1.118-.149a3.948,3.948,0,0,1,.29-.844c-1.784-1.554-1.589-2.027-1.262-2.411.761.32.417.693.553.833a.831.831,0,0,0-.02-.11c.384.374.739.728,1.076,1.072.075-.114.142-.226.231-.342a4.582,4.582,0,0,1,1.586.823,6.4,6.4,0,0,1,2,1.3,28.773,28.773,0,0,1,4.126,2.31c-2.128-3.269-4.775-8.035-4.611-8.59-2.657-1.93-7.109-3.711-6.248-5.018,7.072,1.785,9.158,8.593,12.333,13.193l-.015-.066c.418,1.008.7,1.769.883,2.328,5.781,5.344,4.951,11.728,1.489,16.168C68.641,65.8,54.311,82.283,31.816,45.64Zm.406-2.561.032-.018Zm3.384-2.673a.783.783,0,0,1,.02-.078C35.619,40.354,35.613,40.38,35.606,40.406ZM57.042,29.7l.051,0Zm2.218-4.665c-.007-.041-.013-.075-.02-.108a4.809,4.809,0,0,0,.289.892c1.447-1.361,2.379.736,2.653,1.345,7.734,3.45-5.89-.487-3.5-3.083C59.5,24.447,59.1,24.909,59.26,25.032Zm-.4-3.808c.017-.008,0,0,.044-.011ZM71.77,76.015v.142c-.009-.019-.013-.037-.022-.056-1.881,7.674-1.137-5.6-.562-6.375a4.654,4.654,0,0,0-.337-.865c-1.249-1.736-1.516-3.224-1.19-4.326.884.363.793.8.744.879,0,.084-.007.09-.007.108a.335.335,0,0,0,.006-.047v0a1.986,1.986,0,0,0,.275,1.388c.76,1.288.756,1.249.917,1.555-.02-.034-.034-.061-.054-.1,1.688,3.435-.883,5.376.208,7.778C71.756,76.071,71.762,76.046,71.77,76.015ZM74.365,82.6c.069.286.128.572.19.857.006.026.011.051.017.076.476,1.577.466,1.6.553,1.955l-.04-.163a8.683,8.683,0,0,1,.3,3.343v.108c0-.039,0-.072,0-.108,0,.156-.007.318-.013.473q0-.032.006-.063v0c0,.059,0,.118-.008.177l0-.006a.566.566,0,0,1,0,.06c0-.018,0-.036,0-.054-.816,4.137-4.1-12.16-1.784-11.642-.041.054-.075.115-.115.176,4.784-4.5-1.924-7.922-.055-11.666-1-4.894-1.156-8.6.792-12.04,1.566-1.076.9,1.27.781,1.666.011-.028.02-.055.031-.083-.014.048-.034.1-.048.143,0,0,.008-.027.017-.06-3.257,8,4.309,16.416.234,22.216.034-.061.074-.122.108-.183A5.183,5.183,0,0,0,74.365,82.6Zm.145-6.374c.016-.03,0,0,.052-.088Zm4.153,12.3c.007-.02.014-.041.02-.063ZM76.782,48.884c-.013-.034-.034-.067-.047-.095C76.748,48.817,76.769,48.85,76.782,48.884ZM77.8,67.359a4.045,4.045,0,0,0,.988,1.7c7.632,4.272-1.863,8.246-.569,11.944v.057c0,.177-.01.35-.019.523,0,.023,0,.045,0,.068.582,2.548,1.4,4.271.753,5.7.02-.054.034-.108.054-.162-.113.386-.18.783-.3,1.172l0-.009-.007.021,0-.012c-1.1,2.647-1.732-.994-.956-1.684a5.946,5.946,0,0,0,.155-1.094v-.032c-2.685-5.647.6-8.926,2.442-12.572-5.273-5.732-4.575-14.009-3.038-20.1V53a4.539,4.539,0,0,0-.156-1.611l0,.027,0-.028c-.5-1.754-1.918-2.411-1.258-3.421C80.37,53.605,76.877,61.423,77.8,67.359Zm-.081-.811v0ZM65.266,10.415C73.288,11.689,78.2,22.771,78.877,28.431c.018-.058.035-.118.053-.177-.776,2.942,2.93,5.822.841,8-.43,5.747,2.068,8.87,4.643,12.221,0-.027.008-.045.011-.074.006.04.013.081.02.115l-.031-.041c-.2,1.84-1.482-.988-2.258-1.186l.043.063-.142-.081a.324.324,0,0,1,.1.018c-6.073-8.535-2.664-21.606-9.645-29.7C62.749,8.313,49.035,14.931,65.266,10.415Zm11.839,20.62-.014-.026c-.05-.093-.034-.062-.05-.093-.045-.084-.031-.056-.045-.084l.045.084c.017.031.034.062.05.093Zm-1.958.161c0,.03,0,.059-.005.089ZM74.27,20.218l-.043-.045Zm-.052-.055-.1-.114Zm-16.036-3.68.042-.009c2.413-.77,2.73-1.517,3.549-1.669C69.136,19.874,73.43,24.914,75.1,32.281v-.008l.01.04v0c.027.119.016.08.027.119a.866.866,0,0,1-.016-.347c1.523,2.292,1.994,4.075,1.819,4.83a3.966,3.966,0,0,0,.535,1.326c-4.349.11-7.42-17.9-10.844-19l-.047,0c-4.393,2.015-2.478-4.154-4.994-3.272.041-.021.081-.041.115-.061-2.291,1.2-1.862,1.009-2.9,1.291h.031l-.109.02L58.8,17.2C55.112,17.287,56.016,14.078,58.182,16.483ZM47.03,31.824c-6.373,4.361-10.144,10.042-8.739,7.422v.108C40,32.423,49.709,28.91,53.175,26.94,56.215,28.865,47.79,32.055,47.03,31.824Zm.879-5.8c-14.3,8.534-11.241,17.14-12.1,12.82v.114c-.5-8.878,10.7-13.586,14.884-15.986C58.276,21.927,49.276,26.939,47.909,26.024Zm4.759-3.3.061,0Zm-3.3-3.021c-6.332,8.011-14.127,5.875-15.393,14.558,0-.036,0-.073,0-.111a1.392,1.392,0,0,1-.006.156c0-.014,0-.03,0-.045h0c.966,3.794-2.629,12.677-1.229,8.4a1.116,1.116,0,0,0-.067.095.519.519,0,0,0,.047-.108,1.841,1.841,0,0,0-.217-1.049c.021.034.034.068.055.1-.2-6.777.844-12.416,3.621-14.762h0c1.511-1.235,1.99-1.392,2.369-1.351,3.877-1.97,6.613-4.282,9.123-5.8l-.027,0,.027-.006a10.516,10.516,0,0,1,3.892-1.569C56.385,18.233,49.9,21.09,49.371,19.7ZM32.657,42.793l.045-.039ZM34.7,28.777c0-.02,0,0,0-.061C34.7,28.736,34.7,28.757,34.7,28.777Zm5.079-8.128c.017-.026.034-.053.051-.082Zm7.712-.775.106-.057A.721.721,0,0,1,47.491,19.874Zm.214-.137.036-.032ZM52.9,18.25c-.045-.015-.089-.029-.134-.042l-.028-.012C52.788,18.216,52.842,18.23,52.9,18.25ZM29.608,69.755c2.4-7.738-1.04-9.086-4.678-16.023,4.4-11.34.424-30.692,12.691-32.688,1.891-3.825,4.354-3.644,5.882-3.366l-.063-.019c-.139-.042-.093-.027-.139-.042l.139.042c2.44-.9,4.03-5.128,5.219-4.317,4.47-.4,4.305,2.431,1.373,1.137a2.625,2.625,0,0,0-1.663.347c-1.725.994-1.5,1.436-1.859,2.042-1.032,5.111-5.507.5-6.771,3.831l.014-.007-.038.064c.007-.02.016-.037.024-.057-7.8,3.835-4.138,5.348-8.038,7.453l.031-.015C29.194,33.9,30.452,37.8,30.661,43.33c-3.515,5.711-5.019,8.847-.249,14.976,5.125,6.046-2.344,15.244,2.517,20.029-.033-.074-.074-.148-.115-.23,4.574,5.6,1.273,14.781,1.643,17.946-5.183-4.05.114-9.6-1.148-13.353C31.343,78.082,26,73.93,29.608,69.755Zm.791-31.68c-.007-.029,0,0-.02-.087C30.386,38.017,30.393,38.046,30.4,38.075Z"/>
    <path class="b" d="M66.523,19.236a.468.468,0,0,0,.055,0l.047,0h.053C66.552,19.241,66.55,19.237,66.523,19.236Z"/>
    <path class="b" d="M77.452,87.825c-.026.08-.018.053-.026.08Z"/>
    <path class="b" d="M47.678,19.785h0c.033-.006.066-.012.1-.02Z"/>
    <path class="b" d="M29.241,34.428c.015.069.009.045.015.069C29.25,34.473,29.246,34.45,29.241,34.428Z"/>
    <path class="b" d="M32.981,36.107l-.022.037Z"/>
    <path class="b" d="M79.107,33.187c0-.028,0-.055,0-.082C79.107,33.187,79.107,33.159,79.107,33.187Z"/>
    <path class="b" d="M77.437,57.494c.009-.03.017-.059.025-.088Z"/>
    <path class="b" d="M77.919,85.491c0,.022,0,.045-.006.067v.095A1.526,1.526,0,0,1,77.919,85.491Z"/>
    <path class="b" d="M77.218,62.8l-.01-.05C77.218,62.8,77.214,62.78,77.218,62.8Z"/>
    <path class="b" d="M28.623,38.929c.019.079.012.053.019.079C28.624,38.928,28.629,38.955,28.623,38.929Z"/>
    <path class="b" d="M28.651,39.042l-.009-.033Z"/>
    <path class="b" d="M27.3,50.3l-.076.065C27.252,50.347,27.277,50.325,27.3,50.3Z"/>
    <path class="b" d="M34.089,31.909l-.015.042Z"/>
    <path class="b" d="M77.161,51.392h0l-.007-.04Z"/>
    <path class="b" d="M33.124,35.4c-.005-.028-.01-.055-.016-.082C33.124,35.4,33.118,35.374,33.124,35.4Z"/>
    <path class="b" d="M30.824,63.782a.338.338,0,0,0-.032-.066C30.8,63.738,30.813,63.76,30.824,63.782Z"/>
    <path class="b" d="M78.222,81.065v-.057c0,.085-.006.109-.006.133C78.219,81.116,78.221,81.091,78.222,81.065Z"/>
    <path class="b" d="M78.2,81.709c0-.018,0-.035,0-.053v-.044l0-.024V81.54C78.2,81.675,78.2,81.68,78.2,81.709Z"/>
    <path class="b" d="M50.685,29.91l-.052.009Z"/>
    <path class="b" d="M32.723,38.607l-.008-.041C32.723,38.607,32.72,38.593,32.723,38.607Z"/>
    <path class="b" d="M43.67,34.191c-.129.062-.086.04-.129.062C43.582,34.235,43.627,34.213,43.67,34.191Z"/>
    <path class="b" d="M46.991,31.824,47,31.817h0Z"/>
    <path class="b" d="M47.043,31.8h.043l-.042,0Z"/>
    <path class="b" d="M40.456,35.89l-.052.047A.58.58,0,0,0,40.456,35.89Z"/>
    <polygon class="b" points="39.279 37.124 39.283 37.124 39.282 37.123 39.279 37.124"/>
    <path class="b" d="M48.088,25.847l-.075.071C48.039,25.9,48.064,25.872,48.088,25.847Z"/>
    <path class="b" d="M39.336,37.112l-.046.009A.331.331,0,0,0,39.336,37.112Z"/>
    <path class="b" d="M48.068,25.956c-.074.017-.05.01-.074.017Z"/>
    <path class="b" d="M36.79,34.378l-.023.04C36.775,34.405,36.783,34.392,36.79,34.378Z"/>
    <path class="b" d="M50.446,30.017c-.052.048-.035.031-.052.048Z"/>
    <path class="b" d="M47.126,31.757c-.056.013-.036.007-.056.013Z"/>
    <path class="b" d="M47.16,31.7a.431.431,0,0,0-.048.023Z"/>
    <path class="b" d="M47.905,29.876l-.094.048A1.043,1.043,0,0,0,47.905,29.876Z"/>
    <path class="b" d="M39.248,37.156c-.03.047-.021.031-.03.047Z"/>
    <path class="b" d="M69.3,22c.022.111.014.074.022.111C69.319,22.077,69.313,22.041,69.3,22Z"/>
    <path class="b" d="M68.992,22.3a.482.482,0,0,0,.054,0Z"/>
    <path class="b" d="M67.073,19.3l.036.024Z"/>
    <path class="b" d="M51.845,24.443c-.1.024-.068.014-.1.024Z"/>
    <path class="b" d="M58.249,16.469l-.025,0-.042.009-.041.013C58.229,16.471,58.224,16.476,58.249,16.469Z"/>
    <path class="b" d="M70.927,25.007l0-.08C70.927,25.007,70.927,24.98,70.927,25.007Z"/>
    <path class="b" d="M73.125,30.282c.014.063.009.042.014.063C73.135,30.324,73.13,30.3,73.125,30.282Z"/>
    <path class="b" d="M39.292,37.108l.041-.02Z"/>
    <path class="b" d="M50.821,25.124c-.154.144-.1.1-.154.144C50.721,25.219,50.771,25.174,50.821,25.124Z"/>
    <path class="b" d="M39.211,37.169c.012-.009.023-.02.035-.03A.447.447,0,0,0,39.211,37.169Z"/>
    <path class="b" d="M48.924,24.2l-.092,0C48.905,24.2,48.886,24.2,48.924,24.2Z"/>
    <path class="b" d="M38.284,39.489l-.018.047Z"/>
    <path class="b" d="M30.179,68.631c-.05.159-.034.1-.05.159C30.147,68.737,30.164,68.684,30.179,68.631Z"/>
    <path class="b" d="M34.725,29.041l-.042.037A.5.5,0,0,0,34.725,29.041Z"/>
    <path class="b" d="M34.6,29.135l-.046.027C34.571,29.154,34.587,29.145,34.6,29.135Z"/>
    <path class="b" d="M59.348,25.925l.041-.013Z"/>
    <path class="b" d="M36.039,28.5c-.029.046-.02.03-.029.046Z"/>
    <path class="b" d="M31.583,66.713a.348.348,0,0,0,0,.053Z"/>
    <path class="b" d="M60.3,26.277l.067-.012Z"/>
    <path class="b" d="M31.624,26.169l.105-.058C31.624,26.169,31.658,26.148,31.624,26.169Z"/>
    <path class="b" d="M71.273,73.977l0,.033Z"/>
    <path class="b" d="M34.451,23.534c.014-.024.028-.047.041-.071Z"/>
    <path class="b" d="M31.731,26.11l.1-.05Z"/>
    <path class="b" d="M70.687,75.758c0,.066,0,.044,0,.066C70.684,75.8,70.686,75.78,70.687,75.758Z"/>
    <path class="b" d="M47.654,21.329c.018-.016.035-.033.053-.048C47.654,21.329,47.671,21.309,47.654,21.329Z"/>
    <path class="b" d="M45.157,23.317l.1-.025h0A.726.726,0,0,0,45.157,23.317Z"/>
    <path class="b" d="M42.575,25.17c-.064.014-.042.008-.064.014Z"/>
    <path class="b" d="M42.877,25.049c-.054.027-.037.017-.054.027C42.84,25.066,42.858,25.058,42.877,25.049Z"/>
    <path class="b" d="M29.817,41.262c0-.022,0-.046,0-.069C29.817,41.262,29.817,41.239,29.817,41.262Z"/>
    <path class="b" d="M63.552,28.2c.038-.008.025-.006.038-.009Z"/>
    <path class="b" d="M49.453,19.569c-.05.011-.034,0-.05.012Z"/>
    <path class="b" d="M38.716,25.61h.021l-.02,0Z"/>
    <path class="b" d="M36.993,26.378l-.036.058C36.969,26.417,36.982,26.4,36.993,26.378Z"/>
    <path class="b" d="M40.841,24.49l-.082,0C40.828,24.491,40.805,24.49,40.841,24.49Z"/>
    <path class="b" d="M40.482,25.868l-.037.064A.723.723,0,0,0,40.482,25.868Z"/>
    <path class="b" d="M41.867,19.041A1.443,1.443,0,0,0,42.042,19C41.867,19.041,41.925,19.025,41.867,19.041Z"/>
    <path class="b" d="M74.229,86.814c.01.04.006.027.01.04Z"/>
    <path class="b" d="M74.1,80.881c-.005.074,0,.049-.005.074C74.1,80.931,74.1,80.906,74.1,80.881Z"/>
    <path class="b" d="M29.784,40.876c.018.083.011.056.018.083C29.8,40.931,29.791,40.9,29.784,40.876Z"/>
    <path class="b" d="M73.948,60.171l-.007.136C73.946,60.26,73.947,60.216,73.948,60.171Z"/>
    <path class="b" d="M74.358,57.824c.011-.036.022-.072.03-.108Z"/>
    <path class="b" d="M74.584,83.593l-.012-.06-.005-.017-.012-.059-.018-.067C74.578,83.558,74.574,83.549,74.584,83.593Z"/>
    <path class="b" d="M29.405,31.9l.009-.032Z"/>
    <path class="b" d="M74.1,80.738v0Z"/>
    <path class="b" d="M29.31,34.3l.027-.043Z"/>
    <path class="b" d="M73.578,38.546c1.78.953,1.616,6.735-.359,12.916,3.462-4.44,4.292-10.824-1.489-16.168.806,2.515-.591.843-2.342-1.847a28.773,28.773,0,0,0-4.126-2.31C67.875,33.584,69.175,37.838,73.578,38.546Z"/>
    <path class="b" d="M60.688,30.966a51.922,51.922,0,0,0-5.471,1.05c-.8.429-1.713.853-2.524,1.212a3.6,3.6,0,0,0-1.409,2.46C54.611,35.374,57.939,34.51,60.688,30.966Z"/>
    <path class="b" d="M82.156,87.382c0,2.18-.61,3.145-1.112,3.28A6.85,6.85,0,0,1,77.4,93.025a5.939,5.939,0,0,1-2.451-.15c3.366,4.179,6.915,3.832,9.2-7.932a6.481,6.481,0,0,1-.922-2.787C81.935,83.04,82.356,85.173,82.156,87.382Z"/>
    <path class="b" d="M69.224,80.682c-.508-.992.179-4.1-.035-6.983-1.516,7.143-.849,1.153-.459-2.353a4.424,4.424,0,0,0-2.381-2.713c.652-.215,1.831-2.727-.419-1.746-.563.361-.413.262-1.491.962a7.619,7.619,0,0,0-.754.791,10.273,10.273,0,0,0,2.256-1.718c-.565,2.8,2.7,15.088,6.8,22.548C72.307,86.8,72.371,83.2,69.224,80.682Zm-.563-4.575.006-.064A.331.331,0,0,1,68.661,76.107Z"/>
    <polygon class="b" points="64.435 67.852 64.439 67.849 64.439 67.849 64.435 67.852"/>
    <path class="b" d="M81.256,90.4l0-.057V90.4Z"/>
    <path class="b" d="M64.365,67.9l-.063.04Z"/>
    <path class="b" d="M61.779,30.73c-.071-.122-.136-.243-.215-.366h-.005s-.007,0-.01-.007c-.093-.076-.175-.147-.26-.219-.159.236-.32.463-.483.679-.01.044-.013.087-.021.13C61.138,30.881,61.471,30.81,61.779,30.73Zm-.3-.416a.453.453,0,0,1,.056.037A.453.453,0,0,0,61.484,30.314Z"/>
    <path class="b" d="M61.651,29.571c.314.327.6.641.842.941a3.567,3.567,0,0,0,.628-.3c.306.119.592.244.886.367a4.835,4.835,0,0,0-.747-.746,5.7,5.7,0,0,0-1.527-.395C61.706,29.487,61.678,29.527,61.651,29.571Z"/>
    <path class="b" d="M63.219,33.205a.3.3,0,0,1,0-.069v-.08C63.225,33.18,63.217,33.177,63.219,33.205Z"/>
    <path class="b" d="M60.785,30.947c-.422,2.375,1.364,4.842.475,10.506,0,0,0-.006-.02-.015a.538.538,0,0,1,.045.035.077.077,0,0,0-.019-.015,3.425,3.425,0,0,0,2.7.624c-1.44-4.984-.154-7.851-2.192-11.352C61.471,30.81,61.138,30.881,60.785,30.947Z"/>
    <path class="b" d="M62.493,30.512c.843,1.031,1.229,1.905.731,2.624,2.881,4.437.027,5.879,1.291,8.712h0c1.13-2.273,1.916-8.248-.508-11.263-.294-.123-.58-.248-.886-.367A3.567,3.567,0,0,1,62.493,30.512ZM64.8,33.741c-.029.005-.019.005-.029.005A.058.058,0,0,0,64.8,33.741Zm-.034.005h0Zm-.05,0c-.03,0-.02,0-.03,0A.063.063,0,0,0,64.715,33.746Z"/>
    <path class="b" d="M64.77,33.746c.01,0,0,0,.029-.005A.058.058,0,0,1,64.77,33.746Z"/>
    <path class="b" d="M64.3,42.036l-.008.008a1.2,1.2,0,0,0,.174-.148c-.068.06-.127.109-.17.141Z"/>
    <path class="b" d="M63.638,37.059c-.04.035-.025.02-.04.035A.25.25,0,0,1,63.638,37.059Z"/>
    <path class="b" d="M64.685,33.751c.01,0,0,0,.03,0A.063.063,0,0,1,64.685,33.751Z"/>
    <path class="b" d="M62.312,31.351c0,.085,0,.055,0,.085A.457.457,0,0,1,62.312,31.351Z"/>
    <path class="b" d="M61.733,29.443a5.7,5.7,0,0,1,1.527.395,4.582,4.582,0,0,0-1.586-.823c-.089.116-.156.228-.231.342.07.072.141.144.208.214C61.678,29.527,61.706,29.487,61.733,29.443Z"/>
    <path class="b" d="M61.1,29.973a3.948,3.948,0,0,0-.29.844c.163-.216.324-.443.483-.679C61.223,30.082,61.157,30.027,61.1,29.973Z"/>
    <path class="b" d="M61.924,41.968l.029.024A.135.135,0,0,0,61.924,41.968Z"/>
    <path class="b" d="M64.241,42.081l.029-.023,0,0A.218.218,0,0,0,64.241,42.081Z"/>
    <path class="b" d="M64.267,42.06l0,0,.018-.014h0Z"/>
    <polygon class="b" points="64.006 42.216 64.001 42.219 64.007 42.216 64.006 42.216"/>
    <polygon class="b" points="63.993 42.224 63.992 42.226 64.001 42.219 63.993 42.224"/>
    <path class="b" d="M65.594,42.419l0,.015H65.6Z"/>
    <path class="b" d="M63.539,43.4h0Z"/>
    <path class="b" d="M62.64,43.442h0c-.064,0-.129.01-.2.01h0C62.512,43.451,62.576,43.446,62.64,43.442Z"/>
    <path class="b" d="M62.344,43.455h0Z"/>
    <polygon class="b" points="62.694 43.441 62.687 43.441 62.691 43.441 62.694 43.441"/>
    <polygon class="b" points="62.729 43.439 62.724 43.439 62.724 43.439 62.729 43.439"/>
    <path class="b" d="M63.475,43.4h.03l.01,0A.136.136,0,0,1,63.475,43.4Z"/>
    <path class="b" d="M62.691,43.441h0Z"/>
    <path class="b" d="M62.625,43.445h0c.02,0,.035,0,.05,0h-.007Z"/>
    <path class="b" d="M62.71,43.439h0Z"/>
    <path class="b" d="M65.325,44.039c.03-.005.055-.005.085-.009h0c-.028,0-.052,0-.081.009A.519.519,0,0,0,65.909,44,4.67,4.67,0,0,0,65.325,44.039Z"/>
    <path class="b" d="M62.729,43.439l.043,0-.043,0h0l-.033,0h-.005c0,.1-.009.183-.013.254.483.386.4.438,2.421.349H65.06c.065,0,.13,0,.195,0h-.02c.01,0,.01,0,.049-.005h-.028c-1.2.064-.044-.729.273-.9a4.29,4.29,0,0,0-.579,0c-.493.019-.484.2-1.415.259h0a.165.165,0,0,0-.034.005c-.182.02-.282-.016-.788.037h.012Z"/>
    <path class="b" d="M62.691,43.44h-.019A.069.069,0,0,0,62.691,43.44Z"/>
    <path class="b" d="M64.933,44.127a.18.18,0,0,0,.055.01l-.08-.015C64.918,44.127,64.908,44.122,64.933,44.127Z"/>
    <polygon class="b" points="46.149 48.736 46.156 48.725 46.148 48.729 46.149 48.736"/>
    <path class="b" d="M44.769,49.474l.046-.075-.026.014C44.773,49.432,44.787,49.413,44.769,49.474Z"/>
    <path class="b" d="M50.688,52.27c.006.034,0,0,.02.109C50.7,52.332,50.705,52.359,50.688,52.27Z"/>
    <path class="b" d="M40.777,41.651l-.014,0,.115.007-.065,0a15.406,15.406,0,0,1,4.229.877l-.024-.009c.06.022.016.006.135.047l-.081-.026A5.473,5.473,0,0,1,47.2,44.128l-.013-.017c-.011-.012-.013-.017-.022-.027l.022.027c.01.013.027.033.066.075a.639.639,0,0,1-.044-.048,14.431,14.431,0,0,1,1.578,2.48c-.009-.015-.017-.036-.026-.051.021.034.034.068.054.1l-.028-.051A27.483,27.483,0,0,1,50.9,53.4c0-.013-.007-.025-.011-.037.265,1.011-.1,2.68.662,4.5,2.606,4.581,13.276-3.873,4.126.308a1.038,1.038,0,0,1,.1.071c-.047-.013-.1-.034-.149-.047l.053-.024c-.87-.615-3.443-.261-3.516-2.892,0-.019-.009-.048-.021-.1l.008.029c-.044-.252-.1-.5-.15-.747.007.041.014.082.02.129-.054-.328-.1-.651-.164-.978l0,.011-.02-.122c.007.037.012.074.018.111-.053-.379-.052-.158-.35-1.674.007.034.014.074.021.108a28.443,28.443,0,0,0-2.348-6.555l.01.027a7.583,7.583,0,0,0-7.391-4.621h0c-.193,0-.535-.081-1.115-.1-.211.3-.42.588-.627.869A2.891,2.891,0,0,0,40.777,41.651ZM58.812,57.479l-.024.039Zm-2.3.812-.056.008Zm-.113.018-.042.009Zm-2.146.49-.044.021Zm-.045.022h0l-.014.006Zm-3.5-6.442c-.02-.109-.014-.075-.02-.109C50.705,52.359,50.7,52.332,50.708,52.379Zm-.981-5.771-.019-.042Zm-.515.861L49.2,47.44Zm-7.137-5.7-.055,0Zm-.334-.876c-.021,0-.04,0-.058,0C41.7,40.884,41.72,40.886,41.741,40.888Z"/>
    <path class="b" d="M51.58,57.951l.021.043Z"/>
    <path class="b" d="M47.185,44.111l-.022-.027C47.172,44.094,47.174,44.1,47.185,44.111Z"/>
    <path class="b" d="M45.072,42.543l-.03-.012Z"/>
    <path class="b" d="M40.813,41.654l-.036,0Z"/>
    <path class="b" d="M52.162,55.315l-.007-.051v.01Z"/>
    <path class="b" d="M51.58,57.951c-.014-.031-.021-.062-.034-.093-.008-.015-.018-.026-.026-.04C51.54,57.863,51.56,57.909,51.58,57.951Z"/>
    <path class="b" d="M48.759,46.567c.009.015.017.036.026.051l.028.051C48.793,46.635,48.78,46.6,48.759,46.567Z"/>
    <path class="b" d="M41.8,40.891h0Z"/>
    <path class="b" d="M51.851,53.617l0-.011c-.006-.037-.011-.074-.018-.111Z"/>
    <path class="b" d="M55.768,58.237a1.038,1.038,0,0,0-.1-.071l-.053.024C55.667,58.2,55.721,58.224,55.768,58.237Z"/>
    <path class="b" d="M52.155,55.264l-.012-.062,0,.024Z"/>
    <path class="b" d="M39.938,40.8c-.182.022-.746.736.111.858.207-.281.416-.572.627-.869C40.462,40.786,40.221,40.786,39.938,40.8Z"/>
    <path class="b" d="M55.316,61.044l.063-.01a1.084,1.084,0,0,0-.129.027.272.272,0,0,1,.049-.013C40.008,60,64.307,70.857,63.286,58.512,61.232,59.389,59.706,58.849,55.316,61.044Zm-4.442,1.291v0Zm.569-.874h0Zm1.751.334c.014,0,.013,0,.072,0Z"/>
    <path class="b" d="M54.063,64.119l.064.02Z"/>
    <path class="b" d="M54.063,64.119l-.152-.048C53.975,64.094,53.939,64.081,54.063,64.119Z"/>
    <path class="b" d="M57.165,60l.041-.021Z"/>
    <path class="b" d="M91.069,87.827l.039-.04-.1-.061C91.027,87.76,91.049,87.793,91.069,87.827Z"/>
    <path class="b" d="M85.468,83.093a13.62,13.62,0,0,1-.8-1.157c-.035.23-.07.457-.105.679C84.873,82.774,85.177,82.934,85.468,83.093Z"/>
    <path class="b" d="M84.149,84.943a13.4,13.4,0,0,0,5.3,4.538q.829-.809,1.619-1.654c-.02-.034-.042-.067-.063-.1a19.162,19.162,0,0,1-5.538-4.633c-.291-.159-.595-.319-.908-.478Q84.362,83.847,84.149,84.943Zm3.871,1.421-.071-.065Z"/>
    <path class="b" d="M83.227,82.156a1.967,1.967,0,0,1,.166-.107c.407.188.792.377,1.167.566.035-.222.07-.449.105-.679a12.587,12.587,0,0,1-1.177-2.377A7.386,7.386,0,0,0,83.227,82.156Z"/>
    <path class="b" d="M83.393,82.049a1.967,1.967,0,0,0-.166.107,6.481,6.481,0,0,0,.922,2.787q.213-1.1.411-2.328C84.185,82.426,83.8,82.237,83.393,82.049Z"/>
    <path class="f" d="M46.507,16.873l0-.005,0-.019Z"/>
    <path class="f" d="M48.345,14.832c.009,0,.016-.005.024-.006l.026-.016Z"/>
    <path class="f" d="M50.032,14.478h0c.053,0,.092,0,.149,0Z"/>
    <path class="f" d="M29.616,69.745l-.008.01v0Z"/>
    <path class="f" d="M39.83,20.567c-.017.029-.034.056-.051.082Z"/>
    <path class="f" d="M43.44,17.659l-.139-.042C43.347,17.632,43.3,17.617,43.44,17.659Z"/>
    <path class="f" d="M33.1,92.779l-.014-.068C33.091,92.734,33.1,92.756,33.1,92.779Z"/>
    <path class="f" d="M39.753,20.692l-.014.007c-.008.02-.017.037-.024.057Z"/>
    <path class="f" d="M28.651,39.042l.007.031Z"/>
    <path class="f" d="M34.457,96.051c-.37-3.165,2.931-12.345-1.643-17.946.041.082.082.156.115.23-4.861-4.785,2.608-13.983-2.517-20.029-4.77-6.129-3.266-9.265.249-14.976-.209-5.528-1.467-9.429,1.071-15.193l-.031.015c3.9-2.105.235-3.618,8.038-7.453,1.264-3.327,5.739,1.28,6.771-3.831l0,.005.007-.024,0,.019c.356-.606.134-1.048,1.859-2.042-.008,0-.015,0-.024.006l.05-.022-.026.016a2.625,2.625,0,0,1,1.663-.347h.149c-.057,0-.1,0-.149,0,2.932,1.294,3.1-1.538-1.373-1.137-1.189-.811-2.779,3.414-5.219,4.317l.063.019c-1.528-.278-3.991-.459-5.882,3.366-12.267,2-8.291,21.348-12.691,32.688,3.638,6.937,7.079,8.285,4.678,16.023l.008-.01-.008.012v0c-3.6,4.175,1.735,8.327,3.7,12.943C34.571,86.45,29.274,92,34.457,96.051Zm-1.433-3.394a.8.8,0,0,1,.044.088A.8.8,0,0,0,33.024,92.657Zm.061.054.014.068C33.1,92.756,33.091,92.734,33.085,92.711Zm1.252-4.16c-.061.2-.04.135-.061.2C34.3,88.688,34.316,88.621,34.337,88.551ZM31.583,66.713l0,.053A.348.348,0,0,1,31.583,66.713Zm-.054-5.338-.038-.073ZM42.042,19a1.443,1.443,0,0,1-.175.044C41.925,19.025,41.867,19.041,42.042,19Zm-7.55,4.466c-.013.024-.027.047-.041.071Zm-2.659,2.6-.1.05Zm-.1.051-.105.058C31.658,26.148,31.624,26.169,31.729,26.111ZM29.822,41.193c0,.023,0,.047,0,.069C29.817,41.239,29.817,41.262,29.822,41.193Zm-.02-.234c-.007-.027,0,0-.018-.083C29.791,40.9,29.8,40.931,29.8,40.959Zm-.387-9.1h0Zm0,0-.009.032Zm-.077,2.386-.027.043Zm-.081.244c-.006-.024,0,0-.015-.069C29.246,34.45,29.25,34.473,29.256,34.5Zm-.413,8.564L28.8,42.99Zm-.182-3.978,0-.008Zm0-.01-.007-.031-.009-.033.009.033Zm-.016-.065c-.007-.026,0,0-.019-.079C28.629,38.955,28.624,38.928,28.642,39.008Zm-1.416,11.36L27.3,50.3C27.277,50.325,27.252,50.347,27.226,50.368Zm2.658,25.849c.023.024.047.049.069.075C29.931,76.266,29.907,76.241,29.884,76.217Zm.27-7.788-.039-.045Zm-.025.361c.016-.055,0,0,.05-.159C30.164,68.684,30.147,68.737,30.129,68.79Zm.636-4.783c.012-.036.022-.071.031-.106Zm.027-.291a.338.338,0,0,1,.032.066C30.813,63.76,30.8,63.738,30.792,63.716Zm.047.2V63.88C30.842,63.893,30.84,63.88,30.839,63.919Z"/>
    <path class="f" d="M30.379,37.988c.02.087.013.058.02.087C30.393,38.046,30.386,38.017,30.379,37.988Z"/>
    <path class="f" d="M35.116,82.513l.012.064C35.116,82.513,35.121,82.535,35.116,82.513Z"/>
    <path class="f" d="M30.8,63.9c-.009.035-.019.07-.031.106Z"/>
    <path class="f" d="M34.276,88.753c.021-.067,0,0,.061-.2C34.316,88.621,34.3,88.688,34.276,88.753Z"/>
    <path class="f" d="M37.86,81.948l.049.031-.022-.012c1.505,2.484-1.414,11.863.523,14.087.694-15.516.5-31.21-8.093-43.5C36.078,61.474,32.533,72.37,37.86,81.948Zm-1.8-15.191c0-.022,0,0-.013-.066Zm-.041-.142-.033-.061Zm-.435,1.544c0-.024,0,0-.011-.069C35.58,68.114,35.583,68.136,35.586,68.159Zm0,.021c-.012-.031-.027-.06-.042-.09C35.556,68.12,35.571,68.149,35.583,68.18Zm-.049,4.706-.04-.046ZM35.3,73.9c0-.009,0,0,0-.008S35.3,73.887,35.3,73.9Zm-.019.095-.006,0Zm-.009.04-.017.073C35.261,74.081,35.257,74.1,35.274,74.031Zm-.626-13-.026-.049Zm-1.065-2.641c.008.017.016.033.023.05C33.6,58.426,33.591,58.41,33.583,58.393Z"/>
    <path class="f" d="M38.657,93.668l0,.042Z"/>
    <path class="f" d="M38.888,89.789l-.039.119C38.864,89.868,38.876,89.828,38.888,89.789Z"/>
    <path class="f" d="M30.317,52.553a19.194,19.194,0,0,0-1.182-1.64C29.554,51.45,29.932,52,30.317,52.553Z"/>
    <path class="f" d="M37.781,91.342c-.013-.027-.026-.054-.041-.081Z"/>
    <path class="f" d="M38.2,83.616c-.043.136-.029.089-.043.136C38.172,83.707,38.187,83.662,38.2,83.616Z"/>
    <path class="f" d="M37.774,81.891a.688.688,0,0,0,.088.061l0,0C37.793,81.905,37.8,81.908,37.774,81.891Z"/>
    <path class="f" d="M37.2,57.749c2.746,5.976,1.194,18.969,6.35,26.085l.063.069-.029-.03c-.469,1.5-1.7,3.593-1.6,7.6.014-.009.029-.027.043-.031-.015.02-.031.04-.043.057v-.026c-.645.389-1.6,5.125-.056,2.646,4.374-10.429-.518-21.764-3.5-35.08C38.254,58.823,38.481,57.805,37.2,57.749Zm5.529,31.979c.006.021,0,0,.017.064C42.736,89.771,42.742,89.792,42.725,89.728Zm.018.067ZM43.4,87.97c.012.024.024.049.038.073C43.419,88.019,43.407,87.994,43.4,87.97ZM38.407,61.043c.007.031.012.062.016.092C38.417,61.1,38.423,61.135,38.407,61.043Zm2.341,15.351c0-.033,0,0,.005-.1C40.753,76.33,40.751,76.362,40.748,76.394Zm2.367,5.128-.02-.042ZM40.8,71.543c-.01-.022-.021-.045-.033-.067C40.774,71.5,40.785,71.521,40.8,71.543Zm-.041,4.694c0,.016,0,0-.013.042Zm-.017-4.829c-.009-.031,0,0-.023-.095C40.72,71.343,40.729,71.375,40.737,71.408Zm-.014,4.735-.036-.074Zm-.436-1.867-.03.046Zm-.043.066-.051.09C40.208,74.4,40.193,74.432,40.244,74.342Zm-.6-4.66-.016.047C39.634,69.713,39.629,69.729,39.645,69.682Zm-.2-4.452c0,.03,0,.059,0,.089C39.448,65.288,39.448,65.319,39.449,65.23Zm-1.022-3.943c0-.023,0,0,0-.067C38.429,61.242,38.429,61.264,38.427,61.287Z"/>
    <path class="f" d="M42.022,91.443c-.014,0-.029.022-.043.031V91.5C41.991,91.483,42.007,91.463,42.022,91.443Z"/>
    <path class="f" d="M38.4,58.932c.008.037.017.072.025.108.015.019.027.043.049.048C38.454,59.041,38.427,58.987,38.4,58.932Z"/>
    <path class="f" d="M43.46,83.741c.03.033.059.067.09.1l0-.007C43.5,83.784,43.482,83.763,43.46,83.741Z"/>
    <path class="f" d="M43.58,83.873l-.03-.032Z"/>
    <path class="f" d="M41.925,94.118l0,0-.006.018Z"/>
    <path class="f" d="M41.147,93.719c-.017.054-.012.036-.017.054Z"/>
    <path class="f" d="M43.784,84.079c-.009-.029-.009-.018-.013-.027Z"/>
    <path class="f" d="M48.86,83.168l-.044.143C48.834,83.262,48.847,83.213,48.86,83.168Z"/>
    <path class="f" d="M48.063,88.851l-.012.042Z"/>
    <path class="f" d="M47.944,82l.012-.035Z"/>
    <path class="f" d="M48.762,86.857c-.006.023-.012.047-.019.071Z"/>
    <path class="f" d="M48.044,85.267c.023-.039.03-.051.042-.069v0Z"/>
    <path class="f" d="M48.105,85.166l.027-.041Z"/>
    <path class="f" d="M48.325,84.659c0-.025,0,0,0-.076C48.329,84.609,48.327,84.634,48.325,84.659Z"/>
    <path class="f" d="M44.357,67.244c.007-.034.006-.088.01-.131l-.01-.018Z"/>
    <path class="f" d="M44.357,67.244V67.1l.01.018a4.738,4.738,0,0,0-1.525-3.576c.322,1.991.261,7.047,2.963,11.656.031-.085.058-.172-.155.494l.012-.033c-.825,2.047,2.35,2.773,2.294,6.306l.007-.022c-.022.069,0,.012-.047.156.009-.035.017-.067.028-.1-.378.309.322,1.05.143,3.2l.018-.028.027-.041-.027.041-.019.032c1.076,13.813,1.2-9.478-3.719-18.085C44.363,67.156,44.364,67.21,44.357,67.244Zm-1.069-1.2a.73.73,0,0,1,.061.043A.73.73,0,0,0,43.288,66.047Zm.085.057.031.017Zm.024-.071.009.048C43.4,66.065,43.406,66.081,43.4,66.033Zm.021.127c0-.011,0-.007,0-.011S43.418,66.149,43.418,66.16Zm0-.023c0-.019,0,0,0-.05C43.423,66.1,43.421,66.12,43.42,66.137Zm.139-1.43a.563.563,0,0,1,.014.059Zm4.77,19.876c0,.076,0,.051,0,.076C48.327,84.634,48.329,84.609,48.329,84.583Zm-.042.24c0,.006,0,0-.006.017C48.287,84.823,48.288,84.829,48.287,84.823Zm-1.208-6.384-.009-.053Zm.01.08-.026-.018Zm-.059-1.465c-.017-.022-.034-.042-.052-.063C47,77.012,47.013,77.032,47.03,77.054Zm-.812-3.173c-.01-.022-.019-.042-.029-.062C46.2,73.839,46.208,73.859,46.218,73.881ZM44.64,70.166c0-.032,0,0,0-.094C44.641,70.105,44.641,70.135,44.64,70.166Z"/>
    <path class="f" d="M48.694,87.323l-.013-.071Z"/>
    <path class="f" d="M51.214,77.575l0-.017a.294.294,0,0,0-.01-.034l.006.035a.029.029,0,0,1,.005.014Z"/>
    <path class="f" d="M51.222,77.62c0,.015.006.03.007.045A.2.2,0,0,1,51.222,77.62Z"/>
    <path class="f" d="M53.107,84.118c0,.019,0,.026,0,.041,0-.014,0-.028,0-.041v-.037C53.042,79.9,51.208,73.8,49,68.214a.933.933,0,0,1-.071.155l.061-.182.01.027c.181-.483.323-1.629-.8-1.414-2.188,2.758,2.535,6.731,3.014,10.758a.278.278,0,0,0,.024.059l-.022-.042c0,.015.006.03.008.045a.2.2,0,0,0,.007.045c0-.015-.006-.03-.007-.045l-.007-.019a7.649,7.649,0,0,0,.775,3.964l.01.006-.01-.006c.031.058.051.113.085.172-.005-.032-.013-.068-.019-.1a2.69,2.69,0,0,1,.048.679c0-.017,0-.036.005-.055a1.375,1.375,0,0,0-.007.156v-.068c-.973,3.934,3.549,10.835,1,1.749ZM49.071,71.8l.009.047C49.073,71.827,49.08,71.846,49.071,71.8Zm.009.056c.005.013,0,0,.008.034Zm.01.044a.581.581,0,0,1,.015.063Zm1.618,2.4c.012.012.022.024.033.037C50.73,74.326,50.72,74.314,50.708,74.3Zm.109.108c.018.01.036.022.054.034C50.853,74.432,50.835,74.42,50.817,74.41Zm.424,3.116.035.01Zm.81,4.079,0-.016Zm0,0h0Zm0,.007c0,.006,0,0,.005.016C52.053,81.614,52.056,81.619,52.052,81.613Zm.2-2.242,0-.033Zm.043.878.038.039Zm.338,5.575a.613.613,0,0,1,.074.079A.613.613,0,0,0,52.636,85.824Zm.193.35.01.035Zm.975,1.734-.013-.026Zm-.018-.034c-.011-.028-.01-.019-.013-.028C53.776,87.855,53.775,87.846,53.786,87.874Z"/>
    <path class="f" d="M52.257,79.338l0,.033Z"/>
    <path class="f" d="M51.276,77.536l-.035-.01Z"/>
    <path class="f" d="M51.21,77.566l0-.007-.019-.032a.26.26,0,0,1,.026.074.246.246,0,0,0,0-.028Z"/>
    <path class="f" d="M53.11,84c0,.044,0,.057,0,.077v.013C53.11,84.064,53.11,84.035,53.11,84Z"/>
    <polygon class="f" points="53.108 84.095 53.108 84.094 53.108 84.094 53.108 84.095"/>
    <path class="f" d="M52.1,82.346v0Z"/>
    <path class="f" d="M53.107,84.118c0,.013,0,.027,0,.041C53.1,84.144,53.105,84.137,53.107,84.118Z"/>
    <path class="f" d="M48.929,68.369A.933.933,0,0,0,49,68.214l-.01-.027Z"/>
    <path class="f" d="M55.135,87.881c.01-.036.013-.044.018-.064v0Z"/>
    <path class="f" d="M54.862,84.924a.7.7,0,0,1,.052.058.7.7,0,0,0-.052-.058,21.092,21.092,0,0,1,.3,2.856c.006-.02.013-.041.02-.061-.005.022-.013.043-.029.1.654,2.559,2.125-1.92-.115-4.254,0,.015,0,.029,0,.043,0-.02,0-.031.005-.1a35.682,35.682,0,0,0-2.136-12.5C51.964,74.742,54.055,80.03,54.862,84.924Zm.422,2.294v0ZM55.3,87c-.008-.035,0,0-.024-.1C55.281,86.935,55.29,86.968,55.3,87Zm-.347-1.98c-.01-.024-.02-.047-.031-.07C54.93,84.975,54.94,85,54.95,85.022Zm-1.443-8.058-.043-.049Z"/>
    <path class="f" d="M55.038,83.563l0-.04,0,.02Z"/>
    <path class="f" d="M54.31,82.178c-.007.093-.007.062-.007.093Z"/>
    <path class="f" d="M55.04,83.484v0Z"/>
    <path class="f" d="M47.651,19.791l.027,0h0Z"/>
    <path class="f" d="M52.9,18.25c-.054-.02-.108-.034-.162-.054l.028.012C52.807,18.221,52.851,18.235,52.9,18.25Z"/>
    <path class="f" d="M47.741,19.7l-.036.032Z"/>
    <path class="f" d="M32.254,43.061l-.032.018Z"/>
    <path class="f" d="M34.7,28.716c0,.061,0,.041,0,.061C34.7,28.757,34.7,28.736,34.7,28.716Z"/>
    <path class="f" d="M32.7,42.754l-.045.039Z"/>
    <path class="f" d="M47.6,19.817l-.106.057A.721.721,0,0,0,47.6,19.817Z"/>
    <path class="f" d="M38.693,25.607q-.067-.014-.138-.021l-.021.011C38.587,25.6,38.64,25.6,38.693,25.607Z"/>
    <path class="f" d="M34.062,31.835c0,.028,0,.057,0,.086C34.06,31.893,34.058,31.921,34.062,31.835Z"/>
    <path class="f" d="M34.037,31.9l-.009-.037Z"/>
    <path class="f" d="M47.678,19.785l.1-.019c-.031.008-.064.014-.1.02-2.51,1.518-5.246,3.83-9.123,5.8q.07.008.138.021c-.053,0-.106,0-.159-.01l.021-.011c-.379-.041-.858.116-2.369,1.351h0c-2.777,2.346-3.821,7.985-3.621,14.762-.021-.033-.034-.067-.055-.1a1.841,1.841,0,0,1,.217,1.049c.007-.02.02-.037.025-.057a.721.721,0,0,1-.025.07s0-.008,0-.013a.519.519,0,0,1-.047.108,1.116,1.116,0,0,1,.067-.095c-1.4,4.277,2.2-4.606,1.229-8.4,0,.015,0,.031,0,.045a1.392,1.392,0,0,0,.006-.156c0,.038,0,.075,0,.111,1.266-8.683,9.061-6.547,15.393-14.558.53,1.389,7.014-1.468,2.2-1.485A10.516,10.516,0,0,0,47.678,19.785ZM32.715,38.566l.008.041C32.72,38.593,32.723,38.607,32.715,38.566Zm.244-2.422.022-.037Zm.085,4.564c0-.017,0,0,0-.051A.463.463,0,0,1,33.044,40.708Zm.01.092h0Zm.054-5.481c.006.027.011.054.016.082C33.118,35.374,33.124,35.4,33.108,35.319Zm.911-1.414,0-.007Zm.009-2.043.009.037Zm.03.059c0-.029,0-.058,0-.086C34.058,31.921,34.06,31.893,34.058,31.921Zm.016.03.015-.042Zm.482-2.789.046-.027C34.587,29.145,34.571,29.154,34.556,29.162Zm.127-.084.042-.037A.5.5,0,0,1,34.683,29.078Zm.245,1.469h0Zm1.082-2c.009-.016,0,0,.029-.046Zm.947-2.111.036-.058C36.982,26.4,36.969,26.417,36.957,26.436Zm1.759-.826h0l.02,0Zm1.729.322.037-.064A.723.723,0,0,1,40.445,25.932Zm.314-1.444.082,0C40.805,24.49,40.828,24.491,40.759,24.488Zm1.752.7c.022-.006,0,0,.064-.014Zm.312-.108c.017-.01,0,0,.054-.027C42.858,25.058,42.84,25.066,42.823,25.076Zm2.334-1.759a.726.726,0,0,1,.1-.025h0Zm2.5-1.988c.017-.02,0,0,.053-.048C47.689,21.3,47.672,21.313,47.654,21.329ZM49.4,19.582c.006,0,0,0,0,0S49.4,19.582,49.4,19.582Zm.006,0c.016-.011,0,0,.05-.012Zm.061-.145.022-.036Zm1.2-.721.082-.039Zm1.524.651a.332.332,0,0,1-.07,0Zm-.074,0,.005,0h-.005Z"/>
    <path class="f" d="M32.754,42.589c0,.02-.018.037-.025.057,0,.005,0,.008,0,.013A.721.721,0,0,0,32.754,42.589Z"/>
    <path class="f" d="M35.626,40.328a.783.783,0,0,0-.02.078C35.613,40.38,35.619,40.354,35.626,40.328Z"/>
    <path class="f" d="M50.693,22.972c-4.187,2.4-15.385,7.108-14.884,15.986v-.114c.859,4.32-2.2-4.286,12.1-12.82C49.276,26.939,58.276,21.927,50.693,22.972ZM36.767,34.418l.023-.04C36.783,34.392,36.775,34.405,36.767,34.418Zm6.457-5.325.068,0Zm4.77-3.12c.024-.007,0,0,.074-.017Zm.019-.055.075-.071C48.064,25.872,48.039,25.9,48.013,25.918Zm.819-1.721.092,0C48.886,24.2,48.905,24.2,48.832,24.2Zm.206-.043.092-.045Zm1.629,1.114c.051-.049,0,0,.154-.144C50.771,25.174,50.721,25.219,50.667,25.268Zm1.074-.8c.036-.01,0,0,.1-.024Z"/>
    <path class="f" d="M49.13,24.109l-.092.045Z"/>
    <path class="f" d="M53.175,26.94C49.709,28.91,40,32.423,38.291,39.354v-.108c-1.4,2.62,2.366-3.061,8.739-7.422C47.79,32.055,56.215,28.865,53.175,26.94Zm-14.909,12.6.018-.047Zm1.067-2.448-.041.02Zm-.087.051c-.012.01-.023.021-.035.03A.447.447,0,0,1,39.246,37.139Zm-.028.064c.009-.016,0,0,.03-.047Zm.061-.079h0Zm.011,0,.046-.009.024,0-.024,0A.331.331,0,0,1,39.29,37.121Zm.777-1.095a.962.962,0,0,1,.118.006A.962.962,0,0,0,40.067,36.026Zm.337-.089.052-.047A.58.58,0,0,1,40.4,35.937Zm2.251-.854.027-.045Zm.886-.83c.043-.022,0,0,.129-.062C43.627,34.213,43.582,34.235,43.541,34.253Zm3.45-2.429L47,31.817h0Zm.021-.021,0,0Zm.028-.026h0Zm0,.026h0l.042,0Zm.027-.033c.02-.006,0,0,.056-.013Zm.042-.044a.431.431,0,0,1,.048-.023Zm.7-1.8.094-.048A1.043,1.043,0,0,1,47.811,29.924Zm2.583.141c.017-.017,0,0,.052-.048Zm.239-.146.052-.009Z"/>
    <path class="f" d="M42.682,35.038l-.027.045Z"/>
    <path class="f" d="M39.336,37.112l.024,0Z"/>
    <path class="f" d="M56.417,29.7c-.266.927-10.4,4.189-6.023,4.5-.111.037.96-.379,2.3-.971a7.574,7.574,0,0,1,2.524-1.212C57.141,30.992,58.466,29.943,56.417,29.7Zm-.149,1.555-.054.049Zm-5.4,2.112.028-.01Zm1.006-.63.049-.04Zm2.167-.784c-.036,0-.072,0-.108,0A.973.973,0,0,1,54.042,31.954Z"/>
    <path class="f" d="M52.693,33.228c.811-.359,1.719-.783,2.524-1.212A7.574,7.574,0,0,0,52.693,33.228Z"/>
    <path class="f" d="M77.091,31.009c-.016-.031-.033-.062-.05-.093C77.057,30.947,77.041,30.916,77.091,31.009Z"/>
    <path class="f" d="M79.729,36.305c.017-.016.026-.033.042-.05,0-.04,0-.078.006-.119C79.763,36.2,79.743,36.251,79.729,36.305Z"/>
    <path class="f" d="M77.144,22.591v-.066C77.145,22.547,77.145,22.569,77.144,22.591Z"/>
    <path class="f" d="M72.511,17.593v0h0c6.981,8.091,3.572,21.162,9.645,29.7.776.2,2.059,3.026,2.258,1.186C81.839,45.125,79.341,42,79.771,36.255c-.016.017-.025.034-.042.05.014-.054.034-.108.048-.169,0,.041,0,.079-.006.119,2.089-2.179-1.617-5.059-.841-8-.018.059-.035.119-.053.177-.676-5.66-5.589-16.742-13.611-18.016C49.035,14.931,62.749,8.313,72.511,17.593Zm8.8,27.832-.029-.032Zm-.038-.043L81.2,45.3Zm-1.3-3.921-.038-.066ZM79.11,33.1c0,.027,0,.054,0,.082C79.107,33.159,79.107,33.187,79.11,33.1Zm-.022-.122a.592.592,0,0,0-.042-.047A.592.592,0,0,1,79.088,32.983ZM77.145,22.525v.066C77.145,22.569,77.145,22.547,77.145,22.525ZM72.422,17.5l-.06-.066Zm-4.811-4.723-.054-.033Z"/>
    <polygon class="f" points="72.51 17.591 72.511 17.593 72.511 17.593 72.51 17.591"/>
    <path class="f" d="M84.425,48.4c0,.029-.008.047-.011.074l.031.041C84.438,48.483,84.431,48.442,84.425,48.4Z"/>
    <path class="f" d="M77.041,30.916,77,30.832C77.01,30.86,77,30.832,77.041,30.916Z"/>
    <path class="f" d="M82.2,47.353l-.043-.063a.324.324,0,0,0-.1-.018Z"/>
    <path class="f" d="M81.458,87.732l.011-.039C81.465,87.706,81.469,87.693,81.458,87.732Z"/>
    <path class="f" d="M81.835,79.865l.015-.025h0Z"/>
    <path class="f" d="M85.348,72.894c0-.021,0-.027-.026-.128C85.329,72.808,85.322,72.766,85.348,72.894Z"/>
    <path class="f" d="M80.96,84.3a.4.4,0,0,0,0,.069c.007.013.012.026.019.039C80.973,84.374,80.967,84.34,80.96,84.3Z"/>
    <path class="f" d="M82.77,78.781l.037-.036Z"/>
    <path class="f" d="M79.349,47.209c-.019-.023-.039-.046-.06-.067l.041.047Z"/>
    <path class="f" d="M82.036,85.463v.012c.006.032.011.062.019.1C82.049,85.538,82.042,85.5,82.036,85.463Z"/>
    <path class="f" d="M81.63,51.8a.181.181,0,0,0,0,.081l.028.048C81.65,51.887,81.636,51.84,81.63,51.8Z"/>
    <path class="f" d="M81.345,81.9c0-.009,0-.02.007-.029,0-.033-.008-.066-.007-.1Z"/>
    <path class="f" d="M77.5,43.079a.152.152,0,0,1,0-.032c0-.027,0-.048,0-.076Z"/>
    <path class="f" d="M78.281,45.805c-.009-.03-.025-.062-.037-.093s-.022-.031-.031-.049C78.233,45.711,78.26,45.758,78.281,45.805Z"/>
    <path class="f" d="M81.258,90.341v-.022a.1.1,0,0,1,0-.025v.053a6.6,6.6,0,0,0,.9-2.965,14.713,14.713,0,0,0-.119-1.907,13.711,13.711,0,0,0-.539-2.464l0,.01a5.585,5.585,0,0,1-.149-1.152c0,.009,0,.02-.007.029V81.77c0,.033.007.066.007.1a4.451,4.451,0,0,1,.5-2.028l.038-.06c-.012.021-.025.04-.037.059a4.851,4.851,0,0,1,.88-1.02c-.013.013-.026.026-.038.04,10.7-5.946-.613-7.8-2.512-19.359-.849-3.324,6.138-8.075-.831-12.292l.021.024c-.024-.026-.017-.022-.108-.115l.027.024a7.547,7.547,0,0,1-1.045-1.43c.012.031.028.063.037.093-.021-.047-.048-.094-.068-.142.009.018.022.032.031.049a5.247,5.247,0,0,1-.737-2.665.152.152,0,0,0,0,.032v-.108c0,.028,0,.049,0,.076.049-.291.942-2.234-.4-1.456-2.308,3.537,2.453,6.368,4.519,10.289a.181.181,0,0,1,0-.081c.006.041.02.088.027.129l-.028-.048a1.378,1.378,0,0,1-.175,1.333l.016-.022c-.3.483-.576.98-.876,1.463l.007-.013c-1.391,1.864-2.083,4.2-.227,7.386,0-.015,0-.031,0-.046a1.471,1.471,0,0,0-.007.149c0-.03,0-.057,0-.084a11.9,11.9,0,0,1-.57,1.778c.006-.025.013-.051.02-.076-1.72,4.3,3.68,4.807,5.5,9.031-.02-.089-.04-.17-.054-.251.018.081.035.16.053.238l-.005-.028c.022.106.009.045.054.25-.008-.03-.016-.062-.023-.094.92,4.143-7.713,5.282-4.387,11.475a.4.4,0,0,1,0-.069c.007.04.013.074.02.108-.007-.013-.012-.026-.019-.039a15.343,15.343,0,0,1,.508,3.324c.006-.018.012-.035.019-.051-.006.02-.009.019-.034.108l0-.018c-1.554,1.813-1.091,3.112-.414,2.93.076-.1.147-.208.213-.313Zm-3.69-46.46,0,.022Zm2.986,5.864.081.086Zm.452.663.028.052Zm-.79,10.764.022.048Zm.115.241.007.042Zm-.054,1.123c0-.017,0,0,.014-.051Zm.926,2.889.027.135Zm.3.974c.012.021.023.044.035.066C81.531,66.443,81.52,66.42,81.508,66.4Zm.812,1.021c.048.027.1.058.149.09C82.42,67.478,82.368,67.447,82.32,67.42Zm3.173,6.735v0Zm-.435,1.051c-.026.044-.053.087-.08.13C85,75.293,84.978,75.336,85.058,75.206Zm-.885.955-.048.042Zm-.058.051-.084.078C84.059,76.262,84.031,76.29,84.115,76.212Zm-1.308,2.533-.037.036Zm-1.265,1.692-.016.054Zm-.512,8.316a.762.762,0,0,1,.045-.069Z"/>
    <path class="f" d="M81.258,90.319v-.025A.1.1,0,0,0,81.258,90.319Z"/>
    <path class="f" d="M82.156,87.382a6.6,6.6,0,0,1-.9,2.965l0,.057v-.055c-.066.1-.137.21-.213.313C81.546,90.527,82.152,89.562,82.156,87.382Z"/>
    <path class="f" d="M81.256,90.4v0Z"/>
    <path class="f" d="M78.2,81.656c0-.023,0-.045,0-.068l0,.024Z"/>
    <path class="f" d="M78.222,81.065v0Z"/>
    <path class="f" d="M78.834,69.134a.688.688,0,0,0-.043-.07l-.033-.019Z"/>
    <path class="f" d="M78.223,80.972v0Z"/>
    <path class="f" d="M77.783,86.654a.373.373,0,0,0-.026.03c-.011.044-.015.09-.028.133C77.75,86.763,77.763,86.709,77.783,86.654Z"/>
    <path class="f" d="M78.717,88.359l0,.009,0,.012Z"/>
    <path class="f" d="M78.683,88.465c-.006.022-.013.043-.02.063Z"/>
    <path class="f" d="M77.166,51.42l0-.027h0Z"/>
    <path class="f" d="M77.912,85.59v0Z"/>
    <path class="f" d="M77.817,67.475c-.006-.038-.008-.078-.014-.116l-.013-.033C77.8,67.374,77.81,67.428,77.817,67.475Z"/>
    <path class="f" d="M77.722,66.548v0Z"/>
    <path class="f" d="M77.161,51.392l-.007-.039.007.04A4.539,4.539,0,0,1,77.317,53v-.122c-1.537,6.095-2.235,14.372,3.038,20.1-1.846,3.646-5.127,6.925-2.442,12.572,0-.022,0-.045.006-.067a1.526,1.526,0,0,0-.007.162V85.59a5.946,5.946,0,0,1-.155,1.094.373.373,0,0,1,.026-.03c-.02.055-.033.109-.054.163.013-.043.017-.089.028-.133-.776.69-.142,4.331.956,1.684.115-.389.182-.786.3-1.172-.02.054-.034.108-.054.162.644-1.431-.171-3.154-.753-5.7,0,.018,0,.035,0,.053,0-.029,0-.034.007-.169v.048c.009-.173.017-.346.019-.523,0,.026,0,.051-.006.076,0-.024,0-.048.006-.133-1.294-3.7,8.2-7.672.569-11.944a.688.688,0,0,1,.043.07l-.076-.089.033.019a4.045,4.045,0,0,1-.988-1.7c.006.038.008.078.014.116-.007-.047-.02-.1-.027-.149l.013.033c-.926-5.936,2.567-13.754-1.9-19.388C75.243,48.981,76.66,49.638,77.161,51.392Zm.047,11.354.01.05C77.214,62.78,77.218,62.8,77.208,62.746Zm.218,25.159c.008-.027,0,0,.026-.08Zm1.1-9.32.022-.076C78.542,78.534,78.534,78.56,78.526,78.585Zm1.162-4c.033-.053,0,0,.1-.15C79.754,74.48,79.721,74.53,79.688,74.58Zm.592-1.1c0-.021,0,0,.016-.063C80.291,73.434,80.285,73.455,80.28,73.476Zm-2.818-16.07c-.008.029-.016.058-.025.088Z"/>
    <path class="f" d="M74.562,76.138c-.052.088-.036.058-.052.088Z"/>
    <path class="f" d="M75.375,89.078v0Z"/>
    <path class="f" d="M75.382,88.647v.021c0,.036,0,.069,0,.108Z"/>
    <path class="f" d="M74.986,55.749c.115-.4.785-2.742-.781-1.666-1.948,3.443-1.794,7.146-.792,12.04l.012-.027-.011.029v0c-1.869,3.744,4.839,7.17.055,11.666.04-.061.074-.122.115-.176-2.312-.518.968,15.779,1.784,11.642,0-.059.007-.118.008-.177q0,.031-.006.063c.006-.155.012-.317.013-.473a8.683,8.683,0,0,0-.3-3.343l.04.163c-.087-.351-.077-.378-.553-1.955l.012.06c-.01-.044-.006-.035-.047-.2l.018.067c-.062-.285-.121-.571-.19-.857.008.042.017.087.024.127-.009-.048-.019-.1-.028-.148l0,.021a5.183,5.183,0,0,1,.963-4.818c-.034.061-.074.122-.108.183C79.3,72.165,71.729,63.745,74.986,55.749Zm-.6,1.967c-.008.036-.019.072-.03.108Zm-.447,2.591.007-.136C73.947,60.216,73.946,60.26,73.941,60.307Zm.3,26.547c0-.013,0,0-.01-.04Zm-.142-5.9c0-.025,0,0,.005-.074C74.1,80.906,74.1,80.931,74.1,80.955ZM74.1,80.8v0Z"/>
    <path class="f" d="M75.369,89.249l0,.006c0,.018,0,.036,0,.054A.566.566,0,0,0,75.369,89.249Z"/>
    <path class="f" d="M73.425,66.1l-.012.027v0Z"/>
    <path class="f" d="M74.572,83.533c-.006-.025-.011-.05-.017-.076l.012.059Z"/>
    <path class="f" d="M75.017,55.666c-.011.028-.02.055-.031.083s-.017.057-.017.06C74.983,55.761,75,55.714,75.017,55.666Z"/>
    <path class="f" d="M74.389,82.727c-.007-.04-.016-.085-.024-.127l0-.021C74.37,82.631,74.38,82.679,74.389,82.727Z"/>
    <path class="f" d="M70.4,65.451v0Z"/>
    <path class="f" d="M71.195,69.71l-.009.016c.008.031.022.06.029.092C71.208,69.784,71.2,69.744,71.195,69.71Z"/>
    <path class="f" d="M71.77,76.015c-.008.031-.014.056-.022.086.009.019.013.037.022.056Z"/>
    <path class="f" d="M70.687,66.9a.369.369,0,0,0-.01-.039L70.64,66.8C70.654,66.835,70.674,66.869,70.687,66.9Z"/>
    <path class="f" d="M71.54,68.323c.02.034.034.061.054.1-.161-.306-.157-.267-.917-1.555a.369.369,0,0,1,.01.039c-.013-.033-.033-.067-.047-.1l.037.062a1.986,1.986,0,0,1-.275-1.388.335.335,0,0,1-.006.047c0-.018,0-.024.007-.108.049-.079.14-.516-.744-.879-.326,1.1-.059,2.59,1.19,4.326-.007-.015-.012-.03-.02-.044.021.034.034.061.055.1-.013-.018-.022-.034-.035-.051a4.654,4.654,0,0,1,.337.865l.009-.016c.006.034.013.074.02.108-.007-.032-.021-.061-.029-.092-.575.779-1.319,14.049.562,6.375C70.657,73.7,73.228,71.758,71.54,68.323Zm-.812.291.016.033Zm-.046,7.21c0-.022,0,0,0-.066C70.686,75.78,70.684,75.8,70.682,75.824Zm.587-1.8h0Zm0-.009,0-.033Z"/>
    <path class="f" d="M70.829,68.817c.008.014.013.029.02.044s.022.033.035.051C70.863,68.878,70.85,68.851,70.829,68.817Z"/>
    <path class="f" d="M68.993,67.785l-.024-.047.018.036Z"/>
    <path class="f" d="M69.311,73.035l.035-.083,0-.025C69.338,72.961,69.324,73,69.311,73.035Z"/>
    <path class="f" d="M69.346,72.952l-.035.083c.013-.034.027-.074.04-.108l0,.025a4.65,4.65,0,0,0-.353-5.167l.02.041C69,67.8,69,67.8,68.945,67.7c.009.013.016.027.024.041-.222-.2.307-1.8-1.059-1.109-.326.526-.231,1.787,1.1,3.064l-.088-.088c-.035.371-.105,1-.188,1.741a9.068,9.068,0,0,1,.459,2.353C69.239,73.463,69.291,73.218,69.346,72.952Zm.147-4.172-.018-.035Zm-.629-1.461.006-.023Zm.341,3.035,0,.032Zm-.009-.275a.35.35,0,0,1-.017-.057Z"/>
    <path class="f" d="M68.667,76.043l-.006.064A.331.331,0,0,0,68.667,76.043Z"/>
    <path class="f" d="M69.189,73.7a9.068,9.068,0,0,0-.459-2.353C68.34,74.852,67.673,80.842,69.189,73.7Z"/>
    <path class="f" d="M66.625,19.243l-.047,0Z"/>
    <path class="f" d="M76.934,36.92h0c-.017-.072-.034-.137-.054-.223C76.9,36.772,76.914,36.846,76.934,36.92Z"/>
    <path class="f" d="M58.8,17.2c1.037-.282.608-.1,2.9-1.291-.034.02-.074.04-.115.061,2.516-.882.6,5.287,4.994,3.272a.468.468,0,0,1-.055,0c.027,0,.029,0,.155.007h-.053c3.424,1.107,6.5,19.113,10.844,19a3.966,3.966,0,0,1-.535-1.326h0c-.02-.074-.033-.148-.054-.223.02.086.037.151.054.223.175-.755-.3-2.538-1.819-4.83a.866.866,0,0,0,.016.347c-.011-.039,0,0-.027-.119v.021a.1.1,0,0,0,0,.028l0-.028a.3.3,0,0,0-.008-.058c-1.665-7.367-5.959-12.407-13.322-17.476-.819.152-1.136.9-3.549,1.669l.025,0c-.025.007-.02,0-.108.027l.041-.013C56.016,14.078,55.112,17.287,58.8,17.2Zm15.956,17.53L74.7,34.7Zm-1.617-4.384c0-.021,0,0-.014-.063C73.13,30.3,73.135,30.324,73.139,30.345Zm-2.21-5.418,0,.08C70.927,24.98,70.927,25.007,70.929,24.927Zm-.384-1.434-.044-.029Zm-1.219-1.379c-.008-.037,0,0-.022-.111C69.313,22.041,69.319,22.077,69.326,22.114Zm-.28.191a.482.482,0,0,1-.054,0Zm-1.937-2.98-.036-.024Zm-.037-.025-.015-.01ZM62.849,16.4c-.011-.021-.023-.041-.035-.061C62.826,16.354,62.838,16.374,62.849,16.4Zm-.48-.562-.056-.016Zm-4.878.325a.5.5,0,0,0-.032-.039A.5.5,0,0,1,57.491,16.158Z"/>
    <path class="f" d="M58.831,17.2H58.8l-.078.021Z"/>
    <path class="f" d="M75.094,32.273v.008l.009.032Z"/>
    <path class="f" d="M75.1,32.339l0,.028A.1.1,0,0,1,75.1,32.339Z"/>
    <path class="f" d="M75.142,31.285c0-.03,0-.059.005-.089Z"/>
    <path class="f" d="M75.1,32.318v0Z"/>
    <path class="f" d="M70.847,32.966l.015.066c-3.175-4.6-5.261-11.408-12.333-13.193-.861,1.307,3.591,3.088,6.248,5.018-.164.555,2.483,5.321,4.611,8.59a20.374,20.374,0,0,1,2.342,1.847C71.551,34.735,71.265,33.974,70.847,32.966Zm-11.1-12.349c.025-.012.016-.005.026-.013C59.763,20.612,59.772,20.605,59.747,20.617Zm1.366.792c.018.011.034.023.051.035C61.147,21.432,61.131,21.42,61.113,21.409ZM63.752,23.6c.032.009.062.019.092.029C63.814,23.62,63.784,23.61,63.752,23.6Zm.171.027.025-.007Zm1,1.127a.341.341,0,0,1,.05-.011Zm2,3.764.007-.13C66.924,28.432,66.923,28.476,66.918,28.519Zm.026.174.035.036A.163.163,0,0,1,66.944,28.693Z"/>
    <path class="f" d="M58.9,21.213c-.044.011-.027,0-.044.011Z"/>
    <path class="f" d="M71.73,35.294a20.374,20.374,0,0,0-2.342-1.847C71.139,36.137,72.536,37.809,71.73,35.294Z"/>
    <path class="f" d="M62.216,27.237l-.034-.076-.011,0A.905.905,0,0,1,62.216,27.237Z"/>
    <path class="f" d="M62.182,27.161l.034.076a.905.905,0,0,0-.045-.08l.011,0c-.274-.609-1.206-2.706-2.653-1.345a4.809,4.809,0,0,1-.289-.892c.007.033.013.067.02.108-.16-.123.24-.585-.575-.954C56.292,26.674,69.916,30.611,62.182,27.161Zm1.4,1.059a.355.355,0,0,1,.047.032A.355.355,0,0,0,63.583,28.22Zm.007-.029c-.013,0,0,0-.038.009Zm-.046.011h0Zm-1.057-.613-.069-.044Zm-.137-.11-.005,0Zm-1.568-.986-.056-.054Zm-.42-.228-.067.012Zm-.973-.353-.041.013Z"/>
    <path class="f" d="M64.516,41.85h0v0l-.053.048C64.482,41.878,64.493,41.871,64.516,41.85Z"/>
    <path class="f" d="M64.007,42.214h0c.107-.084.149-.078.285-.177-.115.023-.213.03-.321.045C63.984,42.127,63.993,42.169,64.007,42.214Z"/>
    <path class="f" d="M60.367,28.285a.831.831,0,0,1,.02.11c-.136-.14.208-.513-.553-.833-.327.384-.522.857,1.262,2.411a4.777,4.777,0,0,1,.347-.616C61.106,29.013,60.751,28.659,60.367,28.285Zm.145.449a.177.177,0,0,1,.025.044A.177.177,0,0,0,60.512,28.734Z"/>
    <path class="f" d="M61.651,29.571c-.119.194-.24.385-.362.567.085.072.167.143.26.219,0,0,.007,0,.01.007h.005c.079.123.144.244.215.366a7.32,7.32,0,0,0,.714-.218C62.248,30.212,61.965,29.9,61.651,29.571Z"/>
    <path class="f" d="M63.224,33.136a.3.3,0,0,0,0,.069c0-.028.006-.025,0-.149v.08c.5-.719.112-1.593-.731-2.624a7.32,7.32,0,0,1-.714.218c2.038,3.5.752,6.368,2.192,11.352.108-.015.206-.022.321-.045.043-.032.1-.081.17-.141l.053-.048C63.251,39.015,66.105,37.573,63.224,33.136Zm-.917-1.7c0-.03,0,0,0-.085A.457.457,0,0,0,62.307,31.436ZM63.6,37.094c.015-.015,0,0,.04-.035A.25.25,0,0,0,63.6,37.094Zm.155-2.523c.009.005.019.015.034.025C63.772,34.586,63.762,34.576,63.753,34.571Zm.209,5.728c.025.04.045.085.065.125C64.007,40.384,63.987,40.339,63.962,40.3Z"/>
    <path class="f" d="M61.651,29.571c-.067-.07-.138-.142-.208-.214a4.777,4.777,0,0,0-.347.616c.061.054.127.109.193.165C61.411,29.956,61.532,29.765,61.651,29.571Z"/>
    <path class="b" d="M71.178,39.44c-.8.013-2.216-2.452-3.653-.732C67.028,38.851,72.17,41.435,71.178,39.44Zm-2.26.026-.093-.017Z"/>
    <path class="b" d="M62.668,43.441h0Z"/>
    <path class="b" d="M62.354,43.455a.857.857,0,0,1,.087,0C62.424,43.444,62.424,43.45,62.354,43.455Z"/>
    <path class="b" d="M62.64,43.442l-.018,0h0l.017,0Z"/>
    <path class="b" d="M60.937,44.553l.026,0c.038-.01.07-.021.109-.031A1.064,1.064,0,0,1,60.937,44.553Z"/>
    <path class="b" d="M58.464,45.8a.713.713,0,0,0,.06-.054A.309.309,0,0,1,58.464,45.8Z"/>
    <path class="b" d="M58.454,45.819a.1.1,0,0,0-.024.02,6.406,6.406,0,0,1,2.533-1.29l-.026,0a1.064,1.064,0,0,0,.135-.035c-.039.01-.071.021-.109.031a12.264,12.264,0,0,0,1.569-.325l-.029.015c.034-.01.064-.025.1-.035-.01,0-.015.005-.025.005.057-.1.069-.011.1-.514-.087-.069-.19-.147-.329-.239h-.007l0,0-.054,0h.01a3.128,3.128,0,0,1-.867-.053l.005,0c-.237.036-.167-.111-.658.05C59.812,42.661,54.66,48.433,58.454,45.819Zm.07-.069a.713.713,0,0,1-.06.054A.309.309,0,0,0,58.524,45.75Z"/>
    <path class="b" d="M62.687,43.441h-.015c-.015,0-.03,0-.05,0h0l.018,0c-.064,0-.128.009-.2.009h0a.857.857,0,0,0-.087,0h-.009c.139.092.242.17.329.239C62.678,43.624,62.682,43.54,62.687,43.441Z"/>
    <path class="b" d="M62.668,43.441h0Z"/>
    <path class="b" d="M62.7,43.44h0Z"/>
    <path class="b" d="M62.71,43.439h0Z"/>
    <path class="b" d="M62.724,43.439h0Z"/>
    <path class="b" d="M62.692,43.441l.033,0h-.033Z"/>
    <polygon class="b" points="62.69 43.441 62.692 43.441 62.691 43.441 62.69 43.441"/>
    <path class="b" d="M62.707,43.44h0Z"/>
    <path class="b" d="M65.308,44.033l.1,0h0C65.375,44.029,65.342,44.031,65.308,44.033Z"/>
    <path class="b" d="M65.909,44c.085,0,.186,0,.324.007a.034.034,0,0,1-.015,0,.243.243,0,0,0,.06,0c.02,0,.034.005.055.005H66.3c1.73.846,3.181.345,2.508-.191-.9.336-2.078.419-.808-.353-.133-.037-.286-.071-.45-.1-1.024.773-1.241.415-.971-.151-.3-.034-.631-.063-1-.083.05-.042.02-.034-.051,0C66.608,43.205,66.336,43.759,65.909,44Z"/>
    <path class="b" d="M66.243,44.01a.239.239,0,0,0,.059.005c-.01,0-.014-.005-.024-.005Z"/>
    <path class="b" d="M65.256,44.034h.052c.034,0,.067,0,.1,0h0c-.03,0-.055,0-.085.009A4.67,4.67,0,0,1,65.909,44c.427-.243.7-.8-.38-.866C65.212,43.305,64.054,44.1,65.256,44.034Z"/>
    <polygon class="b" points="64.932 44.129 64.934 44.129 64.931 44.129 64.932 44.129"/>
    <path class="b" d="M68.5,42.54c.121.016-.028-.644-.535-.595a2.728,2.728,0,0,0-1.381,1.27c.377.042.691.094.971.151A10.465,10.465,0,0,0,68.5,42.54Zm-.776-.376c-.008.013,0,0-.021.03Zm-.217.227-.023.02Z"/>
    <path class="b" d="M67.552,43.366c-.28-.057-.594-.109-.971-.151C66.311,43.781,66.528,44.139,67.552,43.366Z"/>
    <path class="b" d="M68.86,42.813a1.329,1.329,0,0,1-.494.45c.029-.015.052-.029.082-.044-.034.02-.061.033-.095.054l.013-.01c-.139.076-.259.145-.364.208a2.371,2.371,0,0,1,.808.353C69.561,43.544,70.112,43.089,68.86,42.813Zm-.021.036a.556.556,0,0,1-.047.072C68.808,42.9,68.792,42.921,68.839,42.849Z"/>
    <path class="b" d="M68.448,43.219c-.03.015-.053.029-.082.044l-.013.01C68.387,43.252,68.414,43.239,68.448,43.219Z"/>
    <path class="b" d="M68.81,43.824A2.371,2.371,0,0,0,68,43.471C66.732,44.243,67.911,44.16,68.81,43.824Z"/>
    <path class="b" d="M40.167,50.679c.01-.015.021-.03.03-.046l-.018.026Z"/>
    <path class="b" d="M44,47.4c-.392.067-.785.135-1.17.223.025-.005.053-.014.083-.021-.967-.489-2.352.928-3.228,2.226.306.112.289.344.33.384a2.477,2.477,0,0,1-.886.554,4.151,4.151,0,0,0-.193.438c.288.068.41.166.415.274a7.614,7.614,0,0,0,.814-.793c.009-.014.024-.037.053-.085l-.017.032c.767-.808.6-1.578,3-2.13h0c.027,0,.052-.012.077-.018L43.2,48.5C44.082,48.771,47.754,47.891,44,47.4ZM41.96,48.889l.049-.023A.426.426,0,0,1,41.96,48.889Zm2.577-.5h0Z"/>
    <path class="b" d="M40.14,50.716l.027-.037-.006.007A.285.285,0,0,0,40.14,50.716Z"/>
    <path class="b" d="M43.2,48.5h0l.077-.018C43.25,48.491,43.225,48.5,43.2,48.5Z"/>
    <path class="b" d="M39.5,49.773c-2.073-.5-1.728,1.442-.371.994a8.519,8.519,0,0,1,.556-.938A.7.7,0,0,0,39.5,49.773Z"/>
    <path class="b" d="M39.681,49.829a8.519,8.519,0,0,0-.556.938,2.477,2.477,0,0,0,.886-.554C39.97,50.173,39.987,49.941,39.681,49.829Z"/>
    <path class="b" d="M38.932,51.205a4,4,0,0,0-.814-.092c-.34.035-.453-.475-1.036.316.052,1.174,2.287.53,2.265.05C38.854,51.871,38.763,51.676,38.932,51.205Z"/>
    <path class="b" d="M38.932,51.205c-.169.471-.078.666.415.274C39.342,51.371,39.22,51.273,38.932,51.205Z"/>
  </g>
</svg>
