<svg xmlns="http://www.w3.org/2000/svg" viewBox="0 0 137.36 139.06"><defs><style>.cls-1{fill:#fefefe;}.cls-2{fill:#707da7;}</style></defs><g id="Layer_2" data-name="Layer 2"><g id="Draw_Layer" data-name="Draw Layer"><path class="cls-1" d="M69.32,0c-.87,0-2,0-3.15.06-2.66.12-4.69.27-6.57.49a46.78,46.78,0,0,0-6,1A54.06,54.06,0,0,0,47.5,3.6a35.87,35.87,0,0,0-5.3,2.5c-1.93,1.14-3.8,2.34-5.54,3.57-.83.58-1.64,1.17-2.45,1.77s-1.79,1.3-2.7,1.94L30.6,14c-.47.33-1,.65-1.42,1-.73.54-1.51,1.17-2.36,1.92-1.52,1.33-3,2.73-4.43,4.15-.47.48-.95.94-1.43,1.41l-.73.71c-.83.82-1.63,1.71-2.4,2.57l-.08.09A51.92,51.92,0,0,0,14,30.61c-.81,1.18-1.56,2.42-2.28,3.62-.34.56-.67,1.12-1,1.67a46.63,46.63,0,0,0-3,5.83c-.93,2.13-1.67,3.93-2.29,5.8-.33,1-.65,2-.92,2.94-.16.55-.29,1.1-.42,1.66-.1.4-.19.8-.3,1.2a61.34,61.34,0,0,0-1.39,6.44c-.13.84-.24,1.69-.35,2.53-.16,1.21-.33,2.42-.53,3.62C1.1,68.09.81,70.1.57,72l-.07.53A50.29,50.29,0,0,0,0,78.33,38.33,38.33,0,0,0,.51,85a61,61,0,0,0,1.23,6.1A41,41,0,0,0,4,97.26q.35.78.72,1.53L5.25,100c.41.9.84,1.83,1.33,2.71s.92,1.48,1.4,2.19l.44.65c.35.54.71,1.06,1.08,1.58l.74,1.08.19.27.12.16.45.7.15.23-.05-.12a55.13,55.13,0,0,0,3.54,4.93c1.26,1.57,2.62,3.24,4.06,4.84a20.51,20.51,0,0,0,2.7,2.41,12.39,12.39,0,0,0,1.7,1.06l.77.44c.86.52,1.64,1.09,2.46,1.7.49.37.91.69,1.36,1a16.32,16.32,0,0,0,1.68.94c.54.27,1.09.52,1.63.78l1.13.53c.76.4,1.5.81,2.24,1.25l.19.11c.85.51,1.73,1,2.64,1.49a16,16,0,0,0,2,.78l.6.2c1,.35,1.95.75,2.83,1.12a17.69,17.69,0,0,0,2,.63c.36.1.73.2,1.09.32l.91.29c.69.21,1.38.42,2.06.66l2,.67.87.3,1.43.43c.47.13,1,.27,1.42.43A35.72,35.72,0,0,0,59,137.88c1.39.27,2.83.43,4.18.57s2.66.25,4,.36l.41,0L70,139c.3,0,.61,0,.92,0s.88,0,1.32,0h.15l.61,0h-.34c.49,0,1,0,1.46-.06h.26c.29,0,.58,0,.88,0s.45,0,.67,0h.2a2,2,0,0,0,1.65-.95h.13c1,0,2.05,0,3.07,0l2.63,0h.14a41.22,41.22,0,0,0,6.44-.52,41,41,0,0,0,6.29-1.68,37.65,37.65,0,0,0,5.63-2.57l.9-.46c.54-.28,1.08-.56,1.61-.86.93-.52,1.85-1.07,2.76-1.61l.45-.27c1.75-1,3.57-2.12,5.26-3.31a40.78,40.78,0,0,0,4.49-3.87l.19-.18a55.34,55.34,0,0,0,8.4-9.67,45.38,45.38,0,0,0,3.18-5.81c.92-2,1.7-4,2.34-5.77a95,95,0,0,0,3.49-11.95A99.88,99.88,0,0,0,137,76.87c.19-2,.38-4.16.39-6.3,0-1.5-.08-3-.15-4.5,0-.63-.07-1.26-.1-1.88a71.67,71.67,0,0,0-1.77-12.52c-.48-2.15-1-4.15-1.56-6.09-.45-1.54-1-3.06-1.62-4.52l-.54-1.4a28.43,28.43,0,0,0-2.39-5c-.63-1-1.32-2-2.09-3l-.79-1c-.39-.47-.78-1-1.14-1.45a53.45,53.45,0,0,0-3.66-4.57l-.08-.09a49.82,49.82,0,0,0-4.6-4.71c-1.51-1.28-3.15-2.55-5-3.86-1.23-.87-2.52-1.69-3.76-2.48l-1.32-.85c-.74-.48-1.46-1-2.18-1.47-.93-.64-1.89-1.3-2.87-1.9a66.85,66.85,0,0,0-5.91-3.23c-1.61-.79-3.32-1.45-5-2.09l-.48-.18L89,3.24l-1.4-.54-.11,0c-.85-.33-1.73-.67-2.63-.92A45.61,45.61,0,0,0,78.24.5,48.58,48.58,0,0,0,72.35,0h-3Z"/><path class="cls-2" d="M63.62,15a24,24,0,0,0-6,2.62c-1.68,1-3.29,2.14-4.86,3.31l.19-.15a25.72,25.72,0,0,0-3.38,2.88c-.45.46-.92.91-1.36,1.37a21.68,21.68,0,0,0-1.47,1.85,10.73,10.73,0,0,0-1.29,2,5.19,5.19,0,0,0-.57,2A5.51,5.51,0,0,0,45,32.37a4.09,4.09,0,0,0,.61,1.46,5.68,5.68,0,0,0,1,1.12l-.21-.16c.47.39.92.79,1.43,1.15a4.17,4.17,0,0,0,4.57-.1,6.37,6.37,0,0,0,1.17-1c.18-.2.35-.41.53-.62a12.6,12.6,0,0,1,.89-.9c.64-.46,1.28-.91,1.9-1.41s1.24-1.14,1.89-1.68A25.47,25.47,0,0,1,63,27.81,23.74,23.74,0,0,1,65.5,27,26.73,26.73,0,0,0,68.7,26l-.21.08a8,8,0,0,1,1.58-.42,10,10,0,0,1,1.73,0,15.55,15.55,0,0,1,1.94.42c.47.15.94.34,1.4.53a9.8,9.8,0,0,1,1.24.76,10.7,10.7,0,0,1,1,1,16.37,16.37,0,0,1,1.23,2.25c.39.84.93,1.58,1.34,2.4a7.47,7.47,0,0,1,.3,1.24l.12.91a15.07,15.07,0,0,1,.1,2.85c-.08.84-.08,1.7-.15,2.54S80,42,79.85,42.74a20.41,20.41,0,0,1-.9,2.52,26.36,26.36,0,0,1-2.65,4.61A18.38,18.38,0,0,1,73.81,52a25.85,25.85,0,0,1-3.17,1.79c-.6.3-1.17.68-1.78,1l-1.68.79c-1,.46-1.89,1.06-2.87,1.5a9.37,9.37,0,0,0-1.88,1.23,7.88,7.88,0,0,0-1.3,1.35l.17-.21a19.6,19.6,0,0,0-1.53,2A11,11,0,0,0,59.08,63a5.44,5.44,0,0,0-.4,1.24,17.4,17.4,0,0,0-.3,2.6,14.25,14.25,0,0,0,.18,2.26c.18,1.61.27,3.22.54,4.81s.66,3,1,4.48c.61,3.12,1,6.28,1.48,9.43.18,1.35.41,2.71.62,4.06.15,1.08.28,2.17.36,3.26a18.05,18.05,0,0,0,1,4.78,8.73,8.73,0,0,0,1,2,9.52,9.52,0,0,0,1.36,1.73,9.37,9.37,0,0,0,1.54,1.13,6.48,6.48,0,0,0,2.68.81,4.05,4.05,0,0,0,1.42-.18,5.1,5.1,0,0,0,1.89-1.11,6.12,6.12,0,0,0,1.47-1.73,8.58,8.58,0,0,0,.86-2.65,14.91,14.91,0,0,0,.26-2.67,67.11,67.11,0,0,0-.64-7.62c0,.11,0,.21,0,.31,0-.15,0-.3-.07-.45s0-.24,0-.36l0,.35-.18-1.24c-.06-.48-.11-1-.17-1.44A1.49,1.49,0,0,0,75,87c0-.12,0-.23,0-.34s0-.31-.07-.47q-.44-3.06-1.1-6.09c-.51-2.34-1.22-4.63-1.59-7-.19-1.41-.51-2.79-.74-4.18-.06-.63-.09-1.26-.15-1.88a1.49,1.49,0,0,0,0-.21l1.06-.5a52.66,52.66,0,0,0,7.38-4,25.55,25.55,0,0,0,3.61-2.87,34.16,34.16,0,0,0,3-3.53,28.5,28.5,0,0,0,4.3-8.74,37.71,37.71,0,0,0,1.84-9.64,22,22,0,0,0-.4-4.65,21.09,21.09,0,0,0-1.15-4.13A20.22,20.22,0,0,0,88,23.52a30.45,30.45,0,0,0-2.83-2.85,22.31,22.31,0,0,0-3.53-2.75,15.1,15.1,0,0,0-2-1c-1-.43-2-.81-3-1.16a22.88,22.88,0,0,0-6.22-1.33q-1-.06-2-.06a17.53,17.53,0,0,0-4.74.56Z"/><path class="cls-2" d="M72.09,112.34a3.47,3.47,0,0,0-1.44,1.77c-1.79,1.18-3.43,2.74-3.14,5a5.66,5.66,0,0,0,1,2.71,6,6,0,0,0,2.4,2.05c.36.16.71.3,1.08.44a7.48,7.48,0,0,0,1.75.31,4.35,4.35,0,0,0,1.72-.23,5.86,5.86,0,0,0,1.63-.79,8.22,8.22,0,0,0,2.85-3.31,6.66,6.66,0,0,0,.73-3.18,7,7,0,0,0-.82-2.86,5.3,5.3,0,0,0-3-2.78,4.57,4.57,0,0,0-1.34-.19,6.11,6.11,0,0,0-3.4,1.06Zm1.44,7.55,0,.11,0-.11Z"/><path class="cls-2" d="M73.46,110.18c-.57,0-1.14.1-1.71.17l.82-.1a5.78,5.78,0,0,0-1.31.21,9.53,9.53,0,0,0-1.15.5,7.63,7.63,0,0,0-1.32,1A7.07,7.07,0,0,0,67,115.13a6.68,6.68,0,0,0-.16,3.52,6.41,6.41,0,0,0,.36,1,5.76,5.76,0,0,0,1.08,1.89,5.06,5.06,0,0,0,2.2,1.29,3.2,3.2,0,0,0,3.91-2.24,3.12,3.12,0,0,0-1.34-3.47c0-.18.11-.37.18-.55h.61l.53.11a3.24,3.24,0,0,0,3.92-2.24,3.21,3.21,0,0,0-2.24-3.92,11.59,11.59,0,0,0-2.34-.34Z"/></g></g></svg>