<svg xmlns="http://www.w3.org/2000/svg" viewBox="0 0 283.35 286.48"><defs><style>.cls-1{fill:#fefefe;}</style></defs><g id="Layer_2" data-name="Layer 2"><g id="Draw_Layer" data-name="Draw Layer"><path class="cls-1" d="M8.28,2.46a13.39,13.39,0,0,0-3.22,1,6.29,6.29,0,0,0-1.48,1,7.32,7.32,0,0,0-.86.9,14.15,14.15,0,0,0-1,1.42A10.43,10.43,0,0,0,.86,8.58,15.72,15.72,0,0,0,0,14.15a26.79,26.79,0,0,0,.2,3c.1,1,.2,2,.31,3,.22,2.07.63,4.09,1,6.13S2.19,30.11,2.6,32s1,3.75,1.49,5.62c.42,1.61.81,3.22,1.31,4.8s1,3.09,1.53,4.6c.49,1.32,1,2.64,1.43,4a40.19,40.19,0,0,0,1.89,4.73,1.9,1.9,0,0,0,1.19.92,2,2,0,0,0,2.4-1.21l.11-.06a1.94,1.94,0,0,0,.93-1.19c.1-.68.25-1.34.32-2,0-.4,0-.8.06-1.2s.06-.7.1-1.05c.09-.64.17-1.29.25-1.93.08-.48.17-1,.23-1.45s.15-1.27.23-1.9c.11-.87.09-1.75.18-2.63.1-.63.23-1.26.32-1.9s.2-1.41.29-2.12c.15-1,.34-1.95.52-2.91s.29-1.79.4-2.69c.11-.73.23-1.46.33-2.19l0,.17c.14-1.06.34-2.11.46-3.18s.13-1.92.19-2.89a47.26,47.26,0,0,0,0-5.83c-.06-1-.19-2-.24-3a27.51,27.51,0,0,0-.33-3.63c-.13-.83-.35-1.64-.55-2.45a17,17,0,0,0-.94-2.62,7.66,7.66,0,0,0-4.15-4.18,5.69,5.69,0,0,0-2-.31,16.36,16.36,0,0,0-2.23.2Zm2.63,3.81.28.08a5.09,5.09,0,0,1,.5.3,6.92,6.92,0,0,1,.61.6,11.47,11.47,0,0,1,1,1.75,17.75,17.75,0,0,1,.55,1.89c.18.71.35,1.42.46,2.14.13,1.25.14,2.51.26,3.77s.21,2.62.25,3.95a51.18,51.18,0,0,1-.31,7c-.11.76-.24,1.52-.34,2.28s-.26,1.65-.36,2.47-.31,1.85-.48,2.77c-.09.53-.2,1-.28,1.58s-.14,1.08-.21,1.61l-.24,1.67c0-.18,0-.36.07-.54a33.07,33.07,0,0,0-.48,3.56c0,.46,0,.92-.08,1.38s-.11.93-.16,1.4c-.11.76-.23,1.51-.32,2.27a1.07,1.07,0,0,0-.07-.19c-.61-1.65-1.21-3.29-1.75-5-.6-1.85-1.13-3.71-1.62-5.59s-1-3.65-1.48-5.5-.75-3.86-1.11-5.8c-.31-1.78-.71-3.54-1-5.32-.19-1.53-.34-3.06-.47-4.59a22.71,22.71,0,0,1,0-4.44,12.73,12.73,0,0,1,.63-2.27,9,9,0,0,1,.82-1.4,7.14,7.14,0,0,1,.76-.8,6.46,6.46,0,0,1,.71-.44,12.69,12.69,0,0,1,2.1-.54,12.89,12.89,0,0,1,1.76-.08Zm7.25,23.59,0,.14a.59.59,0,0,1,0-.14ZM16.22,42.23l0,.17,0-.17ZM11.64,48l0,.24h0l0-.24Zm4.93-7.85,0,.25c0-.18.05-.36.07-.54a2.54,2.54,0,0,1,0,.29Z"/><path class="cls-1" d="M33.94.12a10,10,0,0,0-1.39.4,8.84,8.84,0,0,0-3,1.76,10.71,10.71,0,0,0-1.73,2.18,19,19,0,0,0-2.25,5.17,24.5,24.5,0,0,0-.81,5.59,27.1,27.1,0,0,0,0,2.85c0,1,.11,2,.19,2.94s.12,2,.19,3,.23,2.2.4,3.3c.29,1.84.55,3.68.88,5.52.08.48.17,1,.26,1.44s.25.93.35,1.4c.22,1,.43,1.9.66,2.84.4,1.7.95,3.35,1.4,5a12.15,12.15,0,0,1,.29,1.36,41.47,41.47,0,0,0,.77,4.7c.18.7.33,1.4.56,2.09s.56,1.51.84,2.27a2,2,0,0,0,.92,1.19,1.82,1.82,0,0,0,.75.26,2.07,2.07,0,0,0,1.4,1.41A2,2,0,0,0,37,55.42a5.93,5.93,0,0,0,.19-1.09c.05-.32.12-.63.2-.94.13-.47.22-.93.32-1.41s.13-.85.23-1.27.25-1,.36-1.48c.39-1.77.86-3.53,1.29-5.29s.85-3.84,1.14-5.77c.14-.9.29-1.81.45-2.71s.34-1.74.49-2.61c.36-2.15.78-4.29,1.16-6.45.19-1,.37-2,.53-3.08s.26-2.19.4-3.28c0-.28.08-.55.11-.82a22,22,0,0,0,.21-3.14c0-.9,0-1.8-.09-2.7a23.18,23.18,0,0,0-.42-3.32c-.2-.92-.45-1.85-.71-2.76a9.23,9.23,0,0,0-1.22-2.6,18.13,18.13,0,0,0-2.13-2.51A9,9,0,0,0,37.16.58,6.16,6.16,0,0,0,35.86.1,3.5,3.5,0,0,0,35,0a5.85,5.85,0,0,0-1.08.12Zm1,3.87.27.08a9.63,9.63,0,0,1,1.35.78,15.3,15.3,0,0,1,1.58,1.73,7.9,7.9,0,0,1,.7,1.19,17.35,17.35,0,0,1,.57,1.9c.19.75.38,1.51.5,2.28.12,1.05.17,2.11.2,3.17A25.2,25.2,0,0,1,40,18.6c-.18,1.21-.31,2.43-.46,3.65q-.42,2.71-1,5.4c-.21,1-.37,2.09-.55,3.14s-.35,1.84-.52,2.76c-.33,1.86-.62,3.73-.95,5.6-.16.92-.36,1.84-.57,2.76s-.45,1.8-.65,2.7c-.36,1.6-.76,3.2-1.16,4.8a2.86,2.86,0,0,1-.07-.28c-.3-1.21-.53-2.43-.71-3.66A21.79,21.79,0,0,0,33,42.92c-.17-.75-.4-1.49-.63-2.22q-.74-2.45-1.27-4.94c-.19-.86-.42-1.71-.62-2.57s-.32-1.79-.48-2.67c-.29-1.61-.51-3.23-.75-4.85-.13-1-.2-2.07-.26-3.11s-.16-2.16-.23-3.23a37.51,37.51,0,0,1,.12-6.18,22.47,22.47,0,0,1,1.25-4.61A15.23,15.23,0,0,1,31.72,5.8a6.9,6.9,0,0,1,.8-.82,8.21,8.21,0,0,1,1.13-.61A9.86,9.86,0,0,1,34.93,4Zm-.17,0h0ZM38.3,6.79l.09.12-.09-.12ZM40,18.62v.1c0,.13,0,.25,0,.37l.06-.47Zm3.92.6c0,.1,0,.21,0,.31,0-.17.05-.35.07-.53l0,.22Z"/><path class="cls-1" d="M247.51,232.06a12.66,12.66,0,0,0-3.22.95,6.29,6.29,0,0,0-1.48,1,7.32,7.32,0,0,0-.86.9,14.15,14.15,0,0,0-1,1.42,10.43,10.43,0,0,0-.84,1.83,15.72,15.72,0,0,0-.86,5.57,27.11,27.11,0,0,0,.2,3c.1,1,.2,2,.31,3,.22,2.07.63,4.09,1,6.13s.65,3.87,1.06,5.79,1,3.75,1.49,5.62c.42,1.61.81,3.22,1.31,4.8s1,3.08,1.53,4.6c.49,1.32,1,2.64,1.43,4a40.19,40.19,0,0,0,1.89,4.73,1.93,1.93,0,0,0,1.19.92,2,2,0,0,0,2.4-1.21l.11-.06a1.93,1.93,0,0,0,.93-1.2c.11-.68.25-1.34.32-2,0-.4,0-.8.06-1.2s.06-.7.1-1c.09-.64.17-1.29.25-1.93s.17-1,.23-1.45.15-1.27.23-1.9c.11-.87.09-1.75.18-2.63.1-.63.23-1.26.32-1.9s.2-1.41.29-2.12c.15-1,.34-1.95.52-2.91s.29-1.79.41-2.69c.11-.73.22-1.46.32-2.19l0,.17c.15-1.06.34-2.11.46-3.18s.13-1.93.19-2.89a47.26,47.26,0,0,0-.05-5.83c-.06-1-.19-2-.24-3a27.51,27.51,0,0,0-.33-3.63c-.13-.83-.35-1.64-.55-2.45a17,17,0,0,0-.94-2.62,7.68,7.68,0,0,0-4.14-4.18,5.74,5.74,0,0,0-2-.31,16.36,16.36,0,0,0-2.23.2Zm2.63,3.81.28.08a5.09,5.09,0,0,1,.5.3,6.92,6.92,0,0,1,.61.6,10.67,10.67,0,0,1,1,1.75c.23.62.39,1.25.56,1.89s.34,1.42.45,2.14c.13,1.25.14,2.51.26,3.77s.21,2.62.25,3.95a51.18,51.18,0,0,1-.31,7c-.11.76-.24,1.52-.34,2.28s-.26,1.65-.36,2.47-.31,1.85-.48,2.77c-.09.53-.2,1.05-.28,1.58s-.14,1.08-.21,1.61-.16,1.11-.23,1.66c0-.17,0-.35.07-.53a30.76,30.76,0,0,0-.49,3.56c0,.46,0,.92-.08,1.38s-.11.93-.15,1.4c-.12.76-.24,1.51-.33,2.27a1.07,1.07,0,0,0-.07-.19c-.61-1.65-1.21-3.3-1.75-5-.6-1.85-1.13-3.71-1.62-5.59s-1-3.65-1.48-5.5-.75-3.86-1.1-5.8c-.32-1.78-.72-3.54-1-5.32-.19-1.53-.34-3.06-.47-4.59a23.52,23.52,0,0,1,0-4.44,12.73,12.73,0,0,1,.63-2.27,9,9,0,0,1,.82-1.4,7.14,7.14,0,0,1,.76-.8,6.46,6.46,0,0,1,.71-.44,12.69,12.69,0,0,1,2.1-.54,11.47,11.47,0,0,1,1.76-.08Zm7.25,23.59,0,.14c0-.05,0-.1,0-.14Zm-1.94,12.37,0,.17,0-.17Zm-4.58,5.75,0,.24h0l0-.23Zm4.93-7.85,0,.24c0-.17,0-.35.07-.53a2.54,2.54,0,0,1,0,.29Z"/><path class="cls-1" d="M273.17,229.71a10,10,0,0,0-1.39.41,8.94,8.94,0,0,0-3,1.76,10.71,10.71,0,0,0-1.73,2.18,18.91,18.91,0,0,0-2.25,5.17,24.5,24.5,0,0,0-.81,5.59c-.05,1-.08,1.89,0,2.85s.11,2,.19,2.94.12,2,.19,3,.23,2.2.4,3.3c.29,1.84.55,3.68.88,5.52.08.48.17,1,.26,1.44s.25.93.35,1.4l.66,2.84c.4,1.7.95,3.35,1.4,5,.12.44.22.9.3,1.36a39.32,39.32,0,0,0,.76,4.7c.18.7.33,1.4.57,2.09s.55,1.51.83,2.27a2.1,2.1,0,0,0,.92,1.19,2,2,0,0,0,.75.26,2.06,2.06,0,0,0,1.41,1.41,2,2,0,0,0,2.46-1.39,5.93,5.93,0,0,0,.19-1.09c.05-.32.12-.63.2-.94.13-.47.22-.94.32-1.41s.13-.85.23-1.28.25-1,.36-1.47c.39-1.78.86-3.53,1.29-5.29s.85-3.84,1.14-5.77c.15-.9.29-1.81.45-2.71s.34-1.74.49-2.61c.36-2.15.78-4.29,1.16-6.45.19-1,.37-2.05.53-3.08s.26-2.19.4-3.29c0-.27.08-.54.11-.81a22,22,0,0,0,.21-3.14c0-.9,0-1.8-.09-2.7a23.18,23.18,0,0,0-.42-3.32c-.2-.93-.44-1.85-.71-2.76a9.23,9.23,0,0,0-1.22-2.6,18.13,18.13,0,0,0-2.13-2.51,9,9,0,0,0-2.39-1.61,6.16,6.16,0,0,0-1.3-.48,3.5,3.5,0,0,0-.84-.1,6.82,6.82,0,0,0-1.08.11Zm1,3.88.27.08a9.63,9.63,0,0,1,1.35.78,15.3,15.3,0,0,1,1.58,1.73,7.9,7.9,0,0,1,.7,1.19,15.4,15.4,0,0,1,.57,1.9c.19.75.38,1.51.5,2.28.12,1,.17,2.11.2,3.17a25.25,25.25,0,0,1-.1,3.48c-.18,1.21-.31,2.43-.46,3.65q-.42,2.72-1,5.4c-.21,1-.37,2.09-.55,3.14s-.35,1.84-.52,2.76c-.33,1.86-.62,3.73-.95,5.6-.16.92-.36,1.84-.57,2.76s-.45,1.79-.65,2.7c-.36,1.6-.76,3.2-1.16,4.8a2.86,2.86,0,0,1-.07-.28c-.3-1.21-.52-2.43-.71-3.66a21.79,21.79,0,0,0-.39-2.55c-.17-.75-.4-1.49-.63-2.22q-.74-2.44-1.27-4.94c-.19-.86-.42-1.72-.62-2.57s-.32-1.79-.48-2.67c-.29-1.61-.51-3.23-.75-4.85-.13-1-.2-2.07-.25-3.11s-.17-2.16-.24-3.23a37.51,37.51,0,0,1,.12-6.18,22.94,22.94,0,0,1,1.25-4.61A15.23,15.23,0,0,1,271,235.4a6.9,6.9,0,0,1,.8-.82,8.21,8.21,0,0,1,1.13-.61,9.86,9.86,0,0,1,1.28-.38Zm-.17,0h0Zm3.54,2.79.09.12-.09-.12Zm1.69,11.83v.1c0,.13,0,.25,0,.37l.06-.47Zm3.92.6c0,.1,0,.21,0,.31,0-.17,0-.35.07-.53l0,.22Z"/></g></g></svg>