<?xml version="1.0" encoding="utf-8"?>
<!-- Generator: Adobe Illustrator 24.1.2, SVG Export Plug-In . SVG Version: 6.00 Build 0)  -->
<svg version="1.1" id="Layer_1" xmlns="http://www.w3.org/2000/svg" xmlns:xlink="http://www.w3.org/1999/xlink" x="0px" y="0px"
	 viewBox="0 0 284 279.7" style="enable-background:new 0 0 284 279.7;" xml:space="preserve">
<style type="text/css">
	.st0{fill:#9AA4BD;}
	.st1{fill:#FEFEFE;}
</style>
<rect y="0" class="st0" width="284" height="279.6"/>
<path class="st1" d="M39.7,33.1c0.1,0,0.2,0,0.3,0h0.1c0.3,0,0.6-0.1,0.8-0.1H41c0.2,0,0.4-0.1,0.6-0.1c0.3-0.1,0.6-0.2,0.9-0.3
	c0.2-0.1,0.4-0.2,0.6-0.3c0.2-0.1,0.5-0.3,0.7-0.5l0.1-0.1c0.4-0.3,0.8-0.7,1.1-1.2c0.2-0.3,0.4-0.6,0.5-0.9
	c0.1-0.2,0.3-0.4,0.4-0.6c0.2-0.4,0.4-0.8,0.6-1.3c0.1-0.4,0.3-0.8,0.4-1.2c0.1-0.4,0.2-0.8,0.3-1.2c0.1-0.4,0.1-0.9,0.1-1.3
	c0-0.5-0.1-0.9-0.3-1.4c-0.3-1-0.7-1.9-1.3-2.7c-0.3-0.5-0.6-0.9-1-1.3c-0.2-0.2-0.4-0.4-0.7-0.6c-0.2-0.2-0.5-0.3-0.8-0.4h-0.1
	c-0.2-0.1-0.4-0.1-0.5-0.2h-0.1l-0.3-0.1l-0.3-0.1c-0.6-0.2-1.1-0.3-1.7-0.3c-0.3,0-0.6,0-0.9-0.1c-0.2,0-0.4,0-0.6,0
	c-0.4,0.1-0.8,0.1-1.3,0.2c0,0,0-0.1,0-0.1V17v-0.2v-0.1l0,0c0-0.1,0-0.1,0.1-0.2c0-0.1,0-0.2,0.1-0.2c0.1-0.2,0.1-0.4,0.2-0.5
	l0.2-0.4L38,15c0-0.1,0.1-0.2,0.1-0.2l0.1-0.1l0-0.1c0-0.1,0.1-0.2,0.1-0.3l0.1-0.2l0.1-0.2l0.1-0.1c0-0.1,0.1-0.2,0.1-0.3
	c0-0.1,0.1-0.2,0.2-0.3c0.1-0.1,0.1-0.2,0.2-0.3l0.1-0.1l0.1-0.1l0.2-0.2l0.1,0c0.1-0.1,0.1-0.1,0.2-0.2l0.1-0.1l0.1-0.2l0.1-0.1
	l0.1-0.1l0-0.1l0.2-0.2l0.1-0.1c0.1-0.1,0.2-0.2,0.3-0.3l0.3-0.3c0-0.1,0.1-0.1,0.2-0.2l0.1-0.1c0.1-0.1,0.3-0.3,0.4-0.4
	c0,0,0-0.1,0-0.1c0-0.1,0-0.1-0.1-0.1c0,0-0.1,0-0.1,0c-0.1,0-0.2,0-0.2,0.1c-0.2,0.1-0.3,0.2-0.5,0.3l-0.1,0.1l-0.1,0.1
	c-0.1,0-0.1,0.1-0.2,0.1L40,10.5l-0.2,0.1c0,0-0.1,0-0.1,0.1l-0.1,0.1c-0.1,0-0.1,0.1-0.2,0.1c-0.2,0.1-0.3,0.2-0.4,0.3l-0.3,0.2
	l-0.1,0.1l-0.2,0.2c-0.1,0.1-0.2,0.2-0.3,0.3l-0.1,0.1l-0.2,0.2l0,0c0,0-0.1,0.1-0.1,0.1l-0.1,0.2c-0.2,0.2-0.3,0.4-0.5,0.6
	l-0.2,0.3l-0.1,0.2h0c-0.2,0.2-0.4,0.5-0.6,0.7c-0.1,0.1-0.2,0.2-0.3,0.4c-0.1,0.1-0.1,0.2-0.2,0.3l-0.1,0.1
	c-0.1,0.1-0.1,0.2-0.2,0.3c-0.1,0.1-0.1,0.1-0.1,0.2L35,15.6l-0.1,0.1l-0.1,0.1l-0.2,0.4l-0.1,0.1v0.1l-0.1,0.1v0
	c0,0.1-0.1,0.1-0.1,0.2l-0.1,0.1l-0.1,0.2l-0.1,0.1C34,17.3,34,17.5,34,17.6l-0.1,0.1v0.1c0,0.1,0,0.1-0.1,0.2c0,0.1,0,0.1-0.1,0.2
	l-0.1,0.2c-0.1,0.1-0.1,0.2-0.1,0.3v0.1l0,0.1c0,0.1,0,0.1-0.1,0.2c0,0.1-0.1,0.1-0.1,0.2c0,0,0,0.1,0,0.1v0.1l-0.1,0.2
	c0,0.1-0.1,0.1-0.1,0.2v0c0,0.1-0.1,0.1-0.1,0.2c0,0.1-0.1,0.2-0.1,0.2c0,0,0,0.1,0,0.1l0,0.1v0c0,0.1-0.1,0.2-0.1,0.2
	c0,0.1,0,0.1-0.1,0.2c0,0.1,0,0.1-0.1,0.2l0,0.1l0,0.1c0,0.1-0.1,0.2-0.1,0.3c0,0,0,0.1,0,0.1c0,0,0,0.1,0,0.1c0,0,0,0.1,0,0.1v0
	c0,0,0,0.1,0,0.1v0.1V22c0,0.1,0,0.1,0,0.2c0,0,0,0.1,0,0.1c0,0,0,0.1,0,0.1v0.1v0.1c0,0,0,0.1-0.1,0.1c0,0,0,0.1,0,0.1v0.1
	c0,0,0,0.1,0,0.1v0.1c0,0,0,0.1,0,0.1l0,0.1c0,0.1-0.1,0.2-0.1,0.3v0.1v0.1c0,0.1,0,0.1,0,0.2c0,0.1,0,0.2,0,0.3c0,0,0,0.1,0,0.1
	v0.1c0,0.1,0,0.1,0,0.2c0,0.1,0,0.1,0,0.2v0.1c-0.1,0.3-0.1,0.6-0.2,1c0,0.5,0,1.1,0.1,1.6c0.1,0.4,0.2,0.8,0.3,1.2
	c0.1,0.4,0.3,0.9,0.6,1.2c0.2,0.3,0.4,0.5,0.6,0.8l0.2,0.3c0.2,0.3,0.5,0.5,0.7,0.7c0.2,0.2,0.4,0.3,0.6,0.4
	c0.1,0.1,0.3,0.1,0.4,0.2l0.2,0.1l0.3,0.2c0.3,0.2,0.7,0.3,1.1,0.5c0.4,0.1,0.9,0.2,1.3,0.3c0.3,0,0.6,0,0.9,0h0.7L39.7,33.1z"/>
<path class="st1" d="M21.8,33.1h0.3h0.1c0.3,0,0.6-0.1,0.8-0.1h0.1c0.2,0,0.4-0.1,0.6-0.1c0.3-0.1,0.6-0.2,0.9-0.3
	c0.2-0.1,0.4-0.2,0.6-0.3c0.2-0.1,0.5-0.3,0.7-0.5l0.1-0.1c0.4-0.3,0.8-0.7,1.1-1.2c0.2-0.3,0.4-0.6,0.5-0.9
	c0.1-0.2,0.3-0.4,0.4-0.6c0.2-0.4,0.4-0.8,0.6-1.3c0.1-0.4,0.3-0.8,0.4-1.2c0.1-0.4,0.2-0.8,0.3-1.2c0.1-0.5,0.1-0.9,0.1-1.4
	c0-0.5-0.1-0.9-0.3-1.4c-0.3-0.9-0.7-1.9-1.3-2.7c-0.3-0.5-0.6-0.9-1-1.3c-0.2-0.2-0.5-0.4-0.7-0.6c-0.2-0.2-0.5-0.3-0.8-0.4h-0.1
	c-0.2-0.1-0.4-0.1-0.5-0.2h-0.1l-0.3-0.1L24,17.4c-0.6-0.2-1.1-0.3-1.7-0.3c-0.3,0-0.6,0-0.9-0.1c-0.2,0-0.4,0-0.6,0
	c-0.4,0.1-0.9,0.1-1.3,0.2c0,0,0-0.1,0-0.1v-0.1v-0.2v-0.1l0,0c0-0.1,0-0.1,0.1-0.2c0-0.1,0-0.2,0.1-0.2c0.1-0.2,0.1-0.4,0.2-0.5
	c0.1-0.2,0.1-0.3,0.2-0.4l0.1-0.3l0.1-0.2l0.1-0.1l0-0.1l0.1-0.3l0.1-0.2l0.1-0.2l0.1-0.1l0.1-0.3c0.1-0.1,0.1-0.2,0.2-0.3l0.2-0.3
	l0.1-0.1l0.1-0.1l0.1-0.2l0.1-0.1l0.1-0.2l0.1-0.1l0.1-0.2l0.1-0.1l0.1-0.1l0.1,0l0.2-0.2l0.1-0.1c0.1-0.1,0.2-0.2,0.3-0.3l0.2-0.3
	c0-0.1,0.1-0.1,0.1-0.2l0.1-0.1c0.1-0.1,0.3-0.3,0.4-0.4c0,0,0-0.1,0-0.1c0-0.1,0-0.1-0.1-0.1c0,0-0.1,0-0.1,0c-0.1,0-0.2,0-0.2,0.1
	c-0.2,0.1-0.3,0.2-0.5,0.3l-0.1,0.1l-0.1,0.1l-0.2,0.1l-0.2,0.1l-0.2,0.1l-0.1,0.1l-0.1,0.1l-0.2,0.1c-0.2,0.1-0.3,0.2-0.4,0.3
	l-0.3,0.2l-0.1,0.1l-0.2,0.2c-0.1,0.1-0.2,0.2-0.3,0.3l-0.1,0.1l-0.2,0.2l0,0l-0.1,0.1l-0.1,0.2c-0.2,0.2-0.3,0.4-0.5,0.6
	c-0.1,0.1-0.1,0.2-0.2,0.3l-0.1,0.2l0,0c-0.2,0.2-0.4,0.5-0.6,0.7c-0.1,0.1-0.2,0.2-0.3,0.4L17.6,15l-0.1,0.1
	c-0.1,0.1-0.1,0.2-0.2,0.3c0,0.1-0.1,0.1-0.1,0.2l-0.1,0.1L17,15.8c0,0-0.1,0.1-0.1,0.1l-0.2,0.4l-0.1,0.1l0,0.1c0,0,0,0.1-0.1,0.1
	v0c0,0.1-0.1,0.1-0.1,0.2c0,0,0,0.1-0.1,0.1l-0.1,0.2l-0.1,0.1l-0.2,0.3l0,0.1v0.1L16,17.9c0,0.1,0,0.1-0.1,0.2l-0.1,0.2l-0.1,0.3
	v0.1l-0.1,0.1c0,0.1,0,0.1-0.1,0.2c0,0.1-0.1,0.1-0.1,0.2l-0.1,0.1v0.1l-0.1,0.2c0,0.1-0.1,0.1-0.1,0.2v0c0,0.1-0.1,0.1-0.1,0.2
	c0,0.1-0.1,0.2-0.1,0.2l0,0.1c0,0,0,0.1,0,0.1v0c0,0.1-0.1,0.2-0.1,0.2c0,0.1,0,0.1-0.1,0.2c0,0.1,0,0.1-0.1,0.2c0,0,0,0.1,0,0.1
	l0,0.1c0,0.1-0.1,0.2-0.1,0.3s0,0.1,0,0.1c0,0,0,0.1,0,0.1c0,0,0,0.1,0,0.1v0c0,0,0,0.1,0,0.1c0,0,0,0.1,0,0.1V22c0,0.1,0,0.1,0,0.2
	c0,0,0,0.1,0,0.1c0,0,0,0.1,0,0.1v0.1v0.1c0,0,0,0.1-0.1,0.1v0.1v0.1c0,0,0,0.1,0,0.1v0.1c0,0,0,0.1,0,0.1l0,0.1
	c0,0.1-0.1,0.2-0.1,0.3v0.1v0.1c0,0.1,0,0.1,0,0.2c0,0.1,0,0.2,0,0.3c0,0,0,0.1,0,0.1v0.1c0,0.1,0,0.1,0,0.2c0,0.1,0,0.1,0,0.2v0.1
	c-0.1,0.3-0.1,0.6-0.2,1c0,0.5,0,1.1,0.1,1.6c0.1,0.4,0.2,0.8,0.3,1.2c0.1,0.4,0.3,0.9,0.6,1.2c0.2,0.3,0.4,0.5,0.6,0.8l0.2,0.3
	c0.2,0.3,0.5,0.5,0.7,0.7c0.2,0.2,0.4,0.3,0.6,0.4c0.1,0.1,0.3,0.1,0.4,0.2l0.2,0.1l0.3,0.2c0.3,0.2,0.7,0.3,1.1,0.5
	c0.4,0.1,0.9,0.2,1.3,0.3c0.3,0,0.6,0,0.9,0L21.8,33.1L21.8,33.1z"/>
<path class="st1" d="M246.2,243.8c-0.1,0-0.2,0-0.3,0h-0.1c-0.3,0-0.6,0.1-0.8,0.1h-0.1c-0.2,0-0.4,0.1-0.6,0.1
	c-0.3,0.1-0.6,0.2-0.9,0.3c-0.2,0.1-0.4,0.2-0.6,0.3c-0.2,0.1-0.5,0.3-0.7,0.5l-0.1,0.1c-0.4,0.3-0.8,0.7-1.1,1.2
	c-0.2,0.3-0.4,0.6-0.5,0.9c-0.1,0.2-0.3,0.4-0.4,0.6c-0.2,0.4-0.4,0.8-0.6,1.3c-0.1,0.4-0.3,0.8-0.4,1.2c-0.1,0.4-0.2,0.8-0.3,1.2
	c-0.1,0.4-0.1,0.9-0.1,1.3c0,0.5,0.1,0.9,0.3,1.4c0.3,1,0.7,1.9,1.3,2.7c0.3,0.5,0.6,0.9,1,1.3c0.2,0.2,0.4,0.4,0.7,0.6
	c0.2,0.2,0.5,0.3,0.8,0.4h0.1c0.2,0.1,0.4,0.1,0.5,0.2h0.1l0.3,0.1l0.3,0.1c0.6,0.2,1.1,0.3,1.7,0.3c0.3,0,0.6,0,0.9,0.1
	c0.2,0,0.4,0,0.6,0c0.4-0.1,0.8-0.1,1.3-0.2c0,0,0,0.1,0,0.1v0.1v0.2v0.1l0,0c0,0.1,0,0.1-0.1,0.2c0,0.1,0,0.2-0.1,0.2
	c-0.1,0.2-0.1,0.4-0.2,0.5l-0.2,0.4l-0.1,0.3c0,0.1-0.1,0.2-0.1,0.2l-0.1,0.1l0,0.1c0,0.1-0.1,0.2-0.1,0.3l-0.1,0.2l-0.1,0.2
	l-0.1,0.1c0,0.1-0.1,0.2-0.1,0.3c0,0.1-0.1,0.2-0.2,0.3c-0.1,0.1-0.1,0.2-0.2,0.3l-0.1,0.1l-0.1,0.1l-0.2,0.2l-0.1,0
	c-0.1,0.1-0.1,0.1-0.2,0.2l-0.1,0.1L246,265l-0.1,0.1l-0.1,0.1l0,0.1l-0.2,0.2l-0.1,0.1c-0.1,0.1-0.2,0.2-0.3,0.3l-0.3,0.3
	c0,0.1-0.1,0.1-0.2,0.2l-0.1,0.1c-0.1,0.1-0.3,0.3-0.4,0.4c0,0,0,0.1,0,0.1c0,0.1,0,0.1,0.1,0.1c0,0,0.1,0,0.1,0
	c0.1,0,0.2,0,0.2-0.1c0.2-0.1,0.3-0.2,0.5-0.3l0.1-0.1l0.1-0.1c0.1,0,0.1-0.1,0.2-0.1l0.2-0.1l0.2-0.1c0,0,0.1,0,0.1-0.1l0.1-0.1
	c0.1,0,0.1-0.1,0.2-0.1c0.2-0.1,0.3-0.2,0.4-0.3l0.3-0.2l0.1-0.1l0.2-0.2c0.1-0.1,0.2-0.2,0.3-0.3l0.1-0.1l0.2-0.2l0,0
	c0,0,0.1-0.1,0.1-0.1l0.1-0.2c0.2-0.2,0.3-0.4,0.5-0.6l0.2-0.3l0.1-0.2h0c0.2-0.2,0.4-0.5,0.6-0.7c0.1-0.1,0.2-0.2,0.3-0.4
	c0.1-0.1,0.1-0.2,0.2-0.3l0.1-0.1c0.1-0.1,0.1-0.2,0.2-0.3c0.1-0.1,0.1-0.1,0.1-0.2l0.1-0.1l0.1-0.1l0.1-0.1l0.2-0.4l0.1-0.1v-0.1
	l0.1-0.1v0c0-0.1,0.1-0.1,0.1-0.2l0.1-0.1l0.1-0.2l0.1-0.1c0.1-0.1,0.1-0.2,0.2-0.3l0.1-0.1v-0.1c0-0.1,0-0.1,0.1-0.2
	c0-0.1,0-0.1,0.1-0.2l0.1-0.2c0.1-0.1,0.1-0.2,0.1-0.3v-0.1l0-0.1c0-0.1,0-0.1,0.1-0.2c0-0.1,0.1-0.1,0.1-0.2c0,0,0-0.1,0-0.1v-0.1
	l0.1-0.2c0-0.1,0.1-0.1,0.1-0.2v0c0-0.1,0.1-0.1,0.1-0.2c0-0.1,0.1-0.2,0.1-0.2c0,0,0-0.1,0-0.1l0-0.1v0c0-0.1,0.1-0.2,0.1-0.2
	c0-0.1,0-0.1,0.1-0.2c0-0.1,0-0.1,0.1-0.2l0-0.1l0-0.1c0-0.1,0.1-0.2,0.1-0.3c0,0,0-0.1,0-0.1c0,0,0-0.1,0-0.1c0,0,0-0.1,0-0.1v0
	c0,0,0-0.1,0-0.1v-0.1V255c0-0.1,0-0.1,0-0.2c0,0,0-0.1,0-0.1c0,0,0-0.1,0-0.1v-0.1v-0.1c0,0,0-0.1,0.1-0.1c0,0,0-0.1,0-0.1v-0.1
	c0,0,0-0.1,0-0.1v-0.1c0,0,0-0.1,0-0.1l0-0.1c0-0.1,0.1-0.2,0.1-0.3v-0.1v-0.1c0-0.1,0-0.1,0-0.2c0-0.1,0-0.2,0-0.3c0,0,0-0.1,0-0.1
	v-0.1c0-0.1,0-0.1,0-0.2c0-0.1,0-0.1,0-0.2v-0.1c0.1-0.3,0.1-0.6,0.2-1c0-0.5,0-1.1-0.1-1.6c-0.1-0.4-0.2-0.8-0.3-1.2
	c-0.1-0.4-0.3-0.9-0.6-1.2c-0.2-0.3-0.4-0.5-0.6-0.8l-0.2-0.3c-0.2-0.3-0.5-0.5-0.7-0.7c-0.2-0.2-0.4-0.3-0.6-0.4
	c-0.1-0.1-0.3-0.1-0.4-0.2l-0.2-0.1l-0.3-0.2c-0.3-0.2-0.7-0.3-1.1-0.5c-0.4-0.1-0.9-0.2-1.3-0.3c-0.3,0-0.6,0-0.9,0h-0.7
	L246.2,243.8z"/>
<path class="st1" d="M264.1,243.8h-0.3h-0.1c-0.3,0-0.6,0.1-0.8,0.1h-0.1c-0.2,0-0.4,0.1-0.6,0.1c-0.3,0.1-0.6,0.2-0.9,0.3
	c-0.2,0.1-0.4,0.2-0.6,0.3c-0.2,0.1-0.5,0.3-0.7,0.5l-0.1,0.1c-0.4,0.3-0.8,0.7-1.1,1.2c-0.2,0.3-0.4,0.6-0.5,0.9
	c-0.1,0.2-0.3,0.4-0.4,0.6c-0.2,0.4-0.4,0.8-0.6,1.3c-0.1,0.4-0.3,0.8-0.4,1.2c-0.1,0.4-0.2,0.8-0.3,1.2c-0.1,0.5-0.1,0.9-0.1,1.4
	c0,0.5,0.1,0.9,0.3,1.4c0.3,0.9,0.7,1.9,1.3,2.7c0.3,0.5,0.6,0.9,1,1.3c0.2,0.2,0.5,0.4,0.7,0.6c0.2,0.2,0.5,0.3,0.8,0.4h0.1
	c0.2,0.1,0.4,0.1,0.5,0.2h0.1l0.3,0.1l0.3,0.1c0.6,0.2,1.1,0.3,1.7,0.3c0.3,0,0.6,0,0.9,0.1c0.2,0,0.4,0,0.6,0
	c0.4-0.1,0.9-0.1,1.3-0.2c0,0,0,0.1,0,0.1v0.1v0.2v0.1l0,0c0,0.1,0,0.1-0.1,0.2c0,0.1,0,0.2-0.1,0.2c-0.1,0.2-0.1,0.4-0.2,0.5
	c-0.1,0.2-0.1,0.3-0.2,0.4l-0.1,0.3l-0.1,0.2l-0.1,0.1l0,0.1l-0.1,0.3l-0.1,0.2l-0.1,0.2l-0.1,0.1l-0.1,0.3
	c-0.1,0.1-0.1,0.2-0.2,0.3l-0.2,0.3l-0.1,0.1l-0.1,0.1l-0.1,0.2l-0.1,0.1l-0.1,0.2l-0.1,0.1l-0.1,0.2l-0.1,0.1l-0.1,0.1l-0.1,0
	l-0.2,0.2l-0.1,0.1c-0.1,0.1-0.2,0.2-0.3,0.3l-0.2,0.3c0,0.1-0.1,0.1-0.1,0.2l-0.1,0.1c-0.1,0.1-0.3,0.3-0.4,0.4c0,0,0,0.1,0,0.1
	c0,0.1,0,0.1,0.1,0.1c0,0,0.1,0,0.1,0c0.1,0,0.2,0,0.2-0.1c0.2-0.1,0.3-0.2,0.5-0.3l0.1-0.1l0.1-0.1l0.2-0.1l0.2-0.1l0.2-0.1
	l0.1-0.1l0.1-0.1l0.2-0.1c0.2-0.1,0.3-0.2,0.4-0.3l0.3-0.2l0.1-0.1l0.2-0.2c0.1-0.1,0.2-0.2,0.3-0.3l0.1-0.1l0.2-0.2l0,0l0.1-0.1
	l0.1-0.2c0.2-0.2,0.3-0.4,0.5-0.6c0.1-0.1,0.1-0.2,0.2-0.3l0.1-0.2l0,0c0.2-0.2,0.4-0.5,0.6-0.7c0.1-0.1,0.2-0.2,0.3-0.4l0.2-0.3
	l0.1-0.1c0.1-0.1,0.1-0.2,0.2-0.3c0-0.1,0.1-0.1,0.1-0.2l0.1-0.1l0.1-0.1c0,0,0.1-0.1,0.1-0.1l0.2-0.4l0.1-0.1l0-0.1
	c0,0,0-0.1,0.1-0.1v0c0-0.1,0.1-0.1,0.1-0.2c0,0,0-0.1,0.1-0.1l0.1-0.2l0.1-0.1l0.2-0.3l0-0.1v-0.1l0.1-0.2c0-0.1,0-0.1,0.1-0.2
	l0.1-0.2l0.1-0.3v-0.1l0.1-0.1c0-0.1,0-0.1,0.1-0.2c0-0.1,0.1-0.1,0.1-0.2l0.1-0.1v-0.1l0.1-0.2c0-0.1,0.1-0.1,0.1-0.2v0
	c0-0.1,0.1-0.1,0.1-0.2c0-0.1,0.1-0.2,0.1-0.2l0-0.1c0,0,0-0.1,0-0.1v0c0-0.1,0.1-0.2,0.1-0.2c0-0.1,0-0.1,0.1-0.2
	c0-0.1,0-0.1,0.1-0.2c0,0,0-0.1,0-0.1l0-0.1c0-0.1,0.1-0.2,0.1-0.3c0-0.1,0-0.1,0-0.1c0,0,0-0.1,0-0.1c0,0,0-0.1,0-0.1v0
	c0,0,0-0.1,0-0.1c0,0,0-0.1,0-0.1V255c0-0.1,0-0.1,0-0.2c0,0,0-0.1,0-0.1c0,0,0-0.1,0-0.1v-0.1v-0.1c0,0,0-0.1,0.1-0.1v-0.1v-0.1
	c0,0,0-0.1,0-0.1v-0.1c0,0,0-0.1,0-0.1l0-0.1c0-0.1,0.1-0.2,0.1-0.3v-0.1v-0.1c0-0.1,0-0.1,0-0.2c0-0.1,0-0.2,0-0.3c0,0,0-0.1,0-0.1
	v-0.1c0-0.1,0-0.1,0-0.2c0-0.1,0-0.1,0-0.2v-0.1c0.1-0.3,0.1-0.6,0.2-1c0-0.5,0-1.1-0.1-1.6c-0.1-0.4-0.2-0.8-0.3-1.2
	c-0.1-0.4-0.3-0.9-0.6-1.2c-0.2-0.3-0.4-0.5-0.6-0.8l-0.2-0.3c-0.2-0.3-0.5-0.5-0.7-0.7c-0.2-0.2-0.4-0.3-0.6-0.4
	c-0.1-0.1-0.3-0.1-0.4-0.2l-0.2-0.1l-0.3-0.2c-0.3-0.2-0.7-0.3-1.1-0.5c-0.4-0.1-0.9-0.2-1.3-0.3c-0.3,0-0.6,0-0.9,0L264.1,243.8
	L264.1,243.8z"/>
</svg>
