<?xml version="1.0" encoding="utf-8"?>
<!-- Generator: Adobe Illustrator 24.1.2, SVG Export Plug-In . SVG Version: 6.00 Build 0)  -->
<svg version="1.1" id="Layer_1" xmlns="http://www.w3.org/2000/svg" xmlns:xlink="http://www.w3.org/1999/xlink" x="0px" y="0px"
	 viewBox="0 0 286 281.8" style="enable-background:new 0 0 286 281.8;" xml:space="preserve">
<style type="text/css">
	.st0{fill:#9AA4BD;}
	.st1{fill:#FEFEFE;}
</style>
<rect y="0" class="st0" width="286" height="281.7"/>
<path class="st1" d="M260.4,252.3c-0.6,0-1.2,0-1.9,0h-1.5c-0.4,0-0.7,0-1.1,0.1l-0.5,0.1c-0.2,0-0.5,0-0.7,0
	c-0.3,0-0.5,0.1-0.8,0.3c-0.6,0.1-0.9,0.6-0.9,1.2c0,0.6,0,1.2,0,1.9c0,0.3,0,0.6-0.1,0.8c0,0.3-0.1,0.6-0.1,0.9c0,1.1,0,2.3,0,3.4
	v3.4c0,0.5,0,1,0.1,1.4c0,0.1,0.1,0.3,0.2,0.4c0.2,0.3,0.5,0.5,0.8,0.6c0.3,0.1,0.5,0.1,0.8,0.1c0.4,0,0.8,0,1.1,0h8.1
	c0.5,0,1-0.3,1.2-0.7c0.1-0.2,0.2-0.5,0.2-0.8c0-0.1,0-0.2,0-0.3c0-0.5,0-0.9,0-1.4v-0.9c0-0.3,0-0.7-0.1-1v0.1c0-0.1,0-0.1,0-0.2
	c-0.1-0.5-0.1-1.1-0.1-1.6c0-0.3,0-0.6-0.1-1l-0.1-0.4c-0.1-0.7,0-1.4-0.1-2.1v-1.9c0-0.4,0-0.8-0.1-1.1c0-0.1,0-0.2-0.1-0.3
	c-0.1-0.2-0.2-0.4-0.4-0.6c-0.2-0.2-0.4-0.3-0.6-0.4c-0.3-0.1-0.6-0.1-0.9-0.1h-0.3c-0.2,0-0.4,0-0.6,0c-0.3,0-0.6-0.1-0.9-0.1h-0.2
	C260.9,252.2,260.6,252.2,260.4,252.3L260.4,252.3z M258.7,254.8c0.5,0,0.9,0,1.4,0c0.5-0.1,0.9-0.1,1.4-0.1
	c0.4,0.1,0.7,0.1,1.1,0.1h0.1c0,0.2,0,0.4,0,0.6v1.2c0,0.6,0,1.1,0,1.7c0,0.5,0.1,0.9,0.2,1.4c0,0.3,0,0.6,0,1
	c0,0.5,0.1,0.9,0.1,1.4c0,0.1,0,0.2,0,0.2c0,0.3,0,0.6,0,0.9v1.4h-0.8h-6.9c0-0.6,0-1.2,0-1.8v-2.9c0-1,0-1.9,0.1-2.9
	c0-0.5,0.1-1,0.1-1.5v-0.6l0,0c0.3,0,0.6-0.1,0.9-0.1c0.3,0,0.7,0,1,0L258.7,254.8z M255.4,265.2L255.4,265.2L255.4,265.2z
	 M263.1,262.2v-0.1V262.2z M263.1,262.1C263.1,262.1,263.1,262,263.1,262.1v-0.2C263.1,261.9,263.1,262,263.1,262.1L263.1,262.1z"/>
<path class="st1" d="M258.1,265.6c-0.3,0.6-0.6,1.2-0.9,1.8c-0.3,0.6-0.6,1.2-0.9,1.9c-0.6,1.2-1.2,2.4-1.7,3.6
	c-0.3,0.6-0.5,1.3-0.7,2c-0.1,0.2-0.1,0.5,0,0.7c0.1,0.3,0.3,0.6,0.6,0.8c0.5,0.2,1,0.2,1.5-0.1c0.3-0.2,0.6-0.4,0.9-0.7
	c0.5-0.4,1.1-0.8,1.6-1.3c0.6-0.5,1.1-1,1.7-1.5c0.3-0.2,0.5-0.5,0.8-0.8c0.3-0.3,0.4-0.4,0.6-0.7c0.4-0.5,0.9-1,1.3-1.6l-0.2,0.2
	l0.3-0.3l0,0c0.2-0.3,0.5-0.6,0.7-0.9c0.3-0.3,0.4-0.4,0.5-0.7c0.1-0.1,0.2-0.2,0.3-0.3c0.1-0.1,0.1-0.1,0.2-0.2
	c0.1-0.1,0.2-0.2,0.3-0.3c0.2-0.3,0.2-0.6,0.1-0.9c-0.1-0.3-0.3-0.6-0.6-0.7c-0.3-0.2-0.6-0.2-0.9-0.1c-0.2,0.1-0.5,0.2-0.6,0.4l0,0
	c0,0,0-0.1,0.1-0.1c0,0-0.1,0.1-0.1,0.1l0,0c-0.3,0.2-0.5,0.5-0.7,0.8l0.1-0.2c-0.4,0.5-0.9,1-1.3,1.6l0.1-0.1
	c-0.1,0.2-0.3,0.4-0.4,0.6l0.2-0.3c-0.3,0.4-0.6,0.8-1,1.2c-0.4,0.4-0.8,0.9-1.2,1.3c-0.2,0.2-0.4,0.4-0.6,0.6l0.5-1
	c0.3-0.6,0.6-1.2,0.9-1.8s0.6-1.2,0.9-1.8c0.3-0.6,0.1-1.3-0.4-1.7c0,0,0,0,0,0c-0.2-0.1-0.4-0.2-0.6-0.2
	C258.7,265,258.3,265.3,258.1,265.6L258.1,265.6z M262.9,265.9l-0.1,0.1v0L262.9,265.9L262.9,265.9L262.9,265.9z"/>
<path class="st1" d="M256.3,253.8c-0.1,0.1-0.2,0.2-0.4,0.3c-0.2,0.2-0.4,0.4-0.5,0.7c-0.1,0.2-0.2,0.4-0.2,0.6l-0.1,0.1
	c-0.2,0.2-0.4,0.4-0.5,0.6c-0.1,0.3-0.2,0.6-0.2,0.9c0,0.3,0,0.6,0,0.8c0,0.6,0,1.1,0,1.7c0,0.2,0,0.4,0.1,0.5
	c0,0.3-0.1,0.6-0.2,0.9c-0.1,0.6-0.2,1.2-0.3,1.8c-0.1,0.4-0.1,0.7-0.2,1.1c0,0.3,0,0.6,0,0.9c0.3,1.1,1.4,1.7,2.4,1.4
	c0.1,0,0.1,0,0.2,0c0.4-0.1,0.7-0.4,1-0.7c0.2-0.2,0.3-0.4,0.4-0.7h0.4c0.1,0.1,0.2,0.2,0.3,0.3c0.1,0.1,0.3,0.2,0.5,0.2
	c0.3,0.1,0.5,0.1,0.8,0c0.1,0,0.2-0.1,0.3-0.1c0.1,0.1,0.2,0.3,0.2,0.4c0.1,0.1,0.1,0.3,0.1,0.4s-0.1,0.2-0.2,0.2l0,0
	c-0.3,0.4-0.5,0.7-0.8,1.1l0.2-0.3l-0.4,0.5c-0.3,0.3-0.6,0.7-0.9,1c-0.3,0.3-0.6,0.7-0.9,1.1l0,0c-0.3,0.4-0.6,0.8-0.9,1.2
	c-0.2,0.3-0.2,0.6-0.1,0.9c0.1,0.3,0.3,0.6,0.6,0.7c0.3,0.2,0.6,0.2,0.9,0.1c0.3-0.1,0.6-0.3,0.7-0.6l0.5-0.6
	c0.1-0.1,0.2-0.3,0.3-0.4c0.6-0.8,1.3-1.5,1.9-2.3l0,0c0.1-0.2,0.3-0.4,0.4-0.6c0.1-0.2,0.2-0.3,0.3-0.5c0.1-0.1,0.3-0.4,0.4-0.5
	c-0.1-0.5,0.1-1.1,0.4-1.5c0.2-0.5,0.3-1,0.3-1.5c0-0.3,0-0.6,0-0.9s0-0.7,0-1c0.1-1.1,0.2-2.2,0.2-3.2c0-0.5,0.1-1.1,0.1-1.6
	c0-0.3,0-0.5,0-0.8c0-0.4,0-0.7,0-1.1c-0.1-0.6-0.7-1.1-1.3-1.1c-0.2,0-0.4,0-0.6,0.1c-0.1-0.2-0.2-0.4-0.4-0.6
	c-0.5-0.5-1.1-0.4-1.8-0.4c-0.4,0-0.7,0-1.1,0l-0.4-0.1c-0.3-0.1-0.5-0.1-0.8-0.2h0C257.1,253.2,256.7,253.4,256.3,253.8
	L256.3,253.8z M259.5,271.4L259.5,271.4L259.5,271.4z"/>
<path class="st1" d="M275.9,252.3c-0.6,0-1.2,0-1.9,0h-1.4c-0.4,0-0.7,0-1.1,0.1c-0.2,0-0.3,0.1-0.5,0.1c-0.2,0-0.5,0-0.7,0
	c-0.3,0-0.5,0.1-0.8,0.3c-0.6,0.1-0.9,0.6-0.9,1.2c0,0.6,0,1.2,0,1.9c0,0.3,0,0.6-0.1,0.8c0,0.3,0,0.6-0.1,0.9c0,1.1,0,2.3,0,3.4
	v3.4c0,0.5,0,1,0.1,1.4c0,0.2,0.1,0.3,0.2,0.4c0.2,0.3,0.5,0.5,0.8,0.6c0.3,0.1,0.5,0.1,0.8,0.1c0.4,0,0.8,0,1.1,0h8.1
	c0.5,0,1-0.3,1.2-0.7c0.1-0.2,0.2-0.5,0.2-0.8c0-0.1,0-0.2,0-0.3c0-0.5,0-0.9,0-1.4c0-0.3,0-0.6,0-0.9c0-0.3,0-0.7-0.1-1v0.1
	c0-0.1,0-0.1,0-0.2c-0.1-0.5-0.1-1.1-0.1-1.6c0-0.3,0-0.6-0.1-1c0-0.1,0-0.3-0.1-0.4c-0.1-0.7-0.1-1.4-0.1-2.1v-1.9
	c0-0.4,0-0.8-0.1-1.1c0-0.1,0-0.2-0.1-0.3c-0.1-0.2-0.2-0.4-0.4-0.6c-0.2-0.2-0.4-0.3-0.6-0.4c-0.3-0.1-0.6-0.1-0.9-0.1h-0.3
	c-0.2,0-0.4,0-0.5,0c-0.3,0-0.6-0.1-0.9-0.1h-0.2C276.4,252.2,276.1,252.2,275.9,252.3L275.9,252.3z M274.2,254.8c0.5,0,0.9,0,1.4,0
	c0.5-0.1,0.9-0.1,1.4-0.1c0.4,0.1,0.7,0.1,1.1,0.1h0.1c0,0.2,0,0.4,0,0.6v1.2c0,0.6,0,1.1,0,1.7c0,0.5,0.1,0.9,0.2,1.4
	c0,0.3,0,0.6,0,1c0,0.5,0,0.9,0.1,1.4c0,0.1,0,0.2,0,0.2c0,0.3,0,0.6,0,0.9c0,0.3,0,0.6,0,0.9c0,0.2,0,0.4,0,0.6h-0.8h-6.9
	c0-0.6,0-1.2,0-1.8v-2.9c0-1,0-1.9,0.1-2.9c0-0.5,0.1-1,0.1-1.5c0-0.2,0-0.4,0-0.6h0c0.3,0,0.6-0.1,0.9-0.1c0.3,0,0.7,0,1,0
	L274.2,254.8z M270.9,265.2L270.9,265.2L270.9,265.2z M278.6,262.2v-0.1C278.6,262.1,278.6,262.2,278.6,262.2z M278.6,262.1
	C278.6,262.1,278.6,262,278.6,262.1v-0.2C278.6,261.9,278.6,262,278.6,262.1L278.6,262.1z"/>
<path class="st1" d="M273.6,265.6c-0.3,0.6-0.6,1.2-0.9,1.8c-0.3,0.6-0.6,1.2-0.9,1.9c-0.6,1.2-1.2,2.4-1.7,3.6
	c-0.3,0.6-0.5,1.3-0.7,2c-0.1,0.2-0.1,0.5,0,0.7c0.1,0.3,0.3,0.6,0.6,0.8c0.5,0.2,1,0.2,1.5-0.1c0.3-0.2,0.6-0.4,0.9-0.7
	c0.5-0.4,1.1-0.8,1.6-1.3c0.5-0.5,1.1-1,1.6-1.5c0.3-0.2,0.5-0.5,0.8-0.8c0.3-0.3,0.4-0.4,0.6-0.7c0.4-0.5,0.9-1,1.3-1.6l-0.2,0.2
	l0.3-0.3l0,0c0.2-0.3,0.5-0.6,0.7-0.9c0.3-0.3,0.4-0.4,0.5-0.7c0.1-0.1,0.2-0.2,0.3-0.3c0.1-0.1,0.1-0.1,0.2-0.2
	c0.1-0.1,0.2-0.2,0.3-0.3c0.2-0.3,0.2-0.6,0.1-0.9c-0.2-0.7-0.9-1-1.5-0.9c0,0,0,0,0,0c-0.2,0.1-0.5,0.2-0.6,0.4l0,0
	c0,0,0-0.1,0.1-0.1c0,0-0.1,0.1-0.1,0.1l0,0c-0.3,0.2-0.5,0.5-0.7,0.7l0.1-0.2c-0.4,0.5-0.9,1-1.3,1.6l0.1-0.1l-0.4,0.6l0.2-0.3
	c-0.3,0.4-0.6,0.8-1,1.2c-0.4,0.4-0.8,0.9-1.2,1.3c-0.2,0.2-0.4,0.4-0.6,0.6c0.2-0.3,0.3-0.6,0.5-1c0.3-0.6,0.6-1.2,0.9-1.8
	c0.3-0.6,0.6-1.2,0.9-1.8c0.3-0.6,0.1-1.3-0.5-1.7c-0.2-0.1-0.4-0.2-0.6-0.2C274.2,265,273.8,265.2,273.6,265.6L273.6,265.6z
	 M278.4,265.9l-0.1,0.1v0L278.4,265.9L278.4,265.9L278.4,265.9z"/>
<path class="st1" d="M271.8,253.8c-0.1,0.1-0.2,0.2-0.4,0.3c-0.2,0.2-0.4,0.4-0.5,0.7c-0.1,0.2-0.2,0.4-0.2,0.6l-0.1,0.1
	c-0.2,0.2-0.4,0.4-0.5,0.6c-0.1,0.3-0.2,0.6-0.2,0.9c0,0.3,0,0.6,0,0.8c0,0.6,0,1.1,0,1.7c0,0.2,0,0.4,0.1,0.5
	c-0.1,0.3-0.1,0.6-0.2,0.9c-0.1,0.6-0.2,1.2-0.3,1.8c-0.1,0.4-0.1,0.7-0.2,1.1c0,0.3,0,0.6,0.1,0.9c0.1,0.5,0.4,0.9,0.8,1.1
	c0.5,0.4,1.2,0.5,1.8,0.2c0.4-0.1,0.7-0.4,1-0.7c0.2-0.2,0.3-0.4,0.4-0.7h0.4c0.1,0.1,0.2,0.2,0.3,0.3c0.1,0.1,0.3,0.2,0.5,0.2
	c0.2,0.1,0.5,0.1,0.8,0c0.1,0,0.2-0.1,0.3-0.1c0.1,0.1,0.2,0.3,0.2,0.4c0.1,0.1,0.1,0.3,0.1,0.4c-0.1,0.1-0.1,0.2-0.2,0.2l0,0
	c-0.3,0.4-0.5,0.7-0.8,1.1l0.2-0.3l-0.4,0.5c-0.3,0.3-0.6,0.7-0.9,1c-0.3,0.3-0.6,0.7-0.9,1.1l0,0c-0.3,0.4-0.6,0.8-0.9,1.2
	c-0.2,0.3-0.2,0.6-0.1,0.9c0.1,0.3,0.3,0.6,0.6,0.7c0.3,0.2,0.6,0.2,0.9,0.1c0.3-0.1,0.6-0.3,0.7-0.6l0.5-0.6
	c0.1-0.1,0.2-0.3,0.3-0.4c0.6-0.8,1.3-1.5,1.9-2.3l0,0c0.1-0.2,0.3-0.4,0.4-0.6c0.1-0.2,0.2-0.3,0.3-0.5c0.1-0.1,0.3-0.4,0.4-0.5
	c0.3-0.4,0.4-0.9,0.3-1.4c0-0.1,0.1-0.1,0.1-0.2c0.2-0.5,0.3-1,0.3-1.5c0-0.3,0-0.6,0-0.9s0-0.7,0-1c0.1-1.1,0.2-2.2,0.2-3.2
	c0-0.5,0.1-1.1,0.1-1.6c0-0.3,0-0.5,0-0.8c0-0.4,0-0.7,0-1.1c-0.1-0.6-0.7-1.1-1.3-1.1c-0.2,0-0.4,0-0.6,0.1
	c-0.1-0.2-0.2-0.4-0.4-0.6c-0.5-0.5-1.1-0.4-1.8-0.4c-0.4,0-0.7,0-1.1,0l-0.4-0.1c-0.3-0.1-0.5-0.1-0.8-0.2h0
	C272.6,253.2,272.2,253.4,271.8,253.8L271.8,253.8z M275,271.4L275,271.4L275,271.4z"/>
<path class="st1" d="M27.3,31.6c0.7-0.1,1.4-0.1,2-0.1h1.6c0.4,0,0.8,0,1.1-0.1l0.6-0.1c0.3,0,0.5,0,0.8,0c0.3,0,0.6-0.1,0.8-0.3
	c0.6-0.1,1-0.7,1-1.3c0-0.7,0-1.4,0-2c0-0.3,0-0.6,0.1-0.9c0-0.3,0.1-0.6,0.1-1c0.1-1.2,0-2.5,0-3.8v-3.7c0.1-0.5,0-1.1-0.1-1.6
	c0-0.2-0.1-0.3-0.2-0.5c-0.2-0.3-0.5-0.6-0.9-0.7c-0.3-0.1-0.6-0.1-0.9-0.1c-0.4,0-0.8,0-1.2,0h-8.8c-0.6,0-1.1,0.3-1.4,0.8
	c-0.1,0.3-0.2,0.6-0.2,0.9c0,0.1,0,0.2,0,0.3c0,0.5,0,1,0,1.5c0,0.3,0,0.7,0,1c0,0.4,0,0.7,0.1,1.1V21c0,0.1,0,0.1,0,0.2
	c0.1,0.6,0.1,1.2,0.1,1.7c0,0.4,0,0.7,0,1.1c0,0.1,0.1,0.3,0.1,0.4c0.1,0.8,0.1,1.6,0.1,2.3v2c0,0.4,0,0.8,0.1,1.2
	c0,0.1,0.1,0.2,0.1,0.3c0.1,0.3,0.2,0.5,0.4,0.7c0.2,0.2,0.4,0.3,0.7,0.4c0.3,0.1,0.7,0.1,1,0.1h0.4c0.2,0,0.4,0,0.6,0
	c0.3,0,0.6,0.1,0.9,0.1h0.2C26.6,31.7,26.9,31.7,27.3,31.6L27.3,31.6z M29.1,28.9c-0.5,0-1,0-1.6,0C27,29,26.5,29,26,29
	c-0.4-0.1-0.8-0.1-1.2-0.1h-0.1c0-0.2,0-0.5,0-0.7v-1.4c0-0.6,0-1.2,0-1.8c0-0.5-0.1-1-0.2-1.5c0-0.3,0-0.7,0-1c0-0.5,0-1-0.1-1.5
	c0-0.1,0-0.2,0-0.3c0-0.3,0-0.7,0-1c0-0.3,0-0.6,0-0.9c0-0.2,0-0.4,0-0.6h8.4c0,0.6,0,1.3,0,1.9v3.2c0,1.1,0,2.1-0.1,3.2
	c0,0.5-0.1,1.1-0.1,1.6c0,0.2,0,0.4,0,0.6l0,0c-0.3,0-0.6,0.1-0.9,0.2c-0.3,0.1-0.8,0-1.1,0L29.1,28.9z M32.7,17.5L32.7,17.5
	L32.7,17.5z M24.3,20.7v0.1C24.3,20.8,24.3,20.8,24.3,20.7z M24.3,20.9C24.3,20.9,24.3,20.9,24.3,20.9v0.2
	C24.3,21,24.3,20.9,24.3,20.9L24.3,20.9z"/>
<path class="st1" d="M29.8,17c0.3-0.6,0.7-1.3,0.9-1.9c0.3-0.6,0.7-1.4,1-2c0.6-1.3,1.3-2.6,1.8-4c0.3-0.7,0.6-1.4,0.7-2.1
	c0.1-0.3,0.1-0.5,0-0.8c-0.1-0.4-0.3-0.7-0.6-0.8c-0.5-0.3-1.1-0.2-1.6,0.1c-0.3,0.2-0.7,0.4-1,0.7c-0.6,0.4-1.2,0.9-1.7,1.4
	l-1.8,1.7C27.2,9.5,27,9.8,26.7,10c-0.3,0.3-0.5,0.5-0.7,0.7c-0.5,0.6-0.9,1.1-1.4,1.7l0.2-0.3c-0.1,0.1-0.2,0.2-0.3,0.4l0-0.1
	c-0.3,0.3-0.5,0.7-0.8,1s-0.4,0.5-0.6,0.7c-0.1,0.1-0.2,0.2-0.3,0.3c-0.1,0.1-0.2,0.1-0.2,0.2c-0.1,0.1-0.2,0.2-0.3,0.4
	c-0.2,0.3-0.2,0.7-0.1,1c0.1,0.3,0.3,0.6,0.6,0.8c0.3,0.2,0.7,0.2,1,0.1c0.3-0.1,0.5-0.2,0.7-0.5l0,0l-0.1,0.1
	c0-0.1,0.1-0.1,0.1-0.1l0,0c0.3-0.2,0.5-0.5,0.8-0.8L25.2,16c0.5-0.6,1-1.1,1.4-1.7l-0.1,0.1l0.5-0.6L26.8,14
	c0.3-0.4,0.7-0.9,1.1-1.3c0.4-0.4,0.9-0.9,1.4-1.4c0.2-0.2,0.4-0.4,0.7-0.6c-0.2,0.4-0.3,0.7-0.5,1.1c-0.3,0.7-0.7,1.3-1,1.9
	c-0.3,0.6-0.6,1.3-1,1.9c-0.4,0.6-0.2,1.5,0.5,1.8C28.6,17.9,29.4,17.7,29.8,17C29.8,17,29.8,17,29.8,17L29.8,17z M24.5,16.7
	c0-0.1,0.1-0.1,0.1-0.2c0-0.1,0,0,0,0L24.5,16.7L24.5,16.7L24.5,16.7z"/>
<path class="st1" d="M31.7,29.9c0.1-0.1,0.2-0.3,0.4-0.4c0.2-0.2,0.4-0.5,0.6-0.8c0.1-0.2,0.2-0.4,0.2-0.6c0,0,0,0,0.1-0.1
	c0.2-0.2,0.4-0.4,0.5-0.7c0.1-0.3,0.2-0.7,0.3-1c0-0.3,0-0.6,0-0.9c0-0.6,0-1.2,0-1.8c0-0.2,0-0.4-0.1-0.6c0.1-0.3,0.1-0.7,0.2-1
	c0.1-0.7,0.2-1.3,0.3-1.9c0.1-0.4,0.1-0.8,0.2-1.2c0.1-0.3,0-0.7,0-1c-0.1-0.5-0.4-0.9-0.9-1.2c-0.6-0.4-1.3-0.5-2-0.3
	c-0.4,0.2-0.8,0.4-1.1,0.7c-0.2,0.2-0.4,0.5-0.5,0.8h-0.5c-0.1-0.1-0.2-0.2-0.3-0.3c-0.2-0.1-0.3-0.2-0.5-0.3
	c-0.3-0.1-0.6-0.1-0.8,0c-0.1,0-0.2,0.1-0.4,0.1c-0.1-0.1-0.2-0.3-0.3-0.5c-0.1-0.2-0.1-0.3-0.1-0.5l0.2-0.3v0
	c0.3-0.4,0.6-0.8,0.8-1.2l-0.2,0.3l0.4-0.5c0.3-0.4,0.6-0.7,0.9-1.1c0.3-0.4,0.7-0.8,1-1.2l0,0c0.3-0.4,0.7-0.9,1-1.3
	c0.2-0.3,0.2-0.7,0.1-1c-0.1-0.3-0.3-0.6-0.6-0.8c-0.3-0.2-0.7-0.2-1-0.1c-0.3,0.1-0.6,0.3-0.8,0.6c-0.2,0.2-0.3,0.5-0.5,0.7
	L28,11.1c-0.7,0.9-1.5,1.7-2.1,2.5l0,0c-0.2,0.2-0.3,0.4-0.5,0.6c-0.1,0.2-0.2,0.3-0.3,0.5l-0.5,0.6c-0.3,0.4-0.4,1-0.3,1.5
	c0,0.1-0.1,0.1-0.1,0.2c-0.2,0.5-0.3,1.1-0.3,1.7c0,0.3,0,0.7,0,1s0,0.7,0,1.1c-0.2,1.2-0.2,2.4-0.3,3.5c0,0.6-0.1,1.2-0.1,1.8
	c0,0.3,0,0.6-0.1,0.9c0,0.4,0,0.8,0,1.1c0.2,0.7,0.8,1.2,1.5,1.2c0.2,0,0.4,0,0.6-0.1c0.1,0.2,0.2,0.4,0.4,0.6
	c0.5,0.5,1.3,0.4,1.9,0.4c0.4,0,0.8,0,1.2,0l0.4,0.1c0.3,0.1,0.6,0.2,0.9,0.2h0.1C30.9,30.5,31.4,30.3,31.7,29.9L31.7,29.9z
	 M28.3,10.7l0.1-0.1L28.3,10.7z"/>
<path class="st1" d="M10.3,31.6c0.7-0.1,1.4-0.1,2-0.1h1.6c0.4,0,0.8,0,1.1-0.1l0.6-0.1l0.8,0c0.3,0,0.6-0.1,0.8-0.3
	c0.6-0.1,1-0.7,1-1.3c0-0.7,0-1.4-0.1-2c0-0.3,0-0.6,0.1-0.9c0-0.3,0.1-0.6,0.1-1c0.1-1.2,0-2.5,0-3.8v-3.7c0.1-0.5,0-1.1-0.1-1.6
	c-0.1-0.2-0.1-0.3-0.2-0.5c-0.2-0.3-0.5-0.6-0.9-0.7c-0.3-0.1-0.6-0.1-0.9-0.1c-0.4,0-0.8,0-1.2,0H6.2c-0.6,0-1.1,0.3-1.4,0.8
	c-0.1,0.3-0.2,0.6-0.2,0.9v0.3c0,0.5,0,1,0,1.5V20c0,0.4,0,0.7,0.1,1.1V21c0,0.1,0,0.1,0,0.2c0.1,0.6,0.1,1.2,0.1,1.7
	c0,0.4,0,0.7,0,1.1L5,24.5C5,25.3,5,26.1,5,26.8v2c0,0.4,0,0.8,0.1,1.2c0,0.1,0.1,0.2,0.1,0.3c0.1,0.3,0.2,0.5,0.4,0.7
	c0.2,0.2,0.4,0.3,0.7,0.4c0.3,0.1,0.7,0.1,1,0.1h0.4c0.2,0,0.4,0,0.6,0c0.3,0,0.6,0.1,0.9,0.1h0.1C9.6,31.7,10,31.6,10.3,31.6
	L10.3,31.6z M12.1,28.9c-0.5,0-1,0-1.6,0C10,29,9.5,29,9,29c-0.4-0.1-0.8-0.1-1.2-0.1H7.7c0-0.2,0-0.5,0-0.7v-1.4c0-0.6,0-1.2,0-1.8
	c0-0.5-0.1-1-0.2-1.5c0-0.3,0-0.7,0-1c0-0.5,0-1-0.1-1.5l-0.1-0.3c0-0.3,0-0.7,0-1v-1.6h8.4c0,0.6,0,1.3,0,1.9c0,1.1,0,2.1,0,3.2
	c0,1.1,0,2.1-0.1,3.2c0,0.5-0.1,1.1-0.1,1.6c0,0.2,0,0.4,0,0.6h0c-0.3,0-0.6,0.1-1,0.2c-0.3,0.1-0.8,0-1.1,0L12.1,28.9z M15.7,17.5
	L15.7,17.5L15.7,17.5z M7.3,20.7v0.1V20.7z M7.3,20.9C7.3,20.9,7.3,20.9,7.3,20.9c0,0.1,0,0.2,0,0.2C7.3,21,7.3,20.9,7.3,20.9z"/>
<path class="st1" d="M12.8,17c0.3-0.6,0.7-1.3,1-1.9c0.3-0.6,0.7-1.4,1-2c0.6-1.3,1.3-2.6,1.8-4c0.3-0.7,0.6-1.4,0.7-2.1
	c0.1-0.3,0.1-0.5,0-0.8c-0.1-0.4-0.3-0.7-0.7-0.8c-0.5-0.3-1.1-0.2-1.6,0.1c-0.3,0.2-0.6,0.5-0.9,0.7c-0.6,0.4-1.2,0.9-1.7,1.4
	l-1.8,1.7C10.3,9.5,10,9.8,9.7,10c-0.3,0.3-0.5,0.5-0.7,0.7c-0.5,0.6-0.9,1.1-1.4,1.7l0.2-0.3c-0.1,0.1-0.2,0.2-0.3,0.4l0,0
	c-0.3,0.3-0.5,0.7-0.8,1c-0.3,0.3-0.4,0.5-0.6,0.7c-0.1,0.1-0.2,0.2-0.3,0.3c-0.1,0.1-0.2,0.1-0.2,0.2c-0.1,0.1-0.2,0.2-0.3,0.4
	c-0.2,0.3-0.2,0.7-0.1,1c0.1,0.3,0.3,0.6,0.6,0.8c0.3,0.2,0.7,0.2,1,0.1c0.3-0.1,0.5-0.2,0.7-0.5l0,0l-0.1,0.1
	c0-0.1,0.1-0.1,0.1-0.2l0,0c0.3-0.2,0.5-0.5,0.8-0.8C8.3,15.9,8.3,16,8.2,16c0.5-0.6,1-1.1,1.4-1.7l-0.1,0.1l0.5-0.6l-0.2,0.3
	c0.4-0.4,0.7-0.9,1.1-1.3c0.4-0.4,0.9-0.9,1.4-1.4c0.2-0.2,0.4-0.4,0.7-0.6l-0.5,1.1c-0.3,0.7-0.7,1.3-1,1.9c-0.3,0.6-0.6,1.3-1,1.9
	c-0.4,0.6-0.2,1.5,0.5,1.8C11.6,17.9,12.5,17.7,12.8,17L12.8,17z M7.5,16.7c0-0.1,0.1-0.1,0.1-0.2l0,0L7.5,16.7L7.5,16.7L7.5,16.7z"
	/>
<path class="st1" d="M14.7,29.9c0.1-0.1,0.3-0.3,0.4-0.4c0.2-0.2,0.4-0.5,0.6-0.8c0.1-0.2,0.2-0.4,0.2-0.6c0,0,0.1-0.1,0.1-0.1
	c0.2-0.2,0.4-0.4,0.5-0.7c0.1-0.3,0.2-0.7,0.2-1c0-0.3,0-0.6,0-0.9c0-0.6,0-1.2,0-1.8c0-0.2,0-0.4-0.1-0.6c0.1-0.3,0.1-0.7,0.2-1
	c0.1-0.7,0.2-1.3,0.3-1.9c0.1-0.4,0.1-0.8,0.2-1.2c0-0.3,0-0.7-0.1-1c-0.3-1.2-1.5-1.9-2.7-1.6c-0.1,0-0.1,0-0.2,0.1
	c-0.4,0.2-0.8,0.4-1.1,0.7c-0.2,0.2-0.4,0.5-0.5,0.8h-0.5c-0.1-0.1-0.2-0.2-0.3-0.3c-0.2-0.1-0.3-0.2-0.5-0.3
	c-0.3-0.1-0.6-0.1-0.8,0c-0.1,0-0.2,0.1-0.4,0.1c-0.1-0.1-0.2-0.3-0.3-0.5c-0.1-0.2-0.1-0.3-0.1-0.5c0.1-0.1,0.1-0.2,0.2-0.3l0,0
	c0.3-0.4,0.6-0.8,0.8-1.2l-0.2,0.3l0.4-0.5c0.3-0.4,0.6-0.7,0.9-1.1s0.7-0.8,1-1.2l0,0c0.3-0.4,0.7-0.9,1-1.3c0.2-0.3,0.2-0.7,0.1-1
	c-0.2-0.7-0.9-1.1-1.7-0.9c0,0,0,0,0,0c-0.3,0.1-0.6,0.3-0.8,0.6c-0.2,0.2-0.3,0.5-0.5,0.7L11,11c-0.7,0.9-1.5,1.7-2.1,2.5l0,0
	c-0.2,0.2-0.3,0.4-0.5,0.6c-0.1,0.2-0.2,0.3-0.3,0.5l-0.5,0.6c-0.3,0.4-0.4,1-0.3,1.5c0,0.1-0.1,0.1-0.1,0.2C7,17.5,6.9,18.1,7,18.7
	c0,0.3,0,0.7,0,1s0,0.7,0,1.1c-0.2,1.2-0.2,2.4-0.2,3.5c-0.1,0.6-0.1,1.2-0.1,1.8c0,0.3,0,0.6-0.1,0.9c0,0.4,0,0.8,0,1.2
	c0.2,0.7,0.8,1.2,1.5,1.2c0.2,0,0.4-0.1,0.6-0.2c0.1,0.2,0.2,0.4,0.4,0.6c0.5,0.5,1.3,0.4,1.9,0.4c0.4,0,0.8,0,1.2,0
	c0.1,0,0.3,0,0.4,0.1c0.3,0.1,0.6,0.2,0.9,0.2h0.1C13.9,30.5,14.4,30.3,14.7,29.9z M11.3,10.7l0.1-0.1L11.3,10.7L11.3,10.7z"/>
</svg>
