<svg xmlns="http://www.w3.org/2000/svg" viewBox="0 0 284.02 279.66"><defs><style>.cls-1{fill:#fefefe;}</style></defs><g id="Layer_2" data-name="Layer 2"><g id="Draw_Layer" data-name="Draw Layer"><path class="cls-1" d="M41.21,36.79a4.71,4.71,0,0,0,.53,0h.12c.44,0,.89-.1,1.33-.19l.09,0c.33-.06.66-.13,1-.21a10.29,10.29,0,0,0,1.39-.51c.34-.16.68-.31,1-.49a8.35,8.35,0,0,0,1.1-.77l.13-.11a9.42,9.42,0,0,0,1.78-1.87,7.74,7.74,0,0,0,.83-1.44c.22-.3.43-.6.62-.91a12.28,12.28,0,0,0,.94-2,16,16,0,0,0,.58-1.84c.16-.62.32-1.23.43-1.86a9.17,9.17,0,0,0,.12-2.13,9,9,0,0,0-.45-2.15,18.07,18.07,0,0,0-2-4.26,12.66,12.66,0,0,0-1.64-2.05A7.12,7.12,0,0,0,48,13a6.21,6.21,0,0,0-1.24-.61l-.11,0a8.63,8.63,0,0,0-.86-.28l-.16,0-.43-.14-.52-.16a15.09,15.09,0,0,0-2.7-.52,13.46,13.46,0,0,0-1.43-.08,8.7,8.7,0,0,0-.89,0,16.25,16.25,0,0,0-2,.39s0-.08,0-.13v-.13l0-.39v-.11h0a1.77,1.77,0,0,0,.08-.33c0-.12.07-.24.1-.36.1-.33.18-.6.28-.86l.31-.7.19-.43c0-.13.11-.26.17-.38l.08-.19.07-.13c.07-.17.15-.33.23-.5l.16-.32.13-.26.08-.16c.07-.14.14-.28.22-.42A5.64,5.64,0,0,1,40,5.26c.11-.17.23-.35.36-.52l.16-.2.14-.17.24-.3L41,4c.1-.12.18-.22.25-.32l.08-.11.22-.27.08-.12.08-.1L41.78,3l.25-.3.15-.19q.21-.26.42-.54L43,1.53a2.83,2.83,0,0,1,.24-.25l.17-.16A8.25,8.25,0,0,0,44,.42.26.26,0,0,0,44,.2.24.24,0,0,0,43.84,0a.48.48,0,0,0-.18,0,1.13,1.13,0,0,0-.36.08,4.1,4.1,0,0,0-.74.41l-.12.09-.16.11A3.53,3.53,0,0,1,42,.9l-.32.16-.32.16a1.19,1.19,0,0,1-.2.1l-.19.09a2.77,2.77,0,0,0-.34.2,5.31,5.31,0,0,0-.71.54l-.45.39-.15.13L39,2.93c-.18.16-.35.33-.52.51l-.2.2L37.91,4l-.07.07a1.59,1.59,0,0,0-.13.13l-.23.24c-.31.33-.55.61-.76.88l-.31.41L36.24,6,36.18,6c-.3.37-.59.73-.91,1.08a5.39,5.39,0,0,0-.47.6c-.11.16-.22.31-.34.46l-.1.13c-.11.14-.21.29-.32.44s-.11.16-.16.25l-.12.18-.14.21-.12.22-.35.62L33,10.4l0,.09-.1.18,0,.07a2.1,2.1,0,0,0-.13.26l-.11.2-.12.24-.13.23c-.09.17-.17.35-.24.52l-.08.17,0,.09a2.6,2.6,0,0,0-.1.25c0,.09-.07.17-.1.25l-.12.28c-.08.18-.15.35-.22.53l0,.12-.06.16a2.77,2.77,0,0,1-.1.26c0,.1-.09.2-.14.3a1.34,1.34,0,0,0-.07.18l0,.12-.12.27c-.05.11-.09.22-.14.34l0,.07a2.33,2.33,0,0,0-.11.28c0,.12-.09.24-.13.35a.57.57,0,0,0-.07.17l-.05.12,0,.07a3.14,3.14,0,0,0-.14.36c0,.1-.07.2-.11.31a1.58,1.58,0,0,0-.09.25l-.06.14-.06.14c-.06.15-.12.3-.17.45a1.72,1.72,0,0,1-.07.21.56.56,0,0,1,0,.12.83.83,0,0,1,0,.15l0,.07s0,.09-.05.13l0,.15,0,.1a1.82,1.82,0,0,1-.07.25.78.78,0,0,1-.05.14,1.12,1.12,0,0,1-.05.13l0,.1,0,.11a1.43,1.43,0,0,0-.08.22.83.83,0,0,0,0,.15v.09a1,1,0,0,1,0,.15l0,.09a.83.83,0,0,1,0,.15l-.06.19a1.78,1.78,0,0,0-.1.48l0,.11,0,.11a1.17,1.17,0,0,0,0,.27c0,.15,0,.3,0,.45a1.46,1.46,0,0,1,0,.2l0,.09a2,2,0,0,0,0,.24c0,.11,0,.22,0,.33l0,.17c-.09.45-.17.92-.24,1.53a9.31,9.31,0,0,0,.12,2.54,12.44,12.44,0,0,0,.45,1.94,7.85,7.85,0,0,0,.93,1.95,12.5,12.5,0,0,0,1,1.23l.37.41a9.16,9.16,0,0,0,1.16,1.17,5.15,5.15,0,0,0,1,.67c.22.12.45.22.69.33l.33.14.54.25a16.47,16.47,0,0,0,1.67.72,11.22,11.22,0,0,0,2.1.46,11.53,11.53,0,0,0,1.42.07h1.18Z"/><path class="cls-1" d="M13,36.79l.53,0h.12c.44,0,.89-.1,1.32-.19l.1,0c.33-.06.65-.13,1-.21a9.67,9.67,0,0,0,1.38-.51c.35-.16.69-.31,1-.49a7.21,7.21,0,0,0,1.1-.77l.14-.11a9.71,9.71,0,0,0,1.78-1.87,8.34,8.34,0,0,0,.83-1.44c.22-.3.42-.6.62-.91a12.19,12.19,0,0,0,.93-2,15.93,15.93,0,0,0,.59-1.84c.16-.62.31-1.23.42-1.86A8.66,8.66,0,0,0,25,22.4a8.94,8.94,0,0,0-.44-2.15,18.48,18.48,0,0,0-2-4.26,12.66,12.66,0,0,0-1.64-2.05,7.61,7.61,0,0,0-1.12-.9,6.29,6.29,0,0,0-1.25-.61l-.11,0a8.45,8.45,0,0,0-.85-.28l-.16,0-.44-.14-.51-.16a15,15,0,0,0-2.71-.52,13.46,13.46,0,0,0-1.43-.08c-.29,0-.59,0-.89,0a16.25,16.25,0,0,0-2.05.39.5.5,0,0,0,0-.13v-.13l0-.39v-.11h0a3.18,3.18,0,0,0,.08-.33c0-.12.06-.24.1-.36.1-.33.18-.6.28-.86s.19-.45.3-.7l.19-.43.17-.38.09-.19.06-.13.23-.5.17-.32.13-.26.08-.16.21-.42c.1-.18.2-.36.31-.53l.36-.52.17-.2.14-.17.23-.3.08-.1L13,3.65l.08-.11.21-.27.09-.12.08-.1L13.55,3l.25-.3L14,2.49c.15-.17.29-.35.43-.54l.34-.42A3,3,0,0,1,15,1.28l.17-.16a7.93,7.93,0,0,0,.61-.7.27.27,0,0,0,0-.22A.26.26,0,0,0,15.62,0a.57.57,0,0,0-.18,0,1,1,0,0,0-.36.08,4.1,4.1,0,0,0-.74.41l-.12.09-.16.11L13.73.9l-.31.16-.32.16-.21.1-.18.09-.35.2a7,7,0,0,0-.71.54l-.44.39-.15.13-.3.26c-.18.16-.34.33-.51.51l-.2.2L9.69,4l-.07.07-.14.13-.23.24a9.9,9.9,0,0,0-.75.88c-.12.15-.22.28-.31.41L8,6,8,6c-.29.37-.58.73-.9,1.08a7,7,0,0,0-.48.6l-.33.46-.1.13c-.11.14-.22.29-.32.44A2.13,2.13,0,0,0,5.66,9l-.12.18-.14.21a2.53,2.53,0,0,0-.13.22l-.35.62-.1.18-.05.09a1.62,1.62,0,0,0-.1.18l0,.07a2.15,2.15,0,0,0-.14.26,1.86,1.86,0,0,1-.1.2l-.13.24-.13.23-.24.52-.07.17,0,.09-.09.25c0,.09-.07.17-.11.25l-.12.28-.21.53,0,.12L3.15,14c0,.09-.07.17-.1.26s-.1.2-.14.3l-.08.18,0,.12-.12.27a3.45,3.45,0,0,0-.14.34l0,.07a2.33,2.33,0,0,0-.11.28c-.05.12-.09.24-.14.35l-.07.17s0,.08,0,.12l0,.07c-.06.16-.1.26-.13.36a2.45,2.45,0,0,1-.12.31c0,.11-.07.18-.09.25a.78.78,0,0,1-.05.14l-.06.14c-.06.15-.12.3-.17.45s-.05.14-.07.21a.56.56,0,0,0,0,.12c0,.05,0,.1,0,.15l0,.07a.69.69,0,0,0-.05.13.83.83,0,0,0,0,.15l0,.1a1.82,1.82,0,0,1-.07.25.78.78,0,0,0,0,.14.5.5,0,0,0-.05.13l0,.1,0,.11c0,.07,0,.14-.08.22l0,.15,0,.09a1,1,0,0,1,0,.15l0,.09c0,.05,0,.1,0,.15l-.06.19a2.41,2.41,0,0,0-.11.48l0,.11,0,.11a1.17,1.17,0,0,0-.05.27,3.4,3.4,0,0,0,0,.45,1.13,1.13,0,0,1,0,.2l0,.09a2,2,0,0,0,0,.24c0,.11,0,.22,0,.33l0,.17c-.09.45-.16.92-.24,1.53a9.72,9.72,0,0,0,.13,2.54,12.44,12.44,0,0,0,.45,1.94,7.85,7.85,0,0,0,.93,1.95,10.18,10.18,0,0,0,1,1.23l.36.41a9.87,9.87,0,0,0,1.16,1.17,5.88,5.88,0,0,0,1,.67c.22.12.46.22.69.33l.34.14.53.25a17.68,17.68,0,0,0,1.68.72,11.06,11.06,0,0,0,2.1.46,11.38,11.38,0,0,0,1.41.07H13Z"/><path class="cls-1" d="M242.81,242.87a4.71,4.71,0,0,0-.53,0h-.12c-.44.05-.89.1-1.33.19l-.09,0c-.33.06-.66.13-1,.21a9.11,9.11,0,0,0-1.39.52c-.34.15-.68.31-1,.48a9.42,9.42,0,0,0-1.1.77l-.13.11a9.7,9.7,0,0,0-1.78,1.87,8.2,8.2,0,0,0-.83,1.45c-.22.29-.43.6-.62.91a11.55,11.55,0,0,0-.94,2,16.41,16.41,0,0,0-.58,1.83c-.16.63-.32,1.24-.43,1.86a8.32,8.32,0,0,0,.33,4.29,18.45,18.45,0,0,0,2,4.26,13.11,13.11,0,0,0,1.64,2.05,6.54,6.54,0,0,0,1.12.89,5.71,5.71,0,0,0,1.24.61l.11,0a6.64,6.64,0,0,0,.86.28l.16.05.43.14.52.17a16,16,0,0,0,2.7.52c.58.05,1,.08,1.43.08a8.69,8.69,0,0,0,.89-.05,16.25,16.25,0,0,0,2.05-.39s0,.09,0,.13v.14l-.05.38v.12h0a1.45,1.45,0,0,0-.08.33c0,.12-.07.24-.1.35-.1.34-.18.6-.28.86l-.31.7-.19.43c-.05.13-.11.26-.17.38l-.08.19-.07.14c-.07.16-.15.33-.23.49l-.16.33-.13.25-.08.16c-.07.14-.14.28-.22.42a5.64,5.64,0,0,1-.31.53,6,6,0,0,1-.36.52l-.16.2-.14.17-.24.3-.07.1c-.1.13-.18.22-.25.32l-.08.11-.22.28-.08.11-.08.1-.06.07L242,277l-.15.18-.42.54-.35.42a2.83,2.83,0,0,1-.24.25l-.17.17a6,6,0,0,0-.62.7.24.24,0,0,0,0,.21.24.24,0,0,0,.17.17.48.48,0,0,0,.18,0,1.13,1.13,0,0,0,.36-.08,4.1,4.1,0,0,0,.74-.41l.12-.09.16-.11.32-.2a1.91,1.91,0,0,1,.32-.16l.32-.17.2-.1.19-.09a1.9,1.9,0,0,0,.34-.2,5.31,5.31,0,0,0,.71-.54l.45-.39.15-.13.29-.26c.18-.16.35-.33.52-.5l.2-.21.36-.34.07-.07.13-.13.23-.24c.31-.33.55-.61.76-.88l.31-.41.17-.24.06-.07c.3-.37.59-.74.91-1.09a5.39,5.39,0,0,0,.47-.6c.11-.15.22-.31.34-.46l.1-.13.32-.43.16-.26.12-.18.14-.21.12-.22.35-.61.11-.19.05-.09.1-.17,0-.07c.05-.09.09-.18.13-.27s.07-.13.11-.2l.12-.24.13-.23a4.9,4.9,0,0,0,.24-.52l.08-.17,0-.08a2.77,2.77,0,0,0,.1-.26l.1-.25.12-.28c.08-.17.15-.35.22-.53l0-.12.06-.16c0-.08.06-.17.1-.26l.14-.3a1.34,1.34,0,0,0,.07-.18l0-.11.12-.28.14-.33,0-.08a1.82,1.82,0,0,0,.11-.28c0-.12.09-.23.13-.35a.47.47,0,0,0,.07-.17,1.17,1.17,0,0,0,0-.11l0-.08a3.13,3.13,0,0,0,.14-.35,2.83,2.83,0,0,1,.11-.31,2.06,2.06,0,0,0,.09-.26l.06-.13.06-.15c.06-.15.12-.29.17-.45a1.72,1.72,0,0,1,.07-.21.56.56,0,0,1,0-.12.57.57,0,0,1,0-.14l0-.08s0-.08,0-.13l0-.15,0-.09a2,2,0,0,1,.07-.26.5.5,0,0,1,.05-.13.5.5,0,0,1,.05-.13l0-.1,0-.12a1.8,1.8,0,0,0,.08-.21,1.24,1.24,0,0,0,0-.16v-.09a.61.61,0,0,1,0-.14l0-.1a.83.83,0,0,1,0-.15l.06-.18a1.92,1.92,0,0,0,.1-.49l0-.11,0-.1a1.28,1.28,0,0,0,.05-.27c0-.16,0-.3,0-.45a1.05,1.05,0,0,1,0-.2l0-.1a2,2,0,0,0,0-.24c0-.11,0-.22,0-.33l0-.16c.09-.45.17-.93.24-1.54a9.31,9.31,0,0,0-.12-2.54,12.71,12.71,0,0,0-.45-1.94,7.85,7.85,0,0,0-.93-1.95,13.79,13.79,0,0,0-1-1.23c-.13-.13-.25-.27-.37-.4a8.64,8.64,0,0,0-1.16-1.18,5.67,5.67,0,0,0-1-.67,7.27,7.27,0,0,0-.69-.32l-.33-.15-.54-.25a16.47,16.47,0,0,0-1.67-.72,12.09,12.09,0,0,0-2.1-.46,11.53,11.53,0,0,0-1.42-.07h-1.18Z"/><path class="cls-1" d="M271,242.87l-.53,0h-.12c-.44.05-.89.1-1.32.19l-.1,0c-.33.06-.65.13-1,.21a8.6,8.6,0,0,0-1.38.52c-.35.15-.69.31-1,.48a8,8,0,0,0-1.1.77l-.14.11a10,10,0,0,0-1.78,1.87,8.88,8.88,0,0,0-.83,1.45c-.22.29-.42.6-.62.91a11.47,11.47,0,0,0-.93,2,16.39,16.39,0,0,0-.59,1.83c-.16.63-.31,1.24-.42,1.86a8.68,8.68,0,0,0-.12,2.13,9.11,9.11,0,0,0,.44,2.16,18.87,18.87,0,0,0,2,4.26,13.11,13.11,0,0,0,1.64,2.05,7,7,0,0,0,1.12.89,5.79,5.79,0,0,0,1.25.61l.11,0a6.5,6.5,0,0,0,.85.28l.16.05.44.14.51.17a16,16,0,0,0,2.71.52c.58.05,1,.08,1.43.08s.59,0,.89-.05a16.25,16.25,0,0,0,2.05-.39.61.61,0,0,0,0,.13v.14l0,.38v.12h0a2.28,2.28,0,0,0-.08.33,3.57,3.57,0,0,1-.1.35c-.1.34-.18.6-.28.86s-.19.45-.3.7l-.19.43-.17.38-.09.19-.06.14c-.08.16-.15.33-.23.49l-.17.33-.13.25-.08.16-.21.42c-.1.18-.2.36-.31.53l-.36.52-.17.2-.14.17-.23.3-.08.1L271,276l-.08.11-.21.28-.09.11-.08.1,0,.07c-.08.1-.17.2-.25.31l-.15.18c-.15.18-.29.35-.43.54l-.34.42a3,3,0,0,1-.25.25l-.17.17a5.83,5.83,0,0,0-.61.7.25.25,0,0,0,0,.21.26.26,0,0,0,.17.17l.18,0a1,1,0,0,0,.36-.08,4.1,4.1,0,0,0,.74-.41l.12-.09L270,279l.33-.2a2.29,2.29,0,0,1,.31-.16l.32-.17.21-.1.18-.09a2.43,2.43,0,0,0,.35-.2,7,7,0,0,0,.71-.54l.44-.39L273,277l.3-.26c.18-.16.34-.33.51-.5l.2-.21.36-.34.07-.07.14-.13.23-.24a9.9,9.9,0,0,0,.75-.88c.12-.15.22-.28.31-.41l.18-.24.06-.07c.29-.37.58-.74.9-1.09a7,7,0,0,0,.48-.6l.33-.46.1-.13.32-.43.16-.26.12-.18.14-.21a1.59,1.59,0,0,0,.13-.22l.35-.61.1-.19.05-.09.1-.17,0-.07c.05-.09.1-.18.14-.27s.06-.13.1-.2l.13-.24.13-.23.24-.52.07-.17,0-.08.09-.26c0-.08.07-.17.11-.25l.12-.28.21-.53,0-.12.06-.16c0-.08.07-.17.1-.26a2.09,2.09,0,0,0,.14-.3l.08-.18,0-.11.12-.28c0-.11.1-.22.14-.33l0-.08a1.82,1.82,0,0,0,.11-.28l.14-.35.07-.17s0-.07,0-.11l0-.08c.06-.16.1-.25.13-.35a1.66,1.66,0,0,1,.12-.31c0-.12.07-.19.09-.26a.69.69,0,0,1,.05-.13l.06-.15c.06-.15.12-.29.17-.45l.07-.21a.56.56,0,0,0,0-.12c0-.05,0-.1,0-.14l0-.08a.5.5,0,0,0,.05-.13.83.83,0,0,0,0-.15l0-.09a2,2,0,0,1,.07-.26,1.12,1.12,0,0,0,.05-.13A1.12,1.12,0,0,0,283,260l0-.1,0-.12a1.8,1.8,0,0,1,.08-.21l0-.16,0-.09a.61.61,0,0,1,0-.14l0-.1c0-.05,0-.1,0-.15l.06-.18a2.65,2.65,0,0,0,.11-.49l0-.11,0-.1a1.28,1.28,0,0,0,.05-.27,3.52,3.52,0,0,0,0-.45.81.81,0,0,1,0-.2l0-.1a2,2,0,0,0,0-.24c0-.11,0-.22,0-.33l0-.16c.09-.45.16-.93.24-1.54a9.72,9.72,0,0,0-.13-2.54,12.71,12.71,0,0,0-.45-1.94,7.85,7.85,0,0,0-.93-1.95,11,11,0,0,0-1-1.23l-.36-.4a9.26,9.26,0,0,0-1.16-1.18,6.57,6.57,0,0,0-1-.67c-.22-.12-.46-.22-.69-.32l-.34-.15-.53-.25a17.68,17.68,0,0,0-1.68-.72,11.9,11.9,0,0,0-2.1-.46,11.38,11.38,0,0,0-1.41-.07H271Z"/></g></g></svg>