<svg xmlns="http://www.w3.org/2000/svg" viewBox="0 0 285.95 281.76"><defs><style>.cls-1{fill:#fefefe;}</style></defs><g id="Layer_2" data-name="Layer 2"><g id="Draw_Layer" data-name="Draw Layer"><path class="cls-1" d="M252.42,242.56c-1,.07-2,.07-3,.08h-2.37a12.25,12.25,0,0,0-1.71.09l-.84.15c-.4,0-.8,0-1.2.06a2.12,2.12,0,0,0-1.23.45,2,2,0,0,0-1.54,1.94c0,1,.08,2,.08,3a12.54,12.54,0,0,1-.14,1.36c-.06.47-.09.94-.11,1.41-.08,1.85,0,3.71,0,5.57v5.5a6.83,6.83,0,0,0,.18,2.35,4,4,0,0,0,.3.7,2.65,2.65,0,0,0,1.37,1.05,4.69,4.69,0,0,0,1.29.2c.6.05,1.22,0,1.83,0h13.08a2.23,2.23,0,0,0,2-1.16,3.11,3.11,0,0,0,.33-1.28c0-.17,0-.33,0-.49,0-.75,0-1.49,0-2.23v-1.54a12.78,12.78,0,0,0-.11-1.64l0,.11c0-.11,0-.21-.05-.32-.09-.85-.13-1.71-.15-2.57a10.1,10.1,0,0,0-.11-1.55l-.12-.65c-.11-1.14-.08-2.31-.09-3.46v-3a7.45,7.45,0,0,0-.14-1.82c0-.15-.08-.3-.13-.44a2.78,2.78,0,0,0-.59-1,2.24,2.24,0,0,0-1-.62,3.92,3.92,0,0,0-1.45-.19h-.53c-.3,0-.6,0-.9,0-.46-.07-.92-.15-1.38-.19h-.28c-.46,0-.93.08-1.38.12Zm-2.71,4.08c.77,0,1.54,0,2.31-.06a17.86,17.86,0,0,1,2.31-.1,14.44,14.44,0,0,0,1.74.17h.17c0,.34,0,.69,0,1v2c0,.91,0,1.8,0,2.71a18.1,18.1,0,0,0,.27,2.2c0,.51,0,1,0,1.55,0,.73.1,1.46.19,2.19,0,.13,0,.25.05.38a14.29,14.29,0,0,1,0,1.46v2.31l-1.22,0H244.34c0-1,0-1.92,0-2.87v-4.67c0-1.57,0-3.15.1-4.72.06-.8.2-1.58.19-2.39l0-.93h0c.48-.05.94-.14,1.41-.22s1.14,0,1.7,0Zm-5.3,16.81.06.13-.06-.13Zm12.38-4.78,0-.19,0,.19Zm0-.19c0-.05,0-.1,0-.14l0-.2c0,.11,0,.23,0,.34Z"/><path class="cls-1" d="M248.73,264.19c-.49.94-.95,1.89-1.41,2.84s-1,2-1.49,3c-.9,2-1.87,3.87-2.69,5.85a16.57,16.57,0,0,0-1.11,3.17,2.44,2.44,0,0,0,0,1.2,2,2,0,0,0,1,1.25,2.49,2.49,0,0,0,2.41-.13,9.86,9.86,0,0,0,1.43-1.07,28.19,28.19,0,0,0,2.54-2.06c.9-.84,1.78-1.67,2.68-2.49.42-.39.81-.82,1.22-1.23s.69-.71,1-1.08c.71-.84,1.4-1.69,2.06-2.55l-.31.4.45-.56-.07.08c.38-.49.8-1,1.21-1.42s.59-.71.88-1.07a4.61,4.61,0,0,1,.48-.51,3.17,3.17,0,0,0,.35-.29c.16-.17.29-.37.44-.56a1.93,1.93,0,0,0,.19-1.54,2,2,0,0,0-.91-1.2,2.07,2.07,0,0,0-1.54-.2,1.89,1.89,0,0,0-1,.67l0,0a1.47,1.47,0,0,0,.1-.13,2.09,2.09,0,0,1-.2.22l0,0A8.07,8.07,0,0,0,255.3,266l.24-.32c-.68.87-1.44,1.69-2.13,2.55l.1-.11c-.24.3-.48.59-.71.9l.31-.41c-.51.65-1,1.31-1.58,1.94s-1.31,1.4-2,2.09c-.31.31-.63.6-1,.9l.75-1.58c.45-1,1-1.92,1.44-2.89s.91-1.9,1.41-2.84a2,2,0,0,0-.72-2.74,2.11,2.11,0,0,0-1-.26,1.94,1.94,0,0,0-1.73,1Zm7.79.51-.2.24,0,.05.21-.27,0,0Z"/><path class="cls-1" d="M245.84,245.08c-.19.18-.37.37-.57.55a5,5,0,0,0-.89,1.12,3.25,3.25,0,0,0-.33.9l-.14.12a3.53,3.53,0,0,0-.76,1,4,4,0,0,0-.38,1.49c-.05.45,0,.92-.05,1.37a18.58,18.58,0,0,0,0,2.69c0,.29.07.58.11.87-.08.49-.16,1-.25,1.48-.16,1-.31,1.93-.48,2.89-.1.59-.21,1.19-.26,1.78a4.43,4.43,0,0,0,.08,1.54,3.23,3.23,0,0,0,4.21,2.21,4,4,0,0,0,1.58-1.1,5.45,5.45,0,0,0,.72-1.12h.7a2.81,2.81,0,0,0,.51.43,2.27,2.27,0,0,0,.79.4,2.88,2.88,0,0,0,1.24,0,3.35,3.35,0,0,0,.53-.19c.14.22.27.45.39.68s.12.45.17.68-.19.25-.29.38l.06-.07c-.43.57-.83,1.17-1.25,1.76l.31-.41-.62.82c-.45.54-.94,1.06-1.4,1.59s-1,1.2-1.49,1.83h0q-.73.94-1.44,1.92a1.93,1.93,0,0,0-.2,1.54,2,2,0,0,0,.92,1.19,2,2,0,0,0,1.54.21,2.16,2.16,0,0,0,1.19-.93l.74-1c.17-.23.35-.46.53-.68,1-1.28,2.16-2.45,3.14-3.76l0,0c.24-.3.46-.6.68-.91s.31-.49.48-.73.45-.59.67-.89a3.77,3.77,0,0,1,.65-2.5,6,6,0,0,0,.44-2.49c0-.5,0-1,0-1.5s0-1.08,0-1.61a44,44,0,0,0,.37-5.25c0-.89.13-1.78.19-2.67,0-.45.05-.89.07-1.34a5.84,5.84,0,0,0-.07-1.77,2.31,2.31,0,0,0-2.17-1.82,2.08,2.08,0,0,0-.92.21,2.75,2.75,0,0,0-.59-.9c-.76-.79-1.86-.65-2.84-.58a11.11,11.11,0,0,1-1.73,0l-.58-.11a5.77,5.77,0,0,0-1.26-.28h-.07a2.75,2.75,0,0,0-1.94.85ZM251,273.51l-.11.15.11-.15Z"/><path class="cls-1" d="M277.54,242.56c-1,.07-2,.07-3,.08H272.2a12.25,12.25,0,0,0-1.71.09c-.28,0-.55.1-.83.15s-.81,0-1.21.06a2.12,2.12,0,0,0-1.23.45,2,2,0,0,0-1.53,1.94c0,1,.07,2,.07,3a12.54,12.54,0,0,1-.14,1.36c-.05.47-.08.94-.1,1.41-.08,1.85,0,3.71,0,5.57v5.5a6.6,6.6,0,0,0,.19,2.35,3.36,3.36,0,0,0,.3.7,2.61,2.61,0,0,0,1.37,1.05,4.56,4.56,0,0,0,1.28.2c.61.05,1.22,0,1.84,0h13.07a2.22,2.22,0,0,0,2-1.16,3.29,3.29,0,0,0,.34-1.28c0-.17,0-.33,0-.49,0-.75,0-1.49,0-2.23,0-.52,0-1,0-1.54a12.79,12.79,0,0,0-.12-1.64l0,.11c0-.11,0-.21-.05-.32-.09-.85-.13-1.71-.14-2.57a10.12,10.12,0,0,0-.12-1.55c0-.22-.08-.43-.11-.65-.11-1.14-.09-2.31-.09-3.46v-3a7.46,7.46,0,0,0-.15-1.82,3.19,3.19,0,0,0-.13-.44,2.62,2.62,0,0,0-.58-1,2.29,2.29,0,0,0-1-.62,4,4,0,0,0-1.46-.19h-.53c-.3,0-.6,0-.89,0-.46-.07-.92-.15-1.39-.19h-.28c-.46,0-.93.08-1.37.12Zm-2.72,4.08c.77,0,1.54,0,2.31-.06a17.93,17.93,0,0,1,2.31-.1,14.44,14.44,0,0,0,1.74.17h.18c0,.34,0,.69,0,1v2c0,.91,0,1.8,0,2.71a16.3,16.3,0,0,0,.26,2.2c0,.51,0,1,0,1.55q0,1.1.18,2.19c0,.13,0,.25.05.38a14.31,14.31,0,0,1,0,1.46c0,.47,0,.94,0,1.41,0,.3,0,.6,0,.9l-1.23,0H269.46c0-1,0-1.92,0-2.87v-4.67c0-1.57,0-3.15.1-4.72.06-.8.2-1.58.19-2.39,0-.31,0-.62,0-.93h.05c.47-.05.93-.14,1.4-.22s1.14,0,1.7,0Zm-5.3,16.81.06.13-.06-.13Zm12.38-4.78,0-.19c0,.06,0,.13,0,.19Zm0-.19c0-.05,0-.1,0-.14l0-.2c0,.11,0,.23.05.34Z"/><path class="cls-1" d="M273.84,264.19c-.49.94-.95,1.89-1.4,2.84s-1,2-1.5,3c-.9,2-1.87,3.87-2.68,5.85a15.92,15.92,0,0,0-1.11,3.17,2.33,2.33,0,0,0,0,1.2,2,2,0,0,0,1,1.25,2.49,2.49,0,0,0,2.41-.13A9.35,9.35,0,0,0,272,280.3a29.8,29.8,0,0,0,2.55-2.06c.89-.84,1.77-1.67,2.67-2.49.43-.39.81-.82,1.22-1.23s.7-.71,1-1.08c.7-.84,1.39-1.69,2.06-2.55l-.32.4.45-.56-.06.08c.38-.49.79-1,1.2-1.42s.6-.71.88-1.07a4.61,4.61,0,0,1,.48-.51,3.17,3.17,0,0,0,.35-.29,6,6,0,0,0,.44-.56,1.89,1.89,0,0,0,.2-1.54,2,2,0,0,0-2.46-1.4,1.89,1.89,0,0,0-1,.67l0,0a.64.64,0,0,0,.1-.13,2.09,2.09,0,0,1-.2.22l0,0a8.14,8.14,0,0,0-1.13,1.21l.24-.32c-.68.87-1.43,1.69-2.12,2.55l.09-.11-.71.9.31-.41c-.51.65-1,1.31-1.58,1.94s-1.31,1.4-2,2.09c-.3.31-.63.6-1,.9.25-.53.5-1,.74-1.58.45-1,1-1.92,1.44-2.89s.91-1.9,1.41-2.84a2,2,0,0,0-1.73-3,1.94,1.94,0,0,0-1.73,1Zm7.79.51-.19.24,0,.05.21-.27,0,0Z"/><path class="cls-1" d="M271,245.08c-.19.18-.37.37-.57.55a5,5,0,0,0-.88,1.12,3.27,3.27,0,0,0-.34.9l-.13.12a3.57,3.57,0,0,0-.77,1,4.25,4.25,0,0,0-.38,1.49c-.05.45,0,.92-.05,1.37a20.12,20.12,0,0,0,0,2.69q0,.44.12.87c-.09.49-.17,1-.25,1.48-.17,1-.32,1.93-.49,2.89-.1.59-.2,1.19-.26,1.78a4.69,4.69,0,0,0,.09,1.54,3.14,3.14,0,0,0,1.28,1.83,3.19,3.19,0,0,0,2.93.38,3.93,3.93,0,0,0,1.57-1.1,5.45,5.45,0,0,0,.72-1.12h.7a3.2,3.2,0,0,0,.51.43,2.31,2.31,0,0,0,.8.4,2.83,2.83,0,0,0,1.23,0,3,3,0,0,0,.53-.19c.14.22.27.45.39.68s.13.45.18.68c-.1.13-.2.25-.29.38l.05-.07c-.43.57-.82,1.17-1.25,1.76l.32-.41-.63.82c-.45.54-.93,1.06-1.4,1.59s-1,1.2-1.49,1.83h0c-.5.63-1,1.27-1.45,1.92a1.93,1.93,0,0,0-.2,1.54,2,2,0,0,0,.92,1.19,2,2,0,0,0,1.54.21,2.18,2.18,0,0,0,1.2-.93l.73-1c.18-.23.35-.46.53-.68,1-1.28,2.16-2.45,3.15-3.76l0,0c.23-.3.46-.6.67-.91s.32-.49.48-.73.45-.59.67-.89a3.18,3.18,0,0,0,.48-2.23,1.78,1.78,0,0,0,.17-.27,6,6,0,0,0,.44-2.49c0-.5,0-1,0-1.5s0-1.08,0-1.61a44,44,0,0,0,.38-5.25c0-.89.12-1.78.18-2.67,0-.45.05-.89.08-1.34a6.17,6.17,0,0,0-.07-1.77,2.33,2.33,0,0,0-2.18-1.82,2.11,2.11,0,0,0-.92.21,2.75,2.75,0,0,0-.59-.9c-.76-.79-1.86-.65-2.84-.58a11.11,11.11,0,0,1-1.73,0l-.57-.11a5.9,5.9,0,0,0-1.26-.28h-.08a2.75,2.75,0,0,0-1.94.85Zm5.15,28.43-.11.15.11-.15Z"/><path class="cls-1" d="M33.52,39.2c1-.08,2-.08,3-.08h2.38A12.25,12.25,0,0,0,40.57,39l.83-.16c.4,0,.81,0,1.21-.06a2.18,2.18,0,0,0,1.23-.44,2,2,0,0,0,1.53-1.94c0-1-.07-2-.07-3a12.28,12.28,0,0,1,.14-1.36c.05-.47.08-.94.1-1.41.08-1.85.05-3.71.05-5.57v-5.5a6.6,6.6,0,0,0-.19-2.35,3.36,3.36,0,0,0-.3-.7,2.56,2.56,0,0,0-1.37-1,4.56,4.56,0,0,0-1.28-.2c-.61-.05-1.22-.05-1.84-.05H27.54a2.23,2.23,0,0,0-2,1.16,3.38,3.38,0,0,0-.34,1.29c0,.16,0,.33,0,.49,0,.74,0,1.49,0,2.23,0,.51,0,1,0,1.54a12.79,12.79,0,0,0,.12,1.64l0-.11c0,.1,0,.21.05.32.09.85.13,1.71.14,2.57A10.12,10.12,0,0,0,25.52,28c0,.21.08.43.11.65.11,1.14.09,2.3.09,3.45v3a7.5,7.5,0,0,0,.15,1.83,3.66,3.66,0,0,0,.13.44,2.62,2.62,0,0,0,.58,1,2.29,2.29,0,0,0,1,.62,4,4,0,0,0,1.46.19h.53c.3,0,.6,0,.89,0,.46.07.92.14,1.39.19h.28c.46,0,.93-.09,1.37-.12Zm2.72-4.08c-.77,0-1.54,0-2.31.05a16.32,16.32,0,0,1-2.31.11,12.66,12.66,0,0,0-1.74-.17H29.7c0-.34,0-.69,0-1v-2c0-.9,0-1.8,0-2.7a16.64,16.64,0,0,0-.26-2.21c0-.51,0-1,0-1.54q0-1.09-.18-2.19c0-.13,0-.26-.05-.39a14.16,14.16,0,0,1,0-1.46c0-.46,0-.93,0-1.4,0-.3,0-.6,0-.9H41.6c0,.95,0,1.91,0,2.87v4.67c0,1.57,0,3.15-.1,4.71-.06.8-.2,1.59-.19,2.39,0,.32,0,.63,0,.94h0c-.47,0-.93.15-1.4.23s-1.14,0-1.7,0Zm5.3-16.81-.06-.14.06.14ZM29.16,23.09l0,.19c0-.07,0-.13,0-.19Zm0,.19s0,.09,0,.14l0,.2c0-.11,0-.23-.05-.34Z"/><path class="cls-1" d="M37.22,17.57c.49-.94,1-1.89,1.4-2.85s1-2,1.5-3C41,9.78,42,7.86,42.8,5.87a15.61,15.61,0,0,0,1.11-3.16,2.33,2.33,0,0,0,0-1.2A2,2,0,0,0,43,.26a2.44,2.44,0,0,0-2.41.13,8.74,8.74,0,0,0-1.43,1.07,28,28,0,0,0-2.55,2.06L33.89,6c-.43.39-.81.82-1.22,1.23s-.7.7-1,1.08c-.7.84-1.39,1.69-2.06,2.55l.32-.4c-.16.18-.3.37-.45.56l.06-.08c-.38.48-.79,1-1.2,1.41s-.6.71-.88,1.08a4.52,4.52,0,0,1-.48.5c-.12.1-.24.19-.35.3s-.29.37-.44.55a1.92,1.92,0,0,0-.2,1.55,2,2,0,0,0,.92,1.19,2,2,0,0,0,1.54.21,2,2,0,0,0,1-.67l0,0-.1.12a2,2,0,0,1,.2-.21l0,0a7.6,7.6,0,0,0,1.13-1.2l-.24.31c.68-.87,1.43-1.68,2.12-2.55l-.09.12.71-.9-.31.41c.51-.66,1-1.31,1.58-1.94s1.31-1.4,2-2.09c.3-.31.63-.61,1-.9-.25.52-.5,1-.74,1.58-.45,1-1,1.92-1.44,2.88s-.91,1.91-1.41,2.85a2,2,0,0,0,.72,2.73,2,2,0,0,0,2.74-.71Zm-7.79-.51c.06-.08.13-.16.19-.25s0,0,0,0l-.21.27,0,0Z"/><path class="cls-1" d="M40.11,36.68c.19-.19.37-.38.57-.55A5,5,0,0,0,41.56,35a3.4,3.4,0,0,0,.34-.9A1.59,1.59,0,0,0,42,34a3.43,3.43,0,0,0,.77-1,4.15,4.15,0,0,0,.38-1.48c0-.45,0-.92,0-1.37a20.27,20.27,0,0,0,0-2.7c0-.29-.07-.57-.12-.86.09-.5.17-1,.25-1.49.17-1,.32-1.92.49-2.88.1-.59.2-1.19.26-1.79A4.63,4.63,0,0,0,44,18.88a3.14,3.14,0,0,0-1.28-1.83,3.19,3.19,0,0,0-2.93-.38,3.84,3.84,0,0,0-1.57,1.1,5.2,5.2,0,0,0-.72,1.12l-.7,0a3.81,3.81,0,0,0-.51-.42,2.31,2.31,0,0,0-.8-.4,2.69,2.69,0,0,0-1.23,0,3,3,0,0,0-.53.19c-.14-.22-.27-.45-.39-.68s-.13-.45-.18-.68l.29-.38,0,.07c.43-.58.82-1.17,1.25-1.76l-.32.4.63-.81c.45-.55.93-1.06,1.4-1.59s1-1.21,1.49-1.83h0c.5-.63,1-1.26,1.45-1.91a1.93,1.93,0,0,0,.2-1.54,2,2,0,0,0-.92-1.2,2.07,2.07,0,0,0-1.54-.2,2.16,2.16,0,0,0-1.2.92c-.24.34-.48.67-.73,1l-.53.68c-1,1.28-2.16,2.45-3.15,3.76l0,0c-.23.3-.46.61-.67.92s-.32.48-.48.72l-.67.9a3.16,3.16,0,0,0-.48,2.23,2.33,2.33,0,0,0-.17.26,6,6,0,0,0-.44,2.5c0,.5,0,1,0,1.5s0,1.08,0,1.61a43.83,43.83,0,0,0-.38,5.25c0,.89-.12,1.78-.18,2.67,0,.45-.05.89-.08,1.34A6.2,6.2,0,0,0,28,34.09a2.33,2.33,0,0,0,2.18,1.82,2.11,2.11,0,0,0,.92-.21,2.71,2.71,0,0,0,.59.89c.76.79,1.86.66,2.84.59a11.12,11.12,0,0,1,1.73,0l.57.12a5.34,5.34,0,0,0,1.26.27h.08a2.74,2.74,0,0,0,1.94-.84ZM35,8.25l.11-.15L35,8.25Z"/><path class="cls-1" d="M8.41,39.2c1-.08,2-.08,3-.08h2.37A12.39,12.39,0,0,0,15.46,39l.83-.16,1.2-.06a2.19,2.19,0,0,0,1.24-.44,2,2,0,0,0,1.53-1.94c0-1-.07-2-.08-3a12.28,12.28,0,0,1,.14-1.36c.06-.47.09-.94.11-1.41.08-1.85,0-3.71,0-5.57v-5.5a6.6,6.6,0,0,0-.18-2.35,4,4,0,0,0-.3-.7,2.56,2.56,0,0,0-1.37-1,4.62,4.62,0,0,0-1.28-.2c-.61-.05-1.23-.05-1.84-.05H2.42a2.26,2.26,0,0,0-2,1.16,3.37,3.37,0,0,0-.33,1.29l0,.49c0,.74,0,1.49,0,2.23V22a12.78,12.78,0,0,0,.11,1.64v-.11c0,.1,0,.21,0,.32.1.85.13,1.71.15,2.57A11.54,11.54,0,0,0,.4,28l.12.65c.11,1.14.09,2.3.09,3.45v3a7.5,7.5,0,0,0,.14,1.83c0,.15.08.29.13.44a2.78,2.78,0,0,0,.59,1,2.29,2.29,0,0,0,1,.62A3.94,3.94,0,0,0,4,39.1h.52c.3,0,.6,0,.9,0,.46.07.92.14,1.38.19H7c.45,0,.92-.09,1.37-.12Zm2.71-4.08c-.76,0-1.54,0-2.31.05a16.25,16.25,0,0,1-2.31.11,12.51,12.51,0,0,0-1.73-.17H4.59c0-.34,0-.69,0-1v-2c0-.9,0-1.8,0-2.7a16.66,16.66,0,0,0-.27-2.21c0-.51,0-1,0-1.54q0-1.09-.18-2.19L4,23a14.17,14.17,0,0,1,0-1.46v-2.3H16.49c0,.95,0,1.91,0,2.87,0,1.56,0,3.11,0,4.67s0,3.15-.09,4.71c-.07.8-.2,1.59-.19,2.39,0,.32,0,.63,0,.94h-.05c-.48,0-.94.15-1.41.23s-1.13,0-1.7,0Zm5.3-16.81-.05-.14.05.14ZM4,23.09l0,.19,0-.19Zm0,.19a.68.68,0,0,0,0,.14c0,.07,0,.13,0,.2,0-.11,0-.23,0-.34Z"/><path class="cls-1" d="M12.1,17.57c.5-.94,1-1.89,1.41-2.85s1-2,1.49-3c.9-1.94,1.88-3.86,2.69-5.85A16.25,16.25,0,0,0,18.8,2.71a2.44,2.44,0,0,0,0-1.2,2,2,0,0,0-1-1.25,2.44,2.44,0,0,0-2.41.13A9.19,9.19,0,0,0,14,1.46a29.3,29.3,0,0,0-2.54,2.06L8.78,6c-.43.39-.82.82-1.22,1.23s-.7.7-1,1.08c-.71.84-1.4,1.69-2.06,2.55l.31-.4c-.15.18-.3.37-.44.56L4.41,11c-.38.48-.79,1-1.2,1.41s-.6.71-.88,1.08c-.15.17-.32.35-.48.5a3.58,3.58,0,0,0-.36.3c-.16.17-.29.37-.43.55a1.92,1.92,0,0,0-.2,1.55,2,2,0,0,0,.92,1.19,2,2,0,0,0,1.54.21,2,2,0,0,0,1-.67l0,0-.1.12A2.08,2.08,0,0,1,4.44,17l0,0a7.6,7.6,0,0,0,1.13-1.2c-.09.1-.17.21-.25.31.69-.87,1.44-1.68,2.13-2.55l-.09.12.7-.9-.31.41c.52-.66,1-1.31,1.58-1.94s1.32-1.4,2-2.09q.47-.46,1-.9l-.75,1.58c-.45,1-1,1.92-1.43,2.88s-.92,1.91-1.41,2.85a2,2,0,0,0,.72,2.73,2,2,0,0,0,2.73-.71Zm-7.78-.51c.06-.08.13-.16.19-.25l0,0L4.34,17l0,0Z"/><path class="cls-1" d="M15,36.68c.19-.19.38-.38.57-.55A5,5,0,0,0,16.45,35a3.4,3.4,0,0,0,.34-.9,1.59,1.59,0,0,0,.13-.13,3.43,3.43,0,0,0,.77-1,3.94,3.94,0,0,0,.37-1.48c.06-.45,0-.92.06-1.37a18.72,18.72,0,0,0,0-2.7,8.43,8.43,0,0,0-.11-.86c.08-.5.17-1,.25-1.49.17-1,.31-1.92.48-2.88A17.94,17.94,0,0,0,19,20.41a4.37,4.37,0,0,0-.08-1.53,3.22,3.22,0,0,0-4.21-2.21,3.77,3.77,0,0,0-1.57,1.1,5.66,5.66,0,0,0-.73,1.12l-.69,0a4.57,4.57,0,0,0-.51-.42,2.41,2.41,0,0,0-.8-.4,2.69,2.69,0,0,0-1.23,0,3.13,3.13,0,0,0-.54.19,6.52,6.52,0,0,1-.38-.68,5.23,5.23,0,0,1-.18-.68c.09-.13.2-.26.29-.38l-.06.07c.44-.58.83-1.17,1.25-1.76l-.31.4.63-.81c.44-.55.93-1.06,1.39-1.59s1-1.21,1.49-1.83h0c.49-.63,1-1.26,1.44-1.91a2,2,0,0,0,.21-1.54,2,2,0,0,0-2.47-1.4A2.17,2.17,0,0,0,10.75,7c-.24.34-.49.67-.74,1l-.52.68c-1,1.28-2.17,2.45-3.15,3.76l0,0c-.23.3-.46.61-.68.92s-.31.48-.47.72l-.68.9a3.11,3.11,0,0,0-.47,2.23,2.33,2.33,0,0,0-.17.26A5.72,5.72,0,0,0,3.46,20c0,.5,0,1,0,1.5s0,1.08,0,1.61a46,46,0,0,0-.37,5.25C3,29.2,3,30.09,2.9,31c0,.45-.06.89-.08,1.34a6.2,6.2,0,0,0,.07,1.77,2.32,2.32,0,0,0,2.18,1.82A2.07,2.07,0,0,0,6,35.7a2.88,2.88,0,0,0,.59.89c.77.79,1.86.66,2.85.59a11,11,0,0,1,1.72,0c.19,0,.39.07.58.12a5.34,5.34,0,0,0,1.26.27h.08A2.72,2.72,0,0,0,15,36.68ZM9.84,8.25,10,8.1l-.12.15Z"/></g></g></svg>