<svg xmlns="http://www.w3.org/2000/svg" viewBox="0 0 577 543"><defs><style>.cls-1{fill:#fff;stroke:#000;stroke-miterlimit:10;}.cls-2{font-size:50px;}.cls-18,.cls-2{fill:#262761;}.cls-12,.cls-2,.cls-9{font-family:GlacialIndifference-Bold, Glacial Indifference;font-weight:700;}.cls-3{letter-spacing:-0.05em;}.cls-4{letter-spacing:-0.05em;}.cls-5{letter-spacing:0em;}.cls-6,.cls-8{fill:none;stroke:#272761;}.cls-6{stroke-width:2px;}.cls-26,.cls-7{font-size:12px;}.cls-12,.cls-13,.cls-14,.cls-22,.cls-7{fill:#231f20;}.cls-13,.cls-14,.cls-20,.cls-7{font-family:GlacialIndifference-Regular, Glacial Indifference;}.cls-12,.cls-13,.cls-22,.cls-9{font-size:14px;}.cls-9{fill:#f6b327;}.cls-10{letter-spacing:-0.04em;}.cls-11{letter-spacing:-0.09em;}.cls-14,.cls-17,.cls-20{font-size:11px;}.cls-15{letter-spacing:-0.07em;}.cls-16{letter-spacing:0em;}.cls-17,.cls-20,.cls-21,.cls-26{fill:#939598;}.cls-17,.cls-22,.cls-26{font-family:GlacialIndifference-Italic, Glacial Indifference;font-style:italic;}.cls-19{letter-spacing:-0.11em;}.cls-23{letter-spacing:-0.09em;}.cls-24{letter-spacing:0em;}.cls-25{letter-spacing:-0.1em;}</style></defs><title>Asset 2</title><g id="Layer_2" data-name="Layer 2"><g id="Layer_1-2" data-name="Layer 1"><rect class="cls-1" x="0.5" y="0.5" width="576" height="542"/><text class="cls-2" transform="translate(20.49 60.11)">ME<tspan class="cls-3" x="71.35" y="0">G</tspan><tspan x="107.95" y="0">AN </tspan><tspan class="cls-4" x="187.6" y="0">B</tspan><tspan class="cls-5" x="212.75" y="0">YERS</tspan></text><line class="cls-6" x1="20.49" y1="121.89" x2="560.49" y2="121.89"/><line class="cls-6" x1="20.49" y1="87.42" x2="560.49" y2="87.42"/><text class="cls-7" transform="translate(20.49 102.43)">Aspiring designer &amp; web developer inspired by nature and the endless possibilities of computers, </text><text class="cls-7" transform="translate(20.49 115.43)">excited to work hard and hoping to learn a little something about everything.</text><line class="cls-8" x1="301.66" y1="156.66" x2="301.66" y2="481.2"/><text class="cls-9" transform="translate(20.49 156.47)">EDU<tspan class="cls-10" x="25.21" y="0">C</tspan><tspan class="cls-11" x="35.01" y="0">A</tspan><tspan x="43.39" y="0">TION</tspan></text><text class="cls-12" transform="translate(21.97 178.97)">Bachelor of Arts - </text><text class="cls-13" transform="translate(137.75 178.97)">Computer Science</text><text class="cls-14" transform="translate(20.49 193.7)">Minor in Graphic Design • 3.0 G<tspan class="cls-15" x="149.46" y="0">P</tspan><tspan class="cls-16" x="154.49" y="0">A</tspan></text><text class="cls-14" transform="translate(20.49 206.71)">University of Colorado at Boulder </text><text class="cls-17" transform="translate(20.49 219.71)">August 2015 - May 2019</text><text class="cls-9" transform="translate(327.49 156.47)">EXPERIENCE</text><text class="cls-12" transform="translate(327.7 229.93)">Graphic Designer</text><text class="cls-14" transform="translate(327.7 242.53)">West Flanders Brewing Co. </text><text class="cls-17" transform="translate(327.7 255.53)"><tspan xml:space="preserve">Aug. 2018 - current  • Boulder, CO</tspan></text><polygon class="cls-18" points="306.05 219.42 297.7 219.42 293.52 226.41 297.7 233.39 306.05 233.39 310.23 226.41 306.05 219.42"/><text class="cls-12" transform="translate(327.7 449.95)">Graphic Design Intern</text><text class="cls-14" transform="translate(327.7 463.25)">CU Boulder Office of Information <tspan class="cls-19" x="159.36" y="0">T</tspan><tspan x="162.97" y="0">echnology</tspan></text><text class="cls-17" transform="translate(327.7 476.25)"><tspan xml:space="preserve">Jul. 2016 - Sep. 2016  </tspan></text><text class="cls-20" transform="translate(429.95 476.25)">•</text><text class="cls-17" transform="translate(433.25 476.25)"><tspan xml:space="preserve"> Boulder, CO</tspan></text><polygon class="cls-21" points="306.05 439.45 297.7 439.45 293.52 446.44 297.7 453.42 306.05 453.42 310.23 446.44 306.05 439.45"/><text class="cls-12" transform="translate(20.49 473.8)">Software Development - </text><text class="cls-22" transform="translate(180.23 473.8)">SummitPlan</text><text class="cls-14" transform="translate(20.49 488.11)">• Developed a hiking trail selection website with four</text><text class="cls-14" transform="translate(20.49 500.11)">students using Ruby on Rails and Docker </text><text class="cls-14" transform="translate(20.49 513.11)">• </text><text class="cls-14" transform="translate(26.76 513.11)">Designed site pages with HTML &amp; CSS </text><text class="cls-9" transform="translate(20.49 253.73)">PROJECTS</text><text class="cls-12" transform="translate(20.49 342.47)">Big Data - </text><text class="cls-22" transform="translate(86.99 342.47)">World in a Hashtag </text><text class="cls-14" transform="translate(20.49 356.78)">• Built a <tspan class="cls-23" x="38.56" y="0">T</tspan><tspan class="cls-24" x="42.46" y="0">witter database with over 3 million entries </tspan></text><text class="cls-14" transform="translate(20.49 368.78)">under the mentorship of four graduate students</text><text class="cls-14" transform="translate(20.49 381.78)">• Designed pages for <tspan class="cls-23" x="101.96" y="0">T</tspan><tspan class="cls-24" x="105.85" y="0">witter topics using React.js</tspan></text><text class="cls-12" transform="translate(20.49 408.33)">Web Design - </text><text class="cls-22" transform="translate(109.43 408.33)">Fracking Infosite </text><text class="cls-14" transform="translate(20.49 422.64)">• Designed an infosite on the affects of fracking in </text><text class="cls-14" transform="translate(20.49 434.64)">Colorado using HTML and CSS with simple Javascript </text><text class="cls-14" transform="translate(20.49 446.65)">elements</text><text class="cls-12" transform="translate(20.49 277.6)">Data Science - </text><text class="cls-22" transform="translate(118.74 277.6)">Glacier Analysis</text><text class="cls-14" transform="translate(20.49 291.91)">• Analyzed and cleaned a dataset of over 250,000 </text><text class="cls-14" transform="translate(20.49 303.91)">glacier datapoints with a graduate level student</text><text class="cls-14" transform="translate(20.49 315.91)">• Generated confidence intervals using SLR and MLR</text><polygon class="cls-21" points="306.05 330.74 297.7 330.74 293.52 337.72 297.7 344.7 306.05 344.7 310.23 337.72 306.05 330.74"/><text class="cls-12" transform="translate(329.32 341.24)">Ultrarange Project Ambassador</text><text class="cls-14" transform="translate(329.32 353.52)"><tspan class="cls-25">V</tspan><tspan x="5.88" y="0">ans</tspan></text><text class="cls-17" transform="translate(329.32 366.53)">Mar. 2017 - Dec. 2018 </text><text class="cls-20" transform="translate(435.09 366.53)">•</text><text class="cls-17" transform="translate(438.39 366.53)"><tspan xml:space="preserve"> Boulder, CO</tspan></text><text class="cls-12" transform="translate(327.7 395.52)">Web Content Management Intern</text><text class="cls-14" transform="translate(327.7 408.71)">Special Undergraduate Enrichment Programs</text><text class="cls-17" transform="translate(327.7 421.72)"><tspan xml:space="preserve">Jan. 2017 - May 2017  </tspan></text><text class="cls-20" transform="translate(431.42 421.72)">•</text><text class="cls-17" transform="translate(434.72 421.72)"><tspan xml:space="preserve"> Boulder, CO</tspan></text><polygon class="cls-21" points="306.05 385.02 297.7 385.02 293.52 392 297.7 398.98 306.05 398.98 310.23 392 306.05 385.02"/><text class="cls-12" transform="translate(327.05 282.79)">Freelance Graphic Designer</text><text class="cls-7" transform="translate(327.05 297.01)">CiviCO Club</text><text class="cls-26" transform="translate(327.05 311.02)">Dec. 2018 - Apr. 2019</text><polygon class="cls-21" points="306.05 272.29 297.7 272.29 293.52 279.28 297.7 286.26 306.05 286.26 310.23 279.28 306.05 272.29"/><text class="cls-12" transform="translate(327.7 178.97)">Freelance Designer</text><text class="cls-14" transform="translate(327.7 191.58)">Design Elixir by Megan Byers</text><text class="cls-17" transform="translate(327.7 204.58)"><tspan xml:space="preserve">Jan. 2019 - current  • Boulder, CO</tspan></text><polygon class="cls-18" points="306.05 168.47 297.7 168.47 293.52 175.46 297.7 182.44 306.05 182.44 310.23 175.46 306.05 168.47"/></g></g></svg>