<svg xmlns="http://www.w3.org/2000/svg" width="723.613" height="283.755" viewBox="0 0 723.613 283.755">
  <defs>
    <style>
      .a {
        fill: #fefefe;
      }
    </style>
  </defs>
  <g>
    <path class="a" d="M548.526,11.466c-2.429.125-4.847.324-7.273.523-4.211.344-8.418.7-12.617,1.168-1.977.219-3.957.371-5.938.543-2.168.188-4.328.445-6.492.688-4.25.48-8.488.98-12.719,1.6q-5.631.814-11.271,1.6c-7.482.838-14.958,1.671-22.413,2.711-4.812.63-9.6,1.312-14.374,2.214q-3.685.7-7.332,1.558c-2.293.543-4.555,1.239-6.817,1.891q-3.708,1.072-7.414,2.141c-2.176.632-4.328,1.375-6.484,2.074-4.856,1.574-9.672,3.265-14.559,4.75-2.371.722-4.715,1.547-7.09,2.258s-4.785,1.394-7.171,2.125c-4.594,1.4-9.25,2.613-13.84,4.035-2.317.718-4.617,1.48-6.918,2.246-2.543.844-5.035,1.8-7.524,2.789-4.8,1.914-9.566,3.867-14.285,5.969-10.856,4.832-21.463,10.247-32.447,14.791-4.676,1.775-9.363,3.544-14.108,5.127-4.687,1.566-9.359,3.214-14.105,4.589-2.41.7-4.824,1.325-7.281,1.84-2.477.528-4.957,1.032-7.438,1.547-5.183,1.086-10.347,2.254-15.511,3.438-3.028.695-6.055,1.394-9.1,2-3.025.6-6.057,1.084-9.1,1.511a104.823,104.823,0,0,1-18.723.262c-3.375-.222-6.742-.574-10.113-.875-3.172-.281-6.352-.519-9.516-.859l.168.022c-1.521-.194-3.043-.383-4.564-.577-2.549-.348-5.11-.7-7.67-.949-2.234-.222-4.474-.372-6.708-.606a23.689,23.689,0,0,0-3.085-.332,14.222,14.222,0,0,0-2.259.191,8.138,8.138,0,0,0-1.917.309,4.219,4.219,0,0,0-2.438,1.856,4,4,0,0,0,1.446,5.469,3.86,3.86,0,0,0,3.031.414,1.56,1.56,0,0,1,.187-.076c.206-.021.411-.048.615-.078a13.952,13.952,0,0,1,2.192-.044c2.236.327,4.487.521,6.74.7,2.279.187,4.547.466,6.815.738q2.807.382,5.623.723l-.441-.058c4.991.625,10.008.983,15.019,1.445,2.543.238,5.086.465,7.633.633,2.441.164,4.9.184,7.351.219a88.8,88.8,0,0,0,15.02-1.133c5.031-.777,10-1.824,14.961-2.969,4.746-1.094,9.492-2.2,14.261-3.191,2.489-.52,4.981-1.024,7.465-1.547,2.442-.516,4.91-.992,7.309-1.688,4.969-1.437,9.867-3.082,14.773-4.718,4.864-1.625,9.68-3.383,14.473-5.2,3.945-1.5,7.789-3.23,11.633-4.964,3.605-1.629,7.191-3.309,10.769-5,7.392-3.483,14.806-6.9,22.371-9.993,1.97-.8,3.939-1.628,5.93-2.367,2.449-.906,4.918-1.734,7.395-2.551,4.566-1.507,9.191-2.832,13.816-4.148,2.355-.672,4.695-1.387,7.039-2.086s4.7-1.367,7.035-2.117c2.289-.738,4.59-1.43,6.883-2.164,2.367-.758,4.707-1.6,7.07-2.367,3.684-1.2,7.364-2.411,11.059-3.567,3.332-1.043,6.707-1.953,10.062-2.91,3.657-1.043,7.329-1.9,11.055-2.637,3.564-.705,7.142-1.263,10.733-1.79,2.955-.386,5.908-.788,8.861-1.185,2.661-.341,5.329-.625,8-.939,3.121-.371,6.258-.652,9.371-1.078,5.607-.771,11.2-1.616,16.81-2.368,4.985-.57,9.967-1.139,14.967-1.569,2.274-.2,4.536-.481,6.805-.7,2.664-.257,5.328-.476,8-.7,4.824-.394,9.621-.758,14.465-.723,2.523.016,5.031.1,7.547.231,2.4.125,4.793.535,7.191.73,2.883.239,5.766.5,8.645.793,3.015.313,6.035.676,9.058.907,5.518.424,11.027.877,16.516,1.56,4.395.6,8.746,1.4,13.1,2.244,4.312.832,8.64,1.6,12.957,2.4,4.25.789,8.5,1.558,12.726,2.476q6.915,1.5,13.832,2.992a4,4,0,0,0,2.047-7.738q-7.611-1.646-15.222-3.293c-4.407-.957-8.852-1.707-13.286-2.523q-7.381-1.359-14.757-2.774c-5.008-.965-10.063-1.664-15.129-2.222-4.848-.532-9.711-.828-14.563-1.285-4.918-.461-9.828-1.032-14.754-1.438-2.558-.211-5.109-.508-7.668-.758-2.316-.23-4.672-.277-7-.293q-1.045-.007-2.091-.009c-1.764,0-3.527.025-5.288.115ZM603.74,23.587l.556.07-.556-.07ZM185.222,93.337l-.234.03a1.781,1.781,0,0,1,.234-.03Z"/>
    <path class="a" d="M180.034,89.74A4.017,4.017,0,0,0,177.6,91.6a4.206,4.206,0,0,0-.41,3.035c.4,2.161.789,4.325,1.219,6.481.406,2.051.882,4.082,1.265,6.137.328,1.773.551,3.566.887,5.34a23.19,23.19,0,0,0,.676,2.832c.34,1.023.707,2.031,1.054,3.05.618,1.825,1.125,3.692,1.692,5.532.547,1.789,1.1,3.582,1.66,5.367.594,1.9,1.129,3.812,1.664,5.726a46.278,46.278,0,0,1,1.182,5.151c.189,1.914.32,3.817.408,5.736.094,2.1.129,4.2.211,6.305.156,4.086.32,8.168.449,12.254.125,4.043.195,8.093.176,12.136-.016,2.141.054,4.27-.039,6.407-.082,1.871-.207,3.742-.3,5.613-.211,4.23-.524,8.453-.488,12.691.015,2.082.234,4.16.39,6.231.145,2,.262,3.992.375,5.988a115.976,115.976,0,0,1-.234,12.168c-.1,2.117-.176,4.234-.121,6.355s.219,4.235.269,6.356c.078,3.32.149,6.672-.039,9.992-.086,1.492-.261,2.992-.414,4.481-.172,1.625-.308,3.25-.515,4.871.01-.08.021-.159.032-.239-.2,1.6-.329,3.2-.423,4.817-.09,1.5.2,3.027.091,4.525q-.055.423-.1.846a4.635,4.635,0,0,0,.676,2.406,4,4,0,0,0,7.382-2.859c.023-.191.044-.383.063-.574a8.392,8.392,0,0,0-.054-1.434q-.064-1.036-.075-2.074a43.914,43.914,0,0,1,.292-4.529c.231-1.922.4-3.847.634-5.768.113-.945.188-1.9.27-2.848.078-.926.187-1.855.207-2.785.074-4.258.078-8.539-.18-12.793-.25-4.148.027-8.262.172-12.406.074-2.094.148-4.192.121-6.285-.023-2.028-.168-4.043-.281-6.067-.11-1.968-.321-3.933-.422-5.9-.109-2.109-.141-4.2-.07-6.316.132-4.094.355-8.2.621-12.286.273-4.164.129-8.316.121-12.484,0-3.937-.11-7.867-.223-11.805-.117-4.175-.4-8.347-.484-12.523a60.669,60.669,0,0,0-1.293-12.992c-.922-3.789-2.11-7.52-3.27-11.239-.558-1.789-1.129-3.578-1.652-5.378-.277-.965-.574-1.918-.9-2.872s-.718-1.9-.984-2.882c-.871-3.215-1.226-6.547-1.84-9.817-.312-1.644-.718-3.269-1.043-4.914-.383-1.918-.722-3.844-1.078-5.765a3.941,3.941,0,0,0-3.933-2.968,3.763,3.763,0,0,0-.954.12Z"/>
    <path class="a" d="M581.1,190.245c-2.211.133-4.422.238-6.629.43-4.973.433-9.945.847-14.91,1.355-4.465.461-8.938.836-13.4,1.332-5.031.563-10.058,1.16-15.093,1.7-4.645.5-9.313.77-13.946,1.356q-7.651.966-15.175,2.6c-4.778,1.039-9.477,2.407-14.137,3.871-4.645,1.461-9.317,2.832-13.965,4.278-2.945.918-5.875,1.886-8.812,2.832-2.809.9-5.559,1.957-8.3,3.039q-4.231,1.669-8.5,3.242c-2.883,1.056-5.708,2.237-8.548,3.4-6.567,2.645-13.246,5-19.819,7.614-3.434,1.363-6.778,2.949-10.1,4.57-1.57.766-3.106,1.606-4.676,2.379-1.311.642-2.651,1.221-4,1.787-2.712,1.054-5.44,2.069-8.15,3.119q-4.816,1.867-9.58,3.84c-2.042.821-4.081,1.647-6.127,2.453-2.176.86-4.383,1.621-6.582,2.406-4.594,1.637-9.246,3.11-13.914,4.532s-9.262,3.031-13.926,4.437c-4.418,1.336-8.86,2.594-13.3,3.84-1.953.551-3.9,1.07-5.9,1.469-2.273.457-4.554.855-6.839,1.25-4,.695-7.93,1.758-11.918,2.512-3.887.73-7.809,1.2-11.707,1.835-2.078.34-4.141.743-6.223,1.047q-3.31.48-6.624.937-1.749.224-3.5.455c-3.17.363-6.349.712-9.542.784-1.824.043-3.649.008-5.473-.027-1.48-.028-2.961-.059-4.441-.047-3.281.023-6.563.164-9.844.129a79.163,79.163,0,0,1-8.8-.7c-3.544-.507-7.073-1.116-10.629-1.528-1.66-.191-3.324-.273-4.992-.359s-3.332-.3-4.98-.5c-1.864-.238-3.727-.316-5.6-.437-1.516-.1-3.055-.137-4.574-.114-1.8.028-3.59.164-5.383.239-1.973.082-3.945.164-5.922.23a4,4,0,0,0,.016,8c2.922-.106,5.851-.207,8.773-.375a66.508,66.508,0,0,1,7.949.07c1.313.086,2.633.114,3.942.278q2.18.281,4.367.484c1.3.121,2.606.187,3.91.25,1.108.054,2.213.194,3.315.328,4.154.578,8.279,1.335,12.451,1.754a96.514,96.514,0,0,0,12.484.3c1.973-.055,3.946-.059,5.918-.047,2.133.008,4.266.117,6.4.09a105.161,105.161,0,0,0,12.885-1.086c4.856-.625,9.719-1.259,14.536-2.129,4.336-.785,8.715-1.281,13.051-2.07,2.18-.4,4.328-.918,6.485-1.414,2.25-.516,4.523-.942,6.8-1.336,2.415-.418,4.813-.868,7.211-1.36,2.243-.461,4.45-1.172,6.653-1.8,4.468-1.273,8.945-2.523,13.379-3.929,4.636-1.473,9.25-3,13.906-4.414,4.7-1.434,9.351-3.043,13.992-4.672,4.617-1.621,9.156-3.512,13.672-5.391l1.107-.459c2.547-1,5.088-2.027,7.643-3,2.965-1.129,5.953-2.179,8.859-3.457,2.75-1.207,5.379-2.64,8.078-3.957q3.644-1.782,7.357-3.4c3.845-1.517,7.729-2.927,11.593-4.4q6.417-2.441,12.762-5.079c4.254-1.7,8.569-3.238,12.831-4.905,2.434-.949,4.868-1.867,7.336-2.715,2.215-.762,4.461-1.449,6.692-2.16,4.7-1.5,9.426-2.934,14.144-4.375,2.328-.711,4.645-1.457,6.977-2.156,2.254-.676,4.547-1.246,6.832-1.817a157.018,157.018,0,0,1,15.743-3c4.55-.555,9.124-.913,13.687-1.342,4.789-.454,9.566-1.075,14.343-1.61,9.457-1.058,18.942-1.906,28.418-2.734,3.832-.336,7.688-.59,11.532-.754,4.105-.176,8.226-.043,12.335.078q6.27.193,12.52.754c3.851.34,7.7.667,11.533,1.133,4.161.607,8.321,1.248,12.436,2.133,1.984.425,3.965.894,5.969,1.23,2.343.388,4.689.7,7.044.982a36.328,36.328,0,0,1,3.694.7,32.623,32.623,0,0,1,3.7,1.262c1.2.461,2.461.781,3.684,1.176,1.5.48,2.972,1.055,4.457,1.6a3.852,3.852,0,0,0,2.988-.383,4,4,0,0,0,1.516-5.453,4.254,4.254,0,0,0-2.461-1.9c-1.637-.6-3.262-1.218-4.922-1.75-1.543-.5-3.071-.98-4.59-1.543a43.254,43.254,0,0,0-9.994-1.94c-2.2-.352-4.393-.731-6.576-1.181-2.332-.48-4.645-1.008-6.989-1.426-4.75-.839-9.539-1.566-14.343-2.019-4.778-.445-9.559-.848-14.348-1.16-4.918-.321-9.871-.36-14.8-.391h-.258c-2.051,0-4.109.174-6.156.3ZM439.471,219.769l-.69.281.69-.281Z"/>
    <path class="a" d="M312.569,26.771a10.635,10.635,0,0,0-1.476,1.018c-1.123.8-2.283,1.542-3.39,2.371-.573.4-1.165.765-1.774,1.119-.844.492-1.6,1.109-2.442,1.605-.781.465-1.57.918-2.347,1.4-.9.55-1.758,1.183-2.629,1.785a51.413,51.413,0,0,1-4.969,3.09c-1.879,1.007-3.77,1.972-5.687,2.91-1.708.84-3.485,1.582-5.243,2.312-1.8.754-3.605,1.5-5.406,2.258-3.648,1.531-7.246,3.184-10.891,4.727-4.382,1.854-8.7,3.846-13.1,5.664-1.99.727-4,1.416-6,2.117-1.813.637-3.68,1.113-5.524,1.648-3.879,1.125-7.73,2.321-11.539,3.668A103.453,103.453,0,0,1,218.866,68c-1.988.461-3.984.879-5.969,1.364-1.761.429-3.519.9-5.277,1.359-4.07,1.055-8.172,1.973-12.223,3.1a39.979,39.979,0,0,0-7.242,2.961c-2.261,1.14-4.508,2.308-6.777,3.437a4,4,0,0,0,.949,7.352,4.144,4.144,0,0,0,2.988-.383c3.268-1.632,6.471-3.434,9.829-4.877,3.7-1.258,7.518-2.1,11.3-3.057,3.555-.9,7.1-1.859,10.676-2.668,2.012-.457,4.02-.906,6.016-1.429,2.019-.528,3.988-1.176,5.957-1.86,3.769-1.308,7.527-2.625,11.34-3.808,1.8-.559,3.632-1.067,5.453-1.571,1.965-.539,3.882-1.222,5.8-1.886,2.278-.793,4.516-1.649,6.746-2.563,1.9-.777,3.778-1.625,5.653-2.465,3.594-1.609,7.25-3.074,10.828-4.711,3.469-1.586,7.008-3.015,10.527-4.488,2.438-1.016,4.879-2.051,7.25-3.215,2.387-1.172,4.817-2.355,7.078-3.761,2.223-1.383,4.286-3,6.551-4.325.582-.343,1.168-.687,1.738-1.054s1.09-.77,1.665-1.118c1.03-.626,2-1.268,2.955-1.986.271-.19.547-.37.823-.551.212.97.457,1.922.631,2.9.109,1.23.119,2.465.13,3.7.011,1.48.121,2.957.109,4.441-.016,1.34-.063,2.692-.148,4.032-.072,1.1-.106,2.2-.209,3.3-.294,1.715-.676,3.433-.8,5.168-.129,1.832-.028,3.664-.1,5.5a41.393,41.393,0,0,0,.016,4.969c.05.656.156,1.3.16,1.965,0,.453-.008.9-.031,1.356a9.59,9.59,0,0,0,.206,2.045q.029.307.047.615a4.221,4.221,0,0,0,1.141,2.793,4,4,0,0,0,6.863-2.805c-.052-.759-.133-1.518-.253-2.27-.02-.58.034-1.166.031-1.75a13.854,13.854,0,0,0-.106-1.39,31.174,31.174,0,0,1-.14-3.363c0-1.305.093-2.6.07-3.907-.018-1.21.008-2.427.088-3.634.166-1.064.36-2.121.533-3.182a41.977,41.977,0,0,0,.445-4.852q.094-1.915.157-3.836c.054-1.566-.012-3.121-.079-4.687-.058-1.52.012-3.039-.164-4.555a22.188,22.188,0,0,0-.429-2.769c-.149-.606-.309-1.207-.438-1.817a25.556,25.556,0,0,0-1.015-3.726,6.41,6.41,0,0,0-1.387-2.473,5.039,5.039,0,0,0-3.359-1.52h-.061a6.2,6.2,0,0,0-2.85.735Z"/>
    <path class="a" d="M249.456,6.253c-2.082.016-4.161.043-6.239.16-2.343.133-4.672.481-7,.816-4.047.59-8.023,1.622-12.015,2.489-2.02.437-4.032.9-6.055,1.324-1.942.41-3.906.727-5.859,1.078-4.176.754-8.333,1.609-12.516,2.313-2.113.355-4.238.636-6.356.968-2.015.317-4.027.664-6.046.93-4.172.555-8.317,1.231-12.461,1.957-3.969.691-7.965,1.191-11.946,1.789-4.324.649-8.621,1.5-12.883,2.469-2,.453-4,.961-6,1.473-2.015.519-4.035,1.011-6.05,1.535-1.993.519-3.985,1.031-5.993,1.488-2.035.461-4.1.785-6.156,1.156-4.624.837-9.241,1.686-13.88,2.42C103.819,31.654,95.62,32.48,87.37,32.8c-4.114.16-8.254-.051-12.364-.27-1.976-.105-3.957-.254-5.937-.316-2.168-.07-4.34-.117-6.508-.2-3.48-.122-6.953-.465-10.422-.727-3.163-.238-6.336-.467-9.49-.843A49.059,49.059,0,0,1,37.01,29.19c-1.833-.539-3.616-1.184-5.39-1.885q-2.977-1.282-5.887-2.708c-1.059-.52-2.106-1.075-3.152-1.621-.555-.289-1.11-.586-1.664-.883a8.506,8.506,0,0,0-4.133-1.442,5.49,5.49,0,0,0-1.489.207,4.032,4.032,0,0,0-1.777,1.008c-.258.317-.5.641-.75.965a4.06,4.06,0,0,0-.406,3.191,5.893,5.893,0,0,0,1.289,2.207,4.7,4.7,0,0,0,.777.692c.465.363.93.726,1.41,1.07.454.328.93.629,1.4.934,1.87,1.212,3.8,2.3,5.605,3.605,1.62,1.357,3.057,2.9,4.61,4.336,1.781,1.649,3.5,3.375,5.179,5.121.813.848,1.68,1.633,2.508,2.461.906.9,1.8,1.813,2.7,2.715A70.176,70.176,0,0,0,44.5,54.741c-.282-.219-.567-.437-.848-.656,1.687,1.355,3.367,2.727,5.074,4.059,1.79,1.391,3.617,2.731,5.424,4.1,3.264,2.555,6.517,5.123,9.9,7.513a84.266,84.266,0,0,0,10.946,6.781c2,1,4.1,1.8,6.187,2.609.953.368,1.953.637,2.926.934s1.957.57,2.945.8c2,.457,4.008.894,5.993,1.418a40.021,40.021,0,0,1,4.048,1.323c-.623.532-1.223,1.086-1.849,1.614-1.426,1.2-2.824,2.426-4.211,3.668C88,91.616,85.159,94.53,82.264,97.378c-2.965,2.918-6.078,5.641-9.254,8.328-2.759,2.333-5.544,4.616-8.417,6.8-3.163,2.225-6.311,4.49-9.532,6.634a71.267,71.267,0,0,1-9.615,5.548c-2.4.867-4.845,1.578-7.272,2.377-1.363.446-2.726.9-4.1,1.328a29.6,29.6,0,0,1-3.783.884,81.152,81.152,0,0,1-9,.148c-1.516-.024-3.043,0-4.555.113l-.653.048c-.639-.149-1.278-.284-1.929-.388a18.05,18.05,0,0,0-2.746-.269,4.92,4.92,0,0,0-4.164,2.351,4.232,4.232,0,0,0,.632,4.969,6.082,6.082,0,0,0,4.09,1.476,19.136,19.136,0,0,0,2.95-.062l.476-.03c.96.247,1.914.521,2.859.8,1.819.535,3.6,1.183,5.372,1.867.048.019.1.038.144.055l.067.026a4,4,0,0,0,.618.254l.266.11c3.6,1.54,7.06,3.449,10.487,5.332,3.8,2.086,7.558,4.242,11.316,6.406A117.053,117.053,0,0,0,57.1,158.312a102.149,102.149,0,0,0,12.7,4.656q7.365,2.156,14.754,4.211c2.344.652,4.695,1.265,7.082,1.758,2.761.565,5.545.942,8.344,1.268,1.955.257,3.912.526,5.871.778-.344-.043-.687-.089-1.031-.132,2.054.282,4.108.525,6.162.767,1.874.243,3.747.5,5.622.732,2.074.272,4.155.527,6.243.719,2.024.184,4.035.262,6.07.282,2.071.023,4.145-.168,6.2-.332s4.109-.329,6.16-.559c4.187-.473,8.383-.875,12.6-1.031,3.848-.141,7.668-.457,11.489-.918,1.511-.184,3.015-.4,4.519-.606,1.367-.191,2.7-.5,4.063-.715.668-.109,1.336-.207,2-.351.617-.133,1.222-.336,1.836-.492,1.488-.379,2.906-.973,4.41-1.313a4,4,0,1,0-2.043-7.734c-2.477.558-4.813,1.6-7.336,2.008-1.25.2-2.488.461-3.738.683-.98.177-1.976.291-2.965.425-3.558.43-7.111.789-10.692.938-4.07.172-8.121.45-12.171.887-4.282.465-8.571.922-12.875,1.078a80.762,80.762,0,0,1-11.691-.7q-1.851-.24-3.7-.47c-2.465-.349-4.933-.648-7.405-.937-1.193-.161-2.388-.314-3.583-.467-2.03-.293-4.065-.535-6.1-.791-2.934-.479-5.833-1.055-8.709-1.806-3.058-.8-6.086-1.707-9.125-2.57a177.83,177.83,0,0,1-17.7-5.633c-1.709-.762-3.411-1.551-5.04-2.476-1.832-1.043-3.652-2.1-5.477-3.153-3.789-2.183-7.578-4.359-11.4-6.48-1.973-1.1-3.956-2.206-5.967-3.254,1.708-.441,3.382-1,5.061-1.551,2.07-.683,4.168-1.273,6.226-1.984,1.215-.418,2.426-.848,3.6-1.375.984-.438,1.937-.934,2.887-1.438A101.885,101.885,0,0,0,62.7,123.562q2.432-1.7,4.859-3.407c1.8-1.265,3.535-2.609,5.266-3.961,3.371-2.636,6.629-5.433,9.843-8.254s6.2-5.863,9.243-8.863q4.2-4.137,8.714-7.945c.747-.629,1.477-1.281,2.215-1.918a24.194,24.194,0,0,0,2.414-2.235,6.974,6.974,0,0,0,1.832-3.347c.047-.344.09-.688.133-1.028a8.449,8.449,0,0,0-.2-1.335,4.994,4.994,0,0,0-1.164-2.067,7.659,7.659,0,0,0-1.461-1.066c-.18-.09-.367-.172-.551-.254-.469-.215-.933-.426-1.406-.637A58.956,58.956,0,0,0,96.245,74.9c-1.9-.6-3.848-1-5.782-1.441-1.7-.379-3.371-.82-5.035-1.328-1.545-.47-3.041-1.033-4.532-1.633-6.748-3.039-12.775-7.45-18.613-11.954-2.772-2.166-5.57-4.295-8.375-6.413-2.222-1.748-4.41-3.54-6.644-5.274.281.219.567.438.848.657-1.227-.977-2.461-1.953-3.6-3.035-1.16-1.106-2.281-2.254-3.414-3.383s-2.281-2.219-3.391-3.364l-.132-.136q.7.165,1.406.316a54.142,54.142,0,0,0,6.883.863c2.066.168,4.125.348,6.191.516,3.992.316,8,.691,12,.785,8.363.192,16.7.985,25.07.66,4.329-.168,8.649-.543,12.957-.957,4.344-.414,8.708-.91,13.016-1.589,4.192-.657,8.363-1.446,12.543-2.2,2.121-.382,4.242-.761,6.356-1.187,1.941-.391,3.851-.926,5.765-1.422A241.348,241.348,0,0,1,164.8,27.847c4.028-.606,8.059-1.176,12.086-1.813,2.075-.328,4.145-.719,6.219-1.058,2.027-.332,4.059-.61,6.09-.879,1.977-.262,3.945-.594,5.91-.9,2.113-.332,4.238-.609,6.348-.965,4.176-.7,8.328-1.55,12.5-2.3,2.168-.391,4.348-.746,6.5-1.2,2.281-.481,4.551-1,6.832-1.5,2.164-.468,4.316-1.019,6.492-1.441s4.335-.792,6.518-1.108a98.93,98.93,0,0,1,13.146-.368c4.109.11,8.173.614,12.248,1.1,3.566.494,7.132.993,10.713,1.384,3.316.364,6.657.471,9.979.821a69.767,69.767,0,0,1,12.515,3.237,31.26,31.26,0,0,1,2.838,1.43,37.21,37.21,0,0,1,3.184,2.219c2.457,1.781,4.843,3.656,7.254,5.5a3.81,3.81,0,0,0,3.035.41,3.995,3.995,0,0,0,2.843-4.887q-.187-.474-.382-.949a4.01,4.01,0,0,0-1.469-1.488C313.069,20.7,310,18.2,306.725,16.015a36.362,36.362,0,0,0-10.75-4.453c-1.644-.454-3.305-.911-4.976-1.25a54.553,54.553,0,0,0-6.473-.872c-3.694-.311-7.381-.556-11.064-.967-4-.528-7.985-1.111-11.991-1.572a98.449,98.449,0,0,0-11.2-.652q-.406,0-.812,0ZM15.768,28.519c.051.005.1.012.151.02l-.151-.02ZM112.917,30.5l-.37.047.37-.047Z"/>
    <path class="a" d="M96.3,81.983c-.934.763-1.847,1.534-2.741,2.353.254-.234.508-.465.766-.7-.719.656-1.512,1.23-2.25,1.859-.8.691-1.605,1.383-2.43,2.051-1.019.832-2.035,1.668-3.043,2.519-1.281,1.088-2.467,2.282-3.688,3.441-2.112,1.869-4.379,3.553-6.464,5.458.254-.231.512-.465.766-.7-.2.183-.405.367-.606.551-3.938,3.541-8.7,6-12.844,9.265-2.265,1.785-4.554,3.57-6.89,5.27-1,.73-2.074,1.386-3.125,2.054-1.152.732-2.278,1.487-3.47,2.15q-1.383.675-2.784,1.3c-1.164.52-2.3,1.094-3.477,1.586a42.434,42.434,0,0,1-6.912,2.188c-1.413.279-2.835.542-4.259.758-1.985.3-3.969.472-5.973.6-1.793.117-3.59.195-5.383.324-1.762.121-3.555.094-5.324.141-1.9.051-3.793.121-5.68.355a44.9,44.9,0,0,0-5.3.825,7.563,7.563,0,0,0-1.41.531,6.648,6.648,0,0,0-2.672,1.879,4.689,4.689,0,0,0-1.039,2.316,4.5,4.5,0,0,0-.027,1.289,4.691,4.691,0,0,0,.75,2.121,5.648,5.648,0,0,0,.648.934,16.153,16.153,0,0,0,4.3,3.4l-.541-.348a35.694,35.694,0,0,0,4.721,2.574c1.648.734,3.277,1.469,4.859,2.336,3.235,1.766,6.551,3.309,9.9,4.848,3.48,1.6,6.969,3.179,10.476,4.711,1.813.793,3.641,1.55,5.453,2.347.86.375,1.743.692,2.621,1.02.989.371,1.954.793,2.922,1.207,1.028.441,2.075.832,3.094,1.281.934.414,1.863.844,2.8,1.254,2.2.965,4.441,1.762,6.7,2.574,1.1.4,2.207.785,3.305,1.2,1.078.406,2.129.89,3.211,1.289,2.57.953,5.187,1.8,7.8,2.644l-.591-.2a53.031,53.031,0,0,0,5.79,1.555c1.6.325,3.211.614,4.824.891,1.793.309,3.606.5,5.4.844,1.722.332,3.4.82,5.082,1.316s3.363,1.016,5.082,1.422a46.481,46.481,0,0,0,5.238.844c1.707.2,3.441.3,5.152.418,2.262.16,4.524.226,6.785.332.5.023.988.045,1.482.069,2.064.157,4.113.388,6.186.388,1.664,0,3.325-.086,4.989-.1,1.6-.011,3.2.043,4.8.094,1.575.051,3.153.1,4.731.09,3.793-.023,7.578-.231,11.367-.242,1.055,0,2.113.027,3.172.051a57.275,57.275,0,0,0,6.391-.079c2.335-.2,4.679-.461,6.984-.886q4.313-.792,8.594-1.711l-.41.086a69.834,69.834,0,0,0,9.312-2.465c1.641-.59,3.285-1.18,4.895-1.848a44.831,44.831,0,0,0,5.769-3.062,4,4,0,0,0-1.543-7.207,4.183,4.183,0,0,0-3.039.648c-.852.509-1.7,1.014-2.571,1.49a67.954,67.954,0,0,1-7,2.725c-1.075.375-2.188.641-3.282.953s-2.217.587-3.338.832q-1.032.213-2.064.437c-1.553.31-3.112.583-4.664.9a48.828,48.828,0,0,1-4.93.777c-1.543.157-3.074.348-4.625.438-1.605.094-3.2.031-4.808.016-1.672-.02-3.336-.094-5.008-.055-1.754.035-3.5.117-5.254.168-3.5.094-7,.051-10.5-.051-1.676-.047-3.34-.082-5.016-.059-1.737.023-3.461.091-5.2.043-1.754-.125-3.5-.318-5.26-.382q-2.492-.091-4.985-.216a85.736,85.736,0,0,1-8.862-.925c-1.461-.254-2.887-.574-4.321-.957-1.531-.41-3.035-.93-4.562-1.359a45.4,45.4,0,0,0-4.539-1.02c-1.512-.258-3.039-.426-4.555-.684a72.122,72.122,0,0,1-9.039-2l.084.028c-.4-.13-.8-.26-1.2-.387-1.672-.556-3.352-1.1-5-1.715-1.789-.664-3.543-1.422-5.34-2.078-1.734-.633-3.488-1.207-5.219-1.855-1.621-.606-3.2-1.333-4.781-2.051-3.387-1.543-6.891-2.809-10.32-4.254-3.508-1.477-6.965-3.074-10.461-4.586-2.043-.887-4.055-1.848-6.082-2.77-2.078-.945-4.16-1.9-6.18-2.961-1.906-1-3.769-2.074-5.738-2.953-.844-.377-1.685-.746-2.512-1.139h.016c1.867-.188,3.761-.153,5.64-.246,1.785-.09,3.571-.059,5.36-.168,1.836-.11,3.672-.235,5.508-.348a52.366,52.366,0,0,0,5.73-.695c1.9-.321,3.808-.684,5.683-1.125a40.259,40.259,0,0,0,5.207-1.59c1.645-.633,3.211-1.418,4.817-2.137,1.551-.7,3.082-1.43,4.582-2.23s2.887-1.778,4.305-2.7c2.687-1.742,5.2-3.718,7.73-5.679,1.18-.91,2.352-1.836,3.551-2.723,1.3-.961,2.7-1.8,4.047-2.691,1.234-.817,2.445-1.664,3.652-2.524a41.615,41.615,0,0,0,3.736-3.08l-.416.381q.325-.291.647-.587c1.323-1.176,2.755-2.235,4.111-3.366,1.568-1.3,3.008-2.736,4.487-4.129,2.992-2.607,6.169-5,9.095-7.672-.254.234-.508.465-.765.7,1.007-.879,2.152-1.668,3.07-2.636a4.02,4.02,0,0,0-.481-5.637,3.832,3.832,0,0,0-2.5-.924A4.322,4.322,0,0,0,96.3,81.983ZM76.5,98.918l-.62.566c.206-.19.412-.377.62-.566Zm6.352,4.945-.439.4.439-.4Z"/>
    <path class="a" d="M19.892,133.768a4.04,4.04,0,0,0,.477,5.64,16.655,16.655,0,0,0,2.41,1.481c.629.351,1.266.695,1.914,1,1.375.66,2.746,1.336,4.145,1.945,2.785,1.211,5.5,2.6,8.277,3.824,2.813,1.242,5.574,2.621,8.441,3.746,1.45.567,2.891,1.161,4.344,1.711,1.615.613,3.237,1.175,4.885,1.687,1.393.48,2.779,1,4.127,1.595,1.683.742,3.433,1.347,5.16,1.984,3.773,1.383,7.59,2.629,11.422,3.84,1.613.508,3.258.867,4.891,1.3,1.714.453,3.429.89,5.156,1.3,2,.469,4,.9,6.019,1.247,1.657.281,3.321.55,4.965.906,4.281.929,8.535,2.027,12.875,2.656,4.172.6,8.376,1.067,12.585,1.312l-.62-.035c3.9.243,7.8.559,11.711.524,3.32-.035,6.633-.149,9.953-.028,3.449.125,6.941.215,10.387.012,1.711-.1,3.422-.277,5.129-.429,1.886-.165,3.773-.344,5.652-.6,2.035-.273,4.063-.621,6.082-1,2.441-.461,4.883-.891,7.305-1.441,1.929-.442,3.851-.961,5.754-1.5a25.6,25.6,0,0,0,4.92-2.1c.651-.3,1.343-.508,2.017-.744q1.706-.6,3.41-1.188a4,4,0,0,0-2.675-7.539q-1.975.686-3.938,1.371c-.449.16-.91.3-1.348.493-.526.231-1.036.508-1.546.784a24.414,24.414,0,0,1-4.532,1.649c-1.876.485-3.733,1.015-5.626,1.425-3.245.665-6.52,1.26-9.8,1.727-3.57.508-7.187.809-10.785,1.071-1.722.125-3.441.121-5.168.129s-3.441-.008-5.156-.075c-3.344-.128-6.676-.074-10.02-.007-2.01.036-4.021-.018-6.028-.113-1.937-.125-3.871-.265-5.811-.372l1.035.059c-1.516-.09-3.012-.274-4.524-.426-1.7-.168-3.4-.309-5.089-.555-3.524-.519-6.993-1.179-10.458-2-1.574-.367-3.156-.695-4.734-1.039-1.691-.367-3.418-.6-5.125-.91-3.715-.66-7.379-1.6-11.027-2.57-1.344-.356-2.7-.653-4.035-1.059-1.133-.344-2.261-.7-3.388-1.065-3.053-1.031-6.108-2.077-9.112-3.243-1.555-.606-3.086-1.254-4.637-1.86s-3.152-1.1-4.743-1.607c-1.185-.422-2.363-.881-3.531-1.362-1.3-.539-2.636-1.015-3.941-1.562-2.672-1.121-5.273-2.41-7.937-3.559-2.61-1.125-5.126-2.457-7.735-3.586a66.851,66.851,0,0,1-6.779-3.35,4.116,4.116,0,0,0-2.564-.9,3.952,3.952,0,0,0-3.04,1.4Z"/>
    <path class="a" d="M259.923.007c-1.816.023-3.625.2-5.433.3-2.051.125-4.106.129-6.157.274-2.695.2-5.39.4-8.07.714-2.527.3-5.047.637-7.574.954-2.512.312-5.032.562-7.539.918-2.907.41-5.8,1.009-8.667,1.631-6.3,1.268-12.668,2.094-18.951,3.431l1.051-.223c-1.207.25-2.422.469-3.625.743-.4.091-.806.182-1.209.269-.115.019-.229.041-.345.066a3.86,3.86,0,0,0-.53.118c-.112.025-.225.05-.342.074-.593.125-1.183.269-1.777.406-2.1.485-4.207.942-6.3,1.469-2.028.512-4.05,1.054-6.089,1.508q-1.389.294-2.776.6c-1.665.343-3.328.694-4.99,1.041l.539-.11c-2.232.478-4.447,1.022-6.675,1.511q-2.094.423-4.185.869l1.047-.223c-.881.183-1.764.365-2.645.555-1.973.408-3.948.788-5.9,1.281-1.791.452-3.582.936-5.388,1.347-3.452.676-6.932,1.274-10.4,1.837-1.82.293-3.64.594-5.464.867s-3.622.672-5.438.977c-3.387.57-6.8,1.046-10.2,1.453-3.1.371-6.184.746-9.293,1-3.141.25-6.285.433-9.426.683-1.777.141-3.558.215-5.34.262-.976.024-1.949.035-2.925.082-1.106.047-2.211.164-3.321.188-1.922.039-3.843,0-5.765-.016-1.735-.016-3.473.086-5.2.156-3.817.156-7.633.242-11.442.465-1.946.115-3.865.222-5.809.154-2.839-.211-5.664-.575-8.476-.99-1.391-.2-2.766-.5-4.145-.754A36.877,36.877,0,0,1,40.832,25c-1.419-.477-2.827-.984-4.25-1.453-1.07-.341-2.145-.656-3.22-.985-2.487-.886-4.831-2.1-7.3-3.033A31.242,31.242,0,0,0,21.1,18.21c-.613-.121-1.227-.227-1.848-.3a11.966,11.966,0,0,0-3-.051c-2.265.332-4.722,1.578-5.586,3.84a7.209,7.209,0,0,0-.558,2.836,5.5,5.5,0,0,0,.578,2.211,18.56,18.56,0,0,0,2.031,3.7c.9,1.238,1.891,2.418,2.813,3.637a29.139,29.139,0,0,0,2.828,3.246c.976.961,2.019,1.859,3.008,2.8,2.16,2.067,4.418,4.028,6.515,6.157,1.094,1.109,2.184,2.211,3.36,3.234,1.07.934,2.179,1.82,3.265,2.734,1.125.942,2.235,1.907,3.387,2.813a46.164,46.164,0,0,0,3.9,2.645,36.078,36.078,0,0,1,3.862,2.949c1.317,1.175,2.625,2.332,4,3.437,1.2.961,2.508,1.789,3.782,2.645,1.469.983,2.968,1.91,4.464,2.85,3.955,2.5,8.18,4.554,12.187,6.976C72.267,78,74.4,79.472,76.634,80.8A28.731,28.731,0,0,0,80.271,82.5c1.078.449,2.148.933,3.23,1.371,2.34.949,4.586,2.039,7,2.805a15.367,15.367,0,0,0,4.133.769,17.8,17.8,0,0,0,3.938-.4,4.3,4.3,0,0,0,2.769-1.41,4,4,0,0,0-.48-5.637,3.83,3.83,0,0,0-2.867-.934,20.207,20.207,0,0,1-3.347.406,14.8,14.8,0,0,1-2.107-.489c-2.285-.808-4.5-1.841-6.718-2.811-1.282-.559-2.578-1.082-3.86-1.645a30.149,30.149,0,0,1-3.719-2.058C77,71.647,75.784,70.8,74.536,70c-1.453-.938-2.945-1.785-4.457-2.625-1.328-.739-2.644-1.5-3.972-2.239-1.425-.789-2.876-1.541-4.247-2.421-.85-.543-1.706-1.075-2.56-1.616a63.066,63.066,0,0,1-6.728-4.943c-1.153-1.008-2.235-2.082-3.446-3.02-1.252-.974-2.6-1.82-3.934-2.67a32.478,32.478,0,0,1-2.71-1.97c-1-.821-1.985-1.653-2.973-2.485-1.894-1.589-3.816-3.128-5.551-4.9-1.8-1.832-3.675-3.555-5.546-5.309q-1.383-1.3-2.754-2.609c-.709-.676-1.466-1.3-2.158-2-.4-.457-.8-.915-1.171-1.387-.562-.707-1.082-1.449-1.648-2.156-.432-.537-.866-1.073-1.275-1.627.239.047.476.1.713.15.847.19,1.691.355,2.527.587q.959.349,1.891.769c.863.387,1.71.824,2.593,1.16,1.008.383,2,.828,3.024,1.176,1.276.434,2.572.782,3.857,1.186l.373.122c1.962.674,3.909,1.434,5.914,1.961,1.871.489,3.809.774,5.707,1.133,2.051.391,4.137.66,6.211.867,2.281.227,4.551.461,6.848.52,2.047.055,4.109-.16,6.152-.281,1.914-.114,3.828-.153,5.742-.207,3.672-.106,7.328-.356,11-.3,1.895.027,3.813.054,5.7-.082,2.016-.149,4.032-.168,6.047-.231,3.289-.109,6.563-.472,9.844-.672q4.705-.286,9.395-.793c3.23-.343,6.441-.847,9.66-1.273,2.8-.367,5.554-.937,8.336-1.406,2.961-.5,5.937-.9,8.89-1.442,2.856-.523,5.719-.98,8.567-1.543,1.8-.355,3.562-.839,5.34-1.273,1.451-.355,2.9-.705,4.354-1.037,1.119-.229,2.239-.453,3.356-.694q1.044-.216,2.085-.437c2.867-.589,5.708-1.27,8.564-1.893q1.466-.306,2.929-.629,1.986-.414,3.973-.834l.21-.044.466-.1-.2.043c1.908-.415,3.792-.892,5.694-1.352,1.992-.48,3.992-.937,5.985-1.433.914-.227,1.836-.418,2.753-.629l.8-.184a3.878,3.878,0,0,0,.983-.211l.018-.006.626-.134c.406-.084.81-.176,1.212-.269.767-.156,1.533-.309,2.3-.466l-.093.02c6.266-1.229,12.6-2.087,18.851-3.406,3.328-.682,6.646-1.272,10.02-1.668,3.235-.379,6.465-.789,9.7-1.207,3.343-.43,6.7-.746,10.066-.985,2.055-.144,4.106-.191,6.164-.281,1.836-.078,3.668-.25,5.508-.32.91-.035,1.824-.012,2.742.008.692.015,1.383.035,2.074.023,1.454-.017,2.9-.01,4.347.053,1.514.121,3.026.3,4.532.478,1.668.2,3.313.559,4.965.84,1.469.246,2.926.5,4.375.863s2.934.6,4.369,1.016c.891.312,1.769.656,2.67.941,1.012.325,2.024.637,3.051.922,1.851.516,3.722.948,5.561,1.5a23.467,23.467,0,0,1,3.885,1.906c1.154.81,2.224,1.722,3.335,2.588a35.214,35.214,0,0,0,3.591,2.361c.127.1.25.2.371.3.56.739,1.027,1.553,1.562,2.311.633.894,1.272,1.745,1.816,2.691.787,1.662,1.433,3.382,2.066,5.106.569,1.541,1.18,3.083,1.615,4.669.095.614.157,1.229.21,1.85a22.555,22.555,0,0,0,.466,2.786c.358,1.88.625,3.769,1.026,5.644q-.111-.522-.223-1.051a32.728,32.728,0,0,1,.535,3.8,26.313,26.313,0,0,1,.023,2.973c-.142,1.38-.362,2.752-.558,4.121a31.042,31.042,0,0,0-.172,4.344c-.008,1.1.059,2.2.067,3.3.007.839-.024,1.686-.063,2.525,0,.073-.009.146-.014.218l-.013.027a3.877,3.877,0,0,0-.156,3.059,4.242,4.242,0,0,0,.605,1.14c.234.258.465.512.7.766a4.114,4.114,0,0,0,3.985.726,4.235,4.235,0,0,0,1.773-1.246c1.043-1.038.965-2.531,1.025-3.877.088-1.493.145-2.992.135-4.49-.007-1.539-.1-3.078-.065-4.618.244-2.245.686-4.444.733-6.718a30.246,30.246,0,0,0-.078-3.523,32.939,32.939,0,0,0-.585-3.6l.007.032c-.369-1.818-.611-3.654-.987-5.472l.132.621a32.737,32.737,0,0,1-.426-3.281,18.5,18.5,0,0,0-1.039-4.317c-.782-2.176-1.551-4.355-2.43-6.5a29.68,29.68,0,0,0-2.063-4.187c-.625-1.04-1.406-1.977-2.093-2.973-.3-.434-.559-.887-.856-1.32a9.442,9.442,0,0,0-1.676-1.817,18.28,18.28,0,0,0-2.805-1.783c-1.4-1-2.675-2.161-4.081-3.147a27.282,27.282,0,0,0-5.559-3.066,49.023,49.023,0,0,0-5.7-1.687c-1.572-.409-3.131-.848-4.68-1.333a47.128,47.128,0,0,0-4.617-1.476c-.824-.195-1.656-.348-2.484-.535s-1.664-.41-2.508-.571c-1.649-.3-3.305-.566-4.957-.871C275.755.729,273.978.581,272.2.362a53.671,53.671,0,0,0-6.586-.328c-.8,0-1.6-.008-2.4-.016C262.449.01,261.68,0,260.913,0q-.5,0-.99.007ZM325.23,66.7l0,0,.016.031-.021-.035ZM37.154,23.733l-.4-.13.4.13Zm-.572-.185.173.055-.574-.186.4.131Z"/>
    <path class="a" d="M310.539,22.208a4.314,4.314,0,0,0-2.274,2.051q-.181.291-.365.582a13.907,13.907,0,0,1-1.4,1.752,36.666,36.666,0,0,1-3.451,2.471c-1.731,1.113-3.5,2.18-5.321,3.133.317-.164.637-.328.953-.489-2.539,1.289-5.035,2.661-7.507,4.071-2.371,1.355-4.805,2.6-7.168,3.976-2.285,1.328-4.539,2.707-6.789,4.094-2.307,1.427-4.723,2.666-7.126,3.925-3.305,1.669-6.659,3.187-10.109,4.536-3.539,1.383-6.945,3.09-10.465,4.531-3.6,1.473-7.273,2.781-10.941,4.094s-7.348,2.617-11.023,3.922q-5.175,1.833-10.344,3.672c-1.656.586-3.305,1.2-4.977,1.738-1.89.609-3.812,1.117-5.7,1.719-3.461,1.1-6.879,2.316-10.3,3.523-.836.3-1.668.6-2.515.863-.973.3-1.973.524-2.95.805a47.42,47.42,0,0,0-5.64,1.887,20.024,20.024,0,0,0-4.344,2.469,14.568,14.568,0,0,0-1.762,1.617,11.41,11.41,0,0,0-.765.906,11.155,11.155,0,0,0-1.114,1.793c-.152.309-.277.625-.429.93a5.372,5.372,0,0,0-.551,3.164,14.028,14.028,0,0,0,.453,1.945,3.994,3.994,0,0,0,7.62-2.381c.053-.11.107-.219.163-.326a11.433,11.433,0,0,1,.992-1.1,13.379,13.379,0,0,1,1.645-1.124A43.294,43.294,0,0,1,192.16,85.1c1.894-.582,3.828-1.02,5.695-1.68,3.348-1.183,6.7-2.375,10.067-3.484,1.828-.6,3.675-1.149,5.523-1.691,1.777-.52,3.512-1.141,5.254-1.758q5.179-1.841,10.363-3.676c7.246-2.57,14.528-5.059,21.7-7.852,1.812-.711,3.593-1.492,5.363-2.3,1.742-.8,3.519-1.528,5.277-2.289,1.856-.809,3.77-1.485,5.625-2.3,1.668-.735,3.3-1.555,4.938-2.356,1.511-.738,2.98-1.551,4.472-2.32,1.375-.711,2.75-1.434,4.09-2.207,2.352-1.352,4.606-2.867,6.953-4.223,2.422-1.4,4.887-2.711,7.325-4.082,2.332-1.308,4.648-2.64,7.019-3.879l-.6.3a75.819,75.819,0,0,0,7.98-4.734,26.027,26.027,0,0,0,3.3-2.7,20.5,20.5,0,0,0,2.984-4.175,3.83,3.83,0,0,0,.156-3.055,4,4,0,0,0-5.105-2.434Z"/>
    <path class="a" d="M180.55,81.405a11.557,11.557,0,0,0-1.121.395,8.711,8.711,0,0,0-2.14,1.035,10.862,10.862,0,0,0-1.247,1.023,13.883,13.883,0,0,0-1.058,1.324,10.978,10.978,0,0,0-1.266,2.551,13.274,13.274,0,0,0-.836,4.59c-.011.484.043.973.039,1.461-.007.559-.054,1.117-.086,1.676-.074,1.328-.058,2.664-.062,3.992a64.129,64.129,0,0,0,.692,8.314c.11.988.21,1.981.386,2.959.183,1.025.362,2.053.5,3.085.013.14.029.28.048.424.007.06.015.119.025.179.015.115.032.232.047.352.2,1.667.417,3.348.719,5,.269,1.46.652,2.906.93,4.367.273,1.437.425,2.886.656,4.328.231,1.423.522,2.827.71,4.257.148,1.191.312,2.378.468,3.567.192,1.676.344,3.354.63,5.016.29,1.7.668,3.359,1.082,5.035a92.8,92.8,0,0,1,1.988,9.955q.228,1.976.493,3.947l-.129-1.066c.232,1.917.488,3.832.727,5.749.035.3.069.608.1.911.024.215.043.429.065.642a3.746,3.746,0,0,0,.044.4c.019.159.043.317.072.473.026.207.052.413.081.618.051.358.1.717.15,1.073.2,1.673.373,3.347.587,5.021.189,1.666.359,3.33.407,5.011.055,1.989.2,3.961.383,5.942.356,3.957.492,7.926.781,11.883.286,3.871.262,7.757.4,11.632.133,3.774.355,7.539.5,11.313.136,3.531.078,7.074,0,10.609-.075,3.379-.457,6.75-.832,10.106-.192,1.718-.3,3.445-.477,5.164s-.414,3.426-.637,5.14c-.187,1.465-.242,2.946-.429,4.411s-.338,2.96-.51,4.439a3.908,3.908,0,0,0-.086.675,23.08,23.08,0,0,0-.373,4.839c.047.808-.039,1.613.012,2.422a13.919,13.919,0,0,0,.535,3.058c.433,1.52.988,3.313,2.261,4.352a7.276,7.276,0,0,0,2.446,1.355,6.925,6.925,0,0,0,.816.195c.779.16,1.567.269,2.355.375.927.152,1.853.3,2.781.438l.134.019-.061-.009.316.047c.21.031.42.062.631.091.34.051.684.1,1.024.149a4,4,0,0,0,3.519-6,3.82,3.82,0,0,0-2.382-1.852q-1.059-.156-2.119-.308c-1.158-.186-2.311-.382-3.47-.536-.154-.028-.308-.056-.461-.087-.124-.391-.232-.788-.316-1.184-.021-.439-.019-.877,0-1.322.019-.824-.063-1.645-.047-2.469a19.033,19.033,0,0,1,.238-2.168c.021-.156.041-.312.061-.468.055-.3.088-.605.13-.958.063-.527.11-1.058.157-1.59.168-1.738.433-3.472.6-5.21.36-3.676.86-7.329,1.176-11.008.168-1.9.43-3.785.6-5.684.171-1.918.324-3.851.394-5.777.289-7.614-.183-15.207-.5-22.813-.168-3.945-.141-7.894-.43-11.832-.289-3.961-.433-7.926-.793-11.883-.191-2.132-.269-4.261-.363-6.4-.1-2.281-.419-4.572-.733-6.838-.181-1.59-.345-3.183-.556-4.772a3.872,3.872,0,0,0-.087-.778c-.01-.227-.03-.455-.055-.683a3.727,3.727,0,0,0,.876-2.441c-.167-2.2-.339-4.406-.445-6.609a47.913,47.913,0,0,1,.117-5.895c.145-1.929.364-3.855.4-5.789.035-2.058-.008-4.117-.082-6.171-.035-1-.168-2.008-.274-3-.1-1.028-.183-2.063-.281-3.09-.188-1.961-.34-3.922-.535-5.879-.219-2.207-.488-4.43-.926-6.606-.394-1.937-.859-3.855-1.2-5.8-.2-1.158-.382-2.312-.547-3.472-.2-1.831-.345-3.669-.527-5.5-.188-1.934-.4-3.867-.532-5.8-.136-1.965-.222-3.937-.195-5.91.027-1.84.266-3.668.145-5.512a19.81,19.81,0,0,0-.262-2.093,7.987,7.987,0,0,0-.656-1.946,4.492,4.492,0,0,0-2.629-2.113,3.746,3.746,0,0,0-1.333-.221,5.371,5.371,0,0,0-1.359.178Zm2.981,177.816c-.014.1-.029.194-.043.291v0c.015-.1.029-.2.044-.294Zm10.732,18.2-.073-.01-.214-.031.287.041Z"/>
    <path class="a" d="M589.279,196.106c-1.354.056-2.71.065-4.064.053q-6.587-.13-13.167.018c-4.5.1-9,.328-13.5.5-2.348.089-4.687.183-7.035.308-2.106.117-4.215.379-6.3.676-2.277.328-4.562.566-6.836.906-2.363.352-4.7.821-7.035,1.321-2.191.472-4.371,1-6.578,1.386s-4.426.711-6.637,1.051c-2.316.359-4.629.7-6.93,1.141-2.265.425-4.507,1-6.757,1.5-8.723,1.937-17.684,3.25-26.047,6.5-2.028.789-4.012,1.7-6.016,2.546-2.058.868-4.125,1.7-6.187,2.551-3.766,1.559-7.6,2.942-11.278,4.7-1.777.848-3.613,1.637-5.468,2.309-.872.316-1.762.57-2.637.887-.918.332-1.836.668-2.758.992-3.879,1.371-7.687,2.867-11.441,4.547-1.918.859-3.84,1.664-5.793,2.429-1.832.715-3.676,1.387-5.469,2.2-4.094,1.843-8.332,3.277-12.527,4.855-2.149.809-4.329,1.547-6.473,2.367-2.3.871-4.6,1.719-6.922,2.5-2.16.727-4.3,1.5-6.441,2.266-1.989.715-3.981,1.4-5.969,2.117-4.047,1.461-7.977,3.25-12.016,4.734-2.011.739-3.992,1.567-6,2.333-2.113.808-4.355,1.261-6.535,1.859-3.688,1-7.309,2.242-10.992,3.258-3.786,1.043-7.561,2.124-11.357,3.139-1.645.383-3.3.724-4.94,1.134-1.566.391-3.106.86-4.641,1.356s-3.07,1.043-4.609,1.546c-1.5.492-3.009.918-4.53,1.323-2.5.582-5,1.12-7.509,1.662-2.82.609-5.652,1.172-8.516,1.57-2.722.379-5.433.867-8.164,1.195a39.39,39.39,0,0,1-4.133.208c-1.672.023-3.34.061-5.012.081-1.143-.021-2.286-.038-3.429.008-1.3.051-2.609.2-3.91.332-2.516.258-5.043.086-7.563.293-2.715.223-5.422.5-8.136.715-2.739.216-5.489.3-8.235.278-1.265-.026-2.529-.049-3.8-.024-1.244.022-2.489.05-3.734.06-.8-.027-1.6-.076-2.4-.173-1.129-.133-2.254-.3-3.387-.422-2.391-.262-4.778-.457-7.149-.891-3.839-.707-7.742-.707-11.613-1.164-1.016-.121-2.019-.285-3.039-.355-1.094-.074-2.195-.086-3.289-.113a33.028,33.028,0,0,1-6-.8c-1.094-.231-2.184-.453-3.285-.618-1.043-.152-2.094-.257-3.133-.429-1.078-.18-2.133-.446-3.211-.6-1.25-.183-2.508-.3-3.762-.41a4.142,4.142,0,0,0-2.968.75,4,4,0,0,0,1.812,7.168c1.191.1,2.375.234,3.563.379,1.152.137,2.269.441,3.41.629,1.039.176,2.09.277,3.133.433,1.195.172,2.375.422,3.554.672a32.6,32.6,0,0,0,6.035.746c1.082.028,2.172.051,3.25.125,1.11.079,2.211.27,3.317.4,2,.238,4.012.336,6.027.445a48.823,48.823,0,0,1,5.719.773c2.426.43,4.887.567,7.328.872,1.129.14,2.258.312,3.391.418a39.85,39.85,0,0,0,3.984.109c1.57-.008,3.137-.063,4.707-.078h-.015c1.289.025,2.578.047,3.867.059,1.457.016,2.918-.086,4.375-.152,2.773-.129,5.55-.355,8.308-.648,2.578-.278,5.145-.293,7.731-.344,1.332-.024,2.652-.231,3.98-.344,1.289-.111,2.575-.173,3.873-.179a77.975,77.975,0,0,0,13.08-.587c4.25-.625,8.524-1.179,12.727-2.082,2.125-.46,4.246-.933,6.371-1.4,2.23-.5,4.469-.98,6.656-1.633,3.855-1.152,7.617-2.609,11.512-3.612,2.214-.527,4.437-1.009,6.644-1.575,2.055-.524,4.086-1.129,6.129-1.688,4.11-1.121,8.184-2.351,12.254-3.6,2.258-.692,4.555-1.246,6.832-1.875a69.526,69.526,0,0,0,6.985-2.567c2.14-.847,4.3-1.652,6.429-2.515,2.18-.875,4.356-1.8,6.563-2.6,2.051-.738,4.109-1.441,6.156-2.184,2.125-.769,4.242-1.558,6.395-2.253,2.277-.739,4.523-1.582,6.761-2.438,2.207-.84,4.442-1.605,6.653-2.434,4.156-1.55,8.367-2.964,12.414-4.789,3.75-1.687,7.683-2.918,11.4-4.683,1.848-.879,3.75-1.692,5.66-2.418,1.926-.727,3.84-1.492,5.793-2.156,1.805-.61,3.59-1.27,5.395-1.872.887-.3,1.738-.687,2.6-1.042.918-.383,1.836-.758,2.735-1.188,1.719-.82,3.48-1.566,5.226-2.324,2.032-.879,4.133-1.571,6.164-2.442,2-.855,4.024-1.64,6.024-2.484,2.062-.867,4.105-1.781,6.18-2.617a69.464,69.464,0,0,1,8.751-2.781c4.272-1.027,8.6-1.816,12.893-2.735,4.473-.957,8.9-2.07,13.422-2.769,4.484-.7,8.984-1.289,13.41-2.3a132.573,132.573,0,0,1,13.762-2.446c3.219-.378,6.414-.89,9.656-1.066,1.664-.094,3.324-.191,4.992-.23s3.356-.094,5.028-.188c3.429-.191,6.863-.3,10.3-.371,3.047-.068,6.106-.114,9.153-.092,2.149.051,4.3.1,6.449.072,1.664-.024,3.325-.17,4.991-.19,1.633.075,3.256.263,4.884.421a57.371,57.371,0,0,0,5.791.177c4.227.12,8.454.4,12.674.659,4.3.262,8.558.894,12.824,1.519,2.055.305,4.117.477,6.164.868,2.191.414,4.371.906,6.555,1.347,1.832.367,3.66.727,5.484,1.11,2.012.425,4.024.863,6.024,1.336a43.531,43.531,0,0,0,5.117.9,16.671,16.671,0,0,1,1.871.262q.768.177,1.535.367a24.771,24.771,0,0,1,3.879,1.68,3.877,3.877,0,0,0,3.012.043,4,4,0,0,0,2.277-5.18,4.239,4.239,0,0,0-2.164-2.231c-.52-.269-1.051-.515-1.563-.8a22.553,22.553,0,0,0-4.468-1.473c-.852-.184-1.672-.422-2.539-.524a125.443,125.443,0,0,1-12.516-2.449c-1.828-.4-3.664-.73-5.5-1.1-2.219-.45-4.43-.938-6.652-1.36-2-.379-4.043-.535-6.059-.812-2.176-.3-4.344-.641-6.52-.91-3.722-.453-7.468-.618-11.211-.832-1.925-.11-3.847-.215-5.777-.305-1.662-.076-3.33-.06-5-.07-2.879-.151-5.729-.567-8.616-.6h-.21c-1.319,0-2.629.1-3.946.149ZM253.453,275.781l.259,0-.259,0Zm-3.217,7.872.463.009-.463-.009Z"/>
    <path class="a" d="M533.015,13.634c-2.367.035-4.726.215-7.086.367-2.254.149-4.492.36-6.734.653-2.449.32-4.887.718-7.344.965-4.945.5-9.84,1.246-14.73,2.125-1.765.317-3.506.682-5.249,1.1l.253-.061-.428.1-.014,0c-2.182.527-4.371,1-6.57,1.463-2.508.527-5.008,1.1-7.52,1.617s-5.047.828-7.566,1.246c-2.4.4-4.75,1.039-7.121,1.578-2.727.621-5.453,1.25-8.129,2.051-2.383.711-4.762,1.422-7.164,2.067s-4.793,1.32-7.156,2.074c-1.118.359-2.215.773-3.321,1.164-1.136.4-2.277.762-3.422,1.137-2.386.777-4.781,1.515-7.125,2.41-2.117.8-4.25,1.543-6.379,2.3-2.164.774-4.339,1.5-6.488,2.321-2.238.855-4.445,1.8-6.711,2.574-4.89,1.672-9.679,3.629-14.59,5.238a69.251,69.251,0,0,0-6.82,2.781c-1.082.489-2.184.926-3.266,1.411s-2.187,1.007-3.293,1.488c-1.039.449-2.062.933-3.113,1.351-1.281.508-2.586.938-3.89,1.387-2.356.809-4.641,1.828-6.93,2.8-1.063.453-2.168.809-3.258,1.191-1.2.418-2.391.856-3.59,1.274-2.422.844-4.769,1.777-7.1,2.84-2.184.992-4.344,2.062-6.582,2.918-2.215.847-4.446,1.617-6.68,2.406-1.148.4-2.285.828-3.414,1.289-1.145.461-2.254,1-3.395,1.461-2.23.906-4.48,1.769-6.707,2.691-4.9,2.039-9.808,4.11-14.832,5.832-2.851.981-5.75,1.793-8.6,2.77s-5.715,1.928-8.634,2.7c-2.613.625-5.233,1.206-7.847,1.824-3.207.758-6.376,1.668-9.569,2.479-3.029.7-6.116,1.221-9.181,1.76-3.047.539-6.074,1.207-9.137,1.625s-6.085.882-9.164,1.109c-2.771.2-5.553.2-8.329.2-1.424-.033-2.846-.073-4.273-.1-3.27-.086-6.533-.257-9.8-.4-3.156-.137-6.285-.566-9.433-.777-1.551-.106-3.11-.215-4.645-.469-1.512-.246-2.992-.644-4.484-1-2.79-.659-5.673-.742-8.463-1.409-1.517-.472-3.011-1.021-4.533-1.478-1.3-.386-2.61-.758-3.934-1.051-1.074-.237-2.163-.406-3.234-.666-1.792-.52-3.571-1.073-5.364-1.587-.328-.094-.656-.184-.984-.278a4,4,0,0,0-4.305,5.41A3.831,3.831,0,0,0,177.8,94.15c1.914.555,3.817,1.156,5.739,1.7,2.158.61,4.365.982,6.538,1.536,1.586.483,3.138,1.064,4.727,1.538a34.011,34.011,0,0,0,3.516.891c.941.172,1.887.305,2.836.426a44.33,44.33,0,0,1,5.027.867,39.181,39.181,0,0,0,5.606,1.043c1.683.164,3.375.254,5.062.4,1.977.172,3.945.414,5.93.528,4.122.236,8.248.427,12.374.486,2.032.044,4.062.111,6.095.115,1.914,0,3.855.008,5.765-.121,4.106-.277,8.164-.812,12.227-1.453,2.043-.324,4.066-.781,6.1-1.145,2.2-.39,4.391-.8,6.59-1.2,4.668-.831,9.229-2.16,13.816-3.349,4.633-1.083,9.292-2.065,13.829-3.5,2.445-.774,4.855-1.657,7.308-2.4,2.477-.754,4.93-1.562,7.364-2.445,4.07-1.473,8.07-3.125,12.066-4.781q3.212-1.331,6.449-2.6c2.332-.918,4.594-2.008,6.949-2.859,2.282-.825,4.571-1.6,6.84-2.45,2.141-.8,4.207-1.746,6.281-2.7,2.313-1.058,4.618-2.121,7.024-2.945q3.58-1.224,7.141-2.52c2.308-.839,4.531-1.914,6.828-2.8,1.168-.446,2.359-.825,3.543-1.235s2.312-.93,3.457-1.422c2.222-.961,4.41-2,6.64-2.937,2.254-.953,4.446-2,6.746-2.844,2.375-.867,4.786-1.641,7.157-2.519,2.4-.891,4.8-1.8,7.211-2.645,2.386-.832,4.746-1.727,7.1-2.656,2.106-.836,4.242-1.571,6.379-2.321,4.453-1.562,8.852-3.273,13.348-4.7,2.308-.73,4.59-1.523,6.875-2.316,2.355-.82,4.761-1.484,7.16-2.16,1.953-.547,3.914-1.067,5.859-1.637,1.928-.563,3.845-1.14,5.787-1.647,2.476-.6,4.953-1.213,7.444-1.744,2.9-.621,5.851-.957,8.769-1.468s5.805-1.246,8.7-1.856q4.017-.839,8-1.81c1.77-.4,3.559-.717,5.351-1.03,1.9-.332,3.793-.679,5.7-.957q2.806-.4,5.621-.73c1.868-.219,3.746-.356,5.61-.625,3.508-.508,7-.961,10.539-1.2,1.793-.118,3.586-.243,5.383-.329,1.723-.081,3.452-.053,5.176-.032,2.99.09,5.962.376,8.945.532q4.962.264,9.918.332c3.086.036,6.172-.125,9.25-.312,2.993-.179,5.983-.417,8.984-.425a68.008,68.008,0,0,1,6.84.925c2.3.383,4.613.656,6.918.957,4.738.613,9.469,1.289,14.211,1.871,2.4.3,4.793.637,7.211.824,2.2.172,4.394.344,6.586.563a116.409,116.409,0,0,1,14.363,2.25c.926.211,1.84.484,2.758.738-.328-.09-.656-.184-.985-.273.9.25,1.793.5,2.691.747,2.682.794,5.364,1.584,8.083,2.229,2.41.57,4.84,1.043,7.265,1.539,2.625.543,5.25,1.086,7.887,1.578,2.1.389,4.2.767,6.277,1.274.069.023.138.047.206.072l.025.025a3.815,3.815,0,0,0,2.9.817,3.993,3.993,0,0,0,3.528-4.418L671,32.431a4.048,4.048,0,0,0-1.27-1.707,5.8,5.8,0,0,0-2.531-1.3c-.887-.261-1.778-.476-2.676-.683-.957-.223-1.922-.41-2.887-.59-2.461-.449-4.91-.934-7.363-1.422-2.359-.473-4.723-.945-7.082-1.441s-4.685-1.1-7.007-1.734c-1.346-.4-2.694-.793-4.049-1.164-2.285-.639-4.564-1.262-6.889-1.743-2.41-.5-4.856-.8-7.285-1.164-4.637-.7-9.329-.84-13.985-1.356-4.609-.511-9.2-1.218-13.808-1.8-4.832-.61-9.664-1.254-14.473-2.047a37.844,37.844,0,0,0-6.906-.5c-1.965.043-3.922.148-5.887.277-4.187.27-8.363.471-12.559.439-2.1-.06-4.2-.117-6.289-.251-1.05-.067-2.1-.106-3.152-.188-1.258-.1-2.516-.222-3.777-.277-2.138-.093-4.281-.154-6.421-.154q-.843,0-1.685.013Z"/>
    <path class="a" d="M535.691,4.673c-1.859.058-3.714.062-5.57.2-1.965.145-3.93.3-5.887.52-1.812.207-3.625.371-5.441.508-1.711.128-3.4.371-5.1.613-3.648.519-7.3,1.082-10.914,1.789-2.039.4-4.1.7-6.136,1.1-2.118.417-4.231.847-6.364,1.2-2.218.363-4.418.754-6.609,1.258-2.266.525-4.515,1.118-6.772,1.688-3.645.843-7.346,1.391-11,2.2-4.128.922-8.214,1.961-12.238,3.27-3.746,1.218-7.5,2.425-11.305,3.468-3.843,1.055-7.64,2.176-11.378,3.575-3.872,1.449-7.739,2.89-11.633,4.277-3.633,1.3-7.254,2.633-10.813,4.125-3.519,1.477-7.054,2.883-10.613,4.254-3.711,1.43-7.457,2.762-11.156,4.226-1.739.692-3.516,1.293-5.246,2-1.918.781-3.809,1.582-5.672,2.476-3.719,1.785-7.395,3.649-11.184,5.285-3.4,1.469-6.9,2.707-10.281,4.242-3.649,1.657-7.223,3.454-10.789,5.282-2.906,1.484-5.875,2.832-8.735,4.414l-.937.519a3.988,3.988,0,0,0-1.293,1.645,4,4,0,0,0,2.121,5.246,3.8,3.8,0,0,0,3.016.043c3.672-2.027,7.5-3.77,11.23-5.688,3.586-1.847,7.215-3.617,10.946-5.152,3.453-1.422,6.945-2.742,10.339-4.3q2.742-1.258,5.446-2.6c1.832-.91,3.672-1.848,5.554-2.649,3.618-1.539,7.313-2.89,10.977-4.308,3.805-1.469,7.648-2.832,11.445-4.309,3.465-1.351,6.867-2.847,10.324-4.215,3.622-1.429,7.3-2.73,10.961-4.05,3.348-1.211,6.672-2.485,10.016-3.7,3.223-1.176,6.5-2.145,9.805-3.043s6.554-1.918,9.8-2.954c1.621-.515,3.231-1.054,4.856-1.546,1.587-.483,3.2-.9,4.805-1.3,2.75-.646,5.52-1.232,8.3-1.715,3.45-.594,6.832-1.434,10.219-2.316l-1.008.246c1.887-.461,3.774-.93,5.676-1.293,1.984-.379,3.984-.656,5.973-1.016,1.933-.348,3.851-.773,5.777-1.14,1.766-.336,3.547-.59,5.309-.938,3.6-.715,7.265-1.234,10.9-1.738,1.7-.239,3.395-.43,5.105-.559,1.848-.14,3.68-.363,5.52-.551,3.211-.324,6.418-.547,9.645-.589,3.278-.045,6.546-.2,9.823-.174q1.774.041,3.549.07,3.135.063,6.268.119c-.34,0-.683-.012-1.023-.015,4.027.117,8.035.429,12.054.687,1.907.121,3.809.2,5.707.387,1.946.195,3.887.449,5.829.676,2.027.234,4.062.417,6.089.664,1.825.222,3.645.507,5.457.785,3.856.582,7.68,1.265,11.5,2.008,2.344.457,4.688.859,7.016,1.39,2.133.488,4.285.926,6.426,1.379,2.023.426,4.078.727,6.109,1.121,2.285.44,4.543.959,6.79,1.558,1.718.5,3.445,1,5.187,1.415,1.466.351,2.946.653,4.409,1.029q3.719,1.135,7.448,2.228a3.911,3.911,0,0,0,.018.649,4.044,4.044,0,0,0,1.519,2.711,4.28,4.28,0,0,0,2.9.816c.851-.009,1.7-.016,2.55-.012a32.72,32.72,0,0,1,3.4.235c1.34.172,2.664.594,3.988.863,1.289.258,2.594.426,3.875.723,1.04.237,2.071.489,3.1.763,1.162.349,2.331.689,3.469,1.108.52.192,1.024.418,1.524.652a5.182,5.182,0,0,0,1.539.528,4.243,4.243,0,0,0,3.109-.766,4.138,4.138,0,0,0,.664-5.914,8.426,8.426,0,0,0-3.648-2.394c-1.367-.52-2.805-.895-4.211-1.3-2.5-.719-4.949-1.586-7.426-2.391-3.144-1.022-6.38-1.741-9.58-2.576-3.079-.868-6.163-1.726-9.209-2.7-3.795-1.209-7.692-2-11.531-3.041a115.755,115.755,0,0,0-12.207-2.737c-3.684-.644-7.305-1.562-10.965-2.3-2.019-.407-4.051-.766-6.074-1.133-1.828-.332-3.641-.738-5.469-1.031-3.824-.618-7.656-1.29-11.508-1.7-5.179-.554-10.351-1.3-15.558-1.543-2.571-.121-5.133-.355-7.7-.523-2.727-.18-5.457-.243-8.191-.276-1.584-.03-3.165-.069-4.749-.1l.119,0-.435-.008-.247,0,.136,0q-1.944-.033-3.884-.033-3.978,0-7.956.128Zm12.7,7.855.289.006c-.1,0-.193,0-.289-.006Zm.023-7.933-.341-.007.341.007Z"/>
    <path class="a" d="M503.09,11.858a65.625,65.625,0,0,0-7.75,2.148,67.993,67.993,0,0,0-6.829,3.219,4.251,4.251,0,0,0-2.23,2.164,4,4,0,0,0,2.117,5.246,3.852,3.852,0,0,0,3.016.043c1.785-.91,3.57-1.84,5.41-2.641a39.234,39.234,0,0,1,5.36-1.8c1.981-.481,3.963-1,5.968-1.352,2.524-.449,5.047-.84,7.59-1.156a104.241,104.241,0,0,1,13.313-.663c3.932.188,7.856.464,11.785.729,3.9.266,7.816.4,11.7.852a4,4,0,0,0,1.156-7.914c-4.223-.492-8.492-.637-12.73-.922-4.457-.3-8.918-.66-13.387-.7-.343,0-.686-.005-1.029-.005a100.165,100.165,0,0,0-23.459,2.755Z"/>
    <path class="a" d="M269.446,123.364a12.707,12.707,0,0,0-4.9,1.719,9.537,9.537,0,0,0-1.816,1.375,16.128,16.128,0,0,0-2.5,2.863,15.944,15.944,0,0,0-2.7,6.551,35.693,35.693,0,0,0-.234,5.559,24.241,24.241,0,0,0,1.031,6.847,32.387,32.387,0,0,0,3.02,6.789,24.829,24.829,0,0,0,4.988,5.93,32.1,32.1,0,0,0,5.281,3.657c1.037.67,2.083,1.329,3.145,1.968.914.551,1.859,1.047,2.766,1.61.957.6,1.925,1.179,2.91,1.726.81.453,1.635.869,2.44,1.323a27.417,27.417,0,0,1,3.021,2.529c.98.92,1.948,1.849,2.879,2.817a47.436,47.436,0,0,1,5.558,7.681,30.393,30.393,0,0,1,1.753,5.229,33.518,33.518,0,0,1,.606,6.694,16.618,16.618,0,0,1-.552,3.217,34.832,34.832,0,0,1-2.6,6.293,18.135,18.135,0,0,1-1.8,2.23,26.115,26.115,0,0,1-3.528,2.6,16.544,16.544,0,0,1-2.634.9,35.576,35.576,0,0,1-6.506.893,11.9,11.9,0,0,1-1.877-.328,29.121,29.121,0,0,1-3.293-1.291c-.966-.457-1.917-1-2.842-1.55a13.975,13.975,0,0,1-1.626-1.3,22.378,22.378,0,0,1-2.3-3.342,49.281,49.281,0,0,1-1.954-5.617,3.8,3.8,0,0,0-.667-1.689,4,4,0,0,0-7.215,1.7,5.9,5.9,0,0,0,.355,2.688q.165.452.3.914c.277.922.535,1.848.84,2.762a22.068,22.068,0,0,0,2.723,5.32,18.421,18.421,0,0,0,3.816,4.293,33.144,33.144,0,0,0,4.769,2.852,26.436,26.436,0,0,0,5.411,2.046,17.1,17.1,0,0,0,6.742.317,44.057,44.057,0,0,0,6.785-1.348,16.259,16.259,0,0,0,5.3-2.691,25.526,25.526,0,0,0,4.5-4.078,21.166,21.166,0,0,0,3.129-5.383,59.518,59.518,0,0,0,2.113-6.07,18.637,18.637,0,0,0,.547-6.164,41.079,41.079,0,0,0-.52-5.356,37.381,37.381,0,0,0-1.894-6.609,30.128,30.128,0,0,0-3.2-5.629,48.312,48.312,0,0,0-3.571-4.641,58.278,58.278,0,0,0-4.242-4.324c-.64-.6-1.273-1.2-1.949-1.762a22.409,22.409,0,0,0-2.969-2.027c-1.539-.918-3.16-1.684-4.687-2.625-1.405-.862-2.84-1.664-4.245-2.518-.987-.617-1.977-1.227-2.968-1.839a22.005,22.005,0,0,1-2.5-1.835c-.734-.645-1.427-1.326-2.108-2.024A20.408,20.408,0,0,1,267.631,150a30.365,30.365,0,0,1-1.987-5.154,25.653,25.653,0,0,1-.383-5.356,18.128,18.128,0,0,1,.377-3.339,15.772,15.772,0,0,1,.961-2.026,17.272,17.272,0,0,1,1.27-1.582,11.945,11.945,0,0,1,1.187-.852c.264-.108.528-.206.8-.295a14.033,14.033,0,0,1,2.027-.17,18.781,18.781,0,0,1,2.7.413,15.88,15.88,0,0,1,2.391,1.118,15.514,15.514,0,0,1,2.669,2.155c.821.856,1.629,1.726,2.444,2.588.577.644,1.131,1.3,1.653,1.986.668.875,1.262,1.813,1.879,2.723a4,4,0,1,0,6.524-4.629,43.113,43.113,0,0,0-3.512-4.7c-.8-.887-1.633-1.738-2.445-2.613-.536-.582-1.075-1.172-1.641-1.723a14.8,14.8,0,0,0-1.977-1.625,24.914,24.914,0,0,0-3.457-2.074,17.908,17.908,0,0,0-7.363-1.578c-.1,0-.211,0-.316,0-.665,0-1.324.032-1.989.1Z"/>
    <path class="a" d="M309.774,122.208a4.053,4.053,0,0,0-3.562,4.4c.179,2.363.312,4.711.71,7.051.351,2.05.989,4.053,1.506,6.069.786,3.607,1.222,7.287,1.7,10.942.472,3.606.656,7.25,1.289,10.832q.919,5.256,1.707,10.535c.269,1.813.527,3.622.855,5.426.348,1.935.871,3.824,1.34,5.73.5,2.3.929,4.619,1.355,6.938.387,2.09.851,4.168,1.344,6.237.7,3,1.112,6.067,1.91,9.041a3.854,3.854,0,0,0,2.094,2.234,4,4,0,0,0,5.293-2,4.259,4.259,0,0,0,.1-3.059l-.042-.159c-.531-2.558-1-5.124-1.582-7.672l.038.159c-.25-1.132-.524-2.265-.762-3.4-.3-1.437-.543-2.887-.824-4.324s-.555-2.9-.856-4.336c-.294-1.415-.677-2.8-1.029-4.2-.725-3.312-1.142-6.667-1.654-10.019-.293-1.937-.664-3.863-.949-5.8-.254-1.692-.629-3.36-.817-5.063-.207-1.891-.332-3.785-.57-5.672-.227-1.765-.469-3.523-.715-5.289-.258-1.871-.477-3.742-.809-5.6-.379-2.141-.9-4.25-1.468-6.348q-.135-.481-.259-.965a34.73,34.73,0,0,1-.605-3.613c-.168-1.5-.23-3-.343-4.5a4.027,4.027,0,0,0-4-3.583c-.131,0-.262.007-.394.02Zm17.418,79.5.063.256-.063-.256Z"/>
    <path class="a" d="M325.062,149.18a22.6,22.6,0,0,0-2.324.89c-.746.36-1.484.735-2.238,1.075a32.367,32.367,0,0,1-4.767,1.728c-.911.2-1.82.4-2.718.643a18.134,18.134,0,0,0-2.55,1.136,43.6,43.6,0,0,1-5.391,1.848,4,4,0,0,0-.234,7.387,4.2,4.2,0,0,0,3.058.1c1.59-.48,3.184-.957,4.731-1.558.66-.258,1.293-.582,1.933-.883a11.389,11.389,0,0,1,1.692-.648,32.029,32.029,0,0,0,3.547-.9c.949-.32,1.882-.687,2.812-1.058.883-.348,1.734-.786,2.582-1.208a25.1,25.1,0,0,1,2.695-1.066,3.989,3.989,0,0,0-1.444-7.725,4.1,4.1,0,0,0-1.384.241Z"/>
    <path class="a" d="M339.128,112.76a4.049,4.049,0,0,0-3.559,4.394c.156,2.141.27,4.278.375,6.418a57.135,57.135,0,0,0,.637,5.7c.578,3.82,1.363,7.6,1.992,11.406.328,2.016.687,4.016.961,6.039.269,1.973.476,3.949.637,5.93a71.908,71.908,0,0,0,1.46,10.918q.128.538.256,1.077c.259,1.168.464,2.337.623,3.524.184,1.348.211,2.723.293,4.082.161,2.621.317,5.246.715,7.844a48.8,48.8,0,0,0,1.961,7.953c.449,1.356.926,2.688,1.332,4.055.465,1.578.949,3.136,1.555,4.664a4,4,0,1,0,7.484-2.824c-.8-2.024-1.355-4.118-2.015-6.192-.591-1.859-1.273-3.675-1.793-5.559a60.384,60.384,0,0,1-1.164-8.945c-.114-1.761-.211-3.523-.34-5.281a31.993,31.993,0,0,0-.918-5.1,68.172,68.172,0,0,1-1.465-10.689,115.962,115.962,0,0,0-1.527-11.754c-.676-3.91-1.418-7.8-2.047-11.723-.3-1.867-.532-3.75-.66-5.636-.141-2.008-.2-4.02-.344-6.028-.016-.234-.031-.472-.051-.711a4.03,4.03,0,0,0-4-3.583,3.71,3.71,0,0,0-.393.021Z"/>
    <path class="a" d="M370.3,106.3a59.42,59.42,0,0,0-5.867,3.309,16.171,16.171,0,0,0-2.512,2.219,21.665,21.665,0,0,0-1.781,2.094,41.942,41.942,0,0,0-3.273,5.492,33.856,33.856,0,0,0-2.363,6.234,38.688,38.688,0,0,0-1.18,5.574c-.285,2.078-.367,4.168-.449,6.262-.086,2.238-.2,4.5-.192,6.734.016,2.016.1,4.028.188,6.039a47.884,47.884,0,0,0,.511,5.688c.333,2.056.748,4.074,1.223,6.1-.046-.194-.092-.387-.141-.579q.09.375.182.75l.057.242-.052-.222q.525,2.148,1.134,4.276a28.992,28.992,0,0,0,1.3,3.368,34.562,34.562,0,0,0,4.043,7.285,42.184,42.184,0,0,0,7.121,7.6,30.244,30.244,0,0,0,4.75,3.075,22.093,22.093,0,0,0,4.087,1.494c.935.286,1.866.573,2.815.806a13.913,13.913,0,0,0,3.391.34,14.225,14.225,0,0,0,7.6-2.664A21.829,21.829,0,0,0,393.111,186a32.422,32.422,0,0,0,2.6-2.508,27.193,27.193,0,0,0,3.632-5.227,29.253,29.253,0,0,0,2.633-6.594,33.418,33.418,0,0,0,1.145-5.9,48.075,48.075,0,0,0,.035-6.574c-.1-2-.375-3.973-.641-5.957-.258-1.922-.515-3.852-.66-5.781-.07-.934-.16-1.856-.293-2.782a36.831,36.831,0,0,0-.863-3.773c-.434-1.691-1.055-3.332-1.535-5.008a55.875,55.875,0,0,0-1.77-5.308c-.625-1.575-1.351-3.106-2-4.668a45.163,45.163,0,0,0-2.773-5.977,29.466,29.466,0,0,0-4.016-5c-.508-.539-1.031-1.059-1.582-1.555a19.18,19.18,0,0,0-2.8-1.957l-.483-.294c-.983-.656-1.9-1.384-2.853-2.088a15.822,15.822,0,0,0-2.781-1.665,10.486,10.486,0,0,0-2.629-.7,3.9,3.9,0,0,0-1.518.06,3.965,3.965,0,0,0-.6-.341,4.513,4.513,0,0,0-1.777-.376,2.755,2.755,0,0,0-1.282.278Zm2.419,7.7a3.929,3.929,0,0,0,1.523.587q.3.048.593.109c.235.1.463.211.688.331.821.595,1.6,1.254,2.434,1.825.753.517,1.53.991,2.309,1.462a22.162,22.162,0,0,1,3.472,3.048,23.863,23.863,0,0,1,2.556,3.552c.777,1.6,1.381,3.283,2.073,4.919.648,1.527,1.332,3.035,1.937,4.578.657,1.683,1.121,3.449,1.629,5.18.48,1.625,1.027,3.218,1.458,4.855a35.68,35.68,0,0,1,.558,4.539c.125,1.695.383,3.4.609,5.09.235,1.758.477,3.5.6,5.266.1,1.421.134,2.85.123,4.274a33.887,33.887,0,0,1-1.12,6.478c-.308.946-.649,1.873-1.046,2.79a25.081,25.081,0,0,1-1.526,2.887,24.171,24.171,0,0,1-2.972,3.59,23.327,23.327,0,0,1-3.184,2.434,14.993,14.993,0,0,1-1.56.616c-.309.046-.616.077-.928.094a16.444,16.444,0,0,1-2.745-.516q-.912-.274-1.827-.546l1.031.305a18.784,18.784,0,0,1-3.977-1.685c-.868-.569-1.709-1.167-2.523-1.819a26.208,26.208,0,0,1-2.476-2.353,37.8,37.8,0,0,1-4.564-6.058c-.647-1.289-1.231-2.606-1.8-3.937a36.93,36.93,0,0,1-1.695-5.5c.078.328.156.66.234.992q-.255-1.089-.518-2.18c.051.21.1.42.151.63a52.968,52.968,0,0,1-1.3-8.422c-.187-2.931-.328-5.888-.277-8.828.074-2.722.121-5.451.355-8.164a41.862,41.862,0,0,1,1.408-7.551,37.455,37.455,0,0,1,3.3-6.993,21.969,21.969,0,0,1,2.54-3.095,21.761,21.761,0,0,1,3.428-2.231l1.037-.549Zm-12.07,28.848c0,.184-.01.368-.017.551.006-.184.011-.367.017-.551Zm32.859,2.058c.016.063.031.126.046.188-.015-.062-.03-.125-.046-.188Zm-15.973,44.559.187.055-.187-.055Z"/>
    <path class="a" d="M399.793,95.789a4.035,4.035,0,0,0-2.66,1.422,3.878,3.878,0,0,0-.9,2.976c.336,1.594.683,3.188.918,4.8.183,1.266.277,2.535.347,3.813a34.622,34.622,0,0,0,.415,4.113c.242,1.406.507,2.812.707,4.226.843,5.942,1.847,11.895,3.238,17.735-.082-.332-.16-.664-.238-1q.287,1.313.617,2.621c-.032-.137-.064-.273-.1-.409.407,1.664.858,3.318,1.275,4.979.575,2.723,1.053,5.447,1.423,8.2.395,2.949,1.1,5.848,1.676,8.762.348,1.746.777,3.48,1.121,5.23.3,1.5.578,3,.922,4.489.461,2,1.094,3.933,1.715,5.894.523,1.653.828,3.5,1.848,4.945a4,4,0,0,0,6.64-4.458c-.422-1.072-.658-2.227-1-3.315-.484-1.53-.989-3.043-1.4-4.6-.568-2.575-1.018-5.177-1.613-7.747-.61-2.633-1.141-5.3-1.614-7.957-.23-1.285-.394-2.574-.566-3.867s-.426-2.586-.676-3.875q-.428-2.25-.973-4.476c-.314-1.288-.691-2.561-1.009-3.85q-.127-.538-.26-1.076c-.121-.528-.242-1.056-.367-1.582.078.332.156.664.238,1-.672-2.821-1.188-5.688-1.66-8.547-.215-1.309-.492-2.606-.7-3.918-.235-1.441-.418-2.895-.625-4.344-.184-1.3-.438-2.6-.66-3.9a31.506,31.506,0,0,1-.415-4.113,53.061,53.061,0,0,0-1.265-8.614,4.307,4.307,0,0,0-1.418-2.66,4.04,4.04,0,0,0-2.564-.924,3.823,3.823,0,0,0-.413.022Z"/>
    <path class="a" d="M408.1,92.564a18.262,18.262,0,0,0-4.457,2.238c-1.313.809-2.578,1.684-3.844,2.566a4,4,0,1,0,4.629,6.524c1.649-1.147,3.3-2.3,5.044-3.3a10.159,10.159,0,0,1,.97-.4c.154-.021.308-.037.464-.048a12.577,12.577,0,0,1,1.878.361,20.831,20.831,0,0,1,3.066,1.245c.2.149.4.3.59.471a12.408,12.408,0,0,1,.8,1.173,19.234,19.234,0,0,1,1.209,3.225c.119.548.229,1.1.325,1.65a11.77,11.77,0,0,1,.143,2,19.589,19.589,0,0,1-.67,3.48,29.757,29.757,0,0,1-2.263,5.2,69.026,69.026,0,0,1-4.921,6.272c-1,1.168-2,2.336-3.031,3.484-.512.57-1.051,1.109-1.582,1.66-.231.239-.454.481-.672.727a5.539,5.539,0,0,0-1.18,2.394,3.857,3.857,0,0,0,.691,2.938,4.03,4.03,0,0,0,3.68,1.66c1.59-.172,2.809-1.32,3.953-2.336.731-.652,1.5-1.266,2.262-1.883a34.192,34.192,0,0,1,4.381-3.048,10.828,10.828,0,0,1,1.459-.569,16.378,16.378,0,0,1,2.678-.241,14.5,14.5,0,0,1,1.859.279l.089.038c.14.108.274.22.408.338a18.483,18.483,0,0,1,1.454,2.225c.609,1.219,1.146,2.466,1.707,3.709.66,1.445,1.324,2.879,1.926,4.351.543,1.332,1,2.692,1.512,4.035.441,1.175.849,2.338,1.175,3.544.265,1.278.45,2.567.649,3.859a43.614,43.614,0,0,0,1.2,5.064c.523,2.378.937,4.786,1.695,7.1.4,1.234.821,2.5,1.328,3.691.18.426.368.848.536,1.274a12,12,0,0,0,.367,1.148,3.95,3.95,0,0,0,1.183,1.664,4.077,4.077,0,0,0,2.973.9c.027,0,.051,0,.078,0a4.034,4.034,0,0,0,3.563-4.4,3.907,3.907,0,0,0-.533-1.6,6.783,6.783,0,0,0-.2-.671c-.238-.606-.527-1.192-.742-1.809-.506-1.47-1.074-2.92-1.493-4.416-.234-1.05-.454-2.1-.671-3.154-.3-1.459-.719-2.884-1.091-4.322-.284-1.394-.43-2.811-.686-4.209a32.232,32.232,0,0,0-1.461-5.5c-.633-1.671-1.219-3.371-1.895-5.023-.761-1.867-1.636-3.676-2.441-5.519a47,47,0,0,0-2.828-5.516,11.462,11.462,0,0,0-.711-.992,9.628,9.628,0,0,0-3.356-2.887,12.221,12.221,0,0,0-4.535-1.121c-.453-.029-.916-.049-1.38-.054a22.922,22.922,0,0,0,1.806-3.927,25.76,25.76,0,0,0,1.621-6.328c.078-1.121.082-2.242.051-3.363a13.338,13.338,0,0,0-.395-2.375,21.587,21.587,0,0,0-1.6-5.223,31.4,31.4,0,0,0-1.559-2.808,9.9,9.9,0,0,0-1.445-1.672,9.626,9.626,0,0,0-1.371-1.074,16.755,16.755,0,0,0-2.008-1.145,28.936,28.936,0,0,0-4.195-1.453,11.8,11.8,0,0,0-3.351-.5,10.2,10.2,0,0,0-2.829.391Z"/>
    <path class="a" d="M478.7,76.552a28.805,28.805,0,0,1-2.887.476c-.9.1-1.82.184-2.711.368-1.962.405-3.852,1.043-5.779,1.581-.781.159-1.566.286-2.354.407-.962.149-1.911.382-2.857.62-2.2.492-4.395.887-6.627,1.2-2.176.309-4.3.844-6.453,1.254a32.2,32.2,0,0,0-7.09,2c-2.262,1-4.567,1.887-6.871,2.777a4,4,0,1,0,2.824,7.485c1.879-.727,3.754-1.457,5.613-2.235.785-.328,1.563-.671,2.344-1a17.426,17.426,0,0,1,2.2-.711c1.063-.227,2.133-.417,3.2-.636,1.352-.281,2.7-.637,4.067-.832,1.6-.231,3.207-.422,4.789-.739,1.528-.3,3.042-.657,4.556-1.018l-.091.022c1.39-.285,2.8-.449,4.183-.769,1.7-.392,3.358-.959,5.045-1.418,1.9-.383,3.84-.477,5.733-.879a4.293,4.293,0,0,0,2.66-1.422,4,4,0,0,0-.52-5.633A4.15,4.15,0,0,0,479.2,76.5a2.394,2.394,0,0,0-.5.05Z"/>
    <path class="a" d="M455.772,85.521a38.346,38.346,0,0,0-.379,5.786,10.1,10.1,0,0,0,.352,2.035c.184.784.4,1.552.6,2.325.723,3.55.637,7.157.845,10.765a61.587,61.587,0,0,0,2.15,11.478c1.24,5.655,1.789,11.429,2.635,17.147.215,1.433.567,2.843.821,4.273.285,1.6.515,3.2.836,4.793.359,1.8.73,3.59,1.011,5.4.327,2.07.828,4.095,1.337,6.124.3,1.372.57,2.753.9,4.122-.078-.332-.16-.664-.238-1,.195.844.394,1.7.531,2.551q.081.516.187,1.031a7.566,7.566,0,0,0,.95,2.571,3.87,3.87,0,0,0,2.644,1.636,4,4,0,0,0,4.57-3.332,3.753,3.753,0,0,0-.294-2.151l-.01-.053.023.044c-.013-.037-.025-.073-.037-.11-.3-1.48-.6-2.953-.942-4.425q.06.255.124.512c-.394-1.841-.792-3.67-1.247-5.494-.373-1.8-.645-3.607-.968-5.409-.309-1.714-.711-3.406-1-5.121-.274-1.629-.563-3.246-.883-4.863-.293-1.5-.551-3.008-.73-4.523-.348-2.938-.762-5.864-1.219-8.786-.239-1.523-.512-3.042-.793-4.558-.322-1.746-.79-3.459-1.226-5.181-.359-1.587-.7-3.187-.919-4.8a49.5,49.5,0,0,1-.351-5.332c-.051-1.82-.141-3.644-.305-5.457a31.866,31.866,0,0,0-1.134-5.46,12.729,12.729,0,0,1-.26-2.2c.07-1.04.2-2.072.328-3.1a4.052,4.052,0,0,0-3.332-4.571,3.8,3.8,0,0,0-.591-.046,4.024,4.024,0,0,0-3.984,3.378Zm19.362,75.35.05.093.007.03-.057-.123Z"/>
    <path class="a" d="M514.961,73.407a14.216,14.216,0,0,0-2.395.492,20.827,20.827,0,0,0-6.012,2.824,16.47,16.47,0,0,0-4.488,4.469,45.241,45.241,0,0,0-3.445,6.027,42.325,42.325,0,0,0-3.7,11.625,54.762,54.762,0,0,0-.356,11.617c.117,1.914.344,3.828.574,5.731a49.044,49.044,0,0,0,.891,5.105c.238,1.035.465,2.071.789,3.082a22.066,22.066,0,0,0,.984,2.418c.692,1.512,1.469,2.988,2.227,4.465a39.534,39.534,0,0,0,2.82,4.832,24.988,24.988,0,0,0,4.5,4.609c1.535,1.29,3.024,2.641,4.6,3.872a22.481,22.481,0,0,0,2.84,1.875,15.749,15.749,0,0,0,3.476,1.351,21.82,21.82,0,0,0,5.891.645,20.786,20.786,0,0,0,6.125-.953,26.292,26.292,0,0,0,5.617-2.887,24.164,24.164,0,0,0,4.488-3.91,3.863,3.863,0,0,0,.9-2.977,4,4,0,0,0-4.395-3.559,4.278,4.278,0,0,0-2.66,1.422c-.464.464-.935.925-1.4,1.388a22.21,22.21,0,0,1-3.371,2.2c-.345.178-.693.35-1.053.5a10.745,10.745,0,0,1-1.384.461,23.767,23.767,0,0,1-4.105.35,17.784,17.784,0,0,1-2.932-.459,15.214,15.214,0,0,1-1.776-.8c-1.334-.918-2.537-1.98-3.791-3.022-1.423-1.182-2.893-2.35-4.2-3.663a25.221,25.221,0,0,1-2.519-3.746q-.985-1.9-1.922-3.825a25.129,25.129,0,0,1-1.8-4.56c-.239-1.056-.458-2.113-.628-3.182-.222-1.4-.359-2.813-.511-4.223a69.576,69.576,0,0,1-.441-8.124,39.952,39.952,0,0,1,1.3-8.838,50.2,50.2,0,0,1,4.217-9.264,17.565,17.565,0,0,1,1.994-2.55,20.916,20.916,0,0,1,2.586-1.779,16.477,16.477,0,0,1,2.419-.931,13.706,13.706,0,0,1,1.732-.2c.142.016.284.039.424.066.116.046.23.1.343.151.486.369.954.762,1.423,1.15a4,4,0,0,0,5.117-6.152,12.459,12.459,0,0,0-4.16-2.641,12.032,12.032,0,0,0-2.418-.52c-.3-.028-.594-.04-.893-.04-.508,0-1.02.034-1.521.076Z"/>
    <path class="a" d="M575.79,71.2a32.414,32.414,0,0,0-.058,6.629c.117,1.836.23,3.683.394,5.515.172,1.942.2,3.856.2,5.805.007,2.016.05,4.031.046,6.047.006-.241.013-.484.02-.727l-.029,1.147c-.071,2.234-.252,4.464-.256,6.7,0,1.765.275,3.517.319,5.284-.134,2.856-.584,5.7-.968,8.529a73.646,73.646,0,0,1-1.5,9.155,26.6,26.6,0,0,1-2.173,4.706,18.124,18.124,0,0,1-1.734,2.227,15.357,15.357,0,0,1-1.81,1.238c-.351.157-.7.3-1.066.418a13.854,13.854,0,0,1-1.863.158,14.8,14.8,0,0,1-2.37-.373,11.7,11.7,0,0,1-1.219-.563,16.793,16.793,0,0,1-2.1-1.707,27.348,27.348,0,0,1-2.982-4.057,29.86,29.86,0,0,1-1.858-5.2,47.442,47.442,0,0,1-.6-5.194c-.086-.949-.145-1.9-.227-2.844a27.01,27.01,0,0,0-.8-4.125l.234,1c-.205-.866-.431-1.721-.645-2.58a29.433,29.433,0,0,1-.441-6.366c.024-2.2-.058-4.375-.183-6.57-.129-2.242-.118-4.488-.266-6.731-.133-2.07-.3-4.117-.288-6.189.046-1.027.113-2.046.245-3.068.18-1.383.48-2.754.738-4.125a4,4,0,1,0-7.906-1.239c-.316,1.684-.664,3.364-.852,5.067a46.517,46.517,0,0,0-.191,5.371c.027,2.941.41,5.871.449,8.816.02,1.442.106,2.883.2,4.321.089,1.527.117,3.046.105,4.578-.008,1.4-.047,2.808.043,4.211a32.057,32.057,0,0,0,1.164,5.867l-.234-1q.149.63.3,1.261c.683,3.192.546,6.5,1.056,9.719.168,1.043.465,2.071.735,3.09a24.772,24.772,0,0,0,.839,2.645,23.017,23.017,0,0,0,2.969,5.6,28.461,28.461,0,0,0,3.672,4.27,16.977,16.977,0,0,0,1.906,1.472c.571.371,1.149.735,1.742,1.071a11.42,11.42,0,0,0,2.446.914,16.749,16.749,0,0,0,6.605.523,14.4,14.4,0,0,0,8.235-4.176,22.046,22.046,0,0,0,3.636-5.078,22.977,22.977,0,0,0,1.7-3.8,35.718,35.718,0,0,0,1.4-5.457c.266-1.574.445-3.16.648-4.742.368-2.867.762-5.73,1.047-8.6a29.7,29.7,0,0,0,.063-4.891c-.084-1.293-.233-2.563-.252-3.859.071-1.978.184-3.954.238-5.931.032-1.908,0-3.813-.01-5.722-.007-1.894.047-3.793-.09-5.683-.241-3.432-.621-6.876-.615-10.32.02-.4.05-.8.108-1.2a4.045,4.045,0,0,0-3.336-4.57,3.775,3.775,0,0,0-.6-.047A4.037,4.037,0,0,0,575.79,71.2Zm.559,24.953c0,.1,0,.206-.008.309,0-.1,0-.206.008-.309Zm7.941-.133c0-.142.007-.285.01-.428,0,.143-.006.285-.01.428Zm.014-.661,0,.233c0-.2.009-.406.014-.611,0,.126-.006.252-.01.378Z"/>
    <path class="a" d="M613.1,67.85a27.785,27.785,0,0,0-3.852.352,55.876,55.876,0,0,1-8.68.242,3.835,3.835,0,0,0-2.66,1.418,4.014,4.014,0,0,0,.52,5.637c.3.187.609.379.91.566a3.99,3.99,0,0,0,2.066.336,57.952,57.952,0,0,0,7.864-.129c1.023-.132,2.046-.328,3.078-.4.977-.068,1.961-.08,2.943-.072,1.916.055,3.832.048,5.748.045,1.379-.007,2.761-.011,4.146.007,3.953.165,7.912.429,11.838.918,1.731.215,3.446.332,5.184.442.961.062,1.9.218,2.852.343a17.6,17.6,0,0,0,3.214.047,4,4,0,1,0-.832-7.957q-.435.022-.869.032c-1.044-.109-2.074-.3-3.127-.368s-2.113-.105-3.172-.207c-2.531-.246-5.043-.593-7.582-.781-2.824-.211-5.656-.383-8.484-.433-1.309-.02-2.613,0-3.922.015-.987.013-1.974.027-2.961.021-1.21-.043-2.421-.078-3.633-.078-.2,0-.393,0-.589,0Z"/>
    <path class="a" d="M621.155,69.674c-.254.234-.508.472-.762.707a4,4,0,0,0-.875,1.937,57.969,57.969,0,0,0-1.465,5.961c-.328,1.887-.582,3.777-.961,5.656-.375,1.864-.878,3.692-1.382,5.52-.532,1.941-1.024,3.9-1.493,5.855a99.033,99.033,0,0,0-1.648,11.118c-.238,1.906-.5,3.812-.734,5.718-.211,1.731-.278,3.473-.461,5.2-.305,2.8-.465,5.661-1,8.434-.281,1.449-.594,2.9-.824,4.359a34.343,34.343,0,0,0-.332,4.668c.007-.347.015-.691.023-1.039a13.424,13.424,0,0,0,.047,2.348,4.923,4.923,0,0,0,.781,2.234,4.139,4.139,0,0,0,3.809,1.731,4.025,4.025,0,0,0,3.562-4.4,3.93,3.93,0,0,0-.263-1.061c0-.092-.009-.183-.012-.275l.005-.2c.157-3.711,1.33-7.289,1.637-10.989.153-1.848.4-3.692.571-5.539.148-1.676.257-3.344.461-5.016.23-1.933.507-3.859.742-5.793.222-1.887.422-3.773.672-5.656a87.669,87.669,0,0,1,2.593-11.3,67.871,67.871,0,0,0,1.762-8.082c.184-1.285.391-2.57.641-3.844.293-1.48.765-2.929,1.176-4.379a3.82,3.82,0,0,0-.688-2.937,4.049,4.049,0,0,0-2.644-1.637,4,4,0,0,0-.607-.047,4.046,4.046,0,0,0-2.327.739Z"/>
    <path class="a" d="M663.189,73.265a17.337,17.337,0,0,0-3.578.906,10.67,10.67,0,0,0-4.285,3.11,14.719,14.719,0,0,0-1.739,2.843,14.657,14.657,0,0,0-1.379,9.18,23.83,23.83,0,0,0,1.286,5.34,19.545,19.545,0,0,0,3.007,4.871,48.228,48.228,0,0,0,3.645,4.5,26.784,26.784,0,0,0,3.875,3.117,28.273,28.273,0,0,1,3.154,2.458,14.01,14.01,0,0,1,.9,1.294,17.514,17.514,0,0,1,.936,2.763,37.431,37.431,0,0,1,.92,7.673c-.109,1.685-.31,3.354-.521,5.027-.118.934-.2,1.871-.336,2.8a19.953,19.953,0,0,1-.494,2.344,23.429,23.429,0,0,1-1.607,3.718,13.815,13.815,0,0,1-1.352,1.651,22.215,22.215,0,0,1-3.063,2.1,15.985,15.985,0,0,1-2.035.841c-.234.032-.464.055-.7.07a23.12,23.12,0,0,1-3.775-.751,24.978,24.978,0,0,1-4.42-1.818,17.533,17.533,0,0,1-2.412-1.994,20.517,20.517,0,0,1-1.957-2.7,21.353,21.353,0,0,1-1.312-3.372,3.9,3.9,0,0,0-2.094-2.235,4,4,0,0,0-5.293,2,4.182,4.182,0,0,0-.1,3.059,22.021,22.021,0,0,0,7.059,10.707,10.457,10.457,0,0,0,1.121.781,28.185,28.185,0,0,0,2.723,1.594,22.432,22.432,0,0,0,3.015,1.144,28.941,28.941,0,0,0,6.668,1.532c3.285.261,6.172-1.129,8.895-2.782a18.1,18.1,0,0,0,2.75-2.035,16.675,16.675,0,0,0,2.172-2.281,19.835,19.835,0,0,0,1.484-2.367,27.148,27.148,0,0,0,2.246-6,37.428,37.428,0,0,0,.832-5.684,38.991,38.991,0,0,0,.4-7.918,46.393,46.393,0,0,0-1.485-8.492,14.958,14.958,0,0,0-5.211-7.828c-1.843-1.457-3.867-2.627-5.562-4.263-.765-.9-1.461-1.84-2.168-2.784-.737-.981-1.508-1.932-2.146-2.98a14.954,14.954,0,0,1-.783-2.194,23.9,23.9,0,0,1-.489-3.795,12.391,12.391,0,0,1,.211-1.353,16.646,16.646,0,0,1,1.037-2.313c.164-.232.335-.455.522-.671q.224-.171.46-.325c.365-.155.735-.286,1.114-.408a19.652,19.652,0,0,1,3.51-.311,15.153,15.153,0,0,1,1.9.272q.215.087.424.186a9.032,9.032,0,0,1,.931.837l-.061-.066q.87.936,1.749,1.863a46.583,46.583,0,0,1,3.281,4.68,4,4,0,0,0,6.527-4.633c-.73-1.117-1.484-2.215-2.242-3.308a27.785,27.785,0,0,0-3.047-3.509,18.667,18.667,0,0,0-2.113-2.1,10.54,10.54,0,0,0-5.344-2.05,23.49,23.49,0,0,0-2.729-.163,18.48,18.48,0,0,0-2.927.221Z"/>
    <path class="a" d="M723.613,51.014a13.794,13.794,0,0,0-2.034-1.109c-.731-.348-1.469-.7-2.176-1.09a21.787,21.787,0,0,1-1.918-1.269,31.792,31.792,0,0,0-5.308-2.793c-1.747-.778-3.438-1.66-5.114-2.574-1.523-.829-3.043-1.692-4.594-2.465-1.5-.742-3-1.5-4.472-2.3s-2.949-1.531-4.43-2.293-2.957-1.555-4.453-2.289a87.762,87.762,0,0,0-10.785-4.492c-3.192-1.075-6.254-2.528-9.485-3.489-1.507-.445-3.058-.746-4.578-1.144a42.417,42.417,0,0,1-4.57-1.535,27.191,27.191,0,0,0-4.5-1.3c-2.094-.418-4.164-.906-6.242-1.4a4.285,4.285,0,0,0-1-.117,3.988,3.988,0,0,0-1.1,7.84c1.692.4,3.379.832,5.082,1.172,1.379.277,2.754.559,4.106.965,1.179.351,2.289.894,3.449,1.3,1.3.453,2.644.808,3.98,1.14,1.282.321,2.563.575,3.821.973s2.5.855,3.722,1.352c1.344.55,2.692,1.074,4.059,1.566,1.52.551,3.061,1.039,4.57,1.625,2.944,1.248,5.815,2.618,8.645,4.109,2.957,1.555,5.933,3.078,8.9,4.61,3.129,1.609,6.2,3.332,9.348,4.906.926.461,1.875.867,2.812,1.3,1.012.472,1.985.992,2.961,1.527,1.367.75,2.543,1.77,3.953,2.445a27.557,27.557,0,0,1,3.164,1.632c.228.205.446.419.664.638a5.565,5.565,0,0,0,1.161.847,4.015,4.015,0,0,0,2.358.814Z"/>
    <path class="a" d="M723.613,52.006A23.7,23.7,0,0,0,721.65,49.1a23.677,23.677,0,0,0-4.363-3.844,56.656,56.656,0,0,0-10.164-5.531c-3.715-1.746-7.465-3.375-11.078-5.336-1.867-1.015-3.742-2.019-5.6-3.058-1.582-.891-3.133-1.828-4.738-2.664a37.819,37.819,0,0,0-5.688-2.383c-1.508-.5-3.047-.906-4.57-1.352-1.6-.468-3.164-1.039-4.773-1.472-1.579-.422-3.18-.739-4.778-1.1A105.579,105.579,0,0,1,655.388,19.1c-3.265-1.1-6.617-1.914-9.941-2.812a23.756,23.756,0,0,0-3.312-.547q-1.5-.187-3.016-.277c-1.879-.106-3.75-.246-5.621-.465-3.582-.414-7.184-.656-10.762-1.125-3.625-.473-7.258-.922-10.9-1.278-3.856-.382-7.723-.613-11.594-.722-1.84-.051-3.676-.188-5.512-.246-.859-.028-1.722-.067-2.586-.067-.57,0-1.179-.045-1.782-.045a5.791,5.791,0,0,0-1.612.186,4.063,4.063,0,0,0-3,3.844,4.008,4.008,0,0,0,.527,2.023,4.267,4.267,0,0,0,2.422,1.871,4.626,4.626,0,0,0,.938.164c.539.074,1.074.153,1.613.211.466.05.932.1,1.4.15a34.619,34.619,0,0,1,5.116,1.124q2.989.938,5.985,1.836c3.9,1.171,7.808,2.328,11.742,3.39,3.9,1.051,7.813,2.039,11.691,3.149,1.918.55,3.832,1.117,5.723,1.746,1.945.644,3.859,1.4,5.785,2.109,6.313,2.313,12.949,3.6,19.379,5.531,3.133.942,6.168,2.153,9.192,3.391,3.128,1.281,6.316,2.414,9.449,3.684l-.174-.072c1.26.518,2.522,1.024,3.785,1.535,1.773.757,3.516,1.583,5.275,2.365,1.954.864,3.95,1.625,5.929,2.423A90.393,90.393,0,0,1,702.1,57.689c1.575.949,3.121,1.945,4.688,2.91,1.629,1,3.289,1.93,4.976,2.836,1.711.918,3.469,1.746,5.168,2.692s3.352,1.941,4.989,2.968c.567.357,1.128.722,1.689,1.086Zm-72.455-23.3c-1.754-.468-3.5-.948-5.246-1.453-2.027-.586-4.016-1.254-6-1.977-1.871-.687-3.738-1.4-5.629-2.027-.235-.078-.47-.156-.706-.232,2.724.321,5.471.384,8.2.687a43.372,43.372,0,0,1,4.4,1.072c1.578.445,3.171.824,4.75,1.27q.444.124.886.26A4.317,4.317,0,0,0,651.158,28.705Z"/>
    <path class="a" d="M723.613,224.652q-.432-.232-.862-.467c-3.395-1.852-6.633-3.984-10.063-5.774s-6.914-3.417-10.406-5.062q-5.6-2.643-11.352-4.914c-3.765-1.484-7.656-2.734-11.539-3.867-1.8-.528-3.6-1-5.367-1.633-1.742-.617-3.492-1.234-5.262-1.774-1.812-.55-3.64-1.027-5.488-1.449-1.664-.379-3.344-.672-5.008-1.043-2.25-.5-4.472-.988-6.761-1.3-.33-.044-.661-.083-.991-.119-1.2-.347-2.413-.66-3.615-.994-1.984-.547-3.976-1.051-5.988-1.484-1.188-.258-2.395-.422-3.6-.578a19.492,19.492,0,0,0-2.555-.212c-.1,0-.2,0-.3,0a10.944,10.944,0,0,0-2.52.3,4.372,4.372,0,0,0-3.078,2.993,4.589,4.589,0,0,0,0,2.136A4.131,4.131,0,0,0,630,201.361a5.288,5.288,0,0,0,2.535,1.367c.5.133,1.008.234,1.508.363.7.172,1.371.465,2.054.688,3.512,1.144,6.934,2.5,10.348,3.906l-.945-.4q2.666,1.113,5.353,2.149a111.469,111.469,0,0,0,10.518,4.172c1.875.582,3.738,1.164,5.637,1.664,1.585.42,3.151.883,4.69,1.45a3.95,3.95,0,0,0,.693.275c3.4,1.556,6.72,3.236,9.992,5.056,3.48,1.934,6.945,3.9,10.539,5.621,3.636,1.742,7.371,3.3,10.976,5.109,1.758.887,3.512,1.782,5.235,2.743,1.687.937,3.332,2.035,4.918,3.136,3.179,2.2,6.385,4.369,9.561,6.576Z"/>
    <path class="a" d="M634.809,195.052l.039.03,0,0-.034-.028Z"/>
    <path class="a" d="M672.741,217.135l.4.163-.4-.163Z"/>
    <path class="a" d="M192.952,236.929a1.26,1.26,0,0,0,1.082,1.4c1.379.085,2.762.136,4.133.32.6.078,1.211.172,1.805.3.636.136,1.265.293,1.9.425,2.555.543,5.086,1.207,7.672,1.6.586.09,1.172.149,1.762.2.683.063,1.379.09,2.054.2a1.25,1.25,0,1,0,.321-2.48c-.676-.109-1.371-.137-2.055-.2-.629-.059-1.254-.125-1.879-.219-1.273-.191-2.523-.465-3.781-.734-1.281-.274-2.555-.59-3.84-.86-.641-.136-1.281-.3-1.922-.433-.6-.129-1.223-.215-1.832-.3-1.332-.18-2.68-.219-4.019-.305l-.1,0a1.263,1.263,0,0,0-1.306,1.081Z"/>
    <path class="a" d="M192.567,241.645a1.262,1.262,0,0,0,.688,1.629,41.606,41.606,0,0,0,3.906,1.489,28.5,28.5,0,0,0,3.985.785c1.257.187,2.519.3,3.777.457,1.332.156,2.664.289,4,.441,2.445.281,4.887.606,7.332.91a26.807,26.807,0,0,0,4.1.157c1.293-.04,2.586-.075,3.879-.1.649-.008,1.3-.02,1.95-.02h-.195c1.652,0,3.3-.091,4.956-.1a11.523,11.523,0,0,1,1.44.064,1.23,1.23,0,0,0,1.51-.721,1.252,1.252,0,0,0-.008-.958,1.182,1.182,0,0,0-.68-.667,4.23,4.23,0,0,0-.863-.172c-.149-.008-.3-.008-.453-.016-.25-.008-.5-.008-.754-.012-.59-.008-1.18.008-1.77.032-.992.038-1.98.062-2.972.07-1.251,0-2.5.028-3.75.043-1.162.018-2.32.074-3.48.084-.621-.011-1.235-.028-1.853-.088s-1.218-.145-1.828-.223c-1.273-.168-2.554-.328-3.832-.476-2.527-.3-5.054-.575-7.578-.856-.98-.1-1.957-.234-2.933-.379-.946-.142-1.881-.284-2.809-.512a38.182,38.182,0,0,1-4.137-1.55,1.2,1.2,0,0,0-.461-.092,1.268,1.268,0,0,0-1.168.779Z"/>
    <path class="a" d="M193.706,250.038a1.249,1.249,0,0,0-.207,1.754,1.206,1.206,0,0,0,.821.465c.711.008,1.418.027,2.125.047s1.394.125,2.089.2c1.348.144,2.7.265,4.043.4,1.243.125,2.481.231,3.723.328.606.047,1.211.086,1.813.149s1.2.144,1.8.207c2.625.281,5.254.441,7.887.617,1.266.086,2.531.145,3.8.156,1.394.016,2.8-.043,4.187-.09,1.524-.054,3.051-.039,4.575-.082,1.4-.037,2.8-.053,4.2-.054,1.741,0,3.482-.071,5.222-.114.16,0,.32.012.483.024a1.268,1.268,0,0,0,1.4-1.078,1.254,1.254,0,0,0-1.078-1.4c-.941-.07-1.894,0-2.836.024-.883.023-1.763.06-2.647.069-2.238-.01-4.473.057-6.708.083-2.218.027-4.427.113-6.644.139-2.534-.031-5.064-.24-7.591-.412s-5.023-.516-7.539-.715c-1.894-.148-3.785-.332-5.675-.52q-1.671-.164-3.34-.343c-.981-.106-1.981-.1-2.965-.11H194.6a1.326,1.326,0,0,0-.893.262Z"/>
    <path class="a" d="M193.377,256.293a1.263,1.263,0,0,0,1.078,1.4c1.379.207,2.762.375,4.149.547.66.082,1.312.192,1.969.293.582.086,1.164.16,1.746.25,1.3.2,2.6.422,3.9.621,1.258.192,2.523.34,3.785.489q2.2.257,4.41.441c.805.066,1.606.121,2.407.156.741.033,1.49.021,2.232.017,1.518.008,3.039.072,4.557.034,1.437-.034,2.878-.072,4.316-.088,1.266.009,2.53.036,3.8.006,1.293-.031,2.578-.141,3.871-.219q1.887-.111,3.773-.215c1.25-.07,2.512-.105,3.754-.273.348-.047.692-.1,1.035-.16.389-.074.777-.222,1.169-.257a1.242,1.242,0,0,0,.8-.259,1.253,1.253,0,0,0,.207-1.758,1.219,1.219,0,0,0-.82-.464,3.148,3.148,0,0,0-.941.086c-.125.031-.25.066-.375.093-.282.063-.567.117-.852.164-.559.09-1.121.149-1.684.184-.628.043-1.257.1-1.886.129-.653.031-1.3.058-1.953.105-.6.043-1.2.059-1.8.1-.625.047-1.254.082-1.879.125-1.2.08-2.386.145-3.581.159-1.288-.008-2.576-.044-3.868-.011s-2.566.071-3.847.081c-1.4-.009-2.8-.037-4.2-.038a72.011,72.011,0,0,1-7.668-.543c-1.289-.14-2.578-.3-3.863-.48-1.262-.168-2.512-.406-3.77-.6-.641-.094-1.285-.172-1.922-.273-.695-.113-1.394-.235-2.094-.324-1.519-.188-3.035-.371-4.55-.6a1.113,1.113,0,0,0-.171-.013,1.267,1.267,0,0,0-1.228,1.095Z"/>
    <path class="a" d="M184.749,108.413a1.27,1.27,0,0,0,.692,1.629c.679.317,1.355.653,2.05.942.641.265,1.29.511,1.942.75.605.214,1.234.375,1.851.562.586.18,1.165.391,1.743.6.629.23,1.257.453,1.9.64a18.845,18.845,0,0,0,2.016.461,17.117,17.117,0,0,0,1.945.2c.672.047,1.336.11,2,.2.609.085,1.223.16,1.828.273.625.113,1.25.246,1.879.328,1.269.168,2.551.262,3.832.348,1.187.078,2.363.273,3.547.394,1.25.129,2.5.254,3.754.391a1.251,1.251,0,1,0,.32-2.481c-1.285-.14-2.57-.269-3.859-.4-1.227-.129-2.442-.32-3.676-.4-1.281-.082-2.574-.16-3.84-.368-.664-.1-1.324-.242-1.988-.351-.645-.109-1.293-.191-1.942-.274-.886-.113-1.781-.14-2.671-.238a17.324,17.324,0,0,1-2.277-.423c-.761-.226-1.5-.5-2.251-.776s-1.484-.492-2.23-.719c-.809-.238-1.594-.523-2.379-.828-.871-.34-1.711-.758-2.559-1.152a1.06,1.06,0,0,0-.455-.1,1.3,1.3,0,0,0-1.174.787Z"/>
    <path class="a" d="M184.823,116.918a1.265,1.265,0,0,0,1.082,1.4c1.386.207,2.777.414,4.16.672.66.125,1.316.246,1.984.324.582.067,1.164.137,1.746.227,1.238.191,2.469.453,3.715.57a28.123,28.123,0,0,0,4.02.109c.177-.006.351,0,.524,0h.044a3.914,3.914,0,0,1,1.025.094,1.216,1.216,0,0,0,.938-.262,1.243,1.243,0,0,0,.2-1.753,1.333,1.333,0,0,0-.82-.465,6.4,6.4,0,0,0-1.571-.094h.325c-.618,0-1.233.027-1.847.034a28.194,28.194,0,0,1-3.384-.245c-1.113-.164-2.223-.394-3.34-.535-.586-.074-1.172-.137-1.754-.219-.621-.086-1.234-.211-1.851-.328-1.258-.238-2.532-.414-3.8-.6a1.113,1.113,0,0,0-.171-.013,1.268,1.268,0,0,0-1.231,1.091Zm17.007,3.3h0Z"/>
    <path class="a" d="M188.454,121.741a1.253,1.253,0,0,0-.207,1.758,1.368,1.368,0,0,0,.82.465c.985.234,1.965.472,2.957.66.832.152,1.668.238,2.5.34s1.656.164,2.488.226c1.012.074,2.012.156,3.032.145a1.193,1.193,0,0,0,.836-.493,1.243,1.243,0,0,0,.238-.91,1.265,1.265,0,0,0-.492-.84,1.372,1.372,0,0,0-.911-.234h-.007c-.817-.019-1.625-.086-2.438-.152-.836-.071-1.672-.129-2.5-.231-.812-.1-1.621-.183-2.426-.332-.992-.187-1.972-.426-2.957-.66a.723.723,0,0,0-.175-.02,1.314,1.314,0,0,0-.758.278Z"/>
    <path class="a" d="M196.061,169.458a1.2,1.2,0,0,0-.84.492,1.25,1.25,0,0,0,.254,1.75,1.4,1.4,0,0,0,.914.238l1.427-.01c2.484.014,4.968.091,7.452.2,1.289.055,2.566.164,3.852.289.636.059,1.269.148,1.906.2.676.051,1.348.09,2.019.121a11.114,11.114,0,0,1,1.872.145,1.216,1.216,0,0,0,.937-.258,1.251,1.251,0,0,0,.461-.82,1.264,1.264,0,0,0-.258-.938,1.342,1.342,0,0,0-.82-.465,6.247,6.247,0,0,0-1.11-.105c-.339-.016-.679-.035-1.023-.051-.648-.031-1.3-.066-1.941-.125-1.246-.109-2.485-.277-3.735-.371-1.3-.094-2.6-.137-3.9-.176s-2.617-.082-3.926-.105c-.521-.011-1.042-.014-1.563-.014-.659,0-1.317,0-1.976.01Z"/>
    <path class="a" d="M199.855,176.391c-.786.016-1.571.035-2.356.074-.914.043-1.828.121-2.742.18a1.253,1.253,0,0,0-1.074,1.4,1.27,1.27,0,0,0,1.4,1.078c1.289-.086,2.574-.179,3.867-.226,1.114-.037,2.228-.042,3.34-.046,5.317.061,10.624.484,15.938.7q1.306.053,2.617.074c.984.012,1.968-.027,2.953-.043,1.7-.031,3.393-.069,5.086-.093a9.043,9.043,0,0,1,1.672.105,1.25,1.25,0,0,0,.32-2.48,8.854,8.854,0,0,0-1.438-.1c-.464-.012-.929,0-1.394.008-.809.012-1.617.015-2.426.031-1.53.03-3.059.074-4.586.091-2.662-.042-5.321-.214-7.976-.353s-5.293-.277-7.942-.363q-1.728-.054-3.456-.055-.9,0-1.805.016Z"/>
    <path class="a" d="M193.917,183.751a1.253,1.253,0,0,0-.207,1.758,1.335,1.335,0,0,0,.82.461c1.367.324,2.727.613,4.117.816.641.094,1.285.176,1.93.25.625.071,1.242.184,1.867.274a39.833,39.833,0,0,0,8.067.094c.484-.036.968-.078,1.453-.082a1.193,1.193,0,0,0,.836-.493,1.243,1.243,0,0,0,.238-.91,1.256,1.256,0,0,0-.492-.84,1.372,1.372,0,0,0-.91-.238c-1.028.012-2.059.121-3.086.18-.866.049-1.734.054-2.6.054-.914-.024-1.823-.09-2.737-.187-.446-.043-.891-.125-1.332-.195-.485-.075-.973-.137-1.461-.192-.879-.1-1.762-.215-2.633-.375-.984-.179-1.957-.406-2.93-.633a.821.821,0,0,0-.18-.02,1.285,1.285,0,0,0-.757.278Z"/>
    <path class="a" d="M313.229,43.7c-1.29.719-2.551,1.478-3.811,2.245-.652.381-1.316.743-1.97,1.125l.062-.038c-.525.311-1.05.625-1.575.937l.024-.015c-1.078.618-2.137,1.265-3.2,1.9-.529.3-1.057.605-1.592.894-.583.316-1.18.605-1.778.9-1.137.566-2.305,1.055-3.476,1.551q-3.581,1.518-7.168,3.031-3.675,1.552-7.364,3.09c-2.418,1-4.839,1.98-7.3,2.855-.618.219-1.239.422-1.856.645-.637.226-1.262.484-1.887.746-1.179.5-2.363.992-3.558,1.457-2.535.992-5.106,1.895-7.66,2.844-1.219.453-2.43.949-3.645,1.414q-1.934.738-3.89,1.387c-1.247.41-2.5.8-3.735,1.234s-2.512.754-3.769,1.133c-2.512.761-4.953,1.742-7.43,2.609-2.457.86-4.836,1.918-7.285,2.805q-1.922.692-3.879,1.281c-1.247.38-2.479.8-3.731,1.161-1.162.3-2.335.607-3.511.855-1.254.261-2.528.425-3.782.707q-1.98.44-3.937.972c-1.277.344-2.566.68-3.867.934-.656.129-1.328.2-1.988.305s-1.3.207-1.938.359c-1.5.352-2.969.84-4.441,1.289a1.2,1.2,0,0,0-.672.684,1.254,1.254,0,0,0,.687,1.629,1.354,1.354,0,0,0,.957-.008c.891-.275,1.778-.559,2.675-.817.525-.144,1.051-.3,1.583-.406.6-.125,1.2-.207,1.8-.3.637-.1,1.273-.175,1.906-.3s1.25-.293,1.875-.446c2.578-.629,5.125-1.375,7.746-1.808.649-.11,1.3-.227,1.942-.36.6-.129,1.195-.289,1.789-.433,1.347-.325,2.683-.688,4-1.121s2.64-.813,3.953-1.246c1.265-.418,2.512-.883,3.754-1.364,1.222-.476,2.433-1,3.66-1.465,1.187-.453,2.394-.847,3.59-1.281,1.25-.453,2.484-.937,3.746-1.351.625-.207,1.246-.422,1.875-.61.652-.2,1.308-.379,1.961-.566,1.207-.352,2.386-.8,3.586-1.18,1.32-.422,2.636-.844,3.941-1.312,1.246-.446,2.481-.922,3.711-1.411,1.313-.519,2.637-1.007,3.961-1.5,2.434-.9,4.879-1.765,7.277-2.757,1.231-.512,2.453-1.055,3.711-1.5,1.192-.422,2.391-.821,3.574-1.27,2.461-.93,4.891-1.941,7.321-2.957,2.492-1.039,4.976-2.094,7.465-3.144,2.367-1,4.742-2,7.109-3.012,1.18-.508,2.336-1.086,3.465-1.7,1.226-.664,2.41-1.4,3.609-2.114l.13-.076-.067.041q1.337-.78,2.667-1.571l-.07.04.076-.043.131-.078-.044.027.126-.074-.136.08-.022.013c.739-.422,1.486-.826,2.209-1.265.617-.376,1.227-.756,1.845-1.129.5-.291,1.008-.57,1.511-.851a1.33,1.33,0,0,0,.672-.68,1.253,1.253,0,0,0-.688-1.629,1.387,1.387,0,0,0-.5-.1.936.936,0,0,0-.453.1Zm-4.647,5.578-.006,0,.017-.009-.011.006Zm.011-.006.012-.007.016-.01-.028.017Zm.012-.007-.181.107.213-.126-.032.019Zm.016-.01.038-.022.01-.006-.048.028Z"/>
    <path class="a" d="M314.639,51.916a13.716,13.716,0,0,0-2.211,1.024c-.559.293-1.11.59-1.664.887-1.145.625-2.293,1.254-3.461,1.836-1.219.609-2.461,1.164-3.7,1.738-1.171.551-2.332,1.125-3.523,1.629-1.164.488-2.375.871-3.566,1.281-1.258.43-2.489.922-3.723,1.418s-2.465.977-3.715,1.418c-1.2.426-2.43.785-3.613,1.254s-2.371.941-3.57,1.383-2.43.855-3.641,1.285c-1.258.449-2.481,1-3.719,1.5-1.2.488-2.414.976-3.644,1.4s-2.481.746-3.727,1.114c-.625.187-1.246.394-1.867.589-.582.184-1.164.364-1.735.575-1.234.461-2.468.894-3.718,1.3-.621.2-1.242.407-1.856.621-.593.211-1.176.454-1.769.668-.981.356-1.973.688-2.961,1.02s-1.969.754-2.946,1.148a58.48,58.48,0,0,1-5.867,2.106c-.668.18-1.335.354-2,.547-.6.176-1.187.386-1.773.59-1.278.437-2.52.992-3.778,1.488-1.164.457-2.332.89-3.515,1.293-1.25.43-2.528.777-3.778,1.219-1.16.414-2.328.8-3.515,1.14-1.242.356-2.473.762-3.719,1.113-2.562.723-5.074,1.606-7.6,2.426a1.253,1.253,0,0,0,.015,2.313,1.327,1.327,0,0,0,.957-.008c1.336-.434,2.657-.906,4-1.328,1.282-.4,2.567-.8,3.86-1.172.691-.2,1.375-.41,2.058-.629.61-.191,1.223-.352,1.832-.531,1.286-.383,2.536-.844,3.805-1.266,1.051-.347,2.109-.648,3.156-1s2.1-.754,3.145-1.156c1.09-.418,2.168-.863,3.25-1.3.963-.386,1.97-.7,2.968-1,1.25-.338,2.5-.678,3.723-1.1s2.442-.9,3.649-1.391c1.191-.484,2.375-.969,3.593-1.379s2.438-.836,3.645-1.293c1.242-.472,2.508-.859,3.766-1.281,1.2-.406,2.378-.887,3.589-1.266,1.188-.375,2.375-.75,3.579-1.086,1.277-.355,2.543-.761,3.781-1.238,1.258-.484,2.5-.984,3.746-1.5.621-.258,1.242-.523,1.871-.762.605-.23,1.215-.437,1.824-.644q1.8-.621,3.582-1.3c1.156-.445,2.3-.93,3.473-1.328,1.277-.43,2.551-.86,3.812-1.336,1.223-.461,2.434-.953,3.649-1.442,2.39-.968,4.894-1.632,7.23-2.726,1.094-.512,2.18-1.031,3.274-1.535,1.113-.516,2.222-1.035,3.316-1.594,1.039-.523,2.055-1.094,3.082-1.648.531-.293,1.07-.579,1.606-.86a12.082,12.082,0,0,1,2.011-.914,1.2,1.2,0,0,0,.672-.683,1.248,1.248,0,0,0-.687-1.625,1.125,1.125,0,0,0-.439-.089,1.758,1.758,0,0,0-.518.092Z"/>
    <path class="a" d="M316,57.065c-1.2.59-2.391,1.176-3.578,1.773-1.137.574-2.293,1.09-3.465,1.586q-3.714,1.577-7.43,3.168c-2.441,1.051-4.879,2.117-7.277,3.266-1.18.566-2.324,1.195-3.5,1.765-1.2.586-2.426,1.129-3.633,1.7-1.16.554-2.3,1.156-3.465,1.691-1.148.523-2.328.988-3.5,1.465-2.433,1-4.879,1.961-7.375,2.789-1.261.422-2.519.828-3.769,1.281-1.2.434-2.422.824-3.637,1.227s-2.418.859-3.629,1.285c-1.285.449-2.566.9-3.836,1.39-1.81.7-3.633,1.329-5.5,1.853-.887.236-1.771.481-2.655.729-1.125.3-2.253.573-3.377.879l.042-.01-.4.107.065-.018-.754.206-.011,0,.1-.029-.11.03a1.34,1.34,0,0,0-.217.06l-.321.088a8.51,8.51,0,0,0-1.012.287c-.383.109-.766.215-1.153.32.11-.027.219-.058.325-.086-.836.223-1.668.457-2.493.715-.7.219-1.386.485-2.086.7-.742.231-1.492.426-2.218.7-.77.289-1.532.582-2.3.875a1.249,1.249,0,1,0,.976,2.3c.719-.273,1.442-.546,2.161-.824.648-.246,1.312-.437,1.98-.633.652-.191,1.289-.433,1.934-.644s1.291-.41,1.942-.593q1.216-.332,2.429-.68l.008,0c.031-.006.063-.014.094-.023a4.66,4.66,0,0,0,.574-.16c.276-.074.553-.147.828-.222-.11.028-.215.059-.325.086.469-.126.941-.255,1.41-.384,1.275-.324,2.55-.647,3.818-1.012,1.216-.32,2.434-.636,3.632-1.026,1.3-.425,2.582-.9,3.859-1.4,1.2-.465,2.426-.875,3.645-1.313,1.265-.453,2.527-.918,3.8-1.339,1.211-.4,2.418-.8,3.618-1.231,1.273-.457,2.562-.867,3.847-1.3,2.422-.8,4.8-1.754,7.156-2.722,1.223-.5,2.454-1,3.657-1.547,1.164-.532,2.3-1.137,3.453-1.688s2.351-1.055,3.5-1.64c1.223-.622,2.441-1.254,3.68-1.852,2.371-1.137,4.789-2.18,7.207-3.223q3.673-1.575,7.363-3.133c1.152-.492,2.285-1,3.4-1.57,1.156-.582,2.321-1.152,3.481-1.726a1.269,1.269,0,0,0,.664-1.637,1.307,1.307,0,0,0-1.167-.774,1.045,1.045,0,0,0-.47.11ZM249.632,84.071l-.129.037.129-.037Zm-2.93.759-.09.024.09-.024Zm-.6,2.727-.154.043.01,0,.144-.039Z"/>
    <path class="a" d="M312.985,64.469c-.586.34-1.172.7-1.789.984-.574.27-1.152.535-1.727.8-1.175.562-2.343,1.136-3.5,1.734s-2.321,1.2-3.5,1.77-2.344,1.179-3.532,1.738c-1.156.543-2.347,1.023-3.515,1.543q-1.687.75-3.344,1.547c-1.215.586-2.41,1.215-3.633,1.777-1.207.555-2.445,1.051-3.672,1.563-2.437,1.019-4.879,2.047-7.359,2.964-1.2.442-2.418.84-3.633,1.239-.582.187-1.152.429-1.723.652-.64.246-1.281.488-1.921.734-.118.043-.239.09-.356.133a1.251,1.251,0,0,0,.973,2.3c1.3-.5,2.593-1.023,3.906-1.488,1.207-.43,2.434-.8,3.641-1.239,2.445-.882,4.839-1.91,7.238-2.91,1.223-.511,2.465-1,3.668-1.554,1.242-.571,2.457-1.2,3.687-1.8,1.141-.551,2.293-1.082,3.453-1.6,1.133-.508,2.29-.969,3.411-1.492,1.179-.555,2.332-1.16,3.5-1.723,1.214-.586,2.41-1.2,3.6-1.816q1.7-.885,3.434-1.7c.558-.266,1.121-.524,1.679-.785.582-.274,1.137-.586,1.688-.907.1-.058.195-.113.293-.172a1.355,1.355,0,0,0,.672-.679,1.253,1.253,0,0,0-.688-1.629,1.353,1.353,0,0,0-.506-.1.9.9,0,0,0-.451.106Z"/>
    <path class="a" d="M34.916,34.518a1.262,1.262,0,0,0,.344,1.734,52.443,52.443,0,0,0,5.063,3.055c.921.465,1.871.871,2.8,1.316.832.4,1.672.778,2.492,1.188-.093-.047-.187-.094-.285-.145.139.071.277.14.417.209l-.034-.017.843.42-.069-.037.194.1.091.045-.042-.02c.885.451,1.779.889,2.67,1.329.368.19.737.376,1.108.561l.01,0-.009,0,.126.064-.047-.024.426.215-.065-.034c.556.277,1.112.545,1.674.808a19.728,19.728,0,0,0,1.856.683c1.211.426,2.422.848,3.656,1.2,1.309.371,2.621.735,3.941,1.067,1.2.3,2.414.578,3.618.879,1.73.429,3.48.765,5.211,1.175,1.815.428,3.648.771,5.479,1.14.816.174,1.629.355,2.442.532.934.2,1.883.364,2.825.532q2.6.457,5.184.984c2.651.566,5.306,1.094,7.976,1.566q.978.171,1.957.313c.652.094,1.32.129,1.976.183,1.379.11,2.762.161,4.145.211,1.422.051,2.84.133,4.262.211.707.039,1.414.1,2.117.157.731.055,1.468.089,2.193.2l.033.008a1.336,1.336,0,0,0,.969-.062,1.256,1.256,0,0,0,.563-1.676,1.223,1.223,0,0,0-.711-.625,15.508,15.508,0,0,0-2.551-.316q-1.02-.083-2.031-.153-1.928-.133-3.864-.207c-1.336-.054-2.679-.086-4.015-.179a39.186,39.186,0,0,1-4.047-.418c-2.359-.418-4.712-.858-7.06-1.343-1.578-.337-3.159-.653-4.745-.958-1.5-.288-3.012-.539-4.515-.826-2.013-.437-4.033-.847-6.056-1.254-1.247-.272-2.49-.572-3.741-.846s-2.5-.531-3.731-.855-2.472-.574-3.7-.9c-1.289-.34-2.582-.687-3.859-1.07-1.008-.3-2-.648-2.993-1-.523-.184-1.054-.356-1.574-.563-.492-.2-.972-.429-1.449-.66l.1.051-.641-.32.124.061-.448-.224.15.077q-1.464-.738-2.937-1.461l.285.14c-.66-.333-1.32-.667-1.984-1l.04.02-.3-.152.037.02c-1.759-.883-3.549-1.7-5.336-2.526a56.049,56.049,0,0,1-4.816-2.931,1.284,1.284,0,0,0-.7-.206,1.251,1.251,0,0,0-1.041.546Zm6.582,2.6c.081.04.16.082.239.121-.08-.04-.16-.08-.239-.121Zm8.991,7.122.009.005-.009-.005Zm38.341,7.12.094.02-.094-.02ZM50.588,44.3l-.07-.035.07.035Zm-3.858-1.93-.049-.025-.125-.062.174.087Zm5.319-.113-.081-.04.081.04Zm-.529-.264-.135-.068.135.068ZM46,42l-.255-.127c.086.044.169.086.255.127Zm1.032-2.255c-.043-.022-.085-.044-.129-.065l.129.065Zm-.264-.132c-.082-.043-.164-.084-.248-.124.082.042.165.083.248.124Z"/>
    <path class="a" d="M37.06,39.783a1.265,1.265,0,0,0,.34,1.735c1.074.789,2.156,1.574,3.281,2.285.5.316,1.016.609,1.539.891.574.309,1.138.634,1.716.933l-.094-.047.1.05.185.095L44,45.658c1.173.582,2.366,1.1,3.574,1.6s2.43.988,3.66,1.441c1.192.438,2.4.832,3.6,1.25s2.367.891,3.558,1.325c2.453.894,4.965,1.609,7.477,2.332,1.254.363,2.508.722,3.758,1.105q1.811.563,3.625,1.1c1.285.383,2.554.836,3.832,1.246,1.187.379,2.375.75,3.558,1.14,1.219.4,2.442.821,3.68,1.141s2.5.543,3.727.859l.132.036a1.306,1.306,0,0,0,.969-.063,1.249,1.249,0,0,0-.148-2.3c-1.239-.332-2.508-.547-3.75-.867s-2.473-.738-3.7-1.141c-1.2-.394-2.41-.785-3.621-1.16-1.269-.394-2.519-.855-3.8-1.234-1.2-.356-2.39-.723-3.585-1.09-1.254-.387-2.512-.746-3.77-1.109-2.516-.727-5.039-1.434-7.5-2.336-1.141-.418-2.273-.867-3.422-1.274-1.176-.418-2.359-.8-3.535-1.226-1.211-.438-2.414-.918-3.609-1.407-1.132-.464-2.263-.936-3.367-1.466l-.161-.08.016.007c-1.047-.574-2.117-1.121-3.129-1.761-1.129-.715-2.207-1.5-3.281-2.285a1.128,1.128,0,0,0-.672-.214,1.3,1.3,0,0,0-1.063.553Zm7.86,3.563.107.055-.107-.055Zm.52.261.191.094-.191-.094Z"/>
    <path class="a" d="M38.066,37.186a1.266,1.266,0,0,0,1.152,1.339q1.789.236,3.56.577c2.093.487,4.129,1.185,6.221,1.689,2.11.5,4.227.981,6.356,1.4-.11-.019-.215-.043-.321-.062,1.379.3,2.762.578,4.149.84,1.277.238,2.578.379,3.871.523,2.594.289,5.207.4,7.777.875l1.281.241.515.108L72.5,44.69l.628.131-.046-.01c1.387.289,2.778.558,4.18.765,1.285.188,2.574.313,3.863.446,2.68.277,5.364.613,8.063.628.164,0,.332,0,.5,0a14.212,14.212,0,0,1,2.031.094,1.255,1.255,0,0,0,1.34-1.152,1.242,1.242,0,0,0-.309-.922,1.294,1.294,0,0,0-.843-.418,13.877,13.877,0,0,0-2.129-.094c-.657,0-1.313-.011-1.969-.039C86.5,44.065,85.2,43.932,83.9,43.8c-2.657-.289-5.328-.473-7.957-.957-.778-.145-1.555-.3-2.328-.449l.09.02-.347-.071.038.008-.051-.011-.269-.056.031.006-.129-.025.135.026.133.027.048.009c-1.363-.285-2.73-.543-4.109-.73-1.305-.172-2.613-.285-3.922-.4s-2.6-.25-3.9-.407-2.594-.414-3.879-.664c-.18-.034-.357-.072-.536-.109.063.012.126.025.188.039-.9-.2-1.8-.387-2.7-.563l.183.039-.233-.049-.087-.017.063.012c-2.327-.494-4.644-1.043-6.934-1.672-1.234-.34-2.449-.746-3.7-1.027-1.426-.325-2.871-.551-4.32-.743a1.2,1.2,0,0,0-.133-.008,1.273,1.273,0,0,0-1.207,1.165Zm33.758,7.363.28.059c-.093-.018-.187-.038-.28-.059Zm1.574.328-.271-.056c.09.02.18.039.271.056Zm-.582-.121-.189-.038.189.038Zm.527-2.421.013,0-.112-.025-.057-.011q.078.015.156.033Zm-.156-.033-.013,0,.013,0Zm-.013,0-.063-.013h-.006l.069.014ZM54.383,39.476l.05.01-.074-.015.024.005Z"/>
    <path class="a" d="M48.287,50.672a1.265,1.265,0,0,0,.063.969,1.321,1.321,0,0,0,.711.621c1.786.774,3.611,1.466,5.373,2.3.505.269,1,.554,1.5.843.6.347,1.223.66,1.848.966.552.283,1.1.575,1.668.831.585.262,1.183.5,1.781.735,1.187.48,2.41.875,3.613,1.312s2.406.891,3.6,1.356c1.211.472,2.433.91,3.64,1.394,1.145.461,2.282.942,3.45,1.34,1.187.41,2.394.734,3.6,1.086,2.481.719,4.969,1.465,7.5,2.012,1.738.371,3.488.7,5.235,1.027.773.144,1.558.246,2.336.363s1.553.2,2.326.329c.242.058.483.121.72.191a1.278,1.278,0,0,0,1.594-.774,1.258,1.258,0,0,0-.769-1.59,15.328,15.328,0,0,0-1.606-.363c-.39-.07-.793-.1-1.187-.156-.86-.117-1.715-.246-2.575-.379-1.6-.248-3.191-.594-4.781-.912-2.509-.542-4.989-1.23-7.449-1.959-1.207-.359-2.43-.676-3.629-1.066s-2.34-.868-3.5-1.333c-2.25-.9-4.519-1.761-6.789-2.6-2.255-.836-4.569-1.544-6.743-2.589q-.818-.42-1.648-.825l.289.141c-.632-.329-1.246-.676-1.859-1.036a23.449,23.449,0,0,0-2.25-1.121c-.656-.293-1.324-.55-1.984-.824q-1.242-.516-2.477-1.051a1.011,1.011,0,0,0-.4-.082,1.321,1.321,0,0,0-1.192.852ZM59.6,54.516l.107.052-.107-.052Zm-1.988,1.766.16.082-.16-.082Z"/>
    <path class="a" d="M87.49,114.677c-.57.039-1.14.129-1.71.192-1.067.117-2.137.218-3.2.324-1.093.109-2.179.25-3.273.383-1.063.128-2.132.229-3.2.31l-.122.007H76l-.084.005-.472.029.085,0c-1.082.066-2.16.146-3.238.233-1.1.09-2.2.152-3.3.273-1.031.114-2.054.231-3.074.41-1.117.2-2.234.407-3.351.606a1.25,1.25,0,0,0,.484,2.453c1.027-.184,2.058-.367,3.086-.559,1-.179,2-.3,3-.418.965-.109,1.933-.183,2.9-.253.936-.068,1.867-.157,2.8-.223.316-.017.63-.036.947-.055l-.074,0,.44-.026-.108.008.177-.011.159-.009-.082,0c1.023-.068,2.041-.169,3.058-.277.969-.106,1.93-.25,2.9-.352l3.168-.316c.947-.1,1.895-.228,2.843-.305a6.486,6.486,0,0,1,1.376.074,1.191,1.191,0,0,0,.918-.308,1.258,1.258,0,0,0,.421-.844,1.282,1.282,0,0,0-.308-.922,1.369,1.369,0,0,0-.844-.418,5.513,5.513,0,0,0-1.007-.084c-.447,0-.894.039-1.341.072Zm-11.283,1.2-.075.005.075-.005Zm-.114.007h0Zm-1.269,2.557-.2.011.2-.011Zm.467-2.509.157-.009-.157.009Zm.508-.031.121-.007.059,0-.18.011Z"/>
    <path class="a" d="M93.148,119.222q-1.5.252-3,.48c-1.916.291-3.839.516-5.774.657-1.317.071-2.632.107-3.945.191-1.383.086-2.766.172-4.141.3-2.617.242-5.23.554-7.824.984-2.324.383-4.652.734-6.988,1.02-2.512.308-5.016.691-7.528.992a1.252,1.252,0,0,0-.457,2.265,1.3,1.3,0,0,0,.938.188c1.429-.168,2.855-.344,4.277-.563,1.281-.195,2.57-.343,3.86-.5,1.359-.172,2.714-.368,4.066-.575,1.3-.2,2.59-.429,3.887-.621,1.7-.25,3.414-.469,5.125-.629,1.753-.168,3.5-.293,5.256-.406,1.3-.056,2.612-.092,3.912-.187q1.839-.135,3.671-.36c1.235-.152,2.465-.347,3.7-.543,1.2-.187,2.385-.415,3.592-.531.159-.007.318-.012.478-.012a1.25,1.25,0,1,0,.188-2.492h-.106a19.54,19.54,0,0,0-3.18.344Zm-12,3.765c-.079.006-.159.012-.238.016l.238-.016Z"/>
    <path class="a" d="M97.962,124.827c-.528.024-1.06.057-1.592.092.042,0,.085,0,.128-.006l-.333.019h0c-1.262.072-2.531.127-3.784.285-1.339.164-2.683.332-4.015.563-2.641.457-5.285.922-7.946,1.258-2.582.332-5.179.562-7.769.824-1.316.133-2.633.238-3.949.336-1.184.085-2.368.187-3.556.264.046,0,.092,0,.138-.006l-.163.008-.173.011.154-.01c-2.447.123-4.89.273-7.334.487-2.527.219-5.051.492-7.586.66l.336-.023c-.749.045-1.5.09-2.25.142-1.656.089-3.318.142-4.976.127-1.86-.016-3.707.1-5.563.188a1.352,1.352,0,0,0-.922.308,1.244,1.244,0,0,0-.109,1.766,1.2,1.2,0,0,0,.844.418c1.027-.047,2.058-.121,3.089-.157.961-.031,1.918-.019,2.879-.027,2.035-.015,4.063-.086,6.094-.226h-.035c1.149-.069,2.291-.143,3.437-.244,1.125-.1,2.25-.214,3.379-.32,2.229-.206,4.461-.364,6.693-.52q4-.192,7.991-.535c1.4-.125,2.8-.281,4.2-.418,1.383-.132,2.77-.257,4.152-.414,2.657-.3,5.3-.73,7.942-1.187,1.289-.223,2.582-.442,3.883-.613,1.363-.18,2.722-.325,4.093-.414.15-.011.3-.02.453-.029l-.105,0,.323-.019h0c.5-.029,1-.058,1.5-.089l.263-.013a1.353,1.353,0,0,0,.922-.309,1.243,1.243,0,0,0,.109-1.765,1.2,1.2,0,0,0-.812-.419ZM65.1,128.465h.019l.025,0-.044,0Zm30.911-1.044-.218.014.222-.014Zm.152-2.489h0l.2-.013-.206.013Z"/>
    <path class="a" d="M99.165,131.339l-.984.106c-.645.07-1.289.141-1.93.207-1.3.133-2.59.258-3.879.441-1.344.192-2.687.375-4.039.536-1.316.16-2.645.257-3.965.4-1.355.148-2.711.351-4.058.539s-2.661.437-3.989.672q-4.024.714-8.086,1.219c-1.041.126-2.086.209-3.131.289-1.333.072-2.669.126-4.005.183-1.356.055-2.715.055-4.075.078-1.343.02-2.691.028-4.035.047s-2.66.071-3.992.117c-2.59.09-5.18.207-7.769.336a36.49,36.49,0,0,1-3.981.063c-1.41-.082-2.82-.231-4.226-.367a1.252,1.252,0,0,0-.188,2.5c1.438.136,2.875.285,4.316.371a35.646,35.646,0,0,0,3.922-.07c2.731-.145,5.465-.254,8.2-.348,1.324-.047,2.644-.09,3.968-.109s2.668-.028,4-.051c2.735-.047,5.481-.082,8.207-.282s5.426-.531,8.114-.972c2.707-.449,5.4-.973,8.121-1.34,1.34-.184,2.683-.363,4.031-.512,1.324-.148,2.656-.254,3.984-.41,1.25-.152,2.5-.355,3.75-.512,1.332-.168,2.672-.3,4.012-.441.95-.1,1.9-.208,2.846-.306q.056,0,.111.009a1.25,1.25,0,1,0,.188-2.492c-.073,0-.146-.007-.219-.007a11.564,11.564,0,0,0-1.215.108Zm1.054,2.38-.113.007c.038,0,.075-.006.113-.007Z"/>
    <path class="a" d="M84.82,140.981c-1.985.336-3.973.672-5.973.922s-4.018.448-6.039.584c-2.692.15-5.381.339-8.058.65-1.325.152-2.649.332-3.973.476s-2.668.25-4,.407c-.976.117-1.949.212-2.929.278.08,0,.159-.01.237-.013l-.316.019h0c-.843.052-1.687.13-2.53.192-1.051.082-2.1.153-3.153.223a1.194,1.194,0,0,0-.8.527,1.258,1.258,0,0,0,.339,1.739,1.391,1.391,0,0,0,.938.187c.883-.059,1.762-.117,2.644-.184.817-.061,1.63-.142,2.446-.2,1.289-.076,2.568-.194,3.851-.343,1.352-.16,2.711-.265,4.067-.41,1.258-.14,2.515-.32,3.777-.461,1.434-.156,2.863-.293,4.305-.4.732-.057,1.462-.107,2.194-.154l-.12.006.218-.012.118-.008-.082.006c2.176-.12,4.346-.278,6.508-.553,2.281-.285,4.547-.644,6.808-1.027a1.25,1.25,0,0,0-.48-2.453Zm-31.186,5.808c-.093.007-.185.013-.279.016l.279-.016Zm18.314-1.773-.1.006.134-.008-.036,0Zm-18.18-.712h0l.079-.006-.08.006Z"/>
    <path class="a" d="M84.819,149.1c-1.332.1-2.664.227-4,.352-1.208.113-2.407.289-3.614.406-.644.059-1.293.125-1.937.2-.555.063-1.11.157-1.664.227q-2.191.282-4.391.543a1.257,1.257,0,0,0-.988,1.469,1.27,1.27,0,0,0,.531.8,1.3,1.3,0,0,0,.938.187q2.156-.258,4.312-.531c1.227-.16,2.449-.324,3.684-.438,1.175-.113,2.343-.289,3.519-.4,1.363-.129,2.727-.254,4.09-.359a1.2,1.2,0,0,0,.8-.528,1.266,1.266,0,0,0,.187-.937,1.244,1.244,0,0,0-.527-.8,1.191,1.191,0,0,0-.71-.2c-.075,0-.152,0-.231.01Z"/>
  </g>
</svg>
