<svg xmlns="http://www.w3.org/2000/svg" width="724.807" height="283.755" viewBox="0 0 724.807 283.755">
  <defs>
    <style>
      .a {
        fill: #fefefe;
      }
    </style>
  </defs>
  <g>
    <path class="a" d="M176.28,11.466c2.43.125,4.848.324,7.274.523,4.211.344,8.418.7,12.617,1.168,1.976.219,3.957.371,5.937.543,2.168.188,4.328.445,6.492.688,4.25.48,8.489.98,12.719,1.6q5.631.814,11.272,1.6c7.481.838,14.958,1.671,22.413,2.711,4.812.63,9.6,1.312,14.374,2.214q3.685.7,7.332,1.558c2.293.543,4.555,1.239,6.816,1.891q3.709,1.072,7.414,2.141c2.176.632,4.328,1.375,6.485,2.074,4.855,1.574,9.672,3.265,14.558,4.75,2.371.722,4.715,1.547,7.09,2.258,2.391.71,4.785,1.394,7.172,2.125,4.594,1.4,9.25,2.613,13.84,4.035,2.316.718,4.617,1.48,6.918,2.246,2.543.844,5.035,1.8,7.523,2.789,4.8,1.914,9.567,3.867,14.285,5.969,10.857,4.832,21.464,10.247,32.448,14.791,4.675,1.775,9.363,3.544,14.107,5.127,4.688,1.566,9.359,3.214,14.105,4.589,2.411.7,4.825,1.325,7.282,1.84,2.476.528,4.957,1.032,7.437,1.547,5.184,1.086,10.348,2.254,15.512,3.438,3.027.695,6.055,1.394,9.1,2,3.024.6,6.056,1.084,9.1,1.511a104.836,104.836,0,0,0,18.724.262c3.375-.222,6.742-.574,10.113-.875,3.172-.281,6.351-.519,9.516-.859l-.168.022c1.521-.194,3.043-.383,4.564-.577,2.549-.348,5.109-.7,7.67-.949,2.233-.222,4.473-.372,6.708-.606a23.67,23.67,0,0,1,3.085-.332,14.241,14.241,0,0,1,2.259.191,8.146,8.146,0,0,1,1.917.309,4.213,4.213,0,0,1,2.437,1.856,4,4,0,0,1-1.445,5.469,3.86,3.86,0,0,1-3.031.414,1.574,1.574,0,0,0-.188-.076c-.2-.021-.41-.048-.615-.078a13.94,13.94,0,0,0-2.191-.044c-2.236.327-4.487.521-6.741.7-2.278.187-4.547.466-6.814.738q-2.807.382-5.623.723l.44-.058c-4.99.625-10.008.983-15.018,1.445-2.543.238-5.086.465-7.633.633-2.442.164-4.9.184-7.352.219A88.775,88.775,0,0,1,473.5,96.583c-5.032-.777-10-1.824-14.961-2.969-4.746-1.094-9.492-2.2-14.262-3.191-2.488-.52-4.98-1.024-7.465-1.547-2.441-.516-4.91-.992-7.308-1.688-4.969-1.437-9.868-3.082-14.774-4.718-4.863-1.625-9.679-3.383-14.472-5.2-3.946-1.5-7.79-3.23-11.633-4.964-3.606-1.629-7.192-3.309-10.77-5-7.391-3.483-14.806-6.9-22.37-9.993-1.97-.8-3.94-1.628-5.931-2.367-2.449-.906-4.918-1.734-7.394-2.551-4.566-1.507-9.191-2.832-13.816-4.148-2.356-.672-4.7-1.387-7.04-2.086s-4.7-1.367-7.035-2.117c-2.289-.738-4.59-1.43-6.882-2.164-2.368-.758-4.708-1.6-7.071-2.367-3.683-1.2-7.363-2.411-11.058-3.567-3.332-1.043-6.707-1.953-10.063-2.91-3.656-1.043-7.328-1.9-11.055-2.637-3.563-.705-7.142-1.263-10.732-1.79-2.956-.386-5.909-.788-8.862-1.185-2.661-.341-5.328-.625-8-.939-3.122-.371-6.258-.652-9.372-1.078-5.607-.771-11.2-1.616-16.81-2.368-4.984-.57-9.966-1.139-14.967-1.569-2.273-.2-4.535-.481-6.805-.7-2.664-.257-5.328-.476-8-.7-4.824-.394-9.621-.758-14.464-.723-2.524.016-5.032.1-7.547.231-2.4.125-4.793.535-7.192.73-2.883.239-5.765.5-8.644.793-3.016.313-6.035.676-9.059.907-5.517.424-11.027.877-16.516,1.56-4.395.6-8.746,1.4-13.1,2.244-4.313.832-8.641,1.6-12.957,2.4-4.25.789-8.5,1.558-12.727,2.476q-6.913,1.5-13.832,2.992a4,4,0,0,1-2.047-7.738q7.612-1.646,15.223-3.293C86.151,21.7,90.6,20.946,95.03,20.13q7.383-1.359,14.758-2.774c5.008-.965,10.062-1.664,15.129-2.222,4.848-.532,9.711-.828,14.562-1.285,4.918-.461,9.828-1.032,14.754-1.438,2.559-.211,5.11-.508,7.668-.758,2.317-.23,4.672-.277,7-.293q1.046-.007,2.092-.009c1.763,0,3.526.025,5.287.115ZM121.067,23.587l-.556.07.556-.07Zm418.518,69.75.234.03a1.826,1.826,0,0,0-.234-.03Z"/>
    <path class="a" d="M544.772,89.74A4.019,4.019,0,0,1,547.21,91.6a4.211,4.211,0,0,1,.41,3.035c-.4,2.161-.789,4.325-1.219,6.481-.406,2.051-.883,4.082-1.266,6.137-.328,1.773-.55,3.566-.886,5.34a23.376,23.376,0,0,1-.676,2.832c-.34,1.023-.707,2.031-1.055,3.05-.617,1.825-1.125,3.692-1.691,5.532-.547,1.789-1.1,3.582-1.66,5.367-.594,1.9-1.129,3.812-1.664,5.726a46.282,46.282,0,0,0-1.183,5.151c-.188,1.914-.32,3.817-.407,5.736-.094,2.1-.129,4.2-.211,6.305-.156,4.086-.321,8.168-.449,12.254-.125,4.043-.2,8.093-.176,12.136.015,2.141-.055,4.27.039,6.407.082,1.871.207,3.742.3,5.613.211,4.23.523,8.453.488,12.691-.016,2.082-.234,4.16-.391,6.231-.144,2-.261,3.992-.375,5.988a115.977,115.977,0,0,0,.235,12.168c.1,2.117.175,4.234.121,6.355s-.219,4.235-.27,6.356c-.078,3.32-.148,6.672.039,9.992.086,1.492.262,2.992.414,4.481.172,1.625.309,3.25.516,4.871-.011-.08-.022-.159-.032-.239.194,1.6.329,3.2.423,4.817.089,1.5-.2,3.027-.092,4.525.037.282.072.564.1.846a4.643,4.643,0,0,1-.675,2.406,4,4,0,0,1-7.383-2.859c-.022-.191-.043-.383-.063-.574a8.393,8.393,0,0,1,.055-1.434c.043-.691.066-1.383.074-2.074a44.194,44.194,0,0,0-.291-4.529c-.231-1.922-.4-3.846-.635-5.768-.113-.945-.187-1.9-.269-2.848-.078-.926-.188-1.855-.207-2.785-.074-4.258-.078-8.539.179-12.793.25-4.148-.027-8.262-.171-12.406-.075-2.094-.149-4.192-.121-6.285.023-2.028.167-4.043.281-6.067.109-1.968.32-3.933.422-5.9.109-2.109.14-4.2.07-6.316-.133-4.094-.356-8.2-.621-12.286-.274-4.164-.129-8.316-.121-12.484,0-3.937.109-7.867.222-11.805.118-4.175.4-8.347.485-12.523a60.605,60.605,0,0,1,1.293-12.992c.922-3.789,2.109-7.52,3.269-11.239.559-1.789,1.129-3.578,1.653-5.378.277-.965.574-1.918.9-2.872s.719-1.9.984-2.882c.872-3.215,1.227-6.547,1.84-9.817.313-1.644.719-3.269,1.043-4.914.383-1.918.723-3.844,1.078-5.765a3.942,3.942,0,0,1,3.933-2.968,3.763,3.763,0,0,1,.954.12Z"/>
    <path class="a" d="M143.71,190.245c2.211.133,4.421.238,6.629.43,4.972.433,9.945.847,14.91,1.355,4.465.461,8.937.836,13.4,1.332,5.031.563,10.059,1.16,15.094,1.7,4.644.5,9.312.77,13.945,1.356q7.653.966,15.176,2.6c4.777,1.039,9.477,2.407,14.137,3.871,4.644,1.461,9.316,2.832,13.965,4.278,2.945.918,5.875,1.886,8.812,2.832,2.809.9,5.559,1.957,8.3,3.039q4.23,1.669,8.5,3.242c2.883,1.056,5.708,2.237,8.548,3.4,6.567,2.645,13.245,5,19.819,7.614,3.434,1.363,6.777,2.949,10.1,4.57,1.57.766,3.105,1.606,4.675,2.379,1.311.642,2.652,1.221,4,1.787,2.711,1.054,5.439,2.069,8.15,3.119q4.815,1.867,9.58,3.84c2.042.821,4.081,1.647,6.127,2.453,2.176.86,4.383,1.621,6.582,2.406,4.594,1.637,9.246,3.11,13.914,4.532s9.262,3.031,13.926,4.437c4.418,1.336,8.859,2.594,13.3,3.84,1.954.551,3.9,1.07,5.895,1.469,2.273.457,4.555.855,6.84,1.25,4,.695,7.93,1.758,11.918,2.512,3.887.73,7.808,1.2,11.707,1.835,2.078.34,4.14.743,6.223,1.047q3.309.48,6.623.937,1.749.224,3.5.455c3.171.362,6.349.712,9.543.784,1.824.043,3.648.008,5.472-.027,1.481-.028,2.961-.059,4.442-.047,3.281.023,6.562.164,9.843.129a79.181,79.181,0,0,0,8.8-.7c3.544-.507,7.073-1.116,10.628-1.528,1.66-.191,3.324-.273,4.992-.359s3.332-.3,4.981-.5c1.863-.238,3.726-.316,5.6-.437,1.516-.1,3.055-.137,4.575-.114,1.8.028,3.589.164,5.382.239,1.973.082,3.946.164,5.922.23a4,4,0,0,1-.015,8c-2.922-.106-5.852-.207-8.774-.375a66.509,66.509,0,0,0-7.949.07c-1.312.086-2.633.114-3.941.278-1.454.187-2.907.351-4.368.484-1.3.121-2.6.187-3.91.25-1.107.054-2.212.194-3.314.328-4.154.578-8.28,1.335-12.451,1.754a96.53,96.53,0,0,1-12.485.3c-1.972-.055-3.945-.059-5.918-.047-2.133.008-4.265.117-6.4.09a105.145,105.145,0,0,1-12.885-1.086c-4.856-.625-9.719-1.259-14.537-2.129-4.336-.785-8.715-1.281-13.051-2.07-2.179-.4-4.328-.918-6.484-1.414-2.25-.516-4.524-.942-6.8-1.336-2.414-.418-4.812-.868-7.211-1.36-2.242-.461-4.449-1.172-6.652-1.8-4.469-1.273-8.946-2.523-13.379-3.929-4.637-1.473-9.25-3-13.906-4.414-4.7-1.434-9.352-3.043-13.993-4.672-4.617-1.621-9.156-3.512-13.671-5.391l-1.107-.459c-2.547-1-5.088-2.027-7.643-3-2.965-1.129-5.954-2.179-8.86-3.457-2.75-1.207-5.379-2.64-8.078-3.957q-3.642-1.782-7.356-3.4c-3.846-1.517-7.73-2.927-11.593-4.4q-6.418-2.441-12.762-5.079c-4.254-1.7-8.57-3.238-12.832-4.905-2.433-.949-4.867-1.867-7.336-2.715-2.215-.762-4.461-1.449-6.691-2.16-4.7-1.5-9.426-2.934-14.145-4.375-2.328-.711-4.644-1.457-6.976-2.156-2.254-.676-4.547-1.246-6.832-1.817a157.072,157.072,0,0,0-15.743-3c-4.551-.555-9.124-.913-13.687-1.342-4.789-.454-9.566-1.075-14.344-1.61-9.457-1.058-18.941-1.906-28.418-2.734-3.832-.336-7.687-.59-11.531-.754-4.105-.176-8.227-.043-12.336.078q-6.27.193-12.519.754c-3.852.34-7.7.667-11.534,1.133-4.161.607-8.32,1.248-12.435,2.133-1.985.425-3.965.894-5.969,1.23-2.343.388-4.689.7-7.045.982a36.362,36.362,0,0,0-3.693.7,32.489,32.489,0,0,0-3.7,1.262c-1.2.461-2.461.781-3.684,1.176-1.5.48-2.973,1.055-4.457,1.6a3.852,3.852,0,0,1-2.988-.383,4,4,0,0,1-1.516-5.453,4.248,4.248,0,0,1,2.461-1.9c1.637-.6,3.262-1.218,4.922-1.75,1.543-.5,3.07-.98,4.59-1.543a43.243,43.243,0,0,1,9.994-1.94c2.2-.352,4.393-.731,6.576-1.181,2.332-.48,4.645-1.008,6.988-1.426,4.75-.839,9.539-1.566,14.344-2.019,4.777-.445,9.559-.848,14.348-1.16,4.918-.321,9.871-.36,14.8-.391h.258c2.051,0,4.108.174,6.156.3Zm141.626,29.524.69.281-.69-.281Z"/>
    <path class="a" d="M412.237,26.771a10.7,10.7,0,0,1,1.477,1.018c1.122.8,2.283,1.542,3.39,2.371.573.4,1.165.765,1.774,1.119.843.492,1.6,1.109,2.441,1.605.781.465,1.57.918,2.348,1.4.9.55,1.758,1.183,2.629,1.785a51.276,51.276,0,0,0,4.968,3.09c1.879,1.007,3.77,1.972,5.688,2.91,1.707.84,3.484,1.582,5.242,2.312,1.8.754,3.606,1.5,5.406,2.258,3.649,1.531,7.246,3.184,10.891,4.727,4.383,1.854,8.7,3.846,13.1,5.664,1.99.727,4,1.416,6,2.117,1.812.637,3.679,1.113,5.523,1.648,3.879,1.125,7.731,2.321,11.539,3.668A103.59,103.59,0,0,0,505.94,68c1.989.461,3.985.879,5.969,1.364,1.762.429,3.52.9,5.277,1.359,4.071,1.055,8.172,1.973,12.223,3.1a39.979,39.979,0,0,1,7.242,2.961c2.262,1.14,4.508,2.308,6.778,3.437a4,4,0,0,1-.95,7.352,4.144,4.144,0,0,1-2.988-.383c-3.267-1.632-6.471-3.434-9.828-4.877-3.705-1.258-7.518-2.1-11.305-3.057-3.554-.9-7.1-1.859-10.676-2.668-2.011-.457-4.019-.906-6.015-1.429-2.02-.528-3.988-1.176-5.957-1.86-3.77-1.308-7.528-2.625-11.34-3.808-1.805-.559-3.633-1.067-5.453-1.571-1.965-.539-3.883-1.222-5.8-1.886-2.277-.793-4.516-1.649-6.746-2.563-1.9-.777-3.777-1.625-5.652-2.465-3.594-1.609-7.25-3.074-10.828-4.711-3.469-1.586-7.008-3.015-10.528-4.488-2.437-1.016-4.879-2.051-7.25-3.215-2.387-1.172-4.816-2.355-7.078-3.761-2.223-1.383-4.285-3-6.551-4.325-.582-.343-1.168-.687-1.738-1.054s-1.09-.77-1.664-1.118c-1.03-.626-2-1.268-2.956-1.986-.271-.19-.546-.37-.822-.551-.212.97-.457,1.922-.632,2.9-.109,1.23-.119,2.465-.129,3.7-.012,1.48-.121,2.957-.109,4.441.015,1.34.062,2.692.148,4.032.072,1.1.106,2.2.208,3.3.295,1.715.676,3.433.8,5.168.129,1.832.027,3.664.1,5.5a41.187,41.187,0,0,1-.015,4.969c-.051.656-.156,1.3-.16,1.965,0,.453.007.9.031,1.356a9.591,9.591,0,0,1-.207,2.045q-.027.307-.047.615a4.216,4.216,0,0,1-1.141,2.793,4,4,0,0,1-6.863-2.805c.052-.759.134-1.518.254-2.27.019-.58-.034-1.166-.031-1.75a13.851,13.851,0,0,1,.105-1.39,31.175,31.175,0,0,0,.141-3.363c0-1.305-.094-2.6-.07-3.907.018-1.21-.008-2.427-.088-3.634-.167-1.064-.36-2.121-.534-3.182a42.2,42.2,0,0,1-.445-4.852q-.093-1.915-.156-3.836c-.055-1.566.012-3.121.078-4.687.059-1.52-.012-3.039.164-4.555a22.191,22.191,0,0,1,.43-2.769c.148-.606.308-1.207.437-1.817a25.687,25.687,0,0,1,1.016-3.726,6.4,6.4,0,0,1,1.387-2.473,5.035,5.035,0,0,1,3.359-1.52h.061a6.2,6.2,0,0,1,2.849.735Z"/>
    <path class="a" d="M475.351,6.253c2.082.016,4.16.043,6.238.16,2.344.133,4.672.481,7,.816,4.047.59,8.024,1.622,12.016,2.489,2.02.437,4.031.9,6.055,1.324,1.941.41,3.906.727,5.859,1.078,4.176.754,8.332,1.609,12.516,2.313,2.113.355,4.238.636,6.355.968,2.016.317,4.028.664,6.047.93,4.172.555,8.316,1.231,12.461,1.957,3.969.691,7.965,1.191,11.945,1.789,4.325.649,8.621,1.5,12.883,2.469,2,.453,4,.961,6,1.473,2.016.519,4.035,1.011,6.051,1.535,1.992.519,3.984,1.031,5.992,1.488,2.035.461,4.106.785,6.156,1.156,4.624.837,9.241,1.686,13.88,2.42,8.191,1.036,16.39,1.862,24.64,2.182,4.113.16,8.254-.051,12.363-.27,1.977-.105,3.957-.254,5.938-.316,2.168-.07,4.34-.117,6.508-.2,3.48-.122,6.953-.465,10.421-.727,3.164-.238,6.337-.467,9.49-.843A49.012,49.012,0,0,0,687.8,29.19c1.833-.539,3.616-1.184,5.391-1.885q2.976-1.282,5.887-2.708c1.058-.52,2.105-1.075,3.152-1.621.555-.289,1.109-.586,1.664-.883a8.5,8.5,0,0,1,4.133-1.442,5.477,5.477,0,0,1,1.488.207,4.03,4.03,0,0,1,1.778,1.008c.257.317.5.641.75.965a4.06,4.06,0,0,1,.406,3.191,5.92,5.92,0,0,1-1.289,2.207,4.669,4.669,0,0,1-.778.692c-.464.363-.929.726-1.41,1.07-.453.328-.929.629-1.4.934-1.871,1.212-3.8,2.3-5.605,3.605-1.62,1.357-3.058,2.9-4.61,4.336-1.781,1.649-3.5,3.375-5.18,5.121-.812.848-1.679,1.633-2.508,2.461-.906.9-1.8,1.813-2.7,2.715a70.163,70.163,0,0,1-6.652,5.578c.281-.219.566-.437.848-.656-1.688,1.355-3.368,2.727-5.075,4.059-1.789,1.391-3.617,2.731-5.424,4.1-3.263,2.555-6.516,5.123-9.9,7.513a84.322,84.322,0,0,1-10.945,6.781c-2,1-4.1,1.8-6.188,2.609-.953.368-1.953.637-2.925.934s-1.957.57-2.946.8c-2,.457-4.008.894-5.992,1.418a39.939,39.939,0,0,0-4.048,1.323c.622.532,1.222,1.086,1.849,1.614,1.426,1.2,2.824,2.426,4.211,3.668,3.027,2.711,5.871,5.625,8.765,8.473,2.965,2.918,6.079,5.641,9.254,8.328,2.759,2.333,5.545,4.616,8.418,6.8,3.163,2.225,6.311,4.49,9.532,6.634a71.144,71.144,0,0,0,9.615,5.548c2.4.867,4.844,1.578,7.271,2.377,1.364.446,2.727.9,4.1,1.328a29.588,29.588,0,0,0,3.782.884,81.166,81.166,0,0,0,9,.148c1.516-.024,3.043,0,4.555.113l.652.048c.639-.149,1.279-.284,1.93-.388a18.037,18.037,0,0,1,2.746-.269,4.922,4.922,0,0,1,4.164,2.351,4.232,4.232,0,0,1-.633,4.969,6.08,6.08,0,0,1-4.09,1.476,19.126,19.126,0,0,1-2.949-.062l-.477-.03c-.96.247-1.913.521-2.859.8-1.818.535-3.6,1.183-5.372,1.867-.047.019-.1.038-.143.055l-.067.026a3.966,3.966,0,0,1-.619.254l-.265.11c-3.6,1.54-7.06,3.449-10.487,5.332-3.8,2.086-7.559,4.242-11.316,6.406a117.07,117.07,0,0,1-10.579,5.825,102.09,102.09,0,0,1-12.7,4.656q-7.365,2.156-14.754,4.211c-2.343.652-4.7,1.265-7.082,1.758-2.76.565-5.544.942-8.343,1.268-1.956.257-3.912.526-5.871.778.343-.043.687-.089,1.031-.132-2.054.282-4.108.525-6.162.767-1.874.243-3.747.5-5.622.732-2.075.272-4.156.527-6.244.719-2.023.184-4.035.262-6.07.282-2.07.023-4.144-.168-6.2-.332s-4.109-.329-6.16-.559c-4.188-.473-8.383-.875-12.6-1.031-3.847-.141-7.668-.457-11.488-.918-1.512-.184-3.016-.4-4.52-.606-1.367-.191-2.7-.5-4.062-.715-.668-.109-1.336-.207-2-.351-.617-.133-1.223-.336-1.836-.492-1.488-.379-2.906-.973-4.41-1.313a4,4,0,1,1,2.043-7.734c2.476.558,4.812,1.6,7.336,2.008,1.25.2,2.488.461,3.738.683.979.177,1.975.291,2.964.425,3.558.43,7.111.789,10.692.938,4.07.172,8.121.45,12.172.887,4.281.465,8.57.922,12.875,1.078a80.748,80.748,0,0,0,11.69-.7q1.851-.24,3.7-.47c2.465-.35,4.933-.648,7.4-.937,1.192-.161,2.387-.314,3.582-.467,2.03-.293,4.066-.535,6.1-.791,2.934-.479,5.833-1.055,8.709-1.806,3.059-.8,6.086-1.707,9.125-2.57a177.932,177.932,0,0,0,17.7-5.633c1.709-.762,3.411-1.551,5.04-2.476,1.832-1.043,3.652-2.1,5.476-3.153,3.789-2.183,7.578-4.359,11.4-6.48,1.973-1.1,3.955-2.206,5.967-3.254-1.709-.441-3.382-1-5.061-1.551-2.071-.683-4.168-1.273-6.227-1.984-1.215-.418-2.426-.848-3.6-1.375-.985-.438-1.938-.934-2.887-1.438a101.885,101.885,0,0,1-10.457-6.671q-2.431-1.7-4.859-3.407c-1.8-1.265-3.536-2.609-5.266-3.961-3.371-2.636-6.629-5.433-9.844-8.254s-6.2-5.863-9.242-8.863q-4.2-4.137-8.715-7.945c-.746-.629-1.476-1.281-2.215-1.918a24.3,24.3,0,0,1-2.414-2.235,6.974,6.974,0,0,1-1.832-3.347c-.047-.344-.09-.688-.133-1.028a8.568,8.568,0,0,1,.2-1.335,4.994,4.994,0,0,1,1.164-2.067,7.659,7.659,0,0,1,1.461-1.066c.179-.09.367-.172.55-.254.469-.215.934-.426,1.407-.637a58.956,58.956,0,0,1,6.2-2.348c1.894-.6,3.848-1,5.781-1.441,1.7-.379,3.371-.82,5.035-1.328,1.545-.47,3.041-1.033,4.533-1.633,6.747-3.039,12.775-7.45,18.612-11.954,2.772-2.166,5.57-4.295,8.376-6.413,2.221-1.748,4.409-3.54,6.643-5.274-.281.219-.566.438-.847.657,1.226-.977,2.461-1.953,3.6-3.035,1.161-1.106,2.282-2.254,3.414-3.383s2.282-2.219,3.391-3.364l.133-.136q-.7.165-1.406.316a54.142,54.142,0,0,1-6.883.863c-2.067.168-4.125.348-6.192.516-3.992.316-8,.691-12,.785-8.363.192-16.7.985-25.07.66-4.328-.168-8.648-.543-12.957-.957-4.344-.414-8.707-.91-13.016-1.589-4.191-.657-8.363-1.446-12.542-2.2-2.122-.382-4.243-.761-6.356-1.187-1.941-.391-3.852-.926-5.766-1.422a241.291,241.291,0,0,0-25.031-5.527c-4.027-.606-8.058-1.176-12.086-1.813-2.074-.328-4.144-.719-6.219-1.058-2.027-.332-4.058-.61-6.089-.879-1.977-.262-3.946-.594-5.911-.9-2.113-.332-4.238-.609-6.347-.965-4.176-.7-8.328-1.55-12.5-2.3-2.168-.391-4.348-.746-6.5-1.2-2.281-.481-4.551-1-6.832-1.5-2.164-.468-4.317-1.019-6.492-1.441S486.7,15,484.516,14.68a98.915,98.915,0,0,0-13.145-.368c-4.11.11-8.173.614-12.248,1.1-3.566.494-7.132.993-10.713,1.384-3.316.364-6.657.471-9.979.821a69.778,69.778,0,0,0-12.516,3.237,31.242,31.242,0,0,0-2.837,1.43,37.053,37.053,0,0,0-3.184,2.219c-2.457,1.781-4.844,3.656-7.254,5.5a3.81,3.81,0,0,1-3.035.41,3.994,3.994,0,0,1-2.844-4.887c.125-.316.254-.632.383-.949a4,4,0,0,1,1.469-1.488c3.125-2.387,6.195-4.891,9.468-7.074a36.362,36.362,0,0,1,10.75-4.453c1.645-.454,3.305-.911,4.977-1.25a54.553,54.553,0,0,1,6.473-.872c3.694-.311,7.38-.556,11.063-.967,4-.528,7.986-1.111,11.991-1.572a98.467,98.467,0,0,1,11.2-.652q.405,0,.812,0ZM709.039,28.519c-.051.005-.1.012-.151.02l.151-.02ZM611.89,30.5l.37.047-.37-.047Z"/>
    <path class="a" d="M628.507,81.983c.935.763,1.848,1.534,2.741,2.353-.254-.235-.508-.465-.766-.7.719.656,1.512,1.23,2.25,1.859.805.691,1.606,1.383,2.43,2.051,1.02.832,2.035,1.668,3.043,2.519,1.282,1.088,2.468,2.282,3.689,3.441,2.112,1.869,4.378,3.553,6.463,5.458-.253-.231-.511-.465-.765-.7.2.183.4.367.605.551,3.939,3.541,8.7,6,12.844,9.265,2.266,1.785,4.555,3.57,6.891,5.269,1,.731,2.074,1.387,3.125,2.055,1.151.732,2.277,1.487,3.47,2.15.922.45,1.847.884,2.784,1.3,1.164.52,2.3,1.094,3.476,1.586a42.414,42.414,0,0,0,6.913,2.188c1.413.279,2.834.542,4.259.758,1.984.3,3.969.472,5.973.6,1.793.117,3.589.195,5.382.324,1.762.121,3.555.094,5.325.141,1.9.051,3.793.121,5.679.355a44.9,44.9,0,0,1,5.3.825,7.563,7.563,0,0,1,1.41.531,6.641,6.641,0,0,1,2.672,1.879,4.68,4.68,0,0,1,1.039,2.316,4.5,4.5,0,0,1,.028,1.289,4.7,4.7,0,0,1-.75,2.121,5.654,5.654,0,0,1-.649.934,16.134,16.134,0,0,1-4.3,3.394q.272-.173.541-.347a35.746,35.746,0,0,1-4.72,2.574c-1.649.734-3.278,1.469-4.86,2.336-3.234,1.766-6.551,3.309-9.9,4.848-3.481,1.6-6.969,3.179-10.477,4.711-1.812.793-3.64,1.55-5.453,2.347-.859.375-1.742.692-2.621,1.02-.988.371-1.953.793-2.922,1.207-1.027.441-2.074.832-3.094,1.281-.933.414-1.863.844-2.8,1.254-2.2.965-4.441,1.762-6.7,2.574-1.1.4-2.207.785-3.3,1.195-1.079.407-2.129.891-3.211,1.29-2.571.953-5.188,1.8-7.8,2.644l.591-.2a53.031,53.031,0,0,1-5.79,1.555c-1.6.325-3.211.614-4.825.891-1.793.309-3.605.5-5.394.844-1.723.332-3.4.82-5.082,1.316s-3.364,1.016-5.082,1.422a46.461,46.461,0,0,1-5.239.844c-1.707.2-3.441.3-5.152.418-2.262.16-4.523.226-6.785.332-.5.023-.988.045-1.481.069-2.065.157-4.114.388-6.187.388-1.664,0-3.324-.086-4.988-.1-1.6-.011-3.2.043-4.8.094-1.574.051-3.152.1-4.73.09-3.793-.024-7.579-.231-11.368-.242-1.054,0-2.113.027-3.172.05a57.021,57.021,0,0,1-6.39-.078c-2.336-.2-4.68-.461-6.985-.886q-4.312-.792-8.593-1.711l.41.086a70.041,70.041,0,0,1-9.313-2.465c-1.64-.59-3.285-1.18-4.894-1.848a44.843,44.843,0,0,1-5.77-3.062,4,4,0,0,1,1.543-7.207,4.182,4.182,0,0,1,3.039.648c.853.509,1.7,1.014,2.571,1.49a67.971,67.971,0,0,0,7,2.725c1.074.375,2.187.641,3.281.953s2.217.587,3.338.832q1.033.213,2.065.437c1.553.31,3.112.583,4.663.9a48.828,48.828,0,0,0,4.93.777c1.543.157,3.074.348,4.625.438,1.606.094,3.2.031,4.809.015,1.672-.019,3.336-.093,5.008-.054,1.753.035,3.5.117,5.253.168,3.5.093,7,.051,10.5-.051,1.676-.047,3.34-.082,5.016-.059,1.738.023,3.461.091,5.2.043,1.753-.125,3.5-.318,5.259-.382,1.661-.061,3.326-.131,4.985-.216a85.755,85.755,0,0,0,8.863-.925c1.461-.254,2.886-.574,4.32-.957,1.531-.41,3.035-.93,4.563-1.36a45.615,45.615,0,0,1,4.539-1.019c1.511-.258,3.039-.426,4.554-.684a72.122,72.122,0,0,0,9.039-2l-.084.028c.4-.13.8-.26,1.2-.387,1.673-.556,3.352-1.1,5-1.715,1.789-.664,3.543-1.422,5.339-2.078,1.735-.633,3.489-1.207,5.219-1.856,1.621-.6,3.2-1.332,4.781-2.05,3.387-1.543,6.891-2.809,10.321-4.254,3.508-1.477,6.965-3.074,10.461-4.586,2.043-.887,4.054-1.848,6.082-2.77,2.078-.945,4.16-1.9,6.179-2.961,1.907-1,3.77-2.074,5.739-2.953.844-.377,1.684-.746,2.512-1.139h-.016c-1.867-.188-3.762-.153-5.641-.246-1.785-.09-3.57-.059-5.359-.168-1.836-.11-3.672-.235-5.508-.348a52.336,52.336,0,0,1-5.73-.695c-1.9-.321-3.809-.684-5.684-1.125a40.259,40.259,0,0,1-5.207-1.59c-1.645-.633-3.211-1.418-4.816-2.137-1.551-.7-3.083-1.43-4.583-2.23s-2.886-1.778-4.3-2.7c-2.688-1.742-5.2-3.718-7.731-5.679-1.179-.911-2.351-1.836-3.55-2.723-1.3-.961-2.7-1.8-4.047-2.691-1.235-.817-2.446-1.664-3.653-2.524a41.756,41.756,0,0,1-3.736-3.08c.139.127.278.253.416.381q-.326-.291-.646-.587c-1.323-1.176-2.755-2.235-4.112-3.366-1.567-1.3-3.008-2.736-4.486-4.129-2.993-2.607-6.169-5-9.1-7.672.254.234.508.465.766.7-1.008-.879-2.153-1.668-3.071-2.636a4.02,4.02,0,0,1,.481-5.637,3.835,3.835,0,0,1,2.5-.924,4.319,4.319,0,0,1,2.883,1.153Zm19.8,16.935.62.566c-.206-.19-.412-.377-.62-.566Zm-6.353,4.945q.219.2.44.4l-.44-.4Z"/>
    <path class="a" d="M704.914,133.768a4.04,4.04,0,0,1-.476,5.64,16.709,16.709,0,0,1-2.41,1.481c-.629.351-1.266.695-1.914,1-1.375.66-2.747,1.336-4.145,1.945-2.785,1.211-5.5,2.6-8.277,3.824-2.813,1.242-5.575,2.621-8.442,3.746-1.449.567-2.89,1.16-4.344,1.711-1.615.613-3.237,1.175-4.885,1.687-1.393.48-2.779,1-4.126,1.595-1.684.742-3.434,1.347-5.16,1.984-3.774,1.383-7.59,2.629-11.422,3.84-1.614.508-3.258.867-4.891,1.3-1.715.453-3.43.89-5.156,1.3-2,.469-4,.9-6.02,1.246-1.656.282-3.32.551-4.965.907-4.281.929-8.535,2.027-12.875,2.656-4.171.6-8.376,1.067-12.585,1.312l.621-.035c-3.9.243-7.8.559-11.711.524-3.321-.035-6.633-.149-9.953-.028-3.45.125-6.942.215-10.387.012-1.711-.1-3.422-.277-5.129-.43-1.887-.164-3.773-.343-5.652-.6-2.036-.274-4.063-.621-6.082-1-2.442-.461-4.883-.891-7.305-1.441-1.93-.442-3.852-.961-5.754-1.5a25.537,25.537,0,0,1-4.921-2.1c-.65-.3-1.343-.508-2.017-.744q-1.7-.6-3.41-1.188a4,4,0,0,1,2.676-7.539q1.976.686,3.938,1.371c.449.16.91.3,1.347.492.527.232,1.036.509,1.546.785a24.44,24.44,0,0,0,4.532,1.649c1.876.485,3.733,1.015,5.626,1.425,3.246.665,6.521,1.26,9.8,1.727,3.571.508,7.188.809,10.785,1.071,1.723.125,3.442.121,5.168.129s3.442-.008,5.157-.075c3.343-.129,6.675-.074,10.019-.007,2.011.036,4.021-.018,6.029-.113,1.936-.125,3.87-.265,5.811-.372l-1.035.059c1.515-.09,3.012-.274,4.523-.426,1.7-.168,3.4-.309,5.09-.555,3.524-.519,6.992-1.179,10.457-2,1.574-.367,3.156-.695,4.735-1.039,1.691-.367,3.418-.6,5.125-.91,3.714-.66,7.378-1.6,11.027-2.57,1.344-.356,2.7-.653,4.035-1.059,1.133-.344,2.261-.7,3.387-1.065,3.054-1.031,6.109-2.077,9.113-3.243,1.555-.606,3.086-1.254,4.637-1.86s3.152-1.1,4.742-1.607c1.186-.422,2.364-.881,3.531-1.362,1.3-.539,2.637-1.015,3.942-1.562,2.671-1.121,5.273-2.41,7.937-3.559,2.609-1.125,5.125-2.457,7.734-3.586a66.851,66.851,0,0,0,6.779-3.35,4.111,4.111,0,0,1,2.565-.9,3.944,3.944,0,0,1,3.039,1.4Z"/>
    <path class="a" d="M464.883.006c1.817.024,3.625.2,5.434.305,2.051.125,4.105.129,6.156.274,2.695.2,5.391.4,8.07.714,2.528.3,5.047.637,7.575.954,2.511.312,5.031.562,7.539.918,2.906.41,5.8,1.009,8.666,1.631,6.3,1.268,12.669,2.094,18.951,3.431l-1.051-.223c1.207.25,2.422.469,3.625.743.4.091.806.182,1.21.269.114.019.229.041.344.066a3.907,3.907,0,0,1,.531.118c.111.025.225.05.341.074.594.125,1.184.269,1.777.406,2.1.485,4.207.942,6.3,1.469,2.029.512,4.05,1.054,6.09,1.508q1.389.294,2.776.6c1.665.343,3.327.694,4.99,1.041l-.54-.11c2.232.478,4.447,1.022,6.676,1.511q2.094.423,4.184.869l-1.047-.223c.882.183,1.764.365,2.646.555,1.972.408,3.948.788,5.9,1.281,1.791.452,3.583.936,5.388,1.347,3.453.676,6.932,1.274,10.4,1.837,1.82.293,3.641.594,5.465.867s3.621.672,5.437.977c3.387.57,6.8,1.046,10.2,1.453,3.1.371,6.184.746,9.293,1,3.141.25,6.286.433,9.426.683,1.778.141,3.559.215,5.34.262.977.023,1.949.035,2.926.082,1.105.047,2.211.164,3.32.188,1.922.039,3.844,0,5.766-.016,1.734-.016,3.472.086,5.2.156,3.816.156,7.633.242,11.441.465,1.947.115,3.866.222,5.81.154,2.838-.211,5.663-.575,8.475-.99,1.391-.2,2.766-.5,4.145-.754A36.821,36.821,0,0,0,683.974,25c1.419-.477,2.827-.984,4.25-1.453,1.07-.341,2.146-.656,3.22-.985,2.488-.886,4.832-2.1,7.3-3.033a31.242,31.242,0,0,1,4.965-1.32c.613-.121,1.226-.227,1.847-.3a11.966,11.966,0,0,1,3-.051c2.266.332,4.723,1.578,5.586,3.84a7.21,7.21,0,0,1,.559,2.836,5.512,5.512,0,0,1-.578,2.211,18.514,18.514,0,0,1-2.032,3.7c-.9,1.238-1.89,2.418-2.812,3.637a29.242,29.242,0,0,1-2.828,3.246c-.977.961-2.02,1.859-3.008,2.8-2.16,2.067-4.418,4.028-6.516,6.157-1.093,1.109-2.183,2.21-3.359,3.234-1.07.934-2.18,1.82-3.266,2.734-1.125.942-2.234,1.907-3.386,2.813a46.488,46.488,0,0,1-3.9,2.645,36.19,36.19,0,0,0-3.863,2.949c-1.316,1.175-2.625,2.332-4,3.437-1.195.961-2.508,1.789-3.781,2.645-1.469.983-2.968,1.91-4.464,2.85-3.955,2.5-8.181,4.554-12.187,6.976-2.174,1.419-4.308,2.893-6.541,4.224a28.718,28.718,0,0,1-3.636,1.692c-1.078.449-2.149.933-3.231,1.371-2.34.949-4.586,2.039-7,2.805a15.36,15.36,0,0,1-4.133.769,17.789,17.789,0,0,1-3.937-.4,4.3,4.3,0,0,1-2.77-1.411A4,4,0,0,1,623.95,80a3.828,3.828,0,0,1,2.867-.934,20.207,20.207,0,0,0,3.347.406,14.784,14.784,0,0,0,2.106-.489c2.285-.808,4.5-1.841,6.719-2.811,1.281-.559,2.578-1.082,3.859-1.645a30.077,30.077,0,0,0,3.719-2.058c1.237-.817,2.456-1.663,3.7-2.465,1.453-.938,2.945-1.785,4.457-2.625,1.328-.739,2.645-1.5,3.973-2.239,1.424-.789,2.875-1.541,4.247-2.421.849-.542,1.706-1.075,2.56-1.616a63.167,63.167,0,0,0,6.728-4.943c1.152-1.008,2.234-2.082,3.445-3.02,1.253-.974,2.6-1.82,3.935-2.67a32.644,32.644,0,0,0,2.71-1.97c1-.821,1.984-1.653,2.972-2.485,1.895-1.589,3.817-3.129,5.551-4.9,1.8-1.832,3.676-3.555,5.547-5.309q1.383-1.3,2.754-2.609c.709-.676,1.466-1.3,2.157-2,.4-.457.8-.915,1.171-1.387.563-.707,1.082-1.449,1.648-2.156.432-.537.867-1.073,1.275-1.627-.238.047-.476.1-.712.15-.847.19-1.692.355-2.528.587q-.959.349-1.89.769c-.863.387-1.711.824-2.594,1.16-1.008.383-2,.828-3.023,1.176-1.276.434-2.572.782-3.857,1.186l-.373.122c-1.962.674-3.91,1.434-5.915,1.961-1.871.489-3.808.774-5.707,1.133-2.051.391-4.136.66-6.211.867-2.281.227-4.55.461-6.847.52-2.047.055-4.11-.16-6.153-.281-1.914-.114-3.828-.153-5.742-.207-3.672-.106-7.328-.356-11-.3-1.894.027-3.812.054-5.7-.082-2.016-.149-4.031-.168-6.047-.231-3.289-.109-6.562-.472-9.844-.672q-4.7-.286-9.394-.793c-3.231-.343-6.442-.847-9.66-1.273-2.8-.367-5.555-.938-8.336-1.406-2.961-.5-5.938-.9-8.891-1.442-2.855-.523-5.719-.98-8.566-1.543-1.8-.355-3.563-.839-5.34-1.273-1.452-.355-2.9-.705-4.354-1.036-1.119-.23-2.239-.454-3.357-.7q-1.043-.216-2.085-.437c-2.866-.589-5.708-1.27-8.563-1.893q-1.467-.306-2.929-.629-1.986-.414-3.973-.834l-.21-.044-.467-.1.2.043c-1.908-.415-3.793-.892-5.7-1.352-1.992-.48-3.992-.937-5.984-1.433-.914-.227-1.836-.418-2.754-.629l-.8-.184a3.86,3.86,0,0,1-.983-.211l-.018-.006-.627-.134c-.406-.084-.809-.176-1.212-.269-.767-.156-1.533-.309-2.3-.466l.092.02c-6.266-1.229-12.6-2.087-18.851-3.406-3.327-.682-6.646-1.272-10.02-1.668-3.234-.379-6.465-.789-9.7-1.207-3.344-.43-6.7-.746-10.067-.985-2.054-.144-4.105-.191-6.164-.281-1.836-.078-3.668-.25-5.508-.32-.91-.035-1.824-.012-2.742.007-.691.016-1.383.036-2.074.024-1.454-.017-2.9-.01-4.347.053-1.513.121-3.026.3-4.532.478-1.668.2-3.312.559-4.965.84-1.468.246-2.925.5-4.375.863s-2.934.6-4.369,1.016c-.89.312-1.768.656-2.67.941-1.011.325-2.023.637-3.051.922-1.85.516-3.722.948-5.561,1.5a23.457,23.457,0,0,0-3.884,1.906c-1.154.81-2.224,1.722-3.336,2.588a35.2,35.2,0,0,1-3.59,2.361q-.191.144-.371.3c-.56.739-1.028,1.553-1.562,2.311-.634.894-1.273,1.745-1.816,2.691-.787,1.662-1.434,3.382-2.067,5.106-.569,1.541-1.18,3.083-1.615,4.669-.095.614-.156,1.229-.209,1.85a22.557,22.557,0,0,1-.467,2.786c-.357,1.88-.624,3.769-1.025,5.644q.111-.522.222-1.051a32.945,32.945,0,0,0-.535,3.8,26.313,26.313,0,0,0-.022,2.973c.142,1.38.362,2.752.557,4.121a31.042,31.042,0,0,1,.172,4.344c.008,1.1-.058,2.2-.066,3.3-.007.839.024,1.686.062,2.525l.014.218.014.027a3.881,3.881,0,0,1,.156,3.059,4.274,4.274,0,0,1-.606,1.14c-.234.258-.465.512-.7.766a4.113,4.113,0,0,1-3.984.726,4.232,4.232,0,0,1-1.774-1.246c-1.042-1.038-.964-2.531-1.024-3.876-.089-1.494-.146-2.993-.136-4.491.007-1.539.1-3.078.066-4.618-.244-2.245-.686-4.444-.734-6.718a30.468,30.468,0,0,1,.078-3.523,33.428,33.428,0,0,1,.585-3.6l-.007.032c.37-1.818.612-3.654.988-5.472l-.132.621a33.011,33.011,0,0,0,.426-3.282,18.453,18.453,0,0,1,1.039-4.316c.781-2.176,1.551-4.355,2.429-6.5a29.745,29.745,0,0,1,2.063-4.188c.625-1.039,1.406-1.976,2.094-2.972.3-.434.558-.887.855-1.32a9.474,9.474,0,0,1,1.676-1.817,18.338,18.338,0,0,1,2.806-1.783c1.4-1,2.675-2.161,4.081-3.147a27.2,27.2,0,0,1,5.558-3.066,49.023,49.023,0,0,1,5.7-1.687c1.572-.409,3.131-.848,4.68-1.333A47.3,47.3,0,0,1,437.34,3.03c.825-.195,1.657-.348,2.485-.535s1.664-.41,2.508-.571c1.648-.3,3.3-.566,4.957-.871,1.761-.324,3.539-.472,5.312-.691a53.691,53.691,0,0,1,6.586-.328c.8,0,1.6-.008,2.4-.016.768-.008,1.537-.018,2.3-.018q.5,0,.989.006ZM399.577,66.7l-.006,0-.016.032.022-.035ZM687.653,23.733l.4-.13-.4.13Zm.571-.185-.172.055.573-.186-.4.131Z"/>
    <path class="a" d="M414.268,22.208a4.316,4.316,0,0,1,2.273,2.051q.183.291.365.582a14.005,14.005,0,0,0,1.4,1.752,36.666,36.666,0,0,0,3.451,2.471c1.73,1.113,3.5,2.18,5.32,3.133-.316-.164-.637-.328-.953-.489,2.539,1.289,5.035,2.661,7.508,4.071,2.371,1.355,4.8,2.6,7.168,3.976,2.285,1.328,4.539,2.707,6.789,4.094,2.306,1.427,4.722,2.667,7.126,3.925,3.3,1.669,6.658,3.187,10.108,4.536,3.539,1.383,6.945,3.09,10.465,4.531,3.6,1.473,7.273,2.781,10.941,4.094s7.348,2.617,11.024,3.922q5.173,1.833,10.344,3.672c1.656.586,3.3,1.2,4.976,1.738,1.891.609,3.813,1.117,5.7,1.719,3.461,1.1,6.879,2.316,10.3,3.523.836.3,1.668.6,2.516.863.972.3,1.972.524,2.949.805a47.5,47.5,0,0,1,5.641,1.887,20.04,20.04,0,0,1,4.343,2.469,14.494,14.494,0,0,1,1.762,1.617,11.422,11.422,0,0,1,.766.906,11.149,11.149,0,0,1,1.113,1.793c.152.309.277.625.43.93a5.379,5.379,0,0,1,.55,3.164,13.747,13.747,0,0,1-.453,1.945,3.993,3.993,0,0,1-7.619-2.381c-.053-.11-.108-.219-.164-.326a11.175,11.175,0,0,0-.992-1.1,13.368,13.368,0,0,0-1.644-1.124,43.309,43.309,0,0,0-5.132-1.854c-1.894-.582-3.828-1.02-5.695-1.68-3.347-1.183-6.7-2.375-10.066-3.484-1.828-.6-3.676-1.149-5.524-1.691-1.777-.52-3.511-1.141-5.254-1.758q-5.18-1.841-10.363-3.676c-7.246-2.57-14.527-5.059-21.7-7.852-1.813-.711-3.594-1.492-5.363-2.3-1.743-.8-3.52-1.528-5.278-2.289-1.855-.809-3.769-1.485-5.625-2.3-1.668-.735-3.3-1.555-4.937-2.356-1.512-.738-2.981-1.551-4.473-2.32-1.375-.711-2.75-1.434-4.09-2.207-2.351-1.352-4.605-2.867-6.953-4.223-2.422-1.4-4.887-2.711-7.324-4.082-2.332-1.308-4.649-2.64-7.02-3.879l.6.3a75.907,75.907,0,0,1-7.979-4.734,25.957,25.957,0,0,1-3.3-2.7,20.505,20.505,0,0,1-2.985-4.175,3.834,3.834,0,0,1-.156-3.055,4.006,4.006,0,0,1,5.106-2.434Z"/>
    <path class="a" d="M544.256,81.405a11.557,11.557,0,0,1,1.121.395,8.717,8.717,0,0,1,2.141,1.035,11.045,11.045,0,0,1,1.246,1.023,13.862,13.862,0,0,1,1.059,1.324,10.935,10.935,0,0,1,1.265,2.551,13.274,13.274,0,0,1,.836,4.59c.012.484-.043.973-.039,1.461.008.559.055,1.117.086,1.676.074,1.328.059,2.664.063,3.992a64.114,64.114,0,0,1-.692,8.314c-.11.988-.21,1.98-.387,2.959-.182,1.025-.361,2.053-.5,3.085-.012.14-.029.28-.048.424-.006.06-.014.119-.024.179-.016.115-.032.232-.048.352-.2,1.667-.416,3.348-.718,5-.27,1.461-.653,2.906-.93,4.367-.274,1.437-.426,2.887-.656,4.328-.231,1.423-.522,2.827-.71,4.257-.148,1.19-.312,2.378-.469,3.567-.192,1.676-.344,3.354-.63,5.016-.289,1.7-.668,3.359-1.082,5.035a92.546,92.546,0,0,0-1.987,9.955q-.228,1.976-.493,3.947l.128-1.066c-.231,1.917-.487,3.832-.727,5.749-.034.3-.069.608-.1.911-.023.215-.043.429-.064.642-.008.133-.023.265-.044.4-.02.159-.043.317-.073.473q-.037.31-.08.618c-.051.358-.1.717-.15,1.072-.2,1.674-.373,3.348-.588,5.022-.188,1.666-.358,3.33-.407,5.011-.055,1.989-.2,3.961-.383,5.942-.355,3.957-.492,7.926-.781,11.883-.285,3.871-.262,7.757-.4,11.632-.133,3.774-.356,7.539-.5,11.313-.137,3.531-.078,7.074,0,10.609.074,3.379.457,6.75.832,10.106.191,1.719.3,3.445.476,5.164s.414,3.426.637,5.14c.188,1.465.242,2.946.43,4.411s.338,2.96.51,4.439a4.113,4.113,0,0,1,.086.675,23.147,23.147,0,0,1,.373,4.839c-.047.808.039,1.613-.012,2.422a13.978,13.978,0,0,1-.535,3.058c-.434,1.52-.989,3.313-2.262,4.352a7.271,7.271,0,0,1-2.445,1.355,7.149,7.149,0,0,1-.817.2c-.778.159-1.566.268-2.355.374-.927.152-1.852.3-2.781.438l-.134.019.061-.008-.316.046-.631.091c-.34.051-.684.1-1.023.149a4,4,0,0,1-3.52-6,3.822,3.822,0,0,1,2.383-1.852q1.059-.156,2.118-.308c1.158-.186,2.311-.382,3.47-.536.154-.028.308-.056.462-.087.123-.391.232-.788.316-1.184.021-.439.018-.877,0-1.322-.02-.824.062-1.645.047-2.469a19.523,19.523,0,0,0-.238-2.168c-.021-.156-.041-.312-.061-.468-.056-.3-.088-.605-.131-.958-.062-.527-.109-1.058-.156-1.589-.168-1.739-.434-3.473-.6-5.211-.359-3.676-.859-7.329-1.175-11.008-.168-1.9-.43-3.785-.6-5.684-.172-1.918-.324-3.851-.395-5.777-.289-7.613.184-15.207.5-22.813.168-3.945.141-7.894.43-11.832.289-3.961.434-7.925.793-11.883.191-2.132.27-4.261.363-6.4.1-2.281.42-4.572.734-6.837.18-1.592.344-3.184.555-4.773a3.945,3.945,0,0,1,.087-.778c.01-.227.03-.455.056-.683a3.723,3.723,0,0,1-.877-2.441c.168-2.2.34-4.406.445-6.609a47.7,47.7,0,0,0-.117-5.894c-.144-1.93-.363-3.856-.4-5.79-.035-2.058.008-4.117.082-6.171.035-1,.168-2.008.273-3,.106-1.028.184-2.063.281-3.09.188-1.961.34-3.922.536-5.879.218-2.207.488-4.43.925-6.606.395-1.937.86-3.855,1.2-5.8.2-1.158.382-2.312.546-3.472.2-1.831.345-3.669.528-5.5.187-1.934.394-3.867.531-5.8.137-1.965.223-3.937.2-5.91-.027-1.84-.265-3.668-.144-5.512a19.552,19.552,0,0,1,.262-2.093,7.987,7.987,0,0,1,.656-1.946,4.489,4.489,0,0,1,2.629-2.113,3.745,3.745,0,0,1,1.332-.221,5.365,5.365,0,0,1,1.359.178Zm-2.98,177.817c.014.1.028.193.043.29v0l-.043-.293Zm-10.733,18.2.073-.011.214-.031-.287.042Z"/>
    <path class="a" d="M135.528,196.106c1.353.056,2.709.065,4.063.053q6.588-.13,13.167.018c4.5.1,9,.328,13.5.5,2.347.089,4.687.183,7.035.308,2.105.117,4.215.379,6.3.676,2.278.328,4.563.566,6.836.906,2.364.352,4.7.82,7.036,1.32,2.191.473,4.371,1,6.578,1.387s4.425.711,6.636,1.051c2.317.359,4.629.7,6.93,1.141,2.266.425,4.508,1,6.758,1.5,8.723,1.937,17.683,3.25,26.047,6.5,2.027.789,4.011,1.7,6.015,2.546,2.059.868,4.125,1.7,6.188,2.551,3.766,1.559,7.6,2.942,11.277,4.7,1.778.848,3.614,1.637,5.469,2.309.871.316,1.762.57,2.637.887.918.332,1.836.668,2.758.992,3.878,1.371,7.687,2.867,11.441,4.547,1.918.859,3.84,1.664,5.793,2.429,1.832.715,3.676,1.387,5.469,2.2,4.093,1.843,8.332,3.277,12.527,4.855,2.148.809,4.328,1.547,6.473,2.367,2.3.871,4.6,1.719,6.922,2.5,2.16.727,4.3,1.5,6.441,2.266,1.988.715,3.98,1.4,5.969,2.117,4.046,1.461,7.976,3.25,12.015,4.734,2.012.739,3.992,1.567,6,2.332,2.114.809,4.356,1.262,6.535,1.86,3.688,1,7.309,2.242,10.993,3.258,3.785,1.043,7.56,2.124,11.357,3.139,1.644.383,3.3.724,4.94,1.134,1.566.391,3.105.859,4.64,1.356s3.07,1.043,4.61,1.546c1.494.492,3.008.918,4.53,1.323,2.5.582,5,1.12,7.509,1.662,2.82.609,5.652,1.172,8.515,1.57,2.723.379,5.434.867,8.164,1.195a39.389,39.389,0,0,0,4.133.207c1.672.024,3.341.062,5.012.082,1.143-.021,2.287-.038,3.43.008,1.3.051,2.609.2,3.91.332,2.515.258,5.043.086,7.562.293,2.715.223,5.422.5,8.137.715,2.738.216,5.488.3,8.235.278,1.264-.026,2.529-.049,3.8-.024,1.245.022,2.49.05,3.734.06.8-.027,1.6-.076,2.4-.173,1.129-.133,2.254-.3,3.387-.422,2.39-.262,4.777-.457,7.148-.891,3.84-.707,7.742-.707,11.613-1.164,1.016-.121,2.02-.285,3.039-.355,1.094-.074,2.2-.086,3.29-.114a32.95,32.95,0,0,0,6-.8c1.093-.231,2.183-.454,3.285-.618,1.043-.152,2.093-.257,3.132-.429,1.079-.18,2.133-.446,3.211-.6,1.25-.183,2.508-.3,3.762-.41a4.145,4.145,0,0,1,2.969.75,4,4,0,0,1-1.813,7.168c-1.191.1-2.375.234-3.562.379-1.152.137-2.27.441-3.41.629-1.039.176-2.09.277-3.133.433-1.2.172-2.375.422-3.555.672a32.685,32.685,0,0,1-6.035.746c-1.082.028-2.172.051-3.25.125-1.109.078-2.211.27-3.316.4-2,.238-4.012.336-6.028.445a48.567,48.567,0,0,0-5.718.773c-2.426.43-4.887.567-7.329.872-1.128.14-2.257.312-3.39.417a39.862,39.862,0,0,1-3.985.11c-1.57-.008-3.136-.063-4.707-.078h.015c-1.289.025-2.577.047-3.866.059-1.457.016-2.918-.086-4.375-.152-2.774-.129-5.551-.355-8.309-.648-2.578-.278-5.144-.293-7.73-.344-1.332-.024-2.653-.231-3.981-.344-1.289-.111-2.574-.173-3.873-.179a77.979,77.979,0,0,1-13.08-.587c-4.25-.625-8.523-1.179-12.726-2.082-2.125-.461-4.246-.933-6.371-1.4-2.231-.5-4.469-.98-6.657-1.633-3.854-1.152-7.617-2.609-11.512-3.612-2.213-.527-4.437-1.009-6.644-1.575-2.055-.524-4.086-1.129-6.129-1.688-4.109-1.121-8.183-2.351-12.254-3.6-2.258-.692-4.554-1.246-6.832-1.875a69.6,69.6,0,0,1-6.984-2.567c-2.141-.847-4.3-1.652-6.43-2.515-2.179-.875-4.355-1.8-6.562-2.6-2.051-.738-4.11-1.441-6.157-2.184-2.125-.769-4.242-1.558-6.394-2.254-2.277-.738-4.524-1.582-6.762-2.437-2.207-.84-4.441-1.605-6.652-2.434-4.156-1.55-8.367-2.964-12.414-4.789-3.75-1.687-7.684-2.918-11.4-4.683-1.847-.879-3.75-1.692-5.66-2.418-1.926-.727-3.84-1.492-5.793-2.156-1.8-.61-3.59-1.27-5.394-1.872-.887-.3-1.739-.687-2.6-1.043-.918-.382-1.836-.757-2.734-1.187-1.719-.82-3.481-1.566-5.227-2.324-2.031-.879-4.133-1.571-6.164-2.442-2-.855-4.023-1.64-6.023-2.484-2.063-.867-4.106-1.781-6.18-2.617a69.568,69.568,0,0,0-8.751-2.781c-4.273-1.027-8.6-1.816-12.894-2.735-4.472-.957-8.9-2.07-13.421-2.769-4.485-.7-8.985-1.289-13.411-2.3a132.555,132.555,0,0,0-13.761-2.446c-3.219-.378-6.414-.89-9.657-1.066-1.664-.094-3.324-.191-4.992-.23s-3.355-.094-5.027-.188c-3.43-.191-6.863-.3-10.3-.371-3.047-.068-6.1-.114-9.153-.092-2.148.051-4.3.1-6.448.072-1.664-.024-3.325-.17-4.991-.19-1.634.075-3.256.263-4.884.421a57.4,57.4,0,0,1-5.792.177c-4.227.12-8.454.4-12.673.659-4.305.262-8.559.894-12.824,1.519-2.055.305-4.118.477-6.165.868-2.191.414-4.371.906-6.554,1.347-1.832.367-3.66.727-5.485,1.11-2.011.425-4.023.863-6.023,1.336a43.567,43.567,0,0,1-5.117.9,16.671,16.671,0,0,0-1.871.262q-.769.177-1.535.367a24.731,24.731,0,0,0-3.879,1.68,3.881,3.881,0,0,1-3.012.043,4,4,0,0,1-2.277-5.18,4.235,4.235,0,0,1,2.164-2.231c.519-.269,1.05-.515,1.562-.8a16.894,16.894,0,0,1,1.649-.664,16.554,16.554,0,0,1,2.82-.808c.851-.184,1.672-.422,2.539-.524a125.5,125.5,0,0,0,12.516-2.449c1.828-.4,3.664-.73,5.5-1.1,2.218-.45,4.429-.938,6.652-1.36,2-.379,4.043-.535,6.059-.812,2.175-.3,4.343-.641,6.519-.91,3.723-.454,7.469-.618,11.211-.832,1.926-.11,3.848-.215,5.777-.305,1.663-.076,3.331-.06,5-.07,2.878-.151,5.728-.567,8.616-.6h.209c1.32,0,2.63.1,3.947.149Zm335.826,79.675-.26,0,.26,0Zm3.217,7.872-.463.009.463-.009Z"/>
    <path class="a" d="M191.791,13.634c2.368.035,4.727.215,7.086.367,2.254.149,4.493.36,6.735.653,2.449.32,4.886.718,7.343.965,4.946.5,9.84,1.246,14.731,2.125,1.765.317,3.506.682,5.249,1.1l-.253-.061.427.1.015,0c2.182.527,4.371,1,6.57,1.463,2.508.527,5.008,1.1,7.519,1.617s5.047.828,7.567,1.246c2.4.4,4.75,1.039,7.121,1.578,2.726.621,5.453,1.25,8.129,2.051,2.382.711,4.761,1.422,7.164,2.066s4.793,1.321,7.156,2.075c1.117.359,2.215.773,3.32,1.164,1.137.4,2.278.761,3.422,1.136,2.387.778,4.781,1.516,7.125,2.411,2.117.8,4.25,1.543,6.379,2.3,2.164.774,4.34,1.5,6.488,2.321,2.239.855,4.446,1.8,6.711,2.574,4.891,1.672,9.68,3.629,14.59,5.238a69.151,69.151,0,0,1,6.82,2.781c1.082.489,2.184.926,3.266,1.411,1.1.492,2.188,1.007,3.293,1.488,1.039.449,2.063.933,3.113,1.351,1.282.508,2.586.938,3.891,1.387,2.355.809,4.641,1.828,6.93,2.8,1.062.453,2.168.808,3.258,1.191,1.2.418,2.39.856,3.589,1.274,2.422.843,4.77,1.777,7.1,2.84,2.184.992,4.344,2.062,6.582,2.918,2.215.847,4.445,1.617,6.68,2.406,1.148.4,2.285.828,3.414,1.289,1.144.461,2.254,1,3.394,1.461,2.231.906,4.481,1.769,6.707,2.691,4.9,2.039,9.809,4.11,14.832,5.832,2.852.981,5.75,1.793,8.6,2.77s5.715,1.928,8.634,2.7c2.612.625,5.232,1.206,7.846,1.824,3.208.758,6.376,1.668,9.569,2.479,3.03.7,6.116,1.221,9.181,1.759,3.047.54,6.075,1.208,9.137,1.625s6.086.883,9.164,1.11c2.772.2,5.553.2,8.329.2,1.424-.033,2.847-.073,4.273-.1,3.271-.086,6.534-.257,9.8-.4,3.157-.137,6.286-.566,9.434-.777,1.551-.106,3.109-.215,4.645-.469,1.511-.246,2.992-.645,4.484-1,2.789-.659,5.672-.742,8.463-1.409,1.517-.471,3.011-1.021,4.533-1.478,1.3-.387,2.609-.758,3.934-1.051,1.074-.237,2.162-.406,3.234-.666,1.792-.52,3.57-1.073,5.363-1.588.328-.093.657-.183.985-.277a4,4,0,0,1,4.3,5.41,3.826,3.826,0,0,1-2.164,2.231c-1.914.554-3.816,1.156-5.738,1.7-2.158.61-4.365.982-6.539,1.536-1.586.483-3.138,1.064-4.727,1.538a34.058,34.058,0,0,1-3.515.891c-.942.172-1.887.305-2.836.426a44.385,44.385,0,0,0-5.028.867,39.167,39.167,0,0,1-5.605,1.043c-1.684.164-3.375.254-5.062.4-1.977.172-3.946.414-5.93.528-4.122.236-8.248.427-12.374.486-2.033.044-4.062.111-6.095.115-1.914,0-3.855.008-5.766-.121-4.105-.277-8.164-.812-12.226-1.453-2.043-.324-4.067-.781-6.1-1.145-2.2-.39-4.39-.8-6.59-1.2-4.668-.831-9.229-2.16-13.816-3.349-4.633-1.083-9.291-2.065-13.828-3.5-2.445-.774-4.856-1.657-7.309-2.4-2.476-.754-4.929-1.562-7.363-2.445-4.07-1.473-8.07-3.125-12.066-4.781q-3.211-1.331-6.45-2.6c-2.332-.918-4.593-2.008-6.949-2.859-2.281-.825-4.57-1.6-6.84-2.45-2.14-.8-4.207-1.746-6.281-2.7-2.312-1.058-4.617-2.121-7.023-2.945q-3.581-1.225-7.141-2.52c-2.309-.839-4.531-1.914-6.828-2.8-1.168-.445-2.359-.824-3.543-1.234s-2.313-.93-3.457-1.422c-2.223-.961-4.41-2-6.641-2.937-2.254-.953-4.445-2-6.746-2.844-2.375-.867-4.785-1.641-7.156-2.52-2.4-.89-4.8-1.8-7.211-2.644-2.387-.832-4.746-1.727-7.1-2.656-2.105-.836-4.242-1.571-6.379-2.321-4.453-1.562-8.851-3.273-13.347-4.7-2.309-.73-4.59-1.523-6.875-2.316-2.356-.82-4.762-1.485-7.16-2.16-1.954-.547-3.914-1.067-5.86-1.637-1.927-.563-3.844-1.14-5.786-1.647-2.476-.6-4.954-1.213-7.444-1.744-2.9-.621-5.852-.957-8.77-1.468s-5.8-1.247-8.7-1.856q-4.015-.839-8-1.81c-1.77-.4-3.559-.717-5.352-1.03-1.9-.332-3.793-.679-5.7-.957q-2.806-.4-5.621-.73c-1.867-.219-3.746-.356-5.609-.625-3.508-.508-7-.961-10.539-1.2-1.793-.117-3.586-.242-5.383-.328-1.723-.081-3.452-.053-5.177-.032-2.989.09-5.961.376-8.944.532q-4.964.264-9.918.332c-3.086.036-6.172-.125-9.25-.312-2.993-.179-5.983-.417-8.985-.425a67.988,67.988,0,0,0-6.839.925c-2.3.383-4.614.656-6.918.957-4.739.613-9.469,1.289-14.211,1.871-2.4.3-4.793.637-7.211.824-2.2.172-4.395.344-6.586.563A116.35,116.35,0,0,0,94.2,29.111c-.926.211-1.84.484-2.758.738.328-.09.656-.184.984-.273-.9.25-1.793.5-2.691.747-2.681.794-5.363,1.584-8.082,2.229-2.41.57-4.84,1.043-7.266,1.539-2.625.543-5.25,1.086-7.887,1.578-2.1.389-4.2.767-6.277,1.274-.069.023-.137.047-.2.072L60,37.04a3.817,3.817,0,0,1-2.9.817,3.992,3.992,0,0,1-3.527-4.418l.246-1.008a4.038,4.038,0,0,1,1.269-1.707,5.8,5.8,0,0,1,2.532-1.3c.886-.261,1.777-.476,2.675-.683.958-.223,1.922-.41,2.887-.59,2.461-.449,4.91-.934,7.363-1.422,2.36-.473,4.723-.945,7.083-1.441s4.684-1.1,7.006-1.734c1.347-.4,2.694-.793,4.05-1.164,2.284-.639,4.564-1.262,6.889-1.743,2.41-.5,4.855-.8,7.285-1.164,4.637-.7,9.328-.84,13.984-1.356,4.61-.511,9.2-1.218,13.809-1.8,4.832-.61,9.664-1.254,14.473-2.047a37.838,37.838,0,0,1,6.906-.5c1.965.043,3.922.148,5.887.277,4.186.27,8.362.471,12.558.439,2.1-.06,4.195-.117,6.289-.251,1.051-.067,2.1-.106,3.153-.188,1.257-.1,2.515-.223,3.777-.277,2.138-.093,4.28-.154,6.42-.154q.843,0,1.685.013Z"/>
    <path class="a" d="M189.115,4.673c1.859.058,3.715.062,5.57.2,1.965.145,3.93.3,5.887.52,1.813.207,3.625.371,5.442.508,1.71.128,3.4.371,5.1.613,3.649.519,7.3,1.082,10.914,1.789,2.039.4,4.1.7,6.137,1.1,2.117.417,4.23.847,6.363,1.2,2.219.363,4.418.754,6.61,1.258,2.265.526,4.515,1.118,6.772,1.688,3.644.843,7.346,1.391,11,2.2,4.129.922,8.215,1.961,12.238,3.27,3.746,1.218,7.5,2.425,11.305,3.468,3.844,1.055,7.641,2.176,11.379,3.575,3.871,1.449,7.738,2.89,11.633,4.277,3.633,1.3,7.254,2.633,10.812,4.125,3.52,1.477,7.055,2.883,10.614,4.254,3.71,1.43,7.457,2.762,11.156,4.226,1.738.692,3.515,1.293,5.246,2,1.918.781,3.808,1.582,5.672,2.476,3.718,1.785,7.394,3.649,11.183,5.285,3.4,1.469,6.9,2.707,10.282,4.242,3.648,1.657,7.222,3.454,10.789,5.282,2.906,1.484,5.875,2.832,8.734,4.414l.937.519a3.979,3.979,0,0,1,1.293,1.645,4,4,0,0,1-2.121,5.246,3.8,3.8,0,0,1-3.015.043c-3.672-2.027-7.5-3.77-11.231-5.688-3.586-1.847-7.215-3.617-10.945-5.152-3.453-1.422-6.945-2.742-10.34-4.3q-2.742-1.258-5.445-2.6c-1.832-.91-3.672-1.848-5.555-2.649-3.617-1.539-7.312-2.89-10.976-4.308-3.805-1.469-7.649-2.832-11.446-4.309-3.465-1.351-6.867-2.847-10.324-4.215-3.621-1.429-7.3-2.73-10.961-4.05-3.348-1.211-6.672-2.485-10.015-3.7-3.223-1.176-6.5-2.145-9.805-3.043s-6.555-1.918-9.805-2.954c-1.621-.515-3.23-1.054-4.855-1.546-1.587-.483-3.2-.9-4.806-1.3-2.75-.646-5.52-1.232-8.3-1.715-3.449-.594-6.832-1.434-10.219-2.316l1.008.246c-1.886-.461-3.773-.93-5.676-1.293-1.984-.379-3.984-.656-5.972-1.016-1.934-.348-3.852-.773-5.778-1.14-1.765-.336-3.546-.59-5.308-.938-3.6-.715-7.266-1.234-10.9-1.738-1.7-.239-3.4-.43-5.106-.559-1.848-.14-3.68-.363-5.519-.551-3.211-.324-6.418-.547-9.645-.589-3.278-.045-6.546-.2-9.823-.174q-1.774.041-3.55.07-3.135.063-6.268.119c.34,0,.684-.012,1.024-.015-4.028.117-8.035.429-12.055.687-1.906.121-3.808.2-5.707.387-1.945.195-3.887.449-5.828.676-2.027.234-4.063.417-6.09.664-1.824.222-3.644.507-5.457.785-3.855.582-7.68,1.265-11.5,2.008-2.344.457-4.687.859-7.015,1.39-2.133.488-4.286.926-6.426,1.379-2.024.426-4.078.727-6.11,1.121q-3.426.66-6.79,1.558c-1.717.5-3.445,1-5.186,1.415-1.466.351-2.947.653-4.41,1.029q-3.719,1.135-7.448,2.228a3.911,3.911,0,0,1-.017.649,4.045,4.045,0,0,1-1.52,2.711,4.276,4.276,0,0,1-2.9.816c-.851-.009-1.7-.016-2.55-.012a32.72,32.72,0,0,0-3.4.235c-1.34.172-2.664.594-3.989.863-1.289.258-2.593.426-3.875.723-1.039.237-2.071.489-3.1.763-1.162.349-2.33.689-3.469,1.108-.519.192-1.023.418-1.523.652a5.192,5.192,0,0,1-1.539.528,4.247,4.247,0,0,1-3.11-.766,4.14,4.14,0,0,1-.664-5.914,8.429,8.429,0,0,1,3.649-2.394c1.367-.52,2.8-.895,4.211-1.3,2.5-.719,4.949-1.586,7.425-2.391,3.145-1.022,6.381-1.741,9.58-2.576,3.079-.868,6.164-1.726,9.209-2.7,3.8-1.209,7.693-2,11.531-3.041a115.829,115.829,0,0,1,12.208-2.737c3.683-.644,7.3-1.562,10.964-2.3,2.02-.407,4.051-.766,6.075-1.133,1.828-.332,3.64-.738,5.468-1.031,3.825-.618,7.657-1.29,11.508-1.7,5.18-.554,10.352-1.3,15.559-1.543,2.57-.121,5.133-.355,7.7-.523,2.727-.18,5.458-.243,8.192-.276,1.583-.03,3.165-.069,4.748-.1l-.118,0,.434-.008.248,0-.136,0q1.944-.033,3.884-.033,3.977,0,7.955.128Zm-12.7,7.855-.289.006c.1,0,.193,0,.289-.006ZM176.389,4.6l.341-.007-.341.007Z"/>
    <path class="a" d="M221.717,11.858a65.731,65.731,0,0,1,7.75,2.148,67.977,67.977,0,0,1,6.828,3.219,4.256,4.256,0,0,1,2.231,2.164,4,4,0,0,1-2.118,5.246,3.85,3.85,0,0,1-3.015.043c-1.785-.91-3.571-1.84-5.41-2.641a39.247,39.247,0,0,0-5.361-1.8c-1.981-.481-3.962-1-5.968-1.352-2.523-.449-5.046-.84-7.589-1.156a104.241,104.241,0,0,0-13.313-.663c-3.932.188-7.857.464-11.785.729-3.9.266-7.816.4-11.7.852a4,4,0,0,1-1.157-7.914c4.223-.492,8.493-.637,12.731-.922,4.457-.3,8.918-.66,13.387-.7.342,0,.685-.005,1.028-.005a100.173,100.173,0,0,1,23.46,2.755Z"/>
    <path class="a" d="M80.763,22.288a4.007,4.007,0,0,0-3.916-2.93,4.283,4.283,0,0,0-.994.117c-2.079.5-4.149.985-6.243,1.4a27.191,27.191,0,0,0-4.5,1.3,42.343,42.343,0,0,1-4.57,1.535c-1.519.4-3.07.7-4.578,1.144-3.231.961-6.293,2.414-9.484,3.489a87.711,87.711,0,0,0-10.786,4.492c-1.5.734-2.964,1.527-4.453,2.289s-2.968,1.5-4.429,2.293c-1.477.8-2.973,1.555-4.473,2.3-1.551.773-3.07,1.636-4.594,2.465-1.676.914-3.367,1.8-5.113,2.574a31.762,31.762,0,0,0-5.309,2.793A21.787,21.787,0,0,1,5.4,48.815c-.707.391-1.445.742-2.175,1.09a12.791,12.791,0,0,0-2.18,1.207c-.348.26-.706.525-1.048.807v8.017a3.924,3.924,0,0,0,1.165.184A4.02,4.02,0,0,0,3.551,59.3a5.539,5.539,0,0,0,1.161-.847c.219-.219.436-.433.665-.638A27.543,27.543,0,0,1,8.54,56.186c1.41-.675,2.586-1.7,3.953-2.445.977-.535,1.949-1.055,2.961-1.527.938-.434,1.887-.84,2.813-1.3,3.148-1.574,6.218-3.3,9.347-4.906,2.969-1.532,5.946-3.055,8.9-4.61,2.83-1.491,5.7-2.861,8.644-4.109,1.509-.586,3.05-1.074,4.57-1.625,1.368-.492,2.715-1.016,4.059-1.566,1.219-.5,2.469-.95,3.723-1.352s2.539-.652,3.82-.973c1.336-.332,2.68-.687,3.98-1.14,1.161-.4,2.27-.946,3.45-1.3,1.351-.406,2.726-.688,4.1-.965,1.7-.34,3.391-.77,5.082-1.172A4.03,4.03,0,0,0,80.763,22.288Z"/>
    <path class="a" d="M136.055,11.7a5.8,5.8,0,0,0-1.612-.186c-.6,0-1.213.045-1.783.045-.863,0-1.726.039-2.586.067-1.836.058-3.672.2-5.511.246-3.871.109-7.739.34-11.594.722-3.641.356-7.274.805-10.9,1.278-3.578.469-7.179.711-10.761,1.125-1.871.219-3.742.359-5.621.465q-1.518.087-3.016.277a23.77,23.77,0,0,0-3.313.547c-3.324.9-6.675,1.715-9.941,2.812a105.5,105.5,0,0,1-10.512,3.266c-1.6.359-3.2.676-4.777,1.1-1.609.433-3.176,1-4.773,1.472-1.524.446-3.063.856-4.571,1.352A37.808,37.808,0,0,0,39.1,28.666c-1.606.836-3.156,1.773-4.739,2.664-1.855,1.039-3.73,2.043-5.6,3.058-3.613,1.961-7.363,3.59-11.078,5.336A56.588,56.588,0,0,0,7.52,45.255,23.716,23.716,0,0,0,3.156,49.1,33.761,33.761,0,0,0,0,54.125V70.954c.956-.627,1.914-1.25,2.883-1.859,1.637-1.027,3.3-2.027,4.988-2.968s3.457-1.774,5.168-2.692c1.688-.906,3.348-1.836,4.977-2.836,1.566-.965,3.113-1.961,4.687-2.91a90.473,90.473,0,0,1,10.579-5.518c1.979-.8,3.976-1.559,5.929-2.423,1.76-.782,3.5-1.608,5.276-2.365,1.262-.511,2.524-1.017,3.785-1.535l-.174.072c3.133-1.27,6.32-2.4,9.449-3.684,3.023-1.238,6.059-2.449,9.191-3.391,6.43-1.933,13.067-3.218,19.379-5.531,1.926-.707,3.84-1.465,5.785-2.109,1.891-.629,3.8-1.2,5.723-1.746,3.879-1.11,7.793-2.1,11.692-3.149,3.933-1.062,7.839-2.219,11.742-3.39q3-.9,5.984-1.836a34.632,34.632,0,0,1,5.117-1.124c.466-.053.933-.1,1.4-.15.539-.058,1.074-.137,1.613-.211a4.617,4.617,0,0,0,.937-.164,4.261,4.261,0,0,0,2.422-1.871,4,4,0,0,0,.528-2.023A4.065,4.065,0,0,0,136.055,11.7ZM90.52,23.248c-1.891.625-3.758,1.34-5.629,2.027-1.981.723-3.969,1.391-6,1.977-1.742.505-3.493.985-5.247,1.453a4.316,4.316,0,0,0-.651-2.4c.294-.09.59-.177.886-.26,1.578-.446,3.172-.825,4.75-1.27a43.242,43.242,0,0,1,4.4-1.072c2.726-.3,5.472-.366,8.2-.687C90.99,23.092,90.755,23.17,90.52,23.248Z"/>
    <path class="a" d="M95.946,197.283a4.371,4.371,0,0,0-3.078-2.993,10.929,10.929,0,0,0-2.519-.3c-.1,0-.2,0-.3,0a19.493,19.493,0,0,0-2.556.212c-1.2.156-2.41.32-3.6.578-2.012.433-4,.937-5.989,1.484-1.2.334-2.414.647-3.614.994-.331.036-.661.075-.991.119-2.289.309-4.512.8-6.762,1.3-1.664.371-3.344.664-5.008,1.043-1.847.422-3.675.9-5.488,1.449-1.769.54-3.519,1.157-5.262,1.774-1.765.629-3.57,1.1-5.367,1.633-3.883,1.133-7.773,2.383-11.539,3.867q-5.76,2.279-11.351,4.914c-3.493,1.645-6.981,3.277-10.407,5.062s-6.668,3.922-10.062,5.774c-.682.371-1.371.74-2.056,1.114v20.773c3.564-2.5,7.177-4.928,10.755-7.407,1.586-1.1,3.23-2.2,4.918-3.136,1.723-.961,3.477-1.856,5.234-2.743,3.606-1.808,7.34-3.367,10.977-5.109,3.594-1.719,7.059-3.687,10.539-5.621,3.272-1.82,6.589-3.5,9.991-5.056a3.929,3.929,0,0,0,.694-.275c1.539-.567,3.1-1.03,4.69-1.45,1.9-.5,3.762-1.082,5.637-1.664a111.577,111.577,0,0,0,10.518-4.172q2.692-1.037,5.353-2.149l-.946.4c3.415-1.4,6.836-2.762,10.348-3.906.684-.223,1.356-.516,2.055-.688.5-.129,1.008-.23,1.508-.363a5.3,5.3,0,0,0,2.535-1.367,4.129,4.129,0,0,0,1.14-1.942A4.576,4.576,0,0,0,95.946,197.283Z"/>
    <path class="a" d="M90,195.052l-.039.03.006,0,.033-.028Z"/>
    <path class="a" d="M52.065,217.135l-.4.163.4-.163Z"/>
    <path class="a" d="M531.854,236.929a1.26,1.26,0,0,1-1.082,1.4c-1.379.085-2.761.136-4.132.32-.6.078-1.211.172-1.8.3-.637.136-1.266.293-1.9.425-2.555.543-5.086,1.207-7.672,1.6-.586.09-1.172.149-1.762.2-.684.063-1.379.09-2.055.2a1.25,1.25,0,1,1-.32-2.48c.676-.109,1.371-.137,2.055-.2.629-.059,1.254-.125,1.879-.219,1.273-.191,2.523-.465,3.781-.734,1.281-.274,2.554-.59,3.84-.86.64-.136,1.281-.3,1.922-.433.6-.129,1.222-.215,1.832-.3,1.332-.18,2.679-.219,4.019-.305q.048,0,.1,0a1.263,1.263,0,0,1,1.306,1.081Z"/>
    <path class="a" d="M532.239,241.645a1.261,1.261,0,0,1-.687,1.629,41.349,41.349,0,0,1-3.907,1.489,28.315,28.315,0,0,1-3.984.785c-1.258.187-2.519.3-3.777.457-1.332.156-2.664.289-4,.441-2.446.281-4.887.606-7.332.91a26.7,26.7,0,0,1-4.106.157c-1.293-.039-2.586-.075-3.879-.1-.648-.008-1.3-.02-1.949-.02h.194c-1.652,0-3.3-.091-4.955-.1a11.547,11.547,0,0,0-1.441.064,1.229,1.229,0,0,1-1.509-.721,1.25,1.25,0,0,1,.008-.957,1.178,1.178,0,0,1,.68-.668,4.23,4.23,0,0,1,.863-.172c.148-.008.3-.008.453-.016.25-.008.5-.008.754-.012.59-.007,1.18.008,1.769.032.992.038,1.98.062,2.972.07,1.251,0,2.5.028,3.751.043,1.161.018,2.319.074,3.48.084.621-.011,1.235-.028,1.852-.088s1.219-.145,1.828-.223c1.274-.168,2.555-.328,3.832-.476,2.528-.3,5.055-.574,7.578-.856.981-.1,1.957-.234,2.934-.379.946-.142,1.881-.284,2.809-.512a38.166,38.166,0,0,0,4.136-1.55,1.207,1.207,0,0,1,.461-.092,1.266,1.266,0,0,1,1.168.779Z"/>
    <path class="a" d="M531.1,250.038a1.249,1.249,0,0,1,.207,1.754,1.2,1.2,0,0,1-.82.465c-.711.008-1.418.027-2.125.047s-1.395.125-2.09.2c-1.348.144-2.7.265-4.043.4-1.242.125-2.48.231-3.723.328-.605.047-1.21.086-1.812.149s-1.2.144-1.8.207c-2.625.281-5.254.441-7.887.617-1.265.086-2.531.145-3.8.156-1.4.016-2.8-.043-4.188-.09-1.523-.054-3.051-.039-4.574-.082q-2.1-.056-4.2-.054c-1.74,0-3.481-.071-5.222-.114-.16,0-.32.012-.482.024a1.269,1.269,0,0,1-1.4-1.078,1.255,1.255,0,0,1,1.078-1.4c.942-.07,1.9,0,2.836.024.884.023,1.764.06,2.647.069,2.239-.01,4.474.057,6.709.083,2.217.027,4.427.113,6.644.139,2.533-.031,5.064-.24,7.59-.412s5.024-.516,7.539-.715c1.895-.149,3.785-.332,5.676-.52q1.67-.164,3.34-.343c.98-.106,1.98-.1,2.965-.11h.044a1.325,1.325,0,0,1,.893.262Z"/>
    <path class="a" d="M531.429,256.293a1.263,1.263,0,0,1-1.078,1.4c-1.379.207-2.762.375-4.148.547-.66.082-1.313.192-1.969.293-.582.086-1.164.16-1.746.25-1.3.2-2.6.422-3.9.621-1.258.192-2.524.34-3.786.489q-2.2.257-4.41.441c-.8.066-1.6.121-2.406.156-.742.033-1.49.021-2.233.017-1.517.008-3.039.072-4.556.034-1.437-.034-2.878-.072-4.316-.088-1.267.009-2.53.036-3.8.006-1.293-.031-2.578-.141-3.871-.219q-1.887-.111-3.774-.215c-1.25-.07-2.512-.105-3.754-.273-.347-.047-.691-.1-1.035-.16-.388-.074-.777-.221-1.169-.257a1.23,1.23,0,0,1-1.261-1.079,1.264,1.264,0,0,1,.258-.938,1.223,1.223,0,0,1,.821-.464,3.148,3.148,0,0,1,.941.086c.125.031.25.066.375.093.281.063.566.117.851.164.559.09,1.122.149,1.684.184.629.043,1.258.1,1.887.129.652.031,1.3.058,1.953.105.6.043,1.2.059,1.8.1.625.047,1.254.082,1.879.125,1.194.08,2.386.145,3.58.159,1.288-.008,2.577-.044,3.869-.011s2.566.071,3.847.081c1.4-.009,2.8-.037,4.2-.038a72.049,72.049,0,0,0,7.668-.543c1.289-.14,2.578-.3,3.863-.48,1.262-.168,2.512-.406,3.769-.6.641-.094,1.286-.172,1.922-.273.7-.113,1.395-.235,2.094-.324,1.52-.188,3.035-.371,4.551-.6a1.1,1.1,0,0,1,.171-.013,1.266,1.266,0,0,1,1.227,1.095Z"/>
    <path class="a" d="M540.057,108.413a1.269,1.269,0,0,1-.691,1.629c-.68.317-1.356.652-2.051.942-.641.265-1.289.511-1.941.75-.606.214-1.235.375-1.852.562-.586.18-1.164.391-1.742.6-.629.23-1.258.453-1.9.64a18.827,18.827,0,0,1-2.015.461,17.158,17.158,0,0,1-1.946.2c-.671.047-1.336.11-2,.2-.61.086-1.223.161-1.829.274-.625.113-1.25.246-1.879.328-1.269.168-2.55.262-3.832.348-1.187.078-2.363.273-3.546.394-1.25.129-2.5.254-3.754.391a1.251,1.251,0,1,1-.321-2.481c1.286-.14,2.571-.269,3.86-.4,1.226-.129,2.441-.32,3.676-.4,1.281-.082,2.574-.161,3.839-.368.664-.1,1.325-.242,1.989-.351.644-.11,1.293-.192,1.941-.274.887-.113,1.781-.14,2.672-.238a17.354,17.354,0,0,0,2.277-.423c.76-.226,1.5-.5,2.25-.776s1.485-.492,2.231-.719c.808-.238,1.593-.523,2.379-.828.871-.34,1.711-.758,2.558-1.152a1.063,1.063,0,0,1,.455-.1,1.3,1.3,0,0,1,1.174.787Z"/>
    <path class="a" d="M539.984,116.918a1.265,1.265,0,0,1-1.082,1.4c-1.387.207-2.777.414-4.16.672-.66.125-1.317.246-1.985.324-.582.066-1.164.137-1.746.227-1.238.191-2.469.453-3.715.57a28.109,28.109,0,0,1-4.019.109c-.177-.006-.351,0-.525,0h-.044a3.914,3.914,0,0,0-1.025.094,1.214,1.214,0,0,1-.937-.262,1.244,1.244,0,0,1-.2-1.753,1.335,1.335,0,0,1,.821-.465,6.4,6.4,0,0,1,1.57-.094h-.324c.618,0,1.232.027,1.847.034a28.177,28.177,0,0,0,3.383-.245c1.114-.164,2.223-.395,3.34-.535.586-.074,1.172-.137,1.754-.219.621-.086,1.234-.211,1.852-.328,1.257-.238,2.531-.414,3.8-.606a1.229,1.229,0,0,1,.171-.012,1.269,1.269,0,0,1,1.231,1.091Zm-17.008,3.3h0Z"/>
    <path class="a" d="M536.353,121.741a1.276,1.276,0,0,1,.464.82,1.263,1.263,0,0,1-.257.938,1.375,1.375,0,0,1-.821.465c-.984.234-1.965.472-2.957.66-.832.152-1.668.238-2.5.34s-1.656.164-2.488.226c-1.012.074-2.012.156-3.031.145a1.191,1.191,0,0,1-.836-.493,1.243,1.243,0,0,1-.238-.91,1.261,1.261,0,0,1,.492-.84,1.362,1.362,0,0,1,.91-.234h.008c.816-.019,1.625-.086,2.437-.152.836-.071,1.672-.129,2.5-.231.813-.1,1.621-.183,2.426-.332.992-.187,1.973-.426,2.957-.66a.731.731,0,0,1,.176-.02,1.316,1.316,0,0,1,.758.278Z"/>
    <path class="a" d="M528.745,169.458a1.2,1.2,0,0,1,.84.492,1.248,1.248,0,0,1-.254,1.75,1.4,1.4,0,0,1-.914.238l-1.426-.01c-2.484.014-4.968.091-7.453.2-1.289.055-2.566.164-3.851.289-.637.059-1.27.148-1.906.2-.676.051-1.348.09-2.02.121a11.1,11.1,0,0,0-1.871.145,1.216,1.216,0,0,1-.937-.258,1.259,1.259,0,0,1-.2-1.758,1.344,1.344,0,0,1,.821-.465,6.236,6.236,0,0,1,1.109-.105c.34-.016.68-.035,1.024-.051.648-.031,1.3-.066,1.941-.125,1.246-.109,2.484-.277,3.734-.371,1.3-.094,2.6-.137,3.9-.176s2.617-.082,3.925-.105c.521-.011,1.043-.014,1.564-.014.658,0,1.317,0,1.975.01Z"/>
    <path class="a" d="M524.952,176.391c.785.016,1.57.035,2.356.074.914.043,1.828.121,2.742.18a1.253,1.253,0,0,1,1.074,1.4,1.271,1.271,0,0,1-1.4,1.078c-1.289-.086-2.575-.179-3.868-.226-1.114-.037-2.228-.042-3.339-.046-5.318.061-10.624.484-15.938.7q-1.306.053-2.617.074c-.984.012-1.969-.027-2.953-.043-1.7-.031-3.394-.069-5.086-.093a9.043,9.043,0,0,0-1.672.105,1.25,1.25,0,0,1-.32-2.48,8.842,8.842,0,0,1,1.437-.1c.465-.012.93,0,1.4.008.808.012,1.617.015,2.425.031,1.53.03,3.06.074,4.586.091,2.663-.042,5.322-.214,7.977-.353s5.293-.277,7.941-.363q1.728-.054,3.457-.055.9,0,1.8.016Z"/>
    <path class="a" d="M530.89,183.751a1.256,1.256,0,0,1,.207,1.758,1.34,1.34,0,0,1-.821.461c-1.367.324-2.726.613-4.117.816-.64.094-1.285.176-1.93.25-.625.071-1.242.184-1.867.274a39.823,39.823,0,0,1-8.066.094c-.484-.035-.969-.078-1.453-.082a1.191,1.191,0,0,1-.836-.493,1.25,1.25,0,0,1,.254-1.75,1.376,1.376,0,0,1,.91-.238c1.027.012,2.058.121,3.086.18.865.049,1.734.054,2.6.054.913-.024,1.823-.09,2.737-.187.445-.043.89-.125,1.332-.195.484-.074.972-.137,1.461-.192.879-.1,1.761-.215,2.632-.375.985-.179,1.957-.406,2.93-.632a.773.773,0,0,1,.181-.021,1.288,1.288,0,0,1,.757.278Z"/>
    <path class="a" d="M411.577,43.7c1.291.719,2.551,1.478,3.811,2.245.653.381,1.317.743,1.97,1.125l-.062-.038c.525.311,1.051.625,1.576.937l-.025-.015c1.078.618,2.138,1.265,3.2,1.9.528.3,1.057.605,1.592.894.582.316,1.18.605,1.777.9,1.137.566,2.305,1.055,3.477,1.551q3.581,1.518,7.168,3.031,3.673,1.552,7.363,3.09c2.418,1,4.84,1.98,7.305,2.855.617.219,1.238.422,1.855.645.637.226,1.262.484,1.887.746,1.18.5,2.363.992,3.559,1.457,2.535.992,5.105,1.895,7.66,2.844,1.218.453,2.429.949,3.644,1.414q1.934.738,3.891,1.387c1.246.41,2.5.8,3.734,1.234s2.512.754,3.77,1.133c2.512.761,4.953,1.742,7.429,2.609,2.458.86,4.836,1.918,7.286,2.805q1.921.692,3.879,1.281c1.246.38,2.479.8,3.731,1.161,1.162.3,2.334.607,3.511.855,1.254.261,2.527.425,3.781.707q1.98.44,3.937.972c1.278.344,2.567.68,3.868.934.656.129,1.328.2,1.988.305s1.3.207,1.937.359c1.5.352,2.969.84,4.442,1.289a1.206,1.206,0,0,1,.672.684,1.253,1.253,0,0,1-.688,1.629,1.354,1.354,0,0,1-.957-.008c-.89-.275-1.778-.56-2.675-.817-.525-.144-1.051-.3-1.583-.406-.6-.125-1.2-.207-1.8-.3-.637-.1-1.274-.175-1.907-.3s-1.25-.293-1.875-.446c-2.578-.629-5.125-1.375-7.746-1.808-.648-.11-1.3-.227-1.941-.36-.6-.129-1.195-.289-1.789-.433-1.348-.325-2.684-.688-4-1.121s-2.641-.813-3.953-1.246c-1.266-.418-2.512-.883-3.754-1.364-1.223-.476-2.434-1-3.66-1.465-1.188-.453-2.395-.847-3.59-1.281-1.25-.453-2.485-.937-3.746-1.351-.625-.207-1.246-.422-1.875-.61-.653-.2-1.309-.379-1.961-.566-1.207-.352-2.387-.8-3.586-1.18-1.321-.422-2.637-.844-3.942-1.312-1.246-.446-2.48-.922-3.711-1.411-1.312-.519-2.636-1.007-3.96-1.5-2.434-.9-4.879-1.765-7.278-2.757-1.23-.512-2.453-1.055-3.711-1.5-1.191-.422-2.39-.821-3.574-1.27-2.461-.93-4.891-1.941-7.32-2.957-2.492-1.039-4.977-2.094-7.465-3.144-2.367-1-4.742-2-7.11-3.012-1.179-.508-2.335-1.086-3.464-1.7-1.227-.664-2.411-1.4-3.61-2.114l-.129-.076.067.041q-1.338-.78-2.667-1.571l.069.04-.075-.043-.132-.078.044.027-.126-.074.136.08.022.013c-.738-.422-1.486-.826-2.209-1.265-.616-.376-1.226-.756-1.844-1.129-.5-.291-1.009-.57-1.511-.851a1.327,1.327,0,0,1-.672-.68,1.254,1.254,0,0,1,.687-1.629,1.391,1.391,0,0,1,.5-.1.934.934,0,0,1,.453.1Zm4.648,5.578.006,0-.017-.009.011.006Zm-.011-.006-.012-.007-.016-.01.028.017Zm-.012-.007.18.107-.213-.126.033.019Zm-.016-.01-.039-.022-.01-.006.049.028Z"/>
    <path class="a" d="M410.168,51.916a13.67,13.67,0,0,1,2.211,1.024c.558.293,1.109.59,1.664.887,1.144.625,2.293,1.253,3.461,1.835,1.219.61,2.461,1.165,3.695,1.739,1.172.551,2.332,1.125,3.524,1.629,1.164.488,2.375.871,3.566,1.281,1.258.43,2.488.922,3.723,1.418s2.464.976,3.714,1.418c1.2.426,2.43.785,3.614,1.254s2.371.941,3.57,1.383,2.43.855,3.641,1.285c1.257.449,2.48,1,3.718,1.5,1.2.488,2.414.976,3.645,1.4s2.48.746,3.727,1.113c.625.188,1.246.395,1.867.59.582.184,1.164.364,1.734.575,1.234.46,2.469.894,3.719,1.3.621.2,1.242.407,1.855.621.594.211,1.176.454,1.77.668.98.356,1.972.688,2.961,1.02s1.969.754,2.945,1.148a58.659,58.659,0,0,0,5.867,2.106c.668.18,1.336.354,2,.547.6.175,1.188.386,1.774.59,1.277.437,2.519.992,3.777,1.488,1.164.457,2.332.89,3.516,1.293,1.25.429,2.527.777,3.777,1.219,1.16.414,2.328.8,3.516,1.14,1.242.356,2.472.762,3.718,1.113,2.563.723,5.075,1.606,7.606,2.426a1.253,1.253,0,0,1-.016,2.313,1.327,1.327,0,0,1-.957-.008c-1.336-.434-2.656-.906-4-1.328-1.281-.4-2.566-.8-3.859-1.172-.692-.2-1.375-.41-2.059-.629-.609-.191-1.222-.352-1.832-.531-1.285-.383-2.535-.844-3.8-1.266-1.051-.348-2.11-.648-3.157-1s-2.1-.754-3.144-1.156c-1.09-.418-2.168-.863-3.25-1.3-.963-.386-1.97-.7-2.968-1-1.25-.338-2.5-.678-3.724-1.1s-2.441-.9-3.648-1.391-2.375-.969-3.594-1.379-2.437-.836-3.644-1.293c-1.243-.473-2.508-.859-3.766-1.281-1.2-.406-2.379-.887-3.59-1.266-1.187-.375-2.375-.75-3.578-1.086-1.277-.355-2.543-.761-3.781-1.238-1.258-.484-2.5-.984-3.746-1.5-.621-.258-1.243-.524-1.871-.762-.606-.23-1.215-.437-1.825-.644q-1.8-.621-3.582-1.3c-1.156-.445-2.3-.93-3.472-1.328-1.278-.43-2.551-.86-3.813-1.336-1.222-.461-2.433-.953-3.648-1.442-2.391-.968-4.895-1.632-7.231-2.726-1.093-.512-2.179-1.031-3.273-1.535-1.113-.516-2.223-1.035-3.317-1.594-1.039-.523-2.054-1.094-3.082-1.648-.531-.293-1.07-.579-1.605-.86a12.092,12.092,0,0,0-2.012-.914,1.206,1.206,0,0,1-.672-.684,1.247,1.247,0,0,1,.688-1.625,1.133,1.133,0,0,1,.438-.088,1.764,1.764,0,0,1,.519.092Z"/>
    <path class="a" d="M408.807,57.065c1.2.59,2.391,1.176,3.579,1.773,1.136.574,2.293,1.09,3.464,1.586q3.715,1.577,7.43,3.168c2.442,1.051,4.879,2.117,7.277,3.266,1.18.566,2.325,1.195,3.5,1.765,1.2.586,2.426,1.129,3.633,1.7,1.16.554,2.3,1.156,3.465,1.691,1.149.523,2.328.988,3.5,1.465,2.434,1,4.879,1.961,7.375,2.789,1.262.422,2.52.828,3.77,1.281,1.2.434,2.422.824,3.636,1.227s2.418.859,3.629,1.285c1.286.449,2.567.9,3.836,1.39,1.81.7,3.634,1.329,5.5,1.853.887.236,1.772.481,2.656.729,1.124.3,2.252.573,3.377.879l-.042-.01.4.107L478.718,85l.754.206.01,0-.1-.029.109.03a1.34,1.34,0,0,1,.217.06l.322.088a8.564,8.564,0,0,1,1.012.287c.383.109.765.215,1.152.32-.109-.027-.219-.058-.324-.086.836.223,1.668.457,2.492.715.7.219,1.387.485,2.086.7.742.231,1.492.426,2.219.7.769.289,1.531.582,2.3.875a1.249,1.249,0,1,1-.977,2.3c-.719-.273-1.441-.546-2.16-.824-.648-.246-1.312-.437-1.98-.633-.653-.191-1.29-.433-1.934-.644s-1.292-.41-1.942-.593q-1.218-.332-2.429-.68l-.008,0c-.032-.006-.064-.014-.095-.023a4.66,4.66,0,0,1-.574-.16c-.275-.074-.553-.147-.827-.222.109.028.215.059.324.086-.469-.126-.94-.255-1.409-.384-1.276-.324-2.551-.647-3.818-1.012-1.217-.32-2.434-.636-3.632-1.026-1.3-.425-2.582-.9-3.86-1.4-1.2-.465-2.425-.875-3.644-1.313-1.266-.453-2.527-.918-3.805-1.339-1.211-.4-2.418-.8-3.617-1.231-1.273-.457-2.562-.867-3.848-1.3-2.422-.8-4.8-1.754-7.156-2.722-1.223-.5-2.453-1-3.656-1.547-1.164-.532-2.3-1.137-3.453-1.688s-2.352-1.055-3.5-1.64c-1.223-.622-2.442-1.254-3.68-1.852-2.371-1.137-4.789-2.18-7.207-3.223q-3.673-1.575-7.363-3.133c-1.153-.492-2.286-1-3.4-1.57-1.156-.582-2.32-1.152-3.48-1.726a1.267,1.267,0,0,1-.664-1.637,1.306,1.306,0,0,1,1.166-.774,1.045,1.045,0,0,1,.47.11Zm66.367,27.006.13.037-.13-.037Zm2.93.759.091.024-.091-.024Zm.6,2.727.153.042-.009,0-.144-.039Z"/>
    <path class="a" d="M411.821,64.469c.586.339,1.172.7,1.789.984.575.27,1.153.535,1.727.8,1.176.562,2.344,1.136,3.5,1.734s2.32,1.2,3.5,1.77,2.344,1.179,3.531,1.738c1.156.543,2.348,1.023,3.516,1.543q1.688.75,3.344,1.547c1.214.586,2.41,1.215,3.632,1.777s2.446,1.051,3.672,1.563c2.438,1.019,4.879,2.046,7.36,2.964,1.2.442,2.418.84,3.632,1.239.582.187,1.153.429,1.723.652.641.246,1.281.488,1.922.734l.355.133a1.251,1.251,0,0,1-.972,2.3c-1.305-.5-2.594-1.024-3.906-1.488-1.207-.43-2.434-.8-3.641-1.239-2.445-.882-4.84-1.91-7.238-2.91-1.223-.512-2.465-1-3.668-1.554-1.243-.571-2.457-1.2-3.688-1.8-1.14-.551-2.293-1.082-3.453-1.6-1.133-.508-2.289-.969-3.41-1.492-1.18-.555-2.332-1.16-3.5-1.723-1.215-.586-2.41-1.2-3.605-1.816q-1.7-.885-3.434-1.7c-.559-.266-1.121-.524-1.68-.785-.582-.274-1.136-.586-1.687-.907-.1-.058-.2-.113-.293-.172a1.351,1.351,0,0,1-.672-.679,1.254,1.254,0,0,1,.687-1.629,1.357,1.357,0,0,1,.506-.1.9.9,0,0,1,.451.106Z"/>
    <path class="a" d="M689.89,34.518a1.262,1.262,0,0,1-.343,1.734,52.565,52.565,0,0,1-5.063,3.055c-.922.465-1.871.871-2.8,1.316-.832.4-1.672.778-2.492,1.188.094-.047.188-.094.285-.145-.138.071-.277.14-.416.209l.033-.017c-.279.14-.562.28-.843.419l.07-.036-.194.1-.091.045.042-.02c-.886.451-1.779.889-2.67,1.329-.368.19-.738.376-1.108.561l-.011,0,.01,0-.126.064.047-.024-.426.215.064-.034q-.832.416-1.674.808a19.607,19.607,0,0,1-1.855.683c-1.211.426-2.422.848-3.656,1.2-1.309.371-2.622.735-3.942,1.067-1.2.3-2.414.578-3.617.879-1.731.429-3.481.765-5.211,1.175-1.815.428-3.649.771-5.479,1.14-.817.174-1.63.355-2.443.532-.933.2-1.883.364-2.824.532q-2.6.457-5.184.984c-2.652.566-5.306,1.094-7.976,1.566q-.98.171-1.957.313c-.653.094-1.321.129-1.977.183-1.379.11-2.762.161-4.144.211-1.422.051-2.84.133-4.262.211-.707.039-1.414.1-2.117.157-.731.055-1.469.089-2.194.2l-.033.009a1.342,1.342,0,0,1-.969-.063,1.255,1.255,0,0,1-.562-1.676,1.22,1.22,0,0,1,.711-.625,15.5,15.5,0,0,1,2.551-.316q1.019-.083,2.031-.152c1.285-.09,2.574-.157,3.863-.208,1.336-.054,2.68-.085,4.016-.179A39.214,39.214,0,0,0,629,52.69c2.359-.418,4.711-.858,7.059-1.343,1.578-.337,3.16-.653,4.745-.958,1.5-.288,3.013-.539,4.516-.826,2.013-.437,4.032-.847,6.056-1.254,1.246-.272,2.49-.572,3.741-.846s2.5-.531,3.73-.855,2.473-.574,3.7-.9c1.289-.339,2.582-.687,3.859-1.07,1.008-.3,2-.648,2.992-1,.524-.184,1.055-.356,1.574-.563.492-.2.973-.429,1.45-.66l-.1.051c.214-.107.429-.215.642-.32l-.124.061.448-.224-.151.077q1.466-.738,2.938-1.461c-.1.047-.192.094-.285.141q.99-.5,1.983-1l-.04.02.305-.152-.037.02c1.759-.883,3.549-1.7,5.335-2.526a56.066,56.066,0,0,0,4.817-2.931,1.284,1.284,0,0,1,.7-.206,1.25,1.25,0,0,1,1.04.546Zm-6.582,2.6c-.081.04-.159.082-.238.122l.238-.122Zm-8.99,7.122-.01.005.01-.005Zm-38.341,7.12-.1.02.1-.02Zm38.242-7.07.069-.035-.069.035Zm3.858-1.93.049-.025.124-.063c-.057.03-.114.059-.173.088Zm-5.32-.113.082-.04-.082.04Zm.53-.264.135-.068-.135.068ZM678.8,42l.256-.127c-.086.044-.169.086-.256.127Zm-1.032-2.255c.043-.022.086-.044.13-.065l-.13.065Zm.265-.132c.081-.043.163-.084.248-.124l-.248.124Z"/>
    <path class="a" d="M687.746,39.783a1.263,1.263,0,0,1-.34,1.735c-1.074.789-2.156,1.574-3.281,2.285-.5.316-1.016.609-1.539.89-.574.31-1.138.635-1.715.934l.094-.047-.1.05-.185.095c.042-.023.085-.045.129-.067-1.173.582-2.367,1.1-3.575,1.6s-2.429.988-3.66,1.441c-1.191.438-2.4.832-3.6,1.25s-2.368.891-3.559,1.325c-2.453.894-4.965,1.609-7.476,2.332-1.254.363-2.508.722-3.758,1.105q-1.81.563-3.625,1.1c-1.285.382-2.555.836-3.832,1.246-1.188.379-2.375.75-3.559,1.14-1.219.4-2.441.821-3.68,1.141s-2.5.543-3.726.859l-.133.036a1.307,1.307,0,0,1-.969-.063,1.249,1.249,0,0,1,.149-2.3c1.238-.332,2.507-.547,3.75-.867s2.472-.738,3.7-1.141c1.2-.394,2.41-.785,3.621-1.16,1.27-.394,2.52-.855,3.8-1.234,1.2-.356,2.391-.723,3.586-1.09,1.254-.387,2.512-.746,3.769-1.109,2.516-.727,5.039-1.434,7.5-2.336,1.141-.418,2.274-.868,3.422-1.274,1.176-.418,2.36-.8,3.535-1.226,1.211-.438,2.415-.918,3.61-1.407,1.131-.464,2.262-.936,3.366-1.466l.161-.08-.015.007c1.046-.574,2.117-1.121,3.128-1.761,1.129-.715,2.208-1.5,3.282-2.286a1.132,1.132,0,0,1,.672-.213,1.293,1.293,0,0,1,1.062.553Zm-7.859,3.563-.108.055.108-.055Zm-.52.261-.191.094.191-.094Z"/>
    <path class="a" d="M686.741,37.186a1.268,1.268,0,0,1-1.152,1.34q-1.79.234-3.561.576c-2.093.487-4.129,1.185-6.221,1.689-2.109.5-4.226.981-6.355,1.4.109-.019.215-.042.32-.062-1.379.3-2.762.578-4.148.84-1.278.238-2.578.379-3.871.523-2.594.289-5.207.4-7.778.875l-1.28.241-.516.108.128-.028-.628.131.046-.01c-1.386.289-2.777.558-4.179.765-1.286.188-2.575.313-3.864.446-2.679.277-5.363.613-8.062.629-.164,0-.332,0-.5,0a14.2,14.2,0,0,0-2.031.093,1.255,1.255,0,0,1-1.34-1.152,1.241,1.241,0,0,1,.308-.922,1.3,1.3,0,0,1,.844-.418,13.877,13.877,0,0,1,2.129-.094c.656,0,1.312-.011,1.969-.039,1.3-.054,2.609-.187,3.906-.324,2.656-.289,5.328-.473,7.957-.957.777-.145,1.555-.3,2.328-.449l-.09.02.346-.071-.037.008.05-.011.27-.056-.032.006.13-.025-.135.026-.134.027-.048.009c1.364-.285,2.731-.543,4.11-.73,1.3-.172,2.613-.285,3.922-.4s2.6-.25,3.9-.407,2.594-.414,3.879-.664c.18-.034.357-.072.535-.109-.062.012-.125.025-.187.039.9-.2,1.8-.387,2.7-.563l-.183.04.233-.05.087-.017-.062.012c2.327-.494,4.643-1.043,6.934-1.672,1.234-.34,2.449-.746,3.7-1.027,1.426-.325,2.871-.551,4.32-.743a1.169,1.169,0,0,1,.132-.008,1.275,1.275,0,0,1,1.208,1.165Zm-33.758,7.363-.28.059c.093-.018.187-.038.28-.059Zm-1.574.328.27-.056c-.09.02-.18.039-.27.056Zm.582-.121.188-.038-.188.038Zm-.528-2.421-.013,0,.112-.025.058-.011-.157.033Zm.157-.033.013,0-.013,0Zm.013,0,.063-.013h0l-.068.014Zm18.79-2.823-.05.01.075-.015-.025.005Z"/>
    <path class="a" d="M676.519,50.672a1.269,1.269,0,0,1-.062.969,1.329,1.329,0,0,1-.711.621c-1.787.774-3.611,1.466-5.373,2.3-.506.269-1,.554-1.5.843-.6.347-1.223.66-1.848.966-.552.283-1.1.575-1.668.831-.586.262-1.184.5-1.781.735-1.188.48-2.411.875-3.614,1.312s-2.406.891-3.6,1.356c-1.211.472-2.434.91-3.641,1.394-1.144.461-2.281.942-3.449,1.34-1.188.41-2.4.734-3.6,1.086-2.48.719-4.968,1.465-7.5,2.012-1.738.371-3.488.7-5.234,1.027-.774.144-1.559.246-2.336.363s-1.554.2-2.326.329c-.243.058-.483.121-.721.191a1.279,1.279,0,0,1-1.594-.774,1.258,1.258,0,0,1,.77-1.59,15.253,15.253,0,0,1,1.6-.363c.391-.07.793-.1,1.188-.156.859-.117,1.715-.246,2.574-.379,1.6-.248,3.192-.594,4.782-.912,2.509-.542,4.988-1.23,7.448-1.959,1.207-.359,2.43-.676,3.629-1.066s2.34-.868,3.5-1.333c2.25-.9,4.52-1.761,6.789-2.6s4.569-1.544,6.743-2.589q.819-.42,1.648-.825l-.289.141c.633-.329,1.246-.676,1.859-1.036a23.566,23.566,0,0,1,2.25-1.121c.657-.293,1.325-.55,1.985-.824q1.242-.516,2.476-1.051a1.019,1.019,0,0,1,.4-.082,1.318,1.318,0,0,1,1.191.852Zm-11.312,3.844-.108.052.108-.052Zm1.987,1.766-.16.082.16-.082Z"/>
    <path class="a" d="M637.316,114.677c.57.039,1.141.129,1.711.192,1.066.117,2.137.218,3.2.324,1.094.109,2.18.25,3.274.383,1.062.128,2.132.229,3.2.31l.122.007H648.8l.085.005.472.029-.086,0c1.082.066,2.16.146,3.238.233,1.1.09,2.2.152,3.3.273,1.032.114,2.055.231,3.075.41,1.117.2,2.234.407,3.351.606a1.25,1.25,0,0,1-.484,2.453c-1.028-.184-2.059-.367-3.086-.559-1-.179-2-.3-3-.418-.965-.109-1.934-.183-2.9-.253-.935-.068-1.867-.157-2.8-.223-.316-.017-.631-.036-.948-.055l.075,0-.44-.026.108.008-.177-.011-.159-.009.082,0c-1.024-.068-2.041-.169-3.059-.277-.969-.106-1.93-.25-2.9-.352l-3.168-.316c-.948-.1-1.895-.228-2.843-.305a6.479,6.479,0,0,0-1.376.074,1.19,1.19,0,0,1-.918-.308,1.263,1.263,0,0,1-.422-.844,1.287,1.287,0,0,1,.309-.922,1.367,1.367,0,0,1,.843-.418,5.52,5.52,0,0,1,1.007-.084c.447,0,.895.039,1.341.072Zm11.283,1.2.076.005-.076-.005Zm.115.007h0Zm1.268,2.557.2.011-.2-.011Zm-.467-2.509-.156-.009c.052,0,.1,0,.156.009Zm-.507-.031-.121-.007-.059,0,.18.011Z"/>
    <path class="a" d="M631.658,119.222q1.5.252,3,.48c1.916.291,3.839.516,5.774.657,1.316.071,2.632.107,3.945.191,1.383.086,2.765.172,4.14.3,2.618.242,5.231.554,7.825.984,2.324.383,4.652.734,6.988,1.02,2.512.308,5.015.691,7.527.992a1.251,1.251,0,0,1,.457,2.265,1.3,1.3,0,0,1-.937.188c-1.43-.168-2.856-.344-4.278-.563-1.281-.195-2.57-.343-3.859-.5-1.359-.172-2.715-.368-4.066-.575-1.3-.2-2.59-.429-3.887-.621-1.7-.25-3.414-.469-5.125-.629-1.754-.168-3.5-.293-5.257-.406-1.3-.056-2.611-.092-3.911-.187q-1.841-.135-3.672-.36c-1.234-.152-2.465-.347-3.7-.543-1.2-.187-2.385-.415-3.592-.531-.159-.007-.318-.012-.479-.012a1.25,1.25,0,0,1-.187-2.492h.1a19.516,19.516,0,0,1,3.18.344Zm12,3.765c.078.006.159.012.238.016l-.238-.016Z"/>
    <path class="a" d="M626.844,124.827c.529.024,1.061.057,1.593.092-.043,0-.085,0-.128-.006l.333.019h0c1.261.072,2.53.127,3.783.285,1.34.164,2.684.332,4.016.563,2.64.457,5.285.922,7.945,1.258,2.582.332,5.18.562,7.77.824,1.316.133,2.632.238,3.949.336,1.184.085,2.368.187,3.555.264-.045,0-.091,0-.137-.006l.162.008.174.011-.155-.01c2.447.123,4.891.273,7.334.487,2.528.219,5.051.492,7.586.66l-.336-.023c.749.045,1.5.09,2.251.142,1.655.089,3.317.142,4.976.127,1.859-.016,3.707.1,5.562.188a1.349,1.349,0,0,1,.922.308,1.246,1.246,0,0,1,.11,1.766,1.2,1.2,0,0,1-.844.418c-1.027-.047-2.059-.121-3.09-.157-.961-.031-1.918-.019-2.879-.027-2.035-.015-4.062-.086-6.094-.226h.036c-1.149-.069-2.292-.143-3.438-.244-1.125-.1-2.25-.214-3.379-.32-2.228-.206-4.461-.364-6.693-.52q-4-.192-7.99-.535c-1.4-.125-2.8-.281-4.2-.418-1.383-.132-2.77-.257-4.153-.414-2.656-.3-5.305-.73-7.941-1.187-1.289-.223-2.582-.442-3.883-.613-1.363-.18-2.723-.325-4.094-.414-.15-.011-.3-.02-.452-.029l.105,0-.323-.019h0q-.747-.044-1.5-.089l-.263-.013a1.35,1.35,0,0,1-.922-.309,1.244,1.244,0,0,1-.11-1.765,1.2,1.2,0,0,1,.812-.419Zm32.861,3.638h-.019l-.025,0,.044,0Zm-30.91-1.044.218.014-.223-.014Zm-.152-2.489h0l-.205-.013.206.013Z"/>
    <path class="a" d="M625.642,131.339l.984.106c.644.07,1.289.141,1.93.207,1.3.133,2.589.258,3.879.441,1.343.192,2.687.375,4.039.536,1.316.16,2.644.257,3.964.4,1.356.148,2.711.351,4.059.539s2.66.437,3.988.672q4.026.714,8.086,1.219c1.042.126,2.086.209,3.131.289,1.333.072,2.67.126,4.006.183,1.355.055,2.715.055,4.074.078,1.344.02,2.692.028,4.035.047s2.66.071,3.993.117c2.589.09,5.179.207,7.769.336a36.486,36.486,0,0,0,3.981.063c1.41-.082,2.82-.231,4.226-.367a1.252,1.252,0,0,1,.188,2.5c-1.438.136-2.875.285-4.317.371a35.655,35.655,0,0,1-3.922-.07c-2.73-.145-5.465-.254-8.2-.348-1.324-.047-2.645-.09-3.969-.109s-2.668-.028-4-.051c-2.734-.047-5.48-.082-8.207-.282s-5.426-.531-8.113-.972c-2.707-.449-5.4-.973-8.121-1.34-1.34-.184-2.684-.363-4.031-.512-1.325-.148-2.657-.254-3.985-.41-1.25-.152-2.5-.355-3.75-.512-1.332-.168-2.672-.3-4.012-.441-.949-.1-1.9-.208-2.846-.306q-.055,0-.111.009a1.25,1.25,0,0,1-.187-2.492c.073,0,.146-.007.219-.007a11.863,11.863,0,0,1,1.215.108Zm-1.054,2.38.112.007c-.037,0-.075-.006-.112-.007Z"/>
    <path class="a" d="M639.987,140.981c1.984.336,3.972.671,5.972.921s4.019.448,6.039.585c2.693.15,5.381.339,8.059.65,1.324.152,2.648.332,3.973.476s2.668.25,4,.407c.976.117,1.949.212,2.928.278-.079,0-.159-.01-.237-.013l.317.019h0c.844.052,1.687.13,2.531.192,1.051.082,2.1.153,3.152.223a1.194,1.194,0,0,1,.8.527,1.258,1.258,0,0,1-.34,1.738,1.384,1.384,0,0,1-.937.188c-.883-.059-1.762-.117-2.645-.184-.816-.061-1.629-.142-2.445-.2-1.289-.076-2.569-.194-3.852-.343-1.351-.16-2.711-.265-4.066-.41-1.258-.14-2.516-.32-3.778-.461-1.433-.156-2.863-.293-4.3-.4-.733-.057-1.462-.107-2.194-.154l.12,0-.218-.011-.118-.008.082.006c-2.177-.12-4.346-.278-6.508-.553-2.281-.285-4.547-.644-6.809-1.027a1.25,1.25,0,0,1,.481-2.453Zm31.186,5.808c.093.007.184.013.279.016l-.279-.016Zm-18.314-1.773.1.006-.134-.008.036,0Zm18.179-.712h0l-.08-.006.08.006Z"/>
    <path class="a" d="M639.988,149.1c1.332.1,2.664.227,4,.352,1.207.113,2.406.289,3.613.406.645.059,1.293.125,1.938.2.554.063,1.109.157,1.664.227q2.192.282,4.39.543a1.258,1.258,0,0,1,.989,1.469,1.274,1.274,0,0,1-.531.8,1.3,1.3,0,0,1-.938.187q-2.155-.258-4.312-.531c-1.227-.16-2.45-.324-3.684-.438-1.176-.113-2.344-.289-3.52-.4-1.363-.129-2.726-.254-4.089-.359a1.2,1.2,0,0,1-.8-.528,1.266,1.266,0,0,1-.188-.937,1.246,1.246,0,0,1,.528-.8,1.186,1.186,0,0,1,.709-.2c.075,0,.152,0,.232.01Z"/>
    <path class="a" d="M94.626,59.626a20.835,20.835,0,0,0-6.731,1.16A17.187,17.187,0,0,0,82.469,63.8a21.044,21.044,0,0,0-4.843,6.055,17.158,17.158,0,0,0-1.793,5.922c-.16,1.289-.125,2.621-.16,3.918a27.27,27.27,0,0,0,.089,4.652,26.846,26.846,0,0,0,1.211,4.594A20.086,20.086,0,0,0,78.7,92.494a18,18,0,0,0,3.094,4.171,16.859,16.859,0,0,0,2.742,2.219,15.888,15.888,0,0,0,3.586,1.586,22.022,22.022,0,0,0,4.66.945c1.152.112,2.284.131,3.423.329a49.139,49.139,0,0,1,9.649,3.477,16.331,16.331,0,0,1,2.288,1.656,18.2,18.2,0,0,1,1.765,2.385,37.293,37.293,0,0,1,2.991,6.257,25.982,25.982,0,0,1,.627,4.1,22.76,22.76,0,0,1-.39,3.463,21.543,21.543,0,0,1-1.24,3.123c-.6,1.273-1.2,2.547-1.843,3.8a22.833,22.833,0,0,1-2.584,3.755,19.912,19.912,0,0,1-2.176,1.745,17.893,17.893,0,0,1-2.675,1.135,21.326,21.326,0,0,1-3.477.7c-.356-.028-.7-.072-1.05-.131a33.348,33.348,0,0,1-5.293-2.22,29.763,29.763,0,0,1-5.038-3.421,25.732,25.732,0,0,1-2.7-3.4,20.759,20.759,0,0,1-1.31-2.871,22.089,22.089,0,0,1-.533-4.34,4.067,4.067,0,0,0-1.707-2.77,4.246,4.246,0,0,0-5.934.953l-.539,1a4.241,4.241,0,0,0-.215,2.16c.035,1,.121,2,.254,3a18.659,18.659,0,0,0,.906,3.473,22.951,22.951,0,0,0,3.219,5.855c2.969,4.125,7.4,6.872,11.941,8.969a20.983,20.983,0,0,0,7.481,2.227,14.147,14.147,0,0,0,4.019-.457,35.546,35.546,0,0,0,4-1.141,17.741,17.741,0,0,0,5.985-3.668,26.043,26.043,0,0,0,2.738-3.023,20.39,20.39,0,0,0,1.68-2.719c1.195-2.211,2.344-4.465,3.351-6.766a17.368,17.368,0,0,0,1.1-3.593,22.886,22.886,0,0,0,.445-2.723,24.2,24.2,0,0,0-2.261-12.07,58.654,58.654,0,0,0-3.157-5.758,16.638,16.638,0,0,0-4.492-4.8,26.652,26.652,0,0,0-5.84-3.012c-1.879-.73-3.738-1.422-5.676-1.98a27.028,27.028,0,0,0-5.039-1.043c-1.258-.112-2.482-.171-3.722-.386a17.575,17.575,0,0,1-2.558-.895c-.411-.273-.8-.559-1.185-.871A16.473,16.473,0,0,1,86.269,88.7a22.485,22.485,0,0,1-1.74-3.886,16.408,16.408,0,0,1-.431-2.36c0-1.151.045-2.3.082-3.452a26.391,26.391,0,0,1,.288-3.454,15.9,15.9,0,0,1,.8-2.061,17.763,17.763,0,0,1,1.615-2.193,16.04,16.04,0,0,1,2.057-1.7,18.582,18.582,0,0,1,2.54-1.066,21.014,21.014,0,0,1,2.867-.432,13.51,13.51,0,0,1,2.026.18,15.79,15.79,0,0,1,1.81.636,18.084,18.084,0,0,1,2.53,1.937c3.2,3.179,5.824,6.865,8.725,10.306a4.252,4.252,0,1,0,6.637-5.317c-2.867-3.4-5.453-7.046-8.605-10.195a35.947,35.947,0,0,0-3.047-2.781,16.407,16.407,0,0,0-3.426-1.992,16.853,16.853,0,0,0-3.434-.989,11.879,11.879,0,0,0-2.486-.253c-.148,0-.3,0-.447.007Zm15.785,69.727-.1.179.1-.179Z"/>
    <path class="a" d="M157.226,69.281c-1.125.11-2.246.223-3.363.368a17.788,17.788,0,0,0-4.844,1.363,25.615,25.615,0,0,0-5.637,3.64,34.694,34.694,0,0,0-4.84,5.11,33.193,33.193,0,0,0-3.281,4.859,39.514,39.514,0,0,0-2.684,5.809,55.757,55.757,0,0,0-1.828,6.773,38.162,38.162,0,0,0-1.035,6.25,52.1,52.1,0,0,0,.067,7.035c.117,1.508.257,3.008.433,4.512a41.021,41.021,0,0,0,.891,5.461,35.7,35.7,0,0,0,4.394,10.418,37.736,37.736,0,0,0,7.7,8.3,25.364,25.364,0,0,0,4.1,2.933,22.071,22.071,0,0,0,3.461,1.625,24.69,24.69,0,0,0,2.557.668c1.863.454,3.723.964,5.623,1.235a14.508,14.508,0,0,0,4.785-.207,17.415,17.415,0,0,0,3.859-1.293,23.216,23.216,0,0,0,3.524-2.176c.914-.656,1.828-1.305,2.7-2.012a26.182,26.182,0,0,0,2.644-2.59,23.491,23.491,0,0,0,1.833-2.211,30.994,30.994,0,0,0,3.207-5.589,34.437,34.437,0,0,0,2.039-7.153,40.281,40.281,0,0,0,.773-5.328c.109-1.824.078-3.66.043-5.488-.047-2.453-.262-4.9-.441-7.348a48.1,48.1,0,0,0-1.356-8.023,37.42,37.42,0,0,0-2.875-7.949c-.637-1.262-1.273-2.524-1.871-3.8-.542-1.154-1.136-2.25-1.78-3.336l.1.164L176,81.1q-.219-.368-.445-.736c.08.135.162.269.243.4a37.043,37.043,0,0,0-3.942-5.564,29.287,29.287,0,0,0-3.289-3.035,13.494,13.494,0,0,0-4.6-2.418,4.484,4.484,0,0,0-3.2.094c-.129.056-.255.12-.377.188a4.2,4.2,0,0,0-2.541-.777c-.2,0-.406.011-.613.03Zm1.347,8.395A3.514,3.514,0,0,0,160,77.215a3.189,3.189,0,0,0,.984.5,10.171,10.171,0,0,1,1.385.513,19.329,19.329,0,0,1,2.405,1.85,29.071,29.071,0,0,1,3.827,5.09c-.049-.083-.1-.165-.148-.247l.325.533c1.049,1.863,1.917,3.837,2.862,5.753a42.052,42.052,0,0,1,2.314,5.634,66.378,66.378,0,0,1,1.934,14.236,52.373,52.373,0,0,1-.119,5.97,52.034,52.034,0,0,1-1,6.021,26.187,26.187,0,0,1-1.777,4.608,27.455,27.455,0,0,1-3.039,4.275,36.4,36.4,0,0,1-5.033,3.987,15,15,0,0,1-2.253,1.028,13.928,13.928,0,0,1-1.765.288,17.244,17.244,0,0,1-2.605-.329q-1.609-.393-3.225-.765a18.936,18.936,0,0,1-2.959-1.038,35.768,35.768,0,0,1-5.944-4.579,31.212,31.212,0,0,1-3.769-4.572,36.308,36.308,0,0,1-2.792-6.436,61.019,61.019,0,0,1-1.473-11.054,42.8,42.8,0,0,1,.116-5.051,42.739,42.739,0,0,1,.984-5.5,40.1,40.1,0,0,1,3.1-8.655,39.253,39.253,0,0,1,4.918-6.661,28.8,28.8,0,0,1,4.142-3.3,17.318,17.318,0,0,1,2.2-.975,43.236,43.236,0,0,1,4.976-.659Z"/>
    <path class="a" d="M217.731,72.56a16.109,16.109,0,0,0-4.781,1.355,18.082,18.082,0,0,0-3.383,2A32,32,0,0,0,205,79.806a43.583,43.583,0,0,0-4.554,5.535,45.528,45.528,0,0,0-5.988,11.723c-.25.765-.451,1.535-.639,2.315-.534,2.378-.919,4.751-1.24,7.169-.137,1.059-.274,2.113-.442,3.164a26.691,26.691,0,0,0-.375,2.938,44.208,44.208,0,0,0,.324,7.07,40.5,40.5,0,0,0,1.536,6.859c-.106-.347-.207-.695-.309-1.043a38.628,38.628,0,0,0,5.254,11.676,26.082,26.082,0,0,0,4.863,5.039,29.183,29.183,0,0,0,6.028,3.946,17.533,17.533,0,0,0,6.843,1.691,38.091,38.091,0,0,0,6.367-.309,21.984,21.984,0,0,0,6.153-1.523,17.675,17.675,0,0,0,3.191-1.863c.828-.582,1.653-1.168,2.446-1.8a29.112,29.112,0,0,0,2.3-2.09,4.546,4.546,0,0,0,1.571-2.906,4.24,4.24,0,0,0-3.817-4.641,4.092,4.092,0,0,0-3.07.91,34.388,34.388,0,0,1-5.154,4.165,16.3,16.3,0,0,1-1.952.854,36.8,36.8,0,0,1-6.007.75,22.208,22.208,0,0,1-3.239-.227,17.85,17.85,0,0,1-2.781-1.055,32.454,32.454,0,0,1-4.8-3.6,21.361,21.361,0,0,1-2.5-2.965,39.807,39.807,0,0,1-3.338-7.521c-.057-.193-.113-.387-.17-.581a39.74,39.74,0,0,1-1.309-8.566,57.888,57.888,0,0,1,.7-6.412c.289-2.271.557-4.556,1.04-6.8a37.224,37.224,0,0,1,2.684-7c.853-1.5,1.75-2.964,2.718-4.4a40.1,40.1,0,0,1,3.459-4.367c.656-.657,1.332-1.286,2.048-1.883.8-.673,1.671-1.269,2.534-1.862a16.987,16.987,0,0,1,2.381-1.026,16.268,16.268,0,0,1,2.174-.289,19.681,19.681,0,0,1,2.389.266,19.151,19.151,0,0,1,2.664,1.047,69.586,69.586,0,0,1,7.061,5.289,4.251,4.251,0,0,0,4.985-6.886c-1.77-1.4-3.528-2.8-5.328-4.153a21.92,21.92,0,0,0-3.231-1.961,16.485,16.485,0,0,0-3.047-1.269,23.276,23.276,0,0,0-4.039-.77c-.352-.034-.709-.048-1.066-.048-.864,0-1.735.081-2.586.15Zm-15.667,28.573-.095.416.022-.1c.024-.1.049-.209.073-.314Zm-.131.566c-.048.209-.1.417-.143.627q.071-.313.143-.627Zm-8.272-1.647q.078-.338.158-.673c.03-.133.061-.267.092-.4-.082.359-.168.715-.25,1.074Z"/>
    <path class="a" d="M259.281,94.036c-.426,3.164-.824,6.336-1.476,9.461-.622,2.972-1.24,5.945-1.906,8.906-.295,1.285-.563,2.57-.782,3.876-.223,1.347-.466,2.687-.74,4.021-.543,2.184-1.2,4.329-1.756,6.506-.59,2.316-1.2,4.625-1.793,6.937-.578,2.235-1.18,4.465-1.766,6.7a62.747,62.747,0,0,0-1.9,7.605,4.251,4.251,0,1,0,8.461.828c.042-.328.1-.65.161-.973.612-2.439,1.356-4.852,2-7.284.707-2.688,1.422-5.379,2.113-8.071.371-1.445.7-2.9,1.11-4.34.433-1.539.886-3.074,1.265-4.629.749-3.042,1.164-6.136,1.82-9.2.731-3.158,1.361-6.336,2.051-9.5.723-3.3,1.149-6.664,1.6-10.011a4.284,4.284,0,0,0-3.82-4.645c-.141-.014-.28-.02-.417-.02a4.332,4.332,0,0,0-4.228,3.836Zm-3.156,17.4-.1.407c.032-.136.063-.271.1-.407Z"/>
    <path class="a" d="M304.59,96.364a6.091,6.091,0,0,0-1.418.308,11.843,11.843,0,0,0-2.848,1.078,14.9,14.9,0,0,0-2.855,2.051,19.085,19.085,0,0,0-2.535,2.942c-1.125,1.64-2.055,3.414-3.113,5.093-1.168,1.852-2.418,3.641-3.536,5.52a62.974,62.974,0,0,0-3.16,6.086c-1.222,2.676-2.488,5.332-3.7,8.011-1.238,2.743-2.332,5.536-3.48,8.317-1.137,2.758-2.27,5.516-3.227,8.34-1.012,2.992-1.992,5.98-2.887,9.008a4.463,4.463,0,0,0,.094,3.2,4.252,4.252,0,0,0,7.871-.227c.981-3.316,2.063-6.582,3.172-9.855,1.066-3.137,2.426-6.172,3.656-9.246,1.2-3.008,2.465-5.969,3.848-8.9,1.307-2.775,2.514-5.6,3.9-8.343,1.283-2.278,2.753-4.425,4.152-6.637a61.4,61.4,0,0,1,4.245-6.646,12.679,12.679,0,0,1,1.352-1.136,8.658,8.658,0,0,1,.907-.4c.2-.049.411-.091.619-.122.233.018.464.04.695.071l.046.016c.1.21.182.421.262.635a38.346,38.346,0,0,1,.7,6.579q.066,2.6.058,5.2c0,1.949.058,3.906-.039,5.855-.09,1.836-.172,3.672-.274,5.5s-.137,3.668-.344,5.5a105.835,105.835,0,0,0-.929,11.766,46.512,46.512,0,0,1-.2,5.82c-.277,2.184-.672,4.348-1.132,6.5a31.39,31.39,0,0,0-.727,5.942,4.513,4.513,0,0,0,.914,3.07,4.251,4.251,0,0,0,5.977.66,4.133,4.133,0,0,0,1.574-2.9c.078-4.1,1.3-8.039,1.808-12.094a45.165,45.165,0,0,0,.246-6,57,57,0,0,1,.25-5.695c.18-1.965.415-3.93.637-5.891.215-1.887.3-3.777.375-5.676.074-1.832.2-3.664.274-5.5.078-1.906.047-3.812.047-5.718a101.794,101.794,0,0,0-.481-12.047,22.249,22.249,0,0,0-.394-2.469,11.307,11.307,0,0,0-1.579-3.8,8.868,8.868,0,0,0-1.5-1.7,7.8,7.8,0,0,0-4.25-1.942c-.211-.039-.414-.078-.625-.1a10.5,10.5,0,0,0-1.2-.061c-.413,0-.826.016-1.245.03Zm1.991,8.629a3.413,3.413,0,0,1,.349.332q-.174-.166-.349-.332Z"/>
    <path class="a" d="M288.675,124.04a4.254,4.254,0,0,0-.656,5.976,4.478,4.478,0,0,0,2.9,1.575c.992.178,1.978.361,2.961.571,2.428.6,4.793,1.42,7.227,2.007a33.841,33.841,0,0,1,3.394.992c.512.184,1.02.379,1.532.559a29.707,29.707,0,0,0,3.129.816,4.063,4.063,0,0,0,3.074-.914,4.255,4.255,0,0,0,.656-5.977c-.273-.261-.551-.523-.824-.785a4.241,4.241,0,0,0-1.939-.769c-1.157-.327-2.257-.79-3.4-1.157-1.508-.488-3.062-.824-4.594-1.234-1.511-.406-2.988-.93-4.5-1.316-1.945-.5-3.906-.9-5.878-1.254a2.745,2.745,0,0,0-.5-.044,4.369,4.369,0,0,0-2.577.954Zm21.317,4.035h0Z"/>
    <path class="a" d="M346.137,109.7c-.723,2.094-1.547,4.148-2.277,6.238-.672,1.926-1.305,3.867-1.926,5.813-.6,1.89-1.309,3.75-1.992,5.609-.739,2-1.45,4.008-2.246,5.988-1.461,3.622-2.942,7.235-4.352,10.875-.77,1.989-1.461,4-2.254,5.981s-1.566,3.937-2.3,5.918q-.738,1.974-1.5,3.93c-.472,1.214-.871,2.453-1.316,3.675a11.465,11.465,0,0,0-.949,5.676,5.734,5.734,0,0,0,3.523,4.176c.567.262,1.133.512,1.723.719,2.305.812,4.578,1.8,6.934,2.453,2.572.713,5.2,1.084,7.811,1.635,1.917.508,3.787,1.132,5.685,1.7a61.135,61.135,0,0,0,7.1,1.531,4.138,4.138,0,0,0,3.071-.914,4.251,4.251,0,0,0,.66-5.977,4.467,4.467,0,0,0-2.907-1.57c-1.274-.225-2.542-.447-3.807-.71-2.141-.555-4.212-1.352-6.349-1.907-2.4-.623-4.832-.978-7.245-1.486-1.512-.394-2.977-.91-4.454-1.436-.937-.33-1.882-.656-2.817-1.006.31-.93.65-1.85.981-2.768.68-1.886,1.426-3.757,2.152-5.628,1.559-3.989,3.078-7.993,4.6-12,1.391-3.652,2.953-7.234,4.367-10.878,1.477-3.8,2.863-7.645,4.137-11.516.6-1.816,1.195-3.637,1.824-5.445.668-1.914,1.43-3.793,2.094-5.711a4.3,4.3,0,0,0-2.5-5.469,4.117,4.117,0,0,0-1.448-.259,4.241,4.241,0,0,0-4.021,2.755Z"/>
    <path class="a" d="M405.664,117.735a28.772,28.772,0,0,0-7.175,1.114c-4.3,1.2-8.473,3.644-10.743,7.625a13.151,13.151,0,0,0-1.867,5.371,10.445,10.445,0,0,0,1.4,5.836,26.856,26.856,0,0,0,4.055,5.609,65.257,65.257,0,0,0,8.168,6.941c2.72,2.026,5.576,3.915,8.146,6.13a30.831,30.831,0,0,1,2.214,2.5,23.46,23.46,0,0,1,1.517,2.235,34.712,34.712,0,0,1,2.735,6.134,24.756,24.756,0,0,1,.627,4.36,34.856,34.856,0,0,1-.8,6.349,18.59,18.59,0,0,1-1.227,3.162,25.3,25.3,0,0,1-2.542,3.55,16.879,16.879,0,0,1-2,1.653,29.171,29.171,0,0,1-5.2,2.034,23.1,23.1,0,0,1-3.089.66,14.582,14.582,0,0,1-1.921-.258A21.246,21.246,0,0,1,394.4,187.3a35.231,35.231,0,0,1-5.937-4.038,18.89,18.89,0,0,1-2.044-2.562,24.777,24.777,0,0,1-1.682-3.775,23.059,23.059,0,0,1-.584-3.114,4.25,4.25,0,0,0-7.641-1.817,4.372,4.372,0,0,0-.75,3.164,24.612,24.612,0,0,0,4.852,12.051,25.452,25.452,0,0,0,5.191,4.746,61.906,61.906,0,0,0,5.648,3.332,21.614,21.614,0,0,0,6.727,2.109c2.816.458,5.723-.5,8.379-1.324a30.342,30.342,0,0,0,4.9-1.9,16.633,16.633,0,0,0,2.91-1.867,25.971,25.971,0,0,0,2.946-2.95,26.387,26.387,0,0,0,3.488-5.5,25.069,25.069,0,0,0,1.9-6.539,25.7,25.7,0,0,0,.469-6.336,23.6,23.6,0,0,0-.664-5.125,35.4,35.4,0,0,0-1.969-5.519,45.768,45.768,0,0,0-3-5.3,22.32,22.32,0,0,0-3.449-4.187c-.984-.942-1.977-1.84-3.039-2.688-.828-.656-1.715-1.25-2.566-1.875a113.417,113.417,0,0,1-9.944-7.73,29.05,29.05,0,0,1-3.45-4.257,16.86,16.86,0,0,1-.716-1.565c0-.033-.011-.065-.016-.1.009-.151.023-.3.042-.449.137-.375.288-.739.452-1.1a13.74,13.74,0,0,1,.939-1.338,15.866,15.866,0,0,1,1.869-1.471,18.215,18.215,0,0,1,2.786-1.2,28.128,28.128,0,0,1,5.067-.885,22.751,22.751,0,0,1,3.843.325,24.445,24.445,0,0,1,4.352,1.651,13.432,13.432,0,0,1,1.577,1.1,35.8,35.8,0,0,1,2.816,3.631,4.252,4.252,0,0,0,7.55-2.246,4.413,4.413,0,0,0-.914-3.07c-.679-.942-1.351-1.895-2.086-2.8a16.8,16.8,0,0,0-3.667-3.348,22.632,22.632,0,0,0-3.661-1.882,22.123,22.123,0,0,0-3.05-1.036,22.764,22.764,0,0,0-5.982-.793c-.21,0-.42,0-.632.008ZM394.5,133.279l.027.093-.027-.093Z"/>
  </g>
</svg>
