<svg xmlns="http://www.w3.org/2000/svg" viewBox="0 0 1125.09 1765.59"><defs><style>.cls-1{fill:#2f345b;}.cls-2{fill:#fefefe;}</style></defs><title>Asset 1</title><g id="Layer_2" data-name="Layer 2"><g id="Layer_1-2" data-name="Layer 1"><g id="Layer_2-2" data-name="Layer 2"><g id="Draw_Layer-2" data-name="Draw Layer-2"><path class="cls-1" d="M846.65,566.62a.26.26,0,0,0-.17.09.21.21,0,0,0-.06.18.25.25,0,0,0,.27.23.28.28,0,0,0,.17-.09.28.28,0,0,0,.06-.18.25.25,0,0,0-.27-.23Z"/><path class="cls-2" d="M1040,108.55a1.15,1.15,0,0,0-.31-1.55c-1.38-1.07-2.77-2.12-4.12-3.21s-2.53-2-3.79-3q-4-3.09-8-6c-1.29-.93-2.55-1.91-3.81-2.87s-2.73-2.06-4.11-3.06c-2.59-1.87-5.2-3.72-7.8-5.57l-2.65-1.87c-.88-.63-1.79-1.21-2.61-1.91l-.06-.08a1.12,1.12,0,0,0-1.56-.17,1.14,1.14,0,0,0-.11,1.57,5.7,5.7,0,0,0,1,.9,7.6,7.6,0,0,0,1,.68l2,1.44,3.82,2.7c2.6,1.85,5.21,3.69,7.76,5.6l4,3c1.34,1,2.71,2,4.07,3s2.62,2,3.92,3,2.44,1.85,3.66,2.85c1,.79,2,1.6,3,2.41s2.09,1.61,3.14,2.41a1.07,1.07,0,0,0,1.29,0,.82.82,0,0,0,.24-.25Zm-37-28.87-.13-.11Z"/><path class="cls-2" d="M1011.4,107.92a7.89,7.89,0,0,0,.33-.72,14.61,14.61,0,0,1,1.12-1.5c.45-.56.87-1.14,1.27-1.74.81-1.23,1.61-2.46,2.38-3.71l1.19-1.93c.41-.64.86-1.26,1.32-1.87.89-1.2,1.9-2.3,2.76-3.52a34.94,34.94,0,0,0,2.07-3.55,15.32,15.32,0,0,1,1.11-1.76c.45-.63.94-1.22,1.42-1.82.27-.34.52-.68.76-1s.45-.83.65-1.26a16.67,16.67,0,0,1,1-1.74c.8-1.31,1.69-2.58,2.54-3.86a1.17,1.17,0,0,0-.31-1.56,1.08,1.08,0,0,0-1.51.24h0c-.93,1.39-1.87,2.76-2.74,4.18a18.93,18.93,0,0,0-1,1.89,9.92,9.92,0,0,1-.87,1.43l-.81,1c-.46.57-.92,1.15-1.33,1.76s-.73,1.26-1.09,1.91-.76,1.37-1.16,2a16.72,16.72,0,0,1-1.24,1.75c-.44.56-.9,1.09-1.33,1.64s-.94,1.23-1.4,1.85c-.8,1.1-1.46,2.31-2.19,3.47s-1.54,2.42-2.34,3.6c-.38.55-.79,1.06-1.2,1.58l-.64.81a4.44,4.44,0,0,0-.45.83,1.09,1.09,0,0,0-.55,1.18,1.17,1.17,0,0,0,1.3.92,1.71,1.71,0,0,0,.72-.27,1.66,1.66,0,0,0,.26-.27Z"/><path class="cls-2" d="M1031.7,91.12a1.09,1.09,0,1,0-.1,1.57A1.12,1.12,0,0,0,1031.7,91.12Z"/><path class="cls-2" d="M1022.87,105.14a1.09,1.09,0,0,0-1.72,1.34l.06.07a1.09,1.09,0,1,0,1.72-1.34Z"/><path class="cls-2" d="M1018.27,81.89a1.09,1.09,0,1,0-.1,1.57A1.12,1.12,0,0,0,1018.27,81.89Z"/><path class="cls-2" d="M1009.82,94.39a1.09,1.09,0,1,0-.11,1.58A1.15,1.15,0,0,0,1009.82,94.39Z"/><path class="cls-2" d="M1045,110.88a1.09,1.09,0,1,0-.1,1.57A1.14,1.14,0,0,0,1045,110.88Z"/><path class="cls-2" d="M1034.16,71.17a1.09,1.09,0,1,0-.11,1.57A1.12,1.12,0,0,0,1034.16,71.17Z"/><path class="cls-2" d="M1005.85,113.41a1.13,1.13,0,0,0-1.56-.17,1.15,1.15,0,0,0-.11,1.58,1.09,1.09,0,0,0,1.67-1.41Z"/><path class="cls-2" d="M997.58,76.08a1.09,1.09,0,1,0-.11,1.57A1.12,1.12,0,0,0,997.58,76.08Z"/><path class="cls-2" d="M1098.82,90.86a2.17,2.17,0,1,0-3.2,2.93,2.16,2.16,0,0,0,3,.2A2.24,2.24,0,0,0,1098.82,90.86Z"/><path class="cls-2" d="M1094.89,97a2.18,2.18,0,1,0-.21,3.14A2.26,2.26,0,0,0,1094.89,97Z"/><path class="cls-2" d="M1101.4,83.14a2.18,2.18,0,1,0-.21,3.14A2.26,2.26,0,0,0,1101.4,83.14Z"/><path class="cls-2" d="M1103.83,93.52a2.17,2.17,0,1,0-3.2,2.93,2.16,2.16,0,0,0,3,.2A2.24,2.24,0,0,0,1103.83,93.52Z"/><path class="cls-2" d="M1091.52,88.09a2.18,2.18,0,1,0-.21,3.14A2.24,2.24,0,0,0,1091.52,88.09Z"/><path class="cls-2" d="M967.32,138.7a5.14,5.14,0,0,0,.71-2.09,4.26,4.26,0,0,0-.42-2.33,5.2,5.2,0,0,0-1.13-1.54,5.45,5.45,0,0,0-2-1.23,4,4,0,0,0-2.11-.15,3.76,3.76,0,0,0-1.28.64,4.32,4.32,0,0,0-.86.67,8.61,8.61,0,0,0-1.16,1.52,5.42,5.42,0,0,0-.73,2.05,4.34,4.34,0,0,0,.33,2.25,4.73,4.73,0,0,0,.84,1.28,4.63,4.63,0,0,0,1.58,1.23,3.55,3.55,0,0,0,2.44.29,2.07,2.07,0,0,0,.67-.24h.2a3.8,3.8,0,0,0,1.28-.58l.19-.13a6.56,6.56,0,0,0,1.42-1.55Zm-3.8-2.62-.18.12h0Z"/><path class="cls-2" d="M973.43,140.15a2.17,2.17,0,1,0-3.2,2.93,2.16,2.16,0,0,0,3,.2A2.24,2.24,0,0,0,973.43,140.15Z"/><path class="cls-2" d="M973.23,129.89a2.17,2.17,0,1,0-3.2,2.93,2.16,2.16,0,0,0,3,.2A2.24,2.24,0,0,0,973.23,129.89Z"/><path class="cls-2" d="M968.71,123.6a2.17,2.17,0,1,0-3.2,2.93,2.16,2.16,0,0,0,3,.2A2.24,2.24,0,0,0,968.71,123.6Z"/><path class="cls-2" d="M959.93,126.64a2.18,2.18,0,1,0-.22,3.14A2.24,2.24,0,0,0,959.93,126.64Z"/><path class="cls-2" d="M953.39,134.12a2.17,2.17,0,1,0-3.2,2.93,2.16,2.16,0,0,0,3,.2A2.24,2.24,0,0,0,953.39,134.12Z"/><path class="cls-2" d="M955.94,142.29a2.17,2.17,0,1,0-3.2,2.93,2.16,2.16,0,0,0,3,.2A2.24,2.24,0,0,0,955.94,142.29Z"/><path class="cls-2" d="M964.44,145.38a2.17,2.17,0,1,0-3.2,2.93,2.16,2.16,0,0,0,3,.2A2.24,2.24,0,0,0,964.44,145.38Z"/><path class="cls-2" d="M1040.88,109.51a2.3,2.3,0,0,0-.7-3.09c-.64-.42-1.29-.81-1.89-1.29s-1.15-.86-1.74-1.28c-.84-.58-1.63-1.22-2.47-1.8s-1.63-1.16-2.44-1.75-1.62-1.14-2.4-1.75-1.76-1.3-2.63-2-1.62-1.27-2.44-1.88-1.72-1.27-2.56-1.93-1.65-1.29-2.49-1.92-1.43-1-2.13-1.49-1.39-1.14-2.11-1.66-1.69-1.25-2.54-1.85-1.68-1.13-2.49-1.74-1.31-1.06-2-1.57c-1.19-.89-2.35-1.84-3.56-2.7l-.77-.51a1.82,1.82,0,0,0-.56-.51,3.25,3.25,0,0,0-1.24-.45,2.07,2.07,0,0,0-1.94,1,2.31,2.31,0,0,0-.08,2.26,3.19,3.19,0,0,0,1.09,1.13l.75.52c.53.36,1,.75,1.55,1.15s1.32,1,2,1.47,1.23,1,1.85,1.49,1.61,1.14,2.41,1.7,1.74,1.3,2.63,1.92,1.47,1.13,2.2,1.71,1.34.94,2,1.41c1.72,1.22,3.31,2.61,5,3.84.81.57,1.58,1.2,2.37,1.8s1.82,1.33,2.72,2c1.59,1.21,3.19,2.44,4.85,3.57.83.57,1.66,1.15,2.47,1.76s1.36,1,2,1.48,1.45,1,2.2,1.53a2.11,2.11,0,0,0,3-.55Z"/><path class="cls-2" d="M1012.09,108.26c.48-.74,1.1-1.33,1.61-2a23.52,23.52,0,0,0,1.45-2.29,30.16,30.16,0,0,1,1.87-2.79,61.06,61.06,0,0,0,3.63-5.24l1.67-2.82c.51-.84,1-1.67,1.48-2.54,1.17-2.15,2.42-4.24,3.76-6.29.69-1,1.44-2,2.19-3,.33-.41.67-.79,1-1.2s.59-.8.91-1.17.9-1,1.33-1.45a2.17,2.17,0,0,0,.35-1.64,2.39,2.39,0,0,0-.94-1.48,2.2,2.2,0,0,0-1.62-.42,2.27,2.27,0,0,0-1.44.89l-.29.33c-.53.58-1.06,1.14-1.54,1.76s-1.08,1.32-1.6,2c-1.26,1.66-2.42,3.38-3.53,5.15s-1.85,3.36-2.82,5c-1.09,1.82-2.14,3.67-3.28,5.46-.78,1.23-1.65,2.39-2.53,3.55a42,42,0,0,0-2.55,3.8,19.55,19.55,0,0,1-1.72,2.51,11.14,11.14,0,0,0-1,1.29,2.29,2.29,0,0,0,.58,3.12,2.21,2.21,0,0,0,2.59,0,2,2,0,0,0,.47-.49Zm16.77-32.9.23-.22-.19.22Z"/><path class="cls-2" d="M814.78,114.62a1.17,1.17,0,0,0,.88-1.32c-.23-1.73-.46-3.46-.65-5.19s-.4-3.17-.59-4.75c-.4-3.33-.87-6.64-1.39-9.92-.26-1.57-.45-3.15-.67-4.72s-.47-3.39-.74-5.07c-.5-3.15-1-6.3-1.58-9.45l-.55-3.2c-.18-1.06-.41-2.12-.49-3.2v-.09a1.12,1.12,0,0,0-1-1.22h0a1.13,1.13,0,0,0-1.19,1,6.18,6.18,0,0,0,.08,1.36,7.33,7.33,0,0,0,.19,1.14l.42,2.46.79,4.61c.53,3.15,1.08,6.29,1.53,9.45.24,1.65.46,3.3.68,4.95s.51,3.32.77,5,.47,3.23.67,4.86l.59,4.6c.17,1.28.3,2.56.44,3.85s.34,2.62.52,3.92a1.06,1.06,0,0,0,.92.91,1,1,0,0,0,.34,0Z"/><path class="cls-2" d="M795,94a5.05,5.05,0,0,0,.74-.27,14.37,14.37,0,0,1,1.86-.27c.71-.08,1.41-.19,2.12-.33,1.44-.3,2.88-.6,4.31-.94l2.21-.52c.74-.17,1.5-.29,2.25-.39,1.48-.22,3-.28,4.44-.55a32.48,32.48,0,0,0,4-1,14.88,14.88,0,0,1,2-.46c.76-.12,1.52-.2,2.29-.29a11,11,0,0,0,1.28-.2,10.59,10.59,0,0,0,1.35-.43c.63-.22,1.27-.39,1.91-.55,1.5-.35,3-.62,4.53-.92a1.15,1.15,0,0,0,.88-1.32,1.1,1.1,0,0,0-1.25-.91h0c-1.64.34-3.28.63-4.89,1-.7.18-1.38.39-2,.63a8.34,8.34,0,0,1-1.62.4l-1.31.16c-.73.08-1.46.16-2.18.31s-1.42.37-2.12.58-1.51.42-2.27.61a15.42,15.42,0,0,1-2.12.37c-.7.09-1.4.14-2.1.22s-1.53.2-2.29.32c-1.35.21-2.67.6-4,.9s-2.8.62-4.21.89c-.65.13-1.3.2-2,.27l-1,.12a3.54,3.54,0,0,0-.91.27,1.1,1.1,0,0,0-1.22.45,1.16,1.16,0,0,0,.27,1.57,1.48,1.48,0,0,0,.7.31.77.77,0,0,0,.37,0Z"/><path class="cls-2" d="M821.26,96.45a1.12,1.12,0,0,0-1-1.22,1.14,1.14,0,0,0-.2,2.26,1.12,1.12,0,0,0,1.18-1Z"/><path class="cls-2" d="M805.09,100.12a1.12,1.12,0,0,0-1-1.22,1.14,1.14,0,0,0-.2,2.26,1.12,1.12,0,0,0,1.18-1Z"/><path class="cls-2" d="M818.3,80.43a1.13,1.13,0,0,0-1-1.22,1.14,1.14,0,1,0,1,1.27Z"/><path class="cls-2" d="M803.47,83.29a1.09,1.09,0,0,0-2.16-.28.34.34,0,0,0,0,.1,1.09,1.09,0,0,0,2.16.29S803.47,83.33,803.47,83.29Z"/><path class="cls-2" d="M816.71,119.84a1.09,1.09,0,1,0-1.19,1A1.13,1.13,0,0,0,816.71,119.84Z"/><path class="cls-2" d="M837.09,84.08a1.09,1.09,0,1,0-2.16-.28.34.34,0,0,0,0,.1,1.09,1.09,0,0,0,2.16.29S837.09,84.12,837.09,84.08Z"/><path class="cls-2" d="M787.22,93.93a1.09,1.09,0,1,0-1.18,1A1.14,1.14,0,0,0,787.22,93.93Z"/><path class="cls-2" d="M807.77,61.68a1.11,1.11,0,0,0-1-1.21h0a1.12,1.12,0,0,0-1.19,1,1.13,1.13,0,0,0,1,1.22,1.12,1.12,0,0,0,1.18-1Z"/><path class="cls-2" d="M868.91,143.72a2.17,2.17,0,1,0-2.36,2.07A2.23,2.23,0,0,0,868.91,143.72Z"/><path class="cls-2" d="M861.78,145.3a2.17,2.17,0,1,0-2.37,2.07A2.23,2.23,0,0,0,861.78,145.3Z"/><path class="cls-2" d="M876.19,140.09a2.17,2.17,0,1,0-2.37,2.07A2.25,2.25,0,0,0,876.19,140.09Z"/><path class="cls-2" d="M870.57,149.15a2.17,2.17,0,1,0-2.36,2.07A2.23,2.23,0,0,0,870.57,149.15Z"/><path class="cls-2" d="M865.7,136.61a2.17,2.17,0,1,0-2.36,2.06A2.22,2.22,0,0,0,865.7,136.61Z"/><path class="cls-2" d="M742.09,84.57a5,5,0,0,0,2-1,4.25,4.25,0,0,0,1.36-1.95,5,5,0,0,0,.28-1.88,5.37,5.37,0,0,0-.51-2.26,4.13,4.13,0,0,0-1.38-1.61,4,4,0,0,0-1.37-.5,4.45,4.45,0,0,0-1.09-.13,9.25,9.25,0,0,0-1.89.26,5.39,5.39,0,0,0-2,.93,4.29,4.29,0,0,0-1.36,1.82,5.14,5.14,0,0,0-.31,1.5,4.86,4.86,0,0,0,.28,2,3.55,3.55,0,0,0,1.52,1.93,2.59,2.59,0,0,0,.65.31l.16.1a3.65,3.65,0,0,0,1.32.5H740a5.71,5.71,0,0,0,2.1-.09ZM741.26,80h0Z"/><path class="cls-2" d="M745.39,89.91A2.17,2.17,0,1,0,743,92a2.23,2.23,0,0,0,2.36-2.07Z"/><path class="cls-2" d="M752.51,82.52a2.17,2.17,0,1,0-2.42,2.07,2.24,2.24,0,0,0,2.37-2.07Z"/><path class="cls-2" d="M753.76,74.88a2.17,2.17,0,1,0-2.35,2A2.18,2.18,0,0,0,753.76,74.88Z"/><path class="cls-2" d="M745.39,70.82A2.17,2.17,0,1,0,743,72.88,2.24,2.24,0,0,0,745.39,70.82Z"/><path class="cls-2" d="M735.49,71.48a2.17,2.17,0,1,0-2.4,2.07,2.24,2.24,0,0,0,2.37-2.07Z"/><path class="cls-2" d="M731.51,79.07a2.17,2.17,0,1,0-2.36,2.06A2.24,2.24,0,0,0,731.51,79.07Z"/><path class="cls-2" d="M735.34,87.26a2.17,2.17,0,1,0-2.35,2A2.18,2.18,0,0,0,735.34,87.26Z"/><path class="cls-2" d="M814.75,116a2.3,2.3,0,0,0,1.69-2.69c-.15-.74-.34-1.48-.43-2.24s-.19-1.42-.32-2.14c-.18-1-.29-2-.47-3s-.34-2-.49-3-.34-2-.46-2.93-.32-2.16-.47-3.25-.25-2-.4-3.06-.32-2.11-.45-3.17-.24-2.08-.4-3.11c-.13-.86-.31-1.71-.45-2.57s-.18-1.78-.32-2.67-.31-2.07-.49-3.1-.38-2-.53-3c-.13-.83-.17-1.68-.29-2.51-.21-1.47-.36-3-.61-4.42l-.18-.91a1.94,1.94,0,0,0,0-.76,3.28,3.28,0,0,0-.57-1.19,2.05,2.05,0,0,0-2.05-.69,2.27,2.27,0,0,0-1.65,1.55,3.17,3.17,0,0,0,0,1.56l.17.9c.12.63.2,1.27.28,1.91.11.82.26,1.61.35,2.42l.25,2.36c.11,1,.33,2,.5,2.92s.32,2.15.51,3.22c.16.91.24,1.83.35,2.76s.28,1.61.41,2.42c.36,2.07.5,4.18.85,6.26.17,1,.27,2,.41,3s.34,2.23.49,3.35c.27,2,.53,4,.91,6,.19,1,.36,2,.5,3,.11.84.28,1.66.39,2.49s.29,1.75.47,2.63a2.21,2.21,0,0,0,1.82,1.76,1.89,1.89,0,0,0,.75,0Z"/><path class="cls-2" d="M795.31,94.73c.86-.18,1.72-.16,2.57-.3a26.67,26.67,0,0,0,2.65-.59,33,33,0,0,1,3.29-.65,55.69,55.69,0,0,0,6.27-1.14c1.06-.26,2.12-.55,3.17-.81s1.91-.47,2.85-.75c2.35-.69,4.71-1.28,7.11-1.79,1.21-.25,2.45-.42,3.68-.58.52-.07,1-.1,1.55-.16s1-.14,1.47-.18a15.1,15.1,0,0,0,2-.09,2.1,2.1,0,0,0,1.4-.9,2.43,2.43,0,0,0,.39-1.72,2.17,2.17,0,0,0-2.44-1.84h-.5a18.12,18.12,0,0,0-2.33.16c-.77.1-1.7.17-2.55.28-2.07.28-4.1.68-6.14,1.15-1.86.42-3.68,1.06-5.53,1.53-2.05.51-4.1,1.08-6.17,1.54-1.42.31-2.86.53-4.3.73a40.46,40.46,0,0,0-4.49.88,18,18,0,0,1-3,.55,11.3,11.3,0,0,0-1.64.2,2.3,2.3,0,0,0-1.79,2.61,2.21,2.21,0,0,0,1.82,1.85,1.56,1.56,0,0,0,.68,0ZM830.4,83.29h0Z"/><path class="cls-2" d="M312.79,1717.51h0a1.42,1.42,0,0,0-.24-.25,1.07,1.07,0,0,0-1.29,0c-1,.8-2.12,1.58-3.15,2.41s-2,1.62-3,2.41c-1.22,1-2.45,1.88-3.67,2.83s-2.6,2-3.91,3-2.74,2-4.07,3-2.65,2-4,3c-2.55,1.91-5.17,3.75-7.77,5.6l-3.81,2.7-2,1.44-1,.68a5.7,5.7,0,0,0-1,.9,1.09,1.09,0,1,0,1.66,1.4l.06-.08c.82-.7,1.73-1.28,2.61-1.91l2.65-1.87q3.9-2.77,7.81-5.57c1.38-1,2.74-2,4.1-3.06s2.52-1.94,3.81-2.87q4.07-2.93,8-6c1.26-1,2.55-1.94,3.79-3s2.74-2.14,4.12-3.21a1.15,1.15,0,0,0,.32-1.55Zm-37,28.87h0l-.13.11A.69.69,0,0,1,275.79,1746.38Z"/><path class="cls-2" d="M284.22,1718.14a4.69,4.69,0,0,1,.33.72,12.79,12.79,0,0,0,1.13,1.5c.45.56.86,1.14,1.26,1.74.81,1.23,1.61,2.46,2.38,3.71l1.2,1.93c.41.64.86,1.26,1.32,1.87.89,1.2,1.9,2.3,2.75,3.52a34.94,34.94,0,0,1,2.07,3.55,13.43,13.43,0,0,0,1.12,1.76c.44.63.93,1.22,1.41,1.82a12.52,12.52,0,0,1,.76,1c.24.41.45.83.65,1.26a16.67,16.67,0,0,0,1,1.74c.8,1.31,1.69,2.58,2.55,3.86a1.16,1.16,0,0,1-.31,1.56,1.1,1.1,0,0,1-1.53-.25c-.92-1.39-1.87-2.76-2.74-4.18a18.93,18.93,0,0,1-1-1.89,9.1,9.1,0,0,0-.87-1.43c-.26-.35-.54-.7-.81-1-.45-.57-.92-1.15-1.32-1.76s-.74-1.26-1.09-1.91-.77-1.37-1.17-2a15.36,15.36,0,0,0-1.24-1.75c-.43-.56-.89-1.09-1.33-1.64s-.94-1.23-1.39-1.85c-.81-1.1-1.47-2.31-2.2-3.47s-1.54-2.42-2.34-3.6c-.37-.55-.78-1.06-1.2-1.58-.21-.27-.43-.54-.63-.81a4,4,0,0,1-.46-.83,1.09,1.09,0,0,1-.54-1.18,1.17,1.17,0,0,1,1.3-.92,1.91,1.91,0,0,1,.72.27,1.6,1.6,0,0,1,.25.27Z"/><path class="cls-2" d="M304.53,1734.94a1.09,1.09,0,1,1-.11-1.57A1.14,1.14,0,0,1,304.53,1734.94Z"/><path class="cls-2" d="M295.69,1720.92a1.09,1.09,0,0,1-1.72-1.34l.06-.07a1.09,1.09,0,1,1,1.72,1.34Z"/><path class="cls-2" d="M291.09,1744.17a1.09,1.09,0,1,1-.11-1.57A1.12,1.12,0,0,1,291.09,1744.17Z"/><path class="cls-2" d="M282.64,1731.67a1.09,1.09,0,1,1-.13-1.54A1.09,1.09,0,0,1,282.64,1731.67Z"/><path class="cls-2" d="M317.84,1715.18a1.09,1.09,0,1,1-.11-1.57A1.14,1.14,0,0,1,317.84,1715.18Z"/><path class="cls-2" d="M307,1754.89a1.09,1.09,0,1,1-1.79-1.25l.13-.15a1.09,1.09,0,0,1,1.78,1.25Z"/><path class="cls-2" d="M278.67,1712.65a1.1,1.1,0,0,1-1.54.07,1.09,1.09,0,0,1,1.44-1.64A1.14,1.14,0,0,1,278.67,1712.65Z"/><path class="cls-2" d="M270.4,1750a1.1,1.1,0,0,1-1.54.07,1.09,1.09,0,0,1,1.44-1.64A1.12,1.12,0,0,1,270.4,1750Z"/><path class="cls-2" d="M371.64,1735.2a2.17,2.17,0,1,1-.21-3.13A2.24,2.24,0,0,1,371.64,1735.2Z"/><path class="cls-2" d="M367.71,1729.05a2.18,2.18,0,1,1-.21-3.14A2.26,2.26,0,0,1,367.71,1729.05Z"/><path class="cls-2" d="M374.22,1742.92a2.18,2.18,0,1,1-.21-3.14A2.26,2.26,0,0,1,374.22,1742.92Z"/><path class="cls-2" d="M376.65,1732.54a2.17,2.17,0,1,1-.21-3.13A2.23,2.23,0,0,1,376.65,1732.54Z"/><path class="cls-2" d="M364.34,1738a2.18,2.18,0,1,1-.21-3.14A2.24,2.24,0,0,1,364.34,1738Z"/><path class="cls-2" d="M240.09,1687.36h0a6.16,6.16,0,0,0-1.42-1.55l-.18-.13a3.85,3.85,0,0,0-1.29-.58H237a2.68,2.68,0,0,0-.67-.24,3.64,3.64,0,0,0-2.45.29,4.78,4.78,0,0,0-1.6,1.21,4.73,4.73,0,0,0-.84,1.28,4.24,4.24,0,0,0-.34,2.25,5.54,5.54,0,0,0,.73,2,10,10,0,0,0,1.16,1.52,4.63,4.63,0,0,0,.86.67,3.54,3.54,0,0,0,1.32.61,3.92,3.92,0,0,0,2.12-.15,5.45,5.45,0,0,0,2-1.23,5.35,5.35,0,0,0,1.12-1.54,4.26,4.26,0,0,0,.42-2.33,5,5,0,0,0-.71-2.09Zm-3.8,2.62h0l-.18-.12h0Z"/><path class="cls-2" d="M246.25,1685.91a2.17,2.17,0,1,1-.21-3.13A2.25,2.25,0,0,1,246.25,1685.91Z"/><path class="cls-2" d="M246.09,1696.17a2.17,2.17,0,1,1-.22-3.13A2.23,2.23,0,0,1,246.09,1696.17Z"/><path class="cls-2" d="M241.53,1702.46a2.17,2.17,0,1,1-.21-3.13A2.24,2.24,0,0,1,241.53,1702.46Z"/><path class="cls-2" d="M232.75,1699.42a2.18,2.18,0,1,1-.21-3.14A2.24,2.24,0,0,1,232.75,1699.42Z"/><path class="cls-2" d="M226.22,1691.94a2.17,2.17,0,1,1-.21-3.13A2.24,2.24,0,0,1,226.22,1691.94Z"/><path class="cls-2" d="M228.77,1683.77a2.17,2.17,0,1,1-.21-3.13A2.24,2.24,0,0,1,228.77,1683.77Z"/><path class="cls-2" d="M237.26,1680.68a2.17,2.17,0,1,1-.21-3.13A2.24,2.24,0,0,1,237.26,1680.68Z"/><path class="cls-2" d="M313.7,1716.55h0a2.05,2.05,0,0,0-.51-.55,2.25,2.25,0,0,0-2.53,0q-1.12.74-2.19,1.53c-.71.53-1.37,1-2,1.48s-1.63,1.19-2.47,1.76c-1.66,1.13-3.25,2.36-4.85,3.57-.9.68-1.81,1.34-2.71,2s-1.57,1.23-2.38,1.8c-1.71,1.23-3.31,2.62-5,3.84-.66.47-1.36.91-2,1.41s-1.44,1.17-2.2,1.71-1.75,1.29-2.63,1.92-1.65,1.09-2.42,1.7l-1.84,1.49c-.64.51-1.32,1-2,1.47s-1,.79-1.56,1.15l-.75.52a3.16,3.16,0,0,0-1.08,1.13,2.28,2.28,0,0,0,.07,2.26,2.06,2.06,0,0,0,1.94,1,3.14,3.14,0,0,0,1.25-.45,1.82,1.82,0,0,0,.56-.51c.25-.18.52-.34.76-.51,1.22-.86,2.37-1.81,3.56-2.7.68-.51,1.3-1.07,2-1.57s1.67-1.15,2.49-1.74l2.54-1.85c.84-.62,1.38-1.14,2.11-1.66s1.44-1,2.14-1.49,1.66-1.27,2.48-1.92,1.7-1.3,2.56-1.93,1.63-1.26,2.45-1.88,1.76-1.28,2.62-2,1.6-1.17,2.4-1.75,1.62-1.18,2.44-1.75,1.64-1.22,2.47-1.8c.6-.42,1.18-.84,1.74-1.28s1.26-.87,1.89-1.29a2.3,2.3,0,0,0,.7-3.09Z"/><path class="cls-2" d="M285,1717.8h0a2.19,2.19,0,0,0-.47-.49,2.25,2.25,0,0,0-2.6,0,2.3,2.3,0,0,0-.58,3.12,10.35,10.35,0,0,0,1,1.29,19.62,19.62,0,0,1,1.73,2.51,40.62,40.62,0,0,0,2.55,3.8c.87,1.16,1.74,2.32,2.52,3.55,1.14,1.79,2.19,3.64,3.28,5.46,1,1.63,1.81,3.37,2.82,5s2.27,3.49,3.54,5.15c.52.68,1.08,1.32,1.6,2s1,1.18,1.53,1.76l.29.33a2.27,2.27,0,0,0,1.44.89,2.21,2.21,0,0,0,1.63-.42,2.32,2.32,0,0,0,.93-1.48,2.17,2.17,0,0,0-.35-1.64c-.43-.49-.88-1-1.33-1.45a8.8,8.8,0,0,1-.9-1.17c-.3-.39-.67-.79-1-1.2-.76-1-1.51-2-2.19-3-1.34-2-2.59-4.14-3.77-6.29-.46-.87-1-1.7-1.47-2.54s-1.11-1.89-1.68-2.82a61.06,61.06,0,0,0-3.63-5.24,32.2,32.2,0,0,1-1.86-2.79c-.48-.77-.92-1.56-1.45-2.29s-1.14-1.29-1.61-2Zm16.72,32.9h0l.19.22Z"/><path class="cls-2" d="M87.6,1711.44h0a1,1,0,0,0-.34,0,1.08,1.08,0,0,0-.92.91c-.17,1.3-.38,2.61-.51,3.92s-.28,2.57-.44,3.85l-.6,4.6c-.2,1.63-.42,3.25-.67,4.86s-.54,3.32-.77,5-.43,3.3-.67,5c-.46,3.16-1,6.3-1.54,9.45l-.78,4.61-.42,2.46c-.07.37-.15.76-.2,1.14a5.65,5.65,0,0,0-.07,1.36,1.09,1.09,0,0,0,2.18,0,1.79,1.79,0,0,0,0-.23v-.09c.08-1.08.31-2.14.49-3.2l.56-3.2c.53-3.15,1.07-6.3,1.58-9.45.26-1.68.51-3.38.73-5.07s.41-3.15.67-4.72q.81-4.93,1.39-9.92c.19-1.58.43-3.16.6-4.75s.42-3.46.64-5.19a1.16,1.16,0,0,0-.88-1.32Z"/><path class="cls-2" d="M67.85,1732.09a5.17,5.17,0,0,1,.75.27,11.62,11.62,0,0,0,1.85.27c.72.08,1.42.19,2.13.33,1.44.3,2.87.6,4.3.94l2.21.52c.73.17,1.5.29,2.26.39,1.47.22,3,.28,4.44.55a32.48,32.48,0,0,1,4,1,14.88,14.88,0,0,0,2,.46c.76.12,1.53.2,2.29.29a11,11,0,0,1,1.28.2,12.47,12.47,0,0,1,1.35.43c.63.22,1.27.39,1.92.55,1.49.35,3,.62,4.53.92a1.17,1.17,0,0,1,.88,1.32,1.08,1.08,0,0,1-1.24.91h0c-1.64-.34-3.27-.63-4.89-1a17.19,17.19,0,0,1-2-.63,8.43,8.43,0,0,0-1.63-.4l-1.31-.16c-.73-.08-1.46-.16-2.18-.31s-1.41-.37-2.12-.58-1.51-.42-2.26-.61a15.42,15.42,0,0,0-2.12-.37c-.7-.09-1.4-.14-2.1-.22s-1.53-.2-2.29-.32c-1.35-.21-2.68-.6-4-.9s-2.8-.62-4.2-.89c-.66-.13-1.31-.2-2-.27l-1-.12a3.54,3.54,0,0,1-.91-.27,1.09,1.09,0,0,1-1.22-.45,1.16,1.16,0,0,1,.27-1.57,1.59,1.59,0,0,1,.7-.31,1.15,1.15,0,0,1,.37,0Z"/><path class="cls-2" d="M94.09,1729.61a1.07,1.07,0,1,1-1.2-1,1.13,1.13,0,0,1,1.2,1Z"/><path class="cls-2" d="M77.93,1725.94a1.09,1.09,0,0,1-2.16.29.41.41,0,0,1,0-.11,1.12,1.12,0,0,1,1-1.22,1.13,1.13,0,0,1,1.19,1Z"/><path class="cls-2" d="M91.09,1745.63a1.09,1.09,0,0,1-2.16.29.41.41,0,0,1,0-.11,1.09,1.09,0,1,1,2.16-.28S91.09,1745.6,91.09,1745.63Z"/><path class="cls-2" d="M76.3,1742.77a1.07,1.07,0,1,1-1.2-1,1.13,1.13,0,0,1,1.2,1Z"/><path class="cls-2" d="M89.53,1706.22a1.09,1.09,0,0,1-2.18.17,1.11,1.11,0,0,1,1-1.17A1.13,1.13,0,0,1,89.53,1706.22Z"/><path class="cls-2" d="M109.94,1742a1.07,1.07,0,1,1-1.2-1,1.13,1.13,0,0,1,1.2,1Z"/><path class="cls-2" d="M60.09,1732.13a1.09,1.09,0,0,1-2.18.17,1.11,1.11,0,0,1,1-1.17A1.13,1.13,0,0,1,60.09,1732.13Z"/><path class="cls-2" d="M80.6,1764.38a1.1,1.1,0,1,1-1.18-1,1.13,1.13,0,0,1,1.19,1Z"/><path class="cls-2" d="M141.73,1682.34a2.17,2.17,0,1,1-2.36-2.07A2.24,2.24,0,0,1,141.73,1682.34Z"/><path class="cls-2" d="M134.6,1680.76a2.17,2.17,0,1,1-2.36-2.07A2.24,2.24,0,0,1,134.6,1680.76Z"/><path class="cls-2" d="M149,1686a2.17,2.17,0,1,1-2.36-2.07A2.24,2.24,0,0,1,149,1686Z"/><path class="cls-2" d="M143.4,1676.91a2.17,2.17,0,1,1-2.37-2.07A2.25,2.25,0,0,1,143.4,1676.91Z"/><path class="cls-2" d="M138.53,1689.45a2.17,2.17,0,1,1-2.37-2.06A2.24,2.24,0,0,1,138.53,1689.45Z"/><path class="cls-2" d="M14.91,1741.49h0a6.13,6.13,0,0,0-2.09-.09h-.23a3.6,3.6,0,0,0-1.31.5l-.17.1a3,3,0,0,0-.65.31,3.59,3.59,0,0,0-1.52,1.93,4.54,4.54,0,0,0-.27,2,4.84,4.84,0,0,0,.31,1.5,4.21,4.21,0,0,0,1.35,1.82,5.54,5.54,0,0,0,2,.93,9.35,9.35,0,0,0,1.9.26,4.43,4.43,0,0,0,1.08-.13,3.53,3.53,0,0,0,2.75-2.11,5.6,5.6,0,0,0,.23-4.14,4.3,4.3,0,0,0-1.35-2,5,5,0,0,0-2-1Zm-.83,4.54Z"/><path class="cls-2" d="M18.22,1736.15a2.17,2.17,0,1,1-2.37-2.07A2.25,2.25,0,0,1,18.22,1736.15Z"/><path class="cls-2" d="M25.33,1743.54a2.17,2.17,0,1,1-2.37-2.07A2.24,2.24,0,0,1,25.33,1743.54Z"/><path class="cls-2" d="M26.58,1751.18a2.17,2.17,0,1,1-2.36-2.06A2.25,2.25,0,0,1,26.58,1751.18Z"/><path class="cls-2" d="M18.22,1755.24a2.17,2.17,0,1,1-2.37-2.06A2.24,2.24,0,0,1,18.22,1755.24Z"/><path class="cls-2" d="M8.31,1754.58a2.17,2.17,0,1,1-2.37-2.07A2.25,2.25,0,0,1,8.31,1754.58Z"/><path class="cls-2" d="M4.34,1747a2.17,2.17,0,1,1-4.33.37H0a2.17,2.17,0,0,1,4.33-.37Z"/><path class="cls-2" d="M8.16,1738.8a2.17,2.17,0,1,1-2.37-2.06A2.24,2.24,0,0,1,8.16,1738.8Z"/><path class="cls-2" d="M87.57,1710.11h0a2.36,2.36,0,0,0-.75,0,2.21,2.21,0,0,0-1.82,1.76c-.18.88-.35,1.74-.46,2.63s-.29,1.65-.4,2.49c-.13,1-.31,2-.5,3-.37,2-.63,4-.9,6l-.5,3.35c-.14,1-.24,2-.41,3-.34,2.08-.49,4.19-.84,6.26-.14.81-.32,1.61-.42,2.42s-.18,1.85-.35,2.76c-.19,1.07-.32,2.15-.5,3.22s-.39,1.94-.5,2.92l-.26,2.36c-.09.81-.24,1.6-.34,2.42-.08.64-.17,1.28-.29,1.91l-.17.9a3.17,3.17,0,0,0,0,1.56,2.29,2.29,0,0,0,1.65,1.55,2.07,2.07,0,0,0,2.06-.69,3.1,3.1,0,0,0,.56-1.19,1.94,1.94,0,0,0,0-.76l.18-.91c.25-1.46.4-3,.61-4.42.12-.83.17-1.68.29-2.51.15-1,.37-2,.53-3s.34-2.07.49-3.1.17-1.79.32-2.67.33-1.71.46-2.57.27-2.07.4-3.11.28-2.12.44-3.17.26-2,.4-3.06.34-2.16.47-3.25.3-2,.46-2.93.31-2,.49-3,.3-2,.47-3c.13-.72.25-1.42.33-2.14s.27-1.5.43-2.24a2.33,2.33,0,0,0-1.7-2.69Z"/><path class="cls-2" d="M68.09,1731.33h0a1.94,1.94,0,0,0-.68,0,2.24,2.24,0,0,0-1.82,1.85,2.3,2.3,0,0,0,1.8,2.61,11.17,11.17,0,0,0,1.63.2,18,18,0,0,1,3,.55,39.85,39.85,0,0,0,4.48.88c1.44.2,2.88.42,4.3.73,2.07.46,4.13,1,6.18,1.54,1.85.47,3.66,1.11,5.52,1.53s4.08.87,6.15,1.15c.84.11,1.69.17,2.54.28s1.55.13,2.33.16H104a2.25,2.25,0,0,0,1.65-.39,2.29,2.29,0,0,0,.85-1.44,2.43,2.43,0,0,0-.39-1.72,2.08,2.08,0,0,0-1.4-.9c-.65,0-1.31-.07-2-.09a13.54,13.54,0,0,1-1.46-.18c-.46,0-1-.09-1.56-.16-1.23-.16-2.46-.33-3.68-.58-2.4-.51-4.75-1.1-7.11-1.79-.94-.28-1.89-.52-2.84-.75s-2.12-.55-3.17-.81a55.86,55.86,0,0,0-6.28-1.14c-1.11-.15-2.2-.39-3.29-.65-.88-.22-1.75-.46-2.64-.59s-1.72-.12-2.58-.3Zm35.09,11.44Z"/><path class="cls-2" d="M1018.86,1169.07a4.12,4.12,0,0,0-1.61-.62,3.18,3.18,0,0,0-1.8.26,3.84,3.84,0,0,0-1.19.84,4,4,0,0,0-1,1.49,3.09,3.09,0,0,0-.12,1.65,2.87,2.87,0,0,0,.47,1,2.91,2.91,0,0,0,.52.69,6.58,6.58,0,0,0,1.17,1,4.32,4.32,0,0,0,1.58.62,3.24,3.24,0,0,0,1.74-.19,3.8,3.8,0,0,0,1.93-1.84,2.84,2.84,0,0,0,.22-1.9,2.55,2.55,0,0,0-.18-.53v-.16a3.21,3.21,0,0,0-.44-1l-.1-.15a5.24,5.24,0,0,0-1.2-1.15Zm-2,2.89.09.15h0A.6.6,0,0,1,1016.86,1172Z"/><path class="cls-2" d="M1020,1164.33a1.76,1.76,0,0,0-.26,2.42,1.71,1.71,0,1,0,.21-2.43h.05Z"/><path class="cls-2" d="M1012.09,1164.19a1.72,1.72,0,1,0,2.42.26,1.72,1.72,0,0,0-2.42-.26Z"/><path class="cls-2" d="M1007.2,1167.54a1.75,1.75,0,0,0-.26,2.42,1.72,1.72,0,1,0,.26-2.42Z"/><path class="cls-2" d="M1009.55,1174.5a1.74,1.74,0,0,0-.26,2.42,1.72,1.72,0,0,0,2.42.25h0a1.75,1.75,0,0,0,.26-2.42A1.74,1.74,0,0,0,1009.55,1174.5Z"/><path class="cls-2" d="M1015.32,1179.82a1.75,1.75,0,0,0-.26,2.42,1.72,1.72,0,1,0,.26-2.42Z"/><path class="cls-2" d="M1021.63,1178.06a1.76,1.76,0,0,0-.26,2.42,1.72,1.72,0,1,0,.26-2.42Z"/><path class="cls-2" d="M1024,1171.51a1.75,1.75,0,0,0-.26,2.42,1.72,1.72,0,0,0,2.42.26h0a1.72,1.72,0,0,0-2.16-2.68Z"/><path class="cls-2" d="M1117.15,1607.41a4.11,4.11,0,0,0-1.62-.62,3.18,3.18,0,0,0-1.8.26,3.72,3.72,0,0,0-1.19.84,3.92,3.92,0,0,0-1,1.49,2.84,2.84,0,0,0,.35,2.7,3.47,3.47,0,0,0,.52.69,7.52,7.52,0,0,0,1.18,1,4.06,4.06,0,0,0,1.57.63,3.24,3.24,0,0,0,1.74-.19,3.71,3.71,0,0,0,1-.62,3.51,3.51,0,0,0,.94-1.22,2.92,2.92,0,0,0,.23-1.91,3.35,3.35,0,0,0-.19-.53v-.15a3.34,3.34,0,0,0-.45-1l-.1-.15a5,5,0,0,0-1.19-1.15Zm-2,2.89.09.14h0l-.09-.15Z"/><path class="cls-2" d="M1118.26,1602.67a1.72,1.72,0,1,0,2.17,2.68h0a1.72,1.72,0,0,0-2.17-2.68Z"/><path class="cls-2" d="M1110.34,1602.53a1.75,1.75,0,0,0-.27,2.45l0,0a1.72,1.72,0,0,0,2.42.25h0a1.74,1.74,0,0,0,.25-2.42,1.72,1.72,0,0,0-2.42-.25h0Z"/><path class="cls-2" d="M1105.48,1605.88a1.74,1.74,0,0,0-.25,2.42,1.72,1.72,0,0,0,2.42.25h0a1.74,1.74,0,0,0,.25-2.42,1.72,1.72,0,0,0-2.42-.25Z"/><path class="cls-2" d="M1107.83,1612.83a1.76,1.76,0,0,0-.26,2.42,1.72,1.72,0,1,0,.26-2.42Z"/><path class="cls-2" d="M1113.6,1618.16a1.74,1.74,0,0,0-.25,2.42,1.72,1.72,0,0,0,2.42.25h0a1.74,1.74,0,0,0,.25-2.42,1.72,1.72,0,0,0-2.42-.25Z"/><path class="cls-2" d="M1119.91,1616.4a1.73,1.73,0,1,0,2.43.26,1.73,1.73,0,0,0-2.43-.26h0Z"/><path class="cls-2" d="M1122.3,1609.85a1.75,1.75,0,0,0-.26,2.42,1.73,1.73,0,0,0,2.42.26,1.75,1.75,0,0,0,.26-2.42,1.72,1.72,0,0,0-2.42-.26Z"/><path class="cls-2" d="M223.44,459.59a1.35,1.35,0,0,0-1-.27,1.39,1.39,0,0,0-1.17,1.57c.15.62.32,1.22.48,1.84l.49,1.92c.32,1.26.68,2.51,1.1,3.74s.83,2.45,1.28,3.66.81,2.18,1.14,3.3c.12.49.21,1,.3,1.47a1.36,1.36,0,1,0,2.7-.38c-.09-.45-.16-.9-.27-1.35s-.28-1-.44-1.5c-.31-1-.68-1.89-1-2.84-.67-1.88-1.34-3.77-1.89-5.7l-.58-2.18c-.2-.8-.42-1.58-.6-2.37a1.59,1.59,0,0,0-.46-.85l-.07,0Zm2.32,15.91v0Z"/><path class="cls-2" d="M231.6,462.82a3.63,3.63,0,0,0-1.36.68c-1,.58-2.12,1.05-3.16,1.61-.64.35-1.25.75-1.87,1.13s-1,.65-1.58,1c-1.21.67-2.45,1.28-3.67,1.94-.69.38-1.36.8-2,1.23s-1.08.76-1.64,1.11l-.65.36a1.56,1.56,0,0,0-.74.76,1.33,1.33,0,0,0,0,1,1.4,1.4,0,0,0,.76.75,1.33,1.33,0,0,0,1,0c.71-.4,1.42-.81,2.09-1.28s1.14-.77,1.72-1.14c1.22-.69,2.46-1.3,3.69-2s2.55-1.52,3.82-2.3a18.88,18.88,0,0,1,2.08-1,17.91,17.91,0,0,0,2-1.15,1.39,1.39,0,0,0,1-1.52,1.46,1.46,0,0,0-.46-.84,1.41,1.41,0,0,0-1.1-.33Z"/><path class="cls-2" d="M217.09,464.68a1.41,1.41,0,0,0,.26,1.94,1.38,1.38,0,1,0-.26-1.94Z"/><path class="cls-2" d="M229.34,469.43a1.41,1.41,0,0,0,.26,1.94,1.38,1.38,0,1,0-.26-1.94Z"/><path class="cls-2" d="M225.72,460.09a1.38,1.38,0,0,0,2.21,1.66,1.38,1.38,0,0,0-2.21-1.66Z"/><path class="cls-2" d="M221.23,472.39a1.41,1.41,0,0,0,.26,1.94,1.38,1.38,0,1,0-.26-1.94Z"/><path class="cls-2" d="M234.71,461.16a1.39,1.39,0,0,0,.26,1.93,1.37,1.37,0,0,0,1.93-.25h0a1.38,1.38,0,0,0-2.2-1.67Z"/><path class="cls-2" d="M211.9,474a1.4,1.4,0,0,0,.26,1.94,1.33,1.33,0,1,0-.26-1.94Z"/><path class="cls-2" d="M220.32,456.57a1.4,1.4,0,0,0,.26,1.94,1.43,1.43,0,1,0-.15-2.08A.76.76,0,0,0,220.32,456.57Z"/><path class="cls-2" d="M227.35,480.86a1.38,1.38,0,0,0,2.18,1.68h0a1.39,1.39,0,0,0-.26-1.93,1.37,1.37,0,0,0-1.92.25Z"/><path class="cls-2" d="M264.49,492a1.43,1.43,0,0,0-1-.35,1.37,1.37,0,0,0-.95.44,1.54,1.54,0,0,0-.36,1,1.32,1.32,0,0,0,.45,1,1.4,1.4,0,0,0,1,.35,1.37,1.37,0,0,0,1-.45,1.56,1.56,0,0,0,.35-1,1.37,1.37,0,0,0-.45-1Z"/><path class="cls-2" d="M265.32,495.79a1.48,1.48,0,0,0-1-.35,1.41,1.41,0,0,0-1,.45,1.48,1.48,0,0,0-.35,1,1.24,1.24,0,0,0,.45,1,1.36,1.36,0,0,0,1,.36,1.41,1.41,0,0,0,1-.45,1.46,1.46,0,0,0,.35-1,1.36,1.36,0,0,0-.44-1Z"/><path class="cls-2" d="M268,490.79a1.48,1.48,0,0,0-1-.36,1.41,1.41,0,0,0-1,.45,1.48,1.48,0,0,0-.35,1,1.29,1.29,0,0,0,.45,1,1.38,1.38,0,0,0,2-.06l0,0a1.52,1.52,0,0,0,.36-1,1.37,1.37,0,0,0-.45-1Z"/><path class="cls-2" d="M262.35,487.22a1.43,1.43,0,0,0-1-.35,1.36,1.36,0,0,0-1,.45,1.48,1.48,0,0,0-.36,1,1.32,1.32,0,0,0,.45,1,1.4,1.4,0,0,0,1,.35,1.34,1.34,0,0,0,1-.45,1.51,1.51,0,0,0,.35-1,1.29,1.29,0,0,0-.45-1Z"/><path class="cls-2" d="M261.09,493.69a1.4,1.4,0,0,0-2,.08l0,0a1.53,1.53,0,0,0-.35,1,1.29,1.29,0,0,0,.45,1,1.45,1.45,0,0,0,1,.36,1.41,1.41,0,0,0,1-.45,1.57,1.57,0,0,0,.36-1,1.37,1.37,0,0,0-.45-1Z"/><path class="cls-2" d="M302.74,402.91a.7.7,0,0,0-.85-.48c-1,.23-2.08.47-3.13.68s-1.91.42-2.87.62c-2,.43-4,.89-6,1.4-.94.24-1.9.45-2.84.67l-3.06.73c-1.89.48-3.79,1-5.69,1.49l-1.92.52c-.64.17-1.27.37-1.92.48h-.06a.7.7,0,0,0-.7.68.71.71,0,0,0,.69.7,2.86,2.86,0,0,0,.82-.12,2.93,2.93,0,0,0,.69-.18l1.48-.4,2.77-.74c1.89-.5,3.79-1,5.69-1.46l3-.69c1-.23,2-.49,3-.75s2-.46,2.93-.67l2.77-.62c.92-.2,1.55-.32,2.33-.48s1.58-.35,2.37-.53a.69.69,0,0,0,.51-.63.81.81,0,0,0,0-.22ZM274.61,409h0Z"/><path class="cls-2" d="M291.09,416.5a2.67,2.67,0,0,0-.2-.46,9.22,9.22,0,0,1-.25-1.16c-.08-.45-.18-.89-.3-1.33-.25-.89-.5-1.79-.78-2.68l-.42-1.37c-.13-.46-.24-.93-.34-1.41-.2-.92-.31-1.86-.54-2.78a24.46,24.46,0,0,0-.82-2.46,7.94,7.94,0,0,1-.38-1.26c-.11-.48-.19-1-.28-1.44a3.12,3.12,0,0,0-.18-.79q-.15-.42-.33-.84c-.16-.39-.3-.78-.42-1.18-.29-.93-.53-1.88-.78-2.82a.69.69,0,0,0-.85-.49.68.68,0,0,0-.49.84h0c.28,1,.54,2,.85,3,.13.44.31.85.48,1.27a6.85,6.85,0,0,1,.32,1l.16.83c.08.45.17.91.29,1.36s.29.88.45,1.31.33.93.48,1.4.24.88.33,1.33l.23,1.31c.08.49.19,1,.3,1.44.19.84.49,1.66.74,2.49s.51,1.74.74,2.61c.11.41.18.82.25,1.23l.13.64a2.35,2.35,0,0,0,.2.56.7.7,0,0,0,1.28.5,1.26,1.26,0,0,0,.16-.46.88.88,0,0,0,0-.23Z"/><path class="cls-2" d="M291.36,399.76a.69.69,0,1,0,0,1.38.71.71,0,0,0,.7-.69.69.69,0,0,0-.69-.69h0Z"/><path class="cls-2" d="M294.36,409.8a.69.69,0,0,0,0,1.38h0a.69.69,0,1,0,0-1.38Z"/><path class="cls-2" d="M281.74,402.47a.71.71,0,0,0-.7.69.69.69,0,1,0,.7-.69Z"/><path class="cls-2" d="M284.18,411.71a.69.69,0,1,0,.68.68h0a.69.69,0,0,0-.67-.69h0Z"/><path class="cls-2" d="M305.83,401.42a.7.7,0,1,0,.69.71h0A.71.71,0,0,0,305.83,401.42Z"/><path class="cls-2" d="M283.09,390.37a.69.69,0,0,0,0,1.38h0a.69.69,0,1,0,0-1.38Z"/><path class="cls-2" d="M291.43,421.44a.7.7,0,1,0,.68.72v0A.7.7,0,0,0,291.43,421.44Z"/><path class="cls-2" d="M270.81,410.11a.7.7,0,1,0,.61.61A.7.7,0,0,0,270.81,410.11Z"/><path class="cls-2" d="M287.84,450.51a3.32,3.32,0,0,0-.69-1.21,2.68,2.68,0,0,0-1.25-.75,3.24,3.24,0,0,0-1.16-.09,3.09,3.09,0,0,0-1.35.45,2.46,2.46,0,0,0-.92,1,3.42,3.42,0,0,0-.26,1.58,4.74,4.74,0,0,0,.24,1.19,3.4,3.4,0,0,0,.66,1.19,2.49,2.49,0,0,0,1.17.76,2.43,2.43,0,0,0,.93.12,3,3,0,0,0,1.21-.27,2.38,2.38,0,0,0,1.1-1.07,1.92,1.92,0,0,0,.16-.42l.06-.12A2.57,2.57,0,0,0,288,452v-.14a4.22,4.22,0,0,0-.15-1.32Zm-2.73.76v.14h0Z"/><path class="cls-2" d="M290.94,448.14a1.38,1.38,0,1,0,1.37,1.39A1.38,1.38,0,0,0,290.94,448.14Z"/><path class="cls-2" d="M286.09,444a1.38,1.38,0,1,0,1.37,1.39A1.4,1.4,0,0,0,286.09,444Z"/><path class="cls-2" d="M281.38,443.63a1.38,1.38,0,1,0,1.37,1.39A1.4,1.4,0,0,0,281.38,443.63Z"/><path class="cls-2" d="M279.3,449.13a1.4,1.4,0,0,0-1.39,1.38,1.38,1.38,0,1,0,1.39-1.38Z"/><path class="cls-2" d="M280.17,455.37a1.41,1.41,0,0,0-1.39,1.37,1.38,1.38,0,1,0,1.39-1.37Z"/><path class="cls-2" d="M285,457.49a1.38,1.38,0,1,0,1.37,1.39A1.4,1.4,0,0,0,285,457.49Z"/><path class="cls-2" d="M289.79,454.64A1.4,1.4,0,0,0,288.4,456a1.38,1.38,0,1,0,1.39-1.38Z"/><path class="cls-2" d="M303.55,402.86a1.39,1.39,0,0,0-1.71-.93,10.91,10.91,0,0,1-1.35.39c-.43.09-.86.2-1.29.32-.6.16-1.22.28-1.82.45s-1.18.32-1.78.47-1.17.31-1.77.44-1.3.32-2,.47-1.23.26-1.85.41-1.27.32-1.91.45-1.26.26-1.88.42-1,.29-1.54.42-1.08.2-1.61.34-1.25.3-1.87.47-1.19.35-1.8.49-1,.2-1.51.32c-.89.21-1.79.38-2.67.61l-.54.17a.94.94,0,0,0-.47.06,1.93,1.93,0,0,0-.7.42,1.35,1.35,0,0,0-.32,1.33,1.4,1.4,0,0,0,1,1,1.89,1.89,0,0,0,1-.06l.54-.16,1.16-.28,1.46-.34,1.42-.28c.42-.09,1.17-.31,1.76-.47s1.29-.31,1.93-.49,1.11-.25,1.67-.37,1-.26,1.45-.39c1.25-.33,2.53-.53,3.78-.86.59-.16,1.19-.27,1.78-.41l2-.49c1.2-.27,2.4-.54,3.59-.88.59-.17,1.19-.34,1.8-.48s1-.26,1.49-.37,1.06-.28,1.58-.44a1.42,1.42,0,0,0,1-1.24,1.29,1.29,0,0,0,0-.48Z"/><path class="cls-2" d="M291.53,416.28c-.15-.53-.18-1.08-.3-1.61s-.31-1.1-.48-1.65a19.76,19.76,0,0,1-.56-2c-.27-1.32-.6-2.62-1-3.91l-.65-2c-.19-.59-.37-1.18-.59-1.76-.53-1.45-1-2.91-1.42-4.41-.21-.75-.37-1.53-.53-2.3l-.17-1a6,6,0,0,0-.18-.92l-.14-1.24a1.39,1.39,0,0,0-.62-.84,1.43,1.43,0,0,0-1.07-.16,1.34,1.34,0,0,0-.83.62,1.41,1.41,0,0,0-.16,1.06v.28a14.23,14.23,0,0,0,.2,1.46c.11.53.19,1.07.29,1.6.27,1.29.61,2.56,1,3.83s.82,2.27,1.19,3.42.85,2.54,1.23,3.83c.26.88.46,1.78.64,2.68a25.31,25.31,0,0,0,.75,2.8,12.1,12.1,0,0,1,.48,1.86,6.81,6.81,0,0,0,.2,1,1.39,1.39,0,0,0,1.68,1,1.43,1.43,0,0,0,1-1.25,1.55,1.55,0,0,0,0-.43Zm-8.62-21.62v0Z"/><path class="cls-2" d="M1033.78,760.26a1.34,1.34,0,0,0,.87.63,1.38,1.38,0,0,0,1.66-1c.09-.63.15-1.25.24-1.89l.24-2c.16-1.29.28-2.59.35-3.89s.12-2.58.15-3.87,0-2.33.14-3.49c.06-.5.16-1,.26-1.48a1.41,1.41,0,0,0-1-1.66,1.38,1.38,0,0,0-1.65,1c-.09.45-.19.89-.25,1.35s-.11,1-.14,1.56c-.06,1-.06,2-.09,3-.07,2-.14,4-.33,6l-.26,2.25c-.11.81-.19,1.62-.31,2.42a1.44,1.44,0,0,0,.12,1Z"/><path class="cls-2" d="M1027.38,754.27a3.86,3.86,0,0,0,1.51-.13c1.17-.17,2.36-.21,3.53-.35.72-.09,1.44-.24,2.15-.36l1.82-.32c1.37-.18,2.75-.29,4.12-.46.78-.1,1.56-.25,2.33-.41s1.28-.31,1.93-.43a6.55,6.55,0,0,0,.74-.1,1.53,1.53,0,0,0,1-.44,1.44,1.44,0,0,0,0-2,1.34,1.34,0,0,0-1-.38,24.07,24.07,0,0,0-2.4.42c-.68.16-1.35.31-2,.44-1.38.19-2.77.31-4.15.47s-2.93.48-4.39.74c-.77.1-1.55.17-2.32.22a18.38,18.38,0,0,0-2.33.32,1.37,1.37,0,0,0-1.49,1.24,1.38,1.38,0,0,0,1.06,1.47Z"/><path class="cls-2" d="M1041.59,757.86a1.41,1.41,0,0,0,.5-1.86,1.39,1.39,0,0,0-1.9-.47h0a1.41,1.41,0,0,0-.47,1.9,1.39,1.39,0,0,0,1.9.46Z"/><path class="cls-2" d="M1031.89,748.94a1.41,1.41,0,0,0,.47-1.9,1.39,1.39,0,0,0-1.9-.46,1.41,1.41,0,0,0-.46,1.9A1.38,1.38,0,0,0,1031.89,748.94Z"/><path class="cls-2" d="M1031.84,759a1.41,1.41,0,0,0,.47-1.9,1.38,1.38,0,0,0-1.9-.46h0a1.38,1.38,0,0,0,1.43,2.36Z"/><path class="cls-2" d="M1040.52,749.15a1.38,1.38,0,0,0-1.39-2.39l0,0a1.41,1.41,0,0,0-.46,1.9A1.38,1.38,0,0,0,1040.52,749.15Z"/><path class="cls-2" d="M1023.87,754.68a1.41,1.41,0,0,0,.46-1.9,1.38,1.38,0,1,0-.46,1.9Z"/><path class="cls-2" d="M1049.81,751a1.41,1.41,0,0,0,.47-1.9,1.38,1.38,0,0,0-1.9-.46h0a1.38,1.38,0,0,0,1.43,2.36Z"/><path class="cls-2" d="M1035.59,764.22a1.41,1.41,0,0,0,.46-1.9,1.38,1.38,0,1,0-.46,1.9Z"/><path class="cls-2" d="M1037.93,739a1.41,1.41,0,0,0,.46-1.9,1.38,1.38,0,1,0-.46,1.9Z"/><path class="cls-2" d="M1007.42,715.13a1.38,1.38,0,0,0,1.85.62,1.55,1.55,0,0,0,.7-.79,1.39,1.39,0,0,0-.07-1.06,1.47,1.47,0,0,0-.8-.69,1.37,1.37,0,0,0-1.05.06,1.56,1.56,0,0,0-.7.8A1.31,1.31,0,0,0,1007.42,715.13Z"/><path class="cls-2" d="M1008.09,711.25a1.35,1.35,0,0,0,.79.69,1.39,1.39,0,0,0,1.06-.07,1.49,1.49,0,0,0,.69-.79,1.39,1.39,0,0,0-.06-1.06,1.41,1.41,0,0,0-1.86-.63,1.54,1.54,0,0,0-.69.8A1.31,1.31,0,0,0,1008.09,711.25Z"/><path class="cls-2" d="M1003.78,714.94a1.37,1.37,0,0,0,1.83.64h0a1.47,1.47,0,0,0,.69-.8,1.33,1.33,0,0,0-.06-1,1.39,1.39,0,0,0-1.86-.63,1.54,1.54,0,0,0-.69.8,1.28,1.28,0,0,0,.07,1Z"/><path class="cls-2" d="M1007.68,720.31a1.37,1.37,0,0,0,1.8.63,1.53,1.53,0,0,0,.7-.8,1.44,1.44,0,0,0-.07-1.06,1.47,1.47,0,0,0-.8-.69,1.39,1.39,0,0,0-1.06.07,1.56,1.56,0,0,0-.69.79,1.31,1.31,0,0,0,.07,1.06Z"/><path class="cls-2" d="M1011.22,714.75a1.41,1.41,0,0,0,1.86.63,1.59,1.59,0,0,0,.69-.8,1.31,1.31,0,0,0-.07-1.06,1.45,1.45,0,0,0-.79-.69,1.39,1.39,0,0,0-1.06.07,1.45,1.45,0,0,0-.69.79A1.31,1.31,0,0,0,1011.22,714.75Z"/><path class="cls-2" d="M939.25,784a.69.69,0,0,0,.61.76c1,.17,2.11.32,3.16.51s1.93.31,2.9.47q3,.51,6.07.89c1,.11,1.94.27,2.9.42s2.07.3,3.11.43c1.94.25,3.89.47,5.84.69l2,.23c.68.08,1.32.12,2,.25h.06a.69.69,0,0,0,.91-.33.7.7,0,0,0-.33-.92l-.07,0a3.21,3.21,0,0,0-.8-.19c-.24,0-.48-.06-.71-.08l-1.52-.18-2.86-.33c-1.94-.22-3.89-.44-5.82-.71l-3-.46c-1-.16-2-.27-3.06-.4s-2-.28-3-.44l-2.81-.44-2.34-.41c-.78-.14-1.6-.25-2.4-.37a.67.67,0,0,0-.7.4.83.83,0,0,0-.06.21Zm28.41,4.62h0Z"/><path class="cls-2" d="M955.09,775.62a2.09,2.09,0,0,0,0,.5,8.93,8.93,0,0,1-.2,1.17c-.09.45-.15.89-.2,1.35-.1.92-.19,1.85-.26,2.77l-.11,1.43a8.33,8.33,0,0,1-.19,1.44c-.16.93-.4,1.85-.52,2.79a20.42,20.42,0,0,0-.13,2.59,9.52,9.52,0,0,1-.12,1.31c-.07.48-.17,1-.26,1.44a5.66,5.66,0,0,0-.12.81,6.61,6.61,0,0,0,0,.89v1.26c-.07,1-.2,1.94-.31,2.91a.69.69,0,0,0,1.37.16c.12-1.05.25-2.09.33-3.14V794a5.41,5.41,0,0,1,.08-1.06,3.94,3.94,0,0,1,.15-.82c.08-.46.17-.92.23-1.38a10.59,10.59,0,0,0,0-1.38l.07-1.48a10.41,10.41,0,0,1,.18-1.35c.08-.44.19-.88.27-1.31s.17-1,.24-1.45c.13-.85.15-1.72.22-2.59s.17-1.8.27-2.7c0-.42.14-.83.22-1.24l.12-.64a3,3,0,0,0,0-.6.71.71,0,0,0,0-.81.69.69,0,0,0-1-.13h0a1.26,1.26,0,0,0-.32.37.46.46,0,0,0-.06.23Z"/><path class="cls-2" d="M948.68,791.1a.71.71,0,0,0,.9-.39.7.7,0,0,0-.39-.9.73.73,0,0,0-.9.39A.69.69,0,0,0,948.68,791.1Z"/><path class="cls-2" d="M949.56,780.66a.71.71,0,0,0,.9-.39.7.7,0,0,0-.38-.9h0a.71.71,0,0,0-.9.39A.7.7,0,0,0,949.56,780.66Z"/><path class="cls-2" d="M958.63,792.09a.69.69,0,0,0,.52-1.28.69.69,0,0,0-.9.38A.7.7,0,0,0,958.63,792.09Z"/><path class="cls-2" d="M959.74,782.6a.69.69,0,1,0,.52-1.28.69.69,0,0,0-.9.38A.7.7,0,0,0,959.74,782.6Z"/><path class="cls-2" d="M935.83,784.26a.71.71,0,0,0,.9-.39.69.69,0,1,0-1.29-.51.69.69,0,0,0,.39.9Z"/><path class="cls-2" d="M953,802.87a.71.71,0,0,0,.9-.39.7.7,0,0,0-.38-.9h0a.7.7,0,0,0-.86.49.69.69,0,0,0,.34.8Z"/><path class="cls-2" d="M956.56,770.89a.69.69,0,1,0,.51-1.28h0a.69.69,0,1,0-.52,1.28Z"/><path class="cls-2" d="M971.6,789a.69.69,0,1,0,.52-1.28.69.69,0,0,0-.9.38A.7.7,0,0,0,971.6,789Z"/><path class="cls-2" d="M970.53,745.15a3.1,3.1,0,0,0,.2,1.38,2.52,2.52,0,0,0,.88,1.16,2.94,2.94,0,0,0,1,.5,3.24,3.24,0,0,0,1.42.08,2.28,2.28,0,0,0,1.76-1.3,3.65,3.65,0,0,0,.28-.64,6.88,6.88,0,0,0,.2-1.19,3.64,3.64,0,0,0-.17-1.35,2.68,2.68,0,0,0-.82-1.14,3.28,3.28,0,0,0-.82-.45,2.83,2.83,0,0,0-1.22-.18,2.31,2.31,0,0,0-1.42.58,1.59,1.59,0,0,0-.3.34l-.1.09a2.35,2.35,0,0,0-.54.71l-.06.13a3.86,3.86,0,0,0-.34,1.28Zm2.82.29.06-.12h0Z"/><path class="cls-2" d="M966.77,746.23a1.41,1.41,0,0,0,1.8-.77,1.38,1.38,0,1,0-1.8.77Z"/><path class="cls-2" d="M969.77,751.83a1.41,1.41,0,0,0,1.8-.77,1.44,1.44,0,0,0-2.62-1.17,1.37,1.37,0,0,0,.61,1.85l.24.09Z"/><path class="cls-2" d="M974,753.92a1.38,1.38,0,0,0,1-2.55h0a1.38,1.38,0,0,0-1.24,2.47l.24.09Z"/><path class="cls-2" d="M978,749.56a1.41,1.41,0,0,0,1.8-.77A1.39,1.39,0,0,0,979,747a1.41,1.41,0,0,0-1.8.77A1.39,1.39,0,0,0,978,749.56Z"/><path class="cls-2" d="M979.44,743.43a1.4,1.4,0,0,0,1.8-.77,1.38,1.38,0,1,0-1.8.77Z"/><path class="cls-2" d="M975.74,739.7a1.41,1.41,0,0,0,1.8-.77,1.38,1.38,0,1,0-1.8.77Z"/><path class="cls-2" d="M970.22,740.59a1.41,1.41,0,0,0,1.8-.77,1.38,1.38,0,1,0-1.8.77Z"/><path class="cls-2" d="M938.47,783.75a1.39,1.39,0,0,0,1.26,1.49,5,5,0,0,1,1.39.13,7.74,7.74,0,0,0,1.32.18c.62.07,1.24.18,1.86.24s1.22.14,1.83.22,1.21.13,1.8.23,1.33.18,2,.29,1.24.2,1.86.28l2,.29c.7.11,1.26.21,1.9.3s1.06.1,1.59.17,1.08.2,1.62.27l1.91.25c.63.08,1.24.11,1.85.2s1,.18,1.53.26c.9.13,1.8.3,2.71.4h.56a1,1,0,0,0,.46.11,2,2,0,0,0,.8-.13,1.34,1.34,0,0,0,.79-1.13,1.41,1.41,0,0,0-.59-1.27,2.13,2.13,0,0,0-.91-.3h-.56a7.79,7.79,0,0,1-1.18-.16c-.39-.06-1-.13-1.48-.21s-1-.17-1.43-.26-1.21-.14-1.81-.21-1.32-.18-2-.25-1.12-.18-1.68-.27-1-.11-1.5-.17c-1.28-.15-2.55-.43-3.83-.58-.61-.07-1.21-.18-1.81-.27l-2.05-.28c-1.22-.18-2.44-.37-3.66-.49-.62-.06-1.24-.12-1.85-.22s-1-.12-1.54-.19-1.08-.14-1.63-.18a1.41,1.41,0,0,0-1.37.8,1.27,1.27,0,0,0-.13.46Z"/><path class="cls-2" d="M954.57,775.66c-.06.55-.23,1.07-.31,1.61s-.11,1.14-.15,1.71-.12,1.41-.24,2.11a38.36,38.36,0,0,0-.51,4l-.12,2.06c0,.62-.08,1.24-.1,1.86,0,1.55-.13,3.08-.28,4.62-.08.79-.22,1.56-.35,2.34-.06.33-.14.64-.21,1l-.16.92-.32,1.21a1.37,1.37,0,0,0,1.2,1.53,1.35,1.35,0,0,0,1-.27,1.48,1.48,0,0,0,.54-.93l.07-.27a13.71,13.71,0,0,0,.34-1.44c.1-.53.22-1.06.31-1.59.23-1.3.38-2.61.49-3.93s.06-2.41.14-3.62.14-2.67.26-4c.08-.91.23-1.82.38-2.73a27.58,27.58,0,0,0,.33-2.88,11.87,11.87,0,0,1,.21-2c.08-.33.15-.66.2-1a1.41,1.41,0,0,0-1.2-1.54,1.44,1.44,0,0,0-1.43.78,1.24,1.24,0,0,0-.11.42Zm.11,23.27,0,.18Z"/><path class="cls-2" d="M404,1168.23a1.38,1.38,0,0,0-1.32,1.44,1.36,1.36,0,0,0,.46,1c.51.38,1,.74,1.54,1.12l1.61,1.16c1.06.75,2.14,1.48,3.24,2.16s2.21,1.34,3.33,2,2,1.15,3,1.8c.41.29.78.62,1.17.93a1.4,1.4,0,0,0,2-.08l0,0a1.38,1.38,0,0,0-.11-1.94c-.36-.3-.7-.59-1.07-.87s-.86-.59-1.3-.87c-.85-.54-1.73-1-2.6-1.52-1.72-1-3.44-2-5.1-3.17L407,1170c-.66-.49-1.33-1-2-1.44a1.52,1.52,0,0,0-.89-.35H404ZM416,1179l.11.08Z"/><path class="cls-2" d="M412.31,1165.48a3.81,3.81,0,0,0-.61,1.4c-.41,1.1-1,2.16-1.39,3.26-.27.67-.47,1.38-.71,2.07L409,1174c-.5,1.29-1.06,2.55-1.57,3.84-.29.73-.54,1.48-.76,2.24s-.35,1.27-.55,1.9l-.26.69a1.5,1.5,0,0,0-.09,1.06,1.37,1.37,0,0,0,1.69.89,1.35,1.35,0,0,0,.81-.69,23.22,23.22,0,0,0,.78-2.31c.18-.67.38-1.33.59-2,.49-1.3,1.06-2.57,1.57-3.86s1-2.81,1.46-4.21c.29-.73.59-1.44.92-2.15a17,17,0,0,0,.84-2.19,1.38,1.38,0,0,0-.23-1.79,1.4,1.4,0,0,0-.89-.35,1.41,1.41,0,0,0-1.06.45Z"/><path class="cls-2" d="M402.34,1176.23a1.4,1.4,0,0,0,1.44,1.32,1.37,1.37,0,0,0,1.32-1.42v0a1.38,1.38,0,1,0-2.76.12Z"/><path class="cls-2" d="M414.82,1172a1.38,1.38,0,1,0,1.32-1.44A1.38,1.38,0,0,0,414.82,1172Z"/><path class="cls-2" d="M406.09,1167.15a1.38,1.38,0,1,0,1.32-1.44,1.38,1.38,0,0,0-1.32,1.44Z"/><path class="cls-2" d="M410.5,1179.47a1.38,1.38,0,0,0,2.76-.12,1.42,1.42,0,0,0-1.45-1.32A1.38,1.38,0,0,0,410.5,1179.47Z"/><path class="cls-2" d="M413.64,1162.21a1.38,1.38,0,1,0,1.32-1.44,1.37,1.37,0,0,0-1.32,1.42Z"/><path class="cls-2" d="M404.39,1186.72a1.38,1.38,0,0,0,2.76-.12,1.43,1.43,0,0,0-1.44-1.32,1.38,1.38,0,0,0-1.32,1.44Z"/><path class="cls-2" d="M399.65,1167.92a1.38,1.38,0,1,0,1.31-1.44h0a1.37,1.37,0,0,0-1.31,1.43Z"/><path class="cls-2" d="M420.62,1182.05a1.4,1.4,0,0,0,1.44,1.32,1.38,1.38,0,1,0-1.44-1.33Z"/><path class="cls-2" d="M456.23,1166.74a1.46,1.46,0,0,0-1,.37,1.41,1.41,0,0,0-.45,1,1.48,1.48,0,0,0,.37,1,1.32,1.32,0,0,0,1,.45,1.41,1.41,0,0,0,1.44-1.33,1.53,1.53,0,0,0-.37-1,1.37,1.37,0,0,0-1-.45Z"/><path class="cls-2" d="M459.33,1169.17a1.36,1.36,0,0,0-1,.36,1.41,1.41,0,0,0-.45,1,1.48,1.48,0,0,0,.37,1,1.31,1.31,0,0,0,1,.45,1.41,1.41,0,0,0,1-.37,1.36,1.36,0,0,0,.44-1,1.54,1.54,0,0,0-.36-1A1.36,1.36,0,0,0,459.33,1169.17Z"/><path class="cls-2" d="M458.09,1163.64a1.36,1.36,0,0,0-1,.36,1.41,1.41,0,0,0-.45,1,1.48,1.48,0,0,0,.37,1,1.29,1.29,0,0,0,.95.45,1.41,1.41,0,0,0,1-.37,1.36,1.36,0,0,0,.44-1,1.59,1.59,0,0,0-.36-1,1.36,1.36,0,0,0-1-.44Z"/><path class="cls-2" d="M451.56,1164.49a1.36,1.36,0,0,0-1,.36,1.41,1.41,0,0,0-.45,1,1.48,1.48,0,0,0,.37,1,1.27,1.27,0,0,0,1,.45,1.41,1.41,0,0,0,1-.37,1.35,1.35,0,0,0,.44-1,1.54,1.54,0,0,0-.36-1A1.36,1.36,0,0,0,451.56,1164.49Z"/><path class="cls-2" d="M454.74,1170.26a1.41,1.41,0,0,0-1.44,1.33,1.52,1.52,0,0,0,.36,1,1.32,1.32,0,0,0,1,.45,1.39,1.39,0,0,0,1.44-1.32h0a1.59,1.59,0,0,0-.36-1A1.37,1.37,0,0,0,454.74,1170.26Z"/><path class="cls-2" d="M428.49,1073.89a.7.7,0,0,0-1,.14l0,0c-.65.85-1.3,1.7-2,2.53s-1.19,1.55-1.8,2.32c-1.26,1.61-2.49,3.24-3.69,4.91-.57.79-1.17,1.56-1.76,2.34s-1.26,1.67-1.87,2.52c-1.14,1.58-2.27,3.19-3.41,4.79l-1.14,1.63c-.38.54-.74,1.1-1.17,1.6h0a.7.7,0,0,0-.1,1,.71.71,0,0,0,1,.09,3.64,3.64,0,0,0,.55-.62c.15-.19.28-.4.42-.59l.88-1.25,1.71-2.31c1.13-1.6,2.26-3.21,3.43-4.77.61-.82,1.23-1.63,1.85-2.44s1.22-1.67,1.82-2.5,1.2-1.61,1.82-2.4l1.73-2.26,1.48-1.85c.48-.61,1-1.29,1.48-1.93a.71.71,0,0,0,0-.81l-.16-.16Zm-17.68,22.72-.07.08Z"/><path class="cls-2" d="M428.26,1091.79l-.45-.22a9.45,9.45,0,0,1-.94-.73c-.35-.29-.71-.56-1.08-.82-.77-.53-1.53-1.06-2.31-1.56l-1.2-.79c-.4-.27-.79-.56-1.17-.85-.75-.58-1.43-1.24-2.2-1.79s-1.45-1-2.21-1.37a11.56,11.56,0,0,1-1.1-.72l-1.13-.92c-.21-.18-.43-.34-.65-.5a7.35,7.35,0,0,0-.79-.43,11.79,11.79,0,0,1-1.08-.64c-.82-.52-1.61-1.1-2.41-1.66a.69.69,0,0,0-1,.13l0,0a.69.69,0,0,0,.13,1l0,0c.87.6,1.72,1.22,2.6,1.79.38.25.78.45,1.18.66a5.59,5.59,0,0,1,.89.57l.65.53c.21.18.72.59,1.1.86a12.88,12.88,0,0,0,1.19.71l1.27.77a12.3,12.3,0,0,1,1.09.81c.35.28.68.58,1,.86s.77.61,1.16.91a23,23,0,0,0,2.16,1.43c.72.43,1.51,1,2.25,1.54.34.24.66.51,1,.78l.5.41a2.7,2.7,0,0,0,.52.3.69.69,0,0,0,.95.26.71.71,0,0,0,.35-.7,1,1,0,0,0-.18-.45.85.85,0,0,0-.16-.17Z"/><path class="cls-2" d="M417.74,1078.77a.69.69,0,0,0-.06,1,.69.69,0,1,0,.09-1Z"/><path class="cls-2" d="M426.48,1084.55a.7.7,0,0,0-.1,1,.7.7,0,1,0,1.07-.91.69.69,0,0,0-1-.11l0,0Z"/><path class="cls-2" d="M412.09,1087a.71.71,0,0,0-.09,1,.7.7,0,0,0,1,.12l0,0a.7.7,0,0,0,.11-1v0a.71.71,0,0,0-1-.11h0Z"/><path class="cls-2" d="M419.89,1092.55a.69.69,0,1,0,.82,1.11l.06-.05a.7.7,0,0,0,.1-1v0a.69.69,0,0,0-1-.11l0,0Z"/><path class="cls-2" d="M429.91,1070.77a.7.7,0,0,0-.1,1,.7.7,0,1,0,1.07-.91.69.69,0,0,0-1-.11l0,0Z"/><path class="cls-2" d="M405.36,1076.87a.71.71,0,0,0-.09,1,.7.7,0,0,0,1,.12l0,0a.7.7,0,0,0,.11-1v0a.71.71,0,0,0-1-.11h0Z"/><path class="cls-2" d="M431.69,1095.37a.7.7,0,0,0-.1,1h0a.7.7,0,0,0,1,.13l0,0a.72.72,0,0,0,.1-1,.71.71,0,0,0-1-.09Z"/><path class="cls-2" d="M408.6,1099.89a.71.71,0,0,0-.09,1,.69.69,0,0,0,1,.1.7.7,0,0,0,.1-1,.72.72,0,0,0-1-.1Z"/><path class="cls-2" d="M447.58,1120a3.46,3.46,0,0,0-1.31-.48,2.55,2.55,0,0,0-1.44.22,2.91,2.91,0,0,0-.94.68,3.27,3.27,0,0,0-.76,1.21,2.35,2.35,0,0,0,.3,2.16,2.55,2.55,0,0,0,.43.55,5.25,5.25,0,0,0,.94.75,3.46,3.46,0,0,0,1.28.5,2.64,2.64,0,0,0,1.39-.17,3.14,3.14,0,0,0,.79-.51,2.72,2.72,0,0,0,.74-1,2.3,2.3,0,0,0,.17-1.53,3.12,3.12,0,0,0-.15-.43v-.12a2.7,2.7,0,0,0-.37-.81l-.08-.12a4.17,4.17,0,0,0-1-.92Zm-1.61,2.34.07.11h0Z"/><path class="cls-2" d="M448.43,1116.16a1.4,1.4,0,0,0-.18,1.95,1.32,1.32,0,1,0,.18-1.95Z"/><path class="cls-2" d="M442.09,1116.11a1.38,1.38,0,0,0,1.75,2.14,1.39,1.39,0,0,0,.19-2h0A1.38,1.38,0,0,0,442.09,1116.11Z"/><path class="cls-2" d="M438.21,1118.83a1.41,1.41,0,0,0-.21,2h0a1.38,1.38,0,1,0,2.07-1.82A1.37,1.37,0,0,0,438.21,1118.83Z"/><path class="cls-2" d="M440.09,1124.39a1.41,1.41,0,0,0-.19,1.95,1.39,1.39,0,1,0,.2-1.95Z"/><path class="cls-2" d="M444.81,1128.62a1.38,1.38,0,0,0,1.75,2.14,1.39,1.39,0,0,0,.19-2h0A1.38,1.38,0,0,0,444.81,1128.62Z"/><path class="cls-2" d="M449.86,1127.17a1.38,1.38,0,1,0,1.94.19h0A1.39,1.39,0,0,0,449.86,1127.17Z"/><path class="cls-2" d="M451.73,1121.89a1.41,1.41,0,0,0-.19,1.95,1.37,1.37,0,0,0,1.94.18,1.4,1.4,0,0,0,.19-1.94,1.38,1.38,0,0,0-1.94-.19Z"/><path class="cls-2" d="M429.09,1073.34a1.38,1.38,0,0,0-1.91.38c-.26.39-.5.8-.79,1.16s-.53.71-.78,1.07-.75,1-1.1,1.52-.71,1-1.07,1.5-.7,1-1.07,1.47-.8,1.08-1.21,1.61l-1.15,1.5c-.38.53-.77,1.06-1.18,1.57s-.79,1-1.17,1.53-.6.88-.91,1.31-.7.85-1,1.29l-1.14,1.56-1.06,1.53a15.26,15.26,0,0,1-1,1.22c-.55.73-1.13,1.44-1.65,2.18-.11.15-.21.31-.31.47a1,1,0,0,0-.32.35,1.82,1.82,0,0,0-.27.77,1.35,1.35,0,0,0,.61,1.23,1.43,1.43,0,0,0,1.4.09,2,2,0,0,0,.7-.66l.31-.46.71-1c.25-.35.58-.81.9-1.2s.6-.76.91-1.13a14.27,14.27,0,0,0,1-1.49c.3-.49.8-1.06,1.18-1.61s.69-.9,1-1.35.58-.82.87-1.23c.74-1.06,1.6-2,2.34-3.09.36-.5.74-1,1.11-1.46s.81-1.11,1.23-1.66c.74-1,1.5-2,2.19-3,.34-.51.7-1,1.07-1.52s.6-.84.91-1.25.63-.88.93-1.35a1.42,1.42,0,0,0,0-1.58,1.37,1.37,0,0,0-.35-.33Z"/><path class="cls-2" d="M428.46,1091.34c-.45-.32-.83-.72-1.26-1a15.49,15.49,0,0,1-1.43-1c-.43-.36-1.18-.78-1.74-1.22a37.6,37.6,0,0,0-3.26-2.37c-.59-.37-1.18-.72-1.76-1.09s-1-.67-1.58-1c-1.34-.77-2.64-1.59-3.92-2.47-.65-.44-1.27-.93-1.88-1.42-.26-.21-.5-.43-.75-.64s-.5-.39-.73-.59-.6-.58-.91-.86a1.29,1.29,0,0,0-1-.25,1.42,1.42,0,0,0-.92.56,1.38,1.38,0,0,0-.25,1,1.42,1.42,0,0,0,.56.92l.21.19c.36.34.71.68,1.1,1s.82.7,1.24,1a38.17,38.17,0,0,0,3.22,2.31c1.11.73,2.08,1.21,3.1,1.85s2.29,1.41,3.4,2.16c.77.51,1.49,1.07,2.22,1.64a25.79,25.79,0,0,0,2.36,1.67,12.42,12.42,0,0,1,1.57,1.12,5.08,5.08,0,0,0,.81.66,1.39,1.39,0,0,0,1.93-.3,1.43,1.43,0,0,0,0-1.63,1.11,1.11,0,0,0-.31-.3ZM408,1080.27l-.14-.12Z"/><path class="cls-2" d="M609.6,386.78a4,4,0,0,0-1.61-.61,3.18,3.18,0,0,0-1.8.26,3.81,3.81,0,0,0-1.19.83,4.16,4.16,0,0,0-1,1.5,3.09,3.09,0,0,0-.12,1.65,2.87,2.87,0,0,0,.47,1,3.47,3.47,0,0,0,.52.69,7.45,7.45,0,0,0,1.17,1,4.27,4.27,0,0,0,1.58.63,3.24,3.24,0,0,0,1.74-.19,3.71,3.71,0,0,0,1-.62,3.88,3.88,0,0,0,.94-1.22,2.87,2.87,0,0,0,.22-1.91,2.55,2.55,0,0,0-.18-.53v-.15a2.81,2.81,0,0,0-.44-1l-.1-.15a5.28,5.28,0,0,0-1.2-1.16Zm-2,2.9.08.14h0Z"/><path class="cls-2" d="M610.72,382.05a1.72,1.72,0,1,0,2.42.26,1.72,1.72,0,0,0-2.42-.26Z"/><path class="cls-2" d="M602.8,381.91a1.74,1.74,0,0,0-.26,2.42,1.72,1.72,0,0,0,2.42.25h0a1.75,1.75,0,0,0,.26-2.42,1.72,1.72,0,0,0-2.42-.25Z"/><path class="cls-2" d="M597.94,385.26a1.74,1.74,0,0,0-.26,2.42,1.72,1.72,0,0,0,2.42.25h0a1.75,1.75,0,0,0,.26-2.42,1.72,1.72,0,0,0-2.42-.25Z"/><path class="cls-2" d="M600.29,392.21a1.74,1.74,0,0,0-.26,2.42,1.72,1.72,0,0,0,2.42.26h0a1.75,1.75,0,0,0,.26-2.42A1.74,1.74,0,0,0,600.29,392.21Z"/><path class="cls-2" d="M606.09,397.54a1.74,1.74,0,0,0-.26,2.42,1.72,1.72,0,0,0,2.42.25h0a1.75,1.75,0,0,0,.26-2.42,1.72,1.72,0,0,0-2.42-.25Z"/><path class="cls-2" d="M612.37,395.78a1.72,1.72,0,1,0,2.42.26,1.72,1.72,0,0,0-2.42-.26Z"/><path class="cls-2" d="M614.76,389.23a1.72,1.72,0,1,0,2.16,2.68,1.77,1.77,0,0,0,.26-2.42,1.72,1.72,0,0,0-2.42-.26Z"/><path class="cls-2" d="M235.33,4.22a1.75,1.75,0,0,0-.26,2.42,1.72,1.72,0,1,0,.26-2.42Z"/><path class="cls-2" d="M240.09,7.47a1.72,1.72,0,1,0,2.42.25,1.72,1.72,0,0,0-2.42-.25Z"/><path class="cls-2" d="M229.38,2a1.72,1.72,0,0,0,2,2.8l.16-.13a1.75,1.75,0,0,0,.26-2.42A1.74,1.74,0,0,0,229.38,2Z"/><path class="cls-2" d="M237.39.38a1.73,1.73,0,0,0-.3,2.42,1.72,1.72,0,0,0,2.42.25h0a1.75,1.75,0,0,0,.26-2.42,1.74,1.74,0,0,0-2.42-.25Z"/><path class="cls-2" d="M233.19,9.84a1.74,1.74,0,0,0-.25,2.42,1.72,1.72,0,0,0,2.42.26h0a1.72,1.72,0,0,0-2.17-2.68Z"/><path class="cls-2" d="M780,1407.54a1.75,1.75,0,0,0-.26,2.42,1.72,1.72,0,1,0,.26-2.42Z"/><path class="cls-2" d="M784.75,1410.79a1.74,1.74,0,0,0-.25,2.42,1.72,1.72,0,0,0,2.42.26h0a1.72,1.72,0,0,0-2.17-2.68Z"/><path class="cls-2" d="M774.09,1405.3a1.72,1.72,0,1,0,2.16,2.68,1.77,1.77,0,0,0,.26-2.42,1.72,1.72,0,0,0-2.42-.26Z"/><path class="cls-2" d="M782.09,1403.7a1.72,1.72,0,1,0,2.42.26,1.72,1.72,0,0,0-2.42-.26Z"/><path class="cls-2" d="M777.86,1413.17a1.74,1.74,0,0,0-.25,2.42,1.72,1.72,0,0,0,2.42.25h0a1.74,1.74,0,0,0,.25-2.42,1.72,1.72,0,0,0-2.42-.25Z"/><path class="cls-2" d="M160,1061.93a1.75,1.75,0,0,0-.26,2.42,1.72,1.72,0,0,0,2.42.26h0a1.75,1.75,0,0,0,.26-2.42A1.74,1.74,0,0,0,160,1061.93Z"/><path class="cls-2" d="M164.79,1065.18a1.74,1.74,0,0,0-.25,2.42,1.72,1.72,0,0,0,2.42.26h0a1.72,1.72,0,0,0-2.17-2.68Z"/><path class="cls-2" d="M154.09,1059.69a1.74,1.74,0,0,0-.25,2.42,1.72,1.72,0,0,0,2.42.26h0a1.72,1.72,0,0,0-2.17-2.68Z"/><path class="cls-2" d="M162.09,1058.09a1.74,1.74,0,0,0-.25,2.42,1.72,1.72,0,0,0,2.42.26h0a1.72,1.72,0,0,0-2.17-2.68Z"/><path class="cls-2" d="M157.9,1067.56a1.72,1.72,0,1,0,2.42.26,1.72,1.72,0,0,0-2.42-.26Z"/></g></g></g></g></svg>