<svg xmlns="http://www.w3.org/2000/svg" viewBox="0 0 1765.6 1125.09"><defs><style>.cls-1{fill:#707da7;}.cls-2{fill:#2f345b;}.cls-3{fill:#fefefe;}</style></defs><title>Asset 6</title><g id="Layer_2" data-name="Layer 2"><g id="Draw_Layer" data-name="Draw Layer"><path class="cls-1" d="M813.55,352.65a4,4,0,0,0-.36,5.65,3.88,3.88,0,0,0,2.7,1.35,4.25,4.25,0,0,0,3-1,4,4,0,0,0,1.34-2.7,4.09,4.09,0,0,0-1-2.95,3.91,3.91,0,0,0-2.7-1.34,4.21,4.21,0,0,0-3,1Z"/></g><g id="Draw_Layer-2" data-name="Draw Layer"><path class="cls-2" d="M566.62,278.44a.26.26,0,0,0,.09.17.23.23,0,0,0,.18.06.25.25,0,0,0,.14-.44.23.23,0,0,0-.18-.06.25.25,0,0,0-.23.27Z"/><path class="cls-3" d="M108.55,85.13a1.15,1.15,0,0,0-1.55.31c-1.07,1.38-2.12,2.77-3.21,4.12s-2,2.53-3,3.79q-3.09,3.95-6,8c-.93,1.29-1.91,2.55-2.87,3.81s-2.06,2.73-3.06,4.11c-1.87,2.59-3.72,5.2-5.57,7.8l-1.87,2.65c-.63.88-1.21,1.79-1.91,2.61l-.08.06a1.12,1.12,0,0,0-.17,1.56,1.14,1.14,0,0,0,1.57.11,5.82,5.82,0,0,0,.9-1c.25-.3.46-.63.68-1l1.44-2,2.7-3.82c1.85-2.6,3.69-5.21,5.6-7.76,1-1.34,2-2.66,3-4s2-2.71,3-4.07,2-2.62,3-3.92S103,94.05,104,92.83c.79-1,1.6-2,2.41-3s1.61-2.09,2.41-3.14a1.06,1.06,0,0,0,0-1.29.82.82,0,0,0-.25-.24Zm-28.87,37-.11.13.11-.13Z"/><path class="cls-3" d="M107.92,113.69a6.66,6.66,0,0,0-.72-.33,13.6,13.6,0,0,1-1.5-1.12c-.56-.45-1.14-.87-1.74-1.27-1.23-.81-2.46-1.61-3.71-2.38l-1.93-1.19c-.64-.41-1.26-.86-1.87-1.32-1.2-.89-2.3-1.9-3.52-2.76a34.94,34.94,0,0,0-3.55-2.07,14.5,14.5,0,0,1-1.76-1.11c-.63-.45-1.22-.94-1.82-1.42-.34-.27-.68-.52-1-.76a13.6,13.6,0,0,0-1.26-.65,18.42,18.42,0,0,1-1.74-1c-1.31-.8-2.58-1.69-3.86-2.54a1.16,1.16,0,0,0-1.56.31,1.08,1.08,0,0,0,.25,1.52c1.39.93,2.76,1.87,4.18,2.74a20.09,20.09,0,0,0,1.89,1,9.1,9.1,0,0,1,1.43.87l1,.81c.57.46,1.15.92,1.76,1.33s1.26.73,1.91,1.09,1.37.76,2,1.16a16.3,16.3,0,0,1,1.75,1.24c.56.44,1.09.9,1.64,1.33s1.23.94,1.85,1.4c1.1.8,2.31,1.46,3.47,2.19s2.42,1.54,3.6,2.34c.55.38,1.06.79,1.58,1.2l.81.64a4.15,4.15,0,0,0,.83.45,1.1,1.1,0,0,0,1.18.55,1.18,1.18,0,0,0,.92-1.3,1.71,1.71,0,0,0-.27-.72,1.33,1.33,0,0,0-.27-.26Z"/><path class="cls-3" d="M91.12,93.39a1.09,1.09,0,1,0,1.57.1,1.12,1.12,0,0,0-1.57-.1Z"/><path class="cls-3" d="M105.14,102.22a1.09,1.09,0,1,0,1.41,1.66,1.09,1.09,0,1,0-1.41-1.66Z"/><path class="cls-3" d="M81.89,106.82a1.09,1.09,0,1,0,1.57.1,1.12,1.12,0,0,0-1.57-.1Z"/><path class="cls-3" d="M94.39,115.27a1.09,1.09,0,1,0,1.58.11,1.15,1.15,0,0,0-1.58-.11Z"/><path class="cls-3" d="M110.88,80.08a1.09,1.09,0,1,0,1.57.1,1.13,1.13,0,0,0-1.57-.1Z"/><path class="cls-3" d="M71.17,90.93a1.09,1.09,0,1,0,1.57.11,1.12,1.12,0,0,0-1.57-.11Z"/><path class="cls-3" d="M113.41,119.24a1.13,1.13,0,0,0-.17,1.56,1.15,1.15,0,0,0,1.58.11,1.09,1.09,0,1,0-1.41-1.67Z"/><path class="cls-3" d="M76.08,127.51a1.09,1.09,0,1,0,1.57.11,1.12,1.12,0,0,0-1.57-.11Z"/><path class="cls-3" d="M90.86,26.27a2.17,2.17,0,1,0,3.13.21,2.23,2.23,0,0,0-3.13-.21Z"/><path class="cls-3" d="M97,30.2a2.18,2.18,0,1,0,3.14.21A2.25,2.25,0,0,0,97,30.2Z"/><path class="cls-3" d="M83.14,23.69a2.18,2.18,0,1,0,3.14.21,2.25,2.25,0,0,0-3.14-.21Z"/><path class="cls-3" d="M93.52,21.26a2.17,2.17,0,1,0,3.13.21,2.23,2.23,0,0,0-3.13-.21Z"/><path class="cls-3" d="M88.09,33.57a2.18,2.18,0,1,0,3.14.21,2.24,2.24,0,0,0-3.14-.21Z"/><path class="cls-3" d="M138.7,157.77a5.09,5.09,0,0,0-2.09-.71,4.2,4.2,0,0,0-2.33.42,5.2,5.2,0,0,0-1.54,1.13,5.29,5.29,0,0,0-1.23,2,3.9,3.9,0,0,0-.15,2.11A3.79,3.79,0,0,0,132,164a4.32,4.32,0,0,0,.67.86,8.87,8.87,0,0,0,1.52,1.16,5.47,5.47,0,0,0,2.05.73,4.37,4.37,0,0,0,2.25-.33,5.05,5.05,0,0,0,1.28-.84A4.88,4.88,0,0,0,141,164a3.57,3.57,0,0,0,.29-2.44,2.31,2.31,0,0,0-.24-.67c0-.07,0-.14,0-.2a3.72,3.72,0,0,0-.58-1.28,1.27,1.27,0,0,0-.13-.19,6.35,6.35,0,0,0-1.55-1.42Zm-2.62,3.8.12.18h0l-.12-.18Z"/><path class="cls-3" d="M140.15,151.66a2.17,2.17,0,1,0,3.13.21,2.24,2.24,0,0,0-3.13-.21Z"/><path class="cls-3" d="M129.89,151.86a2.17,2.17,0,1,0,3.13.21,2.23,2.23,0,0,0-3.13-.21Z"/><path class="cls-3" d="M123.6,156.38a2.17,2.17,0,1,0,3.13.21,2.23,2.23,0,0,0-3.13-.21Z"/><path class="cls-3" d="M126.64,165.16a2.18,2.18,0,1,0,3.14.22,2.24,2.24,0,0,0-3.14-.22Z"/><path class="cls-3" d="M134.12,171.7a2.17,2.17,0,1,0,3.13.21,2.23,2.23,0,0,0-3.13-.21Z"/><path class="cls-3" d="M142.29,169.15a2.17,2.17,0,1,0,3.13.21,2.23,2.23,0,0,0-3.13-.21Z"/><path class="cls-3" d="M145.38,160.65a2.17,2.17,0,1,0,3.13.21,2.23,2.23,0,0,0-3.13-.21Z"/><path class="cls-3" d="M109.51,84.21a2.29,2.29,0,0,0-3.09.7c-.42.64-.81,1.29-1.29,1.89s-.86,1.15-1.28,1.74c-.58.84-1.22,1.63-1.8,2.47s-1.16,1.63-1.75,2.44-1.14,1.62-1.75,2.4-1.3,1.76-2,2.63-1.27,1.62-1.88,2.44-1.27,1.72-1.93,2.56-1.29,1.65-1.92,2.49c-.51.69-1,1.43-1.49,2.13s-1.14,1.39-1.66,2.11-1.25,1.69-1.85,2.54-1.13,1.68-1.74,2.49-1.06,1.31-1.57,2c-.89,1.19-1.84,2.35-2.7,3.56-.17.25-.33.51-.51.77a1.7,1.7,0,0,0-.51.56,3.15,3.15,0,0,0-.45,1.24,2.07,2.07,0,0,0,1,1.94,2.3,2.3,0,0,0,2.26.08,3.28,3.28,0,0,0,1.13-1.09l.52-.75c.36-.53.75-1,1.15-1.55s1-1.32,1.47-2,1-1.23,1.49-1.85,1.14-1.61,1.7-2.41,1.3-1.74,1.92-2.63,1.13-1.47,1.71-2.2.94-1.34,1.41-2c1.22-1.72,2.61-3.31,3.84-5,.57-.81,1.2-1.58,1.8-2.37s1.33-1.82,2-2.72c1.21-1.59,2.44-3.19,3.57-4.85.57-.83,1.15-1.66,1.76-2.47s1-1.36,1.48-2,1-1.45,1.53-2.2a2.23,2.23,0,0,0,0-2.53,2.08,2.08,0,0,0-.55-.51ZM82.73,124h0l0,0,0,0Z"/><path class="cls-3" d="M108.26,113c-.74-.48-1.33-1.1-2-1.61s-1.52-1-2.29-1.45a30.84,30.84,0,0,1-2.79-1.87,58.88,58.88,0,0,0-5.24-3.63l-2.82-1.67c-.84-.51-1.67-1-2.54-1.48-2.15-1.17-4.24-2.42-6.29-3.76-1-.69-2-1.44-3-2.19-.41-.33-.79-.67-1.2-1s-.8-.59-1.17-.91-1-.9-1.45-1.33a2.15,2.15,0,0,0-1.64-.35,2.36,2.36,0,0,0-1.48.94,2.21,2.21,0,0,0-.42,1.62,2.27,2.27,0,0,0,.89,1.44l.33.29c.58.53,1.14,1.06,1.76,1.54s1.32,1.08,2,1.6c1.66,1.26,3.38,2.42,5.15,3.53,1.62,1,3.36,1.85,5,2.82,1.82,1.09,3.67,2.14,5.46,3.28,1.23.78,2.39,1.65,3.55,2.53a42.68,42.68,0,0,0,3.8,2.55,18.58,18.58,0,0,1,2.51,1.72,11.56,11.56,0,0,0,1.29,1,2.3,2.3,0,0,0,3.12-.58,2.22,2.22,0,0,0,0-2.59,2,2,0,0,0-.49-.47ZM75.36,96.23,75.14,96l.22.19Z"/><path class="cls-3" d="M114.62,310.31a1.16,1.16,0,0,0-1.32-.88c-1.73.23-3.46.46-5.19.65s-3.17.4-4.75.59q-5,.6-9.92,1.39c-1.57.26-3.15.45-4.72.67s-3.39.47-5.07.74c-3.15.5-6.3,1-9.45,1.58l-3.2.55c-1.06.18-2.12.41-3.2.49h-.09a1.11,1.11,0,0,0-1.22,1,1.13,1.13,0,0,0,1,1.19,6.25,6.25,0,0,0,1.36-.08c.38,0,.77-.13,1.14-.19l2.46-.42,4.61-.79c3.15-.53,6.29-1.08,9.45-1.53,1.65-.24,3.3-.46,4.95-.68s3.32-.51,5-.77,3.23-.47,4.86-.67l4.6-.59c1.28-.17,2.56-.3,3.85-.44s2.62-.34,3.92-.52a1.07,1.07,0,0,0,.91-.92,1,1,0,0,0,0-.34ZM68,316.09h0Z"/><path class="cls-3" d="M94,330.06a4.66,4.66,0,0,0-.27-.74,13,13,0,0,1-.27-1.86c-.08-.71-.19-1.41-.33-2.12-.3-1.44-.6-2.88-.94-4.31-.17-.73-.35-1.47-.52-2.21s-.29-1.5-.39-2.25c-.22-1.48-.28-3-.55-4.44a32.34,32.34,0,0,0-1-4,15.68,15.68,0,0,1-.46-2c-.12-.76-.2-1.52-.29-2.29a11.33,11.33,0,0,0-.2-1.28,11.71,11.71,0,0,0-.43-1.35c-.22-.63-.39-1.27-.55-1.91-.35-1.5-.62-3-.92-4.53a1.15,1.15,0,0,0-1.32-.88,1.09,1.09,0,0,0-.91,1.25c.34,1.64.63,3.28,1,4.89a21.08,21.08,0,0,0,.63,2.05,8.34,8.34,0,0,1,.4,1.62c.06.44.11.88.16,1.31.08.73.16,1.46.31,2.18s.37,1.42.58,2.12.42,1.51.61,2.27a15.16,15.16,0,0,1,.37,2.12c.09.7.14,1.4.22,2.1s.2,1.53.32,2.29c.21,1.35.6,2.67.9,4s.62,2.8.89,4.21c.13.65.2,1.3.27,2l.12,1a3.79,3.79,0,0,0,.27.91,1.09,1.09,0,0,0,.45,1.22,1.16,1.16,0,0,0,1.57-.27,1.59,1.59,0,0,0,.31-.7.92.92,0,0,0,0-.37Z"/><path class="cls-3" d="M96.45,303.83a1.12,1.12,0,0,0-1.22,1,1.14,1.14,0,0,0,2.26.2,1.12,1.12,0,0,0-1-1.18Z"/><path class="cls-3" d="M100.12,320a1.12,1.12,0,0,0-1.22,1,1.14,1.14,0,0,0,2.26.2,1.12,1.12,0,0,0-1-1.18Z"/><path class="cls-3" d="M80.43,306.79a1.13,1.13,0,0,0-1.22,1,1.14,1.14,0,1,0,1.22-1Z"/><path class="cls-3" d="M83.29,321.62a1.09,1.09,0,1,0-.18,2.17,1.09,1.09,0,1,0,.18-2.17Z"/><path class="cls-3" d="M119.84,308.38a1.09,1.09,0,1,0,1,1.19,1.13,1.13,0,0,0-1-1.19Z"/><path class="cls-3" d="M84.08,288a1.09,1.09,0,1,0-.18,2.17,1.09,1.09,0,1,0,.18-2.17Z"/><path class="cls-3" d="M93.93,337.87a1.09,1.09,0,1,0,1,1.18,1.13,1.13,0,0,0-1-1.18Z"/><path class="cls-3" d="M61.68,317.32a1.1,1.1,0,0,0-1.21,1,1.12,1.12,0,0,0,1,1.19,1.13,1.13,0,0,0,1.22-1,1.12,1.12,0,0,0-1-1.18Z"/><path class="cls-3" d="M143.72,256.18a2.17,2.17,0,1,0,2.07,2.36,2.23,2.23,0,0,0-2.07-2.36Z"/><path class="cls-3" d="M145.3,263.31a2.17,2.17,0,1,0,2.07,2.37,2.23,2.23,0,0,0-2.07-2.37Z"/><path class="cls-3" d="M140.09,248.9a2.17,2.17,0,1,0,2.07,2.37,2.25,2.25,0,0,0-2.07-2.37Z"/><path class="cls-3" d="M149.15,254.52a2.17,2.17,0,1,0,2.07,2.36,2.23,2.23,0,0,0-2.07-2.36Z"/><path class="cls-3" d="M136.61,259.39a2.17,2.17,0,1,0,2.06,2.36,2.23,2.23,0,0,0-2.06-2.36Z"/><path class="cls-3" d="M84.57,383a5,5,0,0,0-1-2,4.27,4.27,0,0,0-1.95-1.36,5,5,0,0,0-1.88-.28,5.3,5.3,0,0,0-2.26.51,4.08,4.08,0,0,0-1.61,1.38,4,4,0,0,0-.5,1.37,4.4,4.4,0,0,0-.13,1.09,9.35,9.35,0,0,0,.26,1.89,5.37,5.37,0,0,0,.93,2,4.34,4.34,0,0,0,1.82,1.36,5.14,5.14,0,0,0,1.5.31,4.84,4.84,0,0,0,2-.28,3.61,3.61,0,0,0,1.93-1.52,2.57,2.57,0,0,0,.31-.65l.1-.16a3.6,3.6,0,0,0,.5-1.32,1.7,1.7,0,0,0,0-.22,5.93,5.93,0,0,0-.09-2.1Zm-4.54.83c0,.07,0,.14,0,.21h0c0-.07,0-.14,0-.21Z"/><path class="cls-3" d="M89.91,379.7A2.17,2.17,0,1,0,92,382.06a2.23,2.23,0,0,0-2.07-2.36Z"/><path class="cls-3" d="M82.52,372.58A2.17,2.17,0,1,0,84.59,375a2.24,2.24,0,0,0-2.07-2.37Z"/><path class="cls-3" d="M74.88,371.33a2.17,2.17,0,1,0-.37,4.33,2.17,2.17,0,1,0,.37-4.33Z"/><path class="cls-3" d="M70.82,379.7a2.17,2.17,0,1,0,2.06,2.36,2.24,2.24,0,0,0-2.06-2.36Z"/><path class="cls-3" d="M71.48,389.6A2.17,2.17,0,1,0,73.55,392a2.24,2.24,0,0,0-2.07-2.37Z"/><path class="cls-3" d="M79.07,393.58a2.17,2.17,0,1,0,2.06,2.36,2.24,2.24,0,0,0-2.06-2.36Z"/><path class="cls-3" d="M87.26,389.75a2.17,2.17,0,1,0-.37,4.33,2.17,2.17,0,1,0,.37-4.33Z"/><path class="cls-3" d="M116,310.34a2.3,2.3,0,0,0-2.69-1.69c-.74.15-1.48.34-2.24.43s-1.42.19-2.14.32c-1,.18-2,.29-3,.47s-2,.34-3,.49-2,.34-2.93.46-2.16.32-3.25.47-2,.25-3.06.4-2.11.32-3.17.45-2.08.24-3.11.4c-.86.13-1.71.31-2.57.45s-1.78.18-2.67.32-2.07.31-3.1.49-2,.38-3,.53c-.83.13-1.68.17-2.51.29-1.47.21-3,.36-4.42.61l-.91.18a1.76,1.76,0,0,0-.76,0,3.2,3.2,0,0,0-1.19.57,2.05,2.05,0,0,0-.69,2.05,2.28,2.28,0,0,0,1.55,1.65,3.29,3.29,0,0,0,1.56,0l.9-.17c.63-.12,1.27-.2,1.91-.28.82-.11,1.61-.26,2.42-.35l2.36-.25c1-.11,2-.33,2.92-.5s2.15-.32,3.22-.51c.91-.16,1.83-.24,2.76-.35s1.61-.28,2.42-.41c2.07-.36,4.18-.5,6.26-.85,1-.17,2-.27,3-.41s2.23-.34,3.35-.49c2-.27,4-.53,5.95-.91,1-.19,2-.36,3-.5.84-.11,1.66-.28,2.49-.39s1.75-.29,2.63-.47a2.22,2.22,0,0,0,1.76-1.82,2.11,2.11,0,0,0,0-.75Zm-47.08,9.2h0l0,0Z"/><path class="cls-3" d="M94.73,329.78c-.18-.86-.16-1.72-.3-2.57a26.67,26.67,0,0,0-.59-2.65,33,33,0,0,1-.65-3.29A56.1,56.1,0,0,0,92.05,315c-.26-1.06-.55-2.12-.81-3.17s-.47-1.91-.75-2.85c-.69-2.35-1.28-4.71-1.79-7.11-.25-1.21-.42-2.45-.58-3.68-.07-.52-.1-1-.16-1.55s-.14-1-.18-1.47c0-.66,0-1.31-.09-2a2.11,2.11,0,0,0-.9-1.4,2.37,2.37,0,0,0-1.72-.39,2.16,2.16,0,0,0-1.83,2.5l0,.44c0,.78.06,1.56.16,2.33s.17,1.7.28,2.55c.28,2.07.68,4.1,1.15,6.14.42,1.86,1.06,3.68,1.53,5.53.51,2.05,1.08,4.1,1.54,6.17.31,1.42.53,2.86.73,4.3a40.92,40.92,0,0,0,.88,4.49,18.07,18.07,0,0,1,.55,3,11.3,11.3,0,0,0,.2,1.64,2.3,2.3,0,0,0,2.61,1.79,2.22,2.22,0,0,0,1.85-1.82,1.74,1.74,0,0,0,0-.68ZM83.29,294.69c0-.1,0-.19,0-.29,0,.1,0,.19,0,.29Z"/><path class="cls-3" d="M1717.51,812.3h0a1.14,1.14,0,0,0-.25.24,1.07,1.07,0,0,0,0,1.29c.8,1,1.58,2.12,2.41,3.15s1.62,2,2.41,3c1,1.22,1.88,2.45,2.83,3.67s2,2.6,3,3.91,2,2.74,3,4.07,2,2.65,3,4c1.91,2.55,3.75,5.17,5.6,7.77l2.7,3.81,1.44,2c.22.31.43.64.68,1a5.76,5.76,0,0,0,.9,1,1.13,1.13,0,0,0,1.57-.11,1.11,1.11,0,0,0-.17-1.55l-.08-.06c-.7-.82-1.28-1.73-1.91-2.61l-1.87-2.65q-2.77-3.91-5.57-7.81c-1-1.38-2-2.74-3.06-4.1s-1.94-2.52-2.87-3.81q-2.92-4.07-6-8c-1-1.26-1.94-2.55-3-3.79s-2.14-2.74-3.21-4.12a1.15,1.15,0,0,0-1.55-.32Zm28.87,37h0l.11.13a.69.69,0,0,1-.11-.13Z"/><path class="cls-3" d="M1718.14,840.87a5.17,5.17,0,0,1,.72-.33,13.69,13.69,0,0,0,1.5-1.13c.56-.45,1.14-.86,1.74-1.26,1.23-.81,2.46-1.61,3.71-2.38l1.93-1.2c.64-.41,1.26-.86,1.87-1.32,1.2-.89,2.3-1.9,3.52-2.75a34.94,34.94,0,0,1,3.55-2.07,13.43,13.43,0,0,0,1.76-1.12c.63-.44,1.22-.93,1.82-1.41a11.21,11.21,0,0,1,1-.76,13.6,13.6,0,0,1,1.26-.65,18.42,18.42,0,0,0,1.74-1c1.31-.8,2.58-1.69,3.86-2.55a1.16,1.16,0,0,1,1.56.31,1.1,1.1,0,0,1-.25,1.53c-1.39.92-2.76,1.87-4.18,2.74a20.09,20.09,0,0,1-1.89,1,8.4,8.4,0,0,0-1.43.87c-.35.26-.7.54-1,.81-.57.45-1.15.92-1.76,1.32s-1.26.74-1.91,1.09-1.37.77-2,1.17a15,15,0,0,0-1.75,1.24c-.56.43-1.09.89-1.64,1.33s-1.23.94-1.85,1.39c-1.1.81-2.31,1.47-3.47,2.2s-2.42,1.54-3.6,2.34c-.55.37-1.06.78-1.58,1.2-.27.21-.54.43-.81.63a4.19,4.19,0,0,1-.83.46,1.1,1.1,0,0,1-1.18.54,1.16,1.16,0,0,1-.92-1.3,1.76,1.76,0,0,1,.27-.72,1.6,1.6,0,0,1,.27-.25Z"/><path class="cls-3" d="M1734.94,820.56a1.09,1.09,0,1,1-1.57.11,1.14,1.14,0,0,1,1.57-.11Z"/><path class="cls-3" d="M1720.92,829.4a1.09,1.09,0,1,1-1.41,1.66,1.09,1.09,0,1,1,1.41-1.66Z"/><path class="cls-3" d="M1744.17,834a1.09,1.09,0,1,1-1.57.11,1.12,1.12,0,0,1,1.57-.11Z"/><path class="cls-3" d="M1731.67,842.45a1.09,1.09,0,1,1-1.41,1.67,1.09,1.09,0,1,1,1.41-1.67Z"/><path class="cls-3" d="M1715.18,807.25a1.09,1.09,0,1,1-1.57.11,1.13,1.13,0,0,1,1.57-.11Z"/><path class="cls-3" d="M1754.89,818.11a1.09,1.09,0,1,1-1.4,1.66,1.09,1.09,0,1,1,1.4-1.66Z"/><path class="cls-3" d="M1712.65,846.42a1.09,1.09,0,1,1-1.57.1,1.13,1.13,0,0,1,1.57-.1Z"/><path class="cls-3" d="M1750,854.69a1.09,1.09,0,1,1-1.57.1,1.12,1.12,0,0,1,1.57-.1Z"/><path class="cls-3" d="M1735.2,753.45a2.17,2.17,0,1,1-3.13.21,2.23,2.23,0,0,1,3.13-.21Z"/><path class="cls-3" d="M1729.05,757.38a2.18,2.18,0,1,1-3.14.21,2.25,2.25,0,0,1,3.14-.21Z"/><path class="cls-3" d="M1742.92,750.87a2.18,2.18,0,1,1-3.14.21,2.25,2.25,0,0,1,3.14-.21Z"/><path class="cls-3" d="M1732.54,748.44a2.17,2.17,0,1,1-3.13.21,2.22,2.22,0,0,1,3.13-.21Z"/><path class="cls-3" d="M1738,760.75a2.18,2.18,0,1,1-3.14.21,2.24,2.24,0,0,1,3.14-.21Z"/><path class="cls-3" d="M1687.36,885h0a6.16,6.16,0,0,0-1.55,1.42l-.13.18a3.76,3.76,0,0,0-.58,1.29c0,.06,0,.12,0,.19a2.55,2.55,0,0,0-.24.67,3.6,3.6,0,0,0,.29,2.45,4.74,4.74,0,0,0,1.21,1.6,5.05,5.05,0,0,0,1.28.84,4.27,4.27,0,0,0,2.25.34,5.65,5.65,0,0,0,2.05-.73,10,10,0,0,0,1.52-1.16,4.63,4.63,0,0,0,.67-.86,3.79,3.79,0,0,0,.61-1.32,3.94,3.94,0,0,0-.15-2.12,5.37,5.37,0,0,0-1.23-2,5.17,5.17,0,0,0-1.54-1.12,4.2,4.2,0,0,0-2.33-.42,5,5,0,0,0-2.09.71Zm2.62,3.8h0l-.12.18h0l.12-.18Z"/><path class="cls-3" d="M1685.91,878.84a2.17,2.17,0,1,1-3.13.21,2.24,2.24,0,0,1,3.13-.21Z"/><path class="cls-3" d="M1696.17,879a2.17,2.17,0,1,1-3.13.22,2.23,2.23,0,0,1,3.13-.22Z"/><path class="cls-3" d="M1702.46,883.56a2.17,2.17,0,1,1-3.13.21,2.23,2.23,0,0,1,3.13-.21Z"/><path class="cls-3" d="M1699.42,892.34a2.18,2.18,0,1,1-3.14.21,2.24,2.24,0,0,1,3.14-.21Z"/><path class="cls-3" d="M1691.94,898.87a2.17,2.17,0,1,1-3.13.21,2.23,2.23,0,0,1,3.13-.21Z"/><path class="cls-3" d="M1683.77,896.32a2.17,2.17,0,1,1-3.13.21,2.23,2.23,0,0,1,3.13-.21Z"/><path class="cls-3" d="M1680.68,887.83a2.17,2.17,0,1,1-3.13.21,2.23,2.23,0,0,1,3.13-.21Z"/><path class="cls-3" d="M1716.55,811.39h0a1.92,1.92,0,0,0-.55.51,2.23,2.23,0,0,0,0,2.53c.49.75,1,1.48,1.53,2.19s1,1.37,1.48,2,1.19,1.63,1.76,2.47c1.13,1.66,2.36,3.25,3.57,4.85.68.9,1.34,1.81,2,2.71s1.23,1.57,1.8,2.38c1.23,1.71,2.62,3.31,3.84,5,.47.66.91,1.36,1.41,2s1.17,1.44,1.71,2.2,1.29,1.75,1.92,2.63,1.09,1.65,1.7,2.42l1.49,1.84c.51.64,1,1.32,1.47,2s.79,1,1.15,1.56l.52.75a3.16,3.16,0,0,0,1.13,1.08,2.28,2.28,0,0,0,2.26-.07,2.07,2.07,0,0,0,1-1.94,3.25,3.25,0,0,0-.45-1.25,1.93,1.93,0,0,0-.51-.56c-.18-.25-.34-.52-.51-.76-.86-1.22-1.81-2.37-2.7-3.56-.51-.68-1.07-1.3-1.57-2s-1.15-1.67-1.74-2.49-1.23-1.7-1.85-2.54-1.14-1.38-1.66-2.11-1-1.44-1.49-2.14-1.27-1.66-1.92-2.48-1.3-1.7-1.93-2.56-1.26-1.63-1.88-2.45-1.28-1.76-2-2.62-1.17-1.6-1.75-2.4-1.18-1.62-1.75-2.44-1.22-1.64-1.8-2.47c-.42-.6-.84-1.18-1.28-1.74s-.87-1.26-1.29-1.89a2.29,2.29,0,0,0-3.09-.7Zm26.78,39.79h0l0,0,0,0Z"/><path class="cls-3" d="M1717.8,840.13h0a2,2,0,0,0-.49.47,2.24,2.24,0,0,0,0,2.6,2.31,2.31,0,0,0,3.12.58,11.56,11.56,0,0,0,1.29-1,19.62,19.62,0,0,1,2.51-1.73,40.62,40.62,0,0,0,3.8-2.55c1.16-.87,2.32-1.74,3.55-2.52,1.79-1.14,3.64-2.19,5.46-3.28,1.63-1,3.37-1.81,5-2.82,1.77-1.11,3.49-2.27,5.15-3.54.68-.52,1.32-1.08,2-1.6s1.18-1,1.76-1.53l.33-.29a2.3,2.3,0,0,0,.89-1.44,2.22,2.22,0,0,0-.42-1.63,2.31,2.31,0,0,0-1.48-.93,2.15,2.15,0,0,0-1.64.35c-.49.43-1,.88-1.45,1.33s-.78.6-1.17.9-.79.67-1.2,1c-1,.76-2,1.51-3,2.19-2,1.34-4.14,2.59-6.29,3.77-.87.46-1.7,1-2.54,1.47s-1.89,1.11-2.82,1.68a58.88,58.88,0,0,0-5.24,3.63,33,33,0,0,1-2.79,1.86c-.77.48-1.56.92-2.29,1.45s-1.29,1.14-2,1.61Zm32.9-16.72h0l.22-.19-.22.19Z"/><path class="cls-3" d="M1711.44,1037.49h0a1,1,0,0,0,0,.34,1.08,1.08,0,0,0,.91.92c1.3.17,2.61.38,3.92.51s2.57.28,3.85.44l4.6.6c1.63.2,3.25.42,4.86.67s3.32.54,5,.77,3.3.43,5,.67c3.16.46,6.3,1,9.45,1.54l4.61.78,2.46.42c.37.07.76.15,1.14.2a6.24,6.24,0,0,0,1.36.07,1.09,1.09,0,1,0-.19-2.16h-.09c-1.08-.08-2.14-.31-3.2-.49l-3.2-.56c-3.15-.53-6.3-1.07-9.45-1.58-1.68-.26-3.38-.51-5.07-.73s-3.15-.41-4.72-.67c-3.29-.54-6.6-1-9.92-1.39-1.58-.19-3.16-.43-4.75-.6s-3.46-.42-5.19-.64a1.15,1.15,0,0,0-1.32.88Zm46.6,5.78Z"/><path class="cls-3" d="M1732.09,1057.24a5.17,5.17,0,0,1,.27-.75,12.69,12.69,0,0,0,.27-1.85c.08-.72.19-1.42.33-2.13.3-1.44.6-2.87.94-4.3.17-.74.35-1.48.52-2.21s.29-1.5.39-2.26c.22-1.47.28-3,.55-4.44a32.66,32.66,0,0,1,1-4,15.68,15.68,0,0,0,.46-2c.12-.76.2-1.53.29-2.29a11.33,11.33,0,0,1,.2-1.28,11.13,11.13,0,0,1,.43-1.35c.22-.63.39-1.27.55-1.92.35-1.49.62-3,.92-4.53a1.16,1.16,0,0,1,1.32-.88,1.09,1.09,0,0,1,.91,1.26c-.34,1.64-.63,3.27-1,4.89a20.08,20.08,0,0,1-.63,2,8.26,8.26,0,0,0-.4,1.63c-.06.43-.11.87-.16,1.31-.08.73-.16,1.46-.31,2.18s-.37,1.41-.58,2.12-.42,1.51-.61,2.26a15.16,15.16,0,0,0-.37,2.12c-.09.7-.14,1.4-.22,2.1s-.2,1.53-.32,2.29c-.21,1.35-.6,2.68-.9,4s-.62,2.8-.89,4.2c-.13.66-.2,1.31-.27,2l-.12,1a3.79,3.79,0,0,1-.27.91,1.09,1.09,0,0,1-.45,1.22,1.17,1.17,0,0,1-1.57-.27,1.64,1.64,0,0,1-.31-.7.92.92,0,0,1,0-.37Z"/><path class="cls-3" d="M1729.61,1031a1.13,1.13,0,0,1,1.22,1,1.14,1.14,0,0,1-2.26.2,1.13,1.13,0,0,1,1-1.19Z"/><path class="cls-3" d="M1725.94,1047.16a1.09,1.09,0,1,1,.18,2.17,1.12,1.12,0,0,1-1.22-1,1.13,1.13,0,0,1,1-1.19Z"/><path class="cls-3" d="M1745.63,1034a1.09,1.09,0,1,1,.18,2.17,1.09,1.09,0,1,1-.18-2.17Z"/><path class="cls-3" d="M1742.77,1048.79a1.13,1.13,0,0,1,1.22,1,1.14,1.14,0,0,1-2.26.2,1.14,1.14,0,0,1,1-1.19Z"/><path class="cls-3" d="M1706.22,1035.56a1.09,1.09,0,1,1-1,1.19,1.12,1.12,0,0,1,1-1.19Z"/><path class="cls-3" d="M1742,1015.15a1.13,1.13,0,0,1,1.22,1,1.14,1.14,0,0,1-2.26.2,1.14,1.14,0,0,1,1-1.19Z"/><path class="cls-3" d="M1732.13,1065a1.09,1.09,0,1,1-1,1.19,1.13,1.13,0,0,1,1-1.19Z"/><path class="cls-3" d="M1764.38,1044.49a1.12,1.12,0,0,1,1.21,1,1.11,1.11,0,0,1-1,1.18,1.12,1.12,0,0,1-1.22-1,1.13,1.13,0,0,1,1-1.19Z"/><path class="cls-3" d="M1682.34,983.36a2.17,2.17,0,1,1-2.07,2.36,2.23,2.23,0,0,1,2.07-2.36Z"/><path class="cls-3" d="M1680.76,990.49a2.17,2.17,0,1,1-2.07,2.36,2.23,2.23,0,0,1,2.07-2.36Z"/><path class="cls-3" d="M1686,976.08a2.17,2.17,0,1,1-2.07,2.36,2.24,2.24,0,0,1,2.07-2.36Z"/><path class="cls-3" d="M1676.91,981.69a2.17,2.17,0,1,1-2.07,2.37,2.24,2.24,0,0,1,2.07-2.37Z"/><path class="cls-3" d="M1689.45,986.56a2.17,2.17,0,1,1-2.06,2.37,2.24,2.24,0,0,1,2.06-2.37Z"/><path class="cls-3" d="M1741.49,1110.18h0a5.88,5.88,0,0,0-.09,2.09,1.85,1.85,0,0,0,0,.23,3.49,3.49,0,0,0,.5,1.31l.1.17a2.75,2.75,0,0,0,.31.65,3.61,3.61,0,0,0,1.93,1.52,4.67,4.67,0,0,0,2,.27,4.84,4.84,0,0,0,1.5-.31,4.31,4.31,0,0,0,1.82-1.35,5.52,5.52,0,0,0,.93-2,9.35,9.35,0,0,0,.26-1.9,4.37,4.37,0,0,0-.13-1.08,3.54,3.54,0,0,0-2.11-2.75,5.17,5.17,0,0,0-2.26-.52,5.25,5.25,0,0,0-1.88.29,4.25,4.25,0,0,0-2,1.35,5,5,0,0,0-1,2Zm4.54.83h0c0,.07,0,.14,0,.21h0c0-.07,0-.14,0-.21Z"/><path class="cls-3" d="M1736.15,1106.87a2.17,2.17,0,1,1-2.07,2.37,2.24,2.24,0,0,1,2.07-2.37Z"/><path class="cls-3" d="M1743.54,1099.76a2.17,2.17,0,1,1-2.07,2.37,2.23,2.23,0,0,1,2.07-2.37Z"/><path class="cls-3" d="M1751.18,1098.51a2.17,2.17,0,1,1-2.06,2.36,2.24,2.24,0,0,1,2.06-2.36Z"/><path class="cls-3" d="M1755.24,1106.87a2.17,2.17,0,1,1-2.06,2.37,2.24,2.24,0,0,1,2.06-2.37Z"/><path class="cls-3" d="M1754.58,1116.78a2.17,2.17,0,1,1-2.07,2.37,2.24,2.24,0,0,1,2.07-2.37Z"/><path class="cls-3" d="M1747,1120.75a2.17,2.17,0,1,1,.37,4.33,2.17,2.17,0,1,1-.37-4.33Z"/><path class="cls-3" d="M1738.8,1116.93a2.17,2.17,0,1,1-2.06,2.37,2.24,2.24,0,0,1,2.06-2.37Z"/><path class="cls-3" d="M1710.11,1037.52h0a2.11,2.11,0,0,0,0,.75,2.22,2.22,0,0,0,1.76,1.82c.88.18,1.74.35,2.63.46s1.65.29,2.49.4c1,.13,2,.31,3,.5,2,.37,4,.63,6,.9l3.35.5c1,.14,2,.24,3,.41,2.08.34,4.19.49,6.26.84.81.14,1.61.32,2.42.42s1.85.18,2.76.35c1.07.19,2.15.32,3.22.5s1.94.39,2.92.5l2.36.26c.81.09,1.6.24,2.42.34.64.08,1.28.17,1.91.29l.9.17a3.29,3.29,0,0,0,1.56,0,2.3,2.3,0,0,0,1.55-1.65,2.07,2.07,0,0,0-.69-2.06,3.18,3.18,0,0,0-1.19-.56,1.76,1.76,0,0,0-.76,0l-.91-.18c-1.46-.25-3-.4-4.42-.61-.83-.12-1.68-.17-2.51-.29-1-.15-2-.37-3-.53s-2.07-.34-3.1-.49-1.79-.17-2.67-.32-1.71-.33-2.57-.46c-1-.15-2.07-.27-3.11-.4s-2.12-.28-3.17-.44-2-.26-3.06-.4-2.16-.34-3.25-.47-1.95-.3-2.93-.46-2-.31-3-.49-2-.3-3-.47c-.72-.13-1.42-.25-2.14-.33s-1.5-.27-2.24-.43a2.32,2.32,0,0,0-2.69,1.7Zm47.08,9.2Z"/><path class="cls-3" d="M1731.33,1057h0a1.74,1.74,0,0,0,0,.68,2.23,2.23,0,0,0,1.85,1.82,2.3,2.3,0,0,0,2.61-1.8,11.17,11.17,0,0,0,.2-1.63,18,18,0,0,1,.55-3,40.29,40.29,0,0,0,.88-4.48c.2-1.44.42-2.88.73-4.3.46-2.07,1-4.13,1.54-6.18.47-1.85,1.11-3.66,1.53-5.52.47-2,.87-4.08,1.15-6.15.11-.84.17-1.69.28-2.54s.13-1.55.16-2.33l0-.44a2.31,2.31,0,0,0-.39-1.65,2.29,2.29,0,0,0-1.44-.85,2.37,2.37,0,0,0-1.72.39,2.09,2.09,0,0,0-.9,1.4c0,.65-.07,1.31-.09,2,0,.49-.13,1-.18,1.46s-.09,1-.16,1.56c-.16,1.23-.33,2.46-.58,3.68-.51,2.4-1.1,4.75-1.79,7.11-.28.94-.52,1.89-.75,2.84s-.55,2.12-.81,3.17a56.27,56.27,0,0,0-1.14,6.28c-.15,1.11-.39,2.2-.65,3.29-.22.88-.46,1.75-.59,2.64s-.12,1.72-.3,2.58Zm11.44-35.09h0c0-.1,0-.2,0-.29,0,.09,0,.19,0,.29Z"/><path class="cls-3" d="M1169.07,106.23a4.06,4.06,0,0,0-.62,1.61,3.18,3.18,0,0,0,.26,1.8,3.84,3.84,0,0,0,.84,1.19,4,4,0,0,0,1.49,1,3.1,3.1,0,0,0,1.65.12,2.93,2.93,0,0,0,1-.47,3.2,3.2,0,0,0,.69-.52,7.11,7.11,0,0,0,1-1.17,4.5,4.5,0,0,0,.62-1.58,3.24,3.24,0,0,0-.19-1.74,3.84,3.84,0,0,0-1.84-1.93,2.83,2.83,0,0,0-1.9-.22,2.21,2.21,0,0,0-.53.18l-.16,0a3,3,0,0,0-1,.44l-.15.1a5,5,0,0,0-1.15,1.2Zm2.89,2,.15-.09h0a1.19,1.19,0,0,1-.15.09Z"/><path class="cls-3" d="M1164.33,105.11a1.76,1.76,0,0,0,2.42.26A1.72,1.72,0,0,0,1167,103a1.72,1.72,0,1,0-2.68,2.16Z"/><path class="cls-3" d="M1164.19,113a1.72,1.72,0,1,0,.26-2.42,1.72,1.72,0,0,0-.26,2.42Z"/><path class="cls-3" d="M1167.54,117.89a1.75,1.75,0,0,0,2.42.26,1.72,1.72,0,1,0-2.42-.26Z"/><path class="cls-3" d="M1174.5,115.54a1.74,1.74,0,0,0,2.42.26,1.72,1.72,0,0,0,.25-2.42,1.75,1.75,0,0,0-2.42-.26,1.73,1.73,0,0,0-.25,2.42Z"/><path class="cls-3" d="M1179.82,109.77a1.75,1.75,0,0,0,2.42.26,1.72,1.72,0,1,0-2.42-.26Z"/><path class="cls-3" d="M1178.06,103.46a1.76,1.76,0,0,0,2.42.26,1.72,1.72,0,1,0-2.42-.26Z"/><path class="cls-3" d="M1171.51,101.07a1.75,1.75,0,0,0,2.42.26,1.72,1.72,0,0,0,.26-2.42,1.72,1.72,0,1,0-2.68,2.16Z"/><path class="cls-3" d="M1607.41,7.94a4.11,4.11,0,0,0-.62,1.62,3.2,3.2,0,0,0,.26,1.8,3.68,3.68,0,0,0,.84,1.19,4,4,0,0,0,1.49.95,2.87,2.87,0,0,0,2.7-.35,3.57,3.57,0,0,0,.69-.52,7.67,7.67,0,0,0,1-1.18,4.22,4.22,0,0,0,.63-1.57,3.23,3.23,0,0,0-.19-1.74,3.51,3.51,0,0,0-.62-1,3.48,3.48,0,0,0-1.22-.94,2.86,2.86,0,0,0-1.91-.23,3,3,0,0,0-.53.19l-.15,0a3.21,3.21,0,0,0-1,.45l-.15.1a5,5,0,0,0-1.15,1.19Zm2.89,2,.14-.09h0l-.15.09Z"/><path class="cls-3" d="M1602.67,6.83a1.72,1.72,0,0,0,2.68-2.17,1.74,1.74,0,0,0-2.42-.25,1.72,1.72,0,0,0-.26,2.42Z"/><path class="cls-3" d="M1602.53,14.75A1.74,1.74,0,0,0,1605,15a1.72,1.72,0,0,0,.25-2.42,1.74,1.74,0,0,0-2.42-.25,1.72,1.72,0,0,0-.25,2.42Z"/><path class="cls-3" d="M1605.88,19.61a1.74,1.74,0,0,0,2.42.25,1.72,1.72,0,0,0,.25-2.42,1.74,1.74,0,0,0-2.42-.25,1.72,1.72,0,0,0-.25,2.42Z"/><path class="cls-3" d="M1612.83,17.26a1.76,1.76,0,0,0,2.42.26,1.72,1.72,0,1,0-2.42-.26Z"/><path class="cls-3" d="M1618.16,11.49a1.74,1.74,0,0,0,2.42.25,1.72,1.72,0,0,0,.25-2.42,1.74,1.74,0,0,0-2.42-.25,1.72,1.72,0,0,0-.25,2.42Z"/><path class="cls-3" d="M1616.4,5.18A1.72,1.72,0,0,0,1619.08,3a1.74,1.74,0,0,0-2.42-.25,1.72,1.72,0,0,0-.26,2.42Z"/><path class="cls-3" d="M1609.85,2.79a1.75,1.75,0,0,0,2.42.26,1.73,1.73,0,0,0,.26-2.42,1.74,1.74,0,0,0-2.42-.26,1.72,1.72,0,0,0-.26,2.42Z"/><path class="cls-3" d="M459.59,901.65a1.34,1.34,0,0,0-.27,1,1.39,1.39,0,0,0,1.57,1.17c.62-.15,1.22-.32,1.84-.48l1.92-.49c1.26-.32,2.51-.68,3.74-1.1s2.45-.83,3.66-1.28,2.18-.81,3.3-1.14c.49-.12,1-.21,1.47-.3A1.4,1.4,0,0,0,478,897.5a1.38,1.38,0,0,0-1.56-1.17c-.45.09-.9.16-1.35.27s-1,.28-1.5.44c-1,.31-1.89.68-2.84,1-1.88.67-3.77,1.34-5.7,1.89l-2.18.58c-.8.2-1.58.42-2.37.6a1.52,1.52,0,0,0-.85.46l-.05.07Zm15.91-2.32.13,0-.13,0Z"/><path class="cls-3" d="M462.82,893.49a3.71,3.71,0,0,0,.68,1.36c.58,1,1.05,2.12,1.61,3.16.35.64.75,1.25,1.13,1.87s.65,1,1,1.58c.67,1.21,1.28,2.45,1.94,3.67.38.69.8,1.36,1.23,2s.76,1.08,1.11,1.64l.36.65a1.52,1.52,0,0,0,.76.74,1.36,1.36,0,0,0,1,0,1.4,1.4,0,0,0,.75-.76,1.32,1.32,0,0,0,0-1c-.4-.71-.81-1.42-1.28-2.09s-.77-1.14-1.14-1.72c-.69-1.22-1.3-2.46-2-3.69s-1.52-2.55-2.3-3.82c-.37-.68-.72-1.37-1-2.08a17.91,17.91,0,0,0-1.15-2.05,1.39,1.39,0,0,0-1.52-1,1.41,1.41,0,0,0-.84.46,1.37,1.37,0,0,0-.33,1.1Zm2.73-.5,0,0,0,0Z"/><path class="cls-3" d="M464.68,908a1.42,1.42,0,0,0,1.94-.26,1.38,1.38,0,1,0-1.94.26Z"/><path class="cls-3" d="M469.43,895.75a1.42,1.42,0,0,0,1.94-.26,1.38,1.38,0,1,0-1.94.26Z"/><path class="cls-3" d="M460.09,899.37a1.38,1.38,0,1,0-.27-1.94,1.39,1.39,0,0,0,.27,1.94Z"/><path class="cls-3" d="M472.39,903.86a1.42,1.42,0,0,0,1.94-.26,1.38,1.38,0,1,0-1.94.26Z"/><path class="cls-3" d="M461.16,890.38a1.4,1.4,0,0,0,1.93-.26,1.38,1.38,0,0,0-.26-1.94,1.38,1.38,0,0,0-1.67,2.2Z"/><path class="cls-3" d="M474,913.19a1.41,1.41,0,0,0,1.94-.26,1.38,1.38,0,0,0-.27-1.93,1.38,1.38,0,0,0-1.67,2.19Z"/><path class="cls-3" d="M456.57,904.77a1.41,1.41,0,0,0,1.94-.26,1.38,1.38,0,0,0-.27-1.93,1.38,1.38,0,1,0-1.67,2.19Z"/><path class="cls-3" d="M480.86,897.74a1.39,1.39,0,0,0,1.93-.26,1.37,1.37,0,0,0-.26-1.93,1.39,1.39,0,0,0-1.93.26,1.37,1.37,0,0,0,.26,1.93Z"/><path class="cls-3" d="M492,860.6a1.4,1.4,0,0,0-.35,1,1.37,1.37,0,0,0,.44.95,1.54,1.54,0,0,0,1,.36,1.34,1.34,0,0,0,1-.45,1.41,1.41,0,0,0,.35-1,1.38,1.38,0,0,0-.45-1,1.54,1.54,0,0,0-1-.35,1.34,1.34,0,0,0-1,.45Z"/><path class="cls-3" d="M495.79,859.77a1.43,1.43,0,0,0-.35,1,1.4,1.4,0,0,0,.45,1,1.5,1.5,0,0,0,1,.35,1.27,1.27,0,0,0,1-.45,1.35,1.35,0,0,0,.36-1,1.4,1.4,0,0,0-.45-1,1.46,1.46,0,0,0-1-.35,1.33,1.33,0,0,0-1,.44Z"/><path class="cls-3" d="M490.79,857.14a1.48,1.48,0,0,0-.36,1,1.4,1.4,0,0,0,.45,1,1.51,1.51,0,0,0,1,.35,1.3,1.3,0,0,0,1-.45,1.39,1.39,0,0,0-.1-2,1.51,1.51,0,0,0-1-.36,1.34,1.34,0,0,0-1,.45Z"/><path class="cls-3" d="M487.22,862.74a1.39,1.39,0,0,0-.35,1,1.34,1.34,0,0,0,.45,1,1.49,1.49,0,0,0,1,.36,1.34,1.34,0,0,0,1-.45,1.43,1.43,0,0,0,.35-1,1.36,1.36,0,0,0-.45-1,1.48,1.48,0,0,0-1-.35,1.27,1.27,0,0,0-1,.45Z"/><path class="cls-3" d="M493.69,864a1.4,1.4,0,0,0,.1,2,1.55,1.55,0,0,0,1,.35,1.31,1.31,0,0,0,1-.45,1.44,1.44,0,0,0,.36-1,1.43,1.43,0,0,0-.45-1,1.54,1.54,0,0,0-1-.36,1.36,1.36,0,0,0-1,.45Z"/><path class="cls-3" d="M402.91,822.35a.7.7,0,0,0-.48.85c.23,1,.47,2.08.68,3.13s.42,1.91.62,2.87c.43,2,.89,4,1.4,6,.24.94.45,1.9.67,2.84s.47,2,.73,3.06c.48,1.89,1,3.79,1.49,5.69.18.63.35,1.28.52,1.92s.37,1.27.48,1.92v.06a.7.7,0,0,0,.68.7.71.71,0,0,0,.7-.69,3.32,3.32,0,0,0-.12-.82c0-.23-.12-.46-.18-.69l-.4-1.48c-.24-.92-.49-1.84-.74-2.77-.5-1.89-1-3.79-1.46-5.69-.24-1-.46-2-.69-3s-.49-2-.75-3-.46-2-.67-2.93-.42-1.85-.62-2.77-.32-1.55-.48-2.33-.35-1.58-.53-2.37a.69.69,0,0,0-.63-.51.82.82,0,0,0-.22,0Zm6.1,28.13s0,.07,0,.11a.41.41,0,0,1,0-.11Z"/><path class="cls-3" d="M416.5,834a2.67,2.67,0,0,0-.46.2,9.22,9.22,0,0,1-1.16.25c-.45.08-.89.18-1.33.3-.89.25-1.79.5-2.68.78l-1.37.42c-.46.13-.93.24-1.41.34-.92.2-1.86.31-2.78.54a23.64,23.64,0,0,0-2.46.82,9.14,9.14,0,0,1-1.26.38c-.48.11-1,.19-1.44.28-.27,0-.53.11-.79.18a8.6,8.6,0,0,0-.84.33c-.39.16-.78.3-1.18.42-.93.29-1.88.53-2.82.78a.69.69,0,0,0,.35,1.34c1-.28,2-.54,3-.85.44-.13.85-.31,1.27-.48a5.82,5.82,0,0,1,1-.32l.83-.16c.45-.08.91-.17,1.36-.29s.88-.29,1.31-.45.93-.33,1.4-.48a11.74,11.74,0,0,1,1.33-.33l1.31-.23c.49-.08,1-.19,1.44-.3.84-.19,1.66-.49,2.49-.74s1.74-.51,2.61-.74c.41-.11.82-.18,1.23-.25l.64-.13a2.66,2.66,0,0,0,.56-.2.7.7,0,0,0,.5-1.28,1.2,1.2,0,0,0-.46-.16.85.85,0,0,0-.23,0Z"/><path class="cls-3" d="M399.76,833.73a.69.69,0,0,0,1.38,0,.71.71,0,0,0-.69-.7.69.69,0,0,0-.69.69Z"/><path class="cls-3" d="M409.8,830.73a.69.69,0,1,0,1.38,0,.71.71,0,0,0-.69-.7.7.7,0,0,0-.69.69Z"/><path class="cls-3" d="M402.47,843.35a.71.71,0,0,0,.69.7.69.69,0,1,0-.69-.7Z"/><path class="cls-3" d="M411.71,840.91a.7.7,0,0,0,.68.7.69.69,0,1,0,0-1.38.68.68,0,0,0-.69.68Z"/><path class="cls-3" d="M401.42,819.26a.7.7,0,1,0,.7-.69.71.71,0,0,0-.7.69Z"/><path class="cls-3" d="M390.37,842a.69.69,0,1,0,1.38,0,.71.71,0,0,0-.69-.7.7.7,0,0,0-.69.69Z"/><path class="cls-3" d="M421.44,833.66a.7.7,0,1,0,.7-.68.7.7,0,0,0-.7.68Z"/><path class="cls-3" d="M410.11,854.28a.7.7,0,0,0,1.39,0,.7.7,0,0,0-1.39,0Z"/><path class="cls-3" d="M450.51,837.25a3.32,3.32,0,0,0-1.21.69,2.56,2.56,0,0,0-.75,1.25,3,3,0,0,0-.09,1.16,3.09,3.09,0,0,0,.45,1.35,2.5,2.5,0,0,0,1,.92,3.45,3.45,0,0,0,1.58.26,5.35,5.35,0,0,0,1.19-.24,3.4,3.4,0,0,0,1.19-.66,2.54,2.54,0,0,0,.76-1.17,2.68,2.68,0,0,0,.12-.93,3,3,0,0,0-.27-1.21,2.33,2.33,0,0,0-1.07-1.1,1.81,1.81,0,0,0-.42-.16l-.12-.06a2.57,2.57,0,0,0-.86-.24h-.14a4.22,4.22,0,0,0-1.32.15Zm.76,2.73.14,0h0l-.14,0Z"/><path class="cls-3" d="M448.14,834.15a1.38,1.38,0,1,0,1.39-1.37,1.39,1.39,0,0,0-1.39,1.37Z"/><path class="cls-3" d="M444,839a1.38,1.38,0,1,0,1.39-1.37A1.4,1.4,0,0,0,444,839Z"/><path class="cls-3" d="M443.63,843.71a1.38,1.38,0,1,0,1.39-1.37,1.4,1.4,0,0,0-1.39,1.37Z"/><path class="cls-3" d="M449.13,845.79a1.4,1.4,0,0,0,1.38,1.39,1.39,1.39,0,0,0,1.39-1.37,1.4,1.4,0,0,0-1.38-1.39,1.39,1.39,0,0,0-1.39,1.37Z"/><path class="cls-3" d="M455.37,844.92a1.41,1.41,0,0,0,1.37,1.39,1.38,1.38,0,1,0-1.37-1.39Z"/><path class="cls-3" d="M457.49,840.11a1.38,1.38,0,1,0,1.39-1.37,1.4,1.4,0,0,0-1.39,1.37Z"/><path class="cls-3" d="M454.64,835.3a1.41,1.41,0,0,0,1.38,1.39,1.39,1.39,0,0,0,1.39-1.37,1.4,1.4,0,0,0-1.38-1.39,1.39,1.39,0,0,0-1.39,1.37Z"/><path class="cls-3" d="M402.86,821.54a1.39,1.39,0,0,0-.93,1.71,13,13,0,0,1,.39,1.35c.09.43.2.86.32,1.29.16.6.28,1.22.45,1.82s.32,1.18.47,1.78.31,1.17.44,1.77.32,1.3.47,2,.26,1.23.41,1.85.32,1.27.45,1.91.26,1.26.42,1.88.29,1,.42,1.54.2,1.08.34,1.61.3,1.25.47,1.87.35,1.19.49,1.8.2,1,.32,1.51c.21.89.38,1.79.61,2.67.05.18.11.36.17.54a.91.91,0,0,0,.06.47,1.8,1.8,0,0,0,.42.7,1.35,1.35,0,0,0,1.33.32,1.43,1.43,0,0,0,1-1,2,2,0,0,0-.06-1c-.05-.18-.11-.36-.16-.54-.1-.38-.19-.77-.28-1.16s-.24-1-.34-1.46-.19-1-.28-1.42-.31-1.17-.47-1.76-.31-1.29-.49-1.93-.25-1.11-.37-1.67-.26-1-.39-1.45c-.33-1.25-.53-2.53-.86-3.78-.16-.59-.27-1.19-.41-1.78s-.33-1.34-.49-2c-.27-1.2-.54-2.4-.88-3.59-.17-.59-.34-1.19-.48-1.8s-.26-1-.37-1.49-.28-1.06-.44-1.58a1.41,1.41,0,0,0-1.24-1,1.31,1.31,0,0,0-.48,0Zm8.29,28.26h0v0Z"/><path class="cls-3" d="M416.28,833.56c-.53.15-1.08.18-1.61.3s-1.1.31-1.65.48a20,20,0,0,1-2,.56,37.88,37.88,0,0,0-3.91,1l-2,.65c-.59.19-1.18.37-1.76.59-1.45.53-2.91,1-4.41,1.42-.75.21-1.53.37-2.3.53l-1,.17c-.31,0-.61.13-.92.18l-1.24.14a1.36,1.36,0,0,0-.84.62,1.43,1.43,0,0,0-.16,1.07,1.37,1.37,0,0,0,.62.83,1.45,1.45,0,0,0,1.06.16l.28,0a14.23,14.23,0,0,0,1.46-.2c.53-.11,1.07-.19,1.6-.29,1.29-.27,2.56-.61,3.83-1s2.27-.82,3.42-1.19,2.54-.85,3.83-1.23c.88-.26,1.78-.46,2.68-.64s1.88-.45,2.8-.75a10.81,10.81,0,0,1,1.86-.48,7.21,7.21,0,0,0,1-.2,1.4,1.4,0,0,0,1-1.68,1.42,1.42,0,0,0-1.25-1,1.27,1.27,0,0,0-.43,0Zm-21.62,8.62-.18,0,.18,0Z"/><path class="cls-3" d="M760.26,91.31a1.36,1.36,0,0,0,.63-.87,1.38,1.38,0,0,0-1-1.66c-.63-.09-1.25-.15-1.89-.24l-2-.24c-1.29-.16-2.59-.28-3.89-.35s-2.58-.12-3.87-.15-2.33,0-3.49-.14c-.5-.06-1-.16-1.48-.26a1.4,1.4,0,0,0-1.66,1,1.38,1.38,0,0,0,1,1.65c.45.09.89.19,1.35.25s1,.11,1.56.14c1,.06,2,.06,3,.09,2,.07,4,.14,6,.33l2.25.26c.81.11,1.62.19,2.42.31a1.51,1.51,0,0,0,1-.12l.07,0Zm-15.65-3.66h0Z"/><path class="cls-3" d="M754.27,97.71a3.86,3.86,0,0,0-.13-1.51c-.17-1.17-.21-2.36-.35-3.53-.09-.72-.24-1.44-.36-2.15s-.22-1.21-.32-1.82c-.18-1.37-.29-2.75-.46-4.12-.1-.78-.25-1.56-.41-2.33s-.31-1.28-.43-1.93c0-.24-.07-.49-.1-.74a1.51,1.51,0,0,0-.44-1,1.37,1.37,0,0,0-1-.38,1.41,1.41,0,0,0-1,.43,1.32,1.32,0,0,0-.38,1,24.07,24.07,0,0,0,.42,2.4c.16.68.31,1.35.44,2,.19,1.38.31,2.77.47,4.15s.48,2.93.74,4.39c.1.77.17,1.55.22,2.32a18.13,18.13,0,0,0,.32,2.33,1.37,1.37,0,0,0,2,1.34,1.35,1.35,0,0,0,.71-.91Zm-2.73-.52v0Z"/><path class="cls-3" d="M757.86,83.5A1.4,1.4,0,0,0,756,83a1.38,1.38,0,0,0-.47,1.9,1.41,1.41,0,0,0,1.9.47,1.39,1.39,0,0,0,.46-1.9Z"/><path class="cls-3" d="M748.94,93.2a1.41,1.41,0,0,0-1.9-.47,1.39,1.39,0,0,0-.46,1.9,1.41,1.41,0,0,0,1.9.46,1.38,1.38,0,0,0,.46-1.89Z"/><path class="cls-3" d="M759,93.25a1.4,1.4,0,0,0-1.9-.47,1.38,1.38,0,0,0-.46,1.9,1.39,1.39,0,0,0,1.89.46,1.38,1.38,0,0,0,.47-1.89Z"/><path class="cls-3" d="M749.15,84.57A1.38,1.38,0,1,0,746.79,86a1.41,1.41,0,0,0,1.9.46,1.38,1.38,0,0,0,.46-1.89Z"/><path class="cls-3" d="M754.68,101.22a1.41,1.41,0,0,0-1.9-.46,1.38,1.38,0,0,0-.47,1.89,1.38,1.38,0,0,0,2.37-1.43Z"/><path class="cls-3" d="M751,75.28a1.4,1.4,0,0,0-1.9-.47,1.38,1.38,0,0,0-.46,1.9A1.38,1.38,0,0,0,751,75.28Z"/><path class="cls-3" d="M764.22,89.5a1.41,1.41,0,0,0-1.9-.46,1.38,1.38,0,0,0-.47,1.89,1.38,1.38,0,0,0,2.37-1.43Z"/><path class="cls-3" d="M739,87.16a1.41,1.41,0,0,0-1.9-.46,1.38,1.38,0,1,0,1.9.46Z"/><path class="cls-3" d="M715.13,117.67a1.39,1.39,0,0,0,.62-1.85,1.54,1.54,0,0,0-.79-.7,1.39,1.39,0,0,0-1.06.07,1.43,1.43,0,0,0-.69.8,1.36,1.36,0,0,0,.06,1.05,1.53,1.53,0,0,0,.8.7,1.31,1.31,0,0,0,1.06-.07Z"/><path class="cls-3" d="M711.25,117a1.38,1.38,0,0,0,.69-.79,1.39,1.39,0,0,0-.07-1.06,1.48,1.48,0,0,0-.79-.69,1.35,1.35,0,0,0-1.06.06,1.41,1.41,0,0,0-.63,1.86,1.59,1.59,0,0,0,.8.69,1.31,1.31,0,0,0,1.06-.07Z"/><path class="cls-3" d="M714.94,121.31a1.37,1.37,0,0,0,.63-1.85,1.47,1.47,0,0,0-.8-.69,1.32,1.32,0,0,0-1,.06,1.39,1.39,0,0,0-.63,1.86,1.55,1.55,0,0,0,.8.69,1.28,1.28,0,0,0,1.05-.07Z"/><path class="cls-3" d="M720.31,117.41a1.33,1.33,0,0,0,.69-.8,1.37,1.37,0,0,0-.06-1,1.53,1.53,0,0,0-.8-.7,1.4,1.4,0,0,0-1.06.07,1.47,1.47,0,0,0-.69.8,1.39,1.39,0,0,0,.07,1.06,1.57,1.57,0,0,0,.79.69,1.31,1.31,0,0,0,1.06-.07Z"/><path class="cls-3" d="M714.75,113.87a1.41,1.41,0,0,0,.63-1.86,1.55,1.55,0,0,0-.8-.69,1.31,1.31,0,0,0-1.06.07,1.41,1.41,0,0,0-.69.79,1.39,1.39,0,0,0,.07,1.06,1.48,1.48,0,0,0,.79.69,1.35,1.35,0,0,0,1.06-.06Z"/><path class="cls-3" d="M784,185.84a.69.69,0,0,0,.76-.61c.17-1,.32-2.11.51-3.16s.31-1.93.47-2.9q.51-3,.89-6.07c.11-1,.27-1.94.42-2.9s.3-2.07.43-3.11c.25-1.94.47-3.89.69-5.84.08-.66.15-1.32.23-2s.12-1.32.25-2l0-.06a.69.69,0,1,0-1.28-.51,3.21,3.21,0,0,0-.19.8c0,.24-.06.48-.08.71l-.18,1.52-.33,2.86c-.22,1.94-.44,3.89-.71,5.82-.15,1-.3,2-.46,3s-.27,2-.4,3.06-.28,2-.44,3-.29,1.87-.44,2.81c-.13.78-.27,1.56-.41,2.34s-.25,1.6-.37,2.4a.67.67,0,0,0,.4.7.73.73,0,0,0,.21.06Zm4.62-28.41a.38.38,0,0,1,0-.1l0,.1Z"/><path class="cls-3" d="M775.62,170a2.1,2.1,0,0,0,.5,0,8,8,0,0,1,1.17.2c.45.09.89.15,1.35.2.92.1,1.85.19,2.77.26l1.43.11c.48,0,1,.11,1.44.19.93.16,1.85.4,2.79.52a22.35,22.35,0,0,0,2.59.13,9.67,9.67,0,0,1,1.31.12c.48.07,1,.17,1.44.26a7.18,7.18,0,0,0,.81.12,6.61,6.61,0,0,0,.89,0c.42,0,.84,0,1.26,0,1,.07,1.94.2,2.91.31a.69.69,0,0,0,.16-1.37c-1.05-.12-2.09-.25-3.14-.33-.45,0-.9,0-1.35,0a5.35,5.35,0,0,1-1.06-.08c-.27,0-.55-.09-.82-.15-.46-.08-.92-.17-1.38-.23s-.92,0-1.38,0l-1.48-.07a10.18,10.18,0,0,1-1.35-.18c-.44-.08-.88-.19-1.31-.27s-1-.17-1.45-.24c-.85-.13-1.72-.15-2.59-.22s-1.8-.17-2.7-.27c-.42-.05-.83-.14-1.24-.22l-.64-.12a3,3,0,0,0-.6,0,.71.71,0,0,0-.81,0,.7.7,0,0,0-.12,1,1.13,1.13,0,0,0,.37.32.65.65,0,0,0,.23.06Z"/><path class="cls-3" d="M791.1,176.41a.71.71,0,0,0-.39-.9.7.7,0,0,0-.9.39.72.72,0,0,0,.39.9.7.7,0,0,0,.9-.39Z"/><path class="cls-3" d="M780.66,175.53a.71.71,0,0,0-.39-.9.69.69,0,0,0-.9.38.71.71,0,0,0,.39.9.7.7,0,0,0,.9-.38Z"/><path class="cls-3" d="M792.09,166.46a.69.69,0,1,0-.9.38.7.7,0,0,0,.9-.38Z"/><path class="cls-3" d="M782.6,165.35a.69.69,0,1,0-.9.38.7.7,0,0,0,.9-.38Z"/><path class="cls-3" d="M784.26,189.26a.72.72,0,0,0-.39-.9.7.7,0,0,0-.9.39.69.69,0,1,0,1.29.51Z"/><path class="cls-3" d="M802.87,172.14a.71.71,0,0,0-.39-.9.69.69,0,0,0-.9.38.7.7,0,0,0,1.29.52Z"/><path class="cls-3" d="M770.89,168.53a.7.7,0,0,0-.38-.9.69.69,0,0,0-.9.39.7.7,0,0,0,.38.9.69.69,0,0,0,.9-.39Z"/><path class="cls-3" d="M789,153.49a.69.69,0,1,0-.9.38.7.7,0,0,0,.9-.38Z"/><path class="cls-3" d="M745.15,154.56a3.24,3.24,0,0,0,1.38-.2,2.58,2.58,0,0,0,1.16-.88,3.18,3.18,0,0,0,.5-1,3.25,3.25,0,0,0,.08-1.42,2.29,2.29,0,0,0-1.3-1.76,3.35,3.35,0,0,0-.64-.28,5.92,5.92,0,0,0-1.19-.2,3.44,3.44,0,0,0-1.35.17,2.65,2.65,0,0,0-1.14.82,3.11,3.11,0,0,0-.45.82,2.83,2.83,0,0,0-.18,1.22,2.31,2.31,0,0,0,.58,1.42,1.88,1.88,0,0,0,.34.3l.09.1a2.52,2.52,0,0,0,.71.54l.13.06a4,4,0,0,0,1.28.34Zm.29-2.82-.12-.06h0l.12.06Z"/><path class="cls-3" d="M746.23,158.32a1.41,1.41,0,0,0-.77-1.8,1.38,1.38,0,1,0,.77,1.8Z"/><path class="cls-3" d="M751.83,155.32a1.41,1.41,0,0,0-.77-1.8,1.38,1.38,0,0,0-1.79.77,1.38,1.38,0,1,0,2.56,1Z"/><path class="cls-3" d="M753.92,151.07a1.38,1.38,0,0,0-.77-1.79,1.37,1.37,0,0,0-1.79.76,1.38,1.38,0,1,0,2.56,1Z"/><path class="cls-3" d="M749.56,147.12a1.41,1.41,0,0,0-.77-1.8,1.39,1.39,0,0,0-1.8.77,1.41,1.41,0,0,0,.77,1.8,1.39,1.39,0,0,0,1.8-.77Z"/><path class="cls-3" d="M743.43,145.65a1.4,1.4,0,0,0-.77-1.8,1.38,1.38,0,1,0,.77,1.8Z"/><path class="cls-3" d="M739.7,149.35a1.41,1.41,0,0,0-.77-1.8,1.38,1.38,0,1,0,.77,1.8Z"/><path class="cls-3" d="M740.59,154.87a1.41,1.41,0,0,0-.77-1.8,1.38,1.38,0,1,0,.77,1.8Z"/><path class="cls-3" d="M783.75,186.62a1.39,1.39,0,0,0,1.49-1.26c0-.46,0-.93.13-1.39s.13-.88.18-1.32c.07-.62.18-1.24.24-1.86s.14-1.22.22-1.83.13-1.21.23-1.8.18-1.33.29-2,.2-1.24.28-1.86.18-1.3.29-2,.21-1.26.3-1.9.1-1.06.17-1.59.2-1.08.27-1.62.17-1.28.25-1.91.11-1.24.2-1.85.18-1,.26-1.53c.13-.9.3-1.8.4-2.71,0-.18,0-.38,0-.56a1.11,1.11,0,0,0,.11-.46,2,2,0,0,0-.13-.8,1.34,1.34,0,0,0-1.13-.79,1.41,1.41,0,0,0-1.27.59,2.09,2.09,0,0,0-.3.91c0,.19,0,.38,0,.56,0,.4-.1.79-.16,1.18s-.13,1-.21,1.48-.17,1-.26,1.43-.14,1.21-.21,1.81-.18,1.32-.25,2-.18,1.12-.27,1.68-.11,1-.17,1.5c-.15,1.28-.43,2.55-.58,3.83-.07.61-.18,1.21-.27,1.81s-.18,1.37-.28,2.05c-.18,1.22-.37,2.44-.49,3.66-.06.62-.12,1.24-.22,1.85s-.12,1-.19,1.54-.14,1.08-.18,1.63a1.42,1.42,0,0,0,.8,1.37,1.36,1.36,0,0,0,.46.13Zm2.63-29.34h0v0Z"/><path class="cls-3" d="M775.66,170.52c.55.06,1.07.23,1.61.31s1.14.11,1.71.15,1.41.12,2.11.24a38,38,0,0,0,4,.51l2.06.12c.62,0,1.24.08,1.86.1,1.55,0,3.08.13,4.62.28.79.08,1.56.22,2.34.35.33.06.64.14,1,.21l.92.16,1.21.32a1.32,1.32,0,0,0,1-.27,1.36,1.36,0,0,0,.53-.93,1.33,1.33,0,0,0-.27-1,1.44,1.44,0,0,0-.93-.54l-.27-.07a14.33,14.33,0,0,0-1.44-.34c-.53-.1-1.06-.22-1.59-.31-1.3-.23-2.61-.38-3.93-.49s-2.41-.06-3.62-.14-2.67-.14-4-.26c-.91-.08-1.82-.23-2.73-.38a27.89,27.89,0,0,0-2.88-.33A12.3,12.3,0,0,1,777,168a8.53,8.53,0,0,0-1-.2,1.4,1.4,0,0,0-1.54,1.2,1.43,1.43,0,0,0,.78,1.43,1.19,1.19,0,0,0,.42.11Zm23.27-.11.18.05-.18-.05Z"/><path class="cls-3" d="M1168.23,721.11a1.38,1.38,0,0,0,2.41.86c.38-.51.74-1,1.12-1.54s.77-1.07,1.16-1.61c.75-1.06,1.48-2.14,2.16-3.24s1.34-2.21,2-3.33,1.15-2,1.8-3c.29-.41.62-.78.93-1.17a1.4,1.4,0,0,0-.11-2,1.38,1.38,0,0,0-1.94.11c-.3.36-.59.7-.87,1.07s-.59.86-.87,1.3c-.54.85-1,1.73-1.52,2.6-1,1.72-2,3.44-3.17,5.1l-1.3,1.85c-.49.66-1,1.33-1.44,2a1.48,1.48,0,0,0-.35.89v.09Zm10.72-12a1,1,0,0,1,.08-.11,1,1,0,0,0-.08.11Z"/><path class="cls-3" d="M1165.48,712.78a3.91,3.91,0,0,0,1.4.61c1.1.41,2.16,1,3.26,1.39.67.27,1.38.47,2.07.71l1.74.59c1.29.5,2.55,1.06,3.84,1.57.73.29,1.48.54,2.24.76s1.27.35,1.9.55l.69.26a1.5,1.5,0,0,0,1.06.09,1.4,1.4,0,0,0,.8-.69,1.37,1.37,0,0,0,.09-1,1.33,1.33,0,0,0-.69-.81,23.22,23.22,0,0,0-2.31-.78c-.67-.18-1.33-.38-2-.59-1.3-.49-2.57-1.06-3.86-1.57s-2.81-1-4.21-1.46c-.73-.29-1.44-.59-2.15-.92a17,17,0,0,0-2.19-.84,1.38,1.38,0,0,0-1.79.23,1.37,1.37,0,0,0-.35.89,1.39,1.39,0,0,0,.45,1.06Zm1.77-2.14h0Z"/><path class="cls-3" d="M1176.23,722.75a1.4,1.4,0,0,0,1.32-1.44,1.37,1.37,0,0,0-1.44-1.32,1.38,1.38,0,0,0,.12,2.76Z"/><path class="cls-3" d="M1172,710.27a1.38,1.38,0,1,0-1.44-1.32,1.4,1.4,0,0,0,1.44,1.32Z"/><path class="cls-3" d="M1167.15,719a1.38,1.38,0,1,0-1.44-1.32,1.38,1.38,0,0,0,1.44,1.32Z"/><path class="cls-3" d="M1179.47,714.59a1.38,1.38,0,0,0-.12-2.76,1.42,1.42,0,0,0-1.32,1.45,1.38,1.38,0,0,0,1.44,1.31Z"/><path class="cls-3" d="M1162.21,711.45a1.38,1.38,0,1,0-1.44-1.32,1.37,1.37,0,0,0,1.44,1.32Z"/><path class="cls-3" d="M1186.72,720.7a1.38,1.38,0,0,0-.12-2.76,1.42,1.42,0,0,0-1.32,1.44,1.38,1.38,0,0,0,1.44,1.32Z"/><path class="cls-3" d="M1167.92,725.44a1.38,1.38,0,1,0-1.44-1.31,1.37,1.37,0,0,0,1.44,1.31Z"/><path class="cls-3" d="M1182.05,704.47a1.4,1.4,0,0,0,1.32-1.44,1.38,1.38,0,0,0-2.76.13,1.37,1.37,0,0,0,1.44,1.31Z"/><path class="cls-3" d="M1166.74,668.86a1.45,1.45,0,0,0,.37,1,1.42,1.42,0,0,0,1,.45,1.5,1.5,0,0,0,1-.37,1.34,1.34,0,0,0,.45-1,1.4,1.4,0,0,0-1.33-1.44,1.55,1.55,0,0,0-1,.37,1.34,1.34,0,0,0-.45,1Z"/><path class="cls-3" d="M1169.17,665.76a1.36,1.36,0,0,0,.36,1,1.42,1.42,0,0,0,1,.45,1.5,1.5,0,0,0,1-.37,1.31,1.31,0,0,0,.45-1,1.41,1.41,0,0,0-.37-1,1.35,1.35,0,0,0-1-.44,1.49,1.49,0,0,0-1,.36,1.31,1.31,0,0,0-.44,1Z"/><path class="cls-3" d="M1163.64,667a1.36,1.36,0,0,0,.36,1,1.42,1.42,0,0,0,1,.45,1.5,1.5,0,0,0,1-.37,1.29,1.29,0,0,0,.45-.95,1.41,1.41,0,0,0-.37-1,1.37,1.37,0,0,0-1-.44,1.54,1.54,0,0,0-1,.36,1.31,1.31,0,0,0-.44,1Z"/><path class="cls-3" d="M1164.49,673.53a1.36,1.36,0,0,0,.36,1,1.42,1.42,0,0,0,1,.45,1.5,1.5,0,0,0,1-.37,1.29,1.29,0,0,0,.45-1,1.41,1.41,0,0,0-.37-1,1.33,1.33,0,0,0-1-.44,1.51,1.51,0,0,0-1,.36,1.31,1.31,0,0,0-.44,1Z"/><path class="cls-3" d="M1170.26,670.35a1.4,1.4,0,0,0,1.33,1.44,1.54,1.54,0,0,0,1-.36,1.36,1.36,0,0,0,.45-1,1.38,1.38,0,0,0-1.33-1.44,1.54,1.54,0,0,0-1,.36,1.36,1.36,0,0,0-.45,1Z"/><path class="cls-3" d="M1073.89,696.6a.7.7,0,0,0,.17,1c.85.65,1.7,1.3,2.53,2s1.55,1.19,2.32,1.8q2.41,1.89,4.91,3.69c.79.57,1.56,1.17,2.34,1.76s1.67,1.26,2.52,1.87c1.58,1.14,3.19,2.27,4.79,3.41l1.63,1.14c.54.38,1.1.74,1.6,1.17l0,0a.69.69,0,0,0,1.07-.88,3.59,3.59,0,0,0-.62-.55c-.19-.15-.4-.28-.59-.42l-1.25-.88L1093,710c-1.6-1.13-3.21-2.26-4.77-3.43-.82-.61-1.63-1.23-2.44-1.85s-1.67-1.22-2.5-1.82-1.61-1.2-2.4-1.82l-2.26-1.73c-.62-.49-1.24-1-1.85-1.48s-1.29-1-1.93-1.48a.69.69,0,0,0-.81,0,1.21,1.21,0,0,0-.16.16Zm22.72,17.68.08.07-.08-.07Z"/><path class="cls-3" d="M1091.79,696.83a4.66,4.66,0,0,0-.22.45,9.45,9.45,0,0,1-.73.94c-.29.35-.56.71-.82,1.08-.53.77-1.06,1.53-1.56,2.31-.26.4-.52.8-.79,1.2s-.56.79-.85,1.17c-.58.75-1.24,1.43-1.79,2.2a23.91,23.91,0,0,0-1.37,2.21,10.92,10.92,0,0,1-.72,1.1c-.3.38-.61.76-.92,1.13-.18.21-.34.43-.5.65s-.29.53-.43.79a11.79,11.79,0,0,1-.64,1.08c-.52.82-1.1,1.61-1.66,2.41a.69.69,0,0,0,.17,1,.7.7,0,0,0,1-.16c.6-.87,1.22-1.72,1.79-2.6.25-.38.45-.78.66-1.18a5.18,5.18,0,0,1,.57-.89c.17-.22.35-.44.53-.65s.59-.72.86-1.1.48-.78.71-1.19l.77-1.27a10.6,10.6,0,0,1,.81-1.09c.28-.35.58-.68.86-1s.61-.77.91-1.16c.52-.68,1-1.44,1.43-2.16s1-1.51,1.54-2.25c.24-.34.51-.66.78-1,.13-.17.27-.33.41-.5a3.35,3.35,0,0,0,.3-.52.7.7,0,0,0-.44-1.3,1,1,0,0,0-.45.18.65.65,0,0,0-.17.16Z"/><path class="cls-3" d="M1078.77,707.35a.69.69,0,1,0,.09-1,.69.69,0,0,0-.09,1Z"/><path class="cls-3" d="M1084.55,698.61a.69.69,0,1,0,1.07-.88.71.71,0,0,0-1-.09.69.69,0,0,0-.09,1Z"/><path class="cls-3" d="M1087,713a.71.71,0,0,0,1,.09.69.69,0,0,0,.09-1,.7.7,0,0,0-1-.1.7.7,0,0,0-.1,1Z"/><path class="cls-3" d="M1092.55,705.2a.69.69,0,1,0,1.06-.88.7.7,0,0,0-1-.09.69.69,0,0,0-.09,1Z"/><path class="cls-3" d="M1070.77,695.18a.69.69,0,1,0,1.07-.88.71.71,0,0,0-1-.09.69.69,0,0,0-.09,1Z"/><path class="cls-3" d="M1076.87,719.73a.71.71,0,0,0,1,.09.69.69,0,0,0,.09-1,.7.7,0,0,0-1-.1.7.7,0,0,0-.1,1Z"/><path class="cls-3" d="M1095.37,693.4a.7.7,0,0,0,1,.09.69.69,0,0,0,.1-1,.72.72,0,0,0-1-.1.71.71,0,0,0-.09,1Z"/><path class="cls-3" d="M1099.89,716.49a.72.72,0,0,0,1,.09.69.69,0,0,0-.88-1.07.72.72,0,0,0-.1,1Z"/><path class="cls-3" d="M1120,677.51a3.3,3.3,0,0,0-.48,1.31,2.57,2.57,0,0,0,.22,1.44,3,3,0,0,0,.68.94,3.19,3.19,0,0,0,1.21.76,2.34,2.34,0,0,0,2.16-.3,2.9,2.9,0,0,0,.55-.43,5.63,5.63,0,0,0,.75-.94,3.72,3.72,0,0,0,.5-1.28,2.75,2.75,0,0,0-.17-1.39,3,3,0,0,0-.51-.79,2.74,2.74,0,0,0-1-.74,2.31,2.31,0,0,0-1.53-.17,2.72,2.72,0,0,0-.43.15l-.12,0a2.48,2.48,0,0,0-.81.37l-.12.08a4.19,4.19,0,0,0-.92,1Zm2.34,1.61.11-.07h0l-.11.07Z"/><path class="cls-3" d="M1116.16,676.66a1.41,1.41,0,0,0,1.95.18,1.38,1.38,0,0,0,.19-1.94,1.39,1.39,0,0,0-2.14,1.76Z"/><path class="cls-3" d="M1116.11,683a1.38,1.38,0,1,0,.19-1.94,1.38,1.38,0,0,0-.19,1.94Z"/><path class="cls-3" d="M1118.83,686.88a1.41,1.41,0,0,0,2,.19,1.38,1.38,0,1,0-2-.19Z"/><path class="cls-3" d="M1124.39,685a1.41,1.41,0,0,0,1.95.19,1.39,1.39,0,1,0-1.95-.19Z"/><path class="cls-3" d="M1128.62,680.28a1.38,1.38,0,1,0,.19-1.94,1.38,1.38,0,0,0-.19,1.94Z"/><path class="cls-3" d="M1127.17,675.23a1.38,1.38,0,1,0,.18-1.94,1.38,1.38,0,0,0-.18,1.94Z"/><path class="cls-3" d="M1121.89,673.36a1.41,1.41,0,0,0,1.95.19,1.38,1.38,0,0,0,.18-1.94,1.4,1.4,0,0,0-1.94-.19,1.38,1.38,0,0,0-.19,1.94Z"/><path class="cls-3" d="M1073.34,696a1.38,1.38,0,0,0,.38,1.91c.39.26.8.5,1.16.79s.71.53,1.07.78,1,.75,1.52,1.1,1,.71,1.5,1.07,1,.7,1.47,1.07,1.08.8,1.61,1.21l1.5,1.15c.53.38,1.06.77,1.57,1.18s1,.79,1.53,1.17.88.6,1.31.91.85.7,1.29,1l1.56,1.14c.51.35,1,.69,1.53,1.06s.8.65,1.22,1c.73.55,1.44,1.13,2.18,1.65.15.11.31.21.47.31a1,1,0,0,0,.35.32,1.92,1.92,0,0,0,.77.27,1.35,1.35,0,0,0,1.23-.61,1.43,1.43,0,0,0,.09-1.4,1.93,1.93,0,0,0-.66-.7l-.46-.31c-.33-.23-.65-.46-1-.71s-.81-.58-1.2-.9-.76-.6-1.13-.91-1-.7-1.49-1-1.06-.8-1.61-1.18-.9-.69-1.35-1-.82-.58-1.23-.87c-1.06-.74-2-1.6-3.09-2.34-.5-.36-1-.74-1.46-1.11s-1.11-.81-1.66-1.23c-1-.74-2-1.5-3-2.19-.51-.34-1-.7-1.52-1.07s-.84-.6-1.25-.91-.88-.63-1.35-.93a1.4,1.4,0,0,0-1.58,0,1.23,1.23,0,0,0-.33.35Zm24.47,16.37h0Z"/><path class="cls-3" d="M1091.34,696.63c-.32.45-.72.83-1,1.26s-.64,1-1,1.43-.78,1.18-1.22,1.74a38.19,38.19,0,0,0-2.37,3.26c-.37.59-.72,1.18-1.09,1.76s-.67,1-1,1.58c-.77,1.34-1.59,2.64-2.47,3.92-.44.65-.93,1.27-1.42,1.88-.21.26-.43.5-.64.75s-.39.5-.59.73-.58.6-.86.91a1.3,1.3,0,0,0-.25,1,1.38,1.38,0,0,0,.56.92,1.4,1.4,0,0,0,1,.25,1.49,1.49,0,0,0,.92-.56l.19-.21c.34-.36.68-.71,1-1.1s.7-.82,1-1.24c.82-1,1.58-2.11,2.31-3.22s1.21-2.08,1.85-3.1,1.41-2.29,2.16-3.4c.51-.77,1.07-1.49,1.64-2.22a27.89,27.89,0,0,0,1.67-2.36,11.49,11.49,0,0,1,1.12-1.57,5.7,5.7,0,0,0,.66-.81,1.39,1.39,0,0,0-.3-1.93,1.43,1.43,0,0,0-1.63,0,1,1,0,0,0-.3.31Zm-11.07,20.47-.12.14.12-.14Z"/><path class="cls-3" d="M386.78,515.49a3.9,3.9,0,0,0-.61,1.61,3.09,3.09,0,0,0,.26,1.8,3.81,3.81,0,0,0,.83,1.19,4.08,4.08,0,0,0,1.5.95,3.09,3.09,0,0,0,1.65.12,2.93,2.93,0,0,0,1-.47,3.47,3.47,0,0,0,.69-.52,7.6,7.6,0,0,0,1-1.17,4.33,4.33,0,0,0,.63-1.58,3.24,3.24,0,0,0-.19-1.74,3.82,3.82,0,0,0-.62-1,3.73,3.73,0,0,0-1.22-.94,2.87,2.87,0,0,0-1.91-.22,2.21,2.21,0,0,0-.53.18l-.15,0a2.9,2.9,0,0,0-1,.44l-.15.1a5.29,5.29,0,0,0-1.16,1.2Zm2.9,2,.14-.08h0l-.14.08Z"/><path class="cls-3" d="M382.05,514.37a1.72,1.72,0,1,0,.26-2.42,1.72,1.72,0,0,0-.26,2.42Z"/><path class="cls-3" d="M381.91,522.29a1.74,1.74,0,0,0,2.42.26,1.72,1.72,0,0,0,.25-2.42,1.74,1.74,0,0,0-2.42-.26,1.72,1.72,0,0,0-.25,2.42Z"/><path class="cls-3" d="M385.26,527.15a1.74,1.74,0,0,0,2.42.26,1.72,1.72,0,0,0,.25-2.42,1.74,1.74,0,0,0-2.42-.26,1.72,1.72,0,0,0-.25,2.42Z"/><path class="cls-3" d="M392.21,524.8a1.74,1.74,0,0,0,2.42.26,1.72,1.72,0,0,0,.26-2.42,1.75,1.75,0,0,0-2.42-.26,1.73,1.73,0,0,0-.26,2.42Z"/><path class="cls-3" d="M397.54,519a1.74,1.74,0,0,0,2.42.26,1.72,1.72,0,0,0,.25-2.42,1.74,1.74,0,0,0-2.42-.26,1.72,1.72,0,0,0-.25,2.42Z"/><path class="cls-3" d="M395.78,512.72a1.72,1.72,0,1,0,.26-2.42,1.72,1.72,0,0,0-.26,2.42Z"/><path class="cls-3" d="M389.23,510.33a1.72,1.72,0,0,0,2.68-2.16,1.76,1.76,0,0,0-2.42-.26,1.72,1.72,0,0,0-.26,2.42Z"/><path class="cls-3" d="M4.22,889.76a1.75,1.75,0,0,0,2.42.26,1.72,1.72,0,1,0-2.42-.26Z"/><path class="cls-3" d="M7.47,885a1.72,1.72,0,1,0,.25-2.42A1.72,1.72,0,0,0,7.47,885Z"/><path class="cls-3" d="M2,895.71a1.72,1.72,0,1,0,2.67-2.16,1.75,1.75,0,0,0-2.42-.26A1.73,1.73,0,0,0,2,895.71Z"/><path class="cls-3" d="M.38,887.7A1.74,1.74,0,0,0,2.8,888a1.72,1.72,0,0,0,.25-2.42,1.74,1.74,0,0,0-2.42-.26,1.73,1.73,0,0,0-.25,2.42Z"/><path class="cls-3" d="M9.84,891.9a1.74,1.74,0,0,0,2.42.25,1.72,1.72,0,0,0,.26-2.42,1.72,1.72,0,0,0-2.68,2.17Z"/><path class="cls-3" d="M1407.54,345.09a1.75,1.75,0,0,0,2.42.26,1.72,1.72,0,1,0-2.42-.26Z"/><path class="cls-3" d="M1410.79,340.34a1.74,1.74,0,0,0,2.42.25,1.72,1.72,0,0,0,.26-2.42,1.72,1.72,0,1,0-2.68,2.17Z"/><path class="cls-3" d="M1405.3,351a1.72,1.72,0,0,0,2.68-2.16,1.76,1.76,0,0,0-2.42-.26,1.72,1.72,0,0,0-.26,2.42Z"/><path class="cls-3" d="M1403.7,343a1.74,1.74,0,0,0,2.42.26,1.73,1.73,0,0,0,.26-2.42,1.74,1.74,0,0,0-2.42-.26,1.72,1.72,0,0,0-.26,2.42Z"/><path class="cls-3" d="M1413.17,347.23a1.74,1.74,0,0,0,2.42.25,1.72,1.72,0,0,0,.25-2.42,1.74,1.74,0,0,0-2.42-.25,1.72,1.72,0,0,0-.25,2.42Z"/><path class="cls-3" d="M1061.93,965.05a1.75,1.75,0,0,0,2.42.26,1.72,1.72,0,0,0,.26-2.42,1.75,1.75,0,0,0-2.42-.26,1.73,1.73,0,0,0-.26,2.42Z"/><path class="cls-3" d="M1065.18,960.3a1.74,1.74,0,0,0,2.42.25,1.72,1.72,0,0,0,.26-2.42,1.72,1.72,0,0,0-2.68,2.17Z"/><path class="cls-3" d="M1059.69,971a1.74,1.74,0,0,0,2.42.25,1.72,1.72,0,0,0,.26-2.42,1.72,1.72,0,0,0-2.68,2.17Z"/><path class="cls-3" d="M1058.09,963a1.74,1.74,0,0,0,2.42.25,1.72,1.72,0,0,0,.26-2.42,1.72,1.72,0,0,0-2.68,2.17Z"/><path class="cls-3" d="M1067.56,967.19a1.72,1.72,0,1,0,.26-2.42,1.72,1.72,0,0,0-.26,2.42Z"/></g></g></svg>