<svg xmlns="http://www.w3.org/2000/svg" viewBox="0 0 312.32 312.32"><defs><style>.cls-1{fill:#c3cbde;stroke:#2f345b;stroke-linejoin:round;stroke-width:6px;}.cls-2{fill:#e8e8e8;}</style></defs><title>Asset 1</title><g id="Layer_2" data-name="Layer 2"><g id="Draw_Layer" data-name="Draw Layer"><rect class="cls-1" x="3" y="3" width="306.32" height="306.32"/><path class="cls-2" d="M36.48,26.12a.63.63,0,0,1,.6-.38.55.55,0,0,1,.24,0c.25.1.42.43.5,1a2.39,2.39,0,0,0,.12.58s.06-.06.12-.16a1.59,1.59,0,0,1,.38-.47,1.43,1.43,0,0,1,.48-.35.93.93,0,0,1,.42-.08c.64,0,1.1.43,1.4,1.3,0,.16.14.62.28,1.4a5,5,0,0,0,.68,2.16,1,1,0,0,1,.32.68.52.52,0,0,1-.18.4.73.73,0,0,1-.5.22.84.84,0,0,1-.6-.28,5.73,5.73,0,0,1-1-2.94q-.23-1.44-.36-1.44c-.11,0-.28.3-.5.9a10.73,10.73,0,0,0-.54,2.26,1.51,1.51,0,0,1-.42,1,.65.65,0,0,1-.36.12.72.72,0,0,1-.42-.2,1.87,1.87,0,0,1-.3-1.28,24.34,24.34,0,0,0-.22-3.12,2,2,0,0,1-.06-.34l-.06-.36a2.7,2.7,0,0,1-.06-.4A.48.48,0,0,1,36.48,26.12Z"/><path class="cls-2" d="M46.6,25.54a1.48,1.48,0,0,1,.34,0,2.09,2.09,0,0,1,1.54.54,1.88,1.88,0,0,1,.4.78,3.85,3.85,0,0,1,.16,1,1.6,1.6,0,0,1-.1.56,1,1,0,0,1-.84.48,11.42,11.42,0,0,0-1.16.31c-.62.18-1,.27-1.1.29s-.15,0-.17.07a.82.82,0,0,0-.05.29v.1a4.08,4.08,0,0,0,.22,1.38,1.55,1.55,0,0,0,1.16.94h.14a1,1,0,0,0,.86-.36c.28-.39.52-.58.74-.58a.66.66,0,0,1,.5.2.66.66,0,0,1,.2.48,1.28,1.28,0,0,1-.22.55,2.52,2.52,0,0,1-.44.53,3.26,3.26,0,0,1-2.58.36,2.86,2.86,0,0,1-1.48-1.38,4.5,4.5,0,0,1-.44-2,1.14,1.14,0,0,0-.16-.66.62.62,0,0,1-.16-.36.72.72,0,0,1,.22-.44c.14-.15.22-.25.22-.3a1.35,1.35,0,0,1,.08-.46A2.7,2.7,0,0,1,46.6,25.54ZM47.52,27c0-.06-.18-.1-.4-.12H47a1,1,0,0,0-.84.48,1.59,1.59,0,0,0-.3.68l0,.06h0a6.34,6.34,0,0,0,.91-.24,8.65,8.65,0,0,0,.83-.28,1,1,0,0,0,0-.26A2,2,0,0,0,47.52,27Z"/><path class="cls-2" d="M59.08,25.16A.63.63,0,0,1,59.5,25a.75.75,0,0,1,.42.14,2.12,2.12,0,0,1,.24.22,1.1,1.1,0,0,1,0,.24,1.12,1.12,0,0,1-.08.48,15.3,15.3,0,0,0-.41,1.56c-.22.92-.38,1.63-.47,2.14-.06.25-.12.77-.2,1.56a6.8,6.8,0,0,1-.42,2.06.8.8,0,0,1-.74.44,1,1,0,0,1-.66-.28,8,8,0,0,1-1.58-2.88.27.27,0,0,1,0-.08s0,0,0,0a8.21,8.21,0,0,0-.24,1A4.42,4.42,0,0,1,54.91,33a.77.77,0,0,1-.67.31.63.63,0,0,1-.48-.24,1.26,1.26,0,0,1-.31-.53c-.08-.22-.4-1.23-1-3-.39-1.23-.68-2.08-.86-2.54a1.84,1.84,0,0,1-.2-.7.55.55,0,0,1,.26-.46.56.56,0,0,1,.46-.16.67.67,0,0,1,.4.16,8.87,8.87,0,0,1,.92,2.3c.46,1.46.7,2.2.72,2.2l.14-.42a8.62,8.62,0,0,1,.36-.92,1.32,1.32,0,0,1,.44-.64.7.7,0,0,1,.44-.14.89.89,0,0,1,.76.46,6.45,6.45,0,0,1,.44,1.14,5.81,5.81,0,0,0,.8,1.92s.06,0,.06,0A13.91,13.91,0,0,1,58,29.14a32,32,0,0,1,.86-3.56A1,1,0,0,1,59.08,25.16Z"/><path class="cls-2" d="M67.34,25.76a1.83,1.83,0,0,1,.78-.78,2.45,2.45,0,0,1,1.22-.3,3.47,3.47,0,0,1,.78.1,1.55,1.55,0,0,1,1.12,1,1.31,1.31,0,0,1,.14.52.69.69,0,0,1-.16.36.54.54,0,0,1-.38.18c-.26,0-.46-.17-.6-.5a1.87,1.87,0,0,0-.15-.28.4.4,0,0,0-.25-.08,2.82,2.82,0,0,0-.42,0c-.79,0-1.18.43-1.18,1.3a.64.64,0,0,0,.16.5,2.33,2.33,0,0,0,.8.3,4.43,4.43,0,0,1,1.47.63,2.26,2.26,0,0,1,.77,1,2.62,2.62,0,0,1,.2,1,2.07,2.07,0,0,1-1.12,1.92,1.72,1.72,0,0,1-.4.18c-.1,0-.34,0-.72,0a2.55,2.55,0,0,1-1.1-.18,1.58,1.58,0,0,1-.84-1,.7.7,0,0,1,.62-1,.73.73,0,0,1,.64.48.49.49,0,0,0,.24.28,1.67,1.67,0,0,0,.56.06.76.76,0,0,0,.58-.25.92.92,0,0,0,.22-.59,1.06,1.06,0,0,0-.06-.34,1.2,1.2,0,0,0-.43-.6,3.47,3.47,0,0,0-1-.4,2.79,2.79,0,0,1-1.42-.7,1.93,1.93,0,0,1-.46-1.3A3.09,3.09,0,0,1,67.34,25.76Z"/><path class="cls-2" d="M74.74,23a.59.59,0,0,1,.5-.26.62.62,0,0,1,.46.2l.22.2,0,1.48a6.82,6.82,0,0,0,.08,1.5l.52-.22a1.5,1.5,0,0,1,.6-.18h.08a.59.59,0,0,1,.54.64.76.76,0,0,1-.18.48,4,4,0,0,1-1.22.62l-.36.12,0,.28c0,.05,0,.3.06.76a3.92,3.92,0,0,0,.56,2.24c.08.08.14.12.2.12a1.56,1.56,0,0,0,.42-.18,1.27,1.27,0,0,1,.58-.18.59.59,0,0,1,.56.36.8.8,0,0,1,.06.3c0,.29-.28.58-.84.88a1.61,1.61,0,0,1-.76.22,1.76,1.76,0,0,1-.42-.06,2,2,0,0,1-1.12-.94,6.07,6.07,0,0,1-.58-2.5c0-.46-.06-.7-.06-.74l0-.28-.26,0h-.08a.8.8,0,0,1-.51-.19.58.58,0,0,1-.23-.47.73.73,0,0,1,.74-.7l.3,0V24.84c0-.82,0-1.31,0-1.47A.68.68,0,0,1,74.74,23Z"/><path class="cls-2" d="M80.46,24.68a.68.68,0,0,1,.66-.66.68.68,0,0,1,.48.19.62.62,0,0,1,.2.47.68.68,0,0,1-.68.68.62.62,0,0,1-.47-.2A.68.68,0,0,1,80.46,24.68Zm.3,1.86a.56.56,0,0,1,.42-.2.63.63,0,0,1,.64.34,9.54,9.54,0,0,1,.26,2.18,2.89,2.89,0,0,0,.12,1,1.48,1.48,0,0,1,.16.47,3.19,3.19,0,0,1,.08.63.71.71,0,0,1-.36.66.67.67,0,0,1-.3.08c-.35,0-.58-.23-.68-.68,0-.06,0-.16-.08-.31s-.07-.27-.08-.33a25.6,25.6,0,0,1-.34-3.16l0-.5Z"/><path class="cls-2" d="M86.89,25.18a2.74,2.74,0,0,1,1.2.06,1.76,1.76,0,0,1,.47.35,2.12,2.12,0,0,1,.41.47.66.66,0,0,1,.12.38.61.61,0,0,1-.2.47.74.74,0,0,1-.52.19,1,1,0,0,1-.56-.32l-.34-.34-.24.08a1.82,1.82,0,0,0-1.13,1.17,5.19,5.19,0,0,0-.41,2,2.48,2.48,0,0,0,.14,1,2,2,0,0,0,1.48,1,1.38,1.38,0,0,0,1.26-.24,1.32,1.32,0,0,1,.58-.22.6.6,0,0,1,.44.22.59.59,0,0,1,.2.46.58.58,0,0,1-.14.44,2.77,2.77,0,0,1-1.28.68,2,2,0,0,1-.6.08,3.93,3.93,0,0,1-1.38-.27,3.43,3.43,0,0,1-1.16-.69,3,3,0,0,1-.9-2.18v-.24A6.74,6.74,0,0,1,85,26.82a3.6,3.6,0,0,1,.81-1A2.73,2.73,0,0,1,86.89,25.18Z"/><path class="cls-2" d="M95.13,25.18a.56.56,0,0,1,.45.2.62.62,0,0,1,.19.46,1.58,1.58,0,0,1-.36.74c-.53.69-.83,1.08-.9,1.16l-.28.33-.25.3-.11.13c-.05.08,0,.22.18.44s.54.76.92,1.36a12.89,12.89,0,0,1,.8,1.34,2.34,2.34,0,0,1,.3.84.62.62,0,0,1-.16.38.7.7,0,0,1-.5.22.69.69,0,0,1-.36-.1,2,2,0,0,1-.46-.66A11.77,11.77,0,0,0,93.77,31a5,5,0,0,0-.68-.95v.2a3.78,3.78,0,0,0,.1,1.12.61.61,0,0,1,.06.28.9.9,0,0,1-.12.46.6.6,0,0,1-.56.34.61.61,0,0,1-.64-.44c0-.12-.05-.75-.08-1.88,0-1.3-.06-2.22-.1-2.76s0-1,0-1.28V25.7a4.38,4.38,0,0,1,.05-.53.49.49,0,0,1,.17-.23.58.58,0,0,1,.42-.18.43.43,0,0,1,.42.26,2,2,0,0,1,.07.54c0,.3,0,.64,0,1s0,.56,0,.6l0,.32.6-.72a10.07,10.07,0,0,0,.84-1.06A.94.94,0,0,1,95.13,25.18Z"/><path class="cls-2" d="M102.79,25.54a.65.65,0,0,1,.48-.2.57.57,0,0,1,.58.4,1.08,1.08,0,0,1,.06.44,20.48,20.48,0,0,1-.58,3.78c-.4,1.86-.69,3.54-.88,5a15.46,15.46,0,0,1-.52,2.9.63.63,0,0,1-.56.3l-.16,0a.62.62,0,0,1-.48-.64,4.14,4.14,0,0,1,.12-.86c0-.2.21-1.32.5-3.34l.08-.52-.28-.28a13.16,13.16,0,0,1-1.86-3.4c-.2-.46-.48-1.08-.84-1.88a3.63,3.63,0,0,1-.38-1.1.54.54,0,0,1,.34-.46.78.78,0,0,1,.3-.1.72.72,0,0,1,.32.1q.21.09.54.78c.43.9.7,1.5.82,1.78A12.9,12.9,0,0,0,101.75,31s.12-.47.31-1.37.33-1.55.39-1.93a7.9,7.9,0,0,0,.14-1.26A1.66,1.66,0,0,1,102.79,25.54Z"/><path class="cls-2" d="M110.67,26.12a.64.64,0,0,1,.6-.38.49.49,0,0,1,.24,0c.26.1.42.43.5,1a4.9,4.9,0,0,0,.12.58s.07-.06.12-.16a2,2,0,0,1,.38-.47,1.66,1.66,0,0,1,.48-.35.93.93,0,0,1,.42-.08c.64,0,1.11.43,1.4,1.3a11.48,11.48,0,0,1,.28,1.4,5.13,5.13,0,0,0,.68,2.16.92.92,0,0,1,.32.68.52.52,0,0,1-.18.4.7.7,0,0,1-.5.22.88.88,0,0,1-.6-.28,5.82,5.82,0,0,1-1-2.94q-.21-1.44-.36-1.44c-.1,0-.27.3-.5.9a12.13,12.13,0,0,0-.54,2.26,1.43,1.43,0,0,1-.42,1,.65.65,0,0,1-.36.12.72.72,0,0,1-.42-.2,1.87,1.87,0,0,1-.3-1.28,22.66,22.66,0,0,0-.22-3.12l-.06-.34a2.12,2.12,0,0,0-.06-.36,2.7,2.7,0,0,1-.06-.4A.57.57,0,0,1,110.67,26.12Z"/><path class="cls-2" d="M120.31,25.52a1.27,1.27,0,0,1,.48-.08,2.06,2.06,0,0,1,.82.18c.46.21.68.46.68.76a.79.79,0,0,0,.24.52,3.07,3.07,0,0,1,.64,1.36,5.92,5.92,0,0,1,.18,1.44,4.31,4.31,0,0,1-.6,2.32,2.87,2.87,0,0,1-1,1,2.43,2.43,0,0,1-1.22.37,1.62,1.62,0,0,1-.52-.08,3.16,3.16,0,0,1-1.72-1.7,6.22,6.22,0,0,1-.16-1.66,9.27,9.27,0,0,1,0-1C118.39,27.11,119.1,26,120.31,25.52Zm.82,1.26a.51.51,0,0,0-.26-.08.78.78,0,0,0-.34.1q-1,.48-1.08,3.18a4.85,4.85,0,0,0,.09,1.15,1.35,1.35,0,0,0,.41.59.92.92,0,0,0,.58.32l.18,0a1.23,1.23,0,0,0,.66-.4,2.06,2.06,0,0,0,.48-.84,3.15,3.15,0,0,0,.14-1,3.24,3.24,0,0,0-.5-2,1,1,0,0,1-.2-.46v-.14c0-.14,0-.22,0-.25S121.23,26.82,121.13,26.78Z"/><path class="cls-2" d="M126.45,23a.6.6,0,0,1,.5-.26.59.59,0,0,1,.46.2l.22.2,0,1.48a7.75,7.75,0,0,0,.08,1.5,5.45,5.45,0,0,0,.52-.22,1.59,1.59,0,0,1,.6-.18h.08a.59.59,0,0,1,.54.64.76.76,0,0,1-.18.48,3.74,3.74,0,0,1-1.22.62l-.36.12,0,.28a5,5,0,0,1,.06.76,4,4,0,0,0,.56,2.24.34.34,0,0,0,.2.12,1.33,1.33,0,0,0,.42-.18,1.31,1.31,0,0,1,.58-.18.58.58,0,0,1,.56.36.8.8,0,0,1,.06.3c0,.29-.28.58-.84.88a1.54,1.54,0,0,1-.76.22,1.76,1.76,0,0,1-.42-.06,2.1,2.1,0,0,1-1.12-.94,6.23,6.23,0,0,1-.58-2.5c0-.46-.06-.7-.06-.74l0-.28-.26,0H126a.85.85,0,0,1-.51-.19.61.61,0,0,1-.23-.47.73.73,0,0,1,.06-.26.76.76,0,0,1,.68-.44l.3,0V24.84c0-.82,0-1.31,0-1.47A.92.92,0,0,1,126.45,23Z"/><path class="cls-2" d="M134.81,25.54a1.61,1.61,0,0,1,.34,0,2.08,2.08,0,0,1,1.54.54,1.77,1.77,0,0,1,.4.78,3.48,3.48,0,0,1,.16,1,1.4,1.4,0,0,1-.1.56q-.15.36-.84.48c-.16,0-.54.13-1.16.31s-1,.27-1.1.29-.15,0-.17.07a1.17,1.17,0,0,0,0,.29v.1a4.34,4.34,0,0,0,.22,1.38,1.62,1.62,0,0,0,.46.62,1.53,1.53,0,0,0,.7.32h.14a1,1,0,0,0,.86-.36c.28-.39.53-.58.74-.58a.65.65,0,0,1,.5.2.62.62,0,0,1,.2.48,1.16,1.16,0,0,1-.22.55,2,2,0,0,1-.44.53,2.68,2.68,0,0,1-1.66.48,2.76,2.76,0,0,1-.92-.12,2.9,2.9,0,0,1-1.48-1.38,4.64,4.64,0,0,1-.44-2,1.07,1.07,0,0,0-.16-.66.69.69,0,0,1-.16-.36.78.78,0,0,1,.22-.44c.15-.15.22-.25.22-.3a1.65,1.65,0,0,1,.08-.46A2.71,2.71,0,0,1,134.81,25.54Zm.92,1.48c0-.06-.17-.1-.4-.12h-.14a1,1,0,0,0-.84.48,1.59,1.59,0,0,0-.3.68l0,.06h0a6,6,0,0,0,.91-.24,6.71,6.71,0,0,0,.83-.28s0-.1,0-.26A1,1,0,0,0,135.73,27Z"/><path d="M27,22.44a1.85,1.85,0,0,1,.75-.24.92.92,0,0,1,.66.3,1,1,0,0,1,.3.69,1,1,0,0,1-.63,1,4.2,4.2,0,0,0-1.38,1.56,10.37,10.37,0,0,0-1.41,2.85,3.91,3.91,0,0,0,.54.81q.45.66.6.6a1.21,1.21,0,0,1,.48-.09.89.89,0,0,1,.54.12q.45.3.45,1.29v.24q-.09,1.32-.78,1.68a1.19,1.19,0,0,1-.51.15q-.66,0-1.44-1.35A9.77,9.77,0,0,0,24.47,31l-.21-.3-.78,1.59a8.43,8.43,0,0,0-.81,1.8.77.77,0,0,1-.33.64,1.29,1.29,0,0,1-.81.26,1,1,0,0,1-.75-.3.86.86,0,0,1-.3-.6,5.14,5.14,0,0,1,.72-1.83q.21-.42,1.17-2.43l.48-1.05-.57-.84a8.93,8.93,0,0,1-1.65-4.23,1.49,1.49,0,0,1,.12-.9,1,1,0,0,1,.81-.45,1,1,0,0,1,.72.33,2.19,2.19,0,0,1,.36,1.14,6.8,6.8,0,0,0,.93,2.52l.27.36.54-1A8.17,8.17,0,0,1,27,22.44Z"/><path d="M47,83.77a.79.79,0,0,1-.38.67,1.36,1.36,0,0,1-.81.27h-.12a1.1,1.1,0,0,1-.65-.25,4.12,4.12,0,0,1-.68-.89c0-.06-.2,0-.46.15a3.11,3.11,0,0,1-1.72.43,4.48,4.48,0,0,1-3.15-1,4,4,0,0,1-1.06-3.07,5.17,5.17,0,0,1,.53-2.37,3.18,3.18,0,0,1,1.1-1.16,4.87,4.87,0,0,1,1.64-.71,5,5,0,0,1,.6-.07l.54,0c.38.05.58.05.58,0a14,14,0,0,0-.17-2,9,9,0,0,1-.08-1.14v-.34a.71.71,0,0,1,.25-.46.75.75,0,0,1,.55-.26.93.93,0,0,1,.39.12.66.66,0,0,1,.34.42,7.91,7.91,0,0,1,.19,1.27c0,.42.13,1.06.25,1.91s.2,1.61.27,2.25.13,1.27.16,1.87a11.31,11.31,0,0,0,.63,3l.15.39h.31a.74.74,0,0,1,.57.23A.78.78,0,0,1,47,83.77ZM42.82,77.5a1.75,1.75,0,0,0-.87-.2,2.05,2.05,0,0,0-.51,0A2.46,2.46,0,0,0,39.5,80a3.23,3.23,0,0,0,.37,1.75,1.68,1.68,0,0,0,.83.57,4,4,0,0,0,1.37.23,2,2,0,0,0,1.21-.42l.24-.17v-.63a11.09,11.09,0,0,0-.17-1.64c-.11-.74-.18-1.16-.19-1.26,0-.39-.09-.62-.11-.7A.47.47,0,0,0,42.82,77.5Z"/><path d="M52.72,75.17a3,3,0,0,1,.56-.1,1.71,1.71,0,0,1,.77.22c.29.16.46.23.51.2h0l.08,0a.73.73,0,0,1,.63.34.84.84,0,0,1,.14.53v.27a8,8,0,0,1-.14,1.31A12,12,0,0,0,55,80.13a2.13,2.13,0,0,0,.17.92.3.3,0,0,0,.29.22,2.35,2.35,0,0,0,.55-.14,1.34,1.34,0,0,1,.49-.1.81.81,0,0,1,.58.27.76.76,0,0,1,.22.55.74.74,0,0,1-.22.56,2,2,0,0,1-.74.35,3.21,3.21,0,0,1-1,.16,1.74,1.74,0,0,1-1.28-.51l-.22-.24-.36.34a2.53,2.53,0,0,1-1.72.75,2.36,2.36,0,0,1-.9-.22,2.76,2.76,0,0,1-1.54-2.74,5.18,5.18,0,0,1,.26-1.55C50.28,76.82,51.32,75.62,52.72,75.17Zm.9,1.5-.12,0a.34.34,0,0,1-.13-.05h0a1.94,1.94,0,0,0-.9.44,3.23,3.23,0,0,0-.93,1.29,4.51,4.51,0,0,0-.5,1.8v.32a1.34,1.34,0,0,0,.12.6c.21.39.43.58.66.58a.78.78,0,0,0,.46-.2,2.11,2.11,0,0,0,.43-.47,9.24,9.24,0,0,0,1-3.32,4.79,4.79,0,0,0,.1-.77A.19.19,0,0,0,53.62,76.67Z"/><path d="M65.41,75.73a.78.78,0,0,1,.58-.24.7.7,0,0,1,.7.48,1.3,1.3,0,0,1,.07.53,24.73,24.73,0,0,1-.7,4.58q-.72,3.39-1.07,6.07a18.7,18.7,0,0,1-.63,3.51.75.75,0,0,1-.67.37.56.56,0,0,1-.2,0,.74.74,0,0,1-.58-.77,4.86,4.86,0,0,1,.15-1q.07-.36.6-4l.1-.62-.34-.34a15.77,15.77,0,0,1-2.25-4.12c-.24-.55-.58-1.31-1-2.27a4.43,4.43,0,0,1-.46-1.34.64.64,0,0,1,.41-.55,1,1,0,0,1,.37-.12.94.94,0,0,1,.38.12c.17.08.38.39.66.94.51,1.1.85,1.82,1,2.16a14.66,14.66,0,0,0,1.65,3.31s.14-.57.37-1.66.39-1.86.47-2.33a10.75,10.75,0,0,0,.17-1.53A1.94,1.94,0,0,1,65.41,75.73Z"/><path d="M69.59,76a2.27,2.27,0,0,1,1-.94A3,3,0,0,1,72,74.69a4.4,4.4,0,0,1,.95.12A1.86,1.86,0,0,1,74.31,76a1.49,1.49,0,0,1,.17.63.72.72,0,0,1-.19.44.64.64,0,0,1-.46.22c-.31,0-.55-.2-.73-.61a1.81,1.81,0,0,0-.18-.34.44.44,0,0,0-.3-.09,3,3,0,0,0-.51,0c-1,0-1.43.52-1.43,1.57a.8.8,0,0,0,.2.61,2.85,2.85,0,0,0,1,.36,5.47,5.47,0,0,1,1.77.76,2.71,2.71,0,0,1,.94,1.23,3.11,3.11,0,0,1,.24,1.21,2.48,2.48,0,0,1-1.36,2.32,1.54,1.54,0,0,1-.48.22c-.11,0-.4,0-.87,0a3,3,0,0,1-1.33-.22,1.87,1.87,0,0,1-1-1.21.85.85,0,0,1,0-.63.83.83,0,0,1,.75-.53.86.86,0,0,1,.77.58.67.67,0,0,0,.29.34,2.05,2.05,0,0,0,.68.07.88.88,0,0,0,.7-.3,1,1,0,0,0,.27-.71,1.22,1.22,0,0,0-.07-.41,1.4,1.4,0,0,0-.52-.73,4.77,4.77,0,0,0-1.25-.49,3.31,3.31,0,0,1-1.72-.84,2.36,2.36,0,0,1-.55-1.58A3.89,3.89,0,0,1,69.59,76Z"/><path d="M85.5,75.7a1.81,1.81,0,0,1,.58-.09,2.44,2.44,0,0,1,1,.22c.55.25.83.56.83.91a.91.91,0,0,0,.29.63A4.09,4.09,0,0,1,89,79a6.92,6.92,0,0,1,.22,1.74,5.13,5.13,0,0,1-.73,2.81,3.48,3.48,0,0,1-1.21,1.2,2.85,2.85,0,0,1-1.47.45,1.67,1.67,0,0,1-.63-.1,3.23,3.23,0,0,1-1.24-.81,3.48,3.48,0,0,1-.85-1.25,7.1,7.1,0,0,1-.19-2,10,10,0,0,1,0-1.16C83.17,77.63,84,76.24,85.5,75.7Zm1,1.53a.68.68,0,0,0-.31-.1.93.93,0,0,0-.41.12c-.84.39-1.28,1.67-1.31,3.85a5.43,5.43,0,0,0,.11,1.39,1.52,1.52,0,0,0,.49.72,1.09,1.09,0,0,0,.71.39.58.58,0,0,0,.21,0,1.49,1.49,0,0,0,.8-.48,2.69,2.69,0,0,0,.58-1,3.84,3.84,0,0,0,.17-1.26,4,4,0,0,0-.6-2.42,1.17,1.17,0,0,1-.24-.56v-.17a.6.6,0,0,0,0-.3A.58.58,0,0,0,86.49,77.23Z"/><path d="M95.3,71.44a1.19,1.19,0,0,1,.63-.17,2.46,2.46,0,0,1,1.72.88,1.87,1.87,0,0,1,.7,1.13.72.72,0,0,1-.24.51.74.74,0,0,1-.53.24.64.64,0,0,1-.34-.09,5.6,5.6,0,0,1-.56-.54l-.58-.6L96,73a1.48,1.48,0,0,0-.22.49,12.52,12.52,0,0,0-.07,2,3.86,3.86,0,0,0,0,1.06,1.37,1.37,0,0,0,.45-.1,2.72,2.72,0,0,1,.49-.07.69.69,0,0,1,.6.27.94.94,0,0,1,.2.56.68.68,0,0,1-.36.65,4.61,4.61,0,0,1-.76.24l-.6.17v.58c0,.69.12,2,.36,4,.08.65.12,1,.12,1.07a.64.64,0,0,1-.07.31.69.69,0,0,1-.29.37,1,1,0,0,1-1.16-.27,13.73,13.73,0,0,1-.33-2.2c-.15-1.34-.23-2.22-.23-2.64s0-.43-.07-.46h0a7.34,7.34,0,0,0-.81.35,3.17,3.17,0,0,1-1,.35h-.07a.7.7,0,0,1-.47-.28.8.8,0,0,1-.18-.52.69.69,0,0,1,.23-.58,8.23,8.23,0,0,1,1.17-.68L94,77.16l0-1.58c0-.85,0-1.55.07-2.08a3.93,3.93,0,0,1,.42-1.22A2.15,2.15,0,0,1,95.3,71.44Z"/><path d="M106.78,75.9a.76.76,0,0,1,.56-.24c.53,0,.8.37.82,1.13a7.78,7.78,0,0,0,0,1l0,.46.27-.56c.45-.92.93-1.38,1.43-1.38h.14a1.07,1.07,0,0,1,.84.54,5.8,5.8,0,0,1,.57,1.62l0,.1a3.3,3.3,0,0,0,.41-.71,6.34,6.34,0,0,1,1-1.48,1.48,1.48,0,0,1,1-.48,1.07,1.07,0,0,1,.65.15,1.78,1.78,0,0,1,.65,1.06,6.84,6.84,0,0,1,.27,1.4c0,.41.06,1,.07,1.92a7,7,0,0,0,.15,1.67c0,.13.17.19.36.19a.76.76,0,0,1,.52.22.71.71,0,0,1,.23.51.81.81,0,0,1-.51.82,1.34,1.34,0,0,1-.6.12,1.61,1.61,0,0,1-1.55-1.28,9.78,9.78,0,0,1-.29-2.93c0-1.09,0-1.64-.15-1.64s-.36.54-.8,1.62a13.8,13.8,0,0,0-.46,1.5,3,3,0,0,1-.58,1.4.82.82,0,0,1-1.26-.24,13.74,13.74,0,0,1-.37-1.72c-.2-1.06-.3-1.68-.3-1.84s0-.07,0-.07-.15.23-.31.68a13.1,13.1,0,0,0-.63,2.85q0,.19-.06.45c0,.17-.05.3-.06.4s0,.16,0,.17a.67.67,0,0,1-.29.46.93.93,0,0,1-.53.17.72.72,0,0,1-.7-.46,18,18,0,0,1-.45-3q-.3-2.67-.3-3.63v-.75Z"/><path d="M124.93,75.73a.82.82,0,0,1,.58-.24.71.71,0,0,1,.71.48,1.3,1.3,0,0,1,.07.53,24.73,24.73,0,0,1-.7,4.58c-.49,2.26-.84,4.28-1.07,6.07a18.7,18.7,0,0,1-.63,3.51.75.75,0,0,1-.67.37.53.53,0,0,1-.2,0,.73.73,0,0,1-.58-.77,4.86,4.86,0,0,1,.15-1c0-.24.25-1.59.6-4l.1-.62-.34-.34a15.18,15.18,0,0,1-2.25-4.12c-.24-.55-.58-1.31-1-2.27a4.15,4.15,0,0,1-.46-1.34.64.64,0,0,1,.41-.55.91.91,0,0,1,.37-.12.94.94,0,0,1,.38.12,2.37,2.37,0,0,1,.66.94q.76,1.65,1,2.16a15.46,15.46,0,0,0,1.64,3.31s.15-.57.38-1.66.39-1.86.47-2.33a10.75,10.75,0,0,0,.17-1.53A1.88,1.88,0,0,1,124.93,75.73Z"/><path d="M134.52,71a.51.51,0,0,1,.36-.17.48.48,0,0,1,.46.29,15.59,15.59,0,0,1,.15,1.84c0,1.37.15,3.06.31,5.06a34.93,34.93,0,0,0,.39,3.61,6.41,6.41,0,0,0,.24.7,1.56,1.56,0,0,1,.12.53c0,.47-.25.71-.75.71s-.94-.68-1.09-2a73.81,73.81,0,0,1-.36-8.3V71.2Z"/><path d="M138.9,74.69a.77.77,0,0,1,.24-.56.79.79,0,0,1,.56-.24.82.82,0,0,1,.58.23.75.75,0,0,1,.24.57.8.8,0,0,1-.24.58.78.78,0,0,1-.58.24.76.76,0,0,1-.57-.24A.83.83,0,0,1,138.9,74.69Zm.37,2.25a.71.71,0,0,1,.5-.24.77.77,0,0,1,.78.41,10.9,10.9,0,0,1,.31,2.64A4,4,0,0,0,141,81a1.63,1.63,0,0,1,.19.56,3.46,3.46,0,0,1,.1.77.86.86,0,0,1-.44.8.74.74,0,0,1-.36.09c-.42,0-.69-.27-.82-.82,0-.06-.05-.19-.1-.38s-.08-.31-.1-.4a33.94,33.94,0,0,1-.41-3.82l0-.6Z"/><path d="M147.42,71.44a1.19,1.19,0,0,1,.63-.17,2.46,2.46,0,0,1,1.72.88,1.87,1.87,0,0,1,.7,1.13.72.72,0,0,1-.24.51.74.74,0,0,1-.53.24.64.64,0,0,1-.34-.09,5.6,5.6,0,0,1-.56-.54l-.58-.6-.14.24a1.48,1.48,0,0,0-.22.49,12.52,12.52,0,0,0-.07,2,3.86,3.86,0,0,0,.05,1.06,1.37,1.37,0,0,0,.45-.1,2.72,2.72,0,0,1,.49-.07.69.69,0,0,1,.6.27.94.94,0,0,1,.2.56.68.68,0,0,1-.36.65,4.61,4.61,0,0,1-.76.24l-.6.17v.58c0,.69.12,2,.36,4,.08.65.12,1,.12,1.07a.64.64,0,0,1-.07.31.69.69,0,0,1-.29.37,1,1,0,0,1-1.16-.27,13.73,13.73,0,0,1-.33-2.2c-.15-1.34-.23-2.22-.23-2.64s0-.43-.07-.46h0a7.34,7.34,0,0,0-.81.35,3.17,3.17,0,0,1-1,.35h-.07a.7.7,0,0,1-.47-.28.8.8,0,0,1-.18-.52.69.69,0,0,1,.23-.58,8.23,8.23,0,0,1,1.17-.68l1.11-.55,0-1.58c0-.85,0-1.55.07-2.08a3.93,3.93,0,0,1,.42-1.22A2.15,2.15,0,0,1,147.42,71.44Z"/><path d="M156.07,75.73a2.27,2.27,0,0,1,.41,0,2.54,2.54,0,0,1,1.86.65,2.32,2.32,0,0,1,.49,1,4.61,4.61,0,0,1,.19,1.23,1.76,1.76,0,0,1-.12.68c-.13.29-.47.48-1,.58-.19,0-.66.16-1.4.38s-1.19.33-1.33.35-.19,0-.21.08a1.09,1.09,0,0,0-.06.35v.12a4.88,4.88,0,0,0,.27,1.67,1.69,1.69,0,0,0,.55.75,1.78,1.78,0,0,0,.85.39h.08l.09,0a1.2,1.2,0,0,0,1-.44c.34-.47.64-.7.9-.7a.81.81,0,0,1,.6.24.8.8,0,0,1,.24.58,1.47,1.47,0,0,1-.26.67,2.78,2.78,0,0,1-.54.64,3.21,3.21,0,0,1-2,.58,3.24,3.24,0,0,1-1.12-.15,3.41,3.41,0,0,1-1.79-1.67,5.46,5.46,0,0,1-.53-2.42,1.37,1.37,0,0,0-.2-.8.7.7,0,0,1-.19-.43.89.89,0,0,1,.27-.53c.17-.18.26-.3.26-.37a1.74,1.74,0,0,1,.1-.55A3.29,3.29,0,0,1,156.07,75.73Zm1.11,1.79a.92.92,0,0,0-.48-.15h-.17a1.19,1.19,0,0,0-1,.59,1.94,1.94,0,0,0-.36.82l0,.07h0a8,8,0,0,0,1.11-.29,7.21,7.21,0,0,0,1-.34s0-.12,0-.31A2,2,0,0,0,157.18,77.52Z"/><path d="M170.47,74.78a1,1,0,0,1,.41-.12.77.77,0,0,1,.56.24l.24.22.07.8c0,.6.09,1.24.17,1.94q.15,1.65.15,3.63a15,15,0,0,1-.1,2.15,9.1,9.1,0,0,1-.73,2.55,1.9,1.9,0,0,1-1.74,1.33l-.41,0a2.06,2.06,0,0,1-.93-.52,1.09,1.09,0,0,1-.43-.76.77.77,0,0,1,.25-.6.78.78,0,0,1,.55-.23.81.81,0,0,1,.61.25q.29.24.39.21c.11,0,.25-.33.43-.89a10.88,10.88,0,0,0,.39-1.65c.05-.47.07-1.1.07-1.91a35.22,35.22,0,0,0-.22-4.14,4.62,4.62,0,0,0,0-.59c0-.3-.05-.52-.07-.65v-.33A.92.92,0,0,1,170.47,74.78Zm-.9-2.42a.65.65,0,0,1,.25-.49.68.68,0,0,1,.48-.23.88.88,0,0,1,.62.24.75.75,0,0,1,.25.56.7.7,0,0,1-.1.38.73.73,0,0,1-.67.41.78.78,0,0,1-.58-.24A.82.82,0,0,1,169.57,72.36Z"/><path d="M176.93,75.7a1.81,1.81,0,0,1,.58-.09,2.45,2.45,0,0,1,1,.22c.54.25.82.56.82.91a1,1,0,0,0,.29.63,4,4,0,0,1,.77,1.65,6.92,6.92,0,0,1,.22,1.74,5.22,5.22,0,0,1-.72,2.81,3.56,3.56,0,0,1-1.21,1.2,2.88,2.88,0,0,1-1.48.45,1.74,1.74,0,0,1-.63-.1,3.3,3.3,0,0,1-1.24-.81,3.45,3.45,0,0,1-.84-1.25,7,7,0,0,1-.2-2,10,10,0,0,1,.05-1.16C174.6,77.63,175.46,76.24,176.93,75.7Zm1,1.53a.72.72,0,0,0-.32-.1,1,1,0,0,0-.41.12c-.84.39-1.28,1.67-1.31,3.85a6,6,0,0,0,.11,1.39,1.55,1.55,0,0,0,.5.72,1,1,0,0,0,.7.39.61.61,0,0,0,.22,0,1.52,1.52,0,0,0,.8-.48,2.83,2.83,0,0,0,.58-1,4.13,4.13,0,0,0,.17-1.26,4,4,0,0,0-.61-2.42,1.17,1.17,0,0,1-.24-.56v-.17a.6.6,0,0,0,0-.3S178,77.28,177.93,77.23Z"/><path d="M183.47,75.49a.8.8,0,0,1,.43-.12.72.72,0,0,1,.49.14,1,1,0,0,1,.31.75,2.49,2.49,0,0,1,0,.41,27.2,27.2,0,0,0-.12,2.74c0,.53,0,.88,0,1a5.28,5.28,0,0,0,.35,1.37c.17.39.35.59.52.59a1,1,0,0,0,.51-.23,1.22,1.22,0,0,0,.41-.42,2.7,2.7,0,0,0,.29-1c0-.36.07-1.15.1-2.37l.05-2.3.24-.22a.74.74,0,0,1,.53-.24.76.76,0,0,1,.56.26l.24.25.05,1v.48c0,.18,0,.54,0,1.09s0,1,0,1.28c0,1.28.05,1.94.17,2h0a3.11,3.11,0,0,0,.78-.29,3.25,3.25,0,0,1,.87-.29h.09A.81.81,0,0,1,191,82a2,2,0,0,1,.05.24c0,.29-.25.56-.73.8a4.44,4.44,0,0,1-1.94.63,2.07,2.07,0,0,1-.6-.11c-.23-.07-.37-.15-.41-.23s-.17,0-.39.17a2.51,2.51,0,0,1-1.53.53,1.89,1.89,0,0,1-1.47-.65,4.58,4.58,0,0,1-.95-2.13,4.87,4.87,0,0,1-.12-1.16c0-.09,0-.27,0-.57s0-.57,0-.81a9.27,9.27,0,0,1,.26-3C183.25,75.66,183.34,75.58,183.47,75.49Z"/><path d="M194.36,74.88l.07-.31.08.38a1.11,1.11,0,0,0,.26.52A1.07,1.07,0,0,1,195,76a8.65,8.65,0,0,1,.22,2.27c0,.57,0,.85.1.85s.12-.14.21-.41a5.91,5.91,0,0,1,1.16-1.92,5.32,5.32,0,0,1,1.31-1,3.64,3.64,0,0,1,1.38-.5h.17a1.45,1.45,0,0,1,.93.31.9.9,0,0,1,.38.71.83.83,0,0,1-.1.41.68.68,0,0,1-.68.37,1,1,0,0,1-.43-.1.37.37,0,0,0-.2,0,1.73,1.73,0,0,0-.55.22,3.57,3.57,0,0,0-1.55,1.43,9.92,9.92,0,0,0-1,2.88,19.5,19.5,0,0,1-.68,2.68.71.71,0,0,1-.63.32.64.64,0,0,1-.65-.39,22.54,22.54,0,0,1-.44-5c0-.77-.05-1.23-.07-1.39s-.06-.24-.12-.25a.55.55,0,0,1-.39-.56v-.12a1.93,1.93,0,0,1,.56-1.31A.91.91,0,0,0,194.36,74.88Z"/><path d="M203.34,76.43a.78.78,0,0,1,.73-.46.69.69,0,0,1,.29,0c.31.13.51.52.61,1.19a4.14,4.14,0,0,0,.14.7s.08-.07.15-.2a2.23,2.23,0,0,1,.46-.57,2.16,2.16,0,0,1,.58-.42,1.29,1.29,0,0,1,.51-.1c.77,0,1.34.53,1.69,1.58.06.19.18.76.34,1.69a6.18,6.18,0,0,0,.82,2.62,1.13,1.13,0,0,1,.39.82.61.61,0,0,1-.22.48.83.83,0,0,1-.6.27,1,1,0,0,1-.73-.34c-.53-.52-.95-1.7-1.26-3.56-.18-1.16-.32-1.74-.43-1.74s-.34.36-.61,1.09a13.81,13.81,0,0,0-.65,2.73q-.12,1-.51,1.26a.78.78,0,0,1-.44.15.89.89,0,0,1-.51-.24,2.27,2.27,0,0,1-.36-1.55,27.78,27.78,0,0,0-.27-3.78c0-.06,0-.2-.07-.41s0-.36-.07-.44a2.78,2.78,0,0,1-.07-.48A.72.72,0,0,1,203.34,76.43Z"/><path d="M215.76,75.17a3.16,3.16,0,0,1,.56-.1,1.71,1.71,0,0,1,.77.22c.29.16.46.23.51.2h0l.07,0a.73.73,0,0,1,.63.34.78.78,0,0,1,.14.53v.27a7.05,7.05,0,0,1-.14,1.31,12,12,0,0,0-.29,2.22,2.13,2.13,0,0,0,.17.92.3.3,0,0,0,.29.22,2.24,2.24,0,0,0,.55-.14,1.34,1.34,0,0,1,.49-.1.81.81,0,0,1,.58.27.72.72,0,0,1,.22.55.7.7,0,0,1-.22.56,2,2,0,0,1-.74.35,3.15,3.15,0,0,1-.95.16,1.75,1.75,0,0,1-1.29-.51l-.22-.24-.36.34a2.53,2.53,0,0,1-1.72.75A2.27,2.27,0,0,1,214,83a2.76,2.76,0,0,1-1.55-2.74,5.51,5.51,0,0,1,.26-1.55C213.33,76.82,214.36,75.62,215.76,75.17Zm.9,1.5-.12,0c-.07,0-.11,0-.12-.05h0a1.94,1.94,0,0,0-.9.44,3.33,3.33,0,0,0-.93,1.29,4.68,4.68,0,0,0-.5,1.8v.32a1.34,1.34,0,0,0,.12.6c.21.39.43.58.66.58a.78.78,0,0,0,.46-.2,1.89,1.89,0,0,0,.43-.47,9.24,9.24,0,0,0,1-3.32,4.79,4.79,0,0,0,.1-.77A.19.19,0,0,0,216.66,76.67Z"/><path d="M222.83,71a.53.53,0,0,1,.36-.17.48.48,0,0,1,.46.29A13.34,13.34,0,0,1,223.8,73c0,1.37.15,3.06.31,5.06s.29,3.21.39,3.61a6.41,6.41,0,0,0,.24.7,1.56,1.56,0,0,1,.12.53c0,.47-.25.71-.75.71s-.94-.68-1.09-2a73.81,73.81,0,0,1-.36-8.3V71.2Z"/><path d="M230.41,75.73a2.38,2.38,0,0,1,.41,0,2.52,2.52,0,0,1,1.86.65,2.21,2.21,0,0,1,.49,1,4.24,4.24,0,0,1,.19,1.23,1.76,1.76,0,0,1-.12.68c-.13.29-.47.48-1,.58-.19,0-.66.16-1.4.38s-1.19.33-1.33.35a.3.3,0,0,0-.21.08,1.5,1.5,0,0,0-.06.35v.12a4.88,4.88,0,0,0,.27,1.67,1.71,1.71,0,0,0,.56.75,1.75,1.75,0,0,0,.84.39H231l.08,0a1.19,1.19,0,0,0,1-.44c.34-.47.64-.7.9-.7a.81.81,0,0,1,.6.24.77.77,0,0,1,.25.58,1.4,1.4,0,0,1-.27.67,3,3,0,0,1-.53.64,3.93,3.93,0,0,1-3.13.43,3.41,3.41,0,0,1-1.79-1.67,5.6,5.6,0,0,1-.53-2.42,1.37,1.37,0,0,0-.19-.8.72.72,0,0,1-.2-.43.89.89,0,0,1,.27-.53c.18-.18.27-.3.27-.37a2,2,0,0,1,.09-.55A3.29,3.29,0,0,1,230.41,75.73Zm1.11,1.79a.92.92,0,0,0-.48-.15h-.17a1.19,1.19,0,0,0-1,.59,1.94,1.94,0,0,0-.36.82l0,.07h0a8.47,8.47,0,0,0,1.1-.29,6.65,6.65,0,0,0,1-.34s0-.12,0-.31A1.46,1.46,0,0,0,231.52,77.52Z"/><path d="M245.22,83.77a.78.78,0,0,1-.37.67,1.36,1.36,0,0,1-.81.27h-.12a1.13,1.13,0,0,1-.66-.25,4.52,4.52,0,0,1-.67-.89c-.05-.06-.21,0-.46.15a3.16,3.16,0,0,1-1.72.43,4.45,4.45,0,0,1-3.15-1,4,4,0,0,1-1.07-3.07,5,5,0,0,1,.54-2.37,3,3,0,0,1,1.1-1.16,4.82,4.82,0,0,1,1.63-.71,5.36,5.36,0,0,1,.61-.07l.53,0c.39.05.58.05.58,0a14,14,0,0,0-.17-2,8.94,8.94,0,0,1-.07-1.14v-.34a.69.69,0,0,1,.24-.46.77.77,0,0,1,.56-.26,1,1,0,0,1,.39.12.65.65,0,0,1,.33.42,7.55,7.55,0,0,1,.2,1.27c.05.42.13,1.06.24,1.91s.21,1.61.28,2.25.12,1.27.16,1.87a11.31,11.31,0,0,0,.63,3l.14.39h.31a.79.79,0,0,1,.8.8Zm-4.14-6.27a1.7,1.7,0,0,0-.87-.2,2.17,2.17,0,0,0-.51,0A2.45,2.45,0,0,0,237.77,80a3.34,3.34,0,0,0,.36,1.75,1.71,1.71,0,0,0,.84.57,3.92,3.92,0,0,0,1.36.23,2,2,0,0,0,1.21-.42l.25-.17v-.63a12.68,12.68,0,0,0-.17-1.64c-.12-.74-.18-1.16-.2-1.26a5.27,5.27,0,0,0-.11-.7A.47.47,0,0,0,241.08,77.5Z"/><path d="M249.14,78.56a.84.84,0,0,1-.21.58.73.73,0,0,1-.56.24.76.76,0,0,1-.73-.43.8.8,0,0,1-.09-.39.76.76,0,0,1,.24-.57.89.89,0,0,1,.63-.23.72.72,0,0,1,.51.24A.78.78,0,0,1,249.14,78.56Zm-.94,2a.62.62,0,0,1,.29-.07.72.72,0,0,1,.53.24.72.72,0,0,1,.25.53.77.77,0,0,1-.22.54.81.81,0,0,1-.58.21c-.49,0-.73-.23-.73-.7A.77.77,0,0,1,248.2,80.52Z"/></g></g></svg>