<svg xmlns="http://www.w3.org/2000/svg" viewBox="0 0 362.29 187.2"><defs><style>.cls-1{fill:#fefefe;}</style></defs><g id="Layer_2" data-name="Layer 2"><g id="Draw_Layer" data-name="Draw Layer"><path class="cls-1" d="M14.35,36.94A4.05,4.05,0,0,0,15,36.5c.3-.15.61-.26.91-.4.5-.23,1-.53,1.46-.8,1.18-.66,2.37-1.26,3.57-1.87s2.44-1.12,3.59-1.82c1.35-.83,2.73-1.57,4.13-2.32,3.26-1.76,6.75-3.05,10-4.86s6.35-3.8,9.62-5.55a72.11,72.11,0,0,1,7.4-3.46c1-.37,2.07-.76,3.09-1.15l-1,.38c2.71-1,5.31-2.22,8-3.4S70.84,9.09,73.4,8a4.18,4.18,0,0,0,2.07-2.51A4.25,4.25,0,0,0,72.65.18a4.47,4.47,0,0,0-3.23.31c-2.42,1-4.87,2-7.27,3.08s-4.57,2.1-6.9,3l-.35.13c-1.85.68-3.69,1.34-5.48,2.17S46,10.48,44.33,11.37c-3.26,1.75-6.38,3.75-9.61,5.55S28,20,24.72,21.78c-1.4.75-2.78,1.49-4.13,2.32-1.15.7-2.4,1.2-3.58,1.82s-2.57,1.27-3.81,2a15.44,15.44,0,0,1-1.45.77c-.21.1-.41.19-.62.27a4.25,4.25,0,0,0-.94.56,4.3,4.3,0,0,0-1.58,5.66,4.19,4.19,0,0,0,3.75,2.22,4.39,4.39,0,0,0,2-.46Z"/><path class="cls-1" d="M198.88,84.32c2.18,0,4.36-.15,6.53-.22s4.4,0,6.6,0c4.08.05,8.18.07,12.25-.11,3.83-.17,7.64-.55,11.46-.77.4,0,.8-.1,1.2-.12a4.44,4.44,0,0,1,1,0c1.51-.08,3-.16,4.54-.28,2.4-.2,4.77-.52,7.15-.82,4.23-.54,8.45-1.24,12.67-1.89,2.1-.33,4.19-.68,6.29-1,1.93-.3,3.88-.56,5.81-.91,4.14-.76,8.22-1.76,12.3-2.79,2-.5,4-1,6-1.5s4.09-1,6.11-1.57c3.91-1.19,7.76-2.55,11.64-3.82,1.82-.6,3.68-1.06,5.51-1.63A63.48,63.48,0,0,0,322,64.61c1.54-.65,3-1.43,4.56-2.14s3.19-1.47,4.78-2.22,3.24-1.45,4.85-2.17,3.34-1.54,5-2.27,3.63-1.47,5.41-2.26c1.57-.7,3.11-1.47,4.62-2.28.79-.43,1.58-.9,2.36-1.36s1.44-.8,2.14-1.25c1.79-1.15,3.44-2.47,5.15-3.73a3.08,3.08,0,0,0,.75-.85c-.08-.24-.17-.47-.25-.71-.2-.57-.43-1.14-.63-1.72-.09-.28-.22-.54-.33-.81s-.14-.38-.22-.57a7.16,7.16,0,0,0-.57-.9c-.46-.55-.92-1.11-1.36-1.67l-.08-.09-.05-.06h0a4.54,4.54,0,0,0-3,1.12c-.88.65-1.74,1.32-2.61,2-1.12.74-2.29,1.42-3.46,2.07-1.49.84-3,1.68-4.49,2.42-3.18,1.55-6.52,2.73-9.73,4.22s-6.48,2.91-9.69,4.41c-2.86,1.34-5.69,2.79-8.63,3.94-3.44,1.24-7,2.13-10.47,3.29-3.8,1.27-7.58,2.64-11.47,3.65-2.1.55-4.22,1-6.32,1.56s-4.1,1-6.15,1.54c-3.89,1-7.8,1.85-11.76,2.47-9,1.41-18.06,3.07-27.17,4-4,.36-8,.48-12.06.77s-7.75.53-11.64.55c-1.84,0-3.68,0-5.52,0-2.45,0-4.9,0-7.36,0-2.16,0-4.32.16-6.49.23s-4.08,0-6.12,0l-12.42-.23c-4.15-.08-8.29-.42-12.43-.67s-8.26-.48-12.38-.82c-2.11-.17-4.22-.44-6.32-.67s-4.15-.44-6.23-.65q-4.68-.51-9.33-1.24c-4.21-.74-8.42-1.49-12.64-2.18l-2.93-.49-.11,0h-.06c-4-.74-8.07-1.53-12.08-2.41s-8.33-1.8-12.43-2.93-8.25-2-12.34-3.2S74.1,57.84,70,56.58L50.75,50.67c-2.93-.91-5.86-1.77-8.73-2.87-1.49-.57-2.93-1.29-4.42-1.89s-2.77-1-4.12-1.59c-.8-.4-1.57-.84-2.34-1.27-1-.58-2.07-1.14-3.07-1.77-.74-.47-1.43-1-2.18-1.49A20.69,20.69,0,0,1,24,38.46c-2-1.54-4.26-2.72-6.27-4.27-.24-.21-.48-.44-.71-.68a11.44,11.44,0,0,0-1.59-1.3,3.07,3.07,0,0,0-.25-.26c-.41-.38-.84-.71-1.28-1.05a4.11,4.11,0,0,0-3.26-.55,4.24,4.24,0,0,0-3.16,5.11A4.41,4.41,0,0,0,9.2,38c.34.32.65.65,1.06,1,.16.12.34.24.51.35s.3.31.46.45c.66.58,1.31,1.17,2,1.69S15,42.64,15.83,43.2s2,1.34,3,2c.47.33.91.7,1.4,1S21.41,47,22,47.39a49.89,49.89,0,0,0,10.79,5.74c1.86.7,3.68,1.48,5.5,2.27A52.63,52.63,0,0,0,44,57.48q12.1,3.72,24.2,7.44c4,1.22,8,2.45,12,3.58s8.24,2.07,12.34,3.2c2.12.59,4.25,1.08,6.4,1.55s4.49,1,6.76,1.51c4.54.93,9.09,1.88,13.67,2.62l3.92.65c4.5.81,9,1.6,13.5,2.31,4.11.66,8.28,1,12.42,1.45,4.3.45,8.58.92,12.9,1.17,4,.24,8,.52,12.07.75,2,.12,4,.24,6,.32,2.17.09,4.33.06,6.5.12,3.49.08,7,.18,10.5.18ZM134.71,71.48l-.71-.12.71.12Zm-15.78-2.71-.67-.11.67.11Z"/><path class="cls-1" d="M119.26,68.82h0l.06,0-.07,0Z"/><path class="cls-1" d="M358.53,146.12c.09-2.46-.37-4.92-.18-7.38.08-1.18.31-2.35.3-3.54s.09-2.4.1-3.61c0-1.6-.11-3.21-.11-4.82,0-1.42.19-2.84.18-4.25,0-1.6.16-3.18.19-4.77,0-1.3.24-2.58.31-3.88.18-2.8.25-5.61.48-8.41.27-3.17.07-6.36.52-9.51l-.09.56c.21-1.34.39-2.67.58-4l-.12.68c.37-2.23.6-4.46.76-6.72.14-1.82.12-3.64.24-5.45.17-2.47.34-4.92.4-7.4,0-1.25.09-2.5.14-3.74,0-.59,0-1.17,0-1.75a15.54,15.54,0,0,0-.14-2l-.06-.62c-.13-1.79-.29-3.59-.25-5.39,0-.91.14-1.82.19-2.74a26.82,26.82,0,0,0,0-2.69c-.08-1.63-.26-3.28-.22-4.91s.06-3.18.16-4.77c-.16-.53-.34-1.05-.53-1.57s-.43-1.15-.63-1.73c-.09-.27-.22-.54-.33-.81l-.17-.45a4.29,4.29,0,0,0-2.38-.84,4.23,4.23,0,0,0-3,1.12,4.39,4.39,0,0,0-1.38,3c-.17,1.93-.19,3.86-.24,5.8-.05,1.76.18,3.52.23,5.28s-.22,3.77-.21,5.67a57.22,57.22,0,0,0,.36,5.85c.05.54.11,1.06.16,1.59l-.12-1.1a23.06,23.06,0,0,1,0,3.11c-.06,1.24-.1,2.49-.13,3.73-.06,2.39-.24,4.76-.4,7.15-.11,1.68-.05,3.37-.19,5-.18,2-.29,4-.61,6,0-.27.09-.55.14-.84-.21,1.31-.37,2.62-.57,3.93l.09-.56a36.94,36.94,0,0,0-.55,5.25q0,2.43-.15,4.86c-.07,1.57-.27,3.15-.29,4.72,0,1.37-.14,2.74-.21,4.1s-.3,2.6-.33,3.92c0,1.59-.23,3.17-.21,4.77,0,1.39-.12,2.79-.16,4.18,0,1.63,0,3.27.09,4.9,0,1.23-.06,2.46-.09,3.68a17.08,17.08,0,0,1-.08,1.75c-.08.63-.16,1.25-.21,1.89-.18,2.52.26,5,.17,7.53a4.29,4.29,0,0,0,4.13,4.37h.12a4.31,4.31,0,0,0,4.25-4.13Z"/><path class="cls-1" d="M197.29,187l6.39-.32c2.07-.08,4.15-.09,6.23-.18,4.14-.2,8.25-.67,12.38-.92,2.94-.17,5.85-.53,8.77-.83s5.71-.63,8.56-1,5.64-.67,8.45-1.07q3.69-.52,7.39-.93c2.33-.21,4.67-.46,7-.81,2.05-.31,4.1-.72,6.13-1.12s3.89-.87,5.87-1.12,4-.54,6-.9c4.09-.75,8.13-1.74,12.17-2.71s8.24-1.94,12.34-3a98.69,98.69,0,0,0,11.35-3.78c1.81-.69,3.57-1.52,5.34-2.31q2.42-1.08,4.86-2c5-1.82,9.86-3.93,14.76-6,2.2-.91,4.26-2.06,6.41-3.07a60.88,60.88,0,0,0,6.38-3.75,4.43,4.43,0,0,0,2.08-2.5,4.25,4.25,0,0,0-6.05-5,67.23,67.23,0,0,1-6,3.57c-2,1-3.92,2-5.94,2.89s-4.27,1.75-6.4,2.65c-2.37,1-4.74,2-7.16,2.9l.29-.1c-2.43.92-4.82,1.87-7.21,2.91s-4.51,2-6.81,2.86c-1.83.66-3.66,1.3-5.53,1.84s-4,1.06-6,1.54c-4.13,1-8.27,1.95-12.39,3-2,.49-4.05.91-6.08,1.32s-4,.8-6.06,1.08-3.88.5-5.81.92-4.08.83-6.13,1.21c-2.22.4-4.45.69-6.69.95-2.5.25-5,.52-7.48.85s-5.15.73-7.74,1c-5,.57-10,1.15-14.94,1.69-1.76.15-3.52.26-5.28.39-2.15.15-4.29.39-6.44.54-4.09.29-8.18.33-12.27.52s-8.24.46-12.38.33c-4.31-.12-8.63-.43-13-.46-3.69,0-7.38-.24-11.06-.48s-7.5-.71-11.26-.89-7.71-.31-11.56-.72-7.76-.59-11.61-1.16c-2.81-.49-5.62-1-8.44-1.43s-5.49-.7-8.23-1.09c-2.42-.43-4.84-.88-7.27-1.28l1.12.18c-1.58-.26-3.16-.55-4.74-.81l1.12.19c-4-.69-8-1.65-12-2.58-2.08-.48-4.18-.87-6.26-1.36s-4-1-5.92-1.6-4.18-1.24-6.27-1.86c-1.9-.56-3.85-.93-5.76-1.44-4.06-1.06-8.1-2.28-12.12-3.51-3.46-1.05-7-2.07-10.31-3.45-1.73-.71-3.42-1.49-5.17-2.15-1.5-.58-3-1.12-4.48-1.75-1.24-.61-2.45-1.28-3.66-2a55.64,55.64,0,0,0-5.32-2.6c-.88-.42-1.76-.86-2.65-1.26s-2-.82-3-1.18-2-.83-3-1.25S16.88,142,16,141.64l-.9-.42.54.25a21.55,21.55,0,0,1-3.81-2.25l-.63-.55.41.35-.13-.14a4.25,4.25,0,0,0-6.26,5.76,8.09,8.09,0,0,0,.76.67A25,25,0,0,0,8.11,147a29.63,29.63,0,0,0,4.34,2.32l-1-.48c1.09.51,2.17,1,3.3,1.45.88.34,1.75.69,2.61,1.08,1.61.71,3.27,1.25,4.89,2l3.48,1.61c1.73.84,3.34,1.88,5.05,2.73a63.93,63.93,0,0,0,6.36,2.76c3.91,1.41,7.64,3.25,11.61,4.49s7.88,2.44,11.84,3.58c2,.58,4,1.17,6.1,1.68s3.93.93,5.87,1.51c5.09,1.5,10.15,3,15.35,4.09,2.57.53,5.15,1.09,7.71,1.7,2.9.69,5.8,1.23,8.73,1.71L103.2,179c1.28.23,2.56.45,3.85.66,2.84.49,5.66,1.09,8.51,1.45,2.61.32,5.22.66,7.81,1.06,4,.67,7.91,1.43,11.92,1.77,2.13.19,4.26.37,6.39.58s4,.42,6,.54c2.24.12,4.49.18,6.74.29,1.92.09,3.84.27,5.76.43,4.15.35,8.29.65,12.46.82,1.94.08,3.87.08,5.81.13,2.2.06,4.39.16,6.59.24s4.14.2,6.21.24h.91c1.71,0,3.42-.09,5.13-.16ZM11.57,139l.1.07-.1-.07Z"/><path class="cls-1" d="M8.29,144.35a4.29,4.29,0,0,0,3.17-5.11,89.76,89.76,0,0,1-1.94-10c-.29-3.5-.27-7-.45-10.52-.1-1.93-.15-3.84-.06-5.77s.15-4,.28-6.07a49.4,49.4,0,0,0-.24-6.55C8.92,98.53,9,96.75,9,95s0-3.84-.12-5.77a54.61,54.61,0,0,1,.05-6c.16-3.32-.14-6.62-.17-9.94,0-1.75.1-3.5.13-5.25,0-.89,0-1.77,0-2.66s-.21-2-.34-3a41.55,41.55,0,0,1,.31-6.21c.16-1.66.22-3.34.44-5a70.52,70.52,0,0,1,1.89-6.94c.47-1.55.91-3.1,1.42-4.64a4.25,4.25,0,0,0-7.22-4.49,12.13,12.13,0,0,0-1.26,3.18c-.21.67-.42,1.34-.62,2C3,41.86,2.51,43.44,2,45c-.32,1.08-.59,2.17-.82,3.27C.84,50.19.7,52.06.48,54,.29,55.63.24,57.33.1,59A26,26,0,0,0,0,61.81,31,31,0,0,0,.36,65c.1,1.62,0,3.25,0,4.88-.06,1.78-.1,3.57,0,5.36s.17,3.39.19,5.1c0,2-.16,4-.17,6s.22,4,.2,6.08c0,1.76-.08,3.53-.07,5.3,0,2,.3,4,.37,6s-.08,4-.18,6c-.15,2.71-.22,5.4-.1,8.11q.17,3.39.27,6.79a75.66,75.66,0,0,0,.75,9c.18,1.19.49,2.36.75,3.53.29,1.34.57,2.67.88,4a4.3,4.3,0,0,0,4.16,3.28,3.77,3.77,0,0,0,.94-.11Z"/><path class="cls-1" d="M116.77,73a19.16,19.16,0,0,0,4.13-1.74c1.32-.6,2.64-1.25,4-1.83,1.55-.68,3.13-1.27,4.67-2,2-.91,3.9-1.86,5.83-2.83,3.26-1.63,6.44-3.41,9.61-5.21,1.74-1,3.5-1.93,5.27-2.87s3.48-1.83,5.26-2.64c3.61-1.65,7.18-3.38,10.72-5.16,1.75-.88,3.48-1.82,5.2-2.78,1.57-.87,3.19-1.64,4.78-2.47,3.31-1.76,6.69-3.36,10-5,2-1,4-1.87,5.94-2.88s3.62-2,5.43-2.92c1-.55,2-1.14,3.08-1.71s2.05-1.05,3.07-1.59c2.24-1.17,4.43-2.36,6.77-3.3l2.9-1.1a33.3,33.3,0,0,0,3.49-1.45,26.93,26.93,0,0,0,3.22-2.1l.88-.63a4.15,4.15,0,0,0,1.19-1.88,4.23,4.23,0,0,0-.31-3.23,4.15,4.15,0,0,0-1.63-1.69h0a7.37,7.37,0,0,1-1.66.43c-.59.06-1.18.12-1.77.14h.09c-.61,0-1.22.05-1.82.09a21.32,21.32,0,0,1-3.76,2.11c-.9.33-1.79.68-2.69,1a45.63,45.63,0,0,0-5.21,2.15c-1.65.85-3.27,1.76-4.93,2.59-3.26,1.65-6.41,3.53-9.66,5.22-3.63,1.89-7.41,3.5-11.05,5.39-1.64.85-3.3,1.68-4.95,2.53-.78.41-1.57.82-2.35,1.25s-1.67.81-2.49,1.25c-1.69.91-3.38,1.83-5.08,2.73s-3.4,1.69-5.11,2.52-3.69,1.76-5.54,2.63-3.56,1.77-5.34,2.66c-3.45,1.72-6.71,3.74-10.11,5.56-1.59.85-3.17,1.73-4.79,2.54-1.92.95-3.86,1.88-5.78,2.82-2.27,1.12-4.67,1.94-6.94,3-.88.42-1.76.81-2.64,1.21-.59.26-1.16.57-1.74.84l-.09,0A4.23,4.23,0,0,0,115.89,73a4.37,4.37,0,0,0,.88-.08Zm94.79-56.34.77-.29-.77.29Z"/><path class="cls-1" d="M247.78,79.26a20.81,20.81,0,0,1,3.11-1.52c1.4-.58,2.76-1.24,4.13-1.88,1.55-.73,3.15-1.36,4.68-2.12s3.23-1.55,4.84-2.33c6.95-3.41,14.13-6.33,20.83-10.24a93.12,93.12,0,0,1,9-4.68c1.58-.7,3.12-1.47,4.72-2.11s3.31-1.43,4.93-2.19,3.09-1.54,4.65-2.28l4.62-2.14c1.54-.71,3.1-1.37,4.64-2.08,1.21-.56,2.42-1.1,3.66-1.59l5.21-1.79A51.23,51.23,0,0,1,332.06,41q2.74-.65,5.52-1.2c1.63-.32,3.28-.69,4.94-.91a15.57,15.57,0,0,1,2.73.06,25.44,25.44,0,0,1,4.65,1.49c.48.25.93.53,1.41.8s1,.51,1.44.81.73.84,1.11,1.25c.67.73,1.31,1.47,2,2.19a4.29,4.29,0,0,0,6,.25,3.57,3.57,0,0,0,.27-.28l-.1-.31c-.18-.59-.38-1.16-.58-1.73s-.43-1.15-.63-1.73c-.09-.27-.22-.54-.33-.81s-.14-.38-.22-.57a6,6,0,0,0-.57-.9c-.46-.56-.92-1.1-1.36-1.67l-.08-.09-.25-.29a34.11,34.11,0,0,0-3-3.11c-.53-.47-1.09-.9-1.6-1.39l-.26-.24a25.74,25.74,0,0,0-4.84-1.69,26.6,26.6,0,0,0-3.54-.56,18,18,0,0,0-3.59.17c-1.93.22-3.85.65-5.75,1s-4,.88-6,1.31a44.32,44.32,0,0,0-5.55,1.55c-2.19.77-4.4,1.49-6.56,2.33-1.53.6-3,1.33-4.51,2-1.88.86-3.78,1.69-5.66,2.56-3.49,1.61-6.89,3.37-10.41,4.91s-7.3,3.14-10.83,5c-1.67.88-3.32,1.78-4.94,2.74s-3.43,1.92-5.2,2.79C269.93,59.57,264,62.19,258.2,65c-1.38.67-2.74,1.39-4.15,2s-2.67,1.19-4,1.8-2.39,1.08-3.59,1.61a20.13,20.13,0,0,0-2.67,1.33,4.41,4.41,0,0,0-2.07,2.5,4.29,4.29,0,0,0,.3,3.24,4.5,4.5,0,0,0,3.86,2.3,3.61,3.61,0,0,0,1.89-.53Z"/><path class="cls-1" d="M235.42,83.23c.5-.07,1-.14,1.5-.16a4.12,4.12,0,0,1,1.11,0l.46.12q.31,0,.63-.06l.28,0c.74-.32,1.47-.64,2.19-1s1.4-.76,2.11-1.11l1-.46a13.83,13.83,0,0,0,1.41-.77c1.44-.77,3.07-1.09,4.49-1.9l1.81-1c.7-.41,1.47-.7,2.19-1.06,1.55-.77,3.12-1.44,4.71-2.12,1.36-.58,2.69-1.23,4-1.93a4.47,4.47,0,0,0,2.24-2.29,4.25,4.25,0,0,0-2.32-5.55,4.16,4.16,0,0,0-3.3,0c-1.31.7-2.63,1.35-4,1.93-1.63.7-3.25,1.4-4.85,2.19-.72.36-1.46.65-2.16,1.05s-1.24.71-1.87,1a18.26,18.26,0,0,1-2.46,1c-.45.17-.89.32-1.33.5a9.48,9.48,0,0,0-1.29.7c-.61.33-1.25.58-1.86.91s-1.3.7-2,1c-1,.52-2.13,1-3.21,1.43a4.3,4.3,0,0,0-2.21,5.59,4.24,4.24,0,0,0,1.67,1.9c.34,0,.68-.05,1-.06Z"/><path class="cls-1" d="M102.08,65.71c.5-.27,1-.57,1.45-.88,1.21-.75,2.45-1.46,3.67-2.19s2.61-1.51,4-2.18c.7-.34,1.41-.65,2.12-1s1.33-.63,2-1c1.36-.66,2.69-1.4,4-2.08l2.25-1.11c.64-.32,1.29-.61,1.93-.94,1.43-.76,2.79-1.63,4.2-2.42s2.6-1.5,3.94-2.17l4.26-2.17c1.35-.71,2.69-1.42,4.05-2.12s2.8-1.49,4.23-2.2l2.07-1c.67-.34,1.32-.71,2-1,1.4-.64,2.8-1.31,4.16-2,.67-.35,1.32-.75,2-1.12s1.35-.72,2-1c1.42-.67,2.85-1.34,4.28-2s2.84-1.22,4.23-1.88,2.62-1.27,4-1.8c2.32-.9,4.44-2.24,6.65-3.36.49-.25,1-.47,1.5-.72s1.19-.53,1.79-.79,1.09-.45,1.63-.69,1.31-.6,2-.91a1.5,1.5,0,1,0-1.29-2.71c-.74.35-1.47.71-2.23,1s-1.46.62-2.19.93-1.34.63-2,.94-1.36.68-2,1c-1.29.69-2.56,1.45-3.89,2.05-.69.3-1.42.55-2.1.86l-2.06.95-2,.95c-.72.34-1.45.65-2.17,1-1.41.6-2.8,1.24-4.19,1.89-.7.32-1.4.64-2.09,1s-1.36.73-2,1.12c-1.35.78-2.76,1.48-4.18,2.14-.65.31-1.31.61-1.95.94l-2.07,1c-1.45.74-2.9,1.48-4.33,2.24l-2.08,1.07-1.94,1c-1.37.71-2.73,1.41-4.1,2.1s-2.76,1.39-4.09,2.17l-2,1.18c-.68.39-1.34.81-2,1.2-1.32.76-2.72,1.4-4.09,2.07s-2.84,1.41-4.24,2.15c-1.11.59-2.23,1.13-3.37,1.65s-2.33,1.05-3.45,1.67-2.26,1.3-3.39,2-2.21,1.32-3.3,2l.09-.06-.81.47a1.53,1.53,0,0,0-.72,2,1.59,1.59,0,0,0,1.38.86,1.21,1.21,0,0,0,.62-.15Z"/><path class="cls-1" d="M85.09,62.77a3.32,3.32,0,0,0,1.15-.34l.52-.23,1-.51c.67-.34,1.34-.7,2-1.06,1.38-.73,2.77-1.45,4.12-2.25s2.6-1.6,3.93-2.35,2.68-1.51,4-2.23,2.92-1.48,4.38-2.23,2.69-1.39,4-2.13,2.64-1.58,4-2.35,2.8-1.55,4.23-2.29c2.82-1.46,5.62-3,8.42-4.51,1.34-.74,2.69-1.47,4-2.25s2.77-1.65,4.16-2.46,2.68-1.49,4-2.2,2.73-1.46,4.16-2,2.92-1.15,4.33-1.85,2.84-1.53,4.26-2.27c1-.5,1.93-.9,2.9-1.34.43-.2.88-.38,1.32-.59a13.91,13.91,0,0,0,1.45-.83h0c.66-.43,1.31-.87,1.94-1.34a1.49,1.49,0,0,0-.85-2.64,1.56,1.56,0,0,0-1.08.34c-.49.37-1,.72-1.49,1.05l-.14.09a30.06,30.06,0,0,1-3.76,1.78c-1.47.65-2.86,1.47-4.27,2.23a43.83,43.83,0,0,1-4.16,2c-.74.3-1.48.57-2.21.89s-1.38.63-2.05,1c-1.42.74-2.85,1.47-4.25,2.25s-2.69,1.53-4,2.34c-2.71,1.65-5.51,3.16-8.3,4.66-1.35.72-2.68,1.47-4,2.17s-2.85,1.46-4.25,2.24-2.74,1.56-4.08,2.38c-.64.39-1.3.75-2,1.11s-1.33.74-2,1.09c-2.79,1.45-5.64,2.8-8.38,4.34-1.38.78-2.76,1.56-4.12,2.39s-2.57,1.58-3.91,2.28l-2.67,1.4c-.89.46-1.78.94-2.7,1.31a1.28,1.28,0,0,1-.27,0,1.45,1.45,0,0,0-1,.61A1.51,1.51,0,0,0,84,62.53a1.43,1.43,0,0,0,.88.25Zm72.77-38.5-.31.2.31-.2Z"/><path class="cls-1" d="M71,58.73c1.42-.63,2.75-1.43,4.1-2.18.63-.35,1.27-.69,1.9-1s1.43-.8,2.14-1.24c1.27-.79,2.53-1.6,3.82-2.36s2.66-1.53,4-2.29,2.54-1.35,3.83-2,2.44-1.29,3.66-1.91,2.56-1.32,3.8-2,2.53-1.53,3.77-2.33c2.62-1.6,5.39-3,8.15-4.31l2.13-1c.67-.32,1.32-.67,2-1,1.41-.75,2.77-1.57,4.12-2.42s2.84-1.91,4.27-2.85c2.19-1.38,4.41-2.7,6.71-3.87,1.15-.57,2.31-1.13,3.48-1.64a34.42,34.42,0,0,0,3.58-2,1.62,1.62,0,0,0,.76-.85,1.48,1.48,0,0,0-.05-1.15,1.52,1.52,0,0,0-.86-.77,1.42,1.42,0,0,0-1.14.06L133,20.76a21.64,21.64,0,0,1-2.1,1c-1.46.65-2.9,1.37-4.32,2.13s-2.69,1.54-4,2.35c-.79.48-1.58,1-2.35,1.49-.62.4-1.21.85-1.83,1.26l-.66.44c-1.31.83-2.62,1.63-4,2.4S111,33.31,109.63,34q-4.22,2-8.27,4.27c-.79.46-1.55,1-2.31,1.48-2.69,1.67-5.53,3.09-8.33,4.56C89.35,45,88,45.64,86.6,46.38s-2.76,1.54-4.12,2.34c-1,.61-2.07,1.24-3.09,1.88s-2,1.28-3,1.84l-3.42,1.88c-1.07.59-2.11,1.2-3.22,1.7A1.5,1.5,0,0,0,69,58a1.47,1.47,0,0,0,1.36.84,1.55,1.55,0,0,0,.63-.13Zm28.09-19,.1-.06-.1.06ZM117.8,29.43l.18-.12-.18.12Z"/><path class="cls-1" d="M56.27,54c1.39-.68,2.8-1.31,4.18-2s2.85-1.52,4.24-2.35c2.74-1.63,5.5-3.24,8.25-4.87,1.29-.77,2.58-1.55,3.9-2.26s2.87-1.53,4.31-2.28c2.8-1.47,5.53-3.07,8.31-4.57,1.41-.76,2.82-1.51,4.25-2.22s2.79-1.25,4.14-2c2.83-1.49,5.53-3.22,8.36-4.73,1.14-.61,2.27-1.25,3.41-1.87S112,23.6,113.12,23s2.38-1.13,3.58-1.66a31.47,31.47,0,0,0,3.76-2,1.66,1.66,0,0,0,.78-.85,1.53,1.53,0,0,0-.06-1.15,1.5,1.5,0,0,0-.85-.77,1.44,1.44,0,0,0-1.15.06c-.73.44-1.46.87-2.22,1.26s-1.37.66-2.07,1c-1.5.67-3,1.38-4.43,2.14s-2.63,1.39-3.93,2.11-2.75,1.5-4.11,2.29-2.87,1.67-4.32,2.48S95.34,29.3,93.94,30s-2.81,1.34-4.18,2.08-2.79,1.5-4.18,2.27l-4.23,2.35c-1.36.74-2.73,1.44-4.09,2.16C74.44,40.34,71.69,42,69,43.61l-3.45,2c-1.1.65-2.2,1.32-3.31,1.94s-2.36,1.3-3.56,1.91S56.2,50.66,55,51.25a1.5,1.5,0,0,0,.66,2.85,1.41,1.41,0,0,0,.63-.14Z"/><path class="cls-1" d="M43.55,48.91c.71-.26,1.41-.6,2.09-.91s1.29-.62,1.91-1c1.38-.74,2.7-1.57,4-2.37,2.68-1.61,5.33-3.29,8-4.87,1.39-.81,2.78-1.62,4.21-2.37l4-2.08c1.44-.75,2.85-1.53,4.26-2.33s2.72-1.5,4.09-2.24,2.74-1.57,4.12-2.34,2.75-1.52,4.1-2.32c2.74-1.63,5.51-3.22,8.26-4.82a92.69,92.69,0,0,0,9.63-5.79,1.51,1.51,0,0,0,.19-2.11,1.53,1.53,0,0,0-2.12-.18c-.54.4-1.08.79-1.64,1.16-1.31.82-2.64,1.59-4,2.35S92,18.25,90.63,19.05l-8.29,4.84c-1.37.8-2.77,1.54-4.15,2.34s-2.71,1.55-4.09,2.28S71.36,30,70,30.79s-2.8,1.53-4.22,2.26-2.71,1.41-4.06,2.13-2.77,1.56-4.14,2.37-2.77,1.66-4.14,2.52-2.67,1.61-4,2.43c-1.17.71-2.34,1.43-3.56,2-.53.27-1.06.54-1.6.78s-1.31.62-2,.86A1.5,1.5,0,0,0,42.4,49a1.33,1.33,0,0,0,.47.08,2,2,0,0,0,.68-.13Z"/><path class="cls-1" d="M27.61,43.19c2.75-1.24,5.42-2.68,8.1-4.08L40,36.89c1.38-.73,2.79-1.41,4.17-2.14,2.74-1.46,5.47-2.95,8.28-4.3s5.73-2.86,8.55-4.38c1.34-.73,2.71-1.42,4.06-2.12,1.51-.77,3-1.56,4.49-2.36s2.69-1.47,4-2.21,2.92-1.6,4.37-2.44,3-1.82,4.47-2.64,3-1.58,4.58-2.34a1.5,1.5,0,1,0-1.29-2.71c-1.41.7-2.84,1.39-4.23,2.14S78.72,13,77.34,13.82s-2.72,1.58-4.1,2.33-2.79,1.55-4.19,2.31c-2.8,1.5-5.62,2.94-8.43,4.42-1.42.74-2.83,1.5-4.24,2.25s-2.91,1.48-4.38,2.2-2.81,1.36-4.2,2.08-2.75,1.46-4.12,2.21S40.94,33,39.56,33.73c-.68.35-1.35.73-2,1.08L35.26,36c-3,1.53-5.9,3.15-8.94,4.51A1.5,1.5,0,0,0,27,43.33a1.45,1.45,0,0,0,.64-.14Z"/><path class="cls-1" d="M76.84,91.84a10.62,10.62,0,0,0-3.06.88A13.1,13.1,0,0,0,69,97.09,15.21,15.21,0,0,0,67.52,100a10.4,10.4,0,0,0-.75,3.44,11.76,11.76,0,0,0,.33,3.29,8.47,8.47,0,0,0,2,3.46c.56.68,1.18,1.32,1.8,1.94a12.08,12.08,0,0,0,2.73,2,24.17,24.17,0,0,0,3.26,1.42c.87.33,1.77.63,2.66.92,1.78.57,3.56,1.12,5.29,1.84a14.14,14.14,0,0,1,2.56,1.54A10.56,10.56,0,0,1,88.43,121a15.44,15.44,0,0,1,1.22,2.31,13.27,13.27,0,0,1,.54,2.15,13,13,0,0,1-.09,2.33,14.86,14.86,0,0,1-.87,2.92,14.56,14.56,0,0,1-1.15,1.94,10.23,10.23,0,0,1-1.31,1.24,18.4,18.4,0,0,1-2.41,1.26,11.6,11.6,0,0,1-1.84.49,6.64,6.64,0,0,1-1,0c-1.32-.28-2.62-.64-3.92-1a37.89,37.89,0,0,1-3.91-1.26,13.26,13.26,0,0,1-2.3-1.41,11.06,11.06,0,0,1-1.25-1.31,12.25,12.25,0,0,1-.63-1.19,28,28,0,0,1-.86-3,2,2,0,0,0-3.88,1,25.15,25.15,0,0,0,.84,3,14.94,14.94,0,0,0,.65,1.55,11.07,11.07,0,0,0,1,1.52,12.18,12.18,0,0,0,2.55,2.31,13.86,13.86,0,0,0,3,1.56c.94.37,1.92.65,2.9.93l2.86.79a14.35,14.35,0,0,0,3.66.64,10.3,10.3,0,0,0,3.85-.92A15.08,15.08,0,0,0,89.24,137a10.85,10.85,0,0,0,1.17-1,11.13,11.13,0,0,0,1.28-1.54,14.51,14.51,0,0,0,1.64-3.27,13.81,13.81,0,0,0,.75-3.17,12,12,0,0,0-.83-6.45,14,14,0,0,0-1.3-2.48,11.57,11.57,0,0,0-1-1.32,12.75,12.75,0,0,0-1.39-1.26,13.26,13.26,0,0,0-2.92-1.74,31.3,31.3,0,0,0-3.78-1.44c-2.14-.69-4.3-1.36-6.38-2.23a12.86,12.86,0,0,1-2.24-1.31,28.44,28.44,0,0,1-2.7-2.9,6.48,6.48,0,0,1-.46-.81,8.39,8.39,0,0,1-.29-1.32,11.18,11.18,0,0,1,0-1.92,12.5,12.5,0,0,1,.58-1.89,16.17,16.17,0,0,1,1.52-2.45,14.33,14.33,0,0,1,1.81-1.76,8.53,8.53,0,0,1,1.11-.6A14.09,14.09,0,0,1,78,95.7a13.22,13.22,0,0,1,1.78,0,11.45,11.45,0,0,1,1.87.56,37.15,37.15,0,0,1,3.77,2.17c.69.44,1.37.88,2,1.33s1.47,1.11,2.18,1.69a1.88,1.88,0,0,0,1.53.24,2,2,0,0,0,1.22-.88,2,2,0,0,0,.24-1.54,2.21,2.21,0,0,0-.88-1.22c-.88-.71-1.75-1.4-2.68-2s-1.78-1.15-2.68-1.7A15.72,15.72,0,0,0,80,91.74a8.94,8.94,0,0,0-1.14-.07,13.78,13.78,0,0,0-2,.17Z"/><path class="cls-1" d="M101.31,102.78a2,2,0,0,0,1.35,2.49c1.52.35,3,.7,4.52,1.1a40.7,40.7,0,0,0,4.37,1c3.11.5,6.26.57,9.38,1,1.63.28,3.24.64,4.87.86,1.31.19,2.63.31,3.94.49l.86.15a2.11,2.11,0,0,0,1.52-.16,2,2,0,0,0,.8-2.71,1.88,1.88,0,0,0-1.19-1c-1.86-.37-3.75-.52-5.62-.77-2.24-.39-4.45-.85-6.7-1.1s-4.44-.31-6.64-.62c-1.44-.24-2.85-.59-4.27-1s-3.13-.8-4.71-1.16a2.31,2.31,0,0,0-.52-.06,2,2,0,0,0-2,1.41Zm28.45,7,.48.07-.48-.07Z"/><path class="cls-1" d="M118.35,106.23a2.16,2.16,0,0,0-.63,1.42c-.18,1.71-.43,3.41-.66,5.12l.09-.53c-.2,1.24-.4,2.48-.59,3.72l0-.22a60.71,60.71,0,0,0-.77,6.31c-.11,2-.11,4-.16,5.92s-.11,3.88,0,5.83c0,1,0,2,0,2.95a21.36,21.36,0,0,1-.1,2.26,8.38,8.38,0,0,0-.21,1.3,2,2,0,1,0,4,.07,18.67,18.67,0,0,0,.31-2.48c0-.41,0-.82,0-1.24s0-1,0-1.57c0-2-.08-3.94,0-5.91s.07-3.86.13-5.79a51,51,0,0,1,.6-6c.11-.76.23-1.53.35-2.3.41-2.43.74-4.87,1-7.32a1.91,1.91,0,0,0-.54-1.41,2,2,0,0,0-1.42-.62h0a2,2,0,0,0-1.37.54Z"/><path class="cls-1" d="M163.34,106.6a10.63,10.63,0,0,0-2,.26,9.75,9.75,0,0,0-1.8.67,23.28,23.28,0,0,0-2.42,1.39,34.65,34.65,0,0,0-5.16,4,23.29,23.29,0,0,0-2.4,2.56,13.31,13.31,0,0,0-1.67,3.08,23.26,23.26,0,0,0-1.67,5.77,26.38,26.38,0,0,0-.34,3.43,20.73,20.73,0,0,0,0,2.95,16.44,16.44,0,0,0,.61,3.36c.2.61.42,1.21.68,1.8.1.23.2.45.32.67a12,12,0,0,0,1.06,1.64,16.43,16.43,0,0,0,5.71,4.43,19.29,19.29,0,0,0,6.23,2.23,21.29,21.29,0,0,0,3.29.3,29.93,29.93,0,0,0,3.28-.21,22.23,22.23,0,0,0,3-.54,14.85,14.85,0,0,0,2.9-1.15,28.76,28.76,0,0,0,2.65-1.51c.48-.31.94-.64,1.4-1a8.36,8.36,0,0,0,1.49-1.54,12.12,12.12,0,0,0,1.5-2.49c.46-1,.9-2.06,1.27-3.12a20.31,20.31,0,0,0,1.28-6.12,10.06,10.06,0,0,0-.21-2,9.55,9.55,0,0,0-.37-1.42,31.89,31.89,0,0,0-1.19-3c-.73-1.68-1.42-3.39-2.29-5a7.48,7.48,0,0,0-1.72-2,9.93,9.93,0,0,0-1.79-1.29c-1.11-.62-2.29-1.11-3.41-1.71a2.21,2.21,0,0,0-.8-.26,2.07,2.07,0,0,0,.34-.68,2,2,0,0,0-1.35-2.48c-1.09-.23-2.17-.48-3.27-.68a15.51,15.51,0,0,0-2.89-.33Zm1.91,4.11c1.18.21,2.35.48,3.52.73l.3,0-.12.17a2,2,0,0,0,.65,2.76,34.73,34.73,0,0,1,4.53,2.46,7.93,7.93,0,0,1,.82.82c.31.5.55,1,.81,1.57s.52,1.11.77,1.67c.52,1.17,1,2.35,1.5,3.53a13.19,13.19,0,0,1,.64,2.47,11.6,11.6,0,0,1-.09,1.77,27.3,27.3,0,0,1-1.83,5.84c-.19.42-.4.84-.63,1.24a13.26,13.26,0,0,1-.8,1.16,6.77,6.77,0,0,1-.92.85,23.08,23.08,0,0,1-4.26,2.38,19.31,19.31,0,0,1-3.68.79,22.47,22.47,0,0,1-4.71,0c-.64-.1-1.27-.24-1.9-.4a14.72,14.72,0,0,1-2-.7,27.26,27.26,0,0,1-4.6-2.64l-.58-.5a7.87,7.87,0,0,1-1.07-1.23,10.66,10.66,0,0,1-.9-1.66,16.79,16.79,0,0,1-.75-3.09,26.05,26.05,0,0,1,.15-5.51,23.18,23.18,0,0,1,.66-2.92,22,22,0,0,1,1-2.77,12.66,12.66,0,0,1,1.27-2.09,31.37,31.37,0,0,1,4.13-3.77,26.09,26.09,0,0,1,4.58-2.77,8.51,8.51,0,0,1,1.13-.29,11.91,11.91,0,0,1,2.31.09Zm12.68,13.47,0,.12a.56.56,0,0,1,0-.12ZM150.82,134l.06.17-.06-.17Zm.55,1.09.1.14-.1-.14Zm6.68,4.81.2.09-.2-.09Z"/><path class="cls-1" d="M202.51,113c-.06,2.13-.13,4.25-.16,6.39,0,2,0,3.93-.11,5.89s-.28,3.92-.45,5.88c-.08,1-.14,2-.21,3s-.17,1.86-.26,2.79a34.17,34.17,0,0,0-.13,7.22,1.85,1.85,0,0,0,.89,1.22,2,2,0,0,0,1.53.24,2,2,0,0,0,1.22-.88,2.1,2.1,0,0,0,.26-1.38v.1a35.71,35.71,0,0,1,.17-5.94l.3-3.08c.08-.95.12-1.91.2-2.86.15-2,.36-3.92.45-5.89s.11-4,.13-6c0-2.21.1-4.42.16-6.63a2,2,0,0,0-2-2h0a2,2,0,0,0-2,2Z"/><path class="cls-1" d="M208.64,109.18c-1.38.11-2.76.3-4.13.49a1.94,1.94,0,0,0-1.22.89,2,2,0,0,0-.24,1.53,2,2,0,0,0,.88,1.22,2.13,2.13,0,0,0,1.54.24l2.23-.29c.68-.06,1.37-.14,2.05-.14a15.83,15.83,0,0,1,1.95.12,17.6,17.6,0,0,1,2.92.9,13.33,13.33,0,0,1,2.19,1.28,8.65,8.65,0,0,1,.79.81,5.75,5.75,0,0,1,.34.65,5.13,5.13,0,0,1,.16.65,9.76,9.76,0,0,1,0,1.43,11.88,11.88,0,0,1-.37,1.33,7,7,0,0,1-.57.95,9.5,9.5,0,0,1-1.23,1.14,25.11,25.11,0,0,1-4.71,2.59c-1,.37-2.07.65-3.12,1-.55.15-1.09.32-1.63.48-.38.12-.75.25-1.12.39a2.24,2.24,0,0,0-1.52,1.48,2,2,0,0,0,0,1,2.11,2.11,0,0,0,.49.89,2,2,0,0,0,.89.54,2,2,0,0,0,1,0,6.82,6.82,0,0,0,.88-.26c.37-.11.75-.2,1.12-.29.78-.2,1.57-.35,2.35-.51,1.56-.32,3.12-.57,4.69-.77a14.55,14.55,0,0,1,1.87-.08c.73,0,1.44.09,2.17.18a21.82,21.82,0,0,1,4.37,1.08,9,9,0,0,1,1.07.65,8.43,8.43,0,0,1,.65.69,6.84,6.84,0,0,1,.5.92,8.68,8.68,0,0,1,.34,1.51c.07.95,0,1.91,0,2.86a31.69,31.69,0,0,0,.11,3.23c.05.56.1,1.14.19,1.7s.2.93.31,1.4c.19.84.36,1.69.48,2.54a5.76,5.76,0,0,0,.43,2.38,2,2,0,0,0,3.62-1.66,29.86,29.86,0,0,0-.46-3.4c-.11-.51-.24-1-.35-1.5s-.16-.82-.21-1.23c-.08-1-.14-2-.12-3a31.25,31.25,0,0,0,0-3.21,9.53,9.53,0,0,0-1.09-4,8,8,0,0,0-1.7-2.09,9.1,9.1,0,0,0-3.24-1.78A26.71,26.71,0,0,0,219,125l.18-.14a8.44,8.44,0,0,0,1.2-1.33,9,9,0,0,0,1.36-7.83,7.77,7.77,0,0,0-3.05-3.85,17.37,17.37,0,0,0-3.27-1.67,13.36,13.36,0,0,0-3.4-.91,16,16,0,0,0-2.07-.14c-.44,0-.88,0-1.32.05Zm21.64,30.6v0Zm-3,5.54c0,.05,0,.09,0,.13s0-.08,0-.13Z"/><path class="cls-1" d="M243.46,110.86a2,2,0,0,0-1.46,2.42c.22.94.42,1.87.56,2.81.1,1.3.11,2.6.13,3.9s.11,2.84.18,4.26.06,3,.1,4.54.18,3,.35,4.45v0c.1,1,.12,2,.13,3.06s0,1.9,0,2.85c0,.47,0,.93.07,1.4a7.5,7.5,0,0,0,.6,2.88,4.94,4.94,0,0,0,1.58,1.85,7.33,7.33,0,0,0,1.45.74,11.17,11.17,0,0,0,1.51.51,9.69,9.69,0,0,0,1.71.28,13,13,0,0,0,1.53,0,15.48,15.48,0,0,0,3.36-.65,48.33,48.33,0,0,0,5.8-2.2c.69-.29,1.35-.62,2-.94a18,18,0,0,0,2.45-1.22,2.13,2.13,0,0,0,1-1.19,2,2,0,0,0-1.35-2.49,2,2,0,0,0-1.53.16,15.37,15.37,0,0,1-2.14,1.09l-1.82.86c-1.11.51-2.26.95-3.4,1.41a21.85,21.85,0,0,1-4.42,1.18,12.18,12.18,0,0,1-1.6,0,11.41,11.41,0,0,1-1.81-.54,5,5,0,0,1-.5-.29.75.75,0,0,1-.15-.16.41.41,0,0,1-.07-.11,3.82,3.82,0,0,1-.15-.67c-.06-.54-.1-1.08-.11-1.62,0-.75,0-1.5,0-2.24a34.83,34.83,0,0,0-.26-5l.06.51c-.38-3.35-.26-6.72-.46-10.08-.09-1.57-.09-3.13-.12-4.69a24.52,24.52,0,0,0-.23-2.84c-.12-.91-.34-1.81-.54-2.7a2,2,0,0,0-2-1.52,1.88,1.88,0,0,0-.46.06Zm4.33,31v0h0v0Zm0,0h0l.15.2a1,1,0,0,1-.15-.2Zm.27.22.08.07-.08-.07Z"/><path class="cls-1" d="M259.77,122.43a33.13,33.13,0,0,1-3.28.59c-1.15.18-2.31.36-3.46.56-2.2.38-4.38.82-6.6,1.1l-1.18.11a2.16,2.16,0,0,0-1.41.54,2,2,0,0,0-.63,1.42,2,2,0,0,0,.55,1.41,1.92,1.92,0,0,0,1.42.63c1.48-.13,2.95-.3,4.41-.54,1.25-.21,2.49-.45,3.73-.67L257,127l1.73-.28a17.65,17.65,0,0,0,2.05-.39,2,2,0,0,0-.48-3.94,2,2,0,0,0-.48.06Z"/><path class="cls-1" d="M262.69,106.45c-.63,0-1.25.12-1.88.19-.94.12-1.89.26-2.84.4-1.82.28-3.64.57-5.47.79a78.82,78.82,0,0,1-8.69.49,2,2,0,1,0-.07,4,80.2,80.2,0,0,0,9.67-.6c2.92-.34,5.81-.88,8.72-1.23a9.87,9.87,0,0,1,2.1-.07,2,2,0,0,0,1.41-.54,2,2,0,0,0,.62-1.43,2,2,0,0,0-.54-1.4,2.16,2.16,0,0,0-1.42-.63,5.25,5.25,0,0,0-.56,0c-.35,0-.7,0-1.05.06Z"/><path class="cls-1" d="M168.84,108.32a2,2,0,0,0-.63,1.42,2.22,2.22,0,0,0,.55,1.41c.52.71,1,1.44,1.57,2.12a11,11,0,0,0,2.28,2,2,2,0,0,0,2.75-.64,2,2,0,0,0-.64-2.76l-.49-.34a20,20,0,0,1-2.56-3.15,1.94,1.94,0,0,0-1.42-.62h0a2,2,0,0,0-1.38.54Z"/><path class="cls-1" d="M351.6,66.15c-.52.22-1,.47-1.52.71a12,12,0,0,1-1.53.63l-1.42.51c-.6.22-1.18.49-1.77.73-1.12.46-2.2,1-3.31,1.47l-1.62.68c-.66.25-1.33.46-2,.67a1.66,1.66,0,0,0-.92,1,1.76,1.76,0,0,0,1.06,2.24,1.93,1.93,0,0,0,1.32-.06c.65-.21,1.29-.42,1.93-.65s1-.42,1.53-.64c1.13-.48,2.25-1,3.38-1.49s2.13-.88,3.22-1.26c.52-.18,1-.38,1.53-.61s1-.52,1.57-.75a1.77,1.77,0,0,0,.87-2.32,1.74,1.74,0,0,0-1.6-1,1.82,1.82,0,0,0-.72.15Z"/><path class="cls-1" d="M354.26,76c-1,.62-2,1.26-2.94,1.88-1.46.87-3,1.61-4.5,2.39-.68.35-1.36.72-2,1.09s-1.41.81-2.13,1.18a52.14,52.14,0,0,1-4.78,2.11c-.82.33-1.64.64-2.46,1-.37.15-.74.28-1.1.41a8,8,0,0,0-1.27.55,1.88,1.88,0,0,0-.92,1,1.76,1.76,0,0,0,1.06,2.24,1.73,1.73,0,0,0,1.32,0,7.29,7.29,0,0,1,1.18-.52l1.18-.44c.82-.33,1.65-.63,2.47-1,1.62-.66,3.26-1.31,4.82-2.13.72-.37,1.41-.8,2.13-1.18s1.42-.78,2.14-1.15c1.67-.86,3.35-1.67,4.94-2.67l3.11-2a1.66,1.66,0,0,0,.64-1.2,1.8,1.8,0,0,0-.4-1.26,1.76,1.76,0,0,0-1.2-.63h-.14a2,2,0,0,0-1.12.4Z"/><path class="cls-1" d="M353.6,90l-2.68.82-.37.11,0,0h0q-1.39.43-2.76,1c-.49.19-1,.4-1.45.61s-1,.4-1.51.65a1.75,1.75,0,0,0,1.46,3.19c.42-.22.87-.38,1.31-.56l1.2-.53c.85-.35,1.71-.66,2.59-.94l.92-.29,1.92-.59a1.85,1.85,0,0,0,1.12-.71,1.74,1.74,0,0,0,.3-1.31,1.78,1.78,0,0,0-.72-1.13,1.89,1.89,0,0,0-1-.33,1.06,1.06,0,0,0-.31,0Z"/><path class="cls-1" d="M352.62,104.51c-1.74.76-3.47,1.52-5.23,2.23-.83.34-1.68.65-2.53,1s-1.69.61-2.54.89l-2.08.64c-1,.3-2.06.55-3.11.76s-2.21.33-3.29.65a1.85,1.85,0,0,0-1.13.71,1.74,1.74,0,0,0-.3,1.31,1.78,1.78,0,0,0,.72,1.13,1.66,1.66,0,0,0,1.31.29c1.26-.37,2.57-.49,3.86-.75a36.3,36.3,0,0,0,4-1.1c1-.3,2-.61,3-1s1.94-.63,2.88-1c2-.83,4-1.67,6-2.54a1.74,1.74,0,0,0-.73-3.33,1.82,1.82,0,0,0-.72.15Zm-12.48,4.74-.23.07.23-.07Zm2.33,2.91-.15,0,.15,0Z"/><path class="cls-1" d="M348,118.65,344.67,120c-1,.39-1.93.8-2.92,1.15a1.7,1.7,0,0,0-.93,1,1.77,1.77,0,0,0,.06,1.32,1.74,1.74,0,0,0,1,.92,1.82,1.82,0,0,0,1.32-.06c.94-.33,1.85-.71,2.78-1.08l3.49-1.39a1.75,1.75,0,0,0,.86-2.32,1.71,1.71,0,0,0-1.59-1,2.1,2.1,0,0,0-.73.14Z"/><path class="cls-1" d="M4.54,63.72A1.77,1.77,0,0,0,5,66.16c1.14.81,2.26,1.68,3.45,2.41a24.41,24.41,0,0,0,4.1,2c1.32.51,2.65,1,4,1.46s2.67.8,4,1.22a1.77,1.77,0,0,0,2.23-1.06,1.76,1.76,0,0,0-1-2.24c-.89-.28-1.8-.51-2.69-.78s-1.91-.65-2.85-1c-1.69-.63-3.39-1.22-5-2C9.68,65.28,8.34,64.26,7,63.29A1.73,1.73,0,0,0,6,63a1.77,1.77,0,0,0-1.45.74Z"/><path class="cls-1" d="M5.22,75.33a1.76,1.76,0,0,0,.43,2.43c.83.52,1.66,1,2.52,1.53.7.39,1.4.78,2.09,1.19a35.58,35.58,0,0,0,5,2.37,33,33,0,0,0,4.86,1.53c1.84.41,3.72.63,5.58.9,1.12.16,2.23.34,3.33.56.66.15,1.3.33,1.94.53a1.75,1.75,0,1,0,1.18-3.29c-3.58-1.15-7.36-1.32-11-2a38.63,38.63,0,0,1-7.78-2.86c-1.92-1-3.82-2.13-5.66-3.29a2,2,0,0,0-1-.3,1.68,1.68,0,0,0-1.41.73Z"/><path class="cls-1" d="M5.9,90A1.76,1.76,0,0,0,5,92.28a1.89,1.89,0,0,0,1,.92c1.13.55,2.28,1.06,3.46,1.52a23.59,23.59,0,0,0,3.49,1c1.32.3,2.66.53,4,.74.62.1,1.23.2,1.85.26l1.77.14a1.75,1.75,0,1,0,.3-3.49c-1.16-.1-2.32-.19-3.47-.37s-2.33-.39-3.48-.62a24.57,24.57,0,0,1-3.27-1c-1.18-.46-2.33-1-3.46-1.51a1.22,1.22,0,0,0-.54-.11A1.94,1.94,0,0,0,5.9,90Z"/><path class="cls-1" d="M5.94,103.11a1.77,1.77,0,0,0,.43,2.44,25,25,0,0,0,2.86,1.81,19,19,0,0,0,2.68,1.13,1.75,1.75,0,1,0,1.19-3.29,18.84,18.84,0,0,1-2.36-1c-.82-.47-1.59-1-2.36-1.54a1.74,1.74,0,0,0-1-.31,1.76,1.76,0,0,0-1.44.73Z"/><path class="cls-1" d="M9.52,119.94a1.76,1.76,0,0,0-1.14.71A1.78,1.78,0,0,0,8.09,122a1.73,1.73,0,0,0,.72,1.13l1.95,1.08a13.51,13.51,0,0,0,2.09,1,18.88,18.88,0,0,0,4.58,1,1.75,1.75,0,0,0,1.89-1.59,1.78,1.78,0,0,0-1.6-1.9A17.31,17.31,0,0,1,16,122.5a15.11,15.11,0,0,1-3-1.06l-2.17-1.21a2.1,2.1,0,0,0-1-.32l-.28,0Z"/></g></g></svg>