<svg xmlns="http://www.w3.org/2000/svg" viewBox="0 0 320.19 278.44"><defs><style>.cls-1{fill:#48578e;}.cls-2{fill:#ececec;}.cls-3{fill:#2f345b;}</style></defs><title>terminal</title><g id="Layer_2" data-name="Layer 2"><g id="Draw_Layer" data-name="Draw Layer"><path class="cls-1" d="M19.39,0h-.27a25.92,25.92,0,0,0-3.74.27c-.59.09-1.18.2-1.77.31s-1.32.25-2,.34-1.22.2-1.83.32c-.45.08-.9.17-1.35.24a14.33,14.33,0,0,0-2.68.66,6,6,0,0,0-2.45,1.5A10.52,10.52,0,0,0,2,5.54l-.16.26a2.23,2.23,0,0,0-.24.4,4.81,4.81,0,0,0-.39,1.14c0,.14-.07.28-.11.42C.91,8.23.71,8.7.52,9.18l-.28.66a2.05,2.05,0,0,0-.18,1.41A1.85,1.85,0,0,0,1,12.39a1.87,1.87,0,0,0,.32.15c0,.59,0,1.14.05,1.67l0,.55c0,.8.09,1.6.17,2.4.06,1,0,2,0,2.95v.65c0,.67,0,1.35,0,2,0,.44,0,.89,0,1.34v1.12c0,.51,0,1,0,1.53l0,.39c0,.53-.06,1.06-.07,1.6s0,1.18,0,1.78v.3c0,.59.05,1.19,0,1.79,0,1.11-.07,2.21-.08,3.32,0,.56,0,1.12,0,1.68S1.32,39,1.32,39.67s0,1.6.06,2.4l0,.89v.54c0,1,.07,2.08.13,3.12s0,2.24,0,3.33V50c0,1.08,0,2.15-.05,3.23l0,1.35c0,1.86,0,3.78,0,5.68,0,1.32,0,2.39,0,3.38q0,.63,0,1.23c0,.73-.05,1.46-.05,2.18v1.25c0,.83,0,1.67,0,2.5s0,1.83,0,2.75l0,1.11c0,.55,0,1.12,0,1.68s0,1.12,0,1.67c0,1.23,0,2.24,0,3.18.07,2.08.06,4.19.06,6.24v.63c0,1.5,0,3,.07,4.5L1.54,95c0,.77,0,1.56,0,2.34,0,.4,0,.81,0,1.22,0,.94,0,1.9.09,2.82l0,.72c.05,1,.06,2.06.07,3.06,0,.74,0,1.48,0,2.22s0,1.48,0,2.16c0,.48,0,1,0,1.42s0,.85,0,1.27c0,1.92-.05,3.64,0,5.37,0,1.43.13,3,.31,4.89.09,1.1.15,2.19.22,3.29l0,.44c.07,1,.13,2.11.13,3.16V130c0,1,0,1.9,0,2.85,0,.58,0,1.16,0,1.74s0,1.11,0,1.66.06,1.37.1,2.06.06,1.19.08,1.78c0,1.12,0,2.24,0,3.3,0,.45,0,.9,0,1.35V145c0,.23,0,.45,0,.67s0,.64,0,.95c0,1.15,0,2.29,0,3.43v.36c0,1.06,0,2.15,0,3.23v.14c0,1-.07,2.06-.06,3.08l0,1.52c0,1.63.06,3.33,0,5,0,1,0,2.07,0,3.11,0,.61,0,1.22-.08,1.81,0,.42,0,.84-.06,1.26,0,1.1-.07,2.21-.08,3.31v.7c0,.93,0,1.87,0,2.8L2.4,178c-.06,1.7-.12,3.46-.22,5.19l0,.81c-.11,1.81-.23,3.69-.2,5.54,0,.95.07,1.92.12,2.86l0,.51c.07,1.13,0,2.28,0,3.39v.18c0,.66,0,1.33,0,2,0,.41,0,.81,0,1.22,0,1.51-.05,2.76-.13,3.91l-.09,1.22c-.06.78-.13,1.56-.15,2.34s0,1.6,0,2.39c0,.3,0,.61,0,.92,0,1,0,2,0,3s0,2.24,0,3.36c0,.63.06,1.27.11,1.89,0,.4.06.81.08,1.21.06,1.16,0,2.34,0,3.35-.08,2.14-.19,4.36-.34,6.59,0,.37-.06.75-.1,1.12s-.08.79-.1,1.18c0,.6,0,1.21,0,1.8v1.18c0,.56-.06,1.13-.1,1.7q0,.6,0,1.2v.49a28.82,28.82,0,0,0,.14,2.91c.07,1,.1,1.9.09,2.77,0,.38,0,.76,0,1.14s0,1,0,1.55,0,1.32,0,2l0,.88a29.07,29.07,0,0,0,.15,3c0,.6.08,1.2.12,1.8.06.89.12,1.79.19,2.69a2.29,2.29,0,0,0,0,.25l0,.19c.06.72.08,1.28.09,1.81s0,1-.06,1.46c0,.21,0,.42,0,.63a10,10,0,0,0,.18,2l.06.43.15.93c.06.38.12.75.17,1.13v.26c0,.38,0,.76.1,1.13a9,9,0,0,0,.21.93l.12.46a9.2,9.2,0,0,0,1.16,3.09,4.57,4.57,0,0,0,1.43,1.47l.73.43a5.13,5.13,0,0,0,1.07.46,5.83,5.83,0,0,0,.93.16h.12a4,4,0,0,0,.77.11h0a5.87,5.87,0,0,0,.62,0h.55c.26,0,.53,0,.79-.06a1.1,1.1,0,0,0,.26-.06c.41,0,.76-.06,1.1-.11l.91-.08,1-.11.3,0,.9-.11.61-.08,1,0c.44,0,.88,0,1.32-.06l.69,0c.78,0,1.57.07,2.34.13.5,0,1,.08,1.5.1.72,0,1.44.09,2.16.15l.56,0c.4,0,.8.05,1.21.05a10.34,10.34,0,0,0,1.3-.09l.91-.07h0l.93,0h.8c.22,0,.43,0,.64,0l.22,0,.49.05h.72a13.22,13.22,0,0,1,1.78.16,1.81,1.81,0,0,0,1.3.75c.22,0,.44,0,.67,0h.26a12.08,12.08,0,0,1,1.26.15l.35.06a4.36,4.36,0,0,0,1,.13c.62,0,1.12,0,1.57-.05a8,8,0,0,0,1.46-.28,4.92,4.92,0,0,1,.67-.1l.85.09.58.07a9.87,9.87,0,0,0,1,.05h.53c.55,0,1.1.09,1.63.16l.56.07a17.1,17.1,0,0,0,1.85.09h2.72c.31,0,.61,0,.91-.06l.46,0,1.64,0h.87l1.28,0h.47c.37,0,.74.05,1.11.09l.61.06c.78.07,1.58.14,2.37.14a14.31,14.31,0,0,0,2.62-.22,11.63,11.63,0,0,1,1.71-.18c.5,0,1,.07,1.49.12l.49,0a12.36,12.36,0,0,0,1.3.07,8.64,8.64,0,0,0,.88,0,7.34,7.34,0,0,0,1.06-.19l.56-.11a14.27,14.27,0,0,1,2.34-.22c.5,0,1,0,1.51,0l1.86,0h.52l1.54,0,1,0h.32q.73,0,1.47,0l.8,0c.56,0,1.13.06,1.69.1l1.51.09h.27l1.48,0h.33l.83,0,.68,0c1.48,0,3,.15,4.43.29l.6.06a14.19,14.19,0,0,0,1.51.07c.83,0,1.68,0,2.49-.1.52,0,1-.07,1.55-.08l1.57,0h2.14c.75,0,1.52-.05,2.26-.09l1.18-.06c.64,0,1.28,0,1.92,0l1.41,0c1.24,0,2.5.08,3.76.2l1.35.14c.81.08,1.62.16,2.43.22,1,.07,2,.09,2.92.11l.66,0,2.56,0c1.64,0,3.33,0,5,.15,1,.06,1.92.15,2.88.24,1.62.16,3.3.32,5,.33h1.31c1.39,0,2.46,0,3.45-.11l.6,0c1.21-.09,2.47-.19,3.7-.22.79,0,1.58.06,2.35.11l.29,0c1.26.09,2.24.13,3.18.13,1.18,0,2.38,0,3.54-.07l2.28-.06h4.47l1.42,0,1.45,0h3.33l1.49,0,1.5,0h3.53c.71,0,1.42-.05,2.13-.09l1.29-.07c.89,0,1.8.07,2.68.14l.42,0c1.25.09,2.59.16,4.22.21.94,0,1.87.08,2.8.13,1.51.08,3.07.16,4.6.16H198l1.86-.05,1.44-.05c1.31,0,2.63.08,3.91.15l.88.05,2.9.11,2.78.1c1.23.06,2.54.09,4,.09,2,0,4.09-.06,6.08-.11l1.32,0c.82,0,1.65.06,2.45.11.62,0,1.23.07,1.85.09h.67c.73,0,1.49,0,2.21-.06.51,0,1,0,1.54-.06l2,.05c1.94.05,3.95.1,5.93.1h5l-.12,0,.13,0h.46l1.31,0h1.25c2.77,0,5.71,0,8.6.28,1.69.16,3.2.23,4.61.23h.9c.85,0,1.71-.08,2.54-.13s1.69-.11,2.53-.13c1.05,0,2.1,0,3.15,0l1.27,0H274c1.54,0,2.78,0,3.91.08l1.32.08c.95.06,1.93.12,2.89.12h.63c1.58-.06,3.17-.22,4.72-.38s3.22-.34,4.84-.38H294c.51,0,1,0,1.52,0,1-.05,1.92-.08,2.88-.1s2,0,3,.11c.77.06,1.58.09,2.48.09l1.51,0a26.41,26.41,0,0,0,3-.27l.74-.1c.73-.1,1.49-.2,2.22-.36a7.88,7.88,0,0,0,3-1.28,7.51,7.51,0,0,0,1.82-2,12.38,12.38,0,0,0,1.1-2.09,6.11,6.11,0,0,1,.38-.77l.08-.15a1.12,1.12,0,0,0,.34-.41,4,4,0,0,0,.24-.51c0-.17.07-.33.1-.5l.12-.26.12-.28a1.72,1.72,0,0,0-.11-1.6,17.25,17.25,0,0,0-.1-1.79,27.65,27.65,0,0,1,.23-4.37c.08-.71.15-1.41.2-2.12.07-1,.13-2.06.18-3.1l0-.74c0-.77.08-1.57.09-2.35,0-1.09,0-2.25.11-3.42l.09-1.29c.07-.87.13-1.73.17-2.6,0-.49,0-1,0-1.45,0-.7,0-1.41.06-2.12l0-.25c.07-1.19.15-2.41.19-3.62,0-1.46,0-3,0-4.39,0-1.09,0-2.18,0-3.27,0-1.57,0-3.16-.08-4.69,0-1-.07-2.07-.08-3.11,0-1.48,0-2.69,0-3.81,0-.49,0-1,0-1.45,0-.8.06-1.6.06-2.41,0-.64,0-1.29.05-1.93s.05-1.41.05-2.12c0-1.27.05-2.54.09-3.81l0-1.77.05-1.75c0-1,0-1.94,0-2.89v-.39c0-1.3-.07-2.59-.12-3.89,0-.91-.07-1.82-.1-2.73q0-1.59,0-3.18c0-.68,0-1.38.08-2.06l.06-1.2c0-1.2.05-2.19,0-3.11,0-1.21-.15-2.41-.25-3.42-.17-2.36-.19-4.72-.2-7.34,0-.83,0-1.68.09-2.5l.06-1.09c0-.76.05-1.52.07-2.28,0-.48,0-1,0-1.46.07-2.21,0-4.59-.09-7.71-.07-1.85-.12-3.7-.16-5.55l-.05-2.12v-.23c0-1.12-.06-2.26-.05-3.4,0-.6,0-1.21,0-1.81v-1.21c0-.82,0-1.65-.07-2.46l0-.77c0-.93,0-1.84,0-2.77s.05-1.69.12-2.52l0-.28,0-.53a20.33,20.33,0,0,0,.1-2.35c-.09-2.14-.27-4.31-.46-6.53-.09-1.11-.17-2.2-.18-3.3,0-.68,0-1.35,0-2s0-1.46,0-2.19c0-1.18-.06-2.35-.1-3.53l0-.65c0-.81,0-1.63,0-2.43v-.9c0-1.31-.09-2.64-.19-3.92-.08-1-.16-2-.19-3.08s0-2.11,0-3.18c0-1.27,0-2.59-.05-3.89q-.06-1.27-.15-2.55c-.07-1-.15-2.07-.17-3.1s0-2.08,0-3.09c0-.58,0-1.16,0-1.74,0-3,0-6.94-.43-10.89a9.67,9.67,0,0,1,0-1.5c0-.31,0-.61.07-.92s0-.57.06-.86c.06-1.06,0-2.13,0-3.17v-.83c0-1.07,0-2.18,0-3.27.05-.8.16-1.61.27-2.39,0-.35.09-.7.13-1a27.16,27.16,0,0,0,.15-3.12v-.22c0-1.19,0-2.27,0-3.34,0-.47-.05-1-.08-1.43-.05-.65-.09-1.29-.11-1.94,0-.83,0-1.66-.05-2.49l0-1.25,0-1c0-1.25-.05-2.54,0-3.81,0-.86.07-1.71.11-2.56s.08-1.57.11-2.35c0-.56,0-1.13,0-1.7v-.8q0-1.34.06-2.67c0-.81,0-1.48,0-2.13s-.07-1.32-.13-2c-.06-.9-.11-1.86-.13-2.93l0-1.12c0-.83-.05-1.66,0-2.48v-.26c0-1.83,0-3.72.16-5.58l0-.26a17.89,17.89,0,0,0,.06-2.32,9.22,9.22,0,0,0-.2-1.51c-.09-.44-.18-.87-.25-1.31-.13-.8-.27-1.5-.43-2.14s-.32-1.17-.51-1.74l0-.07a5,5,0,0,0-.22-.58,4.72,4.72,0,0,0-.51-.87,3.64,3.64,0,0,0-1.35-1.09l-.08,0h0A1.85,1.85,0,0,0,313.81,2a2.39,2.39,0,0,0-1-.28h-2.23l-.83,0-.69,0h-.59l-1.2,0h-.15c-.5,0-1,.06-1.49.06h-.14l-.66,0h-1.2l-.52,0c-.32,0-.63,0-1,0h-.26l-1.31,0c-.44,0-.88.06-1.32.09-.62.06-1.27.11-1.9.11h-.55l-1.68,0-1.46,0c-.8,0-1.61,0-2.41,0h-2.73c-.48,0-1,.06-1.43.1l-.58,0c-2,.16-4.06.18-6,.18h-1.06c-.9,0-1.81-.07-2.69-.13l-1.34-.1-1.4,0h-1.46l-.93,0-1.63,0c-.91,0-1.81,0-2.72,0h-.74l-3.34,0-.59,0H262c-.52,0-1,0-1.55,0-.68,0-1.35-.09-2-.14-1.05-.09-2.11-.1-3.14-.1h-1.78c-1.16,0-2.11,0-3,.07-.67,0-1.34.06-2,.09l-2.3.1c-1.75.12-3.09.17-4.35.18H240.6l-1.11,0c-.75,0-1.51,0-2.27,0l-.56,0c-.46,0-.91,0-1.37,0h-2.38l-2.67.05h-1.07c-1.18,0-2.38.08-3.54.14-1.33.07-2.71.15-4.07.15s-2.51,0-3.76,0l-.9,0c-.56,0-1.12,0-1.69,0-.38,0-.77,0-1.15,0s-1-.09-1.49-.14l-.52-.06c-.7-.08-1.39-.13-2.09-.18h-.16c-.55,0-1.14-.05-1.83-.05s-1.24,0-1.86,0h-1.36c-1.25,0-2.52-.06-3.75-.11s-2.5-.1-3.76-.1-2.76,0-4.19-.15-2.66-.1-4.14-.1h-.53l-2.19,0c-.67,0-1.34,0-2,0h-.73c-1,0-2.23,0-3.51-.08-1.07-.05-2.15-.08-3.22-.11l-1.19,0c-1.48,0-2.81-.07-4-.07s-2.39,0-3.59.06-2.39.06-3.59.06H163c-1.2,0-2.46-.1-4.11-.22l-.77-.05c-1.12-.09-2.28-.18-3.43-.18h-4.29c-1.17,0-2.37.05-3.53.08l-.71,0c-.54,0-1.09,0-1.63.07-.83,0-1.66.07-2.5.08h-2.92l-1.18,0L136,1.84c-.73,0-1.47.08-2.2.1l-1.11,0h-1.1l-1,0-1,0-1.2,0c-1,0-2.07.06-3.1.06s-2.36.07-3.52.14l-1,.05c-1.78.1-3.71.14-6.06.14h-2.52c-1,0-2,0-2.91-.1l-1,0-.89,0L106,2.21h-.71c-.57,0-1.15,0-1.72,0-1.1,0-2.2,0-3.3,0h-.86l-1.06,0c-.38,0-.75,0-1.13,0H95.36c-.73,0-1.47-.05-2.2-.09s-1.3-.08-2-.1C90.13,2,89.05,2,88,2H86.65c-1.28,0-2.58.08-3.83.14l-.36,0c-.33,0-.65,0-1,0s-.83,0-1.24,0c-.68-.05-1.38-.1-2.08-.1h-1.9L75.08,2,73.91,2H72.14c-.69,0-1.37,0-2.06,0s-1.23-.06-1.84-.1l-.27,0c-.27,0-.54,0-.82,0h-5.8c-.79,0-1.6,0-2.4,0l-2.08-.09c-.7,0-1.39-.05-2.08-.09-1.17-.05-2.34-.13-3.51-.21l-.71,0L49.4,1.25c-1-.07-2.09-.14-3.14-.19C45.52,1,44.78,1,44,1H42.13c-1.36,0-2.72,0-4.08,0l-1,0-.91,0h-.3c-.49,0-1,0-1.46-.05L31.59.86,30.48.78,27.39.55C25.72.43,24,.3,22.37.16L21.68.1,20.76,0c-.28,0-.57,0-.85,0Zm5.77,255.13H25l-1-.08h-.22l-.24,0c-.1-.58-.2-1.18-.28-1.78A23.18,23.18,0,0,1,23,250c0-.47,0-.94.08-1.47a16.61,16.61,0,0,0,.07-1.88c0-.89-.06-1.77-.1-2.65l0-1,0-.52a27.42,27.42,0,0,1-.05-2.93l.05-.85v-.09c.06-.88.11-1.83.13-2.78s0-1.68-.1-2.68l-.05-.83c-.15-2.74-.17-5.09-.08-7.18.06-1.19,0-2.41,0-3.56v-1.1c0-.83,0-1.66-.07-2.48-.06-1.38-.19-2.82-.3-4.1l0-.11v-.26c-.1-1-.19-2.05-.26-3.07a26,26,0,0,1,0-3.39l.06-.94,0-.37,0-.55c0-.45,0-.91,0-1.36v-.46c0-1.45,0-2.77-.05-3.94,0-.62-.06-1.24-.1-1.87v-.21l0-.23c0-.5-.07-1-.1-1.5,0-.69,0-1.38-.06-2.08v-.21L22,192c0-1.37-.09-2.73-.16-4.1-.09-2.27-.18-4.7-.11-7.25,0-.59.05-1.19.08-1.78l0-.3c0-.44.05-.87.06-1.31.05-1.23.05-2.48,0-3.84,0-.93,0-1.86-.07-2.79,0-1.6-.08-3.19-.13-4.79l0-1.08c0-.8,0-1.59-.08-2.39,0-.46,0-.92-.07-1.38v-.26c0-.68-.08-1.36-.1-2l0-1.24v-.38c-.05-1.94-.09-3.82-.06-5.66.05-2.59-.09-5.12-.23-7.56v-.37c-.11-2.15-.24-4.58-.21-7,0-1.46.11-2.94.2-4.43.06-1,.12-2,.16-3s.06-2.36,0-3.77c0-1.21,0-2.39,0-3.7l.05-2.17v-.63c0-1.46,0-2.91.06-4.36,0-1.14,0-2.28-.09-3.35V111l0-.38c-.06-1.26-.06-2.44-.06-3.76,0-.95,0-1.91,0-2.86V103c0-1.12,0-2.42,0-3.65l0-2,0-.69c0-1.59.07-3.19.08-4.79l0-1.49,0-2c0-.52,0-1,0-1.6v-.54c0-.57,0-1.15,0-1.72,0-1.82.06-3.8.1-5.39v-.1l0-.4v-.19l0-1.37v-.51l0-.53c0-.88.05-1.76.06-2.65,0-1.25,0-2.52,0-3.82-.06-1.94,0-4,0-5.64v-.24l0-1.35c0-1.52,0-3,0-4.64,0-.89,0-1.79,0-2.68q0-1.74,0-3.48c0-1.15,0-2.32.09-3.58.09-1.56.17-3.2.22-5,0-.81,0-1.61.05-2.42l0-.45c0-.57,0-1.14,0-1.71,0-.36.05-.72.08-1.09s.05-.51.06-.76a15.45,15.45,0,0,0,0-2.26c0-.17,0-.34-.05-.5l0-.19v-.11A10.47,10.47,0,0,1,22,32.18,18.37,18.37,0,0,1,22.1,30l.12-.88.2-1.43,0-.24a7.73,7.73,0,0,0,.12-1.17,8.05,8.05,0,0,0-.23-1.84,18,18,0,0,1,.16-2.95l0-.05c2.18.19,4.73.36,7.58.51l.3,0c1.61.1,2.92.15,4,.15h.21c1.46,0,2.86-.06,4-.12.53,0,1.06,0,1.6,0l1.34,0h1.32l4.24.05h4.21c1,0,2-.06,3-.09l.37,0,1.06,0c.65,0,1.29-.06,1.94-.09s1.54-.09,2.32-.11c1.44,0,2.88-.06,4.32-.06l2.41,0H70c.94,0,1.89,0,2.83-.05s2,0,3.11,0c1.42,0,2.83,0,4.21.06h1.12c1,0,2,0,3,0h.6c1.59,0,3.24,0,4.85.07h.48c2.27.09,4.62.19,7,.19h1.18l4.46-.07,2-.09h.27l.48,0h.08l.41,0,.39,0,.42,0c.54,0,1.13-.05,1.81-.05l1.6,0h.93c1.43,0,2.86.07,4.28.12s2.83.07,4.62.07c1.51,0,2.9,0,4.14-.06s2.48-.06,3.61-.06c1.64,0,3.39,0,5.2.12l.5,0h.34c.83,0,2.08.1,3.29.1h.56c1.38,0,2.63,0,3.82-.06,1.53-.05,2.76-.07,3.88-.07s2.67,0,4.74.07h.51l.5,0h.5l.5,0c1.16,0,2.69.09,4.19.09.69,0,1.38,0,2.07,0l2.43-.1H161l2-.08c.65,0,1.3,0,1.94,0s1.54,0,2.3,0c1.16,0,2.3.09,3.68.17h.57c1.44.1,2.74.18,4.14.2l2.46.06h.64c1.62,0,2.91.06,4.06.06h2.1c.85,0,1.71,0,2.56.05l.7,0,4.18.08h.62l3.65.06c.74,0,1.49.07,2.29.12h.11l1.61.11c1,.05,2,.07,3.05.1l1.33,0c.47,0,1,0,1.42,0h2.9c1.82,0,3.62.09,5.37.17h.13q1.53.08,3.06.12l.93,0c1.06,0,2,.07,2.81.07h.5c1.51,0,3,0,4.6-.08H227l.89,0h.34l.43,0h.51c.55,0,1.1,0,1.65.05,1.4.09,2.8.17,4.2.23l1.48.05.23,0c1.54.06,4.12.16,6.47.17H248c1.29,0,2.46,0,3.69.09,2.75.17,5.29.27,7.75.29,1.42,0,2.84.06,4.25.1l.68,0,1.41,0h.49c.87,0,1.76,0,2.63.07.64,0,1.28.08,2,.14s1.61.13,2.41.17H274a17.92,17.92,0,0,0,2.09-.12l.79-.12.12,0,.12,0,.1,0,.79-.13c.81-.06,1.44-.09,2-.09h.52l.7,0h.21c.55,0,1.11,0,1.66,0l1.21,0,1,0h.1c.58,0,1.17,0,1.8.08h.38l.26,0,.23,0,.27,0,.21,0c.45,0,1,.08,1.58.08h.16l.74,0,.41,0h.32c.32,0,.64,0,.95,0,.74,0,1.51.07,2.37.08a5,5,0,0,1,.67.05l.36,0a.31.31,0,0,1,.16.06l0,.52,0,.42c0,.6,0,1.19,0,1.76v.11c0,.43,0,.87,0,1.31,0,1.36.08,2.59.16,3.76v.28c.07,1,.14,2.11.13,3.17s0,2.31,0,3.57l0,.61,0,.58c0,.74.06,1.48.08,2.22,0,.94-.05,1.91-.12,2.94v.22l0,.36a24.49,24.49,0,0,0,0,3.54l.08,1.6,0,.54,0,.4,0,.39c0,.27,0,.53.05.81l.06,1c.06.82.11,1.65.15,2.48s0,1.72,0,2.55v4.38a24.35,24.35,0,0,0,.18,3l.06.72.12,1.27v.27a53.13,53.13,0,0,1,.31,5.58v1.07c0,.73,0,1.55,0,2.34,0,1.17.06,2.36.1,3.6,0,1.45.05,2.69,0,3.82,0,.76-.05,1.53-.09,2.35v.25l0,1v.19c0,1-.09,2.11-.08,3.21s0,2.4.06,3.6c0,.72,0,1.43,0,2.28l0,1.27c0,1.05,0,2.15,0,3v.54c0,.65,0,1.29.07,1.94,0,.25,0,.5.05.75s0,.62,0,.94v.1c0,1.44.07,2.48.07,3.6s0,2-.06,3v1.09c0,1,0,1.92,0,2.88,0,.73.05,1.51.1,2.24v.31c0,.32,0,.63,0,.94l0,.71v.55c0,.68.06,1.49.06,2.26s0,1.28-.06,2v.39c0,.38,0,.75-.05,1.12-.05,1.05-.07,2.25,0,3.67,0,.82,0,1.64.07,2.48v.65c.06,1.41.1,2.79.09,4.13,0,2.26,0,4.52,0,6.79v.57c0,1.9-.06,3.9-.11,5.83v1.23c0,.82-.06,1.63-.1,2.45l-.06,1.32c-.06,1.07-.07,2.27-.06,3.75V162c0,1,0,2,0,2.94,0,.75,0,1.5-.07,2.25l0,.34c0,.35,0,.7,0,1.05-.06,1.58,0,3.11,0,4.6v.4c0,.69,0,1.38,0,2.06,0,1.4-.05,2.85-.1,4v.65l0,.66v.71c0,.18,0,.37,0,.56a34.72,34.72,0,0,0,0,3.57c.07,1.27.1,2.5.08,3.66-.05,1.76-.18,3.53-.31,5-.05.54-.09,1.08-.13,1.63,0,.37,0,.74,0,1.12v.6c0,.85,0,1.71-.05,2.56l0,.85c0,1.05-.07,2.1-.1,3.15l0,.65c0,1.07-.07,2.14-.1,3.2l-.06,3c0,1.44-.05,2.88-.1,4.32,0,.93-.11,1.89-.18,2.9v.32c-.09,1.19-.19,2.42-.22,3.69s-.06,2.54-.13,3.86a30,30,0,0,0,0,3.8c0,.77.06,1.57.07,2.38v1.25c0,1.29-.06,2.57-.13,3.64l-.09.81a31.46,31.46,0,0,0-.23,3.3,17,17,0,0,0,.11,2c0,.24.07.48.11.72l.05.35a8.79,8.79,0,0,1,.07,1.26c0,.5,0,1,0,1.5l0,.9a8.18,8.18,0,0,0,.06,1.22l.06.8c0,.57,0,1.14,0,1.74v1c0,.25,0,.5,0,.74l-.06.47-.18,1.42-.12.88-.63,0-.67,0c-1,0-2.07-.09-3.24-.18l-.27,0-.28,0-1.46-.1c-1.87-.09-3.59-.12-6-.16-1,0-1.89-.09-2.66-.18s-1.59-.19-2.8-.29c-1.38-.11-2.87-.17-4.55-.17l-1.79,0h-1.56c-1.1,0-2.2,0-3.31,0l-1.74.05h-.38l-2.62.06h-.13c-1.06,0-2.25,0-3.52-.05l-1.16,0h-.35l-.44,0c-.37,0-.73,0-1.11-.08h-.12l-.23,0h-.09l-.35,0c-2.11-.18-4.46-.26-7-.26H244c-1.1,0-2,0-2.82.06l-.55,0c-1.85.09-3.16.16-4.54.18-.85,0-1.73,0-2.5-.05h-.78c-.79,0-1.58-.06-2.37-.07l-1.12,0-1.86,0c-.81,0-1.63,0-2.49,0l-1.13,0h-.73l-3.06,0-.14,0h-.1l-.07.06h-3.38c-1,0-2,0-3-.05H213c-.85,0-1.7,0-2.59,0l-1.58,0h-6.61q-1,0-2,0l-1.81.08h-.3l-2,.08c-1.34,0-2.68.11-3.82.18-2.6.16-5.16.3-7.71.33h-3.34l-2.46,0h-1c-1.09,0-2.11.06-3.52.13h-.09l-1.27.06-2.06.12h-.3c-.88.06-1.79.1-2.68.13l-3.2,0h-.42c-1.59,0-3.19,0-4.78-.05h-1c-.84,0-1.69,0-2.54,0l-1.78,0h-.84c-1.54,0-2.78,0-3.79.09-1.52.07-3.13.14-4.73.18l-2.81-.07-.67,0-1.37,0h-.4l-1.21,0H138l-.94,0-.68,0-2,0h-6.1c-.57,0-1.13,0-1.69,0-.8,0-1.6-.1-2.37-.16h-.33l-.24,0-.36,0c-1.71-.15-3.83-.33-5.87-.34-1.81,0-3.67-.09-5.46-.18h-.3l-.38,0c-.64,0-1.38-.05-2.34-.05l-2.47,0H106c-1.16,0-2.44-.05-3.26-.08h-.7c-.79,0-1.57-.06-2.36-.07H98c-.74,0-1.32,0-1.82,0l-.25,0-.27,0c-.82.06-1.65.12-2.48.15-1.35,0-3,0-4.58-.13-1-.06-2.08-.1-3.18-.1l-1.71,0c-2.06,0-3.85,0-5.63-.08l-2-.07c-1.18,0-2.34-.1-3.52-.1h-.12c-1.14,0-2.27-.06-3.36-.12h-.17l-2-.09q-.78,0-1.56,0l-1.73,0c-.39,0-.78,0-1.16,0h-.73l-.33,0c-.51,0-1,0-1.53-.08h-.07l-.22,0h-.33c-.59,0-1.17-.09-1.76-.12H57c-.69,0-1.39.05-2.13.09-.4,0-.81.06-1.21.07-1.59,0-3.3-.18-4.54-.28H49l-.14,0h-.2l-.2,0H48.3c-.61,0-1.23-.1-1.84-.13l-.83,0-1.07,0h-.51c-.64,0-1.31,0-1.95-.1h-.54l-.8-.06c-.43,0-.92-.06-1.41-.06h-.49c-.52,0-1.07.09-1.63.16l-.14,0-.27,0c-.44.06-.88.11-1.33.15s-.85,0-1.27.06H33.5A14.51,14.51,0,0,0,32,255h-.43c-.48.05-.94.1-1.41.11H28.24l-.89,0h-.1l-.66,0c-.48,0-.94-.05-1.43-.08Z"/><path class="cls-1" d="M2.69,254.79A2,2,0,0,0,2,256a7.26,7.26,0,0,0-.2,1.8c0,.27,0,.54,0,.81a4.82,4.82,0,0,0,.17,1.12c.08.29.18.58.27.87a7.68,7.68,0,0,1,.1,1.27c0-.16,0-.32,0-.48,0,.26,0,.52,0,.78s0,.38,0,.56v-.24c0,.32-.08.61-.08.94v.25a1.51,1.51,0,0,0,.05.42v.05a4,4,0,0,0,0,.78v.26a2.22,2.22,0,0,0,.06.44.77.77,0,0,1,0,.15c0,.1,0,.19,0,.29a.55.55,0,0,1,0,.17,2.2,2.2,0,0,0,0,.36c0,.25,0,.51,0,.77a2.52,2.52,0,0,0,.05.37c0,.12,0,.23,0,.35a1.5,1.5,0,0,0,.09.46c0,.19,0,.38,0,.57a6.37,6.37,0,0,0,.2.75v0a8,8,0,0,0,0,1,4.9,4.9,0,0,0,.41,1.4,8.69,8.69,0,0,0,.67,1.41c.12.21.31.36.44.55a1.92,1.92,0,0,0,.29.45l.41.41a2.57,2.57,0,0,0,1,.75,2.85,2.85,0,0,0,.55.16,12.49,12.49,0,0,0,1.76.67c.27.06.56.09.83.13l.38,0a2.28,2.28,0,0,0,.64,0h1.19c.27,0,.55-.07.82-.08.53,0,1,0,1.58,0,.3,0,.59-.07.89-.09s.7,0,1,0h-.23c.31,0,.62,0,.93,0s.37-.05.55-.06l.54,0c.45,0,.9.13,1.35.17s1.17.12,1.77.14l-.49,0,1.24.06-.49,0c.6,0,1.19.07,1.79.09h-.48l1.43.07h-.15c.69,0,1.38.1,2.07.13h.24l1.43.05h-.31l1.16,0h-.48l1,0,1.21,0h.57l1.72.05h.75c.27,0,.54,0,.81,0h.26c.68,0,1.35.09,2,.11h-.3c.79,0,1.58.11,2.37.11h2l.63,0c.6,0,1.2,0,1.8,0s1,0,1.58,0c1.07.05,2.14.15,3.21.18h.46c.63,0,1.26.06,1.88.07s1,0,1.49-.06c.31,0,.62,0,.92,0h.6c.56,0,1.11,0,1.65,0h0l.79,0-.48,0a32.73,32.73,0,0,0,4-.1c.78-.06,1.57-.08,2.36-.11s1.45-.06,2.17-.05c1.07.07,2.15.13,3.23.11l1.44-.06H69c1,0,2,0,2.93,0s1.76-.05,2.65,0c.71,0,1.42.12,2.13.17.91.05,1.81.06,2.71.09l.6,0h-.1c.81,0,1.62.1,2.43.13h.06c1.15,0,2.3,0,3.46,0h2.25c.9,0,1.78,0,2.67-.08s1.79-.06,2.69,0h.64c2.11.08,4.22.09,6.34.08,2.32,0,4.65-.14,7-.09,1.45.08,2.89.19,4.34.27.93.05,1.86.06,2.78.08.39,0,.78,0,1.17,0s.88,0,1.33,0h-.49l1.66.05c.8,0,1.6.05,2.41.05H123c1.36.06,2.73.12,4.09.12h2c.67,0,1.34-.06,2-.08,1.34,0,2.67,0,4-.06s2.55,0,3.83,0l1,0c.84,0,1.67.05,2.5.07l1.1,0c1.09,0,2.18.06,3.27.07s2.4-.08,3.6-.12c.89,0,1.78-.11,2.67-.12,1.21,0,2.41,0,3.62.06h0c1,0,2.05,0,3.07,0,.57,0,1.14-.06,1.71-.08s1,0,1.51,0c.92,0,1.84,0,2.77,0s1.89-.05,2.83,0h-.14l1.77,0c1.3.07,2.6.23,3.91.2.71,0,1.41-.11,2.11-.17l2.34-.2c.75-.05,1.51-.09,2.26-.12s1.52-.14,2.28-.24,1.31-.21,2-.31a13.28,13.28,0,0,1,2-.11,11.84,11.84,0,0,0,2.79-.1,2.2,2.2,0,0,0,1.77-1.19,1.92,1.92,0,0,0,.15-1.05c.48-.06,1-.1,1.46-.14.72,0,1.43,0,2.15-.12s1.43-.27,2.14-.43l.49-.12a1.81,1.81,0,0,0,.79-.57,1.85,1.85,0,0,0-.28-2.62,1.79,1.79,0,0,0-1.35-.41c-.61.14-1.22.28-1.84.38a17.21,17.21,0,0,1-1.89.16c-.63,0-1.25.06-1.88.13s-1.13.17-1.7.25c-1.14.16-2.29.24-3.44.38a22.5,22.5,0,0,1-3.18.28c-.51,0-1-.07-1.54-.08a2,2,0,0,0-.8.18,1.9,1.9,0,0,0-1.21,1.46,1.94,1.94,0,0,0,0,.59c-1.13.06-2.25.18-3.37.25s-2.15.22-3.24.21c-.68,0-1.36-.14-2-.16-.86,0-1.73-.05-2.59-.07h.2c-1,0-1.94,0-2.92,0h-2.76l-1.41,0c-.54,0-1.1,0-1.64.07-1.08.06-2.16,0-3.24,0s-2.34-.08-3.5-.07c-.85,0-1.7.07-2.54.11-2.22.11-4.43.16-6.64.09l-1.54-.05.49,0c-.75,0-1.5,0-2.26-.06l-1.24,0c-1.26-.05-2.53-.05-3.79-.05s-2.4.06-3.6,0-2.59.11-3.88.12c-1.11,0-2.22,0-3.33,0s-2.21-.11-3.32-.1c-.78,0-1.57,0-2.35,0l-2.15-.07.48,0c-.91,0-1.82,0-2.73,0-.71,0-1.41,0-2.11,0-1.54-.09-3.08-.2-4.63-.28-1.74-.09-3.47,0-5.21,0-2.77.07-5.56.06-8.33,0l-1.07,0h.29c-.93,0-1.86,0-2.79,0s-1.74.1-2.62.11h-3c-.9,0-1.81,0-2.71,0h-.21c-.81,0-1.62-.11-2.44-.14l.49,0L78.07,274c-1-.06-2.07-.17-3.1-.22-1.23-.05-2.45,0-3.68,0-1.07,0-2.15,0-3.22,0-.65,0-1.29,0-1.95,0s-1.09.05-1.63,0c-.9,0-1.8-.12-2.7-.11s-1.9,0-2.84.1c-1.48.09-3,.19-4.45.18H51.09c-.43,0-.86,0-1.3,0s-.85,0-1.28,0l-1.46-.06-.56,0c-1.06-.05-2.12-.16-3.17-.18-.46,0-.91,0-1.36,0s-.87,0-1.3,0l-.83,0H40c-.7,0-1.41,0-2.11,0h-.58c-.67,0-1.34-.08-2-.1l.48,0c-.83-.05-1.66-.12-2.5-.14l.49,0c-.63,0-1.26,0-1.88,0H30.17l-1.75-.05-.66,0,.48,0-1.54,0h.11l-.85,0-.65,0c-.66,0-1.32-.1-2-.13h.27l-1.75-.08h.48c-.53,0-1.07-.07-1.61-.09l-.89,0,.48,0-1.4-.14c-.3,0-.59-.08-.88-.13a6.34,6.34,0,0,0-1.07-.05,4.6,4.6,0,0,0-.83,0,8.07,8.07,0,0,1-1,.07l.48,0c-.43,0-.83,0-1.26,0a4.75,4.75,0,0,0-.84.06,7.53,7.53,0,0,1-1.06.05h-.1a5.53,5.53,0,0,0-1.15,0,6.7,6.7,0,0,1-.77.08h-.11a5.67,5.67,0,0,0-.71,0l-.11,0c-.27,0-.53-.08-.79-.13l-.61-.28a6.1,6.1,0,0,0-.82-.28l0,0a1,1,0,0,1-.09-.13A2.2,2.2,0,0,0,7,272l-.17-.18-.17-.24a11.64,11.64,0,0,1-.44-1.11.86.86,0,0,1,0-.16,3,3,0,0,0,0-.89c0-.26-.12-.52-.19-.77v-.32a2.82,2.82,0,0,0-.1-.58,3.09,3.09,0,0,0,0-.43,2.34,2.34,0,0,0,0-.26v0a6.39,6.39,0,0,0,.09-.75,6.17,6.17,0,0,0,0-.75,2.52,2.52,0,0,0-.08-.54,2.62,2.62,0,0,1,0-.28c0-.07,0-.13,0-.2a3.25,3.25,0,0,0,0-1.05h0l0,.1a.77.77,0,0,1,0-.15c0-.23,0-.46.06-.7V263a10.85,10.85,0,0,0,0-1.27c0,.16,0,.32,0,.48a9.87,9.87,0,0,0,0-1.72,10.43,10.43,0,0,0-.45-1.77,4.67,4.67,0,0,1,0-.52c0-.1,0-.2,0-.29a5.89,5.89,0,0,1,.18-1.26,1.82,1.82,0,0,0-.33-1.41,1.92,1.92,0,0,0-1.2-.74,1.51,1.51,0,0,0-.3,0,1.84,1.84,0,0,0-1.11.36Zm3.15,8.49,0,.12h0l0-.13Zm.07,4.31v0Zm87.69,6.52h0Z"/><path class="cls-2" d="M41.66,40.17a1.18,1.18,0,0,0-.68.25c0,.54,0,1.08,0,1.65a16.67,16.67,0,0,1-.1,2.4,13.61,13.61,0,0,0,0,1.44v.17l0,.72c0,.46,0,.92.07,1.41,0,.16,0,.33,0,.55a7.89,7.89,0,0,1,0,1.09,19.82,19.82,0,0,0,.11,2.73l.09,0c1,.35,1.88.75,2.81,1.17a22.41,22.41,0,0,1,2.48,1.36l.14.08a24.84,24.84,0,0,0,5,2.08l.76.25c.67.25,1.39.54,2.2.9l.25.11.91.38c.33.14.67.26,1,.37l.14,0,.21.05c.93.34,1.88.65,2.7.92l.09,0,.2.07.68.22.69.23,1.21.38.08,0,1.28.4c.33.11.68.21,1,.3l.14,0,.15,0,1.1.32.5.2.13,0,.09,0,.61.24.11,0,.07,0h.05l-.65.3-3.11,1.43-.48.21c-.7.32-1.58.7-2.39,1.14l-.65.35-.16.09c-.53.29-1.05.58-1.58.85l-1.88.86-.13,0L57,68.4l-.24.11c-.67.3-1.47.66-2.21,1L53,70.32l-.46.23c-.55.26-1.1.49-1.69.73l-.11,0-.92.39c-.58.25-1.18.56-1.71.83l-.09,0-.75.38c-.37.17-.74.32-1.12.48l-.78.33a5.66,5.66,0,0,1-.72.28l-.09,0-.55.2-.23.1-.16.06-.09,0-.08,0-.12,0-.41,0h-.08a1.63,1.63,0,0,0-.36,0l0,.21.09.76c0,.28,0,.56.05.85l0,.39,0,.46a20.48,20.48,0,0,1,0,2.5c-.06.79-.06,1.57-.06,2.44v.74a5.91,5.91,0,0,0,0,.84v.1c0,.24,0,.49,0,.74,0,.41,0,.83.08,1.28l0,.27c0,.59.09,1.17.12,1.76v.2l0,.47,0,.72a1.09,1.09,0,0,1,0,.18,12.68,12.68,0,0,0,2-.72l.47-.23.18-.1.13-.06.13-.07.1,0,.7-.36c.38-.19.8-.35,1.22-.52l.45-.18c.63-.26,1.3-.56,2-.9s1.17-.6,1.75-.92l.08,0c.55-.3,1.29-.69,2-1s1.66-.69,2.36-.94l.17-.07c.54-.19,1.07-.39,1.6-.61s1-.48,1.5-.73l.13-.06.08-.05.14-.07c.65-.34,1.32-.66,2-1,1.21-.57,2.42-1,3.86-1.62.68-.26,1.36-.57,1.91-.83l.1,0,.09,0,.09,0,.21-.1.09,0c.38-.17.76-.34,1.14-.49s.83-.34,1.24-.49l.1,0,.26-.1c1-.36,1.75-.66,2.51-1,1-.49,2.13-1,3.33-1.47l.82-.34c.82-.33,1.67-.69,2.48-1.06l.65-.3.14-.07c.4-.19.79-.37,1.2-.54l.7-.29.2-.08.91-.36c.33-.14.63-.3.95-.45l.19-.1.07,0a4.81,4.81,0,0,1,.88-.47.25.25,0,0,1,.12,0h0l.21-.08.14,0,.17-.1.3-.17a7.06,7.06,0,0,1,.72-.4l.09,0h0l-.12.06.09-.05-.1,0a8.1,8.1,0,0,0,1.27-.81c0-.23,0-.47,0-.72s0-.24,0-.36v-.53a5.83,5.83,0,0,0-.08-.83V66.2c-.1-.67-.13-1.33-.17-2V64c0-.24,0-.49,0-.77s0-.72,0-1.08a.5.5,0,0,1,0-.12v0l0,.08V62l0,.05,0-.35c0-.2,0-.42,0-.65a5.17,5.17,0,0,0,0-.54c0-.29-.08-.57-.13-.85v-.08l0-.27a1.74,1.74,0,0,0,0-.47,1.41,1.41,0,0,0-.49-1,4.88,4.88,0,0,0-.77-.46L87,57.15l-.18-.06a1.73,1.73,0,0,0-.32-.11l-.54-.18a24.47,24.47,0,0,1-2.5-1.17l-1.08-.55c-.42-.2-.87-.37-1.32-.55l-.09,0-.36-.13c-.7-.28-1.42-.53-2.14-.78l-.14,0c-.25-.1-.5-.19-.76-.27-2.55-.95-5.15-2-7.74-3.25l-.11,0c-.68-.31-1.3-.6-1.93-.85l-1.31-.5-.81-.3c-.29-.11-.58-.24-.87-.36l-.15-.06-.09,0-.84-.35c-.73-.3-1.46-.56-2.23-.82l-.54-.18-.13,0C59.59,46,58.42,45.56,57,45c-1.16-.46-2.32-.86-3.46-1.24l-.09,0-.79-.27-1.8-.66-.2-.08-1.28-.47c-.66-.24-1.35-.44-2-.64l-.22-.06c-.53-.15-1.07-.31-1.6-.48s-.86-.31-1.28-.48a8.47,8.47,0,0,0-1-.32,3.23,3.23,0,0,0-.93-.12c-.24,0-.47,0-.71,0Z"/><path class="cls-2" d="M99.83,90l-.55,0c-.48,0-1,0-1.46,0-.79,0-1.58,0-2.37-.06l-1.3,0H93.9c-.56,0-1.13,0-1.69,0h-.58c-.5,0-1,0-1.52-.08h-.22l-1.16-.06h-.38l-.58,0-.11,0h0v1.93c0,.38,0,.75,0,1.12v.29c0,.23,0,.45,0,.68,0,.53,0,1,0,1.58v.13c0,.44,0,.89,0,1.33,0,.11,0,.22,0,.33h0v0l0,0c0,.41,0,.83,0,1.24v.3l0,.58c0,.19,0,.38,0,.57a12.18,12.18,0,0,1,0,1.35l0,.39c0,.18,0,.35,0,.53l0,.51c0,.25,0,.49,0,.73v.25h6.09l2.79.11.57,0,1.54,0,1.49.12h.27l.62,0c.65.06,1.25.06,1.77.06h1.35c.47,0,.9,0,1.32,0h.19l1.45,0c.88,0,1.76,0,2.64.05l1.34.09h.21c.82.06,1.55.1,2.28.11l1.57,0c.81,0,1.62,0,2.42,0h1.15l.84,0,.52,0c.52,0,1,0,1.55-.06h1c.8,0,1.71,0,2.79.06.89,0,1.77,0,2.67.05q1,0,2,0h.65c.65,0,1.16,0,1.58-.06,0-.58.06-1.16.08-1.74v-.35c0-.45.05-.9.08-1.36v-.15c0-.32.05-.63.06-1,0-.74.07-1.47.12-2.22.07-1.34.15-2.73.15-4.1,0-.63,0-1.28-.05-1.9v-.23a5.67,5.67,0,0,1,0-.71l-1.16,0H131l-1.56,0h-.83c-.53,0-1,0-1.58-.09s-1.09-.07-1.63-.08h-.58c-1.12,0-2.28,0-3.42-.09l-.76,0-.39,0c-.54,0-1.08-.08-1.62-.1H117l-1.15,0-1.16,0-2.55,0L111,90h-1l-1.16,0h-.77l-.86,0-.66,0h-.9l-1.39,0-.61,0h-.19l-.6,0c-1,0-2.07,0-3,.1Z"/><path class="cls-3" d="M22.54,21.4l0,.05a18,18,0,0,0-.16,2.95,8.05,8.05,0,0,1,.23,1.84,9.11,9.11,0,0,1-.11,1.17l0,.24-.2,1.43L22.1,30A18.37,18.37,0,0,0,22,32.18,12.74,12.74,0,0,0,22,33.46v.11l0,.19c0,.17,0,.33,0,.5a15.45,15.45,0,0,1,0,2.26c0,.25,0,.5-.06.76S22,38,22,38.37c0,.57,0,1.14-.05,1.71v.45c0,.81,0,1.61-.06,2.42-.05,1.83-.13,3.47-.22,5-.07,1.26-.1,2.43-.09,3.58s0,2.32,0,3.48c0,.89,0,1.79,0,2.68,0,1.61,0,3.12,0,4.64l0,1.34V64c0,1.65-.05,3.7,0,5.64,0,1.3.08,2.57,0,3.82,0,.89,0,1.77-.06,2.65v.53l0,.51,0,1.37v.69c0,1.59-.1,3.57-.1,5.39,0,.57,0,1.15,0,1.72v.54c0,.57,0,1.08,0,1.6l0,2,0,1.49c0,1.6-.05,3.2-.08,4.79v.69l-.05,2c0,1.23,0,2.53,0,3.65V104c0,1,0,1.91,0,2.86,0,1.31,0,2.5.06,3.76l0,.38v.18c.05,1.07.1,2.21.09,3.35q0,2.17-.06,4.35v.64l0,2.17c0,1.31,0,2.49,0,3.7,0,1.41,0,2.65,0,3.77s-.1,2-.16,3c-.09,1.49-.18,3-.2,4.43,0,2.38.1,4.81.21,7v.37c.13,2.44.27,5,.22,7.56,0,1.84,0,3.73.06,5.66v.38l0,1.24c0,.68,0,1.36.09,2.05V161c0,.47.05.92.07,1.38,0,.8.06,1.59.08,2.39l0,1.08c.05,1.6.09,3.19.13,4.79,0,.93.05,1.86.07,2.79.05,1.36.05,2.61,0,3.84,0,.44,0,.87-.06,1.31l0,.3c0,.59-.06,1.19-.08,1.78-.07,2.55,0,5,.12,7.25.06,1.37.11,2.73.15,4.1l0,1.33v.21c0,.7,0,1.39.07,2.08q0,.75.09,1.5l0,.23v.21c0,.63.08,1.25.1,1.87,0,1.17.06,2.5.05,3.94v.46c0,.45,0,.91,0,1.36l0,.55,0,.37-.06.94a26,26,0,0,0,0,3.39c.07,1,.16,2.05.26,3.07v.37c.11,1.28.24,2.72.3,4.1,0,.82.06,1.65.07,2.48v1.1c0,1.15,0,2.37,0,3.56-.09,2.09-.07,4.44.08,7.18l.06.83c.06,1,.11,1.84.09,2.68s-.07,1.9-.13,2.78v.09l-.05.85a27.63,27.63,0,0,0,0,2.93l0,.52,0,1c0,.88.08,1.76.1,2.65a16.61,16.61,0,0,1-.07,1.88c0,.53-.07,1-.08,1.47a23.18,23.18,0,0,0,.18,3.18c.09.6.18,1.2.28,1.78l.24,0H24l1,.07h.19c.49,0,1,.07,1.43.07h.76l.89,0h1.92c.47,0,.93-.06,1.41-.11h.12l.11,0h.09l.11,0c.56-.06,1-.11,1.51-.12h.71c.42,0,.85,0,1.27-.05s.89-.09,1.33-.15l.27,0h.14c.56-.07,1.11-.14,1.63-.16h.49c.49,0,1,0,1.41.06l.8.06h.54c.64,0,1.31.09,1.95.1h.51l1.07,0,.83,0c.61,0,1.23.08,1.84.13h.18l.2,0h.42c1.24.1,2.95.25,4.54.28l1.22-.07c.73,0,1.43-.09,2.12-.09h.53c.58,0,1.17.07,1.76.11l.2,0h.13l.22,0h.07c.52,0,1,.07,1.53.08l.33,0h.73c.38,0,.77,0,1.16,0l1.73,0q.78,0,1.56,0l2,.09h.17c1.09.06,2.22.12,3.36.12h.12c1.18,0,2.34,0,3.52.1l2,.07c1.78,0,3.57.07,5.63.08l1.71,0c1.1,0,2.14,0,3.18.1,1.63.1,3.23.12,4.58.13.83,0,1.67-.09,2.48-.15l.27,0,.25,0c.5,0,1.08,0,1.82,0h1.72c.79,0,1.57,0,2.36.07h.7c.82,0,2.1.07,3.26.08h.44l2.47,0c1,0,1.7,0,2.34.05l.38,0h.3c1.79.08,3.65.17,5.46.18,2,0,4.16.19,5.87.34l.36,0,.24,0,.13,0h.2c.77.06,1.57.13,2.37.16l1.69,0h1.45l2,0h2.66l2,0,.68,0,.94,0h.19l1.21,0h.4l1.37,0,.67,0,2.81.07c1.6,0,3.21-.11,4.73-.18,1-.06,2.25-.09,3.79-.09h.84l1.78,0,2.54,0h1c1.59,0,3.19,0,4.78,0h.42l3.2,0c.89,0,1.8-.08,2.68-.13l.3,0,2.06-.11,1.27-.06h.09c1.4-.08,2.43-.12,3.52-.13l1,0,2.46,0h3.34c2.55,0,5.11-.17,7.71-.33,1.14-.07,2.48-.15,3.82-.18l2-.08h.3l1.81-.08q1,0,2,0h8.19c.89,0,1.74,0,2.59,0h.4c1,0,2,.05,3,.05h3.38l.07-.05h.1l.14,0,3.06,0h.73l1.13,0,2.49,0q.93,0,1.86,0l1.12,0c.79,0,1.58,0,2.37.07h.78c.77,0,1.65.06,2.5.06,1.38,0,2.69-.09,4.54-.18l.55,0c.83,0,1.72-.06,2.82-.06h3.15c2.52,0,4.87.09,7,.26l.35,0h.09l.23,0H255c.38,0,.74.07,1.11.08l.44,0h.35l1.16,0c1.27,0,2.46.05,3.52.05h.13c.87,0,1.75,0,2.62-.05h.38l1.74-.05c1.11,0,2.21,0,3.31,0h1.56l1.79,0c1.68,0,3.16.05,4.55.17,1.21.1,2.07.18,2.8.28s1.64.16,2.66.19c2.41,0,4.12.07,6,.16l1.46.1.28,0,.27,0c1.17.09,2.22.17,3.24.17l.67,0,.63,0,.12-.87.18-1.42.06-.47c0-.24,0-.49,0-.74v-1c0-.6,0-1.17,0-1.74,0-.27,0-.53-.05-.8a8.18,8.18,0,0,1-.06-1.22l0-.9c0-.5,0-1,0-1.5a10.81,10.81,0,0,0-.07-1.27l-.06-.34c0-.24-.07-.48-.1-.72a14.93,14.93,0,0,1-.11-2,31.46,31.46,0,0,1,.23-3.3l.08-.81c.08-1.07.16-2.35.14-3.64v-1.26c0-.8,0-1.6-.07-2.37a30,30,0,0,1,0-3.8c.07-1.32.1-2.63.13-3.86s.12-2.5.22-3.69v-.32c.07-1,.14-2,.18-2.9.05-1.44.08-2.88.1-4.32l.06-3c0-1.06.06-2.13.1-3.2l0-.65c0-1.05.07-2.1.09-3.15l0-.85c0-.85,0-1.71.06-2.56v-.6a8.34,8.34,0,0,1,0-1.12c0-.55.08-1.09.13-1.63.13-1.49.26-3.26.31-5,0-1.16,0-2.39-.08-3.66a34.72,34.72,0,0,1,0-3.57c0-.19,0-.38,0-.56l0-.28V181l0-.66v-.64c0-1.17.1-2.62.1-4,0-.68,0-1.37,0-2.06v-.4c0-1.49,0-3,0-4.6,0-.35,0-.7,0-1.05v-.34c0-.75.07-1.5.07-2.25,0-1,0-2,0-2.94v-.66c0-1.49,0-2.68.05-3.75l.06-1.32c0-.82.09-1.63.11-2.45V152.6c.05-1.93.11-3.93.11-5.83v-.57q0-3.4,0-6.79c0-1.34,0-2.72-.09-4.13v-.65c0-.84-.07-1.66-.07-2.48,0-1.42,0-2.62,0-3.67,0-.37,0-.74.05-1.12V127c0-.73.06-1.37.06-2s0-1.58-.06-2.26v-.55l0-.71c0-.31,0-.63,0-.94v-.31c0-.73-.09-1.51-.1-2.24,0-1,0-1.93,0-2.88V114c0-1,.05-2,.06-3s0-2.16-.07-3.6v-.1c0-.32,0-.63,0-.94s0-.5-.05-.75c0-.65-.05-1.29-.07-1.94v-.54c0-.89,0-2,0-3l0-1.27c0-.85,0-1.56,0-2.28l-.06-3.6c0-1.1,0-2.22.08-3.21v-.19l0-1v-.25c0-.82.08-1.58.09-2.35,0-1.13,0-2.37,0-3.82,0-1.24-.08-2.43-.1-3.6,0-.79,0-1.61,0-2.34V75.16a52.82,52.82,0,0,0-.31-5.58V69.3L297.26,68l-.07-.72a28.92,28.92,0,0,1-.18-3c0-.76,0-1.52,0-2.28V60.85c0-.31,0-.63,0-1,0-.83,0-1.69,0-2.55s-.09-1.66-.15-2.48l-.06-1c0-.28,0-.54-.05-.81l0-.39,0-.4,0-.54-.08-1.6a24.49,24.49,0,0,1,0-3.54l0-.36V46c.07-1,.13-2,.12-2.94,0-.74-.05-1.48-.08-2.22l0-.58,0-.61c-.05-1.26-.06-2.47,0-3.57s-.06-2.14-.13-3.17V32.6c-.08-1.17-.13-2.4-.16-3.76,0-.44,0-.88,0-1.31v-.11c0-.57,0-1.16,0-1.76l0-.42,0-.52a.31.31,0,0,0-.16-.06l-.36,0a5,5,0,0,0-.67-.05c-.86,0-1.63,0-2.37-.08-.31,0-.63,0-.95,0h-.32l-.41,0-.74,0H290c-.55,0-1.13,0-1.58-.08l-.21,0-.27,0-.23,0-.26,0h-.38c-.63,0-1.22-.08-1.8-.08h-.1l-1,0-1.21,0c-.55,0-1.11,0-1.66,0l-.21,0-.7,0h-.52c-.54,0-1.17,0-2,.09l-.8.14h-.09l-.12,0-.12,0-.8.12a17.62,17.62,0,0,1-2.08.12h-.62c-.8,0-1.61-.1-2.41-.17l-2-.14c-.87,0-1.76-.05-2.63-.07h-.49c-.5,0-.95,0-1.41,0l-.68,0c-1.42,0-2.83-.08-4.25-.1-2.46,0-5-.12-7.75-.29-1.23-.06-2.4-.09-3.69-.09h-4.88c-2.35,0-4.93-.11-6.47-.17l-.23,0L235,23.61c-1.4-.06-2.8-.14-4.2-.22-.55,0-1.1-.05-1.65-.06h-.51l-.43,0h-.34l-.89,0h-.32l-4.6.07h-.5c-.81,0-1.75,0-2.81-.07l-.93,0-3.06-.13h-.13c-1.75-.08-3.55-.17-5.37-.17h-2.9c-.47,0-1,0-1.42,0l-1.33,0c-1,0-2-.05-3.05-.1l-1.61-.11h-.11c-.8-.06-1.55-.11-2.29-.13l-3.65-.06h-.62l-4.18-.08-.7,0c-.85,0-1.71,0-2.56,0h-.75l-1.35,0c-1.15,0-2.44,0-4.06-.07H178l-2.45-.07c-1.41,0-2.71-.1-4.15-.19l-.21,0h-.36c-1.37-.08-2.52-.14-3.68-.17-.76,0-1.53,0-2.3,0s-1.29,0-1.94,0l-2,.08h-.09c-.84,0-1.64.08-2.43.1s-1.38,0-2.07,0c-1.5,0-3,0-4.19-.09l-.5,0h-1l-.51,0c-2.07-.05-3.49-.07-4.74-.07s-2.35,0-3.88.07c-1.19,0-2.44.06-3.82.06h-.56c-1.21,0-2.46-.06-3.29-.1h-.34l-.5,0c-1.81-.08-3.56-.12-5.2-.12-1.13,0-2.34,0-3.61.06s-2.63.06-4.14.06c-1.79,0-3.34,0-4.62-.07s-2.85-.09-4.28-.12h-.93l-1.6,0c-.68,0-1.27,0-1.81.05l-.42,0-.39,0-.41,0h-.08l-.48,0-.27,0-2,.08L98.39,22H97.21c-2.38,0-4.73-.1-7-.19h-.47c-1.62-.07-3.27-.07-4.86-.07h-.6c-1,0-2,0-3,0H80.13c-1.38,0-2.79-.06-4.21-.06-1.08,0-2.1,0-3.11.05s-1.89,0-2.83,0H66.86l-2.41,0c-1.44,0-2.88,0-4.32.07-.78,0-1.55,0-2.32.1s-1.29.07-1.94.09l-1.06,0-.38,0c-1,0-2,.07-3,.09H50.26l-1.74,0H47.18l-4.24,0-1,0h-.34l-1.34,0c-.54,0-1.07,0-1.6,0-1.19.05-2.59.11-4,.11h-.21c-1.08,0-2.39,0-4-.15l-.29,0c-2.86-.15-5.41-.32-7.58-.51ZM41.23,52.58a19.82,19.82,0,0,1-.11-2.73,8.09,8.09,0,0,0,0-1.1c0-.21,0-.38,0-.54,0-.49-.05-1-.06-1.41l0-.72v-.17a13.61,13.61,0,0,1,0-1.44,16.61,16.61,0,0,0,.1-2.4c0-.57,0-1.11,0-1.65a1.18,1.18,0,0,1,.68-.25c.24,0,.47,0,.71,0a3.23,3.23,0,0,1,.93.12,8.47,8.47,0,0,1,1,.32c.42.17.85.33,1.28.48s1.07.33,1.6.48l.22.07c.67.19,1.36.39,2,.63l1.28.47.2.08,1.8.66.79.27.09,0c1.14.38,2.3.78,3.46,1.24,1.41.57,2.58,1,3.76,1.47l.14,0,.53.18c.77.26,1.5.52,2.23.82l.84.35.09,0,.15.06c.29.12.58.25.87.36l.81.3,1.31.5c.63.25,1.25.54,1.93.85l.11,0c2.59,1.21,5.2,2.3,7.74,3.25.26.09.51.17.76.27l.15,0c.71.25,1.43.5,2.13.78l.36.13.09,0c.45.18.9.35,1.32.55l1.08.55a25.51,25.51,0,0,0,2.5,1.17l.54.18a1.1,1.1,0,0,1,.32.11l.18.06.49.21a4.88,4.88,0,0,1,.77.46,1.41,1.41,0,0,1,.49,1,1.74,1.74,0,0,1,0,.47l0,.27v.08c0,.28.1.57.13.85a5.17,5.17,0,0,1,0,.54c0,.23,0,.45,0,.65l0,.34.06-.12a.65.65,0,0,0,0,.18c0,.36,0,.73,0,1.08s0,.53,0,.77v.21c0,.7.07,1.36.17,2v.09a5.69,5.69,0,0,1,.08.82v.53c0,.12,0,.24,0,.36s0,.49,0,.72a8.1,8.1,0,0,1-1.27.81l.26-.1a7.11,7.11,0,0,0-.91.49l-.3.17-.18.1-.13,0-.21.08h0a.25.25,0,0,0-.12,0,4.81,4.81,0,0,0-.88.47l-.07,0-.19.1c-.32.15-.62.31-.95.44l-.91.37-.2.08-.7.29c-.41.17-.8.35-1.2.54l-.14.07-.65.3c-.81.37-1.66.73-2.48,1.06l-.82.34c-1.2.5-2.29,1-3.33,1.47-.77.36-1.55.66-2.51,1l-.26.1-.1,0c-.41.15-.83.31-1.24.49s-.76.32-1.14.49l-.09,0-.21.1-.09,0-.09,0-.1,0c-.55.25-1.23.57-1.91.83-1.44.57-2.65,1-3.86,1.62-.66.31-1.33.63-2,1l-.14.07-.08.05-.13.06c-.49.25-1,.51-1.5.73s-1.06.41-1.6.61l-.17.07c-.7.25-1.57.57-2.36.94s-1.45.73-2,1l-.08,0c-.58.32-1.16.63-1.75.92s-1.38.64-2,.9l-.45.18c-.42.17-.84.33-1.22.52s-.47.23-.7.36l-.1,0-.13.07-.13.06-.18.09a5.21,5.21,0,0,1-.47.24,13.77,13.77,0,0,1-2,.72l0-.9,0-.47v-.2c0-.59-.07-1.17-.12-1.76l0-.27c0-.45-.08-.87-.08-1.28,0-.25,0-.49,0-.74v-.1a7.86,7.86,0,0,1,0-.84v-.74c0-.87,0-1.65.06-2.44a20.42,20.42,0,0,0-.06-2.5l0-.46,0-.39c0-.29,0-.57-.05-.85l-.09-.76,0-.22a2.47,2.47,0,0,1,.36,0h.08l.41,0,.12,0,.08,0,.09,0,.16-.06.23-.1.55-.2.09,0a7.72,7.72,0,0,0,.72-.29l.78-.33c.38-.15.75-.31,1.12-.48s.5-.25.75-.38l.09,0c.53-.27,1.13-.58,1.71-.83l.92-.39.11,0c.59-.25,1.14-.48,1.69-.74l.46-.23,1.54-.78c.74-.36,1.54-.73,2.22-1L57,68.4l.18-.08.13,0,1.88-.86c.53-.27,1.05-.56,1.58-.85l.17-.09c.21-.12.42-.24.64-.35.81-.44,1.69-.83,2.39-1.14l.48-.21,3.11-1.43.65-.3L68.06,63l-.12-.05-.6-.23-.09,0-.13,0-.5-.2c-.37-.12-.73-.22-1.1-.32l-.15,0-.14,0c-.34-.09-.69-.19-1-.3l-1.28-.4-.08,0-1.21-.38L61,60.66l-.68-.22-.21-.07-.08,0c-.82-.27-1.77-.58-2.7-.92l-.21-.05-.14,0c-.34-.12-.68-.23-1-.37L55,58.57l-.25-.11c-.81-.36-1.53-.65-2.2-.9l-.76-.25a24.84,24.84,0,0,1-5-2.08l-.14-.08a22.41,22.41,0,0,0-2.48-1.36c-.93-.42-1.85-.82-2.81-1.17l-.09,0ZM97.82,90c.49,0,1,0,1.46,0l.55,0c1,0,2-.1,3-.1l.6,0h.19l.61,0,1.39,0h.9l.66,0,.86,0,.77,0,1.16,0h1l1.1,0,2.55,0,1.16,0,1.15,0h1.64c.54,0,1.08.06,1.62.09l.39,0,.76,0c1.14.06,2.3.08,3.42.1h.58c.54,0,1.09,0,1.63.08s1,.07,1.58.09h.83l1.56,0h.63l1.16,0c0,.23,0,.47,0,.71v.24c0,.62.06,1.26.05,1.89,0,1.37-.08,2.76-.16,4.1,0,.75-.08,1.48-.11,2.22,0,.32,0,.63-.06,1v.15c0,.45-.06.91-.08,1.36v.35c0,.58,0,1.16-.07,1.74-.43,0-.94.06-1.59.06h-.65c-.68,0-1.36,0-2,0-.9,0-1.78,0-2.67-.05-1.08,0-2-.06-2.79-.06h-1c-.52,0-1,0-1.55.06l-.52,0-.84,0h-1.15c-.8,0-1.61,0-2.42,0l-1.57,0c-.73,0-1.46,0-2.28-.11h-.21l-1.34-.09c-.88,0-1.76-.05-2.64-.05-.48,0-1,0-1.45,0h-.19c-.42,0-.85,0-1.32,0h-1.35c-.52,0-1.12,0-1.77,0l-.62-.06h-.27l-1.49-.12-1.54,0-.57,0-2.79-.11H87.67v-.25c0-.24,0-.48,0-.73l0-.51c0-.18,0-.35,0-.53l0-.39c0-.45,0-.89,0-1.35,0-.19,0-.38,0-.57s0-.39,0-.58v-.3c0-.41,0-.83,0-1.24l0,.09c0-.57,0-1.13,0-1.7V95.5c0-.52,0-1,0-1.57,0-.23,0-.45,0-.68V93c0-.37,0-.74,0-1.12V89.91l.12,0,.58,0,.38,0,1.16.07h.22c.51,0,1,.07,1.52.08h.58c.56,0,1.13,0,1.69,0h.25l1.3,0c.79,0,1.58.06,2.37.06Z"/></g></g></svg>