<svg xmlns="http://www.w3.org/2000/svg" viewBox="0 0 213.43 67.04"><defs><style>.cls-1{fill:#e8e8e8;}</style></defs><title>toolbarIcons</title><g id="Layer_2" data-name="Layer 2"><g id="Layer_50" data-name="Layer 50"><path class="cls-1" d="M38.51,46.42,23,33.52,38.51,20.63a3,3,0,0,0,0-4.68L20.23.71a3.05,3.05,0,0,0-5,2.34V26.17l-10-10A3,3,0,0,0,.89,20.44L14,33.52.89,46.6A3,3,0,0,0,5.2,50.91l10-10V64a3.05,3.05,0,0,0,5,2.34L38.51,51.1A3,3,0,0,0,38.51,46.42ZM21.33,9.56,31.8,18.29,21.33,27Zm0,47.93V40L31.8,48.76Z"/><path class="cls-1" d="M103.12,51.61a6.37,6.37,0,1,0,0,9A6.39,6.39,0,0,0,103.12,51.61Z"/><path class="cls-1" d="M82.86,40.36l4.5,4.5a15.93,15.93,0,0,1,22.51,0l4.5-4.5A22.3,22.3,0,0,0,82.86,40.36Z"/><path class="cls-1" d="M98.61,17.91a38,38,0,0,0-27,11.19l4.5,4.5a31.86,31.86,0,0,1,45,0l4.5-4.5A38,38,0,0,0,98.61,17.91Z"/><path class="cls-1" d="M98.61,2A53.72,53.72,0,0,0,60.35,17.85l4.5,4.5a47.74,47.74,0,0,1,67.53,0l4.5-4.5A53.72,53.72,0,0,0,98.61,2Z"/><path class="cls-1" d="M187,3.67a1.58,1.58,0,0,0-1.73.3L168.8,19.48H157.62a1.6,1.6,0,0,0-1.6,1.59V43.4a1.6,1.6,0,0,0,1.6,1.59H168.8L185.22,60.5a1.6,1.6,0,0,0,1.1.44,1.73,1.73,0,0,0,.63-.13,1.6,1.6,0,0,0,1-1.47V5.13A1.59,1.59,0,0,0,187,3.67Z"/><path class="cls-1" d="M195.26,23.3,193,25.57a1.54,1.54,0,0,0-.22,2,8,8,0,0,1,0,9.39,1.54,1.54,0,0,0,.22,2l2.28,2.27a1.61,1.61,0,0,0,2.43-.19,14.32,14.32,0,0,0,0-17.49A1.61,1.61,0,0,0,195.26,23.3Z"/><path class="cls-1" d="M206.61,14.28a1.59,1.59,0,0,0-2.3,0l-2.26,2.26a1.61,1.61,0,0,0,0,2.2,20.68,20.68,0,0,1,0,27.06,1.61,1.61,0,0,0,0,2.2l2.26,2.25a1.59,1.59,0,0,0,2.3,0,27,27,0,0,0,0-35.91Z"/></g></g></svg>