<svg xmlns="http://www.w3.org/2000/svg" viewBox="0 0 1511 87"><defs><style>.cls-1{fill:#47578c;}.cls-2{fill:#fff;}.cls-3{font-size:52px;fill:#d6d5d8;font-family:Meganschalkboard-Regular, Meganschalkboard;}</style></defs><title>toolbar</title><g id="Layer_2" data-name="Layer 2"><g id="ARTBOARD_2" data-name="ARTBOARD 2"><rect class="cls-1" width="1511" height="87"/><path class="cls-2" d="M44.59,30c-.23.1-.47.16-.71.26l.11,0-.17.07.07,0-.08,0h0l-.21.09-.24.07a3.78,3.78,0,0,0-.5.22l.12-.06-.07,0,0,0,0,0-.12.05h0a2.91,2.91,0,0,0-.35.18c-.13.08-.28.14-.41.21a7.56,7.56,0,0,0-.79.57,4.15,4.15,0,0,0-.55.56,8.41,8.41,0,0,0-.72.86l0,0-.09.12a.21.21,0,0,0,0-.06c-.12.18-.25.35-.36.54a2.26,2.26,0,0,0-.25.67l-.12.64c0,.16,0,.31,0,.48h0v.1l-.06.37c0,.14,0,.26,0,.4a.42.42,0,0,0,.4.41.75.75,0,0,0,.13.06h0a.55.55,0,0,0,.54-.16l0-.05,0,0,0,0,.28,0,.26-.11.11,0,.12,0a1.46,1.46,0,0,0,.41-.11A2.57,2.57,0,0,0,42,36l.39-.26c.15-.1.33-.18.49-.27s.32-.22.48-.34a4.25,4.25,0,0,0,.46-.4c.13-.13.25-.27.37-.41s.23-.31.34-.47a4.39,4.39,0,0,0,.31-.66,3.71,3.71,0,0,0,.24-.71c.05-.22.11-.44.16-.66a7.1,7.1,0,0,0,.17-.92v-.1s0,.06,0,.08a1.65,1.65,0,0,0,0-.31.9.9,0,0,0,0-.23v0a.46.46,0,0,0-.33-.38h-.13a.82.82,0,0,0-.34.09Zm-.92.37-.05,0,.05,0Zm.9.07v.05h0s0,0,0-.05Zm0,0v0h0Zm0,0h0Zm0,0h0Zm0,0ZM44.5,31s0,.06,0,.1l0-.06.07,0Zm-3.33,4.39-.07,0-.07,0h0l0,0h.14Zm0,0,0,0,0,0Zm-.24,1,0,0h0l0,0Zm0,0h0Zm-.61.1,0,0,0,0Zm5.1-5.61h0v0Zm-2.58-.13.08,0-.08,0Zm1-.41Z"/><path class="cls-2" d="M35.13,36.65h-.2c-.33,0-.64,0-1,.06l-.23,0a7,7,0,0,0-1,.19,5.42,5.42,0,0,0-.85.31l-.38.15-.34.14-.2.08a5.19,5.19,0,0,0-.79.41,7.71,7.71,0,0,0-.71.53,8.65,8.65,0,0,0-1.14,1.25,9.22,9.22,0,0,0-1,1.5,7.28,7.28,0,0,0-.45,1.34l-.07.26a6.8,6.8,0,0,0-.17.9,5.49,5.49,0,0,0,0,.58l0,.38,0,.21a7.31,7.31,0,0,0,0,1.55,6.63,6.63,0,0,0,.11.76l0,.18c0,.13.06.25.08.38l0,.21c0,.23.06.45.1.68a6.06,6.06,0,0,0,.16.61l.07.23c.08.3.16.59.23.89l.11.42.12.41a3.18,3.18,0,0,0,.36.93c.1.17.22.33.33.49l.24.37.25.36c.22.33.45.65.64,1a4.43,4.43,0,0,0,.49.65l.16.19a3.58,3.58,0,0,1,.25.42l.09.18a3.49,3.49,0,0,0,.7.81l.13.12.27.25c.31.24.62.47,1,.68a1.67,1.67,0,0,0,.23.12,5.2,5.2,0,0,1,.51.27,3.21,3.21,0,0,0,.86.31,3.55,3.55,0,0,0,.77.12h0a5.72,5.72,0,0,0,1-.09h0l.18,0,.25,0a4.62,4.62,0,0,0,.63-.11A2.44,2.44,0,0,0,37.5,58l.29-.17a7.62,7.62,0,0,1,.69-.38,3.74,3.74,0,0,1,.54-.17l.34,0h.2l.2,0a2.15,2.15,0,0,1,.27.1l.17.08a3.77,3.77,0,0,0,.64.23c.2,0,.4.12.59.18l.59.26a2.59,2.59,0,0,1,.35.12l.42.16a3.67,3.67,0,0,0,.66.13l.4,0h0a3.15,3.15,0,0,0,.5,0l.24,0,.24,0H45a1.15,1.15,0,0,0,.3,0l.36-.06a1.48,1.48,0,0,0,.27-.1,5.33,5.33,0,0,0,.62-.29,1.91,1.91,0,0,0,.51-.37,5.1,5.1,0,0,0,.44-.41l.21-.23.14-.15.15-.18.16-.17a8.1,8.1,0,0,0,.7-.85c.22-.3.43-.63.63-1l.33-.53.22-.34c.13-.21.26-.41.4-.61a3.79,3.79,0,0,0,.49-.89c.13-.31.29-.71,0-1a.54.54,0,0,0-.39-.16.94.94,0,0,1-.45-.31l-.22-.34a2.61,2.61,0,0,1-.19-.27,1.64,1.64,0,0,0-.14-.22,5.52,5.52,0,0,0-.43-.53L49,49.35l-.14-.15c0-.08-.11-.17-.15-.25a2.4,2.4,0,0,1-.21-.38l0,.18h0l-.13-.4c0-.14-.1-.28-.14-.43l-.07-.28-.06-.24L48,46.83c0-.24,0-.4-.06-.56l0-.36a3.53,3.53,0,0,1,0-.86,7.6,7.6,0,0,1,.19-.95l.06-.25c.08-.31.16-.62.26-.93l.16-.27a2.53,2.53,0,0,0,.13-.22,1.71,1.71,0,0,1,.13-.23l.31-.36.36-.42a3.27,3.27,0,0,1,.3-.35,1.09,1.09,0,0,0,.25-.2,1.77,1.77,0,0,0,.12-.17l.09-.17h0a.87.87,0,0,0,.24-.52.73.73,0,0,0-.13-.39,1.62,1.62,0,0,1-.1-.18l-.1-.15a3.35,3.35,0,0,0-.95-.89L49,38.23l-.17-.14-.21-.18a2.64,2.64,0,0,0-.58-.37l-.49-.19-.22-.09-.59-.2a6.19,6.19,0,0,0-1.43-.24h-.2a5.79,5.79,0,0,0-1.1.12l-.27,0a6.29,6.29,0,0,0-1.15.2,3.61,3.61,0,0,0-.61.26l-.5.25a2.69,2.69,0,0,1-.29.16l-.19.08-.19.09-.26.12-.18.08a3.6,3.6,0,0,1-.47.15l-.34,0a.71.71,0,0,0-.21,0,.32.32,0,0,0-.11-.14c-.16-.11-.32-.22-.49-.32a3.67,3.67,0,0,0-.89-.44l-.19-.11-.27-.15-.23-.1a1.55,1.55,0,0,0-.36-.1c-.29-.06-.46-.12-.64-.17L36,36.78c-.22-.05-.43-.1-.64-.13Z"/><text class="cls-3" transform="translate(113.6 58.41)"><tspan xml:space="preserve">Megan Byers   </tspan></text><text class="cls-3" transform="translate(389.65 58.41)">About</text><text class="cls-3" transform="translate(544.48 55.76)">Experience</text></g></g></svg>