<svg xmlns="http://www.w3.org/2000/svg" viewBox="0 0 117.89 32.36"><defs><style>.cls-1{fill:#c2c5cf;}</style></defs><title>toolIcons</title><g id="Layer_2" data-name="Layer 2"><g id="Draw_Layer" data-name="Draw Layer"><path class="cls-1" d="M20.31,4a12.12,12.12,0,0,0-9.16,4.16c-.33,0-.66-.1-1-.1a10.15,10.15,0,0,0,0,20.3H20.31A12.18,12.18,0,1,0,20.31,4ZM10.15,26.33a8.12,8.12,0,0,1,0-16.24,7.76,7.76,0,0,1,2.66.47,6,6,0,0,1,1.59.73l.06,0,6.39,4A1,1,0,1,1,19.76,17l-6.34-4-.06,0a4.46,4.46,0,0,0-1.16-.55,6.08,6.08,0,1,0-2,11.81,5.77,5.77,0,0,0,1-.09,11.29,11.29,0,0,0,1.74,1.63A8,8,0,0,1,10.15,26.33Zm10.16,0a10,10,0,0,1-6-2,9.27,9.27,0,0,1-1.76-1.65l-.05-.05L9.37,18.85a1,1,0,0,1,.14-1.42,1,1,0,0,1,1.43.14l3,3.68.07.09a7.41,7.41,0,0,0,1.43,1.35,8,8,0,0,0,4.85,1.61,8.12,8.12,0,1,0,0-16.24,8,8,0,0,0-4.77,1.55h0l-.09-.06a8.75,8.75,0,0,0-1.93-.89A10,10,0,0,1,20.31,6a10.15,10.15,0,1,1,0,20.3Z"/><path class="cls-1" d="M91.89,15.23a1.66,1.66,0,1,0,2.35,2.35,11.5,11.5,0,0,1,16.25,0,1.65,1.65,0,0,0,1.18.49,1.63,1.63,0,0,0,1.17-.49,1.66,1.66,0,0,0,0-2.35A14.82,14.82,0,0,0,91.89,15.23Z"/><path class="cls-1" d="M96.38,19.72a1.67,1.67,0,0,0,2.35,2.36,5.12,5.12,0,0,1,7.26,0,1.69,1.69,0,0,0,1.18.49,1.67,1.67,0,0,0,1.17-2.84A8.45,8.45,0,0,0,96.38,19.72Z"/><circle class="cls-1" cx="102.36" cy="25.7" r="2.21"/><path class="cls-1" d="M117.4,10.66a21.29,21.29,0,0,0-30.07,0A1.67,1.67,0,1,0,89.68,13a18,18,0,0,1,25.37,0,1.68,1.68,0,0,0,1.18.48,1.66,1.66,0,0,0,1.17-2.84Z"/><g id="bluetooth"><path class="cls-1" d="M69.94,9.22,60.72,0H59.1V12.3L51.65,4.85,49.39,7.12l9.06,9.06-9.06,9.06,2.26,2.27,7.45-7.45v12.3h1.62l9.22-9.22-7-7ZM62.33,6.15l3.08,3.07L62.33,12.3Zm3.08,17-3.08,3.07V20.06Z"/></g></g></g></svg>