<svg xmlns="http://www.w3.org/2000/svg" viewBox="0 0 1511 1008.25"><defs><style>.cls-1{fill:#47578c;}.cls-2{fill:#fff;}</style></defs><title>Asset 57</title><g id="Layer_2" data-name="Layer 2"><g id="ARTBOARD_2" data-name="ARTBOARD 2"><rect class="cls-1" width="1511" height="73"/><path class="cls-2" d="M44.59,22.27c-.23.09-.47.16-.71.26l.11,0-.17.07.07,0-.08,0h0l-.21.09-.24.07a3.78,3.78,0,0,0-.5.22l.12-.06-.07,0h0l-.12.05h0a2.91,2.91,0,0,0-.35.18c-.13.07-.28.13-.41.21a7.56,7.56,0,0,0-.79.57,3.64,3.64,0,0,0-.55.56,8.41,8.41,0,0,0-.72.86l0,0-.09.12a.21.21,0,0,0,0-.06c-.12.18-.25.35-.36.54a2.16,2.16,0,0,0-.25.67l-.12.64c0,.16,0,.31,0,.48h0v.1l-.06.37c0,.13,0,.26,0,.4a.42.42,0,0,0,.4.41l.13.05h0a.57.57,0,0,0,.54-.15l0-.05,0,0,0,0,.28,0,.26-.11.11,0,.12,0a1.46,1.46,0,0,0,.41-.11,2.57,2.57,0,0,0,.49-.27l.39-.26c.15-.1.33-.18.49-.27a4.85,4.85,0,0,0,.48-.35,4.14,4.14,0,0,0,.46-.39c.13-.13.25-.27.37-.41s.23-.31.34-.47a4.07,4.07,0,0,0,.31-.67,3.4,3.4,0,0,0,.24-.7c.05-.22.11-.44.16-.66a7.1,7.1,0,0,0,.17-.92V23s0,.06,0,.08a1.76,1.76,0,0,0,0-.31.9.9,0,0,0,0-.23v0a.45.45,0,0,0-.33-.38h-.13a.69.69,0,0,0-.34.09Zm-.92.37-.05,0,.05,0Zm.9.07v.05h0s0,0,0-.05Zm0,0v0h0v0Zm0,0v0Zm0,0h0Zm0,0Zm-.06.47s0,.06,0,.09l0,0,.07,0ZM41.17,27.6l-.07,0-.07,0h0l0-.05h.14Zm0,0,0,0,0,0Zm-.24,1,0,0h0l0,0Zm0,0h0Zm-.61.1,0,0,0,0Zm5.1-5.61h0v0ZM42.79,23a.2.2,0,0,0,.08,0,.2.2,0,0,1-.08,0Zm1-.41Z"/><path class="cls-2" d="M35.13,28.9h-.2c-.33,0-.64,0-1,.06l-.23,0a7,7,0,0,0-1,.19,5.42,5.42,0,0,0-.85.31l-.38.15-.34.14-.2.08a5.19,5.19,0,0,0-.79.41,7.71,7.71,0,0,0-.71.53,8.65,8.65,0,0,0-1.14,1.25,8.81,8.81,0,0,0-1,1.5,7.28,7.28,0,0,0-.45,1.34l-.07.26a6.8,6.8,0,0,0-.17.9,5.44,5.44,0,0,0,0,.57l0,.39,0,.21a7.31,7.31,0,0,0,0,1.55,6.63,6.63,0,0,0,.11.76l0,.18c0,.13.06.25.08.38l0,.21c0,.23.06.45.1.68a6.06,6.06,0,0,0,.16.61l.07.23c.08.3.16.59.23.89l.11.42.12.41a3.18,3.18,0,0,0,.36.93c.1.16.22.33.33.49l.24.36.25.37c.22.33.45.65.64,1a4.43,4.43,0,0,0,.49.65l.16.19a3.58,3.58,0,0,1,.25.42l.09.18a3.49,3.49,0,0,0,.7.81l.13.12.27.25c.31.24.62.46,1,.68a1.67,1.67,0,0,0,.23.12,5.2,5.2,0,0,1,.51.27,3.21,3.21,0,0,0,.86.31,3.55,3.55,0,0,0,.77.12h0a5.67,5.67,0,0,0,1-.1h0l.18,0,.25,0a4.62,4.62,0,0,0,.63-.11,2.84,2.84,0,0,0,.64-.27l.29-.17a5.76,5.76,0,0,1,.69-.38,3.74,3.74,0,0,1,.54-.17l.34,0h.2l.2,0a2.15,2.15,0,0,1,.27.1l.17.08a3.77,3.77,0,0,0,.64.23,5.76,5.76,0,0,1,.59.18l.59.26a2.59,2.59,0,0,1,.35.12l.42.16a3,3,0,0,0,.66.12,2.75,2.75,0,0,0,.4,0h0a3.34,3.34,0,0,0,.5,0l.24,0,.24,0H45a1.15,1.15,0,0,0,.3,0l.36-.06a1.48,1.48,0,0,0,.27-.1,5.33,5.33,0,0,0,.62-.29,1.91,1.91,0,0,0,.51-.37,5.1,5.1,0,0,0,.44-.41l.21-.23.14-.15.15-.18.16-.17a8.1,8.1,0,0,0,.7-.85c.22-.31.43-.63.63-1l.33-.53.22-.34c.13-.21.26-.41.4-.61a4,4,0,0,0,.49-.89c.13-.31.29-.71,0-1a.54.54,0,0,0-.39-.16.94.94,0,0,1-.45-.31l-.22-.34-.19-.27a1.64,1.64,0,0,0-.14-.22,5.66,5.66,0,0,0-.43-.54L49,41.6l-.14-.16a1.94,1.94,0,0,1-.15-.24,2.4,2.4,0,0,1-.21-.38l0,.18h0l-.13-.4c0-.14-.1-.28-.14-.43l-.07-.28-.06-.24L48,39.08c0-.24,0-.4-.06-.56l0-.36a3.53,3.53,0,0,1,0-.86,7.6,7.6,0,0,1,.19-.95l.06-.25c.08-.31.16-.62.26-.93l.16-.27a1.71,1.71,0,0,0,.13-.23,2.53,2.53,0,0,1,.13-.22l.31-.36.36-.42a3.27,3.27,0,0,1,.3-.35,1.09,1.09,0,0,0,.25-.2A1.77,1.77,0,0,0,50.2,33l.09-.17h0a.87.87,0,0,0,.24-.53.69.69,0,0,0-.13-.38,1.62,1.62,0,0,1-.1-.18l-.1-.15a3.35,3.35,0,0,0-.95-.89L49,30.48l-.17-.14-.21-.18a2.64,2.64,0,0,0-.58-.37l-.49-.19-.22-.09-.59-.2a6.19,6.19,0,0,0-1.43-.24h-.2a6.73,6.73,0,0,0-1.1.12l-.27,0a7.29,7.29,0,0,0-1.15.21,3.61,3.61,0,0,0-.61.26c-.25.12-.38.18-.5.25a1.59,1.59,0,0,1-.29.15l-.19.09-.19.09-.26.12-.18.08a3.6,3.6,0,0,1-.47.15l-.34,0a.71.71,0,0,0-.21,0,.27.27,0,0,0-.11-.14c-.16-.11-.32-.22-.49-.32a3.67,3.67,0,0,0-.89-.44l-.19-.11-.27-.15-.23-.1a2.85,2.85,0,0,0-.36-.11,5.36,5.36,0,0,1-.64-.16L36,29c-.22-.05-.43-.1-.64-.13Z"/><rect class="cls-1" x="183" y="905.25" width="1146" height="103"/></g></g></svg>