<svg xmlns="http://www.w3.org/2000/svg" viewBox="0 0 240.47 243.15"><defs><style>.cls-1{fill:#fff;stroke:#000;stroke-miterlimit:10;}</style></defs><g id="Layer_2" data-name="Layer 2"><g id="Layer_1-2" data-name="Layer 1"><path class="cls-1" d="M71.83,30.27c.07,1.25.24,2.5.35,3.73,0,4.84-.43,9.67-.43,14.52a69.55,69.55,0,0,0,.36,9.35c.19,1.38.4,2.77.54,4.16,0,1-.14,1.95-.13,2.92.09,2.73.4,5.12,2.24,7.34a9.28,9.28,0,0,0,6.12,3.27,14.29,14.29,0,0,0,2.36-.07l2.14-.06-1.15,0c.69,0,1.37,0,2-.06a1.83,1.83,0,0,1,.33,0h-.23l1.22,0c2.5,0,5,.34,7.45.41,3.43.08,6.84.1,10.26,0a110.78,110.78,0,0,1,11.8.4c4.15.35,8.3.36,12.43.73s8,.94,12,1c.87,0,1.75,0,2.63,0,1.39,0,2.8,0,4.22,0,2,.1,4,.27,6,.45,1,.08,2,.18,2.94.28,4.85.45,8.6-2.08,10.58-6.37A17.84,17.84,0,0,0,169.05,66c.11-1.68.25-3.35.4-5a164,164,0,0,0,.85-18.27v-.17h0v-.21a1.41,1.41,0,0,0,0,.21h0v-.21c-.07-3,0-6.07.14-9.09.15-3.38.1-6.77,0-10.15,0-2.14.09-4.29.05-6.42,0-2.32-.15-4.63-.27-6.95,0-.78-.22-1.57-.31-2.37a8.8,8.8,0,0,0-.81-2.61c-.73-.1-1.46-.17-2.18-.2-1.89-.06-3.78-.17-5.67-.24-.4,0-.79,0-1.19,0h0a32.06,32.06,0,0,1-3.66-.3,30.73,30.73,0,0,0-3.3-.33c-3.85,0-7.72-.15-11.56-.5-2.66-.22-5.32-.55-8-.69s-5.26,0-7.88-.24c-2.26-.21-4.46-.6-6.72-.75-3.18,0-6.4-.05-9.58-.26C106.65,1,104,.73,101.26.65l1.85,0L98.91.57l-.55,0h-.29L97,.51,94.2.53l-2.83,0h0L89,.53,87.4.5c.51,0,1,0,1.52,0H85.65c-1,0-2.05,0-3.08,0l2.2,0c-1.07,0-2.13,0-3.18,0h-1.9a6.42,6.42,0,0,0-.42.6,8.73,8.73,0,0,0-7,7.75q-.21,3.95-.58,7.87c-.1,1.09-.22,2.17-.23,3.26,0,1.55.13,3.08.23,4.64C71.74,26.52,71.74,28.39,71.83,30.27Zm98.58-7v0ZM82.66,58l0,0H82.1Z"/><path class="cls-1" d="M.66,112.47l0,1,.16,2.6V116l.05.77v-.27c0,.61.06,1.22.1,1.83,0,1,0,2-.06,3.07,0,.73,0,1.47-.06,2.2,0,2.27.08,4.53.19,6.81v.21l.06,1.13s0,.21.05.21,0,.13.05.14l0,.13v.28l0,.44v.34l.09,1.08c0,1.21,0,2.41,0,3.61,0,.94,0,1.88.06,2.82,0,.68.07,1.37.08,2.06,0,1.9,0,3.82-.11,5.72-.09,2.41,0,4.76.17,7.37.19,4.06,0,8.2-.16,12.2-.1,2.37-.2,4.75-.24,7.13v1.89c0,2.26,0,4.6-.21,6.91a65.45,65.45,0,0,0,.1,9.6c.15,3.58.13,7.17.11,10.65,0,2.58,0,5.17,0,7.76,0,1.35-.05,2.7-.12,4,0,1.1-.11,2.2-.12,3.3,0,1.34,0,2.68-.09,4,0,1-.07,2-.09,3-.1,5,3.23,9,7.9,9.46a9.61,9.61,0,0,0,6.16,1.78,5.49,5.49,0,0,0,.8-.06l.45.09.85.16a17.64,17.64,0,0,0,2.91.18H22c.79,0,1.36,0,1.92-.07l.38,0c.53,0,1.06-.07,1.6-.08,3.43.17,6.86.36,10.3.55s6.91.39,10.38.55c2.13.11,4.26.14,6.4.14h7l4,0c3.37,0,6.75,0,10.1.07h.76c1.54.07,3.07.2,4.6.32,1.25.1,2.49.2,3.73.27l.79,0c2.65.15,5.29.3,7.94.57,3.37.34,6.72.52,10.14.69,1.49.07,3,.17,4.46.26,2.82.18,5.64.36,8.46.41l-.35,0,1.59.07c1.88.07,3.74.2,5.6.33,2.72.19,5.53.38,8.3.38h.51c1.59,0,3.17,0,4.76-.06,1.78,0,3.57-.06,5.36-.06h1.5c3.09.08,6.17.14,9.26.19l-.18,0c.9,0,1.81,0,2.71,0,1.89,0,3.78,0,5.67-.17,2.89-.21,5.5-.38,8.14-.38h1c.95,0,2.1,0,3.27,0,2.61,0,4.75-.09,6.73-.28l2.38-.24c1.79-.18,3.58-.36,5.38-.44,2.88-.11,5.86-.22,8.8-.54a61.4,61.4,0,0,1,6.5-.35l2.57.12c2.11.11,4.22.22,6.34.22l1.7,0c.92,0,1.85-.06,2.78-.11,1.21-.05,2.42-.11,3.63-.12q.41,0,.81.09c.28,0,.55.07.83.09.82.08,1.64.11,2.46.11s1.92,0,2.87-.08l1.31-.05a18,18,0,0,0,4.76-1l1.44-.44c4.48-1.28,6.46-6.61,5.43-10.6a27.61,27.61,0,0,0,.1-3.86l0-1.08a7.65,7.65,0,0,0,.38-1.32,31.59,31.59,0,0,0,.36-6.87c0-.49-.07-1-.11-1.46l-.06-.76c0-1.19,0-2.39.05-3.59v-.06l.1-1.23a15.57,15.57,0,0,0,0-2.16c0-.36,0-.72,0-1.08a21.92,21.92,0,0,1,.19-2.92l.07-.63a26.79,26.79,0,0,0-.33-6.45v-.56c0-1-.14-2.08-.25-3.11-.12-1.19-.24-2.39-.25-3.59,0-1,.07-1.89.1-2.83l0-.16a63.47,63.47,0,0,0-.08-7.68c-.1-1.22-.15-2.4-.15-3.6l.08-1.34a45.68,45.68,0,0,0,.11-5.61c-.1-1.69-.16-3.35-.18-5l.1-1.25c.07-.72.13-1.45.16-2.18.06-1.58.05-3.15,0-4.71,0-.84,0-1.69,0-2.53,0-1.25,0-2.49-.07-3.73,0-1.47-.07-2.93-.06-4.39,0-1.24.06-2.39.07-3.53l.16-3.32.15-3.16v-.6l0-.44c0-.32,0-.56,0-.8l-.08.38c.07-.62.07-1.58.07-2.53v-2.3l.06-1.39.06-1.38V123h0c0-.59.07-1.18.12-1.76a33,33,0,0,0,.13-3.85,14.78,14.78,0,0,0-.58-3.16l-.1-.39-.45-2c-.16-.73-.32-1.46-.49-2.18l-.07-.36a4.46,4.46,0,0,0-.05-.82c-.2-1.33-.93-4.58-3.27-6.1l-.54-.35a7.94,7.94,0,0,0-3.57-1.51,3.38,3.38,0,0,1-1.18-.18,4.09,4.09,0,0,0-.85-.15,14.38,14.38,0,0,0-4.57-.57h-1.28a47.58,47.58,0,0,0-6,.49c-.36,0-.73,0-1.1,0-1.6,0-3.21-.14-4.81-.33-.94-.09-1.87-.19-2.81-.25-1.75-.11-3.49-.16-5.23-.16a83,83,0,0,0-8.78.46c-2.77.24-5.55.27-7.66.27l-3.11,0-3.23,0c-1.24,0-2.48,0-3.73,0l-1.25,0c-2.48.08-5,.16-7.45.36a20.27,20.27,0,0,0-7,1.67,7.68,7.68,0,0,0-2,1.38l-.34.28a8.17,8.17,0,0,0-2.27,3.58L156,108a8.35,8.35,0,0,0-.24,4.21,13.22,13.22,0,0,0,.29,2.42l.16.75c0,.51,0,.88.05,1.25a19.67,19.67,0,0,0,.21,2.17l.05.85c.1,1.41.2,2.82.33,4.24,0,.75,0,1.5.07,2.26,0,1,.07,2,.15,3,.18,2.14.46,4.23.78,6.34l-.28,1.17a48,48,0,0,0-1.48,8.92c0,.69,0,1.38,0,2.06s.06,1.54,0,2.32a16.37,16.37,0,0,0,.06,2.1,17.51,17.51,0,0,1,.07,1.91c-.16.87-.33,1.74-.47,2.62-2.56-.25-4.94-.32-7.32-.36h-.84c-1.5,0-3,.06-4.48.13l-1.91.07c-1,0-2.11.05-3.16.05-1.62,0-3.24,0-4.86.14s-3.24.17-4.86.17c-2.75,0-5.66-.13-9.42-.44-1.88-.15-3.75-.36-5.62-.57-3.34-.36-6.78-.74-10.18-.8s-6.91-.18-10.77-.45c-.73,0-1.45-.06-2.18-.06s-1.43,0-2.15,0a6.65,6.65,0,0,0,0-1c0-.35,0-.7,0-1.05s0-.62.07-.93a11.89,11.89,0,0,0,.08-1.19,20.68,20.68,0,0,0-.36-3.33,50.21,50.21,0,0,1,.57-8.3c.22-1.6.41-3.18.56-4.8l.12-1.07a19.17,19.17,0,0,0,.17-3.3,29.87,29.87,0,0,0-1-5.8,14.07,14.07,0,0,1-.39-2.23c-.06-.75-.07-1.5-.07-2.25,0-.57,0-1.15,0-1.73a44.55,44.55,0,0,0-.74-6l-.15-.83-.14-.83a19.29,19.29,0,0,0-1.26-4.06c-1.38-3.33-5.37-5.08-8.61-5.08-.38,0-.75,0-1.13,0s-.76,0-1.14,0l-3.33,0c-3.19,0-5.6-.1-7.84-.32l-2.72-.28c-1.35-.15-2.69-.29-4-.41l-1-.07c-2.21-.18-4.41-.36-6.59-.67l.76.16a55.18,55.18,0,0,0-8.42-.7H40.28c-1.45,0-2.89.07-4.33.12-1.72.05-3.44.11-5.17.14-5.68.11-13.14.3-20.52.71a11.29,11.29,0,0,0-3.72.78,8.31,8.31,0,0,0-5.37,5.41,19.38,19.38,0,0,0-.51,7.54Z"/></g></g></svg>